<svg width="2000" height="2000" viewBox="0 0 2000 2000" fill="none" xmlns="http://www.w3.org/2000/svg">
<g clip-path="url(#clip0_157_188)">
<path d="M836.877 914.194C823.471 914.194 810.065 913.975 796.658 912.876C783.032 911.777 769.626 910.898 756.22 909.141C748.747 908.042 741.275 907.163 733.583 906.064C717.759 903.867 701.935 899.912 686.551 895.737C651.167 886.289 617.321 871.786 585.674 853.329C567.652 842.782 550.73 830.257 533.807 817.952C509.851 800.593 487.654 780.158 467.874 758.185C444.358 731.598 425.238 701.055 410.732 668.535C396.008 635.575 385.898 601.297 380.403 565.7C375.129 530.543 376.667 494.507 381.722 459.35C386.997 423.534 396.447 388.597 409.853 354.978C423.479 321.359 442.16 289.498 466.775 262.471C475.786 252.583 485.236 243.354 494.687 234.126C509.412 219.404 525.455 206 542.158 193.695C584.795 162.713 634.244 142.278 685.012 128.874C710.506 122.282 737.099 117.888 763.472 117.668C774.241 117.668 784.79 117.448 795.559 117.229C803.911 117.229 812.043 117.668 820.394 118.107C828.526 118.547 836.877 118.986 845.009 119.646C862.591 119.865 880.173 120.305 897.535 120.964C922.37 121.843 947.424 122.502 972.259 124.919C1023.03 129.753 1072.92 144.255 1119.95 164.031C1144.78 174.359 1169.62 186.444 1191.81 201.825C1202.14 209.076 1211.81 216.547 1221.48 224.897C1231.15 233.247 1240.6 241.816 1250.06 250.606C1268.74 268.184 1286.98 286.861 1302.14 307.516C1310.27 318.503 1317.31 329.709 1323.9 341.574C1330.49 353 1335.33 365.525 1340.38 377.61C1350.27 402.22 1357.53 427.709 1363.9 453.418C1370.05 478.687 1373.13 504.615 1374.23 530.543C1374.67 543.727 1374.23 556.911 1374.01 570.095C1373.57 583.059 1371.37 596.023 1369.61 608.988C1367.64 622.171 1364.12 635.575 1359.28 647.88C1355.11 658.427 1350.93 668.754 1345.66 678.862C1335.55 697.539 1323.24 715.118 1308.74 730.719C1304.56 735.113 1300.6 739.948 1296.21 744.342C1291.37 748.956 1286.76 754.01 1281.48 758.405C1276.21 763.019 1270.71 767.634 1265.44 772.028C1259.51 777.082 1253.13 781.477 1246.98 786.091C1237.09 793.562 1226.76 800.154 1216.21 806.526C1204.12 813.777 1192.03 820.589 1179.73 827.401C1169.84 832.894 1159.51 837.728 1149.4 842.562C1136.21 848.715 1123.03 854.647 1109.62 860.36C1096.65 865.634 1083.69 870.468 1070.72 875.302C1059.29 879.477 1047.64 882.773 1036.21 886.289C1029.62 888.266 1022.81 889.804 1016.21 891.562C1010.28 893.1 1004.35 894.858 998.412 896.177C985.006 898.813 971.6 902.109 958.193 904.307C945.227 906.284 932.04 908.701 918.854 910.02C905.227 911.338 891.601 912.876 877.975 913.316C866.107 913.755 854.02 914.414 842.152 914.414C840.613 914.414 838.855 914.414 837.317 914.414L836.877 914.194ZM763.692 166.229C750.725 166.888 737.978 167.986 725.231 169.964C709.847 172.821 694.902 176.336 679.958 180.731C661.057 186.664 642.596 193.475 624.574 201.605C612.047 207.538 599.959 214.13 588.311 221.161C576.223 228.852 564.575 237.202 553.587 246.211C536.224 260.933 519.741 276.973 504.137 293.453C497.104 301.363 490.511 309.494 484.357 318.063C477.984 327.512 472.489 337.18 466.995 347.068C459.962 360.911 453.808 375.193 448.534 389.696C443.259 405.077 438.864 420.897 435.347 436.718C431.611 454.736 428.534 472.974 426.776 491.431C425.677 504.615 425.457 517.799 425.897 530.983C426.556 543.068 427.875 554.934 429.633 566.799C432.051 579.983 435.128 592.947 438.864 605.692C443.479 620.633 448.973 635.136 455.347 649.418C461.281 662.382 468.094 674.907 475.346 686.992C482.599 698.198 490.291 708.965 498.862 719.512C508.313 730.719 518.422 741.046 528.972 750.934C540.62 761.481 552.707 771.369 565.235 780.598C572.487 785.871 579.74 791.145 586.992 796.199C601.498 805.867 616.223 814.876 631.607 822.786C644.574 829.158 657.76 834.871 671.386 839.706C687.21 845.199 703.254 849.594 719.517 853.329C737.758 857.064 756.22 859.481 774.681 862.118C783.692 862.777 792.702 863.437 801.713 864.096C809.845 864.755 817.977 864.755 826.108 864.975C834.899 864.975 843.471 865.414 852.262 864.975C863.031 864.535 874.019 864.096 884.788 863.656C883.689 863.656 882.81 863.656 881.711 863.656C893.579 862.558 905.667 861.459 917.535 860.141C923.249 859.701 928.963 858.383 934.677 857.504C940.392 856.625 946.106 855.746 952.04 854.867C963.688 852.45 975.556 850.033 987.204 847.616C992.259 846.517 997.094 844.979 1002.15 843.88C1008.52 842.342 1014.68 840.584 1021.05 839.046C1034.9 834.652 1048.74 830.477 1062.37 825.423C1068.96 823.006 1075.77 820.589 1082.37 817.952C1090.5 814.656 1098.41 811.141 1106.54 807.845C1114.23 804.329 1122.15 800.593 1129.84 797.078C1138.19 793.122 1146.54 788.728 1154.67 784.553C1169.4 777.082 1183.46 768.513 1197.31 759.943C1203.46 755.768 1209.62 751.593 1215.55 747.638C1221.7 743.463 1227.2 738.849 1233.13 734.454C1240.17 728.521 1246.98 722.808 1253.57 716.436C1256.87 713.14 1260.6 710.064 1263.68 706.768C1267.2 703.033 1270.71 699.077 1274.23 695.342C1279.73 688.53 1285.22 681.719 1290.27 674.687C1294.67 668.095 1298.85 661.284 1302.58 654.252C1306.98 645.463 1310.49 636.674 1314.01 627.665C1316.21 621.292 1317.97 614.701 1319.5 608.109C1322.14 594.925 1323.46 581.741 1324.78 568.557C1325.22 557.57 1325.44 546.364 1325.22 535.378C1324.78 526.588 1324.34 517.799 1323.46 508.79C1322.58 499.561 1321.04 490.552 1319.5 481.543C1315.55 462.427 1310.49 443.53 1305 424.853C1299.29 407.933 1293.13 391.453 1286.1 375.193C1282.36 367.722 1278.41 360.471 1274.45 353.44C1270.93 347.947 1267.42 342.673 1263.46 337.399C1259.51 331.906 1255.11 326.633 1250.93 321.579C1243.24 313.009 1235.33 304.44 1226.98 296.31C1218.85 288.399 1210.72 280.709 1202.36 273.018C1195.99 267.305 1189.4 261.592 1182.8 255.879C1176.43 250.606 1170.06 245.771 1163.46 241.157C1153.13 234.565 1142.8 228.632 1132.04 222.7C1122.15 217.866 1112.48 213.251 1102.37 209.076C1092.04 204.901 1081.71 200.946 1071.38 197.211C1052.26 190.839 1032.92 185.126 1013.36 180.072C995.995 176.556 978.633 174.139 961.05 172.161C938.633 170.404 916.216 169.744 893.579 169.085C882.591 168.646 871.602 168.426 860.833 168.206C856.877 169.525 852.701 169.525 848.525 168.865C845.888 168.426 843.251 168.206 840.613 167.767C833.141 167.767 825.888 167.767 818.416 167.547C815.119 167.547 811.823 166.668 808.966 165.35C806.768 165.35 804.57 165.13 802.372 165.13H801.493C788.746 165.13 776.219 165.35 763.472 165.569L763.692 166.229Z" fill="black"/>
<path d="M681.276 480.225C671.166 472.095 663.474 460.888 657.32 449.462C652.705 440.453 650.288 431.005 654.024 421.337C658.639 409.032 674.243 403.758 685.891 408.812C693.583 412.108 698.418 418.7 699.737 426.171C700.836 428.148 701.935 430.346 703.034 432.323C704.572 434.74 706.33 436.938 708.308 439.355C710.066 441.113 711.825 442.87 713.583 444.628C712.704 443.969 712.044 443.09 711.165 442.431C713.143 444.189 715.121 445.727 717.319 447.265C718.198 447.704 718.857 448.144 719.737 448.803C719.737 448.803 719.737 448.803 719.517 448.803H719.956C719.956 448.803 720.176 448.803 720.396 449.023C720.616 449.023 720.835 449.023 721.055 449.023C721.495 449.023 721.934 449.023 722.154 449.023C722.813 449.023 723.473 448.803 724.132 448.583C724.791 448.364 725.451 448.144 726.33 447.705C727.868 447.045 729.407 446.166 730.725 445.287C732.264 444.189 733.802 443.09 735.341 441.772C738.637 438.915 741.714 436.059 744.791 432.982C750.285 426.83 755.56 420.678 760.615 414.086C764.351 408.812 767.648 403.319 770.725 397.606C770.725 397.386 770.944 396.947 771.164 396.727C774.241 390.794 778.417 386.18 784.79 383.763C790.724 381.565 797.317 381.785 803.031 384.202C814.68 389.256 821.712 404.417 815.559 416.063C809.405 427.929 802.372 438.915 794.46 449.682C791.164 454.077 787.647 458.032 783.911 461.987C775.34 471.435 766.329 480.225 755.56 486.817C750.285 490.113 744.791 492.749 738.857 494.727C732.484 496.705 726.11 497.584 719.517 497.584C719.297 497.584 718.858 497.584 718.638 497.584C704.352 497.584 691.825 489.453 681.056 480.664L681.276 480.225Z" fill="black"/>
<path d="M956.435 470.777C948.084 466.822 940.831 460.449 935.117 453.198C929.403 445.947 925.007 438.037 921.271 429.467C918.634 423.534 916.656 416.723 916.656 410.131C916.656 396.947 928.524 386.18 941.49 386.4C953.138 386.62 962.369 395.189 964.567 406.176C964.567 406.176 964.567 405.956 964.567 405.736C964.567 406.176 964.787 406.615 965.006 407.274C965.666 409.252 966.545 411.449 967.204 413.427C968.303 415.624 969.402 417.821 970.721 419.799C971.6 421.117 972.479 422.216 973.358 423.315C974.017 423.974 974.677 424.853 975.336 425.512C975.775 425.951 976.215 426.391 976.874 426.611C977.094 426.611 977.314 426.83 977.534 427.05C977.534 427.05 977.753 427.05 977.973 427.05C977.973 427.05 978.193 427.05 978.413 427.05C978.413 427.05 978.413 427.05 978.632 427.05H979.072C979.072 427.05 979.512 427.05 979.731 427.05C979.951 427.05 980.391 427.05 980.61 426.83C981.27 426.611 981.929 426.391 982.369 426.171C983.248 425.732 984.127 425.292 985.006 424.633C988.083 422.655 990.72 420.458 993.577 418.261C995.775 416.283 997.753 414.306 999.731 412.108C1001.27 410.351 1002.81 408.373 1004.35 406.395C1012.48 396.068 1028.08 394.31 1038.41 402.44C1048.74 410.79 1050.28 426.171 1042.37 436.499C1036.87 443.53 1030.72 450.122 1023.91 455.835C1011.38 466.162 996.874 475.391 980.171 475.391C980.171 475.391 980.171 475.391 979.951 475.391C971.6 475.391 964.127 473.633 956.435 470.117V470.777Z" fill="black"/>
<path d="M773.801 681.719C770.725 668.975 778.856 655.571 791.823 652.495C806.328 649.199 821.712 648.979 836.437 648.32C851.382 647.881 866.107 647.222 881.052 646.782C904.788 645.903 928.523 645.024 952.039 642.387C965.226 640.849 977.314 650.957 978.632 663.921C979.951 677.105 970.281 689.19 957.094 690.509C936.655 692.706 915.996 693.585 895.557 694.464C874.019 695.343 852.701 696.002 831.163 696.881C822.152 697.32 813.361 697.979 804.57 699.298C804.13 699.298 803.471 699.298 803.032 699.518C801.273 699.957 799.515 700.177 797.537 700.177C786.548 700.177 776.439 692.706 773.801 681.5V681.719Z" fill="black"/>
<path d="M1432.69 549.66C1419.5 544.826 1407.19 538.454 1395.11 530.983C1372.69 516.92 1351.59 500.66 1334.45 480.225C1330.27 475.171 1327.64 469.678 1327.86 462.866C1327.86 456.494 1330.71 450.342 1335.33 445.947C1344.34 437.158 1361.04 436.718 1369.61 446.826C1374.67 452.979 1380.16 458.472 1385.88 463.965C1392.69 470.118 1399.94 475.831 1407.41 481.104C1417.08 487.476 1426.75 493.629 1436.86 498.902C1441.26 500.88 1445.88 502.858 1450.49 504.616C1453.79 505.714 1457.08 506.593 1460.6 507.472C1465.44 508.351 1470.27 509.23 1475.11 509.669C1483.9 510.328 1492.91 510.329 1501.7 510.109C1508.73 509.669 1515.54 509.01 1522.58 507.911C1530.05 506.593 1537.3 504.615 1544.33 502.638C1554 499.562 1563.24 496.046 1572.47 491.871C1582.36 487.257 1591.81 482.203 1601.04 476.49C1608.07 471.875 1614.88 466.822 1621.48 461.548C1628.73 455.396 1635.54 449.023 1642.13 442.212C1648.29 435.4 1654.66 428.369 1660.38 421.118C1666.31 413.647 1671.8 405.956 1677.08 398.265C1680.38 392.772 1683.67 387.279 1687.19 381.786C1690.05 376.951 1692.46 371.898 1695.1 366.844C1695.1 366.844 1695.1 367.064 1695.1 367.283C1697.74 361.131 1700.59 354.978 1703.23 348.826C1705.65 343.113 1707.63 336.96 1709.61 331.028C1709.61 331.687 1709.17 332.126 1708.95 332.566C1709.39 331.467 1709.61 330.149 1710.05 329.05C1703.01 333.884 1695.76 338.499 1688.07 342.234C1661.04 355.418 1629.83 357.615 1601.26 348.386C1575.32 340.037 1554 321.359 1537.08 300.705C1521.04 281.368 1506.53 261.153 1491.81 240.718C1478.4 222.041 1464.56 203.583 1450.49 185.346C1439.28 171.942 1427.85 158.758 1415.11 146.673C1409.39 141.619 1403.68 137.005 1397.52 132.61C1392.69 129.314 1387.63 126.458 1382.58 123.601C1377.52 121.184 1372.47 118.987 1367.2 116.789C1360.82 114.592 1354.23 112.615 1347.64 111.076C1340.16 109.538 1332.69 108.44 1325 107.78C1316.43 107.341 1308.08 107.121 1299.5 107.341C1289.39 108 1279.5 109.099 1269.62 110.637C1260.16 112.395 1250.71 114.592 1241.48 117.449C1234.45 119.866 1227.64 122.283 1220.82 125.359C1214.45 128.435 1208.52 131.731 1202.36 135.247C1197.53 138.543 1192.69 141.839 1188.3 145.574C1185 148.431 1181.92 151.287 1178.85 154.583C1176.87 157 1174.89 159.198 1173.13 161.834C1171.38 164.471 1169.62 167.328 1168.08 169.964C1167.42 171.503 1166.76 172.821 1166.1 174.359C1165.66 175.458 1165.44 176.776 1165 177.875C1165 178.754 1164.56 179.633 1164.56 180.731C1162.36 193.695 1150.28 203.144 1136.87 200.947C1124.12 198.969 1114.23 186.444 1116.65 173.26C1118.85 160.516 1123.68 148.87 1130.5 137.884C1139.51 123.601 1152.04 111.955 1165.44 101.848C1192.69 81.1929 1226.32 69.5472 1259.51 63.3947C1295.11 56.8027 1332.03 57.4619 1367.2 66.2512C1382.14 69.9866 1396.43 76.1391 1410.05 83.61C1425.22 91.74 1438.84 102.946 1451.37 114.592C1462.36 124.919 1472.25 136.346 1481.92 147.772C1489.83 157.22 1497.52 166.888 1504.99 176.776C1521.26 198.749 1537.08 220.942 1553.13 243.135C1560.38 253.023 1568.07 262.691 1575.98 272.359C1580.16 276.974 1584.55 281.588 1589.17 285.763C1592.47 288.619 1595.98 291.476 1599.5 294.113C1602.14 295.871 1604.77 297.409 1607.41 298.947C1610.05 300.265 1612.9 301.364 1615.76 302.463C1618.4 303.341 1621.26 304.001 1623.89 304.66C1625.87 305.099 1627.85 305.319 1629.83 305.539C1632.9 305.539 1635.76 305.758 1638.84 305.758C1641.91 305.539 1644.77 305.099 1647.63 304.88C1650.71 304.22 1653.78 303.561 1656.86 302.682C1659.94 301.584 1663.01 300.485 1665.87 299.167C1669.61 297.189 1673.34 295.211 1676.86 293.014C1681.69 289.718 1686.31 286.202 1690.71 282.687C1699.94 274.557 1708.51 266.207 1716.64 257.198C1718.84 254.781 1720.81 252.364 1722.79 249.727C1726.97 243.135 1730.7 236.543 1737.96 232.808C1752.9 225.117 1771.8 234.566 1773.56 251.705C1774.44 259.835 1772.9 267.745 1771.58 275.875C1770.7 282.028 1769.38 288.18 1768.29 294.332C1765.65 307.297 1762.79 320.261 1759.06 333.005C1755.32 345.75 1751.36 358.714 1746.09 370.799C1743.23 377.171 1740.59 383.763 1737.52 389.916C1734.44 395.629 1731.8 401.781 1728.51 407.274C1725.21 412.768 1721.91 418.261 1718.4 423.535C1714.44 429.907 1709.61 436.059 1705.43 442.212C1697.74 452.979 1688.73 462.866 1679.94 472.535C1657.96 496.925 1631.37 516.481 1602.14 531.203C1572.25 546.364 1539.28 556.692 1505.65 558.23C1500.6 558.45 1495.54 558.669 1490.71 558.669C1470.93 558.669 1451.37 556.692 1432.91 549.66H1432.69Z" fill="black"/>
<path d="M1292.47 409.472C1280.38 407.274 1268.3 404.638 1256.43 401.342C1243.24 397.606 1230.5 393.212 1217.75 388.377C1206.1 383.983 1194.67 378.929 1183.46 373.436C1170.72 367.283 1158.63 360.472 1146.76 353.22C1135.33 346.409 1124.78 338.279 1114.23 330.149C1104.34 322.678 1094.89 314.328 1085.66 306.198C1065.66 288.839 1046.54 270.821 1027.86 252.144C1021.05 245.332 1014.68 238.301 1008.3 231.269C999.731 221.382 991.379 211.054 982.149 201.825C982.149 201.825 981.929 201.606 981.709 201.386C979.951 202.485 977.973 203.583 976.215 204.682C955.336 217.866 935.117 231.709 914.458 245.113C891.821 259.615 868.525 272.579 844.569 284.884C840.174 287.081 835.778 289.279 831.163 291.256C823.691 294.552 816.438 298.507 808.966 301.364C796.878 305.978 785.01 311.032 772.703 314.548C764.791 316.965 756.659 319.382 748.747 321.799C743.473 323.337 737.978 324.436 732.484 325.754C726.11 327.292 719.957 328.611 713.583 330.149C706.33 331.687 699.078 332.566 691.825 333.884C650.507 340.915 608.311 344.871 566.553 340.915C548.971 339.158 531.609 336.301 514.466 331.687C499.302 327.512 484.577 321.359 471.83 311.911C463.039 305.319 456.226 295.211 457.984 284.005C459.303 274.776 466.775 265.548 476.445 264.009C482.819 262.911 488.972 263.35 494.467 266.866C497.544 268.624 500.181 271.261 502.159 274.337C502.159 274.337 502.379 274.337 502.599 274.557C504.577 275.875 506.555 276.974 508.752 278.072C511.829 279.61 515.126 280.929 518.422 282.247C525.016 284.444 531.829 286.422 538.642 287.96C550.07 290.377 561.498 291.915 572.927 293.014C587.212 294.113 601.717 294.332 616.222 293.893C634.024 293.014 651.826 290.817 669.408 288.839C668.309 288.839 667.43 289.279 666.331 289.279C682.595 286.422 698.858 284.005 715.121 280.27C722.814 278.512 730.726 277.193 738.198 274.776C746.769 272.14 755.56 269.503 764.131 266.866C773.582 263.35 783.032 259.615 792.482 256.099C792.263 256.099 792.043 256.319 791.823 256.539C807.867 249.287 823.91 242.036 839.075 233.467C855.558 224.238 872.041 214.79 888.085 204.682C904.128 194.355 920.172 183.807 935.996 173.48C943.688 168.426 951.6 163.372 959.732 158.538C966.984 154.144 975.336 151.287 983.907 151.507C995.335 151.727 1005.23 157.44 1013.8 164.471C1023.69 172.601 1031.6 183.148 1039.95 192.816C1046.54 200.287 1053.14 207.978 1060.17 215.229C1074.23 229.292 1088.74 242.915 1103.25 256.539C1111.82 264.229 1120.39 271.92 1129.18 279.391C1138.19 287.301 1147.86 294.332 1157.31 301.584C1163.46 305.758 1169.84 310.153 1176.21 313.889C1183.9 318.503 1191.81 322.897 1199.95 327.072C1216.87 335.202 1234.01 342.454 1251.59 348.826C1263.02 352.561 1274.45 355.637 1286.1 358.494C1290.93 359.593 1295.99 360.472 1300.82 361.351C1313.79 363.768 1323.24 375.633 1321.04 389.037C1319.28 400.463 1308.96 409.691 1297.31 409.691C1295.99 409.691 1294.67 409.691 1293.35 409.252L1292.47 409.472Z" fill="black"/>
<path d="M585.893 1704.35C580.399 1703.47 574.905 1701.71 570.509 1698.2C565.235 1694.02 560.839 1687.21 560.399 1680.62C560.18 1676 560.399 1671.61 561.718 1667.21C562.377 1664.8 563.257 1662.16 564.136 1659.74C566.114 1653.81 568.311 1648.1 570.289 1642.17C574.465 1630.52 578.421 1618.87 582.377 1607.23C590.509 1583.94 598.64 1560.65 606.113 1537.35C614.464 1510.99 622.376 1484.62 629.849 1458.25C637.101 1432.32 643.475 1406.17 649.848 1380.03C665.232 1316.52 679.298 1252.36 693.364 1188.64C693.364 1188.42 693.364 1188.2 693.364 1187.76C703.693 1138.76 713.583 1089.76 723.253 1040.76C727.868 1017.03 732.703 993.079 737.319 969.348C739.736 957.482 741.934 945.617 744.132 933.751C744.571 931.115 745.011 928.478 745.67 925.841C746.33 922.325 746.549 918.37 747.868 915.074C751.604 904.527 760.395 897.496 771.824 897.496C785.01 897.496 795.779 909.361 795.559 922.325C795.559 924.303 795.12 926.28 794.68 928.038C774.681 1033.29 753.802 1138.32 730.945 1242.91C725.671 1266.64 720.396 1290.38 714.902 1314.11C708.968 1339.38 703.473 1364.86 697.32 1390.13C690.946 1415.84 685.012 1441.55 677.76 1467.04C670.067 1493.85 662.156 1520.65 653.804 1547.46C646.332 1570.75 638.42 1593.82 630.508 1616.9C626.772 1627.88 623.035 1638.65 619.08 1649.64C618.2 1652.49 617.102 1655.35 616.003 1658.21C618.86 1658.21 621.717 1658.21 624.574 1658.21C637.321 1657.55 649.848 1656.45 662.595 1655.35C676.221 1654.03 690.067 1652.27 703.693 1650.52C729.187 1647.44 754.461 1643.26 779.735 1639.75C831.822 1632.72 884.349 1627 936.435 1619.53C987.643 1612.06 1038.85 1603.71 1090.5 1599.32C1141.49 1594.92 1192.91 1592.95 1244.34 1591.63C1249.84 1591.63 1255.11 1591.41 1260.6 1591.41C1255.33 1576.69 1249.4 1562.18 1243.24 1547.9C1235.77 1530.32 1228.3 1512.96 1220.61 1495.6C1197.97 1447.48 1174.23 1399.8 1151.38 1351.68C1128.96 1304.66 1105.44 1258.07 1083.03 1211.27C1072.26 1188.64 1061.93 1165.79 1051.6 1142.94C1040.83 1119.2 1030.28 1095.25 1021.27 1070.64C1012.26 1046.47 1003.69 1022.3 996.654 997.473C990.28 975.281 984.346 952.648 977.753 930.455C975.995 924.962 974.237 919.469 972.259 913.975C967.644 901.67 973.797 887.388 986.324 882.774C998.632 878.159 1013.14 884.531 1017.53 896.836C1023.03 911.778 1027.2 927.159 1031.6 942.541C1036.65 960.558 1041.49 978.357 1046.76 996.155C1054.67 1021.2 1063.47 1045.81 1073.14 1070.42C1083.25 1095.91 1094.67 1120.74 1106.1 1145.57C1105.66 1144.69 1105.22 1143.59 1104.78 1142.72C1126.98 1191.06 1150.5 1238.96 1174.01 1286.64C1196.21 1332.12 1217.97 1377.83 1240.17 1423.31C1251.37 1446.16 1262.14 1469.24 1272.69 1492.53C1282.14 1513.84 1291.59 1535.38 1299.94 1557.13C1302.36 1563.28 1304.56 1569.43 1306.98 1575.59C1311.59 1587.89 1316.21 1601.95 1313.57 1615.36C1312.47 1620.85 1310.05 1625.03 1306.54 1629.42C1302.58 1634.47 1296.43 1637.55 1290.27 1638.87C1282.8 1640.63 1274.23 1639.31 1266.54 1639.31C1243.9 1639.09 1221.26 1640.19 1198.63 1640.85C1199.29 1640.85 1199.95 1640.85 1200.61 1640.85C1148.74 1643.04 1097.09 1645.9 1045.66 1652.27C994.017 1658.65 942.589 1667.21 890.722 1674.25C865.008 1677.76 839.295 1680.62 813.801 1683.69C788.307 1686.77 763.033 1690.51 737.758 1694.24C710.067 1698.2 682.155 1701.71 654.244 1704.35C642.156 1705.45 630.068 1706.11 617.981 1706.33C615.783 1706.33 613.365 1706.33 611.168 1706.33C602.596 1706.33 594.025 1705.89 585.454 1704.57L585.893 1704.35Z" fill="black"/>
<path d="M924.787 1938.14C917.535 1936.17 911.381 1931.77 905.447 1927.6C899.953 1923.64 895.557 1917.93 891.382 1912.44C886.107 1905.4 882.371 1897.05 878.854 1889.14C875.558 1881.67 873.58 1873.54 871.382 1865.63C869.404 1857.72 868.085 1849.59 866.767 1841.46C863.91 1823.66 863.69 1805.21 864.789 1787.41C865.228 1778.4 866.327 1769.39 867.866 1760.6C849.624 1777.3 831.163 1794 810.944 1808.5C805.23 1812.46 799.515 1816.63 794.021 1820.59C787.647 1825.2 780.615 1828.94 774.021 1833.11C763.252 1839.7 752.044 1845.42 741.055 1851.35C734.901 1854.65 728.308 1857.06 721.935 1859.92C716.66 1862.34 711.605 1864.75 706.111 1866.73C698.419 1869.59 690.946 1872.22 683.474 1875.08C673.364 1878.82 663.255 1881.89 653.145 1884.97C616.662 1895.52 578.861 1900.35 540.84 1899.91C506.115 1899.47 470.511 1894.42 438.204 1881.01C424.578 1875.3 411.831 1867.39 401.062 1857.28C395.788 1852.23 390.953 1846.74 386.997 1840.36C382.601 1833.55 379.524 1826.08 377.327 1818.17C375.568 1811.58 375.349 1803.89 376.008 1797.3C376.887 1790.04 378.865 1783.45 381.722 1776.86C388.315 1761.7 401.282 1750.05 414.029 1740.17C432.49 1725.66 453.808 1715.56 474.907 1705.23C487.434 1699.08 500.401 1694.02 513.148 1688.53C517.763 1686.55 522.378 1685.23 526.994 1683.69C534.246 1681.28 541.499 1678.42 548.751 1676.22C565.235 1671.17 581.938 1667.43 599.08 1665.02C612.706 1663.04 626.332 1663.26 639.958 1664.36C645.233 1664.8 651.167 1665.24 656.002 1667.65C661.936 1670.73 666.551 1674.91 668.969 1681.28C671.166 1687.21 670.947 1693.8 668.529 1699.52C663.694 1710.5 649.848 1717.31 638.2 1712.92C637.761 1712.92 637.101 1712.92 636.662 1712.7C630.508 1712.26 624.574 1711.82 618.42 1712.04C611.168 1712.48 603.915 1713.36 596.663 1714.46C584.795 1716.65 573.366 1719.51 561.938 1723.03C551.828 1726.54 541.719 1730.06 531.829 1733.35C526.994 1735.11 522.159 1737.31 517.543 1739.51C512.488 1741.7 507.434 1743.9 502.159 1746.1C486.775 1753.57 471.171 1761.04 456.446 1769.83C449.852 1774.22 443.479 1778.62 437.105 1783.67C434.688 1785.87 432.49 1788.07 430.292 1790.48C429.413 1791.58 428.314 1792.9 427.435 1794C426.996 1794.88 426.336 1795.76 425.897 1796.42C425.457 1797.52 425.018 1798.61 424.578 1799.49C424.578 1799.93 424.359 1800.37 424.139 1800.81C424.139 1801.47 424.139 1802.13 424.139 1802.57C424.139 1803.23 424.139 1803.67 424.139 1804.33C424.139 1804.99 424.139 1805.65 424.139 1806.3C424.139 1806.09 424.139 1805.65 424.139 1805.43C424.139 1805.43 424.139 1804.77 424.139 1804.55C424.139 1805.65 424.578 1806.74 424.798 1807.84C425.238 1808.72 425.457 1809.82 425.897 1810.7C426.556 1811.8 427.216 1813.12 427.655 1814.22C428.314 1815.09 428.974 1816.19 429.853 1817.07C431.391 1818.83 433.15 1820.59 434.908 1822.35C437.105 1824.1 439.083 1825.86 441.501 1827.62C444.798 1829.82 448.094 1831.57 451.611 1833.55C455.786 1835.53 459.962 1837.29 464.358 1839.04C472.27 1841.68 480.181 1843.88 488.093 1845.64C499.302 1847.83 510.511 1849.37 521.719 1850.25C535.125 1851.13 548.532 1851.57 561.938 1851.13C575.564 1850.47 588.97 1848.93 602.377 1846.96C618.64 1843.88 634.684 1840.14 650.508 1835.31C663.914 1831.13 677.1 1826.08 690.287 1821.25C694.682 1819.71 698.858 1817.51 703.034 1815.53C708.309 1813.12 713.583 1810.92 718.858 1808.5C727.649 1803.67 736.44 1799.05 745.231 1794.44C748.747 1792.68 751.824 1790.26 755.121 1788.29C758.857 1785.87 762.593 1783.67 766.329 1781.26C772.923 1776.64 779.516 1772.03 786.109 1767.19C791.823 1763.02 797.537 1758.4 803.032 1754.01C819.075 1740.39 834.46 1726.32 849.844 1712.04C857.316 1705.23 864.569 1698.42 872.041 1691.61C875.777 1688.31 879.294 1684.79 883.03 1681.5C888.964 1676.22 894.458 1669.63 901.931 1667C909.183 1664.36 917.315 1665.24 923.908 1669.41C924.787 1666.56 926.106 1663.7 928.304 1661.06C936.436 1650.95 952.259 1648.76 962.369 1657.11C973.138 1666.12 982.588 1676.44 990.281 1688.09C997.533 1699.08 1004.13 1710.72 1008.3 1723.03C1016.87 1748.52 1022.59 1774.66 1023.69 1801.69C1024.57 1828.94 1022.15 1856.62 1012.26 1882.33C1006.98 1896.18 999.511 1909.36 988.962 1919.91C983.248 1925.4 977.314 1929.79 970.501 1933.97C963.248 1938.36 954.457 1940.34 946.325 1941.22C945.007 1941.22 943.688 1941.44 942.15 1941.44C936.436 1941.44 930.721 1940.12 925.227 1938.8L924.787 1938.14ZM927.205 1714.46C925.447 1721.27 923.689 1727.86 921.93 1734.45C918.414 1751.15 915.117 1767.85 913.359 1784.99C912.7 1794 912.48 1802.79 912.7 1811.8C913.139 1821.25 914.018 1830.48 915.557 1839.92C916.875 1847.18 918.414 1854.21 920.392 1861.24C921.93 1865.85 923.469 1870.25 925.227 1874.64C926.546 1877.28 927.864 1879.91 929.403 1882.55C930.282 1883.87 931.161 1885.19 932.26 1886.51C932.919 1887.39 933.798 1888.26 934.677 1888.92C935.337 1889.36 935.776 1889.8 936.435 1890.24C937.095 1890.68 937.754 1890.9 938.413 1891.34C938.633 1891.34 939.073 1891.56 939.293 1891.78C939.512 1891.78 939.732 1891.78 940.172 1892C940.391 1892 940.831 1892 941.271 1892C941.49 1892 941.71 1892 941.93 1892C942.15 1892 942.369 1892 942.809 1892C943.249 1892 943.688 1892 944.128 1891.78C944.787 1891.56 945.446 1891.34 945.886 1891.12C946.545 1890.9 947.205 1890.46 947.644 1890.24C948.743 1889.36 949.842 1888.7 950.941 1887.83C951.82 1886.95 952.919 1886.07 953.798 1885.19C955.776 1882.99 957.534 1880.57 959.292 1878.16C960.391 1876.62 961.27 1874.86 962.149 1873.32C963.688 1870.03 965.226 1866.73 966.545 1863.22C968.303 1858.16 969.622 1853.11 970.94 1848.05C972.259 1841.24 973.358 1834.21 974.017 1827.18C974.677 1817.29 974.457 1807.62 974.017 1797.74C973.578 1792.68 972.918 1787.85 972.479 1782.79C971.6 1777.74 970.721 1772.69 969.622 1767.63C968.083 1761.04 966.545 1754.45 964.567 1747.86C962.589 1742.36 960.611 1736.87 958.413 1731.38C956.215 1726.98 953.798 1722.59 951.38 1718.41C948.303 1713.8 945.007 1709.4 941.71 1705.23C939.073 1702.37 936.436 1699.52 933.578 1696.88C933.359 1696.66 932.919 1696.44 932.699 1696.22C930.721 1702.37 928.524 1708.52 926.985 1714.68L927.205 1714.46Z" fill="black"/>
<path d="M1058.41 1897.71C1034.24 1889.58 1017.75 1869.37 1004.13 1848.93C996.874 1837.95 991.159 1825.64 986.105 1813.34C976.434 1788.73 970.5 1763.02 966.325 1736.87C965.446 1731.16 964.786 1725.66 964.127 1719.95C963.248 1712.7 962.589 1705.01 963.687 1697.98C964.567 1691.6 966.325 1685.67 969.402 1679.96C972.259 1674.47 975.775 1668.97 980.171 1664.58C987.863 1657.11 996.654 1652.49 1006.98 1649.42C1017.75 1646.12 1029.18 1652.49 1034.24 1662.16C1038.19 1659.74 1042.81 1658.43 1047.64 1658.43C1054.02 1658.43 1059.29 1661.06 1063.91 1665.24C1075.33 1675.12 1086.98 1684.79 1098.41 1694.46C1109.84 1704.35 1121.49 1714.24 1132.69 1724.34C1145 1735.33 1157.53 1746.32 1170.06 1757.08C1181.27 1766.53 1193.13 1775.1 1205.22 1783.67C1211.81 1787.85 1218.41 1791.8 1225.22 1795.32C1233.79 1799.71 1242.58 1803.45 1251.59 1806.74C1260.16 1809.6 1268.74 1812.02 1277.53 1814C1288.3 1816.19 1299.06 1817.73 1310.05 1818.61C1318.62 1819.27 1327.2 1819.27 1335.77 1819.71C1342.14 1819.93 1348.73 1819.49 1355.33 1819.27C1361.26 1818.61 1367.42 1817.95 1373.35 1817.29C1395.33 1813.34 1417.3 1809.38 1438.62 1803.23C1443.02 1801.91 1447.41 1800.37 1451.59 1798.61C1453.57 1797.74 1455.55 1796.64 1457.3 1795.54C1457.3 1795.54 1457.3 1795.54 1457.52 1795.32C1462.14 1791.14 1466.31 1786.75 1470.71 1782.13C1474.23 1778.18 1477.52 1774 1480.82 1769.61C1481.92 1768.07 1482.8 1766.31 1483.68 1764.78C1484.56 1763.02 1485.43 1761.04 1486.09 1759.06C1486.53 1757.74 1486.97 1756.21 1487.41 1754.67C1487.63 1753.35 1487.85 1751.81 1488.07 1750.49C1488.07 1749.39 1488.07 1748.3 1488.07 1747.2C1488.07 1746.1 1488.07 1745.22 1487.85 1744.12C1486.75 1738.63 1485.21 1733.13 1483.68 1727.64C1483.24 1726.54 1482.8 1725.22 1482.36 1724.13C1481.92 1723.03 1481.26 1721.93 1480.6 1720.83C1480.16 1720.39 1479.94 1719.73 1479.5 1719.29C1472.69 1712.04 1465.65 1705.01 1458.4 1697.98C1453.57 1693.58 1448.73 1689.63 1443.46 1685.67C1438.62 1682.38 1433.57 1679.52 1428.51 1676.66C1423.02 1674.03 1417.52 1671.39 1411.81 1669.19C1401.04 1665.46 1390.27 1661.72 1379.28 1658.86C1366.76 1655.57 1354.23 1652.49 1341.7 1649.64C1331.37 1647.88 1321.26 1645.9 1310.93 1644.8C1307.2 1644.58 1303.68 1644.58 1299.94 1644.58C1299.5 1644.58 1298.85 1644.58 1298.41 1644.58C1295.77 1645.68 1292.69 1646.12 1289.83 1646.12C1276.43 1645.9 1266.1 1634.47 1266.1 1621.29C1266.1 1611.4 1273.13 1602.17 1282.14 1598.88C1287.42 1596.9 1293.35 1596.46 1298.85 1596.24C1307.42 1596.02 1315.99 1596.68 1324.56 1597.78C1338.84 1599.54 1353.13 1602.83 1367.2 1606.13C1379.72 1608.99 1392.25 1612.28 1404.78 1616.02C1423.9 1621.51 1442.36 1628.98 1459.72 1638.87C1478.18 1649.42 1493.35 1664.14 1508.07 1679.08C1515.98 1687.21 1523.24 1695.34 1527.41 1706.11C1532.91 1720.17 1536.64 1735.11 1536.86 1750.05C1536.86 1765 1531.37 1779.5 1524.12 1792.46C1517.52 1804.33 1507.63 1814.21 1498.4 1823.88C1495.1 1827.18 1491.81 1830.69 1488.07 1833.55C1482.58 1837.95 1476.42 1841.24 1469.83 1843.88C1453.79 1850.69 1436.42 1855.08 1419.28 1858.38C1412.69 1859.7 1405.88 1861.02 1399.28 1862.34C1392.69 1863.65 1385.88 1865.19 1379.06 1865.85C1372.91 1866.51 1366.54 1867.17 1360.38 1867.83C1357.31 1868.05 1354.01 1868.05 1350.93 1868.05C1346.1 1868.05 1341.26 1868.27 1336.43 1868.49C1330.05 1868.49 1323.68 1868.05 1317.31 1867.83C1302.8 1867.39 1288.52 1865.41 1274.23 1863C1240.6 1856.84 1209.18 1843.66 1180.39 1825.42C1168.52 1817.95 1157.31 1808.94 1146.1 1800.37C1139.51 1795.1 1132.91 1789.61 1126.54 1783.89C1129.18 1792.46 1131.38 1801.25 1133.13 1810.26C1134.45 1816.85 1135.33 1823.44 1135.99 1830.26C1137.75 1844.32 1135.99 1857.94 1131.16 1871.13C1126.76 1882.99 1116.21 1893.1 1104.56 1897.93C1097.09 1901.01 1089.18 1902.55 1081.49 1902.55C1073.8 1902.55 1066.1 1901.23 1058.41 1898.59V1897.71ZM1079.73 1853.55C1079.73 1853.55 1079.07 1853.55 1078.85 1853.55H1079.95C1081.49 1853.55 1083.25 1853.55 1084.78 1853.11C1084.78 1853.11 1084.56 1853.11 1084.34 1853.11C1084.34 1853.11 1084.12 1853.11 1083.9 1853.11C1083.68 1853.11 1083.47 1853.11 1083.25 1853.11C1083.68 1853.11 1084.12 1852.89 1084.56 1852.67C1084.56 1852.67 1085 1852.67 1085.22 1852.45C1085.22 1852.45 1085.44 1852.45 1085.66 1852.23C1085.66 1852.23 1085.88 1851.79 1086.1 1851.57L1086.54 1850.47C1086.54 1850.47 1086.98 1848.71 1087.2 1847.83C1087.2 1846.74 1087.64 1845.64 1087.64 1844.54C1087.64 1843 1087.64 1841.46 1087.64 1839.92C1087.2 1833.33 1086.32 1826.74 1085.22 1820.15C1083.9 1813.56 1082.37 1806.96 1080.61 1800.37C1078.19 1792.68 1075.77 1784.77 1072.92 1777.3C1069.4 1768.51 1065.88 1760.16 1062.15 1751.59C1059.73 1746.76 1057.31 1742.14 1054.89 1737.31C1052.48 1732.91 1049.84 1728.52 1047.2 1724.13C1041.71 1715.78 1036.21 1707.86 1030.06 1700.17C1029.84 1699.95 1029.62 1699.73 1029.4 1699.52C1027.86 1697.76 1026.32 1695.56 1025.44 1693.58C1023.25 1694.9 1020.83 1696 1018.19 1696.66C1018.41 1696.66 1018.85 1696.66 1019.07 1696.44C1018.63 1696.44 1017.97 1696.88 1017.53 1697.1C1016.87 1697.32 1016.43 1697.76 1015.77 1697.98C1015.77 1697.98 1015.55 1698.2 1015.33 1698.42C1015.33 1698.42 1014.9 1698.86 1014.68 1698.86C1014.46 1699.08 1014.24 1699.3 1014.02 1699.73C1013.36 1700.83 1012.7 1701.71 1012.26 1702.81C1012.26 1702.81 1012.26 1703.25 1012.04 1703.47C1012.04 1703.47 1012.04 1703.69 1012.04 1703.91C1012.04 1703.91 1012.04 1704.13 1012.04 1704.35C1012.04 1705.45 1012.04 1706.55 1012.04 1707.43C1012.7 1717.75 1014.24 1727.86 1015.77 1737.97C1017.97 1750.71 1020.83 1763.24 1024.35 1775.54C1027.64 1785.87 1031.38 1795.76 1035.77 1805.87C1038.63 1811.36 1041.49 1816.85 1044.56 1822.35C1048.08 1827.4 1051.38 1832.45 1055.33 1837.29C1057.31 1839.48 1059.51 1841.68 1061.49 1843.88C1063.25 1845.42 1065 1846.74 1066.76 1848.27C1068.3 1849.15 1069.84 1850.03 1071.38 1850.91C1072.48 1851.35 1073.58 1851.79 1074.45 1852.23C1075.33 1852.45 1076.43 1852.89 1077.31 1853.11C1078.19 1853.11 1079.07 1853.33 1079.95 1853.55C1080.61 1853.55 1081.27 1853.55 1081.93 1853.55C1081.49 1853.55 1081.27 1853.55 1080.83 1853.55C1080.39 1853.55 1080.17 1853.55 1079.73 1853.55C1079.51 1853.55 1079.07 1853.55 1078.85 1853.55C1079.29 1853.55 1079.51 1853.55 1079.95 1853.77L1079.73 1853.55Z" fill="black"/>
<path d="M404.578 1786.53C392.271 1781.26 386.996 1766.75 392.051 1754.67C431.391 1660.18 470.731 1565.92 510.29 1471.43C551.169 1373.43 592.047 1275.65 632.705 1177.65C669.408 1089.32 706.33 1001.21 743.033 912.877C748.087 900.792 763.032 895.079 774.9 900.352C787.208 905.626 792.482 920.128 787.427 932.213C746.549 1030.43 705.671 1128.43 664.573 1226.65C624.134 1323.99 583.476 1421.12 542.817 1518.46C507.214 1603.71 471.61 1688.97 436.226 1774.22C432.49 1783.23 423.259 1788.73 413.809 1788.73C410.732 1788.73 407.435 1788.07 404.359 1786.75L404.578 1786.53Z" fill="black"/>
<path d="M396.667 1816.85C366.338 1812.24 338.426 1799.05 311.614 1785.21C298.647 1778.62 285.9 1771.15 273.373 1763.68C260.626 1755.99 247.879 1747.86 236.011 1738.85C225.462 1730.94 224.143 1714.9 232.055 1704.79C240.406 1694.24 255.571 1692.92 266.12 1700.83C268.318 1702.59 270.516 1704.13 272.933 1705.89C295.57 1721.27 319.526 1734.89 343.921 1747.42C349.855 1750.27 355.789 1752.91 361.723 1755.77C366.777 1758.18 372.272 1760.16 377.546 1762.14C383.7 1764.12 389.854 1765.87 396.227 1767.63C398.865 1768.07 401.282 1768.51 403.919 1768.95C416.886 1770.93 426.117 1783.45 424.139 1796.64C422.381 1808.5 411.831 1817.29 399.964 1817.29C398.865 1817.29 397.546 1817.29 396.447 1817.07L396.667 1816.85Z" fill="black"/>
<path d="M367.656 1812.9C358.645 1803.23 350.514 1792.9 343.481 1781.7C336.668 1771.15 329.855 1760.16 324.141 1748.96C317.987 1736.87 311.833 1724.79 306.339 1712.26C303.701 1706.33 301.064 1700.61 298.866 1694.68C297.548 1691.17 296.009 1687.43 294.691 1683.91C293.812 1681.5 292.933 1679.08 292.053 1676.66C290.955 1672.49 290.295 1668.75 290.295 1664.36C290.075 1655.57 295.79 1647.66 303.042 1643.48C306.998 1641.29 311.394 1640.41 315.789 1640.41C328.976 1640.41 339.745 1652.27 339.525 1665.24C343.701 1675.78 348.096 1686.11 352.492 1696.44C356.887 1705.89 361.502 1715.12 366.118 1724.57C370.513 1733.13 375.348 1741.26 380.183 1749.39C385.678 1757.74 391.172 1765.66 397.326 1773.35C399.084 1775.32 400.842 1777.3 402.82 1779.28C411.831 1788.95 411.611 1804.33 401.941 1813.56C397.326 1817.95 391.172 1820.15 385.238 1820.15C378.865 1820.15 372.491 1817.73 367.876 1812.68L367.656 1812.9Z" fill="black"/>
<path d="M384.359 1799.49C379.744 1776.42 376.008 1752.91 372.491 1729.62C370.074 1713.14 367.437 1696.44 367.437 1679.52C367.437 1667.87 372.711 1656.23 384.139 1651.83C394.249 1648.1 406.117 1651.39 412.491 1660.4C416.886 1666.56 417.985 1674.47 416.007 1681.5C416.007 1683.04 416.007 1684.79 416.007 1686.55C417.765 1711.82 422.6 1737.09 426.776 1762.14C428.314 1770.93 429.853 1779.72 431.611 1788.51C434.248 1801.47 426.776 1814.66 413.589 1817.73C411.831 1818.17 410.073 1818.39 408.315 1818.39C397.326 1818.39 386.777 1810.92 384.579 1799.71L384.359 1799.49Z" fill="black"/>
<path d="M1456.42 1661.28C1403.9 1578.22 1351.15 1495.16 1298.63 1412.11C1241.7 1322.24 1185 1232.59 1128.08 1142.71C1078.85 1065.15 1029.62 987.585 980.61 909.8C973.578 898.593 978.413 883.212 989.401 876.62C1001.05 869.808 1015.55 874.203 1022.59 885.409C1079.29 975.499 1136.43 1065.15 1193.35 1155.02C1248.08 1241.59 1303.02 1328.17 1357.75 1414.74C1404.56 1488.79 1451.59 1562.84 1498.4 1636.89C1505.43 1648.1 1500.6 1663.48 1489.61 1670.07C1485.87 1672.27 1481.7 1673.37 1477.74 1673.37C1469.39 1673.37 1461.26 1668.97 1456.42 1661.28Z" fill="black"/>
<path d="M1475.11 1706.55C1466.53 1701.49 1461.92 1691.16 1463.46 1681.5C1464.78 1673.37 1468.07 1665.68 1470.71 1657.98C1475.32 1644.58 1479.5 1631.4 1484.34 1617.99C1493.35 1592.5 1502.8 1567.02 1515.1 1542.85C1521.04 1531.2 1537.52 1528.12 1548.29 1534.5C1553.78 1537.79 1557.96 1543.29 1559.5 1549.66C1561.04 1556.03 1559.5 1561.96 1556.86 1567.68C1556.86 1567.68 1556.86 1567.68 1556.86 1567.46C1545.65 1590.31 1536.86 1614.48 1528.29 1638.21C1525.65 1645.9 1523.02 1653.59 1520.38 1661.28C1517.52 1670.07 1514.23 1678.86 1511.59 1687.65C1511.37 1691.16 1510.27 1694.9 1508.29 1698.2C1503.9 1705.67 1495.54 1709.84 1487.41 1709.84C1483.24 1709.84 1478.84 1708.74 1475.11 1706.55Z" fill="black"/>
<path d="M1518.4 1723.91C1505.43 1721.93 1495.98 1709.4 1498.18 1696.22C1499.72 1686.11 1506.75 1679.96 1515.32 1675.78C1519.5 1673.81 1523.46 1671.61 1527.19 1669.41C1536.2 1663.7 1544.99 1657.77 1553.78 1651.61C1564.55 1643.92 1579.72 1646.34 1587.63 1657.11C1595.32 1667.65 1592.9 1683.25 1582.14 1690.95C1574.66 1696.22 1566.97 1701.49 1559.28 1706.55C1551.59 1711.6 1543.46 1715.78 1535.32 1720.17C1531.37 1722.81 1526.75 1724.34 1521.92 1724.34C1520.82 1724.34 1519.5 1724.34 1518.4 1724.12V1723.91Z" fill="black"/>
</g>
<defs>
<clipPath id="clip0_157_188">
<rect width="1547" height="1882" fill="white" transform="translate(227 59)"/>
</clipPath>
</defs>
</svg>
