<svg width="2000" height="2000" viewBox="0 0 2000 2000" fill="none" xmlns="http://www.w3.org/2000/svg">
<g clip-path="url(#clip0_157_197)">
<path d="M874.493 440.323C812.96 403.748 751.381 367.235 689.817 330.69C627.781 293.872 565.744 257.053 503.708 220.219C502.548 219.533 501.404 218.846 500.23 218.16C492.359 213.493 489.751 202.939 494.449 195.114C499.177 187.244 509.641 184.651 517.512 189.334C579.991 226.442 642.485 263.505 704.979 300.613C766.863 337.356 828.763 374.098 890.662 410.825C891.028 411.054 891.394 411.252 891.76 411.481C899.631 416.148 902.239 426.703 897.541 434.527C894.414 439.743 888.755 442.641 883.005 442.641C880.076 442.641 877.132 441.894 874.478 440.308L874.493 440.323Z" fill="black"/>
<path d="M320.329 1612.71C302.894 1612.11 285.245 1610.39 268.07 1607.4C249.598 1604.2 231.232 1600.13 213.614 1593.61C205.286 1590.55 197.064 1587.25 189.117 1583.23C177.997 1577.58 167.411 1571.41 157.328 1564.04C138.673 1550.4 123.816 1532.42 113.215 1511.98C108.105 1502.13 104.535 1491.59 101.607 1480.91C98.556 1469.84 96.451 1458.27 98.6018 1446.83C99.5475 1441.87 101.515 1437.1 103.346 1432.43C105.435 1427.11 108.273 1422.01 110.972 1417.01C116.021 1407.66 123.252 1399.18 131.397 1392.28C129.994 1391.17 128.621 1390.04 127.263 1388.87C118.721 1381.53 111.308 1372.9 104.856 1363.69C98.1747 1354.14 92.9122 1343.4 89.7852 1332.16C86.8717 1321.73 85.1786 1310.88 84.9803 1300.04C84.7667 1287.61 86.6734 1275.47 89.5259 1263.39C92.2715 1251.77 96.7256 1240.66 101.881 1229.91C107.601 1217.94 114.206 1206.45 121.528 1195.39C136.385 1172.97 153.728 1152.12 173.192 1133.5C150.617 1125.48 129.292 1114.63 109.661 1100.91C100.478 1094.49 92.1647 1086.85 84.4922 1078.72C76.3925 1070.1 69.3453 1060.35 64.1896 1049.72C59.3542 1039.79 57.0356 1028.93 55.2967 1018.09C53.3137 1005.7 53.9239 993.06 55.0679 980.63C56.1967 968.519 57.7983 956.577 60.544 944.711C63.3659 932.494 68.3538 920.521 74.196 909.463C79.7025 899.015 86.2006 889.284 93.8426 880.27C101.881 870.723 111.11 862.258 120.75 854.372C129.689 847.036 139.558 840.844 149.488 834.941C160.684 828.276 172.414 822.633 184.342 817.386C190.902 814.503 197.552 811.834 204.248 809.333C203.196 807.945 202.159 806.526 201.167 805.108C194.318 795.331 189.803 784.09 187.424 772.423C185.288 761.883 186.249 751.466 188.522 741.049C189.788 735.268 191.222 729.61 193.083 723.997C195.157 717.667 197.689 711.505 200.283 705.374C215.628 668.922 240.766 636.785 271.7 612.123C270.785 611.833 269.87 611.543 268.954 611.253C257.895 607.715 247.142 603.292 236.601 598.426C225.726 593.393 215.399 587.353 205.957 579.971C197.537 573.367 189.758 565.421 184.083 556.33C178.088 546.691 174.9 535.984 173.467 524.774C172.033 513.609 174.168 502.002 177.036 491.219C180.056 479.932 185.441 469.119 191.832 459.372C197.75 450.343 205.042 442.244 212.821 434.786C221.622 426.367 231.797 419.519 242.077 413.082C252.297 406.691 263.417 401.735 274.4 396.808C280.212 394.2 286.16 391.897 292.109 389.624C297.143 387.687 302.223 385.705 307.363 384.057C316.027 381.251 324.676 378.445 333.325 375.623C327.879 362.399 326.323 347.91 328.733 333.786C329.923 326.831 333.02 320.456 336.406 314.325C340.357 307.171 345.421 300.537 351.049 294.649C362.337 282.829 374.327 271.786 386.896 261.339C399.632 250.738 412.979 241.13 426.982 232.268C432.931 228.501 439.154 225.115 445.241 221.576C453.828 216.604 462.554 212.013 471.675 208.078C478.036 205.348 484.885 203.487 491.795 203.03C495.898 202.77 500.794 203.35 504.333 205.699C508.147 208.231 510.984 211.723 512.052 216.238C513.043 220.463 512.357 225.023 510.13 228.76C506.499 234.785 499.223 237.881 492.527 236.645C491.749 236.737 490.971 236.874 490.193 237.042C490.895 236.92 491.612 236.813 492.313 236.676C490.559 237.057 488.82 237.515 487.112 238.094C487.814 237.866 488.5 237.667 489.202 237.454C486.136 238.506 483.176 239.696 480.233 241.008C468.152 246.803 456.757 253.774 445.18 260.485C432.29 268.721 419.95 277.613 408.129 287.313C396.505 297.105 385.401 307.37 374.876 318.351C372.954 320.517 371.123 322.728 369.415 325.062C367.539 327.929 365.739 330.827 364.076 333.817C363.512 334.976 362.993 336.166 362.505 337.371C362.261 338.103 362.047 338.835 361.864 339.582C361.666 340.635 361.513 341.702 361.391 342.77C361.285 344.951 361.254 347.101 361.3 349.267C361.407 350.686 361.559 352.089 361.758 353.492C362.124 355.429 362.566 357.336 363.069 359.242C363.679 360.996 364.351 362.704 365.083 364.413C365.312 364.855 365.525 365.297 365.754 365.724C371.108 364.23 376.493 362.811 381.908 361.484C407.244 355.246 433.419 352.775 459.472 353.614C471.691 354.011 483.863 355.414 495.913 357.381C508.528 359.456 520.99 362.445 533.025 366.746C554.838 374.54 575.339 386.879 589.143 405.837C592.301 410.169 594.62 415.05 596.511 420.037C598.25 424.598 599.379 429.829 599.363 434.71C599.318 445.31 595.458 455.788 587.099 462.621C583.195 465.794 578.954 468.02 574.332 469.988C569.604 472.001 564.204 472.657 559.17 473.511C553.862 474.411 548.325 474.503 542.971 474.701C535.863 474.945 528.8 474.853 521.722 474.182C508.818 472.977 496.051 470.903 483.237 468.996C461.913 465.839 440.97 459.998 421.003 451.914C398.473 442.778 377.789 429.661 359.973 413.158C357.181 410.566 354.573 407.744 352.102 404.831C329.206 412.167 306.25 419.381 284.254 429.173C274.919 433.474 265.721 438.004 256.95 443.373C250.986 447.262 245.22 451.365 239.698 455.849C235.976 459.113 232.468 462.545 229.081 466.16C226.015 469.668 223.148 473.267 220.448 477.05C218.648 479.795 217.001 482.586 215.414 485.469C213.736 488.901 212.211 492.363 210.838 495.932C209.847 498.952 208.977 501.972 208.23 505.068C207.726 507.645 207.314 510.208 206.994 512.801C206.842 515.027 206.781 517.239 206.796 519.481C206.887 520.732 207.009 521.982 207.192 523.218C207.589 525.262 208.031 527.29 208.55 529.319C209.13 531.073 209.755 532.796 210.457 534.504C211.25 536.075 212.074 537.585 212.958 539.08C213.721 540.209 214.529 541.322 215.368 542.405C217.428 544.784 219.563 547.057 221.821 549.253C225.176 552.227 228.654 555.034 232.3 557.642C236.586 560.448 240.979 562.98 245.525 565.36C254.601 569.813 263.875 573.794 273.378 577.241C285.032 581.222 296.899 584.562 308.873 587.506C348.899 565.695 394.156 553.707 439.337 549.101C465.345 546.447 491.459 546.828 517.451 549.162C529.99 550.275 542.452 552.166 554.777 554.652C566.736 557.062 578.725 559.914 590.15 564.185C600.202 567.937 609.934 572.223 618.629 578.553C622.503 581.389 625.676 585.187 628.666 588.909C631.808 592.829 633.791 598.014 634.31 602.987C634.782 607.471 633.455 611.909 631.503 615.89C629.489 619.932 626.362 624.111 622.61 626.719C618.568 629.54 614.404 631.569 609.66 632.926C603.512 634.696 597.426 635.931 591.081 636.724C575.675 638.646 560.146 639.119 544.649 639.866C535.802 640.293 526.97 640.476 518.107 640.644C510.099 640.797 502.106 641.025 494.098 640.873C482.414 640.644 470.745 640.385 459.076 640.171C451.113 640.019 443.105 639.18 435.143 638.661C429.026 638.265 422.909 637.868 416.793 637.472C413.544 637.243 410.249 637.151 407 636.77C385.797 634.314 364.488 632.179 343.438 628.732C333.66 627.131 323.913 625.285 314.227 623.196C313.48 623.653 312.732 624.096 311.985 624.568C304.038 629.693 296.38 635.199 289.059 641.178C281.783 647.416 274.949 654.051 268.436 661.067C262.182 668.037 256.324 675.266 250.864 682.862C246.165 689.725 241.818 696.787 237.928 704.154C233.505 713.015 229.585 722.121 226.107 731.394C224.185 737.038 222.614 742.696 221.302 748.492C220.753 751.253 220.295 753.998 219.929 756.789C219.99 756.072 220.066 755.355 220.112 754.654C219.914 756.423 219.807 758.192 219.807 759.977C219.929 761.807 220.128 763.622 220.387 765.437C220.844 767.557 221.348 769.631 221.927 771.706C222.675 773.841 223.468 775.915 224.353 777.99C225.359 780.003 226.427 781.97 227.556 783.907C229.341 786.592 231.217 789.169 233.2 791.701C235.03 793.806 236.907 795.865 238.859 797.848C245.159 795.987 251.474 794.233 257.819 792.555C283.613 785.722 309.91 780.796 336.269 776.769C362.688 772.743 389.336 770.135 416.03 768.701C442.785 767.267 469.601 767.252 496.34 769.189C522.18 771.05 547.684 775.275 572.837 781.482C584.43 784.334 595.916 787.858 607.234 791.671C617.973 795.27 628.391 800.09 637.787 806.481C645.185 811.529 652.019 818.865 653.91 827.91C654.856 832.424 655.207 836.619 654.444 841.194C653.636 846.045 650.722 851.185 646.985 854.418C643.355 857.575 639.603 860.229 635.438 862.608C631.335 864.942 626.576 866.238 622.076 867.581C613.656 870.097 605.023 871.714 596.328 873.102C578.71 875.924 561.031 878.699 543.261 880.316C532.293 881.308 521.326 882.314 510.358 883.306C507.948 883.534 505.523 883.534 503.128 883.656C496.386 883.977 489.629 884.297 482.871 884.617C469.448 885.258 456.086 885.761 442.617 885.776C415.832 885.822 388.97 884.221 362.413 880.728C336.62 877.311 311.176 871.607 286.542 863.249C266.956 856.599 248.042 847.585 231.293 835.429C217.87 839.959 204.66 845.068 191.71 850.834C180.392 856.081 169.47 861.983 158.838 868.557C151.913 873.01 145.247 877.754 138.856 882.955C133.411 887.652 128.194 892.579 123.221 897.795C119.209 902.249 115.457 906.855 111.964 911.736C108.944 916.296 106.168 920.978 103.605 925.798C100.844 931.365 98.4035 937.024 96.2222 942.85C94.7579 947.212 93.5071 951.589 92.4546 956.074C90.5326 965.606 89.3581 975.23 88.4581 984.915C87.9547 991.23 87.6497 997.514 87.7412 1003.84C87.9852 1008.08 88.4581 1012.23 89.114 1016.43C89.8767 1020.44 90.7919 1024.4 91.9207 1028.34C92.6834 1030.52 93.4766 1032.64 94.3765 1034.77C95.6273 1037.26 96.9544 1039.66 98.3882 1042.02C100.646 1045.39 103.056 1048.62 105.603 1051.77C109.432 1056.13 113.444 1060.26 117.684 1064.23C122.199 1068.19 126.882 1071.85 131.763 1075.33C139.421 1080.47 147.352 1085.09 155.513 1089.39C164.681 1094.01 174.092 1098.01 183.717 1101.58C190.169 1103.87 196.683 1105.99 203.242 1107.95C211.113 1101.99 219.258 1096.36 227.632 1091.12C271.38 1063.77 319.825 1044.75 369.217 1030.35C419.721 1015.63 472.255 1008.07 524.819 1007.43C551.513 1007.11 578.283 1008.83 604.717 1012.61C616.737 1014.34 628.681 1016.61 640.503 1019.32C652.553 1022.08 664.283 1026.11 675.769 1030.64C685.18 1034.35 694.134 1039.4 701.578 1046.31C705.254 1049.71 708.579 1053.38 711.249 1057.65C714.193 1062.38 715.81 1067.14 716.572 1072.65C717.213 1077.22 716.099 1082.03 715.001 1086.43C713.918 1090.77 711.63 1095.52 708.778 1098.97C701.639 1107.62 692.35 1113.99 682.084 1118.46C667.09 1124.99 651.546 1129.34 635.789 1133.49C631.747 1134.55 627.72 1135.61 623.678 1136.67C619.498 1137.77 615.075 1138.35 610.834 1139.18C602.277 1140.85 593.735 1142.71 585.101 1144.06C573.402 1145.87 561.702 1147.69 550.018 1149.49C531.302 1152.38 512.418 1154.4 493.625 1156.75C488.302 1157.42 482.993 1157.83 477.639 1158.24C464.598 1159.22 451.571 1160.19 438.529 1161.18C428.309 1161.95 418.135 1162.68 407.885 1163.03C380.535 1163.96 353.215 1163.7 325.911 1162.01C299.492 1160.36 273.21 1157.17 247.126 1152.66C234.924 1150.54 222.812 1147.96 210.838 1144.89C200.801 1153.5 191.222 1162.59 182.207 1172.27C171.804 1183.83 162.148 1196.02 153.164 1208.73C146.635 1218.27 140.687 1228.11 135.287 1238.36C131.809 1245.25 128.59 1252.24 125.845 1259.45C124.091 1264.59 122.642 1269.78 121.391 1275.06C120.353 1280.06 119.53 1285.06 118.981 1290.14C118.767 1293.5 118.66 1296.84 118.706 1300.21C118.965 1304.77 119.438 1309.3 120.125 1313.81C120.781 1317.18 121.558 1320.52 122.474 1323.83C123.374 1326.56 124.35 1329.23 125.448 1331.9C127.126 1335.41 128.987 1338.78 131 1342.11C133.38 1345.64 135.897 1349.04 138.566 1352.37C141.388 1355.6 144.302 1358.67 147.368 1361.64C150.983 1364.85 154.735 1367.81 158.655 1370.61C159.327 1371.05 159.982 1371.5 160.654 1371.92C162.85 1370.52 165.047 1369.12 167.228 1367.7C175.267 1362.45 183.702 1357.8 191.954 1352.93C207.269 1343.92 223.209 1335.97 239.515 1328.9C263.661 1318.42 288.891 1310.32 314.227 1303.36C328.337 1299.49 342.538 1296.03 356.922 1293.25C380.809 1288.65 404.635 1283.55 428.751 1280.23C455.217 1276.58 481.819 1274.51 508.513 1273.71C521.524 1273.32 534.49 1273.58 547.471 1274.23C560.573 1274.9 573.661 1276.05 586.596 1278.15C597.777 1279.98 609.065 1282.62 619.788 1286.22C630.161 1289.71 640.411 1295.02 648.419 1302.62C655.054 1308.9 660.424 1317.44 659.844 1326.97C659.539 1331.69 658.959 1336.29 657.266 1340.73C655.146 1346.27 651.912 1351.04 648.099 1355.56C641.021 1363.98 631.03 1370 621.481 1375.19C612.558 1380.04 603.009 1384.37 593.415 1387.71C584.369 1390.87 575.385 1394.36 566.217 1397.12C555.814 1400.26 545.396 1403.39 535.008 1406.53C527.229 1408.86 519.282 1410.71 511.426 1412.77C503.479 1414.84 495.547 1417.25 487.493 1418.96C476.831 1421.22 466.169 1423.49 455.522 1425.75C445.683 1427.84 435.86 1430.08 425.914 1431.79C399.602 1436.29 373.274 1439.69 346.595 1441.09C320.054 1442.51 293.574 1441.79 267.109 1439.31C241.223 1436.9 215.277 1431.67 190.596 1423.43C180.712 1420.12 171.118 1416.03 161.828 1411.3C159.22 1413.15 156.657 1415.04 154.14 1417.01C151.944 1418.95 149.854 1420.96 147.825 1423.06C146.025 1425.14 144.317 1427.27 142.7 1429.5C140.915 1432.4 139.268 1435.36 137.682 1438.36C135.729 1442.34 133.99 1446.37 132.45 1450.53C132.175 1451.37 131.916 1452.21 131.687 1453.06C131.611 1453.49 131.534 1453.92 131.458 1454.35C131.473 1454.15 131.489 1453.96 131.504 1453.77C131.504 1453.8 131.489 1453.84 131.473 1453.87C131.397 1454.85 131.367 1455.83 131.382 1456.79C131.55 1459 131.763 1461.18 132.053 1463.36C133.044 1468.18 134.326 1472.94 135.699 1477.65C137.316 1482.68 139.131 1487.6 141.236 1492.46C143.524 1497.23 146.025 1501.87 148.771 1506.4C151.379 1510.38 154.156 1514.21 157.145 1517.9C160.486 1521.73 163.994 1525.37 167.701 1528.88C172.338 1532.99 177.158 1536.8 182.192 1540.4C187.164 1543.71 192.32 1546.68 197.476 1549.7C202.464 1552.22 207.421 1554.7 212.531 1556.93C217.794 1559.22 223.117 1561.2 228.486 1563.2C232.422 1564.44 236.357 1565.66 240.278 1566.88C244.35 1568.14 248.591 1569.03 252.725 1570.08C260.717 1571.82 268.756 1573.59 276.856 1574.7C285.916 1575.95 294.931 1577 304.023 1577.93C313.937 1578.6 323.806 1579.08 333.721 1579.43C343.59 1579.76 353.49 1579.34 363.344 1579.02C372.969 1578.38 382.548 1577.61 392.158 1576.67C400.959 1575.81 409.715 1574.3 418.44 1572.87C433.602 1569.96 448.581 1566.62 463.484 1562.57C478.448 1558.53 493.32 1554.09 508.162 1549.56C507.46 1549.78 506.774 1549.99 506.087 1550.19C512.036 1548.34 517.985 1546.47 523.919 1544.5C532.598 1541.63 542.239 1545.4 545.594 1554.25C548.737 1562.53 544.542 1573.04 535.847 1575.92C518.763 1581.56 501.511 1586.7 484.198 1591.61C466.55 1596.65 448.841 1601.18 430.811 1604.66C413.483 1608 395.88 1610.51 378.277 1611.66C368.408 1612.3 358.57 1612.71 348.685 1613.01C346.473 1613.07 344.246 1613.11 342.035 1613.11C334.835 1613.11 327.62 1612.8 320.435 1612.56L320.329 1612.71ZM338.328 1407.99C351.812 1407.4 365.266 1406.41 378.674 1404.91C392.128 1403.42 405.505 1401.3 418.852 1399.04C418.577 1399.09 418.303 1399.13 418.028 1399.19C418.547 1399.1 419.081 1399.01 419.599 1398.92C419.782 1398.89 419.965 1398.86 420.148 1398.83C420.011 1398.84 419.859 1398.87 419.721 1398.9C432.321 1396.68 444.798 1393.76 457.306 1391.11C466.886 1389.08 476.526 1387.21 486.014 1384.75C498.964 1381.38 511.93 1378.01 524.88 1374.62C530.57 1373.13 536.152 1371.22 541.781 1369.53C546.769 1368.02 551.757 1366.52 556.76 1365.01C569.832 1360.45 582.935 1356.11 595.626 1350.55C601.163 1347.95 606.594 1345.19 611.856 1342.04C614.739 1340.14 617.531 1338.14 620.261 1336.02C620.917 1335.44 621.542 1334.83 622.152 1334.2C623.007 1333.2 623.83 1332.18 624.608 1331.12C625.005 1330.51 625.371 1329.89 625.706 1329.25C625.706 1329.23 625.706 1329.2 625.706 1329.19C625.661 1329.28 625.615 1329.37 625.554 1329.48C625.554 1329.51 625.539 1329.52 625.523 1329.55C625.523 1329.55 625.523 1329.52 625.523 1329.51C625.462 1329.63 625.386 1329.75 625.325 1329.87C625.432 1329.63 625.523 1329.37 625.615 1329.11C625.691 1328.85 625.752 1328.59 625.828 1328.32C625.859 1328.15 625.89 1327.98 625.92 1327.81C625.737 1327.62 625.554 1327.43 625.356 1327.23C624.44 1326.46 623.495 1325.69 622.534 1324.98C620.749 1323.8 618.949 1322.69 617.103 1321.62C614.571 1320.4 612.009 1319.3 609.385 1318.31C602.918 1316.19 596.343 1314.59 589.708 1313.1C580.129 1311.1 570.488 1309.79 560.756 1308.89C539.767 1307.21 518.763 1306.89 497.713 1307.74C498.43 1307.71 499.147 1307.7 499.864 1307.67C472.224 1308.92 444.798 1311.77 417.433 1315.86C402.988 1318.66 388.512 1321.42 374.067 1324.2C367.874 1325.37 361.681 1326.58 355.488 1327.77C348.258 1329.16 341.089 1331.15 333.95 1332.95C324.34 1335.38 314.776 1338.05 305.258 1340.89C284.498 1347.28 264.027 1354.58 244.213 1363.52C232.193 1369.13 220.356 1375.16 208.931 1381.88C204.493 1384.51 200.054 1387.11 195.6 1389.74C196.439 1390.06 197.278 1390.38 198.117 1390.68C209.053 1394.44 220.204 1397.39 231.491 1399.93C245.494 1402.9 259.573 1405.01 273.836 1406.39C295.297 1408.22 316.775 1408.79 338.282 1408.02L338.328 1407.99ZM418.349 1129.14C417.632 1129.17 416.915 1129.19 416.198 1129.22C431.65 1128.06 447.102 1126.91 462.538 1125.74C469.509 1125.22 476.48 1124.7 483.436 1124.18C487.661 1123.85 491.856 1123.16 496.066 1122.63C506.087 1121.36 516.079 1120.11 526.1 1118.84C531.088 1118.22 536.107 1117.72 541.049 1116.94C554.884 1114.8 568.719 1112.64 582.554 1110.52C593.491 1108.37 604.428 1106.25 615.365 1104.1C620.108 1103.17 624.776 1101.64 629.444 1100.4C635.789 1098.73 642.119 1097.09 648.404 1095.2C655.451 1092.96 662.315 1090.38 669.118 1087.47C670.949 1086.6 672.733 1085.67 674.488 1084.68C676.272 1083.47 677.996 1082.21 679.689 1080.88C680.192 1080.42 680.696 1079.97 681.184 1079.48C681.398 1079.22 681.611 1078.96 681.825 1078.7L682.099 1078.27C682.221 1078.03 682.328 1077.79 682.45 1077.53C682.404 1077.68 682.343 1077.83 682.297 1077.97C682.297 1077.95 682.313 1077.94 682.328 1077.92C682.481 1077.45 682.633 1076.96 682.77 1076.47C682.801 1076.26 682.831 1076.03 682.862 1075.82C682.694 1075.51 682.511 1075.19 682.328 1074.89C682.282 1074.84 682.236 1074.8 682.206 1074.74C682.374 1074.99 682.526 1075.24 682.694 1075.5C682.343 1075.02 681.992 1074.57 681.642 1074.09C680.482 1072.81 679.292 1071.59 678.042 1070.4C677.203 1069.69 676.349 1069 675.479 1068.34C673.435 1066.99 671.361 1065.77 669.195 1064.59C664.496 1062.37 659.722 1060.47 654.841 1058.71C645.582 1055.49 636.231 1052.8 626.667 1050.67C609.294 1047.08 591.752 1044.54 574.088 1042.9C552.062 1041.1 529.99 1040.68 507.918 1041.45C508.62 1041.42 509.352 1041.41 510.053 1041.36C486.578 1042.32 463.255 1044.8 440.054 1048.64C416.06 1052.83 392.372 1058.43 369.049 1065.43C343.529 1073.3 318.422 1082.5 294.077 1093.5C277.924 1101 262.151 1109.3 246.959 1118.6C268.237 1122.58 289.745 1125.43 311.314 1127.36C346.977 1130.28 382.624 1130.54 418.364 1129.15L418.349 1129.14ZM462.386 852.084C474.345 851.535 486.288 850.941 498.232 850.391C508.833 849.873 519.373 848.82 529.929 847.86C541.323 846.823 552.611 845.48 563.96 844.047C574.302 842.735 584.552 841.057 594.833 839.41C601.209 838.205 607.509 836.924 613.748 835.078C615.12 834.636 616.478 834.178 617.82 833.69C614.922 831.875 611.917 830.213 608.882 828.627C605.678 827.117 602.429 825.759 599.104 824.493C583.805 819.155 568.124 814.778 552.306 811.239C535.13 807.594 517.848 804.894 500.367 803.262C476.526 801.31 452.639 800.975 428.721 801.783C393.79 803.217 358.981 806.923 324.493 812.703C324.996 812.612 325.515 812.536 326.018 812.444C325.469 812.536 324.905 812.642 324.356 812.734C324.203 812.764 324.051 812.78 323.898 812.81C324.051 812.78 324.188 812.764 324.34 812.734C307.988 815.586 291.759 818.926 275.666 822.831C281.752 825.683 287.976 828.2 294.306 830.518C307.073 834.926 320.024 838.663 333.172 841.622C351.705 845.511 370.406 848.271 389.245 849.98C413.605 851.962 437.949 852.481 462.386 852.084ZM468.487 606.83C475.931 606.967 483.375 607.135 490.819 607.272C494.281 607.333 497.759 607.532 501.222 607.471C512.418 607.257 523.629 607.028 534.825 606.83C553.877 605.945 573.097 605.534 591.981 602.788C592.576 602.666 593.155 602.544 593.735 602.422C593.598 602.346 593.46 602.27 593.308 602.193C588.274 599.677 583.073 597.511 577.81 595.513C569.329 592.615 560.695 590.419 551.955 588.451C538.212 585.553 524.346 583.571 510.358 582.289C494.693 581.039 479.043 580.612 463.332 581.145C448.261 581.878 433.297 583.403 418.41 585.828C404.59 588.299 390.938 591.471 377.484 595.437C374.388 596.398 371.306 597.404 368.24 598.441C370.849 598.746 373.442 599.051 376.05 599.357C387.78 600.76 399.51 602.178 411.24 603.536C430.292 604.817 449.359 606.434 468.457 606.815L468.487 606.83ZM542.147 441.192C547.059 440.933 551.925 440.643 556.775 439.911C558.438 439.59 560.101 439.224 561.748 438.797C561.046 439.011 560.36 439.224 559.658 439.423C560.863 439.118 562.038 438.736 563.182 438.263C563.792 437.943 564.402 437.608 565.012 437.287C565.119 437.211 565.241 437.12 565.348 437.043C565.394 436.921 565.455 436.814 565.5 436.692L565.668 436.128C565.683 436.021 565.699 435.899 565.714 435.793C565.714 435.64 565.714 435.488 565.714 435.32C565.668 434.877 565.607 434.435 565.561 434.008C565.317 432.91 565.028 431.827 564.677 430.759C564.768 430.973 564.86 431.171 564.951 431.385C564.844 431.141 564.738 430.897 564.631 430.653C564.555 430.409 564.463 430.149 564.387 429.905C564.448 430.119 564.524 430.332 564.585 430.546C564.036 429.341 563.441 428.151 562.785 427.007C561.58 425.208 560.329 423.499 559.002 421.791C557.507 420.129 555.997 418.542 554.396 416.987C552.092 414.989 549.728 413.097 547.257 411.282C543.779 408.964 540.225 406.814 536.549 404.815C531.744 402.451 526.863 400.331 521.86 398.425C515.179 396.122 508.406 394.246 501.511 392.66C491.352 390.555 481.117 388.999 470.806 387.977C459.854 387.108 448.917 386.864 437.934 387.245C427.592 387.809 417.327 388.908 407.091 390.524C401.112 391.607 395.178 392.888 389.275 394.322C392.966 397.372 396.765 400.27 400.654 403.092C406.496 407.058 412.552 410.611 418.791 413.906C426.509 417.765 434.365 421.242 442.449 424.277C451.495 427.45 460.632 430.165 469.967 432.33C479.134 434.267 488.286 435.823 497.545 437.196C506.881 438.584 516.201 439.972 525.582 440.887C531.103 441.268 536.595 441.344 542.132 441.192H542.147Z" fill="black"/>
<path d="M1287.23 727.932C1272.32 725.858 1257.98 721.602 1243.57 717.5C1243.23 717.408 1242.9 717.301 1242.58 717.195C1242.65 717.225 1242.73 717.256 1242.81 717.286C1242.67 717.24 1242.52 717.179 1242.38 717.133C1242.18 717.072 1241.98 716.996 1241.79 716.92C1233.66 714.053 1225.37 711.429 1217.47 707.997C1212.09 705.664 1206.72 703.346 1201.33 700.997C1192.81 697.29 1184.54 692.761 1176.47 688.154C1155.65 676.258 1136.38 661.539 1119.24 644.793C1102 627.97 1088.14 607.989 1077.85 586.27C1067.51 564.46 1059.81 540.91 1055.9 517.071C1051.95 492.866 1052.11 468.493 1054.62 444.151C1055.13 439.392 1056 434.649 1056.67 429.92C1057.2 426.275 1057.69 422.645 1058.45 419.046C1059.63 413.463 1060.79 407.881 1061.98 402.314C1063.99 392.766 1066.77 383.417 1069.91 374.189C1078.14 350.015 1090.03 327.197 1105.91 307.141C1121.57 287.343 1142.09 272.046 1164.89 261.43C1178.94 254.887 1193.92 249.686 1209.22 247.23C1216.89 245.995 1224.52 244.744 1232.31 244.271C1238.06 243.921 1243.83 244.149 1249.5 245.034C1260.09 244.18 1270.74 243.799 1281.35 243.722C1299.03 243.6 1316.73 243.799 1334.41 244.317C1369.89 245.324 1405.87 247.52 1440.56 255.497C1449.72 257.617 1458.75 260.012 1467.77 262.681C1476.72 265.35 1485.45 268.827 1494.08 272.32C1509.85 278.711 1524.59 287.527 1538.7 296.952C1546.57 302.199 1553.91 308.117 1561.11 314.264C1568.4 320.486 1574.74 327.67 1580.84 335.022C1592.09 348.581 1601.41 364.184 1608.64 380.229C1616.31 397.25 1622.5 414.699 1626.57 432.925C1628.62 442.015 1630.01 451.441 1630.34 460.745C1630.51 465.58 1630.62 470.293 1630.42 475.113C1630.2 480.405 1629.58 485.621 1628.98 490.883C1628.48 495.169 1627.61 499.516 1626.68 503.741C1625.8 507.783 1625.05 511.885 1623.98 515.866C1621.62 524.697 1619.33 533.696 1615.84 542.161C1614.19 546.157 1612.72 550.29 1610.82 554.164C1608.59 558.664 1606.58 563.377 1604.07 567.724C1601.79 571.674 1599.53 575.609 1597.26 579.544C1594.95 583.54 1592.1 587.277 1589.54 591.09C1584.11 599.234 1577.52 606.632 1571.13 614.014C1565.19 620.893 1558.65 627.253 1552.06 633.506C1549.31 636.114 1546.6 638.676 1543.72 641.117C1539.73 644.472 1535.88 648.133 1531.71 651.244C1527.43 654.417 1523.15 657.604 1518.88 660.762C1515.34 663.4 1511.53 665.703 1507.84 668.144C1493.17 677.798 1477.74 686.492 1461.76 693.798C1457.38 695.796 1453 697.794 1448.61 699.807C1443.62 702.095 1438.45 704.017 1433.36 706.076C1430.11 707.387 1426.89 708.592 1423.59 709.736C1418.59 711.475 1413.63 713.412 1408.54 714.876C1403.37 716.371 1398.2 717.866 1393.03 719.36C1389.01 720.52 1384.93 721.374 1380.85 722.304C1376.75 723.234 1372.65 724.272 1368.48 724.958C1362.78 725.888 1357.04 726.819 1351.34 727.749C1343.08 729.106 1334.63 729.686 1326.28 729.961C1323.83 730.037 1321.39 730.083 1318.95 730.083C1308.34 730.083 1297.8 729.335 1287.23 727.871V727.932ZM1325.85 696.482C1334.02 696.086 1342.15 695.323 1350.25 694.011C1354.75 693.264 1359.25 692.547 1363.75 691.8C1369.99 690.366 1376.25 688.948 1382.5 687.514C1388.21 686.202 1393.83 684.311 1399.46 682.633C1405.23 680.62 1411.01 678.607 1416.78 676.593C1422.77 674.519 1428.61 671.819 1434.5 669.425C1442.77 665.642 1450.97 661.86 1459.06 657.665C1467.36 653.38 1475.39 648.728 1483.45 644.015C1488.19 640.903 1492.94 637.792 1497.67 634.665C1502.64 631.401 1507.29 627.542 1512.06 623.973C1517.34 619.52 1522.65 615.127 1527.65 610.369C1533.6 604.725 1539.28 598.929 1544.92 592.996C1547.77 589.671 1550.64 586.362 1553.49 583.052C1556.36 579.742 1558.89 576.066 1561.53 572.558C1563.8 569.157 1566.09 565.741 1568.37 562.324C1570.79 558.694 1572.79 554.714 1574.96 550.931C1576.71 547.377 1578.46 543.823 1580.22 540.254C1582.08 536.472 1583.5 532.415 1585.08 528.51C1586.78 523.431 1588.5 518.383 1589.87 513.228C1591.35 507.676 1592.66 502.124 1593.9 496.511C1595 490.197 1595.91 483.944 1596.66 477.599C1596.78 474.624 1596.91 471.635 1597.03 468.661C1597.16 465.382 1596.8 462.011 1596.68 458.732C1596.71 459.449 1596.72 460.165 1596.75 460.882C1596.11 454.842 1595.33 448.909 1594.36 442.946C1593 436.952 1591.54 431.064 1589.9 425.162C1588.03 419.442 1586.06 413.784 1583.99 408.14C1583.16 405.883 1582.25 403.641 1581.3 401.429C1579.32 403.153 1576.92 404.465 1574.24 405.197C1559.47 409.223 1544.13 410.611 1528.86 409.788C1520.15 409.315 1511.73 407.957 1503.25 406.036C1494.84 404.129 1486.7 400.804 1478.74 397.616C1470.82 394.444 1463.25 390.463 1455.84 386.269C1448.7 382.212 1441.62 377.499 1435.29 372.267C1426.05 364.611 1417.13 356.588 1409.65 347.132C1402.88 338.56 1397.42 329.241 1393.7 319.236C1387.05 322.82 1380.2 326.008 1373.21 329.058C1357.35 335.952 1341.18 342.205 1324.57 347.01C1315.55 349.618 1306.52 351.952 1297.31 353.828C1288.1 355.704 1278.82 356.695 1269.49 357.473C1255.74 358.617 1241.71 357.808 1228.09 355.917C1206.15 352.867 1184.43 345.424 1166.72 331.895C1159.4 326.297 1153.19 319.037 1148.86 310.893C1144.85 314.401 1141.04 318.092 1137.39 321.951C1133.1 326.801 1129.12 331.864 1125.37 337.126C1120.99 343.624 1117.03 350.335 1113.37 357.275C1109.4 365.221 1105.92 373.335 1102.84 381.663C1099.93 390.021 1097.44 398.486 1095.24 407.073C1093.83 413.799 1092.44 420.51 1091 427.236C1090.12 431.369 1089.8 435.686 1089.19 439.865C1088.47 444.822 1087.77 449.748 1087.3 454.72C1086.49 464.924 1086.15 475.128 1086.41 485.362C1086.84 494.346 1087.69 503.238 1089.08 512.114C1090.65 520.869 1092.73 529.486 1095.26 538.043C1098.57 548.506 1102.31 558.771 1106.74 568.806C1110.1 576.036 1113.78 583.052 1117.91 589.87C1121.88 596.047 1126.12 601.965 1130.72 607.669C1136.38 614.319 1142.38 620.572 1148.74 626.536C1157.13 634.055 1165.91 641.025 1175.13 647.538C1184.87 654.188 1194.97 660.213 1205.44 665.673C1210.56 668.235 1215.73 670.569 1221.01 672.857C1225.14 674.656 1229.28 676.746 1233.52 678.302C1240.43 680.772 1247.34 683.243 1254.26 685.714C1253.58 685.47 1252.91 685.226 1252.22 684.982C1261.46 687.621 1270.66 690.351 1280.04 692.486C1287.91 694.088 1295.81 695.277 1303.81 696.04C1311.16 696.543 1318.48 696.635 1325.85 696.436V696.482ZM1542.18 376.37C1546.75 376.096 1551.28 375.653 1555.81 374.952C1559.37 374.281 1562.87 373.488 1566.35 372.542C1566 371.947 1565.65 371.368 1565.3 370.788C1560.82 364.199 1556.13 357.9 1551.1 351.753C1547.38 347.742 1543.59 343.914 1539.64 340.131C1533.5 334.93 1527.23 330.049 1520.7 325.337C1512.29 319.739 1503.71 314.569 1494.83 309.749C1485.49 305.204 1476.04 301.223 1466.3 297.593C1454.74 293.78 1443.1 290.562 1431.25 287.801C1427.57 287.069 1423.91 286.398 1420.24 285.757C1421.99 289.799 1422.1 294.512 1422.71 298.966C1423.15 301.025 1423.65 303.038 1424.23 305.066C1425.06 307.446 1425.97 309.764 1426.98 312.067C1428.11 314.294 1429.28 316.46 1430.55 318.626C1432.46 321.524 1434.47 324.299 1436.6 327.03C1440.85 331.941 1445.39 336.425 1450.1 340.863C1454.63 344.585 1459.16 348.154 1463.88 351.631C1468.48 354.59 1473.12 357.412 1477.88 360.127C1485.75 364.031 1493.7 367.478 1501.94 370.544C1506.45 372.008 1510.95 373.32 1515.57 374.418C1519.71 375.135 1523.81 375.699 1527.97 376.111C1532.72 376.355 1537.43 376.446 1542.18 376.37ZM1264.91 324.147C1268.69 323.827 1272.48 323.506 1276.24 323.201C1279.86 322.896 1283.49 322.195 1287.1 321.646C1291.82 320.685 1296.53 319.77 1301.2 318.595C1306.45 317.268 1311.63 315.819 1316.83 314.325C1333.76 308.895 1350.3 302.58 1366.53 295.305C1373.09 292.224 1379.53 288.991 1385.72 285.254C1387.53 284.08 1389.33 282.875 1391.06 281.578C1387.27 281.136 1383.49 280.739 1379.69 280.373C1360.7 278.879 1341.7 278.085 1322.64 277.658C1303.58 277.231 1284.5 277.109 1265.41 277.704C1265.29 277.704 1265.18 277.704 1265.06 277.719C1261.05 280.419 1255.97 281.471 1251.17 279.916C1250.13 279.58 1249.09 279.29 1248.04 279.001C1239.63 279.809 1231.26 280.892 1222.9 282.234C1211.45 284.446 1200.22 287.328 1189.05 290.684C1185.38 291.858 1181.75 293.078 1178.19 294.558V294.588C1178.54 295.29 1178.91 295.961 1179.31 296.632C1179.96 297.639 1180.66 298.615 1181.4 299.545C1182.56 300.872 1183.76 302.138 1185.01 303.389C1186.83 304.944 1188.7 306.409 1190.64 307.827C1193.13 309.429 1195.66 310.923 1198.25 312.326C1201.78 314.019 1205.33 315.529 1208.99 316.887C1213.69 318.443 1218.42 319.77 1223.24 320.898C1229.74 322.225 1236.23 323.186 1242.81 323.827C1250.19 324.33 1257.48 324.238 1264.88 324.132L1264.91 324.147Z" fill="black"/>
<path d="M1652.32 760.725C1623.92 760.283 1596.75 749.194 1571.52 737.008C1555.38 729.229 1539.64 719.361 1526.66 706.961C1514.87 695.705 1504.53 682.908 1497.18 668.297C1495.76 665.491 1494.49 662.608 1493.36 659.679C1490.04 651.154 1494.6 641.24 1503.11 638.006C1511.73 634.758 1521.48 639.226 1524.8 647.752C1525.21 648.805 1525.64 649.842 1526.08 650.879C1527.62 654.097 1529.32 657.224 1531.16 660.259C1533.65 664.087 1536.32 667.748 1539.15 671.317C1542.8 675.557 1546.64 679.568 1550.67 683.458C1554.26 686.615 1557.95 689.574 1561.79 692.411C1565.41 694.881 1569.04 697.337 1572.83 699.503C1577.09 701.928 1581.38 704.261 1585.71 706.565C1590.56 708.898 1595.38 711.186 1600.32 713.336C1605.46 715.563 1610.68 717.516 1615.91 719.498C1622.18 721.588 1628.5 723.418 1634.95 724.898C1639.29 725.737 1643.63 726.377 1648 726.835C1651.44 727.048 1654.85 727.155 1658.3 727.124C1659.92 727.033 1661.52 726.911 1663.12 726.758C1661.23 724.806 1659.37 722.823 1657.54 720.795C1651.36 713.931 1645.81 706.382 1641.26 698.328C1638.96 694.21 1636.9 690.062 1634.89 685.776C1632.9 681.582 1631.35 677.204 1629.67 672.857C1625.55 662.196 1623.43 650.62 1621.88 639.348C1620.59 630.136 1620.44 620.802 1620.7 611.513C1621.8 574.267 1629.98 537.8 1639.72 501.972C1642.06 493.401 1644.56 484.875 1646.88 476.303C1649.47 466.725 1651.83 457.116 1654.17 447.476C1657.14 433.246 1660.19 419.046 1661.73 404.542C1662.31 397.282 1662.53 390.052 1662.37 382.762C1662.08 378.293 1661.79 373.824 1661.5 369.355C1661.2 364.825 1660.35 360.265 1659.73 355.75C1658.53 348.978 1657.28 342.252 1655.74 335.556C1654.21 328.967 1652.35 322.531 1650.43 316.049C1648.02 309.521 1645.69 303.023 1642.88 296.663C1640.56 291.813 1638.03 287.085 1635.31 282.448C1631.38 276.5 1627.44 270.674 1622.97 265.122C1619.48 261.08 1615.8 257.252 1611.96 253.561C1608.19 250.205 1604.29 247.063 1600.2 244.089C1596.34 241.512 1592.39 239.163 1588.29 236.982C1584.87 235.35 1581.41 233.84 1577.87 232.482C1573.73 231.064 1569.59 229.844 1565.35 228.791C1561.23 227.968 1557.12 227.342 1552.94 226.9C1549.54 226.717 1546.14 226.656 1542.74 226.732C1538.74 226.976 1534.78 227.403 1530.81 227.998C1527.27 228.685 1523.78 229.523 1520.3 230.515C1517.65 231.415 1515.04 232.406 1512.46 233.504C1510.17 234.648 1507.93 235.853 1505.73 237.165C1503.51 238.659 1501.37 240.215 1499.27 241.893C1497.56 243.418 1495.93 245.004 1494.34 246.652C1493.17 248.024 1492.05 249.443 1490.95 250.876C1489.69 252.813 1488.51 254.766 1487.38 256.794C1485.8 260.119 1484.42 263.505 1483.11 266.937C1481.94 270.597 1480.87 274.243 1479.94 277.979C1479.82 278.544 1479.71 279.108 1479.64 279.688C1479.24 288.534 1471.23 295.611 1462.47 295.413C1453.17 295.199 1446.06 287.375 1446.06 278.223C1446.06 275.097 1446.87 271.772 1447.62 268.767C1448.78 264.1 1450.07 259.448 1451.75 254.933C1453.6 249.992 1455.5 245.126 1458.02 240.49C1463.24 230.835 1470.12 222.309 1478.64 215.385C1513.73 187 1565.27 187.412 1604.23 207.484C1625.25 218.298 1642.59 234.587 1656.46 253.576C1659.26 257.404 1661.92 261.538 1664.34 265.595C1669.48 274.227 1674.16 283.272 1677.64 292.713C1679.37 297.334 1681.24 301.925 1682.65 306.653C1684.02 311.275 1685.39 315.912 1686.76 320.548C1688.11 325.032 1688.9 329.745 1689.95 334.321C1690.99 338.79 1691.62 343.396 1692.44 347.926C1695.69 366.152 1696.82 384.973 1695.52 403.444C1694.06 424.568 1689.22 445.494 1684.26 466.054C1680.91 479.933 1677 493.66 1673.13 507.387C1669.67 519.65 1666.55 531.958 1663.56 544.343C1662.01 551.938 1660.45 559.488 1659.17 567.145C1657.8 575.396 1656.68 583.632 1655.63 591.945C1654.73 602.621 1653.98 613.252 1654.27 623.974C1654.61 629.663 1655.2 635.307 1656.06 640.95C1657.07 646.38 1658.32 651.718 1659.83 657.026C1661.31 661.556 1663.03 665.979 1664.75 670.417C1665.81 672.644 1666.86 674.871 1667.91 677.113C1669.04 679.507 1670.49 681.795 1671.82 684.083C1674.16 687.591 1676.58 690.992 1679.12 694.363C1682.75 698.603 1686.49 702.706 1690.47 706.61C1693.86 709.539 1697.55 712.162 1700.75 715.258C1703.94 718.354 1706.55 721.832 1707.71 726.194C1708.99 730.892 1708.79 735.757 1706.84 740.272C1703.24 748.584 1694.82 753.251 1686.7 756.149C1676.62 759.718 1665.62 760.74 1654.96 760.74C1654.08 760.74 1653.19 760.74 1652.31 760.725H1652.32Z" fill="black"/>
<path d="M1251.79 482.069C1250.51 467.336 1251.84 452.755 1252.89 438.052C1253.38 431.158 1253.85 424.264 1254.31 417.385C1254.54 413.907 1254.77 410.415 1254.99 406.922C1255.27 402.651 1255.44 398.35 1256.4 394.171C1257.71 388.452 1263.05 383.739 1268.68 382.458C1270.29 382.092 1271.33 382 1272.98 382C1282.15 382 1289.59 390.206 1289.39 399.189C1289.36 400.333 1289.22 401.446 1288.98 402.514C1288.96 402.712 1288.93 402.911 1288.92 403.124C1288.08 414.914 1287.36 426.704 1286.52 438.479C1285.72 449.964 1284.65 461.433 1284.82 472.933C1284.92 474.794 1285.06 476.655 1285.23 478.516C1286.02 487.621 1279.51 496.01 1270.28 496.986C1269.71 497.047 1269.15 497.077 1268.6 497.077C1260.23 497.077 1252.55 490.595 1251.81 482.039L1251.79 482.069Z" fill="black"/>
<path d="M1324.12 528.053C1315.38 527.839 1306.96 520 1307.71 510.864C1310.66 475.509 1315.34 440.368 1319.17 405.105C1319.11 405.822 1319.03 406.539 1318.97 407.241C1319.23 404.327 1319.66 401.353 1319.66 398.44C1319.66 389.274 1327.85 381.815 1336.85 382.014C1346.17 382.242 1353.26 390.052 1353.26 399.203C1353.26 402.924 1352.77 406.753 1352.36 410.459C1351.79 415.645 1351.23 420.815 1350.6 425.986C1349.43 435.869 1348.21 445.768 1347.05 455.666C1344.92 473.786 1343.04 491.951 1341.45 510.132C1341.41 510.635 1341.38 511.153 1341.33 511.657C1340.95 516.171 1339.48 520.213 1336.13 523.416C1333.02 526.39 1328.79 528.068 1324.48 528.068C1324.37 528.068 1324.25 528.068 1324.12 528.068V528.053Z" fill="black"/>
<path d="M1224.32 590.328C1217.17 582.732 1211.55 573.688 1207.02 564.323C1202.29 554.577 1198.71 544.281 1196.63 533.635C1195.22 526.314 1194.42 517.743 1198.45 511.078C1202.35 504.611 1210.36 501.438 1217.62 503.558C1226.35 506.105 1231.58 515.363 1229.19 524.133C1229.26 524.988 1229.37 525.842 1229.49 526.696C1230.04 529.38 1230.67 532.019 1231.4 534.688C1232.76 538.913 1234.3 543.061 1236.05 547.164C1237.73 550.733 1239.51 554.211 1241.51 557.612C1243.33 560.327 1245.22 562.965 1247.23 565.528C1249.2 567.755 1251.24 569.859 1253.38 571.918C1255.61 573.84 1257.89 575.686 1260.27 577.44C1263.37 579.483 1266.53 581.375 1269.79 583.144C1273.3 584.867 1276.85 586.393 1280.5 587.781C1283.89 588.909 1287.27 589.885 1290.73 590.739C1294.06 591.411 1297.38 591.929 1300.76 592.326C1304.05 592.554 1307.33 592.646 1310.64 592.616C1314.39 592.402 1318.1 592.005 1321.82 591.441C1325.3 590.724 1328.7 589.885 1332.12 588.94C1336.95 587.354 1341.67 585.508 1346.3 583.449C1351.9 580.719 1357.35 577.745 1362.67 574.511C1368.51 570.774 1374.23 566.794 1379.66 562.447C1385.05 557.81 1389.94 552.823 1394.78 547.637C1401.26 540.041 1407.55 532.37 1413.42 524.301C1415.16 521.724 1416.87 519.131 1418.48 516.477C1423.27 508.683 1433.63 505.953 1441.55 510.681C1449.33 515.348 1452.12 525.933 1447.33 533.742C1438.89 547.484 1428.72 560.311 1417.8 572.147C1413.3 577.013 1408.71 581.695 1403.7 586.057C1398.93 590.236 1393.85 593.881 1388.68 597.511C1373.23 608.371 1356.28 616.866 1338.13 622.128C1328.46 624.935 1318.45 626.277 1308.44 626.277C1277.14 626.277 1245.8 613.099 1224.34 590.312L1224.32 590.328Z" fill="black"/>
<path d="M1298.25 1313.28C1274.58 1310.69 1251.69 1301.37 1230.91 1290.1C1209.72 1278.6 1191.63 1262.15 1175.62 1244.29C1159.14 1225.95 1145.89 1205.11 1134.98 1183.04C1130.3 1173.55 1126.36 1163.67 1122.12 1153.99C1117.64 1143.69 1114.34 1132.76 1111.12 1122.02C1107.25 1109.07 1104.32 1095.86 1102 1082.53C1100.83 1075.76 1099.73 1068.96 1099.09 1062.11C1098.48 1055.63 1097.88 1049.14 1097.27 1042.66C1096.94 1039.03 1096.46 1035.37 1096.37 1031.71C1096.25 1026.86 1096.14 1022.02 1096.02 1017.17C1095.82 1008.85 1095.44 1000.52 1095.75 992.176C1096.11 981.789 1096.49 971.418 1096.88 961.047C1097.01 957.295 1097.56 953.497 1097.9 949.76C1098.51 943.003 1099.12 936.262 1099.73 929.49C1100.46 921.513 1101.53 913.597 1102.58 905.62C1104.87 888.385 1107.39 871.166 1110.62 854.068C1112.53 843.941 1114.45 833.844 1116.35 823.732C1118.25 813.696 1120.63 803.721 1122.76 793.746C1126.56 775.992 1131.3 758.437 1136.17 740.958C1140.81 724.303 1146.07 707.846 1150.92 691.267C1152.96 684.281 1155.08 677.342 1156.73 670.265C1156.79 669.914 1156.84 669.548 1156.9 669.197C1156.88 669.395 1156.87 669.578 1156.85 669.776C1156.87 669.7 1156.88 669.609 1156.91 669.532C1157.48 665.719 1159.03 662.257 1161.93 659.497C1165.14 656.431 1169.5 654.738 1173.92 654.845C1183.24 655.058 1190.33 662.883 1190.33 672.034C1190.33 673.223 1190.2 674.383 1189.94 675.511C1189.25 679.873 1187.94 684.174 1186.81 688.399C1185.59 693.021 1184.16 697.612 1182.77 702.187C1179.25 713.809 1175.75 725.432 1172.27 737.069C1166.2 757.278 1161.15 777.746 1156.14 798.23C1153.53 810.31 1150.81 822.374 1148.52 834.53C1145.58 850.102 1142.73 865.644 1140.14 881.263C1137.74 895.615 1135.93 910.013 1134 924.426C1133.29 929.749 1132.92 935.133 1132.45 940.487C1131.79 947.655 1131.15 954.824 1130.49 961.992C1130.05 974.072 1129.61 986.152 1129.17 998.231C1128.98 1003.65 1129.43 1009.2 1129.56 1014.61C1129.7 1020.07 1129.84 1025.53 1129.98 1030.99C1131.38 1046.11 1132.54 1061.21 1134.98 1076.18C1137.39 1089.61 1140.5 1102.85 1144.36 1115.93C1147.64 1126.46 1151.32 1136.84 1155.71 1146.94C1158.36 1153.01 1161 1159.05 1163.64 1165.12C1168.14 1174.36 1172.98 1183.38 1178.35 1192.13C1183.81 1200.67 1189.74 1208.83 1196.15 1216.67C1203.21 1224.94 1210.74 1232.73 1218.71 1240.16C1223.88 1244.75 1229.25 1249.04 1234.88 1253.06C1240.47 1256.83 1246.27 1260.25 1252.23 1263.4C1259.77 1267.19 1267.47 1270.5 1275.4 1273.4C1281.09 1275.3 1286.81 1276.93 1292.64 1278.28C1297.46 1279.22 1302.28 1279.94 1307.16 1280.43C1312.81 1280.81 1318.44 1280.94 1324.09 1280.81C1328.56 1280.53 1332.97 1280.08 1337.41 1279.43C1341.71 1278.63 1345.92 1277.6 1350.12 1276.35C1354.17 1274.97 1358.12 1273.44 1362.06 1271.73C1366.82 1269.44 1371.44 1266.94 1375.96 1264.21C1381.59 1260.55 1386.95 1256.62 1392.17 1252.39C1398.84 1246.69 1405.12 1240.66 1411.13 1234.27C1417.64 1227.06 1423.7 1219.49 1429.36 1211.59C1435.06 1203.24 1440.24 1194.57 1444.9 1185.6C1449.62 1176.04 1453.75 1166.26 1457.38 1156.26C1461.06 1145.63 1464.32 1134.83 1466.76 1123.83C1468.12 1117.66 1469.51 1111.48 1470.86 1105.29C1472.07 1098.12 1473.27 1090.96 1474.48 1083.81C1475.46 1078.06 1476.13 1072.28 1476.87 1066.53C1478.54 1053.47 1479.85 1040.43 1481.13 1027.35C1482.55 1008.42 1484.07 989.522 1484.7 970.533C1485.08 959.338 1485.29 948.174 1485.34 936.979C1485.37 927.751 1485.08 918.524 1484.81 909.296C1484.26 900.435 1483.78 891.604 1482.87 882.788C1482.41 878.38 1482.09 873.926 1481.42 869.549C1480.64 864.409 1479.86 859.284 1479.09 854.144C1476.91 843.071 1474.54 832.059 1471.99 821.062C1469.57 810.645 1466.5 800.365 1463.54 790.085C1458.45 773.918 1452.96 757.903 1447.1 741.995C1441.12 725.737 1435 709.493 1428.02 693.631C1424.34 685.242 1429.56 675.069 1437.76 671.942C1441.84 670.402 1446.43 670.509 1450.41 672.247C1454.7 674.093 1457.61 677.494 1459.45 681.704C1466.59 697.947 1472.83 714.587 1478.96 731.243C1485.1 747.883 1491.17 764.645 1496.06 781.697C1501.11 799.252 1505.98 816.868 1509.5 834.805C1512.98 852.528 1516 870.403 1517.13 888.446C1517.74 898.269 1518.33 908.045 1518.59 917.868C1518.85 927.675 1518.91 937.421 1518.87 947.228C1518.79 965.576 1517.72 983.894 1516.66 1002.2C1515.59 1020.59 1513.68 1038.92 1511.87 1057.24C1510.08 1075.07 1507.02 1092.72 1504.06 1110.38C1503.35 1114.47 1502.26 1118.52 1501.37 1122.55C1500.29 1127.46 1499.19 1132.37 1498.11 1137.29C1495.58 1148.82 1491.61 1160.13 1487.63 1171.24C1483.16 1183.68 1477.59 1195.64 1471.4 1207.29C1460.35 1228.11 1445.74 1246.96 1429.33 1263.8C1412.43 1281.11 1392.54 1295.37 1370.24 1304.8C1353.88 1311.71 1336.33 1314.44 1318.72 1314.44C1311.89 1314.44 1305.04 1314.03 1298.27 1313.28H1298.25Z" fill="black"/>
<path d="M1167.41 677.418C1154.82 677.281 1142.58 674.917 1130.51 671.5C1118.76 668.16 1107.11 663.981 1095.7 659.619C1079.06 653.259 1063.04 645.358 1047.76 636.207C1042.34 632.973 1036.93 629.74 1031.51 626.491C1029.03 625.012 1026.51 623.593 1024.12 621.977C1014.81 615.708 1005.51 609.424 996.202 603.155C988.529 598 981.284 592.159 973.916 586.592C967.418 581.711 961.103 576.754 954.849 571.553C948.031 565.894 941.106 560.373 934.547 554.41C921.322 542.406 907.929 530.509 895.421 517.743C883.31 505.359 871.29 492.928 859.773 479.979C848.531 467.366 838.159 453.974 828.168 440.385C818.009 426.597 807.972 412.717 798.56 398.395C793.542 390.739 794.656 380.489 802.328 374.938C809.497 369.752 820.77 371.048 825.804 378.705C842.506 404.146 860.75 428.64 880 452.205C888.648 461.921 897.328 471.606 906.404 480.91C916.883 491.632 927.53 502.11 938.314 512.527C944.599 518.247 950.899 523.966 957.198 529.686C963.178 535.116 969.584 540.118 975.792 545.274C988.056 555.462 1000.9 564.873 1013.64 574.451C1023.29 580.964 1032.96 587.476 1042.62 593.989C1048.11 597.695 1054.07 600.837 1059.75 604.238C1066.81 608.463 1073.83 612.581 1081.12 616.379C1090.94 621.321 1100.96 625.683 1111.24 629.633C1123.89 634.072 1136.46 638.693 1149.53 641.728C1153.82 642.582 1158.09 643.253 1162.44 643.696C1164.36 643.818 1166.26 643.863 1168.19 643.848C1167.47 643.879 1166.75 643.894 1166.04 643.94C1168.02 643.909 1169.99 643.772 1171.94 643.513C1171.24 643.635 1170.52 643.741 1169.82 643.863C1170.67 643.772 1171.5 643.635 1172.32 643.452C1179.26 640.782 1187.54 643.009 1192.06 649.247C1197.43 656.66 1195.69 667.336 1188.29 672.705C1186.31 674.154 1184.1 675.023 1181.76 675.695C1177.42 676.945 1172.64 677.433 1168.11 677.433C1167.88 677.433 1167.64 677.433 1167.41 677.433V677.418Z" fill="black"/>
<path d="M1676.97 821.199C1669.71 820.894 1662.51 820.36 1655.28 819.598C1643.05 818.332 1630.97 815.952 1618.99 813.146C1608.07 810.583 1597.03 807.487 1586.56 803.476C1577.32 799.953 1568.06 796.414 1558.82 792.876C1553.77 790.954 1548.86 788.559 1543.94 786.302C1538.41 783.755 1532.92 781.04 1527.5 778.234C1517.91 773.246 1508.14 768.167 1499.14 762.127C1492.14 757.43 1485.14 752.747 1478.11 748.05C1472.02 743.962 1466.29 739.264 1460.45 734.811C1455.32 730.906 1450.5 726.636 1445.59 722.472C1440.74 718.384 1436.04 713.809 1431.85 709.065C1425.79 702.202 1425.58 691.815 1432.39 685.302C1438.82 679.171 1450.09 678.973 1456.14 685.851C1459.42 689.573 1463.07 692.928 1466.68 696.314C1470.8 699.822 1474.82 703.513 1479.12 706.793C1484.65 711.002 1490.19 715.212 1495.73 719.437C1501.08 723.021 1506.45 726.605 1511.79 730.205C1521.84 736.931 1532.35 742.894 1543.04 748.507C1554.76 754.456 1566.66 759.946 1578.94 764.629C1585.68 767.206 1592.42 769.784 1599.16 772.362C1610.57 776.175 1622.07 779.484 1633.82 782.108C1645.08 784.411 1656.36 786.058 1667.8 787.095C1691.72 788.956 1715.79 788.193 1739.72 787.339C1758.56 786.5 1777.45 785.6 1796.18 783.13C1805.25 781.94 1813.72 789.154 1814.65 798.077C1815.63 807.365 1808.78 815.357 1799.7 816.547C1781.57 818.942 1763.29 819.872 1745.05 820.68C1727.02 821.473 1709.02 821.779 1690.97 821.779C1686.32 821.779 1681.61 821.382 1676.96 821.184L1676.97 821.199Z" fill="black"/>
<path d="M1221.59 1809.96C1217.44 1808.01 1213.72 1805.74 1210.33 1802.61C1206.85 1799.39 1204.29 1795.72 1201.79 1791.74C1199.29 1787.73 1197.57 1782.82 1196.36 1778.27C1194.71 1772.09 1193.72 1765.82 1193.14 1759.46C1192.13 1748.47 1192.87 1737.47 1193.72 1726.49C1194.42 1717.67 1196.25 1708.98 1198.25 1700.36C1200.22 1691.91 1202.66 1683.55 1205.71 1675.43C1208.87 1666.93 1212.3 1658.65 1216.25 1650.49C1220.45 1641.84 1224.49 1633.13 1228.03 1624.19C1228.62 1622.41 1229.16 1620.62 1229.61 1618.81C1230.04 1616.54 1230.35 1614.28 1230.59 1611.99C1233.26 1576.91 1233.35 1541.66 1234.27 1506.51C1235.23 1469.83 1236.63 1433.16 1238.09 1396.49C1239.36 1365.14 1240.58 1333.79 1240.58 1302.39C1240.58 1293.24 1248.79 1285.76 1257.77 1285.98C1267.08 1286.19 1274.18 1294.02 1274.18 1303.17C1274.18 1338.98 1272.63 1374.73 1271.16 1410.5C1269.64 1447.67 1268.39 1484.83 1267.52 1522.03C1266.91 1548.09 1266.62 1574.21 1265.06 1600.23C1264.53 1609.23 1264.3 1618.46 1262.13 1627.23C1261.16 1631.13 1259.89 1634.98 1258.43 1638.74C1261.13 1640.25 1263.45 1642.5 1265 1645.38C1272.58 1659.49 1280.5 1673.31 1286.48 1688.21C1289.73 1696.31 1292.06 1704.8 1293.98 1713.31C1296.21 1723.16 1296.9 1733.57 1295.83 1743.62C1295.23 1749.22 1294.12 1754.55 1292.35 1759.89C1291.13 1763.55 1289.54 1767.06 1287.93 1770.55C1284.1 1778.87 1279.52 1786.58 1273.47 1793.48C1266.97 1800.87 1259.1 1806.69 1249.99 1810.39C1245.77 1812.11 1240.92 1813.01 1236.07 1813.01C1231.21 1813.01 1225.92 1812.04 1221.56 1809.98L1221.59 1809.96ZM1236.39 1779.29C1236.57 1779.29 1236.75 1779.26 1236.92 1779.25C1237.19 1779.19 1237.47 1779.14 1237.74 1779.08C1238.28 1778.9 1238.81 1778.7 1239.33 1778.47C1239.91 1778.18 1240.47 1777.86 1241.04 1777.54C1242.06 1776.85 1243.05 1776.15 1244 1775.4C1245.34 1774.2 1246.64 1772.96 1247.9 1771.68C1249.15 1770.22 1250.36 1768.74 1251.52 1767.2C1252.89 1765.14 1254.16 1763.03 1255.33 1760.85C1257.22 1757.02 1258.96 1753.12 1260.53 1749.17C1260.9 1748.06 1261.23 1746.94 1261.52 1745.81C1261.92 1743.77 1262.23 1741.76 1262.47 1739.68C1262.59 1737.36 1262.64 1735.05 1262.67 1732.73C1262.5 1730.07 1262.29 1727.47 1261.97 1724.81C1260.94 1719.64 1259.72 1714.55 1258.29 1709.47C1256.32 1703.44 1254.06 1697.59 1251.5 1691.81C1248.65 1685.8 1245.54 1679.94 1242.35 1674.11C1240.06 1679.41 1238.03 1684.74 1236 1690.14C1234.65 1694.63 1233.29 1699.13 1231.92 1703.63C1230.77 1707.42 1230.04 1711.42 1229.19 1715.32C1228.53 1719.63 1227.86 1723.94 1227.2 1728.26C1226.59 1736.22 1226.09 1744.12 1226.29 1752.11C1226.5 1755.96 1226.88 1759.74 1227.42 1763.55C1227.83 1765.64 1228.29 1767.7 1228.82 1769.76C1229.35 1771.32 1229.93 1772.84 1230.56 1774.37C1230.99 1775.19 1231.44 1776 1231.93 1776.79C1231.96 1776.82 1231.99 1776.85 1232.02 1776.9C1231.82 1776.58 1231.63 1776.27 1231.43 1775.95C1231.81 1776.47 1232.18 1776.97 1232.56 1777.49C1232.69 1777.65 1232.83 1777.78 1232.98 1777.93C1233.24 1778.13 1233.5 1778.33 1233.76 1778.53C1233.93 1778.64 1234.11 1778.74 1234.3 1778.85C1234.48 1778.94 1234.68 1779.03 1234.86 1779.12C1234.98 1779.16 1235.12 1779.2 1235.24 1779.23C1235.42 1779.25 1235.61 1779.28 1235.81 1779.29C1235.99 1779.29 1236.17 1779.29 1236.36 1779.29H1236.39Z" fill="black"/>
<path d="M1294.29 1593.17C1283.95 1590.67 1273.62 1585.5 1267.2 1576.74C1261.9 1569.55 1259.08 1561.45 1258.31 1552.59C1257.39 1542.11 1260.65 1532.1 1265.6 1523C1269.32 1516.12 1275.15 1510.21 1280.93 1505.04C1287.13 1499.49 1294.06 1494.95 1301.49 1491.23C1309.56 1487.17 1318.36 1484.55 1326.93 1481.78C1339.33 1477.79 1351.93 1474.3 1364.56 1471.18C1390.58 1464.75 1416.9 1459.96 1443.3 1455.48C1443.07 1455.52 1442.84 1455.55 1442.61 1455.6C1443.03 1455.52 1443.44 1455.46 1443.85 1455.38C1444.14 1455.34 1444.45 1455.28 1444.74 1455.23C1444.52 1455.26 1444.32 1455.29 1444.11 1455.34C1458.92 1452.74 1473.7 1450.03 1488.38 1446.75C1502.68 1443.56 1516.79 1439.73 1530.84 1435.59C1537.13 1433.37 1543.38 1431.22 1549.5 1428.56C1551.66 1427.46 1553.8 1426.31 1555.89 1425.11C1556.41 1424.76 1556.91 1424.38 1557.41 1423.99C1557.72 1423.7 1558.01 1423.42 1558.31 1423.13C1558.31 1423.08 1558.31 1423.03 1558.31 1422.99C1557.84 1420.9 1557.25 1418.89 1556.64 1416.84C1552.99 1405.22 1549.39 1393.41 1544.52 1382.23C1542.71 1378.74 1540.8 1375.34 1538.74 1371.98C1533.89 1364.89 1528.78 1358.01 1523.58 1351.18C1521.48 1348.41 1519.33 1345.67 1517.13 1342.98C1515.39 1340.81 1513.35 1338.61 1511.59 1336.26C1510.95 1335.61 1510.36 1334.89 1509.79 1334.16C1509.03 1333.37 1508.31 1332.51 1507.66 1331.6C1506.68 1330.56 1505.78 1329.4 1504.99 1328.2C1486.47 1306.84 1467.25 1286.19 1446.46 1267C1444.12 1265.01 1441.78 1263.07 1439.32 1261.25C1439.21 1261.19 1439.12 1261.13 1439.01 1261.07C1432.35 1258.72 1427.54 1252.01 1427.71 1244.77C1427.93 1235.45 1435.75 1228.36 1444.9 1228.36C1452.73 1228.36 1459.68 1234.27 1465.34 1238.96C1469.78 1242.63 1473.93 1246.7 1478.19 1250.59C1485.25 1257.06 1491.84 1264.12 1498.52 1270.99C1504.41 1277.01 1510.07 1283.26 1515.71 1289.5C1518.38 1292.48 1521.03 1295.45 1523.66 1298.47C1525.44 1300.53 1527.23 1302.57 1529.01 1304.63C1529.35 1305.01 1529.68 1305.41 1530 1305.79C1531.35 1307.06 1532.58 1308.54 1533.57 1310.09C1533.86 1310.43 1534.14 1310.78 1534.41 1311.11C1534.56 1311.28 1534.7 1311.45 1534.85 1311.63C1535.31 1312.17 1535.75 1312.7 1536.18 1313.23C1537.08 1314.22 1537.92 1315.28 1538.77 1316.33C1549.85 1330.06 1560.77 1343.89 1570.12 1358.87C1574.6 1366.08 1577.78 1374.14 1580.52 1382.14C1583.24 1390.06 1585.89 1397.97 1588.38 1405.95C1589.61 1409.87 1590.9 1413.79 1591.49 1417.86C1591.9 1420.72 1592.01 1423.48 1591.78 1426.36C1591.46 1430.26 1590.38 1433.76 1588.88 1437.33C1586.11 1443.96 1580.34 1448.98 1574.62 1453C1571.57 1455.12 1568.21 1456.79 1564.89 1458.42C1561.62 1460.05 1558.18 1461.56 1554.74 1462.8C1548.02 1465.18 1541.31 1467.49 1534.46 1469.54C1527.55 1471.58 1520.62 1473.46 1513.65 1475.27C1488.28 1481.97 1462.32 1486.27 1436.48 1490.65C1436.76 1490.6 1437.03 1490.55 1437.31 1490.49C1436.93 1490.55 1436.54 1490.63 1436.16 1490.69C1435.84 1490.75 1435.51 1490.8 1435.17 1490.86C1435.45 1490.81 1435.7 1490.77 1435.98 1490.72C1423.24 1492.96 1410.52 1495.25 1397.88 1497.95C1402.99 1503.29 1403.93 1511.56 1400.19 1518.24C1398.87 1520.63 1397.56 1523.03 1396.29 1525.45C1394.66 1528.64 1393.06 1531.83 1391.42 1535.01C1390.86 1536.13 1390.33 1537.23 1389.76 1538.31C1389.06 1539.87 1388.17 1541.36 1387.4 1542.85C1386.59 1544.41 1385.75 1545.98 1384.91 1547.52C1381.25 1554.2 1377.09 1560.71 1371.98 1566.39C1368.85 1569.87 1365.66 1573.1 1362.11 1576.13C1358.43 1579.28 1354.43 1581.85 1350.25 1584.29C1342.23 1588.99 1332.97 1592.1 1323.83 1593.71C1319.3 1594.5 1314.62 1594.94 1309.92 1594.94C1304.65 1594.94 1299.35 1594.39 1294.29 1593.17ZM1312.24 1561.26C1314.01 1561.14 1315.78 1560.97 1317.55 1560.73C1319.24 1560.39 1320.91 1560.01 1322.58 1559.62C1325.45 1558.67 1328.26 1557.62 1331.03 1556.43C1332.71 1555.56 1334.36 1554.66 1336.01 1553.71C1337.4 1552.77 1338.77 1551.79 1340.11 1550.79C1341.88 1549.23 1343.59 1547.63 1345.24 1545.95C1347.16 1543.74 1348.99 1541.48 1350.73 1539.13C1353.67 1534.66 1356.25 1530.01 1358.72 1525.28C1358.9 1524.93 1359.09 1524.58 1359.27 1524.22C1359.44 1523.87 1359.62 1523.51 1359.8 1523.16C1362.95 1516.99 1366.01 1510.79 1369.29 1504.69C1359.22 1507.29 1349.22 1510.06 1339.24 1513.05C1331.77 1515.46 1324.28 1517.83 1317.08 1520.95C1314.96 1522.02 1312.9 1523.13 1310.87 1524.34C1308.86 1525.71 1306.92 1527.13 1305 1528.62C1302.82 1530.5 1300.73 1532.45 1298.7 1534.53C1297.51 1535.91 1296.38 1537.33 1295.3 1538.81C1294.78 1539.62 1294.29 1540.43 1293.85 1541.27C1293.46 1542.06 1293.11 1542.89 1292.79 1543.71C1292.58 1544.43 1292.38 1545.13 1292.15 1545.84C1292.23 1545.49 1292.31 1545.13 1292.38 1544.78C1292.41 1544.7 1292.44 1544.61 1292.47 1544.53C1292.44 1544.61 1292.41 1544.68 1292.4 1544.76C1292.47 1544.43 1292.53 1544.09 1292.61 1543.75C1292.52 1544.14 1292.43 1544.52 1292.34 1544.9C1292.27 1545.08 1292.21 1545.25 1292.15 1545.43C1292.21 1545.26 1292.27 1545.1 1292.34 1544.93C1292.11 1545.95 1291.94 1546.99 1291.82 1548.03C1291.79 1548.6 1291.77 1549.18 1291.77 1549.76C1291.82 1550.39 1291.88 1551.01 1291.95 1551.62C1292.09 1552.22 1292.23 1552.81 1292.37 1553.41C1292.5 1553.82 1292.67 1554.23 1292.82 1554.63C1292.98 1554.93 1293.14 1555.25 1293.33 1555.56C1293.57 1555.88 1293.82 1556.22 1294.04 1556.55C1294.18 1556.69 1294.32 1556.84 1294.46 1556.98C1294.87 1557.31 1295.28 1557.65 1295.68 1557.97C1296.16 1558.27 1296.67 1558.58 1297.17 1558.85C1297.95 1559.17 1298.74 1559.49 1299.52 1559.83C1300.33 1560.09 1301.14 1560.32 1301.96 1560.52C1303.21 1560.76 1304.46 1560.94 1305.73 1561.1C1307.91 1561.23 1310.06 1561.28 1312.24 1561.26Z" fill="black"/>
<path d="M1787.67 805.78C1780.07 801.219 1776.85 790.39 1781.89 782.734C1783.2 780.721 1784.63 779.18 1786.52 777.701C1788.29 776.313 1790.53 775.382 1792.5 774.299C1795.87 772.454 1799.18 770.471 1802.49 768.504C1809.5 763.943 1816.31 759.215 1823.13 754.365C1830.53 749.088 1837.58 743.216 1844.67 737.572C1858.58 726.515 1872.39 715.274 1886.05 703.911C1885.46 704.399 1884.88 704.887 1884.3 705.375C1886.27 703.728 1888.23 702.081 1890.19 700.418C1893.65 697.474 1897.55 695.659 1902.18 695.766C1906.62 695.858 1910.89 697.749 1913.95 700.952C1919.99 707.282 1920.4 718.797 1913.4 724.715C1896.04 739.387 1878.37 753.694 1860.55 767.817C1851.2 775.23 1841.71 782.383 1831.99 789.323C1823.21 795.591 1813.77 800.899 1804.34 806.115C1804.96 805.719 1805.61 805.322 1806.23 804.926C1806.2 804.926 1806.18 804.956 1806.17 804.972C1806.34 804.788 1806.52 804.59 1806.69 804.407C1803.62 806.802 1799.9 808.144 1796.09 808.144C1793.25 808.144 1790.35 807.397 1787.68 805.78H1787.67Z" fill="black"/>
<path d="M1779.49 802.989C1779.72 793.685 1787.53 786.577 1796.68 786.577C1797.99 786.577 1799.31 786.516 1800.62 786.455C1799.9 786.486 1799.18 786.501 1798.47 786.532C1819.33 785.464 1840.25 784.61 1861.07 782.718C1883.26 780.72 1905.38 778.234 1927.44 775.092C1936.5 773.811 1944.98 781.193 1945.91 790.04C1946.9 799.389 1940.02 807.229 1930.96 808.51C1908.54 811.698 1886.02 814.489 1863.45 816.243C1851.27 817.173 1839.12 818.012 1826.91 818.653C1821.82 818.927 1816.73 819.156 1811.63 819.43C1806.4 819.72 1801.14 820.163 1795.9 820.163C1786.75 820.163 1779.29 811.972 1779.49 802.973V802.989Z" fill="black"/>
<path d="M1896.06 865.598C1876.96 861.419 1858.02 856.599 1839.18 851.368C1830.27 848.897 1821.42 846.243 1812.56 843.604C1803.73 840.966 1794.96 837.961 1786 835.704C1783.44 836.268 1780.71 836.222 1777.97 835.429C1769.39 832.974 1763.63 823.349 1766.45 814.656C1767.62 810.995 1769.68 807.945 1772.78 805.611C1776.96 802.454 1781.66 801.935 1786.72 801.89C1790.98 801.844 1795.4 803.354 1799.46 804.559C1802.4 805.428 1805.35 806.298 1808.31 807.167C1818.91 810.309 1829.43 813.634 1840.03 816.7C1861.63 822.907 1883.38 828.505 1905.32 833.309C1914.29 835.277 1919.23 845.709 1916.85 854.098C1915.61 858.414 1912.61 862.136 1908.66 864.256C1906.16 865.613 1903.55 866.177 1900.91 866.177C1899.31 866.177 1897.69 865.979 1896.06 865.613V865.598Z" fill="black"/>
<path d="M1835.46 905.803C1821.44 893.922 1807.66 881.781 1794.15 869.336C1787.97 863.646 1782.15 857.637 1776.3 851.613C1770.35 845.451 1765.43 838.297 1761.25 830.854C1759.33 827.468 1757.24 823.96 1755.92 820.285C1752.84 811.667 1757.01 801.891 1765.67 798.611C1774.11 795.408 1784.25 799.74 1787.35 808.358C1789.12 811.805 1790.93 815.206 1792.95 818.515C1794.49 820.834 1796.13 823.03 1797.86 825.211C1806.19 834.835 1815.6 843.453 1824.95 852.07C1835.32 861.359 1845.8 870.51 1856.42 879.493C1863.4 885.396 1864.93 895.783 1859.08 903.104C1855.84 907.176 1850.74 909.418 1845.68 909.418C1842.03 909.418 1838.4 908.259 1835.47 905.788L1835.46 905.803Z" fill="black"/>
<path d="M1783.52 817.89C1777.74 816.578 1774.09 811.712 1771.85 806.618C1770.28 803.034 1770.03 798.519 1769.88 794.676C1769.67 789.261 1770.09 783.938 1770.66 778.57C1771.71 768.732 1774.17 758.971 1776.52 749.377C1780.3 734.033 1784.74 718.827 1789.36 703.727C1792.04 694.973 1801.24 689.665 1810.15 692.212C1818.83 694.698 1824.35 704.261 1821.67 713.001C1816.39 730.159 1811.58 747.44 1807.3 764.873C1805.85 771.798 1804.45 778.646 1803.67 785.692C1803.49 788.331 1803.39 790.954 1803.42 793.593C1803.49 794.142 1803.53 794.676 1803.59 795.21L1803.62 795.347C1805.01 798.84 1805.33 802.775 1804.31 806.374C1803.07 810.691 1800.08 814.412 1796.12 816.547C1793.63 817.89 1791.02 818.454 1788.35 818.454C1786.77 818.454 1785.15 818.256 1783.52 817.874V817.89Z" fill="black"/>
</g>
<defs>
<clipPath id="clip0_157_197">
<rect width="1892" height="1626" fill="white" transform="translate(54 187)"/>
</clipPath>
</defs>
</svg>
