<svg width="2000" height="2000" viewBox="0 0 2000 2000" fill="none" xmlns="http://www.w3.org/2000/svg">
<g clip-path="url(#clip0_157_198)">
<path d="M426.43 866.03C405.226 865.991 384.505 862.669 363.669 859.231C359.092 858.478 354.592 857.319 350.093 856.315C344.416 855.059 338.641 853.978 333.061 852.375C326.321 850.443 319.601 848.492 312.88 846.58C302.337 843.548 292.102 839.607 281.944 835.455C254.001 824.04 227.892 807.931 204.815 788.5C182.434 769.649 163.47 746.529 148.04 721.748C133.46 698.319 122.26 672.572 116.467 645.551C114.999 638.752 113.531 631.953 112.064 625.154C109.09 611.344 107.39 597.129 106.502 583.029C105.517 567.789 106.232 552.473 106.637 537.233C106.772 531.612 107.699 525.934 108.24 520.352C108.762 514.963 109.013 509.478 109.92 504.127C112.643 488.27 115.211 472.49 119.19 456.864C128.613 419.837 144.603 385.032 165.749 353.259C182.472 328.15 203.444 306.575 225.922 286.661C234.265 279.264 242.742 272.175 251.664 265.473C266.63 254.174 283.257 245.424 300.656 238.529C316.395 232.251 334.026 229.219 350.923 228.987C356.871 228.91 362.935 229.625 368.863 230.783C378.693 228.311 388.484 225.646 398.39 223.463C420.308 218.615 443.095 216.761 465.516 216.973C487.82 217.166 510.279 219.948 532.313 223.347C542.76 224.95 553.072 227.326 563.346 229.798C573.986 232.348 584.627 235.11 595.055 238.451C615.95 245.192 636.979 252.513 656.928 261.707C667.955 266.767 678.46 272.6 688.656 279.167C693.136 282.064 697.481 285.232 701.71 288.516C706.326 292.07 711.038 295.604 715.325 299.583C732.473 315.44 747.98 332.92 760.107 352.969C766.113 362.916 771.81 373.057 776.387 383.757C781.099 394.709 784.999 405.795 788.224 417.268C794.365 439.152 798.884 461.77 800.757 484.426C802.534 505.769 802.65 527.421 801.298 548.764C800.564 560.141 799.792 571.536 798.054 582.816C796.296 594.154 794.018 605.279 791.43 616.482C786.004 639.969 777.294 662.683 766.77 684.316C759.296 699.69 749.853 714.041 738.691 726.982C730.948 735.964 723.184 744.907 714.649 753.154C706.442 761.073 698.292 769.185 689.486 776.467C685.045 780.118 680.603 783.749 676.181 787.419C671.199 791.533 665.772 795.203 660.578 799.046C656.426 802.117 651.849 804.744 647.523 807.583C646.674 808.143 645.805 808.646 644.916 809.09C644.646 809.244 644.376 809.399 644.105 809.553C643.854 809.708 643.603 809.843 643.352 809.978C642.947 810.191 642.56 810.403 642.155 810.616C640.9 811.408 639.606 812.161 638.293 812.914C637.559 813.397 636.786 813.841 635.995 814.228C635.802 814.344 635.608 814.44 635.415 814.537C634.797 814.942 634.141 815.309 633.484 815.657C633.117 815.869 632.75 816.082 632.383 816.275C632.731 816.082 633.079 815.889 633.407 815.676C633.349 815.696 633.291 815.734 633.252 815.753C624.08 820.891 614.405 825.334 604.768 829.506C593.974 834.18 583.159 838.951 572.055 842.872C549.577 850.829 526.539 857.416 502.806 860.448C477.701 863.674 452.616 866.03 427.28 866.03C427.009 866.03 426.758 866.03 426.488 866.03H426.43ZM431.219 823.576C453.466 823.344 475.577 821.065 497.63 818.284C503.655 817.221 509.642 816.159 515.647 815.078C520.688 814.189 525.689 812.76 530.672 811.543C538.222 809.283 545.715 807.023 553.13 804.416C560.333 801.847 567.421 799.065 574.527 796.246C587.195 790.741 599.67 785.043 612.01 778.862C613.748 777.607 615.66 776.544 617.649 775.714C619.58 774.555 621.531 773.319 623.558 772.295C623.983 772.044 624.408 771.812 624.852 771.58C633.175 766.655 640.919 760.687 648.663 754.912C655.016 749.677 661.35 744.52 667.452 739.016C673.825 733.318 679.985 727.446 686.146 721.516C690.684 716.784 695.28 712.071 699.567 707.127C704.549 701.332 709.377 695.461 714.166 689.492C717.584 684.76 720.751 679.931 723.706 674.89C729.016 665.098 733.555 654.996 737.919 644.759C740.236 638.482 742.496 632.204 744.523 625.83C746.454 619.766 748.134 613.643 749.815 607.52C752.402 596.279 754.584 585.057 756.38 573.68C758.253 556.664 759.296 539.647 759.605 522.535C759.489 506.812 758.794 491.129 757.076 475.503C754.72 460.63 751.591 445.99 747.98 431.368C745.643 423.102 743.017 415.047 740.043 406.993C736.316 398.379 732.203 390.035 727.742 381.748C722.644 373.366 717.256 365.331 711.424 357.431C705.669 350.42 699.721 343.756 693.387 337.286C687.053 331.453 680.565 325.986 673.786 320.694C666.873 315.827 659.863 311.288 652.583 307.019C644.318 302.789 635.975 298.946 627.42 295.334C606.487 287.125 585.341 279.708 563.636 273.72C555.081 271.557 546.526 269.355 537.875 267.636C528.779 265.84 519.645 264.411 510.472 263.155C493.44 261.204 476.446 259.698 459.317 259.427C448.425 259.756 437.65 260.548 426.816 261.764C427.704 261.649 428.631 261.533 429.52 261.417C422.877 262.267 416.176 263.078 409.649 264.546C402.156 266.207 394.74 268.061 387.306 269.954C387.19 269.993 387.055 270.012 386.939 270.051C382.149 274.107 375.719 276.193 369.423 274.551C369.366 274.551 369.308 274.532 369.269 274.512C362.336 276.251 355.423 278.008 348.509 279.805C347.428 280.094 346.366 280.384 345.265 280.654C344.358 280.886 343.45 281.137 342.562 281.369C337.116 282.798 331.767 282.856 326.572 280.345C324.544 279.36 322.671 278.047 321.068 276.502C317.94 277.506 314.85 278.607 311.78 279.805C305.388 282.547 299.227 285.58 293.164 288.979C286.231 293.151 279.569 297.613 273.099 302.461C259.389 313.2 246.276 324.905 233.898 337.17C225.131 346.151 216.885 355.538 209.18 365.466C202.034 375.143 195.488 385.206 189.405 395.617C183.032 407.051 177.258 418.736 172.237 430.827C167.776 442.281 163.933 453.928 160.709 465.807C156.885 480.969 154.336 496.324 151.71 511.718C150.802 521.067 149.933 530.396 149.064 539.763C148.678 543.742 148.851 547.837 148.774 551.835C148.658 556.76 148.543 561.686 148.427 566.611C148.639 576.153 149.16 585.655 150.223 595.158C152.463 611.866 155.861 628.496 160.013 644.856C161.925 651.77 164.165 658.511 166.772 665.194C170.731 674.562 175.153 683.621 180.078 692.486C185.813 702.24 192.051 711.608 198.867 720.647C205.626 729.204 212.771 737.374 220.419 745.119C227.429 751.86 234.747 758.215 242.395 764.183C251.741 771.098 261.416 777.414 271.477 783.189C281.442 788.616 291.619 793.426 302.085 797.771C310.563 801.074 319.099 804.107 327.847 806.618C333.717 808.298 339.626 809.998 345.497 811.697C353.511 813.474 361.525 815.271 369.539 817.048C373.17 817.859 376.935 818.284 380.585 818.883C385.625 819.713 390.666 820.602 395.745 821.297C407.544 822.707 419.304 823.422 431.18 823.518L431.219 823.576Z" fill="black"/>
<path d="M144.622 499.396C133.113 497.87 125.678 485.354 127.783 474.461C128.845 468.898 132.186 463.915 136.898 460.786C141.591 457.657 146.824 456.923 152.308 457.579C151.574 457.483 150.86 457.386 150.107 457.29C150.725 457.367 151.343 457.425 151.941 457.444C154.857 457.309 157.754 457.058 160.651 456.729C167.313 455.706 173.898 454.373 180.445 452.789C189.482 450.278 198.327 447.265 207.075 443.846C222.871 437.183 237.876 429.148 253.035 421.171C260.412 416.709 267.789 412.247 275.166 407.786C278.7 405.642 282.021 402.996 285.42 400.639C289.263 397.954 293.125 395.327 296.852 392.527C303.901 386.945 310.621 381.112 317.032 374.796C325.008 366.548 332.385 357.895 339.53 348.952C343.489 343.351 347.235 337.711 350.865 331.878C360.965 313.761 370.273 295.334 378.171 276.135C379.697 272.215 381.107 268.294 382.285 264.237C383.154 260.529 383.714 256.782 384.216 252.996C385.722 241.485 398.313 234.068 409.166 236.154C414.708 237.235 419.71 240.557 422.838 245.27C426.044 250.099 426.72 255.449 426.005 261.089C425.464 265.3 424.827 269.452 423.765 273.567C421.583 282.104 418.339 290.216 414.959 298.367C406.443 318.744 396.536 338.889 384.93 357.683C381.686 362.917 378.268 367.9 374.676 372.903C371.451 377.403 367.956 381.981 364.267 386.114C350.383 401.701 336.073 417.115 318.848 429.129C309.482 435.676 300.232 442.282 290.441 448.173C285.265 451.302 280.109 454.431 274.915 457.541C269.276 460.94 263.289 463.779 257.457 466.831C242.24 474.847 226.753 482.09 210.531 487.923C199.254 491.998 187.628 494.973 175.887 497.291C168.51 498.739 160.844 499.898 153.254 499.898C150.358 499.898 147.461 499.724 144.603 499.338L144.622 499.396Z" fill="black"/>
<path d="M166.231 634.116C155.379 633.054 144.757 631.509 134.31 628.341C129.251 626.834 123.65 624.304 119.634 620.828C115.887 617.563 113.609 613.275 112.469 608.485C109.804 597.205 118.224 585.674 129.27 583.511C135.256 582.352 140.972 583.82 145.472 587.065C145.723 587.181 145.993 587.316 146.264 587.432C147.5 587.896 148.755 588.321 150.029 588.688C154.432 589.692 158.816 590.465 163.258 591.083C168.703 591.643 174.207 592.473 179.653 592.666C185.562 592.879 191.471 593.111 197.4 593.323C205.703 593.188 213.969 593.053 222.253 592.531C230.46 592.029 238.571 591.141 246.74 590.194C252.958 589.035 259.176 587.896 265.394 586.737C271.284 585.655 277.097 583.859 282.89 582.294C290.286 580.054 297.567 577.582 304.789 574.762C311.413 571.98 317.843 568.909 324.158 565.452C331.284 561.241 338.139 556.664 344.763 551.68C354.187 544.283 363.36 536.499 371.818 528C375.989 523.828 380.16 519.656 384.332 515.465C390.685 508.492 397.077 501.558 403.179 494.334C409.726 486.589 416.002 478.689 422.259 470.712C431.625 457.887 440.701 444.946 449.294 431.58C457.366 419.045 464.782 406.066 472.197 393.125C480.231 378.774 488.226 364.5 494.753 349.396C497.34 342.056 499.561 334.678 501.608 327.164C504.35 315.826 506.648 304.392 508.29 292.822C508.637 289.829 508.908 286.835 508.985 283.841C508.966 283.126 508.927 282.412 508.869 281.716C508.831 281.562 508.811 281.388 508.773 281.234C508.734 281.098 508.676 280.944 508.618 280.809C507.826 278.974 507.015 277.139 506.243 275.285C506.436 275.787 506.648 276.289 506.861 276.772C505.509 273.604 504.177 270.475 503.308 267.153C502.612 264.526 502.033 261.861 501.396 259.195C501.376 259.118 501.338 259.021 501.319 258.925C499.812 253.536 499.87 248.07 502.323 242.951C504.795 237.814 509.352 233.816 514.759 232.019C525.361 228.485 538.55 234.279 541.679 245.462C542.567 248.591 543.262 251.759 544.035 254.927C544.324 255.912 544.633 256.878 544.981 257.824C545.348 258.732 545.734 259.64 546.101 260.547C547.009 262.633 547.974 264.642 548.824 266.767C550.195 270.205 550.794 273.952 551.219 277.622C552.088 285.328 551.122 293.189 550.079 300.819C547.163 322.162 542.065 343.312 534.862 363.592C531.309 373.559 526.211 383.139 521.17 392.41C515.3 403.13 509.313 413.791 503.23 424.415C492.397 443.305 481.119 462.195 468.239 479.79C460.495 490.375 452.654 500.805 444.582 511.119C437.708 519.907 430.215 528.232 422.703 536.48C414.09 545.905 405.168 555.08 395.88 563.829C385.761 573.371 375.043 582.179 363.842 590.426C350.943 599.929 336.633 607.539 321.86 613.662C311.529 617.95 300.927 621.484 290.074 624.266C284.242 625.753 278.41 627.568 272.481 628.669C266.456 629.79 260.431 630.891 254.406 632.011C248.014 633.17 241.371 633.556 234.921 634.329C223.566 635.661 211.96 635.526 200.528 635.739C199.292 635.758 198.076 635.777 196.84 635.777C186.605 635.777 176.389 635.063 166.212 634.058L166.231 634.116Z" fill="black"/>
<path d="M701.884 444.619C679.773 444.31 657.7 442.417 635.743 439.906C625.064 438.67 614.154 437.183 603.706 434.749C597.874 433.397 591.907 432.335 586.191 430.616C580.591 428.916 574.797 427.525 569.332 425.439C557.9 421.074 546.642 416.516 535.596 411.262C525.361 406.414 515.281 401.276 505.239 396.061C504.37 395.617 503.52 395.173 502.651 394.748C492.223 389.668 487.685 376.805 492.706 366.336C497.727 355.925 510.723 351.328 521.132 356.408C528.702 360.116 536.137 364.153 543.726 367.9C552.57 372.266 561.492 376.36 570.491 380.378C574.933 382.077 579.374 383.758 583.816 385.458C588.586 387.293 593.664 388.49 598.569 389.919C604.807 391.368 611.025 392.913 617.321 394.053C624.64 395.347 631.92 396.486 639.239 397.529C662.238 400.137 685.296 401.817 708.469 402.204C715.035 402.146 721.562 401.933 728.109 401.238C729.634 401.006 731.121 400.736 732.627 400.407C732.936 400.311 733.265 400.214 733.574 400.098C744.06 395.366 756.728 399.461 761.865 410.007C766.847 420.263 762.56 433.59 752.035 438.438C745.624 441.393 738.846 442.803 731.874 443.595C724.362 444.465 716.812 444.677 709.261 444.677C706.789 444.677 704.337 444.658 701.865 444.619H701.884Z" fill="black"/>
<path d="M714.224 637.709C693.291 636.666 672.184 633.653 651.733 629.036C629.274 623.976 606.796 618.432 584.878 611.305C560.353 603.328 536.059 594.675 512.886 583.221C490.948 572.366 470.189 558.653 452.326 541.868C448.078 537.87 444.08 533.621 440.315 529.178C436.8 525.064 433.112 520.352 430.852 515.426C427.685 508.492 425.773 502.002 428.033 494.489C431.374 483.364 444.157 477.415 454.914 480.969C462.078 483.344 466.964 489.119 468.683 495.86C468.779 496.053 468.856 496.247 468.953 496.459C469.552 497.425 470.189 498.371 470.845 499.298C473.491 502.601 476.272 505.73 479.227 508.782C484.325 513.669 489.635 518.227 495.197 522.573C503.095 528.425 511.283 533.756 519.761 538.72C527.273 542.892 534.92 546.813 542.799 550.232C548.148 552.549 553.478 554.848 558.808 557.146C565.412 559.599 572.017 562.033 578.602 564.447C585.071 566.842 591.695 568.793 598.241 570.918C610.33 574.839 622.631 578.122 634.913 581.406C654.939 586.312 674.964 590.58 695.396 593.42C705.746 594.559 716.116 595.409 726.525 595.564C732.26 595.448 737.977 594.946 743.693 594.308C744.137 594.231 744.562 594.154 745.006 594.057C756.322 591.623 767.793 599.639 769.975 610.861C772.215 622.373 764.51 633.401 753.174 635.835C748.636 636.801 743.809 637.071 739.193 637.535C735.08 637.94 730.928 638.095 726.776 638.095C722.624 638.095 718.376 637.94 714.185 637.728L714.224 637.709Z" fill="black"/>
<path d="M561.589 824.309C545.947 819.249 530.826 812.913 515.763 806.366C495.197 797.423 475.055 787.514 456.092 775.52C432.571 760.647 413.453 739.498 396.208 717.884C388.31 707.976 380.72 697.913 373.17 687.734C365.638 677.555 359.343 666.294 353.55 655.072C346.173 640.721 340.206 625.289 336.343 609.624C333.756 599.117 330.569 586.022 337 576.21C341.326 569.604 348.645 566.127 356.446 566.417C368.033 566.861 377.051 577.658 376.317 588.996C376.26 589.865 376.163 590.735 375.989 591.565C376.511 594.501 377.109 597.398 377.804 600.315C379.755 607.287 382.072 614.086 384.679 620.846C388.387 629.673 392.597 638.23 397.251 646.612C404.029 657.989 411.792 668.496 419.613 679.139C424.383 685.126 429.114 691.133 434.058 696.986C439.813 703.823 445.722 710.429 451.728 717.015C457.482 722.578 463.198 728.025 469.474 733.027C477.141 738.628 485.116 743.612 493.304 748.344C513.465 758.928 534.167 768.277 555.216 776.911C561.704 779.479 568.251 781.739 574.913 783.883C585.94 787.456 592.023 799.837 588.412 810.77C585.477 819.674 576.98 825.314 568.039 825.314C565.876 825.314 563.674 824.985 561.531 824.29L561.589 824.309Z" fill="black"/>
<path d="M268.484 797.52C258.172 797.192 247.879 796.4 237.586 795.608C235.153 795.434 232.758 795.145 230.344 794.913C226.868 794.585 222.794 794.276 219.55 793.039C211.999 790.181 206.553 784.676 204.815 776.641C202.382 765.323 210.415 753.85 221.616 751.667C225.13 750.991 228.587 751.223 231.754 752.208C232.353 752.304 232.971 752.401 233.569 752.478C249.907 754.062 266.283 754.854 282.678 755.414C287.621 755.317 292.565 755.24 297.509 755.144C302.24 755.047 307.048 754.371 311.78 753.907C315.816 753.231 319.832 752.575 323.868 751.937C327.364 751.358 330.801 750.354 334.238 749.465C338.274 748.248 342.253 746.916 346.192 745.428C353.125 742.454 359.768 738.958 366.372 735.327C375.197 730.227 383.945 725.032 392.114 718.948C393.62 717.731 395.107 716.475 396.517 715.162C398.236 713.25 399.761 711.222 401.422 709.252C408.915 700.405 422.741 699.536 431.431 707.069C440.257 714.718 441.106 728.238 433.614 737.084C430.852 740.348 428.303 743.574 425.194 746.549C419.671 751.899 413.221 756.341 406.81 760.552C398.1 766.288 388.966 771.387 379.832 776.429C373.653 779.828 367.222 782.88 360.637 785.429C351.889 788.809 342.967 791.089 333.872 793.271C323.25 795.84 312.204 796.555 301.352 797.501C296.331 797.926 291.213 797.752 286.192 797.849C285.304 797.849 284.416 797.868 283.527 797.868C278.487 797.868 273.447 797.656 268.426 797.482L268.484 797.52Z" fill="black"/>
<path d="M1206.95 746.142C1199.44 745.582 1191.96 744.635 1184.49 743.592C1176.86 742.549 1169.06 741.332 1161.57 739.536C1148.09 736.272 1134.51 733.317 1121.19 729.454C1090.71 720.588 1061.46 708.091 1033.86 692.427C1006.05 676.628 981.123 655.941 959.495 632.454C938.349 609.489 920.158 583.626 906.833 555.369C893.412 526.899 886.132 496.111 882.405 464.975C880.551 449.658 880.165 434.207 880.319 418.793C880.493 402.627 882.096 386.499 884.992 370.603C888.951 348.893 895.691 327.724 902.546 306.786C909.46 285.617 918.053 264.873 928.172 245.056C948.198 205.847 975.697 170.539 1011.07 144.039C1029.01 130.596 1048.21 119.181 1068.04 108.79C1088.53 98.0506 1110.03 88.9147 1132.14 82.1352C1153.17 75.7033 1174.91 72.3232 1196.93 73.1344C1206.14 73.4628 1215.43 74.7376 1224.54 76.1089C1235.43 76.1089 1246.3 76.2634 1257.2 76.7463C1268.11 77.2485 1278.92 78.5812 1289.7 80.2423C1300.38 81.8648 1310.94 84.3564 1321.48 86.79C1332.2 89.2624 1342.92 91.8505 1353.56 94.7091C1374.84 100.407 1396.27 106.414 1416.49 115.241C1437.75 124.531 1458.17 135.85 1476.11 150.703C1494.47 165.904 1511.12 182.688 1526.74 200.709C1533.91 208.976 1540.59 217.648 1547.29 226.282C1554.49 235.553 1560.82 245.326 1567.08 255.235C1580.29 276.114 1588.5 300.451 1592.65 324.691C1594.64 336.377 1596.26 348.14 1596.86 359.999C1597.15 365.697 1597.54 371.375 1597.46 377.073C1597.38 382.964 1597.59 388.952 1597.15 394.862C1596.69 400.985 1596.22 407.108 1595.76 413.25C1595.28 419.624 1594.18 426.036 1593.38 432.391C1592.01 443.458 1589.98 454.468 1587.59 465.361C1585.77 473.551 1583.84 481.644 1581.43 489.698C1576.78 505.247 1570.23 520.274 1562.78 534.663C1559.69 540.632 1556.09 546.387 1552.75 552.201C1550.4 556.335 1547.91 560.333 1545.36 564.35C1534.37 581.753 1523.26 598.924 1509.55 614.376C1503.51 621.194 1496.96 627.587 1490.28 633.768C1485.69 637.998 1481.26 642.517 1476.47 646.535C1467.51 654.068 1458.63 661.62 1449.36 668.766C1444.42 672.591 1439.61 676.685 1434.49 680.278C1429.03 684.122 1423.54 687.946 1418.06 691.79C1396.66 706.797 1373.31 718.695 1348.85 727.851C1318.91 739.015 1286.95 744.654 1255.19 746.702C1248.6 747.127 1242.02 747.32 1235.41 747.32C1225.91 747.32 1216.41 746.914 1206.97 746.2L1206.95 746.142ZM1233.35 704.75C1247.31 704.653 1261.19 703.765 1275.06 702.084C1287.38 700.346 1299.54 697.97 1311.63 694.919C1322.64 691.886 1333.4 688.294 1344.02 684.083C1354.12 679.795 1363.95 675.005 1373.53 669.674C1386.39 662.103 1398.48 653.546 1410.7 644.97C1420.16 637.631 1429.61 630.31 1438.78 622.604C1449.07 613.951 1459.17 605.066 1468.71 595.582C1475.72 588.397 1482.31 580.98 1488.45 573.023C1502.27 554.152 1514.25 534.064 1525.79 513.745C1525.33 514.537 1524.89 515.348 1524.42 516.16C1528.27 508.762 1531.8 501.287 1534.99 493.6C1538.27 485.043 1541.11 476.371 1543.54 467.544C1544.99 461.189 1546.34 454.796 1547.77 448.422C1549.26 441.778 1550.03 434.883 1551.13 428.161C1552.19 419.74 1553.25 411.338 1553.89 402.878C1554.24 398.184 1554.76 393.529 1554.82 388.836C1554.9 383.988 1554.95 379.159 1555.03 374.311C1554.74 368.575 1554.43 362.819 1554.14 357.082C1553.89 352.06 1553.12 347 1552.5 341.997C1551.07 333.731 1549.68 325.56 1547.69 317.41C1545.94 311.113 1543.87 304.971 1541.53 298.867C1538.56 291.895 1535.24 285.173 1531.55 278.567C1528.81 274.241 1526.08 269.934 1523.32 265.588C1520.48 261.107 1517.1 256.915 1514 252.589C1508.09 244.94 1502.18 237.253 1495.84 229.952C1488.08 221.028 1480.14 212.395 1471.92 203.935C1466.88 199.125 1461.8 194.432 1456.62 189.777C1451.39 185.083 1445.71 180.873 1440.11 176.604C1440.67 177.029 1441.23 177.454 1441.79 177.879C1436.23 174.035 1430.65 170.346 1424.91 166.773C1416.01 161.886 1406.99 157.482 1397.68 153.388C1378.8 146.145 1359.62 140.292 1340.1 135.058C1318.88 129.63 1297.56 124.473 1275.89 121.132C1259.4 119.2 1242.87 118.621 1226.26 118.563C1225.25 118.563 1224.27 118.563 1223.27 118.563C1221.18 118.563 1219.15 118.389 1217.2 117.984C1217.11 117.984 1217.01 117.964 1216.89 117.945C1215.39 117.713 1213.88 117.481 1212.37 117.269C1204.53 116.322 1196.69 115.589 1188.78 115.453C1183.37 115.569 1178.06 115.955 1172.67 116.574C1165.7 117.636 1158.84 119.007 1152.01 120.707C1141.35 123.643 1130.94 127.197 1120.67 131.253C1103.02 138.631 1085.92 147.11 1069.28 156.536C1057.58 163.393 1046.28 170.81 1035.41 178.922C1027.08 185.45 1019.2 192.442 1011.69 199.859C1004.62 207.218 998.001 214.925 991.744 222.999C984.947 232.192 978.748 241.676 973.013 251.546C965.423 265.201 958.722 279.205 952.755 293.614C944.258 314.879 937.21 336.763 931.223 358.859C928.539 369.521 926.318 380.279 924.793 391.192C923.46 403.129 922.862 415.046 922.784 427.041C922.958 439.731 923.75 452.324 925.237 464.917C926.84 476.583 929.022 488.076 931.88 499.51C934.487 508.955 937.519 518.188 941.072 527.324C944.896 536.382 949.144 545.171 953.914 553.766C959.727 563.616 966.061 573.1 972.974 582.236C981.761 593.419 991.03 604.177 1001.05 614.279C1009.12 622.063 1017.54 629.422 1026.39 636.317C1036.68 643.985 1047.32 651.016 1058.43 657.428C1070.9 664.305 1083.68 670.447 1096.85 675.894C1111.24 681.591 1125.84 686.517 1140.71 690.747C1147.59 692.388 1154.44 694.03 1161.32 695.691C1172.61 698.395 1183.99 700.539 1195.52 702.181C1208.11 703.688 1220.72 704.537 1233.38 704.711L1233.35 704.75Z" fill="black"/>
<path d="M1424.43 1468.96C1399.69 1468.92 1374.95 1468.48 1350.22 1468.07C1323.26 1467.61 1296.09 1467.88 1269.3 1464.62C1255.25 1462.9 1240.94 1460.58 1228.05 1454.42C1216 1448.64 1208.28 1436.47 1208.94 1423.13C1209.52 1411.58 1209.96 1400.03 1210.33 1388.48C1211 1365.94 1211.24 1343.34 1211.25 1320.8C1211.25 1314.39 1211.22 1307.95 1211.22 1301.54V1304.26C1210.44 1259.57 1207.8 1214.93 1205.35 1170.32C1202.83 1124.11 1200.17 1077.89 1197.06 1031.73C1195.3 1005.33 1193.82 978.847 1191.36 952.502C1190.4 942.11 1189.45 931.719 1188.51 921.347C1180.24 928.532 1172.01 935.736 1163.83 943.018C1147.1 957.891 1131.21 973.671 1115.32 989.412C1090.52 1014.66 1066.15 1040.46 1040.27 1064.61C1027.33 1076.7 1014.24 1088.63 1000.8 1100.18C988.867 1110.46 977.107 1120.87 965.964 1131.99C963.087 1134.93 960.209 1137.87 957.351 1140.8C957.062 1141.11 956.753 1141.42 956.444 1141.71C962.43 1154.34 964.072 1169.52 955.208 1181.34C950.728 1187.31 944.76 1191.29 937.519 1193.13C929.447 1195.19 921.626 1194.05 913.747 1191.79C905.617 1189.48 898.433 1184.01 891.983 1178.78C884.529 1172.73 878.369 1164.77 873.329 1156.66C864.523 1142.56 859.096 1125.29 861.993 1108.68C863.209 1101.75 867.554 1095.1 873.271 1091.09C879.933 1086.39 887.831 1085.21 895.71 1087.01C904.304 1088.96 912.221 1094.52 919.444 1099.41C923.229 1101.96 926.801 1104.78 930.335 1107.68C937.21 1100.65 944.123 1093.69 951.384 1087.07C960.557 1078.67 970 1070.59 979.405 1062.46C999.546 1045.04 1018.68 1026.55 1037.61 1007.82C1053.17 992.097 1068.62 976.278 1084.13 960.517C1091.8 952.753 1099.5 944.969 1107.44 937.455C1115.61 929.749 1123.62 921.791 1132.02 914.336C1148.88 899.347 1165.83 884.552 1182.92 869.834C1180.43 850.964 1177.96 832.112 1175.43 813.261C1174.14 803.661 1172.69 794.101 1171.32 784.501C1169.87 774.322 1168.19 764.047 1165.87 754.022C1165.62 753.114 1165.37 752.226 1165.1 751.318C1163.32 747.957 1162.4 744.114 1162.57 740.096C1162.63 739.15 1162.76 738.203 1162.94 737.276C1164.31 729.821 1169.93 723.524 1177.07 721.129C1185.09 718.444 1194.22 720.897 1199.78 727.271C1202.82 730.709 1204.57 734.765 1205.83 739.13C1207.16 743.727 1208.4 748.382 1209.19 753.095C1210.37 760.029 1211.52 766.982 1212.7 773.897C1214.4 783.98 1215.68 794.139 1217.07 804.26C1218.53 814.999 1220.04 825.738 1221.49 836.497C1227.11 831.591 1232.71 826.665 1238.31 821.74C1256.81 805.419 1275.48 789.349 1294.2 773.26C1303.48 765.263 1313.29 757.827 1322.81 750.101C1330.6 743.824 1338.42 737.605 1346.26 731.404C1354.87 724.606 1363.64 717.981 1371.98 710.853C1381.95 702.336 1391.89 693.856 1401.84 685.358C1405.72 682.036 1409.33 678.269 1413.06 674.773C1418.5 669.616 1423.97 664.459 1429.41 659.302C1437.43 651.711 1445.25 643.869 1453.15 636.144C1460.72 628.746 1468.44 621.348 1476.34 614.279C1486.75 604.969 1497 595.486 1507.66 586.504C1513.03 581.985 1518.53 577.658 1524.09 573.409C1529.75 569.102 1535.55 564.794 1541.78 561.395C1544.76 559.773 1547.69 558.227 1550.86 557.03C1554.03 555.774 1556.98 555.002 1560.28 554.249C1563.03 553.611 1566.19 553.708 1568.97 553.882C1572.6 554.113 1576.78 555.002 1580.04 556.644C1584.71 559 1588.81 561.839 1592.42 565.644C1594.37 567.711 1596.22 569.836 1598.1 571.96C1601.82 576.19 1605.59 580.382 1609.35 584.554C1623.64 600.411 1637.32 616.751 1650.62 633.439C1664.83 651.306 1678.55 669.616 1691.02 688.719C1703.5 707.86 1715.28 727.735 1725.41 748.208C1735.63 768.837 1744.72 789.851 1753.11 811.291C1756.87 820.929 1760.68 830.606 1763.94 840.437C1766.02 846.734 1768.11 853.03 1770.2 859.327C1772.17 865.314 1773.63 871.515 1775.37 877.579C1781.65 899.772 1786.49 922.429 1791.46 944.95C1795.55 963.492 1799.26 982.092 1802.72 1000.77C1806.17 1019.68 1808.35 1038.78 1810.65 1057.85C1812.87 1076.23 1814.17 1094.76 1815.64 1113.2C1816.35 1122.11 1816.64 1131.07 1817.1 1139.99C1817.61 1149.4 1817.86 1158.9 1817.88 1168.33C1817.88 1167.88 1817.88 1167.44 1817.88 1166.97C1817.93 1180.2 1818.05 1193.44 1817.7 1206.69C1817.33 1220.71 1816.77 1234.67 1816.04 1248.7C1815.33 1262.12 1814.32 1275.54 1813.36 1288.95C1812.49 1301 1811.41 1313.09 1809.88 1325.05C1809.88 1324.85 1809.92 1324.66 1809.94 1324.47C1809.75 1326.01 1809.55 1327.54 1809.36 1329.08C1809.36 1328.99 1809.38 1328.89 1809.4 1328.81C1808.86 1333.04 1808.32 1337.25 1807.78 1341.48C1807.89 1340.58 1808.01 1339.67 1808.12 1338.78C1807.78 1341.52 1807.43 1344.28 1807.06 1347.03C1807.18 1346.14 1807.29 1345.23 1807.41 1344.32C1806.04 1355.18 1804.01 1365.98 1801.62 1376.64C1796.94 1397.55 1792.37 1421.91 1773.63 1434.87C1765.39 1440.57 1755.33 1441.36 1745.67 1442.06C1740.03 1442.46 1734.39 1442.96 1728.77 1443.47C1718.17 1444.47 1707.61 1445.75 1697.03 1447.06C1651.66 1452.64 1606.24 1457.76 1560.71 1462.03C1516.1 1466.2 1471.26 1468.92 1426.44 1468.92C1425.76 1468.92 1425.09 1468.92 1424.43 1468.92V1468.96ZM1359.04 1425.7C1383.39 1426.12 1407.73 1426.45 1432.1 1426.51C1454.21 1426.03 1476.3 1425.45 1498.37 1424.11C1521.7 1422.7 1544.95 1420.81 1568.22 1418.63C1614.1 1414.34 1659.85 1408.7 1705.6 1403.25C1720.28 1401.5 1734.99 1400.18 1749.73 1399.16C1749.82 1399.16 1749.92 1399.14 1750.02 1399.12C1750.13 1399.08 1750.23 1399.04 1750.34 1399C1750.56 1398.66 1750.77 1398.31 1751 1397.96C1751.52 1396.94 1752.02 1395.91 1752.47 1394.85C1754.38 1389.79 1755.94 1384.69 1757.39 1379.48C1758.8 1373.31 1760.46 1367.13 1761.54 1360.91C1762.74 1353.92 1763.92 1346.93 1765.14 1339.94C1765.14 1339.78 1765.18 1339.63 1765.19 1339.48C1765.52 1336.81 1765.87 1334.16 1766.2 1331.5C1766.08 1332.41 1765.97 1333.31 1765.85 1334.2C1766.39 1329.97 1766.93 1325.76 1767.47 1321.53C1767.36 1322.44 1767.26 1323.33 1767.15 1324.22C1767.49 1321.47 1767.84 1318.73 1768.19 1315.99C1768.07 1316.88 1767.96 1317.78 1767.84 1318.67C1769.1 1308.76 1769.75 1298.76 1770.66 1288.81C1771.64 1278.17 1772.2 1267.47 1772.98 1256.79C1773.73 1246.18 1774.1 1235.52 1774.66 1224.9C1775.16 1215.4 1775.43 1205.76 1775.45 1196.22C1775.45 1186.4 1775.41 1176.59 1775.41 1166.76V1169.49C1774.75 1147.08 1773.87 1124.73 1772.09 1102.39C1770.37 1080.6 1767.92 1058.93 1765.35 1037.22C1763.53 1025.24 1761.78 1013.3 1759.58 1001.39C1757.32 989.123 1754.81 976.916 1752.26 964.709C1747.27 940.778 1741.54 917.04 1735.65 893.321C1733.74 886.638 1731.86 879.936 1729.97 873.253C1727.98 866.145 1725.34 859.172 1723 852.161C1718.81 839.529 1713.69 827.148 1708.84 814.767C1703.5 801.923 1697.91 789.233 1691.97 776.659C1686.21 764.51 1679.8 752.767 1673.22 741.062C1666.38 729.357 1659.47 717.71 1651.82 706.527C1644.04 695.17 1636.02 684.064 1627.76 673.093C1617.48 659.882 1606.94 646.863 1596.22 634C1590.8 627.491 1585.1 621.175 1579.44 614.859C1574.28 609.141 1569.28 603.289 1564.09 597.61C1563.51 597.9 1562.93 598.209 1562.37 598.518C1556.92 601.937 1551.71 605.742 1546.57 609.644C1524.09 627.355 1503.34 647.211 1482.52 666.835C1474.41 674.503 1466.53 682.403 1458.55 690.206C1449.67 698.859 1440.54 707.261 1431.54 715.779C1423.06 723.794 1413.83 731.037 1404.98 738.609C1397.14 745.311 1389.09 751.666 1381.02 758.078C1361.59 773.434 1342.3 788.982 1323.05 804.569C1313.56 812.237 1304.51 820.485 1295.26 828.423C1287.69 834.913 1280.21 841.48 1272.74 848.066C1257.81 861.239 1242.81 874.315 1227.77 887.353C1228.58 894.267 1229.37 901.163 1230.02 908.097C1231.3 921.714 1232.52 935.312 1233.77 948.929C1235.86 971.527 1237.23 994.203 1238.73 1016.84C1241.79 1062.5 1244.59 1108.18 1247.06 1153.88C1249.55 1199.73 1252.73 1245.62 1253.51 1291.52C1253.56 1295.84 1253.68 1300.15 1253.68 1304.48V1301.75C1253.82 1340.52 1253.49 1379.32 1251.75 1418.05C1252.93 1418.42 1254.11 1418.74 1255.28 1419.07C1261.42 1420.5 1267.6 1421.49 1273.86 1422.34C1302.04 1425.6 1330.69 1425.19 1359.02 1425.68L1359.04 1425.7Z" fill="black"/>
<path d="M908.88 1146.38C898.491 1141.4 893.818 1128.36 898.935 1117.97C908.011 1099.55 917.995 1081.64 928.597 1064.04C939.295 1046.31 952.157 1030.05 963.782 1012.94C987.805 977.514 1010.17 940.912 1031.27 903.692C1032.07 902.282 1032.86 900.892 1033.65 899.482C1033.55 899.675 1033.46 899.849 1033.34 900.042C1037.34 892.934 1041.35 885.826 1045.37 878.738C1044.91 879.529 1044.46 880.36 1044 881.152C1044.56 880.186 1045.12 879.201 1045.66 878.235C1046.01 877.637 1046.34 877.038 1046.68 876.439C1046.49 876.787 1046.28 877.154 1046.09 877.501C1046.16 877.347 1046.26 877.212 1046.34 877.057C1046.03 877.598 1045.72 878.158 1045.41 878.718C1058.48 855.135 1071.31 831.416 1083.84 807.543C1090.21 795.413 1096.53 783.245 1102.82 771.096C1107.98 761.129 1113.25 751.24 1118.99 741.602C1124.86 731.751 1132.37 719.911 1144.59 717.632C1155.97 715.508 1167.3 722.982 1169.54 734.436C1171.24 743.089 1167.17 751.877 1160.06 756.474C1156.93 760.917 1154.17 765.572 1151.47 770.265C1138.32 794.042 1126.17 818.417 1113.58 842.484C1103.87 861.006 1093.82 879.414 1083.53 897.627C1082.87 898.786 1082.22 899.965 1081.56 901.123C1081.87 900.602 1082.16 900.08 1082.45 899.559C1082.58 899.327 1082.72 899.076 1082.85 898.844C1082.76 899.018 1082.66 899.192 1082.56 899.366C1082.7 899.153 1082.82 898.922 1082.95 898.709C1082.49 899.52 1082.04 900.312 1081.6 901.104C1081.64 901.027 1081.7 900.93 1081.73 900.853C1081.46 901.336 1081.17 901.838 1080.9 902.321C1080.73 902.649 1080.54 902.958 1080.36 903.287C1080.46 903.094 1080.58 902.92 1080.67 902.727C1076.67 909.834 1072.66 916.942 1068.64 924.031C1069.1 923.239 1069.55 922.408 1070.03 921.616C1052.19 953.196 1033.61 984.39 1013.76 1014.77C1003.23 1030.84 992.247 1046.51 981.143 1062.15C971.197 1076.15 962.16 1090.62 953.663 1105.51C947.985 1115.71 942.501 1126.03 937.345 1136.51C933.657 1144.03 925.951 1148.51 917.995 1148.51C914.944 1148.51 911.854 1147.85 908.938 1146.44L908.88 1146.38Z" fill="black"/>
<path d="M937.654 1850.84C931.494 1839.44 928.906 1826.4 929.505 1813.46C930.084 1801.37 932.787 1788.95 940.28 1779.18C943.563 1774.89 947.483 1772.17 952.253 1769.77C956.753 1767.49 962.218 1766.97 967.181 1766.7C972.839 1766.37 978.478 1766.33 984.136 1766.49C995.761 1766.8 1007.35 1767.71 1018.86 1769.25C1029.88 1770.72 1041.14 1772.57 1051.76 1775.93C1053.42 1776.46 1055.07 1776.98 1056.73 1777.52C1055.36 1766.33 1054.12 1755.13 1053.23 1743.89C1052.27 1731.55 1051.4 1719.24 1050.72 1706.88C1050.06 1694.48 1049.81 1682.08 1049.47 1669.68C1048.91 1647.41 1049.39 1625.1 1050.57 1602.85C1050.95 1595.69 1051.32 1588.54 1051.69 1581.38C1052.34 1569.17 1053.95 1556.92 1055.86 1544.85C1060.43 1515.94 1069.9 1484.34 1093.22 1464.96C1104.21 1455.85 1118.48 1451 1132.23 1447.95C1139.28 1446.38 1146.27 1444.97 1153.38 1443.72C1166.01 1441.5 1178.87 1440.03 1191.61 1438.72C1204.67 1437.34 1217.76 1435.78 1230.86 1434.85C1243.18 1434 1256.06 1432.73 1268.26 1435.28C1279.08 1436.57 1287.24 1446.92 1286.57 1457.74C1285.8 1469.54 1275.56 1478.04 1263.99 1477.62C1262.64 1477.56 1261.41 1477.31 1260.17 1477C1259.67 1476.88 1259.15 1476.8 1258.62 1476.71C1257.1 1476.59 1255.55 1476.5 1254.05 1476.38C1241.21 1476.55 1228.48 1477.75 1215.68 1478.97C1203.11 1480.15 1190.55 1481.61 1177.98 1483.06C1164.64 1484.96 1151.41 1486.98 1138.32 1490.25C1134.43 1491.35 1130.63 1492.6 1126.85 1493.99C1125.76 1494.48 1124.72 1495 1123.68 1495.56C1122.44 1496.29 1121.25 1497.07 1120.09 1497.9C1119.47 1498.4 1118.89 1498.94 1118.31 1499.48C1117.15 1500.68 1116.07 1501.93 1115.03 1503.25C1113.44 1505.49 1111.98 1507.73 1110.59 1510.06C1109.18 1512.81 1107.88 1515.57 1106.65 1518.39C1104.68 1523.57 1102.98 1528.78 1101.49 1534.13C1099.27 1543.56 1097.53 1553.06 1096.24 1562.68C1093.96 1582.26 1093.22 1601.93 1092.2 1621.61C1091.89 1627.62 1092.03 1633.66 1091.99 1639.67C1091.93 1646.68 1091.85 1653.67 1091.8 1660.68C1092.32 1681.89 1092.72 1703.12 1094.38 1724.29C1096.08 1745.74 1098.21 1767.11 1100.87 1788.47C1101.74 1794.57 1103.02 1800.75 1103.42 1806.88C1103.75 1812.17 1102.78 1817.65 1099.87 1822.14C1096.58 1827.12 1090.89 1830.92 1085.04 1832.06C1084.23 1832.22 1083.41 1832.33 1082.62 1832.39C1080.36 1835.85 1077.85 1839.17 1075.09 1842.38C1067.6 1851.07 1058.43 1857.89 1048.98 1864.28C1044.19 1867.54 1038.92 1870.13 1033.77 1872.7C1022.62 1878.26 1010.88 1881.82 998.523 1883.13C996.611 1883.34 994.699 1883.44 992.768 1883.44C970.618 1883.44 948.178 1870.27 937.693 1850.9L937.654 1850.84ZM993.579 1840.72C994.776 1840.68 995.974 1840.6 997.152 1840.48C998.484 1840.29 999.797 1840.04 1001.11 1839.73C1003.91 1838.88 1006.67 1837.95 1009.41 1836.93C1013.22 1835.27 1016.93 1833.43 1020.65 1831.58C1025.35 1828.72 1029.86 1825.73 1034.33 1822.48C1036.37 1820.74 1038.36 1819.01 1040.33 1817.17C1040.39 1817.09 1040.47 1817.04 1040.52 1816.96C1039.81 1816.73 1039.1 1816.51 1038.4 1816.28C1033.88 1815.16 1029.38 1814.08 1024.81 1813.21C1019.73 1812.25 1014.67 1811.51 1009.55 1810.82C998.561 1809.79 987.593 1808.98 976.566 1808.87C975.272 1808.9 973.978 1808.94 972.704 1809C972.53 1809.79 972.395 1810.58 972.279 1811.4C972.144 1812.73 972.066 1814.06 972.008 1815.41C972.066 1817.79 972.202 1820.15 972.414 1822.52C972.588 1823.56 972.781 1824.59 973.013 1825.61C973.264 1826.42 973.495 1827.22 973.746 1828.03C974.055 1828.7 974.384 1829.38 974.712 1830.03C975.137 1830.69 975.562 1831.35 976.025 1831.99C976.682 1832.8 977.377 1833.57 978.091 1834.32C978.845 1835.02 979.598 1835.67 980.39 1836.31C981.278 1836.93 982.185 1837.53 983.093 1838.09C983.788 1838.46 984.483 1838.78 985.179 1839.09C986.086 1839.4 986.975 1839.69 987.882 1840C988.732 1840.19 989.601 1840.37 990.47 1840.48C991.513 1840.58 992.536 1840.66 993.598 1840.68L993.579 1840.72Z" fill="black"/>
<path d="M1809.42 1923.94C1798.49 1918.67 1791.5 1908.16 1788.04 1896.86C1783.93 1883.36 1784.72 1868.66 1786.11 1854.82C1788.43 1831.7 1793.06 1808.81 1797.35 1786C1791.11 1787.52 1784.87 1789.13 1778.65 1790.75C1757.62 1796.33 1736.63 1802.07 1715.64 1807.86C1693.78 1813.91 1671.71 1818.95 1649.15 1821.29C1624.55 1823.83 1599.08 1824.94 1575.06 1818.04C1561.66 1814.18 1549.57 1808.25 1538.95 1799.15C1527.47 1789.32 1520.77 1775.37 1515.98 1761.37C1511.14 1747.25 1508.12 1732.4 1504.94 1717.83C1502.72 1707.71 1500.73 1697.53 1498.87 1687.36C1491.63 1647.59 1485.32 1607.7 1478.98 1567.8C1475.97 1548.81 1472.48 1529.94 1468.94 1511.05C1467.36 1502.61 1465.66 1494.17 1464.02 1485.73C1462.16 1476.24 1459.63 1465.97 1465.33 1457.26C1468.96 1451.73 1475.33 1447.93 1481.98 1447.62C1493.54 1447.08 1503.82 1455.77 1504.57 1467.48C1504.65 1468.63 1504.61 1469.77 1504.49 1470.91C1506.23 1481.61 1508.68 1492.22 1510.67 1502.88C1512.72 1513.87 1514.79 1524.84 1516.68 1535.85C1520.46 1558.02 1523.98 1580.24 1527.53 1602.43C1534.75 1647.43 1541.92 1692.57 1553.04 1736.8C1554.65 1742.54 1556.38 1748.2 1558.43 1753.78C1559.47 1756.14 1560.59 1758.42 1561.81 1760.68C1562.43 1761.68 1563.08 1762.65 1563.78 1763.59C1565.32 1765.52 1567 1767.32 1568.82 1768.98C1568.14 1768.3 1567.45 1767.61 1566.75 1766.93C1568.38 1768.42 1570.09 1769.79 1571.89 1771.07C1571.12 1770.49 1570.38 1769.93 1569.63 1769.35C1570.92 1770.27 1572.26 1771.14 1573.61 1771.95C1575.21 1772.8 1576.83 1773.6 1578.49 1774.31C1581.45 1775.41 1584.4 1776.4 1587.44 1777.31C1591.34 1778.21 1595.26 1778.95 1599.2 1779.56C1605.9 1780.3 1612.58 1780.63 1619.34 1780.69C1629.96 1780.45 1640.43 1779.39 1650.99 1778.29C1657.25 1777.32 1663.48 1776.42 1669.7 1775.16C1677.16 1773.65 1684.53 1771.95 1691.93 1770.18C1726.88 1760.79 1761.64 1750.67 1796.86 1742.36C1801.5 1741.28 1806.19 1740.16 1810.9 1739.6C1816.23 1738.98 1821.58 1739.74 1826.28 1741.86C1831.7 1741.5 1837.24 1743.12 1841.53 1746.92C1857.12 1760.68 1869.05 1777.63 1879.73 1795.31C1891.24 1814.33 1897.36 1837.12 1891.95 1859.08C1888.75 1872.16 1882.99 1884.04 1875.96 1895.43C1872.45 1901.13 1867.91 1906.64 1863.04 1911.23C1858.02 1916.01 1852.69 1919.71 1846.65 1923.04C1841.28 1925.99 1835.06 1926.98 1829.1 1927.75C1828.05 1927.88 1827.01 1927.94 1825.93 1927.94C1820.27 1927.94 1814.23 1926.24 1809.36 1923.89L1809.42 1923.94ZM1828.73 1884.52C1828.73 1884.52 1828.81 1884.48 1828.84 1884.46C1829.64 1883.92 1830.43 1883.38 1831.22 1882.84C1832.09 1882.13 1832.94 1881.37 1833.75 1880.58C1835 1879.25 1836.22 1877.86 1837.38 1876.41C1839.47 1873.53 1841.38 1870.58 1843.25 1867.56C1844.8 1864.53 1846.22 1861.52 1847.61 1858.43C1848.68 1855.47 1849.7 1852.52 1850.61 1849.5C1850.94 1848.04 1851.23 1846.59 1851.46 1845.12C1851.5 1844.52 1851.53 1843.94 1851.57 1843.34C1851.52 1841.49 1851.4 1839.65 1851.21 1837.8C1850.99 1836.47 1850.74 1835.15 1850.43 1833.82C1849.78 1831.5 1849.04 1829.24 1848.21 1826.96C1846.78 1823.8 1845.22 1820.74 1843.58 1817.69C1841.36 1814.06 1839.1 1810.47 1836.76 1806.93C1833.81 1823.02 1831.05 1839.11 1828.81 1855.34C1828.17 1861.46 1827.69 1867.56 1827.55 1873.71C1827.65 1876.29 1827.82 1878.84 1828.07 1881.41C1828.25 1882.42 1828.44 1883.4 1828.67 1884.37C1828.67 1884.43 1828.71 1884.46 1828.71 1884.52H1828.73Z" fill="black"/>
<path d="M1091.18 410.585C1079.38 409.831 1070.86 399.575 1071.29 387.986C1071.79 375.161 1073.41 362.355 1074.84 349.588C1076.11 338.077 1077.51 326.584 1078.9 315.092C1081.97 289.867 1085.65 264.738 1089.01 239.551C1089.27 237.465 1089.46 235.418 1089.59 233.332C1089.5 231.671 1089.56 229.991 1089.81 228.31C1089.85 228.059 1089.88 227.808 1089.92 227.557C1091.47 218.151 1100.12 210.965 1109.43 210.367C1119.72 209.71 1129.99 217.108 1131.67 227.518C1133.22 237.098 1130.78 247.374 1129.53 256.916C1128.7 263.27 1127.83 269.586 1126.96 275.921C1124.89 290.774 1122.91 305.628 1120.99 320.481C1121.11 319.592 1121.23 318.684 1121.34 317.796C1119.95 329.288 1118.54 340.761 1117.29 352.273C1115.88 365.04 1114.24 377.846 1113.73 390.69C1113.31 401.835 1103.3 410.604 1092.45 410.604C1092.03 410.604 1091.6 410.604 1091.16 410.565L1091.18 410.585Z" fill="black"/>
<path d="M1226.07 414.176C1214.31 413.423 1205.73 403.167 1206.19 391.597C1208.18 341.823 1210.19 292.029 1212.22 242.255C1212.7 230.666 1223.42 221.646 1234.81 222.38C1246.56 223.133 1255.15 233.389 1254.69 244.959C1252.64 294.733 1250.65 344.527 1248.66 394.301C1248.2 405.446 1238.25 414.215 1227.36 414.215C1226.93 414.215 1226.49 414.215 1226.07 414.176Z" fill="black"/>
<path d="M1092.18 577.91C1080.21 571.015 1069.51 561.319 1060.53 550.908C1053.71 543.008 1048.09 534.181 1042.49 525.432C1037.03 516.875 1031.78 508.203 1027.18 499.144C1024.01 492.925 1021.43 486.416 1019.26 479.771C1017.18 473.281 1015.36 465.71 1015.96 458.853C1016 458.467 1016.04 458.061 1016.08 457.675C1016.13 446.125 1027.66 437.182 1038.65 437.877C1044.25 438.225 1049.56 440.832 1053.25 445.043C1057.13 449.447 1058.52 454.72 1058.52 460.456C1058.52 460.63 1058.52 460.823 1058.5 461.036C1058.5 461.19 1058.5 461.345 1058.52 461.499C1058.68 462.427 1058.85 463.334 1059.06 464.242C1059.85 466.985 1060.72 469.67 1061.71 472.354C1064.08 477.898 1066.77 483.267 1069.7 488.54C1075.79 498.854 1082.16 509.149 1089.27 518.807C1092.16 522.418 1095.16 525.876 1098.38 529.198C1101.32 531.902 1104.31 534.471 1107.46 536.924C1110.51 539.087 1113.62 541.135 1116.82 543.047C1120.57 544.998 1124.35 546.775 1128.24 548.397C1132.87 550.135 1137.52 551.68 1142.29 553.052C1146.48 554.056 1150.68 554.887 1154.94 555.563C1158.03 555.891 1161.1 556.123 1164.21 556.277C1168 556.2 1171.74 555.949 1175.51 555.543C1179.31 554.945 1183.04 554.23 1186.77 553.342C1189.76 552.453 1192.68 551.487 1195.63 550.444C1201.31 548.03 1206.79 545.307 1212.18 542.313C1219.85 537.697 1227.17 532.694 1234.31 527.305C1243.47 520.12 1252.06 512.394 1260.58 504.494C1266.12 498.7 1271.56 492.944 1276.53 486.647C1279.94 481.915 1283.11 477.067 1286.05 472.026C1288.83 466.85 1291.3 461.557 1293.79 456.226C1297.59 446.511 1300.86 436.796 1303.58 426.694C1304.86 421.672 1306.09 416.65 1307.19 411.59C1309.66 400.271 1320.56 392.507 1332.12 394.747C1343.3 396.91 1351.45 408.364 1348.96 419.683C1343.77 443.479 1336.87 466.772 1325.52 488.424C1310.03 517.957 1285.49 541.753 1259.18 561.782C1235.76 579.629 1209.5 594.386 1179.82 597.862C1175.07 598.422 1170.31 598.693 1165.56 598.693C1139.84 598.693 1114.49 590.812 1092.2 577.949L1092.18 577.91Z" fill="black"/>
</g>
<defs>
<clipPath id="clip0_157_198">
<rect width="1788" height="1855" fill="white" transform="translate(106 73)"/>
</clipPath>
</defs>
</svg>
