<svg width="2000" height="2000" viewBox="0 0 2000 2000" fill="none" xmlns="http://www.w3.org/2000/svg">
<g clip-path="url(#clip0_157_199)">
<path d="M1073.51 699.35C1061.62 699.159 1049.81 698.242 1037.94 697.401C1032.68 697.038 1027.48 696.293 1022.26 695.681C1016.91 695.05 1011.54 694.592 1006.24 693.732C999.168 692.547 992.095 691.362 985.022 690.177C979.956 689.317 974.986 688.094 969.977 686.928C963.592 685.456 957.169 684.061 950.841 682.322C934.802 677.907 919.146 672.078 904.043 665.103C888.769 658.05 873.896 649.508 859.501 640.755C832.432 624.3 807.389 605.035 785.825 581.738C764.223 558.403 746.961 530.883 735.912 501.05C724.996 471.618 720.045 439.644 720.828 408.34C721.574 378.086 728.207 348.368 737.192 319.586C746.751 288.97 760.897 259.825 777.529 232.476C785.653 219.117 794.715 206.331 804.235 193.947C808.173 188.825 812.474 184.009 816.661 179.117C830.884 162.413 845.718 146.398 862.617 132.332C876.859 120.464 892.554 110.793 908.173 100.855C917.674 94.816 927.595 89.4074 937.345 83.7696C943.825 80.0237 950.784 76.8894 957.589 73.7934C964.796 70.5444 972.061 67.563 979.478 64.8492C992.86 59.9375 1006.62 56.0197 1020.6 53.2867C1027.61 51.9107 1034.71 50.9934 1041.8 50.4009C1048.28 49.8849 1055.1 49.7511 1061.55 50.6876C1065.48 51.2609 1069.38 51.9681 1073.23 52.9236C1076.3 51.9681 1079.55 51.7578 1082.88 52.1018C1104.73 54.2805 1126.43 57.1664 1148.05 60.9504C1170.24 64.8301 1192.13 71.4044 1212.82 80.3677C1233.25 89.2163 1252.6 100.549 1270 114.482C1279.46 122.031 1288.39 130.096 1297.16 138.409C1304.98 145.825 1312.64 153.393 1319.79 161.458C1329.35 172.217 1338.93 183.035 1347.9 194.31C1357.51 206.427 1366.78 218.697 1375.71 231.348C1383.8 242.758 1391.23 254.703 1398.31 266.762C1405.72 279.337 1413.01 292.085 1419.07 305.386C1418.69 304.565 1418.3 303.724 1417.94 302.883C1418.59 304.335 1419.28 305.807 1419.93 307.259C1419.74 306.82 1419.53 306.38 1419.34 305.941C1420.31 308.1 1421.3 310.279 1422.3 312.438C1422.57 313.05 1422.85 313.662 1423.14 314.273C1423.04 314.082 1422.97 313.872 1422.87 313.681C1422.72 313.337 1422.55 312.993 1422.39 312.63C1422.55 312.974 1422.7 313.318 1422.85 313.642C1422.85 313.623 1422.83 313.604 1422.81 313.585C1422.83 313.642 1422.87 313.7 1422.89 313.757C1423.04 314.101 1423.2 314.445 1423.35 314.789C1423.54 315.229 1423.75 315.649 1423.94 316.089C1423.79 315.745 1423.62 315.401 1423.46 315.038C1432.56 335.372 1437.92 357.178 1441.86 379.042C1445.87 401.402 1447.27 424.68 1444.34 447.289C1442.49 461.737 1440.12 475.918 1436.12 489.965C1431.57 505.961 1424.31 520.945 1416.49 535.546C1408.82 549.899 1399.68 563.582 1389.61 576.311C1380.82 587.414 1370.78 597.524 1359.94 606.641C1353.02 612.47 1345.72 617.649 1338.32 622.847C1329.45 629.077 1320.06 634.696 1310.58 639.933C1300.26 645.647 1289.84 651.342 1278.96 655.91C1257.42 664.931 1235.7 673.301 1213.28 679.914C1202.42 683.106 1191.48 686.412 1180.4 688.629C1168.1 691.094 1155.91 693.388 1143.52 695.28C1123.68 698.318 1103.6 699.389 1083.53 699.389C1080.19 699.389 1076.84 699.35 1073.49 699.312L1073.51 699.35ZM1074.51 657.267C1079.99 657.343 1085.54 657.649 1091.06 657.439C1097.45 657.171 1103.85 656.923 1110.26 656.655C1117.65 655.91 1125.07 655.203 1132.47 654.458C1138.91 653.846 1145.35 652.565 1151.74 651.533C1161.13 649.641 1170.47 647.788 1179.78 645.494C1189.55 643.086 1199.17 640.296 1208.84 637.448C1218.06 634.333 1227.23 631.256 1236.33 627.797C1245.37 624.376 1254.28 620.688 1263.19 616.961C1271.3 613.062 1279.32 609.182 1287.18 604.825C1295.11 600.429 1302.82 595.747 1310.52 590.988C1317.9 585.79 1325.28 580.706 1332.32 575.03C1337.97 570.176 1343.33 565.092 1348.47 559.703C1354.42 553.052 1359.94 546.115 1365.14 538.871C1369.23 532.832 1373.02 526.602 1376.84 520.39C1379.52 516.052 1381.79 511.427 1384.14 506.898C1387.49 499.597 1390.78 492.373 1393.57 484.862C1395.34 479.454 1396.89 474.007 1398.27 468.484C1399.15 463.973 1400.01 459.463 1400.89 454.972C1401.79 450.309 1402.19 445.493 1402.76 440.753C1403.05 436.663 1403.33 432.573 1403.62 428.483C1403.93 424.241 1403.72 419.921 1403.68 415.66C1403.39 411.474 1403.11 407.27 1402.8 403.084C1402.49 398.593 1401.65 394.064 1401.02 389.591C1399.93 383.629 1398.84 377.685 1397.52 371.741C1396.2 365.836 1394.64 360.026 1393.05 354.178C1390.49 346.514 1387.74 339.022 1384.77 331.493C1384.56 331.053 1384.37 330.594 1384.16 330.155C1384.24 330.327 1384.31 330.48 1384.39 330.652C1384.16 330.174 1383.95 329.677 1383.72 329.199C1383.78 329.333 1383.84 329.467 1383.89 329.601C1382.96 327.556 1382.02 325.492 1381.08 323.466C1381.2 323.733 1381.33 324.001 1381.45 324.288C1380.95 323.198 1380.47 322.128 1379.97 321.058C1375.86 312.228 1370.91 303.743 1366.19 295.238C1361.45 286.676 1356.17 278.42 1350.97 270.126C1345.07 261.296 1339.06 252.562 1332.93 243.886C1326.73 235.113 1319.87 226.743 1313.18 218.353C1304.33 207.86 1295.4 197.464 1286.3 187.201C1277.11 176.842 1266.75 167.44 1256.54 158.075C1249.62 152.189 1242.62 146.551 1235.34 141.142C1226.91 135.39 1218.3 130.096 1209.32 125.203C1200.85 121.132 1192.3 117.501 1183.55 114.099C1178.41 112.303 1173.28 110.583 1168.08 108.939C1162.33 107.124 1156.44 105.786 1150.55 104.429C1131.09 100.607 1111.52 97.7209 1091.85 95.4658C1088.44 97.6063 1084.43 98.8294 1080.17 98.8294C1075.14 98.8294 1070.49 96.4405 1065.89 94.6249C1064.87 94.3 1063.86 94.0133 1062.83 93.7649C1060.53 93.2871 1058.24 92.8666 1055.93 92.5035C1053.33 92.3506 1050.75 92.2742 1048.13 92.2933C1042.72 92.6182 1037.36 93.2297 1031.99 94.0515C1023.71 95.5804 1015.57 97.568 1007.5 99.9379C996.224 103.493 985.213 107.621 974.431 112.418C965.771 116.488 957.379 120.903 949.102 125.7C943.462 128.968 937.804 132.236 932.164 135.504C917.349 144.888 902.476 154.138 888.884 165.261C878.503 174.205 868.83 183.818 859.52 193.833C854.913 199.279 850.268 204.688 845.642 210.116C838.569 218.41 831.992 227.01 825.684 235.897C815.724 250.422 806.682 265.482 798.557 281.096C791.847 294.55 785.845 308.272 780.683 322.396C775.655 336.958 771.488 351.789 768.123 366.811C766.173 376.538 764.701 386.285 763.707 396.147C763.019 405.225 762.694 414.303 762.943 423.419C763.421 431.962 764.357 440.447 765.657 448.914C767.34 458.316 769.5 467.547 772.157 476.74C774.585 484.423 777.357 491.914 780.568 499.311C784.2 506.974 788.215 514.389 792.612 521.652C797.965 529.946 803.738 537.897 809.97 545.579C817.043 553.816 824.518 561.614 832.451 569.029C841.914 577.438 851.816 585.159 862.14 592.479C878.37 603.545 895.441 613.54 912.837 622.637C922.893 627.682 933.158 632.154 943.73 636.072C953.116 639.321 962.56 642.169 972.233 644.405C977.796 645.685 983.359 646.966 988.903 648.246C997.371 649.661 1005.84 651.075 1014.33 652.489C1022.76 653.903 1031.38 654.534 1039.89 655.509C1051.45 656.311 1062.94 657.171 1074.53 657.382L1074.51 657.267Z" fill="black"/>
<path d="M1036.06 399.567C1034.48 386.055 1033.88 372.448 1033.6 358.879C1033.31 345.615 1033.14 332.371 1033.25 319.108C1033.37 305.233 1033.58 291.339 1033.88 277.483C1034.06 270.221 1034.25 262.977 1034.46 255.715C1034.69 248.414 1034.59 240.808 1035.85 233.603C1037.77 222.843 1048.43 213.498 1059.86 215.963C1065.47 217.186 1070.3 219.69 1073.74 224.449C1076.97 228.883 1078.33 234.52 1077.51 239.948C1077.45 240.349 1077.38 240.751 1077.28 241.152C1075.77 262.844 1075.83 284.688 1075.46 306.418C1075.14 327.154 1075.31 347.89 1075.96 368.626C1076.38 377.493 1076.9 386.323 1077.93 395.152C1079.29 406.543 1070.49 417.112 1059.2 418.296C1058.47 418.373 1057.74 418.411 1057.03 418.411C1046.43 418.411 1037.31 410.25 1036.04 399.567H1036.06Z" fill="black"/>
<path d="M1141.24 401.154C1129.81 400.868 1120.35 391.064 1120.67 379.616C1121.34 355.058 1122.45 330.499 1123.68 305.96C1124.36 291.99 1125.36 278.057 1126.58 264.106C1127.31 256.06 1128.28 247.899 1129.83 239.987C1130.92 234.445 1132.72 228.54 1137.13 224.698C1141.47 220.933 1146.39 218.869 1152.18 218.869C1163.67 218.869 1173 229.132 1172.75 240.408C1172.69 242.911 1172.19 245.3 1171.33 247.479C1171.28 247.708 1171.2 247.938 1171.14 248.148C1169.14 259.08 1168.26 270.241 1167.28 281.306C1165.18 314.35 1163.73 347.47 1162.81 380.571C1162.5 391.885 1153.04 401.154 1141.74 401.154C1141.59 401.154 1141.44 401.154 1141.26 401.154H1141.24Z" fill="black"/>
<path d="M1050.1 541.47C1027.92 532.068 1008.94 515.479 996.09 495.221C990.145 485.837 985.978 475.784 982.365 465.311C978.58 454.341 975.922 442.683 975.521 431.063C975.234 422.693 975.521 412.678 981.543 406.104C984.793 402.549 988.386 399.854 993.166 398.727C996.874 397.848 1000.37 398.192 1004.02 399.013C1015.23 401.555 1021.48 414.494 1018.46 425.043C1018.21 425.941 1017.88 426.821 1017.5 427.681C1017.48 429.133 1017.5 430.586 1017.64 432.038C1017.6 431.14 1017.58 430.242 1017.54 429.343C1017.77 432 1018.07 434.599 1018.46 437.236C1019.24 441.097 1020.18 444.919 1021.25 448.722C1023.01 454.169 1025 459.501 1027.25 464.757C1028.51 467.299 1029.85 469.745 1031.28 472.191C1033.31 475.326 1035.45 478.345 1037.75 481.288C1039.98 483.811 1042.3 486.2 1044.74 488.512C1047.65 490.997 1050.65 493.329 1053.75 495.565C1056.46 497.304 1059.18 498.947 1062.01 500.514C1065.64 502.292 1069.31 503.897 1073.07 505.369C1076.99 506.687 1080.93 507.872 1084.93 508.885C1089.72 509.822 1094.5 510.529 1099.36 511.007C1103.7 511.274 1108.02 511.389 1112.36 511.312C1117 511.026 1121.59 510.567 1126.2 509.898C1130.84 509.038 1135.39 508.006 1139.94 506.745C1143.71 505.503 1147.4 504.107 1151.05 502.579C1154.64 500.839 1158.12 498.966 1161.57 496.941C1164.81 494.781 1167.93 492.488 1170.99 490.06C1174.81 486.697 1178.45 483.219 1181.96 479.53C1185.82 475.077 1189.48 470.471 1192.92 465.674C1197.41 458.871 1201.52 451.914 1205.34 444.728C1211.08 432.879 1216.35 420.972 1220.94 408.646C1221.78 406.238 1222.62 403.81 1223.45 401.383C1227.08 390.49 1238.13 383.705 1249.5 386.935C1260.17 389.993 1267.55 402.109 1263.94 412.984C1257.15 433.338 1248.78 452.946 1238.55 471.809C1226.81 493.481 1210.85 512.688 1191.23 527.634C1171.72 542.541 1147.38 549.975 1123.27 552.708C1118.25 553.281 1113.2 553.568 1108.15 553.568C1088.25 553.568 1068.41 549.23 1050.11 541.49L1050.1 541.47Z" fill="black"/>
<path d="M700.603 1171.69C683.436 1156.54 666.843 1140.73 650.269 1124.93C634.86 1110.23 619.204 1095.55 604.752 1079.9C596.818 1071.32 588.655 1062.91 581.219 1053.89C576.44 1048.14 571.718 1042.36 566.939 1036.61C563.976 1033.02 561.395 1029.16 558.699 1025.36C555.392 1020.69 552.066 1016.03 548.759 1011.37C544.687 1005.61 541.284 999.249 537.614 993.248C530.827 982.182 524.92 970.582 519.567 958.752C517.159 953.439 514.845 947.266 514.979 941.36C515.113 935.569 516.604 930.581 519.911 925.842C523.849 920.166 528.896 915.158 533.618 910.113C540.653 902.583 547.975 895.302 555.277 888.02C570.38 872.979 585.539 857.958 600.966 843.223C609.875 834.68 618.802 826.214 627.883 817.862C636.868 809.606 646.044 801.617 655.22 793.609C672.616 778.454 690.528 763.853 708.345 749.175C712.36 745.869 716.393 742.563 720.408 739.237C741.513 721.54 762.713 703.919 783.053 685.324C794.199 675.118 805.363 664.894 816.565 654.745C822.186 649.643 827.749 644.54 833.522 639.647C841.608 632.786 850.172 623.899 861.203 622.734C872.596 621.51 883.168 630.072 884.353 641.463C885.347 650.98 879.612 659.848 871.048 663.25C869.958 664.014 868.907 664.798 867.855 665.62C856.232 675.52 844.934 685.744 833.675 696.045C820.159 708.41 806.567 720.661 792.803 732.778C767.225 755.291 740.825 776.81 714.539 798.483C700.374 810.37 686.265 822.315 672.329 834.47C658.584 846.453 645.336 858.99 632.146 871.603C619.319 883.892 606.663 896.391 594.008 908.871C582.595 920.108 571.259 931.384 560.305 943.061C559.942 943.463 559.56 943.883 559.196 944.284C559.368 944.667 559.54 945.068 559.712 945.45C561.509 949.177 563.44 952.865 565.333 956.535C567.053 959.822 568.583 963.3 570.533 966.473C574.757 973.334 578.944 980.214 583.169 987.075C588.521 994.624 593.912 1002.17 599.284 1009.72C601.903 1013.41 605.115 1016.77 607.963 1020.27C610.735 1023.62 613.507 1026.96 616.279 1030.32C623.773 1038.43 631.133 1046.68 638.875 1054.58C648.032 1063.9 657.246 1073.13 666.594 1082.27C682.844 1098.19 699.456 1113.78 716.202 1129.19C719.72 1132.38 723.237 1135.55 726.793 1138.71C731.094 1142.49 734.019 1147.19 734.631 1152.96C735.204 1158.43 733.598 1163.99 730.177 1168.29C726.143 1173.34 719.624 1176.24 713.182 1176.24C708.632 1176.24 704.14 1174.79 700.584 1171.65L700.603 1171.69Z" fill="black"/>
<path d="M707.236 1157.36C649.217 1155.91 591.293 1136.89 543.712 1103.71C538.034 1099.76 532.337 1095.8 526.66 1091.84C522.339 1088.84 518.248 1085.44 514.1 1082.21C505.421 1075.45 497.105 1068.32 488.751 1061.15C479.919 1053.56 471.661 1045.17 463.555 1036.82C456.023 1029.04 448.625 1021.07 441.915 1012.57C434.957 1003.74 427.941 994.929 421.709 985.564C414.884 975.34 408.25 965.02 401.923 954.47C396.36 945.182 391.084 935.76 385.979 926.204C383.705 921.923 381.43 917.623 379.327 913.266C377.74 909.959 376.173 906.672 374.662 903.309C371.833 896.983 370.304 890.275 369.443 883.414C368.66 877.202 369.577 870.437 370.935 864.379C372.292 858.358 374.299 852.3 377.377 846.911C384.488 834.316 395.251 824.588 406.625 815.912C424.461 802.285 444.821 792.921 465.199 783.843C485.234 774.937 506.568 768.477 527.768 762.897C543.1 758.864 558.432 755.443 574.088 752.825C589.649 750.226 605.229 747.703 620.867 745.467C651.014 741.167 681.314 737.23 711.805 738.224C719.07 738.472 725.493 742.409 729.163 748.219C733.121 744.244 738.664 741.817 744.648 741.817C755.009 741.817 765.351 741.95 775.732 742.466C781.562 742.753 787.336 743.193 793.147 743.69C805.955 744.798 818.534 747.531 830.865 751.181C858.526 759.323 884.965 772.835 908.402 789.538C927.71 803.317 945.355 819.103 962.005 835.96C966.039 840.031 970.054 844.082 974.087 848.153C978.733 852.816 982.976 857.976 987.373 862.85C990.508 866.309 993.491 869.806 996.473 873.399C1000.49 878.234 1004.73 882.955 1008.55 887.962C1022.72 906.424 1036.68 925.115 1048.76 945.048C1053.31 952.54 1057.65 959.898 1061.09 967.982C1063.38 973.371 1064.49 979.143 1065.33 984.896C1066.34 991.757 1065.04 998.77 1063.48 1005.44C1061.93 1011.96 1058.28 1018.25 1054.74 1023.81C1051.22 1029.33 1046.86 1034.49 1042.28 1039.13C1030.88 1050.64 1017.81 1060.67 1003.87 1068.93C984.754 1080.24 965.141 1090.87 944.494 1099.2C901.099 1116.73 856.405 1130.7 811.308 1143.23C801.004 1146.12 790.605 1148.55 780.129 1150.63C771.966 1152.25 763.879 1153.76 755.64 1154.93C742.736 1156.78 729.641 1157.49 716.585 1157.49C713.488 1157.49 710.391 1157.45 707.294 1157.38L707.236 1157.36ZM726.181 1115.25C737.575 1114.68 748.835 1113.46 760.075 1111.68C766.441 1110.4 772.788 1109.12 779.154 1107.88C785.462 1106.62 791.713 1104.76 797.965 1103.21C810.371 1100.16 822.644 1096.26 834.917 1092.65C834.439 1092.8 833.942 1092.95 833.464 1093.09C852.677 1087.14 871.774 1081.01 890.795 1074.53C908.67 1068.43 926.085 1061.26 943.328 1053.66C950.077 1050.37 956.806 1047.08 963.401 1043.53C970.149 1039.9 976.706 1036.02 983.301 1032.12C990.069 1027.72 996.626 1023.12 1002.97 1018.11C1006.3 1015.24 1009.51 1012.28 1012.63 1009.17C1014.98 1006.51 1017.2 1003.82 1019.32 1000.97C1019.99 999.936 1020.62 998.885 1021.21 997.815C1021.67 996.821 1022.13 995.827 1022.59 994.833C1022.43 995.254 1022.28 995.655 1022.15 996.076C1021.99 996.515 1021.82 996.955 1021.67 997.394C1022.24 995.98 1022.74 994.547 1023.12 993.094C1023.2 992.54 1023.29 991.967 1023.37 991.413C1023.39 990.839 1023.43 990.266 1023.45 989.693C1023.41 989.253 1023.37 988.813 1023.31 988.374C1023.14 987.456 1022.93 986.558 1022.68 985.66C1022.22 984.303 1021.69 982.965 1021.13 981.647C1018.46 976.219 1015.34 971.078 1012.21 965.937C1004.14 953.457 995.746 941.283 987.106 929.205C978.943 917.795 969.843 907.112 960.878 896.333C954.97 889.797 949.293 882.974 943.08 876.725C934.248 867.799 925.531 858.798 916.355 850.236C905.649 840.527 894.485 831.373 882.728 822.926C873.82 816.886 864.644 811.344 855.143 806.318C846.196 801.884 837.077 797.928 827.691 794.469C820.58 792.042 813.43 789.939 806.127 788.2C801.119 787.168 796.091 786.365 791.025 785.716C775.254 784.435 759.483 783.957 743.654 783.957C736.389 783.957 729.985 779.848 726.315 773.962C722.358 778.033 716.814 780.556 710.811 780.345C704.292 780.135 697.793 780.116 691.274 780.288C672.693 781.167 654.207 783.403 635.759 785.888C616.489 788.487 597.277 791.583 578.103 794.794C578.982 794.641 579.881 794.507 580.76 794.354C570.972 796.151 561.012 797.718 551.397 800.26C541.227 802.935 531.114 805.706 521.001 808.554C511.634 811.516 502.381 814.536 493.186 818.014C484.335 821.397 475.733 825.219 467.073 829.08C458.661 833.189 450.46 837.565 442.45 842.4C436.964 845.936 431.688 849.701 426.564 853.753C423.697 856.275 420.944 858.874 418.306 861.646C417.293 862.811 416.337 864.015 415.4 865.239C415.935 864.474 416.471 863.71 417.006 862.945C415.993 864.283 415.094 865.678 414.272 867.131C413.775 868.201 413.316 869.271 412.896 870.38C412.533 871.469 412.227 872.577 411.94 873.705C411.539 875.903 411.271 878.139 411.156 880.394C411.233 879.496 411.309 878.617 411.386 877.718C411.386 878.406 411.386 879.094 411.405 879.782C411.462 880.298 411.519 880.795 411.596 881.311C411.73 881.961 411.902 882.63 412.074 883.28C412.858 885.459 413.699 887.58 414.616 889.701C424.653 910.38 436.18 930.16 448.3 949.692C452.792 956.439 457.304 963.089 462.026 969.683C466.767 976.257 471.795 982.564 476.803 988.928C482.882 995.808 488.961 1002.61 495.346 1009.22C501.846 1015.91 508.632 1022.28 515.419 1028.68C524.652 1036.57 533.886 1044.33 543.482 1051.79C552.238 1058.59 561.318 1064.84 570.38 1071.15C579.02 1076.67 587.795 1081.85 596.837 1086.65C607.122 1091.82 617.636 1096.39 628.437 1100.37C638.913 1103.96 649.485 1106.94 660.267 1109.41C671.431 1111.68 682.633 1113.38 693.95 1114.49C704.675 1115.31 715.38 1115.6 726.143 1115.31L726.181 1115.25Z" fill="black"/>
<path d="M836.561 1101.95C830.444 1091.67 826.238 1080.18 822.931 1068.74C819.853 1058.13 817.215 1047.45 815.036 1036.61C810.371 1013.41 808.154 989.883 807.599 966.242C807.064 944.035 808.441 921.655 811.92 899.696C815.896 874.679 820.389 849.739 826.812 825.219C829.565 814.707 832.891 804.081 838.664 794.831C842.946 788.009 849.006 781.874 857.074 779.963C866.842 777.65 877.433 782.16 881.983 791.238C887.106 801.482 883.741 814.191 873.418 819.753C873.189 819.867 872.96 820.001 872.73 820.116C872.252 821.224 871.793 822.333 871.373 823.46C867.072 836.322 864.166 849.528 861.222 862.773C858.947 874.641 856.691 886.509 854.78 898.454C852.944 910.016 851.664 921.579 850.402 933.218C850.077 940.805 849.79 948.392 849.465 955.998C849.197 962.592 849.675 969.3 849.905 975.932C850.478 983.615 850.918 991.297 851.855 998.961C852.811 1006.97 853.958 1014.9 855.219 1022.87C857.647 1034.83 860.381 1046.66 863.764 1058.42C865.714 1064.34 867.817 1070.15 870.302 1075.87C871.373 1077.97 872.463 1079.97 873.686 1082.04C879.555 1091.9 874.871 1105.3 865.122 1110.55C861.967 1112.25 858.66 1113.04 855.391 1113.04C847.878 1113.04 840.671 1108.85 836.6 1101.97L836.561 1101.95Z" fill="black"/>
<path d="M455.545 1011.73C444.572 1011.48 434.02 1001.66 434.956 990.19C435.415 984.591 436.046 979.048 436.887 973.487C437.69 968.193 439.239 962.956 440.73 957.815C443.483 948.317 446.579 938.933 449.734 929.55C456.291 909.96 463.574 890.295 473.133 871.928C477.281 863.959 481.276 855.932 485.788 848.154C491.255 838.732 496.723 829.405 502.572 820.213C508.307 811.192 514.31 802.382 520.408 793.571C526.182 785.181 532.414 777.155 539.582 769.911C545.547 763.872 553.48 759.381 562.121 759.381C573.591 759.381 582.958 769.644 582.691 780.92C582.5 789.768 576.803 797.03 569.041 800.012C568.43 800.585 567.837 801.178 567.244 801.77C563.077 806.548 559.254 811.555 555.526 816.696C555.66 816.505 555.794 816.295 555.927 816.104C552.314 821.264 548.586 826.347 545.203 831.641C540.825 838.521 536.447 845.402 532.07 852.282C527.654 859.219 523.773 866.577 519.663 873.706C516.375 879.382 513.488 885.345 510.487 891.193C506.969 898.818 503.356 906.406 500.24 914.203C497.201 921.79 494.371 929.416 491.58 937.099C486.839 951.146 481.965 965.231 478.543 979.66C478.065 982.909 477.606 986.139 477.224 989.388C477.185 989.98 477.128 990.572 477.09 991.146C476.631 996.803 474.777 1001.89 470.571 1005.88C466.671 1009.61 461.414 1011.71 456.042 1011.71C455.889 1011.71 455.717 1011.71 455.564 1011.71L455.545 1011.73Z" fill="black"/>
<path d="M1043.27 1311.8C1037.86 1310.23 1033.2 1306.48 1030.54 1301.52C1027.84 1296.51 1027.63 1291.2 1028.84 1285.75C1033.88 1263.16 1039.52 1240.68 1045.22 1218.25C1050.71 1196.65 1056.12 1175.02 1061.95 1153.54C1068.5 1129.28 1075.27 1105.09 1082.19 1080.91C1084.77 1071.95 1087.55 1063.02 1090.28 1054.08C1093.61 1043.17 1096.76 1032.2 1100.28 1021.34C1106.59 1001.85 1112.66 982.24 1119.34 962.88C1126.37 942.43 1133.2 921.866 1140.59 901.551C1140.86 900.825 1141.11 900.079 1141.38 899.353C1141.17 899.984 1140.94 900.614 1140.71 901.245C1140.71 901.188 1140.75 901.149 1140.77 901.092C1140.73 901.169 1140.71 901.264 1140.67 901.341C1140.61 901.532 1140.54 901.723 1140.48 901.914C1140.65 901.455 1140.8 900.997 1140.98 900.519C1141.03 900.347 1141.11 900.156 1141.17 899.984C1141.13 900.098 1141.07 900.213 1141.03 900.347C1147.88 881.178 1154.76 862.047 1161.62 842.898C1161.83 842.324 1162.02 841.77 1162.23 841.216L1162.39 840.795C1162.43 840.681 1162.48 840.547 1162.52 840.432C1162.48 840.528 1162.46 840.604 1162.43 840.7L1162.73 839.821C1173.99 807.847 1184.6 775.683 1195.08 743.442C1199.49 729.834 1203.79 716.15 1207.81 702.447C1210.24 694.172 1212.66 685.878 1215.07 677.603C1217.27 670.073 1219.18 662.371 1221.92 655.013C1225.91 644.234 1239.52 639.685 1249.62 644.062C1254.8 646.298 1258.95 650.636 1260.93 655.911C1262.83 660.88 1262.54 665.906 1260.9 670.818C1261.07 670.321 1261.26 669.805 1261.43 669.308C1256.75 684.349 1252.52 699.523 1248.11 714.641C1244.03 728.573 1239.64 742.429 1235.16 756.246C1224.44 789.271 1213.83 822.391 1201.92 855.014C1201.83 855.263 1201.73 855.53 1201.65 855.779C1194.62 875.483 1187.53 895.168 1180.45 914.872C1165.75 956.898 1151.07 998.981 1138.07 1041.58C1130.67 1065.83 1123.35 1090.09 1116.37 1114.47C1110.41 1135.3 1104.69 1156.25 1099.21 1177.23C1088.77 1217.14 1078.25 1257.08 1069.29 1297.35C1067.2 1306.66 1057.88 1312.54 1048.74 1312.54C1046.86 1312.54 1045.01 1312.29 1043.23 1311.8H1043.27Z" fill="black"/>
<path d="M798.404 768.037C787.794 763.45 783.015 750.913 787.469 740.364C795.651 720.87 804.98 701.854 814.195 682.857C823.179 664.338 832.853 646.125 840.652 627.09C840.652 627.052 840.671 627.014 840.69 626.975C842.602 616.158 853.824 608.781 864.51 610.406C876.152 612.164 883.493 623 882.155 634.391C881.505 639.818 878.809 645.322 876.592 650.311C874.298 655.432 871.927 660.516 869.538 665.581C864.72 675.824 859.501 685.915 854.512 696.083C844.648 716.188 834.764 736.389 826.085 757.067C822.759 764.96 814.768 769.681 806.586 769.7C803.814 769.7 801.023 769.165 798.366 768.018L798.404 768.037Z" fill="black"/>
<path d="M1011.59 1473.4C1001.73 1473.35 991.828 1472.96 981.963 1472.6C937.326 1470.96 892.784 1467.82 848.203 1464.98C803.681 1462.11 759.119 1460.39 714.596 1457.87C690.739 1456.51 666.957 1454.81 643.138 1452.78C632.184 1451.87 621.23 1450.81 610.276 1449.71C605.382 1449.21 600.489 1448.75 595.614 1448.1C586.82 1446.9 577.873 1445.98 569.271 1443.72C558.317 1440.84 546.445 1436.63 540.73 1425.97C535.549 1416.34 536.619 1404.18 538.569 1393.82C540.653 1382.83 543.043 1371.9 545.547 1360.99C550.67 1338.53 556.042 1316.15 561.949 1293.91C567.531 1272.91 573.591 1251.98 580.722 1231.45C585.023 1219.03 589.496 1206.72 594.199 1194.43C598.214 1184 603.031 1173.85 607.772 1163.7C610.238 1158.41 612.876 1153.21 615.533 1148.03C618.802 1141.67 622.626 1134.65 627.864 1129.65C631.878 1125.8 636.696 1123.24 642.24 1122.65C645.26 1122.35 647.975 1122.88 650.899 1123.53C662.121 1126.01 668.334 1139.05 665.333 1149.58C663.918 1154.55 660.649 1158.87 656.29 1161.6C654.36 1164.81 652.563 1168.08 650.804 1171.4C645.757 1181.63 640.997 1191.97 636.485 1202.42C632.968 1210.58 629.871 1218.9 626.717 1227.21C618.133 1251.86 610.085 1276.67 603.413 1301.9C596.302 1328.69 589.783 1355.62 583.8 1382.7C582.347 1389.41 580.798 1396.14 579.728 1402.92C580.014 1403 580.301 1403.07 580.569 1403.15C601.75 1407.51 623.62 1408.83 645.126 1410.78C690.643 1414.58 736.217 1416.89 781.83 1419.07C825.837 1421.17 869.805 1424.23 913.793 1427.02C932.145 1428.17 950.497 1429.16 968.849 1429.94C983.779 1430.58 998.748 1431.28 1013.7 1431.32C1014.4 1426.5 1014.84 1421.67 1015.28 1416.8C1015.21 1417.69 1015.11 1418.59 1015.04 1419.47C1016.26 1399.84 1017.06 1380.24 1018.71 1360.65C1018.71 1360.68 1018.71 1360.74 1018.71 1360.78C1020.75 1337.01 1024.71 1313.36 1028.89 1289.91C1033.37 1264.92 1038.78 1240.19 1045.05 1215.57C1047.88 1204.45 1060.32 1198.06 1071.1 1201.14C1082.36 1204.37 1088.35 1216.09 1085.54 1227.19C1082.69 1238.37 1079.94 1249.57 1077.43 1260.81C1070.19 1294.83 1064.3 1329.28 1060.63 1363.88C1060.4 1366.51 1060.17 1369.15 1059.94 1371.79C1058.12 1394.26 1058.56 1417.03 1055.14 1439.33C1054.32 1444.62 1052.85 1449.82 1050.61 1454.69C1048.05 1460.26 1043.94 1464.56 1038.97 1467.98C1031.9 1472.87 1023.22 1473.4 1014.84 1473.4C1013.74 1473.4 1012.65 1473.4 1011.56 1473.4H1011.59Z" fill="black"/>
<path d="M1509.11 886.262C1503.41 885.593 1497.81 884.312 1492.46 882.229C1486.63 879.955 1481.62 876.935 1476.55 873.323C1467.95 867.188 1459.96 859.964 1451.87 853.161C1434.95 838.884 1418.34 824.302 1401.96 809.414C1370.03 780.422 1339.22 750.207 1307.5 720.986C1301.31 715.596 1295.1 710.245 1288.9 704.875C1283.38 700.097 1277.36 695.835 1271.62 691.344C1271.62 691.344 1271.64 691.344 1271.66 691.363C1265.96 687.368 1260.28 683.279 1254.26 679.8C1245.43 676.226 1239.83 666.824 1241.24 657.077C1242.75 646.757 1252.16 638.921 1262.54 639.207C1268.33 639.36 1273.34 641.96 1278.1 644.998C1281.66 647.273 1285.14 649.585 1288.62 651.993C1296.17 657.23 1303.41 662.753 1310.68 668.41C1323.94 678.749 1336.25 690.369 1348.62 701.759C1372.88 724.12 1396.55 747.111 1420.64 769.624C1433.98 781.684 1447.27 793.762 1460.86 805.516C1467.61 811.345 1474.37 817.097 1481.18 822.831C1488.52 829.042 1495.9 835.33 1503.66 841.006C1504.23 841.369 1504.83 841.713 1505.42 842.076C1506.13 842.401 1506.83 842.707 1507.54 842.993C1508.84 843.433 1510.16 843.796 1511.48 844.121C1512.26 844.255 1513.03 844.388 1513.81 844.484C1514.48 844.522 1515.15 844.541 1515.82 844.541C1515.95 844.541 1516.09 844.503 1516.2 844.484C1516.41 844.427 1516.64 844.369 1516.85 844.312C1517.4 844.102 1517.94 843.872 1518.49 843.662C1519.07 843.356 1519.64 843.051 1520.2 842.726C1521.72 841.675 1523.24 840.566 1524.69 839.4C1529.89 834.928 1534.71 830.169 1539.41 825.2C1545.53 818.148 1551.87 811.23 1557.72 803.929C1564.39 795.616 1571.16 787.36 1577.79 778.97C1591.27 761.941 1604.69 744.875 1618.28 727.942C1646.04 693.331 1673.76 658.663 1702.45 624.817C1709.85 616.063 1722.87 614.133 1732.05 621.453C1740.8 628.448 1742.83 642.284 1735.41 651.037C1706.05 685.667 1677.55 721.138 1649.25 756.648C1635.09 774.421 1621.09 792.367 1606.83 810.102C1599.22 819.563 1591.71 829.118 1583.76 838.292C1570.34 853.772 1557.07 869.482 1539.37 880.242C1532.2 884.599 1523.58 886.606 1515.15 886.606C1513.1 886.606 1511.06 886.491 1509.05 886.262H1509.11Z" fill="black"/>
<path d="M1233.92 1950.16C1229.12 1948.78 1225.01 1945.96 1221 1943.15C1203.58 1931.05 1188.19 1916.06 1172.9 1901.44C1140.79 1870.66 1109.4 1839.14 1077.99 1807.63C1065.29 1794.88 1052.47 1782.21 1040.44 1768.85C1033.77 1761.45 1026.91 1754.17 1020.54 1746.49C1013.45 1737.93 1006.32 1729.36 999.245 1720.8C999.857 1721.53 1000.47 1722.27 1001.06 1722.98C993.223 1713.6 985.901 1703.77 978.369 1694.12C971.87 1685.81 965.523 1677.36 959.119 1668.95C946.616 1652.56 934.191 1636.1 921.497 1619.88C906.49 1600.71 891.484 1581.56 876.554 1562.35C860.381 1541.56 844.686 1520.36 827.94 1500.05C822.128 1493.22 816.125 1486.57 809.664 1480.32C807.905 1478.76 806.147 1477.27 804.292 1475.81C795.862 1472.93 789.763 1464.46 789.974 1455.33C790.241 1443.65 800.048 1434.74 811.518 1434.74C820.35 1434.74 828.322 1440.82 834.707 1446.25C846.33 1456.15 856.194 1468.11 865.791 1479.9C875.884 1492.29 885.5 1505.07 895.25 1517.72C907.924 1534.18 920.675 1550.56 933.483 1566.9C962.655 1604.17 991.082 1642.03 1020.24 1679.29C1024.57 1684.85 1028.93 1690.38 1033.27 1695.96C1032.66 1695.21 1032.03 1694.49 1031.44 1693.76C1039.39 1703.26 1047.27 1712.81 1055.16 1722.35C1061.36 1729.61 1068.03 1736.53 1074.43 1743.64C1081.14 1751.09 1088.39 1758.11 1095.36 1765.31C1108.29 1778.67 1121.61 1791.69 1134.73 1804.84C1162.12 1832.28 1189.63 1859.72 1218.04 1886.14C1221.04 1888.87 1224.06 1891.56 1227.12 1894.24C1227.71 1890.07 1228.47 1885.89 1229.12 1881.74C1231.34 1867.83 1235.66 1854.26 1240.63 1841.09C1244.09 1832.01 1248.51 1823.45 1252.89 1814.83C1258.16 1804.42 1264.26 1794.57 1270.63 1784.79C1276.84 1775.29 1283.7 1766.15 1291.25 1757.69C1301.63 1746.07 1312.64 1735.08 1326.08 1726.99C1345.87 1715.11 1374.3 1718.09 1388.86 1736.7C1404.08 1756.18 1404.12 1782.57 1401.08 1805.98C1399.24 1819.99 1396.87 1834.1 1392.36 1847.51C1387.18 1862.95 1379.27 1877.65 1369.54 1890.68C1361.34 1901.67 1350.95 1910.69 1340.31 1919.18C1331.86 1925.93 1322.17 1931.35 1312.68 1936.51C1302.99 1941.81 1292.9 1946.18 1282.25 1949.09C1273.82 1951.4 1264.97 1947.43 1260.13 1940.57C1257.49 1944.43 1253.94 1947.58 1249.27 1949.34C1246.52 1950.39 1243.37 1950.94 1240.27 1950.94C1238.09 1950.94 1235.93 1950.68 1233.94 1950.1L1233.92 1950.16ZM1267.64 1910.14C1269.15 1909.32 1270.78 1908.67 1272.5 1908.19C1273.05 1908.04 1273.59 1907.9 1274.12 1907.75C1277.64 1906.55 1281.08 1905.17 1284.49 1903.68C1291.6 1900.16 1298.5 1896.34 1305.28 1892.25C1310.43 1888.85 1315.34 1885.28 1320.2 1881.47C1324.04 1878.05 1327.79 1874.57 1331.34 1870.85C1334.06 1867.73 1336.6 1864.52 1339.03 1861.18C1341.84 1856.86 1344.28 1852.4 1346.71 1847.86C1348.62 1843.61 1350.5 1839.41 1352.16 1835.07C1353.29 1831.65 1354.28 1828.21 1355.18 1824.71C1357.11 1814.95 1358.7 1805.2 1360 1795.34C1360.36 1790.43 1360.51 1785.53 1360.46 1780.6C1360.26 1777.79 1360 1775.02 1359.6 1772.23C1359.33 1770.93 1359.02 1769.67 1358.66 1768.39C1358.37 1767.53 1358.05 1766.69 1357.7 1765.87C1357.3 1765.07 1356.88 1764.28 1356.42 1763.52C1356.4 1763.52 1356.38 1763.48 1356.36 1763.46C1356.48 1763.63 1356.58 1763.8 1356.69 1763.98C1356.46 1763.69 1356.23 1763.38 1356 1763.1C1355.83 1762.92 1355.66 1762.75 1355.49 1762.58C1355.49 1762.58 1355.45 1762.56 1355.43 1762.54C1355.24 1762.49 1355.05 1762.43 1354.87 1762.37C1354.45 1762.29 1354.03 1762.24 1353.61 1762.2C1353.02 1762.16 1352.41 1762.14 1351.82 1762.14C1351.49 1762.18 1351.18 1762.24 1350.86 1762.27C1350.4 1762.37 1349.96 1762.48 1349.5 1762.58C1348.95 1762.77 1348.39 1763 1347.84 1763.23C1346.98 1763.67 1346.12 1764.13 1345.28 1764.63C1343.23 1766.04 1341.28 1767.51 1339.37 1769.04C1334.84 1773.07 1330.6 1777.33 1326.35 1781.65C1319.68 1789.22 1313.56 1797.04 1307.66 1805.22C1302.32 1813.44 1297.28 1821.71 1292.32 1830.18C1287.24 1840.25 1282.29 1850.24 1278.22 1860.83C1275.79 1867.83 1273.72 1874.9 1272.02 1882.1C1270.13 1891.41 1268.79 1900.76 1267.68 1910.16L1267.64 1910.14Z" fill="black"/>
<path d="M646.101 1702.97C631.859 1699.66 618.152 1693.85 605.038 1687.51C590.815 1680.61 577.243 1672.45 564.033 1663.79C543.004 1650.01 523.238 1634.47 503.433 1619.01C499.399 1615.88 495.557 1612.46 491.619 1609.19C487.547 1605.79 483.36 1602.46 479.365 1598.95C470.399 1591.05 461.376 1583.22 452.62 1575.08C435.683 1559.29 419.262 1543.06 403.223 1526.38C399.438 1522.46 395.71 1518.49 391.982 1514.51C391.179 1524.16 390.128 1533.76 388.293 1543.26C384.813 1561.45 380.168 1579.91 371.183 1596.23C365.085 1607.32 357.323 1617.29 346.828 1624.5C336.524 1631.57 322.263 1635.3 309.971 1631.8C304.007 1630.1 298.061 1627.75 293.225 1623.73C288.102 1619.47 283.724 1614.77 279.69 1609.48C271.241 1598.41 266.079 1584.99 262.791 1571.62C256.234 1545.05 261.644 1517.38 274.433 1493.57C281.067 1481.24 289.019 1469.79 298.482 1459.47C308.614 1448.42 319.835 1438.72 334.02 1433.33C345.567 1428.93 358.203 1429.81 369.195 1434.8C374.261 1435.87 378.944 1438.68 381.946 1443.03C388.216 1448.35 393.683 1454.79 399.246 1460.71C409.072 1471.17 418.841 1481.66 428.686 1492.09C447.363 1511.86 466.805 1530.78 486.686 1549.33C501.101 1562.06 515.457 1574.98 530.617 1586.81C538.76 1593.17 546.713 1599.92 555.105 1605.94C563.574 1612 572.005 1618.1 580.473 1624.19C592.995 1632.56 605.765 1640.46 619.07 1647.49C627.252 1651.58 635.587 1655.27 644.151 1658.5C649.466 1660.26 654.818 1661.78 660.267 1663.08C664.415 1663.89 668.525 1664.52 672.693 1664.94C676.114 1665.11 679.517 1665.19 682.939 1665.17C688.062 1664.9 693.109 1664.4 698.194 1663.64C703.279 1662.66 708.288 1661.5 713.277 1660.1C719.471 1658.12 725.512 1655.86 731.477 1653.28C739.486 1649.44 747.133 1645.02 754.723 1640.4C762.713 1635.26 770.436 1629.83 777.911 1623.98C783.073 1619.97 788.215 1615.94 793.377 1611.9C796.703 1609 800.029 1606.09 803.375 1603.19C807.102 1599.94 811.079 1596.81 814.634 1593.35C824.25 1584 833.981 1574.81 843.118 1564.99C852.543 1554.49 861.318 1543.56 869.461 1532.06C875.349 1523.42 880.931 1514.55 885.768 1505.28C888.196 1500.62 890.643 1495.94 893.07 1491.27C897.008 1482.9 900.966 1474.57 904.674 1466.1C909.262 1455.59 921.822 1450.6 932.355 1455.17C942.87 1459.72 947.916 1472.35 943.309 1482.84C939.046 1492.59 934.726 1502.38 929.794 1511.8C926.792 1517.53 923.791 1523.3 920.79 1529.06C914.539 1541.04 906.758 1552.33 898.863 1563.28C885.787 1581.44 870.532 1597.68 854.55 1613.26C850.88 1616.85 847.324 1620.66 843.462 1624.04C838.32 1628.53 833.159 1633.04 828.035 1637.53C818.993 1645.43 809.511 1652.73 800.048 1660.12C792.172 1666.28 783.837 1671.86 775.311 1677.09C761.93 1685.29 748.242 1692.46 733.446 1697.79C720.504 1702.45 706.911 1705.3 693.243 1706.7C689.209 1707.1 685.176 1707.29 681.142 1707.29C669.347 1707.29 657.667 1705.65 646.12 1702.95L646.101 1702.97ZM320.141 1590.9L320.772 1590.77C321.212 1590.61 321.632 1590.46 322.072 1590.31C322.397 1590.14 322.741 1589.94 323.066 1589.77C323.697 1589.35 324.29 1588.91 324.901 1588.45C325.8 1587.65 326.679 1586.81 327.52 1585.93C328.457 1584.84 329.356 1583.71 330.216 1582.57C331.745 1580.27 333.16 1577.94 334.517 1575.53C336.467 1571.54 338.188 1567.47 339.774 1563.3C342.106 1556.33 343.884 1549.28 345.643 1542.15C347.383 1532.92 348.797 1523.74 349.811 1514.4C350.422 1506.01 350.805 1497.69 350.709 1489.28C350.441 1484.81 350.021 1480.4 349.39 1475.98C349.18 1474.95 348.95 1473.92 348.702 1472.91C348.472 1472.96 348.243 1473.04 348.014 1473.1C347.402 1473.33 346.79 1473.56 346.178 1473.8C345.452 1474.17 344.745 1474.55 344.037 1474.95C341.992 1476.4 340.004 1477.91 338.054 1479.48C335.014 1482.21 332.147 1485.08 329.356 1488.04C325.723 1492.17 322.34 1496.45 319.128 1500.92C316.242 1505.32 313.565 1509.77 311.061 1514.38C309.054 1518.45 307.257 1522.6 305.632 1526.84C304.848 1529.38 304.121 1531.92 303.472 1534.5C303.013 1536.95 302.63 1539.38 302.344 1541.84C302.21 1544.4 302.152 1546.94 302.152 1549.5C302.363 1552.72 302.726 1555.87 303.185 1559.04C303.816 1562.04 304.523 1564.97 305.345 1567.91C306.186 1570.32 307.085 1572.69 308.079 1575.04C309.226 1577.35 310.43 1579.59 311.73 1581.8C312.934 1583.6 314.177 1585.36 315.496 1587.1C314.884 1586.35 314.272 1585.63 313.661 1584.9C314.846 1586.43 316.127 1587.88 317.484 1589.26C317.924 1589.62 318.383 1590 318.822 1590.37L319.3 1590.67C319.453 1590.73 319.587 1590.8 319.74 1590.86C319.797 1590.86 319.874 1590.9 319.931 1590.92C319.988 1590.92 320.046 1590.92 320.122 1590.94L320.141 1590.9Z" fill="black"/>
</g>
<defs>
<clipPath id="clip0_157_199">
<rect width="1480" height="1901" fill="white" transform="translate(260 50)"/>
</clipPath>
</defs>
</svg>
