<svg width="2000" height="2000" viewBox="0 0 2000 2000" fill="none" xmlns="http://www.w3.org/2000/svg">
<g clip-path="url(#clip0_157_200)">
<path d="M684.832 620.995C632.25 603.986 585.228 572.091 549.036 530.473C531.413 510.188 516.779 487.728 505.685 463.276C493.831 437.173 488.665 408.659 489.452 380.066C490.081 357.449 494.776 334.962 501.752 313.498C509.069 290.959 519.716 269.652 532.331 249.656C557.796 209.322 592.23 175.042 630.86 147.288C649.323 134 669.228 122.757 690.078 113.689C712.133 104.123 735.395 96.9687 758.867 91.9368C766.892 90.2071 774.996 88.7657 783.152 87.6649C786.561 84.8345 790.994 83.1572 795.74 83.0786C816.196 82.6854 836.626 83.8648 857.056 85.2538C867.1 85.9352 877.25 86.6428 887.268 87.796C897.181 88.9229 907.225 89.814 917.034 91.8058C927.419 93.9286 937.778 96.1039 947.954 99.0916C957.788 101.948 967.544 105.172 977.038 109.024C986.977 113.034 996.786 117.306 1006.23 122.364C1015.43 127.265 1024.66 132.376 1033.13 138.482C1041.63 144.588 1050.02 151.036 1057.18 158.714C1064.71 166.76 1071.9 175.042 1078.92 183.533C1081.76 186.967 1084.27 190.688 1086.92 194.252C1088.34 196.192 1089.57 198.315 1090.88 200.333C1092.4 202.639 1094 204.945 1095.39 207.356C1100.51 216.267 1105.57 225.23 1109.69 234.639C1113.83 244.047 1118.13 253.508 1121.25 263.336C1122.88 268.447 1124.48 273.584 1126.1 278.668C1127.94 284.434 1129.15 290.409 1130.61 296.28C1131.74 300.84 1132.37 305.583 1133.18 310.222C1134.1 315.516 1134.81 320.758 1135.34 326.078C1135.83 330.822 1136.25 335.486 1136.38 340.23C1136.54 345.367 1136.91 350.556 1136.67 355.693C1136.41 361.223 1136.46 366.857 1135.76 372.361C1135.07 377.629 1134.78 383.106 1133.74 388.295C1132.66 393.563 1131.61 398.831 1130.56 404.099C1129.43 409.733 1127.73 415.263 1126.24 420.819C1125.13 424.882 1123.77 428.813 1122.46 432.822C1119.84 440.737 1117.08 448.521 1113.88 456.252C1109.08 467.862 1103.1 479.053 1096.39 489.694C1090.62 498.866 1084.14 507.856 1076.9 515.901C1072.94 520.304 1068.98 524.707 1065 529.11C1061.43 533.12 1057.45 536.737 1053.59 540.458C1050.76 543.184 1048.03 546.014 1045.01 548.504C1039.93 552.776 1034.87 557.022 1029.8 561.267C1021.04 568.579 1011.52 575.026 1001.87 581.133C994.321 585.929 986.61 590.358 978.638 594.394L963.138 602.204C958.365 604.615 953.277 606.476 948.347 608.546C918.057 621.388 886.402 630.77 853.909 636.064C836.915 638.842 819.684 640.153 802.428 640.153C762.539 640.153 722.519 633.155 684.806 620.943L684.832 620.995ZM814.754 602.23C827.211 601.601 839.563 600.317 851.889 598.378C866.759 595.757 881.393 592.193 895.87 587.868C905.363 584.88 914.7 581.342 924.088 578.014C927.786 576.704 931.379 574.948 934.998 573.401C938.67 571.855 942.341 570.283 946.013 568.736C950.445 566.509 954.851 564.281 959.283 562.053C966.574 558.358 973.655 554.427 980.657 550.155C989.102 544.756 997.284 539.017 1005.23 532.91C1005.07 533.041 1004.92 533.172 1004.76 533.33C1010.16 528.822 1015.54 524.288 1020.91 519.754C1023.27 517.762 1025.4 515.43 1027.6 513.281C1030.59 510.372 1033.58 507.489 1036.57 504.58C1044.75 495.486 1052.8 486.47 1059.96 476.511C1064.63 469.645 1068.93 462.595 1072.81 455.256C1076.83 447.211 1080.37 438.955 1083.57 430.569C1085.43 424.908 1087.29 419.273 1089.18 413.638C1090.99 408.213 1092.19 402.5 1093.66 396.944C1094.61 392.174 1095.58 387.43 1096.52 382.661C1097.49 377.76 1097.83 372.675 1098.41 367.696C1098.65 362.664 1098.88 357.658 1099.12 352.626C1099.25 349.901 1098.96 347.07 1098.88 344.345C1098.83 342.248 1098.78 340.178 1098.7 338.081C1098.15 332.656 1097.6 327.205 1097.02 321.78C1096.15 316.748 1095.26 311.716 1094.37 306.71C1093.37 301.102 1091.59 295.52 1090.2 289.963C1088.18 283.543 1086.22 277.095 1083.83 270.805C1080.97 263.284 1077.9 255.946 1074.68 248.555C1072.71 244.624 1070.74 240.719 1068.8 236.761C1066.89 232.935 1064.55 229.266 1062.43 225.571C1059.65 221.273 1056.87 216.975 1053.83 212.834C1050.44 208.274 1046.93 203.871 1043.31 199.494C1037.09 192.444 1030.8 185.63 1024.09 179.104C1019.65 175.435 1015.22 171.976 1010.58 168.621C1002.77 163.642 994.897 159.003 986.741 154.626C975.622 149.227 964.397 144.457 952.832 140.159C942.63 136.778 932.402 133.843 921.964 131.249C913.52 129.493 905.049 127.684 896.499 126.715C887.032 125.666 877.59 124.697 868.123 123.858C865.841 123.675 863.534 123.517 861.252 123.334C857.58 125.614 853.148 126.636 848.664 125.902C842.815 124.933 836.993 124.172 831.092 123.544C823.566 123.019 816.118 122.915 808.565 123.15C798.809 123.701 789.158 124.828 779.507 126.348C765.529 128.811 751.786 132.14 738.175 136.202C724.59 140.5 711.242 145.453 698.234 151.271C687.56 156.33 677.253 162.043 667.209 168.254C654.463 176.431 642.321 185.42 630.624 195.039C619.137 204.788 608.175 215.061 597.868 226.069C588.244 236.709 579.274 247.874 570.961 259.562C563.959 269.81 557.533 280.398 551.738 291.379C547.227 300.368 543.214 309.541 539.674 318.976C536.474 328.148 533.773 337.452 531.544 346.939C529.839 355.116 528.528 363.293 527.662 371.575C527.086 379.175 526.876 386.749 527.086 394.376C527.426 399.879 528.003 405.33 528.816 410.808C530.101 417.805 531.727 424.672 533.747 431.486C536.055 438.405 538.756 445.14 541.719 451.797C545.391 459.476 549.456 466.867 553.888 474.126C560.261 484.085 567.237 493.599 574.764 502.745C582.815 512.154 591.338 521.038 600.438 529.451C609.303 537.339 618.56 544.678 628.29 551.518C637.626 557.834 647.251 563.678 657.217 568.946C667.602 574.188 678.224 578.8 689.16 582.81C702.64 587.475 716.329 591.328 730.229 594.473C744.915 597.565 759.68 599.845 774.603 601.287C787.978 602.361 801.326 602.728 814.754 602.283V602.23Z" fill="black"/>
<path d="M733.481 293.607C728.629 292.218 724.486 288.863 722.099 284.408C719.686 279.952 719.476 275.156 720.578 270.308C725.849 247.114 731.802 224.077 737.1 200.883C737.389 199.573 737.651 198.236 737.808 196.9C738.962 187.648 747.721 180.703 756.874 180.913C767.312 181.149 775.285 189.902 775.285 200.176C775.285 201.407 775.153 202.587 774.917 203.74C774.183 208.981 772.688 214.197 771.456 219.334C769.698 226.541 767.941 233.748 766.184 240.981C762.985 254.19 759.838 267.425 756.822 280.712C754.933 289.046 746.62 294.288 738.438 294.288C736.759 294.288 735.107 294.078 733.507 293.607H733.481Z" fill="black"/>
<path d="M820.707 333.128C810.899 331.634 802.952 321.754 804.919 311.664C813.626 267.451 822.543 223.317 831.25 179.104C832.246 174.099 834.633 169.748 838.829 166.682C842.815 163.799 847.85 162.593 852.702 163.327C862.511 164.821 870.483 174.701 868.49 184.765C859.757 228.952 850.84 273.112 842.16 317.325C840.35 326.471 832.745 333.311 823.513 333.311C822.595 333.311 821.625 333.233 820.681 333.102L820.707 333.128Z" fill="black"/>
<path d="M784.752 461.651C770.931 461.075 757.556 457.851 744.601 453.134C731.619 448.416 718.873 440.764 708.908 431.145C702.089 424.541 694.038 415.971 694.038 405.855C694.038 395.738 703.217 387.247 713.313 387.483C719.791 387.64 725.325 391.073 728.577 396.105C728.498 395.974 728.419 395.869 728.341 395.738C728.708 396.315 729.101 396.892 729.495 397.468C729.495 397.468 729.495 397.442 729.495 397.416C729.495 397.416 729.495 397.468 729.521 397.494C730.203 398.49 730.885 399.434 731.619 400.377C732.851 401.766 734.11 403.103 735.422 404.413C737.625 406.3 739.906 408.082 742.266 409.812C745.02 411.568 747.8 413.193 750.659 414.739C754.12 416.364 757.608 417.832 761.175 419.168C764.794 420.321 768.44 421.344 772.137 422.208C775.914 422.916 779.69 423.466 783.493 423.886C788.24 424.2 792.934 424.253 797.681 424.122C802.087 423.833 806.44 423.335 810.794 422.706C816.695 421.606 822.491 420.269 828.26 418.565C836.023 416.05 843.602 413.14 851.05 409.865C859.757 405.802 868.175 401.242 876.646 396.734C882.206 393.773 887.504 390.287 892.88 386.985C897.338 383.892 901.797 380.826 906.255 377.734C910.032 375.139 913.52 372.047 917.086 369.111C920.443 366.019 923.8 362.926 927.183 359.834C930.199 357.056 932.953 353.937 935.785 350.975C939.929 346.284 943.994 341.567 947.954 336.718C951.389 332.525 954.536 328.07 957.657 323.614C962.902 315.7 967.885 307.68 972.37 299.294C973.865 296.227 975.307 293.161 976.671 290.016C980.736 280.581 992.039 276.152 1001.45 280.214C1010.9 284.276 1015.33 295.572 1011.26 304.981C1003.03 324.034 991.619 341.514 979.11 358.052C973.497 365.442 967.282 372.544 960.83 379.228C953.592 386.697 946.197 394.009 938.067 400.508C929.727 407.165 921.309 413.743 912.156 419.273C907.252 422.235 902.347 425.249 897.443 428.21C893.326 430.7 888.999 432.823 884.776 435.076C865.763 445.193 845.91 453.605 824.825 458.323C814.098 460.708 803.084 461.835 792.095 461.835C789.656 461.835 787.217 461.782 784.778 461.677L784.752 461.651Z" fill="black"/>
<path d="M976.828 1358.51C957.841 1357.99 938.853 1357.38 919.866 1356.91C878.928 1355.89 837.964 1355.47 797.025 1354.74C756.271 1354.03 715.49 1353.51 674.736 1352.77C634.978 1352.04 595.325 1350.47 555.619 1348.42C545.234 1347.87 534.875 1347.4 524.489 1347.03C514.812 1346.72 504.846 1347.37 495.248 1345.93C490.763 1345.25 486.095 1342.84 482.974 1339.54C479.984 1336.42 478.621 1332.59 477.519 1328.5C476.391 1324.34 476.155 1319.8 475.788 1315.53C474.923 1305.68 474.608 1295.74 474.215 1285.86C474.215 1286.12 474.241 1286.39 474.267 1286.68C473.48 1266.86 473.14 1247.02 472.799 1227.21C472.484 1207.97 472.169 1188.74 472.431 1169.5C472.982 1127.51 474.792 1085.63 477.257 1043.73C479.643 1002.82 484.207 962.038 490.16 921.521C493.045 901.734 496.743 882.078 500.676 862.475C504.689 842.504 509.069 822.613 514.235 802.93C516.648 793.732 519.034 784.533 521.552 775.36C524.358 765.06 526.954 754.682 529.997 744.435C533.563 732.484 537.156 720.533 540.749 708.608C543.345 699.934 546.388 691.416 549.351 682.82C552.419 673.831 555.462 664.894 558.923 656.035C562.647 646.443 566.162 636.72 570.384 627.338C573.059 621.415 575.734 615.492 578.383 609.569C580.507 604.851 583.025 600.317 585.385 595.731C587.667 591.25 590.053 586.873 592.466 582.47C595.403 577.124 598.314 571.122 602.746 566.876C606.418 563.364 611.243 561.608 616.305 561.608C626.585 561.608 634.925 570.781 634.715 580.845C634.61 585.196 633.011 589.127 630.467 592.219C630.467 592.245 630.441 592.272 630.414 592.298C630.441 592.272 630.467 592.245 630.519 592.193C630.467 592.245 630.441 592.298 630.388 592.35C626.795 597.985 623.674 603.908 620.449 609.752C620.606 609.438 620.763 609.123 620.921 608.809C618.429 613.631 615.702 618.375 613.525 623.328C610.326 630.457 607.1 637.585 603.9 644.714C601.724 649.536 599.94 654.515 598.026 659.442C595.613 665.654 593.2 671.839 590.787 678.05C586.408 690.892 581.582 703.629 577.701 716.628C573.164 731.829 568.391 747.003 564.221 762.308C559.736 778.714 555.278 795.094 550.951 811.5C547.201 825.81 543.896 840.224 540.67 854.665C538.258 866.851 535.635 879.012 533.458 891.251C530.914 905.56 528.502 919.844 526.404 934.258C522.549 960.335 519.9 986.49 517.33 1012.72C514.314 1051.96 511.901 1091.27 510.931 1130.61C509.908 1171.68 510.065 1212.69 511.009 1253.76C511.245 1264.16 511.534 1274.59 511.875 1285C511.953 1286.75 512.006 1288.54 512.085 1290.32C512.085 1290.27 512.085 1290.19 512.085 1290.13C512.373 1296.45 512.583 1302.82 513.055 1309.16C518.851 1309.29 524.673 1309.37 530.469 1309.55C539.726 1309.87 548.984 1310.37 558.242 1310.84C579.012 1311.97 599.809 1312.99 620.606 1313.7C662.331 1315.08 704.082 1315.56 745.807 1316.16C785.958 1316.74 826.11 1317.57 866.261 1318.18C885.537 1318.47 904.813 1318.81 924.062 1319.3C933.844 1319.57 943.653 1319.83 953.435 1320.09C961.722 1320.33 970.062 1320.8 978.349 1320.85C978.664 1319.88 978.926 1318.91 979.162 1317.94C979.949 1314.04 980.526 1310.13 980.946 1306.17C981.627 1296.61 981.391 1287.15 981.208 1277.55C978.952 1238.4 975.202 1199.38 971.163 1160.35C966.889 1119 962.745 1077.62 958.444 1036.26C954.379 997.262 949.894 958.343 946.485 919.267C942.866 877.597 940.086 835.926 938.145 794.125C935.837 744.015 936.572 693.827 940.952 643.849C940.952 643.875 940.952 643.927 940.952 643.954C941.083 642.512 941.214 641.045 941.319 639.603C941.319 639.76 941.319 639.891 941.292 640.022C943.259 617.824 945.961 595.652 951.101 573.926C953.461 563.915 964.895 558.306 974.389 561.006C979.241 562.395 983.411 565.749 985.797 570.178C988.184 574.608 988.446 579.482 987.318 584.304C987.004 585.589 986.715 586.899 986.427 588.183C982.598 606.607 980.342 625.346 978.69 644.085C978.743 643.508 978.795 642.958 978.847 642.407C978.743 643.639 978.611 644.897 978.507 646.129C978.507 646.05 978.507 645.998 978.507 645.945C978.402 647.308 978.271 648.645 978.166 649.981C978.244 649.195 978.323 648.383 978.375 647.596C976.487 670.476 975.123 693.382 974.704 716.313C974.232 741.159 974.73 765.951 975.648 790.796C977.536 831.235 980.159 871.569 983.647 911.876C987.109 951.948 991.593 991.889 995.842 1031.88C1000.14 1072.4 1004.13 1112.94 1008.33 1153.46C1012.47 1193.72 1016.35 1233.92 1018.71 1274.33C1019.63 1290.11 1019.5 1306.23 1016.77 1321.82C1015.8 1327.43 1014.09 1332.8 1012.02 1338.1C1010.11 1343 1006.73 1347.19 1003.05 1350.86C996.76 1357.12 987.843 1358.46 979.346 1358.46C978.507 1358.46 977.667 1358.46 976.854 1358.43L976.828 1358.51Z" fill="black"/>
<path d="M497.477 1905.7C486.698 1904.58 476.313 1900.2 467.947 1893.41C459.318 1886.39 453.759 1874.62 455.306 1863.41C456.093 1857.82 457.561 1851.98 460.735 1847.21C463.724 1842.73 466.898 1838.74 470.805 1835.02C477.44 1828.71 485.754 1824.38 493.805 1820.16C502.171 1815.79 510.878 1811.46 519.795 1808.32C530.075 1804.67 540.356 1801.5 550.951 1798.88C563.67 1795.76 576.599 1793.74 589.502 1791.6C592.492 1790.99 595.377 1790.29 598.288 1789.47C598.471 1789.39 598.629 1789.34 598.812 1789.26C598.996 1785.2 598.891 1781.14 598.734 1777.08C598.734 1777.16 598.734 1777.21 598.734 1777.29C598.655 1775.22 598.55 1773.17 598.498 1771.1C598.524 1771.91 598.55 1772.73 598.576 1773.51C597.134 1740.04 595.324 1706.6 594.092 1673.14C594.092 1673.58 594.118 1674.03 594.144 1674.47C593.882 1668.16 593.62 1661.87 593.384 1655.58C593.384 1656.18 593.436 1656.76 593.462 1657.36C591.758 1615.64 590.551 1573.91 589.214 1532.19C587.929 1491.25 587.588 1450.29 587.745 1409.33C587.798 1399.6 587.929 1389.88 588.06 1380.18C588.112 1375.89 588.296 1371.59 588.427 1367.29C588.532 1363.25 588.584 1359.11 589.266 1355.16C590.997 1345.04 600.438 1337.81 610.719 1339.38C620.737 1340.9 628.237 1350.73 626.507 1360.82C626.48 1361 626.454 1361.18 626.428 1361.37C625.222 1382.26 625.431 1403.22 625.353 1424.11C625.274 1444.97 625.484 1465.81 625.772 1486.64C626.323 1527.76 627.975 1568.88 629.391 1610C629.916 1625.28 630.44 1640.53 631.017 1655.81C631.017 1655.24 630.965 1654.63 630.939 1654.06C631.201 1660.14 631.411 1666.22 631.673 1672.3C631.673 1671.96 631.647 1671.62 631.647 1671.25C631.647 1671.09 631.647 1670.91 631.647 1670.75V1671.17C631.647 1670.75 631.647 1670.31 631.621 1669.89C631.673 1670.96 631.699 1672.04 631.752 1673.14C631.752 1672.59 631.699 1672.01 631.673 1671.46C633.063 1705.14 634.82 1738.79 636.184 1772.46C636.158 1771.68 636.131 1770.87 636.105 1770.05C636.315 1775.43 636.656 1780.8 636.603 1786.17C639.672 1790.68 640.904 1796.37 639.042 1801.69C635.528 1811.75 631.358 1821.37 626.454 1830.83C624.277 1835.05 621.97 1839.19 619.557 1843.3C614.338 1852.21 607.782 1860.13 600.202 1867.13C589.791 1876.72 578.461 1885.24 566.162 1892.21C556.274 1897.82 545.26 1901.75 534.193 1904.24C527.085 1905.84 519.873 1906.46 512.609 1906.46C507.574 1906.46 502.512 1906.15 497.503 1905.65L497.477 1905.7ZM514.943 1868.88C517.828 1868.7 520.66 1868.41 523.493 1868.02C526.508 1867.42 529.472 1866.71 532.435 1865.87C535.635 1864.77 538.808 1863.59 541.929 1862.25C545.837 1860.39 549.639 1858.35 553.363 1856.12C558.084 1853 562.542 1849.59 567.053 1846.13C571.092 1842.7 575.052 1839.22 578.802 1835.44C580.114 1833.95 581.346 1832.45 582.579 1830.91C580.743 1831.22 578.881 1831.51 577.045 1831.82C565.453 1834.16 554.072 1836.91 542.716 1840.16C539.123 1841.44 535.556 1842.7 531.963 1843.96C528.79 1845.09 525.722 1846.58 522.653 1847.94C515.677 1851.3 508.727 1854.7 502.014 1858.56C500.414 1859.61 498.867 1860.71 497.319 1861.86C496.375 1862.7 495.484 1863.56 494.592 1864.48C494.33 1864.79 494.094 1865.11 493.831 1865.42C493.779 1865.5 493.7 1865.61 493.648 1865.69C494.172 1866 494.723 1866.31 495.274 1866.6C495.326 1866.6 495.405 1866.66 495.457 1866.66C495.169 1866.52 494.907 1866.37 494.644 1866.24C495.274 1866.5 495.903 1866.76 496.533 1867C497.372 1867.26 498.237 1867.49 499.076 1867.7C500.938 1868.07 502.801 1868.36 504.715 1868.59C508.124 1868.8 511.534 1868.88 514.969 1868.86L514.943 1868.88Z" fill="black"/>
<path d="M728.236 1915.32C722.912 1914.14 718.296 1911.02 713.916 1907.96C711.818 1906.49 709.773 1904.18 708.226 1902.14C706.049 1899.26 703.925 1896.16 702.666 1892.73C700.777 1887.57 699.256 1882.06 699.466 1876.51C699.676 1870.77 700.489 1865.34 702.325 1859.87C706.206 1848.28 713.969 1838.09 723.331 1830.36C734.163 1821.42 746.777 1815.5 759.365 1809.52C768.072 1805.38 777.146 1801.84 786.22 1798.64C794.534 1795.71 802.926 1792.91 811.03 1789.47C812.708 1788.63 814.334 1787.74 815.934 1786.8C816.38 1786.48 816.799 1786.14 817.245 1785.83C817.455 1785.65 817.639 1785.46 817.848 1785.25C817.875 1785.23 817.901 1785.17 817.927 1785.15C817.927 1785.15 817.953 1785.1 817.98 1785.07C817.98 1784.91 817.98 1784.78 818.006 1784.62C817.848 1782.58 817.612 1780.59 817.298 1778.54V1778.67C813.888 1758.73 810.322 1738.84 806.991 1718.87C807.122 1719.65 807.253 1720.47 807.384 1721.25C806.912 1718.58 806.467 1715.88 806.021 1713.21C806.073 1713.5 806.126 1713.81 806.178 1714.1C799.359 1674.24 793.8 1634.16 789.131 1593.99C784.49 1553.94 780.425 1513.82 778.117 1473.56C776.91 1452.07 775.992 1430.53 774.471 1409.04C773.737 1398.24 773.055 1387.44 772.137 1376.65C771.691 1371.25 771.246 1365.85 770.721 1360.45C770.275 1355.5 769.515 1350.44 769.515 1345.46C769.515 1335.21 778.694 1326.85 788.791 1327.09C798.651 1327.32 806.309 1335.16 807.122 1344.67C807.122 1344.44 807.122 1344.17 807.096 1343.94C807.096 1344.25 807.122 1344.57 807.148 1344.88C807.148 1345.12 807.175 1345.38 807.201 1345.62C807.752 1355.18 808.958 1364.8 809.771 1374.34C810.636 1384.59 811.266 1394.83 811.974 1405.08C813.443 1426.18 814.334 1447.33 815.541 1468.43C817.796 1508.52 821.809 1548.46 826.424 1588.33C830.909 1627.01 836.154 1665.64 842.605 1704.03C842.527 1703.51 842.422 1702.99 842.343 1702.49C842.841 1705.37 843.34 1708.28 843.812 1711.19C843.681 1710.4 843.55 1709.59 843.418 1708.8C843.654 1710.22 843.89 1711.61 844.127 1713.02C844.127 1712.97 844.126 1712.92 844.1 1712.87C846.067 1724.16 848.008 1735.46 849.949 1746.75C850.919 1752.36 851.915 1758 852.886 1763.61C854.695 1774.11 857.292 1784.96 854.276 1795.5C854.014 1796.39 853.751 1797.26 853.437 1798.09C855.141 1802.58 855.167 1807.71 853.305 1812.48C849.713 1821.81 845.569 1830.88 841.137 1839.87C836.338 1849.65 830.83 1858.92 823.88 1867.34C817.429 1875.17 810.322 1882.69 802.48 1889.17C789.577 1899.75 775.258 1909.69 758.998 1914.25C753.779 1915.72 748.482 1916.74 743.027 1916.87C742.555 1916.87 742.109 1916.87 741.637 1916.87C737.047 1916.87 732.72 1916.21 728.209 1915.19L728.236 1915.32ZM741.768 1879.42C742.791 1879.34 743.84 1879.23 744.863 1879.1C746.121 1878.84 747.354 1878.55 748.587 1878.21C750.842 1877.43 753.045 1876.59 755.222 1875.67C758.29 1874.15 761.28 1872.5 764.217 1870.77C769.436 1867.39 774.314 1863.72 779.14 1859.81C782.523 1856.64 785.827 1853.45 789.079 1850.14C792.672 1846.08 796.081 1841.97 799.333 1837.62C800.304 1836.1 801.221 1834.58 802.139 1833.06C793.301 1836.28 784.568 1839.71 775.861 1843.38C768.02 1847.1 760.257 1850.85 752.783 1855.33C750.685 1856.77 748.692 1858.27 746.698 1859.87C745.676 1860.78 744.705 1861.75 743.735 1862.72C742.765 1863.85 741.847 1865 740.955 1866.18C740.247 1867.23 739.591 1868.33 738.988 1869.46C738.595 1870.3 738.228 1871.16 737.887 1872.03C737.729 1872.52 737.572 1873.05 737.441 1873.57C737.362 1874.18 737.257 1874.75 737.179 1875.36C737.179 1875.75 737.152 1876.14 737.126 1876.56C737.126 1876.82 737.179 1877.09 737.179 1877.35C737.231 1877.58 737.283 1877.79 737.336 1878.03C737.388 1878.19 737.441 1878.34 737.493 1878.47C737.519 1878.53 737.546 1878.58 737.572 1878.63C737.598 1878.68 737.651 1878.74 737.677 1878.79C737.677 1878.79 737.677 1878.79 737.703 1878.81C737.913 1878.92 738.123 1879.02 738.306 1879.1C738.411 1879.13 738.516 1879.16 738.621 1879.18C739.172 1879.26 739.722 1879.34 740.273 1879.42C740.745 1879.42 741.217 1879.44 741.689 1879.44L741.768 1879.42Z" fill="black"/>
<path d="M865.396 1009.29C863.035 999.279 869.408 989.032 879.374 986.621C898.282 982.034 917.663 979.021 936.834 975.64C956.136 972.233 975.464 968.957 994.766 965.55C1014.54 962.038 1034.34 958.605 1054.04 954.542C1074.23 950.375 1094.48 946.208 1114.35 940.626C1117.76 939.683 1121.2 938.713 1124.64 937.743C1128.33 936.564 1131.98 935.306 1135.57 933.864C1132 927.155 1127.99 920.656 1124.22 914.104C1119 905.01 1113.75 895.889 1108.48 886.821C1098.83 870.153 1089.13 853.511 1079.34 836.922C1068.54 818.602 1057.68 800.335 1047.06 781.885C1037.2 764.745 1027.89 747.291 1019 729.627C1014.86 721.371 1010.48 713.194 1006.67 704.781C1001.85 694.089 997.022 683.422 992.196 672.729C988.157 663.792 984.617 654.62 980.841 645.578C977.562 637.716 974.074 629.932 970.639 622.122C968.672 617.955 966.784 613.735 964.712 609.621C961.617 603.409 957.552 597.172 957.552 590.017C957.552 579.744 966.757 571.41 976.828 571.646C984.617 571.829 991.042 576.756 993.796 583.544C993.875 583.727 993.98 583.911 994.058 584.094C994.058 584.042 994.058 583.989 994.032 583.937C994.084 584.042 994.111 584.173 994.163 584.278C1002.61 601.706 1010.66 619.239 1018.11 637.139C1021.7 645.761 1025.16 654.489 1029.02 662.98C1033.24 672.284 1037.41 681.614 1041.63 690.918C1051.15 710.102 1060.96 729.076 1071.11 747.92C1080.6 765.584 1091.04 782.802 1101.24 800.073C1121.41 834.196 1141.39 868.397 1161.09 902.782C1163.16 906.425 1165.23 910.041 1167.28 913.684C1171.68 921.547 1176.09 929.593 1175.88 938.87C1175.36 961.592 1149.47 969.874 1131.43 974.932C1110.89 980.672 1090.2 985.494 1069.35 989.818C1029.96 997.995 990.256 1004.44 950.655 1011.41C940.348 1013.22 930.015 1015.08 919.735 1016.97C909.166 1018.91 898.518 1020.77 888.081 1023.31C886.664 1023.65 885.222 1023.84 883.806 1023.84C875.309 1023.84 867.415 1017.89 865.396 1009.37V1009.29Z" fill="black"/>
<path d="M490.002 1006.41C477.021 1001.56 464.065 996.607 451.005 991.863C451.189 991.942 451.372 991.994 451.556 992.046C451.215 991.915 450.874 991.811 450.533 991.679C450.113 991.522 449.694 991.365 449.274 991.234C449.563 991.339 449.877 991.444 450.166 991.548C432.28 985.206 414.342 979.231 396.01 974.277C391.683 973.124 387.355 971.971 383.002 970.897C374.426 968.721 365.011 967.149 358.638 960.466C355.36 957.033 353.577 952.368 353.079 947.676C352.554 942.723 354.259 937.875 356.514 933.55C358.901 928.99 361.707 924.587 364.382 920.211C385.179 886.088 406.526 852.28 427.848 818.498C449.536 784.113 471.985 750.253 493.936 716.025C516.753 680.461 539.149 644.661 562.778 609.621C568.627 600.973 574.501 592.324 580.376 583.702C583.261 579.482 586.04 575.21 588.873 570.965C593.436 564.072 597.894 556.681 605.788 553.327C615.23 549.343 626.559 554.952 630.073 564.255C632.879 571.672 630.624 579.43 625.3 584.488C625.222 584.593 625.117 584.698 625.038 584.802C625.117 584.75 625.195 584.671 625.3 584.619C625.195 584.724 625.09 584.802 624.959 584.907C624.566 585.405 624.172 585.903 623.779 586.427C611.715 604.013 599.914 621.782 588.007 639.472C577.176 655.537 566.765 671.891 556.379 688.245C534.455 722.787 511.927 756.909 489.819 791.347C472.457 818.367 455.227 845.44 438.207 872.67C429.998 885.826 421.737 898.93 413.555 912.112C409.306 918.953 405.084 925.793 400.888 932.633C400.154 933.839 399.419 935.018 398.659 936.224C404.376 937.665 410.067 939.08 415.732 940.705C426.143 943.693 436.476 946.995 446.73 950.507C466.268 957.269 485.57 964.607 504.951 971.84C514.576 975.431 518.667 987.539 514.759 996.607C512.766 1001.22 508.885 1004.94 504.138 1006.72C502.014 1007.54 499.863 1007.9 497.739 1007.9C495.143 1007.9 492.52 1007.35 489.976 1006.41H490.002Z" fill="black"/>
<path d="M1309.13 1344.46C1296.33 1342.89 1283.4 1339.67 1271.16 1335.6C1254.92 1330.21 1239.14 1323.89 1223.43 1317.15C1208.09 1310.58 1192.8 1303.84 1177.22 1297.84C1172.55 1296.21 1167.88 1294.67 1163.08 1293.44C1160.35 1292.89 1157.65 1292.44 1154.87 1292.1C1150.91 1291.84 1146.95 1291.84 1142.99 1291.89C1138.72 1292.23 1134.55 1292.7 1130.3 1293.3C1125.76 1294.27 1121.28 1295.32 1116.77 1296.53C1099.43 1302.11 1082.96 1309.58 1066.31 1316.94C1056.89 1321.08 1047.43 1324.91 1037.46 1327.56C1027.23 1330.28 1016.64 1331.99 1006.12 1333.19C995.946 1334.37 986.479 1326.56 985.43 1316.45C984.355 1306.17 991.986 1296.92 1002.19 1295.77C1005.62 1295.38 1009.06 1294.9 1012.47 1294.38C1018.87 1293.23 1025.19 1291.86 1031.48 1290.21C1049.18 1284.21 1065.94 1275.75 1083.2 1268.56C1101.29 1261.04 1120.12 1255.91 1139.69 1254.44C1154.35 1253.31 1169.4 1255.3 1183.25 1260.18C1193.08 1263.64 1202.71 1267.49 1212.31 1271.55C1230.46 1279.26 1248.45 1287.43 1266.91 1294.38C1268.69 1295.06 1270.5 1295.74 1272.31 1296.42C1282.22 1299.7 1292.11 1302.82 1302.29 1305.18C1308.24 1306.38 1314.19 1307.33 1320.2 1307.95C1324.16 1308.22 1328.09 1308.32 1332.05 1308.3C1336.49 1308.06 1340.87 1307.64 1345.27 1306.99C1350.02 1306.07 1354.69 1304.97 1359.33 1303.63C1365.05 1301.74 1370.63 1299.59 1376.14 1297.18C1380.28 1295.14 1384.43 1293.07 1388.57 1291.02C1392.82 1288.9 1396.88 1286.25 1401 1283.87C1405.09 1281.14 1409.16 1278.42 1413.25 1275.72C1417.47 1272.89 1421.4 1269.51 1425.42 1266.36C1429.14 1263.09 1432.89 1259.84 1436.61 1256.59C1440.76 1252.97 1444.59 1248.91 1448.55 1245.08C1456.57 1237.32 1464.07 1228.91 1471.65 1220.74C1494.42 1195.76 1517.1 1170.73 1539.63 1145.54C1551.14 1132.65 1562.24 1119.36 1573.93 1106.63C1579.86 1100.18 1585.81 1093.84 1591.92 1087.57C1593.71 1085.74 1595.54 1083.96 1597.4 1082.17C1593.76 1080.79 1590.14 1079.4 1586.55 1077.95C1577.18 1074.23 1567.85 1070.46 1558.54 1066.69C1539.58 1059.01 1520.8 1050.96 1502.21 1042.44C1483.61 1033.95 1465.49 1024.46 1447.45 1014.87C1429.19 1005.18 1411.36 994.771 1393.66 984.104C1385.37 979.099 1377.37 973.831 1369.29 968.484C1361.27 963.164 1353.24 957.923 1345.51 952.209C1339.76 948.016 1334.05 943.77 1328.33 939.551C1325.29 937.323 1322.14 935.2 1319.2 932.842C1309.76 925.163 1300.27 917.484 1290.83 909.805C1283.72 904.065 1277.01 897.828 1270.19 891.774C1263.24 885.615 1256.13 879.587 1249.5 873.088C1240.05 863.889 1230.64 854.664 1221.22 845.465C1214.64 839.017 1208.53 832.046 1202.21 825.311C1175.07 796.351 1148.53 766.762 1122.2 737.069C1107.75 720.768 1093.32 704.44 1078.87 688.113C1072.71 681.168 1066.68 674.091 1060.36 667.277C1052.17 658.472 1043.97 649.692 1035.81 640.912C1027 631.425 1017.71 622.41 1008.93 612.896C1004.26 607.838 999.618 602.806 995.186 597.512C990.649 592.113 984.197 585.876 983.856 578.38C983.647 573.375 984.643 568.683 987.869 564.7C990.99 560.769 995.632 558.226 1000.61 557.702C1008.11 556.916 1016.06 561.188 1019.52 567.871C1020.1 568.631 1020.7 569.391 1021.28 570.177C1034.37 585.587 1048.53 599.949 1062.59 614.442C1076.28 628.568 1089.41 643.245 1102.42 657.947C1129.3 688.375 1156.18 718.802 1183.41 748.915C1199.51 766.71 1215.59 784.531 1232 802.064C1238.53 809.009 1244.93 816.033 1251.75 822.69C1260.93 831.627 1270.08 840.59 1279.26 849.527C1287.63 856.918 1295.94 864.334 1304.31 871.725C1310.76 877.438 1317.39 882.837 1324.11 888.262C1331.37 894.159 1338.48 900.292 1346.03 905.848C1355.47 912.793 1364.91 919.712 1374.36 926.683C1383.56 932.737 1392.77 938.87 1401.97 944.95C1410.78 950.794 1420.07 956.009 1429.11 961.487C1445.72 971.525 1462.97 980.461 1480.07 989.582C1497.64 998.44 1515.27 1006.98 1533.18 1015.16C1551.4 1023.49 1570.13 1030.75 1588.72 1038.22C1597.64 1041.81 1606.58 1045.38 1615.53 1048.92C1620.51 1050.91 1625.54 1052.74 1630.4 1055C1639.68 1059.32 1647.42 1068.15 1645.95 1078.98C1645.27 1083.85 1643.85 1088.36 1640.65 1092.21C1637.97 1095.41 1635.09 1098.4 1632.07 1101.28C1627.98 1105.18 1623.92 1109.12 1619.85 1113.05C1613.53 1119.18 1607.61 1125.71 1601.65 1132.18C1588.12 1147.48 1574.74 1162.89 1561.11 1178.09C1548.05 1192.69 1534.88 1207.19 1521.72 1221.7C1507 1237.98 1492.27 1254.15 1477 1269.9C1470.47 1276.66 1463.65 1283.06 1456.57 1289.24C1448.89 1295.95 1440.97 1302.56 1432.47 1308.24C1428.35 1310.97 1424.31 1313.98 1420.01 1316.45C1416.13 1318.67 1412.25 1320.93 1408.4 1323.16C1405.12 1325.04 1401.68 1326.61 1398.33 1328.29C1390.69 1332.07 1382.96 1335.42 1374.88 1338.2C1364.94 1341.63 1354.69 1343.83 1344.25 1345.14C1339.58 1345.75 1334.89 1345.98 1330.19 1345.98C1323.22 1345.98 1316.21 1345.43 1309.29 1344.57L1309.13 1344.46Z" fill="black"/>
<path d="M683.075 724.123C677.096 723.101 671.72 719.379 668.835 714.033C666.029 708.817 666.081 702.763 665.897 696.998C665.74 691.651 665.766 686.305 665.74 680.932C665.688 657.188 665.897 633.47 665.897 609.752C665.897 599.478 675.076 591.144 685.147 591.38C695.585 591.616 703.531 600.369 703.531 610.616C703.531 625.503 703.479 640.415 703.426 655.301C703.4 665.443 703.216 675.612 703.295 685.781C710.166 685.414 717.037 685.178 723.935 685.204C729.757 685.23 735.553 685.335 741.348 685.466C743.656 685.519 745.964 685.597 748.298 685.702C751.944 674.118 754.907 662.298 757.53 650.452C757.503 650.61 757.477 650.741 757.425 650.898C757.451 650.741 757.477 650.61 757.53 650.452C757.661 649.823 757.818 649.194 757.949 648.539C757.818 649.116 757.687 649.692 757.556 650.269C759.024 643.35 760.388 636.379 761.385 629.355C762.853 619.186 772.767 612.058 782.837 613.578C793.039 615.124 800.094 624.9 798.625 635.016C797.209 644.87 795.111 654.619 792.934 664.343C791.649 670.108 790.128 675.822 788.633 681.509C786.929 688.034 785.198 694.586 782.837 700.929C781.054 705.672 779.087 710.311 775.914 714.321C772.032 719.169 766.368 722.157 760.31 723.127C754.671 724.044 748.561 723.31 742.87 723.153C731.855 722.865 720.866 722.681 709.852 723.048C704.633 723.337 699.414 723.677 694.169 724.097C691.939 724.28 689.684 724.49 687.455 724.49C685.986 724.49 684.518 724.411 683.049 724.149L683.075 724.123Z" fill="black"/>
<path d="M672.742 1287.22C664.298 1283.56 660.6 1274.83 656.404 1267.28C642.819 1242.86 628.08 1219.11 613.236 1195.45C613.472 1195.81 613.708 1196.18 613.944 1196.55C607.991 1187.06 601.828 1177.57 597.081 1167.4C595.088 1163.13 593.357 1158.6 592.728 1153.91C592.308 1150.76 592.308 1147.67 592.413 1144.5C592.597 1140.12 592.833 1135.77 593.095 1131.42C594.17 1112.34 595.534 1093.23 597.081 1074.18C598.734 1053.82 600.963 1033.53 603.533 1013.25C606.103 993.147 609.46 973.124 612.581 953.127C618.036 918.087 624.435 883.126 632.355 848.532C640.485 812.941 649.716 777.639 657.846 742.049C658.869 737.07 659.918 732.116 660.836 727.137C661.754 722.079 662.278 716.785 663.668 711.831C666.474 701.977 677.122 696.107 686.983 698.937C696.765 701.741 702.587 712.172 699.964 721.921C697.945 731.88 696.45 741.918 694.195 751.851C691.31 764.431 688.32 776.958 685.304 789.485C679.535 813.465 673.398 837.341 667.995 861.4C664.429 878.278 660.81 895.129 657.794 912.112C654.358 931.532 651.054 950.926 648.011 970.398C645.389 987.302 642.688 1004.23 640.511 1021.16C638.203 1039.19 636.315 1057.28 634.715 1075.39C633.719 1087.89 632.748 1100.39 631.935 1112.89C631.516 1119.34 631.148 1125.78 630.755 1132.23C630.44 1137.58 629.995 1142.95 629.995 1148.3C630.073 1148.59 630.152 1148.87 630.231 1149.16C630.414 1149.69 630.624 1150.24 630.86 1150.76C635.109 1159.59 640.406 1167.87 645.573 1176.18C645.127 1175.47 644.681 1174.77 644.235 1174.06C654.043 1189.65 663.773 1205.3 673.188 1221.13C677.778 1228.81 682.157 1236.62 686.563 1244.4C691.048 1241.34 695.48 1238.24 699.859 1235.05C709.196 1228.2 718.427 1221.18 727.659 1214.18C736.339 1207.61 745.099 1201.11 753.963 1194.76C758.08 1191.83 762.224 1188.92 766.446 1186.09C767.417 1185.43 768.413 1184.8 769.436 1184.15C769.436 1183.44 769.383 1182.73 769.357 1182.03C768.203 1162.16 766.263 1142.37 764.479 1122.59C762.644 1102.28 760.965 1081.97 759.365 1061.63C756.192 1021.32 753.281 981.012 751.314 940.626C749.347 900.056 748.403 859.486 747.433 818.891C746.567 782.776 745.125 746.662 744.259 710.547C744.181 707.245 744.102 703.969 744.102 700.693C744.05 690.446 753.307 682.085 763.352 682.321C773.816 682.557 781.71 691.311 781.736 701.558C781.788 712.722 782.26 723.887 782.601 735.025C783.204 754.288 783.86 773.551 784.411 792.84C785.538 831.994 786.247 871.149 787.61 910.33C789.367 951.424 791.833 992.439 794.98 1033.43C797.943 1072.5 801.536 1111.53 804.84 1150.55C805.732 1160.98 806.676 1171.41 807.017 1181.87C807.279 1189.5 807.542 1197.28 803.451 1204.09C800.959 1208.26 797.078 1210.99 793.118 1213.61C779.192 1222.83 765.686 1232.66 752.363 1242.78C737.493 1254.07 722.702 1265.63 707.15 1276.01C703.793 1278.26 700.463 1280.54 697.08 1282.8C693.801 1284.97 690.261 1287.3 686.38 1288.14C684.465 1288.56 682.551 1288.8 680.636 1288.8C677.961 1288.8 675.339 1288.33 672.795 1287.22H672.742Z" fill="black"/>
</g>
<defs>
<clipPath id="clip0_157_200">
<rect width="1293" height="1834" fill="white" transform="translate(353 83)"/>
</clipPath>
</defs>
</svg>
