<svg width="2000" height="2000" viewBox="0 0 2000 2000" fill="none" xmlns="http://www.w3.org/2000/svg">
<g clip-path="url(#clip0_157_201)">
<path d="M917.294 611.835C910.923 611.695 904.553 611.555 898.211 611.415C892.204 611.304 886.168 610.549 880.189 610.074C869.516 609.264 858.955 607.699 848.449 605.688C827.55 601.664 807.516 595.07 787.651 587.498C777.816 583.754 768.232 579.228 758.872 574.45C749.624 569.7 740.488 564.671 731.77 559.027C714.196 547.683 696.705 535.501 681.925 520.58C674.046 512.617 666.642 504.319 659.88 495.35C653.146 486.409 647.419 476.797 641.886 467.074C636.801 458.105 632.582 448.633 628.28 439.273C623.865 429.661 619.981 419.686 616.74 409.628C610.09 389.035 604.474 368.024 603.021 346.342C601.485 323.542 602.714 300.603 607.827 278.278C610.062 268.499 612.549 258.832 615.874 249.36C619.59 238.854 623.781 228.628 628.475 218.541C637.304 199.43 648.564 181.185 662.003 164.979C669.016 156.457 676.7 148.662 685.362 141.788C694.386 134.635 703.886 128.377 713.777 122.509C722.829 117.144 732.525 112.59 742.192 108.455C752.055 104.208 762.114 100.408 772.34 97.083C793.015 90.3772 814.25 85.1244 835.96 83.5876C858.2 82.023 880.441 84.1185 902.458 87.0802C913.578 88.589 924.67 90.2934 935.567 92.9478C940.875 94.233 946.128 95.658 951.409 97.083C958.897 99.1227 967 100.967 973.929 104.459C974.516 104.739 975.074 105.046 975.605 105.381C988.346 108.036 1001.06 110.914 1013.69 114.043C1033.61 118.989 1053 125.638 1071.69 134.104C1081.16 138.407 1090.47 143.129 1099.72 147.907C1108.57 152.489 1117.43 157.519 1125.7 163.135C1135.03 169.477 1144.25 175.988 1153.05 183.084C1161.63 190.014 1169.57 197.725 1176.94 205.912C1184.15 213.931 1190.27 222.9 1196.39 231.757C1202.65 240.838 1207.98 250.589 1213.1 260.341C1218.24 270.092 1222.54 280.234 1226.76 290.405C1228.49 294.652 1229.86 299.094 1231.37 303.425C1233.24 308.706 1234.81 314.322 1236.04 319.798C1237.66 326.979 1239.19 334.076 1240.34 341.369C1241.93 351.511 1242.1 361.737 1241.99 371.992C1241.9 382.022 1241.04 391.969 1239.53 401.86C1237.94 412.198 1235.11 422.285 1231.99 432.232C1227.65 446.007 1222.65 459.753 1216 472.578C1203.1 497.529 1183.76 518.457 1162.11 536.143C1151.41 544.917 1140.17 552.74 1128.33 559.865C1115.64 567.521 1102.12 573.807 1088.46 579.451C1075.41 584.844 1061.83 588.867 1048.39 593.226C1043.19 594.903 1037.8 596.048 1032.52 597.389C1027.43 598.675 1022.29 600.323 1017.1 601.273C1011.31 602.335 1005.53 603.369 999.718 604.43C994.744 605.324 989.743 606.498 984.714 607.085C978.232 607.811 971.749 608.566 965.267 609.32C960.992 609.795 956.718 610.41 952.415 610.633C941.965 611.136 931.488 611.946 921.038 611.946C919.781 611.946 918.523 611.946 917.266 611.918L917.294 611.835ZM899.133 571.321C907.403 571.488 915.701 571.656 923.972 571.824C932.913 571.404 941.853 570.957 950.794 570.538C955.516 570.315 960.294 569.449 964.988 568.918C970.213 568.331 975.438 567.716 980.635 567.129C989.743 565.481 998.879 563.832 1007.99 562.184C1012.49 561.374 1016.98 559.921 1021.4 558.803C1026.26 557.574 1031.12 556.344 1035.98 555.115C1041.91 553.215 1047.8 551.287 1053.73 549.387C1063.87 546.118 1073.79 542.262 1083.54 537.959C1093.93 533.126 1104.02 527.817 1113.8 521.81C1122.15 516.389 1130.12 510.55 1137.85 504.263C1145.73 497.557 1153.22 490.46 1160.26 482.888C1164.34 478.25 1168.25 473.528 1171.89 468.527C1175.02 463.805 1177.89 458.971 1180.55 453.97C1184.68 445.42 1188.04 436.646 1191.36 427.733C1194.04 419.239 1196.7 410.801 1198.74 402.14C1199.91 396.021 1200.8 389.874 1201.45 383.699C1201.98 376.239 1202.12 368.723 1201.95 361.262C1201.64 355.143 1201.03 349.108 1200.08 343.073C1198.43 334.244 1196.08 325.638 1193.65 317.004C1190.8 308.957 1187.78 301.078 1184.51 293.199C1181.36 286.521 1178.12 279.955 1174.68 273.417C1171.05 266.543 1166.88 259.977 1162.75 253.411C1163.22 254.166 1163.7 254.92 1164.17 255.674C1159.09 248.298 1153.86 241.089 1148.33 234.02C1144.42 229.718 1140.42 225.61 1136.26 221.559C1132.04 217.843 1127.77 214.238 1123.38 210.69C1119.19 207.309 1114.72 204.264 1110.33 201.162C1098.85 193.395 1086.95 186.493 1074.71 180.067C1062.5 174.06 1050.26 168.22 1037.63 163.219C1017.43 156.15 996.756 151.092 975.857 146.482C965.882 144.331 955.879 142.263 945.821 140.419C941.183 139.581 937.104 137.262 934.114 134.021C930.314 133.015 926.514 132.065 922.714 131.143C907.124 128.125 891.421 126.03 875.635 124.353C864.822 123.487 854.093 123.04 843.252 123.319C836.686 123.794 830.204 124.493 823.694 125.387C812.043 127.566 800.615 130.416 789.244 133.769C777.564 137.597 766.137 141.844 754.849 146.706C745.629 151.009 736.66 155.647 727.887 160.844C721.488 164.951 715.341 169.31 709.362 174.004C704.808 177.971 700.505 182.079 696.342 186.465C691.453 192.389 686.814 198.424 682.344 204.627C677.231 212.506 672.537 220.525 668.122 228.795C663.4 238.463 659.098 248.242 655.242 258.301C651.889 267.996 649.123 277.72 646.776 287.722C645.379 294.903 644.233 302.056 643.367 309.293C642.641 318.569 642.417 327.761 642.585 337.094C643.088 344.33 643.842 351.455 644.848 358.636C646.748 368.695 649.151 378.53 651.973 388.365C655.717 399.876 659.852 411.192 664.546 422.369C664.49 422.257 664.434 422.145 664.378 422.033C667.452 428.711 670.525 435.389 673.906 441.871C677.538 448.773 681.394 455.45 685.473 462.072C689.972 468.638 694.666 474.897 699.667 481.044C704.948 486.884 710.396 492.388 716.124 497.753C723.975 504.486 732.078 510.773 740.46 516.808C751.273 524.073 762.281 530.835 773.737 537.121C785.975 543.324 798.408 548.744 811.233 553.662C824.309 558.244 837.441 562.24 850.908 565.397C860.044 567.129 869.153 568.554 878.401 569.84C885.274 570.399 892.231 571.237 899.105 571.376L899.133 571.321Z" fill="black"/>
<path d="M834.786 1384.48C812.573 1384.06 790.361 1383.25 768.176 1381.77C753.759 1380.82 739.454 1379.45 725.232 1376.63C712.771 1374.14 700.309 1370.81 689.441 1364.03C679.997 1358.1 673.682 1348.8 671.81 1337.84C670.581 1330.78 670.581 1323.51 670.246 1316.36C668.43 1274.22 667.955 1232.01 667.228 1189.84C666.53 1146.87 666.446 1103.9 667.2 1060.92C667.955 1017.39 668.793 973.861 670.637 930.357C672.537 886.099 674.716 841.785 678.488 797.639C680.332 776.069 682.036 754.471 684.188 732.928C686.563 708.871 689.133 684.842 691.816 660.785C694.051 640.892 696.537 620.998 699.136 601.132C700.673 589.509 702.265 577.858 703.914 566.262C705.143 557.489 705.897 547.989 710.033 540.026C713.637 533.097 720.873 529.129 728.557 529.129C739.51 529.129 748.395 538.908 748.143 549.665C748.059 552.906 747.221 555.924 745.768 558.578C742.415 576.433 740.46 594.65 738.085 612.644C736.073 627.983 734.285 643.35 732.385 658.69C728.641 689.341 725.707 720.076 722.662 750.81C720.957 770.816 719.141 790.794 717.716 810.799C715.984 835.275 714.363 859.779 712.966 884.283C710.508 927.032 709.25 969.866 708.272 1012.67C707.239 1056.54 706.708 1100.43 706.847 1144.3C706.959 1187.22 708.049 1230.13 708.971 1273.02C709.278 1286.77 709.725 1300.46 710.256 1314.18C710.256 1314.04 710.256 1313.93 710.256 1313.79C710.48 1319.29 710.647 1324.85 711.206 1330.33C711.206 1330.33 711.234 1330.36 711.262 1330.38C711.765 1330.69 712.296 1331.03 712.827 1331.31C714.196 1331.95 715.593 1332.54 716.99 1333.07C721.348 1334.52 725.763 1335.72 730.261 1336.73C739.789 1338.65 749.345 1340.02 759.012 1340.92C793.183 1343.57 827.521 1344.41 861.776 1344.77C877.395 1344.94 893.014 1345.25 908.632 1345.05C925.285 1344.83 941.937 1344.44 958.589 1343.91C957.723 1343.94 956.885 1343.96 956.019 1344.02C999.662 1342.2 1043.3 1340.28 1086.95 1338.26C1106.62 1337.34 1126.29 1336.45 1145.98 1335.64C1147.72 1335.55 1149.48 1335.5 1151.24 1335.41C1151.8 1335.36 1152.36 1335.36 1152.94 1335.36C1153.5 1335.36 1154.06 1335.3 1154.65 1335.3C1158.11 1334.86 1161.72 1334.85 1165.18 1334.83C1165.46 1333.79 1165.74 1332.73 1165.99 1331.7C1166.74 1327.48 1167.33 1323.23 1167.75 1318.96C1169.65 1292.66 1168.42 1266.2 1167.61 1239.88C1165.71 1195.43 1163.22 1151.01 1160.77 1106.58C1158.31 1062.57 1156.55 1018.54 1155.15 974.504C1154.53 955.309 1153.95 936.141 1153.25 916.946C1151.35 874.113 1148.81 831.308 1144.5 788.614C1140.2 745.837 1136.15 703.06 1131.88 660.283C1128.89 630.302 1125.45 600.238 1120.5 570.481C1119.69 565.983 1118.83 561.512 1117.85 557.042C1115.47 546.368 1121.98 535.416 1132.74 532.873C1143.25 530.386 1154.51 537.064 1156.91 547.737C1160.71 564.725 1163.03 582.077 1165.24 599.372C1167.86 619.796 1170.21 640.221 1172.28 660.73C1174.4 681.853 1176.33 703.004 1178.4 724.155C1180.38 744.664 1182.61 765.144 1184.54 785.652C1188.48 827.117 1191.22 868.608 1193.06 910.184C1194.88 950.726 1195.72 991.324 1197.26 1031.87C1197.23 1031.03 1197.2 1030.16 1197.17 1029.32C1199.18 1074.11 1201.61 1118.9 1204.1 1163.66C1205.3 1185.43 1206.34 1207.19 1207.26 1228.93C1207.76 1240.42 1208.1 1251.93 1208.43 1263.41C1208.71 1272.88 1209.05 1282.44 1208.85 1291.91C1208.68 1298.78 1208.52 1305.66 1208.38 1312.53C1208.21 1318.9 1207.51 1325.3 1206.7 1331.64C1205.83 1338.63 1204.35 1346.03 1201.64 1352.54C1199.27 1358.19 1196.17 1364.05 1191.11 1367.74C1188.73 1369.47 1186.44 1371.23 1183.65 1372.3C1180.21 1373.61 1176.72 1374.22 1173.09 1374.61C1167.95 1375.15 1162.64 1375.09 1157.47 1375.26C1156.74 1375.29 1156.02 1375.34 1155.32 1375.37C1151.38 1375.9 1147.19 1375.68 1143.27 1375.84C1137.85 1376.07 1132.43 1376.32 1127.04 1376.54C1116.48 1377.02 1105.92 1377.49 1095.36 1377.97C1051.74 1379.95 1008.13 1381.96 964.485 1383.72C940.596 1384.7 916.735 1385.09 892.846 1385.09C873.511 1385.09 854.177 1384.84 834.842 1384.48H834.786Z" fill="black"/>
<path d="M857.613 680.988C853.786 653.69 849.678 626.448 845.32 599.261C843.587 588.448 852.752 578.278 863.173 577.216C868.37 576.657 873.707 578.194 877.786 581.463C882.117 584.928 884.38 589.678 885.246 595.07C889.633 622.285 893.74 649.499 897.54 676.797C899.049 687.61 890.276 697.752 879.686 698.842C878.988 698.926 878.289 698.954 877.591 698.954C867.392 698.954 859.066 691.13 857.641 680.988H857.613Z" fill="black"/>
<path d="M948.363 719.462C937.662 717.841 929.727 707.392 931.543 696.606C934.98 676.182 938.584 655.785 942.161 635.36C943.781 626.112 945.374 616.892 947.05 607.671C948.084 601.943 948.95 596.076 950.431 590.432C951.493 586.408 952.694 582.525 955.348 579.2C958.534 575.204 963.758 571.963 968.983 571.739C974.32 571.516 979.293 572.578 983.568 575.986C987.759 579.339 990.469 584.285 991.028 589.594C991.364 592.667 990.861 595.852 989.743 598.786C989.547 599.513 989.352 600.239 989.156 600.965C985.803 617.45 983.121 634.103 980.215 650.672C977.198 667.967 974.152 685.29 971.246 702.614C969.598 712.421 961.104 719.658 951.381 719.658C950.403 719.658 949.397 719.574 948.391 719.434L948.363 719.462Z" fill="black"/>
<path d="M906.956 703.842C898.602 703.759 890.248 703.256 881.894 703.256C870.941 703.256 862.056 693.476 862.307 682.747C862.559 671.627 871.891 663.133 882.816 663.133C890.723 663.133 898.658 663.552 906.565 663.692C915.115 663.859 923.692 663.775 932.242 663.496C933.024 663.468 933.807 663.412 934.589 663.384C939.926 663.105 944.955 664.25 949.202 667.659C953.365 670.984 956.103 675.93 956.662 681.238C957.752 691.688 949.761 702.725 938.808 703.284C930.733 703.703 922.631 703.842 914.528 703.842C912.013 703.842 909.471 703.842 906.956 703.814V703.842Z" fill="black"/>
<path d="M898.658 1281.24C895.473 1281.15 892.651 1280.17 889.689 1279.03C882.648 1276.32 878.68 1269.11 875.3 1262.85C873.009 1258.58 870.829 1254.27 868.622 1249.97C859.29 1231.78 850.125 1213.54 841.436 1195.04C836.882 1185.37 832.355 1175.68 828.108 1165.87C824.448 1157.38 821.626 1148.94 820.09 1139.8C819.084 1133.68 819.307 1127.2 819.307 1121.02C819.335 1101.02 819.894 1081.1 821.347 1061.12C822.912 1039.66 824.644 1018.2 827.159 996.828C829.813 974.475 832.719 952.207 835.569 929.882C838.167 909.401 840.235 888.865 842.358 868.329C842.302 868.832 842.274 869.334 842.218 869.837C843.587 853.799 844.956 837.761 846.102 821.696C847.22 805.937 848.198 790.178 849.371 774.42C850.712 756.733 852.249 739.075 854.009 721.416C854.736 714.068 855.518 706.72 856.412 699.371C857.138 693.308 857.53 686.742 860.044 681.126C862.447 675.733 866.275 671.682 871.807 669.447C881.921 665.339 893.88 671.039 897.68 681.07C899.524 685.932 899.3 691.017 897.54 695.459C897.484 695.627 897.456 695.795 897.4 695.962C895.612 706.356 894.746 716.974 893.712 727.479C892.623 738.32 891.645 749.161 890.667 760.002C887.37 803.981 884.799 847.988 880.273 891.855C875.83 934.911 869.32 977.716 864.99 1020.8C864.654 1024.13 864.319 1027.45 864.012 1030.8C861.19 1064.19 858.675 1097.67 859.597 1131.19C859.737 1132.9 859.932 1134.58 860.156 1136.25C860.38 1137.37 860.659 1138.46 860.938 1139.55C863.481 1147.29 866.973 1154.72 870.354 1162.15C870.27 1161.99 870.215 1161.85 870.131 1161.68C876.976 1176.49 883.877 1191.24 891.198 1205.82C894.802 1213.03 898.378 1220.3 902.038 1227.51C905.755 1221.58 909.387 1215.6 913.047 1209.65C919.194 1199.59 925.816 1189.81 932.493 1180.09C944.592 1162.46 957.5 1145.47 969.905 1128.07C969.905 1127.53 969.933 1127 969.905 1126.47C969.151 1115.46 967.335 1104.51 965.686 1093.61C964.094 1083.16 962.501 1072.71 960.937 1062.24C957.779 1041.11 954.622 1019.96 952.163 998.756C949.621 976.655 947.274 954.554 945.625 932.369C944.005 910.77 943.167 889.172 942.524 867.546C941.351 827.088 942.105 786.602 940.792 746.172C940.289 734.688 939.534 723.232 938.221 711.777C936.936 700.517 935.204 689.257 933.639 678.024C932.158 667.183 940.875 657.069 951.493 655.979C962.613 654.806 972.057 662.992 973.538 673.833C975.941 691.24 978.567 708.564 979.852 726.11C981.193 744.523 981.361 762.992 981.473 781.461C981.696 819.013 982.032 856.593 983.456 894.146C985.608 936.755 989.687 979.141 995.499 1021.39C998.405 1042.59 1001.62 1063.75 1004.83 1084.9C1006.54 1095.96 1008.21 1107.03 1009.39 1118.15C1010.42 1127.81 1010.36 1138.43 1005.25 1147.07C1002.37 1151.93 998.74 1156.4 995.359 1160.95C985.748 1173.94 976.36 1187.1 967.083 1200.35C961.412 1208.62 955.796 1216.92 950.431 1225.38C944.871 1234.21 939.478 1243.18 933.974 1252.04C929.783 1258.77 925.201 1265.81 919.557 1271.37C915.645 1275.23 911.091 1279 905.615 1280.29C903.408 1280.82 901.228 1281.29 898.937 1281.29C898.797 1281.29 898.658 1281.29 898.546 1281.29L898.658 1281.24Z" fill="black"/>
<path d="M484.638 1206.05C474.189 1205.83 464.158 1196.44 465.052 1185.51C466.812 1163.89 469.383 1142.32 472.065 1120.77C474.608 1100.01 477.849 1079.34 482.263 1058.86C491.568 1015.47 502.716 972.437 515.233 929.855C521.575 908.229 528.533 886.826 535.937 865.536C543.313 844.301 551.639 823.429 560.049 802.585C567.984 782.859 576.31 763.273 584.469 743.63C592.376 724.603 600.143 705.463 608.554 686.631C611.739 679.478 614.756 672.186 618.165 665.117C621.797 657.685 625.402 650.252 629.006 642.792C632.638 635.36 636.829 628.151 640.741 620.887C643.982 614.907 647.586 608.928 651.302 603.228C660.131 589.705 669.212 576.461 679.047 563.608C683.517 557.741 688.211 552.013 693.129 546.481C700.142 538.573 708.189 529.744 719.588 529.744C730.988 529.744 739.426 539.523 739.202 550.281C739.035 557.769 734.732 564.083 728.585 567.38C728.585 567.38 728.557 567.408 728.529 567.436C727.663 568.219 726.825 569.029 725.987 569.867C714.643 582.748 704.473 596.411 694.554 610.409C689.133 618.679 683.853 626.978 678.823 635.472C674.074 643.407 669.771 651.621 665.384 659.752C657.7 675.539 650.129 691.325 643.227 707.503C635.684 725.189 628.223 742.96 620.847 760.702C613.303 778.836 605.592 796.913 598.244 815.13C591.063 832.957 584.078 850.811 577.232 868.749C567.118 897.891 557.367 927.117 549.18 956.902C540.379 988.866 532.053 1020.89 524.453 1053.16C522.05 1064.45 519.731 1075.73 517.58 1087.08C515.596 1097.64 514.171 1108.31 512.718 1118.99C509.757 1140.53 507.354 1162.21 505.398 1183.86C505.342 1184.73 505.258 1185.6 505.174 1186.46C504.727 1191.85 502.967 1196.69 498.972 1200.52C495.256 1204.07 490.254 1206.08 485.113 1206.08C484.946 1206.08 484.806 1206.08 484.638 1206.08V1206.05Z" fill="black"/>
<path d="M470.305 1237.34C463.767 1237.2 456.726 1233.85 452.982 1228.4C449.266 1222.98 447.785 1217.31 447.897 1210.74C447.981 1205.52 449.713 1200.32 451.725 1195.6C453.932 1190.49 456.894 1185.48 460.777 1181.46C468.489 1173.55 479.693 1170.28 489.807 1174.31C498.776 1177.24 504.644 1186.99 503.191 1196.41C502.464 1201.24 500.061 1205.32 496.709 1208.28C497.128 1211.69 496.681 1215.21 495.228 1218.54C490.869 1228.57 482.515 1237.37 470.836 1237.37C470.64 1237.37 470.473 1237.37 470.277 1237.37L470.305 1237.34Z" fill="black"/>
<path d="M447.534 1326.14C436.777 1325.89 427.473 1316.53 427.948 1305.6C428.311 1297.08 428.87 1288.53 429.54 1280.01C430.35 1269.56 430.909 1259.02 433.172 1248.77C434.011 1244.89 435.184 1241.2 436.525 1237.45C438.118 1233.04 440.744 1229.02 443.287 1225.13C445.746 1221.39 448.232 1217.64 450.719 1213.93C453.876 1209.15 456.95 1204.04 460.805 1199.79C465.332 1194.82 470.864 1191.8 477.709 1191.8C488.634 1191.8 497.547 1201.58 497.295 1212.34C497.156 1218.06 494.613 1223.12 490.674 1226.64C489.863 1227.65 489.109 1228.71 488.382 1229.77C483.465 1237.06 478.128 1244.33 473.909 1252.09C473.77 1252.46 473.602 1252.79 473.462 1253.16C472.987 1254.72 472.568 1256.29 472.205 1257.88C471.367 1262.6 470.864 1267.32 470.389 1272.07C469.439 1283.56 468.573 1295.04 468.07 1306.55C467.623 1317.31 458.905 1326.17 448.009 1326.17C447.869 1326.17 447.701 1326.17 447.562 1326.17L447.534 1326.14Z" fill="black"/>
<path d="M453.401 1903.62C442.784 1902.81 432.167 1901.83 421.605 1900.4C412.301 1899.15 403.193 1896.69 394.475 1893.19C383.718 1888.89 374.638 1881.24 369.469 1870.84C366.367 1864.61 365.557 1857.49 364.551 1850.67C363.825 1845.61 363.098 1840.55 362.456 1835.47C361.198 1825.55 360.137 1815.6 359.103 1805.66C354.94 1766.04 352.062 1726.22 351.335 1686.38C350.944 1664.19 350.804 1642.03 351.252 1619.85C351.671 1599.43 352.649 1579 353.487 1558.58C354.437 1536.11 355.359 1513.62 356.337 1491.15C357.231 1470.09 358.041 1448.91 359.885 1427.9C360.891 1416.5 361.897 1405.18 363.378 1393.84C364.383 1386.07 365.529 1378.39 367.038 1370.7C369.664 1357.32 373.352 1343.46 379.862 1331.39C385.534 1320.88 393.777 1310.91 405.316 1306.63C412.273 1304.06 419.454 1302.97 426.774 1302.08C432.111 1301.44 437.531 1301.16 442.924 1301.16C448.232 1301.16 453.737 1301.88 458.403 1304.59C466.896 1309.51 470.165 1320.3 466.757 1329.15C468.07 1329.99 469.271 1331 470.333 1332.12C474.105 1336.06 475.781 1341.06 475.893 1346.45C476.117 1357.63 476.424 1368.77 476.843 1379.95C478.631 1421.08 482.711 1462.07 485.113 1503.17C487.656 1546.37 489.668 1589.62 492.043 1632.81C494.418 1675.76 497.435 1718.68 500.062 1761.62C501.403 1783.64 502.129 1805.71 502.436 1827.78C502.632 1842.37 501.934 1857.07 498.525 1871.29C497.212 1876.74 494.641 1881.96 491.735 1886.71C489.109 1890.99 485.561 1894.34 481.705 1897.55C475.67 1902.55 467.818 1903.87 460.163 1903.87C457.872 1903.87 455.609 1903.76 453.401 1903.59V1903.62ZM458.682 1863.74C458.905 1863.27 459.101 1862.77 459.297 1862.26C459.66 1861.12 459.995 1859.94 460.302 1858.77C460.861 1855.73 461.28 1852.71 461.644 1849.63C462.901 1832.73 462.174 1815.69 461.727 1798.75C461.755 1799.59 461.783 1800.46 461.839 1801.3C460.051 1757.79 456.754 1714.35 454.1 1670.87C451.445 1627.59 449.294 1584.25 447.003 1540.97C445.271 1508.03 443.203 1475.12 440.605 1442.23C438.062 1410.02 436.441 1377.86 435.771 1345.56C435.743 1344.19 435.883 1342.87 436.134 1341.59C431.859 1341.92 427.612 1342.43 423.365 1343.07C422.695 1343.21 422.052 1343.35 421.382 1343.52C421.018 1343.66 420.627 1343.8 420.264 1343.94L419.985 1344.08C419.761 1344.21 419.538 1344.38 419.286 1344.52C419.035 1344.75 418.783 1344.97 418.532 1345.19C418.141 1345.67 417.749 1346.17 417.358 1346.67C416.632 1347.79 415.933 1348.96 415.263 1350.14C413.977 1352.9 412.832 1355.67 411.742 1358.49C409.87 1364 408.334 1369.58 406.992 1375.23C402.969 1394.76 401.209 1414.57 399.476 1434.38C396.906 1477.74 395.174 1521.14 393.358 1564.53C392.463 1586.27 391.569 1607.98 391.15 1629.74C390.731 1650.44 391.094 1671.15 391.514 1691.85C391.625 1697.33 391.765 1702.81 391.905 1708.28C391.905 1708.2 391.905 1708.11 391.905 1708.03C392.938 1732.26 394.755 1756.42 396.962 1780.54C399.113 1804.12 401.404 1827.76 405.176 1851.14C405.344 1851.9 405.512 1852.68 405.651 1853.43C405.651 1853.49 405.679 1853.57 405.707 1853.63C405.707 1853.63 405.707 1853.63 405.707 1853.66C405.987 1853.85 406.238 1854.08 406.517 1854.27C407.16 1854.69 407.831 1855.08 408.501 1855.45C409.675 1856 410.876 1856.54 412.078 1857.01C414.62 1857.85 417.135 1858.58 419.733 1859.25C429.037 1861.09 438.425 1862.1 447.869 1862.93C451.445 1863.24 455.022 1863.52 458.626 1863.69L458.682 1863.74Z" fill="black"/>
<path d="M471.646 1892.11C461.727 1887.83 456.698 1875.65 461.196 1865.73C469.439 1847.6 477.737 1829.52 486.594 1811.66C495.786 1793.14 505.398 1774.78 514.898 1756.43C524.453 1737.68 533.897 1718.87 542.894 1699.85C547.867 1689.26 552.729 1678.64 557.506 1667.97C562.005 1657.91 565.665 1647.48 569.409 1637.12C572.762 1627.17 576.059 1617.22 578.853 1607.08C579.412 1604.34 579.915 1601.61 580.25 1598.81C580.362 1596.58 580.362 1594.34 580.306 1592.11C577.623 1551.03 573.181 1510.07 569.996 1469.03C566.475 1423.93 563.402 1378.81 559.127 1333.77C557.451 1316.16 554.796 1298.67 552.198 1281.18C550.466 1271.49 548.817 1261.79 546.638 1252.18C536.998 1264.45 527.778 1277.05 518.055 1289.23C509.924 1299.43 501.039 1308.93 491.791 1318.12C487.6 1322.31 482.99 1326.22 478.408 1329.97C472.205 1335 466.086 1340.08 457.676 1340.08C446.751 1340.08 437.838 1330.3 438.09 1319.54C438.257 1312.53 442.001 1306.58 447.506 1303.14C449.825 1301.47 452.06 1299.71 454.295 1297.92C462.398 1290.88 469.914 1283.36 477.234 1275.54C490.422 1260.06 502.38 1243.6 514.925 1227.59C521.296 1219.46 527.778 1211.25 535.015 1203.9C538.563 1200.29 543.844 1197.56 548.901 1197.02C553.986 1196.49 559.77 1197.33 564.184 1199.96C574.494 1206.16 579.16 1218.48 582.345 1229.44C584.944 1238.4 586.928 1247.51 588.576 1256.68C589.75 1263.24 591.119 1269.81 592.097 1276.4C593.577 1286.46 595.198 1296.52 596.399 1306.64C599.082 1329.24 601.345 1351.84 603.133 1374.53C606.681 1418.82 609.727 1463.13 613.527 1507.42C615.287 1527.84 617.075 1548.27 618.807 1568.72C619.785 1580.18 621.378 1591.97 620.149 1603.45C618.947 1614.63 615.65 1625.55 612.102 1636.2C606.765 1651.96 601.037 1667.49 594.807 1682.91C589.582 1695.79 583.379 1708.34 577.316 1720.83C564.184 1747.96 550.521 1774.81 536.663 1801.61C536.775 1801.41 536.859 1801.21 536.97 1801.02C523.363 1827.59 510.455 1854.41 498.105 1881.6C494.725 1889.06 487.32 1893.64 479.553 1893.64C476.927 1893.64 474.272 1893.11 471.73 1892.02L471.646 1892.11Z" fill="black"/>
<path d="M493.328 1235.83C491.149 1231.45 489.109 1226.95 487.097 1222.48C486.678 1221.56 486.231 1220.61 485.784 1219.71C480.196 1211.8 480.755 1200.26 488.187 1193.47C496.234 1186.1 508.891 1186.1 516.546 1194.15C517.049 1194.68 517.496 1195.21 517.943 1195.77C521.324 1200.01 523.364 1205.27 525.543 1210.24C526.577 1212.45 527.611 1214.65 528.7 1216.83C533.534 1226.64 530.405 1238.71 520.542 1244.02C517.636 1245.58 514.395 1246.34 511.126 1246.34C503.889 1246.34 496.681 1242.62 493.356 1235.86L493.328 1235.83Z" fill="black"/>
<path d="M772.479 1917C763.929 1916.97 755.464 1916.58 746.998 1915.1C735.822 1913.12 725.316 1908.98 715.341 1903.7C705.73 1898.64 697.404 1891.04 691.313 1882.07C688.155 1877.41 685.948 1872.38 684.244 1867.04C682.12 1860.22 682.009 1853.57 682.735 1846.53C683.322 1840.92 686.088 1835.58 688.714 1830.72C691.508 1825.52 696.007 1821.11 700.337 1817.2C704.78 1813.17 709.977 1809.82 715.425 1807.39C721.125 1804.87 726.769 1803.48 732.916 1802.61C744.232 1800.99 755.715 1804.15 766.081 1808.34C770.747 1810.24 775.385 1812.33 779.939 1814.46C788.74 1818.57 797.681 1822.7 806.035 1827.7C805.225 1819.01 804.387 1810.35 803.689 1801.66C801.984 1780.43 800.308 1759.16 798.715 1737.93C795.642 1696.44 792.484 1654.94 789.662 1613.42C786.785 1571.51 784.466 1529.55 782.538 1487.55C781.588 1467.1 781.029 1446.62 780.386 1426.17C780.107 1416.97 779.967 1407.75 779.827 1398.53C779.772 1394.06 779.716 1389.59 779.772 1385.09C779.828 1377.33 783.32 1369.87 790.445 1366.12C800.14 1361.04 812.406 1364.61 817.631 1374.28C819.363 1377.49 820.089 1381.04 819.95 1384.53C819.95 1384.48 819.95 1384.42 819.95 1384.37C819.335 1391.94 819.95 1399.79 820.034 1407.36C820.145 1414.99 820.341 1422.59 820.564 1430.22C821.123 1448.6 821.794 1466.96 822.492 1485.32C822.464 1484.48 822.436 1483.61 822.409 1482.77C824.42 1526.53 826.879 1570.23 829.869 1613.93C832.802 1656.84 836.071 1699.71 839.257 1742.62C840.737 1762.52 842.274 1782.41 843.95 1802.28C844.817 1812.42 845.711 1822.56 846.605 1832.7C847.08 1838.01 847.527 1843.32 847.974 1848.63C848.533 1855.28 849.147 1862.04 847.834 1868.63C847.108 1872.32 845.487 1875.96 843.056 1878.89C847.303 1888.03 844.034 1900.74 834.423 1905.15C824.308 1909.82 813.859 1912.47 802.878 1914.18C792.931 1915.71 782.705 1916.97 772.619 1916.97H772.423L772.479 1917ZM773.094 1876.88C782.286 1876.4 791.339 1875.42 800.447 1874.06C801.258 1873.89 802.04 1873.72 802.85 1873.55C802.739 1873.47 802.655 1873.38 802.543 1873.33C794.831 1868.08 787.008 1863.21 778.905 1858.55C768.316 1853.21 757.559 1847.93 746.439 1843.77C745.517 1843.49 744.623 1843.21 743.701 1842.99C742.807 1842.85 741.94 1842.71 741.074 1842.57C741.521 1842.59 741.968 1842.65 742.415 1842.68C742.611 1842.71 742.779 1842.76 742.974 1842.79C742.807 1842.76 742.639 1842.71 742.471 1842.68C742.862 1842.71 743.254 1842.73 743.645 1842.79C743.226 1842.73 742.779 1842.71 742.36 1842.65C742.08 1842.59 741.801 1842.54 741.493 1842.48C741.773 1842.54 742.024 1842.59 742.304 1842.65C740.907 1842.54 739.51 1842.45 738.113 1842.48C737.442 1842.54 736.772 1842.59 736.101 1842.68C735.375 1842.85 734.648 1843.01 733.922 1843.18C733.279 1843.4 732.636 1843.66 731.994 1843.91C731.211 1844.33 730.457 1844.77 729.675 1845.19C728.809 1845.78 727.942 1846.39 727.132 1847.06C726.378 1847.74 725.623 1848.43 724.925 1849.16C724.422 1849.77 723.919 1850.39 723.416 1851C723.22 1851.28 723.053 1851.59 722.885 1851.9C722.773 1852.21 722.634 1852.51 722.522 1852.82L722.41 1853.24C722.41 1853.24 722.41 1853.52 722.382 1853.63C722.382 1853.8 722.382 1853.94 722.382 1854.11C722.466 1854.5 722.522 1854.89 722.606 1855.28C722.55 1855.06 722.466 1854.86 722.41 1854.64C722.41 1854.69 722.41 1854.72 722.41 1854.78C722.69 1855.67 722.997 1856.54 723.36 1857.37C723.723 1858.13 724.142 1858.86 724.562 1859.58C725.065 1860.34 725.623 1861.09 726.182 1861.82C726.713 1862.4 727.272 1862.99 727.831 1863.55C729.144 1864.67 730.457 1865.7 731.826 1866.71C733.614 1867.82 735.402 1868.86 737.247 1869.86C739.426 1870.87 741.605 1871.82 743.84 1872.74C746.579 1873.66 749.317 1874.47 752.139 1875.2C754.905 1875.73 757.643 1876.18 760.437 1876.51C764.684 1876.79 768.875 1876.85 773.15 1876.88H773.094Z" fill="black"/>
<path d="M1114.86 1900.04C1096.7 1899.31 1078.65 1896.85 1061.8 1889.81C1055.23 1887.08 1050.99 1880.93 1049.98 1874.25C1044.87 1869.72 1042.02 1862.88 1040.65 1856.17C1039.56 1850.81 1038.53 1845.42 1037.63 1840.02C1034.22 1819.32 1031.43 1798.5 1028.66 1777.69C1025.76 1755.73 1022.82 1733.76 1020.92 1711.69C1018.97 1689.34 1017.26 1667.01 1015.67 1644.66C1014.05 1621.55 1013.3 1598.36 1012.32 1575.23C1011.48 1555.45 1010.81 1535.67 1010.14 1515.91C1009.36 1492.5 1008.63 1469.05 1007.93 1445.64C1007.29 1424.52 1006.4 1403.2 1007.71 1382.1C1007.74 1381.54 1007.76 1380.96 1007.82 1380.37C1008.24 1375.01 1010.03 1370.12 1014.02 1366.32C1017.85 1362.66 1023.05 1360.64 1028.36 1360.76C1038.83 1361.01 1048.78 1370.37 1047.94 1381.29C1046.88 1395.29 1047.13 1409.4 1047.47 1423.4C1047.89 1440.39 1048.36 1457.4 1048.86 1474.39C1049.76 1503.37 1050.79 1532.37 1051.83 1561.34C1053.7 1605.6 1055.79 1649.8 1059.62 1693.95C1063.39 1736.98 1069.15 1779.78 1075.46 1822.5C1075.46 1822.62 1075.49 1822.73 1075.52 1822.87C1078.51 1819.77 1081.58 1816.72 1084.8 1813.84C1100.08 1800.1 1119.86 1788.31 1141.01 1789.17C1161.52 1790.04 1179.15 1803.39 1190.77 1819.43C1195.83 1826.42 1200.02 1835.05 1201.08 1843.68C1201.61 1848.13 1201.5 1852.35 1200.94 1856.79C1200.22 1862.49 1197.56 1867.77 1194.71 1872.63C1190.19 1880.37 1182.64 1886.01 1175.07 1890.46C1166.35 1895.57 1156.07 1897.72 1146.24 1899.26C1140.42 1900.15 1134.5 1900.43 1128.55 1900.43C1123.97 1900.43 1119.36 1900.26 1114.83 1900.07L1114.86 1900.04ZM1129.64 1860.22C1134.28 1860 1138.89 1859.72 1143.5 1859.08C1145.59 1858.66 1147.69 1858.18 1149.76 1857.65C1151.43 1857.07 1153.11 1856.45 1154.76 1855.78C1155.57 1855.36 1156.38 1854.92 1157.16 1854.47C1157.75 1854.08 1158.31 1853.66 1158.87 1853.24C1159.26 1852.9 1159.65 1852.54 1160.01 1852.18C1160.26 1851.84 1160.54 1851.48 1160.79 1851.14C1160.91 1850.92 1161.04 1850.72 1161.18 1850.5C1161.21 1850.42 1161.24 1850.33 1161.3 1850.28C1161.32 1850.17 1161.35 1850.03 1161.38 1849.91V1849.66C1161.38 1849.66 1161.38 1849.47 1161.35 1849.38C1161.3 1849.1 1161.21 1848.8 1161.16 1848.52C1160.99 1848.1 1160.85 1847.68 1160.65 1847.26C1160.21 1846.34 1159.7 1845.42 1159.2 1844.52C1157.94 1842.65 1156.63 1840.86 1155.26 1839.07C1154.26 1837.96 1153.22 1836.89 1152.13 1835.86C1151.13 1834.99 1150.09 1834.16 1149 1833.37C1147.94 1832.67 1146.85 1832.03 1145.76 1831.42C1144.95 1831.03 1144.14 1830.69 1143.33 1830.36C1142.49 1830.08 1141.63 1829.82 1140.79 1829.6C1140.26 1829.52 1139.73 1829.43 1139.2 1829.35C1138.58 1829.32 1137.97 1829.29 1137.35 1829.29C1136.79 1829.38 1136.23 1829.46 1135.68 1829.55C1134.89 1829.74 1134.14 1829.94 1133.38 1830.13C1132.32 1830.5 1131.26 1830.91 1130.23 1831.36C1127.6 1832.67 1125.06 1834.07 1122.54 1835.58C1119.53 1837.59 1116.59 1839.74 1113.74 1841.98C1108.46 1846.59 1103.68 1851.56 1098.93 1856.68C1098.46 1857.23 1097.96 1857.77 1097.48 1858.32C1100.86 1858.83 1104.24 1859.22 1107.65 1859.55C1115 1860.03 1122.32 1860.28 1129.7 1860.34L1129.64 1860.22Z" fill="black"/>
<path d="M1325.08 952.096C1319.21 947.178 1315.22 940.975 1311.42 934.437C1308.65 929.659 1305.92 924.881 1303.18 920.104C1292.7 901.719 1282.31 883.222 1272.83 864.306C1263.22 845.139 1253.72 825.887 1244.47 806.552C1224.66 765.144 1206.03 723.205 1187.31 681.266C1177.56 659.417 1168 637.483 1158.53 615.55C1154.31 605.771 1150.23 595.963 1146.1 586.128C1143.69 580.428 1141.29 574.7 1138.89 568.973C1137.91 566.626 1136.9 564.279 1135.93 561.932C1134.7 558.998 1133.16 556.036 1132.15 553.019C1129.89 546.285 1130.73 539.02 1135.23 533.376C1140.03 527.341 1148.92 524.016 1156.46 526.587C1156.52 526.615 1156.57 526.642 1156.66 526.642C1163.7 528.263 1168.7 534.159 1170.46 540.892C1171.97 544.804 1173.9 548.688 1175.52 552.516C1177.33 556.846 1179.15 561.177 1180.97 565.536C1184.88 574.812 1188.76 584.089 1192.7 593.393C1199.6 609.794 1206.78 626.083 1213.96 642.373C1228.91 676.377 1244.22 710.213 1259.48 744.077C1285.66 800.797 1312.51 857.544 1344.39 911.358C1346.37 908.899 1348.27 906.357 1350.14 903.758C1358.47 891.408 1365.51 878.416 1372.69 865.396C1382.05 846.955 1391.36 828.542 1399.93 809.71C1409.52 788.726 1418.35 767.435 1426.87 746.005C1434.86 725.944 1442.43 705.687 1450.31 685.597C1457.85 666.374 1465.29 647.151 1472.3 627.76C1473.19 625.301 1474.06 622.842 1474.93 620.411C1474.65 621.222 1474.34 622.032 1474.06 622.87C1476.24 616.723 1478.61 610.548 1480.49 604.29C1479.56 603.032 1478.64 601.831 1477.66 600.602C1455.28 575.595 1431.42 551.957 1408.68 527.285C1401.28 519.238 1401.33 506.581 1409.35 498.897C1417.15 491.437 1430.31 491.521 1437.74 499.568C1451.79 514.824 1466.21 529.688 1480.51 544.692C1487.61 552.124 1494.79 559.501 1501.64 567.157C1507 573.164 1513.09 579.199 1516.81 586.38C1519.3 591.158 1521.64 596.69 1521.39 602.194C1521.25 605.016 1521.14 607.671 1520.47 610.409C1519.91 612.756 1519.27 614.907 1518.54 617.17C1515.36 626.978 1511.72 636.645 1508.2 646.34C1504.79 655.812 1501.33 665.284 1497.7 674.7C1489.93 694.734 1481.99 714.683 1474.26 734.745C1466.12 755.868 1457.88 776.963 1449.11 797.835C1440.45 818.343 1430.86 838.433 1421.14 858.466C1416.7 867.603 1412.23 876.795 1407.31 885.709C1399.4 900.042 1391.69 914.376 1382.25 927.815C1374.82 938.377 1366.57 948.38 1355.06 954.61C1351.18 956.734 1346.57 957.796 1341.96 957.796C1335.84 957.796 1329.69 955.923 1325.14 952.096H1325.08Z" fill="black"/>
<path d="M1493.87 605.407C1482.75 605.156 1474.31 595.823 1474.28 584.899C1474.26 568.022 1474.34 551.118 1474.4 534.242C1474.42 525.329 1474.45 516.444 1474.4 507.531C1474.37 500.071 1474.09 492.61 1474.26 485.15C1474.51 474.225 1483.84 465.312 1494.76 465.564C1505.69 465.815 1514.6 475.147 1514.35 486.072C1514.18 493.002 1514.46 499.959 1514.49 506.888C1514.52 516.164 1514.49 525.441 1514.49 534.745C1514.43 551.761 1514.35 568.805 1514.41 585.821C1514.41 596.606 1504.85 605.435 1494.32 605.435C1494.18 605.435 1494.01 605.435 1493.87 605.435V605.407Z" fill="black"/>
<path d="M1500.83 626.587C1495.55 625.777 1490.74 622.843 1487.58 618.484C1484.37 614.069 1483.56 609.04 1484.01 603.703C1484.4 599.261 1486.83 595.154 1488.87 591.298C1491.08 587.135 1494.12 583.363 1496.89 579.535C1500.07 575.12 1503.45 570.817 1506.86 566.598C1514.82 556.819 1522.9 547.123 1531.03 537.456C1546.2 519.406 1561.46 501.385 1576.71 483.391C1583.78 475.036 1596.19 473.22 1604.9 480.178C1613.26 486.827 1615.19 500.043 1608.09 508.37C1594.31 524.631 1580.57 540.949 1566.82 557.238C1552.82 573.807 1538.66 590.292 1525.89 607.839C1524.99 609.208 1524.16 610.577 1523.35 612.002C1521.33 620.747 1512.37 626.782 1503.59 626.782C1502.67 626.782 1501.75 626.727 1500.83 626.587Z" fill="black"/>
<path d="M1499.26 609.766C1495.46 599.735 1500.58 587.497 1510.89 583.893C1515.55 582.244 1520.58 581.685 1525.44 580.959C1529.74 580.288 1534.13 579.897 1538.46 579.45C1549.05 578.332 1559.61 577.215 1570.17 576.069C1589.4 574.002 1608.62 571.934 1627.84 569.866C1638.71 568.693 1648.77 576.851 1649.89 587.72C1651.03 598.589 1642.9 608.62 1632.03 609.766C1613.79 611.721 1595.54 613.677 1577.3 615.633C1560.23 617.477 1543.04 618.874 1526.03 621.389C1524.91 621.612 1523.82 621.864 1522.7 622.143C1522.9 622.087 1523.12 622.032 1523.32 621.948C1521.61 622.367 1519.88 622.59 1518.18 622.59C1510.05 622.59 1502.31 617.84 1499.26 609.766Z" fill="black"/>
<path d="M1546.29 690.012C1537.46 677.076 1529.19 663.636 1521.42 650.057C1517 642.29 1512.67 634.299 1509.4 625.972C1506.92 619.63 1507.17 612.393 1510.72 606.498C1514.13 600.798 1519.66 597.836 1526 596.802C1536.65 595.042 1546.68 604.011 1548.02 614.237C1554.42 627.677 1562.21 640.418 1570.06 653.047C1572.94 657.573 1575.85 662.072 1578.86 666.486C1585.04 675.511 1583.39 687.973 1574.37 694.511C1570.9 697.026 1566.74 698.227 1562.57 698.227C1556.29 698.227 1550.03 695.433 1546.31 690.012H1546.29ZM1530.7 636.618C1531.37 636.506 1532.01 636.394 1532.68 636.282C1533.49 636.031 1534.3 635.779 1535.11 635.556C1535.08 635.556 1535.05 635.556 1535.03 635.556C1535.08 635.5 1535.14 635.444 1535.19 635.388C1533.77 635.919 1532.26 636.338 1530.7 636.618Z" fill="black"/>
<path d="M879.435 333.628C877.227 315.355 875.942 296.997 874.573 278.668C873.93 270.035 873.427 261.429 872.896 252.795C872.31 242.96 872.03 233.069 870.857 223.29C869.516 212.449 877.982 202.334 888.711 201.217C899.719 200.071 909.442 208.23 910.756 219.071C911.901 228.403 912.181 237.875 912.739 247.235C913.27 256.316 913.801 265.369 914.472 274.449C915.841 292.778 917.126 311.163 919.333 329.409C920.646 340.25 912.236 350.336 901.479 351.454C900.781 351.538 900.11 351.566 899.412 351.566C889.297 351.566 880.636 343.77 879.407 333.6L879.435 333.628Z" fill="black"/>
<path d="M944.564 344.217C942.077 324.854 939.87 305.436 937.634 286.045C935.259 265.536 933.499 244.972 931.404 224.435C930.286 213.566 938.361 203.508 949.258 202.39C960.098 201.273 970.213 209.375 971.302 220.244C973.342 240.194 975.046 260.144 977.338 280.065C979.629 300.043 981.892 320.049 984.462 340.026C985.859 350.867 977.31 360.982 966.608 362.071C965.91 362.155 965.211 362.183 964.513 362.183C954.371 362.183 945.849 354.388 944.536 344.217H944.564Z" fill="black"/>
<path d="M867.56 464.698C848.756 452.125 834.786 434.522 823.526 415.131C817.603 404.961 812.574 394.008 809.081 382.776C806.511 374.505 804.527 365.089 806.064 356.4C807.964 345.643 817.938 337.903 828.919 339.607C839.452 341.2 847.499 351.538 845.795 362.211C845.795 362.686 845.795 363.189 845.795 363.664C845.851 364.363 845.934 365.033 846.018 365.732C846.326 367.269 846.689 368.777 847.108 370.258C848.645 374.924 850.461 379.423 852.445 383.893C855.239 389.649 858.256 395.237 861.553 400.742C864.571 405.436 867.784 409.99 871.248 414.377C874.154 417.73 877.172 420.915 880.385 423.988C883.235 426.419 886.141 428.71 889.158 430.946C892.483 433.153 895.892 435.193 899.412 437.093C903.743 439.188 908.13 441.088 912.656 442.792C915.31 443.659 917.964 444.441 920.703 445.112C923.441 445.614 926.151 446.006 928.889 446.313C933.388 446.62 937.83 446.704 942.328 446.592C946.296 446.313 950.208 445.894 954.147 445.307C957.891 444.581 961.551 443.687 965.239 442.709C969.486 441.312 973.594 439.775 977.673 437.987C981.948 435.863 986.111 433.6 990.218 431.113C994.046 428.515 997.734 425.804 1001.31 422.899C1005.22 419.406 1008.97 415.746 1012.57 411.89C1016.68 407.112 1020.56 402.195 1024.22 397.053C1035.17 380.792 1044.59 363.441 1053.56 346.006C1053.14 346.788 1052.75 347.57 1052.36 348.325C1055.71 341.591 1058.95 334.802 1061.52 327.733C1065.27 317.45 1078.34 313.148 1087.93 317.283C1092.87 319.406 1096.81 323.541 1098.71 328.599C1100.64 333.656 1100.19 338.713 1098.37 343.687C1092.12 360.926 1082.67 377.076 1073.73 393.058C1068.37 402.614 1062.7 412.086 1056.35 421.027C1048.95 431.476 1040.65 441.088 1031.29 449.861C1022.66 457.992 1012.74 464.642 1002.4 470.398C982.115 481.658 959.148 486.659 936.07 486.799H935.539C911.175 486.799 887.621 478.109 867.532 464.67L867.56 464.698Z" fill="black"/>
</g>
<defs>
<clipPath id="clip0_157_201">
<rect width="1299" height="1834" fill="white" transform="translate(351 83)"/>
</clipPath>
</defs>
</svg>
