<svg width="2000" height="2000" viewBox="0 0 2000 2000" fill="none" xmlns="http://www.w3.org/2000/svg">
<g clip-path="url(#clip0_157_202)">
<path d="M767.029 906.673C733.369 906.596 699.606 903.135 667.186 893.786C640.475 886.089 615.314 873.769 592.969 857.292C571.037 841.124 551.999 820.488 536.913 797.863C522.188 775.806 511.829 751.322 504.415 725.934C496.562 699.073 493.592 670.689 494.987 642.77C496.356 615.496 502.736 588.662 511.984 563.041C521.517 536.645 533.813 511.412 548.899 487.728C563.52 464.768 580.957 443.564 600.228 424.374C619.008 405.649 640.32 389.223 663.957 377.136C682.35 367.735 702.318 361.923 722.571 358.153C731.122 356.551 739.62 355.26 748.352 354.898C758.762 354.434 769.948 355.002 779.713 359.005C781.004 359.547 782.218 360.219 783.303 361.02C785.112 360.942 786.946 360.89 788.754 360.839C798.209 360.529 807.689 360.296 817.144 360.71C837.267 361.562 857.313 363.628 877.23 366.727C886.763 368.2 896.269 370.007 905.62 372.358C915.747 374.889 925.976 377.652 935.663 381.656C945.299 385.633 954.599 389.972 963.769 394.931C972.346 399.606 980.173 405.262 988 411.047C990.17 412.648 992.133 414.637 994.148 416.419C995.853 417.891 997.532 419.389 999.16 420.991C1003.22 424.994 1007.17 429.023 1010.99 433.233C1018.04 440.929 1024.48 449.168 1030.86 457.433C1033.65 461.075 1036.18 464.975 1038.81 468.719C1041.89 473.084 1044.78 477.707 1047.49 482.305C1052.4 490.621 1057.05 498.963 1061.62 507.46C1063.95 511.774 1065.83 516.397 1067.93 520.839C1070.35 526.004 1072.24 531.428 1074.31 536.749C1076.04 541.165 1077.2 545.866 1078.62 550.385C1080.27 555.68 1081.44 561.13 1082.75 566.476C1085.29 576.626 1086.47 587.189 1087.89 597.52C1089.29 607.774 1089.29 618.26 1089.5 628.565C1089.6 633.007 1089.13 637.527 1088.95 641.943C1088.75 646.954 1088.18 652.119 1087.43 657.052C1085.8 667.642 1083.97 678.127 1081.51 688.562C1079.19 698.583 1076.32 708.345 1073.09 718.108C1069.86 727.871 1065.89 737.763 1060.95 746.802C1056.51 754.938 1051.99 762.996 1046.79 770.718C1041.22 778.957 1035.66 787.403 1029.2 794.996C1025.56 799.258 1022.12 803.803 1018.2 807.781C1014.35 811.681 1010.47 815.58 1006.63 819.48C1003.03 823.096 998.876 826.273 995.027 829.631C990.893 833.272 986.45 836.578 982.085 839.961C974.335 845.979 966.353 851.894 958.034 857.111C953.152 860.158 948.27 863.206 943.387 866.28C934.475 871.832 925.098 876.714 915.488 880.924C902.856 886.451 889.888 890.79 876.559 894.406C870.772 895.981 864.805 897.04 858.941 898.357C849.28 900.527 839.411 901.74 829.673 903.264C824.403 904.091 818.978 904.297 813.682 904.84C809.472 905.253 805.313 905.589 801.076 905.77C795.212 906.054 789.374 906.312 783.484 906.57C781.185 906.673 778.86 906.725 776.535 906.725C773.358 906.725 770.155 906.673 767.003 906.648L767.029 906.673ZM757.393 869.534C759.692 869.663 762.043 869.637 764.368 869.585C765.53 869.585 766.693 869.56 767.855 869.585C772.428 869.585 777.026 869.585 781.624 869.611C792.215 869.121 802.755 868.63 813.321 867.597C818.332 867.106 823.395 866.744 828.381 865.97C834.529 865.014 840.651 864.033 846.8 863.077C856.874 860.804 866.923 858.66 876.869 855.819C885.316 853.133 893.582 850.06 901.694 846.522C909.96 842.673 918.072 838.463 925.795 833.608C930.084 830.922 934.372 828.236 938.66 825.55C944.111 821.702 949.561 817.879 955.012 814.031C959.765 810.673 964.286 806.877 968.858 803.287C972.836 799.8 976.815 796.313 980.793 792.852C984.59 789.547 988 785.647 991.539 782.005C994.768 778.208 997.997 774.412 1001.23 770.589C1004.43 766.818 1007.25 762.634 1010.19 758.631C1013.14 754.266 1016.13 749.953 1018.87 745.459C1022.2 740.01 1025.33 734.508 1028.4 728.93C1029.9 725.676 1031.42 722.447 1032.95 719.219C1034.5 715.887 1035.71 712.349 1037.03 708.888C1038.84 703.438 1040.62 698.014 1042.17 692.487C1043.85 686.47 1045.3 680.4 1046.74 674.305C1047.85 668.597 1048.94 662.915 1049.82 657.181C1050.67 651.629 1051.26 646.076 1051.83 640.497C1052.01 636.339 1052.17 632.181 1052.35 627.997C1052.53 623.993 1052.25 619.913 1052.12 615.884C1051.73 611.157 1051.37 606.431 1050.98 601.704C1050.62 597.133 1049.77 592.562 1049.09 588.016C1048.29 583.78 1047.47 579.57 1046.67 575.335C1045.79 570.815 1044.44 566.347 1043.31 561.879C1042.09 557.979 1040.85 554.079 1039.64 550.179C1038.24 545.711 1036.23 541.346 1034.47 536.981C1031.66 531.015 1028.87 525.049 1025.74 519.238C1022.28 512.807 1018.64 506.531 1014.94 500.229C1011.82 495.347 1008.67 490.44 1005.31 485.688C1001.36 480.083 997.197 474.634 993.012 469.21C993.554 469.856 994.097 470.502 994.639 471.147C991.152 467.015 987.742 462.857 984.099 458.853C980.147 454.54 976.091 450.434 971.932 446.301C969.556 444.235 967.179 442.169 964.803 440.103C962.374 438.011 959.636 436.203 957.027 434.292C954.056 432.432 951.085 430.547 948.141 428.661C945.402 426.931 942.406 425.485 939.538 423.987C933.364 421.068 927.19 418.33 920.887 415.722C921.636 415.98 922.386 416.264 923.135 416.522C918.459 414.844 913.783 413.165 909.03 411.744C903.76 410.169 898.516 408.826 893.195 407.483C874.027 403.531 854.756 400.819 835.278 399.012C825.849 398.288 816.395 397.565 806.94 397.617C797.589 397.669 788.237 397.927 778.886 398.288C773.254 398.547 767.623 398.882 762.017 399.27C755.508 399.761 749.359 397.023 745.51 392.245C742.54 392.503 739.569 392.839 736.598 393.252C726.756 395.086 717.069 396.971 707.407 399.735C700.148 402.033 693.019 404.59 686.044 407.638C679.147 410.918 672.508 414.534 665.998 418.511C658.119 423.651 650.602 429.255 643.317 435.196C633.345 443.641 623.994 452.707 615.082 462.263C604.62 473.885 594.881 486.101 585.891 498.886C577.935 510.637 570.676 522.802 564.114 535.38C557.527 548.552 551.715 562.059 546.652 575.903C542.725 587.189 539.367 598.605 536.654 610.227C534.769 619.241 533.399 628.307 532.47 637.475C531.746 646.592 531.54 655.709 531.824 664.852C532.289 673.918 533.244 682.905 534.665 691.868C536.37 701.372 538.566 710.747 541.253 720.045C544.301 729.782 547.84 739.286 551.947 748.662C556.055 757.443 560.601 765.966 565.716 774.231C570.185 781.075 574.912 787.635 580.027 793.963C586.201 801.246 592.737 808.116 599.686 814.702C606.351 820.694 613.248 826.299 620.533 831.516C627.146 835.958 633.965 840.013 640.992 843.732C648.845 847.606 656.879 851.016 665.094 854.089C674.988 857.524 685.036 860.365 695.266 862.664C707.511 865.169 719.833 866.899 732.284 868.113C740.628 868.578 748.998 869.043 757.367 869.508L757.393 869.534Z" fill="black"/>
<path d="M744.064 558.443C741.197 543.36 738.82 528.173 736.573 513.013C734.377 498.136 732.491 483.208 731.664 468.202C731.664 468.202 731.69 468.202 731.716 468.202C731.613 467.427 731.561 466.627 731.561 465.826C731.561 456.632 739.156 448.754 748.146 447.799C757.833 446.791 767.985 454.204 768.553 464.302C769.922 489.406 774.056 514.382 778.189 539.15C778.06 538.375 777.93 537.574 777.801 536.8C778.55 541.164 779.325 545.529 780.152 549.868C781.056 554.672 780.565 559.424 778.008 563.686C775.45 567.947 771.214 571.072 766.383 572.209C765.04 572.519 763.671 572.674 762.328 572.674C753.984 572.674 745.666 566.992 744.038 558.443H744.064Z" fill="black"/>
<path d="M824.119 554.26C822.414 534.347 820.787 514.434 819.34 494.495C818.643 484.862 818.1 475.228 817.713 465.595C817.532 460.817 817.377 456.038 817.351 451.235C817.325 445.036 818.772 439.328 823.292 434.834C830.448 427.68 842.667 428.248 849.538 435.454C853.826 439.922 855.299 445.94 854.266 451.57C854.317 451.441 854.369 451.312 854.421 451.183C854.498 450.434 854.55 449.685 854.627 448.936C853.981 456.168 854.731 463.658 855.015 470.889C854.989 470.089 854.963 469.314 854.937 468.513C856.435 495.838 858.735 523.138 861.06 550.412C861.938 560.458 854.756 569.73 844.553 570.789C843.933 570.867 843.313 570.893 842.693 570.893C833.47 570.893 824.971 563.738 824.145 554.286L824.119 554.26Z" fill="black"/>
<path d="M816.783 838.153C801.102 830.146 794.102 812.739 790.046 796.545C784.027 772.603 784.053 747.783 788.057 723.505C790.252 710.152 792.991 696.8 796.401 683.705C798.338 676.215 800.921 668.829 804.176 661.83C806.759 656.277 810.428 650.879 815.465 647.237C822.517 642.123 832.05 642.227 838.947 647.521C839.618 648.038 840.264 648.606 840.858 649.226C846.774 644.215 855.79 642.795 862.506 647.289C866.794 650.13 870.772 653.203 874.337 656.922C879.168 661.959 882.733 667.744 885.523 674.098C889.139 682.466 891.18 691.531 892.808 700.467C894.642 710.359 895.52 720.277 895.856 730.324C896.166 739.415 895.598 748.945 894.073 757.907C892.394 767.747 890.328 777.51 887.977 787.221C886.892 791.715 885.42 796.132 883.921 800.522C880.537 810.543 875.784 820.616 868.344 828.287C859.768 837.145 847.291 842.414 834.917 842.414C828.665 842.414 822.466 841.071 816.783 838.178V838.153ZM835.02 805.249C835.537 805.197 836.054 805.145 836.57 805.068C837.19 804.939 837.784 804.81 838.404 804.655C838.74 804.525 839.076 804.422 839.412 804.267C839.618 804.164 839.825 804.061 840.032 803.931C840.316 803.725 840.574 803.518 840.858 803.312C841.117 803.053 841.401 802.821 841.633 802.563C842.15 801.969 842.641 801.323 843.106 800.703C843.829 799.618 844.475 798.534 845.095 797.397C846.232 795.021 847.265 792.619 848.246 790.165C850.442 783.476 852.302 776.761 853.956 769.917C855.609 762.014 857.133 754.136 858.14 746.13C858.605 739.57 858.786 733.061 858.631 726.475C858.192 720.535 857.495 714.646 856.616 708.758C855.635 703.515 854.446 698.324 853 693.184C852.406 691.402 851.76 689.671 851.036 687.941C850.52 686.908 849.977 685.875 849.435 684.867C849.254 684.609 849.073 684.351 848.866 684.093C848.04 683.189 847.213 682.311 846.335 681.432C845.431 680.683 844.501 679.934 843.545 679.237C843.493 679.185 843.416 679.16 843.364 679.108C841.969 678.178 840.678 677.145 839.567 675.983C839.024 676.474 838.43 676.913 837.862 677.3C836.751 679.702 835.769 682.104 834.839 684.583C833.134 689.826 831.688 695.121 830.345 700.493C828.665 708.293 827.064 716.119 825.566 723.97C824.145 731.434 823.241 738.898 822.466 746.466C822.362 750.314 822.259 754.162 822.181 757.985C822.311 760.826 822.44 763.692 822.569 766.533C822.698 769.762 823.266 773.042 823.654 776.245C824.558 780.997 825.566 785.697 826.728 790.398C827.813 793.704 828.898 796.958 830.267 800.186C830.732 801.142 831.249 802.072 831.791 803.002C832.101 803.441 832.411 803.88 832.721 804.319C832.928 804.551 833.16 804.784 833.367 805.016C833.419 805.068 833.47 805.094 833.522 805.145C833.548 805.145 833.574 805.171 833.599 805.197C833.625 805.197 833.651 805.197 833.703 805.197C833.806 805.197 833.935 805.223 834.039 805.249C834.374 805.249 834.684 805.249 835.02 805.274V805.249Z" fill="black"/>
<path d="M387.059 470.217C382.409 463.476 376.83 457.226 371.611 450.95C372.154 451.596 372.671 452.241 373.213 452.887C362.622 440.645 351.669 428.79 340.509 417.09C333.534 409.781 333.793 397.849 341.129 390.85C348.44 383.876 360.374 384.135 367.349 391.47C376.623 401.181 385.768 411.047 394.706 421.068C398.916 425.794 402.998 430.624 406.976 435.557C410.386 439.793 414.054 443.977 417.154 448.445C422.889 456.787 421.313 468.306 412.995 474.35C409.792 476.674 405.943 477.81 402.12 477.81C396.307 477.81 390.547 475.202 387.085 470.191L387.059 470.217Z" fill="black"/>
<path d="M355.466 606.198C353.529 605.552 351.591 605.062 349.628 604.571C347.019 603.951 344.28 603.538 341.723 602.737C341.077 602.608 340.457 602.479 339.811 602.35C339.811 602.35 339.811 602.35 339.837 602.35C331.183 600.542 322.478 598.863 313.772 597.339C303.827 595.609 296.671 586.363 298.221 576.212C299.719 566.398 309.407 558.934 319.352 560.664C327.928 562.162 336.453 563.789 344.926 565.572C345.598 565.726 346.244 565.856 346.89 566.011C349.938 566.475 352.986 567.328 355.983 567.999C359.238 568.748 362.518 569.497 365.67 570.53C375.254 573.707 381.247 583.47 378.379 593.491C376.158 601.239 368.511 607.024 360.529 607.024C358.824 607.024 357.119 606.766 355.44 606.198H355.466Z" fill="black"/>
<path d="M221.162 740.19C217.623 730.866 222.402 719.683 231.934 716.274C249.94 709.791 268.022 703.464 286.312 697.859C286.958 697.627 287.604 697.42 288.275 697.265C289.877 696.749 291.478 696.18 293.132 695.793C293.803 695.56 294.475 695.354 295.172 695.173C302.793 693.055 310.31 691.015 318.267 690.757C328.393 690.421 336.608 700.054 336.401 709.714C336.298 714.595 334.205 719.322 330.666 722.705C327.153 726.063 322.839 727.509 318.112 727.793C318.577 727.793 319.016 727.767 319.481 727.741C318.344 727.819 317.233 727.948 316.123 728.103C312.067 729.007 308.063 729.988 304.085 731.15C303.361 731.435 302.612 731.641 301.863 731.822C301.76 731.848 301.631 731.874 301.527 731.899C300.597 732.209 299.642 732.494 298.66 732.803C298.376 732.881 298.117 732.958 297.833 733.036C297.162 733.294 296.438 733.527 295.741 733.707C278.769 739.157 261.9 744.942 245.109 750.96C242.991 751.709 240.821 752.096 238.677 752.096C231.159 752.096 224.004 747.654 221.188 740.216L221.162 740.19Z" fill="black"/>
<path d="M494.574 1289.46C483.233 1288.92 470.731 1286.28 462.593 1277.76C455.619 1270.45 453.733 1260.15 455.903 1250.51C457.427 1243.82 459.984 1237.42 462.283 1230.99C465.693 1221.53 469.129 1212.08 472.616 1202.65C486.23 1165.75 501.032 1129.36 516.842 1093.35C533.504 1055.39 550.501 1017.6 567.525 979.816C576.386 960.135 585.349 940.507 594.417 920.93C598.679 911.735 603.174 902.644 607.875 893.682C610.639 888.387 613.429 883.144 616.4 877.953C620.352 871.083 625.7 864.678 634.121 863.851C644.17 862.87 653.47 870.256 654.503 880.355C655.071 885.804 653.108 891.099 649.543 894.921C645.591 901.068 642.31 907.654 638.978 914.137C620.869 951.173 604.156 988.855 587.235 1026.43C571.503 1061.46 555.59 1096.43 540.633 1131.81C532.47 1151.18 524.359 1170.58 516.893 1190.23C509.505 1209.6 502.375 1229.08 495.323 1248.58C495.581 1247.83 495.866 1247.08 496.124 1246.3C495.426 1248.29 494.703 1250.28 494.031 1252.29H494.135C499.715 1252.71 505.294 1252.76 510.926 1252.6C540.117 1251.16 569.101 1246.38 597.904 1241.65C636.808 1234.73 675.505 1227.09 713.97 1218.15C752.537 1209.19 790.821 1199.12 829.183 1189.3C851.45 1183.59 873.95 1177.81 896.709 1174.37C906.706 1172.88 916.083 1181.17 917.091 1190.88C917.607 1195.68 916.186 1200.59 913.164 1204.38C909.987 1208.39 905.543 1210.53 900.584 1211.28C899.55 1211.44 898.543 1211.59 897.51 1211.75C880.047 1214.92 862.765 1219.13 845.535 1223.42C826.031 1228.3 806.605 1233.52 787.127 1238.45C749.05 1248.16 710.792 1257.1 672.379 1265.31C652.643 1269.52 632.726 1273.06 612.861 1276.6C593.9 1279.98 574.861 1283.18 555.745 1285.51C544.56 1286.88 533.452 1288.06 522.215 1289.02C516.351 1289.51 510.461 1289.77 504.571 1289.77C501.213 1289.77 497.881 1289.69 494.522 1289.54L494.574 1289.46Z" fill="black"/>
<path d="M940.598 1268.15C931.246 1267.58 922.877 1263.74 915.669 1257.9C899.395 1244.75 894.048 1223.96 891.697 1204.13C891.697 1204.13 891.697 1204.13 891.697 1204.1C888.339 1201.1 886.014 1196.89 885.368 1192.14C884.464 1185.58 885.962 1178.71 888.054 1172.51C889.785 1167.37 891.774 1162.39 894.048 1157.46C896.967 1151.1 900.712 1145.11 904.975 1139.56C908.049 1135.56 911.924 1132.04 915.876 1128.94C920.138 1125.61 924.788 1122.38 929.877 1120.47C934.372 1118.79 938.893 1117.71 943.698 1117.37C948.658 1117.04 953.385 1117.86 958.216 1118.95C963.02 1120.03 967.593 1122.54 971.829 1124.91C976.841 1127.76 981.232 1131.63 985.288 1135.66C989.809 1140.15 993.477 1145.52 997.016 1150.79C999.728 1154.85 1002.34 1159.08 1004.58 1163.4C1006.88 1167.79 1008.72 1172.26 1010.19 1176.98C1011.79 1182.17 1013.11 1187.88 1012.83 1193.36C1012.54 1198.42 1011.71 1203.22 1010.06 1208.03C1005.88 1220.37 997.326 1231.32 988.75 1241.01C982.033 1248.58 974.258 1256.07 965.552 1261.26C962.09 1263.32 958.629 1265.05 954.831 1266.45C951.267 1267.74 947.366 1268.23 943.543 1268.23C942.561 1268.23 941.579 1268.2 940.598 1268.15ZM943.181 1231.17C943.181 1231.17 943.362 1231.14 943.465 1231.12C943.543 1231.09 943.62 1231.06 943.724 1231.01C944.705 1230.47 945.687 1229.95 946.668 1229.39C947.986 1228.48 949.252 1227.55 950.517 1226.57C953.876 1223.6 957.105 1220.55 960.256 1217.32C963.925 1213.11 967.334 1208.72 970.589 1204.2C971.778 1202.34 972.888 1200.48 973.948 1198.57C974.335 1197.75 974.697 1196.92 975.007 1196.07C975.213 1195.45 975.394 1194.8 975.549 1194.18C975.601 1193.85 975.653 1193.54 975.704 1193.2C975.704 1192.97 975.704 1192.74 975.73 1192.48C975.73 1192.58 975.73 1192.69 975.73 1192.79C975.73 1192.74 975.73 1192.69 975.73 1192.63C975.678 1191.76 975.575 1190.85 975.42 1189.97C975.394 1189.9 975.368 1189.79 975.342 1189.71C975.394 1190.08 975.472 1190.46 975.523 1190.85C975.317 1190.02 975.11 1189.22 974.903 1188.4C974.232 1186.41 973.508 1184.47 972.708 1182.56C971.261 1179.82 969.737 1177.16 968.161 1174.5C965.81 1170.84 963.356 1167.27 960.696 1163.84C959.611 1162.6 958.5 1161.41 957.363 1160.22C956.226 1159.26 955.09 1158.36 953.902 1157.46C953.023 1156.89 952.119 1156.37 951.215 1155.88C950.492 1155.55 949.768 1155.21 949.019 1154.93C948.606 1154.8 948.218 1154.69 947.805 1154.56C947.443 1154.51 947.082 1154.46 946.72 1154.41C946.488 1154.41 946.255 1154.41 946.023 1154.41C945.738 1154.41 945.454 1154.46 945.17 1154.46C944.963 1154.51 944.757 1154.56 944.576 1154.62C944.163 1154.77 943.749 1154.93 943.31 1155.08C942.974 1155.26 942.664 1155.42 942.329 1155.6C940.959 1156.53 939.616 1157.48 938.273 1158.49C937.085 1159.52 935.948 1160.58 934.837 1161.72C933.907 1162.85 933.003 1163.99 932.151 1165.18C930.678 1167.5 929.361 1169.85 928.095 1172.26C926.777 1175.17 925.512 1178.09 924.323 1181.04C923.677 1183 923.032 1184.96 922.515 1186.98C922.438 1187.39 922.386 1187.8 922.308 1188.24C925.718 1191.24 928.069 1195.45 928.637 1200.23C928.947 1202.78 929.283 1205.34 929.671 1207.9C930.265 1210.79 930.988 1213.66 931.815 1216.5C932.538 1218.64 933.261 1220.73 934.14 1222.83C934.398 1223.32 934.656 1223.81 934.915 1224.27C935.302 1224.84 935.715 1225.41 936.129 1225.95C936.93 1226.88 937.756 1227.76 938.635 1228.64C939.306 1229.2 939.978 1229.75 940.649 1230.26C940.908 1230.42 941.166 1230.57 941.424 1230.73C941.502 1230.78 941.605 1230.81 941.683 1230.86C941.889 1230.94 942.122 1230.99 942.329 1231.06C942.509 1231.09 942.69 1231.12 942.871 1231.14C942.974 1231.14 943.104 1231.14 943.207 1231.14L943.181 1231.17Z" fill="black"/>
<path d="M770.465 1355.91C768.192 1351.68 767.649 1346.62 768.966 1342.02C770.361 1337.06 773.694 1333.42 778.008 1330.78C809.885 1311.52 841.918 1292.43 874.26 1273.96C889.837 1265.05 905.388 1256.12 922.179 1249.63C933.675 1245.22 946.023 1243.13 958.319 1243.44C963.95 1243.59 969.608 1244.55 975.213 1245.27C992.883 1247.54 1010.6 1249.32 1028.35 1250.9C1061.34 1253.53 1094.35 1254.75 1127.44 1255.76C1159.55 1256.74 1191.66 1258.34 1223.8 1257.59C1226.64 1257.41 1229.48 1257.2 1232.32 1256.87C1225.38 1237.47 1217.55 1218.36 1209.9 1199.24C1200.96 1176.9 1191.38 1154.85 1181.46 1132.92C1147.41 1061.46 1111.94 990.663 1075.88 920.181C1068.08 904.943 1060.28 889.704 1052.43 874.492C1044.73 859.641 1037.06 844.687 1028.25 830.431C1024.71 824.904 1021.01 819.557 1016.91 814.444C1016.11 813.54 1015.28 812.662 1014.43 811.809L1014.01 811.448C1007.4 807.109 1003.96 798.741 1006.24 790.786C1009 781.101 1019.49 775.238 1029.2 778.053C1032.92 779.138 1035.97 781.359 1038.84 783.916C1043.36 787.893 1047.08 792.671 1050.72 797.475C1055.89 804.294 1060.41 811.68 1064.62 819.144C1069.42 827.641 1074.31 836.087 1078.8 844.739C1089.06 864.549 1099.24 884.41 1109.41 904.271C1127.42 939.474 1145.24 974.78 1162.94 1010.16C1172.26 1028.84 1181.36 1047.64 1190.53 1066.39C1198.97 1083.67 1207.63 1100.92 1215.58 1118.46C1232.17 1155.16 1247.44 1192.37 1261.83 1229.98C1263.32 1233.85 1264.77 1237.73 1266.19 1241.63C1268.54 1248.01 1271.38 1254.57 1272.11 1261.39C1273.17 1271.59 1268.23 1281.25 1259.71 1286.72C1255.16 1289.64 1250.05 1291.22 1244.83 1292.43C1238.21 1293.98 1231.16 1294.44 1224.42 1294.63C1204.22 1295.14 1184.04 1294.68 1163.87 1294.06C1125.64 1292.89 1087.27 1292.25 1049.12 1289.61C1033.57 1288.56 1018.02 1287.29 1002.52 1285.71C994.949 1284.94 987.38 1284.11 979.837 1283.24C973.043 1282.43 966.275 1281.4 959.455 1280.68C957.182 1280.52 954.961 1280.5 952.687 1280.52C951.112 1280.63 949.562 1280.78 947.986 1280.99C944.653 1281.63 941.424 1282.43 938.17 1283.36C934.217 1284.76 930.368 1286.31 926.519 1287.99C912.44 1294.55 898.93 1302.45 885.497 1310.28C875.681 1316.04 865.838 1321.8 856.022 1327.56C835.821 1339.44 815.646 1351.34 795.6 1363.46C792.991 1365.03 790.098 1365.75 787.204 1365.75C780.462 1365.75 773.694 1361.88 770.465 1355.89V1355.91Z" fill="black"/>
<path d="M883.921 1373.19C875.113 1367.92 872.503 1356.51 877.541 1347.75C885.626 1333.65 893.815 1319.6 902.004 1305.52C910.374 1291.16 918.537 1276.65 927.578 1262.7C933.081 1254.23 944.137 1250.98 953.023 1256.32C961.471 1261.39 964.906 1273.29 959.404 1281.76C950.363 1295.71 942.174 1310.23 933.83 1324.59C925.667 1338.64 917.478 1352.71 909.366 1366.81C906.034 1372.6 899.731 1375.77 893.376 1375.77C890.095 1375.77 886.815 1374.95 883.921 1373.19Z" fill="black"/>
<path d="M878.652 1286.59C859.303 1286.46 839.955 1286.34 820.606 1286.52C810.506 1286.59 802.265 1277.42 802.497 1267.53C802.756 1257.18 811.358 1249.51 821.484 1249.43C841.401 1249.25 861.292 1249.38 881.209 1249.53C890.922 1249.58 900.635 1249.63 910.374 1249.94C919.725 1250.25 929.18 1250.25 938.506 1251.21C948.58 1252.22 955.529 1262.7 954.057 1272.34C953.308 1277.22 950.595 1281.66 946.591 1284.58C942.82 1287.32 938.506 1288.25 933.985 1287.99C934.269 1288.01 934.527 1288.04 934.786 1288.07C916.109 1286.83 897.354 1286.75 878.652 1286.62V1286.59Z" fill="black"/>
<path d="M974.051 1386.75C963.821 1386.52 955.865 1377.89 955.942 1367.77C956.072 1346.69 955.529 1325.62 954.883 1304.57C954.47 1297 953.953 1289.46 952.946 1281.94C952.636 1280.29 952.403 1278.66 952.403 1276.98C952.403 1266.86 961.445 1258.65 971.39 1258.88C980.251 1259.09 987.277 1265.49 989.086 1273.73C989.086 1273.52 989.034 1273.34 989.034 1273.14C992.263 1288.89 992.082 1305.34 992.495 1321.38C992.883 1337.11 993.219 1352.89 993.115 1368.65C993.064 1378.62 984.358 1386.78 974.542 1386.78C974.413 1386.78 974.258 1386.78 974.128 1386.78L974.051 1386.75Z" fill="black"/>
<path d="M680.697 866.797C686.897 871.755 689.273 880.64 686.535 887.923C686.457 888.233 686.38 888.543 686.328 888.853C679.147 928.137 674.006 967.781 666.36 1006.99C658.377 1047.9 650.163 1088.76 642.439 1129.69C638.745 1149.24 635.722 1168.98 632.752 1188.68C629.833 1208.05 626.965 1227.45 624.537 1246.9C619.5 1287.7 615.108 1328.56 611.052 1369.47C606.17 1418.78 600.926 1468.06 596.457 1517.39C595.579 1527.98 594.726 1538.57 593.925 1549.18C581.655 1547.32 569.41 1545.23 557.243 1542.93C557.424 1540.42 557.631 1537.89 557.811 1535.39C560.886 1495.15 565.174 1455.04 569.255 1414.9C573.182 1376.11 576.695 1337.29 581.035 1298.55C585.814 1256.01 591.42 1213.63 597.8 1171.33C603.845 1131.24 611.853 1091.44 619.81 1051.69C627.714 1012.1 635.025 972.43 641.483 932.579C642.981 923.333 644.402 914.086 645.9 904.84C646.83 899.184 647.734 893.502 648.768 887.846C649.879 881.854 650.499 874.519 654.606 869.689C661.142 861.993 672.585 860.288 680.671 866.745L680.697 866.797Z" fill="black"/>
<path d="M1087.02 1162.08V1162.13C1087.17 1162.8 1087.27 1163.47 1087.35 1164.17C1087.56 1165.46 1087.79 1166.73 1088 1167.99C1088.08 1168.56 1088.18 1169.13 1088.28 1169.67C1089.63 1177.65 1090.99 1185.63 1092.36 1193.62C1092.47 1194.29 1092.6 1194.98 1092.7 1195.66C1092.85 1196.43 1092.98 1197.23 1093.09 1197.98C1093.19 1198.52 1093.29 1199.06 1093.4 1199.61C1107.3 1279.72 1122.05 1359.68 1136.12 1439.78C1139.61 1459.61 1142.94 1479.47 1146.25 1499.33C1134.65 1504.4 1122.85 1508.99 1110.99 1513.31C1108.3 1497.14 1105.62 1480.94 1102.88 1464.78C1089.21 1386.13 1074.62 1307.69 1060.93 1229.08C1059.58 1221.3 1058.19 1213.5 1056.87 1205.7C1056.72 1204.98 1056.59 1204.26 1056.51 1203.53C1056.35 1202.73 1056.22 1201.91 1056.1 1201.11C1055.94 1200.23 1055.81 1199.37 1055.66 1198.52C1054.39 1191.14 1053.12 1183.75 1051.88 1176.36C1051.6 1174.68 1051.32 1173.01 1051.01 1171.33C1051.03 1171.48 1051.06 1171.64 1051.08 1171.77C1050.98 1171.12 1050.88 1170.47 1050.77 1169.8C1050.62 1169.13 1050.49 1168.43 1050.39 1167.74C1047.08 1148.44 1043.8 1129.12 1040.34 1109.88C1036.44 1088.08 1032.2 1066.36 1027.91 1044.64C1020.06 1004.95 1009.96 965.715 999.832 926.535C996.706 914.422 993.503 902.335 990.61 890.196C988.853 882.835 987.071 875.5 985.495 868.088C984.772 864.627 983.971 861.192 983.377 857.705C982.576 853.134 981.439 848.485 981.258 843.836C981.026 837.999 982.576 832.601 986.89 828.469C991.126 824.414 996.758 822.89 1002.49 823.536C1005.54 823.897 1008.98 825.343 1011.3 827.384C1015.07 830.716 1017.66 834.874 1018.2 839.936C1018.25 840.53 1018.28 841.098 1018.3 841.692C1018.38 842.493 1018.48 843.293 1018.61 844.068C1022.1 863.542 1026.96 882.706 1031.84 901.87C1036.54 920.31 1041.42 938.7 1045.99 957.192C1048.45 967.213 1051.14 977.182 1053.38 987.229C1056.12 999.549 1058.83 1011.87 1061.57 1024.19C1063.38 1032.3 1064.9 1040.43 1066.53 1048.57C1068.34 1057.71 1070.28 1066.85 1071.93 1076.02C1077.07 1104.67 1082.21 1133.36 1087.04 1162.08H1087.02Z" fill="black"/>
<path d="M1139.92 1461.6C1142.09 1474.18 1144.18 1486.76 1146.28 1499.36C1128.27 1507.24 1109.8 1513.9 1091.28 1520.38C1073.22 1526.66 1054.88 1532.21 1036.46 1537.27C1017.29 1542.54 998.049 1547.79 978.52 1551.53C957.389 1555.56 936.232 1559.12 914.92 1562.15C904.794 1563.59 894.642 1564.73 884.464 1565.89C874.441 1567.03 864.418 1567.62 854.343 1568.27C842.951 1569.02 831.533 1569.27 820.115 1569.27C811.513 1569.27 802.911 1569.12 794.308 1568.89C774.908 1568.4 755.508 1567.31 736.134 1565.76C716.32 1564.16 696.481 1562.58 676.745 1560.16C655.717 1557.6 634.741 1554.89 613.765 1552.02C594.933 1549.44 576.024 1546.47 557.347 1542.93C557.528 1540.43 557.734 1537.89 557.915 1535.39C558.664 1525.5 559.491 1515.63 560.369 1505.76C576.928 1508.81 593.538 1511.45 610.2 1513.98C645.591 1519.3 681.11 1523.38 716.682 1527.02C727.118 1527.87 737.58 1528.7 748.016 1529.55C758.84 1530.43 769.716 1530.79 780.565 1531.41C791.286 1532.03 802.084 1531.98 812.804 1532.26C817.403 1532.37 822.078 1532.13 826.702 1532.08C832.127 1532.01 837.552 1531.93 842.977 1531.85C852.328 1531.23 861.654 1530.64 871.005 1530.02C880.331 1529.42 889.682 1527.95 898.982 1526.92C916.212 1524.98 933.365 1521.96 950.492 1519.12C966.379 1516.1 982.317 1513.07 997.998 1509.07C1014.87 1504.76 1031.61 1500.13 1048.29 1495.28C1064.72 1490.14 1081.08 1484.77 1097.25 1478.9C1111.74 1473.64 1125.92 1467.82 1139.97 1461.57L1139.92 1461.6Z" fill="black"/>
<path d="M539.651 1953.66C527.872 1950.64 517.022 1945.11 507.128 1938.14C490.389 1926.31 477.653 1904.62 485.481 1884.03C487.34 1879.1 490.027 1874.76 493.437 1870.73C496.924 1866.6 501.213 1863.63 505.759 1860.81C510.512 1857.87 516.247 1856.29 521.543 1854.74C528.285 1852.78 535.673 1852.03 542.674 1851.95C567.525 1851.64 592.169 1858.38 614.669 1868.59C621.566 1871.71 628.154 1875.4 634.56 1879.41C634.87 1874.27 635.206 1869.15 635.542 1864.01C636.807 1844.7 638.202 1825.38 639.83 1806.08C643.059 1767.16 647.373 1728.37 651.506 1689.55C654.425 1662.05 657.112 1634.54 659.618 1606.98C659.592 1607.37 659.54 1607.76 659.514 1608.14C660.78 1591.61 661.917 1575.08 662.614 1558.5C663.053 1548.4 671.346 1540.14 681.601 1540.4C691.572 1540.61 700.149 1549.26 699.71 1559.36C698.056 1598.51 694.311 1637.54 690.177 1676.48C685.863 1717.08 681.343 1757.68 677.675 1798.36C677.442 1800.89 677.21 1803.42 677.003 1805.96C674.73 1833.72 672.637 1861.51 671.165 1889.33C671.01 1892.3 670.855 1895.29 670.751 1898.29C673.645 1899.94 676.099 1902.37 677.778 1905.49C682.531 1914.33 679.147 1925.87 670.209 1930.6C653.495 1939.46 635.619 1946.77 617.278 1951.52C602.889 1955.26 588.501 1957.74 573.595 1958.05C572.846 1958.05 572.071 1958.05 571.322 1958.05C560.627 1958.05 549.984 1956.37 539.626 1953.71L539.651 1953.66ZM576.256 1920.86C581.681 1920.55 587.002 1919.96 592.376 1919.13C600.358 1917.45 608.185 1915.49 616.012 1913.24C616.555 1913.06 617.123 1912.88 617.666 1912.67C613.403 1909.94 609.089 1907.3 604.594 1904.87C598.705 1901.96 592.711 1899.35 586.563 1897.05C580.725 1895.06 574.861 1893.35 568.894 1891.88C563.417 1890.75 557.941 1889.87 552.361 1889.27C549.08 1889.07 545.825 1888.96 542.545 1888.99C540.116 1889.14 537.714 1889.38 535.286 1889.69C532.987 1890.15 530.713 1890.67 528.466 1891.29C527.174 1891.73 525.883 1892.24 524.617 1892.79C523.971 1893.12 523.325 1893.46 522.705 1893.82C522.705 1893.82 522.654 1893.87 522.628 1893.9C522.757 1893.82 522.886 1893.72 523.041 1893.64C522.783 1893.85 522.524 1894.03 522.266 1894.23C522.008 1894.49 521.749 1894.72 521.491 1894.98C521.259 1895.24 521.026 1895.52 520.819 1895.78C520.716 1895.96 520.587 1896.17 520.484 1896.35C520.432 1896.51 520.354 1896.66 520.303 1896.82C520.303 1896.89 520.277 1896.94 520.251 1897.02C520.251 1897.1 520.251 1897.18 520.251 1897.23C520.277 1897.41 520.329 1897.59 520.354 1897.77C520.587 1898.44 520.845 1899.09 521.129 1899.73C521.155 1899.79 521.207 1899.84 521.233 1899.89C521.129 1899.68 521.026 1899.45 520.923 1899.24C521.181 1899.71 521.465 1900.17 521.724 1900.64C522.137 1901.23 522.55 1901.8 522.989 1902.34C524.152 1903.63 525.34 1904.87 526.58 1906.06C528.078 1907.3 529.577 1908.46 531.127 1909.6C532.987 1910.79 534.872 1911.9 536.784 1912.96C539.445 1914.2 542.105 1915.33 544.844 1916.37C547.944 1917.35 551.043 1918.2 554.195 1918.98C557.579 1919.6 560.963 1920.11 564.373 1920.5C568.377 1920.78 572.33 1920.86 576.334 1920.81L576.256 1920.86Z" fill="black"/>
<path d="M1107.35 1956.09C1100.14 1955.37 1093.11 1952.94 1086.42 1950.25C1079.32 1947.44 1072.4 1944.11 1065.78 1940.23C1061.18 1937.57 1058.24 1933.05 1057.23 1928.12C1052.04 1922.72 1050.1 1915.05 1048.89 1907.61C1048.11 1902.89 1047.36 1898.16 1046.67 1893.41C1043.67 1873.68 1040.96 1853.87 1038.27 1834.08C1032.72 1793.56 1028.22 1752.91 1024.14 1712.2C1021.14 1682.37 1018.74 1652.49 1016.26 1622.63C1015.02 1607.91 1013.65 1593.19 1012.77 1578.44C1012.26 1569.64 1011.74 1560.85 1011.51 1552.02C1011.38 1546.62 1011.33 1541.23 1014.19 1536.45C1017.66 1530.69 1023.91 1527.41 1030.57 1527.41C1040.7 1527.41 1048.91 1536.45 1048.68 1546.37C1048.68 1546.91 1048.63 1547.45 1048.58 1547.97C1048.53 1551.74 1048.66 1555.48 1048.76 1559.25C1051.11 1598.3 1054.52 1637.28 1058.08 1676.23C1061.88 1717.7 1066.12 1759.13 1071.34 1800.45C1074.85 1828.43 1078.52 1856.42 1082.75 1884.32C1085.78 1881.84 1088.82 1879.38 1091.92 1877.03C1100.58 1870.47 1109.47 1864.51 1118.79 1858.93C1136.07 1848.6 1154.52 1840.18 1173.4 1833.31C1182.98 1829.79 1193.03 1827.52 1203.21 1826.8C1208.15 1826.46 1213.08 1826.72 1217.96 1827.42C1224.88 1828.4 1231.39 1831.37 1237.23 1835.01C1246.12 1840.56 1253.64 1850.38 1255.83 1860.74C1256.89 1865.67 1257.33 1870.45 1256.94 1875.48C1256.48 1881.86 1254.54 1887.88 1252.03 1893.72C1247.28 1904.64 1238.52 1914.28 1229.33 1921.64C1219.74 1929.31 1209 1935.02 1197.73 1939.87C1188.07 1944.05 1177.71 1947.36 1167.51 1949.87C1153.79 1953.25 1139.87 1956.25 1125.69 1956.63C1124.19 1956.68 1122.69 1956.68 1121.19 1956.68C1116.59 1956.68 1112.02 1956.48 1107.37 1956.01L1107.35 1956.09ZM1126.02 1919.62C1131.22 1919.13 1136.33 1918.51 1141.5 1917.74C1146.28 1916.76 1151.06 1915.77 1155.81 1914.61C1160.79 1913.37 1165.7 1911.93 1170.64 1910.45C1176.16 1908.44 1181.69 1906.45 1187.09 1904.13C1191.38 1902.11 1195.51 1899.89 1199.59 1897.44C1201.97 1895.84 1204.27 1894.18 1206.54 1892.43C1208.58 1890.62 1210.52 1888.78 1212.41 1886.82C1213.34 1885.76 1214.24 1884.65 1215.09 1883.54C1216.21 1881.86 1217.24 1880.16 1218.22 1878.38C1218.53 1877.68 1218.81 1876.98 1219.12 1876.28C1219.33 1875.64 1219.51 1874.99 1219.69 1874.32C1219.8 1873.73 1219.9 1873.11 1220 1872.49C1220 1872.13 1220.03 1871.76 1220.03 1871.4C1219.98 1871.01 1219.95 1870.6 1219.9 1870.21C1219.85 1869.98 1219.8 1869.75 1219.74 1869.52C1219.69 1869.39 1219.64 1869.26 1219.59 1869.1C1219.41 1868.82 1219.25 1868.51 1219.07 1868.23C1218.92 1868.02 1218.76 1867.81 1218.61 1867.63C1218.35 1867.37 1218.12 1867.14 1217.86 1866.88C1217.55 1866.65 1217.24 1866.39 1216.93 1866.16C1216.54 1865.93 1216.15 1865.67 1215.74 1865.44C1215.28 1865.23 1214.84 1865 1214.37 1864.76C1215.12 1865.05 1215.87 1865.31 1216.64 1865.57C1214.99 1864.89 1213.29 1864.35 1211.56 1863.94C1211.53 1863.94 1211.48 1863.94 1211.45 1863.94C1211.74 1863.99 1212.05 1864.07 1212.33 1864.14C1211.79 1864.07 1211.25 1863.99 1210.68 1863.91C1209.1 1863.83 1207.55 1863.81 1205.98 1863.83C1203.88 1864.02 1201.79 1864.25 1199.7 1864.53C1196.29 1865.23 1192.93 1866.06 1189.57 1867.01C1181.49 1869.67 1173.71 1872.93 1165.88 1876.26C1159.92 1879.1 1153.97 1881.97 1148.16 1885.06C1142.09 1888.29 1136.18 1891.75 1130.29 1895.27C1125.53 1898.5 1120.81 1901.7 1116.23 1905.16C1111.95 1908.39 1107.79 1911.77 1103.6 1915.18C1103.08 1915.62 1102.54 1916.08 1102.03 1916.52C1102.36 1916.65 1102.72 1916.81 1103.06 1916.94C1104.92 1917.56 1106.8 1918.12 1108.72 1918.67C1110.65 1919.03 1112.59 1919.31 1114.55 1919.54C1118.4 1919.73 1122.17 1919.7 1126 1919.6L1126.02 1919.62Z" fill="black"/>
<path d="M807.018 982.787C798.855 969.951 791.105 956.856 783.459 943.684C779.894 937.537 776.407 931.365 773.074 925.063C769.716 918.658 766.693 912.072 763.206 905.744C758.375 896.885 761.889 885.392 770.775 880.614C779.713 875.81 791.079 879.297 795.91 888.155C799.087 893.992 801.826 900.036 804.926 905.899C808.361 912.407 811.978 918.838 815.646 925.218C822.182 936.659 828.924 948.023 835.899 959.206C836.286 959.826 836.674 960.42 837.061 961.04C839.722 965.224 841.143 969.718 840.394 974.703C839.645 979.584 836.906 984.026 832.902 986.945C829.751 989.244 825.798 990.38 821.846 990.38C816.034 990.38 810.221 987.875 806.992 982.787H807.018Z" fill="black"/>
<path d="M863.54 994.538C853.878 993.066 846.025 983.329 847.989 973.412C850.882 958.793 853.775 944.175 856.694 929.557C858.296 921.421 859.923 913.286 861.525 905.176C862.739 898.951 864.211 892.65 865.012 886.348C866.278 876.301 876.327 869.302 886.143 870.8C896.321 872.323 902.96 881.905 901.694 891.926C900.894 898.228 899.421 904.53 898.207 910.754C896.605 918.89 894.978 927.026 893.376 935.161C890.457 949.78 887.564 964.398 884.671 978.99C883.689 983.923 881.364 988.236 877.205 991.232C874.028 993.531 870.179 994.745 866.278 994.745C865.348 994.745 864.444 994.667 863.54 994.538Z" fill="black"/>
<path d="M809.136 984.955C809.369 974.676 817.997 966.85 828.123 966.85C835.072 966.85 842.021 966.67 848.944 966.566C859.07 966.411 867.285 975.735 867.053 985.549C866.82 995.932 858.192 1003.5 848.092 1003.65C841.143 1003.76 834.194 1003.91 827.271 1003.91C817.144 1003.91 808.93 994.873 809.162 984.955H809.136Z" fill="black"/>
<path d="M815.982 1503.18C812.004 1500.55 808.258 1497.6 804.564 1494.63C797.951 1489.31 791.545 1483.68 785.241 1478C777.853 1471.31 770.543 1464.57 763.697 1457.34C760.365 1453.8 757.265 1450.05 754.294 1446.23C748.301 1438.59 743.005 1429.91 742.644 1419.94C742.463 1414.93 743.186 1409.87 743.677 1404.86C744.116 1400.21 744.555 1395.53 745.02 1390.88C745.924 1381.61 746.828 1372.34 747.733 1363.07C749.696 1343.1 751.866 1323.16 754.294 1303.25C756.645 1283.98 759.383 1264.79 762.302 1245.63C765.35 1225.67 769.303 1205.8 773.178 1186C780.127 1150.46 788.161 1115.13 796.401 1079.87C800.276 1063.21 804.383 1046.61 808.387 1030C810.454 1021.37 812.495 1012.75 814.458 1004.09C815.388 999.987 816.292 995.88 817.248 991.8C818.617 985.989 820.735 980.255 825.824 976.665C834.091 970.828 845.767 972.558 851.734 980.823C855.635 986.195 856.152 993.246 853.672 999.109C852.018 1004.51 851.063 1010.19 849.823 1015.69C848.454 1021.73 847.059 1027.78 845.612 1033.8C842.357 1047.23 839.051 1060.63 835.847 1074.06C829.544 1100.71 823.396 1127.37 817.532 1154.12C809.627 1192.06 801.774 1230.08 796.324 1268.49C790.77 1307.77 786.456 1347.16 782.606 1386.65C781.677 1396.26 780.747 1405.84 779.842 1415.45C779.791 1416.27 779.739 1417.1 779.713 1417.92C779.894 1418.29 780.101 1418.62 780.307 1418.98C782.116 1421.67 784.053 1424.18 786.016 1426.71C792.345 1433.89 799.062 1440.55 806.114 1447.03C813.606 1453.77 821.123 1460.59 829.079 1466.84C830.319 1465.58 831.533 1464.28 832.747 1462.99C842.538 1451.81 851.76 1440.16 861.034 1428.57C868.68 1418.96 876.482 1409.4 883.715 1399.46C889.682 1391.3 902.134 1390.39 909.78 1396.51C917.943 1403.02 918.692 1414.41 912.725 1422.57C903.503 1435.23 893.505 1447.39 883.715 1459.61C877.799 1467 871.832 1474.38 865.736 1481.62C862.661 1485.26 859.407 1488.74 856.152 1492.23C851.14 1497.63 845.38 1503.31 838.405 1505.94C835.589 1507 832.696 1507.52 829.854 1507.52C824.972 1507.52 820.193 1506.02 815.956 1503.23L815.982 1503.18Z" fill="black"/>
<path d="M871.005 1127.32C868.138 1104.67 865.477 1081.99 862.429 1059.37C859.407 1036.87 855.738 1014.5 852.277 992.085C850.727 982.09 859.097 972.715 868.784 971.708C873.589 971.191 878.497 972.612 882.294 975.659C886.298 978.836 888.416 983.252 889.191 988.211C892.601 1010.32 896.244 1032.38 899.214 1054.54C902.314 1077.47 905.001 1100.48 907.92 1123.44C909.186 1133.46 901.307 1142.79 891.413 1143.82C890.767 1143.9 890.121 1143.92 889.476 1143.92C880.098 1143.92 872.194 1136.72 871.005 1127.32Z" fill="black"/>
<path d="M1441.15 686.857C1434 686.547 1426.84 685.669 1419.74 684.713C1412.79 683.784 1405.82 682.802 1398.92 681.407C1394.6 680.529 1390.32 679.6 1386.05 678.411C1382.31 677.353 1378.56 675.88 1375.18 674.021C1371.54 672.032 1368.62 669.501 1365.59 666.66C1362.37 663.638 1360.45 659.118 1358.9 655.089C1357.54 651.551 1357.17 647.548 1356.76 643.803C1356.35 640.058 1355.88 636.313 1355.42 632.568C1354.46 625.336 1353.4 618.13 1352.27 610.925C1351.21 605.114 1350.02 599.406 1348.57 593.672C1347.9 591.658 1347.2 589.669 1346.4 587.68C1346.14 587.189 1345.88 586.673 1345.6 586.182C1345.42 585.95 1345.26 585.717 1345.11 585.459C1345.01 585.381 1344.88 585.304 1344.77 585.226C1344.46 585.097 1344.15 584.968 1343.84 584.839C1326.69 579.389 1309.62 573.63 1293.5 565.546C1276.14 556.842 1260.43 545.194 1245.47 532.874C1237.7 526.469 1230.15 519.806 1222.74 513.013C1216.02 506.815 1209.31 500.41 1203.29 493.514C1194.71 483.725 1186.39 473.807 1179.26 462.908C1165.03 441.11 1156.82 416.238 1154.54 390.359C1151.52 355.88 1159.61 321.09 1174.69 290.201C1182.13 274.963 1191.51 260.654 1202.38 247.663C1213.88 233.975 1227.26 221.991 1241.47 211.169C1255.68 200.348 1271.28 191.179 1287.4 183.482C1302.9 176.096 1318.92 170.698 1335.71 167.16C1350.07 164.112 1364.9 162.588 1379.65 162.33C1382.83 160.858 1386.42 160.264 1390.08 160.832C1409.51 163.854 1428.86 167.366 1448.13 171.214C1468.2 175.218 1488.12 180.331 1507.29 187.589C1543.76 201.432 1579.26 219.951 1608.06 246.604C1615.86 253.836 1623.04 261.507 1629.89 269.642C1636.94 278.036 1643.63 287.231 1648.8 296.916C1651.51 302.056 1653.96 307.195 1656.34 312.49C1658.66 317.681 1660.09 323.337 1661.71 328.787C1663.24 333.952 1664.17 339.789 1664.66 345.161C1665.15 350.714 1665.54 356.267 1665.77 361.846C1665.74 361.045 1665.72 360.27 1665.69 359.47C1666.1 369.594 1666.6 379.796 1665.87 389.92C1665.51 395.086 1665.17 400.225 1664.5 405.365C1663.86 410.505 1662.98 415.567 1662.05 420.681C1658.41 440.697 1650.35 459.551 1640.17 477.036C1630.12 494.314 1615.78 509.32 1600.31 521.795C1584.86 534.269 1568.54 545.556 1552.11 556.687C1540.77 564.358 1529.4 571.925 1517.8 579.235C1518.26 578.925 1518.73 578.641 1519.19 578.356C1507.67 585.588 1496.07 592.665 1484.37 599.612C1481.56 601.394 1478.72 603.151 1475.9 604.933C1476.6 604.494 1477.29 604.055 1477.99 603.616C1475.93 605.036 1473.91 606.482 1471.92 608.032C1471.4 608.497 1470.89 608.988 1470.4 609.478C1470.29 609.607 1470.19 609.762 1470.09 609.892C1470.01 612.19 1470.09 614.463 1470.16 616.736C1470.16 616.245 1470.11 615.78 1470.11 615.289C1470.76 630.657 1471.53 645.998 1469.83 661.314C1468.98 668.855 1465.95 676.474 1459.78 681.175C1454.69 685.049 1448.96 686.935 1442.65 686.935C1442.21 686.935 1441.75 686.935 1441.28 686.909L1441.15 686.857ZM1433.43 649.02C1433.79 639.386 1433.48 629.779 1433.12 620.119C1432.68 610.641 1432.22 600.775 1437.23 592.252C1443.76 581.146 1454.46 574.534 1465.08 567.871C1464.74 568.077 1464.43 568.284 1464.09 568.49C1471.95 563.557 1479.96 558.934 1487.89 554.156C1487.73 554.26 1487.58 554.337 1487.45 554.44C1490.91 552.245 1494.4 550.075 1497.86 547.88C1525.55 529.904 1553.29 511.825 1579.07 491.163C1583.67 487.083 1588.06 482.924 1592.43 478.585C1596.18 474.298 1599.74 469.959 1603.23 465.465C1606.28 460.894 1609.12 456.322 1611.91 451.57C1613.61 448.187 1615.29 444.803 1616.82 441.317C1618.34 437.804 1619.66 434.266 1620.98 430.676C1622.58 425.278 1624.05 419.88 1625.37 414.405C1626.48 408.309 1627.38 402.292 1628.16 396.17C1628.78 387.208 1629.24 378.246 1628.91 369.258C1628.91 369.749 1628.96 370.214 1628.98 370.705C1628.83 367.295 1628.7 363.886 1628.57 360.477C1628.6 361.278 1628.62 362.053 1628.65 362.853C1628.26 356.241 1627.74 349.759 1626.81 343.199C1625.99 339.531 1625.06 335.941 1624.02 332.351C1622.58 328.425 1621.05 324.603 1619.37 320.78C1617.1 316.545 1614.78 312.412 1612.32 308.28C1609.12 303.579 1605.81 299.034 1602.35 294.488C1598.91 290.433 1595.45 286.508 1591.86 282.582C1588.43 278.811 1584.63 275.35 1580.86 271.889C1574.48 266.414 1567.94 261.248 1561.17 256.29C1551.72 250.065 1542.03 244.409 1532.06 239.037C1519.22 232.58 1506.2 226.769 1492.79 221.655C1478.66 216.748 1464.4 212.719 1449.83 209.336C1439.84 207.244 1429.81 205.255 1419.79 203.395C1416.74 204.196 1413.49 204.17 1410.36 203.111C1408.09 202.336 1405.79 201.716 1403.49 201.097C1400.26 200.477 1397.03 199.986 1393.75 199.599C1387.89 199.211 1382.05 199.211 1376.19 199.392C1367.12 199.883 1358.13 200.838 1349.17 202.233C1341.54 203.628 1334 205.384 1326.54 207.553C1319.82 209.775 1313.28 212.357 1306.83 215.198C1297.19 219.692 1287.86 224.754 1278.8 230.333C1270.09 235.938 1261.77 242.007 1253.77 248.593C1247.05 254.404 1240.67 260.499 1234.6 267.008C1230.08 272.122 1225.84 277.391 1221.84 282.918C1217.39 289.452 1213.31 296.193 1209.57 303.166C1205.92 310.424 1202.69 317.81 1199.85 325.429C1197.86 331.318 1196.16 337.258 1194.71 343.302C1193.32 350.069 1192.28 356.861 1191.59 363.757C1191.17 369.723 1191.02 375.689 1191.15 381.681C1191.46 387.157 1192 392.58 1192.8 398.004C1193.71 402.782 1194.82 407.483 1196.11 412.132C1197.81 417.4 1199.78 422.54 1202 427.602C1204.35 432.432 1206.96 437.133 1209.75 441.704C1213.98 448.083 1218.66 454.075 1223.39 460.093C1228.14 465.543 1232.97 470.837 1237.96 476.08C1242.45 480.781 1247.26 485.171 1252.04 489.562C1264.15 500.229 1276.52 510.508 1289.65 519.935C1295.54 523.912 1301.48 527.709 1307.73 531.118C1316.72 535.535 1325.89 539.435 1335.27 542.921C1342.27 545.323 1349.42 547.338 1356.4 549.895C1365.23 553.123 1372.67 558.934 1377.43 567.096C1381.64 574.353 1383.94 582.282 1386 590.34C1388.2 598.967 1389.33 607.929 1390.65 616.736C1391.89 625.052 1392.87 633.394 1393.86 641.763C1394.06 641.84 1394.27 641.943 1394.48 642.021C1397.16 642.873 1399.87 643.545 1402.61 644.216C1412.79 646.231 1423.07 647.754 1433.38 648.891L1433.43 649.02Z" fill="black"/>
<path d="M1365.59 663.2C1362.99 654.987 1361.31 646.49 1359.34 638.122C1357.04 628.23 1354.69 618.338 1352.39 608.446C1347.74 588.507 1343.17 568.569 1338.55 548.656C1334.13 529.673 1329.64 510.664 1326.2 491.474C1324.16 480.213 1322.27 469.004 1320.67 457.666C1319.23 447.593 1318.35 437.495 1317.34 427.371C1316.87 422.567 1316.82 417.711 1316.56 412.881C1316.31 408.155 1316.13 403.429 1316.05 398.702C1315.87 385.995 1316.05 373.366 1317.18 360.684C1318.22 349.243 1320.65 337.027 1326.38 326.98C1332.32 316.546 1341.47 307.842 1353.32 304.742C1369.88 300.429 1385.9 305.905 1399.15 315.538C1403.44 308.668 1408.22 302.134 1413.88 296.297C1420.98 288.962 1429.19 283.073 1438.91 279.742C1449.01 276.281 1460.84 276.358 1470.73 280.542C1492.79 289.892 1507.05 311.716 1513.43 334.186C1516.79 345.989 1518.65 358.437 1518.94 370.731C1519.09 376.336 1519.19 381.914 1519.35 387.519C1519.58 397.488 1518.7 407.535 1517.93 417.479C1516.43 436.772 1513.33 456.039 1509.3 474.97C1505.01 495.116 1500.54 515.209 1494.91 535.019C1489.54 553.873 1483.26 572.443 1477.42 591.167C1471.82 609.04 1466.88 627.145 1461.79 645.172C1460.86 648.478 1459.93 651.81 1458.98 655.116C1456.27 664.853 1445.7 670.612 1436.04 667.849C1426.28 665.059 1420.59 654.625 1423.3 644.888C1430.98 617.537 1438.7 590.212 1447.35 563.171C1451.62 549.87 1455.88 536.594 1459.7 523.164C1463.55 509.579 1466.78 495.813 1469.93 482.047C1472.02 472.155 1474.01 462.263 1475.93 452.32C1478.02 441.498 1479.26 430.547 1480.63 419.622C1481.22 411.797 1481.79 404.023 1482.02 396.145C1482.28 387.829 1482.1 379.59 1481.89 371.274C1481.53 366.134 1481.04 361.02 1480.34 355.906C1479.62 351.851 1478.74 347.874 1477.66 343.897C1476.78 341.236 1475.8 338.628 1474.74 335.994C1473.42 333.23 1472 330.518 1470.42 327.858C1469.16 326.024 1467.87 324.242 1466.52 322.486C1465.33 321.169 1464.09 319.903 1462.8 318.663C1462.08 318.044 1461.3 317.449 1460.55 316.881C1459.94 316.468 1459.32 316.106 1458.67 315.745C1458.05 315.487 1457.43 315.228 1456.81 314.97C1456.37 314.841 1455.96 314.712 1455.52 314.583C1455.23 314.531 1454.95 314.505 1454.67 314.454C1454.23 314.454 1453.79 314.454 1453.35 314.454C1452.99 314.479 1452.62 314.505 1452.26 314.557C1451.75 314.66 1451.23 314.789 1450.74 314.918C1450.17 315.125 1449.63 315.332 1449.09 315.538C1448.34 315.9 1447.61 316.287 1446.89 316.726C1446.04 317.295 1445.18 317.914 1444.36 318.534C1442.91 319.826 1441.52 321.169 1440.15 322.563C1437.56 325.533 1435.19 328.607 1432.91 331.809C1430.12 336.019 1427.57 340.358 1425.11 344.749C1427.83 349.346 1430.23 354.15 1432.35 359.006C1437.02 369.595 1440.95 380.649 1443.58 391.91C1446.04 402.37 1448.18 412.804 1449.65 423.419C1450.87 432.097 1451.85 440.775 1451.69 449.556C1451.62 454.799 1450.58 459.861 1449.37 464.924C1447.77 471.587 1443.97 477.656 1439.71 482.899C1433.28 490.803 1422.58 496.175 1412.33 496.045C1407.55 495.968 1402.56 495.296 1398.14 493.282C1392.12 490.57 1387.32 486.954 1382.64 482.331C1374.64 474.454 1370.24 463.348 1367.3 452.785C1363.81 440.284 1364.07 426.415 1365.44 413.656C1366.76 401.207 1369.06 388.526 1372.72 376.568C1374.43 371.041 1375.9 365.411 1377.92 359.987C1379.23 356.423 1380.58 352.833 1381.95 349.295C1381.74 349.088 1381.53 348.881 1381.3 348.675C1379.8 347.409 1378.3 346.195 1376.73 345.007C1375.13 343.974 1373.5 343.044 1371.85 342.14C1371.07 341.805 1370.3 341.469 1369.55 341.133C1368.95 340.952 1368.38 340.772 1367.79 340.642C1367.04 340.513 1366.27 340.41 1365.52 340.281C1365.13 340.281 1364.74 340.281 1364.38 340.281C1364.35 340.281 1364.33 340.281 1364.3 340.281C1364.38 340.281 1364.46 340.281 1364.54 340.281C1364.38 340.307 1364.2 340.332 1364.04 340.358C1363.79 340.436 1363.53 340.487 1363.27 340.565C1362.99 340.668 1362.7 340.772 1362.42 340.875C1362.39 340.875 1362.34 340.901 1362.31 340.927C1362.13 341.056 1361.95 341.185 1361.77 341.288C1361.44 341.572 1361.1 341.882 1360.76 342.192C1360.94 342.011 1361.1 341.805 1361.28 341.624C1361.28 341.624 1361.23 341.65 1361.23 341.676C1361.25 341.676 1361.28 341.624 1361.33 341.598C1361.54 341.366 1361.75 341.159 1361.93 340.927C1362 340.849 1362.08 340.746 1362.16 340.668C1362.16 340.668 1362.16 340.668 1362.13 340.668C1361.31 341.521 1360.53 342.399 1359.81 343.354C1359.37 344.129 1358.93 344.904 1358.49 345.679C1358.1 346.531 1357.72 347.409 1357.38 348.287C1356.66 350.638 1356.01 352.988 1355.47 355.364C1354.72 359.574 1354.18 363.81 1353.74 368.071C1352.91 380.287 1353.04 392.452 1353.22 404.668C1353.79 415.206 1354.46 425.692 1355.47 436.178C1356.48 446.612 1358 456.917 1359.47 467.274C1362.11 481.944 1364.79 496.588 1368.05 511.154C1371.69 527.451 1375.46 543.723 1379.26 559.994C1382.98 575.904 1386.6 591.839 1390.32 607.749C1392.2 615.833 1394.14 623.917 1396.03 631.975C1397.58 638.612 1398.94 645.302 1400.86 651.836C1400.78 651.629 1400.73 651.448 1400.68 651.242C1401.84 655.529 1401.84 659.868 1400 664.078C1398.04 668.649 1394.22 672.291 1389.57 674.047C1387.53 674.822 1385.36 675.184 1383.19 675.184C1375.64 675.184 1368 670.767 1365.62 663.277L1365.59 663.2ZM1411.63 458.596C1411.78 458.389 1411.96 458.183 1412.12 457.976C1412.33 457.666 1412.53 457.33 1412.71 457.02C1412.92 456.581 1413.15 456.116 1413.36 455.677C1413.07 456.426 1412.82 457.175 1412.56 457.924C1413.15 456.452 1413.64 454.928 1414.03 453.404C1414.19 452.501 1414.34 451.571 1414.44 450.667C1414.57 448.497 1414.6 446.38 1414.57 444.236C1414.13 437.159 1413.13 430.186 1412.14 423.161C1410.47 413.863 1408.61 404.668 1406.13 395.577C1405.84 396.714 1405.56 397.85 1405.3 399.012C1404.01 405.417 1402.92 411.823 1402.17 418.331C1401.81 423.057 1401.63 427.758 1401.71 432.536C1401.92 435.067 1402.15 437.547 1402.48 440.052C1402.92 442.299 1403.44 444.494 1404.06 446.715C1404.52 448.084 1405.04 449.427 1405.61 450.744C1406.13 451.803 1406.69 452.862 1407.29 453.869C1407.86 454.722 1408.45 455.574 1409.1 456.375C1409.46 456.788 1409.85 457.175 1410.23 457.563C1410.62 457.873 1411.01 458.183 1411.37 458.492C1411.45 458.544 1411.5 458.57 1411.58 458.622L1411.63 458.596Z" fill="black"/>
<path d="M1354.02 743.704C1352.99 733.838 1360.4 724.282 1370.43 723.326C1387.86 720.227 1405.3 717.412 1422.81 714.804C1432.81 713.331 1442.19 721.596 1443.2 731.307C1444.28 741.69 1436.69 750.213 1426.69 751.711C1414.08 753.57 1401.48 755.507 1388.9 757.548C1386.52 757.961 1384.12 758.374 1381.74 758.813C1379.31 759.252 1376.83 760.027 1374.4 760.208C1373.84 760.26 1373.29 760.285 1372.72 760.285C1363.32 760.285 1355 753.338 1354 743.704H1354.02Z" fill="black"/>
<path d="M1377.04 810.002C1367.38 805.818 1362.86 794.919 1366.86 785.233C1370.48 776.426 1380.81 772.139 1389.64 774.98C1391.09 775.006 1392.54 774.98 1394.01 774.954C1403.96 774.283 1413.82 773.172 1423.72 771.7C1433.72 770.202 1443.09 778.467 1444.1 788.203C1445.18 798.56 1437.59 807.109 1427.59 808.581C1417.96 810.028 1408.32 811.19 1398.61 811.81C1395.77 811.99 1392.8 812.197 1389.8 812.197C1385.41 812.197 1380.99 811.732 1377.06 810.028L1377.04 810.002Z" fill="black"/>
<path d="M1497.34 129.633C1496.88 123.925 1497.88 118.191 1498.89 112.613C1499.77 107.835 1500.72 103.082 1501.68 98.3301C1503.62 89.0323 1505.74 79.7861 1507.98 70.5657C1510.36 60.7513 1521.52 55.1726 1530.92 57.8587C1540.95 60.7255 1546.03 71.0048 1543.66 80.8192C1542.13 87.0952 1540.69 93.3971 1539.27 99.6989C1537.35 108.609 1535.39 117.546 1534.31 126.585C1534.31 126.818 1534.31 127.05 1534.31 127.283C1534.31 136.735 1527.44 145.129 1517.75 146.136C1517.13 146.188 1516.53 146.24 1515.91 146.24C1506.69 146.24 1498.09 139.086 1497.34 129.633Z" fill="black"/>
<path d="M1647.74 205.489C1640.07 199.368 1638.18 187.074 1644.79 179.429C1649.47 174.005 1654.74 169.201 1659.96 164.346C1664.84 159.8 1669.8 155.332 1674.86 150.993C1686.95 140.61 1699.25 130.486 1711.8 120.62C1719.76 114.37 1731.95 116.849 1737.71 124.778C1743.83 133.224 1741.48 144.433 1733.55 150.683C1725.91 156.675 1718.34 162.796 1710.85 169.02C1698.34 179.584 1686 190.354 1674.4 201.899C1674.22 202.105 1674.01 202.338 1673.83 202.544C1669.98 206.987 1664.53 209.466 1659.03 209.466C1655.1 209.466 1651.15 208.201 1647.74 205.514V205.489Z" fill="black"/>
<path d="M1716.17 338.317C1713.84 328.477 1720.09 318.327 1729.91 315.977C1739.08 313.807 1748.12 311.173 1757.16 308.513C1766.85 305.672 1777.26 312.826 1779.51 322.279C1780.62 326.953 1779.84 331.964 1777.36 336.096C1774.7 340.538 1770.6 343.199 1765.74 344.619C1756.7 347.279 1747.66 349.914 1738.49 352.083C1737.09 352.419 1735.7 352.574 1734.3 352.574C1725.93 352.574 1718.16 346.763 1716.14 338.317H1716.17Z" fill="black"/>
<path d="M1314.81 126.069C1309.82 124.622 1306.26 121.317 1303.6 117.029C1297.63 107.421 1291.89 97.6587 1285.88 88.0509C1282.34 82.4464 1278.75 76.8677 1275.1 71.3406C1272.39 67.2341 1271.05 62.611 1271.8 57.678C1272.55 52.7966 1275.26 48.3285 1279.29 45.4358C1287.19 39.7022 1299.64 41.1485 1305.2 49.594C1315.94 65.9944 1325.97 82.808 1336.3 99.4408C1341.62 108.041 1337.23 119.999 1328.76 124.571C1326.05 126.017 1323 126.766 1319.95 126.766C1318.24 126.766 1316.51 126.534 1314.86 126.069H1314.81Z" fill="black"/>
</g>
<defs>
<clipPath id="clip0_157_202">
<rect width="1560" height="1916" fill="white" transform="translate(220 42)"/>
</clipPath>
</defs>
</svg>
