<svg width="2000" height="2000" viewBox="0 0 2000 2000" fill="none" xmlns="http://www.w3.org/2000/svg">
<g clip-path="url(#clip0_157_189)">
<path d="M981.289 974.446C965.576 972.455 950.284 968.347 935.272 963.448C931.586 962.235 927.747 961.215 924.15 959.76C920.349 958.204 916.548 956.647 912.748 955.103C910.069 954.006 907.263 953.049 904.661 951.76C900.35 949.63 896.04 947.512 891.716 945.381C884.561 941.846 877.712 937.853 870.786 933.872C864.281 930.134 858.121 925.783 851.846 921.649C836.655 911.62 822.6 899.397 810.101 886.191C796.084 871.391 785.103 854.243 776.761 835.691C768.407 817.063 764.377 796.955 763.726 776.604C763.408 766.69 764.466 756.636 765.907 746.85C767.489 736.209 769.836 725.644 772.705 715.297C778.266 695.239 786.901 676.318 797.462 658.417C802.716 649.485 808.545 640.911 814.82 632.682C821.593 623.789 829.271 615.674 837.293 607.916C840.112 605.186 843.16 602.672 846.081 600.044C848.721 597.696 851.297 595.234 854.103 593.078C860.2 588.369 866.169 583.508 872.584 579.247C876.372 576.72 880.16 574.207 883.948 571.681C887.15 569.55 890.619 567.789 893.973 565.913C896.792 564.331 899.572 562.558 902.493 561.18C906.868 559.113 911.268 557.046 915.643 554.992C918.602 553.601 921.612 552.414 924.66 551.228C928.461 549.76 932.211 548.242 936.113 547.043C937.185 546.724 938.256 546.379 939.315 546.06C941.483 542.092 945.424 539.158 950.143 538.749C964.849 537.512 979.631 536.823 994.388 537.129C1010.27 537.448 1026.07 538.749 1041.83 540.612C1056.58 542.36 1071.09 545.601 1085.53 548.982C1100.76 552.567 1115.54 557.658 1129.9 563.783C1143.77 569.703 1156.6 577.996 1169.06 586.379C1175.05 590.411 1180.98 594.749 1186.58 599.291C1192.84 604.369 1199.21 609.422 1205.03 615.023C1215.68 625.243 1226.01 635.757 1234.91 647.584C1239.6 653.836 1244.36 660.139 1248.26 666.914C1250.07 670.066 1252.17 673.179 1253.73 676.458C1255.58 680.324 1257.75 684.164 1259.31 688.171C1260.67 691.68 1262.02 695.188 1263.39 698.697C1264.78 702.282 1265.68 706.136 1266.82 709.836C1269.17 717.517 1270.52 725.517 1272 733.389C1273.34 740.547 1274.37 747.756 1274.89 755.016C1275.33 760.961 1275.24 766.881 1275.17 772.84C1275.11 780.674 1274.12 788.521 1272.51 796.176C1271.22 802.275 1269.24 808.157 1267.28 814.064C1262.51 828.469 1256.25 842.313 1248.58 855.417C1246.82 858.402 1245.12 861.413 1243.2 864.297C1240.83 867.869 1238.59 871.582 1235.99 874.989C1233.62 878.102 1231.26 881.203 1228.89 884.316C1226.48 887.493 1223.63 890.402 1221.02 893.413C1215.87 899.384 1209.97 904.692 1204.06 909.898C1197.25 915.895 1190.01 921.445 1182.77 926.906C1166.04 939.486 1147.49 949.081 1127.87 956.315C1123.35 957.987 1118.7 959.352 1114.09 960.755C1110.43 961.865 1106.78 963.218 1103.05 964.098C1096.05 965.783 1089.08 967.696 1081.97 968.972C1077.37 969.802 1072.74 970.631 1068.13 971.447C1064.24 972.149 1060.3 972.558 1056.39 973.068C1048.36 974.101 1040.34 974.778 1032.28 975.479C1025.36 976.079 1018.4 976.385 1011.47 976.385C1001.35 976.385 991.25 975.747 981.213 974.471L981.289 974.446ZM976.124 568.287C974.185 568.287 972.234 568.287 970.295 568.325C967.208 568.58 964.173 568.976 961.112 569.409C958.204 570.035 955.219 570.52 952.401 571.374C949.174 572.37 945.96 573.365 942.746 574.334C938.256 576.095 933.779 577.83 929.29 579.578C924.647 581.76 920.005 583.955 915.362 586.137C912.607 587.438 909.98 589.148 907.327 590.641C904.814 592.057 902.302 593.46 899.789 594.877C894.853 598.156 889.905 601.447 884.982 604.727C882.52 606.36 880.25 608.388 877.928 610.187C875.416 612.127 872.916 614.066 870.403 615.993C862.126 623.393 853.874 630.691 846.272 638.819C840.826 644.956 835.775 651.399 831.018 658.098C824.998 666.914 819.501 676.062 814.514 685.504C810.611 693.262 807.129 701.172 804.107 709.325C801.033 718.155 798.495 727.137 796.454 736.26C794.643 744.974 793.163 753.727 792.334 762.594C791.939 768.081 791.773 773.542 791.913 779.041C792.22 784.438 792.781 789.797 793.623 795.143C794.605 800.31 795.803 805.414 797.283 810.454C799.107 816.042 801.211 821.49 803.571 826.862C806.3 832.654 809.298 838.243 812.626 843.704C816.21 849.318 820.088 854.689 824.284 859.857C829.309 865.726 834.64 871.302 840.265 876.609C848.479 884.048 857.101 890.912 866.092 897.381C871.411 900.89 876.742 904.411 882.074 907.92C884.828 909.732 887.851 911.237 890.721 912.883C893.438 914.453 896.154 916.022 898.884 917.579C904.661 920.437 910.452 923.282 916.23 926.127C919.099 927.544 922.211 928.564 925.158 929.776C928.308 931.065 931.484 932.366 934.647 933.655C938.703 934.982 942.733 936.309 946.776 937.623C953.689 939.894 960.653 941.808 967.744 943.454C976.073 945.228 984.44 946.631 992.934 947.486C1002.42 948.226 1011.9 948.366 1021.41 948.009C1035.25 947.333 1048.96 945.649 1062.7 943.875C1067.3 943.046 1071.92 942.216 1076.53 941.4C1080.49 940.685 1084.37 939.639 1088.29 938.695C1091.98 937.815 1095.68 936.998 1099.32 935.901C1103.87 934.51 1108.44 933.119 1113 931.741C1120.2 929.241 1127.26 926.497 1134.21 923.384C1140.79 920.271 1147.15 916.864 1153.34 913.062C1163.59 906.478 1173.09 898.976 1182.6 891.384C1185.57 888.769 1188.55 886.153 1191.53 883.538C1194.39 881.024 1196.95 878.064 1199.6 875.295C1202.07 872.45 1204.53 869.617 1206.96 866.772C1209.53 863.812 1211.77 860.507 1214.13 857.369C1217.47 852.342 1220.78 847.327 1223.83 842.122C1227.01 836.699 1229.86 831.162 1232.74 825.573C1232.46 826.122 1232.18 826.658 1231.9 827.206C1233.44 823.685 1235 820.163 1236.53 816.642C1237.77 813.809 1238.76 810.811 1239.79 807.876C1241.68 802.211 1243.58 796.585 1245.02 790.779C1245.84 786.671 1246.44 782.55 1246.86 778.377C1247.23 772.776 1247.33 767.137 1247.19 761.51C1246.86 754.786 1246.07 748.164 1245.02 741.516C1244.28 737.612 1243.57 733.708 1242.83 729.816C1242.09 725.95 1241.03 722.123 1240.12 718.282C1239.16 715.131 1238.2 711.979 1237.23 708.815C1236.15 705.319 1234.56 701.9 1233.21 698.467C1231.78 695.507 1230.37 692.522 1228.94 689.536C1227.41 686.359 1225.41 683.348 1223.62 680.286C1221.59 677.236 1219.57 674.187 1217.54 671.125C1215.27 667.705 1212.58 664.528 1210.11 661.262C1206.36 656.822 1202.61 652.407 1198.62 648.184C1194.26 643.603 1189.77 639.227 1185.23 634.851C1180.08 630.334 1174.9 625.919 1169.58 621.594C1164.58 617.537 1159.31 613.785 1154.07 610.047C1145.14 604.05 1136.09 598.462 1126.65 593.307C1122.94 591.508 1119.27 589.735 1115.46 588.114C1111.59 586.456 1107.67 584.988 1103.73 583.508C1098.16 581.658 1092.58 579.936 1086.95 578.277C1081.28 576.631 1075.48 575.393 1069.74 574.041C1062.05 572.408 1054.35 570.928 1046.6 569.601C1038.48 568.223 1030.27 567.432 1022.06 566.641C1009.86 565.709 997.691 565.173 985.485 565.173H985.116C982.641 567.113 979.491 568.248 976.149 568.248L976.124 568.287Z" fill="black"/>
<path d="M969.759 740.497C966.061 740.407 962.477 738.838 959.926 736.146C957.273 733.364 956.151 729.894 956.036 726.117C955.628 711.534 955.602 696.95 955.577 682.366C955.577 674.481 955.602 666.583 955.679 658.698C955.717 655.011 955.793 651.324 955.87 647.623C955.947 644.076 955.832 640.274 956.788 636.842C958.867 629.467 966.851 625.104 974.172 627.196C980.958 629.136 985.141 635.974 984.172 642.775V642.877C984.172 642.877 984.146 642.954 984.146 642.992C984.146 642.954 984.146 642.915 984.172 642.877C983.496 656.925 983.662 670.998 983.662 685.046C983.662 698.94 983.725 712.861 984.108 726.755C984.312 734.309 977.297 740.484 970.04 740.484H969.747L969.759 740.497Z" fill="black"/>
<path d="M1039.81 752.324C1032.26 752.146 1025.76 745.6 1026.08 737.945C1026.73 721.843 1027.38 705.754 1028 689.652C1028.58 674.162 1029.14 658.66 1029.14 643.158C1029.14 635.502 1035.99 629.263 1043.52 629.429C1051.3 629.62 1057.24 636.153 1057.24 643.808C1057.24 658.877 1056.71 673.933 1056.13 688.976C1055.49 705.511 1054.83 722.047 1054.17 738.583C1053.86 746.111 1047.74 752.312 1040.14 752.312H1039.79L1039.81 752.324Z" fill="black"/>
<path d="M956.942 870.574C948.192 866.989 940.068 862.115 932.339 856.705C924.278 851.065 917.391 843.907 911.217 836.29C905.402 829.094 900.784 820.788 897.468 812.163C895.797 807.838 894.752 803.232 893.578 798.753C892.099 793.075 891.091 787.295 890.135 781.528C888.783 773.401 888.808 765.235 888.961 757.018C889.038 753.114 889.178 749.184 889.561 745.305C890.313 737.675 898.285 732.419 905.567 733.529C909.266 734.09 912.646 736.157 914.84 739.181C916.919 742.052 917.62 745.331 917.391 748.776C917.429 748.521 917.442 748.266 917.467 747.998C917.008 755.104 916.817 762.249 917.021 769.356C917.276 772.865 917.722 776.323 918.271 779.793C919.52 786.734 921.153 793.586 923.117 800.361C923.742 802.224 924.444 804.035 925.209 805.847C926.459 808.348 927.798 810.772 929.239 813.196C931.025 815.901 932.925 818.504 934.953 821.03C937.096 823.493 939.328 825.853 941.675 828.124C944.544 830.676 947.542 833.049 950.654 835.282C954.263 837.681 957.962 839.876 961.801 841.892C965.717 843.78 969.696 845.477 973.777 846.982C978.024 848.411 982.297 849.611 986.646 850.619C991.174 851.512 995.715 852.163 1000.31 852.635C1005.06 852.941 1009.81 853.017 1014.58 852.877C1019.53 852.584 1024.42 852.06 1029.34 851.308C1034.51 850.351 1039.61 849.151 1044.68 847.684C1048.96 846.268 1053.17 844.686 1057.31 842.861C1060.57 841.254 1063.73 839.531 1066.86 837.656C1069.94 835.64 1072.89 833.483 1075.79 831.174C1079.04 828.38 1082.13 825.445 1085.07 822.319C1089.13 817.764 1092.85 813.005 1096.41 808.042C1098.67 804.61 1101.01 801.216 1103.08 797.656C1105.57 793.356 1107.94 789.069 1110.25 784.693C1114.34 776.361 1118.3 767.978 1121.59 759.302C1122.02 758.001 1122.45 756.725 1122.88 755.411C1125.2 748.112 1132.76 743.634 1140.26 745.777C1147.47 747.832 1152.21 755.87 1149.89 763.155C1145.23 777.803 1138.35 791.557 1131.23 805.12C1127.95 811.334 1124 817.152 1120.16 823.021C1114.85 831.148 1108.48 838.6 1101.7 845.515C1094.38 852.992 1085.8 859.167 1076.77 864.398C1068.39 869.247 1059.23 872.564 1049.98 875.359C1039.28 878.587 1028.01 880.207 1016.87 880.832C1014.4 880.973 1011.9 881.036 1009.44 881.036C991.429 881.036 973.65 877.374 956.942 870.536V870.574Z" fill="black"/>
<path d="M837.676 1380.73C832.281 1380.2 826.363 1379.2 821.975 1375.72C819.59 1373.82 816.963 1371.01 816.019 1368.04C815.611 1366.79 815.228 1365.52 814.846 1364.26C814.399 1362.35 814.297 1360.26 814.335 1358.29C814.425 1352.66 814.858 1347 815.203 1341.38C815.866 1330.45 816.606 1319.52 817.371 1308.58C819.029 1285.23 821.376 1261.92 823.455 1238.62C825.98 1208.46 828.263 1178.27 830.546 1148.1C832.855 1117.6 835.571 1087.16 838.479 1056.72C840.724 1033.11 843.02 1009.5 845.29 985.879C846.349 974.881 847.344 963.857 848.402 952.846C848.683 949.886 848.976 946.913 849.257 943.94C849.537 940.929 849.907 937.931 850.303 934.932C850.736 931.551 851.183 927.723 852.586 924.572C853.542 922.428 854.575 920.463 856.297 918.83C858.134 917.069 860.493 915.794 862.955 915.207C866.373 914.39 870.62 914.849 873.579 916.891C876.742 919.073 879.127 921.88 880.033 925.695C880.849 929.127 880.313 932.814 878.592 935.864C877.15 944.961 876.449 954.147 875.582 963.296C874.918 970.109 874.293 976.909 873.656 983.736C872.572 995.346 871.449 1006.94 870.314 1018.56C867.674 1045.86 865.085 1073.19 862.547 1100.51C860.072 1130.08 857.866 1159.68 855.57 1189.27C853.16 1220.43 850.443 1251.55 847.637 1282.68C847.522 1283.99 847.395 1285.31 847.28 1286.61C846.285 1298.39 845.354 1310.14 844.563 1321.91C843.874 1332.24 842.969 1342.61 842.561 1352.97C848.619 1353.33 854.677 1353.19 860.761 1353.14C891.588 1351.59 922.415 1349.45 953.243 1347.41C983.674 1345.39 1014.11 1343.97 1044.58 1342.84C1050.56 1342.62 1056.54 1342.38 1062.52 1342.15C1061.93 1342.18 1061.32 1342.19 1060.74 1342.21C1084.14 1341.08 1107.51 1339.64 1130.77 1336.65C1142.72 1335.12 1154.63 1333.32 1166.55 1331.5C1176.97 1329.9 1187.45 1328.56 1197.84 1326.9C1197.84 1326.88 1197.87 1326.87 1197.88 1326.84C1198.01 1326.41 1198.14 1326 1198.24 1325.56C1198.51 1324.05 1198.74 1322.54 1198.92 1321.03C1199.07 1318.16 1199.08 1315.32 1199.01 1312.46C1198.62 1306.32 1197.73 1300.3 1196.82 1294.23C1194.02 1279.85 1190.75 1265.58 1187.48 1251.29C1184.02 1236.21 1180.55 1221.12 1176.95 1206.05C1169.98 1176.81 1163.08 1147.59 1157.15 1118.1C1151.75 1091.27 1146.43 1064.42 1140.82 1037.63C1138.18 1025.01 1135.57 1012.38 1132.78 999.787C1130.07 987.538 1127.3 975.276 1123.75 963.232C1122.48 959.136 1121.11 955.066 1119.7 951.009C1117.15 943.8 1120.57 935.634 1127.85 932.878C1134.88 930.211 1143.41 933.809 1145.97 941.031C1155.19 967.136 1160.45 994.389 1166.12 1021.41C1172.35 1051.04 1178.28 1080.7 1184.26 1110.38C1187.14 1124.68 1190.09 1138.96 1193.33 1153.19C1196.76 1168.3 1200.45 1183.35 1204.04 1198.42C1207.63 1213.48 1211.11 1228.56 1214.57 1243.62C1217.97 1258.43 1221.35 1273.21 1224.27 1288.12C1226.72 1300.66 1227.86 1313.61 1226.62 1326.33C1225.9 1333.67 1223.2 1342.24 1217.64 1347.38C1215.13 1349.7 1212.42 1351.68 1209.2 1352.92C1205.74 1354.22 1202.04 1354.67 1198.41 1355.18C1184.73 1357.12 1171.07 1359.25 1157.4 1361.28C1142.21 1363.52 1126.99 1365.51 1111.69 1366.99C1096.46 1368.46 1081.18 1369.3 1065.9 1370.04C1052.79 1370.68 1039.69 1371.09 1026.58 1371.56C996.658 1372.85 966.775 1374.67 936.892 1376.61C921.739 1377.6 906.587 1378.56 891.422 1379.52C882.954 1380.04 874.472 1380.54 866.003 1380.96C861.322 1381.19 856.59 1381.37 851.884 1381.37C847.178 1381.37 842.395 1381.19 837.676 1380.72V1380.73Z" fill="black"/>
<path d="M551.801 1654.68C534.315 1650.74 514.903 1642.59 505.388 1626.41C503.194 1622.66 501.728 1618.79 500.618 1614.59C500.108 1612.67 499.929 1610.56 499.865 1608.57C499.814 1606.47 499.738 1604.2 500.146 1602.12C500.962 1598.06 502.008 1594.08 504.151 1590.49C506.753 1586.12 509.929 1582.24 513.882 1579.02C528.818 1566.93 549.25 1565.74 567.667 1567.14C583.929 1568.37 599.885 1571.75 615.496 1576.32C618.519 1577.21 621.439 1578.23 624.386 1579.33C627.472 1580.46 630.597 1581.51 633.582 1582.87C636.872 1584.38 640.201 1585.8 643.428 1587.43C643.147 1585.73 642.841 1584.05 642.573 1582.35C641.336 1574.59 640.086 1566.85 638.849 1559.09C636.439 1544.01 634.079 1528.9 631.821 1513.8C627.255 1483.26 624.858 1452.46 622.498 1421.7C621.937 1414.34 621.707 1406.95 621.312 1399.6C620.521 1384.6 620.279 1369.61 621.108 1354.59C621.669 1344.4 622.893 1334.25 624.781 1324.22C625.661 1319.55 626.847 1314.96 628.212 1310.41C629.768 1305.24 631.617 1299.98 634.27 1295.27C636.336 1291.61 638.645 1288.18 641.451 1285.03C644.027 1282.14 647.178 1279.26 650.685 1277.52C654.346 1275.73 658.185 1274.03 662.291 1273.57C666.896 1273.06 671.347 1273.42 675.875 1274.4C682.647 1275.85 689.203 1278.79 695.376 1281.88C698.909 1283.65 702.493 1285.35 705.975 1287.2C713.245 1291.08 720.477 1294.99 727.657 1299.01C740.552 1306.25 753.357 1313.62 766.264 1320.87C773.279 1324.47 780.243 1328.15 787.462 1331.3C791.709 1333.15 795.931 1335.23 800.267 1336.84C804.604 1338.45 808.94 1340.06 813.277 1341.66C817.779 1343.17 822.269 1344.7 826.784 1346.1C831.158 1347.48 835.571 1348.75 839.895 1350.26C843.517 1351.55 846.54 1353.66 848.402 1357.12C850.124 1360.32 850.532 1364.16 849.537 1367.65C847.535 1374.69 839.359 1379.84 832.153 1377.29C826.809 1375.4 821.325 1373.84 815.904 1372.15C809.808 1370.24 803.813 1368.09 797.831 1365.88C794.732 1364.75 791.646 1363.58 788.546 1362.45C785.217 1361.22 781.991 1359.59 778.738 1358.17C776.187 1357.06 773.547 1356.08 771.06 1354.82C767.425 1352.97 763.777 1351.11 760.142 1349.26C748.447 1343.31 737.07 1336.78 725.693 1330.25C714.52 1323.84 703.258 1317.61 691.894 1311.54C685.479 1308.33 679.102 1305.07 672.355 1302.57C671.666 1302.34 670.964 1302.14 670.263 1301.93C669.192 1301.73 668.12 1301.56 667.023 1301.42H666.437C666.373 1301.42 666.322 1301.42 666.245 1301.45C666.067 1301.49 665.888 1301.54 665.722 1301.58C665.454 1301.67 665.187 1301.77 664.919 1301.86C664.626 1302.01 664.319 1302.16 664.013 1302.3C663.835 1302.42 663.656 1302.56 663.478 1302.67C663.159 1302.98 662.853 1303.29 662.534 1303.59C661.743 1304.52 661.003 1305.48 660.289 1306.46C659.779 1307.24 659.307 1308.04 658.861 1308.86C657.968 1310.71 657.177 1312.6 656.45 1314.51C655.073 1318.58 653.886 1322.69 652.904 1326.86C651.45 1334.05 650.43 1341.28 649.703 1348.55C648.619 1362.16 648.555 1375.72 648.899 1389.35C649.716 1404.81 650.583 1420.22 651.756 1435.65C652.879 1450.28 654.18 1464.9 655.825 1479.49C659.281 1510.1 664.281 1540.49 669.166 1570.91C669.97 1575.88 670.773 1580.86 671.564 1585.82C672.571 1592.11 673.809 1598.39 673.974 1604.77C674.102 1609.75 671.781 1614.95 668.209 1618.34C666.896 1619.62 665.301 1620.6 663.592 1621.33C662.942 1623.65 661.692 1625.82 659.779 1627.51C645.902 1639.75 629.092 1648.8 611.415 1654.15C602.193 1656.94 592.423 1657.77 582.858 1657.96C582.092 1657.99 581.314 1658 580.536 1658C570.894 1658 561.15 1656.8 551.775 1654.68H551.801ZM527.899 1607.45C527.95 1607.76 528.001 1608.07 528.04 1608.39C528.129 1608.72 528.218 1609.06 528.308 1609.39C528.499 1609.86 528.665 1610.32 528.843 1610.78C529.06 1611.23 529.302 1611.67 529.557 1612.09C529.991 1612.73 530.438 1613.36 530.909 1613.96C531.471 1614.59 532.045 1615.19 532.67 1615.78C533.639 1616.62 534.646 1617.44 535.692 1618.2C537.197 1619.2 538.728 1620.13 540.297 1621.01C543.013 1622.34 545.755 1623.54 548.574 1624.6C551.839 1625.67 555.104 1626.61 558.459 1627.39C563.076 1628.31 567.706 1629 572.399 1629.47C577.157 1629.82 581.888 1629.92 586.646 1629.76C589.809 1629.56 592.946 1629.24 596.097 1628.78C599.451 1628.17 602.754 1627.39 606.045 1626.46C608.698 1625.57 611.3 1624.58 613.902 1623.51C619.373 1620.94 624.654 1618.14 629.845 1615.01C630.712 1614.44 631.554 1613.88 632.395 1613.29C631.413 1612.78 630.418 1612.26 629.424 1611.75C629.959 1612.03 630.508 1612.31 631.043 1612.59C627.638 1611.05 624.233 1609.48 620.84 1607.93C617.741 1606.53 614.425 1605.48 611.172 1604.35C607.32 1603.2 603.469 1602.08 599.604 1600.94C596.211 1599.95 592.678 1599.28 589.197 1598.53C581.608 1597.19 574.083 1595.93 566.417 1595.19C562.17 1594.88 557.949 1594.75 553.701 1594.82C550.64 1595 547.605 1595.28 544.557 1595.71C542.592 1596.07 540.666 1596.5 538.741 1597.01C537.746 1597.36 536.751 1597.73 535.782 1598.15C535.106 1598.48 534.43 1598.84 533.779 1599.22C533.103 1599.67 532.44 1600.14 531.789 1600.65C531.228 1601.17 530.68 1601.71 530.119 1602.23C530.374 1601.96 530.629 1601.68 530.858 1601.4C531.126 1601.2 531.369 1600.98 531.624 1600.76C531.381 1600.95 531.152 1601.15 530.909 1601.35C531.075 1601.17 531.241 1600.99 531.407 1600.81C531.203 1601.02 530.986 1601.25 530.795 1601.46C530.654 1601.58 530.514 1601.69 530.374 1601.82C530.489 1601.72 530.616 1601.63 530.744 1601.52C530.233 1602.06 529.762 1602.63 529.315 1603.21C529.073 1603.61 528.843 1604 528.601 1604.4C528.486 1604.64 528.384 1604.88 528.257 1605.13C528.206 1605.31 528.142 1605.48 528.078 1605.68C528.027 1605.92 527.976 1606.15 527.925 1606.39C527.976 1605.79 528.04 1605.19 528.078 1604.6C527.95 1605.57 527.887 1606.53 527.887 1607.47L527.899 1607.45Z" fill="black"/>
<path d="M1486.93 1634.88C1476.18 1632.37 1465.63 1628.68 1455.44 1624.44C1448.38 1621.5 1445.13 1612.91 1448.14 1605.96C1448.72 1604.59 1449.5 1603.39 1450.42 1602.33C1446.13 1602.5 1441.83 1601.23 1438.4 1598.49C1432.72 1593.95 1431.72 1586.48 1431.04 1579.72C1430.34 1572.56 1429.62 1565.42 1428.85 1558.27C1427.28 1543.77 1425.51 1529.3 1423.6 1514.83C1421.64 1499.97 1420.09 1485.04 1418.67 1470.11C1416.53 1447.62 1414.71 1425.11 1412.53 1402.63C1411.42 1391.17 1410.5 1379.66 1408.99 1368.24C1408.23 1362.4 1407.65 1356.5 1406.68 1350.7C1405.77 1345.22 1404.86 1339.78 1403.95 1334.3C1402.14 1326.03 1400.43 1317.77 1398.05 1309.63C1396.65 1305.25 1395.09 1300.98 1393.29 1296.75C1392.09 1294.21 1390.83 1291.74 1389.45 1289.3C1388.5 1287.86 1387.53 1286.48 1386.48 1285.09C1386.06 1284.63 1385.63 1284.18 1385.18 1283.72C1384.8 1283.41 1384.4 1283.09 1383.99 1282.78C1383.76 1282.67 1383.55 1282.53 1383.32 1282.41C1383.27 1282.39 1383.2 1282.37 1383.15 1282.35C1383.02 1282.31 1382.88 1282.27 1382.74 1282.23C1382.71 1282.23 1382.69 1282.23 1382.67 1282.23C1382.42 1282.23 1382.18 1282.23 1381.94 1282.23C1381.54 1282.27 1381.15 1282.31 1380.74 1282.35C1379.56 1282.59 1378.39 1282.88 1377.21 1283.19C1369.67 1285.66 1362.36 1288.91 1355.05 1291.97C1348.03 1294.91 1341.01 1297.85 1334.01 1300.82C1319.69 1306.88 1305.39 1312.99 1291.13 1319.14C1276.73 1325.36 1262.32 1331.53 1247.87 1337.64C1240.8 1340.63 1233.7 1343.57 1226.62 1346.51C1220.59 1349.01 1214.53 1351.65 1208.37 1353.8C1204.48 1355.16 1200.6 1356.46 1196.67 1357.63C1192.51 1358.85 1188.2 1360.18 1183.83 1360.18C1177.65 1360.18 1171.75 1355.44 1170.49 1349.38C1170.49 1349.36 1170.49 1349.34 1170.49 1349.34C1169.35 1343.95 1171.2 1337.89 1175.92 1334.71C1175.97 1334.67 1176.03 1334.62 1176.1 1334.6C1178.48 1333.09 1181.01 1332.12 1183.74 1331.99C1186.58 1331.37 1189.36 1330.54 1192.16 1329.71C1206.53 1324.66 1220.55 1318.62 1234.62 1312.76C1248.12 1307.14 1261.57 1301.33 1275 1295.54C1302.99 1283.44 1330.97 1271.22 1359.28 1259.88C1365.05 1257.56 1371.14 1255.06 1377.39 1254.44C1381.52 1254.05 1385.68 1253.92 1389.72 1255.03C1394.27 1256.28 1398.01 1258.37 1401.84 1261.08C1405.19 1263.46 1407.87 1266.87 1410.36 1270.1C1413.26 1273.89 1415.52 1278.19 1417.6 1282.46C1422.1 1291.64 1425.09 1301.5 1427.68 1311.35C1428.68 1315.16 1429.37 1319.08 1430.23 1322.93C1430.94 1326.17 1431.59 1329.39 1432.13 1332.67C1433.47 1340.73 1434.77 1348.77 1435.84 1356.89C1439.79 1387.07 1442.1 1417.47 1444.83 1447.78C1446.86 1470.42 1449.09 1493.04 1452.04 1515.58C1453.49 1526.63 1454.86 1537.68 1456.08 1548.73C1456.74 1554.66 1457.29 1560.61 1457.89 1566.56C1460.93 1564.17 1463.92 1561.77 1467 1559.42C1472.62 1555.14 1478.46 1551.04 1484.6 1547.52C1491.21 1543.72 1497.98 1540 1505.13 1537.36C1517.56 1532.77 1531.42 1529.06 1544.65 1532.05C1553.12 1533.99 1560.65 1538.34 1566.25 1545.04C1571.48 1551.31 1574.53 1558.95 1575.83 1566.96C1577.36 1576.35 1576.57 1585.6 1574.16 1594.78C1571.76 1603.99 1566.83 1612.35 1560.35 1619.24C1555.19 1624.69 1548.36 1628.99 1541.53 1631.97C1533.68 1635.42 1525.16 1637.13 1516.64 1637.93C1514.71 1638.11 1512.77 1638.2 1510.85 1638.2C1502.8 1638.2 1494.73 1636.74 1486.95 1634.93L1486.93 1634.88ZM1534.29 1559.09C1532.28 1559.24 1530.27 1559.46 1528.27 1559.75C1525.23 1560.38 1522.3 1561.16 1519.34 1562.01C1515.86 1563.31 1512.48 1564.69 1509.09 1566.17C1505.04 1568.24 1501.1 1570.38 1497.18 1572.64C1491.53 1576.3 1486.07 1580.14 1480.71 1584.24C1474.79 1588.74 1469.18 1593.67 1462.9 1597.65C1464.15 1597.8 1465.39 1598.13 1466.62 1598.63C1469.75 1599.93 1472.93 1601.17 1476.13 1602.33C1482.76 1604.58 1489.41 1606.57 1496.21 1608.2C1499.74 1608.84 1503.25 1609.36 1506.8 1609.81C1508.67 1609.92 1510.53 1610 1512.4 1609.99C1514.62 1609.82 1516.8 1609.58 1519 1609.23C1521.55 1608.77 1524.07 1608.25 1526.57 1607.55C1527.93 1607.08 1529.24 1606.57 1530.55 1606.02C1531.91 1605.34 1533.23 1604.63 1534.53 1603.88C1535.97 1602.92 1537.36 1601.91 1538.73 1600.84C1539.7 1599.96 1540.62 1599.08 1541.52 1598.15C1541.96 1597.64 1542.38 1597.09 1542.78 1596.53C1543.29 1595.75 1543.78 1594.94 1544.24 1594.13C1545.11 1592.28 1545.91 1590.44 1546.64 1588.53C1546.99 1587.42 1547.31 1586.29 1547.61 1585.17C1547.98 1583.22 1548.28 1581.28 1548.5 1579.31C1548.56 1578.15 1548.59 1576.99 1548.56 1575.83C1548.43 1574.19 1548.27 1572.56 1548.04 1570.93C1547.87 1570.1 1547.68 1569.29 1547.45 1568.47C1547.1 1567.42 1546.71 1566.41 1546.29 1565.42C1546.09 1565.01 1545.87 1564.62 1545.64 1564.22C1545.34 1563.79 1545.03 1563.38 1544.72 1562.94C1544.39 1562.59 1544.06 1562.24 1543.72 1561.9C1542.87 1561.18 1541.97 1560.53 1541.04 1559.95C1541.18 1560.05 1541.33 1560.14 1541.48 1560.25C1541.28 1560.18 1541.08 1560.1 1540.88 1560.04C1541.08 1560.11 1541.28 1560.18 1541.48 1560.25C1541.65 1560.37 1541.82 1560.48 1541.97 1560.6C1542.01 1560.62 1542.03 1560.63 1542.08 1560.65C1542.04 1560.65 1542.03 1560.62 1542.01 1560.62C1542.2 1560.75 1542.38 1560.89 1542.58 1561.02C1542.19 1560.8 1541.8 1560.58 1541.42 1560.35C1540.99 1560.16 1540.57 1559.98 1540.13 1559.78C1539.63 1559.63 1539.14 1559.49 1538.63 1559.36C1537.95 1559.27 1537.27 1559.18 1536.6 1559.09C1535.97 1559.05 1535.34 1559.04 1534.7 1559.04C1534.57 1559.04 1534.43 1559.04 1534.29 1559.04V1559.09Z" fill="black"/>
<path d="M846.604 1001.29C842.867 1000.23 840.087 997.718 838.11 994.439C807.602 943.811 777.081 893.183 746.572 842.568C715.005 790.192 683.426 737.816 651.859 685.44C623.085 637.709 594.107 590.092 565.538 542.233C565.729 542.526 565.92 542.832 566.112 543.139C562.375 536.823 563.497 528.644 569.683 524.179C575.69 519.828 585.077 520.938 589.312 527.33C593.1 533.059 596.454 539.119 600 545.014C603.915 551.509 607.831 558.016 611.759 564.51C620.381 578.813 628.99 593.103 637.612 607.406C652.395 631.942 667.189 656.49 681.984 681.026C714.355 734.716 746.713 788.419 779.083 842.109C807.028 888.45 834.947 934.778 862.879 981.119C866.845 987.69 863.644 996.672 857.165 1000.16C855.111 1001.25 852.803 1001.81 850.494 1001.81C849.193 1001.81 847.892 1001.64 846.63 1001.29H846.604Z" fill="black"/>
<path d="M1147.8 1037.34C1140.92 1034.06 1137.84 1025.48 1141.16 1018.59C1167.21 964.94 1193.18 911.25 1219.16 857.573C1246.89 800.297 1274.64 743.047 1302.37 685.772C1328.72 631.316 1355.09 576.886 1381.47 522.456C1387.39 510.22 1393.32 497.997 1399.24 485.761C1402.58 478.871 1411.03 475.821 1417.97 479.126C1424.85 482.418 1427.93 490.992 1424.59 497.882C1399.92 548.791 1375.27 599.699 1350.62 650.621C1322.95 707.768 1295.27 764.891 1267.6 822.026C1241.03 876.877 1214.48 931.728 1187.9 986.579C1180.78 1001.29 1173.66 1016.01 1166.52 1030.73C1164.1 1035.73 1159 1038.7 1153.73 1038.7C1151.73 1038.7 1149.7 1038.27 1147.78 1037.35L1147.8 1037.34Z" fill="black"/>
<path d="M460.557 591.968C456.131 585.945 457.292 576.657 463.593 572.319C475.824 563.911 488.272 555.668 501.039 548.077C514.265 540.204 527.887 533.072 541.7 526.284C569.071 512.862 597.806 502.348 626.197 491.337C653.772 480.645 681.844 470.667 710.567 463.497C740.106 456.109 769.823 449.436 799.503 442.585C814.782 439.05 830.062 435.516 845.444 432.428C861.425 429.213 877.47 426.457 893.553 423.842C908.667 421.379 923.844 419.389 939.022 417.309C954.608 415.191 970.257 413.724 985.907 412.193C1000.66 410.764 1015.5 410.1 1030.3 409.513C1045.27 408.913 1060.24 408.76 1075.21 409.054C1090.2 409.335 1105.17 409.692 1120.12 410.674C1128.36 411.223 1136.65 411.555 1144.88 412.307C1153.66 413.124 1162.44 413.928 1171.21 414.732C1178.45 415.408 1185.65 416.429 1192.85 417.36C1199.55 418.215 1206.15 419.146 1212.79 420.333C1220.02 421.621 1227.31 422.732 1234.48 424.339C1242.94 426.24 1251.48 427.95 1259.91 430.042C1289.27 437.341 1318.65 444.652 1347.84 452.652C1362.29 456.62 1376.74 460.588 1391 465.219C1405.75 470.017 1420.36 475.171 1434.92 480.568C1442.05 483.222 1449.16 486.055 1456.09 489.193C1459.44 490.699 1462.92 492.039 1466.16 493.748C1469.92 495.726 1473.68 497.717 1477.46 499.694C1484.23 503.267 1490.57 507.643 1496.89 511.917C1499.92 513.959 1502.88 516.217 1505.67 518.539C1508.27 520.708 1510.94 522.89 1513.26 525.365C1518.49 530.979 1518.35 539.911 1512.77 545.244C1507.28 550.488 1498.12 550.348 1492.9 544.746C1492.65 544.478 1492.39 544.211 1492.12 543.943C1488.63 540.829 1484.93 537.997 1481.19 535.19C1478.73 533.493 1476.3 531.719 1473.75 530.188C1470.62 528.3 1467.48 526.399 1464.37 524.511C1461.26 522.877 1458.13 521.231 1455.04 519.598C1452 518.003 1448.77 516.728 1445.65 515.311C1438.99 512.3 1432.21 509.685 1425.42 506.98C1411.29 501.748 1397.11 496.76 1382.78 492.115C1368.17 487.369 1353.33 483.312 1338.5 479.241C1310.03 471.446 1281.37 464.313 1252.71 457.194C1245.41 455.548 1238.1 453.915 1230.78 452.282C1224.58 450.904 1218.3 449.883 1212.07 448.76C1206.16 447.701 1200.31 446.642 1194.36 445.876C1186.76 444.894 1179.15 443.924 1171.53 442.942C1150.63 441.015 1129.72 439.14 1108.74 438.247C1096.37 437.711 1084.04 437.328 1071.67 437.085C1061.21 436.894 1050.76 437.085 1040.29 437.175C1033.33 437.455 1026.39 437.736 1019.42 438.017C1013.28 438.259 1007.14 438.782 1001.02 439.229C988.623 440.097 976.213 441.143 963.88 442.623C936.19 445.94 908.616 449.832 881.079 454.285C867.062 456.811 853.071 459.35 839.168 462.425C823.468 465.895 807.793 469.506 792.13 473.168C762.145 480.173 732.007 486.629 702.34 494.897C695.938 496.67 689.624 498.686 683.298 500.651C662.47 507.72 641.898 515.337 621.427 523.362C610.522 527.624 599.579 531.809 588.75 536.236C578.381 540.485 568.114 544.951 557.923 549.608C548.205 554.405 538.55 559.343 528.984 564.459C520.145 569.193 511.625 574.488 503.169 579.847C495.44 584.797 487.762 589.799 480.211 595.004C477.661 596.765 474.727 597.633 471.819 597.633C467.534 597.633 463.325 595.732 460.57 591.98L460.557 591.968Z" fill="black"/>
<path d="M567.553 566.283C560.806 565.033 553.663 560.861 549.327 555.515C547.057 552.708 545.271 549.824 543.677 546.583C542.095 543.394 541.381 539.706 540.883 536.223C539.812 528.848 541.534 521.448 544.34 514.673C547.082 508.077 551.151 501.646 555.806 496.223C558.408 493.2 561.176 490.444 564.249 487.917C566.991 485.672 570.091 484 573.228 482.405C577.947 480.019 583.279 479.675 588.444 480.07C594.528 480.555 599.451 485.085 600.892 490.75C603.545 491.158 606.058 491.707 608.571 492.778C611.797 494.156 614.45 496.16 616.963 498.584C621.695 503.139 624.641 510.182 625.113 516.676C625.623 523.579 624.411 530.099 621.771 536.491C618.901 543.432 614.335 550.143 608.583 555.043C602.933 559.878 596.671 563.196 589.579 565.403C585.549 566.653 581.391 567.202 577.233 567.202C573.981 567.202 570.741 566.87 567.54 566.283H567.553ZM596.875 518.96C596.39 519.202 595.905 519.432 595.421 519.675C594.86 520.006 594.311 520.338 593.763 520.695C592.462 521.703 591.212 522.737 589.975 523.809C588.725 525.046 587.513 526.309 586.365 527.636C587.577 530.201 588.011 533.046 587.653 535.777C587.87 535.636 588.087 535.496 588.317 535.343C589.018 534.807 589.694 534.245 590.357 533.658C590.931 533.097 591.493 532.51 592.015 531.898C592.883 530.762 593.712 529.588 594.49 528.389C594.962 527.56 595.395 526.705 595.803 525.837C596.135 525.008 596.441 524.191 596.709 523.349C596.875 522.711 597.015 522.086 597.143 521.435C597.168 521.078 597.206 520.708 597.232 520.338C597.206 519.981 597.181 519.624 597.155 519.266C597.117 519.151 597.104 519.024 597.079 518.909C597.015 518.935 596.939 518.947 596.875 518.973V518.96Z" fill="black"/>
<path d="M1407.65 524.319C1399.43 521.256 1392.31 515.017 1387.22 508C1382.77 501.901 1379.26 494.169 1379.03 486.488C1378.82 478.986 1380.29 472.096 1384.1 465.589C1388.23 458.52 1394.69 452.919 1401.91 449.155C1414 442.852 1428.34 440.696 1441.44 445.11C1447.93 447.292 1451.63 454.271 1450.52 460.804C1454.09 463.981 1457.01 467.962 1458.91 472.057C1460.81 476.115 1462.08 480.21 1462.67 484.651C1463.26 488.976 1462.78 493.212 1461.91 497.448C1461.08 501.505 1459.14 505.461 1456.99 508.969C1455.05 512.134 1452.75 515.068 1450.01 517.569C1442.77 524.153 1433.28 527.202 1423.7 527.202C1418.24 527.202 1412.77 526.22 1407.67 524.319H1407.65ZM1420.85 498.992C1421.54 499.068 1422.23 499.132 1422.95 499.17C1423.51 499.145 1424.08 499.132 1424.64 499.107C1425.67 498.966 1426.68 498.788 1427.7 498.584C1428.1 498.469 1428.49 498.341 1428.9 498.226C1429.11 498.124 1429.34 498.035 1429.54 497.933C1429.87 497.729 1430.2 497.525 1430.53 497.32C1430.69 497.193 1430.85 497.052 1431.01 496.925C1431.26 496.657 1431.52 496.389 1431.76 496.108C1432.27 495.419 1432.77 494.73 1433.24 494.016C1433.44 493.633 1433.66 493.237 1433.86 492.855C1433.76 493.072 1433.67 493.289 1433.57 493.518C1433.61 493.454 1433.66 493.391 1433.7 493.314C1433.98 492.651 1434.23 491.987 1434.46 491.311C1434.56 490.864 1434.65 490.405 1434.73 489.958C1434.77 489.678 1434.78 489.384 1434.81 489.104C1434.81 488.785 1434.81 488.466 1434.78 488.134C1434.73 487.777 1434.67 487.394 1434.63 487.024C1434.77 487.611 1434.91 488.185 1435.05 488.772C1434.86 487.738 1434.58 486.718 1434.25 485.722L1434.22 485.684C1433.39 487.177 1432.43 488.568 1431.2 489.895C1428.81 492.459 1425.53 494.437 1422.19 495.47C1419.58 496.287 1416.77 496.402 1414.08 495.904C1414.66 496.338 1415.23 496.746 1415.83 497.129C1416.34 497.422 1416.85 497.69 1417.37 497.958C1418.03 498.201 1418.66 498.443 1419.32 498.673C1418.99 498.584 1418.66 498.481 1418.34 498.405C1418.18 498.341 1418.02 498.265 1417.87 498.201C1418.01 498.265 1418.15 498.328 1418.3 498.392C1418.05 498.328 1417.81 498.252 1417.55 498.175C1417.83 498.277 1418.14 498.367 1418.42 498.443C1418.56 498.494 1418.69 498.558 1418.84 498.622C1418.71 498.571 1418.58 498.507 1418.46 498.456C1419.25 498.686 1420.04 498.877 1420.84 499.017L1420.85 498.992Z" fill="black"/>
<path d="M356.813 912.59C349.237 899.436 341.636 886.307 334.2 873.063C326.522 859.398 318.716 845.784 311.37 831.94C305.528 820.929 299.636 809.931 294.037 798.767C287.608 785.893 281.282 772.981 275.071 759.979C264.319 737.434 253.618 714.85 242.777 692.356C236.349 679.584 229.934 666.787 223.314 654.117C215.368 638.921 207.384 623.751 199.336 608.606C185.702 582.883 171.927 557.212 158.522 531.375C151.38 517.608 144.314 503.79 137.299 489.972C133.307 482.1 129.302 474.253 125.208 466.431C123.461 463.089 121.701 459.771 119.928 456.428C118.321 453.404 116.586 450.457 115.706 447.28C117.147 446.413 118.589 445.57 120.043 444.716C126.407 440.964 132.861 437.354 139.34 433.819C140.615 435.197 141.585 436.843 142.235 438.642C142.184 438.438 142.12 438.234 142.069 438.03C142.171 438.323 142.273 438.629 142.414 438.91C142.63 439.472 142.911 439.995 143.217 440.518C142.949 439.969 142.681 439.433 142.414 438.91C157.311 466.802 171.353 495.152 185.918 523.222C199.527 549.455 213.57 575.483 227.421 601.601C235.265 616.402 243.045 631.253 250.787 646.092C257.1 658.187 263.324 670.372 269.242 682.647C282.864 710.882 296.243 739.208 309.75 767.482C316.637 781.236 323.537 794.952 330.731 808.54C337.389 821.095 344.225 833.548 351.176 845.937C366.468 873.19 382.156 900.24 397.691 927.353C405.662 941.235 413.595 955.142 421.465 969.075C420.649 969.509 419.858 969.93 419.029 970.363C418.646 970.568 418.263 970.784 417.868 970.976C412.626 973.706 407.346 976.309 402.053 978.912C400.14 979.856 398.227 980.775 396.275 981.63C383.24 958.549 370.027 935.557 356.788 912.59H356.813Z" fill="black"/>
<path d="M503.373 918.141C490.198 891.717 476.959 865.331 463.49 839.073C449.958 812.674 436.056 786.429 421.337 760.668C405.739 733.364 390.357 705.945 375.32 678.309C360.64 651.336 346.317 624.159 331.866 597.059C317.39 569.933 303.296 542.603 289.177 515.273C282.265 501.889 275.173 488.62 267.941 475.401C260.633 462.03 252.777 448.964 244.741 436.001C240.124 428.55 235.329 421.188 230.52 413.826C225.699 406.872 220.853 400.008 215.56 393.399C223.786 389.048 232.038 384.684 240.252 380.333C240.443 380.231 240.609 380.142 240.8 380.053C248.81 390.49 255.952 401.488 263.146 412.512C271.653 425.577 279.484 439.051 287.354 452.499C295.032 465.602 301.957 479.165 309.01 492.613C315.974 505.883 322.798 519.203 329.685 532.524C343.779 559.866 358.369 586.966 372.782 614.156C387.181 641.32 401.849 668.344 416.618 695.316C430.89 721.345 446.145 746.85 460.327 772.943C474.918 799.762 488.948 826.888 502.608 854.205C508.347 865.675 514.138 877.146 519.941 888.603C523.55 895.761 527.211 902.906 530.718 910.115C523.423 913.458 516.153 916.865 508.896 920.31C507.71 920.897 506.511 921.522 505.337 922.134C504.687 920.807 504.036 919.48 503.386 918.153L503.373 918.141Z" fill="black"/>
<path d="M125.221 466.419C123.473 463.076 121.713 459.759 119.94 456.428C118.333 453.392 116.599 450.457 115.719 447.267C117.16 446.413 118.601 445.558 120.055 444.703C133.855 436.575 148.025 429.124 162.157 421.635C188.189 407.867 214.233 394.113 240.239 380.321C240.43 380.231 240.596 380.129 240.775 380.053C246.527 387.53 251.833 395.3 257.024 403.172C249.664 407.102 242.331 411.019 234.971 414.923C222.421 421.583 209.884 428.269 197.308 434.891C183.776 442.023 170.167 449.028 156.737 456.352C149.939 460.065 143.14 463.739 136.47 467.656C133.779 469.264 130.986 470.77 128.333 472.454C127.3 470.451 126.267 468.448 125.221 466.432V466.419Z" fill="black"/>
<path d="M382.335 957.042C388.291 954.515 394.082 951.594 399.872 948.697C411.491 942.611 423.111 936.449 434.487 929.865C447.165 922.528 459.792 915.09 472.482 907.766C483.77 901.272 495.466 895.415 507.302 889.955C510.898 888.296 514.495 886.637 518.105 884.979C518.704 886.178 519.316 887.377 519.916 888.564C523.525 895.722 527.186 902.867 530.693 910.088C523.398 913.418 516.128 916.825 508.87 920.283C499.203 925.195 489.637 930.324 480.237 935.734C470.034 941.603 459.894 947.638 449.69 953.533C439.602 959.377 429.373 964.952 419.055 970.349C418.672 970.554 418.277 970.77 417.894 970.962C412.652 973.692 407.359 976.295 402.066 978.898C400.153 979.842 398.252 980.761 396.288 981.616C391.658 973.399 387.003 965.22 382.322 957.029L382.335 957.042Z" fill="black"/>
<path d="M252.942 449.411C254.703 448.326 256.743 447.65 258.644 446.923C260.774 446.106 262.904 445.315 265.046 444.499C270.186 442.508 275.326 440.492 280.441 438.464C291.346 434.164 302.212 429.877 313.041 425.449C333.435 417.118 353.255 407.485 373.764 399.421C375.32 398.809 376.927 398.477 378.521 398.426C380.434 402.458 382.335 406.477 384.261 410.509C386.11 414.209 387.934 417.922 389.758 421.635C388.674 422.923 387.347 424.02 385.791 424.824C385.383 425.028 384.975 425.22 384.554 425.386C364.747 433.181 345.615 442.508 325.91 450.559C315.107 454.974 304.291 459.287 293.437 463.548C289.05 465.296 284.65 467.031 280.249 468.741C277.775 469.698 275.288 470.68 272.801 471.625C270.9 472.365 268.936 473.002 267.036 473.806C262.508 465.577 257.776 457.462 252.93 449.424L252.942 449.411Z" fill="black"/>
<path d="M473.592 858.861C474.676 858.198 475.76 857.483 476.831 856.769C484.586 851.499 492.341 846.242 500.248 841.203C508.475 835.959 516.752 830.842 525.055 825.726C541.866 815.378 558.574 804.916 575.588 794.913C579.427 792.629 584.031 792.54 587.934 794.134C590.766 799.366 593.559 804.597 596.314 809.866C595.523 813.681 593.189 817.165 589.63 819.257C576.06 827.244 562.681 835.525 549.276 843.793C536.037 851.946 522.823 860.124 509.712 868.469C504.802 871.748 499.904 875.027 495.032 878.332C492.43 880.105 489.828 881.917 487.124 883.486C486.843 883.639 486.563 883.805 486.295 883.971C482.086 875.588 477.852 867.206 473.605 858.848L473.592 858.861Z" fill="black"/>
<path d="M573.05 825.995C559.313 799.647 544.429 773.976 529.762 748.152C514.571 721.409 500.312 694.079 485.619 667.068C471.717 641.473 457.738 615.904 444.346 590.054C429.538 561.487 414.935 532.83 400.267 504.198C386.454 477.213 372.616 450.202 359.186 423.025C356.788 418.202 354.441 413.341 352.209 408.442C358.369 405.75 364.53 403.121 370.766 400.608C370.422 401.016 370.039 401.399 369.644 401.756C369.835 401.59 370.039 401.411 370.231 401.258C370.435 401.041 370.639 400.812 370.843 400.582C371.812 400.187 372.794 399.804 373.777 399.421C375.333 398.809 376.94 398.477 378.534 398.413C380.447 402.458 382.36 406.477 384.286 410.509C387.653 417.284 390.995 424.072 394.336 430.847C408.047 458.457 422.396 485.774 436.426 513.219C449.983 539.745 463.541 566.271 477.456 592.606C491.511 619.196 505.949 645.607 520.311 672.044C534.761 698.634 548.995 725.351 564.083 751.597C575.154 770.85 586.021 790.206 596.326 809.893C595.536 813.708 593.189 817.191 589.643 819.284C584.618 822.244 579.605 825.255 574.606 828.291C574.006 827.602 573.496 826.837 573.062 826.008L573.05 825.995Z" fill="black"/>
<path d="M75.2879 561.461C73.9869 558.335 72.8135 555.132 71.6274 551.968C70.7728 549.723 69.8163 547.439 69 545.091C72.3289 543.266 75.7215 541.518 79.0504 539.732C89.9553 533.876 100.745 527.815 111.395 521.525C130.259 510.399 148.906 498.878 167.667 487.599C171.927 495.969 176.187 504.339 180.485 512.683C163.05 523.12 145.704 533.697 128.295 544.172C118.614 550.016 108.781 555.592 98.8323 560.976C92.3531 564.472 85.8867 567.942 79.5095 571.579C78.0811 568.21 76.6781 564.842 75.2751 561.461H75.2879Z" fill="black"/>
<path d="M275.122 954.185C276.219 953.279 277.456 952.501 278.783 951.863C279.114 951.697 279.433 951.544 279.765 951.391C294.496 943.965 309.571 937.458 324.979 931.525C339.684 925.885 354.339 920.259 368.522 913.382C373.802 910.638 379.019 907.78 384.12 904.693C384.273 904.603 384.426 904.514 384.592 904.438C388.967 912.055 393.367 919.685 397.729 927.314C397.997 927.799 398.29 928.297 398.558 928.782C398.443 928.871 398.29 928.96 398.163 929.037C393.865 931.64 389.477 934.077 385.051 936.386C372.986 942.651 360.474 947.971 347.771 952.858C330.399 959.544 313.155 966.293 296.422 974.408C294.611 975.314 292.825 976.22 291.001 977.113C285.683 969.483 280.364 961.853 275.122 954.172V954.185Z" fill="black"/>
<path d="M269.74 946.274C261.182 933.554 253.019 920.603 244.958 907.563C237.459 895.404 230.278 882.977 223.582 870.345C202.652 830.894 184.184 790.155 164.644 750.027C151.099 723.233 137.363 696.516 124.468 669.403C110.911 640.912 97.4548 612.37 84.7005 583.496C81.4736 576.198 78.3616 568.849 75.3006 561.474C73.9996 558.348 72.8262 555.145 71.6401 551.981C70.7855 549.736 69.829 547.452 69.0127 545.091C72.3416 543.267 75.7342 541.531 79.0631 539.745C84.2158 536.976 89.3303 534.182 94.4193 531.324C94.5723 531.898 94.6871 532.498 94.7636 533.123C94.7636 533.085 94.7636 533.034 94.7636 532.983C94.7636 532.983 94.7891 533.021 94.7891 533.047C95.0697 534.169 95.4268 535.292 95.7967 536.39C100.273 549.161 105.72 561.563 111.191 573.939C116.331 585.55 121.548 597.135 126.904 608.644C138.83 634.277 150.959 659.782 163.369 685.199C175.396 709.032 187.475 732.854 199.158 756.866C210.407 779.973 221.337 803.245 232.561 826.39C236.783 834.85 241.004 843.283 245.43 851.628C250.111 860.457 255.009 869.133 259.932 877.809C269.855 895.315 280.874 912.233 291.932 929.024C300.146 941.171 308.551 953.177 316.956 965.209C310.056 968.118 303.207 971.167 296.447 974.446C294.636 975.352 292.838 976.258 291.014 977.151C283.872 966.906 276.729 956.66 269.753 946.313L269.74 946.274Z" fill="black"/>
<path d="M1519.79 557.965C1512.24 552.759 1504.55 547.77 1496.83 542.807C1488.36 537.448 1479.86 532.153 1471.02 527.42C1461.45 522.291 1451.81 517.366 1442.08 512.568C1441.48 512.3 1440.87 512.019 1440.25 511.739L1440.75 510.22L1443.07 503.407L1445.53 496.594L1448.11 489.78L1449.91 485.251C1452.7 486.54 1455.49 487.879 1458.27 489.232C1472.09 496.02 1485.71 503.152 1498.94 511.024C1511.7 518.629 1524.16 526.858 1536.38 535.267C1542.7 539.605 1543.84 548.88 1539.42 554.915C1536.66 558.667 1532.45 560.568 1528.17 560.568C1525.26 560.568 1522.31 559.7 1519.78 557.939L1519.79 557.965Z" fill="black"/>
<path d="M1436.41 523.911L1438.52 517.047L1440.74 510.233L1443.06 503.42L1445.52 496.607L1448.1 489.793L1450.77 483.031L1453.5 476.46L1454.31 474.661C1454.78 475.656 1455.23 476.639 1455.63 477.621C1458.44 484.396 1460.16 491.809 1459.09 499.171C1458.59 502.667 1457.88 506.355 1456.3 509.532C1454.69 512.772 1452.92 515.643 1450.65 518.463C1446.87 523.133 1440.95 526.909 1435.02 528.619L1436.4 523.898L1436.41 523.911Z" fill="black"/>
<path d="M1597.92 941.859C1592.63 939.256 1587.34 936.653 1582.09 933.936C1581.71 933.732 1581.32 933.528 1580.93 933.323C1580.12 932.89 1579.31 932.481 1578.5 932.035C1586.38 918.102 1594.3 904.182 1602.27 890.313C1617.82 863.187 1633.49 836.15 1648.8 808.897C1655.76 796.495 1662.6 784.042 1669.24 771.487C1676.44 757.899 1683.34 744.196 1690.22 730.429C1703.73 702.167 1717.12 673.842 1730.73 645.606C1736.65 633.332 1742.87 621.147 1749.19 609.052C1756.94 594.213 1764.72 579.361 1772.55 564.548C1786.4 538.43 1800.45 512.415 1814.06 486.182C1828.62 458.112 1842.68 429.761 1857.56 401.87C1857.29 402.406 1857.04 402.942 1856.76 403.478C1857.06 402.967 1857.36 402.419 1857.56 401.87C1857.69 401.589 1857.8 401.296 1857.92 401.002C1857.85 401.207 1857.8 401.398 1857.74 401.602C1858.39 399.816 1859.37 398.17 1860.65 396.792C1867.13 400.313 1873.58 403.924 1879.93 407.675C1881.39 408.53 1882.83 409.385 1884.28 410.24C1883.39 413.43 1881.67 416.364 1880.06 419.401C1878.29 422.744 1876.53 426.061 1874.77 429.391C1870.68 437.225 1866.68 445.072 1862.68 452.945C1855.65 466.775 1848.59 480.581 1841.44 494.348C1828.03 520.185 1814.26 545.831 1800.63 571.566C1792.59 586.723 1784.61 601.881 1776.66 617.09C1770.04 629.772 1763.63 642.57 1757.18 655.329C1746.36 677.836 1735.64 700.419 1724.89 722.965C1718.68 735.953 1712.37 748.866 1705.92 761.752C1700.34 772.904 1694.43 783.902 1688.59 794.926C1681.26 808.769 1673.43 822.383 1665.76 836.048C1658.34 849.292 1650.74 862.421 1643.15 875.563C1629.91 898.529 1616.72 921.521 1603.67 944.602C1601.72 943.735 1599.8 942.829 1597.9 941.885L1597.92 941.859Z" fill="black"/>
<path d="M1491.12 883.244C1483.86 879.812 1476.59 876.38 1469.29 873.05C1472.8 865.841 1476.46 858.696 1480.07 851.525C1485.86 840.068 1491.65 828.61 1497.4 817.127C1511.06 789.822 1525.09 762.684 1539.69 735.877C1553.87 709.785 1569.11 684.292 1583.38 658.251C1598.15 631.278 1612.83 604.255 1627.23 577.103C1641.63 549.914 1656.23 522.813 1670.33 495.471C1677.2 482.15 1684.04 468.817 1690.99 455.548C1698.04 442.125 1704.97 428.55 1712.65 415.446C1720.52 401.985 1728.36 388.512 1736.85 375.446C1744.05 364.422 1751.2 353.424 1759.21 343C1759.4 343.089 1759.57 343.191 1759.76 343.281C1767.99 347.644 1776.21 351.995 1784.44 356.346C1779.15 362.942 1774.31 369.82 1769.48 376.773C1764.67 384.135 1759.89 391.497 1755.26 398.948C1747.22 411.912 1739.37 424.977 1732.06 438.348C1724.83 451.567 1717.74 464.836 1710.82 478.221C1696.7 505.538 1682.6 532.88 1668.13 560.006C1653.67 587.106 1639.36 614.283 1624.68 641.256C1609.64 668.892 1594.25 696.298 1578.65 723.616C1563.94 749.376 1550.04 775.634 1536.5 802.02C1523.02 828.278 1509.78 854.677 1496.61 881.088C1495.96 882.402 1495.31 883.729 1494.66 885.056C1493.48 884.456 1492.29 883.844 1491.1 883.231L1491.12 883.244Z" fill="black"/>
<path d="M1863.5 430.604C1856.85 426.687 1850.04 422.999 1843.24 419.299C1829.82 411.975 1816.21 404.958 1802.68 397.838C1790.12 391.204 1777.57 384.518 1765 377.87C1757.66 373.966 1750.31 370.049 1742.95 366.132C1748.14 358.26 1753.46 350.49 1759.2 343.013C1759.39 343.102 1759.56 343.204 1759.75 343.293C1785.75 357.086 1811.79 370.827 1837.82 384.594C1851.96 392.084 1866.12 399.535 1879.92 407.663C1881.37 408.518 1882.81 409.373 1884.27 410.227C1883.38 413.417 1881.65 416.352 1880.05 419.388C1878.27 422.731 1876.51 426.049 1874.75 429.379C1873.71 431.395 1872.67 433.385 1871.64 435.401C1868.98 433.717 1866.18 432.211 1863.49 430.604H1863.5Z" fill="black"/>
<path d="M1597.92 941.859C1592.63 939.256 1587.34 936.653 1582.09 933.936C1581.71 933.731 1581.32 933.527 1580.93 933.323C1570.61 927.926 1560.39 922.338 1550.3 916.507C1540.09 910.599 1529.95 904.577 1519.75 898.708C1510.34 893.298 1500.78 888.156 1491.12 883.244C1483.86 879.812 1476.59 876.379 1469.29 873.049C1472.8 865.84 1476.46 858.695 1480.07 851.525C1480.67 850.338 1481.28 849.126 1481.88 847.939C1485.49 849.585 1489.09 851.244 1492.69 852.915C1504.52 858.364 1516.22 864.22 1527.51 870.714C1540.21 878.025 1552.82 885.477 1565.5 892.813C1576.88 899.397 1588.5 905.547 1600.12 911.645C1605.91 914.529 1611.7 917.464 1617.65 919.99C1612.97 928.168 1608.33 936.36 1603.69 944.564C1601.74 943.696 1599.81 942.79 1597.91 941.846L1597.92 941.859Z" fill="black"/>
<path d="M1727.19 434.559C1724.7 433.628 1722.2 432.645 1719.73 431.676C1715.33 429.966 1710.94 428.231 1706.54 426.495C1695.68 422.221 1684.85 417.909 1674.06 413.494C1654.36 405.443 1635.22 396.116 1615.41 388.32C1614.99 388.154 1614.58 387.976 1614.18 387.759C1612.64 386.955 1611.3 385.871 1610.2 384.569C1612.04 380.856 1613.86 377.143 1615.7 373.443C1617.63 369.411 1619.54 365.392 1621.45 361.36C1623.06 361.411 1624.65 361.743 1626.21 362.356C1646.71 370.419 1666.53 380.052 1686.92 388.384C1697.75 392.811 1708.63 397.098 1719.52 401.398C1724.66 403.427 1729.79 405.456 1734.93 407.433C1737.06 408.263 1739.2 409.054 1741.33 409.858C1743.24 410.598 1745.27 411.261 1747.03 412.346C1742.19 420.371 1737.45 428.499 1732.91 436.728C1731.01 435.924 1729.06 435.274 1727.16 434.546L1727.19 434.559Z" fill="black"/>
<path d="M1512.88 846.472C1510.16 844.903 1507.56 843.065 1504.97 841.317C1500.07 838.013 1495.19 834.734 1490.29 831.455C1477.18 823.097 1463.95 814.944 1450.71 806.766C1437.32 798.498 1423.93 790.217 1410.37 782.23C1406.81 780.138 1404.46 776.655 1403.69 772.84C1406.43 767.57 1409.23 762.326 1412.07 757.108C1415.97 755.5 1420.56 755.602 1424.41 757.873C1441.41 767.889 1458.15 778.339 1474.94 788.686C1483.25 793.79 1491.53 798.932 1499.75 804.163C1507.66 809.203 1515.41 814.46 1523.17 819.729C1524.24 820.431 1525.31 821.158 1526.41 821.822C1522.16 830.179 1517.93 838.561 1513.72 846.931C1513.44 846.778 1513.17 846.612 1512.89 846.459L1512.88 846.472Z" fill="black"/>
<path d="M1410.37 782.231C1406.81 780.138 1404.46 776.655 1403.69 772.84C1413.98 753.14 1424.85 733.797 1435.93 714.544C1451.02 688.299 1465.24 661.581 1479.7 634.991C1494.05 608.542 1508.49 582.143 1522.54 555.553C1536.47 529.219 1550.02 502.68 1563.59 476.166C1577.62 448.722 1591.98 421.404 1605.68 393.794C1609.03 387.019 1612.37 380.231 1615.73 373.456C1617.65 369.424 1619.57 365.392 1621.48 361.36C1623.09 361.424 1624.68 361.756 1626.24 362.368C1627.22 362.751 1628.19 363.134 1629.17 363.529C1629.37 363.759 1629.58 363.989 1629.77 364.206C1629.96 364.359 1630.15 364.537 1630.36 364.703C1629.96 364.346 1629.58 363.95 1629.23 363.555C1635.46 366.068 1641.63 368.71 1647.78 371.389C1645.55 376.288 1643.2 381.15 1640.81 385.96C1627.37 413.149 1613.53 440.135 1599.72 467.133C1585.05 495.764 1570.45 524.421 1555.65 552.976C1542.25 578.851 1528.28 604.408 1514.37 629.99C1499.68 657.026 1485.43 684.343 1470.23 711.086C1455.55 736.898 1440.66 762.582 1426.94 788.929C1426.5 789.759 1425.98 790.511 1425.39 791.2C1420.39 788.164 1415.39 785.178 1410.37 782.205V782.231Z" fill="black"/>
<path d="M1901.14 523.936C1891.19 518.552 1881.37 512.976 1871.68 507.145C1854.28 496.657 1836.92 486.08 1819.5 475.643C1823.8 467.286 1828.05 458.916 1832.32 450.559C1851.09 461.838 1869.73 473.359 1888.58 484.485C1899.24 490.775 1910.02 496.836 1920.94 502.692C1924.25 504.478 1927.66 506.226 1930.99 508.051C1930.16 510.399 1929.21 512.682 1928.36 514.941C1927.15 518.105 1925.99 521.295 1924.69 524.434C1923.28 527.802 1921.89 531.17 1920.45 534.551C1914.08 530.902 1907.61 527.445 1901.13 523.949L1901.14 523.936Z" fill="black"/>
<path d="M1703.57 937.395C1686.83 929.293 1669.59 922.53 1652.22 915.857C1639.5 910.971 1626.99 905.663 1614.94 899.373C1610.51 897.063 1606.14 894.626 1601.82 892.036C1601.7 891.96 1601.56 891.87 1601.43 891.768C1601.7 891.283 1601.99 890.786 1602.26 890.314C1606.63 882.684 1611.02 875.054 1615.39 867.424C1615.56 867.5 1615.71 867.59 1615.87 867.679C1620.97 870.754 1626.18 873.625 1631.47 876.355C1645.65 883.245 1660.3 888.859 1675.01 894.511C1690.42 900.444 1705.49 906.951 1720.22 914.377C1720.55 914.53 1720.87 914.683 1721.2 914.837C1722.53 915.487 1723.77 916.253 1724.86 917.159C1719.62 924.84 1714.3 932.47 1708.99 940.087C1707.16 939.206 1705.38 938.313 1703.57 937.395Z" fill="black"/>
<path d="M1703.57 937.394C1696.81 934.127 1689.96 931.053 1683.06 928.143C1691.45 916.124 1699.87 904.118 1708.07 891.972C1719.13 875.181 1730.16 858.262 1740.07 840.757C1744.99 832.08 1749.89 823.404 1754.57 814.575C1759.01 806.243 1763.23 797.797 1767.45 789.338C1778.66 766.193 1789.59 742.907 1800.84 719.813C1812.54 695.788 1824.6 671.98 1836.63 648.146C1849.03 622.73 1861.18 597.224 1873.11 571.579C1878.45 560.07 1883.69 548.485 1888.82 536.874C1894.29 524.498 1899.73 512.096 1904.22 499.337C1904.57 498.24 1904.93 497.117 1905.21 495.994C1905.21 495.956 1905.24 495.943 1905.24 495.93C1905.24 495.969 1905.24 495.981 1905.24 496.007C1905.31 495.42 1905.43 494.833 1905.58 494.259C1910.66 497.117 1915.78 499.924 1920.94 502.68C1924.25 504.466 1927.66 506.214 1930.99 508.039C1930.16 510.386 1929.21 512.67 1928.36 514.928C1927.15 518.093 1925.99 521.282 1924.69 524.421C1921.63 531.796 1918.53 539.145 1915.3 546.443C1902.53 575.317 1889.08 603.859 1875.53 632.35C1862.64 659.476 1848.9 686.181 1835.36 712.975C1815.79 753.115 1797.35 793.842 1776.41 833.293C1769.71 845.911 1762.53 858.351 1755.03 870.511C1746.96 883.551 1738.82 896.514 1730.26 909.222C1723.28 919.582 1716.14 929.815 1708.99 940.06C1707.16 939.18 1705.38 938.287 1703.57 937.368V937.394Z" fill="black"/>
</g>
<defs>
<clipPath id="clip0_157_189">
<rect width="1862" height="1315" fill="white" transform="translate(69 343)"/>
</clipPath>
</defs>
</svg>
