<svg width="2000" height="2000" viewBox="0 0 2000 2000" fill="none" xmlns="http://www.w3.org/2000/svg">
<g clip-path="url(#clip0_157_190)">
<path d="M1006.71 550.919C1000.76 550.865 994.849 550.829 988.918 550.775C984.033 550.721 979.202 550.36 974.317 550C968.837 549.603 963.212 549.513 957.75 548.738C951.189 547.782 944.627 546.845 938.065 545.907C934.027 545.331 930.115 544.519 926.114 543.654C919.047 542.158 911.908 540.788 904.896 539.021C878.199 532.278 851.573 522.273 828.661 506.787C808.832 493.375 793.005 475.347 781.413 454.507C778.98 450.126 776.456 445.817 774.347 441.292C771.012 434.207 767.695 427.104 764.559 419.911C759.457 408.193 755.311 395.934 753.689 383.243C753.184 379.133 753.22 374.842 753.148 370.714C753.076 366.856 752.985 362.98 752.913 359.122C752.607 343.978 753.094 328.655 754.608 313.602C755.671 302.857 757.168 292.221 759.385 281.656C761.656 270.912 764.829 260.492 768.579 250.18C772.058 240.625 775.699 231.125 779.286 221.606C786.389 202.641 795.348 184.307 805.695 166.91C817.395 147.241 831.726 129.214 848.797 113.908C865.526 98.9451 884.688 86.4879 904.608 76.2482C913.982 71.4167 923.77 67.5047 933.811 64.3679C941.346 62.0062 949.079 60.528 956.867 59.284C972.406 56.7782 988.089 54.723 1003.86 55.1737C1008.48 55.3179 1012.71 57.0486 1016.05 59.8249C1018.03 59.1939 1020.16 58.8514 1022.34 58.8153C1042.98 58.635 1063.87 58.5629 1084.21 62.529C1105.33 66.6754 1125.65 74.4454 1144.36 85.0637C1153.43 90.2017 1162.1 96.1508 1170.59 102.154C1179.15 108.211 1187.57 114.431 1195.88 120.813C1212.56 133.667 1228.65 147.512 1243.67 162.241C1251.4 169.812 1258.51 177.907 1264.92 186.596C1271.54 195.556 1276.95 205.237 1282.14 215.026C1287.19 224.527 1291.33 234.496 1295.46 244.411C1297.19 248.612 1298.69 252.92 1300.08 257.265C1301.81 262.673 1303.72 268.19 1304.71 273.796C1306.66 285.046 1308.13 296.241 1307.88 307.689C1307.43 326.419 1304.67 344.862 1298.4 362.601C1295.64 370.389 1292.05 377.69 1288.38 385.046C1286 389.823 1283.44 394.673 1280.61 399.179C1274.82 408.41 1269.02 417.748 1262.11 426.185C1255.05 434.802 1247.82 443.257 1239.76 450.955C1231.81 458.545 1223.72 466.099 1214.97 472.787C1206.57 479.187 1198.14 485.514 1189.25 491.211C1178.76 497.954 1168.19 504.444 1157.45 510.771C1153.18 513.277 1148.65 515.404 1144.25 517.712C1135.53 522.255 1126.55 526.293 1117.39 529.917C1108.87 533.306 1100.07 536.118 1091.2 538.426C1085.76 539.85 1080.26 541.671 1074.73 542.717C1068.74 543.852 1062.74 544.988 1056.73 546.124C1051.45 547.133 1046.15 547.728 1040.82 548.377C1036.24 548.918 1031.7 549.549 1027.08 549.801C1020.59 550.144 1014.03 550.847 1007.56 550.847H1006.75L1006.71 550.919ZM995.39 511.114C999.338 511.168 1003.25 511.186 1007.18 511.222C1013.51 510.879 1019.85 510.537 1026.18 510.194C1029.66 510.014 1033.17 509.365 1036.62 508.932C1039.81 508.554 1043.02 508.175 1046.24 507.797C1052.75 506.553 1059.22 505.309 1065.73 504.083C1068.88 503.488 1072 502.461 1075.1 501.631C1078.73 500.694 1082.31 499.756 1085.94 498.801C1096.01 495.646 1105.88 491.95 1115.54 487.66C1128.81 481.458 1141.41 474.157 1154.02 466.747C1160.1 462.854 1166.21 458.996 1172.16 454.885C1179.35 449.928 1186.29 444.736 1193.25 439.435C1198.32 435.109 1203.36 430.8 1208.19 426.203C1213.6 421.029 1218.74 415.693 1223.86 410.249C1226.8 406.625 1229.74 403.037 1232.69 399.432C1235.16 396.439 1237.33 393.122 1239.54 389.913C1244.07 382.702 1248.39 375.491 1252.54 368.046C1255.51 362.042 1258.4 356.093 1260.83 349.837C1262.53 344.898 1263.97 339.94 1265.19 334.856C1266.02 330.638 1266.69 326.419 1267.25 322.165C1267.75 316.035 1268.1 309.996 1268.22 303.849C1267.95 298.693 1267.56 293.609 1267 288.471C1266.15 283.91 1265.18 279.439 1264.06 274.932C1260.4 263.791 1256.09 253.046 1251.3 242.356C1247.37 234.37 1243.26 226.546 1238.8 218.848C1235.81 214.323 1232.75 209.942 1229.54 205.579C1225.93 201.325 1222.26 197.196 1218.42 193.104C1214.59 189.012 1210.38 185.244 1206.23 181.458C1187.14 164.494 1167.42 148.558 1146.56 133.775C1136.97 127.213 1127.33 120.921 1117.05 115.441C1110.74 112.448 1104.34 109.744 1097.8 107.274C1091.87 105.309 1085.94 103.578 1079.84 102.136C1073.23 100.874 1066.61 99.9366 1059.91 99.2696C1047.05 98.4584 1034.24 98.4043 1021.35 98.5305C1016.75 98.5846 1012.53 96.8178 1009.2 93.9875C1007.2 94.6185 1005.07 94.9249 1002.89 94.8708C999.716 94.7987 996.562 94.8708 993.407 94.9069C981.672 95.8263 970.117 97.3587 958.507 99.1975C954.289 100.045 950.107 100.982 945.979 102.136C940.138 104.029 934.442 106.21 928.799 108.644C920.489 112.592 912.449 117.009 904.59 121.804C896.135 127.231 887.951 132.982 880.109 139.291C874.143 144.357 868.482 149.693 863.11 155.372C857.937 161.249 853.088 167.379 848.473 173.742C842.001 183.225 836.178 193.05 830.843 203.2C820.315 224.166 812.203 246.178 804.181 268.19C801.874 275.022 799.963 281.927 798.341 288.94C796.285 298.963 794.879 309.059 793.852 319.262C792.32 338.48 792.266 357.824 792.987 377.095C793.059 378.285 793.167 379.475 793.329 380.665C793.888 383.387 794.537 386.055 795.276 388.741C797.746 396.367 800.774 403.722 803.983 411.078C806.218 415.837 808.435 420.596 810.653 425.374C811.788 427.771 813.267 430.079 814.565 432.405C816.241 435.451 817.917 438.48 819.72 441.437C822.622 445.871 825.687 450.144 829.022 454.272C832.141 457.824 835.403 461.177 838.792 464.44C842.452 467.631 846.219 470.623 850.167 473.436C855.016 476.681 860.01 479.637 865.147 482.396C872.755 486.163 880.506 489.499 888.456 492.473C898.443 495.971 908.556 498.999 918.813 501.595C925.843 503.091 932.892 504.57 939.904 506.066C943.509 506.823 947.313 507.13 950.972 507.652C955.136 508.265 959.283 508.842 963.447 509.437C970.603 509.96 977.742 510.501 984.916 511.024C987.206 511.186 989.549 511.15 991.875 511.132C992.704 511.132 993.515 511.132 994.344 511.132H995.372L995.39 511.114Z" fill="black"/>
<path d="M976.336 291.301C971.108 290.508 966.349 287.588 963.248 283.315C960.076 278.952 959.174 273.941 959.697 268.676C961.302 252.325 962.96 235.974 964.637 219.623C965.412 211.925 966.223 204.227 967.034 196.529C967.467 192.365 967.917 188.182 968.386 184C969.071 177.636 969.504 170.894 972.821 165.251C978.319 155.949 990.829 152.866 1000.06 158.401C1008.12 163.232 1011.47 173.129 1008.68 181.729C1006.31 197.268 1005.2 213.061 1003.59 228.655C1002.04 243.96 1000.47 259.302 998.977 274.608C998.04 284.433 988.576 291.464 979.13 291.464C978.193 291.464 977.273 291.409 976.354 291.247L976.336 291.301Z" fill="black"/>
<path d="M1042.91 307.491C1032.11 307.238 1023.24 297.99 1023.51 287.173C1024.02 266.82 1024.41 246.467 1024.83 226.113C1025.01 216.793 1025.12 207.455 1025.19 198.116C1025.22 193.411 1025.24 188.706 1025.3 184.018C1025.37 177.456 1024.59 169.542 1028.47 163.845C1031.53 159.356 1035.54 155.985 1040.93 154.723C1045.92 153.551 1051.31 154.363 1055.71 157.013C1062.7 161.213 1066.72 170.191 1065.12 178.177C1064.74 187.281 1064.92 196.44 1064.85 205.508C1064.79 214.521 1064.58 223.535 1064.41 232.549C1064.05 251.082 1063.69 269.578 1063.21 288.093C1062.94 298.765 1053.98 307.509 1043.34 307.509C1043.18 307.509 1043.05 307.509 1042.89 307.509L1042.91 307.491Z" fill="black"/>
<path d="M958.435 439.959C934.406 429.773 915.063 411.853 900.912 390.148C886.22 367.613 876.973 341.87 871.475 315.639C870.087 309.095 869.113 302.443 868.699 295.773C868.392 290.544 868.464 284.83 870.573 279.944C872.628 275.131 875.441 271.075 880.182 268.533C883.462 266.766 886.996 265.973 890.709 265.973C901.543 265.973 910.358 275.654 910.106 286.29C910.052 289.012 909.421 291.572 908.375 293.916C908.646 297.161 909.078 300.37 909.565 303.579C911.169 311.871 913.188 320.02 915.622 328.114C918.001 335.289 920.651 342.338 923.68 349.261C926.69 355.571 929.953 361.7 933.613 367.667C936.299 371.742 939.129 375.672 942.157 379.493C944.771 382.468 947.457 385.334 950.287 388.111C952.901 390.418 955.605 392.6 958.417 394.655C961.987 397.034 965.646 399.216 969.413 401.253C973.596 403.29 977.814 405.075 982.158 406.679C986.611 408.14 991.082 409.402 995.624 410.501C1000.35 411.421 1005.09 412.124 1009.88 412.628C1014.26 412.899 1018.63 413.007 1023.01 412.953C1028.02 412.647 1032.96 412.106 1037.93 411.312C1043 410.303 1047.99 409.113 1052.93 407.671C1058.99 405.67 1064.94 403.416 1070.78 400.838C1075.93 398.351 1080.93 395.664 1085.79 392.726C1090.05 389.95 1094.1 387.011 1098.11 383.874C1103.21 379.475 1108.02 374.878 1112.62 369.957C1118.73 362.998 1124.17 355.661 1129.53 348.179C1132.81 343.113 1135.94 337.994 1138.99 332.766C1141.84 327.033 1144.43 321.282 1146.71 315.279C1147.64 312.484 1148.49 309.708 1149.3 306.878C1152.22 296.458 1163.52 290.31 1173.87 293.267C1184.33 296.259 1190.38 307.437 1187.48 317.839C1181.88 337.939 1172.34 356.4 1160.28 373.4C1154.91 380.936 1149.41 388.255 1143.24 395.214C1134.39 405.183 1124.51 414.125 1113.66 421.877C1090.99 438.066 1063.87 447.873 1036.42 451.695C1030.61 452.506 1024.79 452.884 1018.93 452.884C998.184 452.884 977.381 448.053 958.435 440.013V439.959Z" fill="black"/>
<path d="M1002.13 1208.48C989.693 1206.17 977.706 1202.01 966.331 1196.48C954.848 1190.87 943.581 1183.71 933.865 1175.38C928.673 1170.93 923.464 1166.53 918.452 1161.88C912.99 1156.81 907.943 1151.32 903.148 1145.6C898.154 1139.65 894.008 1133.16 890.15 1126.42C886.581 1120.22 883.805 1113.51 880.957 1106.95C878.253 1100.66 875.909 1094.22 873.962 1087.66C871.385 1079.02 869.42 1070.34 867.635 1061.54C863.471 1041 860.01 1020.22 857.504 999.378C856.152 988.021 854.836 976.681 853.827 965.288C852.799 953.732 852.096 942.194 851.429 930.602C848.869 886.615 851.339 842.609 854.385 798.729C855.882 777.493 858.586 756.31 861.452 735.217C864.21 715.008 867.256 694.781 871.421 674.824C876.468 650.595 881.497 626.348 888.167 602.497C891.773 589.553 895.432 576.699 899.398 563.882C901.147 558.167 903.021 552.524 904.914 546.863C906.933 540.77 908.736 534.262 911.782 528.637C915.55 521.679 924.185 518.037 931.81 519.209C941.003 520.597 947.133 527.88 948.557 536.75C948.557 536.75 948.557 536.762 948.557 536.786C949.188 540.77 948.322 544.682 946.466 548.071C946.303 548.45 946.177 548.846 946.015 549.225C940.625 564.747 935.559 580.341 931.161 596.169C928.817 604.534 926.312 612.863 924.239 621.282C921.769 631.269 919.299 641.257 916.83 651.244C914.414 662.89 911.981 674.572 909.547 686.218C908.321 692.149 907.492 698.188 906.482 704.156C905.329 710.772 904.193 717.406 903.075 724.04C902.084 729.719 901.507 735.506 900.714 741.239C899.759 748.179 898.821 755.156 897.866 762.097C896.243 773.941 895.378 785.893 894.206 797.756C893.413 808.789 892.674 819.804 891.917 830.819C891.16 841.599 890.962 852.434 890.493 863.233C889.664 882.847 890.222 902.479 890.655 922.111C891.773 941.87 892.962 961.628 895.342 981.278C897.722 1001.29 900.678 1021.17 903.959 1041.04C906.392 1053.21 908.754 1065.31 912.233 1077.22C914.649 1084.6 917.569 1091.73 920.706 1098.82C922.923 1103.49 925.32 1108.01 927.97 1112.45C929.683 1114.99 931.449 1117.46 933.324 1119.89C938.119 1125.46 943.203 1130.69 948.575 1135.74C955.209 1141.42 961.824 1147.03 968.945 1152.11C973.451 1155.08 978.048 1157.84 982.807 1160.37C986.863 1162.33 990.973 1164.08 995.21 1165.67C998.995 1166.91 1002.78 1167.96 1006.66 1168.91C1009.96 1169.58 1013.25 1170.14 1016.59 1170.55C1019.19 1170.71 1021.74 1170.77 1024.34 1170.75C1027.86 1170.53 1031.32 1170.16 1034.81 1169.65C1039.18 1168.75 1043.45 1167.67 1047.74 1166.44C1054.39 1164.26 1060.88 1161.7 1067.32 1158.89C1075.07 1155.26 1082.6 1151.26 1089.96 1146.92C1094.9 1143.74 1099.69 1140.41 1104.31 1136.79C1108.36 1133.29 1112.2 1129.65 1115.93 1125.81C1120.33 1120.83 1124.44 1115.62 1128.32 1110.25C1132.93 1103.36 1137.17 1096.28 1141.01 1088.94C1145.23 1080.32 1148.92 1071.53 1152.22 1062.53C1158.26 1044.95 1162.62 1027.03 1166.64 1008.91C1167.67 1003.29 1168.95 997.684 1169.69 992.041C1170.46 985.857 1171.2 979.692 1172 973.508C1175.12 935.326 1176.41 897.161 1175.8 858.852C1174.94 838.679 1173.62 818.578 1171.49 798.513C1169.33 778.25 1166.41 758.113 1163.16 738.012C1156.42 701.343 1148.04 664.891 1137.71 629.052C1137.96 629.881 1138.22 630.674 1138.47 631.504C1137.89 629.665 1137.33 627.808 1136.75 625.987C1136.88 626.384 1137.01 626.799 1137.13 627.195C1136.88 626.384 1136.65 625.573 1136.39 624.779C1136.45 624.942 1136.5 625.086 1136.56 625.248C1136.47 624.96 1136.38 624.671 1136.29 624.383V624.455C1136.29 624.455 1136.27 624.311 1136.23 624.221C1136.21 624.166 1136.2 624.112 1136.18 624.04C1136.18 624.076 1136.21 624.13 1136.21 624.166C1136.2 624.076 1136.16 623.968 1136.12 623.878C1128.48 599.108 1119.41 574.536 1108.85 550.884C1105.95 544.628 1102.74 538.535 1100.09 532.171C1095.89 522.219 1101.77 510.303 1111.61 506.553C1121.99 502.623 1133.02 508.104 1137.24 518.073C1137.49 518.686 1137.75 519.299 1138 519.912C1139.84 523.77 1141.77 527.574 1143.59 531.432C1147.63 540.049 1151.19 548.846 1154.71 557.68C1162.23 576.555 1168.97 595.683 1174.92 615.098C1174.77 614.702 1174.65 614.287 1174.54 613.891C1174.99 615.351 1175.44 616.829 1175.91 618.289C1175.75 617.767 1175.57 617.226 1175.4 616.721C1181.62 637.128 1186.58 657.914 1191.48 678.664C1196.39 699.468 1200.52 720.435 1203.94 741.527C1210.88 784.037 1214.97 827.033 1215.71 870.101C1216.09 891.32 1215.32 912.539 1214.5 933.739C1214.13 943.564 1213.46 953.371 1212.67 963.16C1211.73 974.824 1210.43 986.362 1208.99 997.972C1208.3 1003.34 1207.06 1008.72 1206.1 1014.03C1205.06 1019.82 1203.62 1025.55 1202.35 1031.31C1199.43 1044.56 1195.72 1057.72 1191.45 1070.61C1182.6 1097.41 1169.64 1122.67 1152.01 1144.77C1134.11 1167.2 1109.97 1182.92 1084.14 1194.8C1070.96 1200.86 1057.31 1205.62 1043.11 1208.48C1036.49 1209.8 1029.8 1210.43 1023.11 1210.43C1016.1 1210.43 1009.11 1209.74 1002.2 1208.46L1002.13 1208.48Z" fill="black"/>
<path d="M917.839 1862.31C906.951 1860.15 896.983 1852.87 890.313 1844.12C882.002 1833.2 877.658 1820.58 875.206 1807.18C871.565 1787.34 871.709 1767.09 872.16 1747.03C872.268 1742.63 872.845 1738.17 873.187 1733.81C873.566 1729.14 874.125 1724.55 874.792 1719.91C875.909 1712.09 877.315 1704.41 879.244 1696.75C881.371 1688.24 884.833 1680.34 888.762 1672.57C888.69 1672.7 888.618 1672.82 888.546 1672.95C888.618 1672.79 888.69 1672.66 888.744 1672.5C888.023 1663.72 886.689 1654.98 885.59 1646.23C884.364 1636.32 883.336 1626.4 882.453 1616.45C880.524 1594.87 879.064 1573.26 877.874 1551.62C875.603 1510.02 875.981 1468.23 876.522 1426.58C876.793 1404.9 877.045 1383.21 877.694 1361.52C878.361 1339.56 878.866 1317.55 880.344 1295.63C881.173 1283.3 881.732 1270.89 882.904 1258.56C883.949 1247.44 884.977 1236.34 886.004 1225.21C887.915 1204.59 891.358 1184.16 893.774 1163.61C894.062 1161.2 894.369 1158.78 894.603 1156.36C894.639 1155.77 894.675 1155.19 894.765 1154.63C894.765 1154.58 894.765 1154.53 894.765 1154.47V1154.58C896.135 1144.66 904.554 1136.88 914.883 1137.13C925.519 1137.38 934.766 1146.63 934.28 1157.45C933.883 1165.87 932.405 1174.32 931.287 1182.67C930.224 1190.69 929.07 1198.69 928.133 1206.72C925.951 1225.41 924.059 1244.12 922.31 1262.87C920.706 1285.61 919.426 1308.3 918.362 1331.09C917.335 1352.98 917.046 1374.93 916.614 1396.85C915.802 1438.35 915.352 1479.93 916.415 1521.43C916.505 1524.82 916.578 1528.21 916.686 1531.59C917.803 1557.39 919.318 1583.15 921.607 1608.88C922.779 1622.06 924.185 1635.16 925.807 1648.27C926.492 1653.79 927.249 1659.32 927.862 1664.86C932.819 1665.68 937.47 1668.35 940.517 1672.72C943.239 1676.56 945.889 1680.45 948.467 1684.4C949.981 1686.71 951.459 1689.03 952.955 1691.34C953.676 1692.46 954.415 1693.56 955.119 1694.67C955.155 1694.71 955.173 1694.73 955.173 1694.78C955.569 1695.39 955.948 1696.03 956.326 1696.66C957.21 1698.01 958.057 1699.41 958.886 1700.82C961.392 1704.95 963.934 1709.1 966.133 1713.4C968.891 1718.83 971.379 1724.33 973.794 1729.94C977.958 1739.54 980.302 1750.04 982.519 1760.24C987.476 1783.12 984.899 1808.45 973.776 1829.16C968.278 1839.4 961.103 1848.45 951.639 1855.26C944.248 1860.58 935.56 1863.23 926.69 1863.23C923.734 1863.23 920.742 1862.94 917.785 1862.35L917.839 1862.31ZM916.235 1712.56C914.901 1719.41 914 1726.29 913.026 1733.2C912.413 1740.93 911.855 1748.63 911.674 1756.4C911.494 1764.24 911.71 1771.99 911.945 1779.84C912.558 1786.25 913.098 1792.69 914.036 1799.07C914.739 1802.75 915.586 1806.37 916.595 1809.96C917.082 1811.35 917.605 1812.7 918.182 1814.04C918.759 1815.23 919.39 1816.4 920.057 1817.53C920.633 1818.38 921.228 1819.23 921.877 1820.04C922.382 1820.62 922.941 1821.17 923.482 1821.73C923.86 1822.04 924.239 1822.35 924.635 1822.65C925.05 1822.89 925.483 1823.12 925.915 1823.37C926.06 1823.43 926.204 1823.48 926.366 1823.54C926.42 1823.54 926.456 1823.54 926.51 1823.57C926.636 1823.57 926.763 1823.57 926.889 1823.57C926.979 1823.54 927.069 1823.52 927.159 1823.5C927.412 1823.41 927.664 1823.34 927.916 1823.23C928.133 1823.1 928.349 1823 928.565 1822.87C929.214 1822.4 929.845 1821.93 930.512 1821.48C931.089 1820.96 931.666 1820.42 932.225 1819.84C933.468 1818.4 934.658 1816.9 935.812 1815.37C936.984 1813.51 938.101 1811.64 939.165 1809.74C940.102 1807.73 940.986 1805.72 941.815 1803.67C942.608 1801.27 943.293 1798.86 943.888 1796.39C944.284 1794.06 944.609 1791.75 944.879 1789.43C945.06 1786.47 945.132 1783.57 945.096 1780.61C944.843 1776.72 944.429 1772.86 943.834 1768.98C942.59 1763.25 941.184 1757.68 939.598 1752.04C937.813 1747.08 935.92 1742.27 933.865 1737.42C930.476 1730.8 926.853 1724.38 923.013 1718.04C923.482 1718.78 923.95 1719.53 924.419 1720.27C923.283 1718.49 922.166 1716.69 921.048 1714.9C920.976 1714.77 920.886 1714.65 920.796 1714.52C919.588 1712.61 918.362 1710.72 917.118 1708.84C916.794 1710.05 916.505 1711.28 916.199 1712.5L916.235 1712.56Z" fill="black"/>
<path d="M1164.98 1843.83C1142.6 1830.57 1136.07 1803.22 1133.69 1779.04C1131.58 1757.59 1133.87 1735.58 1137.33 1714.41C1139.28 1702.48 1142.07 1690.78 1145.55 1679.21C1149.12 1667.36 1154.13 1656.33 1160.21 1645.58C1161.31 1643.65 1162.71 1642 1164.32 1640.64C1164.8 1629.25 1165.04 1617.87 1165.02 1606.46C1165.02 1575.83 1164.19 1545.19 1162.97 1514.58C1163 1515.42 1163.02 1516.29 1163.06 1517.12C1162.89 1512.9 1162.73 1508.66 1162.55 1504.44C1160.42 1461.2 1158.22 1417.93 1156.1 1374.68C1155.03 1352.97 1153.66 1331.31 1152.06 1309.64C1150.47 1287.98 1148.08 1266.44 1145.32 1244.92C1143.71 1232.5 1141.57 1220.16 1139.5 1207.8C1137.3 1196.91 1135.17 1186 1132.72 1175.15C1131.42 1169.38 1130.1 1163.61 1128.79 1157.84C1127.51 1152.22 1125.83 1146.36 1125.83 1140.55C1125.83 1129.74 1135.51 1120.9 1146.15 1121.16C1156.39 1121.39 1164.37 1129.41 1165.44 1139.24C1165.44 1139.29 1165.44 1139.33 1165.44 1139.36C1165.44 1139.27 1165.44 1139.18 1165.44 1139.09C1165.47 1139.29 1165.49 1139.51 1165.53 1139.71C1169.73 1160.28 1175.17 1180.61 1178.59 1201.34C1180.29 1211.49 1182.33 1221.64 1183.66 1231.85C1185.05 1242.54 1186.74 1253.23 1187.77 1263.95C1189.86 1285.75 1192.06 1307.56 1193.32 1329.45C1194.57 1351.05 1195.72 1372.62 1196.73 1394.22C1198.57 1433.25 1200.88 1472.25 1202.48 1511.29C1202.48 1511.22 1202.48 1511.13 1202.46 1511.04C1203.51 1536.28 1204.14 1561.54 1204.52 1586.79C1204.68 1598.04 1204.75 1609.29 1204.63 1620.52C1204.57 1626.38 1204.35 1632.26 1204.16 1638.1C1203.99 1643.17 1203.56 1648.25 1203.45 1653.32C1205.89 1658.18 1208.66 1662.87 1211.13 1667.72C1213.89 1673.09 1216.43 1678.54 1218.97 1684.02C1223.59 1694.02 1227.45 1704.37 1230.82 1714.86C1234.44 1726.17 1237.22 1737.63 1239 1749.37C1241.02 1762.53 1240.86 1776.14 1238.66 1789.25C1236.59 1801.7 1231.36 1813.01 1224.17 1823.26C1220.63 1828.33 1216.05 1832.84 1211.6 1837.07C1207.78 1840.7 1203.24 1844.1 1198.28 1846C1193.54 1847.84 1188.47 1848.79 1183.43 1848.79C1177.01 1848.79 1170.63 1847.22 1164.93 1843.85L1164.98 1843.83ZM1178.45 1710.19C1176.31 1721.64 1174.7 1733.11 1173.48 1744.7C1173.08 1751.75 1172.81 1758.73 1172.74 1765.79C1173.08 1772.1 1173.49 1778.32 1174.38 1784.58C1175.04 1788.24 1175.85 1791.84 1176.83 1795.45C1177.55 1797.59 1178.32 1799.68 1179.15 1801.79C1179.93 1803.36 1180.76 1804.89 1181.64 1806.43C1181.89 1806.81 1182.15 1807.15 1182.43 1807.51C1182.72 1807.82 1183.03 1808.12 1183.34 1808.43C1183.48 1808.52 1183.61 1808.63 1183.73 1808.73C1185.75 1806.88 1187.68 1804.93 1189.59 1802.95C1191.02 1801.23 1192.37 1799.54 1193.67 1797.76C1194.28 1796.82 1194.84 1795.86 1195.38 1794.91C1196.3 1792.98 1197.11 1791.07 1197.88 1789.1C1198.35 1787.71 1198.75 1786.27 1199.13 1784.83C1199.74 1781.66 1200.21 1778.52 1200.55 1775.31C1200.7 1772.21 1200.75 1769.09 1200.71 1765.97C1200.43 1761.07 1199.92 1756.24 1199.22 1751.37C1197.85 1744.79 1196.35 1738.32 1194.64 1731.81C1191.25 1721.44 1187.46 1711.35 1183.3 1701.25L1181.62 1697.63C1180.47 1701.79 1179.42 1705.99 1178.45 1710.23V1710.19Z" fill="black"/>
<path d="M605.78 839.597C589.988 837.38 575.152 831.251 560.857 824.472C547.986 818.379 535.025 811.853 523.74 803.055C515.196 796.439 513.898 783.531 520.586 775.166C527.4 766.621 539.928 765.359 548.473 771.993C549.537 772.805 550.582 773.598 551.628 774.373C557.036 777.834 562.606 780.917 568.266 783.91C577.009 788.272 585.788 792.527 594.946 795.988C598.749 797.268 602.571 798.386 606.465 799.341C609.998 800.027 613.513 800.603 617.082 801C620.363 801.162 623.626 801.27 626.925 801.252C630.62 801.036 634.244 800.675 637.903 800.153C642.374 799.269 646.754 798.206 651.117 796.944C656.272 795.195 661.302 793.212 666.295 791.031C673.866 787.461 681.167 783.441 688.324 779.06C697.463 773.147 706.17 766.747 714.625 759.897C719.474 755.57 724.305 751.243 729.154 746.917C733.607 742.951 737.771 738.624 742.007 734.442C750.065 726.491 757.726 718.199 765.442 709.924C781.522 691.553 797.205 672.931 812.654 654.02C821.288 643.401 829.851 632.729 838.414 622.02C845.678 612.898 852.547 603.488 859.541 594.149C864.372 587.119 869.492 580.178 873.89 572.859C877.009 567.667 880.145 562.457 883.264 557.265C885.283 553.893 886.996 550.306 888.78 546.809C891.484 540.986 893.81 534.838 896.928 529.231C902.192 519.785 915.117 516.973 924.185 522.399C933.27 527.861 936.028 539.201 931.612 548.467C931.792 548.089 931.99 547.728 932.188 547.367C930.151 551.478 928.421 555.768 926.474 559.933C923.878 565.539 920.904 570.93 918.056 576.392C915.712 580.845 912.918 585.082 910.322 589.372C907.943 593.32 905.491 597.106 902.913 600.91C896.207 610.771 889.447 620.452 882.309 630.007C875.422 639.201 868.356 648.197 861.199 657.175C847.499 674.355 833.528 691.283 819.468 708.175C805.731 724.707 791.22 740.445 776.546 756.111C767.01 766.315 756.573 775.689 746.135 784.991C720.916 807.544 691.514 826.185 658.976 836.01C647.836 839.381 636.227 840.932 624.636 840.932C618.326 840.932 612.017 840.463 605.78 839.597Z" fill="black"/>
<path d="M480.35 812.736C468.687 812.736 455.888 809.274 449.02 799.197C442.584 789.732 443.99 776.734 452.301 768.802C465.731 755.966 486.93 759.193 503.659 762.078C515.106 764.043 526.553 766.098 537.819 768.946C548.311 771.632 554.35 783.35 551.429 793.518C548.383 804.154 537.332 809.797 526.859 807.129C526.39 807.003 525.922 806.895 525.471 806.787C523.29 807.958 520.838 808.788 518.26 809.184C505.786 811.023 493.131 812.7 480.512 812.754H480.35V812.736Z" fill="black"/>
<path d="M1314.19 799.54C1300.65 796.872 1287.58 791.914 1275.38 785.568C1249.55 772.102 1227.37 752.902 1208.52 730.836C1200.57 721.534 1193.23 711.691 1186.22 701.649C1179.44 691.95 1173.29 681.909 1167.06 671.849C1164.41 667.559 1162.23 662.907 1159.85 658.491C1157.52 654.182 1155.25 649.909 1153.23 645.457C1148.74 635.559 1144.31 625.752 1140.38 615.639C1136.16 604.804 1132.19 593.897 1128.28 582.954C1125.07 574.049 1121.99 565.053 1119.14 556.021C1117.29 550.18 1115.36 544.375 1113.61 538.498C1111.91 532.855 1109.55 527.014 1109.55 521.047C1109.55 510.23 1119.25 501.415 1129.87 501.649C1139.46 501.883 1147.07 508.932 1148.85 517.928C1148.81 517.748 1148.8 517.55 1148.76 517.351C1149.63 520.65 1150.6 523.949 1151.61 527.194C1157.49 545.781 1163.72 564.205 1170.34 582.54C1173.57 591.536 1177.08 600.423 1180.54 609.329C1183.8 617.658 1187.81 625.716 1191.5 633.865C1191.14 633.071 1190.78 632.296 1190.44 631.503C1194.26 638.552 1198.05 645.601 1201.85 652.668C1205.02 658.581 1208.86 664.187 1212.48 669.884C1216.43 675.509 1220.36 681.17 1224.31 686.812C1228.04 692.166 1232.33 697.178 1236.37 702.334C1243.02 710.176 1250 717.64 1257.48 724.689C1263.52 730.061 1269.77 735.109 1276.34 739.832C1282.1 743.762 1288.03 747.349 1294.2 750.649C1298.89 752.938 1303.61 754.993 1308.46 756.832C1312.62 758.22 1316.79 759.446 1321.06 760.438C1325.73 761.321 1330.4 762.006 1335.14 762.493C1340.89 762.871 1346.6 762.98 1352.35 762.817C1356.86 762.529 1361.31 762.078 1365.8 761.465C1370.65 760.582 1375.37 759.482 1380.11 758.13C1384.17 756.778 1388.12 755.282 1392.05 753.623C1396.72 751.298 1401.24 748.9 1405.78 746.286C1413.59 741.184 1421.05 735.758 1428.28 729.881C1432.79 726.041 1437.21 722.129 1441.8 718.397C1450.56 711.24 1460.12 705.615 1471.15 702.641C1494.69 696.313 1521.66 701.307 1540.25 717.459C1543.69 720.434 1546.81 723.571 1549.42 727.339C1553.22 732.837 1554.78 739.796 1553.77 746.412C1553.26 749.729 1551.82 753.028 1550.11 755.877C1548.16 759.122 1545.37 761.267 1542.39 763.502C1536.8 767.685 1528.65 768.748 1521.89 767.865C1511.93 766.567 1502.8 762.294 1493.9 757.86C1487.32 754.579 1480.87 751.063 1474.48 747.458C1473.47 746.899 1472.54 746.232 1471.69 745.511C1469.76 746.881 1467.9 748.323 1466.07 749.801C1458.78 755.949 1451.59 762.168 1444.09 768.063C1435.91 774.499 1427 779.926 1417.99 785.118C1411.12 789.066 1403.48 792.094 1396.03 794.726C1382.24 799.576 1367.53 802.046 1352.95 802.514C1350.82 802.587 1348.69 802.623 1346.57 802.623C1335.7 802.623 1324.92 801.667 1314.23 799.576L1314.19 799.54Z" fill="black"/>
<path d="M984.88 1949.17C972.136 1948.63 959.409 1947.12 946.754 1945.51C921.192 1942.23 896.207 1935.81 871.763 1927.72C865.616 1925.68 859.577 1923.5 853.538 1921.19C850.582 1920.04 847.499 1919.05 844.579 1917.75C841.226 1916.23 837.873 1914.74 834.502 1913.24C828.265 1910.45 822.28 1907.29 816.205 1904.12C810.31 1901.05 804.74 1897.4 799.062 1893.95C796.916 1892.65 794.897 1891.1 792.842 1889.68C789.94 1887.7 787.038 1885.68 784.136 1883.69C778.439 1879.78 773.067 1875.37 767.569 1871.18C762.197 1867.13 757.114 1862.6 751.922 1858.33C746.82 1854.15 742.007 1849.51 737.068 1845.11C732.237 1840.79 727.658 1836.15 722.989 1831.65C718.591 1827.36 714.481 1822.85 710.334 1818.33C706.405 1814.05 702.637 1809.8 698.96 1805.33C694.687 1800.14 690.235 1795.03 686.161 1789.68C677.886 1778.81 669.684 1767.92 661.735 1756.83C653.641 1745.53 645.889 1734.03 638.12 1722.49C634.695 1717.37 631.594 1712.02 628.349 1706.77C625.429 1702.08 622.454 1697.41 619.714 1692.62C615.496 1685.23 611.296 1677.87 607.096 1670.48C604.446 1665.83 602.048 1661.02 599.561 1656.29C596.604 1650.69 593.468 1645.15 590.71 1639.45C587.32 1632.51 583.968 1625.55 580.579 1618.6C574.828 1606.73 569.618 1594.65 564.282 1582.59C561.867 1577.15 559.794 1571.53 557.613 1565.97C555.558 1560.73 553.322 1555.53 551.52 1550.22C548.798 1542.28 546.094 1534.37 543.371 1526.42C541.731 1521.59 540.325 1516.68 538.865 1511.8C536.792 1504.86 534.574 1497.95 532.664 1490.96C530.807 1484.2 529.004 1477.42 527.166 1470.64C523.722 1457.84 520.388 1445.02 517.089 1432.19C513.898 1419.8 510.797 1407.44 507.895 1395C506.633 1389.63 505.516 1384.27 504.47 1378.86C503.226 1372.61 501.73 1366.35 500.756 1360.04C498.701 1346.43 496.502 1332.87 494.862 1319.21C493.293 1306.03 491.923 1292.82 490.463 1279.62C487.651 1254.16 485.632 1228.55 484.442 1202.95C483.271 1177.74 483.253 1152.47 481.774 1127.25C480.332 1102.86 477.286 1078.56 476.348 1054.13C476.204 1050.16 476.06 1046.18 475.988 1042.19V1042.93C475.681 1019.23 477.466 995.574 477.376 971.868V971.922C477.124 960.15 476.493 948.432 475.429 936.714C474.329 924.527 472.923 912.394 471.86 900.189C470.85 888.381 470.147 876.537 469.03 864.747C467.912 852.975 466.416 841.239 465.496 829.467C464.865 821.408 464.595 813.332 465.01 805.255C465.352 798.765 471.067 793.627 477.538 793.97C484.01 794.312 489.165 800.009 488.805 806.499C488.643 809.348 488.607 812.142 488.625 814.99C488.895 826.474 490.211 837.867 491.437 849.243C492.717 861.105 493.654 872.986 494.537 884.902C496.376 909.185 499.603 933.361 500.775 957.68C501.423 971.111 501.207 984.559 500.775 998.008C500.378 1010.77 499.585 1023.52 499.675 1036.28C499.711 1038.17 499.729 1040.08 499.747 1042.01C500.45 1066.57 503.064 1091 504.867 1115.48C506.741 1140.9 506.958 1166.41 507.805 1191.88C508.562 1214.43 510.419 1236.95 512.42 1259.43C514.475 1282.31 517.053 1305.11 519.883 1327.9C521.721 1339.89 523.38 1351.88 525.741 1363.79C527.021 1370.32 528.121 1376.95 529.635 1383.42C531.312 1390.63 533.024 1397.83 534.701 1405.04C537.567 1417.3 540.938 1429.45 544.111 1441.62C547.626 1455.17 551.285 1468.7 554.945 1482.22C555.215 1483.3 555.521 1484.36 555.81 1485.42C558.117 1493.21 560.461 1501 562.786 1508.79C564.697 1515.21 566.86 1521.53 569.041 1527.88C571.223 1534.3 573.296 1540.79 575.765 1547.1C578.974 1555.26 582.183 1563.43 585.392 1571.6C589.412 1580.68 593.432 1589.75 597.451 1598.82C599.507 1603.49 601.922 1608.01 604.157 1612.61C606.717 1617.89 609.295 1623.17 611.873 1628.46C613.928 1632.71 616.271 1636.82 618.471 1640.99C621.355 1646.48 624.257 1651.95 627.123 1657.45C629.269 1661.52 631.702 1665.47 633.973 1669.47C636.768 1674.36 639.526 1679.24 642.32 1684.11C647.205 1692 652.09 1699.9 656.994 1707.76C659.283 1711.47 661.879 1715.04 664.33 1718.67C667.197 1722.94 670.063 1727.2 672.929 1731.45C678.193 1739.24 683.871 1746.76 689.351 1754.38C694.633 1761.77 700.312 1768.88 705.81 1776.12C712.498 1784.32 719.113 1792.6 726.27 1800.39C729.965 1804.43 733.535 1808.68 737.465 1812.47C741.845 1816.7 746.207 1820.94 750.588 1825.19C758.087 1831.9 765.532 1838.62 773.32 1845.02C776.961 1848.02 780.566 1851.1 784.334 1853.97C788.66 1857.25 792.969 1860.53 797.313 1863.81C802 1867.04 806.687 1870.26 811.392 1873.49C813.501 1874.95 815.808 1876.19 818.008 1877.53C820.387 1878.99 822.785 1880.43 825.182 1881.89C829.725 1884.27 834.268 1886.61 838.81 1888.99C841.352 1890.33 844.092 1891.37 846.742 1892.53C849.284 1893.7 851.844 1894.82 854.385 1895.95C858.838 1897.67 863.291 1899.38 867.761 1901.07C871.835 1902.64 875.963 1903.94 880.109 1905.31C889.033 1908.27 898.046 1910.86 907.077 1913.46C912.017 1914.63 916.956 1915.8 921.913 1916.97C926.113 1917.96 930.35 1918.65 934.586 1919.41C938.714 1920.15 942.788 1920.92 946.952 1921.46C951.928 1922.11 956.921 1922.74 961.878 1923.39C967.953 1923.9 974.064 1924.42 980.175 1924.92C984.971 1925.32 989.802 1925.45 994.615 1925.64C999.266 1925.84 1003.9 1926.11 1008.55 1926.1C1014.52 1926.06 1020.5 1926.04 1026.47 1926.01C1033.79 1925.52 1041.09 1925.03 1048.39 1924.53C1051.94 1924.27 1055.53 1923.55 1059.06 1923.07C1062.12 1922.67 1065.17 1922.24 1068.24 1921.84C1079.75 1919.44 1091.18 1917.23 1102.52 1914.05C1113.61 1910.77 1124.51 1906.95 1135.19 1902.39C1145.26 1897.88 1155 1892.82 1164.43 1887.08L1163.07 1887.91C1172.52 1882.09 1181.7 1875.83 1190.4 1868.97C1194.87 1865.43 1199.36 1861.9 1203.83 1858.35C1216.22 1847.69 1228.71 1837.13 1240.52 1825.81C1246.86 1819.73 1253.42 1813.84 1259.57 1807.58C1265.74 1801.29 1271.92 1795.02 1278.08 1788.72C1282.14 1784.18 1286.2 1779.6 1290.25 1775.04C1296.98 1767.49 1303.32 1759.68 1309.32 1751.53C1316.03 1742.21 1322.3 1732.59 1327.91 1722.56C1331.19 1716.77 1334.44 1710.99 1337.68 1705.18C1342.62 1695.34 1347.76 1685.59 1352.37 1675.58C1357.94 1663.52 1363.44 1651.48 1368.74 1639.31C1378.37 1617.15 1387.43 1594.76 1396.39 1572.34C1406.02 1547.33 1415.47 1522.27 1424.53 1497.05C1428.79 1485.23 1432.73 1473.31 1436.75 1461.41C1438.92 1455.03 1440.7 1448.5 1442.7 1442.07C1444.18 1437.27 1445.66 1432.51 1446.98 1427.66C1449.19 1419.33 1451.5 1411.01 1453.7 1402.66C1459.4 1378.41 1465.06 1354.13 1469.49 1329.59C1474.21 1303.56 1478.74 1277.49 1482.25 1251.28C1483.5 1242.1 1484.87 1232.95 1485.99 1223.73C1487.43 1210.48 1488.91 1197.23 1490.47 1184C1490.42 1184.51 1490.35 1185.01 1490.29 1185.51C1495.52 1133.41 1500.35 1081.26 1504.01 1029.03C1504.61 1020.8 1505.36 1012.56 1505.69 1004.3C1506.19 991.554 1506.72 978.809 1507.2 966.063C1507.49 958.78 1507.38 951.533 1507.31 944.231C1507.22 933.343 1507.15 922.436 1507 911.529C1507 912.052 1507 912.575 1507 913.097C1505.87 897.738 1504.99 882.36 1503.99 866.982C1503.6 860.637 1502.59 854.273 1501.88 847.963C1501.02 840.283 1500.17 832.585 1499.29 824.924C1497.72 814.918 1496.12 804.931 1494.49 794.925C1493.94 791.428 1493.12 787.985 1492.42 784.505C1491.1 778.214 1489.84 771.94 1488.13 765.72C1487.32 763.088 1486.45 760.51 1485.43 757.968C1485.28 757.68 1485.14 757.374 1485.01 757.103C1483.37 755.751 1482.07 753.966 1481.35 751.929C1480.25 748.864 1480.58 745.782 1481.77 742.825C1482.72 740.463 1484.96 738.192 1487.27 737.164C1491.77 735.127 1496.46 735.47 1500.42 738.571C1505.76 742.735 1508.07 749.946 1510.1 756.148C1511.69 760.979 1512.88 765.919 1513.93 770.894C1515.21 777.078 1516.76 783.207 1517.75 789.427C1519.77 802.028 1522.15 814.612 1523.55 827.285C1524.54 836.155 1525.54 845.025 1526.55 853.894C1527.01 858.131 1527.61 862.349 1527.88 866.604C1528.83 881.441 1529.81 896.259 1530.78 911.096C1531.12 916.378 1530.91 921.751 1530.94 927.051C1531.03 936.173 1531.11 945.295 1531.21 954.417C1531.34 966.73 1530.57 979.007 1530.06 991.302C1529.11 1015.35 1527.43 1039.36 1525.37 1063.34C1523.48 1085.42 1521.55 1107.49 1519.53 1129.57C1518.78 1137.9 1518.02 1146.23 1517.21 1154.56C1516.14 1165.67 1515.26 1176.84 1513.96 1187.93C1512.52 1201.22 1511.04 1214.5 1509.46 1227.79C1508.72 1234.06 1507.76 1240.32 1506.93 1246.56C1506.09 1252.81 1505.35 1259.09 1504.39 1265.32C1503.33 1272.28 1502.23 1279.22 1501.15 1286.18C1500.28 1291.75 1499.54 1297.34 1498.53 1302.88C1496.24 1315.53 1494.24 1328.28 1491.65 1340.88C1486.26 1367.11 1480.83 1393.32 1473.89 1419.19C1472.14 1425.73 1470.61 1432.41 1468.61 1438.88C1466.41 1446 1464.25 1453.1 1462.06 1460.22C1458.26 1472.64 1453.99 1484.87 1449.81 1497.16C1446.07 1508.09 1442.05 1518.92 1438.03 1529.72C1432.97 1543.29 1427.85 1556.85 1422.66 1570.37C1413.64 1593.74 1404.4 1617.06 1394.43 1639.99C1388.77 1652.99 1383.09 1665.94 1377.14 1678.79C1371.5 1691.01 1365.44 1703 1359.38 1715.04C1356.39 1720.99 1352.88 1726.73 1349.6 1732.55C1343.97 1742.59 1337.91 1752.31 1331.28 1761.74C1324.48 1771.38 1317.15 1780.61 1309.31 1789.44C1304.53 1794.8 1299.93 1800.42 1294.9 1805.54C1285.62 1814.99 1276.39 1824.45 1266.82 1833.59C1257.23 1842.77 1247.47 1851.73 1237.63 1860.64C1227.39 1869.92 1216.6 1878.54 1205.74 1887.1C1195.52 1895.2 1184.78 1902.51 1173.6 1909.28C1157.52 1918.99 1140.25 1926.6 1122.48 1932.66C1110.6 1936.7 1098.48 1939.83 1086.19 1942.39C1079.92 1943.67 1073.72 1945.01 1067.39 1945.87C1061.1 1946.74 1054.77 1947.91 1048.42 1948.34C1044.22 1948.61 1040.01 1948.9 1035.79 1949.17C1032.72 1949.37 1029.68 1949.68 1026.61 1949.69C1019.31 1949.73 1011.99 1949.77 1004.69 1949.82C1004.53 1949.82 1004.35 1949.82 1004.19 1949.82C997.788 1949.82 991.334 1949.26 984.917 1948.97L984.88 1949.17Z" fill="black"/>
<path d="M1362.94 246.593C1356.82 245.457 1350.75 244.033 1344.71 242.555C1338.06 240.932 1331.32 239.346 1324.77 237.309C1311.33 233.126 1297.77 228.728 1285.06 222.58C1272.73 216.631 1260.98 209.889 1249.51 202.389C1238.03 194.871 1227.3 186.074 1216.83 177.222C1212 173.13 1209.69 166.983 1210.05 160.961C1201.6 158.203 1193.61 154.453 1186.42 148.991C1187 149.442 1187.57 149.856 1188.15 150.289C1179.08 144.358 1176.5 131.846 1182.42 122.797C1188.35 113.729 1200.86 111.151 1209.91 117.064C1210.7 117.586 1211.46 118.181 1212.2 118.776C1212.68 119.101 1213.13 119.407 1213.64 119.714C1214.74 120.291 1215.86 120.813 1216.99 121.318C1220.6 122.67 1224.22 123.824 1227.92 124.87C1233.41 126.168 1238.91 127.231 1244.5 128.061C1252.9 129.052 1261.34 129.557 1269.79 129.665C1287.3 129.431 1304.48 127.376 1321.82 125.338C1330.78 123.698 1339.72 122.057 1348.69 120.381C1352.91 119.606 1357.09 118.235 1361.26 117.172C1365.24 116.144 1369.23 115.135 1373.23 114.107C1380.94 111.583 1388.64 109.041 1396.36 106.517C1402.43 104.534 1408.33 101.866 1414.24 99.4325C1423.18 95.3402 1432.05 91.2119 1440.81 86.777C1448.15 83.0633 1455.3 79.0251 1462.42 74.9328C1471.08 69.7408 1479.73 64.5128 1488.15 58.9061C1491.27 56.851 1494.39 54.8499 1497.65 53.0471C1502.19 50.5413 1507.62 49.6759 1512.7 50.1086C1524.42 51.1181 1532.1 60.2762 1536.95 70.1735C1541.65 79.8003 1544.36 90.635 1546.43 101.091C1547.64 107.221 1548.65 113.278 1549.55 119.479C1551.49 132.892 1552.27 146.719 1551.17 160.258C1549.11 186.056 1535.65 209.618 1514.99 225.068C1494.84 240.103 1469.56 249.405 1444.6 252.02C1437.62 252.759 1430.63 253.083 1423.65 253.083C1403.28 253.083 1382.96 250.289 1362.94 246.593ZM1461.52 120.813C1442.18 130.566 1422.51 139.761 1401.89 146.521C1396.47 148.288 1391.04 150.073 1385.61 151.839C1379.54 153.84 1373.1 155.066 1366.9 156.653C1362.95 157.662 1359.02 158.87 1355 159.609C1347.97 160.907 1340.96 162.205 1333.93 163.485C1322.86 165.54 1311.58 166.442 1300.38 167.758C1290.99 168.839 1281.47 169.452 1271.92 169.488C1277.31 173.094 1282.79 176.501 1288.41 179.782C1295.53 183.532 1302.73 186.975 1310.1 190.22C1322.09 194.817 1334.16 198.729 1346.53 202.173C1354.19 204.048 1361.85 206.013 1369.62 207.455C1377.63 208.933 1385.6 210.231 1393.63 211.403C1403.57 212.376 1413.46 213.242 1423.47 213.404C1429.45 213.35 1435.42 213.043 1441.39 212.449C1446.34 211.727 1451.23 210.772 1456.12 209.6C1461.25 208.122 1466.26 206.427 1471.22 204.462C1475.39 202.641 1479.42 200.658 1483.41 198.459C1486.26 196.71 1489.03 194.872 1491.74 192.888C1493.9 191.122 1495.95 189.283 1497.97 187.354C1499.14 186.092 1500.26 184.812 1501.34 183.478C1502.79 181.459 1504.16 179.422 1505.45 177.294C1506.54 175.185 1507.53 173.076 1508.46 170.895C1508.97 169.542 1509.42 168.172 1509.85 166.784C1510.43 164.314 1510.9 161.881 1511.33 159.393C1511.69 155.877 1511.91 152.362 1511.98 148.811C1511.85 141.491 1511.24 134.226 1510.52 126.943C1509.17 117.929 1507.65 109.023 1505.47 100.172C1505.04 98.6754 1504.61 97.2151 1504.14 95.7368C1490.24 104.607 1476.23 113.368 1461.51 120.813H1461.52Z" fill="black"/>
</g>
<defs>
<clipPath id="clip0_157_190">
<rect width="1109" height="1900" fill="white" transform="translate(445 50)"/>
</clipPath>
</defs>
</svg>
