<svg width="2000" height="2000" viewBox="0 0 2000 2000" fill="none" xmlns="http://www.w3.org/2000/svg">
<g clip-path="url(#clip0_157_192)">
<path d="M1205.03 665.736C1194.32 665.584 1183.43 664.877 1172.81 663.376C1166.46 662.466 1160.08 661.556 1153.73 660.646C1145.45 659.449 1137.29 657.814 1129.13 656.028C1102.65 650.23 1076.54 640.892 1053.77 626.026C1042.88 618.93 1032.96 610.435 1023.02 602.058C1012.38 593.092 1002.45 583.451 993.164 573.085C975.734 553.685 961.625 531.049 951.038 507.266C939.424 481.108 932.057 453.533 927.607 425.335C923.291 397.828 923.595 369.916 928.534 342.56C933.456 315.289 942.205 288.507 952.842 262.972C963.344 237.774 977.234 213.789 993.923 192.181C1013.28 167.152 1037.82 146.774 1062.33 127.02C1083.43 110.014 1108.84 99.2264 1133.87 89.4337C1142.92 85.8942 1152.35 83.2648 1161.65 80.5681C1165.31 79.5062 1169.02 78.8151 1172.74 78.2758C1174.68 71.045 1180.97 65.4998 1188.76 64.4716C1208.26 61.9265 1227.85 60.477 1247.52 61.1512C1268.09 61.8254 1288.47 63.8817 1308.76 67.1347C1328.69 70.3203 1347.99 77.1802 1366.77 84.3604C1376.75 88.1696 1386.27 93.2935 1395.44 98.7713C1403.97 103.862 1412.13 109.997 1419.43 116.722C1449.08 144.027 1475.35 175.09 1499.4 207.351C1502.12 210.991 1504.49 214.918 1507.04 218.677C1508.51 220.868 1509.75 223.194 1511.05 225.486C1512.28 227.61 1513.68 229.717 1514.74 231.942C1519.07 240.993 1523.54 250.095 1527.13 259.466C1528.95 264.202 1530.77 268.972 1532.58 273.725C1534.72 279.388 1536.15 285.422 1537.92 291.204C1539.3 295.721 1540.21 300.406 1541.31 304.991C1542.41 309.592 1543.23 314.194 1544.07 318.829C1544.87 323.278 1545.84 327.745 1546.35 332.245C1547.02 338.026 1547.68 343.808 1548.36 349.572C1548.95 354.848 1548.86 360.309 1549.11 365.618C1549.37 370.826 1549.27 375.967 1549.2 381.175C1549.05 390.968 1548.68 400.895 1547.43 410.604C1546.72 416.166 1546.01 421.711 1545.3 427.273C1544.6 432.785 1543.35 438.262 1542.35 443.74C1538.16 467.185 1530.05 489.72 1518.11 510.317C1512.43 520.127 1505.77 529.498 1498.9 538.465C1495 543.521 1491.16 548.578 1487.05 553.449C1478.01 564.118 1468.13 574.079 1457.55 583.215C1441.94 596.715 1424.61 607.84 1406.45 617.582C1402.07 619.924 1397.75 622.436 1393.22 624.475C1387.45 627.071 1381.71 629.667 1375.96 632.262C1367.48 636.071 1358.58 638.954 1349.86 642.156C1344.89 643.976 1339.61 645.19 1334.54 646.673C1330.32 647.904 1326.16 649.319 1321.9 650.297C1312.03 652.589 1302.21 655.151 1292.24 656.904C1276.84 659.635 1261.55 662.399 1245.99 664.051C1234.51 665.264 1222.93 665.753 1211.38 665.753C1209.26 665.753 1207.13 665.753 1205.01 665.702L1205.03 665.736ZM1223.5 628.47C1236.14 627.863 1248.67 626.532 1261.21 624.779C1273.47 622.638 1285.7 620.582 1297.84 617.767C1304.23 616.301 1310.7 615.037 1316.99 613.199C1323.72 611.211 1330.46 609.239 1337.2 607.266C1344.48 604.587 1351.75 601.907 1359.03 599.227C1362.39 597.996 1365.62 596.277 1368.88 594.811C1371.95 593.429 1375.01 592.063 1378.08 590.664C1387.47 585.642 1396.89 580.771 1405.98 575.192C1414.49 569.731 1422.7 563.848 1430.57 557.511C1438.4 550.887 1445.8 543.808 1452.79 536.307C1460.36 527.796 1467.21 518.829 1474.13 509.812C1479.93 501.266 1485.61 492.788 1490.52 483.686C1493.17 478.327 1495.56 472.899 1497.72 467.32C1500.63 458.91 1503.01 450.381 1505.02 441.701C1507.58 429.447 1509.23 417.076 1510.81 404.671C1511.22 399.345 1511.61 394.035 1512.01 388.692C1512.47 382.608 1512.2 376.388 1512.28 370.287C1512.03 364.691 1511.74 359.078 1511.49 353.482C1511.34 350.314 1510.75 347.094 1510.39 343.943C1510.04 340.858 1509.67 337.774 1509.31 334.689C1507.95 327.088 1506.65 319.503 1504.85 312.003C1503.87 307.94 1503.06 303.811 1501.85 299.816C1500.53 295.485 1499.2 291.136 1497.87 286.804C1494.38 277.602 1490.72 268.567 1486.86 259.533C1485.23 256.129 1483.61 252.69 1481.97 249.269C1480.37 245.948 1478.3 242.763 1476.39 239.577C1471.34 232.093 1466.14 224.812 1460.75 217.581C1455.35 210.368 1449.45 203.491 1443.69 196.563C1435.46 186.939 1427.19 177.383 1418.57 168.095C1410.53 159.466 1402.1 151.19 1393.47 143.167C1390.79 141.01 1388.13 138.869 1385.43 136.712C1382.72 134.521 1379.65 132.683 1376.78 130.678C1377.46 131.15 1378.13 131.622 1378.82 132.093C1375.79 130.29 1372.77 128.487 1369.74 126.683C1365.81 124.694 1361.88 122.739 1357.84 120.986C1353.1 118.947 1348.35 117.076 1343.52 115.222C1332.9 111.615 1322.27 108.261 1311.39 105.496C1297.52 102.783 1283.6 100.912 1269.5 99.5467C1254.77 98.4342 1240.11 97.9791 1225.34 98.3331C1219.32 98.6871 1213.3 99.159 1207.3 99.7658C1205.33 106.895 1199.04 112.289 1191.32 113.385C1186.74 114.025 1182.15 114.446 1177.57 115.104C1171.87 116.402 1166.3 117.918 1160.69 119.52C1153.73 121.896 1146.85 124.306 1139.99 126.986C1133.64 129.464 1127.43 132.228 1121.23 134.992C1113.78 138.616 1106.46 142.223 1099.35 146.504C1089.01 153.179 1079.54 160.848 1070 168.584C1057.54 179.456 1045.25 190.344 1033.98 202.479C1027.5 209.727 1021.43 217.227 1015.79 225.116C1008.71 235.481 1002.3 246.218 996.502 257.342C990.248 269.832 984.77 282.608 979.948 295.721C974.554 311.059 970.036 326.616 966.446 342.476C964.541 351.696 963.142 360.983 962.248 370.354C961.743 377.602 961.591 384.816 961.759 392.063C962.299 403.811 963.58 415.441 965.502 427.037C967.727 439.156 970.525 451.123 974.032 462.938C977.352 473.371 981.162 483.568 985.579 493.58C990.113 503.204 995.17 512.508 1000.75 521.559C1005.57 529.06 1010.75 536.291 1016.38 543.218C1023.17 551.19 1030.4 558.758 1038.06 565.921C1048.56 575.411 1059.5 584.698 1071.01 592.923C1076.39 596.53 1081.9 599.884 1087.63 602.935C1094.07 606.053 1100.66 608.716 1107.36 611.211C1118.36 615.037 1129.56 618.138 1140.93 620.683C1148.71 622.284 1156.46 623.548 1164.32 624.678C1171.78 625.739 1179.2 626.869 1186.68 627.577C1198.97 628.554 1211.25 628.874 1223.57 628.504L1223.5 628.47Z" fill="black"/>
<path d="M1207.87 346.067C1206.51 323.936 1207.49 301.704 1208.31 279.54C1209.07 258.994 1209.78 238.482 1209.49 217.936C1209.49 217.7 1209.48 217.447 1209.46 217.211C1209.37 216.503 1209.34 215.795 1209.34 215.07C1209.34 214.194 1209.48 213.301 1209.56 212.424C1210.54 203.272 1219.44 196.446 1228.36 196.648C1237.24 196.85 1245.89 204.081 1246.41 213.25C1247.61 234.875 1246.34 256.702 1245.53 278.327C1244.83 297.929 1244.07 317.548 1244.57 337.184C1244.66 338.836 1244.74 340.504 1244.84 342.156C1245.45 352.235 1238.71 361.472 1228.32 362.567C1227.73 362.635 1227.13 362.652 1226.54 362.652C1217.4 362.652 1208.5 355.522 1207.92 346.033L1207.87 346.067Z" fill="black"/>
<path d="M1283.14 336.038C1281.3 313.789 1279.6 291.507 1278.27 269.225C1277.56 257.359 1276.84 245.51 1276.43 233.644C1276.23 227.745 1276.08 221.863 1276.08 215.947C1276.08 212.272 1276.21 208.412 1277.22 204.856C1278.86 199.159 1283.09 194.811 1288.52 192.603C1297.87 188.777 1308.97 194.103 1312.47 203.373C1313.67 206.508 1313.92 209.727 1313.42 212.778C1313.42 212.845 1313.4 212.896 1313.38 212.963C1313.37 213.081 1313.33 213.199 1313.32 213.317C1313.3 213.418 1313.28 213.519 1313.27 213.637C1312.96 221.256 1313.32 228.891 1313.6 236.526C1315.25 268.433 1317.43 300.322 1320.06 332.161C1320.88 342.24 1313.77 351.51 1303.54 352.572C1302.92 352.64 1302.29 352.673 1301.68 352.673C1292.46 352.673 1283.92 345.51 1283.12 336.055L1283.14 336.038Z" fill="black"/>
<path d="M1233.85 531.335C1206.44 528.436 1179.71 519.217 1156.43 504.486C1145.64 497.659 1135.88 489.215 1127.57 479.524C1118.73 469.208 1111.16 457.932 1104.35 446.201C1098.47 436.072 1093.78 425.335 1090.45 414.127C1087.6 404.57 1087.41 392.165 1096.57 385.844C1097.26 385.372 1097.95 384.9 1098.71 384.496C1107.68 379.827 1119.02 383.08 1123.86 392.064C1125.65 395.367 1126.29 399.075 1125.91 402.665C1126.2 403.946 1126.52 405.21 1126.88 406.474C1128.14 410.199 1129.61 413.806 1131.21 417.396C1134.16 423.447 1137.39 429.296 1140.9 435.01C1145.32 441.853 1150.04 448.393 1155.16 454.73C1157.59 457.511 1160.08 460.157 1162.73 462.719C1166.24 465.77 1169.86 468.618 1173.64 471.366C1177.83 474.147 1182.13 476.692 1186.55 479.085C1191.96 481.782 1197.46 484.175 1203.09 486.35C1209.63 488.625 1216.24 490.53 1222.98 492.097C1228.1 493.109 1233.21 493.951 1238.39 494.524C1242.57 494.794 1246.71 494.878 1250.89 494.828C1255.51 494.575 1260.06 494.12 1264.63 493.429C1270.3 492.35 1275.86 490.951 1281.39 489.333C1285.45 488.018 1289.43 486.586 1293.37 484.917C1296.51 483.366 1299.54 481.698 1302.54 479.911C1309.98 475.091 1317.11 469.832 1323.97 464.202C1335.11 454.696 1346.17 444.904 1356.2 434.234C1360.45 429.481 1364.44 424.543 1368.19 419.385C1375.77 408.109 1382.21 396.21 1388.47 384.159C1392.43 376.035 1396.22 367.894 1399.37 359.432C1399.66 358.556 1399.93 357.68 1400.21 356.786C1403.32 347.162 1413.25 341.212 1423.19 344.061C1432.68 346.774 1439.02 357.41 1435.92 367.017C1432.68 377.08 1428.5 386.721 1423.88 396.227C1419.68 404.806 1415.32 413.419 1410.46 421.644C1406.84 427.779 1403.22 433.847 1399.19 439.729C1391.7 450.668 1382.83 460.545 1373.31 469.731C1364.01 478.698 1354.23 487.26 1344.28 495.502C1333.8 504.199 1322.27 512.205 1309.98 518.088C1299.14 523.296 1287.24 526.616 1275.52 529.111C1266.42 531.049 1256.98 532.043 1247.59 532.043C1242.97 532.043 1238.39 531.807 1233.83 531.319L1233.85 531.335Z" fill="black"/>
<path d="M1247 1314.58C1230.99 1314.35 1214.72 1314.09 1198.92 1311.28C1193.21 1310.25 1187.33 1308.51 1182.22 1305.7C1177.41 1303.04 1173.7 1299.72 1170.32 1295.44C1167.32 1291.63 1165.7 1286.65 1164.01 1282.17C1163.05 1279.61 1162.21 1277 1161.35 1274.38C1154.29 1253.38 1148.67 1231.94 1142.23 1210.74C1130.5 1172.97 1119.54 1135.01 1109.34 1096.78C1099.2 1058.71 1089.52 1020.4 1083.6 981.395C1080.64 961.843 1077.62 942.224 1075.92 922.504C1075.04 912.256 1073.81 901.958 1073.29 891.659C1072.73 880.67 1072.17 869.664 1071.62 858.658C1071.04 846.927 1071.23 835.094 1071.04 823.347C1070.91 813.689 1071.33 804.014 1071.53 794.356C1071.97 775.057 1073 755.742 1074.97 736.561C1075.87 727.998 1076.78 719.453 1077.64 710.891C1078.51 702.126 1079.96 693.379 1081.13 684.631C1083 670.591 1085.47 656.685 1086.87 642.595C1086.89 642.19 1086.92 641.786 1086.92 641.381C1086.62 639.527 1086.62 637.623 1086.96 635.701C1088 629.734 1091.39 625.184 1096.57 622.116C1104.22 617.565 1115.48 620.211 1120.4 627.577C1124.31 633.443 1124.36 639.78 1123.76 646.556C1123.3 651.595 1122.75 656.601 1122.05 661.607C1120.77 670.945 1119.36 680.282 1117.94 689.62C1115.13 708.329 1113.2 727.156 1111.3 745.983C1110.64 755.91 1109.97 765.838 1109.34 775.782C1108.79 784.075 1108.75 792.384 1108.57 800.71C1108.4 808.986 1108.1 817.228 1108.21 825.487C1108.35 835.887 1108.5 846.269 1108.65 856.652C1109.19 867.237 1109.71 877.805 1110.25 888.39C1110.83 899.446 1112.16 910.503 1113.1 921.526C1114.03 932.313 1115.67 943.084 1116.98 953.837C1118.14 963.428 1119.85 972.967 1121.31 982.507C1124.23 998.401 1127.04 1014.3 1130.84 1030.02C1135.19 1048.17 1139.75 1066.26 1144.47 1084.31C1153.24 1117.87 1162.76 1151.21 1172.88 1184.38C1172.64 1183.6 1172.41 1182.84 1172.19 1182.07C1175.56 1192.97 1179 1203.86 1182.18 1214.8C1185.39 1225.88 1188.47 1236.95 1191.83 1247.97C1191.59 1247.2 1191.37 1246.44 1191.13 1245.66C1194.03 1254.92 1196.82 1264.27 1200.46 1273.27C1200.56 1273.32 1200.66 1273.36 1200.78 1273.41C1202.33 1273.89 1203.86 1274.32 1205.45 1274.7C1209.26 1275.36 1213.05 1275.87 1216.89 1276.24C1239.31 1277.82 1261.77 1277.62 1284.22 1277.35C1296.12 1276.71 1307.99 1276.09 1319.86 1274.89C1333.16 1273.56 1346.34 1271.82 1359.61 1270.03C1383.09 1266.85 1406.5 1262.94 1429.87 1259.05C1447.62 1255.81 1465.4 1252.62 1482.93 1248.31C1501.16 1243.83 1519.19 1238.85 1537.15 1233.46C1545.66 1230.85 1554.17 1228.2 1562.68 1225.59C1564.88 1224.9 1567.07 1224.22 1569.28 1223.57C1572.43 1222.34 1575.82 1221.58 1578.99 1220.62C1579.63 1220.43 1580.25 1220.23 1580.89 1220.04C1577.67 1210.62 1573.84 1201.37 1570.22 1192.1C1566.29 1182.09 1562.57 1172.01 1558.87 1161.89C1552.2 1143.64 1546.18 1125.08 1540.69 1106.42C1529.32 1067.93 1520.39 1028.72 1512.11 989.468C1503.63 949.253 1496.33 908.801 1488.85 868.4C1481.67 829.431 1474.12 790.513 1467.54 751.444C1466.9 747.634 1466.24 743.808 1465.62 739.999C1465.76 740.791 1465.89 741.567 1466.03 742.342C1461.05 713.217 1456.99 683.923 1453.38 654.595C1449.88 626.245 1445.73 597.794 1444.38 569.225C1444.14 564.287 1445.17 559.652 1448.33 555.725C1451.39 551.848 1455.98 549.32 1460.9 548.814C1470.53 547.803 1480.83 555.202 1481.31 565.332C1482.63 593.176 1486.64 620.936 1490.05 648.578C1493.62 677.484 1497.73 706.272 1502.39 735.027C1503.28 740.252 1504.16 745.477 1505.03 750.702C1504.95 750.18 1504.85 749.657 1504.76 749.134C1511.47 788.322 1519.06 827.375 1526.26 866.512C1533.49 905.902 1540.77 945.292 1549.01 984.496C1553.28 1004.69 1557.93 1024.81 1562.75 1044.89C1567.56 1064.88 1572.93 1084.63 1578.75 1104.33C1585.41 1125.07 1592.2 1145.75 1600.02 1166.06C1604.36 1177.32 1608.79 1188.51 1613.05 1199.78C1616.75 1209.54 1620.98 1219.89 1620.02 1230.51C1619.49 1236.21 1617.79 1241.84 1613.58 1245.93C1609.9 1249.49 1605.86 1251.26 1601.1 1252.74C1597.58 1253.8 1594.04 1254.81 1590.52 1255.86C1588.04 1256.6 1585.51 1257.53 1582.95 1258.22C1581.46 1258.81 1579.9 1259.3 1578.31 1259.62C1577.08 1259.99 1575.83 1260.33 1574.62 1260.7C1565.28 1263.58 1555.96 1266.51 1546.6 1269.34C1527.98 1274.97 1509.25 1280.48 1490.27 1284.77C1449.76 1293.88 1408.81 1300.21 1367.76 1306.34C1358.12 1307.79 1348.43 1309 1338.77 1310.33C1334.39 1310.92 1329.95 1311.21 1325.54 1311.67C1320.99 1312.14 1316.42 1312.76 1311.83 1313.01C1301.43 1313.59 1291.01 1314.4 1280.6 1314.53C1273.6 1314.62 1266.62 1314.7 1259.64 1314.7C1255.45 1314.7 1251.26 1314.67 1247.07 1314.62L1247 1314.58Z" fill="black"/>
<path d="M520.388 1094.39C519.882 1089.59 521.298 1084.67 524.316 1080.89C527.535 1076.88 531.918 1074.79 536.908 1073.98C551.152 1071.72 565.38 1069.28 579.624 1066.88C578.832 1067.02 578.056 1067.14 577.281 1067.27C617.671 1060.38 658.044 1053.4 698.551 1047.15C718.46 1044.08 738.486 1041.89 758.512 1039.71C778.016 1037.61 797.587 1036.29 817.159 1035.31C829.228 1034.69 841.298 1034.25 853.351 1033.81C861.156 1033.41 868.978 1033.12 876.732 1032.09C877.828 1031.89 878.906 1031.64 879.968 1031.35C880.491 1031.17 881.014 1031 881.536 1030.81C881.317 1030.92 881.115 1031 880.896 1031.1L881.064 1031.05C881.233 1030.97 881.384 1030.88 881.553 1030.8C887.386 1021.9 891.988 1012.05 896.842 1002.6C911.171 974.367 925.382 946.051 939.559 917.701C954.443 887.935 969.952 858.49 985.343 828.977C985.494 828.69 985.629 828.404 985.781 828.117C985.68 828.302 985.595 828.488 985.494 828.656C985.494 828.64 985.511 828.606 985.528 828.589C985.511 828.64 985.478 828.673 985.461 828.724C985.309 829.044 985.14 829.347 984.989 829.668C985.208 829.213 985.444 828.774 985.68 828.319L985.899 827.881C985.832 827.999 985.781 828.117 985.714 828.235C985.899 827.881 986.068 827.527 986.253 827.173C986.135 827.392 986.034 827.628 985.916 827.847C986.135 827.426 986.354 826.988 986.573 826.55C986.725 826.263 986.86 825.976 987.012 825.69C986.944 825.808 986.877 825.926 986.826 826.061C987.399 824.915 987.989 823.785 988.562 822.656C988.428 822.943 988.276 823.229 988.141 823.499C989.22 821.409 990.282 819.319 991.361 817.229C990.99 817.937 990.619 818.661 990.248 819.369C991.158 817.6 992.069 815.83 992.996 814.043C993.164 813.706 993.333 813.386 993.502 813.049C993.502 813.049 993.502 813.049 993.502 813.032C993.839 812.273 994.21 811.549 994.631 810.858C995.187 809.779 995.744 808.683 996.317 807.605C995.946 808.329 995.575 809.037 995.204 809.762C996.131 807.959 997.042 806.172 997.969 804.368C997.598 805.076 997.227 805.801 996.873 806.526C998.491 803.357 1000.11 800.222 1001.73 797.07C1001.36 797.778 1000.99 798.503 1000.62 799.211C1001.41 797.677 1002.2 796.143 1002.98 794.609C1003.36 793.868 1003.73 793.126 1004.12 792.385C1004.04 792.536 1003.95 792.688 1003.89 792.857C1017.42 766.175 1030.54 739.309 1043.25 712.24C1050.45 696.935 1057.76 681.766 1065.33 666.63C1069.09 659.113 1073.3 651.663 1077.91 644.618C1081.77 638.719 1086.52 633.982 1093.4 631.943C1096.18 631.117 1099.16 631.117 1102.01 631.724C1111.69 633.325 1118.35 643.185 1116.9 652.776C1116.07 658.237 1112.95 662.669 1108.67 665.417C1105.15 670.996 1102.04 676.844 1098.81 682.592C1094.31 691.609 1089.72 700.61 1085.42 709.745C1080.15 720.987 1074.85 732.246 1069.49 743.455C1058.79 765.771 1048.09 788.07 1036.72 810.049C1037.08 809.324 1037.47 808.616 1037.82 807.891C1037.43 808.633 1037.06 809.374 1036.67 810.116C1036.74 809.981 1036.81 809.846 1036.88 809.711C1036.81 809.863 1036.72 809.998 1036.66 810.15C1036.37 810.723 1036.07 811.296 1035.78 811.869C1035.86 811.7 1035.95 811.515 1036.05 811.346C1035.78 811.869 1035.53 812.375 1035.26 812.897C1035.29 812.846 1035.31 812.796 1035.34 812.745C1033.77 815.796 1032.22 818.83 1030.65 821.864C1031.03 821.139 1031.4 820.431 1031.75 819.706C1030.84 821.493 1029.93 823.263 1029 825.049C1029.37 824.342 1029.74 823.617 1030.12 822.892C1029 825.049 1028.01 827.308 1026.78 829.398C1025.92 831.201 1024.94 832.971 1024.01 834.792C1024.37 834.067 1024.75 833.359 1025.11 832.634C1023.76 835.263 1022.41 837.893 1021.06 840.522C1021.16 840.303 1021.28 840.101 1021.38 839.882C1020.69 841.213 1020.02 842.562 1019.33 843.893C1019.7 843.185 1020.07 842.461 1020.44 841.753C1019.68 843.219 1018.94 844.685 1018.18 846.169C1018.55 845.444 1018.92 844.736 1019.28 844.011C1018.92 844.702 1018.57 845.393 1018.21 846.084C1008.02 866.175 997.429 886.115 986.995 906.105C970.491 938.904 954.106 971.754 937.485 1004.5C933.288 1012.76 929.057 1020.99 924.809 1029.23C923.173 1032.4 921.521 1035.58 919.785 1038.72C915.773 1046.05 911.997 1053.87 905.423 1059.26C892.257 1070.04 874.355 1069.87 858.189 1070.71C849.963 1071.13 841.719 1071.37 833.476 1071.65C817.58 1072.45 801.717 1073.32 785.855 1074.55C769.925 1075.78 754.062 1077.57 738.166 1079.29C730.31 1080.15 722.506 1081.4 714.667 1082.44C708.093 1083.32 701.518 1084.24 694.961 1085.26C679.486 1087.65 664.045 1090.16 648.604 1092.72C612.681 1098.84 576.775 1105.19 540.785 1110.94C539.959 1111.08 539.15 1111.13 538.324 1111.13C529.288 1111.13 521.298 1103.27 520.371 1094.41L520.388 1094.39Z" fill="black"/>
<path d="M518.348 1119.69C519.022 1120.16 519.697 1120.63 520.371 1121.1C519.494 1120.55 518.601 1119.99 517.708 1119.47C505.351 1118.09 493.046 1116.33 480.723 1114.67C472.379 1113.54 464.017 1112.29 455.808 1110.42C453.65 1109.93 451.493 1109.42 449.318 1108.95C444.059 1107.74 439.17 1105.7 434.399 1103.22C427.218 1099.46 421.756 1090.48 423.307 1082.29C424.049 1078.31 424.943 1074.69 427.522 1071.45C430.303 1067.96 434.248 1065.58 438.411 1064.15C446.84 1061.22 456.196 1062.4 464.742 1064.1C473.845 1065.92 483.032 1067.73 491.984 1070.24C504.525 1073.76 517.101 1077.62 528.783 1083.35C529.76 1083.45 530.755 1083.55 531.733 1083.64C532.34 1083.69 532.946 1083.74 533.536 1083.79C538.526 1084.19 543.01 1085.84 546.533 1089.54C549.922 1093.07 551.793 1097.9 551.675 1102.8C551.624 1105.41 550.933 1107.99 549.787 1110.35C547.865 1118.78 540.128 1124.81 531.244 1124.81C526.254 1124.81 522.259 1122.44 518.331 1119.69H518.348Z" fill="black"/>
<path d="M1292.94 1305.06C1295.28 1307.6 1296.83 1310.64 1297.54 1313.84C1291.86 1314.16 1286.21 1314.43 1280.53 1314.51C1273.53 1314.6 1266.55 1314.67 1259.58 1314.67C1256.19 1314.67 1252.82 1314.67 1249.43 1314.62C1253.94 1311.35 1258.53 1308.13 1263.25 1305.18C1265.68 1303.66 1268.16 1302.09 1270.84 1301.06C1274.58 1299.65 1277.87 1299.11 1281.88 1299.46C1285.96 1299.82 1290.15 1302.09 1292.92 1305.08L1292.94 1305.06Z" fill="black"/>
<path d="M1806.69 1171.21C1796.59 1170.98 1788.32 1162.33 1788.55 1152.22C1789.43 1116.45 1789.65 1080.67 1790.46 1044.89C1791.3 1007.23 1792.9 969.529 1792.28 931.858C1792.01 926.127 1791.59 920.447 1790.85 914.75C1790.61 913.486 1790.31 912.239 1789.99 911.009C1789.89 910.705 1789.77 910.385 1789.65 910.082C1789.51 909.829 1789.38 909.559 1789.24 909.306C1783.51 900.761 1777.04 892.687 1770.89 884.445C1764.92 876.473 1758.88 868.585 1752.58 860.865C1744.4 851.241 1735.62 842.224 1726.86 833.156C1716.24 822.183 1705.5 811.312 1694.84 800.356C1684.63 789.839 1674.48 779.237 1664.05 768.939C1653.06 758.084 1641.88 747.466 1630.57 736.948C1606.28 715.037 1581.85 693.243 1557.58 671.332C1533.64 649.707 1510.02 627.712 1486.34 605.8C1476.76 597.187 1467.37 588.052 1456.96 580.45C1449.32 578.04 1443.74 570.456 1443.94 562.247C1444.18 551.966 1452.83 544.111 1462.94 544.111C1470.59 544.111 1477.29 549.151 1483.05 553.601C1487.42 556.988 1491.51 560.73 1495.71 564.337C1503.47 570.978 1510.9 578.023 1518.42 584.934C1532.78 598.148 1547.04 611.463 1561.35 624.678C1591.04 651.696 1621.06 678.344 1650.83 705.278C1665.06 718.138 1679.1 731.268 1692.59 744.92C1706.46 758.961 1720.18 773.152 1733.99 787.26C1746.95 800.491 1760.03 813.621 1772.56 827.24C1785.13 840.892 1796.07 856.011 1807.15 870.877C1814.36 880.552 1823.2 890.21 1826.11 902.177C1828.56 912.256 1829.3 922.74 1829.47 933.088C1829.55 938.212 1829.75 943.353 1829.7 948.46C1829.48 968.248 1828.98 988.019 1828.51 1007.79C1827.95 1032.14 1827.41 1056.5 1826.97 1080.86C1826.53 1104.92 1826.33 1128.99 1825.74 1153.04C1825.5 1163.02 1817.11 1171.18 1807.16 1171.18C1807.03 1171.18 1806.89 1171.18 1806.74 1171.18L1806.69 1171.21Z" fill="black"/>
<path d="M1773.82 1208.78C1763.67 1208.41 1753.79 1204.2 1748.06 1195.59C1741.84 1186.21 1743.02 1174.3 1748.99 1165.15C1754.54 1156.67 1764.35 1151.21 1774.01 1148.81C1781.54 1146.94 1790.07 1145.95 1797.44 1149.07C1800.27 1150.28 1802.65 1152.15 1804.47 1154.46C1805.31 1154.46 1806.15 1154.56 1807.01 1154.7C1811.4 1155.44 1815.63 1156.53 1819.49 1158.84C1823.95 1161.52 1827.76 1165.9 1829.62 1170.79C1831.44 1175.61 1831.44 1180.89 1829.77 1185.73C1827.85 1191.35 1824.21 1195.06 1819.71 1198.77C1815.51 1202.21 1809.83 1203.78 1804.77 1205.33C1802.43 1206.02 1799.93 1206.37 1797.54 1206.83C1790.86 1208.08 1783.99 1208.85 1777.17 1208.85C1776.06 1208.85 1774.95 1208.83 1773.84 1208.78H1773.82Z" fill="black"/>
<path d="M931.332 1938.53C919.971 1936.09 910.682 1929.77 903.872 1920.41C897.685 1911.94 895.561 1900.07 896.977 1889.84C897.77 1884.09 899.27 1878.68 901.394 1873.29C903.501 1867.98 906.771 1863.17 910.143 1858.61C915.857 1850.85 923.966 1844.57 932.074 1839.51C935.159 1837.59 938.311 1835.82 941.565 1834.15C943.722 1833.04 945.897 1831.77 948.189 1830.86C948.83 1830.58 949.487 1830.29 950.128 1829.99C953.668 1828.37 957.174 1826.84 960.832 1825.49C969.969 1822.1 979.476 1819.4 989.102 1817.84C997.311 1816.5 1005.49 1815.95 1013.81 1816.23C1018.11 1816.37 1022.41 1816.86 1026.69 1817.28C1027.4 1817.33 1028.13 1817.4 1028.83 1817.45C1032.12 1806.56 1034.9 1795.49 1037.75 1784.48C1041.27 1770.88 1044.51 1757.24 1047.56 1743.52C1047.87 1742.12 1048.17 1740.74 1048.47 1739.36C1048.47 1739.41 1048.46 1739.46 1048.44 1739.51C1048.46 1739.43 1048.47 1739.34 1048.49 1739.26C1048.52 1739.09 1048.56 1738.92 1048.61 1738.75C1048.57 1738.9 1048.54 1739.07 1048.51 1739.22C1048.83 1737.71 1049.16 1736.19 1049.5 1734.67C1049.43 1734.99 1049.37 1735.33 1049.3 1735.65C1049.42 1735.11 1049.53 1734.57 1049.65 1734.02C1049.7 1733.78 1049.75 1733.54 1049.8 1733.31C1049.77 1733.49 1049.72 1733.68 1049.69 1733.88C1057.68 1696.92 1065.33 1659.87 1072.7 1622.79C1076.67 1602.75 1080.91 1582.73 1084.26 1562.58C1085.9 1552.67 1087.6 1542.8 1089.13 1532.89C1091.59 1516.98 1093.53 1500.83 1097.68 1485.25C1099.01 1480.28 1101.27 1475.01 1104.52 1470.98C1106.41 1468.65 1108.2 1466.66 1110.44 1464.69C1112.68 1462.7 1115.16 1461.08 1117.64 1459.42C1122.78 1455.96 1128.16 1452.84 1133.43 1449.61C1142.11 1444.28 1150.83 1439.04 1159.54 1433.8C1176.98 1423.35 1194.49 1413.05 1212.04 1402.78C1246.49 1382.64 1281.32 1363.23 1315.37 1342.39C1335.85 1329.85 1356.25 1317.16 1376.8 1304.69C1386 1299.09 1395.23 1293.45 1404.65 1288.17C1411.98 1284.06 1420.41 1278.04 1429.26 1279.62C1438.68 1281.31 1445.41 1288.86 1445.41 1298.54C1445.41 1307.28 1438.65 1314.63 1430.41 1316.32C1421.42 1321 1412.77 1326.43 1404.06 1331.57C1395.41 1336.64 1386.91 1341.97 1378.33 1347.16C1360.65 1357.88 1343.12 1368.89 1325.49 1379.68C1292.18 1400.05 1257.99 1418.91 1224.29 1438.62C1196.34 1454.95 1168.5 1471.45 1140.98 1488.52C1138.86 1489.89 1136.75 1491.31 1134.7 1492.79C1134.68 1492.81 1134.65 1492.82 1134.63 1492.86C1134.55 1492.96 1134.46 1493.08 1134.36 1493.18C1134.24 1493.36 1134.14 1493.56 1134.02 1493.75C1133.96 1493.9 1133.89 1494.05 1133.84 1494.2C1132.99 1496.95 1132.3 1499.73 1131.66 1502.53C1127.42 1524.66 1124.99 1547.13 1120.79 1569.26C1117 1589.43 1113.24 1609.59 1109.16 1629.72C1101.39 1668.18 1093.55 1706.68 1085.19 1745.04C1085.02 1745.81 1084.85 1746.59 1084.68 1747.36C1084.75 1747.03 1084.83 1746.71 1084.9 1746.37C1084.58 1747.89 1084.24 1749.39 1083.92 1750.9C1079.68 1770.42 1074.82 1789.79 1069.75 1809.1C1068.26 1814.7 1066.85 1820.38 1065.2 1825.96C1066.26 1827.36 1067.13 1828.93 1067.77 1830.58C1069.54 1835.26 1069.11 1839.93 1067.44 1844.55C1064.02 1854.04 1058.55 1862.45 1052.77 1870.64C1047.21 1878.53 1040.68 1885.78 1034.08 1892.79C1027.22 1900.09 1019.48 1906.44 1011.45 1912.41C1007.27 1915.53 1003.03 1918.53 998.71 1921.41C987.854 1928.64 976.29 1934.18 963.698 1937.59C957.849 1939.17 951.662 1939.98 945.492 1939.98C940.722 1939.98 935.951 1939.49 931.383 1938.52L931.332 1938.53ZM946.841 1902.78C948.139 1902.68 949.42 1902.55 950.701 1902.38C952.943 1901.96 955.118 1901.45 957.309 1900.86C960.091 1899.92 962.805 1898.87 965.502 1897.71C968.806 1896.06 972.025 1894.32 975.178 1892.43C983.084 1887.28 990.653 1881.7 998.002 1875.83C1002.23 1872.04 1006.25 1868.15 1010.16 1864.05C1013.11 1860.7 1015.99 1857.31 1018.77 1853.82C1018.35 1853.77 1017.93 1853.74 1017.51 1853.7C1013.44 1853.42 1009.4 1853.28 1005.34 1853.35C1001.64 1853.6 998.019 1854.02 994.361 1854.58C988.815 1855.69 983.438 1857.17 978.027 1858.74C975.212 1859.79 972.396 1860.82 969.615 1861.86C970.138 1861.62 970.643 1861.39 971.149 1861.15C964.372 1864.25 957.68 1867.42 951.274 1871.25C949.1 1872.71 946.993 1874.25 944.936 1875.87C943.638 1877.01 942.391 1878.19 941.177 1879.41C940.199 1880.55 939.255 1881.72 938.345 1882.91C937.519 1884.19 936.76 1885.47 936.035 1886.81C935.648 1887.63 935.294 1888.47 934.957 1889.32C934.535 1890.61 934.181 1891.95 933.878 1893.28C933.878 1893.33 933.878 1893.38 933.878 1893.43C933.962 1893.04 934.046 1892.67 934.131 1892.28C934.029 1892.99 933.928 1893.7 933.827 1894.42C933.793 1895.01 933.76 1895.6 933.726 1896.19C933.726 1895.91 933.709 1895.62 933.692 1895.33C933.692 1895.37 933.692 1895.38 933.692 1895.42C933.692 1895.38 933.692 1895.33 933.692 1895.3C933.692 1895 933.675 1894.69 933.659 1894.39C933.726 1894.12 933.777 1893.83 933.844 1893.56C933.844 1893.5 933.844 1893.43 933.861 1893.36C933.793 1893.7 933.726 1894.02 933.659 1894.36C933.659 1894.17 933.659 1894 933.642 1893.82C933.642 1894.04 933.642 1894.26 933.642 1894.46C933.642 1894.51 933.625 1894.56 933.608 1894.61C933.608 1894.56 933.625 1894.53 933.642 1894.47C933.642 1895.5 933.726 1896.51 933.844 1897.53C933.928 1897.83 933.996 1898.12 934.08 1898.42C934.147 1898.6 934.232 1898.79 934.299 1898.97C934.4 1899.16 934.501 1899.33 934.586 1899.51C934.704 1899.67 934.805 1899.82 934.923 1899.97C935.075 1900.12 935.226 1900.29 935.378 1900.46C935.58 1900.63 935.799 1900.8 936.002 1900.98C936.238 1901.13 936.474 1901.28 936.727 1901.44C936.996 1901.55 937.266 1901.67 937.536 1901.79C938.092 1901.96 938.665 1902.13 939.221 1902.29C939.963 1902.43 940.705 1902.55 941.463 1902.65C943.25 1902.75 945.02 1902.78 946.824 1902.75L946.841 1902.78Z" fill="black"/>
<path d="M1627.89 1805.18C1617.91 1804.77 1607.47 1798.77 1601.79 1790.58C1595.71 1781.83 1592.39 1771.91 1590.85 1761.39C1589.74 1753.7 1589.54 1746.02 1589.35 1738.25C1589.13 1729.84 1589.79 1721.34 1590.25 1712.95C1590.82 1702.01 1591.49 1691.05 1591.32 1680.1C1591.21 1678.02 1591.05 1675.95 1590.82 1673.9C1555.67 1662.86 1520.14 1653.05 1485.5 1640.4C1467.44 1633.81 1449.44 1627 1431.89 1619.13C1421.81 1614.62 1411.78 1610.03 1401.77 1605.36C1393.61 1601.57 1385.46 1597.56 1377.12 1594.12C1370.83 1591.54 1364.56 1588.98 1358.26 1586.38C1352.58 1584.04 1346.64 1582.2 1340.86 1580.13C1341.03 1580.2 1341.2 1580.25 1341.35 1580.32C1340.93 1580.17 1340.51 1580.01 1340.07 1579.86C1340.54 1580.03 1341.03 1580.2 1341.5 1580.38C1341.75 1580.47 1341.99 1580.57 1342.24 1580.65C1332.7 1577.59 1323.18 1574.57 1313.62 1571.57C1304.11 1568.59 1294.91 1565.01 1287.88 1557.73C1281.78 1551.38 1280.11 1542.41 1278.3 1534.13C1276.3 1524.78 1274.83 1515.31 1273.21 1505.89C1271.56 1496.19 1269.91 1486.49 1268.44 1476.78C1262.34 1436.22 1257.94 1395.47 1252.98 1354.76C1251.99 1346.56 1250.73 1338.38 1249.51 1330.19C1248.74 1325.77 1248.01 1321.31 1246.95 1316.94C1246.95 1316.89 1246.92 1316.86 1246.92 1316.81C1246.92 1316.77 1246.92 1316.74 1246.92 1316.71V1316.67C1244.98 1306.75 1250.56 1296.72 1260.7 1294.31C1270.63 1291.96 1280.61 1298.27 1283.06 1308.09V1308.13C1283.07 1308.21 1283.11 1308.31 1283.12 1308.4C1283.18 1308.58 1283.23 1308.78 1283.26 1308.97C1284.81 1315.39 1285.86 1322.02 1286.8 1328.56C1287.95 1336.46 1289.14 1344.37 1290.12 1352.29C1292.06 1368.2 1293.83 1384.13 1295.72 1400.04C1299.54 1432.36 1303.94 1464.57 1309.29 1496.7C1309.24 1496.45 1309.2 1496.19 1309.15 1495.94C1311.24 1508.3 1313.03 1520.87 1316.18 1533.02C1317.06 1533.43 1317.95 1533.81 1318.86 1534.17C1330.86 1538.31 1343.14 1541.6 1355.09 1545.88C1354.33 1545.61 1353.59 1545.34 1352.83 1545.07C1359.52 1547.47 1366.2 1549.86 1372.87 1552.25C1379.38 1554.58 1385.73 1557.51 1392.12 1560.14C1398.44 1562.75 1404.63 1565.82 1410.87 1568.65C1417.11 1571.48 1423.31 1574.45 1429.53 1577.35C1452.17 1587.92 1475.33 1597.19 1498.8 1605.78C1529.85 1616.5 1561.27 1625.91 1592.66 1635.58C1602.65 1638.67 1614.79 1640.96 1621.01 1650.23C1621.11 1650.37 1621.2 1650.52 1621.3 1650.67C1629.42 1645.29 1640.85 1647.26 1646.58 1655.27C1651.91 1662.69 1656.7 1670.46 1661.1 1678.45C1665.58 1686.59 1670.08 1694.88 1673.32 1703.61C1678 1716.25 1681.9 1729.08 1682.54 1742.65C1683.04 1753.43 1681.22 1764.71 1676.23 1774.37C1671.5 1783.54 1663.79 1790.56 1655.53 1796.58C1647.91 1802.11 1639 1805.21 1629.66 1805.21C1629.08 1805.21 1628.51 1805.21 1627.94 1805.18H1627.89ZM1631.21 1767.84C1631.31 1767.81 1631.39 1767.78 1631.5 1767.73C1631.95 1767.49 1632.41 1767.25 1632.86 1767.02C1634.41 1765.99 1635.89 1764.89 1637.36 1763.75C1638.79 1762.48 1640.18 1761.19 1641.53 1759.82C1641.9 1759.38 1642.25 1758.93 1642.6 1758.47C1642.96 1757.92 1643.3 1757.34 1643.6 1756.75C1643.62 1756.7 1643.63 1756.64 1643.67 1756.59C1643.51 1756.89 1643.36 1757.18 1643.19 1757.48C1643.45 1756.87 1643.72 1756.25 1643.97 1755.64C1644.26 1754.75 1644.51 1753.85 1644.73 1752.94C1644.98 1751.61 1645.18 1750.26 1645.33 1748.93C1645.42 1747.58 1645.47 1746.25 1645.47 1744.9C1645.32 1742.46 1645.07 1740.07 1644.73 1737.66C1644.09 1734.56 1643.33 1731.51 1642.55 1728.44C1640.6 1722.42 1638.42 1716.57 1635.95 1710.72C1633.48 1705.72 1630.91 1700.8 1628.21 1695.94C1628.19 1696.56 1628.16 1697.17 1628.14 1697.8C1627.84 1706.43 1627.3 1715.05 1626.84 1723.68C1626.45 1731.32 1626.47 1738.92 1626.66 1746.56C1626.88 1749.93 1627.2 1753.25 1627.65 1756.59C1628.09 1758.88 1628.61 1761.12 1629.22 1763.39C1629.56 1764.36 1629.91 1765.32 1630.32 1766.26C1630.57 1766.73 1630.82 1767.2 1631.07 1767.68C1631.12 1767.74 1631.17 1767.81 1631.21 1767.88V1767.84Z" fill="black"/>
<path d="M428.398 1829.68C416.649 1828.49 404.798 1826.55 393.335 1823.72C383.086 1821.17 372.904 1818.78 362.858 1815.61C357.75 1814.01 352.659 1812.41 347.568 1810.81C334.302 1806.63 321.355 1801 308.813 1795.03C284.944 1783.65 263.653 1768.21 244.638 1749.94C224.983 1731.07 208.85 1707.92 197.64 1683.1C191.892 1670.36 187.29 1657.29 183.126 1643.96C178.895 1630.31 175.49 1616.64 173.13 1602.53C169.893 1583.33 169.135 1563.98 169.051 1544.57C169.051 1539.34 169.017 1534.12 169 1528.89C168.966 1524.39 169.489 1519.82 169.759 1515.34C170.298 1505.51 170.821 1495.79 172.001 1486.01C173.164 1476.27 173.956 1466.41 175.743 1456.74C177.985 1444.7 180.008 1432.62 182.654 1420.67C188.807 1392.99 197.219 1365.84 208.631 1339.86C219.791 1314.43 233.614 1290.11 250.437 1268.01C263.872 1250.37 279.903 1234.66 296.963 1220.55C304.093 1214.67 311.157 1208.75 318.574 1203.26C332.953 1192.65 348.411 1183.96 364.729 1176.74C371.606 1173.71 378.737 1171.18 385.75 1168.47C388.076 1167.57 390.554 1166.95 392.931 1166.23C397.263 1164.88 401.612 1163.53 405.978 1162.18C420.341 1157.75 435.023 1154.16 449.874 1151.78C468.569 1148.8 487.348 1148.46 506.177 1150.47C513.915 1151.29 521.686 1152.88 529.238 1154.75C534.464 1156.05 539.588 1157.48 544.578 1159.47C547.309 1160.38 549.77 1161.94 551.793 1163.97C555.181 1162.11 559.126 1161.34 563.087 1162.15C572.021 1163.97 580.872 1166.12 589.536 1168.96C591.778 1169.7 594.02 1170.47 596.262 1171.27C599.178 1172.12 602.027 1173.36 604.859 1174.45C609.596 1176.29 614.232 1178.34 618.851 1180.48C635.506 1188.2 652.076 1196.45 667.939 1205.68C684.29 1215.21 699.428 1226.57 714.043 1238.55C721.241 1244.45 728.018 1250.89 734.845 1257.21C741.74 1263.56 748.6 1269.92 755.04 1276.73C761.581 1283.67 768.121 1290.75 773.886 1298.37C780.275 1306.83 786.125 1315.54 791.401 1324.75C796.391 1333.44 800.605 1342.53 804.651 1351.7C808.427 1360.24 812 1368.96 814.95 1377.82C818.355 1388.05 821.575 1398.28 824.154 1408.77C826.801 1419.52 828.79 1430.32 830.307 1441.28C833.089 1461.34 832.482 1481.68 830.897 1501.81C830.139 1511.36 829.38 1521 827.964 1530.51C827.088 1536.33 826.228 1542.14 825.351 1547.96C824.576 1553.11 823.278 1558.2 822.233 1563.29C820.092 1573.57 816.821 1583.49 813.18 1593.31C809.792 1602.5 805.443 1611.26 801.144 1620.03C796.981 1628.54 792.598 1636.97 788.063 1645.29C785.872 1649.3 783.849 1653.45 781.455 1657.33C777.983 1662.94 774.527 1668.53 771.054 1674.13C761.125 1690.19 748.786 1704.74 735.637 1718.21C728.608 1725.42 721.444 1732.6 713.656 1738.95C709.896 1742.02 706.255 1745.24 702.294 1748.02C697.776 1751.17 693.275 1754.28 688.69 1757.33C680.464 1762.79 672.187 1768.2 663.623 1773.15C654.167 1778.61 644.659 1783.87 634.646 1788.29C625.627 1792.28 616.609 1796.23 607.472 1799.94C603.46 1801.57 599.499 1803.41 595.419 1804.81C589.064 1806.98 582.726 1809.17 576.388 1811.36C566.728 1814.7 556.783 1817.14 546.938 1819.86C542.505 1821.09 537.869 1821.85 533.368 1822.82C528.783 1823.82 524.215 1824.88 519.579 1825.62C513.308 1826.62 507.037 1827.59 500.766 1828.57C490.264 1830.22 479.61 1830.83 468.99 1831.25C466.108 1831.37 463.225 1831.42 460.36 1831.42C449.689 1831.42 439.035 1830.7 428.415 1829.62L428.398 1829.68ZM471.738 1794.12C481.094 1793.61 490.399 1792.72 499.654 1791.27C504.913 1790.45 510.206 1789.62 515.466 1788.79C523.018 1787.14 530.603 1785.49 538.155 1783.84C542.151 1782.96 546.078 1781.65 549.989 1780.55C553.529 1779.57 557.052 1778.6 560.592 1777.6C570.235 1774.27 579.911 1771.11 589.368 1767.27C599.566 1763.12 609.664 1758.81 619.727 1754.38C624.666 1751.97 629.589 1749.56 634.528 1747.15C636.922 1745.97 639.197 1744.43 641.507 1743.1C644.204 1741.55 646.884 1740 649.581 1738.45C657.201 1733.58 664.787 1728.69 672.322 1723.7C678.93 1719.32 685.049 1714.5 691.185 1709.49C695.129 1705.87 699.057 1702.21 702.985 1698.57C707.233 1694.63 711.144 1690.24 715.173 1686.06C722.388 1677.96 729.147 1669.51 735.435 1660.66C740.391 1653.38 744.909 1645.78 749.544 1638.3C753.186 1632.41 756.237 1626.11 759.558 1620.04C763.704 1611.9 767.784 1603.76 771.813 1595.57C775.488 1588.02 778.471 1580.22 781.388 1572.36C782.686 1567.84 783.984 1563.34 785.282 1558.83C787.001 1550.45 788.653 1542.14 789.934 1533.68C791.317 1524.39 792.345 1515.12 793.373 1505.8C793.913 1499.04 794.503 1492.28 794.755 1485.49C795.059 1477.65 795.059 1469.9 794.924 1462.08C794.604 1457.9 794.267 1453.7 793.946 1449.51C793.609 1445.28 792.817 1441.04 792.193 1436.85C791.03 1430.93 789.867 1425.02 788.434 1419.15C786.917 1412.96 785.181 1406.86 783.411 1400.74C778.842 1387.04 773.734 1373.71 767.936 1360.48C764.294 1352.89 760.468 1345.49 756.271 1338.2C751.129 1330.17 745.634 1322.57 739.666 1315.14C733.985 1308.67 728.17 1302.35 722.135 1296.21C716.117 1290.08 709.593 1284.4 703.271 1278.56C703.895 1279.14 704.519 1279.71 705.126 1280.27C692.584 1268.8 679.503 1258.17 665.697 1248.29C654.841 1241.03 643.648 1234.45 632.084 1228.37C616.592 1220.48 601.016 1212.61 584.698 1206.54C584.479 1206.46 584.26 1206.37 584.041 1206.29C583.518 1206.12 582.996 1205.95 582.49 1205.77C583.012 1205.95 583.518 1206.14 584.041 1206.32C576.101 1203.59 568.06 1201.27 559.867 1199.4C559.075 1199.23 558.283 1199.06 557.491 1198.91C553.512 1198.1 549.955 1196.45 547.157 1193.67C544.511 1195.01 541.51 1195.77 538.375 1195.77C534.969 1195.77 531.901 1194.42 528.817 1193.19C525.024 1192.03 521.214 1191.05 517.371 1190.09C510.796 1188.83 504.289 1187.65 497.597 1186.92C489.843 1186.33 482.122 1186.2 474.351 1186.45C467.81 1186.86 461.354 1187.6 454.898 1188.59C442.272 1190.85 429.915 1193.97 417.576 1197.46C411.423 1199.36 405.27 1201.27 399.134 1203.17C395.426 1204.32 391.801 1206.02 388.194 1207.42C383.339 1209.31 378.568 1211.24 373.815 1213.37C366.785 1216.72 359.992 1220.45 353.35 1224.51C344.652 1230.12 336.257 1236.17 328.284 1242.78C323.884 1246.42 319.484 1250.06 315.068 1253.7C307.279 1260.7 299.795 1267.93 292.647 1275.58C285.348 1283.67 278.572 1292.11 272.284 1301.03C265.12 1311.62 258.647 1322.55 252.713 1333.88C245.262 1348.56 238.637 1363.51 233.024 1378.98C226.972 1396.5 222.134 1414.28 218.054 1432.36C215.998 1443.62 213.857 1454.85 211.767 1466.07C210.856 1471.05 210.553 1476.22 209.946 1481.24C209.255 1487.09 208.564 1492.96 207.839 1498.82C207.266 1509.07 206.693 1519.32 206.12 1529.57C205.867 1534.25 206.153 1539.04 206.17 1543.72C206.204 1548.98 206.238 1554.21 206.238 1559.47C206.878 1573.27 208.142 1586.97 210.384 1600.61C212.39 1611.4 215.155 1621.93 218.341 1632.43C222.184 1644.67 226.449 1656.69 231.641 1668.42C234.912 1675.31 238.519 1681.97 242.464 1688.47C247.2 1695.86 252.291 1702.92 257.821 1709.73C263.485 1716.32 269.486 1722.54 275.824 1728.49C282.263 1734.27 288.956 1739.68 295.968 1744.74C303.503 1749.89 311.258 1754.61 319.332 1758.89C331.048 1764.76 343.101 1769.83 355.407 1774.32C363.92 1777.3 372.618 1779.83 381.232 1782.52C384.553 1783.57 388.059 1784.24 391.447 1785.07C395.729 1786.15 400.011 1787.19 404.293 1788.26C415.975 1790.61 427.707 1792.44 439.575 1793.56C450.296 1794.36 461 1794.54 471.738 1794.17V1794.12Z" fill="black"/>
<path d="M340.1 1775.66C332.11 1769.29 330.93 1757.56 337.134 1749.57C339.038 1747.13 340.876 1744.62 342.68 1742.09C348.04 1734.13 352.625 1725.74 357.059 1717.26C368.1 1695.49 378.265 1673.34 387.064 1650.55C388.531 1646.39 389.998 1642.22 391.313 1638.03C393.133 1632.16 394.701 1626.31 396.235 1620.36C396.235 1620.45 396.201 1620.51 396.184 1620.6C396.875 1617.48 397.567 1614.36 398.241 1611.24C401.326 1596.93 403.146 1582.46 404.765 1567.91C405.793 1555.42 406.922 1542.91 407.175 1530.39C407.462 1516.44 407.546 1502.53 407.344 1488.57C406.484 1468.65 405.22 1448.8 403.433 1428.93C402.489 1418.56 401.157 1408.24 399.893 1397.91C398.814 1388.93 397.111 1380.01 395.628 1371.08C393.909 1363.09 392.189 1355.13 390.453 1347.15C389.711 1343.69 388.548 1340.29 387.604 1336.9C386.424 1332.67 385.261 1328.42 384.081 1324.19C380.591 1313.4 376.647 1302.83 372.028 1292.5C367.965 1283.87 363.464 1275.56 358.559 1267.39C355.457 1262.74 352.356 1258.1 349.254 1253.45C346.607 1249.47 343.404 1245.76 340.438 1241.97C337.117 1238.18 333.779 1234.45 330.256 1230.86C329.683 1230.37 329.11 1229.9 328.52 1229.45C328.705 1229.58 328.907 1229.72 329.11 1229.85C323.445 1225.6 320.175 1219.06 321.271 1211.82C322.501 1203.76 329.413 1196.73 337.69 1196.14C338.499 1196.09 339.308 1196.04 340.134 1196.04C344.517 1196.04 348.563 1197.74 351.698 1200.49C354.227 1202.45 356.519 1204.6 358.795 1206.9C362.74 1210.87 366.6 1215.09 370.022 1219.52C373.039 1223.45 376.057 1227.37 379.074 1231.3C382.412 1235.62 385.21 1240.45 388.228 1244.99C401.983 1265.62 411.71 1288.84 419.245 1312.36C420.947 1317.62 422.279 1322.99 423.746 1328.3C424.892 1332.41 426.156 1336.53 427.05 1340.71C429.292 1350.99 431.567 1361.25 433.287 1371.64C435.04 1382.32 436.675 1392.94 438.007 1403.69C440.502 1424.16 442.069 1444.63 443.435 1465.16C445.272 1492.77 444.868 1520.45 443.435 1548.04C442.71 1561.81 441.227 1575.53 439.693 1589.22C438.192 1602.43 435.259 1615.47 432.393 1628.42C432.427 1628.27 432.461 1628.12 432.495 1627.95C426.578 1655.15 415.469 1681.23 403.669 1706.34C392.863 1729.35 381.856 1752.54 366.178 1772.71C362.622 1777.28 357.143 1779.64 351.648 1779.64C347.551 1779.64 343.438 1778.34 340.1 1775.66Z" fill="black"/>
<path d="M626.824 1775.28C616.592 1758.99 608.012 1741.75 599.886 1724.34C591.492 1706.31 583.468 1688.1 576.657 1669.39C562.817 1631.32 550.765 1592.23 547.073 1551.68C546.045 1540.34 545.252 1529.06 544.645 1517.7C544.173 1508.61 544.055 1499.41 544.409 1490.34C544.645 1484.46 544.881 1478.56 545.117 1472.7C545.32 1467.57 545.994 1462.45 546.432 1457.34C547.309 1447.5 548.641 1437.72 549.905 1427.91C551.102 1418.59 552.922 1409.27 554.793 1400.09C557.035 1389.1 559.429 1378.21 562.093 1367.3C566.728 1348.26 572.679 1329.31 580.4 1311.28C583.872 1303.15 587.412 1295.16 591.188 1287.19C594.762 1279.71 598.588 1272.38 602.381 1264.99C602.027 1265.7 601.64 1266.43 601.286 1267.13C607.691 1254.66 614.872 1242.29 623.183 1230.98C627.229 1225.49 631.325 1220.03 635.506 1214.63C638.186 1211.19 641.018 1207.82 644.895 1205.7C650.66 1202.51 657.622 1202.93 663.253 1206.14C672.052 1211.11 674.749 1223.09 669.641 1231.6C668.647 1233.27 667.433 1234.71 666.068 1235.92C661.331 1241.53 657.049 1247.58 652.717 1253.5C646.126 1263.34 640.175 1273.42 634.427 1283.8C632.168 1288.2 629.909 1292.62 627.633 1297.02C627.802 1296.7 627.954 1296.36 628.122 1296.04C627.886 1296.51 627.633 1297 627.397 1297.47C627.279 1297.71 627.144 1297.96 627.026 1298.2C627.111 1298.03 627.195 1297.88 627.279 1297.71C623.402 1305.43 619.93 1313.37 616.541 1321.31C612.85 1329.94 609.613 1338.68 606.376 1347.48C604.202 1354.78 601.977 1362.08 599.802 1369.39C597.628 1376.74 596.161 1384.36 594.34 1391.83C592.958 1398.67 591.576 1405.5 590.194 1412.34C588.778 1419.27 587.85 1426.35 586.687 1433.32C584.513 1446.4 583.451 1459.69 582.304 1472.88C582.052 1479.83 581.748 1486.75 581.462 1493.68C581.192 1500.41 581.529 1507.2 581.613 1513.94C582.018 1521.95 582.389 1529.95 583.114 1537.94C583.973 1547.41 585.136 1556.8 586.35 1566.24C587.968 1575.51 589.789 1584.68 591.846 1593.9C593.868 1603.09 596.734 1612.15 599.431 1621.17C603.831 1634.81 608.399 1648.36 613.507 1661.76C618.497 1674.82 623.925 1687.68 629.673 1700.41C638.017 1718.32 646.513 1736.24 656.729 1753.18C656.796 1753.3 656.881 1753.42 656.948 1753.53C659.595 1757.75 661.011 1762.21 660.252 1767.2C659.51 1772.09 656.779 1776.56 652.784 1779.46C649.632 1781.73 645.654 1782.89 641.692 1782.89C635.86 1782.89 630.044 1780.4 626.841 1775.29L626.824 1775.28Z" fill="black"/>
</g>
<defs>
<clipPath id="clip0_157_192">
<rect width="1662" height="1879" fill="white" transform="translate(169 61)"/>
</clipPath>
</defs>
</svg>
