<svg width="2000" height="2000" viewBox="0 0 2000 2000" fill="none" xmlns="http://www.w3.org/2000/svg">
<g clip-path="url(#clip0_157_193)">
<path d="M1183.8 759.778C1172.79 758.942 1161.79 757.307 1150.89 755.563C1139.55 753.728 1128.4 751.512 1117.17 749.168C1107.58 747.17 1097.9 744.953 1088.44 742.355C1078.32 739.558 1068.07 737.087 1058.1 733.78C1040.39 727.894 1022.82 722.044 1005.75 714.414C992.543 708.491 980.009 701.442 968.202 693.067C958.702 686.363 950.092 677.77 942.462 669.049C937.794 663.69 933.071 658.403 928.621 652.862C920.828 643.124 914.162 632.532 907.931 621.741C902.245 611.876 896.632 602.047 891.292 591.964C888.059 585.823 884.844 579.719 881.901 573.415C875.016 558.681 869.204 543.547 864.372 528.05C861.284 518.149 858.468 508.084 856.615 497.874C855.344 490.861 854.09 483.885 852.837 476.872C851.965 472.003 851.565 467.079 851.039 462.174C850.149 453.853 849.313 445.66 848.986 437.321C847.587 402.712 855.217 368.793 862.846 335.255C863.754 331.313 865.026 327.498 866.206 323.646C868.223 317.051 870.094 310.384 872.401 303.898C879.703 283.314 888.822 263.511 899.884 244.708C902.972 239.457 906.078 234.207 909.166 228.956C912 224.142 915.524 219.636 918.666 215.04C921.319 211.17 923.825 207.028 926.75 203.358C931.146 197.817 935.542 192.312 939.919 186.771C942.59 183.41 945.478 180.303 948.384 177.142C952.344 172.873 956.122 168.331 960.3 164.28C967.766 157.067 975.087 149.764 982.879 142.878C987.384 138.899 991.907 134.884 996.412 130.906C1000.92 126.927 1005.8 123.366 1010.53 119.642C1029 104.999 1048.82 92.2085 1070.31 82.398C1091.67 72.6238 1114.67 65.7383 1138.03 63.1403C1147.25 62.1229 1156.64 62.4499 1165.8 63.9034C1168.94 60.5605 1173.19 58.2896 1177.99 57.9807C1199.37 56.5818 1220.75 56.7453 1242.13 58.0534C1262.91 59.3433 1283.44 62.6135 1303.96 66.1016C1324.2 69.5535 1344.32 73.5504 1364.29 78.3103C1384.89 83.1974 1404.83 91.173 1423.32 101.474C1432.31 106.47 1441.05 111.739 1449.61 117.462C1451.97 119.042 1454.42 120.532 1456.71 122.203C1458.4 123.13 1460 124.238 1461.43 125.528C1461.58 125.637 1461.71 125.728 1461.85 125.837C1462.23 126.073 1462.63 126.327 1463.01 126.582C1463.79 127.127 1464.58 127.672 1465.34 128.217C1465.39 128.253 1465.45 128.289 1465.5 128.326C1467.34 129.598 1469.13 130.851 1470.93 132.177C1475.86 135.829 1480.74 139.481 1485.57 143.241C1493.91 149.691 1501.87 156.576 1509.79 163.516C1513.91 167.132 1517.82 171.002 1521.81 174.762C1525.19 177.942 1528.57 181.339 1531.6 184.827C1539.12 193.457 1546.43 202.105 1552.77 211.643C1559.21 221.308 1564.61 231.336 1569.79 241.71C1572.2 246.561 1574.11 251.648 1576.23 256.626C1578.12 261.059 1579.76 265.764 1581.23 270.36C1584.74 281.37 1588.04 292.361 1590.6 303.607C1595.53 325.208 1599.29 347.01 1600.99 369.12C1602.66 390.594 1603.01 412.34 1600.9 433.796C1598.74 455.743 1594.62 477.453 1588.51 498.637C1585.59 508.792 1582.25 518.875 1578.31 528.668C1574.13 539.06 1569.89 549.524 1564.65 559.444C1561.88 564.658 1559.14 569.836 1556.4 575.05C1553.78 579.991 1550.71 584.715 1547.82 589.493C1545.52 593.326 1543.07 596.96 1540.56 600.648C1537.47 605.153 1534.53 609.786 1531.19 614.128C1527.52 618.906 1523.85 623.684 1520.18 628.463C1516.62 633.113 1512.48 637.383 1508.66 641.816C1491.7 661.437 1471.82 678.405 1450.08 692.485C1442.5 697.409 1434.66 701.914 1426.65 706.057C1421.67 708.618 1416.78 711.416 1411.7 713.741C1401.23 718.501 1390.88 723.461 1380.22 727.749C1374.42 730.074 1368.63 732.418 1362.85 734.743C1357.62 736.832 1352.12 738.431 1346.78 740.284C1336.26 743.9 1325.56 746.825 1314.88 749.877C1310.37 751.167 1305.69 751.966 1301.11 752.984C1296.04 754.11 1291.01 755.363 1285.89 756.127C1279.22 757.144 1272.57 758.143 1265.91 759.142C1255.08 760.777 1244.13 761.341 1233.21 761.777C1230.28 761.886 1227.36 761.94 1224.44 761.94C1210.85 761.94 1197.37 760.814 1183.8 759.778ZM1204.11 721.263C1214.52 722.062 1224.98 722.044 1235.41 721.699C1245.31 721.19 1255.13 720.318 1264.94 718.846C1270.45 718.011 1275.99 717.175 1281.51 716.339C1289.32 714.595 1297.13 712.851 1304.96 711.125C1308.52 710.326 1312.08 709.072 1315.59 708.073C1319.17 707.038 1322.76 706.002 1326.36 704.966C1333.73 702.441 1341.13 699.898 1348.5 697.354C1352.64 695.937 1356.66 694.066 1360.71 692.449C1364.8 690.814 1368.85 689.161 1372.92 687.544C1372.61 687.689 1372.3 687.834 1371.97 687.98C1379.22 684.728 1386.63 681.676 1393.68 678.042C1405.1 672.156 1416.44 666.342 1427.39 659.584C1435.77 654.115 1443.85 648.283 1451.59 641.961C1460.09 634.658 1468.1 626.882 1475.76 618.725C1480.09 613.71 1484.41 608.732 1488.73 603.718C1493 598.777 1496.76 593.29 1500.72 588.112C1505.77 580.718 1510.8 573.36 1515.44 565.693C1520.4 557.445 1524.92 549.034 1529.44 540.531C1531.93 535.154 1534.4 529.776 1536.89 524.417C1539.25 519.311 1541.14 513.934 1543.23 508.702C1545.43 502.325 1547.66 495.984 1549.53 489.498C1551.75 481.759 1553.67 474.001 1555.53 466.189C1556.91 458.977 1558.27 451.782 1559.34 444.515C1560.34 437.848 1561.03 431.162 1561.7 424.458C1561.92 419.389 1562.14 414.321 1562.34 409.252C1562.57 403.947 1562.3 398.569 1562.27 393.283C1561.99 386.633 1561.74 379.966 1561.21 373.334C1560.56 364.85 1559.58 356.439 1558.54 348.009C1557 339.179 1555.4 330.404 1553.62 321.611C1551.77 312.382 1549.37 303.335 1546.9 294.269C1545.15 288.819 1543.43 283.387 1541.45 278.009C1539.2 271.886 1536.71 265.927 1534.15 259.932C1532.38 256.389 1530.62 252.847 1528.84 249.304C1527.12 245.834 1524.97 242.491 1522.99 239.13C1520.94 236.042 1518.89 232.971 1516.84 229.883C1514.71 226.667 1512.15 223.688 1509.77 220.636C1505.65 215.912 1501.52 211.261 1497.13 206.774C1493.04 202.559 1488.75 198.544 1484.48 194.51C1477.13 188.061 1469.77 181.648 1462.05 175.652C1457.69 172.255 1453.33 168.876 1448.88 165.606C1447.88 164.879 1446.9 164.134 1445.92 163.389C1444.27 162.499 1442.7 161.391 1441.32 160.119C1440.49 159.556 1439.65 158.956 1438.82 158.375C1438.49 158.157 1438.18 157.921 1437.85 157.685C1437.22 157.285 1436.6 156.849 1435.97 156.413C1435.73 156.249 1435.47 156.068 1435.24 155.886C1434.77 155.577 1434.29 155.25 1433.8 154.905C1434.53 155.414 1435.26 155.922 1435.98 156.431C1425.12 149.164 1414.24 142.206 1402.83 135.829C1393.91 131.323 1384.92 127.09 1375.66 123.384C1363.41 119.333 1351.03 116.172 1338.46 113.374C1308.56 107.197 1278.37 101.438 1247.94 98.549C1230.1 97.2591 1212.27 96.6959 1194.37 97.1683C1190.81 103.418 1184.04 107.778 1176.53 107.379C1171.52 107.124 1166.71 105.18 1161.84 103.872C1159.28 103.382 1156.74 103.018 1154.16 102.746C1151.7 102.637 1149.27 102.619 1146.8 102.655C1142.42 102.946 1138.1 103.436 1133.76 104.108C1126.24 105.544 1118.84 107.36 1111.5 109.504C1103.38 112.102 1095.43 115.063 1087.6 118.461C1077.86 123.003 1068.51 128.144 1059.37 133.812C1051.62 138.845 1044.08 144.132 1036.83 149.854C1032.36 153.397 1027.87 156.94 1023.39 160.482C1014.99 167.895 1006.57 175.216 998.537 183.01C994.559 186.862 990.418 190.586 986.658 194.656C982.298 199.379 977.938 204.085 973.579 208.808C968.311 215.44 963.043 222.071 957.775 228.702C955.468 232.081 953.143 235.46 950.836 238.839C948.421 242.364 945.714 245.852 943.534 249.54C937.885 259.115 932.018 268.58 926.859 278.427C920.592 290.908 915.07 303.68 910.256 316.797C907.241 325.59 904.734 334.601 902.009 343.485C900.938 347.046 900.32 350.843 899.503 354.477C898.54 358.691 897.577 362.906 896.614 367.121C893.944 381.692 891.038 396.226 889.53 410.96C888.912 418.935 888.713 426.838 888.894 434.832C889.439 446.314 890.82 457.705 892.073 469.132C893.072 474.637 894.071 480.142 895.052 485.629C896.814 495.512 899.303 505.213 902.136 514.824C906.46 528.595 911.6 542.021 917.522 555.174C926.841 575.032 937.83 594.198 949.292 612.857C953.416 619.197 957.848 625.265 962.535 631.188C969.128 638.764 975.65 646.303 982.916 653.28C986.767 656.695 990.726 659.929 994.904 662.945C1000.43 666.578 1006.08 669.885 1011.91 672.973C1023.55 678.714 1035.48 683.638 1047.64 688.143C1059.95 692.213 1072.16 696.301 1084.66 699.752C1097.75 703.35 1110.91 706.583 1124.09 709.763C1133.77 711.779 1143.42 713.796 1153.19 715.358C1164.36 717.157 1175.54 718.538 1186.74 719.9C1192.54 720.336 1198.33 720.809 1204.13 721.245L1204.11 721.263Z" fill="black"/>
<path d="M1057.54 434.596C1052.9 413.721 1049.89 392.429 1047.24 371.209C1045.84 360.145 1045.04 349.044 1044.4 337.926C1043.79 327.207 1043.53 316.324 1044 305.605C1044.48 294.705 1053.41 285.803 1064.48 286.057C1075.21 286.293 1084.49 295.631 1084.02 306.532C1083.66 315.089 1083.93 323.682 1084.15 332.239C1084.93 345.738 1086.07 359.127 1087.76 372.571C1089.27 384.562 1091.14 396.498 1093.14 408.434C1094.18 414.084 1095.25 419.716 1096.5 425.33C1098.86 435.958 1092.4 446.895 1081.64 449.439C1080.17 449.784 1078.66 449.965 1077.17 449.965C1068.16 449.965 1059.57 443.752 1057.54 434.596Z" fill="black"/>
<path d="M1160.8 433.688C1157.79 410.07 1155.25 386.361 1152.83 362.652C1151.54 350.189 1150.3 337.708 1149.25 325.227C1148.14 311.946 1146.85 298.666 1146.53 285.367C1146.25 274.448 1156.48 265.564 1167 265.801C1172.27 265.928 1177.37 268.18 1181 271.996C1184.78 275.956 1186.4 280.916 1186.54 286.294C1186.54 286.421 1186.54 286.548 1186.54 286.675C1187.69 311.056 1190.27 335.401 1192.74 359.654C1195.12 382.945 1197.62 406.254 1200.6 429.491C1202 440.319 1193.46 450.384 1182.82 451.492C1182.11 451.565 1181.42 451.601 1180.73 451.601C1170.61 451.601 1162.11 443.807 1160.8 433.688Z" fill="black"/>
<path d="M1113.03 630.77C1102.26 625.175 1091.78 618.598 1082.7 610.477C1073.25 602.029 1065.37 591.873 1058.72 581.154C1054.74 574.741 1050.83 568.165 1047.8 561.243C1044.69 554.175 1042.31 546.654 1043.48 538.878C1045.11 528.087 1055.5 520.475 1066.27 522.11C1076.16 523.618 1083.4 532.483 1083.28 542.239C1083.66 543.311 1084.08 544.365 1084.53 545.419C1087.05 550.542 1089.89 555.502 1092.87 560.371C1095.66 564.586 1098.57 568.691 1101.73 572.67C1104.08 575.323 1106.47 577.866 1109 580.355C1111.52 582.535 1114.14 584.552 1116.85 586.496C1121.8 589.766 1126.84 592.818 1132.07 595.616C1135.88 597.451 1139.73 599.104 1143.67 600.63C1147.4 601.884 1151.16 603.01 1154.96 603.991C1157.79 604.518 1160.6 604.954 1163.47 605.299C1164.84 605.39 1166.18 605.426 1167.56 605.408C1169.98 605.263 1172.36 605.027 1174.75 604.7C1177.93 604.1 1181.06 603.373 1184.16 602.52C1187.6 601.375 1190.96 600.121 1194.28 598.704C1198.91 596.452 1203.42 593.981 1207.81 591.292C1210.83 589.275 1213.74 587.186 1216.61 584.951C1219.71 582.281 1222.66 579.483 1225.49 576.522C1228.52 572.997 1231.37 569.364 1234.08 565.585C1238.19 559.299 1241.93 552.849 1245.4 546.2C1248.23 540.441 1250.79 534.573 1253.39 528.723C1255.01 525.035 1256.3 521.183 1257.64 517.404C1257.6 517.477 1257.59 517.568 1257.55 517.64C1261.2 505.759 1264.43 493.804 1267.29 481.687C1268.78 474.51 1270.12 467.334 1271.03 460.049C1272.37 449.221 1283.27 441.682 1293.83 443.28C1304.83 444.952 1311.94 455.271 1310.59 466.081C1308.16 485.72 1303.23 505.141 1297.44 524.017C1294.24 534.464 1290.19 544.474 1285.78 554.43C1276.55 575.268 1264.25 595.253 1247.61 610.986C1239.53 618.616 1230.18 624.739 1220.55 630.225C1209.54 636.475 1197.52 640.89 1185.15 643.469C1179.22 644.705 1173.25 645.268 1167.31 645.268C1148.47 645.268 1129.83 639.527 1113.05 630.788L1113.03 630.77Z" fill="black"/>
<path d="M1340.45 1370.61C1303.91 1370.57 1267.49 1368.99 1231.03 1366.4C1190.18 1363.47 1149.47 1358.97 1108.71 1354.97C1107.78 1354.9 1106.84 1354.84 1105.89 1354.73C1103.93 1354.62 1101.97 1354.37 1100.02 1354.21C1096.28 1353.88 1092.56 1353.57 1088.82 1353.24C1088.45 1353.21 1088.09 1353.17 1087.73 1353.12C1087.22 1353.08 1086.69 1353.04 1086.18 1353.01C1086.06 1353.01 1085.91 1353.01 1085.78 1352.97C1080.04 1352.48 1074.3 1352.04 1068.56 1351.59C1058.19 1350.75 1047.8 1349.97 1037.46 1348.72C1029.45 1347.74 1021.59 1346.59 1013.72 1344.74C1002.46 1342.07 990.999 1336.04 986.276 1324.88C981.299 1313.13 983.297 1299.58 983.987 1287.13C985.168 1265.89 986.621 1244.67 988.074 1223.45C990.944 1181.61 994.686 1139.85 997.774 1098.02C1001.15 1052.37 1004.48 1006.75 1008.8 961.167C1012.89 918.092 1018.25 875.143 1023.39 832.177C1025.68 813.065 1027.71 793.934 1029.65 774.767C1030.09 769.226 1030.56 763.685 1030.89 758.126C1031.27 751.585 1031.49 745.027 1032.12 738.505C1033.18 727.64 1044.57 720.174 1054.92 721.736C1060.21 722.535 1065 725.479 1068.13 729.784C1071.31 734.181 1072.21 739.25 1071.69 744.536C1071.76 743.81 1071.81 743.083 1071.87 742.338C1071.16 752.003 1070.76 761.668 1070 771.334C1069.18 781.925 1068.15 792.499 1066.96 803.036C1064.62 823.729 1062.21 844.422 1059.73 865.115C1054.56 908.209 1049.89 951.32 1045.78 994.505C1042.17 1037.91 1039.17 1081.35 1035.83 1124.77C1032.61 1166.57 1029.16 1208.36 1026.35 1250.2C1025.66 1260.32 1025 1270.43 1024.42 1280.54C1023.93 1288.95 1023.33 1297.36 1023.15 1305.79C1024.26 1306.1 1025.37 1306.39 1026.49 1306.66C1039.28 1309.11 1052.29 1310.13 1065.22 1311.26C1070.83 1311.71 1076.43 1312.15 1082.02 1312.6C1084.55 1312.8 1087.13 1312.89 1089.65 1313.18C1093.21 1313.22 1096.88 1313.86 1100.37 1314.16C1103.26 1314.42 1106.33 1314.46 1109.25 1314.91C1110.45 1315 1111.65 1315.13 1112.85 1315.24C1113.1 1315.25 1113.34 1315.29 1113.59 1315.31C1115.52 1315.44 1117.48 1315.67 1119.44 1315.87C1125.73 1316.49 1132.03 1317.09 1138.32 1317.73C1158.73 1319.71 1179.11 1321.9 1199.53 1323.88C1257.7 1328.59 1316.06 1332.17 1374.44 1330.3C1387.56 1329.66 1400.63 1328.68 1413.71 1327.54C1420.14 1326.97 1426.57 1326.41 1433.02 1325.83C1438.22 1325.37 1443.43 1325.06 1448.63 1324.48C1448.86 1324.19 1449.1 1323.9 1449.35 1323.59C1449.44 1323.45 1449.53 1323.32 1449.63 1323.18C1449.7 1323.01 1449.77 1322.85 1449.84 1322.68C1449.99 1322.19 1450.12 1321.69 1450.26 1321.2C1450.75 1318.52 1451.1 1315.85 1451.39 1313.15C1452.79 1292.45 1452.19 1271.71 1451.64 1250.98C1451.1 1230.39 1450.02 1209.79 1449.33 1189.21C1447.77 1144.15 1446.72 1099.08 1445.36 1054.02C1445.05 1043.1 1444.63 1032.2 1444.23 1021.32C1444.23 1021.48 1444.23 1021.63 1444.25 1021.77C1443.32 999.101 1442.38 976.41 1441.49 953.737C1441.52 954.591 1441.54 955.444 1441.58 956.298C1439.83 913.296 1437.42 870.329 1434.57 827.381C1431.86 786.958 1428.94 746.426 1424.34 706.148C1423.78 701.297 1423.16 696.465 1422.34 691.65C1420.53 680.895 1429.83 670.739 1440.14 669.649C1445.34 669.104 1450.62 670.63 1454.71 673.882C1459.07 677.371 1461.23 682.058 1462.16 687.454C1465.27 705.876 1466.5 724.661 1468.15 743.246C1469.99 764.012 1471.6 784.796 1473.11 805.58C1476.15 847.492 1478.83 889.496 1480.54 931.481C1481.16 946.361 1481.76 961.258 1482.34 976.137C1482.3 975.302 1482.29 974.43 1482.25 973.594C1484.03 1017.07 1485.57 1060.54 1486.74 1104.04C1487.93 1148.97 1489.53 1193.89 1491.2 1238.8C1491.99 1259.39 1492.73 1280.06 1492.04 1300.65C1491.66 1311.91 1491.24 1323.3 1488.17 1334.22C1485.76 1342.78 1480.18 1349.63 1474.06 1355.8C1468.15 1361.76 1460 1363.63 1451.95 1364.34C1434.53 1365.85 1417.13 1367.52 1399.69 1368.81C1380.34 1370.25 1361.07 1370.63 1341.71 1370.63C1341.31 1370.63 1340.91 1370.63 1340.49 1370.63L1340.45 1370.61Z" fill="black"/>
<path d="M1467.77 1233.43C1459.11 1226.52 1457.96 1213.97 1464.59 1205.3C1476.73 1189.43 1490.84 1175.04 1504.08 1160.08C1518.18 1144.12 1532.2 1128.05 1545.72 1111.58C1559.67 1094.52 1573.22 1077.2 1586.72 1059.78C1599.49 1043.32 1612.13 1026.7 1624.28 1009.77C1626.42 1006.79 1628.57 1003.81 1630.71 1000.83C1635.92 992.87 1641.16 985.003 1645.62 976.61C1647.08 973.612 1648.44 970.596 1649.64 967.489C1650.06 966.199 1650.42 964.91 1650.75 963.602C1650.89 962.802 1651.02 962.021 1651.11 961.222C1651.15 960.513 1651.16 959.786 1651.16 959.078C1651.07 958.369 1650.98 957.661 1650.89 956.952C1650.69 956.116 1650.49 955.263 1650.29 954.427C1649.88 953.228 1649.44 952.029 1648.93 950.866C1645.28 943.345 1640.79 936.223 1636.43 929.101C1622.86 907.536 1608.93 886.135 1593.96 865.496C1586.06 854.614 1578.21 843.677 1569.86 833.14C1561.07 822.057 1552.17 811.121 1543.17 800.202C1526.12 780.435 1508.81 760.887 1491.24 741.557C1482.32 731.746 1473.39 721.881 1464.14 712.361C1459.11 707.147 1454.06 701.988 1448.94 696.901C1446.76 694.739 1444.56 692.613 1442.49 690.36C1438.69 686.273 1437.13 681.476 1436.91 675.953C1436.47 665.053 1446.97 656.169 1457.38 656.405C1462.65 656.532 1467.75 658.785 1471.39 662.6C1471.77 663 1472.13 663.418 1472.46 663.836C1479.49 671.339 1487.01 678.424 1494.17 685.818C1500.87 692.74 1507.41 699.844 1513.89 706.984C1528.39 722.917 1542.99 738.777 1557.07 755.092C1586.03 788.629 1613.89 823.002 1638.76 859.701C1651.51 878.504 1663.97 897.471 1675.81 916.856C1678.99 922.034 1682.04 927.303 1684.66 932.807C1690.46 945.071 1692.51 958.097 1689.96 971.432C1686.37 990.181 1674.89 1006.42 1664.62 1022.08C1658.9 1030.79 1652.51 1039.14 1646.26 1047.48C1639.38 1056.67 1632.47 1065.83 1625.52 1074.95C1612.76 1091.65 1599.81 1108.2 1586.75 1124.68C1572.26 1142.93 1556.98 1160.63 1541.56 1178.09C1533.62 1187.06 1525.61 1195.97 1517.62 1204.9C1510.21 1213.17 1502.69 1221.4 1495.95 1230.21C1492.15 1235.17 1486.25 1237.7 1480.31 1237.7C1475.87 1237.7 1471.41 1236.28 1467.83 1233.43H1467.77Z" fill="black"/>
<path d="M1552.18 1309.02C1536.07 1300.41 1520.27 1291.16 1504.57 1281.79C1496.84 1277.16 1489.26 1272.27 1481.7 1267.36C1474.82 1262.88 1468.15 1258.03 1461.09 1253.83C1451.71 1248.27 1448.61 1235.7 1454.2 1226.38C1459.83 1217 1472.3 1213.91 1481.65 1219.47C1488.63 1223.62 1495.27 1228.3 1501.99 1232.83C1509.15 1237.64 1516.51 1242.27 1523.92 1246.71C1540.01 1256.32 1556.22 1265.82 1572.77 1274.68C1582.39 1279.83 1585.04 1293.13 1579.67 1302.14C1576.91 1306.73 1572.33 1310.09 1567.13 1311.33C1565.64 1311.67 1564.17 1311.86 1562.7 1311.86C1559.05 1311.86 1555.54 1310.82 1552.2 1309.04L1552.18 1309.02Z" fill="black"/>
<path d="M1577.67 1227.61C1550.8 1226.7 1523.88 1225.45 1496.98 1225.45C1486.08 1225.45 1477.2 1215.7 1477.44 1204.98C1477.71 1193.88 1487.01 1185.43 1497.91 1185.43C1524.79 1185.43 1551.71 1186.66 1578.6 1187.59C1589.49 1187.95 1598.38 1197.07 1598.14 1208.06C1597.91 1218.66 1588.93 1227.61 1578.31 1227.61C1578.11 1227.61 1577.89 1227.61 1577.69 1227.61H1577.67Z" fill="black"/>
<path d="M576.767 908.262C572.153 906.282 568.811 903.284 565.832 899.251C558.166 888.859 560.346 874.38 561.636 862.498C562.562 854.068 564.579 845.693 566.304 837.39C567.322 832.558 568.321 827.743 569.356 822.911C571.845 811.138 574.261 799.384 576.458 787.538C578.457 776.783 580.073 765.973 581.744 755.182C585.05 733.689 586.867 711.943 588.865 690.287C590.736 670.03 592.316 649.737 594.569 629.498C596.313 613.892 598.147 598.268 600.763 582.789C602.58 572.034 612.643 564.367 623.56 566.02C634.205 567.637 642.124 578.084 640.326 588.821C633.296 630.497 630.608 672.864 626.702 714.904C624.632 737.269 621.58 759.469 618.129 781.634C614.932 802.381 610.172 822.893 605.849 843.44C604.323 850.689 602.87 857.92 601.762 865.205C639.491 852.96 676.383 838.517 713.349 824.164C733.53 816.316 753.802 808.831 774.183 801.509C783.465 798.185 792.784 795.078 802.175 792.026C811.984 788.846 821.739 785.522 831.675 782.706C846.025 778.654 860.339 774.476 874.78 770.715C889.766 766.773 904.788 762.867 919.738 758.833C948.348 751.112 976.776 742.955 1005.17 734.471C1015.45 731.255 1025.75 728.076 1035.99 724.733C1045.78 721.554 1055.52 717.647 1065.58 715.449C1076.21 713.124 1087.13 719.555 1089.67 730.292C1092.16 740.775 1085.47 752.057 1074.83 754.401C1073.07 754.782 1071.34 755.273 1069.62 755.763C1051.54 761.649 1033.52 767.717 1015.3 773.168C994.759 779.29 974.196 785.267 953.579 791.154C934.106 796.713 914.434 801.709 894.852 806.832C875.434 811.919 856.143 817.388 836.815 822.838C825.753 826.417 814.691 830.032 803.61 833.611C793.692 836.827 783.919 840.552 774.074 844.076C753.929 851.307 733.984 859.101 714.039 866.84C694.821 874.307 675.657 881.937 656.239 888.823C645.994 892.456 635.749 896.035 625.467 899.524C620.799 901.122 616.131 902.612 611.462 904.12C605.141 906.173 598.638 908.589 592.08 909.643C590.064 909.952 588.066 910.152 586.104 910.152C582.925 910.152 579.801 909.643 576.713 908.317L576.767 908.262Z" fill="black"/>
<path d="M607.72 603.991C605.686 602.774 603.633 601.611 601.617 600.376C596.749 597.396 592.371 593.599 588.393 589.529C577.022 577.902 568.266 559.19 577.567 543.674C581.999 536.28 588.684 531.793 596.894 529.522C603.851 527.596 611.48 529.177 618.329 530.703C626.902 532.592 635.295 536.262 643.396 539.55C649.99 542.221 656.584 544.91 663.141 547.708C668.972 550.197 674.585 552.686 679.653 556.573C685.884 561.37 689.698 569.618 689.535 577.448C689.153 593.908 673.114 602.683 659.472 607.443C648.864 611.113 637.656 612.221 626.521 612.929C626.031 612.966 625.558 612.984 625.086 612.984C618.02 612.984 611.48 609.605 607.72 604.009V603.991Z" fill="black"/>
<path d="M727.245 555.011C727.245 555.011 727.245 555.156 727.245 555.229C726.682 568.546 726.246 581.863 725.901 595.216C693.713 597.378 661.597 600.466 629.5 603.555C587.594 607.588 545.633 611.203 503.763 615.618C492.573 616.799 481.366 617.98 470.176 619.215C469.704 611.984 469.122 604.736 468.378 597.505C467.76 591.473 467.07 585.442 466.307 579.41C484.181 577.411 502.037 575.54 519.93 573.742C562.526 569.49 605.159 565.657 647.774 561.587C669.426 559.516 691.079 557.591 712.768 556.028C717.6 555.683 722.431 555.338 727.281 555.011H727.245Z" fill="black"/>
<path d="M350.905 761.505C344.802 761.178 338.208 760.36 332.577 757.853C328.163 755.891 324.53 753.493 321.333 749.841C317.972 745.953 316.156 741.52 314.993 736.561C313.704 731.11 313.54 725.151 313.013 719.574C310.997 698.881 309.58 678.152 308.599 657.404C307.655 637.275 307.873 617.181 308.69 597.051C309.126 586.024 309.798 575.087 310.579 564.077C312.105 542.821 314.703 520.856 322.405 500.854C326.165 491.098 331.251 480.96 339.026 473.711C343.494 469.533 348.217 466.135 353.703 463.392C358.807 460.83 364.438 459.341 369.997 458.069C379.842 455.834 390.123 455.017 400.168 454.29C418.642 452.946 437.061 452.873 455.571 452.873C457.024 452.873 458.423 453.037 459.786 453.364C468.995 451.837 478.241 457.106 481.801 466.008C485.144 474.329 487.578 483.086 489.976 491.715C492.482 500.745 494.698 509.829 496.751 518.949C501.31 539.078 504.308 559.608 506.687 580.083C509.103 600.776 510.447 621.541 511.337 642.38C512.282 664.235 512.518 686.145 510.03 707.928C508.794 718.575 505.034 729.457 497.151 736.997C491.065 742.792 483.018 745.172 475.099 747.243C465.58 749.732 455.916 751.603 446.235 753.311C425.708 756.927 404.909 759.543 384.093 760.742C377.989 761.105 371.922 761.359 365.801 761.577C363.403 761.668 361.005 761.723 358.589 761.723C356.01 761.723 353.448 761.668 350.869 761.523L350.905 761.505ZM373.539 721.3C394.701 720.064 415.681 717.83 436.589 714.432C447.633 712.47 458.641 710.345 469.431 707.293C469.849 705.821 470.194 704.331 470.466 702.823C470.285 703.659 470.085 704.495 469.922 705.33C470.485 701.988 470.866 698.627 471.248 695.266C472.247 678.224 471.974 661.238 471.466 644.178C470.775 628.609 469.94 613.039 468.341 597.524C466.67 581.373 464.527 565.294 461.965 549.252C458.587 530.249 454.245 511.427 448.705 492.933C439.35 492.933 429.977 492.951 420.622 493.133C408.234 493.75 395.863 494.677 383.548 496.276C380.278 496.893 377.045 497.547 373.811 498.401C373.066 498.656 372.34 498.928 371.613 499.219C370.959 499.546 370.287 499.891 369.615 500.218C369.869 500.054 370.124 499.909 370.378 499.746C370.342 499.746 370.324 499.764 370.287 499.782C370.324 499.782 370.36 499.746 370.378 499.746C370.869 499.437 371.359 499.128 371.849 498.819C370.669 499.473 369.524 500.218 368.453 501.035C367.853 501.58 367.254 502.144 366.654 502.707C366.182 503.252 365.746 503.815 365.31 504.378C364.257 505.995 363.257 507.648 362.295 509.338C361.277 511.536 360.333 513.735 359.443 515.987C357.935 520.493 356.645 525.017 355.537 529.631C353.412 539.914 351.977 550.27 350.887 560.716C349.834 575.486 348.835 590.22 348.399 605.009C347.963 620.597 347.89 636.094 348.326 651.663C349.416 674.991 350.796 698.372 353.376 721.572C360.079 721.845 366.8 721.572 373.502 721.3H373.539Z" fill="black"/>
<path d="M736.618 710.399C728.298 709.908 720.088 709.254 712.059 706.874C702.25 703.949 692.041 696.991 688.39 686.999C687.373 684.201 686.483 681.657 686.011 678.714C685.557 675.844 685.284 673.246 685.175 670.357C685.084 667.868 685.012 665.379 685.012 662.89C684.975 657.367 684.975 651.844 685.012 646.303C685.066 636.039 685.23 625.792 685.411 615.527C685.793 594.689 686.174 573.814 687.319 552.994C688.481 531.829 689.934 510.664 691.333 489.498C692.06 478.434 692.768 467.352 693.513 456.288C693.803 451.746 694.203 447.24 694.566 442.717C694.93 438.048 695.438 433.288 697.309 428.964C698.599 425.984 700.615 423.332 703.14 421.279C703.285 417.028 704.811 412.867 707.482 409.524C710.951 405.164 715.656 402.984 721.033 402.076C742.249 398.515 763.774 395.899 785.282 395.227C795.381 394.936 805.572 395.517 815.254 398.624C820.213 400.204 824.463 402.821 828.314 406.272C832.837 410.306 835.725 415.229 837.887 420.843C841.229 429.618 843.246 439.065 845.389 448.167C849.84 467.08 853.4 486.174 856.106 505.413C859.104 526.833 861.956 548.271 863.772 569.817C865.589 591.346 865.861 613.002 865.661 634.585C865.552 646.321 865.044 658.094 863.736 669.758C862.501 680.695 859.086 693.594 849.731 700.461C845.298 703.713 840.866 705.711 835.489 706.838C832.728 707.419 829.895 707.692 827.097 708.019C817.088 709.109 806.934 709.418 796.889 709.763C786.281 710.162 775.672 710.38 765.064 710.526C759.706 710.599 754.311 710.744 748.916 710.744C744.829 710.744 740.741 710.671 736.672 710.417L736.618 710.399ZM797.761 669.739C796.907 669.776 796.053 669.794 795.2 669.848C804.591 669.449 814.055 669.14 823.41 668.123C823.882 665.216 824.263 662.309 824.572 659.384C825.953 636.347 825.807 613.347 824.99 590.292C823.065 558.336 819.032 526.506 813.982 494.912C814 495.058 814.037 495.203 814.055 495.348C810.767 476.2 806.989 457.033 801.503 438.375C801.249 437.593 800.994 436.812 800.722 436.031C798.415 435.613 796.126 435.323 793.801 435.159C794.655 435.232 795.508 435.323 796.344 435.395C791.094 435.068 785.881 435.195 780.631 435.359C765.573 436.413 750.55 438.011 735.619 440.228C735.383 441.536 735.019 442.808 734.529 444.007C734.493 444.279 734.456 444.57 734.42 444.861C732.985 463.646 731.822 482.449 730.569 501.253C729.37 519.239 727.953 537.243 727.227 555.265C726.373 575.395 725.81 595.561 725.392 615.709C725.011 633.368 724.466 651.154 725.065 668.831C725.065 668.886 725.065 668.958 725.065 669.013C725.283 669.067 725.483 669.122 725.701 669.176C727.754 669.54 729.806 669.83 731.877 670.067C753.766 671.356 775.836 670.557 797.725 669.758L797.761 669.739Z" fill="black"/>
<path d="M900.592 1942.98C887.241 1942.93 873.89 1940.73 860.993 1937.4C836.797 1931.14 811.948 1917.26 800.976 1893.82C790.931 1872.33 795.2 1846.31 809.732 1827.96C816.743 1819.08 827.497 1812.74 838.359 1809.85C847.042 1807.54 856.016 1806.4 864.971 1805.56C880.629 1804.11 896.069 1805.89 911.509 1808.29C924.316 1810.27 936.886 1814.05 949.201 1817.95C955.05 1819.8 960.845 1822.04 966.476 1824.49C969.582 1825.84 972.67 1827.27 975.722 1828.72C978.392 1813.26 980.917 1797.77 983.805 1782.32C987.566 1762.32 991.598 1742.39 995.522 1722.43C1004.2 1678.48 1013.23 1634.6 1022.33 1590.75C1030.18 1552.92 1037.94 1515.1 1044.75 1477.07C1051.71 1438.16 1057.68 1399.08 1062.95 1359.89C1064.4 1349.06 1075.12 1341.51 1085.76 1343.12C1096.68 1344.78 1103.98 1355.13 1102.53 1365.92C1096.54 1410.58 1089.36 1455.02 1081.41 1499.36C1077.54 1520.97 1072.98 1542.48 1068.64 1563.99C1064.6 1583.99 1060.44 1603.97 1056.28 1623.94C1047.4 1666.51 1038.9 1709.16 1030.49 1751.84C1026.37 1772.75 1022.24 1793.66 1018.65 1814.68C1017.03 1824.09 1015.47 1833.5 1013.87 1842.93C1017.45 1847.22 1019.26 1852.94 1018.43 1858.81C1016.25 1874.02 1011.54 1888.64 1003.13 1901.6C996.993 1911.04 988.801 1919.04 979.064 1924.72C972.725 1928.43 966.313 1931.63 959.428 1934.24C947.458 1938.8 934.415 1940.47 921.791 1942.11C916.069 1942.85 910.092 1943 904.28 1943C903.044 1943 901.827 1943 900.61 1943L900.592 1942.98ZM908.076 1902.94C914.27 1902.5 920.392 1901.92 926.55 1901.14C932.036 1900.14 937.485 1899.05 942.862 1897.56C945.387 1896.71 947.839 1895.78 950.291 1894.75C953.288 1893.24 956.195 1891.68 959.101 1890C960.718 1888.91 962.28 1887.77 963.824 1886.57C964.424 1886.03 965.005 1885.46 965.568 1884.9C966.839 1883.39 968.038 1881.87 969.219 1880.3C970.4 1878.47 971.508 1876.6 972.561 1874.69C972.979 1873.8 973.397 1872.89 973.778 1871.98C973.361 1871.82 972.943 1871.64 972.525 1871.46C966.186 1868.69 960.118 1865.35 953.761 1862.61C948.784 1860.45 943.752 1858.52 938.684 1856.59C931.127 1854.2 923.571 1852.03 915.887 1850.02C911.128 1849 906.35 1848 901.519 1847.26C895.833 1846.37 890.22 1845.77 884.498 1845.22C880.992 1845.08 877.523 1845.02 874.035 1845.06C867.623 1845.42 861.265 1846.17 854.908 1847.11C852.655 1847.53 850.475 1848.04 848.241 1848.62C847.006 1849.04 845.807 1849.53 844.608 1850.07C844.572 1850.09 844.554 1850.11 844.517 1850.13C844.899 1849.94 845.28 1849.78 845.662 1849.6C844.899 1850.04 844.154 1850.45 843.409 1850.87C842.991 1851.16 842.592 1851.45 842.192 1851.76C841.793 1852.12 841.393 1852.51 840.993 1852.91C840.485 1853.54 839.976 1854.2 839.467 1854.83C839.068 1855.47 838.668 1856.12 838.305 1856.78C837.814 1857.81 837.36 1858.86 836.961 1859.92C836.634 1860.95 836.343 1861.99 836.071 1863.06C835.834 1864.28 835.653 1865.5 835.507 1866.73C835.453 1867.64 835.435 1868.55 835.435 1869.46C835.507 1870.44 835.598 1871.42 835.744 1872.38C835.98 1873.51 836.252 1874.62 836.579 1875.71C836.452 1875.43 836.325 1875.14 836.18 1874.87C836.325 1875.2 836.47 1875.51 836.616 1875.83C836.743 1876.25 836.87 1876.65 837.015 1877.07C836.906 1876.72 836.797 1876.36 836.688 1876.02C836.797 1876.27 836.924 1876.52 837.052 1876.76C836.924 1876.47 836.797 1876.18 836.67 1875.91C836.543 1875.47 836.398 1875.03 836.27 1874.6C836.579 1875.42 836.888 1876.23 837.215 1877.07C837.578 1877.8 837.96 1878.5 838.378 1879.21C838.977 1880.12 839.631 1880.99 840.285 1881.87C841.048 1882.74 841.847 1883.57 842.683 1884.41C844.372 1885.86 846.098 1887.24 847.896 1888.57C850.185 1890 852.474 1891.33 854.835 1892.6C858.032 1894.09 861.247 1895.45 864.553 1896.69C868.622 1898.03 872.709 1899.2 876.869 1900.2C882.137 1901.25 887.423 1902.05 892.763 1902.61C897.868 1902.96 902.954 1903.08 908.058 1903.01L908.076 1902.94Z" fill="black"/>
<path d="M1474.31 1931.3C1455.26 1928.97 1436.69 1922.27 1420.09 1912.7C1411.01 1907.46 1401.98 1901.63 1393.91 1894.91C1384.41 1886.99 1376.46 1877.78 1369.66 1867.44C1366.32 1862.34 1365.27 1856.29 1366.58 1850.76C1365.87 1848.78 1365.36 1846.69 1365 1844.62C1363.27 1834.63 1363.4 1824.24 1362.94 1814.14C1362.49 1804.09 1362.03 1794.01 1361.54 1783.96C1359.4 1740.2 1356.22 1696.52 1353.21 1652.81C1350.28 1610.42 1347.5 1568.02 1343.71 1525.71C1339.75 1481.65 1335.35 1437.69 1330.41 1393.74C1329.61 1386.67 1328.36 1379.33 1328.9 1372.23C1329.32 1366.87 1331.12 1362 1335.1 1358.22C1338.91 1354.59 1344.11 1352.55 1349.39 1352.68C1359.85 1352.92 1369.75 1362.27 1368.94 1373.15C1368.88 1373.81 1368.85 1374.48 1368.85 1375.13C1369.54 1387.09 1371.3 1399.03 1372.68 1410.91C1374.02 1422.59 1375.22 1434.29 1376.44 1445.97C1378.69 1467.63 1380.64 1489.32 1382.6 1511.03C1386.52 1554.49 1389.59 1598.02 1392.55 1641.53C1394.84 1674.99 1397.24 1708.42 1399.29 1741.88C1400.31 1758.31 1401.14 1774.75 1401.92 1791.19C1402.31 1799.51 1402.52 1807.91 1402.87 1816.26C1405.59 1814.7 1408.35 1813.17 1411.13 1811.74C1421.25 1806.51 1431.61 1802.04 1442.23 1797.91C1452.26 1794.04 1462.92 1791.37 1473.42 1788.99C1483.41 1786.72 1493.48 1785.47 1503.76 1786.12C1516.96 1786.96 1529.5 1791.34 1540.74 1798.22C1550.86 1804.44 1559.1 1813.34 1566.21 1822.73C1574.13 1833.23 1580.23 1845.59 1583.23 1858.41C1585.9 1869.91 1584.03 1882.01 1578.69 1892.42C1573.07 1903.38 1563.36 1912.22 1552.75 1918.29C1541.32 1924.85 1528.84 1929.3 1515.78 1931.23C1509.06 1932.21 1502.36 1932.66 1495.66 1932.66C1488.53 1932.66 1481.43 1932.17 1474.29 1931.3H1474.31ZM1500.01 1892.66C1503.52 1892.42 1506.99 1892.08 1510.48 1891.59C1513.31 1891.04 1516.11 1890.41 1518.91 1889.68C1521.47 1888.84 1523.97 1887.92 1526.5 1886.9C1528.75 1885.81 1530.93 1884.68 1533.11 1883.47C1534.89 1882.28 1536.62 1881.05 1538.32 1879.74C1539.25 1878.9 1540.14 1878.05 1541.01 1877.16C1541.38 1876.74 1541.72 1876.31 1542.08 1875.85C1542.45 1875.29 1542.81 1874.73 1543.19 1874.18C1542.79 1874.96 1542.39 1875.73 1541.99 1876.51C1543.05 1874.74 1543.88 1872.89 1544.54 1870.97C1544.61 1870.73 1544.68 1870.51 1544.75 1870.28C1544.68 1870.49 1544.61 1870.69 1544.54 1870.91C1544.54 1870.71 1544.54 1870.51 1544.52 1870.31V1870.35C1544.52 1870.53 1544.52 1870.73 1544.55 1870.91C1544.48 1871.09 1544.43 1871.29 1544.36 1871.47C1544.36 1871.51 1544.36 1871.53 1544.36 1871.57C1544.36 1871.55 1544.36 1871.51 1544.36 1871.49C1544.3 1871.64 1544.25 1871.8 1544.19 1871.95C1544.19 1871.98 1544.19 1872.02 1544.17 1872.06C1544.17 1872.04 1544.17 1872.02 1544.17 1871.98C1544.08 1872.22 1543.99 1872.46 1543.92 1872.69C1544.05 1872.22 1544.16 1871.77 1544.28 1871.29C1544.32 1870.98 1544.37 1870.66 1544.41 1870.35C1544.41 1869.86 1544.45 1869.37 1544.46 1868.88C1544.41 1868.37 1544.36 1867.86 1544.3 1867.35C1543.9 1865.5 1543.41 1863.66 1542.81 1861.86C1543.07 1862.7 1543.32 1863.52 1543.56 1864.33C1543.05 1862.83 1542.48 1861.35 1541.87 1859.9C1540.23 1856.5 1538.45 1853.25 1536.51 1850.04C1534.8 1847.51 1533.02 1845.08 1531.13 1842.68C1529.15 1840.43 1527.1 1838.28 1524.94 1836.23C1523.81 1835.27 1522.67 1834.34 1521.49 1833.45C1519.63 1832.21 1517.76 1831.07 1515.8 1829.98C1514.62 1829.42 1513.42 1828.89 1512.2 1828.42C1510.1 1827.74 1508.01 1827.16 1505.86 1826.65C1504.66 1826.44 1503.47 1826.27 1502.27 1826.13C1499.92 1826 1497.62 1825.96 1495.27 1826C1492.78 1826.22 1490.33 1826.51 1487.84 1826.89C1480.63 1828.29 1473.55 1830.18 1466.46 1832.11C1461.07 1833.87 1455.75 1835.68 1450.46 1837.72C1445.85 1839.5 1441.36 1841.52 1436.86 1843.57C1428.5 1847.91 1420.33 1852.49 1412.19 1857.21C1413.66 1858.76 1415.15 1860.25 1416.69 1861.74C1419.56 1864.12 1422.47 1866.37 1425.45 1868.6C1431.28 1872.58 1437.18 1876.29 1443.3 1879.83C1448.08 1882.18 1452.82 1884.39 1457.8 1886.32C1462.3 1887.83 1466.83 1889.12 1471.44 1890.21C1476.36 1891.15 1481.29 1891.88 1486.26 1892.39C1490.88 1892.68 1495.46 1892.78 1500.09 1892.68L1500.01 1892.66Z" fill="black"/>
</g>
<defs>
<clipPath id="clip0_157_193">
<rect width="1383" height="1886" fill="white" transform="translate(308 57)"/>
</clipPath>
</defs>
</svg>
