<svg width="2000" height="2000" viewBox="0 0 2000 2000" fill="none" xmlns="http://www.w3.org/2000/svg">
<g clip-path="url(#clip0_157_194)">
<path d="M1158.54 745.835C1143.95 744.205 1129.35 742.794 1114.85 740.56C1084.79 735.925 1055.66 727.517 1027.53 715.977C1012.26 709.693 997.87 701.853 983.296 694.141C978.975 691.87 974.873 689.214 970.735 686.668C966.231 683.901 961.507 681.337 957.168 678.314C947.72 671.702 938.217 665.254 929.264 658C925.199 654.702 920.823 651.607 916.996 648.035C912.071 643.437 907.127 638.821 902.202 634.223C884.68 617.883 869.299 599.143 857.27 578.407C843.116 554.044 833.833 527.41 828.285 499.859C822.573 471.612 822.28 442.871 826.198 414.387C830.263 384.913 839.583 356.3 851.813 329.262C864.044 302.169 880.139 276.487 899.455 253.901C918.351 231.791 941.33 214.132 965.975 198.91C971.047 195.778 976.338 192.975 981.52 190.026C989.027 185.776 996.516 181.709 1004.32 177.991C1017.21 171.854 1030.64 166.963 1044.47 163.428C1058.09 159.929 1072.9 158.519 1086.73 161.431C1089.84 162.091 1092.97 163.171 1095.88 164.655C1119.41 163.776 1142.98 163.812 1166.5 165.278C1189.04 166.707 1211.45 169.583 1233.59 173.997C1254.13 178.101 1274.57 184.347 1294.2 191.638C1305.33 195.759 1316.37 200.027 1327.41 204.369C1338.18 208.6 1348.61 213.546 1359.03 218.51C1368.79 223.163 1378.16 228.659 1387.17 234.594C1394.62 239.503 1401.51 245.053 1408.49 250.604C1423.24 262.401 1436.61 275.865 1448.4 290.629C1460.52 305.796 1472.35 321.404 1480.64 339.081C1485.55 349.54 1490.6 360 1493.99 371.046C1497.32 381.853 1500.27 392.625 1502.12 403.78C1503.95 414.753 1505.27 425.78 1506.13 436.863C1507.82 459.101 1508.55 481.541 1505.76 503.706C1504.34 514.971 1501.52 525.871 1498.7 536.862C1497.43 541.771 1495.64 546.644 1494.12 551.48C1489.76 565.273 1482.91 578.352 1475.74 590.845C1472.13 597.128 1468.07 603.155 1463.89 609.072C1460.78 613.468 1457.61 617.974 1454.11 622.059C1449.87 627.005 1445.62 631.951 1441.37 636.934C1438.02 640.854 1434.14 644.426 1430.53 648.108C1427.18 651.552 1423.88 654.959 1420.31 658.183C1415.75 662.304 1411.2 666.426 1406.64 670.566C1402.35 674.449 1397.54 677.875 1393.01 681.484C1373.57 697.072 1352.82 710.719 1330.05 721.014C1302.42 733.507 1272.74 740.486 1242.84 744.663C1228.41 746.678 1213.89 747.429 1199.35 747.649C1197.48 747.667 1195.6 747.685 1193.73 747.685C1181.99 747.685 1170.17 747.154 1158.56 745.89L1158.54 745.835ZM1156.03 705.022C1171.78 706.781 1187.6 707.422 1203.43 707.257C1216.53 706.891 1229.53 705.792 1242.49 703.997C1255.07 702.055 1267.48 699.472 1279.8 696.211C1289.89 693.317 1299.78 689.928 1309.5 685.971C1317.89 682.308 1326 678.223 1333.95 673.698C1343.47 667.983 1352.53 661.718 1361.43 655.124C1370 648.273 1378.59 641.495 1386.71 634.149C1390.47 630.76 1394.39 627.482 1397.92 623.873C1401.99 619.715 1406.03 615.556 1410.1 611.398C1416.34 604.126 1422.64 596.964 1428.44 589.325C1434.17 581.375 1439.45 573.187 1444.26 564.669C1447.78 558.037 1450.95 551.278 1453.78 544.335C1457.5 534.37 1460.36 524.186 1463.03 513.909C1463.78 510.154 1464.53 506.417 1465.3 502.662C1466 499.255 1466.25 495.701 1466.64 492.22C1466.6 492.513 1466.56 492.807 1466.53 493.118C1466.78 488.502 1467.04 483.867 1467.28 479.233C1467.53 474.543 1467.33 469.799 1467.28 465.091C1466.95 457.379 1466.64 449.686 1466.05 441.955C1465.45 434.17 1464.62 426.458 1463.74 418.71C1463.05 414.478 1462.33 410.265 1461.64 406.033C1460.96 401.912 1459.77 397.79 1458.78 393.724C1457.57 389.804 1456.37 385.865 1455.16 381.945C1453.91 377.86 1452.12 373.885 1450.52 369.892C1446.92 362.198 1443.33 354.578 1439.19 347.159C1435.05 340.216 1430.59 333.494 1425.82 326.954C1422.95 323.364 1420.08 319.755 1417.2 316.146C1411.49 308.984 1405.3 302.243 1398.82 295.776C1390.56 287.936 1381.81 280.939 1372.91 273.831C1365.81 268.739 1358.48 264.031 1350.9 259.69C1333.36 250.238 1314.92 242.764 1296.43 235.491C1285.54 231.461 1274.68 227.376 1263.58 223.878C1251.75 220.159 1239.89 216.88 1227.84 213.894C1228.68 214.114 1229.53 214.316 1230.37 214.517C1222.73 212.997 1215.17 211.495 1207.48 210.286C1200.28 209.15 1193.07 208.252 1185.84 207.373C1172.91 206.182 1160 205.157 1147.02 204.699C1135.01 204.277 1123.02 204.332 1110.99 204.479C1086.89 205.248 1062.85 206.677 1038.83 208.802C1037.51 208.912 1036.23 208.893 1034.97 208.747C1032.81 209.571 1030.66 210.432 1028.52 211.311C1014.35 217.595 1001.07 225.27 987.617 232.909C977.785 239.008 968.245 245.456 959.054 252.472C952.041 258.078 945.376 264.013 939.005 270.351C932.193 277.495 925.822 284.969 919.853 292.791C911.961 303.635 904.802 314.864 898.247 326.551C892.003 338.165 886.437 350.071 881.53 362.29C877.374 373.262 873.822 384.4 870.874 395.757C868.365 406.381 866.425 417.079 865.051 427.905C864.136 436.918 863.697 445.93 863.751 454.998C864.026 463.827 864.795 472.565 865.967 481.303C867.523 491.121 869.592 500.793 872.156 510.392C874.792 519.404 877.85 528.197 881.402 536.862C884.734 544.427 888.433 551.754 892.553 558.935C896.929 566.116 901.634 573.003 906.724 579.69C912.84 587.328 919.413 594.509 926.261 601.488C931.882 606.764 937.521 612.021 943.161 617.278C945.578 619.531 948.342 621.51 950.906 623.58C954.147 626.218 957.406 628.855 960.665 631.493C966.964 635.89 973.244 640.304 979.524 644.719C983.113 647.229 987.068 649.317 990.785 651.588C994.318 653.768 997.889 655.93 1001.42 658.091C1006.99 661.04 1012.55 663.971 1018.14 666.921C1028.72 672.508 1039.63 677.399 1050.75 681.85C1063.55 686.722 1076.55 690.917 1089.82 694.361C1104.21 697.823 1118.71 700.406 1133.36 702.476C1132.5 702.385 1131.64 702.293 1130.78 702.201C1139.19 703.136 1147.57 704.07 1155.94 704.986L1156.03 705.022Z" fill="black"/>
<path d="M1081.88 465.275C1080.21 434.794 1079.33 404.239 1078.43 373.721C1077.99 358.444 1077.81 343.166 1077.7 327.889C1077.65 321.148 1077.85 314.37 1077.98 307.629C1078.12 299.807 1078.14 291.198 1082.3 284.329C1085.59 278.87 1091.54 275.792 1097.71 275.096C1108.64 273.887 1118.57 282.918 1119.43 293.616C1119.61 295.997 1119.39 298.305 1118.79 300.467C1118.79 300.577 1118.75 300.687 1118.73 300.797C1117.6 316.312 1118.02 331.937 1118.13 347.471C1118.92 385.683 1119.98 423.913 1122.08 462.07C1122.69 473.042 1114.72 482.897 1103.59 483.777C1103.08 483.813 1102.57 483.832 1102.05 483.832C1091.85 483.832 1082.44 475.735 1081.88 465.257V465.275Z" fill="black"/>
<path d="M1169.67 481.596C1163.26 427.942 1157.4 374.069 1155.1 320.048C1154.62 309.058 1162.35 299.221 1173.59 298.323C1184.25 297.48 1194.83 305.852 1195.3 316.843C1197.61 370.863 1203.47 424.718 1209.88 478.391C1211.18 489.308 1202.01 499.255 1191.39 500.116C1190.84 500.153 1190.29 500.171 1189.76 500.171C1179.23 500.171 1170.92 491.964 1169.67 481.578V481.596Z" fill="black"/>
<path d="M1157.92 611.655C1149.57 609.878 1141.36 607.406 1133.45 604.145C1128.89 602.276 1124.52 600.225 1120.18 597.862C1115.46 595.261 1111.17 592.183 1106.87 588.959C1099.73 583.592 1094.01 576.539 1088.58 569.505C1086.6 566.959 1084.4 563.973 1083.07 561.042C1078.52 551.041 1081.95 539.024 1092.06 533.95C1101.45 529.224 1114.19 532.796 1118.92 542.468C1120.2 544.428 1121.59 546.333 1123.02 548.183C1124.87 550.344 1126.73 552.451 1128.68 554.484C1130.54 556.17 1132.47 557.727 1134.44 559.265C1135.93 560.291 1137.43 561.28 1138.98 562.196C1142.41 564.01 1145.89 565.622 1149.49 567.124C1154.07 568.809 1158.67 570.256 1163.39 571.52C1168.44 572.674 1173.52 573.627 1178.68 574.36C1181.65 574.616 1184.59 574.781 1187.6 574.836C1190.54 574.726 1193.44 574.524 1196.38 574.231C1199.15 573.773 1201.9 573.224 1204.64 572.583C1207.02 571.868 1209.33 571.062 1211.64 570.165C1213.06 569.505 1214.47 568.791 1215.85 568.04C1218.17 566.574 1220.39 565.054 1222.59 563.405C1223.67 562.489 1224.71 561.555 1225.72 560.566C1228.76 557.305 1231.59 553.935 1234.3 550.399C1237.44 545.82 1240.33 541.112 1243.11 536.313C1252.25 519.295 1260.27 501.545 1267.46 483.611C1269.28 478.684 1271 473.756 1272.37 468.682C1275.26 458.058 1287.53 452.324 1297.69 455.511C1308.5 458.937 1313.71 470.258 1310.84 480.845C1307.01 494.987 1300.97 508.433 1295.04 521.787C1285.48 543.274 1275.06 564.834 1259.88 582.932C1248.44 596.561 1233.22 606.288 1216.18 611.161C1206.84 613.835 1197.39 614.989 1187.91 614.989C1177.91 614.989 1167.88 613.707 1157.95 611.582L1157.92 611.655Z" fill="black"/>
<path d="M1164.36 1410.02C1159.22 1409.1 1153.85 1406.59 1149.88 1403.2C1145.45 1399.41 1142.41 1394.76 1139.7 1389.68C1137.39 1385.36 1135.93 1380.51 1134.2 1375.94C1133.07 1372.98 1131.95 1370.01 1130.84 1367.04C1126.97 1356.84 1123.11 1346.62 1119.5 1336.34C1112.34 1315.93 1105.86 1295.31 1099.54 1274.63C1093.08 1253.38 1086.49 1232.06 1081.18 1210.48C1078.67 1200.35 1075.92 1190.25 1073.76 1180.03C1071.55 1169.44 1068.99 1158.86 1067.15 1148.19C1065.07 1136.14 1062.63 1124.07 1060.97 1111.94C1059.21 1099.25 1057.43 1086.57 1055.67 1073.9C1054.23 1063.45 1053.28 1052.92 1052.12 1042.46C1051.12 1033.27 1050.14 1024.11 1049.39 1014.91C1047.38 990.384 1045.64 965.892 1044.14 941.328C1043.63 933.048 1043.28 924.75 1042.95 916.47C1042.49 905.058 1041.76 893.609 1041.63 882.178C1041.63 883.039 1041.67 883.9 1041.69 884.761C1041.43 869.136 1041.19 853.51 1040.97 837.885C1040.97 838.746 1041.01 839.607 1041.03 840.468C1040.68 819.677 1041.65 798.849 1042.58 778.095C1043.04 767.965 1043.77 757.89 1044.45 747.778C1044.63 744.994 1044.91 742.246 1045.18 739.462C1045.46 736.384 1045.9 733.325 1046.39 730.284C1046.81 727.72 1047.53 724.569 1048.79 722.261C1051.04 718.121 1053.86 714.109 1058.35 712.149C1060.86 711.032 1063.18 710.299 1065.91 710.024C1076.84 708.907 1086.76 717.773 1087.62 728.544C1087.9 732.006 1087.28 735.303 1085.96 738.234C1085.63 740.139 1085.37 742.063 1085.17 743.986C1085.28 743.125 1085.37 742.264 1085.46 741.422C1083.76 759.355 1082.97 777.344 1082.15 795.332C1081.86 801.89 1081.75 808.429 1081.64 815.006C1081.53 822.626 1081.2 830.301 1081.25 837.94C1081.49 852.723 1081.69 867.506 1081.91 882.288C1081.91 882.068 1081.91 881.867 1081.91 881.647C1083.43 918.668 1085.02 955.634 1088.06 992.545C1088.89 1002.55 1089.71 1012.51 1090.5 1022.51C1091.36 1033.32 1092.88 1044.09 1094.05 1054.86C1095.97 1072.16 1098.5 1089.34 1100.88 1106.58C1102.79 1117.68 1104.71 1128.78 1106.63 1139.88C1108.41 1150.17 1110.88 1160.38 1113.02 1170.58C1117.01 1189.54 1122.3 1208.2 1127.41 1226.87C1141.51 1275.05 1156.49 1322.89 1174.94 1369.59C1175.97 1369.35 1176.98 1369.07 1177.98 1368.76C1177.14 1368.98 1176.34 1369.22 1175.49 1369.44C1187.91 1365.69 1199.79 1360.48 1211.76 1355.48C1240.25 1343.39 1268.85 1331.6 1297.67 1320.31C1326.59 1308.97 1355.53 1297.71 1384.24 1285.84C1414.55 1272.67 1444.72 1259.11 1474.97 1245.76C1489.01 1239.57 1503.2 1233.59 1517.52 1228.01C1530.92 1222.75 1544.45 1217.79 1557.86 1212.56C1556.28 1207.82 1554.32 1203.24 1552.4 1198.61C1543.9 1179.06 1535.57 1159.46 1527 1139.95C1518.58 1120.79 1509.88 1101.74 1501.74 1082.45C1484.36 1041.47 1466.6 1000.57 1451.35 958.748C1436.19 917.148 1421.36 875.199 1409.84 832.426C1399.24 793.006 1389.94 753.237 1381.22 713.377C1379.67 706.196 1378.11 699.015 1376.57 691.834C1374.25 681.1 1381.44 670.182 1392.13 667.929C1402.94 665.658 1413.7 672.765 1416.05 683.518C1426.43 731.292 1437.23 778.974 1449.9 826.235C1460.03 861.955 1471.89 897.291 1484.6 932.169C1491.56 951.219 1498.73 970.142 1506.31 988.937C1513.31 1006.3 1520.6 1023.54 1527.81 1040.8C1544.95 1081.19 1562.91 1121.19 1580.23 1161.49C1584.62 1171.7 1589.09 1181.85 1593.3 1192.08C1596.62 1200.14 1599.79 1209.23 1599.24 1218.06C1598.96 1222.73 1598.23 1227.29 1596.22 1231.58C1593.47 1237.46 1588.42 1242.83 1582.59 1245.78C1576.75 1248.71 1570.56 1250.85 1564.47 1253.18C1559.12 1255.19 1553.79 1257.21 1548.46 1259.26C1538.58 1263.05 1528.74 1266.93 1518.93 1270.87C1515.25 1272.34 1511.61 1273.89 1507.96 1275.41C1467.31 1292.89 1427.2 1311.65 1386.31 1328.61C1346.45 1345.15 1305.88 1359.92 1266 1376.42C1261.04 1378.47 1256.07 1380.52 1251.11 1382.58C1241.55 1386.62 1232.02 1390.67 1222.44 1394.67C1216.4 1397.17 1210.39 1399.74 1204.31 1402.14C1194.02 1406.19 1182.63 1410.57 1171.3 1410.57C1168.98 1410.57 1166.65 1410.38 1164.34 1409.96L1164.36 1410.02Z" fill="black"/>
<path d="M1646.9 1050.19C1641 1048.86 1635.2 1046.79 1629.91 1043.8C1624.96 1041 1620.88 1037.44 1617.02 1033.29C1609.11 1024.75 1603.96 1013.35 1604.53 1001.59C1605.08 989.889 1611.25 980.382 1619.49 972.487C1628.82 963.566 1642.04 959.316 1654.28 956.385C1667.5 953.216 1681.59 952.52 1695.12 953.583C1696.52 953.693 1697.91 953.821 1699.28 953.967C1699.54 951.916 1699.81 949.883 1700.09 947.849C1701.24 939.093 1702.41 930.337 1703.55 921.581C1705.84 904.307 1708.12 887.033 1710.54 869.759C1715.67 833.123 1720.45 796.45 1724.6 759.685C1725.67 748.639 1726.51 737.63 1726.58 726.548C1726.45 722.188 1726.14 717.865 1725.67 713.542C1725.23 710.886 1724.69 708.284 1724.07 705.647C1723.47 703.668 1722.79 701.727 1722.04 699.785C1721.6 698.832 1721.12 697.916 1720.61 697C1720.08 696.231 1719.55 695.462 1719 694.692C1718.67 694.308 1718.32 693.923 1717.98 693.557C1717.48 693.117 1716.97 692.677 1716.47 692.219C1715.87 691.816 1715.27 691.413 1714.64 691.047C1713.78 690.644 1712.9 690.223 1712.04 689.82C1709.42 688.867 1706.79 688.025 1704.08 687.273C1691.48 684.398 1678.55 682.932 1665.74 681.393C1637.96 678.499 1610.17 676.154 1582.32 673.975C1568.7 672.912 1555.04 672.069 1541.38 671.337C1527.04 670.586 1512.76 670.274 1498.42 670.036C1486.47 670.494 1474.57 670.989 1462.63 671.978C1451.6 672.894 1440.58 673.956 1429.6 675.202C1418.68 676.447 1408.74 667.362 1407.88 656.7C1406.98 645.453 1415.48 636.221 1426.37 634.975C1435.36 633.949 1444.41 632.997 1453.45 632.246C1459.61 631.733 1465.78 631.202 1471.95 630.707C1477.68 630.212 1483.52 630.249 1489.29 630.029C1511.39 629.205 1533.49 630.506 1555.57 631.66C1576.62 632.777 1597.68 634.59 1618.68 636.386C1640.87 638.291 1663.17 639.976 1685.22 643.127C1701.19 645.417 1717.19 647.596 1731.95 654.557C1737.4 657.103 1742.51 660.932 1746.68 665.255C1750.9 669.615 1754.05 674.396 1757.05 679.616C1760.01 684.746 1761.92 690.791 1763.33 696.506C1765.29 704.566 1766.29 712.699 1766.73 720.961C1767.85 741.807 1764.76 762.726 1762.45 783.389C1761.24 794.105 1759.87 804.821 1758.53 815.519C1753.37 857.303 1747.18 898.976 1741.67 940.723C1740.17 951.971 1738.78 963.236 1737.09 974.465C1736.71 976.975 1736.21 979.466 1735.33 981.848C1737.8 984.119 1739.95 986.775 1741.89 989.431C1743.13 991.117 1744.51 993.828 1745.07 995.843C1745.7 998.078 1746.61 1000.4 1746.67 1002.77C1746.72 1005.55 1746.98 1008.39 1746.48 1011.18C1745.86 1014.77 1744.65 1018.25 1742.8 1021.4C1738.72 1028.36 1732.59 1033.19 1726.05 1037.7C1718.51 1042.92 1709.79 1045.92 1700.97 1048.09C1696.17 1049.26 1691.35 1050.25 1686.5 1051.09C1680.57 1052.12 1674.62 1052.65 1668.67 1052.65C1661.38 1052.65 1654.09 1051.84 1646.9 1050.19Z" fill="black"/>
<path d="M812.411 1029.82C799.576 1026.18 787.711 1019.31 776.286 1012.58C763.817 1005.26 752.025 996.812 741.076 987.36C731.683 979.245 722.968 970.269 714.215 961.477C699.385 946.602 684.956 931.325 670.217 916.359C669.485 915.626 668.771 914.894 668.038 914.143C668.002 914.161 667.965 914.198 667.928 914.216C663.223 917.751 657.821 920.737 652.383 923.009C647.257 925.17 641.764 927.185 636.161 927.661C630.851 928.119 624.992 928.119 619.92 926.233C617.302 925.262 614.83 924.382 612.413 922.972C610.106 921.635 608.074 920.114 606.005 918.466C598.058 912.109 593.426 901.265 592.272 891.391C590.972 880.199 593.554 869.904 597.692 859.573C601.702 849.571 608.513 840.32 617.229 833.946C618.217 832.462 619.224 830.978 620.268 829.531C627.812 818.888 637.681 808.465 649.49 802.567C654.745 799.947 660.055 797.969 665.841 796.815C671.371 795.716 676.827 796.1 682.338 796.998C694.514 798.995 704.768 808.795 709.345 819.914C718.463 842.189 709.638 866.662 696.18 885.255C700.099 889.248 704.035 893.223 707.954 897.217C723.315 912.86 738.494 928.705 753.948 944.258C761.839 951.676 769.676 959.04 778.3 965.635C786.576 971.515 795.163 976.992 804.007 981.993C808.914 984.667 813.857 987.214 819.002 989.394C821.73 990.364 824.477 991.262 827.278 992.068C829.732 992.599 832.167 993.021 834.657 993.369C836.287 993.497 837.916 993.552 839.546 993.57C841.047 993.515 842.549 993.387 844.032 993.222C845.753 992.947 847.456 992.581 849.158 992.141C850.312 991.793 851.429 991.409 852.546 990.987C854.67 990.016 856.757 988.991 858.808 987.873C860.803 986.573 862.726 985.217 864.63 983.788C868.255 980.784 871.679 977.615 875.012 974.299C881.896 966.935 887.975 959.04 894.072 951.054C904.271 936.289 914.03 921.305 923.496 906.083C933.2 890.494 942.849 874.887 952.645 859.371C961.855 844.827 971.358 830.447 980.421 815.811C985.566 807.531 991.022 799.398 995.838 790.935C1000.51 782.746 1005.16 774.54 1009.81 766.352C1014.28 757.944 1018.71 749.536 1023.27 741.183C1026.71 734.899 1029.86 727.92 1034.43 722.406C1038.41 717.607 1043.33 714.566 1049.63 713.943C1060.56 712.863 1070.49 721.674 1071.33 732.445C1071.81 738.416 1069.57 743.93 1065.73 747.924C1064.94 749.133 1064.19 750.36 1063.47 751.606C1058.24 761.223 1053.06 770.876 1047.91 780.53C1042.47 790.733 1036.63 800.717 1030.92 810.773C1025.55 820.225 1019.53 829.311 1013.8 838.544C1008.07 847.794 1002.08 856.898 996.186 866.057C973.244 901.814 951.803 938.506 927.616 973.457C924.064 978.604 919.999 983.458 916.209 988.441C908.354 998.717 898.851 1008.28 888.616 1016.17C878.381 1024.05 867.194 1029.31 854.651 1032.29C849.708 1033.47 844.654 1033.98 839.601 1033.98C830.409 1033.98 821.181 1032.29 812.411 1029.8V1029.82Z" fill="black"/>
<path d="M636.838 1897.22C619.865 1889.71 608.257 1873.15 597.582 1858.7C591.43 1850.38 585.479 1841.99 580.078 1833.16C574.42 1823.93 569.843 1814.17 565.32 1804.35C563.416 1800.23 561.732 1796.03 559.956 1791.88C554.701 1779.53 551.35 1766.58 550.05 1753.22C548.823 1740.79 550.911 1727.18 555.928 1715.73C558.271 1710.32 561.219 1705.62 564.753 1700.93C569.074 1695.21 575.83 1691.47 582.129 1688.4C592.364 1683.4 603.624 1681.78 614.793 1683.76C626.493 1685.85 636.362 1693.78 644.236 1702.24C652.42 1711.02 658.737 1722.03 663.241 1733.11C666.72 1741.67 669.064 1750.48 671.48 1759.4C673.861 1768.21 674.758 1777.48 675.966 1786.51C677.156 1795.61 677.083 1804.97 677.303 1814.13C677.486 1821.57 677.303 1828.99 676.992 1836.41C685.542 1828.59 694.056 1820.74 702.552 1812.89C717.493 1799.09 732.196 1785.01 746.825 1770.88C764.402 1753.94 782.016 1737.03 799.704 1720.2C814.901 1705.73 830.482 1691.64 845.899 1677.41C861.261 1663.23 876.934 1649.42 892.479 1635.44C909.526 1620.12 926.407 1604.57 943.618 1589.44C977.144 1559.99 1010.8 1530.7 1044.71 1501.7C1068.56 1481.29 1092 1460.35 1115.58 1439.67C1136.84 1421.04 1158.17 1402.52 1178.07 1382.45C1180.95 1379.11 1183.73 1375.8 1186.42 1372.33C1186.85 1371.75 1187.27 1371.16 1187.67 1370.58C1193.99 1361.58 1206.02 1358.34 1215.54 1364.48C1224.49 1370.23 1227.97 1383.34 1221.63 1392.36C1209.68 1409.41 1194.24 1423.92 1178.73 1437.69C1160.52 1453.89 1142.22 1469.97 1123.91 1486.05C1090.66 1515.2 1057.27 1544.12 1023.74 1572.96C989.686 1602.25 956.325 1632.29 922.965 1662.33C906.926 1676.76 890.886 1691.24 874.847 1705.69C860.474 1718.62 846.156 1731.68 832.167 1745C798.843 1776.76 765.794 1808.84 732.251 1840.38C717.017 1854.69 701.527 1868.74 686.037 1882.73C679.061 1889.03 672.103 1895.59 662.673 1897.64C659.414 1898.36 656.155 1898.27 653.097 1897.52C650.644 1898.52 647.989 1899.04 645.297 1899.04C642.459 1899.04 639.585 1898.47 636.875 1897.26L636.838 1897.22ZM636.417 1843.22C636.417 1842.89 636.454 1842.56 636.472 1842.23C636.93 1833.33 636.967 1824.45 637.058 1815.52C636.93 1809.92 636.802 1804.33 636.417 1798.74C635.959 1792.22 635.209 1785.83 634.367 1779.36C633.634 1775.72 632.902 1772.06 632.169 1768.39C631.4 1764.54 630.119 1760.75 629.093 1756.96C629.313 1757.8 629.551 1758.63 629.789 1759.45C628.544 1755.5 627.207 1751.61 625.688 1747.75C624.296 1744.65 622.776 1741.67 621.129 1738.72C619.737 1736.5 618.291 1734.37 616.771 1732.25C615.471 1730.66 614.134 1729.12 612.724 1727.58C611.644 1726.61 610.564 1725.66 609.429 1724.76C609.008 1724.48 608.605 1724.23 608.184 1723.95C607.836 1723.79 607.488 1723.62 607.14 1723.46L606.462 1723.26C606.298 1723.22 606.133 1723.2 605.968 1723.16C605.675 1723.15 605.382 1723.13 605.089 1723.11C604.943 1723.11 604.796 1723.11 604.65 1723.11C604.357 1723.16 604.082 1723.22 603.789 1723.29C602.398 1723.73 601.006 1724.21 599.633 1724.72C598.699 1725.18 597.747 1725.66 596.795 1726.11C597.253 1725.84 597.71 1725.58 598.168 1725.31C598.058 1725.36 597.93 1725.4 597.82 1725.45C597.948 1725.4 598.077 1725.34 598.186 1725.29C598.479 1725.12 598.772 1724.94 599.065 1724.78C597.875 1725.38 596.722 1726.08 595.623 1726.85C595.532 1726.96 595.44 1727.07 595.348 1727.18C594.927 1727.85 594.488 1728.51 594.067 1729.19C593.609 1730.09 593.188 1731 592.803 1731.92C592.327 1733.24 591.888 1734.58 591.503 1735.91C591.009 1738.17 590.625 1740.4 590.313 1742.69C590.185 1744.32 590.13 1745.95 590.112 1747.58C590.185 1749.49 590.332 1751.37 590.57 1753.26C591.119 1756.61 591.778 1759.89 592.62 1763.21C593.865 1767.4 595.294 1771.52 596.85 1775.63C601.848 1787.28 607.103 1798.73 613.146 1809.86C620.286 1821.4 628.178 1832.38 636.436 1843.15L636.417 1843.22Z" fill="black"/>
<path d="M1715.67 1615.2C1704.85 1608.09 1696.39 1596.84 1690.03 1585.74C1683.1 1573.6 1677.68 1560.32 1674.14 1546.78C1671.14 1535.4 1668.12 1524.03 1666.51 1512.34C1666.3 1510.87 1666.12 1509.41 1665.92 1507.93C1661.32 1513.64 1656.62 1519.28 1651.73 1524.78C1634.74 1543.81 1616.91 1562.07 1596.25 1577.17C1585.56 1584.99 1573.6 1591.13 1561.12 1595.47C1548.17 1599.97 1534.71 1600.96 1521.2 1599.04C1508.91 1597.3 1497.14 1591.49 1486.63 1585.15C1473.78 1577.41 1462.41 1567.31 1451.93 1556.63C1442.05 1546.54 1433.44 1535.15 1425.29 1523.62C1421.61 1518.42 1418.34 1512.87 1414.86 1507.52C1408.61 1497.87 1403.19 1487.74 1397.52 1477.74C1392.32 1468.58 1387.7 1459.05 1382.87 1449.71C1377.78 1439.91 1372.82 1430.02 1367.97 1420.09C1362.71 1409.32 1357.35 1398.62 1352.49 1387.67C1350.06 1382.19 1347.46 1376.75 1345.32 1371.14C1343.91 1367.44 1342.48 1363.71 1341.07 1360.01C1339.53 1355.99 1337.96 1351.71 1337.75 1347.38C1337.41 1339.21 1341.34 1331.5 1348.81 1327.75C1354.49 1324.91 1361.06 1325.02 1366.63 1327.67C1367.45 1328.06 1368.28 1328.5 1369.08 1329.01C1373.61 1331.91 1376.83 1336.6 1377.94 1341.85C1378.11 1342.68 1378.24 1343.5 1378.29 1344.34C1379.98 1349 1381.79 1353.59 1383.57 1358.23C1387.8 1367.79 1392.01 1377.32 1396.6 1386.71C1402.19 1398.18 1407.86 1409.59 1413.61 1420.99C1419.14 1432 1424.85 1442.91 1430.53 1453.83C1435.2 1462.81 1440.33 1471.53 1445.34 1480.32C1452.45 1491.31 1459.42 1502.3 1467.33 1512.74C1473.03 1519.89 1479.01 1526.72 1485.48 1533.19C1490.13 1537.53 1494.94 1541.63 1499.98 1545.5C1504.01 1548.35 1508.09 1551.03 1512.36 1553.5C1514.63 1554.64 1516.92 1555.7 1519.24 1556.69C1521.62 1557.53 1523.98 1558.26 1526.42 1558.94C1527.68 1559.22 1528.95 1559.45 1530.23 1559.64C1531.69 1559.77 1533.16 1559.82 1534.62 1559.84C1535.87 1559.78 1537.11 1559.69 1538.36 1559.56C1540.83 1559.14 1543.25 1558.63 1545.68 1558.03C1548.43 1557.16 1551.12 1556.21 1553.81 1555.17C1557.27 1553.59 1560.62 1551.93 1563.94 1550.09C1568.92 1547.05 1573.69 1543.77 1578.34 1540.26C1587.7 1532.75 1596.34 1524.52 1604.91 1516.15C1621.52 1498.55 1637.03 1480.08 1651.73 1460.85C1656.93 1454.05 1661.76 1445.66 1670.26 1442.71C1675.48 1440.9 1681.96 1441.16 1687.01 1443.45C1690.93 1442.73 1695.05 1443.17 1698.75 1445.09C1708.64 1450.22 1718.09 1456.01 1727.26 1462.33C1730.06 1464.27 1732.82 1466.27 1735.57 1468.28C1736.3 1468.76 1737.02 1469.27 1737.69 1469.86C1738.43 1470.39 1739.16 1470.94 1739.87 1471.47C1739.95 1471.53 1740.02 1471.58 1740.08 1471.64C1740.84 1472.2 1741.61 1472.77 1742.4 1473.36C1742.91 1473.71 1743.41 1474.07 1743.9 1474.46C1748.59 1478.14 1753.11 1481.9 1757.6 1485.83C1765.91 1493.12 1772.92 1501.97 1779.04 1511.17C1786.16 1521.9 1791.4 1533.55 1794.77 1545.97C1800.85 1568.32 1794.44 1592.39 1778.6 1609.13C1771.09 1617.05 1761.28 1622.76 1750.38 1624.15C1748.42 1624.41 1746.48 1624.52 1744.56 1624.52C1734.2 1624.52 1724.55 1620.98 1715.72 1615.18L1715.67 1615.2ZM1743.21 1584.35C1743.72 1584.35 1744.23 1584.31 1744.76 1584.26C1745 1584.2 1745.24 1584.15 1745.48 1584.09L1745.86 1583.95C1746.25 1583.74 1746.65 1583.56 1747.03 1583.36C1747.27 1583.19 1747.51 1583.03 1747.77 1582.86C1748.33 1582.35 1748.9 1581.82 1749.47 1581.29C1749.98 1580.72 1750.47 1580.14 1750.97 1579.55C1751.96 1578.12 1752.89 1576.67 1753.77 1575.19C1754.25 1574.26 1754.67 1573.3 1755.09 1572.33C1755.47 1571.27 1755.8 1570.19 1756.11 1569.09C1756.32 1568.16 1756.48 1567.22 1756.61 1566.27C1756.66 1565.59 1756.7 1564.89 1756.72 1564.22C1756.63 1562.57 1756.5 1560.94 1756.3 1559.29C1755.93 1557.27 1755.49 1555.3 1755 1553.32C1754.3 1551.19 1753.53 1549.09 1752.73 1547.02C1751.26 1543.83 1749.69 1540.75 1747.98 1537.69C1745.73 1533.99 1743.33 1530.4 1740.77 1526.92C1738.24 1523.79 1735.61 1520.8 1732.81 1517.91C1728.32 1513.68 1723.56 1509.81 1718.71 1505.97C1718.23 1505.64 1717.77 1505.27 1717.33 1504.9C1717.22 1504.81 1717.11 1504.7 1717 1504.61C1716.62 1504.35 1716.24 1504.1 1715.87 1503.8C1715.72 1503.69 1715.59 1503.6 1715.45 1503.49C1715.05 1503.22 1714.64 1502.94 1714.26 1502.63C1713.47 1502.06 1712.68 1501.5 1711.93 1500.89C1711.38 1500.52 1710.83 1500.12 1710.27 1499.74C1708.51 1498.47 1706.71 1497.21 1704.92 1495.96C1705.38 1499.55 1705.89 1503.14 1706.39 1506.73C1707.39 1512.07 1708.44 1517.4 1709.46 1522.71C1710.38 1527.42 1711.84 1532.09 1713.12 1536.72C1714.94 1542.51 1716.91 1548.23 1719.18 1553.87C1721.05 1558.1 1723.08 1562.22 1725.34 1566.27C1727.06 1569.02 1728.85 1571.67 1730.77 1574.27C1732.29 1576.09 1733.87 1577.81 1735.52 1579.51C1736.28 1580.21 1737.07 1580.87 1737.88 1581.51C1738.9 1582.21 1739.95 1582.86 1741.01 1583.47C1741.03 1583.47 1741.06 1583.47 1741.1 1583.49C1740.9 1583.38 1740.68 1583.25 1740.48 1583.14C1740.92 1583.32 1741.38 1583.52 1741.81 1583.71C1742.16 1583.82 1742.51 1583.93 1742.86 1584.04C1743.13 1584.09 1743.43 1584.15 1743.7 1584.22C1743.88 1584.22 1744.05 1584.26 1744.23 1584.28C1744.03 1584.28 1743.83 1584.28 1743.63 1584.28C1743.63 1584.28 1743.63 1584.28 1743.61 1584.28C1743.44 1584.28 1743.28 1584.28 1743.11 1584.28C1743.13 1584.28 1743.15 1584.29 1743.19 1584.31L1743.21 1584.35Z" fill="black"/>
<path d="M456.432 1594.61C426.148 1592.76 396.157 1586.51 367.593 1576.32C353.605 1571.34 340.074 1565.24 327.037 1558.12C313.451 1550.7 300.873 1541.89 288.825 1532.2C266.67 1514.35 246.383 1492.68 232.138 1467.97C206.962 1424.27 201.286 1372.04 202.073 1322.4C202.458 1296.42 205.644 1270.32 211.814 1245.08C217.783 1220.64 226.901 1197.18 238.51 1174.9C261.507 1130.74 296.661 1093.29 338.957 1067.12C359.72 1054.29 382.681 1044.26 406.264 1038.01C417.689 1034.99 429.279 1032.94 441.089 1032.18C446.435 1031.85 451.708 1032.24 457.018 1032.51C458.391 1032.59 459.746 1032.79 461.028 1033.14C463.427 1031.82 466.137 1030.94 468.993 1030.65C489.628 1028.45 510.318 1026.63 531.063 1025.74C541.28 1025.3 551.533 1025.28 561.75 1025.61C572.553 1025.96 583.319 1027.48 593.994 1029.11C604.302 1030.68 614.629 1033.63 624.516 1036.95C634.861 1040.39 645.133 1044.22 654.965 1048.89C665.988 1054.15 676.552 1060.01 686.989 1066.35C696.675 1072.23 705.463 1079.48 714.252 1086.61C723.151 1093.82 731.115 1102.27 739.172 1110.42C746.807 1118.15 753.435 1126.94 760.136 1135.44C789.469 1172.59 806.314 1218.17 812.447 1264.82C814.425 1279.79 815.194 1294.77 814.718 1309.87C814.205 1325.53 811.715 1341.06 808.218 1356.31C804.94 1370.48 800.381 1384.2 794.961 1397.69C789.029 1412.4 781.046 1426.39 772.422 1439.67C763.615 1453.25 753.05 1465.61 742.889 1478.18C739.19 1482.74 734.814 1486.88 730.841 1491.18C724.194 1498.36 717.2 1505.12 709.858 1511.59C698.89 1521.26 687.025 1529.96 674.63 1537.77C667.91 1542.02 660.971 1545.86 654.086 1549.82C644.437 1555.33 634.495 1560.17 624.534 1565.1C619.591 1567.53 614.262 1569.38 609.191 1571.49C600.677 1575.02 592.144 1578.25 583.374 1581.07C561.512 1588.1 538.57 1592.04 515.719 1593.65C509.238 1594.11 502.756 1594.59 496.256 1595.05C491.166 1595.41 486.039 1595.56 480.912 1595.56C472.728 1595.56 464.544 1595.19 456.432 1594.7V1594.61ZM485.234 1554.97C500.87 1554.6 516.617 1553.41 532.125 1551.32C542.928 1549.65 553.602 1547.47 564.149 1544.67C573.212 1542.01 582.184 1539.01 590.881 1535.4C596.063 1533.26 601.244 1531.1 606.408 1528.95C613.402 1525.49 620.378 1522.05 627.372 1518.6C630.906 1516.86 634.275 1514.67 637.699 1512.71C640.72 1510.98 643.741 1509.24 646.762 1507.52C655.588 1502.1 664.138 1496.42 672.396 1490.17C680.91 1483.4 689.021 1476.18 696.803 1468.56C699.22 1465.94 701.655 1463.32 704.072 1460.72C706.8 1457.75 709.784 1454.91 712.33 1451.78C718.646 1443.99 725.055 1436.28 731.115 1428.3C737.158 1420.03 742.687 1411.5 747.777 1402.61C752.135 1394.5 756.108 1386.22 759.569 1377.66C763.084 1368.21 766.069 1358.63 768.577 1348.85C770.646 1339.84 772.312 1330.81 773.448 1321.65C774.235 1313.5 774.619 1305.36 774.601 1297.17C774.326 1287.5 773.557 1277.92 772.294 1268.31C770.536 1256.82 768.229 1245.48 765.263 1234.23C762.572 1224.85 759.422 1215.66 755.724 1206.63C752.135 1198.48 748.18 1190.6 743.749 1182.89C739.208 1175.43 734.21 1168.34 729.193 1161.18C724.689 1155.48 720.203 1149.81 715.387 1144.38C710.169 1138.47 704.713 1132.88 699.183 1127.27C695.649 1124.09 692.097 1120.9 688.582 1117.71C685.176 1114.65 681.459 1111.87 677.871 1108.99C674.392 1106.56 670.931 1104.1 667.471 1101.66C663.735 1099.03 659.597 1096.85 655.661 1094.5C650.955 1091.96 646.268 1089.43 641.434 1087.14C636.307 1084.68 631.107 1082.45 625.889 1080.23C615.526 1076.42 605.144 1073.05 594.451 1070.32C587.329 1068.91 580.206 1067.78 573.011 1066.88C563.966 1066.07 554.975 1065.69 545.894 1065.63C521.249 1066.18 496.714 1068.25 472.197 1070.84C469.945 1071.07 467.729 1070.89 465.624 1070.34C462.475 1072.08 458.849 1073 455.059 1072.81C451.965 1072.65 448.925 1072.45 445.813 1072.39C441.821 1072.54 437.866 1072.89 433.893 1073.38C427.704 1074.39 421.607 1075.67 415.528 1077.25C406.63 1079.85 397.951 1082.94 389.364 1086.44C380.41 1090.33 371.75 1094.7 363.254 1099.54C354.96 1104.58 346.995 1110.05 339.286 1115.92C330.516 1122.9 322.185 1130.31 314.257 1138.21C306.86 1145.94 299.957 1154.09 293.494 1162.61C287.305 1171.2 281.666 1180.07 276.502 1189.3C270.826 1199.92 265.736 1210.79 261.25 1221.96C257.314 1232.42 253.963 1243.01 251.125 1253.83C248.14 1266.33 245.962 1278.91 244.442 1291.68C242.849 1307.25 242.153 1322.82 242.318 1338.46C242.684 1353.19 243.874 1367.77 245.87 1382.35C247.371 1392.01 249.331 1401.51 251.802 1410.97C253.835 1418 256.124 1424.91 258.888 1431.7C261.507 1437.51 264.381 1443.15 267.531 1448.68C270.881 1454.14 274.415 1459.4 278.278 1464.51C284.504 1472.24 291.15 1479.59 298.181 1486.58C306.128 1494.15 314.477 1501.26 323.192 1507.91C330.388 1513.11 337.84 1517.89 345.548 1522.3C354.758 1527.27 364.206 1531.7 373.91 1535.62C384.933 1539.8 396.065 1543.37 407.454 1546.36C419.63 1549.29 431.916 1551.49 444.348 1553.04C457.952 1554.47 471.556 1555.08 485.234 1554.97Z" fill="black"/>
<path d="M467.528 1233.76C461.962 1232.77 457.751 1229.58 454.364 1225.22C437.811 1203.86 421.937 1181.95 405.531 1160.49C396.615 1148.8 387.624 1137.17 378.762 1125.46C374.972 1120.42 371.31 1115.29 367.703 1110.13C365.689 1107.25 363.694 1104.36 361.771 1101.43C359.336 1097.76 356.681 1093.83 355.912 1089.39C354.008 1078.59 360.471 1067.81 371.494 1065.49C380.813 1063.53 390.938 1068.8 394.399 1077.63C408.937 1099.49 425.361 1120 441.254 1140.89C456.872 1161.37 471.978 1182.21 487.761 1202.56C494.499 1211.25 491.038 1224.73 482.396 1230.59C479.045 1232.86 475.035 1234.07 471.007 1234.07C469.835 1234.07 468.682 1233.98 467.51 1233.76H467.528Z" fill="black"/>
<path d="M566.199 1218.74C556.129 1215.55 549.19 1203.7 553.035 1193.4C562.263 1168.73 572.645 1144.49 582.88 1120.2C587.97 1108.15 593.078 1096.1 598.205 1084.06C601.318 1076.73 604.247 1069.04 608.294 1062.17C611.406 1056.91 615.27 1052.04 621.33 1050.08C623.417 1049.4 624.443 1049.2 626.622 1048.95C637.534 1047.68 647.477 1056.8 648.319 1067.47C648.776 1073.27 646.744 1078.53 643.155 1082.43C643.119 1082.49 643.082 1082.56 643.046 1082.61C637.827 1093.26 633.415 1104.32 628.782 1115.22C624.534 1125.22 620.323 1135.24 616.094 1145.24C608.532 1163.18 601.025 1181.11 593.92 1199.23C593.115 1201.33 592.309 1203.44 591.522 1205.55C589.599 1210.69 586.359 1214.98 581.342 1217.49C578.522 1218.92 575.391 1219.63 572.26 1219.63C570.228 1219.63 568.177 1219.32 566.218 1218.7L566.199 1218.74ZM630.778 1089.04C631.291 1088.97 631.803 1088.9 632.316 1088.82C633.103 1088.62 633.872 1088.38 634.66 1088.16C634.989 1088 635.319 1087.84 635.648 1087.67C634.11 1088.31 632.481 1088.77 630.778 1089.04Z" fill="black"/>
<path d="M458.666 1216.04C457.769 1204.87 466.247 1195.51 477.159 1194.32C488.035 1193.15 498.893 1192.08 509.751 1190.73C528.445 1187.89 547.048 1184.39 565.431 1179.92C576.105 1177.32 587.109 1185.01 589.325 1195.51C591.65 1206.52 584.418 1216.81 573.743 1219.42C557.759 1223.32 541.591 1226.39 525.405 1229.12C510.483 1231.65 495.396 1232.95 480.363 1234.56C479.704 1234.64 479.063 1234.67 478.423 1234.67C468.297 1234.67 459.472 1226.16 458.666 1216.06V1216.04Z" fill="black"/>
<path d="M392.275 1416.19C382.132 1412.98 375.375 1401.2 379.129 1390.87C384.622 1375.71 391.25 1360.98 398.006 1346.38C405.165 1330.92 412.306 1315.46 419.355 1299.96C431.879 1272.45 443.176 1244.4 454.638 1216.45C454.693 1216.28 454.766 1216.14 454.84 1215.97C454.913 1215.79 454.986 1215.61 455.059 1215.42C455.023 1215.5 455.004 1215.59 454.968 1215.66C459.124 1206.24 469.487 1200.84 479.668 1204.05C489.885 1207.27 496.476 1219.03 492.832 1229.38C490.599 1235.74 487.687 1241.91 485.161 1248.16C482.268 1255.26 479.375 1262.37 476.463 1269.48C470.678 1283.66 464.654 1297.78 458.319 1311.72C445.428 1340.19 431.568 1368.31 419.74 1397.25C419.007 1399.17 418.275 1401.09 417.579 1403.04C414.54 1411.43 406.85 1417.12 398.262 1417.12C396.285 1417.12 394.271 1416.83 392.257 1416.19H392.275Z" fill="black"/>
<path d="M635.007 1353.91C632.133 1348.76 629.203 1343.67 626.255 1338.57C626.695 1339.33 627.134 1340.09 627.574 1340.86C616.057 1321.36 604.101 1302.16 591.906 1283.09C580.389 1265.1 568.653 1247.2 555.671 1230.22C555.342 1229.84 555.012 1229.45 554.683 1229.05C554.811 1229.18 554.939 1229.31 555.067 1229.43C554.975 1229.31 554.866 1229.18 554.774 1229.05C549.354 1223.19 547.505 1214.52 551.112 1206.79C555.69 1197.05 568.104 1192.14 577.936 1197.05C584.546 1200.36 588.665 1206.87 592.932 1212.66C596.868 1218.02 600.805 1223.37 604.522 1228.89C612.596 1240.88 620.524 1252.97 628.324 1265.17C643.155 1288.33 657.712 1311.74 671.059 1335.79C676.406 1345.39 671.59 1358.12 662.069 1362.88C659.195 1364.33 656.192 1365.01 653.244 1365.01C645.847 1365.01 638.816 1360.78 635.007 1353.91Z" fill="black"/>
<path d="M474.156 1508.24C459.399 1494.17 444.934 1479.79 430.378 1465.54C421.168 1456.67 411.921 1447.84 402.712 1438.99C398.244 1434.69 393.795 1430.35 389.492 1425.92C383.047 1419.27 374.075 1411.15 375.21 1400.89C375.833 1395.42 377.737 1390.56 381.93 1386.81C385.848 1383.29 391.103 1381.44 396.34 1381.7C403.151 1382.03 409.724 1386.26 413.148 1392.17C418.531 1398.47 424.683 1404.17 430.597 1409.96C429.956 1409.32 429.279 1408.68 428.638 1408.04C447.644 1426.3 466.539 1444.64 485.362 1463.08C484.721 1462.44 484.062 1461.8 483.403 1461.16C489.005 1466.64 494.645 1472.08 500.303 1477.5C504.239 1481.25 506.894 1485.72 507.334 1491.24C507.755 1496.55 506.015 1501.88 502.573 1505.93C498.71 1510.45 492.686 1513.02 486.735 1513.02C482.158 1513.02 477.617 1511.5 474.156 1508.2V1508.24Z" fill="black"/>
<path d="M604.339 1500.16C593.792 1496.82 587.97 1485.32 591.174 1474.82C597.473 1454.33 604.156 1433.94 611.168 1413.68C614.885 1402.93 618.657 1392.17 622.447 1381.44C624.425 1375.83 626.439 1370.21 628.435 1364.62C630.577 1358.65 632.463 1352.29 635.795 1346.87C640.098 1339.84 648.411 1336.76 656.32 1337.9C656.357 1337.9 656.394 1337.9 656.448 1337.9C664.34 1339.03 671.096 1345.85 672.634 1353.59C672.799 1354.49 672.927 1355.41 673.019 1356.32C673.477 1360.89 672.213 1365.26 669.796 1368.89C669.796 1368.93 669.778 1368.96 669.76 1368.98C655.332 1407.91 641.819 1447.29 629.643 1486.97C627.025 1495.52 618.804 1501.04 610.235 1501.04C608.257 1501.04 606.28 1500.74 604.321 1500.14L604.339 1500.16Z" fill="black"/>
<path d="M480.382 1508.64C479.503 1497.5 487.962 1488.03 498.874 1486.93C501.566 1486.66 504.386 1486.73 507.169 1486.79C508.304 1486.82 509.439 1486.84 510.556 1486.86C543.331 1486.15 576.014 1483.03 608.642 1480.14C619.591 1479.17 629.478 1487.78 630.339 1498.64C631.217 1509.67 622.795 1519.39 611.846 1520.36C575.281 1523.61 538.497 1527.45 501.749 1527.18C501.236 1527.21 500.705 1527.25 500.193 1527.25C490.013 1527.25 481.169 1518.81 480.345 1508.64H480.382Z" fill="black"/>
<path d="M477.58 1582.26C466.997 1578.93 461.248 1567.44 464.416 1556.94C466.796 1549.09 469.268 1541.26 471.831 1533.46C473.552 1528.2 475.365 1522.98 477.525 1517.85C480.071 1511.83 485.051 1505.2 491.679 1503.35C496.824 1501.92 501.914 1501.81 506.858 1504.12C511.746 1506.41 515.61 1510.64 517.368 1515.75C519.62 1522.21 518.155 1530 513.87 1535.4C513.779 1535.62 513.687 1535.84 513.577 1536.06C509.531 1546.89 506.235 1558.03 502.903 1569.09C500.321 1577.64 492.045 1583.16 483.476 1583.16C481.499 1583.16 479.521 1582.87 477.58 1582.26Z" fill="black"/>
<path d="M614.043 1538.24C611.425 1536.23 608.825 1534.18 606.225 1532.14C605.895 1531.9 605.547 1531.68 605.181 1531.5C605.401 1531.63 605.639 1531.76 605.877 1531.89C605.877 1531.89 605.84 1531.87 605.822 1531.85C597.161 1526.5 593.298 1515.51 597.766 1505.95C602.325 1496.18 614.757 1491.29 624.589 1496.2C630.302 1499.06 635.172 1503.64 640.208 1507.54C648.923 1514.26 649.344 1527.93 642.478 1535.99C638.468 1540.68 633.012 1542.93 627.464 1542.93C622.777 1542.93 618.034 1541.32 614.043 1538.24Z" fill="black"/>
<path d="M660.33 1350.3C659.835 1340.52 666.28 1330.59 676.369 1328.87C680.947 1328.08 685.707 1328.15 690.431 1328.24C691.731 1328.26 693.049 1328.28 694.349 1328.3C722.986 1327.16 751.641 1324.67 780.131 1321.61C791.061 1320.42 800.985 1329.38 801.846 1340.11C802.725 1351.31 794.266 1360.65 783.335 1361.82C768.577 1363.43 753.746 1364.64 738.952 1365.85C720.551 1367.39 702.131 1368.78 683.656 1368.62C683.125 1368.71 682.576 1368.76 682.027 1368.82C681.533 1368.85 681.02 1368.87 680.525 1368.87C670.364 1368.87 660.861 1360.78 660.33 1350.3Z" fill="black"/>
<path d="M382.003 1419.56C370.999 1418.84 360.123 1415.79 349.266 1414.08C337.291 1412.2 325.261 1410.58 313.25 1408.97C290.034 1405.86 266.853 1402.65 243.746 1398.9C232.889 1397.14 225.528 1386.17 227.432 1375.47C229.392 1364.53 240.011 1357.41 250.851 1359.15C272.877 1362.74 294.959 1365.83 317.077 1368.8C328.539 1370.34 340.056 1371.79 351.481 1373.58C362.504 1375.3 373.398 1377.81 384.439 1379.28C385.006 1379.33 385.574 1379.41 386.141 1379.5C396.065 1381.18 403.646 1390.01 403.151 1400.36C402.657 1410.82 393.667 1419.58 383.212 1419.58C382.827 1419.58 382.425 1419.58 382.022 1419.54L382.003 1419.56Z" fill="black"/>
<path d="M898.76 315.377C895.006 313.893 891.948 310.578 889.385 307.574C886.931 304.698 884.551 301.73 882.208 298.744C876.586 291.563 871.13 284.291 865.784 276.909C855.823 263.17 846.375 249.047 836.909 234.979C830.775 225.875 833.174 213.143 842.292 206.952C851.356 200.797 864.172 203.197 870.306 212.319C883.379 231.773 896.599 251.154 910.734 269.856C913.664 273.63 916.593 277.404 919.761 280.994C927.012 286.471 929.392 297.462 925.583 305.614C923.295 310.523 919.047 314.37 913.957 316.128C911.833 316.861 909.727 317.209 907.64 317.209C904.655 317.209 901.689 316.531 898.778 315.377H898.76Z" fill="black"/>
<path d="M994.264 200.614C991.59 196.731 990.034 191.803 988.661 187.334C987.764 184.403 986.885 181.472 986.024 178.523C983.022 168.026 980.184 157.493 977.382 146.924C974.562 136.299 982.619 125.199 992.945 123.019C998.09 121.938 1003.57 122.927 1008 125.785C1012.7 128.789 1015.45 133.313 1016.86 138.626C1018.56 145.092 1020.3 151.558 1022.08 158.006C1022.02 157.841 1021.98 157.677 1021.93 157.512C1023.85 164.454 1025.76 171.397 1028.16 178.193C1030.9 181.38 1032.71 185.41 1033.04 189.733C1033.94 200.889 1025.46 210.305 1014.55 211.459C1013.89 211.532 1013.23 211.569 1012.57 211.569C1004.9 211.569 998.548 206.806 994.264 200.633V200.614Z" fill="black"/>
<path d="M1135.71 186.381C1135.27 182.479 1135.71 178.431 1136.22 174.566C1136.66 171.104 1137.17 167.605 1137.89 164.179C1139.24 157.786 1140.65 151.412 1142.22 145.074C1142.13 145.44 1142.04 145.788 1141.95 146.154C1144.5 135.75 1147.13 125.381 1149.88 115.032C1152.7 104.407 1165.08 98.6919 1175.2 101.879C1180.35 103.51 1184.72 107.247 1187.14 112.064C1189.56 116.864 1189.7 122.066 1188.35 127.195C1186.3 134.852 1184.28 142.527 1182.4 150.221C1182.6 149.378 1182.8 148.536 1183.02 147.693C1180.33 158.739 1177.53 169.803 1176.01 181.087C1175.95 181.728 1175.91 182.369 1175.9 183.01C1175.9 183.065 1175.9 183.12 1175.9 183.175C1177.12 194.093 1168.08 204.04 1157.4 204.882C1156.85 204.919 1156.31 204.937 1155.77 204.937C1145.28 204.937 1136.86 196.749 1135.69 186.363L1135.71 186.381Z" fill="black"/>
<path d="M1319.21 252.18C1308.7 248.864 1302.76 237.324 1306.04 226.846C1308.57 218.767 1312.4 211.184 1316.15 203.637C1319.74 196.456 1323.88 189.532 1327.92 182.589C1335.92 168.96 1344.88 155.844 1353.81 142.82C1360 133.753 1372.21 130.657 1381.68 136.72C1390.71 142.527 1394 155.533 1387.78 164.582C1377.05 180.244 1366.74 196.144 1357.13 212.521C1353.1 219.995 1349.29 227.523 1345.81 235.29C1345.35 236.518 1344.9 237.745 1344.51 238.991C1341.84 247.527 1333.67 253.059 1325.1 253.059C1323.12 253.059 1321.15 252.766 1319.19 252.143L1319.21 252.18Z" fill="black"/>
<path d="M1438.97 322.668C1429.98 316.897 1426.58 303.818 1432.87 294.787C1444.17 278.558 1456.64 263.06 1468.78 247.472C1480.97 231.865 1493.35 216.422 1505.78 200.998C1512.7 192.444 1526.03 191.748 1534.22 198.727C1542.75 206.018 1543.39 218.621 1536.49 227.175C1514.17 254.835 1492.11 282.716 1470.72 311.127C1469.42 312.922 1468.1 314.718 1466.82 316.549C1462.76 322.393 1456.24 325.8 1449.57 325.8C1445.97 325.8 1442.3 324.811 1438.97 322.668Z" fill="black"/>
<path d="M1480.19 398.414C1477.92 387.569 1485.04 376.908 1495.77 374.509C1497.05 374.234 1498.31 373.904 1499.58 373.574C1511.72 369.453 1523.54 364.599 1535.43 359.872C1546.63 355.403 1557.82 350.951 1569.01 346.482C1579.21 342.397 1591.22 348.845 1594.7 358.865C1598.43 369.581 1592.52 380.499 1582.32 384.584C1569.54 389.694 1556.76 394.769 1544 399.861C1530.92 405.063 1517.87 410.925 1504.1 414.003C1502.71 414.314 1501.33 414.461 1499.96 414.461C1490.7 414.461 1482.15 407.719 1480.2 398.414H1480.19Z" fill="black"/>
</g>
<defs>
<clipPath id="clip0_157_194">
<rect width="1595" height="1798" fill="white" transform="translate(202 101)"/>
</clipPath>
</defs>
</svg>
