<svg width="2000" height="2000" viewBox="0 0 2000 2000" fill="none" xmlns="http://www.w3.org/2000/svg">
<g clip-path="url(#clip0_157_196)">
<path d="M873.984 761.879C868.779 761.429 863.574 760.685 858.387 760.045C853.337 759.44 848.236 758.973 843.204 758.177C833.382 756.638 823.509 755.34 813.722 753.507C802.672 751.431 791.674 749.373 780.729 746.917C769.524 744.408 758.457 741.589 747.355 738.648C737.395 736.002 727.66 732.629 717.838 729.515C694.01 721.921 671.133 710.955 649.881 697.843C626.744 683.59 605.216 666.448 586.61 646.625C567.295 626.058 552.683 601.46 542.585 575.168C532.521 548.979 527.333 520.715 525.414 492.814C523.408 463.754 526.521 434.815 533.299 406.55C539.853 379.272 550.591 352.859 564.459 328.503C578.137 304.477 596.484 283.322 616.387 264.295C636.705 244.887 659.616 228.471 683.808 214.27C695.203 207.593 707.152 201.867 718.927 195.865C722.282 194.17 725.81 192.734 729.233 191.212C735.476 188.462 741.718 185.711 747.978 182.944C756.745 179.086 765.892 176.007 774.832 172.582C779.086 170.939 783.547 169.728 787.905 168.31C792.504 166.788 797.087 165.092 801.756 163.83C810.747 161.391 819.67 158.658 828.8 156.72C834.264 155.579 839.729 154.42 845.193 153.261C850.519 152.137 856.035 151.635 861.43 150.857C871.719 149.404 882.076 148.867 892.417 149.404C894.025 148.764 895.737 148.331 897.518 148.037C907.496 146.411 917.507 145.096 927.571 144.093C937.877 143.073 948.304 142.934 958.662 142.796C978.963 142.536 999.281 143.868 1019.44 146.048C1039.42 148.21 1059.2 152.379 1078.46 157.966C1087.94 160.716 1097.29 163.83 1106.63 166.995C1116.14 170.23 1125.7 173.793 1134.92 177.806C1153.7 185.988 1172.44 194.741 1189.35 206.417C1198.28 212.557 1207.11 218.733 1215.29 225.825C1223.59 233.038 1231.53 240.476 1239 248.519C1267.53 279.257 1287.93 315.945 1305.55 353.723C1310 363.289 1313.96 373.01 1317.47 382.922C1321.13 393.318 1323.69 403.887 1325.82 414.698C1327.84 424.955 1328.71 435.351 1329.47 445.764C1330.25 456.299 1329.69 466.85 1329.09 477.384C1327.88 498.09 1324.44 518.881 1319.49 539.016C1317.07 548.927 1314.29 558.787 1310.55 568.301C1306.68 578.178 1302.65 588.02 1297.41 597.274C1292.15 606.529 1286.86 615.904 1280.38 624.38C1276.57 629.344 1272.84 634.378 1268.83 639.187C1259.39 650.517 1248.89 660.93 1237.53 670.322C1229.99 676.55 1222.16 682.5 1214.03 687.983C1213.04 688.796 1211.97 689.506 1210.81 690.111C1209.69 690.837 1208.56 691.564 1207.42 692.291C1204.48 694.141 1201.53 695.975 1198.59 697.826C1197.93 698.241 1197.29 698.639 1196.65 699.037C1195.54 699.78 1194.37 700.438 1193.19 701.078C1188.04 703.897 1182.89 706.682 1177.77 709.484C1172.91 712.114 1167.74 714.259 1162.76 716.628C1158.16 718.825 1153.47 720.745 1148.77 722.7C1139.67 726.453 1130.49 730.138 1121.12 733.13C1110.71 736.451 1100.35 739.807 1089.84 742.748C1079.03 745.758 1068.21 748.439 1057.31 751.085C1053.58 751.985 1049.81 752.694 1046.06 753.455C1040.54 754.579 1035.02 755.842 1029.47 756.707C1019.6 758.264 1009.78 759.959 999.851 761.101C994.041 761.775 988.249 762.432 982.439 763.107C977.044 763.73 971.51 763.799 966.063 764.162C954.91 764.854 943.809 764.958 932.638 765.096C931.445 765.096 930.269 765.114 929.076 765.114C910.677 765.114 892.313 763.332 874.001 761.792L873.984 761.879ZM914.499 726.574C920.43 726.782 926.344 727.18 932.275 727.111C939.693 727.007 947.077 726.92 954.478 726.834C965.925 726.125 977.303 725.433 988.698 724.118C1000.56 722.734 1012.32 720.97 1024.09 719.119C1034.9 716.94 1045.64 714.777 1056.36 712.183C1067.34 709.519 1078.2 706.526 1089.08 703.499C1097.88 700.697 1106.66 697.93 1115.34 694.816C1124.82 691.408 1134.09 687.637 1143.39 683.797C1148.84 681.203 1154.27 678.608 1159.71 676.013C1165.53 673.246 1171.08 669.821 1176.73 666.742C1176.56 666.846 1176.4 666.967 1176.23 667.07C1179.65 664.908 1183.08 662.763 1186.52 660.618C1187.87 659.771 1189.18 658.906 1190.51 658.11C1193.16 655.914 1196.18 654.045 1198.92 652.056C1204.17 648.233 1209.31 644.359 1214.34 640.242C1220.96 634.534 1227.24 628.531 1233.24 622.166C1239.45 615.195 1245.09 607.895 1250.77 600.492C1253.28 596.721 1255.77 592.95 1258.28 589.179C1260.89 585.235 1263.05 580.911 1265.35 576.759C1267.34 572.591 1269.33 568.439 1271.32 564.288C1273.27 560.188 1274.72 555.76 1276.35 551.47C1277.82 546.748 1279.31 542.043 1280.79 537.338C1282.26 532.668 1283.2 527.755 1284.32 522.981C1285.72 515.647 1287.14 508.347 1288.23 500.944C1289.35 493.281 1290.18 485.618 1290.99 477.938C1291.25 473.354 1291.53 468.787 1291.79 464.204C1292.03 459.81 1291.79 455.295 1291.72 450.867C1291.39 446.404 1291.06 441.941 1290.74 437.496C1290.42 433.258 1289.65 429.02 1289.06 424.817C1288.26 420.804 1287.47 416.773 1286.69 412.76C1285.91 408.834 1284.61 404.924 1283.49 401.05C1281.93 396.622 1280.38 392.193 1278.8 387.765C1277.11 382.956 1274.86 378.303 1272.87 373.616C1267.81 362.736 1262.67 351.907 1257.02 341.304C1251.4 330.804 1245.4 320.598 1239.12 310.514C1233.79 302.782 1228.35 295.257 1222.67 287.785C1223.23 288.442 1223.8 289.117 1224.33 289.757C1220.12 284.74 1215.97 279.724 1211.5 274.915C1207.01 270.072 1202.34 265.488 1197.6 260.904C1194.59 258.31 1191.6 255.715 1188.61 253.103C1185.22 250.162 1181.47 247.55 1177.92 244.783C1172.68 241.168 1167.44 237.587 1162.01 234.231C1156.24 230.651 1150.31 227.381 1144.34 224.129C1135.99 220.116 1127.62 216.276 1119.11 212.575C1111.3 209.15 1103.21 206.296 1095.16 203.39C1086.16 200.345 1077.15 197.353 1068.02 194.723C1059.35 192.215 1050.64 190.14 1041.85 188.185C1029.97 186.005 1018.16 184.31 1006.16 183.013C985.43 181.37 964.766 180.712 943.964 181.283C934.575 181.802 925.237 182.719 915.917 183.93C911.801 187.545 906.181 189.43 900.458 188.565C897.501 188.116 894.561 187.822 891.604 187.545C887.8 187.372 884.03 187.337 880.243 187.406C871.217 187.96 862.346 189.292 853.389 190.572C846.645 191.973 839.763 193.063 833.123 194.862C825.912 196.834 818.684 198.788 811.456 200.76C804.937 202.888 798.436 205.015 791.917 207.143C785.795 209.15 779.83 211.571 773.829 213.889C761.621 218.577 749.724 223.887 737.758 229.146C731.481 232.328 725.222 235.529 718.962 238.694C709.4 243.572 700.131 248.83 691.001 254.469C679.225 262.046 667.916 270.21 657.092 279.084C646.578 288.027 636.618 297.506 627.194 307.591C619.724 315.911 612.686 324.594 606.202 333.727C600.668 341.996 595.654 350.558 591.054 359.38C586.316 369.032 582.149 378.892 578.431 388.993C574.558 400.098 571.255 411.359 568.626 422.828C566.517 432.895 564.909 443.014 563.871 453.237C563.024 464.117 562.799 474.98 563.179 485.895C563.802 496.827 565.03 507.655 566.776 518.449C568.73 529.208 571.237 539.777 574.35 550.242C576.909 558.199 579.832 565.966 583.203 573.611C586.437 580.444 589.965 587.069 593.838 593.555C598.282 600.475 603.072 607.117 608.225 613.517C614.139 620.436 620.416 626.957 627.056 633.184C636.255 641.401 645.904 649.064 655.95 656.19C666.671 663.542 677.704 670.305 689.22 676.359C701.169 682.344 713.411 687.464 725.948 692.031C737.551 696.113 749.361 699.728 761.258 702.877C767.051 704.416 772.809 706.111 778.654 707.409C785.104 708.862 791.571 710.315 798.021 711.75C811.162 714.207 824.252 716.611 837.446 718.669C850.692 720.728 863.972 722.302 877.269 723.945C889.702 725 902.1 726.056 914.551 726.523L914.499 726.574Z" fill="black"/>
<path d="M827.849 459.117C825.774 433.534 826.622 407.813 827.313 382.195C827.676 368.997 828.057 355.764 828.455 342.566C828.627 336.598 828.835 330.648 829.042 324.68C829.285 317.311 829.198 309.475 830.962 302.297C833.452 292.212 844.847 286.469 854.531 289.237C864.352 292.057 869.592 301.847 867.88 311.499C867.949 311.188 868.018 310.876 868.07 310.565C867.966 311.101 867.88 311.638 867.794 312.191C866.272 334.297 866.099 356.525 865.494 378.666C864.923 400.046 864.301 421.443 864.94 442.823C865.148 446.923 865.39 451.022 865.719 455.122C866.566 465.448 859.269 474.962 848.772 476.069C848.15 476.138 847.51 476.173 846.888 476.173C837.429 476.173 828.627 468.839 827.832 459.117H827.849Z" fill="black"/>
<path d="M961.705 478.716C951.244 478.474 942.978 469.6 943.099 459.222C943.376 433.12 943.739 407 944.12 380.898C944.31 368.599 944.587 356.318 944.811 344.019C944.95 336.72 945.053 329.438 945.123 322.138C945.157 319.094 945.174 316.032 945.209 312.987C945.244 310.548 945.123 308.023 945.52 305.601C947.232 295.361 956.864 288.062 967.222 289.636C977.026 291.141 984.392 300.447 983.338 310.306C983.13 315.115 983.251 319.941 983.199 324.75C983.147 331.946 983.009 339.124 982.871 346.32C982.663 358.134 982.421 369.966 982.196 381.78C981.73 407.882 981.47 433.985 981.176 460.104C981.072 470.344 972.219 478.716 962.121 478.716C961.982 478.716 961.844 478.716 961.688 478.716H961.705Z" fill="black"/>
<path d="M860.686 619.035C838.968 608.777 820.033 593.538 804.298 575.479C796.983 567.09 790.585 558.026 785 548.408C782.129 543.461 779.76 538.255 777.564 532.979C776.112 529.502 774.763 525.575 774.469 521.805C773.829 513.588 778.394 504.628 786.66 501.999C791.432 500.459 796.309 500.304 800.995 502.327C805.664 504.351 809.416 508.278 811.232 513.052C811.681 514.228 811.992 515.439 812.183 516.667C812.926 518.777 813.756 520.836 814.655 522.877C816.54 526.7 818.581 530.436 820.777 534.086C823.924 538.877 827.278 543.478 830.858 547.959C835.354 553.217 840.074 558.199 845.089 562.973C849.585 566.969 854.254 570.688 859.13 574.216C863.989 577.468 868.986 580.461 874.157 583.211C879.223 585.702 884.376 587.916 889.65 589.923C894.89 591.687 900.164 593.209 905.559 594.472C909.83 595.302 914.084 595.977 918.389 596.478C923.093 596.807 927.762 596.946 932.482 596.842C936.408 596.582 940.298 596.167 944.189 595.596C948.131 594.835 952.022 593.918 955.895 592.846C959.821 591.549 963.66 590.113 967.481 588.504C971.873 586.429 976.127 584.163 980.294 581.672C984.842 578.696 989.217 575.566 993.471 572.175C998.088 568.214 1002.5 564.063 1006.7 559.652C1013.2 552.387 1019.18 544.758 1024.87 536.819C1028.07 532.027 1031.39 527.271 1034.31 522.289C1037.82 516.338 1041.16 510.353 1044.43 504.282C1049.5 493.851 1054.23 483.335 1058.18 472.42C1061.7 462.647 1074.14 458.582 1083.23 462.508C1087.9 464.532 1091.65 468.459 1093.47 473.233C1095.29 478.041 1094.85 482.833 1093.12 487.572C1087.09 504.282 1079.52 520.576 1070.51 535.902C1052.49 566.571 1030.22 595.908 999.385 614.606C988.871 620.989 977.597 626.265 965.735 629.638C953.89 632.994 941.976 634.62 929.698 635C928.488 635.035 927.277 635.052 926.067 635.052C903.553 635.052 880.866 628.566 860.686 619.017V619.035Z" fill="black"/>
<path d="M1387.66 593.434C1377.39 592.414 1367.49 590.321 1357.55 587.553C1346.5 584.474 1335.87 580.133 1326.17 573.975C1317.19 568.301 1309.03 561.174 1302.01 553.235C1295.13 545.451 1294.92 533.654 1302.62 526.285C1309.93 519.314 1322.67 519.124 1329.56 526.908C1331.79 529.416 1334.09 531.786 1336.52 534.086C1338.96 536.162 1341.45 538.134 1344.01 540.054C1346.64 541.835 1349.29 543.531 1352.07 545.07C1354.3 546.091 1356.53 546.99 1358.81 547.872C1365.73 550.225 1372.68 552.197 1379.77 553.892C1384.23 554.636 1388.66 555.224 1393.14 555.708C1395.92 555.777 1398.69 555.847 1401.46 555.916C1403.91 555.795 1406.37 555.691 1408.82 555.553C1411.93 555.414 1415.06 554.826 1418.18 554.394C1421.43 553.719 1424.68 553.062 1427.91 552.387C1431.39 551.678 1434.81 550.536 1438.24 549.533C1448.14 546.212 1457.91 542.735 1467.48 538.497C1473.03 535.85 1478.42 532.996 1483.7 529.831C1488.17 526.908 1492.46 523.794 1496.63 520.438C1500.59 516.979 1504.34 513.346 1507.96 509.523C1511.17 505.822 1514.22 502.016 1517.1 498.055C1520.16 493.471 1523 488.784 1525.61 483.94C1529.14 476.71 1531.96 469.306 1534.71 461.765C1536.95 454.396 1539.06 447.044 1540.95 439.606C1540.79 439.641 1540.64 439.676 1540.48 439.71C1531.99 441.751 1523.24 442.858 1514.58 443.983C1492.6 446.837 1469.6 445.107 1449.58 435.109C1429.38 425.024 1413.78 407.433 1402.13 388.44C1373.37 341.615 1366.08 286.297 1343.87 236.705C1340.83 230.374 1337.53 224.216 1333.88 218.214C1331.42 214.46 1328.83 210.845 1326.05 207.333C1323.54 204.445 1320.91 201.677 1318.14 199.031C1316.02 197.232 1313.87 195.519 1311.64 193.859C1308.44 191.714 1305.19 189.742 1301.8 187.891C1298.53 186.334 1295.23 184.933 1291.83 183.653C1289.14 182.823 1286.48 182.079 1283.77 181.422C1281.1 180.954 1278.46 180.574 1275.8 180.28C1273.18 180.159 1270.61 180.124 1268 180.193C1265.4 180.401 1262.86 180.712 1260.3 181.093C1257.83 181.629 1255.43 182.235 1253.02 182.926C1250.69 183.774 1248.41 184.673 1246.14 185.659C1243.79 186.853 1241.49 188.116 1239.22 189.482C1235.7 191.817 1232.32 194.274 1229.02 196.92C1226.6 199.065 1224.28 201.279 1222.05 203.597C1220.29 205.69 1218.61 207.835 1217 210.049C1215.29 212.661 1213.7 215.325 1212.2 218.093C1211.64 219.269 1211.12 220.445 1210.66 221.656C1209.93 231.446 1200.99 239.196 1191.22 238.971C1180.67 238.729 1172.61 229.855 1172.61 219.476C1172.61 212.592 1175.73 205.656 1178.86 199.671C1184.1 189.707 1190.79 180.833 1198.76 172.911C1206.66 165.041 1216.07 158.641 1225.77 153.226C1235.7 147.691 1246.73 144.768 1257.85 142.917C1268.5 141.153 1279.67 141.948 1290.23 143.868C1301.59 145.944 1312.23 150.39 1322.41 155.717C1332.17 160.82 1340.85 167.86 1348.65 175.575C1356.44 183.29 1362.67 192.406 1368.39 201.712C1374.15 211.052 1378.68 221.102 1382.99 231.152C1386.67 239.749 1389.84 248.623 1392.64 257.514C1395.35 266.059 1398.08 274.587 1400.75 283.149C1407.47 304.788 1414.08 326.514 1423.3 347.254C1426.84 354.813 1430.68 362.165 1435 369.309C1438.06 374.048 1441.33 378.58 1444.86 382.957C1447.31 385.741 1449.84 388.44 1452.5 391.035C1454.94 393.197 1457.43 395.238 1460.06 397.175C1462.03 398.438 1464 399.631 1466.04 400.773C1468.12 401.776 1470.19 402.676 1472.34 403.541C1474.88 404.336 1477.42 405.046 1480 405.668C1482.62 406.135 1485.2 406.481 1487.85 406.758C1491.96 407 1496.02 407.035 1500.14 406.931C1508.37 406.412 1516.5 405.322 1524.63 404.008C1529.99 402.935 1535.28 401.707 1540.55 400.254C1542.63 399.562 1544.67 398.853 1546.71 398.075C1548.77 397.037 1550.77 395.93 1552.81 394.875C1556.32 393.093 1559.75 392.661 1563.62 392.574C1570.09 392.453 1577.19 396.743 1579.96 402.607C1581.93 406.724 1583.33 410.788 1583.12 415.459C1582.97 419.437 1582.55 423.398 1582.03 427.36C1581.34 432.756 1580.37 438.084 1579.16 443.377C1576.93 453.254 1574.13 462.924 1571.16 472.593C1565.5 490.946 1556.7 508.157 1545.46 523.69C1529.93 545.209 1508.09 561.451 1484.25 572.608C1473.32 577.728 1462.01 581.689 1450.58 585.495C1440.35 588.92 1429.55 591.307 1418.85 592.639C1412.44 593.434 1405.95 593.901 1399.48 593.901C1395.52 593.901 1391.56 593.728 1387.62 593.331L1387.66 593.434Z" fill="black"/>
<path d="M1187.07 343.916C1177.09 342.065 1167.01 339.92 1157.35 336.824C1147.14 333.572 1137.15 329.853 1127.14 326.1C1117.7 322.536 1108.2 318.367 1099.31 313.645C1094.87 311.293 1090.44 308.958 1086.02 306.588C1081.31 304.097 1076.82 301.087 1072.24 298.354C1067.74 295.673 1063.47 292.49 1059.13 289.567C1054.41 286.401 1049.98 282.803 1045.45 279.379C1027.43 265.679 1011.44 248.571 999.869 229.077C996.981 224.216 994.508 219.114 992.174 213.942C989.355 215.948 986.502 217.885 983.615 219.805C974.796 225.704 965.562 230.997 956.259 236.065C938.189 245.925 919.029 253.449 899.801 260.662C880.002 268.083 859.424 273.428 839.003 278.773C833.798 280.14 828.403 281.005 823.129 282.129C818.598 283.08 814.068 283.876 809.485 284.585C804.073 285.433 798.643 286.263 793.231 287.093C787.421 287.993 781.49 288.321 775.662 288.927C759.858 290.57 743.966 291.072 728.075 291.314C711.146 291.573 694.183 290.76 677.427 288.062C663.455 285.779 647.806 281.35 637.172 271.456C629.546 264.381 630.618 251.356 637.794 244.506C641.425 241.03 646.371 239.11 651.386 239.231C655.19 239.317 658.51 240.545 661.501 242.552C661.259 242.362 661.017 242.171 660.792 241.981C662.539 243.192 664.354 244.264 666.17 245.337C667.398 245.908 668.643 246.444 669.905 246.945C672.949 247.931 676.009 248.779 679.104 249.557C685.226 250.786 691.399 251.616 697.624 252.256C713.1 253.484 728.507 253.225 744.036 252.982C754.999 252.308 765.927 251.633 776.856 250.491C781.922 249.955 786.989 249.54 792.038 248.762C797.865 247.862 803.71 246.963 809.537 246.063C819.636 243.936 829.7 241.825 839.694 239.231C849.378 236.705 858.957 233.903 868.537 231.014C876.024 228.489 883.546 226.067 890.965 223.282C899.299 220.151 907.548 216.865 915.779 213.44C922.419 210.378 928.99 207.265 935.543 203.978C943.065 200.224 950.276 195.762 957.452 191.385C961.827 188.583 966.15 185.712 970.404 182.719C972.773 181.059 975.038 179.26 977.32 177.478C980.45 175.039 983.321 172.133 986.831 170.248C989.58 168.76 992.676 167.567 995.805 167.238C998.953 166.909 1001.86 167.584 1004.9 168.31C1011.77 169.971 1016.28 176.25 1019.6 181.993C1021.62 185.504 1023.06 189.535 1024.7 193.254C1025.67 195.416 1026.64 197.578 1027.59 199.757C1029.77 204.307 1032.08 208.735 1034.64 213.077C1037.29 217.142 1040.16 221.016 1043.22 224.804C1047.8 230.115 1052.66 235.097 1057.74 239.94C1064.7 246.184 1072.05 251.754 1079.48 257.393C1085.57 261.475 1091.62 265.558 1097.93 269.311C1104.38 273.169 1110.93 276.715 1117.56 280.226C1122.92 282.734 1128.24 285.329 1133.71 287.578C1140.02 290.19 1146.37 292.663 1152.76 295.068C1157.8 296.849 1162.81 298.579 1167.89 300.205C1173.2 301.9 1178.65 303.18 1184.08 304.495C1194.04 306.57 1204.02 308.231 1214.15 309.304C1221.05 309.84 1227.91 310.082 1234.83 309.892C1236.66 309.788 1238.51 309.684 1240.35 309.528C1250.69 308.698 1260.18 315.963 1261.29 326.48C1262.36 336.599 1254.7 346.597 1244.34 347.428C1239.33 347.825 1234.3 348.016 1229.28 348.016C1215.15 348.016 1201.04 346.511 1187.14 343.916H1187.07Z" fill="black"/>
<path d="M1308.27 1340.59C1304.38 1340.54 1300.54 1340.37 1296.65 1340.09C1290.41 1339.64 1284.1 1339.4 1277.85 1338.72C1268.52 1337.68 1259.13 1336.78 1249.82 1335.45C1238.93 1333.9 1228.14 1332.24 1217.33 1330.28C1206.35 1328.27 1195.53 1325.94 1184.65 1323.47C1180.66 1322.55 1176.57 1321.8 1172.61 1320.68C1166.17 1318.85 1159.72 1317.01 1153.25 1315.18C1143.05 1312.29 1133.1 1308.81 1123.06 1305.37C1112.92 1301.9 1103.08 1297.8 1093.18 1293.73C1073.9 1285.84 1055.86 1275.34 1037.79 1265.03C1028.23 1259.57 1019.1 1253.15 1010.12 1246.77C998.52 1238.52 987.471 1229.45 977.026 1219.8C965.804 1209.44 955.619 1198.26 945.261 1187.07C942.598 1184.2 940.229 1181.05 937.774 1178.03C933.364 1172.56 928.955 1167.13 924.58 1161.68C922.384 1158.95 920.517 1155.97 918.528 1153.12C914.603 1147.46 910.677 1141.81 906.752 1136.15C904.66 1133.14 902.896 1129.92 901.046 1126.77C897.415 1120.55 893.766 1114.34 890.117 1108.13C884.895 1099.2 880.762 1089.58 876.197 1080.31C871.563 1070.88 867.742 1061.08 863.661 1051.39C859.874 1042.36 856.537 1033.21 853.147 1024.03C849.896 1015.26 846.801 1006.52 843.896 997.629C840.714 987.908 837.239 978.221 834.472 968.362C831.238 956.893 828.022 945.39 824.789 933.922C823.682 930.03 823.025 925.948 822.16 921.987C820.621 915.033 819.1 908.062 817.561 901.108C816.489 896.248 815.918 891.249 815.174 886.319C814.137 879.296 813.082 872.256 812.027 865.216C811.128 859.213 810.938 853.021 810.402 846.984C809.918 841.501 809.347 836.035 809.139 830.534C808.828 822.542 808.534 814.551 808.223 806.559C807.998 800.765 808.223 794.97 808.292 789.175C808.344 783.173 808.603 777.205 808.863 771.22C809.174 763.834 809.174 755.895 812.65 749.235C816.558 741.71 826.414 738.476 834.265 740.707C842.634 743.112 848.046 750.896 848.046 759.475C848.046 760.963 847.856 762.399 847.51 763.765C846.749 774.939 846.438 786.079 846.317 797.288C846.196 808.393 846.767 819.498 847.199 830.586C848.098 840.757 848.98 850.928 849.914 861.099C850.381 866.375 851.487 871.685 852.265 876.944C852.957 881.631 853.649 886.302 854.34 890.972C855.568 896.542 856.779 902.112 858.024 907.681C859.286 913.459 860.254 919.409 861.862 925.1C865.234 937.122 868.624 949.144 872.013 961.166C877.27 977.114 882.336 993.063 888.163 1008.79C891.103 1016.74 893.852 1024.84 897.138 1032.66C900.908 1041.63 904.677 1050.59 908.447 1059.57C913.029 1068.84 917.594 1078.13 922.142 1087.4C924.459 1092.14 927.537 1096.64 930.2 1101.17C932.621 1105.32 935.042 1109.46 937.463 1113.59C943.169 1121.79 948.858 1130.01 954.547 1138.22C957.054 1141.84 960.15 1145.18 962.916 1148.6C966.046 1152.5 969.193 1156.37 972.323 1160.26C982.56 1171.33 992.641 1182.4 1003.67 1192.69C1014.38 1202.31 1025.65 1211.24 1037.41 1219.52C1045.95 1225.34 1054.63 1230.84 1063.61 1235.96C1069.24 1239.17 1074.9 1242.41 1080.52 1245.63C1084.2 1247.44 1087.9 1249.24 1091.59 1251.07C1095.27 1252.87 1098.9 1254.97 1102.7 1256.52C1111.14 1259.97 1119.56 1263.43 1127.98 1266.88C1134.9 1269.25 1141.8 1271.62 1148.72 1273.99C1154.84 1276.1 1161.05 1277.85 1167.29 1279.62C1173.89 1281.48 1180.47 1283.52 1187.14 1285.05C1194.87 1286.79 1202.58 1288.56 1210.33 1290.32C1221.86 1292.42 1233.36 1294.65 1244.98 1296.31C1257.54 1298.11 1270.11 1299.59 1282.73 1301C1289.58 1301.48 1296.44 1301.96 1303.27 1302.47C1305.75 1302.62 1308.25 1302.62 1310.76 1302.62C1312.06 1302.62 1313.35 1302.62 1314.65 1302.62C1318.4 1302.67 1322.14 1302.73 1325.87 1302.76C1335.83 1302.29 1345.76 1301.88 1355.68 1300.84C1360.56 1300.34 1365.49 1300.01 1370.35 1299.21C1376.21 1298.26 1382.05 1297.31 1387.93 1296.36C1394.42 1294.94 1400.9 1293.54 1407.39 1292.12C1413.39 1290.82 1419.3 1288.9 1425.21 1287.23C1430.85 1285.32 1436.49 1283.42 1442.13 1281.52C1447.76 1279.62 1453.26 1277.02 1458.76 1274.74C1463.97 1272.19 1469.19 1269.65 1474.39 1267.11C1479.67 1264.53 1484.7 1261.26 1489.78 1258.32C1499.1 1252.2 1508.23 1246.09 1516.88 1239.02C1521.2 1235.26 1525.33 1231.37 1529.31 1227.24C1532.17 1224.02 1534.85 1220.72 1537.37 1217.24C1539.03 1214.68 1540.6 1212.09 1542.07 1209.42C1543.09 1207.24 1544.01 1205.06 1544.86 1202.83C1545.27 1201.55 1545.64 1200.25 1545.96 1198.94C1546.24 1197.52 1546.47 1196.1 1546.62 1194.67C1546.76 1192.42 1546.74 1190.17 1546.6 1187.92C1546.64 1188.73 1546.66 1189.55 1546.69 1190.36C1546.53 1188.04 1546.22 1185.74 1545.77 1183.48C1545.91 1184.27 1546.03 1185.08 1546.19 1185.88C1545.86 1184.27 1545.46 1182.66 1545.03 1181.05C1544.23 1178.72 1543.37 1176.45 1542.42 1174.19C1540.45 1170.04 1538.22 1166.06 1535.83 1162.13C1531.91 1156.23 1527.6 1150.7 1523.24 1145.11C1516.62 1137.45 1510 1129.77 1502.86 1122.57C1495.13 1114.8 1487.31 1107.23 1479.34 1099.75C1472.04 1093.49 1464.78 1087.32 1457.19 1081.4C1450.34 1076.07 1443.28 1071.06 1436.2 1066.02C1423.23 1057.58 1410.17 1049.33 1396.7 1041.7C1382.99 1033.94 1369.07 1026.6 1355.1 1019.34C1339.95 1011.68 1324.8 1004.06 1309.69 996.332C1293.73 988.167 1278.06 979.398 1262.57 970.351C1232.58 952.88 1204.07 933.109 1175.61 913.286C1146.31 893.048 1116.26 873.743 1088.35 851.62C1074.88 840.947 1062.02 829.358 1049.29 817.803C1036.42 806.11 1024.35 793.655 1012.61 780.855C1005.61 773.192 1005.63 761.188 1013.24 753.905C1020.64 746.848 1033.14 746.865 1040.18 754.528C1050.95 766.29 1062.02 777.707 1073.71 788.587C1084.06 797.962 1094.56 807.251 1105.31 816.177C1117.25 826.071 1129.61 835.274 1142.25 844.251C1164.83 859.871 1187.56 875.248 1210.07 890.937C1209.88 890.799 1209.67 890.661 1209.48 890.539C1210.1 890.972 1210.73 891.404 1211.35 891.837L1211.57 891.992L1211.47 891.923C1228.97 904.049 1246.56 916.105 1264.75 927.159C1284.65 939.25 1304.83 950.718 1325.42 961.633C1325.35 961.598 1325.29 961.564 1325.23 961.529C1360.98 979.778 1397.2 997.18 1431.58 1017.94C1449.77 1028.9 1467.22 1040.86 1483.96 1053.9C1500.75 1066.98 1516.01 1081.71 1530.99 1096.76C1538.25 1104.08 1544.93 1111.95 1551.65 1119.72C1562.75 1132.59 1572.25 1146.94 1578.92 1162.58C1583.59 1173.53 1585.74 1186.21 1584.56 1198.07C1583.23 1211.48 1578.3 1223.76 1571.24 1235.18C1564.76 1245.68 1556.2 1254.85 1547.17 1263.17C1539.53 1270.22 1531.2 1276.71 1522.5 1282.44C1517.81 1285.51 1513.21 1288.89 1508.35 1291.67C1503.15 1294.63 1497.94 1297.61 1492.72 1300.6C1488.19 1303.18 1483.28 1305.23 1478.59 1307.5C1473.74 1309.87 1468.76 1311.86 1463.78 1313.9C1444.37 1321.84 1424.23 1327.48 1403.77 1331.92C1383.99 1336.23 1363.72 1339.1 1343.51 1340.04C1338.24 1340.28 1332.96 1340.52 1327.67 1340.76C1325.8 1340.85 1323.92 1340.88 1322.03 1340.88C1317.49 1340.88 1312.92 1340.69 1308.37 1340.62L1308.27 1340.59Z" fill="black"/>
<path d="M134.427 808.824C134.548 803.808 136.692 798.947 140.324 795.488C144.111 791.855 148.78 790.42 153.932 790.212C181.824 789.157 209.768 788.966 237.677 788.638C265.137 788.309 292.544 787.842 319.986 787.012C359.464 785.109 398.941 783.033 438.367 780.179C460.085 778.605 481.769 777.031 503.453 775.128C525.933 773.156 548.343 771.012 570.753 768.746C611.13 764.663 651.385 759.699 691.641 754.717C712.53 752.123 733.436 749.805 754.376 747.625C773.864 745.601 793.386 744.512 812.909 743.093C816.679 742.816 820.448 742.332 824.218 742.332C834.61 742.332 843.066 751.621 842.824 761.826C842.582 772.274 833.936 780.248 823.716 780.439C803.917 781.926 784.101 783.172 764.319 784.988C745.384 786.718 726.467 788.794 707.584 791.129C667 796.162 626.433 801.421 585.728 805.538C542.326 809.949 498.906 813.962 455.382 817.127C413.605 820.154 371.793 822.628 329.947 824.634C271.033 827.454 211.981 826.105 153.033 828.319C152.826 828.319 152.636 828.319 152.428 828.319C142.33 828.319 134.22 818.546 134.427 808.824Z" fill="black"/>
<path d="M1425.79 840.393C1415.41 840.272 1405.02 840.393 1394.66 839.978C1381.76 839.493 1368.88 839.009 1355.96 838.525C1346.42 838.161 1336.91 837.314 1327.38 836.674C1318.37 836.068 1309.38 835.584 1300.4 834.667C1287 833.266 1273.63 831.882 1260.25 830.481C1251.59 829.582 1243.01 828.008 1234.4 826.676C1225.18 825.24 1215.81 824.202 1206.7 822.248C1193.73 819.445 1180.78 816.66 1167.81 813.876C1151.38 810.329 1135.25 805.244 1119.04 800.764C1111.07 798.55 1103.24 795.592 1095.46 792.772C1083.42 788.448 1071.73 783.293 1060.34 777.516C1043.17 768.815 1026.53 758.782 1013.62 744.252C1006.72 736.503 1006.53 724.671 1014.24 717.303C1021.55 710.314 1034.26 710.176 1041.16 717.925C1043.15 720.174 1045.28 722.302 1047.44 724.395C1050.17 726.713 1052.94 728.909 1055.84 731.02C1062.6 735.465 1069.61 739.409 1076.75 743.18C1088.52 749.096 1100.61 754.181 1113.03 758.679C1132.29 765.321 1152.02 770.337 1171.63 775.803C1183.73 778.415 1195.86 781.027 1207.96 783.622C1218.61 785.922 1229.4 787.358 1240.16 789.019C1250.03 790.558 1259.84 792.184 1269.78 793.239C1282.75 794.589 1295.7 795.92 1308.67 797.287C1326.86 798.532 1345.07 800.02 1363.28 800.695C1374.58 801.127 1385.88 801.542 1397.18 801.975C1408.48 802.407 1419.84 802.234 1431.15 802.373C1469.71 802.84 1508.35 801.75 1546.92 800.435C1587.19 798.619 1627.34 796.111 1667.41 791.51C1677.71 790.316 1687.27 798.204 1688.35 808.461C1689.43 818.857 1681.71 828.215 1671.4 829.409C1630.71 834.079 1589.92 836.587 1549.01 838.421C1527.7 839.372 1506.37 839.718 1485.03 840.064C1470.36 840.289 1455.68 840.497 1441.02 840.497C1435.94 840.497 1430.85 840.479 1425.77 840.41L1425.79 840.393Z" fill="black"/>
<path d="M1070.06 1853.64C1058.23 1849.88 1047.44 1843.79 1037.48 1836.44C1028.5 1829.8 1021.38 1820.98 1015.83 1811.36C1009.62 1800.59 1007.22 1787.99 1007.18 1775.68C1007.18 1765.06 1010.18 1754.05 1015.03 1744.64C1020.46 1734.16 1028.75 1724.98 1039.16 1719.22C1061.79 1706.71 1088.63 1706.71 1113.53 1711C1129.61 1713.77 1145.59 1718.37 1161.08 1723.46C1174.5 1727.87 1187.81 1732.57 1201.09 1737.4C1201.22 1731.59 1201.23 1725.79 1201.37 1720C1201.58 1710.67 1201.8 1701.35 1201.86 1692.03C1201.96 1672.08 1201.99 1652.15 1201.98 1632.19C1201.94 1591.18 1201.89 1550.17 1201.68 1509.15C1201.35 1447.3 1201.18 1385.39 1198.74 1323.57C1198.74 1323.6 1198.74 1323.65 1198.74 1323.69C1198.74 1323.6 1198.74 1323.52 1198.74 1323.43C1198.69 1322.88 1198.67 1322.34 1198.67 1321.77C1198.67 1311.37 1207.96 1302.93 1218.16 1303.16C1223.18 1303.28 1228.04 1305.41 1231.49 1309.04C1234.93 1312.65 1236.39 1317.01 1236.72 1321.84C1236.72 1322.11 1236.73 1322.37 1236.75 1322.65C1236.75 1322.51 1236.75 1322.36 1236.75 1322.22C1236.75 1322.36 1236.75 1322.51 1236.77 1322.65V1322.79C1236.77 1322.79 1236.77 1322.77 1236.77 1322.75C1236.77 1322.79 1236.77 1322.84 1236.77 1322.88C1238.43 1364.49 1238.91 1406.13 1239.34 1447.77C1239.76 1488.86 1239.86 1529.96 1239.98 1571.08C1240.07 1609.22 1240.19 1647.38 1239.98 1685.52C1239.88 1704.43 1239.4 1723.35 1239 1742.26C1238.95 1744.64 1238.88 1747 1238.81 1749.38C1238.74 1751.56 1238.48 1753.73 1238.24 1755.91C1237.94 1758.5 1237.32 1761.67 1236.15 1764C1234.97 1766.34 1233.95 1768.76 1232.31 1770.82C1232.06 1771.11 1231.82 1771.4 1231.56 1771.68C1232.25 1775.26 1231.91 1779.03 1230.23 1782.46C1221.43 1800.52 1207.41 1815.7 1191.43 1827.73C1182.89 1834.14 1173.96 1840.11 1164.75 1845.52C1154.01 1851.86 1141.73 1855.89 1129.4 1857.63C1122.02 1858.65 1114.62 1858.77 1107.15 1858.95C1106.3 1858.97 1105.44 1858.98 1104.59 1858.98C1092.86 1858.98 1081.19 1857.18 1070.02 1853.62L1070.06 1853.64ZM1116.04 1820.69C1118.94 1820.49 1121.83 1820.24 1124.73 1819.85C1127.79 1819.28 1130.8 1818.58 1133.81 1817.76C1136.23 1816.91 1138.58 1816.01 1140.95 1815.01C1143.91 1813.52 1146.76 1811.98 1149.62 1810.31C1157.76 1805.08 1165.73 1799.63 1173.31 1793.61C1176.71 1790.59 1180 1787.47 1183.16 1784.19C1185.83 1781.23 1188.35 1778.18 1190.74 1774.98C1190.88 1774.78 1191.01 1774.57 1191.15 1774.36C1189.58 1773.76 1188.02 1773.15 1186.48 1772.58C1181.94 1770.92 1177.39 1769.29 1172.84 1767.65C1163.12 1764.28 1153.4 1760.85 1143.55 1757.89C1132.55 1754.57 1121.55 1751.7 1110.36 1749.16C1105.18 1748.21 1100.01 1747.43 1094.77 1746.89C1090.25 1746.6 1085.78 1746.51 1081.26 1746.6C1078.37 1746.81 1075.52 1747.1 1072.65 1747.48C1070.13 1747.97 1067.65 1748.55 1065.15 1749.23C1063.64 1749.73 1062.15 1750.3 1060.7 1750.91C1061.45 1750.54 1062.21 1750.21 1062.97 1749.87C1060.98 1750.72 1059.06 1751.7 1057.21 1752.81C1057.92 1752.36 1058.64 1751.89 1059.35 1751.46C1057.76 1752.39 1056.26 1753.41 1054.81 1754.54C1053.96 1755.28 1053.15 1756.06 1052.37 1756.87C1051.92 1757.39 1051.49 1757.95 1051.05 1758.48C1050.14 1759.9 1049.29 1761.32 1048.49 1762.79C1048.04 1763.76 1047.65 1764.73 1047.25 1765.71C1046.85 1766.92 1046.49 1768.13 1046.18 1769.36C1045.81 1771.27 1045.52 1773.15 1045.31 1775.07C1045.24 1776.3 1045.23 1777.53 1045.24 1778.77C1045.33 1780.17 1045.49 1781.56 1045.69 1782.92C1045.93 1784.14 1046.21 1785.35 1046.54 1786.54C1047.15 1788.29 1047.82 1790 1048.53 1791.69C1049.03 1792.7 1049.57 1793.7 1050.14 1794.67C1051.19 1796.26 1052.3 1797.8 1053.46 1799.31C1054.81 1800.81 1056.21 1802.26 1057.66 1803.7C1059.46 1805.22 1061.27 1806.67 1063.17 1808.09C1065.72 1809.79 1068.31 1811.38 1070.99 1812.87C1073.79 1814.25 1076.61 1815.5 1079.52 1816.65C1082.33 1817.61 1085.15 1818.44 1088.04 1819.16C1091.43 1819.82 1094.8 1820.29 1098.24 1820.65C1104.19 1820.94 1110.09 1820.86 1116.02 1820.72L1116.04 1820.69Z" fill="black"/>
<path d="M1561.06 1286.83C1551.86 1283.82 1542.63 1279.44 1534.88 1273.56C1528.97 1269.06 1522.52 1263.34 1520.08 1256.06C1516.81 1246.21 1521.12 1235.28 1531.13 1231.48C1539.96 1228.12 1550.96 1232.13 1554.99 1240.78C1555.22 1241.01 1555.46 1241.25 1555.68 1241.47C1556.39 1242.08 1557.13 1242.65 1557.88 1243.22C1559.62 1244.36 1561.39 1245.44 1563.2 1246.47C1566.23 1247.94 1569.27 1249.26 1572.42 1250.47C1575.6 1251.49 1578.78 1252.39 1582.04 1253.17C1584.59 1253.6 1587.15 1253.96 1589.73 1254.24C1592.29 1254.36 1594.81 1254.41 1597.36 1254.36C1600.59 1254.12 1603.77 1253.74 1606.97 1253.27C1611.07 1252.46 1615.08 1251.45 1619.09 1250.3C1623.9 1248.72 1628.57 1246.91 1633.2 1244.88C1636.78 1243.15 1640.22 1241.28 1643.65 1239.24C1646.74 1237.17 1649.72 1235 1652.64 1232.67C1655.96 1229.71 1659.12 1226.63 1662.18 1223.4C1666.71 1218.23 1670.93 1212.85 1674.91 1207.24C1679.04 1201.05 1682.85 1194.72 1686.34 1188.18C1690.16 1180.52 1693.55 1172.7 1696.52 1164.66C1699.19 1156.85 1701.44 1148.98 1703.42 1140.97C1704.62 1135.18 1705.81 1129.4 1707 1123.61C1708.28 1117.45 1708.97 1111.12 1709.94 1104.91C1711.85 1092.78 1712.74 1080.45 1713.85 1068.24C1713.78 1069.03 1713.7 1069.85 1713.63 1070.66C1715.25 1043.1 1715.56 1015.55 1714.96 987.942C1714.39 974.761 1713.37 961.702 1711.91 948.59C1710.34 934.216 1708.08 919.893 1705.76 905.64C1703.53 892.943 1701.04 880.316 1697.46 867.914C1695.69 862.534 1693.59 857.293 1691.82 851.913C1689.69 845.358 1689.57 838.214 1693.07 832.09C1694.62 829.357 1696.44 826.693 1699.12 824.894C1700.47 823.978 1701.83 823.096 1703.22 822.248C1705.65 820.933 1708.39 820.328 1711.03 819.549C1714.11 818.633 1717.66 818.598 1720.82 818.425C1723.76 818.252 1726.72 818.235 1729.67 818.218C1733.48 818.183 1737.3 818.218 1741.1 818.252C1747.64 818.287 1754.12 818.131 1760.64 817.941C1773.49 817.041 1786.15 815.588 1798.88 813.703C1807.05 812.25 1815.25 810.831 1823.36 809.084C1832.68 807.078 1841.85 804.743 1851.03 802.131C1859.81 799.398 1868.56 796.595 1877.26 793.568C1881.67 792.029 1886.06 790.489 1890.44 788.915C1899.34 785.733 1908.54 784.141 1917.72 787.134C1939.94 794.347 1944.42 821.366 1941 841.448C1939.1 852.571 1934.1 862.967 1928.01 872.359C1920.63 883.741 1910.96 894.05 1900.31 902.423C1884.04 915.205 1865.09 924.339 1845.13 929.701C1822.63 935.738 1798.15 932.555 1777.78 921.346C1766.76 915.292 1756.87 907.387 1747.41 899.153C1745.77 897.735 1744.16 896.282 1742.56 894.829C1746.1 914.496 1748.75 934.354 1750.92 954.212C1753.05 973.585 1753.5 993.183 1753.43 1012.64C1753.38 1033.42 1753.36 1054.24 1751.51 1074.95C1750.77 1083.2 1750.04 1091.43 1749.06 1099.65C1748 1108.52 1746.67 1117.33 1745.29 1126.15C1744.11 1133.66 1742.35 1141.06 1740.83 1148.5C1736.37 1170.05 1728.19 1190.84 1717.88 1210.2C1707.8 1229.12 1694.35 1246.89 1678.21 1261C1661.92 1275.26 1641.73 1284.13 1620.89 1289.34C1612.54 1291.43 1604.08 1292.45 1595.63 1292.45C1583.97 1292.45 1572.37 1290.53 1561.13 1286.85L1561.06 1286.83ZM1823.84 894.587C1826.27 894.396 1828.62 894.12 1831 893.756C1834.25 893.082 1837.45 892.286 1840.64 891.369C1845.48 889.726 1850.13 887.789 1854.83 885.817C1859.24 883.689 1863.51 881.389 1867.73 878.88C1871.1 876.666 1874.34 874.331 1877.5 871.858C1880.91 868.917 1884.18 865.838 1887.32 862.603C1890.25 859.282 1892.99 855.875 1895.57 852.294C1896.94 850.149 1898.23 847.987 1899.48 845.773C1900.4 843.87 1901.23 841.95 1902 839.995C1902.54 838.317 1903.01 836.64 1903.42 834.927C1903.63 833.734 1903.8 832.557 1903.94 831.364C1904.01 830.136 1904.04 828.908 1904.03 827.697C1903.96 826.676 1903.87 825.673 1903.73 824.67C1903.73 824.67 1903.73 824.635 1903.73 824.618C1897.51 826.693 1891.35 829.046 1885.14 831.156C1877.86 833.647 1870.55 835.948 1863.22 838.214C1848.76 842.694 1834.1 845.842 1819.28 848.748C1803.77 851.775 1788.05 854.249 1772.3 855.356C1767.25 855.702 1762.2 855.996 1757.13 856.169C1760.12 859.161 1763.15 862.102 1766.23 865.008C1773.65 871.65 1781.24 877.929 1789.28 883.81C1791.77 885.436 1794.28 886.976 1796.89 888.429C1799.22 889.57 1801.59 890.591 1804.01 891.542C1806.45 892.338 1808.89 893.03 1811.36 893.618C1813.45 893.981 1815.53 894.293 1817.64 894.518C1819.71 894.604 1821.77 894.639 1823.84 894.604V894.587Z" fill="black"/>
<path d="M1656.74 832.16C1648.82 825.846 1646.97 813.305 1653.71 805.383C1655.34 803.48 1657.19 801.716 1658.95 799.917C1667.25 790.697 1675.05 781.045 1683.07 771.601C1691.99 761.067 1701.25 750.757 1710.98 740.949C1718.29 733.581 1730.88 734.221 1737.92 741.572C1745.24 749.235 1744.6 761.153 1737.3 768.522C1733.6 772.241 1730 776.029 1726.46 779.869C1719.02 788.172 1711.76 796.631 1704.6 805.176C1697.22 813.98 1689.94 822.836 1681.83 830.966C1682.03 830.741 1682.24 830.517 1682.43 830.292C1678.61 834.132 1673.49 836.225 1668.36 836.225C1664.29 836.225 1660.23 834.928 1656.75 832.143L1656.74 832.16Z" fill="black"/>
<path d="M1749.54 934.405C1734.83 918.405 1721.18 901.418 1707.54 884.484C1700.9 876.233 1694.74 867.705 1688.67 859.022C1685.42 854.369 1682.62 849.335 1679.63 844.475C1677.17 840.513 1675.1 836.293 1673.23 832.02C1671.36 827.713 1670.43 823.337 1671.04 818.649C1672.02 810.917 1678.14 804.915 1685.46 802.977C1685.46 802.977 1685.47 802.977 1685.49 802.977C1695.5 800.348 1706.09 807.198 1708.42 817.127C1708.47 817.352 1708.52 817.577 1708.58 817.819C1711.69 824.167 1715.41 830.1 1719.12 836.102C1724.88 844.336 1730.62 852.518 1736.94 860.337C1743.33 868.293 1749.77 876.198 1756.25 884.086C1763.05 892.216 1769.91 900.294 1777.09 908.113C1784.12 915.741 1784.07 927.78 1776.48 935.045C1772.87 938.505 1768.03 940.269 1763.2 940.269C1758.15 940.269 1753.14 938.349 1749.54 934.44V934.405Z" fill="black"/>
<path d="M160.797 840.93C153.483 837.989 148.624 830.136 144.733 823.771C142.226 819.671 139.684 815.623 137.315 811.455C131.972 802.114 126.715 792.721 121.545 783.294C112.207 766.308 102.921 749.304 93.8602 732.179C89.0185 722.994 92.425 711.301 101.624 706.371C110.703 701.476 122.582 704.953 127.424 714.121C135.482 729.377 143.73 744.513 152.03 759.648C160.382 774.939 168.855 790.161 177.882 805.037C178.66 806.213 179.455 807.372 180.302 808.497C186.787 813.703 189.225 823.252 185.853 831.018C182.706 838.283 175.651 842.383 168.267 842.383C165.76 842.383 163.218 841.916 160.78 840.93H160.797Z" fill="black"/>
<path d="M168.389 841.068C160.227 840.86 152.29 838.611 144.474 836.432C137.54 834.494 130.64 832.436 123.706 830.429C110.201 826.52 96.6791 822.611 83.1742 818.736C73.1967 815.882 67.2656 805.123 70.1015 795.16C72.9546 785.179 83.7102 779.246 93.6703 782.1C106.553 785.784 119.435 789.521 132.3 793.257C143.367 796.457 154.399 799.882 165.605 802.528C166.521 802.684 167.438 802.822 168.354 802.944C168.648 802.944 168.942 802.961 169.236 802.961C179.611 803.22 188.084 812.077 187.842 822.455C187.6 832.661 178.988 841.068 168.821 841.068C168.665 841.068 168.527 841.068 168.371 841.068H168.389Z" fill="black"/>
<path d="M59.5013 865.596C57.0977 855.46 63.5476 845.099 73.6461 842.642C100.345 836.138 126.974 829.427 153.344 821.643C158.826 819.896 164.273 818.08 169.651 815.987C179.317 812.268 190.557 817.388 194.222 827.04C197.906 836.778 192.856 847.901 183.173 851.62C167.368 857.709 150.941 862.137 134.583 866.513C117.274 871.166 99.8606 875.473 82.4476 879.711C81.0124 880.057 79.5599 880.23 78.1247 880.23C69.5306 880.23 61.5418 874.211 59.5013 865.579V865.596Z" fill="black"/>
<path d="M132.923 911.641C125.92 904.324 125.816 891.645 133.545 884.709C144.699 874.676 155.696 864.471 166.677 854.23C172.279 849.024 177.778 843.713 183.398 838.524C189.156 833.214 194.897 827.748 201.26 823.129C209.664 817.023 221.786 819.012 227.872 827.402C233.977 835.826 231.988 847.917 223.601 854.023C222.547 854.801 221.526 855.597 220.489 856.41C210.684 864.92 201.381 873.967 191.888 882.823C181.271 892.7 170.636 902.56 159.846 912.247C156.059 915.654 151.252 917.419 146.497 917.419C141.742 917.419 136.658 915.533 132.923 911.624V911.641Z" fill="black"/>
</g>
<defs>
<clipPath id="clip0_157_196">
<rect width="1883" height="1717" fill="white" transform="translate(59 142)"/>
</clipPath>
</defs>
</svg>
