<svg width="2000" height="2000" viewBox="0 0 2000 2000" fill="none" xmlns="http://www.w3.org/2000/svg">
<path d="M364.74 1393.22C407.57 1568.92 596.231 1681.53 758.985 1722.9C1113.74 1813.36 1763.93 1637.66 1630 1152.33C1591.56 1012.77 1468.29 903.502 1337.3 844.168C1415.43 723.41 1612.24 395.401 1445.31 302.221C1355.89 252.497 1253.93 341.499 1195.43 400.833C1095.15 502.578 1029.55 633.364 973.554 764.359C955.377 700.847 931.977 639.632 907.742 577.582C882.044 511.562 865.329 436.977 827.305 376.598C786.564 311.623 710.723 248.528 629.451 254.378C391.691 271.091 535.224 689.983 603.335 849.6C430.134 969.313 312.09 1177.82 364.531 1393.64L364.74 1393.22ZM621.093 887.833C631.749 907.263 667.684 890.131 657.865 869.239C621.302 791.519 420.523 235.574 670.609 301.176C753.344 322.904 796.383 398.952 824.171 472.911C868.881 591.789 920.695 709.83 948.273 833.931C953.079 855.45 981.075 854.405 988.596 835.811C1034.14 723.41 1085.96 605.578 1158.66 507.593C1206.09 443.662 1346.91 273.807 1434.24 347.557C1544.55 440.946 1365.29 726.126 1297.81 828.708C1275.45 825.156 1259.37 857.539 1282.97 866.314C1432.36 923.141 1578.19 1047.03 1599.29 1212.5C1633.76 1483.06 1394.96 1641.21 1159.92 1686.96C920.277 1733.76 619.84 1700.34 461.264 1492.25C307.494 1290.43 438.073 1018.2 621.511 887.624L621.093 887.833Z" fill="#1B1A16"/>
<path d="M861.777 1180.33C866.583 1160.69 864.285 1130.18 847.57 1116.4C824.588 1097.38 800.562 1122.87 796.801 1145.44C794.712 1158.39 795.965 1177.19 803.905 1189.94C804.74 1193.07 806.412 1196 809.128 1198.71C817.694 1207.07 828.767 1211.66 840.676 1207.49C853.002 1203.31 858.644 1192.23 861.568 1180.33H861.777Z" fill="#1B1A16"/>
<path d="M1079.27 1145.44C1077.18 1158.39 1078.44 1177.19 1086.38 1189.94C1087.21 1193.07 1088.88 1196 1091.6 1198.71C1100.16 1207.07 1111.24 1211.66 1123.15 1207.49C1135.47 1203.31 1141.11 1192.23 1144.04 1180.33C1148.84 1160.69 1146.55 1130.18 1129.83 1116.4C1106.85 1097.38 1082.82 1122.87 1079.06 1145.44H1079.27Z" fill="#1B1A16"/>
<path d="M872.224 1391.97C854.465 1371.7 823.544 1399.9 841.303 1420.17C855.928 1436.88 873.06 1449.63 891.236 1458.82C890.61 1482.22 882.253 1522.96 903.354 1537.38C917.352 1546.99 939.917 1544.69 955.795 1544.06C977.732 1543.23 999.461 1539.05 1020.77 1532.99C1028.92 1530.69 1036.44 1520.87 1035.19 1512.1C1032.68 1494.13 1030.38 1488.28 1030.8 1471.98C1030.8 1468.43 1029.96 1465.3 1028.71 1462.79C1058.59 1449.63 1085.12 1426.86 1103.3 1394.68C1116.25 1371.7 1083.45 1346.21 1069.87 1369.61C1049.6 1404.5 1018.06 1426.44 984.209 1433.12C984.209 1405.13 984.209 1377.13 984.209 1349.14C1017.01 1333.47 1040.83 1305.68 1051.27 1269.74C1055.66 1254.08 1041.04 1240.5 1025.79 1244.05C999.67 1250.11 978.359 1264.1 962.272 1283.32C950.572 1267.45 937.827 1252.61 923.202 1238.62C912.338 1228.17 890.401 1237.57 889.774 1252.4C888.311 1291.68 906.697 1327.41 942.633 1345.17C942.633 1374.62 942.633 1403.87 942.633 1433.33C917.352 1428.74 892.699 1415.57 872.224 1392.17V1391.97ZM989.223 1474.28C989.223 1482.43 990.059 1489.95 991.104 1497.47C983.582 1499.14 976.061 1500.61 968.331 1501.23C962.272 1501.86 942.424 1505.2 932.186 1503.74C931.768 1493.71 932.186 1483.26 932.604 1473.03C951.408 1476.79 970.42 1477.21 989.223 1474.28Z" fill="#1B1A16"/>
<path d="M761.91 854.614C730.153 803.01 702.157 750.153 681.682 692.908C670.191 660.524 591.843 413.995 706.753 460.167C747.494 476.672 777.162 603.488 788.862 641.512C809.963 710.666 823.126 780.446 824.588 852.943C825.006 879.894 867 880.73 866.374 853.779C864.076 736.781 834.826 616.86 785.728 510.518C764.208 464.137 723.676 386.208 660.998 395.61C489.887 421.098 685.861 810.949 727.019 876.551C739.346 896.19 774.655 874.671 762.119 854.614H761.91Z" fill="#1B1A16"/>
<path d="M1100.16 826.201C1143.62 712.964 1209.64 576.537 1306.58 499.236C1375.53 444.289 1351.5 534.753 1330.61 579.253C1319.12 603.489 1306.17 627.097 1292.38 650.287C1255.4 711.711 1211.52 768.747 1166.39 824.32C1149.47 845.213 1183.94 869.239 1200.66 848.138C1233.67 806.562 1507.99 456.824 1369.68 425.486C1311.6 412.324 1243.07 499.654 1213.4 537.678C1147.8 621.665 1098.49 715.889 1060.05 814.919C1050.23 839.99 1090.76 851.272 1100.16 826.41V826.201Z" fill="#1B1A16"/>
</svg>
