<svg width="2000" height="2000" viewBox="0 0 2000 2000" fill="none" xmlns="http://www.w3.org/2000/svg">
<path d="M1195.65 551.667C963.304 401.326 659.299 530.97 562.455 777.372C468.539 1016.55 586.861 1315.28 824.286 1417.78C824.676 1417.78 824.677 1418.17 825.067 1418.17C825.262 1418.17 825.458 1418.17 825.653 1418.17C825.653 1418.17 825.848 1418.17 826.043 1418.17H826.434C1320.61 1582.18 1609.19 818.374 1195.65 550.885V551.667ZM839.32 1382.05C839.32 1382.05 838.93 1382.05 838.735 1382.05C838.735 1382.05 838.539 1381.86 838.344 1381.86C603.848 1283.26 506.223 977.695 615.173 754.918C721.194 537.999 1015.05 450.138 1208.15 610.24C1533.05 879.291 1273.95 1525.75 839.32 1382.25V1382.05Z" fill="#1B1A16"/>
<path d="M1827.29 880.852C1726.93 852.541 1627.35 821.497 1527.19 792.21C1548.08 770.733 1568.78 749.06 1589.67 727.583C1600.6 716.259 1596.11 700.053 1581.86 694.586C1543.59 679.357 1504.73 666.666 1464.9 656.123C1510.2 591.301 1558.23 528.627 1609.58 468.295C1619.15 457.166 1615.83 432.956 1596.89 434.518C1503.17 441.937 1410.82 456.776 1319.64 479.034C1320.81 436.47 1316.32 393.906 1320.22 351.342C1321.2 339.823 1313 326.155 1299.53 328.303C1247.39 336.894 1193.11 348.609 1146.06 373.991C1115.8 293.159 1090.22 210.96 1069.13 127.199C1064.64 109.041 1041.01 112.36 1033.2 125.246C978.534 215.45 928.94 307.997 883.056 402.887C851.426 369.891 819.6 336.699 787.969 303.702C777.035 292.378 760.634 297.063 754.776 310.731C739.742 346.07 720.803 379.653 708.307 415.774C653.051 383.753 597.6 352.123 541.563 321.469C516.571 307.997 473.811 269.729 444.914 290.816C437.885 296.087 434.175 304.678 436.908 313.269C466.586 408.159 487.088 505.588 515.204 600.868C470.687 606.14 426.17 607.897 381.262 605.358C365.642 604.577 351.389 621.955 362.713 636.208C385.753 665.104 408.988 694.001 432.027 723.092C344.555 745.936 259.426 776.981 171.563 798.458C154.771 802.558 147.352 830.673 167.853 835.945C249.663 857.032 329.325 883.586 407.23 915.997C375.99 949.774 348.655 986.871 321.906 1024.16C312.534 1037.05 321.32 1052.47 335.573 1055.21C369.352 1061.85 402.935 1069.07 436.518 1076.1C363.104 1165.52 291.251 1256.12 221.937 1348.86C209.832 1364.87 227.014 1385.37 244.977 1378.73C335.183 1345.74 427.927 1323.87 523.405 1314.11C509.151 1361.16 497.436 1408.99 482.011 1455.85C477.325 1470.3 491.969 1483.38 505.832 1479.87C546.639 1469.52 587.447 1458.98 628.449 1448.63C626.301 1560.51 620.444 1672.19 611.462 1783.67C609.901 1801.64 638.602 1813.16 647.193 1795.39C692.882 1702.06 745.6 1613.22 805.932 1528.68C821.357 1573.59 836.782 1618.69 852.207 1663.79C856.893 1677.46 877.98 1679.61 885.79 1667.89C911.758 1629.04 937.531 1589.99 963.304 1551.13C1016.61 1660.28 1077.33 1765.32 1129.07 1875.24C1137.86 1893.99 1165.19 1883.05 1165.39 1864.9C1167.73 1736.62 1185.5 1611.47 1217.91 1487.68C1263.21 1520.48 1313.39 1545.67 1362.4 1572.42C1374.5 1579.06 1393.25 1568.71 1390.71 1553.87C1382.31 1501.93 1379.19 1449.41 1372.16 1397.28C1468.61 1419.93 1562.72 1449.8 1654.1 1489.05C1672.26 1496.86 1688.27 1474.21 1676.95 1458.98C1608.02 1367.41 1539.29 1275.45 1469.98 1184.07C1505.52 1168.65 1540.47 1152.05 1578.93 1145.61C1593.38 1143.26 1598.85 1123.54 1589.08 1113.39C1560.97 1084.1 1536.37 1051.89 1509.42 1021.63C1610.76 973.594 1716 939.426 1826.9 919.902C1849.55 915.997 1848.96 887.1 1827.87 881.243L1827.29 880.852ZM1469 997.024C1465.29 998.976 1462.95 1001.71 1461.19 1004.64C1456.12 1011.08 1454.75 1020.06 1462.17 1027.87C1488.72 1055.6 1512.15 1085.86 1537.34 1114.76C1500.63 1125.89 1466.27 1143.65 1430.54 1157.52C1425.07 1159.66 1421.95 1163.18 1420.58 1167.28C1420.58 1167.28 1420.39 1167.67 1420.19 1167.86C1420.19 1167.86 1420.19 1168.26 1420 1168.45C1417.65 1173.33 1417.65 1179.39 1422.34 1185.44C1482.67 1266.07 1543.2 1346.32 1603.73 1426.76C1522.31 1395.91 1439.33 1370.73 1353.81 1352.37C1349.71 1351.59 1346.39 1352.18 1343.07 1353.15C1334.48 1354.91 1327.25 1361.35 1329.01 1372.87C1336.62 1421.49 1340.14 1470.5 1346.19 1519.11C1301.67 1495.1 1257.16 1470.89 1217.91 1438.48C1212.25 1433.79 1206.39 1433.4 1201.12 1435.16C1195.07 1436.13 1189.6 1439.84 1187.26 1447.85C1155.82 1560.12 1136.69 1673.36 1129.27 1788.95C1081.82 1695.23 1030.67 1603.27 985.172 1508.57C984.587 1505.25 982.829 1502.13 980.291 1499.78C974.434 1490.61 964.28 1490.22 956.47 1495.29C953.151 1496.66 950.222 1499 947.684 1502.71C923.083 1539.03 899.067 1575.74 874.856 1612.25C859.626 1567.93 844.201 1523.41 829.167 1479.09C823.309 1462.1 803.589 1465.81 795.779 1477.92C793.046 1479.28 790.702 1481.24 788.555 1484.17C739.937 1550.74 696.006 1619.86 656.37 1691.91C662.033 1602.68 665.547 1513.26 667.304 1423.83C667.499 1409.19 654.418 1403.53 643.288 1406.07C640.945 1405.68 638.407 1405.68 635.674 1406.46C600.138 1415.63 564.602 1424.61 529.067 1433.6C542.344 1389.08 553.473 1343.78 568.117 1299.46C568.312 1298.88 568.117 1298.29 568.312 1297.7C568.312 1297.51 568.312 1297.31 568.312 1296.92C568.702 1294.58 569.093 1292.43 568.898 1290.48C568.117 1281.3 561.673 1272.71 550.349 1272.71C549.568 1272.71 548.787 1272.71 548.006 1272.71C459.753 1280.52 374.233 1296.92 290.275 1322.7C353.927 1238.74 419.141 1155.96 487.088 1075.51C499.193 1061.26 484.745 1044.27 470.101 1044.66C468.344 1043.69 466.782 1042.71 464.634 1042.32C433.199 1035.88 401.958 1029.44 370.523 1022.99C395.906 988.043 422.46 953.679 453.505 923.611C457.215 919.902 458.776 915.801 459.167 911.701C460.924 903.696 458.386 895.105 448.624 891.2C382.824 863.475 316.243 838.679 248.101 818.178C322.882 796.701 396.687 771.709 472.249 752.965C481.035 750.817 484.745 744.765 484.94 738.127C486.112 733.441 485.331 728.169 481.23 722.898C460.534 697.125 440.033 671.157 419.336 645.384C460.534 645.384 501.536 642.846 542.539 636.988C549.178 636.012 553.473 632.498 556.011 628.007C559.135 623.907 560.502 618.44 558.354 611.997C529.262 518.473 508.761 422.803 481.23 328.889C511.885 343.532 575.732 385.315 587.251 391.758C628.449 414.798 669.452 438.227 710.064 462.438C716.507 466.343 722.755 465.562 727.637 462.633C732.518 460.68 736.813 456.776 738.375 449.942C746.771 415.188 763.172 383.363 778.597 351.147C808.666 382.387 838.539 413.626 868.608 445.061C870.56 449.161 874.27 452.09 878.956 453.847C884.618 456.776 890.866 456.19 895.943 453.457C900.043 451.699 903.753 448.38 906.096 443.304C947.684 354.662 993.959 268.362 1043.55 183.82C1063.86 258.6 1087.48 332.208 1115.21 404.645C1119.31 415.383 1128.88 417.921 1137.47 415.969C1142.35 417.921 1148.01 417.921 1153.87 414.212C1191.36 391.173 1236.07 379.067 1279.81 371.062C1278.44 414.212 1282.93 457.361 1279.02 500.316C1278.63 503.635 1279.22 506.759 1280.39 509.492C1282.15 518.669 1289.37 526.283 1301.09 523.355C1301.67 523.355 1302.45 523.16 1303.04 522.964C1303.63 522.964 1304.21 522.769 1304.8 522.574C1386.02 502.268 1467.64 487.625 1550.62 478.448C1504.54 534.484 1460.8 592.277 1419.8 652.218C1414.92 659.247 1415.7 666.276 1419.02 671.938C1419.61 679.162 1423.9 685.995 1433.27 688.338C1470.18 697.32 1506.1 708.254 1541.64 721.14C1520.35 743.203 1499.07 765.266 1477.79 787.329C1477.01 788.11 1476.42 788.891 1475.84 789.672C1475.84 789.867 1475.45 790.062 1475.25 790.453C1473.89 792.601 1473.1 794.748 1472.52 796.896C1472.13 798.848 1471.93 800.606 1472.13 802.558C1472.13 808.611 1474.67 814.273 1480.13 817.983C1483.06 820.521 1486.77 821.888 1490.48 822.278C1575.42 845.903 1659.76 872.066 1744.31 897.253C1649.02 919.902 1557.06 953.094 1469 997.415V997.024Z" fill="#1B1A16"/>
<path d="M884.033 940.208C891.843 955.828 903.949 964.614 922.497 952.704C932.846 946.066 936.751 932.984 938.118 919.707C943.585 902.916 943.975 882.415 943.194 867.967C942.999 863.281 942.413 857.619 941.632 851.566C941.242 834.775 939.68 815.641 927.574 803.536C913.711 789.673 903.168 790.844 895.162 798.849C867.632 807.635 865.875 858.009 866.656 880.462C867.241 899.987 870.951 925.174 884.228 940.403L884.033 940.208Z" fill="#1B1A16"/>
<path d="M1002.16 940.208C1009.97 955.828 1022.07 964.614 1040.62 952.704C1050.97 946.066 1054.88 932.984 1056.24 919.707C1061.71 902.916 1062.1 882.415 1061.32 867.967C1061.12 863.281 1060.54 857.619 1059.76 851.566C1059.37 834.775 1057.81 815.641 1045.7 803.536C1031.84 789.673 1021.29 790.844 1013.29 798.849C985.758 807.635 984.001 858.009 984.782 880.462C985.367 899.987 989.077 925.174 1002.35 940.403L1002.16 940.208Z" fill="#1B1A16"/>
<path d="M1197.02 932.787C1175.93 927.32 1154.85 921.853 1133.76 916.386C1120.29 912.091 1104.67 924.001 1108.38 938.839C1139.62 1059.31 1073.43 1261.78 902.191 1176.85C798.709 1125.5 764.345 1007.37 792.07 898.813C795.975 883.779 785.236 872.065 770.007 873.236C731.933 876.165 742.281 873.822 705.574 888.856C682.339 898.423 696.397 934.934 719.632 925.367C729.395 923.024 739.157 920.681 748.92 918.338C729.98 1054.62 799.099 1229.17 955.69 1235.22C1105.84 1241.08 1170.66 1090.94 1152.89 963.05C1165.58 966.369 1178.47 969.298 1191.55 971.25C1216.15 976.327 1221.82 937.472 1197.22 932.591L1197.02 932.787Z" fill="#1B1A16"/>
</svg>
