<svg width="2000" height="2000" viewBox="0 0 2000 2000" fill="none" xmlns="http://www.w3.org/2000/svg">
<path d="M1787.97 1392.56C1762.91 1371.71 1732.95 1358.22 1702.98 1355.42C1771.85 1241.52 1632.19 1015.3 1487.27 1053.32C1530.9 957.646 1531.43 828.327 1444.52 761.389C1362.68 698.482 1232.31 734.579 1159.41 807.649C1171.33 581.779 998.197 375.184 749.718 461.396C531.728 537.095 368.762 840.592 470.923 1057C402.232 1045.79 317.595 1049.64 273.611 1103.96C212.63 1179.14 241.894 1306.53 275.889 1385.56C300.597 1443.21 342.477 1539.23 410.643 1555.35C436.052 1561.31 470.397 1555.35 496.332 1555.35C820.687 1555.35 1145.04 1555.35 1469.57 1555.35C1571.56 1555.35 1673.54 1555.35 1775.53 1555.35C1779.91 1555.35 1783.24 1553.78 1786.04 1551.67C1791.12 1556.05 1797.96 1557.98 1804.44 1553.42C1867.7 1509.97 1837.39 1433.39 1788.15 1392.39L1787.97 1392.56ZM1787.09 1523.11C1784.82 1521.71 1782.19 1520.66 1778.68 1520.66C1579.09 1520.66 1379.68 1520.66 1180.09 1520.66C1031.49 1520.66 882.895 1520.66 734.298 1520.66C638.796 1520.66 538.037 1529.77 442.886 1520.66C375.947 1514.35 345.982 1452.84 317.945 1393.79C283.95 1322.3 259.593 1235.91 285.877 1157.58C313.564 1075.22 425.538 1080.13 495.631 1097.83C498.785 1099.58 502.465 1099.76 506.145 1099.06C506.67 1099.06 507.021 1099.06 507.371 1099.06C507.897 1099.06 508.423 1098.71 508.948 1098.53C510.876 1098 512.453 1097.13 514.03 1096.08C520.864 1091.35 525.07 1082.93 520.163 1075.05C519.813 1074 519.112 1073.12 518.586 1072.07C396.8 877.566 546.273 586.51 741.833 502.225C832.428 463.149 947.906 469.457 1026.41 532.189C1123.66 609.816 1142.24 761.564 1115.08 873.886C1115.08 874.412 1115.08 874.762 1115.08 875.113C1112.62 885.101 1118.93 892.46 1127.17 894.914C1128.57 895.439 1130.15 895.614 1131.72 895.79C1131.9 895.79 1132.08 895.79 1132.25 895.79C1138.91 896.315 1145.04 893.161 1147.85 885.626C1147.85 885.276 1148.2 885.101 1148.37 884.925C1188.15 783.468 1374.6 714.428 1446.97 816.236C1502.34 894.213 1485.52 1009.16 1430.32 1083.28C1430.15 1083.64 1429.97 1083.81 1429.8 1084.16C1422.44 1091.7 1424.89 1101.68 1431.72 1107.64C1437.68 1114.48 1447.49 1116.93 1454.85 1108.34C1597.84 994.619 1765.54 1292.33 1645.33 1364.88C1641.65 1366.46 1638.15 1368.38 1634.47 1370.49C1632.01 1371.54 1629.74 1372.76 1627.11 1373.64C1621.67 1375.57 1618.17 1379.25 1616.24 1383.45C1615.89 1383.8 1615.37 1383.98 1615.02 1384.33C1598.02 1399.22 1622.38 1424.98 1639.2 1409.74C1643.05 1406.23 1647.26 1403.43 1651.46 1400.98C1653.22 1400.1 1654.97 1399.22 1656.72 1398.35C1731.37 1364.18 1853.68 1470.19 1787.44 1523.11H1787.09Z" fill="#1B1A16"/>
<path d="M772.145 1072.77C777.227 1075.57 784.412 1074.17 788.968 1071.02C793.349 1070.32 797.905 1068.04 802.285 1063.66C833.477 1032.47 833.302 912.611 772.321 915.24C740.954 916.642 735.697 952.914 733.069 977.271C728.863 1015.47 736.573 1052.97 772.321 1072.95L772.145 1072.77Z" fill="#1B1A16"/>
<path d="M922.319 1072.77C927.401 1075.57 934.586 1074.17 939.142 1071.02C943.523 1070.32 948.078 1068.04 952.459 1063.66C983.651 1032.47 983.475 912.611 922.495 915.24C891.128 916.642 885.871 952.914 883.243 977.271C879.037 1015.47 886.747 1052.97 922.495 1072.95L922.319 1072.77Z" fill="#1B1A16"/>
<path d="M1014.32 1007.41C1030.96 1123.41 987.155 1299.17 834.002 1281.29C705.907 1266.4 683.827 1115.53 678.22 1012.32C676.993 989.713 642.297 994.794 643.524 1017.05C650.708 1144.97 699.073 1333.69 865.544 1317.04C1019.05 1301.62 1068.99 1136.55 1049.36 1005.83C1046.03 983.754 1011.16 984.806 1014.32 1007.24V1007.41Z" fill="#1B1A16"/>
<path d="M1579.09 1000.75C1651.64 1006.54 1701.41 1050.34 1717.7 1120.26C1722.78 1142.34 1756.78 1133.75 1751.7 1111.85C1733.3 1033.87 1678.8 982.353 1602.92 968.861C1634.29 852.158 1597.32 730.374 1502.34 652.747C1485.17 638.729 1459.41 662.385 1476.93 676.929C1567.35 751.927 1601.7 866.702 1563.67 977.973C1559.99 988.837 1567.7 1000.23 1579.09 1001.1V1000.75Z" fill="#1B1A16"/>
<path d="M195.281 1161.61C205.269 1065.41 278.341 964.655 391.191 1003.38C404.683 1007.94 420.98 997.598 415.373 982.002C397.324 930.835 395.922 884.575 410.466 832.357C416.424 810.628 382.604 801.516 376.646 823.245C362.978 872.484 362.102 916.817 373.667 963.778C311.109 953.615 251.005 975.694 208.949 1028.96C133.424 1124.64 159.008 1253.26 190.9 1359.97C197.384 1381.35 231.729 1374.87 225.245 1353.31C207.021 1291.63 188.447 1226.8 195.281 1161.79V1161.61Z" fill="#1B1A16"/>
</svg>
