<svg width="2000" height="2000" viewBox="0 0 2000 2000" fill="none" xmlns="http://www.w3.org/2000/svg">
<path d="M1642.96 992.926C1644.52 881.173 1621.58 768.837 1573.97 664.665C1443.55 379.55 1143.66 238.645 843.771 348.065C627.648 426.972 459.336 600.335 389.757 810.235C304.046 788.662 137.872 798.768 91.032 876.508C64.794 920.238 95.5018 959.497 130.097 987.484C195.401 1040.15 278.78 1080.38 360.798 1114.78C395.588 1389.21 570.702 1640.7 860.875 1683.07C1107.51 1719.02 1386.22 1588.03 1527.52 1384.35C1527.71 1383.96 1527.71 1383.77 1527.9 1383.38C1528.1 1382.99 1528.49 1382.8 1528.88 1382.41C1547.73 1352.48 1563.86 1321.57 1578.05 1289.7C1587.96 1289.12 1597.87 1288.92 1607.78 1288.34C1693.69 1283.68 1800.78 1278.23 1872.3 1224.01C2034.2 1101.18 1732.75 1011.19 1642.77 992.926H1642.96ZM1537.23 672.439C1444.53 705.479 1346.38 708.783 1289.23 612.19C1249.59 544.75 1246.87 467.203 1278.93 397.236C1399.05 453.21 1484.95 553.107 1537.23 672.439ZM1186.03 364.391C1205.86 369.25 1224.71 375.275 1242.98 382.077C1204.11 467.981 1209.94 569.821 1266.3 647.368C1340.35 749.208 1444.52 747.264 1552 708.394C1615.95 880.396 1614.59 1084.85 1550.45 1252.39C1340.16 1262.49 1127.92 1263.46 919.376 1234.51C737.848 1209.43 561.762 1158.9 394.81 1084.85C389.368 1025.19 391.117 964.938 400.252 906.244C406.666 865.43 417.938 825.783 433.098 787.301C470.608 864.653 579.642 895.944 636.005 813.733C695.867 726.469 614.237 636.678 526.777 625.406C680.901 428.139 944.836 305.891 1186.23 364.197L1186.03 364.391ZM499.568 662.333C500.734 662.333 501.511 662.916 502.872 662.916C564.483 662.138 648.055 716.557 607.046 787.495C566.62 857.268 477.411 816.842 461.085 752.706C459.724 747.847 456.809 744.544 452.922 742.795C466.527 715.002 482.076 688.181 499.762 662.333H499.568ZM175.188 865.431C233.883 841.72 314.735 832.585 378.484 847.745C359.437 918.1 351.663 991.954 356.327 1067.56C340.585 1060.17 324.648 1052.98 309.099 1045.01C250.987 1015.86 35.4458 921.598 174.993 865.431H175.188ZM1010.92 1637.79C987.983 1563.93 1027.05 1483.86 1108.48 1474.72C1173.4 1467.34 1223.74 1513.21 1238.51 1573.07C1238.9 1574.62 1239.67 1575.79 1240.45 1577.15C1168.15 1613.3 1090.21 1637.59 1011.5 1646.53C1011.89 1644.01 1011.89 1641.09 1010.92 1637.98V1637.79ZM1496.22 1361.61C1440.44 1440.71 1363.09 1508.54 1274.85 1558.68C1250.36 1465.98 1154.94 1410.2 1062.81 1446.15C983.125 1477.25 947.169 1566.26 972.824 1645.56C973.212 1647.11 974.184 1648.09 974.961 1649.25C939.2 1651 903.439 1650.03 868.26 1644.98C602.77 1606.49 438.928 1379.49 400.446 1131.11C421.242 1139.47 441.844 1147.63 461.668 1155.4C690.425 1245.39 932.203 1286.01 1177.29 1294.75C1296.04 1299.03 1415.18 1297.09 1533.93 1291.84C1522.85 1316.13 1510.41 1339.46 1496.42 1361.42L1496.22 1361.61ZM1876.58 1159.87C1861.81 1242.86 1661.81 1246.55 1606.81 1249.66C1602.73 1249.86 1598.84 1250.05 1594.76 1250.25C1621.39 1180.09 1637.13 1106.43 1641.8 1031.99C1707.49 1043.07 1891.54 1076.5 1876.58 1159.87Z" fill="#1B1A16"/>
<path d="M918.988 886.615C924.818 886.809 931.038 884.672 937.646 879.424C956.11 864.265 961.552 838.61 962.135 815.094C964.078 804.21 964.079 792.937 961.163 782.442C960.774 781.276 960.386 780.498 959.997 779.332C956.887 759.508 949.113 740.268 925.402 739.879C894.305 739.296 883.227 771.364 878.174 796.63C871.565 828.892 872.148 859.6 894.305 885.643C902.079 894.777 912.38 893.029 919.182 886.615H918.988Z" fill="#1B1A16"/>
<path d="M1118.4 886.615C1124.23 886.809 1130.45 884.672 1137.05 879.424C1155.52 864.265 1160.96 838.61 1161.54 815.094C1163.49 804.21 1163.49 792.937 1160.57 782.442C1160.18 781.276 1159.79 780.498 1159.41 779.332C1156.3 759.508 1148.52 740.268 1124.81 739.879C1093.71 739.296 1082.63 771.364 1077.58 796.63C1070.97 828.892 1071.56 859.6 1093.71 885.643C1101.49 894.777 1111.79 893.029 1118.59 886.615H1118.4Z" fill="#1B1A16"/>
<path d="M1010.53 1104.87C1193.42 1115.56 1271.74 924.319 1255.81 770.975C1253.28 746.098 1214.99 753.484 1217.52 778.166C1230.93 902.552 1174.18 1065.22 1024.52 1065.42C891.196 1065.42 775.943 921.987 819.867 791.771C827.836 768.255 791.686 753.678 783.717 777.583C733.379 926.263 853.685 1095.74 1010.53 1105.07V1104.87Z" fill="#1B1A16"/>
<path d="M1391.86 950.752C1418.09 976.406 1453.27 998.563 1489.42 978.35C1529.26 956.194 1519.94 902.552 1500.31 869.318C1478.15 831.808 1420.43 790.217 1379.03 823.84C1341.91 854.159 1355.71 903.525 1373.59 940.063C1377.67 948.225 1384.86 951.141 1391.86 950.558V950.752ZM1418.48 851.049C1437.14 852.41 1455.99 872.039 1465.13 886.227C1474.26 900.22 1490 936.758 1466.88 945.893C1444.14 955.028 1421.4 926.069 1407.99 912.076C1406.04 910.132 1404.1 908.772 1401.96 907.995C1392.83 884.089 1384.66 848.717 1418.48 851.049Z" fill="#1B1A16"/>
<path d="M810.924 1392.9C763.307 1363.94 683.427 1338.68 658.744 1408.84C635.227 1475.7 692.756 1523.51 743.094 1555.38C788.573 1590.36 871.758 1606.3 899.745 1543.52C926.955 1482.5 856.209 1420.31 811.119 1392.9H810.924ZM863.983 1528.17C847.075 1567.82 790.517 1543.52 764.473 1522.92C761.752 1520.79 759.226 1518.45 757.088 1516.51C754.172 1513.59 750.868 1512.43 747.37 1512.04C719.577 1493.77 689.452 1469.86 692.562 1434.69C698.004 1373.47 772.831 1413.31 801.984 1433.33C826.667 1450.43 879.532 1491.63 863.983 1527.98V1528.17Z" fill="#1B1A16"/>
</svg>
