<svg width="2000" height="2000" viewBox="0 0 2000 2000" fill="none" xmlns="http://www.w3.org/2000/svg">
<path d="M888.867 1014.56C936.336 1031.54 956.797 975.683 951.477 939.468C951.477 938.854 951.068 938.445 950.863 937.832C953.114 917.985 950.454 897.32 942.27 882.588C933.062 865.811 912.602 854.558 893.369 857.832C871.68 861.514 861.654 881.156 860.017 901.207C857.358 934.967 846.923 999.826 888.663 1014.76L888.867 1014.56Z" fill="#1B1A16"/>
<path d="M1074.86 1014.56C1122.32 1031.54 1142.79 975.683 1137.47 939.468C1137.47 938.854 1137.06 938.445 1136.85 937.832C1139.1 917.985 1136.44 897.32 1128.26 882.588C1119.05 865.811 1098.59 854.558 1079.36 857.832C1057.67 861.514 1047.64 881.156 1046.01 901.207C1043.35 934.967 1032.91 999.826 1074.65 1014.76L1074.86 1014.56Z" fill="#1B1A16"/>
<path d="M1181.86 980.797C1194.96 1088.21 1124.57 1219.98 1000.17 1209.34C873.931 1198.5 802.523 1063.87 815.618 949.084C818.482 922.895 777.561 921.463 774.696 947.447C759.76 1084.33 848.969 1237.17 996.695 1250.26C1146.47 1263.56 1237.72 1110.11 1222.58 976.91C1219.72 950.721 1178.59 954.608 1181.86 980.797Z" fill="#1B1A16"/>
<path d="M1573.89 655.888C1502.08 627.448 1437.62 625.197 1380.13 644.839C1478.34 478.292 1448.67 248.318 1240.79 170.569C1141.56 133.331 1037 160.338 959.866 230.721C878.432 304.992 845.081 406.885 838.943 512.256C747.484 327.704 535.101 202.895 360.98 388.675C270.953 484.839 262.564 629.084 306.759 748.164C339.497 836.348 389.011 892.818 458.373 928.01C293.051 953.79 172.946 1121.97 223.894 1300.8C274.636 1479.42 492.543 1490.06 632.699 1403.3C567.838 1577.22 641.088 1811.28 846.923 1842.59C1041.3 1872.05 1148.72 1705.71 1157.52 1535.89C1182.48 1592.56 1217.26 1643.92 1269.85 1678.7C1356.8 1735.99 1481.82 1730.46 1561.62 1662.33C1709.96 1535.89 1651.03 1336.19 1520.29 1229.8C1587.4 1226.32 1652.26 1205.25 1702.59 1157.17C1776.86 1086.37 1805.92 974.251 1779.11 876.246C1751.29 774.762 1670.47 694.149 1573.69 655.888H1573.89ZM1327.55 1086.37C1305.24 1276.25 1125.19 1356.25 953.932 1346.83C950.863 1343.76 946.567 1341.31 941.042 1341.1C812.549 1334.97 707.176 1253.94 659.912 1144.89C660.321 1137.93 657.661 1130.57 652.136 1126.27C632.699 1072.66 627.174 1013.13 639.451 952.767C676.076 772.716 858.381 616.399 1047.85 665.913C1223.81 711.949 1348.62 908.573 1327.75 1086.17L1327.55 1086.37ZM1213.99 205.556C1450.31 279.622 1431.28 562.793 1277.83 706.424C1275.58 708.47 1274.14 710.721 1273.12 712.972C1263.91 721.974 1255.11 731.591 1246.32 741.821C1224.01 717.882 1199.05 696.399 1172.25 678.394C1208.05 631.54 1247.13 588.164 1289.28 547.039C1307.9 528.829 1282.53 497.115 1263.5 515.325C1218.08 558.496 1176.55 605.555 1138.49 655.274C1137.87 655.887 1137.67 656.706 1137.26 657.32C1127.44 652.205 1117.41 647.295 1107.39 642.998C1112.71 641.361 1117.41 637.678 1119.26 630.313C1144.22 540.287 1174.09 452.307 1210.31 365.965C1220.54 341.821 1181.05 329.955 1171.02 354.098C1135.42 439.827 1104.93 527.397 1080.38 616.809C1078.54 623.356 1079.97 628.88 1082.83 633.381C1064.83 627.243 1046.42 622.537 1027.39 619.468C1029.43 580.389 1031.68 541.31 1033.73 502.231C1035.16 476.041 994.24 472.972 992.808 499.366C990.762 538.036 988.716 576.706 986.465 615.376C950.454 614.149 915.262 618.854 881.706 628.675C881.911 627.243 882.32 625.811 882.32 623.969C864.928 434.506 956.797 124.532 1213.78 205.146L1213.99 205.556ZM257.244 1260.9C228.19 1076.14 385.738 930.261 565.383 973.023C574.795 975.274 581.547 971.182 585.23 965.043C602.622 959.519 604.463 929.442 582.366 925.35C443.846 899.979 357.297 814.251 328.857 677.576C308.192 577.934 329.88 468.061 408.654 398.905C600.78 230.517 808.661 446.169 839.352 643.816C839.352 644.02 839.557 644.225 839.557 644.43C816.027 654.864 793.316 667.55 772.241 682.691C772.241 679.622 771.423 676.552 769.581 673.279C750.962 639.928 732.957 606.169 714.747 572.614C702.266 549.699 664.413 565.044 676.894 588.368C696.127 623.765 715.769 658.957 734.593 694.558C737.253 699.673 741.141 702.128 745.233 703.56C735.412 711.744 726 720.542 716.792 729.545C657.866 661.003 598.734 592.461 539.807 523.918C522.62 503.867 491.929 531.079 509.116 551.13C569.066 620.696 629.221 690.261 689.171 759.826C680.782 769.852 673.007 780.287 665.641 791.131C618.99 779.264 575.409 761.054 534.078 735.887C511.571 722.179 489.679 756.757 512.39 770.465C553.311 795.427 597.302 814.046 643.339 827.141C617.967 872.972 600.78 923.1 594.437 974.455C590.345 1006.37 591.164 1037.68 595.46 1068.16C546.764 1059.57 498.272 1062.43 449.78 1076.76C424.409 1084.12 439.14 1122.38 464.307 1115.02C510.548 1101.31 557.608 1100.49 604.258 1111.74C605.691 1117.06 606.918 1122.59 608.555 1127.7C522.416 1144.07 441.596 1177.01 368.142 1226.32C346.249 1241.05 367.118 1276.25 389.011 1261.51C461.033 1213.23 538.989 1181.72 623.696 1166.58C628.197 1176.6 633.108 1186.42 638.633 1196.04C606.714 1217.12 575 1238.19 543.081 1259.26C521.188 1273.79 541.853 1308.98 563.951 1294.46C596.279 1273.18 628.607 1251.69 660.935 1230.41C675.462 1250.47 692.035 1268.88 710.245 1285.66C708.608 1287.09 706.971 1288.52 705.539 1289.95C698.582 1288.52 690.807 1290.57 685.692 1298.34C589.527 1446.07 290.595 1473.28 257.244 1261.1V1260.9ZM903.394 1802.89C647.431 1828.27 576.023 1454.45 742.164 1311.44C764.671 1327.81 789.019 1341.72 815.004 1352.97C810.503 1355.02 806.82 1358.5 804.569 1364.22C790.451 1400.44 776.333 1436.65 762.215 1472.87C752.599 1497.42 790.656 1512.97 800.068 1488.21C814.595 1450.98 828.917 1413.74 843.444 1376.5C845.286 1371.59 844.877 1367.5 843.444 1363.82C856.539 1368.11 870.043 1371.79 883.752 1374.66C872.908 1462.84 862.678 1551.03 851.833 1639.21C848.56 1665.4 889.686 1666.42 892.755 1640.44C902.781 1555.53 913.42 1470.82 923.446 1385.91C939.201 1387.55 955.16 1388.57 971.12 1388.78C976.439 1430.93 982.168 1473.07 987.079 1515.22C990.148 1541.41 1030.86 1533.84 1027.39 1507.65C1022.07 1467.75 1017.16 1427.65 1012.04 1387.75C1038.44 1386.12 1064.62 1382.23 1090.2 1376.5C1160.38 1536.09 1106.36 1783.05 902.78 1803.1L903.394 1802.89ZM1567.96 1588.27C1524.58 1656.6 1452.56 1685.86 1372.97 1673.79C1236.5 1653.33 1184.93 1512.56 1153.83 1394.1C1151.38 1384.28 1144.22 1380.59 1136.65 1381C1134.81 1375.68 1132.96 1370.57 1130.71 1365.45C1155.27 1357.47 1178.8 1347.65 1201.1 1335.78C1213.99 1370.36 1227.08 1405.15 1239.77 1439.72C1248.98 1464.48 1286.62 1448.32 1277.42 1423.76C1263.71 1387.35 1250 1350.72 1236.29 1314.1C1242.84 1309.6 1249.18 1304.68 1255.52 1299.77C1255.93 1302.64 1256.75 1305.5 1258.8 1308.57C1302.17 1374.46 1346.16 1439.93 1389.13 1505.81C1403.45 1527.7 1435.99 1502.33 1421.26 1480.44C1378.08 1416.19 1336.14 1351.33 1293.38 1286.88C1289.9 1281.57 1284.99 1278.9 1280.08 1278.09C1286.83 1271.33 1293.38 1264.38 1299.51 1257.01C1300.13 1257.63 1300.54 1258.44 1301.36 1258.85C1332.05 1281.16 1362.74 1303.46 1393.43 1325.76C1414.71 1341.31 1438.85 1308.16 1417.57 1292.61C1386.88 1270.31 1356.19 1248.01 1325.5 1225.71C1324.89 1225.3 1324.07 1225.09 1323.45 1224.69C1329.18 1215.68 1334.5 1206.27 1339.21 1196.45C1341.05 1197.27 1342.89 1198.09 1345.35 1198.5C1348.21 1198.91 1351.28 1199.31 1354.14 1199.72C1355.99 1204.22 1359.87 1207.91 1366.22 1209.95C1390.36 1217.11 1415.73 1222.64 1441.31 1226.12C1573.28 1289.75 1657.78 1446.68 1567.75 1588.27H1567.96ZM1675.79 1126.48C1616.66 1183.76 1532.36 1196.45 1452.97 1186.63C1422.07 1171.69 1388.93 1161.87 1354.96 1158.6C1361.92 1137.93 1367.03 1115.84 1369.69 1092.1C1371.33 1077.37 1372.15 1062.23 1371.95 1047.29C1401.41 1059.37 1431.08 1071.64 1460.54 1083.92C1484.89 1093.94 1497.37 1054.86 1473.02 1045.04C1438.44 1030.93 1403.66 1016.6 1369.08 1002.28C1368.26 995.53 1367.24 988.573 1366.22 981.821C1434.96 965.044 1503.71 956.45 1574.71 956.45C1600.7 956.45 1605.81 916.143 1579.21 915.734C1504.12 914.916 1430.26 923.714 1357.42 941.923C1354.96 932.921 1352.51 924.123 1349.44 915.325C1377.06 880.747 1408.16 849.647 1443.35 822.435C1464.22 806.271 1436.81 775.99 1415.94 791.949C1385.45 815.683 1357.42 842.486 1332.05 871.54C1316.29 836.757 1296.45 803.612 1272.92 773.535C1337.37 697.832 1416.75 655.888 1519.06 681.054C1616.66 704.992 1701.16 776.808 1734.1 872.153C1764.18 959.519 1743.1 1061.41 1675.58 1126.68L1675.79 1126.48Z" fill="#1B1A16"/>
</svg>
