<svg width="2000" height="2000" viewBox="0 0 2000 2000" fill="none" xmlns="http://www.w3.org/2000/svg">
<path d="M1388.14 291.878C1126.12 70.3817 785.066 167.92 552.997 381.71C346.028 572.383 45.9222 1066.46 457.658 1197.9C457.879 1197.9 458.099 1197.9 458.539 1197.9C458.539 1197.9 458.539 1197.9 458.76 1197.9C462.943 1199 467.347 1200.1 471.75 1201.2C430.577 1329.79 363.421 1521.34 424.411 1642.88C517.987 1829.59 828.221 1822.1 1001.28 1827.16C1164 1831.79 1455.95 1865.03 1562.08 1701.22C1615.58 1618.66 1595.99 1480.83 1583.22 1389.45C1574.41 1327.58 1560.76 1265.72 1542.48 1205.83C1598.19 1186.89 1648.39 1158.27 1687.8 1115.12C1794.37 997.762 1737.12 840.997 1677.67 715.497C1604.8 561.154 1520.69 403.508 1388.58 291.438L1388.14 291.878ZM1501.53 485.633C1501.53 485.633 1502.63 484.753 1503.29 484.312C1534.56 527.026 1564.72 573.483 1591.58 621.481C1587.84 626.986 1586.3 633.591 1587.84 639.976C1575.95 652.966 1527.07 653.847 1518.04 652.526C1495.37 649.003 1472.91 637.334 1459.7 618.179C1428.21 572.602 1453.97 507.211 1501.53 485.633ZM649.215 355.95C652.298 357.05 656.041 357.711 660.224 356.83C806.423 329.088 947.338 593.959 780.662 658.691C676.297 699.203 525.914 625.665 470.869 533.191C522.391 468.019 582.5 407.03 649.435 355.95H649.215ZM1509.24 1697.92C1403.77 1821.66 1121.5 1787.75 983.448 1782.91C814.79 1776.96 470.209 1782.91 447.97 1553.04C438.062 1450.44 480.998 1315.7 514.245 1211.55C707.342 1253.39 922.018 1246.12 1115.78 1243.7C1229.61 1242.16 1374.93 1250.08 1500.21 1218.6C1541.6 1350.26 1599.51 1591.8 1509.24 1697.7V1697.92ZM1045.1 1077.69C1043.78 1016.48 1090.9 971.561 1151.45 972.441C1242.82 973.983 1345.2 1097.28 1290.6 1185.13C1288.18 1189.09 1287.3 1193.28 1287.3 1197.24C1230.49 1199.44 1176.77 1199.22 1132.29 1199.44C1130.97 1194.82 1127.89 1190.64 1122.38 1187.77C1079.23 1164.87 1046.2 1128.55 1045.1 1077.69ZM1334.41 1194.82C1390.56 1074.38 1265.5 918.278 1136.03 929.287C1072.4 934.791 1019.12 976.845 1004.37 1039.82C989.613 1102.79 1016.25 1161.13 1062.49 1200.32C866.532 1203.19 655.6 1205.83 467.346 1154.97C190.36 1068.22 305.954 775.604 416.925 607.17C425.072 594.84 433.659 582.73 442.246 570.621C528.777 692.818 761.726 785.512 868.954 648.563C959.668 532.531 845.175 338.116 709.544 313.456C753.8 285.053 800.478 261.054 848.918 242.999C1057.21 165.498 1266.38 219.221 1416.76 379.509C1436.58 400.645 1456.61 424.204 1476.43 449.084C1400.25 487.835 1374.49 599.464 1439.22 661.333C1468.5 689.295 1511.22 701.185 1550.85 696.341C1569.35 694.139 1598.63 685.553 1617.13 670.141C1655 745.661 1684.28 823.603 1697.71 896.481C1740.21 1125.9 1531.26 1180.95 1333.97 1194.6L1334.41 1194.82Z" fill="#1B1A16"/>
<path d="M873.797 1315.03C848.036 1341.24 838.128 1379.33 854.421 1413.67C856.403 1417.64 859.045 1420.5 862.128 1422.48C862.568 1423.58 863.008 1424.46 863.449 1425.56C869.394 1437.89 888.329 1441.42 897.797 1431.29C927.301 1400.24 930.824 1353.13 904.623 1318.78C898.018 1310.19 881.944 1306.67 873.797 1315.03Z" fill="#1B1A16"/>
<path d="M1126.13 1315.03C1100.36 1341.24 1090.46 1379.33 1106.75 1413.67C1108.73 1417.64 1111.37 1420.5 1114.46 1422.48C1114.9 1423.58 1115.34 1424.46 1115.78 1425.56C1121.72 1437.89 1140.66 1441.42 1150.12 1431.29C1179.63 1400.24 1183.15 1353.13 1156.95 1318.78C1150.34 1310.19 1134.27 1306.67 1126.13 1315.03Z" fill="#1B1A16"/>
<path d="M1037.39 1466.96C1037.61 1491.62 1037.61 1554.37 998.201 1549.3C961.871 1544.68 971.559 1482.59 973.76 1459.25C976.182 1431.07 931.706 1430.63 929.724 1458.81C927.523 1490.73 923.339 1523.98 939.412 1553.49C951.522 1575.5 972.88 1593.34 999.081 1593.78C1069.54 1595.32 1082.31 1515.17 1081.43 1462.11C1080.99 1433.71 1037.39 1438.77 1037.61 1466.96H1037.39Z" fill="#1B1A16"/>
<path d="M1183.81 305.09C1122.6 276.687 1016.48 260.835 970.018 324.245C911.67 404.169 1007.89 493.34 1076.37 520.862C1080.11 522.403 1083.41 522.624 1086.49 522.184C1153.43 546.183 1252.07 559.613 1295.88 501.046C1351.81 426.187 1244.8 333.052 1184.03 305.09H1183.81ZM1233.79 490.037C1195.26 517.339 1109.17 486.955 1073.28 469.341C1070.2 467.8 1067.34 467.14 1064.7 467.14C1040.92 453.709 1015.6 433.893 1007.45 411.435C996.44 381.271 1017.8 333.273 1050.38 327.328C1092.66 319.402 1139.78 330.851 1176.77 350.887C1214.2 371.143 1303.59 440.498 1233.57 490.258L1233.79 490.037Z" fill="#1B1A16"/>
<path d="M1134.71 615.538C1083.41 590.658 1012.07 587.356 979.707 643.941C952.405 691.939 982.57 735.754 1020 765.477C1021.1 772.303 1025.06 778.908 1032.77 782.431C1087.37 807.531 1160.25 811.274 1196.58 754.248C1234.23 695.241 1187.56 641.298 1134.49 615.317L1134.71 615.538ZM1162.46 724.524C1147.7 760.413 1108.29 759.973 1075.05 750.725C1073.94 749.624 1073.28 748.524 1071.74 747.643C1048.84 733.772 1008.11 709.113 1013.84 676.967C1021.76 632.271 1079.01 639.096 1108.07 651.646C1136.26 663.756 1177.65 687.535 1162.46 724.524Z" fill="#1B1A16"/>
<path d="M1483.04 803.787C1422.27 801.145 1370.52 850.905 1385.94 913.214C1405.09 990.496 1485.9 1037.61 1561.64 1031.23C1570.01 1030.57 1574.85 1025.94 1577.27 1020.22C1615.36 1014.5 1643.55 977.286 1639.14 933.911C1632.1 864.335 1549.75 806.649 1483.26 803.787H1483.04ZM1555.7 974.864C1542.49 969.36 1531.26 976.845 1526.85 987.194C1503.29 983.671 1481.5 972.882 1463.22 956.369C1432.84 929.068 1403.33 865.216 1462.12 849.364C1494.49 840.777 1529.72 860.372 1554.6 879.528C1565.82 888.114 1576.61 897.582 1584.32 909.472C1598.85 932.15 1598.85 992.698 1555.7 974.864Z" fill="#1B1A16"/>
<path d="M700.297 824.705C618.83 810.174 522.612 844.521 526.796 941.178C530.099 1016.92 588.006 1060.29 653.839 1078.57C655.601 1079.89 657.362 1081.43 659.784 1082.31C732.443 1109.61 870.496 1092.22 889.212 997.323C907.046 907.711 769.654 837.255 700.077 824.926L700.297 824.705ZM730.242 1049.72C727.159 1046.86 723.196 1044.66 717.912 1044.44C659.124 1040.92 586.905 1022.2 572.813 954.609C557.621 882.611 629.839 858.392 687.967 866.978C730.682 873.364 801.8 901.106 824.479 943.16C866.973 1021.32 793.654 1049.94 730.462 1049.72H730.242Z" fill="#1B1A16"/>
</svg>
