<svg width="2000" height="2000" viewBox="0 0 2000 2000" fill="none" xmlns="http://www.w3.org/2000/svg">
<path d="M1521.42 259.685C1326.37 304.889 1161.61 432.93 1058.12 602.275C979.873 434.078 804.559 194.976 592.53 246.376C393.122 294.793 330.247 512.784 322.445 693.143C302.023 1172.49 611.117 1598.38 1056.74 1755.79C1061.33 1758.77 1066.38 1760.38 1071.89 1759.92C1079.46 1760.38 1085.43 1756.48 1088.64 1750.51C1276.12 1555.24 1448.68 1346.66 1602.88 1124.08C1722.89 951.06 1879.39 746.149 1860.34 522.88C1844.28 334.949 1709.58 216.087 1521.42 259.685ZM1746.99 808.793C1580.39 1140.14 1319.49 1443.03 1064.09 1709.67C714.378 1584.15 451.636 1287.91 384.172 919.395C349.982 732.381 344.015 451.288 519.1 329.213C733.653 179.602 944.994 457.942 1021.64 632.794C1029.9 651.61 1052.39 647.48 1061.1 634.171C1070.28 643.12 1084.97 645.644 1093.46 631.646C1190.98 471.71 1348.17 341.374 1535.42 303.283C1858.05 237.656 1842.9 617.42 1746.76 808.793H1746.99Z" fill="#1B1A16"/>
<path d="M876.843 1073.14C914.017 1057.3 918.606 996.266 915.623 961.617C918.377 916.871 907.592 870.519 869.5 864.553C795.152 852.621 796.758 992.136 812.592 1033.67C822.229 1058.91 847.241 1085.76 876.843 1073.14Z" fill="#1B1A16"/>
<path d="M1129.49 1073.14C1166.66 1057.3 1171.25 996.266 1168.27 961.617C1171.02 916.871 1160.24 870.519 1122.15 864.553C1047.8 852.621 1049.4 992.136 1065.24 1033.67C1074.87 1058.91 1099.89 1085.76 1129.49 1073.14Z" fill="#1B1A16"/>
<path d="M1286.45 973.319C1270.84 1145.42 1182.5 1327.38 978.498 1321.42C793.088 1315.91 708.414 1135.09 693.498 973.09C690.745 943.718 644.851 944.636 647.604 974.008C664.585 1162.86 777.254 1383.6 998.921 1368.46C1083.59 1362.72 1179.51 1312.47 1239.4 1251.89C1311.69 1179.15 1323.39 1073.59 1332.34 976.531C1335.09 947.16 1289.2 943.948 1286.45 973.319Z" fill="#1B1A16"/>
<path d="M291.926 520.126C297.433 491.214 252.687 481.117 247.18 510.259C199.68 758.769 226.069 1006.82 325.887 1239.5C337.59 1266.57 380.73 1251.43 369.257 1224.35C272.421 998.789 246.032 761.293 291.926 520.355V520.126Z" fill="#1B1A16"/>
<path d="M184.995 745.232C186.142 715.631 140.249 713.795 139.101 743.396C135.2 853.768 142.773 962.534 161.819 1071.3C166.867 1100.44 211.843 1091.03 206.794 1061.89C188.437 957.027 181.323 851.703 184.995 745.461V745.232Z" fill="#1B1A16"/>
<path d="M1662.77 1144.04C1556.3 1262.67 1453.73 1384.52 1355.28 1509.81C1337.16 1532.98 1371.58 1563.27 1389.93 1539.87C1488.15 1414.58 1590.49 1292.73 1696.96 1174.33C1716.7 1152.3 1682.28 1122.01 1662.54 1144.04H1662.77Z" fill="#1B1A16"/>
<path d="M1719.22 1217.47C1650.15 1308.11 1580.85 1398.75 1511.78 1489.38C1493.89 1512.79 1530.6 1540.56 1548.5 1516.92C1617.8 1426.05 1687.1 1335.41 1756.17 1244.78C1774.07 1221.37 1737.12 1194.06 1719.22 1217.47Z" fill="#1B1A16"/>
</svg>
