<svg width="2000" height="2000" viewBox="0 0 2000 2000" fill="none" xmlns="http://www.w3.org/2000/svg">
<path d="M876.632 1025.52C894.509 1057.49 927.11 1095.77 968.544 1076.42C975.484 1073.06 981.373 1068.43 986.421 1062.75C994.413 1074.95 1006.61 1084.62 1025.96 1090.51C1076.23 1105.65 1117.87 1062.54 1109.46 1013.32C1104.83 986.613 1064.45 996.919 1068.66 1023.42C1063.4 1048.45 1053.09 1056.86 1037.74 1048.87C1025.75 1046.76 1017.97 1038.98 1014.18 1025.52C1010.19 1014.59 1011.45 1000.7 1012.08 989.558C1012.71 973.363 1013.34 957.8 1012.08 942.026C1027.64 930.248 1038.58 915.315 1045.73 896.176C1050.78 882.715 1037.53 870.096 1025.12 869.675C995.675 868.834 966.23 867.993 936.785 867.151C919.328 866.731 906.919 888.814 920.169 902.275C936.995 919.311 953.611 936.557 970.437 953.593C970.857 968.526 970.016 983.459 966.861 998.391C965.599 1004.28 964.337 1017.11 960.131 1021.74C950.876 1032.04 921.221 1018.58 913.859 1005.33C900.609 981.776 863.802 1001.76 876.842 1025.52H876.632Z" fill="#1B1A16"/>
<path d="M1169.61 932.351C1255.22 928.145 1341.03 927.724 1426.63 931.089C1453.76 932.141 1455.02 889.866 1427.89 889.025C1339.77 886.291 1252.06 886.712 1163.94 890.708C1136.8 891.97 1142.69 933.613 1169.61 932.351Z" fill="#1B1A16"/>
<path d="M1420.53 995.027C1350.07 986.404 1280.88 972.523 1212.52 953.804C1186.44 946.653 1179.08 988.086 1204.95 995.237C1275.62 1014.38 1346.92 1028.05 1419.69 1037.09C1446.4 1040.46 1447.45 998.182 1420.53 995.027Z" fill="#1B1A16"/>
<path d="M1417.8 1117.22C1363.95 1086.73 1308.01 1060.86 1250.17 1038.98C1224.93 1029.52 1212.31 1069.69 1237.76 1079.16C1292.44 1099.56 1344.82 1124.16 1395.5 1152.77C1419.06 1166.02 1441.56 1130.47 1417.8 1117.22Z" fill="#1B1A16"/>
<path d="M521.605 890.076C606.576 904.167 690.916 921.414 774.625 940.973C800.916 947.073 812.483 906.691 785.983 900.382C701.222 880.401 615.83 863.365 529.808 848.853C503.096 844.226 494.684 885.659 521.605 890.076Z" fill="#1B1A16"/>
<path d="M751.068 995.027C777.99 993.975 778.831 951.911 751.489 952.963C686.709 955.486 622.981 950.859 559.463 938.24C532.962 932.982 522.446 973.784 549.157 979.042C615.83 992.292 682.923 997.761 750.858 995.027H751.068Z" fill="#1B1A16"/>
<path d="M757.169 1002.39C706.481 1009.54 655.793 1016.69 605.105 1024.26C581.759 1027.63 587.227 1068.85 610.783 1065.69C660.42 1058.96 710.056 1051.81 759.693 1044.45C786.194 1040.67 784.091 998.602 757.169 1002.39Z" fill="#1B1A16"/>
<path d="M877.893 849.484C882.31 846.33 885.675 841.492 886.306 834.552C888.41 813.309 893.668 754.63 857.702 759.678C841.928 761.781 836.88 777.555 833.936 791.015C829.729 810.154 831.622 830.766 838.142 849.064C845.503 869.675 872.425 865.258 878.104 849.484H877.893Z" fill="#1B1A16"/>
<path d="M1109.04 849.484C1113.46 846.33 1116.82 841.492 1117.45 834.552C1119.56 813.309 1124.81 754.63 1088.85 759.678C1073.07 761.781 1068.03 777.555 1065.08 791.015C1060.88 810.154 1062.77 830.766 1069.29 849.064C1076.44 869.675 1103.57 865.258 1109.25 849.484H1109.04Z" fill="#1B1A16"/>
<path d="M871.164 1619.05C842.139 1643.65 823.21 1679.62 825.103 1720C828.889 1802.87 906.288 1853.55 983.898 1847.67C994.204 1846.82 1000.51 1840.3 1003.25 1832.52C1062.14 1819.27 1110.3 1782.05 1105.26 1710.33C1102.73 1673.31 1083.8 1641.34 1056.46 1618.84C1213.99 1614 1384.36 1602.01 1529.48 1546.7C1664.93 1495.17 1715.41 1424.29 1662.19 1285.06C1660.09 1279.59 1656.52 1276.43 1652.52 1274.54C1656.3 906.271 1631.28 536.528 1605.2 169.309C1603.72 149.749 1578.91 147.225 1567.76 159.424C1474.79 261.219 1382.04 363.014 1289.08 464.809C1111.99 385.728 878.315 418.328 701.643 487.734C701.222 487.103 701.222 486.472 700.801 485.841C630.974 379.839 561.146 273.838 491.529 167.626C479.54 149.328 454.722 156.479 451.988 177.511C427.169 373.53 403.823 569.759 383.001 766.198C368.068 906.271 354.187 1046.34 344.512 1186.84C343.04 1209.55 340.936 1225.33 341.778 1238.37C334.206 1239 327.055 1243.62 324.741 1253.51C259.12 1538.07 625.295 1607.06 870.954 1618.63L871.164 1619.05ZM1063.19 1719.79C1062.14 1780.57 1008.72 1793.61 958.659 1796.56C953.191 1796.98 948.984 1799.5 946.25 1803.29C908.812 1795.3 876.212 1771.53 868.64 1730.31C857.493 1668.47 915.122 1623.67 972.12 1628.51C1020.07 1632.51 1064.24 1669.31 1063.19 1720V1719.79ZM391.204 1131.1C396.883 1057.07 403.823 983.248 410.974 909.426C433.058 685.014 458.508 460.813 486.901 237.242C545.582 326.418 604.263 415.594 662.943 504.77C652.848 509.397 642.752 514.024 633.077 518.651C608.889 530.429 623.612 569.969 647.8 557.981C838.985 464.388 1154.05 401.502 1343.13 544.73C1364.59 560.925 1388.14 525.591 1366.27 509.607C1354.07 500.774 1341.45 492.571 1328.41 485C1407.91 397.717 1487.62 310.434 1567.13 223.361C1579.54 402.764 1589.84 582.378 1598.26 761.991C1604.78 905.22 1610.24 1048.45 1611.51 1191.89C1611.51 1210.81 1621.39 1269.07 1611.51 1284.01C1593.63 1310.3 1502.77 1318.29 1474.16 1325.23C1361.85 1352.78 1247.85 1373.6 1132.6 1384.12C912.388 1404.52 673.459 1392.95 470.706 1295.78C448.202 1285.06 389.942 1263.82 376.902 1239.63C376.481 1239 390.362 1150.24 391.835 1131.31L391.204 1131.1ZM362.81 1280.22C364.913 1282.32 366.806 1284.22 369.33 1286.53C468.393 1371.92 636.442 1403.68 759.902 1420.71C1052.04 1460.89 1348.81 1408.1 1629.17 1325.86C1634.22 1370.45 1620.76 1440.48 1598.89 1466.56C1582.06 1486.33 1527.17 1503.37 1498.98 1513.05C1442.62 1532.61 1383.51 1543.12 1324.62 1551.11C1214.83 1566.05 1103.36 1575.93 992.521 1578.67C817.742 1582.87 312.753 1563.52 362.81 1280.01V1280.22Z" fill="#1B1A16"/>
<path d="M970.016 1683.62C966.44 1688.87 962.865 1694.34 959.5 1699.6C958.869 1698.13 957.817 1696.65 957.397 1694.97C954.452 1684.04 945.618 1675.41 933.63 1677.31C923.324 1678.78 913.018 1690.13 915.963 1701.07C917.225 1706.33 918.907 1711.17 921.01 1715.79C921.221 1716.42 921.431 1716.85 921.641 1717.48C923.114 1720.84 924.586 1724 926.479 1727.15C931.947 1737.04 938.888 1746.08 947.722 1754.7C955.504 1762.27 971.488 1758.91 977.167 1750.29C986.211 1735.98 995.465 1721.89 1004.51 1707.59C1017.13 1687.61 983.897 1664.27 970.226 1683.83L970.016 1683.62Z" fill="#1B1A16"/>
</svg>
