<svg width="2000" height="2000" viewBox="0 0 2000 2000" fill="none" xmlns="http://www.w3.org/2000/svg">
<path d="M409.138 882.531C422.596 841.964 442.591 805.05 463.933 773.327C416.828 882.146 397.41 1006.92 402.985 1135.74C335.501 1211.87 365.686 1318.96 442.207 1379.91C555.835 1470.27 744.83 1491.03 891.912 1501.8C857.496 1534.1 841.154 1583.32 856.92 1631.58C877.877 1696.56 945.553 1733.28 1011.69 1717.13C1087.25 1698.67 1111.48 1624.08 1093.79 1554.29C1088.98 1535.06 1079.18 1519.3 1066.29 1506.61C1303.36 1501.99 1704.8 1455.85 1564.64 1230.71C1601.94 1040.76 1561.76 836.581 1456.21 680.081C1495.43 716.418 1559.64 790.054 1590.21 882.723C1678.46 1150.16 2059.72 1086.13 1794.78 511.277C1771.71 461.289 1674.04 297.868 1469.47 314.018C1415.45 318.248 1297.78 392.076 1272.4 501.279C1241.83 482.438 1209.34 466.096 1174.73 452.83C1202.8 428.22 1230.49 393.229 1189.54 365.928C1168.77 352.085 1141.85 352.662 1115.9 359.968C1129.55 336.705 1132.63 313.057 1103.02 297.099C1058.41 273.067 1012.08 314.018 984.775 350.74C966.318 315.748 936.709 275.95 899.603 278.642C877.492 280.18 858.843 297.676 860.381 320.555C861.342 335.551 868.648 351.316 876.915 365.928C846.153 360.545 810.969 360.16 794.434 384.77C777.9 409.379 788.858 433.027 807.316 450.33C777.707 461.097 750.021 473.402 723.873 487.437C692.342 385.923 582.175 318.055 530.456 314.018C325.887 297.868 228.025 461.289 205.146 511.277C-59.7934 1086.13 321.658 1150.16 409.715 882.723L409.138 882.531ZM961.127 1680.41C873.454 1663.49 871.916 1554.48 938.44 1515.64C940.362 1515.64 942.477 1515.64 944.592 1515.07C1000.54 1496.23 1054.37 1526.79 1059.95 1586.2C1065.53 1646.38 1023.8 1692.52 961.319 1680.41H961.127ZM419.328 1176.11C516.421 1308.77 718.682 1354.14 872.108 1362.03C1097.63 1373.56 1322.39 1332.42 1533.3 1253.98C1723.07 1585.63 179.19 1504.3 419.328 1176.11ZM842.885 478.4C846.922 477.055 849.614 474.747 851.537 472.056C866.918 468.211 875.954 446.677 858.074 438.026C848.653 433.411 836.924 429.182 830.003 420.915C820.197 408.994 829.042 402.65 840.962 402.265C859.804 401.689 879.222 405.149 897.487 409.571C910.177 412.647 919.598 403.803 922.29 393.998C927.481 387.846 929.788 379.002 924.212 370.35C917.291 359.391 910.946 347.856 905.563 335.936C904.986 334.59 896.911 319.401 899.026 317.479C903.256 313.633 912.676 321.516 915.368 323.631C936.517 340.165 951.322 367.274 961.512 391.499C968.049 407.456 987.275 405.342 995.158 394.959C999.388 393.806 1003.42 391.114 1006.5 386.308C1019.19 365.544 1048.8 325.554 1077.06 328.437C1096.48 330.552 1077.64 346.125 1071.29 354.2C1059.57 369.004 1047.26 383.039 1034.19 396.882C1020.54 411.302 1037.46 430.143 1053.22 427.451C1058.8 430.335 1065.33 430.528 1071.87 425.337C1092.06 409.379 1114.55 398.228 1140.32 395.152C1145.12 394.383 1149.93 393.998 1154.74 394.19C1169.93 400.343 1172.23 406.495 1161.66 412.84C1156.08 422.837 1136.28 434.565 1128.01 440.717C1118.97 447.254 1119.74 456.675 1124.74 463.596C1124.74 470.133 1128.01 476.478 1136.47 479.362C1436.4 578.76 1581.95 914.062 1528.5 1214.95C1358.34 1279.55 1180.12 1318 998.042 1323.96C820.198 1329.73 553.912 1311.85 444.514 1144.58C446.245 1139.58 444.899 1134.58 441.822 1130.74C432.786 838.119 548.721 573.761 843.269 478.016L842.885 478.4Z" fill="#1B1A16"/>
<path d="M830.003 793.514C830.003 793.514 830.773 795.052 831.349 795.821C842.885 812.548 865.765 800.051 872.494 787.746C876.916 779.671 877.877 770.058 878.454 761.215C879.608 742.373 874.609 723.916 865.188 707.766C858.074 695.654 839.04 694.5 831.926 707.382C816.93 734.683 812.7 761.791 827.504 790.246C828.274 791.592 829.235 792.553 830.196 793.706L830.003 793.514Z" fill="#1B1A16"/>
<path d="M1081.1 707.19C1066.1 734.491 1061.87 761.6 1076.68 790.054C1077.45 791.4 1078.41 792.361 1079.37 793.515C1079.75 794.284 1080.14 795.053 1080.71 795.822C1089.37 808.511 1108.4 803.513 1116.86 794.284C1123.59 787.17 1125.9 777.75 1127.05 768.329C1129.74 747.18 1125.13 726.032 1114.36 707.575C1107.25 695.462 1088.21 694.309 1081.1 707.19Z" fill="#1B1A16"/>
<path d="M897.488 899.45C917.291 919.638 935.171 938.287 959.781 950.015C946.13 1009.81 922.482 1079.02 849.614 1010.58C831.541 993.658 808.469 1024.61 826.542 1041.34C846.345 1059.8 870.378 1077.1 896.142 1081.52C893.642 1108.24 893.642 1135.93 907.678 1159.77C920.944 1182.26 945.554 1198.41 972.278 1195.72C1021.11 1190.53 1053.03 1139.78 1056.3 1093.63C1100.33 1098.63 1140.51 1066.52 1142.05 1020.38C1142.82 996.157 1105.13 989.428 1104.17 1014.23C1060.72 1051.72 1031.88 1054.6 1017.65 1022.5C1008.62 1010 1003.81 995.773 1003.43 979.815C1002.08 970.202 1002.08 960.397 1002.46 950.591C1027.65 945.016 1049.18 932.519 1065.72 911.563C1074.56 900.412 1071.87 883.685 1056.87 879.455C1007.65 865.612 957.858 861.191 906.908 865.805C888.643 867.343 886.721 889.068 897.295 899.835L897.488 899.45ZM1018.23 1079.79C1018.23 1079.79 1018.04 1080.56 1018.04 1080.94C1019.19 1109.21 1007.08 1139.39 980.546 1153.04C964.203 1161.31 949.783 1155.35 940.554 1140.16C929.403 1121.7 932.48 1097.67 934.979 1076.71C938.055 1075.37 941.131 1073.83 944.208 1071.91C959.781 1062.29 970.356 1047.49 978.239 1030.57C986.506 1050.57 999.195 1067.87 1018.04 1079.79H1018.23ZM1008.62 907.717C1005.73 909.063 1002.85 910.409 999.58 911.563C992.274 903.488 978.431 903.68 970.74 912.332C965.741 909.448 960.935 906.179 956.513 902.526C974.009 903.103 991.312 904.641 1008.62 907.717Z" fill="#1B1A16"/>
<path d="M977.66 1568.13C973.046 1572.94 969.008 1578.13 964.778 1583.32C964.009 1581.78 963.24 1580.24 962.471 1578.9C962.279 1578.32 962.087 1577.74 961.895 1577.36C961.126 1575.82 960.548 1574.28 959.779 1572.94C949.205 1553.71 918.443 1571.01 926.133 1591.01C930.748 1602.74 935.17 1614.27 939.784 1626C941.899 1631.58 946.321 1635.81 951.512 1637.73C959.972 1642.53 971.508 1641.19 977.468 1631.19C985.543 1617.73 995.156 1605.43 1006.12 1594.09C1023.42 1576.4 994.58 1550.25 977.66 1568.32V1568.13Z" fill="#1B1A16"/>
<path d="M808.855 663.739C818.66 643.744 844.039 634.708 863.842 645.859C885.375 658.164 904.987 624.71 883.261 612.598C845.193 591.449 794.627 605.677 775.016 645.474C764.057 667.584 797.896 686.041 808.855 663.739Z" fill="#1B1A16"/>
<path d="M1085.52 656.626C1106.29 639.13 1135.89 642.783 1150.7 666.239C1163.77 686.81 1198 670.276 1185.11 648.935C1157.81 603.754 1100.71 593.949 1059.95 627.786C1040.92 643.552 1066.49 672.391 1085.52 656.626Z" fill="#1B1A16"/>
</svg>
