<svg width="2000" height="2000" viewBox="0 0 2000 2000" fill="none" xmlns="http://www.w3.org/2000/svg">
<path d="M428.582 866.927C338.371 1042.9 315.717 1270.44 425.549 1442.17C452.45 1484.24 486.431 1521.05 524.861 1553.41C526.48 1563.52 536.391 1570.6 546.1 1570.6C677.979 1671.13 857.592 1720.28 1013.95 1721.9C1242.71 1724.32 1498.17 1627.24 1624.39 1427.2C1742.92 1239.29 1711.97 1003.25 1598.9 821.417C1791.26 758.513 1810.48 439.139 1637.13 339.827C1475.72 247.392 1269.21 391.809 1226.73 550.788C1069.37 507.302 909.372 516.201 757.469 576.071C756.458 470.49 716.814 367.942 621.141 311.51C534.571 260.54 429.796 267.821 351.519 330.118C180.4 465.837 219.64 792.494 428.582 866.724V866.927ZM1002.01 1681.44C854.963 1676.99 694.16 1630.47 573.001 1538.44C640.761 1403.73 752.615 1300.78 890.966 1245.56C915.036 1272.06 952.658 1291.07 985.83 1296.54C987.043 1320.2 985.83 1344.07 982.593 1367.53C957.714 1363.48 933.24 1354.58 910.586 1340.43C888.539 1326.67 869.526 1362.68 891.775 1376.23C961.962 1419.31 1044.89 1420.93 1117.51 1383.31C1140.77 1371.37 1122.16 1334.76 1099.3 1347.1C1074.83 1360.45 1048.94 1367.53 1022.85 1369.35C1026.28 1343.66 1026.89 1318.18 1025.68 1292.29C1027.09 1290.87 1028.51 1289.66 1029.52 1288.04C1045.5 1286.42 1061.07 1282.38 1074.63 1276.11C1096.27 1266.2 1119.93 1247.38 1134.9 1225.74C1200.84 1243.74 1270.42 1323.84 1305.01 1370.77C1349.3 1430.84 1377.42 1498.19 1393.2 1571.01C1394.41 1576.67 1397.44 1580.31 1401.09 1582.54C1280.33 1652.32 1134.9 1685.49 1002.01 1681.44ZM349.698 388.37C413.413 317.578 514.546 297.149 599.094 345.49C688.901 396.865 720.05 496.177 717.016 593.466C712.768 595.489 708.319 597.309 704.071 599.332C680.608 610.658 698.205 647.066 721.668 635.739C898.248 550.991 1085.55 540.271 1269.81 606.613C1294.29 615.513 1308.85 577.689 1284.38 568.79C1278.31 566.565 1272.04 564.744 1265.77 562.722C1304 425.789 1456.71 314.746 1598.5 372.796C1755.05 436.914 1760.52 734.646 1580.9 785.01C1579.08 785.414 1577.87 786.426 1576.45 787.235C1574.83 784.808 1573.21 782.38 1571.6 780.155C1556.22 759.12 1524.87 784.403 1540.04 805.438C1662.82 974.936 1708.53 1211.58 1595.06 1398.68C1554.4 1465.63 1497.77 1520.24 1432.03 1563.52C1432.03 1562.11 1432.23 1560.69 1432.03 1559.07C1412.01 1464.62 1368.92 1377.24 1304 1305.64C1264.96 1262.55 1209.34 1208.55 1149.46 1189.13C1151.08 1171.33 1144 1153.74 1123.37 1138.36C1066.53 1096.7 906.946 1084.56 872.965 1161.83C865.481 1178.82 865.481 1195.4 870.538 1210.78C728.748 1269.23 612.849 1374.41 541.246 1512.35C522.839 1495.97 505.444 1478.57 489.465 1459.76C343.023 1286.42 378.42 1017.61 491.487 838.003C505.242 815.956 472.272 792.898 458.316 814.945C454.877 820.406 451.843 826.069 448.607 831.531C274.05 778.537 237.035 514.179 350.102 388.775L349.698 388.37Z" fill="#1B1A16"/>
<path d="M499.172 786.223C520.815 800.786 542.256 766.603 520.815 752.04C460.135 711.183 425.345 630.278 453.865 559.283C473.687 510.133 523.243 495.368 567.135 525.505C607.184 553.013 619.522 609.242 630.242 652.729C636.512 677.81 676.359 671.337 670.089 646.054C656.132 590.027 640.153 528.337 591.205 492.131C547.515 459.971 489.464 456.128 448.808 494.761C360.619 578.7 410.781 726.353 499.172 786.223Z" fill="#1B1A16"/>
<path d="M1359.82 609.04C1366.5 526.112 1465.2 491.93 1523.86 548.766C1582.72 605.804 1557.64 679.833 1495.55 720.083C1473.7 734.242 1496.56 768.222 1518.2 753.659C1607.8 692.98 1632.08 572.431 1533.37 504.065C1445.18 443.184 1327.87 502.65 1319.37 607.827C1317.35 633.919 1357.8 634.93 1359.82 609.04Z" fill="#1B1A16"/>
<path d="M841.207 969.879C822.396 962.193 807.024 976.959 801.765 993.949C794.483 1017.41 797.113 1043.1 806.62 1065.55C808.642 1070.4 812.081 1073.24 815.721 1075.26C817.542 1077.08 819.565 1078.7 821.79 1080.11C828.667 1084.77 840.196 1085.37 846.466 1078.9C861.636 1063.12 868.715 1043.91 866.895 1021.86C866.491 1017.82 865.884 1012.96 864.873 1008.11C864.671 1006.69 864.671 1005.48 864.266 1004.06C863.457 1000.83 862.243 997.387 860.827 993.949C856.782 983.229 850.714 973.52 841.41 969.879H841.207Z" fill="#1B1A16"/>
<path d="M1217.42 1004.06C1216.62 1000.83 1215.4 997.387 1213.99 993.949C1209.94 983.229 1203.87 973.52 1194.57 969.879C1175.76 962.193 1160.39 976.959 1155.13 993.949C1147.84 1017.41 1150.47 1043.1 1159.98 1065.55C1162 1070.4 1165.44 1073.24 1169.08 1075.26C1170.9 1077.08 1172.93 1078.7 1175.15 1080.11C1182.03 1084.77 1193.56 1085.37 1199.83 1078.9C1215 1063.12 1222.08 1043.91 1220.26 1021.86C1219.85 1017.82 1219.25 1012.96 1218.23 1008.11C1218.03 1006.69 1218.03 1005.48 1217.63 1004.06H1217.42Z" fill="#1B1A16"/>
<path d="M771.224 939.539C788.416 921.336 811.677 915.47 835.545 922.347C860.423 929.628 867.907 889.176 842.826 882.501C806.822 872.995 768.594 883.31 742.906 910.616C725.107 929.628 753.222 958.552 771.224 939.539Z" fill="#1B1A16"/>
<path d="M1171.31 921.538C1193.56 914.863 1216.62 922.549 1232.39 939.337C1250.19 958.35 1279.12 930.033 1261.32 911.02C1234.21 882.299 1195.58 873.399 1158.16 883.31C1133.08 889.985 1146.43 929.022 1171.51 921.538H1171.31Z" fill="#1B1A16"/>
</svg>
