<svg width="2000" height="2000" viewBox="0 0 2000 2000" fill="none" xmlns="http://www.w3.org/2000/svg">
<path d="M1578.57 1017.56C1580.58 947.01 1570.53 876.256 1547.01 808.516C1735.76 779.772 1743.6 509.819 1639.07 387.606C1519.27 247.504 1299.77 276.45 1232.83 451.326C1232.23 452.934 1232.23 454.542 1232.03 456.15C1092.53 397.657 935.938 394.24 794.024 447.708C794.024 447.105 794.024 446.502 793.622 445.899C724.876 271.223 499.542 213.534 371.096 362.682C248.68 504.794 347.779 673.439 490.296 749.42C468.988 793.038 452.304 838.064 440.043 883.894C330.693 812.335 132.898 784.596 115.611 962.086C96.7155 1157.26 303.556 1323.5 472.405 1367.12C481.853 1389.83 492.507 1412.14 504.366 1434.05C461.551 1461.59 422.555 1501.59 415.72 1553.25C414.313 1563.1 417.328 1569.93 425.369 1575.56C464.767 1603.9 533.915 1579.18 582.962 1566.72C588.59 1616.57 602.058 1677.47 652.914 1689.93C659.949 1691.74 666.783 1687.52 671.407 1682.7C695.93 1657.17 713.619 1622.8 730.705 1590.03C763.671 1652.14 833.02 1762.1 884.479 1707.02C911.816 1677.87 897.343 1595.46 897.946 1559.48C898.348 1528.73 897.946 1497.97 897.343 1467.22C960.662 1479.28 1026.59 1478.07 1090.72 1473.05C1091.12 1487.52 1091.52 1501.99 1091.92 1516.67C1092.93 1550.03 1074.43 1627.62 1095.14 1654.96C1131.72 1703 1201.27 1641.49 1238.26 1608.93C1280.87 1650.13 1324.89 1682.9 1388.01 1684.71C1398.46 1685.11 1408.51 1675.46 1408.31 1664.81C1407.51 1641.09 1405.3 1618.98 1401.48 1596.67C1462.39 1623 1562.89 1662.19 1590.03 1614.96C1605.1 1588.83 1573.75 1538.78 1562.69 1515.06C1555.25 1498.78 1546.81 1483.3 1537.97 1468.42C1538.57 1468.42 1538.97 1468.42 1539.57 1468.22C1675.06 1415.56 1939.39 1313.45 1876.27 1119.88C1833.85 989.825 1691.94 965.905 1578.57 1017.16V1017.56ZM584.168 1154.85C563.464 1150.23 545.775 1178.77 567.082 1189.63C576.73 1194.65 592.61 1201.08 598.239 1210.93C609.897 1231.44 587.585 1247.72 570.901 1252.94C538.94 1262.99 505.17 1249.33 475.823 1237.26C474.416 1236.66 473.21 1236.86 472.004 1236.46C458.536 1177.57 452.505 1117.46 454.314 1057.56C455.923 1056.56 457.732 1055.35 459.34 1053.54C486.677 1023.39 538.94 1009.52 573.916 1032.64C614.118 1058.97 632.41 1128.32 584.168 1154.45V1154.85ZM311.798 868.818C311.798 868.818 311.597 869.421 311.597 869.823C308.782 903.191 297.325 941.583 264.158 956.257C225.162 973.543 202.045 943.191 185.562 912.638C214.307 866.607 262.349 857.964 311.999 868.818H311.798ZM218.126 1147.01C178.929 1088.92 150.185 1025.6 166.466 957.865C189.583 988.82 221.141 1009.72 264.56 998.468C319.637 984.196 343.356 932.337 350.191 880.477C379.136 891.934 406.876 908.216 429.992 925.703C402.655 1056.56 410.896 1192.24 454.314 1320.08C358.834 1289.53 275.214 1231.84 218.126 1147.01ZM1494.75 1582.6C1458.77 1578.98 1415.95 1558.68 1384.19 1545.81C1368.31 1539.38 1350.42 1550.43 1355.05 1568.93C1362.08 1592.65 1366.3 1616.77 1367.71 1641.29C1321.88 1631.24 1284.29 1607.32 1254.94 1569.33C1247.3 1561.69 1235.85 1558.88 1226.6 1566.31C1206.5 1582.8 1186.2 1600.08 1164.09 1613.95C1106.6 1649.73 1133.33 1596.67 1133.13 1556.26C1132.53 1486.51 1128.1 1417.97 1131.12 1348.02C1132.33 1322.09 1092.12 1324.7 1090.92 1350.43C1089.71 1378.17 1089.51 1405.71 1089.91 1433.45C1025.39 1438.27 959.255 1439.48 895.936 1426.41C895.132 1403.9 894.328 1381.39 893.122 1358.87C891.715 1333.15 851.513 1332.34 852.92 1358.27C856.538 1426.61 858.95 1494.55 857.744 1563.1C857.543 1580.38 866.589 1668.43 835.432 1668.43C808.697 1668.43 756.233 1553.45 748.796 1536.57C742.364 1522.49 720.855 1524.5 714.021 1536.57C676.231 1602.9 633.214 1690.34 620.752 1541.39C619.948 1531.54 610.299 1520.48 599.445 1522.49C568.087 1528.32 509.593 1551.64 480.044 1535.76C437.229 1512.85 518.035 1471.64 542.759 1458.17C557.835 1449.93 554.418 1431.84 543.966 1423.8C518.839 1378.77 499.14 1331.74 484.667 1283.7C531.302 1299.38 586.178 1306.81 622.963 1267.62C652.713 1236.06 644.069 1203.09 620.149 1178.77C667.185 1138.37 661.758 1061.99 616.531 1016.16C574.519 973.543 506.979 971.332 458.134 1002.69C467.983 911.432 495.522 821.381 541.151 737.762C553.011 716.053 522.457 695.55 508.99 714.243C376.121 643.69 288.279 479.668 427.982 363.888C542.759 268.61 704.774 327.304 755.831 459.366C756.434 460.773 757.44 461.778 758.043 462.984C737.539 472.231 717.237 482.482 697.739 494.342C675.829 507.407 691.508 544.392 713.619 531.327C905.987 416.954 1136.35 424.793 1320.87 550.222C1339.37 562.885 1362.08 530.322 1343.39 517.457C1318.86 500.372 1293.34 485.497 1267 472.432C1267.61 471.226 1268.61 470.422 1269.21 469.216C1332.13 307.606 1535.75 298.158 1628.22 441.879C1692.95 542.784 1687.92 755.852 1532.34 770.526C1523.69 750.425 1514.45 730.726 1503.39 711.429C1490.53 689.118 1454.75 707.208 1467.61 729.721C1579.98 926.105 1555.05 1166.91 1426.81 1349.03C1426 1350.23 1425.4 1351.44 1424.8 1352.44C1414.34 1358.67 1408.72 1375.56 1420.17 1386.81C1463.19 1428.62 1519.27 1487.12 1532.54 1548.22C1541.38 1589.43 1538.37 1587.62 1494.95 1583.2L1494.75 1582.6ZM1526.51 1430.63C1522.09 1432.24 1519.47 1435.06 1517.26 1438.27C1500.18 1414.35 1480.88 1391.84 1459.97 1370.33C1460.58 1369.73 1460.98 1369.13 1461.58 1368.52C1525.7 1276.86 1564.7 1170.33 1575.76 1061.79C1578.17 1061.79 1580.58 1060.98 1583.19 1059.78C1669.63 1016.96 1796.27 1028.82 1834.06 1115.45C1768.73 1100.18 1723.9 1198.07 1710.03 1263.6C1676.06 1244.7 1633.04 1251.34 1602.29 1279.48C1563.7 1314.85 1549.62 1368.72 1556.26 1419.38C1545.6 1423.4 1535.55 1427.22 1526.51 1430.84V1430.63ZM1595.05 1403.9C1592.84 1372.95 1600.88 1341.79 1620.98 1317.47C1640.48 1293.95 1678.27 1279.68 1701.79 1306.21C1710.23 1315.66 1722.29 1314.65 1730.33 1309.02C1738.37 1307.22 1745.61 1301.59 1746.21 1290.93C1747.82 1263.19 1784.2 1117.87 1840.69 1161.89C1842.1 1162.89 1843.5 1163.29 1844.91 1164.1C1845.31 1170.93 1845.51 1177.77 1844.91 1185.2C1837.27 1294.35 1701.59 1360.88 1595.05 1403.7V1403.9Z" fill="#1B1A16"/>
<path d="M1422.38 684.495C1395.45 658.967 1367.71 634.645 1340.17 609.921C1321.27 592.836 1290.92 618.966 1310.02 636.454C1317.86 643.489 1325.7 650.726 1333.34 657.761C1136.55 745.4 916.438 737.561 727.488 633.841C740.353 625.801 752.815 617.158 764.273 607.107C783.57 590.022 759.047 558.262 739.548 575.348C710 601.278 676.632 618.766 638.641 628.414C613.514 634.645 628.188 672.434 652.913 666.002C664.169 663.188 675.024 659.369 685.677 655.148C686.884 656.153 687.688 657.359 689.095 658.364C895.734 779.169 1143.18 792.034 1360.07 689.922C1362.08 688.917 1363.49 687.912 1365.1 686.706C1375.15 695.751 1385.2 704.998 1395.45 713.842C1412.33 728.717 1438.87 700.173 1422.38 684.495Z" fill="#1B1A16"/>
<path d="M569.896 411.125C568.489 410.723 567.082 410.723 565.675 410.321C525.874 390.019 477.632 421.778 466.174 470.02C451.5 531.327 512.005 577.76 569.695 563.488C640.853 546.001 639.647 429.818 569.896 410.924V411.125Z" fill="#1B1A16"/>
<path d="M1528.52 596.051C1599.68 578.564 1598.47 462.381 1528.72 443.487C1527.31 443.084 1525.9 443.085 1524.5 442.683C1484.7 422.381 1436.45 454.14 1425 502.382C1410.32 563.689 1470.83 610.122 1528.52 595.85V596.051Z" fill="#1B1A16"/>
</svg>
