<svg width="2000" height="2000" viewBox="0 0 2000 2000" fill="none" xmlns="http://www.w3.org/2000/svg">
<path d="M797.272 1256.78C797.272 1256.78 798.102 1257.06 798.655 1257.19C800.729 1258.85 803.219 1259.82 805.985 1259.68C931.576 1302.01 1114.57 1314.73 1157.44 1154.15C1172.66 1097.31 1165.47 1036.59 1144.58 981.4C1144.86 978.08 1143.47 975.037 1141.12 972.686C1131.3 948.481 1118.85 925.521 1104.61 904.636C1102.67 901.732 1100.6 898.965 1098.52 896.061C1285.39 893.71 1476.54 737.416 1407.52 534.373C1377.09 444.885 1313.05 403.945 1245 402.285C1243.75 396.614 1242.23 390.805 1240.57 384.996C1211.94 292.88 1151.64 183.475 1048.87 163.834C838.49 123.585 689.662 342.672 756.33 523.585C717.187 497.582 675.554 475.037 632.953 461.206C641.667 415.701 650.243 370.196 658.68 324.553C661.999 307.126 635.028 300.902 631.708 318.468C623.133 363.558 614.557 408.648 606.258 453.737C590.49 450.003 574.584 447.513 558.54 446.683C555.635 395.646 552.869 344.747 549.549 293.848C548.443 276.282 520.918 274.761 521.886 292.742C524.653 344.056 527.834 395.508 530.738 446.822C488.137 449.45 445.536 463.834 404.318 495.093C265.173 600.625 300.72 792.188 378.315 924.277C470.295 1080.71 627.697 1196.89 797.133 1256.92L797.272 1256.78ZM580.393 1107.68C554.529 1087.9 527.695 1064.11 501.554 1037.55C656.19 962.036 807.092 846.96 911.243 710.584C911.52 710.169 911.658 709.754 911.797 709.339C944.301 750.279 976.667 791.497 1010.14 831.607C908.477 953.737 769.885 1065.36 631.985 1144.33C624.516 1148.62 601.002 1123.72 580.117 1107.68H580.393ZM1134.48 1128.84C1110.56 1275.45 952.323 1275.59 840.841 1242.26C948.588 1182.64 1042.23 1100.21 1123.83 1008.09C1136.56 1045.58 1141.68 1085.55 1134.62 1128.84H1134.48ZM1112.35 979.602C1024.52 1079.46 923.968 1169.78 804.879 1230.5C753.979 1212.38 704.877 1188.73 658.542 1160.79C659.925 1160.51 661.446 1160.1 662.968 1159.27C802.528 1079.46 925.49 977.112 1028.12 853.184C1061.04 892.603 1091.88 934.235 1112.49 979.602H1112.35ZM1157.17 604.498C1123.97 633.544 1053.15 633.267 1058.55 571.303C1060.9 544.885 1083.72 518.053 1100.46 499.242C1131.99 463.696 1171.83 432.161 1218.58 424.692C1227.29 490.528 1212.08 556.642 1157.17 604.498ZM842.086 252.493C921.202 180.708 1052.46 158.578 1130.47 241.981C1170.03 284.166 1202.12 343.087 1214.85 404.083C1153.02 412.935 1091.47 452.769 1051.91 517.5C1023 564.802 1020.1 622.064 1078.05 647.375C1137.11 673.239 1184.42 624.138 1211.53 576.282C1239.19 527.32 1254.4 476.697 1248.46 423.585C1253.85 424 1259.38 424.553 1264.92 425.66C1391.06 450.695 1418.45 626.213 1365.89 721.787C1307.38 828.288 1196.73 872.133 1079.71 868.26C1079.43 868.26 1079.16 868.26 1078.88 868.398C1013.46 778.634 936.555 692.05 865.323 608.371C864.631 607.541 863.801 606.849 862.971 606.158C862.695 605.881 862.556 605.604 862.141 605.328C843.607 589.284 823.69 572.963 802.943 557.057C739.871 459.132 755.224 331.192 842.086 252.493ZM782.334 575.867C784.547 579.325 787.451 580.847 790.356 581.262C808.614 596.061 826.595 611.275 844.161 626.213C861.588 646.822 878.601 667.707 895.475 688.869C893.401 689.699 891.464 690.943 889.804 693.018C786.068 828.564 636.273 941.151 483.296 1015.98C482.743 1016.25 482.466 1016.67 482.051 1017.08C450.93 983.198 421.746 945.3 397.541 905.19C540.282 825.522 676.661 698.966 771.545 566.047C774.865 568.537 777.907 571.165 781.089 573.793C781.504 574.484 781.919 575.176 782.334 575.867ZM355.493 598.412C396.988 505.881 496.99 460.791 594.778 478.219C652.179 488.454 702.664 515.84 749.276 549.45C656.052 678.91 523.684 803.668 383.709 881.261C335.022 790.943 313.999 690.943 355.493 598.412Z" fill="#1B1A16"/>
<path d="M478.316 602.147C480.529 603.254 483.019 604.084 486.062 603.669C499.617 602.147 509.437 589.699 507.916 576.144C506.809 566.877 494.499 558.717 486.339 565.909C485.647 566.463 485.232 567.154 484.541 567.707C483.987 567.846 483.296 567.846 482.742 568.122C476.242 570.612 471.124 575.591 467.113 581.262C460.197 591.221 468.911 601.179 478.316 602.009V602.147Z" fill="#1B1A16"/>
<path d="M543.463 219.989C543.463 219.298 543.186 218.606 543.048 217.776C540.696 202.423 514.278 204.636 515.8 220.404C516.906 232.299 519.534 242.672 532.812 245.024C537.1 245.854 543.048 242.949 545.261 239.076L546.782 236.448C548.995 232.576 548.857 226.351 546.091 222.755C545.261 221.649 544.431 220.681 543.463 219.851V219.989Z" fill="#1B1A16"/>
<path d="M658.956 217.223C656.604 219.159 654.391 220.957 652.04 222.894C646.231 227.596 646.369 237.278 651.21 242.396C653.7 245.162 657.296 246.822 661.03 246.822C662.137 246.822 663.382 246.545 664.488 246.545C666.84 245.992 668.914 244.885 670.712 243.226C671.957 242.119 673.064 241.151 674.447 240.183C680.256 235.48 682.608 227.596 678.32 220.957C674.447 215.287 664.903 212.382 659.094 217.085L658.956 217.223Z" fill="#1B1A16"/>
<path d="M1204.39 1283.16C1224.45 1342.76 1283.66 1409.69 1353.37 1394.34C1399.58 1384.11 1472.48 1335.57 1491.01 1290.21C1502.91 1260.9 1481.05 1238.77 1453.39 1227.43C1410.92 1210.01 1377.58 1236.83 1360.01 1274.86C1319.9 1361.02 1307.59 1479.53 1364.86 1560.29C1413.69 1629.16 1504.43 1659.03 1586.19 1634.41C1626.44 1622.24 1687.44 1574.81 1688.97 1528.62C1690.63 1477.32 1630.87 1467.64 1592 1478.84C1509.97 1502.35 1457.95 1595.69 1467.5 1677.56C1478.01 1767.72 1554.37 1829.95 1640.83 1840.87C1658.39 1843.09 1659.64 1815.43 1641.93 1813.22C1565.71 1803.95 1498.48 1744.76 1493.92 1665.53C1490.6 1608.69 1533.9 1512.3 1600.99 1504.84C1713.73 1492.25 1634.46 1573.84 1613.16 1588.64C1594.49 1601.64 1582.73 1607.17 1557.41 1611.18C1468.47 1625.28 1384.22 1574.81 1360.01 1487.13C1345.35 1433.89 1357.39 1319.12 1392.94 1271.68C1414.38 1243.06 1474.97 1244.85 1461 1286.2C1451.17 1315.38 1385.05 1354.52 1361.12 1362.81C1298.87 1384.39 1248.66 1327.55 1230.68 1273.48C1225 1256.61 1199.14 1266.29 1204.81 1283.16H1204.39Z" fill="#1B1A16"/>
</svg>
