<svg width="2000" height="2000" viewBox="0 0 2000 2000" fill="none" xmlns="http://www.w3.org/2000/svg">
<path d="M1115.91 1201.53C1256.7 1111.56 1253.37 865.05 1130.38 760.228C1123.72 754.596 1116.3 749.221 1108.49 744.357C1116.42 733.35 1123.21 722.343 1128.46 711.976C1160.33 648.878 1179.91 563.253 1163.78 493.628C1141 394.565 1039.89 375.622 952.852 400.58C849.435 430.401 744.867 509.498 701.478 610.865C697.51 604.594 692.903 598.962 687.399 594.611C687.527 593.715 687.911 592.819 687.911 591.795C686.887 516.154 689.959 440.641 697.127 365.255C698.662 348.873 673.064 347.593 671.528 363.975C664.617 437.697 661.801 511.29 662.441 585.267C658.601 584.883 655.017 584.883 651.561 585.267C651.817 583.987 652.074 582.708 651.818 581.172C642.602 507.322 633.515 433.345 624.427 359.496C622.38 343.241 596.781 344.649 598.829 361.032C608.173 436.161 617.388 511.29 626.732 586.547C627.116 590.003 628.651 592.179 630.699 593.843C626.476 597.298 622.892 601.778 619.82 606.897C580.783 516.282 503.348 435.521 410.299 403.012C339.904 378.438 251.334 387.653 215.241 461.119C171.852 549.303 201.546 660.397 261.957 743.461C127.055 824.35 107.984 1062.28 214.601 1171.07C341.056 1300.21 532.658 1182.21 639.786 1081.48C655.657 1118.72 679.336 1137.41 714.917 1114.76C724.132 1108.87 730.532 1099.27 735.139 1088.13C830.877 1176.06 992.529 1280.5 1115.78 1201.79L1115.91 1201.53ZM724.772 1006.61C695.974 998.926 667.176 991.375 638.507 983.695C637.099 963.473 636.715 943.507 636.459 926.868C666.792 933.908 697.254 940.051 728.1 944.787C727.972 965.521 726.948 986.127 724.9 1006.61H724.772ZM635.691 900.759C634.539 874.905 633.899 849.051 633.387 823.07C663.209 827.805 692.903 832.541 722.725 837.277C725.285 864.282 727.204 891.544 727.844 918.805C696.87 914.07 666.153 908.054 635.691 900.759ZM633.003 797.216C632.747 773.922 632.747 750.501 633.003 727.207C659.753 731.43 686.631 735.526 713.381 740.133C715.685 762.403 716.837 782.242 718.245 794.145C718.885 799.776 719.525 805.407 720.037 811.039C690.983 806.431 662.057 801.824 633.003 797.344V797.216ZM669.864 612.913C679.208 617.904 686.503 628.144 692.391 641.326C692.775 642.862 693.287 644.142 694.183 645.422C701.99 664.748 706.854 689.45 710.181 713.768C684.455 709.672 658.729 705.577 633.131 701.353C633.131 673.067 624.299 596.274 669.992 612.913H669.864ZM276.676 1186.3C134.095 1111.17 138.83 842.268 277.444 762.787C306.37 797.472 340.672 825.886 376.765 843.292C425.658 866.97 466.871 844.444 450.232 785.953C429.114 711.592 345.152 706.344 284.356 731.686C252.614 689.706 236.359 640.174 228.424 586.675C211.529 472.894 277.444 384.07 400.316 426.306C495.541 459.071 576.431 548.791 607.021 644.014C596.654 699.817 607.661 779.17 607.917 808.095C608.173 827.038 605.741 967.441 630.699 1054.73C548.273 1134.21 394.428 1248.38 276.676 1186.43V1186.3ZM300.995 751.524C306.626 749.349 312.386 747.429 318.401 745.893C352.575 737.062 393.276 741.157 415.419 772.387C422.97 782.626 427.194 794.016 428.09 806.687C423.738 828.701 413.627 834.845 397.756 824.99C368.19 824.094 324.545 775.842 304.834 755.876C303.427 754.468 302.275 752.932 300.995 751.524ZM670.248 1083.14C653.61 1068.68 645.418 1040.91 641.194 1010.7C667.944 1017.74 694.822 1024.91 721.572 1031.95C721.572 1032.33 721.573 1032.59 721.445 1032.97C717.477 1058.7 709.67 1117.57 670.248 1083.14ZM743.075 1060.36C745.379 1048.71 746.659 1037.19 747.939 1027.98C755.618 967.185 753.314 904.471 748.579 843.548C744.227 786.593 737.188 729.126 723.365 673.707C721.189 665.004 718.757 654.893 715.813 644.654C716.069 644.014 716.581 643.63 716.709 642.99C738.468 575.284 789.28 521.657 846.492 481.469C911.767 435.521 1022.61 382.918 1097.99 435.521C1183.75 495.419 1141.51 652.461 1083.79 731.43C1030.67 708.392 965.779 708.264 930.326 759.844C905.111 796.576 907.415 865.178 966.035 853.147C1009.55 844.188 1057.55 806.303 1092.11 765.347C1125.64 789.921 1153.8 826.142 1167.11 855.963C1220.61 976.144 1199.49 1191.42 1032.08 1202.56C926.742 1209.59 817.566 1130.75 743.203 1060.36H743.075ZM1068.04 750.373C1068.04 750.373 1066.89 751.652 1066.38 752.164C1044.88 774.434 1020.82 795.552 994.321 811.807C949.14 839.58 921.622 804.128 958.74 764.835C991.633 729.894 1031.44 731.814 1068.04 750.373Z" fill="#1B1A16"/>
<path d="M713.765 1230.59C712.358 1214.2 686.759 1215.87 688.167 1232.38C692.903 1287.28 720.933 1334.26 766.242 1365.36C779.809 1374.7 792.48 1352.3 778.913 1343.09C740.899 1317.23 717.605 1276.15 713.765 1230.59Z" fill="#1B1A16"/>
<path d="M865.562 1406.7C852.891 1396.2 837.276 1416.94 850.203 1427.18C883.993 1453.8 921.75 1469.92 964.627 1474.92C981.01 1476.84 983.314 1451.24 966.931 1449.45C929.302 1445.35 894.744 1430.76 865.562 1406.7Z" fill="#1B1A16"/>
<path d="M1180.55 1411.56C1147.53 1432.55 1110.54 1444.2 1071.24 1444.33C1054.73 1444.33 1056.01 1470.18 1072.52 1469.92C1115.15 1469.16 1155.85 1457.76 1191.81 1434.6C1205.51 1425.77 1194.5 1402.73 1180.68 1411.56H1180.55Z" fill="#1B1A16"/>
<path d="M1345.4 1338.1C1312.89 1333.49 1280.64 1341.04 1254.78 1361.77C1241.98 1372.01 1256.19 1393.13 1269.25 1382.89C1290.24 1366.38 1315.58 1358.83 1342.2 1363.57C1358.33 1366.38 1361.78 1340.53 1345.4 1338.22V1338.1Z" fill="#1B1A16"/>
<path d="M1436.15 1379.82C1422.83 1370.22 1407.6 1390.95 1421.04 1400.55C1453.55 1423.72 1478.89 1452.39 1499.76 1486.18C1507.31 1498.34 1528.81 1485.54 1521.52 1473.12C1499.89 1436.13 1470.83 1404.91 1436.15 1379.82Z" fill="#1B1A16"/>
<path d="M1664.87 1620.95C1629.16 1606.36 1599.46 1582.68 1577.06 1551.45C1567.46 1538.14 1547.75 1554.78 1557.48 1567.96C1583.46 1603.29 1617.51 1629.53 1658.21 1645.65C1673.57 1651.8 1679.84 1627.09 1664.87 1620.95Z" fill="#1B1A16"/>
<path d="M1832.41 1601.62C1810.65 1621.46 1782.62 1629.78 1753.56 1625.3C1737.31 1622.74 1733.08 1648.08 1749.34 1650.52C1786.58 1656.27 1822.93 1645.14 1850.58 1619.54C1862.74 1608.41 1844.44 1590.49 1832.28 1601.62H1832.41Z" fill="#1B1A16"/>
</svg>
