<svg width="2000" height="2000" viewBox="0 0 2000 2000" fill="none" xmlns="http://www.w3.org/2000/svg">
<path d="M708.213 713.384C710.305 711.815 712.223 709.897 712.92 707.282C715.013 701.005 715.71 695.078 715.187 689.324C715.536 685.663 715.71 681.828 715.362 677.992C714.664 670.147 711.003 663.347 702.983 660.906C696.358 658.814 686.246 661.43 683.107 668.229C682.061 670.495 681.364 672.762 680.492 674.854C679.446 676.423 678.575 678.166 677.877 680.084C676.482 684.966 675.959 689.673 676.308 694.38C676.133 698.39 676.134 702.4 676.657 706.759C678.923 724.018 700.019 724.367 708.039 713.209L708.213 713.384Z" fill="#1B1A16"/>
<path d="M715.014 1394.89C744.653 1454.86 800.792 1540.99 874.715 1548.31C918.301 1552.5 962.237 1519.54 958.924 1478.05C1011.58 1509.61 1072.42 1521.81 1128.91 1482.93C1186.45 1443.53 1195.69 1367.17 1149.48 1319.92C1153.49 1319.05 1157.5 1318.18 1161.51 1316.78C1192.37 1305.8 1216.43 1280.87 1219.05 1247.4C1220.79 1225.43 1186.97 1218.11 1184.88 1240.6C1178.25 1313.82 1086.89 1281.92 1047.67 1264.13C1027.27 1254.89 1010.7 1285.58 1031.1 1294.82C1055.16 1305.8 1081.14 1316.96 1107.64 1320.97C1107.47 1326.37 1109.56 1331.78 1115.14 1335.79C1199 1394.89 1101.54 1481.02 1028.84 1469.51C970.78 1460.27 928.588 1417.03 893.022 1373.79C878.9 1356.53 854.665 1381.81 868.962 1399.07C883.258 1416.33 900.169 1433.77 918.824 1449.46C915.861 1453.47 915.163 1458.87 918.476 1465.15C939.223 1503.51 894.591 1520.07 865.301 1511.35C847.343 1505.95 832.698 1493.57 819.273 1481.02C787.891 1451.9 764.528 1416.68 745.873 1378.68C735.936 1358.45 705.251 1375.01 715.188 1395.06L715.014 1394.89Z" fill="#1B1A16"/>
<path d="M221.789 1550.4C255.961 1507.17 308.439 1478.57 356.907 1521.29C378.352 1540.29 396.309 1564 423.159 1575.86C489.41 1604.97 527.069 1537.15 591.926 1546.22C595.064 1546.57 597.854 1546.22 600.294 1545.35C725.998 1663.55 945.5 1711.32 1114.96 1700.51C1269.96 1690.58 1412.92 1658.32 1480.74 1523.9C1485.1 1525.65 1490.16 1525.65 1495.21 1522.51C1535.31 1498.28 1579.07 1599.74 1614.64 1611.6C1676.18 1632 1725.18 1556.85 1783.93 1578.12C1804.85 1585.8 1819.32 1553.72 1798.05 1546.22C1731.63 1522.68 1650.21 1607.24 1598.95 1555.46C1566.35 1522.68 1543.86 1471.43 1497.13 1483.98C1500.27 1474.91 1503.41 1465.5 1506.02 1455.56C1555.89 1263.96 1447.44 1085.61 1348.07 930.615C1346.84 926.954 1344.58 924.513 1341.44 922.77C1340.74 922.247 1340.04 921.898 1339.17 921.55C1338.82 921.55 1338.65 921.375 1338.48 921.201C1332.55 918.76 1325.75 920.329 1320.87 924.339C1320.34 924.688 1320 925.211 1319.47 925.56C1318.43 926.606 1317.55 927.652 1316.68 929.046C1316.33 929.744 1315.81 930.441 1315.64 931.313C1315.11 932.708 1314.76 934.102 1314.42 935.672C1314.42 936.369 1314.07 936.717 1313.89 937.415C1311.97 971.412 1300.29 1008.2 1281.12 1036.27C1256.01 1073.05 1218.87 1093.45 1174.59 1097.64C1125.08 1102.34 1006.7 1086.48 1021.34 1014.3C1029.88 972.458 1093.87 940.727 1117.23 903.767C1143.38 862.448 1156.28 814.329 1158.38 765.687C1163.96 631.792 1090.9 523.7 985.076 478.893C1025.35 468.782 1065.97 461.285 1107.29 456.926C1129.61 454.66 1121.59 420.663 1099.45 422.929C1049.93 427.985 1001.64 437.4 953.868 450.998C946.546 453.091 942.71 458.495 941.315 464.423C937.131 463.377 932.773 462.505 928.414 461.633C982.984 415.607 1042.61 378.298 1107.99 349.357C1128.56 340.291 1110.78 310.13 1090.56 319.195C1022.39 349.357 959.796 388.933 903.133 437.226C924.578 395.209 953.52 358.074 989.784 326.518C1006.7 311.873 981.938 287.116 965.201 301.761C916.558 344.649 879.597 397.127 856.06 457.101C831.478 458.67 806.372 463.202 780.743 471.048C675.089 503.999 604.304 564.844 574.491 659.513C487.492 678.516 401.714 700.832 316.11 725.414C300.419 729.947 302.162 750.868 314.541 757.667C395.612 802.125 475.288 848.674 553.918 897.316C560.195 901.152 566.82 900.629 572.05 897.839C577.281 934.625 581.814 971.237 580.942 1008.72C579.199 1084.39 532.997 1147.85 513.47 1219.15C479.995 1341.37 507.194 1438.48 568.389 1512.57C551.478 1515.36 537.007 1522.16 517.48 1528.79C428.389 1558.77 422.287 1525.65 364.404 1482.41C298.85 1433.59 241.49 1467.59 195.114 1526.69C181.341 1544.13 206.795 1568.01 220.743 1550.23L221.789 1550.4ZM367.542 747.381C433.271 728.727 499.522 712.338 566.297 697.519C564.03 709.375 562.287 721.404 561.241 733.957C557.405 778.589 562.461 822 568.563 865.237C502.66 824.266 435.537 785.214 367.717 747.207L367.542 747.381ZM896.508 453.091C896.508 454.66 896.857 456.229 897.38 457.624C896.509 457.624 895.462 457.449 894.591 457.449C895.288 456.054 895.985 454.66 896.508 453.091ZM537.879 1282.09C550.606 1168.24 626.272 1082.29 612.847 964.089C593.146 790.618 558.102 601.108 754.242 518.644C789.285 503.999 825.898 494.584 861.988 491.969C867.044 494.236 872.623 494.061 877.331 491.446C951.079 489.877 1021.51 517.075 1070.51 583.499C1128.04 661.779 1143.56 775.799 1100.32 864.191C1070.85 924.513 972.349 963.218 987.691 1041.15C1006.7 1137.39 1163.43 1149.24 1235.79 1118.91C1291.4 1095.54 1326.97 1042.54 1341.96 985.011C1441.86 1144.01 1543.86 1339.1 1444.3 1520.94C1346.5 1699.64 1031.98 1691.45 861.814 1645.94C686.944 1599.22 515.736 1483.98 538.053 1282.09H537.879Z" fill="#1B1A16"/>
</svg>
