<svg width="2000" height="2000" viewBox="0 0 2000 2000" fill="none" xmlns="http://www.w3.org/2000/svg">
<path d="M1473.13 1147.89C1512.01 1040.56 1574.08 943.081 1625.55 841.587C1648.74 795.768 1700.58 715.267 1681.96 661.051C1642.71 546.962 1358.85 634.948 1259.55 666.345C1191.82 574.161 1127.02 479.603 1054.18 391.435C1023.7 354.561 964.735 269.131 906.868 272.052C851.556 274.972 818.88 358.212 800.808 398.372C752.251 506.072 718.845 620.892 686.169 734.251C596.538 740.458 297.709 713.259 296.066 842.682C295.153 906.39 360.14 977.946 396.284 1023.95C460.723 1105.91 532.464 1182.21 603.84 1257.97C575.545 1345.41 444.842 1706.48 561.489 1726.92C626.841 1738.42 726.146 1654.82 774.339 1623.6C875.47 1557.89 973.315 1486.88 1070.79 1416.05C1185.43 1468.62 1296.79 1528.13 1411.06 1581.25C1462.91 1605.35 1598.17 1689.87 1660.06 1657.56C1715.37 1628.71 1664.8 1529.05 1649.1 1490.35C1600.55 1371.69 1537.02 1258.7 1472.95 1147.89H1473.13ZM1601.82 1618.67C1416.72 1574.68 1247.5 1453.65 1074.45 1377.72C1063.49 1372.97 1053.27 1378.99 1048.71 1387.21C913.257 1483.41 780.363 1591.84 631.405 1666.32C597.086 1683.48 570.069 1705.02 555.283 1660.48C545.243 1630.17 562.037 1574.13 567.513 1544.2C585.585 1446.9 613.515 1351.43 642.175 1256.87C644.913 1247.56 640.532 1240.99 633.96 1237.71C633.778 1237.34 633.778 1237.16 633.413 1236.79C537.941 1131.83 425.492 1028.88 356.489 903.651C340.242 874.079 319.98 841.769 352.291 813.475C380.585 788.832 442.469 787.189 477.153 783.72C549.989 776.419 623.373 777.331 696.391 770.03C699.677 769.664 702.233 768.57 704.423 767.109C710.082 766.744 715.376 763.641 717.567 755.974C737.464 687.338 829.833 283.187 927.861 316.227C982.442 334.664 1038.48 428.674 1071.16 471.389C1125.56 542.398 1177.04 615.415 1229.79 687.52C1229.79 696.465 1236.18 705.592 1245.67 706.87C1254.8 712.529 1266.85 708.513 1272.14 700.663C1333.3 682.044 1396.28 667.805 1459.44 658.313C1520.96 649.003 1659.51 617.606 1641.25 713.989C1626.83 789.927 1570.24 868.056 1534.1 935.232C1498.14 1002.23 1460.71 1069.58 1436.07 1141.69C1434.98 1144.61 1434.98 1147.53 1435.16 1150.27C1435.16 1153.37 1435.71 1156.47 1437.53 1159.58C1485.91 1243 1532.64 1327.52 1574.62 1414.23C1598.54 1463.51 1624.46 1514.81 1638.52 1567.93C1649.83 1610.64 1649.65 1629.99 1601.46 1618.49L1601.82 1618.67Z" fill="#1B1A16"/>
<path d="M887.153 986.709C889.161 988.717 891.534 990.177 894.09 991.09C905.408 1002.04 923.48 996.019 925.305 979.042C926.766 966.264 926.401 953.486 924.758 940.891C924.758 915.7 915.265 891.239 897.011 871.159C888.796 862.032 871.271 866.413 867.438 877.913C851.374 910.771 855.572 949.288 876.018 979.225C879.121 983.606 883.137 985.796 887.153 986.526V986.709Z" fill="#1B1A16"/>
<path d="M1070.43 952.573C1082.11 962.613 1097.99 949.105 1098.91 936.327C1100.55 913.144 1096.17 891.056 1087.22 870.794C1086.31 861.302 1081.38 852.539 1072.62 844.873C1070.79 842.134 1068.79 839.396 1066.78 836.841C1059.84 827.896 1043.05 830.087 1038.12 839.944C1019.5 876.27 1022.24 916.978 1045.79 950.201C1052.72 960.058 1063.49 958.78 1070.61 952.573H1070.43Z" fill="#1B1A16"/>
<path d="M1135.05 867.326C1162.98 960.605 1176.86 1088.2 1065.14 1130.74C929.869 1182.21 827.095 1099.89 802.817 961.518C798.801 938.518 762.474 940.89 766.307 964.073C789.673 1102.26 876.748 1202.66 1028.08 1177.47C1197.12 1149.17 1211.72 993.098 1168.46 852.722C1161.52 830.269 1128.3 845.238 1135.05 867.326Z" fill="#1B1A16"/>
<path d="M667.367 642.616C691.098 568.138 719.028 495.121 750.426 423.381C759.918 401.841 726.877 386.325 717.385 407.865C684.892 481.613 656.779 556.82 632.136 633.671C625.016 655.941 660.43 665.069 667.55 642.616H667.367Z" fill="#1B1A16"/>
<path d="M631.769 468.104C616.253 508.446 600.189 548.788 584.49 588.948C576.092 610.67 608.403 627.464 616.983 605.376C633.595 562.844 650.024 520.311 666.818 477.961C675.398 456.239 640.166 446.016 631.769 467.921V468.104Z" fill="#1B1A16"/>
<path d="M1529.72 1157.02C1515.48 1138.4 1484.99 1158.48 1499.23 1177.1C1559.47 1255.78 1615.52 1337.19 1667.91 1421.34C1680.32 1441.24 1712.45 1424.26 1700.22 1404.37C1647.64 1318.94 1590.87 1236.43 1529.72 1157.02Z" fill="#1B1A16"/>
<path d="M1547.24 1118.51C1575.17 1148.63 1603.29 1178.75 1631.21 1208.87C1647.1 1226.21 1673.93 1201.02 1657.87 1183.86C1629.02 1153.01 1600.36 1122.16 1571.7 1091.31C1555.82 1074.15 1531.54 1101.53 1547.43 1118.51H1547.24Z" fill="#1B1A16"/>
</svg>
