<svg width="2000" height="2000" viewBox="0 0 2000 2000" fill="none" xmlns="http://www.w3.org/2000/svg">
<g clip-path="url(#clip0_157_183)">
<path d="M1533.16 954.206C1526.17 943.47 1515.73 934.319 1502.01 926.898C1515.58 917.891 1525.16 903.265 1527.36 887.305C1529.99 867.743 1521.35 847.136 1505.32 834.851C1486.13 820.152 1459.38 818.387 1437.19 830.42C1428.73 835.031 1420.38 840.543 1412.1 846.848C1414.76 841.516 1417.1 836.076 1418.83 830.42C1427.15 803.328 1419.44 776.38 1399.17 761.718C1386.78 752.783 1368.38 749.361 1351.17 752.855C1341.45 754.837 1333.17 758.799 1327.08 764.383C1317.65 747.739 1293.38 739.489 1273.21 742.516C1250.53 745.974 1229.5 761.682 1219.67 782.613C1211.85 799.329 1210.27 818.819 1214.88 842.164C1217.4 855.098 1221.61 867.203 1226.83 879.163C1222.58 875.056 1218.3 871.201 1214.01 867.671C1185.28 844.182 1120.75 810.173 1082.15 849.658C1077.97 853.909 1074.55 858.808 1071.92 864.104C1072.07 853.188 1072.21 842.272 1072.43 831.356C1075.06 831.573 1077.65 831.717 1080.21 831.717C1125.76 831.717 1166.05 800.013 1186.86 780.091C1221 747.415 1246.49 709.191 1268.93 672.733L1271.7 668.193C1272.92 667.401 1273.75 666.176 1274.04 664.771C1274.83 665.023 1275.59 665.311 1276.42 665.527C1283.15 667.473 1290.1 668.409 1297.09 668.409C1317.18 668.409 1337.38 660.556 1352.21 646.253C1376.16 623.161 1384.01 587.098 1372.2 554.386C1368.31 543.651 1363.45 532.807 1357.8 521.999C1366.22 526.466 1375.15 530.213 1384.73 532.194C1389.81 533.239 1394.81 533.743 1399.78 533.743C1417.79 533.743 1434.96 526.898 1450.12 513.605C1465.93 499.77 1481.66 475.885 1478.46 450.342C1476.05 431.753 1467.77 412.983 1453.76 394.43C1477.38 392.412 1499.63 379.695 1512.52 360.205C1527.47 337.58 1529.05 306.958 1516.59 282.172C1501.61 252.45 1469.57 234.221 1434.78 235.842C1418.04 236.635 1400.61 239.264 1382.71 243.552C1392.54 236.815 1401.76 229.393 1409.76 220.783C1436.29 192.178 1442.92 154.134 1426.61 123.908C1416.6 105.427 1395.86 90.2238 1372.45 84.2434C1358.08 80.5687 1344.47 80.8569 1333.09 84.9999C1332.95 59.8536 1310.44 32.7258 1279.55 23.1428C1249.27 13.776 1213.65 20.693 1188.88 40.7957C1169.04 56.9355 1155.32 80.3886 1146.97 112.416C1141.28 134.14 1139.4 155.792 1139.26 178.308C1135.26 166.275 1130.87 155.143 1126.05 144.695C1104.22 97.7893 1044.02 15.9376 972.182 41.8765C946.112 51.2793 926.199 74.6244 921.482 101.392C917.449 124.449 924.903 148.983 940.71 166.708C896.312 174.669 866.857 200.86 861.096 238.256C857.243 263.006 865.597 289.665 882.917 307.822C894.764 320.288 911.111 329.654 931.528 335.671C947.48 340.354 964.368 342.516 979.779 344.245C975.062 345.434 970.417 346.659 965.916 348.028C916.441 362.979 826.888 411.002 842.335 485.828C847.917 512.992 868.189 536.013 894.007 544.443C916.225 551.684 941.538 547.794 961.307 534.716C961.847 557.917 966.996 577.803 976.719 593.907C987.845 612.245 1009.52 629.753 1030.73 629.753C1031.96 629.753 1033.18 629.681 1034.4 629.573C1047.98 628.24 1059.36 625.79 1069.15 622.008C1065.52 690.962 1063.03 759.988 1061.77 829.051L1061.12 830.131L1061.77 830.203C1060.94 874.768 1060.65 919.369 1060.83 963.933C1048.66 953.738 1036.35 943.722 1023.78 933.995C1023.06 932.662 1021.8 931.69 1020.29 931.329C1005.67 920.053 990.798 909.065 975.674 898.437C976.503 897.104 976.755 895.411 976.179 893.79C974.99 890.548 973.91 887.269 972.83 883.991C977.079 883.126 980.86 881.001 983.992 877.65C1002.14 858.376 993.571 804.589 993.175 802.319C987.845 769.679 972.938 739.237 960.551 716.361L956.734 709.335L951.621 715.496C931.204 740.138 920.294 772.598 921.698 804.553C922.778 829.483 932.572 876.317 961.343 883.486C962.027 885.684 962.711 887.846 963.432 890.043C933.941 869.868 903.658 850.883 872.582 833.338C873.555 829.519 874.131 825.448 874.239 821.269C874.599 804.517 870.35 776.885 863.328 760.925C881.296 720.359 875.967 672.877 868.153 639.877C863.832 621.611 858.143 603.454 852.598 585.909C843.956 558.421 834.99 529.997 831.533 501.176L831.209 498.474C829.012 479.704 826.276 456.359 808.163 445.731C786.63 433.122 760.812 448.073 745.221 464.753C742.448 467.743 739.711 470.877 736.939 474.012C725.452 487.161 714.614 499.59 699.454 503.301C692.072 505.138 684.078 504.706 675.652 504.202C664.022 503.553 651.959 502.869 640.904 508.453C627.329 515.298 618.327 530.717 617.463 548.694C617.175 555.143 617.823 561.808 619.443 569.157C612.494 566.275 605.364 564.762 598.234 564.726C598.126 564.726 597.982 564.726 597.874 564.726C566.979 564.726 543.033 591.998 535.364 619.053C527.946 645.173 531.583 672.877 535.472 697.843C517.431 701.446 496.331 706.417 480.379 719.567C462.915 733.941 452.688 761.97 466.552 782.18C468.424 784.918 470.729 787.404 473.357 789.674C469.18 794.537 466.156 801.851 467.992 812.875C471.485 833.482 489.453 844.542 505.261 854.305C508.177 856.106 511.058 857.872 513.723 859.637C523.301 865.978 525.569 868.103 528.198 876.065C529.278 879.379 529.458 882.766 529.638 886.368C529.998 893.105 530.431 900.743 537.056 908.2C543.682 915.622 554.016 919.693 565.863 919.693C567.663 919.693 569.464 919.585 571.336 919.405C579.798 918.612 587.792 916.09 595.534 913.676C598.234 912.812 600.971 911.983 603.672 911.191C617.175 907.372 631.29 904.958 644.937 902.652C658.764 900.311 673.024 897.861 687.067 893.97C712.705 886.801 736.255 874.336 755.483 857.908C765.853 860.754 778.564 862.627 794.336 863.6C804.094 864.212 813.096 864.32 819.65 864.428L824.331 864.501C825.627 864.501 826.924 864.537 828.22 864.537C837.114 864.537 846.188 863.6 854.038 859.205C860.195 855.746 865.201 850.27 868.693 843.533C914.856 869.724 959.435 898.978 1001.92 930.897C992.166 930.897 982.408 931.113 972.686 931.509C962.279 910.938 930.88 908.236 912.156 911.443C889.722 915.298 869.378 929.312 857.747 948.874L853.786 955.575L861.456 956.98C870.71 958.673 879.424 962.384 888.642 966.311C891.883 967.716 895.124 969.085 898.4 970.382C906.538 973.588 917.701 977.371 929.476 977.371C933.329 977.371 937.217 976.975 941.106 976.002C952.845 973.12 967.609 964.041 973.082 952.333C974.63 949.018 975.386 945.632 975.386 942.245C989.034 941.741 1002.72 941.597 1016.4 941.921C1031.52 953.63 1046.36 965.734 1060.91 978.128C1061.34 1045.68 1062.89 1113.19 1065.55 1180.7C1051.51 1163.41 1028.61 1153.47 1002.79 1154.33C994.075 1154.66 985.397 1156.03 976.827 1158.08C988.313 1149.58 998.648 1140.53 1007.69 1131.02C1028.32 1109.19 1034.58 1077.92 1023.64 1051.3C1014.46 1029.1 993.499 1012.82 970.237 1009.79C950.613 1007.27 930.232 1014.3 915.612 1027.95C911.363 1009 903.91 993.475 893.359 981.658C878.452 965.086 853.894 961.88 835.926 964.402C813.889 967.428 796.893 978.596 786.774 996.717C783.065 1003.38 780.581 1010.48 778.78 1017.68C775.144 1008.79 771.147 1000.32 766.754 992.43C752.062 966.239 724.048 950.964 695.421 953.594C671.511 955.791 649.726 970.994 639.968 992.358C631.758 1010.3 632.406 1031.88 641.156 1049.93C621.784 1048.38 604.752 1050.9 590.384 1057.49C570.22 1066.79 559.813 1089.3 556.861 1107.25C554.52 1121.66 556.104 1134.81 561.47 1146.51C550.451 1150.62 539.649 1157.86 527.982 1168.99C513.831 1182.43 512.57 1208.41 518.62 1227.11C523.553 1242.16 533.239 1256.39 547.498 1269.54C528.342 1275.34 512.066 1289.5 504.396 1307.73C495.322 1329.42 498.923 1355.72 513.543 1374.74C529.602 1395.67 552.324 1403.24 576.197 1403.24C611.954 1403.24 650.339 1386.27 672.844 1372C675.112 1370.56 677.345 1369.05 679.613 1367.54C672.628 1377.8 665.786 1388.5 660.493 1400.21C652.895 1416.93 649.798 1432.89 651.239 1447.62C653.327 1469.24 666.002 1489.77 684.402 1501.27C711.805 1518.41 745.077 1514.27 775.072 1490.53C778.06 1510.38 789.763 1528.54 806.759 1538.73C816.985 1544.82 828.832 1547.88 840.787 1547.88C852.742 1547.88 864.084 1545 874.383 1539.16C931.852 1506.85 912.516 1421.61 894.259 1381.01C892.891 1378.02 891.451 1375.03 889.938 1372C964.944 1420.31 1030.88 1480.33 1086.15 1550.62C1087.23 1551.99 1088.81 1552.67 1090.4 1552.67C1090.94 1552.67 1091.48 1552.57 1091.98 1552.42C1106.46 1694.76 1125.97 1836.56 1150.5 1977.42C1150.96 1980.05 1153.23 1981.89 1155.82 1981.89C1156.15 1981.89 1156.44 1981.89 1156.76 1981.82C1159.71 1981.32 1161.66 1978.51 1161.15 1975.55C1140.05 1854.32 1122.66 1732.41 1109.01 1610.03C1109.01 1610.03 1109.01 1609.99 1109.05 1609.96C1116.61 1591.04 1125.04 1572.45 1134.11 1554.22C1138 1555.81 1142.39 1556.6 1147.33 1556.6C1150.82 1556.6 1154.6 1556.21 1158.6 1555.38C1200.94 1546.84 1239.44 1505.77 1261.29 1470.17C1289.16 1424.82 1302.49 1373.12 1314.77 1322.68C1316.21 1321.24 1316.67 1319.15 1316.1 1317.28C1316.24 1316.7 1316.39 1316.16 1316.49 1315.59L1319.01 1305.17L1309.15 1309.35C1261.69 1329.38 1207.64 1355.76 1166.66 1399.31C1148.26 1418.87 1133.54 1441.82 1124.07 1465.67C1116.47 1484.8 1106.49 1526.2 1123.16 1546.19C1123.74 1546.91 1124.39 1547.56 1125.04 1548.17C1118.48 1561.18 1112.33 1574.4 1106.56 1587.8C1097.45 1503.5 1090.15 1418.98 1084.6 1334.32C1085.86 1333.67 1086.9 1332.55 1087.34 1331.08C1101.6 1280.78 1122.01 1232.29 1148.01 1186.94C1148.15 1186.68 1148.26 1186.43 1148.33 1186.18C1160 1194.5 1174.58 1198.46 1188.63 1196.55C1204.58 1194.39 1219.2 1184.81 1228.2 1171.23C1235.62 1184.92 1244.77 1195.37 1255.5 1202.39C1264.03 1207.94 1275.66 1212.08 1286.79 1212.08C1293.23 1212.08 1299.5 1210.71 1304.9 1207.4C1316.03 1200.59 1324.06 1193.67 1329.75 1185.96C1337.95 1192.52 1348.04 1196.48 1359.88 1197.67C1361.97 1197.89 1364.17 1198 1366.44 1198C1380.59 1198 1397.3 1193.64 1407.67 1181.21C1415.84 1171.34 1421.49 1158.66 1424.52 1143.38C1437.16 1153.72 1453.94 1158.55 1469.82 1155.88C1489.3 1152.6 1506.4 1138.23 1513.39 1119.24C1521.74 1096.55 1515.51 1070.5 1497.47 1052.85C1492.72 1048.2 1487.53 1043.73 1482.02 1039.41C1487.32 1039.34 1492.65 1038.83 1497.94 1037.5C1514.9 1033.21 1527.68 1021.83 1534.96 1004.57C1540.93 990.484 1543.67 969.841 1533.41 954.026L1533.16 954.206ZM976.034 870.265C974.198 872.21 972.074 873.291 969.553 873.579C957.13 830.204 954.033 784.558 960.443 739.85C969.949 759.196 978.663 780.884 982.444 804.084C985.649 823.647 986.729 858.88 976.034 870.265ZM932.428 804.084C931.384 780.415 937.722 756.458 950.036 736.211C943.339 780.884 945.895 826.529 957.418 870.121C940.998 859.313 933.365 825.916 932.392 804.084H932.428ZM645.765 518.144C654.263 513.857 664.346 514.433 675.076 515.01C683.934 515.514 693.117 516.018 702.083 513.785C720.519 509.245 733.05 494.943 745.113 481.109C747.777 478.047 750.442 475.02 753.143 472.102C767.006 457.259 787.711 446.235 802.726 455.026C816.193 462.916 818.498 482.478 820.514 499.698L820.838 502.436C824.439 532.23 833.513 561.159 842.335 589.116C847.809 606.48 853.462 624.457 857.675 642.326C864.12 669.598 868.837 707.174 858.971 741.363C858.971 725.583 855.19 710.128 851.553 697.951C850.473 694.348 849.357 690.746 848.205 687.107C842.011 667.365 835.602 646.974 837.978 627.015C838.338 624.061 836.214 621.359 833.261 620.999C830.309 620.675 827.608 622.764 827.284 625.718C824.655 647.983 831.389 669.49 837.942 690.313C839.059 693.88 840.175 697.447 841.255 701.013C847.016 720.215 853.318 748.208 841.795 769.968C840.751 771.949 841.039 774.291 842.371 775.912C842.227 776.092 842.119 776.308 841.975 776.488C841.291 777.389 840.571 778.326 839.851 779.262C839.707 779.443 839.563 779.623 839.419 779.803C838.698 780.703 837.906 781.64 837.114 782.541C836.97 782.721 836.826 782.865 836.682 783.045C835.854 783.946 835.026 784.882 834.161 785.747C834.125 785.783 834.089 785.819 834.053 785.855C833.189 786.756 832.253 787.62 831.317 788.485C831.137 788.665 830.957 788.809 830.777 788.989C830.633 789.098 830.489 789.242 830.345 789.35C834.305 764.78 830.957 737.148 820.262 707.03C813.205 687.107 803.734 667.941 794.588 649.424C790.411 640.958 786.09 632.203 782.093 623.557C771.435 600.536 759.084 570.022 758.328 538.319C758.256 535.328 755.807 532.951 752.782 533.059C749.794 533.131 747.453 535.617 747.525 538.607C748.353 572.327 761.208 604.175 772.299 628.132C776.368 636.923 780.725 645.713 784.902 654.251C793.904 672.48 803.23 691.358 810.072 710.704C821.558 743.092 824.115 772.201 817.706 797.203C817.562 797.239 817.418 797.312 817.273 797.384C817.201 797.384 817.165 797.384 817.093 797.42C817.165 796.231 817.165 795.042 817.201 793.853C817.201 793.349 817.237 792.88 817.237 792.376C817.237 790.394 817.093 788.413 816.877 786.432C816.841 785.963 816.733 785.495 816.661 785.027C816.445 783.513 816.229 781.964 815.905 780.451C815.761 779.731 815.581 779.046 815.401 778.326C815.077 777.029 814.753 775.732 814.357 774.399C814.141 773.642 813.889 772.886 813.601 772.093C813.168 770.832 812.7 769.571 812.196 768.274C811.908 767.518 811.584 766.797 811.26 766.041C810.684 764.708 810.036 763.375 809.352 762.042C809.028 761.393 808.739 760.745 808.379 760.132C807.335 758.187 806.219 756.242 804.959 754.332C803.338 751.738 801.43 749.036 799.089 746.118C797.469 744.101 795.776 742.191 794.012 740.318C787.927 717.441 771.579 699.104 755.663 681.307C738.199 661.781 721.707 643.299 718.214 619.738C717.782 616.784 715.046 614.766 712.093 615.199C709.14 615.631 707.124 618.405 707.556 621.323C711.517 648.091 729.881 668.626 747.633 688.512C758.184 700.329 768.374 711.749 775.576 724.142C767.33 718.018 758.328 712.362 748.785 706.525L747.453 705.733C745.329 704.436 743.204 703.139 741.116 701.842C728.405 693.988 715.73 685.738 705.215 675.471C703.451 673.777 701.795 672.012 700.174 670.175C690.056 658.827 682.926 645.533 675.328 631.447C671.079 623.521 666.65 615.343 661.681 607.561C660.925 606.408 660.133 605.147 659.233 603.886C658.908 603.418 658.548 602.914 658.224 602.445C657.648 601.617 657.072 600.788 656.46 599.96C656.028 599.383 655.56 598.807 655.128 598.23C654.515 597.438 653.939 596.645 653.291 595.853C652.787 595.24 652.247 594.628 651.743 594.015C651.095 593.223 650.447 592.466 649.726 591.674C649.186 591.061 648.574 590.413 647.998 589.8C647.278 589.044 646.558 588.251 645.837 587.495C645.225 586.882 644.577 586.27 643.929 585.657C643.137 584.901 642.381 584.144 641.552 583.424C640.868 582.811 640.184 582.235 639.5 581.658C638.636 580.938 637.808 580.217 636.943 579.533C636.223 578.956 635.467 578.416 634.711 577.875C634.063 577.407 633.451 576.903 632.766 576.434C629.49 565.987 628.121 557.34 628.481 549.307C629.166 535.436 636.043 523.224 646.017 518.216L645.765 518.144ZM487.148 727.961C502.524 715.316 523.805 711.173 542.565 707.498L547.679 706.489L546.85 701.338C542.889 676.191 538.388 647.694 545.662 622.044C552.252 598.915 572.236 575.57 597.802 575.57C597.91 575.57 597.982 575.57 598.09 575.57C607.128 575.642 616.167 578.56 624.953 584.36C637.556 592.61 646.81 604.715 652.355 613.397C657.108 620.819 661.429 628.853 665.57 636.598C673.096 650.612 680.91 665.095 691.856 677.38C693.621 679.362 695.421 681.271 697.293 683.108C697.546 683.36 697.834 683.613 698.086 683.829C711.049 696.294 726.532 705.769 741.584 714.955L742.916 715.748C757.031 724.358 769.886 732.536 780.545 742.407C781.769 743.524 782.885 744.713 784.038 745.866C784.362 747.271 784.614 748.676 784.83 750.117C785.226 752.819 787.531 754.728 790.159 754.728C790.411 754.728 790.699 754.728 790.951 754.656C791.203 754.62 791.419 754.548 791.671 754.476C793.148 756.422 794.48 758.259 795.596 760.096C804.562 774.003 808.055 789.53 805.211 802.86V802.968C804.995 803.904 804.779 804.877 804.49 805.814C755.231 793.889 708.636 767.734 672.952 731.78C670.863 729.654 667.442 729.654 665.318 731.78C663.193 733.869 663.193 737.292 665.318 739.417C701.867 776.2 749.398 803.148 799.737 815.793C798.045 818.315 796.029 820.693 793.796 822.926C793.112 822.314 792.248 821.845 791.275 821.665C719.331 807.615 650.951 776.056 593.625 730.375C591.285 728.501 587.9 728.898 586.027 731.239C584.155 733.581 584.551 736.968 586.892 738.841C644.181 784.486 712.165 816.297 783.858 831.176C781.409 832.87 778.888 834.419 776.332 835.896C776.08 835.896 775.864 835.86 775.612 835.896C731.033 837.733 686.779 827.538 647.494 806.39C644.865 804.985 641.588 805.958 640.184 808.588C638.78 811.218 639.752 814.496 642.381 815.901C676.445 834.274 714.145 844.686 752.602 846.56L740.972 850.198C711.877 858.088 679.217 855.998 643.857 843.966C627.113 838.237 610.477 830.888 594.381 823.791C588.44 821.161 582.427 818.531 576.377 815.937C558.229 808.191 539.541 800.914 520.132 796.303C518.404 795.906 516.675 795.51 514.947 795.078C513.615 794.754 512.246 794.465 510.914 794.141C501.48 791.908 492.046 789.386 484.664 784.81C480.667 782.325 477.642 779.479 475.338 776.128C465.255 761.429 473.285 739.345 487.112 727.961H487.148ZM684.114 883.63C670.647 887.413 656.64 889.791 643.101 892.061C629.166 894.438 614.762 896.888 600.683 900.851C597.874 901.644 595.066 902.544 592.257 903.409C584.731 905.787 577.602 908.02 570.256 908.705C559.705 909.75 550.307 906.903 545.05 901.067C540.945 896.456 540.693 891.772 540.369 885.864C540.153 881.937 539.937 877.47 538.388 872.823C534.752 861.618 530.106 857.656 519.628 850.702C516.855 848.865 513.903 847.028 510.878 845.154C496.331 836.148 481.243 826.853 478.578 811.11C477.21 802.896 479.551 798.5 482.287 795.87C482.395 795.906 482.503 795.979 482.611 796.015C483.043 796.231 483.476 796.447 483.908 796.663C484.736 797.059 485.564 797.456 486.392 797.852C486.896 798.068 487.4 798.284 487.905 798.5C488.697 798.825 489.489 799.149 490.317 799.473C490.857 799.689 491.397 799.869 491.938 800.05C492.73 800.338 493.558 800.626 494.35 800.878C494.89 801.058 495.466 801.238 496.006 801.419C496.835 801.671 497.663 801.923 498.491 802.139C499.031 802.283 499.571 802.463 500.111 802.607C500.976 802.86 501.876 803.076 502.776 803.292C503.28 803.436 503.784 803.544 504.288 803.688C505.261 803.94 506.269 804.156 507.277 804.409C507.673 804.517 508.069 804.589 508.465 804.697C509.834 805.021 511.202 805.345 512.534 805.634C514.263 806.03 515.955 806.426 517.648 806.822C542.565 812.767 566.691 823.395 590.024 833.698C606.3 840.867 623.152 848.289 640.364 854.197C643.893 855.422 647.422 856.503 650.915 857.511C651.887 857.8 652.859 858.052 653.831 858.34C656.64 859.133 659.449 859.853 662.221 860.502C662.941 860.682 663.698 860.862 664.418 861.042C667.803 861.799 671.187 862.483 674.536 863.059C675.328 863.204 676.121 863.312 676.913 863.42C679.577 863.852 682.242 864.212 684.871 864.537C685.735 864.645 686.599 864.753 687.463 864.825C676.769 864.969 666.11 864.032 656.064 862.843C652.031 862.375 647.998 861.835 643.965 861.294C621.64 858.376 598.522 855.35 575.765 859.673C572.848 860.213 570.904 863.06 571.48 865.978C572.056 868.896 574.901 870.841 577.782 870.265C598.846 866.266 621.064 869.184 642.561 871.994C646.63 872.534 650.735 873.075 654.768 873.543C664.49 874.696 674.788 875.633 685.231 875.633C694.341 875.633 703.523 874.876 712.525 873.003C703.487 877.326 693.945 880.892 684.114 883.667V883.63ZM848.709 849.874C841.615 853.837 832.505 853.981 824.547 853.801L819.758 853.729C813.313 853.657 804.49 853.513 794.948 852.936C786.306 852.396 778.528 851.567 771.651 850.45C771.795 850.378 771.939 850.306 772.083 850.234C772.407 850.09 772.695 849.946 773.019 849.766C774.027 849.297 775.036 848.793 776.044 848.289C776.44 848.073 776.872 847.856 777.268 847.676C778.312 847.136 779.321 846.595 780.365 846.019C780.689 845.839 780.977 845.695 781.301 845.515C782.597 844.758 783.93 844.002 785.226 843.209C785.55 843.029 785.838 842.813 786.162 842.597C787.17 841.984 788.143 841.336 789.151 840.651C789.583 840.363 789.979 840.075 790.375 839.786C791.311 839.138 792.248 838.454 793.184 837.733C793.508 837.481 793.868 837.229 794.192 836.977C795.416 836.04 796.605 835.067 797.757 834.058C797.973 833.878 798.189 833.662 798.405 833.446C799.341 832.617 800.241 831.753 801.142 830.888C801.502 830.528 801.826 830.204 802.186 829.843C802.978 829.051 803.734 828.222 804.454 827.393C804.743 827.069 805.031 826.745 805.319 826.385C806.291 825.232 807.227 824.043 808.127 822.818C808.235 822.674 808.307 822.53 808.415 822.386C809.172 821.305 809.892 820.188 810.576 819.035C810.828 818.639 811.044 818.243 811.26 817.81C811.8 816.838 812.268 815.865 812.736 814.856C812.916 814.46 813.133 814.028 813.313 813.631C813.889 812.226 814.429 810.821 814.861 809.38C814.861 809.272 814.933 809.2 814.933 809.092C815.077 809.092 815.221 809.02 815.365 808.984C815.977 808.876 816.625 808.696 817.237 808.588C818.246 808.372 819.218 808.155 820.19 807.831C820.838 807.615 821.522 807.363 822.171 807.111C823.107 806.75 824.043 806.39 825.015 805.922C825.699 805.598 826.348 805.237 827.032 804.877C827.968 804.373 828.904 803.832 829.84 803.256C830.525 802.824 831.173 802.391 831.821 801.959C832.757 801.31 833.693 800.59 834.63 799.869C835.278 799.365 835.926 798.861 836.574 798.32C837.546 797.492 838.518 796.591 839.455 795.69C840.067 795.114 840.643 794.574 841.255 793.961C842.299 792.88 843.38 791.727 844.424 790.539C844.928 789.998 845.396 789.458 845.9 788.881C847.448 787.044 848.961 785.135 850.509 783.081C851.589 781.604 852.634 780.127 853.678 778.578C853.966 778.146 854.218 777.713 854.506 777.281C855.19 776.2 855.874 775.155 856.559 774.039C861.024 788.701 863.652 808.588 863.364 821.125C863.148 831.176 859.151 844.038 848.673 849.946L848.709 849.874ZM913.956 922.179C927.351 919.873 949.964 920.99 960.047 932.194C932.068 933.815 904.162 937.166 876.615 942.101C886.626 931.798 899.805 924.628 913.992 922.179H913.956ZM963.216 947.829C959.363 956.079 947.588 963.357 938.442 965.59C925.731 968.725 911.724 964.149 902.289 960.403C899.121 959.142 895.952 957.773 892.783 956.44C889.326 954.963 885.797 953.449 882.197 952.044C909.383 947.325 936.857 944.191 964.44 942.75C964.368 944.407 963.972 946.1 963.18 947.829H963.216ZM1251.89 1464.7C1231.19 1498.35 1195.22 1537.11 1156.26 1544.96C1149.2 1546.41 1143.44 1546.26 1138.83 1544.68C1179.59 1466.03 1234.5 1394.84 1300.33 1335.51C1289.16 1380.22 1276.16 1425.25 1251.89 1464.7ZM1133.9 1469.85C1142.86 1447.26 1156.87 1425.5 1174.33 1406.88C1207.86 1371.21 1250.81 1347.36 1291.4 1328.95C1225.86 1388.39 1171.13 1459.47 1130.19 1537.9C1120.03 1523.02 1126.05 1489.63 1133.9 1469.81V1469.85ZM1229.5 787.152C1237.85 769.427 1255.64 756.097 1274.87 753.179C1295.72 750.045 1317.21 760.889 1320.02 775.912L1322.62 789.782L1329.96 777.713C1334.25 770.688 1342.56 765.572 1353.37 763.411C1367.48 760.565 1383 763.339 1392.9 770.436C1412.89 784.882 1413.82 810.029 1408.57 827.177C1402.91 845.551 1390.46 862.483 1378.14 878.263C1377.31 879.163 1376.48 880.136 1375.66 881.037C1374.47 882.334 1373.32 883.63 1372.13 885C1371.37 885.9 1370.58 886.837 1369.82 887.737C1368.56 889.251 1367.27 890.728 1365.97 892.277C1365.25 893.141 1364.53 894.078 1363.84 894.943C1362.48 896.636 1361.11 898.329 1359.7 900.131C1357.58 902.833 1355.42 905.643 1353.26 908.561C1344.29 920.485 1335.69 932.914 1327.33 945.091C1327.91 941.056 1328.3 937.021 1328.45 932.951C1328.74 924.664 1325.42 918.936 1319.63 917.639C1319.41 917.603 1319.12 917.567 1318.87 917.531C1325.68 905.102 1333.24 893.105 1341.63 881.685C1343.39 879.271 1342.89 875.885 1340.48 874.12C1338.06 872.354 1334.68 872.859 1332.91 875.272C1321.54 890.764 1311.52 907.3 1303.03 924.52C1303.39 892.637 1306.81 860.826 1313.36 829.627C1313.97 826.709 1312.1 823.827 1309.18 823.214C1306.27 822.602 1303.39 824.475 1302.77 827.393C1296.01 859.493 1292.51 892.241 1292.19 925.025C1286.1 906.435 1281.17 887.413 1277.53 868.211C1276.96 865.293 1274.15 863.348 1271.23 863.924C1268.31 864.465 1266.37 867.311 1266.95 870.229C1269.72 884.855 1273.25 899.374 1277.42 913.712C1276.6 913.748 1275.77 913.857 1274.94 914.109C1272.28 914.937 1267.67 917.603 1266.62 926.322C1266.44 927.979 1266.33 929.672 1266.26 931.401C1263.2 925.601 1260.1 919.873 1257.01 914.253L1255.14 910.83V910.29L1254.24 909.173C1241.34 885.576 1230.29 864.068 1225.57 839.967C1221.43 818.927 1222.73 801.635 1229.53 787.08L1229.5 787.152ZM1290.93 1052.05C1290.64 1051.37 1290.32 1049.93 1290.35 1047.8C1290.71 1037.17 1292.66 1026.58 1296.19 1016.35C1296.55 1015.31 1296.94 1014.12 1297.41 1012.86C1299.43 1010.91 1301.51 1008.79 1303.67 1006.48C1303.78 1007.96 1303.93 1009.47 1304.11 1010.98C1304.04 1013.72 1303.93 1016.32 1303.67 1018.84C1302.49 1031.41 1298.89 1041.86 1292.98 1049.86C1292.04 1051.15 1291.25 1051.8 1290.93 1052.05ZM1258.63 1023.52C1257.3 1022.94 1255.78 1022.87 1254.34 1023.52C1253.8 1023.74 1253.3 1024.03 1252.76 1024.28C1252.76 1024.28 1252.69 1024.28 1252.65 1024.28C1252.9 1023.59 1253.7 1022.33 1255.21 1020.85C1257.87 1018.3 1260.75 1015.96 1263.67 1013.69C1266.01 1012.89 1268.82 1012.1 1271.84 1011.31C1277.35 1009.83 1283.29 1008.21 1288.52 1005.8C1288.37 1006.12 1288.26 1006.48 1288.16 1006.8C1287.11 1007.74 1286.1 1008.68 1285.06 1009.54C1276.38 1016.86 1267.49 1021.58 1258.63 1023.56V1023.52ZM1244.01 978.92C1242.71 978.019 1242.28 977.299 1242.24 977.227C1242.32 976.939 1243.72 976.002 1246.57 975.75C1248.98 975.57 1251.35 975.461 1253.73 975.461C1260.97 975.461 1268.13 976.362 1275.08 978.163C1275.3 978.2 1275.52 978.272 1275.73 978.344C1276.92 980.685 1278.22 982.955 1279.91 985.044C1280.05 985.225 1280.2 985.369 1280.34 985.513C1277.28 985.837 1274.4 986.053 1271.7 986.089C1260.43 986.305 1251.07 983.856 1244.01 978.92ZM1280.59 928.159C1282.5 931.762 1284.12 935.508 1285.6 939.291C1286.28 941.201 1286.97 943.11 1287.65 945.019C1289.06 949.379 1290.28 953.81 1291.14 958.349C1291.72 961.411 1292.51 965.482 1293.05 969.805C1293.05 970.634 1293.05 971.571 1293.05 972.435C1291.79 971.931 1290.53 971.463 1289.24 970.994C1286.9 967.067 1285.02 963.429 1283.4 959.934C1278.18 948.442 1276.13 937.562 1277.32 927.691C1277.5 926.105 1277.86 925.169 1278 924.737C1278.58 925.169 1279.59 926.25 1280.59 928.159ZM1311.78 964.077C1310.95 966.491 1309.9 969.589 1308.61 972.868C1307.71 973.804 1306.81 974.813 1305.87 975.822L1305.62 975.606L1304.47 976.506C1304.36 974.165 1304.18 971.823 1303.89 969.445C1303.96 966.707 1304.07 964.113 1304.32 961.627C1305.51 949.054 1309.11 938.607 1315.02 930.609C1315.95 929.312 1316.75 928.663 1317.07 928.411C1317.36 929.096 1317.68 930.537 1317.65 932.662C1317.29 943.29 1315.34 953.882 1311.81 964.113L1311.78 964.077ZM1315.67 1013.58C1315.85 1012.32 1316.03 1011.02 1316.21 1009.69C1317.54 1010.44 1318.87 1011.2 1320.2 1011.88C1321.9 1014.87 1323.34 1017.72 1324.6 1020.49C1329.82 1032.02 1331.87 1042.87 1330.68 1052.74C1330.5 1054.32 1330.14 1055.26 1330 1055.69C1329.42 1055.26 1328.41 1054.18 1327.4 1052.27C1322.44 1042.87 1318.91 1032.71 1316.85 1022.08C1316.46 1019.99 1315.95 1017.36 1315.52 1014.55C1315.56 1014.23 1315.59 1013.9 1315.67 1013.58ZM1359.52 1012.86C1358.91 1012.6 1358.34 1012.32 1357.76 1012.06C1356.21 1011.45 1354.55 1011.6 1353.19 1012.32C1344.65 1010.8 1336.44 1008.14 1328.84 1004.21C1328.59 1004.07 1328.27 1003.92 1327.98 1003.78C1327.04 1002.16 1326.04 1000.5 1324.92 998.771C1324.52 998.158 1324.09 997.365 1323.62 996.501C1323.48 996.213 1323.3 995.924 1323.16 995.636C1327.12 995.997 1330.61 996.537 1333.89 997.221C1344.98 999.563 1353.51 1003.96 1359.31 1010.34C1360.39 1011.52 1360.64 1012.28 1360.64 1012.39C1360.57 1012.5 1360.17 1012.71 1359.49 1012.86H1359.52ZM1355.6 956.332C1356.46 956.187 1357.18 956.151 1357.69 956.151C1358.12 956.151 1358.41 956.151 1358.59 956.151C1358.34 956.836 1357.54 958.097 1356.03 959.574C1349.44 965.842 1342.02 971.21 1333.96 975.642C1333.42 975.498 1332.91 975.353 1332.37 975.245C1330.43 974.813 1328.56 974.453 1326.76 974.201C1326.18 974.093 1325.64 974.093 1325.06 974.02C1324.34 973.912 1323.66 973.84 1322.98 973.768C1324.06 972.76 1325.14 971.823 1326.22 970.922C1335.87 962.78 1345.77 957.845 1355.6 956.296V956.332ZM1089.89 857.187C1100.12 846.74 1113.12 842.597 1127.09 842.597C1155.14 842.597 1186.97 859.457 1207.21 875.993C1217.33 884.279 1227.27 894.15 1237.56 906.147C1240.12 909.137 1242.64 912.163 1245.13 915.226L1247.5 919.549C1253.59 930.645 1259.85 941.993 1265.25 953.63C1266.23 955.719 1267.05 957.809 1267.99 959.898C1255.68 941.561 1238.14 926.574 1218.01 917.459C1215.31 916.234 1212.11 917.459 1210.85 920.161C1209.62 922.863 1210.85 926.069 1213.55 927.294C1226.87 933.311 1238.9 942.209 1248.83 952.981C1220.39 939.723 1188.56 933.203 1157.34 934.5C1154.35 934.608 1152.04 937.13 1152.15 940.12C1152.26 943.11 1154.71 945.452 1157.77 945.308C1188.84 944.083 1220.57 950.928 1248.51 964.834C1247.57 964.87 1246.6 964.87 1245.67 964.942C1238.14 965.554 1232.88 969.265 1231.66 974.885C1231.3 976.614 1231.37 978.308 1231.8 979.965C1223.05 979.532 1214.23 981.478 1206.52 985.873C1203.93 987.35 1203.03 990.665 1204.51 993.258C1205.52 995.024 1207.32 995.997 1209.19 995.997C1210.09 995.997 1211.03 995.78 1211.85 995.276C1220.89 990.124 1232.52 989.296 1242.21 993.078C1243.83 993.727 1245.56 993.475 1246.96 992.646C1253.48 995.276 1260.9 996.681 1269.21 996.825C1265.51 999.023 1261.94 1001.44 1258.52 1004.03C1239.62 1010.7 1220.68 1017.4 1201.77 1024.1C1196.48 1025.93 1191.22 1027.81 1185.93 1029.68L1181.93 1031.09C1170.44 1035.16 1158.56 1039.41 1146.32 1041.43C1133.07 1043.62 1121.36 1042.87 1111.53 1039.12C1097.53 1033.86 1086.15 1021.76 1081.79 1007.45C1071.46 973.624 1100.3 951.396 1113.15 943.434L1124.03 936.697L1111.61 933.599C1095.69 929.636 1082.55 917.135 1078.19 901.788C1073.83 886.404 1078.44 868.932 1089.89 857.223V857.187ZM1075.71 807.147C1076.82 783.802 1086.83 759.448 1103.97 739.742C1121.94 719.062 1147.4 702.598 1179.63 690.782C1195.43 684.982 1211.75 680.694 1228.13 677.092C1169.18 702.31 1116.32 747.271 1075.67 807.147H1075.71ZM1179.41 772.237C1159.82 790.971 1122.05 820.873 1080.24 820.873C1079.99 820.873 1079.77 820.873 1079.52 820.873C1123.99 752.135 1184.6 702.454 1252.07 679.362C1231.84 711.353 1208.86 744.029 1179.41 772.237ZM1344.72 638.472C1327.48 655.116 1301.87 661.637 1279.48 655.116C1257.12 648.595 1239 629.285 1233.35 605.94L1230.33 593.511L1223.52 604.319C1209.69 626.331 1193.63 641.606 1175.85 649.748C1156.33 658.61 1132.06 651.153 1117.19 642.074C1103.86 633.86 1094.54 623.341 1089.42 610.731C1089.5 610.659 1089.57 610.587 1089.64 610.551C1091.48 609.146 1093.21 607.633 1094.9 606.048C1095.29 605.688 1095.65 605.327 1096.01 604.931C1097.67 603.274 1099.33 601.581 1100.84 599.743C1113.41 584.756 1121.54 565.05 1124.93 541.093C1126.41 530.501 1126.33 519.837 1126.26 509.534C1126.15 495.267 1126.05 481.757 1129.86 468.788C1134.26 453.729 1139.87 438.994 1146.61 424.728C1145.71 432.726 1145.38 440.723 1145.67 448.721C1146.03 459.277 1150.53 466.23 1157.7 467.311C1158.2 467.383 1158.81 467.455 1159.46 467.455C1163.03 467.455 1168.46 465.834 1173.54 457.872C1173.65 457.728 1173.72 457.584 1173.79 457.44C1171.49 472.21 1168.54 486.837 1164.97 501.32C1164.25 504.202 1166.01 507.156 1168.93 507.876C1169.36 507.984 1169.8 508.021 1170.23 508.021C1172.64 508.021 1174.87 506.363 1175.49 503.914C1182.61 474.984 1187.3 445.263 1189.49 415.541C1204.72 448.505 1215.49 483.306 1221.5 519.225C1221.94 521.855 1224.24 523.728 1226.83 523.728C1227.12 523.728 1227.41 523.728 1227.73 523.656C1230.69 523.152 1232.67 520.378 1232.16 517.423C1226.58 483.883 1216.86 451.315 1203.39 420.224C1206.24 422.458 1209.15 424.62 1212.18 426.673C1213.44 427.538 1214.73 428.222 1215.99 428.835C1232.49 448.217 1245.23 471.022 1252.9 495.267C1253.62 497.573 1255.75 499.05 1258.05 499.05C1258.59 499.05 1259.13 498.978 1259.67 498.798C1262.52 497.897 1264.1 494.871 1263.2 492.025C1256.14 469.725 1245.02 448.541 1230.76 429.952C1231.8 429.483 1232.81 428.943 1233.75 428.186C1238.39 424.404 1239.76 418.279 1237.56 410.93C1233.31 396.591 1223.63 383.514 1208.76 372.021C1207.17 370.796 1205.48 369.572 1203.75 368.347C1205.05 368.347 1206.38 368.347 1207.68 368.347C1208.36 368.347 1209.04 368.311 1209.73 368.275C1214.05 372.021 1218.08 375.804 1221.5 379.046L1224.24 381.64C1242.78 398.933 1258.2 413.415 1273.46 428.943C1288.7 444.434 1301.55 458.845 1312.75 472.931C1317.32 478.695 1321.64 484.495 1325.71 490.26C1326.29 491.088 1326.86 491.881 1327.44 492.709C1331.51 498.546 1335.29 504.382 1338.78 510.11C1348.43 526.106 1356.25 542.245 1362.01 558.097C1372.38 586.774 1365.57 618.333 1344.69 638.508L1344.72 638.472ZM1087.66 371.373C1086.72 370.004 1085.21 369.067 1083.41 368.959C1082.48 368.923 1081.58 368.959 1080.64 368.959C1079.27 368.166 1078.48 367.374 1078.41 366.797C1078.26 365.537 1080.96 363.267 1085.61 361.754C1090.69 360.133 1095.87 358.764 1101.09 357.683C1101.16 357.683 1101.24 357.683 1101.31 357.683C1104.91 358.079 1109.19 358.908 1113.69 359.736C1115.46 360.061 1117.3 360.421 1119.1 360.745C1119.67 360.853 1120.21 360.925 1120.79 361.033C1122.19 361.285 1123.63 361.502 1125.04 361.718C1125.65 361.826 1126.3 361.898 1126.91 362.006C1128.49 362.222 1130.08 362.402 1131.66 362.546C1132.02 362.546 1132.42 362.618 1132.78 362.654C1134.69 362.799 1136.56 362.907 1138.43 362.907C1138.58 362.907 1138.72 362.907 1138.86 362.907C1140.05 362.907 1141.24 362.871 1142.43 362.799C1142.68 362.799 1142.93 362.763 1143.19 362.727C1143.37 362.727 1143.51 362.727 1143.69 362.69C1141.64 364.564 1139.66 366.401 1137.82 368.166C1135.73 368.815 1133.68 369.391 1131.66 369.896C1115.42 374.039 1100.62 374.471 1087.59 371.301L1087.66 371.373ZM1095.83 304.76C1095.15 303.535 1093.67 300.509 1094.83 299.032C1096.23 297.231 1100.34 297.771 1103.79 299.104C1116.83 304.148 1128.75 311.209 1139.22 320.071C1139.69 320.468 1140.2 320.9 1140.7 321.296C1140.7 325.223 1141.03 329.114 1141.89 332.969C1142.21 334.338 1142.61 335.671 1143.04 336.968C1143.15 337.256 1143.26 337.58 1143.37 337.868C1137.46 335.923 1132.35 333.978 1127.67 331.78C1112.72 324.827 1102.03 315.712 1095.83 304.724V304.76ZM1157.3 303.715C1157.73 285.45 1161.95 269.995 1169.72 257.782C1171.74 254.576 1173.68 253.207 1174.66 253.207C1174.69 253.207 1174.76 253.207 1174.8 253.207C1176.06 253.387 1177.5 256.629 1177.68 261.493C1177.86 266.536 1177.75 271.616 1177.43 276.66C1177 280.551 1176.57 284.441 1176.21 288.332C1176.21 288.44 1176.21 288.512 1176.21 288.62C1175.34 294.781 1174.08 300.941 1172.46 307.03C1171.31 311.353 1169.76 317.117 1167.74 323.098C1166.7 325.151 1165.69 327.277 1164.65 329.51C1162.52 326.988 1160.25 324.575 1157.95 322.305C1157.37 315.46 1157.16 309.408 1157.3 303.679V303.715ZM1254.24 341.435C1258.05 342.588 1259.89 344.137 1260 345.11C1260.14 346.371 1257.44 348.64 1252.8 350.153C1240.16 354.224 1226.98 356.602 1213.55 357.287C1212.72 356.602 1211.89 355.882 1211.03 355.197C1209.8 354.224 1208.58 353.288 1207.39 352.423C1206.99 352.135 1206.63 351.883 1206.24 351.594C1205.41 351.018 1204.62 350.442 1203.79 349.901C1203.39 349.613 1202.96 349.361 1202.56 349.073C1201.77 348.568 1200.98 348.064 1200.22 347.595C1199.86 347.379 1199.5 347.163 1199.14 346.947C1198.13 346.371 1197.16 345.83 1196.19 345.326C1196.12 345.29 1196.01 345.218 1195.94 345.182C1199.65 343.921 1203.21 342.876 1206.67 341.975C1224.35 337.472 1240.34 337.292 1254.2 341.471L1254.24 341.435ZM1226.98 419.72C1226 420.513 1224.35 420.405 1222.58 419.828C1221.86 419 1221.14 418.099 1220.39 417.27C1219.13 415.865 1217.29 415.397 1215.53 415.649C1205.08 408.228 1195.9 399.437 1188.3 389.35C1187.94 388.846 1187.51 388.269 1187.08 387.729C1186.86 384.919 1186.58 382.037 1186.22 378.938C1186.11 377.894 1186.04 376.561 1185.93 375.12C1185.82 373.318 1185.71 371.445 1185.53 369.535C1192.01 373.282 1197.41 376.813 1202.13 380.451C1215.17 390.539 1223.59 401.779 1227.19 413.884C1227.59 415.253 1228.38 418.495 1226.91 419.684L1226.98 419.72ZM1161.77 402.788C1162.56 399.762 1163.6 396.015 1164.79 391.98C1165.11 391.475 1165.44 391.043 1165.76 390.539C1167.35 388.161 1169 385.675 1170.62 383.153C1172.6 386.216 1174.66 389.098 1176.57 391.692C1176.89 396.843 1177.03 401.599 1176.93 406.138C1176.49 424.404 1172.32 439.859 1164.5 452.036C1162.34 455.386 1160.33 456.755 1159.39 456.611C1158.13 456.431 1156.69 453.189 1156.51 448.325C1155.97 433.086 1157.73 417.775 1161.73 402.788H1161.77ZM1185.35 356.89C1185.03 356.674 1184.7 356.494 1184.38 356.278C1184.06 356.062 1183.73 355.845 1183.37 355.665L1184.13 353.288L1183.59 352.999C1183.95 352.711 1184.31 352.423 1184.63 352.135C1187.98 353.18 1191.62 354.945 1195.61 357.467C1192.3 357.395 1188.81 357.251 1185.32 356.926L1185.35 356.89ZM1194.68 328.033C1192.05 330.699 1188.66 334.086 1184.85 337.616C1182.76 338.409 1180.56 339.273 1178.33 340.174C1177.9 340.174 1177.47 340.21 1177.07 340.246L1176.89 339.886L1172.75 340.75C1172.75 340.75 1172.75 340.75 1172.71 340.75C1172.71 340.75 1172.71 340.75 1172.68 340.75L1172.32 340.823C1174.44 336.427 1176.28 331.816 1177.83 327.277C1179.59 323.818 1181.35 320.612 1183.19 317.586C1192.63 301.95 1203.93 290.602 1216.75 283.901C1219.16 282.64 1221.04 282.172 1222.22 282.172C1222.8 282.172 1223.2 282.28 1223.45 282.46C1224.46 283.253 1224.1 286.783 1221.83 291.106C1214.73 304.616 1205.62 317.045 1194.71 328.069L1194.68 328.033ZM1112.47 418.783C1119.56 405.274 1128.67 392.844 1139.58 381.82C1140.81 380.56 1142.21 379.191 1143.69 377.749C1148.91 376.092 1154.35 374.075 1160.43 371.589C1160.54 371.553 1160.69 371.481 1160.83 371.445C1159.17 375.084 1157.73 378.866 1156.47 382.577C1154.71 386.036 1152.94 389.242 1151.11 392.268C1141.67 407.903 1130.37 419.252 1117.55 425.989C1114.02 427.826 1111.61 428.042 1110.85 427.43C1109.84 426.637 1110.2 423.107 1112.47 418.783ZM1435.32 246.614C1465.75 245.209 1493.91 261.096 1506.98 286.999C1517.74 308.399 1516.38 334.77 1503.56 354.224C1490.67 373.679 1466.83 385.279 1442.96 383.766L1430.21 382.973L1438.53 392.7C1455.45 412.479 1465.28 432.329 1467.77 451.747C1470.43 473.075 1456.1 494.042 1443.03 505.499C1426.39 520.161 1406.98 525.745 1386.96 521.638C1372.74 518.72 1360.14 511.407 1347.43 503.409C1346.42 501.716 1345.3 500.023 1344.22 498.365C1343.43 497.105 1342.67 495.88 1341.84 494.619C1340.58 492.709 1339.25 490.764 1337.96 488.855C1337.13 487.63 1336.3 486.405 1335.43 485.18C1333.99 483.126 1332.48 481.073 1331.01 479.019C1330.18 477.903 1329.42 476.786 1328.59 475.669C1326.22 472.499 1323.8 469.364 1321.28 466.194C1309.83 451.783 1296.73 437.121 1281.24 421.341C1265.79 405.634 1250.31 391.079 1231.66 373.715L1228.96 371.157C1227.63 369.896 1226.22 368.563 1224.74 367.194C1225.46 367.122 1226.18 367.05 1226.91 366.942C1227.59 368.887 1229.39 370.364 1231.59 370.544C1254.06 372.201 1276.16 380.776 1293.92 394.682C1294.89 395.438 1296.08 395.835 1297.23 395.835C1298.85 395.835 1300.43 395.114 1301.48 393.745C1303.31 391.403 1302.92 387.981 1300.54 386.144C1285.74 374.543 1268.13 366.401 1249.73 362.33C1251.86 361.754 1253.98 361.105 1256.07 360.457C1257.98 359.844 1259.67 359.088 1261.22 358.295C1294.96 358.511 1328.3 364.023 1360.28 374.759C1360.86 374.939 1361.43 375.048 1362.01 375.048C1364.28 375.048 1366.37 373.606 1367.12 371.373C1368.06 368.527 1366.55 365.465 1363.7 364.528C1333.53 354.404 1302.2 348.784 1270.44 347.704C1270.69 346.443 1270.84 345.146 1270.66 343.813C1270.26 340.678 1268.17 335.202 1259.28 331.852C1277.6 328.033 1296.26 326.232 1314.98 326.412H1315.05C1318.01 326.412 1320.42 324.034 1320.45 321.08C1320.45 318.09 1318.08 315.64 1315.13 315.604C1288.8 315.352 1262.59 318.883 1237.28 326.16C1236.3 326.448 1235.44 326.988 1234.79 327.709C1230.69 327.637 1226.44 327.817 1222.12 328.249L1225.97 326.088C1245.45 314.956 1265.58 303.427 1285.78 293.016C1299.28 286.027 1311.7 280.082 1323.62 274.967C1327.55 273.273 1331.4 271.688 1335.22 270.175L1335.33 270.103C1335.33 270.103 1335.4 270.103 1335.43 270.067C1336.73 269.491 1337.99 268.986 1339.43 268.446C1373.1 255.404 1405.36 248.055 1435.32 246.614ZM1157.44 115.118C1165.22 85.3602 1177.75 63.7805 1195.72 49.1538C1217.76 31.2848 1249.45 25.1243 1276.38 33.4463C1305.87 42.597 1327.3 70.9137 1321.32 92.8176L1317.61 106.436L1329.46 98.798C1339.76 92.1331 1354.09 90.6921 1369.79 94.691C1390.06 99.8788 1408.64 113.389 1417.14 129.06C1434.24 160.763 1419.62 194.34 1401.87 213.434C1383.15 233.608 1356.61 247.623 1331.04 260.196C1328.7 261.132 1326.29 262.141 1323.91 263.15C1322.36 263.798 1320.89 264.375 1319.3 265.059C1316.49 266.284 1313.58 267.581 1310.7 268.878C1309.47 269.454 1308.28 269.959 1307.02 270.535C1303.89 271.976 1300.65 273.525 1297.45 275.111C1296.37 275.615 1295.32 276.119 1294.24 276.624C1289.88 278.749 1285.42 281.019 1280.85 283.397C1260.43 293.916 1240.19 305.481 1220.6 316.685L1216.86 318.81C1222.3 311.641 1227.16 304.076 1231.33 296.15C1236.23 286.819 1235.76 278.533 1230.11 274.03C1229.21 273.309 1227.91 272.553 1226.26 272.012C1243.54 259.439 1261.69 248.091 1280.56 238.076C1283.19 236.671 1284.19 233.392 1282.79 230.762C1281.39 228.132 1278.11 227.124 1275.48 228.529C1248.65 242.759 1223.23 259.655 1199.68 278.857C1220.64 235.085 1246.17 193.547 1275.84 155.143C1277.68 152.765 1277.24 149.379 1274.87 147.578C1272.53 145.74 1269.11 146.173 1267.31 148.55C1236.34 188.648 1209.8 232.095 1188.23 277.885C1188.23 277.813 1188.23 277.704 1188.23 277.632C1191.87 245.749 1197.88 213.974 1206.2 183.027C1206.99 180.145 1205.26 177.191 1202.38 176.399C1199.5 175.642 1196.55 177.335 1195.76 180.217C1190.03 201.473 1185.42 223.125 1181.86 244.921C1180.27 243.732 1178.51 242.867 1176.46 242.579C1173.11 242.075 1166.63 242.579 1160.61 252.018C1157.7 256.557 1155.28 261.529 1153.27 266.789C1153.02 254.323 1152.33 241.93 1151.72 229.754L1151.4 223.629V223.593L1151.65 223.125L1151.32 221.684C1149.38 183.496 1148.55 149.091 1157.44 115.154V115.118ZM890.731 300.329C875.679 284.549 868.405 261.385 871.754 239.877C879.64 189.008 931.168 178.164 952.953 175.858L965.664 174.525L955.834 166.347C937.397 151 928.071 126.214 932.104 103.229C936.173 80.2445 953.313 60.1418 975.818 52.0359C983.632 49.2258 991.41 47.9289 999.08 47.9289C1049.96 47.9289 1095.65 104.995 1116.22 149.235C1124.03 166.131 1130.65 184.901 1136.42 206.625C1137.75 211.524 1139.08 216.928 1140.52 223.089L1140.88 230.33C1142.14 254.179 1143.44 278.821 1141.78 302.779C1141.67 304.508 1141.53 306.201 1141.39 307.858C1141.39 307.931 1141.39 307.967 1141.39 308.003C1140.34 307.21 1139.33 306.453 1138.25 305.697C1138.65 304.832 1138.86 303.896 1138.79 302.887C1135.77 269.418 1122.26 236.815 1100.73 211.02C1098.82 208.714 1095.4 208.426 1093.13 210.335C1090.83 212.245 1090.54 215.667 1092.45 217.937C1108.22 236.851 1119.38 259.691 1124.86 283.757C1096.3 245.749 1057.45 214.875 1013.95 195.997C1011.21 194.808 1008.05 196.069 1006.86 198.807C1005.67 201.545 1006.93 204.715 1009.67 205.904C1052.91 224.674 1091.41 255.764 1119.1 294.06C1115.39 292.223 1111.61 290.53 1107.72 289.053C1098.72 285.558 1090.76 286.819 1086.36 292.367C1084.35 294.925 1083.48 297.951 1083.66 301.266C1072.5 294.313 1059.25 290.854 1046.03 291.755C1043.05 291.971 1040.81 294.529 1040.99 297.519C1041.21 300.509 1043.8 302.743 1046.76 302.563C1062.02 301.554 1078.05 307.895 1088.49 319.171C1089.57 320.324 1091.01 320.9 1092.45 320.9C1092.95 320.9 1093.46 320.756 1093.93 320.612C1101.2 328.934 1110.92 335.995 1123.09 341.651C1124.64 342.372 1126.26 343.056 1127.92 343.777C1118.66 344.065 1109.55 345.038 1100.59 346.839C1072.43 343.705 1044.27 340.534 1016.11 337.436H1016.04C1008.33 336.535 1000.63 335.671 992.922 334.842L986.621 334.158C969.373 332.284 951.549 330.339 934.553 325.331C915.972 319.855 901.245 311.497 890.731 300.401V300.329ZM1033.29 618.801C1015.57 620.567 995.659 604.355 985.901 588.287C975.782 571.499 971.173 549.811 972.146 523.836L972.614 511.047L963.108 519.621C945.319 535.653 919.501 541.381 897.284 534.14C875.103 526.862 857.675 507.048 852.85 483.595C839.995 421.269 915.252 374.507 968.977 358.295C983.164 354.008 998.432 350.694 1015.57 348.208C1035.41 350.406 1055.25 352.603 1075.09 354.837C1069.76 358.259 1067.03 362.943 1067.68 368.13C1067.75 368.707 1067.89 369.355 1068.11 370.04C1057.45 371.913 1047.26 376.128 1038.47 382.541C1036.06 384.306 1035.52 387.693 1037.28 390.107C1038.33 391.548 1039.99 392.34 1041.64 392.34C1042.76 392.34 1043.87 392.016 1044.81 391.295C1054.53 384.234 1066.2 380.199 1078.19 379.767C1079.09 380.127 1079.99 380.487 1081.04 380.812C1085.97 382.289 1091.15 383.262 1096.48 383.802C1066.24 397.132 1038.73 416.334 1015.75 440.363C1013.7 442.525 1013.77 445.947 1015.93 448.001C1016.98 449.009 1018.34 449.514 1019.68 449.514C1021.08 449.514 1022.52 448.973 1023.57 447.857C1048.66 421.666 1079.34 401.491 1113.12 388.737C1091.19 406.643 1073.87 429.627 1062.89 455.854C1061.73 458.592 1063.03 461.763 1065.77 462.916C1066.45 463.204 1067.17 463.348 1067.86 463.348C1069.98 463.348 1071.96 462.087 1072.83 460.033C1080.24 442.345 1090.76 426.241 1103.72 412.299C1103.43 412.803 1103.14 413.307 1102.86 413.812C1097.96 423.143 1098.43 431.429 1104.08 435.932C1105.59 437.157 1108.22 438.562 1112.04 438.562C1114.85 438.562 1118.34 437.805 1122.52 435.572C1126.05 433.698 1129.47 431.537 1132.78 429.123C1127.59 441.084 1123.16 453.333 1119.49 465.762C1115.24 480.244 1115.35 495.195 1115.46 509.606C1115.53 519.513 1115.6 529.78 1114.23 539.58C1113.84 542.318 1113.41 544.983 1112.87 547.613C1109.77 563.285 1104.3 576.687 1096.59 587.567C1095.29 589.368 1093.96 591.133 1092.56 592.79C1088.85 597.258 1084.71 601.004 1079.88 604.283C1068.36 612.209 1053.52 616.82 1033.25 618.801H1033.29ZM1080.31 616.748C1086.44 630.654 1096.91 642.254 1111.61 651.297C1129.57 662.249 1157.05 670.211 1180.38 659.583C1197.45 651.801 1212.9 638.328 1226.44 619.414C1233.35 636.418 1246.13 650.721 1261.91 659.367C1233.39 664.627 1204.08 670.319 1175.95 680.586C1142 693.015 1115.06 710.524 1095.83 732.608C1086.51 743.344 1079.2 755.125 1073.98 767.374C1075.42 717.153 1077.43 666.968 1080.13 616.784C1080.17 616.784 1080.21 616.748 1080.28 616.712L1080.31 616.748ZM1071.56 914.037C1077.29 925.385 1086.9 934.824 1098.61 940.336C1085.9 950.063 1077.07 961.519 1072.5 973.84C1072.21 973.588 1071.89 973.336 1071.6 973.084C1071.49 953.413 1071.46 933.707 1071.53 914.037H1071.56ZM1003.15 1165.14C1025.29 1164.38 1054.71 1173.53 1065.52 1201.96C1065.95 1203.04 1066.24 1204.23 1066.56 1205.38C1066.92 1213.78 1067.32 1222.21 1067.75 1230.6C1066.67 1237.66 1064.54 1244.72 1061.3 1251.21C1055.22 1263.42 1046.47 1271.74 1036.6 1274.62L1023.06 1278.59L1035.81 1284.68C1052.95 1292.89 1059.11 1322.11 1048.7 1345.96C1039.12 1367.82 1017.66 1384.72 994.003 1388.94C974.63 1392.36 953.817 1388.43 930.376 1376.9C903.55 1363.75 881.837 1344.01 858.251 1321.42L857.423 1320.31L856.919 1320.16L853.246 1316.63C846.62 1310.25 839.815 1303.77 832.901 1297.43C836.322 1298.47 839.743 1299.27 843.199 1299.77C844.604 1299.99 845.864 1300.06 847.052 1300.06C854.218 1300.06 857.531 1296.67 858.935 1294.44C859.691 1293.21 860.159 1291.88 860.412 1290.51C876.183 1300.17 892.459 1309.06 909.059 1317.1C909.815 1317.46 910.607 1317.64 911.399 1317.64C913.416 1317.64 915.324 1316.52 916.261 1314.58C917.557 1311.87 916.441 1308.67 913.74 1307.37C890.479 1296.13 867.865 1283.13 846.368 1268.68C886.698 1279.6 928.143 1286.3 969.841 1288.57C969.949 1288.57 970.057 1288.57 970.129 1288.57C972.974 1288.57 975.35 1286.33 975.53 1283.45C975.674 1280.46 973.406 1277.94 970.417 1277.76C930.232 1275.56 890.298 1269.15 851.409 1258.81C875.823 1254.27 899.841 1247.46 922.994 1238.45C925.767 1237.37 927.135 1234.24 926.055 1231.46C924.975 1228.69 921.842 1227.32 919.069 1228.4C902.541 1234.85 885.545 1240.07 868.261 1244.18C868.513 1243.24 868.657 1242.42 868.657 1241.7C868.91 1235.1 863.616 1229.88 854.434 1227.75C848.133 1226.28 841.723 1225.3 835.242 1224.69C853.39 1218.28 872.186 1211.65 890.479 1204.3C892.531 1203.47 894.548 1202.68 896.492 1201.85C898.22 1201.13 899.877 1200.45 901.569 1199.73C901.821 1199.62 902.073 1199.51 902.325 1199.4C911.039 1195.69 919.069 1192.02 926.523 1188.3C928.936 1187.12 931.312 1185.93 933.617 1184.7C955.978 1175.23 979.779 1165.93 1003.18 1165.07L1003.15 1165.14ZM729.881 1285.47C726.244 1287.7 723.832 1287.74 723.58 1287.45C723.472 1287.31 723.4 1286.69 723.58 1285.68C724.048 1285.11 724.588 1284.57 725.02 1283.99C726.064 1282.69 726.352 1281.04 726.064 1279.52C731.249 1269.51 739.675 1260.36 751.234 1252.29C752.638 1251.31 754.115 1250.31 755.663 1249.33C757.139 1249.19 758.616 1249.05 760.128 1248.9C754.871 1254.49 750.586 1261.83 746.661 1268.61C744.717 1271.92 742.88 1275.09 741.188 1277.61C737.551 1280.39 733.842 1283.05 729.917 1285.43L729.881 1285.47ZM831.713 1185.1C834.449 1183.44 836.466 1182.97 837.438 1182.97C837.762 1182.97 837.942 1183.01 838.014 1183.08C838.23 1183.3 838.374 1184.99 837.006 1188.02C832.037 1199.18 823.071 1209.34 810.36 1218.21C808.307 1219.65 806.147 1221.02 803.842 1222.42C803.842 1222.28 803.914 1222.13 803.914 1221.99C803.986 1221.7 804.022 1221.41 804.094 1221.12C804.418 1219.43 804.671 1217.67 804.887 1215.76C804.887 1215.5 804.923 1215.22 804.959 1214.96C805.175 1212.95 805.319 1210.89 805.427 1208.66C805.427 1207.87 805.427 1207.07 805.463 1206.28C813.349 1198.07 822.099 1190.93 831.677 1185.06L831.713 1185.1ZM846.08 1283.16C849.213 1286.08 849.897 1288.35 849.717 1288.67C849.537 1288.93 847.989 1289.54 844.676 1289.07C832.577 1287.31 820.37 1281.43 808.415 1271.6C804.671 1268.54 800.962 1265.08 796.929 1260.97C796.785 1258.63 796.569 1256.32 796.245 1254.05C797.829 1254.49 799.413 1254.95 800.926 1255.31C805.859 1257.33 810.468 1259.56 813.853 1261.22C818.93 1263.67 823.791 1266.52 828.472 1269.54C830.453 1270.95 832.469 1272.35 834.485 1273.72C838.518 1276.68 842.407 1279.78 846.044 1283.16H846.08ZM853.678 1244.11C842.299 1248.58 828.796 1249.55 813.529 1246.96C810.504 1246.45 807.407 1245.77 804.13 1244.97C800.746 1243.61 797.361 1242.42 793.976 1241.44L796.425 1239.57L796.245 1239.17C796.245 1239.17 796.461 1238.96 796.569 1238.85C798.333 1237.95 799.989 1237.08 801.61 1236.22C805.931 1235.75 809.964 1235.46 813.133 1235.25C826.276 1234.35 839.347 1235.39 851.986 1238.35C856.163 1239.32 857.891 1240.94 857.855 1241.34C857.855 1241.66 856.775 1242.96 853.678 1244.18V1244.11ZM791.383 1226.53L789.727 1225.81C789.727 1225.81 789.763 1225.52 789.799 1225.41C789.835 1225.12 789.871 1224.91 789.907 1224.66C790.987 1223.14 792.104 1221.67 793.22 1220.26C792.716 1222.6 792.104 1224.73 791.347 1226.56L791.383 1226.53ZM782.561 1200.16C782.309 1204.84 781.661 1209.78 780.653 1215.43C779.861 1214.6 779.033 1213.81 778.276 1213.09C777.376 1212.23 776.584 1211.47 775.972 1210.82C774.243 1208.91 772.551 1207.18 770.895 1205.49C770.787 1204.98 770.679 1204.48 770.571 1204.01C768.338 1193.64 767.798 1183.01 768.77 1172.31C769.994 1171.16 770.679 1169.5 770.463 1167.7C770.355 1166.83 770.174 1165.93 770.066 1165.07C770.607 1163.88 771.255 1163.05 771.939 1162.94C771.975 1162.94 772.011 1162.94 772.083 1162.94C772.947 1162.94 774.171 1164.28 775.072 1165.68C780.797 1174.65 783.318 1186.22 782.561 1200.16ZM752.134 1202.79C755.051 1205.2 758.004 1207.9 761.064 1210.89C761.568 1213.16 762.217 1215.65 762.901 1218.17C760.74 1217.88 758.616 1217.59 756.563 1217.34C756.095 1217.27 755.627 1217.23 755.159 1217.16C751.918 1215.72 749.002 1214.32 746.625 1213.16C734.778 1207.43 723.94 1200.01 714.433 1191.19C711.301 1188.27 710.617 1186 710.797 1185.67C710.905 1185.49 711.769 1185.1 713.533 1185.1C714.181 1185.1 714.938 1185.13 715.838 1185.28C727.937 1187.04 740.143 1192.92 752.098 1202.75L752.134 1202.79ZM747.021 1227.43C750.01 1227.93 753.107 1228.58 756.347 1229.41C758.904 1230.46 761.496 1231.39 764.089 1232.22C759.696 1234.49 755.771 1236.65 752.17 1238.85C750.478 1238.99 748.857 1239.1 747.417 1239.21C734.274 1240.11 721.203 1239.07 708.564 1236.11C704.387 1235.14 702.659 1233.52 702.695 1233.12C702.695 1232.8 703.775 1231.5 706.872 1230.28C714.073 1227.43 722.139 1226.02 730.961 1226.02C736.075 1226.02 741.404 1226.49 747.021 1227.47V1227.43ZM773.919 1275.85C775 1272.07 776.404 1268.1 778.132 1263.82C778.636 1264.64 779.141 1265.44 779.717 1266.23C781.697 1268.9 783.966 1271.24 786.45 1273.4C786.45 1273.83 786.45 1274.3 786.45 1274.73C786.342 1286.4 784.254 1297.97 780.257 1309.14C779.141 1312.24 777.412 1314.65 776.08 1314.47C775.216 1314.43 774.243 1312.78 773.631 1311.12C770.03 1301.1 770.138 1289.25 773.955 1275.85H773.919ZM796.101 1001.98C804.634 986.738 818.498 977.659 837.294 975.101C851.842 973.084 873.122 975.461 885.221 988.863C896.276 1001.22 903.55 1018.58 906.862 1040.42L908.771 1053.06L916.513 1042.87C928.755 1026.76 949.244 1017.97 968.761 1020.46C988.241 1022.98 1005.81 1036.67 1013.56 1055.37C1022.92 1078.03 1017.48 1104.8 999.764 1123.53C982.156 1142.05 959.435 1158.8 932.14 1173.28C931.096 1173.86 930.052 1174.4 928.755 1175.01C916.333 1181.5 902.505 1187.76 886.41 1194.21C868.333 1201.49 849.681 1208.08 831.605 1214.46L831.425 1214.53C833.117 1212.84 834.666 1211.07 836.142 1209.31C836.97 1209.24 837.798 1208.98 838.518 1208.52C857.459 1196.16 874.455 1181.14 889.074 1163.84C891.019 1161.57 890.731 1158.15 888.426 1156.24C886.158 1154.3 882.737 1154.58 880.828 1156.89C871.07 1168.45 860.123 1178.9 848.277 1188.23C849.933 1181.68 847.701 1177.71 845.972 1175.8C845.36 1175.12 844.676 1174.58 843.956 1174.07C860.808 1153.04 874.527 1129.8 884.753 1104.83C885.869 1102.06 884.573 1098.92 881.801 1097.77C879.028 1096.65 875.895 1097.95 874.743 1100.72C863.832 1127.31 848.853 1151.85 830.236 1173.75C828.868 1174.33 827.464 1174.97 826.023 1175.84C825.195 1176.34 824.439 1176.92 823.647 1177.42C830.597 1163.77 834.738 1148.6 835.494 1133.36C835.638 1130.37 833.333 1127.85 830.381 1127.71C827.284 1127.53 824.871 1129.87 824.727 1132.82C823.791 1151.92 817.021 1170.9 805.607 1186.25C805.391 1186.5 805.247 1186.79 805.103 1187.08L804.995 1184.85C804.31 1166.72 803.518 1146.19 801.898 1126.05C800.35 1107.14 798.189 1090.42 795.272 1074.97C794.624 1071.58 793.94 1068.23 793.22 1064.95C792.932 1063.69 792.644 1062.5 792.356 1061.24C791.888 1059.22 791.419 1057.17 790.915 1055.19C790.555 1053.82 790.195 1052.49 789.835 1051.12C789.367 1049.32 788.899 1047.51 788.395 1045.78C787.999 1044.42 787.567 1043.08 787.17 1041.71C786.738 1040.24 786.306 1038.72 785.838 1037.28C787.747 1024.75 790.051 1012.64 796.029 1001.94L796.101 1001.98ZM567.375 1109.01C569.788 1094.49 578.394 1074.86 594.778 1067.29C609.865 1060.38 628.553 1058.54 650.411 1061.89L663.049 1063.8L655.632 1053.39C643.857 1036.89 641.552 1014.69 649.69 996.825C657.9 978.92 676.193 966.167 696.321 964.329C720.735 962.132 744.645 975.209 757.247 997.69C764.269 1010.23 770.319 1024.28 775.252 1039.41C778.997 1050.97 782.201 1063.62 784.722 1076.98C787.567 1092.08 789.691 1108.4 791.203 1126.95C792.824 1146.84 793.58 1167.27 794.264 1185.28L794.408 1188.52C794.588 1192.48 794.768 1197.1 794.768 1201.85C794.444 1202.21 794.084 1202.54 793.76 1202.9C793.544 1203.15 793.328 1203.4 793.112 1203.62C793.184 1202.64 793.292 1201.63 793.328 1200.66C794.228 1184.45 791.131 1170.69 784.146 1159.77C779.141 1151.92 773.163 1151.7 770.066 1152.24C769.346 1152.39 768.626 1152.57 767.942 1152.82C763.801 1133.44 756.383 1114.63 746.013 1097.81C744.464 1095.25 741.116 1094.49 738.595 1096.04C736.039 1097.59 735.246 1100.94 736.831 1103.46C748.137 1121.84 755.735 1142.7 759.012 1164.06C758.724 1165.21 758.472 1166.4 758.292 1167.66C758.04 1169.82 757.932 1171.95 757.788 1174.11C745.401 1148.89 730.133 1125.22 712.165 1103.57C710.256 1101.27 706.872 1100.94 704.567 1102.85C702.263 1104.76 701.939 1108.15 703.847 1110.45C723.076 1133.62 739.099 1159.09 751.738 1186.36C731.934 1171.8 710.869 1158.76 688.976 1147.6C686.311 1146.23 683.07 1147.31 681.702 1149.97C680.333 1152.64 681.414 1155.88 684.078 1157.25C694.377 1162.51 704.459 1168.2 714.325 1174.25C706.62 1174 703.127 1177.53 701.65 1179.84C698.158 1185.42 700.174 1192.59 707.088 1199C711.049 1202.68 715.298 1206.07 719.655 1209.27C708.168 1205.85 696.933 1201.71 686.095 1196.73C675.688 1191.98 667.046 1184.41 657.936 1176.38C651.311 1170.54 644.433 1164.53 636.655 1159.52C619.119 1148.24 601.691 1142.41 584.839 1142.19C584.443 1142.19 584.083 1142.19 583.687 1142.19C583.363 1142.19 583.003 1142.23 582.679 1142.23C581.382 1142.23 580.05 1142.3 578.754 1142.41C578.142 1142.44 577.53 1142.52 576.917 1142.55C575.189 1142.73 573.497 1142.98 571.804 1143.31H571.732C566.727 1133.22 565.215 1121.62 567.303 1108.83L567.375 1109.01ZM666.866 1362.89C626.573 1388.43 554.736 1410.95 521.933 1368.18C509.654 1352.15 506.593 1330.07 514.191 1311.95C521.825 1293.79 539.721 1280.42 559.777 1277.94L572.452 1276.35L562.478 1268.36C545.266 1254.56 533.887 1239.57 528.738 1223.79C523.841 1208.7 524.489 1187.12 535.292 1176.85C547.823 1164.92 558.985 1157.93 570.472 1154.94C571.624 1154.62 572.776 1154.37 573.929 1154.15C574.181 1154.12 574.397 1154.08 574.649 1154.04C575.585 1153.86 576.485 1153.72 577.421 1153.61C577.71 1153.58 578.034 1153.54 578.358 1153.5C579.186 1153.43 580.05 1153.32 580.914 1153.29C581.346 1153.29 581.742 1153.29 582.175 1153.25C583.039 1153.25 583.939 1153.18 584.803 1153.22C599.603 1153.43 615.122 1158.66 630.93 1168.81C637.988 1173.39 644.577 1179.15 650.915 1184.7C660.241 1192.88 669.855 1201.35 681.738 1206.75C691.064 1211 700.642 1214.68 710.437 1217.85C707.88 1218.53 705.395 1219.29 702.983 1220.22C693.693 1223.9 692.072 1229.59 691.964 1232.69C691.748 1238.27 695.565 1242.88 702.335 1245.44C688.003 1245.44 673.672 1243.21 659.917 1238.71C657.072 1237.77 654.047 1239.32 653.111 1242.16C652.175 1245.01 653.723 1248.04 656.568 1248.97C671.511 1253.84 687.067 1256.29 702.659 1256.29C709.716 1256.29 716.81 1255.71 723.832 1254.7C697.87 1268.07 669.243 1275.85 639.932 1277.33C636.943 1277.47 634.675 1280.03 634.819 1282.98C634.963 1285.86 637.339 1288.1 640.22 1288.1C640.328 1288.1 640.4 1288.1 640.508 1288.1C668.055 1286.69 694.989 1279.99 719.907 1268.57C717.926 1271.63 716.198 1274.77 714.758 1278.01C714.397 1278.84 714.145 1279.6 713.893 1280.35C707.052 1287.7 698.086 1292.89 688.255 1295.19C685.339 1295.88 683.538 1298.76 684.222 1301.68C684.799 1304.17 687.031 1305.86 689.48 1305.86C689.876 1305.86 690.308 1305.82 690.704 1305.71C699.598 1303.62 707.916 1299.55 715.046 1293.9C715.262 1294.15 715.442 1294.44 715.622 1294.62C717.854 1297.07 720.807 1298.29 724.228 1298.29C725.164 1298.29 726.172 1298.18 727.144 1298C717.89 1311.48 708.636 1324.95 699.382 1338.46C688.219 1348.12 677.597 1356.12 666.938 1362.85L666.866 1362.89ZM868.837 1529.76C851.265 1539.67 828.976 1539.53 812.052 1529.44C795.164 1519.31 784.506 1499.72 784.866 1479.47L785.118 1466.68L775.792 1475.43C762.253 1488.15 726.748 1515.17 689.912 1492.11C674.32 1482.39 663.554 1464.95 661.789 1446.58C660.529 1433.72 663.302 1419.63 670.107 1404.68C676.337 1390.95 685.051 1378.34 693.441 1366.17L696.645 1361.52C700.39 1356.08 704.135 1350.64 707.808 1345.2C721.599 1325.17 735.318 1305.14 749.074 1285.11C754.295 1281 759.264 1276.5 763.909 1271.67C763.801 1272.07 763.657 1272.5 763.513 1272.89C760.38 1283.85 759.48 1294.04 760.704 1303.34C759.3 1304.45 758.436 1306.25 758.652 1308.16C760.092 1320.99 755.339 1334.64 746.265 1343.83C744.176 1345.96 744.176 1349.38 746.301 1351.47C747.345 1352.51 748.713 1353.02 750.082 1353.02C751.45 1353.02 752.854 1352.48 753.935 1351.4C761.712 1343.54 766.754 1333.38 768.734 1322.61C771.183 1324.52 773.739 1325.1 775.468 1325.17C775.648 1325.17 775.864 1325.17 776.044 1325.17C782.201 1325.17 787.495 1320.56 790.303 1312.67C791.167 1310.25 791.888 1307.8 792.572 1305.35C801.07 1343.72 799.485 1384.72 787.747 1422.15C786.846 1425 788.431 1428.02 791.275 1428.92C791.816 1429.1 792.356 1429.18 792.896 1429.18C795.2 1429.18 797.325 1427.7 798.045 1425.39C809.82 1387.75 811.872 1346.6 804.13 1307.8C815.365 1324.02 823.107 1342.75 826.276 1362.2C826.708 1364.87 829.012 1366.74 831.605 1366.74C831.893 1366.74 832.181 1366.74 832.469 1366.67C835.422 1366.2 837.402 1363.39 836.934 1360.47C832.253 1331.98 818.642 1304.81 798.585 1284.03C798.045 1283.45 797.397 1283.05 796.713 1282.77C796.749 1282.33 796.749 1281.87 796.785 1281.43C797.613 1282.05 798.477 1282.66 799.341 1283.31C815.725 1295.59 830.921 1310.18 845.612 1324.3L850.041 1328.56C853.21 1332.91 855.91 1336.77 858.359 1340.37C869.126 1356.22 877.552 1370.96 884.105 1385.4C903.694 1428.92 915.756 1503.28 868.765 1529.69L868.837 1529.76ZM937.397 1391.78C952.449 1397.83 966.6 1400.86 980.175 1400.86C985.469 1400.86 990.69 1400.39 995.839 1399.49C1022.95 1394.63 1047.55 1375.28 1058.53 1350.21C1069.55 1324.95 1064.83 1295.41 1049.06 1280.78C1056.91 1276.14 1063.82 1268.79 1069.15 1259.31C1074.09 1352.69 1081.22 1445.96 1090.47 1539.02C1045.89 1483.22 994.615 1433.9 937.397 1391.82V1391.78ZM1138.43 1181.64C1115.46 1221.7 1096.77 1264.21 1082.76 1308.24C1081.18 1282.55 1079.81 1256.86 1078.55 1231.14C1079.92 1221.56 1079.52 1212.05 1077.25 1203.51C1074.48 1139.63 1072.68 1075.72 1071.92 1011.81C1077.51 1028.67 1091.08 1042.94 1107.72 1049.17C1115.14 1051.98 1123.34 1053.39 1132.24 1053.39C1137.32 1053.39 1142.57 1052.92 1148.08 1052.02C1157.01 1050.54 1165.76 1047.95 1174.04 1045.21C1173.54 1045.68 1173 1046.11 1172.5 1046.58C1145.17 1071.69 1102.39 1130.77 1135.98 1174.65C1137.35 1176.45 1138.83 1178.15 1140.41 1179.73C1139.62 1180.2 1138.9 1180.85 1138.43 1181.71V1181.64ZM1299.1 1198.21C1288.91 1204.44 1271.95 1200.37 1261.19 1193.38C1249.81 1185.96 1240.41 1173.79 1233.13 1157.21L1228.02 1145.47L1223.2 1157.32C1217 1172.53 1202.78 1183.73 1186.97 1185.89C1171.16 1188.02 1154.49 1180.99 1144.55 1167.99C1117.8 1133.04 1151 1080.95 1179.81 1054.47C1187.44 1047.44 1196.05 1040.71 1206.06 1033.93C1218.16 1029.65 1230.22 1025.39 1242.32 1021.11C1241.34 1024.21 1241.63 1027.27 1243.29 1029.9C1237.46 1034.36 1232.59 1040.06 1229.1 1046.61C1227.7 1049.24 1228.67 1052.52 1231.3 1053.93C1232.13 1054.36 1232.99 1054.58 1233.85 1054.58C1235.8 1054.58 1237.64 1053.53 1238.61 1051.73C1242.42 1044.56 1248.33 1038.69 1255.46 1034.87C1256.07 1034.83 1256.65 1034.83 1257.33 1034.72C1259.35 1034.4 1261.37 1033.93 1263.38 1033.39C1249.7 1050.43 1239.08 1069.85 1232.31 1090.75C1231.37 1093.59 1232.95 1096.62 1235.76 1097.55C1236.3 1097.73 1236.88 1097.81 1237.42 1097.81C1239.69 1097.81 1241.81 1096.37 1242.57 1094.06C1249.45 1072.84 1260.46 1053.24 1274.8 1036.35C1268.78 1052.34 1266.08 1069.45 1266.98 1086.6C1267.13 1089.48 1269.5 1091.72 1272.38 1091.72C1272.49 1091.72 1272.56 1091.72 1272.67 1091.72C1275.66 1091.57 1277.93 1089.02 1277.78 1086.03C1277.24 1075.51 1278.18 1065.02 1280.49 1054.83C1281.82 1059.01 1284.52 1061.78 1288.37 1062.65C1288.98 1062.79 1289.7 1062.9 1290.57 1062.9C1293.48 1062.9 1297.59 1061.64 1301.66 1056.16C1302.34 1055.22 1302.99 1054.21 1303.64 1053.24C1304.11 1060.77 1304.97 1068.27 1306.2 1075.65C1308 1086.42 1312.71 1096.01 1317.29 1105.3C1320.49 1111.82 1323.52 1118.02 1325.64 1124.57C1326.22 1126.41 1326.76 1128.21 1327.22 1130.01C1330 1140.75 1330.65 1150.73 1329.13 1159.84C1328.88 1161.36 1328.56 1162.83 1328.2 1164.31C1327.22 1168.2 1325.82 1171.73 1323.8 1175.16C1319.01 1183.51 1311.16 1190.83 1299.07 1198.21H1299.1ZM1503.05 1115.53C1497.36 1130.91 1483.54 1142.59 1467.8 1145.25C1452.1 1147.88 1435.18 1141.4 1424.74 1128.68L1416.63 1118.81L1415.23 1131.53C1413.21 1149.5 1407.81 1163.92 1399.17 1174.33C1389.84 1185.53 1372.63 1188.12 1360.78 1186.94C1350.56 1185.89 1341.99 1182.43 1335.22 1176.67C1335.33 1176.45 1335.4 1176.2 1335.51 1175.98C1336.01 1174.87 1336.48 1173.75 1336.91 1172.6C1337.05 1172.17 1337.23 1171.77 1337.38 1171.34C1337.85 1169.97 1338.28 1168.56 1338.64 1167.12C1338.64 1167.05 1338.68 1166.98 1338.71 1166.91C1342.2 1153.22 1341.27 1137.83 1335.97 1121.22C1333.63 1113.91 1330.29 1107.07 1327.01 1100.47C1322.62 1091.5 1318.44 1083.04 1316.89 1073.81C1315.56 1065.89 1314.73 1057.85 1314.3 1049.78C1315.41 1052.27 1316.57 1054.76 1317.83 1057.13C1321.03 1063.19 1325.46 1066.5 1330.11 1066.5C1331.08 1066.5 1332.09 1066.36 1333.09 1066.03C1335.07 1065.42 1338.1 1063.8 1339.94 1059.44C1342.28 1067.65 1344.44 1075.94 1346.2 1084.26C1346.74 1086.82 1348.97 1088.55 1351.49 1088.55C1351.53 1088.55 1351.57 1088.55 1351.64 1088.55C1349.98 1089.74 1349.01 1091.79 1349.41 1093.95L1350.95 1102.38C1351.42 1104.98 1353.69 1106.81 1356.25 1106.81C1356.57 1106.81 1356.9 1106.81 1357.22 1106.74C1360.14 1106.2 1362.12 1103.39 1361.58 1100.47L1360.03 1092.01C1359.56 1089.34 1357.22 1087.54 1354.59 1087.58C1356.32 1086.39 1357.26 1084.22 1356.79 1082.03C1352.83 1063.26 1347.32 1044.74 1340.55 1026.8C1358.44 1042.15 1374.36 1059.55 1388.01 1078.86C1389.05 1080.33 1390.74 1081.13 1392.44 1081.13C1393.52 1081.13 1394.6 1080.8 1395.57 1080.12C1398.02 1078.39 1398.59 1075.04 1396.86 1072.59C1384.01 1054.43 1369.25 1037.82 1352.72 1023.02C1353.37 1023.12 1354.01 1023.27 1354.66 1023.38C1355.71 1023.52 1356.68 1023.59 1357.65 1023.59C1373.82 1030.76 1388.69 1041.21 1400.83 1054.07C1401.87 1055.19 1403.31 1055.76 1404.75 1055.76C1406.08 1055.76 1407.42 1055.26 1408.46 1054.29C1410.62 1052.23 1410.73 1048.81 1408.68 1046.65C1397.62 1034.9 1384.41 1025.03 1370.07 1017.58C1370.22 1017.32 1370.4 1017.07 1370.51 1016.78C1372.56 1012.39 1371.41 1007.31 1367.37 1002.88C1363.66 998.807 1359.16 995.384 1353.87 992.646C1366.62 996.609 1380.52 1001 1394.09 1005.87C1408.53 1011.06 1421.1 1016.24 1432.51 1021.76C1435.03 1022.98 1437.52 1024.21 1439.93 1025.47C1447.24 1029.25 1454.08 1033.25 1460.38 1037.32C1471.37 1044.49 1481.23 1052.31 1489.69 1060.56C1504.67 1075.22 1509.93 1096.76 1503.02 1115.46L1503.05 1115.53ZM1524.77 1000.39C1518.79 1014.62 1508.78 1023.59 1495.06 1027.05C1485.45 1029.46 1475.44 1028.74 1465.17 1027.63C1464.16 1026.98 1463.12 1026.37 1462.11 1025.72C1461.07 1025.07 1460.1 1024.46 1459.02 1023.81C1457.75 1023.05 1456.42 1022.3 1455.13 1021.54C1454.08 1020.96 1453.11 1020.35 1452.03 1019.77C1450.52 1018.91 1448.93 1018.08 1447.38 1017.25C1446.52 1016.78 1445.66 1016.32 1444.76 1015.85C1442.27 1014.55 1439.75 1013.29 1437.16 1012.03C1425.38 1006.37 1412.49 1001.04 1397.66 995.708C1382.17 990.196 1366.37 985.261 1352.32 980.901C1366.4 975.786 1382.03 974.633 1396.68 977.803C1399.64 978.452 1402.48 976.578 1403.09 973.66C1403.74 970.742 1401.87 967.86 1398.95 967.247C1387.54 964.762 1375.58 964.618 1364.03 966.635C1364.75 965.915 1365.39 965.158 1365.97 964.438C1387.29 954.314 1409.97 947.685 1433.38 944.695C1436.33 944.335 1438.42 941.597 1438.06 938.643C1437.7 935.688 1434.96 933.599 1432.01 933.959C1410.08 936.769 1388.76 942.606 1368.49 951.396C1368.31 950.964 1368.13 950.567 1367.84 950.135C1366.76 948.478 1364.49 946.136 1360.17 945.416C1369.53 938.571 1379.54 932.626 1390.06 927.655C1392.76 926.394 1393.91 923.151 1392.65 920.449C1391.39 917.747 1388.15 916.595 1385.45 917.855C1368.42 925.853 1352.68 936.301 1338.68 948.838C1338.1 949.343 1337.67 949.955 1337.38 950.603C1336.87 950.856 1336.37 951.072 1335.87 951.324C1344.18 939.183 1352.79 926.754 1361.72 914.901C1368.13 906.327 1374.22 898.726 1380.23 891.808C1382.21 889.539 1384.15 887.341 1386.1 885.252V885.18C1386.1 885.18 1386.21 885.108 1386.24 885.072C1386.85 884.351 1387.5 883.63 1388.22 882.874C1405.54 864.284 1423.73 849.766 1442.24 839.714C1460.67 829.735 1482.82 831.104 1498.62 843.245C1511.62 853.224 1518.65 869.905 1516.52 885.684C1514.36 901.5 1503.16 915.73 1487.97 921.926L1476.12 926.754L1487.82 931.87C1504.39 939.147 1516.56 948.586 1523.94 959.898C1531.86 972.147 1529.23 989.332 1524.59 1000.32L1524.77 1000.39Z" fill="#0A0A0A"/>
<path d="M1410.22 908.345L1400.39 911.227C1397.55 912.056 1395.89 915.082 1396.76 917.928C1397.44 920.27 1399.6 921.819 1401.94 921.819C1402.45 921.819 1402.95 921.747 1403.45 921.603L1413.28 918.72C1416.13 917.892 1417.79 914.866 1416.92 912.02C1416.09 909.174 1413.07 907.516 1410.22 908.381V908.345Z" fill="#0A0A0A"/>
<path d="M1457.07 934.824C1453.51 933.707 1449.69 933.527 1446.02 934.283C1443.1 934.86 1441.19 937.706 1441.81 940.66C1442.38 943.578 1445.26 945.488 1448.18 944.911C1450.09 944.515 1452.07 944.623 1453.94 945.199C1454.48 945.38 1455.02 945.452 1455.52 945.452C1457.83 945.452 1459.95 943.975 1460.67 941.633C1461.54 938.787 1459.95 935.761 1457.11 934.896L1457.07 934.824Z" fill="#0A0A0A"/>
<path d="M1427.04 974.453L1419.91 971.859C1417.11 970.85 1414.01 972.291 1413 975.066C1411.96 977.876 1413.43 980.974 1416.21 981.983L1423.33 984.576C1423.95 984.793 1424.56 984.901 1425.21 984.901C1427.4 984.901 1429.49 983.532 1430.28 981.37C1431.33 978.56 1429.85 975.462 1427.08 974.453H1427.04Z" fill="#0A0A0A"/>
<path d="M1421.13 1054.94C1419.33 1052.56 1415.95 1052.09 1413.57 1053.93C1411.2 1055.73 1410.73 1059.12 1412.53 1061.49L1417.64 1068.19C1418.69 1069.6 1420.31 1070.32 1421.93 1070.32C1423.08 1070.32 1424.23 1069.96 1425.2 1069.2C1427.58 1067.4 1428.05 1064.01 1426.25 1061.64L1421.13 1054.94Z" fill="#0A0A0A"/>
<path d="M1407.2 1086.6C1405.65 1084.04 1402.34 1083.22 1399.78 1084.77C1397.23 1086.31 1396.4 1089.63 1397.95 1092.19L1402.52 1099.79C1403.53 1101.48 1405.33 1102.38 1407.17 1102.38C1408.1 1102.38 1409.08 1102.13 1409.94 1101.59C1412.5 1100.04 1413.32 1096.73 1411.78 1094.17L1407.2 1086.57V1086.6Z" fill="#0A0A0A"/>
<path d="M1277.82 1098.49C1277.93 1095.5 1275.59 1093.01 1272.64 1092.87C1269.58 1092.8 1267.16 1095.1 1267.02 1098.06C1266.84 1102.6 1267.52 1107.07 1269 1111.39C1269.76 1113.62 1271.85 1115.03 1274.11 1115.03C1274.69 1115.03 1275.3 1114.92 1275.88 1114.74C1278.69 1113.77 1280.2 1110.7 1279.23 1107.86C1278.18 1104.87 1277.71 1101.63 1277.82 1098.45V1098.49Z" fill="#0A0A0A"/>
<path d="M1235.66 1101.41C1232.74 1100.73 1229.86 1102.53 1229.18 1105.44L1227.2 1113.91C1226.51 1116.83 1228.31 1119.71 1231.23 1120.4C1231.62 1120.5 1232.06 1120.54 1232.45 1120.54C1234.9 1120.54 1237.13 1118.85 1237.71 1116.36L1239.69 1107.89C1240.37 1104.98 1238.57 1102.09 1235.66 1101.41Z" fill="#0A0A0A"/>
<path d="M1228.85 1052.77C1226.3 1051.23 1222.98 1052.05 1221.43 1054.61L1215.6 1064.3C1214.05 1066.86 1214.88 1070.17 1217.44 1071.72C1218.3 1072.26 1219.27 1072.52 1220.21 1072.52C1222.05 1072.52 1223.81 1071.58 1224.86 1069.89L1230.69 1060.2C1232.24 1057.64 1231.41 1054.32 1228.85 1052.77Z" fill="#0A0A0A"/>
<path d="M1309.94 817.847C1310.56 818.063 1311.2 818.207 1311.85 818.207C1314.05 818.207 1316.1 816.874 1316.89 814.713L1321.14 803.365C1322.19 800.555 1320.78 797.456 1317.97 796.411C1315.2 795.367 1312.07 796.772 1311.02 799.582L1306.77 810.93C1305.73 813.74 1307.13 816.838 1309.94 817.883V817.847Z" fill="#0A0A0A"/>
<path d="M1344.62 874.516C1345.55 875.165 1346.63 875.489 1347.71 875.489C1349.41 875.489 1351.1 874.696 1352.14 873.183L1355.1 868.968C1356.82 866.518 1356.21 863.168 1353.76 861.439C1351.31 859.746 1347.97 860.322 1346.24 862.772L1343.29 866.987C1341.56 869.437 1342.17 872.787 1344.62 874.516Z" fill="#0A0A0A"/>
<path d="M1264.29 855.963C1264.79 858.557 1267.06 860.322 1269.58 860.322C1269.94 860.322 1270.26 860.322 1270.62 860.214C1273.54 859.638 1275.45 856.792 1274.87 853.873L1273.32 845.876C1272.75 842.958 1269.9 841.048 1266.99 841.589C1264.07 842.165 1262.16 845.011 1262.7 847.929L1264.29 855.963Z" fill="#0A0A0A"/>
<path d="M1185.86 911.479C1187.66 911.479 1189.53 911.875 1191.15 912.776C1191.98 913.208 1192.84 913.424 1193.74 913.424C1195.65 913.424 1197.52 912.415 1198.5 910.614C1199.94 907.984 1198.96 904.706 1196.34 903.265C1193.1 901.499 1189.39 900.563 1185.68 900.635C1182.69 900.707 1180.31 903.157 1180.38 906.147C1180.46 909.137 1182.94 911.659 1185.89 911.443L1185.86 911.479Z" fill="#0A0A0A"/>
<path d="M1187.12 1007.2C1188.06 1007.2 1189.03 1006.95 1189.89 1006.44L1197.02 1002.19C1199.58 1000.64 1200.41 997.329 1198.89 994.771C1197.35 992.213 1194.03 991.385 1191.48 992.898L1184.35 997.149C1181.79 998.698 1180.96 1002.01 1182.47 1004.57C1183.48 1006.26 1185.28 1007.2 1187.12 1007.2Z" fill="#0A0A0A"/>
<path d="M894.189 1150.66C895.053 1151.2 896.025 1151.45 896.997 1151.45C898.798 1151.45 900.598 1150.55 901.606 1148.86L908.052 1138.3C909.6 1135.74 908.808 1132.43 906.251 1130.88C903.731 1129.33 900.382 1130.12 898.834 1132.68L892.388 1143.24C890.84 1145.79 891.632 1149.11 894.189 1150.66Z" fill="#0A0A0A"/>
<path d="M881.803 1090.96C882.56 1091.36 883.388 1091.54 884.216 1091.54C886.196 1091.54 888.105 1090.42 889.041 1088.55C890.986 1084.66 891.886 1080.33 891.742 1076.01C891.634 1073.02 889.041 1070.71 886.16 1070.79C883.172 1070.89 880.867 1073.42 880.939 1076.37C881.047 1078.89 880.471 1081.45 879.355 1083.72C878.023 1086.39 879.103 1089.63 881.803 1090.96Z" fill="#0A0A0A"/>
<path d="M831.499 1113.66C831.499 1113.66 831.823 1113.66 831.967 1113.66C834.955 1113.41 837.152 1110.78 836.864 1107.79L836.072 1098.64C835.82 1095.65 833.191 1093.48 830.202 1093.74C827.214 1093.99 825.053 1096.62 825.305 1099.61L826.097 1108.72C826.349 1111.53 828.69 1113.66 831.463 1113.66H831.499Z" fill="#0A0A0A"/>
<path d="M732.042 1087.5C733.122 1088.87 734.706 1089.59 736.327 1089.59C737.479 1089.59 738.631 1089.23 739.64 1088.48C742.016 1086.64 742.448 1083.25 740.612 1080.91L734.382 1072.84C732.546 1070.46 729.161 1070.03 726.821 1071.87C724.444 1073.71 724.012 1077.09 725.848 1079.43L732.078 1087.5H732.042Z" fill="#0A0A0A"/>
<path d="M664.382 1146.19L673.744 1150.62C674.501 1150.98 675.293 1151.13 676.049 1151.13C678.065 1151.13 680.01 1149.97 680.946 1148.03C682.206 1145.33 681.054 1142.12 678.39 1140.82L669.027 1136.39C666.327 1135.09 663.122 1136.25 661.826 1138.95C660.565 1141.65 661.682 1144.86 664.382 1146.15V1146.19Z" fill="#0A0A0A"/>
<path d="M691.643 1094.82C692.723 1095.93 694.128 1096.47 695.532 1096.47C696.936 1096.47 698.233 1095.97 699.277 1094.96C701.438 1092.91 701.51 1089.48 699.421 1087.32L692.003 1079.58C689.915 1077.42 686.53 1077.34 684.37 1079.43C682.209 1081.49 682.137 1084.91 684.226 1087.07L691.643 1094.82Z" fill="#0A0A0A"/>
<path d="M644.364 1245.59C646.813 1245.59 649.045 1243.89 649.621 1241.37C650.306 1238.45 648.469 1235.57 645.552 1234.89C641.7 1233.99 637.919 1232.36 634.642 1230.13C632.157 1228.47 628.809 1229.12 627.152 1231.57C625.496 1234.06 626.144 1237.41 628.593 1239.07C633.022 1242.06 637.919 1244.18 643.14 1245.37C643.536 1245.48 643.968 1245.51 644.364 1245.51V1245.59Z" fill="#0A0A0A"/>
<path d="M622.829 1276.53L612.351 1276.17C609.47 1276.07 606.877 1278.41 606.769 1281.4C606.661 1284.39 609.002 1286.87 611.99 1286.98L622.469 1287.34C622.469 1287.34 622.577 1287.34 622.649 1287.34C625.566 1287.34 627.942 1285.04 628.05 1282.12C628.158 1279.13 625.818 1276.64 622.829 1276.53Z" fill="#0A0A0A"/>
<path d="M675.979 1301.93L662.836 1305.71C659.956 1306.54 658.299 1309.53 659.127 1312.42C659.812 1314.79 661.972 1316.34 664.313 1316.34C664.817 1316.34 665.321 1316.27 665.789 1316.13L678.932 1312.34C681.813 1311.52 683.469 1308.53 682.641 1305.64C681.813 1302.76 678.788 1301.1 675.943 1301.93H675.979Z" fill="#0A0A0A"/>
<path d="M989.613 1289.11C989.613 1289.11 989.973 1289.11 990.153 1289.11L1004.74 1287.7C1007.73 1287.41 1009.89 1284.78 1009.6 1281.79C1009.31 1278.84 1006.68 1276.64 1003.69 1276.93L989.109 1278.33C986.157 1278.62 983.96 1281.25 984.248 1284.24C984.5 1287.05 986.877 1289.14 989.613 1289.14V1289.11Z" fill="#0A0A0A"/>
<path d="M929.01 1225.7C929.802 1227.9 931.891 1229.27 934.087 1229.27C934.699 1229.27 935.311 1229.16 935.923 1228.94L941.757 1226.82C944.565 1225.81 946.006 1222.67 944.962 1219.9C943.917 1217.09 940.821 1215.65 938.048 1216.69L932.215 1218.82C929.406 1219.83 927.966 1222.93 928.974 1225.74L929.01 1225.7Z" fill="#0A0A0A"/>
<path d="M938.479 1319.33L929.62 1314.97C926.956 1313.64 923.715 1314.76 922.383 1317.46C921.05 1320.12 922.167 1323.37 924.867 1324.7L933.725 1329.06C934.482 1329.42 935.31 1329.6 936.102 1329.6C938.082 1329.6 940.027 1328.48 940.963 1326.57C942.295 1323.91 941.179 1320.67 938.479 1319.33Z" fill="#0A0A0A"/>
<path d="M840.249 1386.49C837.368 1387.17 835.568 1390.09 836.252 1393.01C836.828 1395.35 836.756 1397.83 836.108 1400.14C835.28 1403.02 836.936 1406.01 839.817 1406.84C840.321 1406.98 840.825 1407.06 841.329 1407.06C843.67 1407.06 845.83 1405.51 846.514 1403.17C847.703 1399.02 847.811 1394.66 846.802 1390.48C846.082 1387.6 843.201 1385.8 840.285 1386.49H840.249Z" fill="#0A0A0A"/>
<path d="M733.557 1359.21L726.356 1366.2C724.195 1368.29 724.159 1371.71 726.212 1373.84C727.256 1374.92 728.696 1375.5 730.101 1375.5C731.505 1375.5 732.801 1374.99 733.845 1373.98L741.047 1367C743.208 1364.91 743.244 1361.48 741.191 1359.36C739.103 1357.2 735.682 1357.16 733.557 1359.25V1359.21Z" fill="#0A0A0A"/>
<path d="M1331.65 320.432C1331.19 323.386 1333.17 326.16 1336.12 326.629L1350.38 328.971C1350.67 329.007 1350.95 329.043 1351.28 329.043C1353.87 329.043 1356.18 327.169 1356.61 324.503C1357.08 321.549 1355.1 318.775 1352.14 318.307L1337.88 315.965C1334.97 315.461 1332.16 317.478 1331.69 320.432H1331.65Z" fill="#0A0A0A"/>
<path d="M1378.86 383.73C1381.89 384.523 1384.7 386.036 1386.96 388.161C1388.01 389.134 1389.34 389.603 1390.64 389.603C1392.08 389.603 1393.52 389.026 1394.6 387.873C1396.61 385.676 1396.51 382.253 1394.31 380.236C1390.71 376.885 1386.28 374.471 1381.53 373.247C1378.65 372.49 1375.69 374.255 1374.94 377.137C1374.18 380.02 1375.95 382.974 1378.83 383.73H1378.86Z" fill="#0A0A0A"/>
<path d="M1324.24 404.409C1322.15 402.248 1318.73 402.212 1316.6 404.301C1314.48 406.391 1314.41 409.813 1316.5 411.939L1323.95 419.649C1324.99 420.729 1326.43 421.306 1327.84 421.306C1329.24 421.306 1330.54 420.801 1331.58 419.793C1333.74 417.703 1333.78 414.281 1331.73 412.155L1324.27 404.445L1324.24 404.409Z" fill="#0A0A0A"/>
<path d="M1274.15 509.714C1273.54 506.796 1270.69 504.922 1267.78 505.499C1264.86 506.111 1262.99 508.957 1263.57 511.875L1265.94 523.512C1266.45 526.07 1268.71 527.835 1271.23 527.835C1271.59 527.835 1271.95 527.799 1272.32 527.727C1275.23 527.114 1277.14 524.268 1276.53 521.35L1274.15 509.714Z" fill="#0A0A0A"/>
<path d="M1169.83 511.84C1166.95 511.047 1163.96 512.74 1163.17 515.587L1159.93 527.259C1159.14 530.141 1160.83 533.095 1163.67 533.924C1164.14 534.068 1164.65 534.14 1165.11 534.14C1167.49 534.14 1169.65 532.591 1170.3 530.177L1173.54 518.505C1174.33 515.623 1172.64 512.668 1169.8 511.84H1169.83Z" fill="#0A0A0A"/>
<path d="M1231.08 536.266C1228.09 536.554 1225.93 539.184 1226.22 542.138L1227.37 554.639C1227.63 557.449 1230 559.539 1232.74 559.539C1232.92 559.539 1233.06 559.539 1233.24 559.539C1236.23 559.25 1238.39 556.62 1238.1 553.666L1236.95 541.165C1236.66 538.175 1233.96 536.013 1231.08 536.302V536.266Z" fill="#0A0A0A"/>
<path d="M1063.14 468.175C1060.51 466.77 1057.24 467.779 1055.83 470.409C1052.95 475.849 1051.12 481.685 1050.4 487.774C1050.04 490.728 1052.16 493.43 1055.11 493.79C1055.33 493.79 1055.54 493.826 1055.76 493.826C1058.46 493.826 1060.8 491.809 1061.13 489.071C1061.7 484.351 1063.14 479.668 1065.37 475.453C1066.78 472.823 1065.77 469.544 1063.14 468.139V468.175Z" fill="#0A0A0A"/>
<path d="M1010.53 456.035C1008.19 454.161 1004.81 454.521 1002.93 456.827L995.227 466.374C993.355 468.68 993.715 472.102 996.02 473.976C997.028 474.768 998.216 475.165 999.404 475.165C1000.99 475.165 1002.54 474.48 1003.62 473.147L1011.32 463.6C1013.2 461.294 1012.84 457.872 1010.53 455.999V456.035Z" fill="#0A0A0A"/>
<path d="M1029.72 396.988C1032.21 395.367 1032.93 392.016 1031.31 389.494C1029.69 387.009 1026.34 386.288 1023.82 387.909L1010.42 396.664C1007.94 398.285 1007.22 401.635 1008.84 404.157C1009.88 405.742 1011.61 406.607 1013.38 406.607C1014.38 406.607 1015.43 406.319 1016.33 405.742L1029.72 396.988Z" fill="#0A0A0A"/>
<path d="M1286.11 139.544C1287.44 139.544 1288.81 139.039 1289.85 138.067L1302.24 126.25C1304.4 124.197 1304.47 120.774 1302.42 118.613C1300.37 116.451 1296.95 116.379 1294.78 118.432L1282.4 130.249C1280.24 132.303 1280.17 135.725 1282.22 137.887C1283.3 139.003 1284.7 139.544 1286.11 139.544Z" fill="#0A0A0A"/>
<path d="M1300.25 220.783L1293.92 224.314C1291.32 225.755 1290.39 229.069 1291.83 231.663C1292.8 233.429 1294.67 234.437 1296.55 234.437C1297.45 234.437 1298.35 234.221 1299.17 233.753L1305.51 230.222C1308.1 228.781 1309.04 225.467 1307.6 222.873C1306.16 220.279 1302.85 219.306 1300.25 220.783Z" fill="#0A0A0A"/>
<path d="M1205.09 166.924C1205.55 167.032 1206.02 167.104 1206.45 167.104C1208.87 167.104 1211.03 165.483 1211.67 163.069L1214.59 151.901C1215.35 149.019 1213.62 146.065 1210.74 145.308C1207.86 144.552 1204.91 146.281 1204.15 149.163L1201.23 160.331C1200.48 163.213 1202.2 166.167 1205.09 166.924Z" fill="#0A0A0A"/>
<path d="M1066.17 180.145C1068.87 181.406 1071.21 183.352 1072.97 185.766C1074.02 187.243 1075.67 188.035 1077.37 188.035C1078.45 188.035 1079.56 187.711 1080.5 187.026C1082.91 185.297 1083.49 181.911 1081.76 179.497C1078.91 175.534 1075.1 172.364 1070.7 170.346C1068 169.085 1064.8 170.274 1063.54 172.976C1062.28 175.678 1063.47 178.885 1066.2 180.145H1066.17Z" fill="#0A0A0A"/>
<path d="M1011.33 303.212C1011.33 303.212 1011.65 303.212 1011.83 303.212L1023.5 302.167C1026.49 301.915 1028.65 299.285 1028.39 296.295C1028.14 293.304 1025.51 291.143 1022.52 291.395L1010.86 292.44C1007.91 292.692 1005.71 295.322 1005.96 298.312C1006.21 301.122 1008.55 303.248 1011.33 303.248V303.212Z" fill="#0A0A0A"/>
<path d="M650.7 720.972C651.708 721.837 652.968 722.269 654.228 722.269C655.741 722.269 657.253 721.62 658.333 720.395C660.278 718.126 660.026 714.703 657.757 712.758C647.567 704.004 638.961 693.015 632.947 680.983C631.615 678.317 628.338 677.236 625.71 678.569C623.045 679.902 621.965 683.144 623.297 685.81C629.959 699.104 639.465 711.245 650.736 720.9L650.7 720.972Z" fill="#0A0A0A"/>
<path d="M610.012 796.195L622.29 805.058C623.263 805.742 624.343 806.067 625.459 806.067C627.152 806.067 628.772 805.274 629.852 803.833C631.581 801.419 631.04 798.033 628.628 796.303L616.349 787.441C613.936 785.712 610.552 786.252 608.823 788.666C607.095 791.08 607.635 794.466 610.048 796.195H610.012Z" fill="#0A0A0A"/>
<path d="M701.507 605.184C701.759 607.994 704.1 610.12 706.873 610.12C707.017 610.12 707.197 610.12 707.377 610.12C710.365 609.867 712.526 607.237 712.274 604.247C711.266 593.115 706.512 582.523 698.879 574.381C696.826 572.22 693.405 572.112 691.245 574.165C689.084 576.219 688.976 579.641 691.029 581.803C697.042 588.18 700.751 596.502 701.543 605.22L701.507 605.184Z" fill="#0A0A0A"/>
<path d="M824.118 610.876C823.074 613.65 824.478 616.784 827.251 617.829C827.863 618.081 828.511 618.189 829.159 618.189C831.356 618.189 833.408 616.856 834.201 614.695C836.757 607.886 836.721 600.068 834.056 593.295C832.976 590.521 829.808 589.152 827.071 590.233C824.298 591.314 822.93 594.448 824.01 597.258C825.703 601.581 825.739 606.553 824.118 610.876Z" fill="#0A0A0A"/>
<path d="M562.121 862.951L549.806 864.32C546.853 864.644 544.692 867.31 545.017 870.265C545.305 873.039 547.645 875.092 550.382 875.092C550.562 875.092 550.778 875.092 550.994 875.092L563.309 873.723C566.262 873.399 568.422 870.733 568.098 867.779C567.774 864.825 565.109 862.663 562.121 862.987V862.951Z" fill="#0A0A0A"/>
</g>
<defs>
<clipPath id="clip0_157_183">
<rect width="1080" height="1963" fill="white" transform="translate(460 19)"/>
</clipPath>
</defs>
</svg>
