<svg width="2000" height="2000" viewBox="0 0 2000 2000" fill="none" xmlns="http://www.w3.org/2000/svg">
<g clip-path="url(#clip0_157_184)">
<path d="M1626.28 753.998C1609.9 727.916 1590.66 702.305 1560.98 691.583C1535.48 682.382 1503.16 684.99 1470 698.973C1447.54 708.464 1427.29 721.722 1410.4 733.495L1408.12 735.089C1398.48 741.754 1390.18 747.586 1388.59 756.28C1279.82 791.78 1183.73 850.066 1104.49 929.036C1127.68 892.992 1150.61 859.05 1172.39 827.534L1173.55 825.868C1205.87 779.065 1239.31 730.669 1245.65 673.869C1245.65 673.579 1245.65 673.289 1245.65 673C1247.46 672.42 1249.2 671.804 1250.87 671.116C1262.21 676.332 1274.74 679.375 1287.32 679.882C1289.02 679.955 1290.69 679.991 1292.35 679.991C1323.19 679.991 1352.32 668.29 1377.39 657.169C1415.33 640.361 1457.5 618.228 1482.83 581.568C1498.19 559.326 1506.16 533.824 1513.88 509.191C1521.96 483.436 1530.01 457.716 1538.09 431.996C1539.14 428.628 1540.48 424.172 1541.56 419.39C1542.54 415.116 1543.12 411.348 1543.41 407.798C1545.73 404.828 1547.98 401.857 1550.19 398.851C1565.33 378.166 1580.73 353.28 1580.15 325.677C1579.72 306.297 1571.53 286.445 1555.08 265C1540.59 246.164 1525.73 233.92 1509.61 227.617C1508.59 227.218 1507.61 226.928 1506.64 226.602C1506.06 222.219 1505.55 217.836 1505.08 213.453C1504.28 206.425 1503.48 199.18 1502.36 192.044C1499.42 173.171 1493.41 145.712 1474.86 125.608C1461.42 110.973 1443.19 102.025 1425.51 94.5631C1393.15 80.8701 1359.06 70.2563 1326.01 60.0047C1305.43 53.6292 1282.17 46.4204 1258.58 47.2174C1235.83 47.9781 1213.91 56.2373 1195.47 64.2068C1176.48 72.3936 1154.85 83.0074 1138.26 99.5621C1133.4 104.38 1129.16 109.705 1125.54 115.356C1122.35 114.994 1118.98 115.139 1115.75 115.936C1108.51 117.711 1102.35 121.949 1097.2 125.753C1043.94 164.875 1005.72 223.813 992.345 287.46C987.454 310.716 985.787 334.769 987.454 358.967C990.171 398.67 997.164 428.338 1008.79 449.602C1003.87 474.886 1007.74 503.939 1020.46 535.998C1033.51 568.998 1052.2 597.761 1075.21 620.655L1072.2 624.458C1058.04 642.498 1034.19 651.011 1017.49 655.865C1011.95 657.459 1006.37 658.944 1000.79 660.393C984.555 664.632 967.743 669.015 952.38 677.02C919.082 694.372 892.705 729.764 880.023 774.103C875.095 791.346 871.835 810.617 870.059 833.113C869.914 835.105 869.443 838.438 868.936 842.241C866.001 863.976 864.081 882.596 869.914 890.384C854.515 925.015 844.587 960.479 840.348 996.341C815.456 930.557 778.97 862.563 727.736 788.52C733.896 785.695 739.91 782.543 745.744 778.921C775.817 760.229 800.746 731.647 817.847 696.22C830.239 670.536 835.203 646.809 832.739 625.581C843.609 608.628 851.146 584.539 855.747 552.009C858.573 532.085 858.646 512.053 856.001 492.528C848.754 439.024 820.674 387.947 778.97 352.374C774.875 348.861 769.984 344.948 763.897 342.992C761.397 342.195 758.752 341.833 756.143 341.869C753.534 337.124 750.382 332.596 746.758 328.43C733.968 313.686 716.685 303.58 701.467 295.647C686.648 287.931 669.003 279.78 650.125 277.752C630.632 275.65 610.885 280.251 593.457 284.272C565.63 290.756 536.861 297.458 509.288 306.804C494.179 311.948 478.49 318.287 466.388 329.662C449.721 345.311 443.018 367.734 439.467 383.238C438.126 389.07 437.003 395.047 435.916 400.807C435.3 404.176 434.612 407.581 433.923 410.95C433.271 411.131 432.619 411.276 431.967 411.457C418.126 415.732 405.01 425.005 391.821 439.821C376.82 456.593 368.813 472.641 367.255 488.797C365.081 511.763 376.386 533.389 387.69 551.502C389.285 554.038 390.915 556.573 392.582 559.073C392.654 562.007 392.908 565.086 393.415 568.6C393.886 571.751 394.575 575.012 395.553 579.25L410.879 644.346C415.771 665.211 420.843 686.765 432.257 706.145C451.062 738.095 484.613 758.925 515.013 775.117C536.173 786.383 561.065 798.518 588.312 799.351C589.145 799.351 590.015 799.388 590.848 799.388C600.378 799.388 609.907 797.613 618.784 794.352C623.784 796.816 629.617 798.736 636.719 800.185C645.487 801.923 654.473 802.793 663.531 802.793C681.575 802.793 699.909 799.351 717.446 792.722C770.491 869.084 807.666 938.961 832.522 1006.63C813.934 990.98 792.448 986.742 773.861 984.641C771.687 984.387 769.513 984.206 767.339 984.025C762.447 973.737 753.28 963.775 746.831 956.748C745.708 955.516 744.657 954.393 743.787 953.415C719.149 925.739 687.155 905.924 653.64 897.593C631.574 892.087 608.82 891.29 586.826 890.457C568.348 889.768 549.253 889.08 530.991 885.602C490.084 877.742 451.46 855.246 422.293 822.245L409.249 807.466L412.872 826.846C427.039 902.157 449.721 959.102 482.222 1000.94C518.382 1047.49 567.877 1074.19 615.704 1074.19C623.277 1074.19 630.813 1073.54 638.205 1072.16C665.814 1067.09 690.706 1053.18 714.765 1039.7C717.41 1038.22 721.54 1036.37 726.287 1034.23C744.077 1026.23 766.252 1016.3 770.056 1001.96C770.636 999.783 770.745 997.537 770.564 995.291C771.252 995.363 771.94 995.399 772.593 995.472C789.586 997.356 809.188 1001.2 825.601 1015.11C832.159 1020.68 837.884 1027.86 842.486 1036.01C847.051 1050.42 851.109 1064.77 854.624 1079.08C854.624 1079.62 854.696 1080.2 854.696 1080.74C854.696 1081.94 855.131 1083.06 855.82 1083.93C882.704 1196.66 878.248 1307.8 859.769 1438.25C859.769 1438.43 859.769 1438.65 859.769 1438.83C857.921 1446.61 856.109 1454.51 854.406 1462.55C827.014 1393.33 789.586 1327.65 742.954 1267.05C747.23 1258.28 743.208 1247.7 738.497 1235.5L737.41 1232.64C729.367 1211.48 719.149 1186.81 704.583 1164.24C683.133 1130.99 655.415 1108.6 626.574 1101.18C593.022 1092.55 559.688 1103.93 528.6 1117.48L518.781 1121.75L528.057 1127.15C554.144 1142.29 570.703 1172.36 586.718 1201.41L590.848 1208.87C607.841 1239.41 631.828 1275.6 667.119 1284.22C672.88 1285.63 678.641 1286.21 684.329 1286.21C698.859 1286.21 712.917 1282.37 725.707 1278.89C729.512 1277.84 732.7 1276.54 735.345 1274.95C773.317 1324.5 805.057 1377.46 830.13 1432.99C825.094 1429.01 819.695 1425.71 814.043 1423.32C796.035 1415.79 778.752 1417.82 764.259 1420.79C763.897 1420.86 763.534 1420.97 763.172 1421.04C756.904 1413.98 747.157 1408.36 740.345 1404.49C739.222 1403.83 738.171 1403.25 737.302 1402.71C712.047 1387.71 683.17 1380.43 656.031 1382.28C638.168 1383.47 621.03 1388.37 604.472 1393.07C590.631 1397.02 576.355 1401.08 562.043 1402.86C530.013 1406.77 496.135 1399.23 466.642 1381.56L449.576 1371.34L459.069 1388.8C488.092 1442.23 518.998 1479.76 553.528 1503.52C580.631 1522.18 610.233 1531.78 637.915 1531.78C655.85 1531.78 672.952 1527.76 688.025 1519.54C707.446 1508.96 722.591 1492.4 737.229 1476.36C738.787 1474.65 741.396 1472.26 744.367 1469.55C755.78 1459.08 770.02 1446.04 769.332 1433.75C769.295 1432.81 769.114 1431.91 768.897 1431C781.288 1428.65 795.6 1427.34 809.949 1433.36C826.072 1440.09 840.602 1456.47 846.979 1475.09C847.305 1476.07 847.921 1476.83 848.645 1477.44C849.261 1479.07 849.877 1480.67 850.493 1482.3C824.08 1617.6 817.63 1783.61 876.654 1949.34C877.451 1951.55 879.552 1952.96 881.762 1952.96C882.378 1952.96 882.994 1952.86 883.574 1952.64C886.4 1951.62 887.886 1948.51 886.871 1945.68C838.5 1809.91 834.732 1673.78 849.769 1554.93C929.409 1500.63 1019.05 1459.37 1116.23 1432.16C1118 1436.47 1120.9 1441.04 1125.07 1446C1141.81 1465.96 1160.79 1488.6 1186.99 1500.15C1200.76 1506.24 1215.14 1508.74 1229.6 1508.74C1262.72 1508.74 1296.23 1495.66 1324.06 1482.66C1327.32 1481.14 1330.62 1479.58 1333.88 1478.02C1372.1 1459.98 1411.63 1441.33 1452.03 1446.9L1463.7 1448.5L1457.36 1438.57C1431.56 1398.22 1401.74 1358.34 1358.44 1339.79C1321.01 1323.74 1274.56 1324.72 1227.71 1342.54C1195.76 1354.68 1167.35 1372.79 1143.76 1388.91L1140.57 1391.08C1127.42 1399.99 1116.08 1407.71 1114.41 1419.63C1114.34 1420.24 1114.31 1420.82 1114.31 1421.44C1085.61 1429.44 1057.53 1438.65 1030.17 1449.08C1054.63 1428.43 1076.41 1404.23 1095.46 1376.74C1095.83 1376.77 1096.22 1376.81 1096.59 1376.81C1106.3 1376.81 1120.72 1365.8 1137.1 1352.5C1140.1 1350.08 1142.68 1347.97 1144.31 1346.82C1162.57 1333.59 1177.39 1320.77 1189.52 1307.62C1220.83 1273.71 1237.35 1232.82 1234.85 1195.32C1233.69 1178.04 1228.73 1161.42 1223.91 1145.37C1222.24 1139.83 1220.58 1134.29 1219.09 1128.74C1214.56 1111.97 1209.42 1087.16 1217.46 1065.68L1222.28 1052.82L1209.96 1058.9C1125.86 1100.52 1072.53 1194.89 1080.25 1288.39C1080.86 1295.77 1081.84 1303.16 1082.75 1310.34C1083.72 1317.91 1084.78 1325.77 1085.32 1333.45C1085.5 1335.77 1085.21 1339.64 1084.88 1343.77C1084.16 1353.23 1083.36 1364.28 1086.84 1370.91C1060.35 1409.01 1028.18 1440.49 990.425 1465.13C990.352 1465.2 990.28 1465.27 990.171 1465.31C941.402 1486.5 895.096 1511.67 851.653 1540.58C854.334 1521.56 857.45 1503.05 860.965 1485.05C861.436 1484.25 861.689 1483.35 861.689 1482.37V1481.35C870.639 1436.04 881.871 1394.27 893.574 1357.21C937.887 1216.95 1006.84 1086.25 1076.55 973.375C1077.64 973.121 1078.62 972.578 1079.41 971.672C1116.19 929.652 1157.28 892.702 1202.24 861.078C1203.29 861.042 1204.34 860.68 1205.25 859.992C1219.42 849.378 1238.51 844.596 1253.87 847.748C1267.35 850.501 1277.24 858.506 1285.18 866.44C1284.67 866.91 1284.2 867.418 1283.77 867.997C1276.85 877.017 1280.87 894.151 1284.09 907.953C1284.93 911.503 1285.65 914.582 1285.94 916.647C1288.73 936.172 1291.59 956.349 1300.76 974.244C1318.8 1009.42 1360.33 1031.19 1409.31 1031.19C1409.57 1031.19 1409.82 1031.19 1410.07 1031.19C1448.12 1031.01 1490.51 1018.66 1539.61 993.443L1557.29 984.351L1537.43 983.192C1506.42 981.344 1477.29 969.789 1455.4 950.553C1445.62 941.968 1437 931.608 1428.66 921.646C1418.63 909.619 1408.3 897.194 1395.47 887.16C1375.98 871.873 1350.58 862.527 1323.91 860.861C1322.97 860.788 1321.92 860.716 1320.72 860.607C1313.66 860.064 1303.59 859.267 1295.29 861.296C1295.14 861.115 1294.96 860.933 1294.82 860.788C1285.4 851.08 1273.44 840.72 1255.98 837.134C1250.98 836.119 1245.76 835.757 1240.43 836.047C1286.92 807.719 1337.03 784.644 1390.22 767.148C1391.41 769.647 1393.08 772.219 1395.36 774.9C1406.27 787.687 1418.63 802.141 1436.74 808.951C1444.53 811.885 1452.72 813.117 1461.02 813.117C1485.66 813.117 1511.49 802.104 1532.76 791.454L1539.68 787.977C1566.46 774.429 1594.14 760.41 1621.24 762.366L1631.93 763.127L1626.24 754.034L1626.28 753.998ZM771.868 360.525C811.579 394.395 838.319 443.009 845.203 493.868C847.74 512.415 847.631 531.433 844.95 550.379C841.508 574.649 836.254 594.319 829.297 609.135C829.261 608.99 829.188 608.846 829.152 608.737C828.21 605.658 827.196 602.615 826.217 599.644C823.282 590.842 820.492 582.546 820.166 573.997C820.094 572.548 820.094 571.063 820.094 569.578C820.021 560.63 819.913 549.473 810.71 543.496C809.985 543.025 809.224 542.627 808.427 542.264C808.173 542.156 807.883 542.083 807.63 541.975C807.086 541.757 806.543 541.54 805.963 541.359C805.637 541.25 805.275 541.214 804.949 541.142C804.405 541.033 803.898 540.888 803.318 540.816C802.956 540.779 802.557 540.743 802.195 540.707C801.651 540.671 801.108 540.598 800.564 540.598C800.456 540.598 800.311 540.598 800.202 540.598C799.84 540.598 799.477 540.634 799.115 540.671C798.753 540.671 798.354 540.671 797.992 540.743C797.485 540.779 796.941 540.888 796.434 540.96C796.072 541.033 795.709 541.069 795.383 541.142C794.803 541.25 794.224 541.431 793.608 541.612C793.318 541.685 793.028 541.757 792.738 541.866C791.868 542.156 790.999 542.482 790.129 542.88C784.405 545.452 779.984 549.691 776.071 553.458L749.476 578.996C748.135 578.127 746.795 577.258 745.454 576.388C739.041 572.295 732.99 568.419 728.606 563.166C726.541 560.667 724.801 557.841 723.461 554.69C721.359 549.763 720.164 544.076 719.946 537.918C719.874 535.889 719.91 533.788 720.055 531.651C720.453 525.782 721.577 519.552 723.678 511.473C724.62 507.923 725.635 504.41 726.649 500.896L727.954 496.295C728.425 494.701 728.823 493.035 729.258 491.441C733.57 475.611 737.229 459.491 740.055 443.371L740.309 441.813L740.599 440.219C742.773 427.287 744.476 414.174 745.672 401.242C745.961 398.163 746.251 395.083 746.469 391.968C747.085 383.89 747.519 375.595 747.737 367.227C747.882 361.902 748.244 356.903 750.962 354.439C751.759 353.715 752.846 353.208 754.15 352.918C756.07 352.483 758.389 352.628 760.491 353.316C764.621 354.657 768.353 357.663 771.832 360.634L771.868 360.525ZM656.357 644.563C655.923 644.672 655.452 644.817 655.017 644.925C654.22 645.143 653.422 645.36 652.662 645.577C652.154 645.722 651.683 645.867 651.176 646.012C650.451 646.229 649.727 646.447 648.966 646.7C648.459 646.881 647.951 647.063 647.444 647.208C646.719 647.461 646.031 647.715 645.306 647.968C644.799 648.149 644.292 648.367 643.785 648.548C643.096 648.838 642.408 649.091 641.719 649.417C641.212 649.635 640.705 649.888 640.197 650.106C639.509 650.432 638.857 650.758 638.168 651.12C637.661 651.373 637.19 651.627 636.719 651.917C636.067 652.279 635.415 652.677 634.763 653.076C634.292 653.366 633.82 653.692 633.349 653.982C633.132 654.126 632.915 654.235 632.697 654.416C630.994 653.909 629.364 653.402 627.697 652.859C625.849 652.279 623.929 651.699 622.117 651.084C620.052 650.395 618.095 649.671 616.103 648.982C614.363 648.367 612.588 647.751 610.921 647.135C608.965 646.411 607.081 645.614 605.196 644.853C603.602 644.201 601.936 643.585 600.378 642.897C598.493 642.1 596.682 641.267 594.87 640.434C593.385 639.781 591.899 639.129 590.45 638.441C588.602 637.572 586.826 636.63 585.051 635.688C583.747 635 582.37 634.348 581.102 633.659C579.254 632.645 577.478 631.595 575.703 630.544C574.543 629.892 573.384 629.24 572.261 628.552C570.304 627.356 568.42 626.089 566.536 624.857C565.666 624.277 564.761 623.734 563.891 623.154C561.173 621.271 558.528 619.351 555.956 617.358C549.543 612.396 542.948 606.563 535.158 598.992C532.368 596.276 529.687 593.522 526.97 590.769C527.839 589.683 528.817 588.668 529.868 587.727C532.078 585.807 534.651 584.14 537.477 582.8C544.543 579.431 553.637 577.837 564.543 578.055C566.572 578.055 568.637 578.163 570.667 578.308C574.109 578.525 577.551 578.815 580.993 579.105C583.638 579.322 586.319 579.54 589 579.721C589.761 579.757 590.486 579.83 591.247 579.866C594.145 580.047 597.008 580.156 599.943 580.156C600.051 580.156 600.16 580.156 600.269 580.156C602.117 580.156 603.965 580.119 605.812 580.011C632.081 578.562 657.915 564.977 674.872 543.641C678.097 539.584 680.996 535.201 683.532 530.673C684.365 529.187 685.163 527.666 685.923 526.108C688.025 522.015 690.018 518.175 692.699 514.951C693.279 514.227 693.967 513.538 694.656 512.886C695.344 512.234 696.069 511.655 696.793 511.147C698.677 509.843 701.612 508.358 704.837 508.612C705.525 508.684 706.25 508.829 706.975 509.046C707.156 509.119 707.337 509.191 707.554 509.264C708.098 509.445 708.678 509.698 709.221 509.988C709.439 510.097 709.62 510.206 709.837 510.314C710.489 510.677 711.142 511.111 711.794 511.582C711.902 511.655 712.047 511.727 712.156 511.836C712.192 511.872 712.265 511.944 712.301 511.981C712.156 512.56 712.047 513.067 711.939 513.647C711.757 514.408 711.613 515.132 711.431 515.857C711.178 517.016 710.96 518.103 710.743 519.189C710.598 519.878 710.489 520.566 710.381 521.218C710.199 522.341 710.018 523.428 709.873 524.514C709.801 525.058 709.692 525.637 709.656 526.181C709.475 527.738 709.33 529.26 709.221 530.745C709.221 530.781 709.221 530.817 709.221 530.89C708.533 541.105 710.018 550.814 713.497 558.892C715.236 563.021 717.519 566.789 720.308 570.085C725.743 576.605 732.809 581.134 739.621 585.481C740.237 585.879 740.816 586.278 741.432 586.676L726.359 601.166C710.96 615.982 693.496 632.754 672.082 640.18C668.206 641.52 664.184 642.571 659.944 643.694C658.749 644.02 657.553 644.31 656.357 644.636V644.563ZM512.803 576.279C510.302 573.744 507.766 571.172 505.194 568.709C503.237 566.789 501.317 565.014 499.469 563.275C498.925 562.768 498.418 562.333 497.911 561.826C496.606 560.63 495.338 559.471 494.07 558.348C493.418 557.805 492.802 557.262 492.186 556.718C491.063 555.74 489.94 554.798 488.853 553.893C488.2 553.349 487.548 552.842 486.896 552.299C486.28 551.828 485.7 551.284 485.084 550.814C485.084 550.669 485.084 550.524 485.084 550.343C485.229 548.568 484.505 546.865 483.128 545.742C482.439 545.162 481.715 544.402 480.809 543.351C479.541 541.866 478.381 540.345 477.258 538.751C469.468 527.63 465.084 514.082 465.084 500.715C465.084 485.464 470.809 470.032 480.773 458.332C486.497 451.63 493.78 445.87 500.773 440.328C501.751 439.567 502.694 438.843 503.527 438.444C503.889 438.263 504.215 438.082 504.505 437.865C504.614 437.792 504.686 437.684 504.795 437.575C504.976 437.43 505.157 437.249 505.302 437.068C505.411 436.959 505.483 436.814 505.592 436.669C505.701 436.488 505.846 436.343 505.955 436.126C506.027 435.981 506.099 435.8 506.172 435.655C506.244 435.51 506.281 435.402 506.353 435.257C507.042 434.641 507.73 434.061 508.455 433.482C509.252 432.83 510.013 432.178 510.81 431.526C511.716 430.801 512.658 430.113 513.563 429.424C514.361 428.809 515.194 428.193 516.027 427.613C516.969 426.925 517.948 426.273 518.926 425.621C519.759 425.077 520.593 424.498 521.426 423.955C522.44 423.302 523.455 422.723 524.506 422.107C525.339 421.6 526.209 421.093 527.042 420.586C528.093 419.97 529.216 419.426 530.303 418.847C531.173 418.412 532.006 417.941 532.876 417.507C534.035 416.927 535.194 416.42 536.354 415.876C537.187 415.514 537.984 415.079 538.818 414.717C540.122 414.138 541.463 413.63 542.767 413.123C543.492 412.834 544.18 412.544 544.905 412.254C546.97 411.493 549.035 410.805 551.137 410.153C554.181 409.211 557.659 408.269 560.268 409.102C561.5 409.501 562.623 410.298 563.565 411.529C564.833 413.16 565.703 415.369 565.956 417.615C565.956 417.905 566.029 418.159 566.029 418.485C566.174 420.477 565.992 422.723 565.449 425.585C565.123 427.396 564.688 429.207 564.253 430.982L563.963 432.178C563.963 432.178 563.927 432.359 563.891 432.431C563.384 434.568 562.913 436.706 562.478 438.843C559.833 451.63 558.239 464.744 557.695 477.857C557.405 484.957 557.441 492.202 557.768 499.374C558.275 509.59 559.434 519.878 561.21 529.912C561.21 529.912 561.21 529.948 561.21 529.984C561.246 530.238 561.318 530.528 561.318 530.528C561.934 533.897 562.623 537.374 563.42 540.852C563.891 542.88 564.253 544.909 564.579 546.937C564.652 547.3 564.688 547.662 564.761 548.06C565.05 550.053 565.304 552.009 565.521 553.965C565.521 554.291 565.594 554.653 565.594 554.979C565.775 556.899 565.884 558.783 565.956 560.63C565.956 560.739 565.956 560.884 565.956 560.993C565.992 562.876 565.956 564.688 565.92 566.499C565.92 566.716 565.92 566.934 565.92 567.151C565.485 567.151 565.05 567.151 564.652 567.151C563.094 567.151 561.572 567.151 560.05 567.151C549.506 567.441 540.267 569.361 532.767 572.947C529.035 574.722 525.629 576.932 522.658 579.54C521.571 580.482 520.593 581.532 519.614 582.583C519.506 582.691 519.361 582.8 519.252 582.945C518.056 581.713 516.824 580.445 515.592 579.214C514.614 578.236 513.672 577.258 512.694 576.279H512.803ZM513.527 411.167L530.557 385.085C537.079 375.051 544.47 363.713 554.941 356.975C567.224 349.042 582.949 347.774 595.269 347.52C615.632 347.158 632.661 349.585 647.48 355.019C655.705 358.026 662.046 361.612 666.829 365.995C667.119 366.285 667.408 366.538 667.698 366.828C667.662 366.828 667.626 366.828 667.59 366.828C665.633 366.285 663.749 365.85 661.865 365.452C661.357 365.343 660.814 365.27 660.307 365.198C658.966 364.944 657.625 364.763 656.285 364.618C655.669 364.546 655.053 364.474 654.401 364.437C653.133 364.329 651.901 364.292 650.669 364.256C650.125 364.256 649.546 364.256 649.002 364.256C647.263 364.256 645.56 364.365 643.857 364.546C630.994 365.959 618.023 372.298 604.182 383.89C600.124 387.295 596.211 390.881 592.442 394.359C590.921 395.772 589.399 397.148 587.877 398.525C587.515 398.851 587.152 399.177 586.79 399.503C585.631 400.517 584.507 401.568 583.348 402.546C582.805 403.017 582.261 403.451 581.718 403.922C580.739 404.755 579.761 405.589 578.746 406.386C578.13 406.893 577.478 407.364 576.862 407.835C576.21 408.342 575.522 408.849 574.833 409.356C574.652 408.921 574.398 408.523 574.181 408.124C574.036 407.835 573.891 407.581 573.746 407.291C573.275 406.458 572.732 405.661 572.152 404.9C569.833 401.966 566.862 399.829 563.529 398.778C558.202 397.112 552.876 398.271 547.912 399.793C545.05 400.662 542.26 401.676 539.47 402.763C538.673 403.053 537.912 403.379 537.115 403.705C534.977 404.574 532.876 405.516 530.774 406.494C530.086 406.82 529.397 407.11 528.709 407.436C526.064 408.74 523.419 410.117 520.846 411.602C520.375 411.855 519.94 412.145 519.506 412.435C517.368 413.703 515.266 415.007 513.201 416.384C512.839 416.601 512.476 416.818 512.114 417.072C512.476 416.021 512.803 414.971 513.165 413.957C513.31 413.486 513.418 413.051 513.455 412.58C513.455 412.435 513.455 412.254 513.455 412.109C513.455 411.819 513.455 411.529 513.418 411.276L513.527 411.167ZM725.454 404.611C725.816 404.719 726.214 404.828 726.577 404.9C728.171 405.299 729.693 405.625 731.215 405.842C731.432 405.842 731.649 405.878 731.867 405.915C732.664 406.023 733.425 406.132 734.186 406.168C733.968 408.233 733.751 410.298 733.497 412.363C733.099 415.804 732.7 419.282 732.193 422.723C732.048 423.773 731.867 424.86 731.722 425.911C731.36 425.512 730.997 425.15 730.635 424.751C730.2 424.281 729.729 423.773 729.294 423.302C728.57 422.578 727.845 421.853 727.12 421.129C726.685 420.694 726.251 420.26 725.816 419.861C724.765 418.883 723.714 417.905 722.627 416.963C722.265 416.637 721.866 416.311 721.504 415.985C720.562 415.188 719.584 414.355 718.606 413.594C718.098 413.196 717.591 412.797 717.084 412.435C716.323 411.855 715.526 411.276 714.729 410.696C714.149 410.298 713.605 409.899 713.026 409.501C712.265 408.957 711.468 408.45 710.707 407.943C710.127 407.581 709.547 407.182 708.968 406.82C708.17 406.313 707.337 405.842 706.504 405.335C705.924 405.009 705.381 404.683 704.801 404.357C703.823 403.814 702.844 403.306 701.866 402.799C701.431 402.582 700.996 402.328 700.562 402.111C699.148 401.423 697.735 400.734 696.322 400.119C695.887 399.938 695.416 399.756 694.982 399.575C693.967 399.141 692.953 398.706 691.902 398.344C691.322 398.126 690.742 397.909 690.163 397.692C689.257 397.366 688.315 397.04 687.409 396.75C686.793 396.532 686.177 396.351 685.561 396.17C684.655 395.88 683.749 395.627 682.844 395.373C682.228 395.192 681.575 395.011 680.96 394.866C680.017 394.612 679.075 394.431 678.133 394.214C677.554 394.069 676.938 393.96 676.358 393.816C675.162 393.598 673.967 393.381 672.771 393.2C672.445 393.164 672.119 393.091 671.793 393.019C671.575 393.019 671.249 392.946 670.959 392.91C670.887 392.91 670.814 392.91 670.742 392.91C670.488 392.91 670.235 392.837 669.945 392.837C669.619 392.801 669.22 392.765 668.858 392.729C668.64 392.729 668.423 392.693 668.169 392.693C667.626 392.693 667.01 392.62 666.394 392.62C666.321 392.62 666.249 392.62 666.176 392.62C665.995 392.62 665.85 392.62 665.669 392.62C665.017 392.62 664.365 392.693 663.676 392.765C663.531 392.765 663.423 392.765 663.314 392.801C662.517 392.91 661.72 393.055 660.923 393.236C660.778 393.272 660.633 393.308 660.452 393.345C659.655 393.562 658.857 393.816 658.097 394.178C658.06 394.178 658.024 394.178 657.988 394.214C657.191 394.576 656.43 395.011 655.705 395.554C655.524 395.663 655.379 395.808 655.234 395.917C654.509 396.46 653.857 397.076 653.205 397.8C653.205 397.8 653.169 397.836 653.133 397.873C652.843 398.199 652.589 398.561 652.372 398.923C652.227 399.104 652.082 399.285 651.973 399.467C649.908 399.032 647.77 398.633 645.415 398.235C645.27 398.235 645.125 398.199 645.016 398.163C641.937 397.619 637.154 396.786 631.791 396.641C623.168 396.388 614.689 397.945 608.602 403.886C608.494 403.958 608.421 404.067 608.312 404.14C607.733 404.719 607.189 405.371 606.646 406.023C606.537 406.132 606.428 406.241 606.32 406.386C606.211 406.53 606.102 406.712 605.994 406.893C605.559 407.508 605.124 408.161 604.725 408.849C604.581 409.139 604.436 409.465 604.291 409.754C604.001 410.334 603.711 410.914 603.494 411.529C603.457 411.638 603.385 411.783 603.312 411.892C602.95 411.892 602.588 411.964 602.225 412C601.791 412 601.392 412.073 600.957 412.109C599.182 412.29 597.406 412.544 595.667 412.942C594.363 413.232 593.022 413.558 591.718 413.957C591.319 414.065 590.921 414.246 590.522 414.355C589.616 414.645 588.711 414.935 587.841 415.261C587.334 415.442 586.863 415.659 586.355 415.876C585.558 416.202 584.761 416.528 584 416.891C583.457 417.144 582.913 417.434 582.406 417.688C581.79 417.977 581.174 418.267 580.558 418.593C581.464 417.941 582.37 417.217 583.239 416.528C583.928 415.985 584.652 415.478 585.341 414.935C586.428 414.065 587.479 413.196 588.529 412.29C589.145 411.783 589.798 411.276 590.377 410.733C591.537 409.754 592.66 408.74 593.783 407.726C594.254 407.291 594.761 406.856 595.232 406.422C596.827 404.973 598.385 403.56 599.906 402.111C603.602 398.706 607.407 395.192 611.247 391.968C623.385 381.789 634.473 376.247 645.125 375.087C654.836 374.037 665.85 376.391 678.713 382.369C679.945 382.948 681.177 383.528 682.373 384.107C686.431 386.1 690.525 388.346 694.474 390.483C702.736 394.975 711.286 399.612 720.453 402.908C722.156 403.524 723.823 403.995 725.454 404.466V404.611ZM717.519 493.18L716.25 497.599C715.961 498.686 715.634 499.737 715.345 500.823C715.2 500.751 715.055 500.678 714.91 500.606C714.402 500.316 713.895 500.063 713.352 499.809C713.098 499.7 712.844 499.592 712.591 499.483C712.084 499.266 711.576 499.085 711.033 498.903C710.779 498.831 710.562 498.722 710.308 498.65C709.728 498.469 709.185 498.324 708.605 498.215C708.424 498.179 708.243 498.107 708.062 498.07C707.301 497.925 706.54 497.817 705.743 497.744C705.707 497.744 705.67 497.744 705.634 497.744C705.127 497.708 704.656 497.672 704.149 497.672C703.533 497.672 702.953 497.744 702.337 497.781C702.156 497.781 701.975 497.781 701.793 497.781C700.851 497.889 699.909 498.034 698.967 498.288C698.895 497.744 698.786 497.273 698.714 496.73C698.641 496.295 698.569 495.824 698.496 495.39C698.279 494.412 698.025 493.506 697.772 492.637C697.699 492.419 697.663 492.166 697.59 491.948C697.228 490.898 696.793 489.92 696.359 489.05C696.25 488.833 696.105 488.616 695.996 488.435C695.634 487.783 695.272 487.203 694.909 486.66C694.728 486.406 694.547 486.189 694.366 485.935C694.003 485.464 693.641 485.029 693.279 484.667C693.098 484.45 692.88 484.269 692.699 484.088C692.3 483.689 691.902 483.327 691.467 483.001C691.322 482.892 691.141 482.747 690.996 482.639C690.416 482.204 689.837 481.805 689.257 481.516C688.858 481.298 688.46 481.117 688.097 480.936C687.88 480.827 687.699 480.719 687.481 480.61C687.481 480.61 687.445 480.61 687.409 480.574C687.409 479.741 687.3 478.907 687.264 478.038C687.192 476.698 687.119 475.394 687.01 474.09C686.865 472.496 686.684 470.938 686.503 469.344C686.322 468.04 686.177 466.736 685.96 465.468C685.706 463.874 685.38 462.317 685.054 460.759C684.8 459.491 684.547 458.223 684.22 456.955C683.858 455.398 683.387 453.84 682.952 452.282C682.59 451.051 682.264 449.819 681.865 448.624C681.358 447.066 680.778 445.508 680.199 443.987C679.764 442.828 679.365 441.668 678.894 440.509C678.242 438.915 677.517 437.394 676.757 435.836C676.249 434.786 675.814 433.699 675.271 432.648C674.401 430.946 673.459 429.316 672.517 427.686C672.01 426.816 671.575 425.947 671.068 425.114C669.582 422.65 667.988 420.26 666.285 417.941C664.908 416.021 662.916 413.196 661.756 410.515C660.85 408.414 660.742 407.11 660.814 406.422C660.814 406.096 660.959 405.806 661.068 405.552C661.14 405.371 661.249 405.226 661.394 405.045C662.553 403.669 665.705 403.27 670.271 403.922C671.756 404.14 673.242 404.393 674.691 404.683C674.764 404.683 674.872 404.719 674.945 404.755C676.322 405.045 677.662 405.335 679.003 405.697C679.438 405.806 679.836 405.951 680.271 406.06C681.286 406.349 682.3 406.603 683.315 406.929C683.822 407.074 684.329 407.291 684.836 407.436C685.742 407.726 686.648 408.052 687.518 408.378C688.097 408.595 688.641 408.813 689.184 409.03C690.018 409.356 690.851 409.682 691.684 410.044C692.264 410.298 692.808 410.551 693.387 410.841C694.185 411.203 694.982 411.566 695.779 411.964C696.358 412.254 696.902 412.544 697.445 412.834C698.243 413.232 699.004 413.63 699.764 414.065C700.308 414.391 700.888 414.717 701.431 415.043C702.192 415.478 702.953 415.913 703.678 416.384C704.221 416.746 704.765 417.108 705.308 417.434C706.033 417.905 706.757 418.376 707.482 418.883C708.026 419.245 708.569 419.644 709.076 420.042C709.765 420.549 710.489 421.057 711.178 421.6C711.685 421.998 712.229 422.433 712.736 422.832C713.424 423.375 714.076 423.918 714.729 424.462C715.236 424.896 715.743 425.367 716.25 425.802C716.866 426.382 717.519 426.925 718.134 427.505C718.642 427.975 719.149 428.483 719.656 428.99C720.236 429.569 720.816 430.149 721.395 430.729C721.903 431.272 722.41 431.779 722.881 432.322C723.424 432.902 723.968 433.482 724.475 434.097C724.983 434.677 725.454 435.257 725.961 435.836C726.432 436.416 726.939 436.995 727.41 437.611C727.917 438.263 728.388 438.879 728.859 439.531C729.113 439.857 729.33 440.183 729.548 440.509L729.403 441.342C727.12 454.456 724.294 467.533 720.997 480.393C719.91 484.703 718.75 488.942 717.555 493.216L717.519 493.18ZM687.01 505.243C686.105 506.112 685.199 507.018 684.402 508.032C680.996 512.125 678.641 516.726 676.358 521.145C675.597 522.594 674.872 524.007 674.112 525.42C671.901 529.441 669.329 533.281 666.466 536.867C651.393 555.812 628.53 567.875 605.305 569.143C603.385 569.252 601.464 569.288 599.544 569.288C593.783 569.252 587.986 568.745 581.971 568.238C580.304 568.093 578.602 567.948 576.935 567.803C577.007 566.245 577.044 564.724 577.044 563.239C577.044 562.949 577.044 562.695 577.044 562.405C577.044 561.101 577.007 559.797 576.935 558.529C576.935 557.986 576.862 557.443 576.826 556.899C576.754 555.921 576.717 554.979 576.609 554.038C576.572 553.458 576.5 552.878 576.428 552.299C576.355 551.466 576.246 550.632 576.138 549.835C576.065 549.256 575.993 548.712 575.92 548.169C575.812 547.408 575.703 546.648 575.594 545.923C575.522 545.416 575.449 544.945 575.341 544.474C575.196 543.713 575.087 543.025 574.942 542.337C574.87 541.975 574.797 541.576 574.725 541.214C574.543 540.236 574.326 539.294 574.145 538.497C573.783 536.831 573.42 535.201 573.094 533.534C574.688 533.317 576.319 533.136 577.986 532.918C580.087 532.665 582.225 532.411 584.29 532.122C610.124 528.608 635.052 518.972 656.466 504.265C658.459 502.888 660.452 501.475 662.481 499.918C662.481 499.918 662.517 499.918 662.553 499.882C662.589 499.845 662.662 499.809 662.698 499.773C663.278 499.338 663.894 498.867 664.437 498.433C667.662 495.933 673.93 491.079 679.112 490.21H679.184C679.438 490.173 679.655 490.21 679.873 490.21C680.38 490.173 680.887 490.101 681.358 490.173C681.72 490.21 682.083 490.282 682.518 490.427C682.989 490.572 683.423 490.753 683.858 491.007C683.967 491.079 684.076 491.188 684.184 491.26C684.51 491.477 684.873 491.731 685.163 492.021C685.344 492.202 685.489 492.419 685.67 492.637C685.851 492.854 686.068 493.108 686.213 493.361C686.394 493.615 686.503 493.904 686.648 494.194C686.757 494.412 686.902 494.665 687.01 494.919C687.155 495.281 687.264 495.643 687.409 496.005C687.481 496.223 687.554 496.404 687.59 496.621C687.699 497.056 687.808 497.527 687.916 497.998C687.916 498.143 687.989 498.251 687.989 498.396C688.097 498.94 688.17 499.483 688.206 500.063C688.206 500.135 688.206 500.171 688.206 500.244C688.279 500.86 688.315 501.475 688.351 502.127C688.351 502.78 688.351 503.395 688.351 504.011C688.351 504.011 688.351 504.047 688.351 504.084C688.097 504.301 687.88 504.518 687.626 504.736C687.409 504.953 687.155 505.17 686.938 505.388L687.01 505.243ZM580.92 431.236C581.391 430.91 581.826 430.62 582.297 430.294C582.841 429.932 583.384 429.606 583.928 429.28C584.399 428.99 584.834 428.736 585.305 428.483C585.884 428.157 586.428 427.903 587.008 427.613C587.479 427.396 587.913 427.142 588.384 426.925C589 426.635 589.58 426.382 590.196 426.128C590.631 425.947 591.066 425.766 591.5 425.585C592.189 425.331 592.877 425.114 593.566 424.86C593.928 424.751 594.29 424.607 594.653 424.498C595.703 424.172 596.79 423.882 597.841 423.665C600.631 423.049 603.421 422.795 606.211 422.795C606.573 422.795 606.899 422.759 607.262 422.795C607.733 422.795 608.204 422.868 608.675 422.904C610.921 423.049 613.095 423.375 615.197 423.882C616.827 424.281 618.421 424.751 619.98 425.367C620.885 425.73 621.719 426.164 622.588 426.635C622.914 426.816 623.277 426.925 623.567 427.106C623.82 427.251 624.038 427.432 624.291 427.577C625.161 428.084 626.03 428.628 626.791 429.207C627.951 430.077 629.001 431.018 630.016 432.069L630.089 432.141C631.067 433.156 631.973 434.242 632.77 435.402C632.77 435.402 632.806 435.438 632.842 435.474C634.473 437.792 635.741 440.328 636.429 442.864C636.792 444.132 636.973 445.001 637.081 445.617C635.958 445.762 634.436 445.87 633.567 445.907C632.625 445.979 631.755 446.052 630.813 446.124C628.965 446.269 627.117 446.378 625.342 446.559C614.074 447.754 601.936 450.181 589.399 459.817C589 460.107 588.638 460.397 588.239 460.723C588.167 460.723 588.131 460.65 588.058 460.65C587.442 460.36 586.826 460.071 586.174 459.781C586.029 459.708 585.848 459.636 585.703 459.563C584.979 459.237 584.181 458.948 583.42 458.658C583.203 458.585 582.986 458.513 582.768 458.44C582.116 458.223 581.428 458.042 580.739 457.897C580.558 457.861 580.377 457.788 580.16 457.788C579.29 457.644 578.42 457.535 577.551 457.535C577.478 457.535 577.406 457.535 577.333 457.535C577.007 457.535 576.681 457.571 576.319 457.607C576.065 457.607 575.848 457.607 575.594 457.644C574.906 457.716 574.254 457.861 573.565 458.042C572.84 458.259 572.152 458.513 571.5 458.803C571.319 458.875 571.138 458.984 570.956 459.093C570.703 459.201 570.485 459.31 570.232 459.455C570.377 458.223 570.594 457.028 570.739 455.796C571.427 450.833 572.225 445.907 573.239 441.016C573.565 439.495 573.891 438.01 574.217 436.488C574.507 436.235 574.797 435.945 575.087 435.691C575.522 435.293 575.957 434.931 576.391 434.532C576.899 434.097 577.406 433.699 577.913 433.301C578.348 432.938 578.819 432.612 579.254 432.25C579.761 431.852 580.304 431.489 580.848 431.127L580.92 431.236ZM634.038 407.798C634.618 407.835 635.161 407.871 635.741 407.907C638.422 408.161 641.031 408.595 643.386 409.03C644.944 409.32 646.611 409.61 648.314 409.936C648.459 409.936 648.604 410.008 648.748 410.008C649.256 410.117 649.763 410.225 650.234 410.334C650.306 410.733 650.451 411.131 650.56 411.529C650.633 411.819 650.705 412.109 650.814 412.435C651.067 413.232 651.357 414.029 651.72 414.826C653.278 418.448 655.596 421.817 657.444 424.317C658.966 426.382 660.379 428.555 661.72 430.729C662.155 431.453 662.553 432.214 662.988 432.938C663.858 434.423 664.727 435.909 665.488 437.466C665.959 438.372 666.358 439.314 666.792 440.219C667.445 441.632 668.133 443.045 668.713 444.494C669.111 445.508 669.51 446.523 669.872 447.537C670.416 448.95 670.923 450.326 671.394 451.775C671.756 452.826 672.046 453.912 672.372 454.963C672.771 456.376 673.169 457.788 673.532 459.237C673.785 460.324 674.039 461.447 674.293 462.534C674.583 463.983 674.872 465.396 675.126 466.845C675.307 467.968 675.488 469.091 675.633 470.214C675.814 471.663 675.996 473.148 676.104 474.633C676.213 475.756 676.285 476.879 676.358 478.002C676.358 478.581 676.358 479.125 676.394 479.704C676.358 479.704 676.285 479.704 676.249 479.741C675.851 479.813 675.452 479.958 675.09 480.067C674.438 480.248 673.785 480.393 673.169 480.646C672.771 480.791 672.372 480.972 671.974 481.117C671.358 481.371 670.706 481.624 670.09 481.914C669.691 482.095 669.293 482.313 668.93 482.494C668.314 482.82 667.698 483.146 667.082 483.472C666.684 483.689 666.321 483.943 665.923 484.16C665.561 484.377 665.162 484.595 664.8 484.812C664.546 483.653 664.184 482.566 663.713 481.516C662.807 479.415 661.43 477.531 659.691 475.901C659.655 475.865 659.618 475.828 659.582 475.756C659.51 475.683 659.437 475.647 659.365 475.575C656.394 472.93 652.408 471.047 647.879 470.25C647.843 470.25 647.806 470.25 647.77 470.25C647.517 470.214 647.263 470.177 647.009 470.141C644.147 465.613 640.85 461.085 637.19 456.593C637.371 456.593 637.552 456.557 637.734 456.521C637.842 456.521 637.951 456.521 638.096 456.484C638.567 456.412 639.038 456.376 639.509 456.267C639.582 456.267 639.654 456.267 639.726 456.267C640.777 456.086 641.792 455.796 642.698 455.434C642.806 455.398 642.915 455.325 643.024 455.289C643.35 455.144 643.712 454.963 644.002 454.782C644.111 454.709 644.256 454.637 644.364 454.564C644.654 454.347 644.944 454.13 645.234 453.876C645.343 453.804 645.451 453.695 645.524 453.623C645.886 453.26 646.212 452.898 646.538 452.463C649.111 448.805 648.132 444.132 646.973 440.038C646.321 437.684 645.343 435.329 644.111 433.119C641.937 429.062 638.929 425.295 635.342 422.216C634.726 421.672 634.074 421.129 633.422 420.622C632.226 419.716 630.958 418.919 629.654 418.159C629.436 418.014 629.255 417.869 629.038 417.76C628.132 417.253 627.19 416.854 626.248 416.42C625.559 416.094 624.871 415.695 624.146 415.405C622.769 414.862 621.393 414.391 619.98 413.957C619.508 413.812 619.001 413.703 618.53 413.594C617.588 413.341 616.646 413.087 615.668 412.906C615.559 412.906 615.414 412.834 615.305 412.834C615.595 412.471 615.994 412.181 616.32 411.855C616.719 411.493 617.117 411.059 617.552 410.733C617.987 410.443 618.494 410.225 619.001 409.972C619.508 409.718 620.016 409.392 620.595 409.175C621.103 408.994 621.646 408.885 622.19 408.74C622.806 408.559 623.422 408.342 624.074 408.233C624.617 408.124 625.197 408.088 625.741 408.016C626.429 407.943 627.117 407.835 627.842 407.762C628.422 407.762 629.038 407.762 629.654 407.762C630.378 407.762 631.067 407.726 631.791 407.762C632.552 407.762 633.313 407.871 634.074 407.907L634.038 407.798ZM571.21 522.848C571.174 522.594 571.138 522.341 571.101 522.087C570.594 518.682 570.159 515.241 569.797 511.799C569.724 511.075 569.652 510.35 569.58 509.662C569.253 506.076 568.964 502.49 568.782 498.903C568.637 495.607 568.529 492.311 568.529 488.978C568.529 487.783 568.565 486.587 568.565 485.392C568.565 483.436 568.601 481.516 568.674 479.559C569.362 478.255 570.087 476.988 570.775 475.683L571.427 474.488C572.877 471.88 574.58 469.054 576.464 468.547C578.42 468.004 581.319 469.489 584.181 470.866L586.79 472.097C600.921 478.581 616.574 481.661 632.118 480.972C633.205 480.936 634.328 480.864 635.415 480.791C638.205 480.61 640.813 480.465 643.458 480.646C643.603 480.646 643.785 480.682 643.929 480.682C644.618 480.755 645.27 480.791 645.922 480.9C647.77 481.226 649.473 481.878 650.85 482.711C652.191 483.544 653.205 484.631 653.712 485.79C653.712 485.863 653.749 485.935 653.785 486.007C653.966 486.442 654.075 486.877 654.183 487.348C654.22 487.529 654.256 487.746 654.256 487.927C654.328 488.326 654.365 488.761 654.401 489.231C654.401 489.449 654.401 489.666 654.401 489.92C654.401 490.391 654.401 490.898 654.328 491.405C654.328 491.622 654.328 491.876 654.256 492.093C654.256 492.202 654.22 492.311 654.22 492.419C652.915 493.397 651.575 494.375 650.27 495.281C630.306 509.01 606.972 518.03 582.805 521.327C580.775 521.616 578.746 521.834 576.681 522.087C574.906 522.305 573.058 522.522 571.246 522.776L571.21 522.848ZM623.748 457.788C627.407 461.846 630.704 465.975 633.676 470.069C632.987 470.105 632.299 470.141 631.647 470.177C620.958 470.648 610.197 469.091 600.088 465.722C607.697 460.904 615.305 458.875 623.784 457.788H623.748ZM446.569 402.727C447.619 397.076 448.706 391.244 450.011 385.593C455.192 363.133 462.729 347.846 473.78 337.486C484.36 327.524 498.744 321.765 512.73 317.019C539.796 307.818 568.275 301.189 595.848 294.777C613.24 290.756 631.176 286.554 648.893 288.474C665.923 290.285 681.757 297.603 696.359 305.21C710.671 312.672 726.867 322.127 738.497 335.494C741.106 338.464 743.425 341.652 745.418 344.985C744.802 345.419 744.222 345.854 743.679 346.361C737.302 352.121 737.048 361.032 736.867 366.901C736.613 375.087 736.215 383.238 735.599 391.135C735.49 392.584 735.345 393.997 735.236 395.446C734.367 395.409 733.497 395.337 732.555 395.192C732.447 395.192 732.302 395.156 732.157 395.12C731.106 394.939 730.055 394.721 728.932 394.431C728.606 394.359 728.28 394.25 727.954 394.178C726.685 393.816 725.417 393.453 724.077 392.946C715.671 389.94 707.881 385.701 699.619 381.209C695.561 379 691.395 376.717 687.155 374.653C686.539 374.327 685.887 374.073 685.271 373.747C683.061 368.168 679.184 362.662 674.148 358.062C668.314 352.701 660.814 348.426 651.212 344.912C635.089 339.008 616.646 336.291 595.051 336.725C581.283 336.979 563.601 338.464 549.035 347.883C536.644 355.888 528.564 368.277 521.462 379.217L502.911 407.617C493.454 409.139 483.671 408.74 473.345 408.342C471.425 408.269 469.504 408.197 467.548 408.124C467.004 408.124 466.461 408.124 465.881 408.088C463.816 408.016 461.714 407.979 459.649 407.979C459.431 407.979 459.214 407.979 458.997 407.979C457.113 407.979 455.192 408.016 453.308 408.088C452.873 408.088 452.402 408.088 451.967 408.161C449.902 408.269 447.837 408.414 445.808 408.631C445.699 408.631 445.59 408.631 445.482 408.631C445.844 406.675 446.243 404.719 446.605 402.763L446.569 402.727ZM378.089 489.811C379.393 476.046 386.531 462.027 399.937 446.957C411.749 433.663 423.271 425.44 435.155 421.745C436.677 421.274 438.235 420.875 439.793 420.513C450.265 418.195 461.279 418.666 472.91 419.137C481.86 419.499 491.027 419.861 500.157 418.919C498.962 422.578 497.802 426.273 496.679 429.968C495.773 430.584 494.94 431.199 494.143 431.852C486.715 437.72 479.033 443.806 472.584 451.34C468.164 456.521 464.468 462.244 461.605 468.294C456.823 478.4 454.286 489.485 454.286 500.751C454.286 502.743 454.395 504.736 454.576 506.692C454.612 507.199 454.685 507.706 454.721 508.213C454.902 510.024 455.156 511.799 455.446 513.611C455.446 513.792 455.482 513.973 455.518 514.19C455.881 516.146 456.352 518.066 456.859 520.022C457.004 520.53 457.113 521.001 457.257 521.508C457.728 523.174 458.236 524.804 458.815 526.398C458.924 526.724 459.033 527.014 459.142 527.34C459.83 529.187 460.591 530.999 461.424 532.81C461.642 533.281 461.859 533.752 462.076 534.186C462.403 534.838 462.656 535.49 462.982 536.106C462.149 535.635 461.316 535.237 460.446 534.802C459.83 534.476 459.178 534.15 458.562 533.824C457.584 533.353 456.642 532.919 455.663 532.484C455.047 532.194 454.468 531.904 453.852 531.651C452.765 531.18 451.641 530.745 450.554 530.31C450.083 530.129 449.612 529.912 449.141 529.731C447.583 529.115 445.989 528.572 444.395 528.028C426.713 522.196 410.589 524.261 401.241 533.571C400.553 534.259 399.901 534.983 399.285 535.744C399.067 535.998 398.922 536.251 398.705 536.505C398.307 537.012 397.908 537.555 397.582 538.099C397.364 538.425 397.183 538.751 397.002 539.113C396.712 539.62 396.386 540.127 396.133 540.671C395.951 541.033 395.77 541.431 395.589 541.794C395.408 542.156 395.227 542.518 395.082 542.917C385.335 526.978 376.241 508.467 377.98 489.847L378.089 489.811ZM588.638 788.448C563.746 787.687 540.231 776.204 520.122 765.517C491.099 750.049 459.069 730.235 441.641 700.603C431.097 682.635 426.206 661.915 421.496 641.846L406.169 576.75C405.227 572.802 404.647 569.795 404.212 566.934C403.669 563.311 403.415 560.196 403.452 557.406C403.452 557.37 403.452 557.334 403.452 557.262C403.452 556.247 403.597 555.305 403.669 554.364C403.741 553.675 403.741 552.915 403.85 552.226C403.995 551.284 404.249 550.451 404.466 549.618C404.611 549.075 404.72 548.459 404.901 547.916C405.227 547.01 405.662 546.213 406.06 545.416C406.278 545.018 406.386 544.583 406.64 544.221C407.328 543.098 408.126 542.083 409.068 541.142C418.488 531.759 435.989 536.541 441.098 538.244C442.547 538.714 443.996 539.258 445.446 539.801C447.583 540.634 449.685 541.54 451.823 542.554C453.924 543.532 455.989 544.583 458.091 545.706C464.033 548.966 470.048 552.915 476.171 557.588C482.874 562.731 489.686 568.708 497.621 576.424C502.73 581.423 507.839 586.64 512.766 591.711L516.172 595.189C519.94 599.065 523.745 602.905 527.622 606.708C535.702 614.569 542.622 620.691 549.362 625.871C552.079 627.972 554.869 630.001 557.731 631.957C577.877 645.795 602.37 656.807 632.226 665.573C635.342 666.479 638.458 667.348 641.611 668.218L642.48 668.435C653.024 671.261 657.807 672.818 661.104 680.426C665.561 690.677 661.792 699.589 657.408 709.876C655.85 713.535 654.256 717.302 652.988 721.287C651.104 727.119 650.162 733.133 649.256 738.892C648.205 745.558 647.227 751.861 644.872 757.657C643.748 760.446 642.299 763.09 640.524 765.59C636.103 771.857 629.799 777.146 622.009 781.058C620.451 781.855 618.82 782.579 617.153 783.268C608.24 786.854 598.348 788.629 588.674 788.303L588.638 788.448ZM638.857 789.498C636.502 789.027 634.292 788.484 632.226 787.904C632.262 787.904 632.299 787.832 632.371 787.832C632.589 787.687 632.77 787.542 632.987 787.397C634.328 786.528 635.632 785.622 636.9 784.68C637.335 784.354 637.77 783.992 638.241 783.666C639.292 782.833 640.27 782 641.248 781.13C641.647 780.768 642.009 780.442 642.371 780.08C643.64 778.848 644.872 777.617 645.995 776.312C646.067 776.24 646.14 776.131 646.212 776.023C647.263 774.791 648.241 773.523 649.183 772.219C649.473 771.784 649.763 771.386 650.053 770.951C650.741 769.901 651.43 768.85 652.046 767.763C652.299 767.329 652.553 766.894 652.77 766.459C653.567 764.974 654.292 763.453 654.944 761.895C657.77 754.94 658.894 747.731 659.981 740.74C660.85 735.125 661.684 729.836 663.314 724.801C664.474 721.251 665.959 717.701 667.408 714.259C672.3 702.704 677.372 690.75 671.068 676.224C670.488 674.847 669.8 673.615 669.111 672.456C669.039 672.347 668.966 672.203 668.894 672.094C668.242 671.007 667.517 670.029 666.756 669.16C666.648 669.015 666.539 668.87 666.43 668.761C665.705 667.892 664.908 667.131 664.111 666.407C663.966 666.298 663.821 666.153 663.676 666.044C662.879 665.356 662.046 664.74 661.176 664.161C661.031 664.052 660.886 663.98 660.742 663.871C659.872 663.328 658.93 662.82 658.024 662.349C657.915 662.277 657.77 662.241 657.626 662.168C656.647 661.697 655.669 661.263 654.654 660.9C654.582 660.9 654.509 660.864 654.473 660.828C653.459 660.43 652.408 660.104 651.321 659.741C651.249 659.741 651.176 659.705 651.14 659.669C650.089 659.343 649.002 659.017 647.915 658.727C647.843 658.727 647.806 658.691 647.734 658.655C647.879 658.618 647.988 658.546 648.096 658.51C650.198 657.676 652.408 656.952 654.654 656.3C654.872 656.227 655.053 656.191 655.234 656.119C657.662 655.43 660.126 654.778 662.626 654.09C666.901 652.967 671.285 651.808 675.561 650.359C699.257 642.172 717.627 624.495 733.823 608.918L753.788 589.719L754.222 589.284L783.535 561.101C786.977 557.805 790.528 554.4 794.513 552.589C798.173 550.922 802.159 550.886 804.659 552.516C808.681 555.124 809.043 560.993 809.115 569.614C809.115 571.244 809.115 572.838 809.188 574.36C809.586 584.466 812.739 593.885 815.818 603.013C817.666 608.556 819.442 613.808 820.601 619.133C821 621.017 821.362 622.901 821.616 624.821C824.369 644.418 819.768 666.805 807.92 691.329C791.724 724.873 768.208 751.933 739.874 769.502C708.786 788.81 671.938 796.055 638.784 789.39L638.857 789.498ZM759.585 999.131C757.085 1008.48 735.019 1018.37 721.866 1024.31C716.866 1026.55 712.555 1028.47 709.475 1030.21C686.177 1043.25 662.082 1056.73 636.248 1061.47C585.884 1070.71 530.158 1044.99 490.773 994.313C462.004 957.255 441.134 907.663 427.184 843.038C456.026 870.461 491.534 889.152 528.926 896.325C548.021 899.984 567.55 900.708 586.428 901.396C607.878 902.193 630.052 902.99 650.995 908.207C682.409 916.031 712.446 934.651 735.635 960.733C736.541 961.747 737.592 962.906 738.787 964.21C742.954 968.738 749.621 975.983 754.331 983.192C735.164 982.214 715.961 982.648 697.264 983.083C676.901 983.554 655.85 984.061 635.306 982.648C580.848 978.953 539.071 961.058 507.585 927.913C505.52 925.739 502.078 925.667 499.904 927.732C497.73 929.797 497.657 933.238 499.722 935.411C533.165 970.622 577.297 989.64 634.581 993.516C655.633 994.929 676.938 994.458 697.518 993.951C717.917 993.48 738.86 993.009 759.549 994.421C759.911 996.16 759.983 997.79 759.549 999.239L759.585 999.131ZM736.939 1461.58C733.751 1464.51 730.997 1467.01 729.113 1469.07C715.091 1484.43 700.562 1500.34 682.735 1510.01C648.06 1528.88 600.885 1522.98 559.615 1494.61C530.049 1474.25 503.128 1443.1 477.584 1399.67C504.94 1412.24 534.796 1417.2 563.311 1413.69C578.457 1411.84 593.167 1407.64 607.407 1403.58C624.183 1398.8 640.016 1394.27 656.72 1393.15C681.72 1391.48 708.315 1398.18 731.686 1412.09C732.628 1412.64 733.678 1413.25 734.874 1413.94C738.679 1416.11 745.273 1419.88 750.49 1424.08C735.562 1428.03 720.997 1433.14 706.794 1438.14C691.829 1443.39 676.358 1448.82 660.85 1452.74C619.871 1463.02 584.761 1459.66 553.565 1442.45C550.956 1441 547.622 1441.94 546.173 1444.59C544.724 1447.23 545.666 1450.53 548.311 1451.98C582.044 1470.56 619.726 1474.25 663.495 1463.28C679.51 1459.26 695.235 1453.75 710.417 1448.39C725.925 1442.92 741.903 1437.34 758.136 1433.39C758.208 1433.75 758.317 1434.12 758.317 1434.44C758.715 1441.54 744.512 1454.58 736.867 1461.58H736.939ZM1095.68 1344.61C1096.04 1339.86 1096.33 1335.77 1096.12 1332.65C1095.5 1324.68 1094.49 1316.68 1093.47 1308.96C1092.57 1301.93 1091.59 1294.65 1091.01 1287.52C1083.98 1202.5 1129.92 1116.68 1203.76 1074.48C1199.96 1095.23 1204.45 1116.43 1208.55 1131.57C1210.07 1137.22 1211.77 1142.87 1213.47 1148.49C1218.33 1164.68 1222.93 1180 1223.98 1196.05C1226.26 1230.57 1210.79 1268.53 1181.52 1300.23C1169.85 1312.87 1155.61 1325.23 1137.93 1338.01C1136.04 1339.35 1133.51 1341.45 1130.25 1344.06C1125.28 1348.08 1113.11 1358.01 1104.52 1363.01C1138.26 1309.94 1162.31 1245.64 1175.65 1171.85C1176.19 1168.92 1174.23 1166.05 1171.26 1165.55C1168.33 1165.04 1165.5 1166.96 1164.96 1169.93C1151.63 1243.76 1128.25 1306.71 1095.17 1358.41C1095.07 1353.63 1095.5 1347.87 1095.75 1344.57L1095.68 1344.61ZM1146.59 1400.14L1149.81 1397.96C1172.89 1382.21 1200.61 1364.53 1231.48 1352.79C1275.69 1335.98 1319.24 1334.93 1354.06 1349.86C1391.41 1365.83 1418.59 1399.59 1442.07 1435.2C1402.72 1433.57 1365.33 1451.18 1329.13 1468.28C1325.87 1469.83 1322.61 1471.36 1319.35 1472.88C1281.45 1490.59 1232.64 1508.56 1191.3 1490.3C1167.39 1479.76 1149.27 1458.13 1133.29 1439.08C1130.28 1435.49 1128.11 1432.27 1126.73 1429.37C1199.31 1409.92 1276.41 1398.18 1356.02 1394.56C1359.02 1394.41 1361.34 1391.88 1361.2 1388.87C1361.05 1385.87 1358.62 1383.58 1355.51 1383.69C1275.83 1387.31 1198.66 1399.05 1125.9 1418.36C1128.62 1412.31 1137.02 1406.62 1146.55 1400.14H1146.59ZM1531.02 416.891C1530.01 421.274 1528.74 425.476 1527.76 428.664C1519.68 454.42 1511.6 480.139 1503.56 505.859C1496.06 529.731 1488.34 554.436 1473.92 575.338C1450.11 609.787 1409.57 630.979 1373.01 647.171C1347.68 658.365 1318.12 670.21 1287.79 668.942C1275.87 668.471 1263.98 665.465 1253.4 660.248C1237.42 652.424 1226.16 640.325 1221.59 626.233C1219.24 618.916 1218.58 611.164 1217.9 602.941C1217.32 595.913 1216.7 588.668 1214.96 581.532C1213.76 576.642 1212.17 571.969 1210.65 567.441C1206.19 554.364 1202.35 543.098 1208.87 530.673C1213.95 520.928 1220.79 519.624 1233.19 517.269L1234.24 517.052C1238.08 516.291 1241.92 515.531 1245.76 514.697C1256.23 512.452 1266.23 509.916 1275.69 507.126C1299.42 500.135 1320.11 491.441 1338.26 480.827C1341.88 478.69 1345.44 476.517 1348.84 474.234C1357.43 468.547 1366.23 461.846 1376.67 453.079C1381.67 448.877 1386.56 444.566 1391.49 440.219L1395.76 436.416C1402.21 430.692 1408.88 424.751 1415.55 419.137C1418.12 416.963 1420.58 414.935 1422.97 413.015C1430.18 407.219 1436.74 402.437 1443.19 398.199C1458.55 388.092 1473.08 381.39 1487.58 377.768C1487.98 377.659 1488.41 377.551 1488.92 377.442C1489.1 377.406 1489.28 377.37 1489.46 377.333C1489.79 377.261 1490.15 377.188 1490.51 377.116C1490.77 377.08 1491.06 377.007 1491.31 376.971C1491.67 376.899 1492.03 376.826 1492.4 376.754C1492.69 376.717 1493.01 376.645 1493.34 376.609C1493.74 376.536 1494.14 376.5 1494.53 376.428C1494.86 376.391 1495.22 376.319 1495.58 376.283C1496.02 376.21 1496.45 376.174 1496.89 376.138C1497.25 376.102 1497.61 376.065 1498.01 376.029C1498.48 375.993 1498.92 375.957 1499.39 375.921C1499.79 375.921 1500.15 375.848 1500.55 375.848C1501.02 375.848 1501.53 375.812 1502.03 375.776C1502.43 375.776 1502.83 375.776 1503.23 375.776C1503.66 375.776 1504.1 375.776 1504.53 375.776C1505.11 375.776 1505.69 375.776 1506.27 375.812C1506.71 375.812 1507.14 375.884 1507.58 375.884C1508.16 375.921 1508.74 375.993 1509.32 376.065C1509.75 376.102 1510.22 376.174 1510.66 376.247C1511.24 376.319 1511.82 376.428 1512.4 376.536C1512.83 376.609 1513.27 376.717 1513.74 376.826C1514.32 376.971 1514.9 377.116 1515.44 377.297C1515.87 377.406 1516.31 377.551 1516.71 377.696C1517.29 377.877 1517.83 378.13 1518.37 378.348C1518.77 378.529 1519.17 378.674 1519.57 378.855C1520.15 379.108 1520.69 379.434 1521.2 379.724C1521.56 379.941 1521.93 380.123 1522.29 380.34C1522.87 380.702 1523.41 381.137 1523.99 381.572C1524.28 381.789 1524.57 381.97 1524.82 382.224C1525.62 382.912 1526.38 383.673 1527.11 384.47C1527.65 385.085 1528.16 385.737 1528.63 386.426C1528.81 386.715 1528.99 387.042 1529.17 387.331C1529.43 387.73 1529.68 388.128 1529.9 388.563C1530.08 388.925 1530.26 389.324 1530.44 389.722C1530.62 390.084 1530.8 390.483 1530.95 390.845C1531.13 391.28 1531.24 391.715 1531.38 392.149C1531.49 392.548 1531.64 392.91 1531.78 393.308C1531.89 393.779 1532 394.25 1532.11 394.721C1532.18 395.12 1532.29 395.518 1532.36 395.953C1532.43 396.424 1532.51 396.967 1532.54 397.438C1532.61 397.873 1532.69 398.344 1532.72 398.778C1532.76 399.285 1532.76 399.793 1532.8 400.3C1532.8 400.807 1532.87 401.314 1532.87 401.821C1532.87 402.328 1532.87 402.836 1532.83 403.343C1532.83 403.922 1532.83 404.466 1532.76 405.045C1532.76 405.118 1532.76 405.19 1532.76 405.263C1532.54 408.704 1531.96 412.508 1530.95 416.854L1531.02 416.891ZM1231.37 494.375C1230.54 494.013 1229.74 493.651 1228.91 493.289C1228.33 493.035 1227.71 492.781 1227.13 492.528C1226.26 492.166 1225.36 491.84 1224.49 491.514C1223.95 491.296 1223.37 491.079 1222.82 490.862C1221.84 490.499 1220.87 490.137 1219.89 489.811C1219.42 489.63 1218.95 489.485 1218.47 489.304C1217.06 488.797 1215.61 488.326 1214.2 487.819C1209.38 486.189 1204.38 484.45 1199.78 482.494C1174.34 471.59 1154.63 449.674 1137.28 430.366L1119.38 410.443C1120.57 409.791 1121.77 409.139 1122.96 408.487C1131.52 403.85 1140.32 399.068 1147.35 391.823C1150.9 388.165 1153.94 383.89 1156.34 379.217C1157.53 376.899 1158.62 374.435 1159.52 371.863C1162.28 364.147 1163.76 355.454 1163.84 346.289C1163.84 344.659 1163.84 342.992 1163.73 341.29C1163.73 341.109 1163.73 340.891 1163.73 340.71C1163.65 339.08 1163.55 337.414 1163.36 335.711C1163.36 335.421 1163.33 335.132 1163.29 334.842C1163.15 333.139 1162.93 331.4 1162.68 329.589C1162.64 329.299 1162.6 328.973 1162.57 328.684C1162.31 326.8 1162.02 324.844 1161.66 322.815V322.743C1161.84 322.598 1162.06 322.453 1162.24 322.308C1162.57 322.091 1162.93 321.873 1163.26 321.692C1163.98 321.257 1164.71 320.859 1165.39 320.533C1165.72 320.388 1166.05 320.207 1166.37 320.062C1167.1 319.772 1167.82 319.519 1168.51 319.338C1168.76 319.265 1169.05 319.156 1169.31 319.12C1170.25 318.903 1171.19 318.794 1172.13 318.758H1172.17C1176.3 318.758 1179.92 320.859 1182.21 322.706C1182.24 322.706 1182.28 322.779 1182.35 322.815C1184.13 324.264 1185.79 326.039 1187.17 327.995C1190.18 332.197 1192.24 337.051 1194.45 342.232C1195.25 344.151 1196.08 346.035 1196.95 347.919C1199.56 353.57 1202.64 359.04 1206.16 364.184C1224.56 391.135 1254.24 409.646 1285.51 413.63C1287.75 413.92 1290.03 414.101 1292.32 414.283C1292.93 414.319 1293.59 414.355 1294.2 414.391C1296.01 414.5 1297.86 414.572 1299.67 414.645C1300.11 414.645 1300.58 414.645 1301.01 414.681C1302.93 414.717 1304.85 414.753 1306.74 414.753C1306.99 414.753 1307.25 414.753 1307.54 414.753C1310.18 414.753 1312.83 414.753 1315.47 414.681C1319.64 414.645 1323.8 414.572 1328.01 414.645C1330.51 414.645 1333.01 414.753 1335.51 414.898C1348.8 415.623 1359.82 418.412 1368.23 423.158C1371.63 425.077 1374.64 427.36 1377.21 429.968C1377.9 430.692 1378.55 431.417 1379.17 432.178C1379.35 432.431 1379.53 432.648 1379.71 432.902C1380.11 433.445 1380.51 433.989 1380.87 434.532C1380.94 434.641 1381.02 434.786 1381.09 434.894C1377.32 438.191 1373.55 441.524 1369.71 444.748C1359.64 453.224 1351.09 459.708 1342.86 465.178C1341.2 466.265 1339.53 467.352 1337.86 468.402C1337.32 468.728 1336.78 469.054 1336.23 469.38C1335.07 470.105 1333.91 470.793 1332.75 471.481C1332.1 471.88 1331.41 472.242 1330.76 472.604C1329.67 473.22 1328.59 473.836 1327.5 474.452C1326.78 474.85 1326.01 475.249 1325.29 475.647C1324.24 476.227 1323.19 476.77 1322.14 477.314C1321.34 477.712 1320.54 478.111 1319.75 478.509C1318.7 479.016 1317.68 479.559 1316.59 480.067C1315.76 480.465 1314.93 480.864 1314.09 481.226C1313.04 481.733 1311.99 482.204 1310.94 482.711C1310.07 483.109 1309.17 483.472 1308.3 483.87C1307.25 484.341 1306.19 484.776 1305.14 485.247C1304.24 485.645 1303.3 486.007 1302.35 486.406C1301.3 486.841 1300.25 487.275 1299.17 487.71C1298.22 488.072 1297.25 488.435 1296.27 488.833C1295.18 489.231 1294.13 489.666 1293.01 490.065C1292.03 490.427 1291.01 490.789 1290 491.151C1288.91 491.55 1287.82 491.948 1286.7 492.311C1285.65 492.673 1284.6 492.999 1283.55 493.361C1282.43 493.723 1281.34 494.086 1280.22 494.448C1279.13 494.774 1278.04 495.136 1276.95 495.462C1275.83 495.824 1274.67 496.15 1273.51 496.513C1272.43 496.839 1271.3 497.165 1270.22 497.454C1269.02 497.781 1267.82 498.143 1266.63 498.469C1265.51 498.759 1264.38 499.085 1263.26 499.374C1262.03 499.7 1260.79 500.026 1259.56 500.352C1258.4 500.642 1257.24 500.932 1256.08 501.222C1254.82 501.548 1253.55 501.838 1252.28 502.164C1251.12 502.454 1249.93 502.707 1248.73 502.997C1247.9 503.178 1247.03 503.395 1246.19 503.576C1245.83 503.287 1245.47 503.033 1245.11 502.743C1244.56 502.309 1244.02 501.874 1243.48 501.475C1242.75 500.968 1242.03 500.461 1241.3 499.954C1240.72 499.592 1240.18 499.193 1239.6 498.831C1238.84 498.36 1238.08 497.925 1237.32 497.491C1236.74 497.165 1236.16 496.839 1235.54 496.513C1234.74 496.114 1233.98 495.716 1233.19 495.317C1232.57 495.027 1231.99 494.738 1231.37 494.448V494.375ZM1149.56 192.37C1151.23 192.225 1152.93 192.008 1154.7 191.718C1155.18 191.645 1155.65 191.573 1156.15 191.464C1158.15 191.102 1160.18 190.631 1162.24 190.051C1173.55 186.9 1184.23 182.082 1194.56 177.409C1199.53 175.163 1204.67 172.808 1209.78 170.744C1211.3 170.128 1212.86 169.512 1214.42 168.932C1230.65 162.81 1244.31 160.891 1256.19 163.064C1269.2 165.455 1282.28 173.207 1296.19 186.719C1300.58 190.993 1304.89 195.558 1309.06 199.977C1316.2 207.584 1323.62 215.481 1332.03 222.328C1333.08 223.197 1334.17 224.066 1335.29 224.9C1335.29 225.407 1335.29 225.95 1335.29 226.457C1335.29 226.675 1335.29 226.892 1335.29 227.109C1335.29 227.146 1335.29 227.218 1335.29 227.254C1335.18 227.182 1335.07 227.109 1335 227.037C1333.37 225.805 1331.74 224.61 1330.04 223.523C1329.67 223.27 1329.28 223.052 1328.88 222.835C1327.54 222.002 1326.2 221.205 1324.82 220.48C1324.24 220.154 1323.66 219.864 1323.08 219.575C1321.81 218.959 1320.58 218.379 1319.27 217.8C1318.73 217.546 1318.19 217.329 1317.61 217.075C1315.8 216.351 1313.98 215.699 1312.14 215.155C1310.72 214.72 1309.27 214.394 1307.83 214.068C1307.39 213.96 1306.99 213.887 1306.56 213.815C1305.43 213.598 1304.27 213.416 1303.15 213.272C1302.9 213.272 1302.64 213.163 1302.43 213.163C1302.35 212.945 1302.28 212.728 1302.21 212.511C1301.96 211.678 1301.67 210.881 1301.38 210.084C1301.23 209.758 1301.12 209.395 1300.94 209.069C1300.47 208.055 1299.96 207.077 1299.35 206.135C1299.31 206.063 1299.27 205.954 1299.2 205.882C1290.32 192.225 1272.5 191.428 1257.06 192.768C1255.98 192.877 1254.93 192.949 1253.87 193.094C1253.66 193.094 1253.4 193.167 1253.15 193.167C1251.7 193.312 1250.14 193.493 1248.55 193.674C1247.79 193.746 1247.03 193.855 1246.27 193.964C1245.87 194 1245.47 194.072 1245.07 194.109C1245.03 194 1244.96 193.928 1244.89 193.819C1244.49 193.022 1244.06 192.225 1243.51 191.464C1237.57 183.386 1226.16 184.183 1222.39 184.437C1221.99 184.437 1221.63 184.509 1221.23 184.545C1219.74 184.654 1218.26 184.799 1216.77 184.98C1216.01 185.089 1215.29 185.197 1214.53 185.306C1213.37 185.487 1212.24 185.632 1211.12 185.849C1210.32 185.994 1209.49 186.139 1208.69 186.32C1207.6 186.538 1206.55 186.755 1205.47 187.009C1204.63 187.19 1203.84 187.407 1203 187.588C1201.95 187.842 1200.9 188.132 1199.85 188.421C1199.05 188.639 1198.22 188.892 1197.42 189.146C1196.37 189.472 1195.29 189.834 1194.24 190.16C1193.47 190.414 1192.68 190.667 1191.92 190.957C1190.76 191.356 1189.63 191.826 1188.51 192.261C1187.86 192.515 1187.17 192.768 1186.52 193.058C1184.78 193.783 1183.04 194.543 1181.34 195.34C1180.87 195.558 1180.39 195.811 1179.89 196.065C1178.62 196.681 1177.35 197.296 1176.12 197.948C1175.43 198.311 1174.74 198.709 1174.05 199.108C1173.04 199.687 1172.02 200.231 1171.05 200.81C1170.32 201.245 1169.6 201.68 1168.87 202.114C1167.93 202.694 1166.99 203.31 1166.05 203.926C1165.32 204.396 1164.63 204.867 1163.91 205.338C1162.97 205.99 1162.06 206.642 1161.12 207.294C1160.43 207.802 1159.78 208.272 1159.13 208.78C1158.18 209.504 1157.24 210.265 1156.3 211.026C1155.72 211.496 1155.1 211.967 1154.52 212.438C1153.4 213.38 1152.31 214.358 1151.23 215.336C1150.86 215.662 1150.47 215.988 1150.1 216.314C1148.69 217.618 1147.31 218.923 1145.97 220.299C1145.9 219.43 1145.86 218.56 1145.79 217.691C1145.57 214.394 1145.36 211.098 1145.18 207.838C1145.1 206.244 1145.03 204.65 1144.96 203.056C1144.81 200.339 1144.7 197.622 1144.63 194.906C1144.63 194.109 1144.6 193.275 1144.56 192.479C1146.01 192.515 1147.49 192.479 1149.02 192.37C1149.23 192.37 1149.45 192.334 1149.63 192.297L1149.56 192.37ZM1225.5 154.08C1226.84 152.704 1228.29 151.4 1229.82 150.204C1236.08 145.278 1244.16 141.438 1254.53 138.467C1273.04 133.179 1294.02 131.693 1318.62 133.939C1333.62 135.316 1352.68 138.286 1367.07 149.081C1379.28 158.282 1387.28 172.736 1394.31 185.523L1412.79 218.923C1412.79 218.923 1412.79 218.995 1412.79 219.031C1412.68 219.357 1412.65 219.683 1412.61 220.009C1412.61 220.19 1412.54 220.372 1412.54 220.516C1412.54 221.024 1412.57 221.531 1412.72 222.038C1413.37 224.429 1413.95 226.856 1414.57 229.247C1412.72 227.725 1410.87 226.276 1408.95 224.827C1408.44 224.429 1407.9 224.066 1407.39 223.704C1405.76 222.509 1404.13 221.35 1402.47 220.227C1401.81 219.792 1401.16 219.357 1400.51 218.923C1398.62 217.691 1396.7 216.496 1394.78 215.3C1394.46 215.119 1394.17 214.902 1393.84 214.72C1391.6 213.416 1389.35 212.149 1387.03 210.917C1386.41 210.591 1385.76 210.265 1385.15 209.939C1383.37 209.033 1381.6 208.164 1379.82 207.331C1379.13 207.005 1378.44 206.679 1377.75 206.389C1375.36 205.338 1372.97 204.288 1370.54 203.346C1369.6 202.984 1368.7 202.658 1367.72 202.332C1367.46 202.259 1367.21 202.151 1366.99 202.078C1365.04 201.426 1363.04 200.919 1361.02 200.593C1360.76 200.557 1360.51 200.52 1360.29 200.484C1359.28 200.339 1358.23 200.267 1357.21 200.267C1356.52 200.267 1355.8 200.303 1355.07 200.376C1355 200.376 1354.93 200.376 1354.86 200.376C1354.06 200.448 1353.3 200.593 1352.5 200.774C1348.62 201.68 1345.04 203.853 1342.1 207.041C1341.3 207.946 1340.54 208.888 1339.89 209.939C1339.71 210.192 1339.57 210.482 1339.42 210.772C1338.95 211.533 1338.48 212.33 1338.08 213.163C1338.08 213.163 1338.08 213.199 1338.04 213.235C1337.1 212.438 1336.2 211.641 1335.25 210.808C1334.46 210.084 1333.62 209.395 1332.83 208.671C1331.78 207.729 1330.8 206.715 1329.78 205.737C1329.02 204.976 1328.22 204.252 1327.46 203.491C1326.49 202.513 1325.51 201.462 1324.49 200.448C1323.73 199.651 1322.93 198.854 1322.17 198.057C1320.47 196.246 1318.73 194.435 1316.99 192.551C1312.75 188.023 1308.37 183.35 1303.77 178.93C1288.26 163.861 1273.33 155.167 1258.15 152.378C1256.59 152.088 1255.03 151.907 1253.44 151.726C1253 151.689 1252.53 151.653 1252.1 151.617C1250.83 151.508 1249.53 151.436 1248.22 151.4C1247.97 151.4 1247.71 151.363 1247.42 151.363C1247.32 151.363 1247.21 151.363 1247.1 151.363C1245.47 151.363 1243.8 151.363 1242.1 151.472C1241.74 151.472 1241.34 151.545 1240.94 151.545C1239.56 151.653 1238.19 151.798 1236.77 151.943C1236.3 152.016 1235.79 152.052 1235.32 152.124C1233.58 152.378 1231.81 152.668 1230 153.03C1230 153.03 1229.96 153.03 1229.92 153.03C1228.48 153.32 1226.99 153.646 1225.47 154.044L1225.5 154.08ZM1463.48 324.445C1463.52 326.8 1463.48 329.154 1463.3 331.473C1461.96 350.165 1453.55 368.676 1440.26 382.296C1439.02 383.564 1438.05 384.433 1437.1 385.122C1435.66 386.136 1434.82 387.838 1434.82 389.577C1434.82 389.976 1434.82 390.338 1434.82 390.736C1433.99 391.316 1433.12 391.932 1432.25 392.511C1431.38 393.127 1430.51 393.707 1429.64 394.323C1428.26 395.301 1426.89 396.315 1425.51 397.366C1424.64 398.018 1423.81 398.633 1422.94 399.285C1421.42 400.445 1419.82 401.676 1418.26 402.944C1417.5 403.56 1416.74 404.103 1415.98 404.755C1413.59 406.675 1411.16 408.668 1408.63 410.805C1405.29 413.594 1401.99 416.456 1398.73 419.354C1396.23 421.564 1393.77 423.737 1391.31 425.911C1390.65 426.49 1390 427.07 1389.35 427.613C1388.95 427.034 1388.48 426.454 1388.04 425.911C1387.79 425.585 1387.57 425.259 1387.32 424.969C1386.56 424.063 1385.76 423.158 1384.93 422.324C1381.63 418.992 1377.83 416.094 1373.55 413.703C1363.7 408.124 1351.09 404.864 1336.09 404.031C1335.18 403.995 1334.31 403.922 1333.41 403.886C1333.41 403.669 1333.41 403.451 1333.41 403.234C1333.44 401.097 1333.55 398.887 1333.77 396.605C1333.77 396.351 1333.77 396.061 1333.84 395.808C1334.06 393.453 1334.38 391.026 1334.78 388.599C1334.86 388.128 1334.93 387.621 1335 387.15C1335.4 384.723 1335.87 382.296 1336.45 379.869C1336.56 379.434 1336.67 379 1336.78 378.565C1337.39 376.029 1338.04 373.457 1338.8 370.958C1340.07 366.828 1341.2 362.735 1342.14 359.04C1342.25 358.714 1342.32 358.424 1342.39 358.098C1342.39 358.098 1342.39 358.026 1342.39 357.989C1345.4 346.108 1347.72 333.827 1349.2 321.547C1350.25 312.962 1350.91 304.268 1351.2 295.719C1351.2 295.647 1351.2 295.574 1351.2 295.502C1351.27 292.93 1351.27 290.358 1351.27 287.822C1351.27 286.482 1351.34 285.141 1351.3 283.801C1351.3 281.193 1351.16 278.548 1351.09 275.94C1351.05 274.6 1351.05 273.296 1350.98 271.956C1350.83 268.695 1350.58 265.471 1350.29 262.247C1350.22 261.559 1350.22 260.835 1350.15 260.146C1349.78 256.198 1349.35 252.286 1348.84 248.373C1348.48 245.729 1348.12 243.157 1347.68 240.549C1347.68 240.476 1347.68 240.368 1347.65 240.295L1347.43 238.882C1347.07 236.636 1346.7 234.391 1346.45 232.108C1346.05 228.522 1346.01 225.697 1346.38 223.161C1346.41 222.799 1346.49 222.473 1346.56 222.074C1347.1 219.212 1348.44 216.423 1350.22 214.431C1351.63 212.873 1353.26 211.859 1355.04 211.424C1358.59 210.591 1362.9 212.076 1366.63 213.525C1369.13 214.503 1371.6 215.554 1374.02 216.64C1374.78 217.003 1375.54 217.401 1376.31 217.763C1377.97 218.56 1379.6 219.321 1381.23 220.19C1382.14 220.661 1383.04 221.205 1383.95 221.712C1385.4 222.509 1386.85 223.27 1388.26 224.103C1389.24 224.682 1390.15 225.298 1391.12 225.878C1392.47 226.711 1393.77 227.508 1395.07 228.377C1396.05 229.029 1396.99 229.718 1397.94 230.37C1399.17 231.239 1400.44 232.072 1401.63 232.978C1402.57 233.702 1403.52 234.463 1404.46 235.187C1405.62 236.093 1406.81 236.999 1407.94 237.941C1408.88 238.701 1409.78 239.534 1410.69 240.331C1411.78 241.273 1412.86 242.215 1413.95 243.193C1414.86 244.026 1415.73 244.896 1416.6 245.765C1417.43 246.598 1418.3 247.431 1419.13 248.265C1419.46 249.786 1420.4 251.126 1421.78 251.923C1422.86 252.539 1423.99 253.517 1425.15 254.568C1433.16 261.921 1441.45 269.529 1447.87 278.222C1450.66 282.026 1453.12 286.083 1455.18 290.322C1460.37 300.935 1463.26 312.745 1463.48 324.481V324.445ZM1315.29 403.777C1313.98 403.777 1312.72 403.777 1311.41 403.777C1310.29 403.777 1309.13 403.777 1308.01 403.777C1300.8 403.777 1293.84 403.632 1286.88 402.763C1258.66 399.141 1231.81 382.405 1215.11 357.953C1211.92 353.316 1209.13 348.39 1206.81 343.282C1205.97 341.507 1205.21 339.66 1204.42 337.848C1202.1 332.378 1199.67 326.727 1196.01 321.583C1195.14 320.352 1194.16 319.193 1193.15 318.07C1192.86 317.744 1192.57 317.454 1192.28 317.164C1191.95 316.802 1191.63 316.44 1191.26 316.114C1191.26 315.86 1191.26 315.57 1191.3 315.28C1191.3 314.882 1191.34 314.483 1191.41 314.121C1191.45 313.65 1191.52 313.179 1191.55 312.708C1191.59 312.31 1191.66 311.948 1191.7 311.549C1191.77 311.078 1191.88 310.607 1191.95 310.136C1192.02 309.738 1192.1 309.376 1192.21 308.977C1192.31 308.506 1192.46 308.072 1192.57 307.637C1192.68 307.238 1192.79 306.876 1192.93 306.478C1193.08 306.079 1193.26 305.681 1193.4 305.319C1193.55 304.956 1193.69 304.558 1193.87 304.196C1194.05 303.87 1194.27 303.544 1194.45 303.218C1194.67 302.855 1194.89 302.493 1195.1 302.167C1195.32 301.877 1195.58 301.66 1195.79 301.406C1196.08 301.117 1196.34 300.79 1196.63 300.537C1196.99 300.247 1197.39 300.03 1197.79 299.776C1198.04 299.631 1198.26 299.414 1198.51 299.305C1199.13 299.015 1199.74 298.798 1200.47 298.653C1200.68 298.617 1200.87 298.617 1201.08 298.581C1201.41 298.545 1201.74 298.472 1202.06 298.436C1202.17 298.436 1202.32 298.472 1202.46 298.472C1209.49 298.581 1218.37 306.405 1222.57 310.209C1223.26 310.825 1223.91 311.441 1224.71 312.129C1226.95 314.121 1229.27 316.041 1231.66 317.961C1256.01 337.45 1285.14 351.215 1315.83 357.699C1318.33 358.243 1320.83 358.714 1323.33 359.185C1325.51 359.619 1327.72 360.054 1329.93 360.489C1330.07 360.489 1330.22 360.561 1330.36 360.597C1329.71 362.952 1329.09 365.307 1328.37 367.698C1328.08 368.676 1327.75 369.799 1327.43 370.994C1327.32 371.356 1327.25 371.755 1327.14 372.117C1326.88 372.986 1326.67 373.892 1326.41 374.87C1326.27 375.377 1326.16 375.921 1326.05 376.464C1325.83 377.37 1325.62 378.311 1325.4 379.253C1325.25 379.905 1325.14 380.557 1325 381.209C1324.82 382.187 1324.64 383.129 1324.46 384.144C1324.31 384.868 1324.2 385.556 1324.09 386.317C1323.91 387.368 1323.77 388.418 1323.62 389.469C1323.51 390.229 1323.41 390.954 1323.33 391.751C1323.19 392.874 1323.08 394.033 1322.97 395.228C1322.9 395.953 1322.83 396.677 1322.79 397.438C1322.68 398.778 1322.64 400.155 1322.61 401.568C1322.61 402.147 1322.54 402.727 1322.54 403.306C1322.54 403.415 1322.54 403.524 1322.54 403.632C1320.14 403.632 1317.72 403.669 1315.33 403.705L1315.29 403.777ZM1168.36 308.18C1167.64 308.289 1166.88 308.434 1166.15 308.615C1165.9 308.687 1165.61 308.76 1165.36 308.832C1164.52 309.05 1163.73 309.34 1162.89 309.666C1162.75 309.738 1162.6 309.774 1162.46 309.81C1161.48 310.209 1160.47 310.68 1159.49 311.187C1159.49 311.187 1159.42 311.187 1159.38 311.223C1159.02 309.484 1158.65 307.782 1158.29 306.043L1157.1 300.356C1155.54 292.712 1154.13 285.033 1152.86 277.281C1150.61 263.805 1148.73 250.185 1147.35 236.6L1147.24 235.332V235.115C1147.53 234.717 1147.86 234.354 1148.18 233.956C1148.91 233.123 1149.6 232.289 1150.32 231.493C1150.9 230.877 1151.48 230.261 1152.06 229.645C1152.75 228.921 1153.47 228.16 1154.2 227.435C1154.85 226.783 1155.5 226.168 1156.15 225.552C1156.84 224.9 1157.57 224.211 1158.26 223.559C1158.98 222.907 1159.71 222.291 1160.43 221.676C1161.12 221.096 1161.81 220.48 1162.53 219.901C1163.29 219.285 1164.09 218.669 1164.89 218.053C1165.57 217.51 1166.26 216.966 1166.95 216.459C1167.78 215.843 1168.62 215.264 1169.45 214.684C1170.14 214.213 1170.83 213.706 1171.52 213.272C1172.39 212.692 1173.29 212.149 1174.2 211.569C1174.89 211.134 1175.58 210.7 1176.26 210.301C1177.21 209.758 1178.15 209.214 1179.09 208.707C1179.78 208.309 1180.47 207.946 1181.15 207.584C1182.13 207.077 1183.11 206.57 1184.09 206.099C1184.78 205.773 1185.43 205.411 1186.12 205.085C1187.13 204.614 1188.18 204.179 1189.2 203.708C1189.85 203.418 1190.54 203.129 1191.19 202.839C1192.24 202.404 1193.33 202.006 1194.42 201.607C1195.07 201.354 1195.72 201.1 1196.37 200.883C1197.5 200.484 1198.62 200.158 1199.74 199.796C1200.36 199.615 1200.97 199.397 1201.63 199.216C1202.82 198.854 1204.05 198.564 1205.25 198.238C1205.79 198.093 1206.37 197.948 1206.92 197.804C1208.26 197.478 1209.63 197.224 1210.97 196.934C1211.41 196.862 1211.84 196.753 1212.28 196.681C1214.02 196.355 1215.79 196.101 1217.57 195.847C1217.57 195.847 1217.64 195.847 1217.68 195.847C1219.49 195.63 1221.34 195.449 1223.15 195.304C1229.16 194.869 1233.19 195.775 1234.78 197.948C1234.78 197.985 1234.82 198.021 1234.85 198.093C1235.32 198.782 1235.58 199.47 1235.58 200.303C1235.61 201.752 1235.07 203.6 1233.95 205.737C1232.28 208.961 1229.56 212.293 1227.68 214.503C1225.58 216.966 1223.62 219.538 1221.7 222.147C1221.59 222.291 1221.45 222.473 1221.34 222.617C1219.53 225.153 1217.82 227.725 1216.19 230.37C1216.01 230.659 1215.83 230.913 1215.68 231.203C1214.13 233.775 1212.64 236.419 1211.26 239.1C1211.08 239.462 1210.9 239.824 1210.72 240.186C1209.38 242.831 1208.15 245.548 1206.99 248.301C1206.81 248.699 1206.63 249.098 1206.48 249.532C1205.36 252.286 1204.31 255.039 1203.37 257.864C1203.22 258.299 1203.08 258.734 1202.93 259.168C1202.03 261.994 1201.19 264.856 1200.47 267.717C1200.36 268.152 1200.25 268.587 1200.14 268.985C1199.42 271.883 1198.8 274.817 1198.29 277.788C1198.22 278.186 1198.18 278.585 1198.11 278.983C1197.6 281.99 1197.21 284.996 1196.92 288.039C1196.92 288.148 1196.92 288.257 1196.88 288.365C1196.77 288.365 1196.66 288.474 1196.52 288.51C1195.68 288.764 1194.89 289.09 1194.09 289.452C1194.05 289.452 1193.98 289.452 1193.95 289.488C1193.91 289.488 1193.87 289.525 1193.84 289.561C1193.33 289.814 1192.82 290.068 1192.31 290.394C1192.17 290.466 1192.02 290.539 1191.92 290.648C1191.37 290.974 1190.87 291.372 1190.32 291.771C1190.18 291.879 1190.07 291.988 1189.92 292.097C1189.38 292.531 1188.84 293.038 1188.29 293.582C1188.22 293.654 1188.15 293.727 1188.08 293.799C1187.57 294.342 1187.06 294.922 1186.59 295.574C1186.52 295.683 1186.41 295.791 1186.34 295.9C1185.83 296.588 1185.36 297.349 1184.89 298.182C1184.81 298.327 1184.71 298.508 1184.63 298.653C1184.16 299.523 1183.73 300.428 1183.33 301.443C1183.29 301.551 1183.26 301.66 1183.18 301.769C1182.79 302.819 1182.39 303.906 1182.06 305.101C1182.06 305.137 1182.06 305.21 1182.02 305.246C1181.7 306.442 1181.41 307.782 1181.15 309.158C1181.15 309.267 1181.12 309.376 1181.08 309.484C1178.15 308.325 1175.1 307.746 1172.06 307.782C1171.08 307.782 1170.14 307.891 1169.16 307.999C1168.91 307.999 1168.69 308.072 1168.44 308.108L1168.36 308.18ZM1249.38 204.541C1250.14 204.433 1250.9 204.36 1251.66 204.288C1252.03 204.252 1252.39 204.215 1252.75 204.179C1253.48 204.107 1254.24 204.034 1254.93 203.926C1255.65 203.853 1256.37 203.781 1257.14 203.708C1268.91 202.621 1284.06 202.658 1290 211.823C1290.22 212.185 1290.32 212.583 1290.54 212.945C1290.18 212.945 1289.85 213.054 1289.49 213.09C1288.15 213.235 1286.85 213.416 1285.54 213.634C1284.89 213.742 1284.27 213.851 1283.62 213.96C1281.74 214.358 1279.85 214.829 1278.04 215.409C1277.1 215.735 1276.23 216.133 1275.29 216.496C1274.2 216.93 1273.11 217.292 1272.1 217.763C1271.56 218.017 1271.05 218.379 1270.51 218.633C1269.2 219.321 1267.9 219.973 1266.66 220.77C1265.54 221.495 1264.49 222.255 1263.44 223.052C1258.29 227.037 1254.06 232.108 1251.19 237.651C1250.36 239.208 1249.64 240.839 1249.06 242.469C1247.39 247.069 1245.87 252.358 1248.4 256.56C1248.73 257.103 1249.09 257.574 1249.49 258.009C1249.56 258.081 1249.67 258.154 1249.74 258.226C1250.07 258.552 1250.4 258.878 1250.79 259.132C1250.94 259.241 1251.08 259.313 1251.23 259.422C1251.56 259.639 1251.92 259.857 1252.28 260.038C1252.46 260.11 1252.64 260.219 1252.82 260.291C1253.19 260.472 1253.55 260.617 1253.91 260.762C1254.09 260.835 1254.31 260.907 1254.53 260.979C1254.93 261.088 1255.29 261.233 1255.69 261.342C1255.9 261.414 1256.12 261.45 1256.34 261.487C1256.74 261.595 1257.17 261.668 1257.61 261.74C1257.82 261.776 1258.04 261.813 1258.26 261.849C1258.73 261.921 1259.2 261.994 1259.67 262.066C1259.85 262.066 1260.03 262.139 1260.22 262.139C1260.4 262.139 1260.58 262.211 1260.76 262.211C1255.25 267.935 1250.29 273.731 1245.98 279.599C1245.5 279.599 1245.03 279.671 1244.53 279.708H1244.45C1237.35 280.432 1231.3 283.439 1227.5 287.967C1226.63 289.017 1225.83 290.104 1225.18 291.3C1224.63 292.35 1224.2 293.473 1223.84 294.632C1223.73 294.922 1223.66 295.212 1223.58 295.538C1223.48 295.9 1223.37 296.226 1223.26 296.588C1220.83 294.668 1218.33 292.966 1215.79 291.553C1215.58 291.444 1215.4 291.336 1215.18 291.227C1214.13 290.684 1213.11 290.177 1212.06 289.706C1211.7 289.561 1211.37 289.452 1211.01 289.307C1210.11 288.945 1209.16 288.655 1208.26 288.402C1208.11 288.365 1207.93 288.293 1207.79 288.257C1207.86 287.424 1207.93 286.59 1208.04 285.757C1208.22 284.308 1208.4 282.859 1208.66 281.41C1208.95 279.671 1209.24 277.969 1209.6 276.266C1209.89 274.854 1210.18 273.441 1210.5 272.028C1210.9 270.325 1211.37 268.623 1211.84 266.92C1212.24 265.544 1212.61 264.203 1213.04 262.827C1213.58 261.124 1214.2 259.458 1214.82 257.792C1215.29 256.488 1215.76 255.184 1216.3 253.916C1216.99 252.213 1217.75 250.547 1218.55 248.917C1219.13 247.685 1219.63 246.49 1220.25 245.294C1221.12 243.592 1222.06 241.925 1223 240.259C1223.62 239.172 1224.2 238.049 1224.85 236.999C1225.94 235.187 1227.13 233.449 1228.33 231.71C1228.91 230.841 1229.45 229.935 1230.07 229.102C1231.92 226.53 1233.84 224.03 1235.9 221.639C1238.29 218.814 1241.34 215.01 1243.51 210.881C1244.02 209.903 1244.49 208.925 1244.85 207.983C1245 207.62 1245.07 207.294 1245.21 206.932C1245.43 206.353 1245.61 205.773 1245.79 205.193C1245.79 205.157 1245.83 205.085 1245.83 205.049C1246.34 204.976 1246.85 204.904 1247.35 204.867C1248.04 204.795 1248.73 204.686 1249.42 204.614L1249.38 204.541ZM1312.9 226.964C1313.26 227.109 1313.66 227.29 1314.02 227.435C1314.93 227.798 1315.83 228.16 1316.7 228.595C1317.17 228.812 1317.61 229.065 1318.08 229.283C1318.88 229.681 1319.67 230.08 1320.47 230.514C1320.94 230.768 1321.41 231.094 1321.92 231.384C1322.68 231.819 1323.41 232.289 1324.17 232.76C1324.67 233.086 1325.14 233.449 1325.65 233.775C1326.34 234.246 1327.07 234.753 1327.75 235.26C1328.26 235.622 1328.73 236.021 1329.24 236.419C1329.89 236.962 1330.58 237.47 1331.23 238.049C1331.74 238.484 1332.21 238.919 1332.72 239.39C1333.33 239.969 1333.95 240.512 1334.57 241.128C1335.07 241.599 1335.54 242.106 1336.05 242.614C1336.45 243.012 1336.85 243.447 1337.21 243.845C1337.5 245.801 1337.79 247.794 1338.08 249.75C1338.59 253.735 1339.02 257.719 1339.38 261.74C1339.49 263.008 1339.57 264.24 1339.64 265.508C1339.86 268.261 1340.04 271.05 1340.18 273.803C1340.18 274.129 1340.18 274.491 1340.18 274.817C1340.07 274.745 1339.96 274.672 1339.89 274.6C1339.38 274.165 1338.84 273.731 1338.26 273.368C1338.01 273.187 1337.75 273.006 1337.5 272.825C1336.63 272.318 1335.72 271.847 1334.67 271.485C1333.8 271.195 1332.93 270.977 1332.07 270.833C1331.78 270.796 1331.49 270.76 1331.2 270.724C1330.62 270.651 1330.07 270.615 1329.49 270.579C1329.42 270.579 1329.31 270.579 1329.24 270.579C1329.06 270.579 1328.88 270.615 1328.73 270.615C1327.93 270.615 1327.14 270.688 1326.38 270.833C1326.12 270.869 1325.87 270.905 1325.62 270.941C1324.67 271.122 1323.73 271.34 1322.79 271.593C1322.68 271.593 1322.57 271.666 1322.46 271.702C1321.63 271.956 1320.8 272.245 1319.96 272.535C1319.71 272.644 1319.46 272.716 1319.24 272.789C1318.44 273.079 1317.68 273.405 1316.92 273.694C1316.92 273.694 1316.92 273.694 1316.88 273.694C1316.3 273.151 1315.69 272.608 1315.07 272.064C1300.98 259.494 1286.7 255.546 1273.4 253.155C1273.4 253.155 1273.4 253.155 1273.37 253.155C1270.98 252.72 1268.44 252.358 1265.94 251.996C1265.14 251.887 1264.38 251.742 1263.58 251.633C1262.17 251.452 1259.56 251.09 1258.15 250.692C1258.26 249.931 1258.58 248.554 1259.45 246.164C1260 244.606 1260.72 243.048 1261.59 241.563C1263.51 238.23 1266.19 235.115 1269.31 232.507C1270.4 231.601 1271.56 230.696 1272.75 229.935C1273.87 229.21 1275.11 228.558 1276.34 227.943C1276.56 227.834 1276.74 227.725 1276.92 227.617C1277.5 227.327 1278.11 227.146 1278.73 226.892C1279.67 226.494 1280.58 226.095 1281.56 225.769C1282.82 225.371 1284.09 225.008 1285.4 224.719C1285.76 224.646 1286.12 224.61 1286.48 224.537C1287.43 224.356 1288.37 224.175 1289.35 224.03C1289.71 223.994 1290.11 223.958 1290.47 223.922C1292.79 223.668 1295.14 223.596 1297.54 223.704C1301.41 223.885 1305.29 224.537 1309.09 225.66C1310.4 226.059 1311.7 226.494 1312.97 226.964H1312.9ZM1325.4 348.571C1322.97 348.1 1320.51 347.629 1318.08 347.122C1289.06 341 1261.52 327.995 1238.48 309.557C1237.03 308.361 1235.58 307.166 1234.13 305.934C1233.95 305.753 1233.73 305.608 1233.55 305.427C1233.55 305.174 1233.51 304.92 1233.48 304.667C1233.48 304.304 1233.48 303.942 1233.48 303.58C1233.48 302.964 1233.48 302.348 1233.55 301.805C1233.55 301.479 1233.58 301.153 1233.62 300.827C1233.69 300.283 1233.8 299.776 1233.91 299.269C1233.98 298.979 1234.02 298.689 1234.09 298.4C1234.24 297.892 1234.45 297.422 1234.63 296.951C1234.71 296.77 1234.78 296.552 1234.85 296.371C1235.47 295.176 1236.45 294.198 1237.57 293.364C1239.89 291.698 1242.93 290.829 1245.54 290.539C1245.9 290.503 1246.3 290.539 1246.66 290.503C1247.35 290.466 1248.04 290.394 1248.77 290.43C1251.88 290.43 1255.11 290.865 1258.48 291.336C1259.78 291.517 1261.12 291.698 1262.43 291.843C1280.94 294.016 1299.96 291.698 1317.43 285.178C1318.3 284.852 1319.17 284.526 1320.04 284.163L1320.65 283.91C1324.42 282.388 1328.3 280.831 1330.98 281.772C1333.62 282.714 1335.51 286.337 1337.17 289.995L1337.75 291.263C1338.59 293.038 1339.38 294.813 1340.18 296.588C1340.07 299.197 1339.93 301.805 1339.75 304.449C1339.67 305.681 1339.64 306.912 1339.53 308.144C1339.2 312.201 1338.8 316.222 1338.33 320.243C1338.01 322.996 1337.61 325.749 1337.17 328.502C1337.03 329.408 1336.88 330.277 1336.74 331.147C1336.45 333.03 1336.12 334.914 1335.76 336.798C1335.58 337.812 1335.4 338.79 1335.18 339.805C1334.82 341.616 1334.46 343.391 1334.09 345.166C1333.88 346.144 1333.66 347.158 1333.44 348.136C1333.3 348.824 1333.12 349.477 1332.97 350.165C1332.75 350.129 1332.5 350.056 1332.28 350.02C1329.96 349.513 1327.61 349.078 1325.33 348.643L1325.4 348.571ZM1274.09 264.385C1285.36 266.594 1295.14 270.036 1304.85 277.752C1291.52 281.446 1277.5 282.606 1263.73 281.012C1262.5 280.867 1261.23 280.686 1259.96 280.541C1259.71 280.541 1259.42 280.468 1259.16 280.432C1263.58 275.035 1268.55 269.673 1274.09 264.385ZM1546.46 271.485C1561.46 291.01 1568.92 308.796 1569.28 325.786C1569.79 349.549 1556.17 372.008 1542.4 390.918C1542.36 390.736 1542.29 390.592 1542.25 390.41C1542.07 389.722 1541.82 389.034 1541.6 388.346C1541.42 387.802 1541.27 387.295 1541.06 386.788C1540.77 386.1 1540.48 385.411 1540.15 384.759C1539.93 384.288 1539.75 383.818 1539.5 383.383C1539.14 382.658 1538.7 381.97 1538.27 381.282C1538.05 380.92 1537.83 380.557 1537.61 380.195C1536.93 379.181 1536.17 378.203 1535.37 377.261C1534.57 376.355 1533.7 375.486 1532.83 374.689C1532.58 374.472 1532.32 374.254 1532.07 374.001C1531.35 373.385 1530.59 372.769 1529.79 372.226C1529.57 372.081 1529.35 371.9 1529.1 371.718C1528.09 371.03 1527.03 370.414 1525.95 369.835C1525.69 369.69 1525.44 369.581 1525.15 369.436C1524.24 369.002 1523.34 368.567 1522.4 368.168C1522.07 368.024 1521.71 367.879 1521.38 367.77C1520.19 367.335 1518.95 366.901 1517.69 366.538C1517.69 366.538 1517.65 366.538 1517.61 366.538C1516.31 366.176 1515.01 365.923 1513.63 365.669C1513.23 365.596 1512.83 365.524 1512.43 365.488C1511.35 365.307 1510.22 365.162 1509.06 365.053C1508.74 365.053 1508.41 364.981 1508.08 364.944C1506.64 364.836 1505.19 364.763 1503.7 364.763C1503.59 364.763 1503.52 364.763 1503.41 364.763C1503.08 364.763 1502.76 364.763 1502.4 364.763C1501.49 364.763 1500.55 364.8 1499.61 364.872C1499.1 364.872 1498.56 364.944 1498.05 364.981C1497.14 365.053 1496.24 365.126 1495.33 365.234C1494.79 365.307 1494.28 365.343 1493.74 365.415C1492.76 365.56 1491.78 365.705 1490.8 365.886C1490.33 365.959 1489.86 366.031 1489.39 366.14C1487.94 366.43 1486.45 366.756 1484.97 367.118C1482.87 367.625 1480.8 368.241 1478.7 368.857C1478.01 369.074 1477.32 369.328 1476.6 369.545C1475.22 369.98 1473.81 370.451 1472.4 370.958C1471.56 371.248 1470.73 371.574 1469.9 371.9C1468.63 372.371 1467.36 372.878 1466.09 373.421C1465.22 373.783 1464.32 374.182 1463.45 374.58C1462.21 375.124 1460.98 375.667 1459.75 376.247C1459.32 376.464 1458.88 376.645 1458.45 376.826C1459.75 374.906 1460.95 372.914 1462.07 370.885C1462.4 370.306 1462.68 369.726 1463.01 369.147C1463.88 367.553 1464.71 365.923 1465.47 364.256C1465.8 363.604 1466.09 362.952 1466.38 362.264C1467.29 360.235 1468.08 358.207 1468.84 356.142C1468.92 355.924 1469.03 355.707 1469.1 355.49C1469.9 353.208 1470.58 350.925 1471.2 348.607C1471.38 347.955 1471.53 347.267 1471.71 346.615C1472.14 344.876 1472.5 343.101 1472.83 341.326C1472.94 340.638 1473.08 339.949 1473.19 339.261C1473.55 336.907 1473.88 334.516 1474.03 332.125C1475.58 310.607 1469.35 289.126 1456.49 271.593C1449.46 262.03 1440.76 254.061 1432.32 246.345C1431.34 245.439 1430.29 244.533 1429.17 243.7C1428.01 238.484 1426.74 233.231 1425.44 227.979C1436.81 230.225 1448.52 230.587 1459.89 230.949C1474.06 231.42 1487.43 231.855 1500.04 235.586C1501.89 236.129 1503.7 236.745 1505.58 237.47C1519.79 243.048 1533.16 254.097 1546.38 271.34L1546.46 271.485ZM1145.9 107.061C1161.23 91.81 1181.7 81.7758 1199.74 73.9874C1218.11 66.0542 1238.04 58.5919 1258.91 57.8674C1280.58 57.143 1302.06 63.7721 1322.83 70.2201C1355.54 80.3992 1389.39 90.9044 1421.23 104.38C1437.79 111.408 1454.79 119.703 1466.85 132.78C1479.42 146.437 1487.32 165.745 1491.6 193.529C1492.69 200.448 1493.48 207.584 1494.24 214.503C1494.57 217.437 1494.9 220.372 1495.26 223.306C1494.97 223.233 1494.64 223.233 1494.35 223.161C1491.85 222.69 1489.35 222.255 1486.82 221.929C1486.45 221.893 1486.09 221.857 1485.77 221.821C1483.37 221.531 1481.02 221.313 1478.63 221.096C1478.16 221.06 1477.72 221.024 1477.25 220.987C1474.68 220.806 1472.14 220.661 1469.57 220.553C1468.95 220.553 1468.3 220.516 1467.68 220.48C1465.22 220.372 1462.76 220.299 1460.33 220.227C1447.58 219.828 1435.47 219.393 1423.95 216.604L1403.84 180.271C1396.27 166.542 1387.68 151.001 1373.62 140.387C1357.07 127.926 1336.09 124.593 1319.64 123.108C1293.66 120.717 1271.37 122.311 1251.56 127.999C1239.82 131.331 1230.5 135.823 1223.11 141.655C1216.63 146.763 1211.52 153.066 1208.44 159.586C1207.53 159.949 1206.59 160.311 1205.68 160.673C1200.39 162.81 1195.14 165.201 1190.1 167.483C1179.71 172.193 1169.89 176.648 1159.38 179.546C1157.64 180.017 1156.01 180.416 1154.38 180.705C1153.94 180.778 1153.51 180.85 1153.07 180.923C1151.84 181.14 1150.68 181.285 1149.52 181.394C1149.13 181.43 1148.73 181.466 1148.36 181.502C1146.95 181.611 1145.54 181.647 1144.23 181.575C1144.23 179.438 1144.16 177.337 1144.16 175.199C1144.16 165.491 1144.34 155.602 1144.78 145.821C1145.1 138.902 1145.54 128.433 1138.69 121.297C1137.97 120.536 1137.13 119.848 1136.26 119.196C1136.15 119.123 1136.08 119.015 1135.97 118.942C1138.87 114.704 1142.2 110.719 1145.9 107.024V107.061ZM1002.93 289.488C1015.75 228.413 1052.46 171.867 1103.58 134.302C1108.11 130.969 1113 127.6 1118.29 126.296C1119.63 125.97 1121.04 125.789 1122.39 125.789C1123.87 125.789 1125.28 125.97 1126.59 126.368C1128.29 126.876 1129.78 127.709 1130.79 128.795C1134.16 132.309 1134.16 138.612 1133.87 145.35C1133.44 155.312 1133.22 165.382 1133.26 175.236C1133.26 179.003 1133.33 182.734 1133.4 186.501C1133.47 190.993 1133.65 195.558 1133.83 200.086C1134.12 207.403 1134.56 214.721 1135.1 222.038C1135.39 225.986 1135.76 229.971 1136.12 233.92L1136.33 236.021L1136.48 237.687C1137.78 250.764 1139.6 263.877 1141.73 276.918C1143.15 285.504 1144.67 294.089 1146.41 302.529L1147.57 308.035C1148.51 312.419 1149.41 316.838 1150.25 321.221C1150.72 323.721 1151.12 326.075 1151.44 328.321C1152.46 335.059 1152.89 340.71 1152.86 346.108C1152.78 356.613 1150.61 366.321 1146.55 374.146C1144.63 377.913 1142.24 381.282 1139.41 384.18C1133.54 390.229 1125.83 394.431 1117.64 398.851C1115.72 399.901 1113.73 400.952 1111.77 402.075L1081.33 368.241C1077.02 363.423 1072.09 357.989 1065.61 354.475C1057.67 350.165 1048.54 349.803 1041.84 353.534C1030.72 359.656 1029.63 372.769 1028.8 383.31C1028.65 385.122 1028.51 386.933 1028.29 388.672C1027.13 399.104 1023 408.957 1018.65 419.39C1017.82 421.346 1017.02 423.302 1016.22 425.295C1015.97 425.874 1015.75 426.49 1015.5 427.07C1014.81 428.736 1014.19 430.439 1013.54 432.141C1013.4 432.54 1013.22 432.938 1013.07 433.337C1005.28 414.391 1000.28 389.143 998.142 357.917C996.548 334.697 998.142 311.658 1002.82 289.38L1002.93 289.488ZM1019.74 449.674C1020.21 447.464 1020.79 445.218 1021.48 442.864C1023.4 436.416 1026.11 429.932 1028.72 423.665C1033.18 412.978 1037.82 401.93 1039.16 389.94C1039.38 388.092 1039.52 386.172 1039.67 384.252C1039.77 382.912 1039.88 381.608 1039.99 380.376C1040.86 371.718 1042.24 365.814 1047.13 363.097C1047.78 362.735 1048.54 362.481 1049.3 362.264C1049.45 362.228 1049.59 362.191 1049.74 362.155C1050.5 362.01 1051.3 361.902 1052.09 361.902C1052.31 361.902 1052.56 361.902 1052.78 361.902C1053.14 361.902 1053.51 361.938 1053.9 361.974C1054.16 361.974 1054.41 362.046 1054.7 362.083C1055.1 362.155 1055.5 362.228 1055.86 362.336C1056.12 362.409 1056.37 362.445 1056.62 362.517C1057.06 362.626 1057.49 362.807 1057.93 362.952C1058.14 363.025 1058.36 363.097 1058.58 363.169C1059.23 363.423 1059.85 363.713 1060.5 364.075C1065.35 366.683 1069.41 371.211 1073.33 375.558L1106.19 412.073L1106.73 412.689L1129.16 437.611C1147.28 457.752 1167.82 480.61 1195.47 492.455C1200.47 494.593 1205.65 496.368 1210.65 498.07C1212.24 498.614 1213.84 499.157 1215.43 499.7C1215.94 499.882 1216.45 500.063 1216.92 500.244C1218.11 500.678 1219.27 501.113 1220.43 501.548C1220.97 501.765 1221.48 501.946 1222.03 502.164C1223.33 502.671 1224.63 503.214 1225.9 503.758C1226.19 503.866 1226.48 503.975 1226.74 504.12C1228.22 504.808 1229.67 505.496 1231.08 506.257C1231.19 506.33 1231.3 506.402 1231.45 506.474H1231.19C1218.11 509.01 1206.81 511.184 1199.27 525.565C1190.61 542.12 1195.58 556.754 1200.39 570.882C1201.84 575.193 1203.37 579.612 1204.45 584.032C1206.01 590.335 1206.55 596.855 1207.13 603.774C1207.82 612.251 1208.58 620.981 1211.3 629.494C1211.92 631.414 1212.68 633.333 1213.51 635.181C1213.76 635.76 1214.05 636.34 1214.34 636.92C1214.96 638.188 1215.61 639.455 1216.34 640.723C1216.7 641.339 1217.06 641.991 1217.46 642.607C1218.22 643.839 1219.02 645.034 1219.89 646.229C1220.25 646.773 1220.61 647.28 1221.01 647.823C1222.28 649.49 1223.62 651.12 1225.03 652.677C1225.11 652.75 1225.18 652.822 1225.25 652.895C1226.63 654.38 1228.11 655.829 1229.67 657.206C1230.18 657.676 1230.72 658.111 1231.23 658.546C1232.39 659.56 1233.58 660.502 1234.82 661.444C1235.43 661.915 1236.05 662.349 1236.7 662.82C1237.17 663.146 1237.61 663.509 1238.08 663.835C1234.82 664.632 1231.27 665.284 1227.35 665.791C1186.44 670.935 1142.31 658.872 1106.26 632.681C1073.43 608.846 1047.27 573.961 1030.61 531.832C1018.36 500.932 1014.74 473.329 1019.85 449.674H1019.74ZM1081.84 627.175V626.777C1087.57 632.029 1093.54 636.92 1099.78 641.448C1132.24 664.994 1170.9 677.781 1208.51 677.781C1215.29 677.781 1221.99 677.383 1228.66 676.513C1230.65 676.26 1232.53 675.934 1234.42 675.608C1227.53 728.423 1195.58 774.755 1164.63 819.601L1163.47 821.267C1120.94 882.886 1073.94 953.741 1029.12 1031.55L1022.06 1007.75C1047.89 940.302 1050.68 865.099 1029.99 795.91C1029.88 795.548 1029.74 795.258 1029.59 794.932C1067.02 748.13 1087.17 687.417 1081.88 627.175H1081.84ZM1021.15 804.894C1038 865.425 1036.4 930.376 1016.73 990.002L973.975 845.683C973.975 845.683 973.903 845.538 973.866 845.465C991.403 834.163 1007.27 820.434 1021.15 804.93V804.894ZM964.301 851.261L1005.97 991.849C966.33 962.036 936.039 919.146 921.474 871.837C925.387 870.026 929.336 868.251 933.177 866.548C939.771 863.614 946.619 860.607 953.214 857.275C956.982 855.391 960.641 853.362 964.301 851.261ZM879.625 843.509C880.168 839.38 880.639 836.083 880.82 833.801C882.559 812.066 885.676 793.447 890.422 776.928C902.306 735.451 926.691 702.45 957.344 686.475C971.62 679.049 987.816 674.811 1003.47 670.717C1009.16 669.232 1014.85 667.747 1020.46 666.117C1035.53 661.734 1056.01 654.561 1071.73 640.506C1074.09 725.489 1024.66 809.349 948.358 847.566C941.981 850.754 935.242 853.725 928.793 856.623C921.655 859.774 914.299 863.034 907.162 866.693C904.372 868.106 901.038 870.497 897.161 873.286C894.48 875.206 889.734 878.575 885.639 881.002C912.597 825.868 954.228 773.197 1010.39 723.388C1012.64 721.396 1012.85 717.954 1010.86 715.708C1008.87 713.463 1005.43 713.245 1003.18 715.238C947.127 764.938 904.734 818.876 876.943 875.17C876.762 865.172 878.827 849.849 879.661 843.546L879.625 843.509ZM722.845 1268.39C706.286 1272.88 687.518 1277.99 669.691 1273.64C638.495 1266.03 616.248 1232.2 600.341 1203.58L596.211 1196.12C581.247 1168.95 565.811 1140.99 542.187 1123.45C568.746 1112.55 596.646 1104.65 623.82 1111.64C650.017 1118.38 675.416 1139.14 695.416 1170.08C709.439 1191.77 719.366 1215.79 727.193 1236.44L728.28 1239.3C730.562 1245.21 732.591 1250.6 733.425 1254.99C697.917 1210.5 657.191 1168.55 612.189 1130.3C609.907 1128.34 606.465 1128.63 604.544 1130.92C602.588 1133.2 602.878 1136.64 605.16 1138.56C651.176 1177.65 692.59 1220.57 728.497 1266.18C726.939 1266.98 725.091 1267.7 722.809 1268.35L722.845 1268.39ZM883.139 1353.92C881.98 1357.61 880.82 1361.34 879.661 1365.11C889.951 1262.52 888.393 1170.29 865.421 1076.8C864.588 1060.89 860.095 1045.28 852.704 1031.81C851.544 1028.18 850.348 1024.6 849.153 1020.97C851.146 977.613 861.218 935.411 879.298 894.477C886.762 893.97 895.748 887.595 903.466 882.089C906.582 879.843 909.517 877.778 911.582 876.619C928.43 929.942 964.337 977.649 1010.9 1008.59L1021.08 1042.96C1021.22 1043.43 1021.48 1043.87 1021.73 1044.3C968.069 1138.89 918.031 1243.43 883.103 1353.92H883.139ZM1308.08 870.823C1312.57 870.823 1317.03 871.185 1319.89 871.402C1321.12 871.511 1322.28 871.583 1323.26 871.656C1347.75 873.177 1371.02 881.69 1388.81 895.637C1400.69 904.983 1410.26 916.43 1420.36 928.529C1428.95 938.853 1437.87 949.503 1448.26 958.668C1467.5 975.548 1491.89 987.032 1518.27 991.777C1477.65 1010.79 1442.1 1020.14 1410.04 1020.29C1409.78 1020.29 1409.57 1020.29 1409.35 1020.29C1364.46 1020.29 1326.59 1000.76 1310.47 969.245C1302.14 952.98 1299.38 933.709 1296.74 915.089C1296.38 912.554 1295.61 909.257 1294.71 905.454C1292.57 896.397 1288.62 879.517 1292.43 874.59C1292.5 874.518 1292.57 874.445 1292.64 874.373C1302.61 885.494 1311.63 897.629 1320.36 909.474C1329.02 921.248 1337.97 933.419 1347.9 944.612C1375.15 975.295 1405.36 991.813 1440.26 995.11C1440.44 995.11 1440.62 995.11 1440.76 995.11C1443.52 995.11 1445.91 993.009 1446.16 990.183C1446.45 987.213 1444.24 984.532 1441.27 984.279C1409.24 981.236 1381.38 965.913 1356.02 937.368C1346.38 926.536 1337.61 914.582 1329.09 903.026C1321.2 892.304 1313.12 881.328 1304.2 870.931C1305.51 870.859 1306.85 870.823 1308.15 870.823H1308.08ZM1534.75 778.16L1527.87 781.637C1501.45 794.896 1467.65 808.806 1440.58 798.663C1425.11 792.867 1413.73 779.536 1403.66 767.727C1402.39 766.242 1401.49 764.902 1400.76 763.634C1450.58 748.057 1503.01 737.226 1557.72 731.43C1560.69 731.104 1562.87 728.423 1562.54 725.453C1562.22 722.482 1559.57 720.309 1556.56 720.635C1503.66 726.25 1452.87 736.501 1404.46 751.136C1407.14 748.854 1410.58 746.463 1414.28 743.891L1416.56 742.297C1432.94 730.887 1452.61 717.954 1474.17 708.898C1493.01 700.965 1511.42 696.944 1528.12 696.944C1538.59 696.944 1548.41 698.538 1557.25 701.726C1580.77 710.202 1597.44 729.945 1611.6 751.281C1585.19 752.621 1559.61 765.554 1534.75 778.124V778.16Z" fill="#0A0A0A"/>
</g>
<defs>
<clipPath id="clip0_157_184">
<rect width="1265" height="1906" fill="white" transform="translate(367 47)"/>
</clipPath>
</defs>
</svg>
