<svg width="2000" height="2000" viewBox="0 0 2000 2000" fill="none" xmlns="http://www.w3.org/2000/svg">
<g clip-path="url(#clip0_157_180)">
<path d="M684.255 1012.23C685.173 1013.27 686.426 1013.82 687.711 1013.82C688.781 1013.82 689.851 1013.46 690.707 1012.69C692.634 1011.04 692.848 1008.14 691.166 1006.21C678.966 992.11 663.218 981.375 645.606 975.136C643.221 974.31 640.591 975.534 639.765 977.95C638.909 980.335 640.163 982.965 642.548 983.791C658.632 989.48 673.064 999.297 684.225 1012.2L684.255 1012.23Z" fill="#0A0A0A"/>
<path d="M762.625 963.178C762.808 963.178 762.991 963.208 763.206 963.208C765.499 963.208 767.456 961.496 767.762 959.171C769.474 945.164 769.81 930.973 768.679 916.935C768.495 914.397 766.233 912.531 763.756 912.715C761.218 912.929 759.353 915.131 759.536 917.639C760.606 931.065 760.301 944.644 758.65 958.04C758.344 960.547 760.117 962.841 762.625 963.147V963.178Z" fill="#0A0A0A"/>
<path d="M655.145 888.981C675.418 911.338 696.822 938.557 701.806 970.792C702.143 973.055 704.1 974.676 706.332 974.676C706.576 974.676 706.79 974.676 707.035 974.615C709.542 974.218 711.255 971.893 710.857 969.385C705.506 934.734 683.124 906.169 661.934 882.803C657.897 878.368 653.8 873.964 649.703 869.56C631.846 850.415 613.377 830.597 601.574 807.261C600.443 804.998 597.66 804.081 595.397 805.243C593.135 806.374 592.217 809.157 593.379 811.421C605.733 835.918 624.66 856.195 642.976 875.83C647.042 880.203 651.14 884.577 655.115 888.981H655.145Z" fill="#0A0A0A"/>
<path d="M729.57 1142.58C728.989 1140.1 726.512 1138.57 724.035 1139.19C674.164 1151.14 630.102 1183.01 603.133 1226.66C601.787 1228.8 602.46 1231.64 604.631 1232.96C605.395 1233.41 606.221 1233.63 607.047 1233.63C608.576 1233.63 610.074 1232.86 610.961 1231.46C636.645 1189.86 678.659 1159.49 726.206 1148.09C728.683 1147.51 730.181 1145.03 729.6 1142.55L729.57 1142.58Z" fill="#0A0A0A"/>
<path d="M857.904 1026.42C858.913 1026.42 859.922 1026.09 860.778 1025.41C875.761 1013.3 893.618 1004.59 912.393 1000.21C914.869 999.633 916.398 997.186 915.817 994.709C915.236 992.231 912.79 990.702 910.313 991.283C890.193 995.963 871.083 1005.29 855.03 1018.29C853.073 1019.88 852.767 1022.78 854.357 1024.74C855.274 1025.87 856.589 1026.45 857.934 1026.45L857.904 1026.42Z" fill="#0A0A0A"/>
<path d="M719.143 990.886C720.763 1007.22 725.166 1023.27 731.955 1038.26C726.053 1037.1 719.449 1038.44 716.269 1043.4C715.321 1044.87 714.25 1047.56 714.893 1051.26C711.468 1048.54 708.074 1045.81 704.649 1043.15C707.371 1039.33 707.707 1034.41 705.352 1029.42C703.304 1025.08 698.931 1021.87 693.336 1020.58C686.7 1019.05 679.515 1021.19 675.448 1025.87C672.268 1029.54 671.442 1034.28 673.185 1038.84C673.888 1040.71 675.05 1042.54 676.579 1044.25C680.034 1048.14 685.049 1049.85 690.003 1049.85C692.388 1049.85 694.712 1049.42 696.883 1048.66C696.974 1048.72 697.035 1048.81 697.127 1048.87C702.509 1053.06 707.86 1057.34 713.241 1061.63C724.402 1070.56 735.838 1079.64 747.733 1088.14C731.832 1080.89 713.394 1078.81 696.424 1082.67C695.996 1082.76 695.598 1082.94 695.231 1083.16C692.326 1078.17 687.404 1074.93 681.594 1074.32C672.543 1073.37 665.969 1078.08 664.807 1086.31C663.553 1095.08 669.455 1105.79 680.187 1107.72C681.38 1107.93 682.511 1108.02 683.612 1108.02C688.076 1108.02 691.898 1106.31 694.528 1103.01C696.944 1099.98 698.044 1095.91 697.769 1091.69C697.983 1091.69 698.197 1091.66 698.442 1091.6C717.064 1087.38 737.673 1091.2 753.542 1101.81C754.337 1102.33 755.224 1102.58 756.08 1102.58C757.548 1102.58 759.016 1101.87 759.902 1100.53C760.667 1099.4 760.82 1098.08 760.514 1096.86C762.807 1098.36 765.131 1099.83 767.485 1101.26C768.219 1101.72 769.045 1101.94 769.87 1101.94C771.155 1101.94 772.378 1101.39 773.265 1100.41C774.916 1101.63 776.567 1102.82 778.279 1104.11C779.074 1104.69 780.053 1104.99 780.97 1104.99C782.132 1104.99 783.263 1104.57 784.15 1103.71C785.74 1102.18 786.015 1099.7 784.762 1097.84C777.79 1087.44 772.255 1076.18 768.342 1064.32C767.975 1063.22 767.638 1061.6 767.302 1059.91C766.874 1057.74 766.385 1055.42 765.681 1053.25C766.935 1052.73 768.066 1052.05 769.137 1051.26C769.534 1061.35 771.766 1071.35 775.986 1080.47C776.75 1082.15 778.432 1083.13 780.144 1083.13C780.787 1083.13 781.459 1083 782.071 1082.7C782.652 1082.42 783.141 1082.06 783.538 1081.63C783.538 1086.25 784.333 1090.86 785.862 1095.24C786.535 1097.13 788.309 1098.3 790.174 1098.3C790.694 1098.3 791.183 1098.2 791.703 1098.02C793.384 1097.44 794.485 1095.94 794.699 1094.29C795.555 1095.27 796.778 1095.91 798.124 1095.91C798.491 1095.91 798.888 1095.85 799.255 1095.76C801.701 1095.12 803.2 1092.64 802.558 1090.16C800.815 1083.34 801.763 1075.85 805.187 1069.67C806.41 1067.47 805.615 1064.65 803.383 1063.43C801.182 1062.21 798.368 1063 797.145 1065.24C794.883 1069.33 793.446 1073.86 792.834 1078.48C793.079 1075.91 793.598 1073.37 794.455 1070.95C795.28 1068.57 794.026 1065.94 791.641 1065.11C789.256 1064.29 786.627 1065.54 785.801 1067.93C784.914 1070.46 784.303 1073.06 783.936 1075.73C773.815 1053.03 777.209 1024.62 792.131 1004.77C793.446 1005.29 794.791 1005.69 796.228 1005.87C796.992 1005.96 797.726 1006.03 798.491 1006.03C806.961 1006.03 814.88 999.633 816.348 991.161C817.968 981.925 811.578 972.475 802.405 970.518C793.231 968.56 783.538 974.585 781.245 983.669C781.123 984.127 781.092 984.586 781.123 985.045C780.939 985.442 780.848 985.901 780.787 986.36C780.328 991.1 781.918 995.718 784.823 999.297C778.952 1007.13 774.671 1016.09 772.041 1025.57C768.984 1021.99 765.1 1019.97 760.697 1019.79C755.713 1019.57 750.301 1021.93 746.448 1026.09C743.391 1029.42 741.77 1033.24 741.464 1037.04C734.982 1023.46 730.609 1008.9 728.683 994.006C735.135 993.884 741.495 989.969 743.941 983.852C747.121 975.9 742.993 966.022 735.104 962.688C727.613 959.538 718.287 962.933 714.403 969.967C713.486 970.579 712.813 971.527 712.538 972.689C710.948 979.479 713.822 986.757 719.082 990.795L719.143 990.886ZM683.459 1038.14C682.664 1037.22 682.083 1036.33 681.777 1035.51C681.258 1034.13 681.441 1032.94 682.419 1031.84C683.673 1030.4 686.18 1029.21 689.024 1029.21C689.758 1029.21 690.553 1029.3 691.317 1029.45C694.131 1030.09 696.271 1031.53 697.097 1033.28C698.35 1035.91 697.953 1037.68 695.843 1039.09C692.541 1041.26 686.303 1041.32 683.49 1038.11L683.459 1038.14ZM687.404 1097.26C686.272 1098.66 684.407 1099.12 681.839 1098.66C675.876 1097.59 673.369 1091.45 673.919 1087.59C674.378 1084.38 676.579 1083.03 680.677 1083.43C685.171 1083.89 687.128 1087.07 687.923 1088.91C689.177 1091.9 688.994 1095.33 687.434 1097.26H687.404ZM792.865 1079.21C792.865 1079.03 792.865 1078.84 792.926 1078.63C792.926 1078.81 792.926 1079 792.865 1079.21ZM789.99 986.635C790.082 986.421 790.143 986.207 790.204 985.993C791.275 981.772 796.32 978.653 800.57 979.57C804.82 980.488 808.123 985.381 807.389 989.663C806.655 993.945 801.854 997.462 797.543 996.85C796.87 996.758 796.228 996.544 795.586 996.269C795.341 995.78 794.974 995.321 794.516 994.923C793.874 994.373 793.14 994.036 792.345 993.883C790.724 992.048 789.715 989.632 789.96 987.308C789.96 987.094 789.96 986.849 789.96 986.635H789.99ZM753.298 1072.45C749.567 1068.97 745.99 1065.24 742.473 1061.17C742.901 1060.59 743.268 1060.01 743.574 1059.33C746.571 1063.89 749.842 1068.26 753.298 1072.45ZM734.248 1065.69C735.012 1066.61 735.777 1067.44 736.572 1068.32C735.471 1067.47 734.37 1066.61 733.269 1065.76C733.606 1065.76 733.942 1065.76 734.279 1065.69H734.248ZM724.035 1048.32C724.524 1047.56 726.145 1047.01 728.132 1047.01C729.57 1047.01 731.19 1047.31 732.719 1048.02C736.664 1049.91 736.205 1052.82 735.532 1054.87C735.165 1056 734.615 1056.46 733.422 1056.55C730.334 1056.86 726.145 1054.38 724.952 1052.24C723.76 1050.13 723.699 1048.78 724.005 1048.32H724.035ZM753.236 1032.39C755.163 1030.28 757.792 1029.02 760.116 1029.02C760.208 1029.02 760.3 1029.02 760.392 1029.02C762.318 1029.12 764 1030.09 765.437 1031.93C768.005 1035.23 767.485 1040.74 764.336 1043.49C763.113 1044.56 761.462 1045.23 759.627 1045.39C758.343 1044.81 757.028 1044.5 755.866 1044.19C754.735 1043.92 753.175 1043.52 752.747 1043.09C748.13 1038.44 752.38 1033.34 753.267 1032.39H753.236ZM753.664 1053.12C754.46 1053.31 755.652 1053.61 755.835 1053.71C756.997 1054.93 757.823 1059.03 758.373 1061.75C758.618 1062.91 758.863 1064.04 759.107 1065.11C755.713 1060.89 752.594 1056.46 749.72 1051.9C751.065 1052.48 752.441 1052.85 753.664 1053.15V1053.12ZM722.292 974.952C723.729 971.71 728.347 969.845 731.649 971.252C734.921 972.628 736.847 977.246 735.532 980.549C734.309 983.577 730.426 985.473 727.215 984.8C726.451 983.699 725.228 982.965 723.852 982.843C722.262 981.161 721.283 978.714 721.405 976.328C721.772 975.961 722.109 975.503 722.323 974.983L722.292 974.952Z" fill="#0A0A0A"/>
<path d="M769.901 1109.46L763.144 1110.5C763.969 1109.64 764.489 1108.45 764.458 1107.16C764.397 1104.63 762.318 1102.58 759.75 1102.7L737.856 1103.28C735.318 1103.34 733.331 1105.45 733.392 1107.99C733.453 1110.47 735.502 1112.46 737.979 1112.46C738.009 1112.46 738.07 1112.46 738.101 1112.46L752.961 1112.06L748.589 1112.73C746.082 1113.13 744.369 1115.45 744.767 1117.96C745.103 1120.22 747.06 1121.84 749.292 1121.84C749.537 1121.84 749.751 1121.84 749.995 1121.78L771.277 1118.48C773.785 1118.08 775.497 1115.76 775.099 1113.25C774.702 1110.74 772.378 1109.03 769.871 1109.43L769.901 1109.46Z" fill="#0A0A0A"/>
<path d="M1554.91 1066.03C1554.91 1056.37 1553.29 1046.98 1549.93 1037.89C1549.1 1035.63 1546.66 1034.41 1544.33 1035.08C1542.04 1035.75 1540.63 1038.08 1541.12 1040.43C1542.99 1049.15 1544.61 1058.29 1545.86 1067.8C1545.19 1105.54 1515.96 1140.62 1488.53 1165.3C1459.94 1191.06 1424.07 1214.64 1389.4 1237.42C1372.7 1248.4 1355.42 1259.75 1339.13 1271.25C1264.37 1323.94 1204.62 1383.27 1161.57 1447.62C1139.43 1480.71 1121.88 1515 1109.46 1549.53C1103.62 1565.74 1097.75 1579.59 1091.39 1592.04C1087.11 1536.74 1079.62 1482.98 1070.96 1432.33C1074.18 1429.98 1076.65 1425.76 1078.03 1423.37C1089.16 1404.1 1097.48 1383.06 1105.52 1362.72C1112.92 1343.97 1120.59 1324.58 1130.44 1306.57C1152.73 1265.8 1178.75 1226.96 1207.74 1191.12C1222.26 1173.16 1237.89 1155.52 1252.99 1138.45C1282.1 1105.57 1312.22 1071.57 1336.04 1033.64C1404.32 924.978 1413.43 798.179 1406.15 700.586C1406.24 688.506 1405.11 676.211 1402.51 663.794C1402.02 661.378 1399.7 659.818 1397.29 660.216C1394.87 660.613 1393.19 662.846 1393.49 665.293C1394.81 676.089 1395.94 687.405 1396.86 699.149C1396.67 739.611 1382.36 783.988 1355.09 827.294C1334.39 860.172 1308.43 890.266 1283.35 919.351C1271.28 933.389 1258.77 947.886 1246.97 962.535C1192.88 1029.79 1149.7 1105.45 1118.57 1187.42C1102.61 1229.5 1089.98 1273.08 1081.02 1316.97C1075.31 1344.98 1069.53 1367.52 1062.92 1387.59C1059.99 1371.96 1057.02 1356.67 1054.02 1341.86C1052.43 1333.94 1050.81 1326.02 1049.19 1318.07C1050.97 1317.15 1052.01 1315.13 1051.55 1313.05C1049.35 1302.78 1046.11 1292.75 1041.92 1283.14C1038.22 1265.65 1034.52 1248.25 1030.85 1231.09C1026.96 1212.89 1023.08 1194.7 1019.26 1176.5C1027.61 1172.68 1035.04 1168.3 1041.61 1164.36C1046.07 1161.67 1050.32 1159.16 1054.27 1157.17C1056.17 1156.22 1057.17 1154.08 1056.65 1152C1056.17 1149.92 1054.33 1148.48 1052.19 1148.48C1052.16 1148.48 1052.1 1148.48 1052.07 1148.48C1041.98 1148.48 1028.28 1146.07 1013.75 1143.25C1007.98 1106.8 1002.35 1069.64 997.182 1032.02C999.016 1031.87 1000.64 1030.71 1001.22 1028.84C1017.18 977.46 1049.32 931.156 1091.85 898.157C1093.68 898.646 1095.61 898.891 1097.51 898.891C1099.13 898.891 1100.69 898.738 1102.18 898.401C1107.44 897.3 1111.97 894.823 1116.34 892.407C1117.2 891.948 1118.05 891.459 1118.91 891C1132.42 883.813 1144.81 882.284 1159.15 880.479C1163.92 879.898 1168.84 879.256 1173.98 878.399C1178.5 877.635 1183.06 876.045 1187.65 874.026C1188.38 874.515 1189.21 874.821 1190.12 874.821C1190.34 874.821 1190.55 874.821 1190.8 874.76C1227.34 869.469 1262.68 853.199 1290.3 829.007C1296.38 823.685 1302.1 817.966 1307.6 812.461C1319.47 800.625 1330.66 789.462 1343.5 783.927C1345.24 783.162 1346.34 781.419 1346.28 779.523C1346.19 777.626 1344.97 775.975 1343.16 775.363C1335.76 772.855 1328.12 771.051 1320.29 769.919C1324.73 757.564 1330.23 745.972 1336.83 735.482C1337.69 734.136 1337.78 732.485 1337.08 731.047C1336.41 729.61 1335.03 728.662 1333.47 728.478C1323.53 727.347 1313.14 727.989 1302.92 730.344C1304.88 720.833 1306.47 711.504 1307.97 702.696C1308.21 701.259 1307.76 699.791 1306.75 698.751C1305.74 697.711 1304.3 697.191 1302.86 697.375C1295.13 698.354 1287.27 698.935 1278.92 699.577C1277.85 699.669 1276.78 699.73 1275.71 699.822C1280.42 688.567 1281.06 676.119 1277.33 664.864C1276.9 663.58 1275.92 662.571 1274.7 662.051C1273.45 661.561 1272.04 661.622 1270.85 662.234L1240.82 678.046C1240.97 669.758 1240.39 661.561 1239.02 653.518C1238.68 651.652 1237.24 650.154 1235.38 649.787C1233.51 649.42 1231.62 650.245 1230.61 651.836C1223.15 663.641 1210.37 672.969 1196.85 682.878C1190.55 687.466 1184.04 692.237 1177.83 697.405C1174.68 700.036 1171.62 702.788 1168.66 705.632C1150.43 661.408 1120.26 621.956 1082.03 593.421H1082.16C1103.9 593.421 1125.51 589.996 1146.58 586.631C1157.38 584.919 1168.54 583.145 1179.48 581.891C1225.96 576.508 1260.27 583.114 1284.36 602.107C1286.2 603.575 1288.86 603.391 1290.51 601.679C1292.13 599.996 1292.22 597.336 1290.72 595.531C1251.4 548.983 1197.25 530.143 1136.89 541.49C1162.79 515.922 1184.83 486.837 1202.39 454.908C1203.33 453.164 1204.28 451.452 1205.23 449.708C1210.37 440.166 1215.23 431.175 1222.05 423.559C1230.76 413.803 1241.43 408.42 1251.55 408.818C1253.91 408.91 1255.83 407.258 1256.23 405.026C1256.78 404.506 1257.21 403.863 1257.42 403.099C1257.79 401.906 1257.64 400.713 1257.12 399.673C1257.06 398.878 1256.81 398.083 1256.32 397.38C1247.85 385.299 1234.83 374.87 1218.71 367.071C1219.57 366.337 1220.46 365.603 1221.28 364.839C1233.76 353.4 1242.87 339.76 1250.85 326.731C1274.79 287.707 1289.96 247.52 1305.92 202.776C1307.14 199.32 1308.34 195.803 1309.53 192.316C1311.82 185.557 1314.18 178.553 1316.93 171.978C1317.3 171.061 1317.69 170.021 1318.15 168.858C1319.68 164.791 1322.25 157.971 1325.4 156.931C1327.81 156.166 1329.13 153.567 1328.36 151.151C1327.6 148.734 1325.03 147.419 1322.58 148.184C1300.51 155.249 1276.66 157.695 1253.6 160.05C1243.24 161.121 1232.5 162.191 1221.99 163.69C1180.34 169.684 1150.47 182.529 1130.83 202.868C1124.57 183.539 1114.23 163.415 1099.77 142.557C1091.15 130.109 1081.67 117.998 1072.49 106.284C1057.36 86.9248 1041.76 66.9231 1029.81 45.1781C1030.27 42.9761 1029.04 40.6823 1026.87 39.9177C1026.75 39.8871 1026.63 39.8566 1026.51 39.826C1025.99 39.3978 1025.37 39.0614 1024.7 38.9085C1023.45 38.572 1022.1 38.8167 1021.03 39.5201C987.825 61.3875 963.027 84.8451 945.139 111.178C925.447 140.202 914.959 172.865 915.204 203.938C890.192 192.775 863.804 190.573 843.898 191.093C810.691 191.949 775.221 198.341 746.54 208.648C745.164 209.137 744.094 210.269 743.696 211.706C743.299 213.113 743.574 214.642 744.491 215.804C748.222 220.514 750.362 228.435 752.441 236.051C753.664 240.547 754.826 244.798 756.325 248.559C761.247 260.976 766.965 273.21 773.387 284.954C785.373 306.913 799.805 327.404 816.287 345.938C804.331 344.837 792.192 345.693 780.481 348.629C779.716 348.813 779.074 349.21 778.524 349.7C778.218 349.639 777.943 349.577 777.637 349.516C775.466 349.119 773.264 350.342 772.5 352.422C771.736 354.532 772.561 356.856 774.518 357.988C804.545 375.329 819.375 411.785 828.915 441.604C830.199 445.641 831.483 449.708 832.737 453.807C839.862 476.683 847.2 500.171 859.829 520.448C822.738 518.246 775.741 534.762 753.848 572.135C752.961 573.664 753.022 575.56 754.001 577.028C754.979 578.496 756.691 579.261 758.465 579.016C815.706 570.789 862.183 568.312 910.434 581.065C852.062 599.048 806.532 654.038 801.609 715.327C801.426 717.499 802.802 719.487 804.881 720.099C806.961 720.71 809.193 719.762 810.232 717.866C824.512 691.105 850.717 668.229 888.143 649.909C895.818 646.147 903.707 642.722 911.688 639.419C913.369 653.548 922.695 665.812 930.065 674.223C931.441 675.813 932.878 677.404 934.284 678.963C942.234 687.802 950.429 696.947 953.731 707.804L954.007 708.752C955.505 713.768 957.584 720.588 964.281 722.423C963.822 864.606 983.024 1007.52 1004.18 1141.27C975.197 1135.55 943.519 1129.61 921.839 1136.5C935.477 1111.66 953.854 1089.24 975.533 1071.11C977.062 1069.82 977.582 1067.71 976.848 1065.88C976.114 1064.04 974.218 1062.88 972.292 1063C961.926 1063.68 951.713 1066.31 942.295 1070.71C942.143 1070.56 941.929 1070.4 941.745 1070.28C941.317 1069.98 940.828 1069.79 940.339 1069.67C941.531 1055.78 939.635 1043.31 934.59 1032.08C934.59 1032.05 934.529 1032.02 934.529 1031.96C935.568 1026.61 935.752 1020.95 934.804 1015.08C934.223 1011.5 933.214 1007.98 932.266 1004.62C930.34 997.798 928.505 991.376 930.37 985.656C931.716 981.528 935.018 977.919 938.473 974.126C942.968 969.202 948.044 963.636 949.114 956.051C950.918 943.42 940.614 932.961 929.973 929.566C920.158 926.416 909.608 927.792 900.802 929.168C903.095 921.675 904.563 913.632 905.052 905.252C906.306 883.262 901.291 861.242 895.665 840.69C886.492 807.201 873.65 768.879 847.781 738.602C846.803 737.47 845.335 736.858 843.806 737.011C842.308 737.164 840.993 738.051 840.259 739.366C830.291 757.594 813.718 771.754 797.696 785.425C793.415 789.095 789.134 792.735 784.945 796.466C760.422 818.394 747.029 839.497 744.124 860.692C735.287 850.568 724.218 842.953 714.587 837.601C705.627 832.646 696.179 828.456 687.006 824.45C676.396 819.771 665.388 814.938 655.42 808.914C652.882 807.384 650.374 805.733 647.867 804.112C640.009 799.004 631.906 793.713 622.457 791.022C609.37 787.26 592.247 790.135 584.847 802.858C580.505 810.351 580.689 819.128 580.811 826.193L581.942 880.387C582.279 896.841 582.646 913.877 587.783 930.239C590.473 938.833 594.449 946.509 599.341 952.962C574.849 950.332 547.971 956.663 522.133 971.404C494.858 986.971 472.415 1009.11 450.705 1030.52C449.482 1031.75 447.494 1033.73 446.118 1036.27C444.834 1036.64 443.733 1037.56 443.183 1038.9C442.327 1040.95 443.091 1043.28 444.895 1044.47C445.751 1047.99 448.228 1050.52 449.94 1052.24L494.92 1097.84C507.395 1110.47 520.268 1123.56 535.587 1133.65C550.234 1143.32 565.4 1148.82 579.955 1149.92C573.381 1158.7 570.078 1170.69 570.996 1183.62C572.005 1197.82 577.356 1210.78 582.493 1223.32C586.223 1232.41 590.657 1241.64 599.861 1245.62C603.041 1246.99 606.282 1247.51 609.493 1247.51C614.568 1247.51 619.583 1246.26 624.231 1245.07C626.83 1244.42 629.307 1243.78 631.722 1243.39C638.877 1242.16 646.216 1242.8 653.982 1243.51C658.202 1243.87 662.575 1244.27 666.947 1244.33C681.227 1244.55 693.091 1240.23 700.032 1232.41C707.615 1234 714.892 1235.86 722.109 1237.91C718.378 1242.35 715.259 1246.75 712.263 1251.03C705.261 1261 699.237 1269.63 686.792 1275.31C684.804 1276.23 683.734 1278.43 684.254 1280.57C684.774 1282.72 686.761 1284.18 688.932 1284.09C710.275 1283.11 731.557 1277.39 750.484 1267.58C757.915 1263.72 766.721 1259.66 774.64 1258.55C756.783 1278.01 753.573 1308.04 752.93 1333.06V1334.92C752.166 1363.24 751.432 1392.54 733.544 1412.08C732.138 1413.61 731.954 1415.94 733.086 1417.68C733.942 1419 735.41 1419.76 736.939 1419.76C737.428 1419.76 737.917 1419.67 738.406 1419.52C760.789 1411.96 777.087 1390.83 788.247 1354.86C789.379 1351.25 790.449 1347.58 791.55 1343.91C798.001 1322.17 804.667 1299.72 820.476 1284.61C828.976 1276.48 842.277 1271.28 851.236 1277.12C858.82 1282.04 860.929 1292.72 862.978 1303.02L863.284 1304.58C871.479 1345.35 892.546 1383.58 922.665 1412.27C924.285 1413.8 926.762 1413.95 928.536 1412.64C930.34 1411.32 930.921 1408.9 929.942 1406.92C905.939 1357.8 908.263 1299.75 910.312 1248.55C910.954 1232.53 911.596 1215.98 916.702 1200.66C917.742 1197.51 919.087 1194.97 920.647 1192.89C969.937 1203.63 1012.68 1239.84 1032.99 1285.87C1037.05 1305.1 1041.06 1324.43 1044.88 1343.58C1049.41 1366.18 1053.96 1389.79 1058.34 1414.19C1058.03 1421.2 1058.64 1427.9 1061.33 1431.38C1070.84 1486.77 1079.01 1545.95 1083.07 1606.72C1083.07 1606.75 1083.04 1606.78 1083.01 1606.81C1080.08 1611.73 1073.84 1634.58 1082.19 1641.16C1083.1 1641.86 1084.02 1642.32 1084.97 1642.59C1085.27 1650.7 1085.52 1658.83 1085.67 1666.97C1085.95 1681.74 1086.04 1697.8 1085.76 1714.8C1075.03 1686.24 1053.23 1658.86 1022.53 1636.48C999.169 1619.44 973.056 1606.2 947.799 1593.42C933.367 1586.11 918.445 1578.55 904.288 1570.39C825.429 1524.97 762.134 1457.53 700.919 1392.3C665.846 1354.92 637.471 1321.04 615.914 1281.8C614.874 1277.98 613.896 1274.12 612.978 1270.24C612.459 1267.97 610.349 1266.51 608.086 1266.72C607.383 1265.28 606.679 1263.88 606.007 1262.44C605.212 1260.73 603.469 1259.69 601.542 1259.81C599.647 1259.93 598.057 1261.18 597.476 1262.99C594.051 1273.69 598.087 1288.92 601.359 1301.16C602.154 1304.19 602.918 1307.03 603.469 1309.54C606.893 1324.8 611.205 1340.12 616.281 1355.11C653.34 1464.38 731.312 1557.75 830.169 1611.28C858.025 1626.35 887.715 1638.59 916.427 1650.42C932.755 1657.15 949.634 1664.12 965.932 1671.5C1021.31 1696.57 1057.91 1721.84 1084.45 1753.25C1081.12 1817.78 1070.9 1890.57 1043.63 1954.49C1042.62 1956.81 1043.72 1959.5 1046.04 1960.51C1046.63 1960.76 1047.24 1960.88 1047.85 1960.88C1049.62 1960.88 1051.33 1959.84 1052.07 1958.09C1093.29 1861.51 1096.19 1745.6 1094.81 1666.85C1094.66 1658.1 1094.39 1649.38 1094.02 1640.67C1097.02 1638.83 1099.55 1636.39 1100.87 1635.1C1116.31 1619.93 1127.84 1603.42 1138.97 1587.42C1149.18 1572.77 1159.73 1557.63 1173.28 1543.59C1204.07 1511.7 1240 1481.26 1280.05 1453.19C1300.14 1439.12 1321.73 1425.3 1342.61 1411.93C1382.82 1386.18 1424.44 1359.54 1457.37 1329.85C1552.77 1243.75 1565.06 1143.1 1554.61 1065.94L1554.91 1066.03ZM995.286 1017.86C982.382 920.911 973.087 820.933 973.484 721.475C975.411 720.527 977.031 719.334 978.224 718.447L1052.5 663.672C1053.14 663.182 1053.63 662.571 1053.93 661.867C1060.35 665.201 1066.81 668.412 1073.23 671.623C1078.55 674.284 1083.87 676.914 1089.1 679.606C1108.97 689.79 1133.56 704.073 1152.06 723.83C1136.49 743.006 1124.47 765.24 1117.17 788.759C1116.83 789.799 1116.92 790.869 1117.32 791.817C1113.93 798.515 1111.42 805.916 1109.64 814.786L1108.79 819.159C1106.16 832.769 1103.44 846.837 1095.12 857.297C1093.84 858.887 1092.43 860.416 1090.93 862.037C1088.45 864.729 1085.92 867.481 1083.84 870.815C1080.29 876.442 1078.06 884.883 1082.43 891.642C1082.77 892.162 1083.16 892.651 1083.53 893.11C1043.2 925.254 1012.2 969.08 995.286 1017.8V1017.86ZM1172.48 869.53C1167.56 870.356 1162.73 870.968 1158.05 871.549C1143.43 873.384 1129.64 875.096 1114.66 883.079C1113.77 883.568 1112.86 884.057 1111.97 884.547C1107.99 886.718 1104.23 888.767 1100.35 889.593C1096.8 890.327 1092.06 889.777 1090.17 886.81C1088.27 883.874 1089.53 879.164 1091.63 875.83C1093.26 873.231 1095.43 870.876 1097.72 868.399C1099.25 866.717 1100.84 865.004 1102.34 863.138C1112.06 850.905 1115 835.705 1117.84 821.025L1118.7 816.712C1122.52 797.506 1130.01 786.098 1143.68 772.549C1144.41 777.321 1145.05 781.449 1143.92 786.22C1142.85 790.747 1141.2 795.151 1139.43 799.799C1138.42 802.46 1137.41 805.091 1136.52 807.782C1133.16 817.813 1132.42 825.826 1134.17 832.983C1139.27 853.994 1161.99 852.128 1177.01 850.905L1177.99 850.813C1180.4 850.63 1182.82 850.385 1185.23 850.14C1194.13 849.284 1203.24 848.428 1211.93 849.315C1211.01 849.926 1210.06 850.538 1209.14 851.149C1197.46 858.857 1184.19 867.604 1172.54 869.561L1172.48 869.53ZM1319.71 737.439L1303.26 751.508C1301.33 753.159 1301.12 756.034 1302.74 757.961C1303.66 759.031 1304.94 759.582 1306.23 759.582C1307.27 759.582 1308.34 759.215 1309.19 758.481L1318.3 750.682C1315.55 756.585 1313.08 762.732 1310.87 769.063C1304.79 768.604 1298.64 768.512 1292.37 768.818C1295.8 759.46 1298.49 749.979 1300.69 740.62C1306.96 738.846 1313.35 737.745 1319.71 737.439ZM1279.62 708.935C1279.99 708.935 1280.33 708.874 1280.66 708.844C1246.81 733.678 1215.2 761.723 1186.58 792.398C1184.83 794.264 1184.96 797.169 1186.79 798.882C1187.68 799.708 1188.81 800.105 1189.91 800.105C1191.13 800.105 1192.36 799.616 1193.27 798.637C1224.8 764.842 1259.96 734.32 1297.79 707.834C1294.3 728.203 1290.33 749.122 1282.28 769.705L1280.82 773.498C1276.99 783.437 1273.39 792.796 1266.63 801.696C1258.49 812.431 1248.04 821.33 1236.39 827.386C1234.16 828.548 1233.27 831.331 1234.43 833.564C1235.26 835.124 1236.85 836.041 1238.5 836.041C1239.2 836.041 1239.93 835.888 1240.61 835.521C1253.48 828.823 1264.98 819.037 1273.94 807.231C1281.12 797.75 1285.1 787.841 1288.83 778.207C1302.98 777.106 1316.65 778.085 1329.65 781.205C1319.59 787.75 1310.54 796.741 1301.12 806.161C1295.71 811.574 1290.11 817.14 1284.24 822.278C1263.02 840.873 1237.03 854.514 1209.54 861.762C1211.1 860.753 1212.63 859.744 1214.13 858.765C1218.44 855.921 1222.47 853.26 1226.24 851.027C1227.8 850.11 1228.65 848.366 1228.47 846.592C1228.28 844.788 1227.06 843.289 1225.32 842.739C1211.83 838.335 1197.83 839.681 1184.28 840.965C1181.9 841.179 1179.51 841.424 1177.16 841.607L1176.18 841.699C1159.24 843.106 1146.03 843.167 1143 830.75C1141.69 825.337 1142.36 818.945 1145.15 810.626C1146 808.057 1146.95 805.519 1147.93 803.011C1149.73 798.27 1151.6 793.377 1152.79 788.239C1154.32 781.725 1153.46 776.25 1152.67 770.99C1152.24 768.145 1151.81 765.454 1151.78 762.671C1151.78 760.867 1150.62 759.276 1148.97 758.573C1147.32 757.839 1145.33 758.206 1144.01 759.429C1144.01 759.429 1143.95 759.49 1143.89 759.521C1140.68 762.487 1137.75 765.362 1134.99 768.145C1141.2 754.872 1149.03 742.333 1158.14 730.895C1161.57 735.146 1164.68 739.641 1167.41 744.351C1164.16 748.633 1161.41 753.19 1159.18 757.961C1158.11 760.255 1159.09 762.977 1161.38 764.047C1163.67 765.118 1166.4 764.139 1167.47 761.845C1168.84 758.94 1170.4 756.248 1172.08 753.679C1173.46 756.86 1174.68 760.133 1175.69 763.497C1176.27 765.485 1178.11 766.769 1180.09 766.769C1180.43 766.769 1180.8 766.739 1181.13 766.647C1183.49 766.096 1185.02 763.803 1184.62 761.417C1183.58 755.178 1182.24 748.969 1180.71 742.822C1197.49 725.481 1220.52 718.019 1231.46 715.297C1247.55 711.321 1263.82 710.098 1279.56 708.905L1279.62 708.935ZM1166.76 727.01C1165.91 725.909 1165.02 724.839 1164.13 723.768C1164.5 723.371 1164.84 722.943 1165.2 722.545C1165.72 724.044 1166.27 725.512 1166.76 727.01ZM1253.02 702.176C1259.93 695.173 1265.86 687.068 1270.51 678.352C1270.88 685.998 1269.07 693.858 1265.16 700.923C1261.16 701.29 1257.09 701.687 1253.05 702.207L1253.02 702.176ZM1259.81 678.627C1255.83 685.203 1251.06 691.289 1245.62 696.641C1243.82 698.415 1243.79 701.32 1245.56 703.125C1245.59 703.155 1245.65 703.186 1245.68 703.216C1243.08 703.614 1240.45 704.073 1237.86 704.593C1238.93 699.363 1239.75 694.133 1240.24 688.964L1259.81 678.658V678.627ZM1183.67 704.684C1189.67 699.699 1196.06 695.02 1202.23 690.524C1213 682.664 1223.3 675.141 1231.31 666.21C1232.35 679.453 1231.22 693.063 1227.95 706.795C1208.04 711.902 1190.89 720.894 1178.02 732.73C1176.3 726.796 1174.41 720.924 1172.27 715.144C1175.94 711.505 1179.73 707.987 1183.67 704.715V704.684ZM1260.39 579.016C1238.19 571.187 1211.07 569.199 1178.35 572.991C1167.22 574.276 1155.97 576.08 1145.08 577.793C1121.63 581.524 1097.48 585.286 1073.72 584.215C1077.75 582.87 1081.76 581.371 1085.7 579.628C1098.18 574.031 1110.2 565.957 1123.59 554.182C1175.26 540.267 1222.78 549.105 1260.42 579.047L1260.39 579.016ZM856.771 368.631C857.505 369.059 858.3 369.273 859.095 369.273C860.654 369.273 862.183 368.478 863.039 367.01C864.323 364.839 863.62 362.025 861.419 360.74C851.022 354.593 839.617 350.281 827.845 347.895C827.998 346.611 827.661 345.265 826.713 344.225C809.132 325.141 793.843 303.794 781.306 280.795C775.068 269.387 769.503 257.459 764.733 245.409C763.418 242.106 762.348 238.1 761.186 233.849C760.055 229.751 758.893 225.591 757.487 221.676C799.439 237.029 837.049 262.75 866.525 296.423C867.442 297.463 868.696 297.983 869.98 297.983C871.05 297.983 872.121 297.616 873.007 296.851C874.903 295.169 875.117 292.294 873.435 290.367C843.256 255.9 804.79 229.445 761.89 213.511C787.208 205.895 816.439 201.185 844.081 200.482C868.941 199.809 904.563 203.632 933.275 225.408C935.293 226.937 938.168 226.539 939.696 224.521C941.225 222.502 940.828 219.627 938.81 218.098C934.162 214.581 929.361 211.553 924.469 208.831C923.062 178.217 933.031 145.523 952.692 116.56C968.347 93.5003 989.629 72.7034 1017.58 53.1605C1001.55 104.205 998.741 158.582 1009.47 211.095C1009.93 213.266 1011.83 214.765 1013.97 214.765C1014.27 214.765 1014.58 214.734 1014.89 214.673C1017.36 214.153 1018.95 211.737 1018.46 209.259C1008.13 158.705 1010.76 106.407 1025.92 57.2587C1037.51 76.7405 1051.55 94.7237 1065.22 112.187C1074.3 123.809 1083.68 135.798 1092.15 148.031C1120.87 189.411 1132.79 227.518 1127.59 261.282C1127.2 263.79 1128.91 266.145 1131.42 266.512C1131.66 266.543 1131.87 266.573 1132.12 266.573C1134.35 266.573 1136.31 264.952 1136.64 262.689C1139.06 246.969 1138.08 230.454 1133.74 213.235C1134.05 213.021 1134.35 212.777 1134.6 212.501C1152.61 191.919 1181.59 179.012 1223.21 173.048C1233.54 171.58 1244.15 170.479 1254.46 169.44C1265.25 168.339 1276.2 167.207 1287.12 165.617C1243.54 191.643 1208.44 231.371 1188.47 278.287C1187.46 280.611 1188.56 283.303 1190.89 284.312C1191.47 284.556 1192.08 284.679 1192.69 284.679C1194.47 284.679 1196.18 283.639 1196.91 281.896C1218.87 230.301 1259.84 187.698 1310.32 163.537C1310.02 164.363 1309.71 165.158 1309.41 165.922C1309.01 166.962 1308.67 167.91 1308.34 168.736C1305.46 175.648 1303.05 182.774 1300.69 189.717C1299.53 193.172 1298.37 196.598 1297.14 200.023C1281.37 244.247 1266.38 284.006 1242.87 322.266C1235.23 334.714 1226.57 347.712 1214.92 358.416C1213.06 360.129 1211.07 361.75 1209.08 363.279C1206.18 362.147 1203.18 361.077 1200.12 360.098C1175.78 352.36 1147.87 350.373 1121.54 354.471C1119.03 354.868 1117.32 357.193 1117.72 359.701C1118.11 362.208 1120.5 363.921 1122.95 363.524C1147.53 359.701 1174.62 361.627 1197.31 368.814C1215.01 374.442 1230.36 383.372 1241.07 394.077C1187.83 380.864 1130.74 384.137 1078.79 403.71C1075.58 404.903 1072.46 406.402 1069.44 407.839C1065.52 409.705 1061.82 411.448 1058.09 412.58C1055.31 413.436 1054.51 413.375 1054.61 413.467C1054.24 413.191 1053.38 411.846 1052.71 410.745C1052.01 409.613 1051.18 408.329 1050.11 406.83C1048.09 403.955 1045.98 401.111 1043.87 398.267C1043.87 397.838 1043.87 397.38 1043.75 396.951C1036.29 369.334 1034.64 340.066 1038.71 311.715C1040.6 312.418 1042.56 312.785 1044.52 312.785C1048.73 312.785 1052.83 311.103 1055.98 307.831C1061.15 302.509 1062.31 295.934 1059.22 289.786C1055.74 282.874 1047.21 278.256 1039.93 279.296C1033.57 280.183 1029.1 284.832 1027.67 292.049C1026.72 296.79 1027.79 301.53 1030.42 305.292C1026.17 330.615 1026.41 356.765 1031.06 382.057C1028.83 379.366 1026.54 376.705 1024.21 374.075C1014.15 342.604 1011.43 308.993 1016.17 276.36C1016.72 276.666 1017.27 277.033 1017.88 277.278C1020.11 278.256 1022.53 278.746 1024.88 278.746C1029.81 278.746 1034.64 276.696 1037.76 272.935C1042.8 266.849 1043.29 257.857 1038.98 250.547C1034.88 243.636 1027.76 240.18 1020.3 241.586C1012.5 243.054 1007.09 248.804 1006.2 256.603C1005.74 260.579 1006.54 264.463 1008.25 267.919C1005.38 284.037 1004.28 300.399 1004.92 316.7C1001.49 303.977 996.876 291.621 991.189 279.816C993.237 278.715 995.072 277.216 996.509 275.29C1000.94 269.295 1000.97 260.824 996.601 254.676C992.809 249.355 986.602 247.244 980.395 249.171C973.454 251.343 968.011 257.398 966.849 264.28C965.901 269.999 968.103 275.32 972.934 278.868C975.594 280.825 978.805 281.804 982.015 281.926C992.626 303.427 999.444 326.945 1001.98 350.831C1000.67 349.547 999.353 348.293 998.007 347.039L962.079 281.865C962.69 281.101 963.241 280.305 963.73 279.418C967.247 273.026 966.696 266.298 962.201 261.435C957.187 256.022 948.197 254.034 941.715 256.97C936.119 259.478 933.336 264.891 934.04 271.803C934.804 279.296 940.43 285.566 947.738 287.064C948.778 287.278 949.818 287.37 950.827 287.37C952.05 287.37 953.212 287.217 954.374 286.911L977.735 329.27C970.855 323.642 963.822 318.229 956.575 313.091C955.566 312.388 954.343 312.112 953.12 312.326C951.927 312.541 950.857 313.213 950.154 314.223C929.208 344.317 905.786 378.051 895.543 416.311C871.081 387.287 838.424 366.521 799.836 355.266C819.558 354.012 839.556 358.63 856.649 368.784L856.771 368.631ZM1036.75 293.762C1037.73 288.808 1040.39 288.441 1041.24 288.318C1041.52 288.288 1041.82 288.257 1042.13 288.257C1045.49 288.257 1049.53 290.704 1051.12 293.884C1052.4 296.454 1051.88 298.9 1049.47 301.378C1046.11 304.864 1042.16 303.213 1041.03 302.601C1040.66 302.387 1040.27 302.142 1039.9 301.867C1039.56 300.552 1038.64 299.42 1037.36 298.839C1036.66 297.432 1036.32 295.72 1036.72 293.732L1036.75 293.762ZM1015.44 257.582C1015.68 255.38 1016.9 251.526 1022.13 250.517C1022.68 250.425 1023.2 250.364 1023.69 250.364C1028 250.364 1030.48 253.912 1031.18 255.135C1033.14 258.438 1033.78 263.423 1030.82 267.032C1028.83 269.418 1024.82 270.213 1021.7 268.836C1017 266.757 1014.98 261.588 1015.44 257.582ZM989.232 269.754C986.938 272.874 981.587 273.699 978.468 271.375C976.42 269.876 975.625 268.011 976.022 265.686C976.603 262.261 979.63 258.927 983.238 257.826C983.881 257.612 984.492 257.521 985.043 257.521C987.061 257.521 988.406 258.713 989.232 259.875C991.005 262.383 991.586 266.573 989.232 269.723V269.754ZM955.78 274.892C954.007 278.103 951.469 278.317 949.665 277.95C946.79 277.369 943.671 274.709 943.274 270.763C942.876 266.91 944.405 265.778 945.598 265.228C946.454 264.83 947.463 264.647 948.503 264.647C951.041 264.647 953.884 265.717 955.566 267.552C957.37 269.509 957.431 271.895 955.78 274.892ZM837.538 439.096C829.465 413.925 817.754 384.229 796.564 363.676C836.131 375.054 869.155 396.86 893.005 427.535C892.913 427.994 892.821 428.422 892.73 428.85C892.271 431.328 893.922 433.744 896.43 434.202C896.705 434.264 896.98 434.264 897.255 434.264C899.426 434.264 901.353 432.704 901.75 430.502C908.508 393.526 929.637 360.159 950.215 330.279C953.884 386.033 963.149 441.542 977.918 495.431C978.468 497.48 980.334 498.795 982.352 498.795C982.749 498.795 983.147 498.734 983.575 498.642C986.021 497.969 987.458 495.461 986.785 493.015C971.894 438.606 962.629 382.485 959.144 326.181C970.151 334.408 980.731 343.277 990.822 352.697L990.883 352.819C991.372 353.706 992.136 354.348 993.023 354.746C996.478 358.018 999.903 361.383 1003.24 364.777C1003.6 366.429 1004.89 367.713 1006.51 368.172C1009.66 371.475 1012.78 374.809 1015.8 378.204C1025.44 389 1034.52 400.407 1042.74 412.09C1043.69 413.436 1044.45 414.629 1045.1 415.638C1048.89 421.632 1051.7 424.171 1060.94 421.327C1065.28 419.981 1069.47 418.024 1073.5 416.097C1076.5 414.69 1079.34 413.344 1082.19 412.274C1131.69 393.618 1186.03 390.284 1236.85 402.426C1229.08 405.301 1221.59 410.5 1215.14 417.687C1207.61 426.098 1202.26 436.007 1197.1 445.61C1196.18 447.323 1195.23 449.035 1194.28 450.748C1176.3 483.442 1153.55 513.108 1126.65 538.951C1110.07 554.886 1096.28 564.856 1081.94 571.278C1065.28 578.771 1046.72 581.738 1028.74 584.643C1008.56 587.885 985.715 591.555 964.923 586.173C948.931 582.044 934.59 572.777 920.708 563.847C906.398 554.641 891.629 545.099 880.071 532.529C859.829 510.539 850.472 480.445 841.391 451.36C840.106 447.262 838.853 443.163 837.538 439.096ZM767.271 568.771C789.99 539.441 832.37 526.932 863.528 530.204C864.385 530.296 865.18 530.143 865.913 529.807C868.207 532.896 870.684 535.862 873.313 538.737C885.666 552.164 900.955 562.012 915.724 571.554C917.344 572.594 918.996 573.664 920.677 574.734C871.081 560.054 822.769 561.4 767.271 568.801V568.771ZM884.015 641.927C853.56 656.821 830.138 674.773 814.054 695.387C827.264 641.284 873.466 596.143 928.689 586.295C930.768 585.928 932.297 584.215 932.45 582.105C932.45 582.044 932.45 582.013 932.45 581.952C941.806 587.396 951.866 592.289 962.599 595.073C971.13 597.275 979.814 598.1 988.467 598.1C1002.81 598.1 1017.03 595.806 1030.17 593.696C1040.69 592.014 1051.43 590.24 1062.01 587.61C1061.67 589.414 1062.4 591.25 1063.96 592.259C1107.9 620.885 1142.33 664.039 1161.6 712.942C1160.37 714.226 1159.15 715.542 1157.96 716.857C1138.63 696.518 1113.56 681.93 1093.22 671.501C1087.93 668.81 1082.61 666.149 1077.26 663.458C1044.85 647.309 1011.34 630.611 989.599 602.382C988.314 600.7 986.052 600.119 984.095 600.975C969.784 607.336 954.832 613.025 940.369 618.5C921.686 625.595 902.362 632.904 884.046 641.896L884.015 641.927ZM962.446 705.357C958.532 692.573 949.634 682.664 941.042 673.091C939.635 671.532 938.259 669.972 936.883 668.412C929.912 660.46 920.891 648.655 920.494 636.055C928.23 632.996 935.966 630.03 943.61 627.124C957.095 622.017 971.038 616.726 984.553 610.823C1000.94 630.917 1022.65 645.138 1045.46 657.494L972.72 711.107C971.313 712.147 968.408 714.288 966.727 713.859C964.862 713.37 963.7 709.486 962.752 706.336L962.446 705.357ZM957.706 1074.99C948.503 1083.83 940.033 1093.49 932.327 1103.71C934.896 1096.68 936.853 1089.98 938.229 1083.52C944.283 1079.76 950.857 1076.89 957.676 1074.99H957.706ZM915.296 1120.13C912.941 1124.97 910.465 1129.8 907.988 1134.63C896.338 1157.41 884.29 1180.99 883.098 1207.08C883.006 1208.83 882.976 1210.57 882.945 1212.31C882.823 1218.73 882.7 1224.79 880.254 1229.84C878.022 1234.42 873.68 1238.49 866.984 1242.25C845.794 1254.15 817.938 1255.77 784.211 1247.02C772.408 1243.97 760.972 1240.36 749.903 1236.87C744.094 1235.04 738.192 1233.2 732.23 1231.43C732.199 1231.43 732.169 1231.43 732.138 1231.4C723.79 1228.89 715.259 1226.56 706.453 1224.58C709.786 1215.28 713.455 1206.01 718.929 1198.58C725.625 1189.56 734.584 1184.51 743.666 1184.91C756.447 1185.4 769.228 1195.43 781.581 1205.16L784.792 1207.69C797.604 1217.69 816.623 1230.33 833.624 1224.33C834.847 1223.9 835.856 1222.96 836.345 1221.73C836.835 1220.51 836.804 1219.16 836.223 1217.97C832.829 1211 831.025 1203.17 831.147 1195.92C831.147 1195.46 831.086 1195.03 830.964 1194.6C830.964 1194.3 830.902 1193.99 830.841 1193.72C824.42 1168.12 831.239 1139.86 848.637 1120.01C858.086 1109.24 869.919 1101.29 882.456 1092.85C889.244 1088.3 896.277 1083.55 902.851 1078.36C909.853 1072.82 922.39 1061.47 929.698 1046.43C934.468 1066.28 929.698 1090.5 915.296 1120.1V1120.13ZM695.048 1224.12C688.627 1234.52 673.368 1235.46 667.161 1235.34C663.125 1235.28 658.936 1234.91 654.869 1234.55C646.858 1233.84 638.572 1233.11 630.285 1234.55C627.533 1235.01 624.781 1235.71 622.121 1236.38C615.333 1238.09 608.942 1239.71 603.622 1237.42C597.567 1234.79 594.234 1227.7 591.085 1220.05C586.193 1208.15 581.147 1195.89 580.261 1183.17C579.343 1170.38 583.196 1158.85 590.626 1151.91C614.568 1152.31 634.444 1146.04 656.49 1136.5C658.814 1135.49 659.884 1132.79 658.875 1130.47C657.866 1128.15 655.175 1127.08 652.851 1128.08C631.63 1137.29 613.835 1142.92 591.697 1142.67C590.81 1141.66 589.495 1141.02 588.058 1141.08C568.947 1141.97 551.793 1133.47 540.755 1126.16C526.261 1116.62 513.694 1103.86 501.555 1091.57L460.306 1049.76C483.545 1055.42 508.16 1053.25 532.101 1051.11C535.159 1050.83 538.217 1050.56 541.244 1050.31C571.026 1047.8 604.661 1047.77 628.665 1066.31C629.49 1066.95 630.499 1067.25 631.478 1067.25C632.854 1067.25 634.199 1066.64 635.116 1065.48C636.676 1063.46 636.278 1060.59 634.291 1059.06C607.811 1038.6 572.035 1038.54 540.51 1041.2C537.453 1041.44 534.395 1041.72 531.337 1041.99C505.744 1044.29 479.386 1046.61 455.719 1038.93C456.3 1038.26 456.912 1037.65 457.31 1037.25C478.591 1016.27 500.607 994.556 526.842 979.57C555.432 963.269 585.153 957.917 610.716 964.462C613.773 966.786 617.015 968.713 620.409 970.242C621.02 970.518 621.632 970.64 622.274 970.64C624.047 970.64 625.699 969.631 626.463 967.918C627.503 965.594 626.463 962.902 624.139 961.862C621.143 960.517 618.299 958.773 615.608 956.663C615.516 956.602 615.455 956.541 615.363 956.48C607.108 949.904 600.533 939.873 596.711 927.7C591.972 912.592 591.635 896.23 591.299 880.418L590.168 826.224C590.015 818.7 590.107 812.553 592.95 807.69C597.934 799.127 610.654 797.353 620.103 800.075C628.206 802.399 635.422 807.078 643.036 812.033C645.635 813.715 648.203 815.397 650.833 816.988C661.29 823.318 672.573 828.273 683.459 833.075C692.418 837.02 701.683 841.087 710.275 845.859C725.717 854.422 745.164 869.224 750.117 891.061C750.668 893.538 753.114 895.098 755.591 894.517C758.067 893.967 759.596 891.489 759.046 889.043C757.578 882.559 755.04 876.687 751.83 871.335C752.411 870.57 752.778 869.653 752.808 868.643C753.236 847.602 765.804 826.316 791.183 803.592C795.311 799.922 799.53 796.313 803.75 792.674C817.326 781.082 831.239 769.155 841.757 754.475L821.821 830.72C814.941 856.991 807.847 884.18 807.511 912.133C807.511 914.672 809.498 916.751 812.036 916.782H812.098C814.605 916.782 816.654 914.763 816.684 912.256C817.02 885.434 823.961 858.795 830.688 833.075L850.472 757.38C868.941 784.018 879.215 815.428 886.889 843.412C893.127 866.258 897.072 885.495 895.971 905.038C894.717 927.303 886.033 946.876 872.212 958.743C870.286 960.394 870.072 963.3 871.723 965.196C872.641 966.266 873.925 966.786 875.209 966.786C876.249 966.786 877.319 966.419 878.206 965.685C886.461 958.62 893.066 949.201 897.683 938.282C898.539 938.741 899.518 938.955 900.558 938.772C909.15 937.426 918.873 935.866 927.282 938.558C934.284 940.79 941.164 947.733 940.125 955.012C939.452 959.813 935.721 963.881 931.777 968.224C927.802 972.567 923.704 977.062 921.717 983.087C918.965 991.467 921.258 999.603 923.49 1007.43C924.438 1010.7 925.294 1013.82 925.814 1016.88C929.973 1042.3 907.223 1063.4 897.255 1071.29C890.956 1076.28 884.076 1080.89 877.411 1085.36C864.935 1093.74 852.062 1102.39 841.819 1114.08C822.463 1136.16 814.88 1167.57 822.035 1196.07C822.035 1196.13 822.066 1196.16 822.096 1196.19C822.005 1203.05 823.289 1210.05 825.796 1216.75C823.472 1216.9 820.965 1216.62 818.274 1215.98C818.366 1215.98 818.427 1215.98 818.488 1215.98C819.62 1215.98 820.72 1215.58 821.607 1214.76C823.472 1213.05 823.564 1210.14 821.852 1208.28C810.722 1196.29 798.124 1182.71 791.183 1166.68C785.495 1153.53 782.866 1134.29 792.62 1119.83C794.026 1117.72 793.476 1114.87 791.366 1113.47C789.256 1112.06 786.413 1112.61 785.006 1114.72C775.13 1129.4 774.273 1150.72 782.774 1170.35C790.327 1187.81 803.505 1202.01 815.125 1214.54C815.461 1214.91 815.828 1215.16 816.225 1215.4C808.948 1213.2 800.448 1208.31 790.541 1200.57L787.361 1198.06C773.845 1187.45 759.872 1176.44 744.124 1175.86C731.954 1175.4 720.213 1181.73 711.682 1193.23C705.291 1201.85 701.285 1212.1 697.677 1222.25C696.668 1222.56 695.751 1223.23 695.139 1224.21L695.048 1224.12ZM746.356 1259.59C733.942 1266.05 720.427 1270.57 706.575 1273.05C711.804 1268 715.779 1262.32 719.876 1256.44C723.454 1251.34 727.184 1246.11 731.954 1240.94C737 1242.47 742.045 1244.03 747.182 1245.65C753.206 1247.54 759.352 1249.47 765.62 1251.34C759.046 1253.29 752.502 1256.38 746.356 1259.56V1259.59ZM908.11 1197.94C902.576 1214.48 901.903 1231.7 901.261 1248.37C899.487 1292.81 897.5 1342.32 912.299 1387.59C892.485 1363.12 878.572 1333.79 872.365 1302.96L872.06 1301.43C869.736 1289.81 867.137 1276.66 856.312 1269.63C842.766 1260.79 825.001 1267.85 814.207 1278.16C796.625 1294.95 789.593 1318.59 782.804 1341.5C781.734 1345.14 780.664 1348.75 779.533 1352.32C772.316 1375.54 763.052 1391.9 751.402 1401.87C760.942 1381.75 761.553 1357.4 762.104 1335.32L762.165 1333.45C762.838 1307.03 766.446 1274.64 788.553 1258.59C788.889 1258.34 789.165 1258.07 789.409 1257.76C801.579 1260.45 813.076 1261.8 823.778 1261.8C841.88 1261.8 857.841 1257.97 871.479 1250.33C879.887 1245.62 885.452 1240.23 888.51 1233.9C891.843 1227.02 891.965 1219.65 892.118 1212.56C892.118 1210.87 892.179 1209.22 892.241 1207.57C893.127 1188.15 900.802 1169.71 909.608 1151.79C911.137 1152.34 912.85 1152.09 914.134 1151.02C931.257 1136.56 970.304 1144.26 1004.73 1151.02L1008.77 1151.82C1018.89 1153.81 1028.34 1155.61 1036.78 1156.71C1029.56 1161.02 1021.4 1165.92 1012.13 1169.83C995.897 1176.74 980.089 1179.1 962.415 1177.23C945.506 1175.46 928.169 1173.65 916.978 1183.66C915.632 1184.14 914.562 1185.21 914.134 1186.65C911.688 1189.62 909.639 1193.32 908.08 1198L908.11 1197.94ZM931.318 1186.22C938.779 1184.21 948.717 1184.97 961.498 1186.32C978.621 1188.12 994.766 1186.1 1010.57 1180.23C1014.3 1197.88 1018.07 1215.52 1021.83 1233.14C1023.42 1240.6 1025.04 1248.13 1026.63 1255.68C1004.06 1222.5 969.907 1196.96 931.288 1186.19L931.318 1186.22ZM1399.03 751.539C1399.58 838.518 1384.08 939.995 1328.24 1028.84C1304.82 1066.12 1274.95 1099.86 1246.08 1132.46C1230.91 1149.62 1215.2 1167.32 1200.55 1185.43C1171.2 1221.7 1144.87 1261 1122.33 1302.26C1112.21 1320.76 1104.45 1340.43 1096.92 1359.42C1092.46 1370.7 1087.9 1382.2 1082.86 1393.43C1102.49 1325.35 1123.83 1256.11 1155.66 1192.1C1186.39 1130.26 1227.31 1072.76 1266.84 1017.13C1307.63 959.783 1349.8 900.45 1381.14 836.102C1392.42 812.951 1402.18 788.055 1397.29 762.763C1397.13 761.998 1396.8 761.325 1396.34 760.744C1397.29 757.686 1398.2 754.627 1399.03 751.508V751.539ZM1089.95 1318.9C1098.82 1275.5 1111.3 1232.41 1127.1 1190.78C1157.87 1109.7 1200.58 1034.87 1254.06 968.377C1265.77 953.819 1278.22 939.383 1290.26 925.407C1315.58 896.046 1341.76 865.677 1362.82 832.218C1372.06 817.569 1381.51 800.075 1389.24 780.715C1388.17 798.087 1380.96 815.519 1372.88 832.065C1341.88 895.74 1299.93 954.736 1259.35 1011.81C1219.6 1067.71 1178.47 1125.52 1147.44 1188C1111.85 1259.59 1089.34 1337.31 1067.75 1412.7C1068.15 1405.6 1069.22 1397.65 1070.54 1393.76C1077.69 1372.54 1083.87 1348.75 1089.95 1318.9ZM1118.02 1552.68C1130.19 1518.85 1147.38 1485.24 1169.12 1452.76C1211.56 1389.36 1270.51 1330.82 1344.36 1278.77C1360.53 1267.36 1377.75 1256.05 1394.38 1245.1C1429.33 1222.1 1465.5 1198.34 1494.61 1172.13C1511.8 1156.65 1525.4 1140.96 1535.31 1125.36C1536.11 1139.83 1525.28 1154.85 1513.05 1169.07C1470.27 1218.89 1412.33 1265.1 1356.28 1309.75C1301.33 1353.55 1244.52 1398.84 1201.56 1447.84C1153.34 1502.83 1122.49 1562.34 1093.26 1620.24C1093.04 1616.48 1092.8 1612.74 1092.55 1609.01C1101.88 1592.93 1110.01 1574.94 1118.05 1552.62L1118.02 1552.68ZM694.375 1398.72C756.049 1464.44 819.834 1532.4 899.885 1578.49C914.287 1586.78 929.3 1594.39 943.855 1601.76C968.775 1614.4 994.552 1627.45 1017.33 1644.06C1046.29 1665.16 1066.93 1690.76 1077.11 1717.4C1058.4 1685.5 1024.06 1663.05 992.075 1644.09C980.364 1637.15 968.622 1630.27 956.85 1623.36C890.345 1584.39 821.546 1544.08 761.981 1493.71C716.36 1455.12 660.22 1396.03 629.093 1320.21C647.5 1346.79 669.21 1371.93 694.406 1398.75L694.375 1398.72ZM920.096 1642.07C891.598 1630.33 862.152 1618.19 834.694 1603.35C737.825 1550.93 661.443 1459.43 625.118 1352.29C620.133 1337.61 615.914 1322.6 612.55 1307.67C611.969 1305.07 611.174 1302.11 610.349 1298.96C609.126 1294.34 607.75 1289.23 606.802 1284.24C607.016 1284.64 607.26 1285.04 607.474 1285.44C633.924 1381.53 702.172 1455.18 756.019 1500.72C816.164 1551.61 885.299 1592.1 952.172 1631.28C963.914 1638.16 975.655 1645.04 987.366 1651.98C1019.96 1671.31 1055.03 1694.28 1071.88 1726.97C1038.83 1696.6 999.047 1676.45 969.907 1663.27C953.456 1655.81 936.486 1648.83 920.096 1642.07ZM1451.41 1323.15C1419.03 1352.35 1377.78 1378.78 1337.87 1404.32C1316.9 1417.74 1295.22 1431.63 1275.01 1445.79C1234.46 1474.2 1198.07 1505 1166.89 1537.32C1152.85 1551.88 1142.06 1567.33 1131.66 1582.25C1122.98 1594.7 1114.66 1606.6 1104.66 1618C1132.7 1562.65 1162.76 1506.04 1208.44 1453.92C1250.85 1405.54 1307.36 1360.52 1361.97 1316.97C1418.35 1272.04 1476.63 1225.55 1519.99 1175.06C1535.98 1156.47 1549.77 1136.34 1542.65 1115.39C1542.47 1114.87 1542.19 1114.41 1541.85 1113.99C1544.42 1109.03 1546.66 1104.11 1548.46 1099.21C1551.03 1168.58 1531.18 1251.09 1451.41 1323.09V1323.15Z" fill="#0A0A0A"/>
</g>
<defs>
<clipPath id="clip0_157_180">
<rect width="1115" height="1922" fill="white" transform="translate(443 39)"/>
</clipPath>
</defs>
</svg>
