<svg width="2000" height="2000" viewBox="0 0 2000 2000" fill="none" xmlns="http://www.w3.org/2000/svg">
<g clip-path="url(#clip0_157_263)">
<path d="M1534.92 1616.44H458.805C446.243 1616.44 435.394 1607.87 432.349 1595.68L136.01 409.888C132.964 397.511 138.674 384.752 149.903 379.039C161.133 373.136 174.836 375.992 183.211 385.514L666.452 951.655L977.637 389.893C982.395 381.134 991.531 375.802 1001.43 375.802C1011.32 375.802 1020.46 381.134 1025.22 389.893L1336.59 951.655L1819.84 385.514C1828.02 375.802 1841.91 373.136 1853.14 379.039C1864.37 384.942 1870.08 397.701 1867.04 410.079L1561.18 1596.06C1558.14 1608.06 1547.29 1616.63 1534.72 1616.63L1534.92 1616.44ZM480.121 1561.79H1513.79L1784.82 510.625L1352.58 1016.97C1346.68 1023.83 1337.93 1027.26 1329.17 1026.49C1320.23 1025.54 1312.42 1020.4 1308.05 1012.59L1001.43 459.59L695.001 1012.59C690.623 1020.4 682.82 1025.54 673.875 1026.49C664.929 1027.45 656.174 1023.83 650.464 1016.97L217.089 509.292L480.121 1561.98V1561.79Z" fill="black"/>
<path d="M996.861 414.839C931.007 414.839 877.525 361.329 877.525 295.441C877.525 229.553 931.007 176.043 996.861 176.043C1062.71 176.043 1116.2 229.553 1116.2 295.441C1116.2 361.329 1062.71 414.839 996.861 414.839ZM996.861 230.696C961.079 230.696 932.149 259.831 932.149 295.441C932.149 331.051 961.269 360.187 996.861 360.187C1032.45 360.187 1061.57 331.051 1061.57 295.441C1061.57 259.831 1032.45 230.696 996.861 230.696Z" fill="black"/>
<path d="M145.335 414.839C79.482 414.839 26 361.329 26 295.441C26 229.553 79.482 176.233 145.335 176.233C211.188 176.233 264.67 229.744 264.67 295.632C264.67 361.52 211.188 415.03 145.335 415.03V414.839ZM145.335 230.696C109.554 230.696 80.6239 259.831 80.6239 295.441C80.6239 331.051 109.744 360.187 145.335 360.187C180.926 360.187 210.047 331.051 210.047 295.441C210.047 259.831 180.926 230.696 145.335 230.696Z" fill="black"/>
<path d="M1854.67 414.839C1788.81 414.839 1735.33 361.329 1735.33 295.441C1735.33 229.553 1788.81 176.043 1854.67 176.043C1920.52 176.043 1974 229.553 1974 295.441C1974 361.329 1920.52 414.839 1854.67 414.839ZM1854.67 230.696C1818.88 230.696 1789.95 259.831 1789.95 295.441C1789.95 331.051 1819.07 360.187 1854.67 360.187C1890.26 360.187 1919.38 331.051 1919.38 295.441C1919.38 259.831 1890.26 230.696 1854.67 230.696Z" fill="black"/>
<path d="M1611.43 1282.62H374.68C359.644 1282.62 347.463 1270.43 347.463 1255.39C347.463 1240.34 359.644 1228.16 374.68 1228.16H1611.43C1626.46 1228.16 1638.64 1240.34 1638.64 1255.39C1638.64 1270.43 1626.46 1282.62 1611.43 1282.62Z" fill="black"/>
<path d="M485.069 1493.04C444.72 1493.04 401.325 1470.76 390.857 1427.92C387.241 1413.25 396.186 1398.4 410.842 1394.78C425.306 1391.16 440.152 1400.11 443.958 1414.78C448.336 1432.3 474.03 1441.25 494.015 1437.63C520.851 1432.87 545.784 1413.25 569.575 1394.21C594.507 1374.41 628.766 1347.37 670.829 1341.08C723.169 1333.27 770.37 1358.98 812.052 1381.83C850.117 1402.78 886.279 1422.39 920.728 1415.54C942.616 1411.16 962.981 1396.11 984.488 1380.12C1010.75 1360.7 1040.44 1338.61 1077.94 1334.04C1131.61 1327.56 1175.58 1358.41 1214.4 1385.45C1246.38 1407.92 1276.64 1429.06 1308.23 1429.25H1308.62C1335.45 1429.25 1361.72 1414.21 1389.69 1398.21C1400.16 1392.31 1410.44 1386.4 1421.1 1381.07C1472.87 1355.17 1544.81 1349.84 1580.59 1399.35C1589.35 1411.54 1586.68 1428.68 1574.31 1437.44C1562.13 1446.2 1545 1443.53 1536.25 1431.15C1520.26 1408.87 1477.63 1413.63 1445.65 1429.82C1435.94 1434.58 1426.43 1440.1 1416.91 1445.63C1385.51 1463.53 1350.11 1483.71 1308.81 1483.71H1308.04C1259.32 1483.33 1218.97 1455.15 1183.19 1430.2C1149.31 1406.59 1117.53 1384.12 1084.6 1388.12C1061.38 1390.97 1039.87 1406.97 1017.03 1423.92C991.53 1442.77 965.265 1462.19 931.577 1469.05C877.334 1479.9 828.8 1453.24 785.977 1429.63C748.673 1409.25 713.652 1389.83 679.203 1394.97C653.699 1398.78 629.908 1416.3 603.833 1437.06C575.855 1459.15 544.261 1484.09 503.912 1491.33C498.011 1492.47 491.731 1492.85 485.45 1492.85L485.069 1493.04Z" fill="black"/>
<path d="M671.21 1026.68C663.216 1026.68 655.413 1023.07 650.274 1016.97L425.307 748.469C419.026 740.852 417.123 730.569 420.739 721.238L589.179 275.065C592.795 265.353 601.74 258.498 612.018 257.546C622.296 256.594 632.383 261.354 637.903 270.114L875.05 647.732C880.189 656.111 880.57 666.585 876.002 675.154L695.381 1012.21C691.004 1020.21 683.201 1025.54 674.065 1026.49C673.113 1026.49 672.162 1026.49 671.21 1026.49V1026.68ZM477.457 725.617L666.261 950.894L820.427 663.348L620.964 345.714L477.647 725.617H477.457Z" fill="black"/>
<path d="M617.157 320.768C662.357 320.768 698.998 284.107 698.998 238.884C698.998 193.661 662.357 157 617.157 157C571.958 157 535.316 193.661 535.316 238.884C535.316 284.107 571.958 320.768 617.157 320.768Z" fill="black"/>
<path d="M1345.16 1026.68C1345.16 1026.68 1343.26 1026.68 1342.3 1026.68C1333.36 1025.73 1325.37 1020.4 1320.99 1012.4L1140.37 675.344C1135.8 666.775 1136.18 656.302 1141.32 647.923L1378.47 270.304C1383.99 261.545 1394.07 256.784 1404.35 257.736C1414.63 258.688 1423.57 265.544 1427.19 275.256L1595.63 721.618C1599.06 730.759 1597.34 741.232 1591.06 748.85L1366.1 1017.35C1360.96 1023.64 1353.15 1027.06 1345.16 1027.06V1026.68ZM1196.13 663.348L1350.3 950.893L1539.1 725.617L1395.79 345.714L1196.32 663.348H1196.13Z" fill="black"/>
<path d="M1401.49 323.053C1446.69 323.053 1483.34 286.392 1483.34 241.169C1483.34 195.946 1446.69 159.285 1401.49 159.285C1356.3 159.285 1319.65 195.946 1319.65 241.169C1319.65 286.392 1356.3 323.053 1401.49 323.053Z" fill="black"/>
<path d="M1464.68 1766.11C1450.6 1766.11 1438.61 1755.26 1437.47 1740.98C1436.32 1725.93 1447.55 1712.79 1462.59 1711.65C1511.12 1707.84 1558.32 1685.56 1592.01 1650.33C1625.7 1615.1 1645.87 1566.93 1647.59 1518.18C1648.16 1503.13 1660.72 1490.95 1675.76 1491.71C1690.79 1492.28 1702.59 1504.85 1702.21 1519.89C1700.12 1581.97 1674.42 1643.1 1631.6 1688.04C1588.78 1732.79 1528.63 1761.35 1466.78 1766.11C1466.02 1766.11 1465.44 1766.11 1464.68 1766.11Z" fill="black"/>
<path d="M1629.51 1844C1618.28 1844 1607.81 1837.15 1603.81 1825.91C1598.67 1811.63 1606.1 1796.01 1620.37 1791.06C1650.06 1780.4 1677.09 1763.07 1698.41 1740.79C1718.01 1720.22 1733.43 1695.09 1742.75 1667.66C1747.7 1653.38 1763.12 1645.77 1777.58 1650.91C1791.86 1655.86 1799.28 1671.47 1794.33 1685.75C1782.34 1720.41 1762.74 1752.6 1737.8 1778.68C1710.59 1807.06 1676.33 1829.15 1638.83 1842.67C1635.79 1843.81 1632.74 1844.19 1629.7 1844.19L1629.51 1844Z" fill="black"/>
<path d="M538.17 503.388C532.08 503.388 526.179 499.96 523.324 493.866C519.518 485.678 522.944 475.966 531.128 472.158L677.68 403.413C685.864 399.605 695.571 403.032 699.377 411.221C703.184 419.409 699.758 429.121 691.574 432.929L545.022 501.674C542.738 502.817 540.454 503.197 538.17 503.197V503.388Z" fill="black"/>
<path d="M492.302 627.166C486.021 627.166 479.931 623.548 477.266 617.264C473.65 608.885 477.457 599.363 485.831 595.745L744.676 483.393C753.05 479.775 762.567 483.583 766.183 491.962C769.799 500.341 765.993 509.862 757.618 513.48L498.773 625.833C496.68 626.785 494.396 627.166 492.302 627.166Z" fill="black"/>
<path d="M480.883 734.948C474.602 734.948 468.511 731.33 465.847 725.046C462.23 716.667 465.847 707.146 474.221 703.528L799.49 561.469C807.674 557.85 817.381 561.469 820.997 569.847C824.614 578.226 820.997 587.748 812.623 591.366L487.354 733.425C485.26 734.377 482.976 734.758 480.883 734.758V734.948Z" fill="black"/>
<path d="M535.886 821.973C529.986 821.973 524.086 818.736 521.231 813.023C517.044 805.025 520.279 795.123 528.273 790.933L846.691 628.117C854.875 623.928 864.581 627.165 868.769 635.354C872.956 643.352 869.72 653.254 861.726 657.443L543.309 820.259C540.835 821.402 538.36 821.973 535.886 821.973Z" fill="black"/>
<path d="M604.596 927.472C598.505 927.472 592.796 924.044 589.941 918.331C585.944 910.143 589.179 900.431 597.363 896.432L773.797 809.406C781.791 805.407 791.688 808.645 795.684 816.833C799.681 825.022 796.446 834.733 788.262 838.732L611.828 925.758C609.544 926.9 607.07 927.472 604.596 927.472Z" fill="black"/>
<path d="M1252.85 537.856C1246.57 537.856 1240.48 534.047 1237.81 527.953C1234.2 519.575 1238.01 510.053 1246.38 506.435L1443.37 421.695C1451.74 418.076 1461.26 421.885 1464.88 430.264C1468.49 438.643 1464.69 448.164 1456.31 451.782L1259.32 536.523C1257.23 537.475 1254.94 537.856 1252.85 537.856Z" fill="black"/>
<path d="M1190.99 668.489C1184.52 668.489 1178.43 664.681 1175.77 658.397C1172.34 650.018 1176.34 640.497 1184.52 636.878L1498.37 506.245C1506.56 502.817 1516.26 506.626 1519.88 515.005C1523.31 523.383 1519.31 532.905 1511.12 536.523L1197.28 667.156C1195.18 668.109 1193.09 668.489 1190.99 668.489Z" fill="black"/>
<path d="M1227.54 771.511C1220.88 771.511 1214.78 767.512 1212.31 761.037C1209.08 752.659 1213.26 743.137 1221.64 739.9L1530.92 620.692C1539.29 617.455 1548.81 621.644 1552.04 630.023C1555.28 638.402 1551.09 647.923 1542.72 651.161L1233.44 770.368C1231.53 771.13 1229.44 771.511 1227.54 771.511Z" fill="black"/>
<path d="M1271.12 858.727C1264.65 858.727 1258.56 854.918 1255.9 848.444C1252.47 840.065 1256.47 830.543 1265.03 827.116L1542.15 714.763C1550.52 711.336 1560.04 715.335 1563.46 723.904C1566.89 732.283 1562.89 741.804 1554.33 745.232L1277.21 857.584C1275.12 858.346 1273.22 858.727 1271.12 858.727Z" fill="black"/>
<path d="M1312.23 927.471C1305.38 927.471 1298.91 923.091 1296.62 916.236C1293.77 907.667 1298.53 898.336 1307.09 895.479L1426.24 856.442C1434.8 853.585 1444.13 858.346 1446.98 866.915C1449.84 875.485 1445.08 884.815 1436.52 887.672L1317.37 926.71C1315.66 927.281 1313.94 927.471 1312.23 927.471Z" fill="black"/>
</g>
<defs>
<clipPath id="clip0_157_263">
<rect width="1948" height="1687" fill="white" transform="translate(26 157)"/>
</clipPath>
</defs>
</svg>
