<svg width="2000" height="2000" viewBox="0 0 2000 2000" fill="none" xmlns="http://www.w3.org/2000/svg">
<g clip-path="url(#clip0_157_272)">
<path d="M882.645 1256.24C870.9 1228.42 846.03 1228.94 819.606 1218.05C783.509 1203.19 749.486 1183.32 717.535 1161.03C646.033 1111.27 584.203 1049.07 527.9 983.068C521.164 975.293 509.938 973.91 500.612 975.811C414.085 993.435 351.737 1058.92 341.892 1147.04C329.975 1252.44 394.223 1345.39 473.151 1408.46C556.052 1474.46 677.984 1522.32 783.509 1485.35C877.118 1452.52 914.25 1353.52 885.408 1262.8C874.527 1228.42 820.297 1243.11 831.35 1277.66C857.429 1359.91 811.661 1434.2 723.579 1440.43C636.016 1446.65 549.316 1404.83 486.622 1346.09C435.846 1298.57 394.05 1237.92 396.641 1165.7C399.232 1093.82 446.209 1044.06 515.638 1029.89L488.35 1022.64C539.99 1083.11 596.12 1139.61 659.677 1187.64C688.174 1209.24 718.053 1229.46 749.659 1246.56C760.366 1252.26 830.659 1275.42 834.459 1284.4C848.448 1317.58 896.807 1288.89 882.99 1256.07L882.645 1256.24Z" fill="#222221"/>
<path d="M621.336 843.114C551.043 767.435 546.38 650.46 621.336 575.472C694.392 502.385 815.806 502.385 888.862 575.472C961.918 648.56 961.918 770.026 888.862 843.114C813.907 918.102 696.983 913.436 621.336 843.114C594.911 818.578 555.188 858.146 581.613 882.854C679.366 973.738 831.523 979.785 928.585 882.854C1022.88 788.514 1022.88 630.245 928.585 535.732C834.286 441.22 675.739 441.047 581.613 535.732C485.068 633.009 490.595 784.713 581.613 882.854C606.31 909.462 645.861 869.55 621.336 843.114Z" fill="#222221"/>
<path d="M1354.66 336.167C1229.44 258.242 1053.63 296.081 1021.5 454.178C1019.6 463.508 1020.98 474.739 1028.76 481.478C1124.61 563.895 1220.29 663.764 1265.02 784.54C1282.12 830.673 1299.22 843.804 1350.86 849.506C1390.58 853.998 1430.82 845.705 1464.67 823.589C1541.01 773.481 1552.41 677.068 1535.31 594.132C1513.38 487.525 1442.57 397.332 1354.83 336.167C1325.12 315.433 1296.97 364.158 1326.51 384.719C1400.08 436.036 1459.32 512.233 1479.53 600.871C1498.35 683.116 1476.59 793.524 1372.97 795.079C1322.19 795.77 1322.36 772.79 1304.05 733.05C1286.96 695.902 1265.71 660.827 1241.88 627.825C1192.14 558.712 1132.9 497.547 1068.48 442.083L1075.73 469.383C1100.78 346.361 1230.83 325.282 1326.33 384.892C1357.08 404.071 1385.23 355.519 1354.66 336.34V336.167Z" fill="#222221"/>
<path d="M1724.95 1236.71C1644.29 1070.84 1485.23 935.206 1295.94 925.703C1286.96 925.184 1275.56 931.232 1271.76 939.525C1218.22 1057.71 1113.73 1162.07 998.878 1221.16C990.415 1225.48 984.543 1236.02 985.061 1245.35C990.07 1375.28 1065.54 1503.14 1151.9 1596.1C1228.75 1678.86 1351.38 1771.3 1471.41 1756.1C1523.05 1749.53 1572.79 1722.92 1597.66 1675.58C1629.44 1615.11 1609.92 1546.17 1593.17 1484.66C1587.99 1465.82 1576.76 1435.76 1578.32 1416.75C1580.56 1388.76 1588.16 1387.9 1614.93 1383.58C1639.28 1379.6 1660.53 1382.2 1683.84 1370.97C1734.79 1346.43 1746.88 1293.39 1728.06 1243.11C1715.62 1209.59 1661.22 1224.1 1674 1257.96C1706.99 1346.26 1610.79 1316.37 1566.57 1331.74C1535.83 1342.28 1522.88 1366.3 1521.5 1397.4C1518.9 1451.66 1543.95 1503.32 1553.97 1555.5C1568.65 1631.52 1535.49 1697.87 1452.93 1701.5C1351.9 1705.82 1249.48 1619.95 1186.09 1549.8C1113.04 1468.93 1045.68 1356.62 1041.36 1245.01C1036.7 1253.13 1032.04 1261.25 1027.55 1269.2C1150 1206.13 1263.47 1093.48 1320.63 967.344C1312.52 972.009 1304.4 976.674 1296.46 981.166C1466.4 989.805 1605.43 1117.15 1676.93 1264.36C1692.65 1296.84 1741.18 1268.33 1725.47 1236.02L1724.95 1236.71Z" fill="#222221"/>
<path d="M1369.51 1024.88C1344.81 1002.25 1319.42 984.795 1288.51 971.664C1274.35 965.616 1258.8 967.344 1250.17 981.685C1198.53 1066.52 1127.2 1139.44 1044.82 1194.73C1035.49 1200.95 1027.03 1214.77 1031.86 1226.52C1062.43 1300.47 1125.47 1396.54 1212 1410.53C1246.89 1416.24 1274.18 1397.92 1288.86 1367.16C1298.35 1347.29 1300.77 1325.52 1306.13 1304.44C1314.42 1271.79 1314.24 1265.91 1343.09 1277.66C1394.73 1298.57 1465.54 1323.97 1475.38 1243.8C1485.4 1163.63 1422.01 1078.79 1369.51 1024.71C1344.29 998.791 1304.74 1038.36 1329.79 1064.45C1364.5 1100.21 1414.41 1159.31 1418.21 1212.01C1421.84 1262.29 1389.72 1238.1 1361.05 1223.93C1345.5 1216.15 1330.31 1206.65 1312.34 1206.99C1262.09 1207.86 1255.35 1276.11 1246.71 1313.26C1233.93 1368.2 1180.05 1338.31 1152.24 1311.53C1123.05 1283.54 1101.12 1248.64 1085.75 1211.49C1081.43 1222.03 1077.11 1232.57 1072.8 1243.28C1163.3 1182.46 1241.53 1103.5 1298.18 1010.02C1285.4 1013.3 1272.62 1016.76 1259.84 1020.04C1286.78 1031.45 1307.85 1044.58 1329.61 1064.45C1356.21 1088.81 1396.11 1049.24 1369.34 1024.71L1369.51 1024.88Z" fill="#222221"/>
<path d="M786.099 333.748C888.343 370.205 980.57 436.554 1060.19 509.123C1143.09 584.629 1223.74 675.513 1264.33 781.947C1299.74 874.559 1279.01 945.746 1222.71 1024.19C1165.71 1103.5 1086.79 1179.52 997.841 1221.85C907.341 1265.05 813.56 1224.1 734.805 1172.96C638.088 1110.06 555.015 1023.33 486.794 931.059C374.879 779.874 320.476 603.289 324.275 414.437C324.966 379.19 324.275 336.858 358.299 318.024C396.64 296.772 451.907 298.673 494.221 298.154C590.247 297.117 694.218 303.856 786.272 333.575C820.641 344.633 835.494 290.552 801.125 279.494C706.826 249.084 598.883 241.654 500.611 242C429.282 242.345 315.985 241.827 282.825 320.27C245.174 409.427 272.462 533.312 289.388 624.542C308.04 724.583 340.683 812.012 395.949 898.23C466.069 1007.77 554.842 1108.16 658.295 1187.3C738.604 1248.63 849.311 1313.95 955.009 1295.29C1057.94 1276.97 1152.07 1191.96 1219.43 1116.97C1283.5 1045.44 1349.99 954.212 1339.29 853.134C1325.3 721.991 1234.62 604.499 1145.33 513.442C1048.79 414.956 931.693 326.491 800.952 279.839C766.929 267.744 752.248 321.998 786.099 333.92V333.748Z" fill="#222221"/>
</g>
<defs>
<clipPath id="clip0_157_272">
<rect width="1472" height="1516" fill="white" transform="translate(264 242)"/>
</clipPath>
</defs>
</svg>
