<svg width="2000" height="2000" viewBox="0 0 2000 2000" fill="none" xmlns="http://www.w3.org/2000/svg">
<g clip-path="url(#clip0_157_273)">
<path d="M830.564 911.249C701.543 1104.29 611.498 1313.08 565.803 1541.05C557.931 1580.19 618.026 1597.08 625.897 1557.55C670.632 1334.57 758.182 1131.54 884.322 942.72C906.594 909.33 852.643 878.051 830.372 911.249H830.564Z" fill="#222221"/>
<path d="M1434.2 1540.28C1388.5 1312.5 1298.46 1104.1 1169.44 911.057C1147.17 877.86 1093.22 908.946 1115.49 942.528C1241.63 1131.16 1329.18 1333.99 1373.91 1556.78C1381.78 1596.12 1441.88 1579.42 1434.01 1540.28H1434.2Z" fill="#222221"/>
<path d="M373.039 420.193C40.1196 460.682 7.28845 1021.4 246.13 1193.53C393.006 1299.45 579.625 1205.04 700.582 1103.91C816.547 1007 904.865 863.468 831.523 713.791C754.149 556.054 550.634 413.668 373.039 420.193C332.912 421.728 332.72 484.093 373.039 482.558C527.787 476.801 711.718 606.138 777.572 745.261C855.138 908.947 682.151 1060.16 552.17 1130.39C465.772 1177.21 357.487 1204.08 273.777 1136.73C208.115 1083.95 176.628 996.643 163.956 915.855C139.573 760.997 180.468 505.969 373.039 482.558C412.398 477.761 412.974 415.395 373.039 420.193Z" fill="#222221"/>
<path d="M1626.77 1239.96C1959.69 1199.67 1992.52 638.759 1753.67 466.63C1606.8 360.704 1420.18 455.116 1299.22 556.244C1183.26 653.151 1094.94 796.688 1168.28 946.365C1245.46 1104.1 1449.17 1246.49 1626.57 1239.96C1666.7 1238.43 1666.89 1176.06 1626.57 1177.6C1471.83 1183.35 1287.9 1054.02 1222.04 914.894C1144.47 751.209 1317.46 599.996 1447.44 529.763C1533.84 482.941 1642.13 456.075 1725.84 523.43C1791.5 576.201 1822.98 663.513 1835.66 744.3C1860.04 899.159 1819.15 1154.19 1626.57 1177.6C1587.22 1182.39 1586.64 1244.76 1626.57 1239.96H1626.77Z" fill="#222221"/>
<path d="M860.517 805.131C863.205 725.687 903.908 615.348 999.906 614.772C1093.6 614.196 1139.87 726.262 1139.29 805.131C1138.72 884.383 1094.37 995.49 999.906 995.49C905.444 995.49 863.013 884.191 860.517 805.131C859.173 765.025 796.775 764.833 798.119 805.131C801.767 918.924 868.005 1058.43 999.906 1057.86C1128.93 1057.28 1202.08 919.884 1201.69 805.131C1201.31 690.762 1129.31 552.406 999.906 552.406C870.501 552.406 801.767 690.954 798.119 805.131C796.775 845.237 859.173 845.237 860.517 805.131Z" fill="#222221"/>
<path d="M631.465 879.97C564.459 874.789 540.459 797.456 618.217 782.104C652.2 775.388 689.064 789.396 719.975 803.021C752.806 817.413 784.485 836.026 813.476 856.943V803.021C761.062 841.208 697.319 876.708 631.465 879.97C591.53 881.889 591.338 944.255 631.465 942.336C708.647 938.498 783.333 901.846 844.963 856.943C864.739 842.551 864.931 817.413 844.963 803.021C772.389 750.825 654.696 686.157 565.611 733.555C523.18 756.199 493.421 803.021 504.94 852.146C518.572 910.865 576.362 938.114 631.273 942.336C671.4 945.406 671.016 883.041 631.273 879.97H631.465Z" fill="#222221"/>
<path d="M1368.53 780.186C1435.54 785.367 1459.54 862.701 1381.78 878.052C1347.8 884.769 1310.94 870.76 1280.03 857.136C1247.19 842.744 1215.51 824.13 1186.52 803.214V857.136C1238.94 818.949 1302.68 783.448 1368.53 780.186C1408.47 778.267 1408.66 715.902 1368.53 717.821C1291.35 721.659 1216.67 758.31 1155.04 803.214C1135.26 817.606 1135.07 842.744 1155.04 857.136C1227.61 909.331 1345.3 973.999 1434.39 926.601C1476.82 903.958 1506.58 857.136 1495.06 808.011C1481.43 749.291 1423.64 722.042 1368.73 717.821C1328.6 714.75 1328.98 777.116 1368.73 780.186H1368.53Z" fill="#222221"/>
</g>
<defs>
<clipPath id="clip0_157_273">
<rect width="1818" height="1160" fill="white" transform="translate(91 420)"/>
</clipPath>
</defs>
</svg>
