<svg width="2000" height="2000" viewBox="0 0 2000 2000" fill="none" xmlns="http://www.w3.org/2000/svg">
<g clip-path="url(#clip0_157_274)">
<path d="M304.745 634.139C767.65 634.139 1230.75 633.147 1693.66 632.155C1717.47 632.155 1734.53 604.584 1721.44 583.559C1653.78 475.062 1570.24 365.969 1478.57 276.513C1408.33 207.686 1302.18 206.892 1208.93 200.545C1072.81 191.223 935.113 192.214 799 200.545C698.204 206.496 605.742 208.281 526.773 278.497C467.447 331.456 417.843 396.515 369.429 459.194C339.667 497.674 296.809 540.716 276.769 585.741C260.102 623.229 315.658 656.155 332.524 618.271C345.421 589.311 372.008 561.939 390.858 536.947C432.327 481.409 475.383 426.664 522.209 375.49C557.726 336.613 596.615 294.365 647.211 281.472C685.902 271.554 727.768 270.166 767.253 267.389C890.072 258.463 1013.69 256.877 1136.7 261.637C1217.26 264.811 1346.03 255.885 1414.49 305.274C1464.09 340.977 1504.37 400.284 1542.27 447.293C1585.92 501.641 1628.78 557.377 1665.68 616.485C1675.01 600.221 1684.33 584.154 1693.46 567.89C1230.55 568.683 767.451 569.873 304.547 569.873C263.078 569.873 263.078 634.337 304.547 634.337L304.745 634.139Z" fill="#222221"/>
<path d="M276.771 618.072C407.328 873.349 540.267 1127.63 688.484 1373.19C766.461 1502.32 848.407 1629.06 934.718 1753.03C959.917 1789.33 980.949 1821.46 1026.58 1796.07C1058.93 1778.22 1083.13 1740.34 1104.36 1711.58C1143.45 1658.22 1178.17 1601.49 1212.3 1544.96C1303.18 1393.82 1387.11 1238.51 1470.44 1083.2C1553.97 927.697 1635.13 770.604 1721.44 616.287C1733.34 595.064 1718.46 567.691 1693.66 567.691C1289.09 568.286 884.519 568.882 479.949 569.278C421.614 569.278 363.082 569.278 304.747 569.477C263.278 569.477 263.278 633.94 304.747 633.94C709.317 633.345 1113.89 632.75 1518.46 632.354C1576.79 632.354 1635.32 632.354 1693.66 632.155C1684.33 616.089 1675.01 599.824 1665.88 583.559C1517.47 848.555 1381.75 1120.29 1231.35 1384.1C1169.84 1492.2 1109.13 1606.85 1029.96 1703.25C1021.62 1713.36 1002.97 1726.25 997.616 1737.56C997.219 1738.55 990.473 1745.3 993.052 1741.33C990.076 1746.09 995.433 1739.54 1000.59 1742.12C1022.02 1752.83 986.504 1714.16 983.33 1709.59C904.559 1595.34 828.764 1479.11 756.739 1360.5C603.562 1108.59 466.853 847.563 332.724 585.146C313.874 548.253 258.12 580.783 276.969 617.676L276.771 618.072Z" fill="#222221"/>
<path d="M773.008 613.51C836.302 998.309 889.478 1389.06 974.4 1769.69C983.328 1810.16 1045.63 1793.1 1036.5 1752.63C951.582 1372 898.406 981.251 835.112 596.452C828.366 555.591 766.261 572.848 773.008 613.51Z" fill="#222221"/>
<path d="M1207.94 605.576C1164.68 814.638 1124.2 1024.1 1086.51 1234.15C1067.66 1339.27 1049.6 1444.4 1032.14 1549.52C1021.82 1611.81 1018.05 1681.23 997.616 1741.13C984.123 1780.4 1046.43 1797.26 1059.72 1758.19C1080.36 1698.09 1083.93 1628.86 1094.24 1566.58C1111.7 1461.26 1129.76 1356.13 1148.61 1251.21C1186.31 1041.15 1226.79 831.696 1270.04 622.635C1278.37 582.171 1216.27 564.915 1207.94 605.576Z" fill="#222221"/>
<path d="M587.29 301.704C642.45 415.16 718.046 518.104 777.571 629.378C797.214 666.073 852.77 633.544 833.326 596.849C773.801 485.575 698.204 382.631 643.045 269.175C624.989 231.885 569.234 264.612 587.29 301.704Z" fill="#222221"/>
<path d="M846.026 614.304C915.273 489.145 986.505 365.375 1061.51 243.389C1083.33 207.885 1027.58 175.554 1005.75 210.86C930.948 332.647 859.518 456.616 790.47 581.775C770.43 618.073 825.986 650.602 846.224 614.304H846.026Z" fill="#222221"/>
<path d="M1018.45 255.886C1086.31 373.706 1157.93 490.534 1211.11 616.288C1227.18 654.372 1282.74 621.644 1266.86 583.759C1213.89 458.203 1142.26 341.375 1074.2 223.357C1053.57 187.455 997.813 219.786 1018.45 255.886Z" fill="#222221"/>
<path d="M1266.87 616.287C1323.22 507.988 1388.3 404.449 1440.68 294.365C1458.54 257.075 1402.78 224.347 1384.92 261.836C1332.34 371.92 1267.26 475.657 1211.11 583.758C1192.06 620.453 1247.62 653.18 1266.87 616.287Z" fill="#222221"/>
</g>
<defs>
<clipPath id="clip0_157_274">
<rect width="1453" height="1611" fill="white" transform="translate(273 194)"/>
</clipPath>
</defs>
</svg>
