<svg width="2000" height="2000" viewBox="0 0 2000 2000" fill="none" xmlns="http://www.w3.org/2000/svg">
<g clip-path="url(#clip0_157_275)">
<path d="M823.329 1574.71C935.369 1512.55 1037.61 1431.81 1135.45 1349.56C1257.29 1246.86 1373.39 1135.89 1476.47 1014.45C1556.23 920.537 1640.05 814.296 1675.03 694.036C1714.57 558.406 1632.28 425.815 1517.87 354.706C1406.51 285.624 1295.31 313.156 1187.84 372.948C1061.43 443.213 949.732 542.022 846.819 642.689C657.214 827.809 454.091 1046.03 367.569 1301.59C341.376 1378.78 318.562 1460.86 314.506 1542.61C311.972 1592.27 317.548 1647.84 368.076 1670.81C429.418 1698.68 512.56 1679.43 574.748 1665.41C660.594 1645.98 745.595 1616.26 823.329 1574.71C854.592 1557.98 826.878 1510.69 795.615 1527.24C732.583 1560.86 664.65 1585.18 595.703 1603.59C538.416 1618.96 465.413 1639.9 405.929 1625.38C314.169 1602.91 401.704 1372.36 420.631 1316.28C496.338 1092.82 668.705 903.647 830.258 737.107C924.553 639.818 1025.27 546.076 1137.14 469.224C1215.21 415.681 1319.82 347.106 1419.35 370.921C1550.82 402.338 1661.51 549.96 1620.95 683.564C1587.83 792.508 1510.27 889.966 1437.77 975.431C1339.08 1091.81 1228.39 1198.22 1112.47 1297.2C1013.61 1381.48 909.682 1463.9 795.784 1527.07C764.86 1544.3 792.574 1591.6 823.498 1574.54L823.329 1574.71Z" fill="#222221"/>
<path d="M347.629 1460.69L534.699 1647.33C559.709 1672.33 598.576 1633.48 573.566 1608.49L386.496 1421.85C361.486 1396.85 322.619 1435.7 347.629 1460.69Z" fill="#222221"/>
<path d="M451.048 1239.77C474.031 1201.43 522.192 1144.34 573.565 1172.21C634.569 1205.31 575.93 1260.04 553.455 1295.51C536.387 1322.53 574.409 1349.72 596.547 1328.78C605.672 1320.34 614.967 1312.06 625.613 1305.64C656.2 1287.06 658.228 1286.05 686.28 1314.93C713.825 1342.97 714.839 1337.39 697.771 1362.73C687.8 1377.59 676.309 1390.77 663.973 1403.44C643.019 1424.89 670.902 1465.26 697.264 1446.51C728.189 1424.55 793.418 1390.43 826.371 1425.9C860.675 1462.72 818.597 1508.5 789.7 1531.47C761.986 1553.42 801.191 1592.1 828.568 1570.31C879.433 1529.95 917.962 1460.02 875.208 1400.06C825.695 1330.47 728.865 1357.33 669.719 1399.21C680.872 1413.57 691.856 1427.93 703.009 1442.28C748.974 1395.16 805.923 1317.29 743.229 1259.87C685.266 1206.66 606.855 1243.99 557.849 1290.1C572.213 1301.25 586.577 1312.23 600.941 1323.38C623.585 1287.57 656.2 1262.23 656.2 1216.63C656.2 1178.46 634.4 1143.66 601.279 1125.08C521.347 1080.49 443.613 1146.19 403.732 1212.4C385.481 1242.81 432.966 1270.34 451.217 1240.11L451.048 1239.77Z" fill="#222221"/>
<path d="M1218.76 611.948C988.432 825.106 762.157 1044.51 561.399 1286.22C538.924 1313.24 577.622 1352.26 600.266 1325.06C801.024 1083.36 1027.3 863.954 1257.63 650.796C1283.65 626.812 1244.79 587.964 1218.76 611.948Z" fill="#222221"/>
<path d="M1367.81 769.706C1148.29 996.038 913.232 1208.52 664.65 1402.76C636.767 1424.55 675.973 1463.06 703.518 1441.61C952.099 1247.37 1186.99 1034.89 1406.68 808.554C1431.35 783.218 1392.48 744.37 1367.81 769.706Z" fill="#222221"/>
<path d="M1539.84 893.681C1394.17 748.254 1248.5 602.995 1102.84 457.568C1077.83 432.571 1038.96 471.419 1063.97 496.417C1209.64 641.844 1355.3 787.271 1500.97 932.529C1525.98 957.527 1564.85 918.678 1539.84 893.681Z" fill="#222221"/>
</g>
<defs>
<clipPath id="clip0_157_275">
<rect width="1371" height="1371" fill="white" transform="translate(314 314)"/>
</clipPath>
</defs>
</svg>
