<svg width="2000" height="2000" viewBox="0 0 2000 2000" fill="none" xmlns="http://www.w3.org/2000/svg">
<g clip-path="url(#clip0_157_276)">
<path d="M550.558 450.192C553.274 500.776 591.131 543.552 643.927 543.552C696.723 543.552 736.956 500.946 737.295 450.192C737.465 400.626 696.723 359.207 647.492 357.171C593.338 354.794 553.444 398.589 550.558 450.192C548.691 485.669 603.863 485.499 605.73 450.192C608.447 401.305 681.953 400.965 681.953 450.192C681.953 499.418 608.277 499.079 605.73 450.192C603.863 414.884 548.691 414.715 550.558 450.192Z" fill="#222221"/>
<path d="M1262.03 450.192C1264.74 500.776 1302.6 543.552 1355.4 543.552C1408.19 543.552 1448.42 500.946 1448.76 450.192C1448.93 400.626 1408.19 359.207 1358.96 357.171C1304.81 354.794 1264.91 398.589 1262.03 450.192C1260.16 485.669 1315.33 485.499 1317.2 450.192C1319.92 401.305 1393.42 400.965 1393.42 450.192C1393.42 499.418 1319.75 499.079 1317.2 450.192C1315.33 414.884 1260.16 414.715 1262.03 450.192Z" fill="#222221"/>
<path d="M722.526 487.876C830.155 527.767 907.566 606.699 960.871 706.68C977.508 738.083 1025.21 710.244 1008.57 678.841C948.309 565.62 858.335 479.559 737.295 434.745C704.022 422.354 689.592 475.654 722.696 487.876H722.526Z" fill="#222221"/>
<path d="M1282.23 434.576C1161.53 479.389 1071.56 565.111 1011.29 677.992C994.484 709.226 1042.19 737.234 1058.99 705.831C1112.3 606.189 1189.71 527.597 1297 487.876C1329.93 475.654 1315.67 422.354 1282.4 434.745L1282.23 434.576Z" fill="#222221"/>
<path d="M894.662 847.567C793.315 640.646 487.914 513.846 310.174 707.866C164.689 866.918 143.978 1161.09 366.195 1259.03C361.951 1248.68 357.707 1238.32 353.463 1227.8C308.476 1336.44 277.24 1488.02 382.153 1572.89C467.034 1641.64 615.405 1668.46 712.678 1612.95C762.588 1584.44 801.973 1538.61 831.851 1490.06C861.729 1441.85 895.002 1386.34 884.646 1329.14C857.484 1179.25 863.256 1016.97 897.209 868.616C905.187 833.988 851.882 819.22 844.073 854.018C819.458 961.467 810.8 1072.65 814.705 1182.65C816.572 1234.25 822.344 1285 829.983 1335.93C837.622 1387.53 796.37 1447.96 766.153 1489.21C694.174 1587.66 586.206 1607.18 474.673 1563.05C332.243 1506.52 358.386 1358.84 406.429 1242.57C410.673 1232.55 403.882 1215.92 393.697 1211.33C298.8 1169.41 251.437 1094.38 254.153 991.173C256.53 904.432 289.803 811.242 348.88 746.738C503.532 578.01 760.89 700.058 846.62 875.236C862.238 907.148 909.771 879.14 894.323 847.398L894.662 847.567Z" fill="#222221"/>
<path d="M1651.29 673.578C1532.45 586.158 1374.24 598.89 1253.71 677.312C1194.29 716.184 1144.21 769.315 1111.79 832.63C1096.34 862.845 1105.67 883.385 1111.79 915.976C1120.27 962.147 1125.2 1009 1127.74 1055.85C1132.84 1144.12 1130.63 1233.91 1115.86 1321.33C1109.24 1360.03 1110.09 1370.73 1125.71 1407.9C1140.82 1443.72 1158.47 1478.52 1180.71 1510.6C1263.55 1629.59 1387.14 1667.95 1524.98 1621.44C1596.96 1597.17 1661.13 1551.34 1680.66 1474.44C1701.37 1393.3 1676.75 1303.34 1645.69 1228.14L1632.95 1259.37C1749.75 1207.77 1807.3 1103.55 1799.32 977.424C1792.19 866.41 1743.98 749.964 1657.06 678.161C1629.9 655.755 1590.68 694.457 1618.01 717.203C1690.5 777.123 1732.94 870.654 1742.96 963.335C1755.01 1076.05 1710.7 1165.16 1605.11 1211.84C1595.1 1216.26 1588.14 1232.72 1592.38 1243.08C1622.09 1315.05 1655.87 1416.39 1616.32 1490.4C1579.48 1558.98 1481.36 1585.8 1408.7 1586.98C1320.59 1588.34 1259.31 1534.53 1214.83 1462.9C1195.48 1431.84 1167.81 1388.38 1166.11 1352.39C1164.58 1321.67 1176.8 1285.01 1179.69 1253.94C1187.16 1173.48 1186.82 1092 1179.52 1011.54C1176.13 974.708 1171.37 938.043 1164.75 901.717C1157.11 860.299 1167.13 841.797 1192.93 807.678C1292.41 676.633 1484.24 619.429 1623.28 721.616C1651.97 742.665 1679.47 694.796 1651.12 673.917L1651.29 673.578Z" fill="#222221"/>
<path d="M1046.77 1500.41C1022.15 1519.59 969.189 1515.35 947.46 1495.15C931.163 1480.04 920.807 1454.24 912.829 1434.21C891.608 1380.91 881.762 1322.35 875.821 1265.65C862.579 1139.53 866.654 1007.64 893.985 883.723C904.171 837.892 916.054 781.027 945.762 743.003C964.436 719.069 999.577 712.619 1028.78 723.313C1053.39 732.479 1064.26 758.79 1074.27 781.706C1121.8 890.174 1130.29 1019.18 1130.12 1135.97C1130.12 1246.98 1129.27 1413.84 1046.94 1500.41C1022.49 1526.21 1061.37 1565.26 1085.99 1539.45C1177.32 1443.55 1183.94 1273.46 1185.3 1149.21C1186.82 1011.03 1179.69 835.006 1101.43 715.165C1067.31 662.883 989.051 647.945 934.049 678.5C886.516 704.98 865.635 776.783 851.884 825.331C807.916 979.46 803.672 1151.75 826.25 1309.62C836.266 1379.04 851.715 1454.92 892.627 1513.48C935.237 1574.59 1027.42 1584.78 1085.99 1539.11C1114 1517.39 1074.61 1478.52 1046.94 1500.07L1046.77 1500.41Z" fill="#222221"/>
</g>
<defs>
<clipPath id="clip0_157_276">
<rect width="1600" height="1286" fill="white" transform="translate(200 357)"/>
</clipPath>
</defs>
</svg>
