<svg width="2000" height="2000" viewBox="0 0 2000 2000" fill="none" xmlns="http://www.w3.org/2000/svg">
<g clip-path="url(#clip0_157_277)">
<path d="M1680.68 519.193C1544.61 396.105 1330.51 367.651 1155.26 353.992C942.463 337.407 714.056 347.813 510.197 416.43C413.145 449.276 324.546 496.104 269.598 585.697C264.884 593.501 264.559 604.721 269.598 612.363C377.055 778.702 579.451 890.083 763.802 947.969C787.862 955.448 802.493 928.619 793.714 909.107C767.378 850.571 784.285 765.694 868.657 787.483C924.418 801.791 964.409 855.937 997.898 898.863C1011.39 916.099 1035.94 903.579 1042.12 887.156C1062.92 830.897 1106.17 714.963 1187.13 734.15C1265.81 752.849 1236.38 862.441 1215.74 912.034C1207.93 930.733 1230.69 950.245 1248.25 944.554C1428.86 885.368 1626.22 775.776 1731.89 612.2C1736.93 604.558 1736.6 593.339 1731.89 585.534C1717.09 561.144 1700.68 539.193 1680.52 518.868C1656.46 494.803 1619.07 532.039 1643.13 556.266C1660.2 573.339 1673.69 591.713 1686.21 612.2V585.534C1588.5 736.752 1400.9 839.027 1234.11 893.66L1266.62 926.18C1300.27 846.019 1310.35 710.573 1201.11 683.419C1085.36 654.476 1023.1 786.995 991.07 873.335C1005.86 869.433 1020.49 865.531 1035.29 861.628C981.154 792.361 893.368 697.565 794.852 741.792C716.495 776.914 717.47 867.97 748.195 935.774L778.108 896.912C607.575 843.417 415.096 739.678 315.442 585.534V612.2C374.942 514.966 486.3 474.641 591.806 447.162C716.657 414.804 846.386 402.284 974.976 400.658C1105.84 399.032 1237.85 408.626 1365.79 436.593C1462.68 457.893 1568.18 488.137 1643.29 556.266C1668.49 579.03 1705.88 541.795 1680.68 518.868V519.193Z" fill="#222221"/>
<path d="M1643.29 1443.41C1543.15 1534.14 1389.52 1563.73 1260.28 1581.94C1092.19 1605.68 918.404 1605.85 750.31 1583.08C621.72 1565.68 465.005 1537.55 364.214 1448.45C257.57 1354.14 239.687 1170.73 235.461 1038.21C230.909 893.01 242.126 712.525 329.587 589.762C404.855 484.072 562.383 449.438 682.032 427.487C845.574 397.569 1015.29 393.504 1180.79 408.626C1323.03 421.634 1482.19 446.674 1604.44 526.185C1738.07 613.014 1761.15 809.597 1766.35 954.961C1772.04 1109.11 1762.45 1327.8 1643.45 1443.25C1619.07 1466.99 1656.46 1504.38 1680.84 1480.65C1793.66 1371.05 1815.77 1180.65 1819.51 1031.87C1823.58 876.262 1808.13 685.858 1712.87 555.941C1631.42 444.723 1473.9 403.423 1345.79 378.87C1165.51 344.399 978.229 339.358 795.991 358.545C645.78 374.48 474.922 402.61 350.395 494.966C230.909 583.746 199.208 752.362 186.69 891.709C171.897 1057.07 182.789 1246.34 260.008 1396.58C324.06 1521.3 459.478 1574.14 588.556 1606.17C788.188 1655.93 1001.8 1662.92 1205.66 1641.46C1366.28 1624.55 1556.32 1593.49 1680.68 1480.81C1705.88 1457.88 1668.49 1420.65 1643.29 1443.41Z" fill="#222221"/>
<path d="M643.015 863.416C506.134 1036.58 388.11 1222.6 292.033 1421.3C277.239 1451.7 322.921 1478.53 337.714 1447.96C431.678 1253.49 546.45 1070.08 680.405 900.652C701.214 874.311 664.149 836.587 643.015 863.254V863.416Z" fill="#222221"/>
<path d="M1321.24 900.813C1455.2 1070.24 1569.97 1253.65 1663.94 1448.12C1678.73 1478.69 1724.25 1452.03 1709.62 1421.46C1613.54 1222.76 1495.52 1036.58 1358.64 863.578C1337.5 836.912 1300.44 874.472 1321.24 900.976V900.813Z" fill="#222221"/>
<path d="M1067.32 1186.18C1114.13 1168.29 1150.88 1102.92 1179.97 1065.04C1230.86 999.024 1281.42 925.691 1290.68 840.652C1298.97 764.392 1258.17 680.816 1172.66 680.491C1069.92 680.166 1021.31 792.522 991.397 873.334C1006.19 869.432 1020.82 865.529 1035.62 861.627C981.48 792.359 893.694 697.564 795.179 741.791C717.959 776.425 715.358 870.57 749.335 937.724C784.287 1006.99 848.013 1057.4 910.276 1100.97C950.43 1129.1 1009.12 1184.22 1060.49 1186.99C1094.46 1188.78 1094.3 1135.93 1060.49 1134.14C1036.43 1132.84 991.072 1092.19 969.938 1077.88C936.774 1055.45 903.936 1032.84 873.861 1006.34C828.18 966.016 760.064 895.285 783.799 827.156C803.469 770.734 869.146 780.327 909.626 806.668C945.228 829.92 972.539 865.854 998.387 898.862C1011.88 916.098 1036.43 903.578 1042.61 887.155C1063.09 832.034 1121.13 689.271 1205.5 741.303C1279.79 787.156 1221.75 907.643 1190.22 959.349C1170.06 992.357 1146.97 1022.76 1123.08 1053.17C1107.14 1073.33 1072.19 1127.97 1053.82 1134.96C1022.28 1146.99 1035.94 1198.05 1067.8 1185.85L1067.32 1186.18Z" fill="#222221"/>
</g>
<defs>
<clipPath id="clip0_157_277">
<rect width="1639" height="1306" fill="white" transform="translate(181 347)"/>
</clipPath>
</defs>
</svg>
