<svg width="2000" height="2000" viewBox="0 0 2000 2000" fill="none" xmlns="http://www.w3.org/2000/svg">
<g clip-path="url(#clip0_157_264)">
<path d="M722.211 1505.25C722.211 1505.25 721.132 1505.25 720.67 1505.25C708.493 1504.48 699.245 1493.84 700.17 1481.66C704.948 1411.84 676.742 1336.61 614.009 1251.37C596.437 1227.63 577.325 1204.05 558.674 1181.24C521.374 1135.45 482.994 1088.13 453.709 1034.8C362.615 867.707 378.953 644.815 493.63 492.983C567.614 394.793 682.29 320.65 816.233 283.963C1008.75 231.246 1211.59 264.541 1358.94 372.596C1518.01 489.283 1600.62 696.761 1559.93 877.11C1535.43 986.089 1471.92 1079.35 1410.42 1169.67C1350 1258.46 1292.82 1342.47 1268.93 1440.66C1266 1452.53 1254.13 1459.77 1242.26 1456.85C1230.39 1453.92 1223.15 1442.05 1226.08 1430.18C1251.97 1324.28 1313.93 1233.03 1374.05 1144.86C1435.85 1054.07 1494.27 968.363 1516.93 867.553C1553.77 703.852 1478.09 515.025 1332.89 408.512C1196.33 308.318 1007.51 277.798 827.948 326.815C703.407 360.881 597.208 429.475 528.926 519.804C424.423 658.379 409.472 861.541 492.551 1013.84C519.678 1063.78 555.284 1107.4 592.892 1153.64C611.697 1176.92 631.272 1200.81 649.46 1225.48C718.82 1319.5 749.801 1404.44 744.253 1485.05C743.482 1496.77 733.771 1505.55 722.211 1505.55V1505.25Z" fill="black"/>
<path d="M706.644 1634.57C684.911 1634.57 659.325 1633.49 635.896 1620.85C605.84 1604.67 588.423 1571.99 591.505 1537.93C594.28 1506.02 614.626 1480.12 644.219 1470.41C690.922 1455.15 964.049 1450.83 1216.37 1448.06L1269.24 1447.44C1284.96 1447.29 1321.8 1446.83 1340.91 1477.19C1350.46 1492.3 1352.93 1510.33 1348.15 1529.45C1341.52 1556.11 1319.95 1583.86 1294.51 1598.35C1269.54 1612.69 1182.3 1631.95 714.042 1634.57C711.73 1634.57 709.264 1634.57 706.644 1634.57ZM1269.85 1491.68L1216.98 1492.3C1063 1493.99 702.174 1497.85 658.092 1512.34C639.595 1518.35 636.204 1535 635.588 1541.78C634.509 1554.42 639.441 1572.45 657.013 1582.01C673.197 1590.64 693.851 1590.64 713.734 1590.49C1158.1 1588.02 1254.59 1570.3 1272.47 1560.12C1287.58 1551.49 1301.45 1534.07 1305.3 1518.81C1308.08 1508.02 1304.69 1502.63 1303.45 1500.78C1299.29 1493.99 1289.74 1491.53 1269.85 1491.84V1491.68Z" fill="black"/>
<path d="M959.888 1780.55C910.41 1780.55 850.914 1779.62 779.088 1777.46C761.825 1777 738.088 1776.23 717.896 1759.43C696.317 1741.39 686.299 1709.33 691.693 1675.73C696.472 1645.36 713.118 1621.78 736.084 1612.53C769.069 1599.27 920.429 1599.89 1154.1 1605.29L1191.71 1606.06C1202.65 1606.21 1235.79 1606.98 1248.27 1641.2C1264 1684.05 1232.71 1736.15 1205.12 1755.73C1188.01 1767.75 1142.23 1780.55 959.734 1780.55H959.888ZM910.719 1645.98C833.651 1645.98 767.219 1647.83 752.731 1653.69C744.562 1656.92 737.78 1668.48 735.468 1682.82C732.693 1700.39 737.163 1717.96 746.411 1725.67C754.272 1732.15 765.061 1733.07 780.475 1733.53C1109.24 1743.4 1169.2 1727.21 1179.84 1719.97C1195.56 1708.87 1214.06 1676.04 1206.97 1656.77C1205.73 1653.22 1204.81 1650.91 1190.94 1650.6L1153.17 1649.83C1099.38 1648.6 998.267 1646.29 910.719 1646.29V1645.98Z" fill="black"/>
<path d="M966.669 1935C963.124 1935 959.578 1935 956.188 1934.54C916.267 1930.99 876.808 1907.25 847.523 1869.33C821.936 1836.19 806.523 1796.12 794.038 1764.05C789.568 1752.65 795.271 1739.85 806.677 1735.38C818.083 1730.91 830.876 1736.62 835.346 1748.02C849.835 1785.48 862.628 1816.31 882.665 1842.36C904.398 1870.57 932.605 1888.14 960.195 1890.45C987.939 1892.76 1018.15 1879.51 1037.26 1856.39C1055.91 1833.88 1065.47 1802.59 1063.16 1770.22C1062.39 1758.04 1071.48 1747.56 1083.66 1746.64C1095.53 1745.71 1106.31 1754.96 1107.24 1767.14C1110.17 1810.61 1097.07 1853.46 1071.17 1884.6C1044.81 1916.19 1005.66 1934.85 966.669 1934.85V1935Z" fill="black"/>
<path d="M1050.98 1490.29C1041.27 1490.29 1032.33 1483.82 1029.71 1473.95C998.882 1359.12 1028.63 1226.55 1109.4 1119.27C1128.82 1093.37 1150.7 1069.63 1171.82 1046.51C1184.31 1032.79 1197.25 1018.77 1209.28 1004.59C1247.81 959.268 1269.85 922.119 1280.64 883.891C1293.59 837.494 1287.11 790.943 1262.91 759.343C1253.05 746.395 1240.57 736.838 1227.62 731.905C1231.47 767.359 1222.69 803.736 1199.87 830.712C1180.14 853.987 1153.33 864.469 1130.05 857.841C1105.85 851.059 1088.59 827.166 1087.97 799.575C1087.51 780.769 1094.29 761.193 1108.32 741.154C1124.5 718.032 1145.31 701.077 1167.97 691.674C1163.5 684.891 1158.1 678.572 1151.94 673.177C1116.18 641.731 1056.84 637.107 1010.75 662.386C995.183 670.864 981.157 682.425 969.134 696.298C1013.06 726.973 1040.65 778.149 1040.65 831.174C1040.65 867.398 1025.86 897.61 1001.19 911.946C964.356 933.372 917.499 913.487 896.845 881.425C880.198 855.683 875.266 822.08 882.356 782.002C886.518 758.11 894.071 735.451 904.398 714.795C872.029 706.626 835.808 710.788 806.06 727.281C767.834 748.399 740.244 789.247 734.079 833.795C727.759 878.65 741.631 930.597 775.079 988.093C787.563 1009.67 802.052 1030.94 816.078 1051.6C834.883 1079.35 854.304 1108.17 870.334 1138.85C925.668 1244.9 936.458 1356.19 902.394 1469.33C898.849 1481.05 886.518 1487.67 874.804 1484.13C863.089 1480.58 856.462 1468.25 860.007 1456.54C890.525 1354.8 880.815 1254.76 831.029 1159.19C816.078 1130.68 798.199 1104.16 779.394 1076.26C765.06 1054.99 750.109 1033.1 736.853 1010.29C698.319 944.008 682.598 882.658 690.304 827.629C698.474 769.671 734.541 716.337 784.635 688.591C828.255 664.39 882.356 660.228 928.905 676.105C945.86 654.525 966.36 636.799 989.634 624.005C1052.37 589.63 1131.13 596.259 1181.22 640.344C1195.25 652.675 1206.35 667.781 1214.21 684.121C1245.5 686.279 1276.63 704.314 1298.37 732.83C1330.73 775.374 1340.14 836.415 1323.49 896.069C1307.31 953.873 1270.01 1002.12 1243.34 1033.41C1230.7 1048.21 1217.6 1062.54 1204.81 1076.57C1184.46 1098.92 1163.34 1121.89 1145.16 1146.09C1072.4 1242.58 1045.43 1360.81 1072.71 1462.7C1075.95 1474.57 1068.86 1486.59 1057.14 1489.83C1055.3 1490.29 1053.29 1490.6 1051.44 1490.6L1050.98 1490.29ZM944.318 733.139C935.533 750.403 929.059 769.516 925.668 789.555C922.277 809.44 920.736 837.34 933.837 857.533C943.085 871.868 964.664 882.042 978.845 873.872C991.638 866.319 996.262 847.051 996.262 831.328C996.262 793.563 975.916 755.644 944.318 733.139ZM1183.23 733.139C1167.04 740.229 1153.33 753.64 1144.23 766.588C1135.75 778.611 1131.59 789.401 1131.9 798.496C1132.05 806.049 1136.52 813.756 1141.76 815.143C1148.08 816.839 1158.1 811.29 1165.96 802.041C1181.38 783.698 1186.93 757.956 1183.23 733.139Z" fill="black"/>
<path d="M387.893 1173.07C381.42 1173.07 374.946 1170.14 370.63 1164.74C267.052 1034.18 224.665 858.458 257.341 695.065C259.653 683.042 271.522 675.335 283.39 677.801C295.413 680.268 303.119 691.828 300.653 703.852C270.443 854.759 309.593 1016.92 405.157 1137.46C412.709 1147.02 411.168 1160.89 401.611 1168.44C397.604 1171.68 392.672 1173.22 387.893 1173.22V1173.07Z" fill="black"/>
<path d="M271.984 1202.66C264.585 1202.66 257.341 1198.96 253.179 1192.18C193.529 1094.76 160.236 983.161 156.999 869.095C156.691 856.917 166.248 846.744 178.424 846.436C190.601 845.819 200.774 855.684 201.082 867.862C204.165 974.221 235.146 1078.27 290.634 1169.06C296.954 1179.39 293.717 1193.11 283.39 1199.43C279.845 1201.58 275.837 1202.66 271.83 1202.66H271.984Z" fill="black"/>
<path d="M1382.53 304.927C1377.44 304.927 1372.2 303.232 1368.04 299.532C1358.79 291.517 1357.71 277.644 1365.73 268.395L1489.5 125.195C1497.51 115.947 1511.38 114.868 1520.63 122.883C1529.88 130.899 1530.96 144.772 1522.94 154.02L1399.17 297.22C1394.86 302.307 1388.69 304.927 1382.37 304.927H1382.53Z" fill="black"/>
<path d="M1234.56 254.985C1233.48 254.985 1232.4 254.985 1231.47 254.83C1219.45 253.135 1210.97 241.882 1212.67 229.859C1219.76 180.533 1223.61 142.459 1227.47 84.8095C1228.24 72.6322 1239.33 63.3835 1251.05 64.1543C1263.23 64.925 1272.47 75.5609 1271.7 87.7383C1267.85 146.621 1263.84 185.466 1256.6 236.179C1255.06 247.277 1245.5 255.139 1234.71 255.139L1234.56 254.985Z" fill="black"/>
<path d="M1521.86 433.637C1514.31 433.637 1506.91 429.784 1502.75 422.693C1496.58 412.211 1500.13 398.646 1510.61 392.481L1808.71 217.219C1819.19 211.053 1832.75 214.599 1838.92 225.08C1845.08 235.562 1841.54 249.127 1831.06 255.293L1532.96 430.554C1529.42 432.558 1525.56 433.637 1521.71 433.637H1521.86Z" fill="black"/>
<path d="M1797.46 588.398C1797.46 588.398 1796.22 588.398 1795.76 588.398C1728.25 583.157 1659.81 583.157 1592.3 588.398C1580.28 589.323 1569.49 580.228 1568.57 568.051C1567.64 555.874 1576.74 545.238 1588.91 544.313C1658.74 538.918 1729.48 538.918 1799.15 544.313C1811.33 545.238 1820.42 555.874 1819.5 568.051C1818.57 579.612 1808.86 588.398 1797.46 588.398Z" fill="black"/>
<path d="M1750.91 837.957C1749.37 837.957 1747.98 837.957 1746.44 837.495L1622.05 812.215C1610.03 809.749 1602.32 798.034 1604.79 786.165C1607.25 774.142 1618.97 766.435 1630.84 768.901L1755.22 794.18C1767.25 796.647 1774.95 808.362 1772.49 820.231C1770.33 830.713 1761.08 837.957 1750.91 837.957Z" fill="black"/>
</g>
<defs>
<clipPath id="clip0_157_264">
<rect width="1685" height="1871" fill="white" transform="translate(157 64)"/>
</clipPath>
</defs>
</svg>
