<svg width="2000" height="2000" viewBox="0 0 2000 2000" fill="none" xmlns="http://www.w3.org/2000/svg">
<g clip-path="url(#clip0_157_265)">
<path d="M995.854 985.216C621.101 985.216 222.795 907.107 222.795 762.142C222.795 638.765 506.738 583.029 628.821 564.712C638.896 563.142 648.187 570.076 649.757 580.151C651.196 590.225 644.392 599.514 634.317 600.953C375.365 639.681 259.564 709.808 259.564 762.142C259.564 850.325 561.957 948.451 995.985 948.451C1430.01 948.451 1732.41 850.194 1732.41 762.142C1732.41 710.724 1619.35 641.512 1366.68 602.393C1356.61 600.823 1349.8 591.533 1351.37 581.459C1352.94 571.385 1362.36 564.581 1372.31 566.151C1491.64 584.599 1769.17 640.727 1769.17 762.142C1769.17 906.977 1370.87 985.216 996.116 985.216H995.854Z" fill="black"/>
<path d="M998.864 780.59C883.585 780.59 768.438 766.067 656.561 737.283C651.066 735.844 646.486 731.919 644.261 726.685C623.849 678.8 613.512 628.036 613.512 575.571C613.381 362.964 786.364 190 998.733 190C1211.1 190 1384.08 362.964 1384.08 575.571C1384.08 627.905 1373.75 678.8 1353.34 726.685C1351.11 731.919 1346.53 735.844 1341.04 737.283C1231.12 765.544 1118.07 780.066 1004.75 780.59C1002.79 780.59 1000.7 780.59 998.733 780.59H998.864ZM674.619 703.92C782.569 730.872 893.53 744.217 1004.75 743.825C1111.92 743.302 1219.08 729.956 1323.24 703.92C1339.46 663.1 1347.58 619.924 1347.58 575.571C1347.58 383.243 1191.21 226.765 998.864 226.765C806.515 226.765 650.15 383.243 650.15 575.571C650.15 619.924 658.393 663.1 674.488 703.92H674.619Z" fill="black"/>
<path d="M1006.19 1084.52C870.632 1084.52 755.746 1034.02 726.959 961.666C723.164 952.246 727.744 941.517 737.165 937.854C746.586 934.19 757.185 938.639 760.98 948.059C783.617 1004.84 889.081 1047.76 1006.19 1047.76C1129.06 1047.76 1231.91 1006.8 1250.75 950.414C1254.02 940.863 1264.36 935.63 1273.91 938.77C1283.59 942.041 1288.7 952.376 1285.56 961.927C1261.09 1035.2 1148.82 1084.39 1006.19 1084.39V1084.52Z" fill="black"/>
<path d="M1012.73 919.274C989.051 919.274 965.498 914.171 944.169 904.097C923.103 894.154 917.607 880.547 916.822 870.996C916.037 862.099 918.392 845.09 942.599 831.745C979.106 811.727 1041 803.092 1083.79 826.773C1100.27 835.932 1113.75 857.258 1105.9 878.715C1099.49 896.247 1081.95 903.835 1076.2 906.321C1056.18 914.956 1034.46 919.274 1012.6 919.274H1012.73ZM954.507 867.856C955.553 868.641 957.254 869.687 959.871 870.865C991.537 885.78 1029.61 886.434 1061.8 872.566C1070.44 868.902 1071.49 866.417 1071.62 866.155C1071.88 865.239 1070.18 861.052 1066.25 858.828C1036.03 842.212 988.789 848.23 960.395 863.8C957.647 865.37 955.815 866.678 954.637 867.725L954.507 867.856Z" fill="black"/>
<path d="M712.303 905.668C688.619 905.668 665.066 900.566 643.738 890.492C622.671 880.548 617.175 866.941 616.39 857.39C615.605 848.493 617.961 831.485 642.168 818.14C678.675 798.122 740.567 789.487 783.485 813.168C799.972 822.326 813.45 843.653 805.599 865.109C799.187 882.641 781.653 890.23 775.896 892.716C755.876 901.351 734.155 905.668 712.303 905.668ZM654.075 854.25C655.122 855.035 656.823 856.082 659.44 857.259C691.105 872.175 729.183 872.829 761.372 858.96C770.008 855.297 771.054 852.811 771.185 852.549C771.447 851.633 769.746 847.447 765.82 845.223C735.594 828.476 688.358 834.625 659.963 850.194C657.215 851.764 655.383 853.073 654.206 854.119L654.075 854.25Z" fill="black"/>
<path d="M1339.73 899.649C1316.04 899.649 1292.49 894.546 1271.16 884.472C1250.09 874.529 1244.6 860.922 1243.81 851.24C1243.03 842.343 1245.38 825.335 1269.59 811.989C1306.1 791.972 1367.99 783.336 1410.78 807.018C1427.27 816.176 1440.74 837.502 1432.89 858.959C1426.48 876.491 1408.95 884.079 1403.19 886.565C1383.17 895.2 1361.45 899.518 1339.6 899.518L1339.73 899.649ZM1281.5 848.231C1282.55 849.016 1284.25 850.062 1286.86 851.24C1318.53 866.286 1356.61 866.809 1388.8 852.941C1397.43 849.277 1398.48 846.791 1398.61 846.53C1398.87 845.614 1397.17 841.427 1393.24 839.203C1363.02 822.587 1315.78 828.605 1287.39 844.175C1284.64 845.745 1282.81 847.053 1281.63 848.1L1281.5 848.231Z" fill="black"/>
<path d="M426.658 841.036C402.975 841.036 379.422 835.933 358.093 825.859C337.027 815.916 331.531 802.309 330.746 792.758C329.961 783.861 332.316 766.852 356.523 753.507C393.946 732.966 454.529 724.593 497.71 748.535C514.197 757.694 527.674 779.02 519.823 800.477C513.412 818.009 495.878 825.597 490.121 828.083C470.101 836.718 448.379 841.036 426.528 841.036H426.658ZM368.43 789.618C369.477 790.403 371.178 791.449 373.664 792.627C405.33 807.542 443.407 808.196 475.596 794.328C484.232 790.664 485.279 788.179 485.41 787.917C485.672 787.001 483.971 782.814 480.045 780.59C449.819 763.974 402.582 769.992 374.188 785.562C371.44 787.132 369.608 788.44 368.43 789.487V789.618Z" fill="black"/>
<path d="M1581.01 821.411C1557.33 821.411 1533.78 816.308 1512.45 806.234C1491.38 796.29 1485.88 782.683 1485.1 773.002C1484.31 764.105 1486.67 747.096 1510.88 733.751C1547.38 713.733 1609.28 705.098 1652.19 728.779C1668.68 737.938 1682.16 759.264 1674.31 780.721C1667.9 798.253 1650.36 805.841 1644.6 808.327C1624.58 816.962 1602.86 821.28 1581.01 821.28V821.411ZM1522.78 769.992C1523.83 770.777 1525.53 771.824 1528.15 773.132C1559.81 788.048 1597.89 788.702 1629.95 774.833C1638.59 771.17 1639.63 768.684 1639.76 768.422C1640.03 767.506 1638.32 763.32 1634.4 761.096C1604.17 744.48 1556.94 750.498 1528.54 766.067C1525.79 767.637 1523.96 768.946 1522.78 769.992Z" fill="black"/>
<path d="M1265.01 611.419C1263.44 611.419 1262 611.419 1260.43 611.027C1238.32 607.625 1220.79 581.982 1189.12 535.273C1170.28 507.667 1146.99 473.258 1118.46 438.586C1104.46 421.447 1099.1 399.467 1104.07 379.841C1108.39 362.964 1119.64 350.142 1135.86 343.469C1136 343.469 1137.04 342.946 1137.17 342.946C1155.23 335.75 1181.4 340.198 1197.49 353.413C1218.69 370.683 1229.03 381.411 1241.85 396.457C1282.81 444.474 1309.24 513.424 1304.79 560.263C1302.96 579.757 1295.63 595.196 1283.72 604.616C1278.1 609.064 1271.82 611.289 1265.01 611.289V611.419ZM1156.54 376.178C1154.18 376.178 1152.09 376.44 1150.39 377.225C1144.24 379.711 1140.97 383.374 1139.66 388.869C1137.57 397.112 1140.44 407.448 1146.86 415.298C1176.43 451.277 1200.24 486.472 1219.48 514.732C1235.7 538.544 1253.89 565.235 1263.57 573.085C1266.06 569.421 1267.63 563.796 1268.28 556.861C1271.29 525.068 1253.37 466.454 1213.98 420.4C1202.34 406.793 1193.44 397.504 1174.33 382.066C1170.02 378.533 1162.56 376.44 1156.54 376.44V376.178Z" fill="black"/>
<path d="M1033.8 370.16C1032.89 370.16 1031.84 370.16 1030.92 370.16C1007.5 368.59 936.58 354.329 915.775 321.751C907.532 308.929 907.008 294.276 914.336 281.847C927.552 259.474 960.918 251.1 985.911 252.54C1015.61 254.371 1058.79 259.866 1091.38 286.164C1105.51 297.547 1110.35 313.378 1104.46 328.424C1094.65 353.544 1056.7 370.16 1033.67 370.16H1033.8ZM946.002 300.556C946.002 300.556 946.263 301.079 946.787 301.995C956.077 316.649 1006.58 331.695 1033.41 333.526C1044.79 334.311 1066.25 323.19 1070.05 316.256C1069.79 315.864 1069.26 315.471 1068.61 314.948C1049.9 299.902 1023.07 291.79 983.948 289.304C963.535 287.996 947.964 296.5 946.263 300.687L946.002 300.556Z" fill="black"/>
<path d="M156.587 814.607C156.587 814.607 156.194 814.607 156.064 814.607C145.988 814.345 138.006 805.841 138.268 795.766C140.231 729.04 178.046 664.015 234.573 629.998C243.209 624.765 254.593 627.643 259.696 636.278C264.93 644.914 262.052 656.296 253.416 661.399C207.226 689.005 176.476 742.124 174.906 796.682C174.644 806.626 166.401 814.476 156.587 814.476V814.607Z" fill="black"/>
<path d="M72.4504 804.664C62.5058 804.664 54.3932 796.814 54.1315 786.74C52.6921 729.172 82.7875 672.128 130.94 641.774C139.445 636.41 150.829 638.896 156.194 647.531C161.559 656.035 159.073 667.418 150.437 672.782C113.014 696.463 89.4608 740.816 90.6385 785.824C90.9002 795.898 82.9184 804.402 72.7121 804.664C72.5812 804.664 72.3195 804.664 72.1887 804.664H72.4504Z" fill="black"/>
<path d="M1847.56 814.607C1837.61 814.607 1829.5 806.757 1829.24 796.813C1827.67 742.255 1796.79 689.136 1750.73 661.53C1742.09 656.296 1739.21 645.044 1744.45 636.409C1749.68 627.774 1760.93 624.896 1769.57 630.129C1826.23 664.015 1864.04 729.171 1865.87 795.897C1866.14 805.972 1858.15 814.476 1848.08 814.738C1847.95 814.738 1847.69 814.738 1847.56 814.738V814.607Z" fill="black"/>
<path d="M1928.68 804.664C1928.68 804.664 1928.29 804.664 1928.16 804.664C1918.08 804.402 1909.97 796.029 1910.23 785.824C1911.41 740.816 1887.99 696.463 1850.43 672.782C1841.8 667.418 1839.31 656.035 1844.68 647.531C1850.04 638.896 1861.43 636.41 1869.93 641.774C1918.08 672.259 1948.31 729.172 1946.74 786.87C1946.48 796.814 1938.37 804.795 1928.42 804.795L1928.68 804.664Z" fill="black"/>
<path d="M1046.1 1810C1042.18 1810 1038.25 1810 1034.19 1810C823.527 1809.08 612.99 1782.52 408.211 1731.24C402.584 1729.8 398.004 1725.87 395.78 1720.51C393.555 1715.14 393.948 1709.13 396.827 1704.15L797.357 1019.89C802.46 1011.12 813.713 1008.24 822.48 1013.34C831.247 1018.45 834.126 1029.7 829.023 1038.46L440.923 1701.54C635.234 1748.38 834.78 1772.45 1034.33 1773.37C1241.85 1774.02 1448.99 1750.21 1650.76 1701.54L1231.65 1009.55C1226.41 1000.92 1229.16 989.533 1237.8 984.299C1246.43 979.066 1257.82 981.813 1263.05 990.449L1695.12 1703.76C1698.13 1708.73 1698.65 1714.88 1696.42 1720.25C1694.2 1725.61 1689.62 1729.67 1683.86 1731.11C1475.29 1783.44 1260.7 1810 1045.97 1810H1046.1Z" fill="black"/>
<path d="M776.421 1799.4C774.982 1799.4 773.542 1799.27 771.972 1798.88C762.158 1796.39 756.139 1786.45 758.495 1776.64L934.487 1063.85C936.843 1054.03 946.787 1048.02 956.732 1050.37C966.545 1052.86 972.565 1062.8 970.209 1072.61L794.217 1785.4C792.123 1793.78 784.665 1799.4 776.421 1799.4Z" fill="black"/>
<path d="M1309.5 1791.95C1301.39 1791.95 1293.93 1786.45 1291.71 1778.34L1103.28 1065.03C1100.66 1055.21 1106.55 1045.14 1116.37 1042.65C1126.18 1040.04 1136.26 1045.92 1138.74 1055.74L1327.17 1769.05C1329.78 1778.86 1323.89 1788.94 1314.08 1791.42C1312.51 1791.81 1310.94 1792.08 1309.37 1792.08L1309.5 1791.95Z" fill="black"/>
</g>
<defs>
<clipPath id="clip0_157_265">
<rect width="1893" height="1620" fill="white" transform="translate(54 190)"/>
</clipPath>
</defs>
</svg>
