<svg width="2000" height="2000" viewBox="0 0 2000 2000" fill="none" xmlns="http://www.w3.org/2000/svg">
<g clip-path="url(#clip0_157_266)">
<path d="M1100.41 1768.96C657.637 1768.96 297.465 1408.79 297.465 966.031C297.465 523.267 657.637 163.273 1100.41 163.273C1543.18 163.273 1903.35 523.439 1903.35 966.203C1903.35 1408.97 1543.18 1769.13 1100.41 1769.13V1768.96ZM1100.41 212.489C684.826 212.489 346.853 550.455 346.853 966.031C346.853 1381.61 684.998 1719.57 1100.41 1719.57C1515.82 1719.57 1853.97 1381.43 1853.97 966.031C1853.97 550.628 1515.99 212.489 1100.41 212.489Z" fill="black"/>
<path d="M1109.88 1770.85L1031.4 1762.25C912.839 1749.34 804.254 1665.71 761.577 1554.38C757.447 1543.88 754.005 1532.87 750.391 1522.02C739.722 1489.5 729.741 1458.87 707.542 1440.8C698.25 1433.23 686.204 1427.38 673.642 1421.18C655.573 1412.41 634.923 1402.43 619.091 1384.88C585.018 1347.19 586.395 1299.7 587.6 1257.88C587.944 1245.66 588.288 1232.76 587.772 1220.71C586.223 1180.96 559.894 1147.92 521.003 1110.75C496.223 1087 465.076 1070.66 432.036 1053.45C410.181 1042.09 387.638 1030.22 366.472 1015.93C306.414 975.151 291.443 867.084 318.288 797.736L364.234 815.632C344.961 865.191 354.942 948.651 394.005 975.151C412.762 987.885 433.24 998.554 454.751 1009.91C489.34 1027.98 525.133 1046.74 555.076 1075.3C596.204 1114.71 634.579 1159.28 636.988 1218.99C637.504 1232.76 636.988 1246.52 636.816 1259.6C635.783 1296.77 634.751 1328.95 655.573 1352.01C665.038 1362.5 679.665 1369.56 695.152 1376.96C709.779 1384.02 725.095 1391.41 738.862 1402.77C772.074 1430.13 785.496 1470.92 797.37 1506.88C800.64 1517.03 804.082 1527.19 807.867 1536.99C835.745 1609.44 896.146 1667.95 968.25 1696.34C919.034 1612.71 918.001 1501.55 972.896 1419.64C980.468 1408.28 988.9 1397.78 996.816 1387.63C1006.28 1375.58 1015.4 1364.23 1022.63 1352.18C1030.54 1339.1 1042.76 1314.15 1035.36 1291.61C1027.96 1269.07 1002.84 1253.58 975.477 1238.43C916.625 1205.91 855.707 1172.36 791.691 1151.36C776.72 1146.54 761.06 1142.07 745.573 1137.6C676.223 1117.81 604.464 1097.33 561.615 1035.72C545.439 1012.49 538.384 982.723 543.202 958.115C546.816 939.874 556.452 925.247 571.08 915.611C582.093 908.384 593.451 905.802 603.603 903.393C609.626 902.017 615.477 900.64 619.263 898.575C629.072 893.24 635.267 879.646 642.15 863.987C645.42 856.587 648.862 848.844 653.164 841.272C676.739 798.94 718.384 774.505 758.995 753.167L762.781 751.102C796.166 733.549 830.582 715.309 850.544 687.26C867.408 663.34 870.506 623.934 849.168 607.414C837.638 598.294 820.085 595.541 801.5 592.615C795.994 591.755 790.487 590.894 785.152 589.862C741.959 581.774 712.877 559.404 704.961 528.601C693.948 485.237 726.644 454.606 752.973 429.999C775.86 408.489 790.659 393.346 787.734 378.891C785.496 367.361 771.385 357.381 756.414 346.712C736.28 332.257 711.156 314.188 705.477 283.042L754.005 274.266C756.07 285.795 770.181 295.776 785.152 306.617C805.114 320.9 830.066 338.796 836.089 369.426C844.521 411.93 812.514 442.044 786.701 466.308C763.298 488.334 749.187 502.617 752.8 516.728C756.242 529.978 776.376 538.238 794.273 541.679C799.091 542.54 804.082 543.4 809.072 544.088C831.959 547.702 857.944 551.832 879.626 568.696C925.401 604.489 921.099 672.977 890.812 715.825C864.139 753.683 822.495 775.537 785.668 794.982L781.883 797.047C747.81 814.944 713.221 835.077 696.185 865.535C692.915 871.558 689.99 877.925 687.236 884.292C677.944 905.458 667.275 929.205 642.322 942.456C632.858 947.446 623.221 949.683 614.789 951.748C608.078 953.297 601.711 954.845 598.097 957.255C596.032 958.631 592.934 961.212 591.73 967.751C589.493 979.281 593.795 995.629 602.227 1007.67C635.095 1054.82 695.324 1072.03 759.168 1090.27C775.343 1094.92 791.519 1099.57 807.179 1104.56C875.668 1126.75 938.651 1161.69 999.569 1195.24C1034.5 1214.52 1069.61 1236.71 1082.51 1276.29C1092.49 1306.75 1086.3 1342.89 1064.96 1377.65C1056.01 1392.28 1045.69 1405.53 1035.53 1418.09C1027.79 1427.9 1020.39 1437.19 1013.85 1446.82C958.613 1529.42 975.477 1654.18 1050.51 1719.23L1110.22 1771.03L1109.88 1770.85Z" fill="black"/>
<path d="M1490.7 1471.6C1458.17 1471.6 1428.75 1456.63 1414.29 1431.68C1373.68 1361.64 1386.93 1271.82 1397.6 1199.54C1403.45 1160.48 1410.51 1111.61 1400.01 1099.22C1399.32 1098.36 1397.26 1095.78 1388.31 1095.61C1365.08 1094.92 1347.18 1095.61 1329.97 1096.47C1302.78 1097.67 1277.14 1098.7 1237.91 1093.71C1169.07 1084.77 1124.33 1016.11 1120.89 955.017C1117.79 901.5 1138.1 845.746 1180.95 789.131C1215.19 744.046 1250.64 719.438 1289.36 714.104C1325.84 709.113 1359.74 722.364 1389.69 734.065C1397.95 737.335 1406.03 740.604 1414.29 743.358C1451.29 756.092 1491.39 760.566 1530.45 756.264C1549.55 754.199 1561.94 749.036 1565.56 741.637C1570.37 731.828 1561.43 714.448 1540.43 692.766C1520.12 671.772 1498.96 649.918 1474.87 635.291C1460.58 626.687 1432.53 613.092 1403.45 619.631C1378.5 625.138 1357.33 644.411 1334.96 664.889C1327.91 671.428 1320.85 677.795 1313.62 683.818C1275.59 715.825 1218.46 739.744 1172.17 710.662C1125.88 681.581 1123.82 618.943 1122.78 588.829C1121.23 543.227 1119.17 480.934 1152.21 432.407C1180.6 390.592 1225.17 370.63 1268.37 351.185C1277.83 346.883 1287.3 342.753 1296.42 338.279C1337.2 318.49 1379.53 282.869 1375.4 242.946L1424.45 237.956C1429.95 293.366 1390.2 347.572 1317.93 382.676C1308.29 387.322 1298.48 391.796 1288.5 396.27C1249.95 413.651 1213.47 429.998 1192.82 460.285C1170.62 492.98 1170.11 537.205 1171.83 587.452C1173.03 622.041 1176.99 655.94 1198.16 669.191C1221.9 684.162 1258.04 666.265 1281.62 646.304C1288.33 640.625 1294.87 634.602 1301.58 628.58C1326.53 605.865 1354.92 580.225 1392.44 571.621C1426.34 564.049 1464.71 571.621 1500.16 593.303C1529.76 611.199 1552.99 635.291 1575.54 658.522C1613.22 697.412 1624.58 732.689 1609.44 763.663C1597.73 787.41 1572.78 801.521 1535.44 805.651C1489.32 810.641 1441.83 805.479 1397.95 790.336C1389 787.238 1380.22 783.797 1371.27 780.355C1344.6 769.858 1319.3 759.877 1295.73 763.319C1270.6 766.761 1245.82 785.001 1220.01 819.245C1184.39 866.223 1167.52 911.136 1169.93 952.436C1172.17 992.531 1201.25 1039.51 1244.1 1045.02C1279.04 1049.66 1301.58 1048.63 1327.56 1047.42C1344.77 1046.74 1364.39 1045.88 1389.34 1046.56C1409.99 1047.08 1426.17 1054.31 1437.52 1067.73C1462.13 1097.16 1455.08 1145.68 1445.96 1206.94C1435.98 1274.92 1424.62 1352.01 1456.63 1407.07C1464.54 1420.67 1484.5 1424.11 1499.82 1421.7C1530.97 1416.71 1546.45 1380.75 1552.99 1359.75C1573.99 1291.95 1604.45 1214.17 1670.35 1152.39C1689.97 1133.98 1717.51 1104.21 1730.24 1081.5C1742.63 1059.47 1736.61 1048.8 1728.35 1040.71C1723.01 1035.55 1714.58 1031.94 1704.94 1027.81C1697.37 1024.54 1689.63 1021.27 1681.71 1016.45C1643.34 993.391 1610.81 936.26 1609.61 889.11C1608.92 863.298 1618.04 842.648 1635.59 830.775L1638.52 829.054C1694.96 800.833 1725.94 859.856 1739.02 885.152L1742.63 892.035C1763.8 931.27 1773.26 928.172 1777.39 926.968C1782.73 925.247 1785.99 914.75 1789.95 900.123L1790.64 897.886C1791.67 894.273 1792.53 890.659 1793.39 887.045C1797.7 869.493 1802.69 849.704 1816.63 833.012C1829.02 818.041 1842.61 810.641 1857.24 811.329C1866.7 811.674 1880.47 815.631 1892.69 832.84L1853.8 860.545C1855.69 860.889 1858.1 860.717 1859.3 860.028C1859.3 860.028 1857.58 861.061 1854.66 864.675C1847.95 872.762 1844.85 885.496 1841.41 899.091C1840.37 903.221 1839.34 907.179 1838.31 911.136L1837.79 913.373C1831.94 934.711 1823.85 963.965 1792.88 974.118C1740.05 991.498 1710.45 936.432 1699.44 915.783L1695.65 908.555C1676.72 872.418 1670.01 870.009 1662.78 872.934C1660.37 875.516 1659.17 881.194 1659.34 888.422C1660.2 918.536 1683.6 960.524 1707.52 974.978C1712.52 977.904 1718.37 980.485 1724.73 983.238C1737.3 988.573 1751.41 994.596 1763.28 1006.3C1790.99 1033.49 1794.6 1068.93 1773.78 1106.45C1758.29 1133.98 1728 1167.19 1704.6 1189.22C1647.12 1243.08 1620.62 1310.54 1600.49 1375.24C1583.45 1430.3 1550.58 1464.38 1508.08 1471.26C1502.23 1472.29 1496.38 1472.64 1490.7 1472.64V1471.6Z" fill="black"/>
<path d="M719.072 1855C715.631 1855 712.361 1854.31 709.091 1852.93C369.742 1701.68 138.116 1336.86 145.516 965.513C145.86 952.091 156.874 941.422 170.124 941.422H170.64C184.235 941.766 195.076 952.951 194.732 966.546C187.677 1318.62 407.256 1664.51 728.881 1807.85C741.271 1813.36 746.95 1827.98 741.443 1840.37C737.313 1849.49 728.365 1855 718.9 1855H719.072Z" fill="black"/>
<path d="M381.615 1818.69C375.764 1818.69 369.741 1816.63 365.095 1812.32C216.586 1677.41 106.797 1496.38 55.8599 1302.45C52.4182 1289.2 60.3341 1275.78 73.4125 1272.33C86.663 1268.89 100.086 1276.81 103.527 1289.89C152.055 1474.7 256.682 1647.3 398.135 1775.67C408.288 1784.79 408.977 1800.45 399.856 1810.6C395.038 1815.94 388.326 1818.69 381.615 1818.69Z" fill="black"/>
<path d="M1904.73 624.45C1894.75 624.45 1885.29 618.255 1881.5 608.274C1819.55 438.947 1703.05 290.097 1553.68 189.085C1542.32 181.514 1539.4 166.199 1546.97 154.841C1554.54 143.484 1569.86 140.559 1581.21 148.13C1739.19 254.82 1862.23 412.274 1927.79 591.238C1932.44 603.972 1925.9 618.255 1913.16 622.901C1910.41 623.934 1907.48 624.45 1904.73 624.45Z" fill="black"/>
<path d="M1920.39 425.353C1910.59 425.353 1901.46 419.502 1897.51 410.037C1869.11 340.517 1829.53 276.675 1779.46 220.749C1770.34 210.596 1771.2 194.936 1781.52 185.988C1791.68 176.868 1807.33 177.728 1816.28 188.053C1869.97 248.281 1912.82 316.77 1943.28 391.625C1948.44 404.187 1942.42 418.642 1929.69 423.804C1926.59 425.008 1923.49 425.697 1920.39 425.697V425.353Z" fill="black"/>
</g>
<defs>
<clipPath id="clip0_157_266">
<rect width="1890" height="1711" fill="white" transform="translate(55 144)"/>
</clipPath>
</defs>
</svg>
