<svg width="2000" height="2000" viewBox="0 0 2000 2000" fill="none" xmlns="http://www.w3.org/2000/svg">
<g clip-path="url(#clip0_157_268)">
<path d="M138.366 1876C135.639 1876 133.056 1875.43 130.473 1874.42C122.722 1871.27 117.699 1863.66 117.699 1855.34C117.699 1853.62 117.986 1851.76 118.417 1850.04C195.488 1559.25 305.425 1467.44 393.834 1393.71C409.909 1380.37 424.979 1367.74 438.613 1354.83C337.431 1394.28 242.993 1478.2 203.525 1548.21C198.502 1557.1 187.594 1561.12 177.978 1557.39C168.362 1553.66 162.908 1543.48 165.205 1533.43C248.017 1169.2 466.313 1106.95 641.552 1056.88C686.188 1044.11 728.383 1032.06 765.411 1016.14C775.889 1011.55 788.088 1016.43 792.681 1026.9C797.273 1037.37 792.393 1049.56 781.916 1054.15C742.448 1071.23 698.961 1083.71 653.034 1096.76C498.318 1140.94 325.231 1190.29 234.813 1442.05C306.86 1370.33 407.9 1311.51 495.304 1295.87C503.485 1294.44 511.666 1297.88 516.115 1304.77C520.707 1311.65 520.707 1320.55 516.258 1327.43C490.999 1366.74 456.697 1395.29 420.386 1425.56C340.014 1492.55 240.841 1575.32 167.788 1826.8C455.692 1751.91 555.87 1624.53 616.58 1547.2C634.233 1524.68 648.298 1506.89 663.224 1495.42C669.683 1490.54 678.294 1489.82 685.327 1493.55C692.503 1497.28 696.808 1504.74 696.378 1512.78C691.929 1613.48 634.233 1703.86 562.185 1768.7C815.357 1683.49 873.483 1510.19 925.581 1354.98C939.79 1312.66 953.138 1272.63 970.073 1236.2C974.809 1225.87 987.152 1221.28 997.486 1226.16C1007.82 1230.89 1012.41 1243.23 1007.53 1253.56C991.601 1287.98 978.541 1326.86 964.763 1368.17C905.488 1544.91 831.718 1764.97 460.859 1837.84C450.812 1839.85 440.766 1834.11 437.321 1824.36C433.877 1814.75 438.039 1803.99 447.224 1799.11C524.582 1758.37 608.255 1678.18 640.978 1582.78C576.968 1663.69 457.845 1801.69 143.39 1875.28C141.667 1875.71 139.945 1875.86 138.223 1875.86L138.366 1876Z" fill="black"/>
<path d="M1013.13 1271.2C1011.41 1271.2 1009.69 1271.06 1008.11 1270.63C963.184 1259.29 897.308 1233.33 838.464 1173.22C779.764 1113.26 755.222 1046.84 744.888 1001.79C743.883 997.633 744.314 993.186 745.893 989.313L778.903 909.983C966.198 459.682 1401.93 151.256 1889.04 124C1895.36 123.57 1900.81 126.008 1904.83 130.025C1909.13 134.185 1911.43 140.21 1910.86 146.379C1873.11 632.544 1555.07 1061.18 1100.68 1238.49L1020.59 1269.76C1018.15 1270.77 1015.57 1271.2 1013.13 1271.2ZM786.796 998.924C796.699 1038.52 818.802 1094.03 868.029 1144.39C917.257 1194.74 972.37 1218.12 1011.84 1228.88L1085.61 1200.05C1517.89 1031.34 1822.59 627.523 1867.51 166.893C1405.8 201.752 995.333 497.41 817.223 925.763L786.796 998.924Z" fill="black"/>
<path d="M1013.13 1271.06C1011.41 1271.06 1009.83 1270.91 1008.11 1270.48C963.185 1259.15 897.309 1233.18 838.609 1173.22C779.908 1113.26 755.366 1046.98 745.033 1001.79C744.028 997.634 744.459 993.33 746.037 989.313L779.047 909.984C780.769 905.823 782.635 901.52 784.501 897.36L787.371 890.904C790.96 882.871 799.427 877.993 807.895 878.567C816.65 879.284 823.969 885.453 826.122 894.06C838.609 943.408 866.882 1016.28 931.467 1082.13C996.052 1148.12 1068.24 1178.1 1117.47 1191.58C1125.94 1193.88 1131.97 1201.34 1132.54 1210.23C1133.11 1218.98 1127.95 1227.16 1119.77 1230.46L1112.88 1233.33C1108.86 1235.05 1104.7 1236.77 1100.54 1238.35L1020.45 1269.62C1018.01 1270.63 1015.57 1271.06 1012.99 1271.06H1013.13ZM786.654 998.925C796.557 1038.52 818.659 1094.03 868.031 1144.39C917.402 1194.74 972.371 1218.12 1011.84 1228.88L1053.03 1212.81C1006.39 1193.45 952.278 1162.03 902.189 1110.96C852.243 1059.89 821.96 1005.09 803.733 958.184L786.797 998.925H786.654Z" fill="black"/>
<path d="M1355.57 830.366C1314.96 830.366 1274.34 814.729 1243.77 783.456C1183.49 721.771 1184.5 622.501 1246.21 562.251C1275.63 533.417 1314.38 517.637 1355.57 517.637H1357.3C1399.06 518.067 1438.24 534.708 1467.38 564.546C1496.51 594.384 1512.44 633.834 1512.01 675.579C1511.58 717.468 1494.93 756.487 1465.08 785.752C1434.65 815.447 1395.19 830.222 1355.72 830.222L1355.57 830.366ZM1355.57 559.095C1325.29 559.095 1296.73 570.715 1275.06 591.802C1229.71 636.129 1228.84 709.147 1273.34 754.479C1317.68 799.81 1390.74 800.527 1436.09 756.2C1458.05 734.826 1470.25 705.991 1470.68 675.292C1470.97 644.593 1459.34 615.472 1437.96 593.524C1416.57 571.575 1387.72 559.382 1357.01 558.951C1356.58 558.951 1356.15 558.951 1355.72 558.951L1355.57 559.095Z" fill="black"/>
<path d="M1550.76 588.647H1549.76C1524.07 588.36 1499.96 578.175 1482.02 559.813C1464.08 541.451 1454.32 517.207 1454.6 491.529C1454.89 465.851 1465.08 441.75 1483.45 423.819C1501.54 406.174 1525.36 396.419 1550.76 396.419H1551.77C1577.46 396.706 1601.57 406.891 1619.51 425.253C1637.45 443.615 1647.21 467.859 1646.92 493.537C1646.64 519.215 1636.45 543.316 1618.07 561.247C1599.99 578.892 1576.17 588.647 1550.76 588.647ZM1550.76 437.59C1536.27 437.59 1522.63 443.185 1512.3 453.227C1501.82 463.555 1495.94 477.183 1495.79 491.959C1495.65 506.735 1501.25 520.506 1511.44 531.122C1521.77 541.594 1535.41 547.476 1550.19 547.619C1564.83 547.619 1578.75 542.168 1589.23 531.983C1599.7 521.797 1605.59 508.026 1605.73 493.25C1605.88 478.474 1600.28 464.703 1590.09 454.231C1579.9 443.759 1566.12 437.877 1551.34 437.734H1550.76V437.59Z" fill="black"/>
<path d="M1154.64 954.74H1153.64C1127.95 954.453 1103.84 944.268 1085.9 925.906C1067.96 907.543 1058.2 883.3 1058.48 857.622C1058.77 831.943 1068.96 807.843 1087.33 789.911C1105.41 772.267 1129.24 762.512 1154.64 762.512H1155.65C1181.34 762.799 1205.45 772.984 1223.39 791.346C1241.33 809.708 1251.09 833.952 1250.8 859.63C1250.51 885.308 1240.32 909.408 1221.95 927.34C1203.87 944.985 1180.05 954.74 1154.64 954.74ZM1154.64 803.683C1140.15 803.683 1126.51 809.278 1116.18 819.319C1105.7 829.505 1099.82 843.276 1099.67 858.052C1099.53 872.828 1105.13 886.599 1115.32 897.071C1125.65 907.543 1139.29 913.425 1154.07 913.569H1154.64C1169.14 913.569 1182.77 907.974 1193.11 897.932C1203.58 887.603 1209.47 873.975 1209.61 859.2C1209.75 844.424 1204.16 830.652 1193.97 820.18C1183.78 809.708 1170 803.826 1155.22 803.683H1154.64Z" fill="black"/>
<path d="M542.954 973.963C536.496 973.963 530.468 970.951 526.449 965.786C521.282 958.901 520.852 949.433 525.588 942.26L637.965 766.529C696.809 674.432 787.227 607.009 892.429 576.74L1017.72 540.733C1026.62 538.151 1035.95 541.737 1040.83 549.34C1045.85 556.943 1045.14 566.985 1039.25 574.014C996.625 624.08 957.013 677.444 921.276 732.531C890.419 780.157 862.146 830.079 837.029 880.718C834.446 885.883 829.853 889.756 824.4 891.334L549.125 973.246C547.116 973.82 545.25 974.107 543.241 974.107L542.954 973.963ZM965.481 598.545L903.623 616.333C808.182 643.733 726.087 704.987 672.697 788.621L590.316 917.442L803.732 853.892C828.562 804.688 856.261 756.2 886.257 709.721C910.943 671.563 937.351 634.408 965.481 598.401V598.545Z" fill="black"/>
<path d="M1125.22 1202.92C1172.87 1181.97 1224.83 1156.15 1279.22 1124.45C1343.09 1087.29 1398.34 1048.85 1445.27 1012.55C1431.35 1053.72 1417.43 1094.9 1403.51 1135.92C1370.07 1234.62 1301.75 1317.82 1211.33 1369.9L1030.64 1473.9L1125.22 1202.77V1202.92Z" fill="black"/>
<path d="M1827.47 477.183C1825.46 477.183 1823.45 476.896 1821.3 476.179C1692.7 436.442 1599.56 340.041 1565.83 211.937C1562.96 200.891 1569.56 189.558 1580.61 186.689C1591.66 183.676 1603 190.419 1605.87 201.465C1636.44 317.232 1717.25 400.865 1833.64 436.729C1844.55 440.172 1850.72 451.648 1847.28 462.55C1844.55 471.445 1836.37 477.183 1827.47 477.183Z" fill="black"/>
<path d="M1514.59 1104.79C1508.42 1104.79 1502.39 1102.07 1498.37 1096.9C1491.34 1088.01 1492.78 1074.95 1501.82 1067.78C1643.62 955.601 1751.98 806.839 1814.98 637.421C1819 626.662 1830.91 621.21 1841.53 625.227C1852.3 629.244 1857.75 641.15 1853.73 651.766C1788 828.214 1675.19 983.288 1527.37 1100.2C1523.49 1103.21 1519.04 1104.65 1514.59 1104.65V1104.79Z" fill="black"/>
<path d="M110.667 1419.96C109.519 1419.96 108.227 1419.96 107.079 1419.67C95.8843 1417.67 88.2777 1406.91 90.287 1395.72C112.389 1270.2 226.489 1145.53 323.079 1082.56C332.695 1076.39 345.468 1078.97 351.783 1088.58C357.954 1098.19 355.371 1110.96 345.755 1117.27C256.341 1175.37 151.14 1289.56 131.191 1402.89C129.468 1412.93 120.714 1419.96 110.811 1419.96H110.667Z" fill="black"/>
<path d="M1386 821.042C1381.12 821.042 1376.81 817.599 1375.95 812.721L1326.87 558.378C1325.86 552.783 1329.45 547.475 1335.05 546.328C1340.65 545.18 1345.96 548.91 1347.1 554.505L1396.19 808.848C1397.19 814.443 1393.61 819.751 1388.01 820.898C1387.29 820.898 1386.72 821.042 1386 821.042Z" fill="black"/>
<path d="M1311.22 809.422C1306.49 809.422 1302.18 806.123 1301.18 801.389L1254.53 586.638C1253.38 581.044 1256.83 575.592 1262.43 574.445C1268.02 573.297 1273.48 576.74 1274.63 582.335L1321.27 797.085C1322.42 802.68 1318.97 808.131 1313.38 809.279C1312.66 809.422 1311.94 809.565 1311.22 809.565V809.422Z" fill="black"/>
<path d="M1444.27 779.009C1439.39 779.009 1435.08 775.566 1434.22 770.546L1394.47 558.234C1393.46 552.639 1397.05 547.332 1402.65 546.184C1408.24 545.18 1413.55 548.766 1414.7 554.361L1454.46 766.672C1455.46 772.267 1451.87 777.575 1446.28 778.722C1445.7 778.722 1444.98 778.866 1444.41 778.866L1444.27 779.009Z" fill="black"/>
<path d="M900.32 725.358C900.32 725.358 899.89 725.358 899.746 725.358C894.149 725.071 889.7 720.193 890.13 714.455L897.163 600.123C897.45 594.528 902.617 590.081 908.071 590.511C913.668 590.798 918.117 595.676 917.686 601.414L910.654 715.746C910.367 721.198 905.774 725.358 900.464 725.358H900.32Z" fill="black"/>
<path d="M825.546 853.749C825.546 853.749 825.116 853.749 824.972 853.749C819.231 853.462 814.926 848.585 815.213 842.99L826.838 614.325C827.125 608.587 832.292 604.139 837.602 604.57C843.343 604.857 847.649 609.734 847.362 615.329L835.736 843.994C835.449 849.445 830.857 853.749 825.403 853.749H825.546Z" fill="black"/>
<path d="M746.181 891.048H745.894C740.153 891.048 735.704 886.17 735.847 880.576L740.583 663.53C740.583 657.935 745.32 653.488 750.917 653.488H751.204C756.945 653.488 761.394 658.366 761.25 663.96L756.514 881.006C756.514 886.601 751.778 891.048 746.181 891.048Z" fill="black"/>
<path d="M662.075 923.754C656.478 923.754 651.885 919.307 651.742 913.713L649.445 778.292C649.445 772.554 653.894 767.964 659.492 767.82H659.635C665.233 767.82 669.825 772.267 669.969 777.862L672.265 913.282C672.265 919.021 667.816 923.611 662.219 923.754H662.075Z" fill="black"/>
</g>
<defs>
<clipPath id="clip0_157_268">
<rect width="1821" height="1752" fill="white" transform="translate(90 124)"/>
</clipPath>
</defs>
</svg>
