<svg width="2000" height="2000" viewBox="0 0 2000 2000" fill="none" xmlns="http://www.w3.org/2000/svg">
<g clip-path="url(#clip0_157_269)">
<path d="M1262.9 505.316C1259.73 505.316 1256.66 504.002 1254.47 501.375C1250.53 496.667 1251.19 489.769 1255.9 485.827C1261.7 480.9 1267.61 476.301 1273.64 471.812C1278.45 468.199 1285.46 469.184 1289.07 474.002C1292.69 478.819 1291.7 485.717 1286.88 489.44C1281.19 493.71 1275.61 498.09 1270.13 502.689C1268.05 504.44 1265.53 505.207 1263.12 505.207L1262.9 505.316Z" fill="black"/>
<path d="M762.721 1601C756.918 1601 752.1 1596.51 751.771 1590.71C751.333 1584.69 755.932 1579.43 762.064 1578.99C768.087 1578.55 773.999 1578.01 779.803 1577.24C787.687 1576.15 795.68 1574.72 803.564 1573.08C809.476 1571.77 815.389 1575.6 816.703 1581.51C818.017 1587.42 814.185 1593.34 808.272 1594.54C799.841 1596.4 791.19 1597.93 782.759 1599.03C776.408 1599.91 769.948 1600.56 763.488 1601C763.269 1601 763.05 1601 762.721 1601ZM719.141 1600.45C719.141 1600.45 718.484 1600.45 718.156 1600.45C703.483 1599.14 688.482 1596.84 673.591 1593.45C667.678 1592.13 663.955 1586.22 665.269 1580.31C666.583 1574.39 672.496 1570.67 678.408 1571.98C692.315 1575.16 706.33 1577.35 720.017 1578.55C726.04 1579.1 730.529 1584.47 729.982 1590.49C729.434 1596.18 724.726 1600.56 719.032 1600.56L719.141 1600.45ZM847.91 1582.93C843.311 1582.93 839.15 1580.09 837.508 1575.49C835.537 1569.8 838.493 1563.44 844.296 1561.47C857.217 1556.98 870.466 1551.51 883.606 1545.38C889.19 1542.86 895.651 1545.16 898.279 1550.74C900.906 1556.22 898.498 1562.79 892.913 1565.42C879.117 1571.88 865.21 1577.57 851.523 1582.28C850.319 1582.72 849.114 1582.93 847.91 1582.93ZM634.172 1581.4C632.967 1581.4 631.653 1581.18 630.449 1580.74C616.543 1575.71 602.637 1569.69 589.168 1563.01C583.694 1560.27 581.504 1553.7 584.241 1548.23C586.978 1542.75 593.548 1540.56 599.023 1543.3C611.725 1549.65 624.864 1555.34 637.895 1560.05C643.588 1562.13 646.545 1568.48 644.464 1574.17C642.822 1578.66 638.661 1581.4 634.062 1581.4H634.172ZM926.967 1546.25C923.134 1546.25 919.411 1544.28 917.441 1540.78C914.375 1535.52 916.236 1528.74 921.492 1525.78C933.427 1518.88 945.581 1511.22 957.845 1503.01C962.882 1499.61 969.78 1500.92 973.174 1505.96C976.569 1511 975.255 1517.9 970.218 1521.29C957.626 1529.83 944.924 1537.71 932.551 1544.83C930.799 1545.82 928.938 1546.25 927.076 1546.25H926.967ZM999.454 1497.64C996.169 1497.64 992.884 1496.11 990.694 1493.37C986.971 1488.55 987.957 1481.65 992.774 1477.93C1004.49 1468.95 1015.66 1459.76 1025.95 1450.78C1030.44 1446.73 1037.45 1447.16 1041.5 1451.76C1045.55 1456.36 1045.11 1463.26 1040.52 1467.31C1029.78 1476.73 1018.29 1486.14 1006.13 1495.45C1004.16 1496.98 1001.75 1497.75 999.454 1497.75V1497.64ZM1064.82 1439.83C1062.09 1439.83 1059.35 1438.84 1057.16 1436.76C1052.78 1432.49 1052.67 1425.59 1056.83 1421.21C1066.9 1410.81 1076.32 1399.97 1084.86 1389.24C1088.69 1384.54 1095.59 1383.66 1100.3 1387.49C1105.12 1391.21 1105.88 1398.22 1102.05 1402.93C1093.07 1414.32 1083.11 1425.59 1072.6 1436.54C1070.41 1438.73 1067.56 1439.94 1064.71 1439.94L1064.82 1439.83ZM1118.81 1371.4C1116.83 1371.4 1114.75 1370.85 1113 1369.75C1107.86 1366.58 1106.32 1359.79 1109.5 1354.53C1116.18 1343.8 1122.31 1332.86 1127.67 1321.8L1129.76 1317.42C1132.27 1311.94 1138.84 1309.53 1144.43 1312.05C1149.9 1314.57 1152.31 1321.14 1149.79 1326.72L1147.6 1331.43C1141.91 1343.15 1135.45 1354.97 1128.33 1366.25C1126.25 1369.64 1122.64 1371.4 1119.02 1371.4H1118.81ZM1155.27 1292.34C1154.17 1292.34 1153.19 1292.23 1152.09 1291.91C1146.29 1290.15 1143 1284.02 1144.76 1278.22C1148.26 1266.83 1151 1255.23 1153.08 1243.51C1146.62 1242.85 1139.72 1241.98 1132.71 1240.77C1126.69 1239.68 1122.75 1233.98 1123.73 1228.07C1124.83 1222.05 1130.41 1218.11 1136.43 1219.09C1147.6 1221.06 1157.79 1222.16 1166.98 1222.38C1170.38 1222.38 1174.21 1222.6 1178.48 1222.82C1184.5 1223.14 1189.21 1228.29 1188.99 1234.31C1188.66 1240.33 1183.41 1244.93 1177.5 1244.82C1176.73 1244.82 1175.96 1244.82 1175.2 1244.82C1172.9 1258.29 1169.72 1271.65 1165.78 1284.79C1164.36 1289.5 1159.98 1292.56 1155.27 1292.56V1292.34ZM1249.65 1247.01C1239.36 1247.01 1230.16 1246.9 1221.4 1246.58C1215.27 1246.36 1210.56 1241.32 1210.67 1235.19C1210.89 1229.06 1216.15 1224.24 1222.06 1224.57C1230.71 1224.79 1239.69 1224.9 1249.65 1225.01C1254.69 1225.01 1259.84 1225.01 1265.09 1224.9H1265.31C1271.33 1224.9 1276.15 1229.71 1276.37 1235.63C1276.48 1241.65 1271.66 1246.69 1265.64 1246.9C1260.17 1247.01 1254.91 1247.01 1249.76 1247.01H1249.65ZM1309 1244.6C1303.31 1244.6 1298.49 1240.23 1298.05 1234.53C1297.5 1228.51 1301.99 1223.14 1308.13 1222.6C1322.58 1221.39 1336.92 1219.75 1350.72 1217.56C1356.74 1216.68 1362.33 1220.74 1363.31 1226.76C1364.19 1232.78 1360.14 1238.36 1354.11 1239.35C1339.77 1241.54 1324.99 1243.29 1309.99 1244.6C1309.66 1244.6 1309.33 1244.6 1309.11 1244.6H1309ZM1395.29 1231.25C1390.25 1231.25 1385.76 1227.85 1384.55 1222.71C1383.13 1216.79 1386.85 1210.88 1392.77 1209.46C1406.78 1206.17 1420.58 1202.34 1433.94 1197.96C1439.74 1196.1 1445.98 1199.28 1447.84 1204.97C1449.71 1210.77 1446.53 1217.01 1440.84 1218.87C1426.93 1223.36 1412.48 1227.41 1397.91 1230.81C1397.04 1231.03 1396.27 1231.14 1395.4 1231.14L1395.29 1231.25ZM1092.31 1230.59C1091.21 1230.59 1090.12 1230.48 1089.13 1230.15C1074.68 1225.77 1060.55 1220.63 1046.98 1214.82C1041.39 1212.41 1038.76 1205.95 1041.17 1200.37C1043.58 1194.79 1050.04 1192.16 1055.63 1194.57C1068.44 1200.04 1081.91 1204.86 1095.59 1209.02C1101.4 1210.77 1104.68 1216.9 1102.93 1222.71C1101.51 1227.41 1097.13 1230.48 1092.42 1230.48L1092.31 1230.59ZM1168.74 1206.39H1168.52C1162.49 1206.39 1157.57 1201.25 1157.68 1195.22V1193.69C1157.68 1180.11 1156.58 1166.65 1154.5 1153.73C1153.52 1147.7 1157.57 1142.12 1163.59 1141.14C1169.61 1140.15 1175.2 1144.2 1176.18 1150.22C1178.48 1164.35 1179.58 1178.91 1179.58 1193.69V1195.66C1179.47 1201.68 1174.54 1206.5 1168.52 1206.5L1168.74 1206.39ZM1478.17 1204.2C1473.9 1204.2 1469.85 1201.68 1468.1 1197.52C1465.69 1191.94 1468.32 1185.48 1473.9 1183.07C1486.93 1177.49 1499.86 1171.25 1512.23 1164.57C1517.59 1161.61 1524.27 1163.69 1527.12 1168.95C1530.08 1174.31 1528 1180.99 1522.74 1183.84C1509.71 1190.84 1496.24 1197.41 1482.55 1203.33C1481.13 1203.98 1479.71 1204.2 1478.28 1204.2H1478.17ZM1012.37 1195.88C1010.29 1195.88 1008.1 1195.22 1006.24 1194.02C993.431 1185.37 981.825 1173.76 972.627 1160.62C969.123 1155.59 970.328 1148.8 975.364 1145.3C980.401 1141.79 987.19 1143.11 990.694 1148.03C998.359 1159.09 1007.99 1168.62 1018.62 1175.84C1023.65 1179.24 1024.97 1186.14 1021.57 1191.17C1019.49 1194.35 1015.99 1195.99 1012.48 1195.99L1012.37 1195.88ZM1554.82 1162.6C1551.32 1162.6 1547.82 1160.95 1545.73 1157.78C1542.34 1152.74 1543.65 1145.84 1548.69 1142.45C1560.41 1134.57 1571.79 1125.92 1582.74 1116.94C1587.45 1113.11 1594.35 1113.76 1598.29 1118.47C1602.13 1123.18 1601.47 1130.08 1596.76 1133.91C1585.26 1143.32 1573.22 1152.41 1560.95 1160.62C1559.09 1161.94 1556.9 1162.49 1554.82 1162.49V1162.6ZM963.867 1125.7C958.83 1125.7 954.341 1122.19 953.137 1117.16C951.385 1109.38 950.509 1101.61 950.509 1094.05C950.509 1085.29 951.713 1076.75 954.013 1068.54C955.655 1062.74 961.787 1059.24 967.59 1060.99C973.394 1062.63 976.897 1068.76 975.255 1074.56C973.503 1080.81 972.627 1087.37 972.627 1094.05C972.627 1100.08 973.284 1106.21 974.708 1112.34C976.021 1118.25 972.299 1124.16 966.386 1125.48C965.619 1125.7 964.743 1125.81 963.977 1125.81L963.867 1125.7ZM1154.5 1120.77C1150.01 1120.77 1145.74 1118.03 1144.21 1113.54C1142.57 1109.16 1140.81 1104.78 1138.84 1100.51C1135.12 1092.19 1130.74 1084.2 1125.92 1076.86C1122.64 1071.83 1124.06 1064.93 1129.1 1061.64C1134.14 1058.36 1141.03 1059.67 1144.32 1064.82C1149.79 1073.14 1154.72 1082.12 1158.99 1091.54C1161.18 1096.35 1163.15 1101.17 1164.9 1106.1C1166.98 1111.79 1164.03 1118.14 1158.33 1120.22C1157.13 1120.66 1155.82 1120.88 1154.5 1120.88V1120.77ZM1622.05 1107.08C1619.21 1107.08 1616.36 1105.99 1614.28 1103.8C1610.01 1099.53 1610.01 1092.52 1614.28 1088.25C1624.24 1078.4 1633.88 1067.78 1643.08 1056.83C1647.02 1052.23 1653.92 1051.57 1658.63 1055.51C1663.22 1059.45 1663.88 1066.35 1659.94 1071.06C1650.3 1082.56 1640.12 1093.62 1629.83 1103.91C1627.64 1106.1 1624.9 1107.08 1622.05 1107.08ZM1106.54 1048.94C1104.02 1048.94 1101.51 1048.07 1099.42 1046.32C1088.69 1037.23 1077.31 1030.77 1065.48 1027.15C1059.68 1025.29 1056.39 1019.16 1058.25 1013.36C1060.01 1007.56 1066.25 1004.27 1072.05 1006.13C1086.72 1010.73 1100.74 1018.61 1113.66 1029.56C1118.26 1033.5 1118.92 1040.4 1114.97 1045.11C1112.78 1047.63 1109.72 1049.05 1106.54 1049.05V1048.94ZM987.409 1045.88C984.453 1045.88 981.387 1044.67 979.306 1042.26C975.255 1037.77 975.583 1030.77 980.073 1026.72C992.227 1015.77 1007.12 1007.99 1023.32 1004.27C1029.24 1002.96 1035.15 1006.57 1036.46 1012.59C1037.78 1018.5 1034.16 1024.42 1028.14 1025.73C1015.55 1028.58 1004.05 1034.6 994.745 1043.03C992.665 1044.89 990.037 1045.88 987.409 1045.88ZM1678.23 1040.4C1676.04 1040.4 1673.85 1039.75 1671.88 1038.43C1666.95 1034.93 1665.74 1028.03 1669.25 1023.1C1677.35 1011.72 1685.12 999.672 1692.57 987.19C1695.75 981.934 1702.42 980.292 1707.68 983.357C1712.94 986.423 1714.58 993.212 1711.51 998.467C1703.85 1011.28 1695.64 1023.87 1687.31 1035.69C1685.12 1038.76 1681.73 1040.4 1678.34 1040.4H1678.23ZM1723.01 965.62C1721.37 965.62 1719.62 965.291 1718.08 964.415C1712.72 961.678 1710.53 954.999 1713.27 949.634C1719.62 937.152 1725.75 924.013 1731.44 910.764C1733.85 905.18 1740.31 902.553 1745.9 904.961C1751.48 907.37 1754.11 913.83 1751.7 919.414C1745.79 933.101 1739.54 946.678 1732.97 959.598C1731 963.43 1727.17 965.62 1723.12 965.62H1723.01ZM1757.5 885.581C1756.3 885.581 1754.98 885.362 1753.78 884.924C1748.09 882.844 1745.02 876.603 1747.1 870.909C1751.92 857.442 1756.19 843.756 1759.91 830.069C1761.55 824.157 1767.58 820.762 1773.38 822.295C1779.29 823.828 1782.69 829.96 1781.15 835.763C1777.32 849.997 1772.83 864.34 1767.9 878.245C1766.26 882.735 1762.1 885.581 1757.5 885.581ZM1780.17 801.382C1779.51 801.382 1778.85 801.382 1778.2 801.163C1772.17 800.068 1768.23 794.375 1769.33 788.353C1771.85 774.338 1773.82 760.104 1775.24 746.089C1775.79 740.067 1781.04 735.578 1787.29 736.125C1793.31 736.673 1797.8 742.038 1797.25 748.169C1795.83 762.841 1793.75 777.623 1791.12 792.294C1790.13 797.66 1785.53 801.273 1780.28 801.273L1780.17 801.382ZM1788.38 714.555C1782.25 714.555 1777.32 709.628 1777.32 703.497V701.745C1777.32 688.058 1776.66 674.262 1775.46 660.904C1774.91 654.882 1779.4 649.517 1785.42 648.97C1791.56 648.422 1796.81 652.912 1797.36 658.934C1798.67 672.948 1799.33 687.401 1799.33 701.745V703.497C1799.33 709.628 1794.4 714.555 1788.27 714.555H1788.38ZM1780.28 627.728C1775.13 627.728 1770.53 624.115 1769.55 618.969C1766.81 605.502 1762.65 592.144 1757.39 579.333C1755.09 573.749 1757.72 567.289 1763.31 564.99C1768.89 562.69 1775.35 565.318 1777.65 570.902C1783.45 585.027 1788.05 599.699 1791.01 614.589C1792.21 620.502 1788.38 626.415 1782.47 627.619C1781.7 627.728 1780.93 627.838 1780.28 627.838V627.728ZM1747.1 547.58C1743.49 547.58 1739.98 545.829 1737.9 542.653C1730.35 531.157 1721.7 520.208 1712.06 509.915C1707.9 505.426 1708.12 498.528 1712.61 494.368C1716.99 490.207 1724 490.426 1728.16 494.915C1738.67 506.083 1748.09 518.127 1756.3 530.609C1759.58 535.646 1758.16 542.544 1753.12 545.829C1751.26 547.033 1749.18 547.58 1747.1 547.58ZM1687.86 483.966C1685.56 483.966 1683.15 483.199 1681.18 481.666C1670.23 473.126 1658.41 465.352 1646.14 458.564C1640.89 455.607 1638.92 448.928 1641.87 443.563C1644.83 438.308 1651.51 436.337 1656.87 439.293C1670.12 446.739 1682.82 455.06 1694.65 464.257C1699.47 467.98 1700.34 474.878 1696.62 479.696C1694.43 482.542 1691.15 483.966 1687.86 483.966ZM1317 467.652C1313.16 467.652 1309.44 465.681 1307.47 462.177C1304.4 456.921 1306.26 450.133 1311.52 447.177C1324.55 439.622 1338.13 432.943 1351.82 427.14C1357.4 424.84 1363.86 427.359 1366.27 433.052C1368.68 438.636 1366.05 445.096 1360.47 447.505C1347.54 452.98 1334.84 459.221 1322.58 466.338C1320.83 467.323 1318.97 467.761 1317.1 467.761L1317 467.652ZM1611.87 441.483C1610.56 441.483 1609.24 441.264 1607.93 440.717C1594.79 435.68 1581.21 431.629 1567.74 428.563C1561.83 427.249 1558.11 421.337 1559.42 415.424C1560.74 409.511 1566.65 405.789 1572.56 407.103C1587.12 410.387 1601.69 414.767 1615.92 420.132C1621.62 422.322 1624.46 428.672 1622.27 434.366C1620.63 438.746 1616.47 441.483 1611.98 441.483H1611.87ZM1397.15 433.928C1392.33 433.928 1387.95 430.753 1386.53 425.826C1384.88 420.023 1388.28 413.891 1394.19 412.249C1408.53 408.307 1423.32 405.132 1438.21 402.942C1444.23 402.066 1449.82 406.227 1450.69 412.249C1451.57 418.271 1447.41 423.855 1441.38 424.731C1427.37 426.811 1413.46 429.767 1400.1 433.49C1399.12 433.819 1398.13 433.928 1397.15 433.928ZM1526.9 422.541C1526.9 422.541 1526.24 422.541 1525.92 422.541C1511.68 421.337 1497.45 420.899 1483.54 421.227C1483.54 421.227 1483.32 421.227 1483.21 421.227C1477.3 421.227 1472.37 416.519 1472.26 410.497C1472.15 404.475 1476.86 399.329 1482.99 399.219C1497.67 398.781 1512.78 399.219 1527.89 400.643C1533.91 401.19 1538.4 406.555 1537.85 412.577C1537.3 418.271 1532.59 422.65 1526.9 422.65V422.541Z" fill="black"/>
<path d="M555.115 1541.66C553.035 1541.66 550.954 1541.11 549.093 1539.9C542.851 1535.85 536.61 1531.47 530.478 1526.98C525.551 1523.37 524.565 1516.47 528.179 1511.55C531.792 1506.62 538.69 1505.63 543.618 1509.25C549.421 1513.52 555.334 1517.57 561.247 1521.51C566.284 1524.79 567.707 1531.69 564.422 1536.73C562.342 1539.9 558.838 1541.66 555.225 1541.66H555.115Z" fill="black"/>
<path d="M227.716 847.258C220.489 847.258 213.919 842.222 212.387 834.886C210.635 826.893 215.452 818.79 223.336 816.491L1154.28 544.952C1157.67 543.966 1161.18 544.185 1164.46 545.39L1421.78 647.874C1428.35 650.502 1432.4 657.29 1431.53 664.298C1430.65 671.415 1425.18 676.999 1418.17 677.984L229.906 847.149C229.14 847.149 228.373 847.258 227.716 847.258ZM1157.89 576.595L443.316 785.067L1355.54 655.319L1158 576.595H1157.89Z" fill="black"/>
<path d="M216.657 842.66C210.854 842.66 205.27 839.375 202.532 833.901C198.919 826.565 201.547 817.586 208.664 813.426L864.223 427.467C868.712 424.84 874.187 424.621 878.786 426.81L1018.18 491.958C1023.87 494.586 1027.37 500.389 1027.26 506.63C1027.15 512.871 1023.21 518.455 1017.41 520.754L222.57 841.565C220.599 842.331 218.628 842.66 216.657 842.66ZM873.092 458.673L406.416 733.497L972.297 505.097L873.092 458.782V458.673Z" fill="black"/>
<path d="M1159.54 897.406C1159.54 897.406 1158.99 897.406 1158.66 897.406L235.709 848.025C227.059 847.587 220.379 840.142 220.817 831.492C221.255 822.842 228.592 816.163 237.351 816.601L1151.21 865.325L1270.78 680.503C1275.49 673.167 1285.24 671.196 1292.46 675.795C1299.69 680.503 1301.77 690.248 1297.17 697.474L1172.68 889.961C1169.72 894.45 1164.79 897.187 1159.54 897.187V897.406Z" fill="black"/>
<path d="M995.73 621.268C994.854 621.268 994.088 621.268 993.212 621.049C984.671 619.626 978.868 611.633 980.182 603.092L996.168 503.674C997.592 495.133 1005.69 489.221 1014.13 490.644C1022.67 492.068 1028.47 500.061 1027.16 508.601L1011.17 608.019C1009.96 615.684 1003.29 621.268 995.73 621.268Z" fill="black"/>
<path d="M479.12 852.077C475.945 852.077 472.879 850.106 471.784 846.931C470.251 842.88 472.441 838.39 476.492 836.857L663.513 769.192C667.565 767.768 672.054 769.849 673.587 773.9C675.12 777.951 672.93 782.44 668.879 783.973L481.858 851.639C480.982 851.967 480.106 852.077 479.23 852.077H479.12Z" fill="black"/>
<path d="M598.474 853.938C595.408 853.938 592.561 852.186 591.247 849.23C589.495 845.288 591.247 840.58 595.299 838.938L812.65 744.556C816.592 742.914 821.301 744.556 822.943 748.607C824.695 752.549 822.943 757.257 818.892 758.899L601.54 853.281C600.555 853.719 599.46 853.938 598.365 853.938H598.474Z" fill="black"/>
<path d="M724.943 855.69C722.096 855.69 719.249 854.048 717.935 851.31C715.964 847.478 717.607 842.77 721.439 840.799L954.778 725.066C958.61 723.095 963.318 724.738 965.289 728.57C967.26 732.402 965.618 737.11 961.785 739.081L728.447 854.814C727.352 855.361 726.148 855.58 724.943 855.58V855.69Z" fill="black"/>
<path d="M830.06 871.676C827.213 871.676 824.475 870.143 823.052 867.405C821.081 863.573 822.614 858.865 826.446 856.785L1107.85 710.723C1111.69 708.752 1116.39 710.175 1118.47 714.117C1120.45 717.949 1118.91 722.657 1115.08 724.738L833.673 870.8C832.469 871.457 831.264 871.676 830.06 871.676Z" fill="black"/>
<path d="M969.013 869.922C966.166 869.922 963.429 868.39 962.005 865.652C960.034 861.82 961.458 857.112 965.29 855.032L1262.79 700.101C1266.63 698.13 1271.33 699.553 1273.41 703.386C1275.39 707.218 1273.96 711.926 1270.13 714.006L972.626 868.937C971.422 869.594 970.217 869.813 969.013 869.813V869.922Z" fill="black"/>
<path d="M1072.27 871.675C1069.2 871.675 1066.35 869.924 1065.04 866.967C1063.29 863.026 1065.04 858.318 1069.09 856.675L1211.55 794.374C1215.49 792.622 1220.09 794.374 1221.84 798.426C1223.59 802.367 1221.84 807.075 1217.79 808.718L1075.33 871.019C1074.35 871.457 1073.25 871.675 1072.16 871.675H1072.27Z" fill="black"/>
</g>
<defs>
<clipPath id="clip0_157_269">
<rect width="1598" height="1202" fill="white" transform="translate(201 399)"/>
</clipPath>
</defs>
</svg>
