<svg width="2000" height="2000" viewBox="0 0 2000 2000" fill="none" xmlns="http://www.w3.org/2000/svg">
<g clip-path="url(#clip0_157_271)">
<path d="M502.442 1014.98C530.961 1120.85 565.578 1225.47 603.424 1328.29C661.718 1486.2 727.006 1655.05 836.239 1785.51C918.568 1883.84 1026.01 1916.86 1126.99 1824.09C1249.5 1711.76 1316.76 1534.11 1375.59 1383.02C1422.22 1262.79 1463.66 1139.7 1497.2 1014.98C1502.04 996.68 1488.05 978.018 1469.04 978.018H530.602C493.115 978.018 493.115 1036.34 530.602 1036.34H1469.22C1459.89 1023.95 1450.56 1011.75 1441.06 999.371C1375.95 1241.44 1293.62 1505.76 1147.26 1711.4C1116.41 1754.82 1073 1811.53 1017.58 1823.19C963.05 1834.68 916.236 1788.92 883.592 1751.24C779.74 1631.55 718.218 1470.05 663.691 1323.44C624.051 1217.21 588.178 1109.01 558.763 999.371C549.077 963.124 492.756 978.556 502.621 1014.8L502.442 1014.98Z" fill="#222221"/>
<path d="M1424.56 686.424C1472.09 523.131 1319.81 370.605 1156.41 418.157C1167.35 422.643 1178.29 427.129 1189.41 431.615C1166.09 389.267 1133.45 359.3 1090.4 337.767C1074.97 330.051 1060.62 334.896 1050.58 348.174C1029.06 376.347 1005.38 402.725 979.911 427.488C971.66 435.563 967.714 452.789 975.427 462.838C989.776 481.68 1073.36 588.986 1054.89 609.084C1037.85 627.746 924.308 566.018 903.501 555.072C888.794 547.356 872.83 552.021 863.682 565.479C850.948 583.962 778.126 691.269 754.091 681.22C730.056 671.171 753.194 544.843 757.14 522.413C759.83 506.622 753.015 491.549 736.692 486.525C711.402 478.809 686.47 469.657 661.897 459.788C652.212 456.019 640.553 460.685 633.558 467.324C573.471 523.31 553.023 608.904 575.623 686.603C580.107 675.657 584.591 664.711 589.075 653.586C514.28 694.499 468.901 774.71 475.717 860.304C480.919 926.159 528.271 1020.55 599.658 1035.98C659.566 1048.9 734.719 1036.52 795.524 1036.52H1163.04C1236.76 1036.52 1319.81 1047.28 1392.99 1036.52C1459.89 1026.65 1508.5 946.257 1520.87 885.246C1539.71 792.295 1493.25 698.805 1411.28 653.765C1378.46 635.641 1348.86 686.065 1381.87 704.189C1468.5 751.741 1496.12 870.532 1428.14 947.154C1405 973.173 1401.06 978.377 1371.46 978.377H646.293C631.226 978.377 612.572 978.377 603.783 974.429C558.583 953.614 533.114 889.553 533.114 843.257C533.114 783.502 567.014 732.361 618.132 704.189C629.253 698.087 634.993 683.373 631.585 671.171C614.545 612.673 629.432 550.586 674.453 508.596L646.113 516.133C670.686 526.002 695.439 535.333 720.908 542.87C714.092 530.847 707.277 519.004 700.64 506.981C690.596 564.044 659.745 706.701 731.132 736.309C802.699 766.096 881.081 642.46 913.905 595.087C900.632 598.497 887.359 602.086 874.086 605.495C924.487 632.232 1047.89 703.65 1099.01 648.202C1151.38 591.319 1059.91 478.27 1025.83 433.589L1021.34 468.939C1050.4 440.587 1076.41 410.082 1100.98 377.782L1061.16 388.19C1095.6 405.416 1120.53 427.309 1139.19 461.044C1145.28 472.169 1159.99 477.911 1172.19 474.502C1293.26 439.331 1403.75 549.868 1368.59 670.992C1358.01 707.06 1414.33 722.492 1424.73 686.424H1424.56Z" fill="#222221"/>
<path d="M717.859 1031.31C829.962 1283.07 954.261 1528.91 1090.58 1768.46C1109.05 1801.12 1159.45 1771.69 1140.98 1739.03C1004.66 1499.48 880.363 1253.64 768.26 1001.88C753.015 967.61 702.792 997.218 717.859 1031.31Z" fill="#222221"/>
<path d="M983.677 1024.67C1072.1 1198.02 1164.12 1369.92 1259 1540.03C1277.3 1572.87 1327.7 1543.44 1309.4 1510.6C1214.34 1340.67 1122.51 1168.77 1034.08 995.245C1017.04 961.869 966.637 991.298 983.677 1024.67Z" fill="#222221"/>
<path d="M1276.22 1001.7C1119.46 1236.77 962.513 1472.02 805.749 1707.09C784.942 1738.32 835.344 1767.57 856.15 1736.52C1012.91 1501.45 1169.86 1266.2 1326.62 1031.13C1347.43 999.909 1297.03 970.66 1276.22 1001.7Z" fill="#222221"/>
<path d="M961.437 994.527C854.177 1130.01 745.841 1264.95 653.109 1411.01C632.841 1442.77 683.422 1472.02 703.511 1440.44C793.552 1298.68 898.659 1167.33 1002.87 1035.8C1026.01 1006.73 984.934 965.098 961.616 994.527H961.437Z" fill="#222221"/>
<path d="M784.045 180.576C822.608 176.987 869.602 285.55 884.31 315.876C889.511 326.642 905.834 333.282 917.313 329.334C938.478 321.797 1068.88 275.86 1080 299.546C1085.74 311.748 1033.9 369.529 1026.55 378.142C1011.84 395.369 996.054 412.057 979.732 427.848C971.481 435.923 967.535 453.149 975.248 463.198C989.597 482.039 1073.18 589.346 1054.71 609.444C1037.67 628.106 924.129 566.378 903.322 555.432C888.615 547.715 872.651 552.381 863.504 565.839C850.769 584.322 777.947 691.629 753.912 681.58C729.877 671.531 753.015 545.203 756.961 522.773C759.651 506.982 752.836 491.729 736.693 486.884C715.348 480.424 587.461 442.024 590.152 419.235C593.56 389.985 724.137 374.374 749.607 370.785C761.804 368.991 771.31 354.276 770.951 342.613C770.234 315.158 763.059 191.701 791.937 180.037C826.196 166.041 811.308 109.696 776.512 123.872C704.048 153.301 711.044 278.372 712.658 342.792C719.833 333.461 727.007 324.13 734.002 314.619C679.117 322.336 533.652 339.024 531.5 415.825C529.347 491.191 666.023 526.9 721.088 543.229C714.272 531.207 707.456 519.364 700.82 507.341C690.775 564.404 659.925 707.061 731.312 736.669C802.878 766.456 881.261 642.82 914.084 595.447C900.811 598.857 887.538 602.446 874.265 605.855C924.667 632.592 1048.07 704.01 1099.19 648.562C1151.56 591.679 1060.09 478.63 1026.01 433.949L1021.52 469.299C1061.88 430.181 1168.78 332.923 1129.68 268.323C1090.04 203.006 955.697 254.686 902.246 273.527C913.187 278.013 924.129 282.499 935.249 286.985C909.241 234.409 855.791 115.438 784.045 122.257C747.096 125.666 746.737 184.165 784.045 180.576Z" fill="#222221"/>
</g>
<defs>
<clipPath id="clip0_157_271">
<rect width="1050" height="1758" fill="white" transform="translate(475 121)"/>
</clipPath>
</defs>
</svg>
