<svg width="2000" height="2000" viewBox="0 0 2000 2000" fill="none" xmlns="http://www.w3.org/2000/svg">
<g clip-path="url(#clip0_157_327)">
<path d="M1461.01 1166.87C1455.96 1104.82 1451.78 1040.91 1433.01 981.136C1431.78 977.152 1430.32 973.167 1428.77 969.182C1428.74 968.929 1428.77 968.708 1428.74 968.455C1426.78 955.52 1428.33 941.89 1426.97 928.765C1425.49 914.281 1401.12 693.853 1369.03 649.989C1342.93 614.379 1302.06 589.047 1260.74 574.911C1215.83 559.541 1157.04 548.441 1109.72 559.731C1108.71 558.339 1107.76 556.979 1106.72 555.588H1106.4C1106.15 555.082 1105.9 554.576 1105.52 554.102C1105.26 553.785 1105.01 553.469 1104.73 553.09C1104.38 552.678 1104.03 552.236 1103.56 551.888C1090.5 541.262 1077.39 534.842 1063.32 531.11C1053.62 482.724 1046.95 433.61 1038.32 385.002C1029.88 337.248 1010.22 288.324 1009.75 239.526C1026.4 229.627 1037.09 214.036 1036.36 189.811C1035.41 157.585 1022.93 121.184 997.007 100.502C966.063 75.8023 918.651 80.9256 882.333 87.0292C833.657 95.1569 785.328 109.957 737.979 123.683C713.009 130.925 688.703 139.843 664.206 148.54C642.745 156.13 620.05 164.416 603.677 180.988C570.457 214.51 579.434 264.225 586.451 307.014C593.657 322.921 605.637 330.575 620.176 332.947C622.831 332.789 625.455 332.599 628.11 332.346C628.426 442.18 657.442 549.801 662.5 659.445C653.08 664.347 643.977 669.344 635.253 674.309C592.33 698.818 556.676 729.4 533.95 773.897C491.563 857.008 496.81 955.836 497.632 1046.41C498.707 1174.75 498.264 1302.95 512.045 1430.75C519.031 1495.52 530.599 1559.12 543.906 1622.84C554.337 1672.72 565.368 1736.38 605.289 1772.05C635.728 1799.31 675.838 1809.84 716.17 1813.35C703.432 1859.68 740.571 1911.01 787.825 1917.27C851.737 1925.72 872.883 1860.51 873.61 1809.27C878.193 1808.55 882.555 1807.38 886.284 1805.38C895.893 1813.16 906.545 1819.52 917.924 1825.28C941.251 1836.98 964.988 1849.06 990.212 1856.24C1041.38 1870.82 1092.05 1870.06 1143.83 1859.65C1196.68 1849.03 1249.68 1844.28 1300.63 1825.66C1349.5 1807.79 1400.04 1794.47 1443.63 1764.87C1473.4 1744.63 1491.74 1718.48 1498.37 1682.93C1508.08 1630.75 1503.37 1575.34 1498.34 1522.94C1486.96 1404.15 1470.75 1285.91 1461.04 1166.9L1461.01 1166.87ZM1420.33 1007.32C1430.92 1050.74 1435.63 1095.68 1439.93 1140.05C1443.03 1172.37 1446.25 1204.63 1449.57 1236.92C1359.77 1256.12 1270.07 1273.42 1181.12 1296.6C1136.18 1308.33 1091.26 1320.38 1045.9 1330.63C1008.48 1339.13 970.109 1345.14 933.728 1357.7C932.875 1346.6 932.084 1335.5 931.357 1324.33C927.881 1273.01 924.34 1221.87 916.028 1171.08C907.999 1122.15 911.634 1076.08 954.02 1044.51C988.884 1018.61 1035.63 1006.12 1076.79 994.672C1121.83 982.18 1167.94 973.388 1214.5 968.929C1278.13 962.889 1376.4 954.824 1420.37 1007.29L1420.33 1007.32ZM1410.57 975.096C1412.34 979.46 1413.98 983.983 1415.37 988.632C1384.55 962.604 1333.82 956.753 1292.16 955.994C1189.31 954.16 1080.86 974.021 986.292 1015.17C952.724 1029.74 921.116 1052.58 908.315 1088.28C891.152 1136.1 910.559 1191.35 915.079 1239.99C926.11 1358.24 934.044 1477.21 941.535 1595.74C928.924 1593.84 916.027 1593.31 903.163 1592.42C906.513 1559.12 896.431 1525.63 893.396 1492.61C889.951 1454.85 887.991 1416.99 884.546 1379.27C881.006 1341.47 876.96 1303.71 874.937 1265.76C873.831 1245.11 873.293 1224.4 873.768 1203.75C873.799 1201.82 873.799 1199.86 873.799 1197.93C873.799 1197.83 873.768 1197.77 873.799 1197.67C873.673 1179.9 871.681 1161.24 873.357 1143.85C876.517 1110.7 883.44 1072.41 900.729 1043.63C918.556 1013.93 944.696 988.252 974.882 971.522C1006.36 954.034 1041.16 940.466 1077.26 937.114C1113.83 933.762 1150.65 931.327 1187.32 928.322C1188.24 928.227 1189.15 928.164 1190.07 928.069C1228.38 924.875 1267.13 922.883 1305.6 923.61C1334.93 924.179 1367.3 926.583 1392.46 942.744C1399.25 951.978 1405.04 962.066 1409.68 973.009C1409.93 973.768 1410.19 974.464 1410.57 975.064V975.096ZM817.284 1085.03C821.772 1059.69 829.99 1034.84 844.246 1010.55C890.393 931.928 1045.18 869.31 1235.74 869.341C1240.93 869.341 1245.92 869.468 1250.72 869.753C1322.7 873.642 1352.88 904.983 1357.53 908.367C1347.51 905.615 1337.2 903.75 1327.12 902.232C1285.24 896.033 1242.73 898.974 1200.75 901.884C1199.2 902.01 1197.59 902.073 1195.98 902.2C1120.12 907.197 1032.35 909.031 964.957 946.697C938.027 961.782 904.491 982.307 886.19 1007.39C864.032 1037.75 857.268 1065.39 849.177 1101.31C840.042 1141.92 843.487 1194.01 845.004 1235.78C846.49 1276.07 851.168 1316.11 853.38 1356.37C856.099 1405.7 859.165 1455.07 864.443 1504.22C867.035 1528.76 869.817 1553.65 874.431 1577.9C875.127 1581.51 876.138 1585.53 877.276 1589.64C865.992 1587.74 854.708 1585.02 843.455 1583.34C842.223 1567.91 840.927 1552.51 839.568 1537.17C830.18 1434.1 822.784 1331.07 816.494 1227.75C813.523 1178.64 809.256 1131.01 817.284 1085.03ZM1366.79 921.017C1346.69 915.198 1324.62 913.806 1303 914.028C1303.89 913.332 1304.77 912.668 1305.6 911.909C1306.61 910.96 1307.33 910.075 1307.84 909.094C1319.98 910.296 1332.05 912.099 1343.94 914.755C1351.43 916.4 1359.33 918.297 1366.79 921.017ZM1017.24 937.494C1017.24 937.494 1016.98 937.399 1016.89 937.367C1022.99 935.533 1029.15 933.888 1035.32 932.307C1034.75 932.876 1034.21 933.477 1033.64 934.078C1031.3 937.715 1027.98 939.929 1023.62 940.656C1021.47 939.707 1019.32 938.664 1017.24 937.494ZM1017.33 945.084C1016.76 945.273 1016.22 945.432 1015.62 945.685C1009.3 948.025 1003.04 950.681 996.818 953.496C997.165 953.053 997.545 952.642 997.892 952.168C1000.04 949.448 1001.81 946.032 1004.75 944.04C1009.59 940.625 1012.68 943.439 1017.33 945.084ZM1041.45 930.884H1041.48C1043.6 930.378 1045.78 929.872 1047.93 929.429C1049.82 930.315 1051.63 931.327 1053.46 932.307C1054.91 933.098 1056.4 933.983 1057.98 934.679C1049.41 936.134 1040.88 937.936 1032.38 940.277C1035.32 937.177 1038.03 933.509 1041.42 930.852L1041.45 930.884ZM1057.35 927.437C1067.05 925.476 1076.75 923.832 1086.43 922.345C1082.89 924.938 1079.57 927.943 1076.5 930.599C1076.25 930.789 1076.15 931.042 1076.06 931.232C1075.05 931.738 1074 932.149 1072.93 932.529C1071.32 932.718 1069.67 932.876 1068.03 933.129C1067.94 932.623 1067.68 932.086 1067.11 931.77C1064.14 930.062 1060.73 928.67 1057.35 927.437ZM1103.15 922.914L1116.36 928.449C1103.97 929.398 1091.83 930.41 1079.82 931.738C1086.55 926.393 1094.33 923.452 1103.15 922.914ZM1116.2 918.139C1121.29 917.443 1126.38 916.842 1131.37 916.242C1135.26 915.799 1139.15 915.388 1143.04 914.945C1141.84 915.989 1140.51 917.032 1138.99 917.981C1130.05 923.642 1123.38 920.732 1116.2 918.107V918.139ZM1139.46 925.761C1148.95 918.297 1144.71 913.933 1164.72 921.808C1165.64 922.219 1166.36 923.136 1167.12 923.958C1157.54 924.875 1147.94 925.761 1138.33 926.646C1138.67 926.33 1139.09 926.045 1139.5 925.761H1139.46ZM1163.42 912.858C1174.45 911.782 1185.45 910.802 1196.49 910.011C1194.75 911.403 1193.17 913.111 1191.55 914.629C1189.94 916.147 1188.3 917.507 1186.56 918.266C1173.95 923.832 1169.81 917.095 1163.46 912.858H1163.42ZM1195.03 915.672C1198.76 913.332 1202.87 912.32 1208.91 915.04C1211.5 916.242 1213.81 917.886 1216.08 919.404C1206.32 920.258 1196.52 921.175 1186.75 922.092C1189.72 919.878 1192.28 917.443 1195.03 915.672ZM1212.26 908.968C1222.94 908.335 1233.69 907.861 1244.4 907.608C1241.12 909.758 1237.96 912.352 1233.47 913.806C1224.9 916.653 1218.9 911.909 1212.26 908.968ZM1246.11 913.648C1255.78 910.201 1264.98 912.415 1274.15 915.166C1267.89 915.514 1261.76 915.925 1255.85 916.273C1250.41 916.621 1244.97 917.001 1239.54 917.443C1241.5 915.957 1243.55 914.565 1246.11 913.648ZM1273.04 907.386C1274.72 907.386 1276.45 907.387 1278.16 907.418C1284.58 907.545 1290.99 907.829 1297.38 908.272C1294.98 909.632 1292.61 911.15 1290.46 912.858C1290.2 913.047 1289.98 913.269 1289.82 913.49C1284.39 911.814 1278.73 909.442 1273.04 907.386ZM927.817 980.82C928.102 980.63 928.386 980.472 928.671 980.251C933.76 982.054 940.492 983.413 946.371 982.907C938.28 989.011 930.536 995.526 923.424 1002.64C923.835 995.716 925.194 989.043 927.723 982.401C927.912 981.832 927.912 981.326 927.849 980.852L927.817 980.82ZM935.751 975.096C944.095 969.245 952.693 963.901 961.669 959.22C960.595 961.624 959.963 964.28 958.856 966.684C955.601 973.989 954.716 973.483 948.584 974.337C944.19 974.938 939.923 974.748 935.719 975.096H935.751ZM967.391 959.094C971.752 957.259 976.272 959.663 980.824 961.181C973.459 965.071 966.284 969.309 959.299 973.863C961.195 968.423 961.132 961.75 967.391 959.125V959.094ZM976.81 951.946C983.131 949.1 989.579 946.538 996.154 944.135C993.562 948.056 991.571 952.642 989.579 956.722C989.453 956.753 989.39 956.817 989.263 956.88C988.947 956.469 988.568 956.121 988.094 955.868C984.68 954.129 980.729 952.579 976.81 951.946ZM894.787 1025.54C896.02 1007.89 905.06 1010.42 915.553 1010.9C908.505 1018.74 902.12 1027.21 896.557 1036.2C896.557 1036.1 896.589 1036.04 896.589 1035.94C896.589 1032.53 894.534 1028.8 894.787 1025.51V1025.54ZM902.215 1004.38C906.893 999.258 912.045 994.198 917.64 989.232C918.493 988.473 919.346 987.841 920.2 987.145C918.967 993.85 917.671 1002.7 915.996 1003.81C913.499 1005.55 907.367 1004.51 902.215 1004.38ZM873.926 1048.28C878.003 1038.82 882.871 1029.97 888.655 1021.52C889.097 1024.65 889.666 1027.97 889.414 1031.45C888.529 1042.39 880.753 1044.8 873.894 1048.25L873.926 1048.28ZM887.991 1052.07C883.787 1060.96 880.342 1070.32 877.845 1080.12C877.434 1081.61 877.15 1083.1 876.802 1084.58C876.233 1081.77 875.411 1078.92 874.589 1076.08C870.354 1060.8 878.667 1058.21 887.96 1052.07H887.991ZM885.463 1547.45C887.011 1541.95 888.56 1538.91 890.204 1534.77C891.594 1543.27 893.048 1551.75 894.25 1560.35C894.882 1565.25 895.261 1570.38 895.798 1575.44C893.396 1572.34 890.899 1569.59 889.414 1567.4C883.124 1558.36 882.333 1558.68 885.463 1547.45ZM881.417 1533.38C880.247 1535.68 878.92 1538.06 877.687 1540.52C876.454 1526.86 875.158 1513.17 873.894 1499.54C880.816 1511.21 888.908 1518.13 881.417 1533.38ZM876.802 1488.34C872.883 1475.12 878.92 1466.27 881.891 1454.5C881.922 1454.63 881.922 1454.76 881.922 1454.85C882.997 1470.98 884.009 1487.08 885.715 1503.14C882.144 1498.46 878.414 1493.75 876.77 1488.31L876.802 1488.34ZM870.702 1464.5C870.069 1456.91 869.374 1449.35 868.805 1441.73C868.394 1436.6 868.11 1431.45 867.762 1426.32C871.966 1432.74 876.739 1438.5 876.17 1447.13C875.822 1453.11 872.914 1458.8 870.67 1464.5H870.702ZM873.546 1421.01C869.943 1410.42 871.176 1400.77 877.086 1392.74C878.161 1405.61 879.204 1418.51 880.216 1431.38C878.446 1427.94 874.684 1424.33 873.578 1421.01H873.546ZM865.866 1395.11C865.455 1388.06 865.107 1380.97 864.696 1373.89C867.667 1377.68 870.828 1381.48 873.704 1385.37C870.607 1388.63 867.92 1391.82 865.866 1395.11ZM863.779 1358.42C863.685 1356.97 863.621 1355.58 863.527 1354.19C867.161 1351.02 870.322 1346.85 872.693 1342.49C873.61 1352.95 874.526 1363.42 875.411 1373.92C871.271 1368.92 867.035 1364.02 863.748 1358.46L863.779 1358.42ZM865.297 1293.06C865.707 1289.04 866.845 1285.59 868.236 1282.3C868.679 1291.57 869.279 1300.84 870.006 1310.13C870.038 1310.39 870.038 1310.61 870.101 1310.86C867.098 1306.09 864.506 1301.72 865.328 1293.06H865.297ZM861.725 1237.46C857.331 1224.24 860.682 1216.68 866.624 1208.14C866.593 1221.36 866.656 1234.55 866.94 1247.71C864.949 1244.38 862.926 1241.06 861.725 1237.43V1237.46ZM866.814 1187.14V1188.06C866.466 1187.33 866.055 1186.61 865.644 1185.78C863.811 1181.99 860.587 1178.1 859.259 1174.11C855.814 1163.8 860.745 1161.53 864.981 1154.51C865.676 1153.43 866.34 1152.42 867.035 1151.41C866.687 1162.98 866.94 1174.52 866.782 1187.11L866.814 1187.14ZM861.44 1145.9C860.366 1148.59 856.889 1150.68 854.455 1152.83C854.708 1143.56 855.087 1134.68 855.846 1125.98C855.972 1126.3 856.13 1126.58 856.288 1126.93C858.09 1131.51 863.621 1140.43 861.409 1145.9H861.44ZM858.406 1104.41C859.481 1097.49 860.808 1090.5 862.483 1083.41C863.242 1080.25 864.032 1077.21 864.886 1074.18C867.098 1081.96 870.891 1090.05 872.788 1096.35C868.047 1098.62 862.515 1100.96 858.406 1104.41ZM865.866 1197.55C861.946 1202.73 857.363 1208.05 854.329 1213.93C854.297 1210.58 854.202 1207.19 854.202 1203.78C854.202 1195.43 854.171 1187.49 854.202 1179.93C858.122 1185.78 863.147 1191.51 865.866 1197.55ZM858.627 1245.59C865.423 1258.36 865.929 1269.05 858.943 1282.02C858.659 1282.62 858.438 1283.19 858.153 1283.76C856.984 1269.02 855.941 1254.25 855.182 1239.45C856.288 1241.51 857.521 1243.53 858.627 1245.59ZM862.705 1341.47C862.294 1335.28 861.851 1329.08 861.346 1322.88C861.061 1319.08 860.745 1315.26 860.429 1311.4C865.391 1321.61 868.615 1329.84 862.705 1341.47ZM868.552 1132.3C868.205 1131.58 867.825 1130.82 867.604 1129.93C863.969 1117.79 864.317 1110.14 873.167 1104.22C872.219 1110.23 871.271 1116.3 870.133 1122.25C869.5 1125.66 868.963 1128.98 868.584 1132.27L868.552 1132.3ZM880.626 1570.85C886.031 1578.98 893.459 1587.01 898.864 1592.14C893.902 1591.79 888.939 1591.34 884.009 1590.68C883.851 1590.65 883.661 1590.65 883.503 1590.59C883.408 1589.98 883.345 1589.42 883.25 1588.81C882.397 1582.68 881.448 1576.58 880.658 1570.82L880.626 1570.85ZM1383.57 774.339C1380.22 767.919 1376.34 761.753 1371.72 756.028C1355.88 736.136 1335.21 721.525 1313.15 709.35C1303.83 704.258 1269.41 691.766 1259.83 689.584C1229.9 682.721 1197.81 686.643 1167.44 687.591C1135.2 688.635 1103.34 693.126 1071.51 698.186C1006.05 708.622 940.935 717.92 877.434 737.622C828.821 752.644 781.472 771.873 743.416 806.629C711.524 835.724 688.481 873.421 678.999 915.704C672.393 945.21 673.468 975.729 672.709 1005.74C671.824 1041.54 670.907 1077.34 670.591 1113.14C669.39 1243.28 681.717 1373.48 693.95 1502.92C695.024 1514.18 696.162 1525.53 697.49 1536.89C688.987 1537.04 680.674 1536.6 672.361 1535.68C672.551 1535.05 672.709 1534.45 672.835 1533.88C676.755 1518.76 671.982 1501.94 670.18 1486.73C666.482 1455.7 661.804 1424.87 657.853 1393.88C650.046 1333.09 650.488 1272.12 648.813 1210.99C647.17 1151.85 646.411 1093.25 650.172 1034.17C653.586 980.377 649.414 937.557 667.241 885.755C700.65 788.539 799.141 734.903 892.732 709.033C974.597 686.39 1059.62 681.077 1143.86 674.404C1173.76 672.032 1207.52 668.015 1240.42 668.015C1297.5 668.015 1352.12 680.096 1379.91 733.764C1381.74 747.142 1382.66 760.772 1383.64 774.339H1383.57ZM663.068 1534.29C656.684 1533.28 650.362 1532.08 644.072 1530.59C643.472 1528.82 642.966 1527.02 642.428 1525.18C640.943 1519.68 639.868 1513.93 639.015 1508.01C644.199 1517.12 651.405 1525.37 659.528 1531.7C660.698 1532.58 661.867 1533.47 663.068 1534.26V1534.29ZM671.318 851.125C663.859 864.186 658.043 877.596 653.776 891.827C651.784 884.901 648.213 878.544 647.012 871.365C643.914 852.991 659.718 855.584 671.318 851.125ZM648.149 848.532C654.345 834.49 662.468 821.145 672.962 808.526C672.993 809.475 673.057 810.487 673.12 811.467C673.468 818.393 677.45 828.988 674.858 835.566C671.697 843.693 659.402 844.452 652.448 846.824C650.836 847.33 649.445 847.931 648.149 848.564V848.532ZM651.721 897.045C644.23 899.607 637.087 902.326 632.061 906.343C633.894 894.199 636.391 882.497 639.805 871.176C642.808 879.588 648.813 888.728 651.753 897.045H651.721ZM637.656 1157.07C636.865 1155.74 636.044 1154.47 635.317 1153.27C631.271 1146.35 628.553 1142.9 627.826 1134.68C626.941 1124.53 631.555 1117.57 637.814 1110.83C637.719 1115.64 637.624 1120.45 637.624 1125.32C637.656 1135.91 637.656 1146.54 637.656 1157.1V1157.07ZM637.814 1186.76C637.845 1196.98 637.94 1207.19 638.098 1217.44C634.052 1210.83 630.006 1206.97 630.765 1198.56C631.618 1189.14 632.978 1191.25 637.814 1186.76ZM638.13 1094.67C632.44 1086.89 627.699 1077.69 626.245 1068.42C623.969 1054.03 633.926 1049.38 640.816 1039.99C639.71 1058.24 638.699 1076.42 638.13 1094.67ZM640.69 1307.98C638.035 1302.86 635.917 1297.36 634.052 1292.08C628.963 1277.72 631.777 1270.54 638.888 1259.31C639.331 1275.6 639.9 1291.79 640.69 1307.98ZM642.334 1338.12C643.187 1350.23 644.325 1362.25 645.652 1374.27C643.503 1371.07 640.279 1367.82 638.604 1364.37C630.165 1347.17 634.242 1340.24 641.923 1331.26C642.081 1333.54 642.207 1335.84 642.334 1338.12ZM633.452 1007.35C622.041 991.004 636.107 981.927 643.377 970.068C642.903 986.26 642.745 1002.55 642.018 1018.74C639.647 1015.13 636.36 1011.56 633.452 1007.35ZM644.957 939.802C644.767 942.237 644.641 944.641 644.483 947.108C642.144 942.364 639.046 937.873 637.308 933.003C631.524 916.526 639.236 911.34 649.92 906.343C647.581 916.874 645.905 928.006 644.957 939.802ZM630.86 973.072C629.248 975.507 627.415 977.753 625.676 980.061C626.466 964.913 627.573 949.828 628.869 934.774C634.969 948.657 642.302 955.741 630.828 973.104L630.86 973.072ZM634.874 1033.54C632.314 1038.79 627.383 1041.79 623.495 1045.72C623.653 1033.57 623.969 1021.43 624.412 1009.31C630.797 1016.68 639.742 1023.64 634.874 1033.54ZM637.245 1099.73C632.44 1104.38 627.257 1109.63 623.432 1115.58C623.306 1104.03 623.274 1092.49 623.274 1080.95C626.909 1088.31 631.998 1095.08 637.245 1099.76V1099.73ZM626.782 1155.3C630.797 1162.1 638.288 1171.33 632.377 1179.96C630.607 1182.53 627.193 1183.76 624.538 1185.75C624.285 1174.05 624.064 1162.29 623.906 1150.52C624.823 1152.07 625.834 1153.68 626.782 1155.33V1155.3ZM633.199 1252.67C630.986 1256.59 628.3 1259.98 626.15 1263.58C625.834 1251.69 625.455 1239.77 625.297 1227.91C625.202 1223.01 625.107 1218.07 625.012 1213.2C632.251 1226.07 642.681 1235.88 633.199 1252.7V1252.67ZM641.164 1316.81C641.259 1318.32 641.322 1319.81 641.417 1321.33C636.834 1325.95 631.871 1331.07 628.584 1336.92C628.015 1322.97 627.541 1309.03 627.067 1295.08C630.544 1303.37 635.633 1311.56 641.164 1316.81ZM642.27 1395.39C639.584 1401.5 635.127 1406.37 632.093 1411.71C631.524 1401.34 631.018 1390.94 630.481 1380.56C630.228 1375.12 630.006 1369.65 629.754 1364.18C636.486 1374.71 647.296 1383.98 642.239 1395.39H642.27ZM649.287 1403.08C651.215 1417.15 653.302 1431.23 655.451 1445.3C656.02 1449.16 656.557 1452.98 657.126 1456.81C653.08 1450.49 648.56 1444.54 644.894 1437.74C633.167 1415.67 643.061 1412.92 649.256 1403.11L649.287 1403.08ZM658.738 1467.97C651.152 1472.94 644.515 1479.23 636.707 1483.85C636.138 1474.9 635.791 1466.08 635.095 1457.95C634.59 1451.31 634.084 1444.64 633.641 1437.99C640.026 1448.78 650.963 1458.27 658.738 1467.97ZM640.911 1490.9C647.707 1486.89 653.649 1481.76 660.129 1477.24C661.172 1484.23 662.215 1491.19 663.448 1498.11C665.344 1508.9 668.442 1520.6 668.379 1531.86C667.62 1531.16 666.861 1530.5 666.103 1529.77C654.85 1519.14 646.537 1505.29 640.911 1490.87V1490.9ZM710.828 799.102C705.929 804.162 701.188 809.38 696.636 814.82C691.99 820.512 687.691 826.11 683.74 831.739C683.74 826.205 682.665 820.354 682.128 814.914C680.168 792.587 697.047 800.082 710.828 799.133V799.102ZM690.188 789.361C699.481 779.368 709.185 769.785 720.089 761.5C718.762 767.002 720.121 773.011 717.814 779.02C712.756 791.891 700.872 788.919 690.22 789.361H690.188ZM756.47 760.582C745.787 767.983 735.546 776.015 725.874 784.712C726.063 781.36 725.874 777.85 726.601 774.687C731.279 754.352 743.321 758.938 756.502 760.582H756.47ZM738.327 749.292C748.379 743.189 758.841 737.717 769.366 732.404C767.912 735.504 766.553 738.666 765.289 741.86C761.749 750.842 762.476 751.791 753.215 750.968C748.284 750.526 743.226 749.355 738.296 749.292H738.327ZM801.417 734.27C790.607 739.678 780.05 745.497 769.84 751.854C772.59 743.347 776.036 735.187 780.303 727.281C787.73 727.281 794.495 731.582 801.417 734.27ZM790.449 721.968C791.049 721.683 791.65 721.367 792.25 721.083C803.124 715.643 813.997 710.551 825.06 705.776C822.563 712.196 822.531 720.26 816.525 724.53C808.276 730.475 799.362 724.182 790.449 721.968ZM1308.03 668.205C1296.21 665.359 1283.82 663.683 1271.18 662.766C1277.05 658.275 1281.32 649.167 1287.45 645.245C1287.96 644.929 1288.24 644.455 1288.37 643.917C1294.94 650.4 1300.38 661.69 1308.03 668.205ZM1300.25 646.51C1307.68 648.345 1315.05 650.527 1322.25 653.247C1325 654.29 1328.89 655.84 1333.22 657.769C1331.93 658.56 1330.66 659.319 1329.3 659.919C1324.85 664.663 1319.73 664.979 1313.85 660.931C1311.13 658.401 1308.57 655.713 1306.23 652.804C1304.11 650.495 1302.21 648.313 1300.25 646.51ZM1269.69 652.962C1261.41 658.465 1258.22 651.191 1253.1 645.498C1251.26 643.411 1249.37 641.292 1247.31 639.363C1258.37 639.806 1269.34 640.818 1280.25 642.494C1276.39 645.53 1273.93 650.116 1269.66 652.962H1269.69ZM1255.21 661.912C1250.31 661.754 1245.38 661.659 1240.48 661.659C1230.34 661.659 1220.25 661.849 1210.23 662.102C1219.27 652.013 1230.31 635.916 1241.81 647.238C1246.39 651.728 1250 658.022 1255.24 661.912H1255.21ZM1206.38 660.362C1199.14 654.543 1193.32 644.803 1184.51 641.071C1187.6 640.786 1190.67 640.596 1193.77 640.343C1203.03 639.743 1212.32 639.331 1221.58 639.173C1215.64 645.15 1210.55 654.005 1206.41 660.331L1206.38 660.362ZM1196.8 662.481C1183.34 662.829 1169.84 663.367 1156.28 663.999C1159.54 661.311 1162.38 657.959 1165.83 655.334C1180.52 644.233 1187.54 653.531 1196.8 662.481ZM1153.25 654.448C1142.78 657.99 1137.03 651.602 1130.49 647.364C1142.97 645.593 1155.49 644.012 1168.04 642.684C1163.04 646.384 1159.69 652.298 1153.25 654.48V654.448ZM1130.74 661.69C1132.73 662.766 1134.34 663.967 1135.86 665.043C1122.84 665.802 1109.85 666.687 1096.83 667.731C1099.2 665.897 1101.35 663.841 1104.06 662.165C1112.79 656.883 1121.89 656.978 1130.71 661.69H1130.74ZM1091.86 666.972C1091.74 666.719 1091.58 666.497 1091.36 666.276C1086.84 662.355 1081.62 658.148 1076.03 655.302C1078.27 654.986 1080.52 654.701 1082.76 654.385C1090.79 653.183 1098.79 651.95 1106.81 650.748C1101.41 655.871 1096.6 662.639 1091.89 666.972H1091.86ZM1079.79 665.738C1081.56 666.75 1083.23 667.731 1084.91 668.711C1071.38 669.913 1057.85 671.304 1044.36 672.886C1046.6 671.051 1048.81 669.091 1051.37 667.446C1061.58 660.995 1069.07 659.603 1079.79 665.77V665.738ZM1041.95 663.841C1030.7 671.652 1016.92 668.521 1004.37 664.252C1018.88 662.608 1033.32 660.868 1047.83 659.066C1045.9 660.742 1044.04 662.418 1041.95 663.841ZM1017.65 676.175C1004.37 677.946 991.128 679.875 977.979 682.025C984.838 678.262 989.769 671.526 996.091 666.244C996.502 665.928 996.723 665.549 996.944 665.201C1002.82 668.838 1010.12 673.423 1017.65 676.175ZM973.681 674.72C965.431 677.218 961.828 673.929 954.368 670.64C954.242 670.609 954.115 670.545 954.02 670.482C964.988 668.996 975.988 667.604 986.988 666.276C983.226 670.134 978.738 673.202 973.681 674.72ZM963.313 684.587C955.506 685.979 947.73 687.338 939.986 688.92C934.329 690.058 928.702 691.292 923.044 692.525C927.786 681.709 934.613 674.246 948.363 679.021C953.578 680.792 958.066 683.638 963.313 684.587ZM920.073 690.627C912.709 687.37 904.807 682.69 896.968 680.919C906.513 678.515 916.186 676.523 926.016 674.783C922.918 679.527 921.085 685.441 920.073 690.627ZM910.212 695.529C898.137 698.502 886.063 701.791 874.115 705.46C875.79 702.424 876.992 699.04 879.457 696.605C889.666 686.358 899.844 690.596 910.243 695.529H910.212ZM871.492 693.79C865.17 700.874 860.461 701.633 851.484 699.957C848.987 699.514 846.553 698.629 844.119 697.87C854.74 693.727 865.423 690.027 876.296 686.674C874.368 688.888 873.357 691.639 871.492 693.758V693.79ZM856.225 711.31C846.806 714.599 837.513 718.11 828.347 721.936C829.295 718.616 830.243 715.137 832.361 711.721C838.651 701.696 847.312 708.306 856.225 711.31ZM1369.92 692.177C1371.91 697.553 1373.65 702.993 1375.04 708.496C1371.31 703.752 1367.26 699.514 1362.96 695.656C1365.34 694.549 1367.61 693.379 1369.89 692.177H1369.92ZM1361.13 673.55C1361.38 673.993 1361.64 674.435 1361.92 674.878C1364.13 678.895 1366.06 682.974 1367.77 687.054C1365.78 688.097 1363.91 688.35 1361.45 686.579C1359.05 684.903 1358.48 680.571 1357.65 678.294C1356.45 675.131 1355.38 672 1354.24 668.901C1356.61 670.387 1358.92 671.905 1361.13 673.55ZM1354.05 688.382C1344.73 681.646 1334.45 676.554 1323.52 672.696C1329.21 671.02 1333.54 664.442 1338.47 664.126C1345.39 663.651 1350.48 678.673 1354.05 688.382ZM1092.59 567.511C1092.84 567.669 1093.06 567.795 1093.32 567.953C1107.22 580.414 1119.33 584.936 1111.02 603.184C1106.78 607.263 1100.27 609.477 1092.62 608.75C1081.59 607.738 1070.75 603.563 1060.63 599.167C1039.2 589.838 1019.77 584.81 996.122 581.489C972.448 578.168 948.268 582.659 925.763 589.87C880.058 604.544 797.118 674.973 785.17 681.298C759.473 694.834 749.422 670.103 776.036 646.51C804.672 621.052 831.413 561.122 927.533 546.923C1042.93 529.94 1065.91 547.334 1092.56 567.479L1092.59 567.511ZM1121.73 609.73C1126.32 604.164 1128.43 598.345 1128.72 592.463C1130.68 592.558 1132.61 592.495 1134.53 592.495C1138.07 592.368 1141.55 591.894 1145.03 591.419C1145.03 591.419 1145.07 591.409 1145.15 591.388C1154.38 590.059 1187.82 584.746 1189.59 599.199C1190.8 608.94 1157.1 614.126 1127.49 617.131C1122.59 617.32 1117.75 617.415 1112.91 617.162C1116.11 615.36 1119.11 612.956 1121.76 609.73H1121.73ZM753.91 685.251C756.944 690.944 762.254 694.486 768.134 695.909C767.407 696.32 766.68 696.668 765.984 697.079C754.289 702.803 730.362 716.37 719.584 704.701C709.564 693.569 720.658 688.572 723.914 685.82C728.529 681.583 734.25 678.895 739.655 675.827C744.017 673.328 748.031 670.767 751.666 667.731C750.718 673.929 751.097 679.97 753.91 685.251ZM695.562 266.123C699.607 238.767 747.399 230.165 768.45 225.326C790.512 220.234 813.049 217.483 835.269 213.024C853.791 209.292 876.107 202.524 895.04 206.13C916.344 210.273 913.91 234.118 928.133 246.768C936.984 254.674 947.794 255.591 958.73 254.421C958.856 295.155 973.523 336.236 980.476 375.894C989.327 426.051 993.688 477.505 1005.19 527.094C976.715 528.201 940.239 529.466 912.551 535.949C860.555 548.188 823.764 573.393 792.156 614.537C779.576 615.992 766.743 618.585 753.942 622.064C741.109 625.606 728.307 629.97 715.664 634.935C715.633 614.379 712.093 593.886 709.279 573.551C705.518 546.606 703.748 519.63 701.188 492.622C695.625 434.843 689.682 374.913 675.174 318.526C678.62 316.47 681.812 314.225 684.657 311.663C699.323 298.633 693.001 283.232 695.467 266.123H695.562ZM902.784 190.728C917.861 188.989 933.886 188.989 944.285 200.88C952.819 210.715 956.359 223.935 959.267 236.49C945.044 237.945 937.521 233.96 931.168 218.906C924.435 202.746 914.984 194.397 902.752 190.76L902.784 190.728ZM1021.16 384.085C1025.61 411.187 1030.39 438.195 1035.73 465.172C1039.9 486.171 1042.62 507.866 1049.22 528.359C1040.85 527.157 1032.03 526.714 1022.61 526.746C1021.54 526.746 1020.46 526.777 1019.35 526.777C1016.41 477.948 1006.74 428.708 997.545 380.827C989.358 338.26 974.597 295.787 971.752 252.334C973.08 252.081 974.344 251.86 975.672 251.607C983.764 249.994 991.507 247.843 998.556 244.997C996.912 291.739 1013.66 338.291 1021.12 384.053L1021.16 384.085ZM625.866 314.541C623.748 314.825 621.63 315.11 619.481 315.3C618.722 315.11 617.837 315.047 616.889 315.173C606.68 316.565 601.622 306.793 602.191 297.811C602.286 296.42 601.717 295.249 600.864 294.364C597.134 266.629 591.824 224.409 602.065 208.502C619.607 181.209 646.19 175.042 664.175 168.464C685.162 160.811 706.213 152.936 727.612 146.39C768.481 133.771 810.235 122.386 851.895 112.582C888.56 103.949 933.096 93.7338 969.856 106.921C979.338 110.369 987.367 116.377 994.005 123.904C981.172 117.326 965.273 114.575 947.636 114.954C886.537 116.409 825.439 136.491 767.249 153.6C725.684 165.839 674.827 174.884 644.483 208.691C631.366 223.239 624.696 241.613 622.737 260.873C621.883 268.811 622.136 276.401 622.863 284.244C623.495 291.454 628.584 307.33 625.866 314.509V314.541ZM626.719 314.414C631.366 309.038 631.555 298.95 631.777 292.498C632.377 272.29 632.219 252.777 641.164 233.897C660.034 194.049 708.331 182.189 746.988 170.678C795.348 156.257 843.645 141.709 893.301 132.316C935.498 124.284 995.806 115.65 1013.03 160.178C1016.45 171.911 1017.96 184.119 1017.58 195.124C1016.83 217.61 1002.57 226.749 982.531 232.22C978.359 233.327 974.123 234.181 969.919 234.909C965.146 212.455 955.253 186.332 930.694 181.146C915.522 177.952 897.126 181.557 882.302 185.004C878.256 185.953 874.02 187.534 869.627 189.337H869.532C832.867 193.353 794.084 200.469 758.43 209.514C729.129 216.882 681.528 227.635 677.924 264.51C676.755 276.685 681.97 289.525 671.95 299.424C665.945 305.401 654.092 308.469 646.221 310.556C639.837 312.232 633.325 313.529 626.719 314.446V314.414ZM641.986 330.417C649.793 328.93 657.411 326.78 664.428 323.87C671.729 379.878 679.663 435.222 684.025 491.642C687.881 541.673 697.521 591.293 700.587 641.261C693.254 644.423 686.048 647.807 678.904 651.254C678.809 543.444 645.494 438.227 642.018 330.417H641.986ZM530.473 1431.54C517.798 1312.25 516.755 1192.01 516.692 1072.15C516.597 988.663 509.675 900.935 535.562 820.196C550.955 772.22 578.96 733.416 620.903 705.302C648.118 687.054 677.798 673.107 707.762 660.172C732.006 649.736 755.617 637.972 780.998 630.856C780.84 631.109 780.714 631.33 780.555 631.552C775.435 637.529 757.071 648.914 753.752 659.287C739.086 667.668 720.785 670.103 710.228 684.587C703.811 693.379 700.619 706.314 709.627 714.536C721.038 725.004 741.109 719.438 753.594 714.694C757.64 713.176 761.527 711.563 765.257 709.856C776.446 704.606 786.118 698.186 794.21 689.078C809.888 677.092 920.231 570.547 1014.77 596.859C1030.92 601.35 1057.28 612.861 1081.65 618.996C1095.78 625.29 1110.35 627.187 1128.05 626.492C1136.84 626.175 1148.13 626.144 1159.19 624.942C1170.25 623.709 1181.03 621.305 1188.65 616.119C1199.01 609.098 1200.5 594.993 1190.39 586.612C1176.89 575.385 1145.31 581.268 1128.09 584.683C1124.27 580.108 1120.49 575.565 1116.74 571.053C1139.18 569.06 1161.62 573.393 1183.91 576.555C1209.63 580.161 1235.21 585.063 1259.61 594.234C1292.45 606.568 1325.29 626.681 1347.95 654.417C1347.79 654.29 1347.6 654.227 1347.45 654.132C1346.5 652.835 1345.11 652.013 1343.56 652.14C1335.81 648.281 1328.39 645.34 1322.85 643.411C1281.51 629.148 1236.44 628.863 1193.2 632.026C1191.68 632.121 1190.16 632.216 1188.62 632.342C1179.16 633.101 1169.75 633.987 1160.29 634.999C1112.28 640.185 1064.62 648.313 1016.7 654.195C963.092 660.805 909.548 664.695 858.185 682.658C829.105 692.841 799.236 705.555 770.915 720.355C754.289 729.052 738.232 738.476 723.155 748.533C687.343 772.473 651.595 811.594 635.886 852.011C618.501 896.824 617.458 947.835 615.783 995.241C613.792 1051.88 614.455 1108.74 614.866 1165.42C615.277 1227.4 617.395 1289.32 620.461 1351.18C622.104 1384.71 623.622 1418.2 626.245 1451.69C628.078 1475.66 627.92 1503.55 634.748 1527.33C634.843 1527.68 634.906 1528.03 635.032 1528.38C620.998 1524.62 607.154 1519.84 593.31 1514.59C578.896 1509.09 565.716 1502.29 551.713 1495.96C547.193 1493.91 542.579 1491.5 538.217 1491.47C535.246 1471.58 532.654 1451.66 530.536 1431.61L530.473 1431.54ZM619.734 1760.79C577.664 1725.91 569.224 1656.27 558.825 1606.18C551.524 1570.98 544.949 1535.81 539.513 1500.42C561.923 1514.81 587.367 1525.34 612.464 1533.98C634.811 1541.66 675.174 1556.87 698.596 1546.22C704.57 1594.29 713.768 1642.13 732.132 1686.98C747.083 1723.41 770.156 1773.16 806.98 1794.69C791.018 1795.71 775.087 1796.84 759.03 1796.91C711.397 1797 658.011 1792.58 619.702 1760.82L619.734 1760.79ZM794.273 1897.98C793.515 1897.95 792.788 1897.95 791.998 1897.86C752.93 1894.44 723.724 1851.46 726.316 1814.11C739.244 1814.87 752.171 1815.03 764.657 1814.81C779.228 1814.55 793.736 1813.73 808.244 1812.85C819.718 1823.5 819.813 1847.1 818.454 1860.63C816.936 1875.75 807.422 1892.23 794.242 1897.98H794.273ZM814.218 1895.42C821.203 1887.96 826.324 1878.53 828.126 1869.01C831.097 1853.58 831.097 1826.03 819.117 1812.18C828.947 1811.58 838.714 1811.01 848.576 1810.7C850.694 1810.6 853.064 1810.57 855.498 1810.54C854.392 1842.92 845.415 1884.57 814.218 1895.45V1895.42ZM851.168 1793.84C850.883 1793.84 850.694 1793.71 850.441 1793.68C843.013 1793.56 836.344 1793.24 833.278 1793.33C826.893 1793.52 820.508 1793.84 814.123 1794.25C796.012 1783.47 784.38 1765.98 773.823 1747.04C762.634 1726.98 751.35 1706.84 742.563 1685.62C722.618 1637.39 713.768 1585.05 707.731 1533.44C694.202 1417.06 684.277 1298.43 681.528 1181.29C680.074 1120.45 682.002 1059.6 683.519 998.783C684.815 946.475 686.869 898.531 716.865 853.466C774.898 766.243 890.267 739.172 986.924 722.094C1051.59 710.678 1117.02 699.609 1182.64 697.68C1216.52 696.668 1250 693.094 1281.48 708.179C1325.79 729.4 1352 748.312 1367.77 771.714C1380.06 790.025 1386.73 812.036 1390.81 833.826C1391.1 835.471 1391.38 837.115 1391.7 838.76C1392.04 841.037 1392.46 843.314 1392.8 845.622C1394.64 858.083 1394.64 871.207 1397.39 883.541C1398.46 896.413 1399.91 909.189 1402 921.902C1400.61 920.1 1399.19 918.297 1397.7 916.558C1395.05 914.502 1392.33 912.541 1389.52 910.707C1370.3 898.152 1359.93 881.96 1307.9 868.74C1307.56 868.646 1307.33 868.266 1307.15 868.013C1292.73 863.68 1272.72 861.245 1251.14 860.107C1216.24 858.178 1177.24 859.632 1151.16 861.562C1061.9 868.108 948.11 894.989 876.233 956.943C835.933 991.668 816.62 1035.75 808.276 1083.51C803.661 1109.69 802.397 1136.89 802.744 1164.34C804.103 1268.26 813.807 1372.72 822.942 1476.17C828.979 1544.82 834.416 1613.86 842.76 1682.27C846.174 1709.94 851.61 1736.82 862.325 1762.59C866.529 1772.75 870.512 1784.19 877.719 1792.7C878.066 1793.14 878.509 1793.46 878.92 1793.9C869.69 1794.25 860.397 1794 851.105 1793.9L851.168 1793.84ZM951.587 1822.65C932.432 1813.54 890.488 1803.33 875.569 1768.07C865.391 1744.06 858.469 1719.93 854.771 1694.13C849.998 1660.73 847.027 1626.92 844.246 1593.21C850.82 1596.66 859.165 1597.89 866.276 1599.31C891.12 1604.15 916.786 1606.65 942.136 1606.02C945.265 1660.98 943.21 1717.15 950.196 1771.67C953.388 1796.81 961.322 1818.16 976.999 1833.5C968.497 1830.3 960.057 1826.7 951.587 1822.68V1822.65ZM1218.74 1829.23C1211.75 1830.62 1204.7 1831.92 1197.62 1832.99C1140.38 1841.94 1085.6 1856.68 1027.35 1847.07C1015.4 1845.1 1004.02 1842.32 992.898 1838.87C969.382 1820.75 960.816 1790.84 958.129 1760.19C954.4 1717.18 955.316 1673.57 953.167 1630.46C948.584 1540.78 940.587 1451.34 934.012 1361.78C973.428 1349.7 1014.58 1345.62 1054.79 1336.67C1100.14 1326.61 1145.06 1314.59 1190.04 1302.99C1192.25 1302.42 1194.49 1301.88 1196.68 1301.31C1194.59 1342.99 1205.3 1386.63 1209.07 1427.91C1213.55 1477.15 1219.72 1526.2 1222.44 1575.56C1225.19 1625.75 1224.96 1676.07 1224.71 1726.35C1224.62 1744.51 1224.02 1762.72 1225.12 1780.84C1225.98 1795.17 1229.45 1817.43 1218.74 1829.23ZM1246.77 1699.63C1246.49 1722.37 1245.83 1745.11 1245 1767.81C1244.4 1785.24 1247.12 1808.89 1238.21 1824.42C1238.08 1824.61 1238.02 1824.83 1237.92 1825.02C1235.68 1825.59 1233.4 1826.03 1231.16 1826.51C1239.57 1807.88 1233.44 1780.05 1233.37 1761.96C1233.18 1708.8 1234.38 1655.61 1232.58 1602.44C1230.81 1551.4 1225.25 1500.71 1219.97 1449.95C1214.72 1399.92 1204.29 1350.49 1200.31 1300.42C1205.11 1299.22 1209.92 1297.99 1214.79 1296.79C1217.47 1338.98 1225.98 1381.61 1230.94 1423.57C1236.37 1469.27 1239.98 1514.97 1242.79 1560.92C1245.64 1607.16 1247.44 1653.33 1246.84 1699.63H1246.77ZM1462.12 1728.66C1432.31 1763.58 1382.78 1780.3 1340.68 1794.31C1310.34 1804.4 1280.78 1814.21 1250.44 1821.99C1253.89 1812.28 1254.17 1801.62 1254.58 1791.31C1255.5 1768.67 1256.29 1746.05 1256.83 1723.41C1257.9 1676.42 1257.08 1629.48 1254.42 1582.58C1248.99 1486.25 1236.85 1390.49 1219.43 1295.59C1253.29 1287.17 1287.23 1279.2 1321.34 1271.74C1364.04 1262.41 1408.16 1256.94 1450.49 1246C1457.82 1316.96 1465.56 1387.84 1473.72 1458.68C1479.66 1509.91 1487.31 1561.3 1487.69 1612.94C1488.01 1651.08 1488.29 1697.98 1462.12 1728.69V1728.66Z" fill="black"/>
<path d="M1386.99 1207.51C1387.24 1207.7 1387.56 1207.82 1387.84 1207.85C1388.09 1208.11 1388.31 1208.36 1388.57 1208.61C1394.38 1213.42 1401.18 1210.23 1403.2 1203.43C1404.97 1197.48 1404.75 1188.63 1398.11 1185.75C1393.5 1183.76 1387.97 1185.88 1384.77 1189.39C1379.84 1194.76 1380.92 1203.3 1387.02 1207.48L1386.99 1207.51ZM1389.93 1193.09C1391.1 1191.92 1392.77 1191.16 1394.1 1191.13C1395.62 1191.09 1396.44 1191.6 1396.91 1192.86C1397.83 1195.27 1397.16 1198.59 1396.44 1200.96C1396.03 1202.19 1395.52 1203.11 1394.79 1203.9C1394.76 1203.93 1394.6 1204.09 1394 1203.9C1392.2 1203.3 1390.46 1201.31 1389.42 1199.66C1388.95 1198.81 1388.54 1197.99 1388.12 1197.1C1388.12 1195.74 1388.63 1194.41 1389.93 1193.15V1193.09Z" fill="black"/>
<path d="M1007.03 1159.72C986.419 1167.06 948.932 1176.52 965.305 1201.91C966.379 1204.95 968.055 1207.64 971.026 1209.41C977.727 1213.39 987.304 1209.91 993.973 1207.73C1034.72 1194.39 1076.47 1184.17 1118.13 1174.02C1198.64 1154.41 1281.29 1131.96 1364.36 1126.23C1359.43 1153.68 1359.71 1187.52 1363.91 1214.66C1366.92 1234.26 1380.7 1239.7 1399.38 1234.99C1454 1221.08 1400.83 1157.26 1387.71 1123.1C1387.11 1121.58 1386.61 1120.1 1386.2 1118.71C1386.77 1108.27 1380.03 1095.15 1371.09 1089.96C1357.02 1081.83 1332.78 1090.37 1318.21 1092.55C1263.46 1100.93 1209.82 1113.93 1155.52 1124.46C1105.64 1134.17 1055.01 1142.58 1007 1159.72H1007.03ZM973.049 1195.62C971.816 1192.36 972.037 1189.61 973.238 1187.21C981.867 1188.44 989.58 1191.51 997.482 1194.64C986.735 1198.59 979.117 1201.22 973.049 1195.65V1195.62ZM1004.63 1189.61C1001.88 1190.65 991.603 1186 987.272 1185.12C983.258 1184.27 979.686 1183.76 976.02 1183.47C982.468 1177.31 995.743 1173.89 1004.02 1170.79C1009.27 1168.83 1014.61 1166.93 1019.92 1165.13C1015.25 1172.6 1010.79 1187.14 1004.63 1189.58V1189.61ZM1038.03 1182.75C1030.83 1184.68 1023.56 1186.51 1016.38 1188.53C1020.27 1177.24 1026.21 1164.22 1038.41 1165.45C1047.2 1166.33 1054.31 1174.27 1062.97 1176.23C1054.63 1178.38 1046.32 1180.57 1038 1182.78L1038.03 1182.75ZM1058.8 1167.03C1052.26 1165.13 1046.03 1160.93 1039.99 1158.68C1046.32 1156.75 1052.73 1154.92 1059.15 1153.24C1066.07 1151.47 1073.02 1149.79 1079.98 1148.24C1074.61 1157.7 1074.76 1171.58 1058.77 1167.06L1058.8 1167.03ZM1075.68 1173.01C1078.21 1169.97 1079.63 1165.42 1082.06 1160.61C1094.77 1135.31 1104.57 1157.57 1121.86 1161.56C1106.43 1165.26 1091.04 1169.05 1075.71 1172.98L1075.68 1173.01ZM1115.54 1151.03C1112.19 1150.02 1108.81 1147.39 1105.61 1145.84C1104.32 1145.21 1102.8 1144.35 1101.16 1143.56C1114.21 1140.84 1127.26 1138.31 1140.38 1135.78C1135.32 1147.33 1133.46 1156.31 1115.54 1151.03ZM1150.02 1154.98C1144.9 1156.15 1139.81 1157.35 1134.69 1158.55C1140.73 1153.43 1144.33 1143.75 1147.59 1136.83C1154.57 1140.69 1163.14 1147.61 1171.39 1150.14C1164.25 1151.75 1157.13 1153.34 1150.02 1154.98ZM1379.24 1125.35C1390.46 1155.27 1434.21 1213.84 1397.54 1223.96C1371.82 1231.1 1374.03 1207.57 1373.49 1189.26C1372.92 1168.61 1374.72 1146.32 1371.66 1125.73C1374.19 1125.6 1376.71 1125.44 1379.24 1125.32V1125.35ZM1374.28 1110.55C1374.03 1114.03 1372.64 1115.96 1370.11 1116.27C1369.22 1111.15 1367.36 1104.85 1364.23 1099.67C1368.97 1101.88 1372.32 1105.49 1374.28 1110.55ZM1360.03 1116.84C1353.83 1118.2 1347 1118.77 1340.11 1119.21C1345.39 1113.33 1350.57 1107.38 1355.41 1101.09C1357.37 1106.18 1358.38 1111.59 1360.03 1116.84ZM1335.28 1099.64C1339.2 1099.16 1344.6 1097.96 1349.41 1097.42C1344.22 1103.97 1338.66 1110.01 1332.68 1115.8C1326.96 1110.99 1320.83 1106.75 1314.83 1102.29C1321.62 1101.34 1328.45 1100.46 1335.24 1099.64H1335.28ZM1306.32 1108.43C1307.78 1104.41 1320.74 1115.04 1325.89 1119.97C1321.4 1120.26 1317.04 1120.6 1312.96 1121.2C1306.77 1122.15 1300.54 1123.17 1294.34 1124.24C1297 1121.39 1299.27 1118.11 1301.11 1115.7C1302.91 1113.3 1304.68 1110.9 1306.36 1108.4L1306.32 1108.43ZM1273.26 1108.74C1282.3 1107.13 1291.37 1105.71 1300.48 1104.35C1296.56 1110.67 1291.47 1118.86 1286.57 1120.41C1278.03 1123.23 1271.84 1114.47 1264.82 1110.36C1267.64 1109.85 1270.42 1109.25 1273.26 1108.74ZM1265.83 1120.29C1269.56 1122.03 1272.63 1125.28 1276.11 1127.59C1268.58 1129.05 1261.09 1130.53 1253.6 1132.08C1247.63 1133.32 1241.72 1134.65 1235.77 1135.94C1247.03 1128.35 1248.83 1112.32 1265.87 1120.32L1265.83 1120.29ZM1243.17 1114.5C1238.43 1119.5 1236.15 1125.13 1226.23 1126.33C1214.88 1127.72 1217.41 1125.73 1209.29 1121.71C1220.54 1119.28 1231.86 1116.81 1243.17 1114.5ZM1217.82 1136.95C1219.62 1137.71 1221.36 1138.31 1223.04 1138.69C1211.22 1141.26 1199.39 1143.82 1187.6 1146.47C1190.48 1143.31 1190.92 1138.06 1193.77 1135.21C1206.51 1122.6 1208.88 1133.1 1217.82 1136.99V1136.95ZM1189.03 1126.04C1183.75 1133.38 1183.94 1142.08 1171.33 1140.75C1164.31 1140.02 1157.96 1136.07 1151.16 1133.7C1156.72 1132.62 1162.29 1131.55 1167.88 1130.41C1174.93 1129.02 1181.98 1127.53 1189.03 1126.04Z" fill="black"/>
<path d="M771.01 1825.97C763.519 1826.86 759.473 1835.27 759.062 1842.04C758.778 1847.57 760.801 1852.38 764.341 1855.48C764.309 1859.08 766.269 1862.4 769.682 1864.11C782.01 1870.15 788.679 1855.67 787.825 1845.55C787.13 1837.51 780.777 1824.86 771.01 1825.97ZM776.699 1854.4C776.415 1854.05 776.067 1853.77 775.625 1853.61C769.746 1851.71 767.501 1847.03 768.924 1841.12C769.366 1839.16 770.473 1837.36 771.358 1836.47C771.705 1836.12 772.306 1836.12 771.8 1836.06C772.274 1836.06 772.243 1835.93 773.191 1836.82C775.846 1839.22 777.49 1843.27 777.774 1846.75C777.932 1848.87 777.932 1852.19 776.699 1854.4Z" fill="black"/>
</g>
<defs>
<clipPath id="clip0_157_327">
<rect width="1007" height="1836" fill="white" transform="translate(497 82)"/>
</clipPath>
</defs>
</svg>
