<svg width="2000" height="2000" viewBox="0 0 2000 2000" fill="none" xmlns="http://www.w3.org/2000/svg">
<g clip-path="url(#clip0_157_336)">
<path d="M1932.47 906.764C1863.78 828.92 1790.54 755.961 1681.65 718.668C1666.03 620.304 1622.41 549.951 1591.64 466.895C1572.6 458.752 1573.25 430.579 1542.49 434.487C1499.36 440.35 1446.3 441.001 1400.07 442.141C1261.89 445.561 1144.7 468.035 1031.25 490.672C864.418 433.021 575.188 422.273 410.147 491.486C416.657 555.488 400.218 627.958 408.845 699.451C387.36 692.448 365.549 702.382 345.855 704.499C279.611 730.882 213.529 784.949 150.377 819.963C130.194 831.2 106.105 840.483 92.1076 853.023C47.836 892.433 21.4684 992.263 58.0901 1049.42C84.946 1091.28 139.797 1109.68 203.112 1114.08C271.31 1229.05 300.607 1383.44 319.65 1548.08C348.948 1566.16 382.151 1549.06 415.355 1545.32C586.093 1574.96 773.597 1563.23 964.192 1561.28C1165.04 1559.32 1395.68 1575.44 1582.85 1558.18C1613.13 1563.39 1662.61 1571.21 1690.28 1557.69C1721.37 1431.32 1738.29 1290.61 1779.47 1174.17C1797.7 1180.03 1819.19 1182.48 1844.9 1180.85C1945.65 1160 1991.88 1011.97 1932.31 907.09L1932.47 906.764ZM1695.81 749.122C1723.81 760.684 1745.62 778.598 1770.68 793.092C1784.52 815.892 1823.58 825.663 1834 844.228C1674.65 842.926 1644.38 969.463 1613.45 1095.35C1591.48 1032.33 1566.42 972.232 1530.77 922.887C1536.47 872.077 1554.53 832.503 1588.55 803.515C1620.29 776.318 1657.07 753.193 1695.65 749.284L1695.81 749.122ZM1587.9 1114.08C1413.26 1104.31 1214.03 1094.37 1022.79 1100.56C1013.83 1047.8 1006.35 961.321 1019.53 909.044C1065.92 889.339 1126.47 894.876 1185.22 891.945C1303.06 885.919 1432.95 890.316 1512.22 927.61C1541.51 985.749 1565.6 1048.94 1587.9 1114.08ZM1034.34 598.156C1036.95 568.353 1036.62 539.04 1045.57 516.403C1186.69 473.409 1379.4 471.292 1549.65 464.778C1551.28 464.778 1552.74 464.778 1554.37 464.778C1595.55 541.971 1636.73 619.327 1646.66 728.276C1626.64 747.167 1599.78 759.381 1579.11 777.621C1565.6 795.861 1548.02 811.82 1535 831.526C1522.14 850.905 1517.26 876.311 1495.61 887.711C1354.01 861.002 1154.3 852.045 1007.65 883.151C1005.05 783.809 1026.2 691.797 1034.18 597.993L1034.34 598.156ZM1099.12 1424.8C1109.86 1396.63 1112.63 1360.8 1112.63 1321.88C1118.33 1323.35 1123.37 1325.14 1131.35 1324.16C1130.21 1371.88 1130.54 1437.51 1148.44 1473.66C1161.46 1427.74 1143.56 1374.16 1145.35 1324.16C1153.97 1324.16 1162.44 1324.16 1171.06 1324.16C1175.46 1376.76 1162.76 1458.68 1174.16 1504.11C1023.6 1511.12 876.463 1495.32 725.744 1494.67C725.419 1433.92 725.093 1373.18 724.93 1312.43C727.209 1312.43 729.651 1312.43 731.929 1312.43C744.625 1358.03 727.86 1435.88 744.462 1482.94C761.064 1436.86 743.648 1371.39 748.368 1314.71C755.367 1314.71 762.366 1314.71 769.365 1314.71C767.249 1356.89 760.901 1406.89 767.737 1450.21C779.619 1413.24 779.619 1364.38 781.084 1316.99C793.128 1311.78 814.287 1315.85 830.075 1314.39C834.47 1344.03 840.655 1383.11 842.283 1407.87C859.047 1385.88 845.049 1339.31 846.514 1314.39C850.421 1318.3 860.186 1316.18 867.511 1316.67C864.907 1362.92 854.815 1435.06 872.882 1473.17C883.624 1433.76 880.857 1368.29 886.229 1316.51C893.227 1316.51 900.226 1316.51 907.225 1316.51C905.923 1360.8 900.226 1423.5 910.318 1463.73C933.43 1435.06 916.177 1355.59 921.223 1316.51C978.352 1319.76 1038.9 1319.76 1096.36 1322.69C1096.36 1355.92 1084.8 1398.91 1099.29 1425.46L1099.12 1424.8ZM438.467 505.166C608.229 456.31 863.93 450.935 1015.3 518.683C986.002 613.464 988.118 769.967 984.537 890.316C966.634 899.436 944.172 879.731 923.827 876.636C804.847 861.002 639.643 850.091 522.128 869.308C512.199 789.347 465.649 746.516 434.887 687.563C423.656 628.772 442.211 570.796 438.63 505.329L438.467 505.166ZM992.513 1102.84C822.914 1088.18 616.693 1087.37 439.118 1096.16C466.625 1029.56 488.924 958.064 517.57 892.433C655.919 887.059 821.937 891.456 949.543 906.602C980.306 955.295 982.422 1033.14 992.513 1102.68V1102.84ZM345.53 1519.59C345.53 1515.68 345.53 1511.77 345.53 1507.86C356.435 1511.61 369.781 1513.07 382.965 1514.7C374.339 1520.07 359.69 1519.59 345.53 1519.59ZM401.683 1056.75C388.825 1078.09 400.706 1105.45 402.008 1131.5C408.031 1252.18 411.774 1372.36 413.076 1495.97C390.615 1493.69 368.805 1490.6 343.088 1491.57C328.114 1347.94 297.352 1220.1 243.152 1115.87C283.191 1098.28 323.394 1080.69 336.089 1036.07C300.77 1035.26 273.1 1061.96 242.826 1073.85C175.279 1077.11 108.872 1066.85 83.8067 1025.65C62.6475 990.797 72.4132 936.241 90.1544 899.436C110.5 874.682 143.703 862.631 176.256 849.928C256.498 838.691 310.536 869.471 342.274 914.581C366.363 948.129 371.572 1000.89 394.196 1035.91C412.263 943.732 356.435 886.571 313.791 839.994C286.121 824.034 252.429 814.426 208.646 814.752C271.472 781.692 316.232 730.719 399.73 718.016C422.842 718.016 427.237 737.233 441.885 745.864C464.509 786.415 484.855 829.246 500.968 876.474C471.834 938.358 439.607 996.986 417.796 1066.2C409.333 1066.2 412.751 1053.98 401.357 1056.92L401.683 1056.75ZM439.444 1133.62C450.512 1123.69 469.555 1121.57 485.994 1117.01C648.106 1119.94 816.24 1116.68 971.679 1126.29C994.466 1156.42 982.584 1221.72 988.769 1268.79C975.097 1292.4 945.312 1286.54 916.503 1285.56C839.19 1282.63 748.206 1285.89 661.941 1282.14C576.165 1278.4 492.83 1279.54 432.933 1252.83C430.492 1217.33 423.819 1159.03 439.281 1133.62H439.444ZM521.965 1310.81C537.753 1308.53 555.494 1307.06 570.957 1310.48C575.026 1354.13 569.654 1407.38 578.606 1445.97C592.93 1410.64 584.303 1352.33 591.953 1310.32C606.602 1317.65 597.487 1350.54 596.999 1366.34C595.859 1394.84 596.348 1426.6 599.766 1450.37C611.973 1447.93 612.298 1429.85 613.6 1419.92C617.832 1386.21 615.716 1341.75 622.39 1310.15C654.454 1308.36 680.496 1312.43 711.095 1312.11C710.933 1366.99 710.933 1440.11 719.071 1494.34C651.687 1492.23 586.582 1494.02 522.941 1492.88C527.499 1438.16 519.035 1364.06 521.965 1310.64V1310.81ZM496.248 1317.97C496.248 1315.69 496.248 1313.25 496.248 1310.97C499.341 1310.97 502.433 1310.97 505.526 1310.97C513.013 1350.22 508.781 1408.36 510.897 1453.47C511.548 1466.82 518.221 1484.57 511.06 1493.2C493.97 1491.41 502.108 1468.77 501.619 1458.19C499.504 1417.96 494.132 1366.34 496.248 1317.97ZM490.063 1493.2C476.879 1470.08 480.46 1430.99 477.856 1397.44C476.717 1382.62 475.089 1354.29 472.81 1336.7C472.81 1329.7 472.81 1322.69 472.81 1315.69C472.81 1313.41 472.81 1310.97 472.81 1308.69C480.786 1307.55 485.994 1309.5 491.528 1310.97C483.878 1372.04 493.644 1434.74 490.063 1493.2ZM465.812 1308.69C463.858 1374.81 471.834 1430.99 473.787 1493.2C460.278 1491.41 453.767 1496.62 441.072 1495.65C437.654 1433.27 444.327 1366.99 435.538 1306.41C441.072 1303.8 456.697 1307.55 465.974 1308.69H465.812ZM1485.03 1534.89C1402.51 1532.45 1319.99 1535.22 1237.47 1536.2C1104.17 1537.82 965.982 1530.5 831.215 1531.31C729.488 1531.8 632.481 1531.47 529.94 1530.5C500.317 1530.17 465.649 1534.24 438.793 1519.26C438.142 1513.89 439.281 1510.47 443.35 1509.81C819.007 1521.86 1190.27 1522.52 1561.86 1530.01C1542.98 1544.5 1511.56 1535.87 1484.87 1535.06L1485.03 1534.89ZM1573.58 1508.84C1438 1511.28 1313.64 1502.16 1178.88 1503.79C1186.04 1450.53 1182.13 1386.04 1182.62 1326.28C1188.15 1326.28 1193.53 1326.28 1198.9 1326.28C1198.9 1376.27 1191.73 1449.39 1201.99 1487.5C1220.06 1449.23 1207.36 1381.97 1212.89 1326.28C1222.99 1326.28 1233.08 1326.28 1243.33 1326.28C1235.68 1370.74 1225.92 1429.53 1232.43 1473.5C1246.42 1456.4 1243.33 1427.25 1246.1 1401.03C1248.86 1375.13 1252.61 1347.94 1257.33 1326.28C1296.23 1326.11 1335.13 1325.95 1374.03 1325.63C1377.45 1366.01 1367.36 1420.08 1381.68 1449.39C1394.54 1419.43 1385.91 1368.29 1388.19 1327.91C1397.79 1326.6 1422.7 1328.56 1439.46 1327.58C1431.48 1377.25 1420.74 1442.72 1431 1495.81C1450.69 1451.02 1443.69 1379.86 1455.9 1327.42C1467.46 1333.12 1459.15 1354.45 1458.5 1371.88C1457.53 1397.61 1458.5 1427.08 1461.11 1441.9C1480.8 1419.59 1472.83 1369.92 1474.62 1329.7C1484.71 1329.7 1494.8 1329.7 1505.05 1329.7C1499.19 1379.2 1484.22 1440.76 1491.87 1488.64C1512.7 1448.09 1510.1 1384.25 1519.05 1331.98C1543.95 1331.16 1563.16 1335.89 1589.04 1333.93C1581.72 1390.28 1577.16 1449.23 1573.58 1509.16V1508.84ZM1479.17 1303.64C1355.31 1296.47 1209.8 1301.03 1091.47 1291.59C1061.85 1289.31 1033.69 1280.51 1012.04 1266.35C1011.07 1221.24 1018.39 1184.27 1020.67 1142.58C1039.23 1121.41 1082.36 1124.66 1118.65 1121.08C1237.31 1128.9 1373.05 1130.36 1496.92 1140.3C1535.49 1143.39 1580.09 1137.69 1602.06 1167.82C1595.71 1206.42 1600.76 1256.41 1593.43 1294.03C1563.97 1319.76 1519.38 1306.41 1479.01 1303.97L1479.17 1303.64ZM1594.74 1529.68C1604.83 1525.45 1623.06 1527.24 1639.01 1527.08C1652.84 1527.08 1673.68 1521.38 1676.44 1533.92C1659.52 1540.59 1618.01 1532.12 1594.74 1529.68ZM1854.34 1140.62C1840.83 1145.02 1824.23 1146.49 1805.35 1145.51C1766.61 1129.06 1738.62 1101.86 1716.16 1068.8C1704.44 1110.33 1738.13 1140.62 1761.08 1162.12C1708.83 1255.27 1700.86 1392.23 1676.44 1512.91C1653.49 1508.67 1622.73 1512.42 1599.29 1508.67C1629.73 1287.03 1614.43 1019.95 1736.34 888.85C1751.8 883.151 1764.82 875.171 1780.61 869.959C1947.61 850.417 1971.37 1086.07 1854.34 1140.62Z" fill="#111111"/>
<path d="M151.353 978.586C149.726 978.586 148.261 978.586 146.633 978.586C137.356 1009.37 183.581 1023.53 209.785 1010.99C197.415 992.917 164.212 996.011 151.353 978.586Z" fill="#111111"/>
<path d="M286.609 952.203C290.027 944.711 304.351 947.968 300.607 933.474C300.607 924.192 286.284 929.077 281.889 924.192C279.773 910.675 271.798 903.021 267.729 891.621C222.318 839.508 121.73 871.916 102.036 925.169C80.3886 1008.55 124.66 1056.43 212.39 1043.73C240.873 1034.77 263.497 1019.95 279.936 999.105C286.447 1001.55 295.236 1010.18 303.374 1003.66C304.513 979.725 279.773 982.005 286.772 952.366L286.609 952.203ZM261.056 980.376C246.57 1017.83 173.489 1034.44 135.077 1006.76C113.755 961.811 135.403 893.087 185.859 889.667C247.546 875.335 273.426 924.843 261.056 980.376Z" fill="#111111"/>
<path d="M1883.8 960.67C1854.51 896.831 1727.88 901.879 1727.55 984.772C1722.67 1050.73 1762.22 1071.9 1807.47 1087.21C1807.47 1098.12 1805.51 1110.98 1816.91 1110.5C1832.53 1096.65 1833.51 1067.99 1861.02 1065.87C1871.76 1063.59 1877.46 1074.02 1884.45 1067.99C1893.24 1054.8 1879.25 1047.47 1875.01 1039.98C1881.85 1030.37 1883.8 1016.2 1895.85 1011.81C1901.38 1006.11 1886.73 1000.73 1886.41 993.24C1886.08 979.561 1887.22 967.672 1883.97 960.507L1883.8 960.67ZM1811.86 1052.03C1783.38 1049.59 1765.47 1036.23 1753.27 1017.34C1748.71 985.098 1756.69 953.015 1780.94 942.43C1817.56 935.101 1854.83 947.478 1862.81 977.118C1861.18 1017.34 1844.42 1042.59 1811.86 1052.19V1052.03Z" fill="#111111"/>
<path d="M1832.53 974.84C1830.58 996.174 1826.51 1015.39 1818.86 1031.02C1839.69 1034.93 1858.09 997.802 1844.25 974.84C1840.35 974.84 1836.44 974.84 1832.53 974.84Z" fill="#111111"/>
<path d="M1571.14 553.371C1586.76 597.83 1593.6 651.246 1613.94 690.983C1610.69 639.032 1610.69 575.194 1571.14 553.371Z" fill="#111111"/>
<path d="M500.48 752.541C481.274 695.217 489.575 610.207 471.508 551.742C442.374 610.695 468.09 711.665 500.48 752.541Z" fill="#111111"/>
<path d="M939.778 808.727C928.221 817.358 918.456 828.107 902.505 834.621C886.717 841.135 865.883 838.366 853.513 851.232C894.692 857.746 936.685 845.369 944.335 811.007C943.847 809.215 942.382 808.238 939.615 808.727H939.778Z" fill="#111111"/>
<path d="M907.876 521.617C929.686 530.086 946.125 543.928 975.748 544.58C953.45 496.049 881.671 497.352 821.449 496.375C759.599 495.235 691.564 480.415 627.598 485.626C558.749 491.326 499.666 509.24 457.348 537.903C519.035 527.643 585.768 503.703 662.755 504.192C744.462 504.843 828.285 519.826 908.039 521.617H907.876Z" fill="#111111"/>
<path d="M936.522 647.664C927.896 671.278 921.223 720.46 930.012 745.865C943.847 720.786 946.451 676.164 943.521 647.664C941.243 647.664 938.801 647.664 936.522 647.664Z" fill="#111111"/>
<path d="M1132.33 560.211C1235.84 510.052 1391.77 511.843 1528.98 495.232C1504.4 474.061 1448.74 483.995 1405.28 481.878C1306.32 490.021 1215.99 506.632 1134.61 532.363C1131.51 537.086 1126.96 540.343 1120.61 541.808C1069.66 595.387 1031.41 685.609 1044.76 787.555C1054.69 692.774 1080.08 613.301 1132.33 560.537V560.211Z" fill="#111111"/>
<path d="M662.429 1382.62C659.988 1382.62 657.709 1382.62 655.431 1382.62C650.873 1405.59 652.826 1441.42 667.475 1452.65C673.172 1431.32 665.685 1402.82 662.429 1382.62Z" fill="#111111"/>
</g>
<defs>
<clipPath id="clip0_157_336">
<rect width="1918" height="1132" fill="white" transform="translate(41 434)"/>
</clipPath>
</defs>
</svg>
