<svg width="2000" height="2000" viewBox="0 0 2000 2000" fill="none" xmlns="http://www.w3.org/2000/svg">
<g clip-path="url(#clip0_157_337)">
<path d="M1420.7 725.604C1508.51 565.914 1452.57 254.75 1340.51 144.951C1295.6 106.682 1249.29 69.8153 1177.92 61.8008C1159.68 63.003 1141.64 64.0048 1123.39 65.207C1120.59 65.6077 1120.39 68.4128 1116.78 68.012C1002.31 80.0338 959.404 155.17 924.521 237.519C880.817 342.71 863.376 470.942 878.612 627.827C883.223 651.069 889.037 672.908 898.459 690.34C911.29 700.759 923.318 712.38 939.156 719.593C1001.1 715.786 1062.85 712.18 1114.77 719.793C1114.57 768.882 1104.75 809.556 1093.32 848.827C969.828 827.989 819.071 850.43 712.619 884.492C658.49 901.723 604.162 910.539 565.67 939.391C558.654 949.61 549.833 958.225 542.415 968.244C529.585 1007.31 537.002 1081.05 556.248 1113.31C664.505 1159.79 805.439 1169.41 928.731 1199.06C932.54 1227.51 923.719 1257.77 933.743 1278.61C943.967 1287.42 962.812 1286.02 973.437 1294.23C977.446 1381.39 980.053 1467.15 978.248 1549.1C889.638 1528.66 809.047 1499.61 714.222 1486.18C670.318 1491.39 674.528 1575.54 711.215 1582.16C708.409 1596.78 713.822 1607.8 718.232 1620.43C728.055 1627.84 739.081 1634.05 755.52 1634.05C774.966 1630.44 778.575 1612.81 790.002 1602.19C837.114 1613.41 888.235 1620.43 933.342 1634.05C818.069 1668.31 705.803 1705.38 612.982 1759.28C599.751 1777.71 604.763 1823.19 607.169 1848.44C613.183 1857.05 627.417 1856.25 637.641 1860.26C642.051 1881.1 654.08 1893.52 674.127 1896.73C707.607 1893.52 725.65 1867.07 715.626 1832.61C813.859 1796.95 901.867 1752.26 1002.51 1718.6C1016.14 1723.41 1029.77 1728.22 1050.82 1724.81C1078.29 1777.91 1118.18 1817.18 1146.65 1869.08C1145.44 1891.52 1145.04 1916.76 1157.27 1929.99C1172.31 1937 1194.76 1943.41 1209.8 1931.19C1224.03 1917.96 1218.22 1887.31 1233.65 1875.09C1231.85 1846.03 1238.47 1823.79 1235.66 1799.75C1214.21 1764.09 1179.93 1730.02 1163.09 1697.16C1208.79 1698.17 1264.13 1692.96 1312.84 1685.34C1322.66 1696.16 1326.27 1714 1346.52 1712.79C1368.37 1711.19 1373.59 1695.16 1376.19 1676.73C1385.41 1676.33 1394.03 1675.33 1393.83 1666.51C1400.85 1640.46 1405.26 1604.2 1390.83 1582.36C1326.27 1582.76 1226.24 1597.99 1154.27 1592.78C1168.1 1579.95 1184.34 1569.13 1197.57 1555.91C1202.98 1561.92 1207.79 1568.53 1221.02 1565.73C1241.47 1557.71 1229.24 1535.27 1234.26 1521.65C1237.86 1511.43 1253.5 1511.43 1253.3 1500.01C1250.89 1483.18 1255.71 1453.92 1251.5 1436.29C1242.47 1437.49 1243.88 1427.08 1235.06 1428.28C1173.91 1460.14 1123.59 1513.03 1076.28 1550.1C1079.29 1526.26 1072.67 1494 1082.9 1476.77C1079.89 1471.96 1072.87 1471.96 1075.08 1461.34C1071.47 1404.43 1074.28 1342.52 1066.46 1288.62C1106.15 1281.81 1093.52 1242.14 1097.73 1204.67C1245.68 1202.67 1346.52 1159.19 1404.26 1078.04C1428.52 1025.35 1409.87 942.797 1385.81 896.914C1349.53 869.264 1286.38 871.669 1233.25 863.253C1241.07 823.581 1237.26 774.092 1238.47 728.409C1288.58 741.833 1368.37 756.259 1420.7 726.005V725.604ZM566.472 989.682C657.889 1013.33 752.513 1025.55 852.751 1044.38C951.385 1062.81 1063.05 1048.99 1179.33 1050.99C1166.29 1059.41 1144.04 1060.01 1125.4 1063.62C913.896 1070.03 736.275 1038.17 564.868 998.899C564.868 997.497 564.868 995.894 564.467 994.291C563.866 991.686 564.668 990.284 566.472 989.682ZM953.79 1199.86C958.401 1199.66 962.812 1199.26 967.423 1199.06C968.024 1208.88 968.626 1218.7 969.227 1228.52C964.616 1228.92 960.206 1229.12 955.595 1229.32C954.993 1219.5 954.392 1209.68 953.79 1199.86ZM782.585 1518.44C805.038 1523.05 825.887 1529.26 845.333 1537.27C889.438 1546.29 928.33 1561.52 970.63 1572.54C955.795 1574.94 934.144 1563.32 912.693 1558.11C890.24 1552.5 866.985 1548.5 847.739 1541.68C804.637 1531.46 759.73 1523.25 722.442 1506.42C739.883 1498 764.341 1512.83 782.585 1518.44ZM741.688 1591.77C744.294 1585.76 751.912 1594.38 757.726 1592.98C755.32 1604 745.898 1597.78 741.688 1591.77ZM707.807 1559.72C707.005 1547.69 706.203 1535.47 705.602 1523.45C789 1544.89 867.586 1571.54 955.996 1587.37C955.595 1595.58 953.991 1602.79 952.988 1610.41C873.801 1590.77 789.2 1577.15 708.008 1559.92L707.807 1559.72ZM629.421 1833.61C616.591 1829.6 620.801 1800.15 624.41 1790.73C635.436 1793.74 635.436 1826.2 629.421 1833.61ZM627.818 1772.3C663.101 1743.25 714.423 1728.42 762.938 1711.39C720.237 1733.83 669.917 1749.46 627.818 1772.3ZM675.13 1869.68C668.715 1866.47 660.495 1865.07 660.495 1854.65C669.516 1851.04 679.34 1848.44 687.158 1843.83C698.184 1849.24 677.736 1862.06 675.13 1869.68ZM994.487 1692.16C882.02 1738.24 763.539 1778.91 646.863 1821.39C646.261 1811.57 645.66 1801.75 645.059 1791.94C759.329 1743.85 857.963 1682.14 989.475 1649.28C1001.9 1656.69 989.876 1677.53 994.487 1692.36V1692.16ZM1040.4 1696.16C1032.78 1697.37 1027.57 1700.57 1017.74 1699.97C1024.16 1686.14 1020.55 1654.89 1016.14 1638.46C1021.55 1636.86 1031.37 1637.46 1041 1634.65C1036.79 1651.48 1035.99 1678.53 1040.4 1696.16ZM1064.05 1710.59C1064.25 1695.56 1063.65 1676.93 1062.85 1655.89C1109.16 1704.78 1143.04 1767.69 1185.14 1821.39C1181.53 1835.42 1183.13 1853.85 1181.33 1869.48C1140.43 1818.58 1105.15 1761.28 1064.05 1710.59ZM1184.14 1912.56C1176.32 1906.74 1167.3 1902.34 1166.7 1888.51C1177.72 1890.52 1180.73 1901.74 1194.76 1900.33C1194.16 1906.94 1190.55 1910.95 1184.14 1912.35V1912.56ZM1206.59 1870.08C1201.98 1863.07 1201.38 1841.43 1204.18 1833.81C1214.41 1837.82 1206.39 1860.66 1206.59 1870.08ZM1183.94 1764.49C1194.36 1777.91 1215.01 1792.14 1209.8 1810.77C1190.55 1813.98 1185.34 1784.52 1173.11 1772.1C1160.68 1758.68 1153.86 1738.84 1140.63 1726.42C1121.59 1692.96 1096.93 1665.71 1073.27 1637.26C1071.87 1635.45 1070.67 1633.65 1070.67 1630.64C1072.27 1630.64 1073.67 1630.64 1075.28 1630.24C1119.78 1661.3 1148.85 1718.6 1184.14 1764.69L1183.94 1764.49ZM1368.37 1652.48C1298.81 1664.1 1226.84 1673.72 1151.26 1679.93C1135.42 1670.12 1129.41 1649.68 1114.37 1638.86C1194.36 1634.05 1286.18 1636.86 1373.79 1631.45C1371.38 1637.86 1367.97 1643.27 1368.37 1652.28V1652.48ZM1369.38 1597.78C1376.59 1595.38 1372.98 1605 1376.79 1606.4C1353.34 1622.03 1319.46 1616.02 1288.58 1616.62C1237.06 1617.62 1181.53 1620.43 1127 1620.03C1204.79 1609.21 1295.6 1615.22 1369.58 1597.78H1369.38ZM1228.24 1495C1183.13 1523.85 1162.49 1574.34 1106.75 1593.78C1106.35 1590.17 1107.35 1585.16 1103.95 1584.76C1118.58 1561.32 1146.25 1549.1 1164.29 1528.46C1184.74 1510.83 1205.39 1493.2 1224.83 1474.56C1230.05 1476.56 1226.64 1488.79 1228.44 1494.8L1228.24 1495ZM1175.52 1491.59C1170.91 1505.42 1147.05 1520.85 1135.02 1535.27C1119.18 1546.09 1107.15 1570.13 1087.11 1570.13C1112.97 1540.68 1147.05 1518.64 1175.52 1491.59ZM1079.29 1591.17C1067.06 1616.82 995.289 1620.02 981.656 1597.38C1005.31 1601.39 1051.82 1608.4 1079.29 1591.17ZM1050.02 1524.65C1035.38 1520.44 1022.55 1528.46 1006.72 1525.05C1006.31 1517.44 1005.71 1510.03 1005.31 1502.41C1016.94 1503.01 1034.58 1509.62 1046.41 1502.01C1051.82 1504.82 1048.21 1517.84 1050.02 1524.65ZM1008.12 1547.89C1022.15 1546.89 1037.19 1551.9 1046.61 1543.09C1055.23 1543.49 1048.62 1563.92 1048.41 1570.33C1032.98 1570.33 1023.96 1575.95 1010.12 1577.35C1007.52 1572.94 1010.52 1558.51 1008.32 1547.89H1008.12ZM1006.52 1486.38C1006.11 1479.57 1005.71 1472.76 1005.31 1465.95C1017.54 1468.95 1037.19 1463.94 1048.82 1467.75C1054.83 1491.59 1023.76 1482.98 1006.72 1486.38H1006.52ZM1045.01 1447.51C1031.37 1449.12 1014.33 1447.51 1004.31 1452.52C1003.71 1444.11 1003.31 1435.89 1002.71 1427.48C1016.54 1428.08 1029.97 1429.08 1046.01 1427.08C1046.01 1434.29 1048.62 1443.71 1045.01 1447.71V1447.51ZM998.296 1322.89C1010.52 1326.69 1026.76 1326.29 1044 1324.49C1044.2 1329.1 1044.61 1333.51 1044.81 1338.11C1024.96 1338.11 1000.5 1342.92 998.296 1322.89ZM1044.81 1372.38C1028.57 1374.58 1018.94 1369.17 1003.71 1370.37C1003.31 1365.16 1003.11 1359.75 1002.71 1354.54C1016.94 1355.55 1026.96 1361.16 1044 1358.75C1044.41 1363.36 1044.61 1367.77 1044.81 1372.38ZM1046.01 1392.81C1046.41 1398.22 1042.6 1399.83 1044.61 1406.64C1033.98 1411.65 1014.94 1409.04 1003.91 1413.85C1001.1 1409.84 1004.51 1396.82 1002.1 1386.6C1015.94 1389.41 1031.37 1390.61 1045.81 1393.01L1046.01 1392.81ZM997.294 1307.06C998.496 1300.04 992.883 1300.65 994.086 1293.63C1004.51 1292.23 1031.98 1290.83 1046.41 1292.63C1048.62 1314.67 1012.53 1307.06 997.093 1307.26L997.294 1307.06ZM957.8 1259.37C957.399 1254.76 957.198 1250.35 956.798 1245.75C988.874 1249.55 1035.58 1258.57 1068.46 1245.55C1058.64 1266.98 987.47 1260.57 957.599 1259.37H957.8ZM1074.28 1226.91C1045.01 1235.33 1016.14 1232.32 985.465 1230.32C984.864 1220.5 984.263 1210.68 983.661 1200.87C1011.13 1206.07 1046.01 1203.07 1075.28 1206.48C1077.68 1215.69 1072.47 1218.3 1074.28 1227.11V1226.91ZM624.61 1114.11C602.357 1100.48 576.496 1090.87 564.467 1065.42C564.467 1048.19 558.854 1026.35 565.871 1015.13C745.697 1058.41 936.951 1088.66 1164.89 1077.44C1179.73 1076.04 1190.15 1071.03 1200.58 1066.02C1210.2 1097.28 1222.23 1125.73 1223.03 1167.2C990.878 1196.26 814.46 1141.16 624.41 1114.11H624.61ZM1226.64 1078.04C1221.42 1073.43 1219.42 1065.22 1216.21 1058.21C1223.23 1059.41 1222.63 1053.8 1229.64 1055C1228.44 1062.61 1226.84 1069.83 1226.64 1078.04ZM1385.21 1061.21C1345.32 1094.67 1300.01 1134.75 1249.69 1151.78C1247.49 1114.91 1243.28 1076.04 1247.49 1044.78C1289.79 1019.94 1345.12 1006.51 1382.21 977.06C1396.44 999.901 1384.81 1036.37 1385.21 1061.21ZM1347.52 970.247C1334.49 978.663 1318.45 984.673 1305.62 993.489C1299.21 989.883 1314.04 986.877 1314.04 981.468C1347.92 979.063 1360.96 947.005 1382.21 940.593C1381 959.628 1359.75 960.83 1347.52 970.247ZM1352.94 910.739C1361.16 918.954 1336.3 934.382 1329.88 944C1272.75 963.034 1242.07 1005.31 1177.32 1017.53C958.401 1032.76 775.969 1008.72 602.157 974.254C603.761 962.032 607.77 952.014 611.579 941.796C699.588 924.364 774.365 892.106 872.197 879.683C979.852 865.858 1073.27 878.681 1169.1 888.098C1234.05 894.51 1298.01 895.311 1352.94 910.539V910.739ZM1141.03 735.021C1137.83 732.416 1138.23 725.404 1137.83 719.393C1153.86 727.808 1192.16 711.178 1193.56 736.423C1177.32 734.42 1161.48 732.216 1141.03 735.221V735.021ZM1192.96 761.469C1180.53 763.873 1157.07 758.664 1140.23 757.862C1140.23 754.055 1139.83 750.248 1139.63 746.642C1160.88 747.644 1187.34 742.835 1192.96 761.469ZM1139.03 773.891C1154.47 779.101 1174.71 778.9 1191.96 781.906C1192.36 787.316 1188.35 788.919 1190.55 795.731C1175.52 789.119 1153.86 790.321 1137.43 785.512C1135.22 779.301 1140.23 779.501 1139.03 773.891ZM1189.15 809.556C1186.74 815.367 1186.74 823.181 1185.94 830.193C1165.89 829.392 1146.25 828.19 1130.81 822.379C1128.81 788.318 1167.1 813.764 1189.35 809.556H1189.15ZM1180.33 848.827C1180.53 852.634 1180.73 856.441 1180.93 860.248C1158.68 859.647 1138.43 856.441 1118.98 852.834C1119.58 848.426 1123.59 846.824 1122.79 841.213C1140.83 845.02 1157.87 850.029 1180.33 849.028V848.827ZM1205.39 812.962C1208.59 812.962 1211.8 812.962 1212.2 810.357C1217.21 810.958 1213.81 821.578 1215.41 826.186C1211.2 827.388 1210 831.396 1204.38 831.396C1203.38 824.183 1207.79 821.578 1205.39 813.163V812.962ZM1210.4 748.846C1212.6 748.846 1215.01 748.445 1217.21 748.445C1217.42 752.252 1217.62 756.059 1218.02 759.666C1215.01 759.666 1212 760.066 1209 760.267C1207.79 755.057 1208.79 751.451 1210.6 748.846H1210.4ZM1209 726.205C1212 726.205 1215.01 725.804 1218.02 725.604C1218.02 727.207 1218.02 728.609 1218.22 730.212C1215.21 730.212 1212.2 730.613 1209.2 730.813C1209.2 729.411 1209.2 727.808 1209 726.205ZM1214.21 771.487C1221.42 771.086 1220.62 797.534 1208.79 794.729C1207.39 784.11 1208.79 776.095 1214.21 771.487ZM1212.4 851.432C1212.6 855.239 1212.8 859.046 1213.21 862.853C1208.59 863.253 1204.18 863.454 1199.57 863.654C1199.57 860.649 1199.17 857.643 1198.97 854.638C1205.99 855.84 1205.39 850.23 1212.6 851.432H1212.4ZM935.347 691.342C915.901 666.296 906.478 629.83 903.872 590.759C894.45 444.895 918.106 289.213 974.64 196.445C999.9 175.607 1019.35 131.928 1056.03 113.695C1083.3 100.271 1127.8 94.46 1159.68 93.4582C1194.56 92.4563 1226.04 108.085 1252.5 117.301C1373.39 181.818 1426.91 342.71 1438.34 529.448C1442.55 598.974 1434.73 676.916 1390.63 710.376C1471.82 548.082 1386.02 285.406 1283.77 177.01C1268.54 160.78 1246.89 139.542 1230.85 132.529C1231.25 130.525 1229.84 130.525 1228.44 130.325C1226.64 129.924 1226.04 128.121 1223.83 128.321C1314.24 216.08 1397.04 344.513 1397.64 529.849C1397.84 605.386 1378 662.69 1345.52 713.181C1313.04 715.986 1282.97 702.963 1251.1 698.755C1154.27 685.732 1050.02 686.733 935.948 691.342H935.347Z" fill="#111111"/>
<path d="M827.09 927.568C845.734 924.162 868.388 926.967 878.612 912.941C837.916 916.348 793.21 916.147 772.962 937.786C790.604 938.387 809.248 930.774 827.09 927.568Z" fill="#111111"/>
<path d="M990.878 203.655C943.366 309.647 897.657 463.726 915.099 625.62C917.304 645.456 923.318 660.082 934.144 674.508C947.576 648.06 936.951 601.376 936.349 564.91C934.144 441.887 955.595 338.9 989.074 247.134C995.489 214.875 1025.56 192.234 1034.18 168.992C1032.58 168.992 1031.17 168.992 1029.57 169.193C1013.33 177.808 1003.11 191.633 990.678 203.455L990.878 203.655Z" fill="#111111"/>
</g>
<defs>
<clipPath id="clip0_157_337">
<rect width="928" height="1876" fill="white" transform="translate(536 62)"/>
</clipPath>
</defs>
</svg>
