<svg width="2000" height="2000" viewBox="0 0 2000 2000" fill="none" xmlns="http://www.w3.org/2000/svg">
<g clip-path="url(#clip0_157_340)">
<path d="M595.662 1370.8C669.31 1372.49 741.163 1362.63 812.169 1347.22C843.98 1342.99 875.655 1333.85 907.567 1329.44C945.102 1324.26 982.841 1320.54 1020.55 1316.91C1095.11 1309.77 1168.86 1300.35 1242.85 1288.63C1391.3 1265.16 1543.03 1242.88 1686.23 1195.77C1719.36 1184.86 1755.98 1173.14 1785.93 1155.09C1797.62 1148.08 1815.54 1136.53 1826.01 1108.42C1862.52 1010.64 1768.18 957.639 1667.43 925.261C1525.75 879.708 1491.64 857.525 1328.15 859.828C1308.16 742.271 1213.78 658.719 1097.51 635.993C1036.98 624.173 971.628 627.221 910.65 634.164C847.638 641.344 782.459 656.822 729.509 693.129C681.878 725.811 640.176 788.806 630.724 848.245C609.619 848.855 498.401 865.416 473.806 870.496C421.229 881.233 370.143 898.37 323.121 924.347C259.128 959.705 170.336 1017.04 166.136 1098.73C164.001 1140.29 189.274 1179.31 215.393 1209.55C244.493 1243.32 280.741 1271.06 318.955 1293.75C403.376 1343.87 497.689 1368.6 595.662 1370.83V1370.8ZM1674.81 1178.22C1606.38 1199.97 1535.54 1215.55 1465.22 1229.63C1323.78 1257.88 1180.31 1281.35 1036.74 1295.2C996.324 1299.1 955.875 1302.86 915.629 1308.11C909.565 1308.92 903.501 1309.73 897.471 1310.55C901.537 1307.53 966.919 1261.34 996.799 1240.27C1057 1197.83 1122.04 1162.1 1190.34 1134.6C1336.69 1075.7 1497.74 1053.49 1649.13 1106.66C1670.68 1114.25 1692.09 1121.9 1713.8 1128.98C1730.51 1134.43 1747.44 1141.27 1765.06 1143.1C1736.3 1157.16 1705.23 1168.5 1674.85 1178.15L1674.81 1178.22ZM1326.69 958.181C1326.66 958.52 1326.69 958.892 1326.62 959.197C1324.46 997.197 1306.6 1022.19 1272.05 1037.53C1199.89 1069.54 1118.93 1077.26 1041.14 1083.87C955.706 1091.08 869.252 1094.09 783.95 1083.76C750.005 1079.67 714.942 1074.35 682.963 1061.68C665.922 1054.94 649.221 1045.8 637.533 1031.27C637.195 1030.83 636.89 1030.42 636.551 1029.98C623.746 995.267 625.168 955.133 628.996 918.996C629.505 914.491 630.047 909.987 630.589 905.414C647.968 951.035 728.053 968.138 775.514 974.201C887.884 988.561 1006.32 982.6 1117.77 966.377C1165.74 959.434 1215.61 955.268 1259.75 933.796C1279.6 924.144 1312.09 906.227 1320.56 882.452C1327.81 918.454 1327.23 946.937 1326.73 958.113L1326.69 958.181ZM638.448 865.992C659.045 812.48 682.048 756.665 728.087 719.309C773.956 682.054 835.375 666.034 892.729 657.466C1002.32 641.073 1129.36 639.244 1219.2 712.501C1275.47 758.427 1302.67 814.241 1315.61 861.555C1310.3 903.856 1255.58 926.785 1219.2 937.42C1180.85 948.596 1138.91 951.915 1099.38 957.334C1040.91 965.327 982.57 968.579 923.624 968.985C846.182 969.561 759.66 970.949 686.926 940.874C664.906 931.73 647.866 918.149 639.498 900.436C636.754 894.543 634.925 888.108 634.214 881.266C634.925 876.931 635.738 872.63 636.585 868.329C637.398 867.821 638.109 867.076 638.448 865.992ZM202.587 1157.22C175.892 1109.71 186.529 1065.04 221.626 1025.21C251.641 991.101 290.6 965.056 329.965 943.008C380.611 914.593 435.525 897.388 492.201 885.534C517.236 880.284 609.009 870.733 627.438 860.302C626.964 862.097 626.49 863.858 626.083 865.721C621.577 883.637 618.495 902.265 616.462 921.773C613.752 948.224 609.991 985.682 618.867 1015.49C620.527 1026.32 624.592 1036.62 633.333 1046.17C651.016 1065.37 677.745 1075.57 702.272 1082.58C771.009 1102.19 845.741 1104.63 916.781 1103.58C990.362 1102.49 1064.76 1096.94 1137.59 1086.24C1172.62 1081.09 1207.41 1073.74 1241.05 1062.49C1267.88 1053.55 1297.59 1043.49 1316.5 1021.28C1331.54 1003.56 1336.45 981.211 1337.63 958.723C1337.91 954.456 1337.97 950.154 1338.01 945.921C1338.04 922.823 1335.84 899.758 1331.16 877.202C1428.32 857.017 1707.27 952.051 1747.28 977.046C1778.98 996.825 1806.66 1032.18 1810.18 1071.4C1811.1 1081.77 1810.32 1092.27 1808.29 1102.73C1807.98 1103.64 1807.64 1104.49 1807.24 1105.34C1803.38 1113.77 1796.84 1121.32 1789.35 1127.69C1765.5 1136.73 1731.69 1122.14 1706.62 1113.97C1671.97 1102.63 1638.19 1088.57 1602.82 1079.77C1536.53 1063.17 1467.52 1061.17 1399.83 1069C1269.54 1084.07 1142.47 1134.6 1032.2 1204.57C1000.36 1224.83 970.307 1247.62 939.479 1269.4C920.88 1282.5 902.079 1295.58 881.617 1305.67C876.806 1308.07 871.183 1311.12 865.187 1314.24C864.103 1314.51 863.052 1314.85 861.968 1315.12C809.696 1328.67 756.442 1339.16 702.781 1345.16C601.929 1356.37 497.689 1350.65 402.766 1312.58C325.764 1281.62 244.324 1231.5 202.587 1157.22Z" fill="black"/>
<path d="M1199.28 901.145C1200.74 905.785 1208.19 904.126 1206.67 899.621C1204.9 894.541 1203.28 889.359 1201.72 884.211C1207.01 882.145 1212.19 878.521 1217.17 875.812C1222.28 872.967 1227.37 869.851 1232.21 866.532C1232.21 866.498 1232.21 866.43 1232.14 866.464C1226.38 870.393 1220.18 872.019 1213.51 873.576C1208.97 874.626 1203.82 874.999 1199.52 876.896C1196.84 867.853 1194.27 858.674 1191.46 849.632C1191.62 849.632 1191.76 849.632 1191.9 849.632C1206.8 845.872 1219.4 837.473 1231.74 828.769C1233.06 827.821 1231.53 825.585 1230.14 826.398C1217.41 833.781 1202.3 835.475 1189.08 841.673C1188.98 841.673 1188.98 841.774 1188.88 841.808C1184.38 828.159 1179.16 814.849 1171.98 802.318C1171.2 800.929 1169.1 801.979 1169.77 803.469C1184.04 834.899 1189.05 868.429 1199.25 901.179L1199.28 901.145Z" fill="black"/>
<path d="M1146.67 851.664C1142.37 851.697 1138.51 853.865 1134.34 855.491C1126.51 858.539 1118.28 860.232 1110.29 862.569C1109.3 862.874 1109.58 864.263 1110.63 864.161C1122.69 862.738 1137.49 863.585 1148.84 858.471C1151.55 867.717 1153.48 877.234 1155.14 886.819C1141.83 893.457 1127.19 897.081 1112.56 899.316C1127.33 897.115 1142.33 900.332 1156.43 894.676C1157.27 900.366 1158.15 906.022 1158.93 911.678C1159.51 915.573 1165.47 914.32 1164.93 910.459C1160.39 877.099 1152.97 840.995 1130.14 814.984C1129.26 813.968 1127.8 815.323 1128.61 816.373C1136.88 827.245 1142.57 839.2 1146.74 851.63L1146.67 851.664Z" fill="black"/>
<path d="M818.098 731.908C866.542 747.758 922.981 742.102 972.916 738.986C1022.34 735.871 1074.99 735.159 1122.04 718.124C1135.46 713.281 1173.06 695.432 1146.37 680.869C1142.91 679.006 1139.76 683.578 1142.98 686.017C1160.53 699.259 1087.89 717.582 1084.03 718.327C1046.39 725.879 1007.78 728.42 969.528 730.723C932.738 732.958 895.642 733.872 858.92 730.282C841.88 728.623 775.142 721.985 804.242 691.571C804.31 691.571 804.242 691.503 804.242 691.503C780.461 708.776 795.536 724.525 818.132 731.908H818.098Z" fill="black"/>
<path d="M887.715 834.394C875.112 836.697 862.341 833.683 849.535 834.563C847.198 826.367 845.775 817.629 845.673 808.925C846.012 808.959 846.249 809.094 846.588 809.094C862.781 809.094 881.854 808.925 895.845 799.815C896.048 799.645 895.845 799.273 895.574 799.476C890.188 803.235 878.839 801.372 872.47 801.237C864.035 801 855.599 800.492 847.198 800.221C846.757 800.221 846.419 800.356 846.046 800.424C846.927 790.162 849.705 780.34 854.922 772.178C855.633 771.027 853.905 769.807 853.126 770.993C840.761 789.857 835.612 815.868 841.168 838.56C841.066 839.711 841.337 840.998 842.082 841.777C843.912 847.907 846.486 853.767 850.01 859.118C853.228 864.029 861.494 860.066 858.276 854.918C855.972 851.057 853.939 846.824 852.178 842.319C864.373 841.472 876.129 840.084 888.223 836.799C889.747 836.358 889.307 834.055 887.681 834.394H887.715Z" fill="black"/>
<path d="M741.332 849.903C741.773 845.195 742.213 840.217 742.62 835.17C755.798 839.133 769.552 837.677 783.17 838.964C788.353 839.438 797.534 842.012 802.48 838.523C803.022 844.382 804.005 850.309 805.428 856.236C806.579 861.046 813.998 859.589 812.982 854.712C807.155 825.111 807.02 798.457 821.146 770.956C821.655 769.872 820.198 768.823 819.486 769.906C812.914 780.134 808.239 790.803 805.394 801.81C794.96 801.505 784.966 804.655 774.464 804.012C765.283 803.436 756.238 801.404 747.125 800.625C749.971 788.094 754.68 776.409 763.217 767.502C764.402 766.249 762.675 764.25 761.354 765.47C738.995 786.569 733.066 819.693 731.745 849.259C731.474 855.423 740.689 855.999 741.332 849.903ZM775.819 810.684C784.796 811.564 794.926 813.495 803.564 810.142C802.379 817.051 801.904 824.095 802.074 831.174C801.599 831.072 801.091 831.038 800.583 831.14C793.672 832.698 786.626 831.513 779.681 831.411C767.282 831.242 755.29 832.529 742.958 830.666C743.67 822.233 744.551 813.529 746.143 805.095C755.493 808.414 766.13 809.735 775.785 810.717L775.819 810.684Z" fill="black"/>
<path d="M556.262 1287.25C563.512 1280.17 570.83 1272.55 577.944 1264.55C578.215 1264.66 578.52 1264.79 578.858 1264.82C611.346 1267.64 642.039 1276.61 675.001 1270.65C676.356 1270.38 676.119 1268.48 674.832 1268.31C655.42 1266.04 635.907 1264.66 616.496 1262.12C605.723 1260.69 594.306 1257.1 583.33 1258.29C593.019 1246.81 602.166 1234.65 610.127 1221.98C610.364 1222.08 610.499 1222.25 610.77 1222.32C625.744 1225.81 640.345 1227.1 655.217 1222.32C655.793 1222.12 655.827 1221.24 655.115 1221.2C641.294 1220.36 627.404 1218.73 613.819 1215.99C619.07 1207.08 623.644 1197.97 627.37 1188.79C627.709 1187.94 626.388 1187.5 626.015 1188.35C609.957 1222.76 578.994 1256.39 551.689 1282.17C548.505 1285.21 553.112 1290.36 556.262 1287.28V1287.25Z" fill="black"/>
<path d="M706.236 849.94C710.369 819.12 723.886 774.719 745.737 751.248C746.854 750.097 745.364 748.369 744.11 749.419C716.467 771.942 699.325 814.615 697.191 849.364C696.852 855.257 705.491 855.698 706.236 849.974V849.94Z" fill="black"/>
<path d="M744.347 733.227C744.822 733.328 745.059 732.651 744.585 732.549C744.11 732.448 743.873 733.125 744.347 733.227Z" fill="black"/>
<path d="M522.521 1255.2C542.712 1234.71 559.549 1212.19 577.775 1190.04C578.283 1189.46 577.266 1188.82 576.792 1189.4C558.634 1210.63 538.105 1230.72 517.609 1249.72C514.086 1253 519.201 1258.62 522.521 1255.2Z" fill="black"/>
<path d="M440.776 1061.44C430.41 1064.05 420.247 1067.98 410.253 1071.74C384.845 1081.39 360.217 1093.08 335.554 1104.39C330.879 1106.56 334.538 1113.87 339.145 1111.5C348.665 1106.66 358.218 1101.81 367.805 1097.04C371.837 1108.59 381.966 1118.07 394.026 1120.68C394.06 1120.68 394.094 1120.61 394.026 1120.61C384.439 1118.58 379.052 1103.17 376.308 1094.87C376.105 1094.26 375.766 1093.69 375.36 1093.25C388.199 1086.95 401.14 1080.78 414.284 1075.02C414.488 1080.24 418.316 1085.63 421.331 1089.49C424.448 1093.48 429.021 1097.78 433.73 1099.88C433.764 1099.88 433.798 1099.82 433.73 1099.82C428.987 1097.72 427.564 1089.86 426.175 1085.35C424.752 1080.88 424.38 1076.04 422.788 1071.57C422.788 1071.5 422.72 1071.47 422.686 1071.4C439.387 1065.03 460.527 1061.99 474.213 1050.47C474.213 1050.47 474.213 1050.4 474.145 1050.4C464.151 1058.36 452.362 1058.56 440.708 1061.44H440.776Z" fill="black"/>
<path d="M417.164 1040.18C418.146 1040.18 419.061 1039.87 419.671 1039.26C432.646 1034.59 445.655 1029.95 458.731 1025.51C466.353 1022.94 472.485 1021.72 478.583 1016.81C478.786 1016.64 478.515 1016.33 478.312 1016.47C468.386 1024.5 450.296 1025.38 438.269 1029C432.205 1030.86 426.175 1032.79 420.145 1034.76C417.842 1026.09 416.825 1017.42 418.621 1008.54C418.688 1008.24 418.282 1008.07 418.18 1008.41C415.402 1018.4 410.05 1026.53 413.336 1036.99C408.051 1038.76 402.834 1040.45 397.583 1042.21C387.589 1045.6 377.731 1049.05 367.839 1052.64C365.4 1038.31 366.924 1022.57 375.97 1010.68C376.275 1010.27 375.699 1009.76 375.326 1010.07C362.656 1020.7 355.982 1038.21 359.81 1054.54C359.912 1054.91 360.047 1055.18 360.217 1055.42C346.226 1060.67 332.37 1066.15 318.718 1072.18C314.889 1073.88 317.837 1079.77 321.699 1078.04C350.799 1065 380.408 1053.42 410.355 1042.58C412.625 1041.74 414.928 1040.99 417.198 1040.14L417.164 1040.18Z" fill="black"/>
</g>
<defs>
<clipPath id="clip0_157_340">
<rect width="1668" height="743" fill="white" transform="translate(166 628)"/>
</clipPath>
</defs>
</svg>
