<svg width="2000" height="2000" viewBox="0 0 2000 2000" fill="none" xmlns="http://www.w3.org/2000/svg">
<g clip-path="url(#clip0_157_341)">
<path d="M375.93 1087C377.009 1074.16 376.73 1061.08 376.809 1048.2C376.889 1035.6 377.009 1023 377.009 1010.4C376.969 984.838 377.009 959.318 376.61 933.758C376.49 926.478 376.33 919.158 376.09 911.878C375.891 904.598 375.97 897.238 375.251 889.998C375.091 888.318 372.814 888.318 372.614 889.998C371.216 902.798 371.376 915.918 370.936 928.798C370.496 941.398 370.337 953.998 370.097 966.598C369.657 992.158 369.378 1017.68 369.218 1043.24C369.138 1057.8 368.539 1072.52 369.577 1087.04C369.897 1091.16 375.611 1091.12 375.93 1087.04V1087Z" fill="#231F20"/>
<path d="M646.631 1096.76C637.241 1095 627.372 1095.12 617.863 1095.56C612.988 1095.8 608.114 1096.08 603.279 1096.72C598.684 1097.32 593.809 1097.84 589.454 1099.52C588.695 1099.8 588.455 1101.16 589.454 1101.28C593.969 1102 598.724 1101.68 603.279 1101.64C607.994 1101.6 612.669 1101.44 617.383 1101.36C626.933 1101.2 636.602 1101.56 646.112 1100.68C648.189 1100.48 649.068 1097.16 646.631 1096.72V1096.76Z" fill="#231F20"/>
<path d="M646.631 1114.48C637.241 1112.72 627.372 1112.84 617.863 1113.28C612.988 1113.48 608.114 1113.8 603.279 1114.44C598.684 1115.04 593.809 1115.56 589.454 1117.24C588.695 1117.52 588.455 1118.88 589.454 1119C593.969 1119.72 598.724 1119.4 603.279 1119.36C607.994 1119.32 612.669 1119.16 617.383 1119.08C626.933 1118.92 636.602 1119.28 646.112 1118.4C648.189 1118.2 649.068 1114.88 646.631 1114.44V1114.48Z" fill="#231F20"/>
<path d="M646.631 1132.2C637.241 1130.44 627.372 1130.56 617.863 1131C612.988 1131.24 608.114 1131.52 603.279 1132.16C598.684 1132.76 593.809 1133.28 589.454 1134.96C588.695 1135.24 588.455 1136.6 589.454 1136.72C593.969 1137.44 598.724 1137.12 603.279 1137.08C607.994 1137.04 612.669 1136.88 617.383 1136.8C626.933 1136.64 636.602 1137 646.112 1136.12C648.189 1135.92 649.068 1132.6 646.631 1132.16V1132.2Z" fill="#231F20"/>
<path d="M593.091 923.401C591.053 923.601 590.973 926.561 593.091 926.601C602.72 926.921 612.349 927.761 621.979 927.841C631.408 927.921 641.038 928.721 650.387 927.321C652.345 927.041 652.145 924.001 650.387 923.561C641.197 921.321 631.408 921.641 621.979 921.521C612.309 921.401 602.68 922.481 593.091 923.361V923.401Z" fill="#231F20"/>
<path d="M645.512 945.36C640.997 944.72 636.202 945.2 631.647 945.12C627.092 945.04 622.537 944.76 617.983 944.6C613.428 944.4 608.873 944.12 604.358 944C602.799 944 594.968 943.04 595.767 946.36C595.767 946.48 595.807 946.6 595.847 946.72C596.007 947.4 596.606 947.92 597.245 948.12C604.957 950.32 613.308 950.84 621.299 951C625.374 951.08 629.49 951.04 633.565 951C637.481 950.92 641.716 951.12 645.552 950.28C647.869 949.76 648.029 945.76 645.552 945.44L645.512 945.36Z" fill="#231F20"/>
<path d="M797.545 1107.76C800.261 1108.8 803.698 1107.64 805.496 1105.4C806.535 1104.12 807.214 1102.52 807.014 1100.84C806.854 1099.2 806.135 1097.68 804.936 1096.52C803.578 1095.24 801.94 1094.56 800.142 1094.36C798.304 1094.12 796.546 1094.76 795.147 1095.96C794.508 1096.52 794.388 1097.4 794.548 1098.16C794.148 1098.84 793.829 1099.56 793.709 1100.28C793.389 1101.84 793.509 1103.32 794.148 1104.76C794.788 1106.24 796.106 1107.24 797.584 1107.8L797.545 1107.76ZM801.46 1099.84C801.46 1099.84 801.78 1100.16 801.94 1100.32C801.98 1100.4 802.06 1100.48 802.099 1100.56C802.099 1100.64 802.179 1100.68 802.219 1100.76C802.259 1100.88 802.299 1101 802.299 1101.12C802.299 1101.28 802.299 1101.44 802.299 1101.56C802.299 1101.68 802.259 1101.8 802.219 1101.92C802.179 1102 802.139 1102.08 802.099 1102.16C802.06 1102.24 802.02 1102.28 801.98 1102.36C801.82 1102.52 801.66 1102.68 801.5 1102.84C801.42 1102.88 801.34 1102.96 801.26 1103C801.141 1103.08 801.021 1103.12 800.901 1103.2C800.901 1103.2 800.861 1103.2 800.821 1103.24C800.741 1103.24 800.701 1103.28 800.661 1103.28C800.541 1103.32 800.421 1103.36 800.301 1103.4C800.142 1103.44 799.942 1103.48 799.782 1103.52C799.702 1103.52 799.582 1103.52 799.502 1103.52C799.422 1103.52 799.303 1103.52 799.223 1103.52C799.063 1103.52 798.943 1103.44 798.783 1103.4C798.783 1103.4 798.783 1103.4 798.703 1103.4C798.663 1103.4 798.623 1103.36 798.583 1103.36C798.503 1103.32 798.424 1103.28 798.344 1103.24C798.264 1103.16 798.144 1103 798.024 1102.92C798.104 1103.04 798.224 1103.24 798.024 1102.92C798.024 1102.92 798.024 1102.92 798.024 1102.88L797.944 1102.8C797.944 1102.8 797.944 1102.8 797.984 1102.84C797.944 1102.76 797.904 1102.72 797.864 1102.64C797.864 1102.6 797.824 1102.52 797.784 1102.48C797.704 1102.28 797.664 1102.12 797.624 1101.92C797.624 1101.92 797.624 1101.92 797.624 1101.88C797.624 1101.84 797.624 1101.76 797.624 1101.72C797.624 1101.52 797.624 1101.32 797.624 1101.12C797.624 1101.12 797.624 1101.08 797.624 1101.04C797.624 1101 797.624 1100.96 797.624 1100.92C797.664 1100.72 797.704 1100.52 797.784 1100.32C797.784 1100.24 797.824 1100.16 797.864 1100.08C797.944 1099.92 798.064 1099.76 798.144 1099.6C798.264 1099.52 798.384 1099.4 798.543 1099.32C798.543 1099.32 798.623 1099.32 798.623 1099.28C798.823 1099.2 799.023 1099.16 799.223 1099.12C799.502 1099.12 799.782 1099.12 800.022 1099.12C800.142 1099.12 800.262 1099.16 800.381 1099.2C800.501 1099.2 800.581 1099.28 800.701 1099.32C800.901 1099.4 801.101 1099.52 801.3 1099.64C801.38 1099.68 801.46 1099.76 801.54 1099.8L801.46 1099.84Z" fill="#231F20"/>
<path d="M823.356 1107.76C826.073 1108.8 829.509 1107.64 831.307 1105.4C832.346 1104.12 833.025 1102.52 832.825 1100.84C832.665 1099.2 831.946 1097.68 830.747 1096.52C829.389 1095.24 827.751 1094.56 825.953 1094.36C824.115 1094.12 822.357 1094.76 820.958 1095.96C820.319 1096.52 820.199 1097.4 820.359 1098.16C819.959 1098.84 819.64 1099.56 819.52 1100.28C819.2 1101.84 819.32 1103.32 819.959 1104.76C820.599 1106.24 821.917 1107.24 823.396 1107.8L823.356 1107.76ZM827.271 1099.84C827.271 1099.84 827.591 1100.16 827.751 1100.32C827.791 1100.4 827.871 1100.48 827.911 1100.56C827.911 1100.64 827.99 1100.68 828.03 1100.76C828.07 1100.88 828.11 1101 828.11 1101.12C828.11 1101.28 828.11 1101.44 828.11 1101.56C828.11 1101.68 828.07 1101.8 828.03 1101.92C827.99 1102 827.95 1102.08 827.871 1102.16C827.831 1102.24 827.791 1102.28 827.751 1102.36C827.591 1102.52 827.431 1102.68 827.231 1102.84C827.151 1102.88 827.071 1102.96 826.992 1103C826.872 1103.08 826.752 1103.12 826.632 1103.2C826.632 1103.2 826.592 1103.2 826.552 1103.24C826.472 1103.24 826.432 1103.28 826.392 1103.28C826.272 1103.32 826.152 1103.36 826.033 1103.4C825.873 1103.44 825.673 1103.48 825.513 1103.52C825.433 1103.52 825.313 1103.52 825.234 1103.52C825.154 1103.52 825.034 1103.52 824.954 1103.52C824.794 1103.52 824.674 1103.44 824.514 1103.4C824.514 1103.4 824.514 1103.4 824.434 1103.4C824.394 1103.4 824.354 1103.36 824.314 1103.36C824.235 1103.32 824.155 1103.28 824.075 1103.24C823.995 1103.16 823.875 1103 823.755 1102.92C823.835 1103.04 823.955 1103.24 823.755 1102.92C823.755 1102.92 823.755 1102.92 823.755 1102.88L823.675 1102.8C823.675 1102.8 823.675 1102.8 823.715 1102.84C823.675 1102.76 823.635 1102.72 823.595 1102.64C823.595 1102.6 823.555 1102.52 823.515 1102.48C823.435 1102.28 823.396 1102.12 823.356 1101.92C823.356 1101.92 823.356 1101.92 823.356 1101.88C823.356 1101.84 823.356 1101.76 823.356 1101.72C823.356 1101.52 823.356 1101.32 823.356 1101.12C823.356 1101.12 823.356 1101.08 823.356 1101.04C823.356 1101 823.356 1100.96 823.356 1100.92C823.396 1100.72 823.435 1100.52 823.515 1100.32C823.515 1100.24 823.555 1100.16 823.595 1100.08C823.675 1099.92 823.795 1099.76 823.875 1099.6C823.995 1099.52 824.115 1099.4 824.275 1099.32C824.275 1099.32 824.354 1099.32 824.354 1099.28C824.554 1099.2 824.754 1099.16 824.954 1099.12C825.233 1099.12 825.513 1099.12 825.753 1099.12C825.873 1099.12 825.993 1099.16 826.113 1099.2C826.232 1099.2 826.312 1099.28 826.432 1099.32C826.632 1099.4 826.832 1099.52 827.032 1099.64C827.111 1099.68 827.191 1099.76 827.271 1099.8V1099.84Z" fill="#231F20"/>
<path d="M849.167 1107.76C851.884 1108.8 855.32 1107.64 857.118 1105.4C858.157 1104.12 858.836 1102.52 858.637 1100.84C858.477 1099.2 857.758 1097.68 856.559 1096.52C855.2 1095.24 853.562 1094.56 851.764 1094.36C849.926 1094.12 848.168 1094.76 846.77 1095.96C846.13 1096.52 846.011 1097.4 846.17 1098.16C845.771 1098.84 845.451 1099.56 845.331 1100.28C845.012 1101.84 845.132 1103.32 845.771 1104.76C846.41 1106.24 847.729 1107.24 849.207 1107.8L849.167 1107.76ZM853.083 1099.84C853.083 1099.84 853.402 1100.16 853.562 1100.32C853.602 1100.4 853.682 1100.48 853.722 1100.56C853.722 1100.64 853.802 1100.68 853.842 1100.76C853.882 1100.88 853.922 1101 853.922 1101.12C853.922 1101.28 853.922 1101.44 853.922 1101.56C853.922 1101.68 853.882 1101.8 853.842 1101.92C853.802 1102 853.762 1102.08 853.722 1102.16C853.682 1102.24 853.642 1102.28 853.602 1102.36C853.442 1102.52 853.283 1102.68 853.083 1102.84C853.003 1102.88 852.923 1102.96 852.843 1103C852.723 1103.08 852.603 1103.12 852.483 1103.2C852.483 1103.2 852.443 1103.2 852.403 1103.24C852.324 1103.24 852.284 1103.28 852.244 1103.28C852.124 1103.32 852.004 1103.36 851.884 1103.4C851.724 1103.44 851.524 1103.48 851.365 1103.52C851.285 1103.52 851.165 1103.52 851.085 1103.52C851.005 1103.52 850.885 1103.52 850.805 1103.52C850.645 1103.52 850.526 1103.44 850.366 1103.4C850.366 1103.4 850.366 1103.4 850.286 1103.4C850.246 1103.4 850.206 1103.36 850.166 1103.36C850.086 1103.32 850.006 1103.28 849.926 1103.24C849.846 1103.16 849.726 1103 849.607 1102.92C849.686 1103.04 849.806 1103.24 849.607 1102.92C849.607 1102.92 849.607 1102.92 849.607 1102.88L849.527 1102.8C849.527 1102.8 849.527 1102.8 849.567 1102.84C849.527 1102.76 849.487 1102.72 849.447 1102.64C849.447 1102.6 849.407 1102.52 849.367 1102.48C849.287 1102.28 849.247 1102.12 849.207 1101.92C849.207 1101.92 849.207 1101.92 849.207 1101.88C849.207 1101.84 849.207 1101.76 849.207 1101.72C849.207 1101.52 849.207 1101.32 849.207 1101.12C849.207 1101.12 849.207 1101.08 849.207 1101.04C849.207 1101 849.207 1100.96 849.207 1100.92C849.247 1100.72 849.287 1100.52 849.367 1100.32C849.367 1100.24 849.407 1100.16 849.447 1100.08C849.527 1099.92 849.647 1099.76 849.726 1099.6C849.846 1099.52 849.966 1099.4 850.126 1099.32C850.126 1099.32 850.206 1099.32 850.206 1099.28C850.406 1099.2 850.605 1099.16 850.805 1099.12C851.085 1099.12 851.365 1099.12 851.604 1099.12C851.724 1099.12 851.844 1099.16 851.964 1099.2C852.084 1099.2 852.164 1099.28 852.284 1099.32C852.483 1099.4 852.683 1099.52 852.883 1099.64C852.963 1099.68 853.043 1099.76 853.123 1099.8L853.083 1099.84Z" fill="#231F20"/>
<path d="M874.979 1107.76C877.696 1108.8 881.132 1107.64 882.93 1105.4C883.969 1104.12 884.648 1102.52 884.448 1100.84C884.288 1099.2 883.569 1097.68 882.37 1096.52C881.012 1095.24 879.374 1094.56 877.576 1094.36C875.738 1094.12 873.98 1094.76 872.581 1095.96C871.942 1096.52 871.822 1097.4 871.982 1098.16C871.582 1098.84 871.263 1099.56 871.143 1100.28C870.823 1101.84 870.943 1103.32 871.582 1104.76C872.222 1106.24 873.54 1107.24 875.019 1107.8L874.979 1107.76ZM878.894 1099.84C878.894 1099.84 879.214 1100.16 879.374 1100.32C879.414 1100.4 879.494 1100.48 879.534 1100.56C879.534 1100.64 879.614 1100.68 879.653 1100.76C879.693 1100.88 879.733 1101 879.733 1101.12C879.733 1101.28 879.733 1101.44 879.733 1101.56C879.733 1101.68 879.693 1101.8 879.653 1101.92C879.614 1102 879.574 1102.08 879.534 1102.16C879.494 1102.24 879.454 1102.28 879.414 1102.36C879.254 1102.52 879.094 1102.68 878.934 1102.84C878.854 1102.88 878.774 1102.96 878.695 1103C878.575 1103.08 878.455 1103.12 878.335 1103.2C878.335 1103.2 878.295 1103.2 878.255 1103.24C878.175 1103.24 878.135 1103.28 878.095 1103.28C877.975 1103.32 877.855 1103.36 877.736 1103.4C877.576 1103.44 877.376 1103.48 877.216 1103.52C877.136 1103.52 877.016 1103.52 876.936 1103.52C876.857 1103.52 876.737 1103.52 876.657 1103.52C876.497 1103.52 876.377 1103.44 876.217 1103.4C876.217 1103.4 876.217 1103.4 876.137 1103.4C876.097 1103.4 876.057 1103.36 876.017 1103.36C875.938 1103.32 875.858 1103.28 875.778 1103.24C875.698 1103.16 875.578 1103 875.458 1102.92C875.538 1103.04 875.658 1103.24 875.458 1102.92C875.458 1102.92 875.458 1102.92 875.458 1102.88L875.378 1102.8C875.378 1102.8 875.378 1102.8 875.418 1102.84C875.378 1102.76 875.338 1102.72 875.298 1102.64C875.298 1102.6 875.258 1102.52 875.218 1102.48C875.138 1102.28 875.099 1102.12 875.059 1101.92C875.059 1101.92 875.059 1101.92 875.059 1101.88C875.059 1101.84 875.059 1101.76 875.059 1101.72C875.059 1101.52 875.059 1101.32 875.059 1101.12C875.059 1101.12 875.059 1101.08 875.059 1101.04C875.059 1101 875.059 1100.96 875.059 1100.92C875.099 1100.72 875.138 1100.52 875.218 1100.32C875.218 1100.24 875.258 1100.16 875.298 1100.08C875.378 1099.92 875.498 1099.76 875.578 1099.6C875.698 1099.52 875.818 1099.4 875.978 1099.32C875.978 1099.32 876.057 1099.32 876.057 1099.28C876.257 1099.2 876.457 1099.16 876.657 1099.12C876.936 1099.12 877.216 1099.12 877.456 1099.12C877.576 1099.12 877.696 1099.16 877.815 1099.2C877.935 1099.2 878.015 1099.28 878.135 1099.32C878.335 1099.4 878.535 1099.52 878.735 1099.64C878.814 1099.68 878.894 1099.76 878.974 1099.8L878.894 1099.84Z" fill="#231F20"/>
<path d="M900.79 1107.76C903.507 1108.8 906.943 1107.64 908.741 1105.4C909.78 1104.12 910.459 1102.52 910.26 1100.84C910.1 1099.2 909.381 1097.68 908.182 1096.52C906.823 1095.24 905.185 1094.56 903.387 1094.36C901.549 1094.12 899.791 1094.76 898.393 1095.96C897.753 1096.52 897.634 1097.4 897.793 1098.16C897.394 1098.84 897.074 1099.56 896.954 1100.28C896.635 1101.84 896.755 1103.32 897.394 1104.76C898.033 1106.24 899.352 1107.24 900.83 1107.8L900.79 1107.76ZM904.706 1099.84C904.706 1099.84 905.025 1100.16 905.185 1100.32C905.225 1100.4 905.305 1100.48 905.345 1100.56C905.345 1100.64 905.425 1100.68 905.465 1100.76C905.505 1100.88 905.545 1101 905.545 1101.12C905.545 1101.28 905.545 1101.44 905.545 1101.56C905.545 1101.68 905.505 1101.8 905.465 1101.92C905.425 1102 905.385 1102.08 905.305 1102.16C905.265 1102.24 905.225 1102.28 905.185 1102.36C905.025 1102.52 904.866 1102.68 904.706 1102.84C904.626 1102.88 904.546 1102.96 904.466 1103C904.346 1103.08 904.226 1103.12 904.106 1103.2C904.106 1103.2 904.067 1103.2 904.027 1103.24C903.947 1103.24 903.907 1103.28 903.867 1103.28C903.747 1103.32 903.627 1103.36 903.507 1103.4C903.347 1103.44 903.148 1103.48 902.988 1103.52C902.908 1103.52 902.788 1103.52 902.708 1103.52C902.628 1103.52 902.508 1103.52 902.428 1103.52C902.268 1103.52 902.149 1103.44 901.989 1103.4C901.989 1103.4 901.989 1103.4 901.909 1103.4C901.869 1103.4 901.829 1103.36 901.789 1103.36C901.709 1103.32 901.629 1103.28 901.549 1103.24C901.469 1103.16 901.349 1103 901.23 1102.92C901.31 1103.04 901.429 1103.24 901.23 1102.92C901.23 1102.92 901.23 1102.92 901.23 1102.88L901.15 1102.8C901.15 1102.8 901.15 1102.8 901.19 1102.84C901.15 1102.76 901.11 1102.72 901.07 1102.64C901.07 1102.6 901.03 1102.52 900.99 1102.48C900.91 1102.28 900.87 1102.12 900.83 1101.92C900.83 1101.92 900.83 1101.92 900.83 1101.88C900.83 1101.84 900.83 1101.76 900.83 1101.72C900.83 1101.52 900.83 1101.32 900.83 1101.12C900.83 1101.12 900.83 1101.08 900.83 1101.04C900.83 1101 900.83 1100.96 900.83 1100.92C900.87 1100.72 900.91 1100.52 900.99 1100.32C900.99 1100.24 901.03 1100.16 901.07 1100.08C901.15 1099.92 901.27 1099.76 901.349 1099.6C901.469 1099.52 901.589 1099.4 901.749 1099.32C901.749 1099.32 901.829 1099.32 901.829 1099.28C902.029 1099.2 902.229 1099.16 902.428 1099.12C902.708 1099.12 902.988 1099.12 903.227 1099.12C903.347 1099.12 903.467 1099.16 903.587 1099.2C903.707 1099.2 903.787 1099.28 903.907 1099.32C904.106 1099.4 904.306 1099.52 904.506 1099.64C904.586 1099.68 904.666 1099.76 904.746 1099.8L904.706 1099.84Z" fill="#231F20"/>
<path d="M926.602 1107.76C929.319 1108.8 932.755 1107.64 934.553 1105.4C935.592 1104.12 936.271 1102.52 936.071 1100.84C935.911 1099.2 935.192 1097.68 933.994 1096.52C932.635 1095.24 930.997 1094.56 929.199 1094.36C927.361 1094.12 925.603 1094.76 924.204 1095.96C923.565 1096.52 923.445 1097.4 923.605 1098.16C923.205 1098.84 922.886 1099.56 922.766 1100.28C922.446 1101.84 922.566 1103.32 923.205 1104.76C923.845 1106.24 925.163 1107.24 926.642 1107.8L926.602 1107.76ZM930.517 1099.84C930.517 1099.84 930.837 1100.16 930.997 1100.32C931.037 1100.4 931.117 1100.48 931.157 1100.56C931.157 1100.64 931.237 1100.68 931.277 1100.76C931.316 1100.88 931.356 1101 931.356 1101.12C931.356 1101.28 931.356 1101.44 931.356 1101.56C931.356 1101.68 931.316 1101.8 931.277 1101.92C931.237 1102 931.197 1102.08 931.117 1102.16C931.077 1102.24 931.037 1102.28 930.997 1102.36C930.837 1102.52 930.677 1102.68 930.517 1102.84C930.437 1102.88 930.358 1102.96 930.278 1103C930.158 1103.08 930.038 1103.12 929.918 1103.2C929.918 1103.2 929.878 1103.2 929.838 1103.24C929.758 1103.24 929.718 1103.28 929.678 1103.28C929.558 1103.32 929.439 1103.36 929.319 1103.4C929.159 1103.44 928.959 1103.48 928.799 1103.52C928.719 1103.52 928.599 1103.52 928.52 1103.52C928.44 1103.52 928.32 1103.52 928.24 1103.52C928.08 1103.52 927.96 1103.44 927.8 1103.4C927.8 1103.4 927.8 1103.4 927.72 1103.4C927.68 1103.4 927.641 1103.36 927.601 1103.36C927.521 1103.32 927.441 1103.28 927.361 1103.24C927.281 1103.16 927.161 1103 927.041 1102.92C927.121 1103.04 927.241 1103.24 927.041 1102.92C927.041 1102.92 927.041 1102.92 927.041 1102.88L926.961 1102.8C926.961 1102.8 926.961 1102.8 927.001 1102.84C926.961 1102.76 926.921 1102.72 926.881 1102.64C926.881 1102.6 926.841 1102.52 926.801 1102.48C926.722 1102.28 926.682 1102.12 926.642 1101.92C926.642 1101.92 926.642 1101.92 926.642 1101.88C926.642 1101.84 926.642 1101.76 926.642 1101.72C926.642 1101.52 926.642 1101.32 926.642 1101.12C926.642 1101.12 926.642 1101.08 926.642 1101.04C926.642 1101 926.642 1100.96 926.642 1100.92C926.682 1100.72 926.722 1100.52 926.801 1100.32C926.801 1100.24 926.841 1100.16 926.881 1100.08C926.961 1099.92 927.081 1099.76 927.161 1099.6C927.281 1099.52 927.401 1099.4 927.561 1099.32C927.561 1099.32 927.641 1099.32 927.641 1099.28C927.84 1099.2 928.04 1099.16 928.24 1099.12C928.52 1099.12 928.799 1099.12 929.039 1099.12C929.159 1099.12 929.279 1099.16 929.399 1099.2C929.518 1099.2 929.598 1099.28 929.718 1099.32C929.918 1099.4 930.118 1099.52 930.318 1099.64C930.397 1099.68 930.477 1099.76 930.557 1099.8L930.517 1099.84Z" fill="#231F20"/>
<path d="M1833 1161.6H1707.02C1713.69 1158.44 1719.53 1153.84 1723.72 1146.96C1735.07 1128.4 1728.36 1105.44 1731.31 1085.08C1734.87 1082.16 1735.79 1077.16 1734.75 1072.8C1733.39 1067.28 1729.19 1063.6 1724 1061.68C1722.12 1061 1720.2 1060.6 1718.21 1060.32C1712.29 1054.08 1705.54 1048.72 1698.19 1044.28C1708.14 1047.48 1718.37 1049.36 1728.48 1052.04C1740.34 1055.2 1752.33 1060.48 1758.64 1071.64C1760.56 1075.04 1765.31 1072.64 1764.68 1069.08C1762.4 1056.8 1759 1044.48 1753.69 1033.08C1761 1035.68 1768.35 1038.2 1775.54 1041.08C1781.98 1043.64 1791.81 1046.56 1793.72 1054.16C1794.72 1058.12 1800.16 1056.96 1800.48 1053.24C1801.99 1036.2 1802.79 1018.16 1798.32 1001.48C1794.04 985.518 1784.25 971.798 1769.47 964.038C1763.52 960.918 1757.12 958.958 1750.53 958.078C1751.09 957.718 1751.65 957.398 1752.21 957.038C1761.16 951.238 1769.39 944.278 1776.58 936.358C1777.74 935.078 1777.86 932.478 1775.98 931.678C1763.32 926.198 1750.21 924.318 1737.15 924.958C1746.54 919.518 1754.45 911.878 1761.92 903.878C1771.59 893.478 1780.38 882.238 1788.13 870.358C1796.96 856.798 1804.27 842.278 1810.31 827.278C1810.82 825.918 1809.71 824.158 1808.39 823.878C1774.86 816.398 1739.66 819.118 1707.94 832.518C1700.39 835.718 1692.91 839.358 1686.36 844.358C1679.85 849.318 1674.58 855.438 1670.34 862.438C1667.34 867.398 1664.71 872.678 1662.39 878.078C1663.31 872.878 1664.03 867.678 1664.15 862.278C1664.43 852.758 1662.83 843.278 1659.31 834.398C1652.56 817.318 1640.29 803.358 1625.23 793.078C1616.56 787.158 1607.05 782.558 1597.22 778.958C1595.82 778.438 1594.06 779.518 1593.74 780.918C1590.55 795.358 1588.75 810.198 1588.63 824.958C1588.59 830.718 1588.67 836.558 1589.19 842.318C1575.32 834.558 1561.26 827.078 1547.32 819.438C1544.8 818.078 1541.84 820.318 1542.52 823.118C1547.92 845.038 1549.91 867.638 1555.83 889.438C1558.66 899.878 1562.5 910.158 1568.13 919.398C1569.89 922.318 1571.93 925.078 1574.01 927.718C1569.05 925.438 1563.94 923.558 1558.54 922.278C1546.72 919.478 1534.53 919.318 1522.62 921.638C1520.71 921.998 1519.67 924.638 1520.75 926.238C1534.89 947.038 1555.31 962.758 1579.2 970.398C1558.3 982.318 1542.8 1001.72 1531.77 1022.8C1525.34 1035.08 1520.47 1047.96 1516.03 1061.08C1515.03 1064 1518.75 1065.4 1520.71 1063.8C1535.77 1051.56 1555.71 1048.56 1573.61 1042.48C1582.84 1039.36 1591.71 1035.36 1599.5 1029.44C1608.09 1022.96 1615.28 1014.92 1622.19 1006.72C1628.91 998.718 1635.54 990.598 1642.13 982.518C1642.25 988.158 1642.77 993.758 1644.05 999.278C1644.33 1000.52 1644.69 1001.72 1645.05 1002.92C1645.05 1003.36 1645.05 1003.76 1645.05 1004.2C1645.05 1013 1645.05 1021.8 1645.53 1030.56C1632.02 1031.12 1618.6 1034.48 1606.49 1040.6C1601.38 1043.2 1596.42 1046.24 1591.95 1049.8C1588.31 1052.68 1583.2 1056.68 1583.08 1061.8C1582.68 1061.8 1582.28 1061.8 1581.92 1061.8C1575.88 1061.96 1569.45 1061.92 1564.02 1064.96C1559.66 1067.4 1556.43 1072.16 1556.35 1077.24C1556.27 1082.76 1560.3 1086.88 1565.42 1088.28C1566.02 1088.44 1566.61 1088.48 1567.21 1088.6C1560.14 1104.88 1564.22 1125.8 1574.17 1139.92C1581.36 1150.12 1591.51 1157.04 1602.81 1161.48H1487.94C1484.78 1118.96 1482.39 1076.4 1480.75 1033.8C1479.11 991.158 1478.35 948.478 1477.91 905.838C1477.87 901.118 1477.79 896.398 1477.71 891.678C1478.43 890.478 1478.43 888.918 1477.67 887.838C1477.63 883.758 1477.59 879.638 1477.51 875.558C1478.07 874.558 1478.07 873.278 1477.47 872.358C1477.27 859.478 1476.95 846.558 1476.55 833.678C1476.55 833.078 1476.23 832.678 1475.87 832.438C1477.79 830.238 1476.83 825.838 1473.04 825.798C1419.58 825.078 1366.08 825.438 1312.62 825.718C1259.15 825.998 1205.65 826.558 1152.19 827.558C1137.09 827.838 1121.95 828.078 1106.84 828.678C1091.98 829.238 1076.8 829.278 1062.09 831.638C1060.25 831.918 1060.93 834.438 1062.49 834.598C1075.8 836.118 1089.46 835.678 1102.85 835.678C1116.31 835.678 1129.74 835.518 1143.2 835.318C1143.24 835.318 1143.28 835.318 1143.32 835.318C1142.52 848.878 1142.08 862.438 1141.8 876.038C1115.03 876.038 1088.18 875.638 1061.49 877.438C1061.73 863.398 1061.89 849.358 1061.49 835.318C1061.45 833.398 1058.78 833.478 1058.58 835.318C1056.5 856.518 1056.02 877.918 1055.22 899.198C1054.42 920.638 1053.9 942.118 1053.58 963.598C1053.02 1006.2 1053.14 1048.8 1053.86 1091.44C1054.06 1103.44 1054.34 1115.4 1054.62 1127.4C1054.9 1138.76 1055.06 1150.2 1055.7 1161.56H915.774C929.958 1155.96 941.345 1145.52 947.419 1131.36C953.652 1116.92 954.731 1100.8 952.613 1085.32C952.253 1082.84 951.814 1080.32 951.294 1077.8C951.334 1077.28 951.214 1076.72 950.975 1076.28C944.981 1049.32 928.879 1022.72 904.146 1009.96C901.949 1008.84 899.671 1007.84 897.394 1006.96C900.87 1001.24 904.346 995.518 907.703 989.718C907.982 989.238 908.102 988.718 908.142 988.278C911.219 987.838 914.255 986.998 916.773 985.198C923.006 980.758 925.163 971.118 917.971 966.398C914.455 964.118 910.14 963.718 906.064 963.678C899.991 963.638 893.878 963.678 887.805 963.718C878.934 963.718 870.024 963.798 861.154 963.838C861.354 963.718 861.554 963.638 861.753 963.438C868.706 956.118 875.618 948.758 882.53 941.438C892.04 944.358 901.789 946.558 911.778 944.998C922.446 943.318 932.116 937.878 941.425 932.678C942.904 931.838 942.544 929.558 940.946 929.078C930.397 925.998 919.809 923.398 908.741 924.318C904.506 924.678 900.271 925.478 896.275 926.918C902.349 920.478 908.422 914.038 914.495 907.638C925.203 911.598 936.511 912.318 947.778 909.878C960.005 907.198 972.231 901.438 982.78 894.798C984.538 893.678 984.098 891.238 982.22 890.558C970.313 886.318 958.287 884.678 945.74 886.998C939.787 888.118 934.073 890.038 928.719 892.718C936.95 884.118 945.261 875.518 953.572 866.998C958.566 868.838 964 869.918 969.195 870.878C974.948 871.958 980.782 872.718 986.655 872.478C997.084 872.078 1007.35 868.878 1015.3 861.958C1016.46 860.918 1016.06 858.998 1014.82 858.238C1000.6 849.478 982.979 847.878 967.397 852.878C976.586 843.558 985.776 834.238 995.086 825.038C995.406 825.078 995.765 825.118 996.165 825.038C1005.75 823.398 1015.22 819.238 1022.14 812.238C1029.97 804.318 1032.64 794.118 1034.64 783.478C1034.92 782.078 1033.72 780.358 1032.13 780.958C1022.9 784.478 1014.54 789.118 1007.19 795.838C1003.68 799.038 1000.56 802.678 997.763 806.558C995.046 810.358 991.69 815.318 993.727 820.158C993.727 820.198 993.767 820.238 993.807 820.278C993.248 820.718 992.928 821.318 992.848 821.998C986.895 827.678 980.982 833.398 975.068 839.078C977.545 830.678 979.743 822.078 980.063 813.278C980.422 803.278 977.905 793.678 973.07 784.958C972.311 783.598 970.353 783.678 969.594 784.958C964.24 793.918 961.443 804.238 961.443 814.718C961.443 824.238 963.521 834.678 968.875 842.758C968.875 842.758 968.875 842.838 968.875 842.878C968.635 843.678 968.755 844.318 969.115 844.838C964.4 849.398 959.685 853.998 954.97 858.598C953.013 859.798 951.135 861.078 949.337 862.518C948.697 863.038 948.737 863.758 949.057 864.398C948.298 865.118 947.539 865.878 946.819 866.598C946.819 866.518 946.899 866.438 946.939 866.358C949.177 861.838 950.575 857.078 950.975 852.078C951.454 846.038 950.375 840.078 949.616 834.118C949.376 832.358 947.459 831.278 946.02 832.638C930.158 847.918 920.888 869.758 921.407 891.798C918.131 895.078 914.815 898.358 911.578 901.678C910.539 901.918 909.7 902.838 909.501 903.798C905.585 907.798 901.709 911.798 897.793 915.798C901.07 904.838 901.669 893.038 899.392 881.998C899.032 880.318 896.755 879.838 895.636 880.998C882.371 894.798 876.297 914.358 881.252 933.078C880.413 933.998 879.534 934.918 878.695 935.798C878.055 936.038 877.616 936.558 877.376 937.198C872.342 942.638 867.347 948.118 862.393 953.638C868.466 931.678 874.619 909.678 880.373 887.638C880.932 885.438 881.492 883.278 882.051 881.078C890.242 880.758 898.553 879.438 905.905 875.678C914.695 871.198 919.729 863.238 924.164 854.718C924.804 853.438 924.045 851.598 922.446 851.718C913.177 852.238 904.107 855.318 896.035 859.798C892.32 861.838 888.883 864.318 885.647 867.078C887.525 859.598 889.403 852.158 891.281 844.678C915.454 846.478 938.628 831.078 945.621 807.598C946.06 806.198 944.862 804.518 943.343 804.598C924.684 805.598 906.784 814.638 895.196 829.198C896.875 822.718 898.553 816.278 900.271 809.838C900.79 807.998 901.27 806.118 901.789 804.278C902.628 803.878 903.228 803.038 903.387 802.118C912.777 803.278 922.007 801.878 930.477 797.238C939.148 792.518 945.86 785.198 951.174 776.958C951.854 775.918 951.175 774.278 949.976 773.998C934.633 770.718 917.332 775.398 906.504 786.838C908.182 780.558 909.9 774.278 911.578 767.998C916.892 763.798 920.688 757.518 922.206 750.958C924.284 741.878 922.806 732.398 922.127 723.238C922.007 721.718 920.329 720.358 918.85 721.358C904.546 730.918 898.673 751.318 905.305 767.118C905.545 767.718 906.064 768.038 906.584 768.158C905.265 773.118 903.947 778.118 902.668 783.078C899.032 771.078 889.523 760.518 878.215 755.918C877.016 755.438 875.978 756.638 875.898 757.678C874.499 775.438 882.77 792.758 897.474 802.718C895.556 809.998 893.598 817.238 891.64 824.518C891.041 820.918 890.042 817.398 888.644 813.998C884.848 804.758 878.814 797.718 870.703 791.998C869.385 791.078 867.986 792.598 868.226 793.918C870.144 803.998 868.506 814.318 871.982 824.158C874.819 832.238 879.813 838.918 886.047 844.678C878.934 869.798 871.862 894.958 865.309 920.238C862.672 930.398 860.075 940.598 857.438 950.758C856.399 943.478 855.32 936.198 854.282 928.918C853.083 920.478 851.764 912.038 850.326 903.638C852.763 901.958 855.041 899.958 857.039 897.958C860.155 894.918 863.072 891.478 865.19 887.638C869.824 879.198 868.026 868.758 868.226 859.518C868.266 857.798 866.228 857.198 865.07 858.198C856.439 865.718 850.406 875.718 847.169 886.598C846.131 881.398 845.052 876.238 843.893 871.078C844.572 870.358 844.772 869.238 844.373 868.238C854.441 850.478 859.915 830.518 860.275 810.118C860.275 808.678 858.517 807.478 857.238 808.398C846.37 816.198 839.178 828.118 836.581 840.958C835.103 835.278 833.544 829.598 831.946 823.918C830.268 817.878 828.51 811.878 826.672 805.878C827.671 806.118 828.75 805.198 828.79 804.158C828.95 799.878 834.703 796.518 837.18 793.438C840.017 789.918 842.135 785.918 843.853 781.718C847.449 772.838 848.568 763.278 849.567 753.838C849.727 752.398 847.889 751.518 846.73 752.198C834.264 759.798 827.831 772.398 823.076 785.638C821.797 767.958 817.562 750.038 802.019 739.558C800.821 738.758 798.823 739.798 798.983 741.318C800.022 751.038 799.982 760.838 803.418 770.158C806.135 777.518 810.85 784.238 817.882 787.958C818.241 789.438 818.601 790.918 818.961 792.398C819.041 793.958 819.16 795.478 819.24 796.958C806.854 790.238 792.35 788.198 778.326 790.638C777.207 790.838 776.567 792.438 777.247 793.318C787.435 807.518 806.335 813.878 822.996 808.838C826.512 822.758 830.068 836.678 833.225 850.678C824.035 841.918 810.29 837.318 798.104 834.798C796.426 834.438 795.107 835.798 795.467 837.438C797.384 846.878 802.699 855.278 810.41 861.078C818.441 867.078 828.15 868.158 837.5 870.518C839.778 881.398 842.015 892.278 844.133 903.198C843.893 903.918 844.053 904.678 844.532 905.198C844.772 906.398 844.972 907.598 845.212 908.798C843.414 905.278 841.336 901.958 838.859 898.878C832.625 891.078 824.475 885.598 815.245 881.958C813.686 881.358 812.448 883.118 812.728 884.478C814.965 894.998 817.642 905.118 824.674 913.518C830.308 920.238 838.659 926.118 847.369 928.078C847.569 928.838 847.809 929.558 848.009 930.318C848.248 931.118 848.728 931.598 849.327 931.838C850.366 938.318 851.285 944.798 852.164 951.278C838.619 939.638 825.793 927.078 813.766 913.838C813.686 913.678 813.527 913.518 813.367 913.398C810.25 909.918 807.174 906.398 804.137 902.878C804.257 902.678 804.377 902.518 804.457 902.278C805.855 898.438 806.175 893.918 806.335 889.838C806.454 885.518 806.055 881.158 805.216 876.918C803.538 868.438 799.662 860.678 794.508 853.798C793.389 852.318 791.031 852.358 790.472 854.318C788.075 862.558 787.715 871.238 788.035 879.798C788.075 881.038 788.235 882.238 788.474 883.398C783.12 876.398 777.966 869.238 772.931 862.038C772.052 857.758 772.132 853.318 771.573 848.998C771.054 845.118 770.294 841.238 769.136 837.478C766.938 830.198 763.422 823.318 758.148 817.758C756.31 815.838 752.674 811.638 749.717 812.118C745.881 812.758 746.561 818.998 746.401 821.758C745.881 830.798 746.081 840.118 749.957 848.478C753.433 855.998 760.066 861.838 768.297 863.198C772.532 869.918 777.007 876.478 781.682 882.958C769.695 878.478 755.95 880.958 743.684 883.478C742.845 883.638 742.205 884.558 742.245 885.398C742.365 889.318 746.601 891.958 749.717 893.638C753.513 895.678 757.708 896.798 761.984 897.038C766.419 897.318 770.974 896.678 775.209 895.438C779.205 894.278 783.6 892.638 787.236 890.398C791.99 896.638 796.865 902.758 801.979 908.718C800.621 908.398 799.222 908.198 797.784 908.118C792.51 907.838 787.036 908.798 782.001 910.238C771.973 913.078 762.863 918.358 755.351 925.638C754.232 926.718 754.672 929.078 756.35 929.358C775.209 932.638 794.428 929.078 810.33 918.278C815.844 924.358 821.478 930.318 827.271 936.078C808.532 932.318 788.474 938.078 774.49 951.398C773.331 952.518 773.771 954.958 775.489 955.238C795.986 958.798 818.881 958.598 834.943 943.598C835.023 943.638 835.063 943.718 835.143 943.758C841.056 949.398 847.209 954.798 853.363 960.118C853.522 961.398 853.682 962.718 853.842 963.998C852.843 963.998 851.844 963.998 850.885 963.998C849.966 963.998 849.327 964.358 848.848 964.838C841.616 964.838 834.344 964.958 827.112 965.038C818.601 965.158 809.611 965.158 801.7 968.758C795.227 971.718 785.797 980.718 793.309 987.758C796.705 990.958 802.978 989.678 807.214 989.638C807.453 989.638 807.693 989.638 807.973 989.638C807.973 989.718 807.973 989.758 808.053 989.838C810.49 994.398 813.167 998.758 816.044 1003.08C817.362 1005.08 819.2 1007.04 820.159 1009.24C820.918 1011.04 819.68 1012.16 818.481 1013.44C812.288 1019.88 806.335 1026.4 800.901 1033.48C790.432 1047.2 781.442 1062.8 777.606 1079.76C774.13 1095 775.009 1111.48 781.003 1126C787.356 1141.36 799.103 1152.88 814.366 1159.28C816.563 1160.2 818.801 1161 821.078 1161.72H678.796C676.558 1112.64 676.678 1063.52 677.317 1014.44C677.996 964.798 679.834 915.198 680.274 865.558C680.394 851.838 680.514 838.118 680.194 824.398C679.874 810.478 679.555 796.398 677.637 782.598C677.597 782.158 677.437 781.838 677.197 781.598C676.798 780.638 675.959 779.878 674.68 779.798C657.219 778.638 639.679 778.158 622.178 777.918C604.637 777.678 587.137 777.518 569.676 779.238C568.557 779.358 567.878 780.038 567.638 780.838C567.039 779.558 564.722 779.678 564.442 781.198C562.644 790.838 562.724 800.798 562.444 810.558C562.164 820.678 562.084 830.838 562.084 840.958C562.084 854.798 562.524 868.598 563.003 882.438C548.22 883.118 533.396 883.518 518.573 883.598C503.27 883.678 487.926 883.118 472.623 883.518C472.503 874.358 472.344 865.198 472.264 856.078C472.264 854.438 470.865 852.918 469.147 852.958C458.639 853.238 448.09 853.558 437.582 854.078C427.993 854.558 418.204 855.078 408.694 856.638C408.454 842.158 408.215 827.678 408.175 813.238C408.175 811.518 406.736 810.158 405.058 810.118C382.643 809.598 360.068 808.838 337.692 810.238C337.053 810.278 336.614 810.598 336.374 810.998C335.375 810.998 334.376 811.678 334.376 813.038C334.376 834.318 334.136 855.598 334.176 876.878C334.216 900.558 334.336 924.278 334.296 947.958C334.176 996.518 333.937 1045.04 333.737 1093.6C333.657 1116.32 333.577 1139.04 333.657 1161.76H168V1230.76H244.955C244.755 1231.16 244.475 1231.48 244.356 1232C244.196 1232.6 244.196 1233.28 244.116 1233.88C243.956 1235.08 243.756 1236.28 243.596 1237.52C243.317 1240.12 243.237 1242.72 243.157 1245.32C242.917 1250.68 242.677 1256.08 242.478 1261.44C242.278 1265.84 240.959 1271.88 244.036 1275.56C246.993 1279.08 251.827 1278.8 255.983 1278.84C266.531 1278.92 277.119 1279 287.668 1279.04C290.305 1279.04 292.942 1279.04 295.579 1279.04C297.777 1279.04 300.134 1279.2 302.172 1278.2C306.926 1275.76 306.007 1269.88 306.007 1265.4C306.007 1259.52 306.007 1253.64 306.007 1247.76C306.007 1242.12 306.247 1236.36 305.928 1230.72H1670.34C1670.14 1231.12 1669.86 1231.44 1669.74 1231.96C1669.58 1232.56 1669.58 1233.24 1669.5 1233.84C1669.34 1235.04 1669.14 1236.24 1668.98 1237.48C1668.7 1240.08 1668.62 1242.68 1668.54 1245.28C1668.3 1250.64 1668.06 1256.04 1667.86 1261.4C1667.66 1265.8 1666.34 1271.84 1669.42 1275.52C1672.38 1279.04 1677.21 1278.76 1681.37 1278.8C1691.92 1278.88 1702.5 1278.96 1713.05 1279C1715.69 1279 1718.33 1279 1720.96 1279C1723.16 1279 1725.52 1279.16 1727.56 1278.16C1732.31 1275.72 1731.39 1269.84 1731.39 1265.36C1731.39 1259.48 1731.39 1253.6 1731.39 1247.72C1731.39 1242.08 1731.63 1236.32 1731.31 1230.68H1832.96V1161.68L1833 1161.6ZM1002.4 807.398C1005.11 804.118 1008.15 801.078 1011.35 798.278C1016.78 793.518 1023.14 789.358 1029.81 786.438C1027.93 794.678 1025.41 802.878 1019.14 808.878C1013.07 814.718 1004.92 818.238 996.644 819.438C996.644 819.438 996.644 819.438 996.644 819.398C995.725 814.958 999.761 810.558 1002.4 807.438V807.398ZM965.678 814.718C965.758 806.318 967.756 798.038 971.352 790.478C974.788 797.878 976.187 806.038 975.667 814.238C975.148 822.438 972.831 830.358 970.313 838.158C967.477 830.638 965.559 822.998 965.639 814.758L965.678 814.718ZM888.724 868.998C892.04 866.598 895.556 864.398 899.192 862.558C905.305 859.478 911.818 857.638 918.491 856.358C914.775 862.718 910.539 868.478 903.667 871.958C897.394 875.118 890.242 876.158 883.25 876.038C883.529 874.878 883.849 873.758 884.129 872.598C885.607 871.238 887.325 870.038 888.724 868.998ZM939.867 809.598C936.551 818.558 930.637 826.558 922.806 832.118C914.016 838.358 903.028 841.078 892.359 840.118C892.519 839.438 892.719 838.758 892.879 838.038C903.787 822.558 921.048 811.758 939.867 809.598ZM945.98 777.438C936.79 790.758 920.329 801.758 903.787 797.958C903.907 797.198 903.987 796.478 904.027 795.718C904.266 794.878 904.466 794.078 904.706 793.238C915.494 782.198 930.517 775.638 945.98 777.438ZM918.171 727.718C918.451 730.838 918.65 733.998 918.73 737.118C918.85 740.918 918.89 744.798 918.171 748.558C917.012 754.558 913.976 759.478 909.62 763.478C908.941 763.478 908.262 763.678 907.782 764.198C904.426 750.958 908.661 737.238 918.171 727.718ZM879.254 760.638C885.647 764.238 890.881 769.398 894.397 775.878C897.833 782.198 899.112 788.958 899.192 795.998C899.032 796.558 898.912 797.118 898.752 797.718C886.366 789.958 878.535 775.318 879.254 760.638ZM874.899 821.278C872.222 813.558 872.741 805.478 871.982 797.478C883.17 807.558 888.524 823.838 886.726 838.598C881.292 834.118 877.136 827.838 874.859 821.278H874.899ZM845.411 757.798C844.452 766.118 843.214 774.558 839.937 782.278C838.099 786.638 835.343 790.638 831.906 793.918C829.509 796.198 827.152 798.278 825.993 801.158C825.673 800.918 825.354 800.678 825.034 800.438C824.634 799.238 824.275 798.078 823.875 796.878C828.071 782.918 833.465 766.998 845.411 757.758V757.798ZM803.178 745.558C813.926 755.278 817.043 770.118 818.401 784.518C818.401 784.518 818.321 784.518 818.281 784.518C807.214 775.078 803.737 759.758 803.138 745.558H803.178ZM782.441 793.678C796.026 791.598 809.891 795.078 821.478 802.398C821.638 803.078 821.797 803.758 821.997 804.438C808.013 808.678 792.39 804.238 782.441 793.678ZM801.82 889.038C801.82 892.358 801.3 895.478 800.741 898.678C799.822 897.558 798.863 896.438 797.944 895.318C796.705 893.438 795.467 891.518 794.428 889.478C792.67 885.958 792.15 882.318 792.19 878.438C792.27 872.278 792.55 866.238 793.709 860.238C797.065 865.558 799.342 871.638 800.661 877.758C801.46 881.478 801.82 885.238 801.82 889.038ZM750.836 827.158C750.836 825.198 750.836 823.198 750.956 821.238C750.956 820.318 751.036 819.398 751.076 818.518C751.076 818.118 751.195 817.558 751.116 817.158C751.595 817.478 752.115 817.798 752.354 818.038C752.874 818.518 753.393 818.998 753.913 819.518C754.991 820.598 756.03 821.758 756.989 822.958C760.985 828.038 763.622 834.198 765.34 840.398C766.299 843.878 767.018 847.438 767.458 850.998C767.817 853.958 767.937 856.918 768.337 859.838C754.871 855.798 750.916 839.518 750.836 827.158ZM765.1 892.278C761.664 892.438 758.148 892.038 754.831 890.998C753.273 890.518 751.795 889.878 750.356 889.078C749.517 888.598 747.959 887.798 747.04 886.838C758.947 884.718 771.333 883.078 782.841 887.318C780.643 888.318 778.445 889.318 776.168 890.078C772.612 891.238 768.896 892.118 765.14 892.278H765.1ZM762.223 925.598C768.337 920.718 775.329 916.958 782.88 914.798C787.396 913.478 792.23 912.558 796.945 912.558C800.501 912.558 803.897 913.478 807.174 914.638C794.028 923.158 777.806 927.358 762.183 925.558L762.223 925.598ZM781.442 951.398C795.227 940.718 813.886 936.718 830.867 940.638C817.482 952.518 798.623 953.718 781.442 951.398ZM910.3 928.758C918.571 928.198 927.081 929.478 935.152 931.558C927.641 935.558 919.889 939.238 911.418 940.638C902.868 942.038 894.397 940.198 886.206 937.718C892.399 931.958 902.109 929.278 910.3 928.718V928.758ZM946.42 891.078C955.849 889.478 966.558 889.758 975.867 892.958C966.837 897.478 958.087 902.358 948.178 904.918C938.229 907.478 927.76 907.118 918.091 903.758C918.491 903.318 918.93 902.878 919.33 902.478C927.281 896.638 936.711 892.758 946.42 891.078ZM1009.27 860.558C1002.32 865.358 993.767 867.478 985.377 867.598C980.063 867.678 974.669 867.078 969.474 865.918C965.559 865.038 961.723 863.638 957.847 862.518C958.846 861.518 959.805 860.518 960.804 859.478C976.027 852.438 994.327 852.678 1009.27 860.518V860.558ZM945.94 838.878C947.019 848.158 946.58 857.278 941.825 865.718C938.429 871.798 934.073 877.198 930.118 882.918C928.28 884.758 926.442 886.598 924.564 888.438C926.362 870.118 933.754 852.718 945.9 838.878H945.94ZM895.516 887.798C896.395 895.398 895.995 903.118 894.198 910.558C892.959 915.638 891.041 920.398 888.724 924.958C887.964 925.758 887.165 926.558 886.406 927.358C885.567 928.238 884.768 929.118 883.929 929.998C882.051 915.238 886.086 899.398 895.516 887.798ZM864.39 864.038C864.31 867.078 864.231 870.078 864.151 873.078C864.031 877.438 863.631 881.558 861.394 885.398C859.436 888.758 856.919 891.838 854.202 894.598C852.683 896.118 851.045 897.438 849.407 898.718C849.087 897.038 848.848 895.318 848.528 893.638C848.528 893.558 848.528 893.438 848.488 893.358C851.045 882.318 856.639 872.318 864.39 864.038ZM856.04 814.678C855.32 831.798 850.526 848.598 842.095 863.478C841.256 859.918 840.417 856.398 839.538 852.838C839.738 838.638 845.731 824.598 856.04 814.678ZM813.926 857.838C807.533 853.558 802.739 847.078 800.461 839.718C814.006 843.118 828.71 849.078 835.542 861.278C835.782 862.438 836.022 863.598 836.262 864.718C828.63 862.918 820.759 862.398 813.926 857.798V857.838ZM838.179 919.598C834.424 917.038 831.027 914.038 828.071 910.598C822.357 903.918 819.68 895.718 817.602 887.358C824.674 890.678 830.987 895.878 835.782 901.918C841.016 908.558 843.853 916.318 846.25 924.278C843.494 922.838 840.737 921.398 838.179 919.638V919.598ZM800.701 983.118C799.382 983.118 797.504 983.598 797.145 981.958C796.426 978.838 801.3 975.998 803.538 974.838C811.009 970.878 819.84 970.718 828.071 970.198C834.903 969.758 841.735 969.278 848.568 968.798C849.047 969.438 849.807 969.918 850.845 969.918C869.345 969.838 887.844 969.438 906.304 969.518C909.061 969.518 912.737 969.518 915.054 971.278C917.692 973.278 916.932 976.758 914.935 978.958C912.377 981.798 908.142 982.278 904.546 982.398C900.151 982.558 895.756 982.478 891.401 982.518C872.781 982.678 854.202 982.878 835.582 982.918C826.273 982.918 816.963 982.998 807.653 983.078L800.661 983.158L800.701 983.118ZM814.765 989.478C817.562 989.478 820.359 989.438 823.156 989.398C844.932 989.158 866.668 988.998 888.444 988.838C892.479 988.838 896.515 988.838 900.59 988.718C896.835 994.758 893.239 1000.88 889.643 1006.96C889.443 1007.28 889.403 1007.64 889.323 1008C884.968 1008.28 880.612 1008.68 876.297 1008.76C869.984 1008.88 863.631 1008.72 857.318 1008.4C851.245 1008.08 845.132 1007.64 839.058 1008.12C836.062 1008.36 833.145 1008.76 830.228 1009.4C829.629 1009.52 828.91 1009.68 828.23 1009.84C827.991 1005.24 824.075 1001.04 821.398 997.598C819.24 994.838 817.083 992.118 814.845 989.438L814.765 989.478ZM822.517 1020.24C824.475 1018.28 826.472 1016.2 827.471 1013.68C828.87 1013.68 830.428 1013.24 831.587 1013.2C834.503 1013.08 837.46 1013.04 840.377 1013.12C846.49 1013.32 852.564 1013.64 858.637 1013.96C864.83 1014.32 870.983 1014.44 877.176 1014.4C883.369 1014.4 889.962 1014.52 896.115 1013.52C901.909 1015.88 907.183 1019 912.018 1022.76C911.858 1022.76 911.698 1022.76 911.578 1022.8C909.581 1022.92 907.623 1022.96 905.625 1023C901.31 1023.16 897.034 1023.28 892.719 1023.36C883.929 1023.52 875.178 1023.36 866.388 1023.48C850.086 1023.72 833.624 1023.84 817.402 1025.52C819.12 1023.72 820.799 1021.92 822.517 1020.2V1020.24ZM805.456 1039.04C808.252 1035.56 811.169 1032.2 814.206 1028.92C814.206 1028.92 814.206 1028.92 814.246 1028.92C831.547 1030.16 849.047 1029.48 866.388 1028.96C875.019 1028.72 883.609 1028.2 892.2 1027.96C896.515 1027.84 900.79 1027.8 905.105 1027.76C907.263 1027.76 909.421 1027.68 911.578 1027.72C913.696 1027.72 915.933 1028.24 918.051 1028.08C930.837 1040.52 939.467 1057.6 943.743 1074.84C923.605 1073.96 903.547 1073.56 883.369 1073.88C861.554 1074.24 839.738 1075.04 817.962 1076.32C812.008 1076.68 806.055 1077.04 800.141 1077.68C797.185 1078 794.188 1078.44 791.231 1078.76C789.154 1079 786.996 1079.16 784.958 1079.6C788.474 1064.72 795.946 1050.92 805.456 1039.04ZM784.079 1083.36C784.119 1083.04 784.239 1082.76 784.279 1082.48C788.594 1083.2 793.389 1082.84 797.664 1082.84C803.138 1082.84 808.572 1082.84 814.006 1082.64C824.914 1082.32 835.822 1082.04 846.69 1081.8C868.506 1081.32 890.322 1081.12 912.138 1080.88C923.086 1080.76 933.994 1080.44 944.901 1080.16C947.499 1093.48 947.578 1107.64 943.863 1120.72C903.467 1118.8 862.952 1118.84 822.517 1120.32C810.85 1120.76 799.103 1121.16 787.555 1122.68C782.561 1110.36 781.642 1096.28 784.079 1083.32V1083.36ZM789.114 1126.36C789.114 1126.36 789.114 1126.32 789.114 1126.28C809.331 1127.04 829.669 1125.88 849.846 1125.64C870.544 1125.4 891.201 1125.64 911.898 1125.8C921.967 1125.88 931.996 1126 942.065 1126.16C937.35 1138.16 928.799 1147.88 916.892 1153.48C902.548 1160.24 885.887 1160.6 870.344 1160.2C854.322 1159.76 837.9 1159 822.517 1154.12C807.893 1149.48 795.906 1140.24 789.154 1126.32L789.114 1126.36ZM1724.4 1122.28C1719.33 1122.2 1714.21 1122.16 1709.14 1122.2C1709.34 1122.04 1709.54 1121.88 1709.7 1121.72C1712.57 1119.28 1715.41 1116.84 1718.33 1114.52C1720.6 1114.4 1722.84 1114.24 1725.08 1114.08C1724.96 1116.84 1724.8 1119.6 1724.52 1122.36C1724.48 1122.36 1724.44 1122.36 1724.4 1122.36V1122.28ZM1661.87 1122.68C1657.91 1120.68 1654.08 1118.52 1650.52 1115.92C1657.91 1115.84 1665.31 1115.68 1672.66 1115.56C1668.98 1117.76 1665.39 1120.16 1661.87 1122.68ZM1624.23 1123.68C1620.63 1121.24 1617 1118.72 1613.24 1116.4C1619 1116.32 1624.71 1116.2 1630.46 1116.16C1632.5 1116.16 1634.54 1116.12 1636.54 1116.08C1632.42 1118.6 1628.31 1121.12 1624.23 1123.64V1123.68ZM1597.1 1123.52C1598.78 1122.4 1599.98 1120.84 1601.18 1119.24C1601.98 1118.16 1602.77 1117.12 1603.69 1116.52C1604.85 1116.52 1605.97 1116.52 1607.13 1116.48C1607.25 1116.52 1607.33 1116.56 1607.45 1116.64C1611.48 1119.04 1615.28 1121.88 1619.12 1124.6C1615.52 1124.72 1611.88 1124.84 1608.29 1124.96C1602.93 1125.16 1597.58 1125.32 1592.19 1125.6C1593.82 1125.28 1595.46 1124.6 1597.1 1123.56V1123.52ZM1587.23 1121.84C1583.4 1121.04 1580.04 1119.08 1576.88 1116.8C1584.35 1116.96 1591.83 1116.68 1599.26 1116.56C1597.9 1118.16 1596.66 1119.88 1594.74 1120.88C1592.47 1122.04 1589.71 1122.32 1587.23 1121.8V1121.84ZM1643.21 1116C1643.77 1116 1644.37 1116 1644.93 1116C1647.88 1118.8 1651 1121.36 1654.4 1123.52C1646.33 1123.76 1638.26 1124 1630.14 1124.24C1634.46 1121.48 1638.81 1118.72 1643.17 1116.04L1643.21 1116ZM1680.57 1115.4C1683.53 1115.32 1686.52 1115.28 1689.48 1115.2C1691.08 1116.56 1692.68 1117.92 1694.23 1119.24C1695.27 1120.12 1696.39 1121.28 1697.63 1122.32C1687.8 1122.48 1677.97 1122.8 1668.14 1123.08C1672.06 1120.2 1676.21 1117.6 1680.57 1115.4ZM1705.02 1119.68C1703.5 1120.76 1703.02 1120.6 1701.59 1119.44C1699.79 1118 1697.99 1116.52 1696.23 1115.08C1701.15 1114.96 1706.1 1114.88 1711.01 1114.76C1710.26 1115.4 1709.54 1116.04 1708.78 1116.64C1707.54 1117.64 1706.34 1118.76 1705.06 1119.68H1705.02ZM1727.92 1071.8C1729.35 1074.28 1730.07 1078.64 1727.36 1080.6C1725.48 1081.96 1722.64 1081.64 1720.44 1081.68C1717.13 1081.68 1713.77 1081.72 1710.46 1081.76C1708.46 1081.76 1706.42 1081.76 1704.42 1081.76C1708.9 1077.2 1713.41 1072.6 1717.97 1068.08C1718.45 1067.6 1718.61 1067.08 1718.69 1066.56C1722.28 1067.16 1726.08 1068.52 1727.96 1071.76L1727.92 1071.8ZM1606.81 1052.36C1607.97 1053.44 1609.09 1054.48 1610.25 1055.56C1609.89 1056.24 1609.53 1056.92 1609.17 1057.6C1608.05 1059.64 1611.29 1061.12 1612.16 1058.88C1612.28 1058.52 1612.48 1058.2 1612.64 1057.84C1613.6 1058.76 1614.52 1059.68 1615.48 1060.56C1615.68 1060.72 1615.84 1060.92 1616.04 1061.08C1616.04 1061.12 1616.04 1061.16 1616.04 1061.2C1612.52 1061.28 1609.01 1061.36 1605.45 1061.4C1605.33 1061.32 1605.25 1061.2 1605.13 1061.12C1604.29 1060.68 1603.53 1060.2 1602.73 1059.72C1602.93 1059.24 1603.13 1058.76 1603.37 1058.32C1604.25 1056.6 1605.21 1054.92 1606.21 1053.28C1606.41 1052.96 1606.65 1052.64 1606.85 1052.32L1606.81 1052.36ZM1609.25 1048.6C1610.17 1047.28 1611.21 1046.04 1612.04 1044.72C1613.92 1043.88 1615.84 1043.08 1617.8 1042.36C1616.6 1044.24 1615.4 1046.08 1614.28 1048C1613.4 1049.52 1612.56 1051.08 1611.76 1052.64C1610.65 1051.68 1609.57 1050.72 1608.45 1049.76C1608.73 1049.36 1608.97 1048.96 1609.21 1048.6H1609.25ZM1629.39 1038.84C1628.19 1040.84 1626.95 1042.84 1625.75 1044.84C1624.31 1043.64 1622.83 1042.44 1621.39 1041.24C1621.39 1041.16 1621.47 1041.12 1621.51 1041.04C1624.11 1040.2 1626.75 1039.44 1629.43 1038.84H1629.39ZM1644.33 1036.76C1644.85 1036.76 1645.37 1036.76 1645.89 1036.72C1646.21 1037.64 1647.01 1038.04 1647.8 1037.92C1646.49 1040.2 1645.21 1042.48 1643.93 1044.76C1642.81 1043.92 1641.73 1043.08 1640.61 1042.2C1641.81 1040.4 1643.01 1038.6 1644.29 1036.8C1644.29 1036.8 1644.29 1036.76 1644.29 1036.72L1644.33 1036.76ZM1697.35 1059.6C1697.59 1059.8 1697.83 1059.88 1698.07 1059.92C1697.75 1059.92 1697.43 1059.92 1697.15 1059.92C1697.19 1059.8 1697.23 1059.64 1697.31 1059.52C1697.31 1059.52 1697.35 1059.56 1697.39 1059.6H1697.35ZM1699.03 1079.72C1693.59 1075.48 1688.52 1070.84 1683.45 1066.16C1688.56 1066.16 1693.67 1066.16 1698.79 1066.16C1703.3 1066.16 1707.86 1065.96 1712.37 1066.12C1707.94 1070.68 1703.5 1075.24 1698.99 1079.76L1699.03 1079.72ZM1661.47 1079.36C1656.91 1075.12 1652.28 1070.92 1647.56 1066.88C1657.47 1066.48 1667.38 1065.92 1677.25 1065.2C1677.25 1065.2 1677.33 1065.24 1677.33 1065.28C1671.7 1069.6 1666.18 1074.04 1661.47 1079.36ZM1623.59 1080.8C1619 1076.64 1614.48 1072.4 1610.01 1068.12C1619.6 1067.84 1629.23 1067.56 1638.85 1067.2C1633.46 1071.4 1628.23 1075.76 1623.59 1080.8ZM1633.5 1055.64C1634.5 1056.52 1635.46 1057.44 1636.5 1058.32C1636.14 1058.96 1635.78 1059.6 1635.42 1060.24C1635.3 1060.48 1635.22 1060.72 1635.22 1060.92C1633.5 1060.92 1631.78 1060.96 1630.06 1061C1630.98 1059.04 1632.02 1057.12 1632.98 1055.16C1633.14 1055.32 1633.3 1055.44 1633.46 1055.6L1633.5 1055.64ZM1651.36 1036.68C1651.36 1037.04 1651.48 1037.4 1651.84 1037.72C1653.08 1038.8 1654.32 1039.84 1655.56 1040.92C1654.16 1043.24 1652.8 1045.56 1651.52 1047.96C1651.2 1048.6 1650.88 1049.24 1650.56 1049.84C1649.8 1049.28 1649.04 1048.68 1648.28 1048.12C1647.64 1047.64 1647.01 1047.16 1646.37 1046.64C1648.04 1043.32 1649.72 1040 1651.28 1036.64L1651.36 1036.68ZM1686.96 1046.04C1686.2 1045.4 1685.4 1044.76 1684.6 1044.12C1685.68 1044.6 1686.76 1045.12 1687.84 1045.64C1687.68 1045.88 1687.48 1046.12 1687.32 1046.36C1687.2 1046.28 1687.08 1046.16 1687 1046.08L1686.96 1046.04ZM1685.12 1048.2C1685.12 1048.2 1685.44 1048.48 1685.6 1048.64C1685.04 1049.4 1684.52 1050.16 1683.96 1050.88C1682.57 1052.8 1681.17 1054.68 1679.77 1056.56C1678.65 1055.6 1677.49 1054.72 1676.37 1053.8C1678.21 1051.04 1680.09 1048.28 1681.93 1045.52C1683.01 1046.4 1684.08 1047.28 1685.12 1048.2ZM1677.81 1059.32C1677.61 1059.72 1677.57 1060.16 1677.69 1060.6C1677.53 1060.72 1677.33 1060.84 1677.17 1061C1675.41 1061 1673.62 1060.92 1671.86 1060.88C1672.7 1059.52 1673.54 1058.16 1674.42 1056.8C1675.53 1057.68 1676.65 1058.52 1677.81 1059.32ZM1667.78 1060.76C1666.38 1060.76 1665.03 1060.76 1663.63 1060.76C1664.03 1060 1663.95 1058.96 1662.99 1058.36C1662.43 1058.04 1661.87 1057.76 1661.31 1057.44C1662.79 1054.84 1664.27 1052.2 1665.74 1049.56C1667.86 1051.32 1669.98 1053.16 1672.14 1054.92C1670.7 1056.88 1669.3 1058.84 1667.82 1060.72L1667.78 1060.76ZM1651.84 1055.12C1652.68 1055.8 1653.48 1056.48 1654.32 1057.12C1655.04 1057.68 1655.76 1058.32 1656.55 1058.92C1656.48 1059.04 1656.4 1059.16 1656.32 1059.28C1655.96 1059.8 1656 1060.32 1656.2 1060.76C1653.96 1060.76 1651.76 1060.76 1649.52 1060.76C1650.16 1059.24 1650.76 1057.68 1651.4 1056.16C1651.56 1055.8 1651.72 1055.44 1651.88 1055.12H1651.84ZM1658.59 1055.8C1657.75 1055.2 1656.91 1054.6 1656.08 1053.96C1655.16 1053.28 1654.24 1052.56 1653.32 1051.88C1653.72 1051.04 1654.08 1050.2 1654.48 1049.36C1655.56 1047.16 1656.71 1045 1657.87 1042.84C1659.83 1044.56 1661.79 1046.28 1663.79 1047.92C1662.03 1050.52 1660.31 1053.16 1658.55 1055.76L1658.59 1055.8ZM1646.85 1051C1647.6 1051.6 1648.36 1052.24 1649.08 1052.84C1648.84 1053.36 1648.56 1053.84 1648.32 1054.36C1647.37 1056.44 1646.29 1058.52 1645.61 1060.72C1644.13 1060.72 1642.65 1060.76 1641.17 1060.8C1642.05 1060.28 1642.53 1058.92 1641.69 1058C1641.49 1057.8 1641.21 1057.6 1641.01 1057.4C1642.37 1054.76 1643.69 1052.16 1645.05 1049.52C1645.65 1050 1646.25 1050.52 1646.89 1051H1646.85ZM1639.57 1060.72C1639.57 1060.72 1639.73 1060.76 1639.77 1060.8C1639.57 1060.8 1639.41 1060.8 1639.21 1060.8C1639.25 1060.72 1639.29 1060.64 1639.33 1060.56C1639.41 1060.6 1639.45 1060.68 1639.53 1060.72H1639.57ZM1626.07 1061C1624.59 1061 1623.07 1061.04 1621.59 1061.08C1621.07 1060.56 1620.59 1060.04 1620.04 1059.6C1622.03 1056.04 1624.03 1052.52 1626.03 1049C1626.59 1049.48 1627.15 1049.96 1627.67 1050.44C1628.59 1051.24 1629.5 1052.04 1630.42 1052.88C1628.87 1055.52 1627.35 1058.24 1626.03 1061.04L1626.07 1061ZM1617.8 1057.68C1616.56 1056.64 1615.32 1055.56 1614.08 1054.52C1614.96 1052.72 1615.88 1050.92 1616.8 1049.2C1617.8 1047.32 1618.88 1045.56 1619.96 1043.72C1621.35 1044.96 1622.79 1046.16 1624.19 1047.4C1622.07 1050.84 1619.96 1054.28 1617.8 1057.72V1057.68ZM1694.87 1057.8C1694.51 1058.48 1694.19 1059.16 1693.87 1059.84C1689.92 1059.84 1685.96 1059.84 1682.01 1059.88C1683.53 1057.4 1685.04 1054.92 1686.56 1052.48C1686.96 1051.8 1687.4 1051.16 1687.8 1050.48C1688.96 1051.52 1690.16 1052.56 1691.32 1053.64C1692.6 1054.84 1693.87 1056.12 1695.15 1057.32C1695.07 1057.48 1694.99 1057.6 1694.91 1057.76L1694.87 1057.8ZM1693.35 1051.6C1692.04 1050.4 1690.68 1049.2 1689.32 1048.04C1689.6 1047.6 1689.88 1047.12 1690.12 1046.64C1692.99 1048.12 1695.75 1049.8 1698.43 1051.56C1697.79 1052.56 1697.15 1053.52 1696.59 1054.56C1695.51 1053.56 1694.43 1052.56 1693.35 1051.56V1051.6ZM1676.49 1041C1677.69 1041.96 1678.89 1042.92 1680.09 1043.92C1678.17 1046.64 1676.21 1049.36 1674.3 1052.08C1671.98 1050.28 1669.66 1048.52 1667.42 1046.68C1668.74 1044.32 1670.06 1042 1671.38 1039.64C1671.38 1039.6 1671.38 1039.56 1671.38 1039.48C1673.1 1039.92 1674.81 1040.44 1676.49 1041ZM1665.66 1045.24C1663.63 1043.56 1661.59 1041.84 1659.55 1040.12C1660.07 1039.24 1660.55 1038.36 1661.11 1037.52C1664.03 1037.92 1666.9 1038.44 1669.74 1039.12C1668.38 1041.16 1667.02 1043.2 1665.66 1045.24ZM1657.35 1038.24C1656.83 1037.8 1656.28 1037.32 1655.76 1036.88C1656.56 1036.96 1657.31 1037 1658.11 1037.08C1657.87 1037.48 1657.63 1037.84 1657.39 1038.24H1657.35ZM1642.49 1047.44C1641.09 1049.96 1639.69 1052.52 1638.34 1055.04C1637.5 1054.36 1636.62 1053.72 1635.78 1053.04C1635.42 1052.72 1635.02 1052.44 1634.66 1052.12C1634.9 1051.72 1635.06 1051.28 1635.3 1050.88C1636.5 1048.76 1637.78 1046.72 1639.09 1044.64C1640.21 1045.56 1641.37 1046.48 1642.49 1047.4V1047.44ZM1632.66 1049.36C1632.5 1049.6 1632.34 1049.88 1632.22 1050.12C1631.42 1049.44 1630.62 1048.8 1629.78 1048.12C1629.07 1047.52 1628.39 1046.96 1627.67 1046.36C1629.11 1043.88 1630.58 1041.4 1632.02 1038.88C1633.66 1040.2 1635.3 1041.52 1636.94 1042.88C1635.46 1045 1634.06 1047.16 1632.7 1049.36H1632.66ZM1604.81 1068.4C1609.05 1073.28 1613.6 1077.84 1618.36 1082.24C1609.29 1082.28 1600.22 1082.32 1591.15 1082.4C1595.82 1077.84 1600.22 1073.04 1604.81 1068.44V1068.4ZM1643.41 1068.68C1647.88 1073.24 1652.56 1077.68 1657.27 1082.04C1655.72 1082.04 1654.2 1082.04 1652.64 1082.04C1644.57 1082.08 1636.54 1082.12 1628.47 1082.16C1632.94 1077.12 1637.82 1072.4 1643.41 1068.64V1068.68ZM1679.65 1068.96C1683.72 1073.68 1688.36 1077.96 1693.23 1081.84C1692.52 1081.84 1691.76 1081.84 1691.04 1081.84C1682.49 1081.88 1673.98 1081.92 1665.43 1081.96C1669.5 1076.92 1674.14 1072.32 1679.65 1068.92V1068.96ZM1704.34 1059.96C1702.46 1059.96 1700.59 1059.96 1698.71 1059.96C1699.67 1059.76 1700.35 1058.56 1699.47 1057.6C1699.23 1057.32 1698.91 1057.04 1698.67 1056.76C1698.75 1056.56 1698.87 1056.36 1698.95 1056.16C1699.47 1055.12 1700.03 1054.12 1700.59 1053.12C1703.62 1055.24 1706.58 1057.48 1709.38 1059.96C1707.7 1059.96 1706.02 1059.96 1704.34 1059.96ZM1705.5 1040.32C1693.75 1036.84 1682.53 1031.6 1671.98 1025.44C1662.71 1020 1654.84 1013.12 1651.24 1002.72C1651.16 1002.48 1651.12 1002.28 1651.04 1002.04C1651.12 994.798 1651.08 987.558 1651.12 980.318C1653.88 982.598 1656.67 984.878 1659.39 987.198C1664.83 991.798 1670.22 996.358 1675.73 1000.84C1686.88 1010 1698.39 1018.68 1709.46 1027.88C1710.7 1028.92 1712.53 1027.16 1711.25 1026.08C1700.31 1016.56 1689.8 1006.52 1678.89 996.958C1673.42 992.198 1667.94 987.478 1662.43 982.758C1659.75 980.478 1657.11 978.158 1654.48 975.838C1656.87 976.318 1659.31 976.758 1661.75 977.118C1678.45 981.918 1695.19 986.998 1710.42 995.598C1718.49 1000.16 1726.04 1005.8 1732.47 1012.52C1739.38 1019.76 1744.66 1028.4 1748.69 1037.56C1751.61 1044.28 1753.77 1051.32 1755.53 1058.4C1741.86 1047.28 1722.12 1045.2 1705.5 1040.28V1040.32ZM1550.35 828.718C1564.46 836.678 1578.56 844.638 1592.71 852.518C1606.01 859.918 1619.72 867.478 1629.66 879.318C1638.34 889.598 1642.49 902.598 1644.29 915.758C1641.37 910.478 1637.94 905.478 1634.1 900.798C1619 882.358 1598.38 869.478 1579.48 855.358C1569.13 847.638 1559.1 839.478 1550.55 829.718C1550.47 829.358 1550.39 829.038 1550.35 828.678V828.718ZM1594.26 843.078C1594.14 841.638 1594.06 840.238 1593.98 838.798C1593.82 836.118 1593.74 833.438 1593.7 830.718C1593.62 825.318 1593.74 819.958 1594.1 814.558C1594.62 806.918 1595.66 799.318 1597.14 791.838C1611.01 804.278 1623.75 817.478 1632.9 833.918C1641.89 850.078 1647.41 868.278 1649 886.678C1649.68 894.558 1649.68 902.518 1648.92 910.398C1647.09 899.718 1643.81 889.278 1637.78 880.158C1629.15 867.078 1615.96 857.838 1602.65 850.038C1600.1 848.558 1597.5 847.078 1594.94 845.638C1594.82 845.558 1594.78 845.438 1594.66 845.358C1594.54 845.278 1594.42 845.278 1594.34 845.238C1594.3 844.358 1594.34 843.398 1594.3 842.998L1594.26 843.078ZM1749.41 1024.96C1746.62 1020.16 1743.38 1015.56 1739.66 1011.36C1726.6 996.598 1708.22 987.918 1689.68 982.118C1685.44 980.798 1681.17 979.558 1676.89 978.398C1693.23 978.798 1709.62 976.118 1725.04 970.598C1725.32 971.118 1725.76 971.518 1726.48 971.758C1742.34 976.518 1756.2 985.518 1766.99 998.158C1777.3 1010.24 1784.37 1024.68 1789.01 1039.84C1786.37 1038.44 1783.57 1037.24 1780.9 1036.2C1770.55 1032.08 1760.16 1028.04 1749.45 1025L1749.41 1024.96ZM1782.38 981.558C1792.17 994.078 1794.96 1010.4 1795.16 1025.92C1795.24 1031.76 1794.88 1037.6 1794.44 1043.44C1793.72 1042.84 1793 1042.24 1792.21 1041.72C1786.13 1015.48 1772.23 990.478 1748.85 975.998C1743.5 972.678 1737.63 969.918 1731.55 968.078C1736.51 965.998 1741.34 963.678 1745.98 960.998C1760.2 962.598 1773.55 970.358 1782.34 981.558H1782.38ZM1675.85 972.798C1667.66 972.558 1659.43 971.438 1651.44 969.558C1656.48 965.638 1661.67 962.158 1667.54 959.438C1674.69 956.118 1682.29 953.758 1689.96 951.998C1706.78 948.078 1724.04 946.798 1740.98 943.638C1750.53 941.878 1759.96 939.558 1768.99 935.878C1744.78 960.478 1710.26 973.838 1675.81 972.838L1675.85 972.798ZM1745.1 931.038C1751.97 931.238 1758.84 932.318 1765.43 934.278C1738.14 943.758 1708.26 941.558 1680.61 949.318C1700.51 938.278 1721.88 930.318 1745.1 931.038ZM1759.92 897.078C1750.29 907.598 1739.7 918.198 1725.96 922.998C1719.09 925.398 1711.93 926.838 1704.98 928.998C1698.23 931.118 1691.6 933.758 1685.2 936.758C1673.74 942.158 1663.11 949.078 1653.36 957.118C1653.48 956.358 1653.56 955.598 1653.64 954.838C1653.72 954.638 1653.8 954.438 1653.84 954.158C1655.76 927.798 1667.98 903.238 1686.04 884.158C1704.66 864.518 1728.8 850.798 1754.09 841.718C1769.83 836.078 1786.17 831.878 1802.91 830.838C1792.44 855.078 1777.74 877.638 1759.92 897.078ZM1672.18 871.878C1675.69 864.958 1679.89 858.358 1685.6 852.998C1691.28 847.638 1698.19 843.758 1705.18 840.438C1719.85 833.558 1735.79 829.038 1751.85 826.998C1768.03 824.958 1784.53 825.158 1800.6 827.998C1785.89 828.958 1771.47 832.198 1757.48 836.678C1744.26 840.918 1731.39 846.318 1719.25 853.038C1695.19 866.438 1674.18 885.678 1661.23 910.198C1658.79 914.798 1656.71 919.558 1654.92 924.478C1655.28 922.718 1655.56 920.918 1655.92 919.158C1659.43 902.838 1664.63 886.758 1672.18 871.838V871.878ZM1638.89 812.318C1650.76 824.958 1658.47 841.118 1659.63 858.518C1660.31 868.598 1659.51 879.038 1658.19 889.118C1657.15 892.078 1656.2 895.038 1655.32 897.998C1654.72 866.918 1643.29 836.198 1622.59 812.758C1615.08 804.238 1606.45 796.838 1597.62 789.678C1597.9 788.318 1598.22 786.998 1598.54 785.638C1613.6 791.838 1627.67 800.398 1638.89 812.358V812.318ZM1555.67 858.038C1554.35 850.318 1553.07 842.558 1551.63 834.838C1565.74 850.438 1582.96 862.518 1599.5 875.478C1616.96 889.198 1634.54 905.198 1642.81 926.398C1644.09 929.678 1645.05 932.958 1645.81 936.238C1646.01 945.158 1645.81 954.078 1645.57 962.998C1641.41 961.398 1637.26 960.238 1633.02 959.478C1632.86 958.678 1632.38 957.918 1631.3 957.478C1610.33 948.318 1588.55 938.438 1575.4 918.718C1563.42 900.758 1559.26 878.998 1555.67 858.078V858.038ZM1571.69 934.078C1557.78 930.878 1543.48 930.118 1529.5 927.638C1529.38 927.478 1529.26 927.318 1529.14 927.158C1543.76 925.398 1558.42 927.958 1571.69 934.078ZM1531.57 930.558C1544.6 932.958 1557.82 934.238 1570.65 937.478C1576.6 938.998 1582.48 940.958 1588.03 943.678C1593.38 947.438 1598.7 951.438 1604.13 955.118C1604.41 955.398 1604.69 955.638 1604.97 955.878C1605.37 956.278 1605.85 956.438 1606.29 956.478C1607.77 957.438 1609.25 958.358 1610.77 959.278C1602.37 960.558 1594.22 963.158 1586.55 966.718C1586.27 966.478 1585.91 966.278 1585.47 966.158C1564.46 960.238 1545.16 947.678 1531.57 930.558ZM1617.88 1001.24C1611.44 1009.08 1604.77 1016.88 1596.86 1023.24C1589.67 1029.04 1581.36 1033.04 1572.73 1036.16C1557.18 1041.76 1540.52 1045.16 1526.22 1053.44C1544.4 1023.16 1573.49 999.878 1606.81 988.398C1615.56 985.398 1624.63 983.238 1633.78 981.918C1628.47 988.358 1623.15 994.798 1617.88 1001.24ZM1638.45 976.238C1638.02 975.918 1637.5 975.718 1636.78 975.798C1598.98 980.558 1563.62 1000.44 1539.04 1029.48C1535.25 1033.96 1531.77 1038.64 1528.54 1043.52C1534.81 1028.32 1542.76 1013.68 1553.15 1001.04C1567.53 983.518 1586.55 970.558 1608.85 965.678C1612.56 964.878 1616.4 964.318 1620.24 964.038C1622.79 965.118 1625.39 966.078 1628.15 966.798C1632.06 967.798 1636.14 967.758 1640.05 968.678C1640.41 968.758 1641.65 968.998 1642.45 969.398C1642.45 969.678 1642.45 969.998 1642.41 970.278C1642.21 970.798 1642.17 971.398 1642.33 971.958C1641.45 972.998 1640.25 974.118 1639.89 974.558C1639.41 975.118 1638.93 975.718 1638.45 976.278V976.238ZM1650.88 1014.92C1653.68 1019 1657.15 1022.64 1661.31 1025.76C1665.35 1028.8 1669.74 1031.44 1674.26 1033.84C1671.9 1033.2 1669.5 1032.64 1667.1 1032.16C1661.47 1031.08 1655.76 1030.6 1650 1030.56C1650.44 1025.36 1650.72 1020.16 1650.92 1014.92H1650.88ZM1641.41 1036.88C1640.49 1038.08 1639.57 1039.28 1638.69 1040.48C1637.5 1039.56 1636.26 1038.6 1635.06 1037.68C1635.46 1037.6 1635.86 1037.52 1636.26 1037.44C1637.98 1037.2 1639.65 1037.04 1641.37 1036.88H1641.41ZM1606.93 1047.16C1606.77 1047.36 1606.65 1047.6 1606.49 1047.8C1606.41 1047.72 1606.29 1047.64 1606.21 1047.56C1606.45 1047.44 1606.69 1047.28 1606.97 1047.16H1606.93ZM1603.49 1049C1603.93 1049.4 1604.37 1049.8 1604.77 1050.24C1604.45 1050.76 1604.05 1051.2 1603.73 1051.72C1602.69 1053.36 1601.74 1055.04 1600.86 1056.72C1600.66 1057.12 1600.42 1057.56 1600.22 1057.96C1598.54 1056.8 1596.94 1055.56 1595.38 1054.28C1595.94 1053.88 1596.5 1053.44 1597.06 1053.08C1599.14 1051.64 1601.3 1050.28 1603.49 1049.04V1049ZM1591.03 1057.48C1591.83 1056.88 1592.63 1056.32 1593.42 1055.72C1595.1 1057.6 1596.94 1059.32 1598.86 1060.96C1598.78 1061.16 1598.7 1061.32 1598.62 1061.52C1594.74 1061.6 1590.83 1061.68 1586.95 1061.76C1587.55 1059.84 1589.43 1058.64 1591.03 1057.48ZM1583.96 1068.72C1589.35 1068.6 1594.78 1068.44 1600.18 1068.28C1596.1 1072.72 1591.59 1076.8 1587.11 1080.8C1583.56 1076.76 1579.88 1072.84 1576.2 1068.88C1578.84 1068.72 1581.48 1068.8 1583.96 1068.72ZM1563.98 1079.8C1561.54 1076.4 1565.26 1072 1568.25 1070.6C1569.57 1069.96 1571.01 1069.56 1572.45 1069.32C1576 1073.68 1579.56 1078.08 1583.2 1082.36C1580.76 1082.36 1578.28 1082.36 1575.84 1082.4C1572.37 1082.4 1566.33 1083.12 1563.94 1079.84L1563.98 1079.8ZM1582.88 1089.04C1590.19 1088.96 1597.5 1088.92 1604.85 1088.84C1619.16 1088.68 1633.46 1088.52 1647.76 1088.36C1662.07 1088.2 1676.37 1088.04 1690.68 1087.88C1697.83 1087.8 1704.98 1087.72 1712.13 1087.68C1715.57 1087.68 1718.97 1087.68 1722.4 1087.56C1723.76 1087.56 1725.12 1087.44 1726.44 1087.2C1725.64 1094.32 1725.64 1101.6 1725.48 1108.84C1715.77 1108.44 1705.98 1108.84 1696.27 1108.96C1693.79 1108.96 1691.36 1109.04 1688.88 1109.08C1688.6 1108.88 1688.36 1108.64 1688.08 1108.44C1687.48 1108 1686.68 1108.16 1686.08 1108.44C1685.6 1108.68 1685.12 1108.92 1684.64 1109.16C1678.25 1109.24 1671.86 1109.32 1665.47 1109.48C1644.93 1109.96 1624.35 1110.68 1603.81 1111.16C1592.67 1111.44 1581.36 1111.28 1570.25 1112.52C1568.77 1104.76 1569.05 1097.04 1570.17 1089.08C1574.41 1089.44 1578.8 1089.08 1582.96 1089.08L1582.88 1089.04ZM1571.09 1116.44C1575.76 1120.6 1582 1125.16 1588.39 1125.72C1584.11 1125.96 1579.88 1126.28 1575.64 1126.8C1575.44 1126.8 1575.24 1126.88 1575.09 1126.96C1573.65 1124 1572.37 1120.92 1571.41 1117.76C1571.29 1117.32 1571.17 1116.88 1571.09 1116.48V1116.44ZM1631.62 1161.44C1614.84 1159.56 1597.7 1154.28 1585.51 1142.04C1581.96 1138.44 1579 1134.4 1576.56 1130C1585.83 1130.6 1595.14 1130.4 1604.41 1130.36C1614.16 1130.32 1623.95 1130.12 1633.7 1129.96C1653.04 1129.64 1672.42 1129.4 1691.8 1128.84C1702.5 1128.52 1713.21 1128.16 1723.92 1127.44C1723.44 1130.28 1722.84 1133.12 1721.92 1135.88C1719.41 1143.68 1714.29 1150.12 1707.3 1154.36C1700.27 1158.6 1692.04 1160.52 1684 1161.52H1632.58C1632.26 1161.52 1631.9 1161.48 1631.58 1161.44H1631.62ZM1405.87 1161.52C1405.75 1152.4 1405.31 1143.28 1405.07 1134.16C1404.95 1130.44 1404.87 1126.72 1404.79 1122.96C1429.01 1122.8 1453.22 1122.72 1477.35 1121.48C1478.19 1134.84 1479.07 1148.16 1480.07 1161.52H1405.87ZM1321.57 1161.52C1321.45 1152.4 1321.01 1143.28 1320.77 1134.16C1320.69 1130.76 1320.61 1127.36 1320.49 1123.96C1343.34 1123.68 1366.24 1123.4 1389.09 1123.12C1391.69 1123.12 1394.28 1123.08 1396.88 1123.04C1396.96 1125.4 1397 1127.8 1397.08 1130.16C1397.4 1140.6 1397.48 1151.08 1398.08 1161.52H1321.65H1321.57ZM1237.26 1161.52C1237.14 1152.4 1236.7 1143.28 1236.46 1134.16C1236.38 1131.12 1236.3 1128.08 1236.22 1125C1261.67 1124.68 1287.12 1124.36 1312.58 1124.04C1312.62 1126.08 1312.66 1128.12 1312.73 1130.16C1313.05 1140.6 1313.13 1151.08 1313.73 1161.52H1237.3H1237.26ZM1152.95 1161.52C1152.83 1152.4 1152.39 1143.28 1152.15 1134.16C1152.07 1131.4 1151.99 1128.64 1151.95 1125.88C1176.41 1125.76 1200.86 1125.48 1225.31 1125.16C1226.31 1125.16 1227.31 1125.16 1228.35 1125.16C1228.39 1126.84 1228.43 1128.52 1228.47 1130.2C1228.79 1140.64 1228.87 1151.12 1229.47 1161.56H1153.03L1152.95 1161.52ZM1061.93 1099.92C1061.45 1078.44 1061.13 1057 1060.93 1035.52C1060.57 992.918 1060.85 950.318 1061.09 907.718C1061.09 905.638 1061.13 903.598 1061.17 901.518C1087.9 902.518 1114.67 902.598 1141.4 902.318C1141.12 922.878 1141.12 943.438 1141.24 963.998C1141.52 1007.28 1142.12 1050.52 1143.12 1093.8C1143.12 1095.44 1143.2 1097.04 1143.24 1098.68C1129.62 1098.88 1115.95 1099.08 1102.37 1099.72C1094.7 1100.08 1087.06 1100.36 1079.39 1100.76C1073.56 1101.08 1067.65 1101.28 1061.97 1102.52C1061.97 1101.68 1061.93 1100.84 1061.89 1100L1061.93 1099.92ZM1234.22 1036.84C1233.5 993.558 1233.34 950.318 1232.98 907.038C1232.98 904.798 1232.98 902.518 1232.94 900.278C1258.63 899.638 1284.37 899.078 1310.06 898.478C1310.06 898.478 1310.06 898.558 1310.06 898.598C1309.74 920.398 1309.74 942.198 1309.9 963.998C1310.18 1007.28 1310.78 1050.52 1311.78 1093.8C1311.78 1094.64 1311.82 1095.48 1311.86 1096.32C1286.4 1096.64 1260.95 1096.96 1235.5 1097.28C1235.02 1077.16 1234.58 1057.04 1234.26 1036.88L1234.22 1036.84ZM1471 962.158C1471.68 1004.84 1473.16 1047.48 1475.48 1090.08C1475.56 1091.64 1475.67 1093.2 1475.75 1094.76C1451.9 1094.04 1427.93 1094.64 1404.03 1095.04C1403.55 1075.64 1403.16 1056.24 1402.84 1036.84C1402.12 993.558 1401.96 950.318 1401.6 907.038C1401.6 903.318 1401.56 899.638 1401.52 895.918C1424.65 895.158 1447.79 894.398 1470.88 893.438C1470.48 916.358 1470.64 939.238 1471 962.158ZM1394.17 963.958C1394.44 1007.24 1395.04 1050.48 1396.04 1093.76C1396.04 1094.24 1396.04 1094.72 1396.04 1095.2C1395.68 1095.2 1395.32 1095.2 1394.96 1095.2C1369.87 1095.52 1344.78 1095.84 1319.69 1096.16C1319.21 1076.4 1318.77 1056.6 1318.45 1036.84C1317.73 993.558 1317.57 950.318 1317.21 907.038C1317.21 904.118 1317.17 901.198 1317.13 898.278C1339.51 897.758 1361.88 897.198 1384.22 896.478C1387.57 896.358 1390.93 896.238 1394.28 896.158C1394.28 896.958 1394.28 897.758 1394.28 898.558C1393.97 920.358 1393.97 942.158 1394.12 963.958H1394.17ZM1312.02 1104.12C1312.1 1108.16 1312.22 1112.2 1312.34 1116.2C1286.88 1116.52 1261.43 1116.84 1235.98 1117.16C1235.86 1113.12 1235.78 1109.08 1235.66 1105.04C1261.11 1104.72 1286.56 1104.4 1312.06 1104.08L1312.02 1104.12ZM1319.93 1104.04C1341.62 1103.76 1363.36 1103.48 1385.06 1103.24C1388.81 1103.2 1392.57 1103.16 1396.32 1103.16C1396.4 1107.16 1396.52 1111.16 1396.64 1115.16C1371.19 1115.48 1345.74 1115.8 1320.29 1116.16C1320.17 1112.12 1320.09 1108.08 1319.97 1104.08L1319.93 1104.04ZM1404.19 1103.08C1428.17 1102.92 1452.22 1102.84 1476.11 1101.48C1476.35 1105.88 1476.63 1110.24 1476.87 1114.64C1452.78 1114.04 1428.61 1114.64 1404.47 1115.04C1404.35 1111.04 1404.27 1107.08 1404.15 1103.08H1404.19ZM1471.04 886.758C1447.87 887.558 1424.65 888.318 1401.48 889.078C1401.48 885.998 1401.4 882.918 1401.4 879.878C1410.71 879.598 1419.98 879.278 1429.29 878.998C1443.31 878.558 1457.34 878.278 1471.32 877.358C1471.24 880.478 1471.16 883.638 1471.08 886.758H1471.04ZM1394.52 889.278C1368.75 890.078 1342.98 890.918 1317.21 891.758C1317.21 888.518 1317.13 885.318 1317.13 882.078C1339.55 881.638 1361.96 881.078 1384.38 880.358C1387.81 880.238 1391.25 880.158 1394.68 880.038C1394.64 883.118 1394.56 886.198 1394.52 889.278ZM1312.06 833.638C1311.22 847.238 1310.78 860.918 1310.5 874.558C1284.57 874.918 1258.67 875.238 1232.74 875.478C1232.58 861.718 1232.34 847.958 1231.78 834.238C1258.55 833.958 1285.33 833.758 1312.1 833.598C1312.1 833.598 1312.1 833.598 1312.1 833.638H1312.06ZM1310.34 882.198C1310.3 885.438 1310.22 888.718 1310.18 891.958C1284.45 892.798 1258.67 893.318 1232.9 893.758C1232.9 890.238 1232.82 886.758 1232.82 883.238C1258.67 883.038 1284.49 882.718 1310.34 882.198ZM1225.87 893.838C1200.86 894.238 1175.89 894.518 1150.87 894.918C1150.11 894.918 1149.4 894.918 1148.64 894.918C1148.64 891.038 1148.56 887.118 1148.52 883.238C1173.09 883.398 1197.66 883.478 1222.23 883.318C1223.51 883.318 1224.75 883.318 1226.03 883.318C1225.95 886.838 1225.91 890.358 1225.87 893.878V893.838ZM1222.23 900.518C1223.43 900.518 1224.59 900.478 1225.79 900.438C1225.51 921.598 1225.51 942.798 1225.63 963.958C1225.91 1007.24 1226.51 1050.48 1227.51 1093.76C1227.51 1094.96 1227.59 1096.16 1227.59 1097.36C1202.14 1097.68 1176.69 1098.08 1151.23 1098.52C1150.71 1077.96 1150.27 1057.4 1149.95 1036.88C1149.24 993.598 1149.08 950.358 1148.72 907.078C1148.72 905.438 1148.72 903.838 1148.72 902.198C1173.25 901.838 1197.74 901.198 1222.23 900.558V900.518ZM1062.13 1105.24C1067.41 1105.08 1072.72 1105.32 1077.99 1105.56C1084.63 1105.84 1091.3 1105.84 1097.97 1105.96C1111.64 1106.24 1125.26 1106.12 1138.93 1106.04C1140.45 1106.04 1142 1106.04 1143.52 1106.04C1143.64 1110.24 1143.72 1114.44 1143.84 1118.6C1131.38 1118.8 1118.91 1119 1106.44 1119.56C1098.77 1119.92 1091.14 1120.2 1083.47 1120.6C1076.48 1120.96 1069.36 1121.16 1062.65 1123.24C1062.45 1117.24 1062.25 1111.24 1062.09 1105.24H1062.13ZM1151.43 1105.96C1174.73 1105.8 1198.02 1105.56 1221.32 1105.28C1223.47 1105.28 1225.63 1105.24 1227.83 1105.2C1227.91 1109.24 1228.03 1113.28 1228.15 1117.32C1203.06 1117.64 1178 1118 1152.91 1118.48C1152.51 1118.48 1152.15 1118.48 1151.75 1118.48C1151.63 1114.32 1151.51 1110.16 1151.43 1105.96ZM1473.48 833.558C1473.48 833.558 1473.48 833.638 1473.48 833.678C1472.6 846.158 1471.96 858.678 1471.56 871.158C1448.19 871.238 1424.77 872.358 1401.4 872.958C1401.24 859.838 1400.96 846.718 1400.44 833.638C1400.44 833.558 1400.44 833.518 1400.4 833.438C1424.65 833.518 1448.9 833.678 1473.16 833.638C1473.32 833.638 1473.4 833.558 1473.56 833.558H1473.48ZM1396.44 833.438C1396.44 833.438 1396.4 833.558 1396.4 833.638C1395.6 846.758 1395.16 859.958 1394.88 873.158C1394.72 873.158 1394.56 873.158 1394.4 873.158C1368.63 873.678 1342.86 874.118 1317.09 874.438C1316.93 860.838 1316.65 847.198 1316.13 833.598C1316.13 833.598 1316.13 833.598 1316.13 833.558C1338.43 833.438 1360.68 833.358 1382.98 833.358C1387.49 833.358 1392.01 833.358 1396.52 833.398L1396.44 833.438ZM1147.52 835.238C1172.65 834.878 1197.82 834.598 1222.95 834.318C1224.55 834.318 1226.15 834.318 1227.75 834.318C1226.91 848.038 1226.47 861.798 1226.19 875.558C1201.1 875.798 1176.01 875.958 1150.87 876.038C1150.07 876.038 1149.28 876.038 1148.44 876.038C1148.28 862.438 1148.04 848.838 1147.48 835.278L1147.52 835.238ZM1140.88 883.238C1141.16 883.238 1141.44 883.238 1141.72 883.238C1141.64 887.198 1141.6 891.118 1141.52 895.078C1114.75 895.478 1087.98 896.038 1061.25 897.398C1061.33 891.838 1061.41 886.278 1061.49 880.718C1087.86 883.118 1114.47 883.038 1140.88 883.238ZM1062.69 1125.32C1069.08 1124.92 1075.56 1125.2 1081.95 1125.48C1088.58 1125.76 1095.26 1125.76 1101.93 1125.88C1115.59 1126.16 1129.22 1126.04 1142.88 1125.96C1143.24 1125.96 1143.64 1125.96 1144 1125.96C1144 1127.36 1144.08 1128.8 1144.12 1130.2C1144.44 1140.64 1144.52 1151.12 1145.12 1161.56H1063.61C1063.49 1149.48 1063.13 1137.4 1062.73 1125.32H1062.69ZM412.929 895.718C411.691 896.038 410.492 896.478 409.373 897.038C409.373 896.398 409.373 895.718 409.373 895.078C410.372 895.478 411.651 895.638 412.929 895.678V895.718ZM650.027 793.318C649.828 790.718 649.867 787.878 649.548 785.198C657.299 785.318 665.051 785.398 672.762 785.438C672.443 791.638 672.363 797.878 672.403 804.118C665.091 804.118 657.779 803.798 650.467 803.518C650.387 800.118 650.307 796.718 650.027 793.318ZM670.365 1051.48C666.729 1051.08 662.893 1051.28 659.297 1051.24C654.982 1051.16 650.707 1051.16 646.391 1051.16C637.641 1051.2 628.851 1051.28 620.1 1051.36C602.64 1051.52 585.139 1051.6 567.718 1053.2C567.718 1049.36 567.718 1045.52 567.758 1041.72C571.554 1040.96 575.829 1041.84 579.625 1041.96C583.94 1042.08 588.256 1042.16 592.531 1042.2C601.481 1042.28 610.431 1042.4 619.381 1042.48C628.331 1042.56 637.281 1042.72 646.232 1042.68C654.183 1042.68 662.414 1042.6 670.325 1041.48C670.325 1044.8 670.325 1048.16 670.325 1051.48H670.365ZM567.718 1057.64C585.139 1058.72 602.64 1058.4 620.1 1058.24C628.851 1058.16 637.641 1058.08 646.391 1058.04C650.707 1058.04 654.982 1057.96 659.297 1057.84C662.893 1057.76 666.729 1057.92 670.365 1057.52C670.365 1061.04 670.365 1064.56 670.365 1068.08C653.424 1067.6 636.442 1068.08 619.541 1068.72C610.631 1069.08 601.721 1069.68 592.811 1070.24C584.46 1070.76 575.829 1071.04 567.638 1072.96C567.638 1067.88 567.718 1062.76 567.758 1057.68L567.718 1057.64ZM643.834 875.838C643.834 879.878 650.107 879.878 650.107 875.838C650.107 860.078 650.786 844.358 650.786 828.598C650.786 821.678 650.667 814.758 650.507 807.838C657.819 807.838 665.131 807.958 672.403 808.438C672.403 812.398 672.482 816.358 672.522 820.278C672.602 832.678 672.802 845.078 672.842 857.478C672.962 882.118 672.762 906.758 672.363 931.398C671.763 966.318 670.844 1001.2 670.445 1036.12C662.134 1035.04 653.583 1035.12 645.273 1035.2C636.003 1035.28 626.693 1035.6 617.423 1035.8C608.154 1036 598.844 1036.24 589.574 1036.44C584.939 1036.56 580.304 1036.68 575.669 1037.04C573.072 1037.24 570.156 1037.24 567.798 1038.44C567.918 1007.8 567.958 977.158 568.437 946.518C568.757 926.238 569.476 905.918 569.596 885.638C569.596 884.878 569.277 884.118 568.797 883.518C569.396 869.278 569.916 855.078 569.956 840.798C569.956 830.838 569.956 820.878 569.716 810.918C569.716 810.158 569.716 809.358 569.676 808.598C572.873 809.318 576.748 808.998 579.745 808.998C584.06 808.998 588.335 808.918 592.651 808.798C601.561 808.598 610.511 808.438 619.461 808.318C627.572 808.198 635.723 807.958 643.874 807.838C643.674 814.758 643.514 821.638 643.475 828.558C643.395 844.318 643.994 860.038 643.874 875.798L643.834 875.838ZM562.005 931.078C546.462 930.038 530.799 930.318 515.216 931.038C501.272 931.638 487.327 932.638 473.462 934.398C473.422 931.398 473.303 928.398 473.263 925.398C480.415 925.918 487.687 925.598 494.879 925.478C502.67 925.358 510.462 925.038 518.253 924.678C525.885 924.318 533.516 923.918 541.148 923.518C548.14 923.158 555.132 922.278 562.084 921.878C562.084 924.958 562.045 928.038 562.005 931.118V931.078ZM341.808 884.958C341.728 881.758 341.648 878.598 341.568 875.398C351.877 875.598 362.225 875.198 372.574 875.318C377.848 875.358 383.162 875.558 388.436 875.758C393.111 875.918 397.866 876.478 402.581 876.478C402.741 900.278 402.9 924.078 403.06 947.878C403.38 996.478 403.38 1045.12 404.339 1093.72C404.459 1099.96 404.579 1106.24 404.658 1112.48C399.584 1112.16 394.35 1112.48 389.355 1112.64C383.402 1112.8 377.409 1113.04 371.415 1113.44C365.622 1113.84 359.788 1114.16 353.994 1114.8C350.998 1115.12 348.041 1115.48 345.044 1115.76C343.526 1115.92 342.008 1116.04 340.489 1116.24C341.089 1087.72 341.608 1059.2 341.848 1030.68C342.247 982.158 342.767 933.558 341.848 885.038L341.808 884.958ZM467.629 975.878C467.829 1013.64 468.628 1051.4 469.347 1089.16C467.909 1088.92 466.35 1089 464.912 1089C462.115 1089 459.318 1089.04 456.521 1089.12C445.813 1089.36 435.105 1090.16 424.437 1091.28C421.52 1091.6 418.603 1091.88 415.686 1092.36C414.488 1092.56 412.929 1092.76 411.491 1093.2C411.411 1072.4 411.251 1051.6 411.011 1030.8C410.492 989.878 410.013 948.958 409.493 908.078C427.393 907.238 445.294 906.358 463.194 905.518C464.392 905.478 465.671 905.358 466.87 905.118C467.229 928.718 467.509 952.318 467.629 975.918V975.878ZM441.538 1109.2C436.423 1109.36 431.309 1109.64 426.195 1110C421.44 1110.36 416.206 1110.52 411.571 1111.88C411.571 1109.36 411.571 1106.88 411.571 1104.36C421.72 1103.16 431.908 1102.4 442.137 1102.08C447.331 1101.92 452.526 1101.88 457.72 1101.96C461.196 1102 465.951 1102.84 469.587 1101.64C469.627 1103.96 469.667 1106.28 469.707 1108.64C460.317 1108.6 450.927 1108.88 441.538 1109.2ZM402.501 869.278C398.146 868.838 393.711 868.918 389.395 868.878C383.762 868.798 378.168 868.958 372.534 869.158C362.185 869.558 351.637 870.318 341.448 872.318C341.209 864.078 340.929 855.838 340.569 847.598C350.918 847.518 361.306 846.278 371.695 845.878C381.884 845.478 392.192 845.518 402.341 846.558C402.341 854.118 402.381 861.678 402.421 869.278H402.501ZM353.475 1120.24C359.628 1120.28 365.741 1120.08 371.895 1120C377.848 1119.92 383.841 1119.76 389.835 1119.56C394.749 1119.4 399.824 1119.44 404.778 1119C404.858 1123.48 404.938 1127.96 405.018 1132.44C400.024 1132.28 394.909 1132.88 389.995 1133.24C384.241 1133.64 378.487 1134.08 372.734 1134.48C361.906 1135.2 350.838 1135.24 340.09 1136.68C340.21 1131.24 340.33 1125.84 340.449 1120.4C344.805 1120.64 349.28 1120.24 353.555 1120.28L353.475 1120.24ZM339.93 1140.24C345.364 1140.8 350.918 1140.76 356.392 1140.8C362.145 1140.8 367.899 1140.84 373.653 1140.8C379.247 1140.72 384.84 1140.68 390.434 1140.48C395.309 1140.32 400.263 1140.28 405.138 1139.6C405.258 1146.96 405.418 1154.32 405.577 1161.64H404.698C393.79 1161.32 382.843 1161.08 371.935 1160.84C366.141 1160.68 360.307 1160.64 354.514 1160.68C351.677 1160.68 348.88 1160.68 346.043 1160.8C344.565 1160.88 343.047 1160.92 341.568 1161.08C340.849 1161.16 340.17 1161.32 339.451 1161.52C339.61 1154.44 339.77 1147.36 339.93 1140.28V1140.24ZM411.691 1161.64C411.691 1148.6 411.651 1135.52 411.611 1122.48C421.64 1122.56 431.629 1122.56 441.658 1122.4C451.047 1122.28 460.557 1122.32 469.946 1121.72C470.186 1135.04 470.466 1148.32 470.785 1161.64H411.691ZM476.899 1161.64C476.699 1122.4 476.1 1083.16 475.54 1043.92C475.26 1023.92 474.941 1003.92 474.581 983.958C474.302 968.558 473.862 953.198 473.542 937.838C487.607 937.678 501.671 937.198 515.696 936.878C531.119 936.558 546.582 936.438 561.965 935.678C561.845 954.958 561.765 974.238 561.445 993.518C560.886 1029.44 560.486 1065.4 560.526 1101.32C560.526 1121.44 560.606 1141.56 560.566 1161.64H476.859H476.899ZM567.598 1075.64C576.229 1076.68 585.099 1076 593.769 1075.8C602.52 1075.56 611.27 1075.52 620.02 1075.32C636.802 1074.96 653.583 1074.8 670.365 1074.2C670.365 1076.08 670.365 1077.96 670.365 1079.84C670.565 1107.12 671.284 1134.4 672.962 1161.64H567.159C567.159 1132.96 567.399 1104.32 567.638 1075.64H567.598ZM569.716 783.638C587.177 784.918 604.717 784.678 622.218 784.878C629.81 784.958 637.441 785.078 645.033 785.158C644.673 787.878 644.713 790.718 644.473 793.358C644.194 796.638 644.074 799.958 643.994 803.278C635.803 802.918 627.652 802.598 619.461 802.558C610.511 802.558 601.601 802.678 592.651 802.958C588.335 803.078 584.06 803.278 579.745 803.598C576.748 803.838 572.753 803.798 569.596 804.838C569.476 797.478 569.237 790.078 568.038 782.838C568.398 783.278 568.957 783.598 569.716 783.638ZM518.133 889.358C532.957 889.678 547.78 889.598 562.604 889.198C562.364 898.638 562.244 908.078 562.124 917.518C555.132 917.638 548.14 917.318 541.148 917.518C533.356 917.718 525.565 917.878 517.773 918.118C510.142 918.358 502.51 918.638 494.879 919.078C487.687 919.518 480.375 919.758 473.223 920.798C473.103 909.358 472.943 897.958 472.783 886.518C487.807 888.518 503.07 888.998 518.173 889.318L518.133 889.358ZM438.141 860.558C447.491 860.198 456.801 859.718 466.111 859.238C466.31 869.158 466.43 879.118 466.59 889.038C462.035 888.878 457.32 889.198 452.765 889.398C447.931 889.598 443.096 889.798 438.301 890.038C433.467 890.238 428.632 890.438 423.837 890.758C421.52 890.918 419.162 891.118 416.845 891.358C416.286 891.398 410.492 892.318 409.613 892.278C409.533 892.078 409.453 891.958 409.293 891.838C409.293 889.558 409.253 887.238 409.213 884.958C409.094 876.878 408.974 868.758 408.814 860.678C418.523 861.318 428.392 860.918 438.102 860.518L438.141 860.558ZM402.061 816.158C402.221 824.358 402.301 832.518 402.341 840.718C391.992 840.238 381.644 839.838 371.255 840.238C360.987 840.638 350.319 841.478 340.449 844.478C339.97 834.158 339.411 823.838 338.691 813.518C359.708 815.598 380.965 815.838 402.061 816.158ZM250.229 1270.28C250.229 1270.28 250.149 1270.4 250.109 1270.48C249.75 1269.92 249.909 1268.2 249.909 1267.24C249.909 1264.96 249.909 1262.68 249.909 1260.4C249.909 1260.16 249.909 1259.92 249.909 1259.64C255.184 1254.68 260.698 1249.96 266.291 1245.36C269.248 1242.96 272.205 1240.6 275.281 1238.36C278.398 1236.04 281.754 1234.04 284.871 1231.76C285.31 1231.44 285.55 1231.04 285.75 1230.64H291.184C288.267 1233.2 285.55 1236.04 282.753 1238.72C279.117 1242.2 275.481 1245.68 271.845 1249.16C264.573 1256.12 257.301 1263.08 250.269 1270.28H250.229ZM272.764 1234.12C269.608 1236.6 266.531 1239.12 263.534 1241.76C258.7 1245.96 254.225 1250.44 249.83 1255.08C249.83 1253.16 249.83 1251.28 249.83 1249.36C250.149 1249.36 250.509 1249.24 250.789 1249C254.225 1245.72 257.661 1242.44 261.337 1239.48C263.095 1238.08 264.893 1236.72 266.771 1235.44C268.769 1234.08 270.886 1232.84 272.844 1231.4C273.124 1231.2 273.364 1230.92 273.523 1230.68H277.119C275.681 1231.84 274.243 1233 272.804 1234.16L272.764 1234.12ZM264.573 1231.64C262.536 1233.2 260.578 1234.8 258.66 1236.48C255.463 1239.28 252.507 1242.36 249.83 1245.64C249.83 1245.52 249.83 1245.4 249.83 1245.24C249.83 1243.44 249.83 1241.64 249.75 1239.84C253.545 1236.72 257.381 1233.68 261.217 1230.64H265.892C265.452 1230.96 264.973 1231.32 264.533 1231.64H264.573ZM249.51 1235.76C249.47 1235.2 249.39 1234.68 249.35 1234.12C249.27 1233.48 249.27 1232.84 249.15 1232.2C249.07 1231.64 248.791 1231.16 248.591 1230.64H255.343C253.386 1232.36 251.468 1234.08 249.51 1235.76ZM298.096 1253.8C296.498 1254.84 294.94 1255.96 293.461 1257.16C291.344 1258.88 289.306 1260.76 287.428 1262.72C284.951 1265.28 282.753 1268.12 280.636 1271C277.159 1271 273.683 1271 270.247 1271C279.517 1263.68 288.787 1256.36 298.056 1249.04C298.056 1250.64 298.096 1252.24 298.096 1253.8ZM284.991 1271.04C286.629 1269.12 288.427 1267.32 290.305 1265.64C292.223 1263.96 294.221 1262.36 296.338 1260.92C296.938 1260.52 297.537 1260.16 298.136 1259.76C298.136 1262.84 298.136 1265.92 298.136 1269C297.697 1269.68 297.257 1270.36 296.818 1271.04C296.738 1271.04 296.658 1271.04 296.618 1271.04C294.141 1271.04 291.663 1271.04 289.186 1271.04C287.788 1271.04 286.389 1271.04 284.991 1271.04ZM297.936 1243.28C297.377 1243.28 296.818 1243.44 296.298 1243.88C285.83 1252.88 275.361 1261.96 264.893 1270.96C263.894 1270.96 262.935 1270.96 261.936 1270.96C259.779 1270.96 257.661 1270.96 255.503 1270.96C255.104 1270.96 254.584 1271 253.985 1271.04C261.057 1265.12 267.97 1259 274.882 1252.84C278.518 1249.6 282.194 1246.32 285.83 1243.08C289.546 1239.76 293.661 1236.6 297.017 1232.92C297.617 1232.28 297.737 1231.44 297.617 1230.68H298.136C297.896 1234.88 297.896 1239.08 297.936 1243.32V1243.28ZM1675.61 1270.28C1675.61 1270.28 1675.53 1270.4 1675.49 1270.48C1675.13 1269.92 1675.29 1268.2 1675.29 1267.24C1675.29 1264.96 1675.29 1262.68 1675.29 1260.4C1675.29 1260.16 1675.29 1259.92 1675.29 1259.64C1680.57 1254.68 1686.08 1249.96 1691.68 1245.36C1694.63 1242.96 1697.59 1240.6 1700.67 1238.36C1703.78 1236.04 1707.14 1234.04 1710.26 1231.76C1710.7 1231.44 1710.93 1231.04 1711.13 1230.64H1716.57C1713.65 1233.2 1710.93 1236.04 1708.14 1238.72C1704.5 1242.2 1700.87 1245.68 1697.23 1249.16C1689.96 1256.12 1682.69 1263.08 1675.65 1270.28H1675.61ZM1698.15 1234.12C1694.99 1236.6 1691.92 1239.12 1688.92 1241.76C1684.08 1245.96 1679.61 1250.44 1675.21 1255.08C1675.21 1253.16 1675.21 1251.28 1675.21 1249.36C1675.53 1249.36 1675.89 1249.24 1676.17 1249C1679.61 1245.72 1683.05 1242.44 1686.72 1239.48C1688.48 1238.08 1690.28 1236.72 1692.16 1235.44C1694.15 1234.08 1696.27 1232.84 1698.23 1231.4C1698.51 1231.2 1698.75 1230.92 1698.91 1230.68H1702.5C1701.07 1231.84 1699.63 1233 1698.19 1234.16L1698.15 1234.12ZM1689.96 1231.64C1687.92 1233.2 1685.96 1234.8 1684.04 1236.48C1680.85 1239.28 1677.89 1242.36 1675.21 1245.64C1675.21 1245.52 1675.21 1245.4 1675.21 1245.24C1675.21 1243.44 1675.21 1241.64 1675.13 1239.84C1678.93 1236.72 1682.77 1233.68 1686.6 1230.64H1691.28C1690.84 1230.96 1690.36 1231.32 1689.92 1231.64H1689.96ZM1674.89 1235.76C1674.85 1235.2 1674.77 1234.68 1674.73 1234.12C1674.66 1233.48 1674.65 1232.84 1674.54 1232.2C1674.46 1231.64 1674.18 1231.16 1673.98 1230.64H1680.73C1678.77 1232.36 1676.85 1234.08 1674.89 1235.76ZM1723.48 1253.8C1721.88 1254.84 1720.32 1255.96 1718.85 1257.16C1716.73 1258.88 1714.69 1260.76 1712.81 1262.72C1710.34 1265.28 1708.14 1268.12 1706.02 1271C1702.54 1271 1699.07 1271 1695.63 1271C1704.9 1263.68 1714.17 1256.36 1723.44 1249.04C1723.44 1250.64 1723.48 1252.24 1723.48 1253.8ZM1710.38 1271.04C1712.01 1269.12 1713.81 1267.32 1715.69 1265.64C1717.61 1263.96 1719.61 1262.36 1721.72 1260.92C1722.32 1260.52 1722.92 1260.16 1723.52 1259.76C1723.52 1262.84 1723.52 1265.92 1723.52 1269C1723.08 1269.68 1722.64 1270.36 1722.2 1271.04C1722.12 1271.04 1722.04 1271.04 1722 1271.04C1719.53 1271.04 1717.05 1271.04 1714.57 1271.04C1713.17 1271.04 1711.77 1271.04 1710.38 1271.04ZM1723.32 1243.28C1722.76 1243.28 1722.2 1243.44 1721.68 1243.88C1711.21 1252.88 1700.75 1261.96 1690.28 1270.96C1689.28 1270.96 1688.32 1270.96 1687.32 1270.96C1685.16 1270.96 1683.05 1270.96 1680.89 1270.96C1680.49 1270.96 1679.97 1271 1679.37 1271.04C1686.44 1265.12 1693.35 1259 1700.27 1252.84L1711.21 1243.08C1714.93 1239.76 1719.05 1236.6 1722.4 1232.92C1723 1232.28 1723.12 1231.44 1723 1230.68H1723.52C1723.28 1234.88 1723.28 1239.08 1723.32 1243.32V1243.28ZM1825.01 1222.64H175.991V1169.64H1146.44C1147.96 1171.2 1150.59 1171.24 1151.99 1169.64H1230.75C1232.26 1171.2 1234.9 1171.24 1236.3 1169.64H1315.05C1316.57 1171.2 1319.21 1171.24 1320.61 1169.64H1399.36C1400.88 1171.2 1403.51 1171.24 1404.91 1169.64H1825.01V1222.64Z" fill="#231F20"/>
<path d="M1088.74 1042.84C1088.9 1048.16 1089.06 1053.44 1089.22 1058.76C1089.38 1064.2 1089.38 1069.76 1090.18 1075.12C1090.42 1076.88 1092.54 1077.88 1094.1 1077.68C1095.93 1077.44 1097.01 1075.96 1097.17 1074.2C1097.57 1069.6 1097.25 1064.88 1097.13 1060.28C1096.97 1055.48 1096.85 1050.68 1096.69 1045.84C1096.41 1036.4 1096.13 1026.92 1095.81 1017.48C1095.22 998.719 1094.62 979.999 1093.58 961.239C1092.98 950.479 1092.26 939.599 1090.9 928.879C1090.66 926.919 1087.9 926.799 1087.74 928.879C1086.47 947.719 1086.94 966.719 1087.26 985.599C1087.58 1004.68 1088.22 1023.76 1088.78 1042.8L1088.74 1042.84Z" fill="#231F20"/>
<path d="M1112.72 1035C1112.64 1022.8 1112.4 1010.56 1112.04 998.359C1111.68 986.119 1110.8 973.959 1110.32 961.719C1110.28 960.239 1108.08 960.239 1108 961.719C1107.52 973.919 1106.64 986.119 1106.28 998.359C1105.92 1010.56 1105.68 1022.8 1105.6 1035C1105.6 1039.6 1112.76 1039.6 1112.72 1035Z" fill="#231F20"/>
<path d="M1171.97 1077.96C1172.33 1082.76 1179.48 1082.88 1179.52 1077.96C1179.64 1068.2 1178.96 1058.36 1178.76 1048.6C1178.56 1038.8 1178.4 1029 1178.28 1019.24C1178.04 999.841 1178.04 980.401 1178.16 961.001C1178.2 949.881 1178.36 938.761 1177.96 927.641C1177.88 925.321 1174.69 925.441 1174.45 927.641C1172.33 947.081 1171.81 966.801 1171.45 986.361C1171.09 1005.76 1171.01 1025.2 1171.25 1044.6C1171.37 1055.68 1171.17 1066.88 1171.97 1077.96Z" fill="#231F20"/>
<path d="M1193.95 1076.68C1194.95 1057.16 1194.63 1037.52 1194.75 1017.96C1194.87 998.562 1194.91 979.162 1194.99 959.722C1195.02 948.602 1194.79 937.482 1194.79 926.362C1194.79 923.562 1190.55 923.562 1190.43 926.362C1189.23 965.322 1187.83 1004.32 1187.07 1043.32C1186.87 1054.44 1186.43 1065.56 1186.67 1076.68C1186.75 1081.4 1193.71 1081.36 1193.95 1076.68Z" fill="#231F20"/>
<path d="M1252.88 928.48C1251.88 933.12 1251.84 938.08 1251.56 942.84C1251.28 947.96 1250.96 953.12 1250.72 958.24C1250.24 968.36 1249.72 978.44 1249.32 988.56C1248.49 1008.6 1247.77 1028.64 1247.05 1048.68C1246.65 1060.04 1245.77 1071.6 1246.21 1082.96C1246.41 1087.56 1252.76 1087.4 1253.24 1082.96C1254.24 1072.96 1254.16 1062.72 1254.4 1052.64C1254.68 1042.52 1254.92 1032.44 1255.2 1022.32C1255.72 1002.28 1256.12 982.24 1256.36 962.2C1256.44 956.56 1256.48 950.92 1256.48 945.32C1256.48 939.76 1256.88 933.96 1256.04 928.48C1255.8 926.88 1253.24 927 1252.92 928.48H1252.88Z" fill="#231F20"/>
<path d="M1275.86 963.598C1275.86 951.638 1275.86 939.638 1275.7 927.678C1275.66 924.638 1271.1 924.638 1270.98 927.678C1269.5 969.558 1269.18 1011.52 1268.5 1053.44C1268.3 1065.4 1267.82 1077.4 1268.06 1089.36C1268.14 1094.24 1275.42 1094.2 1275.62 1089.36C1276.02 1078.88 1275.78 1068.4 1275.82 1057.92C1275.82 1047.44 1275.86 1036.96 1275.9 1026.48C1275.94 1005.52 1275.9 984.558 1275.9 963.598H1275.86Z" fill="#231F20"/>
<path d="M1293.52 927.639C1293.52 925.079 1289.56 925.079 1289.52 927.639C1289 966.639 1288.36 1005.6 1287.8 1044.6C1287.64 1055.72 1287.4 1066.84 1287.36 1077.96C1287.36 1082.68 1294.72 1082.68 1294.72 1077.96C1294.72 1038.96 1294.08 999.999 1293.8 960.999C1293.72 949.879 1293.64 938.759 1293.56 927.639H1293.52Z" fill="#231F20"/>
<path d="M1357.09 926.402C1357.09 923.882 1353.25 923.882 1353.17 926.402C1352.41 964.042 1351.25 1001.68 1350.69 1039.32C1350.53 1050.08 1350.37 1060.88 1350.21 1071.64C1350.13 1076.44 1357.65 1076.44 1357.65 1071.64C1357.69 1034 1357.57 996.362 1357.33 958.722C1357.25 947.962 1357.09 937.162 1357.05 926.402H1357.09Z" fill="#231F20"/>
<path d="M1425.37 955.56C1425.17 945.44 1425.37 935.24 1424.85 925.12C1424.73 923.2 1422.01 923.2 1421.89 925.12C1421.38 934.08 1421.57 943.08 1421.42 952.04C1421.26 961 1421.1 970 1420.98 978.96C1420.7 996.76 1420.46 1014.56 1420.26 1032.32C1420.14 1042.44 1419.7 1052.64 1419.94 1062.76C1420.06 1067.2 1426.69 1067.2 1426.81 1062.76C1427.21 1044.84 1426.41 1026.8 1426.21 1008.88C1425.97 991.08 1425.73 973.28 1425.41 955.52L1425.37 955.56Z" fill="#231F20"/>
<path d="M1440.47 1024.44C1440.19 1014.52 1439.91 1004.56 1439.71 994.6C1439.55 984.68 1439.43 974.72 1439.32 964.76C1439.28 959.8 1439.24 954.8 1439.2 949.84C1439.2 944.6 1439.36 939.16 1438.84 933.92C1438.64 931.96 1436.04 932 1435.8 933.92C1435.12 939.12 1435.2 944.56 1435.08 949.84C1434.96 954.8 1434.88 959.8 1434.76 964.76C1434.56 974.72 1434.44 984.64 1434.32 994.6C1434.2 1004.56 1434.08 1014.48 1434 1024.44C1433.92 1034.6 1433.28 1045.12 1434.28 1055.24C1434.68 1059.6 1440.87 1059.68 1441.11 1055.24C1441.43 1049.96 1441.03 1044.6 1440.87 1039.32C1440.71 1034.36 1440.59 1029.36 1440.43 1024.4L1440.47 1024.44Z" fill="#231F20"/>
<path d="M1454.9 933.961C1454.86 931.121 1450.46 931.081 1450.46 933.961C1450.46 953.761 1450.46 973.561 1450.46 993.321C1450.46 1013.12 1449.86 1032.92 1450.02 1052.68C1450.02 1057.2 1457.06 1057.2 1457.02 1052.68C1456.9 1032.88 1456.02 1013.12 1455.74 993.321C1455.46 973.521 1455.18 953.721 1454.9 933.961Z" fill="#231F20"/>
<path d="M1710.18 1099.68C1713.21 1099.68 1713.21 1094.96 1710.18 1094.96C1707.14 1094.96 1707.14 1099.68 1710.18 1099.68Z" fill="#231F20"/>
<path d="M1693.59 1097.32C1693.59 1097.32 1693.83 1097.68 1694.03 1097.8C1694.15 1097.92 1694.27 1097.96 1694.39 1098C1694.59 1098.12 1694.79 1098.16 1695.03 1098.16C1695.19 1098.16 1695.31 1098.12 1695.47 1098.08C1695.59 1098.04 1695.75 1097.96 1695.87 1097.92C1696.07 1097.8 1696.23 1097.68 1696.35 1097.48C1696.51 1097.32 1696.59 1097.12 1696.63 1096.92C1696.67 1096.64 1696.71 1096.4 1696.75 1096.12C1696.83 1095.8 1696.83 1095.48 1696.75 1095.16C1696.67 1094.84 1696.51 1094.6 1696.27 1094.36C1696.15 1094.28 1696.03 1094.16 1695.91 1094.08C1695.63 1093.92 1695.31 1093.84 1694.99 1093.84C1694.75 1093.84 1694.51 1093.88 1694.31 1094C1694.07 1094.08 1693.91 1094.2 1693.71 1094.36C1693.47 1094.6 1693.35 1094.84 1693.23 1095.16C1693.15 1095.48 1693.15 1095.8 1693.23 1096.12C1693.27 1096.4 1693.31 1096.64 1693.35 1096.92C1693.39 1097.04 1693.47 1097.2 1693.51 1097.32H1693.59Z" fill="#231F20"/>
<path d="M1671.5 1098.96C1674.69 1098.96 1674.69 1094 1671.5 1094C1668.3 1094 1668.3 1098.96 1671.5 1098.96Z" fill="#231F20"/>
<path d="M1646.17 1099.92C1646.17 1099.92 1646.49 1100.16 1646.69 1100.32C1647.09 1100.56 1647.49 1100.64 1647.92 1100.64C1648.28 1100.64 1648.6 1100.56 1648.92 1100.52C1649.04 1100.52 1649.08 1100.4 1649.2 1100.36C1649.24 1100.36 1649.28 1100.36 1649.36 1100.36C1649.52 1100.28 1649.72 1100.2 1649.88 1100.12C1650.16 1099.96 1650.36 1099.8 1650.52 1099.56C1650.64 1099.4 1650.76 1099.24 1650.8 1099.08C1650.96 1098.8 1651 1098.52 1651 1098.2C1651 1098 1650.96 1097.8 1650.92 1097.6C1650.84 1097.44 1650.76 1097.24 1650.68 1097.08C1650.52 1096.8 1650.36 1096.6 1650.12 1096.44C1649.92 1096.24 1649.64 1096.12 1649.36 1096.04C1649.32 1096.04 1649.28 1096.04 1649.2 1096.04C1649.12 1096 1649.04 1095.92 1648.92 1095.88C1648.6 1095.84 1648.24 1095.8 1647.92 1095.76C1647.56 1095.76 1647.25 1095.8 1646.97 1095.96C1646.65 1096.08 1646.41 1096.24 1646.17 1096.48C1645.93 1096.72 1645.77 1096.96 1645.65 1097.28C1645.49 1097.56 1645.41 1097.88 1645.45 1098.24C1645.45 1098.48 1645.49 1098.68 1645.53 1098.92C1645.65 1099.36 1645.85 1099.72 1646.17 1100V1099.92Z" fill="#231F20"/>
<path d="M1626.91 1099.6C1629.82 1099.6 1629.86 1095.04 1626.91 1095.04C1623.95 1095.04 1623.95 1099.6 1626.91 1099.6Z" fill="#231F20"/>
<path d="M1604.05 1099.12C1604.05 1099.12 1604.25 1099.28 1604.33 1099.32C1604.45 1099.36 1604.53 1099.4 1604.65 1099.44C1604.85 1099.48 1605.01 1099.52 1605.21 1099.44C1605.29 1099.44 1605.33 1099.4 1605.41 1099.36C1605.41 1099.36 1605.45 1099.36 1605.49 1099.36C1605.65 1099.36 1605.81 1099.36 1605.97 1099.28C1605.97 1099.28 1606.01 1099.28 1606.05 1099.28C1606.09 1099.28 1606.17 1099.24 1606.21 1099.2C1606.25 1099.2 1606.33 1099.2 1606.41 1099.2C1606.57 1099.12 1606.73 1099.08 1606.89 1099C1607.13 1098.88 1607.29 1098.72 1607.45 1098.48C1607.57 1098.36 1607.65 1098.2 1607.69 1098.04C1607.77 1097.88 1607.81 1097.72 1607.81 1097.52C1607.85 1097.36 1607.85 1097.16 1607.81 1097C1607.81 1096.8 1607.77 1096.64 1607.69 1096.48C1607.61 1096.24 1607.49 1096 1607.29 1095.84C1607.17 1095.72 1607.01 1095.64 1606.89 1095.52C1606.73 1095.44 1606.57 1095.4 1606.41 1095.32C1606.25 1095.32 1606.05 1095.28 1605.89 1095.24C1605.73 1095.24 1605.53 1095.28 1605.37 1095.32C1605.21 1095.4 1605.05 1095.44 1604.89 1095.52C1604.65 1095.64 1604.45 1095.8 1604.33 1096.04C1604.21 1096.16 1604.13 1096.32 1604.09 1096.48C1603.97 1096.72 1603.93 1096.96 1603.93 1097.24C1603.93 1097.12 1603.93 1097 1603.97 1096.88C1603.97 1096.92 1603.93 1097 1603.89 1097.04C1603.89 1097.04 1603.89 1097.08 1603.89 1097.12C1603.85 1097.28 1603.81 1097.44 1603.81 1097.6C1603.81 1097.6 1603.81 1097.64 1603.81 1097.68C1603.77 1097.88 1603.73 1098.04 1603.81 1098.24C1603.81 1098.36 1603.81 1098.48 1603.89 1098.6C1603.93 1098.76 1604.05 1098.92 1604.17 1099.04L1604.05 1099.12Z" fill="#231F20"/>
<path d="M1583.16 1100.4C1586.03 1100.4 1586.03 1095.92 1583.16 1095.92C1580.28 1095.92 1580.28 1100.4 1583.16 1100.4Z" fill="#231F20"/>
<path d="M1607.57 1141.24C1604.49 1141.24 1604.45 1146.04 1607.57 1146.04C1610.69 1146.04 1610.69 1141.24 1607.57 1141.24Z" fill="#231F20"/>
<path d="M1631.94 1142.36C1628.11 1142.36 1628.11 1148.28 1631.94 1148.28C1635.78 1148.28 1635.78 1142.36 1631.94 1142.36Z" fill="#231F20"/>
<path d="M1657.03 1144.68C1657.03 1144.68 1656.87 1144.28 1656.79 1144.08C1656.63 1143.8 1656.44 1143.56 1656.16 1143.4C1656 1143.24 1655.84 1143.12 1655.6 1143.08C1655.32 1142.92 1655 1142.84 1654.64 1142.88C1654.4 1142.88 1654.2 1142.92 1653.96 1142.96C1653.76 1143.04 1653.56 1143.12 1653.36 1143.2C1653.08 1143.36 1652.84 1143.56 1652.68 1143.84C1652.48 1144.08 1652.32 1144.36 1652.24 1144.68C1652.24 1144.84 1652.2 1145 1652.16 1145.16C1652.12 1145.24 1652.08 1145.36 1652.04 1145.44C1651.92 1145.8 1651.92 1146.16 1652 1146.52C1652 1146.76 1652.08 1147 1652.2 1147.2C1652.28 1147.44 1652.4 1147.64 1652.56 1147.8C1652.68 1148 1652.84 1148.16 1653.04 1148.28C1653.2 1148.44 1653.4 1148.56 1653.64 1148.64C1653.96 1148.8 1654.32 1148.88 1654.68 1148.88C1654.92 1148.88 1655.16 1148.8 1655.4 1148.8L1656.04 1148.52C1656.04 1148.52 1656.4 1148.24 1656.59 1148.08C1656.75 1147.88 1656.87 1147.72 1657.03 1147.52C1657.11 1147.32 1657.23 1147.08 1657.31 1146.88C1657.43 1146.52 1657.43 1146.16 1657.35 1145.8C1657.35 1145.6 1657.27 1145.4 1657.19 1145.2C1657.19 1145.04 1657.11 1144.84 1657.11 1144.68H1657.03ZM1656.63 1144.4C1656.63 1144.4 1656.79 1144.6 1656.87 1144.72C1656.87 1144.8 1656.91 1144.84 1656.95 1144.92C1656.87 1144.72 1656.75 1144.56 1656.63 1144.4Z" fill="#231F20"/>
<path d="M1678.21 1141.64C1675.65 1141.64 1675.65 1145.64 1678.21 1145.64C1680.77 1145.64 1680.77 1141.64 1678.21 1141.64Z" fill="#231F20"/>
<path d="M1695.31 1145.2C1695.07 1148.24 1700.03 1148.24 1699.79 1145.2C1699.91 1144.68 1699.75 1144.24 1699.43 1143.84C1699.03 1143.04 1698.31 1142.68 1697.55 1142.76C1696.79 1142.68 1696.07 1143 1695.67 1143.8C1695.35 1144.2 1695.19 1144.68 1695.31 1145.24V1145.2Z" fill="#231F20"/>
</g>
<defs>
<clipPath id="clip0_157_341">
<rect width="1665" height="558" fill="white" transform="translate(168 721)"/>
</clipPath>
</defs>
</svg>
