<svg width="2000" height="2000" viewBox="0 0 2000 2000" fill="none" xmlns="http://www.w3.org/2000/svg">
<g clip-path="url(#clip0_157_328)">
<path d="M202.828 1356.27C229.707 1387.02 269.862 1403.03 310.271 1413.33C389.199 1433.45 471.728 1429.01 552.038 1420.72C562.732 1428.32 573.571 1435.74 584.737 1442.73C638.313 1476.17 700.692 1498.41 762.889 1508.92C904.486 1532.87 1015.35 1446.04 1139.09 1394.88C1254.9 1346.99 1377.4 1330.58 1500.99 1322.65C1553.37 1324.58 1605.74 1325.12 1658.23 1327.3C1706.79 1329.31 1757.16 1331.89 1805.36 1323.67C1810.67 1322.25 1815.9 1320.5 1821.18 1318.64C1822.52 1317.08 1823.8 1315.48 1825.14 1313.84C1825.94 1311.62 1826.71 1309.4 1827.36 1307.14C1828.56 1298.81 1830.09 1290.48 1831.84 1282.22C1841.36 1181.42 1838.96 1079.75 1815.79 980.731C1799.03 909.044 1771.64 840.05 1734.36 776.514C1698.02 714.688 1654.92 655.992 1596 614.035C1548.39 580.12 1494.7 557.377 1438.54 543.949C1413.15 489.511 1299.53 455.887 1290.4 528.811C1264.5 529.321 1238.6 531.395 1213.21 534.852C1083.26 552.573 945.769 588.672 844.508 676.516C786.058 727.206 747.54 795.036 713.786 863.739C682.906 926.693 654.754 998.307 651.953 1069.78C651.262 1071.27 650.716 1072.69 650.171 1074.11C648.825 1074.83 647.552 1076 646.497 1077.71C634.785 1097.03 609.834 1100.27 589.174 1103.04C563.677 1106.46 537.999 1109.26 512.392 1111.77C444.194 1118.32 376.287 1122.29 309.107 1136.77C266.588 1145.9 220.905 1158.64 190.461 1191.75C167.583 1216.72 158.562 1248.08 165.146 1277.74C165.182 1305.87 182.059 1336.15 202.864 1356.2L202.828 1356.27ZM342.715 1400.96C290.121 1391.42 230.252 1374.1 203.446 1323.56C196.317 1310.09 189.879 1292.01 195.408 1276.87C202.318 1258.13 224.36 1255.84 241.637 1256.71C308.016 1260.17 378.979 1298.08 433.501 1333.71C466.563 1355.36 497.371 1380.14 528.942 1403.83C466.854 1408.82 404.403 1412.16 342.715 1400.96ZM1555.55 613.89C1675.4 684.849 1751.12 825.894 1787.21 956.824C1818.2 1069.05 1820.6 1185.39 1808.19 1300.3C1762.4 1309.07 1714.5 1307.14 1667.98 1305.25C1637.17 1303.98 1606.33 1303.47 1575.48 1302.81C1575.7 1285.27 1579.74 1268.57 1582.76 1251.25C1586.25 1231.56 1587.45 1211.33 1589.3 1191.39C1593.05 1150.34 1596.32 1109.19 1597.96 1067.96C1600.83 995.979 1600.07 923.454 1590.58 851.949C1578.39 760.539 1549.88 640.126 1473.6 576.845C1501.83 586.197 1529.25 598.424 1555.55 613.962V613.89ZM1458.73 572.042C1497.43 602.5 1520.74 645.84 1538.71 692.527C1561.63 752.133 1575.12 815.196 1581.67 878.55C1589.09 949.764 1588.76 1021.78 1584.9 1093.25C1582.83 1131.49 1579.56 1169.67 1575.99 1207.8C1573.08 1239.17 1563.73 1271.05 1564.1 1302.56C1531.76 1301.87 1499.5 1300.99 1467.24 1298.99C1365.14 1292.66 1263.08 1280.4 1162.29 1262.97C1129.19 1257.25 1095.95 1251.29 1062.67 1244.74C1065.58 1164.24 1079.87 1085.42 1098.68 1007.22C1113.15 946.962 1128.87 887.138 1151.38 829.351C1173.5 772.62 1201.18 717.963 1236.46 668.183C1269.05 622.223 1306.95 585.506 1351.43 552.901C1387.84 555.63 1423.81 561.744 1458.73 572.042ZM1411.19 538.236C1376.02 531.795 1340.04 528.738 1304.22 528.738C1315.89 485.253 1381.22 506.905 1411.19 538.236ZM665.338 1097.18C664.793 1025.49 689.053 957.77 719.824 894.015C749.104 833.391 782.857 768.909 829.705 719.819C919.435 625.862 1049.58 583.977 1174.55 562.799C1229.33 553.52 1285.56 549.044 1340.99 552.173C1246.86 610.251 1184.26 716.289 1144.11 815.742C1119.01 877.822 1102.02 942.268 1086.6 1007.37C1068.23 1084.62 1052.7 1163.15 1053.58 1242.88C957.081 1223.7 860.803 1199.8 769.836 1164.17C746.885 1155.18 680.105 1131.78 664.974 1098.89C665.156 1098.34 665.302 1097.72 665.302 1097.1L665.338 1097.18ZM249.166 1174.91C295.686 1155.04 350.245 1147.9 400.111 1142.66C459.071 1136.41 518.43 1133.24 577.426 1127.13C598.995 1124.87 632.276 1122.32 651.226 1106.57C661.337 1129.89 689.526 1148.41 710.694 1159.95C776.019 1195.5 849.928 1216.1 921.581 1234.58C1010.66 1257.55 1101.08 1276.29 1192.08 1290.81C1131.05 1309.91 1071.62 1332.54 1011.68 1355.32C945.841 1380.36 877.316 1400.81 806.899 1406.82C731.245 1413.22 655.336 1399.86 590.92 1358.27C530.797 1319.52 479.73 1268.32 418.661 1230.95C385.598 1210.71 349.517 1194.26 312.017 1184.37C296.341 1180.22 279.791 1176.25 263.497 1176.47C255.022 1176.62 246.765 1178.18 238.509 1180.04C241.964 1178.18 245.456 1176.43 249.057 1174.91H249.166ZM225.342 1188.11C233.162 1187.28 240.909 1185.93 248.948 1185.24C271.971 1183.24 294.595 1189.32 316.418 1196.23C353.7 1207.98 389.163 1225.2 422.007 1246.41C482.022 1285.24 532.906 1337.06 594.448 1373.66C710.949 1443.1 852.183 1421.12 974.357 1379.92C1055.32 1352.63 1133.67 1319.55 1215.43 1294.41C1268.97 1302.52 1322.62 1309.18 1376.45 1314.35C1304.44 1323.85 1233.4 1339.82 1165.38 1364.35C1094.86 1389.82 1031.72 1429.89 962.936 1459.29C884.045 1493.02 806.39 1503.57 722.952 1480.36C651.08 1460.38 591.102 1426.72 531.997 1381.96C477.184 1340.44 423.426 1301.32 360.72 1272.39C328.203 1257.4 293.94 1244.81 258.404 1239.28C238.727 1236.19 216.213 1235.49 198.281 1245.68C189.297 1250.85 183.259 1257.87 179.549 1265.88C178.822 1235.24 198.281 1206.89 225.378 1188.08L225.342 1188.11Z" fill="black"/>
<path d="M774.455 1069.3C808.9 1082.55 856.184 1081.86 885.755 1057.73C902.959 1043.72 921.29 1014.61 888.446 1007.91C878.662 1005.91 868.587 1006.86 858.657 1005.69C845.163 1004.02 831.742 1000.31 818.284 998.161C821.048 990.592 823.485 982.877 825.74 975.126C844.363 978.183 863.313 980.148 881.026 979.893C901.831 979.529 910.706 964.937 916.817 946.67C934.239 894.451 935.476 831.897 928.383 777.932C926.164 760.865 922.891 738.049 902.05 750.13C892.12 755.843 792.714 839.03 764.198 878.912C753.214 894.269 734.409 920.469 741.793 940.738C748.013 957.914 769.982 963.809 785.731 967.339C788.677 967.994 791.696 968.612 794.715 969.267C793.187 972.433 791.587 975.454 789.95 978.547C788.895 980.657 788.059 982.877 786.968 984.988C786.567 985.825 785.913 986.661 785.44 987.389C785.331 987.535 785.294 987.608 785.222 987.753H785.185C784.531 988.736 783.985 988.808 784.13 988.554C783.658 988.918 783.294 989.354 783.076 989.827C766.199 985.17 749.322 980.475 732.227 979.784C731.136 979.748 730.19 979.966 729.354 980.366C728.663 980.403 727.972 980.839 727.644 981.567C727.644 981.603 727.608 981.676 727.608 981.713C726.699 982.804 726.189 984.187 726.117 985.643C714.114 1020.5 742.375 1056.89 774.492 1069.27L774.455 1069.3ZM791.732 954.748C781.075 952.528 764.235 949.763 757.215 940.483C746.23 926 764.78 901.583 772.928 889.611C790.823 863.447 813.556 840.776 835.452 817.96C836.87 816.432 838.325 815.013 839.78 813.521C851.638 802.968 863.022 791.578 875.28 782.007C880.335 778.077 886.191 772.874 891.938 769.089C897.648 766.36 903.832 764.067 909.324 763.085C910.924 764.795 912.561 766.578 913.871 768.47C914.453 769.344 914.962 770.217 915.398 771.2C915.362 771.382 915.362 771.527 915.289 771.709C920.636 786.92 918.453 810.682 918.708 826.293C919.108 851.22 916.853 875.601 913.179 900.2C909.688 923.671 907.178 966.065 875.825 965.883C848.582 965.665 818.32 960.316 791.732 954.712V954.748ZM794.606 989.682C795.115 986.443 795.951 983.277 796.643 980.075C797.37 976.691 798.57 973.525 799.734 970.359C805.808 971.633 812.101 972.834 818.357 973.962C815.302 981.494 813.41 989.755 809.045 996.377C804.026 995.322 799.043 994.158 794.024 992.811C794.315 991.829 794.424 990.774 794.606 989.682ZM873.461 1017.67C880.408 1017.99 894.484 1017.12 895.903 1027.67C896.63 1033.17 885.1 1041.5 881.317 1044.74C833.015 1085.75 731.9 1060.82 731.063 991.283C751.032 992.593 858.33 1016.97 873.425 1017.67H873.461Z" fill="black"/>
<path d="M784.094 988.592C784.385 988.301 784.639 988.119 784.93 987.938C784.421 988.156 784.13 988.411 784.094 988.592Z" fill="black"/>
</g>
<defs>
<clipPath id="clip0_157_328">
<rect width="1674" height="1026" fill="white" transform="translate(163 487)"/>
</clipPath>
</defs>
</svg>
