<svg width="2000" height="2000" viewBox="0 0 2000 2000" fill="none" xmlns="http://www.w3.org/2000/svg">
<g clip-path="url(#clip0_157_330)">
<path d="M1518.63 1258.61C1575.37 1250.45 1632.23 1242.37 1688.5 1231.28C1744.21 1220.27 1797.38 1203.55 1851.43 1186.52C1858.01 1184.5 1862.17 1174.76 1855.83 1169.69C1840.53 1157.45 1834.39 1138.28 1820.64 1124.54C1828.69 1120.66 1837.64 1118.4 1841.09 1108.78C1844.77 1098.44 1837.05 1095.75 1835.7 1087.07C1834.08 1076.1 1837.76 1082.28 1846 1075.35C1848.1 1073.53 1850.76 1071.47 1852.07 1068.89C1856.66 1059.7 1851 1050.71 1845.17 1043.7C1835.98 1032.69 1823.81 1024.02 1814.07 1013.36C1798.97 996.966 1784.98 979.698 1771.71 961.875C1744.68 925.318 1721.7 885.989 1697.33 847.69C1647.76 769.942 1595.85 693.818 1541.45 619.437C1522.27 593.297 1503.37 566.88 1483.4 541.294C1477.5 533.729 1459.03 503.311 1454.24 501.093C1352.64 453.645 1234 450.397 1124.72 467.19C1029.78 481.805 939.156 521.372 867.278 585.376C836.212 553.136 776.577 554.166 735.526 554.641C658.496 555.473 581.426 569.494 508.042 592.663C435.291 615.675 362.976 645.38 294.743 679.441C267.561 693.026 235.94 702.096 211.413 720.196C190.768 735.445 175.949 757.981 167.747 782.062C100.424 797.548 179.277 893.712 194.85 924.407C214.385 962.984 233.444 999.977 257.536 1035.98C280.637 1070.4 303.223 1105.13 325.531 1140.06C370.862 1211.24 415.836 1282.69 464.257 1351.8C487.358 1384.79 510.776 1417.98 536.492 1449C559.831 1477.2 587.449 1501.63 608.133 1531.89C628.778 1563.02 730.89 1505.36 780.262 1482.94C836.925 1457.19 892.796 1429.59 950.37 1405.98C1004.77 1383.72 1058.39 1359.96 1112.12 1336.04C1137.83 1324.59 1164.07 1314.17 1189.23 1301.66C1193.74 1299.36 1198.34 1296.95 1202.94 1294.53C1203.41 1294.45 1203.93 1294.33 1204.48 1294.13C1245.85 1277.3 1299.66 1277.9 1343.76 1274.73C1402.37 1270.49 1460.34 1266.88 1518.59 1258.53L1518.63 1258.61ZM1811.65 1109.05C1808.6 1110.84 1806.18 1112.18 1803.84 1113.85C1701.25 1157.61 1593.59 1181.53 1481.5 1182.68C1427.89 1183.2 1371.46 1179.43 1319.35 1194.21C1301.36 1199.32 1283.61 1206.56 1266.18 1213.38C1258.25 1216.51 1247.32 1219.71 1241.1 1226.37C1238.44 1225.81 1235.67 1225.42 1232.77 1225.3C1232.77 1225.26 1232.73 1225.26 1232.73 1225.26C1232.77 1225.22 1232.89 1225.14 1232.97 1225.06C1239.47 1225.1 1245.85 1219.87 1250.84 1216.27C1265.94 1205.26 1280.68 1194.64 1297.05 1185.45C1310.87 1177.69 1325.1 1170.68 1339.6 1164.26C1358.7 1149.97 1540.89 1105.65 1593.75 1097.01C1605.05 1094.48 1724.32 1076.65 1739.81 1074.08C1740.76 1073.92 1791.16 1068.26 1815.97 1068.58C1815.18 1069.25 1814.5 1070 1813.87 1070.79C1772.38 1074.71 1733.71 1091.86 1695.31 1107.55C1650.1 1126.04 1602.95 1134.8 1556.35 1148.74C1555.87 1148.9 1556.11 1149.61 1556.59 1149.53C1601.24 1142.36 1646.85 1138.68 1689.84 1123.75C1730.34 1109.65 1769.09 1090.6 1811.69 1085.61C1813.39 1089.61 1816.68 1092.89 1818.5 1097.76C1821.99 1106.76 1822.78 1102.52 1811.73 1109.13L1811.65 1109.05ZM1810.5 1144.62C1756.1 1160.46 1700.15 1170.88 1643.88 1179.28C1696.66 1168.66 1748.57 1152.78 1797.19 1130.99C1797.7 1132.54 1798.65 1134.04 1800.28 1135.27C1803.96 1138.08 1807.29 1141.25 1810.5 1144.62ZM867.08 607.04C868.625 605.179 873.301 600.703 874.014 600.189C946.883 542.165 1030.93 505.489 1122.78 490.241C1228.1 472.735 1341.11 476.894 1440.09 519.193C1442.67 522.679 1467.47 556.819 1474.25 566.563C1493.19 593.772 1512.25 620.824 1531.54 647.756C1580.52 716.156 1628.19 785.468 1673.79 856.165C1715.12 920.169 1753.68 989.837 1809.71 1042.71C1813.27 1046.04 1817.08 1048.97 1820.68 1052.22C1821.59 1053.05 1822.55 1053.92 1823.46 1054.79C1773.85 1053.52 1521.08 1097.05 1446.51 1116.78C1408.67 1126.8 1371.34 1139.23 1335.64 1155.31C1296.21 1168.86 1261.22 1194.09 1230.67 1221.93C1198.1 1171.08 1160.14 1123.35 1133.16 1069.21C1101.93 1006.63 1063.7 949.518 1027.24 890.029C991.58 831.887 961.109 770.853 927.388 711.641C910.904 682.808 895.015 653.776 878.016 625.22C874.45 619.2 870.765 613.18 866.763 607.397C866.881 607.278 867.04 607.239 867.119 607.04H867.08ZM239.269 727.484C263.4 715.047 288.998 705.106 313.446 693.145C376.33 662.49 442.463 635.161 509.191 613.892C573.7 593.337 640.942 580.385 708.621 577.098C753.119 574.92 804.79 572.9 846.871 591.634C864.108 610.13 874.45 635.557 884.554 657.895C897.194 685.659 912.093 712.235 926.516 739.049C958.137 797.627 988.727 856.957 1024.59 913.119C1059.62 968.014 1093.26 1022.16 1122.93 1080.14C1148.49 1130.24 1183.72 1174.64 1214.9 1221.38C1175.12 1195.16 1129.67 1198.64 1085.69 1214.25C1036.43 1231.75 987.459 1252.71 940.662 1275.84C890.656 1300.55 840.452 1324.83 789.931 1348.36C770.594 1357.39 751.099 1366.26 731.207 1374.02C723.837 1376.83 716.467 1379.53 708.978 1382.02C689.918 1388.32 663.925 1397.35 639.873 1400.4C633.136 1399.92 626.717 1398.46 620.298 1393.27C606.311 1382.02 598.306 1362.81 589.272 1347.68C570.45 1316.19 548.657 1286.17 528.528 1255.48C489.022 1195.2 451.101 1134.2 412.705 1073.29C374.19 1012.1 340.708 947.062 309.404 882.028C293.99 849.987 276.437 819.688 259.24 788.676C249.373 770.932 240.973 750.06 225.796 735.999C230.115 732.87 234.593 729.9 239.269 727.444V727.484ZM957.82 1380.08C902.702 1402.7 848.892 1428.16 794.884 1453.47C739.687 1479.33 683.301 1499.53 626.836 1521.59C610.55 1497.32 590.144 1476.76 570.015 1455.53C543.268 1427.25 520.405 1395.57 497.66 1364.12C453.558 1303.2 412.467 1240.19 371.892 1176.9C331.435 1113.85 288.482 1051.5 250.522 986.867C232.176 955.617 219.021 921.793 201.388 890.187C192.908 874.939 183.715 860.126 175.83 844.521C167.786 828.599 157.642 810.539 173.73 798.261C174.166 798.142 174.562 797.904 174.998 797.667C175.909 797.627 176.821 797.35 177.732 796.954C182.091 806.816 184.31 819.252 187.678 827.53C193.304 841.392 200.754 854.739 207.569 868.008C225.044 902.228 245.965 933.715 265.976 966.43C284.441 996.65 298.468 1029.09 316.338 1059.58C335.081 1091.51 357.072 1121.61 377.519 1152.46C419.64 1215.99 456.688 1282.85 499.998 1345.5C519.176 1373.19 539.781 1399.84 561.971 1425.19C586.102 1452.76 616.217 1475.1 638.961 1503.57C640.586 1505.63 735.13 1465.31 754.665 1455.69C800.907 1432.92 852.102 1420.36 900.443 1402.58C936.819 1389.19 972.719 1373.82 1008.7 1358.49C991.857 1365.86 974.898 1373.11 957.859 1380.04L957.82 1380.08ZM1167.04 1287.96C1121.31 1299.68 1078.48 1319.88 1034.93 1337.82C990.074 1356.28 945.021 1374.65 899.809 1392.36C897.709 1393.23 895.649 1394.02 893.588 1394.85C848.932 1412.28 802.571 1424.88 758.073 1442.54C718.091 1458.46 679.576 1475.93 640.982 1494.94C632.701 1485 623.706 1475.69 614.434 1466.58C598.703 1451.02 582.417 1435.89 568.231 1418.85C543.387 1388.99 520.048 1357.9 498.572 1325.5C455.302 1260.23 417.064 1192.03 373.318 1127.03C353.902 1098.2 332.901 1070.2 315.942 1039.86C297.121 1006.23 280.676 971.499 260.864 938.388C241.924 906.664 224.528 874.186 207.49 841.432C199.882 826.738 193.899 805.35 181.813 792.003C185.696 783.487 190.531 775.091 196.038 767.249C264.034 887.415 325.254 1011.42 395.944 1130.08C431.963 1190.52 474.916 1246.33 508.121 1308.39C524.843 1339.64 543.664 1369.23 565.299 1397.27C574.453 1409.19 608.371 1449.39 619.228 1461.83C621.289 1464.13 622.477 1465.43 622.636 1465.47C639.397 1469.67 720.033 1437.39 745.947 1428.28C795.359 1410.89 846.871 1401.03 894.975 1380C945.932 1357.7 994.67 1331.84 1047.01 1312.47C1086.12 1297.98 1130.34 1287.96 1168.23 1268.9C1167.67 1275.16 1168.62 1281.5 1172.27 1285.42C1170.56 1286.25 1168.82 1287.08 1167.08 1287.96H1167.04ZM1064.29 1261.46C1045.83 1267.8 1027.72 1274.85 1009.81 1282.65C989.123 1291.6 969.073 1305.62 946.844 1309.94C946.725 1309.94 946.764 1310.14 946.844 1310.1C964.16 1307.01 978.86 1298.97 995.067 1292.63C1013.93 1285.14 1033.54 1279 1053.04 1273.22C1090.88 1262.01 1134.43 1248.47 1174.68 1250.29C1174.21 1250.92 1173.77 1251.52 1173.34 1252.15C1173.06 1252.63 1172.78 1253.22 1172.51 1253.74C1129.24 1275.28 1080.66 1287.6 1035.25 1303.8C988.727 1320.51 945.378 1342.18 900.562 1362.73C852.379 1384.91 801.105 1395.09 751.178 1412.2C725.224 1421.11 699.309 1430.22 673.791 1440.08C664.559 1443.61 629.689 1454.3 628.381 1453.15C606.865 1434.82 589.193 1408.87 571.401 1386.62C547.587 1356.71 527.735 1324.91 508.914 1291.72C492.826 1263.36 473.133 1237.77 455.262 1210.6C435.212 1180.27 417.024 1148.7 398.639 1117.37C363.492 1057.41 329.256 997.204 297.239 935.497C266.927 877.117 237.803 816.44 198.693 763.288C204.795 755.129 211.69 747.525 219.338 740.99C235.069 764.318 245.767 790.735 259.398 815.291C277.308 847.61 292.445 881.197 308.176 914.625C341.738 985.877 382.313 1053.17 424.117 1119.67C465.208 1184.98 505.942 1250.05 549.172 1314.02C567.162 1340.79 584.042 1372.2 605.439 1396.48C636.029 1431.21 707.115 1395.57 734.892 1383.61C737.151 1382.65 739.053 1381.82 740.717 1381.23C790.129 1362.85 837.757 1339.36 885.386 1316.91C935.709 1293.1 984.923 1268.94 1036.75 1248.63C1091.35 1227.24 1148.49 1197.1 1203.29 1229.93C1196.83 1232.31 1190.49 1235.56 1184.95 1239.71C1144.29 1234.88 1102.29 1248.35 1064.21 1261.46H1064.29ZM1248.19 1262.73C1226.36 1261.74 1203.45 1270.73 1181.98 1280.79C1182.09 1273.82 1179.68 1267.4 1183.64 1260.35C1184 1260.11 1184.39 1259.87 1184.79 1259.64C1186.49 1258.61 1187.21 1257.06 1187.29 1255.52C1194.1 1248.19 1204.17 1243.48 1213.6 1240.86C1234.12 1235.2 1257.86 1239.44 1258.57 1260.75C1255.08 1261.38 1251.68 1262.01 1248.23 1262.77L1248.19 1262.73ZM1250.53 1229.22C1261.9 1223.56 1277.07 1221.18 1287.85 1217.54C1312.89 1208.98 1336.59 1201.42 1363.1 1198.84C1419.76 1193.22 1476.78 1197.49 1533.44 1193.85C1535.51 1193.73 1537.53 1193.57 1539.55 1193.41C1533.41 1194.21 1527.26 1195.04 1521.08 1195.79C1467.75 1202.76 1414.25 1210.09 1361.36 1219.52C1336.99 1223.83 1312.86 1230.76 1288.25 1233.46C1279.89 1234.37 1271.01 1234.72 1263.72 1238.57C1260.15 1234.61 1255.72 1231.44 1250.53 1229.22ZM1272 1258.77C1271.53 1252.31 1269.55 1246.84 1266.53 1242.25C1282.11 1236.11 1307.43 1239.64 1321.81 1237.85C1344 1235.12 1365.95 1230.84 1388.06 1227.75C1442.43 1220.03 1496.71 1211.59 1551.2 1204.98C1597.87 1199.32 1644.2 1193.93 1690.24 1184.31C1733.35 1175.27 1777.45 1168.7 1819.38 1155C1823.38 1160.11 1827.22 1165.41 1831.14 1170.6C1809.47 1176.03 1788.43 1183.71 1767.07 1190.05C1739.41 1198.33 1711.04 1204.27 1682.71 1209.81C1624.86 1221.22 1566.49 1229.34 1508.2 1237.73C1447.1 1246.49 1386 1248.47 1324.62 1253.89C1307.82 1255.4 1289.83 1256.47 1272 1258.8V1258.77Z" fill="black"/>
<path d="M1347.25 1109.45C1326.45 1117.8 1306.16 1127.31 1285.99 1137.13C1276.12 1141.96 1266.61 1146.95 1257.38 1152.82C1256.75 1153.21 1253.02 1155.59 1248.51 1158.16C1249.57 1159.59 1250.64 1160.86 1251.71 1162.24C1260.19 1158.28 1268.4 1153.69 1277.11 1149.73C1302.35 1138.04 1328.23 1127.31 1354.34 1117.76C1399.04 1101.41 1444.92 1089.01 1490.69 1076.14C1534.59 1063.82 1577.94 1051.38 1622.96 1043.74C1661.31 1037.2 1699.67 1034.15 1738.3 1032.33C1735.53 1028.25 1732.76 1024.13 1729.94 1020.09C1649.15 1022.99 1569.78 1041.48 1492.2 1063.62C1443.54 1077.52 1394.28 1090.59 1347.21 1109.41L1347.25 1109.45Z" fill="black"/>
<path d="M1445.8 1031.82C1400.94 1043.26 1356.36 1056.22 1313.37 1073.6C1294.91 1081.05 1277.11 1089.72 1259.48 1098.87C1248.9 1104.34 1237.89 1109.53 1227.7 1115.67C1227.35 1115.86 1224.37 1117.8 1220.53 1120.1C1221.52 1121.53 1222.51 1122.91 1223.46 1124.38C1228.53 1121.65 1233.45 1118.75 1238.56 1116.38C1257.54 1107.39 1276.52 1098.32 1295.78 1090C1340.63 1070.67 1387.75 1056.81 1434.9 1044.61C1481.02 1032.57 1527.66 1024.65 1574.65 1016.73C1621.85 1008.65 1668.41 998.43 1716.51 1001.6C1713.93 998.113 1711.48 994.628 1708.94 991.142C1669.2 988.608 1629.81 996.727 1590.9 1003.74C1542.36 1012.53 1493.7 1019.7 1445.8 1031.86V1031.82Z" fill="black"/>
<path d="M1302.79 1024.89C1280.32 1034.47 1257.46 1044.02 1235.75 1055.18C1225.25 1060.53 1215.42 1066.47 1205.91 1073.44C1205.35 1074 1201 1077.8 1195.84 1081.64C1196.48 1082.71 1197.11 1083.74 1197.75 1084.77C1210.07 1077.36 1222.12 1069.52 1235.27 1063.42C1258.57 1052.69 1282.66 1043.14 1306.59 1033.84C1345.47 1018.75 1385.92 1008.96 1426.42 999.261C1512.13 978.824 1595.85 954.347 1684.49 956.604C1682.67 954.07 1680.85 951.495 1679.14 948.881C1678.07 947.337 1677.04 945.673 1676.05 943.97C1590.98 939.059 1504.88 968.486 1423.41 988.171C1382.59 998.033 1341.5 1008.25 1302.79 1024.85V1024.89Z" fill="black"/>
<path d="M1647.41 898.344C1610.2 897.591 1570.93 904.245 1535.27 910.701C1485.66 919.691 1436.52 932.92 1388.26 947.456C1342.65 961.199 1296.53 975.735 1252.51 993.954C1231.94 1002.47 1212.41 1012.93 1193.63 1024.85C1186.81 1029.12 1180.63 1033.68 1174.17 1038.43C1174.05 1038.51 1172.94 1039.3 1171.36 1040.41C1172.11 1041.76 1172.9 1043.07 1173.61 1044.41C1174.65 1043.82 1175.6 1043.22 1176.63 1042.63C1193.03 1032.85 1209.59 1023.86 1226.79 1015.5C1272.99 993.003 1323.59 977.794 1372.65 962.664C1420.91 947.733 1469.89 934.227 1519.42 924.009C1562.73 915.057 1612.06 905.869 1657.43 907.611C1654.93 904.601 1652.4 901.67 1649.78 898.819C1649.03 898.819 1648.24 898.66 1647.44 898.383L1647.41 898.344Z" fill="black"/>
<path d="M1385.61 910.98C1382.55 908.326 1379.9 904.999 1377.52 901.355C1335.28 907.772 1292.25 918.743 1252.9 933.912C1233.53 941.358 1214.94 950.784 1196.87 960.884C1193.59 962.785 1163.95 981.242 1145.01 991.539C1145.68 992.965 1146.39 994.431 1147.11 995.857C1183.6 979.222 1217.64 957.24 1255.44 943.259C1297.72 927.654 1341.82 920.287 1385.61 910.94V910.98Z" fill="black"/>
<path d="M1199.61 525.568C1200.28 526.756 1201 527.944 1201.75 529.133C1219.14 559.194 1240.86 587.275 1259.56 616.584C1278.94 646.883 1297.72 677.578 1316.7 708.114C1355.29 770.297 1396.26 830.023 1439.06 889.393C1440.41 891.294 1442.27 892.126 1444.13 892.205C1444.49 892.403 1444.92 892.601 1445.4 892.562C1447.46 892.364 1449.56 892.087 1451.62 891.849C1486.89 887.492 1521.56 878.581 1557.02 874.699C1586.07 871.452 1618.56 875.095 1646.81 867.332C1650.42 865.669 1653.9 863.768 1657.27 861.629C1657.23 860.203 1656.72 858.698 1655.37 857.312C1606.08 805.824 1569.9 743.76 1527.58 686.727C1492.83 639.991 1454.47 594.602 1422.3 545.847C1422.3 545.767 1422.3 545.649 1422.42 545.569C1418.61 541.926 1414.73 538.44 1410.65 535.113C1377.36 528.499 1343.21 525.093 1309.49 522.281C1277.07 519.548 1237.29 512.736 1205.43 520.063C1205.43 519.984 1205.35 519.865 1205.31 519.904C1203.81 520.102 1202.3 520.3 1200.8 520.498C1200.68 520.498 1200.6 520.578 1200.4 520.617C1199.13 520.102 1197.35 521.528 1198.18 523.073C1198.02 524.063 1198.46 525.053 1199.61 525.489V525.568ZM1304.65 534.559C1342.45 537.886 1379.78 543.906 1417.46 548.342C1417.54 548.342 1417.62 548.342 1417.7 548.342C1426.62 567.907 1440.09 585.651 1452.18 603.236C1473.85 634.961 1496.24 666.132 1518.59 697.421C1556.74 750.85 1590.86 809.784 1636.83 857.272C1605.76 860.124 1574.58 860.52 1543.47 864.441C1527.86 866.422 1512.21 868.758 1496.71 871.808C1487.8 873.59 1478.84 875.491 1470.09 877.907C1468.06 878.462 1458.16 882.779 1450.79 884.957C1450.63 884.324 1450.39 883.65 1449.96 882.977C1410.17 820.161 1366.03 760.078 1326.33 697.064C1306.28 665.3 1286.31 633.417 1265.03 602.484C1255.24 588.265 1245.26 574.205 1234.76 560.461C1227.11 550.401 1217.2 533.173 1205.75 526.756C1238 532.539 1272.12 531.707 1304.65 534.559Z" fill="black"/>
<path d="M1352.52 860.163C1313.45 859.49 1274.14 870.223 1237.33 881.828C1214.71 888.917 1192.48 897.472 1171.2 908.008C1159.43 913.83 1147.94 920.127 1137 927.336C1135.46 928.326 1127.33 934.425 1120.95 938.148C1122.02 940.564 1123.05 942.94 1124.04 945.356C1195.69 905.394 1278.74 869.787 1362.03 872.164C1358.9 868.163 1355.69 864.203 1352.56 860.203L1352.52 860.163Z" fill="black"/>
<path d="M1340.2 834.062C1337.66 830.062 1335.12 826.062 1332.67 822.061C1313.53 820.834 1294.59 824.478 1275.45 827.25C1247.55 831.329 1220.53 836.954 1193.66 845.469C1173.54 851.806 1153.53 859.173 1134.74 868.797C1124.76 873.906 1115.09 879.808 1106.29 886.818C1104.47 888.244 1102.45 890.303 1100.43 892.244C1101.34 894.304 1102.33 896.324 1103.28 898.383C1133.48 879.253 1164.46 865.708 1199.73 855.331C1243.2 842.578 1294.51 830.577 1340.2 834.062Z" fill="black"/>
<path d="M1309.69 786.217C1307.15 782.257 1304.57 778.296 1302.04 774.375C1256.75 774.969 1210.54 782.772 1167.99 798.02C1146.55 805.664 1125.71 815.13 1106.49 827.369C1098.09 832.715 1090.05 838.617 1082.36 844.993C1080.81 846.3 1079.35 847.687 1077.88 849.073C1079.23 851.449 1080.54 853.865 1081.84 856.281C1112.36 836.359 1141.48 818.299 1178.09 806.892C1221.01 793.545 1264.87 787.643 1309.65 786.257L1309.69 786.217Z" fill="black"/>
<path d="M1278.86 738.059C1276.6 734.534 1274.34 731.009 1272.12 727.484C1227.66 730.93 1183.09 738.059 1140.81 752.476C1122.38 758.813 1104.47 766.536 1087.39 775.844C1077.88 780.993 1068.61 786.498 1059.73 792.677C1056.56 794.934 1053.39 797.231 1050.34 799.608C1049.99 799.806 1049.71 800.043 1049.39 800.321C1050.42 802.024 1051.41 803.727 1052.44 805.43C1062.07 800.321 1071.26 793.944 1080.89 788.954C1099.83 779.171 1119.33 770.418 1139.58 763.724C1184.63 748.872 1231.63 741.584 1278.86 738.02V738.059Z" fill="black"/>
<path d="M1244.9 685.104C1242.52 681.342 1240.07 677.619 1237.65 673.816C1197.63 675.123 1158.6 680.668 1120.68 695.362C1101.66 702.769 1082.72 710.294 1064.41 719.285C1053.59 724.632 1042.85 730.256 1032.91 737.108C1029.46 739.484 1026.09 742.019 1022.84 744.712C1022.37 745.029 1020.94 746.534 1019.32 747.999C1020.35 749.821 1021.3 751.643 1022.29 753.465C1055.3 732.988 1090.24 717.938 1126.98 704.551C1165.57 690.491 1204.6 686.649 1244.86 685.104H1244.9Z" fill="black"/>
<path d="M1211.61 635.555C1209.08 631.912 1206.54 628.387 1204.09 624.703C1165.61 625.337 1127.81 637.654 1091.35 648.823C1072.18 654.646 1052.88 660.943 1034.73 669.498C1025.58 673.776 1017.69 679.162 1009.65 685.261C1008.18 686.37 999.465 691.836 992.808 695.718C993.799 697.658 994.789 699.639 995.78 701.619C1007.31 695.955 1017.26 687.717 1028.79 681.657C1047.81 671.676 1069.48 665.815 1089.89 659.834C1129.51 648.15 1169.93 635.12 1211.54 635.555H1211.61Z" fill="black"/>
<path d="M875.599 1204.62C832.725 1216.66 789.931 1228.98 748.087 1244.35C727.879 1251.75 707.71 1259.44 687.699 1267.48C678.903 1271 670.146 1274.72 661.508 1278.57C657.109 1280.55 651.681 1283.68 646.054 1286.57C646.886 1287.79 647.639 1288.98 648.431 1290.13C653.543 1287.91 658.575 1285.34 663.528 1283.44C683.578 1275.83 703.945 1268.86 724.233 1261.69C769.167 1245.73 814.458 1231.75 860.423 1219.2C905.238 1206.88 949.934 1194.05 995.067 1183.04C1017.93 1177.49 1040.99 1172.54 1063.7 1166.52C1079.11 1162.44 1094.17 1157.21 1109.54 1153.41C1107.24 1150.12 1104.91 1146.8 1102.65 1143.47C1070.23 1150 1037.58 1161.85 1006 1169.41C962.218 1179.99 918.948 1192.42 875.519 1204.62H875.599Z" fill="black"/>
<path d="M1006.36 620.03C995.542 625.06 984.963 630.644 975.175 637.377C971.847 639.674 968.558 642.09 965.467 644.665C965.428 644.704 965.229 644.863 965.111 644.942C965.982 646.368 966.814 647.794 967.686 649.259C998.316 631.595 1030.97 618.96 1065.28 609.534C1103.48 598.999 1141.72 587.473 1181.46 588.859C1179.12 584.978 1176.78 581.136 1174.41 577.255C1136.65 575.868 1097.93 588.859 1062.51 599.315C1043.37 604.94 1024.47 611.593 1006.36 620.03Z" fill="black"/>
<path d="M845.603 1166.4C802.214 1178.64 759.142 1191.99 716.546 1206.76C708.7 1209.5 645.777 1231.12 617.009 1242.84C618.238 1244.78 619.545 1246.69 620.813 1248.59C654.851 1233.73 692.851 1223.71 727.522 1212.35C768.93 1198.76 810.813 1186.56 852.815 1175C929.567 1153.85 1007.51 1134.01 1085.81 1119.07C1083.55 1115.79 1081.29 1112.46 1079.03 1109.17C1044.95 1115.35 1011.35 1124.18 977.87 1132.74C933.768 1143.99 889.428 1154.05 845.643 1166.4H845.603Z" fill="black"/>
<path d="M1155.55 548.462C1152.97 544.66 1150.47 540.818 1147.98 537.016C1106.06 537.134 1064.29 547.749 1024.67 560.502C1007.03 566.206 989.123 572.859 973.234 582.405C970.262 584.187 953.303 598.247 943.238 607.317C944.189 609.02 945.061 610.723 945.813 612.426C1001.33 568.028 1086.16 552.304 1155.55 548.422V548.462Z" fill="black"/>
<path d="M679.893 1168.46C663.528 1175.08 647.005 1181.69 630.957 1189.06C620.734 1193.77 609.877 1198.44 600.327 1204.47C598.505 1205.57 596.523 1207.24 594.384 1208.86C595.018 1209.85 595.691 1210.8 596.325 1211.79C616.256 1201.69 636.584 1192.94 657.466 1184.98C700.498 1168.5 743.57 1152.54 787.593 1139.04C873.935 1112.54 963.843 1085.61 1053.28 1071.51C1051.1 1068.22 1048.88 1064.93 1046.7 1061.68C966.141 1073.45 885.267 1099.75 807.801 1122.99C764.333 1136.02 721.895 1151.43 679.854 1168.5L679.893 1168.46Z" fill="black"/>
<path d="M777.172 1085.29C735.962 1095.9 694.792 1107.86 655.643 1124.78C636.069 1133.25 617.128 1142.96 598.188 1152.78C592.799 1155.59 577.306 1161.06 566.488 1167.39C567.915 1169.45 569.381 1171.59 570.807 1173.73C636.822 1136.58 711.435 1112.02 784.264 1093.65C823.453 1083.78 863.038 1075.78 902.028 1065.41C944.427 1054.08 986.429 1042.2 1029.94 1036.26C1027.96 1033.21 1025.97 1030.12 1023.99 1027.03C984.685 1031.9 946.487 1042.71 908.289 1053.13C864.821 1065.01 820.759 1074.08 777.172 1085.29Z" fill="black"/>
<path d="M616.97 1095.47C596.92 1103.55 576.117 1111.66 557.137 1122.12C553.095 1124.34 547.944 1128.1 542.436 1131.82C543.189 1132.85 543.902 1133.92 544.615 1134.95C557.889 1128.62 570.807 1121.76 584.676 1116.18C631.116 1097.29 678.546 1081.56 726.809 1067.86C820.719 1041.17 913.916 1017.12 1010.76 1006.11C1008.94 1003.26 1007.15 1000.41 1005.41 997.559C918.988 1005.56 835.578 1027.54 752.05 1051.15C706.481 1064.02 661.032 1077.68 617.009 1095.51L616.97 1095.47Z" fill="black"/>
<path d="M614.037 1054.43C597.237 1061.4 580.753 1069.01 564.348 1076.85C551.866 1082.83 536.096 1093.17 520.603 1100.3C520.959 1100.85 521.356 1101.49 521.792 1102.04C528.726 1099.35 535.581 1096.26 542.436 1093.45C564.427 1084.61 586.102 1074.83 608.094 1066C650.65 1048.93 694.158 1034.27 738.022 1020.89C782.402 1007.34 827.296 995.579 872.31 984.291C908.923 975.142 946.566 969.399 983.417 961.161C981.634 958.19 979.97 955.22 978.226 952.289C899.532 968.409 821.63 985.558 744.323 1008.77C700.3 1022.04 656.554 1036.85 614.117 1054.43H614.037Z" fill="black"/>
<path d="M845.167 936.486C829.119 941.516 813.309 946.784 798.252 954.27C790.842 957.953 783.511 961.874 775.904 965.201C774.596 965.795 769.999 967.34 765.68 968.686C766.116 970.627 766.552 972.607 766.869 974.588C766.948 975.103 766.988 975.618 767.067 976.212C787.276 973.241 821.591 953.913 830.863 950.943C857.451 942.467 884.316 935.06 911.617 929.357C927.745 925.951 944.149 923.773 960.395 920.683C958.533 917.317 956.671 913.871 954.848 910.465C943.911 912.524 932.856 914.188 921.88 916.327C896.005 921.436 870.368 928.446 845.207 936.407L845.167 936.486Z" fill="black"/>
<path d="M791.238 909.792C784.225 912.367 777.33 915.1 770.554 918.11C768.454 919.021 755.22 925.793 749.831 927.338C750.821 929.081 751.693 930.823 752.565 932.527C786.246 919.813 819.372 908.723 854.994 901.515C883.92 895.653 913.044 891.257 942.128 886.385C940.543 883.217 938.879 880.008 937.294 876.84C907.615 882.068 877.818 886.9 848.416 893.475C829.08 897.792 809.901 902.98 791.238 909.792Z" fill="black"/>
<path d="M829.159 854.024C808.95 858.578 789.019 864.321 769.524 871.292C758.508 875.213 740.994 885.828 726.571 890.382C726.928 890.897 727.284 891.491 727.681 892.006C736.556 889.788 744.917 885.115 754.031 881.946C774.913 874.579 796.469 868.678 818.024 863.806C840.175 858.776 862.721 855.133 885.267 852.122C897.907 850.419 911.102 850.617 924.099 850.34C922.712 847.488 921.246 844.676 919.859 841.785C910.627 841.904 901.394 841.944 892.519 843.132C871.359 845.983 850.001 849.429 829.199 854.063L829.159 854.024Z" fill="black"/>
<path d="M740.598 835.21C732.118 838.26 723.718 841.508 715.437 845.072C715.159 845.191 707.868 848.716 701.489 850.974C701.925 851.806 702.321 852.637 702.717 853.39C737.309 842.221 771.703 831.369 807.564 824.635C840.373 818.496 873.578 818.496 906.466 814.773C904.921 811.645 903.415 808.555 901.87 805.387C868.268 809.625 834.389 810.417 801.065 817.744C780.579 822.299 760.331 828.16 740.638 835.25L740.598 835.21Z" fill="black"/>
<path d="M749.078 784.555C744.521 785.981 693.366 800.913 679.497 804.953C680.091 806.18 680.646 807.448 681.241 808.676C749.315 797.507 814.775 769.94 884.237 769.267C882.612 765.901 881.067 762.574 879.442 759.207C857.649 760.316 834.865 765.267 815.251 768.396C792.784 772 770.792 777.822 749.078 784.516V784.555Z" fill="black"/>
<path d="M732.396 742.574C718.686 745.268 704.778 748.04 691.583 752.714C681.478 756.278 671.493 762.734 660.953 765.269C661.191 765.784 661.389 766.259 661.626 766.774C676.842 766.061 691.979 758.021 706.719 754.654C731.088 749.03 755.854 746.218 780.54 742.376C806.89 738.218 836.648 728.475 864.663 728.197C863.276 725.306 861.968 722.454 860.581 719.523C839.303 720.989 817.39 727.128 797.697 731.089C775.983 735.485 754.07 738.455 732.435 742.654L732.396 742.574Z" fill="black"/>
<path d="M684.173 711.244C680.884 712.313 655.009 724.393 642.844 727.245C643.201 727.918 643.518 728.591 643.835 729.265C645.222 728.829 646.767 728.274 648.392 727.839C668.482 722.492 687.739 715.323 708.304 710.927C755.299 700.946 801.58 696.154 849.209 695.163C848.773 694.332 848.416 693.5 848.02 692.668C846.99 690.371 845.92 688.034 844.89 685.697C812.279 685.103 779.153 689.579 747.572 695.757C726.214 699.916 704.936 704.669 684.173 711.244Z" fill="black"/>
<path d="M655.445 682.647C649.541 685.34 643.954 688.469 638.248 691.519C634.801 693.459 631.274 695.281 627.668 696.984C628.421 698.331 629.095 699.678 629.768 701.024C635.553 699.004 641.22 696.113 647.124 693.459C668.244 684.073 691.107 677.617 713.574 672.27C752.446 663.042 792.268 661.061 831.893 656.942C830.585 653.972 829.198 651.041 827.851 648.07C791.714 650.803 755.299 653.892 720.112 661.853C698.279 666.765 675.891 673.498 655.445 682.686V682.647Z" fill="black"/>
<path d="M620.377 664.113C638.803 658.806 656.277 652.271 675.138 647.914C720.944 637.22 771.664 628.111 819.768 630.408C818.5 627.636 817.153 624.903 815.845 622.13C779.628 621.101 743.293 626.725 707.71 632.824C685.045 636.706 661.825 642.132 640.308 650.291C631.631 653.538 620.694 660.905 610.194 664.034C610.63 664.826 611.145 665.618 611.581 666.41C614.513 665.856 617.485 664.985 620.417 664.113H620.377Z" fill="black"/>
<path d="M328.305 768.081C328.305 768.081 328.503 768.358 328.662 768.477C330.365 782.735 340.985 800.796 346.453 812.678C360.718 843.294 379.341 872.484 395.389 902.228C411.913 932.804 428.634 963.222 445.752 993.521C458.828 1016.57 469.566 1044.97 488.111 1064.18C489.616 1065.72 491.32 1066.2 492.945 1066.04C493.183 1066.08 493.381 1066.12 493.579 1066.12C496.115 1065.88 498.611 1065.6 501.107 1065.29C548.063 1059.11 594.304 1036.69 638.961 1022.28C660.002 1015.5 680.527 1007.54 701.291 1000.25C712.742 996.254 721.222 993.165 723.956 980.689C724.392 978.708 723.678 977.243 722.569 976.292C722.609 975.381 722.529 974.51 722.054 973.559C696.337 914.902 663.33 858.74 635.078 801.192C621.725 774.061 606.746 747.921 592.125 721.464C585.627 709.701 578.772 686.69 566.369 678.055C565.537 677.461 564.705 676.946 563.833 676.511C562.644 674.53 560.386 673.104 557.493 673.738C547.31 675.758 327.473 735.643 327.473 765.15C327.473 766.18 327.75 767.17 328.305 768.16V768.081ZM343.759 762.378C350.653 758.654 357.706 755.248 364.918 752.001C382.036 744.277 399.669 737.425 417.302 730.89C433.508 724.91 449.952 720.197 466.634 715.404C497.541 706.532 527.854 693.264 558.92 685.541C579.762 731.881 606.984 775.25 628.857 821.193C654.613 875.177 686.075 925.715 712.544 979.183C712.861 979.778 713.218 980.253 713.614 980.689C705.847 989.798 675.02 997.165 666.778 1000.02C647.679 1006.59 628.144 1011.94 608.926 1018.43C600.882 1021.13 520.008 1047.9 499.998 1056.34C499.404 1056.65 498.77 1056.89 498.294 1057.13C498.017 1056.46 497.621 1055.78 496.987 1055.19C475.867 1032.69 463.543 997.006 448.724 970.074C431.923 939.379 415.479 908.446 398.599 877.751C383.581 850.462 366.067 823.807 353.506 795.251C350.217 787.765 345.859 772.438 337.775 765.942C339.598 765.427 342.292 763.13 343.719 762.378H343.759Z" fill="black"/>
</g>
<defs>
<clipPath id="clip0_157_330">
<rect width="1718" height="1083" fill="white" transform="translate(141 458)"/>
</clipPath>
</defs>
</svg>
