<svg width="2000" height="2000" viewBox="0 0 2000 2000" fill="none" xmlns="http://www.w3.org/2000/svg">
<g clip-path="url(#clip0_157_331)">
<path d="M357.746 957.214C357.746 973.892 350.046 989.865 350.222 1006.98C350.442 1023.44 353.962 1039.28 359.77 1054.64C363.51 1064.49 368.262 1074.09 373.542 1083.46C377.633 1100.4 387.753 1114.7 398.929 1128.12C404.429 1134.77 410.237 1141.19 416.177 1147.49C416.221 1147.62 416.353 1147.75 416.397 1147.88C417.057 1148.85 417.849 1149.51 418.641 1150.13C450.188 1183.48 486.399 1213.23 519.75 1244.2C562.737 1284.16 607.352 1322.31 650.251 1362.31C669.391 1380.18 687.167 1400.86 708.242 1416.52C727.646 1430.91 751.229 1440.94 772.877 1451.68C774.725 1452.65 776.441 1452.74 777.893 1452.34C827.04 1469.19 884.018 1467.35 933.385 1450.1C994.412 1428.8 1039.82 1395.22 1075.5 1341.45C1105.25 1296.7 1134.11 1239.89 1131.6 1184.27C1164.69 1205.04 1193.33 1228.23 1222.24 1256.22C1252.73 1285.74 1284.15 1313.69 1318.29 1338.99C1376.72 1382.38 1444.39 1405.43 1516.77 1384.05C1590.82 1362.22 1643.31 1299.3 1682.64 1236.28C1722.9 1171.64 1744.33 1089.4 1721.98 1014.86C1716.79 997.522 1708.78 980.228 1698.48 963.947C1680.36 926.676 1649.03 899.966 1614.93 877.216C1569.08 846.59 1519.85 820.496 1472.15 792.862C1419.35 762.235 1367.79 729.321 1314.72 699.134C1292.68 686.594 1156.2 601.095 1012.06 623.097C1003.04 624.505 994.588 616.892 986.492 611.7C986.052 610.996 985.612 610.38 985.172 609.632C939.985 567.872 880.806 516.652 816.92 541.514C762.317 562.812 708.726 618.388 686.595 674.537C663.715 677.617 641.716 688.706 620.552 697.462C610.74 701.555 600.929 705.867 590.765 709.167C586.013 710.663 580.337 711.191 575.101 712.336C530.31 671.06 472.187 622.437 409.621 646.814C350.706 669.784 292.979 732.401 274.588 792.774C265.348 822.872 266.8 855.655 285.059 882.189C303.231 908.459 357.746 923.684 357.746 957.214ZM660.195 1333.71C623.5 1299.6 585.573 1267 548.746 1233.07C536.866 1222.2 524.854 1211.33 512.886 1200.42C487.323 1122.71 522.214 1027.88 567.885 965.091C595.825 926.676 635.864 895.61 678.103 874.136C699.222 863.443 721.838 854.775 745.245 850.638C757.301 848.526 780.225 843.95 797.076 846.326C833.375 867.976 868.135 892.661 904.126 914.707C940.777 937.149 977.824 959.723 1013.77 983.132C999.34 976.312 984.116 971.12 968.628 967.731C877.726 947.534 768.609 987.049 719.374 1067.18C700.762 1089.71 688.267 1120.56 679.379 1147.88C662.351 1200.25 655.003 1257.98 667.015 1312.28C670.403 1327.68 675.771 1342.16 682.679 1355.71C675.375 1348.23 667.939 1340.75 660.195 1333.62V1333.71ZM1075.28 1016.49C1068.02 1007.38 1059.71 999.018 1050.69 991.097C1059.44 978.82 1063.62 965.091 1076.78 954.002C1092.49 940.845 1112.42 931.032 1132.66 927.292C1157.12 922.76 1174.63 932.045 1185.63 947.71C1142.25 927.688 1071.01 968.171 1075.24 1016.49H1075.28ZM1146.21 910.527C1110.17 911.187 1046.24 942.781 1043.69 985.201C1040.79 982.78 1037.88 980.448 1034.89 978.16C1032.21 976.444 1029.7 974.596 1027.24 972.572C1019.18 966.807 1010.91 961.351 1002.46 956.026C1019.58 915.939 1054.07 891.781 1094.82 877.392C1140.09 861.507 1199.45 852.75 1237.02 889.273C1237.42 890.989 1237.86 893.234 1238.3 896.314C1240.85 914.047 1236.05 932.573 1229.72 948.854C1225.36 960.251 1219.69 970.812 1213.75 981.372C1210.45 945.334 1184.75 909.867 1146.16 910.527H1146.21ZM1160.64 847.954C1143.3 832.157 1126.67 816.888 1108.11 802.454C1094.16 791.63 1080.52 778.253 1065.25 768.836C1084.43 768.968 1102.08 772.224 1119.72 782.961C1126.54 787.097 1133.05 791.762 1139.39 796.646C1149.68 803.511 1159.54 811.167 1169.26 818.868C1169.62 819.132 1169.75 819.484 1170.06 819.836C1172.78 821.728 1193.82 837.833 1212.21 855.303C1195.97 849.406 1178.37 847.426 1160.55 848.042L1160.64 847.954ZM1080.78 787.977C1088.22 795.106 1095.83 802.102 1103.53 808.967C1117.96 821.904 1131.42 836.117 1145.81 849.142C1129.97 850.946 1114.31 854.555 1099.48 859.087C1084.04 839.153 1058.17 824.5 1038.98 808.879C1028.56 800.386 1015.44 784.633 1001.1 777.989C1016.72 773.544 1032.6 770.288 1048.88 769.276C1053.9 768.924 1058.74 768.836 1063.53 768.836C1069.78 774.468 1075.46 782.829 1080.78 788.021V787.977ZM1035.29 821.332C1050.99 835.765 1070.35 848.482 1085.67 863.707C1073.65 868.152 1061.73 873.696 1050.64 880.385C1030.4 861.639 1002.73 848.218 980.42 832.289C970.608 825.336 952.833 806.855 937.873 802.058C938.049 802.014 938.269 801.882 938.445 801.794C956.969 793.478 975.888 785.601 995.292 779.661C1010.16 790.354 1022.57 809.627 1035.33 821.332H1035.29ZM1039.25 888.041C1029.83 894.862 1021.3 902.65 1014.3 911.583C989.352 898.03 965.109 882.189 941.393 866.743C923.925 855.303 908.042 839.901 888.33 832.641C901.002 821.464 915.83 812.663 931.449 805.139C963.261 836.997 1002.29 862.299 1039.2 888.041H1039.25ZM1006.73 922.98C1001.67 931.781 997.844 941.373 996.084 951.978C978.396 940.933 960.489 930.372 943.813 919.68C916.666 902.21 889.21 884.389 861.447 867.096C866.463 857.063 872.931 848.174 880.366 840.385C925.157 861.815 959.565 905.466 1006.73 922.98ZM1097.94 1159.32C1095.61 1262.86 1037.57 1363.59 947.113 1415.29C941.525 1417.8 935.849 1420.13 929.997 1422.33C879.706 1441.12 812.608 1441.87 759.325 1418.5C721.178 1393.29 692.139 1354.79 682.151 1309.9C669.215 1251.95 679.291 1190.21 699.31 1135.16C707.406 1113.03 716.822 1092.3 730.154 1073.74C777.409 1013.49 844.551 973.452 925.905 976.444C971.488 978.16 1017.56 993.957 1051.08 1025.55C1063.36 1037.08 1072.69 1049.93 1079.64 1063.7C1079.68 1064.14 1079.64 1064.54 1079.77 1065.02C1081.09 1070.22 1083.29 1074.4 1086.02 1077.87C1095.61 1103.04 1098.6 1130.81 1097.94 1159.37V1159.32ZM1081.75 1025.24C1086.55 981.328 1146.21 935.389 1185.81 966.059C1200.33 977.324 1202.04 995.013 1197.34 1011.47C1196.63 1012.97 1195.84 1014.42 1195.18 1015.92C1194.61 1017.1 1194.52 1018.2 1194.61 1019.26C1191.66 1026.48 1187.57 1033.16 1183.08 1038.58C1170.01 1054.15 1125.13 1085.84 1101.42 1071.1C1097.9 1053.98 1091.03 1038.84 1081.75 1025.24ZM1655.45 947.71C1661.09 953.078 1666.1 958.711 1670.59 964.563C1678.9 979.568 1687.92 997.522 1694.7 1013.27C1700.82 1034.79 1702.84 1057.89 1702.36 1081.57C1700.02 1185.33 1641.73 1286.32 1550.87 1337.93C1503.57 1364.77 1444.17 1379.16 1392.52 1356.46C1340.6 1333.66 1298.93 1287.72 1286.57 1232.1C1273.63 1174.15 1283.66 1112.41 1303.73 1057.37C1311.82 1035.23 1321.19 1014.51 1334.52 995.938C1381.82 935.697 1448.97 895.654 1530.36 898.646C1575.95 900.318 1622.01 916.159 1655.54 947.754L1655.45 947.71ZM1400.83 774.864C1475.06 818.164 1553.16 865.335 1603.45 899.218C1593.46 895.434 1583.25 892.353 1572.96 890.065C1482.1 869.868 1373.02 909.383 1323.74 989.513C1305.05 1012.04 1292.64 1042.89 1283.71 1070.22C1266.77 1122.58 1259.33 1180.31 1271.34 1234.61C1275.13 1251.64 1281.15 1267.53 1289.21 1282.27C1268.35 1263.57 1247.93 1244.51 1227.25 1225.55C1194.87 1195.8 1153.42 1163.99 1113.65 1146.12C1113.43 1126.89 1111.32 1107.75 1106.35 1089.4C1142.12 1095.43 1200.72 1058.38 1213.44 1014.11C1229.01 987.797 1247.41 963.111 1253.26 932.265C1258.93 915.015 1262.23 896.358 1255.06 880.077C1252.6 874.62 1245.95 863.047 1238.39 858.471C1221.23 835.721 1195 820.056 1172.3 802.454C1173.97 801.486 1175.6 800.606 1177.27 799.726C1211.94 781.201 1250.18 768.66 1289.21 763.688C1311.29 760.827 1333.78 760.211 1355.86 763.291C1371.57 765.448 1385.7 771.872 1400.92 774.908L1400.83 774.864ZM1353.97 747.802C1350.63 747.23 1347.24 746.79 1343.63 746.526C1319.74 744.634 1295.01 746.658 1271.47 750.883C1232.31 757.923 1193.77 772.18 1159.5 792.422C1127.68 767.956 1098.87 752.599 1056.32 754.271C1009.59 756.119 963.525 772.136 922.561 794.446C893.61 810.155 865.847 831.409 855.595 863.443C844.595 856.711 833.683 850.066 822.64 843.598C822.2 842.586 821.584 841.574 820.572 840.693C808.12 829.605 789.552 832.817 774.109 833.741C747.489 835.237 722.498 840.033 697.638 849.846C646.952 869.78 598.465 904.278 564.321 946.786C517.418 1005 471.923 1110.61 499.907 1188.76C484.287 1174.55 468.887 1160.16 453.884 1145.42C458.196 1122.05 452.432 1094.42 455.952 1071.67C463.52 1022.87 480.723 975.52 509.323 934.993C561.593 861.155 640.616 813.895 723.202 780.805C816.348 743.446 914.906 720.388 1014.3 707.671C1069.52 700.587 1125.62 694.162 1181.41 697.066C1225.76 699.399 1267.95 709.827 1309.97 722.852C1323.96 730.729 1338.7 739.09 1353.97 747.802ZM796.68 578.653C825.456 559.248 854.979 552.867 886.922 568.4C916.71 582.833 941.921 604.747 970.036 621.953C970.916 622.921 971.84 623.801 972.676 624.725C969.068 626.529 965.417 628.333 961.853 630.181C907.426 634.009 853.219 642.414 800.112 654.163C770.941 660.588 740.318 667.936 709.474 676.649C727.602 636.254 766.233 599.115 796.724 578.653H796.68ZM577.609 742.962C707.67 682.105 858.147 646.814 1003.26 643.954C1104.19 635.77 1200.59 664.46 1202.84 665.428C1211.24 668.992 1231.74 679.641 1259.51 694.778C1208.03 683.953 1156.33 679.993 1101.33 683.909C1014.48 690.114 927.533 703.579 843.363 726.065C707.494 762.279 556.798 821.684 483.187 949.954C464.092 983.133 452.256 1019.44 445.744 1057.06C443.06 1072.33 441.74 1086.94 442.664 1102.43C443.368 1113.65 445.656 1126.01 446.272 1138.07C446.228 1138.02 446.14 1137.94 446.096 1137.89C436.504 1128.3 425.284 1117.83 416.089 1106.34C415.517 1105.73 415.033 1105.11 414.461 1104.54C404.693 1089.71 394.617 1075.1 386.785 1059.08C370.242 1025.07 374.289 998.49 381.153 963.023C381.945 958.887 382.253 954.97 382.209 951.318C390.613 925.268 402.185 900.89 412.877 882.365C449.968 817.944 511.259 773.984 577.521 742.962H577.609ZM389.293 683.909C418.069 664.548 447.636 658.211 479.579 673.701C510.643 688.75 536.69 712.027 566.301 729.497C495.243 764.436 432.94 812.575 395.893 881.793C388.589 895.478 381.329 910.967 375.213 927.38C356.25 896.974 304.815 884.829 294.299 844.654C278.328 783.929 343.314 714.976 389.293 683.953V683.909Z" fill="black"/>
<path d="M1312.7 1100.57C1299.99 1136.17 1294.75 1173.97 1300.43 1211.29C1315.03 1307.65 1419.44 1370.54 1511.18 1336.08C1613.04 1297.8 1682.73 1176.26 1678.11 1069.51C1673.98 974.46 1604.37 909.863 1508.45 922.008C1406.6 934.857 1335.84 1007.9 1312.7 1100.57ZM1595.88 950.17C1633.23 969.84 1653.83 1008.47 1660.07 1049.13C1673.8 1138.33 1625.27 1241.12 1553.95 1294.01C1505.2 1330.14 1446.15 1342.72 1391.2 1312.63C1385.39 1309.46 1379.89 1305.98 1374.65 1302.2C1405.76 1305.67 1439.9 1296.21 1467.18 1284.51C1509.07 1266.55 1544.27 1235.14 1567.98 1196.28C1610.97 1125.66 1632.4 1007.02 1571.24 940.622C1579.73 942.866 1588.05 945.99 1595.97 950.17H1595.88ZM1562.35 938.554C1569 951.755 1577 964.208 1582.5 977.981C1591.3 1000.11 1592.89 1023.22 1592.67 1046.8C1592.32 1094.72 1581.89 1142.64 1557.51 1184.22C1518.09 1251.73 1434.14 1302.59 1354.54 1285.26C1335.8 1266.29 1322.6 1242.66 1317.19 1215.03C1303.24 1144.31 1333.03 1063.48 1377.6 1005.48C1398.41 982.381 1424.5 963.592 1457.02 951.315C1489.67 938.95 1527.46 931.865 1562.4 938.554H1562.35Z" fill="black"/>
<path d="M904.126 999.809C802.268 1012.66 731.562 1085.7 708.418 1178.37C695.659 1213.97 690.423 1251.77 696.099 1289.09C710.706 1385.45 815.116 1448.34 906.854 1413.88C1008.71 1375.6 1078.45 1254.06 1073.83 1147.31C1069.69 1052.26 1000.04 987.664 904.126 999.809ZM712.818 1292.87C698.915 1222.16 728.702 1141.32 773.273 1083.33C794.084 1060.23 820.176 1041.44 852.647 1029.16C885.338 1016.79 923.134 1009.71 958.025 1016.4C964.669 1029.6 972.765 1042.05 978.22 1055.83C986.976 1077.96 988.56 1101.06 988.384 1124.65C987.988 1172.57 977.56 1220.49 953.229 1262.07C913.762 1329.57 829.856 1380.44 750.261 1363.1C731.474 1344.14 718.318 1320.51 712.818 1292.87ZM949.621 1371.81C900.826 1407.94 841.823 1420.53 786.869 1390.43C781.061 1387.26 775.561 1383.78 770.237 1380C801.432 1383.47 835.532 1374.01 862.767 1362.31C904.698 1344.36 939.897 1312.94 963.569 1274.08C1006.64 1203.46 1027.98 1084.82 966.869 1018.42C975.361 1020.67 983.588 1023.79 991.508 1027.97C1028.95 1047.64 1049.45 1086.28 1055.7 1126.93C1069.47 1216.13 1020.9 1318.92 949.621 1371.81Z" fill="black"/>
</g>
<defs>
<clipPath id="clip0_157_331">
<rect width="1462" height="929" fill="white" transform="translate(269 535)"/>
</clipPath>
</defs>
</svg>
