<svg width="2000" height="2000" viewBox="0 0 2000 2000" fill="none" xmlns="http://www.w3.org/2000/svg">
<g clip-path="url(#clip0_157_332)">
<path d="M319.287 892.66V920.785C319.287 921.159 319.121 921.45 319.038 921.825C322.325 948.66 317.498 978.823 316.458 1004.16C314.71 1044.02 318.372 1083.92 320.161 1123.77C324.281 1216.64 332.311 1307.83 354.407 1398.41C371.426 1468.35 396.517 1537.28 440.125 1595.28C487.812 1658.69 557.801 1702.33 628.54 1736.11C709.473 1774.72 795.733 1781.21 884.239 1783.63C980.652 1786.25 1076.48 1775.76 1171.27 1758.46C1254.04 1743.27 1338.21 1724.51 1407.25 1674.04C1470.5 1627.86 1517.18 1562.29 1553.84 1493.93C1599.99 1407.85 1629.7 1314.37 1645.34 1218.09C1654.21 1163.51 1657.62 1108.26 1664.44 1053.34C1671.6 996.048 1679.76 939.008 1683.79 881.427C1683.83 881.427 1683.96 881.468 1684 881.468C1684.13 875.019 1684.42 868.654 1684.96 862.288C1683.59 859.709 1682.21 857.129 1680.67 854.633C1620.88 844.731 1560.29 839.281 1499.5 836.327C1498.96 817.48 1497.96 798.716 1496.34 779.911C1494.71 760.856 1492.26 741.801 1489.26 722.704C1519.18 608.458 1547.43 475.114 1482.98 367.441C1458.97 327.376 1423.97 295.673 1382.45 274.371C1327.19 246.038 1273.38 248.992 1214.3 250.115C1177.3 228.98 1136.19 216.374 1091.17 215.126C1015.48 213.087 941.246 238.591 875.168 273.664C726.825 352.463 599.703 485.723 554.431 650.062C541.615 696.41 533.417 743.881 525.303 791.311C521.225 815.109 517.272 838.782 514.026 862.58C450.112 870.027 386.364 880.386 322.45 887.459C321.451 889.207 320.411 890.954 319.329 892.701L319.287 892.66ZM1564.91 1412.26C1533.79 1486.32 1492.01 1560.13 1434.5 1617.04C1374.17 1676.79 1301.68 1704.16 1220.12 1722.43C1128.83 1742.9 1033.91 1756.92 940.289 1758.41C853.156 1759.79 758.324 1759.2 675.768 1728.42C603.823 1701.54 527.508 1657.52 476.452 1599.36C427.392 1543.44 399.638 1473.09 381.579 1401.74C374.713 1374.57 369.179 1347.28 364.602 1319.9C377.21 1291.98 410.748 1291.36 431.678 1314.91C448.281 1333.59 455.854 1360.05 462.637 1383.47C476.951 1432.52 490.059 1482.74 516.482 1526.97C574.404 1623.86 682.426 1675.91 787.327 1705.04C900.842 1736.53 1021.06 1739.57 1136.11 1714.27C1186.96 1703.08 1236.68 1688.1 1280.38 1659.15C1321.11 1632.19 1354.73 1596.24 1384.78 1558.05C1427.1 1504.21 1455.52 1442.43 1490.64 1384.05C1505.45 1359.38 1521.39 1332.46 1543.65 1313.66C1558.96 1300.84 1586.38 1289.2 1598.57 1312.29C1598.62 1313.2 1598.7 1314.07 1598.78 1314.91C1589.46 1347.98 1578.27 1380.56 1564.91 1412.3V1412.26ZM678.598 1174.62C674.437 1120.78 663.951 1067.07 658.916 1013.19C654.588 966.217 653.423 920.161 655.629 874.52C666.905 873.855 678.223 873.272 689.458 872.69C691.788 1001.21 701.733 1129.89 707.725 1258.07C714.217 1397.62 733.316 1536.16 743.053 1675.45C711.845 1664.6 681.344 1651.28 652.924 1634.81C644.019 1514.98 628.665 1395.54 623.505 1275.38C626.709 1274.55 629.955 1273.55 633.159 1272.26C673.188 1256.62 681.594 1213.14 678.639 1174.66L678.598 1174.62ZM1113.89 359.162C1096.29 370.645 1079.64 383.459 1064.21 398.021C1060.67 387.453 1061 375.887 1061.63 364.57C1062.08 356.873 1062.38 347.471 1063.75 338.692C1070.57 334.906 1077.15 330.87 1083.22 326.086C1095.46 326.044 1107.52 326.751 1119.42 328.457C1117.59 331.245 1116.3 334.407 1115.55 336.986C1113.56 344.059 1112.72 351.798 1113.93 359.12L1113.89 359.162ZM1096.21 400.475C1122.54 378.466 1152.59 364.196 1182.38 348.178C1202.06 358.496 1220.04 372.642 1235.48 391.405C1266.81 429.474 1281.91 482.187 1297.39 528.119C1315.99 583.328 1329.85 640.202 1337.17 698.033C1342.83 742.55 1346.25 787.857 1346.79 832.999C1296.19 832.874 1245.71 833.456 1195.57 833.664C1060.63 834.205 925.767 836.868 791.072 843.109C806.01 829.587 818.327 811.156 827.107 798.217C859.564 750.33 889.94 700.654 919.941 651.186C956.808 590.443 992.219 528.243 1033.54 470.413C1051.81 444.826 1072.03 420.695 1096.21 400.475ZM1127 329.705C1136.07 331.328 1144.97 333.491 1153.67 336.279C1144.27 340.98 1135.15 346.056 1126.29 351.423C1124.83 344.184 1124.67 336.321 1126.96 329.705H1127ZM1005.12 468.998C999.585 476.903 994.134 484.891 988.891 493.004C967.419 486.514 955.435 463.465 951.774 441.04C955.727 435.798 959.805 430.597 963.966 425.521C974.992 411.958 986.852 398.769 999.46 386.454C997.462 396.772 997.338 407.756 997.421 417.824C997.462 435.382 997.462 453.147 1005.16 468.998H1005.12ZM979.57 507.358C971.164 520.63 962.967 534.151 954.894 547.59C943.035 547.631 934.339 541.89 925.351 531.946C917.653 523.417 911.994 514.764 908.249 504.695C919.317 486.972 930.843 469.581 943.119 452.689C945.282 476.362 958.307 501.159 979.57 507.399V507.358ZM918.818 545.01C925.101 552.541 934.963 560.404 945.407 563.358C940.913 570.805 936.502 578.211 932.008 585.617C897.763 642.157 862.56 698.158 828.688 754.906C818.286 772.297 808.216 790.021 796.898 806.912C789.741 817.522 778.963 835.495 765.897 844.398C745.924 845.355 725.909 846.395 705.936 847.56C717.213 835.287 726.783 821.141 736.021 807.37C752.249 783.156 769.06 759.441 783.124 733.854C812.127 681.266 837.718 626.972 867.22 574.633C878.663 554.288 890.314 533.985 902.506 514.056C905.71 525.706 912.493 537.313 918.901 545.01H918.818ZM737.727 870.152C739.932 999.501 749.96 1129.06 755.994 1258.12C762.693 1402.69 782.958 1546.27 792.32 1690.64C780.087 1687.31 767.812 1683.69 755.661 1679.74C747.714 1543.32 728.531 1407.64 722.955 1271.01C717.462 1137.96 706.852 1005.16 699.154 872.274C711.97 871.608 724.827 870.859 737.727 870.235V870.152ZM771.182 1270.97C765.689 1137.09 755.037 1003.41 747.297 869.694C773.679 868.446 800.06 867.198 826.483 866.116C830.103 865.991 833.765 865.866 837.385 865.742C839.424 996.589 849.577 1127.64 855.694 1258.12C862.726 1409.43 884.614 1559.63 893.31 1710.78C865.556 1707.28 838.092 1702.16 810.962 1695.47C808.84 1694.93 806.759 1694.34 804.679 1693.84C797.231 1552.68 777.049 1412.3 771.182 1270.97ZM870.924 1270.97C865.348 1135.59 854.529 1000.54 846.748 865.367C859.689 864.826 872.588 864.369 885.571 863.911C887.526 995.382 897.804 1127.02 903.879 1258.12C910.995 1410.85 933.215 1562.46 941.745 1715.1C929.553 1714.44 917.361 1713.36 905.253 1712.02C898.72 1564.66 876.999 1418.38 870.924 1270.97ZM919.151 1270.97C913.575 1135.01 902.631 999.293 894.891 863.495C925.018 862.455 955.144 861.581 985.229 860.749C987.143 993.302 997.462 1125.98 1003.62 1258.07C1010.69 1410.27 1032.79 1561.42 1041.4 1713.48C1037.7 1713.81 1034.04 1714.11 1030.38 1714.4C1004.83 1716.31 979.195 1716.6 953.646 1715.6C947.363 1567.03 925.267 1419.58 919.151 1270.97ZM1018.89 1270.97C1013.23 1134.01 1002.21 997.379 994.425 860.541C1007.45 860.208 1020.47 859.875 1033.46 859.584C1035.29 992.47 1045.69 1125.56 1051.85 1258.07C1058.88 1408.48 1080.48 1557.84 1089.34 1708.11C1077.19 1709.86 1065.16 1711.28 1053.22 1712.44C1046.73 1564.91 1024.97 1418.54 1018.89 1270.97ZM1067.12 1270.97C1061.46 1133.63 1050.39 996.589 1042.65 859.376C1072.82 858.752 1102.99 858.336 1133.16 857.961C1134.94 991.388 1145.39 1125.02 1151.63 1258.07C1158.29 1401.2 1178.18 1543.36 1187.71 1686.23C1159.75 1695.3 1130.49 1701.75 1101.2 1706.37C1094.37 1560.92 1073.15 1416.46 1067.12 1270.97ZM1166.82 1270.97C1161.16 1133.09 1150.05 995.549 1142.31 857.878C1155.33 857.753 1168.36 857.67 1181.47 857.545C1183.21 991.138 1193.7 1124.9 1199.86 1258.12C1206.22 1395.08 1224.74 1531.13 1234.69 1667.8C1223.41 1673.12 1211.68 1677.91 1199.73 1682.19C1191.87 1544.9 1172.56 1408.43 1166.86 1270.97H1166.82ZM1215.09 1270.97C1209.39 1133.01 1198.28 995.341 1190.5 857.545C1220.71 857.379 1250.87 857.379 1281.12 857.587C1282.33 953.819 1288.16 1050.18 1293.61 1146.37C1290.32 1158.06 1287.16 1169.83 1284.41 1181.69C1277.46 1211.48 1269.27 1248.63 1284.45 1277.3C1288.61 1285.24 1294.65 1291.36 1301.72 1295.85C1308 1397.37 1319.7 1498.43 1328.77 1599.73C1304.97 1623.95 1278.09 1645.12 1246.63 1661.68C1238.1 1531.29 1220.41 1401.53 1215.05 1270.89L1215.09 1270.97ZM1290.24 857.587C1303.26 857.712 1316.29 857.837 1329.39 858.003C1329.98 901.314 1331.39 944.583 1333.39 987.893C1327.81 1016.73 1320.95 1045.39 1313.75 1073.97C1311.21 1083.96 1308.55 1093.86 1305.72 1103.76C1300.56 1021.72 1294.81 939.673 1290.2 857.587H1290.24ZM1316.45 1302.59C1327.23 1305.96 1339.09 1307.04 1350.57 1306.21C1355.9 1387.05 1364.51 1467.76 1372.25 1548.43C1362.27 1561.87 1351.82 1574.9 1340.67 1587.21C1332.51 1492.39 1321.74 1397.66 1316.45 1302.59ZM1364.76 1304.34C1368.84 1303.55 1372.79 1302.55 1376.45 1301.39C1385.57 1298.47 1419.15 1298.22 1446.4 1236.11C1446.78 1243.43 1447.15 1250.75 1447.53 1258.12C1449.86 1308.79 1453.89 1359.34 1458.55 1409.81C1434.63 1451 1411.03 1493.23 1383.9 1532.25C1376.79 1456.36 1369.05 1380.48 1364.76 1304.38V1304.34ZM1430.59 1206.19C1414.07 1246.05 1386.4 1283.08 1338.59 1280.29C1298.64 1277.96 1296.81 1244.47 1300.68 1211.48C1304.38 1179.77 1315.04 1149.61 1324.32 1119.24C1338.3 1073.72 1350.78 1027.04 1359.56 980.238C1379.91 871.525 1373.79 752.618 1353.11 644.238C1344.41 598.597 1331.76 553.747 1316.49 509.854C1331.85 507.358 1346.41 497.29 1356.23 485.89C1362.35 478.817 1368.84 469.123 1372.21 458.93C1420.35 544.511 1451.65 641.45 1465.21 732.481C1488.8 890.704 1465.75 1050.72 1430.59 1206.19ZM1338.51 858.128C1341.29 858.17 1344.04 858.253 1346.83 858.253C1346.66 868.487 1346.45 878.722 1345.91 888.957C1345.33 902.104 1344.12 915.168 1342.63 928.19C1341.17 904.892 1339.8 881.51 1338.46 858.169L1338.51 858.128ZM1310.88 494.003C1310.54 493.087 1310.25 492.172 1309.88 491.215C1305.13 478.235 1300.43 465.046 1295.31 452.024C1317.45 446.365 1334.93 432.136 1343.25 411.792C1351.2 423.566 1358.81 435.631 1366.05 447.988C1362.35 458.972 1357.36 468.249 1347.37 476.737C1336.13 486.223 1324.57 491.132 1310.88 494.044V494.003ZM1317.03 339.358C1329.23 342.853 1341.04 346.722 1352.78 354.668C1373.54 368.648 1390.81 388.035 1402.67 410.086C1419.69 441.539 1423.81 476.279 1425.6 511.227C1397.22 448.945 1360.89 390.573 1316.99 339.358H1317.03ZM1335.14 400.059C1330.81 407.09 1327.02 414.496 1321.28 420.57C1312.67 429.599 1300.85 433.551 1289.32 437.295C1280.38 416.243 1269.85 395.94 1255.62 378.05C1253.2 374.971 1250.71 372.101 1248.17 369.23C1259.36 366.151 1270.68 364.861 1282.66 365.028C1289.61 365.153 1296.52 365.818 1303.51 366.359C1305.09 366.484 1307.51 366.567 1309.5 366.567C1318.37 377.385 1326.98 388.493 1335.14 400.059ZM1236.27 357.289C1222.91 344.891 1208.26 334.948 1192.58 327.084C1192.37 326.876 1190.75 326.044 1187.87 324.796C1188.5 324.255 1189.12 323.756 1189.83 323.257C1196.2 318.597 1203.23 314.811 1210.18 311.108C1216.42 307.905 1229.73 299.417 1240.6 296.962C1262.23 314.769 1282.33 334.781 1300.97 356.457C1280.79 348.552 1255.91 349.593 1236.18 357.248L1236.27 357.289ZM1052.31 409.961C1047.65 414.746 1043.19 419.655 1038.78 424.814C1030.46 434.674 1022.47 444.909 1014.86 455.394C1006.7 432.344 1001.87 401.141 1008.32 378.009C1016.06 370.853 1024.09 363.988 1032.42 357.581C1039.86 351.881 1047.98 347.346 1056.13 342.853C1052.35 351.922 1049.89 361.616 1048.64 371.768C1047.27 382.668 1046.48 398.769 1052.26 409.878L1052.31 409.961ZM1025.88 336.279C1000.46 352.172 978.363 374.347 958.348 396.523C918.984 440.083 888.15 490.466 859.023 541.183C830.228 591.441 803.805 642.532 777.673 694.163C750.543 747.709 716.713 807.745 671.857 848.392C671.399 848.85 670.941 849.349 670.608 849.807C666.114 850.057 661.62 850.348 657.085 850.639C662.078 783.073 674.395 716.422 694.368 649.189C711.262 592.481 736.728 545.135 771.473 497.498C794.276 466.211 816.413 437.254 846.956 413.123C895.848 374.514 966.92 340.647 1038.07 329.789C1033.91 331.744 1029.79 333.783 1025.84 336.279H1025.88ZM639.608 1626.69C632.534 1622.2 625.585 1617.5 618.844 1612.55C612.977 1608.26 607.401 1603.85 601.909 1599.36C592.796 1489.86 579.564 1380.68 575.07 1270.89C575.028 1270.35 575.028 1269.85 574.945 1269.35C585.972 1275.22 597.456 1277.84 609.191 1277.38C615.557 1394.08 629.871 1510.24 639.608 1626.65V1626.69ZM1664.15 878.265C1659.08 930.271 1652.29 982.11 1645.39 1033.95C1641.89 980.737 1638.35 927.525 1635.27 874.312C1644.93 875.519 1654.58 876.85 1664.19 878.265H1664.15ZM1625.5 873.022C1626.87 951.323 1631.07 1029.71 1635.57 1107.96C1633.24 1125.69 1631.03 1143.41 1628.91 1161.14C1624.62 1197.17 1618.59 1233.03 1610.56 1268.39C1605.02 1135.01 1594.41 1001.96 1586.71 868.737C1599.66 869.985 1612.56 871.441 1625.5 873.022ZM1499.96 862.372C1525.75 863.703 1551.47 865.492 1577.19 867.863C1579.35 997.962 1589.42 1128.27 1595.45 1258.03C1595.99 1268.73 1596.58 1279.38 1597.2 1290.11C1592.29 1286.95 1586.34 1284.95 1579.14 1284.37C1553.51 1282.46 1531.62 1300.55 1513.77 1322.6C1512.65 1305.42 1511.65 1288.16 1510.98 1270.93C1507.03 1174.57 1500.37 1078.38 1494.05 982.193C1497.92 942.378 1500.12 902.395 1499.96 862.413V862.372ZM1495.75 1258.03C1497 1285.41 1498.87 1312.66 1500.95 1339.99C1492.22 1352.81 1484.77 1365.62 1478.69 1375.65C1475.95 1380.18 1473.2 1384.76 1470.45 1389.38C1467.13 1349.94 1464.34 1310.5 1462.71 1270.93C1461.72 1245.55 1460.38 1220.26 1459.01 1194.92C1469.04 1149.24 1477.9 1103.26 1484.81 1057.04C1488.43 1124.11 1492.63 1191.17 1495.71 1258.03H1495.75ZM1487.35 438.668C1507.45 512.434 1492.22 589.403 1478.07 665.29C1469.41 628.012 1457.97 591.067 1444.11 555.12C1444.53 554.288 1444.78 553.331 1444.86 552.208C1445.99 528.327 1446.28 503.738 1443.91 479.566C1459.3 472.992 1473.41 462.258 1482.4 448.029C1484.31 444.951 1485.97 441.872 1487.35 438.627V438.668ZM1466.71 386.87C1472.45 397.521 1477.19 408.214 1481.11 419.031C1479.57 424.356 1478.03 429.682 1475.2 434.258C1467.17 446.989 1455.27 456.725 1441.87 463.257C1439.16 445.741 1434.79 428.642 1427.93 412.416C1445.07 398.853 1451.9 378.882 1449.07 359.411C1455.52 367.899 1461.42 376.968 1466.67 386.829L1466.71 386.87ZM1435.96 372.434C1433.21 382.419 1427.22 390.116 1420.81 397.812C1418.23 393.028 1415.49 388.285 1412.37 383.667C1407.25 376.053 1400.55 367.857 1392.81 359.869C1397.59 359.203 1402.25 358.08 1405.08 357.664C1415.74 356.083 1427.22 357.789 1437.66 355.292C1437.91 360.951 1437.54 366.692 1435.92 372.434H1435.96ZM1401.71 314.104C1412.91 321.925 1423.35 330.787 1433.05 340.772C1423.56 342.936 1412.95 341.604 1403.54 344.267C1397.43 345.973 1389.69 347.679 1383.03 350.508C1368.96 337.943 1352.45 326.918 1335.38 321.384C1338.17 320.386 1340.96 319.429 1343.79 318.555C1363.85 312.439 1381.78 309.943 1401.71 314.145V314.104ZM1292.32 269.795C1320.36 275.37 1347.49 284.023 1372.34 296.588C1351.03 297.795 1329.18 305.075 1314.62 317.64C1309.34 317.474 1304.18 318.014 1299.02 319.263C1294.86 314.728 1290.61 310.234 1286.33 305.866C1282.75 302.246 1279.04 298.751 1275.34 295.257C1277.13 290.056 1279.42 284.814 1282.46 280.321C1285.37 276.118 1288.7 272.832 1292.32 269.753V269.795ZM1282.41 267.964C1280.21 269.878 1278.13 271.875 1276.42 273.622C1272.51 277.575 1268.52 281.693 1265.31 286.27C1255.24 277.575 1244.84 269.462 1233.98 262.181C1250.21 263.304 1266.48 265.176 1282.46 267.964H1282.41ZM1232.48 290.43C1225.78 291.429 1219.33 293.384 1216.88 294.175C1207.64 297.087 1178.84 306.573 1171.56 318.763C1157.75 314.353 1137.73 309.153 1113.47 306.074C1120.76 285.604 1139.56 264.095 1159.16 252.154C1184.59 260.101 1209.18 272.582 1232.48 290.43ZM1146.68 248.576C1139.4 252.778 1132.82 258.104 1127.95 262.43C1115.93 273.206 1102.28 287.976 1097.37 304.368C1074.53 302.537 1048.73 302.662 1021.26 306.864C1029.59 282.567 1042.61 260.142 1060.42 241.586C1089.55 239.423 1118.55 241.42 1146.72 248.618L1146.68 248.576ZM1049.1 242.627C1027.63 259.019 1012.03 284.231 1004.74 309.818C979.362 315.019 952.897 323.673 926.224 337.361C928.513 325.67 930.344 313.896 934.463 302.621C939.249 289.266 946.822 277.741 953.937 265.8C985.104 254.359 1017.14 246.121 1049.14 242.668L1049.1 242.627ZM843.211 364.653C845.999 346.306 850.035 329.248 856.859 312.439C882.658 297.129 910.079 283.15 938.333 271.708C922.313 293.509 914.407 319.387 908.623 346.971C907.167 347.804 905.71 348.552 904.296 349.468C881.659 363.405 860.521 377.509 840.672 392.82C841.713 383.334 841.837 373.515 843.169 364.653H843.211ZM824.319 332.951C829.479 329.456 834.805 326.044 840.215 322.674C835.346 335.53 831.518 350.258 830.935 352.671C827.149 369.48 821.448 389.866 822.78 407.423C812.21 416.327 802.099 425.688 792.445 435.673C774.511 425.438 766.397 402.431 760.696 381.711C780.919 364.321 802.057 347.887 824.361 332.909L824.319 332.951ZM753.123 388.202C753.289 401.182 756.285 413.997 762.402 425.688C766.563 433.551 772.971 442.205 780.794 448.029C772.763 457.099 765.024 466.627 757.575 476.778C757.034 477.444 756.618 478.11 756.119 478.775C736.354 464.006 729.28 437.379 726.991 412.624C735.48 404.22 744.177 396.107 753.081 388.16L753.123 388.202ZM558.925 741.801C574.862 657.052 599.287 578.96 648.347 507.275C668.778 477.444 691.58 449.569 716.38 423.732C716.214 449.985 725.785 478.859 746.299 492.505C720.458 528.826 697.489 565.813 682.8 608.541C664.991 660.339 652.799 713.842 642.271 767.554C619.261 885.379 631.078 1009.11 647.265 1127.23C651.01 1154.6 658.624 1183.6 653.049 1211.23C645.808 1247.05 601.95 1268.77 573.821 1239.48C542.114 1206.44 541.365 1141.87 537.745 1129.31C533.043 1086.08 529.714 1042.4 529.131 998.919C528.091 911.84 542.904 827.049 558.883 741.759L558.925 741.801ZM511.363 883.923C508.867 904.975 507.077 926.152 506.495 947.578C505.038 999.834 509.324 1051.63 515.941 1103.39C515.733 1104.35 515.816 1105.39 516.357 1106.55C516.44 1107.59 516.606 1108.67 516.731 1109.75C524.804 1203.53 547.482 1247.96 557.676 1257.12C558.425 1257.78 559.133 1258.37 559.882 1259.03C565.041 1368.74 577.941 1477.83 587.927 1587.21C546.358 1548.93 517.189 1502.71 498.256 1447.42C492.805 1431.48 488.394 1412.55 483.401 1393.25C479.989 1352.48 477.034 1311.7 475.328 1270.89C470.127 1143.7 460.182 1016.73 452.609 889.748C472.166 887.542 491.765 885.462 511.363 883.964V883.923ZM442.248 890.871C445.16 1013.31 454.44 1135.88 460.14 1257.99C461.347 1284.79 463.095 1311.54 465.134 1338.25C457.269 1320.98 447.199 1305.75 433.176 1294.9C431.554 1293.65 429.848 1292.52 428.183 1291.4C427.809 1284.54 427.392 1277.67 427.143 1270.85C421.983 1145.49 412.288 1020.43 404.673 895.239C417.239 893.825 429.764 892.285 442.289 890.871H442.248ZM394.145 896.446C397.141 1017.06 406.296 1137.71 411.872 1257.99C412.288 1266.94 412.87 1275.92 413.411 1284.87C403.217 1282.04 392.398 1282.12 382.078 1286.28C379.082 1287.49 369.304 1295.14 361.98 1303.01C352.493 1240.73 347.916 1177.94 344.878 1114.54C342.839 1071.19 340.176 1028.37 341.091 985.023C341.632 958.396 343.838 928.232 334.267 902.52C354.24 900.898 374.214 898.734 394.145 896.446Z" fill="black"/>
<path d="M1564.87 1339.5C1558.84 1335.21 1552.18 1337.29 1547.48 1341.87C1546.89 1342.24 1546.31 1342.49 1545.77 1342.91C1537.03 1349.77 1531.04 1361.63 1529.46 1372.53C1527.71 1384.35 1534.62 1395.12 1547.56 1393.25C1564.7 1390.75 1574.98 1375.69 1573.52 1358.97C1572.94 1352.02 1570.94 1343.74 1564.87 1339.45V1339.5ZM1559.71 1367.66C1557 1372.82 1552.05 1376.48 1546.44 1377.9C1545.65 1378.11 1544.94 1378.23 1544.48 1378.27C1544.36 1377.94 1544.31 1377.73 1544.27 1377.65C1544.11 1376.9 1544.02 1375.65 1544.15 1373.95C1544.27 1372.16 1544.6 1370.41 1545.06 1368.66C1546.19 1364.38 1548.06 1360.22 1550.43 1356.51C1552.18 1353.77 1554.72 1350.56 1557.34 1349.23C1558.25 1348.82 1558.71 1348.57 1559.38 1348.44C1560.13 1349.07 1560.75 1350.02 1561.29 1351.4C1563.33 1356.51 1562.21 1362.88 1559.71 1367.62V1367.66Z" fill="black"/>
<path d="M1385.15 1121.23C1359.77 1118.24 1340.54 1139.62 1333.26 1161.88C1326.9 1181.27 1328.77 1205.65 1346.45 1214.64C1349.66 1216.84 1353.36 1218.55 1357.52 1219.42C1384.32 1225 1407.91 1198.54 1414.94 1175.4C1422.31 1151.19 1412.95 1124.44 1385.15 1121.23ZM1379.78 1198.33C1365.59 1208.23 1348.49 1203.99 1344.5 1185.64C1344.46 1185.26 1344.37 1184.89 1344.33 1184.52C1344.21 1176.4 1346.45 1167.71 1349.12 1161.47C1356.44 1144.53 1381.82 1122.69 1397.97 1144.16C1410.37 1160.63 1393.85 1188.51 1379.78 1198.33Z" fill="black"/>
<path d="M576.152 1190.8C580.271 1194.67 585.431 1197.12 591.756 1197.16C620.675 1197.33 628.748 1157.89 626.376 1135.67C624.087 1114.33 605.612 1090.28 581.478 1100.47C561.838 1108.75 558.342 1136.34 559.757 1154.73C560.589 1166.63 565.915 1183.89 576.152 1190.76V1190.8ZM573.863 1137.34C574.196 1135.55 574.487 1133.8 574.903 1132.01C577.525 1121.4 583.142 1113.25 592.005 1113.08C616.972 1112.75 613.352 1151.94 607.235 1166.63C604.447 1173.32 600.286 1178.11 595.792 1179.98C594.877 1179.65 593.878 1179.56 592.713 1179.86C591.298 1180.27 589.967 1180.4 588.718 1180.27C584.973 1179.15 581.27 1175.9 578.066 1169.83C576.277 1166.5 575.07 1163.09 574.196 1159.64C572.864 1152.56 572.74 1144.62 573.821 1137.34H573.863Z" fill="black"/>
<path d="M414.16 1341.91C403.882 1346.4 398.931 1360.05 398.556 1370.45C398.307 1377.56 399.888 1385.01 404.507 1390.67C410.082 1397.41 429.723 1395.2 429.473 1393.04C439.377 1388.92 442.913 1374.07 440.666 1364.12C438.087 1352.56 428.599 1335.54 414.202 1341.91H414.16ZM426.519 1375.15C425.895 1377.73 423.98 1380.14 422.815 1380.85C420.444 1382.31 417.864 1382.26 414.951 1381.31C410.54 1374.07 411.788 1363.33 417.864 1356.51C417.864 1356.51 417.905 1356.51 417.905 1356.47C418.238 1356.26 419.32 1355.3 419.528 1355.05C419.736 1354.93 419.944 1354.89 420.111 1354.85C420.444 1355.01 420.901 1355.43 421.317 1355.84C422.649 1357.43 423.523 1359.21 424.397 1361.09C426.227 1365.37 427.601 1370.53 426.519 1375.15Z" fill="black"/>
</g>
<defs>
<clipPath id="clip0_157_332">
<rect width="1369" height="1569" fill="white" transform="translate(316 215)"/>
</clipPath>
</defs>
</svg>
