<svg width="2000" height="2000" viewBox="0 0 2000 2000" fill="none" xmlns="http://www.w3.org/2000/svg">
<g clip-path="url(#clip0_157_334)">
<path d="M358.164 1072.72C381.217 1187.94 410.324 1317.89 477.26 1416.44C552.417 1527.17 671.347 1558.55 799.053 1538.05C956.644 1512.72 1114.51 1470.17 1265.88 1420.11C1347.15 1393.22 1429.75 1369.28 1509.57 1338.28C1558.23 1319.39 1606.34 1292.72 1633.06 1246.11C1666.67 1187.78 1662.61 1115.05 1653.89 1050.78C1642.78 968.666 1629.39 885.832 1606.95 806.054C1575.57 694.554 1540.57 553.943 1435.92 487.11C1385.65 454.999 1326.15 453.11 1268.33 458.11C1193.95 464.665 1120.18 481.499 1048.58 502.054C956.2 528.61 864.1 555.499 771.556 581.61C695.844 602.943 625.964 634.054 553.695 664.332C501.313 686.277 446.264 707.721 402.436 744.943C390.16 755.277 379.995 766.721 371.44 778.888C363.052 790.388 356.275 803.11 351.387 817.499C342.444 841.666 338.667 868.11 339.278 895.999V896.443C337.222 955.554 346.888 1016.5 358.164 1072.78V1072.72ZM1626.67 1130.28C1625.67 1190 1607.73 1244.17 1556.24 1278C1503.02 1313 1435.64 1329.33 1375.76 1348.94C1232.94 1395.78 1091.13 1439.5 944.479 1472.44C894.819 1483.55 842.103 1497.78 789.499 1505.33C770.39 1503.33 751.781 1498.83 735.839 1491.72C692.511 1472.22 681.401 1424.55 665.903 1384.17C654.904 1355.44 644.017 1326.89 633.518 1298.33C634.296 1298.33 635.129 1298.28 635.907 1298.17C647.905 1297.05 659.293 1289.39 670.347 1285.28C696.399 1275.78 723.062 1266.78 750.67 1263.5C779.666 1260.05 808.607 1261.17 837.27 1266.39C858.101 1270.17 879.932 1280.78 900.984 1275.78C904.095 1279.22 907.206 1282.61 910.372 1285.78C962.421 1337.17 1028.8 1358.11 1100.51 1361.83C1233.94 1368.72 1362.87 1301.61 1402.75 1171.11C1404.03 1171.17 1405.37 1171.28 1406.75 1171.17C1434.64 1170.83 1481.97 1151.78 1491.13 1148.72C1529.02 1135.89 1593.84 1111 1624.34 1072.05C1626.12 1091.55 1627 1111 1626.67 1130.22V1130.28ZM602.689 1182.83C635.24 1162.33 665.236 1145.94 706.62 1142.61C747.893 1139.39 792.72 1162.05 832.549 1154.72C844.158 1192.78 863.6 1229.67 887.764 1260.22C865.878 1258.11 842.047 1249.44 821.217 1246.83C799.053 1244 776 1244 753.67 1246.22C733.339 1248.22 714.397 1253.33 695.177 1260.11C684.734 1263.72 674.18 1267.28 664.125 1271.89C654.96 1276.11 640.74 1286.44 630.685 1290.55C618.298 1256.33 606.522 1221.94 596.19 1187.05C598.356 1185.67 600.578 1184.22 602.744 1182.89L602.689 1182.83ZM886.264 926.554C888.597 923.166 890.986 919.943 893.374 916.777C905.428 902.61 918.538 889.443 932.48 877.554C969.143 848.61 1051.35 811.721 1051.35 811.165C1101.29 795.332 1155.01 791.221 1208.67 801.332C1341.71 826.332 1406.53 974.054 1396.53 1097.55C1391.7 1157.28 1372.81 1217.05 1329.99 1260.5C1285.05 1306.05 1223 1337.33 1158.95 1342.39C1092.74 1347.55 1018.19 1339.28 962.199 1301.39C906.428 1263.55 864.767 1199 847.824 1133.72C830.104 1064.94 846.714 985.054 886.264 926.61V926.554ZM1621.17 1043.39C1599.17 1085.28 1534.02 1112.28 1494.85 1127.28C1468.64 1137.28 1436.42 1152.44 1406.42 1158C1406.87 1156.17 1407.42 1154.39 1407.75 1152.55C1416.64 1114.05 1418.97 1072.78 1414.53 1032.22C1415.36 1032.55 1416.31 1032.78 1417.14 1033.05C1437.64 1038.28 1473.47 1021.78 1487.41 1016.55C1511.3 1007.78 1533.35 995.054 1549.85 975.332C1569.07 952.499 1576.45 931.221 1598.73 913.054C1606.62 955.499 1615.56 999.443 1621.17 1043.33V1043.39ZM1540.13 698.221C1562.23 762.888 1582.29 829.443 1595.56 896.61C1583.79 902.332 1573.9 908.499 1564.85 919.166C1547.96 939.221 1539.85 962.277 1517.96 978.832C1490.3 999.666 1449.3 1013.89 1414.36 1022.78C1414.03 1022.94 1413.75 1023 1413.36 1023.05C1401.48 934.332 1357.04 849.943 1276.88 805.388C1212.78 769.777 1125.35 770.388 1056.19 789.499C1005.86 803.443 961.643 828.721 924.093 862.554C909.539 872.832 895.985 884.721 883.931 898.777C840.159 950.11 818.717 1020.78 820.883 1087.67C821.383 1104.44 823.939 1121.55 828.049 1138.67C800.108 1139.94 772.334 1129 744.449 1126.5C718.341 1124.17 691.233 1126.28 665.847 1133.28C656.46 1135.89 607.521 1154.17 591.579 1171.89C585.58 1150.67 580.025 1129.28 575.303 1107.5C558.25 1029.55 535.031 935.221 591.968 867.943C636.185 815.666 708.287 792.999 771.056 772.388C941.257 716.499 1112.51 660.61 1287.88 623.221C1336.37 612.888 1386.03 602.999 1435.75 600.61C1449.64 599.999 1479.74 596.499 1498.13 604.277C1515.24 633.499 1528.85 665.888 1539.96 698.443L1540.13 698.221ZM376.662 831.943C409.047 766.054 480.093 731.332 551.14 700.443C602.966 677.888 653.405 652.11 706.731 633.388C776.722 608.888 849.158 592.388 920.315 571.554C1049.08 533.888 1182.67 482.943 1319.1 486.221C1396.98 488.054 1450.36 530.332 1488.24 587.777C1383.42 556.888 1037.02 668.888 995.361 681.443C913.205 706.166 831.493 732.332 750.059 759.499C685.845 780.999 614.743 807.11 572.026 862.888C522.31 927.943 537.03 1011.5 551.806 1086C574.748 1201.89 618.631 1308.44 659.626 1418.55C673.513 1455.83 691.455 1491.78 729.895 1508.22C731.839 1509 733.894 1509.72 735.95 1510.39C676.291 1512.55 618.298 1501.67 566.804 1462.94C472.094 1391.67 440.765 1264.44 412.324 1155.67C391.882 1077.33 374.718 997.166 372.662 915.943C371.94 888.666 370.829 859.332 376.662 831.999V831.943Z" fill="black"/>
<path d="M1329.87 683.501C1310.71 692.501 1302.49 704.279 1305.93 725.668C1305.99 726.168 1306.21 726.501 1306.38 726.945C1305.49 735.556 1306.71 744.334 1312.99 755.112C1323.04 772.445 1340.82 775.723 1359.76 773.612C1389.98 770.223 1417.36 756.501 1446.86 750.945C1462.86 747.89 1481.02 747.89 1487.3 730.056C1500.52 692.334 1458.86 658.445 1425.7 659.168C1395.37 659.89 1357.54 670.556 1329.93 683.556L1329.87 683.501ZM1459.08 688.056C1462.97 692.501 1470.19 704.612 1469.91 710.668C1469.36 723.501 1455.64 728.556 1446.86 731.445C1422.97 739.279 1396.26 745.945 1371.54 750.445C1358.82 752.779 1342.26 757.445 1331.6 747.279C1324.82 740.89 1321.88 729.668 1320.38 718.834C1333.54 691.168 1375.09 683.612 1403.25 677.834C1423.31 673.668 1444.64 671.334 1459.03 688.056H1459.08Z" fill="black"/>
<path d="M1118.85 1287.28C1214.89 1288.94 1325.93 1225.44 1353.09 1128.66C1381.48 1027.55 1328.54 921.609 1236.78 874.776C1160.29 835.776 1069.07 840.665 1003.97 889.498C999.861 891.443 995.917 893.665 992.084 896.332C968.643 912.943 949.534 934.165 934.203 958.387C906.095 1003.11 890.097 1057.5 904.929 1109.5C934.369 1212.83 1008.58 1285.44 1118.85 1287.22V1287.28ZM946.535 973.776C958.478 953.22 973.476 934.776 990.751 918.443C1023.86 890.776 1068.07 870.22 1105.18 865.776C1160.4 859.22 1217.44 876.998 1261.66 909.998C1313.54 948.776 1345.82 1012.61 1343.71 1077.72C1341.6 1142.55 1305.27 1191.11 1253.5 1227.11C1204.39 1261.22 1148.01 1275.05 1088.74 1266.39C1022.69 1256.83 975.809 1219.78 945.701 1161.05C913.317 1097.61 909.65 1036.94 946.535 973.776Z" fill="black"/>
<path d="M1047.69 1000.78C1058.96 985.445 1085.85 941.501 1051.97 933.501C1016.8 925.167 982.141 961.556 976.809 993.723C972.42 1009.44 973.087 1029.72 984.197 1041.11C1005.58 1063 1036.8 1015.56 1047.63 1000.78H1047.69ZM990.251 1009.72C989.474 1001.06 991.529 992.556 995.195 984.778C1001.47 971.723 1012.08 961.445 1023.86 953.278C1028.41 951.612 1033.25 950.167 1038.69 949.334C1067.57 945.056 1040.08 981.001 1032.69 990.223C1026.8 997.612 1020.41 1004.72 1014.19 1011.78C1011.86 1014.33 1000.75 1029.33 997.528 1028.67C992.307 1027.61 990.64 1013.39 990.251 1009.67V1009.72Z" fill="black"/>
<path d="M510.923 779.221C535.475 795.555 572.97 779.221 599.689 767.332C616.021 762.943 633.963 755.055 648.683 747.499C657.293 743.61 665.514 739.11 672.347 733.61C674.291 732.332 675.957 731.166 677.124 730.166C688.123 721.277 700.788 705.61 688.623 692.11C674.18 676.332 637.907 685.777 620.52 688.888C584.025 695.443 544.419 709.11 516.922 735.277C504.035 747.555 491.981 766.61 510.867 779.221H510.923ZM528.532 748.888C532.142 742.832 543.807 736.555 549.64 733.11C572.582 719.443 599.023 710.999 625.186 706.721C632.907 705.443 672.513 696.666 675.402 705.943C677.235 711.832 660.571 722.499 649.35 728.888C640.184 733.055 630.408 736.221 621.742 739.499C603.244 746.61 584.969 756.055 565.916 761.832C562.25 763.332 558.472 764.388 554.528 764.777C554.195 764.832 553.917 764.999 553.64 764.999C546.029 766.888 538.197 767.443 530.309 766.832C520.033 760.221 519.477 754.221 528.532 748.888Z" fill="black"/>
</g>
<defs>
<clipPath id="clip0_157_334">
<rect width="1321" height="1088" fill="white" transform="translate(339 456)"/>
</clipPath>
</defs>
</svg>
