<svg width="2000" height="2000" viewBox="0 0 2000 2000" fill="none" xmlns="http://www.w3.org/2000/svg">
<g clip-path="url(#clip0_157_335)">
<path d="M301.009 1177.43C300.627 1170.3 294.647 1168.9 295.284 1160.89C294.52 1129.59 307.497 1111.9 313.223 1087.09C317.294 1065.34 338.923 1041.8 333.07 1022.46C331.798 1022.46 330.653 1022.46 329.381 1022.46C311.314 1065.72 285.614 1101.47 285.996 1162.8C291.339 1167.38 291.339 1177.17 300.882 1177.43H301.009Z" fill="#111111"/>
<path d="M1454.71 567.21C1438.43 547.235 1417.05 532.348 1393.52 519.625C1331.56 508.046 1226.47 493.16 1166.8 513.645C1264.89 514.154 1386.77 505.883 1436.27 561.739C1457.64 585.023 1447.59 646.478 1453.7 679.559C1461.84 658.31 1463.11 630.192 1462.35 600.291C1462.09 588.331 1444.15 572.554 1454.84 567.083L1454.71 567.21Z" fill="#111111"/>
<path d="M623.278 559.703C677.095 542.527 736.892 512.881 801.779 508.81C812.975 508.046 828.624 512.499 836.766 506.774C828.497 495.959 801.906 503.72 785.112 501.557C727.35 511.609 674.932 527.131 623.151 543.163C615.899 551.306 611.191 561.866 608.646 574.59C617.425 573.445 615.771 562.121 623.278 559.703Z" fill="#111111"/>
<path d="M1764.77 1197.66C1726.09 1072.97 1678.76 956.931 1596.83 876.137C1581.18 836.949 1576.34 791.653 1557.39 756.537C1549.37 741.65 1536.78 732.235 1529.52 717.984C1535.88 619.378 1533.47 503.976 1533.09 404.478C1521.89 394.809 1508.28 387.556 1494.28 380.813C1179.9 366.944 849.362 369.616 527.984 363C525.566 363 525.439 365.417 522.513 364.909C511.571 373.052 499.612 380.049 491.342 390.864C489.179 492.27 489.434 620.905 498.976 722.692C481.418 726.128 463.861 729.563 447.448 734.016C427.601 771.678 396.684 813.029 391.214 870.793C378.363 878.3 366.531 886.698 358.134 898.658C308.77 965.201 253.807 1058.08 236.25 1155.67C217.674 1259.62 214.875 1398.94 242.102 1500.35C245.028 1512.82 262.586 1510.53 268.057 1520.45C273.782 1552.13 274.164 1589.29 281.543 1614.35C288.922 1619.82 301.263 1620.46 314.749 1619.7C327.345 1591.83 326.963 1551.12 334.343 1518.16C450.883 1527.58 571.114 1520.33 688.291 1519.56C769.208 1519.05 850.634 1527.71 931.679 1527.2C1181.81 1525.54 1428.89 1542.85 1676.47 1529.74C1679.02 1547.55 1682.58 1567.15 1686.01 1586.87C1689.19 1604.81 1688.3 1627.84 1702.94 1636.49C1730.93 1639.04 1732.45 1615.5 1737.67 1595.65C1739.96 1572.87 1745.81 1553.66 1746.45 1529.23C1754.46 1523.76 1767.82 1523.51 1772.15 1514.35C1779.4 1417.01 1782.07 1286.85 1764.51 1197.28L1764.77 1197.66ZM524.421 381.449C525.948 381.067 526.203 379.54 528.111 379.54C531.037 380.049 531.292 377.759 533.709 377.632C776.206 383.103 1054.33 383.866 1308.02 389.338C1358.78 390.355 1408.53 392.391 1459.17 392.009C1472.53 392.009 1489.7 388.701 1499.75 400.916C1186.9 401.934 870.227 388.065 542.869 390.483C533.073 391.628 518.06 390.483 524.421 381.322V381.449ZM1520.11 415.675C1514.51 513.391 1510.95 613.016 1510.95 716.203C1500.39 717.603 1494.41 714.295 1485.12 714.549C1497.33 655.512 1476.85 583.752 1480.16 524.715C1481.3 505.884 1487.41 487.435 1472.4 474.966C1407.89 478.02 1342.37 463.006 1273.29 465.169C1225.96 466.696 1177.36 479.547 1131.43 482.601C1101.27 484.636 1065.9 473.312 1046.82 499.777C1040.84 537.057 1055.09 569.12 1054.84 606.654C1042.75 604.746 1035.24 598.13 1025.32 593.931C1017.81 554.743 1046.31 509.065 1015.39 490.744C997.583 489.598 984.097 492.779 971.247 496.469C909.032 473.44 846.817 460.971 772.007 466.442C697.961 471.913 634.601 512.628 562.081 491.761C549.231 496.978 540.325 506.139 540.07 517.717C539.689 534.385 557.755 542.146 562.463 554.488C557.755 611.998 560.427 672.689 585.618 705.516C561.318 710.223 537.653 715.567 511.953 718.875C518.951 616.833 511.062 501.94 509.917 403.588C848.98 403.97 1180.54 421.91 1520.24 415.548L1520.11 415.675ZM1464.89 710.987C1422.4 705.77 1386.52 693.81 1344.92 687.83C1330.28 637.063 1303.57 598.638 1275.96 561.104C1273.79 561.359 1272.65 560.723 1272.27 559.323C1201.4 565.049 1132.57 572.81 1090.08 606.527C1084.73 566.448 1109.93 540.619 1131.94 521.407C1114.38 522.298 1100.76 543.037 1089.82 556.778C1081.04 571.283 1091.48 604.746 1077.23 614.034C1074.43 575.991 1054.33 537.948 1061.83 501.686C1130.92 500.668 1216.54 499.65 1282.96 485.527C1350.51 482.601 1404.71 492.652 1467.31 489.853C1455.35 558.178 1471.51 638.717 1465.02 711.114L1464.89 710.987ZM1269.09 634.773C1287.28 670.78 1299.5 731.599 1271.76 765.697C1216.42 788.727 1141.99 792.671 1083.97 813.029C1071.25 804.25 1064.76 789.236 1057.89 774.477C1057.89 768.369 1063.87 768.115 1063.36 761.499C1074.56 770.66 1076.21 789.363 1094.91 790.763C1091.86 779.566 1074.94 766.461 1070.74 750.429C1083.84 717.985 1122.78 663.91 1086.52 632.356C1129.14 599.275 1200.38 594.567 1266.92 585.152C1292.37 628.666 1322.27 667.727 1328.76 730.453C1319.72 740.378 1302.42 742.286 1293.9 752.72C1311.2 718.493 1298.86 654.24 1269.21 634.9L1269.09 634.773ZM616.916 699.79C610.555 698.39 609.919 702.589 604.066 701.698C577.348 667.6 586.636 596.857 579.129 543.291C573.404 531.204 558.137 528.659 554.956 513.9C564.88 508.047 581.038 510.338 591.852 513.646C681.039 513.391 751.142 481.964 844.273 488.072C878.625 490.362 906.742 501.558 940.203 507.793C967.175 508.047 990.204 510.847 1013.87 505.503C1012.72 536.548 1004.71 562.758 1001.53 586.678C987.15 589.478 990.585 574.337 990.331 562.758C986.514 550.544 985.114 535.912 975.445 529.677C972.773 544.309 983.588 560.723 981.298 581.207C953.816 574.846 924.554 565.176 890.838 570.774C867.174 595.585 855.087 631.974 837.911 663.274C766.536 670.399 701.523 683.758 635.364 695.973C615.262 678.669 612.336 643.807 609.028 609.453C592.488 633.628 606.102 679.814 616.916 699.79ZM901.907 589.223C906.869 589.223 911.704 589.223 916.666 589.223C969.72 600.674 1014.63 618.487 1057.13 636.3C1063.87 646.86 1077.99 649.787 1081.3 663.783C1074.43 710.732 1044.28 734.652 1028.5 772.95C975.063 798.142 899.108 771.041 838.548 768.624C845.927 695.21 871.118 639.608 901.907 589.35V589.223ZM462.334 746.867C469.077 745.594 480.655 749.157 484.472 744.831C490.324 748.648 473.912 760.863 469.84 767.097C460.68 789.745 447.957 809.084 442.614 835.549C471.622 802.468 486.126 755.137 530.401 737.324C628.112 720.911 719.208 697.754 823.153 687.575C823.789 687.575 824.298 687.575 824.934 687.575C833.84 689.229 823.28 699.535 824.934 706.024C779.895 718.112 732.567 732.744 681.421 741.905C631.293 750.938 577.094 752.72 526.711 765.061C630.148 761.499 730.785 739.487 821.372 717.094C819.209 734.907 812.72 756.791 818.064 776.131C819.591 781.984 824.807 784.146 827.352 788.981C886.513 799.542 941.094 814.81 1010.05 815.446C1025.57 811.756 1034.61 801.832 1046.82 794.961C1051.15 812.902 1060.82 825.371 1074.68 833.514C1178.12 816.591 1288.04 806.031 1346.95 745.085C1390.46 754.246 1422.02 775.367 1470.62 779.312C1435.37 761.117 1394.79 748.521 1350.51 739.487C1355.6 728.927 1351.79 728.927 1348.48 719.257C1388.17 723.583 1419.98 735.925 1459.17 740.632C1495.55 761.244 1516.8 797.252 1537.16 834.15C1536.65 793.307 1509.29 769.642 1497.84 745.976C1507 745.976 1516.29 745.976 1525.45 745.849C1544.41 784.783 1557 830.078 1574.18 870.92C1369.85 860.487 1162.22 860.36 954.707 862.014C856.232 862.777 754.323 845.983 657.884 852.853C576.458 858.579 492.487 853.489 412.842 863.668C424.802 820.536 442.868 783.383 461.825 747.248L462.334 746.867ZM385.87 896.622C411.061 881.354 443.759 883.39 476.202 883.135C542.615 882.753 611.573 882.244 679.004 881.863C712.465 881.608 743.381 877.028 774.806 875.755C806.359 874.483 839.438 879.445 872.518 880.718C970.865 884.407 1077.35 879.063 1178.5 882.372C1313.49 886.952 1447.33 887.079 1576.73 888.988C1598.48 904.129 1609.68 929.83 1626.85 949.551C1626.09 952.223 1625.2 949.424 1623.16 949.551C1528 932.884 1421.38 939.754 1317.05 940.518C1212.47 941.154 1108.4 938.609 1014.63 927.667C967.175 922.196 919.974 915.58 872.518 912.017C719.589 900.439 565.771 925.631 415.514 929.703C398.338 934.156 379.127 936.446 363.987 942.935C365.513 929.194 377.218 909.6 385.743 896.749L385.87 896.622ZM258.515 1164.83C279.762 1085.31 320.602 1017.75 356.735 952.223C474.548 922.451 615.517 927.285 749.233 920.287C818.827 916.598 908.269 923.85 976.081 931.739C1048.09 940.136 1120.74 945.734 1193.77 948.788C1349.88 955.277 1501.66 942.935 1640.08 971.69C1673.93 1040.65 1713.5 1108.47 1740.98 1188.63C1744.16 1198.04 1751.66 1208.09 1748.48 1218.14C1736.52 1232.9 1715.53 1231.25 1698.74 1233.16C1642.88 1239.39 1578.51 1233.03 1518.07 1228.83C1437.03 1223.23 1352.17 1224.38 1269.21 1224.89C1146.44 1225.65 1022.14 1217.89 898.599 1216.24C837.021 1215.47 772.898 1218.78 723.406 1206.31C610.809 1201.98 488.416 1204.15 365.768 1204.91C327.854 1205.17 288.159 1213.31 256.861 1198.3C249.863 1188.24 255.716 1175.77 258.515 1165.09V1164.83ZM253.425 1240.41C279.253 1236.59 303.299 1230.99 328.872 1227.05C563.099 1229.21 792.746 1227.69 1020.23 1237.36C1247.84 1247.03 1474.56 1242.06 1704.21 1249.57C1721.26 1256.44 1737.16 1264.33 1746.83 1278.83C1753.7 1331.38 1752.17 1395.64 1751.66 1450.22C1698.74 1438.9 1662.35 1410.78 1594.66 1414.34C1584.49 1370.19 1591.36 1308.86 1580.8 1265.09C1570.87 1311.66 1577.87 1373.24 1572.53 1420.07C1535.12 1430.24 1494.41 1416.25 1463.75 1407.85C1444.41 1374.13 1470.49 1320.19 1461.07 1278.83C1440.59 1310.52 1449.12 1370.83 1436.14 1409.89C1388.3 1404.42 1352.04 1422.48 1309.04 1425.54C1229.65 1431.01 1143.9 1419.05 1058.27 1423.37C974.809 1427.7 892.62 1426.81 816.919 1439.66C817.682 1401.11 812.593 1368.54 805.214 1338.38C797.707 1366.12 802.415 1412.81 807.758 1439.79C749.488 1457.34 667.935 1460.91 595.796 1454.04C602.794 1421.59 597.196 1377.44 596.941 1336.09C596.687 1306.19 597.196 1276.16 587.145 1255.04C581.547 1316.75 584.728 1390.93 590.326 1452.26C579.002 1451.24 569.715 1448.44 560.809 1445.13C547.704 1392.2 557.628 1326.67 554.193 1270.06C544.142 1283.16 545.16 1303.14 543.506 1321.71C540.07 1358.23 540.834 1399.2 542.361 1439.66C460.553 1419.56 334.343 1405.05 252.917 1437.88C251.008 1377.7 233.196 1293.47 253.553 1240.66L253.425 1240.41ZM1722.27 1465.11C1577.23 1485.59 1417.44 1454.55 1270.61 1473.5C1096.69 1468.29 929.897 1458.36 752.541 1465.74C933.587 1438.77 1150.13 1441.95 1346.06 1449.07C1377.87 1445.64 1405.09 1437.75 1432.58 1430.12C1435.63 1430.63 1435.76 1428.34 1438.17 1428.21C1483.98 1427.06 1508.66 1447.04 1556.24 1443.99C1613.11 1421.97 1680.42 1443.99 1722.27 1465.11ZM581.165 1465.11C577.221 1470.83 570.732 1463.45 564.498 1465.11C568.442 1459.38 574.931 1466.89 581.165 1465.11ZM254.825 1454.29C278.108 1443.09 309.66 1440.04 337.65 1433.42C414.878 1436.22 487.652 1443.48 547.959 1463.45C452.41 1464.6 344.648 1472.49 256.733 1469.05C258.006 1462.18 253.553 1461.16 254.825 1454.29ZM301.772 1597.81C293.884 1590.3 294.138 1574.66 292.357 1561.04C299.736 1561.55 301.645 1556.71 308.897 1557.22C306.48 1570.71 306.225 1586.36 301.772 1597.81ZM312.459 1538.77C301.518 1537.63 299.228 1545.26 288.54 1544.5C288.54 1535.85 288.54 1527.32 288.413 1518.67C297.574 1518.67 306.861 1518.54 316.022 1518.54C315.513 1526.05 312.968 1531.4 312.459 1538.9V1538.77ZM1712.1 1605.45C1712.99 1592.85 1699.37 1558.75 1719.09 1561.17C1718.2 1577.33 1713.62 1589.92 1712.1 1605.45ZM1724.56 1548.19C1717.44 1547.94 1710.95 1548.19 1706.12 1550.23C1705.99 1542.34 1703.57 1536.74 1702.3 1530C1712.35 1530.76 1717.44 1526.56 1728.13 1527.96C1728.13 1535.98 1723.93 1539.67 1724.56 1548.19ZM1740.85 1503.79C1732.96 1503.79 1728 1500.73 1718.71 1502.13C1596.7 1504.04 1474.69 1511.93 1351.91 1508.24C1229.77 1504.42 1106.87 1509.64 984.987 1505.06C804.705 1498.31 629.13 1498.19 439.306 1499.33C379.254 1499.71 319.202 1500.6 260.423 1493.1C260.423 1491.83 260.423 1490.55 260.423 1489.41C260.169 1487.24 260.805 1486.1 262.204 1485.72C387.778 1487.24 511.953 1485.97 636.382 1485.21C1001.91 1482.92 1371 1494.5 1744.41 1491.06C1750.39 1485.97 1755.61 1487.88 1755.48 1496.53C1758.92 1509.64 1747.47 1505.18 1740.72 1504.04L1740.85 1503.79Z" fill="#111111"/>
<path d="M375.183 964.947C358.516 960.239 351.518 988.613 353.299 1001.97C365.895 994.847 374.547 983.905 375.183 964.947Z" fill="#111111"/>
<path d="M1705.61 1168.52C1688.69 1103.38 1662.48 1047.65 1632.58 995.738C1630.16 995.738 1630.03 993.448 1626.98 993.957C1629.4 1004.14 1627.49 999.555 1625.2 1005.03C1654.46 1067.5 1691.87 1121.83 1696.57 1209.24C1711.71 1205.93 1704.34 1181.25 1705.48 1168.65L1705.61 1168.52Z" fill="#111111"/>
<path d="M1494.54 437.941C1491.1 467.333 1487.67 512.755 1495.17 541.129C1497.97 512.246 1504.97 461.989 1494.54 437.941Z" fill="#111111"/>
<path d="M528.493 431.2C528.111 429.8 526.966 429.037 524.803 429.418C524.803 431.708 522.513 431.963 523.022 434.889C521.495 512.884 516.025 610.091 530.147 680.07C535.872 605.384 530.147 510.721 528.62 431.2H528.493Z" fill="#111111"/>
<path d="M668.698 1317C666.917 1317 665.008 1317 663.227 1317C661.446 1353.14 653.176 1409.25 667.68 1438.64C678.495 1407.59 672.133 1351.48 668.698 1317Z" fill="#111111"/>
<path d="M1533.85 1401.87C1538.05 1372.86 1529.01 1341.18 1525.83 1313.44C1525.45 1312.04 1524.31 1311.28 1522.14 1311.66C1522.14 1314.08 1519.85 1314.21 1520.36 1317.26C1523.16 1346.9 1515.02 1390.67 1533.85 1402V1401.87Z" fill="#111111"/>
<path d="M1123.28 633.881C1162.09 622.685 1208.91 619.504 1254.07 614.542C1211.96 602.073 1150.64 613.778 1123.28 633.881Z" fill="#111111"/>
<path d="M1071.88 667.345C1048.6 695.082 1036.64 733.889 1004.2 752.592C988.55 760.354 973.282 768.497 954.58 773.204C935.114 765.061 912.976 759.717 893.638 751.447C858.141 704.498 893.129 630.447 924.045 603.728C921.628 603.728 921.501 601.31 918.447 601.947C882.06 628.539 845.545 719.511 888.167 762.517C973.791 800.941 1062.47 749.03 1071.88 667.345Z" fill="#111111"/>
</g>
<defs>
<clipPath id="clip0_157_335">
<rect width="1556" height="1274" fill="white" transform="translate(222 363)"/>
</clipPath>
</defs>
</svg>
