<svg width="2000" height="2000" viewBox="0 0 2000 2000" fill="none" xmlns="http://www.w3.org/2000/svg">
<g clip-path="url(#clip0_157_311)">
<path d="M1219.81 1178.2C1196.5 1142.13 1143.4 1129.98 1097.39 1117.01C1048.34 1103.23 996.048 1087.23 957.538 1067.37C957.335 1072.44 958.146 1076.49 960.375 1079.12C1041.25 1117.82 1135.9 1142.54 1219.61 1178.2H1219.81Z" fill="black"/>
<path d="M1036.18 994.84C1077.32 1030.5 1120.7 1063.73 1179.07 1082.16C1137.52 1043.26 1084.22 1015.91 1030.5 988.965C1030.91 992.612 1031.31 995.853 1036.38 994.84H1036.18Z" fill="black"/>
<path d="M1391.69 904.479C1382.16 879.356 1358.85 848.155 1342.23 814.118C1316.69 762.251 1294.2 725.782 1260.75 691.745C1252.24 683.033 1243.53 678.171 1237.44 673.713C1241.5 663.178 1244.74 652.237 1247.17 641.094C1247.78 640.486 1248.59 639.676 1249 639.271C1268.66 616.579 1287.51 605.638 1307.17 589.835C1304.74 516.29 1296.43 455.914 1263.39 400.603C1261.16 363.121 1328.04 292.818 1318.72 257.97C1311.42 230.618 1246.36 227.377 1210.89 228.795C1192.45 245.408 1181.71 267.087 1170.15 292.818C1160.42 314.699 1154.34 354.004 1129.41 356.841C1116.44 290.386 1152.72 232.644 1146.84 173.281C1129.21 172.066 1074.69 161.53 1065.16 170.445C1019.76 212.789 1005.78 346.103 966.05 388.852C932.202 358.867 909.298 241.761 861.262 237.304C832.278 234.67 826.805 263.845 791.336 260.604C776.945 240.951 769.04 214.815 750.596 199.417C720.396 190.3 698.911 213.802 677.832 228.592C654.523 244.801 629.188 256.349 619.459 275.191C596.758 319.764 639.727 362.513 654.321 394.525C695.06 483.671 670.738 612.729 680.467 723.554C660.199 751.918 641.754 786.158 624.121 822.83C605.879 847.547 591.286 880.167 582.165 913.394C566.153 948.039 549.735 981.874 531.899 1012.06C488.727 1085.61 457.514 1138.08 465.216 1251.13C473.12 1368.24 520.549 1521 610.946 1559.9C636.282 1617.04 674.387 1638.72 727.49 1673.56C758.703 1694.03 792.146 1714.08 820.725 1731.71C850.722 1750.35 879.706 1775.07 913.96 1790.06C950.443 1805.86 993.615 1826.73 1027.67 1830.78C1094.15 1838.89 1150.7 1806.47 1214.14 1810.32C1229.74 1811.33 1242.92 1818.43 1257.92 1819.03C1332.1 1822.07 1413.58 1772.43 1444.39 1737.59C1485.33 1691.19 1529.72 1583.41 1534.78 1513.3C1547.15 1341.7 1485.94 1172.73 1435.67 1050.15C1415.4 1000.72 1409.32 950.268 1391.89 904.479H1391.69ZM1374.26 977.214C1327.03 924.537 1260.15 891.31 1196.5 854.841C1192.04 808.445 1173.19 765.493 1190.62 720.92C1255.48 802.772 1350.34 854.436 1374.26 977.214ZM1295.62 1131.6C1260.55 1077.3 1258.32 990.181 1234.4 924.74C1289.53 958.98 1288.72 1049.14 1295.62 1131.6ZM1307.17 811.281C1264.4 792.034 1228.93 739.965 1196.5 700.66C1247.17 712.208 1265.42 781.093 1307.17 811.281ZM1170.15 648.185C1152.52 647.375 1141.78 639.676 1120.7 642.31C1133.06 592.469 1204 576.058 1249 549.112C1175.22 556 1132.86 594.09 1100.43 642.31C1061.92 643.93 1030.71 638.055 1004.36 627.722C1032.33 537.361 1127.18 504.539 1249.2 517.1C1254.67 532.903 1258.32 550.733 1257.92 572.411C1225.69 594.495 1189.41 612.729 1170.56 648.185H1170.15ZM1158.4 860.717C1136.1 855.044 1134.68 828.097 1103.06 831.542C1099.01 810.471 1096.98 787.172 1088.47 770.355C1071.24 777.041 1082.19 815.131 1082.59 831.542C1045.91 847.345 1004.76 858.691 986.521 892.728C981.454 883.206 982.062 868.01 977.806 857.678C1002.53 808.648 974.36 714.031 992.399 653.858C1017.33 667.838 1050.16 673.916 1088.47 674.321C1080.57 686.883 1085.23 710.182 1082.59 720.92C1095.97 713.018 1096.98 692.555 1100.02 674.321C1122.12 673.511 1142.79 674.321 1158.4 680.197C1141.98 733.279 1146.03 806.014 1158.4 860.717ZM1085.63 313.078C1083.4 331.92 1083.61 349.952 1082.8 368.389C1074.28 367.579 1073.88 374.872 1065.37 374.264C1084.22 318.548 1073.68 250.879 1103.27 205.293C1106.71 232.442 1090.5 272.152 1085.84 313.078H1085.63ZM864.302 275.191C891.259 318.954 905.65 437.274 978.008 429.575C990.169 428.36 1005.37 416.204 1012.87 403.439C1045.3 349.142 1047.33 256.146 1079.96 202.456C1070.84 261.414 1055.03 338.809 1036.18 397.564C1052.39 402.021 1069.82 393.512 1091.51 391.688C1133.26 388.447 1183.13 407.086 1205.22 385.813C1207.85 367.579 1190.02 370.01 1187.79 356.638C1196.91 341.645 1202.99 323.006 1211.1 304.163C1217.38 289.576 1220.82 258.578 1245.96 263.44C1237.44 289.779 1220.82 308.216 1216.77 339.214C1235.01 331.11 1243.12 287.955 1257.51 266.479C1266.63 265.061 1267.85 271.747 1277.98 269.316C1268.66 305.177 1238.46 346.913 1237.24 400.4C1236.63 427.144 1246.16 451.457 1228.53 467.462C1099.62 474.553 1007.8 518.519 972.13 619.01C957.943 607.867 942.944 597.737 913.96 601.586C957.74 492.99 1049.76 432.412 1202.38 432.614C1190.22 420.256 1157.59 418.027 1129.62 420.863C1017.33 433.02 922.27 510.617 896.529 604.423C880.72 608.475 861.465 619.618 847.074 616.174C853.965 556 886.8 521.963 922.878 490.964C924.702 455.306 914.365 411.544 876.261 406.479C869.775 358.664 848.898 325.032 838.358 281.269C846.061 278.433 853.763 275.191 864.505 275.394L864.302 275.191ZM963.415 642.107C954.7 687.896 955.308 742.599 951.659 793.655C940.309 776.839 927.337 761.643 902.204 758.604C900.988 708.764 904.636 663.988 913.96 624.683C937.674 623.265 946.187 637.042 963.415 642.107ZM887.611 761.441C859.032 763.872 847.682 783.525 820.522 787.577C825.995 735.71 828.832 681.412 849.709 644.943C863.491 639.473 878.896 635.421 893.489 630.356C891.665 662.57 884.368 714.639 887.611 761.441ZM811.807 292.615C828.63 335.972 844.439 380.343 867.14 417.824C859.64 418.23 857.006 423.092 852.546 426.536C827.414 390.473 814.644 342.05 797.214 298.288C802.889 297.072 804.51 292.007 811.807 292.412V292.615ZM739.043 222.717C748.772 237.102 755.055 255.336 765.189 269.316C762.149 276.812 754.65 280.054 753.636 289.779C759.109 357.246 778.972 410.125 808.969 452.875C830.048 457.13 860.451 456.724 881.733 446.999C885.381 459.966 893.083 468.678 896.326 481.847C844.844 507.983 814.442 555.392 814.644 633.395C792.146 652.642 767.013 684.654 747.556 697.418C762.757 524.799 736.205 374.062 680.467 263.44C710.059 292.21 714.113 346.305 738.84 379.937C779.985 331.92 641.754 222.311 738.84 222.717H739.043ZM671.954 272.152C674.387 271.544 674.792 273.368 674.792 274.989C677.224 274.381 677.629 276.204 677.629 277.825C726.882 372.644 739.043 502.108 732.962 647.78C731.746 676.752 736.813 714.437 718.369 732.266C708.843 623.873 725.058 486.912 700.938 388.649C690.804 347.318 650.672 299.301 671.752 272.152H671.954ZM683.507 752.729C705.195 780.283 667.901 813.307 651.483 845.927C636.687 875.102 620.878 899.009 607.703 915.825C622.094 862.135 654.523 801.556 683.507 752.729ZM537.777 1078.92C557.843 1031.31 590.475 995.448 616.419 956.548C670.13 876.115 715.532 787.374 785.458 729.429C779.58 749.69 783.836 780.283 782.62 805.203C703.37 823.843 658.374 889.284 619.459 959.588C569.193 1050.15 522.981 1124.1 511.631 1247.89C509.198 1183.06 517.306 1127.75 537.777 1078.92ZM558.248 1390.53C517.103 1352.64 532.912 1240.8 546.492 1180.83C566.153 1094.12 628.782 1044.07 665.874 971.136C684.318 935.072 709.248 885.232 744.515 866.39C754.65 860.919 769.648 860.717 785.255 854.639C815.658 843.09 870.18 801.556 893.083 805.203C914.973 808.648 937.269 866.592 933.823 898.401C922.067 1006.19 779.58 1040.43 761.946 1140.11C721.207 1171.31 656.348 1178.2 645.403 1239.18C637.295 1214.46 634.863 1183.67 625.134 1160.57C648.037 1155.51 680.062 1159.15 689.182 1140.11C640.133 1147.4 579.53 1127.14 563.923 1169.28C576.287 1175.77 589.867 1158.54 607.703 1160.57C657.766 1261.06 556.829 1295.51 558.248 1390.73V1390.53ZM584.394 1410.99C569.801 1337.85 617.027 1307.26 631.012 1253.77C634.863 1254.78 635.674 1258.83 639.727 1259.64C634.052 1320.83 589.867 1359.33 584.394 1411.19V1410.99ZM651.483 1355.68C676.616 1312.93 673.576 1242.42 703.978 1204.33C735.597 1181.44 779.58 1175.97 800.051 1143.15C807.753 1130.79 807.145 1114.38 814.644 1102.42C835.318 1068.59 875.45 1060.08 899.164 1026.65C862.478 1077.3 823.36 1176.17 747.556 1207.17C751.812 1242.02 784.647 1238.57 805.929 1256.6C847.479 1292.06 845.453 1365.2 890.449 1399.24C819.914 1385.46 822.549 1214.26 727.287 1233.31C683.102 1242.02 697.695 1282.74 686.548 1329.34C676.616 1370.67 631.417 1388.3 622.499 1425.37C596.961 1388.1 637.498 1379.59 651.686 1355.48L651.483 1355.68ZM878.693 1119.85C895.921 1147.4 913.555 1174.35 922.473 1210.21C904.636 1187.11 885.989 1165.03 873.018 1137.47C872.207 1128.96 879.706 1128.56 878.895 1120.05L878.693 1119.85ZM849.506 1507.23C843.223 1479.67 803.091 1478.46 782.418 1463.67C740.867 1433.68 748.569 1368.85 686.345 1376.34C685.737 1365 692.628 1361.15 695.06 1353.04C732.354 1354.46 740.664 1390.53 762.149 1414.23C803.294 1459.82 880.922 1498.31 887.408 1571.45C872.815 1577.33 872.612 1543.49 864.099 1533.56C846.871 1545.52 851.128 1578.95 837.953 1594.75C822.549 1558.89 856.803 1539.64 849.506 1507.43V1507.23ZM700.938 1335.42C703.978 1331.57 703.776 1324.68 706.816 1320.83C746.948 1342.71 774.918 1377.15 802.889 1411.19C765.797 1400.66 745.326 1348.38 700.938 1335.42ZM730.125 1518.98C699.519 1494.26 651.483 1486.76 639.727 1443.2C664.86 1473.39 708.843 1484.94 730.125 1518.98ZM954.497 1749.14C909.704 1737.18 869.977 1695.65 820.522 1667.69C768.432 1638.11 708.235 1624.74 677.832 1594.95C652.699 1570.44 640.335 1529.31 619.459 1510.47C621.283 1495.88 627.161 1485.14 628.174 1469.74C643.578 1472.99 647.632 1488.79 660.199 1498.92C681.886 1516.14 713.099 1525.66 736.003 1542.68C752.015 1554.64 756.474 1576.92 776.742 1580.57C790.12 1546.13 753.636 1507.43 718.369 1481.5C680.872 1453.94 621.891 1436.11 668.914 1391.13C683.913 1391.54 701.749 1389.31 712.694 1393.97C712.694 1396.81 716.342 1396.2 718.572 1396.81C736.813 1423.96 742.286 1451.51 768.027 1472.58C782.012 1483.93 826.805 1491.83 832.075 1510.47C839.372 1535.79 787.687 1625.14 837.953 1644.39C851.128 1627.37 847.479 1593.74 861.262 1577.33C893.691 1598.2 885.179 1639.32 907.879 1664.65C939.296 1700.11 990.778 1713.07 1018.55 1751.97C1024.22 1704.16 955.713 1685.32 931.188 1652.9C905.65 1619.06 907.474 1532.35 875.855 1489.8C865.113 1475.42 850.722 1468.73 840.791 1457.79C824.171 1439.56 819.712 1417.27 808.767 1396.6C798.835 1378.17 782.012 1356.89 756.271 1335.42C743.299 1324.48 699.925 1297.13 712.491 1271.4C714.923 1266.33 731.949 1255.59 744.515 1256.81C787.282 1261.06 810.185 1361.35 834.913 1390.73C854.979 1414.64 881.936 1421.52 893.286 1437.33C905.853 1454.95 905.65 1488.99 919.432 1501.35C938.079 1492.64 933.012 1462.45 930.986 1446.04C928.756 1427.81 919.838 1402.48 913.555 1390.73C906.258 1376.95 888.827 1365.81 878.49 1350.01C849.101 1304.62 839.372 1243.44 788.093 1221.76C814.442 1198.66 835.318 1170.09 863.897 1149.02C890.651 1196.03 918.216 1242.22 942.539 1291.66C960.78 1283.96 944.363 1259.04 948.416 1239.18C1023 1234.52 1089.48 1258.02 1149.48 1277.07C1142.59 1255.79 1110.77 1249.31 1088.27 1242.02C1046.52 1228.65 1002.74 1223.38 945.579 1221.55C938.079 1179.21 903.015 1152.26 896.124 1116.81C881.53 1042.25 957.74 1021.38 963.212 956.548C997.061 926.563 1037.8 863.756 1094.35 869.226C1122.93 871.86 1138.74 903.466 1172.99 904.074C1191.44 936.491 1189.21 960.803 1193.46 1005.98C1200.96 1087.84 1258.32 1152.06 1251.84 1209.8C1246.57 1257.42 1201.57 1241.81 1176.03 1270.99C1161.84 1287.2 1160.83 1321.03 1141.17 1335.01C1117.05 1352.03 1081.58 1347.17 1059.49 1370.06C1037.8 1392.55 1030.5 1422.54 1027.46 1463.26C1053.2 1451.71 1061.51 1419.3 1082.8 1402.07C1106.71 1382.83 1147.45 1382.62 1173.19 1361.35C1202.99 1336.63 1211.5 1295.51 1263.59 1294.29C1248.8 1349.6 1281.02 1381 1278.18 1434.09C1244.34 1468.93 1150.09 1408.56 1138.33 1474.81C1154.95 1482.91 1177.04 1468.53 1199.54 1471.97C1225.69 1476.03 1244.54 1496.29 1257.71 1509.86C1253.86 1543.69 1243.93 1574.9 1222.85 1591.31C1200.15 1608.93 1182.31 1603.06 1170.36 1620.48C1148.87 1652.09 1162.45 1681.06 1135.29 1719.56C1108.54 1757.85 1022.4 1766.76 954.7 1748.73L954.497 1749.14ZM1190.42 1623.93C1245.55 1613.8 1331.69 1488.59 1234.2 1469.54C1350.95 1469.14 1270.08 1354.26 1277.98 1274.43C1213.33 1252.76 1194.88 1319.61 1161.44 1350.21C1131.44 1377.56 1086.85 1372.49 1062.33 1408.36C1062.33 1358.11 1142.99 1369.25 1170.15 1329.75C1182.72 1311.31 1181.91 1288.01 1196.3 1277.27C1203.39 1272 1216.16 1273.42 1234.2 1265.72C1253.46 1257.42 1261.36 1240.8 1274.94 1253.97C1296.43 1150.85 1211.3 1071.22 1222.45 959.79C1232.18 1001.32 1242.71 1041.03 1254.47 1079.12C1266.02 1116.81 1271.9 1160.17 1292.37 1189.75C1316.69 1225.2 1365.54 1243.44 1391.49 1280.11C1414.79 1313.13 1408.71 1349.6 1446.82 1370.47C1381.35 1352.44 1379.12 1246.07 1306.97 1224.8C1274.33 1277.68 1316.69 1390.32 1309.8 1457.79C1308.18 1474.4 1299.87 1514.52 1292.37 1536.4C1286.29 1554.03 1270.08 1564.36 1260.35 1580.16C1235.62 1620.08 1214.54 1680.25 1167.11 1696.66C1175.22 1672.75 1180.29 1645.6 1190.42 1623.93ZM1338.99 1192.78C1371.82 1201.9 1412.56 1228.04 1446.82 1245.26C1405.07 1256.4 1369.8 1211.83 1338.99 1192.78ZM1172.99 1751.97C1216.97 1693.22 1287.1 1620.89 1321.56 1533.56C1341.83 1482.31 1322.57 1418.08 1321.56 1347.17C1349.53 1408.56 1349.73 1473.8 1324.4 1548.15C1302.71 1612.18 1303.32 1643.98 1263.19 1682.07C1236.43 1707.4 1207.24 1734.75 1172.79 1751.97H1172.99ZM1470.13 1268.56C1481.68 1336.63 1505.39 1392.55 1499.31 1478.25C1465.06 1466.91 1437.09 1449.28 1403.24 1437.53C1417.63 1461.84 1466.88 1476.84 1496.48 1495.88C1498.3 1513.3 1493.84 1524.24 1493.64 1539.64C1463.03 1510.87 1426.75 1488.18 1388.65 1466.91C1393.71 1513.1 1476.82 1514.11 1484.72 1560.11C1488.77 1583.61 1463.24 1644.39 1446.82 1665.05C1425.13 1692 1335.54 1758.46 1295.41 1764.13C1270.69 1767.57 1241.9 1753.59 1222.65 1758.25C1295.82 1715.91 1334.13 1639.32 1356.62 1551.39C1361.29 1533.16 1366.15 1510.27 1368.38 1490.21C1376.49 1412.2 1333.92 1355.07 1333.52 1271.8C1374.87 1311.11 1378.51 1388.09 1441.35 1405.72C1452.49 1406.33 1442.36 1403.29 1444.18 1397.01C1456.14 1405.32 1465.47 1416.46 1476.21 1426.18C1501.14 1393.97 1462.63 1367.23 1447.02 1344.54C1428.58 1317.79 1420.06 1285.58 1403.24 1260.05C1417.23 1259.64 1443.17 1272.41 1470.33 1268.76L1470.13 1268.56ZM1330.27 1154.9C1343.25 1090.87 1319.13 1028.07 1298.25 980.051C1327.64 1007 1373.04 1043.06 1394.32 1087.84C1379.73 1089.66 1357.43 1083.99 1347.71 1090.67C1352.16 1109.51 1391.89 1093.1 1406.08 1102.22C1424.32 1136.46 1443.58 1169.49 1452.7 1212.84C1412.16 1193.19 1361.08 1183.87 1330.27 1154.49V1154.9Z" fill="black"/>
<path d="M1123.74 997.676C1139.35 1006.19 1144.41 1028.47 1161.64 1023.81C1143.2 985.925 1091.31 981.468 1056.85 959.789C1065.77 985.722 1102.05 985.722 1123.94 997.676H1123.74Z" fill="black"/>
<path d="M1079.96 1140.31C1045.71 1125.72 1008.01 1110.12 966.253 1105.46H960.375C971.32 1126.13 994.629 1118.02 1012.87 1122.88C1069.42 1138.28 1119.28 1175.36 1167.32 1198.66C1149.07 1169.28 1112.39 1154.29 1079.96 1140.31Z" fill="black"/>
<path d="M963.415 1527.69C1044.29 1537.41 1081.99 1605.08 1155.76 1612.17C1088.67 1582.19 1045.1 1528.7 957.537 1518.98C957.537 1524.04 959.767 1526.47 963.415 1527.69Z" fill="black"/>
<path d="M838.157 977.214C814.037 995.448 779.986 1008.82 765.393 1029.69C744.516 1059.47 740.463 1089.25 718.775 1122.89C764.785 1115.79 761.542 1072.64 788.702 1038.4C823.563 994.638 958.146 954.522 908.083 866.592C903.016 925.347 874.032 950.065 838.157 977.214Z" fill="black"/>
<path d="M887.612 889.891C842.819 926.562 760.528 941.352 733.166 985.925C778.77 948.038 855.79 941.555 887.612 889.891Z" fill="black"/>
<path d="M613.783 1102.42C663.441 1060.89 739.042 1045.29 782.822 997.676C724.246 1030.5 648.24 1045.69 613.783 1102.42Z" fill="black"/>
</g>
<defs>
<clipPath id="clip0_157_311">
<rect width="1072" height="1665" fill="white" transform="translate(464 167)"/>
</clipPath>
</defs>
</svg>
