<svg width="2000" height="2000" viewBox="0 0 2000 2000" fill="none" xmlns="http://www.w3.org/2000/svg">
<g clip-path="url(#clip0_157_321)">
<path d="M94 1269.73C94 1269.73 103.915 1259 120.856 1239.8C138.039 1220.83 162.344 1193.44 192.57 1161.58C222.843 1129.76 258.171 1092.65 297.156 1054C336.093 1015.26 378.399 974.826 421.427 935.069C443.133 915.431 465.514 895.552 490.493 879.235C502.862 871.004 516.098 863.784 529.43 857.864C542.762 851.896 556.19 847.082 569.378 842.751C595.705 833.99 621.021 827.156 643.883 818.203C646.77 817.144 649.562 815.989 652.305 814.786C655.049 813.63 657.84 812.475 660.632 811.176C666.215 808.721 671.75 806.314 677.188 803.908C688.066 799.239 698.606 794.762 708.713 790.479C749.19 773.295 783.796 761.166 807.861 752.262C832.118 743.886 846.028 739.41 846.028 739.41C846.028 739.41 832.696 745.475 809.641 756.642C786.395 767.279 753.763 783.836 714.441 803.041C704.574 807.806 694.419 812.908 683.83 818.203C678.536 820.85 673.194 823.546 667.755 826.241C665.06 827.589 662.22 828.985 659.332 830.381C656.444 831.776 653.557 833.124 650.621 834.424C627.037 844.916 601.384 852.907 575.827 861.715C550.222 870.667 524.954 880.92 501.996 896.514C478.942 912.061 457.572 931.362 436.203 951.145C392.982 990.373 350.002 1029.94 309.814 1067.14C269.674 1104.4 232.036 1139.01 200.222 1169.18C168.36 1199.32 141.504 1224.15 123.07 1241.86C104.348 1259.34 94 1269.69 94 1269.69L94 1269.73Z" fill="black"/>
<path d="M1132.79 587.119C1132.79 587.119 1137.94 584.857 1146.98 580.862C1156.23 577.348 1169.61 572.054 1186.26 567.722C1190.4 566.567 1194.78 565.652 1199.3 564.738C1203.83 563.775 1208.49 562.909 1213.36 561.946C1222.98 560.165 1233.18 558.48 1243.63 557.47C1264.61 555.063 1286.61 553.571 1308.07 550.25C1329.73 547.458 1351.3 543.415 1371.75 539.757C1392.11 535.81 1411.46 532.73 1427.82 529.168C1444.23 525.606 1458.34 523.921 1468.01 521.996C1477.83 520.6 1483.46 519.83 1483.46 519.83C1483.46 519.83 1478.41 522.381 1469.5 526.857C1460.45 530.804 1447.84 537.447 1432.01 543.415C1416.17 549.335 1397.79 556.988 1377.24 562.86C1367.03 565.989 1356.3 568.685 1345.33 571.139C1334.31 573.498 1323 575.471 1311.64 577.156C1288.73 579.948 1265.91 580.91 1244.93 580.958C1234.44 581.199 1224.33 580.814 1214.8 580.621C1205.27 580.429 1196.27 580.573 1187.94 580.766C1171.29 580.958 1157.33 582.017 1147.75 583.991C1142.89 584.664 1139.14 585.531 1136.54 586.157C1133.99 586.782 1132.59 587.119 1132.59 587.119H1132.79Z" fill="black"/>
<path d="M1406.98 546.737C1406.98 546.737 1408.86 546.207 1412.42 545.148C1415.93 544.089 1421.03 542.308 1427.39 539.757C1440.29 534.992 1457.37 525.558 1479.27 516.124C1490.25 511.455 1502.42 506.594 1516.19 503.032C1529.95 499.278 1544.92 497.834 1559.99 497.497C1575.15 497.064 1590.31 497.593 1605.76 497.93C1621.21 498.46 1636.9 498.989 1652.63 499.519C1684.02 501.203 1715.4 502.888 1744.76 505.487C1774.11 507.749 1801.45 511.504 1824.89 514.103C1848.33 516.654 1867.77 520.456 1881.4 522.382C1894.97 524.884 1902.77 526.328 1902.77 526.328C1902.77 526.328 1894.87 526.665 1881.06 527.243C1867.29 527.291 1847.56 528.446 1824.02 528.013C1800.49 527.58 1772.96 528.013 1743.55 527.002C1714.14 526.328 1682.81 524.74 1651.48 523.392C1620.29 521.563 1589.1 519.734 1559.89 518.05C1545.55 517.568 1531.97 517.713 1519.27 519.205C1506.51 520.745 1494.34 523.681 1483.17 527.05C1471.91 530.42 1461.61 533.548 1452.41 536.292C1443.13 538.891 1434.99 541.009 1428.3 542.742C1421.52 544.234 1416.22 545.293 1412.56 545.87C1408.91 546.448 1406.98 546.785 1406.98 546.785V546.737Z" fill="black"/>
<path d="M1643.92 629.621C1643.92 629.621 1649.12 629.428 1658.27 628.466C1667.41 627.84 1680.45 626.3 1695.95 624.856C1711.5 623.652 1729.5 621.535 1748.46 619.08C1757.94 617.828 1767.66 616.24 1777.48 614.604C1782.39 613.737 1787.3 612.871 1792.21 611.908C1797.07 610.753 1802.03 609.887 1806.89 608.539C1811.75 607.336 1816.66 606.277 1821.38 604.785C1823.78 604.111 1826.14 603.389 1828.55 602.715C1830.91 601.897 1833.22 601.127 1835.53 600.308C1840.24 598.816 1844.72 596.939 1849.2 595.206C1853.77 593.522 1857.96 591.644 1862.05 589.671C1870.13 585.628 1877.45 581.103 1883.18 575.809C1886.06 573.162 1888.52 570.274 1890.54 567.289C1891.55 565.797 1892.37 564.209 1893.14 562.621C1893.81 561.08 1894.34 559.588 1894.63 558C1895.35 554.871 1895.64 551.646 1895.5 548.566C1895.45 545.485 1894.97 542.501 1894.2 539.806C1892.71 534.367 1890.15 529.842 1887.22 526.906C1884.43 523.729 1881.35 522.045 1879.18 520.986C1876.92 520.216 1875.62 519.879 1875.62 519.879C1875.62 519.879 1876.97 519.879 1879.47 519.879C1881.97 520.12 1885.87 520.649 1890.25 523.152C1894.49 525.799 1898.96 530.276 1902.33 536.581C1903.97 539.709 1905.41 543.319 1906.13 547.266C1907 551.213 1907.19 555.593 1906.57 560.166C1906.33 562.428 1905.6 564.786 1905.03 567.097C1904.35 569.311 1903.54 571.525 1902.52 573.739C1900.55 578.119 1897.9 582.403 1894.78 586.35C1888.52 594.292 1880.29 601.03 1871.34 606.421C1853.43 617.106 1833.22 624.76 1812.28 630.343C1807.04 631.739 1801.74 632.653 1796.49 633.76C1791.25 634.723 1785.95 635.541 1780.76 636.359C1770.26 637.611 1759.96 638.381 1750 638.622C1730.08 639.247 1711.59 637.755 1695.9 636.552C1680.21 635.108 1667.22 632.75 1658.12 631.739C1649.02 630.247 1643.88 629.765 1643.88 629.765L1643.92 629.621Z" fill="black"/>
<path d="M1429.5 676.308C1429.5 676.308 1430.42 676.212 1432.1 675.971C1433.79 675.731 1436.24 675.346 1439.42 674.816C1445.72 674.094 1454.63 671.784 1465.26 669.762C1470.61 668.848 1476.29 667.404 1482.3 665.912C1485.29 665.19 1488.37 664.323 1491.49 663.457C1494.62 662.591 1497.85 661.917 1501.12 661.195C1514.12 657.97 1527.93 654.649 1541.6 650.798C1555.31 647.14 1568.98 643.482 1581.83 640.065C1594.59 636.31 1606.96 633.856 1617.21 630.582C1622.36 629.042 1627.17 627.791 1631.5 626.78C1635.84 625.769 1639.69 624.999 1642.72 624.036C1649.12 622.737 1652.78 621.967 1652.78 621.967C1652.78 621.967 1649.89 624.325 1644.88 628.513C1642.24 630.39 1639.01 632.652 1635.35 635.299C1631.65 637.899 1627.37 640.69 1622.41 643.145C1612.69 648.343 1601.23 654.552 1588.28 659.558C1575.39 664.66 1561.19 668.848 1546.8 672.265C1532.26 675.105 1517.68 677.512 1503.86 678.571C1496.98 679.148 1490.29 679.341 1483.89 679.196C1477.54 679.1 1471.57 679.004 1466.03 678.907C1463.29 678.907 1460.64 678.811 1458.14 678.667C1455.64 678.426 1453.28 678.234 1451.02 678.041C1446.59 677.656 1442.69 677.367 1439.51 677.078C1436.34 676.79 1433.84 676.549 1432.15 676.405C1430.47 676.308 1429.55 676.26 1429.55 676.26L1429.5 676.308Z" fill="black"/>
<path d="M1264.76 776.954C1264.76 776.954 1267.69 775.558 1272.55 772.478C1275.06 771.13 1277.99 769.205 1281.31 766.991C1284.68 764.873 1288.48 762.466 1292.62 759.915C1301 754.958 1310.19 748.075 1320.54 741.914C1330.79 735.512 1341.67 728.725 1352.55 721.939C1363.57 715.393 1374.4 708.558 1384.98 702.83C1395.33 696.766 1405.78 692.145 1414.25 687.428C1422.91 682.952 1430.85 680.16 1436 677.657C1441.54 675.587 1444.57 674.191 1444.57 674.191C1444.57 674.191 1442.36 676.646 1438.79 681.363C1436.87 683.529 1434.51 686.225 1431.81 689.257C1429.12 692.337 1425.99 695.658 1422.29 698.98C1414.83 705.477 1406.31 713.371 1396.15 720.399C1386.19 727.667 1374.78 734.309 1363.28 740.662C1351.53 746.583 1339.69 752.359 1328.19 756.931C1316.83 761.744 1305.62 764.825 1296.28 767.905C1286.99 771.082 1278.81 772.767 1273.32 774.403C1267.74 775.751 1264.66 776.906 1264.66 776.906L1264.76 776.954Z" fill="black"/>
<path d="M1109.06 992.54C1109.06 992.54 1107.52 988.064 1104.53 980.314C1101.98 972.421 1097.51 961.302 1094.47 947.007C1092.93 939.883 1091.73 931.941 1091.35 923.326C1090.91 914.71 1091.49 905.276 1094.04 895.698C1096.4 886.023 1101.21 876.493 1107.61 867.973C1114.11 859.55 1121.96 852.763 1129.61 846.699C1145.01 835.147 1160.6 824.317 1176.15 815.316C1191.46 806.027 1206.76 799.192 1219.61 792.983C1232.46 786.774 1244.01 783.356 1251.81 780.42C1259.85 778.062 1264.42 776.666 1264.42 776.666C1264.42 776.666 1260.52 779.458 1253.88 784.512C1247 789.084 1237.71 796.497 1226.01 804.294C1214.32 812.043 1201.37 822.103 1187.17 832.163C1173.17 842.463 1158.01 853.293 1143.52 864.652C1136.3 870.091 1129.71 875.626 1124.6 881.643C1119.6 887.708 1115.75 894.494 1112.81 901.666C1106.99 916.106 1105.74 932.134 1105.59 945.852C1105.64 959.617 1106.41 971.506 1107.47 979.641C1107.81 983.78 1108.24 987.005 1108.58 989.171C1108.91 991.385 1109.06 992.54 1109.06 992.54Z" fill="black"/>
<path d="M1024.97 981.805C1024.97 981.805 1030.36 981.949 1039.84 981.516C1049.28 981.372 1062.8 980.746 1078.93 980.65C1095.05 980.65 1113.92 979.735 1133.99 979.784C1154.1 979.495 1175.52 979.735 1196.94 979.687C1207.63 979.88 1218.36 980.072 1228.9 980.217C1239.44 980.602 1249.79 980.891 1259.85 981.468C1279.92 982.19 1298.69 984.212 1314.76 984.982C1330.84 985.848 1344.31 987.918 1353.75 988.736C1363.18 989.988 1368.57 990.71 1368.57 990.71C1368.57 990.71 1363.23 991.769 1353.89 993.598C1344.51 994.993 1331.13 997.737 1315 999.085C1298.88 1000.43 1280.01 1002.65 1259.75 1003.27C1249.64 1003.71 1239.2 1003.95 1228.56 1003.95C1217.92 1003.95 1207.14 1003.51 1196.36 1003.22C1174.8 1001.97 1153.24 1000.58 1133.12 998.411C1112.95 996.389 1094.28 993.357 1078.2 991.143C1070.17 990.084 1062.85 988.784 1056.35 987.581C1049.86 986.378 1044.22 985.319 1039.56 984.5C1030.27 982.527 1024.97 981.805 1024.97 981.805Z" fill="black"/>
<path d="M1295.9 990.951C1295.9 990.951 1297.24 990.855 1299.79 990.614C1302.35 990.325 1306.05 989.892 1310.77 989.122C1315.48 988.496 1321.26 987.774 1327.81 986.715C1334.4 985.704 1341.81 984.405 1349.95 983.779C1358.08 983.057 1366.84 982.094 1376.18 981.132C1385.51 980.217 1395.48 979.303 1405.87 979.303C1426.66 978.918 1449.43 980.843 1471.76 987.293C1493.81 994.176 1515.08 1005.87 1530.34 1022.38C1537.94 1030.52 1544.1 1039.71 1548.05 1049.29C1551.99 1058.77 1554.11 1068.2 1555.03 1076.92C1555.99 1085.63 1555.12 1093.76 1553.49 1100.6C1551.9 1107.48 1549.49 1113.06 1547.23 1117.44C1546.6 1118.5 1546.03 1119.51 1545.5 1120.48C1544.87 1121.39 1544.29 1122.21 1543.76 1123.03C1542.71 1124.61 1541.79 1125.87 1540.88 1126.88C1539.24 1128.85 1538.33 1129.91 1538.33 1129.91C1538.33 1129.91 1538.85 1128.66 1539.87 1126.3C1540.39 1125.14 1540.92 1123.7 1541.45 1121.92C1541.74 1121.05 1542.03 1120.14 1542.32 1119.13C1542.56 1118.12 1542.75 1117.06 1543.04 1115.9C1545.64 1107 1545.35 1093.67 1541.94 1079.13C1540.2 1071.81 1537.07 1064.26 1532.69 1057.08C1528.36 1049.91 1522.49 1043.32 1515.8 1037.01C1502.18 1024.79 1484.37 1015.11 1464.98 1009.43C1445.77 1003.27 1424.98 1000.96 1405.25 999.422C1385.47 998.171 1366.41 996.582 1350.14 995.812C1342 995.523 1334.54 994.513 1327.9 993.791C1321.26 993.021 1315.53 992.539 1310.77 992.106C1306 991.528 1302.3 991.288 1299.75 991.095C1297.2 990.999 1295.85 990.951 1295.85 990.951H1295.9Z" fill="black"/>
<path d="M1152.9 1191.47C1152.9 1191.47 1159.01 1189.55 1169.7 1185.74C1175.04 1184.01 1181.59 1181.8 1189 1179.2C1196.46 1176.7 1204.98 1174.1 1214.32 1171.45C1232.99 1166.25 1254.84 1160.19 1278.62 1155.23C1302.35 1150.13 1327.9 1145.79 1353.6 1142.62C1379.35 1139.83 1405.15 1137.61 1429.46 1136.99C1441.58 1136.5 1453.33 1136.6 1464.45 1136.79C1475.52 1137.08 1486.25 1137.47 1495.54 1137.56C1504.83 1137.56 1512.96 1137.18 1519.89 1135.3C1526.68 1133.52 1532.31 1130.1 1535.97 1126.35C1539.91 1122.83 1542.08 1118.98 1543.19 1116.24C1543.67 1114.84 1544.05 1113.74 1544.2 1112.97C1544.39 1112.2 1544.49 1111.81 1544.49 1111.81C1544.49 1111.81 1544.49 1112.2 1544.53 1113.02C1544.63 1113.83 1544.53 1114.99 1544.49 1116.53C1544.15 1119.61 1543.14 1124.33 1539.91 1129.48C1536.5 1134.43 1531.2 1139.97 1523.41 1143.96C1515.75 1147.96 1506.17 1150.22 1496.26 1151.18C1486.63 1152.05 1476.19 1153.01 1465.12 1153.98C1454.19 1155.18 1442.64 1156.29 1430.76 1157.39C1406.93 1159.8 1381.52 1162.06 1356.2 1165.1C1330.84 1167.74 1305.47 1170.63 1281.7 1173.52C1257.92 1176.5 1235.64 1179.05 1216.58 1181.85C1207.1 1183.34 1198.29 1184.44 1190.54 1185.55C1182.74 1186.56 1175.96 1187.43 1170.42 1188.44C1159.26 1190.17 1152.95 1191.38 1152.95 1191.38L1152.9 1191.47Z" fill="black"/>
<path d="M813.057 1288.22C813.057 1288.22 815.031 1288.12 818.736 1287.93C822.442 1287.69 827.833 1287.3 834.667 1286.44C841.502 1285.86 849.78 1284.46 859.117 1282.73C868.455 1281 878.754 1278.45 889.776 1274.98C900.798 1271.52 912.493 1267.04 924.67 1261.65C936.895 1256.31 949.601 1250.14 963.078 1244.03C976.458 1237.82 990.704 1231.52 1005.58 1226.03C1020.45 1220.5 1035.75 1215.73 1051.06 1211.35C1081.86 1203.12 1112.42 1195.95 1141.3 1189.59C1170.08 1183.1 1197.33 1178.28 1220.52 1173.71C1243.72 1169.14 1263.41 1166.68 1277.03 1164.42C1290.79 1162.59 1298.59 1161.39 1298.59 1161.39C1298.59 1161.39 1291.13 1163.99 1278.14 1168.8C1265.04 1173.18 1246.51 1180.26 1223.84 1187.09C1201.18 1193.93 1174.9 1202.45 1146.4 1210.19C1118.01 1218.33 1087.25 1225.6 1057.27 1233.92C1042.2 1237.87 1027.33 1242.15 1012.94 1246.97C998.597 1251.73 984.592 1257.17 970.778 1262.42C943.344 1273.1 916.488 1282.35 892.616 1286.73C868.647 1291.44 848.433 1290.05 834.667 1289.57C820.806 1288.65 812.961 1288.27 812.961 1288.27L813.057 1288.22Z" fill="black"/>
<path d="M579.871 1292.4C579.871 1292.4 581.604 1291.63 584.828 1290.19C586.465 1289.47 588.438 1288.51 590.748 1287.35C593.107 1286.24 595.706 1284.7 598.882 1283.6C605.187 1281.43 612.744 1278.01 621.84 1275.51C624.102 1274.84 626.461 1274.16 628.867 1273.49C631.274 1272.77 633.824 1272.38 636.423 1271.8C641.621 1270.79 647.108 1269.45 652.884 1268.87C675.938 1265.5 703.228 1264.49 731.865 1265.55C760.55 1266.36 790.535 1269.59 819.99 1269.83L831.012 1270.12L841.938 1269.97C849.253 1270.07 856.376 1269.3 863.5 1268.96C877.698 1267.81 891.559 1265.64 905.036 1263.04C931.844 1257.46 957.16 1250.67 978.434 1243.31C999.707 1235.9 1017.95 1230.31 1030.41 1225.74C1043.12 1221.6 1050.39 1219.29 1050.39 1219.29C1050.39 1219.29 1043.99 1223.43 1032.72 1230.7C1021.17 1237.34 1005.19 1247.98 984.498 1258.04C963.802 1267.95 939.304 1279.94 910.811 1287.49C896.661 1291.44 881.596 1294.52 866.099 1296.21C858.35 1296.78 850.505 1297.8 842.708 1297.84C838.809 1297.94 834.862 1298.08 830.964 1298.18L819.268 1298.04C788.128 1296.98 757.807 1293.41 729.843 1289.81C722.864 1288.94 716.03 1288.12 709.292 1287.25C702.554 1286.34 696.056 1285.71 689.655 1285.04C683.254 1284.27 677.093 1284.03 671.077 1283.55C665.061 1282.97 659.285 1283.07 653.702 1282.92C648.119 1282.68 642.825 1283.11 637.723 1283.16C635.172 1283.26 632.669 1283.16 630.263 1283.4C627.856 1283.6 625.546 1283.79 623.284 1283.98C614.091 1284.32 606.294 1285.86 599.797 1287.11C596.476 1287.54 593.732 1288.51 591.23 1289.08C588.727 1289.71 586.609 1290.33 584.925 1290.82C581.507 1291.87 579.727 1292.4 579.727 1292.4H579.871Z" fill="black"/>
<path d="M672.762 1273.49C672.762 1273.49 671.318 1274.5 668.719 1276.47C666.072 1278.45 662.173 1281.24 657.649 1285.28C648.119 1292.84 635.75 1305.02 622.081 1320.37C608.268 1335.68 594.358 1355.36 579.727 1376.64C565.288 1398.06 550.32 1421.45 535.063 1444.89C519.517 1468.04 504.019 1491.29 488.858 1512.61C473.793 1534.03 458.584 1553.23 446.215 1570.13C433.798 1587.02 422.391 1600.4 414.931 1610.08C407.182 1619.56 402.754 1625 402.754 1625C402.754 1625 406.027 1618.79 411.754 1607.96C417.77 1597.32 425.664 1581.58 436.397 1563.58C447.13 1545.58 458.921 1524.11 472.783 1501.92C486.5 1479.64 501.853 1456.34 517.158 1433C532.801 1409.99 548.346 1386.6 564.711 1365.71C572.844 1355.27 581.123 1345.4 589.497 1336.49C597.872 1327.59 606.15 1319.55 614.092 1312.43C629.878 1298.08 645.039 1288.6 655.628 1282.34C660.97 1279.26 665.35 1277.19 668.286 1275.75C671.27 1274.31 672.762 1273.49 672.762 1273.49Z" fill="black"/>
<path d="M565.384 853.147C565.384 853.147 575.973 848.431 594.262 839.67C612.647 831.103 638.541 817.963 669.777 802.897C685.42 795.389 702.217 786.869 719.929 777.82C737.64 768.819 756.315 759.289 775.615 749.47C814.407 730.313 855.847 710.29 896.469 688.727C937.475 667.886 977.375 645.312 1014.68 623.652C1033.25 612.63 1051.35 601.896 1068.92 592.221C1086.48 582.547 1103.62 574.027 1119.6 566.567C1151.56 551.501 1180.63 544.522 1200.65 540.72C1210.8 539.276 1218.79 538.313 1224.23 538.072C1229.67 537.687 1232.56 537.543 1232.56 537.543C1232.56 537.543 1229.72 538.217 1224.42 539.516C1219.13 540.672 1211.48 542.982 1201.95 546.159C1182.74 552.175 1156.71 564.256 1127.11 581.392C1097.31 598.334 1064.87 621.967 1028.3 645.745C991.814 669.907 951.337 693.3 910.089 715.055C868.553 736.282 826.44 756.161 786.203 772.959C776.096 777.098 766.133 780.997 756.315 784.703C746.544 788.457 736.919 792.067 727.533 795.485C708.763 802.271 691.003 808.673 674.639 814.642C641.959 826.626 614.332 835.531 595.321 842.51C576.165 849.152 565.336 853.292 565.336 853.292L565.384 853.147Z" fill="black"/>
<path d="M1109.11 586.206C1109.11 586.206 1110.21 585.099 1112.33 583.077C1113.34 582.018 1114.64 580.719 1116.13 579.227C1117.62 577.686 1119.5 576.098 1121.52 574.173C1129.9 567.097 1142.03 556.123 1159.3 547.315C1176.54 538.603 1197.57 530.035 1220.48 523.73C1231.93 520.601 1243.82 517.954 1255.8 515.403C1267.69 512.852 1279.77 510.253 1291.85 507.702C1316.06 502.937 1340.13 497.45 1362.85 492.829C1385.47 487.871 1406.93 484.261 1425.08 480.074C1443.22 475.934 1458.82 473.72 1469.5 471.41C1480.38 469.629 1486.54 468.426 1486.54 468.426C1486.54 468.426 1480.96 471.362 1471.19 476.464C1461.22 481.085 1447.22 488.497 1429.65 495.236C1412.08 501.878 1391.68 510.301 1369.15 517.136C1346.72 524.308 1322.37 530.372 1297.87 536.004C1273.23 541.058 1248.54 545.245 1225.96 548.903C1203.3 552.417 1182.26 555.738 1164.89 561.129C1147.56 566.327 1132.79 571.381 1123.5 577.013C1121.14 578.312 1118.97 579.467 1117.19 580.574C1115.46 581.778 1113.97 582.789 1112.76 583.559C1110.36 585.243 1109.11 586.158 1109.11 586.158V586.206Z" fill="black"/>
<path d="M1445 487.005C1445 487.005 1446.54 485.609 1449.48 483.058C1452.51 480.604 1456.94 476.897 1463.24 472.951C1469.6 469.1 1477.73 465.201 1487.41 461.591C1497.08 457.933 1508.34 454.949 1520.62 452.302C1545.02 447.248 1573.08 440.461 1603.3 433.674C1633.43 426.647 1665.58 419.331 1697.54 411.197C1729.6 403.495 1761.46 395.024 1791.39 387.227C1798.85 385.253 1806.22 383.28 1813.44 381.403C1817.05 380.488 1820.66 379.525 1824.22 378.611C1827.92 377.648 1831.73 376.83 1835.53 376.204C1839.33 375.579 1843.18 375.145 1847.08 375.001C1850.98 374.857 1854.93 375.001 1858.87 375.771C1866.72 376.974 1874.95 381.258 1879.71 387.756C1884.67 394.206 1886.11 402.244 1885.39 408.694C1884.72 415.288 1882.65 420.823 1880.34 425.733C1877.93 430.594 1875.14 434.733 1872.59 438.295C1870.04 441.905 1867.73 445.178 1865.8 448.162C1861.71 454.034 1859.21 459.088 1857.96 462.746C1857.33 464.575 1856.95 466.019 1856.75 466.982C1856.56 467.945 1856.42 468.474 1856.42 468.474C1856.42 468.474 1856.42 467.945 1856.47 466.934C1856.47 465.923 1856.61 464.431 1856.9 462.458C1857.48 458.559 1859.06 452.879 1862.05 446.093C1863.64 442.82 1865.42 439.162 1867.29 435.215C1869.17 431.268 1871.05 427.128 1872.35 422.604C1875 413.699 1875.52 402.388 1869.46 396.035C1866.48 392.714 1862.24 390.885 1856.8 390.548C1854.15 390.307 1851.22 390.5 1848.24 390.885C1845.25 391.27 1842.12 391.944 1838.95 392.762C1835.77 393.58 1832.54 394.591 1829.32 395.746C1825.85 396.949 1822.39 398.153 1818.88 399.356C1811.8 401.811 1804.48 404.217 1797.02 406.528C1767.33 416.202 1735.18 424.818 1702.88 433.001C1670.49 440.654 1637.91 447.633 1607.1 452.783C1576.4 458.174 1547.28 461.302 1522.69 464.383C1510.46 465.923 1499.34 467.415 1489.62 469.292C1479.85 471.073 1471.57 473.576 1464.93 476.224C1458.19 478.678 1453.28 481.566 1449.91 483.492C1446.69 485.657 1445 486.909 1445 486.909V487.005Z" fill="black"/>
<path d="M1687.1 510.782C1687.1 510.782 1690.8 510.157 1697.25 508.616C1703.75 507.557 1712.99 505.054 1724.11 503.37C1735.18 501.685 1747.98 498.797 1761.22 495.765C1774.45 492.636 1788.22 489.219 1801.02 483.972C1807.47 481.518 1813.87 479.207 1819.84 476.223C1825.81 473.335 1831.53 470.014 1836.73 466.549C1846.98 459.329 1855.79 450.905 1861.66 442.338C1867.49 433.867 1872.16 425.973 1874.18 419.86C1875.38 416.876 1876.34 414.373 1876.78 412.688C1877.26 410.956 1877.55 410.041 1877.55 410.041C1877.55 410.041 1877.74 411.004 1878.08 412.736C1878.46 414.517 1878.89 417.165 1879.18 420.63C1879.18 427.369 1879.09 437.862 1874.13 449.076C1871.72 454.66 1868.69 460.58 1864.79 466.404C1860.89 472.276 1855.98 477.908 1850.26 483.202C1838.95 493.791 1824.46 502.118 1809.3 507.509C1793.9 512.226 1778.25 514.777 1763.72 515.307C1749.18 515.932 1735.85 514.585 1724.59 514.103C1713.28 513.574 1703.89 511.889 1697.35 511.6C1690.75 510.782 1687 510.734 1687 510.734L1687.1 510.782Z" fill="black"/>
<path d="M1252.39 810.069C1252.39 810.069 1255.18 809.058 1260.04 807.326C1264.95 805.785 1271.88 803.042 1280.3 800.346C1288.72 797.699 1298.3 793.752 1308.65 790.094C1318.9 786.195 1329.83 782.345 1340.56 778.109C1351.39 774.21 1361.88 769.782 1371.99 766.269C1381.95 762.562 1391.82 760.108 1399.81 756.835C1403.85 755.246 1407.75 754.139 1411.21 753.08C1414.73 752.07 1417.81 751.251 1420.17 750.192C1425.27 748.7 1428.2 747.689 1428.2 747.689C1428.2 747.689 1426.23 750.048 1422.81 754.187C1420.99 756.113 1418.77 758.519 1416.08 761.167C1414.78 762.514 1413.33 763.91 1411.79 765.354C1410.25 766.75 1408.47 768.049 1406.59 769.349C1399.18 774.644 1390.42 780.901 1380.12 785.81C1369.87 790.768 1358.22 794.234 1346.72 797.555C1335.03 800.298 1323.28 802.705 1312.21 804.245C1301.14 805.833 1290.75 806.555 1281.94 807.614C1273.13 808.721 1265.67 808.962 1260.57 809.492C1255.37 809.828 1252.43 810.021 1252.43 810.021L1252.39 810.069Z" fill="black"/>
<path d="M1417.23 756.595C1417.23 756.595 1420.31 756.258 1425.7 755.295C1428.4 755.103 1431.62 754.525 1435.38 753.851C1439.08 753.225 1443.27 752.552 1447.79 751.926C1456.84 750.771 1467.33 748.701 1478.45 747.113C1489.57 745.284 1501.41 743.647 1513.15 741.577C1524.95 739.748 1536.74 737.919 1547.86 736.187C1558.88 734.165 1569.56 733.347 1578.47 731.518C1582.94 730.699 1587.13 730.122 1590.88 729.689C1594.64 729.304 1597.96 729.015 1600.61 728.437C1606.09 727.86 1609.22 727.475 1609.22 727.475C1609.22 727.475 1606.62 729.255 1602.05 732.384C1597.33 735.128 1590.79 739.845 1582.17 743.503C1573.61 747.257 1563.59 751.926 1552.33 755.343C1541.12 758.905 1528.84 761.504 1516.48 763.574C1504.01 765.018 1491.5 766.077 1479.75 765.932C1468.01 765.836 1457.03 764.585 1447.75 763.285C1443.08 762.756 1438.84 761.841 1435.14 760.975C1431.43 760.157 1428.16 759.386 1425.51 758.809C1420.22 757.269 1417.18 756.595 1417.18 756.595H1417.23Z" fill="black"/>
<path d="M1599.5 734.646C1599.5 734.646 1603.68 734.165 1611.05 733.298C1618.41 732.769 1629.15 731.806 1641.9 732.528C1648.25 732.865 1655.14 733.202 1662.4 733.539C1669.62 734.068 1677.18 734.694 1684.88 735.464C1700.28 736.764 1716.36 738.063 1732 736.908C1747.59 736.331 1762.71 733.202 1775.46 727.715C1787.97 722.035 1799.09 713.805 1806.02 704.611C1807.8 702.349 1809.25 699.991 1810.79 697.825C1812.09 695.562 1813.53 693.396 1814.49 691.231C1816.76 686.995 1818.1 682.904 1818.92 679.438C1819.79 676.021 1820.41 673.133 1820.56 671.159C1820.8 669.186 1820.89 668.127 1820.89 668.127C1820.89 668.127 1821.18 669.138 1821.76 671.063C1822.43 672.988 1823.01 675.924 1823.54 679.775C1823.59 683.577 1823.78 688.391 1822.77 693.83C1822.39 696.573 1821.52 699.365 1820.65 702.397C1819.55 705.285 1818.34 708.366 1816.66 711.35C1810.21 723.287 1799.81 736.427 1784.32 745.091C1769.06 753.851 1750.72 757.846 1732.91 758.664C1715.06 758.953 1697.73 756.643 1682.14 753.225C1674.34 751.589 1666.93 749.663 1659.95 747.786C1653.02 745.765 1646.47 743.887 1640.41 742.492C1628.33 739.604 1618.17 736.956 1610.9 735.994C1603.68 734.79 1599.45 734.598 1599.45 734.598L1599.5 734.646Z" fill="black"/>
<path d="M1631.84 629.814C1631.84 629.814 1635.12 629.67 1640.89 628.611C1646.67 627.889 1654.94 626.445 1664.91 625.819C1674.87 625.338 1686.57 624.568 1699.03 625.049C1705.29 625.193 1711.74 625.578 1718.24 626.252C1724.73 626.974 1731.33 627.889 1737.92 628.899C1751.01 631.354 1764.01 634.146 1775.94 637.9C1781.96 639.633 1787.59 641.751 1792.93 643.869C1798.37 646.035 1803.86 648.489 1808.72 651.57C1811.13 653.11 1813.34 654.939 1815.17 656.961C1817.05 658.982 1818.54 661.244 1819.55 663.41C1821.62 667.79 1822.1 671.93 1822.05 675.203C1821.71 678.524 1820.61 680.883 1819.79 682.278C1819.4 683 1819.02 683.482 1818.78 683.819C1818.54 684.156 1818.39 684.3 1818.39 684.3C1818.39 684.3 1818.39 684.107 1818.49 683.674C1818.54 683.289 1818.68 682.712 1818.63 681.941C1818.68 680.401 1818.35 678.187 1817.29 675.877C1816.47 673.47 1814.64 670.871 1812.04 668.753C1810.74 667.646 1809.34 666.78 1807.76 665.961C1806.12 665.143 1804.39 664.373 1802.41 663.699C1798.56 662.255 1793.8 661.533 1788.36 660.859C1782.83 660.137 1777 659.319 1771.08 658.26C1759.1 656.383 1746.54 653.784 1733.83 651.666C1727.52 650.367 1721.22 649.163 1714.96 648.008C1708.75 646.757 1702.64 645.457 1696.67 644.157C1684.79 641.703 1673.72 638.767 1664.04 636.938C1654.42 634.916 1646.38 632.702 1640.7 631.547C1635.02 630.151 1631.75 629.814 1631.75 629.814H1631.84Z" fill="black"/>
<path d="M1105.64 960.001C1105.64 960.001 1106.22 959.424 1107.28 958.365C1108.38 957.306 1109.92 955.669 1112.09 953.696C1116.52 950.086 1123.02 944.695 1131.2 939.449C1139.28 934.154 1148.52 927.752 1158.58 921.303C1168.59 914.757 1179.42 908.114 1190.06 901.28C1200.99 894.878 1211.72 888.139 1222.11 882.267C1232.32 876.154 1242.52 871.293 1250.85 866.48C1259.13 861.618 1266.88 858.682 1271.93 855.987C1277.27 853.677 1280.3 852.377 1280.3 852.377C1280.3 852.377 1278.28 855.024 1274.72 859.645C1270.82 863.832 1265.77 870.523 1258.5 877.021C1251.18 883.471 1242.95 891.557 1233.14 898.777C1223.46 906.237 1212.44 913.216 1201.32 920.003C1189.96 926.357 1178.41 932.373 1167.15 937.234C1155.98 942.24 1145.11 945.85 1135.87 949.027C1126.67 952.156 1118.88 954.081 1113.77 956.439C1108.48 958.413 1105.64 960.001 1105.64 960.001Z" fill="black"/>
<path d="M1276.45 855.555C1276.45 855.555 1278.62 855.458 1282.47 854.736C1286.27 854.4 1291.71 852.859 1298.11 852.185C1304.51 851.608 1311.92 849.875 1319.77 848.816C1327.61 847.757 1335.89 846.65 1344.22 845.543C1352.54 844.629 1360.82 843.329 1368.67 842.559C1376.47 841.452 1384.02 841.356 1390.37 840.441C1396.73 839.671 1402.41 839.912 1406.26 839.575C1410.2 839.527 1412.47 839.479 1412.47 839.479C1412.47 839.479 1410.64 840.826 1407.41 843.137C1404.09 845.11 1399.47 848.624 1393.31 851.223C1387.2 853.822 1380.08 857.143 1371.99 859.309C1364 861.668 1355.19 863.112 1346.38 864.315C1337.53 865.037 1328.67 865.47 1320.35 864.989C1312.02 864.459 1304.32 862.871 1297.77 861.764C1296.14 861.475 1294.6 861.186 1293.1 860.849C1291.61 860.464 1290.22 859.983 1288.92 859.598C1286.32 858.78 1284.06 858.106 1282.18 857.528C1278.47 856.132 1276.36 855.651 1276.36 855.651L1276.45 855.555Z" fill="black"/>
<path d="M1406.93 845.735C1406.93 845.735 1409.2 846.072 1413.24 846.312C1415.21 846.601 1417.67 846.649 1420.51 846.601C1423.3 846.601 1426.43 846.697 1429.84 846.794C1433.21 846.986 1436.92 846.842 1440.77 846.697C1444.62 846.697 1448.66 846.457 1452.8 846.505C1461.08 846.264 1469.84 846.12 1478.55 845.542C1487.26 845.35 1495.97 844.724 1504.2 844.435C1512.39 843.761 1520.28 844.05 1526.92 843.232C1530.29 842.943 1533.42 842.799 1536.21 842.75C1539.05 842.75 1541.55 842.75 1543.53 842.558C1547.67 842.558 1550.07 842.51 1550.07 842.51C1550.07 842.51 1548.1 843.858 1544.68 846.264C1541.12 848.286 1536.16 851.896 1529.52 854.254C1522.97 856.757 1515.18 859.837 1506.51 861.618C1497.85 863.544 1488.42 864.362 1478.98 864.699C1469.55 864.41 1460.12 863.688 1451.41 861.955C1447.07 861.089 1442.89 860.126 1439.04 858.923C1435.19 857.623 1431.58 856.372 1428.26 855.217C1421.61 853.051 1416.42 849.97 1412.71 848.43C1409.05 846.601 1406.93 845.735 1406.93 845.735Z" fill="black"/>
<path d="M1542.03 848.093C1542.03 848.093 1542.8 848.238 1544.29 848.575C1545.79 848.912 1547.95 849.249 1550.79 849.489C1556.37 850.307 1564.36 850.404 1573.85 850.452C1583.28 850.692 1594.35 849.874 1606.38 849.778C1618.32 849.489 1630.73 849.634 1642.57 848.093C1654.37 847.131 1665.82 844.291 1675.16 840.007C1684.45 835.483 1693.01 829.466 1698.21 822.535C1703.27 815.604 1707.07 808.962 1708.18 803.619C1708.9 801.02 1709.47 798.806 1709.67 797.314C1709.91 795.773 1710.05 794.955 1710.05 794.955C1710.05 794.955 1710.34 795.725 1710.92 797.169C1711.54 798.661 1712.12 800.875 1712.75 803.86C1712.8 805.352 1712.89 807.036 1712.94 808.865C1712.8 810.646 1712.94 812.764 1712.56 814.834C1712.12 819.166 1710.58 823.883 1708.18 828.6C1703.46 838.082 1695.66 848.526 1683.97 855.746C1672.27 863.207 1658.26 866.672 1644.6 868.213C1630.83 869.223 1617.55 868.357 1605.47 866.817C1593.43 865.373 1582.12 863.063 1572.5 860.704C1562.87 858.201 1555.22 854.687 1550.02 852.281C1544.97 849.634 1542.08 848.093 1542.08 848.093H1542.03Z" fill="black"/>
<path d="M1514.02 755.391C1514.02 755.391 1517.44 755.295 1523.45 754.573C1529.42 754.38 1538.08 753.129 1548.34 753.032C1558.59 753.129 1570.67 752.695 1583.52 753.514C1596.42 754.043 1609.94 756.017 1623.51 758.134C1636.99 760.685 1650.42 763.477 1662.74 767.087C1668.95 768.724 1674.82 770.745 1680.4 772.719C1686.04 774.836 1690.99 776.617 1696.29 778.639C1701.48 780.66 1706.59 784.03 1709.52 788.458C1712.51 792.838 1713.08 797.218 1713.18 800.491C1712.99 803.908 1712.07 806.315 1711.4 807.807C1711.01 808.577 1710.73 809.107 1710.49 809.492C1710.24 809.829 1710.15 810.021 1710.15 810.021C1710.15 810.021 1710.15 809.781 1710.2 809.395C1710.24 808.962 1710.29 808.385 1710.24 807.566C1710.24 805.978 1709.91 803.668 1708.8 801.213C1707.93 798.71 1706.01 795.966 1703.31 794.234C1700.62 792.453 1697.11 791.538 1692.58 790.72C1688.1 789.902 1682.28 789.324 1676.65 788.554C1670.87 787.88 1664.81 787.062 1658.6 786.003C1646.14 784.126 1632.95 781.575 1619.76 779.361C1606.62 776.665 1593.39 774.403 1581.11 771.467C1568.79 768.82 1557.29 765.595 1547.33 763.573C1537.41 761.407 1529.13 758.664 1523.31 757.557C1517.48 755.968 1514.12 755.343 1514.12 755.343L1514.02 755.391Z" fill="black"/>
<path d="M569.716 1241.19C569.716 1241.19 577.802 1241.91 591.952 1242.78C595.466 1243.07 599.364 1243.45 603.648 1243.7C607.931 1243.89 612.503 1244.08 617.413 1244.32C622.322 1244.56 627.568 1244.85 633.055 1245.09C638.59 1245.28 644.365 1245.48 650.382 1245.67C674.543 1246.87 702.747 1246.05 732.828 1245.38C762.909 1244.13 794.915 1242.16 826.825 1238.83C858.735 1235.56 890.405 1230.84 920.101 1225.98C949.652 1220.59 977.471 1215.97 1000.91 1210.1C1006.78 1208.75 1012.46 1207.45 1017.8 1206.25C1023.15 1204.95 1028.25 1203.75 1033.01 1202.59C1037.83 1201.48 1042.3 1200.42 1046.44 1199.46C1050.58 1198.45 1054.33 1197.39 1057.75 1196.43C1071.52 1192.96 1079.41 1190.99 1079.41 1190.99C1079.41 1190.99 1072 1194.31 1059.05 1200.14C1055.78 1201.48 1052.12 1203.02 1048.17 1204.66C1044.18 1206.25 1039.85 1207.93 1035.28 1209.76C1030.65 1211.54 1025.7 1213.42 1020.5 1215.44C1015.25 1217.32 1009.67 1219.1 1003.89 1220.93C980.696 1228.49 953.262 1236.48 923.374 1243.02C893.437 1249.42 861.094 1254.04 828.654 1257.46C796.118 1260.11 763.486 1261.5 732.924 1260.83C702.362 1260.01 673.917 1257.65 649.708 1254.81C643.643 1254.14 637.868 1253.51 632.333 1252.74C626.846 1251.88 621.648 1251.01 616.739 1250.24C611.878 1249.42 607.305 1248.65 603.07 1247.98C598.883 1247.21 594.984 1246.44 591.519 1245.81C577.609 1242.83 569.668 1241.29 569.668 1241.29L569.716 1241.19Z" fill="black"/>
<path d="M711.216 1230.07C711.216 1230.07 715.596 1230.55 723.249 1231.37C725.126 1231.61 727.243 1231.95 729.554 1232.09C731.864 1232.19 734.367 1232.34 737.014 1232.48C739.661 1232.62 742.5 1232.77 745.436 1232.91C748.42 1232.91 751.549 1232.96 754.774 1233.01C767.769 1233.49 782.929 1231.66 798.909 1230.12C814.936 1228.39 831.926 1226.03 848.867 1222.9C865.857 1220.3 882.799 1216.93 898.826 1214.14C914.757 1210.96 929.966 1208.94 942.817 1206.39C955.715 1204.03 966.833 1203.07 974.438 1201.82C982.187 1201 986.566 1200.52 986.566 1200.52C986.566 1200.52 982.572 1202.44 975.545 1205.81C968.422 1208.75 958.459 1213.8 945.993 1218.23C933.527 1222.66 918.992 1228.1 902.965 1232.43C886.938 1236.86 869.515 1240.42 851.899 1243.16C834.14 1245.14 816.283 1246.44 799.486 1246C782.689 1245.43 767.143 1243.21 754.003 1240.95C750.731 1240.37 747.554 1239.89 744.57 1239.31C741.634 1238.59 738.843 1237.92 736.195 1237.24C733.596 1236.57 731.142 1235.99 728.88 1235.42C726.618 1234.84 724.596 1234.12 722.719 1233.63C715.355 1231.32 711.168 1229.98 711.168 1229.98L711.216 1230.07Z" fill="black"/>
<path d="M1377.33 1049.77C1377.33 1049.77 1377.91 1051.07 1379.06 1053.28C1379.88 1055.54 1381.76 1058.63 1383.16 1062.38C1384.55 1066.13 1386.77 1070.32 1388.4 1074.89C1390.23 1079.42 1391.82 1084.28 1393.65 1089.04C1395.19 1093.91 1396.92 1098.72 1398.17 1103.39C1399.66 1107.96 1400.19 1112.68 1401.35 1116.48C1402.41 1120.28 1402.46 1124.04 1402.99 1126.4C1403.18 1128.99 1403.27 1130.44 1403.27 1130.44C1403.27 1130.44 1402.02 1129.62 1399.9 1128.13C1398.12 1126.44 1394.9 1124.33 1392.4 1120.96C1389.85 1117.64 1386.57 1113.83 1384.12 1109.21C1381.52 1104.64 1379.59 1099.39 1377.81 1094.1C1376.42 1088.71 1375.17 1083.27 1374.68 1078.02C1374.16 1072.82 1374.49 1067.82 1374.78 1063.63C1374.97 1059.44 1376.03 1055.93 1376.42 1053.52C1377.09 1051.07 1377.43 1049.72 1377.43 1049.72L1377.33 1049.77Z" fill="black"/>
<path d="M1376.27 1056.99C1376.27 1056.99 1377.38 1056.36 1379.26 1055.11C1381.23 1054.15 1383.98 1052.22 1387.44 1050.97C1390.91 1049.77 1395 1047.89 1399.52 1046.83C1404.05 1045.68 1408.91 1044.91 1413.82 1044.67C1418.73 1044.76 1423.63 1044.86 1428.21 1045.77C1432.78 1046.5 1436.92 1048.28 1440.43 1049.43C1443.99 1050.54 1446.74 1052.75 1448.71 1053.76C1450.64 1055.21 1451.69 1056.03 1451.69 1056.03C1451.69 1056.03 1450.44 1056.51 1448.23 1057.37C1446.11 1057.85 1442.98 1059.3 1439.42 1059.73C1435.86 1060.16 1431.77 1061.42 1427.44 1061.66C1423.1 1062.19 1418.58 1062.14 1414.01 1062.28C1409.44 1062.19 1404.86 1061.8 1400.53 1061.27C1396.2 1060.89 1392.01 1059.78 1388.45 1059.44C1384.89 1059.06 1381.76 1058.05 1379.64 1057.71C1377.48 1057.13 1376.23 1056.89 1376.23 1056.89L1376.27 1056.99Z" fill="black"/>
<path d="M1038.5 937.572C1038.5 937.572 1040.62 938.92 1044.66 940.749C1046.54 941.856 1049.04 942.867 1051.93 943.926C1054.72 945.081 1057.89 946.429 1061.26 947.825C1067.86 950.953 1076.42 952.83 1084.51 956.055C1092.93 958.799 1101.6 961.975 1110.4 964.526C1118.97 967.799 1127.63 970.639 1135.77 973.768C1139.91 975.019 1143.81 976.848 1147.61 978.292C1149.53 979.014 1151.36 979.929 1153.14 980.699C1154.97 981.469 1156.71 982.047 1158.44 982.624C1161.86 983.828 1165.03 985.175 1167.87 986.379C1170.71 987.678 1173.26 988.737 1175.33 989.411C1179.52 991.433 1182.02 992.203 1182.02 992.203C1182.02 992.203 1179.62 992.876 1175.19 994.802C1172.97 995.524 1170.33 996.294 1167.2 997.16C1164.07 998.075 1160.51 998.941 1156.61 999.182C1152.71 999.519 1148.43 1000.1 1143.9 1000.29C1139.38 1000.53 1134.61 1000.29 1129.7 999.663C1119.89 998.556 1109.73 995.668 1099.91 992.106C1090.43 987.534 1081.24 982.432 1073.39 976.463C1065.45 970.687 1059.29 963.612 1054 958.029C1048.56 952.541 1045.19 946.766 1042.49 943.252C1040.04 939.498 1038.4 937.62 1038.4 937.62L1038.5 937.572Z" fill="black"/>
<path d="M1107.66 958.028C1107.66 958.028 1107.76 957.209 1107.71 955.621C1107.47 953.984 1107.27 951.626 1106.99 948.545C1106.99 947.053 1106.79 945.321 1106.7 943.443C1106.65 941.566 1106.7 939.593 1106.65 937.427C1106.65 935.261 1106.65 932.951 1106.7 930.496C1106.84 928.089 1107.18 925.538 1107.56 922.939C1108 920.34 1108.28 917.5 1108.77 914.66C1109.3 911.82 1110.02 908.932 1110.69 905.9C1111.32 902.868 1112.23 899.787 1113.24 896.755C1114.25 893.674 1115.31 890.498 1116.66 887.417C1119.35 881.256 1122.29 874.807 1126.09 868.838C1129.61 862.629 1134.23 857.046 1138.51 851.222C1148.23 840.536 1158.77 830.477 1170.18 823.16C1181.59 815.796 1193.52 811.224 1203.53 807.71C1206.04 806.795 1208.44 805.977 1210.8 805.4C1213.21 804.87 1215.52 804.485 1217.68 804.148C1219.85 803.811 1221.82 803.522 1223.7 803.282C1225.53 803.041 1227.31 802.945 1228.8 802.704C1235.01 802.512 1238.52 802.367 1238.52 802.367C1238.52 802.367 1235.73 804.581 1231.06 808.48C1229.86 809.298 1228.51 810.213 1227.12 811.368C1225.77 812.571 1224.33 813.871 1222.79 815.267C1221.25 816.663 1219.61 818.058 1217.88 819.454C1216.19 820.946 1214.41 822.535 1212.53 824.027C1204.79 829.803 1197.42 838.563 1189.05 846.553C1181.06 855.072 1172.49 863.784 1164.79 873.314C1160.89 878.031 1156.9 882.652 1153.29 887.514C1149.34 892.134 1146.02 897.092 1142.26 901.664C1135.62 911.195 1128.55 920.099 1123.73 928.57C1122.53 930.688 1121.23 932.662 1120.03 934.635C1118.87 936.609 1117.81 938.486 1116.76 940.219C1114.64 943.732 1112.66 946.861 1111.61 949.604C1110.26 952.252 1109.2 954.418 1108.38 955.862C1107.76 957.354 1107.56 958.172 1107.56 958.172L1107.66 958.028Z" fill="black"/>
<path d="M1128.55 873.123C1128.55 873.123 1127.73 877.214 1126.62 884.386C1125.08 891.461 1124.02 901.954 1121.47 913.987C1121.09 915.287 1120.7 916.634 1120.32 918.03L1120.08 918.849L1119.98 919.234L1120.08 919.474C1120.22 919.763 1120.41 920.004 1120.66 920.148C1120.9 920.293 1121.14 920.341 1121.43 920.389C1121.57 920.389 1121.71 920.389 1121.86 920.389C1122 920.389 1122.1 920.389 1122.48 920.1C1123.64 919.234 1124.41 918.56 1124.99 918.03C1125.61 917.453 1125.95 917.02 1126.19 916.683C1126.24 916.586 1126.29 916.49 1126.33 916.442V916.394L1126.62 916.249L1127.97 915.576C1129.75 914.709 1131.53 913.843 1133.31 912.976C1140.44 909.463 1147.7 905.949 1154.88 902.291C1162.19 898.922 1169.46 895.456 1176.58 892.039C1180.14 890.258 1183.75 888.718 1187.31 887.129C1190.88 885.541 1194.39 884.049 1197.9 882.557C1211.72 876.396 1225.39 871.727 1236.65 866.866C1247.91 862.004 1258.16 859.068 1264.8 856.228C1271.78 853.822 1275.83 852.426 1275.83 852.426C1275.83 852.426 1272.99 855.603 1268.03 861.09C1262.64 866.047 1255.66 874.23 1245.84 882.027C1236.07 889.873 1224.86 899.596 1211.52 907.923C1204.93 912.206 1198.05 916.49 1190.73 920.293C1183.42 924.095 1175.91 927.705 1168.3 931.267C1160.6 934.492 1152.81 937.62 1145.11 940.508C1143.18 941.182 1141.25 941.904 1139.33 942.578L1137.89 943.107L1135.48 944.022C1133.7 944.744 1131.92 945.273 1130.14 945.851C1123.54 947.68 1117.05 949.461 1110.64 951.242C1105.01 952.638 1099.86 953.696 1094.91 954.755L1093.99 954.948H1093.75C1093.75 954.948 1093.61 954.996 1093.65 954.9L1093.8 954.37L1094.33 952.301C1094.67 950.953 1095.05 949.605 1095.39 948.257C1096.11 945.61 1096.83 943.011 1097.5 940.46C1098.23 937.957 1098.95 935.502 1099.62 933.048L1100.15 931.267L1101.07 929.101C1101.69 927.705 1102.27 926.309 1102.85 924.913C1105.06 919.715 1107.18 914.709 1109.25 909.896C1114.59 898.585 1120.08 889.68 1123.16 883.134C1126.62 876.733 1128.45 873.026 1128.45 873.026L1128.55 873.123Z" fill="black"/>
<path d="M1102.94 949.893C1102.94 949.893 1102.7 947.535 1101.98 943.347C1101.79 941.229 1101.35 938.678 1101.11 935.694C1100.78 932.71 1100.54 929.292 1100.78 925.682C1100.87 922.024 1101.07 918.029 1101.31 913.746C1101.4 911.58 1101.6 909.414 1101.88 907.2C1102.12 904.937 1102.51 902.675 1103.04 900.413C1105.01 891.316 1108.62 881.978 1112.76 872.881C1117.48 864.073 1123.16 855.842 1129.46 848.959C1135.67 841.932 1142.99 836.878 1149.05 832.642C1151.99 830.428 1155.07 828.792 1157.81 827.54C1160.55 826.193 1162.96 825.134 1164.93 824.267C1169.03 822.775 1171.38 821.957 1171.38 821.957C1171.38 821.957 1170.13 824.075 1167.92 827.829C1166.67 829.466 1165.42 831.728 1163.97 834.279C1162.53 836.782 1160.89 839.574 1159.06 842.461C1157.09 845.253 1155.36 848.574 1153.53 851.992C1151.6 855.361 1149.77 859.019 1147.56 862.436C1143.52 869.56 1139.18 877.165 1134.9 884.722C1130.38 892.182 1126.38 899.98 1122.44 907.296C1118.78 914.708 1114.16 921.543 1111.8 928.041C1110.4 931.218 1109.15 934.154 1108 936.801C1106.84 939.448 1105.69 941.759 1105.16 943.732C1103.62 947.631 1102.89 949.941 1102.89 949.941L1102.94 949.893Z" fill="black"/>
<path d="M1102.8 959.714C1102.8 959.714 1104.24 958.366 1106.6 955.767C1109.2 953.505 1112.28 949.365 1116.66 945.419C1121.14 941.664 1125.95 936.707 1131.58 932.23C1137.17 927.61 1143.33 923.085 1149.68 918.849C1156.22 914.903 1162.63 910.763 1169.22 907.731C1175.62 904.41 1182.21 902.244 1187.56 899.933C1192.9 897.623 1198.05 896.66 1201.27 895.457C1204.74 894.591 1206.76 894.109 1206.76 894.109C1206.76 894.109 1205.56 895.794 1203.49 898.682C1201.18 901.233 1198.34 905.661 1194.1 909.704C1189.87 913.796 1185.2 918.994 1179.52 923.518C1173.98 928.332 1167.49 932.471 1161.04 936.755C1154.4 940.702 1147.51 944.263 1140.82 947.199C1134.18 950.232 1127.49 952.253 1122.05 954.419C1116.52 956.441 1111.32 957.115 1108.14 958.27C1104.73 959.088 1102.85 959.666 1102.85 959.666L1102.8 959.714Z" fill="black"/>
<path d="M1108.04 936.418C1108.04 936.418 1110.21 934.493 1113.68 930.546C1117.38 927.032 1122.29 921.256 1128.74 915.288C1135.33 909.464 1142.7 902.196 1151.22 895.361C1155.45 891.895 1159.93 888.43 1164.55 885.061C1169.22 881.739 1174.03 878.515 1178.84 875.29C1188.81 869.369 1198.62 863.16 1208.64 858.732C1218.41 853.871 1228.37 850.838 1236.5 847.565C1244.64 844.292 1252.34 843.185 1257.29 841.693C1262.59 840.731 1265.57 840.201 1265.57 840.201C1265.57 840.201 1263.55 842.512 1260.04 846.555C1256.24 850.02 1251.37 856.085 1244.54 861.476C1237.71 866.867 1230.25 874.038 1221.39 880.247C1212.77 886.842 1202.81 892.569 1193.09 898.634C1188.04 901.426 1183.03 904.169 1178.07 906.913C1173.02 909.512 1168.01 912.015 1163.06 914.277C1153.29 918.994 1143.61 922.508 1135.62 926.069C1127.54 929.439 1120.32 931.605 1115.6 933.578C1110.64 935.215 1108 936.418 1108 936.418H1108.04Z" fill="black"/>
<path d="M1116.08 932.615C1116.08 932.615 1117.48 930.208 1119.6 925.588C1120.7 923.374 1122.1 920.582 1123.64 917.453C1125.23 914.325 1127.1 910.811 1129.42 907.249C1131.68 903.591 1134.18 899.644 1136.78 895.457C1139.33 891.173 1142.36 886.937 1145.78 882.798C1152.47 874.375 1160.51 866.288 1168.74 858.347C1177.4 850.934 1186.26 843.618 1195.35 837.938C1204.31 832.066 1213.74 828.119 1221.54 824.51C1225.39 822.68 1229.24 821.429 1232.7 820.514C1236.17 819.552 1239.2 818.83 1241.61 818.06C1246.71 817.097 1249.64 816.52 1249.64 816.52C1249.64 816.52 1247.81 818.878 1244.64 822.969C1242.86 824.702 1240.93 827.157 1238.67 829.852C1236.41 832.548 1233.81 835.484 1230.82 838.324C1224.71 843.907 1218.36 851.416 1210.61 858.01C1203.15 864.989 1194.73 871.727 1186.55 878.803C1178.03 885.541 1169.8 892.521 1161.66 898.778C1159.69 900.366 1157.72 901.955 1155.69 903.447C1153.62 904.891 1151.6 906.287 1149.63 907.634C1145.68 910.378 1141.98 912.977 1138.75 915.624C1132.21 920.774 1126.14 924.721 1122.24 927.802C1118.15 930.738 1116.04 932.615 1116.04 932.615H1116.08Z" fill="black"/>
<path d="M1127.34 878.994C1127.34 878.994 1128.84 877.695 1131.68 875.336C1134.42 872.882 1138.51 869.272 1143.56 864.603C1148.76 860.078 1154.92 854.351 1161.9 847.66C1168.98 841.114 1176.87 833.654 1185.77 825.856C1203.63 810.502 1223.51 790.479 1250.46 774.691C1257.15 770.744 1264.27 766.99 1271.69 763.717C1279.05 760.444 1286.37 757.604 1293.54 754.861C1300.66 752.069 1307.59 749.374 1314.09 746.245C1320.73 743.213 1327.18 739.699 1333.53 735.993C1359.28 721.505 1382.53 701.915 1403.85 682.566C1406.5 680.111 1409.1 677.656 1411.7 675.25L1412.75 674.239L1414.39 672.602L1417.62 669.378L1420.84 666.201L1422.43 664.661C1422.72 664.42 1422.91 664.035 1423.25 663.987H1424.31C1427.15 664.179 1429.98 664.372 1432.78 664.516L1436.92 664.757L1439.42 664.949C1442.79 665.238 1446.11 665.527 1449.38 665.719C1462.52 666.586 1475.08 666.826 1486.63 666.345C1509.74 665.334 1529.37 664.179 1542.9 661.917C1549.73 661.147 1555.12 660.28 1558.78 659.703C1562.44 659.077 1564.41 658.74 1564.41 658.74C1564.41 658.74 1562.58 659.558 1559.21 661.051C1555.8 662.543 1550.79 664.709 1544.29 667.308C1531.2 671.88 1512.33 679.148 1488.56 683.432C1476.67 685.55 1463.72 687.668 1449.86 689.064C1446.4 689.449 1442.88 689.738 1439.32 690.026L1436.63 690.219L1435.52 690.363L1433.45 690.652C1433.02 690.604 1433.02 691.037 1432.78 691.23L1432.3 691.952L1431.81 692.625L1431.57 692.962L1430.75 693.877C1428.3 696.62 1425.8 699.412 1423.2 702.156C1402.79 724.345 1377.96 746.149 1349.18 763.188C1341.86 767.231 1334.45 771.13 1326.75 774.451C1319.09 777.916 1311.3 780.66 1303.98 783.259C1296.62 785.858 1289.49 788.217 1282.85 790.768C1276.21 793.27 1269.86 796.062 1263.55 799.094C1251.13 805.304 1238.91 811.85 1227.45 818.636C1215.95 825.327 1204.93 831.921 1194.97 838.274C1184.96 844.58 1175.52 850.019 1167.24 854.928C1158.87 859.693 1151.6 863.929 1145.78 867.635C1139.86 871.149 1135.24 874.037 1132.06 875.962C1128.98 877.984 1127.3 879.042 1127.3 879.042L1127.34 878.994Z" fill="black"/>
<path d="M1468.92 681.315C1468.92 681.315 1470.56 680.978 1473.59 680.352C1476.62 679.775 1481.05 678.668 1486.59 677.031C1492.17 675.635 1498.86 673.469 1506.42 670.726C1513.97 668.03 1522.4 664.902 1531.44 661.292C1540.49 657.73 1550.07 653.254 1559.89 648.104C1569.76 643.05 1579.81 637.274 1590.07 631.161C1595.17 628.032 1600.27 624.759 1605.37 621.438C1610.42 618.165 1616.44 614.122 1624.67 610.849C1628.76 609.213 1633.67 607.913 1638.58 607.672C1643.39 607.335 1647.77 607.769 1651.62 608.202C1658.17 609.068 1664.71 609.935 1671.26 610.801C1696.29 614.315 1721.6 615.325 1745.43 615.133C1757.36 614.988 1768.92 614.459 1779.94 613.978C1790.96 613.256 1801.4 612.341 1810.98 610.849C1830.09 607.913 1846.6 606.084 1857.81 603.34C1863.59 602.474 1868.02 601.319 1871.1 600.741C1874.18 600.067 1875.81 599.73 1875.81 599.73C1875.81 599.73 1874.37 600.597 1871.72 602.185C1869.03 603.774 1865.13 606.325 1860.03 609.213C1857.43 610.512 1854.54 612.052 1851.41 613.737C1848.23 615.325 1844.77 617.01 1841.06 618.839C1833.6 622.353 1825.04 626.107 1815.36 629.139C1805.69 632.22 1795.1 635.348 1783.74 638.285C1772.33 640.932 1760.2 643.531 1747.4 644.831C1721.94 648.152 1694.31 647.622 1666.98 644.686L1656.77 643.146L1647.48 641.654C1644.84 641.269 1642.62 641.269 1640.94 641.365C1639.35 641.558 1637.86 641.75 1635.84 642.328C1631.84 643.435 1626.84 646.178 1620.72 649.018C1614.71 651.858 1608.69 654.457 1602.72 656.864C1590.84 661.725 1578.95 665.479 1567.64 668.512C1556.28 671.448 1545.45 673.662 1535.53 675.684C1525.62 677.657 1516.38 678.668 1508.25 679.486C1500.11 680.015 1492.99 680.449 1487.16 680.786C1481.34 680.93 1476.77 681.074 1473.64 681.171C1470.56 681.315 1468.88 681.363 1468.88 681.363L1468.92 681.315Z" fill="black"/>
<path d="M1241.12 788.361C1241.12 788.361 1241.94 788.939 1243.43 789.95C1244.11 790.527 1245.17 791.009 1245.89 792.019C1246.66 792.982 1247.53 794.041 1248.44 795.244C1250.27 797.651 1252.48 800.394 1254.55 803.619C1256.62 806.796 1258.79 810.262 1260.91 813.775C1265.19 820.755 1269.14 828.022 1271.93 833.606C1274.77 839.189 1276.74 842.799 1276.74 842.799C1276.74 842.799 1273.28 840.585 1267.88 837.36C1262.49 834.183 1255.47 829.755 1248.83 825.038C1245.46 822.68 1242.18 820.273 1239.1 818.011C1236.02 815.749 1233.42 813.342 1231.16 811.369C1230.05 810.358 1229.04 809.443 1228.13 808.577C1227.17 807.807 1226.78 806.7 1226.25 806.026C1225.34 804.486 1224.81 803.619 1224.81 803.619L1241.12 788.361Z" fill="black"/>
<path d="M1420.31 677.801C1420.31 677.801 1420.12 677.704 1419.69 677.464C1419.16 677.271 1419.06 676.79 1418.82 676.26C1418.34 675.105 1417.71 673.469 1417.09 671.495C1416.27 667.356 1415.55 661.724 1415.12 656.045C1414.73 650.317 1414.54 644.541 1414.83 640.065C1415.02 635.637 1415.12 632.652 1415.12 632.652C1415.12 632.652 1416.85 635.059 1419.5 638.621C1422.24 642.183 1425.32 647.044 1428.21 652.05C1431.05 657.007 1433.55 662.109 1435.23 665.96C1435.81 667.982 1436.2 669.666 1436.48 670.87C1436.58 671.495 1436.82 671.928 1436.48 672.362C1436.29 672.747 1436.15 672.987 1436.15 672.987L1420.36 677.801H1420.31Z" fill="black"/>
<path d="M1625.97 622.064C1625.97 622.064 1624.29 612.919 1624.48 603.485C1624.87 594.003 1626.26 584.328 1626.26 584.328C1626.26 584.328 1630.93 592.944 1634.59 601.704C1638.05 610.512 1639.59 619.657 1639.59 619.657L1625.97 622.064Z" fill="black"/>
<path d="M1600.6 730.554C1600.6 730.554 1600.32 730.313 1600.03 729.928C1600.03 729.591 1600.12 729.062 1600.22 728.436C1600.32 727.81 1600.36 726.992 1600.65 726.077C1600.89 725.211 1601.13 724.2 1601.47 723.093C1602.05 720.927 1602.82 718.376 1603.69 715.681C1604.5 712.985 1605.27 710.097 1606.48 707.258C1611.05 695.995 1617.07 685.357 1617.07 685.357C1617.07 685.357 1616.73 697.391 1616.39 709.376C1616.39 712.36 1615.96 715.248 1615.72 717.991C1615.53 720.735 1615.33 723.286 1615.19 725.5C1615.09 726.607 1615.04 727.57 1614.95 728.484C1614.95 729.35 1614.71 730.121 1614.61 730.746C1614.51 731.372 1614.42 731.853 1614.32 732.19C1613.94 732.479 1613.55 732.575 1613.6 732.623L1600.56 730.554H1600.6Z" fill="black"/>
<path d="M1413.48 755.873C1413.48 755.873 1413.48 755.44 1413.43 754.67C1413.43 754.284 1413.38 753.803 1413.58 753.274C1413.72 752.744 1413.86 752.119 1414.01 751.493C1414.68 748.846 1415.64 745.332 1416.75 741.77C1417.86 738.256 1419.16 734.695 1420.17 732.047C1421.18 729.4 1421.9 727.619 1421.9 727.619C1421.9 727.619 1422.62 729.352 1423.73 731.999C1424.84 734.646 1426.19 738.112 1427.34 741.626C1428.54 745.139 1429.55 748.653 1430.28 751.252C1430.47 751.926 1430.61 752.504 1430.76 753.033C1430.95 753.563 1430.95 754.044 1430.9 754.429C1430.9 755.199 1430.9 755.632 1430.9 755.632L1413.53 755.825L1413.48 755.873Z" fill="black"/>
<path d="M1403.18 845.398C1403.18 845.398 1402.98 845.254 1402.6 845.062C1402.07 844.869 1401.97 844.436 1401.68 843.906C1401.4 843.377 1401.11 842.751 1401.2 841.981C1401.2 841.211 1401.2 840.345 1401.2 839.382C1401.2 838.419 1401.3 837.408 1401.44 836.35C1401.54 835.291 1401.68 834.135 1402.02 832.98C1402.65 830.67 1403.32 828.215 1404.38 825.857C1406.45 821.14 1408.9 816.808 1410.97 813.775C1413.04 810.743 1414.53 808.914 1414.53 808.914C1414.53 808.914 1414.77 811.321 1415.4 814.738C1416.03 818.155 1417.13 822.584 1418.67 826.723C1419.44 828.793 1420.07 830.766 1420.74 832.595C1421.13 833.51 1421.27 834.376 1421.56 835.194C1421.8 836.013 1421.99 836.783 1422.19 837.505C1422.38 838.227 1422.52 838.852 1422.72 839.43C1422.96 839.959 1422.81 840.489 1422.72 840.97C1422.57 841.403 1422.57 841.74 1422.14 842.029C1421.85 842.318 1421.66 842.462 1421.66 842.462L1403.27 845.447L1403.18 845.398Z" fill="black"/>
<path d="M1542.71 853.533C1542.71 853.533 1542.18 852.859 1541.26 851.608C1541.12 851.464 1540.97 851.319 1540.83 851.127C1540.73 851.03 1540.68 850.934 1540.59 850.886V850.597C1540.44 850.212 1540.4 849.731 1540.3 849.298C1540.11 848.335 1539.91 847.276 1540.01 846.073C1540.06 841.308 1540.73 835.002 1542.22 828.986C1543.72 822.921 1545.98 817.193 1548.05 813.102C1550.12 809.011 1551.71 806.508 1551.71 806.508C1551.71 806.508 1551.61 809.54 1551.9 813.92C1552.14 818.3 1552.76 824.028 1553.73 829.515C1554.69 835.002 1555.94 840.297 1557.05 844.147C1557.38 845.11 1557.43 846.025 1557.53 846.795C1557.63 847.613 1557.77 848.287 1557.29 848.961C1556.81 850.212 1556.52 850.982 1556.52 850.982L1542.75 853.629L1542.71 853.533Z" fill="black"/>
</g>
<defs>
<clipPath id="clip0_157_321">
<rect width="1813" height="1250" fill="white" transform="translate(94 375)"/>
</clipPath>
</defs>
</svg>
