<svg width="2000" height="2000" viewBox="0 0 2000 2000" fill="none" xmlns="http://www.w3.org/2000/svg">
<g clip-path="url(#clip0_157_322)">
<path d="M914.506 1208.66C910.306 1210.67 907.398 1213.02 905.54 1214.71C903.683 1216.49 902.875 1217.54 902.875 1217.54C902.875 1217.54 904.167 1217.21 906.59 1216.73C908.933 1216.25 912.325 1215.76 916.363 1215.68C924.44 1215.36 935.182 1211.72 946.329 1214.95C957.636 1218.26 963.936 1219.15 973.871 1225.21C981.14 1229.65 989.782 1234.25 989.782 1234.25C989.782 1234.25 986.39 1229.89 980.009 1223.92C973.628 1218.02 963.855 1210.19 950.205 1206.23C936.475 1202.2 922.825 1204.46 914.586 1208.66H914.506Z" fill="black"/>
<path d="M666.547 1254.84C666.628 1254.44 666.789 1254.28 666.547 1254.84V1254.84Z" fill="black"/>
<path d="M984.049 1340.68C984.049 1340.68 984.05 1340.68 983.969 1340.68C984.211 1341.65 984.13 1341.24 984.049 1340.68Z" fill="black"/>
<path d="M158.27 812.905C158.754 812.824 159.239 812.663 159.804 812.582C159.158 812.663 158.593 812.824 158.27 812.905Z" fill="black"/>
<path d="M1024.83 1089.23C1038.08 1093.34 1051.33 1095.85 1064.17 1097.14C1085.49 1099.24 1105.68 1098.27 1124.18 1095.44C1161.25 1089.87 1191.3 1078 1214.88 1067.51C1238.55 1056.85 1255.99 1047.08 1267.79 1040.45C1279.5 1033.67 1285.64 1030.2 1285.64 1030.2C1285.64 1030.2 1279.18 1033.59 1267.06 1040.05C1254.78 1046.35 1236.77 1055.64 1212.7 1065.65C1188.71 1075.42 1158.43 1086.24 1122.08 1090.6C1103.99 1092.78 1084.36 1093.18 1063.93 1090.68C1047.05 1088.5 1029.6 1084.22 1012.64 1076.87C1021.68 1077.28 1030.73 1078.41 1039.62 1079.54C1046.48 1080.43 1053.35 1081.39 1060.13 1082.12C1066.92 1082.69 1073.7 1083.01 1080.32 1083.41C1106.9 1084.14 1131.85 1080.67 1154.39 1075.02C1176.92 1069.36 1197.11 1061.45 1214.96 1052.89C1232.73 1044.17 1248.08 1034.64 1261.33 1025.44C1287.74 1006.78 1305.51 989.018 1316.81 976.582C1322.71 970.526 1326.51 965.358 1329.33 962.128C1332.08 958.818 1333.45 957.122 1333.45 957.122C1333.45 957.122 1331.92 958.818 1329.01 962.128C1326.02 965.358 1321.98 970.526 1315.84 976.502C1303.97 988.775 1285.56 1006.38 1258.58 1024.14C1245.17 1033.11 1229.5 1041.91 1211.73 1050.31C1193.8 1058.22 1173.77 1065.49 1151.56 1070.49C1129.35 1075.5 1105.04 1078.24 1079.43 1077.03C1074.91 1076.63 1070.31 1076.31 1065.62 1075.98C1070.07 1075.98 1074.67 1075.74 1079.6 1075.5C1099.3 1074.45 1122.81 1072.03 1148.49 1066.29C1161.33 1063.47 1174.66 1059.67 1188.23 1054.99C1201.8 1050.06 1215.53 1044.09 1228.94 1036.42C1242.51 1028.67 1254.22 1019.7 1265.36 1010.5C1276.35 1001.21 1286.44 991.682 1295.25 981.831C1313.02 962.29 1326.26 942.506 1335.96 925.226C1345.57 907.865 1351.71 893.088 1355.34 882.672C1357.36 877.584 1358.49 873.385 1359.38 870.64C1360.27 867.895 1360.67 866.441 1360.67 866.441C1360.67 866.441 1360.02 867.814 1358.73 870.398C1357.44 872.982 1355.82 876.938 1353.16 881.703C1348.31 891.473 1340.56 905.281 1329.66 921.35C1318.67 937.338 1304.29 955.426 1286.28 973.272C1277.32 982.315 1267.3 991.117 1256.48 999.677C1245.66 1008.07 1233.94 1016.71 1221.59 1023.82C1209.07 1031.01 1196.06 1036.82 1183.3 1041.91C1170.38 1046.75 1157.7 1050.95 1145.42 1054.34C1120.87 1061.21 1098.01 1065.41 1078.79 1068.23C1062.96 1070.49 1049.63 1071.79 1039.21 1072.51C1028.07 1070.9 1016.52 1069.36 1004.48 1069.28C996 1067.83 986.954 1066.29 977.181 1064.76C977.181 1064.76 977.019 1064.76 976.939 1064.76C973.143 1064.19 969.266 1063.63 965.227 1063.15C962.239 1062.82 959.17 1062.5 956.02 1062.26C951.981 1061.93 947.862 1061.69 943.662 1061.61C936.716 1061.53 929.527 1061.85 922.097 1062.82C901.985 1065.24 881.793 1073.8 862.489 1084.54C843.186 1095.53 824.286 1108.12 804.255 1120.96C784.386 1133.96 763.952 1147.77 743.679 1163.03C741.821 1164.4 740.125 1165.86 738.267 1167.23C736.329 1168.76 734.39 1170.22 732.452 1171.75C726.313 1176.6 720.175 1181.52 714.359 1186.53C704.99 1194.44 695.944 1202.03 686.575 1208.57C671.471 1219.23 654.752 1226.18 637.872 1231.02C634.075 1232.15 630.198 1233.12 626.402 1234.01C623.575 1234.66 620.829 1235.14 618.002 1235.71C600.233 1239.34 582.868 1241.2 566.633 1240.63C555.245 1240.23 544.341 1238.61 534.407 1235.79C533.195 1235.46 532.064 1235.06 530.934 1234.74C525.764 1233.12 520.918 1231.18 516.314 1228.92C502.18 1221.9 490.145 1212.53 483.684 1201.55C466.803 1172.8 475.526 1151.32 480.292 1145.67C480.049 1146.07 479.807 1146.32 479.645 1146.8C477.869 1150.27 477.303 1155.28 478.272 1160.69C479.242 1166.1 481.584 1171.91 485.219 1177.65C488.772 1183.46 493.618 1189.27 499.918 1194.44C503.068 1197.03 506.703 1199.45 510.822 1201.39C514.861 1203.41 520.03 1204.54 524.472 1205.02C528.511 1205.42 532.711 1205.5 536.83 1205.42C537.476 1205.42 538.203 1205.42 538.849 1205.42C552.903 1204.86 567.36 1201.55 581.576 1196.06C591.187 1192.34 600.153 1187.66 608.149 1181.93C616.145 1176.27 623.333 1169.73 628.745 1162.14C631.652 1158.59 633.591 1154.31 635.691 1150.52C636.418 1148.42 637.225 1146.4 637.952 1144.38C638.275 1143.25 638.679 1142.68 639.002 1141.07C639.325 1139.69 639.406 1138.24 639.325 1136.95C639.002 1131.62 636.902 1127.99 635.206 1124.76C633.51 1121.69 631.733 1118.54 629.795 1115.79C622.122 1104.65 613.318 1098.11 607.099 1094.23C603.949 1092.3 601.445 1091.08 599.749 1090.28C597.972 1089.55 597.083 1089.15 597.083 1089.15C597.083 1089.15 597.891 1089.71 599.426 1090.84C600.96 1091.97 603.141 1093.67 605.806 1096.09C611.056 1100.85 618.083 1108.53 623.575 1119.51C624.948 1122.25 626.16 1125.16 627.452 1128.39C628.664 1131.46 629.633 1134.69 629.391 1136.95C629.391 1138.16 628.987 1138.73 628.018 1140.58C627.291 1142.2 626.483 1143.73 625.675 1145.43C623.575 1148.42 621.799 1151.73 619.052 1154.47C614.125 1160.45 607.664 1165.7 600.314 1170.3C593.126 1175.06 584.887 1179.1 576.245 1182.41C564.533 1187.01 552.58 1190.16 541.191 1191.7C540.787 1191.7 540.384 1191.78 539.98 1191.86C534.972 1192.5 530.126 1192.83 525.441 1192.75C521.403 1192.67 518.334 1192.26 515.022 1191.05C511.711 1189.92 508.561 1188.31 505.653 1186.45C499.838 1182.73 494.911 1178.13 491.034 1173.45C483.199 1164.16 479.645 1154.15 481.665 1147.69C482.553 1144.46 484.492 1142.36 485.865 1141.15C487.318 1139.94 488.126 1139.37 488.126 1139.37C488.126 1139.37 487.157 1139.69 485.461 1140.58C485.057 1140.83 532.711 1109.66 540.949 1104.97C551.126 1099.24 561.868 1093.18 572.853 1086.97C578.83 1083.57 584.968 1080.1 591.187 1076.63C592.076 1076.15 592.964 1075.66 593.852 1075.1C598.537 1072.43 603.222 1069.77 607.987 1067.02C612.672 1064.28 617.599 1061.69 622.687 1058.46C632.056 1052.32 641.668 1046.11 651.441 1039.81C656.287 1036.82 661.133 1033.51 665.737 1031.73C671.471 1029.31 677.044 1026.57 682.456 1023.58C693.279 1017.6 703.617 1011.3 714.279 1005.09C724.859 998.788 735.359 992.49 745.698 986.353C755.875 980.135 766.455 974.241 776.228 966.65C776.955 966.085 777.601 965.52 778.248 964.955C781.317 962.451 784.224 959.706 786.971 956.88C792.14 951.389 796.744 945.413 800.378 939.519C806.597 929.667 811.444 919.816 816.936 911.014C818.067 909.238 819.197 907.542 820.328 905.766C822.993 901.648 825.659 897.61 828.405 893.734C831.474 889.535 834.543 885.417 837.774 881.46C840.278 878.392 842.701 875.404 845.286 872.578C854.251 862.484 863.62 853.36 872.989 845.366C875.251 843.428 877.512 841.651 879.774 839.875C884.135 836.403 888.416 833.092 892.697 830.104C905.781 820.899 918.301 813.551 929.851 808.06C935.504 805.072 941.077 802.973 946.085 800.631C951.173 798.531 955.858 796.916 960.058 795.221C968.62 792.395 975.323 790.295 979.927 789.165C984.531 787.953 986.954 787.307 986.954 787.307C986.954 787.307 984.45 787.711 979.766 788.599C975 789.326 968.135 790.941 959.331 793.121C954.97 794.413 950.124 795.786 944.793 797.482C939.624 799.42 933.808 801.196 927.912 803.861C915.878 808.706 902.551 815.408 888.658 824.048C887.366 824.855 886.155 825.744 884.862 826.551C889.951 814.843 897.301 801.358 906.751 787.953C919.27 770.027 932.677 754.766 942.774 743.784C953.031 732.802 959.412 725.938 959.412 725.938C959.412 725.938 957.312 726.907 953.516 728.926C949.8 730.945 944.389 734.013 938.089 738.212C925.408 746.61 908.447 760.014 894.797 779.555C881.632 798.451 875.332 818.88 873.635 834.142C872.666 834.788 871.778 835.595 870.809 836.241C866.366 821.222 863.862 808.706 862.328 799.743C860.632 789.811 860.066 784.32 860.066 784.32C860.066 784.32 859.582 789.972 859.743 800.227C859.986 809.998 860.955 824.129 864.509 841.005C863.136 842.055 861.843 843.185 860.47 844.316L859.339 842.701C857.886 840.521 856.432 838.421 854.978 836.322C852.151 832.204 849.486 828.328 846.982 824.775C841.893 817.588 837.613 811.451 834.059 806.445C826.87 796.513 822.913 791.103 822.913 791.103C822.913 791.103 826.143 797.159 831.959 808.06C837.37 817.83 845.124 831.881 854.736 848.999C852.959 850.534 851.263 852.068 849.486 853.683C832.282 833.98 815.482 821.222 803.528 813.308C797.309 809.19 792.301 806.364 788.909 804.426C785.517 802.569 783.659 801.681 783.659 801.681C783.659 801.681 785.355 802.892 788.586 805.153C791.817 807.495 796.501 810.886 802.236 815.65C813.382 824.775 828.728 838.906 844.074 858.851C842.297 860.546 840.601 862.161 838.824 863.938C833.574 857.559 827.355 851.26 820.086 845.689C802.236 831.396 783.174 823.321 769.282 818.719C762.255 816.458 756.44 815.085 752.482 814.277C748.444 813.551 746.182 813.147 746.182 813.147C746.182 813.147 748.121 814.277 751.675 816.377C755.148 818.476 760.155 821.464 766.213 825.259C778.248 833.011 794.563 843.831 811.04 857.074C817.986 862.484 824.367 868.056 830.02 873.466C828.486 875.162 827.032 877.019 825.578 878.796C804.901 857.72 784.709 844.72 770.252 836.887C762.498 832.688 756.279 829.862 751.998 828.005C747.717 826.228 745.536 825.34 745.536 825.34C745.536 825.34 747.717 826.551 751.836 828.731C755.955 830.992 761.932 834.465 769.282 839.31C783.094 848.515 801.994 862.969 820.893 884.448C820.732 884.69 820.49 884.852 820.328 885.094C807.244 872.739 793.028 864.826 782.528 859.9C771.625 854.813 764.436 852.472 764.436 852.472C764.436 852.472 769.686 857.882 778.49 865.957C787.213 874.031 799.167 884.771 811.605 896.883C809.909 899.387 808.132 901.728 806.436 904.312C804.901 906.654 803.447 908.996 801.994 911.418C780.428 892.119 767.102 881.38 767.102 881.38C767.102 881.38 778.651 895.511 798.359 917.394C796.259 920.946 794.078 924.499 791.898 927.891C775.825 912.306 765.809 903.747 765.809 903.747C765.809 903.747 773.886 915.456 788.182 933.543C786.728 935.643 785.194 937.742 783.659 939.761C774.451 931.202 765.809 925.468 759.428 921.673C751.352 916.99 746.667 915.133 746.667 915.133C746.667 915.133 750.948 918.04 758.055 923.934C763.79 928.698 771.382 935.643 779.298 944.848C777.924 946.382 776.471 947.917 775.017 949.289C765.728 943.314 755.794 936.773 745.536 929.748C722.84 913.76 702.648 898.66 689.483 885.982C682.86 879.765 677.852 874.193 674.621 870.156C671.471 865.957 669.775 863.696 669.775 863.696C669.775 863.696 670.825 866.441 672.683 871.367C674.783 876.212 678.417 883.075 683.99 890.827C694.894 906.492 713.633 925.226 737.217 941.78C746.263 947.997 755.309 953.407 764.113 958.01C761.69 959.706 759.186 961.321 756.602 962.936C721.871 930.798 700.467 912.468 700.467 912.468C700.467 912.468 719.125 933.705 750.382 966.731C747.717 968.346 744.971 969.961 742.144 971.576C724.213 952.519 708.867 938.146 698.125 928.456C687.14 918.605 680.841 913.518 680.841 913.518C680.841 913.518 686.414 919.654 696.51 930.556C706.121 941.134 719.69 956.314 735.521 975.371C732.613 977.067 729.625 978.843 726.636 980.62C683.667 933.14 657.094 905.523 657.094 905.523C657.094 905.523 676.721 930.879 709.836 971.657C709.109 971.657 708.463 971.657 707.575 971.657C704.586 971.657 700.629 971.657 696.106 971.576L696.51 971.253C669.291 936.208 652.006 915.94 652.006 915.94C652.006 915.94 665.091 937.581 687.383 971.253C683.344 971.011 678.983 970.688 674.46 970.122C674.137 970.122 673.733 969.961 673.329 969.961C658.71 952.358 647.968 937.177 640.537 926.195C632.218 913.841 628.018 906.896 628.018 906.896C628.018 906.896 631.41 914.567 638.518 927.891C644.171 938.307 652.248 952.277 663.314 968.104C663.314 968.104 663.233 968.104 663.152 968.104C658.548 966.973 653.944 965.278 649.26 963.097C619.375 921.512 600.799 897.368 600.799 897.368C600.799 897.368 614.125 920.139 637.145 956.799C636.337 956.314 635.448 955.911 634.641 955.426C630.522 953.084 626.402 950.743 622.445 948.562C609.845 933.301 600.96 919.897 595.145 910.368C589.087 900.517 586.18 894.865 586.18 894.865C586.18 894.865 588.199 901.082 592.964 911.822C596.356 919.412 601.283 929.264 608.149 940.407C607.422 940.003 606.695 939.599 605.968 939.115C602.818 937.258 599.91 935.32 597.083 933.463C597.083 933.463 597.083 933.463 596.922 933.382C580.687 912.306 572.691 891.554 568.41 876.938C566.149 868.864 564.937 862.404 564.13 858.124C563.483 853.764 563.16 851.503 563.16 851.503C563.16 851.503 563.241 853.844 563.403 858.366C563.726 862.888 564.291 869.51 565.906 877.988C568.087 889.374 572.449 904.312 580.768 920.462C577.053 916.748 574.387 913.275 572.53 910.449C571.237 908.673 570.51 907.138 569.864 906.169C569.299 905.2 568.976 904.635 568.976 904.635C568.976 904.635 569.056 905.2 569.299 906.412C569.541 907.542 569.783 909.319 570.43 911.418C571.399 914.89 573.337 919.735 576.487 924.984C574.872 923.934 573.418 923.611 571.803 923.53C560.495 908.511 553.468 894.784 549.026 884.771C546.522 879.119 544.826 874.677 543.695 871.609C542.645 868.541 542.08 866.926 542.08 866.926C542.08 866.926 542.403 868.621 543.049 871.851C543.776 875.081 544.826 879.845 546.684 885.902C549.914 896.237 553.226 907.381 562.514 922.158C561.141 921.915 559.364 921.512 556.376 920.946C544.018 903.505 532.307 884.61 526.249 874.597C519.788 863.776 516.395 857.801 516.395 857.801C516.395 857.801 518.818 864.503 524.068 876.131C528.914 886.79 536.184 901.728 546.684 919.089C545.472 918.847 544.099 918.605 542.645 918.282C539.818 917.717 536.911 917.151 534.084 916.505C520.434 901.89 512.357 887.516 507.511 877.342C505.007 872.093 503.391 867.814 502.261 864.988C501.211 862.081 500.645 860.546 500.645 860.546C500.645 860.546 500.968 862.161 501.534 865.23C502.18 868.298 503.311 872.82 505.168 878.553C508.238 887.92 513.649 900.679 523.099 914.244C518.818 913.356 514.376 912.468 509.934 911.499C499.515 895.43 492.165 881.622 487.318 871.851C482.069 861.273 479.484 855.298 479.484 855.298C479.484 855.298 481.099 861.758 485.057 873.143C488.288 882.429 493.295 895.026 500.807 909.642C497.253 908.915 493.618 908.107 489.903 907.381C477.222 892.604 468.096 879.603 461.796 870.075C454.526 858.851 450.892 852.472 450.892 852.472C450.892 852.472 453.557 859.497 459.696 871.609C464.219 880.491 470.761 892.119 479.888 905.2C475.607 904.312 471.407 903.343 467.207 902.455C453.799 885.579 443.703 871.286 436.676 861.031C429.084 849.807 425.127 843.508 425.127 843.508C425.127 843.508 428.196 850.534 434.657 862.646C439.826 872.336 447.176 885.256 457.111 900.194C453.315 899.387 449.599 898.579 445.965 897.772C433.527 883.075 424.48 869.994 418.18 860.223C410.346 847.95 406.55 840.924 406.55 840.924C406.55 840.924 409.457 848.596 416.08 861.838C420.927 871.367 424.884 882.026 432.961 894.945C430.942 894.542 428.923 894.057 426.984 893.653C411.154 875.323 400.088 859.012 392.819 847.304C385.146 834.868 381.35 827.762 381.35 827.762C381.35 827.762 384.177 835.514 390.719 848.919C396.131 859.9 404.207 874.597 416 891.15C415.273 890.989 414.627 890.746 413.9 890.585C403.804 885.417 388.7 871.205 383.208 863.453C377.796 855.378 373.515 848.192 369.8 842.539C362.369 831.073 358.331 824.775 358.331 824.775C358.331 824.775 361.723 831.719 367.7 844.074C370.85 850.211 374.323 857.882 379.169 866.522C382.077 871.447 385.469 877.019 390.154 882.187C383.692 878.876 378.685 875.243 375.535 871.771C373.192 869.429 371.738 867.329 370.769 865.795C369.8 864.261 369.315 863.534 369.315 863.534C369.315 863.534 369.638 864.422 370.204 866.118C370.85 867.814 371.9 870.317 373.758 873.224C377.311 879.199 384.823 886.628 395.807 892.604C397.907 893.815 400.25 894.865 402.592 895.995C399.119 896.56 395.404 897.126 391.204 897.772C376.504 881.057 365.196 867.168 357.362 857.478C349.446 847.465 345.085 841.974 345.085 841.974C345.085 841.974 348.558 848.273 355.423 859.254C361.642 869.187 370.769 882.995 382.804 899.064C379.25 899.629 375.454 900.194 371.577 900.84C356.635 886.951 347.185 873.224 341.289 863.453C338.3 858.447 336.2 854.41 334.827 851.745C333.454 848.999 332.808 847.546 332.808 847.546C332.808 847.546 333.292 849.161 334.181 852.149C335.15 855.136 336.685 859.497 339.108 864.988C343.389 874.758 350.658 888.243 362.773 902.294C358.815 902.94 354.696 903.586 350.496 904.232C339.754 890.989 332.081 879.442 326.831 871.125C321.177 862 318.269 856.832 318.269 856.832C318.269 856.832 320.208 862.565 324.65 872.578C328.446 880.976 334.181 892.442 342.662 905.443C338.866 906.008 334.989 906.654 331.031 907.219C318.431 891.958 309.223 878.796 302.843 869.51C296.058 859.497 292.585 853.844 292.585 853.844C292.585 853.844 295.17 860.143 300.743 871.125C305.589 880.653 312.777 893.653 323.035 908.511C320.289 908.915 317.462 909.399 314.635 909.803C313.666 909.965 312.696 910.045 311.727 910.207C298.804 895.995 289.354 883.479 282.812 874.354C275.301 863.776 271.424 857.801 271.424 857.801C271.424 857.801 274.331 864.503 280.712 875.969C285.881 885.175 293.393 897.449 303.812 911.337C299.047 912.064 294.362 912.71 289.839 913.275C277.643 900.356 268.758 888.889 262.862 880.653C256.562 871.851 253.331 866.845 253.331 866.845C253.331 866.845 255.593 872.497 260.762 882.268C265.204 890.504 271.827 901.728 281.358 914.325C281.358 914.325 281.358 914.325 281.277 914.325C278.451 914.648 275.704 914.89 273.039 915.133C271.181 915.294 269.404 915.375 267.627 915.456C240.731 886.386 223.851 869.671 223.851 869.671C223.851 869.671 236.531 887.436 258.501 915.456C255.108 915.294 251.797 915.052 248.728 914.567C233.301 904.958 222.397 894.622 215.289 886.951C211.493 882.833 208.747 879.442 206.889 877.181C205.112 874.839 204.143 873.628 204.143 873.628C204.143 873.628 204.87 875 206.324 877.665C207.859 880.249 210.12 884.125 213.432 888.808C217.955 895.268 224.658 903.424 233.866 911.741C227.162 910.126 221.67 908.269 217.632 906.815C212.462 904.877 209.635 903.585 209.635 903.585C209.635 903.585 211.978 905.685 216.582 908.834C221.266 912.064 228.293 916.263 237.824 920.139C242.428 921.996 247.839 923.773 253.735 925.145C248.243 926.841 242.185 928.375 235.885 929.829L236.532 929.021C219.085 914.729 206.728 901.244 198.57 891.796C190.493 882.268 186.455 876.615 186.455 876.615C186.455 876.615 189.686 882.914 196.713 893.573C203.255 903.424 213.432 916.99 228.212 931.444C222.962 932.574 217.47 933.543 211.655 934.432C198.893 923.288 189.282 913.437 182.74 906.412C175.874 898.983 172.32 894.703 172.32 894.703C172.32 894.703 175.066 899.71 180.882 908.188C185.809 915.375 192.997 924.984 202.77 935.724C196.632 936.612 190.251 937.338 183.628 937.904L184.193 937.5C167.393 916.909 156.409 905.2 156.409 905.2C156.409 905.2 163.355 918.363 175.955 938.55C172.886 938.792 169.816 939.034 166.667 939.196C158.105 930.475 151.482 923.046 146.959 917.797C142.113 912.145 139.447 908.996 139.447 908.996C139.447 908.996 141.224 912.791 144.859 919.412C147.847 924.661 152.128 931.686 157.943 939.68C154.47 939.842 150.917 940.003 147.363 940.084C146.878 940.084 146.394 940.084 145.909 940.084C138.478 930.556 131.936 922.965 127.171 917.636C121.355 911.257 117.963 907.946 117.963 907.946C117.963 907.946 120.548 912.064 125.232 919.412C128.624 924.742 132.986 931.767 138.155 940.165C132.34 940.165 126.524 940.165 120.548 940.003C113.198 931.848 107.625 924.499 103.828 919.17C99.3054 912.791 96.9631 909.076 96.9631 909.076C96.9631 909.076 98.3362 913.356 101.648 920.623C103.99 925.711 107.382 932.251 112.148 939.68C108.109 939.519 104.071 939.196 99.9515 938.873C93.167 931.121 87.8362 924.58 84.1209 919.816C79.8401 914.406 77.5786 911.499 77.5786 911.499C77.5786 911.499 78.9517 915.133 82.0209 921.35C84.2016 925.711 87.1901 931.525 91.2285 938.065C87.2708 937.581 83.3132 937.016 79.3555 936.289C72.4094 927.972 66.1902 921.673 61.6671 917.474C56.4979 912.71 53.5095 910.368 53.5095 910.368C53.5095 910.368 55.771 913.598 59.8095 919.332C62.4748 923.127 65.8671 928.214 69.744 934.189C62.1518 932.251 54.8018 929.587 47.9365 925.872C32.9942 917.797 21.2828 904.554 17.8905 889.697C16.3559 883.56 14.4982 880.814 17.002 876.858C29.4404 875.808 53.1057 869.59 76.7709 864.342C86.1401 862.242 94.9439 859.9 102.94 857.397C106.898 856.186 110.694 854.894 114.248 853.521C115.944 852.875 117.801 852.068 119.498 851.18C121.113 850.291 122.567 849.322 123.859 848.192C126.605 846.092 128.624 843.024 129.271 840.359C129.998 837.695 130.078 835.595 130.24 833.819C130.482 831.235 130.644 829.539 130.724 828.812C137.994 824.936 144.697 821.464 150.997 818.638C156.49 816.215 187.666 811.774 192.351 810.24C192.351 810.24 192.27 810.24 191.947 810.24C206.889 807.979 227.082 803.134 250.262 793.767C256.724 791.183 263.427 788.276 270.212 784.966C277.158 781.655 283.862 778.102 291.131 774.953C298.4 771.723 306.073 768.574 313.989 765.747C317.866 764.375 322.146 762.921 325.862 761.952C329.496 761.064 333.454 760.822 337.654 760.902C346.054 761.064 355.181 762.76 365.277 763.244C375.373 763.486 384.742 763.244 394.758 763.083C414.627 762.679 435.142 761.71 456.061 760.579C476.98 759.449 497.334 758.319 516.961 757.673C526.814 757.35 536.507 757.107 546.037 756.784C555.73 756.461 565.422 755.573 574.71 753.716C584.241 751.616 592.479 748.871 600.799 746.368C609.037 743.784 616.952 741.281 624.706 738.777C632.379 736.355 639.81 734.013 646.837 732.156C648.614 731.752 650.391 731.348 652.168 731.025C663.879 732.479 679.064 733.932 697.398 731.833C708.383 730.46 720.498 729.249 733.582 727.392C740.125 726.423 746.829 725.454 754.017 723.758C757.894 722.789 761.044 721.578 764.598 720.447C768.071 719.317 771.463 718.025 775.017 716.814C802.963 706.801 832.766 693.962 863.782 680.477C894.797 666.911 924.277 654.072 951.577 643.736C978.635 633.4 1000.28 625.891 1021.68 621.207C1008.76 629.605 997.858 634.531 988.973 642.283C976.616 653.022 950.689 685.402 945.6 692.347C951.012 685.725 980.896 657.221 993.658 647.047C1004.97 637.922 1019.42 628.152 1036.87 618.542C1038.97 617.412 1041.07 616.201 1043.33 615.07C1045.67 613.859 1048.1 612.729 1050.52 611.517C1069.42 602.312 1091.31 593.268 1116.43 589.392C1144.86 584.466 1176.68 585.678 1211.25 584.789C1228.53 584.224 1246.63 583.013 1265.04 579.137C1274.33 576.957 1283.21 574.777 1292.74 570.981C1302.03 566.944 1310.35 561.615 1318.43 556.124C1326.51 550.714 1334.42 544.98 1342.58 539.974C1346.7 537.471 1350.57 535.291 1355.1 533.353C1359.46 531.253 1363.98 529.477 1368.51 527.7C1377.71 524.309 1387.16 521.563 1396.94 519.383C1406.71 517.284 1416.81 515.749 1426.98 514.7C1447.5 512.6 1468.66 512.116 1490.39 511.631C1495.88 511.47 1501.37 511.308 1506.86 511.147C1512.76 510.824 1518.33 510.178 1523.9 509.37C1535.05 507.755 1545.95 505.656 1556.94 503.476C1567.84 501.295 1578.67 499.115 1589.41 496.935C1594.82 495.966 1600.23 494.916 1605.64 493.947C1611.14 492.817 1616.55 491.605 1621.88 490.313C1643.2 485.065 1663.8 478.766 1683.83 472.307C1693.84 469.077 1703.78 465.685 1713.55 462.213C1723.24 458.741 1732.77 455.269 1742.22 451.877C1752.64 448.324 1820.08 414.006 1827.92 408.354C1808.7 411.745 1757.65 432.982 1738.1 439.361C1728.49 442.672 1718.88 445.982 1709.11 449.374C1699.42 452.685 1689.56 455.915 1679.63 459.064C1659.68 465.281 1639.32 471.338 1618.48 476.344C1613.32 477.555 1608.07 478.766 1602.82 479.816C1597.48 480.785 1592.07 481.754 1586.66 482.723C1575.84 484.903 1565.02 487.084 1554.03 489.264C1543.13 491.444 1532.39 493.463 1521.72 495.078C1516.39 495.885 1511.14 496.531 1506.05 496.773C1500.64 496.935 1495.23 497.177 1489.9 497.339C1468.26 497.985 1446.69 498.55 1425.37 500.972C1414.71 502.184 1404.21 503.879 1393.87 506.221C1383.53 508.643 1373.43 511.712 1363.66 515.426C1358.81 517.364 1354.05 519.383 1349.36 521.644C1344.68 523.663 1339.91 526.489 1335.63 529.154C1326.99 534.645 1319.16 540.539 1311.32 545.949C1303.49 551.36 1295.73 556.527 1287.9 560.161C1279.98 563.472 1270.94 566.056 1262.46 568.155C1245.09 572.193 1227.64 573.808 1210.68 574.777C1176.68 576.472 1144.21 576.23 1115.05 582.125C1085.65 587.616 1061.34 599.647 1041.07 610.952C1040.5 611.275 1039.94 611.598 1039.37 612.002C1034.53 612.325 1029.44 612.89 1024.11 613.617C1001.73 616.604 975.646 622.903 947.458 632.189C919.27 641.475 889.143 653.587 857.966 667.153C826.79 680.719 797.551 694.285 770.575 705.428C767.182 706.801 763.871 708.093 760.559 709.466C757.328 710.677 753.855 712.13 751.029 713.018C744.809 714.876 738.106 716.248 731.806 717.621C722.759 719.398 714.198 721.093 706.04 722.708C705.394 722.708 704.829 722.708 704.183 722.708C693.36 722.951 681.083 722.305 667.191 722.062C660.244 722.062 652.733 722.224 644.898 723.677C640.052 724.646 635.287 725.777 630.36 726.988C626.806 726.827 624.141 728.522 621.879 729.168C614.045 731.268 605.968 733.367 597.649 735.547C589.41 737.647 580.687 740.069 572.449 741.604C563.887 742.976 555.003 743.542 545.634 743.542C536.103 743.542 526.411 743.622 516.557 743.703C496.688 743.945 476.172 744.833 455.253 745.964C434.334 747.094 413.98 748.306 394.273 749.113C384.581 749.517 374.485 749.921 365.6 750.001C356.715 749.84 347.346 748.467 337.573 748.548C332.727 748.548 327.639 749.113 322.712 750.567C317.946 752.02 313.989 753.635 309.87 755.331C301.712 758.722 294.12 762.275 286.77 765.99C279.42 769.623 272.554 773.742 266.174 777.294C259.712 780.928 253.331 784.077 247.193 787.065C235.966 792.475 225.547 796.674 216.016 800.066C214.32 800.389 173.128 808.948 160.851 811.451C160.205 811.613 159.559 811.693 158.993 811.855C158.993 811.855 159.155 811.855 159.236 811.855C158.186 812.097 157.54 812.178 157.459 812.178C154.067 812.905 151.159 813.631 149.22 814.277C139.932 817.507 129.674 822.11 118.528 827.036C107.382 831.881 95.1862 837.21 81.617 840.763C78.2247 841.57 74.8324 842.62 71.2786 843.185C67.644 843.912 63.9287 844.558 60.2133 845.285C52.5403 846.819 44.7865 848.596 36.7096 850.857C32.6712 851.987 28.6327 853.279 24.5135 854.813C22.4135 855.54 20.3943 856.428 18.2136 857.478C16.0328 858.689 13.9328 859.577 11.2674 862C6.74439 866.36 4.72517 871.69 3.75594 877.019C2.86749 882.349 3.10979 887.516 4.15979 892.604C6.17901 902.455 10.9444 911.741 17.4059 919.493C23.8674 927.326 31.8635 933.705 40.8288 938.55C58.8402 948.32 78.3055 951.227 96.2362 952.519C114.248 953.65 131.532 953.246 147.847 952.115C180.559 949.774 209.716 944.444 233.462 937.338C244.77 934.109 254.785 930.313 263.508 926.357C266.658 926.68 269.889 926.922 273.281 926.922C286.85 927.245 301.47 925.953 316.654 923.692C347.023 919.009 373.515 911.095 392.415 904.474C397.181 902.778 401.3 901.244 405.177 899.79C406.307 899.306 407.438 898.821 408.488 898.256C416.807 901.648 426.015 904.716 435.788 907.784C438.534 908.673 441.361 909.48 444.188 910.288C457.192 914.083 471.245 917.797 486.107 920.866C507.753 925.468 528.349 928.375 546.603 930.152C548.218 930.798 549.995 931.363 551.853 931.767C556.053 932.574 560.091 932.251 563.564 931.605C569.38 932.009 574.953 932.332 579.96 932.574C580.687 932.574 581.414 932.574 582.141 932.574C586.503 937.984 592.076 943.475 598.618 948.643C607.018 955.345 616.629 961.482 627.129 967.538C636.821 973.11 647.483 977.551 657.902 979.166C654.106 983.769 649.987 988.533 645.383 993.459C636.66 1002.99 626.564 1013.08 616.064 1024.14C610.814 1029.72 605.726 1035.21 600.96 1040.94C599.749 1042.39 598.618 1043.85 597.487 1045.3C596.356 1046.67 595.064 1048.61 594.256 1049.9C592.399 1052.81 590.541 1055.72 588.764 1058.46C587.31 1060.88 585.856 1063.15 584.483 1065.49C567.28 1076.06 550.803 1086.24 535.376 1095.69C527.299 1100.69 519.464 1105.54 511.953 1110.22C504.441 1114.82 496.93 1119.67 490.549 1125C480.534 1133.32 475.122 1137.51 470.519 1147.77C470.519 1146.88 450.811 1187.18 490.711 1220.36C494.965 1224.29 502.072 1229.06 512.034 1234.66C517.122 1237.56 522.695 1239.98 528.511 1242.08C524.957 1261.63 521.322 1284.88 518.414 1311.45C516.314 1333.09 513.891 1357.15 516.395 1383.23C518.818 1409.15 524.634 1435.88 529.722 1464.14C535.053 1492.32 540.707 1521.96 546.522 1552.64C547.249 1556.44 547.976 1560.31 548.784 1564.19L549.914 1570C550.318 1572.02 550.722 1574.45 552.014 1577.27C553.226 1580.1 555.972 1583.25 558.637 1584.7C561.303 1586.32 563.726 1587.12 565.906 1587.69C570.349 1588.98 574.872 1589.71 579.476 1589.95C597.972 1590.68 615.822 1583.17 629.391 1571.05C635.287 1565.81 640.052 1559.83 643.929 1553.45C651.844 1557.81 671.148 1564.59 681.002 1564.92C691.744 1565.48 704.344 1561.36 715.086 1552.89C725.829 1544.41 734.713 1531.81 740.206 1516.79C745.779 1501.77 747.717 1484.81 748.282 1467.53C748.605 1458.89 748.444 1449.93 748.605 1441.29C748.767 1432.57 749.817 1425.06 753.775 1417.87C757.49 1410.53 763.305 1403.58 769.282 1395.99C775.421 1388.48 781.398 1379.6 785.84 1370.23C794.967 1351.42 799.005 1330.91 798.278 1311.29L798.117 1307.65V1306.84V1306.68V1306.44C797.955 1305.96 798.117 1305.96 798.197 1305.88H798.278L799.086 1305.39L800.701 1304.58C801.751 1304.1 802.801 1303.37 803.851 1302.81C805.87 1301.52 808.051 1300.47 809.909 1299.09C817.824 1293.92 824.77 1287.79 830.99 1281.49C843.428 1268.81 852.797 1254.92 860.793 1241.76C868.709 1228.52 875.17 1215.92 880.985 1204.29C881.47 1203.32 881.874 1202.36 882.359 1201.31C884.055 1200.34 885.832 1199.53 887.528 1199.53C889.224 1199.61 891.001 1200.26 891.889 1201.79C893.989 1204.86 893.908 1210.35 892.858 1215.28C892.616 1216.57 892.212 1217.78 891.808 1219.07C891.324 1220.44 890.839 1221.82 890.355 1223.27C889.385 1226.1 888.416 1229 887.366 1231.99C883.328 1243.86 878.885 1256.86 874.201 1270.83C869.597 1284.96 864.347 1299.5 859.663 1315.97C857.401 1324.21 855.705 1333.17 855.22 1342.29C854.655 1351.42 855.059 1360.54 855.543 1369.59C856.513 1387.59 857.643 1406.41 860.309 1425.71C862.974 1445.01 867.174 1463.9 873.959 1481.34C877.27 1490.14 881.47 1498.38 886.074 1506.21C888.497 1510.09 890.678 1513.88 893.747 1517.6C896.735 1521.31 900.531 1525.03 905.539 1527.29C910.628 1529.71 916.12 1529.87 920.481 1529.55C924.924 1529.23 928.72 1528.66 932.758 1528.1C940.754 1526.97 948.75 1525.27 956.181 1522.04C963.612 1518.97 970.396 1513.8 974.677 1507.18C978.958 1500.56 980.573 1493.37 981.219 1486.83C981.866 1480.21 981.543 1474.16 981.219 1468.42C980.896 1462.69 980.331 1457.36 979.685 1452.35C979.443 1450.25 979.12 1448.32 978.796 1446.38C979.927 1441.61 977.908 1415.94 971.689 1396.88C971.123 1395.02 984.531 1349 983.239 1339.79C982.835 1336.88 983.239 1338.74 983.319 1339.79C990.589 1337.29 991.719 1333.33 997.939 1327.52C1006.02 1320.01 1011.18 1310.96 1014.58 1302.65C1015.38 1300.63 1016.76 1297.88 1018.29 1294.73L1018.62 1294.49C1018.62 1294.49 1018.53 1294.33 1018.45 1294.33C1023.38 1284.48 1030.57 1271.23 1031.38 1266.39C1031.46 1265.66 1031.38 1265.1 1031.38 1264.61C1035.74 1264.86 1046.64 1267.6 1054.07 1267.12C1061.75 1266.55 1071.03 1266.71 1081.78 1263.81C1087.11 1262.27 1093.81 1260.66 1099.55 1257.75C1105.28 1255 1107.46 1246.69 1112.63 1241.52C1114 1240.31 1115.3 1238.93 1116.43 1237.4C1117.64 1235.95 1118.93 1234.49 1119.82 1232.8L1121.35 1230.29L1122.16 1229L1122.48 1228.28L1123.13 1226.98L1123.45 1226.34L1123.61 1226.02H1123.94L1125.07 1226.26C1125.47 1226.26 1125.63 1226.34 1126.85 1226.5C1128.78 1226.74 1130.8 1226.98 1132.74 1227.06C1136.78 1227.23 1140.82 1227.55 1145.02 1227.39C1161.74 1227.23 1179.59 1223.92 1197.11 1217.54C1214.8 1211.4 1232.01 1201.63 1249.21 1193.55C1266.66 1185.48 1286.36 1179.1 1305.51 1168.28C1324.97 1157.14 1339.59 1141.31 1353 1127.02C1359.7 1119.83 1366.24 1112.81 1372.87 1106.43C1379.57 1100.13 1386.6 1094.23 1393.54 1088.66C1407.6 1077.44 1421.57 1067.18 1433.85 1056.28C1446.21 1045.38 1456.62 1034.16 1465.19 1023.09C1472.21 1013.97 1474.15 1014.37 1478.35 1005.73C1483.84 1004.93 1495.88 1000.65 1502.1 999.838C1518.49 997.658 1534.65 989.664 1555.4 988.937C1576.16 988.291 1598.86 988.695 1622.93 992.086C1634.96 993.62 1647.24 996.204 1659.84 999.03C1672.44 1002.1 1684.96 1005.89 1698.37 1010.01C1724.94 1017.93 1752.96 1025.68 1782.28 1033.11C1796.98 1036.74 1811.85 1040.37 1827.43 1043.36C1843.1 1046.35 1859.1 1047.8 1875.09 1049.01C1891.08 1050.14 1906.59 1051.36 1922.34 1052.24C1930.17 1052.81 1937.93 1052.89 1945.6 1053.13C1953.27 1053.37 1960.94 1053.54 1968.46 1053.54C1977.5 1053.62 1986.39 1053.54 1995.19 1053.46C1975.97 1049.5 1891.97 1035.69 1876.14 1034.56C1860.31 1033.35 1844.88 1031.98 1829.94 1029.23C1814.91 1026.49 1800.05 1023.01 1785.51 1019.62C1756.36 1012.68 1728.25 1005.49 1701.68 998.304C1688.59 994.589 1675.18 990.956 1662.18 988.21C1649.18 985.626 1636.42 983.446 1623.98 982.315C1599.18 979.651 1575.92 980.216 1554.92 981.75C1533.92 983.446 1515.1 986.353 1498.7 989.341C1493.54 990.31 1488.61 991.279 1483.92 992.167C1484.09 991.763 1484.33 991.279 1484.57 990.794C1485.7 988.049 1486.67 985.303 1487.56 982.719L1488.04 983.85C1515.99 971.98 1545.71 966.893 1574.63 965.924C1603.62 964.955 1631.89 968.023 1659.03 972.787C1713.31 982.477 1763.3 997.739 1811.36 1006.38C1838.18 1011.14 1864.1 1013.97 1888.98 1015.75C1886.31 1014.13 1833.49 1005.57 1808.61 1000.73C1761.28 991.521 1711.77 976.017 1657.58 966.166C1630.52 961.321 1602.17 958.252 1572.93 959.141C1545.31 959.948 1516.88 964.551 1489.66 975.21C1490.63 971.011 1491.27 966.973 1491.52 963.42C1491.92 955.588 1491.27 949.612 1490.47 945.656C1489.58 941.699 1489.09 939.599 1489.09 939.599C1489.09 939.599 1489.34 941.699 1489.82 945.736C1490.22 949.693 1490.3 955.668 1489.25 963.178C1488.61 967.296 1487.4 971.899 1485.7 976.744C1485.54 976.825 1485.3 976.905 1485.14 976.986L1485.38 977.632C1484.09 981.266 1482.47 985.142 1480.45 989.018C1479.72 990.471 1478.84 992.005 1477.95 993.54C1477.22 994.832 1476.49 996.124 1475.69 997.416C1474.72 998.95 1473.67 1000.56 1472.62 1002.18L1467.53 1005.89C1467.53 1005.89 1467.12 1007.27 1465.35 1008.56C1463.25 1010.5 1461.07 1012.35 1458.97 1014.05C1454.69 1017.44 1450.49 1020.35 1446.37 1022.69C1438.13 1027.37 1430.13 1029.72 1423.51 1030.52C1416.89 1031.33 1411.56 1030.76 1408.08 1030.04C1404.61 1029.31 1402.83 1028.67 1402.83 1028.67C1402.83 1028.67 1404.53 1029.63 1408 1030.76C1411.47 1031.98 1416.89 1033.19 1423.99 1033.11C1431.02 1033.03 1439.82 1031.25 1448.95 1027.05C1450.89 1026.16 1452.83 1025.11 1454.77 1024.06C1450.24 1028.83 1445.32 1033.59 1440.07 1038.36L1439.91 1037.95C1429.49 1042.88 1420.28 1047 1411.72 1049.09C1403.24 1051.27 1395.56 1051.27 1389.51 1050.06C1383.45 1048.93 1379.09 1046.75 1376.26 1044.98C1373.51 1043.2 1372.22 1041.99 1372.22 1041.99C1372.22 1041.99 1373.27 1043.44 1375.86 1045.62C1378.44 1047.8 1382.72 1050.71 1389.1 1052.65C1395.32 1054.59 1403.64 1055.47 1412.93 1053.94C1416.56 1053.37 1420.44 1052.41 1424.32 1051.36C1419.47 1055.15 1414.38 1058.87 1409.05 1062.66C1391.12 1065.65 1375.94 1063.79 1365.76 1061.61C1360.11 1060.4 1355.91 1059.03 1353 1058.14C1350.17 1057.17 1348.64 1056.6 1348.64 1056.6C1348.64 1056.6 1350.09 1057.41 1352.84 1058.87C1355.58 1060.24 1359.78 1062.26 1365.36 1064.19C1373.43 1067.02 1384.74 1069.85 1398.55 1070.17C1394.43 1073.08 1390.31 1076.06 1386.03 1079.21C1385.87 1079.29 1385.71 1079.46 1385.55 1079.62C1367.62 1084.3 1352.03 1083.17 1341.61 1081.31C1336.04 1080.34 1331.84 1079.13 1329.01 1078.24C1326.18 1077.28 1324.73 1076.79 1324.73 1076.79C1324.73 1076.79 1326.18 1077.52 1328.85 1078.97C1331.59 1080.26 1335.71 1082.12 1341.29 1083.9C1349.28 1086.4 1360.75 1088.82 1374.4 1088.26C1370.93 1091.08 1367.37 1093.99 1363.98 1097.06C1363.66 1097.3 1363.42 1097.62 1363.17 1097.87V1097.62C1348.07 1098.76 1335.79 1097.46 1327.39 1096.17C1318.99 1094.88 1314.47 1093.67 1314.47 1093.67C1314.47 1093.67 1318.75 1095.93 1326.99 1098.76C1333.86 1101.1 1343.71 1103.68 1355.91 1104.73C1351.54 1109.01 1347.26 1113.29 1342.98 1117.73C1342.26 1118.46 1341.53 1119.18 1340.8 1119.99C1326.02 1119.99 1314.23 1118.86 1306.23 1116.12C1301.71 1114.66 1298.4 1112.97 1296.22 1111.76C1294.12 1110.46 1292.99 1109.74 1292.99 1109.74C1292.99 1109.74 1293.96 1110.71 1295.89 1112.4C1297.91 1114.1 1300.98 1116.36 1305.51 1118.62C1312.29 1122.17 1322.47 1124.84 1334.58 1126.37C1331.92 1129.12 1329.17 1131.78 1326.34 1134.45C1309.46 1132.99 1288.79 1130.65 1280.31 1128.55C1270.69 1126.13 1265.53 1124.43 1265.53 1124.43C1265.53 1124.43 1270.37 1127.18 1279.74 1131.05C1288.46 1134.69 1301.39 1139.21 1317.7 1142.2C1311.64 1147.29 1305.34 1152.05 1298.4 1155.93C1297.99 1156.17 1297.51 1156.41 1297.03 1156.65C1290.48 1155.68 1284.51 1155.6 1279.34 1154.88C1271.58 1153.91 1265.12 1151.97 1260.03 1149.95C1254.86 1147.93 1251.07 1145.91 1248.56 1144.46C1246.06 1143.01 1244.77 1142.12 1244.77 1142.12C1244.77 1142.12 1245.9 1143.17 1248.24 1145.1C1250.58 1146.96 1254.14 1149.63 1259.23 1152.37C1264.23 1155.12 1270.78 1157.94 1278.85 1159.8C1281.6 1160.45 1284.59 1161.01 1287.58 1161.58C1280.71 1164.89 1273.68 1167.96 1266.66 1170.94C1254.38 1171.35 1244.12 1168.93 1236.85 1166.34C1231.93 1164.65 1228.29 1162.87 1225.87 1161.58C1223.44 1160.29 1222.23 1159.56 1222.23 1159.56C1222.23 1159.56 1223.36 1160.53 1225.63 1162.22C1227.89 1163.92 1231.36 1166.34 1236.13 1168.76C1241.05 1171.27 1247.59 1173.93 1255.59 1175.63C1251.63 1177.4 1247.59 1179.18 1243.72 1181.04C1241.62 1182.09 1239.52 1183.14 1237.5 1184.19C1225.71 1182.41 1215.93 1179.75 1208.66 1177.49C1203.25 1175.79 1199.13 1174.17 1196.31 1173.12C1193.56 1171.99 1192.11 1171.43 1192.11 1171.43C1192.11 1171.43 1193.48 1172.24 1196.15 1173.85C1198.81 1175.39 1202.77 1177.57 1208.02 1179.99C1214.24 1182.9 1220.46 1186.13 1228.69 1188.87C1225.06 1190.81 1221.51 1192.75 1217.95 1194.6C1217.31 1194.93 1216.74 1195.17 1216.09 1195.49C1197.28 1190.57 1182.98 1183.3 1173.45 1177.73C1168.44 1174.82 1164.81 1172.24 1162.3 1170.54C1159.8 1168.76 1158.51 1167.88 1158.51 1167.88C1158.51 1167.88 1159.64 1169.01 1161.9 1171.19C1164.16 1173.29 1167.55 1176.44 1172.24 1180.07C1180.07 1186.13 1191.62 1193.8 1207.13 1200.01C1202.53 1202.19 1197.92 1204.29 1193.4 1206.15C1192.35 1206.55 1191.38 1206.88 1190.33 1207.28C1177.49 1203.49 1167.39 1198.72 1160.28 1194.93C1151.72 1190.24 1147.28 1187.18 1147.28 1187.18C1147.28 1187.18 1151.08 1191.21 1159.07 1197.27C1164.4 1201.23 1171.75 1206.15 1181.2 1210.59C1176.6 1212.05 1172.08 1213.26 1167.55 1214.31C1157.62 1211 1149.62 1207.52 1143.81 1204.78C1136.54 1201.39 1132.66 1199.21 1132.66 1199.21C1132.66 1199.21 1135.97 1202.28 1142.6 1207.12C1146.31 1209.78 1151.16 1213.01 1157.05 1216.33C1153.01 1216.97 1149.06 1217.38 1145.1 1217.62C1143.08 1217.78 1140.98 1217.86 1138.96 1217.94C1099.3 1200.66 1072.33 1177.4 1055.61 1160.37C1047.13 1151.65 1041.15 1144.38 1037.19 1139.37C1033.32 1134.28 1031.3 1131.62 1031.3 1131.62C1031.3 1131.62 1033.15 1134.53 1036.71 1139.94C1040.42 1145.27 1046 1153.1 1054.07 1162.47C1067.96 1178.53 1089.77 1199.53 1121.27 1217.21C1120.71 1217.21 1120.14 1217.21 1119.58 1217.13H1118.45C1118.45 1217.13 1118.2 1217.7 1118.04 1218.02L1117.64 1219.07C1109.08 1216.49 1101.56 1213.5 1094.94 1210.51C1094.7 1210.35 1094.46 1210.27 1094.21 1210.11C1088.48 1207.12 1080.65 1202.03 1072 1194.77C1063.28 1187.5 1054.07 1177.65 1044.62 1166.02C1035.17 1154.31 1025.64 1140.74 1015.55 1126.37C1005.29 1111.92 994.95 1098.27 984.289 1086.72C981.139 1083.33 977.908 1080.1 974.758 1077.11C975.97 1077.84 977.262 1078.73 978.473 1079.7C981.3 1081.96 984.127 1084.14 986.793 1086.24C992.204 1090.44 997.292 1094.48 1002.06 1098.19C1011.59 1105.54 1019.83 1111.92 1026.53 1117C1040.02 1127.18 1047.37 1132.75 1047.37 1132.75C1047.37 1132.75 1040.42 1126.29 1027.9 1114.74C1021.6 1109.01 1013.93 1102.07 1004.97 1093.99C1002.22 1091.49 999.231 1088.9 996.242 1086.24C1007.07 1093.35 1019.5 1100.53 1033.32 1107.23C1082.1 1138.08 1111.66 1155.6 1111.66 1155.6C1111.66 1155.6 1095.26 1143.17 1066.92 1122.66C1068.69 1122.66 1070.39 1122.82 1072.17 1122.82C1076.2 1124.03 1080.24 1125.16 1084.28 1126.05C1098.09 1132.59 1110.05 1137.19 1119.33 1140.42C1133.95 1145.43 1142.19 1147.45 1142.19 1147.45C1142.19 1147.45 1134.03 1144.38 1119.98 1137.92C1114.97 1135.58 1109.16 1132.83 1102.78 1129.52C1108.83 1130.33 1114.81 1130.81 1120.55 1130.97C1124.99 1131.14 1129.27 1131.05 1133.47 1130.97C1137.99 1132.43 1142.03 1133.8 1145.42 1134.93C1154.23 1138.16 1159.07 1139.94 1159.07 1139.94C1159.07 1139.94 1154.63 1137.03 1146.23 1132.51C1145.02 1131.86 1143.65 1131.14 1142.19 1130.41C1151 1129.6 1159.07 1128.31 1166.18 1126.69C1178.86 1123.79 1188.71 1120.15 1195.42 1117.33C1198.73 1115.95 1201.23 1114.74 1202.93 1113.86C1204.63 1113.05 1205.51 1112.56 1205.51 1112.56C1205.51 1112.56 1204.55 1112.81 1202.69 1113.21C1200.83 1113.69 1198.16 1114.34 1194.69 1115.07C1187.75 1116.6 1177.57 1118.46 1165.05 1119.43C1154.23 1120.32 1141.55 1120.48 1127.81 1119.35C1148.81 1116.2 1166.5 1111.43 1180.31 1106.99C1193.48 1102.71 1203.41 1098.51 1210.04 1095.61C1216.58 1092.54 1220.05 1091 1220.05 1091C1220.05 1091 1216.42 1092.38 1209.55 1095.04C1202.61 1097.54 1192.43 1101.1 1178.94 1104.65C1159.88 1109.66 1134.11 1114.74 1103.18 1115.87C1092.36 1113.69 1081.13 1110.79 1069.74 1106.75C1069.5 1106.67 1069.26 1106.59 1068.93 1106.51C1083.71 1107.72 1097.61 1108.2 1110.61 1107.72C1135.73 1106.99 1157.13 1102.79 1173.77 1097.54C1190.49 1092.3 1202.61 1086.08 1210.44 1081.47C1214.32 1079.13 1217.31 1077.28 1219.16 1075.9C1221.1 1074.61 1222.07 1073.88 1222.07 1073.88C1222.07 1073.88 1221.02 1074.53 1219 1075.74C1216.98 1077.03 1213.91 1078.73 1209.79 1080.91C1201.56 1085.19 1189.12 1090.84 1172.24 1095.2C1155.36 1099.64 1134.2 1102.79 1109.56 1102.55C1089.29 1102.55 1066.75 1100.13 1042.36 1096.17C1036.14 1093.59 1030.17 1091 1024.43 1088.42M997.05 1073.4V1075.1C995.758 1074.37 994.385 1073.64 993.092 1073C994.466 1073.16 995.677 1073.24 997.05 1073.4ZM214.159 801.761C209.959 803.215 206.001 804.426 202.205 805.557C201.882 805.557 200.67 805.799 198.974 806.041C204.547 804.507 210.605 802.811 214.159 801.842V801.761ZM197.924 806.283C200.024 805.96 201.72 805.637 202.124 805.557C196.713 807.172 191.705 808.383 187.263 809.352C183.951 810.078 190.251 808.383 197.843 806.283H197.924ZM29.4404 860.789C32.9942 859.254 76.8517 848.919 80.4055 847.788C94.54 843.185 111.663 840.036 122.486 834.303C125.555 832.688 128.463 831.073 131.29 829.539C130.967 830.266 130.321 831.8 129.513 834.061C128.221 837.372 127.009 842.459 121.84 844.72C120.628 845.366 119.174 846.012 117.64 846.496C116.186 846.9 114.732 847.304 112.875 847.707C109.401 848.515 105.525 849.242 101.486 849.968C93.4093 851.503 84.5247 853.279 75.2363 855.378C57.3056 859.335 41.2326 863.857 29.3596 867.491C29.6019 867.41 30.1673 867.168 29.925 867.249C23.7866 867.491 19.1828 865.149 29.3596 860.708L29.4404 860.789ZM708.383 974.16C709.513 973.756 710.483 973.433 711.29 973.191C714.279 976.905 717.429 980.701 720.659 984.657C717.913 986.272 715.167 987.887 712.34 989.583C707.575 984.011 703.294 979.812 699.983 976.905C699.902 976.825 699.821 976.744 699.66 976.663C703.133 975.775 706.04 974.887 708.383 974.16ZM690.129 978.843C692.633 978.359 694.975 977.794 697.156 977.309C697.479 977.794 697.721 978.197 698.125 978.763C700.467 982.315 703.456 987.08 706.767 992.894C704.102 994.428 701.517 996.043 698.852 997.577C693.844 989.744 688.837 983.85 684.879 979.732C686.737 979.489 688.513 979.166 690.21 978.843H690.129ZM669.452 980.862C670.583 980.862 671.714 980.862 672.844 980.862C673.006 981.104 673.248 981.346 673.41 981.669L674.46 980.862C677.044 980.781 679.467 980.539 681.81 980.216C681.971 980.458 682.052 980.62 682.214 980.862C685.283 985.707 689.16 992.571 693.036 1001.05C690.937 1002.26 688.917 1003.47 686.817 1004.68C679.467 995.155 673.329 987.564 668.725 982.073C668.967 981.669 669.21 981.266 669.452 980.862ZM667.11 984.899C670.502 990.956 675.025 998.95 680.598 1008.32C678.983 1009.29 677.287 1010.25 675.671 1011.14C675.025 1011.55 674.298 1011.87 673.652 1012.19C668.967 1004.44 664.364 998.707 660.81 994.67C663.071 991.359 665.171 988.049 667.029 984.899H667.11ZM655.641 1002.02C656.852 1000.4 657.902 998.869 659.033 997.335C661.456 1001.94 664.364 1008.07 667.352 1015.5C665.252 1016.55 663.071 1017.6 660.971 1018.49C657.175 1013.32 654.106 1009.37 652.006 1006.7C653.218 1005.17 654.51 1003.55 655.641 1002.02ZM650.714 1008.4C651.844 1011.55 653.46 1015.83 655.56 1021.07C652.894 1022.53 650.471 1023.98 648.129 1025.52C645.706 1022.77 643.606 1020.59 641.91 1018.89C644.979 1015.34 647.887 1011.87 650.633 1008.4H650.714ZM640.214 1020.91C641.021 1023.01 642.152 1025.6 643.525 1028.58C639.729 1031.09 636.014 1033.59 632.379 1036.17C631.087 1035.04 629.956 1033.99 628.987 1033.27C632.864 1029.15 636.66 1025.03 640.214 1020.91ZM626.806 1035.53C627.048 1036.58 627.372 1037.87 627.856 1039.24C623.737 1042.07 619.698 1044.9 615.741 1047.56C615.499 1047.72 615.175 1047.88 614.933 1048.04C618.81 1043.93 622.768 1039.81 626.806 1035.53ZM971.446 1071.54L970.962 1074.13C969.912 1073.16 968.781 1072.11 967.731 1071.22C968.943 1071.3 970.235 1071.46 971.446 1071.54ZM694.49 1220.04C696.913 1218.42 699.256 1216.73 701.598 1215.03C699.256 1217.86 696.833 1220.77 694.329 1223.59C693.602 1222.95 692.794 1222.22 692.067 1221.57C692.875 1221.09 693.683 1220.61 694.49 1220.04ZM686.01 1225.29C687.383 1226.34 688.837 1227.31 690.129 1228.28C687.544 1231.1 684.879 1234.01 682.052 1236.92C680.114 1234.82 678.175 1232.72 676.237 1230.46C679.548 1228.84 682.779 1227.15 686.01 1225.29ZM669.533 1233.52C672.36 1236.27 675.106 1238.85 677.771 1241.36C675.752 1243.38 673.652 1245.56 671.633 1247.9C668.564 1244.43 665.171 1240.71 661.456 1236.84C664.121 1235.87 666.867 1234.66 669.533 1233.52ZM654.106 1239.34C659.275 1243.94 664.041 1248.22 668.321 1252.18C667.756 1253.07 667.11 1253.95 666.544 1254.92C666.141 1255.57 666.302 1255.17 666.544 1254.92C665.898 1253.23 663.394 1254.68 662.021 1252.34C659.679 1248.38 656.044 1244.18 651.602 1240.31C652.491 1240.07 653.298 1239.66 654.187 1239.42L654.106 1239.34ZM656.691 1257.35C659.679 1259.12 661.941 1260.9 663.394 1262.35C663.394 1262.35 663.475 1262.51 663.556 1262.59C663.071 1264.37 662.748 1266.15 662.506 1267.92C655.156 1259.85 648.21 1254.36 643.121 1250.72C641.91 1249.84 640.779 1249.11 639.729 1248.46C646.352 1251.85 652.329 1254.76 656.691 1257.43V1257.35ZM613.479 1463.82C621.475 1472.38 632.864 1484.65 646.433 1499.91C646.11 1505.08 645.302 1510.17 644.333 1515.26C614.529 1488.29 596.437 1473.19 596.437 1473.19C596.437 1473.19 613.722 1492.97 642.637 1523.33C640.941 1529.39 638.679 1535.36 635.852 1540.94C613.883 1518.57 600.395 1506.13 600.395 1506.13C600.395 1506.13 612.187 1522.28 632.298 1547.23C630.279 1550.38 628.098 1553.37 625.595 1556.12C618.002 1548.44 611.299 1542.55 606.291 1538.51C600.152 1533.51 596.518 1531 596.518 1531C596.518 1531 599.426 1534.39 604.595 1540.53C608.795 1545.54 614.368 1552.48 620.829 1560.88C620.749 1560.96 620.668 1561.04 620.587 1561.12C617.599 1563.79 614.368 1566.13 610.976 1568.23C597.083 1555.15 588.36 1548.04 588.36 1548.04C588.36 1548.04 594.418 1557.17 605.241 1571.3C601.606 1572.99 597.81 1574.28 594.014 1575.17C590.46 1572.67 587.229 1570.81 584.645 1569.52C579.88 1567.18 570.026 1560.4 570.026 1560.4C570.026 1560.4 579.395 1568.23 583.272 1571.7C584.645 1572.91 586.179 1574.53 587.795 1576.22C585.533 1576.46 583.272 1576.63 581.01 1576.55C577.537 1576.38 574.145 1575.9 570.833 1574.93C569.137 1574.53 567.764 1573.96 567.037 1573.48C566.23 1572.91 566.23 1572.99 565.826 1572.18C565.099 1570.73 564.291 1565.97 563.483 1562.25C562.676 1558.38 561.868 1554.58 561.141 1550.71C554.76 1520.1 548.541 1490.63 542.726 1462.53C536.911 1434.35 530.368 1407.86 527.218 1382.99C523.988 1358.2 528.026 1350.45 529.561 1328.89C530.126 1320.49 531.257 1311.04 532.63 1301.43C538.93 1310.96 542.887 1316.29 542.887 1316.29C542.887 1316.29 539.98 1306.84 534.003 1291.91C534.891 1286.01 535.861 1280.2 536.749 1274.55C541.434 1280.2 545.634 1284.8 548.945 1288.03C553.71 1292.88 556.537 1295.22 556.537 1295.22C556.537 1295.22 554.518 1291.99 550.884 1286.25C547.734 1281.17 543.291 1273.9 538.284 1265.1C538.849 1261.46 539.414 1258.07 539.899 1254.92C548.38 1265.66 555.891 1274.14 561.707 1280.36C569.703 1288.92 574.387 1293.2 574.387 1293.2C574.387 1293.2 570.51 1287.95 563.564 1278.42C557.991 1270.67 550.48 1259.93 541.999 1246.61C544.745 1247.49 546.926 1248.06 549.026 1248.54L548.784 1248.79C565.826 1262.19 579.153 1273.41 588.279 1281.09C597.406 1288.84 602.414 1293.12 602.414 1293.12C602.414 1293.12 598.133 1287.95 589.895 1278.99C583.029 1271.56 573.418 1261.54 561.303 1250C562.757 1250.08 564.291 1250.24 566.068 1250.32C569.703 1250.64 573.337 1250.72 577.053 1250.81C588.603 1258.56 596.76 1266.55 602.091 1272.28C607.422 1278.1 610.087 1281.57 610.087 1281.57C610.087 1281.57 608.391 1277.45 604.029 1270.51C600.637 1265.1 595.549 1258.07 588.037 1250.64C591.429 1250.48 594.902 1250.32 598.376 1250C608.956 1256.54 616.629 1263.56 621.879 1268.89C625.029 1272.2 627.372 1274.95 628.906 1276.81C630.441 1278.66 631.248 1279.71 631.248 1279.71C631.248 1279.71 630.683 1278.58 629.472 1276.32C628.26 1274.14 626.483 1270.99 623.737 1267.12C620.183 1262.03 614.933 1255.57 607.664 1249.03C614.691 1248.14 621.799 1247.01 628.906 1245.64C630.36 1245.31 631.814 1244.99 633.348 1244.67C633.752 1244.91 634.075 1245.07 634.398 1245.23C635.691 1246.44 638.033 1248.79 641.425 1252.42C646.029 1257.35 655.318 1271.56 662.021 1282.14C662.021 1283.91 662.021 1285.77 662.102 1287.55C651.198 1278.34 641.91 1271.15 634.964 1265.99C625.675 1259.04 620.425 1255.57 620.425 1255.57C620.425 1255.57 625.11 1260.09 633.429 1268.17C640.537 1275.11 650.391 1284.72 662.021 1296.59C661.941 1300.95 661.698 1305.39 661.294 1309.91C661.133 1311.69 660.891 1313.47 660.729 1315.24C650.31 1304.91 641.021 1297.32 633.914 1291.99C624.464 1284.88 618.972 1281.49 618.972 1281.49C618.972 1281.49 623.979 1285.85 632.46 1294.17C639.568 1301.19 649.098 1311.04 659.598 1323.88C658.791 1329.29 657.66 1334.78 656.367 1340.27C642.798 1326.79 631.168 1316.29 622.687 1308.86C612.51 1299.98 606.695 1295.46 606.695 1295.46C606.695 1295.46 611.864 1301.03 621.072 1310.96C629.31 1319.93 640.779 1332.6 654.268 1348.27C652.733 1353.68 650.956 1359.17 648.937 1364.58C622.768 1341.73 606.614 1328.89 606.614 1328.89C606.614 1328.89 621.314 1345.77 646.191 1371.69C644.414 1376.05 642.475 1380.41 640.375 1384.69C616.145 1361.51 601.122 1348.51 601.122 1348.51C601.122 1348.51 614.529 1365.47 637.387 1391.63C636.902 1393 636.418 1394.38 636.095 1395.83C633.914 1392.52 630.441 1389.29 626.241 1387.43C622.122 1385.66 618.164 1385.09 614.61 1385.25C590.864 1364.74 576.972 1353.36 576.972 1353.36C576.972 1353.36 588.441 1365.55 608.552 1385.98C603.949 1386.71 594.579 1385.25 594.579 1385.25C594.579 1385.25 612.833 1392.92 617.518 1395.02C623.333 1400.92 629.714 1407.3 636.66 1414.16C637.71 1420.46 638.76 1426.6 639.891 1432.89C639.891 1433.22 639.971 1433.54 640.052 1433.86C623.172 1416.91 608.229 1404.39 597.245 1395.67C584.079 1385.33 576.568 1380.25 576.568 1380.25C576.568 1380.25 583.676 1386.38 595.872 1397.93C607.583 1409.07 623.979 1425.38 642.314 1446.78C643.202 1452.03 643.929 1457.28 644.656 1462.61C630.198 1447.67 617.275 1436.69 607.664 1429.1C595.872 1419.81 589.006 1415.37 589.006 1415.37C589.006 1415.37 595.387 1420.86 606.21 1431.36C616.387 1441.21 630.522 1455.66 645.868 1474.72C645.948 1475.77 646.11 1476.74 646.11 1477.79C646.352 1481.83 646.514 1485.86 646.514 1489.9C633.672 1477.71 622.768 1468.26 614.852 1461.56C605.483 1453.73 600.152 1449.69 600.152 1449.69C600.152 1449.69 604.837 1454.7 613.237 1463.66L613.479 1463.82ZM973.304 1348.35C971.285 1346.41 969.427 1344.72 967.812 1343.18C969.023 1343.02 970.316 1342.86 971.527 1342.62C972.739 1342.37 974.031 1341.97 975.243 1341.57C974.677 1343.34 974.031 1345.68 973.304 1348.35ZM971.123 1356.99C970.719 1358.6 970.316 1360.3 969.993 1362.08C961.996 1353.68 955.454 1347.06 950.689 1342.37C950.931 1342.37 951.174 1342.54 951.416 1342.54L951.981 1342.05C955.212 1342.94 958.927 1343.42 962.723 1343.42C964.42 1346.17 966.6 1349.56 969.346 1353.6C969.669 1354.65 970.235 1355.78 971.043 1356.99H971.123ZM1114.97 1227.39L1113.84 1229.57C1113.2 1231.1 1112.15 1232.31 1111.18 1233.69C1111.01 1233.93 1110.77 1234.17 1110.61 1234.41C1091.55 1225.85 1077.42 1216.16 1067.88 1208.9C1062.72 1204.94 1058.92 1201.63 1056.33 1199.45C1053.83 1197.19 1052.46 1195.98 1052.46 1195.98C1052.46 1195.98 1053.67 1197.35 1055.85 1200.01C1058.11 1202.6 1061.58 1206.47 1066.35 1211.08C1074.83 1219.31 1087.75 1230.13 1105.6 1239.98C1103.91 1241.68 1102.13 1243.21 1100.19 1244.67C1080.65 1237.4 1067.08 1226.5 1058.76 1218.42C1054.48 1214.31 1051.49 1210.75 1049.47 1208.33C1047.53 1205.91 1046.48 1204.62 1046.48 1204.62C1046.48 1204.62 1047.29 1206.07 1048.9 1208.9C1050.6 1211.64 1053.18 1215.6 1056.98 1220.44C1063.93 1229.08 1075.48 1240.55 1092.84 1249.51C1089.93 1251.21 1087.03 1252.66 1084.04 1253.87L1084.28 1253.55C1062.8 1240.71 1048.34 1226.1 1039.29 1215.6C1034.77 1210.27 1031.54 1205.91 1029.36 1202.92C1027.26 1199.93 1026.13 1198.32 1026.13 1198.32C1026.13 1198.32 1027.02 1200.09 1028.79 1203.41C1030.57 1206.72 1033.32 1211.48 1037.35 1217.38C1044.87 1228.28 1057.14 1243.13 1075.88 1256.86C1072.57 1257.59 1067.88 1258.07 1062.63 1258.31C1052.78 1250.16 1043.98 1242.73 1036.63 1235.71C1028.63 1228.03 1022.33 1220.85 1017.73 1214.71C1013.12 1208.49 1010.05 1203.24 1008.12 1199.69C1006.26 1196.06 1005.37 1194.12 1005.37 1194.12C1005.37 1194.12 1006.1 1196.22 1007.55 1200.09C1009.08 1203.97 1011.67 1209.62 1015.79 1216.41C1019.99 1223.19 1025.72 1231.1 1033.32 1239.5C1038.73 1245.56 1045.03 1251.85 1051.97 1258.4C1046.8 1258.31 1041.55 1257.99 1036.79 1257.51C1017.65 1239.82 1003.67 1224.24 994.223 1213.26C984.693 1202.11 979.846 1195.73 979.846 1195.73C979.846 1195.73 983.966 1202.92 992.366 1215.11C999.473 1225.37 1009.89 1239.34 1024.03 1254.84C1020.63 1253.31 1017.24 1251.53 1014.01 1249.76C999.635 1233.52 984.127 1215.19 975.808 1206.88C971.204 1202.44 967.004 1199.77 963.854 1198.56C960.785 1197.35 959.008 1197.19 959.008 1197.19C959.008 1197.19 960.785 1197.59 963.612 1199.29C966.52 1200.9 970.154 1204.05 974.112 1208.9C979.927 1216.41 987.439 1226.66 996.727 1238.85C995.435 1237.97 994.708 1237.4 994.708 1237.4C994.708 1237.4 999.069 1249.43 1009.17 1257.59C1013.12 1260.74 1017.4 1262.92 1021.28 1264.37C1021.2 1264.61 1021.12 1264.77 1020.96 1264.94C1020.07 1266.79 1018.94 1269.14 1017.65 1271.88C1006.5 1258.64 996.808 1248.54 989.7 1241.52C981.543 1233.52 976.939 1229.41 976.939 1229.41C976.939 1229.41 980.896 1234.41 987.923 1243.46C994.466 1251.94 1003.59 1264.05 1014.17 1279.15C1013.28 1280.92 1012.32 1282.86 1011.35 1284.8C1001.01 1271.07 991.719 1260.49 984.773 1253.07C976.05 1243.7 970.962 1239.02 970.962 1239.02C970.962 1239.02 975.404 1244.67 982.916 1255C989.377 1263.89 998.019 1276.24 1007.79 1291.66C1006.42 1294.09 1005.05 1296.59 1003.43 1299.09C991.477 1282.54 980.735 1270.1 972.981 1261.71C964.743 1252.82 959.896 1248.3 959.896 1248.3C959.896 1248.3 964.016 1253.71 971.123 1263.56C978.15 1273.33 988.004 1287.63 998.908 1305.71C997.373 1307.81 995.839 1309.83 994.142 1311.77C982.835 1294.01 972.012 1280.84 963.935 1271.88C954.889 1261.87 949.477 1256.94 949.477 1256.94C949.477 1256.94 954.243 1262.84 962.158 1273.82C969.346 1283.91 979.119 1298.53 989.054 1317.26C988.893 1317.42 988.731 1317.58 988.569 1317.75C987.439 1318.8 986.308 1319.68 985.177 1320.65C960.22 1290.05 944.631 1272.45 944.631 1272.45C944.631 1272.45 957.554 1292.71 979.685 1324.69C976.696 1326.71 973.627 1328.32 970.639 1329.62C953.677 1306.52 943.016 1293.44 943.016 1293.44C943.016 1293.44 949.639 1306.93 964.258 1331.88C960.462 1332.93 956.747 1333.41 953.273 1333.41C946.085 1325.58 940.674 1318.63 936.958 1313.63C932.597 1307.65 930.335 1304.26 930.335 1304.26C930.335 1304.26 931.627 1308.22 934.777 1315.08C936.958 1319.68 940.108 1325.74 944.308 1332.44C930.739 1329.54 920.158 1319.36 916.604 1315.24C912.647 1310.72 910.789 1307.89 910.789 1307.89C910.789 1307.89 911.678 1311.29 914.505 1316.86C918.624 1324.37 923.308 1329.45 927.993 1333.09C927.589 1333.25 927.347 1333.33 927.347 1333.33C927.347 1333.33 927.751 1333.33 928.397 1333.33C935.424 1338.66 942.37 1340.44 947.135 1341.49C951.416 1347.78 958.604 1357.96 968.054 1370.72C967.57 1373.3 967.166 1376.05 966.762 1378.79C953.273 1362 941.32 1349.32 932.516 1340.52C922.339 1330.34 916.443 1325.17 916.443 1325.17C916.443 1325.17 921.774 1331.31 930.82 1342.54C939.624 1353.44 951.82 1369.18 965.55 1389.21C965.55 1389.69 965.47 1390.26 965.389 1390.82L965.146 1393.25V1394.46C964.985 1394.94 965.146 1394.62 965.146 1394.78C965.308 1394.94 965.55 1395.51 965.712 1396.39C965.631 1396.64 965.308 1396.8 964.823 1396.88C964.581 1396.88 964.258 1396.96 963.773 1396.88C963.047 1396.72 962.32 1396.56 961.673 1396.39C934.454 1363.21 913.131 1339.14 913.131 1339.14C913.131 1339.14 925.57 1358.69 947.054 1389.45C943.824 1388.4 940.593 1387.59 937.524 1387.03C936.393 1386.79 935.262 1386.71 934.131 1386.54L934.939 1386.38C925.247 1375.72 918.139 1366.44 913.374 1359.98C908.608 1353.52 906.185 1349.8 906.185 1349.8C906.185 1349.8 907.72 1354.08 911.274 1361.51C914.585 1368.46 917.977 1375.48 925.489 1386.06C922.42 1386.06 919.512 1386.38 916.766 1386.79C906.428 1375.24 899.32 1368.94 899.32 1368.94C899.32 1368.94 904.085 1376.61 908.124 1388.64C908.124 1388.64 908.043 1388.64 907.962 1388.64C900.128 1390.98 894.797 1394.21 891.324 1396.56C888.012 1399.06 886.397 1400.51 886.397 1400.51C886.397 1400.51 888.255 1399.22 891.889 1397.12C895.605 1395.18 901.258 1392.52 909.012 1391.07C915.716 1389.85 924.035 1389.37 933 1391.07C933 1391.07 935.1 1391.71 937.927 1392.52C937.524 1392.28 937.201 1392.12 936.958 1392.03C938.17 1392.36 939.462 1392.76 940.754 1393.33C939.785 1393.08 938.816 1392.84 937.927 1392.6C942.047 1394.94 955.05 1402.61 957.877 1404.31C958.604 1404.79 959.412 1405.28 960.22 1405.76C960.866 1406.17 961.673 1406.57 962.562 1407.05C965.873 1409.8 968.862 1412.71 971.366 1415.53C971.689 1417.31 972.093 1419.41 972.496 1421.75C970.477 1420.62 968.539 1419.57 966.923 1418.68C961.916 1416.1 959.089 1414.64 959.089 1414.64C959.089 1414.64 960.946 1417.15 964.823 1421.18C966.762 1423.2 969.104 1425.63 971.77 1428.53C972.416 1429.26 973.143 1430.07 973.87 1430.87C974.354 1434.27 974.758 1437.9 975.162 1441.94C972.012 1440 969.185 1438.47 966.843 1437.17C961.835 1434.59 959.008 1433.14 959.008 1433.14C959.008 1433.14 960.946 1435.56 964.743 1439.68C966.6 1441.7 968.943 1444.2 971.608 1447.11C972.9 1448.56 974.435 1450.25 975.889 1452.03C975.889 1452.6 975.889 1453.08 975.969 1453.57C976.05 1456.07 976.131 1458.73 976.212 1461.48C972.9 1459.54 969.993 1458.17 967.57 1457.12C962.643 1454.94 959.816 1454.05 959.816 1454.05C959.816 1454.05 961.916 1456.07 965.631 1459.7C967.489 1461.56 969.75 1463.74 972.254 1466.4C973.466 1467.78 974.758 1469.15 976.05 1470.68C976.05 1470.68 976.05 1470.68 976.05 1470.76C976.05 1474.32 975.808 1477.95 975.485 1481.67C971.123 1477.55 967.085 1474.4 964.016 1472.14C959.412 1468.83 956.423 1467.7 956.423 1467.7C956.423 1467.7 958.443 1469.96 961.593 1474.4C964.5 1478.6 968.862 1484.81 973.466 1492.41C973.062 1493.78 972.577 1495.15 972.012 1496.52C966.762 1492.24 960.543 1486.83 957.635 1485.38C954 1483.6 951.82 1482.88 951.82 1482.88C951.82 1482.88 953.112 1484.65 955.454 1487.88C957.554 1490.63 963.289 1498.38 967.489 1504.03C966.6 1505.08 965.712 1506.05 964.662 1507.02C961.189 1504.68 958.12 1502.98 955.697 1501.85C952.304 1500.24 950.285 1499.67 950.285 1499.67C950.285 1499.67 951.416 1501.37 953.516 1504.28C954.808 1506.13 956.504 1508.55 958.362 1511.3C956.827 1512.11 955.212 1512.83 953.516 1513.48C942.208 1504.84 934.374 1500.4 934.374 1500.4C934.374 1500.4 937.927 1506.46 944.954 1515.9C943.662 1516.15 942.37 1516.39 941.077 1516.63C935.908 1511.38 931.143 1507.59 927.589 1505.08C923.308 1502.18 920.724 1500.8 920.724 1500.8C920.724 1500.8 922.339 1503.06 925.166 1507.26C927.024 1509.93 929.366 1513.56 931.87 1517.76C930.416 1517.92 928.962 1518 927.508 1518.16C923.308 1515.58 919.835 1512.51 916.685 1509.36C912.728 1505.33 909.497 1501.53 906.993 1498.3C901.905 1491.92 899.078 1488.13 899.078 1488.13C899.078 1488.13 899.482 1489.18 900.289 1491.19C901.097 1493.21 902.308 1496.12 904.085 1499.83C905.862 1503.55 908.285 1508.07 911.597 1513.16C912.728 1514.77 913.939 1516.47 915.312 1518.16C913.939 1517.92 912.647 1517.52 911.597 1516.95C906.508 1514.37 902.228 1507.59 898.189 1500.24C894.232 1492.97 890.516 1485.3 887.689 1477.06C881.712 1460.75 877.997 1442.91 875.412 1424.33C872.909 1405.76 871.535 1387.27 870.162 1369.26C869.435 1360.3 868.951 1351.74 869.112 1343.5C869.274 1335.27 870.485 1327.44 872.262 1319.52C875.978 1303.86 880.662 1288.51 884.378 1274.38C888.174 1260.17 891.728 1246.85 895.039 1234.74C895.847 1231.67 896.655 1228.76 897.382 1225.85C897.785 1224.4 898.108 1222.95 898.512 1221.57C898.916 1220.12 899.239 1218.51 899.401 1216.97C900.047 1211 900.128 1204.78 896.251 1199.61C894.232 1196.95 890.839 1195.98 888.012 1196.22C886.801 1196.38 885.67 1196.7 884.701 1197.11C884.862 1196.38 885.024 1195.65 885.105 1194.93C885.67 1191.21 884.62 1187.17 882.843 1184.35C879.128 1178.62 874.685 1175.55 871.051 1171.91C863.459 1164.97 856.916 1158.99 851.586 1154.15C840.843 1144.46 834.947 1139.13 834.947 1139.13C834.947 1139.13 840.278 1145.02 849.97 1155.76C854.816 1161.09 860.793 1167.63 867.739 1175.14C871.051 1178.94 875.412 1182.81 877.674 1187.18C877.997 1187.74 878.239 1188.39 878.401 1189.03C875.574 1186.13 873.07 1184.43 870.485 1181.93C866.124 1177.81 863.539 1175.87 863.539 1175.87C863.539 1175.87 865.397 1178.62 868.547 1183.7C870.809 1187.42 873.716 1192.5 876.785 1198.64C876.301 1199.53 875.816 1200.5 875.251 1201.47C873.716 1204.05 872.101 1206.72 870.485 1209.46C866.205 1203.49 863.136 1201.47 859.259 1198C854.332 1193.63 851.263 1191.7 851.263 1191.7C851.263 1191.7 853.605 1194.52 857.401 1199.85C860.066 1203.65 863.297 1208.73 866.528 1214.95C865.074 1217.21 863.862 1219.15 863.055 1220.77C862.732 1221.33 862.489 1221.82 862.328 1222.3C855.382 1216 849.809 1210.67 845.69 1206.64C840.359 1201.39 837.37 1198.48 837.37 1198.48C837.37 1198.48 839.47 1202.11 843.751 1208.41C847.224 1213.5 852.232 1220.28 858.774 1228.03C856.916 1230.94 855.059 1233.85 853.039 1236.84C852.878 1237.08 852.716 1237.24 852.555 1237.48C835.836 1221.25 825.255 1212.21 825.255 1212.21C825.255 1212.21 833.655 1224.48 848.516 1243.21C846.174 1246.44 843.832 1249.67 841.328 1252.82C826.547 1236.67 817.017 1227.63 817.017 1227.63C817.017 1227.63 824.043 1239.82 836.805 1258.4C834.059 1261.63 831.232 1264.77 828.243 1267.84C821.217 1261.95 815.563 1256.7 811.363 1252.74C805.547 1247.01 802.397 1243.94 802.397 1243.94C802.397 1243.94 804.74 1247.9 809.505 1254.6C812.897 1259.36 817.744 1265.42 823.882 1272.2C823.64 1272.45 823.397 1272.77 823.074 1273.01C820.893 1275.03 818.713 1276.97 816.37 1278.91C795.774 1262.03 782.851 1252.74 782.851 1252.74C782.851 1252.74 793.109 1264.86 810.797 1283.27C808.778 1284.72 806.759 1286.17 804.659 1287.46C782.448 1268.73 768.475 1258.31 768.475 1258.31C768.475 1258.31 779.459 1271.32 798.359 1291.18C798.197 1291.18 798.117 1291.34 797.955 1291.42C796.986 1291.91 796.097 1292.47 795.128 1292.96L791.494 1294.65L790.686 1295.06C768.313 1275.92 754.582 1265.26 754.582 1265.26C754.582 1265.26 765.567 1278.02 784.467 1298.04C784.386 1298.04 784.224 1298.2 784.144 1298.29L784.305 1299.9L784.548 1303.05L784.79 1306.2L784.951 1307.81V1308.78L785.113 1312.01C785.113 1312.98 785.113 1313.95 785.113 1314.84C775.34 1303.86 766.052 1296.11 758.863 1290.69C753.936 1286.98 749.898 1284.4 747.152 1282.7C744.406 1281.09 742.952 1280.2 742.952 1280.2C742.952 1280.2 744.244 1281.33 746.829 1283.35C749.332 1285.45 752.967 1288.6 757.409 1292.88C764.921 1300.06 774.855 1310.64 784.628 1324.85C783.982 1331.8 782.609 1338.82 780.59 1345.77C759.186 1322.43 745.859 1309.27 745.859 1309.27C745.859 1309.27 757.732 1326.63 778.086 1353.52C776.794 1356.99 775.421 1360.38 773.805 1363.69C766.132 1354.24 758.54 1347.7 752.725 1343.34C745.213 1337.77 740.69 1335.43 740.69 1335.43C740.69 1335.43 744.729 1338.74 751.109 1345.44C756.521 1351.09 763.548 1359.41 770.332 1370.39C768.636 1373.38 766.778 1376.29 764.84 1379.2C742.548 1356.67 728.656 1344.07 728.656 1344.07C728.656 1344.07 740.448 1360.22 760.64 1385.09C759.994 1385.9 759.428 1386.79 758.782 1387.59C758.217 1388.32 757.732 1388.97 757.167 1389.69C748.605 1381.05 741.175 1374.35 735.682 1369.75C729.14 1364.18 725.344 1361.43 725.344 1361.43C725.344 1361.43 728.413 1365.15 733.986 1371.77C738.752 1377.5 745.294 1385.49 752.886 1395.35C750.948 1397.93 749.09 1400.59 747.232 1403.34C728.332 1386.62 716.459 1377.34 716.459 1377.34C716.459 1377.34 726.394 1390.18 743.517 1409.56C743.032 1410.45 742.548 1411.25 742.063 1412.22C740.69 1414.97 739.559 1417.87 738.671 1420.86C718.398 1399.87 705.798 1388.08 705.798 1388.08C705.798 1388.08 717.186 1404.31 736.894 1429.26C736.329 1433.38 736.167 1437.42 736.167 1441.21C729.948 1434.19 724.052 1429.02 719.448 1425.46C712.825 1420.46 708.867 1418.28 708.867 1418.28C708.867 1418.28 712.26 1421.43 717.752 1427.48C722.921 1433.22 729.786 1441.78 736.409 1453.16C736.571 1458.17 736.732 1463.09 736.732 1467.94C736.732 1468.67 736.732 1469.31 736.732 1469.96C730.917 1463.01 725.586 1457.6 721.386 1453.57C714.763 1447.27 710.886 1444.28 710.886 1444.28C710.886 1444.28 714.117 1448.24 719.609 1455.5C724.133 1461.56 730.109 1470.04 736.571 1480.62C736.409 1485.06 736.086 1489.34 735.602 1493.54C717.267 1473.35 705.717 1461.88 705.717 1461.88C705.717 1461.88 716.056 1478.19 734.229 1503.14C733.582 1506.54 732.775 1509.77 731.886 1513C715.894 1495.07 705.556 1484.9 705.556 1484.9C705.556 1484.9 713.875 1499.19 728.656 1520.75L729.544 1520.1C728.009 1523.98 726.313 1527.69 724.294 1531.16C707.575 1512.59 696.994 1502.26 696.994 1502.26C696.994 1502.26 705.475 1516.06 720.417 1537.3C717.752 1541.18 714.763 1544.57 711.533 1547.56C697.317 1528.82 688.029 1518.16 688.029 1518.16C688.029 1518.16 694.41 1531.41 706.121 1551.92C703.375 1553.94 700.548 1555.55 697.64 1556.92C691.017 1551.19 685.929 1545.94 682.375 1541.9C678.014 1536.9 675.833 1533.91 675.833 1533.91C675.833 1533.91 677.125 1537.46 680.356 1543.52C683.102 1548.61 685.04 1552.89 690.775 1559.43C687.706 1560.23 684.717 1560.8 681.729 1560.88C680.114 1560.88 678.579 1560.88 676.964 1560.8L679.71 1560.07C673.087 1553.61 668.241 1547.88 664.929 1543.84C661.698 1539.72 659.921 1537.46 659.921 1537.46C659.921 1537.46 660.729 1540.37 662.748 1545.3C664.444 1549.33 665.737 1552.81 669.21 1558.22C664.121 1554.9 653.944 1550.38 648.856 1546.43C652.087 1539.89 654.671 1533.02 656.448 1526.16C660.729 1509.52 661.375 1492.57 660.083 1476.5C658.791 1460.43 655.883 1445.09 652.894 1430.31C651.441 1422.96 649.906 1415.53 648.695 1408.67C648.452 1406.97 648.21 1405.36 648.129 1403.9C652.248 1407.13 655.641 1410.2 658.225 1412.63C662.425 1416.66 664.606 1419.09 664.606 1419.09C664.606 1419.09 663.314 1416.02 660.244 1410.93C657.821 1407.05 654.187 1401.89 649.018 1396.48C649.502 1394.86 650.148 1393.25 651.037 1391.31C651.844 1389.61 652.491 1387.92 653.298 1386.22C657.983 1389.05 661.698 1391.87 664.444 1394.05C668.321 1397.12 670.341 1398.98 670.341 1398.98C670.341 1398.98 669.21 1396.4 666.302 1392.2C664.041 1388.97 660.729 1384.69 655.883 1380.25C657.579 1375.97 659.114 1371.69 660.568 1367.41C664.848 1371.2 668.241 1374.84 670.583 1377.74C674.137 1382.1 675.833 1384.77 675.833 1384.77C675.833 1384.77 675.106 1381.62 672.764 1376.29C670.906 1372.09 667.756 1366.44 662.748 1360.62C663.717 1357.39 664.606 1354.08 665.414 1350.85C670.825 1355.78 675.106 1360.14 678.256 1363.45C682.456 1368.05 684.798 1370.64 684.798 1370.64C684.798 1370.64 683.425 1367.33 680.275 1361.75C677.529 1356.91 673.248 1350.37 667.11 1343.1C668.079 1338.34 668.967 1333.65 669.614 1328.89C673.814 1333.41 677.367 1337.45 680.033 1340.44C684.233 1345.2 686.494 1347.78 686.494 1347.78C686.494 1347.78 685.121 1344.47 682.133 1338.82C679.629 1334.06 675.833 1327.52 670.744 1320.01C671.067 1316.86 671.31 1313.71 671.471 1310.64C671.714 1307.09 671.794 1303.61 671.794 1300.14C687.14 1317.1 697.075 1326.63 697.075 1326.63C697.075 1326.63 685.767 1307.65 671.471 1287.06C671.31 1284.72 671.229 1282.46 671.067 1280.28C686.737 1297.96 696.51 1307.81 696.51 1307.81C696.51 1307.81 687.221 1292.71 670.825 1269.38C671.067 1265.42 671.875 1261.71 673.571 1258.48C673.733 1258.15 673.975 1257.83 674.137 1257.43C678.498 1261.54 682.375 1265.26 685.606 1268.49C693.925 1276.81 698.448 1281.33 698.448 1281.33C698.448 1281.33 694.733 1275.84 687.302 1266.55C684.394 1262.84 680.76 1258.48 676.641 1253.63C678.579 1251.05 680.76 1248.62 682.94 1246.2C692.229 1254.68 700.306 1261.46 706.686 1266.71C717.186 1275.27 723.083 1279.55 723.083 1279.55C723.083 1279.55 717.752 1274.14 708.221 1264.53C702.406 1258.64 695.137 1251.05 686.737 1241.92C689.644 1238.61 692.471 1235.38 695.137 1232.07C702.81 1238.13 708.948 1243.62 713.633 1248.06C721.386 1255.41 725.344 1259.77 725.344 1259.77C725.344 1259.77 722.194 1254.6 715.409 1246.12C711.29 1240.95 705.798 1234.57 698.69 1227.71C701.356 1224.32 703.94 1221.01 706.444 1217.7C728.413 1241.03 740.69 1253.23 740.69 1253.23C740.69 1253.23 730.19 1239.1 710.725 1214.55V1212.05C712.421 1209.62 714.117 1207.28 715.733 1204.86C740.852 1231.18 756.602 1246.2 756.602 1246.2C756.602 1246.2 743.355 1227.95 720.821 1199.77C721.709 1199.05 722.679 1198.24 723.567 1197.51C724.375 1196.86 725.182 1196.22 725.99 1195.57C739.317 1206.31 749.413 1216.08 756.521 1223.27C765.082 1231.99 769.444 1237.08 769.444 1237.08C769.444 1237.08 765.809 1231.18 758.298 1221.33C752.159 1213.34 743.275 1202.76 731.24 1191.21C734.309 1188.71 737.459 1186.21 740.609 1183.7C749.655 1191.94 756.602 1199.37 761.69 1204.94C768.394 1212.45 771.867 1216.73 771.867 1216.73C771.867 1216.73 769.282 1211.64 763.628 1203.16C759.509 1196.95 753.613 1188.79 745.698 1179.83C747.959 1178.13 750.14 1176.35 752.402 1174.66C753.129 1174.09 753.855 1173.53 754.663 1172.96C756.198 1174.17 757.732 1175.39 759.186 1176.6C762.74 1179.5 765.971 1182.33 768.959 1185.08C774.936 1190.49 779.863 1195.41 783.821 1199.53C791.655 1207.77 795.613 1212.61 795.613 1212.61C795.613 1212.61 792.463 1207.04 785.678 1197.67C782.286 1192.99 777.844 1187.42 772.432 1181.28C769.686 1178.21 766.698 1174.98 763.386 1171.75C762.498 1170.86 761.448 1169.81 760.398 1168.85C763.386 1166.66 766.294 1164.48 769.282 1162.3C782.367 1173.85 792.624 1183.78 799.813 1191.05C808.213 1199.53 812.655 1204.37 812.655 1204.37C812.655 1204.37 808.94 1198.72 801.59 1189.11C795.451 1181.12 786.567 1170.38 774.936 1158.27C778.167 1156.01 781.398 1153.66 784.548 1151.4C796.259 1160.93 805.305 1169.41 811.847 1175.71C819.763 1183.46 823.963 1187.9 823.963 1187.9C823.963 1187.9 820.57 1182.65 813.624 1173.77C808.132 1166.83 800.378 1157.62 790.201 1147.53C793.513 1145.27 796.824 1142.92 800.055 1140.74C824.367 1166.5 839.47 1181.2 839.47 1181.2C839.47 1181.2 827.032 1164.08 805.628 1136.95C807.486 1135.66 809.424 1134.37 811.282 1133.07C840.116 1158.51 858.209 1172.88 858.209 1172.88C858.209 1172.88 843.105 1155.36 817.582 1128.79C818.713 1128.07 819.844 1127.26 820.974 1126.53C842.54 1142.76 858.855 1157.3 869.92 1167.55C881.309 1178.21 887.285 1184.35 887.285 1184.35C887.285 1184.35 882.035 1177.32 871.536 1165.45C861.682 1154.31 847.063 1138.97 827.436 1122.17C833.897 1117.81 840.278 1113.53 846.578 1109.33C882.682 1143.41 905.055 1162.95 905.055 1162.95C905.055 1162.95 885.508 1140.42 852.716 1105.3C855.22 1103.68 857.724 1102.07 860.147 1100.53C881.147 1117.57 896.897 1132.59 907.639 1143.09C918.381 1153.75 924.116 1159.8 924.116 1159.8C924.116 1159.8 919.108 1152.86 909.335 1140.99C899.885 1129.68 885.832 1113.86 866.77 1096.25C867.416 1095.85 868.062 1095.44 868.709 1095.04C870.647 1093.91 872.585 1092.78 874.443 1091.65C889.789 1110.54 904.328 1123.79 914.828 1132.35C926.054 1141.39 932.597 1145.59 932.597 1145.59C932.597 1145.59 926.458 1140.34 916.281 1130.17C906.912 1120.72 894.07 1106.75 880.824 1088.1C884.135 1086.32 887.366 1084.7 890.678 1083.17C922.824 1118.54 942.854 1138.97 942.854 1138.97C942.854 1138.97 925.974 1115.95 897.543 1080.18C900.855 1078.81 904.085 1077.6 907.397 1076.55C925.004 1094.8 938.412 1110.22 947.539 1120.88C956.585 1131.78 961.593 1137.68 961.593 1137.68C961.593 1137.68 957.473 1130.81 949.397 1119.02C941.804 1107.88 930.497 1092.21 915.312 1074.21C918.058 1073.48 920.804 1072.92 923.551 1072.43C924.035 1072.35 924.52 1072.27 925.004 1072.19C938.574 1093.67 951.981 1109.17 961.673 1119.43C971.931 1130.09 978.069 1135.33 978.069 1135.33C978.069 1135.33 972.496 1129.2 963.45 1117.49C955.212 1106.83 944.147 1091.25 932.92 1071.22C933.97 1071.14 935.02 1071.06 936.151 1070.9C956.343 1092.38 971.527 1110.71 981.785 1123.54C992.204 1136.71 997.696 1144.06 997.696 1144.06C997.696 1144.06 993.012 1135.82 983.643 1121.69C975.081 1108.77 962.481 1090.92 945.52 1070.41C948.185 1070.41 950.85 1070.41 953.516 1070.41C960.543 1077.36 967.812 1085.67 975.243 1095.36C984.45 1107.23 993.819 1120.96 1004 1135.42C1014.25 1149.95 1024.83 1163.43 1035.82 1174.82C1046.72 1186.13 1057.87 1195.17 1068.13 1201.39C1073.13 1204.46 1077.9 1206.8 1082.18 1208.73C1090.58 1214.55 1101.56 1221.01 1115.46 1226.42L1114.97 1227.39Z" fill="black"/>
<path d="M1762.82 889.374C1739.96 887.92 1714.84 885.659 1688.19 884.206C1661.46 882.752 1635.77 882.753 1612.51 884.852C1589.25 886.871 1568.41 890.908 1551.45 896.076C1534.49 901.244 1521.4 907.058 1512.84 911.822C1508.48 914.002 1505.25 916.182 1503.07 917.394C1500.89 918.686 1499.68 919.412 1499.68 919.412C1499.68 919.412 1500.97 918.928 1503.31 917.959C1505.73 917.071 1509.13 915.375 1513.73 913.841C1522.78 910.449 1536.26 906.412 1553.14 903.101C1570.03 899.79 1590.46 897.691 1613.16 897.045C1635.85 896.399 1660.97 897.287 1687.38 898.741C1713.79 900.194 1739.16 901.567 1762.42 901.648C1785.6 901.728 1806.6 900.598 1824.12 898.256C1841.57 895.995 1855.54 892.846 1864.91 890.101C1869.68 888.889 1873.23 887.517 1875.74 886.79C1878.16 885.982 1879.45 885.579 1879.45 885.579C1879.45 885.579 1878.08 885.821 1875.57 886.225C1872.99 886.548 1869.35 887.355 1864.51 887.92C1854.9 889.293 1840.84 890.585 1823.56 890.989C1806.27 891.473 1785.68 890.827 1762.9 889.374H1762.82Z" fill="black"/>
<path d="M1447.58 880.491C1454.52 876.211 1464.94 870.64 1478.35 865.068C1491.68 859.496 1508.07 854.248 1526.65 849.968C1545.23 845.607 1565.99 842.297 1587.95 839.632C1610.08 837.129 1631.25 834.787 1650.39 832.688C1669.69 830.427 1687.14 827.843 1701.6 825.017C1716.13 822.19 1727.77 819.283 1735.68 816.942C1743.6 814.6 1747.88 813.146 1747.88 813.146C1747.88 813.146 1743.35 813.712 1735.2 814.761C1727.04 815.73 1715.25 816.861 1700.63 817.83C1686.01 818.799 1668.64 819.526 1649.34 820.495C1629.95 821.464 1608.63 822.594 1586.18 825.259C1563.72 828.004 1542.32 832.365 1523.5 838.179C1504.6 843.993 1488.2 851.179 1475.2 858.608C1462.2 866.037 1452.59 873.224 1446.29 878.714C1443.06 881.298 1440.87 883.64 1439.26 885.094C1437.72 886.628 1436.84 887.355 1436.84 887.355C1436.84 887.355 1437.81 886.709 1439.58 885.578C1441.44 884.448 1443.94 882.51 1447.58 880.491Z" fill="black"/>
<path d="M1476.17 813.148C1484.41 809.353 1489.66 806.688 1489.66 806.688C1489.66 806.688 1483.85 805.719 1474.48 806.042C1465.11 806.365 1452.1 808.303 1438.94 813.875C1425.77 819.447 1415.27 827.441 1408.57 833.901C1401.78 840.361 1398.47 845.206 1398.47 845.206C1398.47 845.206 1404.05 843.268 1412.53 840.038C1421.01 836.808 1432.4 832.447 1444.67 827.279C1456.95 822.111 1467.93 816.944 1476.25 813.148H1476.17Z" fill="black"/>
<path d="M1018.78 943.072C1017.41 937.016 1016.03 932.171 1014.9 928.861C1013.77 925.55 1013.13 923.773 1013.13 923.773C1013.13 923.773 1012.96 925.711 1012.64 929.103C1012.4 932.494 1012 937.42 1011.51 943.476C1010.54 955.588 1008.93 971.9 1007.15 989.826C1005.37 1007.75 1003.68 1024.06 1002.22 1036.09C1001.5 1042.15 1000.93 1047.08 1000.53 1050.47C1000.12 1053.94 999.961 1055.8 999.961 1055.8C999.961 1055.8 1000.93 1054.1 1002.71 1051.19C1004.48 1048.21 1006.75 1043.77 1009.25 1038.03C1014.26 1026.73 1019.75 1010.17 1021.61 991.279C1023.46 972.384 1021.45 955.104 1018.7 942.992L1018.78 943.072Z" fill="black"/>
<path d="M990.105 992.33C987.843 999.678 985.339 1009.77 984.128 1021C983.562 1026.57 983.32 1032.14 983.32 1036.82C983.32 1041.51 983.158 1045.54 982.674 1049.02C982.189 1052.41 981.22 1055.15 980.251 1056.93C979.766 1057.82 979.362 1058.54 979.039 1059.03C978.716 1059.51 978.555 1059.75 978.555 1059.75C978.555 1059.75 978.878 1059.67 979.443 1059.51C980.008 1059.35 980.816 1059.03 981.866 1058.54C983.966 1057.49 986.793 1055.39 989.378 1051.84C991.882 1048.37 993.981 1043.69 995.435 1038.6C996.889 1033.51 997.939 1028.26 998.505 1022.45C999.716 1010.9 998.666 1000.32 997.293 992.733C995.92 985.062 994.224 980.379 994.224 980.379C994.224 980.379 992.285 984.982 990.024 992.33H990.105Z" fill="black"/>
<path d="M833.09 1120.64C871.374 1157.06 895.12 1178.05 895.12 1178.05C895.12 1178.05 873.797 1153.26 838.501 1115.31L833.09 1120.64Z" fill="black"/>
<path d="M909.901 1051.6C889.951 1055.64 866.528 1062.58 841.974 1073.97C817.42 1085.19 791.978 1101.5 768.475 1121.77C744.809 1141.96 723.971 1162.63 703.456 1179.51C683.102 1196.46 662.829 1209.38 644.495 1217.54C626.241 1225.85 610.087 1229.25 598.941 1230.46C593.368 1231.02 588.926 1231.27 585.937 1231.18C582.949 1231.18 581.414 1231.18 581.414 1231.18C581.414 1231.18 582.949 1231.27 585.937 1231.51C588.926 1231.75 593.287 1231.83 599.022 1231.67C610.329 1231.18 626.968 1228.68 646.029 1221.09C665.09 1213.66 686.413 1201.31 707.575 1184.59C728.898 1168.04 750.221 1147.53 773.563 1127.66C796.824 1107.64 821.055 1091.49 844.882 1079.78C868.628 1067.91 891.324 1060.16 910.87 1055.23C930.335 1050.23 946.57 1047.97 957.796 1046.75C963.45 1046.11 967.812 1045.87 970.8 1045.62C973.789 1045.38 975.323 1045.3 975.323 1045.3H970.8C967.812 1045.3 963.45 1045.3 957.716 1045.54C946.408 1046.03 929.931 1047.32 909.981 1051.44L909.901 1051.6Z" fill="black"/>
<path d="M1084.93 1053.21C1105.77 1051.92 1130.89 1049.42 1157.78 1041.83C1184.76 1034.32 1212.95 1020.75 1238.71 1001.21C1264.48 981.75 1285.48 958.898 1301.79 936.369C1318.11 913.84 1330.14 891.796 1339.11 872.82C1347.99 853.844 1354.05 838.017 1357.93 827.035C1361.8 816.054 1363.74 809.836 1363.74 809.836C1363.74 809.836 1361.4 815.811 1356.8 826.551C1352.19 837.291 1345.33 852.714 1335.63 871.043C1325.86 889.373 1313.18 910.691 1296.54 932.413C1279.98 954.134 1259.15 976.017 1234.03 994.912C1208.99 1013.89 1181.93 1027.45 1155.92 1035.45C1129.92 1043.52 1105.28 1046.99 1084.6 1049.26C1063.93 1051.36 1047.05 1052.24 1035.42 1052.89C1023.79 1053.54 1017.32 1053.86 1017.32 1053.86C1017.32 1053.86 1023.79 1053.94 1035.42 1054.1C1047.13 1054.1 1064.01 1054.26 1084.93 1053.05V1053.21Z" fill="black"/>
</g>
<defs>
<clipPath id="clip0_157_322">
<rect width="1992" height="1182" fill="white" transform="translate(4 409)"/>
</clipPath>
</defs>
</svg>
