<svg width="2000" height="2000" viewBox="0 0 2000 2000" fill="none" xmlns="http://www.w3.org/2000/svg">
<g clip-path="url(#clip0_157_324)">
<path fill-rule="evenodd" clip-rule="evenodd" d="M436.053 1133.18C436.053 1133.18 435.552 1132.78 435.352 1132.58C435.352 1132.98 435.452 1133.28 435.552 1133.68L436.053 1133.18Z" fill="black"/>
<path fill-rule="evenodd" clip-rule="evenodd" d="M482.266 825.009C487.379 786.512 492.893 747.915 496.702 709.318C501.013 666.209 503.419 622.9 507.028 579.791C510.837 533.675 513.444 487.459 512.541 441.142C511.739 401.442 510.937 361.843 509.434 322.243C508.331 292.568 504.321 263.094 499.208 233.82C498.707 244.848 498.306 255.776 498.807 266.703C499.509 283.546 501.815 300.388 501.514 317.23C500.411 402.345 504.421 487.559 497.404 572.673C492.692 629.717 490.888 687.061 487.479 744.205C486.577 759.544 484.873 774.883 483.068 790.221C481.364 803.856 479.058 817.49 476.953 831.024C478.858 829.019 482.066 827.214 482.367 825.009H482.266Z" fill="black"/>
<path fill-rule="evenodd" clip-rule="evenodd" d="M427.833 1274.44C445.577 1252.88 460.414 1229.63 472.344 1204.36C475.952 1196.74 475.752 1189.12 472.745 1179.8C467.933 1191.13 464.324 1201.36 459.411 1210.88C450.991 1227.12 441.667 1242.96 433.046 1259.1C430.44 1264.01 428.535 1269.33 426.43 1274.54C427.031 1274.54 427.633 1274.64 427.833 1274.44Z" fill="black"/>
<path fill-rule="evenodd" clip-rule="evenodd" d="M557.355 1153.63C552.242 1155.14 551.64 1159.95 550.437 1163.76C546.728 1175.69 539.711 1184.01 527.38 1187.82C524.072 1188.82 521.466 1191.93 516.754 1195.34C549.335 1194.44 559.36 1183.41 557.355 1153.63Z" fill="black"/>
<path fill-rule="evenodd" clip-rule="evenodd" d="M1794.22 1680.76C1794.22 1680.76 1793.52 1681.06 1793.12 1681.26C1793.12 1681.37 1793.12 1681.57 1793.12 1681.67C1793.22 1681.67 1793.32 1681.67 1793.52 1681.67C1793.72 1681.37 1793.92 1681.06 1794.12 1680.76H1794.22Z" fill="black"/>
<path fill-rule="evenodd" clip-rule="evenodd" d="M1803.14 1646.58C1803.14 1646.58 1802.64 1645.98 1802.34 1645.78C1802.14 1645.78 1801.84 1645.78 1801.64 1645.88C1801.74 1646.08 1801.94 1646.18 1802.04 1646.28C1802.44 1646.28 1802.74 1646.48 1803.14 1646.58Z" fill="black"/>
<path fill-rule="evenodd" clip-rule="evenodd" d="M1804.25 1666.53C1801.14 1671.44 1797.53 1676.05 1794.12 1680.66C1796.93 1679.46 1800.14 1678.66 1802.14 1676.55C1807.75 1670.64 1812.77 1663.92 1817.88 1657.7C1820.09 1660.61 1822.19 1663.42 1824.3 1666.23C1824 1661.41 1823.79 1656.6 1823.49 1651.39C1816.08 1649.68 1809.56 1648.08 1803.04 1646.58C1809.26 1652.69 1808.66 1659.61 1804.15 1666.53H1804.25Z" fill="black"/>
<path fill-rule="evenodd" clip-rule="evenodd" d="M1896.37 1651.69C1892.86 1650.79 1888.95 1649.99 1885.55 1650.49C1875.22 1651.99 1865.7 1648.88 1856.17 1645.88C1856.67 1647.58 1856.87 1649.69 1857.98 1650.39C1866 1656 1874.62 1658.71 1884.54 1656C1889.25 1654.7 1894.27 1652.89 1899.18 1657.2C1901.59 1662.42 1900.48 1667.23 1898.78 1672.04C1897.78 1672.54 1896.77 1673.75 1896.57 1674.55C1893.06 1692.49 1870.31 1684.07 1859.08 1693.09C1852.56 1679.16 1844.94 1665.93 1826.1 1667.93C1839.73 1675.05 1849.16 1685.58 1853.77 1700.41C1854.07 1701.22 1854.17 1702.02 1854.17 1702.82C1847.25 1706.63 1840.03 1711.74 1832.81 1708.63C1831.61 1702.52 1826.5 1699.11 1820.99 1696.8C1812.66 1693.19 1803.64 1691.09 1793.72 1687.88C1793.62 1686.48 1793.32 1683.97 1793.02 1681.47C1785.2 1681.06 1777.88 1680.36 1770.46 1676.25C1761.74 1671.44 1751.61 1669.03 1741.09 1665.22C1743.49 1662.12 1746 1658.81 1748.61 1655.6C1752.32 1650.99 1754.02 1646.38 1753.42 1641.77C1755.12 1634.65 1750.21 1625.72 1745.3 1619.31C1741.89 1613.09 1736.58 1609.68 1728.26 1608.08C1724.55 1607.38 1720.84 1606.98 1717.13 1606.68C1716.13 1606.18 1715.22 1605.67 1714.12 1605.17C1712.42 1604.27 1707.3 1604.57 1706.4 1603.17C1706.1 1602.77 1705.8 1602.77 1705.4 1603.07C1687.35 1589.43 1665.7 1584.32 1644.25 1578.81C1620.89 1572.89 1597.43 1567.08 1574.07 1561.06C1570.66 1560.16 1567.46 1558.36 1563.55 1556.75C1562.65 1549.13 1561.74 1542.01 1560.74 1533.89C1563.75 1532.19 1566.76 1530.28 1569.96 1528.88C1575.78 1526.27 1581.39 1526.58 1586.3 1530.99C1601.64 1544.42 1620.39 1551.14 1639.54 1555.85C1664.5 1561.96 1688.56 1570.39 1712.72 1578.81C1723.44 1582.52 1734.47 1585.42 1745.3 1588.73C1744.6 1589.53 1743.89 1590.44 1743.09 1591.24C1743.99 1590.44 1745 1589.73 1746 1588.93L1745.4 1588.53C1752.62 1587.33 1757.03 1591.14 1757.73 1597.55C1758.53 1604.57 1757.53 1611.69 1757.23 1620.31C1760.13 1623.92 1763.84 1629.13 1768.25 1633.75C1769.86 1635.35 1772.57 1635.85 1774.87 1636.65C1772.47 1631.74 1770.16 1626.73 1767.55 1621.92C1764.75 1616.7 1764.75 1611.89 1767.25 1607.38C1774.87 1601.56 1781.99 1598.86 1792.21 1606.58C1797.33 1610.39 1800.53 1616.4 1804.24 1621.51C1806.95 1625.22 1808.76 1626.93 1813.07 1627.53C1817.58 1628.23 1815.67 1631.04 1818.08 1632.34C1821.49 1634.15 1824.8 1635.75 1828.5 1637.05C1829.21 1637.35 1830.21 1637.05 1831.01 1636.55C1834.82 1639.76 1839.53 1641.46 1845.35 1641.46C1841.14 1635.15 1835.62 1630.84 1828.4 1629.23C1825.9 1627.73 1823.29 1626.33 1822.09 1624.22C1821.29 1622.92 1820.48 1621.21 1818.78 1621.01C1808.35 1619.51 1802.34 1604.27 1794.02 1598.16C1791.31 1596.15 1788.61 1595.05 1786 1594.55C1782.89 1592.64 1779.28 1592.14 1776.58 1595.65C1775.47 1596.05 1774.37 1596.65 1773.37 1597.25C1770.86 1596.85 1768.05 1596.55 1767.35 1595.15C1762.34 1585.42 1753.32 1582.92 1743.99 1580.51C1737.68 1578.81 1731.36 1576.7 1725.05 1574.8C1699.18 1566.78 1674.52 1555.15 1647.56 1549.93C1628.81 1546.22 1610.26 1540.11 1595.03 1528.28C1585 1520.46 1575.48 1519.26 1564.35 1523.37C1561.64 1524.37 1558.84 1524.97 1556.33 1525.67C1554.02 1524.07 1551.82 1523.17 1550.52 1521.66C1541.69 1511.34 1530.37 1508.83 1517.13 1508.03C1491.47 1506.42 1465.91 1503.32 1440.44 1499.81C1420.79 1497.1 1401.95 1490.99 1384.4 1480.96C1376.78 1476.55 1368.66 1473.14 1360.54 1469.73C1331.37 1457.7 1302.1 1445.87 1272.83 1434.04C1251.07 1425.22 1229.22 1416.7 1207.46 1407.68C1171.58 1392.74 1135.49 1378 1101.4 1359.05C1075.14 1344.42 1049.37 1328.78 1022.91 1314.44C1010.08 1307.52 996.341 1302.21 982.707 1297C973.083 1293.39 963.059 1290.98 953.134 1288.18C923.661 1279.75 893.887 1283.76 862.91 1285.97C861.005 1277.95 854.991 1272.94 846.068 1269.53C825.618 1261.61 805.769 1251.88 785.518 1243.46C768.576 1236.44 751.233 1230.13 729.78 1232.43C725.971 1237.25 720.958 1243.56 715.044 1250.98C713.139 1246.17 712.237 1243.46 711.034 1240.86C702.112 1222.41 697.199 1219.5 676.448 1221.71C666.924 1222.71 657.601 1225.22 648.078 1225.62C634.243 1226.22 620.108 1226.82 606.474 1224.92C594.044 1223.21 585.222 1215.69 584.32 1201.36C584.019 1195.64 583.016 1189.33 580.109 1184.51C575.297 1176.29 575.498 1167.87 575.698 1159.05C575.999 1141.51 577.503 1123.66 571.889 1106.52C567.077 1091.88 561.964 1077.34 556.45 1063.01C550.636 1047.87 545.624 1032.73 544.721 1016.29C542.015 968.47 545.423 920.75 545.624 873.03C545.624 867.917 546.426 862.804 547.127 857.691C554.245 807.465 560.761 757.238 568.681 707.112C582.214 621.396 593.242 535.48 598.755 448.862C600.861 415.879 604.369 382.996 608.479 350.213C613.291 312.218 615.597 274.122 615.597 235.926C615.597 233.319 614.394 230.713 613.191 226.201C609.682 228.507 606.073 229.61 605.672 231.414C604.269 237.73 603.567 244.347 603.166 250.863C601.061 280.939 599.658 311.015 597.051 340.99C594.044 375.377 589.633 409.663 586.425 444.05C583.518 474.727 582.716 505.705 578.706 536.282C567.277 623.702 555.648 711.122 542.115 798.141C534.095 849.972 529.985 901.702 532.09 954.034C532.892 974.586 534.496 995.137 537.403 1015.49C541.213 1042.46 550.035 1068.32 561.062 1093.18C567.077 1106.92 569.884 1121.05 569.783 1135.99C569.683 1158.15 566.074 1179.9 560.761 1201.26C559.658 1205.57 558.355 1209.78 556.551 1213.79C551.638 1224.82 543.418 1231.43 530.987 1231.43C520.662 1231.43 510.436 1230.93 500.211 1230.33C496.903 1230.13 493.695 1228.83 488.883 1227.62C499.208 1209.78 502.817 1192.03 502.015 1173.49C502.015 1172.08 502.216 1170.58 502.617 1169.08C506.326 1154.24 503.218 1139.7 499.81 1125.47C498.005 1117.65 496.301 1108.62 487.379 1104.71C489.484 1115.14 491.189 1125.77 493.895 1136.09C501.815 1166.87 494.397 1195.94 481.464 1223.21C473.745 1239.45 461.014 1253.29 450.187 1268.02C443.571 1277.05 434.749 1283.46 424.323 1287.57H424.122C401.767 1299.7 378.81 1299.6 357.056 1287.27C345.126 1280.56 333.598 1271.43 324.976 1260.91C303.022 1233.74 291.894 1202.36 295.403 1166.77C296.406 1156.54 296.506 1146.12 298.11 1135.99C306.03 1088.47 303.122 1040.75 300.716 993.032C297.007 920.449 289.789 847.967 287.083 775.284C284.777 713.628 280.566 652.073 276.256 590.418C269.74 497.384 270.542 403.848 258.411 311.115C255.003 284.949 251.695 258.683 248.186 232.517C247.986 231.314 245.479 230.412 241.971 227.805C242.372 235.023 242.472 239.936 242.873 244.948C246.582 286.653 251.194 328.258 253.9 370.063C257.409 425.804 259.514 481.544 262.221 537.385C265.228 599.742 268.236 662.199 271.344 724.556C272.346 744.406 274.15 764.156 275.454 783.905C277.86 822.803 280.266 861.601 282.471 900.499C284.977 943.006 287.183 985.613 289.889 1028.12C290.792 1043.26 288.887 1057.19 279.865 1069.93C275.654 1075.84 273.348 1083.06 269.84 1089.47C253.399 1119.55 249.59 1152.03 252.497 1185.62C254.502 1208.78 264.727 1227.62 282.972 1242.06C286.882 1245.17 290.391 1248.58 295.303 1252.99C291.594 1255.09 289.388 1256.9 286.882 1257.7C279.965 1260 272.446 1261.01 265.83 1264.01C247.284 1272.64 233.75 1285.37 239.164 1313.24C239.865 1316.85 240.367 1320.56 241.469 1324.07C244.778 1334.79 242.873 1344.52 236.056 1353.04C231.044 1359.25 225.73 1365.37 220.117 1371.08C215.505 1375.8 209.691 1379.4 205.48 1384.42C202.373 1388.13 198.663 1393.44 199.064 1397.75C199.967 1409.68 195.455 1418.6 189.039 1428.13C183.526 1436.35 181.12 1446.87 178.012 1456.6C176.508 1461.41 176.208 1466.72 175.706 1471.84C174.203 1486.47 165.281 1494.19 151.647 1496.5C143.827 1497.8 135.607 1498 127.687 1497.3C115.958 1496.4 107.738 1501.21 102.124 1510.84C99.2168 1515.85 96.911 1521.36 95.3071 1526.98C90.8961 1542.01 90.2946 1557.35 92.8009 1572.79C96.8108 1598.26 103.628 1622.92 110.545 1647.78C115.357 1665.22 123.477 1680.76 134.705 1694.4C146.334 1708.53 158.764 1722.27 172.097 1734.7C192.247 1753.55 215.405 1767.38 243.675 1770.59C248.788 1771.19 253.8 1772.39 258.812 1773.5C276.256 1777.41 292.496 1774.1 307.533 1765.18C333.498 1749.94 359.462 1734.7 385.126 1719.06C411.491 1703.02 437.455 1686.48 466.828 1676.15C470.537 1674.85 473.645 1671.74 476.953 1669.43C476.953 1669.54 476.753 1669.64 476.653 1669.84C483.57 1667.63 490.687 1665.83 497.404 1663.12C525.674 1652.09 554.746 1645.57 585.322 1646.28C601.462 1646.58 617.602 1646.08 633.742 1646.48C645.972 1646.88 654.894 1642.27 661.01 1631.64C663.115 1628.13 666.022 1625.02 668.328 1622.12C681.36 1625.72 687.174 1634.85 692.588 1644.67C699.906 1657.81 711.134 1664.92 726.572 1665.42C744.918 1666.03 763.263 1667.03 781.508 1667.83C788.025 1668.13 794.541 1668.33 801.959 1668.63C801.558 1672.54 801.257 1675.35 801.057 1678.06C799.653 1695.2 806.47 1702.92 823.412 1702.32C831.432 1702.02 839.452 1700.51 847.372 1699.11C874.038 1694.4 900.704 1689.59 927.37 1684.57C990.126 1673.04 1053.28 1676.25 1116.04 1682.77C1157.54 1687.08 1198.54 1695.9 1238.74 1707.43C1265.61 1715.05 1292.58 1721.87 1320.44 1724.27C1323.85 1724.57 1328.06 1725.48 1330.47 1727.68C1341.3 1737.31 1353.13 1735.8 1365.66 1732.19C1373.38 1729.99 1381.3 1727.68 1389.21 1727.58C1406.76 1727.38 1424.4 1728.48 1441.95 1728.98C1450.37 1729.19 1457.38 1731.79 1464.1 1737.21C1472.12 1743.62 1480.64 1749.24 1491.97 1748.13C1503.8 1746.93 1509.51 1760.97 1521.34 1760.46C1525.75 1760.26 1530.16 1760.26 1534.58 1760.46C1543.2 1760.97 1551.92 1761.77 1560.54 1762.47C1563.75 1766.98 1568.86 1767.48 1573.57 1767.38C1594.32 1766.78 1615.18 1763.87 1635.83 1769.39C1639.23 1770.29 1643.14 1769.79 1646.75 1769.39C1653.17 1768.58 1660.29 1768.79 1665.8 1765.98C1670.51 1763.57 1673.42 1757.66 1675.32 1755.35C1693.57 1745.93 1710.01 1749.14 1726.45 1753.55C1729.26 1754.35 1732.07 1755.35 1734.87 1755.65C1746.7 1756.86 1754.22 1748.63 1752.22 1736.8C1751.51 1732.89 1750.21 1729.09 1748.71 1723.27C1754.72 1723.77 1759.03 1723.67 1762.94 1724.67C1764.35 1725.08 1765.75 1725.48 1767.15 1725.88C1773.67 1731.69 1780.89 1735.1 1790.01 1730.69C1798.43 1726.68 1803.04 1716.25 1800.53 1707.43C1800.74 1705.93 1800.94 1704.42 1801.24 1703.12C1812.06 1699.51 1818.88 1705.02 1825.8 1709.44C1828.8 1714.85 1834.22 1716.25 1839.93 1715.45C1842.74 1715.75 1845.45 1714.65 1849.36 1712.34C1849.36 1712.34 1849.36 1712.54 1849.26 1712.54C1851.76 1710.54 1855.27 1709.03 1856.77 1706.63C1857.88 1705.53 1858.78 1704.42 1859.48 1703.22C1860.28 1702.02 1859.88 1700.61 1858.68 1700.51C1858.88 1699.31 1858.98 1698.11 1858.98 1697C1863.49 1694.6 1869.61 1695.5 1874.52 1695C1876.22 1694.8 1877.93 1694.5 1879.53 1694.2C1884.04 1694 1887.65 1692.99 1890.46 1690.29C1893.77 1688.48 1897.98 1685.27 1900.08 1681.57C1904.39 1677.15 1905.39 1670.74 1906 1664.42C1906.5 1659.61 1900.58 1652.89 1895.47 1651.69H1896.37ZM1555.83 1557.05C1563.75 1567.08 1574.98 1569.98 1586.2 1573.19C1604.45 1578.41 1622.39 1584.12 1641.64 1585.42C1652.27 1586.13 1662.59 1591.24 1673.02 1594.55C1683.95 1597.95 1693.97 1604.17 1705.4 1606.18C1706.5 1607.98 1709.31 1608.98 1711.01 1610.09C1711.31 1610.29 1711.61 1610.49 1711.92 1610.59C1715.12 1614.9 1719.63 1617.4 1725.75 1616.2C1727.65 1615.8 1729.36 1615.8 1730.96 1615.9C1736.38 1617.8 1739.88 1622.82 1742.79 1627.83C1746 1633.24 1745.9 1639.96 1748.81 1644.97C1748.91 1645.17 1749.01 1645.27 1749.21 1645.47C1747.3 1657 1739.48 1661.31 1726.95 1658.11C1721.64 1656.7 1715.93 1656.7 1707.8 1655.7C1700.69 1647.18 1692.27 1636.05 1678.83 1630.94C1672.02 1628.43 1665.1 1625.22 1658.08 1624.52C1635.22 1622.32 1614.07 1616.1 1594.22 1604.07C1585.7 1598.86 1575.38 1596.35 1565.75 1593.14C1558.84 1590.84 1551.72 1589.53 1544.9 1587.93C1543.1 1576.6 1541.49 1566.07 1539.79 1555.65C1546 1551.04 1551.92 1552.04 1555.83 1556.95V1557.05ZM1210.97 1610.49C1168.77 1600.16 1125.66 1596.25 1082.35 1594.25C1052.18 1592.84 1022.21 1595.65 992.431 1599.86C981.003 1601.46 970.577 1600.46 960.151 1596.35C938.999 1588.13 917.846 1579.91 896.794 1571.39C892.985 1569.88 889.576 1567.18 885.967 1564.97C890.88 1538.61 907.922 1523.17 928.673 1510.94C936.392 1506.42 944.813 1505.12 954.136 1507.43C982.607 1514.55 1011.08 1521.56 1037.54 1534.6C1055.49 1543.42 1074.13 1548.73 1094.38 1549.73C1147.32 1552.34 1198.84 1563.87 1250.07 1577C1278.64 1584.32 1306.11 1594.25 1333.78 1603.97C1362.65 1614.1 1391.92 1618.61 1422.4 1615.7C1433.63 1614.6 1438.44 1617.7 1443.05 1627.93C1448.76 1640.36 1445.25 1658.11 1434.83 1666.23C1432.32 1668.23 1427.81 1669.13 1424.6 1668.53C1415.98 1667.03 1407.26 1665.22 1399.04 1662.32C1377.09 1654.6 1377.19 1654.4 1356.03 1659.71C1347.01 1650.19 1335.98 1643.77 1321.55 1645.68C1319.64 1645.98 1317.34 1644.57 1315.43 1643.67C1282.15 1627.73 1246.56 1619.31 1211.07 1610.59L1210.97 1610.49ZM1297.69 1645.47C1279.94 1647.88 1266.01 1642.07 1251.57 1640.46C1219.59 1636.95 1187.62 1632.24 1155.64 1628.63C1114.13 1623.92 1072.53 1619.81 1031.03 1615.5C1021.8 1614.6 1012.98 1612.19 1002.76 1607.78C1011.08 1602.77 1018.5 1602.97 1025.61 1602.77C1076.94 1601.56 1128.17 1601.46 1178.59 1613.69C1197.04 1618.21 1216.19 1619.71 1234.83 1623.82C1252.68 1627.73 1270.22 1633.04 1287.76 1638.16C1290.77 1639.06 1293.18 1641.97 1297.79 1645.37L1297.69 1645.47ZM1413.88 1525.97C1415.08 1526.47 1416.48 1526.58 1417.89 1526.68C1431.52 1536.1 1446.26 1542.21 1462.5 1542.21C1465.7 1542.82 1468.91 1543.22 1472.12 1543.52C1482.95 1544.32 1493.87 1544.32 1504.7 1544.82C1522.55 1545.62 1537.08 1561.06 1536.88 1578.91C1536.88 1585.52 1533.67 1588.33 1525.65 1588.83C1523.75 1588.93 1521.84 1588.53 1519.84 1588.33C1516.13 1580.91 1509.81 1577.2 1501.99 1575.3C1497.28 1569.28 1490.57 1571.19 1484.45 1571.49C1434.13 1574.09 1411.47 1575.2 1367.06 1554.55C1337.09 1540.71 1307.01 1527.18 1276.74 1514.04C1233.53 1495.4 1189.02 1480.96 1143.31 1469.93C1120.55 1464.42 1097.99 1457.8 1075.44 1451.49C1059.7 1447.08 1045.26 1440.26 1033.53 1428.33C1026.72 1421.31 1019.1 1416.8 1008.37 1417.1C997.344 1417.5 992.933 1407.48 987.519 1400.26C990.928 1386.92 993.835 1374.09 997.544 1361.56C1002.56 1344.72 1021.5 1339.4 1033.93 1352.04C1042.36 1360.66 1051.88 1366.87 1062.51 1372.09C1067.12 1374.39 1071.33 1377.3 1075.64 1380.01C1088.07 1387.83 1100.4 1395.75 1112.83 1403.37C1146.21 1423.72 1182.3 1438.25 1219.59 1449.38C1252.78 1459.31 1284.05 1473.54 1315.73 1486.98C1348.01 1500.81 1380.99 1513.04 1413.78 1525.77L1413.88 1525.97ZM990.928 1432.74C989.825 1438.95 984.411 1444.27 986.717 1451.19C979.399 1453.89 976.993 1461.21 974.086 1467.03C964.161 1486.88 947.52 1497.5 927.671 1504.72C919.551 1507.73 911.631 1511.44 902.308 1515.35C893.486 1509.23 885.065 1501.21 876.845 1492.99C854.489 1470.73 831.432 1449.28 805.668 1431.03C795.543 1423.82 784.817 1417.4 774.491 1410.48C766.471 1405.17 764.667 1400.96 766.872 1391.94C768.977 1383.31 771.985 1374.99 779.002 1368.98C793.939 1356.25 811.483 1348.13 831.031 1348.13C848.474 1348.13 865.817 1351.74 881.256 1361.66C907.22 1378.2 933.585 1393.94 961.555 1406.77C968.171 1409.78 974.888 1412.79 981.604 1415.7C990.527 1419.51 992.532 1423.32 990.928 1432.54V1432.74ZM1066.11 1539.01C1066.11 1538.41 1066.11 1537.8 1066.11 1537.2H1084.06C1084.06 1537.8 1084.06 1538.41 1084.06 1539.01H1066.11ZM1425.81 1610.69C1412.67 1609.89 1399.44 1608.78 1386.41 1607.08C1360.74 1603.77 1336.58 1594.75 1312.32 1586.33C1290.87 1578.81 1269.42 1571.69 1246.26 1569.88C1233.23 1568.88 1220.3 1564.77 1207.87 1560.76C1169.47 1548.23 1130.47 1538.2 1090.37 1532.69C1082.35 1531.59 1074.23 1531.59 1066.21 1531.49C1050.58 1531.19 1036.44 1527.08 1021.8 1520.96C1003.76 1513.34 983.91 1510.03 964.863 1504.72C961.555 1503.82 958.547 1502.21 953.535 1500.21C970.677 1486.17 982.206 1470.53 987.619 1450.88C987.419 1450.88 987.319 1450.98 987.218 1451.09C993.033 1443.07 998.747 1435.04 1004.66 1426.82C1010.98 1424.52 1017.79 1424.32 1022.61 1429.83C1042.46 1452.79 1070.32 1460.31 1097.49 1468.93C1116.34 1474.85 1135.39 1480.26 1154.53 1485.27C1202.15 1497.7 1247.76 1515.95 1293.48 1533.69C1326.96 1546.63 1360.24 1560.06 1393.53 1573.39C1410.97 1580.41 1429.01 1581.61 1447.46 1580.31C1453.27 1579.91 1459.19 1579.51 1465 1579.91C1471.72 1580.31 1476.23 1584.32 1476.23 1591.04C1476.23 1598.16 1474.63 1605.37 1473.12 1612.39C1472.12 1617.1 1470.02 1621.61 1468.41 1626.23C1464.1 1628.53 1459.79 1630.84 1454.28 1633.75C1452.37 1631.14 1450.17 1629.13 1449.26 1626.73C1445.35 1615.3 1436.83 1611.39 1425.51 1610.69H1425.81ZM1468.61 1626.33C1479.84 1637.35 1492.97 1644.17 1508.71 1646.38C1536.48 1650.09 1562.54 1659.91 1588.81 1669.13C1594.22 1671.04 1599.64 1673.85 1604.35 1677.15C1611.87 1682.47 1613.37 1689.79 1609.96 1698.51C1607.56 1704.52 1603.45 1708.73 1596.73 1707.83C1588.11 1706.73 1579.39 1705.23 1571.17 1702.52C1563.55 1700.01 1556.33 1696.5 1547.91 1696.8C1544.4 1696.9 1539.89 1696.5 1537.38 1694.5C1528.86 1687.68 1517.83 1688.98 1508.11 1685.88C1505.5 1681.36 1501.99 1678.36 1496.48 1677.35C1489.96 1676.15 1482.75 1676.65 1475.83 1677.66C1475.53 1677.66 1475.23 1677.46 1474.83 1677.35C1465.81 1675.15 1456.58 1673.65 1446.36 1671.54C1448.66 1653.49 1462.4 1641.56 1468.41 1626.23L1468.61 1626.33ZM1593.72 1657.81C1579.49 1649.99 1564.05 1645.88 1548.41 1641.67C1534.07 1637.76 1519.64 1636.75 1504.9 1637.55C1492.07 1638.16 1482.15 1633.24 1476.53 1619.21C1482.65 1607.28 1488.66 1594.05 1484.15 1577.7C1490.97 1577 1496.48 1576.5 1501.89 1576C1504.1 1584.12 1506.31 1592.24 1508.51 1600.16C1512.22 1596.55 1516.13 1592.84 1519.94 1589.13C1525.45 1595.15 1533.67 1595.25 1540.69 1596.55C1562.54 1600.66 1583 1607.28 1601.94 1619.31C1611.07 1625.12 1621.69 1628.73 1631.72 1633.04C1642.44 1637.66 1646.85 1649.79 1640.64 1660.11C1639.03 1662.82 1634.72 1665.83 1632.02 1665.63C1618.98 1664.42 1605.65 1664.42 1593.62 1657.81H1593.72ZM1619.99 1676.85C1623.6 1677.15 1628.31 1676.15 1631.32 1677.96C1638.33 1682.27 1645.65 1684.47 1653.67 1686.28C1662.79 1688.38 1671.62 1692.59 1680.04 1697C1689.86 1702.22 1690.46 1707.43 1683.65 1716.35C1681.84 1718.66 1679.53 1720.56 1676.73 1723.27C1673.52 1721.47 1671.62 1720.46 1668.81 1718.86C1666.8 1720.06 1664 1721.17 1662.09 1723.07C1653.07 1731.79 1644.95 1731.59 1635.12 1723.47C1628.61 1718.06 1619.99 1715.15 1612.87 1711.44C1615.38 1699.61 1617.58 1688.98 1620.19 1676.85H1619.99ZM1644.05 1674.65C1649.46 1665.32 1656.58 1656.5 1652.87 1643.87C1664.3 1643.07 1671.72 1649.79 1680.14 1653.09C1703.49 1662.12 1704 1663.92 1692.87 1685.98C1692.27 1687.18 1690.96 1688.08 1689.86 1689.29C1674.92 1684.57 1659.89 1679.76 1644.05 1674.75V1674.65ZM1038.65 1330.88C1053.08 1337.4 1068.12 1344.82 1081.65 1354.74C1113.23 1378.1 1148.32 1394.44 1184.51 1408.98C1257.29 1438.25 1329.87 1468.13 1402.55 1497.7C1414.78 1502.72 1426.61 1507.83 1440.64 1506.02C1447.66 1505.12 1455.08 1508.23 1462.3 1509.03C1481.24 1511.24 1500.19 1513.84 1519.14 1514.95C1534.17 1515.85 1543.6 1523.57 1550.31 1535.8C1551.62 1538.1 1551.32 1541.31 1551.82 1544.92C1546.2 1546.12 1541.39 1547.13 1536.38 1548.13C1528.56 1544.42 1521.04 1539.21 1512.72 1537.4C1503.6 1535.5 1493.77 1536.6 1484.25 1536.6C1483.65 1536.6 1483.05 1536.6 1482.45 1536.6C1482.45 1536.1 1482.15 1535.7 1481.34 1535.7C1454.88 1535.7 1432.52 1529.28 1409.16 1516.75C1408.76 1516.55 1408.16 1516.75 1407.76 1517.25C1344.8 1487.58 1280.65 1460.61 1215.58 1436.05C1182 1423.32 1148.32 1411.18 1116.04 1394.84C1089.67 1381.51 1064.81 1366.37 1041.25 1348.63C1038.95 1346.92 1036.04 1345.32 1034.74 1342.91C1032.43 1338.9 1032.03 1334.49 1038.45 1330.68L1038.65 1330.88ZM940.603 1293.89C965.565 1302.41 991.529 1308.23 1015.19 1320.46C1017.79 1321.76 1021 1322.46 1022.91 1324.47C1025.21 1326.87 1027.62 1330.28 1027.62 1333.29C1027.62 1337.3 1024.11 1339.1 1019.8 1338.9C1012.68 1338.7 1005.56 1338.9 997.143 1338.9C996.742 1338.4 994.938 1336.9 993.835 1335.09C985.113 1320.36 971.279 1312.54 955.841 1306.82C946.417 1303.31 936.292 1301.31 925.165 1293.69C932.382 1293.69 936.894 1292.59 940.603 1293.89ZM867.822 1301.41C871.231 1291.18 877.547 1287.77 888.273 1291.58C914.338 1300.91 940.503 1310.23 966.166 1320.86C986.817 1329.48 992.933 1342.71 988.522 1364.77C986.116 1376.9 981.705 1388.33 976.191 1400.96C954.938 1390.43 934.688 1380.61 914.638 1370.48C895.19 1360.66 875.943 1350.63 855.993 1340.31C860.203 1326.47 863.913 1313.84 868.023 1301.41H867.822ZM719.455 1257.2C720.557 1253.79 722.662 1250.68 724.567 1247.47C729.179 1239.55 736.296 1235.94 745.018 1238.15C761.258 1242.36 777.699 1246.57 793.438 1252.28C809.879 1258.2 825.818 1265.72 841.858 1272.94C845.667 1274.64 848.875 1277.85 852.083 1280.15C851.883 1315.64 834.039 1334.39 804.064 1343.51C800.556 1344.62 797.247 1346.22 793.839 1347.52C776.596 1354.44 764.366 1366.37 757.349 1383.62C755.945 1386.92 754.642 1390.33 753.238 1394.04C749.93 1394.04 747.023 1394.64 744.416 1394.04C724.467 1389.13 704.718 1383.62 684.769 1379.1C671.034 1376 657.1 1375.9 643.466 1380.11C640.96 1380.91 638.153 1380.71 633.341 1381.11C636.349 1376.3 637.852 1372.99 640.158 1370.38C649.08 1360.36 655.696 1348.93 659.606 1336.3C663.716 1322.96 671.736 1312.74 682.764 1305.02C700.307 1292.89 712.738 1277.35 719.555 1257.1L719.455 1257.2ZM263.424 1193.14C260.015 1181.11 259.414 1168.67 261.419 1156.04C265.93 1128.37 272.847 1101.71 288.787 1078.35C294 1078.35 293.097 1082.16 292.997 1084.56C292.496 1092.58 291.694 1100.6 290.591 1108.62C285.98 1143.01 284.376 1177.4 294 1211.28C297.408 1223.11 301.619 1234.74 307.132 1251.78C282.17 1235.54 269.94 1216.19 263.424 1193.14ZM207.986 1400.86C209.891 1396.95 212.197 1393.04 215.004 1389.93C218.914 1385.62 223.224 1381.51 227.936 1378C236.457 1371.69 241.971 1363.16 247.384 1354.34C253.499 1344.42 255.404 1333.89 252.697 1322.66C250.091 1311.73 250.091 1300.91 252.196 1289.88C253.499 1283.06 256.908 1277.85 262.722 1273.84C274.551 1265.72 287.083 1260.2 301.819 1263.01C304.325 1263.51 306.431 1265.82 312.044 1269.23C296.105 1271.53 282.872 1271.63 272.346 1279.95C269.84 1281.96 267.634 1284.47 261.619 1290.58C270.04 1288.38 273.649 1288.18 276.657 1286.57C297.007 1275.74 316.856 1279.45 335.503 1290.08C353.948 1300.61 373.397 1305.82 394.248 1306.12C405.175 1306.32 416.102 1304.72 427.03 1303.61C432.142 1303.11 437.155 1301.91 442.167 1300.71C465.024 1295.29 485.875 1298.5 503.92 1314.64C504.822 1315.44 506.326 1315.44 511.138 1316.85C491.991 1285.97 465.525 1288.78 435.851 1293.39C439.46 1288.88 441.265 1286.37 443.27 1284.17C448.783 1278.35 454.498 1272.74 460.112 1267.02C461.114 1266.02 461.916 1264.72 462.818 1263.51C478.557 1241.46 500.512 1234.44 526.276 1237.95C534.696 1239.05 542.315 1239.15 549.533 1234.44C556.45 1229.93 561.663 1224.01 563.568 1215.49C565.373 1207.17 567.879 1198.95 570.585 1188.82C573.192 1192.03 575.097 1193.44 575.297 1195.04C577.302 1209.78 577.402 1224.11 570.686 1238.05C567.277 1245.17 565.573 1253.39 564.17 1261.21C563.167 1266.82 563.969 1272.84 571.488 1276.25C572.089 1259.5 575.197 1243.86 584.52 1228.73C588.43 1229.63 592.44 1230.33 596.45 1231.43C619.106 1237.65 641.561 1233.54 664.117 1230.13C669.13 1229.33 674.142 1227.82 679.255 1227.42C695.194 1226.02 699.806 1229.33 704.618 1245.07C708.828 1259 706.522 1271.03 695.495 1281.16C686.272 1289.58 677.25 1298.2 668.228 1306.82C658.503 1316.05 650.885 1326.67 646.373 1339.4C644.669 1344.22 642.564 1349.03 640.058 1353.44C632.94 1365.77 627.326 1367.27 612.991 1360.06C604.269 1355.65 595.648 1353.34 583.217 1357.65C594.144 1360.56 605.873 1357.95 608.981 1371.99C563.368 1375.9 526.877 1397.75 493.194 1432.24C496.001 1410.18 505.223 1395.55 516.151 1382.01C526.677 1368.98 537.904 1356.45 548.731 1343.61C545.323 1339.81 543.518 1343.21 541.714 1344.72C536.601 1348.83 531.99 1353.84 526.476 1357.35C496.502 1376.6 482.667 1405.77 475.349 1439.05C472.643 1451.19 469.435 1463.32 467.43 1475.65C466.026 1484.47 460.713 1488.28 453.094 1490.08C445.074 1491.99 437.255 1491.89 429.235 1489.38C408.784 1482.87 389.537 1474.54 374.098 1458.7C360.765 1444.97 345.527 1433.64 329.588 1422.91C311.744 1410.88 293.097 1404.67 271.544 1406.97C256.206 1408.68 240.868 1409.98 225.53 1411.29C221.921 1411.59 218.212 1411.99 214.603 1411.89C208.889 1411.69 205.681 1406.17 208.387 1400.76L207.986 1400.86ZM651.987 1624.52C649.481 1633.14 643.065 1637.65 633.943 1637.86C631.737 1637.86 629.532 1637.96 627.326 1637.86C597.853 1636.85 568.781 1640.46 539.809 1645.47C519.258 1648.98 500.211 1655.9 481.665 1664.82C480.061 1665.63 479.059 1667.43 477.856 1668.93C475.75 1668.83 473.344 1668.03 471.64 1668.73C432.744 1683.97 393.947 1699.31 358.66 1722.47C338.51 1735.7 316.556 1746.23 295.102 1757.46C278.06 1766.48 260.015 1767.38 241.67 1761.47C214.102 1752.64 189.34 1738.81 168.689 1718.36C159.266 1709.13 150.444 1699.21 142.023 1688.98C129.993 1674.55 124.479 1656.7 118.966 1639.36C112.049 1617.8 107.036 1595.45 101.923 1573.39C98.2143 1557.35 100.219 1541.21 104.53 1525.47C106.735 1517.65 110.044 1510.33 118.164 1504.92C122.474 1505.52 127.487 1505.92 132.399 1506.93C143.727 1509.23 154.353 1506.52 164.378 1501.61C176.308 1495.7 184.528 1486.78 184.127 1472.44C183.827 1458.6 190.142 1446.97 196.257 1435.25C200.969 1426.12 208.287 1421.11 219.114 1420.81C230.141 1420.51 240.968 1418.6 251.996 1417.9C283.774 1415.8 313.247 1421.51 338.51 1442.56C350.841 1452.89 363.873 1462.41 376.705 1472.14C390.238 1482.36 404.574 1491.39 420.914 1496.2C428.533 1498.5 436.553 1500.21 444.573 1500.71C462.117 1501.71 472.141 1495 478.758 1478.86C482.667 1469.33 485.875 1459.61 490.086 1450.18C492.091 1445.67 494.697 1440.56 498.507 1437.65C515.95 1424.22 532.19 1409.28 551.739 1398.75C566.776 1390.63 582.716 1385.42 599.457 1382.61C605.773 1381.61 612.289 1382.41 619.306 1382.41C623.416 1393.04 622.113 1403.37 622.213 1413.29C622.715 1451.69 627.025 1489.38 639.055 1525.97C643.366 1539.21 647.977 1552.44 651.185 1565.97C653.892 1577.3 655.897 1589.03 656.298 1600.66C656.599 1608.48 654.193 1616.5 651.987 1624.22V1624.52ZM747.023 1629.33C763.664 1637.15 778.701 1640.06 788.526 1651.09C787.022 1656.1 783.513 1655 780.907 1655C764.767 1654.8 748.627 1654.4 732.487 1653.9C717.65 1653.39 707.024 1646.98 697.099 1635.25C667.025 1599.76 654.894 1556.95 643.667 1513.54C640.358 1500.71 637.852 1487.78 635.045 1474.85C629.832 1450.78 631.136 1426.62 634.043 1402.46C635.146 1393.24 640.258 1388.03 649.982 1387.12C660.107 1386.22 670.633 1386.12 680.558 1387.83C695.696 1390.43 710.532 1394.74 725.469 1398.65C752.837 1405.77 777.699 1418.5 799.653 1436.05C829.427 1460.01 856.093 1487.38 882.96 1514.54C890.779 1522.46 891.581 1530.79 886.469 1540.51C872.033 1567.78 857.397 1594.95 838.851 1619.61C830.029 1631.24 821.708 1643.57 807.272 1650.39C788.325 1640.26 773.088 1626.23 747.123 1629.23L747.023 1629.33ZM1315.93 1711.94C1284.15 1706.13 1252.48 1699.91 1220.9 1693.4C1170.57 1682.97 1120.45 1671.64 1068.62 1671.74C1048.07 1671.74 1027.52 1668.93 1007.07 1669.84C955.039 1672.14 902.809 1674.25 852.384 1689.69C844.665 1691.99 836.645 1693.19 828.625 1694.2C818.5 1695.3 813.688 1690.69 813.287 1680.46C813.287 1678.96 813.287 1677.56 813.287 1673.45C814.49 1671.04 815.994 1665.93 819.001 1662.12C836.445 1640.36 854.088 1618.81 867.321 1594.05C875.241 1579.31 884.564 1576.4 900.704 1581.41C912.533 1585.12 924.062 1590.24 935.791 1594.55C957.846 1602.57 979.7 1611.49 1002.16 1618.01C1019 1622.92 1036.64 1625.62 1054.08 1627.53C1102.3 1632.84 1150.62 1636.95 1198.84 1642.17C1221.5 1644.67 1244.06 1647.78 1266.41 1652.19C1283.25 1655.5 1299.89 1656.4 1316.84 1655.5C1321.25 1655.3 1325.66 1654.8 1330.07 1654.9C1346.41 1655.2 1354.03 1663.72 1352.62 1680.16C1351.42 1693.6 1344.2 1703.92 1333.28 1710.64C1328.87 1713.35 1321.75 1713.04 1316.23 1712.04L1315.93 1711.94ZM1487.16 1742.52C1481.14 1738.61 1473.72 1734.1 1466.61 1729.09C1459.19 1723.87 1451.37 1720.76 1442.15 1720.66C1428.91 1720.46 1415.78 1719.96 1402.55 1719.06C1388.51 1718.16 1374.88 1718.86 1361.55 1724.47C1354.73 1727.38 1354.33 1726.58 1339.89 1723.77C1339.99 1721.77 1339.29 1718.86 1340.39 1717.66C1351.12 1706.83 1355.63 1692.89 1360.14 1678.86C1365.46 1662.32 1371.27 1659.61 1387.81 1665.73C1396.03 1668.73 1403.95 1673.14 1412.47 1675.05C1426.01 1677.96 1439.84 1679.86 1453.67 1681.26C1458.89 1681.77 1464.1 1681.97 1469.31 1682.07C1475.83 1683.07 1482.35 1683.37 1488.96 1683.67C1489.16 1683.67 1489.36 1683.67 1489.56 1683.67C1491.57 1684.67 1493.47 1685.68 1495.58 1686.18C1496.58 1686.38 1497.38 1686.78 1498.29 1687.08C1500.69 1688.78 1502.9 1690.89 1505.9 1692.39C1506.31 1692.59 1506.71 1692.59 1507.11 1692.39C1517.63 1702.72 1515.73 1721.47 1506.1 1732.39C1501.59 1737.41 1496.28 1741.22 1487.26 1742.22L1487.16 1742.52ZM1560.94 1761.87C1553.42 1754.15 1544.7 1751.94 1533.97 1754.75C1524.05 1757.36 1515.13 1755.25 1508.31 1745.03C1511.92 1738.61 1516.63 1732.09 1519.34 1724.87C1522.04 1717.56 1522.65 1709.44 1524.45 1700.41C1530.47 1699.61 1533.87 1706.03 1539.29 1706.83C1545.8 1707.83 1552.22 1709.13 1558.74 1710.24C1564.45 1711.14 1570.36 1711.64 1576.08 1712.74C1584 1714.15 1587.11 1718.06 1587.01 1726.38C1586.91 1733.6 1586.3 1740.91 1586 1748.13C1586 1748.13 1586.1 1748.13 1586.2 1748.03C1578.18 1760.16 1577.88 1760.26 1561.04 1762.07L1560.94 1761.87ZM1662.89 1754.15C1661.79 1757.06 1658.78 1759.96 1655.98 1761.27C1652.87 1762.67 1648.86 1762.67 1645.25 1762.57C1640.14 1762.37 1635.02 1761.67 1630.01 1760.97C1619.49 1759.46 1609.46 1754.95 1598.33 1760.87C1592.32 1764.07 1588.81 1759.16 1586.7 1747.53C1596.33 1740.11 1593.52 1728.08 1596.33 1718.56C1598.33 1718.06 1600.04 1716.95 1601.04 1717.46C1605.45 1719.76 1609.36 1723.77 1613.87 1724.77C1617.68 1725.58 1621.69 1723.77 1625.9 1726.58C1634.92 1732.69 1644.55 1738.01 1653.87 1743.62C1655.78 1744.72 1658.08 1745.43 1659.39 1747.03C1661.09 1749.14 1663.7 1752.44 1662.99 1754.15H1662.89ZM1740.89 1747.83C1735.87 1747.73 1730.46 1747.73 1725.75 1746.03C1711.41 1740.81 1697.08 1740.21 1682.54 1744.82C1675.22 1747.13 1668.21 1747.53 1660.29 1737.31C1686.15 1738.41 1690.06 1718.96 1698.48 1704.42C1699.89 1704.42 1702.09 1703.82 1702.69 1704.42C1705.9 1708.23 1708.01 1713.25 1711.81 1716.05C1714.92 1718.46 1720.64 1717.36 1723.84 1719.66C1731.46 1725.18 1738.58 1731.59 1745.3 1738.31C1748.81 1741.72 1745.8 1747.83 1740.79 1747.73L1740.89 1747.83ZM1782.89 1724.47C1777.38 1722.97 1772.87 1719.16 1767.15 1718.06C1766.65 1718.06 1766.15 1718.06 1765.65 1718.46C1760.44 1716.55 1754.62 1716.15 1748.31 1717.05C1744.7 1717.56 1741.09 1718.06 1737.48 1717.96C1732.07 1717.96 1726.65 1715.95 1724.45 1711.24C1719.23 1700.31 1708.71 1697.81 1697.78 1692.79C1705 1683.77 1702.89 1668.53 1720.14 1665.42C1721.94 1668.43 1724.15 1671.94 1727.25 1676.95C1730.06 1676.95 1734.57 1675.65 1737.88 1677.15C1752.42 1683.77 1766.85 1690.89 1780.99 1698.31C1789.91 1703.02 1795.32 1709.84 1795.02 1719.36C1792.52 1723.37 1788.51 1725.98 1782.99 1724.57L1782.89 1724.47Z" fill="black"/>
<path fill-rule="evenodd" clip-rule="evenodd" d="M1856.18 1645.88C1856.18 1645.88 1856.08 1645.37 1855.98 1645.17L1855.57 1645.68C1855.77 1645.68 1855.98 1645.78 1856.18 1645.88Z" fill="black"/>
<path fill-rule="evenodd" clip-rule="evenodd" d="M476.753 831.324C476.753 831.324 476.753 831.124 476.753 831.023C476.753 831.023 476.753 831.023 476.652 831.124C476.652 831.525 476.652 831.926 476.753 832.226C476.753 831.926 476.753 831.725 476.753 831.424C476.753 831.424 476.753 831.424 476.753 831.324Z" fill="black"/>
<path fill-rule="evenodd" clip-rule="evenodd" d="M478.961 856.587C478.259 848.467 477.558 840.346 476.756 832.326C476.756 840.547 474.149 848.667 478.961 856.587Z" fill="black"/>
<path fill-rule="evenodd" clip-rule="evenodd" d="M472.844 879.346C472.844 879.346 472.443 879.346 472.242 879.346V888.569C472.242 888.569 472.643 888.569 472.844 888.569V879.346Z" fill="black"/>
<path fill-rule="evenodd" clip-rule="evenodd" d="M483.57 1094.29C483.57 1094.29 483.57 1094.69 483.57 1094.79L484.072 1094.39C483.871 1094.39 483.771 1094.29 483.57 1094.19V1094.29Z" fill="black"/>
<path fill-rule="evenodd" clip-rule="evenodd" d="M474.949 1082.05C475.35 1087.87 477.355 1092.58 483.571 1094.29C483.47 1088.27 481.465 1083.66 474.949 1082.05Z" fill="black"/>
<path fill-rule="evenodd" clip-rule="evenodd" d="M474.449 1081.96C474.449 1081.96 474.75 1081.96 474.95 1082.06C474.95 1081.86 474.95 1081.76 474.95 1081.55L474.549 1081.96H474.449Z" fill="black"/>
<path fill-rule="evenodd" clip-rule="evenodd" d="M1785.3 1642.07C1785.3 1642.07 1784.9 1641.66 1784.7 1641.36C1784.49 1641.36 1784.29 1641.36 1784.09 1641.36C1784.09 1641.56 1784.29 1641.76 1784.29 1641.96C1784.6 1641.96 1784.9 1641.96 1785.3 1641.96V1642.07Z" fill="black"/>
<path fill-rule="evenodd" clip-rule="evenodd" d="M1801.64 1645.88C1797.23 1640.36 1791.01 1642.27 1785.3 1642.07C1789.71 1647.48 1795.52 1647.08 1801.64 1645.88Z" fill="black"/>
<path fill-rule="evenodd" clip-rule="evenodd" d="M466.028 1068.32C464.825 1064.91 464.023 1061.4 462.42 1058.29C454.099 1042.76 445.277 1027.52 437.057 1011.98C427.433 993.732 420.014 974.584 414.902 954.634C412.696 946.012 411.594 937.491 414.1 928.568C428.836 876.136 437.658 822.602 442.671 768.365C443.874 755.232 444.676 741.999 445.578 728.765C449.387 675.331 453.698 621.896 457.006 568.361C460.014 519.238 461.918 470.014 464.625 420.89C465.928 397.431 468.936 374.072 469.537 350.613C470.339 315.425 469.537 280.136 469.437 244.847C469.437 241.137 469.537 237.428 468.635 233.919C468.033 231.814 465.627 230.11 462.52 226.4C461.618 232.616 460.715 236.125 460.615 239.734C459.613 270.511 458.911 301.389 458.009 332.267C457.608 346.904 457.307 361.641 456.505 376.278C455.202 399.035 453.297 421.692 451.994 444.349C449.989 481.042 448.786 517.734 446.279 554.326C441.267 629.816 436.054 705.306 430.139 780.696C427.132 818.792 421.318 856.587 413.298 893.881C412.596 897.29 412.696 901.4 405.478 902.603C403.574 889.269 401.268 875.936 400.666 862.402C397.358 792.726 393.048 723.051 391.444 653.275C388.937 544.602 388.436 435.828 386.632 327.154C386.13 297.78 384.326 268.506 382.922 239.132C382.822 236.426 381.018 233.819 380.015 231.213C377.208 235.423 377.208 238.932 377.208 242.541C377.008 329.259 377.008 415.877 376.506 502.596C375.905 609.164 380.115 715.532 385.629 821.9C387.835 863.705 392.647 905.31 395.052 947.115C397.659 991.226 404.476 1034.74 413.699 1077.74C417.408 1094.89 424.425 1111.23 430.24 1127.77C430.941 1129.67 433.347 1130.98 435.252 1132.48C431.543 1111.93 427.533 1091.38 424.125 1070.73C420.115 1046.97 416.606 1023.01 412.496 996.439C416.405 999.948 418.511 1000.95 419.313 1002.65C429.839 1025.61 445.878 1044.76 460.515 1064.91C461.618 1066.52 463.923 1067.12 465.728 1068.22C465.728 1074.54 468.936 1078.55 474.349 1081.15C475.251 1074.54 471.642 1070.63 465.928 1068.12L466.028 1068.32Z" fill="black"/>
<path fill-rule="evenodd" clip-rule="evenodd" d="M474.449 1081.96L474.85 1081.55C474.85 1081.55 474.549 1081.45 474.449 1081.35C474.449 1081.55 474.449 1081.75 474.449 1081.96Z" fill="black"/>
<path fill-rule="evenodd" clip-rule="evenodd" d="M487.48 1104.21C487.48 1104.21 487.881 1104.41 488.082 1104.51C488.082 1104.31 488.082 1104.11 487.982 1103.81L487.48 1104.21Z" fill="black"/>
<path fill-rule="evenodd" clip-rule="evenodd" d="M487.48 1104.21L487.881 1103.81C487.781 1103.81 487.681 1103.71 487.581 1103.61C487.581 1103.81 487.581 1103.91 487.48 1104.11V1104.21Z" fill="black"/>
<path fill-rule="evenodd" clip-rule="evenodd" d="M483.871 1094.99C482.668 1098.9 483.871 1101.91 487.581 1103.71C488.784 1099.8 488.483 1096.49 483.871 1094.99Z" fill="black"/>
<path fill-rule="evenodd" clip-rule="evenodd" d="M483.569 1094.89C483.569 1094.89 483.77 1094.89 483.87 1094.99C483.87 1094.79 483.87 1094.69 483.97 1094.49L483.469 1094.89H483.569Z" fill="black"/>
<path fill-rule="evenodd" clip-rule="evenodd" d="M436.052 1133.18L435.551 1133.68C436.253 1134.69 436.954 1135.69 437.556 1136.79C437.055 1135.59 436.453 1134.49 435.952 1133.18H436.052Z" fill="black"/>
<path fill-rule="evenodd" clip-rule="evenodd" d="M426.23 1275.14C426.23 1275.14 426.331 1274.74 426.431 1274.64C426.23 1274.64 425.93 1274.64 425.729 1274.64C425.729 1275.54 425.629 1276.45 425.629 1277.45C425.829 1276.75 426.13 1275.94 426.331 1275.24L426.23 1275.14Z" fill="black"/>
<path fill-rule="evenodd" clip-rule="evenodd" d="M425.527 1277.35C425.026 1278.85 424.525 1280.36 424.324 1281.96C424.124 1283.66 424.625 1285.47 424.725 1287.27H424.926C425.126 1284.06 425.327 1280.66 425.427 1277.35H425.527Z" fill="black"/>
<path fill-rule="evenodd" clip-rule="evenodd" d="M1776.08 1637.45C1776.08 1637.45 1776.08 1637.15 1775.98 1637.05C1775.77 1637.05 1775.47 1636.85 1775.27 1636.85C1775.37 1637.05 1775.47 1637.25 1775.57 1637.55H1776.08V1637.45Z" fill="black"/>
<path fill-rule="evenodd" clip-rule="evenodd" d="M1784.09 1641.36C1782.69 1637.55 1779.38 1637.35 1776.07 1637.45C1777.18 1641.96 1780.79 1641.46 1784.09 1641.36Z" fill="black"/>
<path fill-rule="evenodd" clip-rule="evenodd" d="M1855.98 1645.17C1855.98 1645.17 1855.57 1645.27 1855.27 1645.37C1855.27 1645.47 1855.37 1645.57 1855.47 1645.68L1855.87 1645.17H1855.98Z" fill="black"/>
<path fill-rule="evenodd" clip-rule="evenodd" d="M1855.37 1645.37C1853.27 1641.96 1850.26 1641.16 1846.55 1641.86C1848.05 1646.78 1851.56 1646.68 1855.37 1645.37Z" fill="black"/>
<path fill-rule="evenodd" clip-rule="evenodd" d="M1846.45 1641.87C1846.45 1641.87 1846.45 1641.67 1846.35 1641.46C1846.15 1641.46 1845.85 1641.46 1845.65 1641.46C1845.75 1641.67 1845.85 1641.77 1845.95 1641.97C1846.15 1641.97 1846.25 1641.97 1846.45 1641.97V1641.87Z" fill="black"/>
<path fill-rule="evenodd" clip-rule="evenodd" d="M139.918 1596.75C135.006 1582.11 135.708 1565.77 126.585 1547.23C125.282 1576.3 127.387 1600.06 139.016 1621.91C149.342 1641.16 160.87 1659.71 171.998 1678.56C172.9 1680.06 174.905 1681.06 180.619 1685.78C170.695 1667.33 162.575 1653.9 156.159 1639.66C149.843 1625.82 144.831 1611.29 139.918 1596.75Z" fill="black"/>
<path fill-rule="evenodd" clip-rule="evenodd" d="M1733.27 1642.17C1731.76 1641.06 1730.76 1640.46 1729.76 1639.76C1729.16 1640.86 1728.15 1642.07 1728.05 1643.17C1728.05 1644.27 1729.06 1645.27 1729.66 1646.38C1730.86 1644.97 1732.06 1643.57 1733.27 1642.17Z" fill="black"/>
<path fill-rule="evenodd" clip-rule="evenodd" d="M1789.21 1663.02C1789.01 1663.62 1790.21 1664.82 1790.81 1665.72C1791.42 1664.62 1792.02 1663.52 1792.72 1662.42C1792.42 1661.82 1792.12 1661.21 1791.82 1660.51C1790.91 1661.31 1789.61 1662.02 1789.21 1663.12V1663.02Z" fill="black"/>
</g>
<defs>
<clipPath id="clip0_157_324">
<rect width="1815" height="1549" fill="white" transform="translate(92 226)"/>
</clipPath>
</defs>
</svg>
