<svg width="2000" height="2000" viewBox="0 0 2000 2000" fill="none" xmlns="http://www.w3.org/2000/svg">
<g clip-path="url(#clip0_157_312)">
<path d="M995.943 1619.77C988.976 1632.65 995.246 1651.64 1008.48 1652.34C1012.84 1642.23 1008.14 1628.3 1003.43 1619.77H995.943Z" fill="black"/>
<path d="M1151.31 1494.36C1149.4 1506.72 1147.31 1517.87 1153.75 1526.93C1168.9 1526.23 1166.81 1492.79 1151.31 1494.36Z" fill="black"/>
<path d="M1101.15 1506.9C1100.28 1469.1 1113.52 1419.11 1106.2 1391.59C1095.23 1418.07 1079.72 1479.55 1101.15 1506.9Z" fill="black"/>
<path d="M928.187 860.171C927.664 850.417 930.625 840.663 928.187 827.599C923.136 800.95 894.745 737.375 875.585 719.782C861.825 707.067 843.362 700.971 822.983 707.242C821.067 707.764 820.022 709.332 820.544 712.293C897.88 720.131 891.958 811.226 928.361 860.171H928.187Z" fill="black"/>
<path d="M1116.3 882.813C1115.78 880.897 1114.21 879.852 1111.25 880.374C1096.97 933.847 1050.64 955.097 1010.92 983.14C1073.11 976.695 1105.85 940.989 1116.13 882.813H1116.3Z" fill="black"/>
<path d="M619.891 724.833C632.432 707.763 659.778 707.937 665.004 684.771C620.24 689.823 583.14 727.445 599.861 777.435C610.486 758.101 608.918 739.638 619.891 724.833Z" fill="black"/>
<path d="M366.635 571.903C314.033 567.897 297.834 641.749 326.574 674.668C325.529 654.812 322.742 636.697 324.135 614.577C330.754 592.804 353.92 587.579 366.809 571.903H366.635Z" fill="black"/>
<path d="M1076.07 707.416C1085.3 666.832 1126.06 668.574 1161.24 654.813C1079.72 621.545 1027.64 740.161 1073.45 792.589C1081.47 762.63 1070.67 731.104 1075.89 707.416H1076.07Z" fill="black"/>
<path d="M291.563 727.446C294.872 741.206 295.395 756.011 295.046 771.165C293.13 781.79 292.608 793.111 293.13 804.955C292.259 816.8 291.563 828.644 291.737 840.14C293.13 942.208 359.144 1027.56 454.768 1013.1C482.811 1008.92 499.184 990.108 524.963 978.089C519.215 1053.86 553.702 1106.98 592.544 1146C587.493 1272.28 630.689 1402.22 712.902 1454.3C802.43 1511.08 927.142 1454.3 941.077 1366.51C954.488 1410.75 991.763 1431.13 1028.86 1451.68C1028.86 1463.18 1027.82 1476.24 1031.3 1484.25C1010.75 1496.97 994.898 1514.56 981.138 1534.42C934.632 1513.69 831.344 1490.18 770.555 1514.39C730.494 1530.24 690.607 1579.7 682.769 1622.2C674.931 1665.05 701.754 1740.99 742.861 1735.07C784.838 1728.98 781.703 1634.57 815.493 1619.77C849.633 1638.05 862.87 1670.97 895.616 1692.4C933.935 1717.48 1005.87 1728.1 1063.52 1707.38C1080.77 1701.28 1092.44 1680.38 1113.69 1672.37C1124.49 1668.19 1138.07 1671.15 1148.7 1667.32C1184.58 1654.6 1200.95 1625.86 1218.89 1597.12C1255.82 1623.77 1318.35 1630.22 1354.23 1604.61C1366.25 1596.08 1375.48 1576.22 1386.8 1574.48C1398.3 1572.74 1413.62 1585.45 1424.42 1587.02C1520.57 1600.95 1600.87 1548.7 1624.9 1474.15C1673.67 1457.78 1709.21 1401.87 1712.69 1346.3C1714.61 1315.3 1700.5 1285.52 1700.15 1248.59C1700.15 1237.79 1704.5 1226.12 1705.2 1216.02C1715.48 1074.41 1659.22 972.864 1562.37 932.803C1575.09 903.018 1582.93 872.188 1582.4 842.578C1581.53 786.667 1583.1 713.511 1569.86 667.18C1564.64 648.717 1550.18 631.473 1547.39 612.139C1543.56 587.58 1552.97 564.414 1544.96 541.945C1531.37 504.496 1479.99 464.261 1437.14 459.21C1367.47 451.023 1291.35 471.577 1226.56 464.261C1195.73 460.777 1168.55 441.095 1138.77 436.741C1105.33 431.864 1067.7 447.54 1033.57 444.23C998.033 440.921 965.636 417.407 948.392 399.118C935.329 385.184 916.169 343.729 913.382 313.944C910.769 286.076 917.911 272.141 903.28 266.394C884.12 258.556 828.208 291.65 820.545 298.965C759.756 357.489 810.791 513.902 885.688 554.66C949.611 589.496 1005.52 547.17 1051.16 587.232C1003.43 603.953 982.705 672.231 991.066 737.548C995.42 771.339 1017.19 796.769 1018.59 820.283C1008.66 823.767 996.466 824.986 986.015 827.773C961.456 777.435 965.81 709.331 935.851 664.915C922.439 644.885 904.499 633.912 885.688 619.803H858.167C831.518 587.232 795.289 564.066 742.861 557.099C677.892 478.544 511.377 519.127 457.033 579.568C412.443 503.8 226.42 497.181 236.348 619.629C239.831 661.954 283.028 691.913 291.388 727.446H291.563ZM975.912 1376.61C965.636 1362.5 944.56 1323.49 945.779 1308.86C948.218 1279.94 988.279 1278.2 985.841 1243.71C952.747 1235.53 944.212 1276.28 920.698 1288.82C903.628 1297.88 885.513 1291.26 872.972 1308.86C869.315 1320.87 887.429 1311.12 885.513 1321.4C870.534 1345.78 853.813 1368.25 830.299 1384.1C696.877 1382.18 673.537 1270.19 659.777 1148.44C648.978 1221.24 666.048 1310.07 714.992 1361.46C741.816 1389.67 792.85 1421.2 837.788 1406.57C874.888 1394.38 891.261 1352.05 910.421 1316.35C901.886 1382.53 870.011 1437.05 797.553 1436.7C772.123 1436.7 740.771 1430.26 719.869 1414.06C695.658 1395.25 664.132 1357.1 652.288 1328.89C625.986 1266.53 636.089 1187.8 632.257 1125.79C631.909 1120.92 627.206 1117.26 629.818 1113.25C572.339 1078.07 568.507 989.063 569.552 895.18C626.857 909.463 656.468 875.324 672.318 839.965C700.361 921.307 720.914 1057.52 682.42 1140.77C706.806 1141.82 712.379 1123.88 720.043 1108.2C740.945 1145.82 730.146 1209.4 725.094 1256.08C732.41 1264.44 737.461 1249.98 742.686 1256.08C749.828 1282.38 767.942 1297.71 787.799 1311.29C787.973 1320.53 777.522 1327.32 785.36 1336.38C871.231 1317.22 799.991 1155.93 870.534 1120.74C907.286 1120.39 934.109 1123.53 953.269 1138.33C973.648 1154.01 979.222 1179.61 998.381 1195.99C1008.31 1186.76 1001.34 1160.45 1003.43 1143.39C1043.84 1155.75 1064.4 1212.88 1068.58 1258.69C1073.63 1314.08 1032.35 1365.99 1030.95 1414.06C1014.58 1405.35 989.847 1395.6 975.738 1376.44L975.912 1376.61ZM795.463 958.059C825.944 936.809 836.395 895.354 838.137 845.191C847.891 850.59 858.516 854.945 870.708 857.732C878.372 905.805 932.019 934.022 935.851 985.579C938.986 1027.21 901.886 1051.24 883.249 1083.29C797.727 1103.15 740.074 1038.01 732.758 955.446C736.764 948.131 740.248 958.233 747.738 960.497C757.143 963.11 770.381 960.846 775.258 962.936C793.373 970.774 802.778 1003.87 825.422 1013.1C840.749 1019.37 853.464 1011.53 875.585 1015.71C848.587 996.901 811.836 987.495 795.463 958.059ZM800.514 1273.85C786.405 1259.21 759.93 1249.98 755.402 1223.68C753.66 1213.93 759.408 1204.17 760.453 1193.55C764.981 1148.26 752.789 1103.67 737.984 1070.75C756.795 1097.05 781.529 1117.43 810.616 1133.46C796.16 1173.17 792.676 1224.55 800.514 1273.85ZM725.269 1695.01C712.379 1683.51 709.244 1662.61 705.238 1642.41C725.791 1645.2 732.062 1672.89 725.269 1695.01ZM1171.52 1514.56C1177.79 1527.28 1193.64 1523.1 1206.7 1519.61C1205.48 1577.79 1184.58 1616.11 1146.61 1637.36C1145.04 1614.71 1173.26 1587.37 1161.59 1554.62C1136.68 1592.94 1091.04 1660 1041.23 1669.93C946.65 1688.74 887.081 1638.05 835.698 1599.73C837.788 1587.54 858.167 1593.81 855.729 1577.09C812.184 1541.04 770.033 1601.48 763.065 1642.23C752.44 1631.09 741.641 1620.11 730.494 1609.66C745.125 1511.77 911.814 1533.72 976.261 1572.04C975.912 1587.54 981.138 1596.77 991.24 1597.12C1008.66 1597.47 1003.43 1575.52 1011.27 1554.45C1019.28 1533.02 1035.48 1525.71 1041.4 1516.83C1052.38 1526.75 1053.42 1546.61 1076.41 1544.35C1089.48 1519.44 1066.66 1498.19 1063.87 1474.15C1056.91 1412.84 1100.62 1357.97 1116.47 1311.29C1107.07 1299.62 1098.53 1313.56 1088.95 1316.35C1116.3 1247.89 1086.34 1120.05 1008.83 1115.87C1003.08 1115.52 992.459 1119.7 986.189 1118.3C967.378 1114.47 954.314 1092 936.025 1085.73C944.212 1067.97 955.882 1053.68 958.669 1030.52C987.757 1084.69 1067.18 1078.76 1114.04 1038.01C1164.55 1078.24 1222.72 1154.88 1216.8 1243.54C1214.54 1276.28 1195.03 1301.37 1194.16 1336.2C1201.13 1345.61 1208.79 1326.27 1214.19 1333.76C1231.78 1408.66 1205.13 1474.67 1171.52 1514.21V1514.56ZM1144 1008.22C1149.39 987.843 1154.79 967.29 1158.97 945.518C1190.85 950.917 1218.72 943.428 1231.61 922.875C1242.23 938.899 1247.63 960.323 1256.69 978.089C1215.06 984.011 1185.97 1002.65 1151.48 1015.71C1150.09 1012.05 1147.65 1009.62 1144 1008.22ZM1462.39 1554.62C1408.57 1560.89 1340.12 1513.69 1299.54 1557.06C1310.16 1564.9 1330.72 1562.46 1347.09 1564.55C1324.62 1593.99 1258.61 1591.55 1229.34 1569.6C1249.9 1549.22 1235.79 1519.44 1239.45 1494.36C1243.45 1465.27 1269.06 1435.48 1254.42 1399.08C1276.72 1428.52 1301.8 1455.17 1342.21 1466.84C1372.52 1501.5 1411.01 1544.87 1472.5 1537.03C1515 1531.63 1545.13 1499.93 1575.26 1479.38C1548.79 1514.56 1514.47 1548.35 1462.39 1554.62ZM1645.46 1321.57C1661.66 1318.61 1674.37 1298.75 1683.08 1296.49C1692.49 1379.4 1662.87 1445.06 1587.8 1451.86C1588.85 1434.96 1585.02 1422.94 1575.26 1416.85C1543.04 1442.97 1513.43 1501.85 1442.36 1489.48C1420.59 1485.65 1412.06 1469.45 1389.76 1461.96C1390.98 1452.38 1389.07 1445.93 1384.71 1441.93C1302.5 1427.99 1265.57 1368.95 1229.34 1309.03C1274.28 1220.72 1221.5 1113.77 1184.23 1053.33C1222.2 1041.32 1255.64 1010.14 1299.54 1013.27C1381.4 1019.2 1403.17 1111.51 1389.76 1211.32C1371.47 1204.52 1326.88 1195.81 1322.01 1221.24C1350.92 1236.22 1380.01 1236.57 1399.69 1258.87C1418.5 1280.12 1424.25 1311.12 1442.36 1334.11C1431.56 1338.29 1419.89 1341.78 1417.28 1354.14C1479.29 1398.04 1545.13 1317.56 1590.24 1298.93C1607.49 1291.79 1622.64 1294.57 1625.25 1281.34C1629.43 1261.3 1598.25 1246.85 1585.19 1231.17C1562.37 1204.17 1560.63 1175.78 1565.16 1130.84C1582.75 1141.64 1612.36 1134.85 1615.32 1115.87C1588.67 1093.05 1550.53 1089.74 1527.54 1063.26C1518.31 1052.64 1517.61 1039.92 1504.89 1030.69C1484.52 1034 1494.1 1065.88 1502.46 1075.8C1492.01 1100.36 1463.96 1107.5 1429.82 1108.38C1425.99 1089.74 1426.34 1066.75 1424.77 1045.67C1471.8 1028.25 1514.47 993.243 1545.13 967.987C1654.51 995.682 1697.54 1194.77 1645.46 1321.4V1321.57ZM1565.33 1263.92C1539.9 1287.95 1510.29 1307.46 1475.11 1321.57C1458.04 1292.66 1443.06 1261.65 1422.51 1236.4C1428.95 1206.79 1429.47 1171.43 1430 1136.07C1473.37 1140.08 1503.5 1131.02 1522.83 1110.99C1527.19 1113.25 1530.15 1117.08 1535.38 1118.48C1524.58 1173.17 1528.58 1241.8 1565.51 1263.92H1565.33ZM1018.41 536.894C975.041 526.269 921.568 540.203 888.126 514.425C841.098 478.021 831.692 412.53 832.911 328.924C848.065 320.737 861.651 310.809 880.462 306.281C883.075 350.522 902.757 391.28 928.013 424.026C953.443 456.946 1033.39 521.914 1090.87 481.679C1093.31 470.009 1074.5 479.589 1075.89 469.138C1131.11 448.585 1163.33 488.82 1221.33 494.22C1313.65 502.755 1420.07 472.796 1479.46 514.25C1517.78 543.513 1487.65 641.575 1527.19 669.618C1539.38 662.477 1523.36 642.446 1532.24 631.996C1552.1 650.284 1554.71 697.139 1549.83 732.323C1543.39 743.644 1540.6 710.55 1524.75 714.731C1531.72 762.107 1554.71 795.724 1552.27 845.017C1547.92 935.59 1487.3 986.973 1414.5 1012.93C1396.21 1001.95 1394.46 987.321 1376.87 977.915C1360.15 968.858 1343.78 976.522 1324.27 970.426C1296.92 961.717 1276.89 912.946 1264.18 887.69C1269.4 877.936 1273.41 866.789 1281.77 860.17C1299.01 938.028 1446.02 998.991 1502.28 917.823C1474.06 919.565 1456.82 942.557 1424.6 942.905C1362.94 943.602 1287.17 885.426 1286.65 827.599C1286.65 808.265 1300.93 790.15 1301.63 772.384C1304.24 709.157 1251.46 676.411 1221.33 639.485C1219.76 620.326 1226.03 609.178 1228.82 594.373C1280.38 569.988 1343.43 581.658 1371.65 626.944C1391.5 658.993 1399.17 724.31 1381.75 762.281C1373.74 779.525 1356.32 785.273 1346.74 804.955C1354.93 811.052 1371.82 808.265 1379.31 815.058C1388.72 827.424 1385.23 839.791 1391.85 852.68C1408.22 884.381 1473.89 901.973 1494.62 867.66C1486.78 846.758 1460.48 858.254 1444.45 852.68C1417.63 843.275 1407.18 813.664 1404.39 789.976C1458.56 766.81 1474.06 825.508 1507.16 840.14C1506.81 794.679 1471.97 761.585 1414.32 764.894C1434.18 700.448 1416.41 625.551 1386.8 594.373C1371.3 578 1336.11 553.789 1309.12 549.26C1228.3 535.674 1165.94 601.166 1088.43 571.73C1066.31 563.369 1045.93 543.513 1018.24 536.72L1018.41 536.894ZM1191.37 594.547C1191.02 602.559 1185.62 605.52 1186.32 614.578C1175.52 612.836 1170.99 604.998 1161.24 602.037C1167.34 595.592 1179.7 595.418 1191.37 594.547ZM875.585 652.2C927.665 689.649 935.154 771.513 948.218 847.803C948.566 853.377 958.843 848.848 963.197 850.242C961.281 859.822 957.624 874.627 965.636 880.375C987.408 876.195 989.847 852.855 1010.75 847.803C1009.53 869.053 1009.18 908.94 1028.34 917.998C1048.2 901.799 1032 867.66 1040.88 845.365C1047.85 827.773 1064.05 831.605 1068.4 815.232C1039.14 779.177 1005.52 691.739 1043.32 639.834C1079.55 590.018 1145.39 632.866 1186.15 659.864C1225.34 685.643 1278.11 723.788 1258.78 792.763C1255.12 805.652 1244.15 812.968 1238.75 822.896C1225.86 846.758 1220.46 873.408 1201.13 903.192C1188.59 905.631 1176.92 909.115 1161.06 908.244C1155.32 881.42 1159.32 843.101 1161.06 815.58C1178.31 804.085 1208.27 782.312 1196.07 757.927C1178.48 756.359 1174.82 774.126 1163.5 783.009C1142.6 799.207 1111.08 801.646 1093.31 823.07C1095.92 841.01 1122.05 839.965 1135.98 833.172C1132.67 882.813 1133.02 938.551 1108.46 973.561C1098.71 987.495 1075.54 1008.74 1060.91 1013.62C1004.83 1032.61 973.474 988.54 958.146 946.04C968.074 944.299 998.73 950.395 1000.82 933.5C972.429 908.418 921.046 909.289 908.157 870.795C905.892 864.002 909.898 859.299 905.718 850.764C889.345 831.431 860.606 830.037 837.963 818.193C816.016 806.523 800.166 784.228 777.871 783.009C773.516 804.955 798.598 819.238 812.881 830.734C807.655 862.26 804.868 896.225 782.748 910.856C767.42 908.94 759.233 914.166 745.125 913.295C707.676 858.428 666.222 681.462 770.207 667.702C769.51 682.159 746.518 695.919 745.125 717.866C796.856 714.382 796.159 636.873 875.411 652.723L875.585 652.2ZM304.103 559.363C352.351 525.572 400.076 573.994 434.389 599.424C434.389 609.178 414.01 607.262 421.849 617.016C449.717 623.809 473.406 599.772 499.532 586.883C548.303 563.021 618.671 523.308 692.523 561.801C704.367 568.072 713.947 581.309 727.533 586.883C758.885 599.947 798.424 595.592 810.268 631.996C775.955 635.131 741.119 638.092 717.605 652.026C693.394 626.944 634.521 624.332 597.247 639.485C578.61 632.17 569.727 615.274 549.522 609.352C535.239 611.268 544.296 623.809 536.981 629.383C510.506 646.452 439.092 680.94 394.154 659.516C374.472 650.11 374.646 617.539 346.603 624.332C339.984 661.083 367.33 685.469 396.767 694.526C403.386 738.767 421.326 775.867 414.359 817.322C410.527 839.965 394.328 863.48 404.256 897.445C447.453 888.736 434.041 836.656 454.42 809.658C478.283 778.132 512.422 770.99 554.747 757.056C568.507 699.751 614.316 636.524 692.697 676.76C662.216 704.977 679.634 750.263 670.054 794.505C662.912 827.947 628.425 850.416 609.962 869.75H574.952C573.733 845.365 588.19 793.982 567.462 781.964C546.909 859.648 528.272 967.813 439.615 974.954C384.052 979.483 336.327 917.649 326.747 874.627C319.954 843.449 327.443 821.677 321.696 786.841C338.068 841.185 337.546 901.625 376.91 929.668C438.396 973.561 524.788 910.856 527.227 841.881C515.034 847.455 517.473 862.086 512.247 872.014C496.397 901.625 458.949 933.5 414.533 927.229C349.913 918.172 359.492 832.824 339.288 774.3C337.023 763.675 355.835 774.3 354.267 764.197C338.939 715.95 220.846 617.016 304.103 558.666V559.363ZM569.727 652.026C558.057 672.231 539.071 706.37 524.614 732.323C486.643 731.103 472.186 753.398 446.93 764.894C443.621 736.503 430.209 718.214 421.849 694.7C477.586 691.042 524.963 679.198 554.747 649.588C562.411 647.846 563.979 652.2 569.727 652.026Z" fill="black"/>
<path d="M1196.42 699.75C1198.17 687.035 1191.2 683.203 1178.83 684.771C1179.88 690.867 1174.3 690.17 1176.39 697.312C1181.27 700.273 1190.5 705.498 1196.42 699.75Z" fill="black"/>
<path d="M1665.14 1338.99C1649.11 1372.43 1613.76 1386.19 1587.46 1409.18C1630.83 1404.83 1665.66 1378.7 1665.14 1338.99Z" fill="black"/>
<path d="M1123.79 1088.34C1160.54 1145.82 1169.25 1242.84 1153.92 1331.5C1200.78 1267.92 1179.18 1124.92 1123.79 1088.34Z" fill="black"/>
<path d="M1354.4 1386.71C1313.3 1367.9 1302.5 1325.75 1284.21 1283.95C1281.08 1283.95 1280.73 1280.81 1276.72 1281.51C1282.64 1362.85 1330.02 1414.76 1412.06 1411.8C1398.65 1390.55 1373.39 1395.42 1354.4 1386.71Z" fill="black"/>
<path d="M1474.76 687.21C1491.31 630.079 1473.02 532.887 1414.67 534.28C1466.92 553.092 1458.91 632.169 1474.76 687.21Z" fill="black"/>
<path d="M1208.96 519.301C1175.52 510.244 1157.06 486.033 1116.3 484.291C1116.13 488.645 1116.82 492.129 1118.74 494.393C1149.05 500.49 1177.09 546.647 1208.96 519.475V519.301Z" fill="black"/>
<path d="M1186.32 551.874C1167.86 540.204 1148.7 546.823 1126.23 541.771C1096.97 535.327 1070.84 514.251 1041.06 506.761C988.976 493.524 939.161 487.776 905.719 459.211C879.592 436.741 860.084 401.557 863.045 354.006C859.91 354.006 859.561 350.871 855.555 351.568C846.15 439.354 907.461 483.944 970.862 504.497C990.544 510.768 1014.41 508.503 1038.62 514.599C1084.77 526.269 1130.76 566.505 1186.5 552.222L1186.32 551.874Z" fill="black"/>
<path d="M1354.4 1193.55C1376 1144.08 1308.94 1019.72 1241.54 1065.7C1320.09 1067.27 1318.35 1149.31 1354.4 1193.55Z" fill="black"/>
</g>
<defs>
<clipPath id="clip0_157_312">
<rect width="1477.04" height="1470.42" fill="white" transform="translate(236 265)"/>
</clipPath>
</defs>
</svg>
