<svg width="2000" height="2000" viewBox="0 0 2000 2000" fill="none" xmlns="http://www.w3.org/2000/svg">
<g clip-path="url(#clip0_157_313)">
<path d="M1270.53 1337.8C1241.4 1372.06 1197.99 1380.05 1168.68 1414.88C1189.43 1419.45 1210.37 1404.79 1226.55 1395.66C1243.88 1385.76 1264.82 1376.24 1278.9 1365.4C1295.47 1352.64 1305.18 1330.19 1320.22 1313.06C1368 1258.81 1418.45 1224.37 1482.61 1189.16C1370.1 1181.73 1323.07 1276.13 1270.72 1337.8H1270.53Z" fill="black"/>
<path d="M786.014 652.448C825.613 629.99 875.492 629.229 918.137 602.965C792.868 598.968 743.75 670.719 675.785 724.01C725.664 720.964 748.129 673.764 785.824 652.448H786.014Z" fill="black"/>
<path d="M1545.82 520.363C1607.31 566.421 1645.19 649.782 1636.63 759.789C1633.96 793.476 1620.25 829.637 1628.25 861.611C1676.8 746.276 1656.04 551.195 1545.62 520.363H1545.82Z" fill="black"/>
<path d="M846.555 784.531C863.689 778.631 880.632 748.751 912.616 748.751C897.195 767.593 862.737 800.899 874.159 820.312C901.764 804.706 939.84 773.683 923.658 732.193C888.248 729.338 854.36 750.654 846.555 784.531Z" fill="black"/>
<path d="M802.387 726.674C837.797 708.974 849.791 667.674 904.239 668.816C877.396 692.416 837.416 703.074 832.657 748.561C859.691 742.28 868.067 721.154 890.532 704.596C918.518 683.661 939.459 671.1 915.281 646.738C853.979 649.593 817.427 677.38 802.387 726.483V726.674Z" fill="black"/>
<path d="M959.449 847.908C968.016 870.366 1035.03 868.272 1031.03 836.869C1012.56 835.347 967.064 829.447 959.449 847.908Z" fill="black"/>
<path d="M202.125 1026.81C220.782 1066.4 255.431 1087.14 271.042 1125.97C280.561 1149.76 279.038 1177.74 290.27 1203.05C299.789 1224.56 323.967 1257.67 342.624 1274.61C359.377 1289.65 385.078 1292.88 406.02 1307.73C475.698 1357.02 478.173 1466.65 554.705 1494.81C576.408 1528.69 580.597 1567.9 593.162 1602.16C620.957 1676.76 682.83 1727.58 772.117 1734.24C883.489 1742.42 941.364 1682.28 984.199 1621.38C1005.14 1591.69 1023.99 1558.57 1044.74 1527.74C1055.59 1533.64 1077.29 1530.02 1088.72 1527.74C1133.65 1568.28 1156.49 1627.47 1207.13 1657.16C1245.4 1679.62 1320.03 1685.52 1369.52 1681.9C1520.3 1671.24 1529.25 1517.27 1545.81 1379.1C1614.16 1357.78 1632.44 1303.73 1647.67 1230.46C1653.76 1201.15 1650.52 1166.7 1661.37 1136.82C1683.46 1076.49 1754.28 1026.81 1818.25 999.215C1851.37 984.94 1889.83 966.86 1898.01 933.173C1901.06 921.182 1896.87 905.766 1898.01 891.873C1905.06 805.467 1938.95 716.967 1920.1 638.554C1910.39 598.015 1889.07 550.625 1873.27 506.47C1846.04 430.151 1811.2 369.439 1752.18 335.752C1695.26 303.397 1630.15 279.416 1554 266.855C1429.49 246.49 1366.67 330.232 1308.98 396.274C1278.9 394.751 1269.39 413.593 1248.44 421.016C1223.12 396.655 1236.83 340.51 1201.61 327.377C1184.67 321.097 1133.27 325.855 1116.32 335.561C1096.14 347.171 1103.57 368.487 1088.72 382.38C1039.41 401.032 1018.47 355.545 981.343 360.303C957.355 363.348 946.123 402.935 915.282 398.748C898.529 396.464 881.966 368.487 862.928 360.303C840.463 350.597 823.71 350.406 791.346 349.264C739.372 357.068 766.977 471.832 716.908 473.164C686.257 473.925 686.066 430.342 672.93 396.084C658.842 359.542 612.771 297.877 582.12 283.223C547.852 266.855 498.734 266.855 463.704 269.519C326.632 279.226 273.517 317.1 207.646 393.419C181.183 424.061 153.198 460.983 136.063 495.241C90.7534 586.406 51.1547 752.747 89.4208 861.612C110.362 921.563 151.674 999.405 202.315 1026.81H202.125ZM1017.13 1500.33C949.169 1519.36 916.615 1595.49 865.784 1635.27C840.273 1655.26 805.434 1650.5 763.931 1662.87C883.869 1699.79 914.33 1586.74 984.199 1547.34C970.872 1568.28 956.594 1587.88 940.221 1607.86C926.705 1624.42 912.807 1648.78 893.388 1662.87C840.844 1701.12 727.188 1706.07 678.642 1660.2C643.041 1626.52 642.47 1563.9 612.58 1519.75C644.945 1536.11 666.838 1562.95 700.725 1577.6C707.769 1546.96 685.686 1521.08 670.455 1506.04C657.51 1493.48 627.049 1471.59 607.059 1462.08C584.975 1451.42 562.892 1451.8 546.519 1437.34C511.109 1406.5 506.73 1364.25 474.937 1332.66C512.632 1345.41 534.145 1374.34 571.268 1387.66C607.821 1388.23 628.953 1378.72 659.413 1390.52C655.796 1436.19 666.267 1467.98 695.205 1481.3C684.163 1454.85 667.98 1433.34 673.121 1390.52C690.445 1394.32 711.196 1394.7 728.14 1398.7C693.682 1477.49 759.552 1538.02 816.285 1561.05C802.007 1569.23 779.733 1548.86 763.931 1558.38C774.783 1589.21 829.421 1604.63 860.263 1591.5C900.242 1574.37 971.253 1512.13 975.822 1478.64C978.297 1461.51 974.299 1450.09 964.78 1440.19C974.87 1442.09 997.335 1455.42 1011.61 1462.27C1014.47 1474.07 1018.66 1484.54 1017.13 1500.71V1500.33ZM763.741 1409.55C790.965 1417.16 833.8 1420.78 865.593 1415.07C887.296 1432.96 911.665 1447.99 934.51 1464.55C917.186 1495.19 896.434 1534.02 860.072 1536.11C822.948 1538.4 745.274 1472.36 763.741 1409.55ZM1008.76 1241.68C1026.27 1239.97 1051.02 1245.3 1063.78 1238.83C1075.39 1239.78 1067.58 1263.19 1066.44 1269.09C1052.16 1274.23 1035.03 1281.46 1019.61 1277.28C1016.75 1264.52 1009.52 1256.15 1008.57 1241.49L1008.76 1241.68ZM1069.3 1495C1058.45 1492.15 1054.45 1476.92 1050.07 1467.41C1032.55 1429.91 1007.42 1384.05 1014.28 1329.8C1037.12 1322.95 1059.4 1302.02 1083.2 1305.06C1107.56 1367.68 1076.34 1437.15 1069.49 1495H1069.3ZM975.632 1197.72C1016.56 1191.82 1066.44 1194.87 1094.05 1175.64C1097.85 1215.04 1004.38 1223.6 975.632 1197.72ZM1063.78 1098.56C1076.34 1110.74 1095.57 1116.26 1118.8 1117.79C1072.34 1160.42 989.72 1165.75 909.57 1153.57C918.899 1120.64 953.357 1112.84 970.111 1087.52C982.866 1118.36 1039.6 1123.69 1063.78 1098.56ZM975.632 1027C996.954 1029.29 1028.18 1042.61 1047.21 1029.86C1060.73 1073.44 1011.42 1092.66 981.153 1071.16C981.534 1054.22 975.251 1044.13 975.632 1027.19V1027ZM921.755 1092.28C921.755 1092.28 921.374 1092.28 921.184 1092.28C908.999 1095.14 900.813 1103.51 896.244 1113.79C884.441 1125.78 875.874 1140.43 876.445 1161.75C877.206 1192.2 906.905 1174.5 934.32 1183.83C959.83 1192.39 959.259 1231.41 983.818 1238.83C982.485 1256.72 986.103 1269.47 989.339 1282.98C897.006 1270.61 844.08 1218.85 785.634 1172.79C762.598 1136.25 767.739 1100.66 744.322 1062.78C719.573 1022.62 662.079 1024.15 656.177 974.663C650.085 924.228 674.263 851.715 700.154 820.502C731.186 834.966 753.651 812.699 771.737 798.425C774.021 797.854 774.402 799.567 774.402 801.279C798.39 873.031 803.339 944.211 862.547 980.182C888.058 995.598 922.897 992.363 947.837 1015.96C964.209 1056.12 944.41 1074.2 921.564 1092.28H921.755ZM1129.84 1156.42C1145.45 1142.15 1172.86 1141.19 1173.82 1117.79C1175.53 1077.82 1111.75 1097.04 1083.01 1076.49C1030.84 940.595 1186.76 934.124 1209.61 839.725C1214.75 818.789 1209.23 796.521 1220.65 765.309C1255.3 816.696 1288.04 898.724 1284.04 966.289C1281.57 1007.02 1247.49 1034.61 1253.77 1087.33C1255.87 1104.08 1270.53 1118.55 1270.34 1134.15C1269.96 1154.52 1241.02 1186.49 1226.36 1200.19C1198.18 1226.46 1154.4 1250.25 1116.32 1252.53C1116.51 1237.5 1115.37 1224.18 1108.14 1216.75C1122.6 1203.62 1131.17 1184.59 1130.22 1156.23L1129.84 1156.42ZM1366.67 848.099C1376.38 884.831 1395.04 930.508 1388.75 980.182C1381.9 1032.9 1333.73 1066.59 1317.17 1104.08C1310.7 1092.28 1296.61 1087.9 1289.57 1076.49C1347.82 1003.21 1324.98 826.402 1270.34 768.163C1275.48 774.825 1293.56 760.551 1300.61 765.499C1335.26 789.099 1380.19 807.18 1402.46 842.579C1427.97 882.737 1450.24 976.757 1424.54 1027C1406.27 1062.59 1349.73 1108.84 1322.69 1131.68C1337.92 1082.58 1397.89 1045.46 1402.46 980.373C1405.89 932.221 1393.51 879.502 1366.67 848.289V848.099ZM1124.32 1307.73C1155.16 1294.59 1184.86 1280.13 1215.13 1266.43C1220.08 1265.67 1220.84 1269.09 1217.98 1269.09C1191.9 1309.06 1159.73 1357.59 1127.17 1381.95C1127.17 1356.26 1127.93 1329.8 1124.32 1307.54V1307.73ZM1113.28 1470.07C1113.28 1458.27 1123.94 1475.59 1132.5 1472.93C1175.72 1478.64 1194 1459.22 1220.65 1448.18C1213.41 1469.88 1205.04 1494.43 1212.46 1517.08C1240.83 1603.3 1403.98 1529.64 1416.17 1467.6C1416.74 1465.31 1418.83 1464.93 1418.83 1462.08C1410.46 1464.74 1402.46 1467.79 1394.08 1470.26C1405.51 1442.86 1417.69 1394.13 1413.31 1351.88C1410.84 1328.47 1404.36 1307.16 1432.54 1302.4C1436.54 1335.13 1442.82 1365.58 1446.25 1398.7C1468.14 1375.48 1449.48 1322.95 1451.77 1296.88C1464.14 1319.34 1474.42 1344.08 1493.08 1360.26C1470.81 1469.69 1431.21 1593.4 1316.79 1594.16C1244.45 1594.54 1207.7 1529.07 1157.06 1495C1142.59 1485.3 1126.03 1485.3 1113.08 1470.26L1113.28 1470.07ZM1289.57 1423.25C1335.45 1416.02 1352.01 1379.29 1377.71 1351.69C1388.37 1425.54 1362.29 1486.82 1317.17 1514.04C1301.18 1505.28 1271.67 1510.04 1256.63 1500.33C1239.88 1466.07 1274.34 1443.05 1289.76 1423.25H1289.57ZM1504.31 1434.29C1488.89 1528.5 1447.77 1634.51 1350.11 1643.46C1258.53 1651.83 1210.75 1591.31 1168.48 1536.11C1213.41 1548.1 1234.93 1600.44 1289.57 1607.67C1423.4 1625.37 1484.32 1482.44 1506.98 1370.91C1508.12 1390.14 1507.74 1412.97 1504.31 1434.29ZM1540.1 1337.99C1519.92 1337.61 1504.88 1310.58 1496.13 1291.17C1524.87 1283.18 1567.52 1289.08 1589.79 1274.61C1607.88 1288.12 1554.95 1338.18 1540.29 1337.99H1540.1ZM1581.42 1236.17C1591.32 1206.67 1584.84 1160.61 1597.98 1134.34C1603.12 1136.63 1608.07 1138.91 1614.54 1139.86C1601.41 1169.93 1613.97 1225.51 1581.42 1236.17ZM1619.87 1120.64C1598.36 1106.18 1632.06 1082.96 1641.96 1071.16C1681.94 1023 1741.33 982.466 1796.16 952.776C1796.92 949.731 1801.68 950.873 1801.68 947.257C1810.44 944.782 1805.49 956.392 1812.73 955.44C1745.71 1007.78 1648.81 1030.05 1620.06 1120.64H1619.87ZM1798.83 933.363C1724.39 971.047 1652.05 1025.1 1603.31 1079.34C1588.27 1008.16 1620.44 960.96 1628.06 903.102C1605.97 917.566 1586.18 961.911 1581.23 1007.78C1577.61 1041.85 1588.46 1078.77 1583.89 1112.46C1580.65 1137.2 1564.66 1162.13 1564.66 1189.54C1564.66 1211.8 1570.75 1223.6 1575.7 1241.88C1484.32 1255.2 1420.55 1251.58 1372 1299.73C1344.39 1327.14 1327.26 1370.15 1297.56 1385C1271.86 1397.94 1239.31 1398.51 1212.27 1409.74C1188.47 1419.64 1166.39 1446.09 1135.17 1434.48C1158.78 1390.33 1192.85 1356.26 1214.94 1310.58C1260.82 1284.7 1281.57 1215.99 1319.65 1167.46C1369.52 1103.51 1440.92 1076.1 1451.77 996.74C1466.62 889.208 1405.7 784.531 1314.12 765.499C1364.38 732.193 1364.57 671.48 1380.19 611.338C1399.41 536.732 1459.57 497.145 1509.64 454.513C1451.01 468.406 1418.45 508.374 1383.04 545.296C1366.29 484.964 1377.9 413.213 1413.31 388.471C1458.62 356.687 1603.12 344.887 1650.14 380.287C1678.7 401.793 1699.26 457.367 1727.25 487.629C1737.34 498.667 1756.56 506.661 1763.04 515.225C1783.6 541.68 1791.59 589.07 1798.83 628.086C1806.63 670.909 1818.25 716.586 1818.06 754.651C1818.06 817.076 1790.26 869.795 1798.83 933.553V933.363ZM1385.9 380.097C1427.59 342.413 1469.09 309.868 1559.33 319.574C1589.98 322.81 1630.72 341.651 1666.71 358.019C1750.47 396.274 1786.64 409.026 1820.91 495.622C1846.99 561.283 1888.5 622.377 1881.45 726.864C1876.5 801.089 1864.32 884.641 1843 941.547C1823.96 877.218 1850.04 818.599 1851.18 754.46C1852.9 659.299 1825.86 555.193 1776.93 484.774C1761.89 463.077 1738.67 441.38 1716.39 421.396C1671.65 381.239 1653.57 345.839 1575.89 341.651C1483.37 336.513 1380 348.122 1366.67 429.771C1342.49 411.88 1372.38 392.468 1385.9 380.287V380.097ZM986.674 391.135C1003.62 395.322 1011.42 408.645 1030.65 410.358C1036.17 412.832 1036.17 419.684 1030.65 413.022C989.149 391.706 957.927 425.393 925.943 426.725C932.416 411.69 978.107 413.022 986.483 390.945L986.674 391.135ZM1050.07 437.954C1022.46 445.377 951.834 468.977 937.175 437.954C975.822 422.729 1012.76 417.971 1050.07 437.954ZM1080.34 476.59C1040.55 534.067 902.907 534.258 837.988 498.667C914.52 488.771 1013.52 487.058 1080.34 476.59ZM782.969 405.029C825.994 374.387 856.836 430.342 887.487 446.329C833.99 443.284 762.979 472.593 793.82 520.745C807.909 542.632 842.557 537.493 868.068 556.525C885.583 569.467 881.775 584.883 901.194 592.306C909.761 584.503 899.29 572.322 898.338 564.709C962.876 583.361 1039.79 562.616 1080.15 531.593C1085.1 534.828 1082.24 545.867 1085.67 550.816C1109.28 526.074 1194 446.9 1115.94 429.771C1127.93 414.164 1141.45 400.08 1146.21 377.432C1160.49 371.722 1178.77 369.629 1198.56 369.248C1201.61 397.416 1213.8 416.448 1223.31 438.145C1205.8 447.28 1181.62 449.564 1176.48 471.261C1229.98 487.629 1270.15 444.045 1322.5 441C1324.98 480.587 1347.44 516.748 1350.11 556.525C1353.34 605.438 1326.5 643.693 1319.84 688.609C1204.47 679.283 1152.87 591.354 1033.51 594.97C1074.63 618.951 1115.94 615.525 1151.92 636.27C1194 660.441 1222.55 696.222 1273 713.351C1253.39 725.912 1207.51 712.018 1187.71 724.389C1160.11 704.406 1099.57 634.748 1044.55 647.309C1023.04 652.257 1017.32 673.573 1030.84 691.273C1038.65 701.551 1052.16 702.693 1063.97 710.496C1084.53 724.199 1101.09 750.464 1127.36 746.276C1118.61 704.406 1075.96 696.793 1050.26 672.051C1110.42 672.431 1136.69 706.88 1174.2 729.909C1173.63 741.138 1162.01 741.518 1163.15 754.651C1166.2 761.693 1184.48 753.509 1187.9 760.17C1177.24 797.854 1175.53 831.921 1149.45 861.992C1135.36 878.36 1113.47 885.402 1099.95 900.437C1068.54 935.457 1060.16 1004.54 981.533 994.076C964.78 967.621 939.46 949.731 901.765 944.592C843.319 903.102 840.463 805.847 786.015 760.17C787.919 754.651 794.582 749.322 788.871 743.612C756.316 748.751 740.515 770.638 719.954 787.576C692.92 774.444 651.418 743.612 634.664 702.312C630.476 692.035 631.047 678.902 626.478 666.531C616.578 640.077 595.637 614.383 593.352 594.97C589.545 561.093 606.869 523.98 626.478 501.332C638.091 506.09 643.802 515.606 654.083 517.89C730.234 534.828 783.35 473.735 783.54 405.029H782.969ZM116.835 732.193C122.166 652.257 145.392 578.412 182.897 511.99C199.269 482.871 223.828 460.032 246.293 432.245C268.948 403.887 285.891 368.868 306.833 352.5C350.62 318.052 496.45 300.161 565.747 324.903C565.747 324.903 570.316 327.187 571.268 327.758C620.767 355.735 630.095 427.867 664.934 476.4C641.518 475.448 640.376 438.716 607.059 443.284C583.452 446.519 579.455 480.777 571.268 509.325C560.797 545.867 543.283 572.703 552.04 608.483C564.795 661.012 592.21 710.115 609.915 735.047C611.057 747.989 598.683 747.609 601.729 762.644C609.915 772.16 615.246 745.134 623.813 754.46C635.235 773.302 648.943 789.86 667.79 801.279C635.235 839.534 589.735 948.589 609.915 1015.96C623.432 1060.88 672.549 1067.73 709.102 1093.04C726.236 1118.93 718.05 1149.95 725.665 1175.64C741.086 1228.74 821.997 1262.05 874.351 1288.5C909.38 1306.2 933.177 1327.33 981.724 1326.95C981.153 1357.78 980.582 1388.61 992.766 1406.69C963.448 1402.89 948.217 1379.1 918.518 1373.58C893.959 1369.2 871.876 1379.86 844.271 1381.95C759.933 1388.23 677.88 1333.99 582.691 1351.69C587.831 1338.37 605.156 1317.43 590.877 1302.21C572.982 1301.83 575.647 1322 566.128 1329.8C531.67 1282.6 453.995 1278.61 395.359 1255.58C416.871 1201.72 459.135 1092.85 409.066 1035.38C404.687 1075.91 430.198 1163.08 389.838 1192.2C355.189 1126.73 328.155 1053.84 265.901 1015.96C299.979 1076.29 368.135 1126.54 365.089 1233.5C319.969 1160.23 297.124 1064.69 238.487 1005.11C246.102 959.057 246.292 921.563 241.152 878.55C235.441 829.828 202.886 789.86 199.84 746.467C190.321 613.622 253.908 505.138 309.879 427.106C333.105 394.942 334.057 390.945 373.275 372.103C387.553 365.251 401.832 354.784 411.922 352.881C482.742 339.748 547.471 382.951 596.398 405.219C584.024 359.922 493.023 323.19 420.108 330.803C390.599 333.848 345.86 357.448 318.256 377.622C295.791 393.99 276.563 428.629 252.194 462.887C204.219 530.451 148.819 641.599 164.049 765.689C172.997 839.344 233.728 885.592 213.547 963.815C201.934 967.621 191.083 946.686 180.422 933.553C141.584 885.592 110.743 827.354 117.026 732.573L116.835 732.193Z" fill="black"/>
<path d="M1025.51 767.972C1007.42 765.498 950.692 758.076 940.221 767.972C944.409 796.521 1022.84 800.898 1025.51 767.972Z" fill="black"/>
<path d="M527.1 1013.11C510.346 1055.36 546.328 1106.56 562.891 1148.05C580.977 1193.34 584.594 1233.5 596.017 1280.13C633.521 1178.69 530.527 1107.89 529.955 1015.96C529.955 1014.25 529.575 1012.73 527.29 1013.3L527.1 1013.11Z" fill="black"/>
<path d="M772.118 506.66C733.852 511.228 689.684 545.296 634.475 525.883C658.653 569.847 763.361 551.386 772.118 506.66Z" fill="black"/>
<path d="M642.849 1164.42C689.111 1233.12 737.467 1297.07 832.847 1299.35C810.002 1264.52 767.738 1258.24 736.515 1233.31C676.166 1185.16 606.297 1084.67 582.309 991.032C568.411 936.599 580.596 881.596 579.644 820.312C563.271 867.132 555.846 931.27 563.081 988.177C570.315 1045.27 608.01 1112.46 642.849 1164.42Z" fill="black"/>
<path d="M1077.87 787.386C1072.15 782.057 1064.54 778.631 1058.64 773.683C1092.52 773.683 1104.71 795.57 1135.74 798.425C1118.42 772.922 1071.2 733.144 1033.89 762.644C1023.61 796.141 1066.06 808.892 1077.87 787.386Z" fill="black"/>
</g>
<defs>
<clipPath id="clip0_157_313">
<rect width="1852" height="1471" fill="white" transform="translate(74 264)"/>
</clipPath>
</defs>
</svg>
