<svg width="2000" height="2000" viewBox="0 0 2000 2000" fill="none" xmlns="http://www.w3.org/2000/svg">
<g clip-path="url(#clip0_157_315)">
<path d="M1044.71 661.9C1035.37 679.171 1033.26 717.766 1042.95 733.274C1053.69 721.29 1061.79 671.417 1044.71 661.9Z" fill="black"/>
<path d="M541.181 1648.44C511.592 1682.63 470.909 1689.5 424.061 1704.48C403.983 1757.35 474.96 1774.98 505.428 1754.53C544.175 1728.63 576.405 1637.52 588.557 1608.97C586.796 1608.97 585.034 1608.79 583.273 1608.61C557.207 1610.55 555.094 1632.05 541.181 1648.27V1648.44ZM461.751 1733.38C475.136 1724.93 493.1 1721.75 505.428 1712.41C502.786 1720.87 481.828 1744.49 461.751 1733.38Z" fill="black"/>
<path d="M370.694 1711.71C394.295 1759.64 408.032 1841.94 490.104 1830.31C501.023 1828.73 522.157 1814.63 531.316 1806.52C570.59 1771.63 614.444 1711.36 633.289 1656.9C640.158 1637.16 639.805 1613.37 647.731 1594.34C656.361 1573.9 678.376 1559.62 696.164 1539.18C728.746 1501.64 749.88 1446.31 773.48 1403.83C787.042 1379.16 797.256 1350.79 809.761 1332.11C828.43 1304.26 857.489 1282.76 875.454 1254.21C898.349 1217.91 907.155 1178.79 934.806 1152.18C942.379 1189.01 948.191 1247.52 984.12 1250.51C1030.62 1254.39 1030.97 1183.19 1041.89 1132.79C1054.92 1155 1072.53 1175.26 1088.38 1193.41C1089.62 1194.82 1090.85 1196.41 1092.26 1197.82C1092.61 1198.35 1092.79 1198.7 1093.14 1199.23C1109.69 1224.25 1121.32 1254.92 1141.04 1278.89C1155.48 1296.69 1176.62 1308.14 1191.06 1324.35C1202.16 1336.87 1211.49 1357.31 1222.23 1373.87C1233.51 1391.32 1247.24 1410.18 1253.23 1426.04C1275.95 1485.08 1266.62 1537.24 1290.74 1584.47C1301.84 1605.97 1328.26 1619.54 1339.88 1643.15C1347.28 1658.13 1346.93 1676.29 1352.74 1691.62C1370.7 1739.2 1407.69 1810.75 1452.42 1830.14C1545.94 1870.67 1616.92 1807.58 1642.45 1749.6C1664.65 1699.37 1647.39 1651.09 1660.6 1586.76C1664.29 1568.61 1679.97 1553.81 1687.54 1535.48C1702.86 1499 1698.64 1460.23 1705.51 1417.58C1708.68 1398.55 1725.58 1379.69 1730.16 1361.01C1732.63 1351.14 1729.63 1341.8 1731.75 1334.57C1741.79 1302.32 1771.02 1279.77 1777.36 1239.59C1784.06 1197.47 1774.02 1145.48 1775.95 1094.02C1777.89 1038.51 1789.52 990.925 1777.01 951.273C1769.61 927.834 1741.79 906.334 1736.86 874.612C1732.28 845.006 1742.14 816.809 1741.79 795.661C1740.91 730.808 1709.2 675.824 1674.86 640.754C1669.58 598.987 1672.75 570.79 1657.6 536.426C1646.33 510.696 1616.04 494.13 1608.99 469.81C1605.12 456.593 1609.87 442.671 1606.17 429.982C1587.68 365.129 1509.31 338.166 1444.32 314.022C1448.19 253.928 1403.81 230.136 1358.2 213.394C1339.35 206.521 1317.34 204.407 1298.49 196.476C1280.71 188.898 1263.8 165.636 1247.77 161.583C1181.55 144.312 1141.22 179.911 1107.76 202.997C1087.68 216.743 1064.61 242.473 1052.28 244.411C1028.68 248.112 982.711 221.501 956.645 209.341C926.528 195.243 888.486 181.673 858.194 176.738C812.755 169.161 757.453 163.874 715.713 173.038C698.806 176.738 689.295 191.894 669.041 201.763C650.549 210.751 632.585 211.808 617.438 222.382C597.361 236.481 573.937 265.206 560.552 287.588C551.569 302.567 550.16 323.01 538.889 339.047C528.85 353.145 510.71 361.957 499.614 376.232C478.48 403.371 469.322 432.802 459.635 466.286C419.304 501.356 397.465 557.397 383.727 622.779C317.154 676.177 268.193 812.403 304.121 921.842C277.175 953.74 248.82 993.921 240.19 1055.43C236.315 1083.62 241.423 1115.34 237.196 1145.13C232.969 1174.38 219.76 1202.75 218.351 1233.95C216.766 1266.37 219.055 1311.14 230.503 1335.28C245.826 1367.71 282.106 1383.74 288.799 1415.64C301.656 1527.02 282.987 1666.24 370.694 1711.71ZM659.003 1539.35C643.152 1556.98 617.438 1571.25 611.098 1586.58C605.638 1599.8 609.161 1616.02 605.814 1628.53C589.435 1690.03 553.507 1731.98 519.516 1781.85C488.695 1791.36 461.748 1798.59 437.796 1779.38C420.184 1765.28 415.781 1738.85 404.509 1721.75C398.345 1712.77 418.071 1714.18 413.844 1698.49C407.327 1679.28 387.954 1684.92 375.45 1677.52C332.476 1651.97 330.715 1589.23 323.847 1531.42C353.963 1556.8 340.93 1621.48 378.092 1635.4C397.112 1642.45 450.301 1640.16 473.196 1636.11C497.325 1631.7 526.208 1616.19 552.274 1598.74C591.196 1572.84 627.829 1555.92 654.776 1523.32C640.686 1509.22 659.355 1494.24 665.519 1479.08C637.868 1469.57 632.585 1498.82 618.495 1513.1C574.289 1558.04 452.942 1577.77 365.939 1536.89C337.76 1523.67 331.772 1475.03 316.45 1441.19C349.384 1459.7 364.53 1514.68 422.298 1524.55C462.277 1531.42 526.737 1527.55 570.943 1515.39C641.919 1496 683.131 1428.68 729.45 1390.44C732.092 1384.1 733.853 1376.52 733.501 1366.82C745.477 1361.71 757.453 1356.43 771.367 1353.26C736.319 1411.24 707.788 1485.25 659.179 1539.35H659.003ZM368.933 1571.43C402.22 1578.48 455.056 1590.11 505.25 1590.64C472.316 1616.02 375.626 1632.93 368.933 1571.43ZM391.829 1459.17C507.892 1463.05 584.504 1421.81 675.91 1397.67C682.603 1398.02 679.08 1399.78 678.2 1403.13C651.253 1414.23 636.459 1452.65 602.644 1469.74C561.608 1490.54 416.838 1514.33 391.829 1459.17ZM834.242 1233.07C797.257 1285.58 766.788 1313.43 711.31 1338.98C702.328 1334.4 701.8 1322.59 697.044 1314.31C738.961 1285.76 780.701 1269.72 813.283 1231.66C844.633 1195 864.71 1152.18 894.827 1112.52C894.827 1111.64 895.003 1110.76 894.827 1109.88C898.525 1147.59 859.603 1196.94 834.242 1233.07ZM443.784 885.715C509.125 913.912 568.301 948.982 632.937 945.281C677.143 942.637 722.934 910.211 760.976 884.658C807.295 853.465 844.457 825.268 887.254 810.641C889.543 810.288 889.719 811.874 889.719 813.46C887.958 837.604 858.018 843.243 836.707 857.694C800.603 882.19 765.379 912.854 725.752 940.699C684.011 969.953 636.635 998.15 561.432 988.457C533.957 984.933 505.602 970.482 470.554 961.494C454.704 957.441 395.88 938.584 396.584 919.727C397.112 903.867 432.865 897.875 443.608 885.715H443.784ZM387.25 903.338C387.25 898.404 386.017 894.35 382.671 892.412C393.766 882.895 406.799 865.096 421.241 868.444C419.656 880.428 398.345 892.94 387.25 903.338ZM734.734 800.948C781.758 775.218 832.48 753.894 886.901 736.447C898.173 737.329 892.89 752.661 893.066 763.234C836.355 782.62 785.809 823.858 734.91 840.6C735.438 826.678 732.092 816.632 734.91 800.948H734.734ZM728.57 983.171C781.758 952.683 835.827 908.801 878.8 862.981C890.072 866.33 879.504 888.887 881.794 900.166C814.692 938.76 757.453 1003.79 683.659 1025.29C681.898 997.974 712.895 992.158 728.57 983.171ZM875.806 952.859C876.686 950.039 881.089 951.449 881.442 947.924C883.907 948.101 883.203 951.273 883.731 953.388C868.761 983.347 834.946 992.511 813.636 1017.71C806.239 1026.35 803.245 1039.04 795.848 1048.38C732.092 1128.38 629.943 1184.78 515.993 1210.68C381.966 1210.33 301.303 1131.38 335.823 1006.26C351.321 1003.44 358.718 1023.53 371.223 1032.34C396.408 1050.31 434.802 1071.46 468.793 1078.16C652.486 1114.46 780.877 1038.51 875.806 953.035V952.859ZM880.737 1000.79C883.907 1000.62 885.316 1001.67 885.845 1003.79C882.498 1029.7 857.489 1043.62 842.519 1061.95C798.313 1115.87 751.818 1168.04 688.238 1202.93C689.295 1195.35 688.238 1189.54 684.011 1186.72C760.095 1136.49 816.63 1064.24 880.737 1000.79ZM886.901 1069.88C893.594 1070.23 889.895 1071.99 889.191 1075.34C838.469 1155.35 774.185 1235.53 680.665 1281.71C630.119 1306.55 599.122 1323.12 539.946 1333.69C516.698 1337.92 494.154 1351.14 467.384 1352.9C441.318 1354.67 403.805 1361.19 380.029 1355.37C330.187 1343.03 320.676 1276.24 294.963 1236.24C335.294 1255.45 384.96 1295.8 449.068 1306.73C677.671 1345.68 772.071 1167.51 886.901 1069.88ZM896.236 626.127C846.042 629.299 803.949 641.811 759.743 651.857C760.976 638.287 759.919 622.074 764.85 612.557C805.534 596.696 854.495 590.176 901.519 581.541C911.206 589.471 898.878 614.32 896.06 626.127H896.236ZM986.057 1213.68C969.854 1202.4 971.967 1174.73 963.161 1156.76C971.439 1151.12 990.284 1157.46 1002.79 1156.76C995.391 1173.68 994.158 1197.82 986.057 1213.86V1213.68ZM1053.33 985.109C1049.64 997.621 1038.89 1008.9 1035.19 1021.06C1023.39 1059.65 1023.04 1100.89 1002.08 1127.5C929.17 1129.44 931.46 1077.45 924.943 1008.9C919.66 953.211 898.173 883.071 925.472 831.788C935.863 849.764 923.182 874.965 923.71 900.518C924.063 913.383 931.46 932.416 933.573 954.092C939.209 1010.13 936.039 1033.22 957.878 1071.99C963.337 1081.68 972.496 1100.89 979.716 1102.48C1007.02 1108.29 1028.33 1051.02 1031.67 1031.63C1044.7 957.97 1033.61 869.678 1040.83 802.005C1016.88 857.694 1033.79 966.957 1008.07 1027.4C1002.96 1039.56 980.949 1067.94 979.012 1067.94C966.86 1067.06 958.934 1015.42 957.173 995.154C954.531 962.728 944.669 938.055 943.612 917.613C942.027 885.362 956.116 847.12 960.872 810.288C974.081 710.718 949.952 604.451 963.69 514.22C975.666 500.827 1008.95 505.409 1030.09 510.52C1043.3 542.77 1040.83 588.942 1043.65 630.357C1067.07 592.114 1051.57 537.483 1046.82 495.716C1020.75 481.618 964.922 478.269 948.719 500.122C958.934 476.859 1000.85 463.113 1040.48 471.573C1062.85 509.638 1066.19 542.241 1061.44 599.869C1058.09 639.52 1063.9 685.517 1061.44 726.755C1058.79 767.993 1052.63 812.403 1053.33 855.932C1054.04 903.162 1064.08 948.453 1053.16 985.461L1053.33 985.109ZM766.259 258.157C796.2 224.673 876.51 252.341 908.212 269.788C915.257 276.661 888.134 291.641 879.857 299.748C846.57 281.772 780.349 292.875 766.083 258.157H766.259ZM865.943 354.379C830.015 351.912 796.728 347.506 774.713 332.703C777.883 327.944 778.94 320.543 781.23 314.551C804.301 322.305 827.549 330.059 859.603 330.059C862.421 337.461 866.472 343.981 865.943 354.379ZM966.508 437.384C950.657 424.695 945.549 402.666 933.045 382.4C921.773 364.072 902.928 352.441 907.86 320.014C921.773 311.379 936.039 279.305 954.355 293.932C948.543 310.145 934.982 307.854 931.46 321.6C920.364 364.248 991.517 402.49 966.508 437.56V437.384ZM943.26 512.634C946.606 513.868 947.134 517.569 950.833 518.45C946.254 527.262 946.958 542.241 945.902 555.106C944.316 589.471 938.857 514.573 943.26 512.634ZM930.403 800.067C920.364 783.501 929.522 741.029 940.09 729.222C940.794 746.14 946.254 792.665 930.403 800.067ZM915.433 450.072C914.728 462.409 913.848 474.568 913.143 486.905C865.063 484.085 836.707 503.823 785.633 497.302C780.701 490.782 780.701 480.208 782.11 468.048C839.349 473.159 875.63 467.519 915.433 450.072ZM1191.24 1276.77C1158.83 1241.52 1124.49 1189.01 1091.38 1140.9C1077.99 1121.34 1050.52 1101.6 1066.19 1078.51C1125.02 1122.04 1142.98 1201.52 1192.65 1253.16C1192.12 1261.09 1191.59 1269.02 1191.24 1276.95V1276.77ZM1204.27 901.928C1223.99 910.916 1267.85 917.965 1303.25 926.777C1379.51 945.81 1431.46 929.068 1489.58 906.686C1539.42 887.477 1577.29 875.317 1600.01 831.612C1634 851.174 1632.24 895.584 1602.48 919.023C1540.48 955.679 1474.97 994.802 1381.8 981.761C1252.53 963.785 1170.63 892.412 1083.98 841.305C1082.57 827.559 1082.39 812.932 1084.16 796.366C1122.02 807.292 1167.28 884.834 1204.45 901.752L1204.27 901.928ZM1088.91 759.71C1090.14 750.898 1094.02 744.906 1093.14 733.451C1166.93 763.763 1188.77 839.895 1267.14 866.153C1257.81 878.137 1239.14 872.321 1229.98 869.149C1176.62 850.469 1144.21 778.919 1088.91 759.71ZM1614.63 806.059C1614.63 799.538 1619.21 798.128 1620.79 793.194C1631.54 801.124 1637.35 813.46 1648.09 821.391C1636.11 827.03 1626.6 808.878 1614.63 806.059ZM1234.21 1012.25C1165.7 993.039 1151.43 925.896 1090.67 899.99C1089.44 893.645 1087.68 887.83 1089.44 878.666C1138.93 911.268 1168.34 961.67 1236.5 977.884C1235.79 989.339 1235.09 1000.62 1234.39 1012.07L1234.21 1012.25ZM1577.11 1065.65C1631.18 1037.8 1657.95 984.228 1702.86 957.265C1707.09 984.933 1707.8 1014.54 1700.4 1039.04C1675.74 1121.69 1564.08 1178.61 1477.61 1175.79C1329.67 1170.86 1221.18 1095.61 1154.43 1017.89C1245.31 1086.27 1461.23 1125.04 1576.94 1065.65H1577.11ZM1144.74 1006.61C1139.46 998.503 1098.25 979.646 1092.43 955.679C1114.45 968.72 1131.18 986.166 1144.74 1006.61ZM1083.45 1013.31C1082.04 1003.26 1087.5 1000.97 1087.33 992.335C1118.5 1009.25 1142.28 1042.91 1166.93 1071.46C1182.43 1089.44 1207.09 1102.83 1208.32 1126.97C1170.98 1096.13 1139.1 1038.33 1083.27 1013.31H1083.45ZM1426.36 1278.18C1526.22 1277.65 1627.84 1257.74 1686.66 1215.27C1673.1 1233.42 1662.71 1260.38 1645.8 1276.24C1559.5 1356.43 1344.99 1312.9 1253.23 1256.86C1227.34 1240.64 1211.49 1215.8 1199.51 1187.25C1270.14 1208.92 1322.45 1278.71 1426.36 1278.36V1278.18ZM1610.23 1464.28C1568.31 1504.99 1541.89 1533.36 1460.7 1528.96C1446.96 1528.25 1426.36 1527.55 1410.86 1523.14C1392.72 1518.03 1355.38 1486.84 1354.5 1535.48C1353.79 1578.3 1420.54 1631.35 1486.24 1625.71C1552.46 1620.24 1637.52 1563.5 1662.89 1507.28C1673.63 1483.67 1666.41 1462.17 1685.43 1442.6C1668.17 1556.98 1595.26 1681.04 1452.77 1652.67C1434.46 1648.97 1430.58 1634.87 1408.74 1639.28C1410.15 1665.01 1425.48 1711.53 1444.67 1739.38C1467.92 1772.86 1546.12 1789.78 1586.45 1753.65C1617.97 1725.45 1613.92 1664.3 1634.53 1619.19C1635.76 1676.99 1632.59 1733.03 1604.24 1765.46C1569.37 1805.29 1472.68 1823.44 1426.88 1770.22C1416.49 1758.06 1408.22 1732.33 1396.24 1710.12C1379.51 1678.58 1364.19 1652.5 1370 1623.77C1332.31 1585.53 1304.66 1538.65 1294.62 1476.09C1311.53 1490.01 1334.42 1509.92 1364.19 1504.28C1353.44 1469.39 1317.51 1455.65 1294.79 1431.15C1273.31 1407.89 1261.86 1376.17 1241.61 1351.14C1260.28 1370.53 1279.12 1365.59 1297.79 1381.1C1325.79 1404.36 1323.85 1456.53 1377.57 1457.58C1397.82 1473.97 1416.67 1488.25 1443.97 1493.53C1583.98 1520.85 1636.64 1414.58 1701.46 1351.14C1690.71 1415.11 1655.49 1420.05 1609.7 1464.46L1610.23 1464.28ZM1626.96 1491.77C1607.94 1558.74 1449.08 1642.27 1396.06 1548.7C1498.57 1569.84 1584.34 1547.99 1626.96 1491.77ZM1492.75 1734.62C1476.73 1721.4 1467.22 1702.54 1453.48 1687.21C1499.97 1687.92 1550.34 1691.79 1576.59 1663.25C1582.93 1705.01 1552.81 1757.18 1492.75 1734.62ZM1373.17 1409.65C1447.49 1409.3 1552.99 1425.16 1609.34 1395.37C1610.4 1411.06 1585.39 1428.68 1566.9 1440.31C1512.65 1474.68 1414.91 1464.99 1373.17 1409.65ZM1704.45 1311.49C1614.45 1400.49 1403.64 1399.25 1280.18 1332.46C1267.67 1325.59 1255.7 1316.07 1241.96 1308.85C1232.8 1303.91 1208.85 1297.57 1217.3 1280.82C1239.85 1279.06 1247.59 1304.44 1270.67 1315.89C1294.97 1327.88 1340.94 1338.45 1379.86 1343.91C1464.93 1355.9 1537.49 1363.65 1599.31 1344.44C1655.49 1327.17 1706.03 1288.58 1727.7 1236.24C1739.67 1207.34 1738.62 1167.16 1757.29 1145.48C1757.29 1214.39 1741.61 1274.83 1704.45 1311.49ZM1731.22 1096.31C1704.98 1148.3 1641.05 1208.39 1582.93 1227.07C1491.87 1256.33 1351.51 1231.48 1281.23 1189.54C1259.22 1176.32 1240.73 1157.82 1220.82 1140.72C1237.73 1130.68 1254.11 1149.71 1269.96 1157.11C1320.51 1180.55 1388.67 1203.11 1454.01 1213.68C1530.62 1226.02 1584.86 1201.7 1631.18 1169.27C1686.31 1130.68 1738.44 1080.1 1735.62 980.175C1735.09 965.019 1730.87 950.568 1728.05 932.064C1751.83 966.957 1749.89 1058.6 1730.87 1096.13L1731.22 1096.31ZM1660.95 909.33C1702.69 848.53 1699.69 743.32 1669.75 684.988C1708.32 736.095 1721.36 839.014 1687.72 902.986C1676.45 924.662 1650.38 946.691 1628.19 968.015C1605.65 989.515 1586.45 1014.72 1563.73 1027.4C1485.88 1071.11 1353.79 1051.9 1257.28 1023.88C1255.34 1013.13 1255.52 1000.62 1256.93 986.871C1310.65 1008.2 1372.11 1027.23 1431.64 1024.41C1511.77 1020.53 1621.5 966.957 1660.95 909.154V909.33ZM1655.49 787.378C1644.74 785.263 1643.86 774.513 1632.59 772.751C1637.35 759.357 1644.04 748.079 1650.73 736.8C1659.89 747.021 1656.54 768.169 1655.49 787.378ZM1538.72 835.665C1492.05 867.563 1442.03 885.01 1379.51 886.42C1354.32 886.948 1318.57 902.809 1300.61 878.842C1311 862.1 1333.54 870.559 1351.51 868.797C1367.36 867.211 1383.74 859.985 1399.76 858.575C1422.31 856.637 1440.27 860.338 1461.05 851.879C1477.61 845.182 1494.16 828.616 1513.71 812.932C1532.03 798.304 1554.75 787.202 1566.2 776.628C1626.78 720.234 1664.47 588.061 1609.17 514.749C1693 612.028 1617.97 781.386 1538.72 835.665ZM1596.31 551.053C1624.84 610.795 1599.13 701.73 1554.92 746.845C1533.61 768.698 1476.55 811.698 1447.14 822.096C1438.51 825.092 1424.59 823.858 1409.8 827.735C1370.7 837.78 1329.31 854.17 1277.18 835.313C1201.63 807.821 1186.83 715.652 1095.07 704.902C1096.31 680.582 1100.18 653.971 1094.19 635.996C1156.01 662.607 1191.06 709.66 1285.28 708.779C1340.94 708.25 1417.55 703.316 1461.05 688.16C1528.33 664.721 1569.54 609.385 1596.49 551.229L1596.31 551.053ZM1234.56 628.77C1222.06 624.012 1213.08 616.258 1198.46 613.262C1209.38 606.389 1225.4 623.307 1237.91 615.729C1235.44 618.725 1234.03 622.602 1234.39 628.77H1234.56ZM1236.15 644.807C1235.79 651.857 1235.27 658.906 1234.74 665.955C1178.91 653.795 1141.75 625.246 1107.05 594.405C1107.05 589.647 1110.57 588.942 1110.4 584.008C1152.84 603.746 1194.05 624.717 1236.15 644.807ZM1110.4 541.712C1106.17 535.544 1110.4 521.798 1106.7 515.102C1215.19 517.04 1317.16 511.401 1379.68 460.822C1441.15 462.232 1492.22 472.806 1530.97 494.13C1515.47 525.675 1463.52 569.381 1425.3 577.311C1408.04 580.836 1386.73 578.897 1364.01 584.008C1332.84 591.057 1290.57 602.512 1247.07 595.11C1195.46 586.299 1155.31 556.692 1110.4 541.536V541.712ZM1167.11 481.794C1142.45 479.327 1125.72 485.671 1103.35 485.671C1104.41 477.212 1099.3 474.216 1102.12 464.347C1125.37 464.347 1146.68 462.232 1168.52 460.646C1167.99 467.695 1167.64 474.745 1167.11 481.794ZM1101.77 427.515C1098.6 420.113 1119.2 397.027 1130.48 392.269C1157.07 380.99 1190.88 395.265 1228.22 393.15C1287.4 389.625 1330.55 361.428 1346.93 313.317C1381.45 351.912 1336.18 388.039 1311.88 409.011C1256.75 432.097 1175.03 424.871 1101.94 427.515H1101.77ZM1144.39 337.637C1167.28 340.633 1197.05 337.637 1215.36 344.686C1209.55 370.064 1170.63 357.904 1145.62 361.428C1148.44 350.678 1142.45 347.682 1144.56 337.461L1144.39 337.637ZM1120.26 301.686C1117.79 295.518 1114.98 289.702 1110.75 285.297C1155.31 265.911 1188.59 226.436 1258.69 244.411C1288.28 328.297 1165.17 284.063 1120.26 301.862V301.686ZM1101.42 266.087C1096.84 250.05 1124.31 247.231 1140.16 239.477C1168.69 225.554 1199.69 201.587 1241.78 219.386C1187.89 225.026 1132.94 244.411 1101.42 266.087ZM1261.68 659.787C1272.25 654.5 1295.15 662.959 1311.7 662.959C1396.24 662.959 1480.25 623.66 1530.97 581.541C1494.34 636.172 1397.65 675.824 1297.96 672.652C1287.93 672.299 1263.09 677.763 1261.68 659.787ZM1550.52 394.912C1563.2 407.953 1570.25 425.929 1579.4 439.146C1579.76 492.896 1560.91 535.016 1534.67 563.213C1491.87 609.209 1397.3 646.746 1322.97 650.447C1301.14 651.504 1264.5 653.971 1255.87 625.07C1356.08 622.955 1484.48 605.332 1538.72 539.774C1557.92 516.511 1575.18 472.277 1569.19 433.154C1561.09 379.58 1491.87 366.715 1445.38 340.809C1479.37 338.695 1525.86 369.535 1550.34 395.088L1550.52 394.912ZM1443.44 374.998C1485.53 383.457 1519 399.67 1535.02 431.039C1496.1 425.576 1477.25 402.314 1433.75 400.904C1436.92 392.269 1439.57 383.105 1443.26 374.998H1443.44ZM1538.72 457.65C1538.37 462.937 1538.02 468.224 1537.66 473.511C1501.74 455.359 1461.23 441.437 1407.69 438.794C1407.16 434.564 1410.51 434.388 1410.86 431.039C1456.82 427.162 1504.91 442.671 1538.72 457.65ZM1419.66 291.465C1431.82 339.399 1407.34 396.851 1379.86 421.171C1334.25 461.527 1255.17 492.72 1188.42 480.56C1185.07 476.859 1186.48 468.929 1187.01 461.88C1222.06 454.302 1260.8 459.765 1293.56 447.429C1347.45 427.339 1417.2 389.625 1390.08 300.1C1380.74 269.26 1351.51 254.104 1339.18 228.198C1376.87 240.886 1411.21 258.157 1419.84 291.465H1419.66ZM1241.25 185.021C1262.56 190.661 1299.2 219.739 1309.41 237.009C1341.29 290.936 1293.56 367.42 1236.32 348.74C1240.2 332.174 1260.98 334.817 1272.08 327.24C1282.64 320.014 1285.46 310.674 1294.79 302.215C1309.06 220.444 1264.15 180.263 1196.17 190.132C1159.01 195.595 1122.02 231.899 1090.14 236.304C1125.9 209.165 1183.66 169.513 1241.43 185.021H1241.25ZM1048.58 305.211C1048.4 330.235 1057.91 346.625 1051.93 376.76C1086.45 365.482 1048.58 314.903 1064.78 298.161C1083.63 304.682 1076.41 334.289 1093.67 342.219C1078.87 375.351 1047.87 389.978 1035.55 425.929C1015.29 424.695 998.737 427.339 982.358 430.511C987.29 374.293 906.803 332.879 974.609 300.452C995.215 306.268 1027.09 307.149 1048.4 305.034L1048.58 305.211ZM749 196.3C854.495 197.71 929.699 226.083 998.737 259.567C942.555 267.321 868.585 206.169 795.671 209.694C770.839 210.927 734.382 230.313 734.206 261.329C734.206 288.116 768.197 289.702 757.453 312.965C750.937 317.018 725.047 281.948 720.82 265.735C712.895 235.423 729.098 210.927 749 196.124V196.3ZM722.053 205.112C714.128 227.669 707.612 283.182 729.274 300.805C719.94 300.805 703.209 285.825 696.516 274.899C699.686 245.468 703.385 216.919 722.053 205.112ZM691.056 319.485C692.817 319.485 694.579 319.662 696.34 319.838C727.513 355.789 789.683 378.17 855.904 388.039C873.164 390.683 895.531 385.924 902.224 406.896C830.719 472.101 676.262 437.208 629.943 366.01C635.931 334.289 667.28 331.293 691.056 319.662V319.485ZM664.11 286.002C654.247 296.399 638.749 300.452 630.647 312.965C626.42 293.932 646.146 277.895 652.31 261.505C662.701 263.796 655.128 282.124 663.934 286.002H664.11ZM643.68 231.899C650.373 232.251 646.85 234.013 645.97 237.362C610.922 260.272 580.629 313.317 595.247 371.65C603.349 404.429 639.453 422.933 665.167 436.855C618.495 428.748 573.584 398.789 573.056 346.449C572.352 290.936 608.104 257.805 643.68 231.899ZM750.409 468.753C749.176 478.974 749 488.138 751.465 495.188C654.247 496.069 561.608 472.101 566.011 374.998C590.844 438.441 671.507 452.892 750.409 468.577V468.753ZM592.429 501.179C669.746 558.807 803.068 518.979 908.388 521.093C905.394 535.368 910.325 542.594 908.916 555.458C841.463 553.52 767.14 593.348 687.005 594.405C635.402 595.11 583.799 597.225 545.405 574.844C513.88 542.417 517.05 488.314 554.916 464.347C568.125 469.282 579.22 491.31 592.253 501.003L592.429 501.179ZM543.644 437.208C535.719 434.74 538.184 444.081 530.083 441.613C530.083 431.039 536.952 428.748 536.775 418.175C541.883 422.052 541.883 430.158 543.468 437.208H543.644ZM529.202 372.883C533.781 372.178 533.957 375.174 534.134 378.523C488.871 436.15 470.026 559.336 527.617 608.151C578.692 651.504 667.456 615.729 738.256 621.369C738.609 633.881 732.444 639.168 733.677 652.914C648.964 656.615 550.337 662.078 503.841 609.385C451.886 550.348 478.656 424.519 529.378 372.883H529.202ZM490.984 645.512C586.969 724.992 772.6 675.295 891.481 665.426C889.015 676 883.203 697.324 888.839 707.546C837.06 722.349 793.558 739.972 747.943 762.177C693.698 788.435 652.838 824.563 587.322 836.723C541.531 814.87 495.916 806.763 467.208 770.989C431.104 725.697 443.608 655.91 452.766 579.602C466.327 603.922 471.611 629.652 490.984 645.512ZM446.426 513.163C430.047 611.324 384.432 752.484 459.107 815.575C484.116 836.547 530.435 862.981 566.892 867.387C631.352 875.141 664.638 838.309 710.077 818.219C706.731 836.018 715.889 843.067 715.537 858.223C667.632 882.719 623.779 921.49 549.632 890.121C528.85 881.309 502.432 868.62 485.525 859.633C435.683 833.022 408.56 797.423 406.799 724.992C405.038 653.09 422.826 564.799 446.602 513.339L446.426 513.163ZM396.936 837.956C391.3 846.768 380.909 849.764 377.035 860.514C369.286 836.723 373.689 802.182 374.745 770.46C385.665 789.845 384.08 820.333 396.936 837.956ZM378.972 662.254C381.086 687.455 363.826 689.394 357.662 705.96C323.142 798.657 336.703 943.342 409.089 981.584C433.041 994.273 468.617 996.035 500.142 1005.9C516.874 1011.01 530.963 1021.94 546.462 1024.76C593.134 1033.22 626.949 1012.42 665.871 1016.48C673.092 1040.62 646.498 1038.86 632.585 1040.8C560.199 1050.67 466.151 1047.49 412.259 1013.66C358.718 979.998 323.318 928.891 319.62 849.059C316.097 777.685 345.685 708.427 378.972 662.431V662.254ZM312.927 956.912C315.217 958.146 317.506 959.556 317.859 962.552C327.545 976.121 309.933 986.343 305.002 998.855C250.757 1134.38 370.694 1254.57 517.05 1242.41C569.886 1238 620.432 1205.22 665.167 1198.88C667.456 1230.07 629.414 1237.82 603.877 1247.87C563.546 1263.73 530.611 1274.3 473.196 1266.02C432.689 1260.21 359.247 1230.77 328.778 1209.27C306.939 1193.77 279.288 1168.39 271.715 1150.06C246.53 1089.26 288.623 1003.61 312.927 956.912ZM270.306 1340.39C241.775 1303.03 233.145 1243.46 248.996 1175.09C254.455 1176.14 248.996 1186.72 256.217 1186.19C248.996 1259.68 292.497 1336.34 326.488 1370.53C341.459 1385.51 372.103 1398.02 409.441 1396.96C506.835 1394.14 622.722 1364.53 680.841 1326.82C680.841 1331.76 687.71 1338.1 687.886 1340.57C688.943 1349.03 609.689 1382.69 584.152 1392.2C523.919 1414.76 412.787 1453.35 342.339 1411.41C327.369 1402.42 317.682 1380.22 302.888 1366.65C291.793 1356.43 277.527 1350.26 270.13 1340.74L270.306 1340.39Z" fill="black"/>
</g>
<defs>
<clipPath id="clip0_157_315">
<rect width="1565" height="1686" fill="white" transform="translate(218 157)"/>
</clipPath>
</defs>
</svg>
