<svg width="2000" height="2000" viewBox="0 0 2000 2000" fill="none" xmlns="http://www.w3.org/2000/svg">
<g clip-path="url(#clip0_157_316)">
<path d="M1868.9 760.246C1831.44 651.816 1706.55 552.127 1643.48 464.509C1619.12 430.377 1598.52 390.21 1569.58 362.322C1535.03 329.231 1488.4 326.734 1439.28 305.922C1419.3 297.597 1404.94 283.861 1389.95 277.826C1324.59 251.395 1251.53 249.938 1164.52 235.577C1093.75 223.923 1020.9 198.74 939.095 193.329C787.145 183.34 663.296 196.659 548.189 224.963C498.441 237.242 443.697 250.354 400.194 263.674C339.414 282.404 300.073 321.947 252.199 362.322C217.021 392.083 173.101 413.936 153.535 450.357C136.675 481.991 120.647 533.604 111.281 573.563C84.0129 690.526 103.579 790.215 149.997 869.301C205.781 964.619 255.945 1060.35 333.169 1122.79C429.335 1200.63 543.817 1238.5 692.437 1246C686.401 1321.54 744.058 1336.53 780.485 1369.2C805.671 1391.89 830.857 1426.02 861.455 1432.47C914.742 1443.92 951.792 1414.78 984.68 1414.99C1026.73 1414.99 1053.16 1463.48 1086.88 1467.85C1085.01 1530.5 1124.77 1550.47 1157.45 1580.44C1197.41 1617.49 1215.1 1643.71 1287.75 1636.84C1287.12 1694.08 1324.59 1714.68 1351.03 1749.65C1368.51 1772.54 1378.5 1806.05 1400.36 1809.58C1427.83 1813.95 1463.01 1787.52 1467.38 1760.26C1471.75 1733.62 1455.52 1703.65 1447.19 1676.6C1449.06 1667.65 1448.65 1657.66 1445.73 1646.83C1480.29 1600.63 1546.27 1623.52 1608.09 1605.21C1653.26 1591.89 1669.29 1545.69 1706.75 1510.1C1731.73 1486.37 1775.86 1464.11 1791.26 1432.68C1808.96 1396.47 1795.84 1346.93 1805.42 1302.4C1811.45 1274.72 1836.02 1252.66 1847.67 1235.59C1861.62 1214.99 1882.02 1190.84 1889.93 1165.04C1911.16 1096.15 1898.88 1038.71 1893.47 957.335C1888.26 878.458 1881.81 797.708 1868.9 760.038V760.246ZM1844.13 869.509C1818.32 868.468 1801.05 875.752 1773.78 873.047C1760.87 857.854 1767.95 822.474 1756.09 806.032C1703.84 858.27 1757.34 949.218 1844.13 915.087C1849.96 960.873 1848.3 1014.36 1851.21 1063.06C1830.6 1026.22 1800.84 998.334 1791.26 950.259C1772.95 950.675 1774.2 989.385 1780.65 1003.12C1773.78 1015.19 1755.05 1015.19 1749.01 1027.68C1726.53 996.669 1695.31 976.482 1689.06 936.107C1674.7 842.453 1747.14 775.439 1784.19 724.866C1815.2 761.911 1836.64 808.53 1844.13 869.301V869.509ZM1583.53 1137.15C1579.99 1123.21 1578.33 1106.97 1576.45 1091.36C1584.36 1077 1601.85 1072.01 1618.71 1066.81C1627.87 1083.46 1634.94 1102.19 1653.88 1109.05C1687.4 1065.35 1603.93 1029.14 1597.48 996.461C1591.02 963.579 1602.89 951.508 1650.35 957.751C1662.42 1019.77 1730.69 1042.25 1720.7 1119.67C1716.95 1149.01 1699.05 1170.87 1696.14 1207.7C1664.5 1178.36 1646.39 1135.28 1583.32 1137.36L1583.53 1137.15ZM1678.65 1228.72C1674.91 1238.09 1664.71 1240.59 1660.96 1249.74C1631.61 1235.8 1610.59 1213.32 1579.99 1200.42C1584.57 1189.8 1582.49 1172.32 1587.07 1161.71C1635.78 1165.87 1646.81 1207.7 1678.65 1228.51V1228.72ZM1587.07 482.199C1577.7 496.351 1561.26 503.427 1548.35 513.833C1529.83 503.219 1490.9 496.351 1478 517.371C1491.11 532.355 1519.42 532.147 1534.41 545.467C1530.45 618.725 1583.32 634.958 1601.22 686.364C1604.34 701.348 1584.99 704.262 1594.15 714.46C1617.87 722.785 1659.3 718.622 1671.58 703.846C1668.25 687.196 1650.55 684.907 1629.32 686.156C1614.34 633.501 1532.32 561.076 1601.22 510.087C1655.76 575.228 1714.04 636.831 1766.7 703.846C1709.25 754.419 1658.46 811.651 1647.02 908.011C1621 918.417 1578.95 912.797 1566.04 936.107C1544.19 926.741 1492.15 921.122 1488.61 950.259C1509.84 955.878 1540.44 952.548 1555.43 964.411C1563.34 990.634 1567.92 1019.98 1587.07 1034.76C1576.04 1044.95 1558.76 1048.7 1551.89 1063.06C1517.13 1043.29 1456.97 985.223 1410.97 1031.22C1481.74 1048.7 1548.14 1070.14 1548.35 1157.96C1535.86 1162.12 1525.04 1145.47 1513.17 1136.94C1465.51 1102.39 1330.42 1049.12 1277.13 1129.87C1240.29 1097.82 1292.33 1085.54 1315.85 1073.47C1343.32 1059.52 1362.47 1032.47 1382.66 1013.53C1418.67 980.228 1454.68 958.376 1477.79 914.879C1500.48 872.006 1508.39 827.26 1534.2 777.52C1555.85 787.302 1573.33 831.631 1604.55 809.154C1603.72 788.134 1580.62 784.804 1572.91 763.368C1565.63 743.388 1578.12 712.587 1555.22 700.1C1537.74 703.638 1534.82 721.952 1533.99 742.348C1465.09 804.575 1467.17 893.651 1410.76 950.051C1395.36 965.452 1372.46 975.441 1354.36 992.299C1342.7 1003.12 1335.21 1021.44 1322.72 1031.01C1296.7 1050.78 1256.94 1050.36 1234.67 1076.8C1234.04 1064.31 1211.15 1055.78 1216.98 1048.7C1262.14 1040.58 1312.93 1034.13 1315.64 992.299C1320.22 920.498 1169.73 849.113 1062.11 862.016C1058.78 846.616 1047.75 838.915 1051.5 816.23C1101.24 808.53 1143.92 834.336 1188.88 830.382C1228.42 826.844 1267.56 805.616 1305.02 826.844C1309.19 861.392 1310.23 899.27 1322.51 925.493C1358.1 904.681 1334.79 859.311 1333.12 819.768C1397.65 796.251 1476.75 787.302 1502.14 724.658C1449.48 727.363 1404.73 780.642 1347.07 791.464C1313.97 797.708 1267.97 776.063 1223.85 780.85C1205.53 782.931 1190.12 794.586 1174.51 795.002C1149.95 795.626 1121.44 780.434 1093.54 777.312C1049.42 772.525 1001.75 786.261 959.702 784.388C911.619 782.099 857.292 760.87 811.707 759.83C792.349 759.414 756.339 756.292 744.683 781.058C749.886 802.494 771.118 787.302 783.399 788.134C839.183 791.88 903.71 812.276 963.033 816.23C959.494 836.21 951.168 851.402 948.878 872.63C890.18 878.666 838.767 840.372 783.399 830.382C761.127 826.428 737.814 837.875 716.374 833.92C674.328 826.22 657.051 783.347 638.942 752.962C614.172 783.139 649.142 833.296 674.12 848.072C666.626 860.56 651.639 865.554 638.942 872.839C612.091 857.23 583.158 844.118 557.972 827.052C542.777 876.793 605.638 877.833 624.996 904.473C614.38 929.031 616.254 968.365 628.535 988.969C563.384 951.299 449.317 881.58 519.256 802.286C534.451 785.012 612.299 754.835 646.019 735.272C662.88 725.49 675.993 704.262 695.351 700.1C723.66 694.064 777.154 714.876 811.499 721.328C846.26 727.571 890.596 731.734 938.263 735.272C970.942 737.769 1001.33 749.008 1022.77 745.886C1037.34 743.805 1051.91 729.236 1065.03 728.196C1100.41 725.49 1119.56 758.997 1153.07 763.368C1231.75 773.566 1319.18 739.226 1374.96 721.12C1433.45 701.973 1480.91 706.759 1508.8 661.181C1537.74 661.806 1538.99 704.262 1572.29 689.486C1565.84 646.613 1539.61 623.512 1494.86 618.933C1418.67 558.579 1498.4 475.747 1512.55 404.154C1545.65 421.428 1566.04 451.813 1586.44 481.574L1587.07 482.199ZM1167.85 1242.87C1098.33 1232.47 1063.57 1293.03 1002.37 1267.43C1010.07 1249.12 1031.31 1257.44 1044.63 1253.28C1115.61 1231.84 1198.87 1143.6 1305.23 1203.96C1317.93 1244.12 1326.46 1288.24 1326.26 1341.31C1261.1 1320.71 1202.2 1293.86 1167.85 1242.67V1242.87ZM1340.41 1528.21C1255.28 1607.5 1125.81 1474.72 1185.34 1394.39C1204.07 1368.99 1263.39 1355.68 1294.62 1373.16C1332.92 1394.8 1335 1476.59 1340.41 1528.21ZM935.349 1249.95C928.48 1221.85 879.148 1203.96 847.301 1204.16C839.807 1195.63 864.994 1177.53 868.532 1161.92C881.021 1106.56 852.088 1076.8 840.432 1038.71C837.31 1028.72 840.432 1018.31 836.893 1010.61C811.291 953.381 750.095 968.99 710.13 940.269C725.117 870.133 787.77 945.264 833.355 940.269C809.209 904.265 730.32 868.468 688.898 912.173C667.043 990.01 746.556 982.309 794.639 1000.21C716.582 1023.93 624.996 956.503 681.821 894.691C736.981 834.545 828.984 902.391 910.787 912.173C966.987 919.041 1062.94 893.234 1129.14 912.173C1170.97 924.244 1217.39 970.446 1248.82 989.593C1252.78 1018.31 1196.16 1020.19 1171.39 1017.69C1096.87 1010.2 1017.57 917.792 914.325 947.137C895.384 952.548 853.129 969.406 847.301 1003.54C841.265 1040.58 877.066 1061.39 900.171 1098.65C912.66 1119.04 919.321 1144.85 938.887 1155.05C969.693 1170.87 1008.62 1166.7 1051.5 1169.2C1006.95 1201.04 963.449 1233.72 956.372 1303.02C939.303 1318.84 931.186 1343.6 903.502 1348.81C902.669 1307.6 944.715 1289.49 935.14 1250.16L935.349 1249.95ZM790.892 1225.39C780.485 1219.36 780.901 1202.5 773.199 1193.76C804.214 1162.75 829.192 1125.29 833.147 1067.01C872.487 1129.24 833.147 1195.63 790.892 1225.39ZM667.667 1052.86C674.952 1044.95 698.265 1052.86 702.844 1042.25C720.745 1054.94 676.826 1073.47 667.667 1052.86ZM977.603 873.255C986.97 859.103 986.345 834.961 991.757 816.854C1003.21 822.682 1010.91 818.519 1023.4 816.854C1027.56 833.712 1030.89 851.61 1037.55 866.179C1020.48 871.382 997.794 870.966 977.603 873.255ZM1044.63 1003.54C1005.5 986.472 932.226 978.355 924.941 1031.63C914.534 1107.18 1011.74 1129.66 1097.5 1116.13C1064.4 1141.1 986.137 1156.71 945.964 1130.28C915.366 1110.3 914.742 1056.4 886.017 1042.25C890.804 913.006 1105.41 1009.99 1146.62 1038.71C1118.31 1062.85 1072.94 1016.02 1044.42 1003.54H1044.63ZM1139.75 1059.94C1109.78 1113.01 939.512 1120.71 945.964 1028.3C1009.24 978.563 1071.48 1058.69 1139.75 1059.94ZM1171.39 1105.72C1173.47 1092.61 1179.72 1083.66 1182.01 1070.55C1207.82 1085.74 1225.72 1109.05 1234.88 1140.9C1127.68 1132.36 1096.04 1199.38 1030.68 1232.47C1034.43 1208.74 1064.82 1201.25 1083.55 1186.68C1114.77 1162.33 1135.59 1121.54 1171.6 1105.72H1171.39ZM280.507 633.501C302.571 656.603 301.114 708.008 333.377 710.922C368.555 714.044 383.75 658.268 403.94 629.963C441.199 623.095 450.982 643.907 474.295 650.983C462.222 691.359 405.814 707.176 396.863 753.17C383.125 823.098 428.71 885.95 477.834 911.549C510.93 970.03 571.501 1001.04 629.367 1034.76C552.143 1033.3 535.283 940.893 449.733 936.107C443.489 913.006 409.352 910.092 400.402 886.783C388.953 856.605 386.872 830.59 368.763 805.824C345.866 774.398 300.698 738.394 252.615 724.866C269.891 702.181 284.878 677.415 280.715 633.293L280.507 633.501ZM1185.75 302.384C1267.97 309.044 1335.21 336.307 1404.1 358.784C1406.19 370.231 1401.61 375.225 1400.57 383.55C1354.36 406.027 1330 352.54 1277.34 358.784C1272.55 392.916 1335.83 389.378 1344.36 422.052C1275.05 505.716 1138.71 441.615 1020.27 446.818C1026.52 414.144 1039.22 388.129 1048.37 358.784C1003.62 347.337 1005.91 412.479 985.097 436.204C892.47 409.149 841.681 340.053 816.078 245.983C926.814 242.237 1068.56 292.81 1185.96 302.384H1185.75ZM562.343 274.288C627.91 260.136 694.102 246.4 773.616 246.192C796.096 302.384 813.164 363.779 854.586 401.24C856.46 437.245 839.391 454.103 833.355 482.199C864.994 479.701 869.365 450.148 882.687 429.336C930.145 486.361 1037.97 482.823 1132.68 492.605C1132.88 529.026 1146.41 569.817 1182.01 559.619C1193.25 538.807 1167.85 524.447 1167.85 503.219C1259.44 516.538 1366.22 505.3 1379.13 429.336C1421.17 430.377 1443.65 411.646 1445.94 372.936C1462.8 374.809 1473.63 382.926 1484.66 390.626C1469.46 455.143 1428.46 494.062 1417.84 563.157C1357.06 554.624 1318.35 595.624 1273.39 601.867C1214.89 609.984 1114.57 592.294 1055.04 587.715C948.254 579.807 864.994 581.263 805.046 524.239C791.933 511.96 771.534 499.681 762.792 489.067C714.293 430.377 753.009 327.774 653.513 316.536C654.97 341.302 678.491 346.297 685.152 355.246C712.211 391.459 708.881 429.336 720.329 468.047C754.258 582.512 874.152 634.542 1026.73 630.172C1045.67 629.547 1068.77 623.512 1086.67 630.172C1118.31 641.618 1117.9 687.196 1153.7 696.978C1162.44 672.628 1136.21 638.288 1136.01 623.095C1194.91 627.05 1226.55 647.029 1280.46 640.786C1337.08 634.126 1380.58 586.883 1438.86 605.613C1447.4 622.887 1463.01 633.085 1470.5 651.4C1451.15 676.582 1414.09 677.415 1382.46 686.572C1351.86 695.313 1320.64 713.835 1290.87 718.206C1256.73 723.409 1201.57 727.779 1164.11 721.744C1139.34 717.582 1115.82 689.486 1090.21 686.572C1060.24 683.034 1032.76 708.633 1002.16 711.13C981.35 712.795 955.539 702.389 931.81 700.516C908.497 698.643 884.976 702.597 864.994 700.516C809.417 694.48 759.461 656.395 706.591 668.882C705.55 636.831 713.46 581.68 699.514 552.751C662.671 574.396 682.446 627.258 671.414 654.938C637.069 740.683 443.073 722.368 463.68 866.179C448.693 830.799 432.665 796.251 435.579 742.972C446.819 715.917 500.522 696.145 477.834 658.476C488.241 652.648 524.251 666.384 530.704 647.862C547.356 659.933 567.755 685.323 597.52 672.628C608.76 657.851 577.954 660.973 576.497 647.862C610.634 604.157 635.196 554.208 632.906 496.351C629.576 414.56 556.306 362.946 562.551 274.496L562.343 274.288ZM273.43 408.108C315.06 456.808 352.527 509.671 357.939 594.791C407.479 524.863 341.287 435.164 305.069 394.164C347.115 325.901 442.864 311.333 526.957 285.11C526.125 382.093 603.765 445.778 600.851 538.599C599.394 585.842 568.796 596.456 555.058 637.248C527.582 626.633 578.37 581.055 547.98 566.903C526.125 573.147 530.496 605.822 519.672 623.304C476.793 639.121 461.39 600.41 417.47 605.613C447.86 532.772 531.745 513.209 554.849 433.083C530.288 435.58 508.64 471.377 480.956 482.407C469.508 456.184 478.25 409.981 463.263 387.296C450.774 405.403 457.851 451.605 452.648 475.331C440.575 531.731 402.9 558.162 375.216 602.075C358.98 627.674 360.021 656.811 336.499 675.958C309.648 666.384 315.893 634.334 308.399 616.019C285.503 560.868 232.632 543.386 181.635 510.503C187.047 451.397 241.999 441.824 273.222 408.316L273.43 408.108ZM181.844 545.467C205.989 558.787 230.551 571.898 252.199 587.715C270.308 686.78 224.515 730.069 160.612 756.708C127.1 691.983 170.604 609.36 181.844 545.467ZM174.767 795.418C178.93 790.215 184.966 786.885 185.382 777.728C259.9 837.042 279.05 951.716 333.377 1031.22C261.982 985.223 224.098 875.336 174.975 795.21L174.767 795.418ZM305.069 922.163C274.679 864.098 240.958 815.606 209.944 770.652C260.733 750.673 313.811 792.296 343.785 830.59C376.881 872.839 378.13 926.117 424.755 957.335C450.566 974.609 486.368 976.69 509.264 996.045C553.392 1033.3 583.574 1080.54 646.644 1080.54C600.851 1102.81 556.723 1067.85 512.803 1063.06C475.752 1058.9 440.575 1074.09 407.063 1066.6C362.102 1056.4 324.843 960.249 304.861 922.163H305.069ZM622.082 1179.19C565.465 1171.49 478.25 1116.34 431.832 1098.23C515.301 1084.29 606.263 1154.63 692.437 1126.33C732.402 1113.22 731.569 1062.02 776.946 1048.91C794.639 1101.56 767.163 1146.52 734.692 1161.5C710.338 1172.95 653.929 1183.35 622.082 1179.19ZM1090.42 1408.12C1032.76 1339.86 929.312 1411.45 843.762 1380.03C820.658 1326.95 721.994 1315.3 741.56 1242.67C761.127 1241.83 746.972 1274.92 766.33 1274.3C820.241 1267.64 860.206 1209.37 903.71 1260.15C912.036 1288.87 880.189 1298.44 875.609 1320.09C868.74 1352.55 880.813 1377.11 903.71 1380.03C946.172 1385.02 951.168 1317.8 998.834 1306.14C1015.69 1301.98 1041.09 1308.43 1062.11 1306.14C1113.53 1300.52 1129.55 1272.22 1167.85 1306.14C1125.81 1324.04 1095.62 1353.59 1090.42 1408.33V1408.12ZM1227.8 1584.19C1214.06 1578.78 1150.16 1518.22 1143.29 1503.23C1099.79 1408.95 1172.02 1305.52 1284.21 1348.18C1050.87 1316.76 1174.51 1661.61 1340.62 1555.89C1330.42 1575.87 1274.01 1602.09 1227.8 1583.98V1584.19ZM1319.39 1637.05C1328.34 1626.02 1337.91 1615.82 1354.56 1612.49C1357.48 1649.33 1365.6 1681.17 1372.05 1714.68C1349.98 1693.45 1327.71 1672.02 1319.18 1637.26L1319.39 1637.05ZM1330 1228.51C1373.3 1263.89 1377.46 1393.76 1382.87 1496.16C1387.87 1590.02 1406.6 1677.22 1418.05 1742.78C1352.9 1607.29 1367.47 1391.68 1330 1228.51ZM1421.59 1351.72C1425.33 1321.54 1444.9 1303.85 1446.15 1277.84C1444.07 1269.31 1432.83 1269.93 1425.13 1267.22C1385.58 1228.1 1362.68 1172.32 1330 1126.33C1439.07 1088.45 1381.42 1240.79 1467.38 1256.61C1457.18 1212.49 1420.76 1197.71 1435.74 1136.94C1454.27 1139.65 1462.18 1152.76 1478 1157.96C1458.85 1185.85 1465.92 1228.72 1478 1260.15C1503.81 1245.37 1471.13 1192.93 1492.15 1172.11C1533.16 1186.68 1494.23 1252.24 1506.31 1302.4C1525.66 1284.08 1527.33 1248.29 1531.08 1214.36C1540.44 1205.62 1563.76 1242.25 1583.95 1246C1570 1273.05 1548.35 1292.61 1531.08 1316.34C1566.88 1325.08 1571.66 1272.64 1597.89 1259.94C1619.54 1264.1 1630.99 1278.46 1643.68 1291.57C1621.62 1302.4 1594.15 1307.81 1573.33 1319.67C1589.36 1338.82 1614.96 1314.05 1640.15 1319.67C1635.78 1338.82 1633.07 1359.42 1619.12 1368.99C1581.03 1368.99 1562.51 1332.16 1527.54 1340.69C1546.69 1367.33 1579.78 1380.23 1612.05 1393.55C1609.34 1406.04 1602.89 1414.99 1594.35 1421.65C1527.74 1409.58 1521.71 1336.94 1464.05 1315.92C1481.12 1356.51 1522.96 1402.5 1552.1 1442.67C1513.38 1438.3 1492.36 1469.31 1471.13 1470.77C1458.22 1436.01 1481.74 1385.64 1464.05 1358.17C1444.48 1393.14 1438.45 1448.08 1449.9 1495.53C1439.07 1493.03 1439.49 1501.57 1428.87 1499.07C1429.91 1450.58 1416.18 1396.88 1421.8 1351.1L1421.59 1351.72ZM1470.92 1573.58C1456.35 1575.45 1448.23 1583.77 1432.2 1584.19V1549.02C1458.22 1541.53 1479.25 1530.08 1470.92 1573.58ZM1759.62 1393.97C1742.97 1398.13 1730.9 1385.85 1720.91 1393.97C1724.03 1409.58 1738.19 1414.16 1752.55 1418.53C1743.18 1460.98 1707.8 1398.96 1685.52 1425.6C1684.9 1447.25 1708.84 1444.75 1717.16 1457.24C1668.66 1472.01 1644.73 1511.56 1614.96 1545.27C1594.98 1541.73 1593.94 1519.26 1579.78 1510.1C1553.97 1524.67 1584.78 1550.47 1593.94 1562.96C1557.51 1569 1573.95 1521.96 1544.61 1520.71C1522.12 1533.83 1557.3 1555.89 1548.14 1566.5H1491.74C1492.15 1530.5 1499.44 1503.02 1530.45 1492.62C1545.23 1487.62 1563.76 1493.45 1579.78 1489.08C1620.79 1478.26 1637.86 1446.83 1657.21 1418.74C1665.33 1419.78 1670.74 1418.11 1674.91 1415.2C1677.2 1399.38 1665.33 1385.02 1674.91 1372.95C1677.61 1356.72 1688.85 1385.23 1699.47 1383.56C1715.29 1369.83 1690.1 1355.88 1688.85 1337.78C1695.72 1307.18 1726.53 1283.25 1762.75 1302.6C1757.96 1336.11 1772.11 1374.41 1759.21 1394.18L1759.62 1393.97ZM1703.22 1242.46C1709.67 1219.57 1750.67 1231.22 1777.11 1228.31C1759.42 1242.87 1728.61 1244.75 1703.22 1242.46ZM1791.26 1207.29C1765.87 1201.67 1755.05 1205.41 1727.99 1207.29C1733.19 1153.8 1763.16 1125.08 1752.55 1055.78C1793.35 998.334 1813.74 1081.17 1854.75 1080.33C1850.79 1139.86 1823.74 1176.07 1791.26 1207.08V1207.29Z" fill="black"/>
</g>
<defs>
<clipPath id="clip0_157_316">
<rect width="1803" height="1620" fill="white" transform="translate(99 190)"/>
</clipPath>
</defs>
</svg>
