<svg width="2000" height="2000" viewBox="0 0 2000 2000" fill="none" xmlns="http://www.w3.org/2000/svg">
<g clip-path="url(#clip0_157_317)">
<path d="M1831.02 1085.56C1824.65 1070.76 1803.29 1048.09 1803.67 1041.72C1803.86 1036.66 1822.59 1019.05 1825.58 1011.55C1849.19 952.725 1826.71 892.771 1798.24 852.49C1822.96 831.131 1820.53 774.175 1803.67 745.51C1833.83 713.284 1829.52 633.658 1803.67 600.122C1845.07 551.971 1820.53 436.935 1776.32 408.082C1802.92 274.685 1733.05 201.804 1636.4 191.499C1562.41 183.443 1513.15 211.359 1474.75 235.34C1457.7 245.832 1441.4 265.692 1425.3 270.938C1399.45 279.369 1375.84 273.748 1356.74 284.615C1335.95 296.418 1331.45 314.967 1312.91 328.456C1247.53 290.236 1157.44 326.395 1115.48 361.431C1082.89 287.987 919.548 295.294 893.324 369.674C868.036 351.501 814.465 343.632 775.503 355.997C748.717 336.325 720.995 305.224 676.789 301.102C616.849 295.669 560.467 321.337 523.192 347.754C466.623 314.217 435.903 276.933 347.679 284.615C285.303 290.048 232.668 341.196 205.133 377.918C145.38 456.795 136.389 548.974 171.978 643.963C179.658 664.572 208.317 700.732 207.568 726.212C206.819 751.692 180.969 775.861 177.41 811.271C170.48 878.719 205.32 912.818 226.861 951.226C197.078 987.011 212.251 1060.64 237.725 1088.37C219.93 1110.48 221.616 1156.75 237.725 1178.86C205.133 1216.71 186.776 1262.24 188.462 1318.82C192.77 1476.2 368.658 1567.63 503.898 1499.8C558.032 1540.83 626.589 1567.25 690.276 1598.54C710.88 1609.22 714.626 1642.19 739.539 1642.38C761.642 1642.57 768.385 1614.84 764.265 1592.92C758.271 1561.26 721.37 1537.09 682.034 1516.1C628.462 1487.81 593.622 1458.77 536.678 1455.77C558.594 1428.8 604.86 1400.32 618.909 1359.85C633.519 1317.69 620.782 1272.17 602.425 1236.38C619.471 1181.11 593.996 1130.15 572.268 1096.61C581.821 1063.45 586.129 1032.73 577.7 995.067C573.204 974.833 553.724 954.786 552.974 937.549C552.225 918.439 567.398 897.268 569.458 877.22C576.201 810.709 550.727 746.072 503.711 729.022C506.146 682.745 501.651 643.401 487.227 613.799C498.092 618.67 505.209 594.126 514.575 594.688C523.192 595.063 555.222 637.593 577.7 652.206C591.187 661.012 627.713 669.443 646.257 671.504C710.693 678.062 751.527 655.204 786.18 627.663C804.35 654.267 876.278 657.265 906.81 638.717C947.457 680.31 1048.23 657.827 1074.08 619.419C1122.78 672.441 1217.38 655.766 1255.03 616.609C1264.21 607.054 1276.57 575.765 1285.18 575.391C1286.68 575.391 1303.35 596.749 1307.1 600.122C1354.68 640.59 1444.78 632.159 1493.48 602.932C1487.67 663.823 1530.75 689.865 1545.55 720.779C1505.47 777.735 1526.26 892.022 1553.79 945.793C1478.68 964.528 1488.79 1102.98 1526.44 1154.32C1511.27 1168.37 1500.78 1187.11 1496.29 1211.84C1468.56 1185.05 1407.5 1209.96 1394.95 1222.89C1380.71 1184.67 1342.13 1140.64 1296.24 1132.4C1232.55 1120.97 1193.21 1151.7 1156.5 1179.05C1087.57 1090.06 907.372 1106.17 827.389 1168.18C708.632 1260.18 760.144 1491.75 887.704 1532.96C898.569 1628.52 926.478 1738.31 983.609 1782.52C1008.52 1801.82 1068.84 1819.81 1112.48 1807.25C1139.83 1799.38 1151.44 1754.98 1153.69 1719.57C1160.81 1600.6 1070.71 1552.08 1022.01 1489.12C1028.75 1480.32 1031.19 1467.2 1035.68 1456.15C1072.77 1492.87 1135.15 1544.96 1211.2 1535.78C1245.47 1531.65 1271.89 1513.85 1298.86 1497.37C1319.84 1558.82 1394.2 1592.54 1479.8 1579.62C1527.94 1572.31 1561.28 1531.28 1581.33 1499.99C1705.89 1599.66 1880.84 1427.67 1795.24 1297.08C1854.43 1255.87 1862.11 1157.88 1830.83 1085.93L1831.02 1085.56ZM1364.79 320.212C1381.46 298.854 1408.06 309.908 1435.97 303.725C1453.39 299.791 1469.88 279.556 1490.85 268.128C1531.88 245.458 1619.16 216.417 1677.23 248.83C1656.25 254.451 1633.78 258.385 1619.54 270.751C1533.19 252.202 1489.17 299.041 1465.94 353C1423.8 358.433 1393.08 375.108 1356.18 385.974C1356.55 359.744 1354.12 333.327 1364.42 320.212H1364.79ZM1603.43 284.615C1573.65 316.091 1531.13 334.826 1482.8 347.754C1502.47 306.161 1531.5 273.936 1603.43 284.615ZM1112.67 399.839C1134.21 375.108 1213.82 343.632 1255.21 347.754C1288.18 351.126 1324.52 370.986 1332.01 397.028C1326.96 406.583 1312.53 406.771 1304.66 413.516C1288.37 404.335 1270.2 391.782 1252.59 388.785C1180.29 376.981 1133.46 417.45 1104.43 454.734C1100.87 462.977 1105.74 479.839 1093.56 479.465C1095.06 454.734 1096.93 418.199 1112.67 399.839ZM1285.37 421.759C1236.11 444.804 1179.16 459.98 1118.1 471.221C1128.96 412.766 1233.3 371.361 1285.37 421.759ZM1087.94 394.405C1073.52 414.452 1065.65 453.797 1071.46 484.898C1035.31 487.146 1010.39 500.823 972.745 501.385C984.546 478.153 976.304 438.621 967.313 419.136C964.878 438.059 980.799 492.954 956.261 504.196C951.766 473.844 947.645 414.265 928.913 386.162C955.137 333.889 1071.27 336.887 1087.94 394.405ZM926.104 506.819C855.486 507.193 794.047 498.013 736.917 484.898C738.041 458.481 743.473 436.56 747.781 413.516C821.021 359.932 940.901 393.843 926.104 506.819ZM407.806 320.212C444.52 324.896 482.17 350.939 514.762 366.864C520.195 369.487 525.439 375.482 531.246 377.918C579.198 338.199 692.523 323.398 736.917 375.108C730.548 389.909 718.935 399.277 717.623 418.949C696.644 370.798 587.628 348.503 544.92 394.218C540.05 391.782 541.361 383.164 531.246 385.974C522.63 390.283 525.439 410.518 528.436 418.949C557.47 405.459 587.815 378.105 629.96 383.351C671.919 388.41 713.315 421.197 706.759 479.277C567.772 465.038 423.353 381.665 259.828 432.626C249.901 432.626 262.451 412.953 262.638 405.272C233.604 407.145 239.411 444.242 210.565 446.49C243.345 376.232 301.974 306.723 407.994 320.4L407.806 320.212ZM237.725 761.809C251.399 767.243 253.834 784.105 270.693 786.54C240.535 864.293 285.865 944.106 366.597 945.605C359.479 923.123 329.509 924.621 311.714 910.008C281.931 885.651 260.39 845.932 281.557 792.161C303.098 792.723 324.077 792.536 339.249 786.728C350.301 841.436 369.22 888.274 372.029 951.226C363.788 955.535 338.875 957.596 328.198 967.713C246.154 952.537 201.948 852.677 237.725 761.997V761.809ZM333.63 756.376C318.645 756.751 304.034 756.564 292.421 753.566C280.058 736.516 267.883 719.654 254.022 704.104C250.837 662.511 260.203 633.471 275.937 610.801C293.732 621.293 311.152 632.347 330.82 640.965C324.077 676.375 329.134 723.027 333.63 756.189V756.376ZM352.923 1200.6C352.361 1192.73 376.15 1185.42 377.649 1170.43C355.546 1166.12 332.506 1176.43 306.469 1167.62C283.055 1144.39 302.536 1109.73 325.576 1101.67C321.267 1072.63 285.303 1080.31 268.07 1063.26C248.028 1043.59 240.535 1013.99 246.154 975.582C253.46 972.022 263.949 985.137 276.312 992.069C301.599 1006.12 355.171 1020.17 377.836 989.259C383.83 1054.65 391.885 1117.78 391.51 1189.54C379.709 1194.23 363.6 1194.41 353.111 1200.41L352.923 1200.6ZM446.206 1447.53C361.54 1453.34 258.704 1351.6 284.366 1266.55C296.542 1226.45 346.555 1219.33 385.891 1200.78C395.256 1292.03 409.305 1393.01 446.206 1447.72V1447.53ZM281.744 1154.13C264.324 1147.76 257.206 1131.09 259.828 1104.67C267.508 1109.73 277.623 1112.35 287.176 1115.54C283.243 1126.22 280.807 1138.58 281.744 1153.94V1154.13ZM278.934 1428.42C245.218 1394.88 228.172 1323.69 229.483 1283.03C230.607 1249.31 245.592 1218.39 265.073 1189.73C288.113 1200.78 313.962 1206.4 347.304 1200.6C320.518 1216.15 291.672 1222.7 278.747 1247.25C236.976 1326.69 296.729 1419.8 350.114 1452.96C382.706 1455.4 423.915 1464.77 465.312 1466.64C433.281 1497.74 311.902 1460.83 278.934 1428.23V1428.42ZM457.07 1409.12C446.955 1357.97 423.353 1306.83 418.67 1247.25C415.112 1200.97 418.109 1150.95 415.861 1101.86C413.988 1060.45 412.864 1020.92 410.429 975.769C404.247 861.857 353.485 769.304 355.546 654.829C355.358 650.895 355.171 647.148 358.355 646.586H380.271C369.407 766.306 410.241 862.981 424.103 972.959C445.269 1141.39 410.241 1337.55 492.659 1441.91C475.614 1436.1 470.182 1418.68 457.07 1408.94V1409.12ZM451.638 638.342C450.701 631.972 459.505 635.344 459.88 630.099C487.789 688.179 480.859 800.967 421.48 819.328C421.48 809.21 418.67 802.091 416.048 794.597C458.006 772.114 470.556 697.172 451.638 638.342ZM410.429 772.676C399.752 738.015 394.507 688.179 399.564 646.586C414.175 647.523 423.541 643.213 435.154 640.965C452.012 677.499 456.321 766.306 410.429 772.676ZM695.52 1559.76C640.637 1540.65 579.573 1503.74 520.007 1480.13C586.504 1487.81 644.009 1527.91 695.52 1559.76ZM558.407 1129.21C583.132 1157.32 583.694 1232.26 561.216 1263.55C561.778 1230.2 561.216 1178.86 533.868 1164.81C539.301 1150.2 553.724 1144.58 558.594 1129.21H558.407ZM492.472 791.786C512.515 818.016 528.998 862.794 525.439 904.2C523.192 930.804 496.78 949.54 506.146 972.772C514.762 980.079 524.503 970.711 533.494 969.961C569.083 1043.03 526.189 1126.97 489.662 1170.24C497.155 1179.05 509.143 1170.24 525.252 1173.05C546.231 1196.85 557.845 1267.11 528.062 1291.09C513.826 1302.52 498.841 1291.46 486.853 1307.58C508.581 1345.61 574.328 1315.07 585.567 1285.66C607.296 1360.04 554.098 1400.69 511.578 1428.23C418.296 1295.59 483.294 1021.48 429.347 849.492C445.269 825.323 480.671 820.452 492.472 791.974V791.786ZM333.443 599.747C290.548 594.501 271.816 560.59 245.78 544.852C230.233 563.4 256.082 584.758 267.696 594.314C254.396 618.482 236.976 638.53 237.538 676.563C202.323 638.717 185.277 549.536 215.622 492.767C230.607 493.329 228.36 511.128 242.97 512.065C252.336 512.065 251.025 501.947 251.212 492.767C277.061 528.364 286.24 568.084 328.011 577.826C391.135 592.44 453.698 539.606 478.798 484.523C485.354 488.083 495.282 488.083 500.714 492.767C487.977 561.901 427.1 610.988 333.443 599.747ZM259.454 479.09C330.071 482.65 397.317 462.603 456.883 479.09C437.964 525.179 385.141 581.761 319.769 558.716C288.862 547.662 276.874 509.254 259.454 479.09ZM498.092 555.906C491.161 552.346 502.025 543.728 500.901 536.795C504.835 540.168 506.146 546.163 506.333 553.283C502.4 553.095 498.654 552.908 498.092 556.093V555.906ZM520.007 503.821C581.821 522.369 640.825 543.915 709.194 555.906C697.768 581.948 658.058 579.7 637.828 597.124C679.037 607.241 710.318 583.822 728.3 561.526C744.971 563.025 757.709 568.646 772.132 572.393C720.808 667.757 500.714 629.349 519.82 503.821H520.007ZM802.477 602.557C805.286 572.393 842.562 576.89 876.466 577.826C879.463 588.506 882.647 598.997 884.707 610.801C859.982 622.792 819.335 615.485 802.477 602.557ZM909.433 577.826C961.881 578.201 1010.96 575.203 1051.98 564.149C1056.66 563.213 1057.22 566.21 1057.41 569.583C1044.49 625.227 924.418 645.087 909.433 577.826ZM835.444 553.095C770.633 548.411 697.955 532.861 629.773 517.498C584.256 507.193 544.171 486.209 498.092 470.846C428.411 447.427 331.382 462.415 251.212 465.413C253.834 447.989 275.75 451.174 286.802 448.926C317.334 443.118 363.6 436.935 404.622 438.059C475.427 439.933 545.857 473.844 615.725 490.144C650.94 498.388 690.65 504.008 728.113 509.442C794.797 518.997 856.985 536.795 939.216 531.362C1008.52 526.866 1076.89 506.631 1142.08 490.144C1208.95 473.282 1267.95 457.357 1325.83 429.815C1380.53 403.773 1441.03 386.911 1506.78 366.677C1534.5 358.246 1563.16 344.943 1589.01 328.269C1628.72 302.788 1647.64 264.381 1712.45 278.994C1644.64 308.222 1590.32 351.313 1525.88 380.354C1428.29 424.382 1307.66 450.425 1207.82 492.767C1112.11 533.236 975.742 563.4 834.882 553.095H835.444ZM1126.15 547.662C1151.82 538.482 1184.03 536.046 1205.76 522.931C1220.75 549.348 1143.76 594.314 1126.15 547.662ZM1260.46 533.985C1254.09 589.63 1107.42 653.518 1087.76 558.716C1121.85 542.791 1129.9 592.253 1178.23 586.07C1205.01 582.698 1228.62 554.594 1219.44 520.308C1239.85 502.884 1264.77 498.013 1260.65 533.985H1260.46ZM1403 575.203C1358.05 571.269 1263.64 545.601 1276.76 492.954C1296.8 482.837 1307.29 509.816 1323.4 520.308C1356.36 542.041 1428.67 554.032 1455.08 509.442C1401.88 533.048 1333.51 521.994 1304.29 484.711C1367.98 461.479 1438.97 445.741 1498.91 418.949C1512.02 423.258 1511.46 441.057 1523.63 446.303C1534.69 440.869 1531.69 421.384 1531.88 405.085C1601.18 376.419 1650.63 328.081 1726.68 306.348C1754.59 337.824 1730.99 386.911 1745.79 424.382C1750.47 436.373 1765.64 439.745 1773.14 451.736C1793.55 484.149 1785.5 521.432 1781.38 564.149C1770.33 572.393 1761.52 582.698 1745.79 586.07C1747.47 539.418 1734.55 507.755 1721.06 476.28C1737.73 426.068 1729.68 345.88 1696.34 320.025C1678.54 350.377 1715.44 414.827 1690.91 457.169C1668.8 495.015 1601.37 511.315 1562.03 487.334C1550.42 480.214 1544.99 467.661 1529.07 465.413C1515.39 514.125 1482.8 582.323 1403 575.203ZM1748.41 608.178C1787.56 625.227 1778.76 723.589 1742.98 737.079C1738.3 698.483 1752.72 655.392 1748.41 608.178ZM1773.14 772.676C1793.93 813.894 1758.53 860.921 1721.06 835.815C1724.62 808.274 1733.05 785.791 1734.74 756.189C1748.79 760.311 1754.78 772.676 1773.14 772.676ZM1526.44 575.203C1542.55 593.752 1544.99 625.977 1581.33 624.478C1565.41 606.679 1520.45 571.831 1545.74 528.552C1581.14 554.22 1655.88 553.095 1682.85 520.308C1695.21 545.414 1693.53 584.758 1693.9 621.855C1671.24 649.583 1640.33 685.181 1598 682.183C1555.1 679.186 1517.64 628.225 1526.63 575.203H1526.44ZM1583.95 909.82C1553.42 860.733 1540.49 758.437 1605.87 726.025C1580.77 744.198 1570.28 795.721 1583.95 835.815C1588.07 781.669 1621.04 690.989 1671.8 742.512C1648.57 817.079 1626.47 892.771 1627.97 992.069C1624.6 1003.12 1611.3 980.641 1597.81 983.826C1637.71 968.275 1600.43 935.863 1584.14 909.82H1583.95ZM1608.68 704.104C1636.59 689.116 1673.67 683.12 1690.91 657.452C1694.65 675.064 1682.48 700.169 1679.85 720.404C1664.87 706.165 1633.78 708.038 1608.68 703.917V704.104ZM1279.56 1170.43C1301.86 1173.05 1335.57 1192.54 1342.69 1211.65C1361.23 1261.67 1319.28 1295.21 1307.1 1332.31C1341 1322.38 1354.68 1292.21 1359.17 1252.87C1371.16 1260.55 1373.97 1287.15 1394.76 1277.6C1393.45 1300.83 1403.75 1312.45 1413.87 1324.25C1408.06 1286.22 1405.25 1221.39 1468.75 1236.38C1487.86 1245.56 1495.54 1266.36 1515.39 1274.79C1548.73 1262.99 1514.64 1199.47 1545.55 1184.3C1568.4 1192.17 1594.25 1178.3 1594.81 1154.13C1595.75 1123.59 1530.94 1088.93 1542.74 1030.66C1550.05 995.254 1597.44 987.76 1627.78 1019.61C1635.09 1170.81 1605.87 1267.11 1512.58 1324.06C1474.75 1347.11 1427.73 1366.97 1378.28 1362.47C1304.48 1355.73 1247.91 1313.38 1189.09 1280.22C1172.42 1214.65 1223.93 1163.87 1279.56 1170.43ZM1098.62 1192.35C1121.28 1206.97 1137.39 1246.31 1172.61 1222.52C1173.92 1229.45 1171.67 1256.24 1172.61 1271.79C1098.99 1229.64 953.826 1213.15 898.381 1285.47C855.674 1341.3 891.076 1418.12 925.729 1469.26C840.127 1451.84 779.812 1323.13 846.308 1244.44C816.9 1255.12 809.407 1287.9 802.477 1321.25C789.365 1181.11 990.352 1122.28 1098.62 1192.35ZM1307.1 1447.34C1302.23 1447.72 1301.29 1443.97 1296.05 1444.53C1297.55 1433.1 1300.17 1422.99 1301.48 1411.56C1303.92 1413.62 1307.66 1414.56 1312.53 1414.37C1312.53 1427.3 1307.66 1435.17 1307.1 1447.34ZM1268.7 1370.53C1240.98 1356.66 1209.88 1348.42 1189.09 1337.74C1154.81 1319.94 1128.03 1292.78 1090.38 1282.85C1053.29 1273.1 977.428 1267.48 950.642 1302.14C979.113 1290.71 1041.49 1286.4 1084.95 1299.33C1149.94 1318.63 1214.57 1382.33 1282.37 1403.5C1278.44 1425.24 1273.01 1445.47 1263.27 1461.02C1199.02 1511.61 1102.74 1472.45 1057.6 1430.86C1025.75 1401.63 981.736 1289.22 920.484 1342.99C930.225 1368.47 959.82 1361.16 975.367 1375.96C987.355 1387.39 998.969 1410.43 1000.09 1433.48C1000.84 1449.4 988.854 1466.27 991.851 1485.56C994.286 1500.93 1022.2 1537.65 1033.06 1551.33C1072.4 1601.72 1150.32 1689.03 1085.13 1748.8C994.473 1748.8 964.316 1690.72 945.21 1614.46C939.216 1590.11 941.276 1558.82 931.536 1535.03C921.795 1510.86 895.384 1509.73 871.221 1488.37C834.32 1455.77 816.525 1402.19 802.664 1354.04C828.326 1409.12 855.112 1491.37 931.536 1477.51C939.778 1484.63 944.086 1507.67 956.261 1502.24C956.261 1446.59 866.163 1363.97 926.104 1296.52C956.636 1262.05 1045.24 1251.18 1107.05 1271.79C1192.84 1300.46 1264.58 1385.33 1378.47 1395.26C1492.92 1405.19 1582.83 1321.63 1616.92 1247.06C1658.69 1156.38 1646.7 1049.03 1655.32 920.687C1661.87 821.763 1710.95 738.765 1718.44 654.642C1723.69 594.126 1710.39 553.47 1704.77 498.388C1725.93 537.358 1727.06 596.749 1723.87 660.263C1717.69 782.793 1669.55 890.897 1663.56 1022.23C1658.5 1133.52 1654.01 1240.69 1597.81 1301.96C1583.2 1317.88 1539.56 1353.29 1512.77 1370.53C1451.14 1410.06 1335.76 1404.06 1268.7 1370.53ZM1688.28 1085.37C1767.52 1095.3 1748.6 1213.15 1680.04 1219.71C1691.47 1182.61 1693.53 1131.09 1688.28 1085.37ZM1452.46 1526.97C1389.14 1529.03 1317.78 1498.87 1326.39 1419.99C1337.63 1417.93 1340.44 1424.3 1351.12 1422.8C1342.13 1479.57 1420.05 1533.71 1466.32 1485.94C1450.77 1480.51 1429.04 1492.5 1406 1488.75C1384.84 1473.39 1364.42 1457.27 1362.17 1422.99C1426.79 1428.98 1484.11 1423.74 1524.01 1398.26C1583.58 1439.29 1524.57 1524.91 1452.64 1527.16L1452.46 1526.97ZM1542.93 1387.2C1546.49 1384.39 1553.04 1384.58 1553.79 1378.96C1563.16 1397.13 1561.47 1426.17 1567.47 1447.53C1557.54 1429.17 1550.05 1408.37 1542.74 1387.2H1542.93ZM1743.17 1318.63C1810.22 1416.24 1683.41 1532.59 1592.38 1455.77C1581.14 1431.23 1576.08 1400.69 1573.27 1368.09C1615.04 1331.37 1657.56 1295.02 1674.8 1233.76C1772.95 1239.19 1784.94 1075.26 1688.47 1069.26C1685.85 987.011 1695.03 916.752 1713.2 855.3C1742.98 868.415 1751.41 903.076 1759.84 937.549C1774.07 913.38 1752.35 879.843 1748.79 866.167C1787.19 865.23 1795.99 931.554 1790 978.58C1785.69 1012.12 1762.09 1032.35 1751.6 1049.77C1756.09 1064.39 1769.95 1065.33 1778.94 1079.94C1812.29 1133.15 1793.55 1244.62 1743.35 1263.73C1729.31 1269.17 1714.13 1260.55 1699.52 1271.98C1708.7 1298.21 1730.8 1300.46 1743.35 1318.63H1743.17Z" fill="black"/>
</g>
<defs>
<clipPath id="clip0_157_317">
<rect width="1698" height="1621" fill="white" transform="translate(151 190)"/>
</clipPath>
</defs>
</svg>
