<svg width="2000" height="2000" viewBox="0 0 2000 2000" fill="none" xmlns="http://www.w3.org/2000/svg">
<g clip-path="url(#clip0_157_318)">
<path d="M910.656 1442.39C943.872 1429.48 945.758 1401.93 963.454 1372.06C976.073 1350.74 998.991 1337.69 1008.71 1314.34C1056 1371.19 1104.44 1391.49 1136.79 1445C1158.84 1481.4 1179.58 1537.67 1189.59 1580.59C1192.63 1593.94 1189.3 1609.02 1194.66 1623.38C1214.83 1678.05 1280.68 1697.77 1345.37 1711.26C1374.24 1717.35 1407.45 1729.24 1438.35 1733.88C1467.36 1738.09 1494.92 1738.81 1521.32 1743.89C1562.07 1751.86 1623.58 1769.41 1667.09 1756.36C1698.71 1746.93 1729.46 1699.8 1734.97 1668.48C1741.65 1629.9 1727 1592.2 1729.9 1557.97C1730.48 1551.16 1731.64 1544.92 1732.94 1538.83C1734.54 1533.61 1735.99 1528.24 1737.15 1522.59C1741.5 1507.65 1746.29 1494.31 1747.59 1480.1C1751.22 1441.67 1746.72 1410.34 1740.05 1384.67C1733.52 1359.44 1714.52 1338.7 1712.49 1309.26C1711.04 1289.68 1726.27 1266.19 1722.5 1244C1719.02 1223.41 1703.06 1228.63 1699.87 1203.83C1697.41 1184.69 1707.12 1155.83 1712.49 1131.03C1717.86 1105.65 1725.26 1078.83 1732.51 1063.16C1742.37 1042.28 1766.3 1029.08 1765.14 1005.45C1762.68 955.413 1709.74 956.864 1702.34 914.953C1695.81 877.828 1714.23 858.395 1717.42 827.071C1725.26 750.065 1697.26 695.392 1672.17 643.765C1655.34 608.961 1638.95 572.706 1621.98 543.266C1583.25 476.122 1534.52 427.976 1481.28 385.05C1424.28 338.933 1363.94 297.458 1295.33 271.934C1131.57 211.171 869.317 240.9 727.313 291.947C690.616 305.144 652.613 318.776 619.251 334.583C565.003 360.251 524.679 403.902 481.019 437.547C347.428 540.801 222.83 651.596 234.869 892.33C238.496 966 254.016 1045.47 269.971 1123.49C284.766 1194.7 312.036 1265.47 355.406 1306.94C376.148 1326.66 408.494 1336.53 435.763 1354.65C460.567 1371.19 476.377 1395.69 501.036 1409.91C514.235 1417.45 532.656 1426.15 548.757 1430.06C599.234 1442.39 654.498 1427.6 712.083 1427.6C776.05 1427.6 855.682 1463.85 910.656 1442.68V1442.39ZM963.454 1344.36C957.362 1323.18 960.263 1289.25 970.997 1276.49C987.097 1294.91 975.058 1330.73 963.454 1344.36ZM935.75 1098.26C920.81 1042.72 881.211 1006.46 890.494 940.041C867.866 990.653 895.426 1017.77 913.122 1065.63C930.963 1113.92 928.787 1159.46 958.377 1191.22C893.975 1184.25 850.605 1124.51 762.415 1140.89C813.183 1038.07 797.517 904.946 903.113 867.096C926.902 858.54 967.516 855.06 1001.02 852.014C1018.14 850.564 1037.86 850.129 1053.82 852.014C1087.33 856.075 1120.11 876.087 1151.87 887.254C1162.17 890.879 1172.91 888.269 1182.04 892.33C1204.82 902.481 1244.71 936.706 1259.94 965.13C1288.37 1018.06 1271.97 1085.79 1252.39 1135.96C1150.71 1115.37 1186.11 957.734 1104.15 917.418C1105.46 936.706 1124.89 942.942 1134.32 957.589C1150.71 983.257 1156.81 1016.32 1162.03 1055.62C1105.75 1012.12 1017.85 1000.37 981.15 937.576C986.082 991.233 1043.52 999.935 1086.6 1022.99C1114.02 1037.64 1136.35 1055.62 1162.03 1065.77C1175.52 1102.61 1202.06 1126.25 1227.3 1151.19C1151 1169.17 1090.66 1234.87 996.09 1203.98C965.92 1181.64 948.224 1144.95 935.75 1098.55V1098.26ZM749.796 1151.05C716.434 1147.42 706.281 1172.8 676.981 1168.59C653.773 1165.4 626.214 1124.94 609.098 1108.26C575.446 1075.63 539.619 1054.46 533.672 1002.69C530.191 972.091 538.894 933.66 543.68 899.726C565.438 744.989 680.462 701.338 812.457 648.551C862.354 628.538 906.885 609.831 958.232 605.915C1045.55 599.244 1117.93 604.03 1184.36 638.545C1141.43 581.407 972.592 573.866 872.798 600.839C850.025 606.93 831.604 621.142 807.526 631.004C747.475 655.657 691.631 673.204 646.666 703.804C613.304 726.427 578.492 769.063 561.231 796.761C530.191 846.793 513.945 931.195 521.052 1000.22C530.191 1088.69 610.548 1107.83 654.208 1171.06C614.029 1156.99 589.516 1188.32 558.765 1183.67C535.267 1180.19 531.351 1154.09 521.052 1133.5C503.066 1097.53 495.089 1082.45 480.874 1050.55C466.659 1018.79 436.343 998.339 412.99 972.671C404.142 962.954 393.554 946.712 380.354 932.5C367.3 918.578 351.054 910.892 347.718 894.795C341.046 862.601 365.559 802.417 382.965 769.208C403.127 730.632 429.381 701.338 450.848 676.25C504.372 613.601 551.803 567.775 614.174 518.033C749.506 410.138 925.161 356.191 1129.25 347.199C1134.76 361.846 1145.35 371.418 1156.81 379.829C1134.61 407.818 1154.48 460.17 1171.89 485.258C1164.64 523.254 1166.96 571.11 1179.43 608.38C1195.97 657.832 1237.02 698.583 1242.24 736.578C1251.38 802.562 1220.34 844.038 1184.51 877.248C1127.36 859.41 1074.71 829.101 1006.1 834.612C914.862 841.863 841.757 864.486 805.06 940.186C786.203 979.052 790.845 1023.72 777.355 1068.24C768.652 1097.1 743.414 1119.43 749.651 1151.19L749.796 1151.05ZM1249.78 771.673C1276.33 796.616 1312.15 802.852 1342.76 819.385C1377.86 838.527 1402.66 876.958 1445.74 884.644C1432.11 931.485 1407.89 982.532 1400.49 1035.32C1398.89 1046.2 1402.37 1059.97 1398.02 1070.41C1390.48 1088.4 1360.89 1102.75 1342.76 1110.58C1320.28 1120.3 1297.36 1129.58 1272.41 1133.21C1291.56 1078.97 1299.1 1009.8 1274.88 959.909C1257.33 923.799 1224.4 905.817 1202.06 882.033C1220.92 848.244 1258.78 833.161 1249.78 771.528V771.673ZM1292.57 1678.48C1271.39 1673.12 1265.16 1649.19 1254.86 1630.77C1245 1612.93 1227.59 1595.1 1222.22 1577.98C1212.79 1548.4 1211.78 1520.99 1202.21 1495.03C1176.39 1425.71 1124.6 1370.17 1063.97 1326.66C1049.32 1316.08 1026.99 1316.8 1021.33 1288.96C1061.07 1259.52 1075.43 1313.61 1094.14 1334.21C1104.44 1345.37 1127.22 1365.09 1144.33 1374.38C1161.01 1383.37 1179 1385.83 1192.05 1399.46C1239.34 1448.63 1237.74 1555.8 1264.87 1620.48C1269.65 1631.79 1274.3 1642.95 1279.95 1653.1C1284.01 1660.5 1294.75 1668.19 1292.57 1678.19V1678.48ZM1099.08 1286.64C1175.37 1323.62 1163.91 1223.12 1227.15 1223.85C1224.4 1261.12 1219.47 1307.38 1186.98 1316.8C1161.59 1324.05 1135.77 1319.99 1118.08 1308.1C1114.6 1305.06 1111.26 1302.16 1107.63 1299.26C1104.15 1295.49 1101.25 1291.28 1099.08 1286.64ZM1727.29 1422.23C1727.87 1431.08 1726.71 1439.93 1727.29 1447.32C1712.93 1430.64 1721.05 1391.63 1709.74 1371.91C1721.77 1371.77 1725.69 1400.91 1727.29 1422.09V1422.23ZM1714.67 1464.87H1727.29C1724.82 1485.03 1722.5 1505.33 1714.67 1520.12C1695.96 1506.05 1714.09 1487.2 1714.67 1464.87ZM1576.43 1668.33C1586.59 1667.32 1596.02 1657.89 1606.6 1655.71C1617.05 1653.68 1628.36 1656.73 1639.24 1655.71C1669.99 1652.67 1693.05 1636.57 1712.2 1633.09C1714.81 1663.26 1708.43 1684.57 1697.12 1700.96C1666.51 1731.56 1609.07 1726.19 1551.34 1718.51C1495.79 1711.26 1421.09 1706.91 1388.01 1685.88C1364.81 1671.09 1359.44 1650.35 1340.29 1643.24C1341.45 1666.3 1365.39 1680.08 1368 1693.42C1248.33 1672.39 1271.54 1508.52 1217.29 1422.09C1214.83 1375.97 1173.78 1368.43 1139.4 1354.22C1156.95 1344.65 1166.09 1353.35 1182.19 1351.75C1245.43 1345.52 1260.08 1289.25 1267.62 1221.09C1287.64 1229.5 1301.42 1244.15 1312.88 1261.26C1312.3 1375.25 1279.66 1530.71 1355.67 1585.38C1336.38 1538.83 1318.1 1486.48 1317.96 1422.09C1317.96 1372.49 1324.34 1320.72 1323.03 1268.8C1342.03 1285.77 1339.71 1322.75 1338.12 1359.29C1335.07 1429.77 1333.33 1502.28 1365.82 1555.22C1379.31 1577.26 1400.63 1596.26 1421.09 1610.47C1439.51 1623.38 1464.17 1646.58 1493.9 1640.63C1486.79 1616.85 1462.28 1610.32 1446.18 1595.39C1446.47 1561.31 1447.78 1528.39 1453.72 1499.96C1493.76 1495.32 1538.43 1515.63 1581.95 1517.51C1638.66 1519.98 1678.4 1524.18 1702.48 1565.22C1702.48 1585.24 1701.61 1606.41 1704.95 1622.94C1652.44 1656.15 1567.01 1645.56 1508.99 1640.49C1521.9 1659.2 1549.31 1671.09 1576.87 1668.19L1576.43 1668.33ZM1380.47 1314.05C1391.64 1323.76 1394.83 1341.6 1398.02 1359.29C1389.32 1355.38 1375.11 1357.12 1362.78 1356.83C1360.89 1334.93 1375.25 1329.13 1380.33 1314.05H1380.47ZM1362.92 1281.42C1372.93 1282.14 1378.3 1278.37 1383.08 1273.88C1388.74 1284.75 1370.75 1293.31 1368 1304.04C1364.23 1298.53 1363.65 1289.83 1362.92 1281.42ZM1538.87 1482.42C1528.71 1479.95 1516.82 1479.37 1503.62 1479.95V1449.79C1521.17 1451.38 1534.08 1448.48 1538.87 1437.17C1543.07 1446.45 1536.11 1466.32 1538.87 1482.42ZM1503.62 1432.24C1501.3 1419.48 1496.51 1409.18 1498.54 1392.07C1509.86 1397.43 1529 1394.97 1533.64 1407.15C1535.24 1427.16 1517.83 1428.18 1503.47 1432.24H1503.62ZM1463.44 1369.45C1462.57 1343.49 1453.58 1325.79 1445.89 1306.65C1469.39 1311.58 1488.68 1342.62 1498.69 1369.45C1483.46 1369.74 1477.37 1372.78 1463.44 1369.45ZM1483.6 1434.7H1466.05C1467.94 1421.07 1462.14 1415.27 1463.59 1402.07C1469.1 1398.3 1477.08 1397.14 1481.14 1392.07C1488.68 1393.95 1480.85 1421.22 1483.6 1434.7ZM1466.05 1452.25H1488.68C1487.95 1461.53 1490.86 1474.44 1486.21 1479.95H1466.05V1452.25ZM1433.42 1580.3C1424.13 1573.63 1414.7 1567.11 1408.32 1557.68C1411.22 1536.36 1414.27 1515.05 1418.33 1494.89C1421.96 1498.8 1431.24 1497.06 1438.49 1497.35C1434.43 1522.59 1432.11 1549.56 1433.42 1580.3ZM1418.33 1474.88C1416.01 1469.36 1419.93 1452.25 1418.33 1439.64C1452.56 1422.96 1458.65 1451.38 1448.5 1479.81C1436.32 1480.24 1428.34 1476.47 1418.33 1474.73V1474.88ZM1450.97 1397C1450.1 1402.95 1447.05 1406.43 1448.5 1414.55C1437.48 1412.81 1434.29 1418.9 1423.41 1417.01V1389.46C1433.42 1391.05 1441.54 1394.68 1451.11 1397H1450.97ZM1423.26 1319.12C1417.9 1304.04 1413.54 1290.41 1403.1 1281.42C1430.95 1281.42 1438.78 1336.24 1440.81 1361.76C1428.19 1353.93 1428.19 1333.34 1423.26 1319.12ZM1420.8 1361.76C1410.5 1358.42 1409.34 1343.34 1405.71 1334.06C1401.5 1323.62 1397.01 1313.47 1393.09 1303.9C1392.8 1299.4 1396.14 1298.68 1395.56 1293.89C1413.25 1305.49 1420.22 1341.17 1420.65 1361.76H1420.8ZM1365.53 1389.46C1378.59 1385.4 1394.83 1387.14 1408.18 1389.46V1419.62C1391.64 1419.04 1376.41 1419.62 1362.92 1422.09C1363.94 1411.36 1360.46 1396.27 1365.39 1389.46H1365.53ZM1395.7 1489.96H1403.24C1402.52 1507.65 1395.7 1519.4 1395.7 1537.67C1384.39 1528.68 1400.34 1508.52 1395.7 1489.96ZM1400.78 1439.78V1462.4C1387.43 1458.78 1376.99 1448.34 1360.6 1454.86V1437.31C1374.23 1437.89 1385.11 1441.38 1400.78 1439.78ZM1380.62 1510.11C1372.64 1503.01 1371.77 1488.8 1365.53 1479.95C1368.87 1473.57 1376.7 1483.58 1383.08 1482.42C1384.97 1494.31 1380.18 1499.67 1380.62 1509.97V1510.11ZM1576.58 1427.16C1564.54 1425.86 1556.85 1420.06 1549.02 1414.55V1407.01C1555.84 1402.07 1570.92 1405.56 1581.66 1404.54C1579.19 1411.21 1576.43 1417.74 1576.58 1427.16ZM1581.66 1447.18C1579.63 1461.1 1579.92 1477.34 1576.58 1489.96C1567.15 1490.1 1560.77 1487.49 1553.95 1484.88C1552.36 1469.07 1555.84 1458.34 1556.42 1444.71C1566.72 1447.32 1570.63 1450.8 1581.51 1447.18H1581.66ZM1624.3 1434.56C1615.45 1433.4 1607.91 1430.79 1596.74 1432.09C1596.02 1417.16 1601.96 1408.89 1604.28 1397C1612.84 1396.42 1616.32 1390.62 1626.91 1391.92C1623.58 1403.67 1624.3 1419.48 1624.45 1434.56H1624.3ZM1619.22 1449.64C1623.87 1456.89 1614.44 1471.54 1616.76 1484.88C1605.73 1483.14 1602.69 1489.09 1591.66 1487.35C1595.29 1477.63 1593.55 1462.4 1596.74 1452.11C1603.56 1450.51 1616.76 1455.3 1619.37 1449.64H1619.22ZM1666.95 1442.1C1655.34 1442.83 1645.19 1442.1 1639.24 1437.02C1641.71 1413.68 1640.55 1386.41 1659.4 1379.31C1670.72 1391.34 1660.56 1424.99 1666.95 1442.1ZM1661.87 1459.65C1661.72 1471.1 1654.62 1475.89 1656.79 1489.81C1646.06 1490.54 1644.32 1482.13 1631.7 1484.74C1632.13 1473.42 1633.73 1463.27 1636.78 1454.57C1645.77 1455.59 1650.12 1461.24 1661.87 1459.65ZM1681.89 1457.18C1687.54 1458.92 1694.79 1459.5 1699.44 1462.26C1699.29 1477.2 1692.91 1485.9 1691.89 1499.96C1684.21 1499.24 1680.58 1494.45 1674.34 1492.42C1671.88 1475.75 1681.16 1470.67 1681.89 1457.33V1457.18ZM1702.05 1442.1C1670.86 1446.89 1674.2 1382.79 1689.43 1371.77C1700.31 1388.59 1701.9 1414.55 1702.05 1442.1ZM1146.94 334.583C1152.6 318.34 1149.55 290.497 1144.48 276.865C1229.33 271.644 1291.41 299.488 1347.98 337.193C1386.42 362.862 1432.11 388.965 1466.05 422.61C1495.79 452.049 1526.54 487.579 1556.56 528.184C1576.87 555.738 1633.58 615.051 1631.99 646.231C1631.12 663.488 1607.18 672.769 1609.36 688.867C1622.56 694.377 1635.76 667.694 1647.07 671.319C1652.01 688.286 1660.42 701.628 1664.62 719.031C1642.87 707.284 1611.25 705.399 1576.72 706.414C1526.54 537.321 1430.22 414.054 1260.23 364.747C1419.06 422.9 1510.15 548.632 1569.33 706.414C1566.28 715.985 1552.21 714.39 1549.17 723.961C1573.68 728.892 1595.29 714.245 1619.51 718.886C1643.16 723.526 1660.85 747.31 1679.85 754.126C1693.34 816.919 1640.84 872.462 1664.77 930.035C1677.24 959.909 1715.25 970.205 1737.58 995.294C1745.27 1011.83 1732.22 1016.9 1727.58 1027.92C1716.99 1012.55 1711.62 991.958 1692.33 985.287C1738.89 1048.23 1679.27 1115.37 1657.23 1173.67C1649.1 1194.99 1645.77 1218.62 1639.68 1238.93C1659.26 1233.42 1663.61 1255.89 1684.93 1261.55C1672.6 1289.25 1698.57 1329.71 1684.93 1341.89C1673.62 1334.5 1668.25 1317.53 1662.3 1304.19C1656.21 1290.7 1654.62 1273.88 1642.14 1266.48C1644.9 1298.82 1661.29 1317.82 1667.24 1346.82C1624.3 1363.35 1573.68 1384.53 1516.53 1371.91C1514.79 1351.9 1504.05 1340.88 1496.37 1326.66C1520.16 1296.5 1507.68 1251.54 1524.07 1221.09C1540.32 1190.64 1577.45 1181.21 1604.43 1160.76C1623.58 1146.26 1633.15 1127.84 1642.14 1107.97C1649.97 1090.72 1667.38 1068.53 1659.69 1045.18C1625.03 1072.3 1628.94 1111.89 1594.42 1135.67C1574.98 1149.02 1547.71 1148 1529.15 1163.23C1505.07 1183.09 1492.6 1217.61 1486.36 1253.72C1465.18 1215.43 1416.59 1204.56 1353.2 1208.47C1382.65 1231.39 1428.63 1218.62 1453.72 1246.18C1465.18 1258.65 1469.24 1274.6 1476.35 1293.89C1438.49 1274.89 1414.7 1241.68 1353.2 1246.18C1333.04 1232.98 1322.02 1210.5 1295.47 1203.54C1333.19 1192.67 1369.16 1180.05 1401.07 1163.37C1418.91 1167.29 1424.42 1183.53 1443.86 1186C1421.23 1111.02 1357.7 1177 1298.08 1183.53C1288.22 1184.54 1279.52 1182.22 1270.38 1183.53C1218.74 1191.22 1153.47 1224.43 1124.6 1253.86C1088.78 1249.37 1045.41 1253.14 1016.54 1253.86C1011.32 1249.08 1010.89 1239.36 1003.92 1236.32C1107.2 1252.7 1166.23 1191.94 1247.61 1171.06C1304.9 1156.27 1365.39 1155.83 1400.92 1115.81C1409.77 1120.45 1414.7 1128.86 1421.09 1135.96C1440.52 1122.77 1434.58 1150.61 1456.19 1148.58C1464.17 1136.83 1448.21 1130.6 1446.18 1120.88C1426.89 1048.66 1458.65 979.342 1468.81 907.412C1476.64 851.869 1495.06 798.357 1514.06 761.667C1480.56 765.147 1472.29 815.324 1461.26 849.549C1447.63 836.497 1452.27 805.028 1441.25 789.22C1436.46 782.985 1430.37 792.411 1423.7 786.755C1376.56 744.409 1347.98 673.639 1272.99 656.092C1259.36 652.902 1245.29 631.004 1230.35 623.463C1234.99 654.787 1267.04 656.817 1293.15 668.709C1353.49 695.973 1371.19 781.679 1428.77 811.844C1428.34 834.902 1436.9 848.824 1441.39 867.096C1400.78 863.761 1381.34 826.491 1350.88 809.378C1323.76 794.151 1291.85 789.365 1265.45 769.208C1250.51 745.424 1241.8 710.039 1225.27 673.784C1214.25 649.566 1199.89 623.027 1195.1 600.984C1192.34 588.223 1195.1 572.706 1192.63 558.349C1190.46 545.442 1183.49 532.68 1182.62 520.643C1181.75 509.187 1187.41 494.25 1185.09 482.938C1182.62 470.902 1171.31 467.276 1167.54 457.85C1165.07 451.759 1157.39 414.344 1157.53 410.138C1157.82 401.002 1168.84 389.4 1167.54 379.974C1165.8 366.922 1147.81 362.862 1144.91 352.275C1154.77 341.254 1180.45 345.894 1200.18 344.734C1192.05 331.972 1164.06 338.933 1147.38 334.728L1146.94 334.583ZM297.676 713.955C301.302 673.639 346.848 609.976 370.491 580.827C433.442 503.386 497.409 462.345 586.615 409.993C624.038 388.095 666.972 368.662 709.762 354.74C799.983 325.156 899.052 289.336 996.235 281.94C1042.51 278.315 1090.23 283.971 1131.86 276.865C1144.62 289.046 1142.59 316.165 1136.93 334.583C859.453 340.964 656.529 448.133 511.334 593.298C437.359 667.404 359.177 747.31 338 874.637C318.853 821.995 293.034 766.742 297.821 713.81L297.676 713.955ZM481.164 1334.5C437.359 1311.58 389.492 1282.87 360.482 1246.61C328.571 1206.59 317.548 1141.91 305.218 1080.86C284.621 978.617 262.574 871.882 285.057 756.736C295.5 782.114 294.195 809.668 302.608 839.687C309.57 864.341 328.862 886.964 332.778 907.557C335.389 921.479 331.908 936.561 332.778 950.193C341.626 1095.5 398.776 1200.5 486.095 1271.7V1274.17C493.928 1280.11 474.201 1251.54 468.544 1244C442.726 1209.78 411.54 1177.58 390.653 1135.96C362.223 1079.41 350.184 1010.38 345.397 932.5C355.986 930.76 363.383 944.392 370.491 952.658C378.759 962.084 386.156 973.976 395.584 982.822C407.914 994.424 425.61 1001.53 435.763 1012.99C473.041 1054.9 488.996 1123.35 518.732 1176.28C525.984 1189.04 539.039 1197.6 546.436 1208.91C563.117 1234.87 567.613 1264.16 584.149 1286.78C619.396 1335.08 671.614 1349 732.39 1384.82C630.71 1394.82 551.368 1371.33 481.164 1334.64V1334.5ZM805.35 1397.29C774.019 1387.28 731.375 1360.31 694.822 1342.04C624.908 1307.09 588.356 1269.82 564.132 1198.9C593.577 1188.61 610.983 1168.88 644.49 1173.81C652.903 1175.12 660.445 1182.8 669.583 1183.82C702.365 1187.45 728.909 1167.43 752.552 1153.66C821.886 1138.72 856.407 1173.67 900.793 1191.36C841.177 1201.51 773.294 1195.86 760.094 1249.08C758.209 1256.47 763.14 1264.89 762.56 1271.7C761.255 1286.06 746.46 1298.39 752.552 1316.95C715.709 1300.85 696.853 1254.01 644.49 1261.7C676.401 1275.91 698.303 1299.98 729.924 1322.02C764.446 1346.1 791.715 1376.55 840.452 1349.72C816.809 1345.81 786.929 1347.98 772.569 1334.64C753.857 1306.94 780.546 1284.32 772.569 1254.3C797.372 1198.47 909.206 1200.06 968.531 1221.67C906.305 1242.84 923.275 1325.21 930.818 1394.97C897.021 1403.67 852.781 1412.66 805.205 1397.43L805.35 1397.29Z" fill="black"/>
<path d="M1478.53 990.219C1462.72 1138.72 1653.89 1121.32 1646.93 995.295C1637.5 990.365 1638.37 1008.2 1634.31 1000.37C1635.04 966.581 1644.9 905.238 1629.23 879.859C1621.84 882.615 1631.55 902.192 1624.16 904.948C1596.6 910.894 1558.45 919.74 1536.26 922.495C1549.89 898.422 1563.24 807.349 1604.14 821.996C1621.98 828.377 1610.67 855.061 1621.69 872.173C1633.44 864.632 1631.7 843.604 1631.7 824.462C1619.23 787.046 1567.3 783.276 1546.27 811.845C1529.58 834.613 1525.81 867.388 1511.02 899.727C1497.53 929.311 1481.43 961.941 1478.38 990.219H1478.53ZM1561.5 1063.02C1539.74 1058.67 1537.85 1029.81 1528.86 1007.77C1539.74 979.198 1583.25 971.367 1619.37 982.678C1616.61 1022.85 1599.21 1070.56 1561.64 1063.02H1561.5ZM1533.79 937.432C1553.52 921.19 1604.14 935.837 1619.23 914.809C1631.12 923.365 1620.97 951.209 1621.69 965.131C1583.54 963.826 1546.85 963.971 1531.33 985.289C1524.51 971.657 1531.76 950.629 1533.79 937.577V937.432Z" fill="black"/>
</g>
<defs>
<clipPath id="clip0_157_318">
<rect width="1531" height="1523" fill="white" transform="translate(234 238)"/>
</clipPath>
</defs>
</svg>
