<svg width="2000" height="2000" viewBox="0 0 2000 2000" fill="none" xmlns="http://www.w3.org/2000/svg">
<g clip-path="url(#clip0_157_319)">
<path d="M1561.6 968.054C1545.02 939.969 1534.37 910.662 1517.62 882.925C1502.96 858.503 1476.08 830.243 1453.05 797.796C1432.46 768.839 1411.34 736.392 1388.48 712.667C1359.51 682.663 1293.71 622.48 1256.72 617.246C1234.73 614.106 1200.7 621.607 1184.47 632.772C1132.11 668.359 1142.93 766.92 1132.81 849.606C1086.56 830.941 1059.16 783.317 1047.64 733.426C1009.07 567.704 1056.89 332.553 1042.41 152.526C1024.96 138.92 989.878 134.21 959.861 139.617C934.556 144.153 862.654 191.427 856.546 217.071C849.042 247.947 868.762 312.492 879.757 348.776C891.973 388.724 905.237 433.207 908.203 477.865C910.996 519.383 906.633 565.785 905.586 609.571C902.793 724.53 905.237 794.831 869.461 872.982C842.585 773.025 852.881 653.356 776.442 617.421C742.062 601.197 670.51 604.337 637.003 622.48C595.991 644.809 563.88 715.11 541.541 769.711C491.629 891.299 454.282 1000.5 391.63 1110.58C360.043 1166.22 326.186 1219.43 308.909 1273.16C266.676 1404.51 281.161 1610.53 347.652 1701.77C371.386 1734.39 409.082 1749.22 453.584 1779.22C512.746 1819.17 574.351 1869.06 673.128 1854.06C715.361 1847.6 759.689 1814.63 791.975 1792.13C830.368 1765.27 866.843 1739.1 890.054 1706.83C939.966 1637.92 933.858 1518.08 933.858 1391.95C933.858 1302.29 933.334 1210.53 923.561 1133.78C920.943 1112.84 907.854 1087.72 910.647 1066.62C917.104 1017.25 1005.06 960.204 1070.68 981.312C1094.76 989.162 1132.28 1041.67 1137.87 1064C1150.43 1113.37 1137.87 1175.99 1135.25 1231.81C1128.45 1373.29 1132.46 1511.62 1173.99 1603.56C1198.25 1657.46 1227.4 1681.18 1267.01 1719.74C1287.61 1739.97 1305.23 1760.03 1326.35 1776.6C1374.69 1814.28 1428.44 1848.65 1478.7 1859.29C1613.26 1887.2 1687.78 1801.2 1708.54 1699.15C1715.7 1664.26 1715.7 1619.08 1713.78 1577.74C1711.86 1536.22 1713.25 1492.96 1711.16 1453.71C1706.62 1369.45 1690.22 1293.92 1675.04 1234.26C1657.58 1166.57 1642.23 1098.02 1607.85 1048.3C1589.35 1021.61 1576.61 994.221 1561.42 968.229L1561.6 968.054ZM1026.88 789.946C1003.66 780.003 963.526 785.236 941.711 792.563C942.06 779.305 940.14 763.431 944.329 753.836C967.54 747.556 985.34 751.743 1014.14 751.22C1020.77 761.861 1025.65 774.072 1027.05 789.946H1026.88ZM995.811 573.112C973.997 569.972 953.753 580.439 941.536 578.345V503.509C954.102 496.705 974.869 485.89 993.194 493.216C993.892 520.081 991.274 550.26 995.811 573.286V573.112ZM995.811 635.04C974.346 633.47 957.418 636.261 944.154 642.715V603.989C955.323 598.232 982.025 595.964 995.811 601.372C1002.79 610.966 994.59 623.003 995.811 634.865V635.04ZM941.536 474.9C945.899 459.897 973.648 455.885 990.576 461.991C973.822 466.003 955.323 468.096 941.536 474.9ZM993.194 374.245C964.747 374.245 942.409 380.351 923.387 389.771C921.99 375.641 917.453 364.825 915.708 351.044C936.824 343.369 968.936 335.17 993.194 345.811V374.245ZM993.194 407.739V436.173C969.983 435.301 948.168 435.824 938.919 449.082C930.542 441.057 933.683 421.694 928.622 410.355C944.503 404.599 976.44 396.749 993.194 407.739ZM1008.73 727.844C985.166 727.495 961.082 726.797 944.154 733.077C943.282 705.864 989.005 702.201 1008.73 712.493V728.019V727.844ZM1001.05 683.884C976.091 682.314 960.384 689.815 946.772 699.41C940.838 695.049 945.899 679.697 944.154 670.975C955.672 661.032 971.903 655.624 995.811 658.066C1000.35 663.823 1002.09 672.545 1001.05 683.884ZM1001.05 175.204C1002.44 187.066 996.51 191.253 998.429 203.639C956.894 216.373 919.896 233.643 897.732 265.566C885.691 199.277 938.744 175.727 1001.05 175.204ZM995.811 229.456C994.939 238.876 998.08 252.309 993.194 257.891C949.739 255.797 924.259 285.453 900.176 294.001C909.949 260.333 950.088 235.562 995.811 229.456ZM905.411 306.91C932.461 291.733 953.229 270.451 995.811 270.8C995.113 285.627 997.731 303.77 993.194 314.76C963.002 307.259 926.353 314.76 913.09 332.902C907.331 327.32 904.888 318.597 905.237 307.084L905.411 306.91ZM758.118 665.742V658.066C803.667 692.606 800.002 782.969 812.393 861.992C821.643 920.431 835.255 974.334 848.518 1019.52C839.967 1024.4 835.43 1011.84 830.369 1006.61C799.653 974.509 762.132 931.77 755.5 872.284C748.171 806.519 782.027 732.031 758.118 665.742ZM468.767 1065.92C504.893 986.894 529.325 910.313 574.7 818.032C606.637 752.964 638.922 663.823 709.079 652.833C713.441 657.02 700.353 671.324 693.546 681.267C673.651 710.574 647.474 746.51 641.889 789.772C679.411 749.824 692.325 685.28 742.586 658.066C762.481 736.217 730.195 798.32 737.35 872.284C746.6 967.182 818.327 1011.14 856.197 1083.89C867.89 1106.39 885.167 1144.59 882.026 1166.57C876.616 1204.78 808.728 1233.73 768.415 1249.26C723.04 1266.53 661.435 1267.58 610.825 1249.26C583.077 1239.32 559.866 1217.16 535.957 1202.68C511.524 1188.2 483.427 1182.45 476.621 1158.72C534.91 1058.59 611.698 977.125 634.21 841.233C609.603 861.469 609.603 894.09 600.703 918.686C591.453 943.981 580.808 969.799 567.195 993.523C535.084 1049.52 492.502 1090.17 471.56 1156.28C420.251 1138.66 451.49 1104.12 468.942 1065.92H468.767ZM383.603 1355.15C457.773 1415.33 484.299 1522.96 572.082 1569.54C528.802 1584.72 473.13 1587.68 430.024 1603.03C372.259 1558.55 382.032 1453.71 383.603 1355.15ZM882.026 1479.18C877.488 1579.31 770.858 1704.38 672.779 1732.12C619.9 1746.95 601.052 1727.24 548.871 1711.36C519.378 1702.47 484.823 1701.77 461.089 1693.22C444.858 1687.29 414.492 1666.18 417.11 1649.26C421.124 1624.49 502.798 1616.99 535.957 1610.53C667.194 1585.24 800.351 1544.07 882.026 1478.83V1479.18ZM378.367 1659.9C322.87 1584.89 343.289 1423.7 360.217 1321.65C362.486 1322.87 364.755 1323.92 365.453 1326.89C371.91 1429.11 342.94 1559.25 406.813 1613.5C397.913 1629.55 378.542 1635.13 378.367 1659.9ZM820.072 1708.92C759.165 1766.49 669.114 1835.04 556.55 1788.99C529.5 1778 503.322 1754.62 476.446 1737.35C449.047 1719.91 411.7 1708.22 404.021 1678.04C415.19 1674.55 425.836 1698.28 442.764 1706.48C465.277 1717.47 505.94 1718.86 543.461 1729.68C574.351 1738.58 604.717 1754.28 623.565 1755.5C697.56 1760.38 778.362 1702.29 827.576 1649.61C855.15 1620.13 880.979 1581.4 892.148 1536.05C891.101 1605.13 865.621 1665.66 819.897 1709.09L820.072 1708.92ZM894.94 1396.49C886.214 1445.68 809.775 1460.86 760.561 1479.18C684.821 1507.26 600.179 1522.44 546.253 1453.36C531.419 1434.34 521.123 1407.13 507.51 1386.2C476.272 1338.4 436.482 1310.14 455.853 1226.06C435.609 1237.22 433.166 1291.47 440.321 1316.42C445.731 1335.26 479.762 1364.39 497.214 1391.26C539.273 1457.02 562.309 1541.28 683.25 1525.58C721.993 1520.52 752.01 1503.42 791.8 1489.47C735.954 1530.64 620.947 1582.45 554.107 1522.96C525.311 1497.32 505.416 1448.65 476.621 1411.84C446.778 1373.64 404.021 1339.1 391.456 1308.57C366.151 1247.17 413.271 1197.8 424.963 1148.43C480.635 1205.3 565.276 1290.43 672.953 1303.34C738.398 1311.19 778.711 1288.51 827.925 1267.23C850.089 1257.63 868.762 1231.47 889.879 1225.88C885.342 1282.05 903.666 1346.95 895.115 1396.32L894.94 1396.49ZM892.322 998.931C891.101 982.707 883.945 972.939 892.322 960.204C901.223 964.216 900.35 977.997 907.854 983.405C902.095 987.941 901.921 998.059 892.322 998.931ZM925.83 970.496C915.533 961.949 910.647 947.819 902.619 937.003C906.284 921.652 914.835 911.36 918.151 895.66C931.065 908.743 947.121 955.32 925.83 970.496ZM954.276 949.912C957.417 906.999 917.104 881.704 936.126 846.641C963.002 866.353 980.977 894.787 982.548 939.62C974.171 944.155 964.398 947.295 954.102 949.912H954.276ZM1031.76 934.386H1011.17C1004.54 879.087 975.393 846.292 941.362 818.206C956.196 797.971 1015.53 802.332 1034.38 815.59C1040.66 828.324 1047.29 840.535 1054.97 851.7C1041.88 873.854 1029.49 896.881 1031.76 934.386ZM1075.74 937.003H1060.21C1052.53 915.895 1060.91 889.903 1068.06 875.075C1076.09 875.599 1078.01 882.227 1083.59 885.367C1078.88 900.37 1074 915.372 1075.92 937.003H1075.74ZM1135.08 970.496C1116.23 976.776 1086.91 928.979 1106.63 895.66C1116.23 900.719 1124.78 906.824 1135.08 911.185V970.496ZM1184.12 831.115C1192.67 857.805 1195.46 890.252 1199.65 921.477C1177.14 929.153 1185.51 861.817 1184.12 831.115ZM1184.12 934.386C1217.45 952.703 1200.87 1020.91 1204.71 1068.71C1196.33 1073.77 1188.65 1059.99 1178.88 1058.42C1184.99 1021.43 1178.01 971.543 1184.12 934.561V934.386ZM1178.88 1073.77C1191.1 1072.72 1191.62 1083.54 1202.09 1084.06C1202.27 1124.01 1197.9 1159.07 1194.24 1195.01C1163.87 1175.29 1180.97 1116.68 1178.71 1073.59L1178.88 1073.77ZM1553.4 1812.19C1535.94 1814.63 1502.79 1811.32 1491.44 1807.13C1404.53 1774.34 1304.18 1700.37 1251.31 1641.93C1164.4 1546.16 1180.45 1384.28 1178.88 1231.47C1199.3 1250.65 1182.37 1307.17 1197.03 1332.12C1207.15 1317.99 1202.62 1289.38 1207.33 1270.19C1252.7 1294.61 1269.63 1353.75 1305.41 1399.28C1319.89 1417.77 1341.53 1430.86 1354.45 1450.92C1391.79 1508.48 1393.01 1602.68 1488.82 1603.21C1484.81 1676.47 1545.89 1705.95 1571.55 1758.11C1514.83 1778 1469.1 1746.25 1429.49 1732.3C1436.29 1780.62 1526.35 1806.61 1592.14 1794.22C1590.92 1803.47 1565.26 1810.62 1553.4 1812.37V1812.19ZM1633.5 1763.17C1662.64 1729.5 1648.16 1629.9 1669.63 1579.83C1676.43 1630.42 1677.48 1738.23 1633.5 1763.17ZM1638.74 1639.14C1634.2 1678.04 1645.54 1715.9 1620.59 1745.03C1596.68 1730.73 1584.29 1710.49 1563.87 1685.72C1545.19 1663.04 1499.12 1630.25 1522.51 1595.36C1537.69 1572.68 1573.47 1559.25 1597.37 1536.05C1631.58 1502.73 1652.52 1470.11 1661.95 1422.48C1688.12 1498.02 1647.11 1567.79 1638.74 1639.32V1639.14ZM1630.88 1300.89C1589.52 1157.15 1504.71 1053.88 1439.79 929.153C1419.02 889.205 1406.98 843.152 1377.83 805.297C1431.76 1028.41 1597.72 1139.71 1620.59 1394.05C1608.89 1473.59 1486.21 1526.8 1426.87 1455.98C1410.99 1436.96 1401.04 1413.76 1382.89 1396.66C1362.47 1377.13 1342.93 1361.25 1326 1350.26C1329.66 1379.57 1356.71 1385.5 1377.66 1407.13C1422.86 1453.71 1429.14 1514.94 1512.04 1510.4C1536.82 1509.01 1553.92 1500.63 1576.61 1492.26C1550.08 1520 1502.44 1598.15 1447.46 1556.8C1424.08 1539.19 1412.21 1490.86 1395.81 1458.77C1379.05 1425.8 1352 1405.39 1328.62 1376.08C1306.28 1347.99 1296.51 1312.58 1276.96 1288.33C1254.1 1260.07 1226.35 1246.99 1209.77 1218.56C1214.48 1181.92 1218.32 1144.42 1217.62 1102.38C1272.6 1146.34 1302.09 1215.94 1352 1264.96C1346.94 1226.93 1315.35 1199.02 1292.67 1169.36C1269.8 1139.71 1249.56 1106.04 1220.42 1084.06C1213.78 1054.4 1223.56 1022.83 1220.42 988.639C1229.14 980.614 1235.25 1001.55 1243.63 1009.22C1254.1 1018.64 1268.06 1023.18 1277.13 1029.81C1276.26 999.105 1233.5 989.685 1220.42 954.971C1213.61 936.829 1215.18 901.94 1210.12 869.667C1201.04 811.926 1186.21 736.217 1210.12 678.651C1228.79 679 1243.8 682.837 1264.39 681.267C1279.75 695.397 1319.02 712.493 1316.05 727.67C1291.97 719.122 1237.69 718.075 1228.27 740.578C1241.71 746.161 1262.82 734.647 1282.54 735.345C1342.23 737.439 1395.28 786.981 1432.28 828.324C1451.3 849.432 1468.93 883.797 1489.17 916.07C1538.91 995.267 1609.24 1111.1 1631.23 1205.3C1636.12 1226.23 1628.26 1275.6 1631.23 1300.89H1630.88Z" fill="black"/>
</g>
<defs>
<clipPath id="clip0_157_319">
<rect width="1430" height="1727" fill="white" transform="translate(285 137)"/>
</clipPath>
</defs>
</svg>
