<svg width="2000" height="2000" viewBox="0 0 2000 2000" fill="none" xmlns="http://www.w3.org/2000/svg">
<path d="M1545.99 845.863C1589.92 854.522 1628.52 881.919 1642.86 925.603C1654.57 961.247 1649.23 1003.28 1624.31 1032.24C1608.84 1050.2 1588.04 1061.08 1564.98 1065.8C1553.09 1068.22 1558.1 1086.43 1569.99 1084.01C1616.43 1074.5 1653.12 1040.02 1664.07 993.683C1674.61 949.106 1661.37 900.657 1629.14 867.991C1608.07 846.619 1580.23 833.401 1550.98 827.629C1539.11 825.292 1534.03 843.48 1545.96 845.84L1545.99 845.863Z" fill="#1C1C1C"/>
<path d="M1508.35 964.728C1486.91 983.695 1482.19 1013.09 1483.29 1040.32C1483.49 1045.41 1487.48 1049.76 1492.73 1049.76C1497.67 1049.76 1502.37 1045.43 1502.16 1040.32C1501.91 1034.16 1501.91 1028 1502.37 1021.84C1502.8 1015.95 1503.45 1011.69 1505.1 1005.55C1505.81 1002.87 1506.68 1000.26 1507.66 997.669C1508.14 996.432 1507.78 997.325 1508.1 996.615C1508.37 995.996 1508.67 995.378 1508.97 994.759C1509.56 993.522 1510.2 992.331 1510.89 991.14C1512.17 988.895 1513.96 986.215 1514.99 984.978C1517.05 982.504 1519.28 980.236 1521.68 978.106C1525.51 974.716 1525.14 968.21 1521.68 964.751C1517.88 960.948 1512.15 961.361 1508.33 964.751L1508.35 964.728Z" fill="#1C1C1C"/>
<path d="M1497.45 1000.35C1485.01 994.118 1472.57 987.865 1460.13 981.634C1455.73 979.412 1449.71 980.328 1447.21 985.024C1444.94 989.308 1445.88 995.584 1450.6 997.944C1463.04 1004.17 1475.48 1010.43 1487.92 1016.66C1492.32 1018.88 1498.34 1017.96 1500.84 1013.27C1503.11 1008.99 1502.17 1002.71 1497.45 1000.35Z" fill="#1C1C1C"/>
<path d="M1337.23 1063.69C1346.37 1083.55 1367.22 1097.29 1386.46 1106.07C1407.15 1115.48 1430.17 1121.76 1452.98 1118.57C1458.05 1117.86 1460.8 1111.43 1459.58 1106.96C1458.09 1101.51 1453.03 1099.65 1447.97 1100.36C1431.47 1102.65 1410.51 1096.54 1394.68 1089.16C1378.51 1081.6 1361.22 1070.79 1353.54 1054.16C1351.41 1049.53 1344.72 1048.39 1340.62 1050.77C1335.86 1053.54 1335.1 1059.04 1337.23 1063.69Z" fill="#1C1C1C"/>
<path d="M1612.14 1066.96C1624.38 1065.41 1637.96 1064.97 1649.11 1071.06C1656.63 1075.16 1661.6 1081.51 1663.8 1089C1666.16 1096.95 1665.79 1104.62 1663.09 1112.8C1658.69 1126.09 1649.37 1137.84 1639.1 1147.09C1626.16 1158.75 1610.31 1166.79 1593.54 1171.21C1581.79 1174.31 1586.78 1192.52 1598.56 1189.43C1634.02 1180.08 1666.57 1155.52 1680.2 1120.8C1689.04 1098.25 1682.9 1071.45 1662.72 1057.3C1648.22 1047.13 1629.16 1045.91 1612.12 1048.09C1607.06 1048.73 1602.68 1051.96 1602.68 1057.53C1602.68 1062.13 1607.03 1067.63 1612.12 1066.96H1612.14Z" fill="#1C1C1C"/>
<path d="M1544.41 1105.1C1534.84 1120.02 1531.81 1138.14 1535.06 1155.45C1535.98 1160.31 1542.1 1163.52 1546.68 1162.05C1551.88 1160.38 1554.26 1155.66 1553.28 1150.44C1553.09 1149.5 1552.89 1148.54 1552.79 1147.57C1553.05 1150.25 1552.79 1146.98 1552.75 1146.47C1552.61 1144.78 1552.57 1143.11 1552.59 1141.41C1552.59 1139.72 1552.7 1138.02 1552.86 1136.35C1552.91 1135.87 1552.96 1135.39 1553.02 1134.91C1552.84 1136.21 1552.82 1136.33 1552.98 1135.25C1553.14 1134.43 1553.25 1133.58 1553.44 1132.75C1554.12 1129.29 1555.2 1126 1556.41 1122.67C1556.8 1121.69 1556.78 1121.78 1556.3 1122.93C1556.48 1122.49 1556.69 1122.03 1556.89 1121.6C1557.19 1120.93 1557.51 1120.29 1557.86 1119.65C1558.75 1117.93 1559.71 1116.26 1560.77 1114.63C1563.45 1110.46 1561.75 1104.03 1557.38 1101.71C1552.7 1099.24 1547.32 1100.66 1544.46 1105.1H1544.41Z" fill="#1C1C1C"/>
<path d="M1542.81 1121.92C1533.14 1118.94 1523.47 1115.98 1513.81 1113.01C1509.09 1111.56 1503.29 1114.72 1502.19 1119.6C1501.02 1124.71 1503.73 1129.66 1508.79 1131.22C1518.46 1134.2 1528.12 1137.15 1537.79 1140.13C1542.51 1141.57 1548.3 1138.41 1549.4 1133.53C1550.57 1128.42 1547.87 1123.48 1542.81 1121.92Z" fill="#1C1C1C"/>
<path d="M1443.64 1104.55C1422.77 1129.16 1423.71 1163.7 1442.58 1189.33C1461.67 1215.24 1492.52 1226.81 1524.07 1221.89C1541.45 1219.18 1557.35 1211.19 1570.86 1200.1C1574.81 1196.87 1574.21 1190.11 1570.86 1186.75C1566.97 1182.85 1561.47 1183.49 1557.51 1186.75C1534.33 1205.74 1499.83 1210.82 1474.08 1194.01C1449.69 1178.09 1436.47 1142.1 1456.99 1117.91C1464.8 1108.7 1451.52 1095.28 1443.64 1104.55Z" fill="#1C1C1C"/>
<path d="M1596.38 1170.07C1585.34 1174.97 1574.32 1179.85 1563.28 1184.75C1561.27 1185.65 1559.5 1188.35 1558.95 1190.39C1558.33 1192.66 1558.61 1195.66 1559.91 1197.67C1561.22 1199.69 1563.14 1201.45 1565.55 1202C1568.18 1202.6 1570.38 1202.14 1572.83 1201.04C1583.88 1196.14 1594.89 1191.26 1605.94 1186.36C1607.95 1185.46 1609.72 1182.76 1610.26 1180.72C1610.88 1178.45 1610.61 1175.45 1609.3 1173.44C1608 1171.42 1606.07 1169.66 1603.67 1169.11C1601.03 1168.51 1598.83 1168.97 1596.38 1170.07Z" fill="#1C1C1C"/>
<path d="M1629.14 1179.3C1650.54 1190.98 1669.11 1207.45 1682.65 1227.8C1685.77 1232.49 1688.65 1237.33 1691.27 1242.34C1691.11 1242.02 1693.33 1246.35 1693.28 1246.37C1692.8 1246.63 1693.92 1241.72 1693.95 1241.77C1694.22 1242.41 1692.34 1243.85 1692.11 1244.11C1685.49 1250.79 1676.77 1255.67 1668.68 1260.3C1646.6 1272.92 1622.22 1283.25 1597.62 1289.71C1591.18 1291.41 1584.63 1292.81 1577.97 1293.26C1575.15 1293.47 1572.33 1293.52 1569.54 1293.43C1566.49 1293.31 1565.3 1291.68 1567.61 1295.19C1571.69 1301.33 1569.33 1296.91 1569.01 1296.61C1570.43 1297.91 1569.47 1297.94 1568.9 1296.11C1568.51 1294.91 1568.09 1293.75 1567.7 1292.55C1566.56 1288.96 1565.57 1285.32 1564.7 1281.65C1558.89 1257.41 1557.69 1231.3 1566.9 1207.75C1571.32 1196.44 1553.09 1191.53 1548.69 1202.74C1538.59 1228.55 1539.92 1257.71 1545.94 1284.33C1547.52 1291.36 1549.17 1299.27 1552.54 1305.73C1557.99 1316.17 1578.29 1312.42 1587.82 1310.97C1603.99 1308.52 1619.43 1302.89 1634.57 1296.95C1648.54 1291.48 1662.22 1285.45 1675.35 1278.17C1685.65 1272.47 1696.6 1266.17 1705.06 1257.83C1707.71 1255.19 1710.44 1252.01 1711.52 1248.32C1713.19 1242.55 1710.19 1237.74 1707.6 1232.74C1692.27 1203.29 1667.79 1178.82 1638.69 1162.95C1628.02 1157.13 1618.49 1173.41 1629.17 1179.26L1629.14 1179.3Z" fill="#1C1C1C"/>
<path d="M1207.63 1446.22C1102.99 1458.7 989.435 1493.27 883.626 1469.4C867.362 1465.73 860.398 1490.75 876.731 1494.44C937.641 1508.18 994.176 1522.68 1057.29 1516.73C1110.11 1511.75 1170.88 1491.64 1212.64 1458.31C1217.25 1454.65 1213.56 1445.51 1207.63 1446.22Z" fill="#1C1C1C"/>
<path d="M856.459 1561.1C841.409 1595.55 825.488 1636.78 829.336 1675.01C831.306 1694.65 860.33 1701.7 865.851 1679.96C874.831 1644.66 877.419 1610.07 890.957 1575.66C898.723 1555.94 865.003 1541.51 856.436 1561.12L856.459 1561.1Z" fill="#1C1C1C"/>
<path d="M1064.3 1572.96C1064.07 1551.02 1032.46 1551.66 1030.67 1572.96C1028.79 1595.23 1028.24 1617.52 1029.59 1639.83C1030.97 1662.39 1034.84 1677.53 1044.6 1697.44C1051.88 1712.31 1074.83 1704.61 1074.83 1689.24C1074.86 1650.3 1064.71 1612.36 1064.3 1572.94V1572.96Z" fill="#1C1C1C"/>
<path d="M1293.98 1623.72C1289.72 1586.48 1261.43 1553.88 1235.55 1528.32C1218.14 1511.14 1194.47 1536.4 1209.25 1554.61C1230.14 1580.32 1240.22 1611.93 1260.24 1637.7C1270.39 1650.78 1295.86 1640.13 1293.98 1623.72Z" fill="#1C1C1C"/>
<path d="M751.244 749.148C718.006 756.043 698.512 797.505 707.675 841.808C716.837 886.088 751.221 916.417 784.46 909.522C817.698 902.627 837.192 861.165 828.029 816.885C818.844 772.605 784.483 742.276 751.244 749.171V749.148ZM734.338 820.688C718.464 825.773 710.607 801.148 726.435 796.062C742.31 790.977 750.167 815.602 734.338 820.688Z" fill="#1C1C1C"/>
<path d="M1174.98 762.777C1171.57 720.674 1141.42 688.787 1107.66 691.536C1073.89 694.285 1049.29 730.639 1052.7 772.719C1056.11 814.823 1086.26 846.71 1120.03 843.961C1153.79 841.212 1178.39 804.858 1174.96 762.777H1174.98ZM1145.18 749.079C1128.55 749.583 1127.77 723.789 1144.38 723.285C1161.01 722.781 1161.79 748.575 1145.18 749.079Z" fill="#1C1C1C"/>
<path d="M865.138 887.92C924.101 878.574 982.537 866.043 1041.25 855.254C1044.32 854.681 1048.33 854.658 1051.21 853.49C1052.34 853.055 1051.72 853.353 1051.74 853.421C1051.74 853.421 1046.7 850.879 1046.88 850.558C1046.63 851.016 1047.85 854.063 1048.01 854.773C1051.67 870.762 1053.94 888.24 1054.26 904.665C1054.65 925.35 1049.38 946.173 1034.88 961.544C1018.98 978.403 995.457 987.75 972.664 989.903C945.748 992.468 915.648 985.711 896.979 964.98C876.752 942.531 872.17 910.964 868.322 882.17C867.268 874.267 854.669 874.152 855.723 882.17C859.434 909.911 863.488 938.888 879.386 962.689C894.115 984.749 917.16 997.531 943.137 1001.52C990.028 1008.71 1045.81 987.841 1061.89 939.965C1068.62 919.944 1067.04 899.121 1064.39 878.551C1063.22 869.502 1062.16 860.316 1060.12 851.406C1059.02 846.618 1057.47 841.097 1051.65 840.822C1044.16 840.479 1035.32 843.571 1028.03 844.923C1012.23 847.901 996.442 850.947 980.659 853.971C941.098 861.531 901.56 869.456 861.771 875.756C853.799 877.016 857.189 889.157 865.115 887.897L865.138 887.92Z" fill="#1C1C1C"/>
<path d="M358.478 1010.34C315.206 1037.44 285.747 1083.04 287.854 1135.18C289.664 1179.85 313.923 1223.81 353.919 1245.18C378.338 1258.24 405.758 1261.33 432.88 1256.89C444.838 1254.94 439.775 1236.73 427.863 1238.68C388.005 1245.18 348.536 1228.57 326.155 1194.79C304.783 1162.53 300.43 1120.22 315.984 1084.58C326.682 1060.09 345.558 1040.69 368.007 1026.62C378.292 1020.19 368.809 1003.83 358.478 1010.31V1010.34Z" fill="#1C1C1C"/>
<path d="M439.977 1141.48C440.16 1141.55 442.726 1142.58 440.825 1141.78C441.466 1142.05 442.085 1142.33 442.704 1142.63C444.055 1143.27 445.384 1143.95 446.666 1144.71C447.949 1145.44 449.186 1146.22 450.4 1147.07C450.95 1147.44 451.477 1147.83 452.026 1148.22C454.157 1149.73 450.629 1147 452.622 1148.67C454.844 1150.55 456.974 1152.5 458.967 1154.63C459.952 1155.71 460.915 1156.81 461.854 1157.93C462.266 1158.43 462.701 1158.96 463.114 1159.49C461.831 1157.81 463.434 1159.97 463.572 1160.15C467.077 1165.01 470.031 1170.25 472.62 1175.66C473.216 1176.92 473.788 1178.18 474.361 1179.44C475.483 1181.96 473.674 1177.7 474.728 1180.26C474.98 1180.9 475.254 1181.57 475.506 1182.21C476.698 1185.21 477.775 1188.26 478.805 1191.33C480.363 1196 485.379 1199.55 490.419 1197.92C495.069 1196.41 498.689 1191.33 497.017 1186.31C492.664 1173.32 487.189 1160.36 478.942 1149.31C470.077 1137.45 458.967 1128.49 445.04 1123.27C440.412 1121.53 434.48 1125.19 433.426 1129.87C432.212 1135.23 435.052 1139.62 440.023 1141.48H439.977Z" fill="#1C1C1C"/>
<path d="M483.278 1165.74L511.476 1134.95C514.82 1131.31 515.347 1125.15 511.476 1121.6C507.834 1118.25 501.695 1117.7 498.121 1121.6C488.729 1131.86 479.314 1142.12 469.922 1152.38C466.578 1156.03 466.051 1162.19 469.922 1165.74C473.565 1169.08 479.704 1169.63 483.278 1165.74Z" fill="#1C1C1C"/>
<path d="M615.61 1170.3C615.541 1171.26 615.495 1172.22 615.358 1173.16C615.564 1171.44 615.083 1174.54 615.014 1174.88C614.602 1176.9 614.052 1178.89 613.365 1180.86C612.357 1183.81 611.12 1186.4 608.966 1189.98C604.912 1196.69 599.712 1202.32 593.115 1207.89C580.951 1218.17 565.511 1225.64 549.499 1229.24C544.528 1230.36 541.596 1236.11 542.902 1240.85C544.299 1245.98 549.522 1248.57 554.516 1247.45C591.007 1239.25 631.897 1210.68 634.508 1170.3C634.829 1165.21 629.927 1160.86 625.07 1160.86C619.687 1160.86 615.953 1165.19 615.633 1170.3H615.61Z" fill="#1C1C1C"/>
<path d="M379.92 1238.33C352.683 1244.88 325.126 1263.48 326.431 1294.64C327.714 1325.31 353.874 1346.57 380.286 1357.45C399.391 1365.31 420.717 1368.1 441.219 1365.88C446.282 1365.33 450.657 1361.94 450.657 1356.44C450.657 1351.77 446.328 1346.45 441.219 1347C410.982 1350.28 378.362 1342.17 356.806 1319.77C345.215 1307.72 341.092 1290.1 350.621 1275.95C357.699 1265.39 372.223 1259.64 384.959 1256.57C396.779 1253.73 391.763 1235.51 379.942 1238.36L379.92 1238.33Z" fill="#1C1C1C"/>
<path d="M451.981 1283.25C452.256 1283.46 453.654 1284.51 452.417 1283.57C451.271 1282.7 452.371 1283.57 452.6 1283.74C453.287 1284.29 453.951 1284.86 454.593 1285.45C455.967 1286.69 457.273 1288 458.533 1289.35C459.128 1289.99 459.701 1290.65 460.274 1291.32C460.594 1291.68 460.892 1292.07 461.19 1292.44C461.969 1293.38 460.068 1290.93 460.778 1291.91C461.854 1293.43 462.931 1294.91 463.893 1296.49C464.81 1297.98 465.657 1299.52 466.459 1301.08C466.848 1301.86 467.215 1302.66 467.581 1303.46C467.856 1304.05 468.154 1305.43 467.421 1303.09C467.535 1303.46 467.719 1303.82 467.856 1304.17C469.185 1307.63 470.146 1311.2 470.811 1314.84C471.681 1319.72 477.889 1322.91 482.425 1321.44C487.648 1319.75 489.962 1315.05 489.023 1309.83C485.907 1292.46 475.576 1277.3 461.488 1266.94C459.632 1265.57 456.333 1265.41 454.203 1265.98C452.004 1266.58 449.645 1268.27 448.568 1270.31C445.956 1275.24 447.697 1280.09 451.958 1283.23L451.981 1283.25Z" fill="#1C1C1C"/>
<path d="M482.426 1297.18C490.397 1290.95 498.369 1284.74 506.364 1278.51C508.127 1277.14 509.136 1273.95 509.136 1271.85C509.136 1269.53 508.105 1266.76 506.364 1265.18C504.554 1263.53 502.195 1262.29 499.698 1262.41C498.85 1262.52 498.025 1262.64 497.178 1262.75C495.574 1263.21 494.2 1264.01 493.009 1265.18C485.037 1271.41 477.066 1277.62 469.071 1283.85C467.307 1285.22 466.299 1288.41 466.299 1290.51C466.299 1292.83 467.33 1295.6 469.071 1297.18C470.881 1298.83 473.24 1300.07 475.737 1299.95C476.584 1299.84 477.409 1299.72 478.256 1299.61C479.86 1299.15 481.234 1298.35 482.426 1297.18Z" fill="#1C1C1C"/>
<path d="M548.014 1248.09C576.098 1263.51 577.289 1300.02 560.842 1324.67C542.974 1351.43 507.216 1357.91 478.193 1348.22C466.648 1344.37 461.676 1362.58 473.176 1366.43C502.612 1376.26 536.285 1371.81 560.75 1352.23C584.368 1333.33 596.074 1300.11 588.194 1270.68C583.727 1254 572.662 1240.07 557.566 1231.78C546.914 1225.94 537.362 1242.23 548.037 1248.09H548.014Z" fill="#1C1C1C"/>
<path d="M435.747 1365.74C447.796 1366.38 459.868 1367.03 471.918 1367.67C476.865 1367.92 481.584 1363.13 481.355 1358.23C481.126 1352.89 477.209 1349.07 471.918 1348.79C459.868 1348.15 447.796 1347.51 435.747 1346.87C430.799 1346.61 426.08 1351.4 426.309 1356.3C426.538 1361.64 430.455 1365.47 435.747 1365.74Z" fill="#1C1C1C"/>
<path d="M395.929 1354.66C374.419 1379.9 360.377 1410.43 356.047 1443.38C355.337 1448.78 353.78 1454.85 356.757 1459.87C358.979 1463.58 362.896 1465.8 366.745 1467.5C378.084 1472.51 390.775 1474.48 402.961 1476.18C434.046 1480.51 468.888 1482.36 499.561 1474.74C509.09 1472.35 526.088 1468.64 526.752 1456.73C527.096 1450.55 526.179 1444.13 525.4 1438.02C521.689 1409.52 512.229 1380.98 492.597 1359.42C484.396 1350.42 471.065 1363.8 479.243 1372.78C493.514 1388.44 500.959 1408.97 505.013 1429.47C506.388 1436.39 507.35 1443.35 507.739 1450.39C507.831 1452.15 507.648 1454.05 507.9 1455.79C507.968 1456.2 507.67 1457.03 507.831 1457.39C508.678 1455.2 509.503 1453 510.35 1450.8C509.64 1451.16 508.93 1451.51 508.22 1451.85C506.456 1452.13 504.441 1453.48 502.723 1454.07C478.372 1462.59 449.761 1461.38 424.357 1459.57C412.353 1458.72 400.35 1457.19 388.621 1454.53C384.2 1453.52 379.504 1452.54 375.335 1450.73C374.442 1450.34 373.457 1449.56 372.563 1449.33C371.67 1449.1 372.723 1449.01 372.311 1449.19C370.937 1447.75 371.464 1449.17 373.892 1453.43C373.961 1452.58 374.029 1451.74 374.098 1450.91C375.22 1447.59 374.992 1443.1 375.633 1439.6C376.297 1435.86 377.122 1432.13 378.061 1428.44C379.939 1421.06 382.322 1413.73 385.323 1406.72C391.279 1392.7 399.457 1379.56 409.352 1367.96C417.187 1358.76 403.9 1345.33 395.997 1354.61L395.929 1354.66Z" fill="#1C1C1C"/>
<path d="M1159.43 1166.52C1065.21 1201.18 964.099 1218.91 863.628 1215.77C813.851 1214.21 764.233 1207.27 716.357 1193.37C673.062 1180.79 631.004 1162.58 595.681 1134.1C557.678 1103.48 528.907 1063.3 513.032 1017.09C509.115 1005.66 490.858 1010.57 494.821 1022.11C509.459 1064.81 533.992 1103.41 567.047 1134.22C600.652 1165.58 641.084 1187.64 684.218 1202.87C783.269 1237.83 891.666 1241.52 994.955 1227.13C1052.75 1219.09 1109.65 1204.86 1164.42 1184.73C1175.74 1180.56 1170.84 1162.3 1159.41 1166.52H1159.43Z" fill="#1C1C1C"/>
<path d="M1404.33 876.145C1405.22 901.091 1401.37 925.533 1393.54 949.219C1391.93 954.053 1395.39 959.528 1400.14 960.833C1405.27 962.254 1410.15 959.093 1411.75 954.236C1420.04 929.107 1424.14 902.603 1423.2 876.145C1423.02 871.037 1418.99 866.708 1413.77 866.708C1408.54 866.708 1404.14 871.037 1404.33 876.145Z" fill="#1C1C1C"/>
<path d="M399.301 862.287C359.947 791.549 341.048 712.084 345.813 631.176C350.372 553.566 374.974 476.437 411.74 408.196C476.133 288.666 585.607 192.158 713.59 146.045C783.251 120.939 858.844 108.18 932.766 106.668C1007.4 105.133 1082.3 116.495 1151.81 144.236C1236.7 178.116 1310.97 238.476 1369.26 308.183C1443.85 397.384 1488.86 508.874 1484.14 626.113C1483.46 642.973 1481.85 659.787 1479.31 676.463C1477.5 688.352 1495.69 693.483 1497.52 681.48C1507.62 614.98 1504.35 547.198 1485.5 482.507C1469.32 427.049 1442.59 374.912 1408.69 328.227C1356.14 255.863 1286.52 191.516 1207.26 149.321C1068.01 75.1933 901.818 74.0479 752.165 114.296C615.844 150.948 496.314 240.607 419.322 358.556C332.779 491.121 296.585 663.887 355.778 814.388C363.543 834.157 372.683 853.307 382.992 871.862C388.902 882.491 405.211 872.962 399.301 862.333V862.287Z" fill="#1C1C1C"/>
<path d="M445.588 846.458C455.072 882.606 466.388 918.249 479.445 953.274C481.232 958.039 485.836 961.315 491.059 959.872C495.64 958.612 499.443 953.068 497.657 948.258C484.577 913.233 473.283 877.589 463.8 841.441C460.707 829.69 442.496 834.684 445.588 846.458Z" fill="#1C1C1C"/>
<path d="M1421.83 716.689C1441.92 696.049 1472.2 689.979 1497.76 704.342C1521.98 717.926 1535.26 743.238 1540.4 769.742C1550.13 819.863 1526.08 869.503 1487.62 900.978C1465.33 919.212 1438.16 930.757 1409.78 935.064C1397.8 936.873 1402.88 955.085 1414.79 953.275C1472.91 944.456 1526.05 904.918 1549.24 850.582C1572.19 796.727 1563.26 721.545 1509.29 689.177C1476.23 669.362 1435.09 676.028 1408.47 703.334C1400 712.039 1413.33 725.416 1421.83 716.689Z" fill="#1C1C1C"/>
<path d="M445.179 843.777C416.109 848.336 386.399 859.583 366.951 882.628C350.915 901.641 343.516 925.854 343.676 950.548C343.997 1003.44 373.777 1057.14 418.95 1084.58C455.991 1107.07 501.897 1113.28 543.703 1102.38C555.454 1099.31 550.461 1081.1 538.686 1084.17C478.142 1099.95 412.948 1074.11 382.046 1019.45C362.3 984.52 352.61 936.46 376.48 901.046C392.927 876.649 422.34 866.318 450.173 861.943C462.153 860.064 457.067 841.876 445.156 843.732L445.179 843.777Z" fill="#1C1C1C"/>
<path d="M1497.54 686.68C1496.88 684.275 1496.23 681.846 1495.57 679.441C1495.36 678.617 1495 677.906 1494.45 677.311C1494.01 676.624 1493.42 676.074 1492.68 675.684C1491.95 675.226 1491.17 674.974 1490.35 674.928C1489.5 674.745 1488.67 674.768 1487.83 675.043C1486.32 675.547 1484.83 676.486 1484.07 677.929C1483.27 679.441 1482.97 681.113 1483.43 682.786C1484.09 685.191 1484.73 687.619 1485.4 690.024C1485.61 690.849 1485.97 691.559 1486.52 692.155C1486.96 692.842 1487.55 693.369 1488.29 693.781C1489.02 694.239 1489.8 694.491 1490.62 694.537C1491.47 694.72 1492.29 694.697 1493.14 694.423C1494.65 693.919 1496.14 692.979 1496.9 691.536C1497.7 690.024 1498 688.352 1497.54 686.68Z" fill="#1C1C1C"/>
<path d="M1390.42 676.899C1394.41 696.095 1394.55 716.116 1394.94 735.633C1395.33 755.563 1395.05 775.584 1396.54 795.49C1397.43 807.539 1416.33 807.631 1415.41 795.49C1412.35 754.486 1417.04 712.382 1408.61 671.882C1406.14 659.993 1387.93 665.033 1390.4 676.899H1390.42Z" fill="#1C1C1C"/>
<path d="M444.534 839.448C472.504 820.114 501.459 802.201 531.307 785.868C546.197 777.713 561.27 769.947 576.549 762.525C582.093 759.845 585.3 756.982 587.865 751.393C593.867 738.335 596.799 723.721 600.075 709.816C604.405 691.398 608.322 672.866 612.605 654.449C614.507 646.248 616.476 638.047 618.698 629.915C619.592 626.685 620.508 623.433 621.539 620.248C621.951 618.943 622.387 617.66 622.822 616.377C623.074 615.644 624.517 611.979 623.761 613.743C624.379 612.345 625.823 610.627 626.166 609.207C625.937 610.192 625.159 610.765 623.67 611.177C621.585 611.773 618.905 611.36 618.172 611.017C613.636 609.001 618.057 610.375 617.484 610.65C617.622 610.582 616.774 609.299 617.049 610.123C617.347 611.017 618.126 612.025 618.561 612.872C619.134 614.041 618.401 612.208 619.225 614.567C619.798 616.148 620.325 617.729 620.806 619.332C629.832 648.86 630.541 680.884 641.468 709.839C643.461 715.107 645.844 720.949 650.769 724.179C659.038 729.562 668.843 723.01 676.814 720.101C709.595 708.098 742.902 697.606 776.576 688.466C843.946 670.209 912.782 657.473 982.1 649.409C1017.56 645.286 1053.16 642.377 1088.82 640.705C1098.51 640.247 1106.76 640.407 1109.14 629.572C1110.56 623.066 1110.2 616.034 1110.06 609.436C1109.69 592.806 1107.79 576.015 1108.71 559.361C1108.78 558.124 1108.89 556.887 1109.01 555.627C1108.89 556.956 1109.74 555.054 1109.03 555.421C1104.93 557.483 1112.19 556.727 1102.87 558.078C1101.15 558.33 1096.93 559.017 1097.3 558.238C1097.16 558.513 1097.99 558.994 1098.31 559.475C1102.29 565.477 1105.27 572.166 1108.3 578.695C1115.58 594.455 1121.72 610.994 1130.29 626.136C1133.1 631.107 1136.59 636.948 1142.43 638.689C1148.7 640.567 1156.68 639.284 1163.16 639.422C1171.7 639.582 1180.27 639.788 1188.81 640.04C1250.57 641.873 1311.92 647.439 1372.14 661.848C1387.9 665.628 1403.55 669.911 1419.08 674.562C1430.74 678.066 1435.73 659.832 1424.1 656.35C1363.64 638.231 1301.77 627.556 1238.82 623.455C1223.11 622.425 1207.35 621.737 1191.61 621.256C1183.09 620.982 1174.59 620.775 1166.07 620.615C1162.17 620.546 1158.28 620.478 1154.36 620.409C1152.42 620.386 1150.38 620.226 1148.43 620.317C1144.83 620.042 1144.44 620.18 1147.31 620.752C1148.52 620.798 1149.53 621.256 1150.31 622.127C1149.62 622.081 1148.59 619.745 1149.62 621.508C1149.02 620.478 1148.27 619.493 1147.65 618.462C1145.68 615.209 1143.99 611.773 1142.31 608.337C1138.35 600.205 1134.75 591.912 1131.09 583.666C1125.59 571.25 1120.51 554.046 1110.24 544.54C1104.58 539.294 1096.02 540.004 1092.21 547.014C1089.28 552.42 1089.67 559.773 1089.65 565.729C1089.63 582.933 1091.41 600.113 1091.21 617.316C1091.18 620.065 1091 622.791 1090.77 625.54C1090.95 623.455 1089.76 626.8 1090.75 625.769C1091.37 625.105 1093.09 623.387 1093.5 622.7C1095.86 621.279 1095.31 620.959 1091.85 621.715C1090.82 621.76 1089.81 621.806 1088.78 621.852C1070.41 622.7 1052.06 623.891 1033.71 625.426C963.155 631.267 892.83 641.575 823.787 657.29C789.747 665.032 756.005 674.103 722.721 684.595C706.09 689.841 689.574 695.453 673.172 701.409C668.957 702.944 664.765 704.501 660.573 706.082C655.327 708.052 655.19 706.838 659.496 707.754C660.894 708.052 661.398 708.693 661.49 708.671C660.94 708.831 661.008 705.945 661.902 709.22C661.741 708.671 661.1 708.029 660.871 707.479C659.542 704.295 657.274 697.767 655.877 692.292C653.884 684.48 652.28 676.577 650.7 668.674C647.47 652.364 644.767 635.871 640.529 619.79C637.986 610.169 634.001 593.012 621.264 592.851C609.284 592.714 605.389 608.383 602.64 617.316C592.332 651.082 586.857 686.198 578.015 720.376C576.274 727.065 574.419 733.731 572.105 740.26C571.006 743.398 571.51 741.268 570.319 744.314C569.792 745.712 569.059 746.078 570.227 744.772C569.54 745.551 569.791 744.772 570.501 744.704C572.632 744.52 568.165 745.666 566.997 746.238C536.462 761.059 506.613 777.369 477.727 795.191C463.227 804.125 449.002 813.471 435.005 823.161C425.086 830.033 434.501 846.412 444.534 839.471V839.448Z" fill="#1C1C1C"/>
<path d="M627.013 605.29C627.494 475.75 644.994 342.384 698.185 223.22C713.373 189.18 731.584 156.56 753.025 126.07C757.699 119.427 746.795 113.128 742.145 119.725C664.993 229.382 631.273 364.077 619.361 496C616.086 532.331 614.528 568.822 614.391 605.29C614.368 613.4 626.944 613.4 626.99 605.29H627.013Z" fill="#1C1C1C"/>
<path d="M862.117 105.431C960.321 196.763 1024.6 318.469 1064.85 445.169C1076.28 481.156 1085.81 517.716 1093.76 554.62C1095.45 562.546 1107.59 559.179 1105.9 551.276C1077.54 419.627 1028.47 289.308 946.92 181.071C924.081 150.765 898.838 122.383 871.028 96.5204C865.095 90.9998 856.184 99.8878 862.117 105.431Z" fill="#1C1C1C"/>
<path d="M882.775 110.356C939.172 100.895 995.043 126.299 1042.67 153.948C1084.75 178.367 1123.46 208.261 1158.42 242.05C1229.61 310.84 1285.87 395.597 1322.46 487.57C1342.66 538.332 1357.05 591.569 1363.94 645.79C1364.95 653.716 1377.55 653.808 1376.54 645.79C1363.71 544.884 1326.72 447.688 1272.13 362.038C1217.66 276.548 1145.15 201.252 1058.2 148.542C1005.12 116.357 942.952 87.5858 879.43 98.2377C871.458 99.5663 874.849 111.707 882.775 110.379V110.356Z" fill="#1C1C1C"/>
<path d="M723.985 124.329C631.967 164.692 553.303 233.483 499.723 318.377C441.768 410.212 416.203 520.007 425.778 628.06C431.368 691.238 448.571 752.928 476.908 809.692C480.527 816.931 491.385 810.562 487.788 803.347C438.538 704.685 424.152 589.484 446.876 481.614C467.561 383.411 519.675 293.729 593.047 225.465C633.387 187.92 679.889 157.362 730.353 135.21C737.752 131.958 731.361 121.122 724.008 124.329H723.985Z" fill="#1C1C1C"/>
<path d="M818.706 1304.65C808.603 1358.89 795.776 1412.61 786.246 1466.95C784.162 1478.84 802.35 1483.94 804.457 1471.96C813.987 1417.63 826.815 1363.89 836.917 1309.64C839.139 1297.75 820.928 1292.67 818.706 1304.63V1304.65Z" fill="#1C1C1C"/>
<path d="M1257.4 1314.98C1273.71 1364.48 1288.76 1414.19 1297.08 1465.73C1299 1477.69 1317.21 1472.63 1315.29 1460.72C1306.97 1409.18 1291.9 1359.47 1275.61 1309.96C1271.83 1298.46 1253.58 1303.39 1257.4 1314.98Z" fill="#1C1C1C"/>
<path d="M1301.89 887.691C1305.44 876.329 1318.52 873.466 1329.08 873.42C1341.77 873.351 1355.01 876.902 1364.36 885.836C1376.84 897.77 1379.73 915.203 1382.96 931.444C1387.4 953.825 1388.96 976.457 1388.34 999.25C1386.42 1071.02 1367.72 1144.37 1337.53 1209.38C1320.81 1245.37 1299.78 1279.86 1271.74 1308.18C1263.17 1316.81 1276.53 1330.17 1285.1 1321.53C1341.31 1264.81 1373.54 1185.42 1391.94 1108.91C1401.7 1068.32 1407.93 1026.21 1407.35 984.406C1407.03 960.559 1403.85 936.988 1398.53 913.76C1394.25 895.022 1386.32 877.956 1370.36 866.433C1345.34 848.36 1294.51 847.97 1283.7 882.698C1280.08 894.334 1298.29 899.305 1301.91 887.714L1301.89 887.691Z" fill="#1C1C1C"/>
<path d="M1176.11 1190.09C1201.01 1152.45 1225.08 1114.11 1244.3 1073.22C1263.52 1032.35 1277.43 989.491 1286.73 945.349C1289.22 933.483 1271.04 928.42 1268.52 940.332C1259.38 983.65 1246 1025.85 1226.96 1065.86C1207.9 1105.95 1184.24 1143.61 1159.77 1180.58C1153.04 1190.75 1169.4 1200.22 1176.08 1190.11L1176.11 1190.09Z" fill="#1C1C1C"/>
<path d="M835.791 1229.7C843.672 1261.95 872.351 1279.86 904.421 1280.89C921.831 1281.44 938.737 1277.21 953.81 1268.5C961.392 1264.1 968.562 1259.02 976.374 1254.99C982.788 1251.66 984.574 1250.59 990.347 1253.84C1012.09 1266.05 1035.52 1270.4 1060.35 1269.69C1083.63 1269.03 1108.59 1264.49 1128.62 1251.96C1152.46 1237 1162.24 1212.04 1155.16 1184.8C1152.12 1173.05 1133.88 1178.02 1136.95 1189.81C1148.7 1234.99 1095.93 1249.63 1061.13 1250.77C1040.67 1251.46 1020.22 1248.94 1002.14 1238.81C997.975 1236.48 993.943 1233.91 989.201 1233C982.123 1231.64 975.434 1234.46 969.203 1237.46C954.291 1244.63 941.692 1256.18 925.267 1260.03C895.786 1266.94 861.814 1256.64 854.003 1224.63C851.116 1212.84 832.905 1217.83 835.791 1229.65V1229.7Z" fill="#1C1C1C"/>
<path d="M1153.8 1195.7C1167.79 1223.74 1187.1 1249.35 1206.85 1273.54C1224.4 1295.07 1243.41 1317.8 1266.66 1333.47C1276.76 1340.27 1286.22 1323.91 1276.19 1317.16C1254.5 1302.54 1236.61 1280.32 1220.21 1260.19C1201.49 1237.21 1183.39 1212.77 1170.11 1186.17C1164.68 1175.29 1148.39 1184.84 1153.8 1195.7Z" fill="#1C1C1C"/>
<path d="M787.206 1471.92C754.586 1516.79 728.815 1567.3 715.002 1621.18C712.94 1629.27 711.107 1637.42 709.71 1645.65C707.648 1657.76 719.561 1667.94 728.311 1675.06C746.27 1689.7 767.574 1697.44 788.557 1706.56C803.814 1713.18 821.429 1720 838.06 1714.14C852.262 1709.12 864.151 1696.13 862.845 1680.37C862.158 1671.94 849.651 1666.4 845.253 1675.61C834.693 1697.65 851.255 1719.68 872.787 1725.71C884.722 1729.05 897.412 1728.48 909.668 1728.34C924.58 1728.18 939.493 1728.02 954.406 1727.86C969.318 1727.7 984.231 1727.54 999.144 1727.38C1011.4 1727.24 1024.07 1727.29 1035.93 1723.87C1057.21 1717.74 1075.93 1697.3 1068.96 1673.98C1063.22 1676.41 1057.47 1678.84 1051.72 1681.27C1057.51 1692.54 1063.31 1703.79 1069.1 1715.06C1071.07 1718.9 1075.81 1720.26 1079.75 1719.39C1126.55 1709.28 1173.38 1699.16 1220.18 1689.06C1239.65 1684.84 1262.3 1682.44 1277.97 1668.9C1290.94 1657.7 1296.41 1638.87 1287.94 1623.45C1282.99 1627.25 1278.04 1631.08 1273.11 1634.88C1278.06 1640.17 1283.01 1645.46 1287.96 1650.75C1290.11 1653.05 1294.12 1654.26 1297.14 1653.18C1315.91 1646.49 1332.51 1634.83 1348.07 1622.62C1362.89 1610.99 1377.21 1598.16 1388.48 1582.97C1395.71 1573.21 1379.34 1563.78 1372.17 1573.44C1362.41 1586.59 1349.21 1597.72 1336.5 1607.85C1323.19 1618.46 1308.28 1629.22 1292.13 1634.97C1295.2 1635.77 1298.24 1636.6 1301.31 1637.4C1296.37 1632.11 1291.42 1626.82 1286.47 1621.53C1279 1613.53 1266.59 1623.72 1271.65 1632.96C1279.64 1647.55 1261.13 1659.21 1249.7 1662.83C1231.61 1668.53 1212.34 1671.44 1193.81 1675.45C1154.13 1684.02 1114.44 1692.61 1074.76 1701.17L1085.41 1705.5C1079.62 1694.23 1073.82 1682.99 1068.03 1671.72C1063.12 1662.19 1047.73 1668.78 1050.78 1679C1056.11 1696.91 1034.67 1706.1 1020.65 1707.68C999.899 1710.04 978.367 1708.73 957.498 1708.94C936.515 1709.17 915.418 1709.97 894.435 1709.51C885.867 1709.33 876.086 1708.64 868.824 1703.51C863.487 1699.73 858.401 1691.74 861.562 1685.14C855.698 1683.56 849.834 1681.95 843.97 1680.37C845.184 1695.26 827.546 1698.93 816.115 1696.48C804.203 1693.91 793.024 1688 781.776 1683.4C761.137 1674.94 739.604 1664.61 726.57 1645.72L727.532 1653C738.069 1590.62 766.544 1532.32 803.516 1481.45C810.663 1471.6 794.284 1462.18 787.206 1471.92Z" fill="#1C1C1C"/>
<path d="M1295.79 1471.76C1313.02 1486.44 1327.01 1504.93 1339.66 1523.57C1352.33 1542.27 1364.47 1562.08 1372.99 1583.04C1374.91 1587.76 1379.27 1591.1 1384.6 1589.64C1389.07 1588.4 1393.12 1582.77 1391.2 1578.02C1382.01 1555.44 1369.62 1534.2 1355.97 1514.04C1342.48 1494.14 1327.54 1474.07 1309.15 1458.4C1299.94 1450.57 1286.51 1463.85 1295.79 1471.76Z" fill="#1C1C1C"/>
<path d="M967.171 1234.28C956.312 1244.01 947.608 1256.06 941.858 1269.46C936.795 1281.26 933.771 1294 937.001 1306.76C940.071 1318.81 950.036 1328.52 963.047 1327.92C976.494 1327.3 986.046 1315.92 991.017 1304.42C998.164 1287.88 999.172 1268.07 997.958 1250.31C994.819 1253.45 991.658 1256.61 988.52 1259.75C1000.91 1260.58 1012.66 1266.44 1021.28 1275.28C1025.4 1279.52 1028.88 1284.47 1031.2 1289.92C1033.03 1294.2 1033.56 1298.99 1033.01 1302.66C1032.66 1304.9 1031.79 1307.38 1031.22 1308.31C1030.55 1309.25 1030.51 1309.41 1031.04 1308.82C1030.62 1309.3 1030.19 1309.78 1029.73 1310.22C1031.06 1309.05 1027.35 1311.22 1029 1310.63C1027.87 1311.04 1026.57 1310.99 1024.58 1309.96C1022.13 1308.68 1020.09 1306.32 1018.39 1304.19C1008.7 1292.07 1001.88 1276.73 997.042 1262.09C993.239 1250.61 975.004 1255.54 978.83 1267.1C984.03 1282.84 991.177 1298.14 1000.66 1311.77C1009.04 1323.82 1022.88 1334.91 1038.07 1327.17C1049.38 1321.39 1053.1 1306.78 1051.74 1295.07C1050.19 1281.42 1042.21 1268.75 1032.2 1259.55C1020.11 1248.44 1004.88 1241.91 988.497 1240.83C983.641 1240.51 978.716 1245.41 979.059 1250.27C980.067 1265.02 979.953 1282.15 974.18 1296.04C972.325 1300.5 969.347 1305.41 965.521 1307.88C962.772 1309.67 959.84 1309.16 958.053 1307.47C956.061 1305.59 954.755 1301.14 954.549 1297.53C954.251 1291.91 955.098 1287.79 956.931 1282.41C961.512 1268.89 969.919 1257.07 980.502 1247.59C989.573 1239.46 976.173 1226.15 967.148 1234.23L967.171 1234.28Z" fill="#1C1C1C"/>
<path d="M1047 1705C1048.97 1747.72 1050.94 1790.44 1052.93 1833.19C1053.41 1843.61 1053.89 1854.03 1054.37 1864.46C1054.76 1873.09 1054.05 1883.1 1059.46 1890.39C1064.48 1897.17 1073.43 1899.21 1081.02 1901.82C1090.73 1905.16 1100.51 1908.32 1110.59 1910.39C1130.98 1914.58 1150.79 1912.84 1171.22 1909.97C1188.68 1907.52 1206.48 1904.91 1222.24 1896.48C1253.83 1879.58 1262.19 1842.72 1268.42 1810.37C1277.29 1764.28 1281.43 1717.37 1280.93 1670.43C1280.79 1658.29 1261.91 1658.25 1262.05 1670.43C1262.46 1707.54 1260.08 1744.72 1254.38 1781.4C1251.7 1798.6 1248.7 1815.94 1244.18 1832.78C1240.54 1846.34 1235.48 1860.31 1225.56 1870.6C1214.73 1881.84 1199.51 1886.13 1184.6 1888.9C1166.99 1892.18 1148.52 1895.13 1130.56 1894.15C1112.88 1893.18 1095.65 1887.14 1079.14 1881.16C1075.66 1879.9 1074.37 1879.6 1073.85 1875.91C1073.32 1872.15 1073.46 1868.21 1073.3 1864.41C1072.81 1853.99 1072.33 1843.57 1071.85 1833.14C1069.88 1790.42 1067.91 1747.7 1065.92 1704.95C1065.37 1692.86 1046.47 1692.79 1047.04 1704.95L1047 1705Z" fill="#1C1C1C"/>
<path d="M845.87 1708.16C855.399 1737.05 864.906 1765.91 874.435 1794.8C879.36 1809.73 884.285 1824.67 889.21 1839.6C892.921 1850.83 895.784 1863.33 903.229 1872.8C910.239 1881.71 920.593 1885.83 931.291 1888.53C945.15 1892.06 959.49 1894.17 973.738 1895.08C1001.52 1896.85 1029.56 1893.46 1056.25 1885.53C1067.86 1882.07 1062.92 1863.84 1051.23 1867.32C1026.97 1874.54 1001.94 1877.65 976.647 1876.37C964.002 1875.73 951.472 1873.94 939.148 1871.01C928.703 1868.53 919.357 1865.76 914.592 1855.32C909.438 1844.05 906.414 1831.42 902.52 1819.65C898.259 1806.71 893.975 1793.77 889.714 1780.82C881.17 1754.94 872.649 1729.05 864.104 1703.17C860.324 1691.69 842.067 1696.59 845.893 1708.18L845.87 1708.16Z" fill="#1C1C1C"/>
<path d="M878.84 1773.58C908.138 1788.04 942.774 1791.47 975.027 1789.6C1004.19 1787.9 1037.52 1782.24 1060.1 1762.15C1069.2 1754.07 1055.8 1740.73 1046.75 1748.8C1027.76 1765.7 997.225 1769.62 972.897 1770.81C944.813 1772.21 913.979 1769.9 888.369 1757.25C877.511 1751.89 867.936 1768.18 878.84 1773.56V1773.58Z" fill="#1C1C1C"/>
<path d="M1064.19 1785.86C1133.53 1798.3 1205.64 1787.97 1269.05 1757.39C1279.99 1752.12 1270.42 1735.81 1259.52 1741.08C1201.01 1769.3 1133.21 1779.13 1069.2 1767.65C1057.31 1765.52 1052.23 1783.71 1064.19 1785.86Z" fill="#1C1C1C"/>
<path d="M1330.69 920.403H1354.95C1359.9 920.403 1364.61 916.05 1364.38 910.965C1364.16 905.857 1360.24 901.527 1354.95 901.527H1330.69C1325.74 901.527 1321.02 905.879 1321.25 910.965C1321.48 916.073 1325.4 920.403 1330.69 920.403Z" fill="#1C1C1C"/>
<path d="M1285.7 937.537C1284.94 933.299 1284.16 929.062 1283.41 924.801C1283.02 922.579 1282.6 920.357 1282.28 918.135C1282.51 919.83 1282.24 917.516 1282.19 917.058C1282.08 915.867 1282.01 914.676 1281.96 913.485C1281.96 912.591 1281.96 911.698 1281.99 910.804C1282.01 910.209 1282.05 909.613 1282.12 909.018C1281.94 910.163 1281.94 910.255 1282.12 909.247C1282.42 907.804 1282.6 905.696 1283.45 904.505C1282.15 906.315 1283.38 904.757 1283.68 904.207C1284.07 903.497 1284.55 902.397 1285.17 901.848C1283.45 903.337 1285.08 902.077 1285.49 901.664C1285.81 901.344 1286.15 901.023 1286.5 900.725C1285.49 901.481 1285.4 901.55 1286.25 900.954C1286.54 900.794 1288.93 899.717 1287.67 900.13C1286.34 900.542 1289.02 899.832 1289.27 899.763C1291.08 899.236 1287.48 899.809 1289.96 899.74C1290.67 899.74 1291.84 899.557 1292.5 899.832C1291.19 899.649 1291.08 899.649 1292.16 899.832C1292.64 899.923 1293.12 900.038 1293.6 900.175C1294.22 900.336 1295.25 900.473 1295.71 900.863C1294.61 900.359 1294.54 900.336 1295.5 900.771C1295.94 900.977 1296.39 901.206 1296.83 901.458C1297.47 901.825 1298.09 902.214 1298.71 902.604C1299.53 903.199 1299.51 903.153 1298.64 902.489C1299.05 902.81 1299.44 903.153 1299.83 903.474C1300.4 903.978 1300.98 904.505 1301.53 905.055C1302.26 905.788 1302.97 906.544 1303.63 907.323C1304.09 907.872 1305.12 909.132 1304.11 907.827C1306.5 910.942 1308.53 914.309 1310.53 917.677C1313.05 921.937 1319.14 923.839 1323.45 921.067C1327.73 918.318 1329.52 912.706 1326.84 908.147C1323.08 901.802 1319 895.296 1313.46 890.348C1307.21 884.736 1299.51 881.071 1291.03 880.819C1282.05 880.544 1274.29 884.942 1269.04 892.02C1264.39 898.297 1262.79 906.704 1263.11 914.378C1263.5 923.816 1265.81 933.276 1267.51 942.554C1268.38 947.433 1274.56 950.617 1279.12 949.151C1284.34 947.456 1286.66 942.76 1285.72 937.537H1285.7Z" fill="#1C1C1C"/>
<path d="M834.098 1221.5C778.709 1255.63 748.311 1319.79 721.303 1376.49C705.909 1408.79 692.051 1441.82 679.795 1475.42C667.746 1508.46 653.108 1544.51 656.086 1580.36C657.483 1597.02 662.431 1614.88 675.649 1626.13C688.065 1636.69 706.619 1639.62 720.57 1630.32C730.626 1623.61 721.188 1607.23 711.041 1614.01C699.908 1621.46 687.332 1614.1 681.445 1603.61C674.343 1590.99 673.816 1575.16 675.122 1561.1C678.031 1529.74 691.111 1498.61 702.13 1469.35C723.617 1412.36 749.181 1355.34 781.664 1303.71C797.882 1277.94 817.445 1253.93 843.651 1237.81C853.982 1231.44 844.498 1215.11 834.121 1221.5H834.098Z" fill="#1C1C1C"/>
<path d="M839.826 1304.49C848.645 1292.78 857.442 1281.05 866.261 1269.35C867.636 1267.52 867.796 1264.17 867.223 1262.06C866.627 1259.87 864.933 1257.51 862.894 1256.43C860.695 1255.26 858.038 1254.69 855.609 1255.47C853.113 1256.27 851.532 1257.74 849.974 1259.8C841.155 1271.5 832.359 1283.23 823.539 1294.94C822.165 1296.77 822.004 1300.11 822.577 1302.22C823.172 1304.42 824.868 1306.78 826.907 1307.86C829.106 1309.02 831.763 1309.6 834.191 1308.82C836.688 1308.02 838.268 1306.55 839.826 1304.49Z" fill="#1C1C1C"/>
</svg>
