<svg width="2000" height="2000" viewBox="0 0 2000 2000" fill="none" xmlns="http://www.w3.org/2000/svg">
<g clip-path="url(#clip0_157_133)">
<g clip-path="url(#clip1_157_133)">
<path d="M874.55 1265.84C869.747 1265.67 864.979 1265.02 860.188 1264.77C858.437 1264.68 856.664 1264.8 854.878 1264.92C853.692 1263.64 852.252 1262.5 850.225 1261.71C843.43 1259.03 837.51 1262.87 832.143 1266.73C828.1 1267.05 823.908 1267.46 819.923 1266.73C816.225 1266.05 811.872 1267.13 809.994 1270.77C803.476 1283.4 798.477 1296.84 794.549 1310.49C792.741 1316.77 797.394 1322.1 803.326 1323C802.646 1324.39 801.955 1325.7 801.759 1327.35C801.529 1329.43 801.782 1333.24 800.216 1334.78C799.306 1335.68 801.322 1336.74 801.46 1335.3C801.644 1333.39 804.489 1331.51 805.86 1330.45C807.472 1329.19 808.612 1328.04 809.787 1326.36C812.148 1322.99 814.613 1319.7 817.297 1316.58C822.514 1310.51 827.962 1304.61 834.02 1299.36C846.194 1288.81 860.557 1280.87 875.932 1276.13C881.611 1274.38 880.493 1266.05 874.539 1265.83L874.55 1265.84Z" fill="#1C1C1C"/>
<path d="M1131.06 1258.49C1127.69 1251.25 1114.88 1250.98 1111.6 1258.49C1111.5 1258.73 1111.5 1258.75 1111.43 1258.89C1111.42 1258.89 1111.41 1258.89 1111.4 1258.89C1111.42 1258.89 1111.41 1258.89 1111.43 1258.89H1111.4C1111.16 1258.83 1111.06 1258.79 1110.55 1258.66C1107.24 1257.84 1103.37 1254.97 1099.87 1253C1094.82 1250.15 1088.3 1248.35 1082.91 1251.5C1078.91 1253.84 1077.61 1257.92 1078.76 1261.79C1070.72 1258.85 1061.17 1258.87 1052.75 1259.36C1049.78 1259.53 1048.17 1263.74 1051.14 1265.3C1058.38 1269.1 1064.75 1274.48 1071.97 1278.18C1079.06 1281.81 1086.06 1286.3 1091.84 1291.07C1104.96 1301.88 1115.3 1312.98 1123.32 1327.79C1127.67 1335.83 1139.17 1333.26 1141.79 1325.37C1149.47 1302.28 1140.77 1279.4 1131.05 1258.48L1131.06 1258.49Z" fill="#1C1C1C"/>
<path d="M1106.66 53.358C1048.52 51.561 988.976 69.8876 948.342 113.003C919.076 144.058 902.215 192.979 916.738 234.758C924.973 258.453 942.825 273.128 966.932 278.795C971.815 279.947 973.704 272.909 968.993 271.319C915.736 253.315 916.185 187.853 939.911 146.235C972.402 89.2049 1044.04 62.4119 1106.66 60.8798C1111.51 60.7646 1111.5 53.5077 1106.66 53.358Z" fill="#070707"/>
<path d="M1602.3 253.764C1630.33 253.902 1655.83 270.605 1669.12 295.06C1683.3 321.15 1681.1 353.495 1669.42 380.069C1649.79 424.763 1599.06 453.549 1553.34 463.34C1550.57 463.927 1551.4 467.878 1553.97 468.039C1582.76 469.929 1613.34 453.456 1635.93 437.238C1658.64 420.927 1675.57 401.057 1683.98 373.999C1693 344.971 1690.13 311.29 1672.15 286.19C1656.07 263.74 1630.18 249.203 1602.3 250.343C1600.11 250.435 1600.09 253.753 1602.3 253.764Z" fill="#070707"/>
<path d="M818.079 1256.83C817.238 1265.78 819.899 1272.45 826.003 1278.93C828.376 1281.44 832.891 1280.84 834.561 1277.82C840.055 1267.86 855.488 1269.43 865.094 1268.88C876.68 1268.21 888.256 1267.4 899.842 1266.6C923.972 1264.95 948.112 1263.4 972.265 1262.11C1017.08 1259.71 1064.5 1254.72 1107.61 1270.1C1110.83 1271.25 1114.31 1268.79 1115.23 1265.77C1117.05 1259.85 1120.45 1255.52 1123.19 1250.11C1125.28 1245.98 1121.13 1242.05 1117.07 1243.99C1109.34 1247.68 1105.93 1254.61 1103.28 1262.48C1105.82 1261.04 1108.37 1259.59 1110.9 1258.15C1061.84 1239.5 1006 1247.23 954.873 1250.39C926.862 1252.12 898.84 1253.96 870.887 1256.33C855.5 1257.63 833.421 1256.27 825.163 1272.34C828.019 1271.97 830.864 1271.6 833.72 1271.23C828.998 1266.52 827.005 1262.21 825.98 1255.77C825.22 1250.99 818.482 1252.67 818.091 1256.84L818.079 1256.83Z" fill="black"/>
<path d="M809.983 1254.54C788.676 1288.97 779.565 1332.8 800.309 1369.83C817.827 1401.1 851.665 1420.86 885.585 1429.46C905.475 1434.49 929.973 1438.29 950.325 1434.2C953.1 1433.65 953.112 1429.12 950.325 1428.57C939.291 1426.38 927.854 1425.98 916.751 1423.92C905.729 1421.86 894.718 1418.81 884.122 1415.14C864.392 1408.3 845.123 1398.99 829.863 1384.45C815.466 1370.74 805.538 1352.79 802.681 1333C798.996 1307.54 806.816 1280.56 815.662 1256.93C816.928 1253.54 811.78 1251.65 809.995 1254.53L809.983 1254.54Z" fill="black"/>
<path d="M1121.81 1255.9C1131.16 1277.74 1140.03 1299.79 1137.39 1324.06C1135.24 1343.92 1126.24 1362.21 1112.86 1376.89C1098.83 1392.28 1081.04 1404.31 1062.18 1412.97C1052.45 1417.44 1042.24 1420.95 1031.9 1423.77C1021.08 1426.7 1009.56 1427.76 998.906 1431.02C996.188 1431.85 995.727 1436.44 998.906 1437C1021.56 1441.07 1048.72 1432.59 1069.39 1423.94C1091.33 1414.76 1111.59 1401.58 1126.82 1383.1C1158.59 1344.58 1159.68 1290.35 1128.26 1250.91C1125.09 1246.94 1120.15 1252.02 1121.81 1255.89V1255.9Z" fill="black"/>
<path d="M845.03 1042C841.725 1008.7 803.682 983.788 775.545 971.475C745.922 958.516 713.799 952.929 681.573 956.454C622.281 962.939 560.904 993.038 531.338 1047.1C515.433 1076.18 513.233 1108.77 525.844 1139.17C529.657 1148.34 544.088 1148.05 544.203 1136.68C544.779 1077.61 590.527 1030.36 644.475 1012.44C673.661 1002.74 705.714 1000.19 735.856 1007.25C751.254 1010.86 765.444 1016.74 778.804 1025.24C794.422 1035.19 807.495 1051.16 825.117 1057.19C834.146 1060.27 846.009 1051.91 845.03 1042.02V1042Z" fill="black"/>
<path d="M1395.02 1101.03C1399.22 1114.78 1412.71 1124.81 1427.2 1124.51C1434.93 1124.35 1442.39 1120.59 1448.2 1115.71C1453.92 1110.95 1460.1 1100.15 1454.32 1093.36C1452.92 1091.7 1450.53 1091.44 1448.55 1091.84C1446.11 1092.32 1444.76 1093.81 1443.28 1095.64C1442.48 1096.63 1444.4 1094.53 1442.88 1096.07C1442.47 1096.49 1442.09 1096.94 1441.66 1097.35C1439.85 1099.14 1438.16 1101.05 1436.32 1102.8C1435.88 1103.22 1435.4 1103.6 1434.95 1104.01C1434.23 1104.69 1436.03 1103.32 1434.67 1104.21C1433.54 1104.94 1432.41 1105.66 1431.22 1106.27C1430.54 1106.61 1429.8 1106.89 1430.93 1106.45C1430.36 1106.67 1429.79 1106.88 1429.2 1107.06C1427.92 1107.47 1426.62 1107.74 1425.31 1108.03C1424.72 1108.16 1424.12 1108.27 1423.53 1108.4C1422.68 1108.6 1424.62 1108.38 1423.1 1108.42C1421.85 1108.46 1420.63 1108.45 1419.39 1108.41C1417.3 1108.34 1420.46 1108.73 1418.39 1108.28C1417.78 1108.16 1417.16 1108.03 1416.57 1107.88C1415.37 1107.58 1414.19 1107.2 1413.04 1106.75C1409.16 1105.23 1404.99 1101.85 1402.49 1097.86C1400.08 1094.02 1393.59 1096.43 1394.99 1101.03H1395.02Z" fill="#070707"/>
<path d="M1257.05 1031.26C1190.43 1025.53 1131.59 1077.29 1125.61 1146.86C1119.63 1216.42 1168.8 1277.46 1235.42 1283.19C1302.04 1288.91 1360.88 1237.16 1366.86 1167.58C1372.83 1098.02 1323.67 1036.98 1257.05 1031.26ZM1337.45 1165.03C1335.77 1166.24 1334 1167.42 1332.06 1168.18C1331.64 1168.36 1331.16 1168.46 1330.71 1168.62C1330.75 1168.62 1330.81 1168.62 1330.48 1168.77C1329.06 1169.39 1327.4 1169.9 1325.88 1170.26C1309.58 1174.12 1296.67 1160.6 1288.88 1148.2C1280.88 1135.43 1276.44 1120.3 1276.07 1105.28C1275.68 1089.38 1284.38 1072.83 1301.19 1069.72C1318.83 1066.46 1330.78 1082.72 1336.38 1097.13C1337.32 1099.58 1338.2 1102.16 1339.05 1104.74C1344.66 1115.21 1347.9 1127 1348.29 1138.83C1348.52 1145.74 1346.94 1152.54 1343.41 1158.5C1341.91 1161.01 1339.82 1163.33 1337.46 1165.04L1337.45 1165.03Z" fill="black"/>
<path d="M718.903 1013.62C652.285 1007.9 593.431 1059.65 587.453 1129.23C581.475 1198.79 630.644 1259.83 697.261 1265.55C763.879 1271.28 822.734 1219.52 828.7 1149.95C834.677 1080.39 785.509 1019.35 718.891 1013.62H718.903ZM773.45 1139.07C753.076 1141.33 738.137 1124.92 732.125 1106.99C728.359 1095.75 726.447 1081.27 730.72 1069.72C730.72 1069.39 730.651 1069.04 730.662 1068.72C730.985 1058.53 737.584 1049.22 747.916 1047.34C750.853 1046.81 753.755 1047.07 756.611 1047.64C761.967 1046.05 767.634 1047.4 771.861 1052.03C772.978 1053.24 773.703 1054.76 774.268 1056.35C786.949 1065.77 797.049 1079.76 801.253 1094.84C803.465 1102.78 803.2 1112.17 799.491 1119.62C794.458 1129.73 784.991 1137.78 773.427 1139.06L773.45 1139.07Z" fill="black"/>
<path d="M1137.82 1002C1150.55 988.822 1165.41 979.434 1181.71 971.313C1189.52 967.42 1197.71 964.367 1206.13 962.098C1214.97 959.714 1223.21 956.35 1231.85 953.355C1234.57 952.411 1235.19 947.826 1231.85 947.204C1221.9 945.338 1212.75 944.739 1202.88 947.469C1193.26 950.13 1183.89 953.828 1174.99 958.331C1157.58 967.143 1142.73 981.346 1131.01 996.77C1128.01 1000.72 1134.46 1005.49 1137.82 1002.02V1002Z" fill="black"/>
<path d="M831.186 970.15C827.685 961.948 823.101 954.438 818.126 947.066C812.862 939.244 804.961 933.22 797.29 927.864C789.562 922.473 781.5 918.418 772.435 915.838C768.301 914.663 763.935 913.465 759.639 913.05C755.125 912.613 750.264 913.523 745.784 914.202C742.778 914.652 742.156 919.639 744.908 920.872C748.421 922.438 751.681 924.431 755.125 926.101C758.695 927.841 762.599 928.889 766.216 930.605C773.633 934.118 781.166 938 788.099 942.401C794.975 946.766 800.711 952.353 807.241 957.133C813.634 961.821 819.07 968.145 823.712 974.527C827.029 979.1 833.375 975.264 831.186 970.15Z" fill="black"/>
<path d="M583.629 1746.31C575.278 1663.59 527.193 1533.25 618.423 1477.98C654.116 1456.36 698.631 1455.22 735.142 1475.55C771.238 1495.65 804.627 1538.47 803.602 1581.51C802.98 1607.34 785.969 1629.17 764.362 1641.93C741.73 1655.31 717.255 1656.57 693.172 1646.53C689.751 1645.1 686.181 1649.96 688.277 1652.89C717.301 1693.39 783.999 1657.9 806.309 1627.58C838.627 1583.68 818.322 1523.72 784.944 1486.57C751.036 1448.83 700.267 1430.11 650.223 1440.01C597.807 1450.37 557.956 1489.88 545.667 1541.6C537.72 1575.08 539.251 1610.18 543.697 1644.01C548.408 1679.81 554.466 1717.46 571.938 1749.46C574.772 1754.66 584.262 1752.62 583.617 1746.3L583.629 1746.31Z" fill="black"/>
<path d="M1180.25 1692.34C1145.94 1694.68 1117.29 1663.12 1116.52 1630.01C1115.67 1593.8 1139.1 1563.23 1167.93 1543.74C1183.38 1533.29 1200.78 1523.86 1219.19 1520.08C1239.97 1515.79 1257.95 1524.68 1274.65 1536.2C1300.35 1553.94 1324.76 1580.46 1328.51 1612.65C1332.53 1647.04 1324.06 1682.49 1318.49 1716.27C1317.78 1720.63 1323.82 1724.09 1326.2 1719.51C1343.08 1687.19 1351.92 1646.22 1348.68 1609.73C1345.05 1568.81 1316.51 1536.09 1283.45 1514.19C1263.27 1500.83 1241.42 1492.91 1217.02 1497.03C1194.82 1500.77 1173.17 1512.1 1154.8 1524.83C1119.79 1549.08 1092.17 1587.4 1094.95 1631.79C1097.74 1676.43 1135.39 1714.26 1181.77 1703.54C1187.94 1702.11 1186.73 1691.9 1180.25 1692.34Z" fill="black"/>
<path d="M1107.33 322.498C1179.09 254.052 1276.85 289.266 1351.88 332.588C1430.35 377.892 1502.65 435.234 1564.15 501.778C1626.9 569.671 1678.54 648.38 1711.97 734.772C1743.19 815.485 1768.15 901.128 1770.85 988.142C1773.84 1084.89 1744.49 1177.05 1673.03 1244.5C1670.86 1246.54 1674.04 1249.58 1676.25 1247.72C1823.73 1123.81 1800.25 915.942 1740.45 752.972C1673.15 569.579 1535.76 418.934 1366.72 322.797C1284.46 276.019 1177.68 239.469 1101.22 316.37C1097.28 320.332 1103.3 326.345 1107.34 322.498H1107.33Z" fill="black"/>
<path d="M8.72999 1375.32C46.1735 1322.87 64.0833 1260.21 65.5691 1196.08H45.2176C49.076 1265.15 98.1638 1365.33 181.332 1353.34C178.66 1346.99 175.976 1340.64 173.304 1334.3C120.899 1359.21 85.4484 1409.08 77.3515 1466.19C83.2716 1465.42 89.1801 1464.65 95.1001 1463.87C83.5595 1443.97 68.1836 1427.03 49.4791 1413.63C34.7136 1403.05 10.1236 1386.59 -8.3275 1394.78C-11.9786 1396.41 -11.4027 1401.05 -9.45622 1403.56C-3.96235 1410.65 3.28219 1412.34 11.2293 1415.66C20.4894 1419.53 29.3349 1424.19 37.639 1429.85C54.3856 1441.26 67.9878 1456.32 78.3305 1473.69C83.7092 1482.72 95.2498 1477.77 96.4246 1468.79C103.047 1418.24 138.372 1373.77 183.82 1352.3C195.476 1346.8 186.388 1331.76 175.792 1333.26C143.025 1337.9 114.265 1312.32 97.0811 1287.17C78.6415 1260.16 67.815 1228.69 65.5691 1196.09C64.6823 1183.15 45.3443 1182.85 45.2176 1196.09C44.5956 1256.89 26.8471 1315.79 -1.88919 1369.11C-5.71301 1376.19 4.19208 1381.69 8.74151 1375.32H8.72999Z" fill="black"/>
<path d="M998.686 265.709C1012.32 140.072 1123.88 35.1349 1248.71 23.3395C1380.04 10.9336 1517.26 86.4287 1572.32 207.435C1605.86 281.156 1595.85 363.378 1541.1 423.761C1535.76 429.658 1542.87 440.509 1550.09 435.395C1609.73 393.132 1626.27 310.553 1609.84 242.453C1592.4 170.125 1542.56 107.716 1482.98 64.8538C1365.57 -19.5915 1201.68 -27.3323 1088.18 67.8833C1029.55 117.058 992.006 189.109 988.447 265.698C988.136 272.402 998.006 272.125 998.709 265.698L998.686 265.709Z" fill="black"/>
<path d="M1189.27 81.1761C1165.7 107.554 1146.33 138.195 1134.24 171.542C1123.4 201.411 1111.95 241.163 1133.5 268.82C1135.35 271.204 1138.88 268.566 1138.27 266.043C1130.45 234.228 1137.86 202.459 1148.92 172.406C1160.12 141.973 1176.18 113.798 1197.02 88.9168C1201.49 83.5835 1194.02 75.8658 1189.28 81.1761H1189.27Z" fill="#070707"/>
<path d="M1184.13 167.372C1176.15 177.451 1168.78 187.991 1162.19 199.038C1158.91 204.544 1155.8 210.165 1152.89 215.879C1150 221.569 1146.73 227.409 1145.15 233.606C1144.45 236.371 1148.24 237.983 1149.74 235.541C1152.97 230.277 1155.11 224.322 1157.84 218.77C1160.67 213.01 1163.7 207.355 1166.92 201.814C1173.26 190.882 1180.34 180.412 1188.06 170.413C1189.78 168.179 1185.89 165.138 1184.12 167.372H1184.13Z" fill="#070707"/>
<path d="M1178.94 587.514C1207.45 658.459 1236.72 731.086 1245.31 807.687C1249.62 846.056 1247.41 884.461 1241.95 922.588C1236.49 960.727 1227.61 998.417 1228.93 1036.99C1229.18 1043.97 1239.73 1045.92 1241.48 1038.69C1259.48 963.976 1274.54 882.065 1263.94 805.153C1253.18 727.216 1220.21 654.715 1187.9 583.724C1185.63 578.725 1176.86 582.33 1178.94 587.502V587.514Z" fill="#070707"/>
<path d="M987.987 542.59C966.564 583.321 956.014 630.929 945.314 675.415C934.591 720.005 926.253 765.009 920.194 810.463C909.667 889.402 894.948 993.13 945.66 1061.87C946.938 1063.6 949.702 1062.64 949.196 1060.38C940.212 1019.64 931.378 979.549 930.157 937.62C928.879 893.652 933.589 849.593 939.659 806.109C945.706 762.717 953.526 719.486 963.155 676.751C973.002 633.06 988.355 589.956 995.485 545.758C996.176 541.507 990.325 538.144 987.987 542.59Z" fill="#070707"/>
<path d="M980.604 1052.07C983.011 1041.92 985.073 1031.45 985.326 1021.01C985.591 1010.5 985.003 1000.01 983.679 989.582C983.241 986.161 981.053 983.201 977.298 983.201C974.154 983.201 970.514 986.138 970.917 989.582C972.357 1001.95 974.131 1014.28 975.835 1026.6C976.665 1032.59 977.494 1038.6 978.323 1044.59C979.187 1050.82 980.143 1056.54 983.99 1061.74C985.51 1063.8 988.251 1063.42 989.196 1061.06C991.499 1055.29 991.119 1049.68 990.394 1043.66C989.645 1037.42 988.885 1031.19 988.136 1024.95C986.65 1012.59 985.211 1000.21 983.46 987.889C979.36 989.018 975.248 990.158 971.148 991.287C972.645 1001.11 973.348 1011.06 973.359 1021.01C973.359 1031.03 973.578 1041 972.772 1051.01C972.415 1055.51 979.579 1056.42 980.604 1052.07Z" fill="#070707"/>
<path d="M999.424 1070.87C1020.18 1070.76 1040.92 1070.8 1061.65 1070.05C1072.03 1069.67 1082.4 1069.3 1092.77 1068.92C1102.67 1068.57 1113.16 1067.93 1122.5 1064.54C1125.82 1063.33 1126.32 1058.28 1122.5 1057.28C1112.89 1054.77 1102.64 1055.02 1092.77 1055.6C1082.4 1056.2 1072.03 1056.8 1061.65 1057.39C1040.86 1058.6 1020.16 1060.6 999.424 1062.43C994.103 1062.9 993.907 1070.89 999.424 1070.86V1070.87Z" fill="#070707"/>
<path d="M1157.58 966.014C1157.44 976.082 1157.32 986.161 1157.18 996.229C1157.11 1001.17 1157.05 1006.1 1156.98 1011.04C1156.91 1016.25 1157.38 1021.27 1157.92 1026.44C1158.3 1030.11 1163.21 1030.11 1163.62 1026.44C1164.18 1021.27 1164.65 1016.25 1164.61 1011.04C1164.56 1006.1 1164.52 1001.17 1164.47 996.229C1164.38 986.161 1164.29 976.082 1164.19 966.014C1164.16 961.764 1157.64 961.752 1157.58 966.014Z" fill="#070707"/>
<path d="M984.555 573.979C959.274 610.771 941.319 654.542 923.247 695.239C905.004 736.327 889.179 778.659 876.555 821.809C852.461 904.192 835.472 1000.79 863.61 1084.14C864.519 1086.84 868.839 1086.54 868.758 1083.44C867.721 1040.55 866.051 997.622 869.794 954.818C873.78 909.238 883.385 864.037 896.239 820.162C908.355 778.774 923.835 738.562 939.959 698.591C956.291 658.125 977.737 618.143 989.761 576.168C990.694 572.931 986.329 571.399 984.555 573.968V573.979Z" fill="#070707"/>
<path d="M816.306 511.857C802.658 528.203 793.444 548.154 783.401 566.814C772.413 587.226 762.37 608.156 752.856 629.293C734.993 668.976 719.26 709.833 709.343 752.281C691.145 830.149 687.206 923.049 731.007 993.43C733.196 996.943 739.208 994.731 737.883 990.527C712.384 910.021 707.627 830.091 729.038 747.915C739.68 707.057 754.653 667.501 772.056 629.074C780.717 609.93 790.023 591.096 799.076 572.136C807.783 553.902 818.506 535.851 823.943 516.292C825.094 512.145 819.336 508.241 816.318 511.857H816.306Z" fill="#070707"/>
<path d="M757.243 631.954C692.515 728.575 656.833 853.14 676.425 969.263C676.851 971.82 680.963 971.186 680.905 968.652C679.534 910.263 681.504 852.265 694.91 795.189C708.259 738.331 729.636 683.49 759.213 633.094C759.961 631.816 758.05 630.733 757.243 631.942V631.954Z" fill="#070707"/>
<path d="M617.421 406.459C502.66 482.91 393.496 570.616 327.685 694.548C268.761 805.51 244.943 941.445 281.361 1063.6C299.49 1124.4 335.816 1183.39 395.293 1210.61C401.754 1213.57 406.465 1205.37 400.81 1201.16C304.65 1129.43 277.284 1008.55 288.226 893.987C300.377 766.771 363.551 650.234 452.27 559.972C504.572 506.755 563.311 461.024 624.308 418.278C631.426 413.29 624.803 401.541 617.409 406.471L617.421 406.459Z" fill="black"/>
<path d="M540.138 719.774C519.279 766.576 506.299 815.358 501.473 866.399C498.997 892.616 498.847 918.821 501.047 945.073C503.028 968.698 505.366 995.399 516.584 1016.64C518.128 1019.55 522.424 1018.05 522.527 1015.03C523.38 991.022 517.241 966.429 515.467 942.458C513.659 918.073 513.521 893.422 515.018 869.013C518.07 819.067 528.908 769.26 546.173 722.32C547.451 718.841 541.658 716.342 540.126 719.774H540.138Z" fill="#070707"/>
<path d="M556.436 807.145C549.064 838.534 544.135 870.442 541.901 902.614C539.712 934.107 538.249 968.134 545.494 999.108C546.001 1001.27 549.272 1000.74 549.295 998.59C549.767 967.189 546.231 935.904 547.348 904.423C548.5 871.939 552.416 839.663 558.854 807.813C559.165 806.247 556.804 805.567 556.436 807.145Z" fill="#070707"/>
<path d="M614.139 414.2C607.666 373.826 625.161 333.303 663.826 316.738C659.472 313.386 655.118 310.034 650.753 306.694C647.171 325.159 630.39 341.781 638.153 361.743C644.223 377.351 660.739 379.897 674.86 374.068C695.096 365.705 713.225 351.111 733.092 341.504C754.457 331.172 776.709 322.797 799.387 315.84C845.78 301.614 894.188 293.113 942.746 291.95C996.049 290.66 1042.11 301.568 1089.73 325.666C1094.05 327.854 1099.57 321.876 1095.26 318.501C1060.18 291.028 1023.83 277.344 979.441 274.429C937.817 271.699 895.766 275.604 854.856 283.368C813.128 291.282 772.148 303.722 733.438 321.277C714.837 329.709 697.595 339.926 680.526 351.076C676.092 353.979 668.536 360.614 663.273 360.188C659.806 357.124 656.339 354.06 652.861 350.996C652.919 347.333 653.794 343.9 655.476 340.709C659.368 330.469 665.507 322.302 667.915 311.428C669.228 305.496 663.722 297.79 656.973 300.485C612.043 318.409 583.145 372.237 604.556 418.243C607.263 424.06 615.003 419.591 614.139 414.2Z" fill="black"/>
<path d="M1368.01 936.468C1365.36 957.606 1362.69 978.72 1360.56 999.926C1359.49 1010.5 1358.28 1021.06 1357.35 1031.65C1356.93 1036.52 1356.72 1041.41 1356.46 1046.29C1356.18 1051.47 1355.05 1057.37 1356.93 1062.27C1358.43 1066.17 1363.74 1067.4 1366.1 1063.46C1368.72 1059.08 1368.69 1053.74 1369.3 1048.73C1369.89 1043.86 1370.53 1038.98 1371 1034.09C1372.05 1023.14 1372.59 1012.11 1373.36 1001.15C1374.9 979.607 1375.89 958.043 1376.89 936.468C1377.16 930.617 1368.69 930.951 1368 936.468H1368.01Z" fill="#070707"/>
<path d="M1510.78 1447.49C1509.06 1447.49 1507.36 1447.49 1505.64 1447.47C1507.54 1448.25 1509.43 1449.04 1511.33 1449.83C1504.26 1441.46 1490.06 1448.68 1481.7 1451.18C1472.57 1453.91 1463.37 1456.54 1454.12 1458.76C1445.32 1460.88 1436.6 1463.25 1427.78 1465.29C1421.62 1466.72 1408.24 1470.07 1410.51 1478.9C1412.68 1487.4 1427.26 1486.91 1433.96 1486.5C1443.58 1485.9 1453.11 1484.82 1462.51 1482.59C1471.85 1480.38 1480.96 1477.65 1489.97 1474.32C1498.44 1471.2 1514.38 1467.13 1513.69 1455.5C1512.91 1457.4 1512.13 1459.29 1511.33 1461.19C1512.55 1460 1513.76 1458.81 1514.97 1457.6C1518.6 1453.97 1515.91 1447.47 1510.78 1447.48V1447.49Z" fill="black"/>
<path d="M1460.74 1215.86C1476.91 1191.76 1506.54 1175.23 1534.52 1168.67C1563.2 1161.94 1593.99 1166.9 1617.95 1184.4C1665.44 1219.1 1656.33 1287.52 1634.95 1334.59C1618.35 1371.15 1589.72 1394.86 1561.72 1422.43C1558.81 1425.3 1561.76 1431.25 1565.94 1429.67C1633.78 1403.99 1678.51 1327.78 1677.44 1256.2C1676.96 1223.54 1665.1 1191.24 1639.86 1169.68C1612.6 1146.39 1576.4 1137.68 1541.22 1142.82C1500.2 1148.81 1468.07 1172.34 1450.49 1209.88C1447.26 1216.76 1456.43 1222.26 1460.73 1215.86H1460.74Z" fill="black"/>
<path d="M1403.62 1068.59C1405.05 1087.99 1408.73 1107.2 1414.95 1125.64C1418.03 1134.77 1421.99 1143.65 1426.36 1152.23C1428.56 1156.56 1430.94 1160.57 1433.78 1164.51C1436.84 1168.72 1440.47 1171.73 1444.54 1174.93C1447.36 1177.16 1452.19 1175.22 1451.02 1171.17C1448.5 1162.47 1445.37 1154.72 1441.17 1146.69C1436.89 1138.53 1433.26 1130.1 1429.9 1121.53C1423.25 1104.55 1418.6 1086.71 1416.39 1068.6C1415.43 1060.65 1403.01 1060.26 1403.63 1068.6L1403.62 1068.59Z" fill="#070707"/>
<path d="M1445.36 1113.89C1448.34 1122.82 1451.75 1131.6 1455.55 1140.2C1457.41 1144.42 1459.37 1148.58 1461.43 1152.7C1462.5 1154.83 1463.47 1157.08 1464.94 1158.97C1466.4 1160.85 1467.9 1162.69 1469.42 1164.52C1471.63 1167.19 1476.55 1164.32 1475.33 1161.09C1474.49 1158.85 1473.75 1156.58 1472.89 1154.36C1472.07 1152.26 1470.84 1150.35 1469.77 1148.39C1467.65 1144.5 1465.61 1140.55 1463.66 1136.55C1459.74 1128.47 1456.21 1120.21 1453.08 1111.79C1451.32 1107.05 1443.74 1108.98 1445.38 1113.91L1445.36 1113.89Z" fill="#070707"/>
<path d="M1420.68 1451.33C1403.37 1467.24 1385.15 1481.98 1364.81 1493.87C1354.88 1499.66 1344.58 1504.74 1334.19 1509.65C1329.54 1511.85 1324.81 1513.92 1320.05 1515.91C1315.07 1517.98 1311.48 1519.91 1307.62 1523.69C1304.06 1527.18 1305.42 1534.52 1310.74 1535.51C1316.74 1536.62 1321.27 1536.1 1327.02 1534.22C1332.5 1532.42 1337.82 1530.22 1343.12 1527.97C1354.43 1523.15 1365.21 1517.21 1375.63 1510.71C1396.79 1497.52 1418.72 1481.5 1430.7 1459.06C1434.13 1452.63 1426.06 1446.38 1420.68 1451.32V1451.33Z" fill="black"/>
<path d="M819.474 1587.5C873.077 1608.93 930.572 1618.67 988.241 1615.33C1026.12 1613.14 1076.79 1609.13 1107.83 1584.47C1110.49 1582.36 1108.37 1577.02 1104.92 1577.46C1088.18 1579.58 1070.97 1585.18 1054.54 1589.14C1032.04 1594.56 1009.08 1597.82 985.972 1599.12C930.492 1602.22 874.988 1594.64 822.756 1575.64C815.224 1572.9 812.264 1584.63 819.485 1587.52L819.474 1587.5Z" fill="black"/>
<path d="M804.949 1637.8C815.212 1632.76 825.796 1628.11 836.346 1623.71C841.702 1621.48 847.161 1619.54 852.505 1617.29C858.437 1614.8 865.209 1613.3 869.943 1608.78C873.479 1605.41 872.097 1598.06 866.879 1597.16C862.998 1596.49 859.934 1596.8 856.157 1597.86C853.185 1598.69 850.225 1599.57 847.276 1600.5C841.207 1602.41 835.379 1605.06 829.609 1607.72C824.207 1610.21 818.678 1612.72 813.645 1615.9C808.405 1619.22 803.291 1622.73 798.281 1626.38C791.451 1631.36 797.21 1641.6 804.949 1637.8Z" fill="black"/>
<path d="M1045.03 1608.22C1053.59 1610.06 1061.87 1612.63 1069.98 1615.91C1073.6 1617.38 1077.19 1618.91 1080.81 1620.37C1085.53 1622.28 1090.68 1623.55 1095.77 1623.94C1098.73 1624.17 1101.61 1621.66 1102.37 1618.92C1103.19 1615.95 1101.8 1612.8 1099.22 1611.19C1091.59 1606.42 1082.64 1603.63 1074.23 1600.5C1066.04 1597.45 1057.69 1595.1 1049.1 1593.5C1045.18 1592.77 1040.67 1594.58 1039.7 1598.83C1038.83 1602.68 1040.85 1607.33 1045.03 1608.23V1608.22Z" fill="black"/>
<path d="M1236.75 613.478C1318.61 731.558 1327.58 885.9 1273.72 1016.99C1273.18 1018.31 1275.35 1019.19 1276.02 1017.95C1345.28 890.116 1324.71 726.628 1238.14 612.671C1237.53 611.876 1236.17 612.614 1236.75 613.478Z" fill="#070707"/>
<path d="M567.17 1703.16C564.256 1746.73 581.671 1794.65 601.02 1833.07C618.239 1867.27 644.245 1899.42 681.862 1911.6C716.887 1922.96 754.975 1911.35 782.191 1887.84C811.618 1862.41 824.265 1822.71 819.796 1784.6C817.124 1761.82 809.361 1739.68 796.807 1720.45C783.216 1699.62 763.752 1683.43 750.794 1662.15C743.481 1650.14 724.546 1661.12 731.894 1673.2C750.944 1704.47 781.189 1726.23 792.592 1762.27C802.934 1794.99 799.951 1832.62 777.757 1859.9C758.235 1883.89 725.467 1899.06 694.508 1892.06C661.234 1884.53 637.381 1855.79 621.026 1827.6C609.946 1808.49 601.354 1787.94 594.075 1767.11C586.6 1745.73 582.339 1723.49 575.013 1702.1C573.539 1697.8 567.481 1698.62 567.182 1703.16H567.17Z" fill="black"/>
<path d="M1153.1 1697.24C1139.44 1710.43 1132.21 1730.58 1126.39 1748.28C1119.96 1767.87 1116.02 1788.59 1115.65 1809.25C1114.99 1845.97 1128.58 1883.58 1158.65 1905.97C1182.94 1924.06 1215.54 1930.06 1244.75 1922.16C1280.46 1912.49 1302.96 1884.21 1313.85 1849.98C1321.51 1825.91 1324.06 1800.5 1326.73 1775.5C1329.92 1745.63 1333.31 1716.23 1333.12 1686.17C1333.1 1682.2 1327.23 1681.34 1326.18 1685.22C1314.73 1727.69 1311.8 1771.48 1302.69 1814.42C1295.9 1846.43 1283.6 1880.79 1252.61 1896.46C1229.92 1907.93 1201.52 1906.5 1179.51 1894.16C1151.73 1878.59 1139.02 1848.76 1136.96 1818C1135.62 1798.05 1137.67 1778.28 1142.62 1758.92C1147.57 1739.53 1157.36 1721.84 1162.44 1702.66C1163.88 1697.22 1157.11 1693.35 1153.11 1697.22L1153.1 1697.24Z" fill="black"/>
<path d="M775.108 1720.11C821.593 1796.75 900.66 1857.27 994.241 1850.37C1078.18 1844.18 1144.46 1784.47 1165.29 1703.95C1167.78 1694.32 1153.82 1690.72 1150.56 1699.89C1125.47 1770.59 1067.91 1827.14 990.417 1832.07C904.772 1837.51 831.002 1782.55 786.141 1713.66C781.684 1706.82 770.823 1713.03 775.119 1720.1L775.108 1720.11Z" fill="black"/>
<path d="M500.173 1046.36C494.023 1095.92 490.66 1145.26 491.788 1195.23C492.341 1219.57 493.389 1243.92 495.774 1268.17C498.054 1291.44 499.943 1313.66 510.136 1334.98C511.967 1338.8 518.774 1338.03 519.511 1333.76C523.508 1310.7 520.202 1288.51 518.336 1265.37C516.367 1241.07 514.363 1216.78 513.269 1192.43C511.08 1143.86 510.021 1094.98 511.345 1046.37C511.541 1039 501.037 1039.45 500.173 1046.37V1046.36Z" fill="black"/>
<path d="M522.332 1331.36C505.056 1331.13 489.024 1337.72 477.022 1350.22C464.952 1362.8 459.55 1380.29 458.802 1397.46C457.097 1436.69 483.253 1470.73 514.857 1491.08C523.242 1496.48 532.836 1501.35 542.43 1504.19C545.759 1505.18 548.374 1505.12 551.714 1505.08C549.214 1505.11 554.743 1505.47 555.756 1505.6C560.398 1506.17 565.028 1506.45 569.704 1506.39C576.557 1506.3 578.169 1496.09 571.34 1494.3C567.09 1493.18 563.047 1491.7 558.947 1490.17C557.138 1488.9 556.712 1488.99 557.668 1490.44C557.15 1489.77 556.632 1489.09 556.113 1488.42C553.637 1486.59 551.437 1485.44 548.627 1484.21C540.127 1480.46 532.007 1475.73 524.359 1470.47C508.304 1459.45 494.633 1444.07 486.824 1426.13C473.648 1395.89 484.14 1349.71 522.344 1346.4C531.846 1345.57 532.18 1331.49 522.344 1331.36H522.332Z" fill="black"/>
<path d="M478.346 1165.2C437.505 1162.57 401.916 1189.64 386.298 1226.46C369.218 1266.7 380.09 1313.48 414.251 1341.23C423.891 1349.07 434.476 1355.42 446.282 1359.37C455.703 1362.53 471.62 1365.57 480.385 1359.43C482.274 1358.11 483.356 1354.91 481.191 1353.17C473.256 1346.76 460.644 1344.93 451.384 1340.51C440.511 1335.32 430.71 1328.71 422.417 1319.93C407.26 1303.91 399.267 1283.4 400.062 1261.36C401.582 1218.82 436.826 1184.08 478.335 1178.63C486.731 1177.53 487.203 1165.75 478.335 1165.18L478.346 1165.2Z" fill="black"/>
<path d="M564.717 1242.81C573.793 1265.69 593.43 1283.64 615.302 1294.32C626.946 1300.01 639.57 1304.07 652.228 1306.76C665.277 1309.52 677.716 1310.05 690.961 1308.63C698.701 1307.8 699.046 1296.62 690.961 1296.32C679.962 1295.91 668.801 1294.17 657.986 1292.12C646.215 1289.88 634.663 1286.43 623.664 1281.66C602.806 1272.59 583.237 1260.37 572.63 1239.47C570.441 1235.18 562.886 1238.21 564.717 1242.81Z" fill="black"/>
<path d="M1220.39 1310.4C1241.94 1322.25 1266.22 1323.49 1289.85 1317.51C1301.02 1314.69 1312.13 1310.56 1322.15 1304.83C1331.65 1299.4 1342.77 1293.14 1349.45 1284.27C1351.63 1281.38 1348.03 1277.2 1344.82 1278.25C1335.17 1281.37 1326.43 1287.9 1317.18 1292.12C1307.75 1296.41 1298.12 1300.41 1288.1 1303.13C1267.17 1308.78 1244.08 1309.42 1222.94 1304.36C1219.4 1303.51 1217.01 1308.54 1220.4 1310.41L1220.39 1310.4Z" fill="black"/>
<path d="M528.505 1067.8C527.146 1070.2 525.108 1072.33 523.242 1073.66C521.411 1074.95 520.593 1075.7 519.211 1076.57C518.554 1076.99 517.875 1077.38 517.184 1077.75C516.965 1077.86 515.007 1078.73 516.159 1078.27C514.696 1078.85 513.187 1079.19 511.667 1079.58C509.524 1080.13 512.899 1079.63 510.722 1079.73C509.951 1079.76 509.179 1079.82 508.407 1079.81C507.636 1079.81 506.852 1079.76 506.092 1079.67C507.889 1079.88 505.689 1079.53 505.297 1079.44C505.021 1079.37 502.545 1078.59 503.397 1078.92C504.238 1079.25 501.911 1078.15 501.646 1078C493.78 1073.54 485.384 1082.37 489.53 1090.12C495.646 1101.57 502.533 1112.28 510.215 1122.75C513.947 1127.84 517.564 1133.81 522.447 1137.84C525.684 1140.51 529.277 1142.68 533.665 1142.43C537.846 1142.19 541.451 1140.33 543.478 1136.58C545.068 1133.63 544.607 1130.18 542.338 1127.74C540.311 1125.56 538.042 1123.35 536.337 1120.89C534.529 1118.27 533.135 1115.17 531.73 1112.32C529.001 1106.79 526.282 1101.2 524.025 1095.45C519.499 1098.09 514.961 1100.73 510.434 1103.37C513.498 1106.36 516.343 1109.49 518.761 1112.97C521.618 1117.09 524.037 1121.15 527.549 1124.78C533.055 1130.47 541.186 1124.43 539.931 1117.57C538.076 1107.36 529.484 1098.52 521.929 1091.86C514.765 1085.55 505.378 1093.36 509.156 1101.72C511.989 1108 515.145 1114.04 519.13 1119.68C521.123 1122.5 523.403 1125.13 525.361 1127.96C527.296 1130.76 528.955 1133.75 530.878 1136.58C532.974 1132.92 535.07 1129.26 537.167 1125.61C538.053 1125.67 539.769 1127 538.445 1125.81C537.742 1125.17 537.028 1124.58 536.349 1123.93C535.566 1123.02 535.508 1122.96 536.176 1123.74C535.957 1123.42 535.727 1123.11 535.508 1122.79C534.345 1121.13 532.986 1119.58 531.719 1118C528.667 1114.17 526.294 1111.08 523.288 1106.99C517.022 1098.48 510.849 1089.85 504.814 1081.18L492.697 1093.3C502.407 1097.5 512.646 1097.2 522.09 1092.33C530.866 1087.82 536.211 1079.88 536.383 1069.94C536.452 1065.77 530.567 1064.18 528.528 1067.81L528.505 1067.8Z" fill="black"/>
<path d="M603.058 869.866C604.544 869.716 606.041 869.566 607.527 869.405C605.431 868.541 603.335 867.666 601.238 866.802C608.114 873.241 615.935 870.165 623.905 867.712C633.499 864.752 643.462 862.356 653.332 860.513C671.945 857.045 691.271 858.301 709.699 862.068C730.028 866.226 748.951 872.723 767.725 881.465C777.941 886.223 788.053 891.176 798.235 896.002C803.153 898.341 808.22 901.704 813.657 902.43C821.373 903.467 818.298 901.981 826.464 903.916C834.469 905.817 843.522 896.578 838.051 888.849C834.883 884.391 832.914 878.92 829.666 874.727C826.383 870.476 821.143 867.332 816.881 864.083C807.967 857.299 798.373 851.194 788.422 846.033C768.001 835.413 745.058 826.854 722.345 822.903C683.531 816.142 630.689 819.632 601.803 849.892C598.808 853.037 597.334 857.656 598.624 861.918C598.728 862.24 598.82 862.563 598.923 862.885L599.822 856.032C598.82 857.955 597.829 859.891 596.85 861.826C594.512 866.422 598.347 870.511 603.024 869.866H603.058Z" fill="black"/>
<path d="M1133.84 924.097C1150.6 918.96 1166.76 913.074 1183.28 907.268C1199.77 901.474 1216.63 895.933 1233.89 892.915C1247.74 890.485 1263.11 890.185 1276.89 892.432C1285.8 893.871 1294.25 895.104 1302.72 898.479C1306.72 900.08 1310.57 902.004 1314.61 903.524C1319.47 905.356 1325.3 904.711 1329.18 905.874C1339.69 909.03 1349.52 896.521 1343.6 887.121C1342.31 885.371 1341.3 883.47 1340.55 881.419C1341.26 884.069 1341.99 886.73 1342.7 889.379C1341.08 875.983 1332.61 868.898 1321.37 862.436C1312.84 857.541 1302.85 852.519 1293.44 849.696C1272.84 843.511 1250.6 844.893 1229.75 848.706C1209.76 852.357 1190.28 859.315 1172.11 868.346C1153.26 877.71 1137.21 888.792 1121.2 902.372C1111.17 910.885 1121.88 927.76 1133.84 924.097Z" fill="black"/>
<path d="M342.37 691.933C271.917 785.398 203.134 890.358 193.321 1010.25C189.048 1062.46 197.076 1119.5 229.36 1162.35C258.073 1200.45 304.189 1224.43 352.16 1217.39C355.696 1216.87 354.889 1210.87 351.307 1211.13C297.774 1214.8 249.838 1183.8 223.992 1138.02C196.765 1089.77 194.266 1030.58 202.904 976.98C220.019 870.845 283.849 779.12 344.523 693.2C345.468 691.864 343.314 690.666 342.358 691.933H342.37Z" fill="#070707"/>
<path d="M471.919 1346.86C457.499 1387.87 428.509 1425.6 389.879 1446.33C370.564 1456.7 343.878 1465.12 323.331 1453.29C315.372 1448.7 309.429 1441.25 306.607 1432.51C303.429 1422.71 305.525 1415.66 309.948 1406.81C311.525 1403.65 308.07 1399.09 304.649 1401.51C291.393 1410.84 291.416 1430.93 297.059 1444.46C304.626 1462.65 320.613 1472.89 339.905 1475.02C381.944 1479.68 426.747 1447.39 449.966 1414.53C464.087 1394.55 473.255 1372.36 476.549 1348.14C476.952 1345.15 472.978 1343.88 471.93 1346.88L471.919 1346.86Z" fill="black"/>
<path d="M469.847 1438.9C430.791 1478.55 370.808 1518.6 314.625 1486.8C300.873 1479.01 288.86 1466.88 286.303 1450.7C283.988 1436.07 287.939 1420.16 294.17 1406.92C306.102 1381.57 328.481 1362.66 354.522 1352.99C359.037 1351.32 357.309 1344.75 352.518 1345.74C305.1 1355.54 262.186 1408.11 272.54 1457.92C278.034 1484.32 304.133 1502.09 328.63 1508.96C354.176 1516.12 381.554 1512.7 405.614 1502.11C434.557 1489.37 456.279 1467.51 472.162 1440.69C473.014 1439.25 471.022 1437.68 469.836 1438.89L469.847 1438.9Z" fill="black"/>
<path d="M351.883 1346.86C353.979 1352.8 356.076 1358.53 359.473 1363.86C360.544 1361.23 361.604 1358.6 362.675 1355.99C351.676 1358.97 341.322 1367.63 333.789 1375.9C325.393 1385.12 319.162 1395.96 314.325 1407.4C308.059 1422.22 291.416 1464.25 319.081 1467.39C320.556 1467.56 321.074 1465.28 319.83 1464.62C308.554 1458.75 312.643 1442.79 315.453 1433.22C318.252 1423.67 321.857 1414.35 326.556 1405.57C330.99 1397.27 336.369 1389.37 342.854 1382.54C349.983 1375.04 358.034 1370.86 366.798 1365.78C370.38 1363.71 370.15 1358.65 366.798 1356.53C362.053 1353.51 357.769 1350.33 354.371 1345.82C353.519 1344.69 351.307 1345.28 351.872 1346.88L351.883 1346.86Z" fill="black"/>
<path d="M1455.99 1196.38C1426.85 1274.09 1457.05 1366.37 1520.85 1417.95C1559.36 1449.08 1615.61 1457.01 1647.31 1496.38C1665.54 1519.03 1666.5 1546.7 1650.13 1570.84C1633.52 1595.35 1608.78 1607.25 1584.64 1622.66C1583.48 1623.4 1584.2 1625.39 1585.61 1624.96C1625.89 1612.49 1674.86 1586.95 1679.02 1539.69C1683.46 1489.19 1635.88 1458.36 1596.24 1439.75C1547.73 1417 1507.9 1390.61 1482.35 1341.83C1459.41 1298.02 1452.58 1246.49 1461.91 1198.03C1462.67 1194.11 1457.36 1192.68 1455.98 1196.39L1455.99 1196.38Z" fill="black"/>
<path d="M1435.97 1145.03C1420.49 1172.88 1411.27 1207.14 1405.04 1238.3C1399.73 1264.8 1397.59 1292.08 1401.17 1318.97C1408.53 1374.34 1442.61 1415.96 1488.95 1444.8C1536 1474.08 1590.07 1489.48 1637.27 1518.46C1654.13 1528.82 1717.27 1570.56 1686.34 1593.32C1659.18 1613.31 1622.47 1625.65 1588.83 1625.93C1590.59 1627.27 1592.34 1628.61 1594.09 1629.93C1593.46 1625.74 1592.84 1621.55 1592.21 1617.34C1591.09 1609.84 1578.66 1612.83 1580.55 1620.55L1583.56 1632.83C1584.32 1635.94 1587.42 1637.05 1590.26 1636.65C1622.49 1631.98 1652.56 1625.31 1682.03 1610.95C1702.24 1601.11 1718.07 1588.37 1707.83 1564.28C1697.88 1540.87 1673.18 1522.83 1652.55 1509.27C1627.53 1492.82 1600.01 1480.7 1572.69 1468.7C1518.93 1445.1 1458.27 1418.71 1430.74 1363.13C1415.21 1331.76 1411.97 1295.14 1415.31 1260.7C1419.11 1221.52 1435.05 1185.54 1440.75 1147.05C1441.16 1144.32 1437.53 1142.21 1435.96 1145.03H1435.97Z" fill="#070707"/>
<path d="M1663.96 1561.47C1667.92 1564.79 1671.7 1568.32 1675.27 1572.05C1678.8 1575.75 1681.79 1580.23 1686.29 1582.82C1687.31 1583.41 1688.64 1582.43 1688.3 1581.28C1687.54 1578.68 1686.09 1576.35 1684.31 1574.36C1682.57 1572.42 1680.77 1570.52 1678.92 1568.67C1675.21 1564.98 1671.29 1561.5 1667.19 1558.25C1666.22 1557.49 1664.91 1557.3 1663.96 1558.25C1663.16 1559.06 1663.02 1560.68 1663.96 1561.47Z" fill="black"/>
<path d="M1661.45 1573.7C1663.25 1576.09 1665.05 1578.49 1666.85 1580.9C1667.28 1581.46 1667.7 1582.02 1668.12 1582.59C1668.67 1583.31 1669.31 1583.88 1669.98 1584.49C1670.53 1585 1671.09 1585.5 1671.65 1586C1672.28 1586.57 1672.87 1587.21 1673.65 1587.56C1674.88 1588.14 1676.36 1587.2 1676 1585.77C1675.64 1584.33 1674.55 1582.98 1673.77 1581.72C1673.3 1580.98 1672.88 1580.19 1672.3 1579.52C1671.82 1578.96 1671.29 1578.42 1670.78 1577.87C1668.74 1575.65 1666.7 1573.43 1664.68 1571.22C1664 1570.47 1662.74 1570.45 1661.98 1571.06C1661.26 1571.63 1660.83 1572.88 1661.45 1573.71V1573.7Z" fill="black"/>
<path d="M1748.17 811.787C1753 853.336 1757.96 895.277 1761.37 936.964C1764.74 978.19 1765.84 1019.98 1758.9 1060.93C1753.35 1093.69 1743.85 1126.06 1728.45 1155.57C1712.04 1187.02 1688.89 1211.47 1665.68 1237.77C1660.73 1243.38 1666.85 1250.79 1673.42 1247.79C1736.58 1218.96 1769.67 1136.61 1780.03 1072.48C1786.69 1031.18 1786.52 988.983 1782.08 947.446C1777.05 900.506 1765.55 856.458 1753.33 811.085C1752.59 808.332 1747.82 808.77 1748.18 811.787H1748.17Z" fill="black"/>
<path d="M1779.74 1342.8C1872.48 1316.19 1900 1211.6 1919.92 1129.36C1914.74 1128.66 1909.55 1127.96 1904.36 1127.26C1895.56 1224.27 1928.29 1320.29 1996.95 1389.82C1999.04 1384.75 2001.14 1379.69 2003.24 1374.63C1932.97 1373.7 1866.56 1413.88 1835.17 1476.84C1840.33 1479.02 1845.48 1481.2 1850.64 1483.36C1860.61 1421.35 1836.29 1359.97 1785.95 1322.26C1776.13 1314.91 1766.36 1331.58 1776.28 1338.8C1819.74 1370.38 1843.06 1425.74 1834.32 1478.87C1832.89 1487.59 1845.12 1494.66 1849.79 1485.39C1878.77 1427.77 1938.69 1391.28 2003.24 1392.42C2011.06 1392.56 2014.83 1382.65 2009.53 1377.23C1945.41 1311.69 1911.13 1218.79 1920.19 1127.24C1921.08 1118.28 1906.78 1116.61 1904.63 1125.14C1884.2 1206.53 1856.85 1293.53 1775.25 1332.16C1769.23 1335 1773.5 1344.57 1779.73 1342.78L1779.74 1342.8Z" fill="black"/>
<path d="M1808.91 791.238C1840.77 779.085 1862.83 745.853 1869.3 713.116H1852.62C1864.93 745.68 1880.05 782.253 1913.68 797.815V784.372C1883.05 797.803 1857.06 819.574 1838.14 847.116C1842.75 848.36 1847.36 849.616 1851.97 850.86C1849.36 825.967 1840.92 798.656 1820.62 782.334C1814.48 777.403 1803.73 783.704 1808.8 791.457C1821.5 810.843 1833.73 829.365 1837.41 852.829C1838.49 859.729 1847.73 859.246 1850.95 854.603C1868.03 830.01 1892.01 810.186 1919.68 798.598C1925.15 796.306 1928.27 787.621 1921.53 784.361C1892.09 770.123 1879.68 737.433 1869.3 708.509C1866.66 701.148 1854.47 699.466 1852.62 708.509C1849.54 723.691 1844.21 737.859 1835.78 750.91C1827.55 763.638 1816.39 774.881 1805.48 785.329C1803.05 787.655 1805.54 792.528 1808.91 791.238Z" fill="black"/>
<path d="M415.634 1631.85C430.031 1610.72 437.679 1586.85 440.316 1561.49C435.237 1562.18 430.158 1562.86 425.078 1563.55C436.631 1592.7 459.942 1615.19 489.899 1624.82C489.254 1619.89 488.609 1614.95 487.964 1610.01C479.856 1614.66 472.842 1621.9 467.463 1629.47C461.981 1637.19 459.205 1645.93 456.487 1654.88C460.322 1653.87 464.146 1652.85 467.981 1651.85C461.462 1645.77 453.227 1641.61 445.061 1638.14C436.895 1634.67 427.958 1630.4 418.94 1632.96C414.413 1634.25 412.605 1640.28 416.118 1643.63C422.326 1649.55 430.952 1650.9 438.704 1653.86C446.34 1656.77 453.596 1660.66 461.29 1663.35C465.793 1664.91 469.697 1660.87 469.997 1656.71C471.033 1641.86 483.783 1630.25 496.142 1624.01C502.764 1620.67 500.369 1611.29 494.207 1609.21C470.504 1601.19 449.784 1582.6 440.051 1559.44C436.723 1551.52 425.505 1552.31 424.814 1561.5C423.12 1583.98 416.544 1606.4 406.996 1626.8C404.266 1632.63 411.994 1637.25 415.657 1631.87L415.634 1631.85Z" fill="black"/>
<path d="M72.1803 720.051C80.7148 708.071 88.2704 696.748 94.1328 683.179C99.6267 670.496 103.577 657.169 106.399 643.646C112.146 616.15 112.803 588.309 108.322 560.606C102.679 562.161 97.0352 563.716 91.3916 565.271C102.276 620.228 133.949 679.239 194.266 689.456V673.652C154.588 690.251 131.311 735.002 138.418 776.931C142.172 775.894 145.927 774.858 149.682 773.821C140.917 736.511 103.773 711.181 65.719 716.941C55.7909 718.45 58.0368 735.947 68.1146 734.634C98.1063 730.729 128.835 747.166 138.418 776.931C140.79 784.292 150.695 781.101 149.682 773.821C144.476 736.327 166.855 702.968 200.578 688.627C206.878 685.943 205.3 674.735 198.62 673.652C142.783 664.541 116.811 611.197 108.322 560.606C106.445 549.409 89.7561 554.27 91.3916 565.271C99.0047 616.254 88.8693 670.116 64.4866 715.558C61.7339 720.684 68.8863 724.647 72.1688 720.051H72.1803Z" fill="black"/>
<path d="M875.53 1597.8C858.162 1622.57 844.813 1649.17 833.042 1676.99C822.02 1703.03 807.899 1732.76 810.871 1761.66C811.101 1763.86 813.589 1764.52 814.902 1762.76C831.798 1740.03 838.029 1709.93 848.314 1683.85C859.141 1656.39 871.833 1629.62 883.788 1602.63C886.264 1597.03 879.112 1592.68 875.519 1597.79L875.53 1597.8Z" fill="black"/>
<path d="M854.003 1601.61C837.648 1621.53 823.919 1642.44 812.413 1665.52C806.838 1676.71 802.07 1688.34 797.693 1700.04C793.708 1710.7 787.016 1723.85 789.792 1735.34C790.218 1737.11 792.545 1737.63 793.789 1736.4C801.678 1728.6 803.694 1715.31 807.437 1705.13C811.837 1693.16 816.904 1681.48 822.168 1669.88C832.396 1647.37 844.27 1625.14 857.216 1604.09C858.414 1602.16 855.5 1599.77 853.991 1601.61H854.003Z" fill="black"/>
<path d="M1062.15 1597.79C1058.13 1603.37 1061.4 1610.06 1063.27 1616.09C1065.87 1624.53 1068.75 1632.89 1071.48 1641.3C1076.59 1657 1081.8 1672.65 1087.14 1688.26C1092.5 1703.88 1097.84 1719.5 1103.2 1735.12C1107.9 1748.83 1111.57 1769.43 1123.35 1778.82C1125.13 1780.24 1128.06 1779.97 1128.69 1777.42C1132.28 1762.64 1122.88 1744.87 1118.09 1731.02C1112.5 1714.85 1106.93 1698.69 1101.34 1682.52C1095.76 1666.33 1089.99 1650.23 1084.16 1634.14C1081.35 1626.37 1078.75 1618.49 1075.72 1610.82C1073.4 1604.95 1071.94 1598.35 1065.37 1596.48C1064.06 1596.11 1062.9 1596.76 1062.16 1597.79H1062.15Z" fill="black"/>
<path d="M1112 1668.28C1118.18 1682.01 1123.84 1695.93 1129.39 1709.92C1132.11 1716.76 1135.16 1723.46 1137.91 1730.3C1140.73 1737.3 1143.31 1744.39 1148.83 1749.77C1151.42 1752.3 1155.42 1750.34 1155.64 1746.95C1156.14 1739.19 1153.03 1732.16 1150.08 1725.16C1147.12 1718.15 1144.22 1711.07 1140.8 1704.29C1133.94 1690.72 1126.36 1677.49 1118.5 1664.48C1115.95 1660.25 1110.06 1663.94 1112.01 1668.28H1112Z" fill="black"/>
<path d="M704.61 1902.2C697.285 1907.63 689.66 1913.02 682.899 1919.14C676.012 1925.37 669.654 1932.37 663.365 1939.19C656.985 1946.11 650.754 1953.14 645.018 1960.61C642.265 1964.19 639.409 1967.76 637.025 1971.61C635.792 1973.6 634.445 1975.65 633.385 1977.75C632.256 1980 632.061 1982.51 631.324 1984.9C629.918 1989.48 635.666 1994.46 639.858 1991.46C641.828 1990.06 644.189 1989.11 645.985 1987.47C647.54 1986.05 648.899 1984.31 650.339 1982.78C653.276 1979.66 655.879 1976.22 658.632 1972.92C664.46 1965.92 670.092 1958.76 676.023 1951.85C681.793 1945.11 687.817 1938.62 693.852 1932.11C700.049 1925.44 705.6 1918.12 711.658 1911.33C715.77 1906.71 710.219 1898.05 704.61 1902.19V1902.2Z" fill="black"/>
<path d="M1218.27 1921.56C1222.6 1934.1 1230.9 1944.49 1238.49 1955.25C1246.3 1966.32 1254.17 1977.26 1262.5 1987.94C1266.95 1993.65 1272.56 2001.62 1280.87 1999.7C1284.97 1998.74 1287.73 1994.49 1287.73 1990.38C1287.73 1986.27 1285.04 1981.89 1282.78 1978.59C1275.15 1967.41 1266.61 1956.91 1258.15 1946.37C1253.71 1940.83 1249.26 1935.29 1244.83 1929.75C1239.92 1923.63 1234.74 1918.34 1228.34 1913.84C1223.52 1910.45 1216.4 1916.1 1218.29 1921.57L1218.27 1921.56Z" fill="black"/>
<path d="M1124.02 1089.65C1156.59 1033.84 1233.95 1004.33 1294.97 1028.75C1325.4 1040.92 1349.37 1066.44 1363.87 1095.36C1371.07 1109.71 1375.48 1125.67 1377.71 1141.55C1379.99 1157.86 1375.94 1177.66 1383.14 1192.6C1387.32 1201.28 1398.37 1200.44 1404.62 1195.37C1419.78 1183.1 1419.85 1153.68 1418.39 1136.05C1416.58 1114.25 1410.18 1093.48 1400.69 1073.83C1381.98 1035.11 1348.96 1004.29 1308.78 988.914C1229.79 958.665 1135.05 999.189 1100.4 1075.84C1093.29 1091.55 1114.96 1105.17 1124.02 1089.65Z" fill="black"/>
<g style="mix-blend-mode:multiply" opacity="0.2">
<path d="M537.777 1109.3C531.085 1138.75 535.876 1170.65 550.918 1196.84C554.938 1153.45 574.541 1111.5 605.949 1081.3C637.358 1051.09 680.422 1033.07 723.993 1032.89C733.414 1032.86 742.824 1033.62 752.222 1034.38C776.973 1036.4 803.487 1039.1 822.433 1055.16C803.279 1025.88 773.414 1003.76 739.829 993.982C706.233 984.191 669.181 986.818 637.289 1001.23C604.947 1015.85 578.745 1041.75 558.485 1070.89C544.757 1090.63 533.227 1112.79 531.154 1136.74" fill="black"/>
</g>
<g style="mix-blend-mode:multiply" opacity="0.2">
<path d="M1110.56 1118.33C1130.92 1089.36 1168.49 1077.9 1203.79 1075.19C1213.72 1074.43 1223.74 1074.21 1233.62 1075.42C1267.21 1079.55 1297.14 1100.24 1318.4 1126.58C1339.65 1152.91 1353.17 1184.59 1364.35 1216.53C1389.86 1185.19 1391.46 1140.38 1383.1 1100.84C1378.51 1079.18 1370.9 1057.37 1355.78 1041.19C1347.6 1032.43 1337.52 1025.66 1327.04 1019.85C1280.51 994.075 1219.89 987.693 1175.17 1016.49C1157.09 1028.14 1139.56 1045.77 1127.87 1063.88C1123.43 1070.73 1121.73 1076.17 1119.31 1083.9C1116.56 1092.68 1115.51 1111.29 1110.56 1118.33Z" fill="black"/>
</g>
</g>
</g>
<defs>
<clipPath id="clip0_157_133">
<rect width="2000" height="2000" fill="white"/>
</clipPath>
<clipPath id="clip1_157_133">
<rect width="2023" height="2001" fill="white" transform="translate(-11 -1)"/>
</clipPath>
</defs>
</svg>
