<svg width="2000" height="2000" viewBox="0 0 2000 2000" fill="none" xmlns="http://www.w3.org/2000/svg">
<g clip-path="url(#clip0_157_135)">
<path d="M177.96 1082.83C204.138 1072.27 231.319 1064.47 259.172 1059.79C287.835 1054.97 316.595 1054.15 345.535 1052.32C347.988 1052.16 348.926 1048.09 346.154 1047.72C289.275 1039.99 228.259 1056.59 176.808 1080.09C175.283 1080.79 176.382 1083.46 177.96 1082.83Z" fill="#191919"/>
<path d="M322.692 1083.46C326.584 1079.96 330.914 1076.97 335.574 1074.56C340.276 1072.13 345.299 1070.74 350.193 1068.81C351.547 1068.28 351.537 1065.96 349.82 1066.05C344.232 1066.37 338.826 1068.64 333.857 1071.15C328.813 1073.7 324.132 1076.93 319.909 1080.69C318.022 1082.38 320.815 1085.16 322.692 1083.47V1083.46Z" fill="#191919"/>
<path d="M849.551 1096.66C909.043 1063.31 976.403 1043.04 1042.6 1027.93C1077.97 1019.86 1113.65 1013.32 1149.68 1009C1166.32 1007.01 1182.92 1004.76 1199.61 1003.2C1212.41 1002.01 1222.37 999.739 1229.86 1014.06C1234.35 1022.64 1235.91 1034.6 1237.99 1044.01C1245.62 1078.54 1246.44 1115.91 1233.16 1149.19C1219.83 1182.56 1193.46 1208.51 1163.24 1227.04C1107.36 1261.31 1032.77 1276.38 968.949 1258.22C898.283 1238.12 840.839 1174.43 857.026 1097.77C858.359 1091.44 848.688 1088.72 847.28 1095.09C831.914 1164.6 872.062 1226.5 934.496 1255.67C998.914 1285.77 1075.33 1277.11 1138.85 1249.02C1171.64 1234.51 1202.54 1213.34 1223.94 1184.19C1246.27 1153.79 1254.56 1116.66 1252.19 1079.38C1250.99 1060.29 1247.43 1041.29 1242.79 1022.77C1238.89 1007.28 1234.23 994.098 1216.65 991.336C1198.37 988.468 1177.27 991.614 1158.93 993.341C1138.63 995.25 1118.31 998.374 1098.21 1001.76C1011.19 1016.47 920.015 1040.81 847.365 1092.94C845.158 1094.53 847.077 1098.04 849.541 1096.66H849.551Z" fill="#191919"/>
<path d="M851.972 1090.82C856.867 1110.42 872.084 1125.9 888.484 1136.91C887.716 1133.96 886.938 1131.02 886.17 1128.08C874.398 1144.89 867.552 1165.38 862.892 1185.23C861.058 1193.06 872.094 1195.91 874.803 1188.51C881.627 1169.88 885.722 1151.16 897.313 1134.6C899.361 1131.67 897.75 1127.51 894.999 1125.77C879.793 1116.12 869.194 1102.25 858.466 1088.1C856.152 1085.04 850.927 1086.66 851.972 1090.84V1090.82Z" fill="#191919"/>
<path d="M1230.51 1008.02C1229.34 1013.22 1227.9 1018.53 1225.61 1023.36C1223.34 1028.14 1220.17 1032.61 1217.37 1037.1C1211.68 1046.21 1205.38 1054.25 1197.12 1061.19C1194.69 1063.21 1195.01 1067.39 1197.12 1069.47C1203.77 1076.05 1210.47 1082.59 1217.14 1089.15C1223.43 1095.32 1229.65 1103.2 1237.9 1106.66C1242.81 1108.7 1246 1102.34 1244.15 1098.53C1240.46 1090.93 1231.65 1085.02 1225.52 1079.45C1218.83 1073.37 1212.14 1067.26 1205.41 1061.2V1069.48C1213.79 1061.69 1221.63 1052.1 1226.25 1041.55C1230.68 1031.41 1232.41 1019.37 1232.91 1008.35C1232.98 1006.99 1230.82 1006.69 1230.52 1008.03L1230.51 1008.02Z" fill="#191919"/>
<path d="M668.125 1111.24C685.325 1104.6 695.455 1085.61 707.537 1072.57C720.12 1058.98 734.835 1047.72 750.926 1038.57C768.51 1028.56 787.288 1023.35 807.133 1019.96C826.082 1016.72 850.288 1017.98 866.869 1007.23C871.049 1004.53 873.438 998.438 870.356 993.917C856.632 973.817 826.423 971.045 804.147 972.591C778.203 974.382 752.131 983.329 729.418 995.719C709.669 1006.49 692.224 1021.31 678.031 1038.74C665.139 1054.59 645.134 1080.87 653.153 1102.74C655.243 1108.44 661.577 1113.77 668.114 1111.24H668.125Z" fill="#191919"/>
<path d="M652.492 1071.34C669.874 1045.26 693.76 1024.5 721.357 1009.86C734.846 1002.7 748.985 997.308 763.903 993.97C771.496 992.264 779.024 990.238 786.68 988.788C793.857 987.434 802.409 987.54 809.159 984.96C812.699 983.606 814.075 978.509 810.279 976.408C803.657 972.751 794.188 972.346 786.723 971.866C778.054 971.301 769.15 971.557 760.63 973.241C743.632 976.6 726.923 982.763 711.642 990.899C681.166 1007.12 656.033 1033.73 642.159 1065.3C639.11 1072.26 648.142 1077.9 652.503 1071.35L652.492 1071.34Z" fill="#191919"/>
<path d="M1171.93 942.511C1181.57 938.448 1190.26 932.659 1199.73 928.127C1208.28 924.022 1217.43 921.249 1226.47 918.434C1246.22 912.282 1266.15 910.778 1286.69 912.74C1304.87 914.478 1322.94 920.46 1338.9 929.278C1355.6 938.512 1371.98 955.893 1391.85 955.818C1398.67 955.797 1403.04 950.412 1403.64 944.025C1406.01 919.159 1376.86 900.158 1357.64 890.082C1335.47 878.459 1311.6 871.56 1286.7 869.321C1262.5 867.146 1236.69 871.795 1214.09 880.453C1192.02 888.909 1166.73 904.413 1154.78 925.355C1148 937.233 1161.07 947.096 1171.94 942.511H1171.93Z" fill="#191919"/>
<path d="M1170.7 923.766C1197.68 892.865 1241.77 887.203 1280.55 890.86C1299.46 892.641 1318.95 895.253 1337.12 900.937C1344.93 903.378 1352.13 906.844 1359.27 910.821C1365.58 914.34 1373.64 919.277 1377.93 925.205C1383.71 933.181 1395.39 928.393 1393.66 918.573C1391.86 908.315 1389.18 901.63 1382.68 893.323C1375.81 884.548 1365.87 879.216 1355.75 875.026C1333.57 865.845 1308.53 861.9 1284.7 860.418C1235.97 857.389 1185.65 870.729 1158.05 914.041C1153.21 921.644 1164.62 930.739 1170.69 923.787L1170.7 923.766Z" fill="#191919"/>
<path d="M589.161 1543.97C586.676 1531.68 579.127 1521.07 577.292 1508.56C575.853 1498.7 578.028 1489.54 584.565 1481.89C596.924 1467.43 616.704 1460.96 634.587 1456.61C654.879 1451.67 677.742 1449.05 698.109 1455.01C704.699 1456.93 712.291 1460.34 716.247 1465.96C719.041 1469.93 718.977 1473.16 716.93 1476.82C713.027 1483.77 704.251 1487.92 696.819 1490.41C690.485 1492.53 683.959 1493.66 677.411 1494.91C671.29 1496.07 662.6 1496.39 659.113 1502.33C658.505 1503.37 658.409 1504.89 659.113 1505.93C663.389 1512.16 672.837 1511.41 679.565 1510.84C686.87 1510.23 694.217 1508.52 701.148 1506.11C710.862 1502.74 720.662 1497.79 727.305 1489.71C739.931 1474.34 733.063 1455.97 717.175 1446.4C695.678 1433.44 667.612 1434.44 643.736 1438.12C620.149 1441.76 594.301 1449.13 576.61 1466.01C565.947 1476.19 559.005 1490.12 560.38 1505.13C561.788 1520.48 569.466 1538.65 581.814 1548.25C585.237 1550.91 590.089 1548.54 589.161 1543.97Z" fill="#191919"/>
<path d="M787.341 1463.03C772.551 1472.9 754.221 1493.16 738.215 1473.78C733.417 1467.97 729.556 1459.34 728.959 1451.76C728.437 1445.08 732.681 1438.24 735.411 1432.44C738.983 1424.85 742.726 1417.34 746.639 1409.93C750.339 1402.92 754.178 1396 758.188 1389.17C761.824 1382.96 765.609 1375.99 771.709 1371.83C782.447 1364.52 796.395 1370.44 805.576 1377.57C822.979 1391.09 830.774 1415.3 833.45 1436.35C836.692 1461.86 835.817 1491.03 821.614 1513.38C821.166 1514.08 822.264 1514.97 822.787 1514.29C839.358 1492.87 847.216 1464.27 846.566 1437.36C845.862 1408.39 836.969 1378.8 812.219 1361.52C799.21 1352.43 781.86 1347.7 766.868 1354.74C750.702 1362.33 742.139 1381.22 733.96 1396.04C729.237 1404.6 724.737 1413.29 720.482 1422.08C716.27 1430.79 710.746 1440.28 710.704 1450.23C710.65 1461.4 715.545 1473.79 721.964 1482.75C729.492 1493.25 740.988 1500.65 754.296 1499.89C771.325 1498.93 788.195 1486.14 795.659 1471.34C798.207 1466.29 792.748 1459.4 787.341 1463.02V1463.03Z" fill="#191919"/>
<path d="M573.7 1492.12C567.664 1480.6 554.09 1476.45 542.563 1472.51C529.991 1468.2 516.875 1464.83 504.91 1458.94C496.742 1454.91 488.499 1448.91 487.646 1440.74C487.102 1435.46 488.115 1433.31 492.935 1429.58C504.601 1420.55 526.162 1418.91 541.336 1418.13C563.591 1416.99 586.037 1418.3 608.196 1420.44C618.369 1421.42 628.531 1422.61 638.64 1424.08C646.019 1425.16 654.272 1426.35 661.214 1423.19C664.627 1421.64 664.627 1416.76 662.355 1414.38C657.45 1409.25 648.962 1407.74 642.159 1406.82C631.933 1405.41 621.685 1404.2 611.406 1403.24C587.018 1400.95 562.493 1399.77 538.02 1401.08C518.773 1402.11 495.494 1403.79 479.905 1416.55C464.773 1428.94 466.031 1451.13 479.254 1464.62C490.461 1476.05 507.267 1480.82 522.142 1485.34C537.348 1489.95 552.202 1496 567.472 1500.23C572.282 1501.57 575.896 1496.31 573.71 1492.13L573.7 1492.12Z" fill="#191919"/>
<path d="M574.765 1542.53C567.376 1555.3 570.425 1572.24 576.898 1584.79C583.296 1597.18 594.279 1605.92 607.139 1610.82C619.829 1615.64 634.427 1617.17 647.906 1616.44C655.999 1615.99 664.146 1615.01 672.09 1613.4C675.812 1612.64 679.427 1611.5 682.967 1610.12C687.094 1608.53 690.143 1606.21 693.801 1603.76C696.136 1602.19 695.208 1598.69 692.383 1598.52C685.441 1598.12 678.947 1597.68 671.941 1598.24C665.436 1598.75 658.985 1599.33 652.448 1599.34C640.697 1599.38 628.733 1598.77 617.398 1595.43C607.897 1592.64 600.294 1587.55 594.578 1579.34C591.187 1574.48 588.734 1569.18 587.7 1563.3C586.708 1557.63 587.657 1551.77 587.839 1546.07C588.063 1539.05 578.188 1536.63 574.765 1542.53Z" fill="#191919"/>
<path d="M687.99 1606.47C700.413 1657.51 720.279 1709.92 749.912 1753.55C773.926 1788.91 805.991 1817.89 850.82 1818.98C887.587 1819.86 923.075 1800.21 940.062 1767.29C961.293 1726.13 950.736 1678.85 930.87 1639.43C918.341 1614.57 901.652 1591.81 883.119 1571.1C868.009 1554.22 848.485 1532.55 826.667 1524.68C823.532 1523.55 820.024 1527.81 822.125 1530.59C833.034 1545.09 848.655 1556.97 861.377 1570.03C876.753 1585.82 890.797 1602.96 902.825 1621.45C925.645 1656.56 943.688 1700.33 931.467 1742.52C921.892 1775.59 893.527 1799.33 858.882 1801.34C818.809 1803.67 789.026 1779.18 767.016 1748.07C735.837 1704 719.095 1652.89 698.472 1603.59C695.859 1597.33 686.305 1599.47 688.011 1606.48L687.99 1606.47Z" fill="#191919"/>
<path d="M816.194 1379.75C824.661 1403.96 833.139 1427.06 833.064 1453.08C833.032 1465.65 831.528 1477.95 828.042 1490.04C825.162 1500.02 820.929 1514.05 811.78 1520.27C806.373 1523.95 808.805 1531.24 814.947 1531.96C830.995 1533.81 838.033 1517.54 842.714 1505.03C848.067 1490.72 850.883 1475.39 851.48 1460.13C852.621 1430.94 844.762 1396.52 823.072 1375.75C820.268 1373.07 814.776 1375.71 816.194 1379.76V1379.75Z" fill="#191919"/>
<path d="M646.904 1416.27C650.423 1407.18 645.262 1400.24 639.365 1393.42C632.305 1385.27 624.052 1378.23 616.097 1370.97C605.988 1361.74 575.182 1332.5 595.293 1319.76C605.05 1313.59 618.262 1318.42 627.688 1322.65C640.634 1328.45 653.323 1334.85 665.725 1341.74C684.716 1352.29 702.918 1364.12 720.694 1376.6C725.29 1379.82 751.661 1399.46 750.701 1381.97C750.307 1374.78 741.083 1369.98 735.922 1366.33C728.692 1361.22 721.462 1356.12 714.115 1351.2C693.556 1337.4 672.176 1324.85 649.911 1314.01C630.077 1304.35 603.386 1290.9 583.062 1307.26C559.155 1326.5 578.274 1356.24 594.194 1373.17C601.531 1380.98 610.275 1387.38 618.262 1394.5C622.815 1398.55 627.23 1402.75 631.186 1407.39C634.673 1411.48 637.957 1414.22 641.892 1417.61C643.705 1419.16 646.061 1418.45 646.893 1416.28L646.904 1416.27Z" fill="#191919"/>
<path d="M675.684 1606.36C682.626 1608.53 689.792 1607.67 696.851 1606.37C703.75 1605.1 710.554 1603.34 717.208 1601.11C723.723 1598.94 730.633 1596.51 736.327 1592.59C739.185 1590.62 742.298 1588.52 744.836 1586.13C745.967 1585.07 746.5 1583.78 747.278 1582.63C748.121 1581.38 748.92 1580.51 749.411 1579.05C749.87 1577.69 748.675 1576.56 747.428 1576.45C745.935 1576.32 744.772 1576.91 743.333 1577C742.789 1577.03 740.87 1577.05 739.739 1577.38C736.7 1578.29 733.64 1579.6 730.654 1580.68C724.469 1582.93 718.551 1585.9 712.366 1588.16C706.16 1590.42 699.815 1592.28 693.375 1593.7C686.966 1595.12 680.675 1596.26 674.767 1599.18C671.579 1600.75 672.677 1605.42 675.706 1606.37L675.684 1606.36Z" fill="#191919"/>
<path d="M1577.8 1324.42C1588.2 1303.91 1584.01 1272.21 1565.95 1257.12C1547.37 1241.6 1521.59 1241.82 1498.98 1245.32C1473.69 1249.23 1447.31 1258.04 1427.04 1274.06C1412.45 1285.6 1396.28 1308.3 1411.52 1325.84C1419.39 1334.91 1432.35 1337.53 1443.82 1337.37C1451.85 1337.26 1460.06 1335.92 1467.79 1333.79C1475.17 1331.75 1488.61 1327.88 1490.04 1319.23C1490.31 1317.56 1489.82 1316.18 1488.41 1315.21C1483.24 1311.71 1476.6 1314.5 1471.03 1315.93C1464.02 1317.73 1457.03 1319.9 1449.81 1320.74C1442.14 1321.64 1432.2 1321.95 1425.57 1317.19C1412.86 1308.1 1430.17 1291.06 1437.96 1285.32C1454.99 1272.77 1476.37 1266.07 1496.97 1262.38C1513.97 1259.33 1533.95 1257.56 1549.69 1266.16C1571.57 1278.11 1564.72 1303.2 1569.76 1323.35C1570.64 1326.89 1576.07 1327.79 1577.8 1324.4V1324.42Z" fill="#191919"/>
<path d="M1351.11 1345.23C1370.69 1360.4 1404.92 1363.12 1418.7 1338.68C1423.66 1329.87 1424.97 1319.04 1424.05 1309.1C1422.67 1294.16 1416.98 1284.2 1405.37 1274.62C1389.13 1261.2 1372.14 1248.01 1354.14 1237.02C1338.66 1227.56 1320.99 1224.66 1305.62 1235.95C1279.23 1255.33 1276.28 1291.08 1285.08 1320.13C1294.6 1351.56 1316.11 1381.26 1345.78 1396.32C1346.64 1396.76 1347.36 1395.54 1346.54 1395.03C1325.5 1381.77 1312.53 1357.97 1304.46 1335.12C1297.04 1314.08 1292.11 1287.62 1302.3 1266.59C1307.84 1255.16 1318.43 1243.06 1332.47 1246.1C1340.22 1247.79 1347.17 1253.25 1353.57 1257.66C1360.42 1262.39 1367.17 1267.26 1373.79 1272.29C1380.57 1277.45 1387.22 1282.81 1393.74 1288.31C1398.55 1292.37 1402.93 1295.99 1404.51 1302.29C1406.15 1308.83 1406.63 1315.99 1405.11 1322.6C1399.38 1347.42 1375.14 1337.75 1357.03 1335.06C1351.92 1334.31 1345.68 1341.01 1351.12 1345.23H1351.11Z" fill="#191919"/>
<path d="M1570.79 1273.86C1581.63 1264.47 1591.23 1253.69 1601.91 1244.05C1612.71 1234.29 1624.7 1224.25 1631.68 1211.22C1641.1 1193.69 1637.39 1169.15 1616.88 1161.88C1599.31 1155.64 1578.3 1162.68 1561.79 1169.05C1539.05 1177.84 1517.34 1188.98 1496.26 1201.17C1486.04 1207.08 1475.96 1213.24 1466.06 1219.67C1459.15 1224.16 1450.54 1229.49 1447.83 1237.66C1446.68 1241.13 1449.74 1244.8 1453.25 1244.76C1459.75 1244.69 1465.54 1241.16 1470.82 1237.74C1478.18 1232.98 1485.47 1228.14 1492.95 1223.54C1511.66 1212.02 1530.92 1201.24 1550.95 1192.16C1566.86 1184.94 1585.27 1177.46 1603.06 1177.93C1608.36 1178.06 1613.37 1179.95 1615.08 1182.23C1619.07 1187.55 1618.56 1195.66 1614.69 1202.33C1607.31 1215.04 1595.18 1224.92 1584.68 1234.94C1574.67 1244.51 1561.98 1255.07 1561.38 1269.93C1561.16 1275.03 1567.4 1276.77 1570.8 1273.83L1570.79 1273.86Z" fill="#191919"/>
<path d="M1572.05 1324.82C1574.71 1329.95 1577.9 1334.77 1579.42 1340.41C1580.85 1345.73 1581.01 1351.34 1580.04 1356.75C1578.15 1367.27 1573.54 1375.06 1565.64 1382.12C1556.93 1389.89 1546.13 1395.51 1535.62 1400.46C1529.92 1403.15 1524.02 1405.21 1518.16 1407.5C1515 1408.73 1511.86 1410.08 1508.74 1411.43C1505.46 1412.85 1502.75 1414.94 1499.62 1416.63C1497.66 1417.68 1497.84 1421.41 1500.3 1421.75C1503.93 1422.27 1507.37 1423.2 1511.07 1423.1C1515 1422.98 1519.1 1422.45 1522.94 1421.66C1530.47 1420.11 1537.98 1417.46 1545.1 1414.62C1558.45 1409.29 1571.37 1401.83 1581.6 1391.61C1591.41 1381.81 1597.33 1369.21 1598.23 1355.31C1599.17 1340.72 1594.08 1323.75 1581.66 1315.22C1575.49 1310.99 1569.07 1319.05 1572.06 1324.82H1572.05Z" fill="#191919"/>
<path d="M1496.45 1422.75C1498.73 1471.53 1504.63 1520 1498.81 1568.82C1494.06 1608.78 1481.09 1649.07 1442.83 1668.3C1411.5 1684.06 1373.96 1677.91 1349.31 1653.03C1320.12 1623.55 1314.75 1579.9 1318.13 1540.34C1320.18 1516.41 1325.51 1492.75 1332.79 1469.9C1335.95 1459.94 1339.39 1449.99 1342.99 1440.18C1346.5 1430.62 1351.35 1421.53 1353.39 1411.54C1354.15 1407.74 1349.64 1404.63 1346.66 1407.63C1332.86 1421.5 1325.18 1444.5 1319.16 1462.77C1311.93 1484.71 1306.72 1507.29 1303.92 1530.23C1298.62 1573.43 1302.1 1621.73 1330.1 1657.08C1354.41 1687.78 1394.52 1701.38 1432.4 1690.93C1473.47 1679.6 1499.52 1645.5 1509.57 1605.47C1524.44 1546.29 1519.41 1480.53 1507.12 1421.31C1505.88 1415.34 1496.18 1416.65 1496.46 1422.75H1496.45Z" fill="#191919"/>
<path d="M1286.11 1271.64C1275.75 1298.84 1283.03 1331.86 1295.49 1357.25C1301.98 1370.51 1310.68 1382.86 1320.89 1393.52C1331.05 1404.14 1345.8 1418.14 1361.03 1408.7C1365.19 1406.12 1365.16 1398.15 1359.54 1397.24C1347.31 1395.28 1337.07 1384.06 1329.35 1375.15C1321.32 1365.86 1315.02 1355.34 1309.75 1344.28C1298.93 1321.54 1296.79 1297.39 1294.2 1272.72C1293.7 1268.07 1287.81 1267.17 1286.11 1271.62V1271.64Z" fill="#191919"/>
<path d="M1467.57 1231.93C1469.11 1228.34 1470.95 1225.74 1472 1221.85C1473.44 1216.52 1474.93 1211.24 1476.91 1206.07C1480.72 1196.13 1485.62 1186.66 1489.64 1176.82C1496.31 1160.51 1502.04 1138.24 1493.37 1121.7C1488.17 1111.77 1477.27 1105.54 1466.12 1105.6C1453.68 1105.67 1441.83 1112.56 1433.22 1121.11C1423.06 1131.21 1414.35 1143.29 1405.8 1154.75C1398.11 1165.05 1390.81 1175.63 1383.89 1186.47C1378.12 1195.51 1372.62 1204.72 1367.29 1214.04C1363.23 1221.14 1358.26 1228.37 1355.3 1236.02C1353.32 1241.14 1352.5 1250.52 1360.53 1250.14C1368.27 1249.77 1372.5 1239.85 1375.75 1234.08C1386.08 1215.74 1396.76 1197.62 1408.7 1180.26C1416.87 1168.37 1425.53 1156.84 1434.74 1145.72C1442.33 1136.56 1450.92 1124.94 1463.67 1123.16C1489.3 1119.57 1478.54 1158.16 1474.14 1170.5C1470.27 1181.38 1465.2 1191.79 1461.5 1202.73C1458.14 1212.67 1454.11 1224.46 1462.86 1232.54C1464.11 1233.7 1466.76 1233.8 1467.56 1231.93H1467.57Z" fill="#191919"/>
<path d="M1515.71 1409.52C1508.98 1409.42 1502.51 1411.29 1495.98 1412.78C1489.99 1414.13 1483.94 1415.13 1477.83 1415.68C1471.56 1416.23 1465.26 1416.16 1458.99 1416.69C1455.85 1416.96 1452.71 1417.33 1449.56 1417.61C1447.59 1417.78 1446.37 1418.34 1444.54 1418.94C1443.05 1419.42 1441.85 1419.46 1440.48 1420.27C1439.33 1420.95 1439.14 1422.55 1440.07 1423.5C1442.04 1425.54 1445.45 1427.34 1448.14 1428.09C1451.63 1429.07 1455.38 1429.77 1458.99 1430.17C1465.69 1430.9 1472.51 1430.24 1479.17 1429.37C1492.31 1427.65 1508.42 1425.53 1518.5 1416.22C1521.07 1413.85 1519.01 1409.57 1515.71 1409.51V1409.52Z" fill="#191919"/>
<path d="M1350.31 893.526C1351.26 893.952 1351.97 894.709 1352.97 895.029C1353.8 895.296 1354.69 895.296 1355.55 895.328C1356.98 895.37 1358.41 895.264 1359.83 895.104C1363.55 894.688 1366.68 893.792 1369.98 891.99C1375.41 889.037 1380.28 884.857 1384.11 880.016C1388.08 874.983 1391.74 868.98 1393.1 862.635C1393.47 860.876 1393.79 859.031 1393.89 857.24C1394 856.483 1393.94 855.726 1393.71 854.98C1393.76 855.577 1393.76 855.502 1393.74 854.745C1393.74 854.116 1393.69 853.487 1393.65 852.868C1393.37 849.19 1392.17 846.129 1390.34 842.952C1388.49 839.721 1384.26 841.502 1383.89 844.7C1383.77 845.852 1383.5 846.961 1383.24 848.091C1383.02 849.072 1382.84 849.968 1382.72 850.981C1382.7 851.13 1382.51 852.772 1382.62 851.994C1382.36 853.86 1382.21 853.647 1381.69 855.587C1381.36 856.803 1381.1 858.018 1380.74 859.234C1380.34 860.546 1379.97 861.857 1379.52 863.147C1379.28 863.84 1379.02 864.533 1378.73 865.216C1379.15 864.246 1378.39 865.888 1378.34 866.016C1377.18 868.393 1375.8 870.675 1374.23 872.808C1373.99 873.138 1373.98 873.149 1374.23 872.829C1374.03 873.074 1373.84 873.33 1373.62 873.565C1373.14 874.141 1372.66 874.695 1372.15 875.239C1371.29 876.177 1370.39 877.073 1369.44 877.926C1368.51 878.779 1367.77 879.387 1367.22 879.792C1366.12 880.602 1364.97 881.349 1363.78 882.031C1361.55 883.332 1359.3 884.676 1357.02 885.881C1356.08 886.371 1355.12 886.798 1354.14 887.192C1353.45 887.469 1352.71 887.683 1352.07 888.088C1351.2 888.653 1350.94 889.282 1350.33 889.666C1349.01 890.476 1348.71 892.822 1350.33 893.547L1350.31 893.526Z" fill="#191919"/>
<path d="M666.002 1030.9C662.12 1034.68 657.343 1037.37 652.47 1039.69C648.29 1041.69 642.468 1042.93 638.202 1043.19C635.494 1043.35 632.796 1043.38 630.087 1043.15C630.055 1043.15 627.581 1042.8 628.957 1043.03C628.296 1042.92 627.635 1042.8 626.974 1042.67C625.651 1042.39 624.35 1042.06 623.06 1041.68C622.42 1041.48 621.781 1041.27 621.141 1041.05C621.141 1041.05 618.816 1040.16 620.042 1040.65C619.029 1040.25 618.038 1039.83 617.014 1039.46C616.715 1039.35 615.329 1038.83 616.246 1039.19C612.749 1037.78 609.507 1036.54 605.69 1037.13C603.621 1037.46 601.765 1040.04 601.915 1042.09C602.512 1050.27 611.533 1054.76 618.464 1056.82C625.481 1058.9 633.03 1059.44 640.26 1058.43C654.251 1056.45 666.727 1049.39 673.775 1036.92C676.548 1032.02 670.054 1026.95 665.991 1030.91L666.002 1030.9Z" fill="#191919"/>
<path d="M844.058 1467.42C858.198 1475.1 876.774 1475.83 892.502 1477.8C909.041 1479.88 925.655 1481.59 942.29 1482.74C958.903 1483.88 975.581 1484.37 992.237 1484.54C1009.03 1484.7 1027.77 1486.04 1043.62 1479.5C1048.35 1477.55 1048.99 1470.95 1043.62 1469.21C1028.56 1464.35 1011.68 1465.93 996.076 1465.85C978.769 1465.75 961.484 1465.1 944.198 1464.17C927.574 1463.28 910.971 1462.13 894.4 1460.48C878.618 1458.9 861.088 1454.67 845.349 1457.51C840.71 1458.34 840.145 1465.3 844.048 1467.42H844.058Z" fill="#191919"/>
<path d="M1170.82 1456.2C1197.68 1452.67 1223.53 1441.41 1248.02 1430.22C1260.5 1424.53 1272.89 1418.56 1284.93 1411.97C1291.17 1408.55 1297.1 1404.76 1303.13 1401C1309.07 1397.3 1313.7 1393.07 1318.98 1388.55C1322.95 1385.15 1318.71 1377.45 1313.7 1379.48C1307.32 1382.06 1301.28 1384.14 1295.15 1387.37C1289.66 1390.27 1284.05 1392.9 1278.54 1395.78C1266.37 1402.13 1254.2 1408.44 1241.76 1414.27C1217.58 1425.61 1191.74 1434.37 1168.46 1447.47C1164.7 1449.6 1166.05 1456.81 1170.82 1456.2Z" fill="#191919"/>
<path d="M840.456 493.689C837.065 509.204 838.633 526.829 838.92 542.642C839.251 560.908 839.837 579.173 840.765 597.418C842.653 634.375 846.172 671.173 851.962 707.725C857.816 744.747 865.814 781.608 878.258 817.02C889.049 847.729 902.741 881.21 924.238 906.108C927.256 909.595 931.671 905.148 930.114 901.576C916.038 869.14 900.619 838.239 890.254 804.203C879.975 770.455 872.233 736.046 866.72 701.221C861.036 665.329 857.453 629.033 854.969 592.79C853.828 576.092 852.964 559.383 852.324 542.664C851.716 526.787 852.794 509.193 849.136 493.71C848.134 489.477 841.416 489.381 840.477 493.71L840.456 493.689Z" fill="#191919"/>
<path d="M976.68 460.698C1012.81 523.726 1037.91 592.075 1056.78 662.056C1065.9 695.879 1073.35 730.138 1079.78 764.569C1086.46 800.322 1091.85 837.343 1102.6 872.115C1103.65 875.495 1108.84 874.93 1108.85 871.272C1108.95 836.181 1102.85 799.895 1096.16 765.497C1088.99 728.55 1080.62 691.816 1070.35 655.605C1050.51 585.688 1021.89 518.427 980.893 458.235C979.144 455.676 975.113 457.936 976.691 460.687L976.68 460.698Z" fill="#191919"/>
<path d="M1023.76 491.78C1048.76 546.14 1072.89 600.808 1090.8 657.972C1108.48 714.4 1115.94 771.553 1115.83 830.604C1115.83 834.08 1121.41 835.061 1122.08 831.446C1144.36 712.374 1079.48 592.225 1026.67 490.074C1025.67 488.123 1022.88 489.84 1023.76 491.77V491.78Z" fill="#191919"/>
<path d="M786.637 502.561C772.892 568.724 764.084 635.335 761.098 702.863C758.134 769.922 758.71 838.068 771.004 904.231C771.41 906.417 774.929 905.905 774.865 903.709C772.967 837.674 768.68 771.841 770.93 705.731C773.222 638.192 780.004 570.472 791.329 503.851C791.841 500.812 787.277 499.458 786.637 502.561Z" fill="#191919"/>
<path d="M500.977 1038.29C504.261 1069.68 508.228 1100.96 515.948 1131.63C519.392 1145.29 523.679 1158.76 528.264 1172.08C533.777 1188.1 539.109 1204.89 550.647 1217.63C553.003 1220.24 557.567 1218.18 557.514 1214.79C557.258 1198.19 550.38 1182.94 545.006 1167.47C540.367 1154.14 536.262 1140.66 532.53 1127.05C524.383 1097.33 518.571 1066.94 512.557 1036.72C511.278 1030.29 500.284 1031.63 500.977 1038.29Z" fill="#191919"/>
<path d="M530.13 1126.74C498.214 1104.44 456.765 1119.05 430.267 1143.91C400.633 1171.72 389.191 1214.78 393.947 1254.33C398.842 1294.95 420.393 1331.67 449.152 1360.17C474.893 1385.68 521.482 1420.98 560.222 1404.7C563.57 1403.3 564.306 1398.26 560.222 1397.12C541.742 1391.97 524.713 1389.07 507.513 1379.68C492.349 1371.39 478.689 1361.14 466.267 1349.14C441.335 1325.05 421.8 1294.56 415.487 1260.09C409.324 1226.41 416.628 1188.23 440.696 1162.82C463.462 1138.78 497.521 1130.17 529.703 1128.29C530.567 1128.24 530.812 1127.2 530.13 1126.72V1126.74Z" fill="#191919"/>
<path d="M1479.33 801.494C1481.33 819.269 1486.26 837.172 1489.85 854.713C1492.97 869.982 1495.75 885.315 1498.14 900.723C1500.47 915.726 1502.81 930.729 1504.91 945.763C1506.14 954.507 1507.23 963.261 1508.72 971.962C1510.22 980.737 1510.95 990.633 1516.88 997.563C1518.94 999.973 1523.57 999.366 1524.96 996.519C1528.75 988.745 1527.26 979.65 1526.52 971.226C1525.75 962.525 1524.61 953.899 1523.45 945.241C1521.35 929.609 1519.26 913.956 1516.33 898.452C1513.55 883.737 1510.42 869.086 1506.95 854.51C1502.64 836.426 1498.48 817.02 1491.3 799.874C1488.94 794.254 1478.51 793.966 1479.35 801.494H1479.33Z" fill="#191919"/>
<path d="M1521.74 956.917C1531.52 945.497 1539.54 933.938 1554.18 928.18C1568.75 922.444 1585.2 925.365 1598.6 932.68C1626.58 947.928 1643.93 978.168 1650.62 1008.55C1664.05 1069.64 1630.35 1131.18 1576.96 1161.2C1574.84 1162.39 1576.27 1165.8 1578.63 1165.13C1653.82 1143.69 1691.86 1060.93 1666.87 988.031C1654.74 952.662 1628.26 917.613 1590.69 907.409C1560.59 899.23 1512.91 916.696 1515.04 954.155C1515.22 957.279 1519.38 959.7 1521.75 956.938L1521.74 956.917Z" fill="#191919"/>
<path d="M979.387 1565.84C1009.65 1567.37 1038.64 1567.13 1068.28 1575.04C1083.07 1578.99 1097.41 1584.19 1111.07 1591.17C1121.36 1596.41 1133.29 1608.19 1144.67 1610.18C1154.35 1611.86 1160.56 1605.36 1165.4 1597.95C1172.94 1586.43 1180.48 1575.73 1190.52 1566.19C1210.86 1546.89 1235.93 1538.2 1259.89 1524.82C1264.68 1522.15 1262.06 1515.68 1257.29 1515.24C1232.41 1512.91 1208.07 1525.82 1188.85 1540.44C1178.8 1548.08 1169.66 1556.73 1161.69 1566.51C1158.08 1570.94 1154.62 1575.5 1151.49 1580.28C1150.58 1581.68 1147.83 1587.68 1147.23 1587.99C1146.3 1588.47 1141.12 1584.59 1139.52 1583.6C1094.67 1555.68 1029.51 1537.87 978.31 1557.96C974.183 1559.58 974.631 1565.63 979.377 1565.86L979.387 1565.84Z" fill="#191919"/>
<path d="M1012.66 1473.92C1003.61 1474.17 994.38 1476.52 985.348 1477.57C975.698 1478.7 966.026 1478.7 956.322 1478.89C937.8 1479.25 918.83 1480.69 901.886 1488.79C886.925 1495.95 874.705 1508.76 871.047 1525.24C867.006 1543.42 871.815 1561.64 870.781 1579.96C870.557 1583.92 876.709 1585.74 878.448 1582.04C885.645 1566.74 883.95 1550.51 887.117 1534.31C890.156 1518.84 900.915 1508.07 915.567 1502.79C932.49 1496.7 950.831 1497.68 968.511 1496.51C984.037 1495.48 1004.98 1494.17 1015.57 1480.93C1017.65 1478.34 1016.54 1473.79 1012.66 1473.91V1473.92Z" fill="#191919"/>
<path d="M1219.25 1429.85C1218.86 1441.83 1232.29 1450.69 1242.64 1453.3C1255.92 1456.63 1267.77 1451.99 1278.69 1444.56C1289.31 1437.33 1298.75 1430.53 1311.95 1435.74C1318.19 1438.21 1323.68 1442.38 1328.77 1446.65C1333.95 1450.99 1339.31 1457.59 1346.36 1458.02C1349.8 1458.22 1352.87 1454.89 1352.81 1451.57C1352.7 1444.87 1346.47 1439.35 1341.84 1435.02C1336.77 1430.28 1330.97 1425.9 1324.89 1422.58C1313.14 1416.15 1299.59 1413.8 1286.92 1418.99C1275.8 1423.55 1267.26 1434.6 1255.5 1437.33C1250.76 1438.43 1245.64 1437.6 1241.32 1435.42C1236 1432.75 1232.6 1428.15 1227.71 1425.01C1223.99 1422.62 1219.4 1425.77 1219.26 1429.86L1219.25 1429.85Z" fill="#191919"/>
<path d="M1042.32 513.383C1076.47 563.392 1105.68 616.856 1130.45 672.079C1142.98 700.005 1153.94 728.635 1163.39 757.745C1172.46 785.724 1177.52 816.167 1189.93 842.866C1191.34 845.927 1196.02 844.263 1196.03 841.214C1196.18 811.955 1185.09 781.758 1176.05 754.258C1166.42 724.935 1155.2 696.145 1142.55 667.995C1117.14 611.461 1084.29 559.181 1046.13 510.44C1044.44 508.276 1040.76 511.112 1042.31 513.383H1042.32Z" fill="#191919"/>
<path d="M1177.47 698.544C1185.06 716.33 1191.41 734.627 1196.4 753.309C1201.26 771.51 1204.21 790.064 1208.19 808.457C1208.62 810.409 1211.79 809.993 1211.68 807.988C1210.71 788.667 1206.11 769.57 1200.79 751.038C1195.45 732.42 1188.73 714.251 1180.85 696.572C1179.82 694.247 1176.48 696.262 1177.46 698.555L1177.47 698.544Z" fill="#191919"/>
<path d="M672.484 321.196C537.005 324.757 438.465 425.159 375.849 536.852C341.705 597.748 314.503 663.826 302.421 732.793C289.966 803.915 292.461 877.212 309.342 947.405C328.781 1028.24 366.231 1107.41 424.24 1167.53C427.631 1171.04 434.05 1166.38 431.15 1162.2C390.33 1103.35 354.032 1041.42 333.345 972.442C313.063 904.807 306.665 833.366 315.015 763.215C323.055 695.644 346.013 631.464 376.681 571.006C404.662 515.847 439.51 463.758 483.923 420.424C535.096 370.511 600.74 335.452 672.484 328.67C677.186 328.222 677.378 321.057 672.484 321.185V321.196Z" fill="#191919"/>
<path d="M527.995 1152.62C469.805 1207.42 408.085 1269.49 386.396 1348.93C375.583 1388.51 378.814 1428.15 392.026 1466.73C404.342 1502.7 424.23 1536.31 459.184 1553.81C461.584 1555.02 463.396 1551.8 461.264 1550.26C428.538 1526.69 412.116 1490.28 401.74 1452.42C391.482 1414.95 392.111 1377.3 404.716 1340.45C428.964 1269.55 485.352 1213.55 534.734 1159.37C538.872 1154.84 532.474 1148.39 527.984 1152.62H527.995Z" fill="#191919"/>
<path d="M530.717 1179.34C483.851 1253.05 388.264 1293.66 367.279 1383.55C350.1 1457.16 393.33 1525.74 459.667 1556.28C462.141 1557.42 464.284 1553.97 461.842 1552.56C397.318 1515.27 354.419 1446.33 381.472 1371.44C395.708 1332.02 426.407 1302.32 456.638 1274.63C487.125 1246.71 515.809 1218.94 536.848 1182.94C539.173 1178.97 533.159 1175.5 530.706 1179.34H530.717Z" fill="#191919"/>
<path d="M1526.73 950.561C1589.43 992.424 1643.52 1042.85 1678.17 1110.85C1697.14 1148.06 1711.6 1192.69 1702.51 1234.7C1694.85 1270.04 1672.05 1299.76 1638.96 1314.65C1635.99 1315.98 1638.24 1320.14 1641.05 1319.6C1677.07 1312.83 1702.93 1282.58 1714.12 1248.9C1727.78 1207.76 1719.06 1162.82 1702.4 1123.98C1669.75 1047.88 1607.29 977.389 1530.32 944.43C1526.2 942.66 1522.84 947.97 1526.73 950.572V950.561Z" fill="#191919"/>
<path d="M1519.72 974.393C1583.4 1010.39 1642.09 1065.09 1679.29 1128.35C1695.68 1156.22 1708.65 1187.82 1708.4 1220.61C1708.16 1253.65 1691.83 1280.88 1666.28 1301.07C1664.62 1302.38 1666.78 1305.17 1668.55 1304.01C1695.07 1286.61 1713.57 1261.81 1717.69 1229.89C1721.93 1196.95 1709.98 1163.45 1694.5 1134.89C1656.6 1064.98 1591.88 1007.31 1521.71 970.992C1519.47 969.829 1517.51 973.135 1519.72 974.382V974.393Z" fill="#191919"/>
<path d="M676.025 318.135C741.125 254.702 818.648 213.543 909.468 202.443C1000.83 191.268 1094.18 207.22 1181.09 235.562C1271.65 265.109 1361.63 308.08 1434.72 369.893C1507.28 431.279 1566.12 511.027 1595.84 601.821C1612.15 651.66 1619.3 704.11 1615.81 756.486C1614.04 783.101 1609.26 809.332 1602.22 835.04C1594.48 863.211 1582.53 889.431 1572.55 916.771C1569.61 924.821 1581.39 928.735 1585.72 922.326C1613.74 880.762 1627.37 827.021 1633.38 777.78C1639.28 729.456 1636.17 680.204 1625.12 632.808C1602.78 536.948 1548.58 449.982 1477.96 382.145C1405.26 312.313 1314.98 264.224 1220.95 229.559C1129.76 195.96 1030.85 175.253 933.333 182.418C833.129 189.786 731.186 230.134 673.242 315.981C672.09 317.687 674.617 319.511 676.035 318.135H676.025Z" fill="#191919"/>
<path d="M312.349 932.584C248.305 919.82 179.771 943.002 129.461 982.966C75.3761 1025.94 43.0021 1090.86 37.7237 1159.45C32.4133 1228.56 56.2887 1299.71 105.522 1349.12C149.05 1392.8 209.948 1418.21 271.412 1420.35C336.246 1422.6 420.476 1395.75 437.953 1325.72C439.009 1321.48 432.611 1318.35 430.595 1322.62C405.121 1376.83 340.287 1400.47 284.08 1401.78C228.876 1403.07 172.754 1383.75 130.709 1347.78C31.5922 1262.99 30.8564 1101.72 122.743 1011.4C173.607 961.416 241.405 941.167 311.357 939.931C315.431 939.856 316.625 933.437 312.349 932.584Z" fill="#191919"/>
<path d="M1645.94 656.895C1705.61 651.617 1769.16 644.356 1826.08 667.771C1879.5 689.737 1918.67 736.003 1934.09 791.237C1948 841.022 1943.37 894.795 1921.79 941.765C1900.88 987.285 1864.93 1021.91 1821.06 1045.5C1797.09 1058.4 1770.06 1068.01 1742.54 1067.8C1713.16 1067.57 1686.2 1052.97 1665.97 1032.18C1663.99 1030.14 1660.48 1032.77 1662.01 1035.24C1725.59 1138.39 1870.25 1045.51 1921.02 976.344C1991.97 879.653 1968.59 733.092 1868 666.94C1801.77 623.392 1717.84 625.621 1644.72 647.896C1640 649.335 1640.58 657.375 1645.94 656.906V656.895Z" fill="#191919"/>
<path d="M1625.41 645.614C1664.62 594.731 1734.44 570.846 1796.43 588.525C1859.67 606.566 1897.91 661.992 1911.75 723.368C1912.42 726.289 1916.89 725.585 1916.9 722.674C1917.17 655.37 1860.37 593.782 1797.42 577.126C1731.8 559.778 1659.7 588.098 1621.05 643.065C1619.15 645.774 1623.48 648.12 1625.41 645.614Z" fill="#191919"/>
<path d="M77.9998 1080.85C84.8244 1021.58 112.507 962.397 156.802 921.793C199.371 882.767 260.941 869.78 310.963 903.229C313.661 905.031 316.551 901.054 314.365 898.825C270.442 853.828 199.275 871.603 156.099 907.718C105.341 950.178 78.0105 1015.87 73.1373 1080.85C72.9027 1084.02 77.6479 1083.9 77.9998 1080.85Z" fill="#191919"/>
<path d="M1614.19 840.851C1634.77 816.966 1660.67 798.136 1689.78 785.969C1703.9 780.073 1718.76 775.765 1733.77 772.865C1748.84 769.943 1764.21 769.389 1779.31 766.552C1781.46 766.147 1781.28 762.916 1779.31 762.404C1749.28 754.439 1714.4 765.059 1687.01 777.546C1657.24 791.109 1630.89 811.582 1610.48 837.151C1608.42 839.732 1611.95 843.442 1614.18 840.851H1614.19Z" fill="#191919"/>
<path d="M1610.45 868.639C1624.43 868.34 1638.47 868.5 1652.45 868.905C1659.32 869.108 1666.16 869.641 1673.02 869.875C1680.16 870.121 1687.21 869.875 1694.36 869.929C1696.52 869.95 1697.09 866.527 1694.88 866.069C1688.11 864.651 1681.55 863.264 1674.66 862.497C1667.58 861.708 1660.39 861.59 1653.27 861.441C1638.93 861.143 1624.73 861.836 1610.45 863.2C1607.04 863.531 1606.9 868.703 1610.45 868.628V868.639Z" fill="#191919"/>
<path d="M938.805 883.513C938.23 870.867 937.494 858.274 936.555 845.649C934.028 845.991 931.501 846.332 928.974 846.673C932.898 865.29 937.014 883.865 941.205 902.429C941.781 904.988 944.564 906.193 946.942 905.681C959.194 903.08 971.457 900.489 983.709 897.887C989.702 896.618 995.663 895.285 1001.6 893.782C1007.22 892.353 1014 891.031 1018.95 887.96C1021.66 886.275 1020.27 882.724 1017.44 882.383C1011.94 881.722 1005.31 883.343 999.864 884.366C993.562 885.539 987.313 886.893 981.064 888.322C968.866 891.116 956.656 893.91 944.457 896.703C946.366 897.791 948.285 898.879 950.194 899.955C945.705 881.487 941.151 863.041 936.406 844.626C935.35 840.542 928.302 841.235 928.825 845.649C930.36 858.52 932.109 871.336 934.007 884.164C934.412 886.883 938.912 886.232 938.784 883.513H938.805Z" fill="#191919"/>
<path d="M1025.84 843.666C1025.99 844.551 1026.05 845.489 1026.31 846.353C1026.68 847.654 1027.11 848.934 1027.51 850.224C1028.46 853.273 1029.4 856.323 1030.39 859.362C1030.9 860.951 1031.49 862.475 1032.16 864C1032.67 865.152 1033.12 866.655 1033.99 867.583C1034.05 867.658 1034.14 867.743 1034.21 867.807C1034.47 867.999 1034.12 867.551 1034.18 867.775C1034.22 867.967 1034.36 868.18 1034.46 868.361C1034.58 868.628 1034.72 868.884 1034.89 869.129C1035.64 870.227 1037.26 870.761 1038.09 869.374C1038.57 868.575 1038.39 867.508 1038.27 866.634C1038.03 864.683 1037.64 862.753 1037.25 860.833C1037.1 860.087 1036.21 859.66 1035.52 859.852C1034.71 860.076 1034.43 860.823 1034.54 861.58C1034.76 863.105 1034.98 864.64 1035.11 866.175C1035.15 866.634 1035.18 867.092 1035.19 867.562C1035.19 867.711 1035.19 867.85 1035.19 867.999C1035.19 868.457 1035.29 867.658 1035.2 867.956C1035.2 867.988 1035.19 868.02 1035.18 868.041C1035.3 867.732 1035.4 867.53 1035.69 867.306C1036.32 866.837 1037.27 867.018 1037.61 867.359C1037.67 867.412 1037.86 867.775 1037.71 867.466C1037.65 867.359 1037.59 867.252 1037.54 867.146C1037.47 867.007 1037.41 866.869 1037.35 866.73C1037.53 867.124 1037.42 866.751 1037.27 866.538C1037.11 866.314 1037.22 866.762 1037.26 866.602C1037.28 866.517 1037.27 866.378 1037.27 866.282C1037.27 865.888 1037.19 865.536 1037.08 865.162C1036.35 862.646 1035.76 860.119 1034.95 857.624C1034.04 854.809 1033.15 851.983 1032.28 849.147C1031.86 847.803 1031.46 846.46 1031.03 845.116C1030.69 844.061 1030.13 843.058 1029.62 842.077C1029.16 841.182 1027.94 840.84 1027.06 841.235C1026.05 841.672 1025.69 842.621 1025.86 843.666H1025.84Z" fill="#191919"/>
<path d="M842.726 493.273C824.833 559.042 812.132 625.813 805.638 693.671C799.283 760.218 794.591 830.732 805.564 897.013C805.884 898.953 808.805 898.388 808.869 896.565C811.226 829.762 807.867 763.3 813.689 696.518C819.618 628.479 830.409 560.673 846.149 494.212C846.671 491.994 843.323 491.055 842.715 493.263L842.726 493.273Z" fill="#191919"/>
<path d="M786.735 496.067C743.281 567.124 716.708 647.821 703.88 729.915C697.674 769.666 694.827 809.865 695.488 850.096C696.16 891.415 699.06 934.599 711.355 974.286C712.283 977.272 717.337 976.91 717.049 973.519C713.733 934.034 707.772 894.987 706.887 855.267C705.949 813.512 708.7 771.596 715.023 730.309C727.425 649.25 754.702 571.859 790.776 498.413C792.099 495.736 788.324 493.454 786.735 496.056V496.067Z" fill="#191919"/>
<path d="M613.398 521.359C557.319 602.642 528.624 699.621 524.54 797.901C520.53 894.347 539.938 997.979 593.34 1079.51C595.515 1082.83 601.913 1080.74 600.175 1076.63C563.013 988.148 539.532 896.853 542.39 800.279C545.237 704.004 573.399 609.381 621.47 526.072C624.52 520.783 616.767 516.454 613.387 521.349L613.398 521.359Z" fill="#191919"/>
<path d="M536.515 886.968C517.225 915.278 499.587 944.398 482.249 973.935C473.611 988.66 465.006 1003.42 456.443 1018.19C448.627 1031.67 437.036 1046.71 434.157 1062.18C433.144 1067.61 439.115 1071.34 443.381 1067.55C455.121 1057.13 462.084 1039.53 469.73 1025.95C478.101 1011.06 486.503 996.199 494.949 981.345C511.872 951.596 528.613 921.921 544.118 891.393C546.698 886.318 539.714 882.276 536.525 886.957L536.515 886.968Z" fill="#191919"/>
<path d="M528.519 967.164C520.639 979.575 513.239 992.509 504.623 1004.43C496.199 1016.08 488.436 1028.99 484.042 1042.73C483.2 1045.38 486.847 1047.51 488.734 1045.46C498.502 1034.84 505.86 1021.73 511.831 1008.64C517.931 995.26 525.512 982.422 532.401 969.435C533.755 966.876 530.076 964.722 528.519 967.164Z" fill="#191919"/>
<path d="M1182.9 388.681C1254.59 443.605 1318.08 511.731 1360.69 591.809C1382.83 633.405 1398.77 678.423 1407.63 724.722C1412.07 747.924 1414.26 771.393 1415.09 794.99C1415.96 819.205 1412.88 843.698 1414.84 867.828C1415.08 870.867 1419.75 873.021 1421.29 869.577C1439.85 827.736 1434.67 773.941 1427.58 730.042C1419.5 680.001 1402.52 631.72 1378.73 587.01C1333.91 502.774 1265.92 434.254 1187.43 380.94C1182.55 377.623 1178.44 385.279 1182.9 388.692V388.681Z" fill="#191919"/>
<path d="M1319.11 612.409C1344.63 648.674 1361.07 686.836 1368.41 730.735C1375.42 772.598 1373.2 815.218 1379.79 857.027C1380.15 859.341 1384.14 859.362 1384.48 857.027C1390.84 814.034 1387.7 768.29 1379.54 725.703C1371.46 683.531 1355.32 639.259 1323.67 608.891C1321.39 606.705 1317.15 609.616 1319.11 612.409Z" fill="#191919"/>
<path d="M1415.73 711.713C1432.22 729.445 1451.04 743.894 1472.47 755.186C1482.93 760.698 1493.83 765.443 1504.98 769.41C1510.57 771.404 1516.32 772.961 1522.1 774.357C1527.34 775.616 1534.68 777.78 1539.82 775.637C1543.19 774.229 1545.02 770.135 1542.05 767.192C1538.36 763.524 1532.67 762.575 1527.77 761.221C1522.36 759.717 1517 758.075 1511.66 756.348C1500.59 752.754 1489.8 748.585 1479.36 743.414C1458.92 733.305 1439.4 720.233 1422.22 705.241C1417.79 701.381 1411.68 707.363 1415.73 711.724V711.713Z" fill="#191919"/>
<path d="M1459.8 783.634C1472.17 793.018 1485.25 802.838 1500.72 806.25C1507.68 807.786 1514.51 807.86 1521.44 806.112C1528.16 804.427 1534.07 800.236 1538.67 795.097C1540.68 792.858 1538.02 788.752 1535.27 790.693C1525.89 797.293 1511.83 797.592 1500.92 794.98C1487.37 791.749 1475.74 783.421 1464.51 775.552C1459.51 772.044 1455.1 780.073 1459.79 783.634H1459.8Z" fill="#191919"/>
<path d="M879.986 1563.36C893.806 1556.3 915.89 1559.87 924.858 1573.14C928.142 1578.01 930.69 1583.06 936.918 1584.66C943.38 1586.33 949.074 1582.95 953.041 1578.11C954.832 1575.94 956.752 1572.26 960.217 1573.2C961.881 1573.65 963.63 1575.77 964.461 1577.19C964.931 1578 965.154 1578.86 965.56 1579.72C965.944 1580.55 969.644 1584.84 967.511 1582.08C968.972 1583.98 971.851 1585.55 974.165 1583.83C977.321 1581.48 978.718 1579.72 979.07 1575.75C979.39 1572.13 978.857 1568.51 977.044 1565.33C973.259 1558.67 966.05 1554.92 958.469 1554.92C950.919 1554.92 944.894 1558.83 940.181 1564.38C939.562 1565.11 937.931 1566.31 937.686 1567.11C938.667 1563.93 943.209 1569.39 942.804 1566.81C942.42 1564.42 938.72 1560.78 937.238 1559.08C929.198 1549.87 917.521 1544.67 905.535 1543.25C893.539 1541.83 881.98 1546.54 873.407 1554.84C868.832 1559.26 874.622 1566.1 879.986 1563.36Z" fill="#191919"/>
<path d="M977.213 1576.08C968.458 1580.44 961.442 1589.34 955.406 1596.83C949.008 1604.77 943.517 1613.53 939.465 1622.9C930.955 1642.56 931.169 1662.65 939.934 1682.21C947.174 1698.36 958.126 1713.17 966.987 1728.54C973.907 1740.53 980.775 1753.78 992.291 1761.95C995.181 1764 998.369 1760.63 997.794 1757.73C992.163 1729.61 975.24 1706.52 961.41 1681.97C951.717 1664.76 948.848 1646.92 956.633 1628.38C960.173 1619.96 965.302 1612.3 970.367 1604.73C975.326 1597.32 981.766 1590.37 984.763 1581.89C986.373 1577.34 980.903 1574.23 977.202 1576.08H977.213Z" fill="#191919"/>
<path d="M1271.81 1527.37C1275.3 1530.17 1278.39 1533.29 1281.5 1536.48C1284.75 1539.79 1288.07 1542.91 1290.99 1546.53C1291.11 1546.68 1292.03 1547.84 1291.38 1547C1291.72 1547.45 1292.05 1547.9 1292.38 1548.34C1293.04 1549.25 1293.71 1550.15 1294.37 1551.06C1295.7 1552.89 1296.94 1554.75 1298.12 1556.67C1299.29 1558.59 1300.28 1560.62 1301.48 1562.53C1302.07 1563.47 1302.68 1564.41 1303.26 1565.37C1304.56 1567.55 1305.97 1568.73 1308.45 1569.45C1307.65 1568.98 1306.85 1568.52 1306.05 1568.05C1306.72 1568.87 1307.41 1569.6 1308.17 1570.32C1310.97 1572.95 1315.06 1570.94 1315.36 1567.35C1315.45 1566.27 1315.45 1565.29 1315.33 1564.21C1315.08 1565.13 1314.84 1566.03 1314.58 1566.95C1315.7 1564.72 1316.09 1562.71 1315.29 1560.3C1314.9 1559.15 1314.51 1557.98 1314.05 1556.85C1313.07 1554.4 1311.78 1552.12 1310.41 1549.87C1307.7 1545.42 1304.61 1541.21 1301.1 1537.36C1297.81 1533.76 1294.21 1530.4 1290.34 1527.42C1286.44 1524.43 1281.74 1522.24 1277.24 1520.31C1275.18 1519.43 1272.89 1519.53 1271.45 1521.46C1270.23 1523.09 1270.03 1525.94 1271.8 1527.36L1271.81 1527.37Z" fill="#191919"/>
<path d="M1287.72 1523.98C1288.11 1521.61 1288.68 1519.2 1289.28 1516.89C1289.6 1515.68 1290.03 1514.52 1290.42 1513.34C1290.62 1512.74 1290.8 1512.15 1291.02 1511.56C1291.11 1511.3 1291.2 1511.06 1291.3 1510.8C1291.02 1511.46 1291.02 1511.46 1291.3 1510.8C1292.39 1508.52 1293.65 1506.37 1295.13 1504.33C1294.47 1505.24 1295.11 1504.36 1295.44 1503.97C1295.85 1503.49 1296.26 1503.01 1296.69 1502.55C1297.55 1501.62 1298.46 1500.73 1299.41 1499.89C1299.89 1499.47 1300.38 1499.07 1300.87 1498.67C1299.45 1499.85 1301.89 1497.88 1302.17 1497.66C1300.73 1498.76 1302.66 1497.33 1302.93 1497.15C1303.38 1496.84 1303.82 1496.55 1304.29 1496.27C1305.36 1495.61 1306.47 1495 1307.6 1494.44C1307.92 1494.28 1308.25 1494.13 1308.57 1493.98C1307.8 1494.3 1307.65 1494.36 1308.13 1494.17C1308.72 1493.95 1309.29 1493.72 1309.89 1493.52C1312.23 1492.73 1314.63 1491.94 1317.01 1491.33C1317.52 1491.2 1318.04 1491.11 1318.54 1490.95C1317.91 1491.14 1321.8 1489.58 1320.45 1490.1C1321.7 1489.61 1322.93 1489.2 1324.12 1488.56C1326.16 1487.43 1326.38 1484.59 1324.83 1482.97C1320.18 1478.11 1312.14 1477.97 1306.16 1479.98C1300 1482.05 1294.21 1485.45 1289.68 1490.15C1285.26 1494.74 1281.88 1500.2 1279.78 1506.21C1278.74 1509.17 1278.22 1512.22 1278.2 1515.35C1278.18 1518.82 1279 1521.75 1280.38 1524.91C1281.71 1527.98 1287.19 1527.24 1287.73 1523.95L1287.72 1523.98Z" fill="#191919"/>
<path d="M1336.84 1661.02C1332.48 1663.93 1329.87 1668.54 1326.98 1672.82C1324.31 1676.79 1322.03 1680.94 1319.78 1685.16C1317.61 1689.23 1315.53 1693.34 1313.52 1697.49C1312.31 1699.97 1311.16 1702.45 1310.13 1705.02C1309.67 1706.15 1309.15 1707.28 1308.78 1708.44C1308.32 1709.42 1308.12 1710.45 1308.14 1711.56C1308.12 1712.5 1308.17 1712.68 1308.3 1712.09C1307.63 1715.77 1308.99 1719.49 1312.66 1720.98C1316.37 1722.47 1319.78 1721.01 1322.06 1717.89C1321.9 1718.36 1322.1 1718.27 1322.69 1717.59C1323.44 1716.84 1324.02 1716 1324.42 1715.04C1325.02 1713.97 1325.53 1712.85 1326.08 1711.75C1327.04 1709.82 1327.9 1707.85 1328.8 1705.9C1330.74 1701.71 1332.74 1697.55 1334.83 1693.43C1336.92 1689.31 1339.08 1685.23 1341.04 1681.04C1341.96 1679.09 1342.88 1677.14 1343.83 1675.2C1344.51 1673.8 1345.33 1672.41 1345.8 1670.94C1346.27 1669.53 1346.36 1668.06 1346.52 1666.58C1347.06 1661.77 1340.61 1658.46 1336.8 1661.01L1336.84 1661.02Z" fill="#191919"/>
<path d="M933.376 1773.61C939.604 1768.39 945.842 1763.17 952.069 1757.95C958.19 1752.83 964.375 1747.8 970.058 1742.18C972.586 1739.69 977.246 1735.43 976.094 1731.52C975.486 1729.45 973.034 1728.41 971.018 1728.96C968.971 1729.53 967.158 1730.97 965.452 1732.15C958.766 1736.77 953.018 1742.72 947.196 1748.34C940.564 1754.73 933.931 1761.13 927.298 1767.53C925.624 1769.14 925.677 1772 927.298 1773.62C929.068 1775.39 931.596 1775.11 933.387 1773.62L933.376 1773.61Z" fill="#191919"/>
<path d="M1329.32 1692.37C1338.69 1693.16 1347.8 1693.23 1357.16 1692.25C1366.54 1691.27 1376.55 1690.67 1383.64 1683.65C1385.22 1682.08 1384.34 1679.64 1382.4 1678.95C1373.68 1675.87 1364.97 1678.47 1356.16 1679.56C1347.24 1680.66 1338.28 1681.73 1329.33 1682.45C1322.95 1682.97 1322.95 1691.83 1329.33 1692.37H1329.32Z" fill="#191919"/>
<path d="M1525.16 1070.32C1525.12 1095.65 1539.55 1120.49 1530.56 1145.95C1525.3 1160.83 1516.97 1174.84 1507.23 1187.22C1502.25 1193.55 1497.11 1199.73 1491.76 1205.75C1486.66 1211.5 1479.46 1217.78 1476.21 1224.76C1474.44 1228.53 1477.42 1234.07 1482.13 1232.46C1489.87 1229.8 1497.27 1222.72 1503.21 1217.19C1509.67 1211.16 1515.7 1204.75 1521.12 1197.77C1532.13 1183.59 1541.71 1167.74 1547.15 1150.52C1550.61 1139.56 1550.52 1127.92 1549.03 1116.64C1546.79 1099.72 1542.38 1081.08 1531.4 1067.75C1529.32 1065.22 1525.17 1067.37 1525.17 1070.33L1525.16 1070.32Z" fill="#191919"/>
<path d="M679.534 976.878C699.858 964.445 721.867 954.667 744.538 947.352C766.782 940.176 789.964 936.732 812.954 932.893C816.217 932.349 815.215 927.54 812.208 927.38C764.393 924.864 715.341 945.155 677.081 972.676C674.586 974.468 676.814 978.541 679.534 976.878Z" fill="#191919"/>
<path d="M1181.51 858.392C1194.35 845.02 1210.77 835.946 1228.84 831.841C1237.39 829.9 1245.93 828.567 1254.72 828.631C1259.33 828.663 1263.87 829.229 1268.46 829.548C1273.12 829.868 1277.95 828.973 1282.7 829.143C1287.96 829.335 1289.72 821.935 1285.34 819.376C1281.13 816.913 1276.29 813.746 1271.52 812.616C1266.36 811.39 1260.76 811.294 1255.48 811.39C1244.85 811.581 1233.89 813.138 1223.9 816.838C1204.29 824.11 1187.27 836.405 1174.75 853.188C1171.8 857.144 1178.19 861.868 1181.51 858.402V858.392Z" fill="#191919"/>
<path d="M625.93 894.645C637.574 881.519 653.793 873.373 669.735 866.57C688.481 858.573 708.838 853.86 728.96 850.981C748.548 848.176 768.233 846.524 788.024 847.91C795.851 848.464 804.318 849.904 810.471 850.906C818.202 852.164 827.127 856.813 834.815 856.344C845.937 855.672 853.636 844.135 847.707 833.888C842.525 824.942 829.974 820.773 820.729 817.499C811.057 814.087 800.554 813.128 790.37 812.434C767.465 810.867 743.569 812.69 721.154 817.617C680.025 826.659 633.01 844.658 611.246 883.3C606.192 892.278 618.679 902.824 625.941 894.635L625.93 894.645Z" fill="#191919"/>
<path d="M1319.75 727.665C1310.6 723.687 1301.23 719.305 1291.27 718.047C1283.54 717.076 1275.78 716.543 1267.98 716.65C1249.87 716.895 1231.8 720.936 1214.8 727.068C1195.39 734.073 1177.51 743.488 1160.31 754.855C1150.25 761.498 1140.18 768.418 1130.8 776C1126.23 779.689 1121.98 783.858 1117.94 788.123C1112.2 794.18 1110.8 801.409 1109.36 804.469C1105.34 813.021 1111.92 821.562 1121.2 819.867C1123.53 819.429 1125.86 819.014 1128.2 818.598H1120.76C1132.02 822.596 1144.11 813.959 1153.48 808.233C1162.38 802.785 1170.92 796.771 1179.91 791.45C1194.43 782.845 1211.51 773.632 1226.05 767.853C1255.13 756.284 1282.28 754.567 1312.88 753.128C1325.1 752.552 1333.15 733.476 1319.77 727.675L1319.75 727.665Z" fill="#191919"/>
<path d="M562.951 1239.6C556.98 1237.55 552.843 1244.54 550.657 1248.84C548.001 1254.09 545.709 1259.48 544.29 1265.2C541.582 1276.15 540.899 1287.95 543.864 1298.93C546.316 1308.05 551.819 1317.07 559.134 1323.11C562.631 1326 567.131 1328.93 571.599 1329.99C575.449 1330.9 581.836 1331.24 585.185 1328.73C587.221 1327.21 587.499 1324.99 585.92 1323.01C583.916 1320.46 580.002 1318.26 577.379 1316.29C574.564 1314.18 572.069 1311.96 569.669 1309.35C565.063 1304.33 562.194 1297.87 560.744 1291.28C558.878 1282.77 560.2 1273.96 562.45 1265.67C563.73 1260.96 565.329 1256.35 566.673 1251.66C567.91 1247.37 568.017 1241.35 562.951 1239.61V1239.6Z" fill="#191919"/>
<path d="M891.886 1127.12C881.222 1146.01 874.099 1166.9 870.985 1188.37C866.677 1187.01 864.587 1182.23 863.18 1177.94C857.88 1161.77 843.73 1113.52 857.645 1099.9C868.938 1110.22 874.941 1122.75 891.886 1127.11V1127.12Z" fill="#191919"/>
<path d="M1208.03 1063.51C1207.05 1064.61 1205.99 1065.92 1206.25 1067.36C1206.39 1068.12 1206.88 1068.75 1207.36 1069.35C1218.93 1083.77 1231.87 1097.1 1245.95 1109.09C1243.18 1106.73 1245.96 1071.92 1245.3 1065.96C1243.9 1053.55 1242.84 1034.46 1235.49 1024.44C1224.69 1028.37 1216.28 1054.26 1208.03 1063.51Z" fill="#191919"/>
</g>
<defs>
<clipPath id="clip0_157_135">
<rect width="1925" height="1638" fill="white" transform="translate(37 181)"/>
</clipPath>
</defs>
</svg>
