<svg width="2000" height="2000" viewBox="0 0 2000 2000" fill="none" xmlns="http://www.w3.org/2000/svg">
<g clip-path="url(#clip0_157_136)">
<path d="M1023.24 1573.56C987.551 1533.58 937.76 1499.86 881.674 1506.13C833.146 1511.57 797.092 1546.85 786.112 1593.94C782.494 1609.45 781.127 1625.7 782.31 1641.59C783.654 1659.69 786.215 1679.21 794.715 1695.49C796.966 1699.8 803.812 1697.74 803.754 1693.04C803.547 1677.36 800.171 1661.86 799.803 1646.15C799.516 1633.59 799.941 1620.76 802.215 1608.38C806.005 1587.74 814.356 1567.74 829.184 1552.58C858.128 1522.97 901.878 1520.52 939.402 1533.01C967.945 1542.5 994.27 1560.25 1015.44 1581.37C1020.5 1586.41 1027.92 1578.84 1023.23 1573.58L1023.24 1573.56Z" fill="black"/>
<path d="M768.515 1685.34C797.654 1711.28 838.51 1715.46 875.816 1710.72C919.026 1705.23 962.569 1689.65 997.026 1662.66C1000.95 1659.58 995.958 1654.07 991.949 1656.08C955.711 1674.27 918.302 1691.16 877.918 1697.43C843.724 1702.74 804.201 1700.73 776.934 1676.92C771.191 1671.91 762.772 1680.22 768.515 1685.34Z" fill="black"/>
<path d="M984.07 1667.91C993.017 1703.88 1000.01 1740.37 1002.75 1777.36C1003.71 1790.43 1003.83 1803.49 1004.18 1816.57C1004.49 1827.97 1003.29 1840.38 1005.89 1851.51C1007.34 1857.71 1016.01 1857.05 1017.79 1851.51C1021.25 1840.75 1020.68 1827.8 1020.81 1816.57C1020.99 1802.76 1019.78 1788.81 1018.38 1775.08C1014.55 1737.6 1006.73 1700.7 996.808 1664.39C994.568 1656.17 982.002 1659.63 984.058 1667.9L984.07 1667.91Z" fill="black"/>
<path d="M799.604 1560.42C782.387 1543.95 762.011 1529.07 738.419 1523.59C718.824 1519.04 698.437 1520.44 680.002 1528.61C644.476 1544.35 622.343 1581.76 618.851 1619.59C616.588 1644.06 622.285 1669.06 635.414 1689.86C638.262 1694.36 645.958 1691.56 644.281 1686.13C633.806 1652.22 632.002 1614.59 650.116 1582.83C665.599 1555.69 694.52 1538.02 726.256 1541.72C749.457 1544.42 770.867 1556.76 788.245 1571.79C795.998 1578.5 807.185 1567.65 799.616 1560.41L799.604 1560.42Z" fill="black"/>
<path d="M611.96 1699.68C639.617 1707.31 667.792 1713.67 696.461 1715.86C724.027 1717.98 753.121 1716.82 777.551 1702.65C783.57 1699.17 779.584 1689.42 772.796 1691.37C720.168 1706.37 667.942 1699.08 615.83 1685.66C606.756 1683.32 602.932 1697.19 611.96 1699.68Z" fill="black"/>
<path d="M1027.05 1595.24C1024.73 1615.43 1021.78 1638.79 1013.9 1656.54C1012.5 1659.7 1010.89 1662.78 1009.04 1665.7C1008.24 1666.97 1007.39 1668.21 1006.47 1669.41C1007.63 1667.9 1006.3 1669.58 1006.02 1669.89C1005.47 1670.5 1004.94 1671.12 1004.38 1671.71C1002.43 1673.75 1000.23 1675.46 998.107 1677.3C997.854 1677.52 996.085 1678.9 997.819 1677.59C997.291 1677.99 996.74 1678.36 996.2 1678.75C994.305 1680.16 992.536 1681.98 991.571 1684.17C989.883 1688.03 990.928 1693.3 995.717 1694.38C1003.83 1696.2 1011.48 1690.1 1016.55 1684.37C1021.86 1678.38 1025.63 1671.56 1028.62 1664.18C1037.41 1642.6 1039.49 1618.22 1041.37 1595.23C1041.7 1591.37 1037.86 1588.06 1034.21 1588.06C1029.97 1588.06 1027.49 1591.37 1027.04 1595.23L1027.05 1595.24Z" fill="black"/>
<path d="M805.441 693.07C862.997 665.93 931.487 663.368 980.52 709.352C1029.06 754.875 1034.77 824.391 1020.2 885.874C1017.45 897.502 1036.48 902.627 1040.45 891.355C1065.06 821.61 1056.43 743.052 999.931 690.967C943.076 638.55 863.468 638.906 797.011 671.859C783.974 678.328 792.083 699.367 805.441 693.07Z" fill="black"/>
<path d="M559.69 652.648C513.115 622.096 453.606 625.324 407.938 656.819C355.678 692.852 333.671 756.231 328.318 816.865C327.135 830.308 346.213 832.744 348.958 819.657C358.342 775.018 374.388 728.368 407.778 695.816C443.28 661.208 498.895 646.443 542.989 674.02C557.553 683.12 574.392 662.3 559.678 652.648H559.69Z" fill="black"/>
<path d="M968.987 811.809C962.245 812.958 955.388 812.832 948.945 810.281C942.214 807.627 936.368 804.145 931.176 798.998C922.63 790.518 916.06 777.706 917.37 765.377C917.944 759.908 918.921 756.139 921.298 751.164C922.826 747.97 925.157 745.04 927.569 742.501C933.014 736.733 940.238 733.067 947.612 730.39C930.831 715.384 910.099 706.387 887.576 706.387C831.961 706.387 786.879 760.506 786.879 827.263C786.879 894.021 831.961 948.139 887.576 948.139C943.19 948.139 988.272 894.021 988.272 827.263C988.272 818.611 987.48 810.189 986.044 802.054C981.564 806.903 976.028 810.591 968.999 811.798L968.987 811.809Z" fill="black"/>
<path d="M571.668 769.709C568.671 776.259 564.111 781.751 558.023 785.979C551.924 790.219 543.873 792.138 536.533 792.161C528.7 792.184 521.429 790.035 514.446 786.669C507.451 783.313 501.834 777.856 497.378 771.617C487.546 757.874 489.441 738.709 498.997 725.392C501.811 721.474 504.935 718.774 509.53 717.291C509.714 717.234 509.92 717.234 510.104 717.188C514.997 712.868 521.165 709.892 527.436 708.88C528.861 707.628 530.514 706.605 532.306 705.824C516.123 692.519 496.574 684.705 475.486 684.705C419.871 684.705 374.789 738.824 374.789 805.593C374.789 872.362 419.871 926.469 475.486 926.469C531.1 926.469 576.182 872.35 576.182 805.593C576.182 793.103 574.597 781.05 571.668 769.721V769.709Z" fill="black"/>
<path d="M394.338 602.815C370.688 660.243 354.803 719.773 343.662 780.786C332.613 841.35 325.629 902.673 324.664 964.26C324.618 967.201 329.201 967.914 329.856 964.961C343.191 905.166 350.737 844.315 361.798 784.095C372.825 724.036 387.09 664 408.144 606.619C411.371 597.829 397.76 594.485 394.326 602.804L394.338 602.815Z" fill="black"/>
<path d="M327.582 949.3C296.432 985.436 272.863 1030.27 275.999 1079.23C278.87 1124.1 301.543 1164.26 330.224 1197.82C363.659 1236.95 405.64 1268.6 448.861 1296.12C494.483 1325.16 542.873 1350.06 592.435 1371.66C637.907 1391.49 685.941 1411.45 734.928 1420.64C741.05 1421.78 743.003 1413.82 737.444 1411.49C698.932 1395.35 659.512 1381.45 621.046 1365.1C573.54 1344.9 526.942 1322.29 482.469 1296.03C439.018 1270.37 396.968 1241.23 361.247 1205.39C331.51 1175.55 305.047 1139.67 296.191 1097.72C285.521 1047.16 306.678 998.765 338.654 960.365C345.029 952.712 334.209 941.613 327.593 949.3H327.582Z" fill="black"/>
<path d="M596.456 936.293C613.994 945.933 633.716 953.471 654.069 951.287C671.137 949.461 685.896 941.762 700.782 933.708C710.281 928.571 701.942 915.059 692.443 919.425C680.417 924.964 666.634 931.456 654.08 932.869C636.874 934.799 620.691 928.33 605.92 920.103C595.376 914.232 585.889 930.479 596.467 936.281L596.456 936.293Z" fill="black"/>
<path d="M1192.93 1087.76C1241.94 1039.2 1332.35 1009.65 1392.28 1056.24C1427.1 1083.31 1440.68 1127.37 1429 1169.52C1417.05 1212.6 1385.05 1251.39 1345.89 1272.54C1299.07 1297.81 1243.12 1298.85 1191.47 1293.43C1184.11 1292.66 1182.39 1305.09 1189.71 1306.42C1240.41 1315.65 1294.01 1316.26 1342.12 1295.68C1388.61 1275.8 1426.12 1235.63 1444.38 1188.6C1462.65 1141.55 1454.81 1089.46 1419.25 1052.73C1389.74 1022.25 1346.96 1010.15 1305.39 1014.58C1258.51 1019.56 1213.34 1041.52 1180.16 1074.98C1171.96 1083.25 1184.66 1095.96 1192.94 1087.77L1192.93 1087.76Z" fill="black"/>
<path d="M1262.17 1191.22C1273.4 1185.67 1284.98 1180.97 1296.91 1177.16C1309.04 1173.29 1321.5 1170.43 1333.79 1167.13C1341.38 1165.1 1340.13 1152.44 1331.89 1153.05C1304.77 1155.05 1278.19 1165.19 1254.03 1177.32C1250.15 1179.27 1249.05 1184.76 1251.15 1188.33C1253.47 1192.3 1258.25 1193.14 1262.15 1191.21L1262.17 1191.22Z" fill="black"/>
<path d="M1276.36 1179.83C1279.82 1182.08 1283.03 1185.04 1285.78 1188.48C1286.57 1189.48 1284.96 1187.32 1286.26 1189.12C1286.54 1189.5 1286.8 1189.88 1287.07 1190.27C1287.72 1191.24 1288.34 1192.22 1288.93 1193.23C1289.51 1194.25 1290.06 1195.28 1290.57 1196.34C1290.82 1196.87 1291.07 1197.39 1291.3 1197.93C1291.82 1199.09 1290.79 1196.46 1291.53 1198.53C1293.05 1202.69 1294.36 1206.97 1295.07 1211.34C1294.86 1210.09 1295.11 1211.64 1295.13 1211.88C1295.19 1212.47 1295.23 1213.04 1295.28 1213.63C1295.37 1214.79 1295.46 1215.96 1295.51 1217.13C1295.59 1219.47 1295.47 1221.79 1295.2 1224.1C1294.83 1227.21 1297.91 1230.04 1300.73 1230.38C1303.81 1230.75 1306.94 1228.93 1307.75 1225.8C1310.65 1214.65 1309.42 1203.08 1304.27 1192.79C1299.48 1183.19 1291.64 1174.95 1282.15 1169.92C1275.61 1166.45 1270.18 1175.79 1276.36 1179.83Z" fill="black"/>
<path d="M1222.32 1300.18C1134.64 1372.33 1017.47 1396.7 907.423 1408.48C900.382 1409.24 900.026 1419.62 907.423 1419.73C965.897 1420.51 1024.87 1409.33 1080.46 1391.6C1135.34 1374.09 1188.33 1347.66 1232.45 1310.32C1239.53 1304.33 1229.36 1294.39 1222.32 1300.18Z" fill="black"/>
<path d="M847.629 590.992C875.035 577.146 904.932 578.123 933.9 586.086C942.939 588.567 949.233 574.975 940.435 570.574C932.533 566.61 924.7 563.657 915.959 562.278C907.023 560.876 898.018 560.221 888.978 560.738C871.152 561.75 853.935 566.449 838.062 574.63C827.196 580.226 836.764 596.484 847.629 591.003V590.992Z" fill="black"/>
<path d="M557.988 560.313C540.265 541.791 511.309 532.105 486.741 541.688C481.974 543.549 478.666 548.053 480.125 553.35C481.618 558.797 486.695 560.716 491.783 559.969C490.164 560.21 493.288 559.831 493.851 559.785C495.24 559.681 496.642 559.67 498.032 559.601C500.535 559.475 503.016 559.348 505.532 559.44C506.945 559.486 508.346 559.612 509.759 559.727C510.919 559.819 510.655 559.842 509.655 559.681C510.275 559.773 510.884 559.888 511.504 559.98C512.079 560.061 516.007 560.658 513.377 560.233C513.997 560.336 514.617 560.428 515.237 560.532C516.627 560.773 518.017 561.072 519.384 561.405C521.819 562.002 524.219 562.726 526.574 563.6C527.16 563.818 527.745 564.059 528.331 564.277C529.847 564.84 526.964 563.577 528.4 564.323C529.652 564.967 530.95 565.53 532.202 566.196C534.407 567.38 536.555 568.69 538.6 570.126C538.783 570.252 540.759 571.712 539.829 570.999C539.036 570.39 540.506 571.562 540.633 571.677C541.724 572.585 542.757 573.538 543.791 574.504C547.593 578.123 554.243 578.571 557.976 574.504C561.721 570.425 561.859 564.369 557.976 560.313H557.988Z" fill="black"/>
<path d="M834.559 627.128C842.898 624.899 851.386 623.164 859.966 622.153C864.285 621.648 868.626 621.28 872.968 621.073C877.356 620.866 881.651 620.326 886.016 619.901C890.61 619.453 890.472 613.444 886.016 612.846C868.236 610.456 849.399 613.938 832.216 618.626C826.749 620.119 829.069 628.599 834.559 627.128Z" fill="black"/>
<path d="M523.498 627.795C534.64 627.668 545.253 630.69 555.119 636.217C557.347 637.469 560.288 636.757 561.597 634.516C562.964 632.184 562.022 629.461 559.897 628.036C549.261 620.878 536.248 617.362 523.487 617.224C520.719 617.189 518.065 619.683 518.192 622.521C518.318 625.359 520.512 627.841 523.487 627.818L523.498 627.795Z" fill="black"/>
<path d="M776.303 337.807C828.529 495.176 940.034 631.311 1083.14 714.775C1123.07 738.066 1165.38 756.725 1209.8 769.548C1217.15 771.674 1219.81 760.896 1212.9 758.277C1137.17 729.517 1065.46 690.336 1002.55 639.078C940.574 588.579 887.314 527.486 846.217 458.879C822.66 419.537 803.249 377.862 788.398 334.464C785.802 326.869 773.719 330.086 776.28 337.807H776.303Z" fill="black"/>
<path d="M1090.51 749.9C1140.54 774.949 1191.23 798.446 1243.81 817.68C1317.88 844.786 1399.03 867.548 1478.67 861.492C1518.52 858.459 1557.13 846.969 1588.56 821.576C1593.34 817.715 1586.58 811.2 1581.86 814.877C1522.96 860.619 1439.71 856.356 1370.56 842.97C1297.84 828.895 1227.57 802.571 1160.33 771.938C1138.6 762.034 1117.21 751.451 1095.86 740.766C1089.78 737.721 1084.42 746.855 1090.52 749.9H1090.51Z" fill="black"/>
<path d="M878.273 140.947C1019.73 128.147 1161.11 161.905 1281.21 237.809C1397.55 311.334 1486.91 421.903 1544.81 546.123C1581.6 625.049 1584.86 712.764 1596.84 797.435C1597.43 801.617 1604.41 800.629 1604.2 796.435C1602.92 771.318 1599.38 746.534 1596.52 721.566C1594.39 702.975 1592.41 684.418 1589.15 665.976C1583.06 631.54 1574.26 597.656 1562.49 564.725C1550.77 531.967 1538.52 499.737 1522.46 468.817C1506.09 437.323 1486.03 408.058 1464.14 380.16C1377.39 269.579 1253.69 185.138 1118.72 145.968C1039.93 123.091 957.744 116.128 876.401 127.09C868.602 128.147 870.36 141.659 878.273 140.947Z" fill="black"/>
<path d="M1586.35 907.935C1579.54 994.272 1554 1080.3 1509.87 1155.04C1467.96 1226.04 1406.39 1287.19 1328.91 1317.89C1306.27 1326.86 1282.68 1333.32 1258.66 1337.29C1232.58 1341.58 1206.15 1342.04 1179.86 1343.96C1174.21 1344.38 1172.04 1353.46 1178.42 1354.57C1224.17 1362.52 1273.69 1354.65 1317.47 1340.24C1358.53 1326.73 1396.47 1305.48 1429.97 1278.23C1498.13 1222.8 1545.36 1143.2 1571.18 1059.89C1586.42 1010.71 1595.33 959.285 1598.7 907.935C1599.23 899.973 1586.98 900.076 1586.35 907.935Z" fill="black"/>
<path d="M1633.2 845.314C1656.2 845.509 1674.97 864.641 1687.94 881.818C1701.07 899.191 1712.04 918.69 1719.36 939.211C1734.82 982.564 1731.77 1026.11 1719.69 1069.82C1707.99 1112.17 1690.54 1153.17 1683.41 1196.72C1677.77 1231.16 1674.94 1280.07 1705.21 1304.75C1722.99 1319.25 1747.21 1318.57 1767.16 1309.07C1789.71 1298.32 1804.48 1276.88 1817.83 1256.67C1822.69 1249.31 1811.27 1243.11 1806.21 1249.88C1793.26 1267.25 1779.22 1287.07 1758.34 1295.42C1738.98 1303.15 1718.59 1298.83 1708 1280.15C1698.63 1263.63 1697.78 1243.41 1698.66 1224.89C1699.68 1203.51 1704.44 1182.53 1710.31 1162C1721.89 1121.51 1738.32 1082.25 1744.95 1040.47C1751.56 998.765 1746.61 957.641 1729.16 919.081C1719.74 898.272 1706.85 878.681 1690.87 862.296C1675.75 846.773 1655.81 832.572 1633.2 833.41C1625.58 833.698 1625.51 845.245 1633.2 845.314Z" fill="black"/>
<path d="M1586.99 911.865C1583.1 976.508 1570.26 1040.58 1551.35 1102.49C1533.48 1160.94 1510.2 1220.05 1516.46 1282.38C1521.67 1334.1 1548.13 1379.31 1594.6 1404.06C1614.99 1414.91 1638.16 1421.47 1661.38 1420.36C1684.95 1419.23 1706.7 1409.8 1725.82 1396.3C1769.24 1365.63 1803.13 1311.89 1814.25 1260.03C1815.05 1256.26 1809.8 1254.86 1808.5 1258.44C1792.49 1302.75 1767.23 1344.31 1729.77 1373.74C1712.4 1387.38 1692.09 1399.75 1669.79 1402.52C1648.78 1405.12 1626.95 1400.1 1608.09 1390.82C1563.07 1368.64 1537.67 1325.92 1534.37 1276.34C1530.52 1218.54 1551.93 1163.3 1567.89 1108.77C1586.65 1044.63 1596.07 978.577 1598.87 911.865C1599.2 904.178 1587.43 904.258 1586.97 911.865H1586.99Z" fill="black"/>
<path d="M1626.25 886.058C1677.12 968.511 1627.38 1065.19 1609.32 1149.33C1601.01 1188.1 1598.3 1229.07 1610.2 1267.43C1620.8 1301.6 1646.45 1339.49 1684.33 1345.65C1733.05 1353.58 1769.02 1312.94 1795.18 1278C1797.35 1275.09 1792.56 1271.44 1790.16 1274.13C1763.53 1303.91 1729.11 1343.99 1684.09 1335.77C1645.11 1328.66 1622.59 1286.06 1615.12 1250.79C1597.44 1167.26 1642.94 1088.41 1653.54 1007.21C1659.1 964.593 1655.72 919.632 1632.35 882.496C1629.94 878.67 1623.86 882.174 1626.27 886.058H1626.25Z" fill="black"/>
<path d="M1154.59 1721.19C1157.16 1758.34 1141.82 1792.25 1111 1813.6C1097.06 1823.26 1081.44 1830.87 1065.17 1835.67C1048.7 1840.54 1032.53 1841.09 1015.61 1842.62C1010.54 1843.08 1008.88 1850.48 1014.35 1851.93C1028 1855.55 1043.15 1854.34 1057 1852.47C1072.1 1850.42 1086.68 1846.4 1100.67 1840.39C1128.53 1828.44 1151.87 1805.52 1163.25 1777.39C1170.45 1759.62 1172.39 1740.19 1170.45 1721.18C1169.44 1711.2 1153.87 1710.88 1154.58 1721.18L1154.59 1721.19Z" fill="black"/>
<path d="M1167.83 1617.86C1168.41 1632.18 1166.38 1648.09 1164.23 1662.28C1162.56 1673.21 1159.94 1683.94 1156.71 1694.51C1150.52 1714.84 1141.1 1734.41 1128 1751.22C1100.42 1786.57 1060.21 1801.26 1016.79 1805.57C1011.46 1806.09 1009.49 1814.08 1015.45 1815.53C1064.34 1827.42 1111.8 1803.18 1141.69 1764.91C1156.37 1746.13 1167.05 1724.5 1173.94 1701.71C1177.59 1689.63 1179.77 1677.12 1181.14 1664.58C1181.99 1656.85 1182.64 1648.98 1182.14 1641.21C1181.6 1632.79 1179.31 1624.79 1178.01 1616.5C1177.1 1610.72 1167.6 1612.1 1167.83 1617.87V1617.86Z" fill="black"/>
<path d="M607.609 1699.35C614.673 1720.18 622.047 1740.91 630.489 1761.23C634.359 1770.53 638.391 1779.76 642.595 1788.92C647.028 1798.57 651.784 1811.37 659.996 1818.4C663.465 1821.36 670.115 1819.69 669.782 1814.34C669.104 1803.66 662.488 1792.57 657.871 1783.08C653.506 1774.09 649.28 1765.04 645.26 1755.89C636.553 1736.09 628.961 1715.82 621.633 1695.48C618.497 1686.77 604.577 1690.4 607.609 1699.35Z" fill="black"/>
<path d="M616.717 1691.03C616.947 1690.71 617.176 1690.4 617.406 1690.08C617.785 1689.55 616.453 1691.27 617.245 1690.29C617.636 1689.8 618.026 1689.33 618.451 1688.87C619.106 1688.16 619.807 1687.49 620.553 1686.86C621.277 1686.24 619.221 1687.82 620.14 1687.18C620.312 1687.07 620.473 1686.94 620.645 1686.83C621.001 1686.59 621.369 1686.37 621.748 1686.15C622.081 1685.97 622.425 1685.78 622.781 1685.62C622.954 1685.54 623.126 1685.46 623.298 1685.38C624.355 1684.89 622.23 1685.82 622.724 1685.62C624.39 1684.97 626.078 1684.37 627.732 1683.69C629.237 1683.07 630.385 1682.52 631.66 1681.55C632.981 1680.54 634.279 1679.51 635.519 1678.4C638.793 1675.46 635.359 1669.74 631.235 1671.04C628.892 1671.78 626.48 1672.19 624.171 1673.03C622.437 1673.65 620.668 1674.17 618.957 1674.84C616.43 1675.85 614.362 1676.99 612.214 1678.69C609.94 1680.48 608.183 1682.74 606.426 1685.02C605.553 1686.16 605.461 1688.3 605.828 1689.61C606.207 1690.99 607.276 1692.48 608.562 1693.17C611.629 1694.79 614.776 1693.76 616.705 1691.03H616.717Z" fill="black"/>
<path d="M606.321 1568.64C596.639 1589.47 587.128 1612.11 586.106 1635.4C585.658 1645.53 587.094 1656.03 591.034 1665.41C594.755 1674.25 601.589 1684.99 611.616 1687.11C616.728 1688.21 620.851 1683.08 618.336 1678.37C614.476 1671.13 608.251 1666.34 605.77 1658.19C603.197 1649.71 603.634 1641.12 604.357 1632.4C606 1612.58 613.087 1592.93 620.024 1574.42C622.976 1566.54 609.905 1560.94 606.333 1568.64H606.321Z" fill="black"/>
<path d="M765.814 1685.43C771.488 1708.2 779.138 1730.35 788.097 1752.03C797.01 1773.61 806.566 1795.06 819.108 1814.78C822.267 1819.74 830.973 1816.67 828.975 1810.62C821.785 1788.84 811.355 1768.33 802.35 1747.25C793.242 1725.93 785.478 1704.06 779.62 1681.62C777.288 1672.69 763.574 1676.47 765.802 1685.44L765.814 1685.43Z" fill="black"/>
<path d="M819.671 1810.6C812.32 1824.57 790.13 1844.85 800.467 1862.1C806.509 1872.16 819.982 1873.73 830.468 1875C842.482 1876.46 854.6 1876.99 866.695 1877.01C893.64 1877.05 920.69 1874.63 947.291 1870.44C968.299 1867.13 992.878 1864.5 1011.26 1853.15C1015.61 1850.46 1012.71 1844.09 1007.86 1845.09C989.777 1848.8 972.284 1854.26 953.93 1856.83C930.671 1860.1 907.113 1861.57 883.636 1861.32C872.529 1861.2 861.423 1860.7 850.362 1859.64C840.886 1858.73 828.734 1858.39 820.027 1854.24C814.755 1851.73 818.511 1848.23 821.256 1843.66C826.023 1835.72 831.628 1828.36 835.82 1820.08C841.242 1809.37 825.288 1799.9 819.648 1810.62L819.671 1810.6Z" fill="black"/>
<path d="M653.909 1812.56C643.94 1814.72 629.49 1827.73 632.879 1839.17C636.152 1850.25 657.114 1850.85 666.349 1851.46C690.825 1853.09 715.221 1854.32 739.755 1853.24C751.401 1852.72 763.037 1851.81 774.614 1850.37C785.767 1848.98 797.598 1847.62 807.889 1842.86C811.071 1841.39 809.221 1836.84 806.224 1836.7C788.535 1835.88 770.215 1839.93 752.447 1840.47C734.425 1841.02 716.393 1840.37 698.371 1839.81C683.819 1839.35 668.313 1840 654.059 1836.84C651.417 1836.26 648.798 1835.39 646.145 1834.89C645.479 1834.76 644.273 1834.53 643.698 1834.14C645.777 1835.54 644.066 1835.29 645.479 1834.14C647.328 1832.64 648.557 1829.33 650.429 1827.56C652.359 1825.74 654.38 1824.28 656.953 1823.61C664.12 1821.73 661.088 1811 653.909 1812.55V1812.56Z" fill="black"/>
<path d="M653.082 1825.85C659.399 1822.17 667.118 1820.84 674.262 1819.85C684.025 1818.49 693.96 1818.16 703.792 1818.12C721.262 1818.07 740.34 1818.53 757.167 1820.85C765.46 1822 769.411 1809.77 760.739 1807.88C741.558 1803.69 721.94 1802.79 702.356 1803.34C684.255 1803.84 662.144 1804.29 646.179 1814.03C638.69 1818.61 645.444 1830.28 653.07 1825.83L653.082 1825.85Z" fill="black"/>
<path d="M853.429 1821.17C867.925 1817.83 883.947 1819.03 898.661 1819.83C918.474 1820.91 938.23 1822.78 958.043 1823.95C963.809 1824.29 964.521 1815.84 959.364 1814.21C939.459 1807.91 918.646 1805.62 897.857 1804.89C882.064 1804.32 865.156 1803.72 849.685 1807.55C840.864 1809.75 844.597 1823.19 853.429 1821.16V1821.17Z" fill="black"/>
<path d="M964.958 1613.26C967.497 1622.85 970.782 1632.2 973.492 1641.74C974.79 1646.29 975.893 1650.91 976.628 1655.59C977.409 1660.56 977.329 1666.82 981.383 1670.92C983.29 1672.84 987.172 1673.19 989.021 1670.92C991.319 1668.11 992.054 1665.7 992.1 1662.07C992.145 1659.01 991.629 1656.02 991.031 1653.03C990.078 1648.23 988.734 1643.51 987.172 1638.87C983.899 1629.16 979.729 1619.78 976.421 1610.08C973.975 1602.89 962.971 1605.76 964.947 1613.24L964.958 1613.26Z" fill="black"/>
<path d="M779.025 314.413C730.417 419.215 695.431 531.933 682.004 646.949C678.156 679.891 675.618 712.741 675.824 745.925C675.859 751.463 683.566 751.13 684.197 745.925C691.169 688.773 698.44 631.598 710.052 575.17C721.572 519.156 736.562 464.256 754.525 409.965C764.759 379.057 776.245 348.585 788.891 318.584C791.246 312.989 781.598 308.875 779.025 314.425V314.413Z" fill="black"/>
<path d="M675.557 307.439C620.988 407.84 575.906 519.96 582.074 636.366C582.935 652.694 584.739 668.975 587.461 685.084C590.091 700.596 592.94 717.28 601.313 730.85C602.795 733.263 606.619 732.286 606.654 729.402C606.792 716.039 603.472 702.768 601.462 689.6C599.268 675.203 597.97 660.668 597.408 646.121C596.305 617.948 597.637 589.441 601.141 561.462C608.044 506.298 624.353 452.122 644.971 400.635C656.916 370.795 670.653 341.714 685.275 313.115C688.548 306.704 679.038 301.05 675.569 307.439H675.557Z" fill="black"/>
<path d="M781.044 333.694C760.886 396.464 747.092 461.154 740.797 526.797C737.65 559.589 735.847 592.75 736.525 625.704C737.191 657.968 738.741 691.634 744.944 723.358C745.323 725.323 748.459 724.863 748.413 722.887C747.586 689.887 745.174 657.118 745.3 624.049C745.426 592.095 746.655 560.244 749.745 528.44C756.085 463.095 768.685 398.372 787.832 335.578C789.164 331.212 782.411 329.396 781.032 333.705L781.044 333.694Z" fill="black"/>
<path d="M671.838 313.115C600.167 395.809 544.575 491.706 514.562 597.38C506.132 627.048 499.435 657.141 495.806 687.796C495.186 693.036 503.628 693.989 504.903 689.026C518.112 637.412 532.963 586.419 552.971 536.977C572.807 487.96 597.479 440.54 626.182 396.143C642.951 370.198 660.088 344.862 679.649 320.905C684.071 315.494 676.548 307.692 671.861 313.115H671.838Z" fill="black"/>
<path d="M576.655 281.77C488.753 366.291 433.276 480.618 419.459 601.632C415.623 635.229 415.037 670.641 421.859 703.882C422.916 709.041 430.543 707.605 430.738 702.676C431.852 673.548 432.197 644.674 434.839 615.615C437.538 586.028 442.959 556.705 450.746 528.038C466.034 471.77 490.304 417.813 522.786 369.394C541.508 341.496 563.032 315.654 586.934 292.065C593.619 285.47 583.397 275.278 576.655 281.781V281.77Z" fill="black"/>
<path d="M469.503 571.172C458.097 602.999 452.09 636.757 454.652 670.561C454.939 674.341 460.567 674.445 460.601 670.561C460.946 637.401 465.081 604.378 475.659 572.872C476.98 568.942 470.87 567.334 469.491 571.172H469.503Z" fill="black"/>
<path d="M863.779 128.262C846.16 129.135 828.311 129.02 810.795 131.1C792.98 133.226 775.108 135.65 757.489 139.051C721.389 146.014 685.679 156.16 650.831 167.834C582.272 190.791 516.194 222.079 455.411 261.283C341.896 334.51 242.704 445.987 231.804 586.235C226.164 658.761 244.094 741.616 298.307 793.448C302.143 797.113 309.127 792.287 305.922 787.565C269.133 733.481 247.459 672.756 248.539 606.848C249.618 541.458 272.51 478.952 308.679 424.925C384.325 311.92 511.875 241.313 636.658 195.399C673.183 181.955 710.558 170.764 748.484 162.031C767.585 157.631 786.709 153.265 805.994 149.691C825.267 146.118 844.288 141.694 863.791 139.499C870.797 138.707 871.165 127.894 863.791 128.251L863.779 128.262Z" fill="black"/>
<path d="M455.109 447.423C402.516 507.815 367.771 586.844 368.621 667.689C368.701 675.513 379.728 675.157 380.52 667.689C388.687 590.969 415.184 517.122 465.699 458.028C471.925 450.744 461.472 440.115 455.098 447.423H455.109Z" fill="black"/>
<path d="M397.61 310.151C329.051 350.309 272.219 407.794 232.214 476.458C191.209 546.835 162.127 636.366 195.62 715.441C210.988 751.716 238.749 784.313 277.02 796.918C279.605 797.768 281.351 793.724 278.893 792.483C247.318 776.603 222.658 750.923 207.634 718.923C190.543 682.522 188.143 641.204 195.023 601.965C208.427 525.544 251.751 453.559 304.426 397.636C333.336 366.946 366.105 339.738 401.849 317.378C406.409 314.528 402.297 307.404 397.622 310.139L397.61 310.151Z" fill="black"/>
<path d="M1133.35 874.304C1154.46 936.258 1163.03 1001.22 1160.57 1066.56C1158.13 1131.51 1142.6 1195.53 1120.49 1256.48C1119.12 1260.23 1125.1 1262.73 1126.93 1259.2C1174.39 1167.69 1184.24 1058.35 1166.09 957.711C1160.8 928.422 1152.92 899.674 1142.7 871.73C1140.59 865.939 1131.32 868.34 1133.35 874.304Z" fill="black"/>
<path d="M1176.87 949.874C1199.61 1047.12 1174.51 1151.31 1115.56 1231.11C1113.71 1233.61 1117.86 1236.82 1119.89 1234.45C1186.84 1156.44 1209.19 1046.9 1184.32 947.829C1183.11 943.003 1175.75 945.048 1176.87 949.886V949.874Z" fill="black"/>
<path d="M773.121 1689.65C777.291 1687.6 781.448 1685.52 785.572 1683.37C787.846 1682.19 790.166 1681.13 792.188 1679.54C793.394 1678.6 794.359 1677.8 795.209 1676.47C796.334 1674.7 796.989 1672.61 795.84 1670.65C793.842 1667.24 789.247 1668.14 786.227 1669.32C783.837 1670.24 781.701 1671.69 779.507 1673.02C775.522 1675.41 771.594 1677.86 767.665 1680.34C765.276 1681.84 764.116 1685.22 765.724 1687.72C767.401 1690.32 770.399 1691 773.11 1689.67L773.121 1689.65Z" fill="black"/>
<path d="M788.281 1676.52L786.799 1684.79C786.523 1686.32 786.018 1688.01 786.098 1689.56C786.133 1690.27 786.248 1691 786.328 1691.71C786.374 1692.16 786.397 1692.73 786.512 1693.15C786.696 1693.82 787.132 1694.28 787.546 1694.81C788.487 1696.01 790.302 1695.64 791.29 1694.81C792.106 1694.13 792.427 1693.25 792.737 1692.28C792.955 1691.62 793.243 1690.94 793.403 1690.26C793.736 1688.77 793.622 1687.11 793.668 1685.59C793.748 1682.83 793.84 1680.06 793.92 1677.3C793.966 1675.88 792.795 1674.67 791.439 1674.49C790.141 1674.31 788.545 1675.13 788.292 1676.54L788.281 1676.52Z" fill="black"/>
<path d="M792.358 1691.27C798.319 1691.27 798.319 1682.01 792.358 1682.01C786.396 1682.01 786.396 1691.27 792.358 1691.27Z" fill="black"/>
<path d="M619.059 1681.96C619.093 1684.35 619.116 1686.75 619.15 1689.14C619.15 1689.75 619.15 1690.37 619.173 1690.96C619.219 1691.78 619.426 1692.61 619.564 1693.42L619.863 1695.03C619.977 1695.67 620.242 1696.23 620.494 1696.83C620.988 1698.02 621.942 1699.09 623.366 1699.02C624.802 1698.95 625.697 1698.1 626.237 1696.83C626.467 1696.28 626.731 1695.75 626.846 1695.17L627.168 1693.42C627.317 1692.62 627.535 1691.78 627.558 1690.96C627.581 1690.35 627.57 1689.75 627.581 1689.14C627.616 1686.75 627.639 1684.35 627.673 1681.96C627.696 1679.7 625.674 1677.55 623.377 1677.66C621.069 1677.76 619.047 1679.54 619.082 1681.96H619.059Z" fill="black"/>
<path d="M633.166 1678.5C631.776 1682.67 630.375 1686.83 628.985 1691C628.56 1692.25 629.467 1693.81 630.754 1694.11C632.063 1694.41 633.522 1693.72 633.866 1692.34C634.291 1690.66 634.624 1688.95 634.992 1687.26C635.256 1686.08 634.636 1684.7 633.372 1684.41C632.12 1684.13 630.914 1684.79 630.524 1686.03C630.007 1687.69 629.456 1689.33 628.985 1691C630.616 1691.45 632.235 1691.89 633.866 1692.34C634.487 1687.96 635.107 1683.58 635.716 1679.2C635.819 1678.5 635.543 1677.77 634.797 1677.57C634.073 1677.37 633.395 1677.81 633.166 1678.49V1678.5Z" fill="black"/>
<path d="M639.929 1685.08C639.997 1686.64 640.078 1688.21 640.147 1689.78C640.17 1690.31 640.354 1690.8 640.733 1691.18C641.077 1691.53 641.64 1691.79 642.134 1691.77C643.248 1691.72 644.063 1690.89 644.121 1689.78C644.19 1688.22 644.27 1686.65 644.339 1685.08C644.362 1684.53 644.075 1683.91 643.696 1683.52C643.317 1683.14 642.685 1682.85 642.134 1682.87C641.56 1682.9 640.974 1683.09 640.572 1683.52C640.181 1683.94 639.894 1684.49 639.929 1685.08Z" fill="black"/>
<path d="M626.306 1683.78C625.066 1685.84 623.71 1687.82 622.252 1689.72C622.516 1689.38 622.78 1689.03 623.044 1688.69C622.102 1689.91 621.126 1691.09 620.104 1692.24C619.392 1693.03 618.645 1693.79 618.14 1694.74C617.772 1695.42 617.359 1696.08 617.037 1696.77C619.472 1697.43 621.919 1698.09 624.354 1698.75C624.319 1698.35 624.308 1697.94 624.262 1697.54C624.216 1697.83 624.181 1698.14 624.135 1698.44C624.331 1697.77 624.526 1697.09 624.756 1696.41C623.171 1697.05 621.586 1697.7 620.001 1698.34C621.092 1699.24 622.332 1699.86 623.71 1700.22C624.664 1700.35 625.629 1700.48 626.582 1700.62C629.453 1700.74 632.164 1699.34 634.22 1697.46C636.345 1695.51 637.264 1692.61 637.379 1689.81C637.379 1687.86 636.885 1686.05 635.908 1684.36C635.231 1683.09 634.3 1682.09 633.129 1681.32C632.084 1680.37 630.866 1679.73 629.453 1679.39C628.018 1678.94 626.582 1678.88 625.146 1679.2C623.71 1679.27 622.367 1679.69 621.126 1680.48C619.863 1681.16 618.852 1682.09 618.094 1683.27C617.141 1684.31 616.497 1685.53 616.164 1686.94C615.716 1688.38 615.647 1689.81 615.969 1691.25C616.038 1692.69 616.463 1694.03 617.255 1695.27C617.83 1696.24 618.53 1697.1 619.346 1697.85L618.84 1693.93C618.588 1694.4 618.347 1694.87 618.117 1695.34C617.749 1696.09 618.565 1694.96 618.151 1695.41C617.979 1695.59 617.807 1695.79 617.646 1695.98C616.543 1697.26 616.049 1699.21 617.037 1700.74C617.933 1702.13 619.794 1703.13 621.471 1702.55C623.331 1701.89 625.123 1700.99 626.57 1699.64C627.616 1698.67 628.615 1697.66 629.591 1696.63C631.774 1694.31 633.761 1691.81 635.633 1689.24C636.414 1688.17 636.517 1686.3 636.173 1685.08C635.828 1683.83 634.863 1682.47 633.692 1681.85C631.073 1680.46 627.868 1681.21 626.306 1683.79V1683.78Z" fill="black"/>
<path d="M1023.72 1609.26C1057.63 1578.54 1108.14 1591.45 1144.64 1609.79C1160.41 1617.71 1178.63 1629.32 1184.27 1647.12C1188.98 1661.96 1186.24 1679.76 1172.46 1688.69C1168.14 1691.48 1170.78 1699.1 1176.11 1697.35C1195.13 1691.11 1204.44 1670.12 1202.25 1651.05C1199.55 1627.47 1181.35 1609.99 1161.57 1598.95C1118.25 1574.78 1052.97 1558.25 1014.99 1600.5C1009.67 1606.42 1017.8 1614.58 1023.72 1609.23V1609.26Z" fill="black"/>
<path d="M1013.41 1616.35C1015.22 1619.09 1017.04 1621.84 1018.85 1624.59C1019.92 1626.19 1020.89 1628.02 1022.23 1629.43C1023.34 1630.62 1024.52 1631.75 1025.67 1632.92C1026.96 1634.21 1029.29 1634.62 1030.88 1633.59C1032.38 1632.63 1033.53 1630.56 1032.85 1628.73C1032.31 1627.27 1031.77 1625.83 1031.22 1624.37C1030.49 1622.46 1029.36 1620.79 1028.29 1619.07C1026.57 1616.27 1024.83 1613.47 1023.11 1610.67C1021.57 1608.17 1018.01 1606.98 1015.43 1608.65C1012.98 1610.22 1011.67 1613.72 1013.41 1616.34V1616.35Z" fill="black"/>
<path d="M596.421 1601.15C594.871 1599.32 594.664 1599.09 593.355 1597.09C592.436 1595.69 591.689 1594.22 590.92 1592.72C590.23 1591.38 591.264 1594 590.885 1592.6C590.816 1592.33 590.69 1592.07 590.609 1591.8C590.403 1591.17 590.265 1590.53 590.104 1589.88C589.668 1588.18 590.035 1591.01 590.058 1589.61C590.058 1589.02 590.127 1588.3 590.058 1587.72C589.909 1586.59 589.702 1589 589.966 1588.32C590.058 1588.08 590.047 1587.78 590.127 1587.54C590.184 1587.37 590.529 1586.01 590.598 1586.04C590.644 1586.05 589.725 1587.74 590.678 1586.07C590.805 1585.84 590.965 1585.62 591.092 1585.39C591.632 1584.38 590.897 1585.17 590.793 1585.73C590.965 1584.9 592.562 1583.93 593.136 1583.37C593.768 1582.74 591.712 1584.28 593.297 1583.28C593.86 1582.92 594.423 1582.54 595.009 1582.21C595.56 1581.89 596.123 1581.6 596.697 1581.31C597.202 1581.06 599.339 1580.22 597.179 1581.05C598.477 1580.55 599.775 1580.06 601.108 1579.65C603.968 1578.76 606.896 1578.17 609.825 1577.57C611.273 1577.28 612.731 1577.03 614.19 1576.8C614.58 1576.74 614.959 1576.69 615.35 1576.63C613.386 1576.92 614.362 1576.75 614.799 1576.71C615.741 1576.61 616.671 1576.49 617.601 1576.4C620.645 1576.1 623.712 1575.94 626.778 1575.9C629.834 1575.87 632.866 1576.12 635.91 1576.13C637.219 1576.13 638.517 1576.15 639.826 1576.22C640.458 1576.26 641.09 1576.33 641.722 1576.37C643.605 1576.52 640.584 1576.18 642.02 1576.41C645.363 1576.95 648.774 1575.55 649.75 1572.02C650.715 1568.49 648.556 1565.48 645.363 1564.28C633.279 1559.75 618.796 1561 606.357 1563.25C594.067 1565.48 578.308 1572.36 577.079 1586.58C576.31 1595.46 582.271 1603.49 588.048 1609.56C590.265 1611.88 594.227 1611.8 596.467 1609.56C598.891 1607.13 598.558 1603.59 596.467 1601.13L596.421 1601.15Z" fill="black"/>
<path d="M588.622 1580.44C600.28 1552.27 615.097 1525.46 633.302 1500.97C656.4 1469.89 685.045 1443.97 713.082 1417.51C717.24 1413.59 711.842 1406.45 706.938 1409.55C645.683 1448.33 601.75 1510.1 575.229 1576.75C571.91 1585.11 585.256 1588.56 588.622 1580.44Z" fill="black"/>
<path d="M1041.4 1406.38C1085.91 1437.99 1123.34 1480.04 1152.32 1526.14C1166.55 1548.78 1180.19 1572.8 1188.39 1598.36C1192.58 1611.42 1195.64 1624.95 1195.59 1638.73C1195.55 1652.01 1191.67 1664.67 1188.07 1677.35C1186.77 1681.9 1192.86 1685.69 1196.18 1682.07C1215.24 1661.27 1212.31 1628.12 1205.33 1602.82C1197.58 1574.78 1182.73 1548.58 1167.28 1524.14C1135.8 1474.32 1095.64 1430.67 1045.85 1398.77C1041 1395.67 1036.84 1403.15 1041.4 1406.39V1406.38Z" fill="black"/>
<path d="M720.895 1421.47C736.47 1469 783.929 1507 835.064 1505.73C884.35 1504.51 934.716 1468.66 953.599 1423.65C956.103 1417.67 946.454 1413.96 943.33 1419.31C932.246 1438.31 915.339 1454.21 897.536 1466.85C879.71 1479.51 858.381 1489.92 836.225 1491.25C790.534 1494 746.738 1460.64 731.956 1418.42C729.544 1411.52 718.586 1414.4 720.906 1421.46L720.895 1421.47Z" fill="black"/>
<path d="M707.614 1419.14C713.61 1446.13 726.623 1474.59 748.665 1492.07C751.042 1493.95 755.533 1491.44 753.339 1488.46C745.357 1477.63 737.121 1466.64 730.563 1454.86C723.913 1442.93 719.054 1430.15 715.896 1416.86C714.621 1411.47 706.408 1413.75 707.603 1419.14H707.614Z" fill="black"/>
<path d="M773.717 1505.51C793.116 1512.21 812.78 1518.89 833.409 1520.29C851.12 1521.48 871.392 1518.93 885.382 1507.01C889 1503.93 884.383 1499.34 880.707 1500.95C864.512 1508.01 848.501 1511.78 830.709 1510.36C811.953 1508.87 793.863 1502.7 776.129 1496.82C770.581 1494.98 768.261 1503.64 773.728 1505.54L773.717 1505.51Z" fill="black"/>
<path d="M921.966 1502.72C934.29 1494.9 945.604 1485.47 955.424 1474.66C960.272 1469.32 964.854 1463.69 968.737 1457.6C972.814 1451.21 975.938 1444.59 978.637 1437.51C980.372 1432.95 973.388 1430.38 970.988 1434.29C956.688 1457.53 940.022 1479.18 917.291 1494.71C912.421 1498.04 916.878 1505.94 921.966 1502.71V1502.72Z" fill="black"/>
<path d="M730.244 1498.93C728.522 1502.43 726.81 1505.94 725.087 1509.45C724.042 1511.59 723.135 1513.72 722.411 1515.98C721.825 1517.84 721.228 1519.7 720.642 1521.55C719.815 1524.17 721.412 1527.03 723.835 1528.06C726.5 1529.18 729.096 1528.06 730.715 1525.8C731.829 1524.24 732.944 1522.68 734.058 1521.11C735.195 1519.51 736.137 1517.93 737.021 1516.19C738.755 1512.77 740.501 1509.35 742.236 1505.94C743.086 1504.27 743.442 1502.42 742.936 1500.58C742.488 1498.98 741.248 1497.23 739.743 1496.44C736.619 1494.78 731.956 1495.45 730.244 1498.93Z" fill="black"/>
<path d="M1009.76 1504.49C1010.64 1519.9 1011.13 1535.34 1011.21 1550.77C1011.29 1566.22 1010.34 1581.69 1011.35 1597.11C1011.92 1605.94 1023.74 1605.56 1024.79 1597.11C1026.7 1581.76 1025.92 1566.19 1025.33 1550.77C1024.73 1535.32 1023.71 1519.89 1022.32 1504.49C1021.6 1496.55 1009.29 1496.33 1009.75 1504.49H1009.76Z" fill="black"/>
<path d="M848.007 986.091C888.449 996.064 930.338 989.848 966.151 968.546C972.882 964.536 966.932 954.47 960.029 958.078C927.398 975.141 887.863 979.932 852.051 971.418C842.54 969.155 838.486 983.736 848.007 986.091Z" fill="black"/>
<path d="M397.589 953.333C429.083 971.901 469.169 977.738 503.615 964.007C511.862 960.721 508.91 948.208 499.871 950.403C468.227 958.067 434.413 955.585 405.824 939.246C396.693 934.029 388.538 948.001 397.589 953.333Z" fill="black"/>
<path d="M1589.3 804.961C1591.65 822.127 1591.99 839.638 1590.6 856.908C1589.94 865.192 1588.63 873.293 1587.26 881.474C1585.8 890.229 1583.44 899.122 1584.85 907.935C1585.51 912.095 1591.79 913.565 1594.43 910.463C1600.54 903.305 1602.75 893.343 1604.37 884.185C1605.97 875.177 1606.98 866.019 1607.57 856.896C1608.77 838.075 1607.67 819.3 1604.82 800.675C1604.17 796.378 1598.77 793.999 1594.92 795.056C1590.28 796.332 1588.71 800.629 1589.3 804.961Z" fill="black"/>
<path d="M1597.59 767.308C1616.45 792.655 1625.84 824.678 1623.48 856.218C1622.28 872.109 1618.41 887.333 1612.41 902.075C1609.37 909.532 1606.23 917.208 1601.86 924.01C1597.51 930.801 1591.46 934.477 1585.61 939.659C1583.93 941.153 1585.45 943.382 1587.24 943.612C1602.39 945.6 1613.16 925.779 1619.15 914.703C1628.14 898.054 1635.63 880.612 1637.65 861.642C1641.56 824.954 1630.11 788.576 1606.57 760.356C1602.45 755.416 1593.67 762.068 1597.57 767.308H1597.59Z" fill="black"/>
<path d="M1146.17 849.474C1193.66 902.673 1265.53 923.332 1333.24 936.201C1404.82 949.817 1487.78 954.367 1546.14 902.776C1558.98 891.424 1570.21 877.889 1577.7 862.4C1584.78 847.75 1590.82 829.538 1588.88 813.107C1588.74 811.97 1587.01 811.487 1586.72 812.809C1583.37 827.884 1580.69 841.603 1572.82 855.23C1565.3 868.248 1555.46 880.06 1544.25 890.068C1519.75 911.922 1489.04 924.826 1456.8 929.812C1418.65 935.707 1379.26 931.214 1341.58 924.217C1309.46 918.265 1277.27 910.934 1246.52 899.777C1211.84 887.196 1179.36 868.754 1154.28 841.362C1149.27 835.892 1141.27 843.993 1146.17 849.474Z" fill="black"/>
<path d="M1598.85 806.052C1602.44 852.036 1585.65 896.629 1558.46 933.202C1545.05 951.23 1529.82 967.661 1513.04 982.575C1496.32 997.432 1478.04 1010.36 1460.56 1024.3C1458.03 1026.31 1461.25 1030.05 1463.9 1028.63C1543.19 985.654 1616.26 901.547 1607.24 806.064C1606.73 800.767 1598.44 800.652 1598.86 806.064L1598.85 806.052Z" fill="black"/>
<path d="M1582.5 918.058C1573.7 955.171 1555.76 988.676 1532.52 1018.71C1530.67 1021.1 1533.75 1024.48 1535.94 1022.14C1562.53 993.801 1579.83 957.377 1588.43 919.69C1589.32 915.829 1583.4 914.174 1582.48 918.047L1582.5 918.058Z" fill="black"/>
<path d="M1225.15 484.387C1353.73 536.69 1489.68 596.082 1567.87 717.188C1587.85 748.119 1599.32 781.245 1611.34 815.727C1612.68 819.599 1619.23 819.3 1618.92 814.704C1616.75 782.59 1602.91 751.107 1587.34 723.312C1571.06 694.231 1550.09 667.953 1526.58 644.386C1474.86 592.543 1411.18 555.775 1344.81 525.992C1306.09 508.619 1266.52 493.108 1227.04 477.584C1222.8 475.918 1221.02 482.709 1225.17 484.387H1225.15Z" fill="black"/>
<path d="M1369.51 669.469C1408.73 685.429 1446.43 705.02 1482.04 727.954C1517.74 750.934 1550.64 777.396 1583.1 804.685C1586.96 807.925 1592.3 802.824 1588.71 799.078C1529.29 737.112 1451.38 691.668 1372.04 660.346C1366.34 658.094 1363.95 667.229 1369.52 669.492L1369.51 669.469Z" fill="black"/>
<path d="M1468.91 402.451C1558.15 491.085 1632.92 608.112 1614.49 739.318C1609.59 774.271 1597.16 805.639 1579.44 835.961C1576.74 840.569 1583.48 844.28 1586.48 840.075C1622.77 789.105 1631.65 720.21 1623.49 659.531C1614.76 594.634 1585.64 534.472 1547.19 482.054C1525.08 451.927 1499.98 424.167 1473.27 398.073C1470.43 395.292 1466.08 399.636 1468.91 402.439V402.451Z" fill="black"/>
<path d="M317.36 1448.35C285.177 1485.96 264.353 1535.57 266.329 1585.66C267.994 1628.01 285.935 1667.79 315.591 1697.92C332.246 1714.84 351.99 1728.92 374.48 1736.76C379.947 1738.67 382.508 1730.85 378.212 1727.89C357.48 1713.65 336.829 1699.48 320.232 1680.32C304.622 1662.31 293.056 1640.84 287.141 1617.74C272.933 1562.31 291.655 1499.4 325.676 1454.76C329.294 1450.02 321.265 1443.8 317.372 1448.35H317.36Z" fill="black"/>
<path d="M537.981 1382.24C507.865 1373.15 477.428 1370.78 446.267 1375.27C431.99 1377.33 417.896 1380.68 404.32 1385.59C391.387 1390.27 378.075 1395.7 368.209 1405.54C364.751 1408.97 368.266 1414.88 372.929 1413.65C385.116 1410.41 396.441 1404.45 408.409 1400.44C421.285 1396.13 434.608 1392.97 448.058 1391.12C476.44 1387.23 506.981 1387.25 535.167 1392.44C541.783 1393.66 544.586 1384.24 537.981 1382.24Z" fill="black"/>
<path d="M354.62 1731.12C356.825 1741.19 358.663 1751.32 360.11 1761.52C360.834 1766.61 361.35 1771.73 362.212 1776.79C362.602 1779.1 362.832 1781.48 363.326 1783.77C363.889 1786.4 365.233 1788.94 366.22 1791.43C368.104 1796.14 375.363 1797.17 376.845 1791.43C377.568 1788.64 378.533 1785.73 378.752 1782.85C378.958 1780.13 378.706 1777.29 378.614 1774.57C378.418 1769.05 377.614 1763.58 376.856 1758.12C375.386 1747.53 373.491 1736.99 371.205 1726.54C370.218 1722 364.934 1719.34 360.627 1720.53C355.941 1721.81 353.632 1726.55 354.62 1731.11V1731.12Z" fill="black"/>
<path d="M366.69 1779.68C364.657 1785.68 363.623 1792.12 363.669 1798.45C363.715 1804.59 364.324 1811.35 367.494 1816.75C369.217 1819.69 371.698 1822.12 374.845 1823.44C378.831 1825.13 383.046 1824.67 386.848 1822.7C389.765 1821.17 392.074 1818.62 394.233 1816.18C396.393 1813.74 398.414 1811.16 400.332 1808.52C402.136 1806.04 403.939 1803.46 405.202 1800.66C406.018 1798.87 406.937 1797.04 407.488 1795.14C408.12 1792.96 407.454 1790.88 406.96 1788.77C406.259 1785.84 403.054 1785.1 400.642 1786.19C400.332 1786.33 400.034 1786.47 399.724 1786.61C400.309 1786.38 400.332 1786.35 399.781 1786.52C398.38 1786.85 397.047 1787.8 396.083 1788.82C396.416 1788.46 393.441 1792.26 394.67 1790.69C394.187 1791.31 393.694 1791.9 393.2 1792.51C392.04 1793.94 390.971 1795.42 389.88 1796.9C389.363 1797.58 389.398 1797.55 389.984 1796.78C389.742 1797.09 389.49 1797.4 389.237 1797.71C388.732 1798.33 388.226 1798.94 387.709 1799.53C385.757 1801.8 383.678 1803.96 381.496 1805.99C380.508 1806.91 379.474 1807.79 378.486 1808.71C377.809 1809.29 377.923 1809.2 378.842 1808.45C378.073 1808.89 378.234 1808.86 379.348 1808.37C378.452 1808.62 378.67 1808.63 380.002 1808.4C379.129 1808.4 379.417 1808.47 380.864 1808.62C380.588 1808.58 380.324 1808.51 380.06 1808.42C381.312 1808.99 381.576 1809.08 380.841 1808.68C379.715 1808.06 382.334 1809.97 380.795 1808.52C379.773 1807.57 381.645 1809.99 380.898 1808.65C380.588 1808.09 380.267 1807.54 379.968 1806.98C379.623 1806.22 379.692 1806.4 380.175 1807.5C380.06 1807.2 379.956 1806.9 379.853 1806.59C379.646 1805.95 379.474 1805.29 379.325 1804.62C379.187 1804 379.049 1803.38 378.934 1802.76C378.854 1802.35 378.785 1801.93 378.716 1801.52C378.831 1802.46 378.831 1802.5 378.727 1801.62C378.429 1798.45 378.325 1795.29 378.567 1792.11C378.59 1791.8 378.888 1789.12 378.659 1790.88C378.773 1790.04 378.923 1789.2 379.083 1788.38C379.405 1786.71 379.819 1785.07 380.301 1783.45C381.346 1779.91 379.049 1775.6 375.374 1774.77C371.468 1773.88 367.965 1775.96 366.702 1779.7L366.69 1779.68Z" fill="black"/>
<path d="M407.477 1811.37C419.434 1815.15 431.988 1817.18 444.53 1817.37C450.767 1817.46 456.935 1816.71 463.08 1815.59C465.894 1815.07 468.915 1814.62 471.614 1813.63C474.658 1812.52 477.552 1810.76 480.355 1809.16C483.111 1807.6 481.894 1803.19 478.747 1803.21C475.887 1803.22 473.027 1802.96 470.178 1802.99C467.295 1803.03 464.366 1803.58 461.484 1803.75C455.855 1804.07 450.17 1804.01 444.542 1803.87C433.148 1803.58 422.007 1801.53 411.175 1797.99C402.676 1795.21 398.966 1808.7 407.488 1811.39L407.477 1811.37Z" fill="black"/>
<path d="M467.643 1808.82C466.77 1806.86 467.769 1809.39 467.896 1809.82C468.126 1810.63 468.298 1811.46 468.459 1812.29C468.78 1813.97 469.01 1815.65 469.309 1817.33C469.94 1820.87 471.02 1824.47 473.064 1827.47C477.349 1833.76 484.723 1837.12 492.292 1836.82C499.666 1836.52 506.569 1832.92 511.45 1827.44C513.885 1824.71 515.987 1821.65 517.699 1818.41C519.467 1815.08 521.443 1811.38 521.983 1807.61C522.396 1804.76 521.742 1801.6 518.939 1800.12C516.447 1798.8 512.886 1798.89 510.91 1801.15C508.717 1803.66 507.246 1806.58 505.524 1809.39C504.788 1810.6 503.984 1811.76 503.18 1812.91C502.158 1814.37 503.893 1812.17 502.813 1813.37C502.239 1814 501.699 1814.65 501.101 1815.26C500.654 1815.72 500.194 1816.16 499.712 1816.58C499.436 1816.83 497.817 1817.94 499.356 1816.93C499.183 1817.04 496.059 1819.16 495.944 1818.95C495.944 1818.94 497.908 1818.25 495.91 1818.89C495.393 1819.07 494.865 1819.2 494.336 1819.33C493.624 1819.5 492.901 1819.61 492.177 1819.71C490.5 1819.96 494.13 1819.65 492.303 1819.65C491.763 1819.65 491.235 1819.7 490.695 1819.69C490.339 1819.69 489.983 1819.66 489.639 1819.63C490.948 1819.84 491.27 1819.88 490.603 1819.77C490.029 1819.6 489.409 1819.54 488.835 1819.37C488.582 1819.3 488.341 1819.22 488.099 1819.12C487.491 1818.91 487.766 1819.02 488.938 1819.49C488.823 1819.27 487.881 1818.91 487.594 1818.76C486.859 1818.25 487.02 1818.39 488.065 1819.17C487.801 1818.95 487.548 1818.71 487.307 1818.47C487.192 1818.34 487.066 1818.22 486.951 1818.09C486.4 1817.44 486.491 1817.56 487.227 1818.47C487.227 1818.46 486.239 1816.88 486.308 1816.86C486.721 1817.93 486.767 1818.02 486.434 1817.15C486.331 1816.86 486.227 1816.56 486.147 1816.26C485.929 1815.56 485.745 1814.86 485.584 1814.15C485.297 1812.91 485.079 1811.66 484.849 1810.4C484.194 1806.93 483.287 1803.77 481.759 1800.57C479.922 1796.71 474.087 1795.4 470.606 1797.64C466.563 1800.25 465.817 1804.61 467.678 1808.79L467.643 1808.82Z" fill="black"/>
<path d="M519.157 1813.38C540.704 1807.94 562.482 1803.31 584.155 1798.44C605.508 1793.65 627.262 1788.7 647.075 1779.21C649.74 1777.93 648.442 1773.52 645.57 1773.66C623.472 1774.7 601.74 1779.14 580.17 1783.98C558.485 1788.85 536.719 1793.47 515.171 1798.91C505.822 1801.27 509.784 1815.73 519.157 1813.37V1813.38Z" fill="black"/>
<path d="M345.258 1491.69C343.466 1499.93 341.674 1508.17 339.882 1516.41C338.998 1520.48 338.355 1524.54 337.757 1528.68C337.401 1531.12 336.724 1533.84 336.747 1536.31C336.77 1538.47 337.149 1540.68 337.344 1542.83C337.62 1545.91 339.308 1548.67 342.444 1549.53C345.384 1550.34 348.761 1549 350.288 1546.34C351.334 1544.51 352.505 1542.71 353.447 1540.82C354.515 1538.7 355.09 1536.39 355.744 1534.12C356.962 1529.99 358.11 1525.9 359.018 1521.68L364.393 1496.96C365.496 1491.91 362.888 1485.99 357.467 1484.76C352.459 1483.62 346.441 1486.27 345.269 1491.69H345.258Z" fill="black"/>
<path d="M473.052 1491.46C470.743 1497.22 468.584 1503.3 467.573 1509.44C466.953 1513.2 466.528 1516.87 466.574 1520.67C466.608 1523.85 466.78 1527.02 467.079 1530.19C467.447 1534.22 469.859 1537.54 474.051 1538.1C477.83 1538.6 481.988 1536.26 482.872 1532.33C484.216 1526.36 486.203 1520.58 487.903 1514.71C489.626 1508.75 491.28 1502.88 493.669 1497.15C494.657 1494.77 493.83 1491.02 492.589 1488.91C491.291 1486.69 488.753 1484.58 486.203 1483.99C483.469 1483.37 480.391 1483.5 477.968 1485.07C475.487 1486.67 474.143 1488.74 473.052 1491.46Z" fill="black"/>
<path d="M396.452 1527.61C387.528 1535.85 395.533 1549.97 406.043 1551.38C411.97 1552.17 417.563 1549.06 420.94 1544.32C423.731 1540.39 424.891 1535.41 425.121 1530.66C420.917 1531.24 416.713 1531.8 412.509 1532.38C414.003 1537.16 415.99 1541.61 419.481 1545.28C422.916 1548.88 428.027 1551.57 433.092 1551.3C438.008 1551.06 442.74 1547.38 444.946 1543.07C446.887 1539.27 447.369 1534.09 443.946 1530.95C442.166 1529.32 438.697 1530.34 438.87 1533.05C438.938 1534.22 438.984 1535.23 438.571 1536.15C438.824 1535.57 437.709 1537.26 438.215 1536.65C438.077 1536.81 436.825 1537.92 437.376 1537.51C436.848 1537.9 436.239 1538.25 435.631 1538.5C436.618 1538.09 434.735 1538.67 434.528 1538.73C435.883 1538.41 433.988 1538.69 433.609 1538.69C433.414 1538.69 431.507 1538.65 432.426 1538.74C433.31 1538.83 431.358 1538.41 431.128 1538.34C432.415 1538.74 430.427 1537.92 430.152 1537.78C429.566 1537.36 429.532 1537.38 430.083 1537.8C429.796 1537.57 429.509 1537.33 429.244 1537.07C428.693 1536.55 428.188 1536 427.705 1535.42C428.532 1536.42 427.177 1534.57 427.051 1534.36C426.649 1533.7 426.304 1533.01 425.959 1532.32C425.649 1531.64 425.638 1531.61 425.913 1532.24C425.776 1531.88 425.638 1531.52 425.523 1531.15C425.282 1530.41 425.064 1529.69 424.914 1528.93C423.651 1522.64 414.014 1522.98 412.532 1528.93C412.349 1529.65 412.153 1530.37 411.912 1531.07C411.797 1531.4 411.028 1532.79 411.74 1531.54C411.361 1532.18 411.062 1532.87 410.672 1533.51C410.442 1533.88 409.385 1535.15 410.511 1533.86C409.672 1534.81 408.777 1535.65 407.777 1536.43C410.017 1534.69 406.721 1537.28 407.984 1536.24C409.156 1535.26 406.812 1536.94 406.858 1536.51C408.122 1536.38 408.34 1536.32 407.525 1536.33C407.904 1536.39 408.283 1536.43 408.65 1536.49C408.352 1536.43 408.064 1536.35 407.777 1536.25C408.88 1536.75 409.075 1536.82 408.352 1536.46C406.973 1535.48 408.409 1536.49 408.398 1536.57C408.168 1536.36 407.95 1536.15 407.743 1535.93C407.215 1535.32 407.329 1535.47 408.087 1536.39C408.087 1536.39 407.456 1535.24 407.433 1535.21C407.892 1536.38 408.007 1536.57 407.766 1535.81C407.594 1535.01 407.628 1535.27 407.858 1536.61C407.777 1535.26 407.341 1538.4 407.789 1537.04C407.226 1538.21 407.146 1538.46 407.548 1537.77C406.767 1538.72 406.652 1538.9 407.237 1538.33C410.166 1535.63 410.178 1530.27 407.237 1527.57C404.102 1524.69 399.611 1524.69 396.487 1527.57L396.452 1527.61Z" fill="black"/>
<path d="M529.562 1398.05C540.302 1387.72 553.063 1377.9 568.293 1375.87C581.191 1374.15 594.239 1378.34 604.921 1385.42C629.57 1401.73 637.415 1432.49 637.84 1460.43C637.955 1467.56 649.67 1469.81 650.83 1462.18C656.137 1427.2 644.398 1388.93 613.099 1369.63C598.972 1360.92 582.053 1356.88 565.582 1359.36C546.964 1362.16 531.343 1373.82 518.352 1386.82C511.116 1394.06 522.211 1405.14 529.574 1398.05H529.562Z" fill="black"/>
<path d="M576.677 1435.53C581.329 1431.91 587.417 1427.86 592.987 1424.65C595.939 1422.95 599.029 1421.51 602.004 1419.85C604.955 1418.21 607.724 1416.22 610.652 1414.53C614.891 1412.09 612.054 1405.45 607.344 1406.68C603.876 1407.58 600.315 1408.47 597.007 1409.86C593.573 1411.31 590.265 1413.24 587.049 1415.1C580.64 1418.81 574.587 1423.03 568.74 1427.58C566.409 1429.39 566.696 1433.64 568.74 1435.53C571.21 1437.8 574.196 1437.46 576.689 1435.53H576.677Z" fill="black"/>
<path d="M408.836 1378.15C397.511 1363.61 383.509 1348.72 363.512 1349.27C344.503 1349.79 328.837 1363.58 317.959 1378.02C295.528 1407.79 284.65 1450.2 296.78 1486.2C298.422 1491.07 306.841 1490.66 306.301 1484.91C303.269 1452.66 307.588 1420.53 326.091 1393.25C334.499 1380.85 346.479 1368.31 361.904 1365.64C377.893 1362.87 389.941 1376.85 399.475 1387.52C405.275 1394.01 413.912 1384.69 408.824 1378.17L408.836 1378.15Z" fill="black"/>
<path d="M247.157 1548.58C256.679 1547.64 266.373 1547.64 275.872 1548.95C280.478 1549.58 284.98 1550.67 289.529 1551.58C291.964 1552.06 294.353 1552.77 296.788 1553.23C299.338 1553.7 302.002 1553.63 304.587 1553.85C306.723 1554.04 308.825 1552.19 309.365 1550.21C309.985 1547.93 308.871 1545.94 307.091 1544.6C304.943 1543.02 302.841 1541.3 300.36 1540.29C298.063 1539.36 295.708 1538.54 293.342 1537.78C288.334 1536.17 283.016 1535.36 277.813 1534.66C267.625 1533.28 257.403 1533.02 247.157 1534.03C243.252 1534.42 239.887 1537.1 239.887 1541.3C239.887 1544.94 243.229 1548.97 247.157 1548.58Z" fill="black"/>
<path d="M262.873 1573.96L297.721 1570.25C300.811 1569.92 303.832 1567.74 303.671 1564.3C303.533 1561.32 301.041 1558.03 297.721 1558.34L262.873 1561.61C259.669 1561.91 256.544 1564.23 256.705 1567.78C256.843 1570.83 259.439 1574.32 262.873 1573.95V1573.96Z" fill="black"/>
<path d="M525.956 1542.12C532.468 1541.5 538.969 1540.89 545.482 1540.27C548.732 1539.96 551.994 1539.65 555.245 1539.34C558.771 1539.01 562.102 1538.05 565.513 1537.19C570.854 1535.84 569.464 1528.16 564.25 1527.88C560.976 1527.71 557.749 1527.41 554.487 1527.75C551.362 1528.07 548.227 1528.38 545.103 1528.7C538.717 1529.36 532.33 1530 525.956 1530.65C522.981 1530.95 520.075 1533.08 520.224 1536.39C520.351 1539.25 522.763 1542.42 525.956 1542.12Z" fill="black"/>
<path d="M528.677 1560.14C535.029 1561.85 541.369 1563.83 547.801 1565.22C551.029 1565.92 554.256 1566.66 557.495 1567.26C560.838 1567.88 564.352 1567.87 567.741 1568.09C571.944 1568.36 572.519 1562.1 568.705 1560.94C565.581 1559.99 562.423 1558.76 559.184 1558.24C555.91 1557.72 552.625 1557.21 549.34 1556.74C542.747 1555.79 536.04 1555.37 529.401 1554.71C526.265 1554.4 525.737 1559.33 528.666 1560.13L528.677 1560.14Z" fill="black"/>
<path d="M417.825 1525.59C417.952 1525.53 418.078 1525.47 418.204 1525.41C417.848 1525.56 417.481 1525.71 417.125 1525.87C418.733 1525.2 420.41 1524.75 422.132 1524.52C421.73 1524.58 421.317 1524.63 420.915 1524.68C421.983 1524.54 423.063 1524.49 424.131 1524.53C425.199 1524.56 426.267 1524.45 427.336 1524.52V1516.01C426.015 1516.15 424.694 1516.29 423.384 1516.43C422.408 1516.53 421.432 1516.76 420.731 1517.53C420.168 1518.15 419.812 1518.84 419.697 1519.68C419.594 1520.48 419.697 1521.37 420.145 1522.07C420.639 1522.84 421.443 1523.64 422.385 1523.79C423.66 1523.99 424.935 1524.18 426.21 1524.38C427.381 1524.56 428.427 1524.58 429.483 1523.95C430.368 1523.44 431.206 1522.43 431.436 1521.42C431.964 1519.07 430.724 1516.93 428.461 1516.19C427.175 1515.76 425.796 1515.41 424.441 1515.31C423.201 1515.22 421.937 1515.38 420.708 1515.56C418.066 1515.91 415.666 1516.66 413.254 1517.81C412.278 1518.27 411.451 1519.51 411.175 1520.51C410.876 1521.59 411.014 1523.04 411.634 1523.99C412.255 1524.95 413.185 1525.8 414.334 1526.07C414.736 1526.13 415.138 1526.17 415.54 1526.23C416.355 1526.23 417.113 1526.02 417.825 1525.61V1525.59Z" fill="black"/>
</g>
<defs>
<clipPath id="clip0_157_136">
<rect width="1638" height="1755" fill="white" transform="translate(181 122)"/>
</clipPath>
</defs>
</svg>
