<svg width="2000" height="2000" viewBox="0 0 2000 2000" fill="none" xmlns="http://www.w3.org/2000/svg">
<g clip-path="url(#clip0_157_137)">
<path d="M1717.82 1601.8C1701.96 1586.95 1685.84 1571.25 1677.1 1550.93C1668.69 1531.38 1677.03 1508.54 1666.54 1489.85C1659.85 1477.9 1649.32 1472.56 1637.83 1471.51C1633.45 1466.79 1627 1465.21 1619.95 1466.12C1588.75 1470.11 1558.36 1478.03 1529.11 1489.61C1526.79 1490.54 1524.81 1491.81 1523.1 1493.29C1518.62 1488.8 1509.98 1491.17 1509.38 1498.73C1505.92 1541.58 1536.7 1580.4 1571.72 1601.8C1613.36 1627.25 1664.19 1631.5 1711.47 1623.93C1721.22 1622.36 1724.75 1608.31 1717.82 1601.81V1601.8Z" fill="#262626"/>
<path d="M1167.51 1460.5C1166.56 1460.43 1165.69 1461.07 1165.57 1462.04C1165.5 1462.57 1165.43 1463.1 1165.32 1463.64C1165.32 1463.66 1165.32 1463.65 1165.32 1463.67C1165.32 1463.69 1165.32 1463.67 1165.3 1463.72C1165.25 1463.85 1165.21 1463.98 1165.17 1464.1C1165.12 1464.22 1165.07 1464.33 1165.02 1464.44C1165.02 1464.44 1165.02 1464.44 1165.02 1464.45C1164.97 1464.51 1164.91 1464.64 1164.87 1464.69C1164.81 1464.77 1164.74 1464.84 1164.68 1464.93C1164.61 1464.97 1164.55 1465.03 1164.48 1465.09C1164.47 1465.09 1164.46 1465.12 1164.44 1465.12C1164.37 1465.14 1164.31 1465.17 1164.24 1465.2H1164.22C1164.17 1465.2 1164.12 1465.21 1164.08 1465.22C1164.06 1465.22 1164.08 1465.22 1164.04 1465.22C1164.01 1465.22 1163.97 1465.22 1163.92 1465.21C1163.83 1465.21 1163.79 1465.2 1163.77 1465.2C1163.61 1465.14 1163.43 1465.03 1163.33 1465C1163.31 1465 1163.29 1464.97 1163.28 1464.96C1163.19 1464.89 1163.09 1464.82 1163 1464.75C1162.98 1464.72 1162.95 1464.7 1162.93 1464.68C1162.95 1464.7 1162.96 1464.72 1163 1464.77C1162.93 1464.68 1162.82 1464.58 1162.75 1464.5C1162.6 1464.31 1162.44 1464.11 1162.31 1463.91C1162.31 1463.9 1162.28 1463.87 1162.26 1463.85C1162.21 1463.75 1162.16 1463.65 1162.11 1463.55C1161.89 1463.11 1161.68 1462.65 1161.48 1462.2C1161.12 1461.36 1160.06 1460.85 1159.18 1461.27C1158.33 1461.67 1157.85 1462.66 1158.25 1463.56C1158.77 1464.75 1159.33 1465.99 1160.23 1466.94C1161.33 1468.1 1162.75 1468.81 1164.37 1468.74C1165.76 1468.68 1167.06 1467.79 1167.81 1466.64C1168.62 1465.38 1168.89 1463.94 1169.08 1462.46C1169.18 1461.55 1168.48 1460.59 1167.54 1460.52L1167.51 1460.5Z" fill="#262626"/>
<path d="M1148.11 1454C1139.66 1454 1139.49 1467.14 1147.98 1467.14C1156.47 1467.14 1156.6 1454 1148.11 1454Z" fill="#262626"/>
<path d="M1178.99 1453.71C1170.54 1453.71 1170.36 1466.86 1178.86 1466.86C1187.35 1466.86 1187.48 1453.71 1178.99 1453.71Z" fill="#262626"/>
<path d="M453.227 664.383C433.446 769.743 440.932 881.984 472.675 984.337C476.916 998.002 481.879 1011.5 487.256 1024.76C490.253 1032.13 493.794 1039.24 497.419 1046.32C501.173 1053.67 504.016 1060.27 511.075 1064.96C517.957 1069.54 525.372 1063.28 526.082 1056.35C526.757 1049.72 524.01 1044.36 521.795 1038.23C519.509 1031.9 517.507 1025.48 515.245 1019.15C511.135 1007.59 506.882 996.143 503.234 984.432C495.618 960.028 488.962 935.398 483.88 910.331C473.611 859.581 469.063 807.812 467.322 756.126C466.315 726.24 466.587 696.164 467.073 666.265C467.203 658.509 454.707 656.425 453.215 664.394L453.227 664.383Z" fill="#262626"/>
<path d="M521.169 1060.97C496.284 1091.13 500.003 1134.27 516.337 1167.41C534.471 1204.2 567.789 1226.21 605.277 1240.1C641.912 1253.67 680.62 1260.05 718.25 1270.13C750.988 1278.9 784.473 1283.49 818.217 1286.34C839.265 1288.13 860.431 1288.87 881.503 1290.27C893.383 1291.07 905.263 1291.94 917.131 1292.96C930.989 1294.16 944.942 1293.97 958.835 1294.42C967.091 1294.69 968.714 1282.17 960.778 1280.09C949.763 1277.19 938.641 1273.85 927.424 1271.81C916.681 1269.87 905.76 1268.63 894.946 1267.18C876.232 1264.67 857.494 1262.45 838.756 1260.16C830.05 1259.09 821.344 1257.99 812.627 1257C808.706 1256.55 804.786 1256.09 800.877 1255.6C799.077 1255.38 797.276 1255.15 795.488 1254.91C795.18 1254.88 792.622 1254.52 794.801 1254.82C793.545 1254.64 792.278 1254.46 791.022 1254.29C775.708 1252.1 760.476 1249.36 745.445 1245.68C729.088 1241.66 713.015 1236.63 696.61 1232.76C678.144 1228.39 659.62 1224.22 641.367 1219.04C623.257 1213.9 606.698 1208.39 590.945 1200.02C575.287 1191.71 564.745 1182.71 553.066 1168.81C542.169 1155.83 533.594 1138.94 529.283 1121.31C524.865 1103.24 527.174 1085.79 534.186 1068.54C537.088 1061.41 525.99 1055.13 521.181 1060.97H521.169Z" fill="#262626"/>
<path d="M1410.6 963.485C1424.19 949.122 1439.38 935.517 1455.78 924.434C1463.92 918.939 1472.46 913.729 1481.11 909.076C1488.25 905.239 1497.38 901.853 1503.49 903.333C1503.95 903.44 1507.66 904.789 1507.43 905.062C1508.1 904.268 1502.78 898.739 1504.18 898.088C1503.93 898.206 1503.43 900.621 1503.35 900.882C1501.63 906.518 1499.79 912.119 1497.84 917.684C1494.28 927.879 1490.33 937.944 1485.88 947.784C1478.09 964.977 1465.33 985.876 1475.48 1004.9C1477.85 1009.35 1481.52 1013.45 1485.9 1016C1493.03 1020.14 1501.56 1016.62 1508.97 1014.99C1520.13 1012.54 1531.39 1010.33 1542.66 1008.4C1552.4 1006.74 1561.91 1004.68 1571.62 1004.81C1572.26 1004.81 1576.88 1005.33 1574.8 1004.94C1575.77 1005.12 1576.79 1005.35 1577.73 1005.66C1578.21 1005.82 1580.07 1006.85 1578.33 1005.89C1578.95 1006.23 1579.42 1007.05 1579.2 1006.38C1578.89 1005.39 1579.32 1007.55 1579.58 1006.95C1579.5 1007.14 1579.17 1006.35 1579.17 1006.35C1578.48 1005.43 1579.31 1007.88 1579.43 1006.95C1578.43 1014.21 1570.24 1017.95 1563.56 1021.42C1554 1026.4 1544.62 1031.57 1535.8 1037.8C1527.4 1043.74 1515.09 1050.94 1512.26 1061.52C1508.61 1075.16 1521.02 1082.07 1530.84 1087.68C1539.25 1092.49 1548.04 1097.18 1555.51 1103.4C1558.91 1106.24 1562.29 1109.4 1564.95 1112.92C1565.03 1113.01 1568.54 1117.95 1567.9 1118.26C1567.9 1117.84 1567.9 1117.43 1567.92 1117.01C1567.67 1114.36 1569.11 1112.39 1572.25 1111.07C1572.53 1111.44 1572.74 1111.26 1571.31 1111.15C1558.21 1110.11 1544.55 1111.07 1531.4 1111.09C1517.54 1111.12 1503.35 1110.32 1489.72 1112.98C1477.75 1115.3 1477.77 1134.79 1489.72 1137.13C1508.05 1140.72 1527.86 1139.06 1546.51 1139.05C1562.75 1139.04 1588.77 1143.56 1594.77 1123.18C1599.61 1106.75 1583.99 1090.74 1572.32 1081.55C1566.36 1076.86 1560.1 1072.69 1553.56 1068.86C1550.4 1067 1547.19 1065.19 1544 1063.38C1542.41 1062.48 1540.83 1061.58 1539.24 1060.66C1538.45 1060.21 1537.66 1059.75 1536.88 1059.3C1534.35 1057.54 1534.96 1058.53 1538.75 1062.29V1069.63C1536.8 1071.97 1536.68 1072.27 1538.41 1070.54C1539.48 1069.62 1540.54 1068.7 1541.62 1067.8C1542.88 1066.76 1544.14 1065.72 1545.45 1064.71C1549.34 1061.71 1553.43 1058.94 1557.59 1056.29C1565.71 1051.13 1574.41 1047.33 1582.83 1042.72C1600.64 1032.97 1615.41 1011.82 1603.7 991.631C1593.89 974.71 1572.64 974.699 1555.66 976.652C1533.42 979.21 1511.41 982.845 1489.59 987.83C1493.56 988.351 1497.52 988.872 1501.48 989.381C1501.92 989.701 1502.36 990.269 1502.76 990.542C1501.02 989.736 1504.39 991.643 1502.76 990.542C1504.72 991.465 1501.63 989.95 1502.71 989.867C1502.89 989.855 1502.83 992.614 1502.87 990.542C1502.88 989.677 1503.36 985.509 1502.88 988.02C1503.27 985.959 1503.82 983.923 1504.48 981.922C1504.97 980.406 1505.52 978.902 1506.13 977.434C1505.28 979.459 1507.31 975.137 1507.59 974.545C1509.85 969.915 1512.07 965.261 1514.18 960.549C1518.49 950.922 1522.53 941.141 1526.18 931.242C1529.68 921.722 1534.82 910.757 1535.26 900.503C1536.37 874.417 1504.25 868.769 1484.78 874.358C1466.04 879.746 1449.88 891.906 1435.43 904.553C1419.67 918.347 1406.56 934.167 1395.86 952.153C1390.48 961.2 1403.17 971.312 1410.57 963.497L1410.6 963.485Z" fill="#262626"/>
<path d="M1414.98 948.956C1389.61 922.871 1339.48 936.748 1321.87 965.415C1317.41 972.674 1313.78 982.928 1315.95 991.477C1318.86 1002.99 1329.99 1005.27 1340.13 1004.61C1345.9 1004.23 1354.23 1003.54 1358.56 1008.36C1360.91 1010.97 1360.78 1013.95 1361.76 1017.12C1363.11 1021.41 1367.1 1024.99 1371.79 1024.76C1375.16 1024.6 1379.31 1022.96 1380.78 1019.61C1386.35 1006.82 1380.53 993.668 1369.2 986.196C1363.56 982.478 1356.9 980.832 1350.27 980.086C1346.88 979.707 1343.52 979.636 1340.12 979.766C1338.97 979.814 1337.75 979.79 1336.6 979.944C1333.47 980.37 1336.33 979.198 1337.67 980.832C1338.75 982.691 1339.84 984.538 1340.91 986.397C1339.47 982.561 1344.47 975.883 1347.24 972.97C1352.07 967.89 1358.14 964.29 1364.58 961.602C1378.79 955.682 1394.2 956.558 1409.04 959.128C1414.79 960.122 1419.47 953.61 1414.97 948.968L1414.98 948.956Z" fill="#262626"/>
<path d="M1351.61 988.114C1344.66 986.8 1338.79 985.853 1331.92 988.339C1325.85 990.542 1319.98 994.13 1315.8 999.103C1305.71 1011.1 1303.09 1026.37 1305.11 1041.58C1308.62 1068.25 1325.08 1094.04 1351 1103.45C1361.27 1107.16 1370.43 1091.79 1361.89 1084.75C1348.3 1073.56 1335.97 1060.81 1331.47 1043.29C1329.29 1034.83 1328.94 1025.25 1331.88 1016.9C1334.33 1009.93 1341.77 1001.01 1349.87 1001.02C1357.04 1001.02 1359.08 989.535 1351.61 988.126V988.114Z" fill="#262626"/>
<path d="M1229.53 818.836C1229.03 813.721 1228.27 808.653 1227.26 803.691C1219.54 766.333 1193.76 727.945 1155.31 717.56C1114.7 706.596 1076.74 733.569 1063.83 771.496C1042.81 833.258 1071.8 931.846 1142.71 937.53C1144.79 937.885 1146.9 938.193 1149.05 938.382C1151.5 938.595 1153.89 938.655 1156.25 938.655C1156.37 938.655 1156.47 938.655 1156.59 938.666C1156.84 938.666 1157.09 938.666 1157.34 938.666C1169.35 939.247 1179.45 936.263 1187.8 930.721C1192.03 928.389 1195.94 925.606 1199.5 922.409C1229.85 900.468 1237.15 858.835 1229.52 818.836H1229.53ZM1199.33 808.937C1192.14 818.149 1180.19 821.619 1164.12 811.128C1144.58 798.363 1141.35 765.504 1163.98 755.132C1193.93 741.408 1215.39 788.357 1199.33 808.937Z" fill="#262626"/>
<path d="M1061.03 732.788C1065.34 726.926 1070.44 721.266 1075.61 716.151C1076.82 714.955 1078.05 713.795 1079.32 712.67C1080.02 712.054 1083.44 709.177 1082.7 709.769C1081.07 711.06 1084.26 708.632 1084.2 708.668C1084.86 708.194 1085.53 707.72 1086.21 707.259C1087.9 706.11 1089.63 705.021 1091.31 703.86C1094.17 701.871 1097.05 699.965 1100.07 698.248C1101.48 697.442 1102.91 696.685 1104.36 695.951C1105.26 695.489 1106.17 695.051 1107.08 694.624C1107.51 694.423 1110.68 693.085 1108.51 693.961C1106.69 694.695 1111.44 692.943 1112.27 692.659C1113.78 692.15 1115.32 691.676 1116.86 691.25C1120.54 690.219 1124.25 689.45 1128.01 688.775C1128.61 688.668 1131.24 688.289 1128.78 688.633C1125.95 689.024 1129.86 688.526 1130.14 688.503C1131.73 688.349 1133.3 688.218 1134.89 688.136C1138.47 687.946 1142.03 687.982 1145.61 688.064C1149.19 688.147 1152.72 688.443 1156.27 688.822C1152.37 688.408 1155.88 688.799 1157.61 689.118C1159.55 689.474 1161.48 689.888 1163.39 690.362C1166.65 691.167 1169.84 692.138 1172.99 693.274C1174.19 693.701 1179.06 696.116 1174.98 693.973C1176.73 694.885 1178.56 695.619 1180.31 696.519C1183.3 698.07 1186.17 699.799 1188.98 701.646C1190.31 702.51 1191.61 703.41 1192.92 704.31C1193.75 704.879 1195.97 706.678 1192.88 704.204C1193.66 704.831 1194.44 705.459 1195.21 706.11C1198.31 708.727 1201.22 711.557 1203.91 714.564C1204.6 715.322 1205.24 716.128 1205.92 716.885C1207.94 719.147 1204.94 715.453 1206.1 717.039C1207.34 718.744 1208.56 720.449 1209.71 722.226C1212.07 725.884 1214.07 729.697 1215.95 733.617C1216.29 734.315 1217.39 737.074 1216.26 734.244C1216.69 735.31 1217.09 736.376 1217.49 737.441C1218.37 739.857 1219.14 742.308 1219.86 744.783C1225.26 763.48 1253.23 755.664 1248.95 736.766C1240.6 699.87 1214.2 670.694 1178.13 659.244C1145.15 648.776 1107.59 654.945 1079.09 674.459C1061.64 686.407 1048.95 705.115 1043.95 725.588C1041.31 736.399 1054.95 741.112 1061.06 732.8L1061.03 732.788Z" fill="#262626"/>
<path d="M1170.67 556.748C1149.55 543.628 1123.78 544.659 1101.25 553.812C1089.99 558.394 1079.23 564.196 1069.43 571.395C1064.07 575.315 1058.38 579.305 1053.79 584.113C1049.48 588.636 1045.45 593.455 1041.34 598.168C1037.77 602.265 1036.95 608.102 1040.49 612.531C1043.7 616.557 1050 618.44 1054.61 615.349C1064.23 608.896 1073.52 602.466 1082.67 595.362C1090.51 589.275 1098.59 583.473 1107.36 578.796C1124.62 569.584 1146.16 564.765 1165.52 568.968C1172.85 570.555 1177.27 560.845 1170.67 556.748Z" fill="#262626"/>
<path d="M609.395 976.463C641.186 964.989 674.67 956.381 708.06 951.088C723.872 948.589 739.839 947.097 755.829 946.363C771.937 945.629 790.616 945.025 805.386 947.062L801.158 914.689C788.78 921.391 777.338 930.082 765.908 938.276C753.72 947.026 741.746 956.061 729.913 965.273C707.503 982.727 686.538 1001.45 667.433 1022.46C661.783 1028.68 661.286 1038.33 667.433 1044.48C673.983 1051.03 682.796 1049.66 689.452 1044.48C711.578 1027.26 733.277 1009.53 755.248 992.128C776.237 975.504 800.862 959.885 822.62 942.503C828.021 938.193 828.838 928.957 826.28 923.155C823.544 916.938 817.207 911.977 810.088 912.261C792.345 912.972 774.626 912.841 756.907 914.345C738.595 915.908 720.319 918.466 702.292 922.054C685.259 925.44 668.416 929.774 651.87 935.043C634.375 940.608 617.402 948.293 600.867 956.238C589.674 961.614 597.562 980.737 609.395 976.463Z" fill="#262626"/>
<path d="M647.572 910.094C672.031 905.085 696.797 902.658 721.529 899.52C728.292 898.668 728.789 888.544 721.529 888.579C695.589 888.709 669.851 893.541 644.67 899.544C637.776 901.19 640.726 911.503 647.583 910.094H647.572Z" fill="#262626"/>
<path d="M586.821 827.504C592.696 828.261 600.146 825.964 605.985 824.863C611.458 823.833 616.918 822.767 622.461 822.14C634.933 820.719 647.56 820.198 660.115 820.731C684.254 821.761 708.511 826.864 731.3 834.786C738.431 837.261 746.603 831.956 748.51 825.017C750.702 817.048 745.786 810.642 738.739 807.812C713.344 797.617 686.421 793.046 659.061 793.567C645.676 793.816 632.304 795.272 619.18 797.901C612.701 799.192 606.175 800.684 599.874 802.685C593.395 804.733 585.364 807.35 580.46 812.146C574.301 818.161 579.572 826.568 586.821 827.504Z" fill="#262626"/>
<path d="M902.027 1010.17C905.711 1013.62 911.562 1014.96 916.158 1016.94C922.258 1019.55 928.31 1022.35 934.529 1024.67C946.29 1029.05 959.26 1033.8 971.957 1033.95C988.492 1034.15 1002.48 1024.21 1014.47 1013.86C1027.25 1002.82 1037.53 989.476 1043.89 973.858C1047.09 966.007 1035.42 960.158 1030.07 965.818C1019.97 976.486 1010.38 987.593 999.436 997.409C990.328 1005.59 980.995 1013.22 968.191 1012.58C957.211 1012.03 946.705 1008.97 936.021 1006.6C930.312 1005.33 924.603 1004.1 918.882 1002.88C914.298 1001.9 909.051 1000.09 904.384 1001.22C900.535 1002.17 899.113 1007.45 902.027 1010.16V1010.17Z" fill="#262626"/>
<path d="M1144.63 953.811C1162.49 964.314 1184.89 964.811 1204 957.21C1212.66 953.776 1221.15 948.412 1226.98 941.035C1232.54 934.001 1237.89 924.019 1236.14 914.843C1235.26 910.225 1229.52 910.746 1227.24 913.682C1224.87 916.749 1223.62 920.384 1221.56 923.64C1219.58 926.755 1217.08 929.336 1214.43 931.882C1209.19 936.902 1203.01 940.691 1196.28 943.391C1180.68 949.643 1162.81 949.063 1146.4 947.251C1142.78 946.849 1141.82 952.165 1144.63 953.823V953.811Z" fill="#262626"/>
<path d="M886.418 194.51C940.109 284.797 1011.19 363.93 1091.14 431.743C1176.99 504.565 1272.03 565.522 1370.02 620.583C1427.69 652.992 1486.31 683.612 1545.11 713.913C1557.18 720.13 1567.88 702.013 1555.8 695.643C1453.32 641.601 1350.43 588.103 1252.45 526.104C1162.55 469.22 1077.38 404.201 1003.45 327.424C962.78 285.176 925.991 239.292 894.614 189.726C891.357 184.587 883.279 189.24 886.418 194.51Z" fill="#262626"/>
<path d="M1492.24 785.089C1498.46 760.981 1521.57 743.847 1546.05 742.355C1573.08 740.697 1598.14 756.73 1611.37 779.737C1638.24 826.462 1621.72 883.488 1584.79 919.046C1564.95 938.157 1538.69 951.549 1511.31 955.504C1499.25 957.245 1502.09 977.398 1514.19 976.759C1545.65 975.089 1573.98 963.094 1597.89 942.763C1620.85 923.25 1638.15 896.181 1645.93 867.052C1654.64 834.442 1651.57 796.907 1633.98 767.659C1616.57 738.732 1584.12 717.975 1549.69 719.301C1514.74 720.651 1483.55 748.216 1481.02 783.574C1480.56 790.062 1490.66 791.258 1492.25 785.089H1492.24Z" fill="#262626"/>
<path d="M1540.64 887.289C1549.82 860.86 1569.49 842.056 1591.72 826.094C1595.25 823.56 1597.03 819.523 1595.25 815.319C1593.76 811.767 1589.04 808.653 1585.07 810.322C1554.92 822.933 1535.32 852.642 1528.66 883.997C1527 891.835 1538.01 894.831 1540.62 887.289H1540.64Z" fill="#262626"/>
<path d="M1552.42 849.066C1561.06 855.685 1567.62 864.743 1572.49 874.406C1576.38 882.138 1587.71 875.365 1584.04 867.656C1578.35 855.709 1569.21 846.473 1557.94 839.617C1551.75 835.84 1547 844.922 1552.42 849.066Z" fill="#262626"/>
<path d="M1321.15 618.913C1349.43 646.254 1378.07 673.429 1410.01 696.519C1441.12 718.993 1476.49 738.732 1514.96 744.072C1524.25 745.363 1528.67 731.935 1518.96 729.532C1482.28 720.438 1448.47 705.423 1417.13 684.323C1385.35 662.938 1356.71 637.314 1328.36 611.678C1323.5 607.285 1316.37 614.295 1321.13 618.901L1321.15 618.913Z" fill="#262626"/>
<path d="M988.281 90.9248C1055.76 67.1836 1128.91 70.7478 1196.59 91.8602C1256.62 110.581 1312.23 142.812 1359.32 184.35C1404.88 224.55 1442.96 272.506 1474.65 324.215C1509.37 380.839 1537.18 441.701 1555.5 505.571C1575.7 575.942 1584 647.971 1587.28 720.899C1587.68 729.934 1587.97 738.98 1588.16 748.027C1588.45 762.414 1610.33 762.449 1610.53 748.027C1611.59 672.955 1603.12 597.303 1584.73 524.47C1567.57 456.491 1540.25 391.519 1505.13 330.882C1473.31 275.952 1434.63 224.432 1388.19 181.011C1341.01 136.903 1286.04 101.641 1224.9 80.3863C1156.57 56.6334 1081.45 50.4168 1011.54 71.3872C1002.7 74.0396 994.002 77.1537 985.438 80.6231C979.208 83.1453 981.672 93.2693 988.281 90.9366V90.9248Z" fill="#262626"/>
<path d="M1601.93 912.534C1606.7 936.251 1611.09 960.075 1615.2 983.923C1619.27 1007.58 1623.72 1031.18 1626.82 1054.99C1632.7 1100.38 1635.01 1146.64 1630.63 1192.26C1622.9 1272.71 1591.31 1352.41 1528.2 1405.21C1496.81 1431.48 1457.75 1449.85 1417.33 1456.57C1405.23 1458.58 1407.96 1478.9 1420.25 1478.06C1460.64 1475.31 1498.43 1460.75 1531.06 1436.89C1563.9 1412.87 1591.74 1381.81 1611.35 1346.11C1656.62 1263.69 1662.85 1166.42 1650.41 1074.86C1646.62 1046.94 1641.7 1018.92 1634.98 991.548C1628.21 964.03 1619.93 936.938 1612.02 909.739C1610.13 903.227 1600.62 905.962 1601.93 912.522V912.534Z" fill="#262626"/>
<path d="M1509.22 1164.77C1522.74 1247.54 1515.69 1340.31 1459.68 1407.07C1446.16 1423.17 1430.53 1438.02 1413.37 1450.18C1403.14 1457.43 1411.93 1473.23 1423.32 1467.19C1502.25 1425.27 1534.13 1328.97 1531.76 1244.57C1530.98 1216.56 1526.56 1189 1519.78 1161.86C1518.04 1154.89 1508.11 1157.96 1509.22 1164.77Z" fill="#262626"/>
<path d="M1296.91 1395.92C1317.49 1383.02 1341.26 1379.69 1365.04 1383.06C1376.31 1384.64 1387.48 1388.1 1397.52 1393.47C1408.39 1399.27 1417.7 1407.24 1427.46 1414.64C1435.67 1420.87 1445.98 1408.99 1441.11 1401C1426.18 1376.47 1394.13 1365.52 1366.9 1363.3C1339.78 1361.07 1311.53 1370.64 1290.72 1387.91C1286.24 1391.63 1292.05 1398.98 1296.91 1395.93V1395.92Z" fill="#262626"/>
<path d="M1423.78 1344.95C1423.81 1352.8 1422.31 1360.55 1419.56 1367.91C1416.86 1375.14 1412.18 1381.51 1408.74 1388.39C1406.02 1393.81 1411.99 1401.77 1417.89 1397.54C1434.43 1385.69 1438.06 1362.37 1434.28 1343.53C1433.09 1337.54 1423.74 1339.02 1423.78 1344.95Z" fill="#262626"/>
<path d="M1379.4 1338.95C1390.51 1338.95 1390.53 1321.69 1379.4 1321.69C1368.26 1321.69 1368.26 1338.95 1379.4 1338.95Z" fill="#262626"/>
<path d="M899.256 169.75C906.908 155.198 916.81 140.657 928.702 129.219C943.851 114.642 962.992 105.62 983.033 99.8649C994.901 96.4547 989.926 78.2196 977.928 81.3456C954.997 87.3016 933.842 98.6334 917.615 116.063C911.065 123.085 905.321 130.924 900.382 139.141C895.679 146.98 892.446 155.281 888.762 163.605C885.671 170.591 895.549 176.807 899.268 169.738L899.256 169.75Z" fill="#262626"/>
<path d="M413.266 1236.73C411.134 1277.33 427.799 1316.61 451.452 1348.85C475.272 1381.33 505.605 1412.06 544.503 1425.39C567.102 1433.13 592.864 1433.82 615.357 1425.4C621.077 1423.26 624.974 1417.75 623.257 1411.49C621.753 1406.02 615.084 1401.41 609.34 1403.59C574.765 1416.69 537.514 1403.61 509.597 1381.77C481.075 1359.46 456.356 1328.92 440.804 1296.22C431.944 1277.59 426.828 1257.37 426.899 1236.7C426.922 1227.89 413.739 1228 413.277 1236.7L413.266 1236.73Z" fill="#262626"/>
<path d="M505.224 1257.07C507.19 1290.83 518.004 1323.73 536.186 1352.25C554.391 1380.8 580.188 1407.38 612.808 1418.41C622.497 1421.69 626.796 1408.1 619.37 1402.86C594.354 1385.19 569.824 1367.3 551.631 1342.19C533.473 1317.14 521.203 1287.84 517.389 1257.06C516.453 1249.52 504.762 1249.08 505.224 1257.06V1257.07Z" fill="#262626"/>
<path d="M565.124 1316.3C582.038 1332.33 599.568 1347.71 617.714 1362.32C636.002 1377.04 655.142 1390.47 674.011 1404.4C682.929 1410.98 694.892 1398.18 689.053 1389.36C675.491 1368.86 675.159 1345.2 675.586 1321.43C668.598 1324.31 661.609 1327.22 654.621 1330.1C664.357 1340.12 674.662 1349.54 685.594 1358.23C697.084 1367.37 708.111 1376.06 722.265 1380.44C731.35 1383.25 737.035 1371.63 731.137 1365.2C722.158 1355.41 711.096 1348.43 700.909 1339.98C690.711 1331.5 681.094 1322.38 671.997 1312.75C664.618 1304.92 651.02 1311.01 651.032 1321.43C651.032 1349.49 651.992 1380.69 671.796 1402.68C676.237 1396.92 680.679 1391.17 685.121 1385.41C645.276 1364.29 607.812 1336.91 572.87 1308.57C567.517 1304.22 559.912 1311.36 565.136 1316.3H565.124Z" fill="#262626"/>
<path d="M730.699 1375.33C732.63 1367.58 736.432 1360.54 740.814 1353.91C745.185 1347.3 734.797 1341.5 730.308 1347.77C724.706 1355.62 722.514 1364.62 722.337 1374.2C722.254 1378.97 729.526 1380.01 730.699 1375.34V1375.33Z" fill="#262626"/>
<path d="M996.747 83.465C958.75 57.6399 915.873 41.4296 870.094 36.6695C826.376 32.1107 781.805 37.1313 739.461 48.5697C655.164 71.3398 575.936 118.573 514.072 179.945C454.766 238.783 410.255 311.06 378.583 388.026C361.444 429.683 348.616 472.938 337.245 516.489C324.643 564.788 314.338 613.679 306.26 662.938C290.033 761.881 282.488 862.269 284.146 962.526C284.36 975.137 285.106 987.712 285.923 1000.3C286.705 1012.36 305.04 1012.62 304.898 1000.3C304.306 951.265 304.033 902.267 306.509 853.281C308.984 804.366 313.533 755.534 320.355 707.045C327.177 658.592 336.132 610.447 347.278 562.799C357.736 518.052 369.64 473.34 384.943 429.979C411.617 354.41 450.668 282.073 504.016 221.933C559.65 159.223 630.965 110.593 709.85 81.9849C749.825 67.4915 791.873 58.445 834.501 58.0898C877.509 57.7227 919.486 66.4732 959.437 82.1625C969.694 86.1884 979.656 90.9366 989.38 96.0993C997.742 100.528 1004.48 88.7579 996.747 83.5005V83.465Z" fill="#262626"/>
<path d="M1473.76 729.235C1472.36 736.316 1473.31 744.226 1473.45 751.437C1473.61 759.205 1473.75 766.949 1473.54 774.717C1473.13 790.264 1471.65 805.775 1469.97 821.24C1469.44 826.142 1474.54 830.357 1479.09 830.357C1484.47 830.357 1487.68 826.154 1488.21 821.24C1489.93 805.385 1490.1 789.482 1489.35 773.556C1488.98 765.788 1488.46 757.997 1487.55 750.277C1486.7 742.983 1485.96 734.741 1482.87 728.051C1481.11 724.227 1474.56 725.174 1473.76 729.247V729.235Z" fill="#262626"/>
<path d="M895.121 201.91C925.124 278.367 972.004 349.354 1026.88 410.216C1054.43 440.778 1085.2 467.669 1118.99 491.126C1157.16 517.614 1197.82 540.135 1239.01 561.508C1286.12 585.948 1333.97 609.227 1382.83 629.949C1386.18 631.37 1389.2 626.669 1385.78 624.905C1344.74 603.863 1302.75 584.74 1261.77 563.557C1220.8 542.373 1181.21 518.94 1142.65 493.671C1108.23 471.114 1076.71 446.142 1047.69 416.954C1017.79 386.89 990.683 354.149 966.437 319.384C940.462 282.156 917.33 242.56 899.812 200.631C898.627 197.801 893.961 198.985 895.121 201.922V201.91Z" fill="#262626"/>
<path d="M1514.74 667.793C1515.05 667.793 1515.05 667.307 1514.74 667.307C1514.43 667.307 1514.43 667.793 1514.74 667.793Z" fill="#262626"/>
<path d="M1188.88 330.432C1247.81 362.746 1303.53 400.791 1354.99 444.022C1406.55 487.348 1453.88 535.719 1496.05 588.221C1519.73 617.694 1542.08 648.516 1563.13 679.918C1568.22 687.52 1580.42 680.605 1575.52 672.671C1539.58 614.485 1496.24 561.319 1448.32 512.581C1400.75 464.211 1348.41 420.494 1292.38 382.26C1260.55 360.544 1227.49 340.663 1193.43 322.664C1188.32 319.965 1183.79 327.637 1188.88 330.432Z" fill="#262626"/>
<path d="M707.66 1302.63C713.073 1313.78 719.267 1324.5 726.339 1334.69C732.841 1344.07 740.09 1355.75 749.968 1361.72C754.884 1364.69 760.237 1358.85 757.62 1354.07C754.825 1348.97 750.821 1345.2 746.983 1340.84C743.016 1336.35 739.214 1331.69 735.636 1326.87C728.66 1317.47 722.442 1307.55 716.898 1297.23C713.606 1291.11 704.675 1296.5 707.66 1302.63Z" fill="#262626"/>
<path d="M745.741 1319.9C752.966 1328.4 760.073 1337 767.689 1345.15C773.007 1350.86 780.896 1342.55 776.122 1336.72C769.039 1328.1 761.471 1319.92 754.009 1311.63C748.939 1306 740.932 1314.23 745.753 1319.89L745.741 1319.9Z" fill="#262626"/>
<path d="M1059.76 1284.79C1080.95 1290.18 1104.13 1288.4 1125.51 1284.65C1136.28 1282.75 1146.71 1278.92 1156.76 1274.71C1166.21 1270.76 1178.13 1267 1185.63 1259.91C1189.96 1255.81 1186.75 1247.59 1180.65 1247.87C1170.97 1248.33 1160.82 1252.89 1151.32 1254.99C1140.98 1257.26 1130.5 1258.86 1120.16 1261.13C1100.14 1265.52 1079.69 1267.76 1059.76 1272.37C1053.53 1273.81 1053.7 1283.26 1059.76 1284.8V1284.79Z" fill="#262626"/>
<path d="M1313.19 1144.92C1297.61 1186.72 1297.59 1233.87 1315.65 1275.1C1323.36 1292.71 1337.35 1309.37 1357.66 1311.22C1376.22 1312.91 1395.4 1301.14 1395.52 1281.19C1395.6 1268.26 1377.4 1266.41 1373.54 1278.22C1372.6 1281.08 1368.95 1283.65 1366.15 1284.61C1362.96 1285.69 1362.59 1285.7 1359.8 1285.67C1358.69 1285.65 1356.61 1285.33 1355.06 1284.67C1342.75 1279.48 1336.83 1263.58 1332.61 1252.05C1320.77 1219.63 1318.22 1182.09 1325.39 1148.29C1327.09 1140.25 1316.02 1137.35 1313.19 1144.92Z" fill="#262626"/>
<path d="M875.769 1285.73C860.549 1284.48 845.388 1295.53 833.982 1304.22C815.409 1318.37 799.561 1336.36 784.649 1354.21C749.317 1396.53 718.77 1443.85 693.908 1493.02C687.441 1505.82 681.649 1519.03 676.426 1532.38C673.998 1538.58 670.859 1545.2 670.255 1551.87C669.757 1557.34 670.29 1562.77 670.906 1568.2C671.712 1575.21 680.074 1578.04 684.279 1571.83C686.861 1568.01 689.633 1564.35 692.12 1560.48C695.306 1555.52 696.81 1549.72 698.859 1544.23C703.064 1532.95 706.262 1525.66 711.498 1514.53C722.679 1490.76 734.95 1467.57 748.429 1445.02C762.37 1421.69 777.542 1399.22 793.556 1377.27C807 1358.84 821.414 1340.94 837.665 1324.89C844.428 1318.22 851.713 1310.78 858.95 1305.53C864.813 1301.28 871.244 1297.31 877.072 1295.26C882.331 1293.41 881.3 1286.15 875.781 1285.7L875.769 1285.73Z" fill="#262626"/>
<path d="M922.331 1289.59C931.12 1307.29 941.626 1324.54 954.383 1339.7C966.879 1354.53 981.281 1369.76 997.994 1379.88C1034.31 1401.9 1075.47 1379.96 1093.64 1345.34C1104.03 1325.55 1111.99 1300.1 1108.89 1277.67C1107.89 1270.4 1096.71 1269.75 1093.56 1275.67C1085.18 1291.39 1084.12 1309.96 1077.55 1326.49C1071.89 1340.79 1062.56 1353.73 1049.11 1361.54C1036.24 1369.03 1022.19 1370.47 1008.74 1363.45C993.671 1355.59 980.666 1342.98 968.963 1330.85C955.01 1316.39 942.242 1301.25 931.369 1284.32C927.709 1278.62 919.347 1283.58 922.343 1289.6L922.331 1289.59Z" fill="#262626"/>
<path d="M890.008 1292.08C898.157 1347.08 932.316 1402.42 986.552 1421.47C1012.75 1430.67 1042.32 1430.91 1067.96 1419.82C1091.31 1409.74 1107.48 1389.03 1120.5 1367.89C1135.72 1343.17 1147.93 1315.49 1151.75 1286.55C1152.81 1278.42 1139.12 1276.63 1137.42 1284.61C1132.67 1306.85 1122.66 1328.45 1111.2 1347.97C1100.06 1366.98 1086.41 1386.28 1067.38 1398.1C1047.33 1410.55 1022.43 1412.61 999.759 1407.27C974.803 1401.39 953.85 1386.75 937.196 1367.55C917.854 1345.24 906.638 1317.77 897.517 1290.02C895.918 1285.16 889.285 1287.23 890.008 1292.1V1292.08Z" fill="#262626"/>
<path d="M846.301 1354.25C822.79 1399.16 806.504 1448.08 792.776 1496.75C778.989 1545.63 768.021 1595.4 760.44 1645.63C756.093 1674.43 752.955 1703.44 750.68 1732.47C750.361 1736.56 753.262 1741.73 757.005 1743.5C824.022 1775.05 897.837 1789.62 971.557 1792.89C1047.65 1796.26 1124.66 1787.2 1198.14 1767.34C1218.01 1761.98 1237.64 1755.78 1256.96 1748.68C1276.23 1741.61 1296.44 1734.53 1313.87 1723.62C1324.55 1716.94 1317.84 1698.12 1304.97 1702.5C1288.42 1708.14 1272.66 1715.9 1256.29 1722.1C1239.44 1728.48 1222.35 1734.2 1205.07 1739.26C1169.96 1749.54 1134.05 1757.22 1097.81 1762.17C1026.15 1771.96 952.144 1771.55 881.112 1757.3C842.807 1749.63 805.295 1738 769.88 1721.45C771.989 1725.12 774.097 1728.8 776.205 1732.47C783.703 1632.89 803.566 1535.57 832.336 1440.05C840.497 1412.96 849.76 1386.23 857.838 1359.13C859.863 1352.34 849.641 1347.84 846.277 1354.26L846.301 1354.25Z" fill="#262626"/>
<path d="M1289.52 1564.82C1290.53 1591.67 1292.86 1618.42 1294.15 1645.26C1294.79 1658.38 1295.31 1671.48 1295.4 1684.61C1295.44 1691.56 1295.29 1698.52 1295.36 1705.48C1295.42 1712.4 1294.1 1721.07 1298.47 1726.86C1302.04 1731.57 1309.89 1734.54 1314.52 1728.93C1319.81 1722.53 1319.4 1715.76 1319.56 1707.81C1319.69 1700.85 1319.43 1693.89 1319.14 1686.94C1318.56 1673.04 1317.73 1659.12 1316.31 1645.28C1313.46 1617.47 1308.96 1589.97 1300.26 1563.37C1298.42 1557.74 1289.27 1558.4 1289.51 1564.83L1289.52 1564.82Z" fill="#262626"/>
<path d="M655.532 1573.57C646.53 1587.46 638.879 1604.14 638.737 1621.01C638.606 1634.95 644.28 1648.59 652.666 1659.51C670.053 1682.14 697.675 1695.11 724.657 1702.35C738.586 1706.08 752.444 1708.62 766.787 1706.29C775.943 1704.8 775.505 1690.07 766.787 1688.23C764.727 1687.8 762.689 1687.24 760.64 1686.77C759.562 1686.52 753.995 1685.64 757.241 1686.12C755.725 1685.89 754.22 1685.67 752.716 1685.4C747.422 1684.49 742.115 1683.63 736.856 1682.47C730.757 1681.12 724.716 1679.46 718.77 1677.52C712.966 1675.62 707.577 1673.5 703.218 1671.57C691.812 1666.53 681.128 1660.41 672.79 1652.45C664.676 1644.71 659.322 1636.32 657.19 1625.16C654.277 1609.91 658.872 1594.06 666.453 1579.96C670.326 1572.76 659.95 1566.76 655.532 1573.58V1573.57Z" fill="#262626"/>
<path d="M668.538 1567.55C666.678 1591.55 677.125 1613.98 694.157 1630.77C709.65 1646.05 738.029 1664.09 760.013 1653.42C765.212 1650.9 764.798 1642.84 760.013 1640.2C751.117 1635.28 741.263 1634.26 731.763 1630.82C722.904 1627.61 714.53 1622.53 707.47 1616.29C692.842 1603.37 682.265 1585.35 678.096 1566.25C676.864 1560.6 668.94 1562.35 668.538 1567.54V1567.55Z" fill="#262626"/>
<path d="M652.086 1669.56C641.438 1698.09 654.194 1740.12 687.477 1745.63C702.236 1748.07 717.491 1746.09 732.119 1743.64C744.935 1741.48 757.703 1737.87 768.411 1730.35C774.558 1726.04 772.995 1714.81 764.301 1715.17C741.453 1716.14 719.683 1724.47 696.858 1724.12C691.244 1724.04 688.757 1723.98 683.924 1722.42C684.078 1722.47 680.856 1720.69 682.005 1721.57C679.305 1719.51 676.805 1716.64 674.792 1713.92C666.382 1702.53 662.118 1686.92 664.049 1672.85C665.115 1665.05 654.94 1661.91 652.086 1669.56Z" fill="#262626"/>
<path d="M1333.95 1121.29C1327.64 1109.86 1319.24 1101.65 1306.14 1098.8C1292.91 1095.93 1278.61 1097.5 1266.66 1103.99C1238.77 1119.13 1226.86 1155.2 1225.98 1185.01C1225.87 1188.5 1228.08 1193.14 1231.47 1194.59C1234.58 1195.91 1236.72 1196.3 1240.02 1195.7C1243.52 1195.06 1247.1 1191.42 1247.77 1187.95C1252.02 1166.13 1255.08 1138.9 1274.5 1124.63C1281.75 1119.3 1291.28 1115.97 1300.25 1115.87C1308.97 1115.77 1320.64 1118.36 1325.54 1126.2C1328.86 1131.51 1336.98 1126.8 1333.94 1121.29H1333.95Z" fill="#262626"/>
<path d="M1229.65 1144.56C1217.52 1149.9 1209.82 1164.82 1205.32 1176.59C1200.57 1189 1199.33 1202.79 1199.48 1215.99C1199.81 1244.87 1206.21 1275.02 1216.79 1301.84C1228.18 1330.71 1245.63 1356.79 1272.83 1372.85C1298.09 1387.75 1330.28 1392.57 1356.93 1378.45C1381.02 1365.7 1404.33 1333.22 1392.57 1305.06C1389.85 1298.53 1379 1298.5 1379.2 1306.87C1379.46 1317.72 1378.38 1327.9 1372.98 1337.56C1367.78 1346.86 1360.01 1354.41 1350.72 1359.59C1330.09 1371.09 1305.1 1366.28 1285.77 1354.41C1264.6 1341.44 1249.65 1320.12 1240.42 1297.4C1231.19 1274.68 1224.5 1249.16 1222.15 1224.7C1220.93 1212.02 1221.06 1199.26 1223.69 1186.76C1224.85 1181.24 1226.49 1175.78 1229.08 1170.75C1232.08 1164.95 1236.51 1160.29 1239.79 1154.7C1243.85 1147.77 1236.02 1141.75 1229.64 1144.56H1229.65Z" fill="#262626"/>
<path d="M1286.19 1276.57C1277.43 1310.05 1307.77 1350.42 1343.7 1344.03C1351.01 1342.73 1351.03 1330.54 1343.7 1329.25C1331.21 1327.06 1319.11 1322.27 1310.21 1313.02C1301.33 1303.79 1296.41 1290.84 1297.18 1278.05C1297.56 1271.71 1287.78 1270.53 1286.19 1276.56V1276.57Z" fill="#262626"/>
<path d="M1253.7 1180.46C1253.26 1188.88 1252.86 1197.2 1253.1 1205.63C1253.33 1214.24 1266.23 1214.25 1266.47 1205.63C1266.71 1197.2 1266.3 1188.88 1265.87 1180.46C1265.46 1172.64 1254.12 1172.63 1253.7 1180.46Z" fill="#262626"/>
<path d="M1353.16 1089.72C1348.33 1099.73 1342.42 1109.29 1336.02 1118.39C1329.57 1127.57 1321.31 1135.05 1314.34 1143.76C1309.29 1150.06 1315.84 1161.43 1323.77 1155.98C1334.07 1148.9 1341.86 1138.42 1348.64 1128.04C1355.47 1117.56 1360.26 1106.2 1363.82 1094.22C1365.67 1088.02 1356.08 1083.67 1353.15 1089.72H1353.16Z" fill="#262626"/>
<path d="M1481.06 1117.97C1469.33 1128.43 1462.69 1144.02 1454.49 1157.24C1446.14 1170.69 1437.06 1183.73 1427.13 1196.07C1417.29 1208.31 1406.91 1220.26 1395.99 1231.58C1384.61 1243.38 1372.36 1254.3 1360.74 1265.86C1353.09 1273.48 1363.1 1287.34 1372.53 1281.13C1400.7 1262.61 1424.38 1236.29 1444.22 1209.26C1453.92 1196.04 1462.83 1182.25 1470.9 1167.97C1478.87 1153.84 1488.53 1137.68 1488.53 1121.06C1488.53 1117.11 1483.83 1115.5 1481.06 1117.97Z" fill="#262626"/>
<path d="M1313.79 1380.06C1306.6 1374.22 1293.93 1381.16 1286.87 1384.75C1278 1389.27 1265.45 1396.09 1261.31 1405.64C1257.59 1414.21 1265.29 1423.15 1274.29 1418.62C1279.15 1416.16 1282.61 1411.71 1286.43 1407.96C1290.33 1404.13 1294.36 1400.36 1298.66 1396.98C1300.72 1395.37 1318.42 1383.83 1313.79 1380.06Z" fill="#262626"/>
<path d="M1262.23 1390.03C1268.65 1436.05 1276.41 1481.8 1281.59 1527.99C1284.13 1550.76 1285.98 1573.58 1287.87 1596.41C1289.82 1619.96 1290.35 1643.55 1294.02 1666.93C1295.09 1673.71 1306.47 1673.62 1307.63 1666.93C1311.66 1643.57 1311.23 1620.04 1310.62 1596.41C1310 1572.8 1307.89 1549.15 1304.92 1525.72C1298.95 1478.67 1289.81 1431.51 1273.5 1386.93C1270.87 1379.73 1261.21 1382.68 1262.23 1390.03Z" fill="#262626"/>
<path d="M1182.74 1255.1C1193.45 1258.82 1210 1253.41 1210.16 1240.18C1210.23 1234.89 1203.97 1231.04 1199.36 1233.99C1194.2 1237.3 1190.93 1243.54 1184.22 1244.13C1177.96 1244.67 1176.61 1252.98 1182.73 1255.12L1182.74 1255.1Z" fill="#262626"/>
<path d="M667.886 311.782C651.055 324.606 636.499 340.272 622.889 356.447C608.984 372.965 595.481 389.933 582.89 407.481C558.088 442.045 535.335 478.089 514.713 515.293C496.579 548.01 480.08 581.673 466.115 616.379C449.261 658.296 436.007 701.895 423.736 745.339C396.742 840.955 378.134 938.903 367.913 1037.72C358.247 1131.18 352.763 1230.12 385.869 1319.86C411.808 1390.2 466.672 1458.58 540.866 1480.67C549.963 1483.39 559.024 1484.88 568.487 1485.64C577.572 1486.36 578.934 1472.52 570.584 1470.11C535.441 1459.98 502.952 1444.8 475.532 1420.23C448.052 1395.6 426.495 1364.92 411.252 1331.38C373.503 1248.4 376.583 1152.49 384.246 1063.74C392.561 967.558 409.191 872.12 433.673 778.731C445.766 732.586 459.648 686.833 475.721 641.908C487.4 609.287 502.052 577.766 518.03 547.051C556.157 473.779 603.121 405.681 655.272 341.716C661.727 333.807 667.863 325.968 673.69 317.585C676.035 314.21 671.25 309.177 667.863 311.759L667.886 311.782Z" fill="#262626"/>
<path d="M386.391 620.524C373.824 700.012 352.113 777.7 330.07 854.986C308.028 932.26 284.931 1009.39 269.083 1088.24C261.206 1127.45 255.331 1167.08 252.228 1206.96C249.397 1243.22 248.698 1279.73 253.519 1315.85C258.056 1349.81 267.342 1383.52 285.144 1413.06C301.679 1440.51 324.065 1461.8 353.83 1474.03C382.304 1485.73 413.823 1488.96 444.346 1489.74C475.793 1490.55 507.157 1488.12 538.545 1486.7C545.972 1486.37 553.28 1485.81 560.683 1485.06C573.214 1483.78 573.487 1466.32 560.683 1465.36C546.138 1464.27 531.652 1465.15 517.095 1465.73C501.437 1466.37 485.79 1466.9 470.131 1467.22C440.378 1467.82 410.056 1467.16 381.085 1459.67C353.818 1452.62 330.828 1438.83 313.689 1416.22C293.779 1389.96 282.716 1358.38 276.853 1326.22C270.788 1292.98 270.54 1258.88 272.293 1225.23C274.306 1186.4 279.317 1147.85 285.985 1109.56C299.464 1032.13 320.441 956.274 341.086 880.516C361.79 804.532 381.878 728.335 393.877 650.398C395.333 640.973 396.648 631.524 397.88 622.063C398.721 615.598 387.445 614.011 386.415 620.512L386.391 620.524Z" fill="#262626"/>
<path d="M1348.03 1563.79C1350.64 1556.88 1351.4 1549.41 1353.94 1542.43C1356.28 1536.03 1358.87 1529.8 1361.88 1523.69C1367.74 1511.77 1373.29 1496.28 1385.63 1489.63C1412.83 1474.96 1441.15 1497.16 1467.33 1502.47C1478.47 1504.74 1486.38 1489.29 1475.41 1483.3C1466.59 1478.48 1457.04 1474.75 1447.74 1470.93C1439.5 1467.53 1431.12 1464.56 1422.3 1463.08C1405.96 1460.34 1387.69 1461.1 1373.51 1470.62C1358.08 1481.01 1351.92 1498.08 1345.13 1514.56C1339.09 1529.25 1332.48 1547.87 1337.23 1563.77C1338.9 1569.36 1346.13 1568.78 1348.02 1563.77L1348.03 1563.79Z" fill="#262626"/>
<path d="M1542.66 1495.9C1556.65 1490.82 1571 1487 1585.72 1484.59C1598.46 1482.52 1614.04 1480.6 1626.56 1484.61C1649.26 1491.88 1658.04 1518 1661.75 1539C1662.91 1545.55 1663.45 1553.12 1667.85 1558.47C1671.68 1563.15 1677.33 1564.24 1681.75 1559.9C1687.02 1554.73 1686.23 1545.73 1685.27 1539.05C1684.27 1532.1 1683.01 1525.16 1681.15 1518.39C1674.58 1494.46 1659.36 1470.63 1634.1 1463.77C1601.63 1454.93 1569.01 1474.28 1539.82 1485.59C1533.49 1488.04 1536.12 1498.28 1542.66 1495.9Z" fill="#262626"/>
<path d="M1445.32 1510.3C1471.65 1504.69 1497.99 1499.6 1524.95 1498.28C1536.66 1497.71 1548.58 1498.07 1560.17 1499.95C1566.25 1500.95 1572.28 1502.34 1578.17 1504.2C1584.03 1506.05 1589.48 1509.01 1595.33 1510.8C1600.59 1512.41 1605.74 1504.72 1601.02 1501.04C1591.36 1493.53 1577.67 1489.63 1565.89 1486.99C1553.15 1484.13 1540.07 1482.98 1527.03 1483.21C1498.16 1483.69 1470.03 1492.02 1442.42 1499.76C1435.6 1501.68 1438.48 1511.78 1445.33 1510.31L1445.32 1510.3Z" fill="#262626"/>
<path d="M1655.06 1551.9C1689.64 1574.1 1716.4 1608.75 1727.72 1648.33C1733.38 1668.13 1734.33 1688.35 1728.6 1708.22C1724.83 1721.27 1719.5 1733.85 1712.18 1745.31C1707.63 1752.44 1702.22 1758.91 1695.79 1764.44C1692.52 1767.25 1688.92 1769.44 1685.21 1771.59C1681.04 1774.02 1677.15 1776.85 1672.67 1778.74C1666.23 1781.45 1665.92 1793.11 1674.52 1792.35C1684.71 1791.45 1693.53 1788.97 1701.88 1782.9C1709.46 1777.4 1715.9 1770.92 1721.6 1763.51C1731.81 1750.21 1739.01 1734.77 1744.15 1718.87C1758.32 1674.96 1745.6 1627.83 1718.5 1591.54C1702.97 1570.75 1683.7 1554.28 1660.45 1542.65C1654.3 1539.57 1649.22 1548.14 1655.04 1551.89L1655.06 1551.9Z" fill="#262626"/>
<path d="M1362.31 1542.88C1346.4 1554.15 1330.23 1564.5 1317.61 1579.68C1305.61 1594.11 1297.68 1610.75 1296.65 1629.67C1296.04 1640.88 1313.87 1640.97 1314.17 1629.67C1315.04 1595.93 1344.02 1570.3 1368.21 1550.52C1372.45 1547.06 1366.82 1539.69 1362.31 1542.89V1542.88Z" fill="#262626"/>
<path d="M1454.63 1626.67C1453.51 1620.97 1451 1615.61 1446.59 1611.26C1438.37 1603.1 1425.32 1601.78 1416.59 1610.05C1412.78 1613.66 1410.18 1618.37 1408.41 1623.37C1399.65 1634.91 1397.75 1651.13 1408.91 1662.49C1415.51 1669.21 1423.92 1671.12 1431.68 1669.42C1433.04 1669.24 1434.45 1668.97 1435.92 1668.51C1451.68 1663.63 1458.4 1641.97 1454.62 1626.67H1454.63ZM1419.3 1639.76C1406.69 1639.76 1405.34 1620.13 1418.03 1620.13C1430.73 1620.13 1432 1639.76 1419.3 1639.76Z" fill="#262626"/>
<path d="M1610.27 1619.58C1600.25 1609.35 1583.72 1610.76 1576.04 1622.9C1573.83 1626.4 1572.87 1630.81 1572.66 1635.36C1571.63 1640.65 1572.42 1645.78 1574.44 1650.52C1574.57 1650.99 1574.68 1651.49 1574.82 1651.94C1576.23 1656.56 1578.4 1662.33 1582.09 1665.71C1587.53 1670.7 1595.2 1672.88 1602.28 1670.38C1608.51 1668.18 1612.92 1663.77 1615.71 1658.4C1617.6 1655.92 1619.06 1653.06 1619.79 1649.82C1622.21 1639.2 1617.78 1627.24 1610.27 1619.57V1619.58ZM1604.05 1644.71C1591.44 1644.71 1590.09 1625.08 1602.79 1625.08C1615.48 1625.08 1616.75 1644.71 1604.05 1644.71Z" fill="#262626"/>
<path d="M1617.44 1513.39C1618.34 1512.8 1620.65 1513.73 1621.43 1514.55C1621.78 1514.92 1621.89 1514.88 1621.91 1515.81C1621.89 1514.74 1621.89 1515.98 1621.78 1516.16C1622.65 1514.67 1620.88 1517.42 1621.69 1515.94C1625.56 1514.92 1629.45 1513.9 1633.32 1512.89C1628.13 1509.63 1622.97 1505.74 1617.43 1503.11C1612.91 1500.97 1607.45 1501.86 1604.78 1506.43C1602.13 1510.93 1603.91 1516.33 1608.09 1519.07C1613.23 1522.44 1619.24 1524.84 1624.73 1527.56C1630.13 1530.24 1635.01 1527.74 1637.22 1522.48C1640.14 1515.52 1637.34 1506.96 1631.43 1502.54C1628.05 1500.02 1623.89 1499.42 1619.81 1500.22C1616.22 1500.92 1613.91 1503.11 1611.38 1505.56C1607.39 1509.42 1612.63 1516.58 1617.43 1513.39H1617.44Z" fill="#262626"/>
<path d="M1393.56 1526.3C1394.06 1525.15 1394.61 1524.06 1395.27 1522.99C1395.79 1522.15 1395.39 1522.75 1395.79 1522.35C1395.96 1522.18 1396.13 1522 1396.32 1521.85C1396.73 1521.48 1396.69 1521.51 1396.24 1521.95C1395.56 1522.12 1395.36 1522.17 1396.16 1522C1393.04 1522.67 1397.2 1521.68 1395.24 1522.05C1393.55 1522.35 1395.97 1521.83 1395.96 1522.24C1395.96 1522.41 1393.39 1520.22 1393.25 1520.03C1393.76 1516.1 1394.27 1512.17 1394.77 1508.24C1394.01 1509.07 1393.23 1509.86 1392.34 1510.57C1393.66 1509.52 1392.09 1510.64 1391.55 1510.96C1391.26 1511.13 1388.87 1512.17 1390.85 1511.44C1389.8 1511.83 1388.73 1512.14 1387.63 1512.38C1391.31 1517.18 1395.01 1521.98 1398.69 1526.78C1398.99 1526.18 1399.28 1525.59 1399.63 1525.02C1399.9 1524.57 1401.04 1523.28 1399.71 1524.72C1400.07 1524.33 1400.41 1523.92 1400.79 1523.54C1401.05 1523.27 1403.04 1521.7 1401.24 1523.02C1405.38 1519.99 1407.86 1514.33 1404.77 1509.54C1402.15 1505.48 1395.71 1502.71 1391.29 1506.01C1387.32 1508.99 1383.91 1512.34 1381.75 1516.88C1380.02 1520.53 1379.95 1524.44 1382.52 1527.77C1384.96 1530.93 1388.94 1532.22 1392.83 1531.28C1398.8 1529.85 1404.4 1526.57 1408.51 1522C1412.17 1517.94 1412.18 1512.33 1408.51 1508.24C1403.18 1502.33 1393.86 1502.43 1388.15 1507.66C1383.76 1511.67 1382.45 1517.69 1382.89 1523.42C1383.08 1525.95 1384.54 1528.23 1387.08 1528.93C1389.32 1529.54 1392.54 1528.58 1393.54 1526.3H1393.56Z" fill="#262626"/>
<path d="M1304.21 1652.56C1294.54 1701.63 1308.9 1769.98 1361.1 1789.01C1370.45 1792.42 1377.09 1777.01 1367.94 1772.79C1323.74 1752.41 1313.08 1697.86 1313.06 1653.75C1313.06 1648.83 1305.23 1647.45 1304.22 1652.56H1304.21Z" fill="#262626"/>
<path d="M781.925 1741.32C766.978 1759.92 758.177 1783.46 750.194 1805.69C741.986 1828.54 735.732 1852.93 733.351 1877.12C732.072 1890.12 753.866 1893.14 756.282 1880.22C764.774 1835.02 774.594 1789.72 791.271 1746.75C793.249 1741.65 785.36 1737.03 781.925 1741.31V1741.32Z" fill="#262626"/>
<path d="M933.735 1781.53C910.651 1800.39 902.051 1833.07 900.808 1861.91C900.239 1874.91 922.069 1878.35 923.976 1865.04C925.918 1851.47 927.138 1837.98 930.585 1824.67C933.901 1811.88 938.485 1799.41 943.484 1787.23C945.947 1781.21 937.644 1778.34 933.724 1781.54L933.735 1781.53Z" fill="#262626"/>
<path d="M1152.73 1769.74C1155.68 1786.92 1158.68 1804.37 1160.04 1821.77C1161.41 1839.43 1162.03 1856.87 1162.23 1874.6C1162.41 1890.25 1185.19 1889.91 1186.31 1874.6C1189.02 1837.49 1180.6 1798.1 1162.95 1765.43C1159.75 1759.49 1151.71 1763.83 1152.73 1769.74Z" fill="#262626"/>
<path d="M1293.48 1718.48C1296.19 1731.34 1300.22 1743.92 1303.33 1756.72C1306.46 1769.56 1309.07 1782.62 1311.02 1795.68C1312.87 1808.09 1313.51 1820.56 1314.11 1833.07C1314.44 1839.86 1314.72 1846.63 1314.7 1853.43C1314.68 1860.43 1314.02 1868.13 1317.64 1874.4C1321.66 1881.31 1330.17 1879.98 1334.45 1874.4C1338.76 1868.76 1338.57 1860.22 1338.81 1853.43C1339.04 1846.65 1339.16 1839.85 1338.88 1833.07C1338.3 1818.88 1336.12 1804.54 1333.47 1790.6C1328.44 1764.28 1320.25 1735.87 1304.59 1713.8C1300.63 1708.22 1292.01 1711.53 1293.48 1718.49V1718.48Z" fill="#262626"/>
<path d="M1164.93 1875.31C1160.97 1886.19 1156.99 1897.07 1153.06 1907.97C1149.19 1918.67 1149.6 1928.51 1158.97 1936.07C1175.34 1949.26 1196.29 1955.77 1217.1 1957C1221.66 1957.27 1226.24 1957.4 1230.81 1957.37C1236.14 1957.32 1241.23 1955.82 1246.53 1955.41C1257.03 1954.62 1267.49 1954.35 1277.92 1952.69C1295.54 1949.9 1310.6 1940.03 1321.31 1925.93C1332.9 1910.68 1337.73 1891.76 1334.8 1872.87C1333.35 1863.47 1319.05 1867.46 1320.49 1876.81C1323.09 1893.62 1316.18 1911.24 1304.24 1923.03C1298.23 1928.97 1290.89 1933.56 1282.75 1935.91C1272.16 1938.97 1261.3 1938.16 1250.43 1937.47C1245.65 1937.17 1241.47 1935.85 1236.79 1934.96C1231.71 1933.99 1226.48 1933.66 1221.38 1932.75C1211.26 1930.94 1201.03 1929.1 1191.31 1925.67C1186.92 1924.12 1182.58 1922.39 1178.44 1920.25C1176.8 1919.39 1173.14 1918.1 1172.07 1916.55C1172.92 1917.78 1172.07 1916.9 1172.56 1915.76C1173.62 1913.2 1173.53 1909.32 1173.93 1906.56C1174.39 1903.49 1174.85 1900.42 1175.3 1897.36L1178.06 1878.96C1179.35 1870.38 1167.97 1866.95 1164.93 1875.33V1875.31Z" fill="#262626"/>
<path d="M1176.37 1899.43C1184.69 1891.48 1196.77 1890.6 1207.17 1894.78C1222.49 1900.93 1235.45 1912.49 1251.87 1916.02C1286.53 1923.48 1315.34 1899.06 1336.17 1874.29C1341.92 1867.45 1332.45 1857.57 1326.19 1864.32C1315.08 1876.29 1302.17 1887.34 1286.47 1892.69C1279.38 1895.11 1271.64 1896.53 1264.14 1895.57C1256.26 1894.55 1248.82 1890.76 1241.91 1887.08C1227.56 1879.47 1214 1871.53 1197.15 1872.94C1183.23 1874.1 1169.53 1880.75 1167.65 1895.82C1167.07 1900.47 1173.48 1902.2 1176.37 1899.43Z" fill="#262626"/>
<path d="M910.708 1837C898.402 1859.87 899.184 1888.04 901.114 1913.14C901.399 1916.91 902.026 1921.84 899.847 1925.2C897.253 1929.19 890.987 1931.44 886.711 1933.01C875.992 1936.95 864.929 1938.42 853.582 1939.14C833.506 1940.42 813.003 1943.31 792.927 1941.09C779.85 1939.64 763.967 1934.79 754.574 1925.49C750.05 1921.02 746.863 1915.1 745.999 1909.25C744.494 1898.98 748.451 1889.2 750.938 1879.44C753.508 1869.39 740.562 1864.87 734.936 1872.69C722.961 1889.37 721.184 1914.27 731.916 1932.03C741.829 1948.44 760.082 1958.01 778.145 1962.66C800.033 1968.3 821.425 1965.27 843.609 1964.25C857.764 1963.6 872.214 1962.96 885.965 1959.26C898.722 1955.83 913.492 1949.07 920.374 1937.17C928.534 1923.08 922.683 1906.1 920.587 1891.24C918.135 1873.9 920.125 1856.74 919.556 1839.36C919.414 1834.85 913.03 1832.67 910.72 1836.97L910.708 1837Z" fill="#262626"/>
<path d="M911.658 1895.17C906.008 1889.5 900.595 1885.2 892.647 1883.11C884.901 1881.09 876.017 1882.02 868.543 1884.74C859.613 1887.97 853.548 1894.02 846.205 1899.68C840.318 1904.21 833.164 1906.81 825.761 1907.28C797.086 1909.09 775.754 1886.42 752.811 1872.52C747.303 1869.18 742.66 1876.45 746.32 1880.92C754.943 1891.44 765.188 1901.35 775.552 1910.15C787.918 1920.64 800.165 1926.91 816.499 1928.55C834.277 1930.32 850.504 1924.56 863.983 1913.14C870.036 1908.01 875.058 1902.88 883.172 1901.42C889.911 1900.2 899.375 1900.01 905.629 1903.02C910.544 1905.37 915.874 1899.41 911.669 1895.19L911.658 1895.17Z" fill="#262626"/>
<path d="M1482.56 1645.89C1481.31 1653.37 1486.75 1660.17 1493.37 1662.97C1500.52 1665.99 1508.5 1663.71 1514.45 1659.15C1517.74 1656.62 1520.55 1653.41 1522.73 1649.88C1521.36 1649.88 1519.98 1649.89 1518.6 1649.91C1522.67 1655.77 1528.73 1660.44 1535.82 1661.89C1542.65 1663.29 1549.81 1660.67 1554.18 1655.23C1556.63 1652.19 1557.86 1648.37 1557.53 1644.47C1557.41 1643.11 1555.93 1642.02 1554.6 1642.27C1553.16 1642.53 1552.27 1643.75 1552.4 1645.19C1552.41 1645.39 1552.42 1645.61 1552.45 1645.81C1552.45 1645.71 1552.46 1645.29 1552.45 1645.76C1552.45 1646.1 1552.42 1646.44 1552.39 1646.78C1552.35 1647.11 1552.3 1647.44 1552.23 1647.77C1552.21 1647.9 1552.17 1648.03 1552.15 1648.16C1552.28 1647.55 1552.15 1648.14 1552.1 1648.28C1551.9 1648.92 1551.65 1649.55 1551.36 1650.14C1551.3 1650.26 1551.23 1650.38 1551.17 1650.5C1551.48 1649.88 1551.17 1650.49 1551.11 1650.59C1550.93 1650.88 1550.74 1651.16 1550.54 1651.44C1550.14 1652 1549.7 1652.52 1549.24 1653.03C1548.79 1653.53 1549.53 1652.77 1549.21 1653.06C1549.08 1653.17 1548.96 1653.29 1548.83 1653.41C1548.55 1653.67 1548.25 1653.91 1547.96 1654.14C1547.44 1654.56 1546.89 1654.93 1546.32 1655.28C1545.75 1655.64 1546.64 1655.13 1546.26 1655.32C1546.11 1655.4 1545.96 1655.48 1545.8 1655.57C1545.46 1655.74 1545.12 1655.9 1544.76 1656.05C1544.14 1656.31 1543.52 1656.52 1542.89 1656.71C1543.42 1656.56 1542.96 1656.69 1542.82 1656.71C1542.65 1656.75 1542.47 1656.8 1542.31 1656.82C1541.93 1656.89 1541.55 1656.95 1541.17 1657C1540.86 1657.03 1540.54 1657.06 1540.24 1657.08C1540.16 1657.08 1539.48 1657.08 1540.02 1657.09C1539.87 1657.09 1539.71 1657.09 1539.57 1657.09C1538.78 1657.07 1538 1657 1537.21 1656.87C1536.88 1656.81 1536.55 1656.75 1536.22 1656.68C1536.15 1656.67 1535.43 1656.48 1535.99 1656.63C1535.85 1656.6 1535.71 1656.55 1535.56 1656.51C1534.8 1656.3 1534.05 1656.03 1533.33 1655.72C1532.67 1655.45 1532.03 1655.13 1531.39 1654.8C1530.74 1654.46 1531.68 1654.99 1531.29 1654.75C1531.13 1654.65 1530.96 1654.56 1530.81 1654.45C1530.42 1654.22 1530.04 1653.97 1529.66 1653.71C1528.96 1653.23 1528.3 1652.72 1527.64 1652.18C1527.32 1651.91 1527 1651.63 1526.69 1651.34C1526.54 1651.21 1526.4 1651.08 1526.26 1650.95C1525.7 1650.43 1526.63 1651.34 1526.09 1650.79C1524.86 1649.53 1523.74 1648.16 1522.72 1646.72C1521.82 1645.43 1519.46 1645.33 1518.58 1646.74C1517.71 1648.15 1516.75 1649.51 1515.68 1650.79C1515.17 1651.41 1514.63 1651.99 1514.08 1652.57C1513.77 1652.9 1514.54 1652.13 1514.01 1652.64C1513.85 1652.79 1513.69 1652.96 1513.53 1653.11C1513.19 1653.42 1512.86 1653.73 1512.52 1654.03C1511.95 1654.51 1511.36 1654.99 1510.75 1655.42C1510.45 1655.65 1510.15 1655.86 1509.83 1656.06C1509.64 1656.18 1509.45 1656.31 1509.26 1656.43C1509.19 1656.47 1508.52 1656.87 1508.79 1656.73C1509.12 1656.54 1508.49 1656.89 1508.49 1656.88C1508.3 1656.99 1508.1 1657.09 1507.9 1657.19C1507.57 1657.35 1507.24 1657.51 1506.9 1657.66C1506.17 1657.99 1505.41 1658.28 1504.64 1658.51C1504.57 1658.54 1503.86 1658.73 1504.44 1658.58C1504.3 1658.62 1504.16 1658.66 1504.01 1658.69C1503.62 1658.79 1503.22 1658.87 1502.83 1658.94C1501.99 1659.08 1501.14 1659.17 1500.28 1659.2C1500.84 1659.18 1500.37 1659.2 1500.22 1659.2C1500.05 1659.2 1499.88 1659.2 1499.7 1659.18C1499.36 1659.15 1499.02 1659.12 1498.67 1659.07C1498.29 1659.02 1497.91 1658.95 1497.55 1658.87C1497.41 1658.83 1496.94 1658.72 1497.49 1658.87C1497.25 1658.81 1497.01 1658.74 1496.79 1658.67C1496.09 1658.44 1495.4 1658.18 1494.74 1657.87C1494.42 1657.72 1494.11 1657.57 1493.8 1657.4C1494.4 1657.72 1493.78 1657.38 1493.69 1657.32C1493.51 1657.21 1493.33 1657.09 1493.15 1656.97C1492.51 1656.55 1491.91 1656.09 1491.33 1655.58C1491.22 1655.48 1491.13 1655.39 1491.02 1655.31C1490.5 1654.84 1491.4 1655.72 1490.93 1655.22C1490.64 1654.93 1490.37 1654.62 1490.1 1654.31C1489.84 1654 1489.59 1653.67 1489.35 1653.34C1489.23 1653.17 1489.13 1653.01 1489.02 1652.83C1488.94 1652.71 1488.65 1652.17 1488.95 1652.72C1488.57 1652.01 1488.24 1651.3 1487.99 1650.53C1487.95 1650.43 1487.8 1649.79 1487.94 1650.41C1487.89 1650.23 1487.85 1650.04 1487.81 1649.83C1487.73 1649.44 1487.68 1649.05 1487.65 1648.65C1487.62 1648.45 1487.62 1648.25 1487.61 1648.06C1487.65 1648.67 1487.61 1648.06 1487.61 1647.92C1487.63 1647.44 1487.68 1646.97 1487.76 1646.5C1487.99 1645.16 1486.84 1643.71 1485.49 1643.62C1484.03 1643.51 1482.85 1644.46 1482.61 1645.89H1482.56Z" fill="#262626"/>
<path d="M1449.96 1903.12C1453.3 1910.38 1457.51 1917.52 1462.37 1923.87C1467.5 1930.58 1473.74 1938.01 1482.42 1939.69C1491.86 1941.51 1499.49 1935.46 1504.38 1928.01C1509.6 1920.06 1513.97 1911.02 1515.67 1901.62C1517.2 1893.13 1507.25 1885.79 1500.42 1892.75C1495.57 1897.7 1491.62 1903.44 1488.65 1909.71C1487.41 1912.32 1486.27 1915.05 1484.75 1917.52C1484.35 1918.19 1484.02 1918.68 1483.58 1919.31C1482.63 1920.67 1482.72 1919.73 1483.89 1919.91C1479.54 1919.22 1474.56 1913.92 1471.5 1911.01C1467.04 1906.75 1463.99 1902.03 1461.3 1896.49C1457.58 1888.84 1446.46 1895.53 1449.96 1903.12Z" fill="#262626"/>
<path d="M1493.83 1927.77C1503.87 1929.79 1513.75 1930.13 1523.96 1930.62C1534.13 1931.1 1544.65 1931.73 1554.74 1930.11C1562.52 1928.87 1562.52 1915.65 1554.74 1914.4C1544.66 1912.77 1534.12 1913.41 1523.96 1913.89C1513.75 1914.37 1503.86 1914.72 1493.83 1916.74C1488.38 1917.84 1488.36 1926.66 1493.83 1927.77Z" fill="#262626"/>
<path d="M1551.88 1893.38C1550.04 1902.57 1544.98 1910.88 1545.91 1920.59C1546.97 1931.83 1556.31 1939.87 1567.5 1939.9C1587.45 1939.95 1607.33 1921.16 1611.5 1902.33C1613.84 1891.8 1599.81 1885.46 1593.94 1894.93C1588.26 1904.08 1580.4 1916.75 1568.85 1918.93C1563.56 1919.93 1563.43 1917.25 1563.64 1912.49C1563.94 1905.88 1564.62 1899.95 1563.14 1893.38C1561.91 1887.9 1553.02 1887.73 1551.88 1893.38Z" fill="#262626"/>
<path d="M1349.42 1770.53C1349.22 1776.73 1348.15 1782.92 1348.21 1789.12C1348.26 1794.51 1348.9 1799.97 1349.33 1805.34C1350.25 1816.51 1351.43 1827.65 1352.96 1838.76C1355.33 1855.91 1359.18 1872.85 1368.1 1887.91C1377.62 1904 1391.79 1915.3 1410.22 1919.39C1429.49 1923.67 1449.67 1920.51 1468.66 1926.21C1476.12 1928.45 1481.57 1916.5 1474.09 1913.32C1457.11 1906.1 1438.91 1905.62 1421.18 1901.3C1406.11 1897.62 1394.11 1888.82 1386.22 1875.42C1378.46 1862.23 1373.92 1847.02 1370.38 1832.22C1367.92 1821.9 1365.76 1811.49 1363.83 1801.04C1362.92 1796.12 1362.3 1791.1 1361.19 1786.21C1359.91 1780.59 1357.93 1775.18 1356.81 1769.53C1355.96 1765.24 1349.54 1766.42 1349.41 1770.54L1349.42 1770.53Z" fill="#262626"/>
<path d="M1675.32 1777.35C1663.45 1805.41 1661.46 1836.39 1651.43 1865.03C1647.58 1876.02 1641.66 1886.44 1632.21 1893.52C1622.73 1900.61 1612.51 1901.6 1601.06 1900.57C1591.24 1899.68 1589.44 1913.14 1596.39 1917.78C1609.38 1926.46 1626.24 1922.97 1639.25 1915.89C1652.59 1908.63 1662.07 1896.32 1668.06 1882.58C1674.47 1867.89 1677.42 1852.28 1680.38 1836.61C1683.84 1818.34 1687.61 1799.27 1687.58 1780.67C1687.58 1774.65 1678 1771.06 1675.34 1777.35H1675.32Z" fill="#262626"/>
<path d="M866.066 907.797C867.831 906.305 869.632 904.825 871.444 903.392C871.728 903.167 873.161 902.054 872.226 902.777C871.231 903.534 872.818 902.327 873.019 902.173C873.943 901.474 874.867 900.775 875.803 900.1C879.545 897.365 883.383 894.748 887.292 892.274C895.192 887.265 903.436 882.801 911.94 878.893C912.923 878.443 913.894 878.005 914.889 877.567C915.422 877.33 915.955 877.105 916.488 876.869C916.714 876.774 916.95 876.667 917.175 876.572C918.478 876.016 916.015 877.058 916.915 876.679C919.059 875.803 921.214 874.927 923.382 874.11C927.717 872.464 932.111 870.96 936.541 869.61C945.413 866.898 954.45 864.767 963.606 863.251C964.909 863.038 966.223 862.825 967.526 862.636C967.775 862.6 968.012 862.565 968.261 862.529C968.427 862.505 970.085 862.28 968.699 862.458C967.372 862.636 969.587 862.34 969.884 862.304C972.43 861.984 974.988 861.712 977.535 861.499C982.818 861.037 988.112 860.8 993.407 860.753C997.481 860.717 1001.38 857.201 1001.19 852.973C1001 848.794 997.765 845.147 993.407 845.194C973.946 845.372 954.415 848.237 935.724 853.613C916.974 859.012 898.816 866.946 882.175 877.129C872.64 882.955 863.591 889.574 855.051 896.797C851.936 899.437 852.125 905.121 855.051 907.797C858.367 910.84 862.726 910.615 866.055 907.797H866.066Z" fill="#262626"/>
<path d="M999.401 843.453C999.863 843.169 1000.32 842.921 1000.8 842.66C1001.45 842.305 1001.51 842.767 1000.03 842.98C1000.25 842.944 1000.56 842.79 1000.77 842.731C1001.27 842.577 1001.78 842.482 1002.29 842.364C1003 842.21 1003.08 842.613 1001.39 842.482C1001.64 842.506 1001.92 842.435 1002.17 842.423C1002.69 842.4 1003.23 842.411 1003.75 842.435C1004 842.447 1004.29 842.506 1004.54 842.506C1002.69 842.553 1003 842.269 1003.66 842.4C1004.8 842.624 1005.89 842.956 1006.99 843.323C1007.91 843.631 1005.41 842.589 1006.28 843.003C1006.47 843.086 1006.66 843.169 1006.85 843.264C1007.35 843.501 1007.83 843.761 1008.32 844.045C1008.81 844.33 1009.27 844.626 1009.73 844.933C1009.93 845.076 1010.18 845.312 1010.4 845.419C1009.98 845.206 1009.01 844.282 1009.97 845.111C1010.81 845.822 1011.59 846.603 1012.3 847.444C1011.51 846.272 1013.35 848.675 1012.3 847.444C1012.76 848.119 1013.21 848.794 1013.63 849.492C1014.24 850.546 1014.76 851.635 1015.28 852.737C1015.72 853.66 1014.72 851.268 1015.07 852.227C1015.19 852.535 1015.31 852.831 1015.43 853.139C1015.69 853.826 1015.92 854.525 1016.14 855.223C1016.93 857.745 1017.52 860.327 1018.02 862.932C1018.27 864.234 1018.49 865.549 1018.71 866.851C1018.91 868.083 1018.92 869.563 1019.31 870.747C1018.79 869.219 1019.16 869.48 1019.23 870.143C1019.26 870.474 1019.3 870.794 1019.34 871.126C1019.39 871.777 1019.44 872.428 1019.45 873.091C1019.47 873.743 1019.44 874.382 1019.41 875.033C1019.37 876.004 1019.03 875.069 1019.51 874.394C1019.34 874.642 1019.35 875.258 1019.26 875.554C1019.2 875.779 1019.13 876.004 1019.06 876.229C1018.66 877.709 1019.94 874.82 1019.11 876.111C1019.03 876.229 1018.81 876.786 1018.68 876.821C1018.8 876.786 1020.1 875.211 1019.12 876.182C1019 876.3 1018.83 876.419 1018.74 876.549C1019.51 875.448 1020.1 875.602 1019.18 876.158C1019.1 876.205 1018.59 876.525 1018.55 876.501C1018.53 876.478 1020.7 875.803 1019.26 876.182C1019.04 876.241 1018.81 876.3 1018.59 876.371C1017.76 876.608 1017.69 876.063 1019.47 876.276C1019.28 876.253 1018.97 876.276 1018.79 876.288C1017.59 876.359 1020.53 876.715 1019.71 876.43C1019.51 876.359 1019.3 876.3 1019.1 876.265C1018.23 876.087 1020.97 877.153 1019.95 876.584C1019.45 876.312 1019.06 875.661 1020.77 877.224C1019.87 876.395 1021.87 878.893 1021.18 877.745C1019.07 874.264 1014.1 872.653 1010.53 874.95C1007.04 877.2 1005.49 881.865 1007.74 885.595C1012.5 893.47 1023.21 893.375 1029.62 887.656C1036.19 881.794 1035.25 872.464 1034.02 864.672C1031.93 851.375 1028.02 836.396 1014.86 829.907C1007.53 826.284 998.69 825.491 991.512 830.002C988.066 832.169 986.384 837.036 988.717 840.647C990.944 844.093 995.682 845.762 999.365 843.442L999.401 843.453Z" fill="#262626"/>
<path d="M861.993 875.033C857.066 866.33 845.672 868.71 839.737 874.832C835.473 879.237 832.702 885.631 831.352 891.539C828.663 903.286 830.593 916.05 836.753 926.423C840.294 932.391 845.245 937.482 851.179 941.094C854.661 943.213 859.885 941.97 861.827 938.299C863.829 934.51 862.751 929.916 859.032 927.654C858.096 927.086 856.995 926.506 856.201 925.736C856.213 925.748 857.8 927.039 856.888 926.257C856.699 926.091 856.497 925.937 856.308 925.772C855.834 925.369 855.36 924.943 854.91 924.505C854.14 923.771 853.406 922.989 852.707 922.184C852.352 921.769 851.925 921.343 851.629 920.881C851.629 920.893 852.849 922.539 852.162 921.556C851.949 921.248 851.724 920.941 851.511 920.633C850.255 918.809 849.213 916.879 848.265 914.878C847.531 913.339 848.964 916.666 848.23 914.819C848.04 914.345 847.863 913.872 847.697 913.398C847.294 912.261 846.951 911.113 846.655 909.94C846.394 908.898 846.169 907.844 845.991 906.779C845.944 906.53 845.908 906.281 845.873 906.033C845.66 904.801 846.003 906.98 845.991 906.968C845.802 906.435 845.849 905.642 845.802 905.074C845.636 902.8 845.648 900.527 845.873 898.265C845.897 898.016 845.932 897.768 845.956 897.519C846.086 896.276 845.825 898.478 845.825 898.466C845.754 898.005 846.027 897.259 846.11 896.797C846.335 895.625 846.631 894.464 846.974 893.327C847.282 892.297 847.673 891.314 848.04 890.308C848.36 889.432 847.282 891.966 847.697 891.125C847.804 890.9 847.91 890.663 848.017 890.438C848.289 889.87 848.573 889.313 848.87 888.757C849.485 887.644 850.196 886.614 850.883 885.548C851.416 884.731 849.474 887.075 850.469 886.116C850.694 885.903 850.907 885.666 851.132 885.441C851.345 885.24 851.594 884.944 851.854 884.814C851.499 884.991 850.279 885.844 851.381 885.24C851.653 885.086 851.937 884.92 852.21 884.755C853.276 884.103 850.694 885.216 851.535 885.003C851.925 884.908 853.974 884.447 852.352 884.684C852.115 884.719 851.878 884.755 851.641 884.79C851.854 884.778 852.068 884.79 852.281 884.79C851.795 884.731 851.309 884.66 850.812 884.601C851.321 884.755 851.203 884.684 850.445 884.399C850.232 884.305 850.007 884.21 849.793 884.115C850.445 884.506 850.172 884.269 848.952 883.405C849.829 884.234 847.851 881.7 848.514 882.884C850.516 886.424 855.668 887.928 859.162 885.678C862.751 883.369 864.102 878.822 861.958 875.033H861.993Z" fill="#262626"/>
<path d="M580.97 1124.72C574.942 1122.91 568.972 1120.9 563.097 1118.63C561.711 1118.09 560.337 1117.55 558.963 1116.99C558.276 1116.72 557.578 1116.47 556.914 1116.14C558.845 1117.07 556.227 1115.84 555.706 1115.62C552.816 1114.36 549.962 1113.05 547.131 1111.69C535.914 1106.26 525.147 1099.92 515.02 1092.67C513.824 1091.82 512.64 1090.94 511.455 1090.05C510.792 1089.56 510.117 1089.07 509.477 1088.55C509.643 1088.69 510.827 1089.6 509.738 1088.75C509.382 1088.47 509.015 1088.18 508.648 1087.9C506.267 1086.02 503.934 1084.07 501.648 1082.08C496.934 1077.98 492.409 1073.64 488.11 1069.09C485.954 1066.82 483.869 1064.49 481.832 1062.1C480.873 1060.97 479.925 1059.84 479.001 1058.69C478.539 1058.11 478.077 1057.54 477.615 1056.96C477.39 1056.67 477.13 1056.39 476.928 1056.08C478.065 1057.76 477.011 1056.19 476.786 1055.89C472.96 1050.86 469.395 1045.61 466.138 1040.19C462.881 1034.77 459.908 1029.18 457.266 1023.42C457.089 1023.05 455.537 1018.96 455.288 1018.97C455.324 1018.97 456.023 1020.74 455.407 1019.24C455.265 1018.89 455.111 1018.53 454.969 1018.18C454.637 1017.37 454.317 1016.57 454.009 1015.76C452.813 1012.68 451.7 1009.57 450.669 1006.42C448.608 1000.07 446.903 993.609 445.564 987.06C444.913 983.911 444.368 980.737 443.87 977.564C443.669 976.297 443.479 975.03 443.302 973.751C443.243 973.36 443.195 972.958 443.136 972.567C442.982 971.537 443.349 974.249 443.219 973.218C443.124 972.508 443.041 971.809 442.946 971.099C441.667 960.774 441.004 950.365 441.039 939.957C441.051 935.055 441.217 930.165 441.549 925.274C441.715 922.847 441.916 920.42 442.153 917.992C442.271 916.867 442.39 915.731 442.52 914.606C442.591 913.978 442.674 913.339 442.745 912.711C442.792 912.344 443.077 910.189 442.875 911.657C442.674 913.197 442.958 911.101 442.994 910.817C443.077 910.26 443.16 909.715 443.243 909.159C443.432 907.916 443.633 906.684 443.835 905.453C444.214 903.203 444.64 900.965 445.09 898.739C446.014 894.216 447.092 889.716 448.312 885.264C449.52 880.894 450.859 876.561 452.363 872.274C453.097 870.155 453.879 868.059 454.684 865.963C455.063 864.98 455.454 864.009 455.845 863.038C456.046 862.553 456.248 862.067 456.437 861.582C457.207 859.711 455.762 863.133 456.568 861.274C460.014 853.281 463.935 845.514 468.377 838.03C470.544 834.371 472.842 830.784 475.246 827.267C476.455 825.491 477.698 823.738 478.966 821.998C479.558 821.18 480.162 820.375 480.766 819.57C481.109 819.12 481.453 818.67 481.796 818.22C482.353 817.474 480.695 819.629 481.275 818.895C481.465 818.647 481.666 818.398 481.856 818.149C492.314 804.816 504.431 792.798 517.78 782.342C518.005 782.165 519.521 780.98 518.325 781.916C517.129 782.851 518.645 781.679 518.87 781.501C519.711 780.862 520.563 780.223 521.416 779.595C523.122 778.34 524.839 777.108 526.581 775.901C530.063 773.485 533.604 771.176 537.217 768.962C544.442 764.533 551.904 760.519 559.567 756.92C561.427 756.043 563.298 755.191 565.182 754.374C565.691 754.149 566.212 753.924 566.722 753.699C567.302 753.45 569.008 752.775 566.579 753.758C567.562 753.367 568.534 752.941 569.517 752.55C573.437 750.964 577.417 749.483 581.421 748.11C589.368 745.386 597.47 743.077 605.666 741.207C609.788 740.271 613.946 739.43 618.115 738.72C620.199 738.365 622.284 738.033 624.381 737.725C624.878 737.654 625.364 737.583 625.861 737.512C627.14 737.323 623.705 737.785 625.636 737.548C626.75 737.406 627.863 737.264 628.964 737.133C637.291 736.174 645.677 735.653 654.075 735.606C662.449 735.558 670.835 735.961 679.161 736.849C680.145 736.956 681.139 737.062 682.123 737.181C682.62 737.24 683.106 737.299 683.603 737.358C683.852 737.394 684.101 737.418 684.337 737.453C685.818 737.642 682.265 737.169 683.745 737.37C685.83 737.666 687.915 737.974 689.999 738.317C694.157 739.016 698.302 739.833 702.412 740.768C710.597 742.639 718.663 744.996 726.563 747.838C728.494 748.536 730.424 749.258 732.343 750.016C733.326 750.407 734.309 750.81 735.293 751.212C735.518 751.307 735.754 751.402 735.98 751.496C736.844 751.852 734.298 750.774 735.162 751.153C735.683 751.378 736.193 751.591 736.714 751.816C740.623 753.521 744.484 755.345 748.286 757.287C755.902 761.194 763.269 765.599 770.305 770.477C772.105 771.721 773.87 772.988 775.623 774.29C776.452 774.906 777.329 775.818 778.253 776.268C778.217 776.244 776.642 775.013 777.601 775.759C777.802 775.924 778.004 776.078 778.217 776.232C778.679 776.587 779.129 776.954 779.591 777.322C783.002 780.057 786.331 782.899 789.552 785.847C796.268 791.993 802.557 798.612 808.385 805.61C809.877 807.409 811.311 809.257 812.767 811.068C812.72 811.009 811.559 809.493 812.306 810.476C812.471 810.701 812.637 810.914 812.815 811.139C813.146 811.577 813.49 812.027 813.822 812.466C814.568 813.472 815.314 814.479 816.048 815.497C818.82 819.345 821.473 823.3 823.984 827.326C829.741 836.526 834.881 846.153 839.193 856.111C839.358 856.502 839.524 856.881 839.69 857.272C839.027 855.709 839.595 857.047 839.761 857.449C840.081 858.231 840.401 859 840.709 859.782C841.372 861.44 842 863.098 842.616 864.779C843.836 868.13 844.973 871.505 846.027 874.915C848.111 881.723 849.841 888.65 851.215 895.636C851.902 899.13 852.494 902.646 853.003 906.175C853.062 906.589 853.145 907.016 853.181 907.418C853.157 907.158 852.968 905.737 853.157 907.217C853.264 908.046 853.37 908.886 853.465 909.715C853.678 911.586 853.88 913.469 854.046 915.352C854.673 922.35 854.958 929.395 854.898 936.417C854.839 943.557 854.425 950.697 853.667 957.79C853.489 959.459 853.276 961.129 853.074 962.798C852.932 963.959 853.276 961.437 853.098 962.597C853.039 963.012 852.98 963.426 852.92 963.84C852.766 964.882 852.612 965.913 852.447 966.955C851.902 970.377 851.274 973.787 850.563 977.173C849.095 984.159 847.294 991.063 845.138 997.871C844.061 1001.27 842.9 1004.64 841.656 1007.98C841.064 1009.56 840.46 1011.12 839.844 1012.67C839.536 1013.45 839.216 1014.22 838.896 1015.01C838.34 1016.36 838.837 1015.14 838.956 1014.89C838.707 1015.47 838.458 1016.05 838.209 1016.62C832.548 1029.58 825.536 1041.98 817.245 1053.45C816.238 1054.85 815.207 1056.22 814.165 1057.6C813.952 1057.88 813.253 1058.76 814.284 1057.45C814.035 1057.77 813.786 1058.08 813.549 1058.4C812.992 1059.11 812.436 1059.81 811.867 1060.51C809.747 1063.13 807.556 1065.68 805.305 1068.19C800.935 1073.06 796.304 1077.7 791.471 1082.11C789.043 1084.32 786.556 1086.47 784.021 1088.55C782.836 1089.53 781.628 1090.48 780.42 1091.44C779.319 1092.3 780.444 1091.44 780.633 1091.28C780.254 1091.58 779.875 1091.86 779.484 1092.16C778.797 1092.68 778.11 1093.2 777.412 1093.71C772.188 1097.56 766.775 1101.16 761.208 1104.49C755.665 1107.8 749.968 1110.86 744.14 1113.64C741.321 1114.99 738.467 1116.27 735.589 1117.5C734.487 1117.97 737.353 1116.78 735.612 1117.49C735.257 1117.63 734.914 1117.77 734.558 1117.93C733.859 1118.21 733.149 1118.5 732.45 1118.78C730.957 1119.37 729.453 1119.95 727.937 1120.51C715.95 1124.95 703.573 1128.35 691.006 1130.71C687.843 1131.31 684.657 1131.84 681.471 1132.3C680.725 1132.41 679.967 1132.54 679.221 1132.62C681.365 1132.4 679.019 1132.65 678.463 1132.72C676.769 1132.93 675.075 1133.12 673.369 1133.3C666.95 1133.95 660.506 1134.35 654.051 1134.49C647.596 1134.63 641.141 1134.53 634.709 1134.16C631.582 1133.98 628.467 1133.75 625.352 1133.45C623.753 1133.3 622.142 1133.13 620.543 1132.94C619.785 1132.86 619.039 1132.76 618.281 1132.67C617.902 1132.62 617.534 1132.57 617.155 1132.53C615.651 1132.34 618.257 1132.68 617.25 1132.54C604.979 1130.8 592.874 1128.24 580.994 1124.71C577.097 1123.55 572.336 1126.11 571.424 1130.15C570.476 1134.33 572.679 1138.48 576.86 1139.71C602.35 1147.28 629.189 1150.77 655.757 1150C682.277 1149.23 708.844 1144.33 733.67 1134.92C759.159 1125.24 782.765 1111.17 802.901 1092.74C823.972 1073.46 840.874 1049.58 852.15 1023.35C863.936 995.906 870.225 966.339 870.474 936.452C870.723 906.601 864.883 876.904 853.169 849.445C844.771 829.765 833.329 811.412 819.685 794.941C807.769 780.554 793.864 767.908 778.513 757.251C763.826 747.044 747.729 738.957 730.91 732.882C714.221 726.855 696.822 723.137 679.197 721.266C662.212 719.467 645.037 719.644 628.076 721.669C610.487 723.777 593.17 727.578 576.434 733.403C559.698 739.217 543.506 746.784 528.44 756.126C513.433 765.421 499.397 776.457 486.949 788.985C474.37 801.643 463.295 815.935 454.293 831.34C444.924 847.361 437.699 864.755 432.926 882.682C427.785 901.96 425.393 922.03 425.5 941.958C425.63 965.853 428.769 990.4 436.527 1013.05C445.268 1038.57 459.6 1061.84 478.279 1081.29C496.14 1099.89 517.78 1114.93 541.054 1125.95C552.615 1131.43 564.601 1136.04 576.86 1139.71C580.757 1140.89 585.519 1138.32 586.431 1134.28C587.39 1130.09 585.175 1125.95 580.994 1124.71L580.97 1124.72Z" fill="#262626"/>
<path d="M1135.45 978.997C1129.42 977.185 1123.45 975.172 1117.57 972.899C1116.19 972.366 1114.81 971.821 1113.44 971.265C1112.75 970.992 1112.05 970.744 1111.39 970.412C1113.32 971.348 1110.7 970.116 1110.18 969.891C1107.29 968.636 1104.44 967.322 1101.61 965.96C1090.39 960.537 1079.62 954.19 1069.5 946.943C1068.3 946.091 1067.12 945.215 1065.93 944.326C1065.27 943.829 1064.59 943.344 1063.95 942.823C1064.12 942.965 1065.3 943.876 1064.21 943.024C1063.86 942.74 1063.49 942.456 1063.12 942.171C1060.74 940.289 1058.41 938.347 1056.12 936.357C1051.41 932.249 1046.89 927.915 1042.59 923.368C1040.43 921.095 1038.35 918.762 1036.31 916.37C1035.35 915.245 1034.4 914.108 1033.48 912.96C1033.02 912.38 1032.55 911.811 1032.09 911.231C1031.87 910.947 1031.61 910.663 1031.4 910.355C1032.55 912.036 1031.49 910.461 1031.26 910.165C1027.44 905.133 1023.87 899.887 1020.61 894.464C1017.36 889.041 1014.38 883.452 1011.74 877.697C1011.57 877.318 1010.01 873.233 1009.77 873.245C1009.8 873.245 1010.5 875.01 1009.88 873.518C1009.74 873.162 1009.59 872.807 1009.45 872.452C1009.11 871.647 1008.79 870.841 1008.49 870.036C1007.29 866.958 1006.18 863.843 1005.15 860.694C1003.08 854.347 1001.38 847.882 1000.04 841.334C999.389 838.184 998.844 835.011 998.347 831.837C998.146 830.57 997.956 829.303 997.778 828.025C997.719 827.634 997.672 827.231 997.613 826.84C997.459 825.81 997.826 828.522 997.695 827.492C997.601 826.781 997.506 826.083 997.423 825.372C996.144 815.047 995.481 804.639 995.516 794.23C995.528 789.328 995.694 784.438 996.025 779.548C996.191 777.12 996.393 774.693 996.629 772.266C996.748 771.141 996.866 770.004 996.997 768.879C997.068 768.251 997.151 767.612 997.222 766.984C997.269 766.617 997.553 764.462 997.352 765.931C997.151 767.47 997.435 765.374 997.47 765.09C997.553 764.533 997.636 763.989 997.719 763.432C997.909 762.189 998.11 760.957 998.311 759.726C998.69 757.476 999.117 755.238 999.567 753.012C1000.49 748.489 1001.57 743.989 1002.79 739.537C1004 735.168 1005.34 730.834 1006.84 726.548C1007.57 724.428 1008.36 722.332 1009.16 720.236C1009.54 719.254 1009.93 718.283 1010.32 717.312C1010.52 716.826 1010.72 716.341 1010.91 715.855C1011.68 713.984 1010.24 717.406 1011.04 715.547C1014.49 707.555 1018.41 699.787 1022.85 692.303C1025.03 688.645 1027.32 685.057 1029.72 681.54C1030.93 679.764 1032.17 678.011 1033.44 676.271C1034.03 675.454 1034.64 674.649 1035.24 673.843C1035.59 673.393 1035.93 672.944 1036.27 672.494C1036.83 671.748 1035.17 673.903 1035.75 673.169C1035.94 672.92 1036.14 672.671 1036.33 672.423C1046.79 659.09 1058.91 647.071 1072.26 636.615C1072.48 636.438 1074 635.254 1072.8 636.189C1071.61 637.125 1073.12 635.952 1073.35 635.775C1074.19 635.135 1075.04 634.496 1075.89 633.868C1077.6 632.613 1079.32 631.382 1081.06 630.174C1084.54 627.758 1088.08 625.449 1091.69 623.235C1098.92 618.807 1106.38 614.793 1114.04 611.193C1115.9 610.317 1117.78 609.464 1119.66 608.647C1120.17 608.422 1120.69 608.197 1121.2 607.972C1121.78 607.724 1123.48 607.049 1121.06 608.031C1122.04 607.641 1123.01 607.214 1123.99 606.824C1127.91 605.237 1131.89 603.757 1135.9 602.383C1143.84 599.66 1151.95 597.351 1160.14 595.48C1164.26 594.545 1168.42 593.704 1172.59 592.993C1174.68 592.638 1176.76 592.307 1178.86 591.999C1179.35 591.928 1179.84 591.857 1180.34 591.786C1181.62 591.596 1178.18 592.058 1180.11 591.821C1181.23 591.679 1182.34 591.537 1183.44 591.407C1191.77 590.448 1200.15 589.927 1208.55 589.879C1216.93 589.832 1225.31 590.234 1233.64 591.122C1234.62 591.229 1235.62 591.336 1236.6 591.454C1237.1 591.513 1237.58 591.572 1238.08 591.632C1238.33 591.667 1238.58 591.691 1238.81 591.726C1240.29 591.916 1236.74 591.442 1238.22 591.643C1240.31 591.94 1242.39 592.247 1244.48 592.591C1248.63 593.289 1252.78 594.106 1256.89 595.042C1265.07 596.913 1273.14 599.269 1281.04 602.111C1282.97 602.81 1284.9 603.532 1286.82 604.29C1287.8 604.68 1288.79 605.083 1289.77 605.486C1289.99 605.58 1290.23 605.675 1290.46 605.77C1291.32 606.125 1288.77 605.047 1289.64 605.426C1290.16 605.651 1290.67 605.864 1291.19 606.089C1295.1 607.795 1298.96 609.618 1302.76 611.56C1310.38 615.468 1317.75 619.872 1324.78 624.751C1326.58 625.994 1328.35 627.261 1330.1 628.564C1330.93 629.179 1331.81 630.091 1332.73 630.541C1332.69 630.517 1331.12 629.286 1332.08 630.032C1332.28 630.198 1332.48 630.352 1332.69 630.506C1333.16 630.861 1333.61 631.228 1334.07 631.595C1337.48 634.33 1340.81 637.172 1344.03 640.12C1350.74 646.266 1357.03 652.885 1362.86 659.883C1364.35 661.683 1365.79 663.53 1367.24 665.342C1367.2 665.282 1366.04 663.767 1366.78 664.75C1366.95 664.975 1367.11 665.188 1367.29 665.413C1367.62 665.851 1367.97 666.301 1368.3 666.739C1369.04 667.745 1369.79 668.752 1370.52 669.77C1373.3 673.618 1375.95 677.573 1378.46 681.599C1384.22 690.8 1389.36 700.426 1393.67 710.385C1393.83 710.775 1394 711.154 1394.17 711.545C1393.5 709.982 1394.07 711.32 1394.24 711.723C1394.56 712.492 1394.88 713.274 1395.19 714.055C1395.85 715.713 1396.48 717.383 1397.09 719.052C1398.31 722.403 1399.45 725.778 1400.5 729.188C1402.59 735.997 1404.32 742.924 1405.69 749.91C1406.38 753.403 1406.97 756.92 1407.48 760.448C1407.54 760.863 1407.62 761.289 1407.66 761.692C1407.63 761.431 1407.44 760.01 1407.63 761.49C1407.74 762.319 1407.85 763.16 1407.94 763.989C1408.15 765.86 1408.36 767.742 1408.52 769.625C1409.15 776.623 1409.43 783.668 1409.37 790.69C1409.32 797.83 1408.9 804.97 1408.14 812.063C1407.97 813.733 1407.75 815.402 1407.55 817.072C1407.41 818.232 1407.75 815.71 1407.57 816.87C1407.52 817.285 1407.46 817.699 1407.4 818.114C1407.24 819.156 1407.09 820.186 1406.92 821.228C1406.38 824.65 1405.75 828.06 1405.04 831.447C1403.57 838.433 1401.77 845.336 1399.62 852.145C1398.54 855.543 1397.38 858.918 1396.13 862.257C1395.55 863.832 1394.94 865.395 1394.32 866.946C1394.01 867.727 1393.69 868.497 1393.37 869.278C1392.82 870.628 1393.31 869.409 1393.43 869.16C1393.18 869.74 1392.93 870.32 1392.69 870.889C1387.02 883.867 1380.01 896.252 1371.72 907.726C1370.71 909.123 1369.68 910.497 1368.64 911.87C1368.43 912.155 1367.73 913.031 1368.76 911.728C1368.51 912.048 1368.26 912.356 1368.03 912.676C1367.47 913.386 1366.91 914.085 1366.34 914.783C1364.22 917.4 1362.03 919.958 1359.78 922.468C1355.41 927.335 1350.78 931.976 1345.95 936.381C1343.52 938.595 1341.03 940.739 1338.5 942.823C1337.31 943.794 1336.1 944.753 1334.9 945.712C1333.8 946.576 1334.92 945.712 1335.11 945.558C1334.73 945.854 1334.35 946.138 1333.96 946.434C1333.27 946.955 1332.59 947.476 1331.89 947.985C1326.66 951.834 1321.25 955.433 1315.68 958.761C1310.14 962.076 1304.44 965.131 1298.62 967.914C1295.8 969.264 1292.94 970.542 1290.07 971.774C1288.96 972.247 1291.83 971.052 1290.09 971.762C1289.73 971.904 1289.39 972.046 1289.03 972.2C1288.34 972.484 1287.63 972.768 1286.93 973.053C1285.43 973.645 1283.93 974.225 1282.41 974.781C1270.43 979.222 1258.05 982.62 1245.48 984.988C1242.32 985.58 1239.13 986.113 1235.95 986.575C1235.2 986.682 1234.44 986.812 1233.7 986.895C1235.84 986.67 1233.5 986.918 1232.94 986.989C1231.25 987.203 1229.55 987.392 1227.85 987.57C1221.43 988.221 1214.98 988.623 1208.53 988.766C1202.07 988.908 1195.62 988.801 1189.19 988.434C1186.06 988.256 1182.94 988.02 1179.83 987.724C1178.23 987.57 1176.62 987.404 1175.02 987.214C1174.26 987.132 1173.52 987.037 1172.76 986.942C1172.38 986.895 1172.01 986.847 1171.63 986.8C1170.13 986.611 1172.73 986.954 1171.73 986.812C1159.46 985.071 1147.35 982.514 1135.47 978.985C1131.57 977.824 1126.81 980.382 1125.9 984.42C1124.95 988.6 1127.16 992.756 1131.34 993.987C1156.83 1001.55 1183.67 1005.05 1210.23 1004.28C1236.75 1003.51 1263.32 998.605 1288.15 989.192C1313.64 979.518 1337.24 965.439 1357.38 947.014C1378.45 927.737 1395.35 903.854 1406.63 877.626C1418.41 850.179 1424.7 820.612 1424.95 790.726C1425.2 760.874 1419.36 731.177 1407.65 703.718C1399.25 684.038 1387.81 665.685 1374.16 649.214C1362.25 634.827 1348.34 622.181 1332.99 611.524C1318.3 601.318 1302.21 593.23 1285.39 587.156C1268.7 581.129 1251.3 577.411 1233.67 575.54C1216.69 573.74 1199.51 573.918 1182.55 575.942C1164.96 578.05 1147.65 581.851 1130.91 587.677C1114.17 593.491 1097.98 601.057 1082.92 610.4C1067.91 619.695 1053.87 630.73 1041.43 643.258C1028.85 655.916 1017.77 670.208 1008.77 685.613C999.401 701.634 992.176 719.029 987.403 736.956C982.262 756.233 979.869 776.303 979.976 796.243C980.106 820.139 983.245 844.685 991.003 867.337C999.745 892.854 1014.08 916.121 1032.76 935.576C1050.62 954.178 1072.26 969.216 1095.53 980.24C1107.09 985.711 1119.08 990.329 1131.34 993.999C1135.23 995.172 1140 992.602 1140.91 988.564C1141.87 984.373 1139.65 980.24 1135.47 978.997H1135.45Z" fill="#262626"/>
<path d="M802.5 214.154C749.294 259.185 706.95 315.501 677.896 378.826C648.853 442.128 633.419 511.267 629.523 580.679C627.272 620.725 629.215 660.499 635.172 700.142C636.641 709.923 653.756 707.732 652.608 697.786C644.767 629.985 645.169 560.975 658.85 493.944C672.269 428.155 697.617 364.57 735.164 308.787C756.638 276.864 781.618 247.64 810.057 221.708C815.197 217.019 807.688 209.749 802.488 214.142L802.5 214.154Z" fill="#262626"/>
<path d="M756.626 224.029C729.123 243.211 702.674 264.099 680.122 289.024C657.523 314.009 637.636 341.551 621.16 370.94C585.342 434.869 566.225 507.04 565.337 580.3C564.828 623.164 569.589 667.876 585.615 707.898C588.623 715.405 599.283 712.658 597.815 704.535C591.265 668.278 584.952 632.234 584.016 595.302C583.08 558.536 586.882 521.936 595.067 486.093C609.884 421.205 640.159 360.117 682.657 308.893C705.943 280.818 731.989 254.01 761.648 232.649C766.788 228.943 761.92 220.335 756.614 224.041L756.626 224.029Z" fill="#262626"/>
<path d="M758.391 261.482C725.961 310.8 704.522 368.181 694.241 426.225C683.783 485.324 683.83 547.441 701.526 605.19C711.12 636.485 726.103 668.16 748.525 692.303C753.819 697.999 763.804 690.527 759.41 683.908C743.728 660.286 729.562 636.473 720.062 609.63C710.492 582.573 704.925 554.285 702.923 525.678C698.861 467.479 708.253 408.499 726.174 353.155C736.029 322.723 748.868 292.955 763.84 264.679C765.747 261.068 760.618 258.096 758.379 261.494L758.391 261.482Z" fill="#262626"/>
<path d="M874.039 245.07C860.999 360.236 869.254 478.266 898.688 590.448C907.026 622.217 916.928 653.607 927.731 684.619C929.318 682.547 930.893 680.463 932.48 678.39C925.172 678.923 918.243 679.728 911.065 681.161C906.612 682.049 907.867 688.633 912.096 688.799C918.989 689.071 925.61 688.799 932.48 688.23C935.406 687.982 938.402 685.246 937.23 682.002C917.686 627.9 903.698 571.609 893.701 514.997C883.633 458.006 877.581 400.305 876.562 342.427C875.982 309.947 875.911 277.515 877.699 245.07C877.83 242.69 874.312 242.785 874.051 245.07H874.039Z" fill="#262626"/>
<path d="M769.726 691.25C771.811 685.791 771.989 679.918 772.664 674.139C773.386 667.911 774.109 661.671 774.831 655.442C770.259 656.686 765.676 657.917 761.104 659.161C767.275 668.361 771.396 678.888 777.887 687.816C785.93 698.875 796.85 702.439 810.235 702.025C826.805 701.516 843.34 700.391 859.875 699.278C868.379 698.698 876.872 698.105 885.352 697.324C892.933 696.625 902.326 697.265 908.947 693.12C912.109 691.143 912.903 685.436 908.947 683.671C902.207 680.664 894.875 681.895 887.662 682.144C879.939 682.416 872.229 682.76 864.506 683.15C849.061 683.908 833.604 684.465 818.17 685.365C811.798 685.732 803.886 687.306 797.774 684.832C794.114 683.352 791.449 680.143 789.329 676.934C783.644 668.325 780.386 657.396 772.676 650.244C768.388 646.278 759.481 648.717 760.097 655.454C760.665 661.683 761.234 667.923 761.802 674.151C762.335 679.93 762.383 685.755 764.337 691.261C765.297 693.961 768.743 693.855 769.726 691.261V691.25Z" fill="#262626"/>
<path d="M886.24 186.742C878.198 218.629 875.521 251.595 873.46 284.347C871.387 317.348 871.529 350.585 872.868 383.61C875.509 448.984 884.049 514.18 898.333 578.026C906.518 614.579 916.278 650.99 928.797 686.312C932.469 696.673 948.945 692.374 945.451 681.718C925.031 619.351 908.567 556.203 898.772 491.256C889.118 427.232 885.411 362.272 887.484 297.573C888.656 260.878 892.34 224.372 893.418 187.713C893.536 183.604 887.259 182.751 886.252 186.742H886.24Z" fill="#262626"/>
</g>
<defs>
<clipPath id="clip0_157_137">
<rect width="1500" height="1931" fill="white" transform="translate(250 35)"/>
</clipPath>
</defs>
</svg>
