<svg width="2000" height="2000" viewBox="0 0 2000 2000" fill="none" xmlns="http://www.w3.org/2000/svg">
<path d="M897.165 1404.47C895.106 1397.33 890.889 1381.87 901.599 1378.98C906.192 1377.75 910.211 1381.89 911.894 1385.73C913.992 1390.5 913.814 1395.96 913.794 1401.07C913.794 1403.39 915.734 1405.21 917.991 1405.27C926.207 1405.46 934.442 1405.66 942.658 1405.86C944.915 1405.92 946.875 1403.9 946.855 1401.66C946.816 1395.41 946.558 1388.54 949.389 1382.78C951.507 1378.46 955.962 1374.26 961.109 1375.14C974.393 1377.37 971.087 1396.1 969.186 1404.95C968.691 1407.23 969.839 1409.4 972.116 1410.12C988.132 1415.07 993.061 1436.17 979.58 1446.98C973.185 1452.11 964.494 1453.59 956.655 1455C946.914 1456.74 936.957 1458.34 927.038 1458.34C913.299 1458.34 891.404 1454.6 884.494 1440.76C879.011 1429.81 886.474 1417.56 895.225 1410.97C899.481 1407.76 895.304 1400.48 890.988 1403.72C881.525 1410.85 873.547 1421.8 874.279 1434.23C875.13 1448.62 886.751 1456.92 899.164 1461.71C916.744 1468.5 934.957 1466.93 953.17 1464.06C968.909 1461.57 986.964 1458.08 993.675 1441.57C1000.35 1425.16 991.022 1407.17 974.353 1402.04C975.323 1403.76 976.313 1405.48 977.283 1407.21C979.124 1398.65 981.025 1389.37 977.897 1380.88C975.383 1374.05 969.681 1367.97 962.257 1366.84C954.972 1365.73 948.261 1369.77 944.064 1375.51C938.58 1383.03 938.402 1392.77 938.461 1401.7C939.867 1400.3 941.253 1398.91 942.658 1397.51C934.442 1397.31 926.207 1397.11 917.991 1396.91C919.397 1398.32 920.783 1399.7 922.188 1401.11C922.228 1393.19 921.99 1384.74 917.12 1378.1C913.359 1372.98 907.142 1369.45 900.649 1370.66C894.512 1371.81 889.899 1376.62 887.682 1382.28C884.574 1390.24 886.791 1398.87 889.068 1406.73C890.572 1411.9 898.669 1409.7 897.165 1404.49V1404.47Z" fill="#1C1C1C"/>
<path d="M923.257 1425.94C928.661 1425.94 928.661 1417.54 923.257 1417.54C917.852 1417.54 917.852 1425.94 923.257 1425.94Z" fill="#1C1C1C"/>
<path d="M948.163 1425.28C953.567 1425.28 953.567 1416.89 948.163 1416.89C942.758 1416.89 942.758 1425.28 948.163 1425.28Z" fill="#1C1C1C"/>
<path d="M890.514 965.416C944.659 962.962 998.625 957.577 1052.69 953.835C1055.36 953.657 1058.77 954.033 1061.32 953.301C1061.68 953.202 1062.85 953.498 1063.1 953.261C1062.47 953.835 1059.22 949.876 1058.47 950.529C1058.39 950.608 1058.75 951.558 1058.73 951.717C1058.53 952.766 1059.05 954.429 1059.14 955.518C1060.39 970.524 1061.03 986.46 1059.4 1001.47C1057.46 1019.54 1050.24 1036.9 1036.18 1048.84C1020.03 1062.56 997.438 1068.28 976.572 1067.79C952.657 1067.21 926.307 1058.03 912.132 1037.73C896.275 1015.07 895.424 986.52 894.869 959.873C894.711 952.568 883.328 952.528 883.486 959.873C884.021 985.154 885.03 1011.31 896.809 1034.27C907.46 1055.08 926.644 1068.64 948.876 1075.01C989.44 1086.61 1042.52 1074.22 1062.09 1033.64C1070.47 1016.29 1071.64 997.507 1071.4 978.581C1071.3 970.465 1071.22 962.269 1070.43 954.172C1069.99 949.816 1069.84 943.659 1064.75 942.115C1058.79 940.314 1049.92 942.65 1043.9 943.105C1029.21 944.194 1014.52 945.342 999.813 946.471C963.407 949.282 926.98 952.39 890.514 954.033C883.229 954.37 883.189 965.753 890.514 965.416Z" fill="#1C1C1C"/>
<path d="M1098.94 900.087C1112.54 891.792 1126.45 884.032 1140.69 876.885C1154.66 869.877 1168.9 863.483 1182.34 858.118C1189.23 855.366 1194.81 848.496 1192.28 840.617C1190.12 833.945 1182.18 827.729 1174.78 830.679C1143.5 843.151 1113.31 857.979 1084.58 875.519C1078.23 879.399 1075.26 888.447 1079.47 894.98C1083.59 901.354 1092.14 904.225 1098.94 900.087Z" fill="#1C1C1C"/>
<path d="M1085.29 904.522C1116.93 912.302 1148.96 918.737 1180.93 924.933C1188.48 926.398 1196.28 922.815 1198.43 914.995C1200.35 908.026 1196.08 898.959 1188.5 897.494C1156.5 891.318 1124.49 884.864 1092.86 877.084C1085.39 875.242 1077.44 879.459 1075.36 887.022C1073.36 894.287 1077.79 902.681 1085.29 904.522Z" fill="#1C1C1C"/>
<path d="M857.788 897.672C826.885 884.309 795.091 873.361 762.366 865.383C755.141 863.621 746.608 867.679 744.866 875.321C743.203 882.646 747.063 890.941 754.804 892.821C784.955 900.166 815.601 910.223 843.435 922.24C850.245 925.19 859.015 924.477 862.895 917.132C866.142 910.995 865.093 900.82 857.788 897.672Z" fill="#1C1C1C"/>
<path d="M849.889 898.82C819.639 910.936 788.835 921.804 758.031 932.396C751.003 934.811 745.638 942.274 748.093 949.896C750.349 956.845 758.051 962.428 765.593 959.834C796.397 949.243 827.201 938.394 857.451 926.258C864.341 923.507 869.943 916.637 867.389 908.758C865.232 902.106 857.293 895.85 849.889 898.82Z" fill="#1C1C1C"/>
<path d="M1388.7 1031.32C1384.84 1093.07 1348.34 1146.18 1302.92 1185.9C1257.29 1225.81 1201.07 1255.25 1142.51 1270.79C1071.99 1289.51 998.367 1297.27 925.494 1293.91C852.126 1290.52 777.947 1275.44 711.706 1242.95C644.396 1209.93 592.192 1153.41 574.493 1079.51C571.939 1068.84 555.468 1073.35 558.042 1084.04C574.236 1151.67 618.403 1207.69 677.378 1243.66C741.758 1282.92 818.669 1301.67 893.086 1308.72C970.097 1316.02 1048.61 1310.14 1123.98 1292.94C1187.53 1278.43 1247.31 1251.56 1298.83 1211.32C1355.43 1167.13 1401.18 1105.01 1405.77 1031.32C1406.46 1020.35 1389.38 1020.39 1388.7 1031.32Z" fill="#1C1C1C"/>
<path d="M470.121 739.117C446.167 653.812 473.269 565.972 524.048 495.99C534.838 481.122 546.815 467.106 559.821 454.139C567.621 446.379 555.545 434.302 547.745 442.063C490.255 499.355 448.542 578.306 444.187 660.167C442.682 688.298 446.048 716.548 453.65 743.651C456.62 754.202 473.091 749.728 470.101 739.117H470.121Z" fill="#1C1C1C"/>
<path d="M1463.79 641.558C1463.83 555.698 1414.06 480.865 1353.92 423.533C1289.56 362.162 1212.33 315.659 1126.06 292.873C1073.81 279.074 1019.49 273.669 965.542 275.649C954.594 276.045 954.535 293.13 965.542 292.714C1057.72 289.309 1150.45 308.394 1231.44 353.313C1266.44 372.734 1298.82 396.747 1328.66 423.394C1358.12 449.724 1385.2 479.123 1406.42 512.56C1431.05 551.382 1446.77 595.252 1446.75 641.558C1446.75 652.545 1463.81 652.565 1463.81 641.558H1463.79Z" fill="#1C1C1C"/>
<path d="M748.288 321.658C747.298 322.054 746.328 322.45 745.358 322.885C745.041 323.024 744.744 323.182 744.447 323.36C743.458 323.895 742.646 324.627 742.052 325.558C741.3 326.389 740.785 327.359 740.528 328.468C740.171 329.596 740.112 330.744 740.369 331.873C740.428 333.001 740.765 334.07 741.379 335.04C741.814 335.614 742.27 336.189 742.705 336.763C743.774 337.812 745.022 338.545 746.467 338.96C747.219 339.059 747.971 339.158 748.743 339.257C750.288 339.257 751.713 338.861 753.059 338.089C753.435 337.852 753.831 337.674 754.247 337.495C753.574 337.773 752.881 338.069 752.208 338.347C752.406 338.267 752.623 338.188 752.821 338.089C753.93 337.832 754.9 337.317 755.732 336.565C756.662 335.971 757.395 335.159 757.929 334.169C758.543 333.199 758.899 332.13 758.939 331.002C759.196 329.873 759.137 328.725 758.78 327.597C758.503 326.924 758.206 326.231 757.929 325.558C757.177 324.271 756.147 323.261 754.861 322.489C754.188 322.212 753.495 321.915 752.821 321.638C751.317 321.222 749.792 321.222 748.288 321.638V321.658Z" fill="#1C1C1C"/>
<path d="M525.793 916.241C603.239 908.995 673.439 872.529 734.354 825.729C797.408 777.286 853.057 719.438 899.917 655.257C928.642 615.9 954.378 574.406 977.6 531.585C982.826 521.924 968.097 513.292 962.871 522.973C923.613 595.41 877.229 665.096 820.293 724.922C769.058 778.77 711.191 829.094 644.654 863.066C607.574 882.012 567.406 895.276 525.812 899.176C514.964 900.185 514.865 917.27 525.812 916.241H525.793Z" fill="#1C1C1C"/>
<path d="M1037.27 533.307C1102.64 654.683 1219.95 736.286 1333.02 809.337C1364.41 829.629 1396.07 849.545 1427.35 870.035C1436.55 876.073 1445.13 861.304 1435.96 855.306C1324.84 782.453 1205.66 715.737 1116.2 615.485C1091.43 587.729 1069.66 557.46 1052 524.696C1046.79 515.015 1032.04 523.627 1037.27 533.307Z" fill="#1C1C1C"/>
<path d="M528.899 921.745C534.303 955.103 541.39 988.144 550.121 1020.79C552.952 1031.38 569.423 1026.89 566.572 1016.26C557.842 983.61 550.755 950.569 545.35 917.211C544.618 912.658 538.955 910.124 534.857 911.252C530.027 912.579 528.146 917.191 528.899 921.745Z" fill="#1C1C1C"/>
<path d="M1418.88 888.01C1439.05 870.965 1467.46 869.322 1488.96 884.883C1508.95 899.354 1518.73 923.803 1520.47 947.778C1523.76 993.212 1498.97 1035.38 1461.54 1060.01C1440.2 1074.04 1415.55 1082.46 1390.01 1083.86C1379.08 1084.46 1379.02 1101.54 1390.01 1100.93C1442.97 1098 1494.01 1068.48 1520.34 1021.92C1546.78 975.157 1545.54 905.808 1499.33 871.44C1470.86 850.277 1433.37 853.465 1406.78 875.934C1398.39 883.041 1410.5 895.058 1418.86 888.01H1418.88Z" fill="#1C1C1C"/>
<path d="M530.049 918.379C502.888 920.003 475.271 927.229 455.078 946.451C438.686 962.032 430.272 983.472 428.075 1005.66C423.343 1053.39 446.149 1104.37 484.338 1132.98C516.033 1156.74 556.795 1165.78 595.676 1159.55C606.485 1157.82 601.893 1141.37 591.143 1143.1C535.315 1152.02 479.111 1122.17 456.285 1070.58C441.933 1038.13 437.241 993.667 461.492 964.546C478.32 944.333 504.709 937.008 530.049 935.484C540.957 934.831 541.036 917.765 530.049 918.419V918.379Z" fill="#1C1C1C"/>
<path d="M1052.04 286.577C1063.64 248.923 1090.36 217.486 1124.04 197.451C1161.97 174.902 1207.7 168.349 1250.94 175.694C1330.72 189.216 1413.43 250.923 1420.12 336.981C1423.49 380.336 1407.65 424.661 1372.87 451.843C1364.22 458.593 1376.37 470.61 1384.94 463.919C1418.62 437.609 1436.38 395.342 1437.58 353.194C1438.85 308.849 1420.48 266.76 1391.46 233.838C1328.4 162.311 1216.21 133.15 1128.97 175.417C1085.14 196.659 1049.96 235.283 1035.57 282.044C1032.32 292.556 1048.79 297.07 1052.02 286.577H1052.04Z" fill="#1C1C1C"/>
<path d="M1053.16 290.516C1053.16 290.516 1053.16 290.596 1053.14 290.635C1051.34 297.762 1061.93 300.653 1064.11 293.664C1064.61 292.041 1064.94 290.378 1065.44 288.754C1061.78 287.745 1058.13 286.735 1054.47 285.726C1048.91 307.76 1043.01 329.715 1036.53 351.511C1034.46 358.539 1045.42 361.548 1047.5 354.54C1053.98 332.744 1059.86 310.808 1065.44 288.754C1067.24 281.627 1056.65 278.737 1054.47 285.726C1053.98 287.349 1053.64 289.012 1053.14 290.635C1056.81 291.645 1060.45 292.655 1064.11 293.664C1064.11 293.625 1064.11 293.585 1064.13 293.545C1065.93 286.438 1054.97 283.409 1053.16 290.516Z" fill="#1C1C1C"/>
<path d="M1049.19 289.566C1018.34 297.683 988.767 309.72 959.289 321.737C956.419 322.905 954.459 325.518 955.31 328.745C956.023 331.457 959.467 333.872 962.318 332.724C991.796 320.707 1021.37 308.671 1052.22 300.554C1059.28 298.693 1056.29 287.706 1049.19 289.586V289.566Z" fill="#1C1C1C"/>
<path d="M902.449 348.562C902.449 348.562 902.369 348.562 902.33 348.562C901.538 348.542 900.825 348.701 900.132 349.057C899.42 349.295 898.826 349.671 898.311 350.225C897.757 350.74 897.361 351.354 897.143 352.046C896.787 352.72 896.628 353.452 896.648 354.244C896.708 354.739 896.787 355.254 896.846 355.749C897.123 356.719 897.598 357.55 898.311 358.263C898.687 358.56 899.083 358.857 899.459 359.154C900.35 359.668 901.3 359.926 902.33 359.926C902.369 359.926 902.409 359.926 902.449 359.926C903.241 359.945 903.953 359.787 904.646 359.431C905.359 359.193 905.953 358.817 906.467 358.263C907.022 357.748 907.418 357.134 907.636 356.441C907.992 355.768 908.15 355.036 908.13 354.244C908.071 353.749 907.992 353.234 907.932 352.739C907.655 351.769 907.18 350.938 906.467 350.225C906.091 349.928 905.695 349.631 905.319 349.334C904.428 348.82 903.478 348.562 902.449 348.562Z" fill="#1C1C1C"/>
<path d="M1488.86 867.58C1488.48 865.343 1488.1 863.126 1487.71 860.889C1487.53 860.156 1487.19 859.503 1486.7 858.949C1486.3 858.335 1485.77 857.84 1485.09 857.484C1484.44 857.068 1483.73 856.85 1482.98 856.811C1482.22 856.632 1481.47 856.672 1480.7 856.91C1479.31 857.365 1477.99 858.216 1477.29 859.523C1477.1 859.978 1476.92 860.433 1476.72 860.889C1476.44 861.898 1476.44 862.908 1476.72 863.918C1477.1 866.155 1477.47 868.372 1477.87 870.609C1478.05 871.342 1478.38 871.995 1478.88 872.549C1479.27 873.163 1479.81 873.658 1480.48 874.014C1481.13 874.43 1481.85 874.648 1482.6 874.687C1483.35 874.866 1484.1 874.826 1484.88 874.588C1486.26 874.133 1487.59 873.282 1488.28 871.975C1488.48 871.52 1488.66 871.064 1488.86 870.609C1489.13 869.599 1489.13 868.59 1488.86 867.58Z" fill="#1C1C1C"/>
<path d="M1053.07 348.364C1052.93 348.304 1052.81 348.265 1052.67 348.205C1051.92 347.968 1051.17 347.928 1050.39 348.106C1049.64 348.146 1048.93 348.364 1048.28 348.779C1047.62 349.136 1047.09 349.631 1046.67 350.244C1046.18 350.799 1045.82 351.432 1045.66 352.184C1045.6 352.679 1045.52 353.194 1045.46 353.689C1045.46 354.718 1045.72 355.669 1046.24 356.56C1046.53 356.936 1046.83 357.332 1047.13 357.708C1047.84 358.421 1048.67 358.896 1049.64 359.173L1050.04 359.331C1050.79 359.569 1051.54 359.608 1052.31 359.43C1053.07 359.391 1053.78 359.173 1054.43 358.757C1055.09 358.401 1055.62 357.906 1056.04 357.292C1056.53 356.738 1056.89 356.104 1057.05 355.352C1057.11 354.857 1057.18 354.342 1057.24 353.847C1057.24 352.818 1056.99 351.868 1056.47 350.977C1056.17 350.601 1055.88 350.205 1055.58 349.829C1054.87 349.116 1054.04 348.641 1053.07 348.364Z" fill="#1C1C1C"/>
<path d="M1136.49 303.107C1158.88 272.66 1182.02 242.153 1214.85 222.257C1245.75 203.529 1281.62 194.442 1317.69 195.847C1325.02 196.125 1325 184.761 1317.69 184.464C1279.72 182.979 1241.61 192.719 1209.1 212.437C1174.56 233.383 1150.25 265.315 1126.67 297.367C1122.33 303.266 1132.19 308.948 1136.49 303.107Z" fill="#1C1C1C"/>
<path d="M1317.28 190.304C1354.16 248.269 1352.58 326.091 1313.61 382.612C1309.46 388.65 1319.3 394.351 1323.43 388.353C1364.57 328.685 1365.98 245.676 1327.1 184.543C1323.18 178.386 1313.32 184.087 1317.28 190.284V190.304Z" fill="#1C1C1C"/>
<path d="M501.52 931.583C535.056 838.637 583.657 749.787 652.135 677.865C708.26 618.929 777.628 576.366 856.025 554.133C931.392 532.772 1011.77 529.803 1088.84 543.324C1166.07 556.885 1240.44 586.502 1304.8 631.461C1373.8 679.647 1435.01 747.174 1458.21 829.55C1461.42 840.933 1463.93 852.455 1466.01 864.096C1467.93 874.885 1484.38 870.312 1482.46 859.562C1474.07 812.504 1456.35 768.238 1428.57 729.218C1403.89 694.514 1373.82 663.571 1340.56 637.043C1276.77 586.165 1201.23 550.808 1121.78 532.614C1042.69 514.5 959.583 513.015 880.236 530.456C800.613 547.957 725.602 585.294 665.538 640.686C590.784 709.639 536.58 798.27 498.491 891.95C493.779 903.551 489.305 915.271 485.068 927.05C481.326 937.404 497.817 941.858 501.52 931.583Z" fill="#1C1C1C"/>
<path d="M484.811 932.119C451.632 828.917 462.382 717.578 511.834 621.384C559.427 528.794 638.318 453.13 732.136 408.21C782.816 383.959 837.911 370.378 893.481 363.212C954.535 355.352 1016.98 355.51 1077.83 365.033C1190.63 382.672 1302.33 431.353 1376.05 520.974C1445.76 605.685 1478.19 716.41 1481.95 824.799C1482.44 839.152 1482.42 853.504 1482.01 867.857C1481.67 878.845 1498.76 878.825 1499.07 867.857C1502.48 753.708 1476.96 635.777 1411.89 540.494C1381.97 496.703 1344.16 458.514 1299.72 429.433C1247.23 395.065 1187.37 371.289 1126.39 357.114C1064.07 342.623 999.494 337.871 935.689 342.068C876.278 345.968 815.897 356.401 760.149 377.743C659.619 416.248 572.532 488.487 515.734 579.91C457.551 673.53 434.191 786.452 457.175 894.841C460.164 908.976 463.946 922.913 468.38 936.652C471.726 947.065 488.217 942.611 484.831 932.119H484.811Z" fill="#1C1C1C"/>
<path d="M964.832 352.897C981.442 269.908 985.837 152.432 896.077 108.602C860.383 91.1804 818.275 93.0611 785.65 116.402C753.579 139.366 736.256 174.882 732.574 213.566C729.782 242.905 732.534 272.382 736.256 301.504C740.017 330.823 744.056 359.965 746.61 389.423C747.54 400.192 764.051 400.548 763.675 389.423C761.913 337.218 757.043 281.37 732.93 234.154C714.281 197.668 680.448 165.677 639.845 156.016C598.786 146.236 557.251 162.846 530.129 194.343C498.83 230.71 490.734 279.351 497.544 325.815C506.017 383.662 536.801 434.124 566.358 483.339C572 492.743 586.769 484.171 581.087 474.728C557.034 434.678 532.01 394.372 519.736 348.858C508.432 306.948 508.016 259.495 531.317 221.445C550.798 189.651 585.522 166.904 623.73 170.487C661.384 174.031 693.831 201.727 712.757 233.046C740.473 278.896 744.828 337.099 746.59 389.423H763.655C759.537 341.83 749.718 294.456 748.55 246.666C747.639 208.656 753.4 171.18 780.799 142.89C805.407 117.491 840.804 107.414 874.736 118.283C912.43 130.359 938.304 163.103 949.232 200.143C963.328 247.913 957.943 300.277 948.322 348.344C946.184 359.074 962.615 363.666 964.773 352.877L964.832 352.897Z" fill="#1C1C1C"/>
<path d="M1393.32 848.575C1397.3 884.922 1389.44 921.725 1388.67 958.072C1388.43 969.06 1405.49 969.06 1405.73 958.072C1406.5 921.725 1414.38 884.922 1410.38 848.575C1409.89 844.002 1406.82 840.042 1401.85 840.042C1397.63 840.042 1392.8 843.962 1393.32 848.575Z" fill="#1C1C1C"/>
<path d="M518.112 876.212C613.87 803.18 704.184 723.101 787.866 636.489C811.623 611.901 834.844 586.779 857.552 561.182C862.402 555.718 854.384 547.64 849.514 553.144C770.227 642.527 684.308 725.972 592.529 802.487C566.278 824.363 539.552 845.665 512.391 866.392C506.649 870.767 512.311 880.666 518.132 876.212H518.112Z" fill="#1C1C1C"/>
<path d="M1150.27 560.014C1223.12 634.213 1300.45 703.958 1381.83 768.674C1404.74 786.888 1427.96 804.705 1451.46 822.126C1457.34 826.482 1463.02 816.623 1457.2 812.307C1374.45 750.936 1295.46 684.517 1220.81 613.525C1199.62 593.372 1178.8 572.842 1158.31 551.976C1153.16 546.75 1145.12 554.787 1150.27 560.014Z" fill="#1C1C1C"/>
<path d="M784.243 1388.28C785.51 1445.04 794.043 1500.79 805.169 1556.38C807.327 1567.15 823.778 1562.59 821.62 1551.84C810.811 1497.72 802.536 1443.55 801.308 1388.28C801.071 1377.31 783.986 1377.27 784.243 1388.28Z" fill="#1C1C1C"/>
<path d="M500.254 1339.96C493.701 1343.4 487.187 1346.85 480.635 1350.31C477.645 1351.89 464.362 1360.35 463.075 1356.7C461.59 1352.47 468.024 1345.74 470.043 1342.69C473.627 1337.24 475.943 1331.62 476.002 1325.03C476.062 1318.91 470.538 1316.06 465.193 1316.79C461.234 1317.35 445.534 1319.31 447.376 1311.27C448.247 1307.49 454.76 1303.63 457.235 1300.7C464.401 1292.23 464.678 1279.34 454.265 1273.18C448.326 1269.66 428.648 1270.81 430.232 1261.56C431.36 1255.01 438.942 1251.94 444.386 1249.86C453.077 1246.53 462.065 1243.9 470.894 1240.91C483.604 1236.62 496.769 1230.68 497.7 1215.35C498.135 1207.91 495.483 1200.88 493.384 1193.87C492.612 1191.34 490.157 1181.22 494.097 1179.68C496.908 1178.57 504.193 1188.03 506.391 1189.8C512.429 1194.65 519.457 1197.62 526.564 1200.51C540.62 1206.21 554.953 1211.24 569.385 1215.93C605.257 1227.57 641.921 1236.85 678.902 1244.2C689.632 1246.34 694.225 1229.88 683.435 1227.75C646.019 1220.3 608.939 1210.9 572.671 1199.06C555.883 1193.58 537.393 1188.51 521.951 1179.8C510.132 1173.13 500.293 1154.95 484.554 1165.52C471.865 1174.04 474.735 1191.02 478.477 1203.26C479.526 1206.68 481.565 1211.69 480.595 1215.35C479.605 1219.1 476.418 1220.68 473.112 1222.1C463.906 1226.08 453.909 1228.56 444.426 1231.81C429.974 1236.75 413.424 1244.75 413.008 1262.41C412.632 1278.35 425.579 1283.71 438.903 1286.15C440.189 1286.39 445.495 1287.59 445.495 1287.59C445.851 1288.5 443.495 1290.54 442.426 1291.59C437.517 1296.5 432.152 1301.17 430.548 1308.24C428.608 1316.81 433.379 1325.68 440.605 1330.24C449.514 1335.84 459.848 1334.63 469.746 1333.25C466.143 1330.49 462.54 1327.76 458.937 1325.01C458.858 1333.4 449.91 1340.08 447.395 1348.01C444.921 1355.81 445.554 1365.24 452.167 1370.82C460.085 1377.47 469.865 1374.88 478.299 1370.76C488.633 1365.73 498.67 1360.01 508.865 1354.67C518.586 1349.56 509.974 1334.83 500.254 1339.94V1339.96Z" fill="#1C1C1C"/>
<path d="M505.481 1355.56C598.943 1385.09 689.395 1421.8 780.778 1457.04C791.033 1460.99 795.468 1444.5 785.312 1440.58C693.929 1405.35 603.476 1368.64 510.014 1339.1C499.522 1335.78 495.028 1352.25 505.481 1355.56Z" fill="#1C1C1C"/>
<path d="M1320.48 1192.11C1348.28 1181.6 1376.45 1172.14 1404.54 1162.46C1431.74 1153.07 1460.35 1144.72 1486.11 1131.77C1492.54 1128.54 1498.34 1124.55 1504.18 1120.37C1509.37 1116.67 1515.35 1111.94 1521.98 1111.68C1525.54 1111.54 1530.87 1112.75 1531.66 1116.84C1532.55 1121.4 1526.91 1127.5 1524.79 1131C1518.24 1141.91 1516.57 1154.06 1524.04 1165.07C1530.77 1174.99 1540.96 1180.57 1551.2 1186.13C1556.48 1189 1572.2 1196.39 1570.74 1204.27C1569.33 1211.85 1549.3 1210.19 1543.64 1210.9C1536.67 1211.77 1531.92 1219.77 1537.6 1225.47C1542.74 1230.64 1548.29 1235.39 1553.38 1240.6C1555.99 1243.29 1558.15 1246.02 1560.3 1249.03C1561.93 1251.31 1561.75 1251.52 1560.54 1253.72C1558.62 1257.19 1561.81 1253.21 1560.74 1253.78C1560.9 1253.7 1556.96 1254.32 1559.06 1254.08C1556.44 1254.35 1553.81 1254.34 1551.2 1254.04C1545.3 1253.38 1539.2 1251.66 1533.9 1248.99C1525.36 1244.67 1516.67 1255.17 1523.56 1262.39C1529.54 1268.67 1536.86 1274.01 1542.17 1280.9C1542.9 1281.85 1544.19 1283.2 1544.45 1284.41C1544.78 1285.95 1545.06 1282.96 1544.41 1284.58C1543.04 1287.99 1540.49 1289.1 1537.28 1288.45C1529.22 1286.78 1522.25 1280.47 1514.59 1277.54C1504.04 1273.5 1492.36 1274.57 1481.67 1277.48C1459.08 1283.63 1436.97 1294.38 1415.75 1304.14C1393.95 1314.18 1372.59 1325.17 1351.72 1337.03C1327.71 1350.69 1304.41 1365.55 1281.82 1381.49C1272.91 1387.77 1281.42 1402.58 1290.43 1396.22C1334.1 1365.42 1380.59 1338.67 1429.31 1316.62C1441.42 1311.13 1453.68 1305.95 1466.05 1301.08C1477.53 1296.56 1490.82 1290.25 1503.49 1292.13C1520.39 1294.62 1538.29 1316.87 1554.58 1299.16C1561.53 1291.59 1563.95 1283.36 1558.25 1274.15C1552.46 1264.83 1543.08 1258.18 1535.62 1250.32C1532.17 1254.79 1528.73 1259.24 1525.28 1263.72C1538.19 1270.25 1567.43 1278.88 1575.9 1261.44C1576.56 1260.12 1578.26 1253.66 1576.82 1258.02C1577.57 1255.74 1578.38 1253.8 1578.38 1251.33C1578.38 1246.59 1576.24 1242.08 1573.65 1238.26C1567.15 1228.68 1557.75 1221.49 1549.63 1213.36C1547.61 1218.21 1545.62 1223.08 1543.6 1227.93C1554.66 1226.54 1566.98 1227.67 1577.03 1221.95C1587.59 1215.93 1590.51 1202.64 1584.73 1192.25C1579.17 1182.25 1568.2 1175.86 1558.42 1170.63C1548.57 1165.35 1530.97 1156.76 1537.5 1143.02C1542.94 1131.57 1553.26 1121.28 1546.35 1107.76C1540.51 1096.35 1526 1092.59 1514.24 1095.64C1506.52 1097.64 1499.9 1102.43 1493.55 1107.01C1486.58 1112.01 1479.39 1116.29 1471.53 1119.79C1456.27 1126.57 1440.22 1131.87 1424.48 1137.43C1388.29 1150.2 1351.78 1162.06 1315.89 1175.62C1305.72 1179.46 1310.13 1195.97 1320.42 1192.07L1320.48 1192.11Z" fill="#1C1C1C"/>
<path d="M1241.87 1315.17C1262.26 1369.22 1278.26 1424.75 1294.53 1480.12C1297.62 1490.63 1314.09 1486.16 1310.98 1475.59C1294.71 1420.19 1278.71 1364.68 1258.32 1310.64C1254.48 1300.46 1237.97 1304.88 1241.87 1315.17Z" fill="#1C1C1C"/>
<path d="M807.189 1455.57C813.207 1429.1 817.879 1402.34 823.66 1375.81C829.322 1349.86 835.36 1323.21 846.466 1298.96C851.019 1289.04 836.31 1280.37 831.737 1290.35C808.654 1340.71 802.893 1397.51 790.737 1451.04C788.302 1461.73 804.753 1466.3 807.189 1455.57Z" fill="#1C1C1C"/>
<path d="M811.048 1484.77C829.558 1421.48 859.036 1362.11 881.407 1300.2C885.148 1289.85 868.657 1285.4 864.955 1295.67C842.585 1357.58 813.127 1416.95 794.597 1480.24C791.508 1490.81 807.98 1495.3 811.048 1484.77Z" fill="#1C1C1C"/>
<path d="M1151.93 1285.06C1183.11 1334.97 1230.65 1370.96 1273.45 1410.2C1281.53 1417.6 1293.64 1405.56 1285.52 1398.12C1243.89 1359.97 1196.99 1324.95 1166.68 1276.43C1160.88 1267.12 1146.09 1275.7 1151.95 1285.04L1151.93 1285.06Z" fill="#1C1C1C"/>
<path d="M1188.14 1271.2C1201.31 1286.94 1214.09 1307.98 1225.91 1326.41C1238.54 1346.13 1250.94 1366.01 1263.21 1385.96C1268.95 1395.31 1283.72 1386.74 1277.94 1377.35C1265.39 1356.98 1252.74 1336.65 1239.81 1316.52C1227.32 1297.08 1215.06 1276.9 1200.2 1259.14C1193.13 1250.71 1181.11 1262.85 1188.12 1271.22L1188.14 1271.2Z" fill="#1C1C1C"/>
<path d="M878.06 1299.49C882.237 1332.61 908.983 1360.76 943.034 1362.96C976.333 1365.1 1008.28 1339.58 1015.1 1307.33C1010.34 1308.58 1005.59 1309.85 1000.84 1311.09C1025.31 1338.02 1062.31 1356.51 1099.25 1348.98C1131.84 1342.35 1159.44 1313.86 1160.37 1280.01C1160.68 1269.02 1143.6 1269.02 1143.3 1280.01C1142.55 1307.19 1118.48 1328.75 1092.62 1332.93C1062.25 1337.84 1032.65 1320.77 1012.9 1299.04C1008.72 1294.42 999.931 1296.62 998.644 1302.8C993.477 1327.37 970.591 1346.59 945.132 1345.99C920.366 1345.4 898.194 1323.76 895.125 1299.49C893.779 1288.74 876.694 1288.6 878.06 1299.49Z" fill="#1C1C1C"/>
<path d="M1005.27 1315.92C1016.26 1315.92 1016.28 1298.86 1005.27 1298.86C994.268 1298.86 994.268 1315.92 1005.27 1315.92Z" fill="#1C1C1C"/>
<path d="M1002.37 1320.65C1009.12 1365.53 1020.38 1409.68 1030.34 1453.91C1032.75 1464.62 1049.21 1460.08 1046.79 1449.37C1036.81 1405.13 1025.57 1361 1018.82 1316.12C1018.12 1311.53 1012.38 1309.09 1008.32 1310.16C1003.43 1311.45 1001.67 1316.12 1002.37 1320.65Z" fill="#1C1C1C"/>
<path d="M1103.53 1391.19C1134.53 1385.35 1165.53 1379.51 1196.54 1373.69C1201.07 1372.84 1203.64 1367.38 1202.49 1363.2C1201.19 1358.45 1196.53 1356.39 1192 1357.24C1161 1363.08 1130 1368.92 1099 1374.76C1094.46 1375.61 1091.89 1381.08 1093.04 1385.25C1094.34 1390 1099 1392.06 1103.53 1391.21V1391.19Z" fill="#1C1C1C"/>
<path d="M800.255 1526.33C774.539 1557.96 745.121 1586.63 712.554 1611.16C708.872 1613.93 706.972 1618.52 709.486 1622.84C711.604 1626.46 717.464 1628.7 721.166 1625.9C754.96 1600.47 785.625 1571.25 812.332 1538.4C815.242 1534.82 815.836 1529.83 812.332 1526.33C809.322 1523.32 803.185 1522.72 800.255 1526.33Z" fill="#1C1C1C"/>
<path d="M709.965 1627.27C741.918 1672.15 791.885 1698.14 844.11 1712.12C872.875 1719.82 902.412 1724.3 931.91 1728.1C963.526 1732.17 995.379 1734.85 1027.29 1734.29C1087.1 1733.24 1146.47 1719.17 1202.4 1698.42C1252.54 1679.81 1301.82 1653.38 1337.51 1612.68C1375.58 1569.27 1397.67 1510.88 1386.53 1453.12C1384.45 1442.35 1368 1446.9 1370.08 1457.65C1379.28 1505.42 1361.9 1554.81 1332.34 1592.33C1301.04 1632.04 1256.03 1658.89 1209.64 1677.44C1158.41 1697.91 1103.04 1712.87 1047.84 1716.42C989.737 1720.14 929.871 1713.27 872.974 1701.43C816.889 1689.75 759.082 1666.96 724.694 1618.66C718.379 1609.79 703.571 1618.3 709.965 1627.27Z" fill="#1C1C1C"/>
<path d="M1308.62 1455.04C1329.39 1456.46 1350.02 1459.04 1370.49 1462.76C1375.02 1463.59 1379.7 1461.51 1380.98 1456.8C1382.11 1452.66 1379.58 1447.14 1375.02 1446.31C1353.07 1442.31 1330.88 1439.52 1308.6 1437.97C1303.99 1437.65 1300.07 1442.13 1300.07 1446.5C1300.07 1451.39 1303.99 1454.72 1308.6 1455.04H1308.62Z" fill="#1C1C1C"/>
<path d="M869.292 1716.34C877.943 1745.12 883.744 1774.72 892.771 1803.39C900.631 1828.37 911.519 1853.57 930.979 1871.76C953.944 1893.22 984.946 1901.26 1015.65 1902.73C1035.03 1903.66 1054.47 1900.87 1072.27 1892.97C1088.11 1885.92 1110.14 1871.63 1107.01 1851.63C1105.49 1841.91 1102.08 1832.31 1099.89 1822.71C1097.77 1813.44 1095.93 1804.1 1094.36 1794.73C1090.54 1771.81 1088.46 1748.65 1086.86 1725.46C1086.11 1714.58 1069.02 1714.48 1069.8 1725.46C1072.23 1760.64 1076.01 1795.8 1084.11 1830.17C1085.85 1837.59 1088.17 1844.94 1089.81 1852.38C1091.95 1862 1080.05 1869.27 1072.82 1873.55C1057.4 1882.69 1039.21 1886.12 1021.43 1885.88C994.152 1885.52 964.911 1879.56 944.124 1860.74C926.96 1845.2 917.26 1823.72 910.212 1802.06C900.551 1772.4 894.691 1741.68 885.723 1711.82C882.576 1701.33 866.085 1705.81 869.272 1716.36L869.292 1716.34Z" fill="#1C1C1C"/>
<path d="M1101.59 1725.31C1110.32 1759.28 1118.79 1793.43 1120.95 1828.55C1121.88 1843.77 1117.76 1863.01 1133.05 1872.2C1146.8 1880.46 1164.09 1883.84 1179.89 1884.91C1210.73 1887.01 1251.13 1881.5 1271.51 1855.75C1290.71 1831.46 1293.56 1796.83 1299.06 1767.47C1306.41 1728.28 1311.3 1688.98 1308.72 1649.05C1308.03 1638.14 1290.95 1638.06 1291.66 1649.05C1293.7 1680.74 1291.32 1712.16 1286.08 1743.44C1283.46 1759.02 1280.39 1774.52 1277.37 1790.02C1274.77 1803.33 1272.42 1816.91 1267.19 1829.52C1262.04 1841.89 1253.97 1852.34 1241.69 1858.24C1227.75 1864.93 1210.81 1867.35 1195.51 1868.04C1180.26 1868.74 1164.94 1867.01 1150.61 1861.63C1147.77 1860.56 1143.04 1859.15 1140.77 1857C1138.17 1854.52 1138.65 1851.43 1138.61 1848.05C1138.51 1839.73 1138.25 1831.46 1137.62 1823.16C1134.91 1788.36 1126.69 1754.51 1118.04 1720.79C1115.31 1710.16 1098.84 1714.67 1101.59 1725.33V1725.31Z" fill="#1C1C1C"/>
<path d="M910.96 1838.03C937.904 1858.32 973.419 1865.88 1006.68 1863.57C1023.09 1862.42 1039.28 1858.92 1054.45 1852.48C1068.19 1846.66 1080.01 1841.91 1088.12 1828.75C1091.98 1822.49 1082.14 1816.77 1078.3 1823C1071.24 1834.47 1058.9 1838.7 1046.83 1843.39C1032.61 1848.94 1017.41 1851.83 1002.2 1852.44C972.073 1853.69 941.071 1846.54 916.721 1828.21C910.861 1823.8 905.199 1833.67 910.98 1838.03H910.96Z" fill="#1C1C1C"/>
<path d="M1126.14 1820.03C1150.88 1839.36 1182.06 1845.85 1212.87 1841.24C1228.98 1838.82 1244.66 1833.44 1259.17 1826.05C1271.68 1819.7 1282.57 1811.16 1287.84 1797.8C1290.53 1790.99 1279.52 1788.04 1276.87 1794.77C1272.32 1806.31 1260.7 1812.81 1250.05 1817.88C1237.22 1823.99 1223.38 1828.37 1209.28 1830.31C1183.05 1833.93 1155.32 1828.47 1134.17 1811.96C1128.47 1807.5 1120.36 1815.5 1126.14 1819.99V1820.03Z" fill="#1C1C1C"/>
<path d="M524.526 1272.35C524.664 1273.12 524.783 1273.89 524.902 1274.67C525.001 1275.32 524.981 1275.1 524.823 1274.05C524.882 1274.49 524.921 1274.94 524.981 1275.38C525.119 1276.71 525.238 1278.05 525.318 1279.38C525.476 1282.27 525.476 1285.18 525.318 1288.07C525.238 1289.42 525.119 1290.74 524.981 1292.07C524.921 1292.5 524.882 1292.96 524.823 1293.39C524.961 1292.35 524.981 1292.15 524.902 1292.78C524.763 1293.55 524.664 1294.32 524.506 1295.1C523.971 1297.95 523.278 1300.76 522.447 1303.55C521.16 1307.83 523.991 1313.03 528.406 1314.04C533.018 1315.09 537.512 1312.66 538.898 1308.08C542.858 1294.98 543.392 1281.24 541.016 1267.8C540.244 1263.38 534.622 1260.51 530.524 1261.84C525.792 1263.36 523.734 1267.62 524.565 1272.33L524.526 1272.35Z" fill="#1C1C1C"/>
<path d="M1453.5 1187.38C1451.7 1203.85 1453.5 1220.8 1458.55 1236.58C1459.92 1240.81 1464.53 1244 1469.04 1242.54C1473.3 1241.17 1476.47 1236.6 1475 1232.04C1473.83 1228.42 1472.82 1224.74 1472.03 1221C1471.6 1219 1471.22 1216.98 1470.9 1214.94C1470.9 1214.94 1470.53 1212.19 1470.72 1213.73C1470.61 1212.72 1470.49 1211.69 1470.39 1210.66C1469.64 1202.92 1469.72 1195.12 1470.57 1187.38C1471.06 1182.93 1466.29 1178.65 1462.03 1178.85C1456.99 1179.07 1454.02 1182.61 1453.5 1187.38Z" fill="#1C1C1C"/>
<path d="M1069.74 1390.28C1078.92 1386.31 1083.16 1375.66 1079.2 1366.47C1075.23 1357.28 1064.58 1353.05 1055.39 1357.01C1046.2 1360.97 1041.97 1371.63 1045.93 1380.82C1049.89 1390 1060.55 1394.24 1069.74 1390.28Z" fill="#1C1C1C"/>
<path d="M1075.22 1442.23C1085.22 1442.23 1093.33 1434.12 1093.33 1424.11C1093.33 1414.11 1085.22 1406 1075.22 1406C1065.21 1406 1057.1 1414.11 1057.1 1424.11C1057.1 1434.12 1065.21 1442.23 1075.22 1442.23Z" fill="#1C1C1C"/>
</svg>
