<svg width="2000" height="2000" viewBox="0 0 2000 2000" fill="none" xmlns="http://www.w3.org/2000/svg">
<path d="M950.122 1470.33C949.93 1467.89 947.855 1465.6 945.588 1464.83C942.956 1463.95 940.363 1465.28 939.479 1467.85C938.788 1469.83 938.711 1472.25 939.556 1474.19C940.939 1477.42 945.185 1478.97 948.067 1476.63C949.334 1475.59 949.891 1474.06 950.122 1472.5C950.237 1471.77 950.199 1471.04 950.141 1470.31L950.122 1470.33Z" fill="#1C1C1C"/>
<path d="M967.586 1468.68C967.413 1468.2 966.837 1467.85 966.357 1467.81C966.068 1467.81 965.838 1467.81 965.569 1467.95C965.108 1468.18 964.723 1468.66 964.704 1469.2C964.704 1469.45 964.724 1469.7 964.743 1469.94C964.743 1469.71 964.743 1470.18 964.743 1470.21C964.743 1470.39 964.723 1470.56 964.704 1470.73C964.704 1470.73 964.666 1470.96 964.666 1471.04C964.608 1471.33 964.493 1471.58 964.397 1471.85C964.263 1471.75 964.147 1471.64 964.013 1471.54C963.706 1471.27 963.686 1471.25 963.398 1470.96C963.11 1470.69 962.86 1470.39 962.61 1470.08C961.861 1469.18 960.074 1469.33 959.767 1470.58C959.709 1470.77 959.652 1470.96 959.594 1471.16C959.575 1471.21 959.364 1471.67 959.46 1471.52C959.537 1471.37 959.287 1471.79 959.248 1471.85C959.191 1471.92 958.788 1472.33 959.056 1472.1C958.941 1472.19 958.826 1472.29 958.711 1472.38C958.538 1472.5 958.538 1472.5 958.711 1472.38C958.634 1472.42 958.538 1472.48 958.442 1472.52C958.403 1472.54 958.403 1472.54 958.384 1472.56C958.384 1472.56 958.384 1472.56 958.326 1472.56C958.249 1472.56 958.154 1472.6 958.077 1472.6C958 1472.6 957.904 1472.6 957.827 1472.58C957.75 1472.52 957.405 1472.35 957.77 1472.58C957.712 1472.54 957.654 1472.5 957.577 1472.46C957.577 1472.42 957.539 1472.38 957.539 1472.35C957.539 1472.35 957.539 1472.35 957.539 1472.31C957.539 1472.31 957.539 1472.31 957.539 1472.29C957.539 1472.29 957.539 1472.29 957.539 1472.27C957.577 1472.23 957.596 1472.17 957.635 1472.13C958.307 1471.35 958 1469.94 957.155 1469.41C956.233 1468.81 955.08 1469 954.427 1469.89C953.562 1471.02 953.504 1472.58 954.062 1473.86C954.657 1475.21 955.983 1476.07 957.423 1476.23C958.749 1476.36 960.171 1475.88 961.131 1474.96C961.42 1474.67 961.592 1474.34 961.823 1474.02C962.034 1474.21 962.207 1474.42 962.418 1474.61C963.456 1475.53 964.762 1476.13 966.068 1475.29C967.125 1474.59 967.528 1473.33 967.778 1472.13C968.009 1471.02 967.989 1469.75 967.586 1468.68Z" fill="#1C1C1C"/>
<path d="M912.089 1500.51C896.413 1514.65 873.725 1527.81 871.958 1550.51C871.573 1555.43 871.727 1560.81 871.919 1565.73C872.188 1570.11 872.457 1574.49 872.726 1578.85L866.732 1580C862.506 1582.54 855.053 1582.83 849.174 1583.56C848.655 1581.96 847.234 1580.67 845.063 1580.85C840.472 1581.23 835.803 1582.19 831.116 1583.42C821.338 1583.21 811.502 1583.69 802.204 1586.17C795.346 1584.25 788.411 1587.15 780.823 1588.82C773.907 1590.34 763.687 1590.76 758.385 1596.2C752.776 1601.94 754.024 1611.41 754.216 1618.73C754.562 1631.43 755.907 1644.07 756.214 1656.79C756.291 1659.76 758.558 1661.36 761.074 1661.72C761.305 1666.99 761.823 1672.31 762.419 1677.59C762.707 1680.13 764.705 1681.59 766.914 1682.01C767.087 1683.53 767.164 1685.03 767.433 1686.54C768.336 1691.71 776.02 1692.08 776.788 1686.6C779.939 1664.05 783.359 1646.68 798.919 1629.18C810.906 1615.69 825.353 1606.24 841.682 1599.46C853.208 1598.92 865.196 1596.54 875.493 1593.74C881.486 1592.1 886.712 1590.7 889.075 1584.13C892.782 1573.82 887.076 1561.02 887.326 1550.61C887.691 1534.99 910.206 1520.01 920.906 1509.56C925.997 1504.56 917.41 1495.69 912.069 1500.49L912.089 1500.51Z" fill="#1C1C1C"/>
<path d="M1148.86 1583.06C1146.97 1583.54 1145.9 1584.77 1145.38 1586.26C1138.85 1584.9 1131.59 1584.9 1123.84 1584.9C1116.24 1584.9 1079.37 1589.24 1074.76 1583.84C1071.28 1579.79 1073.53 1555.37 1070.77 1549.07C1067.6 1541.85 1066 1540.49 1059.1 1536.64C1056.3 1535.09 1052.13 1534.88 1049.1 1533.97C1037.78 1534.7 1031.02 1529.52 1028.77 1518.43C1022.11 1512.26 1020.36 1505.27 1023.51 1497.4C1024.64 1490.38 1013.65 1487.14 1011.29 1494.09C1005.45 1511.29 1002.47 1530.78 1019.59 1542.52C1026.75 1547.44 1035.21 1546.94 1042.74 1550.32C1065.21 1560.43 1051.96 1573.85 1059.33 1590.22C1065.94 1604.9 1080.87 1600.08 1094.64 1599.54C1112.76 1598.83 1142.23 1591.37 1153.77 1610.81C1163.92 1627.93 1160 1656.88 1159.5 1675.29C1159.33 1681.63 1167.59 1682.68 1169.18 1676.59C1174.43 1656.54 1196.04 1570.91 1148.88 1583.07L1148.86 1583.06Z" fill="#1C1C1C"/>
<path d="M816.014 1309.57C795.113 1306.21 778.861 1320.31 767.046 1335.91C758.325 1347.42 751.063 1360.33 745.953 1373.85C736.771 1398.19 732.832 1424.97 732.141 1450.89C731.449 1477.44 734.235 1506.04 746.952 1529.82C752.485 1540.18 760.38 1549.48 770.523 1555.57C781.3 1562.04 794.133 1564.4 806.581 1563.52C825.331 1562.21 844.465 1555.62 860.967 1546.84C877.93 1537.83 892.222 1524.85 906.073 1511.75C910.107 1507.92 914.122 1504.1 918.156 1500.28C923.708 1495.03 915.313 1486.68 909.78 1491.9C896.103 1504.83 882.732 1518.64 867.172 1529.25C851.861 1539.66 834.264 1546.63 816.148 1550.32C814.458 1550.67 812.748 1550.97 811.038 1551.22C810.866 1551.24 809.866 1551.38 810.865 1551.24C810.481 1551.3 810.097 1551.34 809.713 1551.38C808.772 1551.47 807.811 1551.57 806.87 1551.65C803.815 1551.88 800.761 1551.92 797.706 1551.74C796.938 1551.7 796.17 1551.65 795.401 1551.57C795.113 1551.55 792.75 1551.24 794.229 1551.45C792.788 1551.24 791.348 1550.97 789.926 1550.67C787.333 1550.09 784.816 1549.28 782.338 1548.34C781.32 1547.96 782.3 1548.34 782.492 1548.42C782.146 1548.27 781.8 1548.11 781.454 1547.96C780.916 1547.71 780.359 1547.46 779.821 1547.19C778.63 1546.59 777.439 1545.94 776.306 1545.25C775.23 1544.6 774.173 1543.9 773.155 1543.17C772.752 1542.89 771.561 1541.98 772.579 1542.77C772.003 1542.31 771.426 1541.85 770.869 1541.37C768.891 1539.68 767.027 1537.83 765.298 1535.87C764.895 1535.41 764.511 1534.97 764.126 1534.49C763.896 1534.22 762.609 1532.57 763.492 1533.72C762.647 1532.63 761.84 1531.49 761.072 1530.34C759.573 1528.11 758.21 1525.81 756.961 1523.45C756.327 1522.24 755.712 1521.01 755.135 1519.76C754.828 1519.08 754.521 1518.41 754.213 1517.74C754.079 1517.43 753.945 1517.14 753.829 1516.84C754.233 1517.8 753.83 1516.84 753.657 1516.41C751.448 1510.88 749.699 1505.2 748.335 1499.39C747.605 1496.32 746.971 1493.23 746.453 1490.12C746.203 1488.67 745.972 1487.21 745.761 1485.75C745.761 1485.83 745.511 1484.03 745.626 1484.89C745.722 1485.62 745.569 1484.45 745.549 1484.29C745.453 1483.47 745.338 1482.62 745.242 1481.8C744.493 1475.19 744.071 1468.54 743.955 1461.89C743.456 1435.86 746.395 1411.85 754.022 1386.94C754.828 1384.32 755.673 1381.71 756.615 1379.14C757.018 1378.02 757.441 1376.91 757.864 1375.79C758.094 1375.18 758.344 1374.58 758.593 1373.97C758.786 1373.51 759.477 1371.89 758.901 1373.22C761.283 1367.72 764.107 1362.48 767.123 1357.33C775.192 1343.52 786.43 1326.44 802.394 1321.81C805.89 1320.79 809.386 1320.47 812.883 1321.02C816.033 1321.52 819.261 1320.22 820.163 1316.89C820.932 1314.07 819.203 1310.13 816.033 1309.61L816.014 1309.57Z" fill="#1C1C1C"/>
<path d="M814.42 1424.24C836.224 1411.03 860.872 1403.49 884.789 1395.14C887.805 1394.08 889.822 1391.08 888.919 1387.86C888.112 1384.94 884.673 1382.67 881.638 1383.73C856.78 1392.41 831.095 1400.29 808.446 1414.02C801.933 1417.98 807.889 1428.22 814.42 1424.24Z" fill="#1C1C1C"/>
<path d="M1023.35 1525.89C1042.23 1540.31 1066.17 1547.59 1089.57 1549.98C1113.87 1552.45 1139.61 1549.07 1161.28 1537.35C1172.19 1531.46 1181.67 1523.31 1189.12 1513.4C1198.11 1501.45 1203.53 1486.66 1206.27 1472.06C1212.73 1437.75 1204.72 1402.21 1188.93 1371.53C1181.95 1358 1173.25 1345.19 1163.65 1333.4C1154.39 1322.04 1142.74 1310.71 1128.22 1306.73C1124.78 1305.79 1121.17 1305.33 1117.62 1305.35C1109.99 1305.39 1109.99 1317.22 1117.62 1317.18C1130.49 1317.12 1141.34 1326.29 1149.78 1335.41C1159.04 1345.44 1167.03 1356.99 1173.9 1368.74C1189.91 1396.12 1199.3 1428.28 1196.15 1460.13C1194.75 1474.36 1190.58 1488.94 1183.12 1501.24C1177.61 1510.31 1169.79 1518.14 1160.99 1523.79C1142.15 1535.91 1119.5 1539.81 1097.18 1538.72C1075.74 1537.66 1053.68 1531.73 1035.47 1519.97C1033.38 1518.61 1031.34 1517.16 1029.34 1515.67C1026.81 1513.73 1022.72 1515.26 1021.24 1517.8C1019.45 1520.85 1020.82 1523.95 1023.37 1525.91L1023.35 1525.89Z" fill="#1C1C1C"/>
<path d="M1051.11 1404.67C1072.19 1408.97 1092.45 1416.56 1112.7 1423.63C1115.72 1424.68 1119.18 1422.44 1119.98 1419.5C1120.89 1416.23 1118.89 1413.27 1115.85 1412.22C1095.58 1405.17 1075.34 1397.56 1054.26 1393.26C1051.13 1392.62 1047.87 1394.16 1046.98 1397.39C1046.18 1400.31 1047.96 1404.03 1051.11 1404.67Z" fill="#1C1C1C"/>
<path d="M841.908 906.499C839.583 901.273 836.759 896.259 833.474 891.553C819.201 871.036 796.494 856.244 771.674 854.784C716.52 851.537 677.907 905.807 672.336 955.985C667.399 1000.4 696.061 1057.34 741.609 1062.78C839.372 1074.42 869.763 969.298 841.908 906.518V906.499ZM730.198 924.422C729.583 925.882 728.584 927.035 727.413 927.957C727.643 927.784 727.855 927.611 728.085 927.438C726.491 928.687 725.165 930.224 723.897 931.799C723.11 933.97 721.88 936.006 720.132 937.812C719.555 938.407 718.845 938.849 718.211 939.368C713.927 944.977 708.279 951.797 700.268 949.607C690.49 946.918 689.702 934.027 689.107 925.863C688.915 923.193 690.202 920.907 692.123 919.312C695.446 913.145 701.651 909.342 707.876 906.21C710.104 905.096 712.313 904.77 714.715 905.307C716.693 905.749 719.114 907.555 720.017 909.38C720.209 909.745 720.362 910.129 720.554 910.514C722.168 911.052 723.782 911.686 725.28 912.435C726.356 912.992 727.47 913.741 728.296 914.586C730.87 917.218 731.62 921.041 730.198 924.422Z" fill="#1C1C1C"/>
<path d="M1227.7 916.085C1225.37 910.86 1222.55 905.846 1219.26 901.139C1204.99 880.622 1182.28 865.83 1157.46 864.37C1102.31 861.124 1063.7 915.393 1058.13 965.571C1053.19 1009.99 1081.85 1066.93 1127.4 1072.36C1225.16 1084 1255.55 978.884 1227.7 916.104V916.085ZM1214.61 959.347C1209.41 965.495 1201.47 969.682 1193.31 967.781C1189.26 966.839 1186.09 964.169 1183.7 960.865C1181.61 957.964 1180.78 954.372 1180.53 950.856C1180.4 948.935 1180.71 946.976 1181.03 945.093C1181.26 943.71 1181.69 942.365 1182.23 941.059C1182.72 939.829 1183.26 938.657 1183.86 937.486C1184.11 935.603 1184.66 933.759 1185.72 932.222C1190.43 925.268 1199.65 924.153 1207.22 926.382C1210.85 927.458 1214.31 929.283 1217.05 931.934C1220.19 934.969 1222.2 939.349 1222.09 943.748C1221.93 949.876 1218.42 954.833 1214.61 959.347Z" fill="#1C1C1C"/>
<path d="M845.078 451.708C846.115 477.431 847.537 503.154 849.458 528.838C851.591 557.347 854.338 585.836 858.026 614.191C861.695 642.488 866.19 670.708 872.376 698.564C877.794 722.999 884.422 747.32 893.912 770.507C901.557 789.161 910.932 807.756 924.956 822.472C926.416 824.008 927.933 825.469 929.489 826.89C935.118 832 943.532 823.644 937.865 818.514C934.734 815.69 931.833 812.617 929.124 809.37C928.452 808.563 927.799 807.756 927.165 806.95C926.742 806.431 927.223 807.026 927.28 807.103C927.126 806.892 926.954 806.681 926.8 806.469C926.435 805.97 926.051 805.47 925.686 804.971C924.341 803.127 923.054 801.244 921.805 799.342C916.215 790.774 911.527 781.63 907.416 772.255C903.19 762.631 899.118 751.316 895.756 740.616C891.933 728.494 888.667 716.218 885.747 703.866C879.369 676.817 874.701 649.365 870.916 621.837C867.093 594.058 864.289 566.126 862.06 538.175C859.986 512.26 858.468 486.306 857.335 460.334C857.2 457.452 857.085 454.59 856.969 451.708C856.662 444.12 844.828 444.081 845.136 451.708H845.078Z" fill="#1C1C1C"/>
<path d="M1074.7 448.616C1085.96 494.567 1095.72 540.884 1103.94 587.47C1112.15 633.921 1118.83 680.622 1123.96 727.515C1126.86 754.006 1129.26 780.555 1131.18 807.123C1131.41 810.312 1133.74 813.04 1137.1 813.04C1140.12 813.04 1143.25 810.331 1143.02 807.123C1139.56 759.404 1134.53 711.819 1127.96 664.427C1121.44 617.38 1113.39 570.526 1103.81 523.998C1098.39 497.718 1092.47 471.515 1086.1 445.446C1084.29 438.05 1072.86 441.181 1074.68 448.596L1074.7 448.616Z" fill="#1C1C1C"/>
<path d="M1144 612.308C1152.28 652.497 1157.25 693.3 1158.85 734.315C1159.31 746.091 1159.48 757.886 1159.38 769.662C1159.33 777.289 1171.16 777.289 1171.22 769.662C1171.52 727.764 1168.35 685.904 1161.84 644.524C1159.98 632.691 1157.83 620.895 1155.41 609.177C1154.75 606.046 1151.06 604.24 1148.13 605.047C1144.88 605.95 1143.34 609.196 1144 612.328V612.308Z" fill="#1C1C1C"/>
<path d="M1367.36 1098.57C1361.3 1124.48 1351.18 1149.17 1336.77 1171.58C1323.17 1192.77 1305.98 1211.47 1286.61 1227.53C1246.08 1261.14 1196.44 1282.64 1145.99 1296.42C1116.14 1304.56 1085.59 1310.09 1054.84 1313.42C1051.67 1313.76 1048.92 1315.89 1048.92 1319.33C1048.92 1322.27 1051.65 1325.6 1054.84 1325.25C1083.29 1322.18 1111.59 1317.39 1139.35 1310.4C1166.47 1303.56 1193.08 1294.55 1218.57 1283.01C1243.22 1271.86 1266.62 1258.15 1287.98 1241.53C1308.65 1225.45 1326.99 1206.51 1342 1185.01C1357.44 1162.86 1368.95 1137.99 1376.15 1111.97C1377.1 1108.57 1377.96 1105.14 1378.77 1101.7C1380.5 1094.28 1369.08 1091.11 1367.36 1098.55V1098.57Z" fill="#1C1C1C"/>
<path d="M1417.38 965.878C1423.57 957.387 1434.81 954.16 1444.89 954.909C1456.53 955.773 1467.02 962.804 1474.9 971.007C1490.75 987.509 1498.47 1010.54 1498.85 1033.15C1499.24 1056.21 1492.51 1079.22 1479.74 1098.41C1466.93 1117.64 1447.81 1132.07 1427.39 1142.4C1404.28 1154.1 1378.31 1160.96 1352.37 1161.56C1344.77 1161.73 1344.75 1173.58 1352.37 1173.39C1378.36 1172.79 1404.09 1166.3 1427.64 1155.39C1450.77 1144.69 1472.04 1129.07 1487.15 1108.38C1517.49 1066.93 1520.45 1003.17 1484.56 963.976C1474.24 952.7 1460.37 944.17 1444.89 943.037C1430.31 941.98 1415.81 947.993 1407.16 959.865C1405.28 962.459 1406.72 966.474 1409.29 967.972C1412.29 969.72 1415.5 968.433 1417.4 965.84L1417.38 965.878Z" fill="#1C1C1C"/>
<path d="M1436.48 1031.39C1443.05 1041.66 1442.7 1054.34 1438.5 1065.49C1433.98 1077.4 1424.99 1087.19 1415.94 1095.86C1410.43 1101.14 1418.81 1109.5 1424.32 1104.23C1435.17 1093.84 1445.13 1082.08 1450.25 1067.75C1455.15 1054.05 1454.69 1037.88 1446.72 1025.43C1442.63 1019.03 1432.37 1024.97 1436.5 1031.41L1436.48 1031.39Z" fill="#1C1C1C"/>
<path d="M1099.01 857.608C1118.62 836.995 1156.08 836.341 1181.44 844.275C1217.92 855.706 1239.86 883.523 1242.45 921.636C1243.32 934.2 1264.06 934.623 1264.75 921.771C1267.39 873.13 1240.07 829.08 1192.54 814.73C1153.72 803.011 1105.5 808.179 1078.7 841.701C1068.15 854.899 1087.81 869.403 1099.04 857.588L1099.01 857.608Z" fill="#1C1C1C"/>
<path d="M670.359 900.735C675.661 868.116 707.224 845.851 736.693 836.246C773.443 824.258 807.561 835.496 835.666 860.278C841.602 865.503 851.4 858.107 848.095 850.961C805.275 758.308 654.088 806.162 642.85 897.009C640.66 914.759 667.478 918.39 670.359 900.716V900.735Z" fill="#1C1C1C"/>
<path d="M923.205 732.471C927.566 761.133 933.886 789.449 938.247 818.111C938.727 821.281 942.704 823.029 945.528 822.242C948.909 821.319 950.138 818.13 949.658 814.961C945.297 786.299 938.977 757.982 934.616 729.32C934.136 726.15 930.159 724.402 927.336 725.19C923.954 726.112 922.725 729.301 923.205 732.471Z" fill="#1C1C1C"/>
<path d="M976.447 740.385C978.33 753.294 980.519 766.165 983.017 778.979C984.285 785.472 985.63 791.965 987.07 798.439C988.358 804.279 989.318 810.484 991.277 816.132C993.448 822.375 998.462 825.641 1005.09 825.007C1011.33 824.412 1017.54 823.547 1023.8 823.105C1036.63 822.183 1049.54 822.029 1062.39 822.683C1076.84 823.413 1091.21 825.142 1105.43 827.87C1108.56 828.465 1111.82 826.986 1112.71 823.739C1113.49 820.838 1111.73 817.054 1108.58 816.458C1084.28 811.79 1059.47 809.754 1034.75 810.676C1028.6 810.906 1022.48 811.31 1016.35 811.905C1013.48 812.174 1010.62 812.501 1007.76 812.847C1006.4 813.02 1005.01 813.096 1003.67 813.289C1003.51 813.308 1003.11 813.346 1002.92 813.327C1002.55 813.154 1002.53 813.212 1002.88 813.481C1003.3 813.923 1003.25 813.788 1002.75 813.039C1000.15 801.589 997.329 790.217 995.023 778.691C992.276 764.936 989.913 751.104 987.877 737.234C987.416 734.064 983.401 732.335 980.596 733.104C977.196 734.045 976.005 737.215 976.466 740.385H976.447Z" fill="#1C1C1C"/>
<path d="M1096.81 784.243V800.053C1096.81 803.146 1099.54 806.124 1102.73 805.97C1105.94 805.836 1108.65 803.377 1108.65 800.053V784.243C1108.65 781.15 1105.92 778.172 1102.73 778.326C1099.52 778.46 1096.81 780.919 1096.81 784.243Z" fill="#1C1C1C"/>
<path d="M843.582 464.137C839.394 506.016 836.301 548.011 834.361 590.044C832.402 632.288 831.575 674.57 831.883 716.852C832.056 740.654 832.593 764.437 833.477 788.22C833.765 795.808 845.599 795.846 845.311 788.22C843.736 746.168 843.275 704.058 843.947 661.987C844.619 619.705 846.425 577.441 849.364 535.274C851.016 511.53 853.034 487.824 855.416 464.137C855.742 460.949 852.457 458.221 849.499 458.221C846.041 458.221 843.889 460.949 843.582 464.137Z" fill="#1C1C1C"/>
<path d="M710.339 448.787C700.446 495.296 692.531 542.477 690.802 590.081C689.188 634.457 693.107 679.391 705.364 722.192C712.087 745.667 721.385 768.47 733.353 789.775C737.099 796.422 747.32 790.447 743.574 783.8C722.903 747.05 710.781 705.844 705.575 664.099C699.985 619.262 701.944 573.752 707.976 529.049C711.473 503.172 716.314 477.488 721.75 451.938C723.325 444.503 711.914 441.334 710.339 448.787Z" fill="#1C1C1C"/>
<path d="M652.844 560.805C651.961 591.33 652.671 622.01 656.744 652.324C660.567 680.89 667.06 710.878 682.909 735.429C690.574 747.301 700.659 757.732 713.357 764.168C720.139 767.606 726.133 757.387 719.332 753.948C709.189 748.819 701.063 741.057 694.781 731.932C687.404 721.232 682.409 709.629 678.471 697.43C669.404 669.229 666.176 639.318 664.908 609.83C664.198 593.501 664.198 577.153 664.678 560.824C664.89 553.197 653.056 553.217 652.844 560.824V560.805Z" fill="#1C1C1C"/>
<path d="M1199.52 497.372C1215.81 562.937 1231.9 632.172 1215.06 699.332C1210.73 716.526 1204.32 733.047 1195.42 748.396C1191.6 755.004 1201.82 760.979 1205.64 754.37C1240.7 693.915 1237.88 621.203 1224.85 554.869C1220.86 534.506 1215.94 514.334 1210.93 494.202C1209.08 486.806 1197.67 489.937 1199.52 497.352V497.372Z" fill="#1C1C1C"/>
<path d="M917.102 202.758C1001.92 181.339 1090.63 189.811 1171.6 221.969C1252.6 254.147 1324.17 308.359 1381.84 373.233C1410.68 405.66 1436.11 441.065 1457.63 478.737C1480.3 518.426 1497.38 560.363 1511.38 603.798C1544.37 706.133 1561.17 813.097 1566.02 920.388C1570.88 1028.29 1564 1136.6 1549.26 1243.53C1547.48 1256.53 1545.56 1269.54 1543.56 1282.53C1542.41 1289.98 1553.82 1293.19 1554.97 1285.68C1571.74 1177.39 1581.25 1067.75 1579.08 958.117C1576.91 848.732 1563.04 739.136 1532.9 633.843C1519.55 587.2 1503.5 541.152 1481.41 497.852C1461.32 458.451 1436.86 421.355 1409.03 387.007C1353.26 318.233 1282.76 259.929 1202.28 222.411C1122.48 185.219 1033.48 169.812 946.245 184.508C935.391 186.333 924.633 188.639 913.971 191.328C906.595 193.192 909.706 204.622 917.122 202.739L917.102 202.758Z" fill="#1C1C1C"/>
<path d="M906.958 191.136C818.724 181.396 730.817 203.431 654.147 247.173C576.172 291.684 510.529 355.943 457.335 427.772C400.414 504.652 358.458 591.177 330.353 682.484C296.889 791.216 282.231 905.135 278.581 1018.59C276.775 1074.59 278.081 1130.55 280.29 1186.51C281.827 1225.76 284.92 1268.98 310.662 1300.78C317.079 1308.69 324.859 1315.32 333.446 1320.79C336.578 1322.79 341.322 1320.91 342.148 1317.26C344.569 1306.52 344.761 1295.9 342.879 1285.06C339.075 1286.12 335.271 1287.16 331.468 1288.21C346.74 1330.57 392.884 1353.85 435.992 1339.74C443.196 1337.37 440.123 1325.94 432.842 1328.32C396.207 1340.31 356.057 1321.6 342.879 1285.06C340.266 1277.84 330.161 1280.72 331.468 1288.21C332.966 1296.88 332.658 1305.56 330.737 1314.11C333.638 1312.94 336.539 1311.75 339.44 1310.57C304.592 1288.31 296.024 1246.22 293.277 1207.74C289.646 1156.89 289.032 1105.5 289.665 1054.55C291.029 942.384 302.459 829.791 331.563 721.251C356.403 628.618 394.555 540.269 448.441 460.775C497.773 388.006 559.554 322.037 633.4 273.761C705.094 226.887 788.467 198.282 874.723 200.703C885.5 201.01 896.258 201.779 906.977 202.97C914.546 203.796 914.488 191.962 906.977 191.136H906.958Z" fill="#1C1C1C"/>
<path d="M429.004 1305.5C430.963 1315.03 434.651 1324.23 439.742 1332.53C441.356 1335.16 445.121 1336.41 447.849 1334.66C450.5 1332.95 451.71 1329.38 449.981 1326.56C448.79 1324.62 447.676 1322.64 446.658 1320.62C446.12 1319.54 445.601 1318.45 445.102 1317.34C444.91 1316.91 444.718 1316.51 444.564 1316.09C445.159 1317.57 444.41 1315.66 444.295 1315.4C442.643 1311.17 441.356 1306.81 440.434 1302.35C439.8 1299.32 436.054 1297.28 433.153 1298.22C429.945 1299.26 428.351 1302.26 429.023 1305.5H429.004Z" fill="#1C1C1C"/>
<path d="M1226.79 626.678C1270.82 646.83 1320.98 643.583 1366.11 628.791C1388.18 621.549 1410 611.866 1429.54 599.245C1448.31 587.123 1465.71 571.236 1475.47 550.796C1486.17 528.397 1488.34 501.463 1476.07 479.218C1472.98 481.619 1469.86 484.001 1466.77 486.402C1488.71 504.883 1503.98 530.298 1510.15 558.307C1516.22 585.874 1512.4 615.171 1500.06 640.509C1492.9 655.225 1483.16 668.403 1471.11 679.468C1465.48 684.636 1473.88 692.993 1479.49 687.844C1502.35 666.828 1517.97 637.839 1522.92 607.16C1527.9 576.442 1522.33 544.975 1507.44 517.677C1499.24 502.635 1488.23 489.053 1475.13 478.007C1470.13 473.8 1462.43 479.025 1465.83 485.192C1475.4 502.52 1474.15 523.632 1466.71 541.517C1458.89 560.344 1443.81 575.27 1427.18 586.585C1409.41 598.688 1389.51 608.005 1369.28 615.19C1348.36 622.605 1326.46 627.715 1304.25 628.868C1279.83 630.135 1255.09 626.658 1232.73 616.438C1229.83 615.113 1226.35 615.612 1224.62 618.571C1223.12 621.126 1223.82 625.333 1226.75 626.678H1226.79Z" fill="#1C1C1C"/>
<path d="M1491.6 601.647C1502.16 573.811 1504.68 543.458 1499.47 514.181C1498.92 511.031 1495.07 509.263 1492.19 510.051C1488.87 510.973 1487.49 514.181 1488.06 517.332C1492.9 544.534 1489.96 572.697 1480.19 598.496C1479.05 601.493 1481.44 604.99 1484.32 605.777C1487.64 606.699 1490.46 604.644 1491.6 601.647Z" fill="#1C1C1C"/>
<path d="M571.428 795.193C565.588 834.113 561.112 873.226 558.076 912.454C555.06 951.547 553.447 990.756 553.274 1029.96C553.101 1068.98 554.33 1108 556.962 1146.92C559.498 1184.23 562.687 1221.78 568.7 1258.71C573.791 1290 582.57 1321.56 602.433 1346.9C604.815 1349.96 607.371 1352.86 610.041 1355.64C615.324 1361.15 623.7 1352.76 618.417 1347.27C596.843 1324.83 587.238 1294.4 581.667 1264.43C578.67 1248.37 576.788 1232.14 574.982 1215.9C572.83 1196.62 571.044 1177.29 569.603 1157.93C563.878 1081.28 563.628 1004.22 568.834 927.534C571.773 884.291 576.442 841.183 582.858 798.324C583.338 795.174 582.07 791.965 578.728 791.043C575.942 790.275 571.927 792.004 571.447 795.174L571.428 795.193Z" fill="#1C1C1C"/>
<path d="M444.083 1290.15C450.288 1312.13 464.869 1330.48 483.216 1343.73C503.713 1358.54 528.591 1365.67 553.545 1367.8C568.606 1369.09 583.744 1368.46 598.748 1366.73C601.917 1366.36 604.665 1364.27 604.665 1360.81C604.665 1357.89 601.937 1354.51 598.748 1354.89C573.87 1357.79 548.282 1357.64 524.096 1350.49C503.675 1344.46 484.964 1333.15 471.247 1316.72C464.005 1308.04 458.568 1297.91 455.514 1287.04C453.439 1279.72 442.009 1282.83 444.103 1290.19L444.083 1290.15Z" fill="#1C1C1C"/>
<path d="M540.651 1326.88C553.195 1340.41 568.698 1350.72 585.834 1357.43C588.811 1358.6 592.327 1356.14 593.115 1353.3C594.037 1349.94 591.962 1347.19 588.984 1346.02C573.962 1340.14 560.149 1330.51 549.027 1318.51C546.856 1316.16 542.86 1316.3 540.651 1318.51C538.307 1320.85 538.48 1324.52 540.651 1326.88Z" fill="#1C1C1C"/>
<path d="M658.719 675.549C638.664 722.596 622.373 771.352 599.09 816.977C592.308 830.252 584.951 843.238 576.959 855.84C572.867 862.295 583.107 868.25 587.179 861.815C614.746 818.284 633.362 770.411 652.188 722.692C657.625 708.918 663.119 695.163 668.92 681.543C670.169 678.604 669.804 675.203 666.788 673.436C664.29 671.976 659.949 672.61 658.681 675.568L658.719 675.549Z" fill="#1C1C1C"/>
<path d="M554.577 1123.16C559.398 1144.71 568.177 1165.38 579.838 1184.11C592.479 1204.4 608.462 1222.61 626.501 1238.26C646.614 1255.73 669.168 1270.25 693.123 1281.85C720.191 1294.99 748.91 1304.62 778.264 1311.11C811.786 1318.51 846.193 1321.98 880.503 1322.23C885.132 1322.27 889.762 1322.23 894.392 1322.16C902 1322.02 902.019 1310.19 894.392 1310.32C860.524 1310.9 826.56 1308.52 793.268 1302.14C764.298 1296.59 735.694 1288.17 708.722 1276.13C685.055 1265.54 662.06 1252.08 642.1 1235.96C623.85 1221.22 607.386 1203.97 594.535 1185.03C582.24 1166.9 573.403 1148.34 567.813 1127.52C567.14 1125.04 566.545 1122.54 565.968 1120.02C564.297 1112.59 552.886 1115.74 554.557 1123.17L554.577 1123.16Z" fill="#1C1C1C"/>
<path d="M890.881 1388.95C888.134 1370.05 891.707 1350.15 900.025 1333.01C908.305 1315.95 921.656 1299.66 938.696 1290.75C944.651 1287.64 955.447 1284.22 958.809 1292.44C960.769 1297.22 960.135 1303.06 960.116 1308.1C960.077 1314.8 960.058 1321.48 960.02 1328.19C959.904 1355.18 959.77 1382.15 959.655 1409.14C959.616 1419.8 960.02 1430.1 956.485 1440.21C953.757 1447.97 948.705 1453.44 940.387 1453.58C932.779 1453.69 932.76 1465.53 940.387 1465.41C963.093 1465.06 970.662 1441.8 971.392 1422.71C971.93 1408.37 971.565 1393.95 971.642 1379.6C971.7 1364.63 971.776 1349.67 971.834 1334.68C971.872 1327.19 971.892 1319.72 971.93 1312.23C971.969 1305.71 972.353 1299.07 971.123 1292.63C969.99 1286.75 966.666 1281.22 961.384 1278.2C956.235 1275.26 950.261 1275.09 944.574 1276.17C933.509 1278.24 923.616 1285.7 915.413 1293.01C907.152 1300.37 900.064 1309.13 894.377 1318.6C881.161 1340.64 875.782 1366.67 879.489 1392.08C879.95 1395.25 883.965 1396.98 886.77 1396.21C890.17 1395.27 891.361 1392.1 890.9 1388.93L890.881 1388.95Z" fill="#1C1C1C"/>
<path d="M971.22 1305.77C972.123 1300.57 973.217 1295.76 976.272 1291.73C975.696 1292.48 977.213 1290.77 977.444 1290.54C977.598 1290.38 978.885 1289.38 977.77 1290.19C978.02 1290 978.289 1289.81 978.558 1289.65C978.961 1289.42 980.959 1288.54 979.634 1289.02C980.498 1288.71 981.382 1288.48 982.285 1288.31C980.729 1288.6 983.246 1288.31 983.726 1288.31C984.129 1288.31 984.513 1288.35 984.917 1288.37C986.511 1288.46 983.668 1288.1 985.282 1288.4C987.145 1288.77 988.97 1289.29 990.737 1290C989.777 1289.62 992.044 1290.61 992.332 1290.77C993.177 1291.19 994.022 1291.65 994.848 1292.13C996.731 1293.23 998.537 1294.46 1000.27 1295.78C999.44 1295.15 1001.02 1296.38 1000.98 1296.36C1001.38 1296.68 1001.76 1297.01 1002.15 1297.34C1003.01 1298.07 1003.84 1298.82 1004.67 1299.59C1006.3 1301.1 1007.85 1302.72 1009.35 1304.37C1010.01 1305.1 1010.66 1305.87 1011.29 1306.62C1011.66 1307.06 1012.02 1307.52 1012.39 1307.98C1012.23 1307.79 1011.81 1307.21 1012.5 1308.15C1014.19 1310.44 1015.75 1312.84 1017.29 1315.22C1025.03 1327.27 1031.91 1340.02 1036.77 1353.53C1042.11 1368.44 1045.37 1384.67 1042.82 1400.48C1042.3 1403.63 1043.64 1406.86 1046.95 1407.76C1049.77 1408.53 1053.71 1406.8 1054.23 1403.63C1059.57 1370.8 1045.79 1338.14 1028.56 1310.88C1022.82 1301.79 1016.44 1293.48 1007.93 1286.83C1000.61 1281.12 991.314 1275.65 981.632 1276.53C968.05 1277.76 961.864 1290.52 959.808 1302.58C959.27 1305.73 960.654 1308.96 963.939 1309.86C966.782 1310.65 970.682 1308.9 971.22 1305.73V1305.77Z" fill="#1C1C1C"/>
<path d="M956.947 1445.07C959.118 1452.4 961.865 1459.8 967.09 1465.54C971.931 1470.87 978.751 1473.77 985.61 1475.4C988.626 1476.11 992.16 1474.46 992.89 1471.27C993.582 1468.23 991.968 1464.76 988.76 1463.99C987.127 1463.6 985.494 1463.14 983.9 1462.61C983.515 1462.47 983.112 1462.32 982.728 1462.18C982.286 1462.01 980.999 1461.32 982.728 1462.2C982.133 1461.89 981.498 1461.65 980.883 1461.32C979.654 1460.68 978.54 1459.9 977.387 1459.13C979.174 1460.34 977.291 1459.01 976.849 1458.59C976.35 1458.13 975.889 1457.67 975.447 1457.17C975.197 1456.9 974.967 1456.63 974.736 1456.36C974.083 1455.57 974.736 1456.32 974.986 1456.71C974.583 1456.09 974.102 1455.5 973.699 1454.86C972.892 1453.6 972.181 1452.27 971.547 1450.93C971.413 1450.64 971.278 1450.35 971.144 1450.06C970.491 1448.58 971.49 1450.96 971.086 1449.97C970.741 1449.1 970.414 1448.26 970.087 1447.37C969.434 1445.59 968.877 1443.76 968.32 1441.94C967.436 1438.98 964.113 1436.81 961.039 1437.8C958.042 1438.78 955.967 1441.92 956.909 1445.09L956.947 1445.07Z" fill="#1C1C1C"/>
<path d="M1245.21 674.473C1258.89 703.885 1275.64 731.817 1295.1 757.77C1314.68 783.858 1336.81 808.006 1361.28 829.579C1375.21 841.855 1389.89 853.304 1405.16 863.87C1407.79 865.695 1411.73 864.35 1413.27 861.738C1415 858.799 1413.79 855.456 1411.14 853.631C1358.9 817.457 1314.39 770.276 1281.08 716.199C1271.61 700.811 1263.04 684.866 1255.42 668.499C1254.07 665.598 1249.88 664.868 1247.31 666.366C1244.33 668.114 1243.83 671.553 1245.18 674.473H1245.21Z" fill="#1C1C1C"/>
<path d="M1370.94 866.713C1384.23 874.782 1397.5 882.85 1410.8 890.919C1413.53 892.571 1417.31 891.514 1418.9 888.786C1420.54 885.981 1419.52 882.351 1416.77 880.679C1403.48 872.611 1390.2 864.543 1376.91 856.474C1374.18 854.822 1370.4 855.879 1368.8 858.606C1367.17 861.411 1368.19 865.042 1370.94 866.713Z" fill="#1C1C1C"/>
<path d="M1385.05 873.898C1390.37 913.798 1390.47 954.544 1384.82 994.444C1383.21 1005.78 1381.15 1017.05 1378.69 1028.24C1377.06 1035.67 1388.47 1038.84 1390.1 1031.39C1398.96 991.178 1402.45 949.78 1400.19 908.669C1399.55 897.047 1398.44 885.463 1396.88 873.917C1396.46 870.748 1394.46 868 1390.97 868C1388.1 868 1384.63 870.728 1385.05 873.917V873.898Z" fill="#1C1C1C"/>
<path d="M1402.19 922.405C1404.34 951.701 1398.98 981.305 1386.21 1007.82C1384.82 1010.7 1385.42 1014.21 1388.34 1015.92C1390.93 1017.44 1395.04 1016.69 1396.45 1013.79C1410.11 985.435 1416.37 953.834 1414.04 922.405C1413.81 919.216 1411.49 916.488 1408.13 916.488C1405.11 916.488 1401.98 919.197 1402.21 922.405H1402.19Z" fill="#1C1C1C"/>
<path d="M1353.55 1204.74C1356.1 1224.78 1354.57 1245.33 1352.13 1265.31C1349.42 1287.54 1345.06 1309.63 1339.43 1331.3C1336.7 1341.81 1333.65 1352.22 1330 1362.46C1328.92 1365.48 1331.21 1368.94 1334.13 1369.74C1337.41 1370.64 1340.33 1368.63 1341.41 1365.61C1348.34 1346.13 1353.36 1325.94 1357.43 1305.69C1361.94 1283.22 1365.33 1260.36 1366.32 1237.44C1366.8 1226.55 1366.75 1215.58 1365.34 1204.76C1364.94 1201.59 1362.9 1198.84 1359.43 1198.84C1356.55 1198.84 1353.11 1201.57 1353.51 1204.76L1353.55 1204.74Z" fill="#1C1C1C"/>
<path d="M1430.01 1260.15C1426.91 1282.18 1421.84 1305.33 1407.88 1323.25C1406.24 1325.35 1402.94 1328.92 1400.42 1331.38C1397.18 1334.55 1393.76 1337.54 1390.16 1340.31C1382.98 1345.88 1375.08 1350.82 1366.73 1354.45C1362.5 1356.29 1358.06 1357.66 1353.53 1358.52C1350.11 1359.2 1345.63 1359.12 1342.46 1358.31C1335.07 1356.45 1331.92 1367.86 1339.31 1369.72C1358.02 1374.45 1378.27 1363.42 1392.95 1352.86C1400.83 1347.19 1408.36 1340.83 1414.68 1333.43C1422.26 1324.54 1427.8 1314.26 1431.93 1303.37C1436.81 1290.48 1439.48 1276.88 1441.4 1263.28C1441.84 1260.11 1440.63 1256.92 1437.27 1256C1434.5 1255.23 1430.43 1256.94 1429.99 1260.13L1430.01 1260.15Z" fill="#1C1C1C"/>
<path d="M1412 1322.77C1409.55 1332.19 1407.11 1341.6 1404.65 1351.03C1403.49 1355.47 1401.23 1360.71 1401.76 1365.34C1402.28 1369.86 1405.66 1372.93 1409.91 1374.12C1414.1 1375.29 1418.86 1375.18 1423.18 1375.54C1428.03 1375.95 1432.89 1376.35 1437.73 1376.75C1447.14 1377.54 1456.57 1378.48 1466.02 1378.44C1474.57 1378.43 1483.58 1377.75 1491.75 1375.03C1497.99 1372.93 1503.75 1369.72 1508.98 1365.75C1520.26 1357.14 1529.11 1345.69 1536.24 1333.49C1544.27 1319.78 1550.4 1304.77 1554.47 1289.4C1556.43 1282.03 1545.02 1278.88 1543.06 1286.25C1536.82 1309.75 1525.73 1334.01 1508 1351.07C1499.51 1359.23 1489.96 1364.34 1478.32 1365.9C1461.13 1368.17 1443.26 1365.36 1426.1 1363.94C1422.11 1363.61 1417.48 1363.63 1413.81 1362.88C1413.58 1362.85 1412.31 1362.63 1412.47 1362.48C1413.08 1362.88 1413.43 1363.46 1413.48 1364.19C1413.66 1363.5 1413.83 1362.79 1414.02 1362.1C1414.6 1359.83 1415.19 1357.58 1415.79 1355.32C1418.34 1345.52 1420.9 1335.72 1423.43 1325.94C1425.36 1318.57 1413.94 1315.41 1412.02 1322.79L1412 1322.77Z" fill="#1C1C1C"/>
<path d="M617.089 1331.21C617.262 1329.59 616.82 1332.45 617.127 1330.9C617.224 1330.44 617.3 1329.98 617.415 1329.51C617.588 1328.77 617.8 1328.02 618.05 1327.29C618.203 1326.84 618.357 1326.42 618.53 1326C618.453 1326.19 617.992 1327.11 618.491 1326.15C618.933 1325.27 619.394 1324.39 619.932 1323.54C620.143 1323.19 621.642 1321.16 620.758 1322.27C621.258 1321.66 621.776 1321.06 622.314 1320.47C622.871 1319.87 623.447 1319.31 624.024 1318.76C624.389 1318.41 624.754 1318.08 625.138 1317.78C625.273 1317.66 626.637 1316.57 626.099 1316.97C632.284 1312.19 639.931 1309.23 647.98 1306.94C667.094 1301.53 686.919 1300.41 706.975 1301.14C712.277 1301.33 717.58 1301.7 722.843 1302.27C724.015 1302.41 725.187 1302.54 726.358 1302.7C728.241 1302.93 725.206 1302.52 727.05 1302.79C727.607 1302.87 728.145 1302.95 728.703 1303.04C730.95 1303.39 733.179 1303.77 735.388 1304.23C738.519 1304.87 741.784 1303.33 742.668 1300.1C743.475 1297.18 741.689 1293.46 738.538 1292.82C718.732 1288.81 697.946 1288.31 677.871 1289.96C658.372 1291.57 636.05 1294.88 619.932 1306.9C611.806 1312.96 606.35 1320.99 605.255 1331.19C604.91 1334.38 608.214 1337.1 611.172 1337.1C614.649 1337.1 616.762 1334.38 617.089 1331.19V1331.21Z" fill="#1C1C1C"/>
<path d="M1195.13 1297.41C1233.88 1299.41 1276.59 1295.07 1311.22 1316.05C1321.79 1322.45 1330.74 1330.9 1338.46 1340.5C1340.46 1343 1344.74 1342.6 1346.84 1340.5C1349.3 1338.04 1348.85 1334.63 1346.84 1332.13C1332.72 1314.55 1314.16 1301.66 1292.66 1294.82C1272.97 1288.56 1252.03 1287.27 1231.5 1286.68C1219.38 1286.31 1207.23 1286.2 1195.13 1285.56C1187.52 1285.18 1187.54 1297.01 1195.13 1297.39V1297.41Z" fill="#1C1C1C"/>
<path d="M925.998 739.79C938.005 768.375 957.196 792.965 982.035 811.522C984.59 813.443 988.644 811.945 990.142 809.39C991.909 806.374 990.584 803.204 988.01 801.283C965.918 784.762 948.11 762.074 937.428 736.62C936.199 733.681 933.509 731.568 930.148 732.49C927.362 733.258 924.769 736.812 926.018 739.771L925.998 739.79Z" fill="#1C1C1C"/>
<path d="M871.479 1394.81C870 1409.1 872.19 1423.8 875.84 1437.63C879.797 1452.67 885.81 1467.39 893.648 1480.84C897.836 1488.02 902.639 1494.86 908.114 1501.12C910.208 1503.52 914.338 1503.27 916.49 1501.12C918.872 1498.72 918.603 1495.17 916.49 1492.75C904.829 1479.4 896.549 1462.89 890.824 1446.22C885.195 1429.81 881.546 1412.2 883.332 1394.79C883.659 1391.6 880.374 1388.88 877.415 1388.88C873.938 1388.88 871.825 1391.6 871.498 1394.79L871.479 1394.81Z" fill="#1C1C1C"/>
<path d="M1066.52 1409.22C1067.65 1430.56 1065.9 1452.64 1057.41 1472.5C1050.32 1489.08 1038.7 1503.81 1023.01 1512.96C1016.42 1516.78 1022.37 1527.02 1028.98 1523.18C1046.56 1512.96 1059.91 1496.49 1067.88 1477.92C1077.16 1456.29 1079.62 1432.56 1078.37 1409.22C1077.97 1401.63 1066.11 1401.59 1066.54 1409.22H1066.52Z" fill="#1C1C1C"/>
<path d="M1094.62 1312.67C1088.59 1341.62 1081.77 1370.38 1075.1 1399.19C1073.39 1406.61 1084.8 1409.78 1086.51 1402.34C1093.18 1373.53 1100 1344.77 1106.03 1315.82C1106.69 1312.69 1105.11 1309.42 1101.9 1308.54C1098.96 1307.73 1095.28 1309.54 1094.62 1312.67Z" fill="#1C1C1C"/>
<path d="M857.913 1325.81C858.989 1329.07 860.027 1332.38 861.237 1335.6C862.255 1338.31 863.312 1341.1 864.887 1343.52C866.443 1345.9 868.402 1348.07 870.919 1349.46C873.57 1350.92 876.528 1351.53 879.544 1351.61C883.521 1351.72 887.575 1350.9 891.455 1350.01C894.471 1349.32 896.546 1345.69 895.585 1342.73C894.567 1339.58 891.532 1337.85 888.305 1338.6C886.71 1338.97 885.096 1339.31 883.483 1339.56C883.271 1339.6 883.06 1339.62 882.868 1339.66C882.753 1339.68 884.328 1339.48 883.694 1339.54C883.348 1339.58 883.022 1339.62 882.676 1339.66C882.004 1339.72 881.331 1339.77 880.659 1339.77C880.082 1339.77 879.526 1339.77 878.949 1339.75C878.719 1339.75 878.488 1339.72 878.277 1339.7C877.124 1339.62 879.852 1340 878.776 1339.75C878.315 1339.66 877.854 1339.56 877.393 1339.43C877.182 1339.37 876.97 1339.27 876.759 1339.22C876.106 1339.02 878.315 1339.98 877.316 1339.45C876.97 1339.25 876.625 1339.06 876.279 1338.85C875.318 1338.26 876.817 1339.1 876.817 1339.29C876.817 1339.22 876.336 1338.89 876.259 1338.81C875.933 1338.5 875.645 1338.18 875.337 1337.85C874.607 1337.04 875.952 1338.72 875.702 1338.35C875.568 1338.16 875.414 1337.97 875.299 1337.77C874.703 1336.89 874.185 1335.95 873.724 1334.99C873.609 1334.74 873.474 1334.47 873.359 1334.22C873.243 1333.97 872.802 1332.93 873.263 1333.99C873.705 1335.03 873.301 1334.09 873.205 1333.84C873.071 1333.49 872.936 1333.16 872.801 1332.82C871.534 1329.46 870.458 1326.04 869.325 1322.64C868.364 1319.7 865.194 1317.49 862.044 1318.51C859.124 1319.45 856.876 1322.64 857.913 1325.79V1325.81Z" fill="#1C1C1C"/>
<path d="M1044.68 1353.72C1063.6 1360.44 1086.42 1347.92 1091.34 1328.57C1092.11 1325.58 1090.36 1322 1087.21 1321.29C1084.14 1320.6 1080.74 1322.22 1079.93 1325.42C1079.68 1326.42 1079.35 1327.38 1079.03 1328.34C1078.62 1329.53 1079.45 1327.57 1078.83 1328.8C1078.64 1329.19 1078.47 1329.57 1078.28 1329.94C1077.85 1330.76 1077.37 1331.55 1076.88 1332.34C1076.61 1332.76 1076.3 1333.17 1076.01 1333.59C1076.76 1332.55 1075.78 1333.86 1075.68 1333.97C1074.42 1335.47 1072.99 1336.8 1071.52 1338.06C1071 1338.51 1072.21 1337.6 1071.3 1338.24C1070.88 1338.52 1070.48 1338.83 1070.04 1339.1C1069.17 1339.66 1068.31 1340.2 1067.4 1340.68C1066.94 1340.93 1066.5 1341.16 1066.04 1341.37C1065.91 1341.43 1064.62 1342 1065.35 1341.69C1066 1341.43 1064.56 1341.98 1064.39 1342.04C1063.98 1342.17 1063.58 1342.33 1063.18 1342.44C1062.2 1342.75 1061.22 1343.02 1060.22 1343.23C1059.72 1343.35 1059.22 1343.42 1058.72 1343.52C1057.43 1343.75 1059.7 1343.48 1058.28 1343.56C1056.42 1343.65 1054.59 1343.71 1052.73 1343.56C1051.09 1343.42 1053.92 1343.83 1052.29 1343.5C1051.79 1343.4 1051.29 1343.31 1050.79 1343.19C1049.79 1342.96 1048.81 1342.65 1047.85 1342.31C1044.93 1341.27 1041.24 1343.48 1040.57 1346.44C1039.82 1349.76 1041.57 1352.61 1044.7 1353.72H1044.68Z" fill="#1C1C1C"/>
<path d="M1031.46 1321.72C1037.69 1322.33 1043.93 1322.96 1050.15 1323.58C1051.57 1323.71 1053.36 1322.81 1054.34 1321.85C1055.36 1320.83 1056.15 1319.14 1056.07 1317.66C1055.99 1316.13 1055.49 1314.55 1054.34 1313.47C1053.11 1312.36 1051.81 1311.9 1050.15 1311.75C1043.93 1311.13 1037.69 1310.5 1031.46 1309.88C1030.04 1309.75 1028.25 1310.65 1027.27 1311.61C1026.26 1312.63 1025.47 1314.32 1025.54 1315.8C1025.62 1317.34 1026.12 1318.91 1027.27 1319.99C1028.5 1321.1 1029.81 1321.56 1031.46 1321.72Z" fill="#1C1C1C"/>
<path d="M861.259 1543.54C862.892 1554.78 865.946 1565.75 867.579 1576.99C868.021 1580.06 872.074 1582.02 874.86 1581.12C878.222 1580.02 879.471 1577.12 878.991 1573.83C877.358 1562.6 874.303 1551.63 872.67 1540.39C872.228 1537.32 868.175 1535.36 865.389 1536.26C862.027 1537.35 860.779 1540.25 861.259 1543.54Z" fill="#1C1C1C"/>
<path d="M1068.38 1545.69C1069.5 1557.12 1069.71 1568.44 1069.67 1579.9C1069.67 1582.42 1069.65 1585.19 1070.98 1587.44C1073.13 1591.05 1076.62 1591.01 1080.25 1590.53C1103.83 1587.49 1127.72 1585.3 1151.51 1585.63C1163.24 1585.78 1174.4 1585.98 1185.28 1590.07C1188.27 1591.2 1191.77 1588.82 1192.56 1585.94C1193.48 1582.61 1191.43 1579.79 1188.43 1578.66C1179.26 1575.2 1168.99 1574.45 1159.27 1574.01C1147.22 1573.45 1135.14 1573.85 1123.11 1574.58C1111.7 1575.28 1100.31 1576.33 1088.94 1577.64C1086.61 1577.91 1084.31 1578.18 1081.98 1578.48C1081.16 1578.58 1077.49 1578.54 1077.08 1579.1C1077.51 1578.52 1080.12 1580.17 1080.39 1580.46C1080.73 1580.83 1081.66 1582.67 1081.52 1582.27C1081.12 1580.96 1081.48 1583.5 1081.56 1582.73C1081.62 1582.15 1081.5 1581.48 1081.48 1580.9C1081.33 1569.11 1081.35 1557.49 1080.2 1545.73C1079.89 1542.54 1077.7 1539.81 1074.28 1539.81C1071.32 1539.81 1068.04 1542.54 1068.36 1545.73L1068.38 1545.69Z" fill="#1C1C1C"/>
<path d="M909.491 1669.54C908.934 1684.99 907.262 1700.41 906.09 1715.82C904.592 1735.38 903.132 1754.99 902.979 1774.62C902.921 1782.69 902.979 1790.93 904.477 1798.89C905.073 1802.04 908.857 1803.82 911.758 1803.02C915.062 1802.11 916.484 1798.89 915.888 1795.74C915.773 1795.14 915.676 1794.54 915.58 1793.95C915.35 1792.59 915.715 1795.37 915.58 1793.95C915.561 1793.68 915.523 1793.39 915.485 1793.12C915.293 1791.45 915.177 1789.76 915.081 1788.09C914.87 1784.42 914.812 1780.73 914.812 1777.06C914.812 1767.77 915.196 1758.49 915.696 1749.21C916.733 1729.75 918.366 1710.34 919.903 1690.92C920.46 1683.8 921.094 1676.67 921.344 1669.52C921.613 1661.9 909.779 1661.91 909.51 1669.52L909.491 1669.54Z" fill="#1C1C1C"/>
<path d="M768.683 1690.64C774.831 1729.65 783.821 1769 800.496 1805C801.841 1807.9 806.029 1808.63 808.603 1807.13C811.581 1805.38 812.08 1801.94 810.736 1799.02C794.522 1764.06 786.069 1725.39 780.114 1687.48C779.614 1684.31 775.657 1682.57 772.833 1683.35C769.471 1684.28 768.203 1687.47 768.703 1690.64H768.683Z" fill="#1C1C1C"/>
<path d="M801.295 1805.4C800.584 1812.01 809.229 1814.68 814.09 1815.87C822.523 1817.94 831.321 1818.75 839.947 1819.4C859.062 1820.84 879.175 1821.4 898.097 1817.81C904.648 1816.56 913.888 1814.06 914.273 1805.98C914.638 1798.35 902.804 1798.37 902.439 1805.98C902.458 1805.42 902.689 1804.61 902.938 1804.15C902.266 1805.38 903.956 1803 903.15 1803.88C902.17 1804.96 904.36 1803.38 903.246 1803.82C902.804 1804 902.189 1804.34 901.786 1804.61C900.94 1805.19 903.226 1804.17 902.208 1804.44C901.978 1804.5 901.767 1804.61 901.536 1804.69C900.998 1804.86 900.46 1805.05 899.903 1805.23C898.405 1805.67 896.868 1806.01 895.331 1806.32C894.524 1806.47 893.717 1806.63 892.911 1806.74C892.469 1806.82 889.779 1807.2 891.451 1806.97C889.568 1807.22 887.666 1807.42 885.764 1807.59C881.518 1807.97 877.254 1808.18 873.008 1808.32C863.576 1808.61 854.124 1808.43 844.711 1807.88C840.37 1807.63 836.028 1807.28 831.706 1806.82C830.707 1806.71 829.708 1806.59 828.709 1806.47C828.228 1806.42 827.748 1806.36 827.268 1806.28C828.805 1806.47 827.23 1806.28 826.961 1806.24C825.212 1805.99 823.484 1805.73 821.735 1805.4C818.681 1804.84 815.761 1804.04 812.802 1803.11C812.245 1802.94 811.823 1802.42 813.283 1803.32C813.09 1803.21 812.591 1803.13 812.457 1802.94C812.38 1802.82 810.132 1800.96 812.38 1803.06C811.381 1802.13 812.341 1803.09 812.534 1803.4C812.572 1803.48 813.052 1806.07 813.129 1805.4C813.475 1802.21 810.171 1799.48 807.212 1799.48C803.716 1799.48 801.641 1802.21 801.295 1805.4Z" fill="#1C1C1C"/>
<path d="M834.017 1796.39C855.014 1786.46 880.91 1788.63 901.023 1799.75C907.689 1803.44 913.683 1793.22 906.997 1789.53C882.946 1776.24 853.074 1774.34 828.042 1786.17C825.161 1787.53 824.411 1791.68 825.91 1794.28C827.639 1797.23 831.116 1797.77 834.017 1796.41V1796.39Z" fill="#1C1C1C"/>
<path d="M1002.78 1671.71C1002.24 1685.93 1003.65 1700.26 1004.7 1714.44C1005.93 1731.09 1007.32 1747.75 1007.55 1764.46C1007.6 1768.32 1007.59 1772.2 1007.43 1776.06C1007.35 1777.87 1007.26 1779.68 1007.11 1781.46C1007.05 1782.19 1006.97 1782.94 1006.89 1783.67C1006.86 1784.02 1006.82 1784.38 1006.76 1784.73C1006.89 1783.67 1006.76 1784.71 1006.68 1785.17C1006.18 1788.32 1007.49 1791.53 1010.81 1792.45C1013.62 1793.22 1017.59 1791.49 1018.09 1788.32C1020.36 1773.8 1019.44 1758.85 1018.59 1744.23C1017.63 1727.4 1016.1 1710.61 1015.14 1693.79C1014.71 1686.45 1014.35 1679.07 1014.62 1671.71C1014.9 1664.09 1003.05 1664.11 1002.78 1671.71Z" fill="#1C1C1C"/>
<path d="M1013.01 1795.37C1013.67 1794.87 1014.38 1794.47 1015.09 1794.08C1015.78 1793.72 1016.18 1793.62 1015.2 1793.99C1015.78 1793.78 1016.36 1793.57 1016.93 1793.37C1019.3 1792.6 1021.76 1792.12 1024.19 1791.72C1024.56 1791.66 1024.91 1791.61 1025.27 1791.57C1025.02 1791.61 1024.16 1791.7 1025.35 1791.57C1026.02 1791.49 1026.67 1791.41 1027.35 1791.34C1028.96 1791.18 1030.55 1791.05 1032.17 1790.95C1035.53 1790.76 1038.91 1790.68 1042.27 1790.7C1056.14 1790.8 1069.05 1791.95 1082.31 1795.41C1085.13 1796.14 1087.94 1797 1090.64 1798.1C1089.22 1797.52 1091.12 1798.33 1091.41 1798.48C1091.95 1798.75 1092.47 1799.02 1092.99 1799.31C1093.41 1799.56 1093.79 1799.83 1094.22 1800.08C1095.58 1800.9 1093.43 1799.35 1094.54 1800.35C1100.19 1805.44 1108.59 1797.08 1102.92 1791.97C1098.92 1788.38 1093.72 1786.4 1088.65 1784.86C1082.15 1782.9 1075.41 1781.71 1068.69 1780.79C1054.05 1778.79 1038.93 1777.91 1024.21 1779.83C1018.47 1780.58 1011.77 1781.54 1007 1785.13C1004.45 1787.05 1003.12 1790.24 1004.87 1793.24C1006.33 1795.76 1010.4 1797.29 1012.98 1795.37H1013.01Z" fill="#1C1C1C"/>
<path d="M1006.08 1791.97C998.091 1808.65 1024.89 1814.04 1035.65 1815.73C1056.51 1819.04 1078.37 1819.35 1099.23 1815.85C1107.74 1814.43 1117.31 1812.22 1123.84 1806.21C1129.47 1801.04 1121.08 1792.68 1115.47 1797.83C1115.26 1798.02 1114.99 1798.21 1114.8 1798.41C1114.05 1799.21 1116.01 1797.72 1115.01 1798.23C1114.43 1798.52 1113.89 1798.98 1113.32 1799.31C1112.68 1799.67 1112.05 1799.98 1111.4 1800.31C1111.05 1800.48 1110.7 1800.63 1110.36 1800.79C1111.18 1800.42 1111.05 1800.52 1110.3 1800.79C1106.82 1802.04 1103.29 1803.02 1099.68 1803.77C1094.7 1804.78 1092.38 1805.05 1087.71 1805.51C1082.92 1805.98 1078.12 1806.23 1073.32 1806.34C1063.6 1806.55 1053.84 1806.17 1044.18 1805.05C1041.45 1804.75 1041.41 1804.75 1038.53 1804.29C1036.47 1803.96 1034.42 1803.57 1032.36 1803.15C1028.83 1802.4 1025.37 1801.46 1021.97 1800.23C1021.6 1800.1 1021.24 1799.94 1020.89 1799.81C1022.57 1800.46 1020.97 1799.85 1020.63 1799.67C1020.01 1799.37 1019.41 1799.08 1018.82 1798.75C1018.2 1798.41 1017.63 1797.95 1017.01 1797.62C1016.11 1797.12 1017.94 1798.66 1017.34 1797.87C1017.17 1797.64 1016.82 1797.37 1016.59 1797.16C1015.3 1796.08 1017.13 1798.12 1016.49 1797.08C1015.65 1795.7 1016.73 1798.48 1016.42 1796.95C1016.23 1796.01 1016.57 1798.68 1016.49 1797.71C1016.48 1797.45 1016.49 1797.18 1016.49 1796.89C1016.38 1798.77 1016.3 1798.2 1016.46 1797.62C1016.8 1796.31 1015.86 1798.83 1016.28 1797.95C1017.67 1795.06 1017.07 1791.55 1014.15 1789.84C1011.56 1788.32 1007.43 1789.07 1006.04 1791.97H1006.08Z" fill="#1C1C1C"/>
<path d="M1143.81 1684.72C1141.35 1723.27 1131.92 1761.27 1117.11 1796.91C1115.88 1799.87 1118.43 1803.42 1121.24 1804.19C1124.64 1805.13 1127.29 1803.02 1128.52 1800.06C1143.75 1763.42 1153.11 1724.35 1155.64 1684.72C1155.85 1681.53 1152.78 1678.8 1149.73 1678.8C1146.34 1678.8 1144 1681.51 1143.81 1684.72Z" fill="#1C1C1C"/>
<path d="M738.731 1512.61C737.252 1528.5 734.389 1544.17 732.622 1560.02C731.757 1567.8 731.219 1575.62 731.181 1583.46C731.162 1586.88 730.778 1590.39 732.679 1593.41C734.12 1595.72 736.176 1597.68 738.039 1599.63C740.172 1601.88 742.592 1603.63 745.897 1602.63C747.011 1602.29 747.933 1601.73 748.74 1600.9C748.106 1601.57 750.161 1599.04 750.123 1599.04C750.008 1599.04 748.163 1599.86 749.335 1600.08C750.2 1600.23 751.679 1599.67 752.563 1599.52C759.959 1598.25 767.355 1597.04 774.77 1595.87C790.715 1593.37 806.698 1591.07 822.7 1589.03C839.913 1586.84 857.164 1584.92 874.453 1583.48C877.642 1583.21 880.37 1580.94 880.37 1577.56C880.37 1574.56 877.662 1571.38 874.453 1571.64C837.877 1574.68 801.415 1579.66 765.165 1585.48C760.362 1586.24 755.579 1587.03 750.795 1587.86C748.452 1588.26 745.762 1588.36 743.629 1589.51C742.688 1590.01 741.824 1590.68 741.094 1591.45C740.71 1591.87 740.383 1592.39 740.018 1592.85C739.691 1593.28 739.038 1593.76 740.114 1592.72C740.979 1592.22 741.862 1591.7 742.727 1591.2C742.65 1591.24 742.573 1591.26 742.477 1591.3H745.627C747.894 1591.76 747.299 1592.51 746.703 1591.59C746.454 1591.2 745.954 1590.8 745.647 1590.49C744.821 1589.63 744.014 1588.76 743.245 1587.88C742.784 1587.36 742.381 1587.4 742.88 1587.46C742.035 1587.36 743.13 1587.11 743.034 1587.94C743.303 1585.78 742.996 1583.46 743.034 1581.29C743.149 1573.7 743.745 1566.13 744.609 1558.58C746.396 1543.23 749.124 1528.02 750.545 1512.61C750.834 1509.42 747.606 1506.69 744.628 1506.69C741.19 1506.69 739 1509.42 738.712 1512.61H738.731Z" fill="#1C1C1C"/>
<path d="M851.213 1322.85C851.77 1346.9 855.382 1370.88 862.01 1394C864.104 1401.32 875.534 1398.21 873.421 1390.85C867.081 1368.69 863.585 1345.9 863.047 1322.85C862.874 1315.24 851.021 1315.22 851.213 1322.85Z" fill="#1C1C1C"/>
<path d="M1173.75 1522.43C1179.23 1541.66 1183.8 1561.31 1183.88 1581.4C1183.91 1589.03 1195.75 1589.03 1195.71 1581.4C1195.63 1560.29 1190.91 1539.51 1185.16 1519.28C1183.09 1511.96 1171.66 1515.07 1173.75 1522.43Z" fill="#1C1C1C"/>
<path d="M765.11 1696.94C817.075 1685.54 870.057 1678.8 923.136 1675.44C977.925 1671.96 1033.21 1671.98 1087.83 1677.94C1114.74 1680.88 1141.56 1685.41 1167.69 1692.59C1175.04 1694.61 1178.18 1683.2 1170.84 1681.18C1121.22 1667.52 1069.12 1662.84 1017.82 1661.61C961.769 1660.26 905.539 1663.47 849.944 1670.56C820.436 1674.33 791.063 1679.15 761.998 1685.53C754.563 1687.16 757.714 1698.57 765.149 1696.94H765.11Z" fill="#1C1C1C"/>
<path d="M745.649 1602.23C744.304 1632.54 748.972 1663.49 756.176 1692.88C757.982 1700.28 769.412 1697.15 767.587 1689.73C760.633 1661.3 756.196 1631.56 757.483 1602.23C757.828 1594.6 745.975 1594.62 745.649 1602.23Z" fill="#1C1C1C"/>
<path d="M1170.14 1587.07C1173.14 1618.44 1172.19 1650.66 1166.97 1681.76C1166.43 1684.91 1167.8 1688.14 1171.1 1689.04C1173.94 1689.83 1177.84 1688.08 1178.38 1684.91C1183.8 1652.73 1185.07 1619.58 1181.97 1587.09C1181.67 1583.9 1179.48 1581.17 1176.06 1581.17C1173.1 1581.17 1169.83 1583.9 1170.14 1587.09V1587.07Z" fill="#1C1C1C"/>
<path d="M919.558 1693.65C947.182 1695.3 974.711 1695.63 1002.34 1693.69C1005.53 1693.46 1008.25 1691.13 1008.25 1687.77C1008.25 1684.74 1005.54 1681.63 1002.34 1681.86C974.731 1683.8 947.182 1683.47 919.558 1681.82C911.95 1681.36 911.97 1693.21 919.558 1693.65Z" fill="#1C1C1C"/>
<path d="M921.361 1687.04C948.026 1682.76 974.997 1680.55 1002.01 1680.32C1001.01 1676.65 1000.01 1672.96 999.011 1669.29C990.654 1675.21 979.301 1674.25 969.599 1673.79C957.631 1673.21 945.74 1671.62 933.887 1669.98C930.717 1669.54 927.528 1670.75 926.606 1674.11C925.837 1676.88 927.547 1680.95 930.736 1681.39C944.03 1683.22 957.343 1685.1 970.752 1685.66C982.201 1686.14 995.207 1686.43 1004.98 1679.49C1009.54 1676.27 1008.27 1668.41 1001.99 1668.47C973.902 1668.72 945.913 1671.16 918.192 1675.61C915.041 1676.11 913.274 1680.05 914.062 1682.89C914.984 1686.26 918.172 1687.54 921.342 1687.02L921.361 1687.04Z" fill="#1C1C1C"/>
<path d="M1157.46 1696.34C1158.79 1695.94 1160.15 1695.63 1161.52 1695.44C1161 1695.51 1160.46 1695.57 1159.94 1695.65C1162.13 1695.36 1164.34 1695.36 1166.53 1695.65L1164.95 1695.44C1165.84 1695.55 1166.72 1695.73 1167.61 1695.94C1169.12 1696.3 1170.79 1696.15 1172.16 1695.34C1173.39 1694.63 1174.56 1693.21 1174.89 1691.81C1175.23 1690.29 1175.16 1688.6 1174.29 1687.23C1173.47 1685.97 1172.27 1684.87 1170.76 1684.51C1165.36 1683.22 1159.63 1683.3 1154.31 1684.93C1152.85 1685.37 1151.55 1686.33 1150.78 1687.66C1150.03 1688.93 1149.72 1690.79 1150.18 1692.21C1150.64 1693.65 1151.53 1695.03 1152.91 1695.74C1154.29 1696.47 1155.93 1696.82 1157.46 1696.34Z" fill="#1C1C1C"/>
<path d="M758.81 1697.42C762.019 1699.8 765.553 1701.57 769.261 1703.03C770.048 1703.28 770.836 1703.31 771.624 1703.12C772.411 1703.08 773.142 1702.85 773.833 1702.41C775.063 1701.7 776.234 1700.28 776.561 1698.88C776.907 1697.36 776.83 1695.67 775.965 1694.32C775.658 1693.92 775.351 1693.52 775.043 1693.13C774.313 1692.4 773.429 1691.88 772.43 1691.62C772.085 1691.48 771.72 1691.33 771.374 1691.19C771.854 1691.38 772.315 1691.6 772.796 1691.79C769.953 1690.58 767.282 1689.04 764.804 1687.22C764.131 1686.77 763.382 1686.54 762.595 1686.5C761.807 1686.33 761.02 1686.37 760.232 1686.62C758.868 1687 757.369 1688.06 756.697 1689.35C755.967 1690.73 755.602 1692.38 756.101 1693.9C756.293 1694.38 756.505 1694.84 756.697 1695.32C757.216 1696.21 757.927 1696.92 758.83 1697.45L758.81 1697.42Z" fill="#1C1C1C"/>
<path d="M998.496 1491.9C983.608 1513.72 969.988 1537.12 949.759 1554.6C947.338 1556.7 947.607 1560.83 949.759 1562.98C952.16 1565.38 955.714 1565.07 958.135 1562.98C979.074 1544.88 993.29 1520.51 1008.72 1497.88C1013.02 1491.56 1002.76 1485.64 998.496 1491.9Z" fill="#1C1C1C"/>
<path d="M1080.72 1337.14C1078.83 1356.81 1068.46 1374.76 1059.51 1391.93C1055.99 1398.67 1066.21 1404.67 1069.73 1397.9C1079.75 1378.66 1090.44 1359.1 1092.55 1337.12C1092.86 1333.93 1089.61 1331.21 1086.63 1331.21C1083.17 1331.21 1081.02 1333.93 1080.72 1337.12V1337.14Z" fill="#1C1C1C"/>
<path d="M874.334 1562.21C895.389 1563.31 916.444 1564.38 937.518 1565.48C941.898 1565.71 946.893 1565.34 951.023 1566.4C951.638 1566.55 952.31 1566.77 952.329 1566.8C952.809 1568.13 951.657 1570.86 951.33 1572.09C949.332 1580.02 946.374 1587.63 942.34 1594.76C934.348 1608.91 922.341 1620.98 907.223 1627.34C892.219 1633.66 873.969 1634.66 858.985 1627.68C843.117 1620.29 831.783 1605.65 828.286 1588.55C827.652 1585.42 823.945 1583.61 821.006 1584.42C817.74 1585.32 816.222 1588.57 816.875 1591.7C820.583 1609.84 832.359 1626.15 848.342 1635.48C865.536 1645.51 886.994 1646.66 905.724 1640.48C924.397 1634.31 939.765 1621.25 950.196 1604.71C955.326 1596.58 959.264 1587.59 961.896 1578.37C963.221 1573.78 965.046 1568.32 963.721 1563.56C962.357 1558.6 957.861 1555.66 953.04 1554.74C947.046 1553.59 940.668 1553.78 934.579 1553.47C927.951 1553.13 921.323 1552.78 914.695 1552.43C901.248 1551.74 887.781 1551.05 874.334 1550.34C866.727 1549.96 866.746 1561.79 874.334 1562.17V1562.21Z" fill="#1C1C1C"/>
<path d="M790.643 1448.45C798.48 1440.61 806.299 1432.79 814.137 1424.95C816.327 1422.76 816.5 1418.75 814.137 1416.58C811.774 1414.41 808.105 1414.23 805.761 1416.58C797.923 1424.42 790.104 1432.23 782.267 1440.07C780.077 1442.26 779.904 1446.28 782.267 1448.45C784.629 1450.62 788.299 1450.79 790.643 1448.45Z" fill="#1C1C1C"/>
<path d="M784.876 1423.55H802.108C805.201 1423.55 808.178 1420.82 808.024 1417.63C807.89 1414.43 805.431 1411.72 802.108 1411.72H784.876C781.783 1411.72 778.805 1414.45 778.959 1417.63C779.093 1420.84 781.552 1423.55 784.876 1423.55Z" fill="#1C1C1C"/>
<path d="M1120.18 1422.82C1121.46 1423.7 1122.73 1424.63 1124 1425.59C1125.27 1426.55 1123.06 1424.82 1124.29 1425.82C1124.54 1426.01 1124.79 1426.2 1125.02 1426.41C1125.63 1426.91 1126.23 1427.41 1126.82 1427.91C1129.28 1429.99 1131.63 1432.2 1133.85 1434.52C1136.04 1436.79 1138.1 1439.15 1140.06 1441.59C1140.23 1441.8 1140.94 1442.7 1140.16 1441.69C1140.4 1441.99 1140.64 1442.32 1140.87 1442.63C1141.33 1443.26 1141.81 1443.89 1142.25 1444.53C1143.21 1445.87 1144.11 1447.24 1145.02 1448.64C1146.69 1451.25 1150.36 1452.54 1153.12 1450.77C1155.73 1449.1 1157.04 1445.47 1155.25 1442.66C1147.65 1430.77 1137.77 1420.63 1126.15 1412.62C1123.6 1410.85 1119.47 1412.06 1118.04 1414.75C1116.45 1417.77 1117.45 1420.98 1120.18 1422.86V1422.82Z" fill="#1C1C1C"/>
<path d="M1127.9 1417.08L1140.43 1420.21C1141.94 1420.59 1143.63 1420.4 1144.98 1419.61C1146.21 1418.9 1147.38 1417.48 1147.71 1416.08C1148.05 1414.56 1147.98 1412.87 1147.11 1411.53C1146.28 1410.24 1145.09 1409.18 1143.58 1408.8C1139.41 1407.76 1135.22 1406.7 1131.05 1405.67C1129.53 1405.28 1127.84 1405.47 1126.5 1406.26C1125.27 1406.97 1124.1 1408.39 1123.77 1409.8C1123.42 1411.31 1123.5 1413 1124.37 1414.37C1125.19 1415.66 1126.38 1416.71 1127.9 1417.1V1417.08Z" fill="#1C1C1C"/>
<path d="M792.843 1746.19C830.88 1734.11 870.934 1729.9 910.661 1733.76C913.85 1734.07 916.578 1730.82 916.578 1727.85C916.578 1724.39 913.85 1722.24 910.661 1721.93C870.012 1717.97 828.613 1722.39 789.693 1734.78C782.45 1737.09 785.543 1748.52 792.843 1746.19Z" fill="#1C1C1C"/>
<path d="M1021.09 1733.51C1057.88 1732.32 1094.57 1737.16 1129.8 1747.82C1137.1 1750.03 1140.24 1738.6 1132.95 1736.41C1096.8 1725.46 1058.86 1720.45 1021.09 1721.68C1013.48 1721.93 1013.47 1733.76 1021.09 1733.51Z" fill="#1C1C1C"/>
<path d="M641.527 601.781C641.911 627.273 642.295 652.862 645.753 678.162C648.846 700.811 654.437 723.288 664.33 743.958C669.69 755.177 676.298 765.781 684.251 775.348C685.001 776.251 686.537 775.214 685.788 774.311C671.496 757.271 661.698 736.985 655.301 715.776C648.308 692.589 645.446 668.422 644.121 644.313C643.352 630.116 643.102 615.901 642.852 601.685C642.852 600.82 641.508 600.916 641.508 601.781H641.527Z" fill="#1C1C1C"/>
<path d="M847.845 512.413C846.462 532.661 845.06 552.929 844.234 573.196C843.389 593.444 843.158 613.73 844.138 633.978C845.06 652.804 847.039 671.573 850.593 690.092C853.955 707.554 858.604 724.786 864.924 741.403C871.225 757.963 879.139 774.157 889.186 788.777C890.454 790.621 891.742 792.427 893.048 794.232C894.489 796.192 897.582 794.117 896.179 792.1C886.151 777.596 877.737 762.093 870.994 745.783C864.27 729.512 859.199 712.587 855.472 695.394C851.573 677.413 849.19 659.105 847.845 640.759C846.366 620.665 846.174 600.494 846.635 580.342C847.096 560.248 848.268 540.211 849.536 520.155C849.69 517.62 849.863 515.065 850.016 512.529C850.093 511.319 847.941 511.165 847.865 512.394L847.845 512.413Z" fill="#1C1C1C"/>
<path d="M1226.3 524.266C1236.21 554.811 1246.22 585.509 1252.04 617.149C1257.46 646.579 1259.16 676.951 1253.79 706.536C1250.85 722.673 1245.91 738.387 1238.57 753.102C1237.46 755.35 1240.9 757.04 1242.05 754.831C1255.9 728.397 1261.09 698.352 1260.87 668.729C1260.64 637.089 1254.04 605.892 1245.31 575.616C1240.26 558.076 1234.44 540.768 1228.64 523.459C1228.12 521.941 1225.78 522.768 1226.28 524.285L1226.3 524.266Z" fill="#1C1C1C"/>
<path d="M592.31 1219.73C597.362 1242.38 604.354 1264.56 613.23 1286C615.727 1292.02 618.417 1297.89 621.413 1303.68C622.067 1304.93 624.179 1303.85 623.622 1302.56C619.089 1291.96 614.459 1281.37 610.425 1270.56C606.429 1259.82 602.894 1248.91 599.821 1237.88C598.073 1231.56 596.478 1225.2 595.037 1218.79C594.634 1216.96 591.887 1217.94 592.29 1219.75L592.31 1219.73Z" fill="#1C1C1C"/>
<path d="M621.141 1261.59C625.482 1271.19 629.786 1280.82 634.32 1290.33C634.857 1291.46 636.702 1290.86 636.202 1289.67C632.053 1279.99 627.653 1270.42 623.293 1260.84C622.697 1259.53 620.545 1260.26 621.16 1261.59H621.141Z" fill="#1C1C1C"/>
<path d="M316.083 756.156C305.248 791.658 295.489 827.485 286.921 863.601C278.353 899.717 270.957 936.083 264.809 972.698C258.643 1009.47 253.648 1046.43 249.96 1083.52C246.386 1119.47 244.485 1156.41 253.61 1191.72C260.948 1220.07 275.817 1247.79 299.139 1266.12C301.982 1268.35 304.941 1270.4 307.976 1272.34C310.243 1273.78 312.029 1270.06 309.82 1268.62C284.885 1252.38 268.46 1226.03 259.757 1198C249.115 1163.77 250.037 1127.05 253.091 1091.73C256.223 1055.4 260.891 1019.15 266.539 983.129C272.186 947.129 278.949 911.282 286.864 875.704C294.759 840.126 303.807 804.798 314.046 769.834C315.353 765.397 316.659 760.978 317.985 756.56C318.35 755.369 316.448 754.985 316.083 756.176V756.156Z" fill="#1C1C1C"/>
<path d="M1548.95 765.071C1557.79 802.186 1566.61 839.32 1574.2 876.723C1581.73 913.837 1588.03 951.221 1591.99 988.874C1595.69 1024.34 1597.23 1060.05 1595.54 1095.68C1593.93 1129.71 1589.45 1163.67 1581.34 1196.77C1573.27 1229.74 1561.33 1261.47 1545.75 1291.63C1543.81 1295.38 1541.81 1299.09 1539.75 1302.76C1538.22 1305.5 1542.52 1307.58 1544.11 1304.91C1561.5 1275.61 1574.18 1243.76 1583.23 1210.97C1592.39 1177.75 1597.73 1143.54 1599.94 1109.19C1602.22 1073.84 1601.28 1038.38 1598 1003.11C1594.44 965.034 1588.2 927.266 1580.61 889.805C1573.01 852.287 1564.03 815.057 1554.95 777.865C1553.83 773.274 1552.7 768.702 1551.59 764.11C1551.16 762.381 1548.55 763.304 1548.97 765.033L1548.95 765.071Z" fill="#1C1C1C"/>
<path d="M1504.1 1224.7C1506.56 1243.97 1506.06 1263.53 1502.68 1282.64C1499.3 1301.79 1493.05 1320.24 1484.37 1337.64C1479.51 1347.38 1473.84 1356.7 1467.39 1365.48C1465.83 1367.59 1468.91 1370.32 1470.5 1368.19C1482.37 1352.24 1491.71 1334.61 1498.18 1315.82C1504.64 1297.13 1508.33 1277.59 1509.15 1257.82C1509.61 1246.68 1509.11 1235.52 1507.65 1224.47C1507.35 1222.2 1503.81 1222.44 1504.1 1224.72V1224.7Z" fill="#1C1C1C"/>
<path d="M1345.61 1208.89C1345.15 1241.49 1343.06 1273.96 1340.06 1306.42C1339.22 1315.61 1338.26 1324.77 1337.2 1333.93C1336.91 1336.37 1340.66 1337.16 1340.96 1334.7C1345.08 1302.03 1347.48 1269.19 1348.55 1236.29C1348.86 1227.08 1349.03 1217.86 1349.13 1208.66C1349.15 1206.39 1345.65 1206.66 1345.61 1208.91V1208.89Z" fill="#1C1C1C"/>
<path d="M1245.99 720.656C1254.13 734.218 1263.16 747.224 1273 759.615C1282.8 771.948 1293.32 783.705 1304.56 794.751C1315.78 805.778 1327.71 816.113 1340.22 825.641C1352.78 835.208 1366 843.93 1379.67 851.768C1393.39 859.644 1407.59 866.694 1422.32 872.477C1424.15 873.187 1425.97 873.898 1427.82 874.571C1429.41 875.166 1430.62 872.822 1429.01 872.169C1414.54 866.214 1400.33 859.548 1386.61 852.017C1372.85 844.468 1359.62 836.015 1346.9 826.852C1334.13 817.65 1321.95 807.641 1310.42 796.902C1298.93 786.183 1288.06 774.772 1278.05 762.65C1268.08 750.586 1258.88 737.868 1250.52 724.632C1249.48 722.98 1248.45 721.309 1247.43 719.637C1246.83 718.638 1245.33 719.657 1245.93 720.656H1245.99Z" fill="#1C1C1C"/>
<path d="M1307.88 596.979C1334.12 597.709 1360.94 594.654 1386.01 586.701C1406.07 580.342 1425.55 570.468 1440.42 555.33C1448.46 547.127 1455.05 537.272 1458.67 526.322C1459.24 524.555 1456.3 523.575 1455.59 525.266C1451.69 534.544 1446.39 542.939 1439.53 550.335C1432.63 557.731 1424.47 563.86 1415.83 569.047C1396.65 580.554 1374.77 586.932 1352.85 590.658C1337.93 593.194 1322.83 594.308 1307.69 594.02C1305.79 593.982 1306.02 596.921 1307.9 596.979H1307.88Z" fill="#1C1C1C"/>
<path d="M1001.96 503.289C1008.53 522.499 1014.58 541.863 1020.13 561.401C1025.68 580.918 1030.71 600.59 1035.27 620.377C1039.82 640.241 1043.89 660.239 1047.45 680.314C1051 700.293 1054.02 720.368 1056.63 740.501C1059.24 760.633 1061.26 780.823 1063.1 801.052C1063.33 803.569 1063.58 806.085 1063.93 808.583C1064.18 810.389 1066.75 810.197 1066.75 808.391C1066.75 798.228 1065.72 787.989 1064.89 777.865C1064.06 767.703 1062.99 757.56 1061.83 747.436C1059.53 727.169 1056.61 706.997 1053.13 686.903C1049.66 666.809 1045.68 646.811 1041.13 626.928C1036.59 607.064 1031.54 587.296 1025.97 567.682C1020.4 548.068 1014.33 528.589 1007.78 509.302C1006.97 506.919 1006.14 504.518 1005.32 502.136C1004.57 499.965 1001.21 501.137 1001.96 503.327V503.289Z" fill="#1C1C1C"/>
<path d="M1000.2 602.396C1009.19 629.041 1016.51 656.243 1022.1 683.81C1027.64 711.089 1031.58 738.752 1033.88 766.492C1035.21 782.245 1035.99 798.055 1036.49 813.846C1036.55 815.729 1039.39 815.498 1039.39 813.635C1039.39 785.492 1037.03 757.348 1033.15 729.473C1029.27 701.676 1023.45 674.09 1016.11 647.003C1011.98 631.75 1007.35 616.612 1002.22 601.647C1001.78 600.359 999.782 601.051 1000.22 602.357L1000.2 602.396Z" fill="#1C1C1C"/>
<path d="M1177.92 581.532C1185.89 601.05 1191.21 621.586 1193.73 642.507C1196.25 663.369 1195.98 684.443 1193.14 705.248C1191.52 717.024 1189.03 728.685 1185.74 740.096C1185.18 742.036 1188.2 742.574 1188.78 740.711C1195.15 720.348 1198.53 699.178 1199.05 677.854C1199.59 656.549 1197.29 635.207 1192.29 614.498C1189.49 602.856 1185.78 591.426 1181.23 580.36C1180.38 578.286 1177.06 579.419 1177.9 581.532H1177.92Z" fill="#1C1C1C"/>
<path d="M767.619 517.831C764.891 548.606 763.854 579.554 764.565 610.445C765.257 641.297 767.85 672.111 772.153 702.675C774.574 719.888 777.647 736.966 781.316 753.948C781.701 755.754 784.909 755.12 784.544 753.275C778.531 723.115 773.94 692.647 771.135 662.025C768.33 631.596 767.101 600.974 767.734 570.43C768.099 553.063 769.021 535.716 770.501 518.426C770.654 516.582 767.811 515.987 767.638 517.85L767.619 517.831Z" fill="#1C1C1C"/>
<path d="M749.371 586.201C749.448 607.563 750.408 628.926 752.272 650.211C754.135 671.4 756.883 692.493 760.571 713.433C762.665 725.266 765.047 737.062 767.736 748.78C768.159 750.624 770.945 749.645 770.522 747.8C765.835 727.091 761.993 706.19 758.938 685.174C755.903 664.215 753.732 643.141 752.464 622.01C751.734 610.042 751.312 598.073 751.177 586.086C751.177 584.914 749.371 585.049 749.371 586.22V586.201Z" fill="#1C1C1C"/>
<path d="M422.908 842.297C417.049 889.498 413.264 937.044 412.016 984.609C410.767 1032 411.727 1079.49 415.166 1126.77C417.106 1153.39 419.757 1179.94 423.292 1206.41C423.676 1209.22 428.056 1208.95 427.73 1206.11C422.12 1159.02 418.336 1111.73 416.857 1064.33C415.378 1017.21 416.107 969.971 419.008 922.905C420.66 896.202 423.081 869.538 426.212 842.97C426.462 840.818 423.177 840.146 422.908 842.297Z" fill="#1C1C1C"/>
<path d="M390.443 949.416C388.291 970.47 386.716 991.563 385.66 1012.7C384.603 1033.87 384.123 1055.05 384.18 1076.24C384.219 1088.21 384.526 1100.16 384.968 1112.13C385.064 1114.74 389.118 1114.45 389.022 1111.84C388.33 1090.86 388.138 1069.87 388.445 1048.89C388.752 1027.78 389.617 1006.68 391.058 985.627C391.865 973.794 392.863 961.96 394.016 950.146C394.246 947.821 390.674 947.072 390.424 949.416H390.443Z" fill="#1C1C1C"/>
<path d="M1356.35 746.571C1374.56 772.639 1397.23 795.596 1423.09 814.076C1430.37 819.282 1437.9 824.104 1445.66 828.561C1447.81 829.791 1449.5 826.352 1447.37 825.122C1420.2 809.485 1395.59 789.333 1375.15 765.57C1369.43 758.904 1364.01 751.969 1358.94 744.803C1357.77 743.151 1355.18 744.918 1356.35 746.571Z" fill="#1C1C1C"/>
<path d="M915.448 1037.96C940.576 1038.24 965.722 1038.19 990.85 1038.38C993.674 1038.4 996.517 1038.42 999.341 1038.46C1001.01 1038.46 1004.01 1037.98 1005.33 1039.17C1006.08 1039.84 1006.43 1041.51 1006.76 1042.39C1007.33 1043.95 1007.87 1045.51 1008.37 1047.08C1009.48 1050.58 1010.46 1054.11 1011.27 1057.69C1014.31 1071.15 1015.05 1085.39 1013.11 1099.08C1011.39 1111.34 1007.18 1123.4 998.668 1132.63C991.176 1140.73 981.437 1146.48 970.717 1149.13C949.72 1154.31 927.09 1145.04 914.814 1127.36C896.526 1101.04 907.879 1067.89 917.638 1040.61C918.714 1037.59 916.428 1034.13 913.508 1033.33C910.223 1032.42 907.303 1034.44 906.227 1037.46C896.065 1065.89 885.73 1098.89 901.04 1127.52C912.932 1149.74 938.347 1164.59 963.686 1162.23C991.214 1159.66 1014.29 1140.56 1022.03 1114.07C1026.33 1099.31 1026.91 1083.22 1025.03 1068.02C1024.03 1060.03 1022.43 1052.13 1019.99 1044.45C1017.76 1037.4 1015.52 1029.2 1007.39 1027.2C1003.84 1026.31 999.955 1026.6 996.324 1026.56C992.636 1026.53 988.967 1026.51 985.278 1026.49C977.364 1026.43 969.449 1026.41 961.554 1026.37C946.204 1026.31 930.855 1026.28 915.506 1026.1C907.879 1026.01 907.879 1037.86 915.506 1037.94L915.448 1037.96Z" fill="#1C1C1C"/>
<path d="M989.272 1477.42C1004.45 1489.06 1020.12 1500.07 1036.22 1510.4C1038.91 1512.13 1042.75 1510.96 1044.33 1508.27C1046 1505.41 1044.91 1501.89 1042.2 1500.16C1026.1 1489.83 1010.42 1478.82 995.247 1467.18C992.711 1465.24 988.619 1466.79 987.14 1469.31C985.353 1472.36 986.717 1475.46 989.272 1477.42Z" fill="#1C1C1C"/>
<path d="M1021.43 1499.61C1019.86 1504.75 1019.18 1510.29 1019.59 1515.67C1019.7 1517.26 1020.16 1518.7 1021.32 1519.85C1022.33 1520.87 1024.03 1521.66 1025.5 1521.58C1027.04 1521.51 1028.62 1521.01 1029.69 1519.85C1030.71 1518.74 1031.54 1517.22 1031.42 1515.67C1031.23 1512.96 1031.31 1510.23 1031.65 1507.54L1031.44 1509.11C1031.73 1506.96 1032.21 1504.83 1032.84 1502.76C1033.75 1499.8 1031.77 1496.17 1028.71 1495.48C1025.5 1494.75 1022.41 1496.44 1021.43 1499.61Z" fill="#1C1C1C"/>
<path d="M908.629 1489.5C918.772 1481.74 928.915 1474 939.058 1466.24C940.345 1465.26 941.325 1464.32 941.786 1462.7C942.17 1461.28 941.997 1459.4 941.19 1458.13C939.634 1455.71 935.715 1454 933.084 1456C922.94 1463.76 912.797 1471.5 902.654 1479.26C901.367 1480.24 900.387 1481.18 899.926 1482.8C899.542 1484.22 899.715 1486.1 900.522 1487.35C902.078 1489.77 905.997 1491.48 908.629 1489.48V1489.5Z" fill="#1C1C1C"/>
<path d="M909.132 1482.35C909.977 1486.04 910.822 1489.73 911.687 1493.42C912.014 1494.84 913.185 1496.24 914.415 1496.95C915.683 1497.7 917.546 1498.01 918.987 1497.55C920.427 1497.09 921.811 1496.21 922.521 1494.82C923.29 1493.38 923.482 1491.86 923.117 1490.25C922.272 1486.56 921.426 1482.87 920.562 1479.18C920.235 1477.76 919.064 1476.36 917.834 1475.65C916.566 1474.9 914.703 1474.59 913.262 1475.05C911.821 1475.52 910.438 1476.4 909.727 1477.78C908.959 1479.22 908.767 1480.74 909.132 1482.35Z" fill="#1C1C1C"/>
<path d="M1515.18 585.605C1543.81 593.616 1568.67 610.81 1588.43 632.767C1608.62 655.205 1623.55 682.407 1633.02 710.992C1644.93 746.935 1648.81 784.992 1649.39 822.663C1650 862.314 1647.24 901.965 1645.14 941.558C1644.61 951.778 1644.07 961.998 1643.53 972.218C1643.09 980.728 1642.11 989.373 1642.65 997.883C1643.41 1009.87 1646.89 1025.89 1659.03 1031.46C1662.13 1032.88 1665.43 1033.56 1668.83 1033.38L1663.72 1024.47C1656.5 1039.63 1649 1055.51 1636.23 1066.87C1625.91 1076.03 1611.89 1080.07 1598.81 1076.22C1592.2 1074.28 1586.97 1070.35 1583.84 1064.08C1580.42 1057.26 1570.2 1063.26 1573.62 1070.06C1581.09 1084.96 1598.71 1090.98 1614.48 1089.13C1633.52 1086.92 1647.83 1074.53 1658.34 1059.15C1664.49 1050.14 1669.25 1040.28 1673.94 1030.44C1675.75 1026.64 1673.65 1021.3 1668.83 1021.53C1667.48 1021.59 1666.41 1021.53 1665.89 1021.4C1664.16 1020.94 1664.41 1021.05 1662.91 1020.09C1662.49 1019.82 1661.78 1019.17 1660.91 1018.25C1660.45 1017.75 1659.55 1016.44 1658.88 1015.25C1656.23 1010.48 1654.94 1004.2 1654.52 998.632C1653.88 990.256 1654.84 981.765 1655.29 973.39C1655.82 963.17 1656.36 952.949 1656.9 942.729C1658.97 903.501 1661.72 864.216 1661.24 824.911C1660.78 786.644 1657.05 747.819 1645.49 711.166C1636.23 681.793 1621.63 654.033 1601.9 630.308C1582.5 606.967 1557.68 588.045 1529.03 577.595C1525.5 576.307 1521.91 575.174 1518.3 574.156C1510.94 572.1 1507.81 583.511 1515.15 585.567L1515.18 585.605Z" fill="#1C1C1C"/>
<path d="M1534.68 527.974C1535.79 528.185 1536.88 528.415 1537.96 528.742C1538.61 528.934 1539.25 529.165 1539.88 529.395C1541.46 529.952 1539.02 528.896 1539.94 529.434C1540.92 530.01 1541.92 530.471 1542.88 531.105C1544.3 532.046 1543.36 531.009 1542.97 531.105C1543.15 531.067 1544.34 532.315 1544.45 532.43C1544.76 532.738 1545.05 533.064 1545.36 533.391C1546.76 534.889 1544.55 531.912 1545.57 533.679C1545.84 534.159 1546.14 534.62 1546.41 535.101C1546.89 536.004 1546.8 536.215 1546.49 535.158C1546.66 535.735 1546.86 536.311 1547.01 536.887C1547.1 537.233 1547.18 537.598 1547.24 537.944C1547.2 537.637 1547.16 537.329 1547.12 537.022C1547.33 537.252 1547.22 538.885 1547.2 539.193C1547.2 539.442 1547.1 541.498 1547.2 540.192C1547.3 538.924 1547.01 541.075 1546.99 541.171C1546.86 541.767 1546.7 542.362 1546.51 542.939C1546.34 543.534 1546.12 544.11 1545.89 544.668C1546.57 542.919 1545.89 544.514 1545.7 544.898C1545.07 546.089 1544.36 547.223 1543.55 548.298C1544.28 547.319 1543.88 547.837 1543.32 548.471C1542.92 548.932 1542.49 549.355 1542.07 549.797C1541.21 550.661 1540.29 551.43 1539.36 552.217C1540.73 551.026 1539.46 552.121 1539.11 552.371C1538.61 552.717 1538.11 553.063 1537.6 553.408C1535.33 554.868 1532.95 556.136 1530.51 557.27C1526.28 559.248 1524.88 565.646 1527.32 569.43C1530.12 573.772 1534.96 574.732 1539.48 572.619C1552.69 566.433 1563.8 555.521 1564.87 540.288C1565.95 525.207 1553.42 513.431 1539.4 510.838C1534.85 509.993 1529.6 512.086 1528.47 517.043C1527.47 521.404 1529.8 527.071 1534.68 527.974Z" fill="#1C1C1C"/>
<path d="M1555.39 527.339C1556.98 527.935 1558.59 528.531 1560.17 529.165C1560 529.088 1562.61 530.163 1561.51 529.702C1560.42 529.241 1563.01 530.375 1562.84 530.279C1565.97 531.681 1569.03 533.256 1571.89 535.158C1572.46 535.542 1573.04 535.946 1573.62 536.349C1574.87 537.252 1572.21 535.004 1574.1 536.753C1575.19 537.771 1576.31 538.77 1577.31 539.903C1577.57 540.211 1578.57 541.632 1577.69 540.345C1578.15 541.017 1578.59 541.69 1579.01 542.42C1580.15 544.418 1580.01 544.206 1580.53 546.243C1582.09 552.179 1581.09 558.288 1579.23 564.723C1578.78 566.222 1578.28 567.72 1577.73 569.18C1577.69 569.276 1576.58 571.85 1577.32 570.217C1577.09 570.736 1576.84 571.255 1576.59 571.773C1575.11 574.866 1573.33 577.729 1571.37 580.553C1569.83 582.762 1572.44 579.4 1570.7 581.436C1570.33 581.859 1569.97 582.301 1569.6 582.724C1568.49 583.972 1567.33 585.183 1566.11 586.316C1565.7 586.7 1565.28 587.065 1564.88 587.43C1564.78 587.507 1562.65 589.217 1564.09 588.122C1562.78 589.121 1561.38 590.024 1559.96 590.869C1559.25 591.291 1558.52 591.676 1557.79 592.06C1557.65 592.137 1555.17 593.27 1556.9 592.54C1555.64 593.078 1554.31 593.52 1552.98 593.904C1551.64 594.288 1550.28 594.596 1548.91 594.845C1550.43 594.596 1547.3 594.999 1547.39 594.98C1546.11 595.076 1544.8 595.095 1543.49 595.057C1537.42 594.884 1531.33 592.963 1525.65 589.659C1519.98 586.354 1515.27 582.109 1510.95 576.422C1511.8 577.556 1509.97 575.02 1510.07 575.154C1509.34 574.117 1508.63 573.041 1507.95 571.965C1506.94 570.333 1505.98 568.681 1505.07 566.99C1503.19 563.455 1502.04 560.708 1500.81 557.711C1499.39 554.234 1497.52 551.391 1495.54 548.26C1495.51 548.183 1494.87 547.049 1494.85 547.069C1495.49 547.011 1495.62 551.237 1495.66 549.566C1495.6 550.066 1495.56 550.546 1495.51 551.045C1494.89 552.352 1494.81 552.563 1495.28 551.641C1495.51 551.237 1495.76 550.834 1496.03 550.45C1495.47 551.122 1495.54 551.007 1496.29 550.104C1499.33 546.396 1499.92 541.171 1496.29 537.54C1493.16 534.409 1486.78 533.813 1483.73 537.54C1480.83 541.075 1478.01 544.783 1477.87 549.566C1477.78 553.082 1479.37 556.04 1481.29 558.826C1483.81 562.456 1484.44 564.531 1486.19 568.604C1487.82 572.427 1489.69 576.153 1491.84 579.727C1501.29 595.383 1516.39 608.6 1534.81 611.885C1552.33 614.997 1569.56 609.176 1581.57 595.979C1592.67 583.78 1599.92 566.26 1598.82 549.585C1598.13 539.116 1593.6 529.798 1585.35 523.248C1577.82 517.254 1569.04 513.623 1560.07 510.3C1555.71 508.686 1550.14 512.105 1549.14 516.505C1547.99 521.538 1550.68 525.707 1555.35 527.436L1555.39 527.339Z" fill="#1C1C1C"/>
<path d="M1544.96 542.17C1559 502.981 1561.36 460.084 1553.27 419.338C1549.26 399.148 1542.46 379.534 1533.28 361.13C1528.68 351.947 1523.65 342.112 1517.06 334.178C1512.76 329.01 1505.75 326.935 1499.2 327.492C1484.81 328.702 1471.26 336.636 1459.37 344.301C1446.33 352.716 1434 362.11 1425.2 375.115C1403.91 406.582 1411.54 449.095 1429.88 480.043C1439.66 496.507 1452.28 511.453 1465.96 524.804C1480.33 538.828 1496.39 551.603 1513.93 561.496C1518 563.782 1522.15 565.895 1526.42 567.816C1530.78 569.795 1535.96 569.065 1538.58 564.627C1540.81 560.824 1539.79 554.465 1535.39 552.467C1527.26 548.798 1519.48 544.38 1512.03 539.481C1503.83 534.083 1497.72 529.376 1490.49 523.19C1483.29 517.005 1476.45 510.415 1469.98 503.461C1466.85 500.099 1463.81 496.641 1460.87 493.107C1459.45 491.378 1458.05 489.649 1456.66 487.881C1456.05 487.074 1456.59 487.785 1456.7 487.939C1456.36 487.478 1455.99 487.017 1455.65 486.556C1454.95 485.634 1454.28 484.712 1453.59 483.77C1448.92 477.296 1444.6 470.534 1441.01 463.407C1440.2 461.812 1439.45 460.18 1438.72 458.547C1438.59 458.239 1438.45 457.913 1438.3 457.586C1439.07 459.373 1438.55 458.201 1438.41 457.817C1437.97 456.645 1437.51 455.492 1437.07 454.32C1435.49 450.056 1434.11 445.695 1432.98 441.277C1432.44 439.144 1431.94 436.973 1431.52 434.803C1431.32 433.804 1431.15 432.805 1430.98 431.806C1430.88 431.229 1430.81 430.672 1430.71 430.096C1430.86 431.037 1430.77 430.576 1430.69 429.904C1430.21 425.735 1429.96 421.528 1430.06 417.321C1430.1 415.265 1430.23 413.21 1430.44 411.173C1430.5 410.636 1430.86 408.177 1430.58 409.906C1430.75 408.83 1430.92 407.773 1431.13 406.717C1431.92 402.721 1433.09 398.879 1434.51 395.075C1435.11 393.461 1434.71 394.595 1434.55 394.941C1434.76 394.441 1434.99 393.942 1435.22 393.442C1435.63 392.578 1436.05 391.713 1436.49 390.868C1437.45 389.024 1438.49 387.218 1439.6 385.47C1442.12 381.551 1443.31 380.052 1446.81 376.383C1451.61 371.35 1455.66 368.276 1461.08 364.492C1465.92 361.111 1470.9 357.883 1476.01 354.925C1478.93 353.234 1481.89 351.621 1484.92 350.142C1485.73 349.757 1486.54 349.373 1487.34 348.989C1487.67 348.835 1489.86 347.894 1488.69 348.374C1487.61 348.835 1489.63 348.009 1490.03 347.856C1490.82 347.548 1491.61 347.26 1492.4 346.991C1493.82 346.511 1495.26 346.069 1496.7 345.723C1497.33 345.57 1497.99 345.435 1498.64 345.3C1498.79 345.262 1499.68 345.07 1499.71 345.108C1499.71 345.108 1497.52 345.281 1498.95 345.224C1500.18 345.185 1501.44 345.243 1502.65 345.185C1503.48 345.128 1501.48 345.089 1501.44 345.012C1501.44 345.051 1502.21 345.147 1502.33 345.185C1502.52 345.243 1503.84 345.781 1504 345.685C1503 346.3 1502.15 344.647 1503.04 345.32C1503.21 345.454 1503.6 345.665 1503.77 345.742C1504.69 346.146 1502.6 344.244 1503.46 345.55C1504.21 346.684 1504.38 345.954 1503.35 345.281C1504.19 345.838 1504.9 347.587 1505.48 348.47C1508.11 352.485 1510.61 356.577 1512.95 360.746C1515.29 364.914 1517.5 369.179 1519.58 373.502C1521.79 378.151 1523.11 381.147 1524.8 385.431C1528.32 394.345 1531.26 403.508 1533.58 412.806C1534.75 417.455 1535.77 422.143 1536.66 426.869C1537.1 429.231 1537.5 431.594 1537.85 433.957C1538.29 436.839 1538.31 437.031 1538.62 439.682C1539.73 449.21 1540.25 458.816 1540.13 468.402C1540.08 473.204 1539.88 477.988 1539.52 482.771C1539.35 485.153 1539.12 487.555 1538.87 489.937C1538.75 491.051 1538.62 492.165 1538.48 493.26C1538.4 493.894 1538.33 494.528 1538.23 495.162C1538.37 494.201 1538.21 495.296 1538.15 495.642C1536.75 505.132 1534.79 514.507 1532.16 523.728C1530.86 528.339 1529.38 532.911 1527.74 537.425C1526.17 541.805 1529.51 547.338 1533.95 548.356C1538.94 549.49 1543.19 546.839 1544.88 542.151L1544.96 542.17Z" fill="#1C1C1C"/>
<path d="M1478.56 475.759C1482.52 484.557 1488.92 492.549 1494.54 500.31C1501.86 510.396 1509.45 520.308 1517.04 530.202C1519.92 533.967 1522.84 537.732 1525.67 541.555C1528.51 545.397 1533.37 547.357 1537.83 544.744C1541.63 542.516 1543.88 536.464 1541.01 532.584C1527.78 514.66 1513.62 497.429 1501.17 478.929C1498.56 475.048 1495.85 471.072 1493.91 466.788C1491.95 462.408 1485.59 461.37 1481.75 463.599C1477.25 466.231 1476.58 471.36 1478.56 475.759Z" fill="#1C1C1C"/>
<path d="M1589.68 591.945C1622.12 588.276 1654.15 590.389 1685.36 598.304C1700.81 602.223 1716.24 607.582 1730.24 614.056C1731.85 614.805 1733.45 615.536 1735.04 616.342C1735.23 616.439 1737.35 617.38 1737.31 617.572C1737.21 618.052 1735.12 613.883 1736.1 614.94C1736.52 615.401 1735.71 617.918 1735.5 619.07C1735.02 621.683 1734.5 624.276 1733.97 626.87C1732.18 635.38 1730.05 643.833 1727.57 652.17C1723.4 666.27 1719.17 679.718 1710.74 690.841C1706.9 695.912 1702.33 699.851 1696.51 702.867C1691.47 705.46 1683.94 707.228 1678.31 707.612C1674.8 707.842 1671.26 707.842 1667.75 707.612C1663.35 707.324 1661.87 707.112 1657.72 706.305C1654.86 705.748 1652.01 705.018 1649.23 704.154C1647.71 703.674 1646.19 703.155 1644.7 702.598C1644.2 702.406 1643.7 702.194 1643.2 702.021C1642.24 701.637 1642.2 701.618 1643.06 701.983C1642.56 701.772 1642.06 701.541 1641.56 701.33C1629.15 695.778 1618.84 688.44 1609.48 680.064C1603.68 674.858 1598.23 669.248 1593.15 663.331C1591.85 661.814 1590.58 660.277 1589.33 658.721C1588.75 658.01 1588.18 657.28 1587.62 656.55C1588.43 657.587 1586.76 655.397 1586.78 655.436C1584.41 652.285 1582.15 649.039 1579.98 645.754C1575.81 639.376 1572.02 632.729 1568.76 625.813C1566.16 620.319 1563.93 614.594 1561.97 607.39C1560.71 602.761 1555.67 599.917 1551.04 601.185C1546.39 602.472 1543.57 607.467 1544.84 612.116C1552.64 640.74 1570.52 667.078 1591.58 687.652C1613.11 708.668 1639.89 724.632 1670.63 725.554C1687.55 726.073 1704.48 721.463 1717.22 709.975C1729.22 699.14 1735.89 683.637 1740.98 668.634C1743.99 659.739 1746.61 650.71 1748.84 641.585C1749.91 637.166 1750.89 632.748 1751.77 628.291C1752.7 623.681 1754.14 618.648 1753.75 613.96C1752.85 603.049 1740.96 599.418 1732.41 595.729C1724.21 592.214 1715.91 588.987 1707.42 586.239C1669.67 573.945 1629.1 569.757 1589.66 574.233C1585.07 574.752 1580.55 577.94 1580.78 583.108C1580.97 587.469 1584.72 592.54 1589.66 591.983L1589.68 591.945Z" fill="#1C1C1C"/>
<path d="M1582.32 616.074C1600.49 628.887 1620.68 638.704 1641.91 645.331C1646.34 646.714 1651.8 643.698 1652.84 639.126C1653.93 634.304 1651.38 629.674 1646.63 628.195C1626.86 622.029 1608.6 612.942 1591.29 600.724C1587.48 598.035 1581.24 599.917 1579.13 603.913C1576.73 608.466 1578.24 613.192 1582.32 616.074Z" fill="#1C1C1C"/>
<path d="M935.831 961.595C943.957 959.866 953.12 959.501 962.648 959.751C972.138 960.001 981.609 960.884 991.042 961.998C995.671 962.536 1000.13 957.522 999.917 953.123C999.687 947.84 995.998 944.824 991.042 944.248C971.255 941.904 950.776 940.29 931.105 944.478C926.417 945.477 923.69 950.972 924.9 955.409C926.225 960.27 931.124 962.613 935.831 961.614V961.595Z" fill="#1C1C1C"/>
<path d="M915.733 949.569C915.733 954.43 915.541 959.29 915.157 964.131C914.965 966.455 914.754 968.78 914.465 971.104C914.408 971.661 914.004 974.562 914.254 972.795C914.081 974.005 913.908 975.215 913.697 976.426C912.218 985.57 910.047 994.599 907.185 1003.42C905.801 1007.7 904.246 1011.93 902.536 1016.1C902.574 1016.02 901.556 1018.42 902.075 1017.23C902.497 1016.23 901.844 1017.77 901.748 1017.98C901.325 1018.94 900.903 1019.9 900.461 1020.86C899.481 1023.01 898.444 1025.14 897.387 1027.24C893.314 1035.27 888.646 1043.01 883.44 1050.37C882.23 1052.06 881.001 1053.73 879.733 1055.4C878.215 1057.4 880.386 1054.57 879.445 1055.77C879.118 1056.17 878.792 1056.57 878.484 1056.99C877.754 1057.92 877.024 1058.82 876.275 1059.72C873.374 1063.22 870.339 1066.6 867.169 1069.87C864.018 1073.13 860.734 1076.28 857.333 1079.3C855.777 1080.68 854.202 1082.05 852.608 1083.37C851.801 1084.04 851.013 1084.7 850.187 1085.35C849.784 1085.68 849.38 1086 848.957 1086.33C846.94 1087.94 850.341 1085.29 848.285 1086.85C841.1 1092.28 833.57 1097.22 825.694 1101.56C821.794 1103.71 817.798 1105.71 813.744 1107.58C812.668 1108.08 811.574 1108.54 810.498 1109.02C810.21 1109.15 808.922 1109.69 810.44 1109.06C809.96 1109.27 809.46 1109.46 808.98 1109.67C806.771 1110.57 804.562 1111.42 802.314 1112.24C793.785 1115.36 785.006 1117.8 776.092 1119.58C773.844 1120.04 771.577 1120.45 769.31 1120.81C768.1 1121 766.89 1121.18 765.68 1121.37C767.524 1121.1 764.008 1121.58 763.567 1121.62C758.783 1122.18 753.961 1122.54 749.139 1122.71C739.726 1123.06 730.275 1122.68 720.919 1121.58C720.516 1121.52 717.365 1121.1 719.228 1121.37C718.018 1121.2 716.808 1121.02 715.598 1120.81C713.197 1120.43 710.795 1119.99 708.413 1119.51C703.803 1118.56 699.249 1117.47 694.735 1116.16C690.393 1114.91 686.09 1113.51 681.845 1111.96C679.866 1111.23 677.887 1110.46 675.928 1109.65C675.447 1109.46 674.948 1109.25 674.468 1109.04C675.966 1109.67 674.699 1109.13 674.411 1109C673.2 1108.46 672.009 1107.94 670.799 1107.38C662.596 1103.6 654.681 1099.22 647.131 1094.26C643.327 1091.77 639.601 1089.13 635.989 1086.35C637.411 1087.44 635.029 1085.58 634.721 1085.33C633.914 1084.68 633.107 1084.02 632.301 1083.35C630.495 1081.85 628.727 1080.34 626.999 1078.76C620.332 1072.77 614.108 1066.29 608.403 1059.4C607.73 1058.59 607.077 1057.78 606.443 1056.98C606.04 1056.48 605.637 1055.96 605.233 1055.44C605.445 1055.71 606.213 1056.74 605.195 1055.38C603.773 1053.52 602.39 1051.63 601.045 1049.71C598.49 1046.08 596.069 1042.38 593.803 1038.57C591.517 1034.75 589.365 1030.85 587.367 1026.89C586.368 1024.89 585.389 1022.88 584.467 1020.86C584.025 1019.9 583.602 1018.94 583.18 1017.98C583.084 1017.75 582.43 1016.23 582.853 1017.23C583.256 1018.15 582.334 1015.98 582.238 1015.73C578.78 1007.22 575.975 998.46 573.862 989.527C572.806 985.07 571.903 980.556 571.192 976.022C571.019 974.946 570.865 973.871 570.712 972.795C570.961 974.601 570.52 971.22 570.462 970.682C570.193 968.357 569.962 966.033 569.789 963.708C569.04 954.007 569.06 944.267 569.847 934.585C570.02 932.395 570.251 930.205 570.5 928.034C570.558 927.631 570.98 924.48 570.712 926.344C570.904 924.999 571.096 923.654 571.326 922.309C572.076 917.776 572.979 913.281 574.055 908.824C576.245 899.776 579.184 890.939 582.699 882.313C582.815 882.025 583.371 880.757 582.718 882.255C582.929 881.775 583.141 881.295 583.352 880.815C583.775 879.854 584.217 878.894 584.639 877.933C585.619 875.781 586.656 873.668 587.732 871.555C589.749 867.598 591.92 863.698 594.226 859.894C596.589 855.995 599.105 852.172 601.737 848.464C602.947 846.774 604.176 845.102 605.444 843.45C606.366 842.24 604.158 845.045 605.733 843.085C606.059 842.682 606.386 842.278 606.713 841.856C607.443 840.953 608.192 840.031 608.941 839.147C614.685 832.27 620.928 825.815 627.633 819.86C629.189 818.476 630.764 817.112 632.358 815.787C633.261 815.038 634.164 814.308 635.086 813.578C635.49 813.251 635.893 812.925 636.316 812.617C637.103 811.983 635.355 813.328 636.681 812.329C640.312 809.582 644.038 806.95 647.861 804.453C655.43 799.535 663.364 795.174 671.586 791.428C672.547 790.986 673.507 790.583 674.468 790.141C676.043 789.43 674.852 789.968 674.525 790.102C675.006 789.891 675.505 789.699 675.985 789.488C678.195 788.585 680.404 787.72 682.651 786.913C687.031 785.319 691.469 783.897 695.945 782.649C700.345 781.419 704.782 780.363 709.258 779.479C711.506 779.037 713.773 778.634 716.059 778.269C717.135 778.096 718.21 777.942 719.286 777.788C717.615 778.038 719.036 777.827 719.363 777.788C720.17 777.692 720.996 777.596 721.803 777.5C731.178 776.444 740.629 776.098 750.042 776.482C754.864 776.674 759.667 777.058 764.45 777.635C764.988 777.692 765.526 777.769 766.083 777.846C767.658 778.057 763.97 777.52 766.563 777.923C767.639 778.096 768.715 778.25 769.791 778.422C772.192 778.807 774.593 779.248 776.975 779.748C785.87 781.573 794.63 784.07 803.14 787.202C805.254 787.97 807.347 788.796 809.422 789.641C809.652 789.737 811.17 790.391 810.191 789.949C809.192 789.526 810.728 790.179 810.94 790.275C812.15 790.813 813.341 791.351 814.532 791.889C818.701 793.81 822.792 795.904 826.788 798.152C834.53 802.474 841.965 807.354 848.977 812.771C847.651 811.734 849.822 813.462 850.244 813.789C851.147 814.519 852.07 815.268 852.953 816.017C854.74 817.516 856.507 819.053 858.255 820.609C861.54 823.567 864.71 826.641 867.765 829.83C870.915 833.115 873.931 836.515 876.832 840.011C877.485 840.818 878.157 841.625 878.791 842.432C879.118 842.835 879.445 843.239 879.752 843.661C878.753 842.394 879.598 843.469 879.79 843.719C881.212 845.583 882.595 847.465 883.94 849.386C889.127 856.763 893.756 864.524 897.79 872.573C898.789 874.571 899.75 876.588 900.672 878.625C901.114 879.585 901.518 880.546 901.959 881.506C902.094 881.794 902.632 883.081 901.998 881.564C902.305 882.294 902.613 883.024 902.901 883.754C904.591 887.923 906.109 892.168 907.492 896.452C910.316 905.289 912.448 914.318 913.889 923.481C913.966 924.019 914.062 924.557 914.139 925.095C914.177 925.345 914.427 927.035 914.273 925.94C914.12 924.826 914.35 926.536 914.389 926.786C914.465 927.458 914.561 928.149 914.638 928.822C914.888 931.012 915.099 933.183 915.253 935.392C915.618 940.098 915.791 944.824 915.791 949.55C915.791 954.199 919.863 958.656 924.666 958.425C929.469 958.214 933.561 954.526 933.541 949.55C933.445 910.245 921.304 871.152 898.386 839.147C875.794 807.584 844.309 783.456 807.866 770.047C770.444 756.254 728.411 754.909 690.086 765.839C653.413 776.309 619.967 798.036 595.685 827.467C570.385 858.146 555.113 895.741 552.077 935.392C549.061 974.581 558.609 1014.58 578.953 1048.2C598.74 1080.89 628.478 1107.65 663.364 1123.37C700.172 1139.95 741.302 1144.61 780.914 1136.68C818.72 1129.09 853.99 1109.42 880.597 1081.55C907.108 1053.77 925.223 1017.94 931.082 979.922C932.638 969.856 933.522 959.732 933.541 949.55C933.541 944.901 929.449 940.463 924.666 940.675C919.844 940.886 915.791 944.574 915.791 949.55L915.733 949.569Z" fill="#1C1C1C"/>
<path d="M1352.81 949.569C1352.81 954.43 1352.62 959.29 1352.24 964.131C1352.05 966.455 1351.84 968.78 1351.55 971.104C1351.49 971.661 1351.09 974.562 1351.34 972.795C1351.16 974.005 1350.99 975.215 1350.78 976.426C1349.3 985.57 1347.13 994.599 1344.27 1003.42C1342.88 1007.7 1341.33 1011.93 1339.62 1016.1C1339.66 1016.02 1338.64 1018.42 1339.16 1017.23C1339.58 1016.23 1338.93 1017.77 1338.83 1017.98C1338.41 1018.94 1337.98 1019.9 1337.54 1020.86C1336.56 1023.01 1335.53 1025.14 1334.47 1027.24C1330.4 1035.27 1325.73 1043.01 1320.52 1050.37C1319.31 1052.06 1318.08 1053.73 1316.81 1055.4C1315.3 1057.4 1317.47 1054.57 1316.53 1055.77C1316.2 1056.17 1315.87 1056.57 1315.57 1056.99C1314.84 1057.92 1314.09 1058.82 1313.36 1059.72C1310.46 1063.22 1307.42 1066.6 1304.25 1069.87C1301.1 1073.13 1297.82 1076.28 1294.42 1079.3C1292.86 1080.68 1291.28 1082.05 1289.69 1083.37C1288.88 1084.04 1288.09 1084.7 1287.27 1085.35C1286.86 1085.68 1286.46 1086 1286.04 1086.33C1284.02 1087.94 1287.42 1085.29 1285.37 1086.85C1278.18 1092.28 1270.65 1097.22 1262.77 1101.56C1258.88 1103.71 1254.88 1105.71 1250.83 1107.58C1249.75 1108.08 1248.66 1108.54 1247.58 1109.02C1247.29 1109.15 1246 1109.69 1247.52 1109.06C1247.04 1109.27 1246.54 1109.46 1246.06 1109.67C1243.85 1110.57 1241.64 1111.42 1239.4 1112.24C1230.87 1115.36 1222.09 1117.8 1213.17 1119.58C1210.93 1120.04 1208.66 1120.45 1206.39 1120.81C1205.18 1121 1203.97 1121.18 1202.76 1121.37C1204.61 1121.1 1201.09 1121.58 1200.65 1121.62C1195.86 1122.18 1191.04 1122.54 1186.22 1122.71C1176.81 1123.06 1167.36 1122.68 1158 1121.58C1157.6 1121.52 1154.45 1121.1 1156.31 1121.37C1155.1 1121.2 1153.89 1121.02 1152.68 1120.81C1150.28 1120.43 1147.88 1119.99 1145.49 1119.51C1140.88 1118.56 1136.33 1117.47 1131.82 1116.16C1127.48 1114.91 1123.17 1113.51 1118.93 1111.96C1116.95 1111.23 1114.97 1110.46 1113.01 1109.65C1112.53 1109.46 1112.03 1109.25 1111.55 1109.04C1113.05 1109.67 1111.78 1109.13 1111.49 1109C1110.28 1108.46 1109.09 1107.94 1107.88 1107.38C1099.68 1103.6 1091.76 1099.22 1084.21 1094.26C1080.41 1091.77 1076.68 1089.13 1073.07 1086.35C1074.49 1087.44 1072.11 1085.58 1071.8 1085.33C1071 1084.68 1070.19 1084.02 1069.38 1083.35C1067.58 1081.85 1065.81 1080.34 1064.08 1078.76C1057.41 1072.77 1051.19 1066.29 1045.48 1059.4C1044.81 1058.59 1044.16 1057.78 1043.51 1056.98C1043.1 1056.48 1042.7 1055.96 1042.3 1055.44C1042.51 1055.71 1043.28 1056.74 1042.26 1055.38C1040.84 1053.52 1039.45 1051.63 1038.11 1049.71C1035.55 1046.08 1033.13 1042.38 1030.87 1038.57C1028.58 1034.75 1026.43 1030.85 1024.43 1026.89C1023.43 1024.89 1022.45 1022.88 1021.53 1020.86C1021.09 1019.9 1020.66 1018.94 1020.24 1017.98C1020.15 1017.75 1019.49 1016.23 1019.92 1017.23C1020.32 1018.15 1019.4 1015.98 1019.3 1015.73C1015.84 1007.22 1013.04 998.46 1010.92 989.527C1009.87 985.07 1008.97 980.556 1008.25 976.022C1008.08 974.946 1007.93 973.871 1007.77 972.795C1008.02 974.601 1007.58 971.22 1007.52 970.682C1007.26 968.357 1007.02 966.033 1006.85 963.708C1006.1 954.007 1006.12 944.267 1006.91 934.585C1007.08 932.395 1007.31 930.205 1007.56 928.034C1007.62 927.631 1008.04 924.48 1007.77 926.344C1007.97 924.999 1008.16 923.654 1008.39 922.309C1009.14 917.776 1010.04 913.281 1011.12 908.824C1013.31 899.776 1016.25 890.939 1019.76 882.313C1019.88 882.025 1020.43 880.757 1019.78 882.255C1019.99 881.775 1020.2 881.295 1020.41 880.815C1020.84 879.854 1021.28 878.894 1021.7 877.933C1022.68 875.781 1023.72 873.668 1024.79 871.555C1026.81 867.598 1028.98 863.698 1031.29 859.894C1033.65 855.995 1036.17 852.172 1038.8 848.464C1040.01 846.774 1041.24 845.102 1042.51 843.45C1043.43 842.24 1041.22 845.045 1042.8 843.085C1043.12 842.682 1043.45 842.278 1043.77 841.856C1044.5 840.953 1045.25 840.031 1046 839.147C1051.75 832.27 1057.99 825.815 1064.7 819.86C1066.25 818.476 1067.83 817.112 1069.42 815.787C1070.32 815.038 1071.23 814.308 1072.15 813.578C1072.55 813.251 1072.96 812.925 1073.38 812.617C1074.17 811.983 1072.42 813.328 1073.74 812.329C1077.37 809.582 1081.1 806.95 1084.92 804.453C1092.49 799.535 1100.43 795.174 1108.65 791.428C1109.61 790.986 1110.57 790.583 1111.53 790.141C1113.11 789.43 1111.91 789.968 1111.59 790.102C1112.07 789.891 1112.57 789.699 1113.05 789.488C1115.26 788.585 1117.47 787.72 1119.71 786.913C1124.09 785.319 1128.53 783.897 1133.01 782.649C1137.41 781.419 1141.84 780.363 1146.32 779.479C1148.59 779.037 1150.84 778.634 1153.12 778.269C1154.2 778.096 1155.27 777.942 1156.35 777.788C1154.68 778.038 1156.1 777.827 1156.43 777.788C1157.23 777.692 1158.06 777.596 1158.87 777.5C1168.24 776.444 1177.69 776.098 1187.1 776.482C1191.93 776.674 1196.73 777.058 1201.51 777.635C1202.05 777.692 1202.59 777.769 1203.15 777.846C1204.72 778.057 1201.03 777.52 1203.63 777.923C1204.7 778.096 1205.78 778.25 1206.85 778.422C1209.25 778.807 1211.66 779.248 1214.04 779.748C1222.93 781.573 1231.69 784.07 1240.2 787.202C1242.32 787.97 1244.41 788.796 1246.48 789.641C1246.71 789.737 1248.23 790.391 1247.25 789.949C1246.25 789.526 1247.79 790.179 1248 790.275C1249.21 790.813 1250.4 791.351 1251.59 791.889C1255.76 793.81 1259.85 795.904 1263.85 798.152C1271.59 802.474 1279.03 807.354 1286.04 812.771C1284.71 811.734 1286.88 813.462 1287.31 813.789C1288.21 814.519 1289.13 815.268 1290.02 816.017C1291.8 817.516 1293.57 819.053 1295.32 820.609C1298.6 823.567 1301.77 826.641 1304.83 829.83C1307.98 833.115 1310.99 836.515 1313.89 840.011C1314.55 840.818 1315.22 841.625 1315.85 842.432C1316.18 842.835 1316.51 843.239 1316.81 843.661C1315.82 842.394 1316.66 843.469 1316.85 843.719C1318.27 845.583 1319.66 847.465 1321 849.386C1326.19 856.763 1330.82 864.524 1334.85 872.573C1335.85 874.571 1336.81 876.588 1337.73 878.625C1338.18 879.585 1338.58 880.546 1339.02 881.506C1339.16 881.794 1339.69 883.081 1339.06 881.564C1339.37 882.294 1339.68 883.024 1339.96 883.754C1341.65 887.923 1343.17 892.168 1344.55 896.452C1347.38 905.289 1349.51 914.318 1350.95 923.481C1351.03 924.019 1351.12 924.557 1351.2 925.095C1351.24 925.345 1351.49 927.035 1351.34 925.94C1351.18 924.826 1351.41 926.536 1351.45 926.786C1351.53 927.458 1351.62 928.149 1351.7 928.822C1351.95 931.012 1352.16 933.183 1352.32 935.392C1352.68 940.098 1352.85 944.824 1352.85 949.55C1352.85 954.199 1356.93 958.656 1361.73 958.425C1366.53 958.214 1370.62 954.526 1370.6 949.55C1370.51 910.245 1358.37 871.152 1335.45 839.147C1312.86 807.584 1281.37 783.456 1244.93 770.047C1207.51 756.254 1165.47 754.909 1127.15 765.839C1090.48 776.309 1057.03 798.036 1032.75 827.467C1007.45 858.146 992.175 895.741 989.14 935.392C986.124 974.581 995.671 1014.58 1016.02 1048.2C1035.8 1080.89 1065.54 1107.65 1100.43 1123.37C1137.23 1139.95 1178.36 1144.61 1217.98 1136.68C1255.78 1129.09 1291.05 1109.42 1317.66 1081.55C1344.17 1053.77 1362.29 1017.94 1368.14 979.922C1369.7 969.856 1370.58 959.732 1370.6 949.55C1370.6 944.901 1366.51 940.463 1361.73 940.675C1356.91 940.886 1352.85 944.574 1352.85 949.55L1352.81 949.569Z" fill="#1C1C1C"/>
</svg>
