<svg width="2000" height="2000" viewBox="0 0 2000 2000" fill="none" xmlns="http://www.w3.org/2000/svg">
<g clip-path="url(#clip0_157_128)">
<path d="M1110.39 1275.63C1109.36 1273.7 1107.57 1272.23 1105.2 1271.9C1102.57 1271.53 1099.88 1272.93 1098.06 1274.76C1096.66 1276.16 1095.92 1278.05 1095.82 1280.01C1095.72 1281.94 1096.58 1283.89 1097.92 1285.26C1098.48 1285.83 1099.15 1286.34 1099.88 1286.68C1101.01 1287.22 1101.91 1287.45 1103.15 1287.57C1103.39 1287.59 1103.64 1287.6 1103.88 1287.58C1104.45 1287.54 1105.05 1287.47 1105.61 1287.32C1106.59 1287.05 1107.41 1286.59 1108.2 1285.98C1109.64 1284.87 1110.73 1283.28 1111.16 1281.49C1111.64 1279.5 1111.33 1277.37 1110.4 1275.62L1110.39 1275.63Z" fill="#191919"/>
<path d="M1152.01 1284.32C1153.3 1281.62 1153.89 1278.02 1151.98 1275.37C1149.81 1272.35 1145.54 1271.43 1142.5 1273.67C1139.82 1275.64 1138.68 1279.46 1139.83 1282.57C1141.59 1287.34 1148 1289.48 1151.36 1285.15C1151.45 1285.06 1151.52 1284.96 1151.6 1284.87C1151.71 1284.71 1151.87 1284.6 1152.01 1284.32Z" fill="#191919"/>
<path d="M1135.22 1284.05C1134.89 1283.03 1133.85 1282.38 1132.79 1282.67C1131.79 1282.94 1131.08 1284.08 1131.41 1285.1C1131.85 1286.46 1131.01 1288.15 1129.54 1288.47C1129.23 1288.54 1128.98 1288.52 1128.58 1288.39C1128.29 1288.3 1127.9 1288.08 1127.66 1287.87C1126.88 1287.19 1126.64 1286.5 1126.71 1285.56C1126.79 1284.49 1125.74 1283.58 1124.73 1283.58C1123.56 1283.58 1122.87 1284.49 1122.75 1285.56C1122.63 1286.67 1121.45 1287.98 1120.38 1288.04C1119.8 1288.07 1119.3 1287.87 1118.82 1287.34C1118.63 1287.13 1118.5 1286.89 1118.42 1286.66C1118.33 1286.41 1118.33 1286.23 1118.4 1285.95C1119.02 1283.48 1115.21 1282.43 1114.59 1284.9C1113.71 1288.4 1116.58 1291.93 1120.15 1292C1121.89 1292.03 1123.38 1291.28 1124.51 1290.14C1125.99 1291.75 1128.14 1292.74 1130.36 1292.32C1133.96 1291.65 1136.3 1287.48 1135.2 1284.04L1135.22 1284.05Z" fill="#191919"/>
<path d="M1316.89 683.92C1292.96 690.21 1269.86 698.31 1247.55 709.02C1225.67 719.53 1204.64 731.74 1184.64 745.48C1178.31 749.83 1176.79 760.41 1184.64 764.41C1208.42 776.52 1233.4 786.05 1259.21 792.84C1271.75 796.14 1284.46 798.8 1297.27 800.79C1304.31 801.89 1311.33 802.84 1318.45 803.23C1321.73 803.41 1325.02 803.54 1328.31 803.63C1332.54 803.75 1335.83 803.19 1339.65 801.25C1345.71 798.17 1344.57 789.93 1339.65 786.59C1334.13 782.83 1326.42 782.98 1319.92 781.91C1313.57 780.86 1308.08 780.17 1301.78 779.14C1289.45 777.13 1277.22 774.52 1265.15 771.31C1241.18 764.93 1217.9 756.22 1195.71 745.48V764.41C1215.07 750.54 1235.43 738.12 1256.66 727.33C1277.54 716.72 1299.02 706.86 1320.98 698.71C1330.09 695.33 1326.62 681.36 1316.9 683.92H1316.89Z" fill="#191919"/>
<path d="M1036.69 863.04C1046.34 869.65 1056.86 873.4 1068.42 875.14C1080.39 876.94 1092.54 876.49 1104.46 874.57C1115.82 872.75 1127.17 869.23 1137.46 864.06C1142.44 861.56 1147.76 857.74 1151.83 853.91C1155.85 850.14 1159.3 844.81 1162.44 840.29C1164.37 837.52 1160.64 834.18 1157.94 835.79C1155.63 837.17 1153.29 838.51 1150.87 839.69C1148.39 840.89 1145.73 841.57 1143.27 842.82C1138.72 845.12 1134.17 847.24 1129.55 849.39C1120.26 853.72 1110.89 857.13 1100.76 859.03C1080.58 862.8 1059.93 859.47 1040.26 854.53C1034.99 853.2 1032.38 860.1 1036.67 863.04H1036.69Z" fill="#191919"/>
<path d="M1423.05 821.93C1424.97 829.56 1426.74 837.29 1427.8 845.09C1428.79 852.38 1429.08 859.71 1429.67 867.03C1430.78 880.81 1430.17 895.36 1428.01 908.22C1423.27 936.45 1409.71 960.42 1390.62 981.65C1353.53 1022.91 1304.01 1051.93 1253.81 1075.15C1240.1 1081.49 1226.16 1087.16 1212.12 1092.7C1198.13 1098.22 1183.79 1102.84 1170.15 1109.15C1167.1 1110.56 1166.09 1114.85 1167.35 1117.7C1168.82 1121.05 1171.95 1122.2 1175.43 1121.67C1188.71 1119.61 1201.43 1115.12 1214.13 1110.77C1228.09 1105.99 1241.79 1100.32 1255.34 1094.47C1282.68 1082.67 1309.34 1069.11 1334.55 1053.22C1383.59 1022.31 1433.1 980.59 1445.09 920.97C1448.55 903.75 1448.55 886.53 1446.17 869.18C1443.79 851.82 1437.24 834.88 1430.31 818.87C1428.48 814.64 1421.99 817.71 1423.05 821.93Z" fill="#191919"/>
<path d="M608.641 783.6C620.841 823.03 630.561 862.93 640.881 902.86C642.621 909.6 644.42 916.27 646.61 922.88C649.3 931.03 651.79 939.7 656.12 947.14C658.32 950.92 664.711 949.41 664.541 944.86C664.251 937.05 662.18 929.24 660.46 921.64C659.07 915.52 657.591 909.46 655.951 903.39C653.411 893.98 650.981 884.53 648.601 875.08C644.34 858.17 640.011 841.35 634.571 824.78C629.721 809.99 624.511 795.32 619.201 780.69C616.831 774.16 606.521 776.78 608.631 783.6H608.641Z" fill="#191919"/>
<path d="M659.981 967.17C659.751 967.86 659.541 968.54 659.331 969.24C659.231 969.58 659.081 969.94 659.031 970.28C659.001 970.45 658.931 970.64 658.891 970.81C659.631 968 658.771 971.11 658.561 972.32C658.261 974.12 658.231 976.02 658.191 977.85C658.121 981.08 658.291 984.32 658.671 987.53C659.571 995.26 661.311 1002.78 664.191 1010.02C671.451 1028.28 683.791 1043.35 698.671 1056.04C719.621 1073.91 744.001 1086.84 769.351 1097.3C804.911 1111.98 842.391 1120.71 880.281 1126.84C905.121 1130.85 930.131 1133.55 955.221 1135.39C984.301 1137.53 1013.75 1139.17 1042.91 1138.3C1050.38 1138.08 1057.85 1138.07 1065.24 1136.92C1066.58 1136.71 1066.52 1134.53 1065.24 1134.28C1050.36 1131.31 1034.74 1131.01 1019.63 1129.77C1005.21 1128.59 990.811 1127.18 976.441 1125.59C951.571 1122.84 926.871 1119.16 902.241 1114.78C863.411 1107.87 824.751 1098.3 787.751 1084.48C784.041 1083.09 780.351 1081.65 776.681 1080.15C775.791 1079.79 774.901 1079.41 774.011 1079.05C772.761 1078.53 775.521 1079.69 774.281 1079.16C773.851 1078.97 773.411 1078.79 772.981 1078.6C771.161 1077.82 769.351 1077.02 767.551 1076.21C761.151 1073.33 754.841 1070.24 748.661 1066.92C742.951 1063.86 737.351 1060.59 731.901 1057.09C729.401 1055.49 726.941 1053.83 724.511 1052.13C723.411 1051.36 722.321 1050.58 721.231 1049.78C720.661 1049.36 720.101 1048.94 719.531 1048.52C719.161 1048.24 717.081 1046.66 718.421 1047.69C719.821 1048.76 717.821 1047.21 717.561 1047.01C717.031 1046.59 716.501 1046.17 715.971 1045.74C714.871 1044.85 713.791 1043.95 712.711 1043.03C710.761 1041.37 708.841 1039.66 706.971 1037.91C703.471 1034.63 700.131 1031.19 696.981 1027.58C696.241 1026.73 695.501 1025.86 694.781 1024.99C694.431 1024.56 694.071 1024.13 693.731 1023.69C693.301 1023.15 691.931 1022.09 693.201 1023.04C694.451 1023.96 693.341 1023.22 692.961 1022.71C692.641 1022.28 692.321 1021.85 692.001 1021.41C691.341 1020.5 690.691 1019.59 690.051 1018.66C689.761 1018.23 689.481 1017.79 689.181 1017.37C688.831 1016.87 688.481 1016.41 688.111 1015.92C686.171 1013.32 688.151 1016.21 688.401 1016.27C687.851 1016.14 686.791 1013.94 686.461 1013.44C685.381 1011.8 684.341 1010.13 683.361 1008.42C682.421 1006.79 681.521 1005.12 680.681 1003.43C680.271 1002.61 679.881 1001.78 679.491 1000.95C679.331 1000.59 679.171 1000.23 679.001 999.87C678.261 998.25 678.431 999.65 679.151 1000.26C678.211 999.47 677.671 996.49 677.271 995.32C676.701 993.66 676.181 991.99 675.731 990.3C675.301 988.72 674.921 987.12 674.601 985.51C674.451 984.77 674.311 984.03 674.191 983.29C674.121 982.9 674.071 982.51 674.001 982.12C673.691 980.25 674.081 983.02 674.041 982.47C673.791 979.41 673.691 976.36 673.501 973.3C673.441 972.37 673.241 971.44 673.061 970.52C672.751 969.01 673.191 971.99 673.131 971.08C673.091 970.35 672.961 969.62 672.901 968.9C672.221 961.64 662.401 959.83 659.991 967.15L659.981 967.17Z" fill="#191919"/>
<path d="M949.29 303.52C945.06 360.64 946.72 418.19 952.5 475.15C958.51 534.41 969.03 593.08 985.69 650.3C990.14 665.59 994.9 680.82 1000.48 695.73C1005.97 710.38 1012.34 724.42 1019.53 738.31C1021.85 742.79 1029.53 739.69 1027.79 734.83C1023.28 722.22 1019.16 709.47 1014.77 696.82C1010.19 683.62 1005.76 670.35 1001.69 656.98C993.2 629.12 986.42 600.87 980.24 572.43C967.72 514.81 959.74 456.21 956.67 397.32C955.04 366.08 954.82 334.76 956.42 303.52C956.66 298.92 949.63 298.99 949.3 303.52H949.29Z" fill="#191919"/>
<path d="M1083.17 276.8C1106.09 321.94 1121.2 370.61 1135.45 419.02C1151.55 473.69 1163.21 529.15 1171.18 585.55C1174.82 611.33 1177.51 637.72 1177.16 663.78C1177.12 666.92 1182.32 667.82 1182.81 664.54C1190.45 613.61 1181.71 561.24 1171.06 511.37C1159.03 455.01 1142.71 399.63 1121.53 346.02C1111.8 321.38 1101.19 296.96 1088.37 273.75C1086.48 270.34 1081.42 273.35 1083.17 276.79V276.8Z" fill="#191919"/>
<path d="M930.52 1518.99C911.61 1535.56 894.52 1554.91 881.36 1576.38C874.89 1586.94 869.16 1597.94 864.23 1609.3C859.1 1621.12 852.44 1634.54 854.62 1647.78C855.42 1652.62 862.64 1654.28 865.73 1650.71C873.78 1641.42 876.34 1628.18 881.02 1617.07C885.6 1606.21 891.02 1595.67 897.06 1585.55C909.34 1564.94 923.48 1545.92 940.6 1529.05C947.2 1522.55 937.37 1512.99 930.53 1518.98L930.52 1518.99Z" fill="#191919"/>
<path d="M861.561 1650.04C886.911 1657.16 913.641 1659.88 939.771 1662.38C976.701 1665.92 1013.61 1667.47 1050.7 1667.73C1091.67 1668.02 1132.65 1667.35 1173.59 1665.82C1211.52 1664.4 1249.5 1661.99 1287.16 1657.1C1315.17 1653.46 1343.73 1650.1 1370.41 1640.41C1372.68 1639.59 1375 1638.37 1377.34 1637.78C1379.73 1637.18 1378.72 1633.48 1376.32 1634.08C1371.59 1635.27 1365.97 1635.04 1361.12 1635.31C1355 1635.66 1348.92 1636.35 1342.81 1636.86C1328.01 1638.09 1313.23 1639.48 1298.42 1640.54C1261.71 1643.16 1224.95 1645.09 1188.2 1647.14C1147.6 1649.41 1106.95 1650.81 1066.29 1651.31C1028.57 1651.77 990.751 1651.77 953.041 1650.89C925.631 1650.25 897.791 1649.34 870.721 1644.58C868.291 1644.15 865.881 1643.68 863.471 1643.16C859.011 1642.2 857.131 1648.78 861.581 1650.03L861.561 1650.04Z" fill="#191919"/>
<path d="M899.261 696.64C860.581 697.57 829.311 731.61 824.371 775.32C824.901 774.32 825.451 773.34 826.071 772.39C826.071 770.35 826.481 768.29 827.471 766.4C830.421 760.77 835.051 756.18 840.401 753.61C841.471 752.39 842.531 751.17 843.641 749.99C845.251 748.28 848.581 747.94 850.251 749.83C850.711 750.35 851.131 750.89 851.561 751.43C854.901 751.71 858.281 752.83 861.541 754.99C871.741 761.75 876.231 775.16 872.621 786.82C869.481 796.95 860.931 806.46 850.691 810.32C845.731 815.12 838.961 818.22 832.591 820.29C831.411 820.67 830.341 820.53 829.421 820.07C829.211 820.14 829.001 820.15 828.801 820.19C840.271 855.65 869.731 880.58 903.671 879.76C946.611 878.73 980.431 836.89 979.221 786.32C978.001 735.75 942.211 695.58 899.271 696.62L899.261 696.64Z" fill="#191919"/>
<path d="M623.631 807.33C618.761 798.73 610.881 792.81 601.791 789.21C592.661 785.6 581.351 786.81 572.151 789.66C558.051 794.04 545.441 802.19 535.301 812.9C514.411 834.98 504.611 864.98 500.871 894.59C497.231 923.44 499.681 954.33 509.251 981.88C520.361 1013.82 543.211 1039.84 574.091 1053.96C592.161 1062.23 611.441 1066.7 631.201 1068.4C641.001 1069.24 650.851 1069.09 660.651 1068.35C671.001 1067.57 680.211 1064.73 689.891 1061.2C694.241 1059.62 693.781 1052.9 688.761 1052.86C680.601 1052.79 672.511 1051.74 664.331 1052.07C656.261 1052.4 648.171 1052.32 640.111 1051.75C624.381 1050.64 609.471 1048.32 594.151 1042.96C565.601 1032.97 542.881 1013.05 530.361 984.7C531.291 986.82 529.801 983.3 529.581 982.72C529.021 981.27 528.481 979.81 527.971 978.35C526.911 975.32 525.961 972.26 525.111 969.17C523.391 962.94 522.041 956.61 521.021 950.24C520.881 949.38 520.761 948.52 520.631 947.67C520.201 944.9 520.781 948.89 520.561 947.2C520.351 945.6 520.161 944 520.001 942.4C519.631 938.86 519.351 935.3 519.171 931.75C518.811 924.82 518.811 917.87 519.151 910.94C519.321 907.6 519.571 904.27 519.901 900.94C520.081 899.13 520.291 897.32 520.511 895.51C520.741 893.54 520.571 895.03 520.511 895.43C520.681 894.23 520.861 893.03 521.051 891.84C522.131 885.03 523.601 878.28 525.491 871.65C526.381 868.53 527.371 865.44 528.461 862.39C529.051 860.74 529.671 859.11 530.311 857.48C530.291 857.54 531.371 854.9 530.801 856.25C530.361 857.29 531.561 854.54 531.681 854.26C534.371 848.34 537.501 842.61 541.151 837.23C542.241 835.62 543.371 834.04 544.551 832.51C543.361 834.05 544.271 832.88 544.531 832.57C545.241 831.73 545.921 830.87 546.641 830.04C548.971 827.36 551.451 824.81 554.081 822.43C555.391 821.24 556.751 820.1 558.131 819C559.401 817.99 556.231 820.34 558.381 818.82C559.271 818.19 560.151 817.54 561.061 816.93C564.041 814.92 567.161 813.17 570.361 811.54C571.861 810.77 573.371 810.05 574.901 809.35C577.441 808.19 573.051 809.99 575.701 809.03C576.781 808.64 577.851 808.21 578.951 807.84C583.691 806.24 587.021 805.69 591.791 805.76C600.821 805.91 609.401 806.59 616.531 812.81C620.301 816.1 626.261 811.97 623.631 807.33Z" fill="#191919"/>
<path d="M901.009 92.2298C884.639 86.8398 867.199 82.7298 849.989 81.2098C833.629 79.7598 816.629 81.4398 800.509 84.2398C769.039 89.7098 738.589 103.96 711.669 120.78C659.659 153.28 616.989 199.06 579.589 247.17C535.859 303.43 501.759 366.75 478.479 434.09C455.359 500.97 442.909 572.2 443.859 643.04C444.799 713.26 458.879 783.09 487.099 847.47C490.689 855.65 495.259 862.88 500.579 870.03C504.289 875.02 513.419 872.39 511.339 865.49C508.719 856.78 505.909 848.33 502.249 839.98C498.949 832.45 495.889 824.81 493.019 817.11C487.059 801.14 481.949 784.85 477.689 768.34C469.199 735.51 464.089 701.9 462.209 668.04C458.399 599.57 467.099 530.84 486.519 465.13C506.089 398.92 536.479 336 576.239 279.56C593.179 255.52 611.859 232.59 631.719 210.9C652.239 188.49 674.399 167.37 698.639 149.01C723.369 130.28 750.539 114.27 780.009 104.28C794.789 99.2698 810.259 95.3798 825.729 93.3098C833.399 92.2798 841.099 91.8298 848.829 91.6098C857.349 91.3698 865.809 90.8798 874.319 91.5898C882.989 92.3098 891.589 93.6198 900.119 95.3798C902.189 95.8098 903.009 92.8798 900.989 92.2098L901.009 92.2298Z" fill="#191919"/>
<path d="M902.999 97.9602C912.629 92.9902 922.239 87.8002 932.109 83.3102C941.539 79.0202 951.339 75.5902 961.209 72.4602C981.149 66.1302 1001.72 62.5202 1022.54 61.3102C1066.41 58.7602 1109.79 65.4502 1151.86 77.6502C1194.94 90.1402 1236.11 108.21 1275.2 130.14C1293.76 140.55 1311.83 151.84 1329.3 163.99C1333.38 166.83 1337.43 169.72 1341.44 172.66C1343.41 174.1 1345.37 175.55 1347.32 177.02C1348.16 177.65 1348.99 178.28 1349.82 178.91C1349.88 178.96 1351.03 179.84 1350.24 179.23C1349.36 178.56 1351.19 179.97 1351.36 180.1C1358.05 185.33 1364.57 190.79 1370.93 196.42C1384.25 208.22 1396.86 220.82 1408.84 233.97C1415.07 240.8 1421.12 247.79 1427.02 254.91C1433.1 262.25 1438.61 269.24 1443.66 275.93C1467.09 306.93 1487.85 339.95 1505.96 374.32C1524.33 409.19 1538.88 442.85 1551.09 480.18C1556.85 497.81 1561.84 515.69 1565.87 533.8C1567.81 542.54 1569.53 551.32 1570.99 560.15C1571.32 562.13 1571.63 564.11 1571.94 566.1C1572.1 567.16 1572.26 568.23 1572.41 569.29C1572.49 569.86 1572.9 572.73 1572.81 572.09C1572.7 571.27 1573.05 573.92 1573.11 574.42C1573.24 575.47 1573.37 576.53 1573.5 577.58C1573.77 579.83 1574.02 582.07 1574.24 584.32C1575.92 600.8 1576.54 617.36 1575.93 633.92C1575.64 641.76 1575.4 649.58 1574.64 657.39C1574.46 659.26 1574.26 661.13 1574.03 663C1573.92 663.93 1573.8 664.85 1573.68 665.78C1573.92 663.96 1573.51 666.94 1573.44 667.39C1572.9 671.04 1572.27 674.69 1571.56 678.31C1570.14 685.49 1568.36 692.61 1566.18 699.6C1565.1 703.07 1563.92 706.51 1562.63 709.91C1561.54 712.79 1560.37 715.76 1559.16 718.51C1553.65 730.99 1546.6 742.99 1538.05 753.63C1535.81 756.42 1533.21 758.99 1531.15 761.91C1529.36 764.45 1527.67 768.09 1525.29 770.11C1523 772.05 1526.31 775.33 1528.58 773.4C1530.93 771.41 1534.59 770.21 1537.22 768.48C1540.28 766.46 1542.91 763.67 1545.49 761.07C1550.84 755.68 1555.57 750.05 1559.93 744.05C1568.63 732.08 1575.42 718.96 1580.71 705.17C1592.2 675.26 1596.46 642.71 1595.47 610.81C1594.34 574.33 1587.85 538 1578.21 502.85C1567.73 464.63 1553.36 427.47 1536.36 391.69C1519.23 355.64 1499.2 320.94 1476.42 288.16C1454.44 256.52 1429.92 226.47 1402.35 199.51C1374.71 172.48 1343.58 149.49 1310.73 129.2C1271.69 105.08 1230.09 84.8002 1186.8 69.5302C1143.71 54.3602 1097.85 43.7802 1052 43.0402C1007.86 42.3302 962.999 50.3302 924.029 71.7102C914.299 77.0502 905.449 82.9902 897.189 90.4202C892.989 94.2002 898.329 100.36 902.999 97.9502V97.9602Z" fill="#191919"/>
<path d="M849.979 316.5C838.739 364.65 829.849 413.64 825.669 462.94C821.479 512.36 820.489 562.05 822.699 611.6C823.329 625.64 824.489 639.61 825.929 653.58C827.339 667.36 828.299 681.73 832.929 694.89C834.299 698.78 839.529 697.95 839.919 693.94C841.129 681.54 839.519 668.95 838.639 656.58C837.779 644.6 837.249 632.6 836.509 620.61C835.009 596.11 834.289 571.55 834.359 547C834.499 497.96 838.019 448.93 843.379 400.19C846.399 372.66 850.609 345.3 855.789 318.1C856.509 314.33 850.869 312.68 849.979 316.5Z" fill="#191919"/>
<path d="M818.582 317.99C810.102 343.38 802.252 368.98 795.292 394.83C788.312 420.78 783.162 447.33 778.872 473.85C770.382 526.26 766.482 579.35 770.252 632.38C771.292 646.94 772.872 661.45 774.972 675.89C776.072 683.41 777.602 690.86 779.222 698.28C780.842 705.71 782.312 713.32 784.982 720.45C785.932 722.98 790.372 722.9 790.092 719.76C788.932 706.66 786.072 693.61 784.432 680.54C782.812 667.66 781.172 654.83 780.182 641.88C778.192 615.82 778.062 589.66 779.002 563.55C780.912 510.42 789.342 458.17 800.492 406.27C806.802 376.92 813.552 347.75 821.482 318.79C822.002 316.91 819.182 316.16 818.572 317.99H818.582Z" fill="#191919"/>
<path d="M691.332 396.31C667.552 451.82 652.722 510.24 646.682 570.31C640.642 630.4 644.682 692.79 657.452 751.8C661.032 768.35 665.512 784.75 670.562 800.91C675.662 817.22 682.552 832.88 690.212 848.15C691.612 850.94 696.092 848.99 695.222 846.04C691.022 831.79 687.482 817.35 683.222 803.12C678.952 788.85 675.212 774.43 672.002 759.89C665.602 730.86 660.682 701.59 658.182 671.96C653.182 612.78 656.122 552.23 667.272 493.88C673.562 460.98 681.822 428.62 693.082 397.05C693.442 396.04 691.762 395.31 691.332 396.31Z" fill="#191919"/>
<path d="M1218.87 285.01C1264.17 321.02 1297.26 370 1322.4 421.65C1348.12 474.5 1365.46 533.29 1368.93 592.06C1369.86 607.88 1370.35 623.78 1369.51 639.61C1369.1 647.25 1368.66 654.92 1368.02 662.55C1367.38 670.13 1366.06 677.63 1365.59 685.21C1365.34 689.28 1371.75 691.19 1373.5 687.35C1379.25 674.75 1382.34 660 1384.05 646.3C1385.82 632.12 1386.9 617.59 1386.39 603.3C1385.3 572.78 1380.22 542.28 1372.4 512.79C1356.67 453.45 1328.65 396.41 1289.95 348.67C1269.82 323.85 1246.93 301 1220.86 282.42C1219.36 281.35 1217.4 283.84 1218.87 285V285.01Z" fill="#191919"/>
<path d="M1196.08 692.96C1199.29 690.83 1202.63 688.92 1205.86 686.83C1209.31 684.61 1212.47 681.86 1215.83 679.5C1222.43 674.86 1229.12 670.33 1236.1 666.27C1242.89 662.32 1249.92 658.82 1257.06 655.54C1260.85 653.8 1263.92 651.15 1267.57 649.14C1271.13 647.17 1274.86 645.53 1278.16 643.14C1282.15 640.24 1280.9 633.92 1275.6 633.7C1271.17 633.51 1266.79 634.5 1262.46 635.36C1258.41 636.17 1254.16 636.33 1250.34 637.91C1242.1 641.32 1234.13 645.24 1226.43 649.72C1218.92 654.09 1211.75 658.91 1204.95 664.32C1201.6 666.99 1197.96 669.67 1195.09 672.86C1192.07 676.21 1189.4 679.97 1186.72 683.59C1182.62 689.14 1190.59 696.61 1196.09 692.96H1196.08Z" fill="#191919"/>
<path d="M964.559 672.85C956.649 661.32 946.169 650.25 933.479 644.05C920.159 637.53 905.799 633.7 890.969 632.96C862.759 631.55 834.409 643.92 815.889 665.17C810.849 670.95 806.469 677.1 803.169 684.04C801.439 687.68 799.879 691.42 798.569 695.23C797.319 698.86 797.259 702.71 797.219 706.53C797.179 710.99 802.569 711.6 804.879 708.6C811.849 699.54 818.199 690.21 826.389 682.11C834.409 674.19 843.789 667.83 854.599 662.84C855.119 662.6 855.629 662.37 856.159 662.14C854.679 662.79 856.419 662.04 856.629 661.95C858.039 661.41 859.449 660.87 860.889 660.39C863.759 659.42 866.679 658.59 869.629 657.93C872.459 657.29 875.319 656.81 878.189 656.43C879.569 656.25 878.269 656.43 878.019 656.45C878.799 656.36 879.579 656.28 880.369 656.2C882.129 656.04 883.899 655.93 885.659 655.88C888.599 655.79 891.549 655.84 894.489 656.03C898.539 656.3 898.369 656.27 901.989 656.93C907.989 658.02 913.879 659.68 919.559 661.89C923.819 663.55 931.279 667.07 936.669 670.07C942.569 673.35 947.979 677.22 952.929 681.82C958.809 687.28 969.499 680.08 964.549 672.86L964.559 672.85Z" fill="#191919"/>
<path d="M931.831 1656.37C924.101 1704.28 922.291 1752.8 920.191 1801.22C919.151 1825.3 918.131 1849.39 917.261 1873.48C916.501 1894.24 915.721 1916.97 929.791 1933.9C936.901 1942.46 947.681 1947.01 958.211 1949.71C970.191 1952.79 982.561 1954.63 994.861 1955.77C1019.59 1958.06 1044.69 1956.42 1068.98 1951.29C1080.08 1948.94 1092.61 1946.44 1102.34 1940.33C1112.82 1933.75 1117.55 1922.97 1119.36 1911.12C1123.22 1885.75 1125.26 1859.92 1126.61 1834.31C1127.97 1808.42 1128.18 1782.48 1127.22 1756.57C1126.26 1730.4 1124.6 1704.03 1120.31 1678.18C1119.82 1675.2 1119.45 1672.14 1118.76 1669.21C1117.99 1665.95 1116.29 1662.89 1114.88 1659.86C1112.57 1654.9 1103.43 1655.83 1102.61 1661.46C1102.17 1664.51 1101.39 1667.7 1101.4 1670.79C1101.4 1673.79 1101.97 1676.87 1102.24 1679.86C1102.83 1686.43 1103.39 1692.99 1104.09 1699.55C1105.38 1711.68 1106.41 1723.84 1107.19 1736.02C1108.74 1760.37 1109.26 1784.78 1108.76 1809.17C1108.26 1833.56 1106.8 1857.94 1104.09 1882.19C1102.9 1892.87 1102.35 1904.3 1099.15 1914.62C1096.41 1923.47 1088.93 1925.98 1080.57 1928.37C1058.25 1934.74 1035.33 1937.84 1012.11 1937.41C1000.99 1937.2 989.871 1936.26 978.901 1934.38C969.251 1932.73 958.471 1931.15 949.961 1926.05C942.611 1921.65 939.561 1915.14 937.711 1907.17C935.801 1898.92 935.901 1889.81 936.191 1880.77C936.901 1858.34 937.891 1835.91 938.851 1813.48C941.071 1761.53 944.561 1709.35 939.921 1657.45C939.541 1653.22 932.641 1651.44 931.851 1656.36L931.831 1656.37Z" fill="#191919"/>
<path d="M933.65 1886.38C937.49 1876.47 943.39 1867.61 950.82 1860.03C957.99 1852.72 966.01 1845.9 974.63 1840.36C983.42 1834.7 992.85 1830.08 1002.75 1826.71C1007.41 1825.12 1012.13 1823.58 1016.93 1822.42C1018.02 1822.16 1019.12 1821.92 1020.22 1821.72C1021.21 1821.54 1024.84 1821.07 1022.06 1821.38C1028.18 1820.7 1034.28 1820.32 1040.45 1820.37C1043.87 1820.4 1047.3 1820.53 1050.71 1820.77C1052.47 1820.89 1054.23 1821.04 1055.99 1821.22C1056.75 1821.3 1057.51 1821.38 1058.27 1821.46C1058.69 1821.51 1061.45 1821.86 1060.5 1821.73C1059.42 1821.58 1061.95 1821.95 1062.34 1822.01C1063.23 1822.15 1064.11 1822.29 1065 1822.45C1066.89 1822.78 1068.77 1823.15 1070.65 1823.55C1074.09 1824.3 1077.5 1825.18 1080.86 1826.23C1082.38 1826.71 1083.88 1827.22 1085.38 1827.76C1086.17 1828.05 1086.95 1828.37 1087.74 1828.66C1088.13 1828.8 1089.33 1829.35 1087.55 1828.57C1087.98 1828.76 1088.41 1828.94 1088.84 1829.14C1091.71 1830.49 1094.52 1831.94 1097.17 1833.68C1097.89 1834.15 1098.59 1834.67 1099.3 1835.16C1099.7 1835.43 1100.57 1836.24 1098.99 1834.91C1099.31 1835.18 1099.65 1835.43 1099.96 1835.71C1101.18 1836.81 1102.39 1837.9 1103.49 1839.12C1104.1 1839.8 1105.13 1841.22 1103.98 1839.6C1104.44 1840.24 1104.9 1840.88 1105.32 1841.55C1105.74 1842.21 1106.13 1842.89 1106.49 1843.59C1106.82 1844.22 1107.57 1846.47 1106.79 1844.1C1107.29 1845.63 1107.77 1847.11 1108.12 1848.68C1108.19 1848.98 1108.22 1849.28 1108.28 1849.58C1108.53 1850.76 1108.16 1847.79 1108.19 1849.02C1108.21 1849.87 1108.31 1850.71 1108.31 1851.56C1108.31 1852.45 1108.24 1853.32 1108.21 1854.2C1108.13 1856.37 1108.52 1853.08 1108.09 1855.24C1107.48 1858.32 1106.94 1861.42 1107.96 1864.49C1109.97 1870.56 1116.61 1871.87 1121.32 1868.02C1127.92 1862.63 1127.12 1849.51 1125.15 1842.1C1123.3 1835.15 1119.17 1828.79 1113.9 1823.95C1102.53 1813.49 1086.99 1808.27 1072.08 1805.42C1057.05 1802.55 1041.42 1801.44 1026.16 1802.84C1007.01 1804.6 988.83 1811.95 972.65 1822.21C961.32 1829.4 950.73 1838.02 942.8 1848.91C935.12 1859.46 929.45 1871.68 926.79 1884.47C925.84 1889.02 932.02 1890.6 933.66 1886.36L933.65 1886.38Z" fill="#191919"/>
<path d="M984.112 1874.1C987.502 1870.83 990.832 1867.43 994.612 1864.61C998.522 1861.69 1003.08 1859.8 1007.42 1858.03C1017.34 1853.97 1028.11 1852 1038.77 1851.31C1050.58 1850.54 1063.22 1851.59 1073.23 1857.2C1082 1862.12 1088.04 1869.45 1089.74 1879.21C1092.8 1875.2 1095.85 1871.19 1098.91 1867.18C1060.99 1868.22 1022.79 1866.38 985.082 1862.27C975.512 1861.23 973.172 1877.75 982.792 1879.22C1002.13 1882.18 1021.58 1884.62 1041.12 1885.61C1060.37 1886.59 1079.65 1886.76 1098.91 1886.18C1105.52 1885.98 1109.16 1880.29 1108.08 1874.15C1104.08 1851.61 1082.52 1836.76 1061.03 1833.69C1048.49 1831.9 1035.93 1832.96 1023.51 1835.23C1013.94 1836.99 1003.72 1839.72 995.522 1845.1C986.372 1851.1 977.592 1859.58 977.102 1871.18C976.952 1874.84 981.652 1876.47 984.112 1874.09V1874.1Z" fill="#191919"/>
<path d="M1014.4 1133.17C987.949 1126.88 960.609 1142.61 940.159 1157.81C914.549 1176.85 897.489 1203.76 880.919 1230.52C845.729 1287.34 814.579 1346.67 787.799 1407.9C772.489 1442.9 759.159 1478.5 747.569 1514.9C746.599 1517.95 747.639 1521.75 749.959 1523.93C766.189 1539.21 785.429 1551.2 806.189 1559.28C816.169 1563.16 826.539 1566.03 837.099 1567.78C848.199 1569.62 860.019 1570.35 870.919 1567.19C876.049 1565.7 876.479 1557.63 870.919 1556.36C861.269 1554.16 851.329 1553.32 841.559 1551.62C831.429 1549.85 821.469 1547.07 811.889 1543.34C793.389 1536.15 776.889 1525.03 763.089 1510.8C763.889 1513.81 764.679 1516.82 765.479 1519.83C787.809 1459.35 812.819 1399.59 841.859 1342.01C856.479 1313.02 872.109 1284.54 888.699 1256.63C904.009 1230.87 919.129 1203.17 941.179 1182.45C951.449 1172.8 962.369 1165.09 975.329 1158.09C986.659 1151.97 999.429 1145.14 1012.69 1145.81C1019.93 1146.18 1021.45 1134.84 1014.4 1133.17Z" fill="#191919"/>
<path d="M971.598 1278.76C961.008 1306.61 953.118 1335.45 946.128 1364.41C939.378 1392.38 933.958 1420.51 930.368 1449.06C929.308 1457.48 928.348 1465.86 928.088 1474.35C927.958 1478.46 927.688 1482.61 928.028 1486.71C928.378 1490.95 928.048 1495.97 930.538 1499.6C931.698 1501.3 934.358 1502.05 935.918 1500.29C938.428 1497.45 938.908 1494.07 939.758 1490.48C940.658 1486.7 941.238 1482.93 941.818 1479.1C942.948 1471.63 943.958 1464.18 944.848 1456.67C946.528 1442.66 948.668 1428.71 951.178 1414.82C956.208 1386.94 962.378 1359.4 968.388 1331.73C970.188 1323.44 972.038 1315.16 973.898 1306.88C975.848 1298.19 977.148 1289.45 978.478 1280.64C979.158 1276.13 973.258 1274.4 971.608 1278.75L971.598 1278.76Z" fill="#191919"/>
<path d="M944.592 1298.37C949.042 1305.61 952.242 1313.43 954.102 1321.73C955.932 1329.9 957.402 1338.12 959.242 1346.28C959.682 1348.22 962.382 1347.98 962.942 1346.28C965.852 1337.33 965.302 1327.87 962.252 1319.05C959.222 1310.28 954.792 1302.22 949.112 1294.89C947.102 1292.29 942.912 1295.64 944.592 1298.38V1298.37Z" fill="#191919"/>
<path d="M793.971 1551.49C798.051 1558.07 802.851 1563.42 809.011 1568.1C814.851 1572.54 821.241 1575.96 828.041 1578.7C834.881 1581.46 842.031 1583.07 849.351 1583.9C853.151 1584.33 856.591 1584.13 860.371 1583.48C863.561 1582.93 869.011 1581.66 870.381 1578.41C871.161 1576.56 871.041 1574.99 869.741 1573.43C867.731 1571.03 863.121 1570.98 860.172 1570.69C857.072 1570.38 854.011 1570.11 850.901 1569.93C844.641 1569.59 838.491 1568.23 832.571 1566.18C820.851 1562.12 810.291 1554.38 801.731 1545.51C797.871 1541.51 791.011 1546.68 793.991 1551.49H793.971Z" fill="#191919"/>
<path d="M978.921 1147.89C1000 1195 1028.24 1239.13 1058.34 1280.94C1074.32 1303.14 1090.93 1324.89 1108 1346.27C1124.69 1367.17 1141.64 1387.96 1159.7 1407.69C1169.47 1418.36 1179.3 1428.99 1189.37 1439.38C1194.29 1444.45 1199.37 1449.38 1204.42 1454.33C1209.61 1459.42 1214.65 1465.08 1220.5 1469.41C1222.69 1471.03 1225.69 1470.46 1227.93 1469.41C1229.2 1468.81 1229.93 1468 1230.57 1466.77C1231.73 1464.54 1232.08 1461.54 1230.57 1459.34C1226.94 1454.05 1222.1 1449.41 1217.86 1444.6C1213.78 1439.96 1209.71 1435.3 1205.68 1430.63C1197.28 1420.91 1188.66 1411.39 1180.26 1401.67C1162.98 1381.68 1145.57 1361.79 1128.67 1341.47C1094.82 1300.75 1063.12 1258.33 1033.1 1214.72C1017.02 1191.36 1001.92 1167.29 986.961 1143.21C983.731 1138.01 976.511 1142.54 978.921 1147.91V1147.89Z" fill="#191919"/>
<path d="M1240.67 1459.49C1251.84 1448.61 1266.59 1444.84 1281.64 1443.17C1297.98 1441.36 1314.43 1441.36 1330.66 1438.49C1338.18 1437.16 1346.52 1435.32 1353.59 1434.39C1357.03 1433.93 1360.53 1433.66 1364 1433.71C1367.76 1433.76 1368.66 1433.79 1372.25 1434.76C1378.37 1436.43 1382.83 1439.69 1387.58 1445.08C1392.51 1450.67 1396.55 1457.87 1398.81 1464.27C1401.63 1472.25 1402.6 1478.07 1402.4 1486.29C1402.35 1488.22 1402.22 1490.14 1402.01 1492.06C1402.18 1490.51 1401.92 1492.7 1401.86 1493.07C1401.72 1493.93 1401.56 1494.79 1401.38 1495.65C1401.02 1497.36 1400.6 1499.06 1400.11 1500.74C1399.81 1501.75 1399.49 1502.76 1399.15 1503.75C1399.03 1504.1 1397.71 1507.53 1398.25 1506.25C1396.87 1509.53 1395.13 1512.67 1393.2 1515.66C1390.93 1519.19 1389.35 1521.18 1385.88 1524.67C1380.22 1530.35 1374.34 1534.17 1366.51 1537.94C1363.25 1539.51 1367.45 1537.6 1365.49 1538.39C1364.61 1538.74 1363.73 1539.07 1362.84 1539.39C1360.88 1540.09 1358.9 1540.72 1356.89 1541.27C1352.67 1542.42 1348.39 1543.42 1344.06 1544.01C1346.27 1543.71 1342.51 1544.15 1342.46 1544.16C1341.69 1544.23 1340.92 1544.3 1340.15 1544.36C1337.83 1544.53 1335.5 1544.62 1333.18 1544.65C1328.87 1544.69 1324.56 1544.48 1320.27 1544.05C1305.71 1542.59 1287.47 1536.81 1273.85 1529.73C1264.86 1525.06 1257.37 1520.13 1250.59 1513.73C1246.9 1510.25 1244.45 1507.44 1242.09 1503.78C1239.29 1499.43 1238.26 1497.47 1237 1492.86C1235.03 1485.61 1235.36 1479.46 1237.92 1471.63C1238.92 1468.57 1239.97 1466.1 1242.46 1462.72C1241.27 1464.34 1245.58 1458.59 1244.22 1460.53C1244.74 1459.79 1245.18 1458.99 1245.7 1458.25C1246.72 1456.82 1248.09 1455.49 1249.49 1454.26C1252.9 1451.27 1250.37 1444.03 1245.52 1444.67C1241.24 1445.24 1237.05 1446.17 1233.21 1448.24C1228.97 1450.53 1225.53 1455.12 1222.94 1459.05C1217.85 1466.79 1215.69 1476.47 1215.71 1485.66C1215.75 1505.96 1227.65 1524 1243.23 1536.16C1274.71 1560.72 1320.8 1573.93 1360.09 1563.66C1398.26 1553.67 1426.41 1517.33 1421.28 1477.36C1418.75 1457.65 1408.88 1438.03 1392.85 1425.88C1378.73 1415.18 1361.86 1416.17 1345.4 1419.72C1335.22 1421.92 1325.18 1424.76 1314.87 1426.32C1305.07 1427.81 1295.17 1428.57 1285.35 1429.9C1275.38 1431.25 1265.54 1433.29 1256.26 1437.29C1247.27 1441.16 1240.06 1446.69 1235.05 1455.18C1232.98 1458.68 1237.75 1462.32 1240.64 1459.5L1240.67 1459.49Z" fill="#191919"/>
<path d="M1139.97 1658.09C1139.75 1729.46 1143.86 1800.78 1144.83 1872.14C1144.95 1881.21 1145.5 1890.23 1145.63 1899.31C1145.76 1908.3 1145.24 1917.52 1145.94 1926.48C1146.49 1933.54 1155.05 1937.11 1160.73 1939.93C1166.09 1942.59 1171.69 1944.92 1177.34 1946.88C1201.21 1955.17 1227.84 1957.35 1252.91 1955.05C1267.67 1953.7 1282.36 1951.18 1296.63 1947.16C1303.38 1945.26 1309.95 1943 1316.37 1940.16C1319.59 1938.74 1323.28 1937.43 1325.9 1935C1328.14 1932.92 1329.84 1930.25 1331.31 1927.61C1332.83 1924.89 1330.85 1922.12 1328 1921.84C1325.72 1921.61 1323.48 1921.36 1321.19 1921.48C1317.93 1921.65 1315.23 1922.77 1312.18 1923.82C1306.84 1925.65 1301.43 1927.36 1296.01 1928.92C1284.88 1932.11 1272.72 1934.54 1261.87 1935.78C1238.15 1938.48 1213.56 1938.58 1190.76 1933.03C1178.91 1930.15 1168.72 1926.15 1158.58 1919.25C1159.97 1921.67 1161.35 1924.08 1162.74 1926.5C1162.47 1856.66 1161.41 1786.69 1156.08 1717.01C1154.57 1697.29 1152.65 1677.72 1150.12 1658.11C1149.31 1651.85 1140.01 1651.38 1139.98 1658.11L1139.97 1658.09Z" fill="#191919"/>
<path d="M1306.33 1647.39C1309.89 1667.05 1314.81 1686.4 1318 1706.16C1321.13 1725.57 1323.51 1745.15 1325.65 1764.69C1327.8 1784.33 1329.45 1804.02 1330.9 1823.72C1331.62 1833.57 1332.3 1843.42 1332.96 1853.27C1333.61 1862.98 1334.85 1872.71 1334.97 1882.45C1335.09 1891.74 1334.11 1901.33 1329.71 1909.67C1327.81 1913.27 1326.15 1917.1 1323.68 1920.36C1321.14 1923.71 1317.67 1926.05 1314.85 1929.1C1313.11 1930.99 1314.48 1933.49 1316.79 1933.78C1324.6 1934.75 1332.71 1928.97 1338.21 1923.97C1344.69 1918.08 1348.45 1908.83 1350.54 1900.48C1355.61 1880.25 1352.76 1858.97 1351.12 1838.49C1347.73 1796.39 1344.11 1754.13 1335.92 1712.66C1331.39 1689.72 1326.65 1665.92 1317.7 1644.26C1314.83 1637.33 1304.97 1639.79 1306.34 1647.39H1306.33Z" fill="#191919"/>
<path d="M1153.16 1835.42C1159.68 1834.98 1166.74 1832.23 1172.91 1830.11C1179.72 1827.76 1186.69 1825.9 1193.75 1824.48C1207.93 1821.63 1222.27 1819.91 1236.75 1820.18C1264.4 1820.68 1291 1828.51 1314.17 1843.67C1320.02 1847.5 1325.17 1851.6 1329.9 1857.07C1331.53 1858.95 1333.4 1861.77 1334.9 1864.65C1336.33 1867.39 1337.1 1871.1 1339.04 1874.46C1342.42 1880.32 1353.84 1880.1 1354.9 1872.39C1357.12 1856.31 1342.97 1842.09 1331.26 1833.14C1319.46 1824.12 1305.75 1817.18 1291.84 1812.07C1276.8 1806.54 1260.76 1803.69 1244.79 1802.82C1228.85 1801.94 1211.97 1802.84 1196.44 1806.75C1187.6 1808.97 1178.99 1811.99 1170.61 1815.57C1163.28 1818.7 1154.63 1823.2 1149.96 1829.87C1148.39 1832.11 1150.46 1835.61 1153.15 1835.43L1153.16 1835.42Z" fill="#191919"/>
<path d="M1162.82 1876.52C1165.33 1874.7 1166.85 1872.72 1168.69 1870.24C1170.65 1867.6 1173.14 1865.74 1175.79 1863.88C1181.38 1859.96 1186.84 1857.06 1193.47 1855.31C1207.19 1851.69 1221.02 1851.22 1234.8 1854.83C1241.74 1856.65 1248.31 1859.3 1254.51 1862.89C1257.41 1864.56 1260.24 1866.39 1262.9 1868.43C1265.44 1870.38 1267.78 1873.54 1270.5 1875.12C1275.87 1878.24 1270.65 1875.85 1271.38 1875.9C1268.64 1875.7 1273.36 1871.29 1273.33 1871.36C1273.57 1870.86 1275.05 1871.97 1272.92 1871.52C1272.15 1871.36 1271.6 1871.8 1272.36 1871.69C1267.95 1872.29 1263.1 1871.5 1258.67 1871.32C1248.92 1870.93 1239.16 1870.55 1229.41 1870.14C1218.89 1869.7 1208.36 1869.26 1197.84 1868.81C1192.45 1868.58 1187.06 1868.36 1181.67 1868.13C1176.23 1867.9 1168.35 1865.97 1164.53 1870.87C1162.68 1873.24 1161.74 1876.34 1163.46 1879.13C1167.1 1884.99 1174.05 1884.02 1180.12 1884.36C1186.02 1884.68 1191.93 1885.01 1197.83 1885.33C1209.12 1885.95 1220.42 1886.57 1231.71 1887.18C1243.26 1887.81 1254.81 1888.49 1266.36 1889.14C1275.76 1889.67 1288.55 1887.63 1289.05 1875.63C1289.48 1865.44 1278.91 1857.85 1271.53 1852.48C1264.2 1847.15 1255.99 1843.09 1247.46 1840.05C1230.4 1833.97 1211.41 1832.9 1193.79 1837.1C1184.3 1839.36 1174.42 1844.38 1167.44 1851.29C1161.92 1856.75 1155.11 1868.26 1159.99 1875.78C1160.55 1876.64 1161.87 1877.19 1162.8 1876.52H1162.82Z" fill="#191919"/>
<path d="M1146.98 1711.95C1154.06 1714.66 1161.07 1716.36 1168.64 1716.8C1176.05 1717.23 1183.47 1717.59 1190.89 1717.89C1205.2 1718.46 1219.55 1718.29 1233.86 1718.03C1248.18 1717.77 1262.49 1717.26 1276.79 1716.49C1291.74 1715.69 1307.26 1715.41 1321.77 1711.58C1330.89 1709.18 1328.49 1696.26 1319.62 1695.71C1305.4 1694.83 1290.98 1696.99 1276.78 1698.01C1262.23 1699.06 1247.66 1699.86 1233.08 1700.39C1218.76 1700.91 1204.43 1701.03 1190.11 1701.36C1182.95 1701.53 1175.79 1701.63 1168.62 1701.67C1161.22 1701.71 1154.07 1703.02 1146.96 1705.08C1143.37 1706.12 1143.8 1710.74 1146.96 1711.95H1146.98Z" fill="#191919"/>
<path d="M931.99 1721.36C936.1 1723.01 940.3 1724.69 944.67 1725.47C950.03 1726.42 955.44 1727.15 960.85 1727.78C972.27 1729.1 983.76 1729.79 995.25 1730.09C1021.11 1730.77 1046.94 1729.01 1072.57 1725.58C1086.71 1723.69 1100.61 1720.27 1114.29 1716.23C1123.02 1713.65 1119.32 1701.14 1110.58 1702.76C1098.78 1704.95 1086.9 1706 1075.04 1707.69C1062.63 1709.46 1050.15 1710.74 1037.64 1711.61C1013.66 1713.29 989.45 1714.21 965.44 1712.68C959.77 1712.32 954.091 1711.83 948.461 1711.08C944.261 1710.52 938.42 1710.28 933.57 1709.79C930.7 1709.49 928.1 1712.26 927.79 1714.9C927.42 1718.01 929.211 1720.24 932.011 1721.36H931.99Z" fill="#191919"/>
<path d="M1394.7 597.58C1399.12 626.73 1403.48 655.92 1407.14 685.18C1410.75 714.01 1414.55 742.86 1416.03 771.9C1416.45 780.16 1417.35 788.4 1417.84 796.66C1418.09 800.94 1418.76 805.11 1419.41 809.35C1420.09 813.79 1421.54 817.7 1423.04 821.93C1424.43 825.85 1429.2 825.52 1430.7 821.93C1432.02 818.78 1433.63 815.6 1434.31 812.25C1435.14 808.16 1435.86 803.83 1436.15 799.68C1436.67 792.22 1436.57 784.61 1436.48 777.14C1436.3 762.52 1434.42 747.72 1432.7 733.21C1429.15 703.38 1423.27 674.05 1416 644.91C1411.86 628.32 1407.51 611.78 1403.15 595.25C1401.67 589.66 1393.87 592.15 1394.7 597.58Z" fill="#191919"/>
<path d="M1434.56 692.14C1451.02 686.14 1467.26 696.55 1478.27 708.23C1490.38 721.09 1496.68 739.48 1498.97 756.72C1501.43 775.2 1499.44 794.38 1494.99 812.47C1490.55 830.49 1485.65 846.21 1476.23 861.65C1471.41 869.55 1466.23 875.98 1459.08 882.62C1455.84 885.63 1452.63 887.79 1448.51 890.17C1444.42 892.52 1439.97 894.01 1435.94 896.41C1431.81 898.86 1432.41 905.76 1437.31 906.92C1446.95 909.22 1457.75 905.08 1466.04 900.28C1475.07 895.05 1482.1 888.01 1488.38 879.78C1500.88 863.39 1508.88 843.47 1514.16 823.67C1525.1 782.66 1522.89 730.62 1492.77 697.84C1477.63 681.36 1451.67 670.85 1431.19 684.12C1427.24 686.68 1429.67 693.92 1434.57 692.13L1434.56 692.14Z" fill="#191919"/>
<path d="M576.33 915.14C579.42 917.07 582.24 919.41 585.35 921.3C586.85 922.21 588.33 923.17 589.77 924.17C590.5 924.67 591.21 925.19 591.92 925.71C592.28 925.97 592.63 926.24 592.98 926.51C592.37 926.04 592.32 926.01 592.82 926.41C593.5 926.96 594.17 927.51 594.83 928.07C595.36 928.53 599.19 931.61 597.2 930.01C598.57 931.11 599.92 932.24 601.23 933.41C603.85 935.76 606.34 938.26 608.67 940.9C609.84 942.22 610.96 943.57 612.05 944.96C610.75 943.31 612.5 945.6 612.61 945.75C613.13 946.46 613.63 947.18 614.12 947.91C616.11 950.83 617.75 953.92 619.55 956.95C623.47 963.54 627.12 971.62 634.09 974.42C636.22 975.27 638.3 973.78 639.5 972.22C642.42 968.43 641.7 963.55 641.07 959.12C640.46 954.82 638.86 950.68 637.01 946.75C633.54 939.38 627.88 932.5 622.38 926.58C616.87 920.66 610.54 915.16 603.45 911.23C599.72 909.16 595.84 907.41 591.88 905.81C588.05 904.26 583.58 903.91 579.51 903.42C576.81 903.1 574.1 905.61 573.43 908.05C572.68 910.79 573.95 913.68 576.33 915.16V915.14Z" fill="#191919"/>
<path d="M588.979 947.29C591.669 946.19 594.439 945.34 597.299 944.81C597.679 944.74 598.059 944.67 598.449 944.61C599.329 944.48 599.219 944.49 598.119 944.65C598.769 944.42 599.739 944.49 600.429 944.45C601.779 944.37 603.139 944.35 604.489 944.4C605.259 944.43 606.039 944.47 606.809 944.54C607.199 944.57 609.209 944.84 607.009 944.52C609.019 944.81 611.089 945.01 613.119 945.11C615.199 945.21 617.539 945.3 619.379 944.21C619.589 944.06 619.809 943.91 620.029 943.77C619.359 944.07 619.329 944.11 619.959 943.89C620.549 943.77 621.139 943.56 621.729 943.41C623.929 942.87 624.819 940.26 623.779 938.38C623.479 937.84 623.179 937.31 622.849 936.78C622.809 936.72 622.349 936.05 622.369 936.03C622.309 936.09 622.869 937.23 622.529 936.47C621.619 934.44 620.649 933.09 618.649 931.95C617.789 931.46 616.929 931.04 616.019 930.66C612.369 929.12 608.419 928.67 604.479 928.68C597.039 928.69 589.909 930.46 583.169 933.52C579.769 935.06 578.759 939.79 580.089 942.93C581.399 946.04 585.499 948.72 588.979 947.29Z" fill="#191919"/>
<path d="M488.949 832.04C488.209 832.48 487.519 832.91 486.729 833.25L489.839 832.84C489.759 832.81 489.679 832.78 489.599 832.75C487.399 831.94 485.239 833.35 484.009 835.03C474.539 847.92 473.599 865.58 477.869 880.63C480.079 888.42 483.919 895.37 489.049 901.6C491.569 904.67 494.359 907.36 497.799 909.37C501.489 911.53 505.319 912.27 509.479 913.03C512.259 913.54 515.179 909.99 512.539 907.76C509.929 905.55 508.149 902.93 505.829 900.44C503.639 898.1 501.369 895.73 499.349 893.24C495.539 888.53 492.659 882.8 490.739 877.07C486.689 864.95 487.369 851.73 492.559 840.03C493.419 838.08 493.529 835.59 491.789 834.03C491.739 833.98 491.679 833.93 491.629 833.88C492.019 834.83 492.419 835.78 492.809 836.73C492.769 836.19 492.829 835.65 492.979 835.12C493.409 832.86 491.139 830.74 488.959 832.03L488.949 832.04Z" fill="#191919"/>
<path d="M499.65 917.46C496.5 924.49 493.31 931.49 490.39 938.61C487.46 945.76 485.93 953.49 483.98 960.97C480.13 975.72 476.28 990.47 472.44 1005.22C464.68 1034.98 456.95 1064.74 449.41 1094.56C434.79 1152.35 419.04 1211.01 421.12 1271.15C423.05 1326.82 438.52 1382 466.12 1430.41C493.34 1478.15 532.01 1517.99 560.75 1564.73C574.24 1586.66 584.3 1609.87 590.77 1634.81C596.87 1658.29 598.64 1683.63 592.73 1707.33C591.21 1713.45 590.41 1719.75 588.97 1725.9C588.17 1729.31 592.82 1732.82 595.38 1729.63C599.32 1724.74 603.05 1719.63 605.58 1713.85C608.11 1708.08 609.74 1701.75 611.06 1695.6C613.78 1682.95 614.84 1669.97 614.02 1657.06C612.32 1630.19 604.46 1604.74 593 1580.5C569.62 1531.04 531.39 1490.55 500.81 1445.67C470.19 1400.74 449.66 1349.64 443.61 1295.4C440.45 1267.07 441.1 1238.43 444.95 1210.2C448.97 1180.76 455.9 1151.79 463.04 1122.97C470.48 1092.95 477.99 1062.96 485.25 1032.9C488.89 1017.82 492.54 1002.74 496.18 987.65C497.94 980.37 499.7 973.09 501.46 965.81C503.33 958.09 505.74 950.3 506.52 942.39C507.26 934.88 507.78 927.35 508.31 919.82C508.63 915.36 501.52 913.26 499.63 917.47L499.65 917.46Z" fill="#191919"/>
<path d="M626.939 1058.49C644.859 1106.12 663.089 1153.66 680.039 1201.65C697.019 1249.7 710.969 1299.17 718.659 1349.61C725.189 1392.5 726.259 1438.43 720.449 1481.61C714.669 1524.56 702.239 1567.35 681.339 1605.85C670.129 1626.49 656.339 1645.34 641.209 1663.26C625.419 1681.97 610.609 1701.51 596.099 1721.24C592.539 1726.08 589.639 1731.38 586.709 1736.62C586.109 1737.7 587.539 1738.84 588.429 1737.95C597.159 1729.28 605.679 1720.36 614.549 1711.83C623.609 1703.1 633.449 1695.04 642.219 1686.04C659.379 1668.43 675.499 1649.22 689.059 1628.7C713.919 1591.09 730.329 1547.14 738.029 1502.78C745.909 1457.39 746.529 1410.98 741.039 1365.28C734.889 1314.15 721.619 1264.49 704.389 1216.04C695.589 1191.28 685.989 1166.86 675.019 1142.98C664.299 1119.63 653.189 1096.45 641.569 1073.53C638.619 1067.7 635.659 1061.88 632.689 1056.06C631.099 1052.93 625.659 1055.12 626.929 1058.49H626.939Z" fill="#191919"/>
<path d="M576.29 1042.31C559.71 1137.77 553.28 1237.75 574.52 1333.06C593.96 1420.26 637.55 1502.58 634.88 1593.81C634.25 1615.12 631.42 1637.26 624.81 1657.59C621.42 1668.01 616.76 1677.61 611.86 1687.38C606.84 1697.39 601.42 1707.03 593.98 1715.48C593.29 1716.27 594.38 1717.39 595.14 1716.64C602.08 1709.92 608.85 1703.02 614.8 1695.39C620.67 1687.86 625.12 1679.37 629 1670.66C637.04 1652.61 642.51 1633.66 645.01 1614.08C650.32 1572.4 644.22 1530.91 633.37 1490.59C620.97 1444.51 603.15 1400.12 590.41 1354.15C577.33 1306.94 571.46 1258.39 570.78 1209.46C570.39 1181.62 571.55 1153.77 573.66 1126C575.77 1098.27 577.75 1070.54 580.07 1042.83C580.25 1040.7 576.67 1040.19 576.3 1042.32L576.29 1042.31Z" fill="#191919"/>
<path d="M1518.04 663C1522.38 679.07 1523.44 696.36 1521.52 712.89C1520.57 721.12 1518.5 729.05 1516.04 736.93C1514.82 740.85 1513.74 744.78 1512.3 748.63C1510.82 752.6 1510.04 756.8 1508.82 760.87C1508.28 762.68 1510.72 764.14 1512.02 762.74C1514.91 759.63 1518.09 756.4 1520.05 752.6C1522.11 748.62 1524.12 744.48 1525.61 740.24C1528.52 731.95 1529.94 722.89 1530.79 714.18C1532.55 696.12 1529.95 678.42 1523.33 661.54C1522.07 658.33 1517.11 659.51 1518.05 663H1518.04Z" fill="#191919"/>
<path d="M1467.14 899.45C1465.77 901.21 1464.29 902.87 1462.68 904.41C1460.57 906.43 1459.46 907.07 1457.41 908.78C1456.57 909.48 1455.81 910.26 1454.99 910.98C1454.58 911.34 1454.17 911.7 1453.75 912.04C1453.49 912.26 1452.59 912.97 1453.3 912.42C1451.49 913.81 1449.55 915.05 1447.56 916.17C1446.61 916.7 1445.64 917.21 1444.66 917.68C1444.17 917.92 1443.67 918.14 1443.17 918.36C1444.24 917.89 1442.9 918.46 1442.69 918.54C1440.56 919.36 1438.37 920.04 1436.15 920.57C1434.04 921.07 1432.03 921.87 1429.93 922.43C1427.43 923.1 1424.51 923.65 1422.71 925.66C1421.08 927.48 1421.16 929.82 1422.71 931.66C1424.71 934.04 1428.36 934.44 1431.26 934.61C1434.15 934.77 1437.04 934.73 1439.86 933.99C1444.93 932.66 1449.9 930.54 1454.4 927.84C1459.02 925.07 1464.03 921.53 1467.24 917.15C1470.23 913.06 1472.33 908.13 1473.79 903.3C1474.86 899.73 1469.66 896.21 1467.15 899.44L1467.14 899.45Z" fill="#191919"/>
<path d="M1465.63 910.79C1477.1 930.7 1488.07 950.88 1499.03 971.07C1510.01 991.3 1520.72 1011.72 1530.63 1032.49C1549.91 1072.89 1566.97 1114.61 1578.83 1157.82C1584.86 1179.78 1589.32 1202.03 1592.75 1224.53C1594.24 1234.31 1595.27 1242.43 1596.29 1252.94C1597.3 1263.3 1598.01 1273.68 1598.38 1284.08C1599.81 1324.12 1596.47 1362.17 1585.09 1400.35C1578.84 1421.33 1571.08 1441.03 1560.34 1460.09C1554.8 1469.91 1548.13 1478.95 1542.35 1488.59C1536.47 1498.4 1529.21 1507.35 1523.77 1517.39C1522.78 1519.22 1524.76 1521.17 1526.58 1520.2C1535.84 1515.29 1543.53 1507.88 1551.05 1500.65C1558.59 1493.4 1564.72 1485.12 1570.58 1476.47C1582.13 1459.4 1591.5 1441.04 1599.09 1421.9C1614.07 1384.15 1619.71 1342.37 1620.34 1301.97C1621.03 1257.8 1615.72 1213.29 1605.06 1170.44C1593.83 1125.33 1577.14 1081.31 1556.07 1039.89C1534.83 998.14 1510.16 958.6 1482.51 920.81C1479.11 916.16 1475.68 911.53 1472.24 906.92C1469.36 903.07 1463.09 906.4 1465.62 910.79H1465.63Z" fill="#191919"/>
<path d="M1454.39 1505.51C1457.63 1525.36 1470.76 1541.9 1480.52 1558.98C1483.59 1564.35 1486.53 1569.81 1489.22 1575.39C1489.81 1576.61 1490.38 1577.83 1490.94 1579.06C1491.27 1579.79 1491.6 1580.52 1491.93 1581.26C1491.94 1581.29 1492.98 1583.69 1492.38 1582.28C1491.78 1580.88 1492.78 1583.26 1492.79 1583.29C1493.08 1584.01 1493.37 1584.74 1493.65 1585.47C1494.2 1586.9 1494.73 1588.34 1495.23 1589.79C1496.94 1594.77 1498.22 1599.83 1499.08 1605.02C1498.56 1601.88 1499.15 1606.13 1499.2 1606.94C1499.26 1607.99 1499.29 1609.04 1499.29 1610.09C1499.29 1611.11 1499.2 1612.13 1499.15 1613.15C1499.11 1613.92 1498.6 1615.82 1499.23 1612.85C1499.07 1613.61 1498.97 1614.38 1498.79 1615.14C1498.53 1616.26 1498.1 1617.33 1497.82 1618.43C1497.35 1620.29 1498.81 1616.89 1498.09 1617.86C1497.72 1618.36 1497.51 1619.08 1497.21 1619.63C1496.66 1620.63 1496 1621.55 1495.37 1622.5C1497.15 1619.84 1494.75 1623.05 1494.03 1623.73C1493.66 1624.08 1493.26 1624.38 1492.9 1624.74C1491.73 1625.91 1494.76 1623.5 1492.44 1625.04C1491.33 1625.78 1490.25 1626.58 1489.12 1627.3C1487.9 1628.07 1486.59 1628.66 1485.36 1629.39C1482.88 1630.86 1481.46 1632.72 1480.2 1635.2C1478.45 1638.64 1479.21 1643.14 1482.8 1645.13C1495.13 1651.98 1510.63 1638.75 1515.58 1627.76C1520.55 1616.71 1519.85 1604.48 1516.89 1592.96C1513.71 1580.55 1508.06 1568.7 1501.96 1557.48C1495.85 1546.23 1489.2 1535.14 1481.44 1524.95C1477.64 1519.96 1474.02 1514.89 1469.49 1510.55C1465.75 1506.97 1464 1505.78 1460.13 1502.18C1457.47 1499.71 1453.87 1502.23 1454.41 1505.51H1454.39Z" fill="#191919"/>
<path d="M1393.35 986.05C1389.98 995.52 1386.99 1005 1384.31 1014.68C1381.66 1024.28 1380.46 1034.44 1378.86 1044.26C1375.56 1064.48 1373.76 1084.99 1372.22 1105.41C1369.24 1145.07 1368.5 1184.93 1370.73 1224.65C1371.35 1235.7 1372.2 1246.73 1373.29 1257.74C1373.88 1263.64 1374.73 1269.48 1375.72 1275.32C1376.75 1281.41 1378.45 1287.32 1383.41 1291.38C1386.13 1293.6 1389.55 1293.28 1391.58 1290.33C1397.32 1282 1394.87 1270.21 1393.84 1260.74C1392.78 1250.99 1391.91 1241.21 1391.23 1231.43C1389.84 1211.6 1389.2 1191.73 1389.23 1171.85C1389.26 1152.21 1389.92 1132.56 1391.15 1112.96C1392.4 1093.07 1394.83 1073.32 1396.44 1053.48C1397.34 1042.48 1398.69 1031.51 1399.56 1020.51C1400.44 1009.38 1400.11 998.11 1400.06 986.96C1400.04 982.96 1394.6 982.5 1393.33 986.05H1393.35Z" fill="#191919"/>
<path d="M1479.48 1238.63C1472.82 1268.52 1470.72 1299.22 1472.04 1329.78C1473.37 1360.53 1478.78 1391.12 1485.6 1421.1C1492.5 1451.44 1501.53 1481.18 1509.86 1511.13C1517.89 1540 1524.93 1569.87 1522.43 1600.05C1521.75 1608.23 1520.47 1616.85 1517.73 1624.61C1518.43 1622.62 1516.84 1625.59 1518.06 1624.16C1517.77 1624.49 1517.47 1624.81 1517.15 1625.11C1516.05 1626.18 1517.76 1624.77 1516.93 1625.33C1515.98 1625.97 1514.99 1626.52 1513.96 1627.04C1513.77 1627.14 1512.52 1627.67 1513.72 1627.18C1513.06 1627.45 1512.38 1627.68 1511.71 1627.91C1506.65 1629.62 1501.28 1630.38 1496.03 1631.29C1493.85 1631.67 1491.52 1631.9 1488.61 1632.75C1486.39 1633.4 1484.74 1634.58 1482.81 1635.76C1480.55 1637.15 1480.09 1640.3 1481.98 1642.21C1489.38 1649.72 1501.66 1648.2 1511.06 1645.81C1521.09 1643.26 1531.21 1638.32 1534.06 1627.59C1542.24 1596.76 1537.93 1564.22 1530.2 1533.79C1522.32 1502.79 1511.18 1472.7 1502.67 1441.87C1494.11 1410.86 1486.94 1379.34 1483.16 1347.36C1478.91 1311.45 1477.69 1275.59 1483.74 1239.78C1484.2 1237.05 1480.14 1235.82 1479.51 1238.61L1479.48 1238.63Z" fill="#191919"/>
<path d="M1220.67 1142.79C1222.78 1144.54 1224.56 1146.11 1227.01 1147.42C1229.55 1148.78 1232.34 1149.73 1234.97 1150.94C1239.97 1153.24 1244.85 1155.81 1249.59 1158.59C1259.06 1164.15 1268.84 1170.45 1277.25 1177.01C1295.86 1191.52 1312.83 1208.72 1327.57 1227.11C1341.36 1244.3 1353.99 1265.09 1364.53 1285.57C1376.87 1309.55 1388.89 1333.8 1399.24 1358.72C1402.11 1365.62 1404.86 1372.57 1407.49 1379.57C1410.33 1387.12 1412.71 1394.87 1416.11 1402.19C1419.2 1408.82 1421.86 1415.71 1424.09 1422.68C1425.26 1426.36 1426.16 1430.23 1427.63 1433.8C1428.39 1435.63 1429.24 1437.49 1430.62 1438.95C1432.11 1440.52 1433.72 1441.36 1434.95 1443.24C1435.86 1444.63 1438.67 1444.73 1438.96 1442.72C1439.41 1439.53 1441.34 1437.05 1441.53 1433.79C1441.76 1429.87 1440.59 1425.87 1439.76 1422.07C1438.29 1415.28 1436.91 1408.48 1435.46 1401.69C1433.99 1394.79 1432.5 1388.21 1430.25 1381.51C1427.95 1374.67 1425.53 1367.88 1422.99 1361.13C1412.92 1334.32 1401.38 1307.98 1388.3 1282.5C1365.38 1237.86 1336.34 1195.52 1295.4 1165.55C1284.8 1157.79 1273.53 1150.6 1261.43 1145.43C1255.13 1142.74 1248.74 1140.3 1242.18 1138.33C1239.21 1137.43 1236.16 1136.46 1233.11 1135.89C1229.35 1135.18 1226.11 1135.49 1222.41 1136.17C1219.59 1136.69 1218.44 1140.96 1220.66 1142.81L1220.67 1142.79Z" fill="#191919"/>
<path d="M1372.89 1566.59C1376.43 1568 1379.82 1569.52 1383.6 1570.05C1387.07 1570.54 1390.55 1571 1394.04 1571.32C1399.29 1571.8 1404.53 1571.71 1409.77 1571.06C1415.46 1570.35 1421.38 1569.44 1426.79 1567.45C1430.19 1566.2 1433.6 1564.47 1436.79 1562.75C1438.47 1561.84 1439.92 1560.63 1441.42 1559.44C1443.12 1558.1 1443.97 1556.38 1445.39 1554.8C1447.95 1551.94 1446.17 1547.49 1442.29 1547.32C1440.38 1547.24 1438.66 1546.69 1436.74 1546.81C1434.82 1546.93 1432.85 1547.16 1430.99 1547.62C1428 1548.35 1424.95 1549.2 1422.01 1550.1C1417.03 1551.62 1412.3 1553.64 1407.18 1554.76C1406.05 1555.01 1404.92 1555.23 1403.78 1555.42C1403.14 1555.53 1402.5 1555.63 1401.86 1555.72C1402.74 1555.6 1402.19 1555.68 1401.63 1555.74C1398.95 1556.01 1396.27 1556.31 1393.59 1556.51C1390.51 1556.74 1387.42 1556.84 1384.34 1556.94C1380.44 1557.06 1376.7 1558.12 1372.89 1558.94C1368.67 1559.85 1369.59 1565.29 1372.89 1566.6V1566.59Z" fill="#191919"/>
<path d="M1438.46 1551.7C1437.32 1561.03 1440 1570.06 1441.53 1579.22C1442.12 1582.75 1442.57 1586.74 1442.52 1590.85C1442.51 1591.8 1442.45 1592.74 1442.4 1593.69C1442.38 1594.09 1442.34 1594.49 1442.29 1594.89C1442.33 1594.54 1442.54 1593.51 1442.25 1595.11C1441.91 1597.04 1441.39 1598.9 1440.74 1600.75C1440.61 1601.13 1439.72 1603.3 1440.3 1602.04C1439.86 1603.01 1439.35 1603.96 1438.79 1604.86C1438.48 1605.37 1437.46 1606.81 1437.51 1606.74C1437.45 1606.82 1436.09 1608.26 1435.5 1608.84C1433.95 1610.34 1432.69 1611.28 1430.93 1612.4C1429.83 1613.09 1428.71 1613.73 1427.57 1614.35C1425.72 1615.36 1428.4 1614.25 1426.62 1614.75C1425.1 1615.17 1423.62 1615.62 1422.08 1615.92C1421.71 1615.99 1419.49 1616.35 1420.81 1616.17C1419.74 1616.32 1418.67 1616.4 1417.6 1616.47C1413.24 1616.73 1408.85 1616.59 1404.51 1616.14C1400.88 1615.76 1395.68 1614.71 1391.34 1613.18C1387.24 1611.73 1382.96 1611.33 1378.72 1612.11C1377.11 1612.41 1376.04 1614.15 1376 1615.68C1375.74 1626.78 1389.85 1629.85 1398.4 1631.12C1408.34 1632.6 1418.81 1632.91 1428.67 1630.66C1438.72 1628.37 1448.48 1621.02 1453.7 1612.18C1459.09 1603.05 1458.77 1592.29 1456.83 1582.21C1454.69 1571.05 1451.12 1559.68 1445.6 1549.76C1443.57 1546.12 1438.88 1548.21 1438.45 1551.7H1438.46Z" fill="#191919"/>
<path d="M1373.12 1566C1371.26 1571.34 1370.25 1576.96 1370.01 1582.6C1369.76 1588.34 1371.31 1593.94 1373.45 1599.23C1375.61 1604.58 1378.27 1609.57 1381.77 1614.17C1383.8 1616.83 1385.95 1619 1388.85 1620.73C1391.63 1622.39 1394.29 1622.23 1397.33 1621.62C1398.23 1621.44 1398.98 1620.41 1398.94 1619.51C1398.82 1617.02 1398.9 1614.77 1397.58 1612.53C1396.22 1610.22 1394.65 1608.11 1392.94 1606.05C1390.51 1603.13 1387.6 1598.28 1385.95 1594.48C1384.21 1590.47 1383.02 1585.45 1381.68 1581.02C1380.28 1576.39 1379.59 1571.7 1379.58 1566.87C1379.57 1563.04 1374.32 1562.57 1373.12 1566Z" fill="#191919"/>
<path d="M1379.76 1602.78C1378.97 1606.98 1379.21 1611.34 1380.59 1615.41C1381.28 1617.43 1382.18 1619.4 1383.34 1621.19C1383.84 1621.96 1384.33 1622.61 1385.08 1623.17C1385.46 1623.45 1385.86 1623.71 1386.28 1623.96C1387.23 1624.53 1388.16 1624.92 1389.26 1625.1C1390.59 1625.32 1392.13 1624.26 1391.62 1622.74C1390.98 1620.83 1390.14 1618.88 1388.84 1617.34C1388.71 1617.19 1388.58 1617.03 1388.46 1616.87C1388.75 1617.24 1388.48 1616.89 1388.34 1616.7C1388.07 1616.33 1387.82 1615.95 1387.58 1615.57C1387.1 1614.8 1386.66 1614 1386.27 1613.18C1386.18 1613 1386.1 1612.82 1386.02 1612.63C1386.15 1612.93 1386.03 1612.66 1385.98 1612.51C1385.82 1612.08 1385.66 1611.66 1385.52 1611.22C1385.24 1610.36 1385.01 1609.48 1384.84 1608.59C1384.66 1607.65 1384.62 1607.34 1384.57 1606.31C1384.52 1605.35 1384.54 1604.4 1384.61 1603.44C1384.82 1600.69 1380.28 1600.05 1379.77 1602.78H1379.76Z" fill="#191919"/>
<path d="M861.051 1580.54C861.051 1585.52 861.271 1590.49 861.741 1595.44C861.981 1598 862.041 1600.88 862.901 1603.31C863.321 1604.49 863.731 1605.68 864.201 1606.84C864.751 1608.22 865.721 1608.94 866.861 1609.82C867.691 1610.45 869.241 1610 869.671 1609.08C870.261 1607.83 870.711 1606.85 870.661 1605.44C870.621 1604.22 870.481 1602.99 870.381 1601.77C870.181 1599.31 869.341 1596.9 868.781 1594.49C867.721 1589.88 866.871 1585.23 866.251 1580.54C866.071 1579.15 865.181 1577.94 863.651 1577.94C862.241 1577.94 861.051 1579.13 861.051 1580.54Z" fill="#191919"/>
<path d="M782.02 1547.12C778.37 1561.54 773.96 1575.99 771.44 1590.66C769.01 1604.82 769.4 1619.48 781.5 1629.26C792.07 1637.81 806.41 1642.49 819.68 1644.68C826.81 1645.86 834.03 1646.5 841.26 1646.27C844.74 1646.16 848.31 1645.69 851.62 1644.54C854.97 1643.38 857.9 1640.75 860.63 1638.53C863.25 1636.41 861.52 1632.33 858.76 1631.46C855.72 1630.5 852.65 1629.09 849.48 1628.77C846.73 1628.49 844 1628.38 841.25 1628.43C835.65 1628.53 830.01 1628.19 824.49 1627.2C814.35 1625.38 802.47 1622.21 794.23 1615.66C785.8 1608.96 788.36 1597 789.48 1587.67C791.04 1574.72 791.53 1561.57 792.5 1548.56C792.95 1542.51 783.47 1541.37 782.01 1547.14L782.02 1547.12Z" fill="#191919"/>
<path d="M1042.58 792.54C1044.61 791.58 1046.64 790.66 1048.69 789.75C1049.1 789.57 1049.52 789.39 1049.93 789.21C1049.09 789.57 1049.08 789.57 1049.93 789.23C1050.98 788.81 1052.02 788.38 1053.07 787.97C1057.29 786.33 1061.57 784.83 1065.89 783.48C1074.32 780.86 1082.94 778.81 1091.67 777.47C1092.04 777.41 1094.96 777.02 1092.88 777.28C1093.77 777.17 1094.66 777.07 1095.56 776.97C1097.79 776.73 1100.02 776.54 1102.25 776.4C1106.69 776.12 1111.14 776.04 1115.58 776.18C1117.79 776.25 1119.99 776.37 1122.19 776.56C1123.07 776.63 1123.94 776.71 1124.82 776.81C1124.9 776.81 1129.03 777.37 1126.57 777C1130.9 777.65 1135.17 778.54 1139.41 779.65C1146.02 781.38 1153.92 777.46 1155.5 770.51C1157.06 763.67 1153.45 756.27 1146.36 754.42C1107.02 744.12 1065.47 752.89 1029.37 769.95C1023.17 772.88 1021.08 782.27 1024.68 787.85C1028.79 794.23 1035.94 795.68 1042.58 792.54Z" fill="#191919"/>
<path d="M1022.89 781.24C1023.12 791.76 1022.63 802.27 1021.34 812.71C1021.29 813.14 1020.96 815.44 1021.22 813.67C1021.46 812.01 1021.19 813.83 1021.15 814.08C1020.96 815.33 1020.77 816.58 1020.56 817.83C1020.12 820.49 1019.63 823.14 1019.09 825.78C1018.09 830.67 1016.91 835.52 1015.56 840.32C1014.18 845.24 1012.61 850.11 1010.87 854.92C1010.03 857.22 1009.16 859.51 1008.24 861.79C1007.87 862.71 1006.69 865.43 1007.75 863.01C1007.19 864.28 1006.64 865.56 1006.06 866.83C1001.99 875.79 997.28 884.46 991.96 892.74C989.28 896.92 986.45 901 983.47 904.97C982.81 905.85 981.6 907.35 983.03 905.57C982.28 906.5 981.55 907.44 980.8 908.37C979.19 910.35 977.55 912.3 975.87 914.22C969.5 921.48 962.61 928.28 955.26 934.54C953.46 936.07 951.62 937.56 949.77 939.04C949.37 939.36 948.97 939.67 948.57 939.98C950.76 938.27 949.28 939.43 948.8 939.78C947.71 940.58 946.63 941.39 945.54 942.18C941.7 944.94 937.76 947.57 933.73 950.04C929.55 952.6 925.27 955.01 920.91 957.24C918.8 958.32 916.67 959.36 914.52 960.36C913.44 960.86 912.36 961.35 911.28 961.83C910.81 962.04 910.34 962.23 909.88 962.44C908.41 963.11 912.05 961.58 909.72 962.5C900.64 966.11 891.4 969.17 881.88 971.41C876.98 972.56 872.04 973.51 867.06 974.26C865.85 974.44 864.03 974.63 866.38 974.37C865.16 974.5 863.94 974.67 862.72 974.8C860.09 975.08 857.45 975.31 854.8 975.48C844.74 976.13 834.62 975.96 824.58 974.97C823.37 974.85 822.15 974.72 820.94 974.58C820.25 974.5 819.56 974.41 818.87 974.32C818.97 974.33 821.29 974.68 819.77 974.43C817.21 974.02 814.64 973.64 812.09 973.16C807.36 972.27 802.67 971.2 798.03 969.95C793.26 968.66 788.54 967.19 783.88 965.52C781.64 964.72 779.42 963.88 777.21 962.99C776.22 962.59 773.68 961.49 776.11 962.55C774.87 962.01 773.63 961.47 772.39 960.91C763.62 956.92 755.17 952.26 747.11 946.99C743.01 944.31 739.02 941.46 735.12 938.5C736.93 939.88 735.45 938.75 734.57 938.04C733.65 937.3 732.73 936.55 731.82 935.8C729.87 934.18 727.94 932.52 726.05 930.82C718.84 924.35 712.11 917.35 705.91 909.9C705.15 908.98 704.39 908.06 703.64 907.12C703.21 906.59 702.79 906.05 702.36 905.51C702.2 905.31 701.15 903.93 702.12 905.21C703.09 906.49 702.05 905.11 701.9 904.9C701.49 904.35 701.08 903.8 700.67 903.25C699.86 902.15 699.05 901.03 698.26 899.91C695.48 895.98 692.83 891.94 690.33 887.82C687.72 883.52 685.28 879.13 682.99 874.66C681.88 872.49 680.81 870.29 679.78 868.08C679.26 866.97 678.75 865.86 678.26 864.74C677.88 863.89 676.44 860.42 677.5 863.04C673.68 853.68 670.44 844.11 667.96 834.3C666.68 829.23 665.58 824.11 664.68 818.96C664.27 816.63 663.93 814.29 663.57 811.94C663.27 809.96 663.82 814.15 663.6 812.15C663.54 811.6 663.46 811.06 663.4 810.51C663.23 809.05 663.07 807.58 662.93 806.12C661.91 795.57 661.67 784.95 662.21 774.37C662.48 769.07 662.97 763.79 663.61 758.52C663.64 758.26 663.91 756.45 663.66 758.1C663.4 759.87 663.75 757.58 663.81 757.15C664 755.9 664.19 754.65 664.4 753.41C664.82 750.93 665.28 748.46 665.79 745.99C667.86 735.93 670.67 726.01 674.19 716.36C675.03 714.06 675.91 711.77 676.84 709.5C677.25 708.49 678.08 706.66 677.14 708.76C677.71 707.49 678.25 706.21 678.83 704.94C680.91 700.37 683.15 695.87 685.56 691.46C690.25 682.87 695.55 674.62 701.42 666.8C701.83 666.25 702.24 665.71 702.66 665.17C702.58 665.27 701.23 666.92 702.18 665.8C702.95 664.89 703.66 663.93 704.42 663.01C706.03 661.03 707.68 659.09 709.37 657.17C712.51 653.61 715.78 650.15 719.16 646.82C722.66 643.38 726.28 640.07 730.03 636.9C731.84 635.37 733.68 633.89 735.53 632.42C737.5 630.86 734.07 633.49 736.1 631.99C737.19 631.19 738.27 630.38 739.36 629.59C747.31 623.86 755.7 618.74 764.44 614.3C766.55 613.23 768.69 612.19 770.84 611.2C771.76 610.77 772.69 610.36 773.62 609.94C774.24 609.67 774.87 609.4 775.49 609.13C774.55 609.54 773.79 609.83 775.19 609.27C779.78 607.43 784.41 605.71 789.13 604.21C798.51 601.22 808.12 598.98 817.85 597.52C818.54 597.42 819.23 597.32 819.93 597.22C819.82 597.24 817.52 597.51 819.06 597.35C820.28 597.22 821.5 597.06 822.72 596.93C825.36 596.66 828 596.44 830.64 596.28C835.62 595.98 840.6 595.87 845.59 595.96C850.69 596.05 855.78 596.36 860.86 596.87C862.07 596.99 863.29 597.13 864.5 597.28C865.02 597.34 865.54 597.41 866.05 597.47C865.62 597.42 863.21 597.05 865.67 597.43C868.06 597.8 870.45 598.18 872.83 598.63C882.58 600.46 892.18 603.07 901.52 606.44C903.6 607.19 905.66 607.97 907.71 608.79C908.76 609.21 911.19 610.28 908.81 609.23C910.05 609.78 911.29 610.31 912.53 610.87C916.99 612.9 921.37 615.11 925.66 617.48C934.09 622.14 942.15 627.44 949.8 633.29C947.73 631.7 949.95 633.42 950.74 634.06C951.66 634.8 952.58 635.55 953.49 636.31C955.44 637.94 957.36 639.6 959.24 641.3C962.77 644.48 966.18 647.79 969.47 651.22C972.89 654.78 976.18 658.47 979.33 662.27C980.09 663.19 980.85 664.12 981.59 665.05C982.03 665.6 984.19 668.48 982.39 666.04C983.82 667.97 985.26 669.88 986.65 671.84C992.44 680.02 997.62 688.62 1002.15 697.56C1003.17 699.58 1004.17 701.62 1005.12 703.67C1005.64 704.78 1006.14 705.89 1006.64 707.01C1007.05 707.93 1008.43 711.28 1007.4 708.71C1009.31 713.46 1011.14 718.22 1012.75 723.08C1015.96 732.78 1018.46 742.72 1020.23 752.78C1020.67 755.29 1021.06 757.81 1021.42 760.34C1021.04 757.69 1021.46 760.75 1021.57 761.77C1021.72 763.05 1021.85 764.33 1021.98 765.61C1022.48 770.79 1022.78 775.99 1022.92 781.2C1023.1 788.03 1028.81 794.6 1036 794.28C1042.93 793.97 1049.28 788.53 1049.08 781.2C1047.91 737.28 1034.28 693.63 1008.64 657.79C983.61 622.79 949.04 595.81 908.47 581.19C867.93 566.58 822.17 565.98 781.2 579.28C740.16 592.61 705.03 618.86 679.15 653.18C652.89 687.99 638.28 730.94 636.07 774.35C633.82 818.57 644.96 863.62 668.04 901.44C689.85 937.18 722.24 966.99 760.6 984.08C801.03 1002.09 846.19 1006.73 889.36 996.47C930.15 986.78 967.64 963.52 995.07 931.91C1024.17 898.37 1041.92 857.16 1047.47 813.21C1048.81 802.59 1049.32 791.89 1049.09 781.2C1048.94 774.36 1043.18 767.8 1036.01 768.12C1029.05 768.43 1022.77 773.87 1022.93 781.2L1022.89 781.24Z" fill="#191919"/>
<path d="M1518.97 722.08C1519.2 732.6 1518.71 743.11 1517.42 753.55C1517.37 753.98 1517.04 756.28 1517.3 754.51C1517.54 752.85 1517.27 754.67 1517.23 754.92C1517.03 756.17 1516.85 757.42 1516.64 758.67C1516.2 761.33 1515.71 763.98 1515.17 766.62C1514.17 771.51 1512.99 776.36 1511.64 781.16C1510.26 786.08 1508.69 790.95 1506.95 795.76C1506.11 798.06 1505.24 800.35 1504.32 802.63C1503.95 803.55 1502.77 806.27 1503.83 803.85C1503.27 805.12 1502.72 806.4 1502.14 807.67C1498.07 816.63 1493.36 825.3 1488.04 833.58C1485.36 837.76 1482.53 841.84 1479.55 845.81C1478.89 846.69 1477.68 848.19 1479.11 846.41C1478.36 847.34 1477.63 848.28 1476.88 849.21C1475.27 851.19 1473.63 853.14 1471.95 855.06C1465.58 862.32 1458.69 869.12 1451.34 875.38C1449.54 876.91 1447.7 878.4 1445.85 879.88C1445.45 880.2 1445.05 880.51 1444.65 880.82C1446.84 879.11 1445.36 880.27 1444.88 880.62C1443.79 881.42 1442.71 882.23 1441.62 883.02C1437.78 885.78 1433.85 888.41 1429.81 890.88C1425.63 893.44 1421.35 895.85 1416.99 898.08C1414.88 899.16 1412.75 900.2 1410.6 901.2C1409.52 901.7 1408.44 902.19 1407.36 902.67C1406.89 902.88 1406.42 903.07 1405.96 903.28C1404.49 903.95 1408.13 902.42 1405.8 903.34C1396.72 906.95 1387.48 910.01 1377.96 912.25C1373.06 913.4 1368.12 914.35 1363.14 915.1C1361.93 915.28 1360.11 915.47 1362.46 915.21C1361.24 915.34 1360.02 915.51 1358.8 915.64C1356.17 915.92 1353.53 916.15 1350.88 916.32C1340.82 916.97 1330.7 916.8 1320.66 915.81C1319.45 915.69 1318.23 915.56 1317.02 915.42C1316.33 915.34 1315.64 915.25 1314.95 915.16C1315.05 915.17 1317.37 915.52 1315.85 915.27C1313.29 914.86 1310.72 914.48 1308.17 914C1303.44 913.11 1298.75 912.04 1294.11 910.79C1289.34 909.5 1284.62 908.03 1279.96 906.36C1277.72 905.56 1275.5 904.72 1273.29 903.83C1272.3 903.43 1269.76 902.33 1272.19 903.4C1270.95 902.86 1269.71 902.32 1268.47 901.76C1259.7 897.77 1251.25 893.11 1243.19 887.84C1239.09 885.16 1235.1 882.31 1231.2 879.35C1233.01 880.73 1231.53 879.6 1230.65 878.89C1229.73 878.15 1228.81 877.4 1227.9 876.65C1225.95 875.03 1224.02 873.37 1222.13 871.67C1214.92 865.2 1208.19 858.2 1201.99 850.75C1201.23 849.83 1200.47 848.91 1199.72 847.97C1199.29 847.44 1198.87 846.9 1198.44 846.36C1198.28 846.16 1197.23 844.78 1198.2 846.06C1199.17 847.34 1198.13 845.96 1197.98 845.75C1197.57 845.2 1197.16 844.65 1196.75 844.1C1195.93 843 1195.13 841.88 1194.34 840.76C1191.56 836.83 1188.91 832.79 1186.41 828.67C1183.8 824.37 1181.36 819.98 1179.07 815.51C1177.96 813.34 1176.89 811.14 1175.86 808.93C1175.34 807.82 1174.83 806.71 1174.34 805.59C1173.96 804.74 1172.52 801.27 1173.58 803.89C1169.76 794.53 1166.52 784.96 1164.04 775.15C1162.76 770.08 1161.66 764.96 1160.76 759.81C1160.35 757.48 1160.01 755.14 1159.65 752.79C1159.35 750.81 1159.9 755 1159.68 753C1159.62 752.45 1159.54 751.91 1159.48 751.36C1159.31 749.9 1159.15 748.43 1159.01 746.97C1157.99 736.42 1157.75 725.8 1158.29 715.22C1158.56 709.92 1159.05 704.64 1159.69 699.37C1159.72 699.11 1159.99 697.3 1159.74 698.95C1159.48 700.72 1159.83 698.43 1159.89 698C1160.08 696.75 1160.28 695.5 1160.48 694.26C1160.9 691.78 1161.36 689.31 1161.87 686.84C1163.94 676.78 1166.75 666.86 1170.27 657.21C1171.11 654.91 1171.99 652.62 1172.92 650.35C1173.33 649.34 1174.16 647.51 1173.22 649.61C1173.79 648.34 1174.33 647.06 1174.91 645.79C1176.99 641.22 1179.23 636.72 1181.64 632.31C1186.33 623.72 1191.63 615.47 1197.5 607.65C1197.91 607.1 1198.32 606.56 1198.74 606.02C1198.66 606.12 1197.31 607.77 1198.26 606.65C1199.03 605.74 1199.74 604.78 1200.5 603.86C1202.11 601.88 1203.76 599.94 1205.45 598.02C1208.59 594.46 1211.86 591 1215.24 587.67C1218.74 584.23 1222.36 580.92 1226.11 577.75C1227.92 576.22 1229.76 574.74 1231.61 573.27C1233.58 571.71 1230.15 574.34 1232.18 572.84C1233.27 572.04 1234.35 571.23 1235.44 570.44C1243.39 564.71 1251.78 559.59 1260.52 555.15C1262.63 554.08 1264.77 553.04 1266.92 552.05C1267.84 551.62 1268.77 551.21 1269.7 550.79C1270.32 550.52 1270.95 550.25 1271.57 549.98C1270.63 550.39 1269.87 550.68 1271.27 550.12C1275.86 548.28 1280.49 546.56 1285.21 545.06C1294.59 542.07 1304.2 539.83 1313.93 538.37C1314.62 538.27 1315.31 538.17 1316.01 538.07C1315.9 538.09 1313.6 538.36 1315.14 538.2C1316.36 538.07 1317.58 537.91 1318.8 537.78C1321.44 537.51 1324.08 537.29 1326.72 537.13C1331.7 536.83 1336.68 536.72 1341.67 536.81C1346.77 536.9 1351.86 537.21 1356.94 537.72C1358.15 537.84 1359.37 537.98 1360.58 538.13C1361.1 538.19 1361.62 538.26 1362.13 538.32C1361.7 538.27 1359.29 537.9 1361.75 538.28C1364.14 538.65 1366.53 539.03 1368.91 539.48C1378.66 541.31 1388.26 543.92 1397.6 547.29C1399.68 548.04 1401.74 548.82 1403.79 549.64C1404.84 550.06 1407.27 551.13 1404.89 550.08C1406.13 550.63 1407.37 551.16 1408.61 551.72C1413.07 553.75 1417.45 555.96 1421.74 558.33C1430.17 562.99 1438.23 568.29 1445.88 574.14C1443.81 572.55 1446.03 574.27 1446.82 574.91C1447.74 575.65 1448.66 576.4 1449.57 577.16C1451.52 578.79 1453.44 580.45 1455.32 582.15C1458.85 585.33 1462.26 588.64 1465.55 592.07C1468.97 595.63 1472.26 599.32 1475.41 603.12C1476.17 604.04 1476.93 604.97 1477.67 605.9C1478.11 606.45 1480.27 609.33 1478.47 606.89C1479.9 608.82 1481.34 610.73 1482.73 612.69C1488.52 620.87 1493.7 629.47 1498.23 638.41C1499.25 640.43 1500.25 642.47 1501.2 644.52C1501.72 645.63 1502.22 646.74 1502.72 647.86C1503.13 648.78 1504.51 652.13 1503.48 649.56C1505.39 654.31 1507.22 659.07 1508.83 663.93C1512.04 673.63 1514.54 683.57 1516.31 693.63C1516.75 696.14 1517.14 698.66 1517.5 701.19C1517.12 698.54 1517.54 701.6 1517.65 702.62C1517.8 703.9 1517.93 705.18 1518.06 706.46C1518.56 711.64 1518.86 716.84 1519 722.05C1519.18 728.88 1524.89 735.45 1532.08 735.13C1539.01 734.82 1545.36 729.38 1545.16 722.05C1543.99 678.13 1530.36 634.48 1504.72 598.64C1479.69 563.64 1445.12 536.66 1404.55 522.04C1364.01 507.43 1318.25 506.83 1277.28 520.13C1236.24 533.46 1201.11 559.71 1175.23 594.03C1148.97 628.84 1134.36 671.79 1132.15 715.2C1129.9 759.42 1141.04 804.47 1164.12 842.29C1185.93 878.03 1218.32 907.84 1256.68 924.93C1297.11 942.94 1342.27 947.58 1385.44 937.32C1426.23 927.63 1463.72 904.37 1491.15 872.76C1520.25 839.22 1538 798.01 1543.55 754.06C1544.89 743.44 1545.4 732.74 1545.17 722.05C1545.02 715.21 1539.26 708.65 1532.09 708.97C1525.13 709.28 1518.85 714.72 1519.01 722.05L1518.97 722.08Z" fill="#191919"/>
<path d="M1515.52 365.84C1566.37 421.78 1609.99 488.56 1625.98 563.41C1634.22 602 1634.79 642.91 1624.22 681.13C1615.13 714.01 1598.21 744.8 1575.07 769.91C1562.87 783.14 1548.95 794.73 1533.52 804.02C1517.87 813.45 1500.75 820.45 1483.43 826.15C1480.95 826.97 1481.18 831.36 1484.09 830.99C1517.25 826.85 1547.19 808.13 1570.85 785.19C1595.51 761.29 1613.44 731.62 1623.49 698.8C1646.66 623.13 1632.48 538.19 1595.06 469.51C1574.1 431.04 1546.98 396.19 1517.07 364.3C1516.1 363.27 1514.57 364.81 1515.52 365.85V365.84Z" fill="#191919"/>
<path d="M1168.4 1126.13C1180.23 1133.27 1193.29 1139.5 1206.3 1144.19C1212.76 1146.52 1219.25 1148.77 1225.76 1150.93C1229.22 1152.08 1232.36 1153.19 1236.01 1153.43C1239.79 1153.68 1242.61 1152.87 1246.03 1151.39C1247.8 1150.63 1248.36 1147.84 1247.36 1146.33C1245.39 1143.37 1243.55 1141.37 1240.47 1139.49C1237.21 1137.5 1233.63 1136.62 1230 1135.52C1223.66 1133.61 1217.35 1131.61 1211.06 1129.54C1198.16 1125.29 1184.79 1121.61 1171.55 1118.62C1167.07 1117.61 1164.3 1123.67 1168.38 1126.13H1168.4Z" fill="#191919"/>
<path d="M1056.42 1136.9C1052.96 1136.83 1051.14 1140.37 1051.89 1143.5C1053.23 1149.03 1058 1151.66 1062.79 1153.71C1074.74 1158.82 1086.85 1161.77 1099.78 1163.1C1120.86 1165.28 1143.92 1162.72 1162.73 1152.34C1167.81 1149.54 1172.59 1146.07 1176.92 1142.21C1181.91 1137.77 1186.77 1132.82 1187.6 1125.96C1188.39 1119.42 1180.53 1117.09 1175.83 1119.21C1171 1121.39 1167.64 1127.09 1163.59 1130.47C1160.17 1133.33 1156.21 1135.66 1152.25 1137.78C1143.41 1142.51 1133.74 1145.44 1123.83 1146.94C1112.83 1148.61 1101.29 1148.36 1090.29 1146.81C1084.11 1145.94 1077.88 1144.74 1071.81 1143.31C1068.53 1142.54 1065.34 1141.51 1062.07 1140.69C1061.13 1140.45 1060.36 1140.4 1059.5 1139.93C1058.78 1139.54 1057.62 1138.38 1057.6 1138.47C1057.79 1137.68 1057.23 1136.93 1056.41 1136.91L1056.42 1136.9Z" fill="#191919"/>
<path d="M1009.27 1139.37C1009.71 1143.68 1010.15 1148.16 1011.79 1152.19C1013.67 1156.8 1015.98 1161.25 1018.66 1165.44C1023.63 1173.19 1029.76 1179.93 1037 1185.61C1050.8 1196.42 1067.01 1204 1084.12 1207.74C1118.81 1215.33 1155.39 1208.22 1183.4 1186.04C1191.4 1179.71 1198.86 1172.1 1203.93 1163.17C1208.92 1154.38 1214.1 1140.71 1210.94 1130.63C1208.74 1123.59 1199.63 1124.17 1197.2 1130.63C1195.78 1134.4 1195.52 1138.53 1194.29 1142.4C1193.08 1146.22 1191.31 1149.73 1189.23 1153.15C1185.07 1159.97 1180.14 1165.73 1174.08 1170.95C1163 1180.51 1149.62 1187.1 1135.49 1190.61C1107.6 1197.55 1077.24 1191.81 1052.24 1177.4C1035.96 1168.02 1025.15 1153.49 1015.65 1137.64C1014.02 1134.93 1008.91 1135.83 1009.27 1139.37Z" fill="#191919"/>
<path d="M1061.15 1142.79C1057.26 1148.16 1053.44 1153.58 1049.97 1159.24C1048.4 1161.8 1047.16 1164.59 1045.88 1167.31C1045.11 1168.94 1044.06 1170.68 1043.58 1172.41C1043.04 1174.38 1042.97 1176.37 1043.23 1178.37C1043.41 1179.78 1044.88 1181.1 1046.32 1180.14C1047.87 1179.11 1049.06 1178.03 1050.25 1176.59C1051.44 1175.15 1052.12 1173.4 1052.95 1171.73C1054.33 1168.96 1055.87 1166.26 1057.2 1163.46C1060.05 1157.48 1063.28 1151.7 1066.58 1145.96C1068.64 1142.37 1063.47 1139.56 1061.14 1142.78L1061.15 1142.79Z" fill="#191919"/>
<path d="M1091.32 1153.94C1085.5 1159.86 1080.41 1166.52 1076.29 1173.74C1074.26 1177.28 1072.29 1181.01 1070.88 1184.85C1070.17 1186.79 1069.68 1188.85 1069.2 1190.87C1068.63 1193.27 1068.46 1195.01 1069.08 1197.41C1069.47 1198.92 1071.66 1199.65 1072.74 1198.38C1074.11 1196.78 1074.9 1195.36 1075.57 1193.35C1076.19 1191.47 1076.89 1189.63 1077.6 1187.79C1079.01 1184.17 1080.09 1180.46 1081.68 1176.9C1084.92 1169.67 1089.06 1162.84 1094.03 1156.66C1095.54 1154.78 1093.09 1152.15 1091.32 1153.95V1153.94Z" fill="#191919"/>
<path d="M1121.06 1154.07C1118.05 1158.28 1117.88 1163.04 1117.54 1168.06C1117.2 1173.03 1117.15 1178.02 1117.38 1183C1117.61 1188.05 1118.16 1193.08 1118.93 1198.07C1119.63 1202.57 1121.21 1207.3 1125.02 1210.06C1125.75 1210.58 1127.08 1210.24 1127.46 1209.42C1129.27 1205.44 1128.8 1200.79 1127.98 1196.6C1127.06 1191.94 1126.42 1187.24 1126.06 1182.5C1125.71 1177.86 1125.6 1173.21 1125.74 1168.56C1125.89 1163.69 1126.67 1159.3 1125.07 1154.6C1124.43 1152.73 1122.17 1152.53 1121.06 1154.08V1154.07Z" fill="#191919"/>
<path d="M1137.23 1157.82C1139.14 1163.81 1140.63 1169.92 1141.65 1176.12C1142.64 1182.14 1142.68 1188.76 1146.14 1194.01C1146.82 1195.04 1148.6 1195.29 1149.21 1194.01C1152.12 1187.94 1150.51 1181.03 1148.95 1174.8C1147.37 1168.48 1145.29 1162.3 1142.78 1156.29C1142.18 1154.86 1140.88 1153.83 1139.24 1154.28C1137.78 1154.68 1136.76 1156.33 1137.23 1157.82Z" fill="#191919"/>
<path d="M1170.41 1139.15C1173.28 1145.47 1176.16 1151.79 1179.03 1158.11C1180.41 1161.14 1181.62 1164.32 1183.33 1167.18C1184.19 1168.61 1185.04 1170.04 1185.9 1171.47C1186.95 1173.22 1188.06 1174.47 1189.57 1175.84C1191.51 1177.6 1194.05 1175.82 1193.69 1173.44C1193.55 1172.55 1193.52 1171.53 1193.26 1170.66C1193.01 1169.82 1192.52 1169.01 1192.15 1168.22C1191.38 1166.6 1190.61 1164.98 1189.84 1163.36C1188.41 1160.37 1186.44 1157.6 1184.69 1154.79C1181.04 1148.93 1177.38 1143.06 1173.73 1137.2C1172.4 1135.07 1169.41 1136.92 1170.42 1139.14L1170.41 1139.15Z" fill="#191919"/>
<path d="M1156.15 1155.68C1157.53 1158.23 1158.69 1160.88 1160.04 1163.44C1161.34 1165.92 1162.78 1168.32 1164.02 1170.84C1166.54 1175.94 1168.53 1181.26 1170.94 1186.4C1171.96 1188.57 1175.22 1187 1174.7 1184.82C1173.31 1179.08 1170.75 1173.73 1168 1168.52C1166.66 1165.99 1165.32 1163.35 1163.67 1161.01C1161.99 1158.62 1160.02 1156.38 1158.09 1154.19C1157.14 1153.11 1155.51 1154.49 1156.15 1155.68Z" fill="#191919"/>
<path d="M1253.76 1254.35C1259.55 1266.18 1264.9 1278.2 1269.87 1290.39C1274.78 1302.45 1280.17 1314.27 1284.72 1326.49C1293.76 1350.78 1302.19 1375.34 1308.61 1400.46C1310.23 1406.8 1311.5 1413.24 1313.28 1419.53C1314.79 1424.86 1316.22 1435.56 1322.99 1436.51C1336.56 1438.4 1327.63 1409.18 1326.05 1402.93C1319.65 1377.66 1311.8 1352.47 1301.17 1328.65C1295.19 1315.25 1288.7 1302.07 1281.64 1289.2C1274.59 1276.34 1265.86 1264.17 1257.31 1252.28C1255.77 1250.14 1252.59 1251.95 1253.76 1254.35Z" fill="#191919"/>
<path d="M1250.83 1442.78C1251.78 1441.21 1252.64 1439.95 1253.11 1438.16C1253.57 1436.43 1253.97 1434.72 1254.66 1433.06C1255.77 1430.4 1257.35 1427.79 1259.25 1425.62C1261.42 1423.14 1263.57 1421.34 1266.45 1419.79C1267.22 1419.37 1268.01 1419 1268.82 1418.65C1268.78 1418.67 1270.75 1417.87 1269.94 1418.17C1270.76 1417.87 1271.6 1417.6 1272.45 1417.38C1272.71 1417.31 1275.06 1416.84 1273.87 1417.01C1277.38 1416.5 1278.9 1416.8 1281.93 1417.73C1282.18 1417.81 1284.63 1418.76 1283.58 1418.29C1284.24 1418.59 1284.88 1418.92 1285.51 1419.27C1286.14 1419.62 1286.76 1419.99 1287.36 1420.39C1287.76 1420.66 1288.16 1420.93 1288.54 1421.22C1288.01 1420.81 1288.08 1420.88 1288.75 1421.42C1289.8 1422.4 1290.83 1423.37 1291.76 1424.47C1290.92 1423.48 1292.52 1425.59 1292.67 1425.84C1293.04 1426.44 1293.35 1427.07 1293.7 1427.69C1294.07 1428.49 1294.1 1428.54 1293.79 1427.82C1294.09 1428.53 1294.39 1429.23 1294.69 1429.94C1294.9 1430.42 1294.87 1430.37 1294.62 1429.78C1294.79 1430.22 1294.94 1430.67 1295.08 1431.12C1295.78 1433.43 1296.59 1435.2 1298.27 1436.98C1301.19 1440.07 1305.5 1438.73 1307.73 1435.76C1310.25 1432.41 1309.63 1427.59 1308.31 1423.82C1307.07 1420.27 1304.92 1417.1 1302.47 1414.28C1298.03 1409.17 1291.61 1405.38 1285.04 1403.79C1277.71 1402.02 1270.42 1402.92 1263.61 1406.06C1257.49 1408.88 1252.34 1414.92 1249.28 1420.79C1247.55 1424.1 1246.21 1427.68 1245.52 1431.35C1245.15 1433.31 1244.8 1435.42 1244.83 1437.43C1244.86 1439.5 1245.73 1441.09 1246.81 1442.79C1247.75 1444.26 1249.91 1444.33 1250.83 1442.79V1442.78Z" fill="#191919"/>
<path d="M1346.95 1425.84C1347.32 1423.05 1348.68 1420 1350.18 1418.03C1351.05 1416.89 1352.11 1415.96 1353.13 1414.98C1353.73 1414.49 1353.77 1414.44 1353.23 1414.85C1353.55 1414.61 1353.88 1414.38 1354.21 1414.16C1355.24 1413.46 1356.25 1412.75 1357.21 1411.96C1357.52 1411.68 1357.84 1411.41 1358.17 1411.14C1357.49 1411.66 1357.49 1411.67 1358.17 1411.17C1358.88 1410.72 1359.56 1410.25 1360.3 1409.85C1360.85 1409.55 1361.41 1409.28 1361.98 1409C1360.31 1409.81 1362.7 1408.79 1363.07 1408.67C1363.87 1408.43 1364.68 1408.28 1365.49 1408.1C1363.5 1408.54 1366.02 1408.08 1366.51 1408.07C1367.23 1408.06 1368.35 1407.92 1369.03 1408.18C1367.08 1407.44 1368.92 1408.21 1369.5 1408.36C1370.16 1408.52 1370.79 1408.75 1371.44 1408.94C1372.27 1409.26 1372.16 1409.21 1371.11 1408.77C1371.46 1408.93 1371.8 1409.1 1372.14 1409.27C1372.82 1409.63 1373.49 1410.02 1374.13 1410.44C1374.45 1410.65 1374.77 1410.87 1375.08 1411.1C1374.18 1410.39 1374.08 1410.32 1374.77 1410.89C1375.76 1411.82 1376.77 1412.73 1377.73 1413.69C1378.16 1414.13 1379.08 1414.84 1379.29 1415.42C1378.63 1414.54 1378.56 1414.45 1379.09 1415.17C1379.32 1415.49 1379.54 1415.81 1379.75 1416.14C1380.17 1416.79 1380.57 1417.47 1380.93 1418.15C1381.15 1418.57 1381.99 1420.88 1381.34 1418.93C1381.52 1419.48 1381.73 1420.03 1381.94 1420.57C1382.25 1421.36 1382.58 1422.13 1382.94 1422.9C1382.57 1422 1382.53 1421.94 1382.84 1422.72C1383.06 1423.45 1383.32 1424.15 1383.5 1424.89C1383.56 1425.13 1383.97 1427.41 1383.75 1426C1384.08 1428.11 1384.89 1429.53 1385.85 1431.36C1386.8 1433.17 1389.39 1433.78 1391.1 1432.74C1394.29 1430.78 1395.8 1428.28 1396.42 1424.62C1397.05 1420.91 1397.12 1417.32 1395.95 1413.7C1393.69 1406.69 1389.4 1400.68 1383.16 1396.71C1376.92 1392.74 1369.49 1391.54 1362.28 1392.89C1355.46 1394.17 1347.53 1398.73 1344.28 1405.03C1340.88 1411.61 1339.58 1419.38 1342.12 1426.48C1343.1 1429.22 1346.61 1428.55 1346.96 1425.82L1346.95 1425.84Z" fill="#191919"/>
<path d="M929.329 1496.86C929.929 1501.24 932.559 1505.24 935.129 1508.81C936.479 1510.69 937.999 1512.46 939.429 1514.28C941.299 1516.66 943.169 1520.06 946.269 1520.91C950.599 1522.1 956.009 1521.26 960.459 1521.23C965.629 1521.19 970.789 1521.16 975.959 1521.14C996.109 1521.04 1016.26 1521.06 1036.41 1521.05C1056.3 1521.04 1076.2 1520.39 1096.09 1520.14C1115.98 1519.89 1135.89 1519.91 1155.78 1519.58C1178.52 1519.2 1201.26 1518.82 1224 1518.55C1234.23 1518.43 1234.23 1502.84 1224 1502.66C1152.2 1501.45 1080.26 1501.33 1008.51 1504.54C998.689 1504.98 988.879 1505.44 979.059 1505.91C968.769 1506.41 958.289 1506.41 948.059 1507.64C949.649 1508.3 951.239 1508.96 952.839 1509.62C946.769 1504.26 939.749 1496.25 931.519 1494.67C930.079 1494.39 929.139 1495.48 929.329 1496.86Z" fill="#191919"/>
<path d="M1107.95 1476.59C1107.9 1479.14 1107.7 1481.6 1108.44 1484.08C1109.09 1486.23 1109.73 1488.37 1110.38 1490.52C1111 1492.59 1111.58 1494.68 1112.25 1496.73C1113.38 1500.21 1116.43 1504.58 1120.66 1503.42C1124.86 1502.26 1125.18 1496.95 1124.1 1493.46C1123.46 1491.4 1122.62 1489.37 1121.89 1487.34C1121.15 1485.3 1120.42 1483.26 1119.68 1481.22C1119.19 1479.86 1118.72 1478.57 1117.84 1477.42C1117.09 1476.45 1116.35 1475.49 1115.6 1474.52C1114.51 1473.11 1112.84 1472.02 1110.96 1472.63C1109.21 1473.2 1107.98 1474.72 1107.94 1476.59H1107.95Z" fill="#191919"/>
<path d="M1129.01 1482.17C1129.15 1484.09 1129.05 1486.01 1129.33 1487.92C1129.37 1488.16 1129.4 1488.4 1129.44 1488.65C1129.37 1488.11 1129.36 1488.1 1129.42 1488.6C1129.45 1488.96 1129.5 1489.33 1129.53 1489.69C1129.6 1490.54 1129.65 1491.39 1129.68 1492.24C1129.73 1493.95 1129.68 1495.66 1129.52 1497.37C1129.49 1497.74 1129.45 1498.1 1129.41 1498.47C1129.34 1499 1129.35 1498.96 1129.43 1498.33C1129.25 1498.86 1129.21 1499.4 1129.31 1499.93C1129.36 1500.33 1129.42 1500.74 1129.47 1501.14C1129.39 1500.53 1129.38 1500.49 1129.45 1501.02C1129.61 1502.31 1129.9 1503.27 1130.86 1504.2C1132.19 1505.49 1134.08 1505.64 1135.69 1504.82C1138.34 1503.47 1138.62 1500 1138.7 1497.37C1138.75 1495.6 1138.7 1493.82 1138.53 1492.06C1138.34 1490.04 1138.05 1488.01 1137.63 1486.02C1137.22 1484.1 1136.11 1482.22 1135.14 1480.51C1134.45 1479.29 1132.79 1478.56 1131.43 1479C1130.12 1479.42 1128.91 1480.7 1129.02 1482.17H1129.01Z" fill="#191919"/>
<path d="M997.558 1479.52C998.778 1483.25 999.998 1486.98 1001.22 1490.71C1001.9 1492.8 1002.44 1495.08 1003.44 1497.03C1003.88 1497.89 1004.39 1498.72 1004.86 1499.56C1005.53 1500.75 1006.11 1501.93 1007.4 1502.59C1009.75 1503.78 1011.89 1502.65 1012.85 1500.37C1010.78 1502.67 1010.46 1503.21 1011.9 1502.01C1012.36 1501.55 1012.68 1501 1012.85 1500.37C1013.19 1499.36 1013.09 1498.54 1012.91 1497.51C1012.74 1496.54 1012.55 1495.58 1012.37 1494.61C1011.99 1492.59 1011.14 1490.75 1010.38 1488.84C1008.84 1484.98 1007.3 1481.12 1005.75 1477.26C1004.93 1475.2 1002.88 1473.53 1000.53 1474.29C998.428 1474.97 996.828 1477.25 997.558 1479.51V1479.52Z" fill="#191919"/>
<path d="M1022.06 1478.4C1022.35 1481.09 1022.65 1483.78 1022.94 1486.48C1023.08 1487.8 1023.22 1489.12 1023.37 1490.44C1023.56 1492.12 1024.46 1493.56 1025.22 1495.05C1026.05 1496.69 1028.84 1496.34 1029.23 1494.53C1029.56 1492.95 1030.07 1491.33 1029.84 1489.72C1029.64 1488.35 1029.42 1486.99 1029.21 1485.63C1028.8 1482.95 1028.39 1480.28 1027.97 1477.6C1027.74 1476.12 1025.99 1475.26 1024.66 1475.44C1023.31 1475.62 1021.88 1476.91 1022.05 1478.4H1022.06Z" fill="#191919"/>
<path d="M926.269 1477.91C917.699 1491.21 910.589 1505.3 902.579 1518.95C898.629 1525.69 894.689 1532.36 891.009 1539.25C887.589 1545.66 881.999 1553.1 884.689 1560.65C885.069 1561.71 886.089 1562.77 887.329 1562.66C895.409 1561.97 899.539 1554.47 903.729 1548.38C908.459 1541.5 912.589 1534.47 916.539 1527.11C924.309 1512.61 931.919 1498.11 937.039 1482.45C939.179 1475.89 929.779 1472.48 926.279 1477.91H926.269Z" fill="#191919"/>
<path d="M1402.73 564C1404.74 583.31 1404.06 603.28 1400.96 622.44C1397.86 641.64 1391.13 659.93 1386.06 678.62C1385.42 680.97 1388.52 682.05 1389.81 680.2C1401.55 663.55 1406.29 643.47 1408.9 623.51C1411.53 603.35 1410.43 583.39 1406.23 563.52C1405.82 561.59 1402.52 561.98 1402.73 563.99V564Z" fill="#191919"/>
<path d="M1146.12 573.06C1151.13 589.18 1154.83 605.71 1156.95 622.47C1159.04 638.98 1159.71 655.74 1160.57 672.35C1160.72 675.23 1164.63 675.1 1164.95 672.35C1168.91 638.66 1161.93 603.57 1151.14 571.68C1150.08 568.53 1145.12 569.84 1146.12 573.06Z" fill="#191919"/>
<path d="M1430.27 1414.21C1438.99 1441.57 1446 1469.45 1453.59 1497.14C1455.48 1504.03 1457.28 1510.94 1458.95 1517.88C1459.56 1520.41 1460.05 1520.06 1458.75 1521.29C1456.48 1523.44 1454.39 1525.81 1452.12 1527.98C1447.88 1532.04 1443.61 1535.67 1438.83 1539.05C1433.84 1542.58 1428.03 1545.87 1423.84 1550.28C1421.01 1553.26 1423.28 1557.32 1426.94 1557.76C1437.16 1558.99 1448.44 1552.62 1456.5 1546.93C1461.09 1543.7 1465.31 1540.2 1469.05 1536.01C1473.03 1531.55 1477.01 1526.9 1476.79 1520.56C1476.59 1514.6 1473.97 1508.36 1472.29 1502.7C1470.47 1496.56 1468.57 1490.44 1466.59 1484.35C1462.79 1472.64 1457.91 1461.04 1452.93 1449.78C1447.32 1437.1 1440.82 1424.73 1434.27 1412.51C1433.11 1410.34 1429.51 1411.82 1430.26 1414.2L1430.27 1414.21Z" fill="#191919"/>
<path d="M1471.08 913.04C1481.86 936.55 1492.64 960.06 1503.41 983.56C1514.28 1007.27 1525.91 1030.6 1537.37 1054.03C1558.95 1098.11 1581.49 1141.89 1600.75 1187.06C1619.36 1230.71 1634.5 1276.63 1638.46 1324.16C1641.57 1361.39 1636.72 1399.3 1623.17 1434.19C1616.56 1451.21 1607.8 1467.66 1596.95 1482.35C1586.15 1496.98 1572.9 1508.62 1558.73 1519.86C1555.07 1522.76 1551.25 1525.46 1547.33 1528C1545.36 1529.28 1547.06 1531.96 1549.13 1531.07C1557.64 1527.43 1565.81 1523.24 1573.16 1517.59C1580.53 1511.92 1587.41 1505.66 1593.72 1498.83C1606.17 1485.36 1616.75 1469.87 1624.61 1453.29C1640.96 1418.81 1648.46 1380.24 1647.67 1342.16C1646.69 1295.28 1633.62 1249.24 1616.43 1205.92C1598.17 1159.9 1575.23 1115.87 1553.21 1071.58C1541.38 1047.79 1529.56 1024 1517.73 1000.21C1506.05 976.7 1493.21 953.71 1480.93 930.51C1477.8 924.59 1474.67 918.67 1471.53 912.75C1471.36 912.43 1470.91 912.71 1471.06 913.03L1471.08 913.04Z" fill="#191919"/>
<path d="M1377.88 1011.82C1368.75 1039.1 1360.27 1066.38 1354.27 1094.55C1348.44 1121.89 1344.3 1150.21 1345.33 1178.24C1345.9 1193.87 1348.98 1209.68 1353.42 1224.64C1353.78 1225.85 1355.46 1225.33 1355.27 1224.13C1346.22 1168.58 1355.2 1112.51 1369.81 1058.77C1373.95 1043.52 1377.75 1028.17 1381.86 1012.91C1382.55 1010.34 1378.73 1009.33 1377.9 1011.82H1377.88Z" fill="#191919"/>
<path d="M645.519 1059.87C688.259 1112.78 718.189 1176.76 733.019 1243.04C747.799 1309.11 748.449 1378.3 735.789 1444.78C733.989 1454.23 732.399 1463.89 729.769 1473.14C727.239 1482.05 724.419 1490.87 721.309 1499.59C714.709 1518.1 706.759 1536.11 697.569 1553.49C697.319 1553.96 698.019 1554.37 698.279 1553.9C715.269 1523.6 727.129 1491.49 737.759 1458.52C748.399 1425.52 752.989 1390.43 753.959 1355.87C755.909 1286.45 741.339 1217.18 712.059 1154.21C695.649 1118.93 673.809 1086.49 647.839 1057.53C646.399 1055.93 644.209 1058.24 645.519 1059.85V1059.87Z" fill="#191919"/>
<path d="M499.55 961.2C470.96 1001.08 444.72 1042.51 420.84 1085.38C409.08 1106.49 398.46 1128.39 388.44 1150.38C378.58 1172.01 369.63 1194.12 363.01 1216.97C350.27 1260.93 347.7 1306.78 360.03 1351.12C371.5 1392.38 393.34 1430.35 418.57 1464.66C431.64 1482.43 445.57 1499.56 459.81 1516.4C466.76 1524.62 473.83 1532.69 481.3 1540.45C488.56 1547.99 496.2 1555.44 505.19 1560.91C509.48 1563.52 513.98 1565.71 518.66 1567.53C520.29 1568.16 521.24 1565.63 519.82 1564.78C501.47 1553.74 489.05 1535.96 475.62 1519.79C461.97 1503.36 448.29 1486.97 435.45 1469.89C410.25 1436.36 386.72 1400.51 372.92 1360.64C366.13 1341.04 361.73 1320.6 360.65 1299.86C359.46 1277.07 362.29 1254.39 367.71 1232.26C378.93 1186.48 400.04 1143.55 421.63 1101.91C446.35 1054.24 472.01 1007.28 500.98 962.02C501.56 961.12 500.17 960.35 499.56 961.19L499.55 961.2Z" fill="#191919"/>
<path d="M973.389 1467.37C975.579 1468.49 977.829 1469.92 980.139 1470.75C982.579 1471.62 985.469 1471.79 988.029 1472.2C993.379 1473.06 998.749 1473.81 1004.13 1474.49C1014.92 1475.85 1025.72 1476.52 1036.58 1476.79C1057.85 1477.31 1080.73 1477.23 1101.07 1470.17C1102.42 1469.7 1102.12 1467.89 1100.74 1467.75C1090.24 1466.71 1079.63 1467.28 1069.09 1467.14C1058.25 1467 1047.42 1467.47 1036.58 1467.21C1026.01 1466.95 1015.43 1466.32 1004.88 1465.61C999.609 1465.25 994.349 1464.8 989.099 1464.26C986.689 1464.01 984.019 1463.34 981.609 1463.42C979.019 1463.51 976.299 1464.25 973.739 1464.62C972.449 1464.81 972.289 1466.82 973.379 1467.37H973.389Z" fill="#191919"/>
<path d="M1165.83 1466.95C1170.41 1467.19 1174.99 1467.43 1179.57 1467.67C1181.86 1467.79 1184.15 1467.91 1186.44 1468.03C1187.6 1468.09 1188.77 1468.25 1189.92 1468.06C1191.09 1467.86 1192.23 1467.47 1193.37 1467.15C1195.45 1466.56 1195.46 1463.52 1193.37 1462.92C1192.23 1462.6 1191.09 1462.2 1189.92 1462.01C1188.78 1461.81 1187.6 1461.98 1186.44 1462.04C1184.15 1462.16 1181.86 1462.28 1179.57 1462.4C1174.99 1462.64 1170.41 1462.88 1165.83 1463.12C1163.36 1463.25 1163.36 1466.83 1165.83 1466.95Z" fill="#191919"/>
<path d="M981.419 1518.33C962.199 1560.94 949.889 1606.24 942.899 1652.42C941.989 1658.45 951.189 1661.07 952.149 1654.97C959.309 1609.23 972.449 1564.73 989.189 1521.61C990.919 1517.16 983.409 1513.95 981.429 1518.34L981.419 1518.33Z" fill="#191919"/>
<path d="M1232.7 1515.86C1235.1 1521.4 1237.22 1527.04 1239.56 1532.6C1241.78 1537.88 1244.65 1542.92 1247.05 1548.12C1251.94 1558.72 1255.99 1569.59 1259.96 1580.56C1263.87 1591.38 1267.08 1602.35 1270.1 1613.45C1271.66 1619.2 1273.42 1624.89 1274.96 1630.66C1276.27 1635.56 1276.75 1643.4 1281.7 1645.73C1282.46 1646.09 1283.23 1646.02 1283.86 1645.45C1286.61 1642.96 1286.28 1640.85 1286.04 1637.39C1285.84 1634.45 1285.63 1631.51 1285.24 1628.58C1284.43 1622.42 1283.64 1616.17 1282.26 1610.1C1279.63 1598.52 1276.04 1586.97 1271.9 1575.84C1267.72 1564.61 1262.64 1553.64 1257.19 1542.99C1254.5 1537.73 1251.87 1532.21 1248.46 1527.38C1244.86 1522.29 1240.83 1517.45 1236.8 1512.7C1234.72 1510.25 1231.64 1513.38 1232.71 1515.85L1232.7 1515.86Z" fill="#191919"/>
<path d="M1144.13 1512.89C1146.53 1524.75 1148.58 1536.68 1150.24 1548.66C1151.91 1560.68 1154.11 1572.6 1155.55 1584.66C1156.97 1596.61 1158.04 1608.61 1158.92 1620.61C1159.34 1626.37 1159.68 1632.13 1159.93 1637.9C1160.16 1643.27 1158.95 1651.17 1162.04 1655.78C1163.77 1658.37 1167.43 1658.49 1169.14 1655.78C1166.27 1657.66 1165.78 1658.15 1167.67 1657.25C1168.15 1656.99 1168.53 1656.64 1168.82 1656.19C1169.88 1654.97 1170.23 1653.73 1170.5 1652.19C1171.02 1649.28 1170.67 1646.1 1170.59 1643.16C1170.42 1636.89 1170.14 1630.62 1169.76 1624.36C1168.99 1611.6 1167.63 1598.94 1165.82 1586.29C1164.05 1573.94 1162.2 1561.42 1159.22 1549.29C1156.11 1536.64 1152.21 1524.14 1148.1 1511.78C1147.26 1509.26 1143.61 1510.28 1144.14 1512.87L1144.13 1512.89Z" fill="#191919"/>
<path d="M1078.97 1516.92C1072.27 1539.27 1069.15 1562.1 1067.59 1585.33C1066.82 1596.8 1066.16 1608.4 1066.61 1619.9C1067.07 1631.49 1067.47 1643.21 1069.94 1654.57C1070.77 1658.36 1076.16 1657.23 1076.4 1653.7C1077.16 1642.21 1076.5 1630.67 1076.76 1619.15C1077.01 1607.87 1076.91 1596.61 1077.47 1585.33C1078.6 1562.68 1081.2 1540.08 1083.27 1517.5C1083.5 1514.97 1079.65 1514.63 1078.97 1516.92Z" fill="#191919"/>
<path d="M1303.25 1645.57C1313.83 1647.57 1325.2 1647.11 1335.95 1646.4C1347.45 1645.64 1358.94 1644.19 1370.41 1643.12C1375.44 1642.65 1380.35 1642.74 1385.38 1642.65C1389.63 1642.58 1394.06 1641.82 1397.5 1639.18C1401.86 1635.84 1403.12 1630.48 1401.74 1625.28C1400.31 1619.87 1397.9 1613.88 1394.97 1609.13C1393.8 1607.23 1391.65 1605.8 1389.35 1605.9C1387.37 1605.99 1386.24 1606.61 1384.75 1607.81C1382.84 1609.34 1382.75 1611.98 1383.08 1614.15C1383.74 1618.45 1385.15 1623.95 1387.25 1627.81C1387.38 1628.16 1387.49 1628.51 1387.58 1628.87C1387.76 1629.85 1388.03 1629.42 1388.4 1627.58C1388.4 1627.54 1388.67 1627.26 1388.68 1627.27C1388.68 1627.26 1385.75 1627.58 1385.38 1627.59C1376.1 1627.8 1367.04 1629.16 1357.86 1630.44C1348.5 1631.74 1338.99 1632.66 1329.75 1634.67C1320.53 1636.68 1311.43 1638.21 1302.79 1642.06C1301.31 1642.72 1301.69 1645.27 1303.25 1645.56V1645.57Z" fill="#191919"/>
<path d="M1324.96 1560.89C1328.51 1573.91 1333.87 1586.32 1336.9 1599.54C1338.39 1606.04 1339.47 1612.63 1340.07 1619.28C1340.37 1622.64 1340.67 1625.87 1341.35 1629.18C1341.92 1631.97 1342.39 1634.74 1345.04 1636.27C1345.63 1636.61 1346.38 1636.62 1346.98 1636.27C1352.18 1633.19 1350.88 1623.63 1350.31 1618.62C1349.47 1611.31 1348.21 1604.06 1346.43 1596.92C1343.06 1583.45 1338.03 1569.25 1328.86 1558.63C1327.29 1556.82 1324.38 1558.76 1324.97 1560.9L1324.96 1560.89Z" fill="#191919"/>
<path d="M502.012 390.73C486.772 421.75 473.782 453.52 463.132 486.41C452.432 519.47 443.762 553.18 437.182 587.29C430.682 620.99 426.762 655.34 424.692 689.59C422.622 723.75 421.012 759.41 430.442 792.69C434.802 808.07 441.652 822.78 451.892 835.13C456.612 840.81 462.702 845.5 468.562 849.96C474.742 854.67 481.502 858.45 488.742 861.27C489.462 861.55 489.972 860.35 489.272 860.02C482.742 856.98 476.652 853.13 471.152 848.48C465.862 844 462.162 838.8 458.052 833.3C449.882 822.37 443.322 809.97 439.072 797C428.552 764.85 429.852 730.1 431.742 696.76C435.542 629.74 447.252 562.83 466.212 498.44C476.862 462.26 489.662 426.45 504.262 391.68C504.802 390.4 502.622 389.48 502.012 390.73Z" fill="#191919"/>
</g>
<defs>
<clipPath id="clip0_157_128">
<rect width="1295.74" height="1913.79" fill="white" transform="translate(352 43)"/>
</clipPath>
</defs>
</svg>
