<svg width="2000" height="2000" viewBox="0 0 2000 2000" fill="none" xmlns="http://www.w3.org/2000/svg">
<g clip-path="url(#clip0_157_129)">
<path d="M1131.2 1748.56C1130.46 1748.61 1129.84 1749.18 1129.85 1749.95C1129.85 1750.37 1129.85 1750.79 1129.83 1751.21C1129.83 1751.23 1129.83 1751.21 1129.83 1751.23C1129.83 1751.25 1129.83 1751.23 1129.83 1751.27C1129.8 1751.37 1129.79 1751.48 1129.77 1751.57C1129.74 1751.67 1129.72 1751.77 1129.69 1751.85C1129.69 1751.85 1129.69 1751.85 1129.69 1751.87C1129.66 1751.91 1129.62 1752.02 1129.6 1752.06C1129.56 1752.13 1129.51 1752.19 1129.48 1752.27C1129.43 1752.32 1129.39 1752.36 1129.33 1752.41C1129.33 1752.41 1129.31 1752.43 1129.31 1752.44C1129.26 1752.46 1129.21 1752.5 1129.16 1752.52C1129.16 1752.52 1129.15 1752.52 1129.14 1752.52C1129.1 1752.52 1129.06 1752.55 1129.03 1752.55C1129.03 1752.55 1129.03 1752.55 1129 1752.55C1128.98 1752.55 1128.94 1752.55 1128.92 1752.55C1128.84 1752.55 1128.82 1752.55 1128.8 1752.55C1128.67 1752.51 1128.5 1752.46 1128.43 1752.44C1128.42 1752.44 1128.41 1752.43 1128.38 1752.41C1128.3 1752.38 1128.22 1752.33 1128.14 1752.28C1128.12 1752.27 1128.09 1752.24 1128.08 1752.23C1128.1 1752.26 1128.1 1752.26 1128.14 1752.29C1128.08 1752.22 1127.98 1752.17 1127.92 1752.11C1127.78 1751.98 1127.64 1751.84 1127.52 1751.7C1127.52 1751.7 1127.5 1751.67 1127.47 1751.65C1127.41 1751.59 1127.36 1751.5 1127.31 1751.44C1127.1 1751.13 1126.89 1750.79 1126.68 1750.46C1126.31 1749.85 1125.44 1749.56 1124.81 1749.96C1124.19 1750.36 1123.93 1751.17 1124.31 1751.83C1124.84 1752.69 1125.4 1753.59 1126.2 1754.24C1127.17 1755.02 1128.35 1755.43 1129.6 1755.21C1130.67 1755.02 1131.59 1754.2 1132.04 1753.23C1132.54 1752.16 1132.6 1751.02 1132.58 1749.86C1132.58 1749.15 1131.93 1748.47 1131.2 1748.51V1748.56Z" fill="#191919"/>
<path d="M1115.51 1745.53C1108.98 1746.39 1110.19 1756.59 1116.76 1755.72C1123.3 1754.85 1122.09 1744.65 1115.51 1745.53Z" fill="#191919"/>
<path d="M1139.39 1742.12C1132.85 1742.99 1134.07 1753.19 1140.64 1752.32C1147.17 1751.45 1145.97 1741.25 1139.39 1742.12Z" fill="#191919"/>
<path d="M1269.47 972.219C1234.65 951.167 1189.13 954.896 1160.42 981.099C1141.66 994.06 1127.12 1013.75 1120.16 1035.54C1106.9 1077.11 1115.66 1127.68 1140.42 1163.46C1165.76 1200.06 1214.07 1220.31 1257.45 1207.1C1300.06 1194.13 1323.7 1155.31 1326.9 1112.33C1330.77 1060.18 1316.98 1000.96 1269.46 972.219H1269.47ZM1180.61 1060.02C1177.98 1062.67 1174.91 1064.5 1171.66 1065.97C1168.54 1069 1165.02 1071.57 1161.04 1073.42C1157.54 1075.03 1153.53 1075.52 1149.73 1074.94C1144.95 1074.2 1141.02 1071.31 1138.12 1067.56C1135.24 1063.83 1134.12 1059.21 1133.3 1054.69C1132.57 1050.59 1132.41 1046.35 1132.62 1042.21C1133.02 1034.38 1134.41 1025.42 1140.44 1019.76C1143.43 1016.97 1146.61 1015.18 1150.39 1014.22C1151.8 1013.19 1153.33 1012.28 1154.99 1011.53C1162.67 1008.07 1171.48 1010.87 1177.87 1015.67C1185.11 1021.1 1187.06 1030.27 1186.07 1038.77C1186.02 1039.21 1185.87 1039.61 1185.8 1040.04C1185.82 1040.14 1185.86 1040.23 1185.88 1040.33C1187.24 1047.24 1185.69 1054.91 1180.58 1060.04L1180.61 1060.02Z" fill="#191919"/>
<path d="M849.002 1181.19C840.392 1115.45 795.023 1054.15 726.24 1067.67C688.352 1075.12 656.765 1105.5 644.476 1142.11C616.412 1225.68 702.742 1364.06 799.237 1307.85C840.89 1283.59 855.536 1231.11 849.002 1181.19ZM697.739 1185.12C694.12 1194.06 685.741 1201.49 675.528 1199.45C675.467 1199.44 675.406 1199.4 675.345 1199.39C671.848 1200.18 667.938 1199.34 665.157 1197.03C659.984 1192.74 657.543 1185.64 656.547 1178.8C655.478 1176.61 655.114 1173.85 655.551 1171.6C655.648 1171.08 655.843 1170.55 656.037 1170.02C656.098 1162.38 657.591 1154.3 662.57 1148.36C663.53 1147.22 664.659 1146.22 665.861 1145.33C669.225 1142.26 673.463 1140.32 678.466 1140.35C678.721 1140.3 678.952 1140.22 679.219 1140.18C685.279 1139.31 691.667 1141.83 695.237 1146.85C695.954 1147.86 696.536 1148.9 696.998 1149.98C698.735 1152.78 699.925 1155.82 700.58 1159.19C702.281 1167.87 701.054 1176.94 697.751 1185.1L697.739 1185.12Z" fill="#191919"/>
<path d="M1099.66 1026.3C1103.96 1021.33 1106.39 1015.25 1109.63 1009.56C1112.73 1004.15 1115.68 998.664 1118.98 993.392C1125.02 983.759 1130.27 975.948 1137.6 967.882C1140.96 964.189 1144.51 960.655 1148.24 957.314C1153.24 952.819 1154.37 951.981 1158.71 948.957C1166.62 943.454 1175.19 938.898 1183.89 934.805C1187.63 933.043 1180.86 935.91 1184.71 934.465C1185.85 934.039 1186.98 933.578 1188.13 933.165C1190.41 932.339 1192.72 931.586 1195.05 930.893C1199.7 929.533 1204.4 928.585 1209.16 927.771C1213.04 927.115 1206.67 927.844 1209.14 927.771C1210.12 927.747 1211.13 927.553 1212.12 927.468C1214.51 927.261 1216.9 927.115 1219.29 927.055C1224.1 926.933 1228.92 927.115 1233.72 927.601C1234.54 927.686 1238.65 928.294 1234.24 927.601C1235.24 927.759 1236.25 927.905 1237.24 928.075C1239.45 928.452 1241.64 928.889 1243.82 929.387C1248.66 930.492 1253.42 931.914 1258.07 933.614C1259.25 934.039 1260.41 934.513 1261.59 934.963C1265.6 936.481 1258.42 933.432 1262.31 935.266C1264.24 936.177 1266.18 937.064 1268.09 938.024C1272.77 940.393 1277.33 943.016 1281.71 945.895C1284.35 947.632 1286.92 949.467 1289.45 951.362C1286.24 948.956 1289.91 951.763 1290.37 952.139C1291.45 953.026 1292.52 953.925 1293.58 954.836C1298.31 958.93 1302.94 963.108 1307.29 967.615C1311.52 972.012 1317.18 978.633 1319.92 982.192C1318.63 980.503 1321.76 984.706 1321.52 984.366C1322.79 986.103 1324.03 987.865 1325.25 989.65C1327.43 992.845 1329.51 996.113 1331.53 999.417C1341.93 1016.46 1367.69 1001.37 1358.27 983.783C1334.93 940.222 1295.59 903.962 1245.26 896.71C1223.26 893.54 1200.79 895.35 1179.87 903.112C1157.95 911.239 1139.13 924.747 1124.01 942.591C1114.98 953.245 1107.01 964.93 1100.84 977.479C1097.5 984.281 1094.39 991.509 1092.29 998.797C1090.25 1005.9 1087.56 1014.14 1088.31 1021.55C1088.83 1026.72 1095.52 1031.04 1099.66 1026.25V1026.3Z" fill="#191919"/>
<path d="M617.08 1197.09C619.473 1185.44 620.626 1174.33 621.428 1163.09C622.071 1153.97 624.257 1144.38 626.953 1133.96C628.265 1128.9 629.734 1123.9 631.531 1118.98C631.871 1118.06 632.224 1117.13 632.576 1116.21C632.636 1116.04 634.507 1111.55 633.268 1114.43C634.434 1111.73 635.697 1109.07 637.02 1106.45C639.218 1102.11 641.635 1097.88 644.246 1093.78C645.545 1091.74 646.893 1089.73 648.29 1087.77C648.848 1086.98 649.419 1086.21 649.99 1085.42C651.071 1083.99 651.144 1083.88 650.196 1085.12C650.791 1084.36 651.386 1083.62 652.006 1082.88C658.333 1075.19 665.473 1068.15 673.282 1061.96C671.035 1063.75 673.464 1061.84 674.047 1061.42C675.006 1060.74 675.941 1060.04 676.901 1059.38C678.819 1058.05 680.775 1056.77 682.766 1055.54C687.126 1052.85 691.643 1050.44 696.294 1048.3C696.185 1048.35 700.363 1046.54 698.237 1047.42C696.112 1048.31 700.338 1046.62 700.229 1046.67C702.391 1045.86 704.589 1045.09 706.799 1044.4C711.668 1042.88 716.647 1041.67 721.687 1040.8C722.197 1040.72 726.8 1040.12 723.011 1040.56C723.946 1040.45 724.869 1040.34 725.804 1040.26C728.148 1040.04 730.491 1039.88 732.847 1039.81C738.118 1039.64 743.34 1039.94 748.586 1040.4C753.322 1040.82 745.428 1039.75 750.128 1040.61C751.585 1040.88 753.042 1041.11 754.488 1041.4C757.426 1041.99 760.353 1042.7 763.243 1043.51C766.206 1044.35 769.133 1045.3 772.023 1046.37C773.25 1046.82 774.476 1047.29 775.691 1047.78C776.723 1048.2 776.662 1048.16 775.509 1047.69C776.492 1048.13 777.464 1048.57 778.447 1048.99C791.283 1054.77 802.055 1063.41 814.247 1070.18C820.38 1073.58 828.261 1072.2 832.5 1066.53C837.041 1060.45 835.888 1053.66 831.394 1047.95C822.857 1037.09 809.766 1028.98 797.55 1022.7C786.268 1016.9 774.027 1012.54 761.519 1010.29C738.239 1006.09 714.012 1007.7 691.85 1016.27C647.525 1033.41 614.154 1071.31 599.933 1116.4C591.857 1141.98 589.744 1175.6 605.799 1198.53C608.579 1202.5 615.914 1202.67 617.08 1197.06V1197.09Z" fill="#191919"/>
<path d="M956.317 475.327C985.268 537.704 1013.82 600.288 1038.64 664.439C1060.44 720.754 1078.71 778.406 1092.06 837.321C1100.35 873.922 1106.78 910.947 1111.72 948.142C1113.82 964.007 1135.92 961.31 1133.58 945.178C1124.21 880.773 1110.71 816.865 1090.49 754.949C1071.09 695.524 1046.5 637.957 1020.39 581.204C1003.07 543.559 985.462 506.06 968.011 468.476C964.344 460.568 952.661 467.444 956.317 475.315V475.327Z" fill="#191919"/>
<path d="M852.004 448.433C911.958 585.42 965.597 725.395 1016.15 866.111C1030.41 905.785 1044.48 945.519 1058.8 985.18C1062.41 995.166 1078.3 991.047 1074.9 980.746C1027.68 837.625 971.341 697.213 911.861 558.78C895.236 520.079 878.514 481.413 861.634 442.821C858.768 436.273 849.174 441.934 852.028 448.445L852.004 448.433Z" fill="#191919"/>
<path d="M1532.36 1062.33C1543.74 1035.7 1572.46 1010.33 1603.29 1015.2C1640.43 1021.06 1657.94 1064.59 1663.22 1097.06C1667.61 1123.95 1663.82 1154.98 1656.25 1182.61C1648.08 1212.45 1635.07 1240.82 1616.06 1265.62C1607.17 1277.2 1594.45 1289.96 1582.82 1298.1C1569.3 1307.56 1557.01 1313.87 1542.02 1318.12C1531.41 1321.12 1532.96 1339.3 1544.71 1338.09C1615.18 1330.76 1659.8 1257.57 1678.38 1195.82C1688.26 1162.97 1692.22 1127.86 1687.18 1093.83C1681.16 1053.12 1658.21 1006.12 1614.51 995.919C1594.98 991.351 1575.02 996.404 1558.99 1008.22C1541.77 1020.93 1531.49 1039.09 1523.51 1058.6C1521.46 1063.63 1530.2 1067.37 1532.35 1062.33H1532.36Z" fill="#191919"/>
<path d="M1627.23 1132.84C1618.86 1135.75 1610.29 1138.21 1602.72 1142.9C1595.05 1147.66 1587.74 1153.37 1581.51 1159.9C1568.62 1173.38 1558.1 1188.49 1549.28 1204.87C1542.88 1216.73 1559.38 1225.81 1567.03 1215.25C1576.43 1202.28 1584.75 1188.29 1595.09 1176.03C1600.03 1170.15 1605.17 1164.32 1610.86 1159.16C1616.8 1153.77 1623.11 1148.09 1630.64 1145.22C1638.23 1142.33 1635.12 1130.12 1627.23 1132.86V1132.84Z" fill="#191919"/>
<path d="M1632.26 1187.22C1628.59 1182.64 1621.67 1181.34 1616.33 1179.56C1610.04 1177.47 1603.75 1175.49 1597.38 1173.67C1583.61 1169.75 1579.56 1191.83 1594.68 1193.64C1601.18 1194.42 1607.66 1195.02 1614.19 1195.51C1619.94 1195.95 1626.11 1197.17 1631.36 1194.26C1634.1 1192.74 1633.99 1189.39 1632.27 1187.23L1632.26 1187.22Z" fill="#191919"/>
<path d="M1492.22 1299.74C1483.27 1326.67 1471.64 1353.92 1457.8 1378.71C1444.4 1402.69 1429.91 1424.21 1410.93 1443.78C1366.96 1489.15 1309.72 1521.66 1251.36 1545.26C1215.55 1559.75 1178.61 1571.02 1141.73 1582.4C1125.1 1587.54 1132 1611.72 1148.87 1608.3C1218.05 1594.27 1286.34 1567.53 1346.64 1530.81C1374.87 1513.62 1402.26 1493.95 1425.22 1470.06C1445.03 1449.43 1462.24 1425.87 1475.26 1400.37C1482.8 1385.6 1488.64 1369.68 1493.66 1353.89C1498.94 1337.27 1501.6 1320.26 1504.57 1303.14C1505.97 1295.09 1494.85 1291.78 1492.21 1299.73L1492.22 1299.74Z" fill="#191919"/>
<path d="M852.211 444.752C853.134 516.119 863.238 587.157 874.969 657.454C887.538 732.708 903.264 807.342 919.488 881.878C927.758 919.924 936.429 957.764 946.156 995.469C948.33 1003.89 960.449 1000.23 958.992 991.934C946.63 921.844 929.045 852.797 913.938 783.265C897.86 709.275 882.352 635.066 871.532 560.092C866.019 521.864 861.586 483.333 859.23 444.765C858.951 440.294 852.151 440.209 852.211 444.765V444.752Z" fill="#191919"/>
<path d="M764.907 475.898C750.395 543.025 748.318 611.755 751.221 680.182C754.33 753.577 764.081 826.984 779.759 898.751C787.725 935.218 797.331 971.332 809.985 1006.46C814.587 1019.22 835.001 1013.86 830.52 1000.8C808.552 936.809 793.639 870.472 783.535 803.624C772.8 732.61 767.129 660.309 768.586 588.469C769.327 551.978 771.076 515.195 776.359 479.057C777.427 471.72 766.571 468.282 764.931 475.898H764.907Z" fill="#191919"/>
<path d="M440.192 997.486C439.184 1010.8 436.063 1024.05 434.8 1037.4C433.683 1049.19 433.112 1061.05 432.493 1072.87C431.315 1095.41 431.485 1118.06 432.566 1140.59C434.691 1184.81 441.892 1228.43 454.922 1270.77C458.906 1283.7 463.362 1296.49 468.22 1309.13C473.6 1323.15 478.919 1337.06 487.589 1349.41C493.831 1358.3 508.197 1353.1 505.501 1341.85C502.478 1329.22 497.341 1317.58 492.617 1305.52C488.342 1294.6 484.359 1283.57 480.716 1272.43C473.867 1251.46 468.268 1230.1 464.127 1208.43C456.015 1166.04 454.048 1123.53 453.526 1080.48C453.368 1067.47 453.307 1054.46 453.453 1041.44C453.611 1026.8 451.692 1012.03 452.299 997.473C452.627 989.638 440.787 989.784 440.204 997.473L440.192 997.486Z" fill="#191919"/>
<path d="M505.309 1369.53C507.264 1390.65 509.814 1411.77 515.886 1432.17C521.715 1451.78 529.123 1471.01 538.304 1489.3C556.653 1525.84 584.742 1557.77 618.829 1580.41C656.305 1605.31 700.8 1619.24 744.664 1627.67C792.377 1636.85 841.098 1640.06 889.625 1639.83C942.062 1639.58 995.531 1637.63 1047.31 1629C1057.43 1627.31 1054.31 1612.38 1044.99 1611.88C1000.49 1609.5 955.675 1612.67 911.107 1612.38C865.106 1612.07 818.377 1610.11 773.165 1602.76C730.395 1595.8 687.296 1584.61 650.124 1563.48C641.417 1558.54 633.098 1553 625.035 1547.07C622.217 1545 619.862 1543.15 616.097 1539.97C612.247 1536.7 608.495 1533.31 604.876 1529.8C590.692 1516.05 581.378 1503.71 570.813 1487.66C559.397 1470.31 549.889 1451.44 542.53 1432.46C534.26 1411.14 526.39 1389.46 519.784 1367.57C517.489 1359.95 504.495 1360.93 505.285 1369.54L505.309 1369.53Z" fill="#191919"/>
<path d="M671.837 495.091C665.899 512.923 659.268 530.355 653.864 548.394C648.266 567.089 642.886 585.978 638.745 605.062C630.257 644.274 624.221 684.13 622.181 724.216C618.258 801.243 629.819 881.781 672.59 947.535C697.218 985.399 732.678 1020.78 775.145 1037.67C778.776 1039.11 783.05 1036.38 784.422 1033.11C786.05 1029.24 784.386 1025.68 781.204 1023.29C765.114 1011.22 748.295 1000.04 733.346 986.528C719.611 974.126 706.848 960.363 696.003 945.348C674.582 915.66 659.985 881.902 651.12 846.468C632.625 772.551 636.923 694.176 650.294 619.785C654.083 598.733 658.212 577.742 663.106 556.922C667.83 536.842 672.371 516.556 678.613 496.937C679.986 492.613 673.27 490.803 671.849 495.067L671.837 495.091Z" fill="#191919"/>
<path d="M727.576 911.579C732.761 931.986 744.517 951.386 754.827 969.522C765.489 988.29 776.528 1007.06 789.922 1024.03C793.711 1028.83 802.163 1022.4 798.472 1017.43C786.036 1000.69 774.524 983.054 763.546 965.343C752.774 947.985 740.4 929.435 734.571 909.659C733.247 905.177 726.422 907.048 727.576 911.591V911.579Z" fill="#191919"/>
<path d="M953.769 471.306C977.863 521.415 1002.38 571.292 1030.55 619.25C1057.66 665.386 1087.21 709.992 1120.39 751.998C1184.04 832.572 1261 903.659 1351.97 952.236C1405.17 980.649 1462.27 1001.25 1521.6 1012.21C1527.57 1013.31 1533.73 1010.57 1535.45 1004.35C1536.99 998.737 1533.55 991.788 1527.59 990.501C1476.63 979.507 1426.5 963.448 1379.52 940.769C1334.48 919.025 1292.12 891.742 1253.43 860.061C1173.54 794.647 1108.86 712.506 1053.36 625.907C1020.34 574.378 989.545 521.147 961.942 466.533C959.185 461.091 951.183 465.864 953.794 471.294L953.769 471.306Z" fill="#191919"/>
<path d="M1454.74 988.387C1477.35 1062.72 1493.54 1139.22 1496.26 1217.06C1499.08 1297.7 1484.38 1377.36 1482.55 1457.81C1481.52 1503.05 1484.53 1549.13 1499.32 1592.19C1502.83 1602.42 1518.38 1598.36 1515.65 1587.68C1505.66 1548.79 1500.98 1509.04 1500.92 1468.92C1500.85 1428.37 1504.64 1387.95 1508.01 1347.59C1511.35 1307.73 1513.95 1267.89 1512.45 1227.87C1510.99 1189.34 1506.29 1150.99 1498.75 1113.19C1490.14 1070.02 1478.05 1027.56 1465.01 985.545C1462.98 979.021 1452.75 981.791 1454.75 988.375L1454.74 988.387Z" fill="#191919"/>
<path d="M1502.56 1018.38C1514.69 1051.21 1521.04 1086.92 1524.31 1121.69C1527.59 1156.65 1528.73 1191.57 1527.66 1226.67C1525.49 1298.67 1516.91 1370.32 1514.3 1442.3C1512.83 1482.81 1513.81 1523.77 1518.95 1563.99C1519.53 1568.44 1522.33 1572.17 1527.18 1572.22C1531.34 1572.27 1535.77 1568.42 1535.4 1563.99C1529.34 1491.55 1534.85 1418.83 1540.43 1346.53C1545.91 1275.39 1550.21 1203.17 1542.21 1132.07C1537.68 1091.86 1526.64 1053.36 1512.12 1015.74C1509.85 1009.88 1500.33 1012.34 1502.55 1018.38H1502.56Z" fill="#191919"/>
<path d="M1553.31 1330.25C1560.07 1375.6 1564.68 1423.4 1553.76 1468.49C1549.37 1486.6 1542.53 1503.96 1532.69 1519.81C1527.81 1527.69 1522.27 1535.14 1515.97 1541.93C1509.41 1549.02 1501.81 1554.94 1495.05 1561.8C1486.19 1570.8 1497.35 1583.04 1507.81 1578.33C1522.82 1571.57 1534.81 1557.51 1544.38 1544.49C1553.95 1531.46 1561.12 1516.68 1566.72 1501.56C1579.44 1467.13 1581.69 1429.78 1578.25 1393.49C1576.12 1370.9 1572.13 1348.53 1567.55 1326.32C1565.6 1316.85 1551.96 1321.07 1553.32 1330.24L1553.31 1330.25Z" fill="#191919"/>
<path d="M1685.58 1236C1692.53 1263.53 1697.76 1291.36 1700.17 1319.67C1702.47 1346.86 1703.24 1374.37 1698.25 1401.33C1693.27 1428.19 1682.97 1453.42 1666.88 1475.56C1649.9 1498.93 1626.98 1518.59 1603.78 1535.56C1577.03 1555.13 1548.7 1572.56 1518.53 1586.33C1509.41 1590.5 1515.96 1606.39 1525.43 1602.7C1554.44 1591.4 1582.8 1577.57 1608.26 1559.56C1633.62 1541.63 1658.26 1521.27 1677.81 1496.99C1696.73 1473.48 1709.65 1446.56 1715.83 1416.99C1721.71 1388.9 1722.15 1359.97 1719.37 1331.49C1716.09 1297.92 1707.6 1264.85 1699.36 1232.21C1697.12 1223.31 1683.35 1227.08 1685.61 1236H1685.58Z" fill="#191919"/>
<path d="M287.365 992.007C283.625 1012.14 278.707 1032.11 274.092 1052.05C269.818 1070.52 266.004 1089.09 261.876 1107.59C254.31 1141.46 247.097 1175.4 239.968 1209.35C226.889 1271.63 215.049 1334.19 209.815 1397.68C204.326 1464.4 202.249 1534.97 221.497 1599.79C241.28 1666.41 287.39 1723.15 350.271 1753.55C380.922 1768.37 413.843 1777.04 447.761 1779.7C464.01 1780.97 480.367 1780.72 496.579 1779C513.435 1777.22 530.861 1774.57 546.782 1768.57C555.125 1765.42 563.225 1761.9 571.082 1757.69C582.376 1751.64 574.47 1734.79 562.605 1737.56C531.541 1744.82 501.656 1751.48 469.912 1751.47C438.811 1751.47 408.998 1745.93 379.549 1734.29C321.769 1711.45 274.226 1663.15 253.387 1603.97C231.929 1543.05 232.949 1476.56 237.029 1412.56C240.915 1351.51 250.278 1292.9 261.572 1232.67C274.432 1164.09 288.41 1095.87 297.032 1026.58C298.319 1016.28 299.266 1005.95 300.675 995.676C301.853 987.124 289.029 983.127 287.378 992.007H287.365Z" fill="#191919"/>
<path d="M1138.68 1839.73C1138.68 1839.73 1138.05 1836.81 1137.82 1836.01C1137.17 1833.73 1136.32 1831.58 1135.12 1829.5C1133.32 1826.37 1131.15 1823.32 1129.14 1820.32C1124.55 1813.49 1119.46 1806.99 1114.83 1800.18C1105.31 1786.17 1095.71 1772.23 1086.51 1758C1069.79 1732.16 1053.92 1705.18 1033.57 1681.98C1023.5 1670.5 1005.04 1685.29 1012.67 1698.11C1028.33 1724.45 1044.97 1750.26 1062.36 1775.51C1072.3 1789.95 1082.38 1804.29 1093.57 1817.81C1098.78 1824.11 1103.94 1830.72 1109.84 1836.38C1112.91 1839.32 1116.17 1842.55 1119.68 1844.96C1122.18 1846.69 1127.68 1847.99 1129.11 1849.31C1135.64 1855.31 1144.2 1846.37 1138.7 1839.73H1138.68Z" fill="#191919"/>
<path d="M881.305 1623.55C871.493 1625.48 862.531 1626.3 855.658 1634.57C849.063 1642.52 845.493 1652.11 844.315 1662.29C841.959 1682.6 848.371 1701.73 855.973 1720.25C874.505 1765.36 899.764 1808 932.249 1844.49C951.521 1866.14 972.591 1885.62 995.603 1903.22C1000.8 1907.2 1009.22 1904.55 1012.76 1899.8C1016.61 1894.65 1016.61 1886.97 1011.72 1882.32C979.755 1851.94 948.436 1820.11 924.027 1784.66C911.568 1766.58 900.566 1747.51 890.923 1727.77C882.277 1710.07 873.205 1693.92 870.352 1674.91C870.692 1677.2 870.376 1675 870.327 1674.58C870.194 1673.28 870.084 1671.98 870.024 1670.69C869.902 1668.32 869.89 1665.95 870.024 1663.58C870.097 1662.17 870.449 1658.36 870.449 1658.34C870.449 1658.26 871.311 1654.24 871.748 1652.78C872.501 1650.35 874.262 1647.5 876.533 1644.02C878.452 1641.08 880.953 1637.72 884.9 1636.64C893.388 1634.29 889.782 1621.9 881.293 1623.57L881.305 1623.55Z" fill="#191919"/>
<path d="M1184.31 1850.04C1187.85 1842.27 1190.3 1834.89 1191.85 1826.48C1193.44 1817.72 1194.15 1808.53 1194.92 1799.68C1196.53 1780.97 1197.53 1762.19 1199.1 1743.47C1199.86 1734.36 1200.31 1725.26 1200.71 1716.13C1201.09 1707.43 1200.21 1698.72 1201.09 1690.05C1201.84 1682.55 1202.67 1675.06 1203.69 1667.6C1204.74 1659.86 1206.7 1652.07 1206.58 1644.26C1206.42 1634.47 1190.92 1628.44 1186.52 1638.83C1180.23 1653.68 1179.55 1671.55 1177.71 1687.46C1176.81 1695.26 1174.76 1702.84 1173.61 1710.6C1172.14 1720.54 1171.08 1730.58 1170.55 1740.62C1169.58 1759.06 1168.83 1777.5 1168.18 1795.95C1167.55 1813.65 1167.57 1831.72 1173.25 1848.61C1174.75 1853.05 1181.99 1855.14 1184.31 1850.05V1850.04Z" fill="#191919"/>
<path d="M1237.28 1580.68C1248.56 1577.55 1260.56 1574.21 1272.2 1572.91C1282.93 1571.72 1294.28 1571.54 1303.91 1577.04C1320.61 1586.59 1326.84 1606.58 1330.35 1624.9C1334.73 1647.8 1334.98 1671.22 1334.1 1694.45C1333.21 1717.77 1330.76 1742.14 1324.01 1764.54C1320.2 1777.21 1315.62 1789.66 1310.08 1801.67C1304.25 1814.35 1296.94 1826.2 1290.78 1838.7C1288.42 1843.49 1289.08 1849.24 1293.55 1852.59C1297.48 1855.52 1304.26 1855.97 1307.69 1851.76C1324.91 1830.52 1336.13 1803.25 1344.69 1777.46C1353.51 1750.93 1360.37 1724.36 1362.69 1696.43C1364.87 1670.04 1362.6 1642.52 1357.04 1616.64C1351.98 1593.09 1341.06 1567.01 1318.69 1555.08C1304.49 1547.51 1287.57 1545.68 1271.96 1549.44C1256.48 1553.18 1243.74 1560.79 1231.39 1570.55C1226.46 1574.45 1231.85 1582.18 1237.28 1580.66V1580.68Z" fill="#191919"/>
<path d="M531.237 1024.36C537.078 1021.74 540.636 1013.39 544.243 1008.27C548.603 1002.09 551.359 998.202 555.78 993.064C558.524 989.869 561.378 986.832 563.965 983.504C562.362 985.569 565.216 981.937 565.665 981.39C567.086 979.641 568.543 977.928 570.037 976.228C574.967 970.603 580.25 965.283 585.775 960.242C608.739 939.324 640.483 922.487 669.738 912.125C690.309 904.837 711.694 899.358 733.189 895.605C742.394 893.989 747.579 882.716 745.272 874.323C742.528 864.313 733.286 860.985 723.996 862.236C684.055 867.617 645.523 881.04 610.913 901.776C595.429 911.056 580.833 921.916 567.438 934.015C555.379 944.911 542.349 957.812 534.783 972.328C530.679 980.212 526.987 988.436 524.473 996.975C522.336 1004.22 518.778 1015.33 522.992 1022.18C524.837 1025.18 528.213 1025.72 531.261 1024.36H531.237Z" fill="#191919"/>
<path d="M1289.67 798.34C1287.28 790.311 1278.95 785.646 1272.34 781.322C1265.61 776.912 1258.53 773.329 1251.17 770.073C1243.06 766.49 1234.66 762.663 1226.08 760.343C1217.55 758.035 1208.73 756.456 1200 755.071C1164.4 749.422 1128.16 747.418 1092.28 751.451C1072.43 753.686 1053.43 757.355 1034.48 763.671C1015.58 769.964 1023.17 797.854 1042.71 793.542C1057.93 790.189 1073.5 787.699 1088.94 785.573C1086.49 785.913 1091.49 785.27 1092.28 785.172C1094.34 784.929 1096.39 784.699 1098.44 784.492C1102.88 784.043 1107.34 783.666 1111.79 783.302C1120.2 782.597 1128.65 782.16 1137.09 781.978C1154 781.625 1171.1 782.087 1187.88 784.286C1189.47 784.492 1194.73 785.306 1197.98 785.865C1202.37 786.618 1206.73 787.468 1211.06 788.404C1219.02 790.128 1227.04 791.538 1235 793.311C1243.46 795.194 1251.73 797.721 1260.05 800.15C1268.16 802.507 1276.86 807.426 1285.47 805.787C1288.64 805.179 1290.57 801.28 1289.69 798.34H1289.67Z" fill="#191919"/>
<path d="M1061.2 1694.25C1079.1 1694.23 1096.46 1691.15 1113.9 1687.34C1131.15 1683.57 1149.1 1680.73 1165.45 1673.86C1173.9 1670.3 1173.17 1658.11 1163.22 1657.46C1144.94 1656.24 1126.79 1661.05 1109.46 1666.38C1092.75 1671.52 1075.98 1676.44 1059.62 1682.6C1053.65 1684.85 1054.12 1694.25 1061.2 1694.25Z" fill="#191919"/>
<path d="M995.98 1894.78C1016.18 1913.03 1049.78 1906.1 1072.41 1896.2C1094.37 1886.59 1114.7 1867.86 1127.98 1848.07C1132.61 1841.17 1123.19 1831.23 1116.23 1836.32C1098.83 1849.07 1085.24 1865.77 1066.12 1876.34C1057.03 1881.37 1047.17 1884.47 1036.99 1886.41C1025.09 1888.68 1012.56 1891.03 1000.93 1886.29C996.175 1884.35 992.398 1891.54 995.992 1894.78H995.98Z" fill="#191919"/>
<path d="M1177.32 1855.11C1196 1864.23 1215.2 1868.35 1236 1868C1256.66 1867.64 1277.56 1862.94 1295.35 1852.3C1303.27 1847.56 1298.08 1833.27 1288.83 1836.83C1271.79 1843.36 1254.27 1848.95 1236 1850.63C1217.85 1852.29 1198.67 1850.71 1180.95 1846.49C1175.97 1845.32 1172.32 1852.68 1177.32 1855.12V1855.11Z" fill="#191919"/>
<path d="M871.313 1727.06C867.549 1739.99 865.545 1753.21 863.08 1766.44C860.53 1780.17 857.287 1793.76 853.365 1807.17C849.54 1820.29 846.273 1833.5 841.913 1846.47C839.521 1853.56 838.088 1861.3 842.095 1868.18C846.795 1876.22 855.527 1878.76 864.185 1876.46C872.734 1874.19 875.333 1863.25 869.31 1857.05C867.634 1855.33 864.476 1852.46 863.711 1851.5C864.889 1853.53 866.067 1855.54 867.245 1857.57C866.638 1856.04 870.111 1848.06 870.949 1845.32C872.661 1839.67 874.24 1833.98 875.71 1828.26C878.575 1817.11 880.276 1805.87 881.709 1794.44C884.49 1772.21 886.651 1749.08 881.575 1727.06C880.361 1721.8 872.734 1722.19 871.313 1727.06Z" fill="#191919"/>
<path d="M1347.7 1669.15C1348.62 1677.63 1354.62 1684.61 1359.13 1691.58C1363.88 1698.94 1368.69 1706.25 1373.55 1713.53C1378.67 1721.17 1383.78 1728.65 1389.43 1735.9C1391.89 1739.09 1394.53 1742.2 1396.86 1745.48C1397.19 1745.95 1397.53 1746.44 1397.85 1746.91C1398.73 1748.78 1398.95 1748.93 1398.51 1747.34C1399.46 1743.3 1397.61 1746.12 1396.26 1747.89C1392.39 1753.02 1394.94 1761.24 1399.63 1764.75C1404.69 1768.53 1412.22 1768.54 1416.79 1763.73C1425.12 1754.95 1428.53 1743.93 1421.54 1733.06C1415.74 1724.04 1407.3 1715.28 1399.82 1707.65C1392.33 1700 1384.87 1692.31 1377.26 1684.78C1370.41 1678.01 1362.95 1667.76 1353.53 1664.72C1350.91 1663.88 1347.38 1666.21 1347.71 1669.15H1347.7Z" fill="#191919"/>
<path d="M940.568 1285.25C966.106 1276.55 992.009 1268.54 1017.95 1261.15C1031.57 1257.26 1045.2 1254.08 1059.24 1252.05C1072.09 1250.19 1085.15 1249.97 1097.95 1248.01C1104.07 1247.08 1102.06 1238.19 1096.57 1237.8C1083.66 1236.89 1069.96 1239.38 1057.2 1241.19C1042.89 1243.23 1028.54 1245.4 1014.32 1248.03C987.067 1253.06 960.338 1261.4 936.73 1276.2C932.152 1279.06 935.03 1287.14 940.556 1285.26L940.568 1285.25Z" fill="#191919"/>
<path d="M931.216 1282.42C927.27 1294.19 926.128 1306.84 925.302 1319.19C924.513 1330.96 924.064 1342.79 924.537 1354.58C925.436 1376.73 930.208 1399.02 939.389 1419.22C955.37 1454.39 985.281 1480.03 1023.85 1486.07C1056.65 1491.19 1091.02 1484.12 1116.86 1462.61C1143.92 1440.08 1152.03 1405.25 1149.08 1371.36C1145.06 1325.27 1128.69 1277.7 1102.41 1239.58C1097.51 1232.48 1085.9 1239.05 1090.71 1246.42C1111.77 1278.7 1127.14 1315.86 1134.08 1353.79C1137.12 1370.4 1139.39 1388.79 1135.45 1405.43C1132.11 1419.56 1125.21 1432.72 1115.47 1443.49C1095.97 1465.08 1066.64 1474.41 1038.08 1472.85C1022.33 1472 1005.95 1468.14 992.506 1459.67C977.788 1450.4 966.494 1436.48 958.394 1421.24C947.975 1401.62 943.773 1379.88 942.352 1357.88C941.539 1345.34 941.271 1332.85 941.672 1320.29C942.073 1307.65 942.923 1294.98 941.016 1282.42C940.203 1277.06 932.649 1278.14 931.216 1282.42Z" fill="#191919"/>
<path d="M750.661 656.179C745.816 763.453 781.337 869.706 846.379 954.824C855.633 966.935 865.372 978.669 875.731 989.869C886.028 1001 896.509 1012.38 909.284 1020.64C918.222 1026.41 926.055 1014.04 919.983 1006.77C911.543 996.659 901.439 988.108 892.295 978.608C883.612 969.583 875.293 960.193 867.363 950.487C851.03 930.48 836.518 908.979 823.779 886.519C798.52 842.01 780.025 793.25 769.691 743.118C763.777 714.45 759.951 685.454 759.125 656.179C758.968 650.712 750.904 650.736 750.661 656.179Z" fill="#191919"/>
<path d="M930.706 1006.69C930.111 1000.63 929.504 994.57 928.921 988.521C925.752 989.832 922.594 991.144 919.425 992.456C927.719 1001.25 935.88 1009.85 944.987 1017.81C949.626 1021.87 955.443 1015.82 951.654 1011.14C944.052 1001.72 935.77 993.222 927.294 984.597C923.396 980.625 916.522 984.682 917.992 990.015C919.631 995.93 921.246 1001.86 922.874 1007.77C924.027 1011.97 931.168 1011.32 930.718 1006.72L930.706 1006.69Z" fill="#191919"/>
<path d="M1076.21 991.63L1099.72 986.298C1107.34 984.573 1103.88 972.073 1096.51 974.624C1088.9 977.26 1081.3 979.896 1073.7 982.52C1067.99 984.5 1070.24 992.979 1076.21 991.618V991.63Z" fill="#191919"/>
<path d="M452.215 1222.31C444.066 1224.47 436.865 1233.33 431.825 1239.64C425.947 1247.02 421.357 1254.72 417.835 1263.48C410.598 1281.48 408.375 1301.15 413.33 1320.04C415.868 1329.72 431.825 1328.04 431.145 1317.62C430.088 1301.4 430.805 1284.93 435.42 1269.27C437.666 1261.66 440.496 1253.98 444.139 1246.91C447.661 1240.06 453.793 1233.46 456.088 1226.19C456.829 1223.85 454.461 1221.72 452.215 1222.31Z" fill="#191919"/>
<path d="M449.411 1466.47C450.322 1479.46 455.459 1490.83 464.032 1500.56C472.424 1510.08 483.365 1516.07 494.708 1521.38C516.725 1531.68 547.801 1543.1 569.684 1526.4C580.103 1518.44 571.42 1502.14 559.179 1508.43C541.668 1517.43 519.991 1510.63 502.82 1504.06C484.045 1496.88 464.494 1485.41 457.487 1465.38C456.042 1461.26 449.059 1461.57 449.411 1466.47Z" fill="#191919"/>
<path d="M453.672 1338.01C456.478 1344.48 458.056 1351.75 460.376 1358.43C462.55 1364.7 464.468 1371.06 466.035 1377.51C469.241 1390.64 471.536 1403.76 472.847 1417.2C473.406 1422.93 477.341 1427.86 483.498 1427.86C488.829 1427.86 494.706 1422.96 494.148 1417.2C492.678 1402.02 489.497 1386.81 483.947 1372.57C481.263 1365.69 478.324 1358.87 474.936 1352.3C471.317 1345.28 466.363 1339.59 461.833 1333.25C458.263 1328.25 451.28 1332.48 453.685 1338.01H453.672Z" fill="#191919"/>
<path d="M1000.47 1635.38C1002.89 1637.45 1004.41 1640.32 1006.88 1642.49C1009.31 1644.62 1011.75 1646.72 1014.1 1648.94C1019.05 1653.63 1024.08 1658.26 1028.77 1663.23C1033.09 1667.82 1037.22 1672.62 1040.95 1677.71C1045.25 1683.56 1048.71 1689.96 1054.68 1694.28C1061.98 1699.54 1070.3 1690.89 1068.72 1683.48C1067.15 1676.14 1061.25 1670.02 1056.48 1664.49C1051.8 1659.07 1046.79 1653.93 1041.48 1649.12C1036.09 1644.24 1030.46 1639.6 1024.3 1635.71C1021.57 1633.99 1018.8 1632.27 1015.94 1630.76C1012.41 1628.87 1008.85 1628.62 1005.29 1627.11C1000.71 1625.18 996.853 1632.31 1000.47 1635.41V1635.38Z" fill="#191919"/>
<path d="M1166.25 1670.37C1172.25 1655.97 1179.38 1642.03 1186.22 1628.02C1189.71 1620.9 1193.38 1613.87 1197.35 1607.01C1201.23 1600.28 1205.8 1593.84 1208.1 1586.37C1211.02 1576.83 1199.33 1572.06 1192.73 1577.42C1186.69 1582.34 1183.21 1589.9 1180.01 1596.85C1176.33 1604.81 1172.99 1612.92 1169.88 1621.11C1164.12 1636.25 1160.1 1651.91 1156.92 1667.78C1155.67 1674.03 1163.89 1676.02 1166.25 1670.36V1670.37Z" fill="#191919"/>
<path d="M1189.21 1663.71C1201.71 1635.75 1221.14 1610.98 1231.46 1582.06C1234.02 1574.89 1222.42 1569.91 1219.07 1576.83C1205.81 1604.29 1189.94 1630.88 1178.8 1659.33C1176.47 1665.28 1186.56 1669.59 1189.2 1663.71H1189.21Z" fill="#191919"/>
<path d="M946.76 1637.16C956.681 1647.36 969.748 1654.46 981.03 1663.08C992.554 1671.9 1003.52 1681.31 1014.73 1690.51C1019.02 1694.03 1025.08 1694.71 1029.26 1690.51C1033.05 1686.72 1033.39 1679.71 1029.26 1675.97C1017.86 1665.62 1005.01 1656.67 991.716 1648.9C979.099 1641.54 965.036 1633.03 950.403 1630.89C946.893 1630.38 943.918 1634.24 946.76 1637.16Z" fill="#191919"/>
<path d="M1012.15 1619.74C1011.43 1643.79 1032.91 1664.11 1056.3 1665.47C1080.62 1666.89 1106.34 1642.19 1101.86 1617.53C1100.26 1608.7 1086.6 1609.29 1084.59 1617.53C1081.29 1631.12 1072.22 1647.24 1056.3 1647.85C1040.39 1648.46 1023.59 1635.77 1021.59 1619.74C1020.86 1613.87 1012.35 1613.49 1012.15 1619.74Z" fill="#191919"/>
<path d="M1092.5 1620.87C1093.52 1639.43 1116.25 1646.96 1131.69 1647.88C1149.24 1648.94 1168.98 1643.23 1181.37 1630.42C1189.4 1622.12 1177.47 1610.7 1168.88 1617.93C1159.45 1625.86 1145.9 1630.53 1133.72 1631.51C1127.07 1632.04 1120.26 1631.7 1113.99 1629.21C1107.81 1626.76 1103.71 1622.39 1098.71 1618.29C1096.48 1616.47 1092.32 1617.44 1092.51 1620.86L1092.5 1620.87Z" fill="#191919"/>
<path d="M1430.84 897.767C1454.96 917.968 1480.22 937.161 1507.01 953.706C1520.44 962.003 1534.37 969.388 1548.61 976.179C1562.96 983.018 1577.73 989.978 1593.07 994.254C1600.09 996.21 1605.31 985.095 1598.19 982.095C1583.96 976.069 1569.25 971.271 1555.03 965.198C1540.81 959.112 1526.9 952.321 1513.16 945.215C1485.27 930.784 1458.87 914.032 1434.77 893.856C1432.04 891.572 1428.09 895.483 1430.84 897.791V897.767Z" fill="#191919"/>
<path d="M1135.73 1854.25C1137.54 1850.7 1137.76 1849.91 1136.38 1851.86C1136.04 1852.41 1135.84 1852.99 1135.82 1853.61C1135.49 1855.1 1135.94 1856.86 1136.35 1858.29C1137.45 1862.12 1139.84 1866.2 1142.12 1869.45C1144.49 1872.84 1147.31 1876.03 1150.12 1879.04C1151.51 1880.51 1152.93 1881.95 1154.39 1883.34C1155.36 1884.26 1156.34 1885.16 1157.34 1886.05C1159.16 1888.12 1159.05 1887.36 1156.99 1883.76C1157.56 1881.64 1158.14 1879.51 1158.71 1877.39C1158.49 1877.79 1158.28 1878.18 1158.07 1878.58C1159.58 1877.06 1161.1 1875.54 1162.62 1874.02C1163.52 1874.09 1163.36 1874.24 1162.16 1874.46C1161.15 1874.8 1160.13 1875.14 1159.12 1875.48C1157.09 1876.16 1155.07 1876.85 1153.05 1877.53C1148.65 1879.01 1144.37 1880.68 1140.38 1883.07C1131.14 1888.61 1134.17 1906.31 1146.31 1904.95C1154.74 1904 1162.69 1901.35 1170.61 1898.36C1180.37 1894.67 1185.57 1884.48 1179.57 1874.98C1175.44 1868.43 1167.13 1865.82 1160.91 1861.8C1154.7 1857.79 1148.79 1852.06 1141.71 1849.71C1138.95 1848.8 1135.51 1851.28 1135.75 1854.26L1135.73 1854.25Z" fill="#191919"/>
<path d="M1006.23 1903.22C1008.01 1910.72 1015.97 1917.36 1021.64 1922.26C1028.15 1927.87 1035.17 1933.07 1042.44 1937.65C1057.86 1947.36 1075.44 1953.09 1093.68 1953.93C1110.09 1954.68 1126.48 1950.29 1139.9 1940.67C1146.5 1935.94 1152.2 1929.98 1156.37 1922.98C1160.2 1916.56 1164.06 1908.23 1162.62 1900.71C1161.41 1894.45 1153.39 1893.47 1149.27 1897.19C1144.97 1901.06 1142.74 1907.09 1138.6 1911.35C1134.58 1915.48 1129.9 1918.92 1124.93 1921.81C1114.08 1928.13 1100.96 1930.11 1088.56 1929.37C1074.73 1928.54 1060.61 1923.63 1048.21 1917.64C1041.42 1914.36 1035.11 1910.35 1028.52 1906.71C1022.63 1903.44 1016.84 1898.74 1009.96 1898.34C1007.36 1898.18 1005.67 1900.93 1006.23 1903.24V1903.22Z" fill="#191919"/>
<path d="M1168.51 1837.25C1163.64 1841.59 1161.51 1849.01 1158.99 1854.89C1156.34 1861.05 1154.34 1867.73 1157.72 1874.09C1160.29 1878.9 1164.99 1882.05 1170.21 1883.36C1176.5 1884.93 1182.12 1882.66 1188.25 1881.95C1199.79 1880.64 1202.21 1865.99 1190.99 1861.75C1186.47 1860.04 1182.32 1860.23 1177.63 1860.96C1175.48 1861.3 1173.05 1860.6 1174.92 1862.89C1176.91 1865.35 1176.46 1861.57 1176.83 1859.91C1177.34 1857.61 1177.85 1855.31 1178.36 1853.02C1179.37 1848.5 1180.2 1844.67 1179.23 1840.09C1178.16 1835.09 1171.88 1834.26 1168.52 1837.26L1168.51 1837.25Z" fill="#191919"/>
<path d="M1153.05 1911.67C1164.95 1950.9 1213.99 1958.68 1246.68 1941.61C1283.72 1922.28 1301.71 1882.56 1307.17 1842.91C1308.39 1833.95 1295.87 1829.79 1293.16 1839.05C1284.18 1869.88 1268.6 1901.91 1238.82 1917.23C1213.68 1930.15 1182.23 1926.56 1161.54 1906.72C1157.98 1903.31 1151.53 1906.69 1153.05 1911.67Z" fill="#191919"/>
<path d="M1168.14 342.702C1165.76 347.755 1165.53 355.845 1165.13 360.145C1164.86 362.963 1164.51 366.559 1164.8 369.134C1165.09 371.637 1165.26 369.292 1164.6 369.985C1164.37 370.228 1162.2 371.515 1163.19 371.102C1158.06 373.192 1153.86 377.237 1153.97 383.201C1154.07 387.878 1156.08 391.68 1160.19 394.037C1164.86 396.721 1171.62 396.15 1175.39 392.069C1178.87 388.327 1180.86 384.27 1183.41 379.982C1186.37 375.002 1189.22 370.993 1190.06 365.016C1191.54 354.509 1185.24 340.855 1173.78 339.434C1171.71 339.179 1168.99 340.831 1168.13 342.677L1168.14 342.702Z" fill="#191919"/>
<path d="M1186.85 270.934C1190.08 270.376 1193.71 269.732 1196.21 267.4C1197.05 266.61 1197.78 265.687 1198.18 264.606C1199.57 260.864 1194.78 267.072 1194.5 266.768C1194.93 267.23 1199.45 267.266 1199.94 267.339C1201.84 267.643 1203.75 267.995 1205.64 268.42C1209.97 269.392 1214.23 270.667 1218.38 272.21C1234.27 278.126 1248.37 287.783 1259.68 300.392C1282.27 325.537 1290.57 360.728 1280.37 393.016C1270.52 424.162 1245.61 451.579 1214.08 461.358C1181.66 471.416 1145.37 464.261 1118.77 443.295C1111.41 437.488 1104.49 430.564 1099.2 422.802C1093.27 414.068 1090.9 405.225 1088.83 395.033C1086.96 385.752 1085.23 376.423 1084.57 366.972C1083.96 358.214 1083.44 348.678 1085.89 340.94C1089.71 328.878 1071.27 320.909 1065.33 332.267C1055.53 351.023 1059.8 372.839 1064.07 392.579C1066.26 402.674 1068.32 412.987 1072.73 422.377C1077.42 432.386 1084.8 441.436 1092.59 449.223C1121.22 477.891 1164.66 492.504 1204.76 487.135C1247.08 481.462 1283.32 452.442 1299.7 413.181C1307.48 394.535 1310.83 373.969 1308.27 353.865C1305.61 332.886 1296.93 313.997 1283.81 297.489C1270.12 280.252 1251.33 266.671 1230.5 259.443C1220.02 255.799 1208.22 254.122 1197.14 254.487C1193.73 254.596 1189.95 254.888 1188.07 258.216C1187.89 258.532 1186.71 261.715 1187.21 261.872C1187.47 261.958 1188.44 260.281 1187.72 260.075C1187.15 259.917 1183.69 262.103 1183.21 262.31C1177.97 264.594 1182 271.773 1186.85 270.934Z" fill="#191919"/>
<path d="M1172.69 374.467C1137.89 357.218 1101.74 340.381 1071.81 315.175C1059.14 304.51 1046.06 290.953 1041.5 275.526C1038.14 264.205 1037.74 251.632 1037.12 239.922C1036.42 226.596 1036.54 213.246 1037.42 199.933C1039.19 172.88 1044.09 146.253 1052.32 120.403C1056.36 107.685 1060.96 94.9057 1066.95 82.9526C1070.5 75.8585 1075.1 66.9058 1084.16 70.878C1095.17 75.7127 1104.69 86.609 1111.95 95.8653C1119.36 105.292 1125.51 115.739 1131.2 126.27C1144.11 150.164 1154.19 175.443 1161.42 201.633C1169.03 229.208 1174.39 258.301 1173.68 287.018C1173.1 310.875 1167.31 335.474 1148.85 351.909C1144.45 355.821 1144.86 363.316 1148.85 367.312C1153.28 371.746 1159.75 371.139 1164.25 367.312C1206.54 331.222 1198.66 264.35 1188.42 216.052C1182.1 186.182 1172.04 157.137 1158.88 129.599C1146.87 104.466 1132.22 78.6281 1110.46 60.6377C1099.07 51.2235 1084.72 42.125 1069.43 47.7493C1056.79 52.4018 1049.5 64.1848 1044.25 75.9192C1031.78 103.81 1022.88 133.158 1018.18 163.357C1013.47 193.616 1012.61 224.191 1016.2 254.633C1017.62 266.695 1019.03 278.454 1024 289.617C1028.11 298.898 1034.37 307.219 1041.22 314.653C1058.24 333.154 1080.14 347.111 1102.31 358.578C1123.36 369.475 1145.2 378.913 1167.6 386.651C1174.67 389.093 1179.5 377.844 1172.72 374.491L1172.69 374.467Z" fill="#191919"/>
<path d="M1069.42 248.401C1071.19 254.705 1075.1 260.621 1078.45 266.16C1084.05 275.405 1090.02 284.43 1095.99 293.431C1109.13 313.22 1122.72 332.74 1135.33 352.881C1137.89 356.975 1140.42 361.08 1142.75 365.308C1143.61 366.863 1144.41 368.442 1145.2 370.045C1145.78 371.211 1145.69 371.126 1145.51 370.677C1145.72 371.236 1145.92 371.807 1146.08 372.378C1148.59 381.367 1162.68 377.528 1160.08 368.515C1158.24 362.174 1154.3 356.258 1150.86 350.694C1145.18 341.487 1139.14 332.51 1133.08 323.557C1119.77 303.866 1106.03 284.454 1093.24 264.399C1090.64 260.33 1088.08 256.236 1085.72 252.033C1084.85 250.478 1084.02 248.911 1083.23 247.32C1082.72 246.299 1082.69 246.153 1082.86 246.554C1082.62 245.996 1082.43 245.425 1082.27 244.854C1079.89 236.642 1067.12 240.116 1069.44 248.389L1069.42 248.401Z" fill="#191919"/>
<path d="M1294.07 316.366C1318.76 290.394 1345.56 266.561 1376.87 248.826C1391.58 240.493 1406.98 233.508 1422.87 227.774C1431.64 224.616 1440.53 221.786 1449.5 219.247C1458.39 216.72 1468.44 212.857 1477.81 213.708C1493.95 215.165 1492.35 241.1 1492.14 252.543C1491.79 271.287 1487.78 289.994 1480.57 307.304C1465.78 342.811 1437.2 370.325 1402.09 385.545C1383.94 393.417 1364.29 397.304 1344.56 397.511C1336.68 397.596 1328.78 397.401 1320.91 396.733C1316.47 396.357 1313.12 396.004 1309.73 395.494C1306.52 395.02 1307.52 395.336 1304.71 394.729C1303.97 394.571 1303.26 394.377 1302.53 394.182C1300.32 393.563 1303.5 394.838 1301.51 393.794C1291.17 388.376 1279.42 401.932 1288.61 410.521C1301.39 422.462 1321.36 422.777 1337.83 423.166C1357.64 423.64 1377.43 421.514 1396.4 415.647C1439.28 402.382 1476.29 372.353 1497.19 332.498C1507.79 312.296 1514.25 290.48 1516.72 267.825C1518.93 247.429 1519.38 221.47 1506.31 204.342C1490 182.975 1463.29 191.599 1441.94 198.803C1422.88 205.241 1404.17 212.954 1386.38 222.381C1346.95 243.287 1313.42 273.133 1285.19 307.486C1280.15 313.62 1288.4 322.367 1294.09 316.39L1294.07 316.366Z" fill="#191919"/>
<path d="M1298.51 374.528C1308.68 368.6 1319.41 363.486 1330.07 358.518C1336.56 355.493 1342.95 352.213 1349.52 349.359C1353.36 347.694 1358.47 345.326 1362.2 345.034C1368.64 344.524 1368.81 334.599 1362.2 334.867C1357.16 335.073 1352.24 336.895 1347.57 338.657C1340.58 341.293 1333.58 344.196 1326.95 347.621C1315.69 353.44 1304.38 359.489 1293.73 366.377C1288.66 369.657 1293.21 377.601 1298.49 374.528H1298.51Z" fill="#191919"/>
<path d="M1321.97 408.553C1394.38 438.946 1456.53 491.131 1503.92 553.338C1552.4 616.966 1588.33 689.73 1618.43 763.55C1652.94 848.145 1682.94 935.011 1706.51 1023.27C1720.54 1075.78 1732.14 1128.81 1743.41 1181.96C1754.71 1235.27 1765.55 1288.91 1768.27 1343.47C1770.55 1389.23 1768.93 1438.58 1747.79 1480.31C1738.71 1498.23 1726.47 1513.69 1708.52 1523.21C1690.36 1532.85 1669.67 1536.98 1649.71 1541.02C1639.82 1543.03 1629.96 1545.27 1620.16 1547.67C1606.07 1551.11 1612.18 1571.65 1626.07 1569.13C1667.27 1561.69 1714.97 1557.42 1745.79 1525.57C1778.15 1492.13 1789.86 1443.09 1792.97 1398.02C1796.88 1341.36 1789.04 1284.59 1778.45 1229.04C1767.97 1174.12 1756 1119.34 1742.73 1065.03C1719.45 969.741 1687.96 877.068 1651.61 786.023C1620.75 708.716 1585.48 632.102 1536.26 564.587C1488.33 498.82 1428.02 442.857 1352.87 409.962C1343.6 405.905 1334.18 402.163 1324.65 398.75C1318.37 396.502 1316.09 406.087 1321.96 408.553H1321.97Z" fill="#191919"/>
<path d="M332.052 1403.71C330.959 1436.57 331.639 1469.2 336.727 1501.74C341.779 1534.09 351.956 1565.85 365.97 1595.42C392.103 1650.54 438.238 1699.01 493.881 1724.73C524.92 1739.08 558.911 1747.69 593.266 1744.74C606.017 1743.64 606.029 1726 593.266 1724.89C538.06 1720.09 485.599 1698.1 444.407 1660.8C400.228 1620.78 371.459 1565.96 356.826 1508.61C348.082 1474.33 342.617 1439.15 343.176 1403.71C343.285 1396.53 332.283 1396.55 332.052 1403.71Z" fill="#191919"/>
<path d="M927.95 1140.63C931.301 1137 934.944 1133.67 938.843 1130.62C938.078 1131.22 937.3 1131.81 936.535 1132.41C942.449 1127.84 948.874 1123.99 955.759 1121.09C954.848 1121.47 953.95 1121.85 953.039 1122.24C958.394 1120.02 963.956 1118.39 969.7 1117.6C968.692 1117.73 967.684 1117.87 966.676 1118C971.109 1117.42 975.578 1117.34 980.022 1117.9C979.014 1117.77 978.007 1117.64 976.999 1117.5C980.872 1118.02 984.625 1119.02 988.244 1120.5C990.782 1121.55 994.765 1120.67 997.024 1119.35C999.392 1117.96 1001.64 1115.25 1002.26 1112.55C1002.93 1109.63 1002.78 1106.36 1001.1 1103.76C1000.51 1103 999.914 1102.22 999.319 1101.46C997.898 1100.05 996.222 1099.06 994.291 1098.53C983.083 1093.91 970.38 1093.91 958.686 1096.51C947.501 1099 936.669 1104.25 927.427 1110.95C921.841 1115.01 916.547 1119.45 911.859 1124.52C909.831 1126.72 908.52 1129.54 908.52 1132.58C908.52 1135.37 909.758 1138.71 911.859 1140.63C916.255 1144.66 923.651 1145.31 927.962 1140.63H927.95Z" fill="#191919"/>
<path d="M623.042 1363.27C613.169 1358.93 603.612 1353.89 594.492 1348.16C589.987 1345.33 585.591 1342.33 581.304 1339.18C580.26 1338.4 579.215 1337.63 578.171 1336.84C576.252 1335.38 579.847 1338.15 578.329 1336.96C577.782 1336.52 577.224 1336.1 576.677 1335.66C574.564 1333.97 572.488 1332.25 570.435 1330.47C562.323 1323.47 554.721 1315.88 547.714 1307.77C545.941 1305.71 544.217 1303.64 542.529 1301.52C542.152 1301.05 541.776 1300.58 541.412 1300.12C541.229 1299.88 541.047 1299.64 540.853 1299.4C540.1 1298.44 541.812 1300.65 541.715 1300.52C540.889 1299.37 540.015 1298.28 539.189 1297.15C535.971 1292.78 532.923 1288.3 530.045 1283.69C524.313 1274.52 519.285 1264.92 515.023 1254.99C514.902 1254.71 514.78 1254.43 514.659 1254.15C514.586 1253.99 515.679 1256.62 515.217 1255.46C514.987 1254.89 514.756 1254.33 514.525 1253.77C513.991 1252.45 513.469 1251.12 512.959 1249.79C511.975 1247.21 511.04 1244.61 510.165 1242C508.392 1236.74 506.838 1231.4 505.49 1226.02C504.154 1220.67 503.037 1215.27 502.126 1209.82C501.908 1208.47 501.689 1207.13 501.495 1205.78C501.41 1205.18 501.215 1204.51 501.228 1203.91C501.228 1203.73 501.58 1206.64 501.422 1205.36C501.361 1204.84 501.288 1204.32 501.228 1203.8C500.9 1201.06 500.608 1198.32 500.39 1195.57C499.442 1184.01 499.442 1172.38 500.365 1160.82C500.608 1157.82 500.912 1154.83 501.264 1151.84C501.337 1151.2 501.422 1150.54 501.507 1149.9C501.75 1147.98 501.118 1152.72 501.47 1150.19C501.665 1148.78 501.883 1147.36 502.102 1145.95C502.952 1140.64 503.96 1135.37 505.15 1130.12C507.518 1119.7 510.566 1109.44 514.27 1099.4C515.193 1096.9 516.164 1094.41 517.172 1091.94C517.391 1091.4 517.622 1090.85 517.852 1090.3C518.593 1088.52 516.784 1092.79 517.743 1090.57C518.29 1089.31 518.836 1088.04 519.407 1086.79C521.532 1082.07 523.815 1077.4 526.244 1072.81C531.101 1063.65 536.542 1054.8 542.541 1046.34C544.047 1044.23 545.577 1042.13 547.156 1040.06C547.326 1039.83 547.508 1039.6 547.678 1039.37C548.406 1038.4 546.658 1040.69 546.779 1040.54C547.119 1040.07 547.483 1039.63 547.848 1039.18C548.674 1038.12 549.524 1037.07 550.374 1036.04C553.64 1032.05 557.041 1028.16 560.562 1024.39C567.496 1016.97 574.929 1010.01 582.81 1003.6C583.757 1002.82 584.716 1002.05 585.688 1001.29C586.137 1000.94 586.574 1000.57 587.024 1000.24C587.194 1000.12 584.874 1001.87 585.846 1001.15C586.222 1000.87 586.599 1000.58 586.975 1000.29C588.93 998.81 590.922 997.364 592.926 995.955C597.091 993.028 601.353 990.234 605.713 987.61C609.988 985.035 614.359 982.605 618.804 980.333C621.075 979.179 623.358 978.062 625.665 976.981C626.783 976.458 627.9 975.96 629.017 975.462C629.539 975.232 630.049 975.001 630.572 974.782C630.827 974.673 631.094 974.563 631.349 974.442C633.073 973.689 629.175 975.341 630.45 974.818C639.849 970.968 649.443 967.688 659.304 965.198C664.222 963.959 669.189 962.902 674.192 962.039C675.431 961.821 676.657 961.626 677.896 961.432C678.467 961.347 679.038 961.262 679.608 961.177C679.9 961.14 680.179 961.092 680.471 961.055C682.401 960.788 680.045 961.177 679.45 961.189C681.94 961.14 684.49 960.582 686.967 960.351C697.496 959.379 708.098 959.233 718.651 959.889C721.371 960.059 724.091 960.29 726.811 960.557C728.123 960.691 729.447 960.837 730.758 960.995C731.365 961.068 731.972 961.153 732.58 961.225C733.794 961.371 730.94 961.068 731.074 961.019C731.365 960.922 732.252 961.189 732.604 961.238C738.069 962.027 743.497 963.023 748.877 964.226C759.721 966.655 770.371 969.947 780.681 974.078C781.349 974.345 782.029 974.624 782.697 974.891C782.989 975.013 783.268 975.134 783.559 975.244C784.701 975.717 782.114 974.636 782.272 974.697C783.596 975.292 784.932 975.851 786.243 976.446C788.793 977.6 791.307 978.791 793.809 980.042C798.715 982.496 803.524 985.132 808.224 987.938C813.02 990.805 817.708 993.854 822.286 997.073C824.484 998.627 826.658 1000.21 828.807 1001.83C829.05 1002.02 829.305 1002.21 829.548 1002.41C830.678 1003.26 827.605 1000.89 828.722 1001.76C829.208 1002.15 829.706 1002.53 830.192 1002.92C831.333 1003.81 832.463 1004.73 833.58 1005.65C842.153 1012.69 850.229 1020.36 857.722 1028.55C861.438 1032.6 865.008 1036.79 868.433 1041.11C868.882 1041.68 869.331 1042.25 869.781 1042.82C871.007 1044.39 868.323 1040.9 869.526 1042.49C870.4 1043.65 871.274 1044.81 872.137 1045.98C873.788 1048.24 875.415 1050.52 876.982 1052.84C883.224 1062.01 888.81 1071.62 893.668 1081.59C894.846 1084.01 895.987 1086.45 897.08 1088.92C897.371 1089.59 897.663 1090.24 897.954 1090.91C898.137 1091.34 899.011 1093.38 898.234 1091.56C897.457 1089.72 898.416 1092 898.61 1092.49C898.889 1093.16 899.157 1093.84 899.424 1094.51C901.476 1099.69 903.346 1104.97 904.998 1110.3C908.277 1120.88 910.742 1131.7 912.308 1142.67C912.357 1142.98 912.393 1143.29 912.442 1143.6C912.624 1144.83 912.175 1141.96 912.248 1142.11C912.466 1142.6 912.418 1143.44 912.478 1143.96C912.648 1145.41 912.818 1146.85 912.952 1148.3C913.231 1151.1 913.45 1153.91 913.608 1156.71C913.923 1162.22 914.021 1167.74 913.899 1173.26C913.778 1178.83 913.426 1184.42 912.855 1189.97C912.721 1191.31 912.563 1192.63 912.406 1193.97C912.333 1194.58 912.248 1195.2 912.175 1195.8C912.017 1197.07 912.393 1194.12 912.381 1194.31C912.333 1194.82 912.236 1195.33 912.163 1195.84C911.774 1198.49 911.349 1201.13 910.863 1203.75C908.884 1214.54 906.066 1225.17 902.496 1235.54C901.597 1238.15 900.65 1240.75 899.655 1243.33C899.181 1244.56 898.683 1245.8 898.185 1247.03C897.954 1247.6 897.724 1248.16 897.481 1248.73C897.335 1249.08 896.886 1250.15 897.578 1248.5C898.355 1246.65 897.614 1248.42 897.432 1248.83C895.283 1253.81 892.951 1258.7 890.462 1263.51C885.422 1273.23 879.678 1282.57 873.327 1291.48C872.549 1292.56 871.772 1293.64 870.983 1294.7C870.619 1295.2 870.254 1295.68 869.878 1296.17C869.538 1296.63 867.886 1298.77 869.089 1297.21C870.279 1295.67 868.943 1297.39 868.663 1297.76C868.226 1298.32 867.777 1298.88 867.328 1299.43C866.429 1300.55 865.53 1301.66 864.607 1302.76C861.134 1306.93 857.515 1310.97 853.763 1314.89C846.173 1322.79 838.025 1330.13 829.39 1336.9C827.836 1338.12 831.333 1335.43 829.742 1336.62C829.172 1337.06 828.601 1337.48 828.03 1337.92C826.876 1338.78 825.723 1339.63 824.557 1340.46C822.395 1342.01 820.197 1343.53 817.975 1345C813.36 1348.07 808.624 1350.96 803.779 1353.67C799.019 1356.35 794.149 1358.84 789.206 1361.13C787.992 1361.7 786.765 1362.25 785.539 1362.8C784.968 1363.05 784.397 1363.29 783.839 1363.54C781.446 1364.57 786.049 1362.63 783.705 1363.6C781.119 1364.67 778.508 1365.69 775.885 1366.66C763.376 1371.26 750.419 1374.68 737.279 1376.94C735.664 1377.21 734.049 1377.47 732.434 1377.71C731.499 1377.86 730.552 1377.96 729.617 1378.11C729.617 1378.11 731.948 1377.82 730.637 1377.97C730.102 1378.03 729.568 1378.1 729.034 1378.16C725.439 1378.59 721.832 1378.93 718.214 1379.18C711.231 1379.67 704.212 1379.81 697.217 1379.61C690.198 1379.41 683.215 1378.78 676.244 1377.98C674.933 1377.83 677.386 1378.14 677.35 1378.14C676.973 1378.08 676.584 1378.03 676.196 1377.98C675.309 1377.86 674.411 1377.73 673.524 1377.58C671.751 1377.3 669.978 1377.01 668.205 1376.68C664.939 1376.09 661.684 1375.42 658.442 1374.68C652.005 1373.19 645.642 1371.42 639.376 1369.37C636.376 1368.38 633.401 1367.33 630.45 1366.21C628.92 1365.63 627.39 1365.03 625.884 1364.42C625.471 1364.25 622.763 1363.12 624.451 1363.84C626.127 1364.56 623.37 1363.37 623.042 1363.22C620.128 1361.96 617.468 1361.19 614.262 1362.07C611.615 1362.8 608.761 1364.84 607.462 1367.3C604.863 1372.22 605.713 1380.35 611.542 1382.89C638.684 1394.71 667.549 1401.53 697.193 1402.38C725.937 1403.2 755.24 1398.47 782.224 1388.5C804.981 1380.09 825.869 1368.23 845.007 1353.37C863.284 1339.17 879.131 1322.24 892.623 1303.46C906.151 1284.63 916.777 1263.76 924.355 1241.86C931.933 1219.95 936.11 1196.72 936.669 1173.55C937.228 1150.07 933.852 1126.35 926.869 1103.93C919.935 1081.67 909.625 1060.34 896.485 1041.07C883.248 1021.67 867.413 1004 849.221 989.14C830.423 973.786 809.839 961.444 787.336 952.334C765.599 943.539 742.355 938.607 718.966 937.101C696.974 935.692 674.617 937.817 653.244 943.211C632.454 948.458 612.307 956.974 593.958 968.065C575.669 979.119 558.826 992.845 544.241 1008.48C529.341 1024.45 516.468 1042.48 506.292 1061.82C495.872 1081.59 487.954 1102.82 483.048 1124.63C477.778 1148.14 475.58 1172.48 477.669 1196.51C479.782 1220.77 485.744 1244.1 495.338 1266.45C504.349 1287.46 516.869 1306.81 531.806 1324.08C546.573 1341.16 564.108 1355.98 583.235 1367.96C592.282 1373.63 601.754 1378.62 611.53 1382.91C614.432 1384.19 617.116 1384.94 620.31 1384.07C622.957 1383.34 625.811 1381.3 627.111 1378.83C629.721 1373.9 628.847 1365.81 623.03 1363.25L623.042 1363.27Z" fill="#191919"/>
<path d="M1124.13 1240.2C1114.2 1235.84 1104.59 1230.77 1095.41 1224.97C1090.85 1222.09 1086.39 1219.04 1082.06 1215.82C1081.57 1215.47 1081.1 1215.11 1080.62 1214.74C1080.25 1214.46 1078.23 1212.91 1079.87 1214.18C1081.44 1215.4 1079.72 1214.07 1079.37 1213.78C1078.74 1213.29 1078.12 1212.79 1077.5 1212.29C1075.4 1210.6 1073.34 1208.88 1071.31 1207.11C1063.26 1200.12 1055.72 1192.54 1048.78 1184.43C1047.03 1182.39 1045.32 1180.3 1043.64 1178.2C1043.21 1177.66 1042.78 1177.1 1042.35 1176.55C1041.59 1175.59 1043.32 1177.81 1043.21 1177.67C1043.03 1177.43 1042.84 1177.2 1042.66 1176.95C1041.81 1175.83 1040.99 1174.72 1040.16 1173.59C1036.98 1169.21 1033.95 1164.73 1031.11 1160.14C1028.26 1155.52 1025.57 1150.8 1023.09 1145.99C1021.83 1143.57 1020.63 1141.13 1019.47 1138.66C1018.91 1137.47 1018.36 1136.28 1017.83 1135.08C1017.58 1134.52 1017.33 1133.97 1017.09 1133.42C1016.86 1132.88 1015.8 1130.4 1016.59 1132.26C1017.37 1134.11 1016.52 1132.08 1016.35 1131.65C1016.08 1131 1015.81 1130.34 1015.54 1129.67C1015.02 1128.35 1014.5 1127.03 1014 1125.69C1013.03 1123.11 1012.12 1120.51 1011.26 1117.9C1009.54 1112.73 1008.04 1107.51 1006.74 1102.21C1005.39 1096.77 1004.26 1091.26 1003.36 1085.72C1003.15 1084.38 1002.94 1083.03 1002.74 1081.68C1002.7 1081.36 1002.66 1081.06 1002.61 1080.74C1002.34 1078.86 1002.73 1081.8 1002.77 1081.9C1002.56 1081.23 1002.57 1080.4 1002.49 1079.7C1002.15 1076.86 1001.86 1074.01 1001.64 1071.16C1000.7 1059.49 1000.73 1047.74 1001.66 1036.07C1001.91 1033.08 1002.21 1030.09 1002.56 1027.1C1002.64 1026.47 1002.72 1025.85 1002.79 1025.22C1002.84 1024.81 1002.9 1024.38 1002.95 1023.97C1003.11 1022.7 1002.76 1025.61 1002.76 1025.44C1002.71 1024.04 1003.18 1022.46 1003.39 1021.09C1004.24 1015.55 1005.26 1010.03 1006.46 1004.57C1008.78 993.939 1011.73 983.443 1015.34 973.179C1016.24 970.628 1017.17 968.089 1018.14 965.574C1018.6 964.372 1019.09 963.157 1019.58 961.966C1019.83 961.323 1020.1 960.679 1020.37 960.035C1020.47 959.756 1020.6 959.488 1020.71 959.209C1021.24 957.909 1019.7 961.578 1020.26 960.29C1022.37 955.407 1024.58 950.572 1026.97 945.81C1031.67 936.469 1036.95 927.419 1042.81 918.758C1044.25 916.62 1045.73 914.506 1047.24 912.417C1047.97 911.421 1048.7 910.425 1049.44 909.429C1049.78 908.967 1050.13 908.518 1050.47 908.068C1051.9 906.173 1048.95 909.988 1050.42 908.117C1053.57 904.108 1056.82 900.197 1060.21 896.407C1066.84 888.985 1073.98 882.012 1081.57 875.574C1083.46 873.97 1085.4 872.391 1087.35 870.848C1087.64 870.618 1087.93 870.399 1088.21 870.168C1089.15 869.415 1086.82 871.249 1087 871.104C1087.42 870.751 1087.87 870.435 1088.31 870.095C1089.33 869.318 1090.36 868.553 1091.41 867.799C1095.4 864.896 1099.49 862.139 1103.7 859.539C1107.87 856.952 1112.15 854.51 1116.51 852.239C1120.81 850.003 1125.25 847.586 1129.82 845.958C1130.05 845.873 1127.23 847.027 1128.35 846.578C1128.6 846.481 1128.85 846.371 1129.1 846.262C1129.68 846.019 1130.28 845.776 1130.87 845.545C1132.05 845.072 1133.24 844.61 1134.43 844.16C1136.73 843.298 1139.05 842.472 1141.38 841.695C1146.05 840.14 1150.8 838.779 1155.59 837.601C1160.41 836.423 1165.28 835.439 1170.18 834.649C1171.28 834.479 1172.38 834.321 1173.47 834.151C1175.31 833.884 1170.5 834.528 1172.93 834.224C1173.57 834.139 1174.22 834.066 1174.86 833.993C1177.36 833.702 1179.87 833.459 1182.38 833.276C1192.64 832.511 1202.96 832.608 1213.21 833.531C1215.8 833.762 1218.49 834.382 1221.08 834.406C1221.3 834.406 1218.27 834.017 1219.51 834.2C1219.8 834.248 1220.09 834.285 1220.39 834.321C1221.07 834.418 1221.76 834.528 1222.44 834.625C1223.81 834.843 1225.18 835.062 1226.56 835.305C1231.93 836.253 1237.28 837.419 1242.57 838.803C1253.51 841.646 1264.18 845.412 1274.62 849.724C1275.77 850.198 1273.21 849.129 1273.35 849.19C1273.64 849.323 1273.93 849.432 1274.22 849.566C1274.9 849.858 1275.57 850.149 1276.24 850.441C1277.58 851.036 1278.92 851.631 1280.26 852.251C1282.73 853.393 1285.2 854.571 1287.64 855.798C1292.7 858.337 1297.69 861.033 1302.59 863.888C1307.48 866.743 1312.28 869.755 1316.97 872.926C1319.31 874.505 1321.63 876.133 1323.92 877.785C1325.03 878.586 1326.12 879.388 1327.22 880.202C1327.71 880.579 1328.22 880.955 1328.72 881.332C1329.05 881.587 1329.39 881.842 1329.72 882.097C1330.93 883.02 1329.18 881.696 1328.9 881.465C1337.7 888.547 1346.21 895.848 1354.14 903.914C1358.07 907.91 1361.87 912.04 1365.52 916.292C1367.34 918.418 1369.12 920.568 1370.87 922.754C1371.52 923.556 1374.21 927.115 1371.97 924.115C1372.83 925.269 1373.71 926.423 1374.58 927.577C1381.12 936.432 1387.05 945.762 1392.25 955.48C1394.86 960.363 1397.29 965.356 1399.52 970.433C1399.81 971.089 1400.08 971.757 1400.38 972.413C1400.45 972.571 1399.36 969.972 1399.84 971.113C1399.96 971.393 1400.08 971.684 1400.19 971.964C1400.73 973.288 1401.27 974.624 1401.79 975.96C1402.8 978.548 1403.75 981.147 1404.64 983.771C1408.26 994.303 1411.02 1005.14 1412.82 1016.13C1413.04 1017.47 1413.24 1018.8 1413.44 1020.14C1413.49 1020.44 1413.52 1020.76 1413.57 1021.06C1413.75 1022.3 1413.3 1019.44 1413.38 1019.58C1413.67 1020.25 1413.59 1021.34 1413.68 1022.06C1414.01 1024.87 1414.27 1027.68 1414.48 1030.49C1414.88 1036.01 1415.06 1041.53 1415.02 1047.05C1414.98 1052.64 1414.7 1058.22 1414.21 1063.79C1413.97 1066.56 1413.67 1069.33 1413.32 1072.08C1413 1074.57 1413.64 1069.82 1413.35 1071.8C1413.27 1072.41 1413.18 1073.03 1413.08 1073.64C1412.87 1075.06 1412.65 1076.48 1412.4 1077.9C1410.55 1088.82 1407.84 1099.58 1404.34 1110.09C1402.6 1115.34 1400.65 1120.5 1398.54 1125.62C1397.77 1127.46 1399.53 1123.32 1398.73 1125.16C1398.44 1125.81 1398.16 1126.47 1397.88 1127.12C1397.3 1128.44 1396.71 1129.73 1396.11 1131.03C1394.95 1133.54 1393.74 1136.03 1392.49 1138.49C1387.53 1148.25 1381.89 1157.65 1375.61 1166.61C1374.02 1168.87 1372.4 1171.11 1370.74 1173.31C1370.42 1173.72 1368.94 1175.65 1370.14 1174.11C1371.33 1172.57 1370 1174.29 1369.72 1174.66C1368.83 1175.79 1367.93 1176.9 1367.04 1178.01C1363.54 1182.28 1359.89 1186.44 1356.09 1190.46C1348.5 1198.5 1340.33 1206 1331.66 1212.85C1331.17 1213.22 1330.69 1213.6 1330.21 1213.99C1329.1 1214.86 1332.18 1212.48 1331.07 1213.33C1330.82 1213.52 1330.58 1213.71 1330.34 1213.89C1329.19 1214.75 1328.04 1215.62 1326.88 1216.46C1324.64 1218.08 1322.37 1219.67 1320.07 1221.22C1315.47 1224.31 1310.76 1227.23 1305.94 1229.98C1301.19 1232.67 1296.35 1235.19 1291.4 1237.52C1290.19 1238.09 1288.97 1238.65 1287.75 1239.2C1287.09 1239.49 1286.42 1239.78 1285.77 1240.07C1285.32 1240.26 1283 1241.25 1284.85 1240.47C1286.76 1239.66 1284.35 1240.68 1283.91 1240.85C1283.34 1241.08 1282.76 1241.31 1282.19 1241.54C1280.84 1242.07 1279.49 1242.6 1278.13 1243.11C1265.65 1247.78 1252.7 1251.27 1239.57 1253.61C1237.82 1253.93 1236.08 1254.21 1234.33 1254.49C1233.39 1254.63 1232.44 1254.77 1231.51 1254.9C1231.21 1254.95 1229.8 1255.15 1231.41 1254.91C1233.11 1254.67 1231.25 1254.93 1230.91 1254.98C1227.32 1255.41 1223.7 1255.78 1220.09 1256.03C1212.98 1256.55 1205.83 1256.71 1198.7 1256.53C1191.68 1256.35 1184.68 1255.76 1177.71 1254.94C1175.51 1254.68 1179.86 1255.25 1177.68 1254.94C1176.79 1254.81 1175.89 1254.68 1175 1254.55C1173.23 1254.28 1171.46 1253.98 1169.69 1253.66C1166.29 1253.06 1162.91 1252.36 1159.55 1251.59C1153.24 1250.14 1146.99 1248.4 1140.84 1246.39C1137.72 1245.37 1134.63 1244.27 1131.57 1243.12C1130.04 1242.54 1128.51 1241.94 1127 1241.33C1126.31 1241.05 1125.62 1240.73 1124.91 1240.47C1128.01 1241.6 1124.83 1240.42 1124.17 1240.14C1121.26 1238.88 1118.6 1238.11 1115.39 1238.99C1112.74 1239.72 1109.89 1241.76 1108.59 1244.22C1105.99 1249.14 1106.84 1257.27 1112.67 1259.81C1139.93 1271.68 1168.93 1278.52 1198.72 1279.32C1227.64 1280.1 1257.13 1275.25 1284.23 1265.09C1307.13 1256.51 1328.14 1244.44 1347.35 1229.34C1365.69 1214.92 1381.57 1197.68 1395 1178.63C1408.41 1159.61 1418.91 1138.52 1426.28 1116.45C1433.68 1094.26 1437.65 1070.73 1437.86 1047.35C1438.08 1023.76 1434.34 1000 1426.67 977.685C1419.07 955.54 1408.06 934.61 1394.13 915.806C1379.94 896.674 1363.42 879.546 1344.58 864.945C1325.01 849.773 1303.87 837.431 1281.03 827.859C1259.46 818.821 1236.87 812.893 1213.56 810.755C1192.2 808.787 1170.41 810.512 1149.59 815.602C1129.4 820.534 1109.89 828.879 1092.23 839.824C1074.33 850.927 1057.97 864.738 1043.96 880.457C1029.41 896.759 1016.99 915.004 1007.2 934.525C996.915 955.067 989.155 976.908 984.347 999.381C979.246 1023.2 976.927 1047.75 978.979 1072.07C981.043 1096.51 986.945 1120.07 996.515 1142.62C1005.45 1163.7 1017.84 1183.11 1032.72 1200.49C1047.47 1217.73 1065.03 1232.67 1084.22 1244.75C1093.31 1250.47 1102.83 1255.5 1112.68 1259.82C1115.58 1261.1 1118.27 1261.85 1121.46 1260.98C1124.11 1260.25 1126.96 1258.21 1128.26 1255.74C1130.87 1250.81 1130 1242.72 1124.18 1240.16L1124.13 1240.2Z" fill="#191919"/>
<path d="M670.758 492.856C666.386 497.764 661.274 501.906 657.048 506.874C652.385 512.353 647.721 517.843 643.143 523.395C634.387 534.012 626.19 545.102 618.115 556.241C602.279 578.095 587.306 600.482 573.45 623.648C545.397 670.537 520.539 719.491 499.907 770.097C458.933 870.545 432.581 976.956 420.608 1084.75C417.268 1114.81 415.143 1144.99 414.268 1175.21C413.831 1190.33 413.588 1205.45 413.661 1220.56C413.734 1236.41 413.54 1252.38 416.041 1268.05C417.535 1277.44 431.561 1274.59 431.962 1265.9C432.593 1252.11 431.282 1238.3 430.869 1224.51C430.48 1211.37 430.262 1198.22 430.456 1185.08C430.857 1158.14 432.253 1131.22 434.634 1104.38C439.321 1051.36 447.883 998.797 460.524 947.098C485.929 843.249 526.016 742.596 578.769 649.607C593.669 623.344 609.517 597.543 626.142 572.337C634.46 559.74 643.277 547.495 651.765 535.02C655.809 529.068 659.938 523.164 664.116 517.309C668.682 510.895 672.325 504.068 677.037 497.739C679.745 494.107 673.758 489.54 670.77 492.905L670.758 492.856Z" fill="#191919"/>
<path d="M413.757 1197.53C412.117 1217.61 409.968 1237.53 409.336 1257.68C408.729 1277.28 410.138 1297.11 411.595 1316.64C414.57 1356.48 420.581 1395.98 429.203 1435C437.85 1474.16 449.132 1512.74 462.963 1550.39C476.528 1587.29 492.145 1624.34 513.846 1657.26C536.81 1692.09 567.072 1720.95 602.957 1742.22C614.397 1749 624.513 1731.48 613.34 1724.46C584.28 1706.2 558.45 1682.04 538.656 1653.95C516.773 1622.9 501.641 1587.78 487.895 1552.55C459.806 1480.59 441.651 1405.23 432.142 1328.6C429.434 1306.82 427.916 1285.02 426.435 1263.14C424.953 1241.28 422.5 1219.43 422.488 1197.52C422.488 1191.84 414.23 1192 413.781 1197.52L413.757 1197.53Z" fill="#191919"/>
<path d="M504.968 1616.14C512.364 1629.18 520.367 1642.03 530.446 1653.19C540.501 1664.33 553.167 1673.79 566.04 1681.44C594.796 1698.51 628.605 1706.07 661.915 1703.51C681.989 1701.96 700.848 1696.7 718.87 1687.76C729.143 1682.67 721.796 1664.48 710.952 1668.96C674.193 1684.17 634.118 1687.44 596.071 1675.18C579.629 1669.88 564.036 1661.54 550.362 1650.96C536.057 1639.89 522.285 1627.08 512.91 1611.5C509.862 1606.44 502.042 1610.98 504.968 1616.14Z" fill="#191919"/>
<path d="M619.497 1638.32C639.923 1668.39 676.767 1688.41 713.587 1684.29C719.174 1683.67 723.995 1679.95 723.995 1673.88C723.995 1668.61 719.222 1663.01 713.587 1663.47C681.625 1666.08 650.197 1655.71 628.811 1631.12C624.427 1626.09 615.708 1632.72 619.497 1638.3V1638.32Z" fill="#191919"/>
<path d="M628.812 1640.56C657.896 1661.37 695.639 1667.28 730.322 1660.51C739.94 1658.62 737.888 1641.83 727.978 1643.16C695.311 1647.52 663.41 1642.78 632.552 1631.73C627.039 1629.76 624.671 1637.6 628.824 1640.57L628.812 1640.56Z" fill="#191919"/>
<path d="M695.698 1615.69C706.555 1634.02 724.297 1651.37 744.99 1657.89C755.118 1661.09 758.809 1645.96 749.301 1642.26C740.302 1638.75 731.644 1635.57 723.507 1630.2C715.407 1624.85 708.4 1618.14 702.353 1610.57C699.317 1606.75 693.306 1611.65 695.698 1615.69Z" fill="#191919"/>
<path d="M1365.99 1492.02C1362.13 1515.25 1353.61 1537.51 1341.02 1557.41C1336.68 1564.29 1343.85 1572.91 1351.38 1570.88C1376.18 1564.2 1402.64 1549.17 1416.01 1526.57C1421.2 1517.81 1409.55 1509.54 1402.34 1516.01C1393.96 1523.52 1386.08 1531.72 1376.73 1538.05C1367.4 1544.36 1357.16 1549.55 1346.5 1553.19C1349.95 1557.69 1353.4 1562.17 1356.86 1566.67C1369.21 1543.91 1376.06 1519.43 1377.41 1493.56C1377.75 1487.14 1367.09 1485.5 1366 1492.02H1365.99Z" fill="#191919"/>
<path d="M1404.75 1516.8C1404.89 1532.18 1406.75 1547.25 1405.01 1562.65C1404.46 1567.44 1409.39 1571 1413.6 1571.23C1442.32 1572.8 1480.37 1569.29 1492.36 1538.51C1495.04 1531.61 1484.96 1526.42 1480.23 1531.44C1473.03 1539.08 1463.34 1545.47 1453.37 1548.8C1440.43 1553.11 1427.03 1552.99 1413.6 1554.05C1416.46 1556.91 1419.33 1559.78 1422.18 1562.63C1421.85 1546.39 1419.8 1529.09 1411.06 1515.08C1409.31 1512.28 1404.72 1513.34 1404.74 1516.79L1404.75 1516.8Z" fill="#191919"/>
<path d="M1440.88 1439.39C1435.19 1472.58 1418.09 1503.9 1396.97 1529.9C1392.16 1535.81 1400.16 1544.29 1405.52 1538.45C1417.72 1525.15 1427.89 1510.38 1434.88 1493.67C1441.83 1477.09 1446.46 1459.43 1449.27 1441.69C1450.14 1436.23 1441.83 1433.83 1440.87 1439.37L1440.88 1439.39Z" fill="#191919"/>
<path d="M1439.14 1498.8C1435.79 1503.52 1432.45 1508.26 1429.1 1512.99C1426.06 1517.28 1433.36 1521.66 1436.2 1517.14C1439.28 1512.25 1442.34 1507.35 1445.41 1502.47C1447.92 1498.45 1441.8 1495.05 1439.14 1498.8Z" fill="#191919"/>
<path d="M258.193 1234.31C253.687 1135.92 255.764 1036.98 267.969 939.19C280.015 842.715 305.044 746.75 345.956 658.377C383.432 577.427 434.934 504.494 500.377 443.756C562.918 385.716 637.505 339.628 717.679 310.365C802.88 279.268 894.068 267.278 984.321 277.482C997.788 279 1011.16 281.138 1024.47 283.689C1031.14 284.965 1038.05 281.819 1039.94 274.895C1041.63 268.748 1037.86 260.694 1031.15 259.419C935.296 241.113 836.105 246.992 742.841 275.538C657.409 301.692 578.086 345.714 509.412 402.71C439.962 460.35 382.157 530.975 339.702 610.65C292.086 700.019 262.698 797.769 247.36 897.646C232.035 997.376 230.371 1099.51 242.831 1199.66C244.324 1211.69 245.964 1223.72 247.725 1235.73C248.599 1241.67 258.448 1240.25 258.181 1234.31H258.193Z" fill="#191919"/>
<path d="M1001.43 1627.9C1008.79 1628.24 1016.03 1629.46 1023.4 1629.19C1030.52 1628.93 1037.69 1628.68 1044.77 1627.9C1058.48 1626.38 1072.17 1623.71 1085.65 1620.81C1112.85 1614.94 1141.51 1608.26 1165.78 1594.11C1172.03 1590.46 1167.46 1582.41 1161.21 1583.27C1133.89 1587.03 1107.69 1597.25 1080.87 1603.45C1067.79 1606.47 1054.61 1608.62 1041.41 1610.98C1034.74 1612.17 1028.11 1613.49 1021.42 1614.54C1014.27 1615.66 1007.37 1617.82 1000.21 1618.89C994.875 1619.68 996.503 1627.7 1001.43 1627.93V1627.9Z" fill="#191919"/>
</g>
<defs>
<clipPath id="clip0_157_129">
<rect width="1588" height="1908" fill="white" transform="translate(206 46)"/>
</clipPath>
</defs>
</svg>
