<svg width="2000" height="2000" viewBox="0 0 2000 2000" fill="none" xmlns="http://www.w3.org/2000/svg">
<g clip-path="url(#clip0_157_130)">
<path d="M926.925 640.307C966.496 612.02 1018.58 611.373 1057.98 640.636C1100.84 672.475 1109.24 725.661 1095.84 774.889C1092.31 787.848 1110.03 796.323 1115.77 783.177C1141.02 725.233 1127.07 657.772 1073.37 620.956C1024.99 587.79 963.118 590.937 919.863 630.779C914.359 635.845 920.587 644.835 926.936 640.307H926.925Z" fill="#0E0E0E"/>
<path d="M996.811 641.93C953.019 641.93 917.516 687.485 917.516 743.685C917.516 799.886 953.019 845.441 996.811 845.441C1040.6 845.441 1076.11 799.886 1076.11 743.685C1076.11 687.485 1040.6 641.93 996.811 641.93ZM1049.86 724.652C1032.18 724.652 1032.2 697.231 1049.86 697.231C1067.51 697.231 1067.51 724.652 1049.86 724.652Z" fill="#0E0E0E"/>
<path d="M658.52 646.556C613.653 640.669 571.582 679.316 564.565 732.864C557.537 786.412 588.215 834.598 633.093 840.474C677.96 846.362 720.031 807.714 727.049 754.167C734.077 700.619 703.398 652.433 658.531 646.556H658.52ZM600.649 716.122C583.117 713.82 586.713 686.629 604.213 688.932C621.734 691.234 618.149 718.425 600.649 716.122Z" fill="#0E0E0E"/>
<path d="M760.954 814.929C784.692 814.435 808.442 813.898 832.136 815.707C843.956 816.606 857.179 816.65 868.725 819.303C888.691 823.897 887.211 837.964 889.426 855.451C895.094 900.239 891.323 955.124 856.083 987.577C850.052 993.135 856.773 1002.74 863.802 997.971C912.089 965.134 913.723 895.732 905.653 843.534C904.173 833.984 902.474 815.17 894.93 808.34C886.531 800.72 872.2 801.388 861.587 800.577C827.421 797.957 793.442 799.152 759.891 806.388C754.419 807.572 755.384 815.06 760.943 814.951L760.954 814.929Z" fill="#0E0E0E"/>
<path d="M750.8 814.984C733.64 831.682 732.708 865.593 731.381 887.586C729.276 922.419 730.976 962.316 754.177 990.318C758.058 995.01 766.907 990.921 763.99 984.847C749.319 954.389 746.184 919.798 747.587 886.402C748.475 865.308 749.144 839.301 756.117 819.15C757.126 816.255 753.486 812.363 750.789 814.984H750.8Z" fill="#0E0E0E"/>
<path d="M935.444 581.617C946.178 576.026 955.947 569.426 968.096 567.2C980.892 564.865 993.698 567.277 1005.81 571.553C1013.05 574.107 1020.5 563.604 1013.09 559.098C988.117 543.913 944.797 547.838 930.4 576.486C928.953 579.359 932.505 583.163 935.455 581.617H935.444Z" fill="#0E0E0E"/>
<path d="M709.277 575.489C695.385 556.412 675.737 544.055 651.944 542.773C643.578 542.323 641.626 554.669 650.178 555.864C670.156 558.648 689.344 566.608 703.926 580.708C707.051 583.734 711.711 578.822 709.277 575.489Z" fill="#0E0E0E"/>
<path d="M711.898 626.624C684.607 587.845 624.28 593.809 588.064 615.255C549.48 638.104 525.785 679.13 528.505 724.104C529.075 733.467 543.767 733.412 544.82 724.203C548.701 690.237 569.04 659.012 597.921 640.68C635.376 616.91 669.004 629.815 709.233 631.13C711.612 631.207 713.378 628.751 711.887 626.635L711.898 626.624Z" fill="#0E0E0E"/>
<path d="M980.539 1074.64C978.983 1058.14 977.919 1039.86 983.938 1023.98C991.647 1003.62 1004.62 997.96 1024.04 992.796C1041.37 988.191 1055.2 980.735 1068.57 968.763C1084.08 954.894 1096.17 937.669 1111.73 923.866C1127.65 909.755 1145.76 903.769 1158.22 926.113C1165.51 939.182 1166.53 954.663 1169.68 968.993C1171.51 977.348 1184.94 978.937 1185.74 969.092C1187.78 944.028 1176.91 903.122 1150.46 892.542C1122.23 881.249 1096.48 912.299 1079.66 930.126C1065.14 945.509 1050.98 961.932 1030.76 969.794C1013.98 976.317 997.162 975.999 983.105 988.553C956.659 1012.16 962.393 1046.91 974.608 1076.16C975.967 1079.42 980.868 1078.15 980.539 1074.65V1074.64Z" fill="#0E0E0E"/>
<path d="M1172.4 928.35C1180.08 935.433 1187.29 944.851 1190.43 954.905C1193.54 964.805 1191.48 975.056 1192.8 985.11C1193.41 989.693 1199.39 992.916 1203.22 989.572C1227.02 968.796 1203.01 924.436 1174.61 923.087C1171.63 922.945 1170.18 926.311 1172.4 928.35Z" fill="#0E0E0E"/>
<path d="M1203.76 953.929C1199.33 962.59 1201.49 973.521 1199.92 983.005C1197.99 994.649 1193.64 1005.29 1187.75 1015.46C1182.59 1024.34 1197.71 1030.86 1202.7 1021.69C1208.92 1010.27 1213.21 997.96 1214.96 985.044C1216.34 974.881 1217.97 961.242 1210.64 953.085C1208.54 950.749 1205.21 951.089 1203.76 953.929Z" fill="#0E0E0E"/>
<path d="M974.202 1075.25C978.051 1117.19 995.748 1159.85 1012.75 1197.95C1031.02 1238.9 1055.89 1282.75 1092.55 1309.96C1125.04 1334.07 1164.7 1338.84 1201.33 1320.9C1245.47 1299.28 1277.9 1260.04 1264.87 1209.18C1250.19 1151.85 1197.59 1103.21 1148.09 1074.59C1141.6 1070.83 1135.83 1081.39 1141.53 1085.81C1184.39 1119.02 1246.17 1171.47 1247.66 1230.73C1249.07 1286.95 1171.62 1325.7 1123.87 1303.42C1080.22 1283.05 1053.67 1234.04 1032.9 1193.12C1013.14 1154.18 1000.88 1111.11 979.279 1073.24C977.788 1070.63 973.961 1072.71 974.202 1075.27V1075.25Z" fill="#0E0E0E"/>
<path d="M1188.69 1029.25C1175.78 1035.88 1165.55 1046.2 1154 1054.81C1142.28 1063.53 1126.6 1068.63 1116.86 1079.54C1113.3 1083.52 1116.18 1091.35 1121.74 1091.53C1138.11 1092.02 1153.37 1080.3 1165.55 1070.38C1177.91 1060.3 1189.29 1048.42 1192.71 1032.41C1193.15 1030.34 1190.61 1028.27 1188.69 1029.26V1029.25Z" fill="#0E0E0E"/>
<path d="M576.056 875.274C581.012 875.274 580.026 867.621 575.114 867.621C570.201 867.621 571.144 875.274 576.056 875.274Z" fill="#0E0E0E"/>
<path d="M521.564 867.237C586.595 868.641 635.683 915.566 632.328 982.117C631.812 992.214 646.603 994.572 648.128 984.255C658.862 911.674 595.213 845.518 521.608 860.352C518.033 861.076 517.353 867.149 521.564 867.237Z" fill="#0E0E0E"/>
<path d="M989.97 962.064C1014.49 929.413 1038.03 892.213 1078.79 878.388C1122.33 863.619 1163.9 885.799 1197.58 912.145C1207.19 919.656 1217.52 905.611 1209.03 897.487C1176.04 865.9 1129.57 842.601 1083.05 855.583C1034.29 869.189 1001.37 913.417 984.422 958.818C983.183 962.151 987.701 965.068 989.959 962.053L989.97 962.064Z" fill="#0E0E0E"/>
<path d="M744.866 462.572C717.872 466.037 692.302 475.948 665.691 481.496C638.697 487.131 611.307 490.585 583.984 494.159C568.765 496.143 572.285 517.205 586.813 517.172C639.168 517.041 706.6 504.509 747.871 470.071C750.974 467.484 749.186 462.013 744.866 462.572Z" fill="#0E0E0E"/>
<path d="M934.236 476.748C976.789 502.097 1028.66 519.672 1077.34 528.202C1089.75 530.373 1095.09 511.23 1083.15 506.778C1037.52 489.795 987.238 473.854 939.389 464.513C933.008 463.263 928.315 473.218 934.236 476.737V476.748Z" fill="#0E0E0E"/>
<path d="M544.763 815.356C541.791 837.679 564.597 856.69 584.564 860.308C591.647 861.591 594.98 850.178 587.919 847.919C579.696 845.288 571.505 840.935 565.201 834.982C558.929 829.061 554.894 821.025 550.08 813.975C548.6 811.815 545.092 812.846 544.763 815.345V815.356Z" fill="#0E0E0E"/>
<path d="M1069.9 839.839C1054.9 850.024 1037.61 854.991 1019.93 858.225C1012.05 859.672 1013.47 870.976 1021.45 870.537C1042.31 869.375 1059.67 858.795 1073.63 843.676C1075.77 841.363 1072.31 838.216 1069.9 839.85V839.839Z" fill="#0E0E0E"/>
<path d="M1127.84 692.385C1132.06 703.645 1132.84 715.574 1130.98 727.415C1130.17 732.557 1138.19 733.653 1139 728.5C1141.09 715.157 1138.65 702.505 1132.35 690.587C1130.93 687.879 1126.72 689.392 1127.85 692.385H1127.84Z" fill="#0E0E0E"/>
<path d="M548.163 641.941C530.455 653.014 518.185 669.943 515.389 690.916C514.622 696.662 522.988 697.637 524.205 692.112C528.229 673.868 536.365 656.852 549.84 643.673C550.882 642.654 549.237 641.283 548.163 641.952V641.941Z" fill="#0E0E0E"/>
<path d="M1257.18 839.839C1276.96 810.543 1326.01 774.648 1363.98 791.839C1398.55 807.484 1411.22 857.633 1406.85 891.676C1402.13 928.613 1376.73 958.128 1344.39 974.859C1314.61 990.274 1282.9 991.984 1250.83 998.782C1242.95 1000.45 1242.39 1011.52 1250.74 1013.07C1340.33 1029.57 1440.61 956.33 1429.13 861.481C1424.43 822.647 1398.97 772.718 1355.81 767.707C1309.08 762.269 1267.15 794.075 1250.34 835.848C1248.72 839.882 1254.58 843.676 1257.16 839.828L1257.18 839.839Z" fill="#0E0E0E"/>
<path d="M1291.9 954.203C1301.79 945.958 1310.85 936.737 1319.99 927.681C1329.71 918.044 1339.69 909.174 1348.13 898.353C1353.83 891.029 1344.39 881.721 1336.91 886.863C1315.86 901.357 1296.71 923.833 1283.53 945.629C1280.31 950.957 1286.19 958.961 1291.9 954.203Z" fill="#0E0E0E"/>
<path d="M1307.07 935.707L1308.64 939.391C1309.38 941.112 1310.28 942.515 1311.53 943.897C1313.86 946.495 1317.25 947.559 1320.45 945.772C1323.19 944.248 1325.18 940.246 1323.55 937.187C1323.02 936.189 1322.52 935.071 1321.9 934.15C1321.23 933.174 1320.36 932.385 1319.5 931.584C1318.48 930.62 1317.45 929.666 1316.43 928.712C1314.58 926.98 1311.01 927.056 1309.09 928.624C1307.04 930.291 1306 933.185 1307.07 935.718V935.707Z" fill="#0E0E0E"/>
<path d="M1207.4 722.876C1225.69 747.841 1248.2 772.718 1276.58 785.995C1281.66 788.374 1285.69 781.039 1281.46 777.63C1257.67 758.465 1233.45 741.876 1213.38 718.425C1210.29 714.807 1204.53 718.962 1207.4 722.865V722.876Z" fill="#0E0E0E"/>
<path d="M1223.38 775.492C1237.01 783.21 1250.51 790.786 1264.66 797.496C1268.51 799.316 1272.3 793.144 1268.52 790.896C1254.76 782.717 1240.66 775.536 1226.34 768.365C1221.83 766.107 1219.16 773.102 1223.38 775.492Z" fill="#0E0E0E"/>
<path d="M1208.11 1051.89C1239.34 1064.63 1277.68 1070.01 1310.84 1062.74C1319.67 1060.8 1318.06 1048.89 1309.15 1048.96C1275.18 1049.24 1244.26 1048.2 1210.84 1041.79C1204.93 1040.66 1202.63 1049.65 1208.11 1051.88V1051.89Z" fill="#0E0E0E"/>
<path d="M1245.49 1093.47C1259.15 1091.44 1272.68 1089.62 1286.1 1086.27C1291.4 1084.96 1290.77 1076.8 1285.04 1077.6C1271.32 1079.5 1258.04 1082.85 1244.59 1086.08C1240.04 1087.16 1240.63 1094.2 1245.5 1093.48L1245.49 1093.47Z" fill="#0E0E0E"/>
<path d="M858.932 303.245C824.558 354.71 815.512 428.924 815.907 489.346C816.323 553.518 830.314 618.851 862.736 674.635C866.431 680.983 876.672 675.019 873.876 668.43C849.809 611.845 832.913 554.055 831.301 492.175C830.49 461.004 833.406 430.032 838.845 399.377C844.557 367.209 856.487 336.762 862.824 304.89C863.241 302.807 860.127 301.458 858.932 303.256V303.245Z" fill="#0E0E0E"/>
<path d="M983.805 323.736C1031.01 427.115 1036.76 538.124 1024.31 649.418C1023.51 656.61 1033.65 657.718 1035.26 650.898C1061.58 539.856 1035.93 423.201 985.943 322.881C985.285 321.566 983.169 322.366 983.794 323.736H983.805Z" fill="#0E0E0E"/>
<path d="M963.468 353.865C987.733 452.496 991.384 551.774 985.847 652.806C985.551 658.178 993.511 659.439 994.257 653.946C1008.01 553.21 994.235 450.292 965.19 353.427C964.904 352.462 963.216 352.878 963.457 353.865H963.468Z" fill="#0E0E0E"/>
<path d="M1094.82 379.17C1214.16 505.573 1263.19 697.506 1153.72 846.538C1148.72 853.346 1158.59 861.043 1164.05 854.607C1289.03 707.33 1225.99 497.273 1097.91 376.133C1096.15 374.456 1093.12 377.361 1094.81 379.159L1094.82 379.17Z" fill="#0E0E0E"/>
<path d="M1043.26 503.687C1080.17 548.025 1101.13 603.655 1114.1 659.352C1127.39 716.473 1127.63 775.262 1138.66 832.57C1139.58 837.383 1147.64 838.205 1147.84 832.625C1152.11 716.737 1123.32 590.356 1046.15 501.538C1044.65 499.806 1041.76 501.889 1043.26 503.687Z" fill="#0E0E0E"/>
<path d="M1154.91 693.877C1159.44 733.391 1160.27 773.069 1161.67 812.791C1161.78 815.828 1166.88 815.894 1167.02 812.824C1168.97 772.608 1164.23 733.149 1156.95 693.625C1156.71 692.331 1154.75 692.55 1154.91 693.877Z" fill="#0E0E0E"/>
<path d="M839.435 299.013C801.048 356.42 788.329 423.99 781.509 491.659C775.851 547.706 774.568 609.948 814.216 654.516C816.815 657.444 821.606 654.045 819.172 650.832C781.476 601.144 784.524 538.113 791.158 479.27C798.175 417.061 809.425 354.885 841.419 300.164C842.077 299.046 840.158 297.928 839.435 299.002V299.013Z" fill="#0E0E0E"/>
<path d="M368.939 713.085C334.148 592.987 397.118 477.34 480.306 393.598C561.915 311.446 668.786 253.897 780.23 224.064C1000.57 165.067 1253.61 215.512 1396.57 403.488C1471.96 502.623 1515.47 632.863 1464.82 752.928C1461.8 760.098 1472.77 764.659 1475.99 757.566C1576.1 536.392 1377.52 294.595 1177.16 220.556C944.676 134.654 660.848 200.371 483.88 372.087C392.94 460.324 324.072 586.014 365.595 714.423C366.318 716.649 369.575 715.278 368.939 713.096V713.085Z" fill="#0E0E0E"/>
<path d="M1339.54 773.124C1385.45 776.588 1444.15 781.982 1487.49 764.309C1493.52 761.853 1490.69 753.882 1484.83 753.937C1460.79 754.145 1436.32 761.951 1412.37 765.164C1388.18 768.409 1363.94 770.328 1339.55 771.084C1338.39 771.117 1338.38 773.036 1339.54 773.124Z" fill="#0E0E0E"/>
<path d="M1424.33 812.473C1442.86 806.794 1464.03 799.448 1477.98 785.414C1481.11 782.256 1476.63 776.566 1472.77 778.463C1455.32 787.048 1440.27 799.437 1422.33 807.451C1419.12 808.888 1421.03 813.481 1424.33 812.473Z" fill="#0E0E0E"/>
<path d="M1479.59 760.581C1481.03 768.563 1483.54 775.371 1482.5 783.649C1481.43 792.069 1479.47 800.369 1477.96 808.712C1476.64 815.959 1486.42 817.407 1489.52 811.837C1497.21 798.066 1506.19 763.563 1483.84 757.347C1481.79 756.776 1479.14 758.037 1479.6 760.57L1479.59 760.581Z" fill="#0E0E0E"/>
<path d="M1471.11 743.784C1555.33 709.851 1652.4 760.362 1691.34 838.194C1735.46 926.388 1716.57 1031.37 1676.59 1117.14C1634.57 1207.28 1570.36 1284.3 1518.98 1368.91C1500.48 1399.39 1405.91 1547.25 1489.65 1555.99C1497.46 1556.8 1500.54 1545.93 1493.25 1542.7C1421.46 1510.81 1593.05 1289.39 1620.11 1249.11C1671.9 1172.03 1721.2 1088.64 1732.62 994.78C1742.17 916.224 1723.99 830.224 1664.03 774.834C1612.01 726.758 1534.7 709.533 1470.06 741.164C1468.44 741.953 1469.39 744.486 1471.1 743.795L1471.11 743.784Z" fill="#0E0E0E"/>
<path d="M1462.54 825.717C1492.41 863.641 1510.59 904.021 1505.76 953.403C1501.55 996.447 1482.41 1030.8 1448 1056.29C1388.52 1100.35 1306.46 1131.29 1232.62 1137.24C1224.64 1137.89 1224.25 1151.46 1232.53 1151.53C1315.78 1152.1 1417.82 1113.76 1479.07 1057.35C1541.76 999.593 1543.84 869.386 1468.93 819.501C1464.92 816.826 1459.23 821.518 1462.55 825.728L1462.54 825.717Z" fill="#0E0E0E"/>
<path d="M856.148 1241.22C912.418 1246.48 978.907 1232.6 1027.37 1203.05C1033.63 1199.23 1027.52 1191.31 1021.66 1192.81C992.81 1200.19 964.971 1210.95 935.981 1217.95C909.6 1224.31 882.671 1228.17 856.192 1234.08C852.475 1234.91 851.773 1240.81 856.148 1241.22Z" fill="#0E0E0E"/>
<path d="M502.902 630.615C487.508 707.472 482.705 787.673 487.519 865.878C487.99 873.476 500.906 873.761 501.038 865.955C502.332 787.618 504.437 709.38 506.213 631.054C506.257 628.938 503.33 628.456 502.902 630.604V630.615Z" fill="#0E0E0E"/>
<path d="M490.37 877.62C479.965 839.027 420.625 912.628 414.375 925.324C390.977 972.863 424.846 1027.22 463.167 1056.22C469.012 1060.64 479.373 1054.34 475.481 1046.99C460.722 1019.16 429.956 995.482 429.013 961.976C428.465 942.669 437.335 926.343 449.681 911.97C453.749 907.233 478.112 877.072 485.206 881.49C488.112 883.31 491.259 880.898 490.37 877.62Z" fill="#0E0E0E"/>
<path d="M456.906 1055.14C462.378 1061.87 473.627 1062.57 481.116 1066.81C490.655 1072.22 499.12 1079.38 505.764 1088.1C513.527 1098.3 527.112 1087.11 521.257 1076.6C514.295 1064.13 503.539 1054.47 490.019 1049.56C480.798 1046.2 464.362 1041.98 456.961 1050.45C455.898 1051.67 455.887 1053.88 456.906 1055.13V1055.14Z" fill="#0E0E0E"/>
<path d="M522.727 1087.06C542.529 1088.65 559.052 1079.57 579.096 1088.96C600.794 1099.12 611.309 1121.58 613.053 1144.47C613.919 1155.85 632.285 1156.16 633.206 1144.59C635.607 1114.25 620.169 1085.79 592.363 1072.48C572.308 1062.89 532.617 1059.71 520.402 1082.98C519.536 1084.63 520.951 1086.91 522.738 1087.05L522.727 1087.06Z" fill="#0E0E0E"/>
<path d="M443.121 1013.06C421.466 997.049 409.877 1035.83 409.647 1050.33C409.12 1083.48 423.725 1121.53 446.564 1145.19C451.378 1150.18 460.38 1146.32 457.704 1138.99C447.485 1110.96 413.649 1050.31 442.968 1025.08C446.564 1021.99 447.299 1016.15 443.11 1013.06H443.121Z" fill="#0E0E0E"/>
<path d="M424.635 1081.43C413.155 1122.48 453.011 1174.4 484.732 1195.88C492.012 1200.8 500.937 1192.55 495.861 1185.03C484.381 1168.01 468.34 1154.33 455.763 1138.03C442.134 1120.37 435.512 1101.62 427.014 1081.46C426.62 1080.53 424.953 1080.3 424.635 1081.44V1081.43Z" fill="#0E0E0E"/>
<path d="M483.584 1192.78C462.938 1275.7 464.703 1386.18 559.536 1419.08C643.984 1448.38 715.287 1377.45 749.814 1307.18C753.542 1299.6 742.611 1294.1 737.49 1299.98C691.636 1352.7 639.61 1431.56 558.022 1394.36C522.399 1378.11 501.029 1347.02 496.906 1308.28C492.805 1269.82 507.618 1228.66 493.957 1191.49C491.928 1185.97 484.79 1187.92 483.584 1192.77V1192.78Z" fill="#0E0E0E"/>
<path d="M619.74 1139.73C619.586 1158.47 630.003 1176.44 636.428 1193.79C644.706 1216.14 650.21 1240.15 660.736 1261.53C665.024 1270.24 679.683 1267.8 678.027 1257.11C674.475 1234.11 664.3 1212.16 655.046 1190.95C647.272 1173.13 639.871 1150.18 624.279 1137.89C622.755 1136.69 619.751 1137.52 619.74 1139.74V1139.73Z" fill="#0E0E0E"/>
<path d="M635.495 1170.09C674.31 1212.11 727.225 1244.59 783.868 1254.73C792.519 1256.28 796.367 1242.73 787.935 1239.72C734.33 1220.62 685.57 1199.6 638.236 1167.43C636.559 1166.29 633.938 1168.4 635.495 1170.09Z" fill="#0E0E0E"/>
<path d="M816.652 332.124C763.978 427.97 734.758 546.237 745.361 655.843C745.964 662.071 756.424 662.443 756.577 655.909C757.86 601.89 759.56 548.671 769.724 495.409C780.338 439.778 798.297 385.748 819.974 333.505C820.884 331.324 817.738 330.14 816.652 332.124Z" fill="#0E0E0E"/>
<path d="M745.164 310.602C662.733 404.113 627.251 563.199 710.889 668.024C714.266 672.245 722.325 668.43 719.573 663.178C690.276 607.35 673.434 548.573 680.419 484.982C687.304 422.291 713.575 364.774 746.776 311.852C747.467 310.744 746.041 309.571 745.153 310.591L745.164 310.602Z" fill="#0E0E0E"/>
<path d="M717.576 581.837C716.271 607.657 717.192 633.433 723.924 658.518C724.725 661.489 729.604 660.185 729.111 657.191C725.032 632.095 720.547 607.306 719.363 581.848C719.319 580.839 717.631 580.817 717.576 581.848V581.837Z" fill="#0E0E0E"/>
<path d="M719.494 339.13C651.81 427.225 607.963 548.474 629.015 660.338C629.815 664.614 637.107 665.338 637.173 660.393C637.907 606.681 638.971 554.12 651.602 501.592C665.395 444.23 688.596 389.618 720.909 340.237C721.534 339.283 720.207 338.198 719.494 339.13Z" fill="#0E0E0E"/>
<path d="M633.741 340.577C554.402 418.738 499.963 550.612 559.785 656.556C562.965 662.191 571.386 656.863 569.368 651.216C548.591 593.283 542.242 536.567 560.421 476.781C575.465 427.29 602.81 381.713 634.355 341.059C634.673 340.654 634.092 340.248 633.752 340.588L633.741 340.577Z" fill="#0E0E0E"/>
<path d="M581.135 405.538C511.258 485.903 472.85 598.14 492.717 704.446C493.934 710.97 503.298 709.818 502.925 703.196C496.994 596.573 519.317 494.335 582.55 406.646C583.23 405.703 581.892 404.661 581.135 405.538Z" fill="#0E0E0E"/>
<path d="M550.445 324.8C458.683 378.731 386.438 474.347 358.039 577.1C345.551 622.294 344.312 672.958 370.232 713.787C390.188 745.22 432.215 777.871 471.259 763.662C476.796 761.644 475.053 754.123 469.955 753.049C425.713 743.664 390.231 726.582 374.826 680.281C358.303 630.604 375.638 576.201 396.624 530.734C432.829 452.288 489.757 386.57 554.129 329.745C557.145 327.091 553.855 322.783 550.445 324.789V324.8Z" fill="#0E0E0E"/>
<path d="M445.93 714.511C451.961 727.36 459.734 740.682 470.502 750.121C472.98 752.292 476.894 748.554 474.701 746.032C465.326 735.243 456.127 725.343 449.055 712.768C448.057 710.991 445.075 712.669 445.941 714.511H445.93Z" fill="#0E0E0E"/>
<path d="M767.981 1245.3C768.375 1276.56 798.846 1305.77 823.834 1320.82C853.077 1338.45 889.83 1345.78 923.436 1339.11C980.243 1327.83 1046.84 1268.56 1025.8 1204.69C1023.36 1197.26 1010.99 1198.66 1010.49 1206.57C1008.72 1234.99 1004.63 1258.08 984.432 1279.88C965.343 1300.51 938.019 1314.25 910.114 1317.42C881.793 1320.66 854.096 1312.6 829.81 1298.34C805.326 1283.95 791.522 1261.51 770.459 1243.89C769.34 1242.95 767.959 1244.05 767.981 1245.29V1245.3Z" fill="#0E0E0E"/>
<path d="M1229.62 1286.02C1247.29 1332.93 1274.97 1377.24 1296.93 1422.27C1322.56 1474.8 1348.6 1527.27 1373.25 1580.26C1377.93 1590.32 1392.89 1584.41 1389.25 1573.89C1369.7 1517.36 1343.2 1463.84 1315.66 1410.84C1293.57 1368.32 1272.57 1315.9 1239.41 1280.56C1235.24 1276.1 1227.2 1279.63 1229.61 1286.02H1229.62Z" fill="#0E0E0E"/>
<path d="M1403.19 1103.83C1310.27 1190.93 1268.27 1347.44 1331.98 1462.2C1358.67 1510.3 1403.22 1549.27 1456.76 1564.34C1504.37 1577.74 1573.46 1555.3 1552.14 1494.09C1550.8 1490.2 1546.06 1490.35 1543.62 1492.87C1520.16 1517.07 1481.54 1507.71 1474.35 1474.12C1472.88 1467.26 1462.16 1468.36 1463.38 1475.47C1470.97 1519.86 1523.08 1535.54 1551.44 1498.98C1548.6 1498.57 1545.76 1498.16 1542.92 1497.76C1549.73 1519.62 1532.55 1541.34 1513.33 1548.82C1499 1554.4 1482.07 1553.59 1467.18 1550.87C1441.99 1546.27 1418.74 1534.42 1399.16 1518.13C1363.08 1488.11 1338.08 1443.04 1327.86 1397.57C1316.72 1347.98 1322.37 1296.67 1338.34 1248.8C1355.2 1198.27 1384.69 1155.63 1411.21 1110.07C1413.78 1105.64 1406.89 1100.35 1403.19 1103.8V1103.83Z" fill="#0E0E0E"/>
<path d="M1476.82 770.163C1552.35 802.156 1602.49 874.496 1614.36 954.773C1627.92 1046.47 1591.29 1138.3 1543.61 1214.82C1503.27 1279.59 1446.23 1338.69 1426.77 1414.4C1413.4 1466.47 1422.4 1534.15 1476.3 1558.79C1479.69 1560.34 1481.56 1555.31 1478.47 1553.58C1389.41 1503.4 1441.24 1384.11 1482.72 1321.23C1529.4 1250.45 1581 1185.01 1607.74 1103.23C1647.4 981.985 1619.71 807.199 1477.08 769.188C1476.51 769.034 1476.29 769.955 1476.82 770.174V770.163Z" fill="#0E0E0E"/>
<path d="M1439.07 1089.13C1388.84 1165.19 1358.15 1255.35 1348.9 1346.07C1341.42 1419.45 1359.07 1504.79 1431.81 1539.25C1433.33 1539.97 1434.21 1537.67 1432.79 1536.87C1351.99 1491.5 1347.2 1394.52 1361.48 1312.89C1375.15 1234.72 1404.46 1160.26 1439.51 1089.38C1439.64 1089.12 1439.24 1088.87 1439.07 1089.12V1089.13Z" fill="#0E0E0E"/>
<path d="M1465.92 734.443C1514.21 699.677 1578.37 698.24 1631.72 722.536C1686.85 747.644 1723.52 798.505 1738.91 856.142C1773.62 986.031 1703.75 1098.83 1630.08 1199.18C1628.12 1201.85 1631.97 1204.84 1634.14 1202.35C1720.82 1103.04 1786.93 958.062 1736.52 827C1715.34 771.918 1673.86 727.448 1616.98 709.369C1564.86 692.802 1508.66 699.161 1465.48 733.829C1465.1 734.136 1465.53 734.739 1465.94 734.454L1465.92 734.443Z" fill="#0E0E0E"/>
<path d="M1219.16 467.922C1279.07 571.75 1266.72 697.736 1192.44 790.786C1190.98 792.606 1193.77 794.744 1195.28 793.001C1275.32 701.135 1283.28 570.412 1220 467.297C1219.64 466.727 1218.84 467.352 1219.17 467.911L1219.16 467.922Z" fill="#0E0E0E"/>
<path d="M501.683 365.805C421.422 419.912 356.721 501.209 340.57 598.623C327.095 679.876 362.214 805.588 468.263 788.013C472.166 787.366 471.476 781.423 467.506 781.884C345.504 796.301 329.43 644.419 355.833 559.833C380.404 481.112 436.663 414.901 502.286 366.617C502.823 366.222 502.22 365.421 501.672 365.794L501.683 365.805Z" fill="#0E0E0E"/>
<path d="M628.972 389.498C584.445 468.043 571.321 560.151 596.726 647.215C597.493 649.846 602.054 648.717 601.418 646.009C580.948 559.295 589.27 469.633 630.157 389.98C630.54 389.235 629.367 388.785 628.972 389.487V389.498Z" fill="#0E0E0E"/>
<path d="M906.187 308.508C877.011 431.292 872.493 561.104 904.17 683.878C904.608 685.577 907.426 684.831 907.13 683.121C886.002 558.33 882.515 433.222 908.479 308.826C908.786 307.356 906.527 307.082 906.187 308.519V308.508Z" fill="#0E0E0E"/>
<path d="M1085.74 458.526C1136.49 554.164 1187.34 655.426 1174.82 767.049C1174.6 769.023 1177.57 769.429 1177.88 767.466C1195.62 654.472 1140.56 553.068 1086.86 457.912C1086.51 457.287 1085.4 457.89 1085.74 458.537V458.526Z" fill="#0E0E0E"/>
<path d="M1239.51 542.038C1290.62 625.594 1384.55 707.593 1485.67 718.874C1489.62 719.313 1491.46 713.469 1487.54 711.978C1438.93 693.592 1392.44 678.791 1349.18 648.662C1307.06 619.334 1270.79 582.616 1241.98 540.185C1240.85 538.519 1238.48 540.361 1239.5 542.027L1239.51 542.038Z" fill="#0E0E0E"/>
<path d="M1371.1 700.192C1400.93 722.536 1435.35 734.586 1472.71 733.292C1476.55 733.16 1475.72 727.404 1471.98 727.426C1436.1 727.558 1402.15 718.732 1372.04 698.975C1371.22 698.438 1370.29 699.589 1371.09 700.192H1371.1Z" fill="#0E0E0E"/>
<path d="M1363.55 346.53C1442.76 368.952 1510.51 422.236 1540.36 500.628C1572.88 586.058 1549.77 679.503 1494.96 749.957C1492.27 753.422 1497.3 757.105 1500.23 754.068C1631.35 618.423 1550.04 374.872 1364.21 344.064C1362.81 343.833 1362.12 346.125 1363.54 346.53H1363.55Z" fill="#0E0E0E"/>
<path d="M799.997 1471.68C799.975 1542.69 790.008 1615.17 768.353 1682.85C766.599 1688.33 769.307 1694.5 775.513 1695.32C837.956 1703.53 900.498 1711.59 963.171 1717.89C1019.45 1723.56 1077.24 1726.63 1132.79 1713.75C1222.72 1692.9 1315.88 1665.56 1378.22 1593.45C1386.25 1584.16 1371.29 1572.6 1363.23 1581.74C1302.03 1651.1 1199.35 1682.13 1110.41 1696.94C1057.53 1705.75 1003.69 1701.17 950.748 1695.43C893.173 1689.19 835.62 1682.83 777.958 1677.34C780.348 1681.49 782.727 1685.65 785.118 1689.8C805.04 1618.77 813.461 1544.35 807.42 1470.75C807.014 1465.85 800.019 1467 800.019 1471.66L799.997 1471.68Z" fill="#0E0E0E"/>
<path d="M738.638 1235.28C742.761 1279.03 753.616 1321.88 764.405 1364.37C774.404 1403.73 784.097 1443.53 799.458 1481.17C802.989 1489.82 817.692 1486.72 815.763 1477C807.846 1437.1 794.086 1398.71 782.573 1359.72C770.161 1317.69 760.403 1274.9 747.519 1233C745.929 1227.83 738.145 1230.22 738.627 1235.28H738.638Z" fill="#0E0E0E"/>
<path d="M1064.19 1723C1063.31 1747.67 1065.72 1772.37 1066.43 1797.04C1067.19 1824.3 1063.43 1852.75 1067.47 1879.68C1068.81 1888.6 1080.18 1887.62 1082.26 1879.77C1088.88 1854.85 1086.28 1825.56 1085.14 1799.94C1083.97 1773.72 1081.49 1747 1073.83 1721.82C1072.4 1717.12 1064.38 1718.03 1064.2 1723H1064.19Z" fill="#0E0E0E"/>
<path d="M1056.32 1911.44C1071.8 1897.35 1088.55 1882.44 1110.94 1883.42C1132.58 1884.37 1150.22 1897.56 1160.98 1915.78C1164.87 1922.35 1173.26 1915.93 1171.67 1909.81C1164.48 1882.23 1140.21 1862.12 1111.36 1861.54C1083.75 1860.98 1053.76 1879.43 1051.62 1908.66C1051.46 1910.94 1054.29 1913.28 1056.32 1911.44Z" fill="#0E0E0E"/>
<path d="M1054.31 1928.65C1072.72 1941.81 1094.33 1945.35 1116.35 1948.61C1139.11 1951.99 1162.69 1955.63 1185.42 1950.3C1221.92 1941.75 1251.26 1912.63 1255.23 1873.62C1255.56 1870.42 1253.9 1868.68 1252.74 1871.96C1240.85 1905.86 1197.12 1929.13 1163.16 1930.27C1128.25 1931.45 1093.92 1922.33 1060.29 1914.47C1052.52 1912.65 1048.12 1924.23 1054.32 1928.65H1054.31Z" fill="#0E0E0E"/>
<path d="M1162.11 1916.78C1191.72 1918.45 1226.74 1906.85 1245.26 1883.6C1248.8 1879.15 1243.2 1876.17 1239.44 1880.28C1222.13 1899.2 1187.66 1909.91 1162.15 1912.44C1159.73 1912.69 1159.6 1916.63 1162.12 1916.78H1162.11Z" fill="#0E0E0E"/>
<path d="M899.621 1696.5C896.694 1723.81 904.325 1750.35 910.663 1776.78C916.123 1799.59 917.296 1827.33 927.066 1848.62C929.576 1854.09 938.677 1855.29 940.881 1848.73C947.756 1828.33 938.425 1803.78 933.304 1783.81C925.673 1754.01 918.097 1723.16 903.327 1696.05C902.483 1694.49 899.852 1694.4 899.621 1696.5Z" fill="#0E0E0E"/>
<path d="M898.678 1874.58C911.244 1866.55 924.5 1859.23 939.949 1862.95C953.786 1866.3 964.641 1877.11 971.143 1889.31C974.048 1894.76 982.151 1893.15 981.767 1886.59C979.114 1840.75 908.7 1823.13 890.268 1868.01C888.097 1873.29 894.216 1877.42 898.667 1874.58H898.678Z" fill="#0E0E0E"/>
<path d="M889.744 1872.42C865.49 1901.96 934.062 1919.69 950.728 1921.14C990.223 1924.58 1050.45 1929.65 1066.6 1882.13C1067.6 1879.18 1064.09 1875.55 1061.33 1878.01C1034.59 1901.79 1003.09 1902.07 968.787 1900.52C948.502 1899.59 899.743 1901.29 894.327 1873.68C893.899 1871.52 891.224 1870.62 889.744 1872.4V1872.42Z" fill="#0E0E0E"/>
<path d="M976.997 1886.07C1009.18 1890.93 1045.99 1882.48 1066.2 1855.18C1069.7 1850.47 1064.04 1845.65 1059.44 1848.25C1032.78 1863.27 1008.32 1875.64 977.041 1876.63C971.515 1876.8 971.789 1885.28 976.986 1886.07H976.997Z" fill="#0E0E0E"/>
<path d="M1263.6 1659.41C1246.61 1683.85 1231.18 1726.44 1235.53 1756.96C1238.23 1775.81 1244.47 1793.64 1245.17 1812.91C1246.12 1839.18 1241.52 1864.26 1234.47 1889.46C1232.25 1897.38 1242.37 1901.81 1246.34 1894.4C1263.87 1861.64 1268.98 1824.3 1262.84 1787.73C1258.38 1761.15 1254.09 1744.08 1260.67 1717.43C1265.26 1698.84 1270.09 1680.01 1268.63 1660.8C1268.46 1658.41 1264.98 1657.41 1263.6 1659.41Z" fill="#0E0E0E"/>
<path d="M823.66 1494.37C845.118 1505.1 873.768 1509.36 897.243 1512.48C923.492 1515.98 952.801 1517.53 977.186 1505.66C986.473 1501.15 980.848 1486.41 971.199 1490.61C923.854 1511.21 874.064 1486.04 826.061 1485.51C820.93 1485.46 818.726 1491.9 823.66 1494.37Z" fill="#0E0E0E"/>
<path d="M440.185 1132.31C407.291 1166.54 368.191 1198.82 342.162 1238.79C319.498 1273.6 307.876 1315.17 308.325 1356.65C309.257 1442.67 364.277 1519.83 444.516 1549.96C457.169 1554.7 465.162 1535.86 452.618 1530.49C375.264 1497.33 323.522 1420.8 331.998 1335.43C336.153 1293.55 353.674 1256.59 380.603 1224.57C404.539 1196.11 433.518 1171.95 451.84 1139.13C455.864 1131.92 445.053 1127.23 440.174 1132.32L440.185 1132.31Z" fill="#0E0E0E"/>
<path d="M463.398 1252.32C379.53 1307.57 384.508 1428.15 434.408 1505.04C438.87 1511.91 449.429 1505.52 446.655 1498.21C430.197 1454.67 411.064 1412.38 414.716 1364.53C417.851 1323.36 435.373 1284.38 467.696 1258.11C471.304 1255.17 467.269 1249.78 463.409 1252.33L463.398 1252.32Z" fill="#0E0E0E"/>
<path d="M585.717 1409.5C586.188 1425.85 594.401 1438.31 601.111 1452.85C611.483 1475.3 612.097 1499.63 602.054 1522.34C581.945 1567.83 534.743 1586.76 489.503 1597.46C481.784 1599.29 482.771 1610.86 491.038 1609.97C538.953 1604.82 588.392 1584.41 612.481 1540.21C639.925 1489.85 615.99 1453.01 592.131 1407.85C590.344 1404.48 585.596 1405.6 585.706 1409.5H585.717Z" fill="#0E0E0E"/>
<path d="M435.163 1512.36C442.728 1524.03 449.702 1540.01 447.41 1554.19C445.283 1567.33 432.685 1581.19 418.157 1576.99C405.843 1573.43 399.144 1589.2 410.503 1595.39C432.169 1607.22 455.48 1610.43 479.076 1602.69C487.979 1599.78 484.284 1584.57 474.964 1586.63C455.896 1590.85 436.939 1589.57 420.459 1578.33C417.137 1584.01 413.815 1589.7 410.492 1595.38C431.446 1602.35 452.783 1591.25 460.633 1570.49C469.602 1546.8 455.052 1524.62 438.803 1508.79C436.621 1506.66 433.671 1510.06 435.152 1512.35L435.163 1512.36Z" fill="#0E0E0E"/>
<path d="M572.275 1441.39C597.965 1515.75 553.23 1586.78 478.901 1604.63C474.515 1605.69 475.064 1612.4 479.778 1611.78C561.651 1601.13 604.281 1514.76 573.229 1441.02C572.966 1440.41 572.056 1440.78 572.275 1441.4V1441.39Z" fill="#0E0E0E"/>
<path d="M621.856 1417.5C663.499 1455.07 660.385 1520.08 607.821 1546.47C604.762 1548.01 606.571 1552.85 609.817 1551.49C667.863 1527.08 680.494 1449.14 624.542 1414.06C622.174 1412.58 619.729 1415.6 621.856 1417.5Z" fill="#0E0E0E"/>
<path d="M443.585 1146.4C373.083 1178.8 296.046 1225.83 272.023 1304.5C262.122 1336.93 261.541 1372.87 276.759 1403.78C293.612 1438.01 326.341 1458.49 359.037 1475.55C362.458 1477.33 365.879 1471.62 362.513 1469.6C331.659 1451.16 298.425 1431.08 283.229 1396.82C267.319 1360.99 273.448 1319 289.884 1284.57C320.903 1219.56 387.249 1186.12 445.087 1149.05C446.556 1148.11 445.186 1145.65 443.596 1146.38L443.585 1146.4Z" fill="#0E0E0E"/>
<path d="M541.463 410.691C474.228 475.783 374.089 655.712 483.625 727.01C487.583 729.586 492.155 723.984 488.219 721.133C431.214 679.975 440.677 607.054 461.63 548.836C479.82 498.303 505.028 450.643 542.537 411.776C543.14 411.162 542.099 410.077 541.474 410.68L541.463 410.691Z" fill="#0E0E0E"/>
<path d="M258.568 887.301C286.637 863.192 298.797 825.059 300.99 789.142L285.541 791.038C302.152 824.917 323.917 850.276 359.584 864.672C358.422 860.242 357.26 855.802 356.097 851.373C338.313 870.428 328.368 893.967 323.61 919.382C328.237 917.496 332.864 915.621 337.48 913.735C313.237 896.544 284.631 882.039 254.325 882.181C246.057 882.214 244.062 896.237 252.099 898.441C279.137 905.863 303.325 911.038 326.844 927.352C332.392 931.201 339.409 928.306 340.714 921.706C345.363 898.298 355.144 880.668 369.694 862.03C373.027 857.765 371.525 850.671 366.207 848.73C336.339 837.821 310.518 816.003 300.485 785.107C297.963 777.334 285.935 779.263 285.036 787.004C280.914 822.329 268.392 852.886 257 886.095C256.693 886.983 257.735 888.025 258.568 887.312V887.301Z" fill="#0E0E0E"/>
<path d="M1540.19 327.333C1577.94 310.591 1602.6 269.213 1609.71 229.689L1593.65 231.662C1615.05 272.678 1631.51 314.428 1676.94 333.725C1676.98 328.429 1677.03 323.123 1677.06 317.827C1654.2 328.473 1633.3 342.145 1614.62 359.139C1600.96 371.572 1583.36 385.244 1582.72 404.924C1587.14 404.946 1591.56 404.979 1595.99 405.001C1591.94 372.877 1572.38 330.534 1540.64 317.63C1534.57 315.163 1528.73 322.465 1532.7 327.793C1541.75 339.93 1554.07 348.723 1562.69 361.365C1572.63 375.958 1578.24 391.482 1583.14 408.29C1584.98 414.594 1595.73 413.289 1595.98 406.711C1597.25 373.469 1658.21 344.831 1683.41 333.769C1690.09 330.841 1690.7 320.732 1683.53 317.871C1644.28 302.193 1622.66 263.611 1609.18 225.467C1606.09 216.729 1595.09 220.128 1593.13 227.441C1582.68 266.428 1562.67 293.038 1537.2 323.353C1535.57 325.282 1537.86 328.352 1540.18 327.322L1540.19 327.333Z" fill="#0E0E0E"/>
<path d="M564.009 127.231C587.396 111.301 600.861 82.6083 604.128 55.1109C598.865 55.7578 593.591 56.4047 588.328 57.0515C602.078 84.3406 622.055 103.604 648.403 118.734C647.734 113.285 647.065 107.825 646.396 102.376C639.335 108.593 633.436 115.259 628.557 123.361C626.298 127.1 624.215 131.003 622.538 135.048C621.342 137.8 620.367 140.629 619.599 143.524C619.139 147.295 618.514 147.361 617.724 143.721C609.764 142.767 598.975 133.897 590.653 131.485C580.16 128.437 570.017 127.593 559.272 129.238C551.597 130.411 551.487 141.44 559.195 142.756C574.392 145.333 589.6 147.207 603.459 154.487C609.567 157.689 616.233 164.881 623.733 163.686C629.741 162.721 632.121 157.689 634.522 152.963C641.55 139.094 646.144 128.558 657.701 117.605C662.898 112.671 662.799 104.514 655.694 101.247C632.943 90.8093 615.323 72.982 603.624 50.9776C599.753 43.6976 589.622 44.487 587.824 52.9182C582.287 78.8696 570.916 97.4972 556.016 119.03C552.321 124.37 558.516 130.992 564.02 127.242L564.009 127.231Z" fill="#0E0E0E"/>
<path d="M1481.31 1675.97C1496.12 1659.15 1507.11 1641.07 1514.38 1619.8C1510.53 1620.27 1506.67 1620.74 1502.82 1621.21C1517.04 1643.26 1535.83 1661 1559.72 1672.12C1559.15 1667.44 1558.57 1662.76 1558 1658.08C1539.4 1673.7 1527.6 1692.88 1522.37 1716.62C1526.3 1715.02 1530.22 1713.42 1534.16 1711.83C1520.88 1700.61 1506.61 1691.03 1489.98 1685.71C1484.67 1684.01 1478.98 1691.6 1484.59 1694.95C1498.94 1703.54 1512.75 1712.06 1525.14 1723.38C1529.7 1727.55 1535.65 1723.43 1536.92 1718.59C1541.96 1699.35 1552.23 1683.59 1567.7 1671.14C1572.71 1667.12 1571.6 1659.87 1565.98 1657.11C1544.55 1646.57 1527.21 1633 1513.59 1613.23C1510.87 1609.28 1503.54 1609.75 1502.03 1614.64C1495.81 1634.87 1487.65 1654.14 1476.48 1672.15C1474.41 1675.48 1478.67 1678.98 1481.34 1675.95L1481.31 1675.97Z" fill="#0E0E0E"/>
<path d="M556.014 1720.35C587.527 1712.63 596.507 1681.23 602.899 1652.97C597.778 1653.6 592.658 1654.23 587.538 1654.86C597.8 1680.23 609.993 1703.22 634.904 1716.5C634.948 1711.1 634.992 1705.71 635.036 1700.32C611.769 1713.13 597.351 1733.15 591.145 1758.86C596.265 1758.24 601.386 1757.6 606.506 1756.98C596.528 1737.52 583.788 1718.46 565.477 1705.97C559.874 1702.15 551.234 1709.14 556.354 1714.88C570.115 1730.27 582.614 1743.96 591.638 1762.9C594.259 1768.4 604.456 1770.36 606.462 1763.02C612.263 1741.74 624.729 1726.67 643.468 1715.46C649.597 1711.78 647.02 1703.01 641.615 1700.38C620.903 1690.28 611.528 1668.84 602.405 1648.96C599.05 1641.65 588.481 1642.83 587.044 1650.85C582.549 1675.96 576.595 1700.55 554.085 1715.51C551.936 1716.94 553.372 1721 556.025 1720.36L556.014 1720.35Z" fill="#0E0E0E"/>
<path d="M335.003 1665.35C332.536 1677.18 337.152 1690.17 339.871 1701.72C342.557 1713.15 345.792 1723.99 351.658 1734.21C355.331 1740.6 363.467 1735.12 363.434 1729.5C363.368 1717.51 360.177 1706.19 356.625 1694.81C353.281 1684.09 350.956 1671.73 343.314 1663.21C340.562 1660.16 335.869 1661.24 335.014 1665.35H335.003Z" fill="#0E0E0E"/>
<path d="M318.215 1703.35C326.691 1708.22 339.179 1701.89 347.469 1698.65C358.093 1694.49 370.779 1690.24 379.068 1682.15C384.331 1677.01 382.369 1664.92 372.972 1666.91C361.437 1669.35 351.098 1676.09 340.418 1680.94C331.987 1684.77 319.257 1687.72 315.573 1696.97C314.509 1699.66 315.88 1702.03 318.204 1703.36L318.215 1703.35Z" fill="#0E0E0E"/>
<path d="M1717.73 1250.5C1714.33 1261.15 1713.14 1272.47 1711.41 1283.5C1709.75 1294.13 1707.54 1304.43 1710.44 1314.92C1712.38 1321.95 1722.07 1320.46 1724.74 1315.03C1729.43 1305.45 1728.66 1294.04 1728.9 1283.56C1729.14 1273.12 1730.13 1262.41 1728.82 1252.03C1728.14 1246.61 1719.55 1244.8 1717.73 1250.51V1250.5Z" fill="#0E0E0E"/>
<path d="M1694.47 1283.39C1701.39 1286.07 1708.91 1285.75 1716.23 1285.99C1724.67 1286.27 1733.11 1286.38 1741.56 1286.52C1752.81 1286.7 1755.8 1270.12 1743.97 1268.68C1728.44 1266.79 1706.23 1266.34 1693.73 1277.4C1691.84 1279.06 1691.82 1282.36 1694.46 1283.39H1694.47Z" fill="#0E0E0E"/>
<path d="M1318.47 203.079C1309.26 209.975 1310.39 223.899 1310.14 234.381C1309.84 247.713 1309.96 260.848 1314.03 273.653C1316.7 282.074 1331.32 280.627 1331.56 271.505C1331.89 259.05 1329.76 246.891 1328.95 234.491C1328.29 224.382 1330.8 211.653 1323.32 203.792C1322.03 202.432 1320.11 201.84 1318.47 203.068V203.079Z" fill="#0E0E0E"/>
<path d="M1293.34 244.325C1299.31 247.549 1307.24 247.373 1313.9 247.691C1320.78 248.009 1327.62 248.503 1334.22 246.266C1339.07 244.621 1339.27 236.749 1334.31 235.072C1327.7 232.835 1320.88 233.274 1313.99 233.603C1307.33 233.91 1299.38 233.745 1293.4 236.958C1290.23 238.657 1290.14 242.615 1293.35 244.336L1293.34 244.325Z" fill="#0E0E0E"/>
<path d="M290.146 450.304C288.151 467.122 296.188 488.085 302.558 503.402C305.946 511.559 318.753 508.511 317.634 499.542C315.573 483.075 312.218 460.84 302.141 447.212C298.721 442.574 290.837 444.482 290.146 450.304Z" fill="#0E0E0E"/>
<path d="M281.285 489.324C292.075 492.504 304.958 488.853 315.363 485.695C323.718 483.163 320.166 469.282 311.569 470.872C305.813 471.936 300.287 472.9 294.86 475.159C290.002 477.176 284.312 478.996 280.474 482.669C278.621 484.445 278.128 488.392 281.296 489.324H281.285Z" fill="#0E0E0E"/>
<g style="mix-blend-mode:multiply" opacity="0.3">
<path d="M556.639 771.435C570.147 768.661 573.798 751.667 577.45 738.368C587.844 700.51 621.955 670.305 660.802 664.57C670.966 663.068 681.525 663.068 691.086 659.308C700.647 655.547 709.254 646.557 708.312 636.327C707.325 625.583 696.755 618.489 686.733 614.477C658.905 603.348 626.593 603.94 599.192 616.088C565.707 630.933 545.148 659.702 534.82 693.921C529.414 711.836 519.699 779.044 556.639 771.435Z" fill="#0E0E0E"/>
</g>
<g style="mix-blend-mode:multiply" opacity="0.3">
<path d="M925.322 636.283C920.421 639.364 915.739 643.234 913.294 648.486C910.838 653.738 911.134 660.59 915.246 664.68C919.763 669.175 927.066 669.032 933.326 667.815C940.87 666.346 948.172 663.781 955.727 662.377C985.32 656.874 1016.42 670.348 1036.8 692.495C1057.17 714.642 1067.83 744.343 1071.93 774.154C1073.17 783.221 1076.14 794.788 1085.25 795.654C1093 796.389 1098.45 788.308 1101.35 781.083C1117.89 739.87 1110.83 690.083 1083.49 655.097C1075.83 645.307 1066.78 636.678 1057.18 628.762C1050.5 623.247 1043.5 618.029 1035.77 614.114C1018.64 605.442 998.642 603.6 979.608 606.045C960.562 608.49 944.083 619.563 930.18 630.856" fill="#0E0E0E"/>
</g>
</g>
<defs>
<clipPath id="clip0_157_130">
<rect width="1507" height="1907" fill="white" transform="translate(247 46)"/>
</clipPath>
</defs>
</svg>
