<svg width="2000" height="2000" viewBox="0 0 2000 2000" fill="none" xmlns="http://www.w3.org/2000/svg">
<g clip-path="url(#clip0_157_131)">
<path d="M881.58 1051.52C881.517 1055.25 881.234 1058.97 881.433 1062.7C881.633 1066.45 881.801 1070.2 882.032 1073.97C882.263 1077.73 882.389 1081.5 882.4 1085.27C882.41 1089.29 882.347 1093.34 883.44 1097.24C883.933 1099.03 885.519 1100.88 887.431 1101.24C887.862 1101.32 888.523 1101.5 888.944 1101.44C891.664 1101.08 893.502 1099.88 894.448 1097.24C895.813 1093.45 895.845 1089.27 895.75 1085.27C895.655 1081.35 895.435 1077.44 895.109 1073.53C894.763 1069.47 894.164 1065.51 893.345 1061.51C892.546 1057.66 891.086 1054.07 889.605 1050.43C888.839 1048.55 887.294 1047.18 885.131 1047.51C883.124 1047.81 881.622 1049.44 881.591 1051.52H881.58Z" fill="black"/>
<path d="M998.507 1052.72C996.343 1062.86 996.837 1073.38 997.656 1083.67C997.814 1085.7 998.139 1087.71 998.36 1089.74C998.497 1090.95 998.654 1092.15 998.854 1093.36C998.896 1093.61 999.137 1094.33 999.043 1094.55C998.896 1093.47 998.896 1093.43 999.022 1094.41C999.053 1094.72 999.106 1095.04 999.158 1095.35C999.274 1095.8 999.442 1096.32 999.621 1096.76C999.799 1097.19 999.641 1097.94 999.599 1096.31C999.61 1096.99 999.726 1095.63 999.736 1095.59C1000.4 1093.24 1002.95 1092.55 1004.95 1093.29C1004.82 1093.24 1004.73 1093.14 1004.6 1093.08C1004.24 1092.94 1005.27 1093.64 1004.55 1093.02C1004 1092.55 1003.52 1092.17 1002.79 1092C1001.6 1091.72 1000.06 1092.17 999.473 1093.36C998.003 1096.32 999.925 1100.9 1003.56 1100.88C1006.64 1100.87 1008.63 1097.5 1009.22 1094.82C1011 1086.68 1009.5 1077.89 1009.13 1069.68C1008.88 1064.41 1008.34 1059.22 1007.86 1053.98C1007.63 1051.61 1006.21 1049.59 1003.72 1049.29C1001.49 1049.03 998.98 1050.35 998.476 1052.72H998.507Z" fill="black"/>
<path d="M880.561 1103.04C901.694 1111.42 925.359 1114.3 947.953 1114.82C959.98 1115.09 972.027 1114.16 983.865 1111.99C993.896 1110.15 1003.96 1106.98 1011.68 1100.11C1014.8 1097.34 1011.51 1091.99 1007.64 1093.17C987.489 1099.33 967.479 1102.38 946.398 1102.59C925.244 1102.8 903.133 1101.04 882.987 1094.22C877.326 1092.31 875.214 1100.91 880.561 1103.04Z" fill="black"/>
<path d="M946.966 1192.69C943.059 1187.65 938.941 1182.71 935.244 1177.52C932.891 1174.22 930.202 1169.71 932.292 1165.63C933.805 1162.65 935.885 1163.58 938.048 1164.78C941.756 1166.84 944.865 1169.79 948.489 1171.98C957.375 1177.38 966.524 1175.51 973.299 1167.83C975.536 1165.3 978.015 1160.98 981.219 1159.8C984.885 1158.46 988.036 1162.75 988.792 1165.85C990.378 1172.32 986.208 1179.16 983.309 1184.65C981.492 1188.07 979.57 1191.55 978.036 1195.12C976.755 1198.09 975.442 1201.66 977.007 1204.7C977.395 1205.46 978.414 1206.08 979.276 1206C982.668 1205.71 984.916 1202.88 986.828 1200.25C989.317 1196.81 991.439 1192.89 993.519 1189.18C997.374 1182.34 1001.17 1174.75 1000.69 1166.67C999.852 1152.25 984.202 1141.58 971.881 1151.42C968.089 1154.45 965.631 1159.15 961.808 1161.94C958.594 1164.28 955.558 1161.98 952.113 1159.5C947.995 1156.54 943.962 1152.89 938.857 1151.76C932.45 1150.33 926.074 1152.83 922.482 1158.38C912.262 1174.19 930.296 1189.34 940.117 1199.52C944.582 1204.14 950.674 1197.44 946.966 1192.67V1192.69Z" fill="black"/>
<path d="M942.218 1204.49C945.663 1209.37 950.904 1213.31 956.913 1214.3C963.246 1215.35 971.901 1215.45 975.62 1209.19C976.943 1206.96 975.777 1203.55 973.099 1202.99C971.712 1202.69 970.41 1202.53 969.002 1202.61C968.11 1202.66 967.227 1202.82 966.345 1202.98C965.042 1203.21 967.259 1202.9 966.502 1202.94C966.051 1202.97 965.589 1203.05 965.147 1203.1C964.759 1203.14 964.37 1203.21 963.982 1203.27C964.234 1203.24 964.486 1203.2 964.738 1203.17C964.496 1203.14 964.192 1203.22 963.95 1203.24C963.362 1203.29 962.763 1203.31 962.175 1203.32C961.576 1203.32 960.988 1203.32 960.389 1203.28C960.127 1203.27 959.864 1203.25 959.602 1203.22C959.402 1203.2 958.247 1203.06 959.181 1203.19C960.053 1203.29 959.129 1203.17 958.961 1203.13C958.698 1203.09 958.446 1203.03 958.183 1202.99C957.49 1202.86 956.786 1202.82 956.093 1202.69C956.429 1202.76 957.144 1202.87 956.408 1202.72C955.242 1202.5 954.087 1202.26 952.953 1201.91C951.902 1201.59 950.904 1201.16 949.875 1200.78C949.549 1200.66 949.108 1200.47 949.675 1200.72C949.434 1200.61 949.192 1200.51 948.961 1200.39C948.373 1200.11 947.806 1199.8 947.239 1199.48C945.831 1198.66 943.951 1198.9 942.795 1200.05C941.714 1201.14 941.293 1203.19 942.218 1204.5V1204.49Z" fill="black"/>
<path d="M916.705 1177.04C912.199 1179.79 907.441 1181.8 903.113 1184.94C897.956 1188.68 892.725 1192.32 887.484 1195.94C877.925 1202.52 868.335 1209.04 859.103 1216.08C851.036 1222.23 840.5 1228.85 836.561 1238.61C832.139 1249.56 838.442 1264.23 844.187 1273.77C849.502 1282.57 858.724 1289.58 869.47 1288.67C872.012 1288.46 874.869 1287.79 877.074 1286.45C879.091 1285.22 879.091 1284.93 879.973 1287.3C881.812 1292.25 881.696 1297.25 885.688 1301.28C894.584 1310.24 905.456 1300.29 915.518 1300.57C926.222 1300.87 936.169 1300.09 941 1289.01C943.742 1282.73 944.351 1275.55 945.548 1268.85C946.956 1260.94 948.374 1253.05 949.781 1245.15C952.554 1229.61 955.79 1214.13 957.208 1198.4C957.712 1192.86 949.13 1191.98 947.691 1197.11C941.221 1220.15 937.933 1244.27 933.49 1267.77C932.555 1272.7 932.051 1278.01 930.339 1282.75C928.448 1288.02 924.762 1288.5 919.678 1288.28C915.224 1288.09 910.854 1287.69 906.453 1288.66C903.838 1289.23 896.506 1293.75 894.521 1291.91C892.473 1290.02 892.504 1283.58 891.297 1280.91C889.563 1277.09 886.643 1273.63 882.473 1272.44C877.589 1271.05 874.806 1273.67 870.457 1275.12C866.245 1276.52 861.886 1274.34 858.945 1271.34C855.594 1267.91 853.651 1263.18 852.002 1258.76C850.384 1254.42 847.233 1248.41 848.956 1243.76C850.468 1239.68 854.891 1236.59 858.105 1233.91C862.002 1230.66 866.024 1227.56 870.089 1224.51C878.986 1217.86 887.967 1211.31 896.863 1204.66C901.17 1201.44 905.445 1198.21 909.678 1194.89C914.258 1191.32 917.419 1187.18 921.211 1182.89C923.911 1179.84 920.476 1174.71 916.684 1177.02L916.705 1177.04Z" fill="black"/>
<path d="M910.927 1233.58C915.497 1228.32 920.139 1223.13 924.645 1217.83C926.977 1215.08 929.088 1212.11 931.284 1209.25C932.387 1207.82 933.458 1206.38 934.519 1204.92C935.149 1204.05 935.727 1203.23 936.052 1202.18C936.357 1201.18 936.326 1200.55 936.546 1199.56C937.229 1196.49 934.141 1194.14 931.357 1195.58C929.677 1196.45 928.217 1197.06 926.914 1198.65C925.633 1200.21 924.383 1201.79 923.154 1203.4C921.022 1206.16 918.763 1208.87 916.778 1211.74C912.808 1217.46 908.974 1223.28 905.066 1229.05C902.703 1232.54 908.144 1236.78 910.938 1233.58H910.927Z" fill="black"/>
<path d="M998.318 1173.73C1013.11 1182.89 1026.27 1193.61 1036.06 1208.18C1046.91 1224.31 1053.4 1242.93 1058.26 1261.64C1059.43 1266.14 1060.51 1270.64 1061.53 1275.17C1062.35 1278.82 1065.69 1285.91 1063.69 1289.09C1061.78 1292.12 1056.27 1294.56 1053.23 1296.25C1048.68 1298.8 1043.9 1300.83 1038.91 1302.34C1030.5 1304.89 1019.26 1307.82 1012.64 1300.23C1007.86 1294.74 1006.17 1286.75 1004.77 1279.81C1002.32 1267.69 1000.13 1255.51 997.824 1243.36C996.658 1237.23 995.492 1231.09 994.326 1224.96C993.78 1222.07 993.276 1219.18 992.551 1216.33C991.564 1212.42 989.778 1209.84 988.266 1206.12C986.911 1202.77 981.638 1202.91 981.606 1207.02C981.575 1210.46 980.86 1213.33 981.26 1216.76C981.617 1219.84 982.121 1222.85 982.709 1225.89C984.033 1232.74 985.346 1239.59 986.669 1246.44C989.148 1259.32 991.48 1272.22 994.116 1285.05C995.881 1293.65 998.549 1302.63 1004.64 1309.22C1012.34 1317.57 1023.31 1318.17 1033.86 1316.41C1045.37 1314.49 1056.63 1309.97 1066.36 1303.54C1070.1 1301.07 1074.13 1298.41 1076.32 1294.36C1079.2 1289.02 1077.76 1282.81 1076.76 1277.16C1072.68 1254.03 1065.64 1230.03 1053.7 1209.69C1042.34 1190.31 1024.43 1170.64 1001.41 1166.39C997.047 1165.6 994.274 1171.23 998.318 1173.73Z" fill="black"/>
<path d="M991.891 1196.61C994.212 1198.7 996.113 1201.16 998.361 1203.29C999.474 1204.34 1000.54 1205.45 1001.55 1206.58C1002.07 1207.15 1002.56 1207.74 1003.05 1208.33C1003.02 1208.3 1003.98 1209.49 1003.55 1208.93C1003.12 1208.38 1004.03 1209.59 1004.01 1209.57C1005.83 1212.05 1007.46 1214.6 1009.13 1217.17C1011.02 1220.06 1012.27 1224.28 1015.44 1225.93L1013.88 1224.36C1014.79 1225.74 1015.67 1227.14 1016.48 1228.58C1017.98 1231.26 1022.11 1230.01 1022.15 1227.04C1022.16 1226.14 1022.15 1225.24 1022.13 1224.34C1022.11 1223.86 1022.07 1223.37 1022.06 1222.89C1022.05 1222.37 1021.9 1223.28 1022.15 1222.55C1022.93 1220.34 1021.63 1217.58 1020.83 1215.52C1019.34 1211.66 1017.53 1208.2 1015.06 1204.87C1012.65 1201.6 1009.82 1198.64 1006.72 1196.01C1003.48 1193.26 999.663 1191.55 995.725 1190.02C992.027 1188.58 989.065 1194.07 991.891 1196.62V1196.61Z" fill="black"/>
<path d="M875.602 1282.54C867.525 1300.38 863.187 1320.2 857.777 1338.98C852.221 1358.3 847.106 1377.75 841.801 1397.14C840.604 1401.51 843.912 1404.72 847.935 1405.2C866.821 1407.47 885.833 1408.87 904.845 1409.53C912.649 1409.8 922.396 1411.03 929.791 1408.02C936.997 1405.08 938.352 1398.18 938.761 1391.15C940.978 1353.1 945.085 1315.25 951.334 1277.64C954.822 1256.68 957.7 1235.76 960.126 1214.66C960.399 1212.31 956.87 1212.11 956.187 1214.13C941.912 1256.31 936.135 1300.62 931.776 1344.81C930.715 1355.57 929.77 1366.34 928.982 1377.13C928.594 1382.51 929.024 1388.64 927.869 1393.89C927.081 1397.48 926.241 1398.03 922.701 1398.08C919.991 1398.12 917.239 1397.71 914.54 1397.55C892.261 1396.27 870.119 1395.09 847.935 1392.48L854.069 1400.54C859.332 1381.14 864.794 1361.78 869.804 1342.32C874.678 1323.38 880.991 1304.08 883.081 1284.59C883.501 1280.7 877.209 1279.01 875.602 1282.56V1282.54Z" fill="black"/>
<path d="M957.29 1213.24C957.868 1229.33 960.43 1245.25 962.227 1261.23C964.033 1277.34 965.987 1293.42 967.31 1309.58C968.602 1325.39 969.705 1341.23 970.399 1357.08C970.745 1365.02 970.945 1372.95 971.417 1380.87C971.901 1388.95 971.659 1396.5 975.167 1403.91C976.039 1405.74 979.064 1405.7 979.946 1403.91C983.434 1396.82 983.266 1389.76 983.497 1381.96C983.749 1373.65 983.528 1365.38 983.213 1357.08C982.593 1340.85 981.564 1324.66 979.904 1308.51C976.627 1276.56 973.287 1242.9 962.174 1212.58C961.26 1210.09 957.174 1210.26 957.279 1213.24H957.29Z" fill="black"/>
<path d="M977.563 1405.28C989.79 1405.28 1002.09 1407.47 1014.32 1405.55C1017.59 1405.03 1023.28 1403.87 1024.27 1400.13C1025.51 1395.44 1018.89 1394.45 1015.67 1394.39C1009.93 1394.26 1004.05 1395.13 998.308 1395.41C990.935 1395.75 983.897 1397.87 976.828 1399.84C973.834 1400.68 974.412 1405.29 977.563 1405.29V1405.28Z" fill="black"/>
<path d="M814.912 1230.88C804.65 1248 808.547 1269.69 803.789 1288.43C802.486 1293.56 799.755 1298.35 799.598 1303.74C799.409 1309.84 802.686 1314.87 807.36 1318.47C812.244 1322.24 818.105 1324.86 823.746 1327.28C829.113 1329.57 836.896 1333.16 842.716 1331.45C846.297 1330.39 847.064 1326.26 844.795 1323.58C842.884 1321.33 840.751 1320.93 838.136 1319.73C835.52 1318.53 832.947 1317.22 830.321 1316.01C825.458 1313.76 820.322 1311.29 815.994 1308.09C811.477 1304.75 813.557 1301.24 815.154 1296.61C816.404 1293 817.149 1289.23 817.717 1285.46C820.269 1268.47 819.25 1250.9 822.359 1234.02C823.168 1229.63 817.401 1226.71 814.902 1230.88H814.912Z" fill="black"/>
<path d="M845.436 1319.98C845.814 1319.7 846.213 1319.45 846.644 1319.23C846.885 1319.1 847.148 1319 847.39 1318.88C846.245 1319.45 846.822 1319.1 847.148 1319.01C848.062 1318.75 848.934 1318.39 849.869 1318.21C851.034 1317.99 848.829 1318.28 849.627 1318.23C849.837 1318.22 850.037 1318.2 850.247 1318.19C850.74 1318.17 851.234 1318.19 851.717 1318.22C852.957 1318.32 850.583 1318.01 851.423 1318.17C851.633 1318.21 851.843 1318.24 852.043 1318.28C852.568 1318.4 853.093 1318.51 853.608 1318.63C854.102 1318.74 854.585 1318.88 855.057 1319.05C855.299 1319.13 855.53 1319.23 855.761 1319.31C854.091 1318.71 854.984 1318.97 855.383 1319.17C855.835 1319.4 856.265 1319.64 856.685 1319.91C856.896 1320.05 857.095 1320.18 857.295 1320.33C858.019 1320.83 856.192 1319.37 856.969 1320.1C857.673 1320.75 858.398 1321.4 859.049 1322.11C859.353 1322.44 859.7 1323.13 858.86 1321.81C858.986 1322.01 859.143 1322.2 859.269 1322.41C860.173 1323.85 861.213 1324.95 862.988 1325.22C862.452 1324.9 861.906 1324.59 861.37 1324.27C861.622 1324.5 861.864 1324.74 862.095 1325.01C863.366 1326.48 865.729 1325.9 866.664 1324.42C866.759 1324.27 866.843 1324.11 866.937 1323.97C866.99 1323.87 867.032 1323.77 867.084 1323.67C866.916 1323.92 866.727 1324.27 867.347 1323.47C868.408 1322.11 868.513 1320.44 868.103 1318.81C867.788 1317.58 867.263 1316.36 866.633 1315.27C865.383 1313.09 863.124 1311.33 860.908 1310.2C858.545 1308.98 855.908 1308.1 853.219 1308.11C850.646 1308.11 848.209 1308.7 845.877 1309.77C843.167 1311.02 841.444 1313.41 840.468 1316.16C840.016 1317.43 840.688 1318.95 841.686 1319.72C842.673 1320.48 844.375 1320.78 845.446 1319.98H845.436Z" fill="black"/>
<path d="M942.585 1323.38C943.54 1323.06 944.507 1322.85 945.494 1322.66C945.715 1322.62 946.492 1322.58 945.662 1322.62C944.727 1322.67 945.862 1322.62 945.988 1322.6C946.513 1322.55 947.028 1322.48 947.553 1322.44C949.633 1322.26 951.733 1322.19 953.813 1322.39C954.454 1322.45 954.128 1322.72 953.288 1322.32C953.456 1322.39 953.834 1322.41 954.002 1322.44C954.475 1322.54 954.947 1322.64 955.41 1322.76C955.872 1322.88 956.334 1323.02 956.796 1323.17C957.08 1323.26 957.363 1323.37 957.647 1323.47C958.634 1323.82 957.636 1323.63 957.363 1323.35C957.615 1323.62 958.319 1323.8 958.655 1323.98C959.128 1324.23 959.58 1324.52 960.052 1324.79C961.449 1325.55 962.962 1326.45 964.548 1326.66C964.275 1326.63 966.47 1326.94 965.168 1326.73C964.285 1326.58 965.01 1326.71 965.231 1326.75C965.682 1326.84 966.134 1326.93 966.575 1327.02C968.634 1327.46 970.598 1326.84 971.249 1324.61C971.585 1323.45 971.228 1321.91 971.018 1320.78C970.682 1319.01 969.894 1317.58 968.602 1316.28C964.768 1312.46 959.075 1310.86 953.824 1310.39C947.941 1309.86 942.49 1311.83 938.288 1315.97C935.221 1318.99 938.32 1324.77 942.595 1323.38H942.585Z" fill="black"/>
<path d="M814.324 1320.71C804.902 1321.81 796.342 1328.57 788.58 1333.66C780.313 1339.08 772.435 1345.05 764.768 1351.28C749.359 1363.78 735.252 1377.62 722.311 1392.64C696.146 1423.03 674.866 1457.23 659.719 1494.37C651.264 1515.13 645.455 1536.9 644.006 1559.32C643.775 1562.89 648.743 1563.05 649.846 1560.1C663.427 1524.04 676.389 1488.02 696.041 1454.68C715.442 1421.73 740.031 1392.45 768.181 1366.64C776.08 1359.39 784.378 1352.64 792.739 1345.94C800.648 1339.61 811.488 1334.21 817.202 1325.71C818.515 1323.76 816.814 1320.43 814.335 1320.71H814.324Z" fill="black"/>
<path d="M1129.01 1335.15C1140.68 1343 1151.13 1350.79 1160.81 1360.24C1165.98 1365.3 1170.94 1370.62 1175.82 1375.94C1178.94 1379.36 1182.06 1382.69 1185.37 1385.93C1187.42 1387.94 1189.5 1389.89 1191.62 1391.83C1194.14 1394.15 1196.29 1396.63 1200.04 1396.34C1202.25 1396.17 1204.81 1394.8 1205.24 1392.38C1205.95 1388.5 1204.57 1386.45 1202.41 1383.51C1200.58 1381.02 1198.73 1378.56 1196.82 1376.14C1193.69 1372.2 1190.46 1368.43 1187.02 1364.75C1181.87 1359.27 1176.65 1353.95 1170.82 1349.2C1165.53 1344.87 1160.07 1340.76 1153.89 1337.78C1146.63 1334.26 1139.19 1331.6 1131.58 1329.07C1127.84 1327.83 1126.03 1333.14 1129.02 1335.15H1129.01Z" fill="black"/>
<path d="M653.963 1576.33C655.108 1578.12 655.234 1579.77 656.579 1581.48C657.818 1583.06 658.963 1583.81 660.612 1585C664.719 1587.94 668.889 1590.71 673.164 1593.39C680.128 1597.74 687.229 1602.45 695.821 1601.46C710.578 1599.76 717.994 1584.46 722.395 1572.02C718.257 1572.57 714.108 1573.1 709.969 1573.65C712.616 1579.64 709.801 1587.64 710.904 1594.03C712.091 1600.93 716.481 1605.63 722.91 1608.15C731.103 1611.37 739.747 1613.88 748.161 1616.46C757.383 1619.3 766.395 1622.11 775.943 1623.23C779.861 1623.7 780.88 1617.92 777.865 1616.14C763.948 1607.92 747.573 1603.42 732.311 1598.15C729.832 1597.29 725.809 1596.57 724.254 1594.22C722.857 1592.1 723.372 1588.87 723.529 1586.49C723.929 1580.38 724.758 1574.27 722.406 1568.42C719.843 1562.04 711.839 1561.94 709.297 1568.42C706.639 1575.19 701.115 1588.35 691.945 1587.18C686.01 1586.42 679.802 1580.76 674.761 1577.89C671.515 1576.04 667.996 1573.79 664.488 1572.52C661.62 1571.48 659.341 1572.26 656.474 1571.97C654.278 1571.75 652.85 1574.61 653.963 1576.34V1576.33Z" fill="black"/>
<path d="M816.646 1622.6C822.118 1617.57 825.469 1609.33 828.337 1602.58C831.33 1595.55 821.047 1589.37 817.938 1596.5C812.476 1609.01 814.566 1624.21 824.587 1633.97C836.687 1645.74 856.529 1644.36 872.095 1644.8C891.538 1645.34 911.022 1645.19 930.465 1644.66C949.603 1644.14 969.266 1643.96 988.246 1641.32C1003.42 1639.21 1020.7 1628.7 1018.9 1611.04C1015.25 1611.54 1011.62 1612.03 1007.97 1612.52C1009.83 1619.12 1011.08 1628.57 1015.69 1633.91C1020.81 1639.83 1028.71 1637.05 1035.16 1635.49C1043.5 1633.47 1051.89 1631.58 1060.2 1629.42C1068.65 1627.23 1076.45 1624.02 1084.51 1620.75C1087.29 1619.63 1087.31 1614.83 1083.74 1615.05C1069.92 1615.9 1056.9 1617.93 1043.35 1620.81C1040.2 1621.48 1037.04 1622.14 1033.88 1622.81C1032.2 1623.17 1025.44 1625.6 1024.08 1624.85C1025.96 1625.89 1024.18 1622.81 1023.9 1622.07C1023.3 1620.44 1022.68 1618.83 1022.02 1617.23C1020.77 1614.22 1019.43 1611.24 1018.14 1608.25C1015.34 1601.76 1005.46 1607.35 1008.54 1613.86C1012.86 1622.99 1001.03 1629.44 993.918 1630.97C985.137 1632.85 975.725 1632.69 966.797 1633.07C946.63 1633.92 926.421 1634.25 906.243 1633.82C896.328 1633.61 886.412 1633.25 876.507 1632.74C867.201 1632.27 857.663 1632.28 848.43 1630.97C840.973 1629.91 834.135 1627.16 830.154 1620.45C826.583 1614.43 826.352 1607.57 828.956 1601.16L817.339 1597.96C814.629 1604.8 811.216 1613.07 811.573 1620.51C811.699 1623.12 814.713 1624.4 816.657 1622.61L816.646 1622.6Z" fill="black"/>
<path d="M1102.25 1600.27L1103.31 1608.25C1103.7 1611.17 1103.96 1614.11 1104.78 1616.95C1105.14 1618.19 1106.2 1619.44 1107.53 1619.69C1108.69 1619.91 1109.49 1619.84 1110.55 1619.29C1111.76 1618.67 1112.5 1617.22 1112.49 1615.9C1112.49 1612.94 1111.94 1610.04 1111.49 1607.13C1111.08 1604.48 1110.67 1601.83 1110.27 1599.18C1110.13 1598.27 1109.17 1597.15 1108.39 1596.74C1107.57 1596.31 1106.72 1596.13 1105.78 1596.26C1103.99 1596.5 1101.98 1598.25 1102.24 1600.27H1102.25Z" fill="black"/>
<path d="M647.881 1539.75C637.156 1544.85 626.474 1549.71 616.054 1555.43C608.586 1559.53 601.254 1564.66 600.624 1573.98C600.004 1583.18 605.508 1591.36 610.235 1598.74C616.537 1608.59 622.829 1618.44 629.131 1628.3C630.927 1631.1 634.205 1631.86 637.146 1630.4C649.046 1624.49 659.928 1616.94 669.718 1607.95C666.598 1605.55 663.468 1603.13 660.348 1600.72C649.362 1620.3 658.794 1644.27 676.241 1656.54C697.196 1671.26 725.503 1662.91 740.114 1643.43L729.894 1637.45C724.117 1647.62 727.173 1660.29 735.282 1668.33C744.032 1677 757.256 1680.08 769.052 1681.77C786.919 1684.34 813.052 1682.15 817.926 1660.73C819.564 1653.54 809.407 1650.85 806.981 1657.71C803.179 1668.42 807.632 1680.37 815.993 1687.65C825.709 1696.11 839.206 1698.04 851.643 1698.08C871.169 1698.14 896.179 1691.21 901.273 1669.56C897.418 1669.03 893.563 1668.52 889.698 1667.99C889.992 1679.79 897.618 1689.87 908.038 1695.02C920.18 1701.03 934.696 1700.54 947.826 1699.12C965.651 1697.18 991.868 1688.84 990.419 1666.44C986.522 1666.96 982.625 1667.49 978.728 1668.02C981.007 1684.27 998.212 1691.48 1012.85 1691.87C1033.58 1692.41 1051.33 1677.38 1072.19 1679.51C1074.57 1679.75 1077.67 1677.46 1078.05 1675.04C1078.91 1669.5 1079.76 1663.97 1080.62 1658.43C1081.59 1652.16 1072.94 1647.07 1069.49 1653.73C1064.18 1664.04 1068.78 1675.73 1077.98 1682.08C1089.25 1689.88 1104.07 1686.57 1116.34 1683.45C1135.97 1678.46 1161.16 1668.86 1164.64 1645.96C1161.06 1646.44 1157.47 1646.9 1153.89 1647.37C1162.24 1661.81 1180.84 1665.65 1195.88 1660.4C1214.58 1653.89 1224.98 1635.47 1233.76 1618.99C1229.83 1617.93 1225.91 1616.86 1221.98 1615.8C1221.33 1625.16 1229.19 1631.13 1238.04 1630.53C1241.54 1630.28 1243.75 1625.09 1240 1623.31C1237.16 1621.95 1234.36 1619.14 1234.61 1615.8C1235.08 1609.5 1225.72 1607.28 1222.84 1612.62C1215.92 1625.41 1208.29 1640.26 1194.78 1647.2C1184.98 1652.25 1170.09 1651.96 1164.04 1641.43C1161.71 1637.4 1154.08 1637.65 1153.28 1642.84C1150.79 1658.9 1134.19 1665.83 1120.3 1669.95C1111.64 1672.51 1101.81 1675.61 1092.71 1674.64C1086.36 1673.97 1075.95 1667.75 1080.01 1659.89C1076.3 1658.32 1072.59 1656.76 1068.87 1655.19C1068.02 1660.73 1067.16 1666.27 1066.32 1671.81C1068.27 1670.31 1070.23 1668.83 1072.18 1667.34C1053.15 1665.46 1037.66 1676.83 1019.51 1679.54C1008.29 1681.22 992.068 1678.18 990.198 1664.86C989.263 1658.25 978.077 1659.77 978.507 1666.45C979.463 1681.25 959.149 1685.93 947.815 1687.22C932.837 1688.92 902.072 1690 901.473 1668C901.294 1661.55 891.452 1659.75 889.898 1666.44C882.839 1696.72 806.687 1692.03 817.915 1660.75C814.271 1659.74 810.615 1658.73 806.97 1657.73C803.683 1671.82 784.808 1672.02 773.327 1670.7C765.271 1669.79 756.321 1667.96 749.179 1664.03C742.173 1660.16 735.482 1651.55 740.104 1643.45C743.979 1636.65 734.347 1631.55 729.883 1637.47C718.97 1651.96 697.353 1657.19 682.28 1646.18C670.39 1637.51 663.006 1620.45 670.642 1606.77C673.982 1600.77 666.252 1594.93 661.273 1599.53C652.229 1607.88 642.208 1614.76 631.222 1620.3C633.89 1621 636.568 1621.7 639.236 1622.4C634.257 1614.73 629.289 1607.07 624.321 1599.4C620.14 1592.95 613.449 1585.37 612.126 1577.55C610.687 1569.02 621.306 1565.15 627.209 1561.39C635.35 1556.2 642.944 1550.37 650.811 1544.78C653.857 1542.62 651.273 1538.14 647.881 1539.76V1539.75Z" fill="black"/>
<path d="M957.626 1689.16C954.401 1692.86 953.488 1698.59 952.679 1703.3C951.86 1708.08 951.051 1712.88 950.231 1717.66C949.381 1722.66 948.666 1727.66 948.005 1732.7C947.427 1737.09 945.526 1745.14 949.507 1748.29C949.108 1747.6 948.698 1746.9 948.299 1746.22C948.572 1747.54 949.034 1748.72 949.822 1749.82C951.009 1751.49 952.931 1751.73 954.496 1750.42C955.536 1749.56 956.282 1748.55 956.891 1747.34L955.2 1749.04C958.078 1747.79 958.687 1744.9 959.286 1742.13C959.884 1739.37 960.368 1736.63 960.735 1733.82C961.376 1728.99 961.954 1724.16 962.405 1719.32C962.857 1714.48 963.309 1709.65 963.75 1704.81C964.191 1700.03 964.79 1694.25 962.626 1689.82C961.765 1688.05 958.908 1687.7 957.626 1689.18V1689.16Z" fill="black"/>
<path d="M1012.89 1684.06C1010.88 1698.45 1009.66 1712.82 1008.47 1727.3C1007.9 1734.12 1007.48 1740.94 1007.08 1747.78C1006.73 1753.72 1004.99 1761.43 1009.55 1766.24C1011.88 1768.7 1015.29 1769.52 1017.9 1771.68C1020.78 1774.08 1023.95 1776.1 1027.31 1777.74C1033.79 1780.9 1040.69 1782.98 1047.8 1784.08C1076.49 1788.54 1113.61 1779.64 1127.44 1751.38C1132.78 1740.48 1133.54 1727.99 1134.7 1716.08C1136.25 1700.07 1137.15 1683.83 1133.86 1667.98C1133.19 1664.72 1127.55 1664.5 1127.05 1667.98C1125.28 1680.39 1124.94 1692.9 1124.08 1705.39C1123.3 1716.63 1122.81 1728.66 1119.7 1739.53C1116.14 1751.98 1106.47 1761.24 1094.77 1766.27C1073.48 1775.44 1043.95 1774.76 1025.82 1759.37C1024.64 1758.37 1021.44 1755.58 1019.6 1755.86C1019.4 1755.79 1019.2 1755.73 1019.01 1755.67C1020.52 1758.48 1021.14 1758.74 1020.87 1756.4C1021.53 1755.23 1021.04 1752.33 1021.1 1751.01C1021.41 1743.82 1021.74 1736.65 1021.87 1729.46C1022.13 1714.7 1022.44 1700.02 1021.86 1685.28C1021.67 1680.41 1013.63 1678.73 1012.89 1684.06Z" fill="black"/>
<path d="M819.029 1729.61C813.242 1730.48 809.481 1735.92 806.981 1740.72C802.801 1748.73 800.543 1757.66 798.652 1766.44C793.726 1789.25 792.444 1813.3 792.434 1836.59C792.434 1847.88 792.644 1859.28 793.841 1870.52C795.448 1885.57 801.771 1897.27 815.195 1904.8C826.455 1911.12 839.417 1913.72 851.948 1916.3C865.844 1919.15 879.94 1921.42 894.078 1922.65C909.698 1924 925.537 1924.04 941.093 1921.92C954.486 1920.09 967.783 1916.51 978.371 1907.68C980.178 1906.18 978.245 1903.02 976.081 1903.75C953.372 1911.46 930.054 1913.62 906.189 1911.72C881.852 1909.77 856.233 1905.72 833.094 1897.7C821.529 1893.69 811.109 1887.02 808.588 1874.29C806.624 1864.39 806.74 1853.73 806.561 1843.66C806.162 1821.98 806.74 1800.07 809.229 1778.51C810.332 1768.96 811.603 1759.44 814.092 1750.14C815.279 1745.71 816.928 1738.04 821.697 1735.95C825.594 1734.24 822.548 1729.09 819.029 1729.63V1729.61Z" fill="black"/>
<path d="M953.257 1738.05C953.908 1743.61 955.736 1748.87 956.177 1754.49C956.765 1762.1 956.923 1769.74 956.839 1777.37C956.744 1785.78 956.419 1794.18 956.261 1802.6C956.188 1806.75 956.282 1810.96 956.681 1815.09C956.891 1817.28 957.059 1819.68 957.543 1821.83C958.078 1824.28 959.528 1825.67 960.725 1827.73C961.975 1829.88 965.946 1830.36 967.059 1827.73C967.836 1825.89 969.097 1824.46 969.559 1822.52C970.063 1820.37 970.042 1818.01 970.189 1815.81C970.494 1811.18 970.599 1806.51 970.609 1801.87C970.63 1793.02 970.819 1784.16 970.714 1775.31C970.62 1767.56 970.347 1759.83 968.897 1752.21C967.752 1746.19 966.25 1738.72 961.177 1734.79C958.467 1732.68 952.732 1733.57 953.268 1738.07L953.257 1738.05Z" fill="black"/>
<path d="M957.796 1828.44C961.609 1831.35 964.623 1835.03 968.079 1838.33C970.936 1841.06 973.247 1844.13 975.074 1847.65C978.268 1853.77 979.391 1860.73 979.507 1867.41C979.633 1874.66 978.667 1880.25 977.49 1887.2C977.217 1888.79 976.892 1890.36 976.587 1891.94C976.219 1893.87 976.219 1895.15 976.072 1896.36C975.705 1899.33 974.455 1902.57 976.167 1905.33C976.997 1906.66 978.94 1907.74 980.547 1907.11C984.013 1905.75 984.948 1902.56 986.492 1899.48C986.944 1898.57 988.068 1896.47 988.708 1894.61C989.318 1892.84 989.874 1891.07 990.399 1889.28C992.658 1881.53 993.551 1873.04 993.193 1864.98C992.794 1856.01 990.589 1847.09 985.893 1839.36C983.425 1835.31 980.305 1831.49 976.713 1828.38C972.186 1824.47 966.556 1822.71 960.852 1821.25C956.241 1820.08 954.414 1825.88 957.817 1828.46L957.796 1828.44Z" fill="black"/>
<path d="M1015.64 1740.79C1007.79 1738.78 1001.13 1744.96 997.584 1751.34C993.109 1759.38 992.878 1768.74 992.941 1777.71C993.014 1787.53 992.752 1797.39 991.985 1807.19C991.596 1812.12 990.924 1817.03 990.63 1821.96C990.336 1826.76 990.515 1831.05 991.145 1835.76C991.575 1839.02 995.913 1841.01 997.846 1837.58C1001.87 1830.44 1003.62 1823.21 1004.59 1815.02C1005.65 1806.06 1006.33 1797.02 1006.29 1787.98C1006.26 1779.91 1004.96 1771.36 1006.48 1763.37C1007.89 1755.96 1012.47 1752.74 1017.47 1747.72C1019.64 1745.54 1018.69 1741.56 1015.64 1740.78V1740.79Z" fill="black"/>
<path d="M999.999 1837.31C1001.65 1838.27 1003.42 1838.82 1005.22 1839.41C1006.75 1839.94 1008.29 1840.53 1009.84 1840.98C1011.4 1841.43 1013.04 1841.63 1014.63 1841.95C1015.37 1842.09 1016.1 1842.23 1016.83 1842.38C1017.42 1842.49 1018.01 1842.6 1018.62 1842.68C1019.7 1842.83 1020.68 1842.61 1021.74 1842.41C1021.24 1842.47 1020.73 1842.55 1020.23 1842.61C1020.9 1842.61 1021.56 1842.62 1022.24 1842.6C1024.49 1842.53 1026.83 1841.01 1027.36 1838.7C1027.57 1837.76 1027.57 1836.81 1027.36 1835.87C1027.11 1834.76 1026.01 1833.16 1024.92 1832.7C1024.19 1832.38 1023.45 1832.07 1022.71 1831.78C1022.52 1831.71 1022.33 1831.64 1022.14 1831.56C1022.89 1831.89 1023 1831.89 1022.48 1831.56C1021.7 1830.86 1020.04 1830.78 1019.03 1830.6C1017.22 1830.27 1015.42 1829.94 1013.61 1829.63C1011.5 1829.27 1009.36 1829.25 1007.23 1829.16C1006.35 1829.12 1005.49 1829.08 1004.62 1829.04C1003.4 1828.99 1002.26 1829.15 1001.06 1829.34C999.39 1829.59 998.14 1831.44 997.94 1832.96C997.709 1834.66 998.497 1836.43 1000.02 1837.31H999.999Z" fill="black"/>
<path d="M1131.72 1741.75C1134.24 1742.38 1135.49 1748.41 1136.09 1751.53C1137.44 1758.65 1137.56 1766.04 1137.58 1773.27C1137.61 1792.57 1136.35 1811.89 1134.88 1831.13C1134.21 1839.88 1133.21 1848.59 1132.43 1857.32C1131.91 1863.18 1132.54 1871.83 1127.22 1875.5C1123.8 1877.87 1119.87 1879.38 1116.48 1881.84C1111.35 1885.55 1107.36 1890.41 1102.43 1894.35C1093.36 1901.58 1082.38 1907.11 1071.27 1910.4C1058.26 1914.25 1046.21 1911.75 1033.21 1908.83C1017.92 1905.39 1002.06 1900.97 987.511 1895.16C986.103 1894.61 984.916 1896.75 986.03 1897.71C997.657 1907.68 1010.23 1913.86 1024.89 1918.21C1037.28 1921.88 1051.25 1926.18 1064.28 1924.68C1077.48 1923.17 1090.16 1918.19 1101.46 1911.29C1112.01 1904.82 1119.75 1895 1130.65 1889.2C1140.21 1884.11 1144.26 1877.15 1145.94 1866.49C1147.37 1857.41 1148.25 1848.31 1148.91 1839.15C1150.45 1817.85 1151.12 1796.33 1149.02 1775.04C1148.1 1765.77 1147.07 1756.15 1144.06 1747.29C1142.4 1742.42 1139.53 1735.52 1133.67 1734.68C1129.14 1734.03 1127.01 1740.58 1131.72 1741.75Z" fill="black"/>
<path d="M906.946 1848.94C907.934 1847.66 908.974 1846.43 910.087 1845.27C911.463 1843.83 911.726 1843.54 913.343 1842.47C914.278 1841.84 915.171 1841.21 916.032 1840.47C916.347 1840.19 916.662 1839.93 916.978 1839.67C916.967 1839.67 918.143 1838.75 917.555 1839.2C916.956 1839.67 918.028 1838.86 918.143 1838.77C918.543 1838.49 918.942 1838.21 919.351 1837.93C920.024 1837.47 920.717 1837.04 921.421 1836.61C922.828 1835.76 924.288 1835.01 925.727 1834.23C926.452 1833.84 927.177 1833.48 927.922 1833.12C928.29 1832.94 928.668 1832.78 929.036 1832.6C929.74 1832.27 927.996 1833.01 929.12 1832.57C931.042 1831.81 933.542 1830.97 935.202 1829.68C936.063 1829.02 936.105 1828.58 936.977 1827.77C936.535 1828.19 935.412 1829.16 936.641 1828.46C937.397 1828.04 938.08 1827.58 938.794 1827.09C941.367 1825.31 941.168 1821.16 937.901 1820.26C936.851 1819.96 935.821 1819.77 934.729 1819.68C934.498 1819.66 933.227 1819.42 933.762 1819.63C934.361 1819.87 933.353 1819.42 933.195 1819.37C931.053 1818.8 927.859 1819.6 925.769 1820.42C922.009 1821.91 918.49 1823.64 915.265 1826.09C911.988 1828.58 908.322 1831.39 906.18 1834.97C904.341 1838.04 902.503 1841.13 901.075 1844.41C900.329 1846.12 900.434 1848.03 902.041 1849.23C903.375 1850.23 905.791 1850.43 906.946 1848.94Z" fill="black"/>
<path d="M818.409 1745.05C838.409 1764.78 870.897 1764.45 897.219 1765.32C911.011 1765.77 925.747 1766.2 938.551 1760.18C948.877 1755.32 958.362 1745.74 958.362 1733.78C958.362 1731.1 954.832 1730.29 953.467 1732.45C939.612 1754.23 914.372 1752.55 891.516 1751.93C879.72 1751.61 867.851 1751.11 856.202 1749.11C844.27 1747.06 832.432 1744.08 820.71 1741.12C818.462 1740.56 816.718 1743.37 818.42 1745.05H818.409Z" fill="black"/>
<path d="M997.814 1830.86C989.778 1830.49 988.192 1840.56 986.47 1846.33C985.398 1849.92 984.337 1853.5 983.445 1857.13C982.951 1859.15 982.657 1861.18 982.384 1863.24C982.247 1864.25 982.174 1865.24 982.447 1866.24C982.993 1866.67 983.109 1867.02 982.814 1867.28C982.709 1867.36 982.709 1867.47 982.814 1867.61C982.888 1868.08 982.951 1868.55 983.014 1869.02C983.287 1870.92 986.228 1871.6 987.405 1870.17C988.529 1868.82 989.862 1867.72 990.682 1866.14C991.449 1864.65 992.142 1862.97 992.698 1861.39C993.78 1858.27 994.652 1855.08 995.493 1851.89C996.333 1848.69 997.173 1845.51 998.024 1842.31C998.307 1841.26 998.675 1840.27 999.001 1839.23C999.19 1838.7 999.179 1838.69 998.98 1839.18C999.095 1838.94 999.232 1838.71 999.379 1838.48C999.778 1838.71 997.635 1839.33 998.917 1839C1003.57 1837.8 1002.4 1831.06 997.814 1830.85V1830.86Z" fill="black"/>
<path d="M989.768 1871.14C1000.79 1881.23 1013.85 1888.49 1028.24 1892.53C1035.27 1894.49 1042.5 1895.64 1049.79 1895.91C1056.8 1896.17 1065.6 1896.48 1071.99 1893.17C1074.51 1891.87 1073.04 1888.49 1070.67 1888.27C1064.07 1887.63 1057.11 1889.45 1050.43 1889.32C1043.51 1889.2 1036.57 1888.35 1029.83 1886.81C1016.16 1883.67 1003.09 1877.54 992.037 1868.9C990.472 1867.67 988.235 1869.73 989.789 1871.15L989.768 1871.14Z" fill="black"/>
<path d="M1096.37 1888.08C1104.95 1883.24 1113.44 1878.25 1121.73 1872.92C1125.82 1870.28 1129.72 1867.41 1133.62 1864.49C1135.55 1863.04 1137.43 1861.58 1139.19 1859.92C1140.82 1858.39 1143.02 1856.23 1143.6 1854.02C1143.96 1852.6 1142.89 1851.12 1141.39 1851.13C1139.23 1851.15 1136.74 1852.56 1134.94 1853.68C1132.92 1854.93 1131.05 1856.29 1129.17 1857.73C1125.15 1860.81 1121.14 1863.85 1117.24 1867.07C1109.71 1873.33 1102.21 1879.61 1094.63 1885.79C1093.31 1886.85 1094.99 1888.86 1096.39 1888.07L1096.37 1888.08Z" fill="black"/>
<path d="M804.135 1862.33C817.706 1887.77 849.217 1899.46 876.285 1902.26C893.543 1904.03 910.853 1904.36 928.184 1903.76C935.768 1903.5 943.299 1903.23 950.715 1901.47C957.847 1899.78 966.512 1897.82 972.615 1893.66C973.235 1893.24 972.867 1892.15 972.079 1892.4C968.382 1893.59 965.031 1895.27 961.187 1896.02C957.532 1896.73 953.803 1896.87 950.084 1896.87C942.763 1896.87 935.484 1896.98 928.174 1897.19C911.998 1897.66 895.328 1898.11 879.363 1895.06C865.949 1892.5 852.137 1888.62 839.784 1882.71C827.537 1876.86 816.981 1869.14 806.729 1860.31C805.322 1859.09 803.2 1860.6 804.124 1862.32L804.135 1862.33Z" fill="black"/>
<path d="M726.65 1278.9C727.186 1278.9 727.186 1278.07 726.65 1278.07C726.114 1278.07 726.114 1278.9 726.65 1278.9Z" fill="black"/>
<path d="M1235.87 815.665C1251.09 793.187 1271.56 765.117 1301.56 764.444C1330.9 763.782 1356.41 787.48 1366.58 813.564C1376.4 838.764 1375.31 867.307 1365.45 892.318C1355.3 918.044 1335.38 935.826 1309.64 945.21C1278.65 956.497 1245.29 959.177 1213 964.726C1210.59 965.146 1211.21 968.95 1213.57 968.94C1246.19 968.782 1280.2 968.12 1311.49 957.842C1340.9 948.174 1364.56 929.342 1377.41 900.757C1389.95 872.856 1392.15 839.941 1381.54 811.031C1370.13 779.924 1343.43 753.578 1309.36 750.352C1270.41 746.663 1242.81 780.376 1232.57 814.289C1231.95 816.327 1234.76 817.305 1235.86 815.676L1235.87 815.665Z" fill="black"/>
<path d="M1274.27 896.511C1284.84 888.85 1295.28 880.842 1306.41 874.012C1311.88 870.659 1317.57 867.738 1323.19 864.669C1328.67 861.674 1335.55 858.542 1338.86 852.993C1339.89 851.27 1338.88 849.21 1337.09 848.622C1330.76 846.53 1323.27 849.483 1317.43 851.932C1311.07 854.612 1305.07 858.038 1299.23 861.695C1293.45 865.321 1287.86 869.23 1282.61 873.581C1277.14 878.11 1272.48 882.881 1268.09 888.451C1266.51 890.458 1265.97 893.022 1267.69 895.177C1269.15 897.005 1272.19 898.014 1274.29 896.501L1274.27 896.511Z" fill="black"/>
<path d="M1291.43 875.262C1294.15 883.165 1296.08 891.646 1295.91 900.042C1295.83 904.194 1294.96 907.987 1294.12 912.023C1293.68 914.114 1293.28 916.195 1292.65 918.255C1291.93 920.64 1290.89 922.637 1291.45 925.18C1291.85 927.03 1294.16 928.375 1295.95 927.744C1300.49 926.157 1303.05 919.558 1304.69 915.365C1306.52 910.657 1307.02 905.066 1307.12 900.053C1307.33 889.554 1304.54 879.697 1298.01 871.437C1295.55 868.337 1290.19 871.689 1291.41 875.273L1291.43 875.262Z" fill="black"/>
<path d="M1104.48 681.906C1057.53 681.906 1019.47 725.214 1019.47 778.631C1019.47 832.049 1057.53 875.357 1104.48 875.357C1151.43 875.357 1189.49 832.049 1189.49 778.631C1189.49 725.214 1151.43 681.906 1104.48 681.906ZM1174.73 761.911C1174.47 762.847 1173.99 763.666 1173.31 764.36C1172.82 765.19 1172.16 765.852 1171.33 766.346C1170.63 767.029 1169.82 767.502 1168.88 767.775C1167.55 768.469 1166.14 768.784 1164.61 768.732C1163.64 768.595 1162.65 768.469 1161.67 768.332C1160.79 767.965 1159.91 767.586 1159.03 767.219C1158.28 766.641 1157.53 766.063 1156.79 765.485C1155.52 764.192 1154.45 762.658 1153.49 761.123C1153.12 760.524 1152.81 759.904 1152.48 759.284C1151.49 758.528 1150.91 758.055 1150.09 756.52C1149.81 756.016 1149.12 754.376 1148.94 753.82C1148.63 752.853 1148.49 751.802 1148.53 750.803C1148.55 750.194 1148.81 748.355 1148.94 747.756C1148.94 747.735 1148.96 747.703 1148.96 747.682C1148.96 747.672 1148.96 747.661 1148.97 747.651C1149.06 747.451 1149.14 747.262 1149.23 747.062C1149.31 746.411 1149.41 745.738 1149.51 745.307C1149.51 745.265 1149.54 745.223 1149.55 745.192C1150.01 743.363 1151.18 741.471 1152.49 740.147C1153.19 739.454 1153.96 738.802 1154.81 738.35C1155.34 738.066 1156.95 737.362 1157.52 737.194C1157.57 737.184 1157.61 737.173 1157.65 737.152C1158.2 737.005 1160.14 736.763 1160.7 736.753C1161.03 736.753 1161.35 736.858 1161.68 736.879C1162.02 736.847 1162.32 736.753 1162.67 736.753C1164.19 736.7 1165.61 737.016 1166.93 737.709C1168.31 738.161 1169.5 738.918 1170.5 740C1170.83 740.336 1171.06 740.736 1171.35 741.104C1172.46 741.965 1173.46 742.964 1174.19 744.204C1174.56 745.086 1174.94 745.969 1175.31 746.852C1175.77 748.323 1175.83 749.795 1175.51 751.266C1175.51 751.455 1175.43 751.634 1175.41 751.823C1175.47 752.38 1175.54 752.937 1175.6 753.494C1175.64 753.809 1175.66 754.135 1175.67 754.45C1175.72 755.522 1175.71 756.604 1175.71 757.676C1175.77 759.2 1175.44 760.619 1174.75 761.943L1174.73 761.911Z" fill="black"/>
<path d="M1011.06 684.407C1019.15 683.419 1025.95 677.408 1032.82 673.415C1040.13 669.169 1047.71 665.533 1055.56 662.422C1071.03 656.306 1087.17 652.607 1103.87 653.626C1135.62 655.57 1159.4 676.378 1174.08 703.345C1178.07 710.68 1181.42 718.436 1184.14 726.328C1187.03 734.693 1188.93 743.857 1193.02 751.728C1194.94 755.427 1200.89 754.524 1201.87 750.572C1203.9 742.407 1202.53 733.19 1200.83 725.077C1199.02 716.397 1196.14 708.053 1192.55 699.961C1185.56 684.176 1175.11 669.484 1161.85 658.345C1132.55 633.712 1093.74 629.855 1058.25 642.445C1048.04 646.07 1038.4 650.946 1029.29 656.8C1021.24 661.981 1009.48 668.675 1006.45 678.344C1005.61 681.034 1007.98 684.765 1011.05 684.386L1011.06 684.407Z" fill="black"/>
<path d="M1019.7 651.377C1031.64 643.611 1044.86 637.632 1058.53 633.659C1065.12 631.746 1071.78 630.086 1078.58 629.098C1085.62 628.068 1093.09 627.816 1099.84 625.462C1102.05 624.684 1101.94 621.878 1099.84 621.059C1093.06 618.421 1085.17 618.904 1078.08 619.882C1070.43 620.933 1062.74 622.498 1055.43 625.042C1041.04 630.044 1028.18 637.474 1016.5 647.247C1014.21 649.16 1017.19 652.996 1019.68 651.377H1019.7Z" fill="black"/>
<path d="M783.874 683.808C736.922 683.808 698.867 727.116 698.867 780.534C698.867 833.951 736.922 877.259 783.874 877.259C830.826 877.259 868.881 833.951 868.881 780.534C868.881 727.116 830.826 683.808 783.874 683.808ZM850.489 770.76C849.565 774.48 846.403 777.486 842.758 778.495C838.966 779.535 834.754 778.453 831.992 775.647C830.164 773.797 828.578 771.653 827.265 769.404C826.855 768.7 826.467 767.996 826.047 767.303C822.864 765.474 820.816 761.565 820.868 757.971C820.868 757.803 820.889 757.645 820.9 757.477C821.005 756.468 821.099 755.291 821.33 754.303C821.362 754.187 821.383 754.082 821.415 753.977C821.688 753.063 822.192 751.991 822.601 751.129C822.707 750.909 822.822 750.709 822.969 750.499C823.505 749.721 824.188 748.796 824.828 748.103C824.902 748.029 824.965 747.956 825.038 747.882C826.95 746.106 829.418 744.519 832.034 744.078C833.21 743.878 834.754 743.552 836.067 743.657C838.819 743.867 840.111 744.151 842.548 745.391C843.336 745.791 844.029 746.327 844.691 746.915C844.88 746.999 845.069 747.031 845.258 747.125C848.42 748.723 850.394 751.77 851.497 755.028C851.959 756.384 852.043 757.876 852.148 759.295C852.201 759.988 852.17 760.693 852.096 761.386C851.802 764.56 851.245 767.692 850.478 770.781L850.489 770.76Z" fill="black"/>
<path d="M858.01 671.282C855.331 662.738 845.888 657.01 838.872 652.197C830.942 646.753 822.496 641.93 813.61 638.241C796.216 631.011 776.931 626.818 758.045 628.342C721.923 631.253 691.263 654.394 675.013 686.362C670.518 695.211 666.957 704.448 664.562 714.074C662.262 723.301 660.266 734.115 662.598 743.5C663.575 747.441 669.53 748.365 671.452 744.656C674.94 737.951 676.652 730.227 679.068 723.091C681.494 715.892 684.162 708.83 687.46 701.978C694.004 688.411 702.533 675.832 713.856 665.817C738.508 644.021 772.31 642.434 802.298 652.859C811.079 655.917 819.618 659.669 827.769 664.146C835.836 668.581 844.082 676.179 853.398 677.324C856.466 677.703 858.85 673.972 857.999 671.282H858.01Z" fill="black"/>
<path d="M781.258 612.252C778.559 612.137 775.796 612 773.097 612.158C771.532 612.252 769.945 612.578 768.401 612.83C767.057 613.061 765.88 613.482 764.62 613.986C763.675 614.365 762.939 615.1 762.939 616.193C762.939 617.286 763.664 618.064 764.62 618.4C765.891 618.841 767.078 619.251 768.401 619.493C769.788 619.745 771.153 620.081 772.55 620.271C773.989 620.46 775.428 620.586 776.867 620.765C777.088 620.796 778.201 620.901 776.962 620.765C777.267 620.796 777.582 620.849 777.886 620.891C778.611 620.996 779.325 621.101 780.05 621.217C781.332 621.416 782.413 621.364 783.569 620.754C784.819 620.092 785.565 618.778 785.754 617.412C786.132 614.627 784.031 612.357 781.268 612.231L781.258 612.252Z" fill="black"/>
<path d="M847.947 640.175C838.399 632.156 828.053 625.62 816.541 620.838C810.932 618.505 805.207 616.592 799.293 615.195C796.258 614.48 793.201 613.86 790.124 613.366C786.846 612.83 783.433 612 780.156 612.82C776.847 613.65 775.922 618.82 779.168 620.407C781.857 621.731 784.735 621.826 787.666 622.309C790.565 622.782 793.443 623.35 796.3 624.012C801.993 625.336 807.675 626.965 813.19 628.899C824.24 632.766 834.954 637.915 844.764 644.305C847.233 645.913 850.258 642.108 847.947 640.175Z" fill="black"/>
<path d="M458.036 1058.74C474.17 1062.82 491.27 1063.69 507.782 1065.49C525.292 1067.39 542.791 1069.31 560.311 1071.04C577.758 1072.76 595.32 1074.59 612.851 1074.97C629.048 1075.31 645.948 1077.86 661.883 1074.18C663.29 1073.85 663.101 1071.92 661.883 1071.51C646.673 1066.39 630.098 1066.48 614.322 1064.09C596.728 1061.41 578.945 1059.71 561.257 1057.85C543.747 1056.02 526.227 1054.25 508.696 1052.68C492.373 1051.22 475.525 1048.9 459.16 1050.44C454.686 1050.86 453.12 1057.49 458.036 1058.73V1058.74Z" fill="black"/>
<path d="M460.894 1151.2C462.826 1156.98 472.605 1158.7 477.763 1160.17C485.735 1162.44 494.043 1163.94 502.152 1165.65C519.431 1169.31 536.783 1172.48 554.209 1175.35C571.456 1178.19 588.735 1180.85 606.034 1183.45C614.133 1184.66 622.294 1185.55 630.445 1186.39C637.147 1187.09 644.226 1188.32 650.381 1185.3C651.873 1184.56 652.093 1182.26 650.917 1181.17C645.907 1176.52 638.649 1175.71 632.063 1174.45C624.605 1173.04 617.116 1171.63 609.606 1170.51C592.022 1167.91 574.45 1165.23 556.898 1162.36C539.472 1159.51 522.036 1156.66 504.652 1153.54C496.711 1152.11 488.812 1150.28 480.861 1148.96C475.567 1148.08 465.83 1145.08 461.44 1149.18C460.925 1149.66 460.683 1150.53 460.904 1151.2H460.894Z" fill="black"/>
<path d="M461.104 1061.29C462.375 1056.43 459.308 1051.5 457.281 1047.2C455.274 1042.95 452.838 1038.85 450.138 1035C444.75 1027.3 437.586 1018.89 427.86 1017.06C417.64 1015.14 407.734 1021.42 405.917 1031.91C405.035 1036.99 406.6 1042.22 407.703 1047.16C408.606 1051.23 409.636 1055.27 410.833 1059.26C412.104 1063.5 413.795 1067.54 415.591 1071.57C416.589 1073.81 417.902 1075.66 419.341 1077.63C420.707 1079.51 421.641 1081.65 423.585 1082.98C424.509 1083.61 425.864 1082.97 426.127 1081.95C426.683 1079.78 425.99 1077.6 425.801 1075.4C425.601 1073.07 425.475 1070.8 424.866 1068.53C423.847 1064.71 422.891 1060.87 421.841 1057.06C420.623 1052.62 419.604 1048.14 418.742 1043.62C417.997 1039.68 416.222 1034.93 418.837 1031.35C424.026 1024.27 434.162 1035.26 437.586 1039.18C440.769 1042.82 443.374 1046.89 445.842 1051.04C447.176 1053.29 448.542 1055.51 449.844 1057.77C451.252 1060.21 452.565 1062.47 455.264 1063.65C457.543 1064.65 460.39 1063.98 461.094 1061.27L461.104 1061.29Z" fill="black"/>
<path d="M410.717 1053.22C405.413 1048.75 398.911 1047.06 392.136 1046.03C385.592 1045.05 378.828 1044.27 372.231 1045.09C360.793 1046.51 348.577 1056.77 354.795 1069.3C359.07 1077.92 368.786 1082.3 377.116 1085.94C385.76 1089.7 395.896 1092.17 403.491 1097.9C404.856 1094.67 406.211 1091.43 407.577 1088.21C398.029 1085.91 387.63 1085.64 377.872 1086.11C367.263 1086.61 355.562 1087.53 348.115 1096.16C343.976 1100.95 342.464 1107.73 345.814 1113.43C348.776 1118.46 354.427 1121.49 359.679 1123.57C369.542 1127.49 380.76 1128.61 390.203 1133.49C390.686 1129.79 391.17 1126.09 391.653 1122.39C382.609 1125.54 371.748 1124.97 363.618 1130.56C352.411 1138.26 356.927 1156.17 369.773 1158.56C384.815 1161.37 400.991 1162.84 416.284 1163.22C430.338 1163.57 444.403 1161.67 457.532 1156.58C464.024 1154.06 461.555 1143.79 454.591 1145.9C432.659 1152.53 410.392 1151.22 387.861 1149.13C384.731 1148.83 381.601 1148.54 378.481 1148.23C376.212 1148.02 371.055 1148.43 369.259 1146.63C366.885 1144.23 369.343 1140.37 371.685 1139.42C379.038 1136.42 387.378 1136.6 394.877 1134.1C399.583 1132.53 401.169 1125.59 396.327 1123C388.764 1118.97 380.088 1117.05 371.958 1114.52C368.566 1113.46 365.068 1112.46 361.885 1110.85C360.436 1110.13 356.791 1108.48 356.528 1106.62C356.255 1104.67 358.86 1102.94 360.257 1102.05C366.297 1098.16 375.015 1098.51 381.905 1098.3C389.405 1098.07 397.293 1097.27 404.751 1098.43C410.465 1099.33 414.215 1092.15 408.837 1088.74C396.957 1081.22 382.767 1077.54 371.297 1069.4C369.269 1067.96 365.782 1065.29 365.94 1062.62C366.213 1058.08 373.061 1057.44 376.37 1057.21C381.433 1056.84 386.527 1056.87 391.59 1057.29C397.314 1057.76 402.934 1058.89 408.658 1058.19C410.864 1057.93 412.86 1055.04 410.717 1053.23V1053.22Z" fill="black"/>
<path d="M418.511 1067.63C412.556 1067.46 409.846 1076.18 408.239 1080.65C406.317 1085.99 404.93 1091.42 404.153 1097.05C403.355 1102.72 402.745 1108.46 402.924 1114.2C403.018 1117.31 402.976 1120.59 403.691 1123.61C404.006 1124.95 404.153 1126.33 404.468 1127.68C404.678 1128.56 405.004 1129.18 405.476 1129.95C406.569 1131.72 405.035 1128.12 406.085 1131.03C407.262 1134.27 412.388 1134.89 413.291 1131.03C413.386 1130.61 413.606 1129.51 413.144 1130.47C413.533 1129.65 414.215 1129.14 414.467 1128.2C414.867 1126.74 414.636 1125.14 414.888 1123.65C415.381 1120.72 415.444 1117.74 415.623 1114.72C415.959 1109.31 416.148 1103.85 416.988 1098.48C417.839 1093.06 418.816 1087.66 420.36 1082.4C421.389 1078.89 425.465 1067.84 418.501 1067.64L418.511 1067.63Z" fill="black"/>
<path d="M906.515 305.357C895.644 366.645 891.59 428.869 893.543 491.062C895.361 549.03 901.873 608.028 918.563 663.747C925.874 688.159 935.285 712.603 951.577 732.465C953.656 734.998 957.291 731.772 955.925 729.113C933.573 685.584 920.517 638.43 912.923 590.236C903.396 529.767 901.579 468.341 903.081 407.242C903.911 373.392 906.274 339.501 910.454 305.893C910.727 303.665 906.904 303.139 906.515 305.357Z" fill="black"/>
<path d="M903.354 355.642C872.651 456.119 847.726 560.043 852.222 665.89C853.44 694.475 857.137 722.891 865.771 750.215C866.601 752.832 870.141 751.697 869.773 749.111C862.505 698.227 859.018 647.321 862.568 595.974C866.202 543.386 875.456 491.388 886.59 439.935C892.64 411.992 899.552 384.258 907.093 356.683C907.755 354.266 904.089 353.267 903.354 355.653V355.642Z" fill="black"/>
<path d="M775.261 326.122C751.743 372.184 733.077 419.989 719.475 469.897C705.988 519.363 697.627 570.374 693.562 621.469C692.417 635.877 691.934 650.326 691.766 664.787C691.682 672.196 691.693 679.573 692.113 686.982C692.512 694.002 692.596 701.054 694.854 707.769C695.558 709.871 698.604 710.007 699.255 707.769C702.648 696.188 701.934 682.852 702.407 670.84C702.911 658.051 703.814 645.303 704.78 632.545C706.682 607.576 709.276 582.722 713.225 557.994C721.229 507.908 733.54 458.326 750.031 410.363C759.442 382.997 769.105 355.874 780.744 329.349C782.351 325.681 777.141 322.413 775.25 326.133L775.261 326.122Z" fill="black"/>
<path d="M1008.96 334.855C1013.22 348.549 1019.36 361.685 1024.29 375.158C1029.03 388.094 1033.47 401.157 1037.63 414.283C1046.19 441.249 1053.7 468.499 1059.41 496.222C1070.83 551.783 1075.57 608.332 1074.63 665.018C1074.09 697.134 1070.86 729.102 1069.09 761.144C1068.94 763.992 1073.23 764.465 1073.99 761.806C1081.84 734.136 1085.16 705.52 1086.88 676.851C1088.61 647.93 1088.28 618.999 1086.17 590.11C1081.99 532.909 1071.19 475.729 1052.96 421.303C1047.9 406.191 1042.14 391.321 1035.82 376.702C1029.38 361.822 1023.02 346.247 1014.02 332.722C1012.36 330.221 1007.98 331.713 1008.96 334.855Z" fill="black"/>
<path d="M1045.27 554.516C1052.01 580.515 1056.08 607.145 1057.21 633.985C1058.33 660.3 1056.35 686.53 1053.53 712.687C1053.32 714.621 1056.53 715.052 1056.92 713.15C1067.65 660.888 1062.4 604.812 1048.2 553.706C1047.68 551.815 1044.78 552.613 1045.26 554.516H1045.27Z" fill="black"/>
<path d="M899.101 376.282C877.421 466.019 871.906 561.136 881.339 652.912C883.954 678.344 886.706 704.585 894.71 728.976C894.941 729.67 896.149 729.607 896.065 728.787C893.712 705.94 889.248 683.367 886.769 660.52C884.227 637.148 882.599 613.65 881.875 590.152C880.446 543.565 882.589 496.842 888.009 450.56C890.908 425.727 894.931 401.031 900.298 376.618C900.466 375.841 899.29 375.504 899.101 376.282Z" fill="black"/>
<path d="M876.927 860.108C910.707 862.609 944.866 860.434 978.667 858.963C982.154 858.815 985.956 858.29 989.444 858.7C993.288 859.162 994.538 861.222 995.609 864.638C998.099 872.509 999.328 881.147 999.758 889.376C1000.46 902.964 998.529 916.941 990.998 928.533C978.436 947.89 953.762 955.383 931.704 953.786C910.823 952.272 892.315 941.921 882.641 923.005C877.631 913.2 875.604 902.165 875.415 891.225C875.215 879.792 878.041 868.967 879.144 857.691C879.364 855.453 876.035 854.748 875.016 856.577C869.543 866.424 868.199 878.804 867.968 889.933C867.747 900.894 869.312 912.107 873.093 922.427C881.328 944.885 900.582 959.744 924.037 963.633C950.139 967.962 979.045 961.121 996.145 939.756C1005.15 928.511 1009.25 914.923 1010.04 900.662C1010.55 891.646 1009.67 882.566 1008.09 873.696C1006.74 866.193 1005.49 857.008 999.59 851.543C993.099 845.532 983.351 847.014 975.327 847.392C964.266 847.907 953.195 848.285 942.156 849.021C920.129 850.492 898.061 851.764 876.266 855.358C873.419 855.831 874.354 859.929 876.906 860.119L876.927 860.108Z" fill="black"/>
<path d="M640.591 828.528C627.199 854.822 625.339 888.335 633.343 916.573C640.706 942.531 656.473 962.634 676.839 979.754C698.666 998.102 722.604 1011.96 748.979 1022.67C776.468 1033.84 805.248 1041.71 834.249 1047.81C864.5 1054.17 894.635 1059.29 925.631 1056.9C926.923 1056.81 927.27 1054.98 925.946 1054.59C914.046 1051.08 901.935 1048.13 889.814 1045.45C876.6 1042.52 863.029 1041.02 849.752 1038.39C821.833 1032.88 794.198 1025.68 767.424 1015.99C742.246 1006.88 716.523 995.233 694.769 979.407C675.873 965.65 660.023 945.074 651.189 923.446C645.843 910.352 643.385 896.396 643.017 882.293C642.576 865.226 646.284 848.727 648.679 831.933C649.33 827.414 643.08 823.621 640.58 828.518L640.591 828.528Z" fill="black"/>
<path d="M1223.13 937.108C1214.32 950.591 1204.37 963.233 1192.22 973.879C1178.32 986.059 1162.2 995.633 1145.66 1003.78C1110.47 1021.12 1072.32 1032.87 1033.99 1040.9C1015.58 1044.75 996.952 1047.53 978.497 1051.17C976.008 1051.67 976.911 1055.01 979.054 1055.25C996.269 1057.23 1013.42 1055.47 1030.48 1052.82C1050.54 1049.71 1070.38 1045.38 1089.86 1039.6C1128.24 1028.22 1166.59 1012.11 1197.51 986.132C1211.9 974.037 1225.73 958.725 1229.33 939.714C1230.03 935.973 1225.3 933.776 1223.13 937.097V937.108Z" fill="black"/>
<path d="M1011.15 1175.9C1018.58 1176.08 1026 1175.8 1033.41 1175.36C1037.06 1175.15 1040.7 1174.72 1044.34 1174.39C1048.34 1174.02 1052.39 1173.6 1055.74 1171.24C1057.71 1169.85 1058.24 1166.52 1055.74 1165.26C1051.98 1163.37 1048.05 1163.33 1043.92 1163.56C1040.28 1163.76 1036.62 1163.87 1032.99 1164.21C1025.28 1164.93 1017.59 1165.74 1009.96 1167.06C1004.82 1167.94 1006.25 1175.78 1011.15 1175.89V1175.9Z" fill="black"/>
<path d="M1229.17 584.099C1222.78 576.963 1216.03 571.845 1207.33 567.757C1199.37 564.016 1191.14 560.768 1182.73 558.173C1165.83 552.95 1147.77 550.617 1130.11 550.554C1112.45 550.491 1094.45 553.233 1077.56 558.383C1061.77 563.196 1042.51 570.752 1032.58 584.624C1030.25 587.882 1034.09 591.276 1037.27 590.73C1045.17 589.364 1052.78 585.654 1060.37 583.016C1068.2 580.305 1076.03 577.572 1084.06 575.513C1099.45 571.561 1115.1 569.848 1130.97 569.901C1146.85 569.953 1162.39 572.286 1177.72 576.374C1185.25 578.382 1192.7 580.862 1199.86 583.941C1207.92 587.398 1215.7 590.288 1224.06 592.895C1229.35 594.545 1232.51 587.819 1229.18 584.099H1229.17Z" fill="black"/>
<path d="M857.347 586.453C848.44 577.142 838.43 568.713 826.55 563.522C813.956 558.015 800.816 554.19 787.213 552.214C759.599 548.21 730.766 551.268 705.431 563.354C693.583 569.008 674.792 579.601 672.859 594.009C672.344 597.865 676.829 600.083 679.949 599.421C685.59 598.212 690.505 593.252 695.158 590.078C699.959 586.799 704.927 583.741 710.126 581.124C720.819 575.754 732.667 572.444 744.453 570.531C767.897 566.738 792.927 569.659 815.132 577.867C827.348 582.386 839.89 587.693 850.467 595.364C855.824 599.253 861.654 590.95 857.347 586.453Z" fill="black"/>
<path d="M1150.58 329.044C1191.26 377.974 1226.64 431.423 1251.52 490.19C1275.46 546.718 1292.3 609.856 1285.77 671.691C1282.51 702.598 1272.91 733.464 1255.53 759.41C1253.76 762.048 1257.92 765.348 1259.99 762.847C1278.37 740.631 1290.12 714.673 1295.61 686.352C1301.45 656.18 1300.7 624.611 1295.99 594.345C1285.73 528.359 1258.27 464.674 1222.37 408.692C1203.14 378.699 1180.3 349.705 1153.42 326.207C1151.45 324.494 1148.93 327.068 1150.58 329.044Z" fill="black"/>
<path d="M1066.61 498.345C1084.6 533.193 1098.91 569.806 1110.91 607.103C1116.81 625.452 1121.83 644.074 1126.05 662.885C1130.32 681.917 1133.35 701.39 1139.52 719.896C1140.32 722.292 1143.71 721.819 1143.87 719.308C1145.09 699.719 1141.2 680.004 1136.94 660.92C1132.59 641.478 1127.09 622.246 1120.81 603.341C1108.32 565.718 1091.07 529.903 1071.03 495.759C1069.34 492.901 1065.1 495.423 1066.6 498.345H1066.61Z" fill="black"/>
<path d="M1159.75 648.351C1160.98 656.811 1162.2 665.249 1163.68 673.678C1164.41 677.871 1165.03 682.095 1166.01 686.236C1166.92 690.124 1167.48 694.275 1169.27 697.859C1169.87 699.067 1171.48 698.342 1171.59 697.228C1171.97 693.224 1170.91 689.021 1170.35 685.038C1169.76 680.824 1168.83 676.662 1168 672.48C1166.35 664.135 1164.46 655.865 1162.56 647.573C1162.12 645.703 1159.49 646.543 1159.75 648.351Z" fill="black"/>
<path d="M1288.59 704.858C1289.93 708.715 1291.27 712.466 1293.11 716.113C1295 719.854 1297.37 723.06 1300.06 726.265C1302.54 729.218 1305.18 732.045 1307.96 734.714C1311.1 737.72 1314.98 741.871 1319.54 742.154C1318.74 741.934 1317.93 741.713 1317.12 741.492C1318.6 742.239 1319.85 742.617 1321.46 742.859C1324.5 743.332 1326.88 740.599 1325.43 737.699C1324.71 736.28 1324.01 735.145 1322.95 733.926C1323.36 734.63 1323.78 735.345 1324.19 736.049C1322.97 732.192 1318.68 729.491 1315.82 726.832C1313.06 724.279 1310.44 721.578 1307.96 718.751C1305.55 715.998 1303.26 713.213 1300.79 710.522C1298.24 707.769 1295.63 705.016 1293.32 702.073C1291.56 699.835 1287.68 702.262 1288.58 704.837L1288.59 704.858Z" fill="black"/>
<path d="M1287.96 727.936C1289.84 731.015 1292.1 733.894 1294.65 736.438C1295.96 737.741 1297.36 739.054 1298.9 740.074C1300.59 741.188 1303.43 743.416 1305.43 741.934C1304.97 742.06 1304.52 742.175 1304.07 742.302C1303.5 742.228 1304.31 742.438 1304.36 742.449C1304.57 742.501 1304.76 742.564 1304.97 742.617C1305.44 742.732 1305.9 742.848 1306.36 742.953C1308.05 743.331 1309.68 741.125 1308.18 739.832C1307.83 739.527 1307.49 739.222 1307.14 738.907C1306.98 738.76 1306.82 738.613 1306.68 738.466C1306.6 738.392 1306.12 737.867 1306.39 738.256C1306.49 738.949 1306.57 739.632 1306.67 740.326C1306.82 739.412 1306.78 738.581 1306.26 737.793C1305.84 737.152 1305.23 736.753 1304.62 736.311C1304.44 736.185 1304.26 736.049 1304.08 735.912C1304.31 736.08 1304.33 736.112 1304.09 735.912C1303.79 735.67 1303.48 735.418 1303.18 735.166C1302.7 734.756 1302.21 734.357 1301.71 733.968C1301.57 733.863 1301.42 733.758 1301.29 733.653C1300.97 733.421 1301.71 733.999 1301.22 733.6C1300.57 733.064 1299.92 732.539 1299.3 731.971C1298.08 730.878 1296.94 729.722 1295.86 728.493C1295.33 727.894 1294.83 727.284 1294.33 726.664C1294.7 727.127 1294.31 726.633 1294.25 726.538C1294.11 726.359 1293.99 726.181 1293.86 726.002C1293.6 725.645 1293.35 725.277 1293.11 724.92C1292.23 723.638 1290.45 722.944 1289.03 723.848C1287.7 724.709 1287.1 726.496 1287.96 727.925V727.936Z" fill="black"/>
<path d="M619.249 710.028C617.369 722.566 620.215 735.502 622.285 747.924C623.986 758.17 625.919 768.364 628.093 778.526C630.246 788.605 632.389 798.693 634.29 808.824C635.351 814.52 636.339 820.226 637.399 825.922C638.733 833.047 639.353 839.773 643.565 845.795C645.141 848.054 648.323 847.655 649.258 845.049C651.643 838.375 650.54 832.133 649.615 825.208C648.807 819.133 647.84 813.112 646.737 807.09C644.857 796.886 642.714 786.734 640.551 776.593C638.397 766.514 636.076 756.478 634.007 746.39C631.465 733.989 630.341 720.853 625.205 709.251C624.123 706.802 619.669 707.338 619.259 710.028H619.249Z" fill="black"/>
<path d="M681.988 499.932C670.381 538.142 663.585 577.425 661.443 617.307C659.321 656.642 659.877 697.628 668.89 736.133C669.236 737.625 671.736 737.341 671.61 735.765C668.522 696.535 664.877 657.767 666.925 618.358C668.995 578.697 674.856 539.109 683.868 500.446C684.152 499.227 682.366 498.733 681.998 499.932H681.988Z" fill="black"/>
<path d="M651.736 674.151C651.547 691.228 652.912 708.189 656.694 724.857C656.851 725.561 657.87 725.256 657.765 724.562C655.034 707.906 653.185 691.039 653.122 674.151C653.122 673.257 651.746 673.257 651.736 674.151Z" fill="black"/>
<path d="M630.488 1185.57C630.414 1202.09 633.88 1218.96 636.664 1235.26C639.542 1252.16 642.01 1269.13 643.218 1286.24C645.308 1315.99 644.037 1346.31 634.836 1374.88C625.131 1405.04 605.037 1427.86 585.563 1452.09C567.392 1474.71 549.01 1501.56 549.094 1531.83C549.126 1544.95 553.39 1558.78 561.11 1569.44C568.316 1579.38 579.775 1589.78 592.895 1588.49C594.88 1588.29 595.615 1585.92 593.903 1584.75C583.987 1577.98 574.828 1572.24 568.883 1561.37C562.991 1550.6 560.816 1538.75 561.762 1526.57C564.062 1497.06 584.061 1472.43 602.096 1450.52C620.866 1427.71 637.903 1404.81 646.705 1376.22C655.14 1348.85 657.073 1319.44 654.972 1290.99C653.68 1273.47 651.043 1256.06 647.903 1238.78C644.647 1220.82 641.17 1202.04 634.553 1185.03C633.744 1182.95 630.488 1183.08 630.477 1185.58L630.488 1185.57Z" fill="black"/>
<path d="M640.929 657.483C630.751 672.721 626.78 692.815 623.219 710.554C618.041 736.343 614.417 762.437 611.812 788.615C605.92 847.791 604.008 907.641 607.663 967.027C608.598 982.213 609.785 997.472 612.19 1012.51C613.776 1022.41 614.774 1032.17 615.121 1042.2C615.478 1052.35 614.459 1063.26 618.535 1072.75C619.28 1074.48 621.696 1073.7 622.2 1072.26C625.194 1063.77 625.016 1054.28 625.509 1045.36C626.045 1035.64 626.066 1026.02 624.868 1016.35C623.272 1003.47 621.696 990.588 620.593 977.662C618.115 948.783 617.453 919.768 617.831 890.794C618.556 834.498 622.684 777.77 631.948 722.198C635.488 700.98 640.708 680.141 644.731 659.081C645.172 656.779 642.284 655.476 640.939 657.483H640.929Z" fill="black"/>
<path d="M368.702 1154.91C358.608 1162.79 351.108 1173.91 343.147 1183.95C335.174 1194.01 327.465 1204.34 320.017 1214.8C306.268 1234.13 294.199 1254.53 286.72 1277.15C279.609 1298.65 276.626 1321.98 281.111 1344.34C285.47 1366.11 297.77 1384.33 314.083 1399.01C330.91 1414.16 350.93 1425.72 366.402 1442.36C380.582 1457.61 393.376 1480.05 385.844 1501.34C381.821 1512.73 373.009 1521.68 367.851 1532.52C363.387 1541.88 361.024 1552.04 360.793 1562.42C360.32 1582.84 367.169 1603.01 380.015 1618.87C393.018 1634.92 414.53 1643.93 433.752 1649.88C453.279 1655.94 477.626 1659.31 497.583 1653.41C502.961 1651.83 502.237 1642.63 496.207 1643.22C478.12 1644.98 461.009 1642.74 443.394 1638.66C426.315 1634.71 408.596 1628.57 395.76 1616.11C381.895 1602.65 372.935 1583.52 373.324 1564C373.513 1554.62 375.761 1545.28 380.267 1537.03C385.813 1526.89 393.796 1518.33 398.071 1507.47C406.054 1487.2 399.174 1464.87 387.336 1447.66C375.026 1429.75 357.768 1417.27 340.615 1404.39C323.578 1391.61 306.478 1377.64 297.749 1357.63C289.063 1337.71 289.252 1314.96 293.989 1294.08C299.693 1268.95 311.782 1246.5 326.299 1225.42C334.271 1213.85 342.937 1202.81 351.319 1191.54C359.28 1180.83 368.356 1169.8 372.158 1156.94C372.799 1154.75 370.194 1153.74 368.692 1154.92L368.702 1154.91Z" fill="black"/>
<path d="M420.36 1019.88C431.568 963.013 432.45 904.288 436.147 846.551C439.939 787.47 443.447 728.388 450.422 669.569C463.163 562.208 487.469 455.163 538.811 359.216C561.121 317.526 588.074 278.065 620.94 243.973C649.468 214.38 681.872 188.727 716.85 167.184C787.435 123.687 868.419 96.3948 950.989 88.6812C1032.89 81.0306 1117.33 92.6116 1191.88 128.311C1274.71 167.982 1346.97 233.664 1400 308.152C1427.24 346.405 1450.06 387.926 1467.34 431.612C1487.57 482.791 1501.54 536.787 1511.66 590.814C1532.16 700.287 1534.03 811.903 1532.39 922.931C1530.74 1035 1527.56 1146.87 1535.68 1258.79C1537.63 1285.78 1540.26 1313.13 1548.6 1339.01C1556.34 1363.01 1569.8 1383.9 1582.81 1405.28C1595.19 1425.61 1607.51 1447.51 1609.25 1471.78C1610.76 1492.92 1605.12 1514.09 1594.16 1532.16C1583.46 1549.79 1566.93 1565.53 1547.63 1573.3C1541.52 1575.77 1544.19 1585.82 1550.4 1583.32C1590.45 1567.18 1617.86 1529.8 1621.62 1486.62C1626.02 1436.05 1589.75 1397.37 1569.17 1354.74C1556.69 1328.9 1552.11 1300.17 1549.43 1271.84C1546.72 1243.24 1545.19 1214.54 1544.31 1185.81C1542.55 1128.09 1543.3 1070.3 1544.07 1012.55C1545.61 899.359 1548.82 785.631 1536.83 672.847C1525.41 565.414 1501.14 456.161 1448.78 360.781C1402.82 277.045 1336.58 204.806 1257.39 151.483C1185.4 103.005 1102.48 76.9426 1015.78 74.2417C931.242 71.6145 846.33 90.1314 769.61 125.421C693.542 160.405 625.309 212.761 575.175 280.114C511.312 365.91 473.814 469.067 453.783 573.442C431.116 691.533 427.282 812.019 420.791 931.759C419.205 960.942 418.175 990.158 416.295 1019.31C416.148 1021.62 419.919 1022.17 420.371 1019.87L420.36 1019.88Z" fill="black"/>
<path d="M477.752 1462.08C470.83 1478.34 466.85 1495.12 464.57 1512.68C462.375 1529.61 462.375 1546.98 467.175 1563.5C471.986 1580.03 481.765 1593.32 493.14 1605.92C504.043 1618 516.154 1630.11 520.482 1646.3C522.929 1655.49 523.003 1664.79 521.038 1674.07C519.148 1683 514.894 1690.9 511.575 1699.31C510.86 1701.1 513.234 1702.63 514.726 1701.74C528.171 1693.63 533.422 1675.41 533.695 1660.52C534.021 1643.42 527.026 1628.59 516.553 1615.46C506.071 1602.32 492.836 1591.31 484.391 1576.61C475.337 1560.84 473.015 1542.6 473.603 1524.67C474.286 1503.91 479.759 1483.8 482.007 1463.23C482.248 1461.04 478.624 1460.03 477.752 1462.08Z" fill="black"/>
<path d="M457.794 1618.02C465.326 1621.3 472.142 1626.28 478.697 1631.2C485.01 1635.94 490.839 1641.81 495.534 1648.15C500.366 1654.67 503.906 1661.79 506.962 1669.26C510.093 1676.91 511.763 1685.02 514.536 1692.77C515.197 1694.61 517.792 1694.74 518.401 1692.77C523.768 1675.54 514.515 1655.91 504.231 1642.42C498.622 1635.07 492.079 1628.73 484.421 1623.51C476.817 1618.32 468.372 1615.81 459.391 1614.21C457.269 1613.83 455.473 1616.99 457.794 1618V1618.02Z" fill="black"/>
<path d="M473.403 1514.28C470.955 1534.16 479.411 1551.8 490.671 1567.61C501.112 1582.27 514.168 1595.39 529.692 1604.65C555.763 1620.21 602.011 1624.33 618.029 1592.33C618.565 1591.25 617.388 1589.7 616.233 1590.53C604.763 1598.7 591.066 1604.59 576.938 1605.71C561.477 1606.94 546.74 1602.48 533.463 1594.7C519.42 1586.47 507.876 1574.74 497.425 1562.4C486.102 1549.02 475.01 1532.43 475.356 1514.28C475.377 1512.99 473.571 1513.08 473.424 1514.28H473.403Z" fill="black"/>
<path d="M578.073 1472.96C567.821 1477.98 567.769 1491.57 567.559 1501.44C567.307 1513.81 568.914 1526.09 572.475 1537.94C578.808 1559.03 592.726 1584.93 615.151 1592.01C616.863 1592.55 618.187 1590.22 616.905 1589C609.269 1581.76 601.034 1575.23 594.658 1566.76C588.388 1558.42 583.63 1548.95 580.321 1539.09C576.949 1529.02 574.943 1518.42 574.082 1507.84C573.336 1498.68 571.235 1482.21 579.88 1476.07C581.76 1474.74 580.163 1471.94 578.063 1472.96H578.073Z" fill="black"/>
<path d="M611.433 1429.61C600.183 1449.38 597.894 1472.02 603.03 1494.05C605.582 1505 610.257 1515.62 616.422 1525.02C621.485 1532.72 629.037 1544.06 639.068 1545.09C640.182 1545.2 641.043 1543.89 640.738 1542.9C639.426 1538.69 636.043 1534.96 633.186 1531.67C629.857 1527.84 626.716 1523.99 623.985 1519.7C618.47 1511.03 614.563 1501.53 611.958 1491.6C606.79 1471.89 607.683 1450.13 614.595 1430.96C615.267 1429.09 612.389 1427.95 611.433 1429.62V1429.61Z" fill="black"/>
<path d="M634.794 1495.99C635.487 1504.63 636.674 1513.22 638.397 1521.72C639.269 1526.03 640.277 1530.31 641.422 1534.57C642.462 1538.42 643.502 1543.2 645.792 1546.52C646.653 1547.78 648.985 1547.45 648.89 1545.68C648.67 1541.59 646.894 1537.3 645.75 1533.38C644.615 1529.46 643.586 1525.5 642.682 1521.52C640.771 1513.1 639.395 1504.59 638.533 1496C638.292 1493.64 634.605 1493.58 634.794 1496V1495.99Z" fill="black"/>
<path d="M1223.65 975.235C1215.24 1024.65 1222.1 1073.75 1229.71 1122.8C1236.87 1169.01 1244.43 1215.46 1242.11 1262.4C1241.01 1284.64 1237.56 1306.78 1230.68 1327.99C1223.73 1349.42 1212.66 1368.54 1200.13 1387.14C1175.86 1423.14 1145.74 1461.36 1148.03 1507.37C1149.15 1529.98 1159.31 1550.09 1174.65 1566.4C1190.03 1582.76 1208.8 1593.09 1228 1604.19C1231.2 1606.04 1233.9 1601.29 1230.87 1599.29C1215.09 1588.83 1199.39 1576.61 1186 1563.19C1172.38 1549.53 1161.76 1532.54 1159.69 1513C1154.88 1467.53 1186.25 1429.3 1210.32 1394.24C1222.68 1376.22 1233.45 1357.33 1240.71 1336.65C1247.82 1316.44 1251.69 1295.2 1253.45 1273.89C1257.12 1229.41 1251.21 1184.92 1244.34 1141.04C1235.81 1086.56 1226.31 1031.38 1229.37 976.023C1229.55 972.797 1224.21 971.987 1223.67 975.245L1223.65 975.235Z" fill="black"/>
<path d="M1383.55 1116.94C1387.79 1140.42 1391.5 1164.03 1395.13 1187.61C1398.83 1211.68 1402.51 1235.67 1404.27 1259.98C1407.35 1302.55 1405.69 1345.74 1394.49 1387.09C1384.89 1422.53 1369.21 1456.82 1345.13 1484.82C1333.15 1498.75 1319.37 1510.72 1303.99 1520.75C1288.87 1530.61 1272.3 1540.82 1263.61 1557.32C1248.57 1585.87 1265.26 1632.77 1300.72 1634.53C1302.9 1634.64 1303.96 1631.22 1301.88 1630.27C1288.69 1624.27 1277.4 1613.49 1272.31 1599.79C1267.1 1585.76 1268.14 1570.04 1277.73 1558.15C1288.99 1544.18 1306.52 1536.56 1320.79 1526.21C1335.42 1515.61 1348.55 1503.15 1359.86 1489.06C1409.32 1427.47 1422.99 1346.66 1416.99 1269.63C1414.99 1244.07 1411.21 1218.63 1406.44 1193.45C1401.48 1167.26 1394.13 1141.68 1387.57 1115.86C1386.89 1113.23 1383.09 1114.36 1383.56 1116.96L1383.55 1116.94Z" fill="black"/>
<path d="M1216.01 1559.23C1213.61 1564.86 1211.42 1570.83 1211.64 1577.03C1211.85 1582.96 1213.09 1588.88 1215.15 1594.43C1219.52 1606.24 1227.03 1616.64 1236.13 1625.27C1245.38 1634.03 1256.93 1642.42 1269.77 1644.56C1282.03 1646.59 1294.71 1644.2 1303.55 1634.95C1305.84 1632.55 1302.94 1628.79 1300.03 1630.38C1280.26 1641.17 1258.01 1630.38 1243.33 1616.17C1236.04 1609.11 1229.82 1600.67 1225.78 1591.33C1221.98 1582.58 1220.03 1571.32 1222.58 1562C1223.62 1558.2 1217.65 1555.38 1216.01 1559.22V1559.23Z" fill="black"/>
<path d="M1387.35 1437.73C1391.76 1452.82 1397.18 1467.69 1400.48 1483.07C1403.82 1498.68 1405.6 1514.38 1405.2 1530.36C1404.8 1546.23 1402.73 1562.06 1398.55 1577.38C1394.71 1591.51 1389.77 1607.09 1378.93 1617.51C1368.61 1627.42 1349.43 1631.09 1339.51 1618.74C1338.26 1617.18 1336.13 1619.16 1336.91 1620.75C1342.8 1632.92 1358.4 1637.99 1370.99 1634.51C1387.04 1630.07 1397.43 1614.68 1403.76 1600.26C1418.73 1566.16 1422.01 1527.98 1415.47 1491.49C1411.85 1471.23 1405.02 1451.15 1391.97 1435.05C1390.18 1432.84 1386.61 1435.23 1387.35 1437.74V1437.73Z" fill="black"/>
<path d="M1340.59 1621.43C1353.45 1650.77 1392.35 1653.98 1418.79 1643.48C1432.5 1638.05 1445.02 1629.25 1454.31 1617.74C1465.41 1603.96 1469.73 1588 1472.79 1570.88H1462.14C1465.32 1581.72 1461.12 1592.89 1461.53 1603.92C1461.88 1613.38 1464.52 1623.05 1470.14 1630.77C1480.19 1644.58 1500.05 1651.08 1513.69 1638.49C1515.37 1636.94 1513.61 1633.5 1511.33 1634.45C1496.89 1640.42 1480.5 1632.39 1474.89 1618.26C1468.28 1601.62 1477.39 1584.7 1472.8 1567.94C1471.43 1562.92 1463.26 1562.45 1462.15 1567.94C1459.27 1582.29 1455.62 1595.97 1446.51 1607.71C1438.71 1617.77 1428.64 1625.85 1417.01 1631.06C1394.47 1641.16 1362.39 1639.22 1346.59 1617.96C1343.92 1614.36 1338.82 1617.35 1340.61 1621.45L1340.59 1621.43Z" fill="black"/>
<path d="M1550.61 1575.75C1540.98 1586.87 1537.44 1601.22 1536.8 1615.69C1536.49 1622.97 1537.08 1630.24 1538.54 1637.38C1539.26 1640.92 1540.17 1644.43 1541.36 1647.84C1542.64 1651.51 1544.84 1654.09 1547.5 1656.83C1549.13 1658.51 1552.51 1657.31 1552.34 1654.82C1552.11 1651.51 1552.03 1648.38 1551.13 1645.15C1550.21 1641.87 1549.23 1638.63 1548.57 1635.28C1547.34 1629.05 1546.78 1622.67 1546.87 1616.33C1547.03 1603.17 1550.59 1590.31 1553.84 1577.64C1554.29 1575.87 1551.92 1574.23 1550.61 1575.76V1575.75Z" fill="black"/>
<path d="M1515.7 1634.14C1515.02 1626.27 1514.36 1618.4 1513.84 1610.52C1511.92 1610.78 1510 1611.04 1508.08 1611.29C1509.85 1622.21 1512.65 1634.03 1521 1641.92C1524.69 1645.42 1529.47 1648.19 1534.51 1649.18C1537.16 1649.69 1539.88 1649.58 1542.53 1649.03C1545.09 1648.5 1547.1 1647.13 1548.96 1645.32C1550.76 1643.56 1548.9 1640.54 1546.53 1641.16C1539.02 1643.12 1530.81 1641.01 1525.33 1635.38C1518.74 1628.59 1516.42 1618.5 1513.75 1609.73C1512.64 1606.09 1507.32 1607.6 1508.09 1611.29C1509.69 1619.03 1511.14 1626.8 1512.59 1634.56C1512.92 1636.31 1515.87 1635.93 1515.72 1634.14H1515.7Z" fill="black"/>
<path d="M1363.38 1471.97C1371.59 1498.91 1380.56 1526.54 1383.26 1554.69C1385.74 1580.56 1382.14 1607.89 1371.99 1631.9C1371.13 1633.94 1373.65 1635.49 1374.97 1633.65C1409.64 1585.47 1386.46 1520.28 1367.24 1470.89C1366.33 1468.54 1362.6 1469.43 1363.38 1471.97Z" fill="black"/>
<path d="M816.687 1681.68C813.841 1686.53 814.639 1692.75 814.954 1698.19C815.311 1704.33 815.868 1710.46 816.635 1716.56C817.391 1722.51 818.526 1728.43 819.786 1734.29C821.015 1740.06 821.813 1746.75 825.637 1751.43C827.59 1753.83 832.391 1752.62 832.874 1749.52C833.777 1743.69 831.424 1737.75 830.206 1732.08C828.987 1726.46 828.053 1720.8 827.044 1715.15C826.036 1709.51 825.143 1703.87 824.481 1698.18C823.841 1692.74 824.061 1686.3 820.889 1681.67C819.881 1680.2 817.675 1680.02 816.709 1681.67L816.687 1681.68Z" fill="black"/>
<path d="M1246.98 585.097C1254.32 614.154 1259.1 643.769 1260.46 673.72C1261.12 688.317 1260.85 702.945 1259.64 717.511C1258.4 732.371 1255.64 747.01 1254.5 761.838C1254.26 765.054 1258.83 765.253 1259.81 762.553C1264.92 748.386 1266.63 733.548 1267.84 718.53C1269.08 703.292 1269.29 687.97 1268.49 672.711C1266.88 642.497 1260.6 612.557 1249.4 584.445C1248.82 582.995 1246.6 583.51 1246.99 585.107L1246.98 585.097Z" fill="black"/>
<path d="M659.981 1067.4C656.935 1078.48 656.158 1089.64 655.013 1101.05C653.847 1112.7 652.849 1124.38 651.641 1136.03C649.226 1159.32 646.694 1182.59 643.732 1205.81C643.49 1207.71 645.035 1210.34 646.768 1211.11C672.082 1222.22 699.539 1227.67 726.701 1232.09C754.074 1236.53 781.772 1240.44 809.471 1242.08C814.702 1242.39 815.742 1234.22 810.7 1232.97C758.717 1220.08 702.711 1222.6 652.965 1200.52C653.973 1202.28 654.992 1204.05 656 1205.81C659.047 1182.6 661.757 1159.36 663.742 1136.03C665.653 1113.53 669.162 1089.84 665.874 1067.4C665.422 1064.3 660.738 1064.71 660.002 1067.4H659.981Z" fill="black"/>
<path d="M832.116 1066.84C829.837 1073.44 831.171 1081.02 831.738 1087.86C832.347 1095.11 832.915 1102.37 833.65 1109.61C835.089 1123.7 837.19 1138.6 842.715 1151.73C845.761 1158.97 851.391 1161.28 858.407 1163.81C866.873 1166.87 875.413 1169.73 884.026 1172.37C891.977 1174.82 899.981 1177.08 908.027 1179.17C915.863 1181.21 924.833 1184.07 932.942 1182.69C936.744 1182.05 936.471 1177.04 933.919 1175.23C927.911 1170.97 919.308 1169.56 912.302 1167.59C904.96 1165.54 897.66 1163.34 890.402 1160.98C882.818 1158.52 875.276 1155.91 867.808 1153.12C864.657 1151.95 861.033 1151.01 858.092 1149.4C855.141 1147.78 854.615 1145.42 853.597 1142.34C849.521 1130.04 847.546 1117.06 845.435 1104.32C844.353 1097.76 843.387 1091.19 842.368 1084.62C841.402 1078.37 840.666 1071.39 836.791 1066.22C835.457 1064.45 832.873 1064.62 832.116 1066.83V1066.84Z" fill="black"/>
<path d="M794.545 1068.51C796.636 1068.57 798.715 1068.73 800.795 1068.83C802.885 1068.91 805.007 1068.63 807.108 1068.54C811.341 1068.38 815.595 1068.15 819.838 1068.2C824.092 1068.25 828.336 1068.59 832.579 1068.8C836.287 1068.99 841.896 1070.04 844.732 1066.97C845.457 1066.19 845.961 1064.93 845.552 1063.87C843.85 1059.42 838.251 1058.49 834.071 1057.78C829.334 1056.98 824.639 1056.76 819.849 1056.85C815.101 1056.94 810.395 1057.31 805.721 1058.21C803.558 1058.63 801.289 1058.99 799.261 1059.86C797.14 1060.78 795.07 1061.79 793.022 1062.85C790.239 1064.29 791.678 1068.45 794.556 1068.52L794.545 1068.51Z" fill="black"/>
<path d="M784.357 1066.85C784.536 1081.51 786.763 1096.23 788.496 1110.78C790.229 1125.34 792.508 1139.83 794.798 1154.3C797.046 1168.51 799.294 1182.74 802.256 1196.82C805.186 1210.76 807.224 1226.36 815.039 1238.55C815.974 1240 818.747 1240.02 819.083 1238.02C821.373 1224.31 817.875 1210.01 815.774 1196.44C813.516 1181.84 810.942 1167.31 808.621 1152.72C806.352 1138.5 804.409 1124.24 802.256 1110.01C800.008 1095.15 798.548 1080.05 795.376 1065.37C794.031 1059.15 784.294 1060.6 784.368 1066.86L784.357 1066.85Z" fill="black"/>
<path d="M661.611 1067.79C662.693 1071.89 667.052 1072.51 670.728 1072.73C676.421 1073.07 682.167 1073.03 687.86 1073.09C699.414 1073.23 710.957 1073.64 722.491 1074.16C733.646 1074.65 744.79 1075.21 755.945 1075.68C767.552 1076.16 778.969 1077.03 790.492 1075.44C795.586 1074.73 795.303 1066.38 790.492 1065.42C779.106 1063.16 767.531 1063.2 755.945 1062.64C744.097 1062.06 732.259 1061.51 720.4 1061.15C708.846 1060.78 697.282 1060.54 685.727 1060.58C681.316 1060.59 659.237 1058.89 661.6 1067.8L661.611 1067.79Z" fill="black"/>
<path d="M837.38 1074C840.342 1077.1 845.394 1075.58 849.049 1074.87C852.883 1074.14 856.728 1073.43 860.593 1072.85C864.406 1072.28 868.492 1071.9 872.567 1071.13C874.458 1070.77 876.128 1069.78 877.977 1069.36C879.857 1068.93 881.895 1068.88 883.817 1068.78C887.43 1068.57 888.732 1062.78 884.72 1062.06C882.693 1061.7 880.666 1061.43 878.617 1061.2C876.538 1060.97 874.615 1060.28 872.525 1060.04C867.946 1059.52 863.061 1060.61 858.566 1061.43C854.69 1062.14 850.845 1062.96 847.012 1063.85C842.989 1064.77 837.863 1065.5 836.298 1069.9C835.794 1071.32 836.392 1072.97 837.38 1074.01V1074Z" fill="black"/>
<path d="M1048.75 1297.55C1039.38 1325.53 1031.46 1353.85 1022.72 1382.03C1018.41 1395.92 1013.98 1409.78 1009.48 1423.61C1005.09 1437.15 999.38 1451.16 997.972 1465.38C997.615 1468.94 1002.35 1469.32 1004.03 1467.02C1012.47 1455.47 1017.22 1440.44 1022.1 1427.09C1027.11 1413.41 1031.7 1399.62 1035.96 1385.68C1044.64 1357.26 1051.97 1329.01 1056.09 1299.56C1056.75 1294.81 1050.35 1292.77 1048.75 1297.54V1297.55Z" fill="black"/>
<path d="M1002.16 1461.73C999.685 1462.42 997.636 1464.91 996.407 1467.12C995.241 1469.21 994.643 1471.85 994.286 1474.2C993.508 1479.25 993.834 1484.24 995.504 1489.08C997.08 1493.67 999.58 1498.56 1003.19 1501.9C1005.18 1503.72 1007.63 1505.52 1010.24 1506.29C1010.67 1506.41 1011.12 1506.53 1011.56 1506.61C1013.15 1506.92 1013.92 1506.5 1015.34 1506.06C1014.61 1506.29 1015.39 1506.14 1015.69 1506.06C1016.24 1505.91 1016.73 1505.69 1017.19 1505.36C1017.89 1504.88 1018.28 1504.1 1018.06 1503.25C1017.81 1502.33 1017.3 1501.56 1016.91 1500.7L1017.43 1502.62C1017.47 1500.1 1015.57 1498.18 1013.83 1496.57C1012.56 1495.39 1011.48 1494.05 1010.35 1492.74C1010.06 1492.41 1009.45 1491.64 1010.05 1492.44C1009.77 1492.06 1009.5 1491.67 1009.22 1491.28C1008.69 1490.49 1008.2 1489.67 1007.75 1488.84C1007.53 1488.42 1007.31 1488 1007.11 1487.57C1007.05 1487.43 1006.52 1486.23 1006.82 1486.94C1007.1 1487.62 1006.55 1486.22 1006.5 1486.07C1006.34 1485.62 1006.2 1485.16 1006.06 1484.7C1005.81 1483.86 1005.6 1483.02 1005.42 1482.16C1005.33 1481.7 1005.26 1481.22 1005.17 1480.75C1005.56 1482.7 1004.88 1478.52 1004.98 1479.34C1005.1 1480.36 1005 1479.45 1004.96 1478.95C1004.92 1478.48 1004.88 1478.01 1004.87 1477.54C1004.84 1476.67 1004.86 1475.81 1004.92 1474.95C1004.94 1474.56 1004.98 1474.17 1005.02 1473.78C1004.89 1474.96 1005.06 1473.57 1005.11 1473.32C1005.29 1472.4 1005.57 1471.49 1005.73 1470.57C1005.92 1469.18 1005.98 1468.81 1005.88 1469.44C1005.83 1469.79 1005.85 1469.7 1005.93 1469.17C1006.03 1468.71 1006.11 1468.26 1006.22 1467.8C1006.53 1466.5 1006.58 1465.47 1006.34 1464.13C1006.04 1462.32 1003.8 1461.3 1002.17 1461.76L1002.16 1461.73Z" fill="black"/>
<path d="M1018.57 1482.61C1016.81 1485.67 1015.04 1488.7 1014.36 1492.2C1013.69 1495.59 1012.92 1498.98 1012.35 1502.4C1011.3 1508.72 1011.24 1515.74 1015.8 1520.78C1020.68 1526.17 1028.61 1525.92 1034.5 1522.47C1039.88 1519.33 1044.42 1513.89 1047.24 1508.37C1048.87 1505.16 1050.23 1501.75 1051.26 1498.3C1052.24 1495.02 1053.03 1490.84 1051.92 1487.52C1051.33 1485.76 1049.03 1484.92 1047.64 1486.38C1045.88 1488.25 1044.77 1490.67 1043.56 1492.94C1042.33 1495.25 1041.2 1497.57 1039.76 1499.76C1039.08 1500.78 1038.38 1501.78 1037.66 1502.76C1037.27 1503.28 1036.9 1503.83 1036.51 1504.36C1036.35 1504.6 1036.19 1504.83 1036.02 1505.05C1035.92 1505.17 1035.19 1506.15 1035.72 1505.46C1034.25 1507.34 1032.67 1509.06 1030.85 1510.62C1030.18 1511.2 1031.58 1510.18 1030.83 1510.62C1030.61 1510.74 1030.41 1510.91 1030.2 1511.05C1029.7 1511.37 1029.2 1511.68 1028.68 1511.95C1028.45 1512.07 1027.17 1512.61 1027.82 1512.38C1028.57 1512.12 1027.59 1512.44 1027.41 1512.5C1027.11 1512.59 1026.82 1512.69 1026.51 1512.77C1026.22 1512.86 1025.9 1512.9 1025.61 1512.98C1024.88 1513.17 1026.12 1512.88 1026.09 1512.91C1025.91 1513.15 1024.15 1512.63 1025.12 1512.94C1026.29 1513.32 1023.87 1512.51 1024.95 1512.88C1025.73 1513.16 1024.83 1512.74 1024.64 1512.68C1024 1512.44 1025.18 1513.28 1024.74 1512.78C1024.59 1512.63 1024.41 1512.47 1024.25 1512.32C1023.51 1511.6 1024.27 1512.3 1024.38 1512.49C1024.18 1512.1 1023.95 1511.73 1023.75 1511.34C1024.4 1512.6 1023.8 1511.27 1023.71 1510.86C1023.65 1510.64 1023.61 1510.42 1023.56 1510.19C1023.24 1508.79 1023.56 1510.96 1023.56 1510.14C1023.54 1507.89 1023.61 1505.72 1023.82 1503.47C1024.14 1500.17 1024.43 1496.88 1024.75 1493.58C1025.07 1490.04 1024.23 1486.65 1023.4 1483.23C1022.87 1481.01 1019.7 1480.69 1018.59 1482.6L1018.57 1482.61Z" fill="black"/>
<path d="M1028.62 1518.36C1031.51 1522.81 1036.92 1523.37 1041.78 1522.97C1046.44 1522.58 1050.93 1521.37 1055.09 1519.24C1058.82 1517.32 1062.21 1514.24 1064.8 1510.98C1066.41 1508.92 1067.5 1506.87 1068.42 1504.42C1069.28 1502.16 1069.41 1500.15 1068.85 1497.79C1068.3 1495.41 1065.41 1495.02 1063.77 1496.44C1063.14 1496.99 1062.45 1497.49 1061.89 1498.09C1061.34 1498.68 1060.46 1500.09 1060.26 1500.34C1059.63 1501.15 1058.08 1502.78 1057.04 1503.87C1056.41 1504.52 1055.75 1505.15 1055.06 1505.74C1054.95 1505.83 1053.99 1506.63 1054.55 1506.18C1055.08 1505.75 1053.96 1506.61 1053.83 1506.7C1052.38 1507.71 1050.85 1508.52 1049.29 1509.33C1048.88 1509.54 1048.48 1509.75 1048.07 1509.95C1047.94 1510.01 1046.76 1510.53 1047.51 1510.22C1048.23 1509.91 1046.86 1510.46 1046.7 1510.51C1046.34 1510.64 1045.98 1510.76 1045.62 1510.88C1044.74 1511.15 1043.87 1511.4 1042.98 1511.58C1042.54 1511.68 1042.09 1511.75 1041.65 1511.84C1040.46 1512.07 1042.64 1511.79 1041.33 1511.88C1039.65 1511.98 1038.03 1512 1036.35 1511.88C1034.12 1511.73 1032 1512.28 1029.98 1513.14C1028.15 1513.93 1027.59 1516.79 1028.61 1518.35L1028.62 1518.36Z" fill="black"/>
<path d="M1044.98 1517.04C1052.2 1528.08 1071.13 1524.87 1080.29 1518.32C1093.91 1508.59 1095.57 1488.84 1099.54 1473.86C1108.63 1439.55 1117.99 1405.3 1126.54 1370.84C1129 1360.95 1131.37 1351.06 1133.32 1341.05C1134.28 1336.17 1135.08 1331.29 1135.63 1326.34C1136.25 1320.75 1135.91 1315.1 1136.47 1309.52C1136.65 1307.72 1134.01 1307.57 1133.48 1309.11C1131.62 1314.56 1128.89 1319.72 1126.96 1325.15C1125.09 1330.42 1123.65 1335.79 1122.17 1341.18C1119.48 1350.96 1117.18 1360.83 1114.71 1370.67C1109.89 1389.91 1104.83 1409.08 1099.71 1428.24C1094.35 1448.28 1088.98 1468.31 1083.58 1488.34C1081.35 1496.59 1079.35 1505.63 1071.09 1509.81C1067.72 1511.51 1063.74 1512.43 1059.94 1512.27C1056.11 1512.11 1052.7 1510.42 1048.85 1510.25C1045.52 1510.1 1043.14 1514.22 1044.97 1517.02L1044.98 1517.04Z" fill="black"/>
<path d="M1049.98 1172.02C1053.93 1166.28 1058.05 1160.66 1061.58 1154.65C1065.3 1148.3 1068.37 1141.59 1071.57 1134.97C1074.67 1128.56 1077.78 1122.15 1081.02 1115.8C1084.23 1109.51 1087.98 1103.17 1088.32 1095.94C1088.44 1093.17 1085.02 1091.2 1082.7 1092.72C1076.79 1096.56 1073.64 1102.85 1070.62 1108.99C1067.37 1115.58 1064.27 1122.25 1061.18 1128.9C1058.14 1135.44 1054.91 1141.93 1052.18 1148.62C1049.47 1155.29 1047.16 1162.07 1044.12 1168.59C1042.27 1172.54 1047.48 1175.64 1049.97 1172.02H1049.98Z" fill="black"/>
<path d="M1010.31 1069.42C1012.49 1071.91 1015.43 1073.09 1018.33 1074.52C1021.66 1076.16 1025.07 1077.5 1028.49 1078.93C1034.9 1081.6 1041.09 1084.69 1047.33 1087.7C1053.27 1090.58 1059.17 1093.53 1065 1096.65C1070.01 1099.31 1077.2 1103.88 1083.12 1101.89C1084.68 1101.36 1085.5 1099.92 1085.15 1098.32C1083.87 1092.29 1076.28 1088.41 1071.38 1085.73C1065.24 1082.36 1059.04 1079.01 1052.69 1076.06C1046.21 1073.05 1039.57 1070.36 1032.86 1067.89C1026.64 1065.59 1018.35 1062.23 1011.68 1064.21C1009.33 1064.92 1008.77 1067.66 1010.3 1069.42H1010.31Z" fill="black"/>
<path d="M1072.96 1087.62C1076.92 1091.69 1082.66 1094.47 1087.2 1097.94C1093.09 1102.44 1098.88 1107.11 1104.41 1112.05C1109.21 1116.34 1113.87 1120.81 1118.25 1125.52C1119.56 1126.94 1121.57 1129.15 1122.37 1130.21C1122.14 1129.9 1122.96 1131.28 1123.17 1131.37C1123.08 1131.34 1123.59 1132.05 1123.57 1132.06C1122.97 1132.18 1123.04 1127.76 1123.1 1128.24C1123.17 1128.71 1122.32 1129.23 1123.02 1128.55C1123.68 1127.91 1122.76 1129.08 1122.5 1129.54C1121.62 1131.15 1120.76 1132.77 1119.84 1134.36C1117.25 1138.83 1114.53 1143.22 1111.8 1147.59C1104.33 1159.57 1096.43 1171.3 1089.18 1183.41C1085.2 1190.05 1081.1 1196.65 1077.3 1203.41C1074.15 1209 1072.02 1214.71 1069.62 1220.6C1068.53 1223.27 1072.67 1225.58 1074.47 1223.43C1078.42 1218.71 1082.58 1214.37 1086.2 1209.31C1090.46 1203.39 1094.53 1197.32 1098.69 1191.33C1107.35 1178.87 1115.51 1166.03 1123.61 1153.19C1126.55 1148.53 1129.5 1143.86 1132.23 1139.07C1133.81 1136.3 1135.97 1133.07 1136.04 1129.78C1136.14 1125.68 1132.72 1122.25 1130.18 1119.42C1126 1114.76 1121.39 1110.46 1116.72 1106.31C1109.94 1100.3 1102.87 1094.26 1095.12 1089.54C1089.27 1085.98 1081.49 1081.11 1074.37 1082.29C1071.91 1082.7 1071.44 1086.04 1072.96 1087.61V1087.62Z" fill="black"/>
<path d="M1127.86 1136.12C1128.28 1142.19 1132.36 1148.6 1135 1153.98C1138.25 1160.58 1141.31 1167.25 1143.97 1174.1C1149.69 1188.75 1154.54 1203.84 1158.65 1219.01C1162.81 1234.4 1165.82 1249.97 1168.88 1265.6C1171.64 1279.71 1173.5 1293.68 1177.41 1307.51C1178.17 1310.23 1182.97 1310.71 1183.42 1307.51C1184.42 1300.21 1185.17 1293.46 1184.5 1286.07C1183.83 1278.6 1182.9 1271.15 1181.87 1263.71C1179.62 1247.44 1175.82 1231.29 1171.5 1215.46C1167.2 1199.68 1162 1184.25 1155.36 1169.28C1152.39 1162.57 1149.15 1155.96 1145.58 1149.54C1142.58 1144.13 1138.18 1136.29 1132.43 1133.48C1130.52 1132.54 1127.68 1133.64 1127.85 1136.11L1127.86 1136.12Z" fill="black"/>
<path d="M1056.6 1295.46C1065.61 1300.52 1075.87 1302.44 1085.84 1304.84C1096.59 1307.43 1107.42 1309.45 1118.31 1311.29C1128.72 1313.05 1139.17 1314.82 1149.68 1315.93C1160.14 1317.03 1171.15 1318.44 1181.48 1316.12C1185.34 1315.25 1184.42 1310.42 1181.48 1309.17C1171.84 1305.1 1160.7 1304.29 1150.37 1302.82C1140.12 1301.36 1129.84 1300.16 1119.6 1298.59C1109.36 1297.01 1099.14 1295.27 1088.91 1293.64C1078.72 1292.01 1068.44 1289.35 1058.09 1289.9C1055.26 1290.04 1053.9 1293.93 1056.59 1295.45L1056.6 1295.46Z" fill="black"/>
<path d="M1069.01 1200.07C1066.48 1211.79 1064.91 1223.75 1063.05 1235.62C1062.13 1241.54 1060.72 1247.46 1060.01 1253.42C1059.37 1258.75 1058.36 1264.98 1060.89 1269.96C1061.54 1271.23 1063.09 1271.11 1064.04 1270.37C1068.42 1266.93 1070.22 1260.17 1071.42 1254.97C1072.76 1249.22 1073.44 1243.2 1074.27 1237.36C1075.97 1225.38 1077.05 1213.14 1076.2 1201.05C1075.93 1197.15 1069.92 1195.8 1069 1200.08L1069.01 1200.07Z" fill="black"/>
<path d="M1197.02 1132.74C1206.2 1170.61 1211.09 1209.75 1211.41 1248.72C1211.56 1267.62 1210.78 1286.57 1208.89 1305.37C1207 1324.15 1204.59 1343.77 1196.54 1361.05C1196.2 1361.78 1197.14 1362.35 1197.61 1361.68C1208.09 1346.82 1211.16 1329.34 1213.38 1311.63C1215.93 1291.46 1217.19 1271.15 1216.9 1250.82C1216.32 1210.53 1210.38 1170.85 1199.29 1132.12C1198.87 1130.66 1196.66 1131.27 1197.02 1132.75V1132.74Z" fill="black"/>
<path d="M1190.3 1316.62C1190.97 1323.96 1189.91 1331.09 1188.51 1338.28C1188.25 1339.61 1190.01 1340.06 1190.52 1338.84C1191.25 1337.05 1191.94 1335.26 1192.28 1333.36C1192.62 1331.55 1192.87 1329.73 1193.04 1327.9C1193.38 1324.15 1193.33 1320.36 1192.93 1316.62C1192.75 1314.96 1190.15 1314.93 1190.31 1316.62H1190.3Z" fill="black"/>
<path d="M717.205 1237.71C713.592 1265.18 712.269 1292.62 713.193 1320.31C713.645 1333.92 714.611 1347.48 716.144 1361C717.657 1374.32 718.854 1388.09 723.403 1400.76C724.012 1402.45 726.69 1402.29 726.669 1400.31C726.512 1386.79 723.655 1373.37 722.195 1359.94C720.724 1346.41 719.632 1332.84 718.98 1319.25C717.689 1292.15 718.119 1264.79 719.968 1237.72C720.094 1235.9 717.426 1236.01 717.195 1237.72L717.205 1237.71Z" fill="black"/>
<path d="M732.28 1327.58C731.177 1343.64 731.083 1360.34 734.832 1376.08C735.095 1377.21 736.944 1376.98 736.87 1375.81C735.872 1359.69 734.286 1343.76 735.053 1327.58C735.137 1325.8 732.406 1325.82 732.28 1327.58Z" fill="black"/>
<path d="M636.496 1181.24C636.601 1182.38 636.57 1183.66 636.864 1184.76C637.105 1185.68 637.557 1186.57 637.893 1187.44C638.618 1189.29 639.343 1191.14 640.067 1192.99C640.866 1195.02 641.695 1196.96 642.704 1198.89C643.702 1200.78 645.34 1202.03 647.136 1203.12C647.756 1203.5 648.701 1203.15 648.87 1202.42C649.321 1200.36 649.584 1198.31 648.901 1196.27C648.218 1194.21 647.388 1192.26 646.485 1190.28C645.655 1188.47 644.826 1186.68 643.996 1184.87C643.607 1184.02 643.271 1183.06 642.777 1182.26C642.179 1181.3 641.265 1180.43 640.519 1179.57C639.238 1178.09 636.318 1179.23 636.507 1181.23L636.496 1181.24Z" fill="black"/>
</g>
<defs>
<clipPath id="clip0_157_131">
<rect width="1343" height="1851" fill="white" transform="translate(279 74)"/>
</clipPath>
</defs>
</svg>
