<svg width="2000" height="2000" viewBox="0 0 2000 2000" fill="none" xmlns="http://www.w3.org/2000/svg">
<g clip-path="url(#clip0_157_132)">
<path d="M1253.03 1385.38C1250.63 1380.4 1246.42 1377.77 1241.64 1376.89H1242.57C1241.59 1376.75 1240.66 1376.67 1239.78 1376.63C1237.75 1376.44 1235.65 1376.54 1233.59 1376.89H1234.66C1230.94 1377.41 1227.67 1378.56 1223.7 1379.36C1216.16 1380.9 1208.65 1382.71 1201.13 1384.35C1185.44 1387.79 1169.71 1391.04 1153.88 1393.77C1123.36 1399.04 1092.63 1401.95 1061.64 1401.17C1030.35 1400.38 999.173 1396.81 968.07 1393.5C952.788 1391.88 937.541 1390.03 922.267 1388.3C911.271 1387.06 899.24 1384.74 887.661 1384.63C886.748 1381.84 885.435 1379.07 883.375 1375.95C879.95 1370.74 872.344 1370.4 868.989 1375.95C864.034 1384.14 863.651 1389.66 862.86 1399.21C862.469 1403.86 865.729 1408.81 869.641 1411.03C883.454 1418.9 902.108 1420.1 917.625 1422.55C932.794 1424.94 948.033 1426.98 963.254 1429.03C978.615 1431.1 994.01 1433.14 1009.43 1434.89C1019.42 1447.58 1036.62 1450.09 1052.13 1450.03C1069.1 1449.97 1092.09 1450.09 1105.64 1438.65C1123.35 1437.54 1141 1435.43 1158.59 1432.48C1174.42 1429.82 1190.16 1426.6 1205.84 1423.15C1220.91 1419.85 1238.07 1418.42 1250.11 1408.02C1256.71 1402.31 1256.47 1392.5 1253.03 1385.37V1385.38Z" fill="#6B3434"/>
<path d="M1019.28 1407.32C1015.65 1412.43 1014.6 1418.52 1011.74 1423.95C1008.41 1430.26 1002.17 1427.92 995.515 1427.33C979.807 1425.91 964.195 1422.87 948.739 1419.79C933.761 1416.82 918.835 1413.48 903.927 1410.18C897.086 1408.67 889.584 1407.46 883.881 1403.09C877.274 1398.02 877.005 1392.68 876.57 1385.06C876.397 1381.94 872.763 1380.32 870.407 1382.51C860.019 1392.21 869.92 1408.77 879.404 1414.91C887.323 1420.03 896.755 1421.86 905.848 1423.68C917.792 1426.07 929.762 1428.37 941.697 1430.83C962.517 1435.12 983.128 1441.03 1004.46 1442.32C1011.81 1442.76 1018.16 1441.6 1022.6 1435.26C1027.29 1428.58 1029.87 1418.29 1030.3 1410.28C1030.65 1403.92 1022.39 1402.91 1019.26 1407.29L1019.28 1407.32Z" fill="#5B2E2E"/>
<path d="M1256.76 1374.58C1255.43 1367.13 1243.93 1369.11 1243.85 1376.32C1243.79 1381.72 1243.77 1387.19 1243.37 1392.56C1242.78 1400.27 1239.3 1403.19 1232 1405.04C1221.22 1407.77 1210.31 1409.98 1199.36 1411.87C1188.9 1413.68 1178.41 1415.36 1167.9 1416.9C1166.86 1417.05 1159.77 1418.9 1158.48 1418.27C1159.16 1418.31 1159.29 1413.01 1159.29 1412.99C1159.08 1408.62 1157.43 1404.5 1155.64 1400.59C1153.91 1396.82 1147.95 1398.02 1147.01 1401.72C1144.55 1411.34 1143.16 1429.78 1156.23 1431.97C1163.46 1433.19 1171.93 1430.77 1179.12 1429.84C1187.22 1428.79 1195.3 1427.7 1203.35 1426.3C1211.9 1424.81 1220.4 1423.11 1228.84 1421.13C1235.58 1419.55 1243.59 1418.49 1249.33 1414.26C1261 1405.66 1258.97 1386.9 1256.76 1374.57V1374.58Z" fill="#5B2E2E"/>
<path d="M1046.64 1901.93C1027.57 1869.95 990.317 1846.37 952.294 1849.13C915.036 1851.83 869.633 1881.63 873.797 1923.41C871.12 1932.61 872.815 1941.77 883.716 1947.75C893.069 1952.9 905.265 1950.38 915.401 1949.8C927.597 1949.09 939.794 1948.36 951.99 1947.7C976.382 1946.36 1000.77 1945.14 1025.17 1943.85C1035.58 1943.3 1045.86 1943 1051.78 1932.9C1057.69 1922.8 1051.98 1910.86 1046.65 1901.94L1046.64 1901.93Z" fill="#414042"/>
<path d="M1268.37 1902.48C1238.45 1858.78 1174.85 1824.37 1125.12 1858.47C1101.72 1874.51 1087.21 1901.16 1091.28 1929.68C1092.4 1937.52 1101.27 1938.31 1106.65 1934.55C1109.74 1938.03 1114.08 1939.93 1119.23 1940.48C1149.87 1943.72 1180.79 1946.96 1211.61 1944.61C1226.56 1943.47 1242.61 1941.8 1256.87 1936.91C1272.63 1931.5 1277.81 1916.26 1268.37 1902.48H1268.37Z" fill="#414042"/>
<path d="M1039.16 1897.41C1037.8 1890.07 1035.59 1883.12 1033.76 1878.18C1031.3 1871.52 1024.66 1870.05 1019.81 1872.24C1018.23 1871.39 1016.54 1870.77 1014.72 1870.45C1012.93 1870.14 1011.34 1870.51 1010.13 1871.32C1008.26 1867.33 1005.98 1863.61 1003.28 1860.33C1001.12 1857.72 997.044 1859.99 996.957 1862.95C996.557 1877 1002.16 1891.02 999.348 1905.05C997.792 1912.82 994.175 1919.23 988.707 1923.6C976.981 1921.36 964.646 1923.2 952.71 1923.12C938.784 1923.01 924.71 1922.4 910.828 1921.7C907.629 1921.53 905.847 1923.63 905.482 1926.06C899.162 1925.35 892.886 1924.52 886.688 1923.54C876.613 1921.95 872.214 1937.31 882.419 1939.01C919.321 1945.92 957.7 1949.97 995.019 1943.49C1002.47 1942.2 1009.9 1940.34 1016.39 1937.03C1016.93 1937.91 1017.66 1938.65 1018.58 1939.19C1027.08 1944.23 1037.19 1940.79 1043.4 1933.89C1045.49 1932.48 1047.14 1930.42 1047.77 1928.08C1050.46 1918.12 1044.45 1906.71 1039.16 1897.41Z" fill="#323133"/>
<path d="M1201.18 1932.51C1192.13 1929.83 1183.27 1926.77 1174.59 1923.05C1166.85 1919.74 1158.63 1916.76 1152.85 1910.39C1141.76 1898.21 1137.89 1881.06 1136.5 1865.16C1135.91 1858.38 1127.55 1857.53 1125.06 1863.61C1123.24 1868.04 1122.09 1872.63 1121.54 1877.25C1118.73 1876.02 1115.33 1876.11 1112.81 1878.61C1105.4 1885.94 1099.46 1894.27 1095.63 1904C1092.49 1911.97 1089.29 1921.13 1092.87 1928.87C1092.87 1928.88 1092.87 1928.9 1092.87 1928.9C1093.58 1936.97 1104.07 1938.93 1107.21 1931.51C1107.24 1931.49 1107.27 1931.46 1107.3 1931.42C1111.16 1933.36 1115.78 1934.45 1120.29 1935.71C1124.13 1943 1134.96 1947.23 1141.38 1940.6C1160.45 1944.19 1179.55 1945.65 1199.3 1946.43C1207.44 1946.75 1208.72 1934.74 1201.19 1932.52L1201.18 1932.51Z" fill="#323133"/>
<path d="M1223.15 1166.78C1224.01 1211.57 1233.35 1255.96 1234.45 1300.87C1234.8 1315.35 1234.4 1329.78 1233.56 1344.2C1233.08 1352.36 1230.36 1361.07 1226.26 1367.26C1221.79 1373.99 1230.42 1381.48 1236.89 1377.89C1246.3 1372.66 1250.42 1362.49 1253.33 1352.61C1257.74 1337.66 1258.64 1322.6 1258.57 1307.04C1258.48 1286.28 1256.15 1265.44 1253.61 1244.87C1250.28 1218.02 1246.47 1190.5 1238.05 1164.75C1235.47 1156.87 1222.98 1157.9 1223.15 1166.77L1223.15 1166.78Z" fill="#262626"/>
<path d="M872.276 1197.28C865.556 1208.68 863.522 1223.32 861.158 1236.2C859.15 1247.19 857.255 1258.21 855.707 1269.28C853.386 1285.93 851.352 1302.98 851.969 1319.82C852.743 1341.02 857.733 1365.03 877.596 1376.37C881.899 1378.83 888.505 1374.67 886.567 1369.48C879.847 1351.45 874.188 1336.36 873.893 1316.36C873.649 1300.21 875.153 1284.17 876.831 1268.12C877.909 1257.79 879.195 1247.48 880.534 1237.18C882.16 1224.66 884.724 1211.11 882.403 1198.6C881.508 1193.75 874.536 1193.4 872.258 1197.27L872.276 1197.28Z" fill="#262626"/>
<path d="M849.891 716.687C856.245 694.058 873.544 674.731 895.111 665.424C905.986 660.731 918.321 658.281 930.161 659.402C935.759 659.932 941.505 660.792 946.799 662.73C953.014 664.998 957.935 668.57 964.576 669.656C975.077 671.377 982.779 661.957 978.059 652.128C970.765 636.964 948.138 629.899 932.482 628.439C915.566 626.857 898.736 630.663 883.384 637.633C852.655 651.581 829.697 679.632 826.437 713.515C825.125 727.176 846.344 729.305 849.882 716.687H849.891Z" fill="#262626"/>
<path d="M1153.45 678.398C1172.48 661.566 1200.22 655.248 1224.52 662.886C1234.91 666.154 1244.7 671.655 1252.3 679.519C1255.87 683.204 1259.1 687.262 1261.71 691.677C1264.63 696.622 1265.84 702.227 1270.36 706.085C1275.09 710.126 1283.08 710.222 1286.34 704.026C1293.6 690.26 1282.86 671.585 1273.67 661.174C1263.1 649.191 1248.37 640.518 1233.1 636.103C1198.2 626.014 1162.9 636.868 1140.36 665.32C1133.08 674.514 1144.34 686.463 1153.45 678.398Z" fill="#262626"/>
<path d="M925.632 673.402C895.355 673.445 870.858 702.618 870.91 738.552C870.962 774.494 895.546 803.589 925.823 803.546C956.101 803.502 980.597 774.329 980.545 738.395C980.493 702.453 955.909 673.358 925.632 673.402ZM884.61 738.126C871.884 738.143 871.875 718.408 884.584 718.391C897.311 718.373 897.311 738.109 884.61 738.126Z" fill="#262626"/>
<path d="M1203.15 676.434C1172.87 676.478 1148.38 705.651 1148.43 741.585C1148.48 777.527 1173.07 806.622 1203.34 806.578C1233.62 806.535 1258.12 777.362 1258.06 741.428C1258.01 705.486 1233.43 676.391 1203.15 676.434ZM1244.36 737.622C1231.63 737.639 1231.62 717.904 1244.33 717.886C1257.06 717.869 1257.06 737.604 1244.36 737.622Z" fill="#262626"/>
<path d="M1048.22 1137.62C1061.94 1123.99 1087.08 1128.45 1097.25 1144.43C1109.96 1164.43 1097.07 1192.82 1076.89 1201.98C1051.23 1213.62 1028.82 1183.71 1037.9 1159.81C1041.95 1149.15 1053.6 1140.71 1065.36 1143.66C1076.23 1146.39 1081.79 1158.59 1080.86 1168.81C1080.41 1173.82 1087.28 1174.74 1089.66 1171.19C1096.7 1160.66 1094.53 1146.57 1086.43 1137.3C1077.66 1127.27 1063.55 1124.19 1050.93 1127.65C1020.54 1136 1012.1 1173.39 1026.49 1198.78C1042.19 1226.5 1076.74 1229.19 1099.63 1208.39C1119.91 1189.97 1127.05 1155.79 1110.13 1132.91C1094 1111.09 1057.52 1107.39 1039.72 1129.11C1034.9 1134.99 1042.62 1143.19 1048.23 1137.62H1048.22Z" fill="#262626"/>
<path d="M973.686 1019.96C978.198 1029.72 985.274 1038.28 991.898 1046.67C1001.03 1058.23 1010.38 1069.68 1020.19 1080.67C1029.49 1091.06 1039.07 1101.24 1049.04 1110.99C1054.25 1116.1 1067.46 1130.77 1075.72 1127.56C1078.6 1126.44 1080.25 1124.41 1080.48 1121.31C1081.03 1113.74 1066.27 1103.52 1061.25 1098.78C1051.11 1089.19 1041.45 1079.13 1031.88 1068.99C1014.83 1050.94 999.017 1031.5 981.536 1013.9C977.32 1009.66 971.4 1015.01 973.686 1019.96Z" fill="#262626"/>
<path d="M904.986 1066.4C915.861 1091.49 935.168 1111.19 956.517 1127.72C967.314 1136.09 978.641 1143.58 990.428 1150.48C1002.16 1157.37 1013.36 1163.56 1027.1 1165.09C1031.56 1165.59 1033.02 1159.67 1030.5 1156.88C1022.48 1148 1012.14 1142.53 1001.89 1136.67C990.298 1130.05 978.867 1123 967.879 1115.42C946.947 1100.96 926.944 1083.33 915.2 1060.41C911.653 1053.49 902.022 1059.57 904.969 1066.39L904.986 1066.4Z" fill="#262626"/>
<path d="M1094.71 1129.24C1110.29 1113.03 1121.31 1092.33 1132.43 1072.99C1138.56 1062.32 1144.92 1051.79 1151.16 1041.19C1155.34 1034.09 1163.78 1024.71 1162.6 1016.04C1162.29 1013.8 1159.66 1012.27 1157.6 1012.23C1148.77 1012.09 1142.73 1023.25 1138.35 1029.58C1131.48 1039.53 1126.12 1050.55 1120.57 1061.27C1110.2 1081.31 1101.21 1103.82 1086.99 1121.53C1082.69 1126.87 1089.73 1134.43 1094.71 1129.24Z" fill="#262626"/>
<path d="M1110.36 1167.38C1132.05 1152.12 1152.83 1135.5 1173.54 1118.91C1193.09 1103.26 1218.73 1087.82 1231.95 1066.03C1234.07 1062.53 1230.49 1057.12 1226.31 1058.7C1202.79 1067.56 1183.09 1088.77 1164.08 1104.57C1143.3 1121.84 1122.43 1139.11 1103.07 1157.93C1098.3 1162.57 1104.65 1171.38 1110.37 1167.38H1110.36Z" fill="#262626"/>
<path d="M1033.15 1198.56C1023.53 1203.54 1017.64 1214.3 1012.69 1223.52C1007.32 1233.53 1002.76 1244.12 999.392 1254.97C992.881 1275.93 991.325 1298.38 994.654 1320.04C998.123 1342.6 1007.9 1363.59 1022.47 1381.12C1031.23 1391.66 1060.43 1406.54 1065.83 1384.41C1067.08 1379.29 1061.94 1376.08 1057.54 1378.04C1044.43 1383.9 1030.91 1357.43 1026.28 1348.43C1018.52 1333.33 1014.07 1316.76 1013.52 1299.79C1013 1283.36 1015.84 1267.18 1020.87 1251.56C1023.43 1243.63 1026.62 1235.96 1030.39 1228.54C1034.27 1220.9 1039.61 1213.1 1040.9 1204.5C1041.58 1199.99 1037.52 1196.28 1033.15 1198.55L1033.15 1198.56Z" fill="#262626"/>
<path d="M1065.2 1222.37C1072.58 1251.04 1076.01 1281.14 1073.31 1310.69C1072.09 1324.16 1069.66 1337.45 1065.02 1350.2C1060.52 1362.59 1051.73 1372.7 1047.24 1384.93C1044.75 1391.73 1053.52 1397.87 1059.35 1394.22C1071.52 1386.59 1077.96 1371.04 1082.79 1358.06C1087.88 1344.4 1090.66 1329.79 1091.77 1315.27C1094.28 1282.68 1087.37 1249.85 1077.16 1219.08C1074.66 1211.56 1063.2 1214.59 1065.2 1222.38L1065.2 1222.37Z" fill="#262626"/>
<path d="M1103.08 1212.52C1133.04 1224.93 1147.62 1260.69 1145.97 1291.31C1144.94 1310.51 1138.28 1329.14 1129.6 1346.15C1125.19 1354.8 1120.24 1363.16 1114.99 1371.31C1111.52 1376.71 1105.9 1389.03 1097.83 1384.05C1094.19 1381.81 1089.05 1384.69 1089.2 1389C1089.53 1398.61 1098.48 1404.44 1107.64 1402.99C1118.73 1401.25 1125.22 1391.24 1130.77 1382.51C1145.38 1359.56 1158.33 1334.3 1162.72 1307.18C1169.66 1264.34 1151.63 1214.3 1105.64 1203.25C1099.45 1201.76 1097.51 1210.22 1103.09 1212.53L1103.08 1212.52Z" fill="#262626"/>
<path d="M1077.82 1347.38C1081.57 1357.64 1085.3 1367.91 1089.05 1378.17C1091.86 1385.86 1095.02 1399.37 1102.51 1403.81C1105.7 1405.7 1109.4 1403.83 1110.53 1400.55C1113.28 1392.55 1106.81 1380.05 1104.07 1372.63C1100.44 1362.8 1096.8 1352.98 1093.18 1343.15C1089.67 1333.64 1074.31 1337.72 1077.83 1347.38L1077.82 1347.38Z" fill="#262626"/>
<path d="M940.132 500.511C936.672 523.184 933.464 545.9 930.474 568.642C927.475 591.471 921.92 616.151 923.389 639.171C923.798 645.506 933.082 647.357 934.838 640.718C940.445 619.523 940.375 596.129 942.835 574.351C945.504 550.775 948.538 527.251 951.902 503.761C952.997 496.096 941.314 492.733 940.123 500.511H940.132Z" fill="#262626"/>
<path d="M1227.64 1068.97C1266.34 1067.75 1294.92 1114.22 1311.61 1142.99C1324.14 1164.6 1334.74 1187.46 1343.73 1210.75C1352.11 1232.5 1357.23 1255.51 1365.78 1277.09C1368.3 1283.46 1377.9 1282.92 1378.14 1275.42C1378.96 1250.42 1368.77 1223.79 1359.93 1200.82C1350.05 1175.19 1337.95 1150.41 1323.24 1127.19C1304.09 1096.98 1268.48 1047.33 1226.19 1058.25C1220.29 1059.77 1221.42 1069.17 1227.64 1068.98V1068.97Z" fill="#262626"/>
<path d="M1260.26 1307.82C1279.98 1304.05 1299.9 1301.2 1319.56 1297.06C1329.04 1295.06 1338.59 1293.24 1348.02 1291C1357.04 1288.86 1368.14 1287.52 1375.77 1282.12C1380.62 1278.69 1381.12 1269.16 1373.91 1267.92C1364.7 1266.33 1355.6 1269.2 1346.53 1271.04C1336.41 1273.1 1326.38 1275.66 1316.33 1278.09C1296.25 1282.93 1276.49 1289.05 1256.51 1294.26C1247.66 1296.57 1251.45 1309.5 1260.25 1307.82H1260.26Z" fill="#262626"/>
<path d="M872.953 1384.83C934.429 1402 998.035 1409.49 1061.85 1408.3C1125.41 1407.11 1190.14 1398.83 1249.82 1376.44C1256.55 1373.92 1253.92 1364.57 1246.86 1365.74C1185.4 1375.88 1124.31 1387.12 1061.85 1388.89C999.574 1390.66 937.306 1384.59 876.004 1373.77C868.85 1372.51 865.72 1382.81 872.953 1384.83Z" fill="#262626"/>
<path d="M1034.61 1514.86C1060.71 1526.15 1098.43 1532.74 1122.61 1513.25C1126.03 1510.51 1123.22 1504.3 1119.01 1504.57C1105.97 1505.4 1093.03 1509.2 1079.86 1510.14C1065.94 1511.13 1051.92 1509.48 1038.6 1505.4C1033.12 1503.71 1029.15 1512.5 1034.61 1514.87V1514.86Z" fill="#262626"/>
<path d="M1074.72 1522.4C1075.06 1564.49 1070.64 1606.66 1074.2 1648.71C1074.61 1653.51 1077.7 1656.54 1082.5 1657C1111.26 1659.75 1140.09 1660.82 1168.97 1660.06C1184.34 1659.65 1199.75 1658.33 1215.05 1656.85C1233.8 1655.04 1254.55 1653.5 1272.58 1647.96C1279.41 1645.86 1277.53 1636.87 1270.98 1636.15C1252.88 1634.15 1233.21 1636.33 1215.05 1637.58C1199.24 1638.66 1183.44 1639.63 1167.63 1640.65C1139.24 1642.47 1110.87 1642.46 1082.49 1640.42C1085.25 1643.18 1088.02 1645.94 1090.78 1648.71C1086.19 1606.32 1091.08 1563.31 1083.25 1521.24C1082.34 1516.36 1074.67 1517.58 1074.71 1522.4H1074.72Z" fill="#262626"/>
<path d="M1251.16 1407.76C1251.22 1451.78 1254.7 1495.8 1257.54 1539.72C1259.78 1574.23 1260.44 1609.46 1265.37 1643.7C1266.17 1649.27 1275.8 1649.26 1276.61 1643.7C1281.62 1609.27 1278.4 1572.59 1275.91 1538.05C1272.74 1494.06 1268.64 1449.83 1259.7 1406.61C1258.69 1401.74 1251.15 1402.94 1251.15 1407.76H1251.16Z" fill="#262626"/>
<path d="M862.061 1657.89C896.242 1658.8 930.431 1658.24 964.611 1658C983.023 1657.87 1001.44 1657.39 1019.85 1656.97C1028.2 1656.78 1036.62 1656.74 1044.95 1656.15C1048.3 1655.92 1051.73 1655.68 1055.04 1655.19C1059.1 1654.59 1061.47 1652.78 1065.25 1651.27C1068.79 1649.85 1068.88 1645.34 1065.25 1643.95C1062.06 1642.74 1059.48 1640.92 1056.12 1640.29C1052.6 1639.62 1048.55 1639.63 1044.95 1639.48C1036.61 1639.1 1028.19 1639.31 1019.85 1639.38C1001.44 1639.54 983.014 1639.72 964.611 1640.24C930.422 1641.22 896.233 1642.02 862.061 1643.47C852.803 1643.86 852.734 1657.65 862.061 1657.9V1657.89Z" fill="#262626"/>
<path d="M1064.4 1529.44C1062.75 1550.29 1061.13 1571.15 1059.56 1592C1058.87 1601.09 1058.37 1610.2 1057.84 1619.31C1057.28 1629.03 1055.68 1639.7 1058.89 1649.08C1060.29 1653.15 1066.89 1655.09 1069.04 1650.41C1072.79 1642.22 1072.92 1633.06 1073.31 1624.18C1073.75 1614 1074.27 1603.81 1074.59 1593.62C1075.25 1572.22 1076.03 1550.84 1076.98 1529.45C1077.34 1521.3 1065.02 1521.47 1064.39 1529.45L1064.4 1529.44Z" fill="#262626"/>
<path d="M1159.25 605.193C1177.67 594.834 1195.59 587.152 1217.22 587.621C1237.52 588.064 1257.84 595.729 1275.65 604.767C1279.53 606.739 1285.31 602.386 1282.23 598.188C1267.13 577.584 1243.52 569.267 1218.59 569.085C1194.91 568.911 1167.32 576.411 1151.4 595.016C1146.74 600.448 1152.55 608.947 1159.25 605.184L1159.25 605.193Z" fill="#262626"/>
<path d="M970.565 592.279C950.441 577.167 924.884 568.129 899.587 568.338C875.63 568.537 849.369 576.906 832.131 594.217C829.41 596.945 832.157 602.829 836.181 601.178C846.465 596.963 855.723 593.33 866.598 591.019C877.534 588.699 888.356 587.404 899.587 587.595C922.198 587.969 943.426 593.817 962.15 606.661C971.13 612.822 978.936 598.579 970.556 592.279H970.565Z" fill="#262626"/>
<path d="M742.769 801.486C733.719 857.598 750.679 918.334 793.431 956.892C829.906 989.793 877.926 1005.41 924.789 1016.81C937.411 1019.88 950.129 1022.96 962.96 1025C974.921 1026.88 986.813 1030.41 998.966 1029.87C1004.63 1029.62 1006.79 1022.24 1001.86 1019.18C985.005 1008.73 961.76 1005.55 942.61 1001.06C920.53 995.885 898.511 990.254 877.17 982.528C834.192 966.973 795.335 941.797 774.141 900.058C758.764 869.764 756.808 836.359 754.765 803.111C754.374 796.689 743.925 794.29 742.769 801.486Z" fill="#262626"/>
<path d="M759.771 338.066C656.856 391.58 600.831 514.493 619.147 627.57C625.388 666.119 639.323 703.991 662.02 735.866C666.74 742.497 676.859 736.831 673.043 729.427C658.091 700.376 644.417 670.629 637.193 638.624C630.621 609.52 629.204 579.504 632.516 549.871C638.645 495.036 661.403 441.757 697.304 399.792C716.02 377.919 738.17 358.201 762.666 343.019C765.813 341.064 763.049 336.362 759.771 338.066Z" fill="#262626"/>
<path d="M752.113 514.432C753.452 544.761 754.869 575.246 761.232 605.027C764.266 619.201 768.743 633.079 774.471 646.401C779.844 658.898 786.276 674.166 798.446 681.362C801.819 683.361 806.574 680.832 806.426 676.782C805.714 657.229 808.069 637.303 809.964 617.863C805.766 618.428 801.576 619.001 797.377 619.566C804.757 642.586 817.658 679.902 846.092 682.848C850.508 683.308 853.003 676.834 849.761 674.001C840.72 666.137 831.688 660.062 825.108 649.704C818.457 639.232 814.12 627.691 809.738 616.151C807.235 609.546 797.455 610.311 797.151 617.854C796.36 637.468 797.064 657.203 795.821 676.773C799.298 676.304 802.767 675.835 806.244 675.366C803.054 662.721 793.9 651.867 788.493 640.031C782.565 627.066 778.488 613.361 775.002 599.561C767.96 571.675 764.553 542.988 761.554 514.432C760.937 508.523 751.844 508.254 752.113 514.432Z" fill="#262626"/>
<path d="M859.253 666.98C866.572 664.729 874.014 662.956 881.637 662.104C888.061 661.383 894.633 661.957 900.909 660.41C905.039 659.393 904.891 653.301 900.909 652.206C887.435 648.496 869.65 653.875 856.845 658.237C851.369 660.106 853.629 668.709 859.253 666.98Z" fill="#262626"/>
<path d="M1333.03 611.397C1337.81 620.096 1341.47 629.134 1343.88 638.78C1346.07 647.557 1346.09 657.472 1349.59 665.763C1351.73 670.838 1358.99 671.707 1360.83 665.763C1366.82 646.453 1353.51 621.104 1343.09 605.514C1338.95 599.318 1329.37 604.767 1333.03 611.397Z" fill="#262626"/>
<path d="M1370.96 633.488C1370.75 646.193 1369.4 658.628 1373.65 670.786C1374.9 674.375 1379.71 674.392 1380.97 670.786C1385.17 658.602 1383.79 646.201 1383.55 633.488C1383.39 625.397 1371.09 625.38 1370.96 633.488Z" fill="#262626"/>
<path d="M653.067 458.607C650.346 418.241 656.726 375.624 668.575 337.049C680.519 298.152 699.817 261.801 724.001 229.143C774.645 160.76 847.44 107.898 928.501 81.8015C1012.83 54.6447 1103.31 57.6428 1187.53 83.583C1262.12 106.551 1325.42 153.365 1371.4 216.299C1397.24 251.677 1417.48 290.93 1431.02 332.591C1437.83 353.56 1442.89 375.008 1446.48 396.75C1450.2 419.162 1450.28 441.8 1453.19 464.255C1454.35 473.276 1469.23 477.803 1471 466.663C1477.42 426.149 1467.99 381.212 1456.42 342.306C1444.53 302.34 1426.84 263.86 1404.32 228.769C1361.28 161.681 1299.67 105.743 1225.22 75.9095C1139.98 41.7659 1042.35 33.2408 952.98 54.8098C864.956 76.0573 784.069 127.069 725.844 196.286C695.184 232.732 670.783 274.393 655.353 319.503C647.668 341.985 642.635 365.101 640.166 388.721C637.628 412.931 639.723 435.952 643.078 459.962C643.87 465.611 653.458 464.308 653.075 458.607H653.067Z" fill="#262626"/>
<path d="M674.268 425.958C746.272 342.732 847.118 294.893 954.962 279.364C1008.61 271.638 1063.07 271.768 1116.94 277.035C1171.15 282.336 1225.28 293.355 1276.1 313.264C1331.82 335.085 1383.42 369.359 1419.62 417.563C1427.39 427.913 1445.08 417.781 1437.2 407.292C1367.78 314.785 1254.63 274.323 1143.58 259.637C1031.72 244.846 914.722 252.546 811.138 300.159C782.617 313.273 755.938 329.671 731.276 349.085C705.467 369.402 684.726 392.744 666.123 419.684C662.802 424.489 670.409 430.416 674.26 425.958H674.268Z" fill="#262626"/>
<path d="M773.132 331.444C780.312 344.331 793.134 354.334 805.044 362.754C819.17 372.739 834.408 380.708 850.299 387.495C886.079 402.781 924.102 412.253 962.559 417.72C1045.06 429.46 1132.94 423.959 1212.34 397.949C1252.96 384.645 1291.49 365.231 1323.39 336.449C1332.48 328.254 1319.18 315.254 1310.04 323.101C1253.19 371.966 1173.89 392.979 1100.78 400.244C1024.23 407.848 942.974 402.494 870.075 376.659C852.55 370.445 835.556 362.711 819.43 353.43C805.113 345.192 792.778 334.416 779.069 325.482C775.297 323.023 771.089 327.794 773.115 331.435L773.132 331.444Z" fill="#262626"/>
<path d="M946.329 509.775C950.197 526.816 955.204 543.571 961.837 559.752C967.375 573.256 973.19 591.984 984.769 601.551C994.662 609.72 1007.61 606.818 1010.59 593.73C1012.41 585.709 1011.55 576.645 1011.78 568.459C1012.06 558.327 1012.36 548.194 1012.68 538.052C1008.07 539.295 1003.48 540.546 998.869 541.789C1015.04 569.572 1031.88 598.501 1057.14 619.114C1078.47 636.521 1111.06 652.189 1138.63 640.257C1143.52 638.146 1140.2 631.984 1136.25 631.463C1122.86 629.69 1110.32 628.76 1097.51 623.772C1084.09 618.549 1071.8 610.998 1061.16 601.282C1040.45 582.381 1025.96 558.135 1011.66 534.307C1007.86 527.963 997.991 530.701 997.852 538.044C997.617 550.714 997.348 563.384 997.069 576.046C997 579.27 998.365 591.175 994.948 591.453C991.358 591.749 984.856 577.836 983.335 575.212C970.939 553.903 961.064 531.248 953.64 507.75C952.171 503.092 945.242 504.995 946.32 509.766L946.329 509.775Z" fill="#262626"/>
<path d="M1155.14 615.986C1154.67 616.968 1154.2 617.95 1153.74 618.932L1155.24 620.757C1156.3 622.981 1159.36 625.493 1161.04 627.396C1164.56 631.35 1168.18 635.191 1171.83 639.023C1178.44 645.975 1185.07 654.9 1193.89 658.976C1199.41 661.531 1204.8 656.351 1202.12 650.746C1197.94 642.039 1188.85 635.452 1181.85 629.004C1175.2 622.868 1168.27 614.847 1160.21 610.546C1151.63 605.957 1141.75 617.124 1150.88 621.504C1154.25 623.129 1158.31 618.819 1155.14 615.986Z" fill="#262626"/>
<path d="M1203.02 538.652C1206.91 557.136 1210.78 575.629 1214.67 594.113C1216.54 603.029 1218.61 611.91 1220.63 620.791C1222.62 629.525 1223.68 638.945 1228.96 646.375C1231.51 649.955 1239.01 650.538 1239.78 644.959C1241.07 635.738 1238.31 627.483 1235.99 618.575C1233.71 609.764 1231.46 600.943 1229.05 592.166C1223.88 573.36 1218.6 554.581 1213.37 535.793C1211.51 529.093 1201.61 531.926 1203.02 538.643V538.652Z" fill="#262626"/>
<path d="M1249.82 585.692C1249.76 593.2 1249.7 600.708 1249.64 608.217C1249.59 615.038 1248.89 622.243 1250.89 628.804C1252.29 633.366 1258.79 633.383 1260.18 628.804C1262.16 622.269 1261.45 615.004 1261.37 608.217C1261.29 600.708 1261.2 593.2 1261.12 585.692C1261.04 578.435 1249.89 578.418 1249.82 585.692Z" fill="#262626"/>
<path d="M1286.34 593.383C1294.01 603.037 1300.84 613.318 1306.75 624.146C1312.24 634.218 1315.43 646.462 1322.04 655.717C1324.71 659.454 1331.87 658.637 1331.52 653.145C1330.76 641.074 1323.32 628.239 1317.66 617.767C1311.27 605.94 1303.69 594.912 1295.38 584.354C1290.3 577.914 1281.28 587.004 1286.34 593.383Z" fill="#262626"/>
<path d="M1247.34 445.476C1257.22 480.784 1263.37 517.57 1266.07 554.138C1267.38 571.883 1267.78 589.715 1267.58 607.504C1267.38 624.893 1264.37 643.264 1266.91 660.488C1267.84 666.71 1276.22 665.094 1277.98 660.488C1284.14 644.437 1283.59 624.485 1283.92 607.504C1284.29 588.447 1283.32 569.415 1281.38 550.462C1277.61 513.494 1269.57 477.803 1258.22 442.469C1256.01 435.595 1245.36 438.428 1247.34 445.467V445.476Z" fill="#262626"/>
<path d="M786.694 946.646C772.481 962.523 761.137 981.025 749.245 998.666C736.041 1018.24 722.966 1037.89 710.057 1057.66C704.737 1065.81 699.443 1073.97 694.193 1082.17C688.403 1091.22 683.04 1099.17 687.899 1110.02C697.401 1131.23 716.238 1144.77 735.032 1157.7C759.259 1174.37 783.408 1191.14 807.47 1208.06C824.804 1220.26 842.563 1233.92 861.47 1243.65C873.701 1249.95 885.784 1237.03 875.648 1226.3C872.788 1223.28 868.92 1220.77 865.504 1218.53C858.306 1213.82 851.36 1208.21 843.207 1205.34C837.269 1203.25 831.523 1210.9 834.948 1216.08C839.808 1223.44 847.179 1229.08 853.429 1235.26C855.029 1236.85 856.707 1238.62 858.532 1239.97C861.496 1242.16 860.549 1244.71 858.271 1237.84C858.636 1235.04 859.001 1232.24 859.367 1229.45C859.367 1229.47 859.349 1229.49 859.341 1229.5C862.479 1227.7 865.608 1225.9 868.746 1224.11C872.171 1223.71 875.014 1226.6 870.989 1223.78C868.816 1222.26 866.608 1220.8 864.443 1219.27C857.68 1214.5 851.013 1209.58 844.284 1204.76C826.638 1192.1 808.913 1179.58 791.101 1167.15C771.238 1153.28 750.08 1140.56 731.181 1125.43C724.383 1119.99 718.985 1113.48 712.674 1107.61C711.048 1106.1 705.911 1103.2 705.728 1101.29C705.52 1099.12 710.849 1092.88 712.031 1090.98C720.811 1076.88 729.738 1062.87 738.683 1048.87C758.555 1017.77 781.922 986.308 795.987 952.043C798.116 946.855 790.241 942.701 786.703 946.646H786.694Z" fill="#262626"/>
<path d="M1413.71 404.372C1436.34 455.496 1464.89 503.726 1470.89 560.499C1473.77 587.69 1471.98 615.377 1464.69 641.769C1460.72 656.108 1455.3 670.047 1448.5 683.282C1441.22 697.465 1430.53 710.439 1425.2 725.404C1423.38 730.505 1429.99 735.467 1434.44 732.503C1448.12 723.422 1457.46 707.319 1465.34 693.12C1473.14 679.059 1479.53 664.164 1484.14 648.756C1492.68 620.174 1494.9 590.089 1491.43 560.499C1484.63 502.64 1460.33 442.191 1421.12 398.653C1417.26 394.369 1411.7 399.818 1413.7 404.372H1413.71Z" fill="#262626"/>
<path d="M926.032 65.7682C896.563 95.0019 879.734 134.403 866.955 173.266C860.045 194.287 854.359 215.708 849.448 237.286C847.179 247.245 844.936 257.256 843.119 267.31C841.372 276.991 838.886 287.645 839.86 297.457C840.442 303.27 849.204 307.459 852.273 300.82C860.123 283.822 861.444 262.896 865.391 244.647C869.859 224.025 875.031 203.542 881.273 183.381C893.104 145.17 908.568 105.3 934.534 74.2672C939.428 68.4187 931.622 60.2152 926.024 65.7595L926.032 65.7682Z" fill="#262626"/>
<path d="M1196.65 80.8282C1212.43 115.007 1223.8 150.827 1231.37 187.682C1235.05 205.584 1237.67 223.668 1239.18 241.883C1240.66 259.68 1239.46 280.033 1245.85 296.84C1247.15 300.237 1253 302.323 1254.81 298.013C1261.82 281.432 1260.15 261.305 1258.45 243.673C1256.54 223.833 1253.48 204.089 1249.2 184.623C1240.73 146.091 1226.81 108.767 1209.11 73.5458C1204.9 65.1685 1192.8 72.5117 1196.64 80.8282H1196.65Z" fill="#262626"/>
<path d="M540.311 863.021C548.239 879.471 560.035 895.192 570.736 909.965C582.915 926.772 595.493 943.309 608.576 959.43C638.488 996.276 671.643 1028.98 708.875 1058.35C717.29 1064.99 729.364 1053.56 720.914 1046.31C685.795 1016.19 653.501 981.981 623.398 946.881C609.932 931.187 596.989 915.049 584.471 898.59C573.527 884.19 562.826 868.331 550.195 855.4C544.97 850.055 537.321 856.807 540.311 863.021Z" fill="#262626"/>
<path d="M669.322 847.961C684.926 869.269 706.093 887.866 725.07 906.159C735.032 915.762 745.003 925.364 755.443 934.454C765.005 942.779 773.95 951.713 786.294 955.554C791.37 957.127 794.9 951.374 792.77 947.124C786.824 935.219 775.697 927.311 765.909 918.655C755.99 909.896 745.794 901.44 735.814 892.75C716.212 875.691 697.426 856.095 676.285 841C672.234 838.106 666.349 843.903 669.322 847.961Z" fill="#262626"/>
<path d="M915.445 1054.21C916.618 1045.47 922.564 1037.62 929.901 1033.01C936.925 1028.59 945.035 1028.79 952.389 1025.68C955.432 1024.4 955.684 1019.58 953.441 1017.55C943.827 1008.83 928.241 1014.41 919.243 1021.28C908.942 1029.15 902.918 1041.21 903.97 1054.21C904.579 1061.74 914.48 1061.42 915.445 1054.21Z" fill="#262626"/>
<path d="M824.943 976.819C835.713 990.975 848.222 1004.11 861.522 1015.92C868.094 1021.76 875.014 1027.25 881.994 1032.59C888.636 1037.68 895.946 1044.25 904.3 1045.89C909.386 1046.88 915.027 1041.42 911.62 1036.37C907.038 1029.59 899.51 1025.5 892.939 1020.76C885.941 1015.72 879.143 1010.45 872.432 1005.04C858.81 994.051 846.04 982.311 833.097 970.544C829.002 966.825 821.214 971.9 824.96 976.819H824.943Z" fill="#262626"/>
<path d="M1165.92 1018.15C1181 1010.84 1202.96 1012.54 1214.91 1025.36C1224.43 1035.59 1219.57 1052.4 1221.66 1065.16C1222.61 1070.95 1230.26 1070.52 1232.99 1066.64C1245.77 1048.55 1244.74 1022.29 1226.28 1008.41C1206.6 993.599 1179.72 993.869 1158.92 1006.17C1151.14 1010.76 1157.97 1022.01 1165.93 1018.15H1165.92Z" fill="#262626"/>
<path d="M1024.61 1404.67C1023.55 1416.93 1019.86 1434.41 1025.27 1445.95C1030.21 1456.5 1041.52 1457.63 1051.87 1457.36C1068.59 1456.92 1085.29 1456.34 1101.99 1455.64C1114.74 1455.1 1129.45 1456.11 1140.99 1449.73C1150.67 1444.37 1154.46 1434.95 1153.62 1424.18C1153.04 1416.73 1150.87 1397.02 1140.37 1396.88C1129.03 1396.74 1134.14 1411.75 1135.4 1418.03C1136.41 1423.09 1137.68 1429.79 1133.06 1433.39C1128.1 1437.26 1119.47 1436.68 1113.57 1436.92C1094.93 1437.68 1076.3 1438.48 1057.66 1439.41C1049.1 1439.84 1040.03 1442.48 1038.71 1431.7C1037.61 1422.75 1037.28 1413.66 1037.01 1404.67C1036.77 1396.59 1025.3 1396.81 1024.62 1404.67H1024.61Z" fill="#262626"/>
<path d="M862.983 1384.43C862.661 1395.28 861.618 1406.07 860.601 1416.86C860.401 1418.99 861.966 1421.65 863.878 1422.57C875.101 1428.01 888.514 1430.07 900.632 1432.83C915.071 1436.1 929.536 1439.25 944.088 1441.99C958.596 1444.73 973.174 1447.03 987.822 1448.85C1003.32 1450.77 1020.14 1453.06 1035.66 1450.72C1042.43 1449.7 1041.95 1438.91 1035.66 1437.52C1020.79 1434.22 1004.76 1434.24 989.604 1432.46C974.695 1430.71 959.874 1428.28 945.122 1425.49C931.683 1422.95 918.313 1420.08 904.97 1417.1C892.904 1414.39 879.639 1410.11 867.217 1410.25C869.425 1412.46 871.624 1414.65 873.832 1416.86C872.467 1406.07 871.059 1395.28 870.381 1384.43C870.085 1379.7 863.122 1379.63 862.974 1384.43H862.983Z" fill="#262626"/>
<path d="M1151.01 1440.69C1188.28 1439.01 1224.49 1431.14 1259.77 1418.92C1262.84 1417.86 1264.77 1415.41 1264.92 1412.15C1265.55 1399.19 1261.1 1376.39 1248.13 1369.96C1245.42 1368.61 1241.64 1370.87 1242.69 1374.14C1246.62 1386.41 1252.12 1398.93 1250.88 1412.15C1252.6 1409.89 1254.31 1407.64 1256.03 1405.38C1221.27 1415.69 1185.33 1424.79 1149.8 1431.78C1144.8 1432.77 1145.92 1440.92 1151.01 1440.69Z" fill="#262626"/>
<path d="M867.372 1423.64C862.33 1440.12 861.435 1458.53 859.775 1475.63C857.958 1494.4 856.376 1513.18 855.028 1531.99C853.724 1550.14 852.725 1568.31 852.003 1586.49C851.273 1604.93 849.048 1624.63 850.934 1643C851.786 1651.25 865.59 1655.02 866.929 1645.16C869.276 1627.86 868.415 1609.79 869.102 1592.33C869.841 1573.51 870.797 1554.69 871.867 1535.88C872.901 1517.73 874.153 1499.58 875.631 1481.47C877.134 1463.02 880.342 1443.71 879.003 1425.22C878.534 1418.69 869.389 1417.04 867.372 1423.65V1423.64Z" fill="#262626"/>
<path d="M759.406 604.193C752.721 611.849 749.096 621.826 744.985 631.028C740.499 641.066 736.1 651.146 731.658 661.209C727.477 670.682 723.278 680.137 719.115 689.618C715.272 698.369 708.509 709.318 709.674 719.042C710.17 723.188 714.855 727.646 719.141 724.474C726.686 718.886 729.676 709.527 733.293 701.045C737.752 690.582 742.125 680.076 746.541 669.587C750.809 659.454 755.094 649.33 759.345 639.189C763.492 629.29 768.629 619.192 769.681 608.443C770.185 603.324 762.709 600.413 759.415 604.193H759.406Z" fill="#262626"/>
<path d="M1004.31 791.605C1034.9 791.875 1065.47 793.274 1096.07 793.352C1102.53 793.369 1110.01 792.005 1116.38 793.109C1124.63 794.542 1126.93 804.162 1128.86 811.184C1132.08 822.881 1132.03 835.438 1127.24 846.709C1117 870.799 1090.13 880.314 1065.64 879.932C1043.46 879.584 1016.27 874.379 1003.62 853.974C990.325 832.553 1000.84 808.89 1009.04 787.808C1010.82 783.228 1003.98 779.491 1000.84 783.037C984.266 801.773 977.39 831.154 987.761 854.626C999.07 880.227 1027.2 890.595 1053.29 893.019C1083.3 895.809 1115.5 888.266 1133.64 862.343C1141.32 851.35 1145.09 837.811 1144.65 824.437C1144.21 811.141 1140.48 791.266 1128.88 783.011C1121.24 777.571 1110.89 778.648 1101.99 778.744C1091.54 778.857 1081.09 779.152 1070.63 779.309C1048.5 779.621 1026.41 780.395 1004.3 781.42C997.793 781.724 997.714 791.536 1004.3 791.596L1004.31 791.605Z" fill="#262626"/>
<path d="M1340.49 847.718C1332.14 894.349 1302.83 934.089 1263.18 959.299C1228.4 981.416 1188.47 993.79 1148.39 1002.19C1140.19 1003.91 1131.93 1005.41 1123.77 1007.27C1117.66 1008.66 1111.17 1009.15 1105.64 1012.16C1100.85 1014.78 1102.14 1022.02 1107.12 1023.49C1119.15 1027.02 1136.08 1023.02 1148.13 1020.95C1167.79 1017.55 1187.13 1012.55 1206 1006.06C1250.11 990.862 1293.08 967.251 1321.74 929.509C1339.48 906.15 1347.61 877.942 1349.04 848.873C1349.27 844.059 1341.37 842.851 1340.49 847.718Z" fill="#262626"/>
<path d="M1355.12 692.459C1353.35 709.361 1352.75 726.368 1350.49 743.236C1348.31 759.469 1345.31 775.398 1344.36 791.649C1344.08 796.428 1351.6 798.688 1353.67 794.169C1357.6 785.574 1360.41 777.805 1362.44 768.376C1364.14 760.442 1365.07 752.343 1365.89 744.279C1367.71 726.516 1368.35 708.736 1365.84 691.017C1364.91 684.455 1355.7 686.88 1355.11 692.468L1355.12 692.459Z" fill="#262626"/>
<path d="M726.008 687.375C728.998 702.548 731.163 717.834 733.301 733.146C734.431 741.237 735.544 749.31 736.944 757.366C738.291 765.109 739.265 774.103 747.036 777.892C748.679 778.692 750.748 778.648 752.087 777.24C757.807 771.209 756.251 763.501 755.016 755.863C753.617 747.19 751.878 738.595 750.053 730.009C746.767 714.497 742.829 699.185 738.143 684.038C735.735 676.235 724.452 679.485 726.008 687.384V687.375Z" fill="#262626"/>
<path d="M599.048 816.963C597.405 810.185 588.599 793.074 596.318 788.164C604.942 782.68 615.251 793.161 622.988 795.768C625.318 796.55 627.787 795.594 629.517 794.038C629.934 793.665 630.264 793.152 630.568 792.683C631.864 790.667 631.716 787.929 630.568 785.904C621.988 770.801 599.204 763.727 584.8 774.677C569.11 786.608 578.454 811.089 590.998 821.638C594.597 824.663 600.23 821.856 599.039 816.954L599.048 816.963Z" fill="#262626"/>
<path d="M680.223 846.822C677.832 836.933 670.087 827.504 664.124 819.388C656.943 809.602 649.65 799.896 642.417 790.154C628.874 771.913 615.635 752.778 600.796 735.571C590.808 723.987 571.518 715.879 561.139 731.912C552.142 745.817 554.445 770.592 565.051 782.793C567.937 786.113 574.674 784.575 575.413 780.056C576.604 772.817 575.865 765.787 575.673 758.487C575.586 755.15 574.135 743.748 577.847 741.958C583.784 739.099 606.524 774.207 609.732 778.37C619.581 791.171 629.587 803.85 639.618 816.52C649.007 828.373 659.125 845.319 672.617 852.68C676.633 854.869 681.301 851.263 680.231 846.831L680.223 846.822Z" fill="#262626"/>
<path d="M564.556 763.831C560.74 740.994 531.462 747.033 525.62 765.526C522.065 776.771 525.742 788.147 531.992 797.688C537.008 805.344 545.536 817.441 555.776 815.434C557.567 815.086 558.871 813.452 559.392 811.819C562.044 803.528 553.229 794.386 549.082 787.703C546.466 783.497 543.197 778.327 543.806 773.182C544.18 770.045 549.222 762.988 552.542 768.889C556.419 775.78 565.712 770.801 564.547 763.831H564.556Z" fill="#262626"/>
<path d="M540.163 789.241C536.66 781.872 528.106 779.196 520.465 781.438C510.772 784.279 506.861 794.603 507 803.902C507.269 821.56 519.144 849.595 538.085 854.079C542.667 855.165 548.56 850.794 546.509 845.658C543.223 837.42 536.564 830.911 532.209 823.168C529.923 819.118 528.097 814.834 526.915 810.332C526.437 808.525 525.507 793.5 529.401 797.541C535.078 803.424 543.353 795.976 540.154 789.241H540.163Z" fill="#262626"/>
<path d="M921.163 1084.06C938.14 1078.97 955.335 1076.18 972.972 1074.68C981.413 1073.96 989.819 1073.89 998.278 1074.02C1005.63 1074.13 1013.85 1075.69 1020.74 1072.86C1023.36 1071.79 1023.76 1068.81 1021.49 1067.11C1015.27 1062.45 1005.83 1062.37 998.278 1061.99C989.272 1061.53 980.135 1061.98 971.173 1062.83C953.24 1064.51 935.689 1069.53 918.946 1076.04C914.069 1077.94 915.912 1085.65 921.163 1084.07V1084.06Z" fill="#262626"/>
<path d="M983.414 1129.63C995.28 1125.42 1007.32 1122.53 1019.65 1120.08C1031.75 1117.67 1044.79 1118.14 1056.27 1113.46C1059.78 1112.04 1060.11 1107.29 1056.27 1105.97C1044.06 1101.77 1030.38 1104.97 1018.07 1107.67C1004.87 1110.55 992.194 1115.82 980.058 1121.68C975.66 1123.81 978.754 1131.29 983.414 1129.63Z" fill="#262626"/>
<path d="M1214.75 1069.44C1200.9 1065.25 1185.27 1065.61 1170.94 1064.15C1157.11 1062.74 1140.97 1057.68 1127.26 1060.41C1123 1061.25 1122.45 1067.54 1126.06 1069.54C1137.91 1076.08 1155.73 1075.7 1169.01 1077.09C1183.81 1078.63 1200.02 1081.24 1214.76 1078.36C1219.45 1077.45 1218.87 1070.68 1214.76 1069.45L1214.75 1069.44Z" fill="#262626"/>
<path d="M1099.32 1126.13C1115.58 1125.15 1134.66 1127.93 1150.24 1122.86C1154.52 1121.47 1154.39 1115.74 1150.24 1114.3C1134.37 1108.75 1113.95 1114.41 1098.29 1118.51C1094.14 1119.6 1094.87 1126.41 1099.32 1126.14V1126.13Z" fill="#262626"/>
<path d="M1008.36 1244.55C1023.68 1252.92 1037.72 1262.97 1050.72 1274.61C1056.75 1280.01 1062.46 1285.74 1067.82 1291.78C1072.93 1297.56 1077.18 1304.69 1084.05 1308.47C1086.58 1309.86 1089.18 1307.57 1088.68 1304.92C1087.22 1297.23 1081.34 1291.28 1076.31 1285.58C1070.26 1278.71 1063.77 1272.21 1056.87 1266.19C1043.54 1254.56 1028.55 1244.95 1012.76 1237.03C1007.79 1234.53 1003.42 1241.83 1008.37 1244.54L1008.36 1244.55Z" fill="#262626"/>
<path d="M1009.26 1316.25C1021.03 1323.89 1033.29 1330.69 1044.92 1338.57C1050.71 1342.5 1056.51 1346.45 1062.21 1350.51C1067.26 1354.12 1071.78 1358.39 1077.91 1359.84C1081.22 1360.61 1083.22 1357.37 1081.99 1354.54C1077.13 1343.35 1061.15 1334.32 1051.16 1327.88C1038.88 1319.98 1026.5 1312.92 1012.74 1307.97C1007.72 1306.15 1005.12 1313.57 1009.25 1316.25H1009.26Z" fill="#262626"/>
<path d="M1086.49 1268.29C1095.07 1262.59 1102.25 1254.93 1110.63 1248.93C1118.79 1243.09 1128.27 1238.97 1134.64 1231.08C1136.37 1228.94 1135.5 1224.85 1132.16 1225.07C1112.84 1226.34 1089.76 1246.36 1081.67 1263.47C1080.3 1266.38 1083.3 1270.4 1086.48 1268.28L1086.49 1268.29Z" fill="#262626"/>
<path d="M1088.67 1340.59C1099.91 1332.3 1110.43 1323.17 1121.5 1314.67C1132.05 1306.57 1142.79 1298.52 1151.86 1288.76C1153.48 1287.01 1151.91 1283.8 1149.42 1284.59C1123.48 1292.85 1099.9 1314.41 1084.23 1336.16C1082.37 1338.73 1086.09 1342.48 1088.66 1340.59H1088.67Z" fill="#262626"/>
<path d="M1322.46 1290.31C1327.16 1339.59 1337.72 1387.83 1340.11 1437.46C1340.69 1449.54 1341.12 1461.63 1341.26 1473.72C1341.38 1484.64 1341.89 1496.82 1336.18 1506.6C1326.38 1523.37 1303.38 1527.02 1285.72 1528.06C1275.81 1528.64 1275.63 1543.82 1285.72 1543.6C1305.78 1543.17 1327.79 1539.85 1342.65 1525.03C1360.05 1507.67 1358.2 1481.07 1357.82 1458.44C1357.36 1430.34 1354.83 1402.25 1351.09 1374.4C1347.19 1345.42 1342.16 1316.33 1331.2 1289.13C1329.51 1284.93 1321.95 1284.86 1322.47 1290.31H1322.46Z" fill="#262626"/>
<path d="M1302.47 1474.77C1301.16 1480.33 1300.35 1485.98 1299.93 1491.67C1299.47 1498.07 1300.23 1504.95 1296.43 1510.52C1286.45 1525.17 1282.48 1502.58 1278.55 1497.06C1276.55 1494.24 1271.33 1493.17 1269.6 1497.06C1262.8 1512.25 1276.71 1534.57 1294.43 1529.03C1302.48 1526.51 1308.22 1518.94 1310.54 1511.06C1314.12 1498.91 1308.46 1487.68 1308.65 1475.61C1308.7 1472.1 1303.29 1471.28 1302.47 1474.77Z" fill="#262626"/>
<path d="M877.813 1923.08C885.628 1883.56 926.71 1849.84 967.975 1856.88C985.622 1859.89 1001.69 1868.63 1014.21 1881.35C1020.75 1887.98 1026.27 1895.59 1030.63 1903.82C1035.61 1913.24 1038.77 1923.33 1043.73 1932.74C1045.87 1936.81 1051.97 1935.6 1053.2 1931.5C1060.21 1908.23 1046.05 1881.71 1030.18 1865.4C1013.99 1848.76 991.811 1837.3 968.706 1834.67C916.279 1828.69 870.658 1870.78 864.008 1921.22C862.974 1929.03 876.291 1930.83 877.821 1923.09L877.813 1923.08Z" fill="#262626"/>
<path d="M868.512 1932.52C869.72 1942.72 880.899 1946.87 889.557 1949.29C906.204 1953.95 924.172 1955 941.358 1955.67C961.656 1956.46 981.936 1955.83 1002.13 1953.65C1011.12 1952.68 1019.82 1951.1 1028.59 1948.91C1035.48 1947.19 1043.2 1945.93 1048.95 1941.54C1052.94 1938.49 1052.4 1930.37 1046.06 1930.85C1039.96 1931.31 1034.22 1933.21 1028.23 1934.32C1020.66 1935.72 1012.93 1936.3 1005.3 1937.24C987.456 1939.43 969.445 1940.58 951.477 1941.05C935.099 1941.48 918.444 1941.39 902.179 1939.12C897.494 1938.47 880.09 1937.02 878.882 1931.13C877.7 1925.4 867.816 1926.58 868.52 1932.53L868.512 1932.52Z" fill="#262626"/>
<path d="M872.57 1915.35C880.707 1923.91 895.363 1926.8 906.603 1928.4C921.233 1930.49 934.498 1928.57 949.007 1927.54C964.184 1926.47 979.188 1927.04 994.331 1926.35C1007.51 1925.76 1024.58 1927.26 1036.86 1922.24C1040.11 1920.91 1041.13 1915.46 1036.86 1914.57C1024.77 1912.04 1010.39 1915.63 998.104 1916.65C983.57 1917.87 969.296 1920.01 954.674 1920C941.114 1919.98 927.118 1919.28 913.601 1918.08C900.274 1916.89 888.13 1910.45 875.126 1909.19C871.849 1908.86 870.588 1913.25 872.57 1915.35Z" fill="#262626"/>
<path d="M899.815 1738.64C922.382 1739.04 945.018 1740.47 967.567 1741.67C978.103 1742.22 988.622 1742.57 999.175 1742.63C1009.85 1742.69 1021.97 1743.16 1031.63 1738.14C1037.81 1734.92 1035.19 1726.97 1029.88 1724.78C1020.63 1720.97 1009.07 1722.15 999.175 1722.1C988.022 1722.03 976.869 1721.79 965.724 1721.71C943.592 1721.55 921.843 1721.77 899.815 1724.03C890.635 1724.97 890.209 1738.48 899.815 1738.65V1738.64Z" fill="#262626"/>
<path d="M1031.98 1778.05C1019.9 1773.34 1004.38 1775.35 991.585 1775.17C977.876 1774.98 964.168 1774.78 950.459 1774.59C936.75 1774.4 923.042 1774.35 909.333 1774.38C903.657 1774.39 894.79 1775.99 889.444 1773.79C884.411 1771.72 882.724 1764.43 887.653 1761.02C891.217 1758.55 892.938 1752.87 889.131 1749.58C883.785 1744.97 885.993 1738.42 893.016 1738.27C902.118 1738.08 902.022 1724.71 893.016 1724.21C873.353 1723.1 864.33 1747.12 878.83 1759.88C879.325 1756.07 879.812 1752.26 880.307 1748.44C870.963 1754.79 867.172 1766.94 872.336 1777.36C879.551 1791.91 897.676 1789.51 911.289 1789.66C931.526 1789.88 951.763 1789.77 972 1789.64C982.449 1789.58 992.889 1789.52 1003.34 1789.46C1012.71 1789.41 1023.11 1790.35 1031.99 1786.98C1036.39 1785.3 1036.34 1779.75 1031.99 1778.05H1031.98Z" fill="#262626"/>
<path d="M1025.01 1736.06C1028.91 1736.41 1034.74 1737.11 1038.41 1738.65C1042.52 1740.37 1047.48 1745.84 1041.5 1748.7C1036.21 1751.24 1037.32 1760.55 1043.19 1761.61C1045.24 1765.05 1044.32 1767.19 1040.41 1768.01C1039.05 1768.48 1037.65 1768.81 1036.22 1769C1033.34 1769.54 1031.28 1770.06 1028.62 1771.39C1023.53 1773.92 1024.89 1782.07 1030.19 1783.39C1040.55 1785.96 1053.74 1780.05 1058.15 1770.11C1062.22 1760.91 1057.17 1749.69 1046.94 1747.98C1047.51 1752.29 1048.06 1756.59 1048.63 1760.89C1058.16 1756.15 1060.93 1744.19 1055.28 1735.33C1048.09 1724.06 1035.28 1723.5 1023.73 1726.6C1018.23 1728.07 1019.81 1735.58 1025.01 1736.04V1736.06Z" fill="#262626"/>
<path d="M889.418 1656.32C887.74 1669.17 888.322 1682.56 888.566 1695.5C888.757 1705.81 886.506 1719.83 892.13 1728.81C893.668 1731.26 897.337 1731.39 898.841 1728.81C904.465 1719.21 901.614 1704.32 901.431 1693.54C901.214 1680.72 901.283 1667.65 899.232 1654.98C898.241 1648.89 890.07 1651.29 889.418 1656.31V1656.32Z" fill="#262626"/>
<path d="M893.711 1784.44C888.999 1800.08 888.043 1816.57 886.818 1832.78C885.87 1845.28 883.888 1860.46 888.991 1872.27C889.99 1874.58 894.059 1874.56 895.067 1872.27C899.97 1861.09 899.361 1846.49 899.935 1834.52C900.718 1818.16 902.613 1801.76 900.987 1785.41C900.587 1781.41 894.989 1780.22 893.72 1784.43L893.711 1784.44Z" fill="#262626"/>
<path d="M1036.24 1782.99C1036.71 1807.03 1037.96 1831.15 1039.55 1855.15C1040.34 1866.91 1041.48 1878.67 1042.89 1890.38C1043.99 1899.46 1043.69 1911.16 1050.52 1917.94C1051.73 1919.14 1054.07 1918.99 1054.89 1917.37C1059.45 1908.34 1055.76 1896.39 1054.97 1886.69C1054.03 1874.95 1053.57 1863.17 1052.79 1851.42C1051.25 1828.13 1050.07 1804.62 1044.6 1781.86C1043.48 1777.19 1036.15 1778.19 1036.24 1782.99Z" fill="#262626"/>
<path d="M1031.01 1653.3C1031.54 1666.7 1031.15 1680.21 1031.29 1693.63C1031.37 1702.13 1031.33 1710.66 1031.75 1719.17C1032.08 1725.85 1030.63 1734.8 1036.35 1739.36C1038.22 1740.85 1040.66 1741.14 1042.51 1739.36C1047.94 1734.14 1045.81 1726.11 1045.67 1719.17C1045.49 1710.13 1044.97 1701.1 1044.58 1692.07C1043.99 1678.62 1043.43 1665.22 1041.2 1651.91C1040.22 1646.14 1030.79 1647.51 1031.02 1653.29L1031.01 1653.3Z" fill="#262626"/>
<path d="M1276.52 1916.16C1269.74 1865.88 1222.1 1825.4 1170.74 1831.89C1148.07 1834.75 1126.31 1846.24 1110.46 1862.62C1094.64 1878.98 1080.54 1905.55 1087.61 1928.8C1088.84 1932.87 1094.94 1934.13 1097.08 1930.03C1101.8 1921.01 1104.86 1911.35 1109.49 1902.27C1113.92 1893.58 1119.61 1885.54 1126.43 1878.57C1138.9 1865.83 1154.95 1856.98 1172.59 1853.96C1213.85 1846.88 1255.01 1880.3 1262.97 1919.87C1264.79 1928.94 1277.7 1924.84 1276.53 1916.14L1276.52 1916.16Z" fill="#262626"/>
<path d="M1261.93 1927.93C1260.73 1933.85 1243.37 1935.33 1238.67 1936C1222.42 1938.34 1205.76 1938.45 1189.38 1938.08C1171.41 1937.66 1153.39 1936.56 1135.55 1934.41C1128.2 1933.54 1120.76 1932.98 1113.47 1931.73C1107.17 1930.64 1101.14 1928.61 1094.76 1928.15C1088.44 1927.69 1087.85 1935.79 1091.87 1938.84C1097.64 1943.22 1105.33 1944.45 1112.24 1946.15C1120.67 1948.23 1129.01 1949.79 1137.65 1950.72C1158.2 1952.93 1178.85 1953.53 1199.5 1952.67C1216.46 1951.96 1234.12 1950.85 1250.57 1946.35C1259.39 1943.93 1271.09 1939.8 1272.3 1929.34C1272.97 1923.46 1263.11 1922.14 1261.93 1927.94V1927.93Z" fill="#262626"/>
<path d="M1265.63 1906.01C1253.25 1907.24 1241.65 1913.5 1229.02 1914.84C1215.41 1916.3 1201.05 1916.96 1187.38 1917.03C1172.8 1917.11 1158.65 1915.1 1144.17 1913.94C1131.35 1912.91 1116.55 1909.32 1103.91 1911.84C1099.65 1912.68 1100.63 1918.22 1103.91 1919.51C1116.85 1924.58 1134.29 1923.06 1148.1 1923.57C1163.2 1924.12 1178.14 1923.59 1193.29 1924.65C1207.31 1925.63 1220.03 1927.35 1234.18 1925.3C1245.43 1923.67 1260.07 1920.73 1268.18 1912.15C1270.15 1910.07 1268.91 1905.67 1265.63 1905.99V1906.01Z" fill="#262626"/>
<path d="M1240.43 1720.91C1218.41 1718.71 1196.64 1718.55 1174.52 1718.78C1163.99 1718.88 1153.47 1719.12 1142.95 1719.24C1132.44 1719.35 1120.18 1717.93 1110.36 1722.02C1105.09 1724.21 1102.43 1732.18 1108.61 1735.37C1117.74 1740.08 1129.09 1739.86 1139.18 1739.8C1150.36 1739.74 1161.5 1739.35 1172.67 1738.73C1195.22 1737.47 1217.85 1735.98 1240.42 1735.51C1250 1735.31 1249.62 1721.82 1240.42 1720.9L1240.43 1720.91Z" fill="#262626"/>
<path d="M1108.4 1784.23C1117.28 1787.58 1127.67 1786.61 1137.05 1786.64C1147.5 1786.66 1157.94 1786.7 1168.39 1786.72C1188.63 1786.79 1208.86 1786.84 1229.1 1786.57C1242.71 1786.39 1260.85 1788.73 1268.03 1774.18C1273.17 1763.76 1269.37 1751.6 1260 1745.28C1260.5 1749.1 1260.99 1752.9 1261.48 1756.72C1275.92 1743.95 1266.93 1719.91 1247.23 1721.07C1238.25 1721.6 1238.11 1734.97 1247.23 1735.13C1254.45 1735.26 1256.34 1741.94 1251.19 1746.42C1247.4 1749.7 1249.08 1755.39 1252.67 1757.86C1256.87 1760.75 1256.25 1766.88 1252.6 1769.6C1247.8 1773.19 1236.85 1771.29 1231.06 1771.29C1217.35 1771.29 1203.65 1771.39 1189.94 1771.62C1176.23 1771.86 1162.52 1772.08 1148.81 1772.32C1136.03 1772.53 1120.46 1770.58 1108.42 1775.31C1104.1 1777 1103.99 1782.55 1108.42 1784.22L1108.4 1784.23Z" fill="#262626"/>
<path d="M1116.51 1723.85C1104.95 1720.79 1092.18 1721.33 1084.98 1732.65C1079.36 1741.51 1082.12 1753.48 1091.67 1758.19L1093.36 1745.29C1083.15 1747.03 1078.1 1758.24 1082.19 1767.44C1086.61 1777.36 1099.84 1783.26 1110.17 1780.66C1115.42 1779.34 1116.86 1771.19 1111.75 1768.66C1109.09 1767.34 1107.02 1766.82 1104.14 1766.29C1102.71 1766.11 1101.32 1765.78 1099.95 1765.31C1096.06 1764.5 1095.12 1762.37 1097.13 1758.92C1102.94 1757.85 1104.16 1748.56 1098.81 1746.01C1092.83 1743.16 1097.72 1737.69 1101.83 1735.94C1105.49 1734.39 1111.33 1733.66 1115.23 1733.31C1120.37 1732.84 1122.08 1725.33 1116.51 1723.86V1723.85Z" fill="#262626"/>
<path d="M1240.79 1651.87C1238.78 1664.54 1238.87 1677.62 1238.7 1690.43C1238.55 1701.25 1235.73 1716.1 1241.38 1725.7C1242.9 1728.27 1246.57 1728.16 1248.1 1725.7C1253.72 1716.66 1251.42 1702.73 1251.57 1692.39C1251.77 1679.45 1252.32 1666.04 1250.61 1653.2C1249.95 1648.25 1241.77 1645.72 1240.79 1651.87Z" fill="#262626"/>
<path d="M1239.41 1782.3C1237.83 1798.65 1239.77 1815.05 1240.6 1831.39C1241.21 1843.43 1240.61 1857.93 1245.57 1869.13C1246.58 1871.42 1250.65 1871.45 1251.65 1869.13C1256.73 1857.29 1254.69 1842.16 1253.72 1829.64C1252.45 1813.42 1251.45 1796.94 1246.7 1781.31C1245.43 1777.14 1239.82 1778.24 1239.43 1782.29L1239.41 1782.3Z" fill="#262626"/>
<path d="M1095.79 1779.15C1090.39 1801.92 1089.28 1825.44 1087.8 1848.73C1087.05 1860.49 1086.63 1872.25 1085.71 1884C1084.95 1893.67 1081.3 1905.71 1085.88 1914.7C1086.7 1916.3 1089.04 1916.46 1090.25 1915.26C1097.07 1908.45 1096.73 1896.79 1097.8 1887.7C1099.19 1875.99 1100.3 1864.22 1101.05 1852.46C1102.57 1828.45 1103.75 1804.32 1104.15 1780.28C1104.23 1775.53 1096.91 1774.43 1095.79 1779.15Z" fill="#262626"/>
<path d="M1098.84 1649.19C1096.64 1662.51 1096.11 1675.9 1095.56 1689.35C1095.21 1697.85 1094.75 1706.35 1094.57 1714.85C1094.41 1722.03 1092.09 1731.23 1097.76 1736.65C1099.59 1738.41 1102.04 1738.16 1103.91 1736.65C1109.35 1732.3 1108.09 1724.44 1108.39 1718.05C1108.82 1709.01 1108.79 1699.95 1108.85 1690.91C1108.95 1677.48 1108.52 1663.98 1109.01 1650.57C1109.22 1644.86 1099.79 1643.35 1098.83 1649.19H1098.84Z" fill="#262626"/>
<path d="M1366.53 755.15C1383.23 737.153 1413.22 734.702 1432.07 750.718C1453.7 769.098 1455.65 800.13 1446.28 825.141C1427.13 876.152 1374.85 911.582 1320.87 913.233C1308.75 913.606 1308.7 932.507 1320.87 932.108C1373.67 930.378 1423.71 901.292 1451.26 856.138C1465.21 833.266 1473.49 806.518 1468.01 779.769C1463.15 756.106 1447.4 734.459 1424.03 726.568C1399.72 718.356 1370.81 725.282 1357.68 748.32C1354.57 753.768 1362.08 759.964 1366.54 755.159L1366.53 755.15Z" fill="#262626"/>
<path d="M1380.04 848.109C1387.92 840.114 1395.38 831.693 1404.43 824.941C1411.85 819.396 1422.6 815.477 1427.54 807.378C1428.94 805.092 1427.62 801.946 1425.06 801.26C1414.1 798.349 1402.35 806.856 1394.11 813.165C1384.35 820.648 1375.85 829.738 1370.88 841.052C1368.39 846.744 1375.04 853.192 1380.04 848.117V848.109Z" fill="#262626"/>
<path d="M1391.75 825.801C1395.2 829.077 1397.92 833.779 1398.51 838.558C1399.07 843.12 1397.26 847.805 1398.49 852.28C1399.26 855.069 1402.1 855.721 1404.47 854.713C1411.61 851.689 1411.65 841.687 1410.3 835.36C1408.68 827.843 1404.31 821.899 1397.47 818.388C1392.87 816.025 1387.71 821.951 1391.75 825.801Z" fill="#262626"/>
<path d="M735.578 713.993C715.672 699.741 687.915 708.936 671.346 724.169C650.831 743.027 645.633 773.347 647.684 799.913C649.988 829.703 661.567 853.427 684.064 873.145C694.565 882.348 705.744 891.003 717.045 899.189C728.711 907.654 740.933 916.013 755.815 914.136C758.606 913.78 761.414 909.965 758.501 907.662C749.661 900.684 739.846 895.479 730.788 888.752C721.93 882.174 713.429 874.839 705.266 867.435C687.741 851.541 672.424 834.057 668.773 809.941C665.548 788.607 666.339 763.762 679.083 745.452C690.584 728.923 710.638 723.353 729.598 728.193C738.516 730.47 742.55 718.981 735.587 713.993H735.578Z" fill="#262626"/>
<path d="M688.985 796.585C696.27 801.92 702.859 808.377 708.909 815.069C713.83 820.526 718.159 830.528 725 833.518C727.843 834.761 730.52 833.275 730.85 830.163C731.746 821.699 722.218 812.688 716.716 807.265C709.579 800.226 701.303 795.203 692.158 791.153C688.446 789.511 685.691 794.177 688.985 796.585Z" fill="#262626"/>
<path d="M690.69 821.621C696.166 820.978 701.652 820.561 707.163 820.465C712.196 820.378 716.847 820.83 721.202 817.945C723.584 816.363 723.584 813.139 721.202 811.558C716.482 808.421 711.431 809.264 706.059 809.95C700.487 810.663 694.984 811.662 689.508 812.905C684.726 813.991 685.648 822.221 690.69 821.63V821.621Z" fill="#262626"/>
<path d="M1091.97 568.537C1100.16 585.084 1110.57 600.761 1123.42 614.074C1134.42 625.467 1150.59 641.726 1166.53 645.254C1170.13 646.054 1172.72 641.822 1170.13 639.067C1164.93 633.522 1157.84 630.046 1151.72 625.623C1144.06 620.096 1136.95 613.9 1130.25 607.252C1117.54 594.625 1106.69 580.712 1097.88 565.088C1095.7 561.212 1090.03 564.627 1091.97 568.546V568.537Z" fill="#262626"/>
<path d="M1347.63 686.237C1356.26 697.143 1369.65 707.632 1383.96 708.614C1388.85 708.944 1390.59 701.732 1386.43 699.481C1380.97 696.517 1375.13 694.414 1369.9 690.99C1364.5 687.454 1359.97 682.935 1356 677.868C1351.31 671.89 1342.93 680.319 1347.62 686.246L1347.63 686.237Z" fill="#262626"/>
<path d="M708.467 642.326C701.626 656.456 695.549 670.908 689.525 685.403C686.709 692.181 684.075 699.038 681.371 705.868C678.659 712.716 674.817 719.599 675.599 727.081C675.816 729.158 678.068 730.244 679.702 728.784C684.318 724.674 685.831 719.442 688.021 713.741C691.046 705.868 694.037 697.96 696.923 690.026C702.46 674.801 707.789 659.506 712.353 643.959C713.013 641.7 709.528 640.11 708.458 642.317L708.467 642.326Z" fill="#262626"/>
<path d="M835.252 512.886C835.713 538.722 839.06 563.932 845.945 588.855C852.473 612.501 861.053 639.753 875.883 659.628C877.648 661.991 882.368 660.74 881.125 657.42C876.813 645.897 870.624 635.061 865.964 623.65C861.27 612.162 857.002 600.526 853.473 588.62C846.179 564.036 841.372 538.426 839.138 512.886C838.921 510.435 835.209 510.348 835.252 512.886Z" fill="#262626"/>
<path d="M875.605 591.679C877.7 611.189 880.473 635.043 891.748 651.633C893.06 653.571 895.903 652.354 895.468 650.069C893.565 640.101 889.166 630.681 886.315 620.939C883.446 611.145 881.342 601.195 879.786 591.123C879.421 588.777 875.353 589.298 875.605 591.688V591.679Z" fill="#262626"/>
<path d="M1026.88 530.796C1037.9 552.217 1050.77 572.613 1066.15 591.193C1080.94 609.051 1097.87 629.264 1118.66 640.127C1120.39 641.031 1121.88 638.945 1120.67 637.511C1105.77 619.783 1087 605.566 1071.82 587.873C1056.09 569.554 1041.93 549.975 1029.76 529.119C1028.67 527.259 1025.9 528.902 1026.88 530.796Z" fill="#262626"/>
<path d="M1289.07 497.269C1290.32 526.599 1292.33 556.145 1290.84 585.501C1290.08 600.413 1288.52 615.299 1285.34 629.907C1282.23 644.281 1275.83 657.864 1273.14 672.254C1272.57 675.287 1276.62 678.729 1279.02 675.678C1287.85 664.399 1291.4 649.695 1294.4 635.921C1297.64 621.069 1299.41 605.844 1300.04 590.663C1301.36 559.091 1298.2 527.841 1293.98 496.609C1293.6 493.819 1288.95 494.489 1289.06 497.269H1289.07Z" fill="#262626"/>
<path d="M880.16 83.6698C861.635 118.17 846.11 154.104 834.113 191.393C828.089 210.129 822.865 229.117 818.657 248.348C814.572 267.006 809.617 286.828 809.078 305.973C808.947 310.735 816.31 311.795 817.44 307.103C821.883 288.653 823.604 269.431 827.724 250.851C831.853 232.219 836.643 213.735 842.241 195.495C853.698 158.197 868.346 121.872 885.914 87.0416C887.836 83.2353 882.202 79.8809 880.16 83.6785V83.6698Z" fill="#262626"/>
<path d="M1236.74 84.8431C1249.86 119.3 1261.77 153.878 1268.73 190.177C1272.24 208.504 1274.55 227.058 1275.62 245.681C1276.17 255.162 1276.48 264.677 1276.28 274.167C1276.08 283.587 1274.45 293.251 1275.12 302.627C1275.36 305.895 1280.28 306.972 1281.12 303.435C1285.27 285.959 1283.45 265.303 1282.8 247.453C1282.13 228.717 1280.21 210.025 1277.15 191.523C1270.93 153.956 1259.79 116.328 1241.31 82.9052C1239.97 80.4893 1235.72 82.1317 1236.75 84.8257L1236.74 84.8431Z" fill="#262626"/>
<path d="M807.044 329.462C836.548 351.075 875.101 364.197 910.177 373.6C945.783 383.15 981.45 389.668 1018.33 391.275C1082.58 394.082 1150.9 389.563 1211.92 367.942C1243.97 356.584 1274.24 339.656 1297.22 314.228C1301.28 309.736 1294.64 303.044 1290.54 307.554C1248.61 353.769 1183.22 370.775 1123.3 377.554C1057.94 384.958 987.465 384.297 923.442 368.264C904.37 363.484 885.515 357.532 867.051 350.779C847.145 343.497 828.029 334.007 807.835 327.594C806.662 327.22 806.175 328.811 807.053 329.454L807.044 329.462Z" fill="#262626"/>
<path d="M1126.62 1218.94C1128.51 1206.81 1127.43 1193.59 1127.69 1181.29C1126.87 1182.37 1126.05 1183.44 1125.23 1184.52C1143.28 1182.04 1161.71 1181.35 1179.84 1179.37C1184.45 1178.86 1190.08 1177.71 1194.7 1178.42C1201.8 1179.53 1199.12 1179.24 1200.83 1183.9C1203.37 1190.79 1201.76 1202.55 1201.79 1209.82C1201.82 1218.56 1201.26 1227.3 1200.43 1236C1199.6 1244.81 1199.41 1255 1194.39 1262.6C1185.58 1275.93 1171.75 1274.61 1157.94 1275.53C1154.51 1275.75 1151.57 1280.47 1154.8 1283.1C1172 1297.1 1198.28 1280.81 1205.46 1263.06C1210.61 1250.34 1210.25 1234.54 1210.53 1221.04C1210.85 1206.07 1210.26 1189.46 1203.6 1175.75C1203.27 1175.04 1202.38 1174.82 1201.67 1174.96C1196.22 1176.09 1187.24 1174.2 1181.69 1173.81C1174.87 1173.33 1168.1 1172.73 1161.27 1173.04C1148.45 1173.64 1136.09 1176.07 1123.44 1178.04C1122.29 1178.22 1121.41 1179.35 1121.1 1180.38C1117.39 1192.26 1115.62 1207.15 1120.55 1218.93C1121.58 1221.38 1126.08 1222.4 1126.62 1218.93V1218.94Z" fill="#262626"/>
<path d="M1126.52 1201.09C1138.91 1202.46 1151.35 1202.74 1163.79 1201.9C1175.04 1201.15 1186.84 1202.49 1197.77 1199.53C1199.97 1198.93 1200.15 1195.38 1197.77 1194.89C1186.16 1192.52 1173.66 1194.58 1161.83 1194.59C1149.84 1194.61 1137.89 1195.76 1126.08 1197.82C1124.08 1198.17 1124.81 1200.9 1126.52 1201.09Z" fill="#262626"/>
<path d="M718.228 1131.63C725.974 1125.66 730.677 1117.28 736.17 1109.3C742.873 1099.58 749.662 1089.91 756.242 1080.12C769.473 1060.44 782.208 1040.93 793.318 1019.97C794.161 1018.37 791.97 1016.43 790.701 1017.95C776.166 1035.38 763.501 1053.6 750.792 1072.39C744.55 1081.61 738.509 1090.97 732.415 1100.3C726.339 1109.59 718.576 1118.84 715.629 1129.65C715.264 1130.99 716.933 1132.62 718.211 1131.63H718.228Z" fill="#262626"/>
<path d="M800.837 1007.01C801.315 1007.01 801.315 1006.27 800.837 1006.27C800.359 1006.27 800.359 1007.01 800.837 1007.01Z" fill="#262626"/>
<path d="M815.058 993.356C817.292 990.054 819.474 986.717 821.787 983.475C824.012 980.373 826.498 977.549 827.281 973.716C827.872 970.822 824.577 968.789 822.334 970.84C819.431 973.482 818.292 977.027 816.754 980.538C815.154 984.197 813.398 987.786 811.703 991.401C810.642 993.651 813.641 995.45 815.058 993.365V993.356Z" fill="#262626"/>
<path d="M1247.66 1270.03C1260.52 1271.43 1279.1 1270.27 1289.49 1261.73C1292.1 1259.58 1289.95 1254.95 1286.74 1255.09C1280.15 1255.39 1274.08 1258.32 1267.72 1259.94C1260.87 1261.68 1253.81 1262.75 1246.85 1264.04C1243.2 1264.71 1244.51 1269.69 1247.66 1270.03Z" fill="#262626"/>
<path d="M1307.4 1257.06C1323.29 1253.2 1340.54 1249.57 1354.53 1240.73C1357.29 1238.98 1355.43 1235.12 1352.39 1235.66C1336.39 1238.5 1321.06 1245.58 1305.53 1250.28C1301.2 1251.59 1302.99 1258.13 1307.4 1257.06Z" fill="#262626"/>
<path d="M940.966 1492.99C936.481 1517.23 932.578 1541.02 931.752 1565.79C931.352 1577.87 931.622 1589.99 931.265 1602.08C930.917 1613.8 928.996 1627.18 931.43 1638.68C931.622 1639.57 933.012 1639.55 933.212 1638.68C935.733 1627.7 934.421 1615.28 934.96 1604C935.542 1591.79 936.924 1579.83 938.35 1567.7C941.245 1542.99 942.436 1518.21 944.609 1493.48C944.791 1491.42 941.349 1490.94 940.975 1492.99H940.966Z" fill="#262626"/>
<path d="M1175.07 1482.46C1177.1 1509.16 1182.74 1535.47 1184.91 1562.16C1187.11 1589.16 1185.5 1615.68 1182.97 1642.51C1182.65 1645.83 1187.84 1645.8 1188.15 1642.51C1190.7 1615.31 1190.37 1587.55 1189.7 1560.25C1189.03 1533.78 1187.41 1507.21 1178.88 1481.94C1178.22 1479.99 1174.89 1480.15 1175.07 1482.46Z" fill="#262626"/>
</g>
<defs>
<clipPath id="clip0_157_132">
<rect width="986" height="1913" fill="white" transform="translate(507 43)"/>
</clipPath>
</defs>
</svg>
