<svg width="479" height="807" xmlns="http://www.w3.org/2000/svg">
  <path d="m235.687272,10.745544c-82.4,0 -155.600999,39.503421 -200.100999,100.239931c-9.699,13.332405 -11,31.010185 -3.5,45.626451l20.4,40.095972c7,13.826197 6.3,30.220117 -2,43.355005l-42.6,67.748367c-9.101,14.419736 -9,32.590322 0.1,47.010059l41.5,65.574691c8.9,14.023714 9.1,31.702483 0.7,46.022473l-43.7,73.67388c-8.2,13.826197 -8.2,31.010185 0,44.935141l44.8,75.650039c7.8,13.232658 8.2,29.52782 1,43.058729l-51.8,97.770967c14.4,7.209374 31.8,6.221789 45.4,-3.061515c42.399,-29.133773 133.198999,-91.746695 133.198999,-91.746695c76.7,-54.218445 149.899999,-113.473577 206.999999,-188.33256c49.101,-64.390576 85,-140.631191 91.601,-221.021641c11.801,-146.163645 -84.099,-286.599295 -241.998999,-286.599295z"/>
</svg>