<svg width="503" height="808" xmlns="http://www.w3.org/2000/svg">
  <path d="m303.578514,710.970421s91.4,63.024167 134.1,92.30311c1.7,1.091757 3.4,2.183514 5.1,3.07677l51.8,-98.25815a45,44.662795 0 0 0 -1,-43.273286l-44.8,-76.026003a45.15,44.811671 0 0 1 0,-45.159049l43.7,-74.04099a44.87,44.53377 0 0 0 -0.7,-46.250806l-41.5,-65.902436a45.12,44.781896 0 0 1 -0.1,-47.243312l42.6,-68.08595a44.9,44.563545 0 0 0 2,-43.571038c-20.7,-40.89127 -39.1,-81.782541 -72.1,-114.535257a247.77,245.913351 0 0 0 -176.1,-72.353728c-157.8,0 -254.3,141.134433 -242.3,287.926154c6.6,80.790034 42.2,157.411541 91.3,222.122969c57.2,75.331248 131.3,134.881642 208,189.271002z"/>
</svg>