<svg width="2000" height="2000" viewBox="0 0 2000 2000" fill="none" xmlns="http://www.w3.org/2000/svg">
<g clip-path="url(#clip0_157_304)">
<path d="M1792 1492C1782.65 1474.45 1773.38 1456.81 1764.51 1439.01C1733.93 1377.6 1708.44 1313.92 1682.74 1250.41C1669.94 1218.76 1659.35 1186.28 1654.27 1152.42C1650.45 1126.98 1647.53 1101.4 1645.43 1075.76C1642.67 1041.95 1643.55 1008.23 1652.53 975.184C1657.75 956.063 1662.64 936.801 1668.84 917.988C1680.67 882.132 1676.26 849.028 1655.48 817.496C1645.93 803.007 1636.19 788.238 1629.53 772.346C1613.5 733.962 1591.96 698.555 1572.51 662.054C1569.39 656.185 1565.2 651.945 1558.72 650.176C1550.01 647.79 1541.42 644.42 1532.55 643.269C1501.86 639.254 1470.97 636.643 1440.36 632.15C1427.84 630.297 1418.38 633.835 1408.27 640.237C1397.82 646.835 1386.2 651.524 1373.4 657.898C1366.52 606.374 1354.22 558.416 1333.47 512.817C1312.58 466.909 1278.54 430.94 1242.46 394.803C1255.1 394.326 1262.79 388.682 1269.22 380.932C1271.89 377.731 1274.3 374.278 1276.47 370.712C1296.96 336.737 1311.76 300.6 1318.64 261.29C1322.35 240.119 1317.6 220.773 1306.09 203.589C1293.23 184.383 1276.78 168.716 1256.47 156.586C1227.1 139.065 1196.19 124.745 1165.53 109.835C1135.54 95.2625 1104.51 84.34 1071.49 79.7351C1057.06 77.7135 1042.4 75.6357 1027.91 76.0568C1003.68 76.7869 981.888 85.7158 962.261 100.148C932.525 122.021 902.621 143.642 872.717 165.29C827.229 198.254 793.983 240.681 773.85 293.187C766.746 311.719 760.007 330.391 758.014 350.355C757.312 357.431 757.171 364.254 762.366 370.066C763.405 371.217 764.303 373.295 764.051 374.727C762.394 384.302 761.804 394.354 755.711 402.44C747.344 413.56 738.892 424.65 729.766 435.124C701.799 467.161 677.876 501.192 667.121 543.394C657.575 580.823 652.324 618.251 659.624 657.561C653.307 659.723 646.82 662.11 640.25 664.188C614.052 672.499 587.601 680.024 561.712 689.149C542.366 696 523.356 703.778 503.364 708.579C500.696 709.225 498.029 709.843 495.305 710.264C488.145 711.415 480.676 711.584 473.825 713.718C454.899 719.614 436.311 726.522 417.47 732.671C404.357 736.967 395.652 745.194 390.317 758.026C384.056 773.104 376.727 787.733 369.707 802.474C357.605 827.913 345.475 853.324 333.176 878.65C330.116 884.94 329.863 891.202 331.07 897.94C333.092 909.228 335.17 920.572 336.405 931.943C339.971 964.43 343.79 996.917 346.261 1029.49C348.816 1063.21 348.227 1096.93 341.46 1130.37C332.39 1175.16 319.137 1218.74 304.592 1261.95C294.231 1292.72 287.576 1324.34 281.595 1356.15C278.647 1371.85 276.653 1387.74 272.975 1403.27C265.843 1433.4 257.082 1463.13 250.343 1493.32C239.364 1542.56 229.592 1592.1 211.397 1639.41C209.656 1643.9 208.758 1648.79 208 1653.59C207.747 1655.13 209.263 1656.93 210.471 1659.79C212.324 1657.55 213.84 1656.45 214.317 1655.02C221.702 1632.19 230.126 1609.59 235.994 1586.37C245.878 1547.25 253.937 1507.66 263.175 1468.38C268.201 1447.04 274.07 1425.93 279.629 1404.73C281.623 1397.09 284.936 1389.57 285.638 1381.82C288.98 1344.86 297.432 1308.98 308.495 1273.77C322.057 1230.61 336.405 1187.71 346.037 1143.43C353.478 1109.23 357.1 1074.72 353.562 1039.74C352.102 1025.19 350.417 1010.7 348.985 996.159C345.7 962.942 345.138 929.416 338.174 896.621C336.77 890.05 338.09 884.35 341.263 878.65C345.643 870.732 349.911 862.73 353.73 854.559C368.753 822.438 383.663 790.288 398.404 758.026C402.251 749.602 408.035 743.762 416.768 740.701C434.514 734.524 452.344 728.599 469.894 721.945C486.348 715.711 502.578 716.863 518.976 721.608C536.02 726.55 553.148 731.183 570.08 736.461C579.908 739.522 590.072 742.077 599.142 749.097C591.308 755.19 584.035 761.058 576.566 766.646C557.613 780.853 529.197 783.661 508.559 767.348C505.835 765.186 502.83 763.389 499.882 761.563C496.316 759.345 493.199 759.823 491.093 763.641C488.089 769.089 483.681 772.991 477.868 774.873C471.943 776.782 465.738 779.197 459.701 779.084C448.947 778.916 447.795 782.089 446.897 790.793C445.296 805.787 440.748 820.023 431.144 832.237C427.494 836.87 424.77 842.205 421.148 846.838C417.638 851.33 417.638 854.812 420.811 859.838C431.313 876.432 436.873 894.402 433.924 914.451C433.475 917.427 434.795 921.189 436.451 923.829C440.158 929.697 445.1 934.807 448.666 940.76C452.737 947.555 457.005 954.603 459.224 962.1C465.485 983.327 466.945 1005.23 464.643 1027.24C463.127 1041.76 460.74 1056.19 458.69 1070.65C458.269 1073.66 456.696 1076.91 462.621 1078.68C463.66 1076.15 465.176 1073.6 465.766 1070.85C467.198 1064.05 468.209 1057.15 469.332 1050.29C473.347 1025.36 473.516 1000.4 469.894 975.409C467.282 957.382 460.15 941.35 447.964 927.703C442.601 921.695 440.354 915.237 441.113 906.897C442.657 890.05 436.985 874.691 429.095 860.063C427.831 857.704 426.511 855.345 424.462 851.583C428.028 850.488 430.723 848.887 433.363 848.972C447.964 849.561 461.442 854.054 473.179 862.758C480.704 868.346 488.931 868.935 497.664 868.598C503.476 868.374 509.289 868.57 514.343 868.57C521.503 881.43 523.721 893.701 520.745 906.897C519.818 910.997 520.352 914.844 524.058 918.213C529.449 923.071 534.026 928.827 539.081 934.049C542.927 938.008 546.971 941.799 550.958 945.59C556.209 950.559 562.274 954.883 566.626 960.555C574.657 971.029 581.649 982.316 589.23 993.182C591.083 995.85 592.122 999.753 596.559 999.556C597.775 995.887 594.799 988.849 587.629 978.441C582.884 971.562 578.307 964.542 573.169 957.972C568.114 951.57 562.414 945.646 556.686 939.16C564.52 932.028 571.428 924.025 583.165 923.941C590.157 923.885 590.353 923.632 591.027 916.276C593.077 894.178 599.338 873.175 608.885 853.324C613.041 844.704 619.303 836.926 625.564 829.541C630.815 823.336 632.023 823.673 638.986 827.379C657.041 837.01 675.517 844.704 698.682 839.678C695.622 843.721 693.797 846.108 691.971 848.466C683.66 859.22 675.293 869.946 670.603 882.918C664.931 898.614 658.894 914.226 653.84 930.118C646.343 953.648 638.986 977.262 632.612 1001.1C618.713 1053.16 595.323 1100.78 565.531 1145.26C532.651 1194.34 504.431 1245.78 483.624 1301.12C478.009 1316.03 473.965 1331.56 469.753 1346.97C466.271 1359.72 463.464 1372.66 460.543 1385.55C456.612 1402.85 452.063 1420.06 449.143 1437.52C444.65 1464.62 441.478 1491.94 437.49 1519.12C431.622 1559.08 425.809 1599.09 424.77 1639.46C423.142 1702.13 422.973 1764.81 422.3 1827.5C422.3 1829.22 423.507 1830.93 424.714 1834.05C426.652 1831.24 428.393 1829.84 428.673 1828.15C429.404 1824.08 429.769 1819.87 429.797 1815.71C429.965 1770.42 429.319 1725.13 430.358 1679.87C431.088 1648.25 433.531 1616.61 436.283 1585.08C438.248 1562.58 442.32 1540.26 444.875 1517.8C449.986 1473.16 456.079 1428.73 467.984 1385.3C475.594 1357.53 478.093 1328.41 490.672 1301.93C503.083 1275.88 513.585 1248.84 527.063 1223.37C540.569 1197.9 556.855 1173.92 571.709 1149.13C587.236 1123.16 604.758 1098.2 615.793 1069.86C625.255 1045.58 632.921 1020.62 641.317 995.906C643.507 989.476 645.472 982.99 647.522 976.532C649.46 979.845 649.488 982.793 649.46 985.714C649.039 1011.49 647.607 1037.29 648.421 1063.01C650.246 1120.15 649.067 1177.21 646.231 1234.26C643.984 1279.81 642.777 1325.41 640.952 1370.98C638.621 1429.52 645.023 1487.05 660.691 1543.49C668.16 1570.36 677.342 1596.5 692.224 1620.51C697.194 1628.54 700.255 1638.51 701.518 1647.94C706.095 1682.23 705.73 1716.71 702.979 1751.13C701.715 1767.08 699.553 1782.94 697.98 1798.86C697.672 1802.09 696.127 1805.8 700.283 1808.72C701.603 1807.88 703.456 1807.34 704.242 1806.11C710.139 1797.07 715.755 1787.89 721.567 1778.82C729.036 1767.19 733.107 1754.39 735.55 1740.88C740.857 1711.65 742.935 1682.17 742.037 1652.52C741.7 1641.12 740.408 1629.61 738.162 1618.43C733.36 1594.48 729.429 1570.53 729.204 1546.05C729.008 1523.67 730.917 1501.54 737.179 1479.95C740.464 1468.63 745.603 1460.01 751.359 1455.35C750.292 1473.46 748.691 1491.83 748.186 1510.25C747.035 1552.42 749.169 1594.45 756.301 1636.12C762.619 1672.96 773.373 1708.56 786.402 1743.52C802.351 1786.29 816.924 1829.41 826.106 1874.23C832.115 1903.54 838.741 1932.74 838.741 1962.96C838.741 1967.11 837.702 1972.14 842.448 1974.94C848.148 1973.71 848.148 1968.82 849.13 1965.06C857.919 1931.76 867.045 1898.54 875.019 1865.05C882.938 1831.74 883.612 1798.11 875.104 1764.75C870.639 1747.23 864.911 1730.04 859.857 1712.66C845.508 1663.39 832.816 1613.88 837.618 1561.77C839.612 1540.32 840.875 1518.75 843.852 1497.41C846.912 1475.74 851.995 1454.34 855.617 1432.72C858.172 1417.39 859.744 1401.89 862.047 1384.15C863.086 1397.23 864.153 1407.96 864.742 1418.71C866.904 1457.99 868.73 1497.27 871.032 1536.53C873.082 1571.32 877.462 1605.97 885.352 1639.83C895.04 1681.47 907.254 1722.55 918.402 1763.85C918.935 1765.84 919.412 1768.79 920.788 1769.47C927.471 1772.7 926.601 1778.93 927.471 1784.46C928.454 1790.64 928.735 1796.98 930.251 1803.02C933.789 1817.17 937.748 1831.18 941.848 1845.19C942.634 1847.89 943.504 1851.62 949.345 1850.19C948.587 1846.99 947.941 1843.79 947.098 1840.62C944.122 1829.19 940.359 1817.9 938.197 1806.31C929.324 1758.57 927.499 1710.19 926.208 1661.81C924.719 1607.15 926.123 1552.48 929.633 1497.89C930.897 1478.43 932.16 1458.98 932.61 1439.49C933.284 1411.64 934.182 1383.75 933.199 1355.96C932.469 1335.18 929.942 1314.29 926.32 1293.79C918.037 1246.87 902.677 1202.23 879.765 1160.31C877.181 1155.59 875.104 1150.62 872.576 1145.34C874.542 1145.26 875.328 1144.95 875.749 1145.23C877.518 1146.35 879.203 1147.59 880.86 1148.85C904.811 1167.16 931.037 1181.5 959.06 1192.48C975.262 1198.86 991.885 1204.19 1009.66 1203.77C1011.76 1203.71 1013.81 1202.65 1016.4 1201.89C1012.05 1197.48 1012.05 1197.37 1009.43 1197.23C993.963 1196.55 979.165 1192.51 964.872 1187.04C920.367 1169.94 881.169 1144.72 848.176 1110.02C811.841 1071.77 791.4 1027.16 792.298 973.696C792.411 966.339 793.309 959.264 797.128 951.57C861.935 973.106 915.201 953.171 960.183 906.224C959.144 912.092 957.46 918.522 956.954 925.036C954.961 951.346 973.044 967.94 998.736 962.802C1004.18 961.706 1008.87 961.903 1013.87 963.223C1024.43 966.003 1034.12 964.149 1042.03 956.652C1047 951.935 1051.92 951.963 1058.15 953.255C1079.44 957.663 1096.11 944.551 1097.52 922.818C1097.71 919.842 1097.88 916.865 1098.19 911.811C1137.62 946.32 1184.09 949.829 1231.93 948.931C1231.93 955.529 1232.66 961.819 1231.79 967.884C1229.74 981.979 1226.94 995.99 1224.41 1010.03C1217.95 1045.83 1208.07 1080.48 1190.77 1112.77C1176.06 1140.26 1156.46 1163.45 1130.85 1181.34C1114.51 1192.71 1096.31 1197.45 1076.43 1195.29C1061.27 1193.63 1052.25 1186.64 1049.84 1171.85C1046.47 1151.26 1044.34 1130.49 1041.95 1109.79C1041.56 1106.54 1042.51 1103.11 1042.76 1100.55C1052.03 1098.2 1060.37 1096.88 1068.06 1093.87C1072.58 1092.1 1076.57 1088.09 1079.88 1084.3C1082.64 1081.15 1081.82 1077.11 1078.71 1073.94C1067.64 1062.59 1045.35 1066.86 1039.34 1081.55C1037.93 1085 1036.76 1088.54 1035.27 1092.55C1003.28 1086.4 976.947 1071.47 951.395 1049.2C962.654 1047.65 971.471 1045.27 980.204 1045.52C990.481 1045.8 1001.18 1045.44 1010.73 1050.97C1026.56 1060.15 1042.54 1057.31 1057.56 1049.59C1067.36 1044.57 1076.82 1042.52 1087.61 1044.12C1105.52 1046.76 1122.99 1043.72 1140.11 1038.36C1143.62 1037.27 1147.84 1036.45 1147.56 1030.67C1146.29 1029.97 1144.92 1028.59 1143.4 1028.42C1133.74 1027.24 1125.79 1022.3 1117.59 1017.61C1109.14 1012.78 1100.78 1007.53 1091.73 1004.08C1070.28 995.906 1049.03 993.856 1029.9 1010.39C1029.65 1010.59 1029.26 1010.62 1028.92 1010.73C1011.6 1001.61 994.664 1001.94 979.474 1011.43C963.104 1021.65 945.638 1029.15 926.432 1032.18C922.557 1032.8 918.767 1033.9 915.06 1034.74C915.875 1040.05 918.654 1040.19 921.518 1039.62C933.789 1037.24 946.34 1035.97 957.712 1030.08C966.95 1025.3 976.413 1020.92 985.567 1015.98C998.427 1009.07 1014.04 1009.55 1023.53 1017.67C1022.69 1020.92 1021.4 1024.24 1021.12 1027.61C1020.81 1030.95 1020.83 1034.65 1022.01 1037.71C1022.83 1039.85 1025.8 1042.46 1027.88 1042.49C1030.52 1042.54 1034.65 1040.89 1035.58 1038.81C1037.32 1034.91 1037.74 1030.19 1037.74 1025.81C1037.74 1022.83 1036.03 1019.89 1035.01 1016.74C1044.76 1005.17 1057.59 1004.16 1071.18 1005.76C1093.47 1008.4 1110.43 1022.27 1130.65 1033.42C1116.44 1037.13 1103.89 1039.34 1091 1037.35C1077.86 1035.33 1065.79 1036.62 1053.83 1043.44C1042.71 1049.79 1029.76 1052.32 1017.75 1046.25C1001.68 1038.11 985.174 1037.6 967.961 1039.57C959.032 1040.58 949.991 1040.83 941.033 1041.56C939.461 1041.67 937.945 1042.43 935.502 1043.16C936.934 1045.58 937.552 1047.63 938.899 1048.78C967.035 1072.48 996.742 1093.31 1034.31 1099.63C1034.48 1101.9 1034.54 1103.61 1034.76 1105.3C1037.51 1128.41 1040.01 1151.57 1043.19 1174.63C1045.18 1189.03 1054.59 1197.76 1068.29 1200.71C1076.96 1202.56 1086.23 1202.76 1095.16 1202.28C1102.6 1201.89 1109.93 1199.42 1117.62 1197.76C1117.23 1198.97 1117.17 1200.04 1116.64 1200.77C1101.14 1221.66 1091.62 1245.72 1080.81 1269.08C1062.67 1308.31 1057.11 1350.31 1053.6 1392.79C1049.62 1441.06 1056.44 1487.92 1071.66 1533.72C1072.92 1537.48 1072.95 1543.35 1078.4 1542.76C1084.1 1542.14 1082.58 1536.25 1082.69 1532.46C1083.56 1503.14 1091.28 1475.54 1102.26 1448.56C1118.58 1408.46 1140.82 1371.37 1160.39 1332.9C1160.84 1332 1161.65 1331.27 1162.3 1330.46C1162.77 1330.71 1163.28 1330.94 1163.76 1331.19C1159.77 1339.19 1155.7 1347.14 1151.77 1355.17C1138.65 1381.96 1129.33 1410.01 1126.75 1439.8C1123.83 1473.41 1121.3 1507.1 1119.7 1540.8C1118.16 1573.34 1121.83 1605.21 1133.63 1636.12C1153.99 1689.53 1172.01 1743.69 1175.21 1801.5C1175.55 1807.74 1176.36 1814 1177.74 1820.09C1178.36 1822.79 1180.74 1826.89 1182.65 1827.06C1185.41 1827.34 1189.11 1825.26 1191.25 1823.07C1193.83 1820.43 1195.63 1816.78 1197.06 1813.27C1210.85 1779.43 1223.82 1745.46 1232.49 1709.72C1242.66 1667.88 1248.86 1625.79 1249.57 1582.83C1249.96 1558.09 1249.9 1533.38 1250.27 1508.65C1250.75 1475.23 1250.66 1441.76 1256.14 1408.66C1257.63 1399.62 1258.27 1390.21 1263.72 1379.93C1263.72 1383.42 1263.77 1384.76 1263.72 1386.11C1261.92 1421.49 1265.82 1456.31 1274.14 1490.65C1280.85 1518.36 1288.29 1545.93 1294.63 1573.73C1302.64 1608.75 1308.48 1644.15 1307.78 1680.21C1306.99 1720.69 1300.76 1760.57 1292.56 1800.16C1287.25 1825.71 1281.83 1851.23 1276.61 1876.78C1275.43 1882.62 1274.22 1889.31 1280.65 1892.67C1287.19 1896.13 1291.57 1890.91 1295.87 1886.72C1309.09 1873.86 1322.24 1860.92 1335.69 1848.28C1368.54 1817.45 1398.22 1784.49 1421.94 1745.49C1457.32 1687.34 1473.44 1624.02 1479.11 1557.5C1482.88 1513.36 1479.68 1469.14 1474.9 1425.08C1471.48 1393.58 1466.9 1362.22 1458.28 1331.67C1451.85 1308.92 1444.18 1286.52 1436.88 1264C1428.74 1238.92 1424.22 1213.37 1425.76 1186.95C1426.18 1179.6 1426.21 1172.07 1429.89 1164.57C1458.34 1198.72 1479.2 1236.43 1496.24 1276.16C1516.43 1323.22 1537.91 1369.6 1563.35 1414.05C1572.25 1429.58 1578.99 1445.83 1584.16 1462.91C1597.16 1505.92 1607.49 1549.61 1615.41 1593.81C1622.6 1633.88 1629.28 1674.03 1635.18 1714.29C1642.51 1764.19 1648.85 1814.25 1655.45 1864.23C1657.78 1881.81 1659.58 1899.47 1661.66 1917.1C1662.08 1920.75 1662.11 1924.74 1666.18 1926.62C1670.73 1924.29 1669.24 1920.67 1668.84 1917.33C1666.99 1901.44 1665.17 1885.54 1663.29 1869.65C1660.2 1843.4 1657.64 1817.06 1653.91 1790.89C1647.7 1747.48 1640.79 1704.21 1634.11 1660.86C1625.94 1607.88 1616.17 1555.2 1602.77 1503.26C1594.35 1470.54 1585.81 1437.75 1568.69 1408.24C1542.21 1362.67 1520.95 1314.68 1499.78 1266.53C1485.07 1233.08 1467.24 1201.19 1444.91 1171.87C1434.64 1158.37 1425.65 1143.6 1418.1 1128.41C1397.38 1086.66 1384.23 1042.4 1376.96 996.355C1372.44 967.828 1368.31 939.16 1358.6 911.811C1352.34 894.178 1348.07 875.702 1338.18 859.417C1337.09 857.62 1337.74 853.998 1338.77 851.779C1345.09 838.414 1348.57 824.291 1350.68 809.746C1351.27 805.731 1352.45 801.8 1353.49 797.307C1359.3 798.094 1364.41 798.992 1369.58 799.413C1374.8 799.834 1380.05 799.75 1386.45 799.919C1383.73 803.063 1382.21 804.945 1380.56 806.742C1378.67 808.791 1376.57 810.673 1374.83 812.835C1369.63 819.209 1370.28 824.375 1377.78 827.969C1383.31 830.608 1389.57 832.012 1395.66 833.192C1400.69 834.174 1405.94 834.034 1411.33 834.399C1421.61 860.933 1431.77 887.102 1441.8 913.019C1417.14 939.131 1409.84 948.987 1409.42 956.793C1413.89 958.169 1415.46 954.49 1417.54 951.991C1423.71 944.466 1429.92 936.913 1435.87 929.22C1441.18 922.369 1447.19 917.09 1456.54 916.809C1459.54 916.725 1462.6 915.321 1465.5 914.17C1482.65 907.403 1499.89 901.001 1518.23 899.344C1518.96 898.053 1519.69 897.21 1519.91 896.256C1521.88 887.832 1522.83 879.156 1528.36 871.856C1529.49 870.367 1528.81 867.166 1528.31 864.92C1526.82 858.49 1524.94 852.145 1523.31 845.743C1521.91 840.267 1520.61 834.736 1519.04 828.306C1530.27 835.999 1540.21 842.822 1550.29 849.73C1540.02 864.892 1538.05 882.61 1539.57 900.411C1541.67 924.868 1538.39 947.555 1523.87 967.968C1520.64 972.489 1518 977.43 1515.03 982.148C1504.19 999.219 1494.53 1016.91 1487.03 1035.75C1478.38 1057.51 1471.45 1079.69 1469.29 1103.14C1468.95 1106.62 1469.51 1110.19 1469.65 1114.14C1476.05 1112.96 1475.38 1108.98 1475.77 1105.81C1480.88 1064.64 1495.79 1027.1 1517.39 991.975C1521.93 984.562 1526.34 977.037 1531.17 969.793C1544.06 950.447 1548.67 929.444 1546.73 906.224C1545.72 894.262 1547.04 881.88 1548.89 869.946C1550.35 860.4 1553.3 850.376 1566.83 851.836C1566.92 844.339 1561.27 843.721 1556.98 842.317C1534.04 834.792 1518.12 819.77 1509.3 797.476C1507.19 792.169 1504.41 790.597 1499.13 791.271C1485.38 793.068 1471.59 794.443 1458.76 784.588C1451.82 800.901 1444.89 816.597 1427.87 823.027C1411.53 829.204 1395.1 829.148 1378.82 820.276C1396.9 798.88 1414.14 778.439 1431.44 758.026C1435.39 753.365 1440.39 750.613 1446.51 749.378C1455.02 747.665 1463.45 745.39 1471.9 743.341C1489.81 738.96 1507.75 734.749 1525.58 730.088C1536.68 727.195 1544.71 729.751 1551.45 739.69C1563.15 756.959 1575.96 773.497 1588.37 790.288C1590.5 793.18 1592.02 797.026 1596.2 797.139C1599.91 793.826 1597.21 791.692 1595.73 789.586C1583.4 772.318 1570.29 755.527 1558.83 737.697C1549.73 723.517 1538.3 718.884 1522.55 723.377C1521.54 723.658 1520.53 723.91 1519.52 724.163C1495.88 730.003 1472.35 736.209 1448.56 741.459C1438.15 743.762 1429.81 748.226 1423.18 756.509C1415.99 765.466 1408.55 774.227 1401.14 783.015C1399.34 785.121 1397.54 787.873 1395.19 788.743C1381.79 793.657 1368.29 793.741 1354.44 789.136C1355.12 780.657 1356.21 773.048 1356.21 765.466C1356.21 759.542 1359.08 756.874 1363.96 754.6C1371.51 751.09 1379.21 747.58 1386.03 742.891C1399.79 733.457 1413.86 724.191 1426.16 713.044C1437.56 702.739 1449.63 697.517 1464.88 695.944C1486.64 693.726 1508.2 689.402 1529.8 685.611C1541.73 683.505 1550.6 686.398 1556.7 697.713C1562.48 708.411 1569.78 718.267 1575.87 728.768C1585.81 745.868 1598.14 761.648 1605.02 780.516C1605.72 782.426 1607.66 783.886 1609.01 785.542C1611 782.678 1611.59 780.292 1610.89 778.382C1608.73 772.514 1606.65 766.505 1603.5 761.17C1590.53 739.325 1577.25 717.677 1563.91 696.057C1561.19 691.62 1557.82 687.605 1554.65 683.449C1551.92 679.911 1548.36 678.114 1543.78 678.479C1536.17 679.069 1528.48 679.069 1520.92 680.164C1502.67 682.804 1484.53 686.033 1466.28 688.728C1463.36 689.149 1459.8 688.897 1457.24 687.577C1449.07 683.365 1442.19 685.724 1434.5 689.374C1421.94 695.326 1409 700.493 1395.92 705.21C1385.41 708.973 1374.58 708.299 1364.44 703.413C1361.88 702.178 1358.21 699.061 1358.4 697.124C1359.16 689.262 1361.04 681.456 1362.87 673.734C1364.19 668.119 1369.72 667.276 1373.96 665.142C1387.63 658.291 1401.76 652.226 1414.92 644.505C1422.28 640.18 1429.25 638.131 1437.53 639.113C1465.86 642.427 1494.25 645.263 1522.5 648.969C1533.11 650.373 1543.47 653.686 1553.94 656.101C1560.6 657.645 1564.56 661.997 1567.53 667.95C1571.75 676.346 1576.72 684.348 1581.1 692.659C1593.14 715.403 1606.23 737.697 1616.65 761.17C1627.03 784.56 1640.26 806.096 1653.57 827.716C1662.13 841.643 1666.23 857.002 1667.97 873.035C1669.74 889.348 1665.22 904.735 1660.56 920.122C1655.34 937.447 1650.26 954.799 1645.79 972.32C1639.31 997.731 1635.99 1023.62 1636.81 1049.87C1637.28 1065.51 1639.22 1081.1 1640.04 1096.74C1642.7 1147.98 1654.16 1197.4 1672.78 1244.91C1691.95 1293.82 1712.9 1342.03 1733.65 1390.32C1750.47 1429.49 1770.32 1467.17 1790.46 1504.72C1790.96 1500.5 1791.47 1496.26 1791.97 1492.05L1792 1492ZM1051.22 1077C1058.99 1072.87 1066.38 1075.12 1075.11 1079.66C1066.83 1089.88 1056.21 1090 1046.44 1092.22C1045.04 1085.79 1046.75 1079.36 1051.22 1077ZM1444.69 820.219C1451.76 813.93 1456.73 805.225 1462.46 797.813C1475.44 798.487 1488.1 799.132 1502.76 799.891C1505.26 806.966 1508.77 815.558 1511.26 824.431C1514.77 836.786 1517.41 849.365 1520.64 861.803C1521.77 866.071 1521.43 869.581 1519.44 873.709C1516.6 879.549 1515.06 885.979 1513.06 891.875C1492.03 898.305 1471 904.707 1449.01 911.418C1438.79 885.137 1429.02 859.978 1419.53 835.606C1428.54 830.271 1437.7 826.453 1444.69 820.247V820.219ZM595.435 738.68C572.888 731.604 550.481 724.135 528.017 716.806C524.732 715.74 521.391 714.813 518.077 713.83C518.162 713.212 518.218 712.567 518.302 711.949C551.155 700.802 584.035 689.599 616.916 678.479C639.969 670.674 663.05 662.952 686.131 655.287C695.313 652.226 704.551 649.39 716.035 650.626C714.435 656.129 713.031 660.93 711.571 665.956C704.495 666.995 697.952 667.782 691.494 668.933C680.375 670.926 678.128 673.285 677.567 684.797C677.146 693.445 677.483 702.15 677.483 710.264C676.556 711.359 676.219 712.117 675.658 712.342C652.661 721.271 629.692 730.284 606.555 738.848C603.27 740.055 598.861 739.803 595.435 738.736V738.68ZM790.67 506.078C782.695 519.584 774.384 532.949 772.502 548.982C772.081 552.66 772.222 556.703 773.345 560.185C775.254 566.166 780.954 569.03 786.654 566.222C792.13 563.554 798.055 560.073 801.48 555.299C811.476 541.26 815.941 525.312 812.964 507.959C812.206 503.607 810.044 499.508 808.331 494.762C813.807 485.749 821.22 477.831 829.812 471.457C866.82 443.996 907.619 426.897 954.596 428.553C973.072 429.199 991.211 432.681 1008.7 438.914C1023.78 444.277 1036.5 453.29 1047.14 465.111C1050.79 469.155 1053.46 474.04 1056.55 478.505C1053.77 482.548 1051.52 485.637 1049.45 488.81C1045.74 494.538 1043.86 500.743 1044.59 507.65C1045.32 514.614 1048.83 519.443 1053.71 520.117C1058.71 520.819 1063.82 517.225 1065.37 510.29C1066.69 504.309 1067.81 497.654 1066.52 491.842C1064.5 482.857 1067.53 477.578 1074.49 472.58C1093.19 459.215 1114.31 452.954 1136.8 450.876C1156.91 449.023 1176.25 452.476 1195.07 459.917C1218.57 469.211 1240.86 480.33 1258.78 498.693C1272.2 512.48 1280.57 528.344 1279.16 548.224C1279.02 550.273 1278.43 552.267 1278.18 553.727C1271.3 556.731 1264.48 558.725 1258.86 562.487C1254.12 565.66 1250.33 570.574 1246.87 575.291C1244.37 578.717 1243.47 583.294 1246.79 586.916C1250.07 590.51 1254.45 589.724 1258.44 588.067C1267.06 584.501 1273.77 578.548 1278.94 570.883C1280.68 568.328 1282.19 565.632 1284.02 562.656C1294.69 564.004 1302.07 570.041 1307.89 578.127C1314.06 586.719 1317.86 596.35 1319.06 606.992C1320.52 620.02 1322.35 632.992 1324.12 646.638C1312.89 646.554 1303.73 643.297 1295.06 635.604C1269.76 613.253 1242.58 593.57 1212.61 577.369C1149.38 543.198 1081.63 531.433 1010.98 535.308C958.049 538.2 906.3 547.774 856.515 567.907C822.82 581.525 789.94 596.154 759.614 616.201C751.808 621.368 744.395 627.18 736.954 632.908C732.574 636.278 728.474 640.012 724.066 643.718C717.187 640.545 717.748 635.07 717.243 630.521C715.614 615.921 716.12 601.32 718.927 586.86C723.532 563.021 731.367 540.502 746.361 520.988C754.504 510.374 763.882 501.136 776.462 495.829C784.942 492.263 788.395 492.404 796.679 496.447C794.657 499.676 792.579 502.821 790.67 506.05V506.078ZM802.154 501.922C813.161 522.055 801.34 554.036 782.106 559.68C777.136 555.58 778.933 550.105 780.168 545.388C784.268 529.804 792.298 516.158 802.154 501.922ZM1059.02 490.073C1059.98 498.244 1061.69 505.713 1054.92 513.182C1049.84 503.242 1050.74 498.609 1059.02 490.073ZM1272.98 564.565C1269 573.129 1262.93 579.363 1252.09 582.058C1256.11 571.304 1263.55 566.868 1272.98 564.565ZM1082.07 873.681C1072.78 863.853 1068.48 851.779 1063.96 839.93C1054.7 815.586 1049.98 790.288 1051.86 764.259C1052.56 754.432 1056.21 744.716 1059.39 735.254C1061.13 730.088 1064.36 725.314 1067.45 720.709C1070.9 715.571 1074.91 710.798 1078.62 705.968C1093.78 708.636 1102.66 718.8 1112.32 729.554C1082.5 773.328 1077.02 822.213 1082.07 873.681ZM1116.64 736.209C1139.19 703.834 1170.5 689.177 1209.61 690.665C1216.21 690.918 1222.84 691.339 1229.38 692.238C1257.26 696 1276.47 712.819 1292.67 734.356C1312.52 760.777 1314.21 790.288 1307.33 820.893C1302.07 844.311 1291.49 865.285 1274.78 883.003C1260.24 898.446 1242.41 906.476 1221.54 908.386C1215.65 908.919 1209.75 909.003 1203.83 909.312C1145.25 911.306 1104.4 864.583 1095.81 813.677C1090.98 785.037 1100.41 759.514 1116.64 736.209ZM926.067 731.351C936.485 724.388 946.003 717.986 956.73 713.577C991.211 750.613 992.25 793.348 983.096 838.246C980.934 794.163 957.572 761.255 926.067 731.351ZM943.308 804.215C944.543 810.308 944.684 816.625 945.329 822.831C944.094 854.643 931.543 880.728 904.727 897.884C882.994 911.811 858.481 918.662 832.171 916.219C824.589 915.517 816.952 914.394 809.567 912.569C777.304 904.651 758.435 881.992 745.238 853.296C717.271 792.478 758.463 732.306 800.132 715.346C819.535 707.456 839.499 707.204 859.688 709.225C867.578 710.012 875.384 712.174 883.05 714.364C896.584 718.182 905.541 727.42 914.414 738.315C930.335 757.913 938.478 780.208 943.336 804.243L943.308 804.215ZM986.353 744.66C983.096 738.764 980.316 732.952 976.834 727.561C973.268 722.057 969.056 716.947 965.097 711.64C991.744 696.646 1036.39 689.374 1069.41 703.694C1061.89 717.087 1054.36 730.509 1046.5 744.52C1027.32 730.649 1007.19 730.761 986.325 744.66H986.353ZM1067.5 694.933C1055.51 692.94 1043.61 689.767 1031.56 689.121C1009.69 687.914 988.684 693.305 968.467 701.307C961.503 704.059 956.365 704.227 950.833 698.64C940.724 688.475 927.949 682.972 914.162 679.771C883.92 672.779 853.427 667.95 822.231 667.866C801.368 667.81 780.505 666.181 759.642 665.591C746.838 665.226 734.006 665.535 720.472 665.535C720.696 657.252 724.178 653.097 729.176 648.492C749.141 630.156 772.081 616.454 795.303 603.033C798.616 601.123 801.845 599.018 805.327 597.445C857.161 574.056 909.613 552.885 966.922 546.764C992.531 544.012 1018.14 540.053 1043.89 541.429C1099.18 544.405 1152.72 553.924 1202.76 580.149C1229.83 594.357 1253.95 612.383 1278.74 629.679C1282.67 632.403 1285.99 635.997 1291.12 640.545C1287.14 640.798 1284.95 641.163 1282.84 640.995C1242.38 637.962 1202.79 643.522 1164.23 655.006C1134.53 663.851 1105.91 676.009 1080.28 693.866C1075.64 697.095 1071.8 695.607 1067.5 694.905V694.933ZM723.195 672.583C742.991 673.06 762.787 673.313 782.583 673.79C795.443 674.099 808.303 675.026 821.135 674.942C853.005 674.745 884.117 679.855 914.92 687.352C928.342 690.637 940.135 696.927 950.103 708.158C940.219 714.307 930.644 720.288 921.883 725.763C909.388 719.502 898.157 711.837 885.774 708.046C851.882 697.629 817.682 696.141 785.868 714.869C753.352 734.019 735.241 763.501 729.541 800.677C729.12 803.428 729.036 806.208 728.783 808.988C728.755 809.297 728.531 809.578 727.66 811.571C720.472 800.059 709.942 794.528 699.693 788.715C695.818 786.497 693.01 784.026 692.449 779.365C691.719 773.16 690.596 766.983 689.922 760.777C688.349 745.952 686.917 731.098 685.373 715.627C699.132 706.642 705.786 692.266 713.424 678.732C715.783 674.548 718.394 672.499 723.167 672.611L723.195 672.583ZM685.513 677.356C692.589 676.233 699.076 675.194 705.59 674.155C706.011 674.829 706.404 675.531 706.825 676.205C700.76 685.92 696.155 696.59 686.44 705.687C683.548 695.748 685.373 687.128 685.541 677.356H685.513ZM685.148 780.544C670.519 777.147 658.333 769.79 645.444 764.259C632.949 758.896 619.499 755.499 607.594 748.844L607.987 745.868C631.18 737.304 654.374 728.74 678.409 719.839C680.712 740.589 682.902 760.132 685.176 780.516L685.148 780.544ZM517.291 861.775H490.307C491.318 860.147 492.048 858.434 493.227 857.114C504.768 844.563 516.308 832.012 528.046 819.686C529.758 817.889 532.538 816.036 534.785 816.092C540.204 816.204 545.595 817.44 553.513 818.591C545.398 826.368 538.351 832.012 532.679 838.807C526.922 845.715 522.57 853.773 517.291 861.775ZM583.249 916.5C569.238 916.809 560.252 926.496 550.144 934.807C542.984 927.17 536.02 919.982 529.421 912.485C528.298 911.193 528.186 908.61 528.354 906.673C529.337 895.526 529.365 884.687 525.181 873.821C523.693 869.974 525.153 864.162 527.007 860.063C534.532 843.496 547.673 831.507 561.544 820.36C563.144 819.068 566.037 819.096 568.367 819.04C577.409 818.787 586.45 819.096 595.464 818.535C600.574 818.198 605.74 816.962 610.654 815.418C618.208 813.031 618.123 812.779 624.89 819.574C597.317 845.715 589.763 880.644 583.249 916.528V916.5ZM666.756 831.703C652.773 827.099 639.492 821.034 628.12 811.571C621.802 806.32 615.933 805.225 608.043 808.511C601.809 811.094 594.509 812.133 587.714 811.992C571.765 811.627 555.788 810.42 539.895 808.932C532.033 808.202 526.557 809.606 521.054 816.373C509.008 831.17 495.53 844.788 482.389 859.136C479.469 857.732 477.307 856.862 475.341 855.71C464.474 849.281 453.383 843.609 440.326 843.44C438.979 843.44 437.603 842.879 436.339 842.401C435.777 842.177 435.384 841.503 434.233 840.323C446.728 825.358 452.288 807.303 454.843 787.648C470.315 784.672 486.545 783.633 496.962 768.527C500.051 770.492 503.055 772.093 505.723 774.143C528.158 791.327 560.449 787.452 579.852 772.711C587.573 766.842 595.183 760.777 602.848 754.853C629.018 765.775 654.598 776.642 680.375 787.115C685.12 789.024 687.563 791.467 688.546 796.549C690.848 808.454 693.797 820.247 696.576 832.574C686.243 835.634 676.5 834.96 666.785 831.731L666.756 831.703ZM696.043 797.083C696.633 796.521 697.222 795.988 697.784 795.426C703.652 799.497 709.998 803.035 715.305 807.752C724.459 815.895 722.915 824.038 711.739 829.513C709.942 830.384 707.864 830.749 705.141 831.591C700.171 820.36 698.289 808.679 696.043 797.083ZM815.211 1079.38C822.371 1090.81 830.654 1101.93 840.201 1111.39C850.225 1121.33 857.807 1132.62 864.321 1144.69C883.977 1181.25 900.543 1219.07 911.607 1259.28C924.972 1307.86 928.229 1357.33 926.573 1407.28C925.028 1452.85 921.518 1498.34 920.255 1543.91C919.076 1586.37 919.3 1628.91 919.778 1671.39C920.03 1694.33 922.108 1717.24 923.287 1740.18C923.484 1743.97 923.287 1747.76 923.287 1751.64C922.782 1751.38 922.248 1751.3 922.192 1751.08C911.831 1712.1 900.206 1673.38 891.502 1634.04C883.612 1598.41 879.147 1562.02 877.378 1525.47C875.918 1495.22 875.104 1464.93 872.998 1434.72C871.032 1406.27 867.831 1377.91 864.911 1349.55C864.49 1345.37 862.665 1341.33 861.485 1337.23C860.194 1337.23 858.93 1337.28 857.638 1337.31C856.796 1341.13 855.504 1344.89 855.224 1348.77C854.465 1358.82 853.82 1368.93 853.707 1379.01C853.23 1414.05 846.154 1448.11 839.219 1482.22C834.698 1504.43 831.806 1526.84 831.272 1549.53C831.076 1558.23 830.345 1566.91 829.952 1575.59C828.436 1609.31 833.603 1642.24 842.223 1674.67C848.653 1698.88 855.28 1723.08 862.945 1746.89C875.412 1785.7 877.266 1824.73 867.971 1864.29C862.159 1889.02 855.982 1913.65 849.889 1938.3C849.327 1940.63 848.344 1942.85 847.249 1946.08C846.21 1944.23 845.227 1943.19 845.087 1942.06C836.663 1872.54 817.822 1805.74 793.028 1740.43C778.905 1703.26 767.645 1665.24 761.973 1625.79C759.502 1608.61 757.957 1591.22 756.554 1573.9C753.998 1542.26 753.661 1510.53 756.947 1478.97C759.305 1456.5 763.152 1434.21 766.269 1411.83C766.578 1409.61 766.297 1407.31 766.297 1403.46C763.545 1405.4 761.636 1406.19 760.653 1407.59C759.502 1409.25 758.631 1411.41 758.547 1413.4C757.873 1427.98 750.573 1440.05 743.019 1451.56C728.025 1474.39 724.094 1499.94 722.746 1526.17C721.118 1557.61 723.56 1588.87 731.479 1619.42C736.842 1640.05 735.915 1661 734.82 1681.75C733.697 1702.86 730.215 1723.9 727.379 1744.9C725.47 1759.05 718.366 1771.1 710.672 1782.8C710.139 1783.62 709.212 1784.21 708.398 1784.8C708.173 1784.97 707.724 1784.8 707.303 1784.8C708.651 1767.56 710.026 1750.32 711.318 1733.05C713.536 1703.43 712.413 1673.86 707.92 1644.55C705.927 1631.55 700.845 1619.39 693.937 1607.82C687.395 1596.84 681.891 1584.99 677.623 1572.95C662.123 1529.09 653.026 1483.88 649.347 1437.44C646.315 1399.11 648.112 1360.93 649.825 1322.65C651.594 1283.01 653.615 1243.33 654.317 1203.66C655.384 1143.77 655.384 1083.88 655.806 1023.98C655.974 999.612 655.974 975.212 656.255 950.84C656.283 947.443 656.957 943.905 658.052 940.676C664.342 922.228 670.603 903.781 677.342 885.502C682.34 871.968 690.989 860.652 701.462 848.887C710.7 870.508 719.742 891.005 735.045 908.049C750.432 925.205 769.273 937.475 788.508 948.594C787.693 959.825 786.598 970.776 786.149 981.783C784.689 1017.58 796.566 1049.62 815.183 1079.36L815.211 1079.38ZM944.234 911.98C896.163 955.248 845.227 963.728 793.983 942.276C757.115 926.833 730.131 899.372 714.772 861.691C712.301 855.626 710.167 849.421 707.471 842.12C715.446 836.954 722.325 832.518 729.738 827.716C731.732 834.455 733.36 840.38 735.185 846.248C742.037 868.037 754.251 886.569 771.379 901.422C787.441 915.349 807.208 920.712 827.987 923.099C853.398 926.019 877.462 920.544 899.729 909.172C929.633 893.897 946.705 868.711 950.973 835.213C954.231 809.521 948.109 785.486 937.804 762.237C936.12 758.419 934.379 754.656 932.694 750.838C932.61 750.669 933.003 750.304 933.985 748.76C939.798 756.032 945.498 762.799 950.777 769.875C961.952 784.869 969.871 801.519 973.24 819.91C976.694 838.723 975.964 857.367 966.866 874.832C960.155 887.748 955.354 901.956 944.206 912.008L944.234 911.98ZM1002.13 951.177C997.416 945.393 993.485 940.62 989.582 935.846C990.256 935.313 990.902 934.751 991.576 934.218C1001.57 936.969 1004.01 940.311 1002.13 951.177ZM1051.52 939.412C1050.35 931.943 1051.69 927.507 1056.94 922.958C1059.39 930.511 1055.85 934.077 1051.52 939.412ZM1057.37 945.646C1060.2 939.805 1063.09 935.088 1064.83 929.95C1066.91 923.829 1064.95 919.673 1060.23 917.736C1055.01 915.602 1050.26 917.455 1047.06 922.874C1043.86 928.349 1042.71 936.464 1043.8 946.123C1032.23 958.028 1025.92 959.713 1011.26 954.603C1011.01 950.335 1011.51 945.73 1010.3 941.658C1008.06 934.274 1002.67 929.051 995.282 926.945C992.418 926.131 988.234 926.805 985.763 928.462C982.366 930.708 981.636 935.088 983.882 938.766C987.28 944.354 991.211 949.605 994.889 954.94C984.893 958.421 974.925 955.333 969.365 946.628C964.479 938.991 962.121 930.568 964.62 921.723C967.54 911.39 970.853 901.113 974.981 891.202C985.483 865.959 992.362 839.818 994.384 812.554C995.675 794.836 995.703 777.035 990.425 759.795C988.684 754.123 990.537 750.557 995.142 747.468C1007.97 738.82 1026.93 738.988 1039.48 747.861C1043.52 750.725 1045.54 754.151 1045.15 759.261C1042.37 794.078 1049.62 827.042 1064.08 858.546C1067.39 865.791 1071.88 872.501 1075.45 879.633C1080.25 889.236 1084.66 899.035 1089.21 908.751C1089.66 909.677 1089.94 910.716 1090.13 911.727C1093.9 931.213 1086.12 949.549 1057.45 945.59L1057.37 945.646ZM1340.71 880.223C1355.99 919.701 1364.55 960.836 1370.98 1002.56C1378.03 1048.27 1391.54 1092.19 1412.79 1133.24C1420.04 1147.22 1422.79 1159.58 1420.09 1175.38C1416.16 1198.74 1417.82 1222.67 1424.44 1245.75C1429.13 1262.12 1433.99 1278.49 1439.61 1294.58C1453.2 1333.55 1461.85 1373.59 1466.53 1414.5C1471.56 1458.44 1475.88 1502.61 1472.8 1546.8C1468.08 1614.45 1453.31 1679.17 1417.65 1738.5C1396.03 1774.49 1369.91 1806.02 1339.73 1834.66C1323.05 1850.47 1306.6 1866.51 1290 1882.4C1288.57 1883.77 1286.83 1884.84 1285.26 1886.05C1284.47 1885.77 1283.71 1885.49 1282.92 1885.21C1283.4 1881.19 1283.6 1877.09 1284.39 1873.13C1291.26 1839.38 1298.87 1805.77 1305.05 1771.91C1311.99 1733.86 1316.51 1695.51 1314.29 1656.65C1312.6 1627.02 1307.69 1597.88 1301.01 1569.04C1294.24 1539.9 1286.04 1511.12 1279.44 1481.94C1269.53 1438.11 1267.96 1393.72 1272.98 1349.08C1273.43 1345.12 1276.89 1338.83 1270.21 1337.79C1264.95 1336.97 1265.32 1343.43 1264.08 1347.11C1249.79 1390.13 1243.75 1434.38 1243.75 1479.61C1243.75 1509.57 1243.14 1539.5 1243.19 1569.46C1243.31 1633.79 1231.32 1696.1 1211.69 1757.06C1205.74 1775.56 1197.45 1793.31 1190.12 1811.36C1189.25 1813.49 1187.74 1815.37 1184.68 1817.17C1183.52 1808.41 1181.95 1799.71 1181.25 1790.89C1178.22 1751.38 1168.61 1713.37 1155.53 1676.13C1149.55 1659.06 1143.62 1641.96 1137.36 1624.98C1128.52 1601.05 1125.82 1576.09 1126.44 1551.02C1127.2 1521.14 1129.89 1491.29 1131.89 1461.45C1133.32 1439.88 1135.31 1418.35 1142.84 1397.88C1148.34 1382.88 1154.58 1368.17 1160.81 1353.46C1169.63 1332.65 1178.72 1311.96 1187.68 1291.21C1189.03 1288.06 1190.85 1284.78 1186.02 1281.24C1184.25 1283.06 1182.09 1284.64 1180.8 1286.77C1169.88 1304.54 1158.45 1322.09 1148.45 1340.37C1134.11 1366.63 1120.52 1393.3 1107.23 1420.11C1091.87 1451.11 1080.28 1483.46 1076.29 1518.5C1075.22 1517.72 1074.52 1517.46 1074.38 1517.04C1062.53 1477.68 1057.14 1437.69 1060.79 1396.47C1063.18 1369.41 1065.31 1342.37 1072.28 1316C1075.11 1305.25 1078.17 1294.46 1082.41 1284.22C1095.19 1253.33 1108.47 1222.64 1128.07 1195.26C1130.26 1192.2 1132.79 1189.09 1135.82 1186.95C1176 1158.7 1199.98 1118.89 1215.84 1073.66C1227.64 1040.05 1233.42 1004.95 1238.9 969.877C1240.02 962.745 1239.07 955.305 1239.07 947.386C1245.66 944.298 1251.95 941.546 1258.05 938.429C1263.58 935.594 1269.53 933.095 1274.22 929.135C1283.23 921.498 1291.94 913.384 1299.91 904.679C1311.37 892.156 1322.07 878.931 1333.5 865.538C1337.79 868.907 1338.72 874.916 1340.77 880.195L1340.71 880.223ZM1347.48 784.925C1338.35 782.622 1337.17 781.078 1335.6 769.819C1339.62 767.516 1343.88 765.045 1349.56 761.76C1348.74 770.717 1348.12 777.765 1347.48 784.925ZM1351.47 687.942C1350.74 688.054 1350.01 688.167 1349.28 688.251C1347.34 685.246 1345.4 682.27 1342.93 678.479C1346.95 676.963 1349.92 675.812 1354.25 674.183C1353.15 679.659 1352.31 683.786 1351.47 687.914V687.942ZM1392.32 713.297C1403.67 710.489 1414.64 706.081 1426.69 703.385C1424.36 705.294 1422.14 707.316 1419.73 709.113C1407.76 718.014 1396 727.167 1383.73 735.591C1376.12 740.814 1367.7 744.857 1357.47 750.641V708.72C1369.02 713.69 1380.64 716.217 1392.32 713.297ZM1355.14 665.704C1351.72 667.36 1348.1 668.68 1344.5 670C1333.3 674.099 1331.56 676.963 1339.53 686.117C1349.42 697.489 1350.93 709.927 1350.12 723.798C1349.61 732.474 1350.15 741.207 1350.17 749.911C1350.17 750.922 1349.75 751.933 1349.47 753.252C1344.22 756.341 1338.72 759.317 1333.5 762.743C1327.04 767.011 1327.01 768.415 1328.69 775.799C1330.86 785.262 1337.48 790.4 1345.82 794.415C1343.15 819.489 1337.23 843.019 1323.81 864.583C1309.21 888.029 1289.44 906.813 1268.63 924.025C1254.87 935.397 1237.52 943.091 1218.62 942.248C1200.57 941.434 1182.4 940.227 1164.66 937.11C1142.75 933.235 1123.27 923.127 1106 908.891C1100.41 904.258 1096.9 898.698 1094.79 891.763C1090.5 877.64 1088.93 863.151 1088.65 848.494C1088.48 839.902 1088.62 831.31 1088.62 820.753C1094.15 833.893 1098.16 845.321 1103.64 855.963C1118.97 885.726 1143.03 905.494 1175.63 913.271C1197.87 918.578 1220.93 918.269 1242.8 912.008C1263.8 905.999 1279.75 891.51 1292.11 873.512C1309.57 848.073 1317.8 819.658 1318.42 788.996C1318.87 766.505 1310.89 746.626 1297.67 728.908C1281.86 707.765 1262.82 691.031 1235.64 686.061C1198.74 679.322 1164.21 683.562 1133.63 707.148C1130.6 709.478 1127.65 711.949 1124.9 714.588C1122.4 716.975 1120.18 719.642 1117.12 722.984C1111.89 718.07 1107.65 713.409 1102.74 709.59C1097.86 705.8 1092.3 702.88 1086.26 699.061C1087.41 697.966 1088.36 696.646 1089.63 695.916C1121.81 677.469 1155.5 663.092 1192.06 655.483C1217.42 650.204 1242.72 646.442 1268.66 647.537C1281.13 648.07 1293.31 649.025 1305.58 652.479C1318.08 655.989 1331.47 656.213 1344.45 658.094C1349.22 658.768 1353.91 660.032 1360.06 661.324C1357.9 663.345 1356.8 664.946 1355.28 665.704H1355.14ZM1334.09 648.857C1329.48 638.889 1328.81 628.472 1327.43 618.167C1326.22 609.238 1325.44 600.056 1322.71 591.549C1316.93 573.326 1305.33 560.045 1285.87 554.766C1289.83 523.627 1275.4 501.417 1252.49 483.447C1223.9 461.012 1191.61 446.159 1155.39 443.547C1121.47 441.104 1089.82 450.033 1062.62 472.889C1058.97 468.284 1055.65 463.483 1051.75 459.271C1037.4 443.8 1019.8 433.86 999.438 428.329C936.625 411.257 880.298 426.251 828.773 463.286C819.002 470.306 811.055 479.853 801.424 489.006C784.352 482.043 770.172 488.725 757.284 499.311C741.615 512.171 730.636 528.653 723.167 547.353C712.301 574.561 706.825 602.668 710.419 632.094C710.785 635.182 710.981 638.299 711.234 641.332C696.97 645.15 682.986 648.913 668.245 652.872C665.1 650.008 664.622 645.6 664.201 641.107C661.421 611.681 664.37 582.676 671.895 554.232C678.044 530.983 684.811 507.847 698.682 487.743C707.977 474.293 717.804 461.209 727.829 448.264C736.337 437.286 745.125 426.448 754.391 416.087C763.321 406.119 768.684 394.831 770.312 381.634C770.621 379.248 771.211 376.889 771.8 373.829C796.342 368.381 812.908 350.692 830.514 334.463C841.016 324.776 851.995 315.622 862.496 305.963C866.652 302.144 871.341 300.656 876.704 300.488C899.645 299.701 922.614 298.691 945.554 298.129C979.979 297.287 1013.42 291.952 1044.95 277.407C1055.68 272.465 1066.66 267.973 1077.16 262.554C1090.39 255.703 1101.14 245.959 1108.72 232.903C1112.85 225.771 1114.9 218.246 1114.37 209.963C1113.66 199.209 1108.47 192.554 1098.08 189.606C1085.58 186.068 1073.2 188.342 1060.9 190.785C1034.79 196.008 1009.94 204.965 986.353 217.207C945.189 238.547 905.457 262.273 868.898 290.997C865.781 293.44 861.654 295.153 857.751 295.939C835.259 300.488 814.565 308.658 796.285 322.978C783.762 332.778 773.008 343.728 767.139 359.031C766.381 358.835 765.595 358.61 764.837 358.413C765.061 354.595 764.781 350.664 765.539 346.957C778.652 283.641 807.826 229.449 857.105 186.826C864.209 180.677 871.734 175.005 879.315 169.446C908.265 148.275 937.383 127.356 966.276 106.129C993.232 86.3335 1022.88 79.9317 1056.02 84.34C1096.54 89.731 1134.33 102.282 1171 120.14C1199.81 134.179 1228.42 148.359 1256.03 164.644C1274.87 175.763 1289.44 191.066 1301.23 208.755C1311.48 224.114 1314.82 241.326 1311.45 260.532C1304.83 298.55 1290.56 333.311 1270.74 365.995C1266.7 372.677 1261.14 378.883 1255.01 383.74C1247.38 389.777 1241.48 386.857 1241.2 377.17C1240.89 366.5 1242.04 355.774 1242.55 345.61C1247.83 343.307 1251.76 341.903 1255.41 339.966C1268.49 333.031 1274.7 320.423 1271.89 305.879C1268.38 287.824 1258.36 273.476 1243.25 263.817C1215.7 246.24 1185.41 236.609 1152.3 238.126C1137.47 238.799 1123.49 242.506 1111 251.07C1095.81 261.459 1091.37 276.003 1099.23 292.822C1105.24 305.71 1114.28 316.127 1126.52 323.68C1148.73 337.383 1170.86 351.253 1193.1 364.9C1217.08 379.613 1237.18 398.987 1256.45 419.091C1276.41 439.925 1295.81 461.293 1311.03 486.198C1332.91 522.026 1346.13 561.084 1356.24 601.348C1360.54 618.448 1363.29 635.913 1367.05 654.894C1355 652.647 1344.59 650.71 1334.11 648.744L1334.09 648.857ZM773.345 366.5C774.243 362.541 774.384 360.295 775.226 358.385C783.06 340.219 798.448 329.324 814.312 319.328C825.375 312.365 837.674 307.788 851.04 305.963C825.544 325.59 806.871 353.893 773.345 366.528V366.5ZM881.899 290.52C884.538 288.442 887.15 286.28 889.845 284.286C920.367 261.655 953.22 242.758 986.746 225.069C1011.79 211.872 1038.16 202.073 1066.07 197.103C1074.18 195.643 1082.69 195.306 1090.95 195.755C1103.7 196.457 1109.56 204.516 1107.09 217.095C1106.25 221.419 1104.31 225.715 1102.15 229.618C1095.55 241.551 1085.56 250.171 1073.62 256.376C1035.6 276.088 996.04 290.323 952.433 290.632C929.156 290.801 905.906 291.952 882.657 292.626C882.404 291.924 882.151 291.222 881.899 290.52ZM1215.23 279.232C1204.58 279.457 1194.98 287.038 1191.56 298.045C1188.1 309.08 1189.79 319.441 1196.47 328.763C1203.29 338.281 1212.56 343.925 1224.44 344.852C1227.86 345.104 1231.29 345.525 1234.35 345.834V386.464C1233.62 386.267 1232.8 386.323 1232.35 385.902C1202.82 359.509 1167.83 341.258 1134.58 320.451C1123.07 313.235 1113.55 304.587 1107.04 292.682C1100.64 280.973 1100.07 265.558 1116.5 256.04C1135.59 244.949 1155.84 243.123 1176.93 246.437C1196.67 249.525 1215.31 256.068 1232.86 265.67C1245.52 272.578 1254.79 282.742 1260.94 295.602C1262.99 299.87 1264.31 304.784 1264.7 309.529C1265.8 323.596 1260.55 330.672 1245.35 335.951C1244.79 327.92 1244.54 320.648 1243.73 313.432C1243.08 307.928 1242.24 302.341 1240.55 297.118C1236.73 285.41 1227.24 279.008 1215.25 279.288L1215.23 279.232ZM1237.07 337.748C1221.26 339.489 1209.16 335.558 1201.05 322.613C1196.1 314.723 1195.65 306.216 1199.5 297.792C1202.73 290.716 1208.18 285.859 1216.41 286.14C1224.8 286.448 1230.78 290.885 1233.56 298.943C1237.8 311.242 1238.05 323.933 1237.07 337.748Z" fill="black"/>
</g>
<defs>
<clipPath id="clip0_157_304">
<rect width="1584" height="1899" fill="white" transform="translate(208 76)"/>
</clipPath>
</defs>
</svg>
