<svg width="2000" height="2000" viewBox="0 0 2000 2000" fill="none" xmlns="http://www.w3.org/2000/svg">
<g clip-path="url(#clip0_157_305)">
<path d="M625.209 789.105C623.698 790.268 623.291 792.302 622.419 793.872C620.326 798.348 618.233 802.882 616.256 807.416C613.872 811.718 611.372 815.903 608.814 820.088C602.302 828.866 609.977 839.678 616.081 846.421C628.174 859.151 645.907 863.918 662.244 868.626C675.442 872.172 688.814 875.311 702.477 875.951C722.012 876.765 741.663 873.8 760.093 867.231C775.151 862.407 789.57 855.257 801.779 845.084C806.605 841.131 811.605 837.469 816.488 833.574C819.57 831.191 823.988 825.378 821.14 821.6C823.523 818.344 810.384 802.882 807.709 798.929C800.442 789.803 792.767 780.909 784.163 773.003C773.233 762.947 761.14 754.169 748.93 745.741C726.198 730.336 701.837 716.56 676.721 705.283C661.314 698.598 645.384 693.308 629.395 688.134C610.442 681.566 590.791 677.439 571.023 674.241C556.663 671.684 542.419 668.487 527.768 667.789C525.791 667.673 523.465 667.382 521.837 668.719C520.384 669.824 520.907 671.916 522.302 672.788C524.802 674.358 527.768 675.172 530.616 676.043C538.581 678.252 546.605 680.113 554.628 681.856C543.116 681.333 530.965 680.636 520.384 685.925C517.651 687.437 514.279 688.716 512.535 691.448C512.07 692.32 512.302 693.424 513 694.122C514.57 695.459 516.837 694.471 518.698 694.354C536.023 691.506 553.581 691.099 570.965 693.773C590.268 696.738 609.57 700.807 628.349 706.503C600.035 700.865 570.674 696.04 541.837 700.574C537.012 701.562 524.57 703.306 522.593 708.073C522.186 709.294 523.058 710.572 524.279 710.921C530.558 711.909 536.954 710.572 543.291 710.456C549.861 710.107 556.43 710.049 563 710.34C575.791 711.212 589.163 712.084 601.895 714.293C611.954 716.211 622.361 718.885 632.361 721.443C662.244 728.883 691.779 737.951 719.337 751.902C741.721 763.063 763.058 776.433 782.884 791.721C795.326 801.836 807.128 812.764 818.523 824.041C817.768 828.866 813.174 831.424 809.686 834.214C807.767 835.667 805.849 837.178 803.93 838.632C795.791 845.491 787.012 851.536 777.535 856.419C740.674 873.102 704.977 877.171 665.907 865.604C645.093 859.733 618.116 853.048 610.616 829.97C644.047 856.768 688.465 874.323 731.605 865.429C741.198 863.918 750.616 861.186 759.221 856.535C761.488 855.199 764.163 854.21 765.733 852.001C766.779 850.606 765.965 848.572 764.395 848.049C761.547 847.119 758.581 846.479 755.674 845.607C736.14 840.085 717.128 832.935 698.93 823.867C684.802 817.007 670.907 809.451 658.233 800.15C652.884 796.313 647.768 792.128 642.709 787.943C639.047 785.269 635.558 781.316 631.198 779.805C629.337 779.805 627.768 781.2 626.081 781.897C620.442 784.571 614.686 786.489 608.64 788.291C604.57 789.454 600.5 790.675 596.198 790.559C602.419 787.594 623.523 777.479 624.279 770.678C623.988 768.469 621.547 768.411 620.035 769.399C606.663 776.666 592.361 784.281 576.721 783.467C587.942 780.502 599.628 777.596 609.279 770.911C611.023 769.341 619.512 764.807 616.372 762.191C614.163 760.738 612.826 764.051 611.14 764.982C605.616 769.458 599.279 772.771 592.535 775.096C586.954 776.956 581.023 778.584 575.268 780.095C573.174 780.735 569.686 781.316 569.861 784.106C570.733 788.64 581.837 787.129 585.326 786.838C594.977 785.618 604.047 781.955 612.593 777.479C605.907 782.013 598.523 785.385 591.198 788.873C589.744 789.628 589.454 791.721 590.733 792.826C591.547 793.639 592.709 793.814 593.814 794.104C601.314 795.209 608.756 792.186 615.849 789.977C621.023 788.291 626.14 786.257 630.965 783.641C641.372 791.372 651.198 799.976 661.895 807.358C659.744 806.777 657.477 806.602 655.268 807.009C650.326 807.939 647.012 811.776 647.709 816.891C648.64 823.518 655.907 827.471 662.186 826.657C656.43 834.679 645.384 838.573 636.14 834.446C625.849 829.854 622.128 814.973 623.93 804.684C624.454 801.719 625.326 798.871 626.488 796.139C626.895 794.453 629.163 792.477 628.116 790.791C628.116 790.791 628.116 790.675 628.116 790.617C628.116 789.28 626.488 788.291 625.326 789.047L625.209 789.105ZM528.291 671.567C541.954 672.323 555.384 675.23 568.814 677.671C581.721 679.996 594.628 682.089 607.361 685.402C637.709 694.296 668.058 704.004 696.14 718.827C682.419 712.839 668.349 707.608 654.221 702.725C652.593 702.144 650.965 701.562 649.337 701.039C649.337 701.039 649.337 701.039 649.395 701.039C630.267 694.529 610.616 689.123 590.791 685.112C569.919 680.926 548.756 677.787 528.291 671.567ZM592.768 693.947C568.698 688.716 543.872 686.274 519.454 690.518C533.116 682.786 549.628 685.402 564.628 686.332C593.116 688.948 620.965 696.621 647.593 706.852C668.058 714.583 688 723.593 706.721 734.987C702.593 732.894 698.465 730.86 694.279 728.825C662.07 713.072 628.058 700.69 592.768 693.889V693.947ZM644.221 720.861C629.337 716.967 614.512 712.839 599.337 710.224C588.058 708.422 576.605 707.724 565.209 706.852C553.116 705.98 541.023 707.026 528.988 707.666C551.779 699.935 576.547 702.318 600.035 705.341C613.988 707.259 627.884 709.875 641.43 713.711C657.302 718.42 672.593 724.872 687.535 731.906C706.779 741.148 726.256 750.042 744.802 760.68C755.326 766.9 765.209 774.108 775.035 781.374C735.849 753.007 691.314 732.371 644.279 720.861H644.221ZM775.442 776.84C775.326 776.433 775.093 776.084 774.802 775.852C770.5 772.364 766.14 768.934 761.779 765.563C747.07 753.704 730.326 744.811 714.163 735.161C701.372 727.43 688.349 720.106 674.686 714.06C702.128 724.523 728.872 737.428 752.651 754.751C762.244 762.017 770.674 770.678 778.93 779.34C777.767 778.526 776.605 777.654 775.384 776.84H775.442ZM789.686 788.175C790.907 785.618 786.605 782.595 785.209 780.677C781.895 777.072 778.523 773.527 775.093 770.039C785.674 778.874 794.919 789.105 803.581 799.801C799.337 796.081 794.919 792.477 790.558 788.931C790.267 788.698 789.977 788.466 789.686 788.175ZM802.477 803.986C800.616 802.243 798.698 800.499 796.779 798.813C798.698 800.441 800.558 802.01 802.477 803.696C806.43 807.242 810.5 810.729 813.988 814.74C810.209 811.194 806.372 807.649 802.535 804.103L802.477 803.986ZM651.663 813.113C651.663 813.113 651.663 813.171 651.663 813.229C651.663 813.229 651.663 813.171 651.663 813.113ZM627.709 833.051C631.895 837.818 638.407 839.794 644.686 839.852C653.756 839.504 663.581 833.807 666.837 825.087C666.954 823.111 664.802 822.472 663.174 822.879C661.198 823.111 659.221 823.227 657.302 822.704C653.349 821.716 649.861 817.472 651.547 813.287C654.047 809.625 659.337 810.148 663 811.718C665.151 812.415 667.186 814.682 669.57 813.578C669.977 813.462 670.268 813.287 670.5 813.055C671.314 813.52 672.07 813.985 672.884 814.45C700.5 830.552 730.209 842.991 761.14 851.129C750.326 857.989 737.884 861.07 725.268 862.813C699.744 867.115 673.581 861.186 650.268 850.606C637.012 844.677 624.861 836.655 613.349 827.878C611.14 826.483 618.581 811.834 619.512 808.986C619.512 808.986 619.512 808.869 619.57 808.811C619.279 817.531 622.07 826.366 627.651 833.051H627.709Z" fill="#3B4431"/>
<path d="M1787.88 1923.04C1787.53 1918.27 1785.67 1913.79 1783.93 1909.38C1780.27 1900.02 1776.31 1890.72 1771.95 1881.65C1762.42 1861.89 1748.23 1845.03 1734.45 1828.23C1710.38 1798.99 1685.62 1770.22 1658.93 1743.3C1619.69 1703.08 1581.02 1661.86 1537.19 1626.58C1499.98 1595.83 1457.83 1571.24 1423.29 1537.29C1407.94 1522.35 1393.12 1507.18 1378.29 1491.66C1365.56 1477.94 1352.24 1463.99 1343.81 1447.13C1341.72 1442.6 1340.27 1437.77 1339.74 1432.72C1338.76 1422.95 1337.19 1413.24 1334.1 1403.88C1325.96 1379.53 1314.74 1355.11 1294.34 1338.66C1287.42 1332.97 1279.86 1327.85 1274.05 1320.82C1263.29 1308.26 1258.7 1292.1 1255.67 1276.17C1252.71 1261.58 1248.93 1247.05 1247.24 1232.28C1248.7 1231.76 1250.09 1231.24 1251.49 1230.72C1257.53 1228.1 1263.35 1225.08 1269.22 1222.11C1300.09 1206.42 1329.28 1187.58 1359.1 1170.03C1384.4 1154.97 1411.6 1143.7 1438.06 1130.91C1447.53 1126.26 1456.55 1120.39 1463.52 1112.36C1469.22 1105.68 1472.19 1097.25 1474.98 1089.05C1476.37 1085.16 1477.53 1081.21 1478.93 1077.31C1479.57 1075.97 1479.98 1073.94 1481.49 1073.36C1483.64 1073.59 1485.09 1075.68 1487.3 1075.86C1489.69 1076.32 1492.07 1075.1 1493.81 1073.59C1500.15 1067.49 1505.33 1060.11 1512.59 1054.76C1525.5 1044.93 1542.65 1039 1546.26 1021.16C1547.24 1017.73 1547.94 1014.24 1548.41 1010.75C1550.44 1014.47 1553.41 1017.61 1556.43 1020.52C1559.1 1022.9 1561.6 1025.63 1564.69 1027.44C1572.88 1030.52 1569.74 1018.43 1568.99 1014.18C1567.88 1008.66 1566.49 1003.25 1565.21 997.732C1563.58 990.815 1562.13 983.839 1561.31 976.69C1561.02 972.504 1559.8 968.203 1560.5 964.017C1560.85 963.959 1561.08 964.017 1561.55 964.075C1563.93 964.831 1566.26 965.994 1568.58 966.924C1577.01 970.295 1585.85 972.562 1594.74 974.248C1609.34 977.736 1595.15 957.332 1593.23 951.868C1584.05 933.557 1576.95 913.968 1575.15 893.39C1575.15 893.041 1575.44 893.041 1575.73 892.925C1577.94 892.344 1580.27 892.402 1582.77 892.227C1588.12 891.879 1593.46 891.414 1598.81 890.6C1634.98 885.543 1669.1 870.313 1694.28 843.399C1704.63 832.47 1712.36 819.391 1718.93 805.963C1721.78 799.743 1725.38 793.814 1727.3 787.246C1727.88 785.502 1727.48 783.06 1725.27 782.828C1723.29 782.77 1721.78 784.339 1720.15 785.385C1714.57 789.455 1708.99 793.582 1703.06 797.186C1689.86 805.382 1675.33 811.311 1660.33 815.322C1682.77 799.395 1707.13 782.072 1717.36 755.449C1717.94 753.472 1717.71 750.624 1715.5 749.868C1710.91 748.589 1704.4 754.809 1700.44 757.076C1668.7 778.817 1634.98 799.395 1596.84 807.3C1587.59 809.16 1578.35 811.021 1568.93 811.311C1559.69 811.427 1550.33 810.323 1541.31 808.288C1546.2 805.847 1551.78 805.091 1557.01 803.812C1565.67 802.01 1574.34 800.092 1582.94 797.941C1600.91 793.117 1618.46 786.548 1634.69 777.364C1653.41 766.668 1670.67 753.065 1683.81 735.859C1688.87 729.349 1693.35 722.489 1696.08 714.642C1698.06 708.713 1701.2 702.783 1701.55 696.447C1699.74 686.333 1672.83 698.947 1666.72 701.156C1652.65 706.678 1639.05 713.305 1624.74 718.188C1635.96 712.724 1646.43 705.806 1655.73 697.494C1660.21 693.541 1664.69 689.356 1668.87 685.112C1669.4 684.356 1670.62 683.31 1671.72 682.147C1671.84 682.147 1672.01 682.147 1672.19 682.147C1673.41 681.915 1674.34 680.927 1674.8 679.822C1675.38 678.602 1675.67 677.09 1675.21 675.811C1674.69 674.416 1673.35 673.428 1671.95 673.079C1664.34 671.8 1656.66 674.823 1649.16 675.986C1640.5 677.73 1631.72 678.834 1622.83 679.183C1526.72 680.811 1454.4 603.498 1404.63 529.383C1400.67 523.745 1388.06 501.539 1387.48 501.597C1377.71 483.868 1369.28 465.325 1361.2 446.781C1345.5 411.09 1330.56 374.817 1310.33 341.393C1288.99 306.05 1267.83 283.089 1224.63 278.206C1216.26 277.276 1207.77 277.276 1199.45 278.496C1194.63 279.02 1189.98 280.298 1185.15 280.705C1180.33 280.589 1184.4 273.846 1186.08 271.87C1193.7 261.988 1211.43 256.349 1223.58 254.14C1242.83 250.652 1269.28 260.534 1285.67 270.707C1303.46 282.217 1317.42 298.377 1331.9 313.723C1344.22 327.441 1356.49 341.218 1368.7 355.053C1374.92 362.087 1381.08 369.062 1387.24 376.096C1392.71 382.316 1397.59 389.64 1403.41 395.453C1420.44 418.472 1436.84 441.956 1455.38 463.755C1470.91 482.647 1487.53 500.842 1507.3 515.432C1517.07 522.408 1527.24 529.034 1538.41 533.569C1554.74 540.312 1572.24 544.206 1589.8 546.299C1590.15 546.299 1590.5 546.357 1590.85 546.357C1593.7 546.357 1597.07 545.02 1596.26 541.765C1595.5 538.916 1592.71 537.173 1590.62 535.312C1566.43 517.874 1545.38 492.936 1540.5 462.767C1537.83 443.526 1539.57 423.762 1536.26 404.521C1531.6 374.991 1518.93 346.915 1500.73 323.256C1486.08 304.364 1468.64 287.855 1449.74 273.265C1426.55 255.012 1401.31 238.852 1373.58 228.389C1338.64 214.147 1302.01 212.868 1265.03 218.216C1273.46 212.636 1282.24 207.695 1290.96 202.637C1298.17 198.51 1305.5 194.441 1312.48 189.907C1317.53 186.884 1324.1 182.35 1322.19 175.549C1318.35 164.33 1305.85 156.715 1296.37 150.379C1281.2 140.846 1264.34 132.998 1246.2 132.068C1204.28 129.743 1188.76 154.099 1171.43 187.756C1167.19 159.854 1184.63 129.162 1167.88 103.236C1156.9 85.0996 1141.66 74.1132 1121.66 67.4864C1100.15 59.2901 1076.6 57.3719 1053.81 60.0458C1041.9 61.5572 1030.03 63.8242 1018.58 67.5445C997.651 74.6945 978.174 85.274 958.232 94.691C926.779 110.212 892.593 120.442 857.36 121.547C848.639 121.721 839.918 122.012 831.255 120.791C831.139 120.791 831.023 120.791 830.907 120.733C830.267 119.57 828.639 119.338 827.767 120.5C827.244 120.733 826.895 121.14 826.721 121.721C826.488 122.651 827.128 123.698 828.058 123.93C831.895 135.265 851.546 142.125 861.43 146.484C899.802 163.051 940.151 161.598 980.965 159.447C1002.48 158.459 1024.28 160.087 1044.74 167.062C1059.86 172.41 1074.98 178.339 1087.88 188.105C1097.88 195.197 1106.43 204.091 1114.16 213.566C1121.37 224.494 1125.38 237.399 1126.55 250.362C1107.01 200.719 1071.84 182.757 1020.27 181.827C993 181.188 965.849 183.397 938.581 181.943C917.535 180.839 896.604 177.293 876.255 171.829C857.011 165.783 838.872 156.541 822.36 144.915C800.035 129.336 780.5 110.386 760.093 92.4821C751.953 85.5065 743.29 78.9379 733.755 73.8806C720.732 67.4864 706.662 62.836 692.244 60.8015C674.104 58.1276 655.383 57.6625 637.651 62.6617C622.709 66.7307 608.349 73.5319 596.139 83.007C587.767 89.8081 581.197 98.4694 575.5 107.596C572.593 112.246 569.511 116.78 567.36 121.779C566.953 122.709 567.535 123.814 568.465 124.163C569.628 124.628 570.732 123.698 571.023 122.593C574.86 114.978 579.686 107.828 584.569 100.853C598.174 81.67 620.558 70.6254 642.941 65.2194C659.918 61.1503 677.535 62.371 694.628 64.8706C707.941 67.2539 720.907 71.4973 732.942 77.6591C741.721 82.4838 749.86 88.5293 757.418 95.0979C794.628 128.232 830.558 163.691 880.267 176.77C899.104 181.246 918.29 184.617 937.651 185.605C964.86 187.117 992.069 185.024 1019.28 185.489C1060.33 186.303 1093.46 196.883 1114.86 234.318C1118.23 240.422 1121.2 246.7 1123.64 253.152C1124.69 255.128 1124.98 259.314 1127.77 259.604C1130.85 259.43 1130.56 255.535 1130.44 253.268C1130.03 248.327 1129.45 243.386 1128.41 238.503C1125.85 228.447 1122.24 218.274 1115.91 209.962C1112.07 205.428 1108 201.068 1103.81 196.824C1087.65 180.606 1066.66 170.55 1045.15 163.4C1029.57 158.285 1013.17 155.785 996.837 155.611C973.29 155.378 949.918 158.052 926.372 156.773C904.86 155.959 883.581 151.716 863.639 143.462C854.279 139.276 838.349 134.103 832.418 124.744C832.709 124.744 833 124.86 833.29 124.86C838.581 125.383 843.872 125.5 849.162 125.441C880.383 125.441 911.43 118.815 940.209 106.84C967.302 95.6792 992.477 80.333 1020.33 70.916C1035.15 66.3238 1050.5 63.6499 1066.02 62.836C1084.45 62.0222 1102.94 64.4637 1120.27 71.0323C1130.91 74.8107 1141.49 79.5773 1149.86 87.3086C1164.4 100.795 1173.7 116.955 1171.26 137.358C1170.73 151.425 1163.06 179.56 1168.93 191.477C1170.73 193.744 1173.41 192.29 1174.34 190.023C1176.08 186.536 1177.83 183.106 1179.74 179.793C1187.3 166.772 1195.09 153.111 1207.94 144.566C1223.64 134.568 1243.76 133.987 1261.43 138.404C1278.41 143.055 1307.24 158.692 1317.01 173.398C1319.86 177.584 1318.46 181.595 1314.34 184.269C1310.09 187.233 1305.44 190.023 1300.79 192.755C1288.58 199.905 1276.08 206.706 1264.16 214.38C1261.95 216.123 1258.52 217.402 1257.71 220.367C1257.3 223.157 1260.85 222.983 1262.65 222.518C1271.6 220.774 1280.73 220.309 1289.8 219.611C1342.01 215.077 1390.62 235.19 1432.42 265.185C1469.1 291.692 1503.81 324.012 1521.26 366.679C1528.46 383.885 1532.77 402.254 1533.99 420.914C1535.33 439.166 1533.76 457.884 1539.28 475.613C1545.56 495.145 1557.83 512.293 1572.88 526.128C1576.02 529.151 1579.45 531.883 1582.94 534.499C1586.14 537.114 1589.86 539.207 1592.3 542.579C1589.63 543.334 1587.13 542.462 1584.28 542.172C1579.22 541.358 1574.16 540.428 1569.16 539.382C1562.53 537.986 1556.14 536.242 1549.69 534.15C1519.1 524.21 1494.1 502.411 1472.88 478.927C1453.99 457.593 1436.37 435.272 1419.8 412.02C1412.24 401.208 1404.1 390.744 1395.79 380.514C1395.79 379.816 1387.77 370.457 1387.48 370.399C1381.37 363.249 1375.15 356.274 1368.81 349.356C1353.64 332.673 1338.76 315.699 1323.17 299.365C1306.49 281.287 1287.65 264.255 1263.87 256.349C1245.38 249.955 1229.98 247.106 1210.91 253.443C1198.29 257.86 1182.07 263.79 1178.99 278.438C1178.64 283.961 1183.7 285.239 1188 284.251C1193.06 283.379 1198.06 282.449 1203.17 281.868C1231.31 279.252 1261.37 287.971 1281.31 308.607C1303.58 332.847 1318.58 362.726 1332.65 392.256C1350.44 429.459 1364.69 468.638 1384.8 504.678C1384.8 504.911 1389.98 514.444 1390.44 514.502C1393.81 520.141 1397.36 525.663 1401.08 531.069C1450.27 604.138 1519.98 679.648 1613.99 682.961C1615.5 682.961 1617.07 683.019 1618.58 683.019C1630.15 683.019 1641.6 681.45 1652.88 679.067C1654.8 678.892 1669.45 674.881 1671.31 677.148C1670.44 677.497 1669.86 678.66 1669.16 679.474C1651.26 699.005 1629.22 714.932 1603.7 722.722C1601.78 723.536 1599.4 723.536 1597.88 725.047C1596.78 726.035 1597.42 728.012 1598.93 728.186C1602.94 728.477 1606.78 727.14 1610.67 726.268C1628.29 722.199 1644.63 714.293 1661.31 707.492C1672.83 703.132 1684.22 696.854 1696.72 696.447C1697.59 696.389 1698.17 697.203 1697.83 698.075C1696.95 701.679 1695.67 705.167 1694.45 708.655C1692.3 714.526 1690.03 720.571 1686.55 725.919C1662.77 761.843 1622.71 783.932 1581.72 794.628C1572.3 797.069 1562.77 798.988 1553.29 801.08C1548.29 802.359 1542.88 803.057 1538.52 805.963C1533.99 810.497 1541.08 812.706 1544.74 812.997C1559.69 815.845 1574.98 815.961 1589.86 812.648C1610.33 809.219 1629.98 802.185 1648.58 793.117C1662.48 786.257 1675.73 778.119 1688.7 769.69C1695.27 765.447 1701.66 760.971 1708.23 756.611C1710.03 755.507 1712.01 754.054 1714.16 753.531C1714.16 755.333 1713.17 756.96 1712.42 758.588C1704.16 776.143 1689.69 789.338 1674.45 800.906C1665.85 807.3 1657.59 813.869 1647.88 818.752C1645.67 819.507 1643.23 819.856 1640.96 820.496C1639.51 820.961 1637.77 821.019 1636.72 822.181C1635.73 823.344 1636.43 825.437 1638.06 825.437C1641.78 825.32 1645.38 823.925 1648.76 822.414C1657.59 820.205 1666.49 818.054 1675.09 814.973C1692.71 808.928 1708.76 799.162 1723.52 787.943C1716.6 803.987 1708.76 819.914 1698.06 833.865C1672.19 866.069 1633.17 883.624 1592.65 888.042C1588.81 888.449 1584.98 888.798 1581.14 888.972C1578.58 889.205 1575.85 889.088 1573.52 890.309C1570.03 892.634 1572.36 897.982 1572.53 901.412C1574.86 916.235 1579.34 930.651 1585.62 944.253C1587.88 949.136 1590.21 953.961 1592.59 958.844C1594.45 962.913 1597.01 966.807 1597.77 971.225C1589.45 970.005 1581.55 967.796 1573.41 965.122C1570.91 964.192 1568.41 963.145 1565.96 962.099C1563.81 961.227 1561.31 959.948 1558.99 961.111C1555.38 963.32 1557.07 968.377 1557.19 971.807C1558.17 982.909 1560.44 993.78 1563.17 1004.53C1564.57 1011.1 1566.72 1017.67 1566.72 1024.47C1563.7 1022.55 1561.02 1019.71 1558.35 1017.26C1555.27 1014.18 1552.13 1010.93 1550.73 1006.57C1551.2 1004.77 1548.81 1003.55 1547.59 1004.88C1547.19 1005.23 1547.07 1005.7 1547.01 1006.22C1546.49 1006.45 1545.91 1006.63 1545.38 1006.86C1544.63 1015.23 1543.06 1023.48 1538.7 1030.69C1534.98 1035.63 1529.98 1039.41 1524.8 1042.72C1518.93 1046.39 1512.94 1049.99 1507.71 1054.58C1502.59 1059 1498.23 1064.23 1493.7 1069.23C1489.63 1073.94 1488 1072.6 1485.73 1071.27C1484.45 1070.51 1482.94 1069.75 1480.62 1070.1C1477.36 1071.15 1476.37 1074.87 1475.27 1077.72C1471.66 1087.83 1469.22 1098.41 1463.17 1107.42C1454.92 1118.7 1442.19 1125.38 1429.8 1131.2C1406.95 1141.84 1383.64 1151.95 1361.78 1164.62C1340.73 1176.65 1320.33 1189.85 1299.28 1201.83C1284.4 1210.31 1269.4 1218.51 1253.93 1225.95C1246.08 1229.26 1243.17 1230.48 1244.74 1239.61C1247.59 1255.83 1251.2 1271.93 1254.8 1288.03C1258.46 1305.06 1267.07 1321.34 1280.67 1332.5C1285.96 1336.92 1291.66 1340.87 1296.66 1345.64C1303.12 1351.74 1308.76 1358.66 1313.46 1366.22C1318.87 1374.76 1322.71 1384.12 1326.55 1393.42C1330.91 1404.06 1334.16 1415.04 1335.5 1426.5C1336.37 1442.13 1341.9 1453.64 1351.26 1465.85C1361.78 1479.86 1373.99 1492.53 1386.2 1505.09C1405.21 1524.44 1423.87 1544.27 1444.92 1561.53C1465.5 1578.39 1487.59 1593.27 1508.87 1609.2C1561.26 1647.45 1606.43 1694.18 1651.37 1740.63C1682.13 1771.61 1710.91 1804.8 1738.46 1838.75C1752.3 1855.37 1765.15 1873.05 1773.46 1893.16C1776.66 1900.43 1779.63 1907.46 1782.42 1914.96C1783.29 1917.46 1784.22 1919.78 1784.45 1922.51C1784.57 1923.91 1785.27 1925.6 1783.64 1926.18C1782.01 1927.05 1780.15 1927.11 1778.35 1927.16C1773.29 1927.05 1768.29 1926.64 1763.29 1926.35C1739.4 1925.3 1715.96 1921.35 1692.24 1918.62C1675.27 1916.76 1658.12 1917.69 1641.2 1919.84C1593.23 1926.82 1545.15 1932.98 1496.78 1935.83C1477.42 1937.16 1458.23 1938.09 1438.81 1937.16C1412.88 1935.42 1387.24 1931.64 1361.55 1927.51C1352.3 1926 1343.17 1924.32 1333.99 1922.51C1333.81 1922.4 1333.58 1922.28 1333.29 1922.17C1328.35 1921.24 1323.41 1920.36 1318.41 1919.49C1309.69 1917.86 1301.02 1915.6 1292.3 1913.79C1283.12 1911.7 1273.58 1911.18 1264.92 1907.11C1264.51 1906.24 1263.93 1905.89 1263.29 1905.89C1263.06 1904.26 1262.88 1902.63 1262.83 1901.01C1262.83 1900.6 1262.83 1900.19 1262.83 1899.79C1262.83 1899.67 1262.71 1899.61 1262.65 1899.49C1262.36 1898.97 1262.24 1898.39 1262.3 1897.87C1262.19 1897.63 1262.13 1897.4 1262.07 1897.17C1262.01 1896.82 1261.84 1896.47 1261.55 1896.24C1259.34 1887.29 1257.48 1878.28 1255.33 1869.38C1239.98 1802.94 1217.65 1738.19 1205.09 1671.1C1203.12 1657.15 1200.85 1642.97 1203.46 1628.84C1204.45 1623.26 1208.23 1614.25 1215.33 1617.51C1220.38 1620.24 1223.41 1625.65 1226.84 1630.12C1243.52 1653.67 1256.9 1679.47 1270.27 1704.99C1287.07 1737.26 1302.83 1770.04 1320.21 1801.95C1327.83 1816.08 1335.79 1830.03 1344.22 1843.69C1349.05 1850.9 1353.7 1858.34 1359.16 1865.08C1363.52 1870.26 1367.88 1875.84 1373.87 1879.27C1376.26 1880.84 1379.74 1880.95 1381.6 1878.57C1383.35 1876.13 1383 1872.93 1382.48 1870.08C1378.58 1856.07 1372.83 1842.59 1367.88 1828.93C1352.59 1788.76 1336.43 1748.94 1319.63 1709.35C1299.1 1661.11 1276.6 1613.61 1258.64 1564.32C1245.03 1526.83 1234.16 1486.6 1253.64 1448.93C1259.92 1435.8 1270.44 1425.04 1280.38 1414.46C1288.93 1405.05 1297.71 1395.57 1291.49 1382.14C1287.01 1372.38 1283.46 1362.09 1278.06 1352.79C1272.83 1342.96 1263.81 1332.85 1251.6 1334.48C1246.72 1335.23 1242.77 1338.6 1237.83 1339.36C1231.02 1340.64 1227.36 1323.08 1225.15 1318.43C1221.49 1308.2 1218 1297.97 1213.87 1287.97C1211.78 1282.92 1209.51 1277.92 1207.65 1272.74C1206.43 1269.43 1206.02 1265.83 1207.3 1262.4C1210.33 1255.19 1216.02 1249.49 1221.02 1243.56C1229.05 1234.03 1237.71 1225.08 1246.9 1216.59C1251.31 1212.46 1273.23 1190.32 1280.03 1183.57C1288.93 1174.68 1297.42 1165.44 1304.98 1155.44C1314.74 1141.89 1324.1 1128.06 1332.65 1113.76C1346.08 1091.32 1354.8 1064.7 1351.2 1038.36C1349.34 1027.9 1344.45 1018.31 1339.92 1008.78C1334.69 998.081 1327.48 988.548 1319.86 979.48C1318.46 977.852 1317.13 976.224 1315.67 974.597C1314.63 973.202 1312.71 970.935 1311.08 972.737C1310.09 973.957 1311.26 975.411 1311.6 976.69C1312.77 979.48 1313.87 982.27 1314.98 985.06C1318.23 993.082 1321.26 1001.22 1324.22 1009.36C1328.76 1022.26 1333.52 1035.57 1334.4 1049.41C1334.4 1057.84 1332.3 1066.09 1331.08 1074.35C1328.7 1093.06 1321.78 1108.24 1310.56 1123.35C1299.8 1138.41 1286.9 1152.07 1271.49 1162.47C1258.52 1172.06 1242.94 1177 1229.28 1185.37C1220.03 1191.07 1211.55 1197.99 1202.36 1203.86C1194.92 1208.57 1186.95 1212.4 1178.76 1215.54C1160.33 1222.98 1139.74 1223.91 1120.62 1218.68C1104.8 1215.02 1089.45 1208.04 1077.83 1196.42C1071.72 1189.56 1068.06 1180.08 1068.06 1170.84C1068.64 1153.98 1072.36 1137.36 1076.55 1121.03C1084.51 1087.08 1102.07 1083.36 1126.72 1106.78C1140.44 1119.34 1152.94 1134.34 1170.96 1140.73C1189.05 1148.17 1203.87 1143.06 1220.15 1134.16C1228.99 1128.87 1236.84 1121.66 1241.9 1112.65C1246.78 1104.23 1250.67 1094.58 1249.74 1084.64C1249.22 1077.78 1246.2 1071.44 1243.7 1065.1C1241.08 1058.3 1239.28 1051.15 1238.35 1043.89C1235.96 1026.51 1242.48 1003.25 1227.94 990.001C1218.17 982.444 1206.02 978.608 1194.57 974.248C1187.88 971.69 1180.79 969.598 1174.92 965.412C1173.06 963.959 1173.76 960.704 1174.8 958.844C1186.26 946.404 1207.77 937.161 1224.4 934.197C1242.07 931 1260.21 935.534 1276.49 942.335C1293.7 949.543 1309.57 959.483 1325.73 968.784C1343.76 978.84 1362.65 987.269 1381.84 994.942C1399.05 1001.51 1417.48 1004.88 1435.91 1004.88C1461.14 1004.88 1486.31 998.604 1508.23 985.874C1513.81 982.677 1519.28 979.305 1524.57 975.585C1529.98 971.749 1535.56 968.493 1540.27 963.727C1544.22 959.89 1547.48 955.414 1550.5 950.764C1552.01 948.729 1553.06 946.055 1553.7 943.556C1554.57 940.184 1555.85 936.173 1553.7 933.092C1552.36 931.407 1550.67 929.43 1548.46 929.023C1548.35 929.023 1548.23 929.023 1548.12 929.081C1541.84 926.64 1533.7 928.907 1527.24 930.07C1516.6 932.395 1506.14 935.476 1495.56 937.975C1452.65 949.078 1406.95 950.88 1363.81 940.3C1346.95 936.173 1330.5 929.895 1315.38 921.35C1307.88 917.107 1300.73 912.282 1293.99 906.934C1286.66 901.063 1279.86 894.669 1273.35 887.984C1271.43 885.949 1270.21 883.624 1268.35 881.474C1264.51 876.998 1260.73 872.463 1256.84 868.046C1249.05 859.268 1240.79 850.781 1231.37 843.689C1201.9 821.426 1167.88 805.731 1133.17 793.582C1109.51 785.211 1085.33 778.584 1061.9 769.632C1050.15 764.459 1019.4 755.1 1019.8 739.986C1021.31 731.848 1028.29 725.628 1034.28 720.397C1041.66 714.351 1050.21 710.224 1059.1 706.852C1072.01 701.737 1085.79 699.296 1099.63 698.482C1131.2 697.319 1163.06 705.283 1190.44 721.036C1229.92 745.218 1258.29 782.537 1289.57 815.845C1292.42 818.868 1295.79 821.368 1298.41 824.565C1306.9 834.912 1316.31 843.166 1326.26 852.06C1334.63 859.559 1343.35 866.65 1352.48 873.277C1370.44 886.356 1389.92 897.575 1410.91 905.19C1429.34 911.875 1448.87 915.654 1468.52 915.654C1470.33 915.654 1472.13 915.654 1473.93 915.537C1503.23 914.491 1532.3 901.993 1552.83 881.008C1560.27 872.987 1567.77 864.267 1570.85 853.513C1572.71 847.7 1571.2 840.376 1564.57 839.213C1558.7 838.225 1553.06 840.783 1547.65 842.701C1525.73 851.421 1504.45 861.942 1481.78 868.743C1448.76 878.916 1414.1 877.811 1381.6 865.953C1348.52 853.862 1321.43 828.518 1301.26 800.441C1295.73 792.768 1290.62 784.804 1285.96 776.55C1268.23 744.753 1254.86 715.63 1221.26 697.319C1207.94 689.821 1193.23 685.17 1178.93 679.997C1167.48 675.753 1155.5 671.277 1144.16 666.453C1104.1 648.084 1072.3 619.368 1058.99 576.352C1053.93 560.308 1050.44 543.567 1049.1 526.767C1048.12 510.026 1049.57 493.285 1053 476.892C1055.96 463.929 1059.69 451.199 1065.21 439.108C1067.07 435.155 1068.76 430.97 1071.14 427.25C1072.13 425.622 1074.63 420.914 1070.79 420.39C1069.16 420.158 1065.44 423.123 1063.93 423.878C1055.03 428.47 1045.67 433.47 1036.08 436.841C1009.98 446.374 999.977 446.781 973 442.015C955.209 439.108 937.535 434.342 921.779 425.39C904.279 414.984 889.976 400.161 875.267 386.327C856.662 368.539 835.79 353.367 813.872 339.881C800.325 331.336 786.255 323.605 771.314 317.792C747.593 309.189 722.593 305.178 697.942 300.295C680.093 296.807 673.465 291.808 695.209 285.53C703.523 283.089 711.779 280.473 720.383 279.078C733.465 276.869 746.837 276.694 759.918 278.845C813.349 289.483 853.93 328.895 900.674 354.181C931.488 372.201 960.907 381.386 996.43 371.794C1005.38 369.295 1029.8 365.109 1029.86 353.483C1028.87 347.264 1021.14 348.136 1016.31 348.019C1011.2 348.194 1006.02 348.542 1000.91 348.601C982.825 349.24 964.744 346.508 947.709 340.288C919.628 330.406 893.93 314.537 870.907 295.819C850.325 279.194 832.186 259.372 809.395 245.653C784.221 230.714 749.279 216.24 719.628 218.507C699.628 220.483 680.093 229.144 665.616 243.212C655.325 253.094 647.942 265.534 641.139 277.973C644.395 231.353 636.372 172.701 589.86 149.798C574.686 142.299 557.709 138.928 540.79 139.858C524.337 140.497 507.651 144.392 493.814 153.751C475.151 164.795 466.779 185.722 454.569 202.579C442.942 217.635 428.174 230.133 413.639 242.456C400.907 253.384 388.407 264.545 375.325 275.125C362.36 285.588 349.453 296.284 337.418 307.852C328.407 316.862 320.79 327.093 313.29 337.382C308.349 344.183 303.814 351.275 300.035 358.773C290.732 377.084 281.837 395.802 276.372 415.682C268.232 442.887 266.43 472.823 276.081 499.912C278.581 506.19 284.744 523.105 291.488 524.965C294.976 524.965 294.395 521.071 293.814 518.687C293.174 515.723 292.535 512.7 291.895 509.735C290.325 501.714 288.872 493.692 287.593 485.612C284.337 466.371 284.279 446.607 288.523 427.482C292.651 406.091 300.965 385.687 311.721 366.795C319.569 352.553 328.349 338.835 338.988 326.511C360.907 300.876 388.407 280.938 415.209 260.709C430.035 249.141 443.93 236.411 457.651 223.68C472.767 209.38 489.511 197.755 475.325 228.738C462.535 254.431 442.36 275.357 424.511 297.505C407.767 317.501 390.5 337.033 373.407 356.739C365.035 366.446 356.721 376.212 349.628 386.908C323 425.448 310.267 484.972 309.337 531.36C308.93 562.226 313.523 593.209 324.279 622.216C327.883 631.4 337.302 656.803 348.058 657.849C350.267 657.268 351.023 655.989 350.965 654.362C352.302 655.699 353.988 656.803 355.442 657.966C361.837 662.267 368.814 665.406 376.081 668.022C375.267 683.252 375.674 698.598 377.476 713.828C379.162 729.581 381.197 745.392 385.79 760.564C386.43 762.076 388.116 770.272 390.093 769.807C391.081 769.923 392.011 769.167 392.128 768.179C392.128 767.075 391.43 766.203 391.139 765.156C386.895 753.065 384.511 740.393 382.825 727.663C380.325 709.12 378.814 690.402 379.453 671.684C379.453 670.87 379.569 669.998 379.628 669.185C384.279 670.696 389.046 672.033 393.697 673.254C390.674 683.891 389.744 695.052 389.628 706.097C390.035 713.13 387.651 724.175 396.779 726.21C405.383 728.128 413.93 724.291 421.779 721.211C434.744 716.095 445.383 706.852 454.279 696.273C446.43 716.56 431.197 732.488 418.465 749.81C400.442 775.155 383.755 801.429 364.744 826.134C352.825 842.236 338.058 855.838 323.349 869.383C314.686 877.463 306.081 886.356 302.128 897.75C295.616 914.782 301.721 933.906 315.674 945.242C323.697 952.333 332.767 958.495 342.942 962.041C349.104 964.134 355.79 963.087 362.128 963.959C369.86 964.831 376.953 968.261 383.872 971.574C390.674 975.062 397.535 978.55 403.93 982.793C407.593 985.351 411.255 988.083 414.337 991.396C416.081 993.838 414.686 995.756 411.953 994.303C407.825 992.617 404.046 989.827 400.093 987.734C394.162 984.479 388.174 981.34 382.069 978.375C380.325 977.445 377.418 977.213 376.953 979.712C377.128 984.363 384.569 988.955 388 991.571C398.697 998.43 409.511 1005.46 421.023 1010.87C409.976 1008.31 399.104 1004.71 388.93 999.534C377.767 994.187 367.825 983.084 355.674 993.315C348.29 1000.35 343.116 1009.36 336.197 1016.86C333.581 1019.76 330.849 1022.38 327.593 1024.59C322.476 1027.84 315.558 1029.24 312.709 1035.11C307.709 1046.15 314.976 1059.12 323.93 1065.8C330.442 1070.39 338.697 1072.31 346.604 1071.38C352.418 1069.52 358.232 1071.85 362.883 1075.39C380.849 1091.67 397.535 1109.86 415.965 1125.73C425.674 1134.22 435.965 1142.01 445.849 1150.21C458.755 1160.96 471.081 1172.35 483.407 1183.75C469.976 1179.5 456.895 1174.1 443.349 1169.97C422.244 1163.11 400.965 1156.43 380.674 1147.47C366.546 1140.38 352.767 1132.13 340.965 1121.49C329.453 1110.91 320.616 1097.89 311.197 1085.51C308.639 1082.02 305.383 1079 303.116 1075.28C301.837 1072.72 300.907 1069.64 300.267 1066.85C299.918 1065.22 299.569 1063.54 299.395 1061.85C299.395 1060.57 298.814 1059.12 297.36 1059.18C294.628 1059.41 295.325 1063.83 294.802 1065.86C293.814 1071.85 294.918 1077.89 296.488 1083.71C299.686 1097.95 307.011 1107.66 317.011 1117.83C326.721 1127.94 337.128 1137.82 348.93 1145.56C360.267 1151.95 372.535 1156.77 384.802 1161.25C397.302 1165.32 410.209 1167.82 422.825 1171.48C441.43 1176.95 459.976 1182.76 478.872 1187.23C468.988 1188.11 459.104 1187.23 449.221 1186.89C435.907 1186.25 422.535 1186.13 409.162 1186.54C369.976 1187.41 343.058 1192.18 311.488 1163.58C305.442 1157.82 299.395 1151.66 295.965 1143.93C295.732 1139.22 297.476 1134.28 298.523 1129.63C299.628 1124.16 304.628 1114.51 298.523 1110.68C291.43 1108.47 289.162 1118.29 288.465 1123.52C287.651 1130.56 289.221 1137.65 291.895 1144.1C291.197 1152.94 292.128 1162.12 295.907 1170.2C297.069 1172.76 298.348 1175.2 299.686 1177.64C299.046 1178.34 298.872 1179.45 299.744 1180.2C301.779 1183.05 303 1186.3 303.407 1189.79C304.337 1196.71 303.523 1203.69 302.011 1210.43C300.383 1219.67 296.837 1228.33 292.535 1236.64C280.442 1260.59 264.918 1277.57 266.895 1306.63C268.407 1318.14 273.988 1329.71 283.29 1336.86C291.081 1342.91 298.349 1344.24 306.139 1337.32C306.488 1344.07 308.581 1350.87 313.639 1355.64C317.709 1359.65 322.418 1362.96 327.36 1365.75C329.86 1367.15 332.418 1368.42 335.035 1369.64C336.779 1370.46 338.581 1371.04 340.325 1371.85C342.011 1372.67 343.523 1373.89 345.093 1374.88C348.755 1377.2 352.476 1379.41 356.255 1381.5C363.872 1385.69 371.662 1389.47 379.569 1393.01C380.442 1393.42 381.314 1393.83 382.186 1394.18C395.267 1399.12 409.046 1402.37 423 1403.42C438.232 1404.35 453.523 1403.19 468.755 1402.55C486.43 1402.26 504.337 1401.96 522.011 1400.8C548.814 1399 575.674 1399.41 602.476 1400.51C633.523 1402.14 664.453 1405.39 695.558 1406.79C716.779 1407.66 737.883 1405.34 758.814 1401.91C786.488 1396.85 813.581 1386.91 837.476 1372.03C847.36 1365.81 856.488 1358.37 865.093 1350.46C880.151 1336.34 894.918 1321.86 909.628 1307.27C907.128 1311.81 904.569 1316.28 902.011 1320.82C899.686 1324.94 897.302 1329.01 894.918 1333.14C892.593 1337.15 890.093 1341.05 887.709 1345C885.325 1348.89 882.767 1352.73 880.267 1356.62C877.942 1360.17 875.383 1363.6 872.825 1366.97C871.43 1368.77 870.035 1370.57 868.581 1372.32C866.837 1374.41 865.035 1376.5 863.232 1378.54C861.43 1380.57 859.569 1382.61 857.767 1384.64C856.197 1386.33 854.569 1388.01 852.942 1389.64C852.128 1390.4 851.314 1391.21 850.558 1391.97C849.976 1392.55 849.395 1393.13 848.814 1393.65C847.825 1394.52 846.837 1395.4 845.849 1396.33C845.325 1396.79 844.802 1397.26 844.279 1397.72C843.232 1398.59 842.186 1399.47 841.139 1400.34C840.616 1400.74 840.151 1401.21 839.628 1401.56C838 1402.84 836.372 1404.12 834.744 1405.34C833.349 1406.32 831.837 1407.43 830.325 1408.53C829.104 1409.41 827.883 1410.22 826.604 1411.09C825.325 1411.96 824.104 1412.83 822.767 1413.59C821.255 1414.52 819.802 1415.39 818.29 1416.32C816.662 1417.19 815.035 1418.07 813.407 1419C812.244 1419.64 810.965 1420.22 809.744 1420.8C808.407 1421.44 807.069 1422.14 805.674 1422.72C803.988 1423.41 802.36 1424.11 800.674 1424.87C798.814 1425.51 796.779 1426.32 794.744 1427.08C793.116 1427.66 791.488 1428.18 789.86 1428.7C788.29 1429.23 786.721 1429.69 785.151 1430.16C783.232 1430.74 781.314 1431.32 779.395 1431.84C777.302 1432.42 775.267 1432.95 773.174 1433.53C771.604 1433.94 770.035 1434.28 768.465 1434.69C766.779 1435.1 765.093 1435.51 763.349 1435.8C761.372 1436.15 759.395 1436.55 757.418 1436.9C754.569 1437.31 751.779 1437.77 748.93 1438.06C746.895 1438.3 744.802 1438.47 742.709 1438.7C741.372 1438.82 740.035 1438.94 738.755 1438.99C737.302 1439.11 735.907 1439.23 734.453 1439.28C732.535 1439.4 730.558 1439.46 728.639 1439.57C725.674 1439.69 722.709 1439.75 719.802 1439.87C717.593 1439.87 715.151 1439.98 712.709 1439.92C710.325 1439.92 707.942 1439.92 705.5 1439.92C700.907 1439.92 696.255 1439.69 691.662 1439.57C687.302 1439.46 682.883 1439.34 678.523 1439.11C676.023 1438.99 673.465 1438.88 670.965 1438.64C668.697 1438.47 666.43 1438.24 664.104 1438.06C662.186 1437.83 660.151 1437.6 658.116 1437.31C657.128 1437.13 656.081 1437.02 655.093 1436.84C653.814 1436.61 652.535 1436.38 651.255 1436.15C649.279 1435.8 647.302 1435.33 645.325 1434.87C643.29 1434.4 641.197 1433.88 639.162 1433.35C635.558 1432.37 631.721 1431.32 627.942 1430.16C624.104 1428.94 620.209 1427.72 616.372 1426.44C612.36 1425.1 608.29 1423.76 604.279 1422.48C602.535 1421.9 600.79 1421.32 599.104 1420.74C597.128 1420.04 595.209 1419.35 593.29 1418.59C587.128 1416.09 581.081 1413.42 574.976 1410.68C573.29 1409.93 571.604 1409.17 569.918 1408.36C568.407 1407.66 566.837 1406.96 565.267 1406.38C564.395 1406.09 563.407 1405.74 562.476 1405.57C561.662 1405.45 561.197 1405.39 560.383 1405.39C559.569 1405.39 558.755 1405.57 557.942 1405.8C557.535 1405.92 557.186 1406.09 556.779 1406.27C555.5 1406.85 554.511 1407.89 553.581 1408.94C552.418 1410.28 551.779 1411.96 551.081 1413.53C550.325 1415.33 549.802 1417.25 549.279 1419.17C548.755 1421.26 548.349 1423.41 548.058 1425.57C547.825 1427.48 547.651 1429.4 547.418 1431.32C547.069 1434.58 546.721 1437.89 546.43 1441.14C546.139 1443.88 545.849 1446.67 545.616 1449.4C545.5 1450.91 545.325 1452.42 545.209 1453.93C545.093 1455.73 544.976 1457.54 544.86 1459.34C544.744 1460.85 544.744 1462.3 544.628 1463.81C544.628 1465.04 544.511 1466.2 544.511 1467.42C544.511 1469.05 544.395 1470.73 544.395 1472.36C544.395 1474.05 544.395 1475.79 544.395 1477.47C544.395 1478.81 544.453 1480.09 544.511 1481.43C544.511 1482.71 544.628 1483.99 544.686 1485.26C544.802 1486.83 544.86 1488.4 545.035 1489.97C545.151 1490.9 545.209 1491.77 545.325 1492.7C545.383 1493.34 545.442 1493.98 545.5 1494.62C545.732 1496.13 545.907 1497.65 546.139 1499.22C546.372 1500.67 546.662 1502.18 546.953 1503.63C547.069 1504.45 547.302 1505.2 547.535 1505.96C547.709 1506.6 547.825 1507.3 548 1507.88C548.465 1509.45 548.93 1511.07 549.511 1512.64C550.907 1516.25 552.593 1519.79 554.744 1522.99C556.779 1526.07 559.104 1529.04 561.721 1531.71C564.395 1534.5 567.302 1537.06 570.383 1539.38C571.255 1540.02 572.186 1540.72 573.116 1541.36C573.814 1541.82 574.569 1542.29 575.267 1542.75C576.197 1543.34 577.128 1543.98 578.058 1544.56C578.349 1544.73 578.639 1544.96 578.93 1545.14C580.5 1546.01 582.011 1546.88 583.581 1547.75C586.081 1549.15 588.639 1550.43 591.255 1551.53C594.686 1552.99 598.232 1554.32 601.837 1555.25C603.93 1555.83 606.081 1556.3 608.174 1556.71C609.686 1557 611.197 1557.29 612.709 1557.4C614.395 1557.58 616.139 1557.75 617.825 1557.93C619.046 1558.04 620.209 1558.16 621.43 1558.22C623.349 1558.28 625.325 1558.39 627.244 1558.51C627.942 1558.51 628.697 1558.51 629.395 1558.51C629.569 1558.51 629.744 1558.51 629.918 1558.51C630.267 1558.51 630.616 1558.51 630.907 1558.51H635.442C637.128 1558.51 638.814 1558.39 640.5 1558.33C641.604 1558.33 642.709 1558.28 643.814 1558.22C646.953 1558.04 650.035 1557.87 653.116 1557.58C654.337 1557.46 655.558 1557.34 656.779 1557.29C657.302 1557.29 657.767 1557.23 658.29 1557.17C659.86 1557 661.43 1556.82 663 1556.65C664.221 1556.53 665.442 1556.41 666.662 1556.18C668.523 1555.89 670.383 1555.6 672.244 1555.37C675.267 1554.9 678.29 1554.26 681.314 1553.74C682.476 1553.51 683.697 1553.22 684.86 1552.99C686.488 1552.64 688.116 1552.23 689.802 1551.88C691.314 1551.53 692.825 1551.12 694.337 1550.72C695.558 1550.43 696.721 1550.14 697.942 1549.79C699.86 1549.26 701.837 1548.74 703.755 1548.22C704.744 1547.93 705.674 1547.7 706.662 1547.4C708.639 1546.82 710.616 1546.24 712.535 1545.6C713.465 1545.31 714.395 1545.02 715.325 1544.73C718.174 1543.8 721.081 1542.87 723.93 1541.88C726.953 1540.78 729.976 1539.73 732.942 1538.57C734.569 1537.93 736.197 1537.35 737.825 1536.71C739.221 1536.13 740.616 1535.55 742.069 1534.97C743.174 1534.5 744.337 1534.04 745.442 1533.57C747.186 1532.76 748.93 1532 750.674 1531.19C751.837 1530.66 753 1530.08 754.162 1529.5C755.5 1528.86 756.837 1528.22 758.116 1527.58C760.907 1526.13 763.697 1524.68 766.43 1523.16C767.651 1522.47 768.872 1521.83 770.093 1521.13C771.604 1520.26 773.116 1519.33 774.628 1518.46C776.081 1517.58 777.535 1516.65 778.93 1515.78C780.093 1515.08 781.197 1514.33 782.36 1513.57C784.628 1512.06 786.895 1510.55 789.104 1508.98C790.383 1508.05 791.721 1507.12 792.942 1506.19C794.279 1505.14 795.616 1504.1 797.011 1503.05C798.174 1502.12 799.337 1501.19 800.442 1500.26C801.372 1499.51 802.244 1498.75 803.174 1497.99C805.732 1495.84 808.29 1493.64 810.79 1491.43C815.151 1487.59 819.511 1483.69 823.755 1479.74C824.86 1478.7 825.965 1477.71 827.069 1476.6C828.407 1475.32 829.686 1474.05 831.023 1472.77C833.116 1470.73 835.151 1468.64 837.186 1466.6C839.046 1464.74 840.907 1462.77 842.709 1460.85C844.744 1458.64 846.837 1456.49 848.872 1454.28C853.29 1449.57 857.709 1444.81 862.128 1440.1C866.255 1435.68 870.5 1431.38 874.744 1427.08C879.744 1422.08 884.802 1417.08 889.976 1412.08C895.093 1407.14 900.209 1402.31 905.383 1397.43C909.918 1393.13 914.511 1388.94 919.104 1384.7C923.639 1380.52 928.232 1376.45 932.825 1372.38C937.476 1368.31 942.186 1364.3 946.953 1360.29C951.372 1356.57 955.965 1352.96 960.5 1349.36C962.535 1347.85 964.744 1346.16 966.895 1344.47C969.046 1342.85 971.255 1341.28 973.407 1339.65C977.535 1336.57 981.779 1333.66 986.023 1330.81C987.942 1329.48 989.918 1328.2 991.895 1326.98C993.872 1325.7 995.79 1324.48 997.767 1323.2C1002.19 1320.47 1006.66 1317.68 1011.2 1315.06C1013.41 1313.78 1015.85 1312.33 1018.29 1310.93C1019.63 1310.18 1020.91 1309.48 1022.24 1308.73C1023.29 1308.14 1024.34 1307.5 1025.44 1306.98C1027.83 1305.7 1030.21 1304.42 1032.65 1303.2C1035.44 1301.81 1038.23 1300.41 1041.08 1299.13C1043.87 1297.8 1046.72 1296.52 1049.51 1295.18C1054.63 1292.8 1059.74 1290.53 1064.86 1288.21C1069.63 1286.05 1074.45 1283.96 1079.28 1281.87C1083.58 1280.07 1087.88 1278.38 1092.19 1276.64C1094.51 1275.71 1096.78 1274.84 1099.1 1273.91C1100.38 1273.44 1101.66 1272.92 1102.94 1272.51C1102.88 1272.51 1102.83 1272.63 1102.77 1272.68C1101.31 1273.73 1099.86 1274.66 1098.35 1275.59C1097.01 1276.35 1095.62 1277.1 1094.22 1277.86C1093.41 1278.27 1092.59 1278.73 1091.78 1279.14C1089.51 1280.24 1087.24 1281.4 1085.03 1282.51C1080.44 1284.83 1075.85 1287.04 1071.31 1289.48C1068.52 1290.94 1065.73 1292.39 1063 1293.96C1060.38 1295.41 1057.77 1296.87 1055.21 1298.44C1049.69 1301.69 1044.22 1305.06 1038.76 1308.38C1033.93 1311.34 1029.05 1314.36 1024.28 1317.5C1019.05 1320.93 1013.81 1324.48 1008.64 1328.02C1003.52 1331.57 998.349 1335.12 993.232 1338.66C988.29 1342.09 983.407 1345.64 978.523 1349.18C973.697 1352.67 968.988 1356.22 964.279 1359.82C963.116 1360.69 961.895 1361.62 960.732 1362.55C959.628 1363.42 958.523 1364.36 957.418 1365.23C956.023 1366.33 954.628 1367.49 953.232 1368.6C952.244 1369.41 951.314 1370.23 950.325 1371.04C948.872 1372.32 947.36 1373.54 945.907 1374.82C945.093 1375.52 944.337 1376.27 943.523 1376.97C941.314 1378.95 939.162 1380.92 937.011 1382.96C934.86 1384.99 932.709 1387.03 930.616 1389.18C929.104 1390.75 927.593 1392.26 926.081 1393.83C925.442 1394.52 924.744 1395.16 924.162 1395.86C922.069 1398.13 919.918 1400.34 917.883 1402.66C915.907 1404.93 913.872 1407.14 911.953 1409.46C909.976 1411.79 908 1414.11 906.139 1416.56C904.279 1418.94 902.36 1421.26 900.558 1423.65C898.697 1426.15 896.837 1428.59 894.976 1431.09C893.116 1433.59 891.314 1436.14 889.453 1438.64C885.849 1443.7 882.244 1448.76 878.639 1453.82C874.976 1458.99 871.314 1464.22 867.651 1469.4C864.279 1474.1 860.732 1478.75 857.244 1483.35C853.93 1487.65 850.616 1491.89 847.186 1496.08C843.755 1500.26 840.267 1504.45 836.779 1508.57C829.744 1517 822.709 1525.49 815.5 1533.8C814.86 1534.56 814.918 1535.66 815.616 1536.36C813.058 1539.79 810.383 1543.16 808.174 1546.82C802.418 1556.12 797.244 1565.83 793.697 1576.18C788.058 1594.37 786.953 1613.56 785.035 1632.45C781.255 1664.83 780.965 1697.44 781.372 1729.99C782.128 1757.6 779.802 1785.15 779.976 1812.77C779.976 1834.97 781.546 1857.12 783.465 1879.09C783.697 1881.77 783.93 1884.5 784.104 1887.23C784.628 1889.85 783.814 1894.5 786.43 1896.01C793.232 1898.8 793.988 1864.33 794.279 1858.34C795.383 1831.83 795.5 1805.27 797.767 1778.82C799.569 1756.44 801.604 1734.12 804.221 1711.79C807.302 1689.42 810.093 1667.04 812.36 1644.6C815.5 1619.6 815.674 1593.56 824.976 1569.78C830.5 1558.74 838.232 1548.92 845.849 1539.27C848.523 1536.19 851.255 1532.99 854.918 1531.01C861.081 1527.93 868.872 1528.11 874.686 1531.77C880.674 1535.55 884.86 1541.42 888.988 1547.06C893.93 1554.09 898.755 1561.12 904.046 1568.16C917.244 1585.89 931.255 1603.09 945.442 1620.07C942.883 1622.86 938.872 1624.19 935.674 1626.11C933 1627.57 930.325 1629.08 927.767 1630.76C920.209 1635.99 913 1642.27 907.883 1649.95C904.686 1655.23 902.302 1661.11 900.209 1666.92C894.86 1681.92 890.325 1697.2 885.558 1712.49C884.744 1716.1 882.767 1719.58 882.942 1723.3C887.36 1732.72 901.023 1703.77 903.349 1700.17C913.407 1681.86 923.93 1663.72 937.069 1647.39C940.035 1657.27 929.395 1681.86 926.255 1692.9C919.628 1713.95 912.128 1735.1 910.907 1757.31C910.442 1762.14 911.197 1767.13 909.686 1771.84C906.488 1780.39 900.383 1787.6 894.976 1794.86C874.046 1820.61 856.255 1848.86 841.953 1878.86C839.279 1884.38 836.721 1890.19 834.279 1895.95C834.046 1896.12 833.814 1896.3 833.697 1896.59C830.79 1901.99 828.407 1907.98 824.104 1912.4C823.407 1912.86 822.593 1913.39 821.604 1913.45C816.604 1913.62 811.546 1913.16 806.546 1913.04C788.697 1912.52 770.907 1911.24 753.116 1909.73C717.36 1906.99 681.43 1906.12 645.558 1906.06C621.546 1905.66 559.221 1910.95 547.011 1886.71C546.255 1884.03 546.255 1881.36 547.011 1878.63C548.581 1873.86 550.383 1869.21 552.186 1864.5C555.442 1855.96 558.872 1847.41 562.535 1839.04C578.232 1802.94 598.988 1769.23 619.976 1736.03C642.942 1699.47 669.453 1665.29 693.697 1629.54C696.023 1625.76 698.523 1622.04 700.558 1618.09C701.779 1615.47 703.523 1612.86 703.174 1609.84C702.942 1607.28 699.744 1607.98 698.349 1609.2C694.395 1612.57 691.081 1616.75 687.593 1620.59C678.639 1630.7 669.628 1640.7 660.907 1650.99C623.174 1694.59 591.139 1742.72 556.662 1788.93C536.488 1816.31 514.046 1841.89 492.709 1868.4C483.872 1879.15 475.558 1890.54 464.221 1898.8C463.116 1899.49 462.011 1900.31 460.732 1900.72C460.442 1900.77 459.86 1900.89 459.744 1900.43C458.755 1897.23 458.697 1893.74 458.058 1890.48C456.662 1881.47 455.035 1872.52 452.942 1863.69C445.616 1831.43 434.569 1799.22 413.523 1773.18C397.011 1751.85 379.976 1730.92 363.174 1709.82C342.476 1683.2 320.5 1657.44 296.488 1633.73C272.709 1610.88 247.244 1588.62 217.011 1574.78C236.255 1566.94 256.023 1560.25 274.918 1551.47C305.5 1537.41 336.255 1523.11 363.814 1503.58C383 1489.91 400.558 1474.39 417.651 1458.23C430.558 1445.85 443.639 1433.65 455.674 1420.45C457.535 1418.42 459.279 1416.32 461.255 1414.4C463.232 1412.95 461.604 1410.45 459.511 1411.15C453 1417.08 447.593 1424.34 441.081 1430.33C421.779 1449.4 402.36 1468.23 381.314 1485.44C345.383 1515.49 302.418 1535.31 259.744 1553.97C247.883 1558.86 235.848 1563.51 223.814 1567.98C220.209 1569.49 206.488 1572.98 214.86 1577.81C244.86 1591.47 270.093 1613.44 293.639 1636.11C334.86 1676.51 368.755 1723.48 405.035 1768.24C416.314 1782.13 426.488 1797.07 433.407 1813.64C444.744 1840.44 451.197 1869.09 455.383 1897.81C457.593 1920.31 489.744 1877.46 494.86 1871.36C521.023 1839.1 548.232 1807.65 572.244 1773.7C594.337 1743.36 616.139 1712.67 639.104 1682.96C657.883 1659.3 677.825 1636.58 698.232 1614.25C692.418 1625.76 684.628 1636.11 677.302 1646.63C666.721 1661.4 656.023 1676.05 645.558 1690.93C608.93 1744.52 572.825 1799.57 549.628 1860.55C547.825 1865.2 546.081 1869.85 544.453 1874.5C542.709 1878.74 542.069 1883.45 543.465 1887.87C554.918 1912.52 609.279 1909.67 632.767 1909.78C652.302 1909.49 671.837 1909.78 691.43 1910.31C734.395 1910.89 777.128 1916.24 820.151 1917.05C824.279 1917.4 827.128 1914.9 829.337 1911.82C829.453 1911.93 829.569 1912.05 829.744 1912.11C830.616 1912.46 831.837 1912.05 832.128 1911.06C832.942 1908.68 833.872 1906.35 834.802 1904.03C838.116 1896.01 841.546 1888.1 845.267 1880.25C858.523 1852.7 874.511 1826.37 893.581 1802.42C898.407 1796.26 903.29 1790.15 907.535 1783.58C910.267 1779.34 912.942 1774.87 913.872 1769.81C914.686 1761.09 914.337 1752.25 916.023 1743.59C918.407 1729.7 922.651 1716.27 926.779 1702.84C931.604 1686.51 939.046 1670.12 941.255 1653.03C941.779 1648.96 939.686 1639.13 934.337 1644.71C921.546 1660.41 911.314 1678.08 901.43 1695.69C896.953 1703.71 893 1712.09 887.186 1719.35C893.814 1698.72 899.221 1677.61 907.767 1657.73C911.255 1649.36 918 1643.03 924.86 1637.39C928.407 1634.54 932.244 1632.16 936.197 1629.95C940.209 1627.68 944.686 1625.94 948 1622.68C950.325 1620.71 951.837 1614.66 947.069 1615.65C946.895 1615.71 946.721 1615.82 946.604 1615.88C943.814 1612.57 941.023 1609.2 938.29 1605.82C929.628 1595.25 921.081 1584.61 912.767 1573.8C906.662 1565.89 900.907 1557.75 895.151 1549.61C887.535 1538.69 878.29 1524.21 863.116 1525.14C848.523 1525.37 840.907 1539.67 832.942 1549.85C819.802 1567.05 816.895 1578.5 813.581 1599.49C810.267 1623.5 808.407 1647.68 805.558 1671.69C799.918 1713.6 795.093 1755.62 792.476 1797.88C791.895 1811.37 791.662 1824.86 791.081 1838.34C790.209 1854.74 790.849 1871.3 787.651 1887.52C785.79 1864.85 783.814 1842.18 783.581 1819.39C783.116 1787.25 785.849 1755.1 784.802 1722.96C784.802 1707.03 784.802 1691.16 785.267 1675.23C785.907 1659.25 787.593 1643.38 789.104 1627.45C790.616 1611.81 792.011 1596 796.081 1580.77C798.697 1571.59 803.058 1563.1 807.709 1554.73C810.325 1550.08 813.29 1545.54 816.546 1541.18C818.407 1538.69 820.383 1536.3 822.011 1533.63C822.418 1533.05 822.418 1532.29 822.128 1531.71C828.116 1524.73 834.046 1517.7 839.918 1510.61C847.011 1502.12 854.104 1493.64 860.79 1484.8C864.628 1479.68 868.465 1474.57 872.186 1469.34C875.849 1464.22 879.511 1459.05 883.116 1453.82C886.546 1448.88 890.093 1443.99 893.581 1439.17C896.953 1434.46 900.5 1429.81 903.988 1425.16C906.139 1422.43 908.232 1419.64 910.5 1416.96C912.069 1415.1 913.581 1413.24 915.151 1411.38C916.255 1410.1 917.36 1408.82 918.465 1407.55C919.511 1406.32 920.558 1405.16 921.604 1404C923.232 1402.2 924.918 1400.4 926.546 1398.59C927.593 1397.43 928.697 1396.33 929.802 1395.22C931.139 1393.83 932.476 1392.43 933.872 1391.09C935.035 1389.99 936.255 1388.77 937.535 1387.61C938.639 1386.56 939.744 1385.46 940.849 1384.41C943.232 1382.2 945.674 1380.05 948.058 1377.84C949.279 1376.74 950.558 1375.75 951.779 1374.64C953 1373.6 954.221 1372.49 955.5 1371.5C958 1369.47 960.5 1367.44 963 1365.4C965.558 1363.43 968.29 1361.27 971.081 1359.24C974.046 1357.03 977.011 1354.82 979.976 1352.67C986.256 1348.14 992.535 1343.66 998.872 1339.24C1003.93 1335.7 1009.05 1332.21 1014.1 1328.72C1016.55 1327.04 1019.05 1325.35 1021.49 1323.72C1022.59 1322.97 1023.7 1322.27 1024.8 1321.57C1025.96 1320.82 1027.13 1320.06 1028.29 1319.3C1033.64 1315.88 1039.05 1312.56 1044.45 1309.19C1049.34 1306.17 1054.28 1303.2 1059.28 1300.3C1061.37 1299.13 1063.46 1297.91 1065.62 1296.75C1067.48 1295.7 1069.34 1294.77 1071.2 1293.79C1074.69 1291.93 1078.17 1290.18 1081.66 1288.38C1083.64 1287.39 1085.62 1286.4 1087.59 1285.42C1088.87 1284.78 1090.15 1284.14 1091.43 1283.5C1092.19 1283.09 1093 1282.74 1093.76 1282.33C1095.91 1281.17 1098.12 1280.07 1100.21 1278.85C1101.55 1278.03 1102.88 1277.28 1104.1 1276.35C1104.8 1275.82 1105.56 1275.3 1106.26 1274.66C1107.01 1273.96 1107.71 1273.27 1108.41 1272.51C1108.93 1271.93 1109.16 1271.35 1109.45 1270.65C1109.86 1269.72 1109.51 1268.62 1108.58 1268.21C1108.06 1267.98 1107.65 1267.69 1107.07 1267.74C1106.43 1267.74 1106.08 1267.86 1105.5 1268.03C1105.09 1268.15 1104.74 1268.27 1104.34 1268.33C1103.12 1268.67 1101.95 1269.08 1100.79 1269.55C1098.46 1270.42 1096.14 1271.35 1093.81 1272.22C1089.74 1273.79 1085.67 1275.42 1081.66 1277.04C1075.91 1279.43 1070.27 1281.93 1064.63 1284.43C1059.4 1286.75 1054.16 1289.08 1048.99 1291.52C1046.14 1292.86 1043.29 1294.19 1040.44 1295.53C1037.42 1296.98 1034.4 1298.44 1031.37 1299.95C1028.76 1301.23 1026.26 1302.62 1023.7 1303.96C1022.36 1304.66 1021.02 1305.47 1019.69 1306.17C1018.58 1306.75 1017.48 1307.39 1016.43 1307.97C1014.28 1309.25 1011.9 1310.64 1009.51 1311.98C1007.53 1313.14 1005.62 1314.31 1003.64 1315.47C1001.95 1316.51 1000.27 1317.5 998.523 1318.61C996.663 1319.77 994.744 1320.93 992.883 1322.09C990.383 1323.72 987.767 1325.29 985.325 1327.04C982.825 1328.72 980.325 1330.41 977.825 1332.21C975.267 1334.01 972.709 1335.87 970.209 1337.73C967.709 1339.59 965.151 1341.45 962.651 1343.37C960.209 1345.23 957.825 1347.03 955.442 1348.95C954.162 1350 952.825 1350.99 951.546 1352.03C950.383 1352.96 949.221 1353.89 948.116 1354.88C943.232 1358.89 938.407 1363.02 933.581 1367.15C924.395 1375.05 915.5 1383.25 906.662 1391.5C897.651 1399.87 888.755 1408.42 879.976 1417.02C871.546 1425.27 863.349 1433.7 855.325 1442.31C850.907 1447.02 846.546 1451.72 842.128 1456.43C839.918 1458.76 837.709 1461.08 835.5 1463.41C833.639 1465.33 831.721 1467.24 829.686 1469.28C828.116 1470.79 826.488 1472.42 824.802 1474.05C823.174 1475.61 821.546 1477.13 819.86 1478.7C816.662 1481.66 813.407 1484.57 810.151 1487.47C806.953 1490.32 803.639 1493.11 800.325 1495.9C797.186 1498.58 793.988 1501.08 790.732 1503.58C789.046 1504.8 787.418 1506.02 785.674 1507.18C783.639 1508.57 781.604 1509.91 779.569 1511.31C777.476 1512.64 775.383 1513.98 773.29 1515.26C771.488 1516.36 769.628 1517.41 767.825 1518.51C765.965 1519.56 764.162 1520.61 762.302 1521.6C760.325 1522.64 758.407 1523.69 756.43 1524.68C755.035 1525.37 753.639 1526.07 752.244 1526.71C751.546 1527.06 750.849 1527.41 750.093 1527.76C747.942 1528.75 745.732 1529.73 743.581 1530.72C740.732 1531.88 737.883 1533.16 734.976 1534.27C733.174 1534.96 731.43 1535.66 729.628 1536.3C727.825 1536.94 726.023 1537.58 724.279 1538.22C721.023 1539.38 717.709 1540.43 714.395 1541.53C713.116 1541.94 711.895 1542.29 710.616 1542.7C708.93 1543.22 707.244 1543.74 705.558 1544.21C702.476 1545.08 699.337 1545.95 696.255 1546.77C694.104 1547.29 691.895 1547.87 689.744 1548.39C688.29 1548.74 686.895 1549.03 685.442 1549.38C683.988 1549.73 682.593 1550.08 681.139 1550.31C678.988 1550.72 676.837 1551.13 674.686 1551.53C673.407 1551.76 672.069 1551.94 670.79 1552.17C669.162 1552.4 667.593 1552.64 665.965 1552.93C664.628 1553.1 663.232 1553.22 661.837 1553.39C660.616 1553.51 659.453 1553.68 658.232 1553.8C656.837 1553.92 655.5 1554.03 654.104 1554.15C652.942 1554.26 651.721 1554.38 650.558 1554.44C649.221 1554.5 647.883 1554.61 646.488 1554.67C645.325 1554.73 644.162 1554.85 643 1554.9C640.5 1554.96 638.058 1555.08 635.558 1555.14C633.465 1555.14 631.43 1555.14 629.337 1555.14C627.593 1555.14 625.907 1555.02 624.162 1554.96C623.058 1554.96 621.895 1554.85 620.79 1554.79C620.209 1554.79 619.628 1554.67 619.104 1554.61C617.128 1554.38 615.093 1554.21 613.116 1553.97C610.035 1553.51 606.953 1552.93 603.814 1552.17C600.732 1551.36 597.593 1550.31 594.511 1549.09C591.662 1547.93 588.581 1546.53 585.616 1544.85C583.988 1543.92 582.36 1542.99 580.732 1542.06C579.453 1541.24 578.174 1540.37 576.895 1539.56C576.255 1539.15 575.616 1538.74 574.976 1538.28C574.104 1537.7 573.29 1537.06 572.418 1536.42C570.209 1534.73 567.883 1532.76 565.732 1530.66C563.755 1528.63 561.895 1526.54 560.151 1524.33C558.814 1522.53 557.593 1520.72 556.314 1518.63C555.383 1516.94 554.511 1515.2 553.697 1513.34C553.174 1512.06 552.709 1510.78 552.302 1509.45C552.069 1508.57 551.779 1507.76 551.488 1506.89C551.314 1506.19 551.139 1505.44 550.965 1504.74C550.849 1504.16 550.674 1503.58 550.558 1502.94C550.325 1501.54 550.035 1500.15 549.802 1498.75C549.569 1497.24 549.337 1495.67 549.162 1494.16C548.988 1492.53 548.755 1490.9 548.639 1489.28C548.523 1487.47 548.349 1485.73 548.29 1483.93C548.232 1482.13 548.116 1480.32 548.058 1478.46C548.058 1477.42 548.058 1476.37 548.058 1475.32C548.058 1474.39 548.058 1473.46 548.058 1472.53C548.058 1470.5 548.058 1468.41 548.174 1466.37C548.29 1464.28 548.29 1462.19 548.465 1460.09C548.581 1458.06 548.697 1456.03 548.872 1453.99C549.221 1449.81 549.628 1445.68 550.035 1441.49C550.5 1437.08 550.965 1432.72 551.372 1428.3C551.546 1427.02 551.662 1425.62 551.895 1424.23C552.128 1422.83 552.418 1421.44 552.767 1419.98C553.174 1418.53 553.697 1416.79 554.279 1415.16C554.628 1414.35 554.976 1413.53 555.383 1412.72C555.5 1412.43 555.849 1411.96 556.197 1411.5C556.372 1411.27 556.546 1411.03 556.779 1410.86C556.953 1410.68 557.128 1410.51 557.36 1410.34C557.593 1410.16 558 1409.87 558.465 1409.64L558.755 1409.52C558.755 1409.52 559.221 1409.41 559.453 1409.35C559.686 1409.35 559.918 1409.35 560.151 1409.29C560.383 1409.29 560.674 1409.29 560.907 1409.29C561.255 1409.29 561.837 1409.46 562.418 1409.58C563 1409.75 563.814 1410.04 564.628 1410.39C569.395 1412.43 574.104 1414.64 578.872 1416.73C583.523 1418.82 588.174 1420.86 592.942 1422.66C598 1424.58 603.116 1426.26 608.232 1427.95C613.116 1429.52 618 1431.2 622.883 1432.72C628.697 1434.52 634.511 1436.26 640.441 1437.77C643.465 1438.53 646.488 1439.17 649.569 1439.81C652.535 1440.45 655.5 1440.85 658.465 1441.32C661.43 1441.78 664.395 1442.02 667.36 1442.31C670.209 1442.6 673.116 1442.77 675.965 1442.89C682.011 1443.18 688.116 1443.35 694.162 1443.53C697.476 1443.59 700.79 1443.7 704.104 1443.76C705.383 1443.76 706.721 1443.76 708 1443.76C709.395 1443.76 710.79 1443.76 712.244 1443.76C715.151 1443.76 718.058 1443.76 720.907 1443.64C724.162 1443.53 727.36 1443.47 730.616 1443.29C732.011 1443.24 733.407 1443.18 734.802 1443.06C736.604 1442.95 738.465 1442.77 740.267 1442.66C743.349 1442.42 746.488 1442.07 749.569 1441.78C750.907 1441.67 752.244 1441.43 753.523 1441.26C754.511 1441.14 755.5 1440.97 756.488 1440.85C756.953 1440.8 757.36 1440.74 757.825 1440.68C759.511 1440.39 761.139 1440.04 762.825 1439.75C763.872 1439.57 764.918 1439.34 765.965 1439.11C768 1438.64 770.035 1438.18 772.069 1437.66C773.232 1437.37 774.337 1437.08 775.442 1436.78C777.011 1436.38 778.639 1435.97 780.209 1435.51C781.662 1435.1 783.116 1434.63 784.569 1434.23C785.79 1433.88 787.069 1433.53 788.29 1433.12C790.093 1432.54 791.895 1431.96 793.755 1431.32C796.488 1430.45 799.104 1429.4 801.779 1428.36C802.36 1428.12 803 1427.83 803.581 1427.6C804.569 1427.19 805.558 1426.73 806.546 1426.32C807.593 1425.86 808.639 1425.39 809.686 1424.93C810.79 1424.4 811.837 1423.88 812.942 1423.36C813.349 1423.18 813.697 1423.01 814.104 1422.78C815.616 1421.96 817.128 1421.09 818.697 1420.28C819.802 1419.69 820.79 1419.05 821.837 1418.42C822.709 1417.89 823.639 1417.31 824.511 1416.79C824.86 1416.56 825.267 1416.32 825.616 1416.09C827.186 1414.99 828.814 1413.94 830.383 1412.83C831.314 1412.2 832.244 1411.5 833.174 1410.86C834.395 1409.99 835.616 1409.11 836.779 1408.18C838.174 1407.14 839.511 1406.03 840.907 1404.99C841.953 1404.17 842.942 1403.3 843.988 1402.49C844.976 1401.67 845.965 1400.86 846.895 1400.05C847.767 1399.29 848.639 1398.48 849.453 1397.72C849.918 1397.31 850.383 1396.91 850.849 1396.5C852.011 1395.34 853.232 1394.23 854.395 1393.07C855.383 1392.14 856.314 1391.15 857.244 1390.16C858.116 1389.29 858.988 1388.36 859.86 1387.43C861.023 1386.15 862.244 1384.93 863.349 1383.6C864.453 1382.38 865.558 1381.1 866.662 1379.88C867.593 1378.83 868.465 1377.78 869.337 1376.74C870.151 1375.75 871.023 1374.76 871.837 1373.77C872.942 1372.38 874.104 1370.92 875.209 1369.47C876.081 1368.42 876.837 1367.26 877.651 1366.16C878.407 1365.11 879.221 1364.06 879.976 1362.96C880.79 1361.74 881.662 1360.58 882.476 1359.36C884.221 1356.74 885.907 1354.12 887.593 1351.51C889.337 1348.78 891.081 1345.99 892.767 1343.2C895.732 1338.43 898.581 1333.6 901.372 1328.72C907.128 1318.61 912.825 1308.43 918.465 1298.26C919.337 1297.22 920.209 1296.11 921.081 1295.06C924.569 1290.82 928 1286.58 931.314 1282.22C937.883 1273.73 944.337 1265.19 950.616 1256.47C958 1246.24 965.325 1235.95 972.535 1225.54C975.965 1220.54 979.395 1215.54 982.767 1210.54C983.581 1209.32 984.337 1208.1 985.151 1206.88C985.965 1205.66 986.721 1204.5 987.535 1203.28C989.104 1200.78 990.732 1198.34 992.244 1195.9C995.616 1190.43 998.988 1184.97 1002.3 1179.5C1005.27 1174.56 1008.17 1169.51 1010.79 1164.33C1012.19 1161.6 1013.58 1158.81 1014.92 1156.02C1015.5 1154.74 1016.14 1153.46 1016.55 1152.07C1016.72 1151.43 1016.95 1150.79 1017.07 1150.21C1017.19 1149.68 1017.3 1148.99 1017.3 1148.46C1017.3 1147.88 1017.3 1147.42 1017.24 1146.83C1017.24 1146.49 1017.19 1146.08 1017.01 1145.73C1016.9 1145.44 1016.78 1145.03 1016.55 1144.74C1016.31 1144.39 1016.02 1144.04 1015.73 1143.75C1015.38 1143.4 1014.92 1143.11 1014.45 1142.94C1014.1 1142.82 1013.76 1142.71 1013.35 1142.71C1012.42 1142.71 1011.37 1142.71 1010.5 1143.11C1009.28 1143.64 1008.06 1144.22 1006.95 1144.97C1005.67 1145.9 1004.45 1146.83 1003.29 1147.94C1001.26 1149.86 999.279 1151.95 997.535 1154.16C996.43 1155.55 995.325 1157.01 994.221 1158.4C993.93 1158.81 993.639 1159.22 993.349 1159.62C992.767 1160.44 992.186 1161.31 991.604 1162.12C990.965 1163.05 990.267 1163.98 989.686 1164.91C988.581 1166.66 987.418 1168.4 986.314 1170.14C985.732 1171.07 985.151 1172 984.628 1172.99C983.058 1175.61 981.488 1178.28 979.918 1180.96C978.465 1183.51 977.011 1186.07 975.558 1188.63C969.453 1199.56 963.407 1210.43 957.302 1221.36C955.616 1224.32 953.814 1227.52 952.011 1230.72C946.895 1239.73 941.779 1248.85 936.662 1257.98C930.79 1268.44 925.035 1278.96 919.279 1289.43C918.058 1291.69 916.779 1293.9 915.558 1296.17C915.558 1296.17 915.442 1296.29 915.442 1296.34C915.209 1296.4 914.976 1296.58 914.802 1296.75C904.511 1307.04 894.104 1317.27 883.697 1327.44C872.069 1338.49 860.849 1350.11 848.174 1359.94C836.139 1369.3 822.825 1376.97 808.814 1382.9C796.662 1388.01 784.279 1392.43 771.488 1395.57C753.232 1399.76 734.395 1402.08 715.674 1403.13C692.593 1404.06 669.569 1401.56 646.546 1399.93C621.895 1398.01 597.186 1396.27 572.418 1396.09C548.29 1395.45 524.162 1397.14 500.093 1398.3C491.314 1398.65 482.535 1398.71 473.755 1398.83C458.755 1399.17 443.755 1400.57 428.697 1400.05C414.279 1399.76 399.976 1396.56 386.372 1391.91C378.872 1389.35 371.604 1385.51 364.628 1381.85C361.081 1379.99 357.593 1378.07 354.104 1376.04C348.581 1372.84 343.407 1369.35 337.593 1366.68C334.395 1365.23 331.255 1363.72 328.232 1361.97C322.128 1358.54 316.372 1354.24 312.593 1348.25C310.267 1343.84 309.686 1338.78 309.686 1333.84C318.058 1324.59 323.581 1313.14 327.825 1301.52C329.221 1297.62 330.442 1293.73 331.314 1289.66C332.011 1286.46 333 1283.09 331.895 1279.95C325.674 1269.95 314.918 1293.2 313.116 1298.15C308.93 1309.07 306.43 1320.53 305.965 1332.27C302.651 1335.41 298.348 1339.18 293.465 1338.02C282.767 1334.65 275.732 1324.54 272.36 1314.31C269.802 1307.56 270.151 1300.24 270.965 1293.2C271.953 1284.31 275.151 1275.88 279.279 1267.98C289.104 1249.2 302.244 1231.53 305.732 1210.2C307.535 1200.95 308.872 1190.2 304.628 1181.54C305.151 1180.96 305.209 1180.08 304.802 1179.39C303.872 1177.88 303 1176.31 302.128 1174.74C298 1167.59 295.209 1159.27 295.209 1150.85C305.151 1165.32 320.035 1177 336.023 1184.27C354.104 1191.94 374.162 1191.42 393.407 1190.66C417.825 1189.56 442.186 1190.2 466.604 1191.3C470.849 1191.3 475.151 1191.3 479.395 1190.9C481.837 1190.49 484.628 1190.37 486.604 1188.75C487.476 1188.92 488.465 1189.33 489.395 1189.5C490.151 1190.08 491.139 1190.08 491.837 1189.39C492.535 1188.69 492.593 1187.47 491.837 1186.71C491.662 1186.42 491.43 1186.19 491.139 1186.07C484.976 1180.38 478.814 1174.62 472.593 1168.98C458.349 1155.73 443.349 1143.35 428.116 1131.31C415.325 1120.97 403.349 1109.63 391.546 1098.06C384.569 1091.32 377.593 1084.52 370.674 1077.66C366.604 1073.59 362.069 1069.7 356.43 1068.01C353.232 1066.79 349.86 1066.73 346.604 1067.66C343.116 1068.24 339.569 1067.89 336.139 1067.26C324.918 1065.1 315.616 1054.82 314.569 1043.42C313.988 1032.32 323.058 1032.09 330.267 1027.15C336.953 1022.32 342.011 1015.64 347.069 1009.24C352.825 1002.38 358.174 991.106 368.814 993.082C376.604 996.163 383.349 1001.51 391.139 1004.77C403.988 1010.58 417.825 1015.11 431.953 1016.28C437.36 1016.68 442.128 1014.01 447.069 1012.44C459.337 1008.54 468.697 997.907 473.581 986.281C475.907 980.177 477.651 973.841 478.814 967.447C479.802 961.692 480.383 955.414 478.349 949.834C476.953 946.113 472.651 945.358 470.79 948.962C468.465 954.426 468.755 960.646 467.767 966.459C466.546 980.294 461.546 991.164 452.418 1001.57C449.628 1004.59 446.662 1007.5 443.116 1009.65C432.186 1012.38 421.488 1007.85 412.244 1002.27C402.302 996.163 391.721 990.815 382.942 983.026C387.767 985.467 392.535 987.909 397.244 990.524C402.302 993.14 406.895 996.977 412.535 998.372C418.349 999.534 420.151 992.559 416.837 988.897C409.976 981.572 401.139 976.573 392.36 971.923C384.395 967.738 376.255 963.494 367.535 961.227C359.802 959.018 351.604 960.762 343.93 958.553C330.849 953.728 319.046 945.183 310.209 934.371C297.942 918.095 302.418 896.238 315.674 881.997C328.465 868.22 343.465 856.594 355.79 842.352C376.372 818.519 393.407 791.838 411.197 765.97C426.895 741.323 449.802 720.862 459.162 692.553C459.628 690.983 460.267 689.356 460.151 687.67C460.035 686.158 457.942 685.461 456.837 686.507C456.081 687.147 455.616 688.077 455.035 688.891C449.279 696.331 442.709 703.539 435.151 709.294C430.732 712.956 412.36 722.78 401.43 723.129C402.244 722.78 402.942 722.489 403.407 722.373C408.872 720.106 414.337 717.141 417.767 712.142C418.93 710.398 420.732 707.783 419.104 705.806C418.407 705.05 417.302 705.05 416.43 705.457C414.104 705.806 411.895 704.295 409.86 703.307C405.325 701.04 400.035 696.099 403.988 690.925C406.081 689.123 409.628 688.309 412.011 690.169C414.802 692.378 415.732 695.982 417.593 698.889C418.349 699.877 419.86 700.051 420.732 699.179C422.186 697.494 421.779 694.878 422.128 692.785C422.418 687.902 422.418 682.903 421.662 678.02C421.488 677.323 421.43 676.509 421.081 675.811C426.023 678.078 430.965 680.345 436.023 682.031C440.907 683.717 445.965 685.228 451.081 685.752C453.058 685.868 455.209 686.217 457.011 685.345C458 684.88 458.639 683.833 458.523 682.729C458.232 679.706 454.976 678.369 452.476 677.381C453.93 675.811 453.058 673.486 452.476 671.684C455.442 670.987 453.872 666.918 453.872 664.709C453.232 659.942 452.418 655.234 451.43 650.525C448.29 634.888 440.79 620.414 431.255 607.742C427.535 602.685 423.465 597.86 418.872 593.558C416.023 591.059 413.116 588.21 409.453 587.048C407.128 586.699 406.546 590.187 408.814 590.71C412.767 592.628 415.79 595.709 418.93 598.732C435.151 615.88 446.837 637.504 449.628 661.105C445.558 654.71 443 647.619 439.86 640.759C435.907 632.098 431.721 623.495 426.721 615.299C423.29 610.299 416.604 597.511 410.093 597.453C405.965 597.918 406.895 603.266 408.988 605.475C417.651 614.427 423.872 624.774 430.209 635.528C434.221 642.445 438.349 649.304 442.535 656.105C444.86 661.977 447.418 667.789 449.337 673.835C425.209 661.279 414.337 651.455 385.732 657.617C383.814 657.791 381.895 657.733 379.976 657.442C381.721 640.004 384.918 622.681 389.802 605.823C393.232 594.314 398.697 583.618 404.395 573.155C419.86 544.09 439.453 517.583 456.314 489.332C466.488 472.416 476.662 455.443 487.593 438.992C503.174 415.74 517.593 391.384 527.593 365.109C530.209 356.971 537.651 345.462 529.918 338.195C525.616 334.591 519.976 332.557 514.337 332.441C504.162 332.324 494.395 336.219 485.209 340.23C473.349 345.287 462.186 351.856 452.709 360.633C415.965 394.465 393.872 440.968 377.942 487.588C369.569 511.828 363.116 536.824 361.197 562.459C360.325 575.073 360.5 587.803 361.139 600.417C361.488 606.87 361.895 613.322 362.418 619.775C362.476 622.739 363.349 625.82 362.418 628.668C353.29 622.216 350.5 606.87 347.476 596.523C342.302 578.096 343.116 558.913 345.79 540.137C349.046 514.967 355.267 490.204 363.174 466.08C371.721 440.387 382.476 415.449 396.546 392.314C405.325 377.84 415.151 364.063 424.744 350.112C427.942 345.287 431.546 340.637 433.814 335.289C438.639 323.489 426.721 326.395 420.209 329.302C412.476 332.557 405.442 337.149 398.988 342.439C364.628 369.237 346.197 410.334 332.36 450.56C314.976 500.842 314.744 556.239 329.337 607.277C333.639 623.437 340.907 638.609 346.662 654.245C334.279 646.282 325.267 616.229 320.965 601.813C306.314 547.868 311.546 489.913 328.93 437.306C332.186 428.354 335.442 419.402 339.453 410.799C344.628 400.336 350.907 390.454 357.883 381.095C381.081 351.507 407.069 324.302 430.849 295.238C446.837 275.59 464.162 256.64 476.255 234.26C479.279 227.401 486.546 215.077 482.476 207.869C478.465 202.986 471.662 207.055 467.651 210.078C452.825 221.646 439.918 235.422 425.442 247.339C404.162 265.359 380.674 280.589 360.093 299.423C340.5 316.746 323.465 337.033 310.79 359.994C296.197 384.408 285.674 411.322 282.069 439.573C278.232 466.487 284.104 493.517 289.511 519.792C279.337 505.957 274.744 488.634 273 471.719C269.976 438.818 280.616 406.381 294.569 376.968C301.721 361.157 310.209 345.868 321.023 332.208C328.872 321.687 337.36 311.63 347.36 303.085C366.43 285.937 387.244 270.3 406.372 253.094C421.721 239.608 438.058 227.052 451.372 211.415C462.302 199.615 468.407 184.385 478.581 172.061C492.302 153.809 515.267 144.973 537.593 143.81C559.686 142.183 582.593 147.763 600.325 161.366C627.767 182.176 635.383 218.797 637.186 251.408C637.418 260.476 637.244 269.544 636.546 278.613C636.372 280.008 636.197 281.403 636.139 282.798C636.081 283.844 636.023 285.065 636.953 285.763C638.93 287.39 640.616 284.774 641.546 283.263C643.465 280.182 645.035 276.985 646.837 273.846C652.942 263.034 659.976 252.571 669.162 244.142C687.535 227.691 713.349 219.03 737.883 222.925C767.069 227.749 794.918 239.957 818.93 257.221C839.337 272.451 856.837 291.227 877.302 306.34C908.232 329.418 945.267 349.356 984.337 352.146C991.488 352.611 998.697 352.437 1005.85 352.205C1011.84 352.205 1018.06 351.042 1023.93 352.495C1025.73 353.135 1025.21 354.995 1024.34 356.157C1023.46 357.262 1022.83 357.959 1021.6 358.831C1014.8 363.249 1006.84 365.167 999.046 367.202C961.779 377.84 934.337 370.167 901.721 351.216C858.872 327.906 821.779 293.726 774.569 279.02C759.395 274.079 743.174 272.683 727.302 274.369C717.535 275.241 708 277.683 698.639 280.473C691.953 282.624 684.569 283.961 678.988 288.437C677.011 290.18 676.081 293.029 677.186 295.412C678.872 298.958 683 300.353 686.488 301.574C703.814 306.399 721.837 308.142 739.279 312.618C749.337 315.002 759.337 317.85 769.046 321.28C779.744 325.465 790.035 330.639 799.976 336.393C819.628 348.136 838.988 360.691 856.546 375.514C873.465 389.64 888.465 406.265 905.965 419.809C924.453 434.632 947.767 441.84 970.849 445.619C981.081 447.304 991.372 449.048 1001.78 448.758C1009.86 448.525 1017.77 446.374 1025.44 443.991C1039.8 439.864 1053.23 433.353 1066.37 426.32C1063.12 432.074 1060.67 438.294 1058 444.282C1041.84 485.321 1039.8 529.093 1052.71 571.295C1064.63 615.938 1094.4 646.34 1135.03 666.627C1158.64 678.195 1184.1 685.112 1208.23 695.343C1231.31 705.341 1249.92 722.954 1262.71 744.462C1273.99 763.296 1283.41 783.235 1296.14 801.255C1316.66 830.203 1345.09 857.466 1379.22 869.441C1442.59 891.704 1483.7 874.091 1541.55 848.863C1555.56 842.759 1574.8 835.551 1563.7 859.442C1557.07 871.359 1547.48 881.648 1536.43 889.728C1512.83 906.934 1483.64 914.549 1454.69 911.468C1415.5 907.341 1380.44 890.832 1349.34 866.999C1310.96 837.644 1279.74 800.325 1247.07 764.924C1233.46 750.101 1218.58 736.382 1202.07 724.873C1161.6 696.505 1103.76 685.519 1056.95 703.423C1046.31 707.376 1036.08 712.665 1027.71 720.455C1020.33 727.372 1010.91 738.126 1017.53 748.415C1025.09 761.61 1054.8 770.969 1069.4 776.724C1092.24 784.746 1115.56 791.431 1138.35 799.685C1174.1 813.171 1209.92 829.913 1238.64 855.49C1245.62 861.884 1251.9 869.034 1258.06 876.184C1263.41 882.404 1268.23 891.356 1274.63 896.471C1280.44 901.121 1286.14 906.411 1292.07 911.061C1339.57 948.148 1404.1 956.17 1462.48 948.497C1481.49 945.648 1500.03 940.649 1518.64 935.825C1526.78 934.197 1540.27 929.372 1547.77 933.557C1549.8 935.069 1550.33 937.22 1550.03 939.487C1550.03 939.661 1550.03 939.777 1549.92 939.952C1549.92 940.301 1549.8 940.649 1549.74 940.998C1548.81 944.602 1546.26 948.38 1544.63 950.88C1535.5 963.494 1522.59 972.795 1509.34 980.642C1477.24 1000.58 1437.36 1006.04 1400.73 997.384C1387.65 994.361 1375.21 988.955 1362.88 983.549C1350.67 978.201 1338.64 972.446 1326.95 965.936C1294.22 946.578 1257.59 923.327 1217.83 931.872C1204.45 934.72 1190.56 940.766 1179.69 949.078C1176.2 951.752 1172.19 954.368 1170.15 958.437C1168.58 962.332 1168.76 966.866 1172.71 969.191C1184.4 976.341 1198.17 979.131 1210.5 985.002C1220.96 989.594 1230.21 994.303 1231.95 1006.86C1234.16 1017.61 1232.88 1028.72 1233.41 1039.59C1233.7 1045.69 1234.92 1051.68 1236.43 1057.61C1238.87 1067.72 1245.15 1076.79 1245.38 1087.43C1244.8 1103.59 1234.92 1119.11 1221.9 1128.29C1213.23 1134.16 1203.35 1138.52 1193.06 1140.56C1180.15 1142.42 1167.36 1136.78 1156.72 1129.92C1143.41 1120.27 1132.88 1107.19 1119.86 1097.13C1093.7 1077.49 1078.12 1093.3 1071.95 1121.03C1069.8 1128.99 1068 1137.07 1066.55 1145.15C1064.86 1155.15 1062.83 1165.32 1063.76 1175.55C1064.28 1182.24 1067.13 1188.51 1070.44 1194.27C1073.41 1199.21 1078 1202.81 1082.48 1206.3C1094.74 1215.72 1109.63 1220.66 1124.63 1223.86C1131.37 1225.31 1137.94 1226.01 1144.34 1226.01C1174.05 1226.01 1199.8 1211.18 1224.22 1192.81C1236.2 1184.04 1250.38 1179.33 1263.17 1171.95C1283 1160.44 1299.8 1144.28 1312.94 1125.56C1322.3 1112.71 1330.09 1098.3 1332.71 1082.43C1334.34 1071.56 1337.19 1060.74 1337.36 1049.76C1336.95 1039.64 1333.87 1029.82 1331.02 1020.11C1326.95 1007.85 1322.36 995.698 1317.53 983.665C1326.43 994.187 1334.05 1005.7 1339.45 1018.37C1342.94 1026.1 1346.37 1034.06 1347.19 1042.55C1349.69 1070.39 1338.58 1097.42 1323.64 1120.39C1315.27 1133.29 1306.95 1146.31 1297.42 1158.4C1280.5 1179.56 1259.92 1198.22 1240.62 1216.94C1234.63 1222.75 1228.87 1228.74 1223.29 1234.96C1218.52 1240.25 1213.7 1245.54 1209.28 1251.12C1206.26 1255.01 1203.23 1259.26 1202.24 1264.2C1201.02 1270.36 1204.1 1276.17 1206.31 1281.75C1207.83 1285.3 1209.34 1288.84 1210.79 1292.45C1215.03 1303.03 1218.64 1313.84 1222.53 1324.54C1225.33 1331.22 1228.12 1344.59 1237.59 1343.25C1242.24 1342.61 1246.14 1339.65 1250.62 1338.49C1268.35 1335.99 1276.55 1359.47 1282.42 1372.61C1286.2 1381.79 1293.06 1391.91 1285.79 1401.21C1276.43 1414.64 1262.94 1424.81 1254.4 1438.94C1228.46 1479.45 1238.81 1523.51 1254.34 1565.66C1263.7 1591.29 1274.22 1616.52 1285.15 1641.52C1318.17 1717.14 1351.49 1792.83 1378.06 1870.95C1381.08 1886.82 1363.17 1865.72 1359.63 1860.84C1350.62 1848.92 1342.83 1836.08 1335.33 1823.11C1311.02 1781.03 1290.44 1737.02 1267.77 1694.07C1255.85 1671.39 1243.64 1648.78 1228.76 1627.91C1225.03 1622.97 1221.6 1617.22 1215.91 1614.37C1207.59 1610.48 1201.26 1618.44 1199.57 1625.88C1196.2 1639.54 1198 1653.84 1199.98 1667.62C1203.17 1689.42 1208.76 1710.81 1214.28 1732.14C1227.83 1784.98 1243.81 1837.18 1255.5 1890.48C1256.31 1894.09 1257.13 1897.63 1258.06 1901.18C1258.76 1903.51 1259.1 1906.18 1260.33 1908.33C1260.33 1908.68 1260.38 1908.97 1260.56 1909.32C1261.2 1910.31 1262.48 1910.71 1263.46 1911.24C1271.6 1914.78 1280.62 1915.54 1289.22 1917.4C1301.43 1920.13 1313.64 1922.86 1325.96 1925.07C1363.35 1932.8 1401.2 1938.38 1439.28 1941.17C1444.22 1941.41 1449.16 1941.46 1454.1 1941.46C1471.43 1941.46 1488.7 1940.3 1505.96 1939.02C1547.59 1936.41 1589.05 1931.29 1630.27 1925.13C1645.79 1922.98 1661.6 1921.18 1677.36 1921.64C1696.95 1922.34 1715.85 1926.12 1735.44 1928.15C1744.86 1929.2 1754.34 1929.84 1763.81 1930.42C1765.21 1930.42 1767.3 1930.59 1769.63 1930.77C1777.65 1931.47 1788.87 1932.16 1787.36 1923.5L1787.88 1923.04ZM395.325 1160.32C386.197 1157.94 377.418 1154.51 368.814 1150.73C362.767 1148 356.43 1145.61 350.79 1142.07C339.628 1134.63 329.802 1125.38 320.5 1115.79C315.849 1110.79 310.79 1105.56 307.069 1099.69C302.186 1091.55 299.686 1082.43 298.349 1073.07C300.616 1079.64 306.43 1084.46 310.325 1090.1C315.5 1097.02 320.442 1104.05 326.023 1110.68C339.628 1127.71 358.058 1139.92 377.244 1149.74C397.709 1159.16 419.279 1165.9 440.674 1172.82C425.674 1168.11 410.5 1164.16 395.267 1160.32H395.325ZM937.825 1264.14C943.755 1253.44 949.802 1242.81 955.79 1232.17C957.476 1229.2 959.279 1226.01 961.081 1222.81C967.709 1211.18 974.279 1199.21 980.907 1187.29C982.302 1184.85 983.697 1182.35 985.151 1179.91C986.488 1177.59 987.942 1175.32 989.279 1172.99C989.744 1172.18 990.267 1171.42 990.79 1170.67C991.721 1169.21 992.651 1167.76 993.581 1166.37C994.162 1165.44 994.86 1164.51 995.5 1163.63C996.197 1162.65 996.895 1161.66 997.593 1160.67C998.581 1159.39 999.57 1158.11 1000.62 1156.83C1002.01 1155.03 1003.52 1153.4 1005.09 1151.78C1006.14 1150.79 1007.19 1149.8 1008.29 1148.93C1008.93 1148.4 1009.63 1147.94 1010.33 1147.53C1010.62 1147.36 1011.14 1147.07 1011.66 1146.83C1011.9 1146.72 1012.07 1146.66 1012.3 1146.6C1012.53 1146.6 1012.71 1146.49 1012.94 1146.43C1013.06 1146.43 1013.17 1146.43 1013.35 1146.43H1013.7C1013.7 1146.43 1013.81 1146.49 1013.81 1146.54C1013.81 1146.6 1013.93 1146.66 1013.99 1146.72V1146.83C1013.99 1146.95 1013.99 1147.07 1014.05 1147.18C1014.05 1147.36 1014.05 1147.53 1014.05 1147.71C1014.05 1148 1014.05 1148.46 1013.93 1148.99C1013.93 1149.28 1013.76 1149.8 1013.64 1150.32C1013.46 1150.9 1013.17 1151.66 1012.88 1152.47C1011.37 1155.96 1009.63 1159.33 1007.88 1162.7C1006.43 1165.55 1004.86 1168.4 1003.29 1171.19C994.279 1186.71 984.686 1201.88 974.511 1216.71C967.244 1227.29 959.802 1237.81 952.36 1248.27C945.5 1257.86 938.407 1267.34 931.255 1276.75C930.674 1277.51 930.035 1278.32 929.395 1279.14C932.128 1274.14 934.918 1269.2 937.651 1264.2L937.825 1264.14ZM310.849 1323.2C312.302 1311.75 318.814 1287.51 328.814 1281.17C329.162 1282.1 329.104 1283.15 328.988 1284.14C328.232 1289.31 326.721 1294.37 325.035 1299.31C321.43 1309.36 316.895 1319.13 310.383 1327.62C310.5 1326.11 310.674 1324.59 310.907 1323.08C310.907 1323.14 310.907 1323.14 310.907 1323.14L310.849 1323.2ZM293.348 1135.96C291.546 1129.45 291.255 1119.34 296.081 1114.05C296.43 1113.88 296.953 1113.76 297.302 1114.05C297.418 1114.17 297.476 1114.28 297.593 1114.4C298.755 1118.06 296.837 1121.78 296.081 1125.38C295.093 1128.93 294.162 1132.48 293.407 1136.02L293.348 1135.96ZM472.302 962.855C473.058 958.611 472.651 954.077 474.744 950.182C475.267 950.648 475.5 951.403 475.732 952.043C477.36 958.902 475.849 966.168 474.279 972.853C471.546 985.06 465.674 997.093 455.093 1004.42C466.662 991.338 470.79 980.003 472.302 962.855ZM416.023 606.87C414.569 604.893 412.128 603.498 411.488 600.999C414.628 602.801 416.662 605.94 418.814 608.788C421.895 613.148 424.686 617.74 427.302 622.39C423.872 616.984 420.267 611.695 416.023 606.87ZM376.314 663.662C373.755 662.907 371.314 661.86 368.93 660.523C371.43 661.047 373.93 661.395 376.43 661.512C376.43 662.209 376.314 662.965 376.255 663.662H376.314ZM418.93 692.495C417.36 689.53 415.151 686.507 411.779 685.577C408.058 684.589 403.465 685.984 401.139 689.065C399.046 692.088 399.046 696.331 400.732 699.528C403.523 704.179 410.5 708.306 415.732 709.061C411.197 715.921 403.058 719.118 395.325 721.152C394.628 720.455 394.104 719.583 393.814 718.478C392.709 703.481 393.349 687.96 397.535 673.428C399.046 673.196 400.442 671.568 399.976 669.998C404.395 669.998 408.93 670.173 413.058 671.8C415.151 672.672 417.244 673.602 419.337 674.591C418.639 674.823 418.058 675.404 418.058 676.218C419.337 681.508 419.279 687.089 418.988 692.495H418.93ZM454.686 681.973C443.697 681.45 433.349 676.916 423.465 672.44C429.744 674.416 436.081 676.218 442.476 677.904C446.604 679.125 450.965 679.88 454.686 682.031V681.973ZM443.232 674.242C426.779 669.94 410.674 664.36 394.221 660C394.104 660 393.988 659.942 393.872 659.884C412.069 655.989 427.942 665.813 443.232 674.242ZM383.872 661.395C390.442 662.442 396.779 664.709 403.232 666.394C403 666.394 402.767 666.394 402.593 666.394C400.732 666.394 398.872 666.394 396.953 666.336C391.314 666.162 385.5 665.871 379.918 664.709C379.976 663.72 380.093 662.732 380.151 661.686C381.43 661.686 382.651 661.57 383.93 661.453L383.872 661.395ZM336.314 615.415C316.953 556.007 318.639 493.285 342.186 435.33C354.395 403.417 370.383 371.678 396.779 349.182C405.093 341.858 420.5 330.057 431.779 330.115C431.488 333.778 429.221 336.975 427.36 340.114C416.721 356.041 405.267 371.504 395.267 387.896C380.383 411.904 369.104 437.887 360.209 464.685C351.314 491.773 344.744 519.617 341.604 547.985C340.79 557.46 339.976 566.935 340.79 576.41C342.302 590.477 345.732 604.428 350.848 617.624C352.709 621.809 359.337 635.121 365.093 631.4C366.197 630.645 366.721 629.25 366.895 627.971C367.244 624.425 366.662 620.821 366.43 617.275C365.5 604.661 364.802 592.047 364.802 579.433C364.569 550.077 371.023 521.187 380.267 493.459C387.767 470.963 396.43 448.874 407.418 427.831C411.081 420.797 415.093 414.054 419.279 407.311C436.662 381.037 457.593 354.879 487.767 343.078C496.895 339.242 506.604 335.173 516.721 335.986C520.907 336.51 524.976 338.137 528.29 340.869C531.314 343.834 530.151 348.426 528.988 352.03C519.918 378.305 507.128 403.126 491.837 426.32C469.976 458.698 451.314 492.878 429.395 525.256C420.325 539.382 411.372 553.565 403.232 568.272C394.104 584.257 386.604 601.173 382.883 619.251C380.093 631.517 378.058 643.898 376.895 656.396C373.116 655.466 369.337 654.013 365.674 652.966C363.697 652.269 361.721 651.571 359.744 650.758C358.174 649.944 355.674 649.421 354.86 651.513C353.465 650.758 352.244 649.014 350.442 649.479C350.151 649.479 349.918 649.653 349.744 649.828C349.046 648.084 348.174 646.282 347.651 644.77C343.639 635.004 339.569 625.413 336.255 615.357L336.314 615.415Z" fill="#3B4431"/>
</g>
<defs>
<clipPath id="clip0_157_305">
<rect width="1575" height="1882" fill="white" transform="translate(213 59)"/>
</clipPath>
</defs>
</svg>
