<svg width="2000" height="2000" viewBox="0 0 2000 2000" fill="none" xmlns="http://www.w3.org/2000/svg">
<g clip-path="url(#clip0_157_306)">
<path d="M1498.85 910.36C1480.7 895.287 1456.36 908.773 1441.23 921.912C1436.13 926.424 1431.46 931.382 1427.1 936.587C1421.65 940.306 1416.89 945.016 1413.07 950.371C1407.66 957.808 1404.89 967.03 1398.49 973.773C1387.73 985.176 1374.49 979.871 1365.71 969.062C1374.09 971.69 1383.57 972.781 1392 969.955C1396.56 967.426 1390.85 963.113 1388.72 960.981C1383.66 956.37 1378.26 952.205 1372.86 948.04C1360.66 939.314 1351.63 928.407 1346.48 914.227C1345.53 911.649 1344.79 909.021 1344.29 906.294C1344.15 904.955 1343.95 903.171 1344.69 901.832C1350.24 895.734 1367.5 906.79 1373.1 910.211C1380.74 915.07 1387.93 920.573 1395.27 925.829C1397.99 927.613 1400.47 930.142 1403.55 931.332C1409.3 932.224 1408.46 922.556 1408.8 918.838C1408.95 909.814 1408.56 900.791 1408.41 891.767C1408.31 886.164 1408.75 880.165 1409.05 874.513C1409.1 871.588 1409.8 868.663 1409.25 865.787C1407.32 860.135 1401.71 856.664 1397.45 852.797C1388.87 846.104 1380.84 837.08 1369.38 836.237C1362.69 835.742 1349.3 835.94 1345.29 842.088C1342.41 846.5 1340.72 852.747 1344.69 857.061C1338.49 857.358 1335.42 850.764 1333.73 845.757C1330.56 834.651 1354.66 832.568 1361.95 832.469C1374.09 832.221 1386.24 833.163 1398.34 834.205C1404.14 834.552 1409.65 836.931 1410.74 829.048C1411.58 822.999 1411.53 816.951 1411.98 810.852C1412.52 803.614 1411.98 796.424 1410.49 789.335C1410.34 788.541 1410.09 787.748 1409.9 787.004C1409.7 786.211 1409.5 785.368 1409.3 784.575C1409 783.534 1408.71 782.492 1408.46 781.501C1407.96 779.716 1407.42 777.981 1406.82 776.245C1406.62 775.601 1406.42 774.956 1406.18 774.312C1405.78 773.221 1405.38 772.13 1404.99 771.089C1404.74 770.494 1404.54 769.85 1404.29 769.255C1403.85 768.164 1403.4 767.123 1402.9 766.032C1402.66 765.387 1402.41 764.792 1402.06 764.148C1401.57 763.156 1401.07 762.165 1400.57 761.223C1400.28 760.578 1399.98 759.934 1399.63 759.339C1399.09 758.347 1398.49 757.405 1397.95 756.413C1397.3 755.323 1396.66 754.232 1395.96 753.141C1394.62 751.108 1393.19 749.175 1391.6 747.34C1391.45 747.191 1391.35 747.043 1391.2 746.894C1389.52 744.118 1387.53 741.539 1385.25 739.159C1383.47 737.275 1381.63 735.54 1379.65 733.854C1378.66 733.012 1377.71 732.218 1376.67 731.425C1375.93 730.88 1375.24 730.285 1374.49 729.739C1373.45 728.946 1372.21 728.054 1371.02 727.161C1369.98 726.417 1368.99 725.674 1367.95 724.93C1365.67 723.343 1363.38 721.707 1361.1 720.121C1359.86 719.228 1358.62 718.385 1357.38 717.493C1356.29 716.749 1355.25 716.006 1354.16 715.212C1354.16 715.212 1354.06 715.163 1354.01 715.113C1356.99 712.386 1359.52 709.213 1361.65 705.792C1364.18 701.578 1366.16 697.066 1367.6 692.356C1369.04 687.646 1369.93 682.836 1370.43 677.928C1370.67 675.152 1370.87 672.375 1370.87 669.549C1370.87 668.21 1370.87 666.921 1370.87 665.583C1370.77 663.203 1370.67 660.823 1370.57 658.393C1370.57 657.898 1370.57 657.352 1370.52 656.857C1370.52 656.708 1370.52 656.509 1370.52 656.361C1370.48 655.766 1370.38 655.22 1370.33 654.625C1370.03 652.196 1369.78 649.717 1369.48 647.238C1369.33 645.85 1369.09 644.511 1368.89 643.172C1368.49 640.743 1368 638.314 1367.4 635.884C1366.76 633.256 1366.01 630.678 1365.22 628.15C1364.43 625.72 1363.58 623.291 1362.59 620.911C1360.71 616.399 1358.57 611.887 1355.55 607.971C1353.91 605.839 1352.03 603.806 1349.9 602.07C1350.34 601.029 1350.79 599.939 1351.24 598.848C1351.48 598.203 1351.73 597.509 1351.98 596.865C1352.33 595.923 1352.67 594.931 1353.02 593.989C1353.12 593.691 1353.22 593.394 1353.27 593.096C1353.47 592.502 1353.62 591.907 1353.81 591.312C1354.01 590.617 1354.21 589.973 1354.41 589.279C1354.86 587.494 1355.3 585.709 1355.6 583.875C1355.75 583.18 1355.85 582.437 1356 581.743C1356.05 581.445 1356.15 581.148 1356.15 580.85C1356.24 579.908 1356.39 578.917 1356.49 577.975C1356.59 577.231 1356.69 576.487 1356.74 575.743C1356.79 574.653 1356.89 573.562 1356.94 572.521C1356.94 572.174 1356.94 571.827 1356.94 571.43C1356.94 570.785 1356.94 570.141 1356.94 569.496C1356.94 568.852 1356.94 568.158 1356.94 567.513C1356.94 566.769 1356.89 566.026 1356.84 565.332C1356.84 564.985 1356.84 564.637 1356.84 564.29C1356.74 563.299 1356.69 562.357 1356.59 561.365C1356.54 560.572 1356.44 559.828 1356.34 559.035C1356.24 558.143 1356.15 557.3 1356.05 556.407C1355.75 554.573 1355.5 552.689 1355.15 550.854C1355 550.011 1354.86 549.218 1354.66 548.375C1354.41 547.384 1354.21 546.342 1353.96 545.351C1353.77 544.409 1353.47 543.467 1353.22 542.525C1353.02 541.88 1352.87 541.186 1352.67 540.542C1352.43 539.649 1352.18 538.757 1351.88 537.864C1351.53 536.873 1351.24 535.831 1350.89 534.84C1348.66 528.097 1345.88 521.503 1342.56 515.206C1340.82 511.934 1338.99 508.761 1337.01 505.588C1336.11 504.15 1335.17 502.762 1334.18 501.373C1333.19 499.985 1332.2 498.646 1331.05 497.209C1331.01 497.109 1330.91 497.01 1330.81 496.911C1330.76 496.812 1330.61 496.713 1330.51 496.564C1330.51 496.514 1330.41 496.465 1330.41 496.415C1330.31 496.267 1330.21 496.167 1330.11 496.019C1329.96 495.87 1329.86 495.721 1329.72 495.572C1329.62 495.424 1329.47 495.275 1329.37 495.126C1327.58 492.945 1325.65 490.862 1323.67 488.879C1323.27 488.482 1322.87 488.135 1322.48 487.739C1322.08 487.392 1321.73 487.045 1321.34 486.698C1321.14 486.499 1320.94 486.301 1320.74 486.152C1319.7 485.309 1318.71 484.417 1317.67 483.673C1317.67 483.673 1317.47 483.524 1317.32 483.376C1316.77 482.979 1316.18 482.533 1315.39 481.987C1315.39 481.987 1315.29 481.888 1315.09 481.789C1314.69 481.541 1314.25 481.244 1313.85 480.946C1313.2 480.5 1312.56 480.054 1311.92 479.657C1310.77 478.963 1309.63 478.269 1308.44 477.624C1307.11 476.93 1305.82 476.187 1304.43 475.592C1303.73 475.245 1302.99 474.947 1302.3 474.6C1302.05 474.501 1301.85 474.402 1301.6 474.352C1301.16 474.154 1300.66 474.005 1300.21 473.807C1299.27 473.46 1298.33 473.113 1297.34 472.815C1295.5 472.27 1293.62 471.824 1291.73 471.526C1288.31 471.03 1284.84 470.931 1281.42 471.278C1280.58 471.377 1279.73 471.476 1278.84 471.526C1277.65 471.675 1276.46 471.774 1275.27 472.022C1271.7 472.766 1268.33 474.253 1265.21 476.087C1262.97 477.376 1260.84 478.814 1258.81 480.401C1256.97 481.888 1255.24 483.475 1253.55 485.161C1251.77 486.995 1250.13 488.978 1248.64 491.011C1247.26 492.845 1245.97 494.779 1244.78 496.713C1244.03 497.903 1243.34 499.093 1242.64 500.332C1242.3 500.927 1241.95 501.522 1241.65 502.167C1241.26 502.96 1240.86 503.753 1240.46 504.596C1239.87 505.786 1239.32 506.926 1238.73 508.116C1238.53 508.513 1238.33 508.86 1238.18 509.257C1237.29 511.289 1236.4 513.372 1235.5 515.404C1235.26 515.95 1235.06 516.495 1234.86 517.09C1234.41 518.28 1233.97 519.47 1233.52 520.66C1232.23 524.081 1231.14 527.601 1230.35 531.171C1229.8 533.65 1229.36 536.228 1229.11 538.757C1228.91 541.037 1228.76 543.318 1228.91 545.599C1229.06 547.632 1229.31 549.714 1229.9 551.697C1229.85 551.995 1229.75 552.292 1229.7 552.59C1229.26 554.969 1229.01 557.448 1229.11 559.878C1229.11 560.82 1229.21 561.712 1229.26 562.654C1229.41 566.224 1229.6 569.794 1229.85 573.314C1230.1 576.983 1230.4 580.652 1230.74 584.321C1231.24 589.378 1232.23 594.683 1234.81 599.195C1237.79 604.45 1242.99 607.822 1246.56 612.631C1262.92 634.694 1271.55 661.22 1282.02 686.357C1297.29 725.575 1314.89 764.346 1322.77 805.894C1319.85 802.572 1318.06 798.457 1315.98 794.59C1312.66 787.897 1309.44 781.154 1306.36 774.361C1294.71 747.836 1285.68 720.22 1272.15 694.587C1263.27 678.226 1254.55 661.616 1243.79 646.395C1231.98 630.827 1218 616.548 1202.03 605.244C1191.47 598.104 1179.52 593.394 1167.57 589.031C1139.76 578.371 1109.51 574.801 1079.86 576.785C1066.02 578.024 1052.14 580.057 1038.95 584.569C1026.9 588.932 1015.2 594.336 1003.99 600.633C994.52 605.987 985.793 612.433 977.116 618.928C971.414 623.192 965.761 627.505 960.307 632.066C951.034 623.34 939.679 616.746 928.473 610.697C907.151 599.74 884.54 590.667 860.839 586.651C823.947 581.049 785.42 583.974 749.867 595.328C721.802 604.351 695.968 619.473 674.299 639.404C651.936 658.988 633.243 682.44 618.07 707.974C604.483 730.334 592.881 753.885 584.749 778.774C574.931 805.448 568.633 833.263 564.865 861.424C562.534 878.331 560.452 895.287 560.105 912.343C559.51 934.654 561.146 956.915 563.576 979.127C564.369 986.515 565.212 993.952 566.154 1001.34C569.03 1024.44 572.451 1047.5 576.567 1070.4C578.402 1080.47 579.443 1091.18 581.823 1101.34C584.302 1111.85 587.624 1122.26 590.748 1132.63C592.682 1138.92 594.616 1145.27 596.5 1151.57C598.434 1157.91 600.368 1164.26 602.302 1170.61C604.186 1176.8 606.07 1183 607.954 1189.2C609.839 1195.4 611.723 1201.64 613.607 1207.84C615.442 1213.84 617.276 1219.89 619.111 1225.89C619.805 1228.22 620.549 1230.6 621.243 1232.93C620.004 1231.44 618.863 1229.9 617.723 1228.22C611.525 1218.8 606.616 1208.58 602.45 1198.12C598.979 1189.55 596.104 1180.72 591.542 1172.64C588.12 1166.14 581.327 1163.17 575.278 1159.65C568.088 1154.99 562.386 1147.95 559.906 1139.77C554.898 1122.86 560.997 1113.79 563.229 1098.12C563.724 1091.43 563.229 1084.63 561.89 1078.09C561.196 1071.89 556.485 1067.58 552.072 1063.71C548.551 1060.54 545.328 1057.02 542.899 1052.95C531.742 1033.42 534.915 1009.87 537.791 988.498C539.824 973.376 542.452 957.857 538.833 942.785C534.271 921.664 517.015 906.691 508.784 887.156C504.272 877.042 501.495 866.134 501.693 854.979C501.743 846.5 502.735 837.973 506.106 830.04C508.387 824.636 511.214 819.777 514.536 814.868C517.908 810.158 524.354 799.102 531.197 804.308C525.593 815.81 519.891 829.296 523.858 842.187C525.445 846.947 529.759 848.236 534.023 845.955C537.543 843.922 538.932 839.658 539.924 835.94C542.651 825.231 542.452 812.538 535.015 803.713C541.758 790.971 550.981 779.766 558.468 767.47C566.6 754.232 573.394 740.002 577.807 725.128C584.6 724.038 590.798 720.666 595.856 716.105C603.393 709.312 608.649 700.289 612.516 691.017C614.45 686.307 616.037 681.498 617.326 676.54C617.921 674.21 618.417 671.879 618.863 669.549C619.061 668.458 619.26 667.318 619.409 666.178C619.508 665.483 619.805 663.599 620.301 663.153C620.499 662.955 620.797 662.955 621.094 662.955C630.169 662.955 637.706 658.493 643.557 651.651C650.151 643.966 654.763 634.198 658.085 624.679C667.457 597.856 669.787 568.455 665.324 540.442C690.464 535.137 712.232 515.553 721.207 491.606C722.843 493.887 724.38 496.267 725.868 498.696C726.562 499.935 727.405 501.324 728.149 502.762C719.224 513.719 710.397 525.37 706.083 538.955C695.968 571.876 729.339 580.9 739.306 555.316C741.983 547.632 741.14 539.401 740.099 531.518C738.958 521.701 736.38 512.083 731.868 503.257C746.198 486.698 761.718 471.278 777.089 455.66C786.61 483.277 808.179 509.207 839.071 511.24C849.88 529.386 870.607 540.839 891.73 540.294C913.697 539.798 933.184 527.006 948.555 512.182C950.588 530.824 951.778 556.506 965.364 570.587C970.224 574.95 977.612 574.504 983.066 571.529C992.735 566.274 999.181 556.011 1001.31 545.351C1005.88 521.057 987.727 500.283 972.554 483.475C998.14 445.645 1012.62 400.131 1012.82 354.418C1012.77 344.254 1011.43 334.14 1008.95 324.273C1006.92 315.696 1003.94 305.73 995.066 302.061C969.282 293.186 957.332 334.189 954.009 352.98C948.307 387.141 947.712 421.946 947.117 456.503C935.266 443.712 923.862 430.474 913.3 416.542C904.325 404.692 895.995 392 891.978 377.522C884.888 352.782 891.234 322.984 912.705 307.267C934.374 291.253 963.48 290.955 989.116 295.467C1017.03 300.574 1042.02 315.497 1059.13 338.304C1069.94 352.633 1077.97 368.846 1087.79 383.868C1065.28 428.838 1064.78 486.003 1108.52 518.131C1116.6 524.031 1125.82 528.444 1135.59 530.626C1145.21 532.609 1155.08 530.774 1164.35 527.998C1178.58 523.982 1189.09 521.602 1199.31 509.901C1224.2 482.632 1218.99 450.901 1223.95 417.781C1227.32 399.04 1237.44 382.331 1255.64 374.795C1273.83 366.466 1295.06 370.631 1311.52 381.142C1310.92 398.395 1307.85 416.542 1314.89 432.953C1318.71 441.976 1327.78 453.231 1338.74 450.207C1343.15 448.769 1346.38 444.852 1347.77 440.538C1350 432.754 1346.72 424.673 1344 417.385C1337.6 402.56 1327.83 388.876 1314.64 379.357C1313.85 351.046 1293.87 334.14 1269.87 323.083C1253.55 315.597 1236.55 309.746 1218.89 306.276C1212.74 305.185 1209.97 300.028 1209.92 294.128C1209.72 287.633 1212.7 281.486 1215.92 276.032C1225.88 258.728 1243.39 245.937 1262.83 241.524C1267.54 240.384 1284.94 238.351 1285.34 245.342C1283.95 248.911 1280.33 250.448 1277.26 252.58C1273.78 254.712 1270.21 256.795 1266.74 258.976C1260.45 262.843 1254.5 267.306 1248.79 272.016C1244.98 275.387 1237.09 280.742 1239.62 286.642C1243.54 293.732 1268.08 285.997 1275.32 285.055C1286.83 283.023 1300.01 279.502 1310.63 286.096C1325.8 302.26 1326.2 326.207 1329.86 346.931C1330.56 350.551 1330.71 354.814 1333.44 357.591C1335.72 359.772 1339.24 358.682 1340.97 356.351C1344.89 351.245 1345.39 344.403 1345.53 338.156C1345.39 320.703 1337.95 304.342 1331.2 288.526C1318.81 261.951 1292.53 227.989 1263.02 220.601C1253.65 218.073 1243.83 218.816 1234.26 219.461C1213.54 221.295 1194.2 230.22 1176.25 240.185C1158.9 249.754 1144.17 263.141 1128.65 275.338C1125.52 277.717 1122.35 280.147 1119.18 282.477C1116.8 284.014 1114.57 286.394 1111.64 286.642C1107.13 286.295 1113.13 276.032 1114.37 273.701C1116.8 269.338 1120.12 265.521 1123.44 261.802C1131.28 253.572 1139.8 246.135 1148.23 238.5C1152.5 234.434 1157.51 230.914 1160.68 225.857C1163.26 222.386 1160.83 218.618 1157.75 216.486C1153.09 212.718 1146.8 212.47 1141.04 212.718C1135.59 212.916 1130.09 213.412 1124.68 214.453C1104.3 218.221 1084.82 226.253 1067.71 237.954C1058.53 244.251 1050.4 251.886 1042.62 259.819C1039.94 262.496 1037.31 265.223 1034.63 267.901C1031.46 270.727 1028.14 275.734 1023.23 274.049C1013.02 267.355 1042.42 240.433 1047.92 235.128C1055.51 227.642 1064.34 221.394 1071.63 213.66C1073.46 210.685 1075.25 207.363 1074.85 203.744C1073.86 197.893 1070.63 192.043 1065.92 188.374C1060.47 184.804 1053.43 185.102 1047.13 184.953C1037.81 185.102 1028.54 187.085 1019.46 189.167C1013.96 190.605 1008.26 191.498 1002.8 193.134C994.025 195.613 985.545 199.133 977.661 203.744C975.777 204.835 973.943 205.975 972.157 207.165C968.488 207.71 964.868 208.454 961.298 209.346C936.704 215.544 913.548 227.443 894.507 244.201C886.078 251.44 879.086 260.116 872.342 268.892C872.789 263.785 872.392 258.679 871.4 253.721C870.657 248.416 868.524 242.912 863.467 240.433C846.013 232.252 814.526 249.705 801.584 261.753C785.568 275.685 771.486 291.848 759.635 309.498C754.33 317.629 749.867 326.256 745.305 334.784C743.024 338.85 741.438 343.411 738.264 346.882C737.669 347.328 736.578 347.923 735.983 347.13C743.669 333.148 751.95 319.365 760.776 306.028C765.834 297.252 783.436 276.081 776.544 266.562C770.247 261.059 762.363 274.991 759.14 279.354C755.817 284.361 752.495 289.418 749.272 294.525C741.537 307.069 727.603 332.652 732.314 347.278C728.149 354.914 724.232 362.698 720.215 370.432C718.529 373.655 716.843 376.878 715.009 380.051C712.629 383.918 710.447 388.331 704.993 387.289C699.786 386.1 697.009 380.596 694.877 376.035C691.853 369.54 691.357 362.351 691.307 355.261C691.505 328.537 705.29 303.102 724.727 285.303C732.165 278.56 740.991 274.049 749.966 269.636C753.636 267.801 757.354 266.017 761.073 264.281C761.47 264.083 761.718 263.785 761.867 263.389C780.412 244.053 804.808 230.765 830.294 223.08C845.467 218.37 861.533 215.891 877.45 217.626C885.036 218.42 892.474 219.857 900.011 220.998C904.92 221.841 909.73 219.907 914.044 217.725C921.134 214.304 927.878 210.14 934.869 206.52C942.059 202.802 949.348 199.629 956.885 196.704C961.447 194.869 966.257 193.877 970.72 191.795C978.009 188.622 984.901 184.309 990.653 178.756C997.495 172.013 1002.55 163.485 1005.38 154.313C1008.06 145.438 1005.58 135.571 999.925 128.333C985.446 109.79 950.985 100.766 928.423 96.6509C909.234 93.924 888.16 90.9492 870.409 100.816C853.798 109.79 849.236 128.58 860.789 143.752C853.847 153.47 847.699 163.782 839.864 172.856C825.683 188.721 807.287 202.207 785.866 205.678C792.659 196.951 799.304 187.135 800.494 175.83C802.378 161.452 795.138 147.371 778.825 151.635C765.288 155.502 754.33 169.831 752.892 183.714C751.256 198.588 764.495 209.545 778.676 209.346C774.412 214.106 769.552 218.37 764.594 222.436C761.371 225.063 757.652 226.898 753.685 227.989C732.215 234.087 722.347 212.42 725.075 194.274C728.347 167.6 747.785 146.528 768.809 131.407C788.841 117.326 810.906 106.17 833.914 97.7416C847.798 92.6845 861.93 88.0735 876.508 85.3962C906.06 80.339 945.084 81.0331 973.248 91.7424C980.19 94.6181 986.339 98.9811 992.339 103.493C997.942 107.559 1005.13 112.764 1012.27 112.665C1022.19 111.574 1030.82 106.121 1039.99 102.749C1052.29 98.2374 1065.03 94.866 1078.07 93.3786C1096.91 91.1971 1116.65 95.5105 1132.22 106.517C1141.89 113.706 1144.17 127.44 1139.61 138.199C1135.84 146.578 1127.46 151.883 1118.88 154.213C1119.52 144.446 1121.21 133.291 1114.91 124.961C1103.56 110.632 1080.1 114.599 1067.61 125.358C1058.68 132.894 1057.1 146.628 1067.56 153.569C1079.96 161.155 1101.67 160.659 1115.66 158.18C1115.26 174.987 1130.48 184.656 1145.71 186.242C1158.6 187.779 1172.63 186.986 1183.79 179.846C1208.23 183.565 1227.82 165.22 1217.7 140.678C1233.22 160.064 1237.79 176.574 1235.36 201.166C1235.26 203.248 1238.33 203.347 1238.48 201.364C1240.41 181.631 1238.13 164.526 1226.73 147.818C1222.51 141.323 1217.75 135.125 1211.9 130.018C1208.38 125.159 1203.97 120.995 1199.11 117.524C1187.26 108.947 1178.53 106.864 1164.15 106.071C1160.04 106.022 1155.13 104.881 1151.71 107.608C1150.17 108.996 1150.66 111.525 1152.35 112.566C1154.93 114.301 1158.1 114.599 1161.08 115.144C1166.43 115.987 1171.84 116.533 1177.19 117.475C1188.99 119.557 1200.5 124.267 1209.62 132.15C1225.39 154.213 1216.17 178.061 1187.61 177.169C1195.74 169.335 1197.97 154.313 1193.56 144.099C1188.4 132.398 1173.87 132.646 1164.6 139.141C1155.82 146.281 1159.29 159.271 1164.94 167.303C1168.02 172.955 1173.32 176.971 1179.47 178.855C1169.61 184.061 1158.05 184.457 1147.04 183.366C1132.76 181.929 1118.19 173.698 1118.83 157.535C1129.99 154.808 1140.95 147.173 1143.87 135.571C1145.8 127.936 1145.56 119.359 1141.39 112.467C1137.52 105.278 1130.28 101.064 1123.14 97.6921C1110.95 91.8912 1097.36 89.1643 1083.92 89.8584C1068.5 90.7013 1053.43 94.5685 1039 99.8736C1030.42 103.096 1022.44 107.856 1013.31 109.492C1006.27 110.434 997.545 103.394 992.041 99.3778C984.653 93.7752 976.571 89.0155 967.596 86.487C953.464 81.9752 938.539 80.4382 923.762 79.5953C905.614 78.7525 887.317 79.7936 869.566 83.6609C830.245 93.1803 788.494 110.93 757.107 136.712C739.901 150.693 725.57 169.782 722.248 192.192C720.265 204.686 722.447 219.758 733.157 227.84C740.496 233.542 750.76 233.145 758.991 229.575C764.049 227.542 768.065 223.824 772.081 220.254C775.999 216.883 779.618 213.164 783.04 209.297C805.055 206.967 824.691 193.828 839.517 177.962C848.591 168.492 855.285 157.089 862.822 146.429C876.954 162.097 900.705 163.435 920.143 159.419C928.175 157.585 936.754 154.808 942.109 148.165C951.431 136.017 941.712 122.433 929.365 117.673C899.813 106.369 880.326 116.88 862.673 141.273C849.633 122.482 862.475 104.584 882.408 99.5265C896.193 95.7584 910.87 97.7416 924.853 99.5265C939.084 101.51 952.968 105.476 966.455 110.434C997.099 121.986 1016.34 141.868 992.438 172.31C986.438 179.797 978.207 185.251 969.43 189.118C963.629 191.597 957.431 192.985 951.629 195.563C941.911 199.43 932.489 204.141 923.366 209.346C917.118 212.569 911.118 216.684 904.176 218.122C900.854 218.469 897.581 217.577 894.358 217.081C887.962 216.04 881.565 214.949 875.119 214.404C841.104 211.875 803.419 226.699 776.346 246.581C770.147 250.944 764.594 256.101 759.387 261.604C759.239 261.703 759.14 261.802 759.04 261.951C753.338 264.628 747.685 267.454 742.033 270.33C727.851 277.122 715.901 287.931 707.026 300.871C699.389 311.382 693.638 323.182 690.563 335.875C687.539 349.113 686.448 364.731 691.902 377.473C694.728 384.761 701.522 393.636 710.298 390.066C713.323 389.025 714.959 386.149 716.596 383.621C718.43 380.745 720.017 377.72 721.604 374.696C725.868 366.565 729.934 358.384 734.347 350.303C740.793 353.823 744.165 343.411 746.743 339.098C754.131 324.62 762.016 310.391 772.23 297.698C780.213 287.534 788.94 277.866 798.461 269.09C806.146 261.852 814.576 255.258 824.047 250.448C834.36 245.49 853.699 237.21 863.963 244.995C865.797 246.532 866.987 248.961 867.582 251.341C868.772 256.596 869.715 262.298 869.268 267.801C869.12 269.933 868.921 272.065 868.574 274.197C865.599 278.213 862.326 282.229 860.293 286.84C860.045 287.435 859.748 288.179 859.946 288.873C860.145 289.964 861.483 290.46 862.326 289.865C863.021 289.418 863.566 288.774 864.111 288.179C867.086 284.807 870.062 281.138 871.152 276.676C892.077 243.458 927.928 220.353 966.158 211.925C954.704 220.254 944.588 230.22 934.919 240.483C930.903 244.747 926.837 248.961 923.316 253.622C921.481 256.596 915.829 261.653 917.415 265.273C918.407 267.405 921.184 267.752 923.267 267.355C930.456 265.124 936.803 260.662 943.15 256.695C952.77 250.349 961.794 243.16 970.472 235.574C975.331 231.112 980.686 226.848 984.207 221.246C987.975 214.404 987.975 207.809 978.653 207.264C989.909 200.422 1002.7 196.307 1015.64 193.828C1029.83 190.556 1049.21 185.449 1063.2 190.952C1065.58 192.34 1067.31 194.72 1068.7 197.051C1070.04 199.53 1071.28 201.86 1071.63 204.736C1071.77 207.71 1070.14 210.735 1068.4 213.115C1066.12 215.346 1063.59 217.428 1061.21 219.51C1049.31 230.071 1021.4 253.324 1018.17 268.248C1017.03 272.313 1018.82 277.172 1023.33 277.817C1029.53 279.205 1033.74 273.305 1037.76 269.586C1043.41 263.835 1049.06 258.034 1054.96 252.531C1075.94 233.343 1102.86 220.998 1131.03 217.131C1138.86 216.635 1148.93 214.503 1155.67 219.51C1156.81 220.403 1158.9 221.989 1158.35 223.774C1154.88 229.922 1148.33 234.137 1143.38 239.045C1131.47 250.3 1117.79 260.563 1110.05 275.288C1108.42 279.007 1105.29 284.212 1107.38 288.179C1110.6 292.641 1116.25 289.071 1119.52 286.493C1125.57 282.08 1131.57 277.519 1137.38 272.759C1152.15 260.612 1166.93 248.564 1184.08 239.888C1199.75 231.707 1216.51 224.617 1234.31 223.08C1254.84 221.047 1269.22 223.229 1285.88 236.268C1307.15 252.729 1322.87 275.883 1332.64 300.822C1337.7 313.613 1342.86 327 1342.16 340.982C1341.91 345.741 1341.42 350.848 1338.44 354.864C1333.39 360.219 1333.14 346.535 1332.24 343.312C1330.56 332.801 1329.37 322.141 1326.74 311.829C1324.86 304.094 1321.53 296.707 1317.32 289.964C1313.6 283.469 1308 280.891 1300.86 280.048C1289.55 278.511 1278.35 281.932 1267.29 283.915C1262.38 284.907 1257.47 285.948 1252.46 286.543C1249.49 286.89 1246.71 287.286 1243.74 286.543C1235.9 283.965 1259.21 268.545 1261.73 266.364C1268.58 261.505 1276.07 257.637 1283.01 252.927C1294.26 245.044 1286.08 237.756 1275.57 237.756C1258.26 237.062 1241.7 245.143 1228.66 256.051C1218.6 264.678 1205.51 282.378 1206.79 296.161C1207.14 301.516 1209.92 306.97 1215.17 308.953C1221.22 310.936 1227.62 311.779 1233.77 313.465C1242.94 316.043 1252.26 319.662 1261.19 323.232C1285.49 333.198 1309.68 349.014 1311.32 377.77C1289.16 364.631 1263.27 363.392 1242.25 379.505C1228.36 390.066 1221.77 407.369 1219.84 424.227C1216.96 454.818 1218.74 486.648 1195.09 510.199C1188.55 517.289 1179.62 521.106 1170.4 523.436C1164.4 525.172 1158.4 527.056 1152.25 528.147C1132.81 531.419 1113.77 520.858 1100.34 507.422C1067.91 475.443 1071.13 425.714 1089.77 387.289C1113.97 423.929 1152.1 441.629 1193.01 419.368C1209.08 410.146 1223.16 395.371 1226.73 376.679C1229.36 362.797 1230.35 346.931 1221.47 334.982C1217.95 329.925 1213.59 325.562 1209.12 321.298C1199.95 311.829 1186.02 310.242 1173.52 311.878C1136.78 316.836 1105.89 349.559 1089.33 380.993C1079.11 365.276 1070.88 348.22 1058.98 333.594C1036.82 305.433 1001.41 290.707 966.009 290.261C945.927 289.815 924.506 293.533 908.639 306.722C888.755 322.637 882.26 350.501 887.763 374.647C891.532 391.9 901.399 406.874 912.11 420.657C922.919 434.837 934.721 448.323 946.919 461.362C946.869 477.029 947.067 492.746 948.109 508.364C934.324 521.999 917.515 534.195 897.829 536.922C876.557 539.947 854.343 529.634 842.691 511.636C852.707 511.19 863.368 510.05 872.045 504.546C880.623 498.993 886.623 489.325 887.218 479.062C888.458 457.346 865.946 440.638 846.36 452.686C827.865 464.139 827.765 490.614 837.038 508.166C807.832 505.191 788.048 479.558 779.321 453.38C805.998 426.16 830.393 395.569 844.228 359.723C849.087 346.138 856.376 322.885 848.046 309.845C843.98 303.945 836.988 300.772 830.195 299.285C815.32 296.161 801.783 306.92 792.56 317.431C761.916 354.616 761.619 408.51 775.751 452.586C760.379 468.353 744.611 483.822 730.182 500.53C729.587 499.44 728.992 498.349 728.347 497.258C726.513 494.184 724.48 491.11 722.298 488.235C727.207 470.336 725.67 450.504 716.744 434.093C711.687 425.02 704.745 415.897 694.332 412.873C683.621 409.402 674.101 411.683 667.605 421.252C662.399 427.945 665.424 434.391 669.44 440.687C674.2 448.124 681.093 453.876 687.687 459.676C698.398 469.047 709.703 477.971 718.827 488.929C710.943 512.678 689.274 532.559 664.68 537.715C663.044 528.741 659.225 520.362 654.912 512.331C651.887 506.579 647.97 501.274 642.367 497.804C629.673 489.177 609.888 497.159 610.235 513.52C610.235 519.569 613.607 525.073 617.673 529.386C628.929 540.988 646.78 543.318 662.201 541.285C666.713 569.645 664.184 599.443 654.217 626.414C648.614 640.247 639.342 659.435 622.334 660.178C621.689 660.178 620.747 660.625 620.103 660.327C621.293 644.61 621.838 625.026 609.045 613.871C603.69 610.35 596.699 607.871 590.302 609.706C578.501 613.871 568.187 625.522 565.311 637.669C563.377 645.8 567.295 654.923 575.079 658.344C579.939 660.773 585.393 661.269 590.699 661.864C599.327 662.806 607.905 663.798 616.582 664.095C613.805 685.018 601.707 717.146 578.6 722.005C581.674 706.04 582.468 688.637 576.22 673.317C573.989 668.012 569.427 664.294 564.716 661.22C556.634 654.625 545.13 657.055 536.453 661.22C522.42 667.467 524.651 686.357 529.114 698.305C536.353 717.295 554.204 728.004 574.385 725.822C572.848 731.078 570.766 736.086 568.683 741.143C564.617 750.513 559.857 759.834 554.303 768.412C547.163 779.617 538.882 790.078 532.585 801.779C524.85 796.226 517.114 805.25 513.197 811.398C509.974 816.108 506.949 820.917 504.52 826.073C496.586 842.633 496.784 864.201 502.983 881.306C506.305 891.023 511.412 899.997 517.164 908.525C523.858 918.639 531.544 928.456 534.866 940.306C541.56 963.906 533.081 988.002 532.04 1011.9C531.197 1028.16 532.882 1045.81 543.147 1059.1C547.113 1064.55 553.163 1068.12 556.981 1073.68C558.815 1076.8 559.014 1080.57 559.658 1084.04C560.154 1088.9 560.501 1093.81 560.006 1098.66C557.774 1112.3 552.27 1123.5 556.088 1137.78C558.022 1147.55 564.319 1156.23 572.501 1161.78C577.46 1165.3 583.707 1167.13 587.327 1172.29C591.244 1177.89 593.525 1184.54 596.153 1190.93C599.327 1199.21 602.55 1207.54 606.616 1215.43C609.69 1221.23 616.533 1234.76 623.127 1239.32C623.276 1239.87 623.475 1240.46 623.623 1241.01C623.822 1241.65 624.466 1242.05 625.111 1242.05C625.26 1242.05 625.458 1242.05 625.607 1241.95C626.251 1241.75 626.648 1241.16 626.648 1240.51C627.144 1240.27 627.541 1239.82 627.541 1239.22C627.59 1238.38 626.946 1237.59 626.103 1237.54C626.003 1237.54 625.904 1237.49 625.805 1237.44C624.565 1233.32 623.276 1229.16 622.037 1225.04C620.202 1219.05 618.367 1213 616.533 1207C614.648 1200.8 612.764 1194.6 610.88 1188.36C608.996 1182.16 607.111 1175.96 605.227 1169.76C603.293 1163.42 601.36 1157.07 599.426 1150.72C597.492 1144.43 595.608 1138.08 593.674 1131.78C586.831 1109.37 582.616 1086.42 578.402 1063.46C573.989 1038.67 570.617 1013.63 567.691 988.647C565.212 966.038 562.832 943.38 563.08 920.623C563.08 893.106 566.997 865.787 571.658 838.716C576.716 810.158 586.038 782.542 596.748 755.67C603.988 738.664 612.913 722.649 622.483 706.833C635.425 685.663 650.647 665.831 668.795 648.924C696.861 621.308 730.182 602.318 768.71 593.543C799.799 586.701 832.426 585.065 863.863 590.617C886.078 594.931 907.399 603.607 927.481 613.97C938.34 619.622 948.654 626.266 957.976 634.198C957.976 634.198 958.174 634.397 958.174 634.446C958.274 634.595 958.373 634.744 958.522 634.843C958.571 635.091 958.72 635.339 958.869 635.587C959.464 636.231 960.455 636.231 961.1 635.686C967.596 630.182 974.389 625.076 981.281 619.919C996.603 608.07 1013.41 598.302 1031.41 591.064C1044.95 585.213 1059.48 582.288 1074.1 580.751C1104.2 577.727 1135.19 580.9 1163.66 591.312C1175.51 595.675 1187.61 600.038 1198.27 606.929C1205.75 611.59 1212.25 617.539 1218.7 623.539C1227.03 631.372 1234.71 639.851 1241.45 649.072C1251.42 663.401 1259.6 678.92 1268.03 694.19C1281.02 718.534 1290.05 744.712 1300.76 770.147C1304.58 779.121 1308.84 787.946 1313.15 796.672C1315.24 800.143 1318.91 809.712 1323.27 809.91C1326.59 809.365 1325.65 805.101 1325.25 802.672C1323.62 794.739 1321.39 786.905 1319.2 779.071C1312.61 756.513 1304.53 734.4 1295.5 712.733C1289.55 697.711 1283.6 682.688 1277.55 667.715C1270.36 649.717 1262.92 631.571 1252.02 615.457C1249.54 611.788 1246.76 608.318 1243.88 604.946C1240.31 600.781 1237.29 597.112 1235.01 592.105C1233.12 587.94 1233.32 581.197 1232.98 576.338C1232.58 570.885 1232.28 565.431 1232.03 560.027C1232.03 559.134 1232.03 558.242 1232.03 557.349C1232.28 557.795 1232.58 558.192 1232.88 558.638C1233.67 559.779 1234.46 560.919 1235.31 562.01C1235.8 562.654 1236.35 563.299 1236.99 563.795C1237.59 564.29 1238.23 564.786 1238.98 565.084C1239.37 565.232 1239.72 565.381 1240.07 565.48C1240.46 565.58 1240.86 565.679 1241.26 565.728C1242.15 565.877 1243.14 565.778 1244.03 565.629C1245.07 565.431 1246.12 565.133 1247.06 564.687C1248.84 563.894 1250.53 562.902 1252.02 561.663C1253.7 560.225 1255.24 558.638 1256.53 556.853C1257.87 554.969 1259.11 552.937 1259.95 550.805C1260.74 548.821 1261.34 546.838 1261.49 544.706C1261.54 543.715 1261.59 542.723 1261.49 541.732C1261.39 540.74 1261.19 539.798 1260.94 538.856C1260.45 537.071 1259.55 535.336 1258.31 533.947C1257.72 533.352 1257.12 532.757 1256.43 532.262C1255.64 531.716 1254.79 531.27 1253.9 530.873C1252.96 530.477 1251.92 530.278 1250.93 530.13C1250.08 530.031 1249.19 530.031 1248.35 530.13C1247.5 530.229 1246.61 530.427 1245.82 530.725C1244.78 531.121 1243.88 531.568 1242.94 532.113C1242.05 532.658 1241.21 533.303 1240.41 533.997C1239.67 534.642 1238.93 535.336 1238.23 536.079C1236.79 537.616 1235.45 539.203 1234.31 540.988C1233.32 542.475 1232.48 544.012 1231.74 545.648C1231.74 545.5 1231.74 545.351 1231.74 545.202C1231.69 543.268 1231.74 541.335 1231.93 539.451C1232.23 536.773 1232.68 534.146 1233.27 531.568C1234.02 528.394 1234.96 525.32 1236.1 522.247C1236.74 520.511 1237.39 518.826 1238.08 517.09C1238.53 516.099 1239.02 514.958 1239.57 513.768C1239.92 512.975 1240.26 512.132 1240.61 511.339C1240.71 511.091 1240.81 510.794 1240.96 510.546C1241.55 509.356 1242.15 508.116 1242.79 506.926C1243.39 505.786 1243.93 504.596 1244.53 503.456C1246.36 500.183 1248.3 496.961 1250.53 493.936C1252.12 491.804 1253.75 489.772 1255.69 487.739C1257.02 486.351 1258.51 485.012 1260.05 483.673C1261.64 482.384 1263.27 481.244 1264.96 480.153C1266.64 479.112 1268.38 478.17 1270.16 477.327C1271.21 476.881 1272.35 476.435 1273.54 476.038C1274.28 475.84 1274.97 475.641 1275.72 475.492C1277.21 475.245 1278.69 475.096 1280.18 474.947C1281.57 474.798 1282.96 474.699 1284.4 474.6C1285.88 474.6 1287.37 474.6 1288.91 474.749C1290.64 474.947 1292.33 475.245 1294.01 475.592C1295.55 475.988 1297.09 476.434 1298.53 476.98C1299.32 477.277 1300.16 477.575 1300.96 477.922C1301.3 478.071 1301.8 478.319 1302.35 478.566C1302.84 478.814 1303.39 479.013 1303.93 479.261C1304.92 479.806 1305.96 480.351 1306.96 480.847C1307.5 481.194 1308.05 481.492 1308.59 481.839C1309.09 482.136 1309.58 482.384 1310.03 482.682C1311.07 483.376 1312.11 484.02 1313.15 484.714L1313.3 484.814C1313.3 484.814 1313.55 485.012 1313.7 485.111C1314.34 485.607 1315.04 486.053 1315.68 486.549C1315.68 486.549 1315.78 486.598 1315.88 486.698C1315.88 486.698 1315.98 486.747 1316.03 486.797C1316.33 486.995 1316.68 487.342 1317.07 487.64C1317.62 488.086 1318.11 488.482 1318.66 488.929C1319.06 489.226 1319.4 489.573 1319.75 489.92C1320.15 490.267 1320.54 490.664 1320.94 491.011C1322.97 493.093 1325.01 495.176 1326.84 497.456C1326.94 497.556 1326.99 497.655 1327.19 497.853C1327.19 497.903 1327.29 497.952 1327.39 498.101C1327.53 498.299 1327.78 498.597 1327.98 498.894C1328.13 499.142 1328.33 499.341 1328.53 499.539C1328.53 499.539 1328.63 499.638 1328.63 499.688C1328.92 500.084 1329.22 500.481 1329.57 500.877C1329.86 501.274 1330.21 501.671 1330.46 502.067C1331.05 502.861 1331.65 503.654 1332.2 504.497C1332.74 505.34 1333.34 506.133 1333.88 507.025C1334.38 507.868 1334.92 508.662 1335.42 509.504C1336.56 511.388 1337.7 513.273 1338.69 515.206C1339.24 516.247 1339.83 517.289 1340.33 518.33C1340.87 519.42 1341.42 520.511 1341.91 521.602C1342.46 522.792 1343.1 524.18 1343.7 525.568C1344.39 527.205 1345.04 528.791 1345.68 530.427C1346.82 533.352 1347.81 536.327 1348.81 539.302C1349 539.897 1349.15 540.492 1349.35 541.037C1349.55 541.632 1349.75 542.277 1349.9 542.872C1350.19 544.062 1350.54 545.252 1350.84 546.442C1350.99 547.086 1351.14 547.731 1351.29 548.375C1351.38 548.921 1351.53 549.466 1351.63 550.011C1351.88 551.201 1352.08 552.391 1352.33 553.581C1352.53 554.771 1352.72 555.961 1352.87 557.2C1352.97 557.944 1353.07 558.688 1353.17 559.432C1353.22 559.977 1353.32 560.522 1353.37 561.068C1353.42 561.811 1353.52 562.555 1353.57 563.348C1353.57 563.894 1353.67 564.489 1353.72 565.034C1353.76 566.274 1353.81 567.563 1353.86 568.802C1353.86 569.447 1353.86 570.141 1353.86 570.785C1353.86 571.43 1353.86 572.124 1353.86 572.769C1353.76 574.058 1353.72 575.396 1353.62 576.685C1353.47 577.875 1353.32 579.065 1353.17 580.255C1353.07 581.247 1352.87 582.189 1352.67 583.18C1352.53 584.122 1352.33 585.015 1352.13 585.907C1351.88 586.949 1351.63 588.039 1351.38 589.08C1351.14 589.874 1350.94 590.617 1350.69 591.411C1350.49 592.105 1350.34 592.799 1350.1 593.444C1349.6 594.832 1349.1 596.22 1348.61 597.608C1348.26 598.451 1347.91 599.294 1347.57 600.186C1347.52 600.335 1347.42 600.484 1347.37 600.682C1346.77 600.335 1346.18 599.988 1345.58 599.691C1343.55 598.749 1341.42 598.055 1339.19 597.856C1337.05 597.658 1334.92 597.807 1332.89 598.402C1330.76 598.997 1328.72 599.839 1326.84 601.029C1324.91 602.219 1323.07 603.607 1321.44 605.144C1317.87 608.516 1314.79 612.383 1312.31 616.597C1309.83 620.762 1307.75 625.175 1306.26 629.835C1304.73 634.595 1303.68 639.553 1303.54 644.561C1303.39 649.469 1303.83 654.378 1304.77 659.187C1305.27 661.815 1305.87 664.442 1306.71 666.971C1307.45 669.252 1308.3 671.433 1309.29 673.615C1309.49 674.011 1309.68 674.457 1309.88 674.854C1309.24 676.788 1308.59 678.721 1308.1 680.705C1307.45 683.233 1306.81 685.762 1306.36 688.34C1305.96 690.67 1305.62 693 1305.52 695.331C1305.27 699.842 1305.72 704.503 1307.55 708.618C1309.34 712.585 1311.87 716.253 1315.19 719.129C1316.87 720.617 1318.76 721.906 1320.84 722.798C1322.72 723.641 1324.71 724.335 1326.74 724.633C1329.07 724.98 1331.5 725.079 1333.83 724.831C1336.11 724.583 1338.34 724.137 1340.53 723.492C1344.54 722.302 1348.41 720.269 1351.68 717.642C1351.98 717.89 1352.33 718.088 1352.62 718.336C1354.46 719.625 1356.29 720.914 1358.08 722.203C1359.27 723.046 1360.41 723.839 1361.6 724.682C1363.14 725.773 1364.67 726.814 1366.21 727.905C1368.44 729.541 1370.67 731.177 1372.9 732.813C1374.09 733.755 1375.43 734.796 1376.72 735.838C1376.97 736.036 1377.17 736.234 1377.42 736.433C1376.52 736.036 1375.58 735.738 1374.59 735.491C1373.65 735.243 1372.71 735.094 1371.76 734.995C1370.67 734.896 1369.58 734.846 1368.54 734.995C1366.26 735.193 1363.98 735.689 1361.9 736.581C1360.01 737.375 1358.13 738.317 1356.44 739.556C1355.45 740.25 1354.51 741.044 1353.67 741.886C1352.92 742.63 1352.28 743.374 1351.63 744.217C1350.34 745.902 1349.3 747.786 1348.51 749.77C1346.77 754.034 1345.83 758.644 1346.08 763.255C1346.23 765.734 1346.62 768.213 1347.37 770.593C1348.11 772.924 1349.05 775.155 1350.19 777.287C1350.99 778.824 1351.88 780.311 1352.87 781.749C1353.47 782.592 1354.06 783.484 1354.66 784.327C1354.86 784.624 1355.15 784.922 1355.35 785.269C1355.75 785.765 1356.1 786.261 1356.49 786.756C1356.94 787.351 1357.43 787.897 1357.88 788.442C1358.82 789.533 1359.76 790.673 1360.81 791.665C1362.29 793.053 1363.88 794.342 1365.76 795.185C1367.65 796.028 1369.63 796.623 1371.67 796.772C1373.6 796.92 1375.53 796.772 1377.42 796.226C1379.35 795.681 1381.24 794.888 1382.92 793.797C1384.61 792.706 1386.19 791.417 1387.53 789.979C1389.12 788.293 1390.46 786.459 1391.5 784.426C1392.59 782.344 1393.43 780.162 1394.13 777.931C1394.82 775.601 1395.47 773.271 1395.86 770.891C1396.21 768.709 1396.51 766.478 1396.46 764.297C1396.46 762.809 1396.31 761.371 1396.11 759.884C1396.41 760.429 1396.76 760.925 1397.05 761.52C1397.85 763.107 1398.64 764.693 1399.43 766.28C1400.03 767.668 1400.62 769.056 1401.22 770.445C1401.66 771.486 1402.01 772.527 1402.41 773.568C1402.85 774.708 1403.3 775.898 1403.65 777.039C1404.09 778.377 1404.49 779.766 1404.94 781.104C1405.38 782.691 1405.83 784.228 1406.23 785.814C1406.62 787.302 1406.97 788.839 1407.32 790.326C1407.66 791.814 1407.96 793.301 1408.31 794.788C1409.55 800.54 1408.71 806.44 1408.71 812.191C1408.71 818.488 1408.66 824.883 1407.07 831.031C1406.87 831.874 1406.18 832.32 1405.38 832.172C1402.8 832.073 1400.23 831.726 1397.65 831.527C1388.13 830.734 1378.56 829.99 1368.99 829.841C1355.15 829.445 1319.95 831.329 1333.29 853.144C1334.63 855.574 1336.41 857.904 1338.84 859.342C1342.01 861.523 1351.73 861.622 1347.17 855.772C1344.69 853.045 1345.24 850.169 1346.48 846.996C1347.32 844.963 1348.51 842.831 1350.74 842.038C1361.3 838.32 1374.44 838.419 1383.42 846.005C1388.38 849.971 1393.33 853.937 1398.14 858.003C1401.07 860.68 1404.54 863.06 1406.18 866.828C1406.67 869.902 1405.88 873.373 1405.83 876.596C1405.38 883.636 1405.09 890.676 1405.38 897.717C1405.58 904.807 1405.78 911.599 1405.68 918.788C1405.48 922.11 1405.83 925.779 1404.34 928.853C1390.71 919.929 1378.26 908.922 1363.53 901.683C1357.34 898.708 1343.9 893.205 1341.22 902.923C1340.33 912.492 1347.67 925.977 1353.02 933.761C1362.89 947.743 1379.15 955.13 1390.41 967.773C1381.48 970.203 1371.76 968.815 1363.29 965.344C1360.66 964.352 1359.76 961.08 1358.18 958.948C1356.34 955.775 1354.56 952.602 1352.97 949.33C1351.88 947.297 1351.04 944.372 1348.46 943.876C1346.87 943.677 1345.58 944.966 1345.04 946.355C1341.72 956.023 1352.28 963.509 1359.81 967.228C1367.25 978.086 1381.19 989.043 1394.47 981.259C1384.56 991.82 1376.28 993.902 1362.24 994.249C1356.39 994.547 1339.63 996.778 1347.86 1005.45C1351.73 1008.83 1355.9 1012.84 1361.25 1013.29C1371.76 1013.88 1379.7 1006.5 1386.94 999.554C1386.74 1009.17 1386.79 1018.74 1387.53 1028.31C1388.72 1049.73 1393.09 1072.04 1385.75 1092.86C1383.07 1099.46 1378.86 1105.46 1375.63 1111.8C1369.78 1122.66 1366.86 1134.71 1364.38 1146.71C1362.24 1156.62 1360.46 1166.74 1356.19 1176.06C1352.08 1184.09 1346.53 1191.48 1339.88 1197.58C1336.56 1200.2 1332.74 1203.82 1328.23 1203.23C1323.27 1202.09 1329.37 1188.95 1330.06 1185.48C1334.53 1172.79 1339.53 1160.34 1344.24 1147.7C1353.12 1122.76 1361.75 1097.47 1366.11 1071.3C1367.05 1063.91 1368.49 1056.52 1368.19 1049.08C1367.85 1046.75 1368.19 1043.33 1365.76 1042.04C1364.97 1041.7 1363.98 1041.95 1363.48 1042.64C1361.9 1045.42 1361.55 1048.79 1360.51 1051.86C1357.78 1061.53 1355.1 1071.25 1352.43 1080.92C1344.39 1108.68 1337.9 1136.84 1330.91 1164.85C1327.98 1176.7 1323.47 1188.06 1319.55 1199.56C1315.04 1225.19 1309.24 1250.58 1304.92 1276.26C1300.51 1300.21 1295.06 1324.01 1287.17 1347.06C1277.65 1372.79 1265.11 1397.34 1251.62 1421.18C1241.6 1438.04 1229.01 1453.21 1216.41 1468.14C1207.69 1478.6 1197.03 1487.82 1190.73 1500.11C1186.22 1508.3 1184.08 1517.47 1181.75 1526.44C1180.07 1532.99 1178.53 1539.58 1177.14 1546.17C1172.38 1566.3 1171.24 1587.03 1172.18 1607.6C1172.58 1621.24 1173.62 1634.87 1175.95 1648.36C1176.65 1652.33 1176.15 1657.73 1178.53 1661.1C1180.37 1663.73 1182.2 1666.36 1183.94 1669.03C1195.69 1686.93 1205.55 1706.12 1212.7 1726.35C1220.68 1751.04 1227.62 1776.23 1230.79 1802.06C1234.07 1832.7 1231.44 1864.03 1236.84 1894.52C1237.79 1899.88 1238.98 1905.23 1240.26 1910.49C1240.36 1911.68 1242.79 1918.87 1240.41 1918.27C1220.58 1917.63 1200.75 1916.24 1181.01 1914.21C1160.43 1911.93 1140.05 1908.16 1119.38 1906.13C1090.37 1903.3 1061.36 1900.18 1032.5 1896.26C1022.93 1894.82 1012.92 1893.29 1003.3 1891.25C1000.12 1890.36 993.231 1889.42 991.595 1886.29C986.488 1842.27 965.761 1821.79 931.25 1797C926.39 1793.53 921.035 1790.95 915.928 1787.88C911.515 1785.25 908.093 1782.13 903.284 1779.95C892.821 1775.23 881.665 1772.26 870.607 1769.19C849.732 1763.43 828.956 1757.53 808.328 1750.79C795.833 1746.83 783.089 1743.9 770.495 1740.43C745.851 1733.84 721.058 1727.84 696.464 1720.94C686.398 1718.07 676.134 1715.64 666.118 1712.62C653.027 1708.2 640.383 1702.45 629.028 1694.57C627.788 1693.77 626.648 1692.88 625.458 1691.99C625.557 1691.35 625.26 1690.65 624.665 1690.35C624.02 1690.06 623.375 1689.71 622.731 1689.36C618.863 1686.54 615.987 1682.92 612.665 1679.45C607.508 1673.6 604.682 1666.51 601.26 1659.47C597.343 1651.14 593.079 1642.96 587.773 1635.42C579.84 1623.82 570.567 1613.21 561.989 1602.05C540.32 1573.54 517.957 1545.38 500.404 1514.05C496.586 1506.11 489.694 1494.26 492.966 1485.49C494.305 1481.82 499.561 1481.37 502.635 1483.21C503.925 1484.15 504.718 1485.44 505.759 1486.83C509.379 1491.98 512.949 1497.54 516.668 1502.69C521.28 1509.24 526.387 1515.73 531.395 1522.08C547.708 1543.15 562.286 1565.61 580.782 1584.9C590.55 1594.96 600.665 1604.78 611.376 1613.9C617.822 1619.5 624.466 1624.41 630.912 1630.11C640.482 1638.39 647.375 1649 655.011 1658.97C657.787 1662.04 663.143 1670.37 667.209 1670.72C668.597 1670.72 669.242 1669.23 668.845 1668.04C668.2 1666.36 666.713 1665.17 665.622 1663.78C662.796 1660.61 659.969 1657.48 657.192 1654.26C648.862 1645.19 642.714 1634.43 635.524 1624.41C624.318 1609.39 609.442 1597.74 596.599 1584.2C569.575 1554.75 544.783 1523.32 519.098 1492.73C514.338 1486.88 509.28 1481.22 506.106 1474.28C502.04 1465.41 500.652 1456.93 503.776 1447.51C507.693 1432.24 512.404 1417.27 516.172 1401.95C521.081 1383.7 525.494 1365.36 530.304 1347.06C533.973 1334.22 537.296 1321.08 542.7 1308.79C546.419 1300.46 553.609 1294.65 560.997 1289.65C571.608 1281.47 584.054 1276.56 595.608 1269.96C603.69 1265.35 611.475 1260.25 619.26 1255.04C623.772 1252.21 627.987 1248.69 633.044 1246.86C639.243 1253.85 645.193 1261.04 651.242 1268.13C654.961 1272.99 659.225 1277.7 661.903 1283.25C660.911 1284.84 659.523 1286.08 658.234 1287.37C650.201 1294.9 641.325 1301.45 632.053 1307.4C621.987 1313.69 612.566 1321.13 601.955 1326.44C594.17 1329.11 595.608 1321.03 588.368 1332.53C587.178 1333.03 586.732 1334.47 586.732 1335.66C585.542 1338.14 584.501 1340.67 583.459 1343.24C579.493 1353.9 575.724 1364.61 572.055 1375.37C565.162 1397.58 558.766 1420.19 556.981 1443.44C555.047 1461.49 555.493 1480.68 563.328 1497.39C569.228 1509.14 579.195 1518.06 588.467 1527.09C595.261 1533.53 602.302 1539.68 609.045 1546.17C619.012 1556.19 628.879 1566.35 639.143 1576.12C659.771 1596.1 680.845 1615.74 702.712 1634.33C706.381 1637.2 710.1 1640.13 714.166 1642.51C716.397 1643.6 718.628 1645.73 721.257 1645.38C722.794 1644.99 722.843 1643.15 722.199 1642.01C718.232 1635.91 712.232 1631.4 707.174 1626.3C692.795 1613.36 678.266 1600.51 663.787 1587.67C653.077 1578.1 641.524 1569.48 630.962 1559.81C620.45 1550.34 611.029 1539.73 600.913 1529.91C593.376 1522.48 585.443 1515.58 578.253 1507.8C568.881 1497.54 561.493 1483.85 564.072 1469.52C565.509 1459.81 567.047 1450.09 568.633 1440.42C571.757 1418.9 576.22 1397.53 581.674 1376.46C583.509 1369.52 585.294 1362.58 587.029 1355.64C588.616 1349.34 590.649 1342.9 590.005 1336.35C600.566 1348.3 593.476 1347.76 610.632 1336.7C618.219 1331.49 625.855 1326.44 633.491 1321.28C644.995 1313.94 665.473 1297.58 679.456 1300.6C683.919 1302.09 686.646 1306.5 689.373 1310.07C692.795 1314.83 696.563 1320.04 698.695 1325.74C700.381 1329.51 699.885 1333.28 698.051 1336.9C695.671 1341.95 690.613 1344.83 686.795 1348.65C681.886 1353.11 677.622 1358.27 673.407 1363.37C671.225 1366 668.994 1368.48 666.514 1370.86C664.63 1372.5 662.796 1374.53 660.316 1375.17C659.424 1375.32 658.829 1374.58 658.234 1373.98C655.755 1371.31 653.374 1368.48 650.796 1365.95C649.507 1364.76 647.97 1363.27 646.036 1363.47C642.862 1364.27 644.499 1368.08 645.639 1370.02C647.424 1373.49 649.209 1376.96 650.994 1380.43C654.416 1387.02 657.936 1393.82 658.234 1401.4C659.126 1415.28 657.837 1429.17 656.845 1443C656.399 1453.41 653.077 1464.32 656.746 1474.48C659.771 1481.62 665.077 1487.47 669.49 1493.82C675.093 1501.4 680.696 1509.04 686.596 1516.38C701.323 1534.92 717.786 1551.93 734.595 1568.54C748.033 1581.72 759.586 1596.85 773.966 1609.09C775.651 1610.48 780.66 1614.1 780.858 1609.84C780.66 1608.94 780.015 1608.35 779.47 1607.65C777.486 1605.32 775.404 1603.04 773.271 1600.81C767.47 1594.66 761.47 1588.71 755.669 1582.57C746.297 1572.55 737.074 1562.49 727.455 1552.72C716.943 1542.06 706.53 1531.25 697.852 1519C692.398 1511.07 684.911 1498.33 683.126 1487.62C683.473 1487.37 683.671 1486.98 683.77 1486.58C684.563 1476.91 684.167 1467.19 683.77 1457.53C683.274 1439.03 677.076 1408.14 685.754 1392.03C689.522 1386.23 696.117 1383.21 701.819 1379.73C709.604 1375.17 717.538 1371.11 725.62 1367.04C735.14 1362.88 749.47 1352.32 757.503 1364.02C762.759 1374.63 761.073 1387.22 757.702 1398.23C755.917 1402.89 754.429 1408.09 750.809 1411.66C748.38 1413.7 745.107 1412.21 742.33 1411.86C738.71 1411.32 726.661 1408.34 729.686 1415.58C731.769 1418.75 735.735 1419.94 738.71 1422.13C746.148 1426.69 754.082 1432.83 755.47 1442.06C757.9 1453.41 758.892 1465.76 753.834 1476.56C751.702 1481.18 748.28 1484.99 745.752 1489.31C745.504 1489.85 745.702 1490.55 746.099 1490.99C747.884 1492.73 749.818 1489.9 751.206 1488.86C754.032 1486.13 756.561 1483.06 759.437 1480.38C760.925 1479.04 762.412 1477.9 764.445 1477.56C769.602 1476.86 773.866 1480.43 777.536 1483.65C783.238 1488.61 789.188 1493.47 795.238 1498.08C800.791 1502.35 806.097 1506.91 811.303 1511.62C817.253 1516.92 823.154 1522.53 826.972 1529.61C829.551 1534.42 831.435 1539.58 832.823 1544.84C833.616 1547.27 833.914 1550.14 835.65 1552.12C836.492 1553.02 837.98 1552.42 838.426 1551.38C838.773 1550.44 838.873 1549.4 838.823 1548.41C838.724 1541.02 837.236 1533.78 836.492 1526.44C836.641 1525.2 835.649 1521.48 837.484 1521.48C840.36 1522.03 843.186 1522.72 846.062 1523.37C854.938 1525.4 863.863 1527.48 872.541 1530.26C881.912 1533.53 891.234 1537.2 900.209 1541.42C905.961 1544.29 911.713 1547.22 917.614 1549.84C942.158 1560.45 966.158 1572.65 992.091 1579.74C1011.38 1585.79 1031.16 1590.15 1050.75 1595.21C1065.48 1598.98 1079.91 1603.89 1094.58 1607.8C1108.42 1611.57 1122.1 1616.13 1135.14 1622.13C1140.4 1624.61 1145.41 1627.63 1150.37 1630.56C1152.8 1632 1155.28 1633.49 1157.75 1634.87C1159.34 1635.77 1162.91 1638.44 1164.75 1637.25C1165.44 1636.81 1165.84 1635.96 1165.89 1635.12C1166.09 1632.84 1164.94 1630.16 1164.5 1627.93C1164 1625.35 1163.51 1622.73 1163.21 1620.1C1162.07 1609.59 1161.92 1599.03 1161.97 1588.47C1162.07 1563.23 1169.11 1538.29 1179.18 1515.29C1179.82 1513.7 1180.71 1512.21 1181.21 1510.58C1181.41 1508.99 1179.52 1508.35 1178.58 1509.24C1178.48 1509.24 1178.38 1509.34 1178.28 1509.39C1175.36 1511.62 1172.63 1514.05 1169.85 1516.48C1159.74 1525.2 1151.11 1535.42 1143.38 1546.27C1135.34 1557.43 1125.33 1567.54 1112.88 1573.69C1104.4 1577.41 1095.43 1580.73 1086.15 1581.72C1080.85 1582.12 1075.54 1581.33 1070.34 1580.53C1062.8 1579.34 1055.31 1578.05 1047.82 1576.72C1031.36 1573.84 1015.05 1570.07 999.281 1564.47C992.785 1561.94 985.694 1560.01 980.042 1555.84C979.347 1554.41 979.447 1552.72 979.199 1551.13C978.802 1547.07 978.554 1543.3 978.356 1539.13C977.909 1530.51 977.463 1521.83 977.066 1513.15C976.124 1496.55 977.612 1479.69 975.083 1463.28C974.984 1462.73 974.835 1462.09 974.587 1461.49C974.686 1461.19 974.637 1460.85 974.538 1460.55C974.19 1459.76 973.298 1459.41 972.505 1459.71C960.505 1464.67 946.869 1465.71 933.927 1465.06C917.663 1463.38 901.548 1458.52 887.565 1449.94C880.623 1445.68 873.83 1441.02 867.929 1435.31C861.93 1429.22 856.079 1422.92 849.98 1416.92C864.954 1418.65 880.078 1417.56 895.102 1418.36C905.614 1419.1 916.275 1421.13 926.787 1421.93C940.225 1423.17 953.811 1423.76 967.298 1423.12C967.397 1423.66 967.447 1424.21 967.546 1424.75C967.546 1424.95 967.645 1425.15 967.744 1425.35C967.844 1425.5 967.943 1425.65 968.042 1425.79C967.794 1435.66 968.042 1445.97 972.455 1454.95C977.463 1465.01 988.471 1470.96 999.479 1471.51C1023.83 1473.19 1045.84 1460.2 1064.34 1445.68C1073.26 1439.13 1081.05 1431.25 1088.63 1423.27C1095.23 1416.62 1101.53 1409.63 1106.73 1401.85C1107.28 1401 1108.37 1399.67 1108.76 1398.48C1109.56 1397.83 1109.95 1397.09 1109.61 1396.1C1108.76 1394.31 1106.53 1394.01 1104.85 1393.47C1101.48 1392.58 1098 1391.98 1094.58 1391.29C1081.39 1388.46 1068.06 1385.34 1055.26 1380.92C1040.88 1375.52 1027.64 1368.93 1011.83 1369.77C998.735 1369.82 983.562 1373.24 973.595 1382.16C969.777 1386.08 967.992 1391.44 966.257 1396.49C964.125 1404.03 965.662 1411.96 966.753 1419.55C952.72 1418.85 938.687 1418.51 924.655 1417.81C911.019 1416.77 897.482 1414.79 883.846 1413.9C872.64 1413 861.235 1413.25 850.228 1410.62C858.112 1409.38 865.698 1406.71 872.888 1403.28C880.524 1399.76 888.21 1396.2 895.548 1392.13C905.664 1386.77 915.531 1380.03 927.085 1378.3C938.44 1376.51 947.117 1379.64 957.282 1384.2C961.397 1385.93 967.496 1387.02 970.571 1382.91C971.761 1380.83 971.562 1378.3 971.711 1375.97C971.81 1373.59 971.91 1371.21 972.108 1368.88C973.695 1349.19 977.959 1328.67 989.066 1311.96C994.074 1304.42 1000.97 1297.13 1009.79 1294.26C1011.63 1293.66 1013.36 1292.82 1015.2 1292.23C1016.93 1291.63 1018.72 1291.28 1020.45 1290.59C1024.17 1289.1 1027.64 1287.17 1031.02 1285.09C1034.44 1283 1037.56 1280.67 1040.39 1277.8C1041.78 1276.36 1043.11 1274.87 1044.3 1273.24C1044.95 1272.34 1045.79 1271.5 1046.34 1270.56C1047.97 1267.58 1049.11 1264.26 1050.35 1261.14C1054.92 1249.59 1055.31 1236.89 1047.58 1226.63C1042.82 1219.94 1036.02 1215.03 1030.67 1208.78C1029.03 1206.7 1027.4 1204.52 1026.75 1201.89C1026.01 1197.38 1025.61 1192.82 1025.21 1188.31C1024.22 1176.31 1023.97 1164.36 1023.48 1152.21C1022.64 1135.3 1022.93 1118.4 1024.12 1101.49C1025.51 1083.05 1028.98 1058.5 1042.67 1044.97C1049.56 1047.8 1056.85 1049.28 1064.14 1050.82C1074.9 1053.05 1086.15 1055.38 1097.21 1056.92C1125.03 1060.93 1153.89 1058.01 1180.27 1048.19C1188.3 1045.17 1195.98 1041.25 1202.98 1036.24C1207.14 1033.27 1221.03 1022.61 1215.42 1017.11C1208.23 1010.81 1198.91 1007.64 1190.03 1004.46C1179.87 1001.29 1169.36 999.405 1158.75 998.563C1158.65 998.563 1158.55 998.563 1158.45 998.563C1150.71 997.968 1142.88 997.868 1135.14 998.315C1115.16 999.753 1095.38 1004.46 1077.28 1013.14C1087.99 1006.05 1099.1 999.306 1110.6 993.605C1126.81 989.093 1144.07 987.159 1160.63 990.828C1159.24 994.596 1166.18 994.497 1170.75 994.348C1172.08 994.348 1173.23 994.249 1173.87 994.348C1181.26 996.629 1188.55 999.356 1195.49 1002.78C1200 1005.06 1204.41 1007.73 1209.03 1010.02C1218 1014.38 1228.61 1018.54 1238.63 1015.42C1240.66 1014.63 1243.44 1013.93 1244.33 1011.7C1244.68 1010.41 1243.59 1009.27 1242.35 1009.02C1237.64 1008.58 1232.93 1008.58 1228.17 1008.63C1223.16 1008.63 1218.15 1008.68 1213.19 1008.13C1218 1005.06 1222.51 1001.49 1226.43 997.323C1230.35 993.01 1233.72 988.101 1236.15 982.796C1236.6 981.408 1235.11 980.119 1233.87 980.862C1226.18 987.209 1217.5 992.266 1207.93 995.29C1212.2 992.167 1217.26 989.341 1220.88 985.374C1221.97 983.837 1221.08 982.052 1219.14 982.201C1213.64 983.292 1208.73 986.366 1203.27 987.754C1195.98 989.936 1188.55 990.779 1180.91 991.076C1178.73 991.175 1176.5 991.175 1174.32 991.225C1172.48 990.679 1170.6 990.084 1168.76 989.589C1174.96 986.812 1180.86 983.341 1186.46 979.474C1188.1 978.136 1190.38 976.995 1191.13 974.913C1191.37 971.888 1187.65 972.682 1185.82 973.078C1170.1 976.995 1154.33 980.565 1138.27 982.548C1144.22 979.772 1150.22 976.995 1156.07 973.971C1157.66 973.128 1159.29 972.285 1160.83 971.294C1161.42 970.946 1162.02 970.5 1162.27 969.806C1162.76 967.674 1160.38 967.327 1158.9 967.922C1151.95 969.856 1145.71 973.624 1139.21 976.698C1131.52 980.416 1123.59 983.986 1115.81 987.655C1109.61 991.126 1102.62 992.464 1096.17 995.29C1083.97 1000.4 1072.82 1007.69 1062.55 1015.92C1050.9 1024.74 1041.43 1036.09 1029.92 1045.02C1024.42 1048.44 1024.97 1046.26 1025.31 1041.35C1025.66 1036.74 1026.11 1031.98 1027.05 1027.22C1028.98 1019.24 1032.3 1011.65 1035.92 1004.26C1042.47 991.621 1047.73 986.663 1060.57 980.714C1084.72 968.616 1111.54 963.956 1137.77 958.799C1170.2 952.056 1203.22 947.644 1236.45 948.735C1243.39 949.032 1250.43 949.23 1257.22 950.767C1259.16 950.966 1264.86 953.99 1265.6 951.263C1266.3 948.288 1259.11 948.04 1256.63 947.346C1252.07 946.156 1247.45 945.264 1242.84 944.471C1204.91 938.224 1165.89 942.487 1128.65 951.214C1158.99 941 1191.27 936.736 1223.16 940.901C1235.31 942.24 1247.4 944.124 1259.35 946.553C1263.12 947.396 1266.89 948.14 1270.51 949.577C1272.25 950.123 1273.24 947.594 1271.75 946.702C1271.11 946.355 1270.46 946.156 1269.82 945.859C1273.59 938.819 1230.35 930.043 1224.15 928.456C1212.35 924.986 1200.3 922.308 1188.1 920.623C1170.25 918.243 1152 919.482 1134.65 924.044C1113.08 929.894 1092.05 937.53 1071.08 945.214C1057.1 950.47 1043.61 957.064 1029.33 961.526C1025.02 962.617 1020.35 964.303 1015.99 962.815C1015.3 962.32 1015.1 961.526 1015.05 960.683C1014.8 959.841 1015.54 959.345 1016.19 958.948C1022.09 955.279 1029.03 953.544 1035.33 950.767C1053.92 943.479 1072.42 935.794 1091.41 929.547C1110.7 923.597 1129.94 916.805 1150.02 913.929C1175.26 910.508 1201.74 909.765 1225.93 919.036C1235.36 922.457 1243.98 927.118 1252.86 931.927C1256.73 934.009 1260.69 936.092 1264.26 938.67C1266.2 939.661 1267.44 937.034 1265.85 935.993C1259.26 931.481 1251.97 928.01 1244.93 924.192C1212.1 906.145 1178.68 905.997 1142.63 911.996C1099.99 920.92 1059.58 937.877 1019.21 953.841C1016.39 955.18 1011.33 957.064 1011.92 960.931C1012.02 966.831 1018.32 966.98 1022.78 966.336C1029.63 965.195 1036.17 962.667 1042.67 960.188C1055.41 955.18 1067.91 949.528 1080.85 945.016C1095.23 939.81 1109.66 934.852 1124.28 930.291C1140.65 925.035 1157.8 921.912 1175.06 922.655C1148.04 924.738 1121.66 932.076 1096.12 940.901C1074.85 948.388 1053.13 955.031 1032.85 964.997C1027.3 967.674 1021.74 970.451 1016.68 973.971C1015.59 974.715 1014.35 975.458 1013.71 976.599C1012.67 978.185 1013.36 980.466 1015.3 980.763C1019.66 981.755 1024.02 980.317 1028.19 979.127C1033.54 977.392 1038.85 975.458 1044.11 973.475C1052.58 970.302 1061.06 967.079 1069.39 963.609C1089.62 954.982 1110.2 947.198 1131.43 941.248C1149.77 936.042 1168.27 930.687 1187.31 928.903C1198.81 927.812 1210.22 930.44 1221.27 933.216C1230.64 935.546 1239.92 938.273 1249.04 941.397C1219.39 936.191 1188.8 933.662 1159.14 939.959C1134.85 944.719 1111.59 953.494 1088.39 961.972C1071.72 968.467 1054.52 973.475 1038.06 980.515C1032.75 982.697 1027.35 984.73 1022.09 987.06C1021 987.556 1019.91 988.052 1018.87 988.597C1017.88 989.192 1016.29 989.936 1016.34 991.324C1016.44 993.258 1018.72 993.208 1020.06 992.514C1022.44 991.572 1024.82 990.58 1027.25 989.589C1034.98 986.366 1042.82 983.391 1050.6 980.367C1064.83 974.665 1078.86 968.517 1093.64 964.402C1136.04 950.619 1180.76 941.843 1225.49 945.413C1195.29 945.413 1165.29 949.875 1135.79 955.973C1111.89 960.683 1087.54 964.947 1065.18 975.012C1056.7 979.078 1047.48 982.747 1041.23 990.084C1035.48 997.125 1031.46 1005.4 1028.04 1013.78C1023.68 1023.65 1022.09 1034.41 1021.84 1045.12C1021.84 1047.05 1022.73 1049.23 1024.82 1049.68C1030.87 1050.32 1037.06 1042.69 1041.43 1039.02C1042.52 1039.52 1043.31 1038.47 1044.06 1037.88C1048.27 1034.46 1052.68 1031.04 1057 1027.67C1071.38 1018.49 1087 1011.35 1103.41 1006.84C1102.17 1008.48 1101.28 1010.76 1100.88 1012.05C1095.57 1031.34 1116.25 1047.15 1133.95 1047.55C1144.76 1047.99 1155.37 1039.91 1158.85 1029.85C1159.34 1028.01 1157.61 1026.82 1155.92 1027.32C1154.23 1027.62 1152.4 1028.31 1150.81 1027.42C1148.78 1026.08 1148.23 1022.76 1149.92 1020.92C1152.4 1018.74 1156.17 1019.58 1158.99 1020.68C1160.78 1021.27 1162.42 1023.35 1164.35 1022.26C1168.22 1019.53 1167.77 1012.49 1166.98 1008.33C1166.58 1006.3 1165.99 1004.26 1165.09 1002.38C1180.86 1004.26 1196.23 1008.68 1209.87 1016.76C1211.11 1017.7 1212.6 1018.59 1213.59 1019.83C1213.54 1020.82 1213.29 1021.32 1212.79 1022.26C1207.24 1030.69 1198.07 1036.09 1189.34 1040.76C1164.4 1052.7 1136.09 1057.02 1108.57 1055.03C1090.52 1053.4 1072.86 1049.53 1055.11 1045.61C1051.39 1044.77 1047.77 1043.68 1044.25 1042.24C1040.68 1040.56 1038.25 1044.82 1036.32 1047.2C1025.06 1062.92 1022.19 1082.95 1020.8 1101.84C1019.96 1114.58 1019.51 1127.42 1019.81 1140.21C1020.6 1160.09 1020.7 1180.12 1023.18 1199.91C1023.58 1207.1 1029.28 1212.25 1034.04 1216.96C1046.34 1227.92 1053.87 1238.23 1048.77 1255.39C1048.07 1257.72 1047.18 1259.95 1046.24 1262.18C1045.35 1264.31 1044.55 1266.59 1043.41 1268.63C1042.67 1269.96 1041.73 1271.25 1040.78 1272.44C1039.84 1273.63 1038.8 1274.77 1037.76 1275.86C1035.58 1278.05 1033.2 1279.98 1030.57 1281.57C1022.64 1286.52 1012.97 1292.08 1003.35 1289.15C1008.31 1286.23 1013.51 1283.4 1017.58 1279.19C1019.76 1276.95 1021.74 1274.03 1021.4 1270.76C1021 1266.59 1016.64 1265.06 1012.97 1265.06C1009.74 1265.06 1006.47 1265.9 1003.79 1267.78C997.843 1272.34 996.107 1280.38 991.049 1285.78C983.512 1294.21 972.009 1298.47 961.05 1300.21C951.58 1300.85 942.605 1295.84 935.812 1289.6C927.68 1282.16 921.035 1271.45 909.432 1269.32C901.003 1267.44 887.069 1274.82 892.177 1284.74C895.747 1290.99 903.482 1291.73 909.73 1293.61C900.804 1298.22 888.408 1290.29 879.979 1286.67C869.764 1281.37 863.616 1270.61 860.789 1259.75C856.227 1245.97 858.806 1230.75 865.103 1217.91C865.649 1216.86 866.244 1215.87 866.839 1214.88C867.037 1220.88 868.971 1227.57 874.574 1230.35C883.103 1233.47 885.433 1226.48 883.45 1219.39C882.111 1213.44 876.706 1207.59 870.21 1208.48C870.706 1203.97 871.202 1199.31 872.64 1195C872.938 1194.21 872.541 1193.26 871.747 1192.97C869.02 1192.22 869.02 1196.93 868.425 1198.67C867.781 1202.14 867.285 1205.66 866.987 1209.18C856.327 1223.36 852.211 1244.28 857.864 1261.14C861.087 1273.34 868.624 1285.19 880.474 1290.44C888.755 1294.01 897.383 1299.37 906.705 1297.93C909.68 1297.58 915.73 1294.9 912.06 1291.43C907.697 1289.05 902.193 1289.15 897.879 1286.42C890.392 1281.17 895.35 1274.82 902.342 1272.74C906.804 1271.3 911.812 1272.69 915.68 1275.17C921.928 1278.74 926.142 1284.64 931.2 1289.6C938.39 1296.84 947.762 1302.98 958.224 1303.38C958.571 1303.38 958.918 1303.38 959.265 1303.38C959.96 1303.73 960.852 1303.68 961.546 1303.28C964.422 1303.03 967.298 1302.29 970.025 1301.45C975.976 1299.51 981.926 1297.28 987.033 1293.56C993.529 1289.2 996.851 1282.81 1000.67 1276.31C1002.11 1273.93 1003.74 1271.5 1006.12 1269.96C1008.21 1268.63 1010.73 1268.18 1013.16 1268.23C1014.85 1268.23 1016.64 1267.98 1017.78 1269.57C1018.22 1270.16 1018.32 1271.25 1018.22 1271.95C1017.33 1275.91 1013.36 1278.54 1010.34 1281.02C1008.26 1282.51 1006.07 1283.9 1003.89 1285.19C1002.7 1285.98 1001.12 1286.38 1000.22 1287.61C998.735 1290.84 1001.86 1292.28 1004.73 1292.77C999.727 1295.3 994.867 1299.37 992.19 1302.49C977.215 1319.25 971.463 1342.05 969.083 1363.92C968.29 1369.62 968.786 1375.42 967.744 1381.07C964.373 1384.74 958.075 1381.12 954.307 1379.68C933.084 1369.72 917.019 1375.87 898.077 1387.02C889.598 1391.83 881.119 1396 872.194 1400.06C867.086 1402.44 861.93 1404.67 856.475 1406.06C853.203 1406.9 849.88 1407.6 846.558 1407.99C844.674 1408.09 841.947 1408.29 842.988 1410.92C843.881 1412.21 845.567 1412.61 847.004 1413.15C847.649 1413.35 848.343 1413.55 848.988 1413.7C848.641 1413.7 848.244 1413.65 847.897 1413.6C843.335 1414.24 846.707 1418.56 849.186 1420.84C857.566 1428.67 864.607 1437.94 873.979 1444.68C892.92 1459.16 916.424 1468.09 940.324 1468.38C948.307 1468.33 956.241 1467.49 964.026 1465.71C966.604 1465.11 969.133 1464.27 971.612 1463.33C972.306 1466.1 972.703 1468.88 972.802 1471.9C973.496 1496.1 973.595 1520.34 975.331 1544.54C975.678 1548.51 975.678 1553.02 976.868 1556.93C978.901 1560.31 983.562 1561.45 986.934 1563.13C1007.11 1571.56 1028.34 1576.67 1049.86 1580.29C1059.63 1581.92 1069.39 1583.95 1079.31 1584.85C1087.05 1585.59 1094.73 1583.66 1102.02 1581.23C1117.94 1576.57 1131.72 1566.3 1141.84 1553.26C1149.62 1543.15 1156.66 1532.79 1166.13 1524.06C1168.96 1521.38 1171.84 1518.76 1174.76 1516.23C1175.01 1516.03 1175.21 1515.83 1175.46 1515.63C1166.13 1537.2 1159.64 1560.26 1158.75 1583.81C1158.65 1593.42 1158.55 1603.04 1159.24 1612.66C1159.59 1617.47 1160.13 1622.23 1160.98 1626.99C1161.32 1629.07 1163.01 1634.23 1158.85 1632.1C1156.27 1630.76 1153.79 1629.12 1151.31 1627.64C1146.3 1624.66 1141.24 1621.73 1135.94 1619.26C1123.99 1613.75 1111.49 1609.39 1098.8 1605.87C1089.03 1603.14 1079.26 1600.42 1069.54 1597.34C1050.11 1591.34 1030.12 1587.23 1010.49 1581.92C1001.02 1579.24 991.545 1576.47 982.124 1573.54C966.009 1568.34 950.538 1561.3 935.117 1554.26C928.175 1551.13 921.134 1548.21 914.242 1545.03C907.003 1541.61 899.961 1537.8 892.573 1534.77C874.921 1526.94 856.227 1522.13 837.335 1518.36C832.228 1517.96 832.774 1524.56 833.22 1528.03C833.716 1532.79 834.658 1537.5 835.054 1542.26C832.972 1534.87 829.848 1527.68 825.137 1521.58C817.452 1512.26 807.882 1504.58 798.51 1496.94C791.767 1491.79 785.122 1486.43 778.726 1480.88C771.635 1474.18 763.057 1471.21 755.718 1479.44C760.925 1469.62 761.222 1458.12 759.387 1447.41C758.495 1441.71 757.553 1435.76 753.784 1431.2C750.214 1426.34 745.206 1422.82 740.148 1419.7C737.62 1417.81 734.347 1416.67 732.215 1414.34C736.479 1413.7 740.942 1415.18 745.206 1415.83C747.437 1416.37 749.966 1416.13 751.9 1414.84C754.429 1413.1 755.966 1410.33 757.206 1407.6C758.743 1404.43 760.131 1401 761.073 1397.53C764.247 1386.53 765.338 1374.08 760.478 1363.42C751.206 1347.8 733.355 1360.2 721.554 1365.7C714.91 1369.12 708.216 1372.5 701.77 1376.26C696.514 1379.39 690.91 1382.16 686.398 1386.33C674.399 1397.58 678.266 1424.8 679.109 1440.02C680.299 1453.36 681.093 1466.8 680.745 1480.18C680.398 1480.28 680.101 1480.43 679.853 1480.78C678.018 1485.84 680.993 1493.47 682.729 1498.33C687.985 1512.06 696.662 1524.11 706.232 1535.17C697.604 1525.5 689.224 1515.53 681.44 1505.17C675.787 1497.69 670.184 1490.15 664.68 1482.51C662.3 1479.19 659.721 1475.37 658.68 1471.31C657.49 1466.65 657.936 1461.84 658.383 1457.08C658.978 1451.43 659.523 1445.78 659.969 1440.12C660.812 1426.14 662.25 1412.06 660.713 1398.13C659.077 1387.12 652.184 1377.8 647.672 1367.79C650.598 1370.46 653.077 1373.59 655.804 1376.46C657.688 1378.94 660.961 1379.09 663.44 1377.35C669.936 1373.04 674.597 1366.6 679.655 1360.7C683.671 1355.99 688.034 1351.52 692.795 1347.51C697.704 1343.79 701.571 1338.68 702.612 1332.48C703.108 1326.09 699.489 1320.19 696.216 1314.98C691.853 1309.18 688.382 1301.94 681.737 1298.47C671.671 1294.21 658.283 1302.14 649.606 1307.05C632.053 1318.16 615.045 1330.06 597.889 1341.81C595.806 1339.08 593.971 1336.05 591.343 1333.77C592.186 1332.39 593.376 1330.8 594.616 1329.61C601.161 1332.53 607.26 1327.43 612.566 1324.2C617.971 1320.68 623.375 1317.16 628.731 1313.59C639.738 1306.5 650.598 1299.12 660.068 1290.09C663.49 1286.62 666.862 1284.54 663.242 1279.63C659.721 1274.18 655.754 1269.07 651.54 1264.11C647.523 1259.4 643.408 1254.69 639.441 1249.93C637.458 1248.15 635.276 1243.24 632.102 1244.18C625.21 1246.71 619.508 1251.67 613.31 1255.49C601.112 1263.72 588.368 1270.96 575.129 1277.35C565.559 1282.36 556.634 1288.71 548.403 1295.65C538.833 1304.72 535.758 1318.01 531.841 1330.15C524.899 1352.71 520.04 1375.82 513.743 1398.57C510.619 1412.06 506.305 1425.15 502.933 1438.54C500.057 1449.15 496.636 1457.82 500.503 1468.83C502.635 1476.56 506.949 1483.46 512.057 1489.55C520.883 1500.36 529.808 1511.02 538.684 1521.78C556.435 1543 573.79 1564.52 592.484 1584.9C606.864 1600.51 624.218 1613.45 636.168 1631.3C628.383 1623.67 619.657 1617.62 611.425 1610.33C595.36 1596.2 579.889 1581.18 566.65 1564.32C556.287 1551.43 546.865 1537.8 536.899 1524.61C530.949 1516.87 524.75 1509.29 519.098 1501.3C515.329 1496.05 511.858 1490.6 508.09 1485.34C505.561 1481.27 502.189 1478.89 497.231 1479.44C492.57 1479.59 489.545 1483.41 488.95 1487.77C487.314 1501.11 499.71 1519.9 506.503 1531.3C519.494 1551.48 533.825 1570.77 548.254 1589.9C561.295 1607.75 576.319 1624.11 588.368 1642.66C596.104 1654.31 600.17 1668.24 608.301 1679.64C610.434 1682.37 612.814 1684.8 615.243 1687.23C615.442 1687.92 616.086 1688.62 616.681 1689.06C620.103 1692.29 623.772 1695.31 627.739 1697.89C639.044 1705.67 651.639 1711.33 664.581 1715.74C673.704 1718.61 682.977 1720.7 692.15 1723.32C710.893 1728.43 729.636 1733.54 748.479 1738.15C765.239 1742.56 782.048 1746.92 798.808 1751.49C811.502 1755.15 824.245 1759.62 837.038 1763.34C848.988 1766.81 861.037 1769.98 872.987 1773.6C878.937 1775.38 884.888 1777.22 890.838 1779.15C893.862 1780.14 897.086 1780.94 900.011 1782.18C905.217 1784.46 909.383 1788.47 914.44 1791C922.324 1795.31 930.06 1799.93 937.101 1805.53C948.605 1814.6 960.356 1823.72 969.182 1835.62C976.719 1845.44 981.827 1856.94 985 1868.89C986.686 1874.99 987.43 1881.29 988.471 1887.58C989.711 1890.86 993.529 1892 996.553 1893.04C1013.16 1897.3 1030.27 1899.33 1047.23 1901.61C1072.47 1904.69 1097.76 1907.47 1123.05 1909.89C1138.66 1911.58 1154.14 1914.16 1169.66 1916.24C1192.86 1919.17 1216.22 1920.75 1239.57 1921.6C1248.1 1922.14 1242.64 1910.24 1242 1905.53C1239.57 1895.22 1237.98 1884.96 1237.14 1874.4C1235.31 1850.89 1236.1 1827.19 1233.82 1803.69C1232.78 1793.58 1230.99 1783.27 1228.66 1773.3C1222.66 1748.11 1216.12 1722.78 1204.51 1699.53C1200.65 1691.69 1196.48 1684.01 1192.02 1676.57C1189.74 1672.8 1187.36 1669.03 1184.93 1665.37C1183.69 1663.53 1182.45 1661.7 1181.16 1659.91C1179.77 1657.98 1179.82 1655.4 1179.52 1653.12C1179.03 1649.1 1178.38 1645.14 1177.79 1641.17C1175.7 1626.74 1175.16 1612.02 1174.91 1597.44C1174.47 1579.49 1176.55 1561.54 1180.71 1544.09C1182.2 1537.1 1183.94 1530.16 1185.72 1523.27C1187.65 1516.28 1189.44 1509.09 1192.91 1502.64C1197.97 1492.28 1206.5 1484.2 1213.98 1475.67C1225.19 1462.88 1236.15 1449.74 1245.92 1435.81C1255.88 1421.48 1263.82 1405.81 1271.55 1390.25C1280.63 1371.9 1289.25 1353.16 1294.71 1333.38C1302.69 1306.75 1307.45 1279.33 1312.36 1251.97C1316.03 1234.17 1319.25 1216.22 1323.02 1198.47C1321.93 1204.37 1326.39 1208.04 1332 1206.2C1342.51 1202.19 1350.39 1191.48 1356.29 1182.26C1366.95 1163.91 1366.26 1141.5 1374.24 1122.12C1378.01 1111.95 1384.95 1103.38 1388.82 1093.26C1394.72 1075.71 1392.79 1056.87 1391.2 1038.72C1390.36 1027.22 1389.47 1015.92 1389.81 1004.31C1389.81 1001.79 1389.91 999.207 1390.01 996.579C1391.05 996.084 1391.2 994.695 1390.36 993.952C1389.71 993.357 1388.97 993.505 1388.33 993.952C1387.58 993.952 1386.94 994.497 1386.79 995.241C1378.71 1003.07 1366.21 1016.21 1354.66 1007.44C1352.57 1005.6 1349.8 1004.17 1348.51 1001.64C1348.31 1000.45 1350.1 1000.15 1350.94 999.653C1356.05 997.571 1361.7 997.571 1367.15 997.224C1377.22 996.926 1385.6 993.753 1393.04 986.862C1404.19 976.499 1411.09 962.518 1420.26 950.47C1422.99 946.751 1425.81 943.083 1428.84 939.562C1431.81 937.53 1435.23 936.092 1438.61 934.654C1450.41 929.646 1463.5 928.903 1476.19 928.952C1483.88 929.002 1491.51 929.795 1499.2 929.944C1502.02 929.696 1510.5 930.836 1510.75 926.919C1510.6 919.681 1503.61 915.119 1498.55 910.955L1498.85 910.36ZM998.785 537.22C999.082 550.705 989.066 569.447 974.29 570.438C968.637 570.637 965.315 566.571 962.687 561.96C958.373 554.721 956.241 546.541 954.803 538.211C953.018 528.593 952.026 518.825 951.282 509.058C958.323 501.919 964.72 494.085 970.521 485.904C983.512 500.382 998.14 516.743 998.785 537.22ZM952.621 389.521C954.307 368.3 956.34 346.733 964.521 326.851C967.596 319.861 971.315 312.87 977.314 307.912C983.215 302.904 992.289 301.764 998.14 307.713C1003.45 313.018 1004.73 321.05 1006.52 328.091C1009.35 340.387 1010.04 353.129 1009.2 365.673C1006.62 406.675 993.132 446.835 970.174 480.946C963.976 474.303 957.629 467.808 951.431 461.164C950.935 460.668 950.489 460.172 949.993 459.676C950.142 436.275 950.935 412.873 952.571 389.521H952.621ZM968.339 483.574C966.703 485.904 965.017 488.235 963.282 490.515C959.513 495.374 955.398 500.233 951.034 504.844C950.885 502.613 950.786 500.382 950.638 498.151C950.588 496.961 950.489 495.721 950.439 494.531C950.092 484.417 949.993 474.352 949.943 464.188C956.042 470.683 962.191 477.079 968.29 483.574H968.339ZM1314.44 383.224C1324.21 390.76 1331.95 400.775 1337.65 411.683C1341.62 419.864 1348.36 433.597 1343.4 442.224C1341.72 445.1 1338.74 447.529 1335.17 447.579C1328.33 447.381 1322.97 441.233 1319.6 435.729C1310.73 419.715 1313.45 400.775 1314.49 383.273L1314.44 383.224ZM1165.54 112.417C1161.57 111.674 1157.01 111.822 1153.54 109.542C1157.61 107.757 1162.47 109.095 1166.83 109.195C1171.29 109.641 1175.75 109.938 1180.12 111.128C1186.96 113.161 1193.16 116.929 1198.81 121.193C1188.55 115.69 1176.94 113.756 1165.54 112.417ZM1169.21 168.344C1166.04 163.733 1162.91 158.725 1162.07 153.073C1161.37 147.818 1163.36 141.868 1168.61 139.786C1182 133.687 1192.17 139.984 1192.27 154.759C1191.97 162.543 1189.94 171.814 1182.8 176.227C1177.64 175.087 1172.48 172.707 1169.21 168.294V168.344ZM1115.36 154.709C1107.57 156.296 1099.64 156.593 1091.71 156.246C1083.18 155.552 1073.36 154.957 1066.77 148.859C1059.77 141.967 1063.64 131.555 1070.68 126.349C1082.14 117.722 1102.27 114.153 1112.24 126.696C1117.94 134.828 1115.81 145.388 1115.41 154.709H1115.36ZM781.205 205.925C780.66 205.925 780.114 205.975 779.519 206.025C766.23 206.62 753.735 196.951 755.768 182.772C757.702 170.426 767.123 158.229 779.222 154.511C793.998 150.644 798.758 163.981 796.973 176.326C795.287 187.531 788.147 197.199 781.205 205.975V205.925ZM913.746 116.433C921.382 117.524 929.118 119.656 935.316 124.515C941.167 128.878 944.638 137.207 940.572 143.95C933.481 155.255 914.936 157.387 902.639 157.833C888.854 157.932 873.681 154.511 864.409 143.454C876.309 126.746 891.78 112.715 913.746 116.433ZM734.149 341.676C734.843 318.671 753.784 291.947 766.825 273.404C771.437 267.504 776.246 265.223 774.263 275.238C773.172 279.502 770.742 283.568 768.61 287.435C756.958 305.879 744.661 323.877 734.248 343.114C734.198 342.618 734.149 342.172 734.149 341.676ZM982.818 215.445C982.273 217.577 981.38 219.362 979.893 221.196C969.034 233.74 937.101 259.571 921.68 263.835C919.895 263.934 919.796 263.19 920.589 261.901C922.969 258.381 925.498 254.96 928.225 251.688C937.696 240.979 947.662 230.616 958.472 221.246C963.183 217.329 968.042 213.61 973.05 210.14C977.017 209.644 985.298 209.049 982.769 215.445H982.818ZM1172.48 314.605C1183.24 313.167 1195.34 313.415 1204.12 320.604C1209.87 325.513 1215.17 330.966 1219.44 337.164C1226.83 347.923 1225.84 361.904 1223.75 374.25C1218.05 405.386 1183.39 427.152 1152.85 425.218C1126.32 423.929 1105.05 404.742 1091.16 383.422C1106.93 352.683 1136.88 320.059 1172.48 314.555V314.605ZM847.847 454.917C864.508 444.703 883.35 457.693 884.045 476.236C884.342 486.648 878.144 496.861 869.169 502.167C861.136 506.678 851.467 507.67 842.344 508.067C841.798 508.067 841.203 508.067 840.658 508.017C831.286 491.656 830.245 466.221 847.847 454.966V454.917ZM779.519 344.452C786.759 326.356 807.138 297.549 829.501 301.913C835.203 303.202 841.005 305.631 844.773 310.341C853.153 321.695 845.963 344.155 841.897 356.55C828.41 392.148 804.51 422.64 778.131 449.661C767.619 415.798 766.032 377.77 779.519 344.502V344.452ZM729.438 505.687C735.438 518.23 737.768 532.262 737.62 546.095C737.372 555.515 731.223 566.472 720.711 566.67C712.331 566.968 707.521 559.927 707.174 552.044C706.48 534.691 719.124 518.677 729.438 505.637V505.687ZM682.58 450.653C678.068 446.339 673.605 441.877 670.58 436.324C669.093 433.449 667.159 430.275 667.903 426.805C669.341 422.392 672.812 418.674 676.679 416.095C682.927 412.526 691.158 414.162 697.406 417.137C704.1 420.409 708.761 426.755 712.579 433.052C721.752 448.521 723.835 467.411 719.62 484.814C708.464 472.22 694.877 462.007 682.481 450.702L682.58 450.653ZM648.515 538.261C637.755 537.468 626.4 534.394 619.012 525.965C614.896 521.404 611.872 515.157 613.756 508.81C615.987 498.795 628.631 494.531 637.606 498.398C644.102 501.324 648.763 507.125 651.986 513.322C656.102 520.957 659.87 529.138 661.457 537.765C657.093 538.36 652.928 538.558 648.515 538.261ZM606.269 659.93C600.021 659.385 593.773 658.741 587.525 657.997C582.021 657.253 576.022 656.212 571.906 652.097C566.848 647.188 566.947 639.107 569.774 632.909C574.038 623.687 584.104 612.334 594.814 611.739C600.566 612.334 606.715 614.515 610.285 619.374C618.665 631.323 617.921 646.693 616.781 660.625C613.26 660.476 609.789 660.278 606.269 659.93ZM572.203 722.451C571.41 722.451 570.666 722.501 569.873 722.55C557.774 722.897 545.725 717.741 538.287 707.974C530.899 698.355 527.031 685.415 529.659 673.416C530.552 669.053 533.626 665.384 537.791 663.649C542.353 661.418 547.46 659.98 552.617 659.98C554.65 659.98 556.832 660.228 558.865 661.071C561.295 662.062 563.526 663.996 565.708 665.483C580.732 675.201 578.65 706.784 575.179 722.253C574.236 722.352 573.245 722.451 572.303 722.501L572.203 722.451ZM533.23 806.638C537.841 813.034 538.833 821.314 537.841 829.048C536.849 833.907 536.155 843.278 529.808 843.823C526.089 843.823 525.792 838.221 525.445 835.394C525.048 825.379 528.816 815.562 533.23 806.688V806.638ZM1234.02 547.681C1234.41 546.739 1234.96 545.599 1235.5 544.508C1236.1 543.417 1236.79 542.376 1237.49 541.384C1238.43 540.095 1239.42 538.905 1240.51 537.765C1241.26 537.021 1242 536.278 1242.84 535.633C1243.34 535.236 1243.88 534.84 1244.43 534.493C1244.93 534.195 1245.42 533.898 1245.97 533.65C1246.12 533.551 1246.46 533.452 1246.86 533.303C1247.36 533.154 1247.8 533.055 1248.3 532.956C1248.59 532.956 1248.84 532.906 1249.14 532.857C1249.59 532.857 1250.08 532.857 1250.53 532.857C1250.83 532.857 1251.12 532.956 1251.42 533.005C1251.82 533.105 1252.21 533.204 1252.61 533.352C1253.01 533.551 1253.45 533.7 1253.85 533.947C1254.1 534.096 1254.35 534.245 1254.59 534.443C1254.84 534.592 1255.04 534.79 1255.29 534.989C1255.64 535.336 1255.93 535.633 1256.23 535.98C1256.43 536.228 1256.58 536.476 1256.78 536.724C1257.02 537.121 1257.22 537.517 1257.42 537.963C1257.62 538.41 1257.77 538.856 1257.92 539.302C1258.07 539.798 1258.16 540.244 1258.26 540.74C1258.31 541.236 1258.36 541.682 1258.41 542.178C1258.41 542.822 1258.41 543.467 1258.41 544.111C1258.31 544.805 1258.21 545.45 1258.07 546.144C1257.87 546.987 1257.62 547.78 1257.32 548.574C1256.93 549.615 1256.43 550.656 1255.88 551.648C1255.29 552.689 1254.69 553.68 1254 554.622C1253.35 555.515 1252.61 556.358 1251.87 557.151C1251.27 557.746 1250.63 558.341 1249.98 558.886C1249.34 559.382 1248.64 559.878 1247.95 560.324C1247.45 560.622 1246.96 560.869 1246.41 561.167C1245.77 561.464 1245.07 561.712 1244.43 561.911C1244.13 562.01 1243.79 562.059 1243.49 562.109C1243.19 562.109 1242.89 562.159 1242.55 562.208C1242.2 562.208 1241.9 562.208 1241.55 562.208C1241.31 562.208 1241.01 562.109 1240.76 562.059L1240.51 561.96C1240.51 561.96 1240.07 561.762 1239.82 561.663C1239.62 561.564 1239.47 561.464 1239.32 561.316C1239.22 561.216 1239.12 561.117 1238.98 561.018C1238.53 560.572 1238.13 560.126 1237.74 559.679C1236.79 558.49 1235.9 557.25 1235.06 555.961C1234.46 554.969 1233.92 553.978 1233.42 552.937C1233.22 552.441 1233.03 551.995 1232.88 551.499C1233.22 550.21 1233.62 548.97 1234.07 547.731L1234.02 547.681ZM1309.29 664.938C1308.44 662.211 1307.85 659.484 1307.4 656.658C1306.96 653.931 1306.66 651.105 1306.51 648.18C1306.46 646.147 1306.51 643.966 1306.66 641.735C1306.66 641.735 1306.66 641.685 1306.66 641.635C1306.91 639.404 1307.25 637.124 1307.8 634.893C1308.39 632.364 1309.19 629.935 1310.08 627.505C1311.12 624.877 1312.31 622.349 1313.6 619.87C1314.79 617.738 1316.08 615.705 1317.47 613.722C1317.47 613.722 1317.47 613.623 1317.52 613.623C1318.71 612.036 1319.95 610.45 1321.34 609.012C1322.53 607.772 1323.72 606.632 1325.06 605.541C1326.1 604.698 1327.24 603.955 1328.33 603.211C1329.02 602.814 1329.67 602.467 1330.36 602.12C1331.2 601.773 1332 601.426 1332.84 601.178C1333.58 600.98 1334.28 600.781 1335.02 600.633C1335.57 600.583 1336.11 600.484 1336.66 600.484C1337.35 600.484 1338.05 600.484 1338.74 600.534C1339.48 600.633 1340.18 600.732 1340.87 600.881C1341.42 601.029 1341.91 601.178 1342.46 601.376C1343.2 601.674 1343.9 601.971 1344.59 602.368C1345.04 602.616 1345.48 602.864 1345.88 603.161C1345.43 604.153 1344.99 605.095 1344.54 606.037C1343.8 607.524 1343.05 609.061 1342.26 610.499C1341.47 612.036 1340.62 613.523 1339.83 615.06C1336.71 620.713 1333.58 626.365 1330.41 632.017C1328.63 635.24 1326.79 638.462 1325.01 641.735C1323.32 644.809 1321.68 647.883 1320.05 650.956C1319.25 652.444 1318.51 654.03 1317.72 655.518C1317.02 656.857 1316.38 658.195 1315.73 659.583C1314.84 661.517 1313.95 663.451 1313.11 665.384C1312.81 666.029 1312.61 666.673 1312.36 667.318C1311.96 668.31 1311.62 669.252 1311.22 670.243C1310.48 668.508 1309.83 666.773 1309.29 664.988V664.938ZM1346.92 716.601C1345.78 717.295 1344.59 717.939 1343.35 718.534C1342.16 719.08 1340.92 719.526 1339.63 719.972C1338.29 720.369 1337.01 720.666 1335.62 720.914C1334.28 721.112 1332.94 721.261 1331.55 721.311C1330.41 721.311 1329.27 721.311 1328.13 721.162C1327.24 721.063 1326.34 720.914 1325.45 720.716C1324.76 720.517 1324.06 720.319 1323.42 720.071C1322.43 719.674 1321.49 719.278 1320.59 718.782C1319.95 718.435 1319.35 718.038 1318.76 717.592C1317.87 716.948 1317.02 716.204 1316.23 715.46C1315.44 714.716 1314.74 713.923 1314.05 713.08C1313.35 712.188 1312.71 711.295 1312.11 710.353C1311.52 709.362 1310.97 708.37 1310.53 707.379C1310.08 706.437 1309.73 705.445 1309.44 704.453C1309.24 703.71 1309.09 703.016 1308.94 702.272C1308.69 700.884 1308.59 699.446 1308.49 697.958C1308.49 696.372 1308.49 694.835 1308.69 693.248C1309.04 690.125 1309.53 687.1 1310.23 684.026C1310.68 682.093 1311.22 680.159 1311.82 678.226C1312.21 678.87 1312.56 679.515 1312.96 680.209C1314.15 682.142 1315.34 684.026 1316.68 685.861C1319.6 689.827 1322.82 693.546 1326.39 696.967C1328.03 698.553 1329.72 699.991 1331.4 701.479C1332 702.024 1332.59 702.569 1333.19 703.065C1333.73 703.511 1334.28 703.958 1334.82 704.354C1335.86 705.197 1336.96 706.04 1338 706.932C1338.39 707.279 1338.84 707.627 1339.24 707.924C1342.16 710.155 1345.09 712.386 1348.06 714.568C1348.36 714.766 1348.66 715.014 1348.96 715.212C1348.31 715.708 1347.67 716.154 1346.97 716.601H1346.92ZM1351.43 713.18C1350.1 712.188 1348.76 711.246 1347.42 710.254C1345.68 708.916 1343.9 707.577 1342.16 706.238C1340.87 705.247 1339.58 704.206 1338.29 703.164C1336.91 702.074 1335.52 700.983 1334.18 699.793C1332.54 698.355 1330.96 696.917 1329.32 695.479C1326.69 693 1324.11 690.224 1321.68 687.249C1319.7 684.77 1317.87 682.242 1316.18 679.564C1315.09 677.779 1314.05 675.945 1313.06 674.061C1313.06 674.061 1313.06 674.011 1313.06 673.962C1313.5 672.772 1314 671.532 1314.49 670.342C1314.84 669.499 1315.14 668.657 1315.49 667.764C1315.63 667.367 1315.78 666.971 1315.93 666.624C1317.02 664.244 1318.11 661.864 1319.2 659.484C1319.35 659.187 1319.5 658.84 1319.65 658.542C1320.05 657.749 1320.44 656.956 1320.84 656.162C1321.44 654.972 1322.03 653.783 1322.63 652.593C1323.17 651.452 1323.82 650.362 1324.41 649.221C1325.01 648.13 1325.6 646.99 1326.2 645.899C1331.2 636.826 1336.36 627.803 1341.32 618.68C1343.05 615.556 1344.74 612.383 1346.33 609.16C1346.67 608.417 1347.07 607.673 1347.42 606.929C1347.72 606.285 1348.06 605.591 1348.36 604.946C1348.71 605.244 1349.05 605.541 1349.4 605.888C1350.34 606.83 1351.24 607.772 1352.08 608.813C1353.17 610.152 1354.11 611.59 1355.05 613.028C1356.24 615.011 1357.29 617.093 1358.28 619.225C1359.86 622.696 1361.2 626.464 1362.44 630.331C1363.14 632.562 1363.78 634.893 1364.33 637.223C1364.82 639.355 1365.27 641.487 1365.62 643.668C1365.81 644.858 1366.01 646.098 1366.16 647.337C1366.26 648.378 1366.41 649.469 1366.51 650.51C1366.76 652.493 1366.95 654.526 1367.2 656.509C1367.2 656.906 1367.2 657.303 1367.25 657.699C1367.3 658.84 1367.35 660.03 1367.4 661.17C1367.45 662.856 1367.55 664.492 1367.6 666.178C1367.6 669.995 1367.5 673.813 1367.15 677.631V677.829C1366.81 681.002 1366.31 684.175 1365.57 687.299C1364.87 690.075 1364.08 692.802 1363.09 695.479C1362.19 697.76 1361.2 699.942 1360.06 702.074C1359.12 703.809 1358.08 705.445 1356.94 707.032C1355.85 708.469 1354.76 709.858 1353.52 711.147C1352.82 711.841 1352.08 712.535 1351.38 713.229L1351.43 713.18ZM1393.09 767.023C1392.89 768.908 1392.54 770.742 1392.14 772.576C1391.6 774.857 1390.9 777.088 1390.11 779.27C1389.66 780.41 1389.07 781.65 1388.42 782.939C1387.98 783.732 1387.48 784.476 1386.99 785.219C1386.44 785.963 1385.85 786.657 1385.2 787.351C1384.56 787.996 1383.91 788.591 1383.27 789.136C1382.57 789.682 1381.88 790.177 1381.14 790.673C1380.44 791.07 1379.75 791.466 1379.05 791.814C1378.46 792.061 1377.81 792.309 1377.17 792.508C1376.52 792.706 1375.93 792.855 1375.28 792.954C1374.64 793.053 1373.95 793.103 1373.3 793.152C1372.81 793.152 1372.31 793.152 1371.81 793.103C1371.17 793.053 1370.52 792.954 1369.93 792.805C1369.29 792.656 1368.64 792.458 1368.05 792.21C1367.55 792.012 1367.1 791.814 1366.66 791.566C1366.06 791.219 1365.52 790.872 1364.97 790.524C1364.28 789.979 1363.63 789.434 1362.99 788.839C1361.7 787.55 1360.56 786.161 1359.37 784.773C1358.97 784.228 1358.53 783.682 1358.13 783.187C1357.83 782.79 1357.48 782.344 1357.19 781.947C1356.39 780.757 1355.55 779.567 1354.76 778.377C1353.72 776.692 1352.77 775.006 1351.93 773.221C1351.34 771.833 1350.79 770.445 1350.34 769.007C1350.05 768.015 1349.75 766.776 1349.55 765.536C1349.4 764.544 1349.3 763.553 1349.25 762.561C1349.25 761.371 1349.25 760.181 1349.35 758.992C1349.5 757.653 1349.7 756.314 1350 754.976C1350.34 753.686 1350.69 752.397 1351.19 751.108C1351.63 750.067 1352.08 749.026 1352.62 747.985C1353.07 747.191 1353.57 746.448 1354.11 745.704C1354.56 745.109 1355 744.564 1355.5 744.018C1356.1 743.374 1356.74 742.828 1357.43 742.283C1358.03 741.837 1358.67 741.391 1359.27 740.944C1360.16 740.399 1361.1 739.903 1362.05 739.457C1362.84 739.11 1363.68 738.763 1364.53 738.515C1365.42 738.267 1366.31 738.019 1367.2 737.87C1367.95 737.771 1368.64 737.672 1369.38 737.622C1370.13 737.622 1370.87 737.623 1371.62 737.672C1372.36 737.771 1373.1 737.87 1373.85 738.019C1374.54 738.217 1375.19 738.416 1375.88 738.664C1376.72 739.011 1377.57 739.407 1378.41 739.854C1379.55 740.498 1380.64 741.242 1381.73 742.035C1383.12 743.076 1384.41 744.217 1385.65 745.357H1385.7V745.456C1386.79 746.497 1387.83 747.588 1388.82 748.728C1389.62 750.067 1390.31 751.406 1390.95 752.794C1391.45 753.885 1391.9 755.174 1392.34 756.513C1392.64 757.554 1392.89 758.545 1393.09 759.636C1393.28 760.826 1393.38 761.966 1393.43 763.156C1393.43 764.445 1393.43 765.784 1393.28 767.073L1393.09 767.023ZM1348.11 946.652C1350.94 951.263 1352.97 956.37 1355.95 960.931C1351.58 958.006 1345.43 952.453 1348.11 946.652ZM1338.44 1147.15C1340.03 1140.41 1341.62 1133.62 1343.35 1126.88C1350 1100.2 1357.58 1073.78 1364.92 1047.3C1365.62 1054.29 1364.23 1061.28 1363.33 1068.17C1362.24 1076.8 1360.21 1085.23 1358.03 1093.61C1351.48 1118.5 1342.81 1142.84 1333.48 1166.84C1335.22 1160.29 1336.86 1153.7 1338.44 1147.15ZM685.952 1611.22C696.613 1620.84 707.72 1630.01 717.538 1640.53C703.604 1632.3 692.2 1620.59 680.2 1609.89C664.283 1595.66 648.862 1580.93 633.59 1566.06C651.391 1580.73 668.845 1595.76 685.952 1611.22ZM601.211 1534.33C599.822 1533.09 598.484 1531.8 597.095 1530.56C593.823 1527.53 590.5 1524.51 587.277 1521.38C581.327 1515.53 575.228 1509.73 570.418 1502.89C579.145 1514.79 590.996 1523.86 601.211 1534.37V1534.33ZM567.394 1427.48C565.559 1439.18 563.625 1450.98 561.84 1462.73C561.196 1467.29 560.253 1471.8 560.402 1476.47C560.402 1476.32 560.402 1476.22 560.353 1476.07C557.923 1460 559.658 1443.74 561.939 1427.78C566.898 1399.07 576.22 1371.45 586.385 1344.19C579.889 1371.9 571.708 1399.32 567.394 1427.53V1427.48ZM1087.49 1419.35C1076.14 1431.74 1063.44 1442.85 1049.41 1452.07C1035.53 1461.49 1019.36 1468.38 1002.26 1468.04C992.339 1468.14 982.025 1464.02 976.471 1455.44C970.472 1445.68 970.769 1433.53 971.116 1422.42C971.166 1422.42 971.215 1422.42 971.265 1422.42C983.562 1422.82 995.859 1422.13 1008.01 1420.74C1016.19 1420.54 1024.32 1420.34 1032.5 1419.84C1056.55 1418.01 1080.9 1412.95 1102.47 1401.75C1098 1408.04 1092.9 1413.85 1087.44 1419.3L1087.49 1419.35ZM1036.02 1416.47C1044.16 1414.94 1052.29 1413.25 1060.37 1411.47C1069.69 1409.33 1079.06 1407.3 1088.29 1404.82C1086.6 1405.47 1084.91 1406.11 1083.23 1406.71C1067.96 1411.76 1052.04 1415.08 1035.97 1416.42L1036.02 1416.47ZM968.686 1398.77C970.521 1392.28 972.951 1385.14 978.951 1381.37C992.487 1372.94 1009.15 1371.06 1024.72 1373.44C1036.77 1375.67 1047.63 1381.77 1059.28 1385.24C1074.2 1390 1089.67 1392.87 1104.95 1396.39C1085.56 1403.28 1065.13 1407.2 1045.05 1411.47C1032.9 1413.99 1020.7 1416.13 1008.35 1417.56C1001.66 1417.66 994.917 1417.81 988.223 1418.11C982.372 1418.56 976.521 1418.95 970.67 1419.25C970.372 1419.25 970.075 1419.25 969.777 1419.25C968.786 1412.51 967.447 1405.57 968.637 1398.72L968.686 1398.77ZM1230.4 1011.35C1233.32 1011.35 1236.25 1011.26 1239.12 1011.35C1236.45 1012.45 1233.52 1012.94 1230.65 1012.94C1227.47 1012.89 1224.65 1012.15 1221.52 1011.26C1224.5 1011.35 1227.42 1011.4 1230.4 1011.35ZM1229.6 987.457C1224.45 995.687 1217.46 1001.19 1209.47 1006.35C1205.9 1004.51 1202.43 1002.48 1198.86 1000.6C1209.77 998.116 1220.43 993.902 1229.6 987.457ZM1214.08 986.515C1210.12 989.44 1206.05 992.266 1201.74 994.695C1199.9 995.836 1197.87 996.629 1196.13 997.819C1195.79 998.067 1195.59 998.463 1195.54 998.86C1194.45 998.315 1193.36 997.819 1192.22 997.323C1190.68 996.629 1189.14 995.984 1187.56 995.389C1185.97 994.794 1184.43 994.2 1182.84 993.605C1193.6 993.208 1204.27 990.927 1214.08 986.515ZM1185.27 975.805C1178.63 980.763 1171.39 984.432 1163.75 987.903C1158.5 986.713 1153.14 985.82 1147.74 985.473C1145.8 985.374 1143.92 985.275 1141.99 985.275C1140.05 985.275 1138.17 985.325 1136.28 985.473C1152.8 983.292 1169.11 980.02 1185.22 975.805H1185.27ZM1133.46 936.984C1116.35 941.893 1099.39 947.346 1082.98 954.188C1070.04 959.543 1057.1 964.947 1043.96 969.757C1035.78 972.583 1027.69 976.4 1019.07 977.541C1018.22 977.541 1017.38 977.541 1016.54 977.442C1025.71 970.748 1036.47 966.187 1046.88 961.526C1063.39 954.734 1080.4 949.181 1097.31 943.281C1114.76 937.182 1132.57 932.076 1150.76 928.556C1161.13 926.671 1171.59 925.134 1182.15 925.134C1183.99 925.134 1185.82 925.134 1187.65 925.283C1169.21 926.87 1151.31 931.977 1133.51 936.935L1133.46 936.984ZM1066.17 1016.41C1066.17 1016.41 1066.37 1016.26 1066.47 1016.16C1067.91 1015.02 1069.44 1013.93 1070.93 1012.84C1076.29 1008.92 1081.89 1005.31 1087.79 1002.18C1084.02 1004.51 1080.25 1006.89 1076.58 1009.32C1073.11 1011.6 1069.69 1013.88 1066.17 1016.41ZM1162.96 1018.89C1158.5 1016.06 1151.51 1014.28 1147.34 1018.49C1142.83 1024.15 1147.89 1032.48 1155.18 1030.19C1151.51 1037.53 1143.77 1043.78 1135.29 1043.98C1123.24 1043.93 1110.5 1037.43 1105.1 1026.38C1102.47 1020.63 1102.02 1013.14 1106.14 1008.03C1107.23 1008.03 1107.97 1006.89 1108.86 1006.35C1110.05 1005.31 1111.79 1005.06 1113.23 1004.41C1113.87 1004.12 1114.86 1003.97 1115.56 1003.57C1122.05 1002.33 1128.65 1001.44 1135.24 1001.04C1143.77 1000.64 1152.45 1000.74 1161.03 1001.59C1164.4 1006.25 1165.34 1014.33 1162.96 1018.94V1018.89ZM870.062 1211.31C874.673 1210.07 878.789 1214.38 880.127 1218.45C880.822 1221.03 882.607 1227.18 878.491 1227.52C871.202 1227.52 869.615 1216.96 870.062 1211.31ZM1479.46 925.283C1464.39 924.936 1448.77 925.779 1434.94 932.274C1448.97 917.301 1476.09 896.973 1496.07 912.293C1500.54 916.111 1506.59 919.631 1507.78 925.779C1498.4 927.068 1488.88 925.432 1479.41 925.333L1479.46 925.283Z" fill="#3B4431"/>
<path d="M1108.96 1006.3C1108.96 1006.3 1108.96 1006.3 1108.91 1006.35C1108.91 1006.35 1108.96 1006.35 1109.01 1006.3H1108.96Z" fill="#3B4431"/>
<path d="M868.375 993.208C868.227 992.91 868.078 992.613 867.929 992.365C867.384 991.721 866.342 991.473 865.599 991.076C862.822 989.737 860.392 988.151 857.516 986.961C855.781 986.267 854.045 985.573 852.31 984.928C848.789 983.589 845.269 982.399 841.698 981.259C834.657 978.978 827.517 976.946 820.426 974.962C806.146 970.947 792.014 966.336 778.031 961.328C765.04 956.717 751.9 952.602 739.008 947.743C731.223 944.619 723.14 941.099 714.562 942.289C701.62 943.429 689.323 948.09 677.125 952.255C668.25 954.139 659.324 956.023 650.647 958.948C668.944 949.577 687.588 938.967 708.314 936.389C714.711 935.844 721.058 937.232 727.256 938.769C739.603 941.793 751.453 946.454 763.453 950.569C784.13 957.461 804.708 964.6 825.236 971.839C831.682 973.673 856.772 983.589 861.285 979.772C862.028 979.127 862.326 978.036 861.929 977.144C861.533 976.252 860.541 975.756 859.747 975.359C856.872 973.921 853.896 972.583 850.921 971.294C836.343 965.096 821.369 959.741 806.295 954.833C785.717 948.288 765.337 941.198 744.363 936.092C724.777 931.183 703.753 926.721 684.117 933.861C670.084 938.571 657.291 946.206 644.845 954.04C640.234 956.965 635.623 959.94 631.11 963.063C629.821 964.204 623.821 967.476 624.416 969.211C623.524 969.757 622.978 970.996 623.722 971.839C625.259 973.822 630.069 969.707 632.003 969.013C637.755 966.683 643.606 964.6 649.506 962.716C643.705 965.146 637.755 967.228 631.953 969.509C630.614 970.203 631.16 972.285 632.598 972.434C634.432 972.335 636.118 971.244 637.903 970.649C658.828 965.096 680.299 961.873 701.967 961.13C715.455 960.832 729.041 960.634 742.33 963.162C768.461 968.319 791.617 981.358 815.716 992.266C831.682 999.455 848.541 1004.12 865.251 1009.17C865.499 1009.22 865.698 1009.27 865.896 1009.32C867.532 1021.91 869.218 1034.51 870.061 1047.2C864.061 1040.26 856.326 1035.15 849.136 1029.6C835.401 1018.64 819.236 1010.96 802.278 1006.45C787.353 1002.98 771.982 999.356 756.561 1000.5C750.611 1001.09 744.759 1002.38 738.76 1002.48C732.809 1002.63 726.81 1001.98 721.008 1000.55C716.099 999.455 711.339 997.174 706.331 996.778C705.29 996.926 704.447 998.067 704.943 999.058C705.934 1000.89 708.265 1001.34 710 1002.28C716.149 1004.91 722.694 1006.69 729.338 1007.29C719.719 1011.35 709.554 1013.68 699.339 1015.52C692.497 1016.86 685.456 1017.7 678.514 1016.96C676.977 1016.76 676.183 1018.89 677.423 1019.78C679.803 1020.82 682.629 1020.77 685.158 1021.27C691.703 1022.26 698.298 1022.51 704.843 1021.62C694.381 1027.12 682.828 1030.44 670.977 1031.29C669.588 1031.48 668.15 1031.29 666.861 1031.68C665.423 1032.28 665.522 1034.11 666.564 1035.05C678.662 1045.02 703.009 1035.2 714.017 1026.82C716.595 1024.99 719.124 1023.15 721.454 1021.07C723.091 1019.93 724.182 1017.7 721.851 1016.61C730.479 1012.84 739.553 1010.02 748.875 1008.28C748.776 1008.38 748.677 1008.48 748.627 1008.58C745.057 1012.79 743.074 1018.2 742.181 1023.6C739.057 1047.6 756.858 1065.05 780.461 1064.9C791.965 1065.2 801.782 1057.66 807.187 1047.85C807.832 1046.66 809.121 1045.22 808.328 1043.78C807.683 1042.79 806.443 1042.99 805.501 1043.43C802.774 1044.42 799.353 1045.07 796.923 1042.99C792.808 1039.42 791.568 1031.34 798.857 1031.04C802.179 1031.19 804.51 1034.16 806.592 1036.49C807.386 1037.33 807.435 1038.43 807.832 1039.42C809.022 1041 810.757 1039.76 811.104 1038.23C812.146 1035.4 812.89 1032.48 813.336 1029.55C813.584 1027.86 814.129 1019.58 813.137 1014.92C819.336 1017.2 825.286 1019.98 830.988 1023.3C842.046 1030.1 851.467 1039.22 861.086 1047.89C862.475 1049.13 863.813 1050.47 865.103 1051.81C864.408 1051.71 863.764 1051.66 863.318 1051.71C856.574 1051.32 850.029 1053.05 843.632 1054.94C832.624 1057.96 822.212 1062.52 811.452 1066.29C786.808 1074.82 759.833 1077.3 735.537 1066.29C726.859 1062.72 719.025 1057.31 711.537 1051.76C706.48 1047.75 702.315 1042.74 698.05 1037.98C697.505 1037.33 696.513 1037.24 695.819 1037.83C694.183 1039.52 696.86 1041.1 697.802 1042.44C701.521 1046.51 705.141 1050.72 709.504 1054.14C726.115 1067.18 746.445 1076.45 767.817 1076.8C788.841 1077.54 809.22 1071.1 828.509 1063.26C838.475 1059.94 848.492 1055.63 859.103 1054.89C861.483 1054.74 863.962 1054.79 866.293 1055.33C868.326 1055.83 870.656 1057.07 872.441 1055.33C874.226 1053.6 872.937 1050.47 873.135 1048.24C872.888 1041.7 872.094 1035.25 871.35 1028.71C870.805 1023.95 870.16 1019.24 869.615 1014.48C869.218 1011.16 868.921 1007.73 868.97 1004.36C868.97 1000.74 869.714 996.579 868.375 993.158V993.208ZM794.146 954.139C815.468 960.981 836.79 968.021 857.119 977.491C850.128 976.747 843.384 974.367 836.69 972.285C826.426 969.013 816.261 965.344 806.096 961.774C795.733 958.105 785.37 954.535 774.907 951.114C757.701 945.561 740.991 938.422 723.289 934.604C747.536 938.967 770.693 946.553 794.146 954.139ZM637.804 962.121C646.184 956.618 654.663 951.263 663.44 946.404C677.522 938.571 693.34 932.224 709.752 933.166C700.034 933.513 690.811 937.083 681.786 940.405C666.564 946.454 652.283 954.585 637.804 962.121ZM680.051 1036.05C677.026 1036 674.001 1035.55 671.225 1034.31C685.456 1033.52 698.992 1028.61 711.389 1021.72C711.289 1021.77 711.141 1021.82 711.042 1021.91C713.521 1020.48 715.703 1019.53 718.628 1019.44C707.769 1028.56 694.53 1035.5 680.051 1036.09V1036.05ZM713.818 1016.96C708.414 1018 702.959 1018.79 697.455 1018.94C704.496 1017.7 711.537 1016.31 718.479 1014.33C719.223 1014.13 720.016 1013.88 720.76 1013.63C718.43 1014.68 716.149 1015.77 713.868 1016.91L713.818 1016.96ZM736.727 1007.29C737.272 1006.84 737.421 1006.1 737.223 1005.5C741.586 1005.5 745.9 1004.91 750.214 1004.31C755.668 1003.57 761.172 1002.78 766.726 1003.32C755.371 1003.52 744.065 1005.5 733.256 1009.02C734.446 1008.48 735.735 1008.08 736.776 1007.29H736.727ZM809.666 1013.98C810.559 1015.87 810.46 1018.05 810.609 1020.08C810.906 1024.94 810.609 1029.85 809.171 1034.56C806.89 1031.93 804.311 1029 800.791 1028.11C796.031 1026.97 790.279 1030.54 790.527 1035.75C790.725 1042.84 796.576 1049.28 804.014 1047.15C799.303 1055.48 790.576 1062.03 780.659 1061.78C773.568 1061.73 766.329 1060.04 760.18 1056.47C748.478 1049.63 742.974 1035.1 745.751 1022.06C747.09 1016.91 749.222 1011.16 754.032 1008.28C754.429 1008.13 754.726 1007.83 754.875 1007.44C761.123 1006.64 767.42 1006.35 773.717 1006.64C785.816 1007.64 797.964 1009.87 809.567 1013.73C809.567 1013.83 809.617 1013.98 809.666 1014.08V1013.98ZM870.21 1052.46C865.053 1046.95 859.4 1042.04 853.797 1036.99C853.599 1036.84 853.401 1036.64 853.252 1036.49C859.45 1041.15 865.698 1045.91 870.21 1052.31V1052.46ZM723.24 945.611C729.636 946.9 735.685 949.974 741.834 952.106C751.85 955.725 761.966 958.998 772.031 962.518C787.353 967.922 802.725 973.227 818.443 977.59C833.666 982.152 849.483 985.92 863.665 993.208C863.813 994.398 863.962 995.538 864.161 996.728C860.095 995.984 856.078 995.241 852.012 994.447C849.235 993.902 846.508 993.307 843.731 992.663C815.071 985.721 788.742 971.641 761.42 960.882C739.305 952.453 718.43 946.503 694.48 949.726C703.653 946.95 713.57 944.223 723.24 945.661V945.611ZM846.855 1000.15C836.69 997.026 826.575 993.605 816.856 989.242C799.502 981.408 782.444 972.384 764.445 965.988C749.272 960.485 733.256 957.56 717.091 957.758C696.91 957.411 676.729 959.196 656.895 963.014C663.638 960.336 670.431 957.808 677.324 955.477C683.076 954.337 688.927 953.494 694.778 952.899C712.38 950.619 728.743 953.048 745.503 958.651C768.362 965.79 789.584 977.094 811.848 985.721C821.021 989.142 830.096 992.315 839.566 994.894C847.847 997.075 856.227 998.563 864.656 1000.05C864.756 1000.64 864.805 1001.19 864.904 1001.79C865.053 1003.12 865.251 1004.46 865.4 1005.8C859.152 1004.31 853.103 1001.98 846.855 1000.2V1000.15Z" fill="#3B4431"/>
</g>
<defs>
<clipPath id="clip0_157_306">
<rect width="1022" height="1842" fill="white" transform="translate(489 79)"/>
</clipPath>
</defs>
</svg>
