<svg width="2000" height="2000" viewBox="0 0 2000 2000" fill="none" xmlns="http://www.w3.org/2000/svg">
<g clip-path="url(#clip0_157_308)">
<g clip-path="url(#clip1_157_308)">
<path fill-rule="evenodd" clip-rule="evenodd" d="M155.525 2008.67C155.889 2010.1 155.024 2011.55 153.596 2011.92C152.167 2012.28 150.711 2011.42 150.338 2009.99C150.12 2009.15 74.2589 1718.96 165.716 1539.85C211.722 1449.75 274.635 1418.57 332.288 1412.81C389.796 1407.06 441.962 1426.68 466.849 1438.16C484.101 1446.12 505.011 1458.68 527.15 1473.91C535.175 1474.87 613.666 1485.55 661.119 1541.23C710.992 1599.74 716.716 1689.44 716.734 1689.71C716.825 1690.97 716.006 1692.16 714.732 1692.49C713.595 1692.78 712.439 1692.3 711.83 1691.38C701.283 1677 678.699 1664.31 654.504 1650.7C620.982 1631.86 584.394 1611.29 570.399 1581.06C548.224 1533.16 526.813 1484.58 524.029 1478.27C502.172 1463.24 481.562 1450.87 464.601 1443.04C440.197 1431.77 389.05 1412.53 332.816 1418.15C276.728 1423.76 215.462 1454.21 170.484 1542.3C79.9551 1719.59 155.316 2007.84 155.525 2008.68V2008.67ZM537.159 1480.91C543.283 1485.27 549.48 1489.81 555.685 1494.5C588.707 1519.4 622.201 1548.27 648.662 1575.21C680.546 1607.68 698.727 1642.58 708.117 1665.09C702.858 1634.73 689.545 1582.85 657.033 1544.71C619.353 1500.5 561.4 1485.46 537.15 1480.91H537.159ZM552.455 1498.78C545.767 1493.73 539.088 1488.85 532.5 1484.18C540.016 1501.17 557.423 1540.29 575.258 1578.81C588.516 1607.44 624.312 1627.57 657.115 1646.01C676.752 1657.05 695.342 1667.49 707.799 1679.02C700.774 1659.29 682.639 1617.45 644.85 1578.96C618.589 1552.23 585.313 1523.55 552.455 1498.77V1498.78Z" fill="#2B2424"/>
<path fill-rule="evenodd" clip-rule="evenodd" d="M150.775 1589.93C150.32 1591.34 148.809 1592.11 147.408 1591.66C145.998 1591.2 145.224 1589.69 145.679 1588.29C145.816 1587.86 193.915 1439.06 210.949 1328.34C217.054 1288.64 220.849 1257.68 223.724 1232.92C219.029 1228.12 197.764 1205.8 187.491 1184.39C185.98 1181.24 184.743 1178 183.76 1174.74C180.511 1163.91 179.956 1152.48 181.658 1143.02C183.441 1133.15 187.754 1125.3 194.151 1122.24C194.852 1121.9 195.553 1121.63 196.244 1121.42C204.524 1118.93 212.705 1119.54 220.012 1124.58C226.281 1128.89 231.804 1136.49 236.026 1148.21C236.236 1148.78 236.436 1149.35 236.627 1149.93C237.237 1148.02 237.892 1146.16 238.592 1144.35C243.533 1131.59 249.129 1122.59 254.625 1117.1C257.683 1114.04 260.767 1112 263.761 1110.95C266.982 1109.83 270.076 1109.83 272.906 1110.93C274.617 1111.59 276.191 1112.63 277.592 1114.03C282.014 1118.45 288.775 1126.08 292.87 1136.39C293.379 1137.67 293.843 1138.99 294.262 1140.35C298.721 1138.88 303.516 1138.49 308.821 1139.35C313.188 1140.06 316.737 1141.97 319.412 1144.78C321.906 1147.41 323.598 1150.8 324.463 1154.73C325.281 1158.51 325.336 1162.81 324.581 1167.44C322.634 1179.41 315.199 1193.7 301.714 1206.5C276.8 1230.15 238.702 1233.94 228.956 1234.53C226.081 1259.22 222.295 1289.98 216.272 1329.14C199.183 1440.22 150.93 1589.5 150.793 1589.93H150.775ZM224.516 1226.01L225.235 1219.76C228.265 1193.32 230.403 1174.72 233.879 1159.9C233.124 1156.56 232.159 1153.27 230.985 1150.01C227.173 1139.43 222.35 1132.68 216.963 1128.98C211.158 1124.99 204.543 1124.53 197.773 1126.56C197.291 1126.71 196.854 1126.87 196.463 1127.06C191.713 1129.34 188.41 1135.73 186.926 1143.96C185.37 1152.61 185.898 1163.16 188.901 1173.2C189.82 1176.25 190.957 1179.24 192.313 1182.07C200.766 1199.69 217.063 1218.08 224.516 1226V1226.01ZM243.579 1146.28C241.95 1150.47 240.585 1154.98 239.375 1159.96C241.186 1168.5 241.713 1177.35 240.922 1186.81C240.212 1195.29 238.438 1204.27 235.58 1213.99C241.695 1204.88 249.575 1192.89 257.291 1180.4C265.463 1167.19 272.687 1156.23 280.549 1148.92C283.37 1146.29 286.273 1144.13 289.303 1142.49C288.893 1141.06 288.411 1139.69 287.883 1138.36C284.162 1129.01 277.883 1121.94 273.779 1117.83C272.888 1116.94 271.941 1116.3 270.968 1115.92C269.348 1115.29 267.51 1115.31 265.517 1116.01C263.306 1116.79 260.904 1118.41 258.42 1120.9C253.397 1125.92 248.228 1134.29 243.588 1146.28H243.579ZM235.908 1177.95C234.652 1186.01 233.497 1195.16 232.25 1205.77C233.943 1198.95 235.053 1192.51 235.562 1186.36C235.799 1183.5 235.917 1180.69 235.899 1177.95H235.908ZM295.554 1145.61C297.155 1154.15 296.582 1163.96 291.878 1174.81C282.587 1196.25 252.642 1218.13 237.246 1228.34C252.087 1226.41 279.13 1220.52 298.002 1202.62C310.595 1190.67 317.502 1177.51 319.276 1166.57C319.913 1162.63 319.876 1159 319.194 1155.86C318.548 1152.88 317.301 1150.36 315.509 1148.47C313.634 1146.5 311.105 1145.16 307.947 1144.64C303.443 1143.9 299.367 1144.29 295.545 1145.61H295.554ZM286.973 1172.69C290.922 1163.57 291.632 1155.28 290.522 1148C288.356 1149.3 286.255 1150.93 284.198 1152.84C276.782 1159.74 269.785 1170.36 261.841 1183.21C252.396 1198.48 242.669 1213.09 236.227 1222.58C251.623 1212.23 278.575 1192.06 286.973 1172.69Z" fill="#2B2424"/>
<path fill-rule="evenodd" clip-rule="evenodd" d="M210.258 1363.33C209.775 1364.74 208.256 1365.47 206.855 1364.99C205.453 1364.51 204.716 1362.99 205.198 1361.59C205.244 1361.46 220.849 1315.61 252.933 1296.6L252.988 1296.56H253.006C279.567 1280.85 284.681 1275.54 298.958 1260.7C301.578 1257.98 304.49 1254.95 306.938 1252.45C306.992 1252.39 307.047 1252.34 307.102 1252.29C329.404 1229.61 352.917 1234.62 352.98 1234.63C354.436 1234.92 355.383 1236.33 355.091 1237.79C354.982 1238.34 354.709 1238.81 354.336 1239.18C352.744 1241.09 338.904 1257.79 322.871 1280.06C308.949 1299.39 291.232 1299.95 271.678 1300.55C266.337 1300.71 260.85 1300.88 255.236 1301.47C225.135 1319.64 210.294 1363.21 210.249 1363.33L210.258 1363.33ZM302.816 1264.42C290.068 1277.68 284.435 1283.54 265.281 1295.41C267.383 1295.32 269.467 1295.26 271.532 1295.2C289.695 1294.63 306.155 1294.12 318.53 1276.93C330.814 1259.87 341.888 1245.98 347.157 1239.5C339.859 1239.43 325.264 1241.46 310.896 1256.08L310.778 1256.21C307.238 1259.83 304.927 1262.24 302.816 1264.43V1264.42Z" fill="#2B2424"/>
<path fill-rule="evenodd" clip-rule="evenodd" d="M180.12 1490.07C179.983 1491.55 178.682 1492.63 177.217 1492.5C175.743 1492.36 174.66 1491.06 174.797 1489.59C174.815 1489.41 180.966 1425.28 170.748 1412.39C167.881 1408.77 163.823 1404.6 159.255 1399.91C146.552 1386.87 130.028 1369.89 122.912 1348.52C113.058 1318.95 124.969 1298.1 125.005 1298.03C125.724 1296.74 127.353 1296.28 128.645 1297C129.182 1297.3 129.573 1297.74 129.801 1298.27C130.574 1299.87 142.421 1324.2 155.597 1342.82C162.667 1352.81 167.29 1363.41 170.338 1374.72C173.286 1385.69 174.733 1397.34 175.47 1409.78C186.326 1425.71 180.138 1489.89 180.12 1490.08V1490.07ZM163.095 1396.17C165.415 1398.56 167.617 1400.82 169.601 1402.94C168.782 1393.52 167.435 1384.58 165.151 1376.09C162.267 1365.37 157.89 1355.33 151.211 1345.9C141.138 1331.65 131.848 1314.2 127.508 1305.67C124.914 1313.01 121.666 1327.88 127.981 1346.84C134.705 1367.01 150.747 1383.49 163.086 1396.17H163.095Z" fill="#2B2424"/>
<path fill-rule="evenodd" clip-rule="evenodd" d="M756.197 1301.79C757.462 1302.56 757.862 1304.2 757.098 1305.47C756.334 1306.73 754.687 1307.13 753.422 1306.37C753.149 1306.21 657.306 1248.32 642.802 1230.91C636.614 1223.48 629.116 1203.81 622.283 1181.75C612.819 1151.2 604.521 1115.85 602.856 1102.5C599.998 1079.59 601.418 1035.39 601.427 1035.26C601.454 1034.31 601.973 1033.5 602.719 1033.05C602.765 1033.01 619.953 1022.15 626.587 1046.49C629.562 1057.39 629.08 1067.45 625.604 1076.04C622.237 1084.37 616.095 1091.29 607.605 1096.25C607.778 1098.22 607.969 1100.1 608.188 1101.84C609.835 1114.99 618.042 1149.93 627.415 1180.17C634.066 1201.66 641.246 1220.67 646.924 1227.48C660.845 1244.19 755.933 1301.63 756.206 1301.79H756.197ZM606.732 1037.03C606.55 1043.7 605.949 1069.97 607.169 1090.21C613.447 1086 618.024 1080.5 620.636 1074.04C623.675 1066.51 624.084 1057.62 621.427 1047.9C617.651 1034.05 609.78 1035.76 606.732 1037.03Z" fill="#2B2424"/>
<path fill-rule="evenodd" clip-rule="evenodd" d="M614.348 1036.53C612.874 1036.68 611.554 1035.62 611.4 1034.14C611.245 1032.67 612.31 1031.35 613.784 1031.19C613.884 1031.18 650.135 1026.72 659.753 1061.66L660.19 1063.24C669.217 1096.05 685.022 1153.47 702.884 1176.36C713.057 1189.4 743.895 1197.48 791.102 1209.84C825.67 1218.89 868.892 1230.21 919.175 1247.5C929.175 1250.94 937.028 1253.63 944.889 1256.3C1058.13 1294.98 1178.12 1335.95 1227.05 1399.11C1279.53 1466.87 1393.08 1937.16 1393.4 1938.52C1393.75 1939.96 1392.87 1941.4 1391.43 1941.75C1389.99 1942.1 1388.54 1941.21 1388.2 1939.78C1387.87 1938.43 1274.59 1469.23 1222.81 1402.39C1174.87 1340.51 1055.66 1299.8 943.161 1261.38C933.77 1258.18 924.443 1254.99 917.428 1252.58C867.154 1235.29 824.142 1224.03 789.755 1215.03C741.483 1202.39 709.954 1194.12 698.662 1179.66C680.145 1155.91 664.158 1097.83 655.022 1064.64L654.585 1063.06C646.195 1032.6 614.43 1036.51 614.339 1036.52L614.348 1036.53Z" fill="#2B2424"/>
<path fill-rule="evenodd" clip-rule="evenodd" d="M677.57 1257.43C677.033 1256.05 677.716 1254.49 679.09 1253.95C680.473 1253.42 682.029 1254.1 682.566 1255.47C682.602 1255.57 694.904 1286.43 697.761 1362.73C699.172 1400.28 701.019 1419.93 706.479 1432.05C711.729 1443.71 720.774 1448.63 736.579 1456.64C737.899 1457.31 738.435 1458.92 737.762 1460.25C737.098 1461.57 735.478 1462.1 734.159 1461.43C717.261 1452.86 707.58 1447.58 701.583 1434.25C695.787 1421.36 693.84 1401.21 692.402 1362.92C689.572 1287.56 677.597 1257.5 677.561 1257.42L677.57 1257.43Z" fill="#2B2424"/>
<path fill-rule="evenodd" clip-rule="evenodd" d="M704.932 1439.44C704.941 1437.97 706.151 1436.78 707.625 1436.79C709.099 1436.8 710.291 1438.01 710.282 1439.48C710.282 1439.58 709.636 1474.72 731.447 1490.01C742.157 1497.52 775.115 1510.31 810.475 1522.19C849.556 1535.32 891.422 1547.28 909.411 1549.74C912.451 1550.16 916.463 1550.65 920.776 1551.18C958.402 1555.78 1021 1563.45 1057.52 1605.62C1077.76 1628.99 1092.63 1671.81 1105.04 1731.18C1117.39 1790.25 1127.35 1865.79 1137.78 1954.94C1137.94 1956.42 1136.89 1957.75 1135.42 1957.91C1133.95 1958.07 1132.62 1957.02 1132.45 1955.55C1122.04 1866.5 1112.09 1791.09 1099.8 1732.27C1087.57 1673.76 1073.05 1631.74 1053.47 1609.13C1018.31 1568.52 956.992 1561.02 920.13 1556.5C916.199 1556.02 912.551 1555.58 908.702 1555.05C890.403 1552.54 848.128 1540.49 808.782 1527.27C773.022 1515.25 739.545 1502.21 728.39 1494.4C704.231 1477.46 704.932 1439.54 704.941 1439.44L704.932 1439.44Z" fill="#2B2424"/>
<path fill-rule="evenodd" clip-rule="evenodd" d="M1304.54 1498.64L1304.84 1498.31L1304.92 1498.24H1304.93L1305.01 1498.16L1305.03 1498.14L1305.08 1498.1C1305.27 1497.96 1305.48 1497.85 1305.71 1497.75H1305.71L1305.81 1497.72L1305.86 1497.7L1305.94 1497.67L1306.09 1497.64L1306.22 1497.61H1306.24C1306.32 1497.59 1306.41 1497.58 1306.5 1497.58H1306.68H1306.73H1306.87C1306.98 1497.58 1307.09 1497.6 1307.19 1497.63C1307.43 1497.67 1307.64 1497.75 1307.85 1497.85L1307.95 1497.9H1307.98V1497.91C1308.14 1498 1364.66 1529.82 1397.97 1547.66C1421.74 1560.38 1435.89 1573.51 1448.44 1585.17C1453.83 1590.17 1458.93 1594.9 1464.25 1599.11C1479.19 1610.9 1485.13 1616.31 1486.79 1617.88C1506.7 1623.08 1528.33 1628.36 1550.84 1633.86C1622.36 1651.32 1702.64 1670.92 1764.57 1696.85C1888.59 1748.76 1880.92 1885.78 1880.9 1886.18C1880.84 1887.65 1879.59 1888.8 1878.11 1888.73C1876.63 1888.67 1875.49 1887.42 1875.55 1885.94C1875.57 1885.56 1883.03 1752.25 1762.51 1701.8C1700.91 1676.01 1620.88 1656.47 1549.59 1639.06C1527.07 1633.57 1505.43 1628.28 1485.49 1623.08C1479.22 1624.94 1434.44 1636.81 1378.6 1612.68C1318.01 1586.5 1304.07 1500.95 1304.03 1500.7V1500.68C1304.01 1500.6 1304 1500.52 1304 1500.43V1500.25V1500.19V1500.06C1304 1499.95 1304.03 1499.84 1304.05 1499.74C1304.09 1499.5 1304.18 1499.28 1304.28 1499.07L1304.32 1498.97L1304.35 1498.93V1498.91C1304.41 1498.83 1304.47 1498.75 1304.52 1498.66L1304.54 1498.64ZM1474.39 1620.14C1437.23 1610.14 1406.97 1600.34 1389.63 1589.75C1350.93 1566.14 1325.28 1533.6 1312.91 1515.36C1319.9 1540.6 1338.49 1589.51 1380.71 1607.74C1422.58 1625.82 1457.8 1623.11 1474.39 1620.13V1620.14ZM1392.42 1585.18C1409.16 1595.4 1438.69 1604.98 1475.09 1614.78C1471.7 1611.94 1467.1 1608.18 1460.93 1603.3C1455.33 1598.88 1450.21 1594.12 1444.79 1589.09C1432.47 1577.65 1418.58 1564.76 1395.46 1552.38C1369.7 1538.59 1331.32 1517.16 1314.19 1507.55C1324.6 1523.79 1350.77 1559.74 1392.43 1585.17L1392.42 1585.18Z" fill="#2B2424"/>
<path fill-rule="evenodd" clip-rule="evenodd" d="M1240.59 1423.59C1240.28 1425.04 1238.86 1425.97 1237.41 1425.66C1235.97 1425.35 1235.04 1423.93 1235.35 1422.48C1235.46 1421.96 1273.28 1244.52 1312.11 1080.68C1323.69 1031.81 1332.91 991.31 1340.15 958.515C1329.94 989.672 1317.62 1018.69 1304.3 1032C1283.48 1052.83 1209.62 1103.17 1130.94 1143.99C1076.28 1172.36 1019.21 1196.17 975.773 1202.43C922.706 1210.09 882.014 1212.69 846.099 1196.42C810.202 1180.16 779.464 1145.18 746.461 1077.73C710.901 1005.07 675.632 925.71 650.227 856.689C628.762 798.368 614.285 747.301 612.537 713.641C610.39 672.337 612.174 638.941 613.966 605.39C615.349 579.529 616.732 553.576 616.323 523.957C615.895 493.482 619.981 458.157 626.223 423.559C630.327 400.846 635.368 378.434 640.682 357.896C641.055 354.565 648.598 289.411 667.707 244.668C686.952 199.597 763.031 152.451 767.244 149.857C768.472 148.702 769.055 148.292 769.055 148.292C770.247 147.419 771.93 147.674 772.804 148.866C773.313 149.566 773.441 150.422 773.213 151.195C772.667 153.479 763.45 191.971 753.304 227.032C744.423 257.726 708.408 291.104 683.703 313.999C678.753 318.585 674.258 322.753 670.609 326.311C649.017 347.367 645.923 358.979 645.914 359.015L645.868 359.161C640.582 379.58 635.559 401.893 631.482 424.506C625.286 458.803 621.245 493.782 621.664 523.893C622.083 553.777 620.69 579.766 619.307 605.663C617.524 639.078 615.74 672.337 617.879 713.368C619.599 746.436 633.948 796.976 655.259 854.841C680.637 923.772 715.815 1002.94 751.266 1075.37C783.659 1141.57 813.587 1175.8 848.301 1191.52C882.987 1207.24 922.879 1204.64 975.018 1197.12C1017.78 1190.96 1074.28 1167.34 1128.49 1139.23C1206.68 1098.66 1279.93 1048.78 1300.51 1028.2C1334.36 994.349 1362.15 852.512 1363.25 846.843L1363.28 846.697C1363.53 845.232 1364.92 844.258 1366.38 844.513C1367.83 844.768 1368.82 846.16 1368.56 847.616C1368.53 847.826 1356.22 917.866 1317.34 1081.91C1278.44 1246.04 1240.71 1423.07 1240.6 1423.58L1240.59 1423.59ZM652.957 315.145C653.748 312.67 654.531 310.249 655.313 307.911C667.142 272.431 685.696 251.556 704.331 230.609C714.368 219.316 724.432 208.005 733.34 194.483C742.093 181.188 749.009 171.606 754.332 164.745C730.364 181.233 686.315 214.748 672.638 246.761C663.63 267.863 657.224 293.642 652.957 315.136V315.145ZM660.391 309.594C657.342 318.74 654.185 328.995 651.055 340.069C654.84 335.128 659.972 329.222 666.888 322.48C670.664 318.794 675.141 314.645 680.063 310.077C704.331 287.582 739.7 254.796 748.172 225.549C755.506 200.206 762.367 173.016 765.779 159.139C760.447 165.227 751.511 176.629 737.808 197.431C728.626 211.372 718.472 222.792 708.335 234.185C690.054 254.741 671.847 275.215 660.391 309.594Z" fill="#2B2424"/>
<path fill-rule="evenodd" clip-rule="evenodd" d="M623.702 479.431C623.829 480.905 622.738 482.215 621.254 482.334C619.78 482.461 618.47 481.369 618.352 479.886C618.343 479.749 615.313 444.688 602.637 411.21C599.662 408.253 578.861 387.869 554.575 373.128C552.072 371.608 549.616 369.743 547.232 367.568C536.54 357.795 527.395 341.661 523.91 323.143C520.416 304.616 522.545 283.65 534.365 264.186C537.259 259.417 540.744 254.74 544.857 250.208C545.43 249.49 546.349 249.089 547.323 249.226C548.333 249.362 549.133 250.054 549.47 250.946C550.07 252.456 563.055 284.596 581.518 316.9C591.099 333.671 596.686 345.192 600.362 358.441C604.011 371.563 605.722 386.186 607.551 409.126C620.599 443.496 623.693 479.285 623.702 479.431ZM597.514 399.016C593.629 390.672 589.061 382.728 583.692 375.794C568.861 356.648 559.033 340.587 552.791 326.419C546.485 312.114 543.819 299.702 543.328 288C542.827 275.906 543.119 266.452 543.51 260.2C541.836 262.42 540.316 264.677 538.942 266.943C527.895 285.142 525.912 304.78 529.178 322.142C532.445 339.504 540.935 354.555 550.844 363.609C552.964 365.548 555.148 367.204 557.341 368.541C573.711 378.478 588.47 390.845 597.514 399.007V399.016ZM587.933 372.527C592.837 378.851 597.096 385.986 600.781 393.484C599.398 379.57 597.796 369.26 595.194 359.869C591.663 347.184 586.222 335.974 576.85 319.576C564.22 297.463 554.101 275.36 548.724 262.975C548.424 268.981 548.251 277.371 548.687 287.799C549.151 298.847 551.69 310.613 557.705 324.262C563.783 338.057 573.392 353.754 587.933 372.518V372.527Z" fill="#2B2424"/>
<path fill-rule="evenodd" clip-rule="evenodd" d="M644.02 537.269C657.315 537.114 699.717 537.715 744.795 549.772C784.823 560.482 814.005 575.188 826.68 582.249C823.222 574.96 816.78 563.804 807.189 556.651C798.845 550.427 766.87 538.397 735.45 529.052C708.762 521.108 682.656 515.148 672.146 516.412C655.786 518.378 647.314 530.917 644.03 537.278L644.02 537.269ZM743.403 554.959C691.146 540.973 642.646 542.62 640.044 542.711C639.671 542.738 639.289 542.692 638.916 542.556C637.524 542.055 636.805 540.518 637.314 539.125C637.342 539.053 646.159 514.11 671.509 511.071C682.802 509.715 709.699 515.784 736.979 523.901C768.899 533.402 801.593 545.777 810.392 552.347C826.171 564.122 834.023 585.598 834.724 587.591C835.051 588.373 834.997 589.292 834.515 590.057C833.723 591.312 832.058 591.676 830.811 590.885C830.711 590.821 797.025 569.3 743.403 554.95V554.959Z" fill="#2B2424"/>
<path fill-rule="evenodd" clip-rule="evenodd" d="M817.892 633.79C819.247 633.19 820.831 633.808 821.431 635.164C822.032 636.52 821.413 638.103 820.057 638.704C819.994 638.731 797.455 648.595 774.406 662.709C762.167 670.207 749.701 671.709 735.834 669.043C727.645 667.459 718.991 664.42 709.601 660.289C707.444 660.398 698.063 661.208 674.85 667.059C646.433 674.22 624.195 658.905 624.131 658.86C623.903 658.705 623.703 658.514 623.521 658.296C622.602 657.14 622.802 655.457 623.958 654.538C624.049 654.465 657.052 627.866 692.722 646.193C699.164 649.505 705.242 652.49 711.02 655.056C711.138 655.102 711.257 655.156 711.375 655.211C720.565 659.269 728.973 662.254 736.844 663.774C749.401 666.194 760.639 664.857 771.613 658.141C795.007 643.818 817.828 633.827 817.901 633.799L817.892 633.79ZM700.419 656.03C697.126 654.437 693.741 652.736 690.265 650.952C664.013 637.457 639.218 650.725 630.537 656.412C637.389 660.025 653.804 666.822 673.54 661.845C686.006 658.705 694.669 656.976 700.419 656.03Z" fill="#2B2424"/>
<path fill-rule="evenodd" clip-rule="evenodd" d="M767.253 660.553C768.454 659.679 770.129 659.952 771.002 661.154C771.876 662.355 771.603 664.029 770.402 664.903C770.338 664.948 747.717 681.118 743.031 692.93C742.294 694.786 742.148 695.168 742.039 695.46V695.469C737.171 708.108 732.048 721.412 704.914 723.059C677.47 724.724 669.918 723.996 669.9 723.996C668.426 723.851 667.352 722.54 667.498 721.066C667.552 720.538 667.752 720.065 668.062 719.674C668.107 719.61 683.904 699.372 707.762 696.388C725.97 694.113 735.57 690.955 738.527 689.854C744.614 676.732 767.199 660.608 767.262 660.562L767.253 660.553ZM704.596 717.699C726.288 716.38 731.884 706.498 735.943 696.333C730.738 697.871 721.757 700.046 708.39 701.711C693.303 703.595 681.72 713.159 676.069 718.8C681.047 718.8 689.864 718.591 704.596 717.699Z" fill="#2B2424"/>
<path fill-rule="evenodd" clip-rule="evenodd" d="M797.072 644.083C798.546 643.946 799.848 645.038 799.975 646.503C800.111 647.977 799.019 649.279 797.554 649.406C797.491 649.406 779.729 651.117 763.769 647.058C761.257 647.286 748.555 648.25 726.17 646.976C701.193 645.548 688.417 628.422 687.244 626.775C687.198 626.72 687.153 626.657 687.116 626.593C686.297 625.355 686.625 623.69 687.862 622.871C687.871 622.871 691.52 620.096 706.762 619.349C714.441 618.976 722.048 620.96 729.865 624.336C737.517 627.648 745.297 632.253 753.541 637.276C756.726 639.214 760.42 640.643 764.297 641.698C764.515 641.726 764.724 641.789 764.924 641.862C779.847 645.739 797.009 644.092 797.072 644.083ZM751.412 642.244C751.194 642.117 750.966 641.99 750.748 641.853C742.64 636.921 735.015 632.399 727.745 629.25C720.638 626.174 713.786 624.373 707.007 624.7C700.128 625.037 696.088 625.701 693.759 626.283C698.099 631.079 708.873 640.625 726.462 641.626C737.017 642.226 745.343 642.326 751.412 642.244Z" fill="#2B2424"/>
<path fill-rule="evenodd" clip-rule="evenodd" d="M807.5 733.788C808.074 732.423 809.648 731.786 811.004 732.359C812.369 732.932 813.006 734.507 812.432 735.862C812.359 736.035 786.472 797.14 791.713 818.788C792.186 820.736 792.75 822.619 793.397 824.439C804.616 824.831 814.562 828.416 820.913 832.857C823.743 834.831 825.927 837.015 827.264 839.208C828.829 841.765 829.311 844.386 828.52 846.861C827.91 848.754 826.573 850.428 824.425 851.784C823.133 852.603 821.759 853.176 820.33 853.522C815.835 854.614 810.885 853.422 806.154 850.428C801.695 847.607 797.364 843.139 793.797 837.47C790.676 832.511 788.101 826.605 786.517 820.053C780.858 796.676 807.428 733.961 807.51 733.788H807.5ZM795.717 829.935C796.527 831.583 797.391 833.148 798.319 834.622C801.458 839.609 805.198 843.494 809.002 845.896C812.532 848.126 816.054 849.054 819.066 848.317C819.93 848.108 820.776 847.753 821.568 847.252C822.587 846.606 823.188 845.924 823.415 845.223C823.706 844.331 823.433 843.212 822.687 842.002C821.723 840.427 820.067 838.79 817.846 837.243C812.687 833.639 804.78 830.673 795.708 829.935H795.717Z" fill="#2B2424"/>
<path fill-rule="evenodd" clip-rule="evenodd" d="M952.888 776.81C951.823 775.782 951.787 774.09 952.815 773.025C953.843 771.96 955.536 771.924 956.6 772.952C956.682 773.034 985.836 800.697 976.682 825.112C976.3 826.122 975.927 827.059 975.572 827.896C971.068 838.397 964.826 844.904 957.592 848.043C950.303 851.21 942.15 850.919 933.888 847.825H933.879C933.215 847.579 932.551 847.306 931.896 847.024C930.804 846.56 929.084 845.805 927.282 845.022L924.834 843.957C922.214 843.93 909.384 843.894 886.936 845.577C876.235 846.378 868.828 845.341 864.643 843.302C862.504 842.256 861.057 840.9 860.293 839.298C859.429 837.497 859.465 835.567 860.393 833.62C861.521 831.236 864.124 828.797 868.137 826.577C881.431 819.215 911.377 832.255 929.411 840.117C930.886 840.754 932.25 841.355 933.979 842.092C934.58 842.347 935.171 842.583 935.754 842.811C942.733 845.432 949.512 845.714 955.445 843.138C961.441 840.527 966.71 834.94 970.631 825.803C971.004 824.921 971.35 824.074 971.66 823.255C979.567 802.171 952.951 776.901 952.879 776.829L952.888 776.81ZM912.569 838.78C896.872 832.464 878.938 826.704 870.73 831.245C867.745 832.901 865.916 834.503 865.252 835.895C865.043 836.341 864.997 836.705 865.134 836.978C865.361 837.46 865.989 837.961 867.008 838.461C870.411 840.126 876.872 840.936 886.545 840.208C897.464 839.389 906.181 838.98 912.569 838.78Z" fill="#2B2424"/>
<path fill-rule="evenodd" clip-rule="evenodd" d="M766.253 969.697C768.182 970.662 796.881 984.339 867.155 980.262C903.334 978.16 936.819 980.18 965.1 981.882C994.172 983.629 1017.69 985.049 1032.52 981.281C1033.95 980.917 1035.42 981.791 1035.78 983.22C1036 984.075 1035.78 984.939 1035.26 985.576C1033.14 988.388 972.352 1068.07 883.297 1063.81C862.824 1062.82 844.844 1059.62 829.411 1054.8C806.171 1047.54 788.655 1036.59 777.081 1024.04C765.316 1011.28 759.656 996.833 760.329 982.837C760.52 978.906 761.203 975.021 762.386 971.235C762.822 969.825 764.333 969.033 765.743 969.47C765.925 969.524 766.098 969.597 766.262 969.688L766.253 969.697ZM867.455 985.613C806.581 989.143 775.834 979.379 766.708 975.739C766.134 978.169 765.789 980.626 765.67 983.101C765.07 995.668 770.247 1008.75 781.021 1020.43C791.986 1032.31 808.71 1042.72 831.003 1049.69C846.036 1054.39 863.57 1057.52 883.543 1058.47C957.129 1062 1010.97 1006.1 1026.47 987.906C1011.13 990.035 990.023 988.761 964.791 987.242C936.647 985.549 903.325 983.538 867.455 985.622V985.613Z" fill="#2B2424"/>
<path fill-rule="evenodd" clip-rule="evenodd" d="M767.535 972.691C767.18 974.129 765.715 975.003 764.278 974.648C762.84 974.293 761.966 972.828 762.321 971.39C762.33 971.345 766.38 953.937 801.512 933.926C828.127 918.766 847.718 926.11 861.759 931.379C866.144 933.026 869.948 934.454 873.005 934.773C879.948 935.501 888.274 933.563 896.791 931.57C904.116 929.859 911.586 928.112 918.866 927.893C934.972 927.402 1034.15 981.382 1034.44 981.536C1035.74 982.246 1036.21 983.866 1035.51 985.167C1034.8 986.468 1033.18 986.942 1031.88 986.241C1031.6 986.086 933.707 932.798 919.02 933.244C912.36 933.453 905.117 935.137 898.019 936.802C889.066 938.895 880.321 940.933 872.468 940.105C868.738 939.714 864.625 938.176 859.893 936.402C846.827 931.497 828.61 924.663 804.16 938.586C771.057 957.44 767.535 972.646 767.526 972.691H767.535Z" fill="#2B2424"/>
<path fill-rule="evenodd" clip-rule="evenodd" d="M652.001 1046.68C652.155 1048.16 651.091 1049.48 649.617 1049.63C648.142 1049.78 646.823 1048.72 646.668 1047.25C646.641 1046.96 635.722 948.122 635.24 938.513C635.058 934.937 636.541 931.715 638.961 929.459C640.517 928.003 642.474 926.947 644.63 926.456C646.778 925.965 649.116 926.028 651.464 926.811C655.313 928.103 659.125 931.333 661.91 937.248C669.235 952.854 649.598 990.582 646.514 996.324C649.289 1022.06 651.991 1046.53 652.001 1046.67V1046.68ZM640.599 938.267C640.808 942.38 643.038 963.847 645.467 986.605C651.582 974.057 661.955 949.951 657.06 939.532C654.985 935.119 652.346 932.771 649.762 931.907C648.406 931.452 647.06 931.415 645.822 931.697C644.603 931.979 643.484 932.571 642.61 933.399C641.3 934.618 640.499 936.356 640.59 938.276L640.599 938.267Z" fill="#2B2424"/>
<path fill-rule="evenodd" clip-rule="evenodd" d="M656.469 936.693C655.004 936.475 653.985 935.119 654.203 933.645C654.413 932.18 655.778 931.161 657.242 931.379C657.352 931.397 694.422 936.22 706.661 993.994C713.212 1024.93 724.55 1070.14 737.225 1113.31C747.408 1148.01 758.463 1181.39 768.573 1204.94C769.155 1206.3 768.527 1207.87 767.162 1208.47C765.797 1209.05 764.223 1208.42 763.632 1207.06C753.44 1183.33 742.321 1149.74 732.075 1114.82C719.363 1071.5 707.989 1026.14 701.411 995.114C689.955 941.034 656.56 936.712 656.469 936.693Z" fill="#2B2424"/>
<path fill-rule="evenodd" clip-rule="evenodd" d="M755.034 1094.63C754.451 1093.26 755.079 1091.69 756.444 1091.1C757.809 1090.52 759.383 1091.14 759.975 1092.51C760.075 1092.75 795.826 1176.81 860.231 1228.98C861.377 1229.91 861.55 1231.6 860.622 1232.74C859.694 1233.89 858.002 1234.06 856.855 1233.14C791.395 1180.12 755.152 1094.87 755.043 1094.63H755.034Z" fill="#2B2424"/>
<path fill-rule="evenodd" clip-rule="evenodd" d="M982.997 644.774C981.687 645.466 980.067 644.956 979.376 643.655C978.684 642.344 979.194 640.725 980.495 640.033C980.549 640.006 999.904 629.323 1029.68 649.178C1045.49 659.725 1069.2 669.971 1092.6 672.383C1110.25 674.203 1127.69 671.554 1141.25 661.126C1142.21 660.398 1143.14 659.67 1144.05 658.96L1144.16 658.879C1148.58 655.457 1152.57 652.281 1156.21 649.388C1177.86 632.189 1187.08 624.864 1206.19 626.939C1228.55 629.368 1243.69 638.158 1243.74 638.186C1245.02 638.923 1245.46 640.561 1244.72 641.835C1244.37 642.435 1243.84 642.845 1243.23 643.045C1243.16 643.072 1220.69 650.334 1197.2 662.782C1175.78 674.139 1152.28 666.45 1146.18 664.093L1144.5 665.385C1129.71 676.741 1110.94 679.662 1092.04 677.706C1067.7 675.194 1043.08 664.566 1026.69 653.637C999.603 635.574 983.034 644.747 982.988 644.765L982.997 644.774ZM1159.56 653.583C1156.98 655.63 1154.21 657.832 1151.2 660.198C1159.38 662.846 1177.8 667.005 1194.71 658.041C1211.12 649.351 1227.05 643.136 1235.45 640.088C1229.42 637.467 1218.91 633.718 1205.63 632.271C1188.7 630.433 1180 637.339 1159.55 653.583H1159.56Z" fill="#2B2424"/>
<path fill-rule="evenodd" clip-rule="evenodd" d="M1085.38 645.565C1092.64 645.419 1103.25 644.2 1115.41 639.65C1132.22 633.371 1143.71 619.503 1148.51 612.797C1142.4 612.506 1132.04 612.314 1128.8 614.153C1127.6 614.826 1125.58 616.637 1122.81 619.103C1115.69 625.454 1103.88 635.992 1085.38 645.556V645.565ZM1117.29 644.673C1096.06 652.608 1078.99 650.934 1075.13 650.406C1059.12 657.003 1045.51 656.894 1036.22 655.32C1047.97 664.611 1068.14 679.307 1086.89 686.796C1086.98 686.823 1087.05 686.85 1087.13 686.887C1100.12 692.037 1109.54 692.383 1118.4 692.702C1129.32 693.093 1139.47 693.457 1154.17 701.938C1181.76 717.844 1181.82 725.888 1181.82 725.916C1181.9 727.39 1180.76 728.655 1179.29 728.737C1179.18 728.737 1179.06 728.737 1178.95 728.737C1177.92 728.691 1163.47 728.045 1139.13 728.5C1120.07 728.855 1107.05 714.705 1096.26 702.966C1092.08 698.416 1088.24 694.258 1084.7 691.682C1056.02 680.144 1024.5 652.672 1022.68 651.07C1021.71 650.288 1021.38 648.905 1021.98 647.749C1022.66 646.429 1024.27 645.92 1025.59 646.593C1025.66 646.62 1046.55 657.668 1075.91 644.236C1097.92 634.172 1111.47 622.078 1119.25 615.126C1122.26 612.433 1124.47 610.476 1126.18 609.503C1132.39 605.999 1153.46 607.728 1153.52 607.737C1153.93 607.774 1154.33 607.892 1154.7 608.11C1155.98 608.866 1156.39 610.513 1155.63 611.787C1155.59 611.85 1141.65 635.573 1117.3 644.673H1117.29ZM1118.21 698.052C1111.72 697.816 1104.94 697.57 1096.72 695.577C1097.86 696.787 1099.01 698.043 1100.2 699.335C1110.25 710.273 1122.38 723.459 1139.05 723.14C1156.23 722.822 1168.51 723.04 1174.69 723.213C1172.19 720.283 1166.14 715.005 1151.5 706.57C1137.95 698.762 1128.45 698.416 1118.2 698.052H1118.21ZM1178.95 728.727L1176.46 726.198C1176.53 727.563 1177.61 728.627 1178.95 728.727Z" fill="#2B2424"/>
<path fill-rule="evenodd" clip-rule="evenodd" d="M1218.53 534.812C1218.33 534.757 1148.05 516.958 1072.85 533.875C1020.6 545.632 996.237 557.589 983.535 563.822C977.502 566.789 973.917 568.545 970.85 568.545C968.366 568.545 965.409 567.498 962.579 565.678C959.658 563.795 956.783 561.037 954.626 557.707C952.433 554.313 950.986 550.318 950.986 546.032C950.986 542.465 951.987 538.734 954.371 535.03C959.804 526.613 980.595 516.057 1009.65 507.649C1034.22 500.533 1064.87 494.801 1097.24 493.044C1167.89 489.204 1220.64 529.971 1220.79 530.08C1221.96 530.972 1222.2 532.655 1221.3 533.829C1220.64 534.712 1219.53 535.058 1218.52 534.812H1218.53ZM1071.68 528.652C1128.15 515.948 1181.89 522.5 1206.23 526.822C1187.46 515.512 1147.03 495.701 1097.52 498.395C1065.58 500.133 1035.36 505.784 1011.14 512.791C983.298 520.853 963.662 530.526 958.885 537.924C957.101 540.69 956.355 543.429 956.355 546.023C956.355 549.199 957.465 552.211 959.139 554.804C960.859 557.461 963.152 559.663 965.472 561.156C967.456 562.439 969.376 563.167 970.841 563.167C972.715 563.167 975.873 561.62 981.178 559.017C994.081 552.684 1018.83 540.536 1071.67 528.642L1071.68 528.652Z" fill="#2B2424"/>
<path fill-rule="evenodd" clip-rule="evenodd" d="M1390.37 757.119C1394.18 762.006 1408.66 778.731 1428.96 779.304C1442.35 779.687 1455.56 778.631 1465.39 775.255C1473.04 772.625 1478.52 768.612 1480.08 762.807C1480.83 760.049 1481.12 757.674 1481.07 755.672C1480.98 752.87 1480.2 750.777 1479 749.284C1477.84 747.837 1476.24 746.918 1474.47 746.445C1473.31 746.136 1472.1 746.008 1470.91 746.045C1468.28 746.127 1462.51 747.164 1455.23 748.465C1442.14 750.813 1424.23 754.034 1409.52 754.335C1401.68 754.498 1395.31 755.545 1390.38 757.128L1390.37 757.119ZM1428.82 784.655C1404.08 783.954 1387.36 762.124 1385.22 759.203C1380.56 761.56 1378.26 764.344 1378.26 766.81C1378.26 770.678 1377.77 775.173 1374.88 779.186C1372.03 783.135 1366.96 786.402 1357.95 787.712C1353.88 788.304 1350.78 788.923 1348.12 789.46C1339.2 791.252 1334.61 792.171 1322.32 787.822C1321.64 787.576 1320.95 787.321 1320.25 787.048C1312.86 784.145 1307.1 780.26 1303.45 776.247C1299.38 771.761 1297.81 766.965 1299.28 762.807V762.779H1299.29L1299.37 762.57C1299.4 762.497 1299.43 762.433 1299.46 762.361C1301.39 757.847 1308.54 757.456 1316.09 757.055C1323 756.691 1330.35 756.291 1331.03 753.388L1331.05 753.325C1331.9 749.448 1329.01 739.866 1324.29 728.755C1319.19 716.716 1311.95 703.13 1304.9 692.966C1300.74 686.978 1297.38 681.5 1294.19 676.304C1286.66 664.011 1280.08 653.282 1266.51 641.835C1260.65 636.893 1258.13 631.725 1258.4 627.339C1258.56 624.627 1259.74 622.252 1261.83 620.396C1263.74 618.703 1266.4 617.493 1269.69 616.938C1278.84 615.391 1293.69 618.921 1311.52 631.679C1312.72 632.544 1313 634.218 1312.14 635.428C1311.27 636.63 1309.6 636.912 1308.39 636.047C1291.87 624.227 1278.55 620.887 1270.57 622.234C1268.3 622.616 1266.54 623.38 1265.38 624.409C1264.38 625.282 1263.83 626.401 1263.76 627.657C1263.59 630.433 1265.53 633.991 1269.98 637.74C1284.21 649.742 1291 660.817 1298.78 673.511C1301.94 678.67 1305.28 684.103 1309.32 689.927C1316.56 700.364 1323.99 714.323 1329.24 726.681C1334.34 738.701 1337.39 749.439 1336.31 754.471L1336.28 754.626C1334.67 761.432 1325.24 761.933 1316.38 762.406C1310.55 762.715 1305.04 763.007 1304.42 764.435L1304.36 764.608C1303.6 766.792 1304.75 769.659 1307.44 772.625C1310.57 776.074 1315.64 779.45 1322.23 782.043C1322.83 782.28 1323.47 782.517 1324.13 782.753C1335.05 786.62 1339.14 785.801 1347.09 784.2C1349.94 783.627 1353.24 782.962 1357.22 782.389C1364.55 781.324 1368.49 778.913 1370.56 776.047C1372.58 773.253 1372.91 769.804 1372.91 766.801C1372.91 762.051 1376.72 757.11 1384.4 753.67C1390.28 751.031 1398.63 749.184 1409.44 748.957C1423.73 748.656 1441.39 745.49 1454.31 743.169C1461.81 741.822 1467.75 740.758 1470.78 740.667C1472.5 740.612 1474.23 740.794 1475.88 741.24C1478.68 741.995 1481.28 743.506 1483.21 745.908C1485.1 748.256 1486.33 751.423 1486.45 755.508C1486.53 758.038 1486.18 760.923 1485.31 764.181C1483.21 771.961 1476.47 777.129 1467.17 780.323C1456.71 783.918 1442.83 785.046 1428.85 784.646L1428.82 784.655ZM1331.04 753.334L1334.25 751.405C1332.83 751.068 1331.4 751.932 1331.04 753.334Z" fill="#2B2424"/>
<path fill-rule="evenodd" clip-rule="evenodd" d="M1317.49 654.5L1317.41 654.328C1312.5 648.649 1308.65 642.243 1307.29 634.326C1305.84 626 1305.73 617.819 1306.59 609.975C1299.51 600.93 1294.36 589.155 1291.09 576.543C1287.41 562.357 1286.1 547.078 1287.11 533.438L1287.19 532.455C1287.91 522.764 1288.39 516.239 1290.01 512.044C1293.18 503.827 1298.96 504.182 1313.5 509.796C1314.49 510.179 1315.43 510.615 1316.33 511.107C1325.35 516.002 1329.64 525.839 1330.75 536.732C1331.81 547.224 1329.91 558.789 1326.49 567.634C1325.7 569.664 1324.83 571.565 1323.89 573.294C1319.13 582.076 1315.04 592.413 1312.94 603.651C1311.17 613.069 1310.79 623.125 1312.58 633.416C1314.77 646.01 1324.79 654.801 1334.48 663.291C1341.87 669.77 1349.09 676.103 1353.08 684.093C1356.34 690.599 1358.57 700.09 1359.95 709.736C1361.21 718.59 1361.77 727.662 1361.76 734.66C1361.74 742.522 1360.63 748.264 1358.65 749.247C1358.34 749.402 1358.03 749.511 1357.72 749.547H1357.71C1354.86 749.957 1346.27 739.392 1339.43 725.196C1334.87 715.733 1330.71 704.585 1329.1 694.212C1325.37 670.216 1317.52 654.519 1317.5 654.473L1317.49 654.5ZM1327.02 663.864C1329.54 671.062 1332.48 681.226 1334.38 693.411C1335.9 703.184 1339.87 713.803 1344.25 722.876C1349.37 733.495 1354.4 741.922 1356.31 743.833C1356.37 742.504 1356.4 739.164 1356.41 734.66C1356.41 727.926 1355.87 719.136 1354.63 710.491C1353.32 701.319 1351.26 692.401 1348.3 686.486C1344.78 679.443 1337.94 673.455 1330.95 667.322C1329.64 666.175 1328.33 665.029 1327.02 663.864ZM1307.72 602.359C1309.96 590.657 1314.22 579.883 1319.19 570.737C1320.01 569.227 1320.78 567.534 1321.49 565.705C1324.64 557.552 1326.4 546.914 1325.41 537.259C1324.48 528.005 1321 519.733 1313.78 515.811C1313.08 515.438 1312.35 515.092 1311.58 514.801C1300.73 510.606 1296.58 509.933 1295.01 513.982C1293.69 517.395 1293.23 523.61 1292.55 532.837L1292.47 533.82C1291.5 546.932 1292.76 561.601 1296.28 575.205C1298.87 585.206 1302.68 594.615 1307.73 602.359H1307.72Z" fill="#2B2424"/>
<path fill-rule="evenodd" clip-rule="evenodd" d="M1330.97 539.534C1331.49 542.71 1336.07 569.591 1345.59 584.305C1353.49 596.517 1349.16 610.103 1345.11 622.797C1343.44 628.047 1341.82 633.134 1341.27 637.739C1339.41 653.09 1341.32 670.288 1341.32 670.334C1341.48 671.808 1340.41 673.127 1338.94 673.282C1337.51 673.428 1336.22 672.436 1336.01 671.034C1335.52 668.75 1329.79 641.133 1330.71 611.277C1331.65 580.738 1325.63 540.135 1325.62 540.016C1325.41 538.551 1326.42 537.186 1327.89 536.986C1329.35 536.777 1330.72 537.796 1330.92 539.261L1330.96 539.534H1330.97ZM1341.1 587.217C1338.73 583.54 1336.64 579.191 1334.84 574.641C1335.79 586.489 1336.43 599.665 1336.07 611.422C1335.83 619.139 1336.05 626.691 1336.51 633.68C1337.33 629.667 1338.65 625.472 1340.03 621.168C1343.7 609.639 1347.64 597.299 1341.1 587.208V587.217Z" fill="#2B2424"/>
<path fill-rule="evenodd" clip-rule="evenodd" d="M1393.97 766.902C1394.36 765.473 1395.83 764.627 1397.26 765.009C1398.69 765.4 1399.54 766.875 1399.15 768.303C1399.14 768.376 1392.22 793.145 1408.37 817.706C1410.62 821.127 1413.24 823.985 1416.12 826.314C1423.16 832.001 1431.77 834.549 1440.3 834.577C1448.9 834.604 1457.42 832.074 1464.21 827.615C1467.21 825.641 1469.88 823.275 1472.06 820.581C1486.27 802.982 1480.84 760.204 1480.82 760.077C1480.64 758.612 1481.68 757.274 1483.14 757.083C1484.61 756.901 1485.94 757.939 1486.13 759.404C1486.15 759.531 1491.88 804.575 1476.23 823.939C1473.71 827.06 1470.63 829.799 1467.14 832.083C1459.5 837.106 1449.94 839.955 1440.3 839.927C1430.6 839.9 1420.8 836.988 1412.77 830.491C1409.47 827.834 1406.47 824.558 1403.9 820.645C1386.4 794.028 1393.94 766.975 1393.96 766.893L1393.97 766.902Z" fill="#2B2424"/>
<path fill-rule="evenodd" clip-rule="evenodd" d="M1463.73 777.722C1463.74 776.247 1464.95 775.055 1466.43 775.065C1467.9 775.074 1469.09 776.284 1469.08 777.758C1469.08 777.876 1469.11 818.98 1440.81 839.409C1439.61 840.273 1437.94 840 1437.07 838.799C1436.21 837.598 1436.48 835.924 1437.68 835.059C1463.75 816.241 1463.73 777.822 1463.73 777.713V777.722Z" fill="#2B2424"/>
<path fill-rule="evenodd" clip-rule="evenodd" d="M1349.83 785.219C1350.2 783.79 1351.67 782.935 1353.1 783.308C1354.53 783.681 1355.39 785.155 1355.01 786.584C1355 786.63 1351.02 801.426 1356.63 804.228C1358.23 805.029 1360.01 805.703 1361.88 806.412C1368.48 808.924 1376.21 811.854 1386.82 823.793C1393.34 831.127 1398.24 835.923 1401.82 838.562C1404.38 840.455 1405.72 841.128 1406.1 840.818C1408.2 839.071 1410.63 826.905 1410.63 826.878C1410.92 825.422 1412.33 824.475 1413.79 824.767C1415.24 825.058 1416.19 826.468 1415.9 827.924C1415.9 827.961 1413.1 841.947 1409.52 844.932C1407.05 846.988 1403.53 846.479 1398.63 842.866C1394.74 840 1389.56 834.949 1382.81 827.36C1373.07 816.395 1366.01 813.71 1359.99 811.426C1358.03 810.68 1356.17 809.97 1354.24 809.015C1344.69 804.238 1349.82 785.274 1349.84 785.219H1349.83Z" fill="#2B2424"/>
<path fill-rule="evenodd" clip-rule="evenodd" d="M1404.21 811.718C1405.57 812.31 1406.19 813.893 1405.6 815.249C1405.01 816.605 1403.42 817.223 1402.07 816.632C1402.03 816.614 1388.3 810.544 1357.55 810.28C1356.08 810.271 1354.89 809.061 1354.9 807.587C1354.91 806.113 1356.12 804.921 1357.59 804.93C1389.45 805.203 1404.16 811.7 1404.2 811.718H1404.21Z" fill="#2B2424"/>
<path fill-rule="evenodd" clip-rule="evenodd" d="M1320.55 785.682C1320.34 784.217 1321.36 782.852 1322.82 782.643C1324.29 782.424 1325.65 783.444 1325.87 784.909C1325.88 785 1330.75 817.722 1335.41 824.82C1337.36 827.796 1342.23 830.034 1347.76 832.564C1354.48 835.64 1362.08 839.125 1367.87 845.331C1372.5 850.299 1379.05 855.695 1385.68 860.5C1393.48 866.142 1401.32 870.901 1406.29 873.14C1409.57 874.623 1413.34 871.702 1417.08 868.799C1422.06 864.932 1427.01 861.101 1433.09 863.903C1438.07 866.206 1442.2 871.411 1445.93 876.106C1449.26 880.292 1452.19 883.987 1453.62 883.641C1454.35 883.468 1455.27 882.867 1456.25 881.966C1458 880.365 1459.7 877.944 1460.81 875.223C1461.88 872.594 1462.37 869.727 1461.75 867.143C1461.41 865.742 1460.73 864.395 1459.62 863.185C1455.98 859.226 1453.3 857.179 1451.38 855.714C1448.65 853.63 1447.14 852.483 1446.42 849.417C1445.38 845.003 1446.13 836.286 1446.13 836.258C1446.27 834.784 1447.57 833.701 1449.04 833.838C1450.51 833.974 1451.59 835.276 1451.46 836.741C1451.46 836.759 1450.78 844.548 1451.64 848.197C1451.92 849.389 1452.88 850.117 1454.62 851.446C1456.7 853.029 1459.61 855.24 1463.56 859.545C1465.32 861.465 1466.41 863.63 1466.95 865.896C1467.86 869.682 1467.23 873.677 1465.79 877.235C1464.39 880.702 1462.18 883.814 1459.89 885.907C1458.26 887.399 1456.52 888.445 1454.87 888.837C1450.11 889.983 1446.19 885.042 1441.74 879.437C1438.39 875.214 1434.67 870.528 1430.85 868.763C1427.73 867.325 1424.05 870.164 1420.36 873.03C1415.35 876.907 1410.31 880.82 1404.09 878.017C1398.82 875.642 1390.6 870.674 1382.53 864.832C1375.66 859.863 1368.84 854.23 1363.94 848.971C1358.87 843.538 1351.78 840.29 1345.53 837.423C1339.24 834.539 1333.69 832 1330.9 827.741C1325.6 819.679 1320.55 785.764 1320.55 785.664L1320.55 785.682Z" fill="#2B2424"/>
<path fill-rule="evenodd" clip-rule="evenodd" d="M1649.18 902.242C1645.46 898.448 1627.88 881.176 1602.18 866.034C1587.13 857.171 1576.79 850.61 1568.15 845.123C1559.59 839.691 1552.67 835.295 1544.9 831.009C1543.75 830.382 1542.8 829.845 1541.9 829.335L1541.76 829.253C1536.48 826.305 1531.31 823.429 1526.76 821.91C1519.87 819.617 1514.08 820.645 1510.81 830.445C1507.8 839.481 1508.87 845.96 1512.19 850.92C1515.64 856.07 1521.59 859.874 1528 863.25C1533.1 865.934 1538.37 866.871 1543.83 867.836C1552.47 869.374 1561.53 870.985 1571.79 879.156C1579.74 885.49 1585.07 889.148 1588.31 890.349C1589.29 890.713 1589.7 890.422 1589.7 889.548C1589.7 886.845 1587.15 882.705 1583.46 878.619C1579.49 874.215 1574.29 870.056 1569.47 867.818C1566.96 866.653 1565.43 865.297 1564.84 864.069C1563.83 861.885 1564.52 860.174 1566.82 859.21C1567.85 858.782 1569.37 858.618 1571.3 858.836C1576.87 859.455 1587.82 863.395 1602.5 874.124L1602.63 874.233C1618.64 885.908 1635.46 896.564 1645.19 900.777C1646.76 901.46 1648.09 901.951 1649.17 902.242H1649.18ZM1604.88 861.421C1633.21 878.101 1651.93 897.365 1653.68 899.194C1653.91 899.403 1654.11 899.658 1654.25 899.949C1655.13 901.66 1655.46 903.098 1655.33 904.271C1655.01 907.056 1653.12 908.157 1649.95 907.829C1648.21 907.647 1645.86 906.901 1643.07 905.682C1633 901.314 1615.76 890.431 1599.49 878.556L1599.32 878.446C1589.63 871.367 1581.86 867.454 1576.39 865.57C1580.37 868.145 1584.27 871.531 1587.44 875.034C1591.94 880.03 1595.06 885.471 1595.06 889.557C1595.06 895.554 1592.52 897.638 1586.45 895.39C1582.63 893.98 1576.83 890.058 1568.43 883.36C1559.25 876.035 1550.87 874.543 1542.89 873.132C1537.02 872.086 1531.34 871.076 1525.48 868C1518.4 864.278 1511.79 860.01 1507.71 853.904C1503.51 847.616 1502.09 839.627 1505.71 828.762C1510.31 814.957 1518.57 813.547 1528.41 816.832C1533.49 818.525 1538.86 821.518 1544.34 824.576L1544.49 824.649C1545.56 825.249 1546.6 825.832 1547.45 826.296C1555.43 830.7 1562.39 835.122 1570.99 840.582C1579.79 846.16 1590.29 852.84 1604.85 861.412L1604.88 861.421Z" fill="#2B2424"/>
<path fill-rule="evenodd" clip-rule="evenodd" d="M1520 858.525C1521.32 859.208 1521.83 860.819 1521.16 862.138C1520.48 863.457 1518.86 863.967 1517.55 863.294C1517.52 863.276 1506.79 857.716 1490.99 859.299C1474.64 860.937 1462.23 863.976 1462.19 863.985C1460.75 864.322 1459.31 863.421 1458.97 861.983C1458.64 860.536 1459.54 859.099 1460.97 858.762C1461.01 858.762 1473.64 855.65 1490.47 853.976C1507.85 852.238 1519.97 858.525 1519.99 858.544L1520 858.525Z" fill="#2B2424"/>
<path fill-rule="evenodd" clip-rule="evenodd" d="M1519.08 815.74C1520.52 816.095 1521.39 817.56 1521.04 818.989C1520.69 820.426 1519.22 821.3 1517.79 820.945C1517.75 820.936 1502.4 817.041 1492.63 821.819C1481.63 827.197 1470.15 829.553 1470.12 829.563C1468.66 829.854 1467.25 828.907 1466.96 827.451C1466.67 825.995 1467.62 824.585 1469.07 824.294C1469.1 824.294 1479.97 822.064 1490.28 817.014C1501.84 811.363 1519.05 815.731 1519.09 815.74H1519.08Z" fill="#2B2424"/>
<path fill-rule="evenodd" clip-rule="evenodd" d="M1357.6 727.59C1356.28 726.926 1355.74 725.324 1356.4 724.005C1357.05 722.685 1358.66 722.148 1359.98 722.803C1359.98 722.803 1362.37 724.168 1386.13 727.663C1399 729.556 1406.32 734.524 1412.69 738.846C1418.22 742.595 1422.94 745.799 1430.16 745.416C1437.97 745.007 1463.65 729.419 1494.27 707.689C1524.66 686.122 1559.64 658.596 1586.78 633.79C1604.92 617.219 1620.86 606.709 1635.15 597.282C1664 578.263 1686.04 563.74 1705.51 511.599C1719.39 474.453 1726.34 444.797 1727.79 422.33C1729.35 398.225 1724.61 382.683 1715.36 375.285C1710.08 371.062 1702.99 368.087 1695.48 366.822C1689.07 365.739 1682.38 365.912 1676.3 367.623C1670.33 369.306 1664.95 372.482 1661.01 377.414C1657.98 381.199 1655.76 386.059 1654.74 392.119C1654.16 395.568 1653.67 398.762 1653.14 402.165C1647.63 437.854 1638.95 493.982 1591.73 518.696C1569.7 530.226 1551.72 534.594 1536.23 538.352C1516.23 543.202 1500.52 547.024 1485.92 564.495C1484.97 565.633 1483.28 565.778 1482.14 564.832C1481 563.886 1480.86 562.193 1481.8 561.056L1481.89 560.946C1482.01 560.801 1482.21 560.564 1482.5 560.219L1482.6 560.1L1482.65 560.055C1483.91 558.599 1485.16 557.243 1486.43 555.969C1494.78 547.279 1515.67 527.459 1559.05 495.692C1584.87 476.783 1604.79 457.801 1619.32 440.948C1637.9 419.382 1647.56 401.492 1649.37 391.801L1649.46 391.255L1649.49 391.054C1649.82 388.88 1649.8 386.623 1649.51 384.357C1648.66 377.769 1645.45 371.117 1641.38 365.93C1637.44 360.907 1632.81 357.349 1628.9 356.712H1628.89C1628.26 356.612 1627.66 356.594 1627.1 356.666C1617.06 357.977 1607.28 367.086 1607.26 367.113C1606.17 368.123 1604.47 368.059 1603.47 366.976C1602.46 365.894 1602.52 364.192 1603.61 363.191C1603.63 363.164 1614.65 352.89 1626.41 351.361C1627.5 351.216 1628.62 351.252 1629.76 351.434C1635.01 352.29 1640.88 356.612 1645.6 362.645C1649.18 367.204 1652.17 372.8 1653.79 378.633C1654.7 377.004 1655.73 375.494 1656.84 374.102C1661.54 368.223 1667.88 364.456 1674.86 362.49C1681.72 360.552 1689.22 360.352 1696.37 361.562C1704.74 362.973 1712.71 366.339 1718.7 371.144C1729.33 379.652 1734.84 396.714 1733.15 422.703C1731.67 445.653 1724.61 475.828 1710.54 513.51C1690.46 567.28 1667.78 582.231 1638.11 601.795C1623.98 611.113 1608.23 621.496 1590.41 637.776C1563.07 662.763 1527.9 690.436 1497.39 712.093C1466.02 734.351 1439.28 750.348 1430.46 750.803C1421.46 751.277 1416.04 747.6 1409.72 743.305C1403.84 739.32 1397.07 734.724 1385.39 733.004C1360.81 729.392 1357.62 727.626 1357.62 727.626L1357.6 727.59ZM1589.26 513.955C1629.18 493.062 1640.22 447.527 1645.95 413.331C1640.76 422.339 1633.28 432.931 1623.37 444.433C1608.61 461.568 1588.38 480.842 1562.22 499.996C1539.67 516.522 1523.29 529.725 1511.63 539.78C1518.85 537.051 1526.54 535.185 1534.97 533.138C1550.18 529.443 1567.83 525.166 1589.26 513.946V513.955Z" fill="#2B2424"/>
<path fill-rule="evenodd" clip-rule="evenodd" d="M1628.06 438.737C1627.44 440.084 1625.85 440.666 1624.5 440.048C1623.15 439.429 1622.57 437.836 1623.19 436.49C1623.22 436.426 1634.35 413.231 1603.21 366.631C1587.56 343.226 1570.57 327.493 1549.68 321.942C1528.76 316.373 1503.69 320.932 1471.87 338.121C1439.79 355.447 1418.04 369.788 1406.51 388.015C1395.08 406.069 1393.52 428.318 1401.63 461.669C1412.62 506.903 1448.79 548.216 1474.61 577.69C1487.43 592.332 1497.74 604.107 1501.47 612.387C1509.27 629.686 1503.62 636.948 1492.34 642.034C1488.44 643.791 1483.89 645.228 1478.99 646.766C1476.53 647.54 1473.98 648.34 1471.45 649.205C1460.87 652.808 1461.08 658.696 1461.41 668.842C1461.68 676.713 1462.01 686.814 1458.48 699.972C1452.53 722.13 1439.35 737.063 1431.47 744.397C1443.27 743.587 1466.34 741.231 1487.81 734.633C1492.6 733.159 1498.02 731.403 1503.82 729.51C1533.78 719.783 1574.27 706.624 1626.27 701.82C1653.29 699.326 1682.66 690.172 1709.41 678.588C1742.99 664.047 1772.36 645.702 1787.75 631.879C1800.82 620.14 1806.05 612.105 1804.26 607.246C1802.5 602.432 1793.5 600.021 1778.1 599.584C1770 599.357 1761.02 598.665 1751.16 597.91C1719.67 595.498 1679.27 592.395 1638.07 601.577C1636.63 601.895 1635.2 600.985 1634.88 599.539C1634.56 598.092 1635.47 596.663 1636.92 596.345C1678.92 586.981 1719.74 590.111 1751.55 592.559C1761.48 593.323 1770.53 594.015 1778.23 594.233C1796.01 594.743 1806.68 598.256 1809.29 605.408C1811.89 612.515 1806.22 622.488 1791.33 635.874C1775.59 650.006 1745.66 668.724 1711.52 683.511C1684.31 695.295 1654.37 704.613 1626.75 707.161C1575.4 711.902 1535.21 724.96 1505.47 734.615C1499.8 736.453 1494.51 738.173 1489.37 739.756C1459.53 748.938 1426.61 750.076 1423.82 750.157C1422.89 750.239 1421.96 749.839 1421.38 749.029C1420.53 747.819 1420.82 746.145 1422.03 745.289C1422.09 745.244 1445.01 729.383 1453.3 698.58C1456.63 686.15 1456.31 676.513 1456.06 669.006C1455.63 656.348 1455.39 649.014 1469.73 644.127C1472.38 643.226 1474.93 642.417 1477.4 641.643C1482.13 640.16 1486.53 638.777 1490.14 637.148C1498.46 633.39 1502.58 627.912 1496.58 614.59C1493.17 607.019 1483.1 595.516 1470.57 581.221C1444.41 551.337 1407.73 509.451 1396.42 462.933C1387.94 428.036 1389.71 404.549 1401.97 385.167C1414.14 365.948 1436.48 351.143 1469.33 333.399C1502.44 315.518 1528.79 310.831 1551.05 316.755C1573.35 322.688 1591.3 339.186 1607.66 363.646C1640.5 412.776 1628.09 438.655 1628.06 438.728V438.737Z" fill="#2B2424"/>
<path fill-rule="evenodd" clip-rule="evenodd" d="M1504.73 627.949C1504.25 629.35 1502.72 630.087 1501.32 629.596C1499.92 629.113 1499.18 627.585 1499.67 626.183C1499.7 626.11 1508.38 602.051 1481.69 564.323C1467.68 544.531 1450.87 523.829 1434.85 504.119C1419.57 485.31 1405.02 467.402 1394.25 451.941C1388.99 444.38 1382.63 440.357 1376.03 438.829C1370.86 437.637 1365.48 437.955 1360.34 439.311C1355.12 440.685 1350.13 443.133 1345.81 446.145C1338.57 451.186 1333.28 457.711 1331.97 463.38C1327.79 481.506 1330.43 534.176 1330.44 534.321C1330.51 535.795 1329.36 537.051 1327.89 537.124C1326.94 537.17 1326.08 536.715 1325.57 535.987C1325.57 535.987 1316.35 523.484 1306.79 440.33C1302.71 404.878 1291.56 376.732 1277.96 355.875C1260.5 329.095 1239.13 314.435 1223.7 311.86C1214.35 310.304 1206.85 310.204 1198.82 310.095C1182.45 309.885 1163.89 309.64 1123.85 297.564C1111.79 293.924 1101.38 290.894 1091.68 288.064C1048.93 275.598 1019.34 266.971 1006.6 254.24C1004.47 252.111 1003.51 249.882 1003.53 247.616C1003.56 244.222 1005.85 241.173 1009.71 238.562C1013.07 236.296 1017.75 234.267 1023.18 232.574C1041.34 226.914 1068.67 224.857 1083.37 230.399C1095.88 235.122 1109.71 240.081 1126.2 245.459C1142.74 250.855 1161.9 256.652 1185.03 263.022C1204.38 268.354 1221.51 279.647 1235.98 292.887C1247.04 303.015 1256.56 314.29 1264.31 324.9C1246.95 279.865 1218.51 190.47 1240.09 133.369C1260.78 78.6246 1287.28 58.223 1306.68 43.2904C1314.89 36.9752 1321.77 31.6609 1326.16 25.2183C1328.69 21.5056 1331.82 17.7929 1335.36 14.2531C1344.12 5.49006 1355.53 -2.39942 1366.63 -6.84919C1378.17 -11.4719 1389.48 -12.4091 1397.53 -6.93109L1397.66 -6.83099C1398.66 -6.13941 1399.58 -5.37503 1400.41 -4.54695C1403.25 -1.70784 1407.36 2.07765 1412.4 6.70942C1437.17 29.477 1483.81 72.3549 1500.51 112.931C1510.63 137.5 1514 162.288 1512.68 187.43C1511.36 212.445 1505.39 237.797 1496.78 263.613C1486.24 295.226 1476.45 317.456 1470.46 329.914C1488.81 314.417 1528 280.666 1552 255.251C1568.25 238.052 1589.52 219.17 1608.02 204.747C1626.81 190.087 1643.08 179.95 1648.99 180.487C1650.19 180.596 1651.39 180.933 1652.54 181.497C1655.76 183.081 1658.69 186.484 1660.51 191.798C1662.18 196.703 1662.97 203.364 1662.2 211.863C1661.03 224.73 1656.26 241.983 1645.46 263.95C1618.68 318.466 1589.15 344.237 1589.06 344.31C1587.95 345.292 1586.25 345.183 1585.28 344.082C1584.3 342.972 1584.41 341.279 1585.51 340.306C1585.59 340.233 1614.35 315.145 1640.65 261.602C1651.12 240.282 1655.75 223.674 1656.87 211.381C1657.57 203.71 1656.88 197.795 1655.42 193.527C1654.1 189.669 1652.2 187.294 1650.19 186.311C1649.62 186.038 1649.06 185.874 1648.5 185.82C1644.01 185.41 1629.13 195.074 1611.32 208.969C1593.03 223.238 1571.99 241.91 1555.92 258.927C1524.24 292.469 1466.37 340.36 1463.88 342.417C1463.04 343.163 1461.79 343.336 1460.77 342.754C1459.48 342.026 1459.03 340.388 1459.76 339.105C1459.8 339.032 1474.74 312.852 1491.71 261.948C1500.18 236.569 1506.04 211.681 1507.34 187.175C1508.62 162.788 1505.35 138.756 1495.57 114.987C1479.33 75.5307 1433.25 33.1715 1408.78 10.6769C1403.58 5.89954 1399.34 1.98666 1396.62 -0.725063C1395.98 -1.37115 1395.31 -1.92623 1394.66 -2.39032L1394.52 -2.48131C1388.15 -6.82189 1378.62 -5.84822 1368.64 -1.85343C1358.23 2.32335 1347.48 9.77603 1339.17 18.075C1335.83 21.4146 1332.91 24.8634 1330.6 28.2667C1325.74 35.4009 1318.53 40.9517 1309.96 47.5581C1291.08 62.0995 1265.28 81.9734 1245.12 135.289C1216.68 210.525 1278.28 345.083 1280.75 350.443C1281.32 351.271 1281.88 352.117 1282.44 352.973C1296.45 374.457 1307.92 403.385 1312.1 439.739C1316.76 480.26 1321.17 503.491 1324.45 516.622C1324.05 499.278 1324.01 473.981 1326.73 462.197C1328.33 455.254 1334.45 447.519 1342.73 441.75C1347.53 438.41 1353.1 435.689 1358.96 434.142C1364.9 432.577 1371.15 432.213 1377.23 433.615C1385.06 435.425 1392.55 440.121 1398.65 448.884C1409.4 464.317 1423.84 482.089 1439 500.752C1455.02 520.471 1471.85 541.183 1486.04 561.247C1514.34 601.25 1504.75 627.885 1504.72 627.958L1504.73 627.949ZM1224.58 306.573C1233.77 308.102 1244.85 313.498 1256 322.734C1249.23 313.998 1241.33 305.035 1232.38 296.845C1218.48 284.115 1202.06 273.277 1183.62 268.19C1160.31 261.766 1141.08 255.951 1124.56 250.564C1108.01 245.168 1094.1 240.172 1081.5 235.413C1067.85 230.263 1042.06 232.301 1024.79 237.688C1019.84 239.226 1015.65 241.037 1012.73 243.002C1010.31 244.622 1008.9 246.215 1008.89 247.652C1008.89 248.453 1009.36 249.381 1010.4 250.428C1022.2 262.221 1051.22 270.684 1093.17 282.914C1103.5 285.926 1114.59 289.156 1125.38 292.414C1164.77 304.289 1182.89 304.526 1198.89 304.735C1207.17 304.844 1214.89 304.944 1224.58 306.555V306.573Z" fill="#2B2424"/>
<path fill-rule="evenodd" clip-rule="evenodd" d="M1201.63 269.592C1202.5 270.784 1202.25 272.468 1201.05 273.341C1199.86 274.215 1198.18 273.96 1197.3 272.768C1197.16 272.577 1147.38 205.648 1157.98 140.076C1162.64 111.202 1174.24 85.1586 1187.96 64.2565C1205.41 37.6762 1226.46 19.2674 1241.22 13.7985C1250.57 10.3315 1259.01 5.23561 1266.78 0.54015C1280.43 -7.71331 1292.16 -14.802 1304.56 -10.8891C1323.56 -4.89239 1336.58 17.9025 1336.61 17.9661C1337.35 19.2492 1336.91 20.8872 1335.63 21.6151C1334.35 22.3522 1332.71 21.9063 1331.98 20.6324C1331.95 20.5687 1319.96 -0.388023 1302.95 -5.76597C1292.86 -8.95088 1282.09 -2.44456 1269.55 5.13552C1261.58 9.95838 1252.93 15.1816 1243.06 18.8397C1229.23 23.9629 1209.27 41.58 1192.45 67.1957C1179.09 87.5518 1167.8 112.886 1163.27 140.913C1153.03 204.247 1201.5 269.41 1201.64 269.592H1201.63Z" fill="#2B2424"/>
<path fill-rule="evenodd" clip-rule="evenodd" d="M1521.74 291.685C1521.24 293.077 1519.7 293.796 1518.31 293.287C1516.92 292.786 1516.2 291.248 1516.71 289.856C1516.77 289.674 1539.92 227.241 1538.05 158.565C1536.88 115.951 1522.87 99.8445 1511.73 87.0412C1504.74 79.0152 1498.82 72.1995 1497.31 61.2161C1496.41 54.6461 1494.88 50.715 1493.08 49.0498C1492.5 48.5038 1491.9 48.3127 1491.32 48.4492C1490.43 48.6585 1489.41 49.4411 1488.32 50.7423C1484.47 55.3286 1480.92 65.0653 1479.51 78.4783C1479.36 79.9525 1478.05 81.0171 1476.57 80.8716C1475.1 80.726 1474.03 79.4065 1474.18 77.9323C1475.71 63.391 1479.76 52.5987 1484.21 47.3026C1486.05 45.1005 1488.06 43.7082 1490.11 43.2259C1492.48 42.6709 1494.73 43.2714 1496.74 45.1278C1499.39 47.5938 1501.54 52.6169 1502.63 60.5063C1503.93 69.87 1509.38 76.1306 1515.8 83.5196C1527.48 96.9599 1542.2 113.867 1543.42 158.429C1545.33 228.151 1521.83 291.503 1521.77 291.694L1521.74 291.685Z" fill="#2B2424"/>
<path fill-rule="evenodd" clip-rule="evenodd" d="M1147.42 303.962C1145.98 303.598 1145.12 302.133 1145.48 300.695C1145.85 299.257 1147.31 298.393 1148.75 298.757C1148.95 298.812 1217.9 315.537 1231.5 383.576C1238 416.071 1247.54 442.66 1259.6 463.162C1271.83 483.964 1286.63 498.487 1303.43 506.54C1304.76 507.177 1305.32 508.779 1304.69 510.107C1304.05 511.436 1302.45 512 1301.12 511.363C1283.35 502.846 1267.76 487.604 1254.98 465.865C1242.61 444.826 1232.84 417.681 1226.22 384.622C1213.29 319.95 1147.6 304.008 1147.41 303.962H1147.42Z" fill="#2B2424"/>
<path fill-rule="evenodd" clip-rule="evenodd" d="M1696.06 595.262C1694.66 595.735 1693.14 594.989 1692.66 593.588C1692.19 592.187 1692.93 590.658 1694.34 590.185C1694.42 590.157 1724.5 579.802 1743.35 565.834C1753.4 558.39 1759.95 555.151 1764.96 554.823C1770.62 554.45 1774.04 557.362 1777.65 562.094C1781.24 566.789 1781.87 573.205 1782.52 579.829C1783.07 585.544 1783.65 591.44 1786.28 595.799C1787.05 597.073 1786.64 598.72 1785.37 599.485C1784.11 600.249 1782.45 599.839 1781.69 598.575C1778.45 593.206 1777.8 586.663 1777.19 580.339C1776.61 574.497 1776.06 568.846 1773.38 565.351C1770.83 562.021 1768.57 559.964 1765.28 560.183C1761.34 560.447 1755.68 563.368 1746.54 570.147C1727 584.616 1696.14 595.244 1696.05 595.271L1696.06 595.262Z" fill="#2B2424"/>
<path fill-rule="evenodd" clip-rule="evenodd" d="M1692.02 546.141C1690.85 545.24 1690.62 543.557 1691.52 542.383C1692.43 541.209 1694.11 540.982 1695.28 541.882C1695.32 541.91 1700.18 545.632 1706.17 550.1C1712.06 547.015 1733.78 536.077 1741.63 538.142C1742.76 538.443 1743.84 538.934 1744.85 539.571C1748.19 541.7 1750.73 545.559 1752.22 549.645L1752.27 549.79C1753.74 553.903 1754.17 558.371 1753.31 561.611C1753.05 562.575 1752.69 563.458 1752.21 564.213C1750.44 566.989 1746.71 568.663 1742.58 569.6C1736.95 570.874 1730.25 570.856 1727.48 570.401C1724.65 569.928 1713.62 562.175 1704.6 555.559C1704.45 555.468 1704.3 555.359 1704.17 555.241C1697.52 550.354 1692.08 546.168 1692.04 546.141H1692.02ZM1710.98 553.639C1718.65 559.245 1726.59 564.814 1728.35 565.105C1730.7 565.496 1736.46 565.487 1741.4 564.368C1744.3 563.713 1746.8 562.73 1747.69 561.338C1747.88 561.037 1748.02 560.673 1748.13 560.246C1748.71 558.025 1748.34 554.759 1747.21 551.592L1747.17 551.464C1746.05 548.38 1744.24 545.531 1741.96 544.085C1741.42 543.739 1740.85 543.484 1740.25 543.32C1734.88 541.901 1718.44 549.817 1710.98 553.63V553.639Z" fill="#2B2424"/>
<path fill-rule="evenodd" clip-rule="evenodd" d="M1801.91 599.811C1802.03 601.286 1800.92 602.578 1799.44 602.696C1797.97 602.814 1796.68 601.704 1796.56 600.23C1796.56 600.112 1793.28 559.072 1789.33 552.265C1787.27 548.726 1786.42 547.397 1786 546.733L1785.89 546.542C1785.49 545.914 1785.45 545.814 1784.94 544.658C1784.47 543.584 1775.23 536.841 1763.73 530.881C1756.74 527.259 1749.04 524.102 1742.17 523.001C1723.13 519.943 1706.45 519.17 1706.4 519.17C1704.93 519.106 1703.78 517.859 1703.85 516.376C1703.91 514.902 1705.16 513.755 1706.64 513.819C1706.69 513.819 1723.67 514.611 1743.02 517.714C1750.54 518.924 1758.79 522.282 1766.19 526.122C1778.66 532.592 1789.12 540.918 1789.83 542.501C1790.15 543.247 1790.2 543.348 1790.42 543.684C1790.46 543.739 1790.5 543.803 1790.54 543.857C1790.94 544.494 1791.75 545.768 1793.97 549.581C1798.54 557.461 1801.9 599.693 1801.91 599.811Z" fill="#2B2424"/>
<path fill-rule="evenodd" clip-rule="evenodd" d="M1794.31 550.682C1794.45 552.156 1793.35 553.457 1791.89 553.585C1790.42 553.721 1789.11 552.629 1788.99 551.164C1788.98 551.028 1784.54 503.873 1769.63 476.856C1754.83 450.03 1728.26 435.061 1728.18 435.015C1726.89 434.278 1726.46 432.64 1727.19 431.366C1727.93 430.083 1729.57 429.646 1730.84 430.383C1730.92 430.429 1758.8 446.135 1774.34 474.281C1789.76 502.235 1794.31 550.545 1794.32 550.682H1794.31Z" fill="#2B2424"/>
<path fill-rule="evenodd" clip-rule="evenodd" d="M1751.78 521.162C1752.19 522.582 1751.37 524.065 1749.95 524.474C1748.53 524.884 1747.05 524.065 1746.63 522.645C1746.59 522.518 1733.76 478.794 1721.09 468.775C1719.93 467.856 1719.73 466.172 1720.65 465.017C1721.57 463.861 1723.25 463.661 1724.41 464.58C1738.41 475.654 1751.74 521.035 1751.78 521.162Z" fill="#2B2424"/>
<path fill-rule="evenodd" clip-rule="evenodd" d="M1471.29 828.998C1470.15 829.935 1468.46 829.771 1467.52 828.634C1466.58 827.496 1466.75 825.804 1467.88 824.866C1467.96 824.803 1496.43 802.035 1503.9 731.166C1504.05 729.692 1505.36 728.627 1506.84 728.773C1508.31 728.928 1509.38 730.238 1509.23 731.712C1501.52 804.792 1471.37 828.925 1471.29 828.998Z" fill="#2B2424"/>
<path fill-rule="evenodd" clip-rule="evenodd" d="M1536.91 720.257C1537.46 718.883 1539.03 718.218 1540.4 718.773C1541.78 719.328 1542.44 720.894 1541.88 722.268C1541.83 722.377 1525.57 761.415 1534.67 785.529C1538.68 796.158 1541.29 805.084 1542.96 811.882C1545.54 803.829 1550.76 795.047 1561.37 792.399C1580.13 787.713 1599.02 790.634 1630.72 795.985C1635.53 789.032 1657.78 758.275 1690.81 734.989C1726.85 709.574 1733.83 668.279 1733.85 668.17C1734.1 666.705 1735.49 665.731 1736.95 665.986C1738.4 666.241 1739.39 667.633 1739.13 669.089C1739.11 669.216 1731.77 712.658 1693.89 739.375C1669.64 756.474 1651.33 777.703 1641.73 790.088C1648.89 786.13 1659.5 780.597 1673.7 774.082C1702.2 760.996 1725.88 765.846 1727.89 766.292C1729.14 766.511 1730.11 767.612 1730.11 768.94C1730.11 768.94 1730.11 770.706 1712.97 784.31C1703.95 791.48 1691.48 797.777 1676.45 801.099C1663.82 803.892 1649.36 804.584 1633.61 801.918L1633.2 801.845C1600.15 796.258 1581 793.018 1562.66 797.604C1545.75 801.836 1545.83 826.896 1545.83 826.969H1545.82C1545.82 828.334 1544.78 829.499 1543.39 829.636C1541.91 829.772 1540.61 828.689 1540.47 827.224C1540.47 827.179 1538.99 812.219 1529.64 787.422C1519.78 761.296 1536.85 720.375 1536.89 720.257H1536.91ZM1639.7 797.386C1652.73 798.988 1664.7 798.205 1675.3 795.866C1689.47 792.736 1701.19 786.821 1709.64 780.106C1715.97 775.073 1719.65 772.298 1721.78 770.778C1713.55 769.914 1696.12 769.686 1675.93 778.959C1658.3 787.049 1646.33 793.564 1639.7 797.386Z" fill="#2B2424"/>
<path fill-rule="evenodd" clip-rule="evenodd" d="M1593.18 858.772C1591.98 859.645 1590.3 859.372 1589.43 858.171C1588.56 856.97 1588.83 855.296 1590.03 854.422C1590.15 854.34 1630.76 824.939 1672.19 803.982C1712.86 783.408 1725.26 767.329 1725.3 767.283C1726.21 766.109 1727.89 765.9 1729.07 766.81C1730.24 767.72 1730.45 769.403 1729.54 770.577C1729.5 770.623 1716.38 787.63 1674.6 808.769C1633.57 829.516 1593.29 858.681 1593.18 858.772Z" fill="#2B2424"/>
<path fill-rule="evenodd" clip-rule="evenodd" d="M1711.28 769.84C1710.19 770.832 1708.5 770.75 1707.5 769.649C1706.51 768.557 1706.59 766.864 1707.7 765.873C1707.8 765.772 1746.15 731.248 1765.38 697.015C1775.18 679.571 1777.69 665.848 1777.84 656.694C1772.45 673.765 1759.36 703.421 1729.94 724.669C1687.46 755.353 1636 801.152 1635.85 801.28C1634.74 802.262 1633.04 802.162 1632.06 801.061C1631.08 799.951 1631.18 798.258 1632.28 797.276C1632.43 797.139 1683.99 751.258 1726.81 720.328C1768.55 690.181 1775.95 642.444 1775.98 642.298C1776.12 641.388 1776.73 640.578 1777.66 640.223C1779.04 639.696 1780.59 640.378 1781.13 641.752C1781.15 641.816 1790.12 663.937 1770.06 699.636C1750.43 734.597 1711.4 769.731 1711.29 769.84H1711.28Z" fill="#2B2424"/>
</g>
</g>
<defs>
<clipPath id="clip0_157_308">
<rect width="2000" height="2000" fill="white"/>
</clipPath>
<clipPath id="clip1_157_308">
<rect width="1762" height="2024" fill="white" transform="translate(119 -12)"/>
</clipPath>
</defs>
</svg>
