<svg width="2000" height="2000" viewBox="0 0 2000 2000" fill="none" xmlns="http://www.w3.org/2000/svg">
<g clip-path="url(#clip0_157_296)">
<path fill-rule="evenodd" clip-rule="evenodd" d="M857.122 972.194C857.122 972.194 857.173 972.177 857.266 972.169C857.899 972.067 858.524 972.211 859.022 972.54C862.305 974.059 869.235 981.281 875.068 1014.18C877.862 1029.94 884.851 1045.73 892.566 1063.18C905.32 1092.01 920.041 1125.27 921.687 1170.94C923.57 1223.13 903.725 1237.62 882.969 1252.78C874.342 1259.08 865.538 1265.51 858.313 1274.93C846.614 1290.17 834.197 1301.44 822.422 1309.01C808.823 1317.76 795.959 1321.65 785.881 1321.16C776.925 1320.72 769.193 1317.16 762.702 1311.64C755.358 1305.4 749.618 1296.65 745.474 1287.15C742.68 1280.74 733.673 1277.6 723.57 1274.09C709.102 1269.05 692.549 1263.29 685.644 1245.76C679.727 1230.75 677.532 1214.37 675.211 1197.07C673.008 1180.65 670.695 1163.41 664.93 1145.89C658.785 1127.24 659.14 1109.72 668.653 1091.08C678.005 1072.77 696.263 1053.48 726.017 1031.07C784.496 987.009 854.86 972.641 857.114 972.194H857.122ZM870.164 1015.04C863.149 975.451 858.228 977.037 858.211 977.045L858.152 977.054C857.95 977.096 787.485 991 729.022 1035.05C699.867 1057.01 682.074 1075.74 673.076 1093.35C664.246 1110.64 663.934 1126.95 669.657 1144.33C675.549 1162.23 677.904 1179.75 680.132 1196.43C682.403 1213.39 684.555 1229.46 690.27 1243.96C696.339 1259.35 711.735 1264.71 725.199 1269.4C736.391 1273.3 746.36 1276.77 750.023 1285.18C753.889 1294.04 759.182 1302.15 765.909 1307.86V1307.87C771.599 1312.7 778.343 1315.83 786.117 1316.21C795.225 1316.66 807.034 1313.01 819.737 1304.84C831.074 1297.55 843.034 1286.67 854.362 1271.93C862.035 1261.93 871.118 1255.3 880.031 1248.78C899.707 1234.41 918.514 1220.68 916.724 1171.13C915.112 1126.44 900.585 1093.63 888.008 1065.19C880.158 1047.46 873.051 1031.4 870.155 1015.05L870.164 1015.04Z" fill="#292424"/>
<path fill-rule="evenodd" clip-rule="evenodd" d="M792.405 1030.27L792.506 1030.16C819.855 1000.14 853.053 973.409 853.163 973.325C854.235 972.464 855.797 972.633 856.657 973.704C857.35 974.565 857.375 975.746 856.801 976.623C855.999 977.973 845.06 996.45 836.045 1019.65C836.138 1022.39 836.855 1037.58 841.194 1060.06C843.16 1070.24 840.299 1078.8 836.256 1083.28C834.314 1085.43 832.035 1086.74 829.739 1086.99C827.215 1087.27 824.81 1086.33 822.911 1083.93C819.948 1080.2 818.276 1072.4 820.015 1059.33C821.847 1045.62 826.228 1031.32 831.2 1018.44L831.242 1018.32C836.264 1005.32 841.886 993.767 846.106 985.71C834.34 995.792 814.309 1013.67 796.676 1032.95C796.068 1038.61 792.05 1071.57 779.769 1083.01C775.751 1086.74 771.564 1088.61 768.281 1088.48C766.077 1088.4 764.237 1087.5 762.963 1085.8C761.832 1084.28 761.232 1082.14 761.367 1079.43C761.68 1072.91 766.39 1061.91 778.764 1046.26C782.985 1040.92 787.602 1035.56 792.396 1030.28L792.405 1030.27ZM776.384 1079.36C784.918 1071.42 789.096 1050.88 790.818 1039.5C787.982 1042.77 785.247 1046.04 782.664 1049.32C771.024 1064.04 766.609 1073.99 766.339 1079.64C766.263 1081.15 766.5 1082.2 766.964 1082.82C767.285 1083.25 767.808 1083.48 768.466 1083.5C770.501 1083.58 773.362 1082.17 776.392 1079.35L776.384 1079.36ZM831.9 1031.13C828.769 1040.58 826.219 1050.43 824.945 1059.97C823.409 1071.52 824.582 1078.04 826.81 1080.84C827.545 1081.76 828.38 1082.14 829.207 1082.04C830.263 1081.93 831.444 1081.18 832.567 1079.94C835.749 1076.42 837.952 1069.48 836.315 1060.99C833.926 1048.63 832.618 1038.38 831.909 1031.13H831.9Z" fill="#292424"/>
<path fill-rule="evenodd" clip-rule="evenodd" d="M856.971 976.32C856.388 977.56 854.903 978.092 853.662 977.509C852.421 976.927 851.889 975.442 852.471 974.202C852.48 974.177 856.194 965.951 891.443 971.511C904.865 973.629 920.675 972.54 936.13 971.485C958.904 969.925 980.918 968.415 994.82 977.138C1009.79 986.529 1023.59 996.889 1041.78 1010.55C1050.77 1017.3 1060.85 1024.87 1073.22 1033.92C1088.84 1045.34 1098.98 1063.99 1105.24 1084.33C1113.82 1112.15 1115.15 1143.26 1113.35 1163.14C1110.31 1196.57 1105.38 1196.19 1091.4 1195.09C1090.21 1195 1088.92 1194.9 1087.88 1194.84H1087.87C1080.39 1194.4 1077.26 1199.38 1072.44 1207.07C1072.4 1207.13 1072.37 1207.2 1072.32 1207.25C1068.72 1212.99 1064.27 1220.05 1056.8 1227.51C1054.72 1229.6 1051.83 1231.64 1048.29 1233.56C1035.45 1240.54 1013.58 1246.03 990.76 1245.54C967.8 1245.05 943.786 1238.55 926.76 1221.53C922.109 1216.88 917.973 1211.43 914.529 1205.1C913.871 1203.89 914.318 1202.38 915.526 1201.73C916.733 1201.07 918.243 1201.52 918.893 1202.73C922.084 1208.59 925.942 1213.66 930.289 1218.01C946.293 1234.01 969.05 1240.12 990.861 1240.58C1012.81 1241.05 1033.72 1235.84 1045.93 1229.2C1049.02 1227.52 1051.52 1225.76 1053.29 1223.99C1060.45 1216.83 1064.7 1210.09 1068.13 1204.61L1068.22 1204.44C1073.99 1195.23 1077.73 1189.26 1088.17 1189.87C1089.64 1189.95 1090.73 1190.04 1091.78 1190.12C1102.16 1190.93 1105.82 1191.22 1108.42 1162.68C1110.18 1143.3 1108.87 1112.94 1100.51 1085.78C1094.52 1066.36 1084.94 1048.63 1070.29 1037.92C1058.52 1029.3 1048.09 1021.47 1038.81 1014.51C1020.73 1000.93 1007.03 990.646 992.178 981.331C979.652 973.477 958.423 974.936 936.459 976.438C920.759 977.518 904.696 978.615 890.684 976.404C859.115 971.427 856.979 976.303 856.971 976.311V976.32Z" fill="#292424"/>
<path fill-rule="evenodd" clip-rule="evenodd" d="M1026.07 1238.96C1025.82 1237.61 1026.72 1236.32 1028.06 1236.07C1029.41 1235.82 1030.7 1236.72 1030.95 1238.06C1030.95 1238.13 1035.18 1260.64 1016.04 1271.4C1011.04 1274.21 1005.89 1276.01 1001.12 1276.46C996.566 1276.89 992.337 1276.11 988.851 1273.84C985.762 1271.83 983.322 1268.72 981.803 1264.32C973.235 1288.85 946.925 1329.24 866.44 1359.44C781.98 1391.14 717.263 1407.62 643.43 1426.42C610.443 1434.83 575.632 1443.68 536.956 1454.42C410.924 1489.41 340.332 1553.88 340.121 1554.07C339.099 1554.98 337.529 1554.9 336.609 1553.88C335.689 1552.86 335.774 1551.29 336.795 1550.37C337.006 1550.18 408.442 1484.95 535.63 1449.63C574.957 1438.71 609.48 1429.92 642.198 1421.59C715.972 1402.8 780.629 1386.34 864.702 1354.78C958.126 1319.72 976.527 1271.53 980.098 1251.77C980.14 1248.9 980.419 1245.74 980.942 1242.29C981.145 1240.94 982.419 1240 983.778 1240.2C985.036 1240.39 985.939 1241.49 985.897 1242.74C985.922 1243.49 985.964 1246.77 985.07 1251.9C985.011 1255.54 985.357 1258.62 986.04 1261.19C987.129 1265.29 989.062 1268.05 991.552 1269.67C994.051 1271.3 997.191 1271.85 1000.66 1271.52C1004.71 1271.13 1009.19 1269.55 1013.61 1267.06C1029.64 1258.05 1026.07 1239 1026.06 1238.95L1026.07 1238.96Z" fill="#292424"/>
<path fill-rule="evenodd" clip-rule="evenodd" d="M1064.42 1218.14C1063.12 1218.58 1061.71 1217.87 1061.28 1216.57C1060.84 1215.27 1061.55 1213.86 1062.85 1213.42C1063.08 1213.35 1143.95 1186.31 1183.96 1187.65C1218.5 1188.8 1311.68 1223.67 1336.75 1233.27C1322.46 1207.03 1262.9 1099.71 1212.3 1038.79L1208.03 1033.64C1153.05 967.452 1135.1 945.845 1131.54 929.62C1127.89 912.999 1130.9 902.124 1130.9 902.099C1131.25 900.774 1132.62 899.981 1133.94 900.327C1135.27 900.673 1136.06 902.04 1135.72 903.364C1135.72 903.39 1133.02 913.118 1136.41 928.574C1139.71 943.626 1157.46 965.005 1211.85 1030.47L1216.12 1035.61C1273.33 1104.5 1341.78 1232.08 1344.26 1236.72C1344.66 1237.36 1344.76 1238.17 1344.46 1238.93C1343.96 1240.2 1342.52 1240.83 1341.24 1240.34C1340.9 1240.2 1222.91 1193.91 1183.8 1192.61C1144.67 1191.31 1064.65 1218.05 1064.42 1218.13L1064.42 1218.14Z" fill="#292424"/>
<path fill-rule="evenodd" clip-rule="evenodd" d="M1676.32 1963.62C1676.27 1964.99 1675.11 1966.06 1673.74 1966.01C1672.37 1965.96 1671.3 1964.8 1671.35 1963.43C1671.36 1962.92 1678.37 1787.09 1672.27 1758.39C1670.38 1749.46 1662.7 1728.41 1652.62 1700.7C1630.36 1639.59 1596.38 1546.33 1586.08 1477.89C1578.63 1428.42 1574.15 1402.17 1565.72 1380.88C1557.33 1359.64 1544.88 1343.06 1521.5 1312.93C1503.76 1290.06 1469.1 1242.29 1432.14 1190.65C1371.02 1105.27 1303.56 1009.24 1295.88 997.723V997.715C1291.53 991.193 1271.04 971.881 1246.55 949.827C1232.19 936.893 1216.48 923.056 1201.83 910.308C1199.55 915.674 1195.98 919.732 1191.58 922.567C1187.28 925.334 1182.22 926.912 1176.82 927.376C1171.54 927.831 1165.91 927.207 1160.36 925.596C1149.12 922.322 1138.21 914.931 1131.23 904.107C1125 894.43 1124.2 885.723 1126.06 878.543C1127.35 873.565 1129.93 869.346 1132.86 866.081C1135.78 862.808 1139.11 860.445 1141.85 859.188C1144.61 857.923 1147.11 857.72 1148.66 858.648C1150.5 859.745 1174.14 879.673 1202.23 904.073C1202.32 904.14 1202.41 904.216 1202.49 904.301C1217.92 917.707 1234.69 932.438 1249.9 946.14C1274.65 968.422 1295.42 988.054 1300.04 994.981C1307.73 1006.51 1375.12 1102.43 1436.21 1187.78C1473.14 1239.37 1507.76 1287.09 1525.46 1309.91C1549.13 1340.42 1561.75 1357.24 1570.38 1379.07C1578.99 1400.84 1583.53 1427.32 1591.03 1477.16C1601.26 1545.16 1635.13 1638.11 1657.32 1699.02C1667.48 1726.92 1675.21 1748.14 1677.17 1757.38C1683.38 1786.67 1676.36 1963.14 1676.34 1963.65L1676.32 1963.62ZM1197.85 906.832C1170.54 883.107 1147.83 863.938 1146.09 862.892C1145.96 862.816 1145.15 863.112 1143.9 863.685C1141.69 864.698 1138.98 866.638 1136.54 869.372C1134.08 872.114 1131.93 875.632 1130.85 879.775C1129.31 885.74 1130.04 893.08 1135.41 901.407C1141.71 911.177 1151.57 917.851 1161.74 920.812C1166.69 922.255 1171.7 922.803 1176.41 922.398C1181.01 922.002 1185.3 920.677 1188.89 918.365C1192.86 915.8 1196.02 911.987 1197.85 906.832Z" fill="#292424"/>
<path fill-rule="evenodd" clip-rule="evenodd" d="M1162.27 870.224C1162.73 871.523 1162.05 872.941 1160.75 873.396C1159.45 873.852 1158.03 873.177 1157.58 871.878C1157.55 871.793 1147.03 842.947 1170.5 825.584C1171.6 824.766 1173.16 825.002 1173.98 826.099C1174.8 827.204 1174.56 828.756 1173.46 829.575C1152.98 844.727 1162.25 870.148 1162.27 870.224Z" fill="#292424"/>
<path fill-rule="evenodd" clip-rule="evenodd" d="M1214.15 849.656C1211.63 849.993 1195.99 852.473 1192.08 861.729C1191.26 863.669 1191 865.281 1191.19 866.538C1191.35 867.576 1191.88 868.394 1192.68 868.968C1193.63 869.651 1195.01 870.056 1196.68 870.157C1199.99 870.36 1204.25 869.381 1208.91 867.095C1213.2 864.985 1215.96 862.176 1217.39 859.358C1218.22 857.713 1218.57 856.085 1218.5 854.625C1218.42 853.317 1217.97 852.153 1217.2 851.284C1216.49 850.491 1215.47 849.909 1214.15 849.639V849.656ZM1187.5 859.797C1192.91 847.015 1213.83 844.669 1213.89 844.669C1214.12 844.652 1214.34 844.652 1214.58 844.686C1217.25 845.108 1219.37 846.298 1220.89 847.985C1222.44 849.715 1223.32 851.925 1223.46 854.363C1223.59 856.658 1223.07 859.156 1221.83 861.602C1219.97 865.298 1216.45 868.926 1211.11 871.549C1205.65 874.232 1200.5 875.363 1196.4 875.118C1193.77 874.958 1191.51 874.232 1189.78 872.992C1187.9 871.642 1186.67 869.719 1186.29 867.289C1185.95 865.137 1186.3 862.623 1187.5 859.788V859.797Z" fill="#292424"/>
<path fill-rule="evenodd" clip-rule="evenodd" d="M1272.78 845.2C1271.38 847.318 1267.95 854.388 1278.86 861.551C1284.19 865.052 1288.43 866.436 1291.58 866.301C1292.75 866.25 1293.75 865.972 1294.58 865.516L1294.73 865.44C1295.44 865.01 1296.04 864.419 1296.52 863.702C1297.52 862.175 1297.98 860.041 1297.88 857.577C1297.85 856.936 1297.77 856.295 1297.62 855.687C1296.91 852.532 1294.77 849.689 1291.52 847.664C1288.1 845.538 1283.48 844.323 1278.03 844.559C1276.35 844.635 1274.59 844.837 1272.77 845.2H1272.78ZM1276.13 865.693C1258.37 854.025 1269.4 841.403 1269.43 841.37C1269.77 840.965 1270.24 840.661 1270.8 840.543C1273.24 839.995 1275.58 839.691 1277.82 839.59C1284.34 839.303 1289.93 840.804 1294.14 843.437C1298.53 846.17 1301.46 850.127 1302.47 854.607C1302.67 855.51 1302.8 856.43 1302.83 857.358C1302.98 860.851 1302.25 863.998 1300.65 866.419C1299.76 867.777 1298.6 868.908 1297.17 869.735C1297.11 869.785 1297.03 869.828 1296.96 869.87C1295.48 870.68 1293.75 871.169 1291.77 871.253C1287.65 871.431 1282.4 869.819 1276.11 865.685L1276.13 865.693Z" fill="#292424"/>
<path fill-rule="evenodd" clip-rule="evenodd" d="M1322.14 832.638C1321.29 831.558 1321.49 829.997 1322.57 829.145C1323.65 828.293 1325.21 828.487 1326.06 829.567C1326.11 829.635 1344.86 853.165 1339.48 873.27C1333.99 893.772 1303.67 897.932 1303.57 897.94C1302.21 898.134 1300.96 897.189 1300.76 895.831C1300.57 894.473 1301.51 893.215 1302.87 893.021C1302.95 893.013 1330.04 889.284 1334.67 871.988C1339.4 854.304 1322.19 832.706 1322.15 832.638H1322.14Z" fill="#292424"/>
<path fill-rule="evenodd" clip-rule="evenodd" d="M1167.02 980.117C1168.07 979.222 1169.64 979.349 1170.53 980.387C1171.41 981.424 1171.3 983.002 1170.26 983.888C1170.16 983.964 1138.73 1010.53 1140.29 1044.74C1149.48 1039.57 1175.62 1025.36 1198.89 1017.38C1200.19 1016.94 1201.61 1017.63 1202.05 1018.93C1202.5 1020.23 1201.81 1021.64 1200.51 1022.09C1173.01 1031.52 1141.41 1049.8 1139.47 1050.93C1139.16 1051.13 1138.81 1051.26 1138.41 1051.31C1137.04 1051.46 1135.81 1050.48 1135.66 1049.12C1131.11 1010.46 1166.92 980.201 1167.02 980.117Z" fill="#292424"/>
<path fill-rule="evenodd" clip-rule="evenodd" d="M1212.56 1033C1213.93 1032.89 1215.14 1033.9 1215.25 1035.28C1215.36 1036.65 1214.34 1037.85 1212.97 1037.96C1212.85 1037.97 1173.91 1041.22 1141.69 1050.39C1146.99 1059.53 1170.88 1090.28 1250.07 1083.18C1251.44 1083.06 1252.64 1084.08 1252.76 1085.43C1252.88 1086.8 1251.86 1088 1250.5 1088.12C1156.04 1096.59 1136.6 1051.69 1135.84 1049.85C1135.8 1049.75 1135.76 1049.64 1135.73 1049.54C1135.34 1048.23 1136.09 1046.84 1137.4 1046.45C1170.63 1036.48 1212.43 1033 1212.55 1032.99L1212.56 1033Z" fill="#292424"/>
<path fill-rule="evenodd" clip-rule="evenodd" d="M1236.1 938.521C1234.85 939.07 1233.38 938.496 1232.83 937.239C1232.28 935.982 1232.85 934.514 1234.11 933.965C1234.13 933.965 1240.09 931.097 1257.6 935.239C1264.91 936.969 1271.13 935.231 1277.13 933.552L1277.25 933.518C1284.63 931.459 1291.71 929.502 1300.43 933.164C1308.58 936.589 1335.15 954.518 1359 971.999C1380.61 987.827 1400.13 1003.46 1402.19 1008.03C1405.3 1014.94 1392.86 1017.76 1373.35 1018.37C1355.95 1018.92 1332.58 1018.11 1310.49 1017.09C1309.12 1017.03 1308.06 1015.87 1308.11 1014.5C1308.17 1013.13 1309.33 1012.07 1310.71 1012.13C1332.71 1013.14 1355.98 1013.95 1373.21 1013.41C1388.33 1012.94 1398.51 1011.96 1397.66 1010.08C1395.98 1006.33 1377.1 991.413 1356.08 976.007C1332.48 958.719 1306.34 941.044 1298.52 937.753C1291.37 934.75 1285.11 936.471 1278.59 938.302L1278.49 938.336C1271.88 940.183 1265.02 942.099 1256.49 940.082C1240.59 936.319 1236.12 938.504 1236.11 938.513L1236.1 938.521Z" fill="#292424"/>
<path fill-rule="evenodd" clip-rule="evenodd" d="M1297.87 998.812C1296.5 998.77 1295.42 997.622 1295.46 996.255C1295.5 994.889 1296.65 993.809 1298.02 993.851C1298.1 993.851 1329.08 994.956 1352.24 1001.64C1374.81 1008.15 1399.02 1009.49 1399.09 1009.49C1400.46 1009.57 1401.51 1010.74 1401.44 1012.11C1401.42 1012.4 1401.35 1012.67 1401.25 1012.94C1400.37 1015.4 1389.76 1042.62 1341.97 1060.43C1340.69 1060.91 1339.25 1060.25 1338.78 1058.97C1338.3 1057.68 1338.96 1056.25 1340.24 1055.78C1378.39 1041.57 1391.54 1021.68 1395.3 1014.2C1387.65 1013.57 1368.8 1011.58 1350.88 1006.41C1328.32 999.909 1297.96 998.82 1297.87 998.82V998.812Z" fill="#292424"/>
<path fill-rule="evenodd" clip-rule="evenodd" d="M981.187 1262.21C980.976 1260.86 981.905 1259.58 983.264 1259.37C984.623 1259.16 985.889 1260.09 986.1 1261.45C986.108 1261.51 989.493 1286.17 1030.96 1288.26C1049.78 1289.21 1069.94 1285.55 1090.8 1281.77C1117.92 1276.85 1146.22 1271.72 1174.74 1275.98C1225.27 1283.51 1291.6 1317.65 1291.79 1317.75C1293.01 1318.37 1293.5 1319.87 1292.88 1321.1C1292.25 1322.32 1290.75 1322.81 1289.53 1322.18C1289.34 1322.09 1223.71 1288.31 1174.01 1280.9C1146.24 1276.76 1118.38 1281.81 1091.67 1286.66C1070.52 1290.5 1050.07 1294.2 1030.72 1293.22C985.146 1290.92 981.187 1262.29 981.179 1262.21H981.187Z" fill="#292424"/>
<path fill-rule="evenodd" clip-rule="evenodd" d="M1154.92 1274.41C1156.29 1274.47 1157.35 1275.63 1157.29 1277C1157.23 1278.37 1156.08 1279.43 1154.7 1279.38C1154.64 1279.38 1133.31 1278.14 1113.86 1310.25C1104.42 1325.84 1096.79 1340.11 1091.3 1351.67C1085.15 1364.62 1081.74 1374 1081.58 1377.83C1081.55 1378.43 1081.71 1379.2 1082.02 1380.1C1083.32 1383.86 1086.91 1388.85 1090.92 1392.95C1094.77 1396.89 1098.83 1399.93 1101.28 1400.03H1101.34C1103.88 1397.75 1106.94 1395.42 1110.43 1393.2L1110.64 1393.02C1120.23 1384.65 1134.75 1371.99 1151.83 1367.96C1177.12 1361.98 1252.78 1417.65 1253 1417.81C1254.11 1418.62 1254.35 1420.18 1253.53 1421.29C1252.8 1422.29 1251.46 1422.58 1250.39 1422.03C1247.09 1420.54 1172.69 1387.12 1151.89 1386.48C1142.63 1386.2 1134.06 1387.94 1126.58 1390.72V1390.73C1121.67 1392.55 1117.24 1394.81 1113.37 1397.22C1109.37 1400.71 1106.23 1403.4 1103.89 1404.45C1102.75 1405.63 1101.66 1407.53 1100.69 1409.97C1098.2 1416.18 1096.73 1425.42 1097.49 1434.92C1098.25 1444.3 1101.22 1453.86 1107.59 1460.79C1110.54 1463.99 1114.24 1466.65 1118.81 1468.47C1121.65 1469.61 1124.82 1470.8 1128.21 1472.08C1160.86 1484.34 1213.95 1504.3 1263.76 1584.6C1290.97 1628.47 1315.6 1664.5 1337.78 1694.5C1359.93 1724.48 1379.62 1748.44 1396.95 1768.16C1414.59 1788.25 1426.99 1808.36 1432.53 1837.56C1438.02 1866.54 1436.71 1904.39 1426.99 1960.06C1426.75 1961.42 1425.46 1962.32 1424.11 1962.09C1422.76 1961.85 1421.85 1960.56 1422.08 1959.21C1431.71 1904.15 1433.03 1866.86 1427.65 1838.48C1422.3 1810.35 1410.3 1790.9 1393.22 1771.44C1375.81 1751.63 1356.04 1727.56 1333.79 1697.47C1311.56 1667.38 1286.84 1631.23 1259.54 1587.21C1210.64 1508.37 1158.52 1488.78 1126.47 1476.73C1123.1 1475.47 1119.95 1474.28 1116.98 1473.09C1111.68 1470.97 1107.38 1467.88 1103.95 1464.15C1096.73 1456.31 1093.38 1445.68 1092.55 1435.31C1091.72 1425.05 1093.35 1414.97 1096.09 1408.12C1096.67 1406.69 1097.29 1405.39 1097.97 1404.24C1094.67 1402.91 1090.84 1399.96 1087.38 1396.42C1082.91 1391.84 1078.87 1386.15 1077.34 1381.72C1076.84 1380.27 1076.59 1378.89 1076.64 1377.64C1076.82 1373.18 1080.41 1363.08 1086.83 1349.55C1092.4 1337.81 1100.14 1323.37 1109.63 1307.68C1130.63 1273.01 1154.88 1274.41 1154.95 1274.41L1154.92 1274.41ZM1152.96 1372.81C1144.1 1374.9 1135.83 1379.61 1128.67 1384.77C1135.75 1382.57 1143.62 1381.27 1152.03 1381.52C1166.51 1381.96 1204.53 1397 1229.44 1407.52C1205.77 1391.79 1168.25 1369.2 1152.97 1372.81H1152.96Z" fill="#292424"/>
<path fill-rule="evenodd" clip-rule="evenodd" d="M1573.57 1388.34C1573.57 1389.71 1572.46 1390.83 1571.08 1390.83C1569.71 1390.83 1568.59 1389.71 1568.59 1388.34C1568.59 1388.25 1568.87 1360.62 1542.62 1278.41C1531.58 1243.83 1524.68 1210.49 1520.55 1180.92C1514.76 1139.46 1514.39 1105.33 1515.69 1085.48C1516.61 1071.18 1517.78 1062.71 1518.52 1057.33C1519.41 1050.87 1519.61 1049.41 1518.01 1047.23C1516.46 1046.47 1512.39 1046.92 1506.76 1048.8C1500.74 1050.83 1493.28 1054.55 1485.61 1060.29C1474.97 1068.27 1463.94 1080.15 1455.76 1096.83C1434.5 1140.2 1436.69 1189.03 1436.7 1189.17C1436.75 1190.53 1435.68 1191.69 1434.31 1191.75C1432.94 1191.8 1431.78 1190.74 1431.72 1189.37C1431.72 1189.23 1429.48 1139.17 1451.3 1094.66C1459.87 1077.17 1471.44 1064.71 1482.62 1056.33C1490.76 1050.23 1498.72 1046.27 1505.18 1044.09C1512.06 1041.78 1517.56 1041.49 1520.18 1042.78C1520.89 1043.12 1521.47 1043.59 1521.9 1044.16C1524.81 1048.03 1524.57 1049.8 1523.43 1058C1522.7 1063.3 1521.55 1071.64 1520.63 1085.8C1519.36 1105.41 1519.72 1139.18 1525.46 1180.24C1529.56 1209.6 1536.4 1242.67 1547.34 1276.92C1573.84 1359.93 1573.57 1388.26 1573.57 1388.35L1573.57 1388.34Z" fill="#292424"/>
<path fill-rule="evenodd" clip-rule="evenodd" d="M1509.25 1044.36C1509.56 1043.02 1510.88 1042.19 1512.23 1042.48C1513.57 1042.78 1514.4 1044.11 1514.11 1045.45C1514.08 1045.57 1504.61 1087.63 1504.61 1106.28C1504.61 1123.61 1519.38 1130.61 1519.42 1130.63C1520.65 1131.23 1521.16 1132.72 1520.56 1133.95C1519.96 1135.18 1518.46 1135.68 1517.24 1135.09C1517.19 1135.06 1499.63 1126.74 1499.63 1106.28C1499.63 1087.15 1509.24 1044.48 1509.26 1044.36H1509.25Z" fill="#292424"/>
<path fill-rule="evenodd" clip-rule="evenodd" d="M1526.56 1194.8C1525.55 1195.73 1523.98 1195.66 1523.05 1194.66C1522.12 1193.65 1522.19 1192.08 1523.19 1191.15C1523.37 1190.98 1585.75 1134.03 1594.41 1082.59C1599.37 1053.05 1605.89 978.37 1609.33 901.113C1611.97 841.919 1612.81 781.232 1609.76 738.229C1607.09 700.398 1599.93 653.615 1591.52 608.005C1580.34 547.36 1566.96 488.757 1558.9 455.853C1555.6 451.592 1529.36 416.916 1520.58 381.405C1511.4 344.257 1527.73 280.355 1528.47 277.487C1528.71 276.314 1529.78 275.453 1531.02 275.504C1532.04 275.546 1532.91 276.213 1533.24 277.124C1534.05 279.039 1546.25 307.716 1557.6 324.962C1563.66 334.149 1569.15 344.13 1572.7 356.229C1576.24 368.319 1577.82 382.476 1576.02 399.966C1572.86 430.795 1565.41 450.866 1563.79 454.958C1571.87 487.997 1585.24 546.55 1596.41 607.119C1604.85 652.931 1612.04 699.908 1614.72 737.892C1617.78 781.055 1616.94 841.953 1614.29 901.341C1610.84 978.809 1604.3 1053.75 1599.31 1083.43C1590.38 1136.57 1526.74 1194.66 1526.56 1194.83V1194.8ZM1555.68 442.91C1555.23 441.164 1554.82 439.552 1554.45 438.11C1546.77 408.69 1542.12 379.557 1537.95 353.512C1536.41 343.835 1534.93 334.588 1533.29 325.426C1531.18 313.555 1529.96 304.004 1529.27 296.656C1524.9 318.575 1519.34 355.638 1525.41 380.215C1531.56 405.079 1546.55 429.588 1555.68 442.919V442.91ZM1559.25 436.861C1559.93 439.476 1560.74 442.598 1561.63 446.175C1564.48 437.35 1568.86 421.177 1571.08 399.435C1572.81 382.645 1571.3 369.112 1567.93 357.587C1564.55 346.062 1559.28 336.495 1553.46 327.661C1546.17 316.601 1538.59 301.026 1533.75 290.48C1534.28 298.115 1535.51 309.37 1538.21 324.548C1539.72 333.036 1541.25 342.654 1542.87 352.711C1547.01 378.646 1551.64 407.661 1559.27 436.844L1559.25 436.861Z" fill="#292424"/>
<path fill-rule="evenodd" clip-rule="evenodd" d="M1592.51 586.49C1592.67 587.857 1591.69 589.088 1590.33 589.249C1588.96 589.409 1587.73 588.43 1587.56 587.072C1587.54 586.945 1582.03 542.972 1599.2 508.963C1599.22 504.719 1599.85 478.885 1611.73 452.283C1618.35 437.459 1628.2 424.939 1640.64 415.532C1652.8 406.335 1667.66 400.1 1684.15 397.645H1684.18C1684.38 397.628 1684.59 397.645 1684.78 397.679L1684.94 397.713L1685 397.73C1685.09 397.755 1685.16 397.78 1685.24 397.806L1685.31 397.839L1685.46 397.907L1685.53 397.941C1685.97 398.177 1686.34 398.548 1686.57 399.029C1686.6 399.096 1686.62 399.164 1686.66 399.231V399.248L1686.7 399.35L1686.73 399.442L1686.76 399.56C1686.78 399.687 1686.8 399.814 1686.81 399.932V399.957C1686.83 400.159 1686.81 400.37 1686.78 400.564L1686.74 400.725L1686.73 400.784C1686.7 400.868 1686.67 400.944 1686.65 401.02L1686.62 401.096L1686.56 401.248L1686.52 401.315L1686.5 401.358C1686.46 401.433 1670.44 429.107 1663.93 470.372C1657.68 509.924 1612.33 512.025 1603.2 512.042C1587.25 544.566 1592.49 586.363 1592.5 586.49H1592.51ZM1604.74 498.931C1610.45 489.465 1615.49 483.711 1620.23 478.303C1627.28 470.245 1633.67 462.964 1640.68 444.504C1647.96 425.335 1659.7 413.304 1669.03 406.268C1659.66 409.339 1651.15 413.819 1643.63 419.497C1631.85 428.398 1622.52 440.26 1616.25 454.299C1608.55 471.578 1605.74 488.469 1604.73 498.923L1604.74 498.931ZM1623.97 481.576C1618.51 487.794 1612.66 494.476 1605.82 507.03C1618.02 506.566 1653.84 502.39 1659.01 469.621C1663.75 439.661 1673.39 416.654 1678.61 405.787C1669.77 411.009 1654.15 423.032 1645.32 446.267C1637.99 465.563 1631.33 473.173 1623.95 481.585L1623.97 481.576Z" fill="#292424"/>
<path fill-rule="evenodd" clip-rule="evenodd" d="M1615.52 757.136C1614.94 758.385 1613.47 758.925 1612.22 758.351C1610.97 757.778 1610.43 756.301 1611 755.052C1611.04 754.968 1624.13 725.624 1654.93 737.934C1669.35 743.696 1678.54 761.414 1683.45 787.231C1688.77 815.174 1689.19 852.837 1685.94 895.106C1683.5 926.778 1675.6 951.828 1665.14 968.491C1659.17 978.008 1652.31 984.85 1645.11 988.697C1637.66 992.679 1629.86 993.481 1622.27 990.773C1616.44 988.689 1610.78 984.529 1605.56 978.134C1604.7 977.071 1604.86 975.502 1605.92 974.641C1606.98 973.772 1608.55 973.941 1609.41 975.004C1614.03 980.648 1618.94 984.293 1623.94 986.082C1630.15 988.301 1636.59 987.617 1642.77 984.318C1649.21 980.885 1655.43 974.624 1660.94 965.85C1671 949.828 1678.61 925.572 1680.98 894.743C1684.2 852.871 1683.8 815.638 1678.56 788.159C1673.97 764.038 1665.74 747.619 1653.08 742.557C1626.73 732.02 1615.55 757.069 1615.52 757.145V757.136Z" fill="#292424"/>
<path fill-rule="evenodd" clip-rule="evenodd" d="M1611.85 945.465C1611.31 946.73 1609.85 947.312 1608.59 946.781C1607.32 946.241 1606.74 944.781 1607.27 943.524C1607.29 943.474 1614.06 926.971 1630.61 908.637C1638.88 899.475 1646.73 877.421 1650.59 855.215C1654.03 835.379 1654.27 815.611 1648.72 805.116C1646.37 800.653 1643.75 797.852 1641.08 796.409C1638.6 795.068 1636.02 794.899 1633.52 795.624C1630.85 796.401 1628.2 798.198 1625.81 800.72C1621.43 805.318 1617.98 812.211 1616.57 819.788C1616.33 821.138 1615.03 822.032 1613.68 821.779C1612.33 821.526 1611.43 820.235 1611.69 818.885C1613.27 810.347 1617.21 802.543 1622.2 797.286C1625.18 794.148 1628.58 791.878 1632.15 790.849C1635.88 789.761 1639.73 790.022 1643.43 792.03C1646.95 793.929 1650.27 797.413 1653.12 802.804C1659.22 814.338 1659.1 835.286 1655.49 856.058C1651.49 879.091 1643.18 902.149 1634.31 911.978C1618.32 929.679 1611.86 945.439 1611.85 945.482V945.465Z" fill="#292424"/>
<path fill-rule="evenodd" clip-rule="evenodd" d="M1017.74 617.226C1011.63 616.94 991.19 619.487 976.232 663.258C971.86 676.049 969.015 687.194 966.584 696.686C958.515 728.24 954.893 742.372 917.188 742.726C895.672 742.929 884.048 740.322 875.033 738.297C864.617 735.96 857.848 734.441 842.325 739.537C828.017 744.236 811.254 737.478 795.95 725.43C778.038 711.332 761.967 689.869 754.395 671.316C745.929 650.578 748.748 639.162 751.584 627.671C753.365 620.466 755.146 613.236 753.804 603.483C753.053 598.032 751.981 592.548 750.926 587.165C747.102 567.609 743.54 549.402 755.045 531.077C759.249 524.378 762.212 515.958 765.208 507.453C772.231 487.5 779.44 467.032 803.361 463.159C822.252 460.096 848.368 462.957 872.256 476.802C890.531 487.39 907.523 504.399 919.002 530.081C931.782 558.665 946.917 578.13 963.959 591.013C980.453 603.483 998.803 609.819 1018.6 612.341C1019.68 612.409 1020.35 612.544 1020.52 612.578C1021.79 612.822 1022.67 614.003 1022.52 615.303C1022.37 616.67 1021.13 617.648 1019.77 617.496C1019.1 617.42 1018.42 617.336 1017.75 617.252L1017.74 617.226ZM971.522 661.664C981.778 631.637 995.056 619.682 1005.21 615.058C989.409 611.574 974.586 605.28 960.946 594.961C943.262 581.589 927.612 561.5 914.453 532.089C903.446 507.478 887.205 491.203 869.749 481.088C846.95 467.875 822.092 465.142 804.129 468.053C783.137 471.453 776.435 490.503 769.893 509.081C766.803 517.856 763.748 526.537 759.24 533.717C748.799 550.355 752.175 567.642 755.805 586.204C756.852 591.578 757.924 597.054 758.717 602.808C760.194 613.497 758.295 621.192 756.404 628.852C753.762 639.551 751.145 650.181 759.004 669.443C766.28 687.27 781.761 707.932 799.023 721.516C813.111 732.602 828.271 738.904 840.78 734.804C857.586 729.286 864.879 730.923 876.122 733.445C884.901 735.42 896.22 737.959 917.145 737.765C951.011 737.453 954.336 724.46 961.756 695.462C964.195 685.929 967.065 674.724 971.522 661.664Z" fill="#292424"/>
<path fill-rule="evenodd" clip-rule="evenodd" d="M986.598 580.33L986.488 580.161C980.445 570.661 974.84 559.575 971.058 547.173C965.791 529.928 966.323 519.002 969.049 513.518C970.299 510.995 972.054 509.426 974.021 508.759C976.098 508.059 978.301 508.38 980.352 509.645C983.787 511.771 986.877 516.817 987.78 524.174C990.202 543.967 990.996 573.387 991.114 578.196C1001.28 593.99 1012.62 605.118 1018.16 610.104C1019.15 602.697 1021.32 587.24 1024.34 570.577C1024.35 570.383 1024.38 570.189 1024.45 569.995C1028.82 546.034 1034.96 519.761 1041.87 511.459C1045.91 506.608 1049.66 504.625 1052.7 504.701C1054.71 504.752 1056.37 505.604 1057.63 507.097C1058.72 508.388 1059.47 510.152 1059.82 512.236C1060.78 517.998 1058.73 526.924 1052.34 535.218C1040.12 551.096 1030.37 569.32 1029.16 571.623C1025.06 594.445 1022.52 615.166 1022.51 615.293C1022.46 615.732 1022.28 616.162 1021.98 616.542C1021.13 617.613 1019.56 617.79 1018.49 616.938C1018.42 616.879 1001.24 603.287 986.598 580.322V580.33ZM985.872 569.396C985.467 558.082 984.572 538.998 982.833 524.79C982.133 519.044 980.031 515.298 977.744 513.881C976.984 513.408 976.233 513.265 975.608 513.476C974.874 513.72 974.139 514.463 973.515 515.72C971.252 520.276 970.974 529.886 975.819 545.73C978.436 554.294 981.956 562.216 985.881 569.387L985.872 569.396ZM1045.68 514.648C1040.62 520.723 1035.91 537.934 1032.09 556.428C1036.32 549.383 1042.03 540.482 1048.4 532.197C1053.87 525.085 1055.68 517.703 1054.91 513.071C1054.71 511.864 1054.34 510.919 1053.83 510.32C1053.49 509.924 1053.07 509.688 1052.58 509.679C1050.97 509.645 1048.64 511.105 1045.68 514.648Z" fill="#292424"/>
<path fill-rule="evenodd" clip-rule="evenodd" d="M1063.73 581.555C1063.57 581.757 1063.38 581.935 1063.17 582.078C1054.84 589.865 1046.31 597.172 1039.15 603.061C1063.37 595.746 1087.59 602.226 1107.46 607.541C1116.41 609.937 1124.46 612.088 1130.99 612.536C1145.36 613.523 1178.36 605.423 1208.91 590.658C1231.26 579.851 1252.18 565.508 1263.27 548.617C1276.93 527.812 1287 502.391 1291.71 476.405C1296.13 452.039 1295.83 427.201 1289.35 405.231C1283.06 383.936 1269.43 367.94 1251.57 357.005C1231.71 344.839 1206.6 338.917 1180.5 338.917C1155.76 338.917 1133.5 345.691 1111.62 362.346C1089.51 379.178 1067.72 406.083 1044.16 446.218C1002.75 516.742 1017.44 593.485 1021.53 610.755C1028.06 605.727 1044.28 592.97 1059.66 578.67C1060.64 576.434 1066.24 563.399 1072.18 543.994C1075.36 533.599 1081.84 525.264 1087.24 521.906C1089.2 520.691 1091.12 520.05 1092.85 520.083C1094.99 520.126 1096.74 521.096 1097.89 523.112C1099.44 525.82 1099.65 530.739 1097.62 538.316C1094.45 550.22 1079.53 566.74 1063.73 581.572V581.555ZM1076.93 545.419C1079.74 536.215 1085.29 528.951 1089.86 526.107C1091.01 525.39 1092.01 525.011 1092.75 525.027C1093.09 525.027 1093.37 525.196 1093.57 525.542C1094.51 527.187 1094.47 530.832 1092.82 537.033C1090.41 546.078 1080.39 558.244 1068.46 570.182C1070.8 564.065 1073.82 555.603 1076.94 545.411L1076.93 545.419ZM1017.37 614.662C1014.75 604.647 994.727 520.564 1039.87 443.695C1063.78 402.978 1085.97 375.609 1108.59 358.389C1131.44 340.992 1154.67 333.922 1180.5 333.922C1206.32 333.922 1233.47 340.089 1254.14 352.753C1273.02 364.312 1287.44 381.253 1294.1 403.822C1300.81 426.551 1301.13 452.183 1296.58 477.274C1291.75 503.935 1281.42 530.005 1267.42 551.334C1255.79 569.06 1234.12 583.968 1211.05 595.122C1179.77 610.249 1145.67 618.517 1130.64 617.488C1123.61 617.007 1115.35 614.797 1106.16 612.333C1081.74 605.803 1050.51 597.459 1021.88 616.746C1020.24 619.69 1011.67 637.99 1038.29 659.656C1054.53 672.877 1070.17 689.362 1082.35 706.65C1093.56 722.562 1101.88 739.2 1105.1 754.673C1108.46 770.779 1108.57 786.531 1106.9 801.262C1105.23 815.959 1101.78 829.618 1098.01 841.607C1094.14 853.917 1079.15 867.273 1060.52 877.861C1041.53 888.66 1018.63 896.701 999.943 897.84C973.194 899.468 967.083 894.473 959.688 888.424C956.996 886.222 954.117 883.868 949.888 881.759C945.634 879.633 940.84 879.017 935.387 878.671C932.736 880.789 921.611 891.174 901.319 929.478C877.625 974.211 859.249 975.671 858.127 975.721C856.835 975.797 855.687 974.869 855.51 973.57C855.502 973.494 852.463 947.736 813.753 939.535C793.114 935.165 772.257 925.952 756.219 915.144C740.012 904.235 728.6 891.554 726.963 880.325C725.367 869.39 725.274 858.861 729.731 848.559C734.163 838.309 743.06 828.463 759.393 818.937C776.351 809.049 782.006 800.452 787.619 791.947C792.439 784.624 797.225 777.36 808.443 769.412C832.424 752.42 852.657 732.298 852.716 732.239C853.315 731.648 854.21 731.37 855.096 731.598C856.422 731.944 857.224 733.294 856.877 734.627C854.548 743.545 850.986 780.87 857.409 813.242C861.123 831.955 868.171 848.888 880.723 857.258C902.847 872.006 918.91 872.833 931.648 873.491C939.346 873.887 945.904 874.225 952.117 877.329C956.911 879.726 959.984 882.24 962.854 884.585C969.421 889.96 974.857 894.397 999.665 892.887C1017.59 891.799 1039.69 884.011 1058.08 873.55C1075.7 863.535 1089.8 851.183 1093.28 840.139C1096.97 828.395 1100.35 815.031 1101.97 800.73C1103.59 786.463 1103.49 771.226 1100.25 755.702C1097.17 740.938 1089.14 724.924 1078.29 709.527C1066.37 692.602 1051.06 676.462 1035.17 663.52C1006.55 640.234 1014.93 619.378 1017.37 614.662ZM928.676 878.308C915.779 877.583 899.673 875.861 877.971 861.409C864.128 852.187 856.472 834.082 852.53 814.204C847.145 787.062 848.664 756.36 850.716 741.064C843.009 748.261 828.094 761.591 811.33 773.47C800.855 780.895 796.33 787.763 791.772 794.681C785.838 803.683 779.854 812.778 761.891 823.249C746.579 832.175 738.316 841.228 734.289 850.534C730.288 859.781 730.415 869.475 731.892 879.633C733.319 889.394 743.904 900.86 759.004 911.035C774.561 921.514 794.786 930.448 814.791 934.684C849.441 942.024 857.958 963.049 859.908 970.364C864.888 968.854 878.672 961.631 896.93 927.166C912.461 897.84 923.088 884.256 928.676 878.308Z" fill="#292424"/>
<path fill-rule="evenodd" clip-rule="evenodd" d="M858.017 975.738C857.764 975.738 857.502 975.704 857.249 975.628C857.148 975.594 832.154 967.9 801.977 963.656L801.42 963.58L800.677 963.479C792.962 962.568 779.263 967.318 765.749 972C760.769 973.721 755.814 975.443 751.247 976.851C744.925 978.8 739.345 977.695 736.138 975.257C734.213 973.789 733.048 971.832 732.905 969.646C732.761 967.503 733.622 965.276 735.707 963.251C739.742 959.353 749.154 955.953 766.34 955.953C778.689 955.953 791.392 957.134 803.277 958.83L858 975.746L858.017 975.738ZM781.829 961.496C776.663 961.133 771.48 960.923 766.357 960.923C750.656 960.923 742.435 963.673 739.168 966.82C738.223 967.731 737.834 968.592 737.877 969.326C737.919 970.018 738.383 970.709 739.16 971.3C741.253 972.895 745.144 973.536 749.795 972.101C754.438 970.667 759.283 968.988 764.137 967.309C770.147 965.225 776.182 963.133 781.829 961.505V961.496ZM807.802 959.303L858.008 975.738C868.408 980.218 878.461 986.52 886.497 995.472C893.604 1003.39 900.694 1010.76 907.194 1017.53L907.641 1018C908.561 1021.11 912.959 1035.84 917.652 1049.12C920.033 1055.87 923.451 1061.12 926.861 1063.96C928.567 1065.38 930.322 1066.27 932.036 1066.52C934.019 1066.81 935.868 1066.31 937.463 1064.9C938.974 1063.56 940.173 1061.39 940.89 1058.29C943.296 1047.93 929.385 1033.45 910.781 1014.08C904.358 1007.38 897.343 1000.09 890.202 992.131C866.002 965.192 825.325 961.066 807.802 959.294V959.303ZM936.045 1057.19C935.573 1059.22 934.931 1060.52 934.18 1061.19C933.775 1061.55 933.285 1061.68 932.762 1061.6C931.977 1061.48 931.057 1060.98 930.061 1060.15C927.284 1057.84 924.43 1053.36 922.354 1047.47C919.687 1039.91 917.137 1031.97 915.264 1025.96C928.558 1040.01 937.556 1050.67 936.045 1057.19Z" fill="#292424"/>
<path fill-rule="evenodd" clip-rule="evenodd" d="M1075.89 866.395C1074.6 865.914 1073.95 864.48 1074.44 863.189C1074.92 861.898 1076.35 861.257 1077.64 861.738C1077.73 861.771 1107.38 872.815 1112.55 891.174C1115.29 900.868 1113.8 916.359 1107.82 932.726C1102.75 946.605 1094.43 961.218 1082.72 973.536C1070.15 986.782 1062.57 994.67 1054.58 999.108C1046.41 1003.66 1038.21 1004.45 1024.57 1003.39C1023.21 1003.28 1022.18 1002.09 1022.28 1000.72C1022.38 999.353 1023.58 998.324 1024.95 998.425C1037.56 999.412 1045.04 998.737 1052.17 994.772C1059.49 990.697 1066.86 983.019 1079.12 970.11C1090.32 958.324 1098.28 944.327 1103.14 931.03C1108.77 915.633 1110.24 901.29 1107.76 892.516C1103.27 876.604 1075.96 866.42 1075.88 866.386L1075.89 866.395Z" fill="#292424"/>
<path fill-rule="evenodd" clip-rule="evenodd" d="M759.528 522.664C760.422 521.626 761.992 521.517 763.031 522.411C764.069 523.305 764.179 524.875 763.284 525.912C763.258 525.938 755.012 535.581 736.239 570.054C728.203 584.819 719.23 597.112 711.245 608.063C700.542 622.735 691.645 634.943 689.459 647.084C687.205 659.621 686.116 678.588 690.447 696.837C693.519 709.771 699.327 722.325 709.397 731.858C718.53 740.506 727.536 742.995 735.572 742.329C748.411 741.257 759.046 732.23 763.908 727.108C772.29 718.283 782.436 709.425 782.462 709.399C783.483 708.488 785.053 708.572 785.965 709.593C786.876 710.614 786.792 712.184 785.771 713.095C785.745 713.12 775.827 721.776 767.513 730.534C762.17 736.161 750.428 746.083 735.977 747.29C726.658 748.066 716.31 745.256 705.961 735.453C695.098 725.168 688.86 711.753 685.593 697.984C681.086 679.001 682.217 659.258 684.563 646.206C686.952 632.935 696.161 620.313 707.227 605.135C715.111 594.328 723.966 582.187 731.867 567.675C750.901 532.721 759.494 522.681 759.519 522.656L759.528 522.664Z" fill="#292424"/>
<path fill-rule="evenodd" clip-rule="evenodd" d="M719.813 744.422C718.927 743.376 719.054 741.806 720.109 740.921C721.155 740.035 722.725 740.161 723.612 741.216C723.688 741.3 750.108 771.479 708.224 818.802C688.328 841.278 675.439 858.802 664.702 873.406C653.636 888.449 644.832 900.421 632.888 911.685C618.657 925.108 606.24 930.482 594.625 935.51C587.096 938.767 579.904 941.88 572.865 947.035C566.154 951.946 560.389 954.671 555.89 955.405C553.028 955.877 550.572 955.565 548.622 954.511C546.537 953.397 545.094 951.532 544.376 948.968C543.608 946.217 543.709 942.623 544.798 938.278C545.642 934.895 546.875 931.722 548.014 928.778C549.281 925.496 550.437 922.518 550.673 920.113C551.121 915.658 547.668 912.503 532.897 911.026C516.825 909.423 503.674 905.424 496.904 895.511C490.168 885.648 490.025 870.268 500.07 846.079C510.249 821.561 523.223 797.279 538.155 776.077C551.821 756.672 567.158 739.824 583.534 727.708C600.475 715.179 619.881 702.811 636.281 692.357C652.556 681.988 665.833 673.526 670.518 668.844C676.596 662.769 680.276 658.449 682.15 656.112C672.941 650.274 635.733 628.574 590.692 627.823C582.605 627.688 574.814 627.722 567.344 627.747C525.249 627.916 493.038 628.042 475.186 598.952L471.235 592.523C453.265 563.28 441.819 544.66 431.478 518.598C425.933 504.618 421.484 492.958 419.475 482.218C417.407 471.208 417.88 461.193 422.269 450.807C426.093 441.746 431.352 434.516 436.383 427.58C442.443 419.236 448.175 411.348 450.26 401.595C454.244 383.033 472.248 384.113 501.285 385.851C504.687 386.054 508.232 386.265 511.727 386.45C528.82 387.336 544.807 388.45 559.536 392.98C574.435 397.57 587.915 405.611 599.707 420.341C607.869 430.542 614.951 436.743 621.552 442.514C633.428 452.908 643.786 461.978 656.312 489.862C660.169 498.451 663.301 504.939 665.825 510.161C675.946 531.11 676.376 532.013 678.512 574.248C681.137 626.271 688.168 654.838 688.185 654.923C688.362 655.707 688.16 656.483 687.687 657.066C686.97 658.061 682.893 663.52 674.055 672.362C669.049 677.365 655.527 685.979 638.957 696.542C622.649 706.936 603.345 719.238 586.505 731.699C570.585 743.477 555.62 759.937 542.232 778.937C527.511 799.836 514.723 823.78 504.67 847.986C495.368 870.377 495.233 884.222 501.023 892.701C506.78 901.138 518.69 904.606 533.395 906.074C552.117 907.947 556.379 913.085 555.628 920.586C555.324 923.665 554.05 926.939 552.657 930.55C551.585 933.317 550.428 936.312 549.635 939.468C548.757 942.96 548.631 945.702 549.171 947.634C549.5 948.832 550.108 949.668 550.96 950.123C551.939 950.646 553.332 950.773 555.096 950.486C558.844 949.879 563.866 947.449 569.927 943.011C577.38 937.561 584.842 934.329 592.667 930.946C603.877 926.095 615.863 920.906 629.487 908.057C641.093 897.114 649.779 885.302 660.701 870.453C671.472 855.807 684.403 838.224 704.51 815.503C743.516 771.429 719.889 744.489 719.822 744.413L719.813 744.422ZM590.776 622.862C628.904 623.495 661.545 638.698 677.229 647.422C669.674 636.665 656.489 618.838 643.304 605.381C642.874 604.984 639.075 601.744 626.735 598.066C622.489 596.8 617.821 596.092 613.407 595.425C603.134 593.873 594.119 592.506 592.068 584.66C591.612 582.93 591.671 581.369 592.186 580.011C592.979 577.944 594.718 576.518 597.25 575.835C599.319 575.278 601.977 575.227 605.109 575.776C612.453 577.058 622.894 581.724 634.678 590.861C638.603 593.907 642.68 597.661 646.74 601.804L646.833 601.896C660.068 615.421 673.202 633.096 680.917 644.03C678.596 630.911 675.194 607.304 673.54 574.485C671.463 533.279 671.041 532.41 661.343 512.321C658.844 507.141 655.729 500.703 651.771 491.887C639.692 464.99 629.706 456.258 618.277 446.243C611.541 440.345 604.307 434.009 595.832 423.429C584.758 409.593 572.08 402.042 558.076 397.722C543.895 393.36 528.237 392.272 511.473 391.403C507.7 391.209 504.265 390.998 500.99 390.804C474.578 389.226 458.202 388.239 455.122 402.624C452.809 413.415 446.782 421.708 440.409 430.491C435.53 437.215 430.423 444.243 426.844 452.722C422.885 462.104 422.472 471.216 424.363 481.29C426.304 491.634 430.651 503.049 436.096 516.759C446.259 542.365 457.628 560.867 475.49 589.924L479.44 596.353C495.824 623.056 526.828 622.938 567.336 622.778C574.848 622.744 582.673 622.719 590.785 622.854L590.776 622.862ZM630.753 594.109C620.05 585.967 610.756 581.825 604.257 580.686C601.859 580.264 599.926 580.272 598.542 580.644C597.622 580.888 597.039 581.285 596.845 581.791C596.693 582.188 596.702 582.736 596.879 583.419C598.095 588.068 605.599 589.207 614.149 590.506C618.716 591.198 623.553 591.932 628.161 593.308C629.064 593.577 629.925 593.847 630.753 594.117V594.109Z" fill="#292424"/>
<path fill-rule="evenodd" clip-rule="evenodd" d="M624.278 641.778C624.388 641.778 624.506 641.803 624.615 641.82C656.97 646.056 686.209 653.041 686.327 653.067C687.669 653.379 688.497 654.712 688.184 656.053C687.931 657.125 687.02 657.876 685.981 657.969C684.217 658.222 661.764 661.487 639.573 666.389C636.897 668.667 623.105 680.251 610.671 687.473C604.45 691.084 597.528 691.851 593.308 690.653C591.493 690.139 590.041 689.253 589.138 688.029C588.066 686.587 587.779 684.84 588.505 682.883C589.552 680.057 593.207 676.597 600.652 672.978C609.312 668.776 623.459 664.912 637.733 661.732C637.826 661.706 637.927 661.681 638.02 661.664C650.614 658.863 663.284 656.593 672.349 655.083C660.869 652.679 642.983 649.236 624.05 646.756C623.054 646.764 611.135 647.068 583.702 654.543C571.8 657.791 561.637 656.787 556.37 654.332C553.855 653.16 552.209 651.548 551.669 649.717C551.027 647.54 551.804 645.398 554.277 643.6C557.797 641.036 565.883 638.901 579.937 638.682C593.646 638.471 609.287 639.829 624.278 641.778ZM582.394 649.759C591.012 647.414 598.153 645.752 603.952 644.588C595.655 643.904 587.526 643.533 579.997 643.651C567.099 643.845 560.017 645.566 557.197 647.616C556.657 648.013 556.412 648.249 556.438 648.325C556.564 648.755 557.273 649.287 558.472 649.844C562.895 651.911 571.724 652.67 582.394 649.768V649.759ZM628.532 668.996C618.386 671.552 609.076 674.421 602.812 677.458C596.659 680.445 593.806 682.875 593.156 684.613C593.072 684.84 593.072 684.992 593.131 685.068C593.359 685.372 593.89 685.642 594.65 685.861C597.807 686.756 603.167 686.081 608.181 683.17C615.322 679.027 622.953 673.374 628.541 668.987L628.532 668.996Z" fill="#292424"/>
<path fill-rule="evenodd" clip-rule="evenodd" d="M478.95 599.669C480.157 599.011 481.668 599.45 482.326 600.656C482.984 601.863 482.545 603.373 481.338 604.031C481.018 604.208 370.39 665.368 361.063 684.857C353.508 700.651 370.66 715.449 382.469 725.641C384.428 727.329 386.251 728.906 387.762 730.298C393.671 735.749 391.408 741.056 386.217 746.683C384.234 748.826 381.845 750.977 379.363 753.213C373.48 758.503 367.014 764.316 365.647 770.458C365.537 770.965 365.478 771.513 365.478 772.087C365.478 776.71 369.529 781.814 376.73 786.556C384.419 791.618 395.528 796.124 409.101 799.136C420.057 801.574 432.634 803.025 446.308 803.025C495.992 803.025 551.854 758.208 552.023 758.081C553.095 757.229 554.665 757.406 555.518 758.478C556.37 759.549 556.193 761.119 555.121 761.971C555.104 761.979 554.64 762.35 553.787 763.008C545.768 769.294 502.947 802.468 473.75 817.857C471.125 824.134 454.192 865.745 446.131 914.899C438.062 964.112 391.687 992.435 366.145 1008.04C363.182 1009.86 360.489 1011.49 358.404 1012.84C337.167 1026.42 320.774 1072.97 320.732 1073.1C320.335 1074.21 319.179 1074.92 317.972 1074.71C316.849 1074.52 316.039 1073.61 315.921 1072.54C315.406 1069.39 304.281 1000.2 317.297 944.698C322.935 920.645 334.111 901.003 347.026 885.597C364.836 864.345 386.023 851.116 400.592 845.395C424.396 836.047 467.875 815.216 470.61 813.9L470.677 813.866C481.026 808.484 493.19 800.747 504.922 792.74C486.943 801.16 466.204 808.02 446.325 808.02C432.322 808.02 419.382 806.509 408.046 803.995C393.873 800.848 382.191 796.098 374.02 790.715C365.368 785.012 360.506 778.457 360.506 772.095C360.506 771.218 360.607 770.315 360.81 769.395C362.523 761.675 369.605 755.314 376.046 749.526C378.46 747.358 380.773 745.274 382.571 743.325C385.795 739.832 387.365 736.694 384.411 733.968C382.858 732.543 381.11 731.032 379.236 729.412C366.254 718.217 347.406 701.95 356.598 682.731C366.617 661.79 478.629 599.863 478.95 599.686V599.669ZM466.609 822.32C456.159 830.318 449.744 842.535 442.485 856.355C432.448 875.482 420.85 897.561 395.038 916.494C351.736 948.259 346.021 970.583 336.973 1005.91C336.247 1008.76 335.479 1011.73 334.423 1015.75C331.013 1028.72 328.405 1039.12 326.438 1047.31C333.562 1033.01 343.86 1016.24 355.745 1008.63C358.185 1007.07 360.742 1005.51 363.562 1003.79C388.42 988.613 433.529 961.058 441.235 914.097C447.971 873.018 460.835 837.136 466.6 822.32H466.609ZM438.087 854.06C443.438 843.877 448.343 834.52 454.749 826.876C439.21 834.132 417.086 844.239 402.39 850.01C388.412 855.503 368.035 868.251 350.833 888.778C338.365 903.653 327.586 922.602 322.142 945.812C312.654 986.267 316.233 1034.23 318.926 1057.61C320.994 1048.47 324.345 1034.5 329.621 1014.49C330.346 1011.74 331.258 1008.17 332.153 1004.69C341.463 968.313 347.347 945.323 392.101 912.486C417.001 894.22 428.304 872.697 438.087 854.06Z" fill="#292424"/>
<path fill-rule="evenodd" clip-rule="evenodd" d="M818.234 734.188C819.348 733.378 820.902 733.631 821.712 734.744C822.522 735.858 822.269 737.41 821.155 738.22C821.129 738.237 813.262 744.042 791.341 751.196C780.976 754.58 771.437 760.722 762.634 770.534C753.703 780.481 745.498 794.208 737.91 812.609C722.877 849.107 731.031 872.874 731.056 872.942C731.486 874.241 730.777 875.642 729.477 876.072C728.946 876.249 728.389 876.232 727.891 876.063C727.84 876.055 708.578 869.162 691.864 872.115C674.738 875.152 657.991 881.91 657.94 881.927C656.666 882.433 655.222 881.817 654.707 880.543C654.201 879.269 654.817 877.827 656.092 877.312C656.142 877.295 673.404 870.326 691.004 867.213C704.019 864.91 718.302 868.091 725.24 870.039C723.501 861.147 721.433 839.557 733.31 810.711C741.109 791.77 749.618 777.579 758.928 767.21C768.365 756.697 778.621 750.1 789.797 746.455C810.958 739.553 818.209 734.196 818.226 734.188H818.234Z" fill="#292424"/>
<path fill-rule="evenodd" clip-rule="evenodd" d="M562.313 950.4C561.773 949.135 562.363 947.675 563.63 947.143C564.896 946.604 566.356 947.194 566.888 948.46C566.905 948.502 574.307 964.802 556.784 976.96C549.305 982.148 543.895 993.69 541.767 1006.46C539.691 1018.92 540.771 1032.42 546.123 1042.29C554.176 1057.14 572.704 1067.49 592.582 1078.58C599.917 1082.67 607.438 1086.88 614.723 1091.46C641.312 1108.17 664.499 1106.86 664.567 1106.86C665.934 1106.81 667.09 1107.88 667.15 1109.24C667.2 1110.61 666.137 1111.77 664.761 1111.82C664.693 1111.82 640.003 1113.22 612.081 1095.66C604.897 1091.15 597.444 1086.99 590.176 1082.93C569.64 1071.46 550.495 1060.77 541.751 1044.64C535.859 1033.77 534.626 1019.08 536.872 1005.64C539.201 991.64 545.346 978.841 553.948 972.868C568.078 963.064 562.33 950.434 562.313 950.4Z" fill="#292424"/>
<path fill-rule="evenodd" clip-rule="evenodd" d="M671.623 1171.75C671.969 1170.43 673.32 1169.63 674.653 1169.97C675.979 1170.32 676.78 1171.67 676.434 1173C676.409 1173.11 667.048 1210.53 625.966 1244.01C611.076 1256.14 599.25 1269.19 590.1 1281.27C574.712 1301.56 566.913 1319 564.744 1324.7C561.232 1333.9 557.341 1346.88 557.332 1346.91C556.953 1348.23 555.577 1348.99 554.26 1348.61C553.264 1348.32 552.589 1347.46 552.479 1346.5C552.454 1346.3 544.511 1275.72 552.555 1246.69C554.918 1238.16 557.56 1231.29 560.143 1224.55C566.162 1208.88 571.902 1193.93 573.125 1159.38C574.923 1108.61 602.145 1085.98 602.221 1085.91C603.268 1085.01 604.838 1085.14 605.724 1086.18C606.619 1087.22 606.493 1088.79 605.454 1089.68C605.387 1089.74 579.811 1111 578.089 1159.55C576.839 1194.91 570.948 1210.24 564.777 1226.32C562.245 1232.91 559.662 1239.64 557.341 1248.01C551.559 1268.87 554.395 1312.64 556.244 1333.87C557.442 1330.24 558.793 1326.31 560.093 1322.92C562.338 1317.04 570.365 1299.04 586.133 1278.26C595.486 1265.93 607.581 1252.58 622.843 1240.15C662.65 1207.72 671.606 1171.86 671.64 1171.75H671.623Z" fill="#292424"/>
<path fill-rule="evenodd" clip-rule="evenodd" d="M557.417 1346.3C557.374 1347.66 556.226 1348.74 554.859 1348.7C553.492 1348.66 552.411 1347.51 552.453 1346.15C552.453 1345.97 554.234 1283.38 574.949 1256.38C591.349 1235.01 594.844 1223.54 604.323 1192.44C606.484 1185.34 608.949 1177.27 611.481 1169.26C627.494 1118.58 641.759 1104.89 641.801 1104.85C642.772 1103.88 644.35 1103.88 645.329 1104.85C646.308 1105.82 646.3 1107.4 645.329 1108.38C645.296 1108.42 631.874 1121.27 616.242 1170.77C613.203 1180.38 611.017 1187.56 609.084 1193.89C599.402 1225.64 595.84 1237.34 578.907 1259.41C559.172 1285.15 557.434 1346.14 557.425 1346.31L557.417 1346.3Z" fill="#292424"/>
<path fill-rule="evenodd" clip-rule="evenodd" d="M1264.74 552.396C1263.41 552.067 1262.6 550.709 1262.93 549.375C1263.26 548.042 1264.62 547.233 1265.95 547.562C1266.08 547.595 1309.25 558.243 1319.86 568.392C1325.49 573.784 1330.59 581.731 1333.65 590.463C1336.37 598.259 1337.5 606.713 1335.97 614.593C1334.42 622.558 1330.85 628.767 1326.85 635.745C1322.66 643.059 1317.96 651.252 1314.83 663.097C1312.15 673.222 1305.21 685.396 1297.5 696.364C1286.89 711.483 1274.58 724.493 1269.95 726.67C1267.18 727.977 1263.12 728.02 1257.65 728.087C1246.27 728.214 1228.2 728.416 1205.42 740.464C1200.53 743.046 1196.55 745.214 1192.96 747.163C1169.35 759.996 1161.84 764.071 1137.57 760.941C1109.19 757.279 1090.93 730.239 1090.87 730.163C1090.09 729.032 1090.39 727.48 1091.52 726.712C1092.65 725.936 1094.2 726.231 1094.97 727.362C1095.02 727.429 1112.06 752.647 1138.19 756.013C1160.88 758.941 1168.04 755.052 1190.58 742.801C1194.41 740.717 1198.67 738.406 1203.1 736.06C1226.91 723.464 1245.74 723.244 1257.6 723.118C1262.43 723.067 1266.01 723.025 1267.83 722.173C1271.86 720.274 1283.25 707.999 1293.43 693.504C1300.85 682.941 1307.5 671.315 1310.01 661.832C1313.31 649.32 1318.18 640.841 1322.51 633.273C1326.3 626.675 1329.68 620.786 1331.07 613.657C1332.42 606.679 1331.39 599.12 1328.94 592.1C1326.14 584.094 1321.5 576.846 1316.41 571.978C1306.81 562.79 1264.85 552.421 1264.73 552.396H1264.74Z" fill="#292424"/>
<path fill-rule="evenodd" clip-rule="evenodd" d="M1325.19 709.071C1323.84 709.333 1322.54 708.447 1322.28 707.097C1322.02 705.747 1322.9 704.448 1324.25 704.186C1324.33 704.169 1351.65 698.804 1389.61 709.957C1405.6 714.657 1422.63 713.88 1438.25 710.193C1458.15 705.486 1475.67 696.061 1485.75 687.186C1495.71 678.42 1507.83 670.388 1519.44 665.3C1529.97 660.694 1540.16 658.492 1548.15 660.263C1564.35 663.866 1576.93 671.046 1576.96 671.063C1578.16 671.729 1578.59 673.24 1577.92 674.438C1577.62 674.978 1577.14 675.366 1576.6 675.568C1576.55 675.585 1558.61 682.149 1541.06 689.16C1530.89 693.227 1520.72 692.189 1510.71 691.168C1503.08 690.392 1495.56 689.616 1488.57 691.32C1477.9 700.533 1459.81 710.202 1439.36 715.045C1423.01 718.909 1405.11 719.702 1388.19 714.733C1351.41 703.916 1325.25 709.063 1325.17 709.08L1325.19 709.071ZM1521.43 669.856C1512.8 673.636 1503.84 679.137 1495.77 685.372C1500.87 685.169 1506.03 685.692 1511.24 686.224C1520.63 687.186 1530.19 688.165 1539.22 684.553C1550.98 679.854 1562.9 675.357 1569.56 672.877C1564.64 670.565 1556.51 667.207 1547.08 665.115C1540.2 663.588 1531.05 665.646 1521.43 669.856Z" fill="#292424"/>
<path fill-rule="evenodd" clip-rule="evenodd" d="M1343.89 707.839C1342.52 707.983 1341.3 706.995 1341.15 705.629C1341.01 704.262 1342 703.039 1343.36 702.895C1343.46 702.887 1377.11 699.183 1393.78 687.953C1393.87 687.886 1393.95 687.827 1394.04 687.776C1399.13 684.3 1403.95 680.318 1408.6 676.471C1419.38 667.544 1429.34 659.301 1442.09 658.01C1459.91 656.205 1473.26 659.824 1473.3 659.833C1474.63 660.179 1475.42 661.546 1475.08 662.87C1474.92 663.494 1474.53 664.001 1474.03 664.321L1343.9 707.831L1343.89 707.839ZM1396.27 692.256L1343.89 707.839C1343.99 707.831 1378.48 704.034 1396.27 692.256ZM1411.78 680.301C1409.56 682.14 1407.3 684.005 1404.97 685.852C1409.67 685.372 1414.3 685.186 1418.78 685.009C1429.98 684.578 1440.09 684.182 1446.49 678.985C1453.87 672.994 1461.77 667.106 1466.61 663.562C1461.39 662.744 1452.78 661.917 1442.59 662.955C1431.38 664.085 1421.97 671.872 1411.79 680.301H1411.78ZM1449.62 682.84L1396.27 692.248C1403.84 690.56 1411.63 690.257 1418.95 689.97C1431.02 689.497 1441.93 689.075 1449.62 682.84ZM1394.04 687.776L1394.74 687.498C1394.49 687.557 1394.25 687.65 1394.04 687.776Z" fill="#292424"/>
<path fill-rule="evenodd" clip-rule="evenodd" d="M1367.67 709.99C1366.37 709.585 1365.63 708.185 1366.04 706.877C1366.44 705.569 1367.84 704.835 1369.15 705.24C1369.25 705.274 1405.68 716.622 1421.28 724.865C1423.5 726.037 1425.64 727.345 1427.75 728.737C1432.51 728.855 1459.71 729.581 1482.07 731.176C1507.62 732.998 1514.4 752.529 1514.79 753.702C1514.9 754.014 1514.95 754.343 1514.93 754.698C1514.83 756.065 1513.65 757.102 1512.28 757.009C1512.22 757.009 1491.86 755.432 1469.88 754.149C1453.47 753.196 1442.64 745.417 1432.26 737.942C1427.87 734.786 1423.55 731.682 1418.96 729.26C1403.78 721.245 1367.77 710.024 1367.67 709.99H1367.67ZM1435.15 733.909H1435.17C1444.98 740.971 1455.2 748.319 1470.16 749.188C1486.97 750.167 1501.58 751.213 1508.45 751.728C1505.51 746.514 1498.07 737.301 1481.73 736.136C1465 734.938 1445.81 734.238 1435.16 733.909H1435.15Z" fill="#292424"/>
<path fill-rule="evenodd" clip-rule="evenodd" d="M1354.51 551.644C1355.99 556.369 1360.96 567.835 1373.98 565.54C1379.1 564.637 1385.15 562.773 1391.99 560.663C1410.01 555.112 1433.34 547.915 1460.46 551.467C1484.49 554.614 1510.71 565.051 1526.41 572.129C1512.39 559.879 1486.67 540.778 1457.03 535.057C1417.02 527.329 1365.18 547.274 1354.51 551.644ZM1374.83 570.442C1353.75 574.163 1349.12 550.775 1349.11 550.708C1348.87 549.577 1349.45 548.388 1350.56 547.915C1350.73 547.839 1411.71 521.238 1457.96 530.172C1504.27 539.116 1541.2 579.377 1541.31 579.486C1542 580.237 1542.18 581.376 1541.68 582.33C1541.04 583.545 1539.54 584.009 1538.32 583.367C1538.21 583.3 1496.28 561.161 1459.81 556.386C1433.77 552.977 1411.02 559.989 1393.44 565.405C1386.41 567.573 1380.18 569.497 1374.83 570.434V570.442Z" fill="#292424"/>
<path fill-rule="evenodd" clip-rule="evenodd" d="M619.627 441.662C619.796 443.029 618.825 444.269 617.458 444.438C616.09 444.606 614.85 443.636 614.681 442.269C614.672 442.168 610.173 408.133 621.433 382.021C626.971 369.188 633.285 356.001 640.24 344.89C647.313 333.576 655.079 324.38 663.402 319.756C678.216 311.53 699.647 319.469 715.998 325.527C718.42 326.421 720.741 327.282 722.582 327.932C727.764 329.754 730.178 324.962 732.736 319.874C737.092 311.218 741.776 301.912 757.164 309.607C768.602 315.318 776.528 326.961 781.263 340.309C786.851 356.069 788.033 374.326 785.323 387.893C784.513 391.926 783.559 396.473 782.648 400.802C779.043 417.954 776.308 430.922 777.009 444.859C777.887 462.366 779.111 486.023 779.111 486.091C779.187 487.458 778.132 488.63 776.764 488.706C775.397 488.782 774.223 487.728 774.147 486.361C774.147 486.293 772.924 462.729 772.046 445.087C771.32 430.517 774.105 417.287 777.786 399.789C778.579 396.035 779.415 392.027 780.444 386.923C783.002 374.132 781.871 356.887 776.578 341.962C772.24 329.72 765.107 319.123 754.961 314.044C744.013 308.569 740.476 315.588 737.193 322.119C733.622 329.214 730.263 335.896 720.961 332.631C718.648 331.821 716.529 331.028 714.301 330.21C698.871 324.498 678.638 316.997 665.833 324.11C658.329 328.278 651.146 336.875 644.477 347.531C637.691 358.381 631.478 371.348 626.025 384.004C615.305 408.859 619.636 441.594 619.644 441.687L619.627 441.662Z" fill="#292424"/>
<path fill-rule="evenodd" clip-rule="evenodd" d="M1067.03 408.816C1067.48 410.115 1066.79 411.524 1065.5 411.971C1064.2 412.419 1062.79 411.727 1062.34 410.436C1062.26 410.217 1035.75 333.103 1011.74 315.115C999.555 305.978 991.19 300.435 984.353 296.756C977.634 293.137 972.384 291.315 966.382 289.602C960.026 287.788 952.193 287.079 945.575 288.066C940.35 288.851 935.978 290.665 934.003 293.803C929.943 300.224 929.048 305.244 927.697 312.744C927.343 314.702 926.971 316.819 926.651 318.439C925.503 324.278 924.515 326.632 922.101 326.159C920.168 325.78 919.712 323.755 918.944 320.388C918.421 318.102 917.695 314.921 916.555 311.226C915.939 309.235 914.597 308.754 912.681 309.344C906.586 311.226 896.373 320.498 884.454 331.314C882.268 333.297 880.023 335.339 877.727 337.397C867.817 346.29 860.288 357.705 854.826 370.479C848.707 384.804 845.187 400.852 843.811 417.042C841.228 447.601 850.597 468.06 850.631 468.119C851.197 469.368 850.631 470.845 849.382 471.41C848.318 471.891 847.094 471.562 846.402 470.684C846.056 470.254 808.916 424.138 810.705 383.336C811.364 368.285 814.766 353.166 818.193 337.92C823.899 312.517 829.698 286.725 822.666 261.06C816.91 240.035 813.035 222.671 811.271 208.253C809.473 193.589 809.828 181.837 812.554 172.277C812.934 170.953 814.31 170.194 815.635 170.565C816.386 170.776 816.952 171.316 817.239 171.974C818.252 174.024 832.728 203.005 854.506 224.35C876.03 245.451 880.023 260.435 884.724 278.069C885.214 279.925 885.729 281.84 885.931 282.591C889.662 296.259 890.658 311.04 890.912 318.811C899.057 311.656 906.029 306.189 911.221 304.586C916.15 303.067 919.645 304.4 921.299 309.758C921.738 311.184 922.118 312.542 922.455 313.799L922.801 311.867C924.253 303.784 925.224 298.376 929.791 291.154C932.644 286.64 938.282 284.126 944.849 283.139C952.159 282.042 960.769 282.819 967.741 284.81C974.047 286.607 979.567 288.53 986.7 292.378C993.714 296.166 1002.27 301.827 1014.71 311.15C1039.94 330.065 1066.94 408.605 1067.02 408.825L1067.03 408.816ZM923.055 321.266C923.738 321.401 923.527 321.173 923.097 320.684C922.709 320.987 922.413 321.139 923.055 321.266ZM881.103 327.619C882.783 326.092 884.429 324.598 886.041 323.147C886.016 318.6 885.644 300.384 881.145 283.882C880.512 281.561 880.217 280.448 879.913 279.317C875.405 262.393 871.573 248.025 851.02 227.869C834.129 211.315 821.544 190.341 815.939 180.149C814.774 187.802 814.892 196.854 816.217 207.62C817.965 221.87 821.788 239.005 827.461 259.727C834.821 286.59 828.887 312.989 823.046 338.983C819.67 354.018 816.319 368.926 815.677 383.522C814.512 409.989 830.787 439.122 841.431 455.194C839.295 445.804 837.506 432.473 838.848 416.603C840.257 399.924 843.904 383.345 850.251 368.504C855.983 355.081 863.926 343.067 874.401 333.668C876.68 331.626 878.917 329.593 881.103 327.61V327.619Z" fill="#292424"/>
<path fill-rule="evenodd" clip-rule="evenodd" d="M812.495 173.281C812.309 171.923 813.255 170.666 814.614 170.48C815.973 170.295 817.23 171.24 817.416 172.598C817.433 172.699 822.194 206.447 838.687 237.242C846.301 251.458 850.251 267.952 851.771 284.945C853.653 305.961 851.821 327.745 848.622 346.914C843.001 380.611 847.044 393.714 847.052 393.748C847.441 395.064 846.698 396.447 845.381 396.844C844.064 397.232 842.68 396.49 842.283 395.173C842.275 395.131 837.902 380.949 843.718 346.104C846.858 327.264 848.664 305.902 846.824 285.383C845.356 269.007 841.574 253.171 834.306 239.587C817.391 207.991 812.503 173.391 812.495 173.29V173.281Z" fill="#292424"/>
<path fill-rule="evenodd" clip-rule="evenodd" d="M1162.53 337C1163.1 338.249 1162.55 339.717 1161.31 340.29C1160.06 340.856 1158.59 340.307 1158.02 339.067C1158 339.033 1153.31 328.993 1159.21 323.805C1154.93 323.577 1150.56 323.383 1146.15 323.197C1120.72 322.092 1093.89 320.919 1073.58 312.103C1059.14 305.834 1044.59 295.262 1031.4 283.468C1013.58 267.53 998.213 249.332 989.021 236.575C982.546 227.59 979.837 219.161 979.837 212.175C979.837 208.606 980.546 205.4 981.812 202.658C983.112 199.849 985.02 197.537 987.375 195.841C990.236 193.783 993.739 192.644 997.622 192.644C1005.19 192.644 1016.43 196.086 1028.79 199.866C1040.9 203.578 1054.13 207.628 1065.6 208.919C1071.8 209.619 1076.71 209.729 1080.97 209.813C1093.29 210.074 1100.48 210.226 1115.29 222.679C1125.49 231.251 1134.85 238.87 1142.87 245.4C1146.05 247.982 1149.01 250.395 1151.78 252.664C1147.09 242.709 1139.29 226.257 1130.13 207.417C1119.13 184.789 1113.34 163.418 1108.61 145.962C1106.85 139.44 1105.23 133.467 1103.62 128.43C1100.19 117.631 1098.87 105.102 1101.45 91.7376L1101.47 91.6364C1103.68 80.3056 1108.71 68.3588 1117.62 56.3362C1126.11 44.8872 1138.04 38.5173 1150.9 35.4294C1167.77 31.3796 1186.24 32.9827 1200.59 36.0537L1204.86 36.9649C1227.24 41.7149 1241.13 44.6594 1262.26 61.1368C1273.62 69.9956 1280.12 78.5507 1284.18 88.1688C1288.22 97.711 1289.79 108.088 1291.35 120.795C1293.08 134.851 1290.11 156.382 1282.07 178.225C1275.44 196.246 1265.34 214.563 1251.56 229.142C1247.03 233.943 1242.49 239.047 1238.05 244.244C1239.2 243.308 1240.38 242.371 1241.59 241.443C1250.63 234.533 1261.21 228.248 1273.6 224.189C1284.47 220.637 1297.62 218.149 1312.2 215.39C1330.26 211.973 1350.53 208.142 1371.19 201.342C1388.04 195.791 1405.36 193.327 1420.92 192.888C1440.37 192.34 1457.16 194.989 1466.93 198.752C1469.27 199.655 1471.46 201.055 1473.45 202.878C1478.88 207.855 1482.94 216.056 1484.6 225.632C1486.23 235.073 1485.54 245.932 1481.52 256.393C1479.04 262.839 1475.3 269.125 1470.08 274.82C1458.7 287.222 1439.88 300.426 1419.57 312.027C1396.02 325.475 1370.38 336.831 1352.02 342.315C1342.37 345.192 1325.84 345.361 1307.03 344.096C1311.16 344.762 1315.27 345.412 1319.37 346.044C1338.06 348.947 1352.18 349.056 1363.05 349.132C1379.11 349.25 1388.49 349.318 1395.64 357.898C1397.06 359.603 1398.63 361.408 1400.11 363.121C1404.9 368.63 1408.9 373.228 1410.01 377.286C1411.33 382.129 1409.25 385.673 1401.41 387.807C1398.85 388.508 1395.88 389.655 1392.6 390.938C1377.67 396.751 1356.18 405.112 1324.13 390.76C1305.19 382.273 1285.76 371.752 1268.16 362.227C1250.07 352.431 1233.92 343.682 1222.5 339.405C1202.57 331.938 1196.1 328.799 1194.72 328.091L1192.71 327.635C1186.33 326.192 1179.18 325.281 1171.56 324.64C1169.61 325.247 1167.67 325.728 1165.83 326.108C1158.16 327.669 1162.51 336.992 1162.52 337.017L1162.53 337ZM1171.01 319.595C1175.03 318.27 1179.01 316.397 1182.06 313.925C1185.25 311.335 1187.38 308.07 1187.27 304.079V303.877C1187.05 299.641 1183.58 293.491 1178.91 287.121C1172.2 277.984 1163.12 268.686 1157.25 263.674C1157.17 263.615 1157.1 263.548 1157.03 263.48C1152.47 259.608 1146.59 254.816 1139.74 249.247C1131.88 242.844 1122.72 235.385 1112.1 226.467C1098.63 215.145 1092.09 215.01 1080.88 214.774C1076.47 214.681 1071.38 214.571 1065.07 213.863C1053.17 212.521 1039.7 208.395 1027.35 204.616C1015.4 200.954 1004.52 197.63 997.63 197.63C994.803 197.63 992.296 198.423 990.287 199.874C988.632 201.064 987.282 202.717 986.345 204.742C985.374 206.835 984.834 209.349 984.834 212.175C984.834 218.208 987.265 225.624 993.055 233.673C1002.09 246.218 1017.2 264.105 1034.71 279.772C1047.55 291.255 1061.66 301.523 1075.55 307.547C1095.01 315.992 1121.37 317.139 1146.36 318.228C1154.83 318.599 1163.13 318.962 1171.01 319.595ZM1185.2 317.781C1183.92 318.818 1182.51 319.755 1181.03 320.607C1185.52 321.164 1189.8 321.873 1193.82 322.775L1196.07 323.282C1196.42 323.349 1317.35 347.462 1350.61 337.532C1368.64 332.149 1393.87 320.961 1417.1 307.69C1437.04 296.3 1455.44 283.425 1466.42 271.453V271.445C1471.22 266.222 1474.64 260.477 1476.89 254.613C1480.57 245.054 1481.2 235.115 1479.7 226.459C1478.23 217.946 1474.73 210.766 1470.11 206.522C1468.56 205.105 1466.91 204.034 1465.18 203.367C1455.93 199.807 1439.87 197.309 1421.08 197.832C1405.98 198.254 1389.16 200.65 1372.77 206.05C1351.87 212.935 1331.39 216.807 1313.15 220.258C1298.75 222.983 1285.76 225.438 1275.17 228.906C1263.39 232.761 1253.29 238.769 1244.64 245.375C1235.93 252.031 1228.64 259.312 1222.56 265.615C1211.47 277.089 1195.13 300.51 1192.27 304.644C1192.19 310.078 1189.37 314.406 1185.22 317.772L1185.2 317.781ZM1182.93 284.185C1186.4 288.909 1189.27 293.642 1190.88 297.861C1199.39 285.585 1223.7 251.382 1247.95 225.725C1261.22 211.677 1270.98 193.968 1277.41 176.504C1285.17 155.403 1288.05 134.758 1286.41 121.394C1284.89 109.05 1283.39 99.0019 1279.62 90.084C1275.88 81.2421 1269.84 73.3198 1259.22 65.0431C1239.01 49.2829 1225.54 46.4227 1203.84 41.8246L1199.56 40.9134C1185.78 37.9605 1168.08 36.4081 1152.07 40.2553C1140.26 43.0901 1129.33 48.8948 1121.63 59.2975C1113.2 70.6621 1108.46 81.9255 1106.38 92.5982L1106.36 92.6741C1103.94 105.178 1105.16 116.863 1108.37 126.937C1110.11 132.387 1111.69 138.267 1113.43 144.68C1118.11 161.942 1123.83 183.068 1134.62 205.257C1148.32 233.453 1159.11 256.562 1160.79 260.182C1166.91 265.455 1176.13 274.929 1182.93 284.185H1182.93ZM1251.02 339.447C1240.84 337.565 1231.01 335.667 1221.73 333.794L1224.25 334.739C1236.06 339.168 1252.33 347.977 1270.54 357.831C1288.1 367.339 1307.49 377.835 1326.18 386.204C1356.33 399.712 1376.69 391.79 1390.83 386.289C1394.22 384.973 1397.27 383.783 1400.13 383.007C1404.44 381.834 1405.73 380.366 1405.24 378.569C1404.43 375.624 1400.76 371.406 1396.37 366.352C1394.96 364.732 1393.49 363.028 1391.84 361.054C1386.17 354.254 1377.64 354.186 1363.05 354.085C1352.01 354 1337.68 353.899 1318.63 350.938C1295.92 347.411 1272.68 343.446 1251.03 339.438L1251.02 339.447Z" fill="#292424"/>
<path fill-rule="evenodd" clip-rule="evenodd" d="M1113.28 144.393C1113.91 145.608 1113.44 147.11 1112.22 147.743C1111.01 148.375 1109.51 147.903 1108.87 146.688C1108.81 146.578 1089.64 108.882 1050.37 89.4769C1032.83 80.8037 1015.58 70.0044 1000.46 60.5297C981.381 48.583 965.723 38.7708 957.687 38.3152C950.774 37.9187 949.474 42.23 948.014 47.0643C946.604 51.7553 945.068 56.8343 939.86 60.3104C937.648 61.7868 935.369 63.0018 933.133 64.1914C925.19 68.4099 917.821 72.3246 919.408 87.8824C920.496 98.5635 922.463 114.391 925.848 130.236C929.199 145.92 933.943 161.571 940.569 172.049C953.973 193.226 985.011 218.326 985.095 218.402C986.159 219.263 986.319 220.832 985.458 221.895C984.589 222.958 983.027 223.118 981.964 222.258C981.871 222.182 950.217 196.584 936.365 174.699C929.368 163.646 924.438 147.439 920.978 131.265C917.551 115.252 915.558 99.2132 914.453 88.3633C912.528 69.4898 921.315 64.8157 930.786 59.7873C932.905 58.6567 935.065 57.5093 937.091 56.1678C940.805 53.6958 942.063 49.5111 943.228 45.6385C945.288 38.8046 947.119 32.73 957.941 33.3459C967.226 33.8774 983.382 43.9933 1003.07 56.3197C1018.04 65.7016 1035.12 76.3912 1052.55 85.0138C1093.29 105.153 1113.2 144.275 1113.25 144.385L1113.28 144.393Z" fill="#292424"/>
<path fill-rule="evenodd" clip-rule="evenodd" d="M1181.38 320.962C1182.66 320.473 1184.1 321.106 1184.6 322.38C1185.09 323.662 1184.45 325.096 1183.18 325.594C1183.17 325.594 1178.75 327.096 1180.53 335.955C1180.8 337.305 1179.92 338.612 1178.57 338.882C1177.22 339.152 1175.91 338.275 1175.64 336.925C1173.03 323.881 1181.36 320.971 1181.39 320.962H1181.38Z" fill="#292424"/>
<path fill-rule="evenodd" clip-rule="evenodd" d="M1190.2 242.617C1193.3 231.826 1196.64 215.956 1192.56 207.654C1191.94 206.405 1191.44 205.579 1191.02 205.131C1190.63 205.781 1190.25 206.836 1189.89 208.211V208.219C1188.18 214.952 1187.92 227.515 1189.77 239.58C1189.92 240.558 1190.07 241.571 1190.2 242.608V242.617ZM1197.01 205.46C1204 219.66 1192.99 250.708 1191.39 255.053C1192.94 277.411 1192.25 303.861 1192.24 303.962C1192.2 305.329 1191.06 306.417 1189.7 306.383C1188.49 306.358 1187.5 305.464 1187.31 304.316C1186.96 302.654 1179.78 268.358 1165.15 242.499C1158.63 230.965 1155.99 222.503 1155.66 216.724C1155.49 213.526 1156 211.02 1156.97 209.173V209.164C1158.09 207.021 1159.81 205.739 1161.79 205.241C1163.32 204.861 1164.96 204.971 1166.59 205.528C1174.71 208.321 1175 245.806 1175 250.86C1180.46 262.629 1184.58 274.939 1187.43 284.675C1187.33 271.007 1186.8 252.901 1184.87 240.33C1182.92 227.65 1183.23 214.286 1185.08 207.004C1185.65 204.735 1186.43 202.921 1187.38 201.748C1188.89 199.85 1190.73 199.285 1192.85 200.348C1194.26 201.056 1195.68 202.702 1197.03 205.46H1197.01ZM1169.46 240.052L1169.89 240.811C1169.56 229.025 1168.49 211.451 1164.95 210.236C1164.23 209.991 1163.55 209.924 1162.98 210.067C1162.35 210.227 1161.78 210.683 1161.36 211.476C1160.79 212.564 1160.5 214.201 1160.63 216.454C1160.91 221.567 1163.37 229.261 1169.47 240.052H1169.46Z" fill="#292424"/>
<path fill-rule="evenodd" clip-rule="evenodd" d="M1192.13 304.628C1191.72 305.936 1190.32 306.67 1189.01 306.265C1187.7 305.86 1186.97 304.459 1187.38 303.151C1187.41 303.05 1198.73 266.628 1206.43 243.924C1206.46 243.814 1206.5 243.713 1206.54 243.603C1210.4 232.256 1214.34 221.558 1218.09 214.555C1222.87 205.637 1227.67 202.035 1232.36 208.109C1239.15 216.917 1214.48 242.414 1211.02 245.915C1203.35 268.526 1192.16 304.518 1192.13 304.628ZM1222.47 216.892C1220.1 221.321 1217.61 227.43 1215.1 234.297C1222.28 226.24 1231.29 214.842 1228.43 211.138C1227.19 209.527 1225.06 212.075 1222.48 216.884L1222.47 216.892Z" fill="#292424"/>
<path fill-rule="evenodd" clip-rule="evenodd" d="M1234.26 248.742C1233.34 249.754 1231.77 249.83 1230.75 248.91C1229.74 247.991 1229.66 246.413 1230.58 245.401C1230.73 245.24 1280.28 190.729 1324.63 167.232C1339.51 159.352 1351.67 152.527 1362.91 145.836C1366.39 140.411 1397.52 92.6748 1428.72 74.1304C1432.09 72.1224 1435.5 70.03 1438.66 68.0811C1463.87 52.5824 1474.33 46.1534 1518.96 57.6024C1567.41 70.0384 1570.98 69.0091 1570.99 69.0091C1572.33 68.7054 1573.67 69.5407 1573.97 70.8737C1574.08 71.3715 1574.04 71.8693 1573.87 72.3164L1573.83 72.4092C1573.78 72.5105 1573.73 72.6117 1573.68 72.7045C1572.71 74.451 1567.42 82.0189 1543.66 94.2947C1532.71 99.9475 1524.93 104.79 1517.32 109.523C1506.66 116.155 1496.32 122.592 1478.04 130.827C1447.96 144.376 1372.89 149.616 1365.45 150.105C1354.14 156.829 1341.92 163.689 1326.95 171.619C1283.38 194.703 1234.41 248.581 1234.26 248.733V248.742ZM1372.98 139.728C1387.77 130.616 1401.89 121.225 1419.95 109.228L1431.68 101.441C1453.45 87.0136 1467.39 79.5553 1480.63 75.8009C1493.92 72.0296 1506.29 72.0296 1525 72.4767C1539.67 72.8226 1549.9 72.3586 1556.89 71.6752C1548.8 70.0384 1536.47 67.2289 1517.73 62.4199C1475.16 51.494 1465.22 57.6108 1441.26 72.3333C1438.29 74.1641 1435.09 76.1299 1431.23 78.4163C1407.65 92.4301 1383.89 124.01 1372.97 139.736L1372.98 139.728ZM1422.69 113.379C1404.29 125.604 1389.96 135.13 1374.85 144.419C1397.6 142.554 1451.94 137.129 1476 126.296C1493.98 118.197 1504.18 111.852 1514.7 105.305C1522.37 100.53 1530.22 95.6446 1541.38 89.8822C1553.65 83.546 1560.55 78.8382 1564.42 75.6575C1557.41 76.7964 1545.14 77.9186 1524.88 77.4377C1506.65 77.0074 1494.63 76.9989 1481.97 80.5931C1469.29 84.1957 1455.74 91.4599 1434.42 105.592L1422.69 113.388V113.379ZM1573.83 72.4177L1573.68 72.713C1573.74 72.5864 1573.79 72.4852 1573.83 72.4177Z" fill="#292424"/>
</g>
<defs>
<clipPath id="clip0_157_296">
<rect width="1377" height="1933" fill="white" transform="translate(311 33)"/>
</clipPath>
</defs>
</svg>
