<svg width="2000" height="2000" viewBox="0 0 2000 2000" fill="none" xmlns="http://www.w3.org/2000/svg">
<g clip-path="url(#clip0_157_298)">
<path fill-rule="evenodd" clip-rule="evenodd" d="M676.863 1308.9C676.216 1307.83 676.563 1306.43 677.634 1305.78C678.705 1305.14 680.108 1305.48 680.755 1306.55C681.21 1307.3 838.721 1566.61 862.873 1722.8C887.102 1879.49 828.888 1953.88 828.718 1954.1C827.963 1955.09 826.537 1955.29 825.543 1954.53C824.549 1953.78 824.356 1952.35 825.111 1951.36C825.273 1951.14 882.324 1878.26 858.395 1723.49C834.382 1568.22 677.318 1309.64 676.863 1308.89V1308.9Z" fill="#2B2424"/>
<path fill-rule="evenodd" clip-rule="evenodd" d="M1384.16 1288.79C1384.2 1287.54 1385.24 1286.55 1386.49 1286.58C1387.74 1286.62 1388.73 1287.66 1388.7 1288.91C1388.67 1289.82 1379.06 1602.55 1414.37 1836.79C1414.55 1838.03 1413.7 1839.2 1412.45 1839.38C1411.21 1839.56 1410.05 1838.71 1409.87 1837.47C1374.52 1602.9 1384.14 1289.71 1384.16 1288.8V1288.79Z" fill="#2B2424"/>
<path fill-rule="evenodd" clip-rule="evenodd" d="M1538 1838.69C1538.02 1839.94 1537.03 1840.98 1535.78 1841C1534.53 1841.02 1533.49 1840.03 1533.47 1838.78C1533.46 1838.33 1530.26 1684.69 1527.04 1403.66C1526.77 1379.67 1526.56 1357.18 1526.36 1336.06C1524.26 1110.82 1523.64 1043.73 1462.22 1002.54C1425.27 977.768 1376.72 975.41 1325.85 972.943C1283.66 970.894 1239.88 968.774 1199.4 953.824C1155.82 937.725 1134.42 920.532 1125.21 906.222C1121.9 901.066 1120.14 896.234 1119.47 891.918C1118.78 887.48 1119.26 883.588 1120.42 880.428C1121.72 876.914 1123.88 874.263 1126.29 872.714C1132.37 868.807 1151.19 877.161 1174.41 887.479C1201.84 899.656 1235.62 914.66 1259.23 915.307C1280.17 915.885 1291.65 909.535 1297.74 900.365C1303.9 891.086 1304.75 878.756 1304.26 867.697C1303.58 852.007 1313.43 844.855 1321.97 838.659C1326.38 835.454 1330.4 832.541 1331.82 829.019C1335.61 819.555 1327.62 814.639 1327.6 814.623C1326.54 813.953 1326.22 812.558 1326.89 811.494C1327.56 810.439 1328.96 810.115 1330.02 810.785C1330.05 810.801 1341.26 817.698 1336.03 830.706C1334.13 835.446 1329.6 838.729 1324.63 842.335C1317.01 847.861 1308.22 854.242 1308.8 867.497C1309.31 879.318 1308.36 892.581 1301.52 902.862C1294.62 913.257 1281.92 920.455 1259.11 919.831C1234.61 919.16 1200.37 903.956 1172.58 891.61C1150.59 881.846 1132.77 873.932 1128.74 876.529C1127.11 877.577 1125.62 879.449 1124.68 881.985C1123.76 884.497 1123.38 887.618 1123.93 891.217C1124.51 894.939 1126.08 899.162 1129.03 903.755C1137.78 917.38 1158.46 933.857 1200.94 949.547C1240.79 964.266 1284.21 966.37 1326.04 968.404C1377.56 970.901 1426.73 973.29 1464.73 998.768C1528.13 1041.28 1528.76 1108.93 1530.88 1336.01C1531.07 1357.12 1531.29 1379.63 1531.56 1403.62C1534.77 1684.51 1537.98 1838.23 1537.98 1838.68L1538 1838.69Z" fill="#2B2424"/>
<path fill-rule="evenodd" clip-rule="evenodd" d="M1324.25 837.688C1325.5 837.796 1326.43 838.898 1326.32 840.146C1326.21 841.395 1325.11 842.327 1323.86 842.219C1323.8 842.219 1301.61 840.4 1288.4 828.972C1287.45 828.155 1287.35 826.722 1288.17 825.774C1288.5 825.388 1288.94 825.142 1289.41 825.042C1290.72 824.718 1316.62 818.245 1327.55 810.831C1332.9 807.194 1336.18 803.849 1337.51 800.073C1338.82 796.335 1338.29 791.927 1336.03 786.132C1335.51 784.799 1334.96 783.45 1334.42 782.14C1329.65 770.55 1325.95 761.579 1340.91 751.607C1348.32 746.66 1355.05 742.159 1359.54 737.312C1363.77 732.742 1366.09 727.748 1365.2 721.506C1364.04 713.422 1357.65 706.91 1350.48 699.605C1346 695.05 1341.24 690.195 1337.1 684.369C1336.38 683.352 1336.62 681.934 1337.63 681.202C1338.65 680.47 1340.07 680.716 1340.8 681.733C1344.73 687.259 1349.36 691.983 1353.72 696.414C1361.45 704.282 1368.34 711.303 1369.7 720.859C1370.82 728.673 1368.01 734.815 1362.86 740.379C1357.97 745.658 1351.05 750.297 1343.41 755.383C1331.56 763.282 1334.64 770.75 1338.61 780.398C1339.15 781.701 1339.71 783.049 1340.26 784.483C1342.92 791.326 1343.49 796.713 1341.79 801.552C1340.11 806.346 1336.27 810.384 1330.09 814.576C1321.18 820.618 1303.36 825.959 1294.98 828.255C1307.16 836.285 1324.2 837.68 1324.25 837.68L1324.25 837.688Z" fill="#2B2424"/>
<path fill-rule="evenodd" clip-rule="evenodd" d="M1277.93 665.218C1286.87 668.732 1300.18 673.772 1310.08 676.67C1318.07 679.012 1325.63 680.184 1333.37 679.891C1338.62 679.691 1343.99 678.82 1349.68 677.171C1342.97 675.791 1333.53 673.371 1325.13 669.464C1315.39 664.925 1291.73 664.833 1277.92 665.21L1277.93 665.218ZM1308.81 681.024C1292.2 676.161 1266.5 665.518 1266.43 665.488C1265.66 665.164 1265.09 664.424 1265.03 663.53C1264.95 662.282 1265.9 661.203 1267.16 661.118C1267.29 661.11 1311.89 658.274 1327.06 665.334C1341.1 671.869 1358.33 674.073 1359.07 674.165C1359.87 674.258 1360.61 674.782 1360.93 675.591C1361.39 676.762 1360.82 678.08 1359.65 678.542C1350.29 682.249 1341.81 684.099 1333.53 684.415C1325.27 684.723 1317.27 683.49 1308.81 681.016V681.024Z" fill="#2B2424"/>
<path fill-rule="evenodd" clip-rule="evenodd" d="M1335.04 669.743C1335.27 670.976 1334.45 672.163 1333.22 672.394C1331.99 672.625 1330.8 671.816 1330.57 670.583C1330.57 670.521 1326.59 650.115 1331.31 629.785C1332.16 626.125 1332.81 622.896 1333.26 620.06C1329.14 622.565 1322.71 622.487 1312.66 622.372C1309.57 622.333 1306.1 622.295 1302.23 622.326C1279.74 622.526 1264.08 628.005 1264.04 628.021C1263.55 628.182 1263.01 628.198 1262.5 628.005C1261.32 627.566 1260.72 626.264 1261.16 625.092C1261.16 625.077 1263.27 619.266 1280.69 610.026C1287.88 606.219 1297.68 603.291 1306.9 601.318C1319.88 598.544 1332.05 597.75 1334.38 598.991C1335.25 599.453 1336.03 600.139 1336.68 601.094C1341.57 581.251 1350.09 539.12 1339.96 501.859C1335.83 486.662 1322.91 468.722 1304.84 450.974C1288.77 478 1268.51 521.202 1257.7 605.503C1247.69 683.576 1224.53 743.447 1191.27 783.019C1157.26 823.501 1112.76 842.783 1061.01 838.675C1035.9 836.679 1013.01 833.681 991.769 830.899C928.237 822.576 879.71 816.226 827.877 844.817C798.438 861.054 786.239 892.15 773.177 925.426C755.614 970.185 736.525 1018.82 672.631 1042.44C617.854 1062.68 579.568 1084.25 563.817 1129.25C547.926 1174.64 554.569 1244.05 589.733 1359.94C660.44 1592.96 734.044 1864.95 734.252 1865.75C734.575 1866.96 733.859 1868.2 732.641 1868.53C731.423 1868.85 730.183 1868.13 729.859 1866.92C729.643 1866.13 655.962 1593.83 585.395 1361.26C549.922 1244.36 543.318 1174.09 559.532 1127.77C575.885 1081.06 615.072 1058.87 671.067 1038.18C733.049 1015.27 751.745 967.626 768.946 923.784C782.316 889.714 794.809 857.879 825.688 840.841C878.808 811.533 927.983 817.976 992.355 826.406C1013.44 829.165 1036.18 832.148 1061.37 834.144C1111.59 838.128 1154.78 819.409 1187.8 780.106C1220.5 741.189 1243.31 682.12 1253.2 604.932C1264.25 518.744 1285.13 475.026 1301.48 447.729C1293.48 440.146 1284.57 432.625 1275.06 425.404C1242.52 400.736 1202.86 379.682 1167.44 371.421C1128.71 362.381 1100.97 358.435 1083.21 355.908C1067.08 353.611 1058.75 352.424 1057.13 348.887C1056.92 348.433 1056.82 347.916 1056.83 347.338C1056.87 344.61 1060.83 337.836 1069.06 330.045C1076.98 322.554 1088.99 313.738 1105.44 306.148C1127.94 295.759 1158.81 287.629 1198.91 288.276C1239.51 288.924 1268.12 301.585 1287.96 318.678C1317.93 344.502 1327.79 380.453 1328.78 400.412C1329.37 412.38 1323.28 421.851 1314.24 435.954C1312.07 439.329 1309.73 442.982 1307.26 446.997C1326.3 465.577 1339.98 484.528 1344.37 500.672C1356.32 544.63 1343.11 594.775 1339.22 609.541L1338.74 611.359C1338.63 616.014 1337.73 622.349 1335.77 630.818C1331.26 650.223 1335.05 669.712 1335.06 669.766L1335.04 669.743ZM1334.2 610.712V610.042C1334.16 605.641 1333.39 603.591 1332.27 602.99C1330.64 602.127 1319.9 603.168 1307.85 605.749C1298.98 607.645 1289.59 610.435 1282.81 614.034C1277.08 617.07 1273.22 619.559 1270.63 621.493C1277.65 619.86 1288.77 617.902 1302.21 617.787C1306.13 617.756 1309.61 617.787 1312.73 617.833C1326.44 617.995 1332.19 618.064 1334.2 610.712H1334.2ZM1277.79 421.767C1287.16 428.864 1295.94 436.262 1303.89 443.761C1306.18 440.046 1308.36 436.648 1310.39 433.48C1318.98 420.11 1324.75 411.124 1324.22 400.605C1323.28 381.454 1313.79 346.922 1284.97 322.092C1265.86 305.623 1238.2 293.417 1198.82 292.792C1159.51 292.168 1129.31 300.106 1107.32 310.263C1091.39 317.615 1079.79 326.115 1072.18 333.32C1065.18 339.948 1061.67 345.126 1061.37 347.153C1062.54 348.363 1070 349.427 1083.85 351.399C1101.69 353.943 1129.57 357.911 1168.46 366.982C1204.51 375.397 1244.79 396.752 1277.78 421.767H1277.79Z" fill="#2B2424"/>
<path fill-rule="evenodd" clip-rule="evenodd" d="M672.669 1042.41C671.506 1042.86 670.18 1042.29 669.726 1041.12C669.271 1039.95 669.849 1038.63 671.013 1038.18C671.12 1038.14 707.78 1023.62 757.039 1017.16C783.942 1013.63 802.469 1021.57 823.399 1031.19C831.583 1029.11 867.726 1029.68 903.23 1034.15C928.299 1037.3 953.229 1042.36 968.056 1049.68C1004.63 1067.77 1004.68 1101.52 1004.64 1103.83C1004.66 1104.53 1004.35 1105.24 1003.74 1105.7C1003.07 1106.22 1002.2 1106.3 1001.47 1105.99C988.262 1101.09 972.726 1102.33 956.142 1103.64C939.751 1104.93 922.357 1106.31 904.709 1102.1C882.6 1096.82 853.416 1074.3 835.93 1056.74C830.874 1051.65 826.767 1046.96 824.07 1043.19C821.634 1039.78 820.293 1036.88 820.317 1034.78C800.496 1025.7 782.74 1018.37 757.617 1021.67C708.944 1028.05 672.762 1042.38 672.662 1042.42L672.669 1042.41ZM830.813 1034.59C846.603 1041.79 864.374 1049.28 888.341 1053.09C918.835 1057.94 943.095 1064.21 962.022 1072.26C978.19 1079.13 990.505 1087.31 999.529 1097.02C997.841 1086.5 991.283 1066.24 966.045 1053.75C951.711 1046.66 927.305 1041.75 902.675 1038.64C873.275 1034.94 843.798 1033.76 830.805 1034.59H830.813ZM887.624 1057.57C861.307 1053.38 842.426 1044.94 825.526 1037.16C826.042 1038.05 826.805 1039.19 827.776 1040.54C830.327 1044.1 834.265 1048.61 839.159 1053.52C856.213 1070.66 884.55 1092.6 905.765 1097.66C922.727 1101.71 939.758 1100.36 955.795 1099.1C969.998 1097.97 983.454 1096.91 995.73 1099.6C987.184 1090.59 975.524 1082.93 960.242 1076.43C941.646 1068.53 917.741 1062.35 887.624 1057.57Z" fill="#2B2424"/>
<path fill-rule="evenodd" clip-rule="evenodd" d="M487.346 916.308H487.362C487.423 916.339 487.485 916.362 487.539 916.385L487.608 916.416C488.14 916.678 488.572 917.14 488.764 917.749C488.803 917.864 501.472 957.059 518.827 977.173C527.72 987.484 536.829 998.674 543.927 1010.73C551.094 1022.9 556.18 1035.93 556.904 1049.79C558.176 1074.17 552.874 1090.63 551.679 1093.98C554.354 1108.17 556.211 1121.84 557.374 1131.72C562.43 1111.33 575.592 1072.99 608.298 1034.19C631.695 1006.43 643.995 976.58 649.898 945.222C651.323 937.647 652.379 929.979 653.127 922.226C646.622 916.316 606.04 877.498 604.16 827.415C603.459 808.742 605.771 795.911 609.662 787.341C612.206 781.746 615.435 777.909 618.972 775.412C622.578 772.869 626.493 771.743 630.308 771.597C634.292 771.451 638.168 772.375 641.467 773.878C647.501 776.622 653.766 781.03 659.138 786.517C660.047 784.459 661.041 782.609 662.097 780.953C669.587 769.223 680.253 766.834 690.788 767.258C692.522 767.328 694.225 767.674 695.874 768.276H695.882C702.964 770.834 709.106 778.063 713.275 788.012C717.321 797.668 719.579 809.99 719.04 823.099C719.016 823.638 718.993 824.178 718.962 824.717C721.714 823.854 724.526 823.199 727.386 822.529C732.641 821.296 738.059 820.024 743.446 817.273C746.944 815.485 750.035 814.961 752.67 815.516C755.815 816.171 758.18 818.267 759.699 821.511C761.055 824.401 761.718 828.239 761.641 832.778C761.432 844.453 756.262 861.292 745.18 878.708C724.342 911.453 668.277 921.61 657.558 923.274C656.803 930.935 655.747 938.533 654.337 946.039C648.302 978.105 635.71 1008.65 611.743 1037.09C565.882 1091.5 559.224 1144.68 558.931 1147.18C558.862 1148.29 557.991 1149.2 556.85 1149.3C555.602 1149.4 554.5 1148.47 554.4 1147.21C554.392 1147.11 552.304 1121.79 547.194 1094.73C544.736 1091.64 528.753 1072.12 499.831 1049.04C497.064 1046.83 494.336 1044.34 491.693 1041.61C478.507 1027.97 467.495 1008.29 463.549 987.284C459.58 966.13 462.74 943.619 477.975 924.515C480.064 921.895 482.383 919.336 484.95 916.855C485.204 916.593 485.52 916.385 485.89 916.262C486.375 916.107 486.876 916.115 487.331 916.277L487.346 916.308ZM480.834 928.284C467.14 946.031 464.343 966.854 468.026 986.475C471.802 1006.58 482.353 1025.43 494.983 1038.49C497.473 1041.07 500.054 1043.42 502.674 1045.51C523.697 1062.27 538.024 1077.26 545.368 1085.56C543.565 1077.13 541.468 1068.79 539.033 1061.23C533.723 1044.73 523.274 1034.58 512.662 1024.26C501.11 1013.02 489.358 1001.6 483.231 981.727C475.933 958.069 478.075 939.288 480.834 928.276V928.284ZM549.722 1084.23C551.394 1076.82 553.159 1065.03 552.373 1050.02C551.695 1036.98 546.847 1024.62 540.012 1013.02C533.107 1001.29 524.152 990.305 515.39 980.148C501.603 964.164 490.776 936.868 486.46 924.977C483.493 934.079 479.393 953.93 487.562 980.402C493.35 999.167 504.678 1010.18 515.821 1021.01C526.842 1031.72 537.685 1042.27 543.349 1059.85C545.792 1067.44 547.903 1075.78 549.714 1084.22L549.722 1084.23ZM653.62 916.477C655.361 893.836 654.66 870.516 653.119 846.75C651.439 820.841 653.288 803.17 657.327 791.218C652.048 785.438 645.69 780.798 639.602 778.032C636.874 776.791 633.699 776.021 630.47 776.144C627.487 776.252 624.42 777.138 621.584 779.142C618.671 781.192 615.974 784.428 613.801 789.222C610.163 797.213 608.013 809.374 608.684 827.268C610.333 871.102 642.931 906.135 653.62 916.485V916.477ZM657.65 846.465C658.529 860.051 659.138 873.499 659.176 886.777C664.339 858.44 670.582 823.099 668.794 812.888C667.707 806.669 664.748 800.673 660.756 795.364C657.504 806.661 656.124 823.014 657.643 846.472L657.65 846.465ZM665.927 783.403C664.671 785.361 663.523 787.626 662.498 790.231C667.838 796.627 671.892 804.164 673.279 812.102C675.313 823.731 668.054 863.434 662.683 892.842C661.45 899.577 660.324 905.765 659.43 910.929C667.491 898.036 682.134 873.637 691.844 851.72C698.618 836.431 706.193 829.965 714.316 826.459C714.408 825.28 714.477 824.108 714.531 822.945C715.04 810.53 712.913 798.893 709.098 789.792C705.407 780.991 700.19 774.672 694.356 772.56C693.138 772.121 691.89 771.867 690.626 771.813C681.494 771.443 672.285 773.462 665.935 783.411L665.927 783.403ZM718.554 829.711C717.783 836.624 716.211 843.675 713.714 850.588C703.126 879.849 675.676 906.621 663.222 917.695C681.155 914.204 724.211 903.261 741.373 876.296C751.984 859.627 756.924 843.683 757.117 832.732C757.186 828.879 756.67 825.719 755.606 823.453C754.712 821.542 753.41 820.332 751.761 819.986C750.127 819.639 748.039 820.047 745.519 821.334C739.593 824.363 733.921 825.688 728.426 826.975C725.058 827.769 721.76 828.54 718.554 829.711ZM709.445 849.046C711.503 843.367 712.89 837.595 713.707 831.884C707.341 835.344 701.392 841.378 695.997 853.547C687.174 873.468 674.319 895.408 665.912 909.087C679.359 896.371 700.59 873.553 709.445 849.054V849.046Z" fill="#2B2424"/>
<path fill-rule="evenodd" clip-rule="evenodd" d="M674.967 1041.54C673.796 1041.98 672.486 1041.38 672.054 1040.2C671.615 1039.03 672.216 1037.72 673.387 1037.29C673.834 1037.12 827.554 980.024 883.934 901.088C911.947 861.862 917.588 822.059 914.305 787.912C911.007 753.672 898.715 725.012 890.955 708.289C885.945 697.5 874.024 688.168 860.09 677.263C831.6 654.961 794.917 626.255 788.405 563.879C784.568 527.104 789.315 492.356 797.368 463.28C809.76 418.498 830.267 386.886 839.329 381.854C849.24 376.351 860.144 388.705 873.114 412.04C881.345 426.859 890.546 446.156 900.927 468.135C907.87 454.849 916.016 442.996 924.609 432.932C937.733 417.558 957.045 402.376 974.669 391.533C984.41 385.537 993.697 380.837 1001.19 378.139C1009.28 375.219 1015.57 374.671 1018.63 377.284C1019.09 377.677 1019.47 378.132 1019.78 378.633C1022.91 383.719 1023.73 401.836 1024.79 425.38C1026.11 454.741 1027.82 492.695 1034.51 523.027C1034.99 525.2 1035.42 527.381 1035.79 529.562C1040.95 525.47 1046.2 521.486 1051.52 517.448C1056.87 513.379 1062.31 509.256 1067.82 504.886C1088.07 488.857 1098.78 482.253 1105.19 487.555C1111.18 492.502 1111.64 507.977 1111.64 536.367C1111.64 567.1 1103.69 603.212 1085.32 635.132C1070.17 661.442 1047.94 684.9 1017.26 700.159C983.509 716.936 961.122 726.484 942.657 728.249C926.489 729.79 913.488 725.436 898.885 714.809C906.506 732.225 915.962 757.741 918.829 787.503C922.204 822.575 916.409 863.457 887.641 903.739C830.452 983.816 675.429 1041.4 674.982 1041.56L674.967 1041.54ZM862.872 673.68C874.162 682.519 884.181 690.356 890.616 699.011C890.207 678.951 888.504 626.162 881.53 579.222C877.445 551.749 880.143 525.794 886.994 502.528C890.03 492.209 893.883 482.43 898.33 473.267C887.34 450.001 877.669 429.58 869.146 414.236C857.555 393.367 848.415 381.985 841.533 385.807C833.118 390.485 813.798 420.894 801.738 464.482C793.823 493.088 789.145 527.266 792.921 563.417C799.225 623.873 835.052 651.909 862.88 673.687L862.872 673.68ZM903.37 473.306L903.493 473.568C909.358 485.99 914.906 496.602 919.969 506.274C938.865 542.409 951.034 565.682 944.63 613.708C939.366 653.196 920 681.432 906.922 696.498C922.744 685.393 947.882 662.552 965.167 621.369C983.925 576.679 1006.78 553.044 1031.71 532.814C1031.27 529.878 1030.72 526.942 1030.07 524.006C1023.29 493.281 1021.58 455.103 1020.25 425.58C1019.22 402.723 1018.43 385.129 1015.9 381.021C1015.83 380.914 1015.75 380.813 1015.66 380.744C1013.97 379.303 1009.25 380.05 1002.71 382.416C995.561 384.99 986.576 389.56 977.043 395.417C959.75 406.06 940.838 420.902 928.046 435.891C919.006 446.48 910.467 459.103 903.362 473.321L903.37 473.306ZM915.947 508.37C911.253 499.392 906.136 489.612 900.842 478.569C897.166 486.537 893.952 494.976 891.355 503.808C884.682 526.48 882.046 551.78 886.03 578.567C893.467 628.597 894.931 685.363 895.216 702.294C905.366 692.583 933.664 661.642 940.137 613.123C946.348 566.507 934.442 543.734 915.954 508.37H915.947ZM1036.57 534.718C1039.67 558.053 1036.78 581.211 1029.09 602.234C1019.79 627.68 1003.46 650.021 982.26 665.811C948.252 691.15 910.198 704.382 897.775 708.274C913.049 720.273 925.965 725.266 942.218 723.717C959.981 722.022 981.952 712.612 1015.24 696.074C1045.05 681.255 1066.65 658.452 1081.38 632.859C1099.32 601.694 1107.08 566.399 1107.08 536.352C1107.08 509.356 1106.73 494.722 1102.29 491.038C1098.26 487.717 1088.91 493.951 1070.62 508.424C1065.14 512.762 1059.66 516.932 1054.25 521.039C1048.26 525.586 1042.36 530.071 1036.57 534.718ZM1024.82 600.685C1031.97 581.157 1034.84 559.741 1032.41 538.093C1008.8 557.583 987.169 580.702 969.367 623.126C952.49 663.338 928.146 686.596 911.708 698.618C929.001 692.029 955.319 680.23 979.563 662.166C1000.04 646.908 1015.82 625.299 1024.83 600.685H1024.82Z" fill="#2B2424"/>
<path fill-rule="evenodd" clip-rule="evenodd" d="M917.163 722.099C917.834 721.043 919.229 720.72 920.292 721.39C921.356 722.061 921.672 723.456 921.001 724.519C920.97 724.565 910.197 742.159 895.424 739.477C882.415 737.111 869.677 710.609 867.264 705.338C845.401 704.436 811.547 701.261 773.239 691.274C739.569 682.496 715.972 666.652 699.658 643.895C683.413 621.23 674.458 591.792 670.003 555.695C665.526 519.452 666.836 498.922 672.084 489.589C678.057 478.955 688.067 481.174 700.182 491.046C706.347 496.071 713.483 503.785 721.814 512.786C742.898 535.581 771.751 566.777 811.162 582.205C867.611 604.292 895.069 702.248 895.146 702.533C895.493 703.743 894.792 704.999 893.582 705.346C893.374 705.407 893.158 705.43 892.942 705.43C892.118 705.477 887.147 705.723 878.901 705.646L872.451 705.746C876.181 713.507 886.546 733.258 896.225 735.023C907.939 737.15 917.14 722.153 917.171 722.115L917.163 722.099ZM879.001 701.099L889.921 700.93C884.982 684.9 858.348 605.548 809.505 586.436C769.146 570.645 739.87 538.988 718.484 515.861C710.3 507.006 703.287 499.423 697.315 494.568C687.759 486.777 680.107 484.58 676.045 491.809C671.26 500.332 670.165 519.945 674.512 555.14C678.881 590.489 687.589 619.25 703.349 641.236C719.039 663.13 741.812 678.389 774.371 686.873C820.001 698.764 859.173 700.907 879.001 701.092V701.099Z" fill="#2B2424"/>
<path fill-rule="evenodd" clip-rule="evenodd" d="M728.85 521.348C728.804 522.597 727.748 523.575 726.492 523.521C725.244 523.475 724.265 522.419 724.311 521.163C724.319 520.909 727.833 432.093 743.323 422.629C756.223 414.746 783.882 448.677 794.886 463.227C794.008 452.045 791.935 430.02 787.796 405.221C787.573 404.689 786.987 403.332 786.063 401.329C781.323 392.389 765.579 370.966 721.298 364.199C710.763 362.589 701.662 361.363 693.393 360.246C653.859 354.905 632.697 352.046 613.978 330.946C591.792 305.931 580.116 289.031 580.086 288.985C579.377 287.952 579.646 286.534 580.679 285.833C581.403 285.34 582.305 285.324 583.029 285.702C584.347 286.342 606.727 297.184 640.473 308.436C649.744 311.526 657.766 313.799 664.779 315.788C684.037 321.244 695.79 324.573 708.813 337.905C724.481 353.942 736.718 362.011 738.645 363.244C755.954 368.022 767.883 375.189 776.006 382.194C773.031 377.131 769.54 371.628 765.556 366.103C759.899 358.242 751.152 351.9 741.003 344.533C725.868 333.551 707.681 320.35 691.258 296.206C663.261 255.038 691.767 189.071 691.852 188.886C692.206 188.054 693.046 187.476 694.009 187.507C695.258 187.546 696.244 188.594 696.206 189.842C696.206 189.973 694.241 234.3 726.538 270.543C743.099 289.131 756.655 307.735 767.128 327.07C777.624 346.436 785.022 366.519 789.284 388.02C797.738 430.69 799.965 470.656 799.973 470.771C800.011 471.519 799.68 472.274 799.025 472.744C798.007 473.468 796.59 473.229 795.857 472.212C795.75 472.058 758.296 418.822 745.689 426.521C732.279 434.713 728.858 521.109 728.85 521.356V521.348ZM784.76 388.567C780.583 367.644 773.355 348.085 763.128 329.22C752.832 310.224 739.485 291.898 723.14 273.564C699.843 247.424 693.724 217.184 692.16 201.117C685.64 220.845 674.99 264.224 695.004 293.663C710.948 317.113 728.804 330.068 743.662 340.849C754.112 348.432 763.121 354.967 769.224 363.444C775.713 372.453 780.945 381.4 784.752 388.567H784.76ZM721.968 359.706C723.779 359.984 725.544 360.285 727.263 360.608C721.729 356.293 714.123 349.827 705.554 341.065C693.385 328.611 682.072 325.405 663.546 320.157C656.587 318.184 648.626 315.926 639.04 312.736C616.213 305.13 598.535 297.701 588.948 293.431C594.319 300.568 603.883 312.744 617.369 327.948C634.963 347.777 655.547 350.559 693.994 355.753C702.556 356.909 711.989 358.188 721.968 359.706Z" fill="#2B2424"/>
<path fill-rule="evenodd" clip-rule="evenodd" d="M871.273 410.785C870.718 411.91 869.354 412.372 868.236 411.817C867.111 411.263 866.649 409.899 867.203 408.773C867.273 408.627 892.288 357.934 914.274 353.704C931.652 350.359 943.196 385.523 947.859 403.209C950.81 388.298 955.712 358.312 954.579 328.326C953.762 306.617 948.915 286.257 939.883 269.527C931.56 254.114 919.669 241.791 904.086 234.37C869.446 217.886 870.887 153.006 870.887 152.821C870.903 151.572 871.928 150.563 873.184 150.578C873.947 150.586 874.617 150.971 875.018 151.549C875.056 151.603 889.668 172.919 913.041 190.359L914.536 191.476L914.66 191.576C938.141 209.062 959.303 224.914 962.917 269.072C966.192 309.114 960.397 325.621 959.126 328.689C960.636 371.374 950.202 413.867 950.171 413.991C949.97 414.815 949.308 415.501 948.421 415.678C947.196 415.925 945.994 415.139 945.747 413.914C945.716 413.744 933.771 354.59 915.122 358.181C895.363 361.98 871.342 410.662 871.273 410.8V410.785ZM943.882 267.369C951.265 281.04 955.943 297.023 958.008 314.147C959.311 305.099 960.135 290.789 958.386 269.411C954.941 227.296 934.558 212.037 911.947 195.198L911.816 195.106L910.321 193.988C893.845 181.704 881.607 167.517 875.542 159.818C876.259 176.48 880.605 218.148 906.036 230.247C922.536 238.1 935.105 251.108 943.875 267.353L943.882 267.369Z" fill="#2B2424"/>
<path fill-rule="evenodd" clip-rule="evenodd" d="M950.017 414.407C949.485 415.54 948.137 416.033 947.004 415.501C945.871 414.97 945.378 413.621 945.909 412.488C946.002 412.288 978.384 343.061 1010.77 311.434L1010.84 311.365L1010.88 311.319C1025.87 296.7 1039.48 280.108 1053.26 263.315C1068.92 244.227 1084.79 224.884 1103.18 207.775C1138.14 175.262 1186.32 163.518 1186.46 163.479C1187.68 163.178 1188.91 163.918 1189.22 165.136C1189.39 165.822 1189.22 166.515 1188.83 167.047C1188.75 167.163 1160.02 205.988 1138.67 235.256C1127.67 250.338 1117.86 260.14 1106.16 268.109C1094.5 276.054 1081.04 282.127 1062.65 289.802C1028.26 304.159 1015.18 313.738 1013.9 314.709C982.114 345.774 950.094 414.207 950.002 414.407H950.017ZM1056.77 266.19C1046.77 278.381 1036.85 290.473 1026.4 301.817C1034.27 297.563 1045.51 292.037 1060.92 285.602C1079.05 278.035 1092.29 272.062 1103.61 264.348C1114.88 256.665 1124.35 247.194 1135.02 232.582C1152.03 209.263 1172.72 181.219 1181.23 169.683C1167.24 173.983 1132.82 186.406 1106.28 211.089C1088.08 228.02 1072.32 247.232 1056.77 266.182L1056.77 266.19Z" fill="#2B2424"/>
<path fill-rule="evenodd" clip-rule="evenodd" d="M981.673 356.769C981.142 357.902 979.793 358.395 978.66 357.864C977.527 357.332 977.034 355.983 977.566 354.85C977.627 354.719 997.171 313.66 1004.78 266.905C1004.78 266.82 1004.8 266.735 1004.82 266.651C1005.72 261.087 1006.45 255.446 1006.95 249.781C1009.53 220.913 1002.09 196.823 994.905 173.565C988.802 153.814 982.883 134.655 983.253 113.471C984.078 66.5463 1014.21 45.4924 1014.29 45.4308C1015.31 44.6987 1016.74 44.9376 1017.47 45.9548C1017.81 46.4249 1017.94 46.9798 1017.88 47.5115C1017.77 50.779 1016.17 104.154 1025.42 135.757C1030.3 152.434 1033.98 168.155 1032.54 188.485C1031.1 208.652 1024.61 233.29 1009.21 267.791C1001.46 315.162 981.727 356.646 981.658 356.777L981.673 356.769ZM1011.47 250.167L1011.37 251.176C1022.05 224.774 1026.83 204.861 1028.01 188.161C1029.41 168.533 1025.82 153.251 1021.08 137.014C1013.08 109.687 1013.02 66.7621 1013.25 52.2201C1005.53 59.3408 988.401 78.9845 987.792 113.54C987.438 133.993 993.248 152.819 999.252 172.232C1006.56 195.891 1014.13 220.412 1011.47 250.167H1011.47Z" fill="#2B2424"/>
<path fill-rule="evenodd" clip-rule="evenodd" d="M1025.96 458.01C1025.24 459.027 1023.83 459.274 1022.81 458.549C1021.79 457.825 1021.55 456.415 1022.27 455.397C1022.35 455.282 1050.21 415.663 1067.6 424.132C1084.42 432.332 1089.43 492.997 1089.44 493.166C1089.54 494.415 1088.62 495.517 1087.36 495.617C1086.11 495.717 1085.01 494.785 1084.91 493.536C1084.89 493.367 1080.09 435.268 1065.61 428.217C1051.7 421.443 1026.04 457.902 1025.97 458.002L1025.96 458.01Z" fill="#2B2424"/>
</g>
<defs>
<clipPath id="clip0_157_298">
<rect width="1076" height="1910" fill="white" transform="translate(462 45)"/>
</clipPath>
</defs>
</svg>
