<svg width="2000" height="2000" viewBox="0 0 2000 2000" fill="none" xmlns="http://www.w3.org/2000/svg">
<g clip-path="url(#clip0_157_299)">
<path d="M1450.12 625.001C1450.91 626.752 1451.57 627.934 1451.96 629.159C1453.41 633.317 1451.87 635.243 1447.54 634.849C1447.37 634.849 1447.15 634.849 1446.97 634.718C1434.64 628.415 1421.86 631.479 1408.87 631.61C1389.62 631.785 1371.02 625.439 1355.06 613.533C1347.27 607.712 1339.52 601.89 1329.68 599.614C1324.69 598.476 1320.8 598.783 1316.56 602.153C1301.59 614.102 1284.84 623.163 1267.69 631.523C1265.72 632.486 1263.49 633.799 1261.69 631.654C1260.12 629.772 1260.86 627.408 1262.22 625.57C1265.63 620.93 1268.96 616.247 1272.67 611.87C1287.55 594.318 1302.6 576.854 1315.99 558.12C1337.95 527.35 1349.67 492.772 1352.91 455.217C1353.74 445.763 1354.4 436.309 1354.05 425.804C1351.6 428.736 1351.34 431.538 1350.55 434.033C1338.43 472.9 1323.38 510.63 1298.4 543.02C1254.17 600.315 1197.69 638.351 1124.67 649.031C1100.47 652.576 1076.32 655.771 1051.87 654.896C1046.7 654.721 1041.59 654.108 1036.47 653.758C1034.06 653.583 1031.13 653.758 1030.78 650.738C1030.43 647.367 1033.62 647.499 1035.85 647.061C1049.94 644.435 1063.55 640.102 1077.07 635.55C1080 634.587 1082.89 633.755 1081.14 629.553C1080.79 628.721 1081.14 627.583 1081.27 626.62C1083.98 606.88 1074.97 597.47 1052.35 595.631C1028.85 593.705 1006.89 608.806 996.829 632.179C990.222 647.543 986.372 663.781 988.954 680.37C993.504 709.565 1006.58 733.2 1036.03 744.537C1045.3 748.126 1053.97 752.941 1061.97 758.937C1066.44 762.307 1071.12 765.24 1076.19 767.56C1083.02 770.711 1089.93 771.105 1097.02 768.61C1102.05 766.816 1107.08 764.759 1112.46 764.408C1118.02 764.058 1123.57 764.802 1126.2 770.536C1128.82 776.226 1126.85 781.347 1122.7 785.768C1113.38 795.704 1097.15 797.061 1084.42 788.745C1078.95 785.155 1073.57 781.304 1069.1 776.489C1060.31 766.991 1049.9 759.988 1038 755.085C1032.35 752.766 1027.5 748.695 1021.5 747.032C1019.49 752.591 1017.65 758.193 1015.42 763.664C993.547 817.108 957.06 856.982 905.434 883.156C873.934 899.133 841.603 912.482 806.428 917.516C771.165 922.593 737.215 919.354 705.846 900.533C678.546 884.163 665.071 859.915 663.496 828.531C663.496 828.225 663.189 827.919 662.664 826.912C653.389 842.844 640.046 854.662 627.139 866.874C614.627 878.736 601.502 889.941 590.433 903.334C583.301 912.001 577.133 910.425 573.02 899.92C559.808 866.086 559.064 831.333 566.283 796.273C571.358 771.63 575.514 746.769 584.57 723.046C590.433 707.726 598.439 694.07 610.383 682.865C613.358 680.064 613.139 678.576 609.464 677.131C608.37 676.693 607.408 675.906 606.358 675.336C587.414 665.401 591.177 648.768 599.402 637.257C601.327 634.543 603.82 632.267 606.664 629.115C600.758 630.166 595.902 632.267 590.652 632.661C580.808 633.361 574.333 630.122 570.701 621.105C566.676 611.038 564.489 600.577 566.983 589.679C569.345 579.261 575.601 573.571 586.233 572.346C591.264 571.777 596.339 571.383 601.72 570.901C587.501 564.555 568.47 567.662 561.208 548.754C561.208 548.754 560.726 548.579 560.464 548.754C540.164 565.649 516.145 574.709 491.251 582.063C470.032 588.322 449.601 596.375 431.444 609.331C429.476 610.732 427.244 613.096 424.532 610.995C422.038 609.069 423.176 606.355 423.569 603.816C430.919 558.164 451.744 519.559 484.338 487.038C490.988 480.429 498.557 475.045 507.132 469.005C500.22 466.422 494.488 463.227 491.513 456.749C488.495 450.227 489.151 443.662 491.338 436.046C486.438 438.234 482.063 439.329 478.345 435.521C474.101 431.144 474.232 425.672 475.545 420.376C478.213 409.434 483.638 400.899 496.151 399.586C497.813 399.41 498.339 398.929 498.382 397.003C498.689 375.862 511.332 368.071 530.932 376.825C532.201 377.394 533.47 377.919 534.607 378.445C535.832 377.701 535.045 376.956 534.782 376.344C510.326 322.857 514.264 272.259 550.795 225.425C570.308 200.388 593.277 179.072 623.245 167.123C654.789 154.517 687.208 151.453 719.758 163.14C754.277 175.527 777.421 198.681 784.946 235.667C785.471 238.293 786.259 240.919 787.178 244.508C792.296 237.243 794.003 229.802 795.534 222.317C796.978 215.314 798.115 208.267 799.646 201.307C805.29 175.702 818.546 154.736 838.89 138.41C857.922 123.134 877.566 108.603 898.084 95.3403C900.884 93.502 903.903 91.8825 907.053 90.7445C913.922 88.2496 917.991 91.3572 917.466 98.6231C917.203 101.95 916.46 105.276 915.978 108.603C913.66 124.141 916.197 139.504 917.641 154.868C920.835 189.227 914.71 214.132 895.109 241.926C896.597 242.758 897.384 241.401 898.128 240.744C935.01 210.368 978.585 194.348 1023.82 181.917C1059.3 172.157 1095.35 165.81 1132.19 164.234C1171.39 162.527 1208.75 169.968 1244.11 187.126C1244.63 187.389 1245.24 187.564 1245.72 187.87C1264.76 199.557 1285.45 202.008 1307.37 200.87C1338.74 199.25 1369.84 201.614 1400.73 208.661C1457.39 221.661 1498.34 255.582 1528.83 303.335C1543.01 325.57 1554.82 349.25 1566.5 372.93C1569.39 378.795 1572.19 384.747 1573.41 391.225C1573.98 394.07 1574.03 397.791 1570.66 398.01C1565.01 398.36 1566.81 401.074 1567.73 404.05C1577.92 436.746 1580.06 469.793 1572.06 503.277C1566.37 527.087 1551.54 543.02 1529.36 552.562C1526.6 553.743 1523.8 554.531 1520.78 554.881C1518.42 555.188 1515.49 553.218 1513.69 556.195C1511.2 560.353 1506.74 563.811 1507.88 569.413C1509.14 575.716 1506.74 580.925 1504.16 586.396C1499.52 596.332 1499.78 606.88 1502.45 617.254C1508.01 638.92 1516.41 659.404 1529.14 677.963C1538.33 691.4 1547.47 704.837 1556.35 718.494C1563.92 730.137 1562.56 737.884 1552.19 747.251C1542.88 755.611 1531.89 760.207 1519.64 762.001C1513.83 762.877 1508.27 760.6 1502.58 760.119C1498.43 759.769 1494.27 759.331 1490.2 760.6C1488.36 761.169 1485.83 761.695 1486.31 764.233C1486.74 766.816 1489.28 766.422 1491.21 766.159C1496.72 765.371 1502.19 764.408 1507.66 763.664C1510.81 763.227 1513.96 762.789 1517.11 762.789C1523.41 762.789 1526.43 766.159 1525.03 772.331C1521.57 787.563 1526.64 799.031 1539.2 807.785C1542.35 809.973 1542.79 813.387 1541.96 816.889C1540.86 821.485 1538.19 825.117 1534.96 828.444C1531.94 831.552 1528.53 834.44 1526.47 838.336C1524.5 842.1 1523.06 845.821 1525.03 850.198C1528.79 858.514 1526.91 866.086 1521.35 872.958C1519.73 874.971 1518.24 877.116 1516.32 878.823C1510.28 884.119 1509.58 890.685 1510.06 898.301C1511.2 915.459 1512.43 932.617 1509.1 949.862C1502.19 985.753 1482.68 998.534 1445.4 995.076C1416.44 992.363 1389.44 982.296 1362.1 973.498C1353.57 970.74 1344.82 969.296 1335.81 968.946C1324.96 968.508 1316.6 972.622 1309.77 980.72C1296.26 996.696 1287.37 1015.34 1279.02 1034.21C1263.01 1070.27 1247.61 1106.65 1230.54 1142.27C1220.26 1163.77 1213.83 1186.79 1207.92 1209.9C1207.44 1211.83 1206.96 1213.05 1209.32 1214.1C1221.22 1219.44 1229.01 1229.25 1236.32 1239.44C1245.2 1251.87 1253.91 1264.44 1262.66 1276.95C1267.56 1284 1272.98 1290.61 1279.54 1296.13C1304.92 1317.44 1326.05 1342.7 1347.22 1367.91C1364.94 1389.01 1382.71 1410.15 1398.81 1432.56C1403.57 1439.17 1406.81 1446.91 1411.76 1453.17C1425.49 1470.59 1426.46 1491.52 1429.04 1511.96C1433.28 1545.57 1437 1579.27 1440.54 1613.02C1443.08 1637.27 1445.18 1661.56 1447.06 1685.9C1450.52 1730.41 1455.64 1774.71 1464.21 1818.56C1469.64 1846.45 1473.18 1874.55 1475.33 1902.87C1475.33 1903.26 1475.41 1903.65 1475.37 1904.05C1475.19 1906.32 1476.2 1909.52 1473.01 1909.96C1469.72 1910.39 1469.86 1907.11 1469.38 1904.92C1466.88 1893.85 1466.36 1882.51 1465 1871.31C1461.5 1842.94 1455.9 1814.93 1451.09 1786.79C1446.14 1757.64 1443.3 1728.22 1440.85 1698.77C1437.79 1662.22 1434.99 1625.63 1430.57 1589.21C1427.37 1562.64 1424.05 1536.03 1422.08 1509.37C1419.94 1480.79 1409.48 1455.93 1392.2 1433.61C1362.45 1395.13 1331.12 1357.93 1298.05 1322.3C1296.69 1320.86 1295.42 1319.28 1293.85 1318.1C1268.96 1299.1 1251.15 1274.11 1234.26 1248.29C1233.08 1246.45 1231.59 1244.83 1230.45 1242.95C1217.85 1222.11 1198.3 1213.84 1175.07 1212.44C1166.84 1211.96 1158.66 1210.29 1149.74 1211.69C1153.59 1217.34 1158.35 1221.02 1163.52 1224.17C1173.36 1230.12 1183.16 1236.16 1193.14 1241.85C1205.78 1249.07 1217.33 1257.78 1228.4 1267.11C1231.46 1269.69 1234.26 1272.53 1236.01 1276.17C1237.94 1280.15 1238.68 1284.31 1235.22 1287.77C1231.68 1291.27 1227.79 1289.6 1224.33 1287.37C1200.57 1272.27 1179.14 1254.41 1160.67 1233.18C1146.41 1216.82 1131.01 1202.76 1109.05 1196.94C1088.84 1191.6 1070.24 1181.97 1051.91 1171.99C1042.81 1167 1033.19 1164.42 1022.73 1165.78C1014.94 1166.83 1008.03 1173.79 1006.85 1181.49C1006.19 1185.74 1009.04 1187.66 1012.14 1189.15C1018.75 1192.35 1025.49 1195.28 1032.09 1198.39C1034.94 1199.74 1037.74 1201.19 1038.65 1204.78C1039.31 1207.27 1041.94 1208.1 1043.95 1209.24C1074.92 1226.97 1106.12 1244.35 1136.92 1262.42C1157.39 1274.46 1178.48 1285.84 1194.89 1303.7C1198.12 1307.2 1201.32 1310.75 1204.2 1314.51C1211.03 1323.44 1219.04 1330.97 1228.92 1336.48C1233.3 1338.89 1238.11 1342 1236.27 1347.95C1234.35 1354.12 1228.44 1352.98 1223.59 1352.76C1219.17 1352.59 1215.1 1350.84 1211.29 1348.65C1199 1341.6 1188.76 1332.37 1182.29 1319.54C1169.69 1294.46 1151.14 1275.73 1126.15 1262.42C1097.63 1247.28 1069.89 1230.52 1041.94 1214.32C1037.65 1211.87 1033.84 1208.59 1029.86 1205.65C1018.05 1197.03 1000.11 1200.84 993.81 1213.27C990.704 1219.44 991.229 1225.13 995.647 1230.43C1001.07 1236.91 1007.98 1241.63 1015.12 1245.92C1061.4 1273.85 1105.07 1305.49 1148.12 1338.06C1151.62 1340.68 1154.99 1343.53 1156.6 1347.82C1158.92 1353.99 1155.38 1358.8 1148.9 1358.19C1146.94 1358.02 1144.97 1357.54 1143.09 1356.97C1106.47 1345.28 1069.06 1335.91 1033.97 1319.67C1014.02 1310.44 992.629 1311.18 971.366 1312.41C965.897 1312.72 961.916 1315.69 960.516 1321.08C959.072 1326.55 961.391 1330.79 966.116 1333.68C972.722 1337.75 979.547 1341.21 986.941 1343.7C1010.78 1351.76 1034.76 1359.51 1058.04 1369.18C1081.49 1378.9 1105.85 1386.29 1128.78 1397.37C1134.55 1400.12 1140.07 1403.19 1144.7 1407.65C1146.89 1409.75 1148.69 1412.25 1147.81 1415.57C1146.89 1419.08 1143.79 1419.78 1140.81 1420.17C1124.23 1422.18 1107.52 1421.61 1090.94 1423.28C1064.73 1425.86 1038.61 1423.37 1012.49 1422.01C1009.52 1421.88 1006.5 1421.79 1003.57 1422.1C996.741 1422.8 991.404 1426.04 989.129 1432.78C986.897 1439.43 989.872 1444.68 994.51 1449.32C1003.43 1458.21 1014.81 1460.7 1026.71 1460.92C1038.79 1461.14 1050.9 1460.48 1063.02 1460.26C1083.45 1459.96 1103.8 1461.49 1124.19 1462.93C1139.67 1464.03 1149.39 1473.96 1160.32 1481.71C1192.57 1504.47 1225.03 1526.97 1257.8 1549.03C1263.05 1552.57 1267.82 1554.54 1275.43 1553.54C1289.08 1551.7 1303.04 1551.48 1316.77 1549.47C1320.71 1548.9 1325.13 1549.25 1326.92 1553.76C1328.89 1558.75 1325.13 1561.85 1321.72 1563.95C1310.08 1571.18 1297.31 1572.88 1283.96 1570.08C1281.47 1569.56 1279.02 1568.59 1276.61 1567.68C1268.39 1564.66 1267.51 1565.14 1267.29 1574.33C1266.81 1593.81 1268.12 1613.2 1269 1632.63C1269.83 1651.84 1271.14 1671.1 1270.79 1690.36C1270.71 1695.66 1269.13 1700.47 1265.85 1704.72C1259.94 1712.38 1252.81 1711.55 1249.14 1702.57C1244.67 1691.59 1243.41 1679.9 1243.19 1668.17C1242.71 1642.61 1247.65 1617.66 1252.11 1592.67C1253.95 1582.51 1255.74 1572.36 1257.67 1562.25C1258.24 1559.36 1257.49 1557.52 1254.91 1555.81C1219.39 1532.22 1184.34 1507.89 1150.13 1482.37C1137.88 1473.26 1123.79 1469.72 1109 1468.58C1084.24 1466.74 1059.44 1467.14 1034.63 1467.7C1019.23 1468.05 1004.05 1466.74 991.579 1455.71C983.179 1448.31 979.766 1439.6 982.654 1431.07C985.935 1421.4 994.16 1415.62 1005.75 1415.71C1017.04 1415.79 1028.37 1416.14 1039.62 1417.11C1071.99 1419.82 1104.19 1415.22 1136.48 1414.57C1137.88 1414.57 1140.11 1415.27 1140.42 1413.12C1140.68 1411.42 1138.71 1410.54 1137.44 1409.71C1127.16 1403.23 1115.87 1398.68 1104.59 1394.39C1064.25 1378.9 1024.17 1362.57 982.96 1349.44C975.129 1346.94 968.041 1342.96 961.304 1338.41C954.916 1334.12 952.378 1326.98 954.041 1319.63C955.528 1313.07 961.479 1307.03 968.566 1306.37C990.66 1304.22 1013.02 1303.7 1033.62 1312.89C1069.45 1328.91 1107.12 1339.2 1144.44 1350.79C1146.28 1351.36 1148.86 1352.85 1150 1351.23C1151.53 1349 1148.82 1347.29 1147.29 1346.07C1136.35 1337.49 1125.72 1328.52 1114.25 1320.68C1087.17 1302.25 1061.4 1282.03 1033.58 1264.74C1024.22 1258.92 1015.29 1252.22 1005.1 1247.67C1001.42 1246.05 998.316 1242.9 995.166 1240.14C978.716 1225.66 983.222 1203.82 1004.09 1196.64C1005.4 1196.2 1006.72 1195.76 1009.39 1194.89C1000.55 1190.29 998.535 1183.81 1002.08 1175.67C1006.19 1166.26 1012.8 1160.22 1023.6 1159.43C1034.19 1158.69 1044.25 1160.61 1053.44 1165.74C1075.05 1177.68 1097.59 1187.31 1121.12 1194.8C1127.55 1196.86 1133.64 1199.83 1139.24 1203.68C1140.64 1204.65 1141.9 1205.96 1144 1205.65C1162.9 1202.9 1181.41 1205.22 1199.7 1210.25C1201.71 1210.82 1203.07 1211.61 1203.85 1208.37C1210.2 1182.11 1217.77 1156.19 1229.84 1131.95C1247.82 1095.88 1262.22 1058.19 1279.19 1021.69C1286.41 1006.15 1295.21 991.575 1304.7 977.393C1315.86 960.717 1332.17 959.666 1349.67 962.555C1363.63 964.875 1376.89 969.733 1390.14 974.417C1410.44 981.551 1431.36 985.972 1452.79 987.854C1463.91 988.817 1474.49 986.585 1484.51 981.595C1489.76 978.969 1493.09 974.592 1495.54 969.515C1503.11 953.976 1505.91 937.388 1504.64 920.361C1503.89 909.812 1504.59 899.395 1505.12 888.934C1505.38 883.244 1509.36 879.392 1512.73 874.359C1485.17 874.796 1462.68 861.578 1439.27 851.248C1437.83 850.592 1436.87 849.585 1436.74 848.228C1436.56 846.302 1438.53 846.346 1439.71 845.908C1446.93 843.194 1454.11 840.875 1461.94 839.824C1472.74 838.38 1482.89 833.74 1492.43 828.4C1503.98 821.878 1515.27 814.919 1526.78 808.354C1528.96 807.084 1529.14 806.165 1527.61 804.37C1519.64 795.179 1516.98 784.63 1519.73 772.769C1520.65 768.873 1518.94 767.516 1515.4 767.998C1509.32 768.873 1503.28 769.923 1497.2 770.843C1494.66 771.237 1492.08 771.543 1489.54 771.63C1485.34 771.806 1482.02 770.274 1481.01 765.853C1479.96 761.213 1482.63 758.149 1486.48 756.399C1493.66 753.16 1501.4 753.947 1508.75 755.042C1524.15 757.318 1536.84 751.89 1548.21 742.392C1556 735.87 1556.79 730.662 1551.23 722.214C1540.29 705.45 1528.66 689.08 1518.07 672.098C1506.65 653.758 1499.17 633.711 1495.19 612.439C1493.39 602.81 1494.14 593.443 1499.83 584.951C1500.48 583.945 1501.01 582.894 1501.53 581.844C1504.86 575.016 1504.55 574.709 1497.38 573.527C1483.94 571.383 1471.17 567.181 1459.49 560.046C1456.25 558.077 1455.51 558.514 1453.8 562.104C1447.81 574.753 1447.89 588.278 1447.02 601.672C1446.8 605.261 1450.17 606.53 1452.57 608.062C1457.39 611.17 1462.72 613.49 1467.14 617.254C1469.42 619.18 1472.22 621.149 1470.69 624.651C1469.2 628.021 1465.83 627.671 1462.86 627.277C1458.79 626.708 1454.76 625.789 1450.17 624.957L1450.12 625.001ZM678.546 686.979C684.802 696.083 685.721 705.013 684.365 714.598C682.615 726.941 681.565 739.416 680.296 751.846C678.064 773.381 674.433 794.654 667.958 815.4C667.127 818.114 662.927 821.397 668.439 824.023C668.921 824.242 668.527 826.255 668.571 827.437C668.658 830.589 668.221 833.871 668.877 836.935C674.389 863.635 688.083 884.207 712.671 897.382C744.346 914.365 777.815 916.422 812.159 910.031C849.609 903.072 883.997 887.884 916.897 868.931C962.354 842.713 992.672 803.977 1011.62 755.698C1012.84 752.591 1015.77 748.17 1012.62 745.938C1009.3 743.618 1006.37 747.995 1003.74 750.227C992.016 759.988 981.735 771.455 968.741 779.728C944.985 794.829 919.653 806.471 892.484 813.912C852.54 824.855 812.903 827.787 773.571 811.199C738.221 796.273 712.233 772.856 702.39 734.47C699.721 724.053 699.896 713.635 703.877 703.481C705.058 700.504 706.677 697.615 710.527 697.528C714.115 697.44 715.69 700.154 717.09 702.78C721.027 710.134 723.652 718.1 726.758 725.803C740.977 761.126 766.134 783.842 803.628 791.896C836.309 798.943 869.122 797.499 901.716 791.152C937.328 784.236 967.647 767.691 991.36 739.854C995.035 735.564 999.716 730.881 997.222 724.622C994.641 718.231 987.904 718.669 982.304 718.012C964.322 715.867 946.21 717.399 928.185 716.787C900.228 715.824 872.228 715.605 844.753 709.608C820.034 704.225 797.809 693.939 780.221 675.03C774.49 668.859 770.859 661.724 769.852 653.408C769.327 648.856 768.846 643.647 773.659 641.196C778.559 638.745 781.184 643.384 783.853 646.361C795.446 659.185 808.878 669.296 824.584 676.737C870.566 698.447 919.347 704.662 969.485 703.481C972.416 703.393 975.435 702.824 978.235 701.949C982.697 700.504 985.016 697.747 983.66 692.451C978.279 670.784 981.56 649.819 990.047 629.641C1000.59 604.604 1025.31 588.584 1051.39 589.197C1072.65 589.679 1084.24 599.264 1088.57 619.88C1088.66 620.186 1088.97 620.449 1089.27 620.843C1091.9 619.924 1093.17 617.516 1094.65 615.547C1101.09 607.012 1107.34 598.301 1113.69 589.635C1118.02 583.726 1122.22 577.642 1128.52 573.527C1136.48 568.363 1144.27 572.433 1144.84 581.931C1145.27 589.591 1141.82 595.806 1137.62 601.628C1127.99 614.934 1115.35 624.651 1100.78 632.048C1087.44 638.832 1073.3 643.384 1059.04 647.586C1057.95 647.893 1056.15 647.499 1056.2 649.862C1082.14 649.425 1107.65 646.229 1133.07 641.677C1209.06 628.021 1264.41 584.689 1305.44 521.397C1326.36 489.183 1338.82 453.072 1349.24 416.262C1350.24 412.717 1350.24 407.07 1355.71 407.946C1360.66 408.733 1359.96 414.117 1360.13 417.881C1360.61 430.4 1360.22 442.874 1359.26 455.349C1356.02 495.704 1343.07 532.427 1319.05 565.08C1305.84 582.982 1291.36 599.833 1276.7 616.553C1274.64 618.917 1272.19 621.105 1270.57 625.307C1284.97 616.685 1298.36 608.894 1310.69 599.483C1312.01 598.476 1314.19 597.82 1313.58 595.5C1312.4 590.685 1316.03 589.285 1319.18 588.716C1326.92 587.271 1332.09 582.238 1337.34 577.029C1346.48 567.881 1354.92 558.164 1362.54 547.703C1363.41 546.478 1364.9 545.471 1364.29 543.282C1358.25 543.37 1352.12 543.939 1346.04 543.151C1342.81 542.757 1338.3 543.589 1337.91 539.124C1337.51 534.66 1342.28 534.66 1345.3 533.784C1354.44 531.114 1363.63 528.663 1372.86 526.256C1375.53 525.556 1377.37 524.242 1378.68 521.704C1391.37 496.799 1401.17 470.843 1405.37 443.137C1410.31 410.484 1410.09 377.482 1409.79 344.523C1409.7 336.776 1408.91 329.072 1409 321.325C1409.09 311.87 1414.25 308.325 1423.04 311.389C1435.34 315.635 1446.67 321.631 1456.73 329.947C1469.2 340.233 1479.79 352.358 1489.46 365.226C1504.2 384.791 1518.16 405.101 1524.19 429.174C1531.81 459.682 1532.64 490.758 1527.65 521.923C1527.43 523.28 1526.82 525.118 1527.43 525.906C1531.37 530.939 1528.04 534.879 1525.77 538.949C1523.93 542.188 1521.74 545.208 1519.6 548.491C1523.06 549.717 1525.55 548.141 1527.96 547.09C1547.43 538.555 1561.51 524.68 1566.02 503.539C1576.08 456.749 1571.49 412.235 1544.14 371.31C1519.16 333.887 1487.31 306.443 1442.12 296.945C1439.62 296.42 1437.17 295.369 1434.9 294.231C1431.66 292.612 1428.34 290.686 1428.77 286.353C1429.17 282.238 1432.45 280.4 1435.91 279.174C1437.92 278.474 1440.15 278.211 1442.29 278.211C1450.08 278.211 1457.26 280.794 1463.64 284.777C1501.44 308.369 1535.04 336.294 1557.4 375.862C1559.33 379.276 1561.12 382.822 1564.58 385.273C1563.88 382.647 1562.96 380.152 1561.78 377.744C1550.44 354.327 1537.84 331.611 1525.03 308.982C1515.97 292.962 1503.63 279.568 1490.94 266.35C1463.99 238.381 1431.27 221.836 1393.51 213.826C1361.71 207.085 1329.72 206.866 1297.57 208.748C1289.52 209.23 1281.77 208.617 1274.07 206.341C1261.26 202.621 1249.44 196.405 1237.28 191.022C1212.39 180.035 1186.79 172.594 1159.4 171.062C1122.39 169.005 1086.12 173.776 1050.29 182.092C993.591 195.223 939.341 214.176 894.147 252.869C888.766 257.464 883.209 261.841 878.178 268.494C881.459 267.838 883.559 267.444 885.616 266.962C902.722 263.154 920.091 261.535 937.591 261.885C979.722 262.717 1019.84 273.878 1059.83 285.696C1062.28 286.44 1064.99 287.403 1064.99 290.642C1064.99 293.575 1062.5 294.494 1060.27 295.325C1042.46 302.11 1025.62 311.039 1008.47 319.311C982.129 332.005 955.441 343.604 926.566 349.206C919.347 350.607 911.997 351.395 904.297 352.489C914.753 362.469 916.984 366.758 920.441 383.609C922.322 382.997 924.16 382.34 926.041 381.727C939.516 377.35 952.991 377.307 966.291 382.209C974.21 385.141 975.566 388.949 971.979 396.478C970.885 398.798 969.835 401.161 968.741 403.525C967.866 405.363 968.347 406.107 970.404 406.851C980.904 410.791 985.279 416.743 985.191 426.504C985.104 438.278 978.847 449.44 969.879 452.635C966.641 453.773 966.379 455.261 966.51 458.194C966.947 468.479 961.654 475.176 951.547 477.233C947.172 478.109 942.666 478.503 938.203 479.116C941.616 487.957 941.966 488.088 940.216 492.159C938.816 495.398 939.166 496.886 942.578 498.374C946.778 500.169 950.672 502.839 951.328 508.048C951.635 510.542 953.56 510.411 955.31 510.63C976.091 512.906 996.654 511.637 1016.3 504.24C1043.77 493.866 1070.15 480.91 1095.79 466.51C1127.73 448.608 1156.95 426.723 1186.49 405.276C1188.89 403.525 1191.3 401.774 1193.84 400.242C1195.94 399.017 1198.34 398.316 1200.49 400.242C1202.32 401.905 1202.28 404.138 1201.62 406.326C1200.66 409.828 1198.95 412.935 1196.85 415.868C1190.47 424.841 1182.55 432.369 1174.15 439.329C1140.59 467.123 1101.79 484.718 1060.88 498.462C1041.1 505.115 1020.41 508.354 1000.77 515.313C983.791 521.31 966.291 522.36 948.528 521.31C946.166 521.179 943.76 521.003 942.053 518.946C939.516 515.882 938.247 517.458 937.11 520.216C935.753 523.586 933.96 527.087 930.722 528.576C923.328 532.034 919.872 538.38 916.241 545.121C912.303 552.343 906.616 557.902 897.384 557.158C895.066 556.982 894.409 558.296 893.447 559.915C888.153 568.844 882.859 570.157 873.628 565.124C872.316 564.423 871.309 562.935 869.122 563.285C870.172 565.299 871.178 567.137 872.141 569.019C876.297 577.16 880.059 585.52 881.941 594.493C883.953 604.342 879.622 611.651 870.041 613.883C865.884 614.846 863.084 616.816 860.328 619.88C845.19 636.731 823.797 636.162 809.884 620.755C809.053 619.836 808.396 619.311 806.953 619.442C796.103 620.361 794.178 619.092 789.278 609.331C786.346 603.51 785.296 597.163 783.721 590.379C775.977 596.901 768.146 595.981 760.096 593.136C752.746 590.554 746.271 586.221 739.665 582.238C736.427 580.312 733.146 578.386 729.296 577.948C728.115 577.817 726.671 577.861 726.19 579.086C725.665 580.487 727.021 581.231 727.983 581.756C733.409 584.689 738.921 587.359 744.302 590.379C752.134 594.756 759.571 599.702 764.777 607.274C771.165 616.641 771.646 627.671 765.609 635.024C760.009 641.852 751.915 645.048 744.084 648.418C735.902 651.963 727.546 654.196 719.19 646.448C720.196 655.246 720.283 662.731 718.533 670.172C716.477 678.794 711.402 683.959 702.608 685.798C695.171 687.373 687.69 687.592 678.852 686.848L678.546 686.979ZM756.29 324.126C756.29 322.156 756.29 320.231 756.29 318.261C756.115 302.504 756.071 286.571 763.159 272.215C766.702 265.08 764.777 260.791 760.009 256.195C758.302 254.532 756.596 252.825 754.715 251.38C740.452 240.482 725.315 230.984 708.515 224.637C692.94 218.728 676.752 216.496 660.039 218.597C643.152 220.741 628.189 227.788 613.358 235.536C608.852 237.899 603.908 242.014 598.702 237.33C595.464 234.441 597.652 227.701 603.208 221.485C612.264 211.331 623.945 205.728 636.721 202.052C665.464 193.823 693.246 199.075 719.758 210.237C741.109 219.209 761.277 230.808 768.977 255.32C769.284 256.326 770.334 257.639 771.252 257.815C773.877 258.384 781.665 250.242 781.228 247.529C775.934 211.856 757.734 185.944 724.221 171.15C693.596 157.581 662.752 158.851 631.952 169.443C602.377 179.641 579.801 199.644 559.676 222.974C528.832 258.734 518.332 299.396 529.27 345.442C533.732 364.132 540.864 381.377 556.745 393.501C558.583 394.902 560.289 397.353 563.92 395.646C553.639 383.259 549.264 368.684 546.026 353.671C542.832 339.008 540.645 324.301 546.245 309.726C547.864 305.48 548.958 299.265 554.908 299.921C560.901 300.578 560.551 306.881 561.208 311.345C563.439 327.278 563.964 343.341 564.839 359.405C565.145 365.007 565.626 370.61 567.42 377.088C569.083 374.243 570.089 372.317 571.27 370.566C577.001 361.987 584.614 355.903 595.289 356.647C600.845 357.041 602.333 354.152 605.22 350.87C608.72 346.886 608.458 343.954 606.533 339.402C598.789 321.237 604.827 303.335 621.408 293.75C629.983 288.76 639.083 290.292 645.514 297.777C646.521 298.958 647.483 300.14 649.321 302.329C650.502 287.622 656.496 277.73 671.589 278.211C686.508 278.649 691.452 289.767 694.033 303.335C696.921 300.096 698.933 297.076 702.083 295.413C712.802 289.679 723.258 289.548 733.496 296.639C743.602 303.642 749.902 313.621 756.334 324.126H756.29ZM1385.29 522.623C1387.82 522.229 1389.14 522.01 1390.49 521.791C1410.18 518.552 1430.22 518.115 1448.46 526.125C1467.58 534.572 1485.61 545.734 1501.79 559.346C1503.41 560.703 1504.2 561.622 1505.73 559.215C1514.31 545.734 1521.61 531.815 1523.32 515.532C1524.85 501.263 1524.41 486.95 1523.98 472.725C1523.23 449.308 1519.25 426.635 1507.74 405.713C1495.32 383.128 1480.49 362.425 1462.38 344.085C1451.83 333.405 1439.84 324.739 1425.67 319.311C1416.22 315.678 1415.39 316.116 1415.91 326.052C1417.31 351.263 1416.52 376.431 1415.82 401.643C1415.08 429.918 1411.41 457.756 1401.69 484.543C1397.1 497.236 1391.63 509.536 1385.2 522.623H1385.29ZM675.746 604.429C670.671 607.274 669.183 611.213 667.783 615.109C665.946 620.186 665.508 625.57 664.852 630.866C663.058 645.573 659.777 659.754 652.208 672.71C645.733 683.784 635.233 687.942 623.333 683.609C619.395 682.165 617.295 683.303 614.714 685.973C602.42 698.622 593.845 713.373 588.683 730.18C580.283 757.493 574.726 785.462 570.483 813.737C566.283 841.619 569.52 868.669 578.926 895.106C581.551 902.503 582.076 902.634 587.239 896.375C593.583 888.715 600.452 881.625 607.802 874.884C617.164 866.349 626.308 857.551 635.671 848.972C652.821 833.259 662.839 813.912 667.171 791.021C672.421 763.489 675.002 735.695 678.152 707.945C678.677 703.13 677.627 698.447 675.089 694.245C671.721 688.643 668.789 687.986 663.364 691.488C659.471 693.983 656.364 697.265 653.521 700.898C643.502 713.854 635.889 728.211 630.07 743.486C623.42 760.907 616.639 778.284 608.983 795.266C604.258 805.815 600.758 816.714 599.008 828.181C597.564 837.592 596.252 847.002 594.414 856.325C593.539 860.659 592.533 866.217 586.408 865.648C580.326 865.079 580.064 859.521 579.408 854.75C579.32 853.962 579.408 853.174 579.408 852.386C580.02 840.218 583.083 828.663 586.933 817.064C598.92 780.866 620.183 749.22 636.02 714.948C636.677 713.504 637.508 712.147 638.339 710.79C645.689 699.498 652.514 687.592 666.164 682.515C668.133 681.771 667.871 680.808 666.996 679.407C663.233 673.367 664.108 666.801 665.027 660.323C666.602 649.512 669.708 639.051 672.246 628.459C674.039 620.843 675.877 613.227 675.658 604.385L675.746 604.429ZM631.82 528.401C625.214 515.926 619.308 505.159 613.795 494.216C612.483 491.634 611.389 491.765 609.245 492.553C604.039 494.566 598.614 495.704 593.102 496.361C580.939 497.849 571.095 492.641 561.995 485.462C560.289 484.105 559.064 482.573 556.483 484.631C540.164 497.587 523.582 510.192 510.72 526.912C502.889 537.155 494.532 547.003 485.126 555.888C481.101 559.696 476.901 563.373 472.001 566.087C469.682 567.356 467.188 568.45 464.826 566.349C462.42 564.204 463.426 561.666 464.52 559.258C466.226 555.363 468.982 552.255 471.738 549.104C484.951 534.178 500.176 521.485 516.276 509.886C524.501 503.933 532.376 497.718 539.157 490.058C542.701 486.031 546.289 482.092 551.058 479.378C552.633 478.459 554.82 477.277 554.645 474.957C554.076 467.998 557.401 462.921 562.914 458.544C554.645 457.231 546.989 458.325 540.251 461.564C534.87 464.146 529.401 466.554 523.582 467.735C516.014 469.311 509.32 472.55 503.326 477.277C467.495 505.465 443.738 541.575 432.582 585.827C431.051 591.867 429.869 598.039 428.382 604.911C430.088 604.166 430.832 603.948 431.444 603.554C449.907 590.773 470.207 582.194 491.645 575.716C508.532 570.639 524.895 564.38 540.557 555.844C556.833 547.003 566.195 531.683 578.926 519.515C584.264 514.438 589.864 512.031 597.17 513.563C603.252 514.832 608.939 516.933 614.452 519.734C619.702 522.404 624.995 524.987 631.733 528.313L631.82 528.401ZM824.89 380.983C844.447 369.734 862.209 355.64 884.741 350.388C882.334 349.163 880.059 348.418 877.784 347.806C875.378 347.149 871.79 347.105 872.622 343.56C873.409 340.146 876.909 341.109 879.184 341.94C896.641 348.418 914.053 345.573 931.335 341.59C964.279 334.018 994.641 319.88 1024.65 304.824C1033.97 300.14 1043.38 295.719 1053.27 290.905C1020.72 280.925 988.866 271.602 955.397 268.538C926.128 265.824 897.603 268.057 869.472 276.198C863.478 277.949 858.009 280.662 852.759 285.127C859.015 287.009 863.74 290.248 866.409 295.238C869.516 301.059 872.578 303.861 878.659 298.915C879.797 297.995 881.634 297.908 883.166 297.47C898.084 293.181 913.484 291.605 928.841 289.635C953.822 286.396 978.891 283.77 1004.14 285.477C1009.69 285.871 1015.25 286.134 1020.54 288.016C1022.51 288.716 1024.17 289.942 1024.17 292.218C1024.17 294.538 1022.42 295.632 1020.45 296.332C1015.47 298.127 1010.26 297.777 1005.14 297.383C978.585 295.282 952.028 294.406 925.472 296.551C909.459 297.82 893.491 299.527 878.266 305.305C875.684 306.268 872.709 306.618 873.978 310.82C879.272 328.328 872.972 341.678 859.19 352.62C847.553 361.856 836.309 371.529 824.89 381.027V380.983ZM808.571 395.778C813.953 414.467 809.709 429.656 795.884 441.78C791.159 445.938 790.371 449.79 793.215 455.217C799.559 467.429 808.046 478.196 816.096 489.226C819.509 493.866 823.272 498.199 828.04 501.57C832.503 504.677 837.272 505.772 842.697 504.852C854.115 502.926 860.284 495.923 863.04 485.068C864.747 478.372 864.659 470.668 868.728 465.197C873.409 458.938 869.953 455.918 866.322 452.197C862.778 448.608 858.447 446.201 853.547 444.887C844.578 442.436 835.565 440.029 826.597 437.534C823.928 436.79 821.171 436.177 818.721 434.908C814.74 432.807 814.784 428.955 818.59 426.46C820.471 425.235 822.615 424.885 824.803 424.578C837.097 422.652 849.347 424.578 861.553 425.541C871.572 426.285 881.591 428.167 891.959 424.403C886.709 420.376 888.241 415.999 890.822 411.622C895.066 404.532 901.234 399.104 907.316 393.764C911.822 389.781 913.178 385.535 912.259 380.152C909.941 366.583 901.716 352.095 882.334 358.354C876.647 360.193 871.047 362.031 865.709 364.701C850.222 372.448 836.484 382.953 822.003 392.32C817.978 394.902 814.04 397.572 808.659 395.778H808.571ZM829.44 291.517C836.222 287.359 842.478 284.427 847.64 278.474C855.34 269.545 865.272 262.585 874.241 254.794C902.416 230.196 914.359 198.944 911.997 162.002C910.728 141.736 906.703 121.559 910.947 100.812C901.672 106.458 890.778 120.027 882.553 134.471C868.334 159.376 861.115 186.82 852.847 213.957C845.059 239.519 839.503 265.737 829.44 291.517ZM1336.51 585.958C1347.57 587.096 1355.67 592.217 1363.94 596.813C1383.14 607.449 1404.01 608.543 1425.19 607.887C1428.47 607.799 1431.84 606.705 1434.99 605.567C1438.31 604.385 1441.07 601.934 1440.85 598.126C1440.11 583.813 1443.56 570.595 1450.43 558.164C1451.57 556.151 1451.09 555.013 1449.25 553.831C1439.14 547.441 1428.91 541.488 1416.92 539.212C1402.92 536.542 1389.31 539.737 1375.62 541.794C1374.13 542.013 1373.08 542.801 1372.25 544.027C1362.19 558.821 1350.51 572.258 1336.51 585.914V585.958ZM816.709 287.666C821.215 266.131 829.659 246.215 839.897 227.307C846.109 215.839 850.178 203.934 853.94 191.722C859.453 173.689 865.403 155.83 874.372 139.154C881.197 126.417 889.247 114.512 899.397 104.007C897.472 102.913 896.641 104.138 895.766 104.751C880.322 114.818 865.841 126.329 850.878 137.097C824.803 155.874 808.965 180.911 803.846 212.775C801.703 226.081 799.821 239.562 791.203 250.724C789.234 253.306 791.771 253.262 792.821 253.875C803.321 260.178 810.365 269.107 813.821 280.925C814.478 283.157 814.609 285.652 816.665 287.709L816.709 287.666ZM752.79 441.736C753.665 450.534 752.527 457.318 750.209 463.884C741.196 489.402 746.709 514.394 753.49 539.124C755.94 548.01 761.671 551.073 770.859 549.673C784.596 547.572 797.065 542.144 808.265 533.872C813.428 530.064 814.828 525.162 812.596 519.209C810.015 512.337 808.353 505.203 807.04 497.98C806.428 494.523 805.465 490.89 803.628 487.913C797.021 477.102 790.109 466.51 783.153 455.874C780.79 452.241 777.334 449.746 772.959 449.396C766.134 448.871 759.79 446.988 752.79 441.692V441.736ZM744.346 532.165C740.452 541.138 737.171 548.754 728.158 551.073C719.933 553.131 712.715 550.067 705.758 545.777C710.79 555.232 713.765 563.767 713.677 570.42C713.546 579.655 709.215 586.658 702.127 592.217C700.815 593.224 701.383 593.968 701.996 595.15C707.333 605.129 711.315 615.722 715.427 626.227C717.396 631.216 719.671 636.031 722.908 640.364C726.19 644.785 730.127 646.098 735.377 644.479C742.421 642.29 749.071 639.139 755.24 635.156C762.59 630.428 764.515 623.688 761.146 615.503C758.565 609.2 753.796 604.823 748.415 600.928C740.977 595.588 732.752 591.604 725.008 586.834C721.596 584.689 718.096 581.975 719.802 577.292C721.377 572.915 725.49 572.171 729.69 572.477C735.421 572.915 740.19 575.891 744.959 578.692C751.784 582.719 758.609 586.79 766.484 588.584C772.084 589.897 776.853 588.803 779.828 583.595C783.328 577.511 785.559 570.901 786.04 563.898C786.653 555.144 784.246 553.174 775.671 554.969C774.49 555.232 773.352 555.538 772.171 555.757C760.402 557.727 752.09 552.999 747.802 541.794C746.752 539.081 745.834 536.323 744.39 532.209L744.346 532.165ZM790.546 378.138C791.596 368.596 795.359 360.105 798.903 351.526C803.365 340.715 807.915 329.904 810.365 318.392C814.828 297.733 810.103 279.349 795.271 264.249C787.09 255.889 779.871 257.114 773.309 266.656C769.809 271.777 767.402 277.423 765.915 283.464C762.721 296.507 762.765 309.77 762.765 323.076C762.765 340.365 770.115 355.816 774.359 372.054C774.84 373.849 775.671 374.812 777.596 374.855C782.015 374.943 786.04 376.781 790.503 378.182L790.546 378.138ZM710.79 704.356C708.427 706.063 708.165 708.295 707.683 710.396C705.802 718.319 706.283 726.153 708.427 733.945C717.79 768.348 740.802 790.539 772.521 804.458C802.796 817.72 834.122 821.178 866.759 814.481C904.341 806.778 939.997 794.829 970.404 770.668C982.829 760.819 994.335 749.833 1006.23 739.328C1007.15 738.497 1009.34 738.146 1008.33 736.396C1007.46 734.951 1006.02 733.463 1004.48 732.85C1002.73 732.194 1002.73 734.514 1001.99 735.52C1000.02 738.234 998.404 741.298 996.129 743.705C974.166 766.509 948.966 784.499 918.21 793.297C886.753 802.313 854.553 803.977 822.09 800.913C800.04 798.812 779.215 792.99 760.884 779.947C741.109 765.897 728.071 746.9 719.627 724.403C717.09 717.575 714.727 710.659 710.79 704.312V704.356ZM678.502 429.655C670.933 427.861 666.296 433.113 662.577 439.679C653.477 455.786 659.121 477.934 674.827 487.87C682.396 492.641 695.915 490.058 701.471 482.967C711.927 469.53 722.34 456.049 731.002 441.342C732.927 438.103 735.027 434.383 738.615 433.245C744.346 431.406 742.509 428.736 741.371 424.666C739.577 418.319 736.077 417.225 730.127 417.575C721.027 418.144 712.758 421.164 704.402 424.272C696.396 427.248 688.346 430.006 678.502 429.655ZM716.915 297.601C707.815 297.514 701.952 301.366 698.365 309.682C692.852 322.375 694.252 334.368 701.952 345.792C712.758 361.724 727.852 373.586 741.109 387.155C742.815 388.906 743.821 387.811 745.046 386.717C748.24 383.96 751.827 381.946 755.634 380.152C763.421 376.519 763.246 376.519 760.927 368.071C757.471 355.465 754.759 342.641 750.209 330.341C746.096 319.18 739.884 309.376 730.127 302.197C726.19 299.308 721.946 297.383 716.915 297.558V297.601ZM733.715 413.504C737.259 413.504 737.259 413.504 736.821 406.676C736.69 404.925 736.559 403.087 736.865 401.336C737.346 398.798 736.34 397.966 733.977 397.266C727.24 395.208 721.596 391.182 715.952 387.111C702.565 377.525 688.215 371.923 671.414 376.3C670.277 376.606 668.921 376.956 667.914 376.606C664.764 375.424 663.977 377.044 662.839 379.583C659.996 385.929 656.277 391.532 648.008 390.963C645.427 390.788 646.389 392.626 646.477 393.808C646.783 398.973 645.646 403.919 642.014 407.552C638.427 411.141 640.221 413.329 642.889 415.78C644.814 417.575 647.133 418.713 649.671 419.37C668.396 424.141 687.033 426.373 705.627 418.538C713.502 415.211 721.902 413.504 733.715 413.504ZM746.752 446.813C746.446 444.8 748.24 439.898 744.259 438.585C739.884 437.14 738.527 442.349 736.121 445.019C735.99 445.15 735.902 445.325 735.815 445.5C727.24 460.82 716.302 474.432 705.671 488.264C700.815 494.566 696.483 501.176 693.727 508.748C690.752 516.933 692.633 524.024 698.365 530.151C703.702 535.841 710.09 540.219 717.09 543.676C722.165 546.171 727.765 546.171 731.309 541.663C738.046 533.128 742.465 523.192 741.109 512.031C739.052 495.135 738.046 478.459 744.259 462.133C745.965 457.712 747.059 453.029 746.709 446.813H746.752ZM806.865 393.283C808.528 385.448 814.215 380.983 819.509 376.431C831.584 366.145 843.79 355.991 856.128 346.011C873.366 332.092 870.347 315.153 861.728 300.84C854.684 289.11 841.603 288.41 832.372 298.652C827.909 303.598 824.978 309.463 823.184 315.81C819.509 329.203 816.009 342.597 812.334 355.991C809.534 366.145 805.815 375.818 797.196 382.647C800.478 386.236 803.496 389.562 806.821 393.239L806.865 393.283ZM827.953 431.625C837.009 434.164 846.109 436.659 855.165 439.285C863.04 441.561 869.691 445.675 874.328 452.547C877.084 456.618 880.803 458.018 885.484 458.062C899.659 458.194 912.916 461.87 925.297 468.655C931.685 472.156 938.378 473.075 945.422 472.156C959.072 470.449 963.185 462.833 957.235 450.534C956.71 449.483 955.966 448.564 955.266 447.557C951.153 441.78 949.622 435.521 951.11 428.43C951.722 425.497 953.166 422.521 952.378 419.282C951.722 419.37 951.285 419.282 950.935 419.457C950.191 419.763 949.491 420.114 948.835 420.551C935.36 429.48 920.835 433.288 904.691 430.049C902.591 429.612 900.228 429.568 898.216 430.137C884.128 433.901 870.041 432.938 855.734 431.406C846.634 430.443 837.272 429.174 827.953 431.581V431.625ZM652.164 464.453C640.483 470.931 630.683 479.947 619.833 487.519C617.033 489.489 618.652 491.721 619.833 493.779C622.37 498.243 625.258 502.576 627.533 507.172C631.47 515.007 635.539 522.711 640.789 529.714C652.864 545.821 654.527 545.69 672.377 537.155C679.115 533.916 684.19 531.246 682.396 522.798C682.264 522.273 682.396 521.529 682.702 521.047C687.34 513.388 686.027 503.714 692.152 496.186C669.621 497.193 664.327 492.947 652.164 464.453ZM650.939 570.157C643.896 576.723 636.721 576.854 628.933 576.416C616.902 575.76 604.783 575.847 592.752 576.416C578.226 577.16 570.92 585.477 572.233 599.045C572.758 604.342 573.808 609.638 575.339 614.715C578.358 625.045 583.739 628.065 594.195 625.526C604.083 623.119 613.183 619.048 621.714 613.358C632.52 606.136 642.364 597.207 654.833 592.655C657.021 591.867 657.064 590.904 655.927 589.197C652.471 583.901 651.246 577.992 650.983 570.113L650.939 570.157ZM669.096 600.271C666.689 600.315 665.421 596.857 662.577 599.045C646.477 611.301 628.758 621.105 612.395 632.967C606.708 637.082 602.07 642.334 600.058 649.293C598.702 654.064 597.564 659.142 601.414 663.387C609.07 671.879 619.745 675.205 630.027 678.357C636.852 680.458 642.583 676.168 646.214 669.953C652.208 659.754 655.533 648.637 657.502 636.994C659.602 624.432 659.427 611.082 669.139 600.271H669.096ZM634.577 571.251C640.571 570.989 645.077 568.669 648.052 563.592C653.083 555.013 652.689 552.343 645.033 545.996C642.146 543.589 639.258 541.138 636.239 538.905C624.864 530.414 612.439 523.936 598.877 519.734C593.408 518.071 587.851 517.852 583.608 522.973C579.058 528.488 574.333 533.828 570.001 539.518C564.708 546.478 566.676 553.306 574.77 556.764C580.633 559.258 586.758 560.922 592.927 562.322C606.839 565.43 620.664 569.107 634.577 571.295V571.251ZM645.033 424.622C640.046 421.252 635.758 418.625 634.489 413.286C634.139 411.841 632.652 412.06 631.514 412.016C618.214 411.666 605.045 409.915 591.877 408.077C590.564 407.902 588.902 407.114 588.114 408.733C586.451 412.104 583.389 411.754 580.501 412.235C576.389 412.935 572.233 413.461 568.295 414.73C559.851 417.487 557.183 425.235 555.258 432.632C553.595 439.066 557.576 444.406 562.87 447.601C574.376 454.604 586.364 457.274 599.314 450.534C614.583 442.568 628.583 432.501 645.077 424.622H645.033ZM642.714 381.333C654.221 367.283 653.739 351.176 652.208 335.069C651.202 324.389 649.146 313.84 643.108 304.605C637.246 295.632 629.895 294.362 621.583 300.972C607.627 312.002 605.133 327.584 614.758 343.341C622.939 356.735 632.914 368.815 642.714 381.377V381.333ZM688.827 680.895C707.727 680.895 713.983 673.936 712.715 654.94C712.015 645.048 708.558 636.031 704.533 627.146C701.427 620.274 698.146 613.49 695.696 606.355C694.733 603.51 696.046 599.045 693.071 598.126C690.533 597.338 687.077 599.527 684.015 600.271C682.527 600.665 681.521 601.103 681.74 603.028C682.965 614.146 679.639 624.607 677.058 635.156C674.739 644.61 672.289 653.977 670.933 663.606C669.271 675.424 673.296 680.239 685.24 680.895C686.421 680.983 687.602 680.895 688.827 680.895ZM814.259 537.767C809.228 540.744 804.284 543.633 799.384 546.478C798.159 547.178 797.503 548.053 797.021 549.542C793.565 559.696 791.946 570.245 789.628 580.662C787.265 591.167 790.328 600.665 795.271 609.725C798.99 616.466 803.365 616.991 809.009 611.651C811.284 609.463 813.121 606.705 815.659 604.911C824.234 598.914 828.478 590.204 830.359 580.574C832.809 567.969 831.059 556.019 820.646 546.872C817.715 544.333 815.878 541.138 814.259 537.767ZM624.295 405.757C626.22 405.757 627.577 405.801 628.977 405.757C638.383 405.407 641.621 401.074 639.608 391.794C638.339 385.929 635.539 381.158 630.902 377.35C623.464 371.223 615.064 366.802 605.964 363.825C589.952 358.573 577.22 365.314 572.276 381.509C568.995 392.188 571.576 397.178 582.47 399.936C596.339 403.437 610.602 404.532 624.252 405.757H624.295ZM664.808 369.559C669.314 367.064 673.208 364.526 677.714 363.65C683.271 362.556 685.677 359.098 686.158 353.758C687.515 338.57 688.652 323.338 688.215 308.062C688.04 302.285 686.815 296.639 683.84 291.561C679.071 283.289 669.139 281.1 661.308 286.528C656.977 289.548 655.752 294.1 655.271 298.915C654.352 307.887 655.183 316.641 657.371 325.439C660.958 339.796 662.446 354.546 664.808 369.603V369.559ZM860.547 609.288C873.409 609.594 878.003 603.51 874.109 591.386C867.459 570.726 854.947 553.7 841.034 537.549C838.103 534.178 834.253 531.99 829.834 531.246C826.772 530.72 823.271 530.064 821.39 533.653C819.553 537.242 821.915 539.65 824.278 541.882C838.584 555.494 839.984 571.82 833.684 589.372C832.022 594.056 829.178 597.732 837.228 598.695C839.853 599.002 842.259 601.672 844.622 603.466C849.347 607.055 854.597 609.112 860.547 609.244V609.288ZM879.403 511.68C884.434 512.206 889.334 511.243 894.191 510.367C906.922 508.091 919.522 505.203 929.541 496.098C936.453 489.839 936.541 485.156 928.841 479.772C915.803 470.668 900.884 466.904 885.309 465.416C883.691 465.284 882.247 464.978 882.334 467.648C882.641 479.116 876.734 488.482 871.703 498.112C869.822 501.701 865.359 505.334 867.372 509.186C869.647 513.563 875.291 510.98 879.447 511.637L879.403 511.68ZM557.62 451.847C552.72 446.419 548.826 441.692 549.001 435.389C549.089 431.669 547.383 430.706 544.232 430.181C535.351 428.736 527.126 425.366 519.514 420.508C517.195 419.019 514.92 416.087 512.689 416.174C510.02 416.262 509.582 420.42 507.789 422.565C503.676 427.598 499.082 432.282 496.72 438.585C491.688 452.153 499.345 463.271 513.739 463.096C519.601 463.008 525.157 461.433 530.364 459.069C538.676 455.261 547.076 452.022 557.664 451.847H557.62ZM563.264 477.409C579.014 493.21 594.152 493.822 613.445 483.142C625.827 476.271 637.027 467.166 648.752 459.025C649.889 458.237 651.552 457.8 651.727 456.311C652.514 449.79 654.352 443.574 656.583 436.878C628.714 457.931 594.327 463.008 563.264 477.409ZM900.447 422.609C918.166 427.686 933.566 423.571 947.872 413.767C948.835 413.11 949.972 412.279 951.022 412.191C956.447 411.841 958.503 407.595 960.91 403.875C962.616 401.249 963.36 397.966 965.066 395.34C968.041 390.656 966.597 388.118 961.697 386.673C948.266 382.734 935.097 383.303 922.235 388.993C920.572 389.737 918.91 390.481 918.428 392.451C915.628 404.356 908.934 413.986 900.491 422.609H900.447ZM862.209 500.432C858.228 504.24 855.034 507.128 851.053 508.266C844.534 510.105 844.665 514.088 846.503 519.209C851.534 533.128 860.109 544.683 870.303 555.144C873.716 558.602 877.828 562.935 883.078 561.316C888.809 559.521 888.547 553.262 889.641 548.316C891.872 537.855 888.547 526.3 897.428 516.364C892.309 516.889 888.809 517.371 885.266 517.589C881.722 517.808 878.134 517.983 874.591 517.721C861.903 516.845 859.584 513.825 862.297 500.475L862.209 500.432ZM576.389 405.932C576.389 405.582 576.389 405.188 576.389 404.838C574.07 404.4 571.401 402.956 569.564 403.656C563.658 405.888 559.151 403.043 554.558 400.505C549.176 397.485 544.801 393.064 540.076 389.168C534.214 384.354 527.957 380.195 520.301 378.839C513.52 377.657 507.701 380.108 504.857 385.141C501.795 390.569 502.801 396.609 507.482 402.08C514.176 410.003 522.795 414.467 532.814 416.393C538.064 417.4 543.445 417.706 548.564 419.194C552.064 420.201 553.989 419.851 555.695 416.568C558.233 411.71 562.608 409.127 567.901 407.946C570.745 407.333 573.589 406.589 576.389 405.888V405.932ZM945.291 710.352C938.16 710.221 931.072 709.302 923.985 708.733C895.809 706.457 868.29 701.292 841.734 691.137C817.89 682.033 795.753 670.609 778.865 650.825C778.427 650.3 777.64 650.037 776.415 649.25C775.934 658.004 779.521 664.394 784.64 670.04C799.121 685.929 817.409 695.558 837.928 700.942C873.147 710.265 909.241 710.046 945.291 710.265V710.352ZM1049.99 495.661C1076.06 490.321 1125.67 467.473 1152.01 449.308C1166.27 439.46 1179.79 428.824 1190.42 414.949C1192.39 412.366 1195.06 409.871 1195.06 404.882C1148.69 439.723 1102.09 472.2 1049.99 495.661ZM1378.59 535.141C1380.3 535.798 1381.83 535.273 1383.36 534.922C1408.56 529.626 1431.75 533.959 1452.84 549.148C1458.13 552.956 1463.95 556.02 1469.77 558.996C1477.95 563.154 1486.7 565.78 1495.67 567.531C1497.11 567.794 1499.08 568.669 1499.96 567.006C1500.79 565.43 1499.21 564.073 1498.21 562.891C1495.32 559.521 1491.69 557.114 1487.93 554.881C1475.41 547.616 1462.94 540.306 1450.34 533.128C1447.63 531.552 1444.66 530.195 1441.59 529.451C1422.65 524.636 1403.62 524.199 1384.54 528.882C1381.13 529.714 1378.99 531.552 1378.55 535.185L1378.59 535.141ZM768.015 427.248C782.496 427.336 793.959 420.639 797.984 410.353C800.784 403.131 799.253 398.491 792.996 395.384C780.003 388.906 759.002 396.215 754.277 409.871C749.246 424.272 749.596 423.79 763.727 426.942C765.434 427.336 767.271 427.204 768.059 427.248H768.015ZM602.639 234.66C628.627 220.085 653.958 209.449 683.183 212.688C711.883 215.883 735.334 230.371 758.565 245.734C756.465 241.357 753.184 238.206 749.771 235.185C724.221 212.688 693.64 203.802 660.433 203.846C643.327 203.846 627.227 209.317 613.402 219.91C609.07 223.236 604.914 226.869 602.683 234.66H602.639ZM1260.07 1590.74C1253.69 1619.54 1247.34 1648.21 1249.53 1677.84C1250.1 1685.37 1251.5 1692.77 1254.26 1699.86C1254.82 1701.35 1255.39 1703.1 1257.14 1703.32C1259.24 1703.58 1260.16 1701.7 1261.04 1700.17C1263.88 1695.09 1263.92 1689.53 1263.75 1683.97C1263.22 1665.94 1262.7 1647.91 1262.04 1629.87C1261.56 1616.83 1260.73 1603.79 1260.07 1590.79V1590.74ZM1331.47 593.443C1340.49 595.85 1348.19 600.621 1355.23 606.311C1367.44 616.159 1381.52 621.587 1396.53 625.001C1400.95 626.008 1405.54 628.065 1409.96 626.927C1420.94 624.082 1431.79 621.543 1443.04 628.021C1440.98 619.311 1442.95 617.254 1450.43 618.786C1453.89 619.486 1457.3 620.449 1461.85 621.587C1458.88 618.042 1455.46 617.341 1453.19 615.284C1446.71 609.506 1440.67 609.944 1432.06 611.958C1408.87 617.429 1385.59 615.853 1363.72 604.779C1357.2 601.453 1350.68 598.082 1344.12 594.8C1340.18 592.83 1336.02 592.173 1331.47 593.443ZM1455.99 847.265C1465.44 848.666 1474.63 847.002 1483.81 845.952C1494.58 844.726 1505.16 841.269 1516.14 843.763C1518.38 844.289 1518.86 842.713 1519.25 841.137C1520.78 835.36 1524.5 831.026 1528.61 826.956C1531.28 824.286 1533.82 821.528 1535.35 817.983C1536.05 816.32 1536.75 814.481 1535.53 812.906C1534.17 811.199 1532.2 811.899 1530.58 812.555C1527.65 813.781 1524.68 814.919 1522.05 816.67C1501.58 830.151 1481.1 843.632 1455.99 847.309V847.265ZM1460.71 854.443C1472.18 860.002 1483.81 864.904 1496.19 867.837C1500.44 868.844 1504.73 869.719 1509.06 869.982C1513.61 870.244 1517.72 868.669 1520.04 864.292C1522.23 860.09 1520.87 856.063 1518.64 852.43C1515.58 847.484 1510.33 848.316 1505.69 848.666C1490.68 849.847 1475.94 853.305 1460.71 854.443ZM676.271 557.245C675.658 557.42 674.477 557.551 673.383 558.033C666.996 560.747 661.964 564.949 661.483 572.302C660.914 580.268 663.802 587.184 670.321 592.086C673.821 594.712 677.496 593.749 680.646 590.948C686.333 585.914 688.565 579.042 689.352 571.908C690.008 565.955 682.002 557.201 676.314 557.245H676.271ZM1093.17 628.152C1110.49 620.449 1125.32 609.988 1135.04 593.443C1137.14 589.854 1139.06 586.002 1138.32 581.625C1137.66 577.817 1135.52 576.373 1131.97 578.692C1128.08 581.231 1125.15 584.733 1122.44 588.409C1112.64 601.628 1104.02 615.678 1093.12 628.152H1093.17ZM896.597 547.484C896.116 551.73 898.697 551.292 901.278 550.286C907.228 547.922 910.509 542.932 912.916 537.417C915.322 531.902 918.778 527.657 924.553 525.424C925.997 524.855 927.31 523.849 928.447 522.754C929.803 521.441 931.947 520.041 931.247 517.94C930.591 515.926 928.141 516.889 926.478 516.539C923.985 515.97 921.403 515.664 918.866 515.401C906.834 514.088 899.003 520.128 897.516 532.165C896.903 537.242 896.903 542.407 896.641 547.572L896.597 547.484ZM1230.41 1346.46C1229.58 1345.28 1229.32 1344.71 1228.88 1344.36C1227.96 1343.62 1227.04 1342.83 1225.99 1342.3C1214.79 1336.61 1206.17 1327.99 1198.69 1318.06C1194.4 1312.36 1189.64 1307.03 1184.39 1302.17C1179.97 1298.1 1175.59 1293.98 1168.72 1290.22C1175.64 1300.9 1181.76 1310.05 1187.49 1319.41C1194.01 1330.05 1203.2 1337.66 1213.92 1343.62C1218.82 1346.33 1223.98 1347.99 1230.41 1346.42V1346.46ZM978.454 425.979C978.147 423.615 977.797 420.858 976.266 418.45C973.51 414.205 969.529 412.541 964.585 413.067C959.422 413.592 959.554 417.619 958.985 421.339C958.503 424.666 957.672 427.905 957.147 431.231C956.535 435.302 957.541 439.11 959.729 442.524C963.097 447.82 967.604 448.302 971.891 443.749C976.441 438.891 977.972 432.807 978.454 425.979ZM854.597 614.846C850.397 613.577 846.459 612.527 843.397 609.988C830.14 599.133 827.69 602.941 818.634 611.826C818.196 612.22 817.759 612.658 817.278 613.008C813.603 615.678 814.434 617.91 817.628 620.405C829.44 629.597 844.534 627.583 854.597 614.89V614.846ZM561.601 471.894C592.708 464.803 653.083 437.578 659.602 427.73C656.889 427.029 654.046 426.11 651.421 427.336C645.733 430.006 640.089 432.851 634.708 436.046C626.002 441.167 617.558 446.726 608.939 451.978C598.745 458.15 588.245 462.352 575.733 459.769C568.733 458.325 561.733 465.065 561.601 471.937V471.894ZM804.24 408.471C792.209 431.975 773.746 434.777 751.477 428.649C755.59 435.652 760.927 439.679 767.927 441.517C772.871 442.786 778.209 442.524 782.671 445.632C783.984 446.551 784.859 446.025 785.384 444.669C787.309 439.591 792.078 436.921 795.49 433.157C801.484 426.548 803.759 418.757 804.284 408.471H804.24ZM689.921 543.064C696.177 560.922 695.958 577.642 686.071 593.793C698.802 590.773 707.465 581.844 708.033 571.558C708.69 559.477 700.771 546.653 689.921 543.107V543.064ZM1171.96 1236.86C1182.72 1248.85 1195.1 1259.01 1207.66 1269.03C1213.87 1273.98 1220.35 1278.57 1227.26 1282.51C1228.4 1283.17 1229.71 1284.31 1231.02 1283.04C1232.16 1281.9 1231.59 1280.37 1231.02 1279.14C1229.62 1275.99 1227.09 1273.72 1224.59 1271.44C1208.84 1257.26 1190.55 1246.93 1171.96 1236.91V1236.86ZM684.365 368.29C694.646 369.297 703.221 372.186 711.358 376.3C719.277 380.283 725.315 387.636 734.415 389.737C720.152 375.512 704.665 362.469 693.158 343.56C691.933 353.408 693.158 362.294 684.408 368.29H684.365ZM560.814 377.832C557.489 354.59 559.283 330.867 554.689 306.618C545.283 321.237 548.608 357.698 560.814 377.832ZM793.478 389.956C793.478 388.337 792.253 387.811 791.334 387.111C781.359 379.583 766.965 380.283 753.621 388.862C743.952 395.077 741.284 404.663 746.709 416.7C749.377 405.757 754.146 397.222 764.034 392.539C773.527 388.03 783.415 388.205 793.478 389.956ZM812.99 496.58C813.953 506.866 819.203 514.613 819.99 523.542C820.121 525.074 821.128 525.424 822.528 525.162C830.447 523.498 837.184 526.562 844.578 531.158C842.609 524.593 840.072 519.165 839.765 513.256C839.678 512.031 838.803 511.593 837.753 511.549C827.384 511.068 820.471 504.59 812.99 496.624V496.58ZM1080.13 775.964C1084.5 780.209 1087.92 782.923 1091.9 784.586C1099.77 787.869 1107.65 788.569 1114.95 783.054C1117.93 780.822 1121.82 778.108 1120.12 773.994C1118.24 769.442 1113.55 770.843 1109.66 771.499C1108.7 771.674 1107.74 771.893 1106.77 772.2C1098.59 774.957 1090.54 778.152 1080.13 775.964ZM507.045 411.185C501.007 403.744 494.707 403.087 488.276 408.69C484.382 412.104 482.676 416.7 481.363 421.558C480.357 425.322 479.395 429.787 483.507 431.581C487.576 433.332 488.713 428.474 490.551 425.979C492.213 423.747 493.482 421.295 495.145 419.063C498.032 415.211 501.401 411.929 507.001 411.185H507.045ZM660.039 560.79C665.158 556.545 669.227 553.218 674.696 552.168C680.383 551.073 684.715 553.919 690.271 558.12C688.74 553.393 687.952 550.154 686.64 547.134C684.102 541.313 681.127 540.219 675.308 542.976C672.464 544.333 670.058 546.653 667.171 547.747C661.527 549.892 660.477 554.269 660.039 560.79ZM1320.89 1555.29C1306.1 1556.08 1292.49 1560.41 1276.79 1558.83C1290.13 1566.93 1312.22 1564.96 1320.89 1555.29ZM1473.58 299.834C1465.09 292.743 1456.07 286.79 1445.14 284.602C1443.04 284.164 1440.81 284.47 1438.62 284.602C1437.48 284.689 1436.12 285.215 1435.86 286.484C1435.51 288.016 1437 288.497 1438.01 288.804C1449.86 292.524 1461.72 296.113 1473.58 299.79V299.834ZM506.389 523.892C492.651 534.266 480.313 546.04 470.382 560.221C485.257 550.986 495.757 537.373 506.389 523.892ZM593.845 817.589C587.676 830.37 584.176 843.763 585.533 857.989C586.233 858.12 586.933 858.208 587.633 858.339C589.689 844.77 591.789 831.158 593.845 817.589ZM837.14 247.31C830.709 256.283 822.178 282.019 823.14 289.854C830.272 275.804 833.072 261.36 837.14 247.31ZM922.41 508.923C928.053 510.936 933.303 510.936 938.51 510.893C940.916 510.893 943.06 509.273 943.06 506.822C943.06 504.809 933.785 501.088 931.991 502.27C928.885 504.283 925.953 506.472 922.41 508.967V508.923ZM865.447 495.748C870.565 487.87 875.247 479.816 876.734 470.318C876.953 468.83 877.259 466.597 875.509 466.116C873.191 465.503 872.841 467.998 872.403 469.486C869.866 478.153 868.641 487.169 865.49 495.704L865.447 495.748ZM657.502 363.125C655.752 369.516 653.477 375.512 649.758 380.896C649.014 381.99 648.139 383.522 649.452 384.616C650.808 385.71 652.033 384.354 652.996 383.522C659.558 377.919 659.252 370.654 657.502 363.125ZM621.364 363.913C621.583 363.65 621.802 363.388 622.064 363.081C619.133 359.273 616.245 355.465 613.314 351.701C612.745 350.957 612.045 349.95 610.995 350.694C609.027 352.095 607.933 354.24 606.839 356.297C606.139 357.61 607.189 357.96 608.108 358.354C612.527 360.193 616.989 362.075 621.408 363.913H621.364ZM990.004 712.322C988.429 705.275 987.641 704.181 985.147 705.844C980.335 708.996 974.866 709.346 969.485 710.528C976.31 711.14 983.091 711.709 990.047 712.322H990.004ZM892.791 418.275C900.184 414.117 903.378 408.646 906.091 402.781C900.972 406.589 895.547 410.09 892.791 418.275ZM819.421 306.005C821.828 302.154 823.665 299.177 825.634 296.026C820.53 296.434 818.459 299.761 819.421 306.005ZM1357.2 536.586C1367.87 538.118 1369.1 537.724 1371.02 532.69C1366.21 534.047 1361.71 535.316 1357.2 536.586Z" fill="#232323"/>
</g>
<defs>
<clipPath id="clip0_157_299">
<rect width="1154" height="1820" fill="white" transform="translate(423 90)"/>
</clipPath>
</defs>
</svg>
