<svg width="2000" height="2000" viewBox="0 0 2000 2000" fill="none" xmlns="http://www.w3.org/2000/svg">
<g clip-path="url(#clip0_157_300)">
<path d="M1344.45 635.71C1362.93 632.597 1377.74 597.053 1382.65 600.384C1387.57 603.714 1390.05 609.732 1390.84 615.62C1391.31 619.037 1391.26 622.694 1389.57 625.697C1386.82 630.638 1380.52 632.423 1374.86 632.423C1362.08 632.434 1353.33 614.238 1340.82 616.893C1327.86 619.647 1322.59 635.71 1344.44 635.71M1306.83 692.334C1307.03 688.177 1303.65 684.346 1301.92 680.558C1300.68 677.849 1298.9 673.463 1292.3 669.512C1286.15 665.823 1272.72 660.926 1275.12 654.603M1299.98 709.91C1290.83 713.654 1284.81 712.282 1282.01 710.835C1279.22 709.387 1276.69 707.483 1274.16 705.611C1273.99 705.48 1273.8 705.35 1273.58 705.382C1273.26 705.426 1273.12 705.796 1273.04 706.112C1271.88 711.346 1274.65 722.229 1275.11 727.573M1304.29 705.655C1310.82 700.006 1306.26 694.891 1306.79 689.602C1307.45 683.04 1314.91 679.927 1320.93 677.239C1326.94 674.562 1333.48 668.391 1330.56 662.482C1319.86 657.291 1287.44 653.416 1275.57 654.015C1271.82 654.2 1292.1 661.209 1295.84 661.611C1307.08 662.841 1318.2 661.785 1326.38 654.472C1330.46 650.826 1334.15 646.712 1337.16 642.142C1348.16 625.382 1361.27 644.198 1389.45 632.826C1411.99 617.492 1383.43 583.504 1380.6 555.306C1379.76 546.981 1379.81 541.452 1379.48 534.368C1378.57 515.246 1385.34 509.696 1392.26 503.525C1417.21 481.259 1435.4 458.731 1444.68 426.583C1454.54 392.41 1467.24 352.154 1461.91 314.945M1083.53 660.708C1143.64 711.749 1150.88 732.644 1228.95 767.47C1235.47 770.376 1242.89 771.856 1249.89 770.495C1264.8 767.6 1272.35 743.418 1275.11 727.562C1276.02 722.295 1298.75 713.643 1304.29 705.644M711.885 798.236C676.645 819.588 579.03 879.02 555.2 912.638C531.794 945.657 522.593 986.696 518.536 1026.97C508.703 1124.58 526.019 1222.86 548.152 1318.42C573.646 1428.48 605.601 1536.91 637.545 1645.27C664.235 1735.81 691.133 1826.89 732.996 1911.5C741.61 1928.9 752.562 1947.5 771.052 1953.4C796.916 1961.66 822.824 1940.99 839.356 1919.45C873.377 1875.09 892.954 1819.82 894.434 1763.92M862.49 643.665C840.748 664.299 749.017 963.222 778.709 1177.16C793.642 1284.78 830.089 1388.04 858.205 1492.99C886.798 1599.74 910.574 1689.55 889.92 1798.26C889.224 1801.94 884.166 1837.28 881.273 1839.64M1484.33 1335.42C1472.34 1271.07 1430.37 869.084 1364.96 828.175C1310.18 793.926 1242.05 793.709 1179.02 779.583C1118.82 766.077 1060.21 745.475 1004.81 718.322C968.001 700.289 929.075 678.719 888.604 685.184C858.64 689.972 834.516 710.944 809.663 728.356C774.087 753.278 753.4 773.292 711.896 798.247M1071.82 349.869L1104.62 345.015C1107.68 324.958 1086.68 306.652 1066.48 308.394C1046.28 310.124 1029.82 327.45 1024.18 346.93C1018.53 366.411 1021.93 387.448 1028.23 406.732C1036.85 433.047 1050.86 457.588 1069.14 478.386C1082.14 492.806 1087.78 453.213 1080.34 439.348C1072.9 425.484 1059.22 415.994 1050.67 402.793C1040.57 387.186 1038.38 366.65 1045.44 349.368C1047.19 345.08 1050.82 341.717 1055.33 340.64C1063.18 338.768 1067.64 344.775 1071.81 349.88C1098.97 383.127 1148.16 396.285 1188.29 381.038C1226.2 366.628 1252.43 331.444 1288.36 312.66C1336.46 287.52 1457.34 270.924 1461.91 314.967M1105.3 339.04C1104.72 372.951 1104.12 406.852 1103.53 440.763C1102.99 471.682 1102.48 502.872 1108.45 533.214C1113.58 559.279 1125.08 586.279 1148.12 599.469C1152.4 601.918 1157.1 603.855 1162.02 604.062C1178.75 604.759 1189.52 586.562 1194.01 570.434C1203.93 534.759 1202.18 495.929 1189.1 461.288C1183.88 447.467 1166.85 417.485 1158.81 433.308C1160.34 438.51 1166.21 441.471 1171.63 441.286C1177.05 441.101 1182.06 438.478 1186.69 435.67C1219.36 415.809 1245.66 382.626 1283.27 375.759C1302.75 372.201 1322.86 376.401 1341.65 382.67C1359.65 388.677 1377.65 397.079 1389.76 411.706C1398.61 422.382 1403.49 437.074 1401.59 450.503C1400.79 456.086 1393.35 457.36 1390.66 452.408C1377.39 428.008 1357.03 407.483 1332.64 394.184C1320.78 387.709 1307.21 382.779 1293.75 387.328C1286.77 389.689 1280.95 394.859 1278.64 401.857C1273.5 417.528 1288.31 430.729 1303.06 434.821C1316.55 438.554 1331.1 437.705 1344.28 442.428C1352.8 445.486 1360.81 452.354 1364.14 460.396C1366.62 466.393 1360.44 472.346 1354.45 469.886C1339.39 463.694 1322.15 457.251 1306.16 453.268C1301.27 452.049 1297.61 457.719 1300.69 461.702L1327.67 496.582C1328.71 498.008 1329.94 499.292 1331.44 500.239C1337.05 503.786 1340.61 500.598 1342.91 497.148C1350.56 485.666 1347.77 469.32 1338.87 458.764C1329.98 448.207 1307.25 444.355 1294.56 431.437M1092.81 668.74C1091.03 665.834 1080.09 658.216 1076.2 659.021C1065.07 661.296 1055.77 669.86 1051.23 680.275C1046.68 690.69 1046.56 702.694 1049.42 713.686C1053.22 728.258 1065.34 746.281 1079.82 750.405M780.656 481.117C776.882 445.073 763.091 391.18 753.313 353.264C743.535 344.525 727.721 360.948 737.335 367.815C748.19 375.574 763.167 444.975 780.667 481.117C783.658 487.288 792.914 485.46 793.392 478.614C794.654 460.548 795.926 442.494 797.188 424.428C798.308 408.441 798.123 389.494 785.104 380.167C784.746 372.386 796.971 369.73 802.583 375.139C808.195 380.548 808.597 389.254 808.51 397.046C807.988 444.812 803.029 492.523 793.697 539.374C772.455 529.993 761.481 517.14 748.027 502.296C736.15 489.182 721.913 478.201 706.218 470.049C695.701 464.586 683.53 459.384 679.027 448.414C674.046 436.269 678.125 417.68 665.726 413.382C657.459 418.148 655.154 429.652 658.123 438.739C661.081 447.815 668.042 454.955 674.992 461.506C703.999 488.833 746.385 515.192 781.918 533.247M794.741 528.393C771.607 487.506 748.484 446.618 725.35 405.731C719.77 395.871 712.679 384.836 699.529 386.675C691.448 387.807 687.718 394.772 691.981 401.737C695.831 408.016 704.228 406.177 710.656 408.441C717.312 410.781 721.391 417.343 724.926 423.448L788.128 530.145M794.752 536.892C806.052 554.621 802.942 581.839 791.739 599.622C780.526 617.405 763.091 630.203 745.96 642.37C728.765 654.581 711.123 666.781 691.067 673.289C671.011 679.797 647.877 679.938 629.964 668.816C624.015 665.116 618.348 659.348 618.511 652.339C618.609 647.768 621.176 643.676 623.656 639.845C635.239 621.91 646.899 603.877 661.364 588.162C684.444 563.099 714.473 544.521 747.2 535.064C756.38 532.409 766.169 530.461 775.446 532.735C792.098 536.816 802.561 552.934 816.679 562.663C842.456 580.424 877.336 575.168 907.224 565.885C927.661 559.54 948.141 551.312 963.781 536.697C979.411 522.081 989.406 499.847 984.523 479.006C984.142 477.363 983.642 475.698 982.608 474.37C980.999 472.324 978.388 471.41 975.908 470.593C954.232 463.454 931.805 456.228 909.084 458.296C882.85 460.679 859.314 475.197 838.518 491.38C819.496 506.181 810.805 518.892 794.763 536.892C831.851 529.927 849.634 500.445 864.426 465.707C869.516 453.736 873.66 441.264 880.436 430.152C887.212 419.041 897.174 409.17 909.769 405.905C919.743 403.326 930.26 405.111 940.56 405.024C952.807 404.926 966.609 401.106 970.481 388.101C972.928 379.895 970.22 371.069 964.227 364.963C952.078 352.579 934.285 352.622 918.416 355.822C886.483 362.264 857.095 380.635 837.311 406.536C823.661 424.395 814.645 445.378 807.553 466.708C800.56 487.701 795.296 509.271 791.826 531.135C808.5 522.701 813.416 501.512 815.373 482.924C817.527 462.453 818.354 441.852 817.842 421.272C817.44 404.817 816.113 388.079 810.131 372.756C804.138 357.422 792.859 343.48 777.469 337.669C766.778 333.631 755.031 333.74 743.611 333.903L665.171 335.035C658.188 335.133 652.837 341.282 653.696 348.214C654.86 357.639 655.969 367.064 658.928 376.031C665.802 396.861 668.151 400.017 675.906 415.939C697.669 460.636 746.994 492.338 778.35 530.896C781.852 535.206 783.005 540.56 783.245 546.121C783.419 550.137 783.538 551.878 782.375 557.167M782.375 557.167C776.806 582.405 745.884 596.128 720.053 596.422C694.222 596.716 668.814 581.502 656.861 558.593C651.151 547.656 647.225 534.052 635.935 529.078C631.193 526.989 625.853 526.858 620.806 525.65C606.21 522.179 594.953 509.75 589.504 495.766C586.165 487.201 584.708 478.092 584.262 468.874C583.859 460.603 591.179 454.149 599.347 455.455C626.005 459.71 654.991 450.471 682.323 454.628C718.073 460.07 746.026 487.255 771.368 513.059C779.166 521.003 786.975 528.948 794.774 536.892M782.375 557.167C785.463 540.821 783.625 542.345 789.999 535.423M782.375 557.167C778.067 579.869 776.806 602.528 783.756 621.671C790.706 640.814 805.487 657.802 824.923 663.831C830.067 665.42 835.712 666.215 840.781 664.386C850.276 660.958 854.496 649.868 862.522 643.752C875.106 634.164 894.096 638.626 907.507 630.236C920.047 622.389 923.865 604.857 919.351 590.774C914.838 576.691 903.733 565.667 891.747 557.004C866.503 538.753 825.923 537.306 794.784 536.892M977.475 236.153C997.215 207.106 1007.71 178.571 1010.93 143.604C1011.33 139.283 1011.64 134.778 1010.1 130.718C1008.56 126.659 1004.63 123.177 1000.3 123.59C995.986 124.004 992.712 129.674 995.442 133.058C997.422 135.518 1001.2 135.659 1003.56 137.749C1007.06 140.861 1005.97 146.488 1004.6 150.972C995.181 181.662 986.894 205.463 977.475 236.153ZM977.475 236.153C960.986 207.411 955.722 182.456 949.425 151.113C948.293 145.465 947.26 139.523 948.957 134.005C950.654 128.487 956.027 123.677 961.715 124.613C967.403 125.549 970.557 134.19 965.826 137.499C964.01 138.772 961.563 139 959.899 140.47C957.277 142.788 957.723 146.923 958.408 150.362C963.662 176.558 970.144 202.503 977.855 228.088C978.41 229.938 979.041 231.897 980.509 233.171C981.934 234.4 983.903 234.76 985.773 234.901C1002.44 236.109 1016.62 223.67 1028.64 212.069C1035.34 205.593 1042.05 199.129 1048.75 192.653C1054.34 187.255 1060.17 181.466 1062.11 173.946C1064.06 166.425 1060.29 156.859 1052.64 155.499C1051.65 155.325 1050.59 155.303 1049.67 155.749C1046.24 157.447 1048.48 162.508 1049.85 166.088C1053.83 176.47 1045.53 187.299 1037.26 194.743C1026.88 204.091 1015.51 212.373 1003.44 219.404C1010.09 188.594 1022.92 159.504 1035.65 130.675C1037.04 127.53 1038.55 124.243 1041.28 122.154C1044.02 120.064 1048.39 119.705 1050.64 122.317C1054.04 126.278 1050.05 132.101 1046.49 135.899C1027.76 155.815 1015.73 181.923 1012.76 209.108M1001.52 231.887C1015.65 235.565 1029.47 240.408 1042.81 246.339C1055.43 251.944 1068.39 259.301 1074.45 271.718C1076.63 276.18 1077.79 281.426 1076.2 286.138C1073.85 293.136 1066.29 296.945 1059.1 298.61C1051.91 300.264 1044.28 300.569 1037.7 303.888C1026.11 309.732 1018.87 324.305 1005.93 325.23C994.322 326.057 985.382 315.119 980.553 304.541C970.71 282.993 968.752 257.94 975.125 235.13C982.717 236.109 985.458 245.599 986.002 253.228C987.263 270.826 986.089 288.598 982.532 305.88C980.226 317.057 975.452 329.648 964.564 333.055C956.157 335.688 947.021 331.662 940.201 326.079C933.382 320.496 927.933 313.356 920.874 308.089C906.332 297.25 886.537 295.737 868.82 299.579C863.523 300.732 856.366 301.45 854.235 296.455C853.626 295.029 853.636 293.43 853.723 291.884C854.822 272.186 866.862 254.001 883.242 242.998C899.611 231.995 919.83 227.664 939.549 228.132C952.274 228.437 965.478 230.874 975.647 238.536C974.266 242.9 977.29 242.454 964.836 245.37C957.952 246.981 955.994 243.118 952.209 240.56C936.166 229.753 925.453 211.492 907.757 203.711C894.097 197.703 877.651 198.661 865.307 190.292C863.382 188.986 861.544 187.408 860.543 185.307C859.031 182.119 859.705 178.321 860.924 175.012C865.807 161.637 880.816 151.766 894.542 155.532C905.375 158.503 912.608 168.374 919.536 177.211C930.228 190.847 942.192 203.471 955.233 214.876C964.075 222.603 973.744 229.949 985.099 232.953C993.757 235.249 1002.88 234.879 1011.79 234.063C1039.73 231.506 1067.28 224.704 1093.2 213.973C1105.67 208.804 1118.41 202.165 1125.5 190.673C1132.8 178.854 1132.8 163.824 1129.84 150.253C1128.33 143.299 1125.99 136.312 1121.36 130.914C1116.56 125.321 1109.76 121.936 1103.16 118.693C1095.84 115.101 1088.04 111.412 1079.93 112.196C1072.91 112.87 1066.67 116.832 1061.01 121.033C1024.81 147.87 1001.1 188.072 980.879 228.36C1000.47 214.953 1008.8 190.52 1015.03 167.601C1021.44 144.083 1026.94 120.325 1031.54 96.3827C1033.14 88.0899 1034.45 78.8285 1029.81 71.7764C1026.56 66.8246 1020.99 63.9842 1015.68 61.3614C1007.06 57.1061 998.433 52.8509 989.809 48.5957C985.284 46.3646 980.324 44.0683 975.397 45.124C971.297 46.0055 968.034 49.0527 965.152 52.1109C945.379 73.0388 932.327 100.464 929.619 129.14C926.91 157.817 934.774 187.549 952.144 210.512C959.42 220.122 968.219 228.491 977.475 236.218C1007.66 261.423 1044.39 280.588 1083.63 282.873C1103 283.994 1124.66 279.772 1136.22 264.165C1145.5 251.617 1146.04 234.858 1146.21 219.251C1146.29 212.787 1146.35 206.322 1146.43 199.858C1146.45 197.518 1146.46 195.08 1145.45 192.969C1144.06 190.052 1141.02 188.322 1138.09 186.973C1118.35 177.918 1095.36 177.929 1074.25 183.033C1053.14 188.137 1033.52 198.019 1014.36 208.238M699.127 1230.81C720.336 1269.11 747.374 1267.68 776.175 1280.48C778.416 1281.47 780.841 1282.01 783.288 1281.82C795.644 1280.87 795.568 1266.74 793.914 1256.43C786.355 1209.09 789.085 1160.13 801.865 1113.92C811.164 1080.3 825.662 1048.22 833.657 1014.27C841.662 980.319 842.543 942.838 825.63 912.344C798.667 957.007 783.734 1008.85 782.82 1061.03C826.304 1024.21 866.84 983.921 903.907 940.65C927.509 913.106 950.588 881.621 958.626 847.155C961.834 833.377 946.455 822.842 934.861 830.939C862.49 881.447 818.071 966.019 777.839 1046.19C762.471 999.244 770.008 947.909 782.679 900.166C795.339 852.411 813.046 805.604 817.973 756.445C822.889 707.287 812.894 653.58 777.643 618.994M876.89 1561.13C861.794 1492.29 873.518 1420.84 881.621 1350.83C888.593 1290.55 892.422 1227.42 874.78 1170.06C871.669 1159.96 857.182 1160.65 854.931 1170.99C842.064 1230.18 862.261 1308.78 878.01 1372.55C918.22 1330.61 944.976 1276.84 958.811 1220.39C963.314 1202.03 971.808 1142.01 951.306 1166.95C903.048 1223.88 882.122 1298.31 859.608 1369.48C856.769 1378.46 849.047 1389.73 840.541 1384.33C838.823 1383.24 837.485 1381.62 836.571 1379.8C807.205 1320.99 790.88 1256.23 759.882 1198.29C733.768 1149.47 693.438 1104.07 642.243 1086.2C631.443 1082.43 621.383 1093.38 626.212 1103.75C647.671 1149.85 673.067 1194.14 702.02 1235.94M886.309 331.923C870.843 333.37 855.725 338.572 842.64 346.941C837.376 350.304 832.199 354.483 829.991 360.327C829.741 360.98 829.556 361.655 829.415 362.341C827.979 369.23 838.355 371.722 840.378 364.985C847.176 342.272 839.432 315.751 824.325 296.782C810.62 279.576 792.011 267.343 772.412 256.994C765.69 253.446 758.229 260.313 761.198 267.321C771.107 290.731 787.998 311.376 801.419 333.348C818.343 361.056 824.053 400.551 820.681 434.092M824.053 400.551C851.798 387.992 908.54 339.018 887.701 331.814M1028.05 1578.58C1037.33 1571.45 1040.57 1559.06 1042.5 1547.53C1044.44 1535.98 1045.92 1523.68 1053.16 1514.5C1055.74 1511.23 1059.07 1508.28 1060.08 1504.25C1061.08 1500.21 1057.88 1494.91 1053.86 1495.98C1050.93 1496.76 1049.72 1500.17 1048.95 1503.1C1042.34 1528.57 1035.74 1554.05 1029.13 1579.51C1041.81 1571.24 1053.14 1560.91 1062.55 1549.05C1066.9 1543.57 1071 1537.31 1071.13 1530.3C1071.21 1526.22 1069.91 1522.19 1070.1 1518.12C1070.28 1514.04 1072.72 1509.51 1076.78 1509.11C1080.37 1508.76 1083.55 1511.97 1084.38 1515.49C1085.22 1519 1084.27 1522.68 1083.18 1526.12C1076.03 1548.66 1061.81 1568.93 1042.9 1583.12C1038.38 1586.5 1031.92 1589.51 1027.51 1586.01C1025.95 1584.77 1025.02 1582.93 1024.12 1581.15C1016.85 1566.54 1009.57 1551.94 1002.31 1537.33C998.781 1530.26 995.16 1522.63 996.291 1514.81C997.259 1508.09 1001.22 1499.96 996.117 1495.47C995.573 1495 994.931 1494.59 994.213 1494.5C991.777 1494.13 990.211 1497 989.656 1499.39C986.6 1512.57 990.853 1526.32 996.204 1538.73C1003.26 1555.15 1012.31 1570.7 1023.09 1584.94C1036.71 1564.34 1035.25 1537.33 1030.04 1513.18C1028.92 1507.97 1027.75 1502.1 1030.65 1497.63C1032.51 1494.76 1035.9 1492.78 1036.66 1489.43C1037.63 1485.2 1033.18 1481.09 1028.85 1481.39C1024.53 1481.7 1020.98 1485.33 1019.54 1489.43C1018.11 1493.54 1018.38 1498.02 1018.9 1502.33C1020.58 1516.29 1024.61 1529.86 1026.83 1543.74C1029.05 1557.63 1029.37 1572.32 1023.86 1585.26M1029.51 1585.76C1040.42 1596.74 1048.27 1611.78 1047 1627.2C1045.72 1642.62 1033.28 1657.47 1017.83 1658.01C1009.66 1658.29 1001.29 1654.84 993.485 1657.27C983.598 1660.34 973.211 1672.04 965.511 1665.1C961.976 1661.91 961.998 1656.43 962.433 1651.68C963.749 1637.42 966.609 1622.62 975.506 1611.4C984.631 1599.89 998.771 1593.75 1012.31 1588.06C1019.12 1585.19 1026.74 1582.3 1033.68 1584.81C1037.99 1586.38 1041.32 1589.81 1044.48 1593.14C1057.09 1606.39 1070.42 1621.26 1071.52 1639.53C1071.78 1643.92 1071.35 1648.53 1073.25 1652.48C1075.16 1656.44 1080.68 1659.08 1084 1656.21C1085.52 1654.89 1086.13 1652.82 1086.64 1650.87C1091.72 1631.33 1093.36 1609.14 1082.34 1592.21C1071.33 1575.29 1043.67 1568.98 1030.91 1584.64C1035.12 1589.68 1042.6 1590 1049.17 1589.94C1070.61 1589.71 1094.22 1588.64 1109.83 1573.94C1129.8 1555.14 1127.57 1523.34 1123.83 1496.15C1107.16 1492.5 1089.13 1495.54 1074.57 1504.44C1063.76 1511.05 1055.01 1520.61 1047.76 1531.01C1038.1 1544.84 1030.83 1560.35 1026.39 1576.63C1033.41 1562.61 1039.09 1547.91 1043.32 1532.8C1047.86 1516.6 1050.52 1498.43 1042.66 1483.56C1033.32 1465.91 1012.44 1458.41 993.419 1452.4C991.048 1451.65 988.34 1450.93 986.187 1452.16C984.631 1453.04 983.739 1454.75 982.978 1456.37C971.895 1479.79 967.816 1509.23 982.51 1530.57C993.996 1547.27 1014.79 1555.95 1025.54 1573.14C1026.79 1575.14 1027.93 1577.38 1027.81 1579.74C1027.59 1584.29 1023.02 1587.28 1018.79 1588.96C1001.35 1595.87 981.031 1593.44 964.38 1584.78C947.739 1576.12 934.557 1561.74 924.964 1545.61C932.805 1542.6 940.647 1539.58 948.489 1536.57C955.374 1533.92 962.422 1531.24 969.796 1530.96C982.543 1530.47 994.67 1537.36 1003.43 1546.64C1012.18 1555.91 1018.11 1567.44 1023.91 1578.81M868.624 1700.83C855.594 1690.97 837.05 1694.55 821.714 1700.19C806.39 1705.84 790.325 1713.24 774.391 1709.61C778.568 1689.79 798.58 1674.62 818.767 1675.95C826.337 1676.45 833.678 1678.96 841.259 1679.31C848.84 1679.66 857.345 1677.13 860.902 1670.43C862.881 1666.7 863.001 1662.28 862.925 1658.06C862.229 1617.78 847.546 1577.87 821.975 1546.76C809.206 1581.22 819.3 1620.32 836.822 1652.62C854.343 1684.93 878.87 1712.91 897.794 1744.4C906.68 1709.36 917.231 1674.03 937.417 1644.05C957.604 1614.07 988.96 1589.75 1024.9 1586.04" stroke="#575756" stroke-width="5" stroke-miterlimit="10"/>
</g>
<defs>
<clipPath id="clip0_157_300">
<rect width="974" height="1916" fill="white" transform="translate(513 42)"/>
</clipPath>
</defs>
</svg>
