<svg width="2000" height="2000" viewBox="0 0 2000 2000" fill="none" xmlns="http://www.w3.org/2000/svg">
<g clip-path="url(#clip0_157_301)">
<path d="M1785.41 1556.48C1596.62 1354.34 1377.18 1411.18 1216.94 1452.61C1164.58 1466.17 1118.2 1478.19 1082.12 1478.19C1081.81 1478.19 1081.5 1478.19 1081.25 1478.19C1082.61 1349.23 1085.01 1185.19 1089.7 1056.78C1124.12 1007.89 1144.29 953.334 1158.72 906.915C1175.37 853.283 1183.08 798.726 1182.46 740.532C1193.44 752.122 1206.64 760.814 1217.31 767.102C1222 769.876 1226.75 772.526 1231.44 775.177C1249.88 785.595 1267.21 795.397 1282.38 809.761C1283.06 810.377 1283.92 810.747 1284.79 810.747C1285.28 810.747 1285.77 810.624 1286.27 810.439L1288.36 809.144V807.11C1287.56 788.308 1275.84 765.437 1267.27 748.793L1266.04 746.45C1250.68 716.552 1232.73 692.941 1212.62 676.235C1201.09 667.112 1178.82 657.618 1167.35 656.57C1164.15 650.837 1161.37 645.351 1159.15 640.357C1160.26 641.529 1161.37 642.7 1162.67 643.81C1181.29 660.146 1209.97 665.201 1221.44 666.619C1249.01 670.009 1271.71 658.789 1287.31 635.117C1292.93 645.967 1297.8 656.94 1301.38 667.79C1321.36 728.45 1317.66 799.281 1291.2 862.098C1276.34 897.421 1252.53 928.799 1229.52 959.129C1198.44 1000.12 1166.3 1042.54 1155.63 1095.31C1143.98 1152.94 1163.59 1234.38 1222.86 1271.86C1243.28 1284.81 1264.37 1290.23 1284.54 1290.23C1317.47 1290.23 1347.94 1275.62 1368.97 1255.28C1408.26 1217.36 1415.91 1162.56 1388.46 1115.77L1383.22 1118.79C1409.19 1163.12 1401.97 1214.96 1364.78 1250.9C1332.52 1282.03 1277.14 1298.98 1226.07 1266.68C1169.14 1230.62 1150.33 1152.08 1161.56 1096.41C1171.92 1045 1203.68 1003.14 1234.33 962.705C1257.59 932.066 1281.58 900.38 1296.75 864.318C1323.7 800.206 1327.47 727.833 1307.05 665.817C1303.04 653.611 1297.61 641.282 1291.08 629.138C1293.36 625.007 1295.52 620.631 1297.43 615.884C1319.32 561.697 1320.62 494.503 1274.12 466.515C1227.18 438.158 1192.76 455.666 1170.01 467.317C1163.59 470.584 1158.04 473.42 1153.29 474.714C1140.77 478.167 1130.16 474.838 1129.48 473.05C1129.48 473.05 1131.09 468.426 1153.97 464.05C1199.79 455.296 1270.91 419.11 1278.86 355.183C1282.32 327.565 1275.1 302.845 1258.02 283.796C1239.51 263.145 1211.33 251.74 1179.75 251.987C1145.89 252.48 1114.87 260.864 1089.89 276.276C1063.55 292.55 1044.86 320.907 1037.34 356.169C1036.04 362.149 1035.18 368.19 1034.69 374.046C1034.56 375.526 1034.56 377.252 1034.63 378.978C1034.63 382.492 1034.75 386.191 1033.33 388.348C1032.9 388.965 1031.85 390.567 1030.49 390.321C1029.51 390.259 1028.83 389.889 1028.27 389.088C1026.55 386.622 1025.44 380.026 1030.12 361.779C1036.85 335.517 1048.01 269.864 1006.01 227.945C992.192 214.198 968.446 208.958 939.15 213.088C910.717 217.157 875.191 231.459 849.719 254.884C849.78 253.775 850.212 252.11 851.322 249.706C854.159 243.603 871.861 226.404 887.465 211.177C899.677 199.28 912.259 187.012 919.475 178.567C924.224 173.018 926.259 167.162 925.519 161.121C923.977 148.052 909.915 137.942 901.589 131.839L899.245 130.113C896.531 128.078 893.447 127.462 890.24 128.387C880.372 131.161 871.676 148.298 866.125 162.23C859.895 177.827 844.846 200.143 836.767 203.04C835.965 203.348 835.41 203.348 835.04 203.163C833.004 202.054 832.573 201.067 832.449 200.451C831.647 197.307 835.595 191.081 840.159 183.868L841.701 181.464C844.414 177.149 849.965 170.922 855.825 164.388C868.345 150.394 882.531 134.49 882.962 122.715C883.517 108.66 866.556 95.0978 860.019 92.262C857.367 91.0908 855.331 91.2757 853.974 92.6319C853.296 93.3717 852.309 94.9745 853.419 97.317C858.292 112.235 846.203 127.154 837.383 138.065L835.41 140.469C832.018 144.723 829.859 145.524 829.55 145.586C829.242 145.278 828.44 142.565 830.476 136.277C831.647 132.764 833.806 128.818 836.15 124.626C842.441 113.16 850.274 98.9198 843.983 82.9535C841.947 77.7752 840.529 72.2271 839.357 67.7886C837.383 60.2677 836.52 56.8156 833.128 56.7539C829.921 56.7539 828.872 60.391 828.317 62.3637C826.282 69.3297 820.176 71.1791 806.545 74.6929C803.523 75.4943 800.254 76.2957 796.739 77.3437C784.403 80.8575 768.799 91.0908 763.618 105.331C760.349 114.27 761.706 123.517 767.442 132.147C784.712 157.915 788.721 174.991 785.883 176.656C760.411 174.621 749.988 146.511 743.758 129.681C740.49 120.866 739.009 116.859 735.555 116.366C734.569 116.242 732.842 116.366 731.238 118.585C722.85 132.332 720.938 149.038 725.872 165.498C731.485 184.115 744.868 199.958 761.706 207.91C781.381 217.157 786.439 229.425 785.082 232.569C784.65 233.555 782.43 233.185 780.147 232.199C743.635 220.917 721.925 188.122 713.784 175.731C710.083 170.183 709.034 168.888 706.937 169.011L705.025 169.258L704.285 170.861C702.743 174.066 698.056 194.595 701.818 208.465C707.678 233.493 736.049 252.234 759.794 264.933C742.957 270.912 728.401 278.187 721.555 285.646C719.273 288.173 717.114 290.701 715.14 293.167C712.55 265.179 696.267 250.323 684.796 239.781L683.685 238.733C672.707 228.623 672.214 218.575 671.967 213.15C671.843 210.314 671.72 208.095 669.746 206.924C669.068 206.492 667.711 205.999 665.676 206.924C638.23 222.089 613.312 253.343 605.048 282.872C600.792 298.098 601.409 311.106 606.836 320.661C607.453 321.647 608.132 322.633 608.748 323.62C602.951 320.969 596.845 317.948 590.43 314.558C586.175 303.585 557.557 237.808 485.704 223.63L482.435 222.952L482.126 226.281C482.065 227.082 475.959 303.893 587.778 320.168H588.395C590.06 321.154 591.664 322.017 593.267 322.818C576.306 321.216 560.887 322.633 549.107 327.01C522.895 336.75 512.471 352.409 513.396 360.422C513.766 363.382 515.617 365.354 518.145 365.724C539.424 368.93 544.851 376.204 548.799 381.505C549.971 383.047 551.081 384.526 552.438 385.697C552.869 386.067 553.486 386.622 554.288 387.362C567.178 399.136 579.637 407.828 591.602 413.315C567.055 438.035 562.182 467.193 563.663 481.927C564.403 489.509 567.302 500.976 571.064 512.997C562.553 507.51 553.239 505.661 545.036 508.311C537.265 510.839 532.701 513.983 528.692 516.819C524.621 519.654 521.106 522.12 514.63 523.908L511.053 524.833C507.722 525.696 506.057 526.127 505.07 527.915C504.207 529.579 504.762 531.12 505.378 532.785C506.18 534.881 507.599 538.888 507.845 546.779C507.907 549.614 508.647 552.265 509.634 554.854C503.035 552.882 493.29 551.464 483.236 555.841C467.201 562.807 459.799 575.506 461.28 593.63C461.588 597.082 460.169 600.965 458.689 605.034C455.359 614.281 451.165 625.809 462.945 640.111C470.593 649.419 479.659 660.331 491.254 662.673C479.844 670.256 470.408 678.455 469.483 688.75C467.632 708.784 481.448 717.292 495.14 722.901C501.308 725.429 504.083 730.484 507.105 735.785C511.114 742.998 515.493 750.889 528.507 750.889C533.318 750.889 539.239 749.841 546.763 747.252C563.601 741.518 574.764 732.641 582.289 721.915C580.994 731.902 581.487 738.929 582.906 743.861C568.535 739.792 552.499 742.875 538.684 752.368C523.82 762.602 514.321 778.506 513.211 794.904C510.991 827.515 538.869 858.646 572.853 861.482C595.488 863.393 616.396 853.714 632.987 839.104L633.419 841.693C639.217 874.304 647.111 906.668 656.486 938.478C658.336 945.32 660.372 951.978 662.654 958.513C668.143 975.527 673.94 992.48 680.355 1009.12C683.377 1016.83 686.461 1024.6 689.606 1032.43C707.678 1077.49 726.366 1124.03 726.304 1172.73C726.304 1225.93 692.937 1275.37 639.34 1301.82C587.902 1327.22 532.824 1323.77 491.995 1292.63C469.668 1275.62 453.632 1251.27 446.847 1224.02L440.988 1225.5C448.142 1254.04 464.919 1279.63 488.356 1297.44C512.163 1315.63 540.534 1324.75 570.2 1324.75C593.823 1324.75 618.308 1318.96 642.054 1307.24C697.686 1279.75 732.286 1228.21 732.348 1172.73C732.348 1122.92 713.475 1075.76 695.157 1030.21C693.307 1025.65 691.518 1021.08 689.73 1016.52C702.867 1038.28 719.211 1059.98 740.181 1083.47C779.531 1127.55 827.33 1158.18 874.759 1169.84C883.703 1171.99 892.892 1173.04 902.144 1173.04C948.586 1173.04 997.126 1147.77 1030.31 1120.77C1050.85 1104.06 1068.12 1085.26 1083.04 1065.41C1078.54 1192.46 1076.2 1351.94 1074.9 1478C1048.26 1476.77 1027.9 1468.02 1015.75 1447.12C971.468 1370.86 872.354 1253.86 854.159 1263.23C848.917 1265.94 849.78 1274.02 857.12 1290.29C865.508 1308.85 881.667 1370.31 902.205 1448.11C913.492 1491.01 924.532 1532.5 935.264 1571.46C898.32 1552.78 861.067 1532.5 825.11 1512.96C774.042 1485.16 725.81 1458.89 683.747 1440.03C489.712 1353.17 346.561 1343.92 269.774 1413.4C182.625 1492.18 184.413 1670.4 275.14 1943.06L280.876 1941.15C190.951 1671.02 188.607 1494.96 273.783 1417.9C368.395 1332.33 547.565 1385.72 681.28 1445.58C723.097 1464.32 771.266 1490.52 822.211 1518.26C859.772 1538.73 898.752 1559.93 937.423 1579.29C980.905 1736.79 1018.84 1851.64 1047.08 1851.64C1047.52 1851.64 1047.95 1851.64 1048.32 1851.58C1060.59 1850.1 1077.12 1830.06 1079.22 1674.41C1079.34 1667.01 1079.4 1654.81 1079.53 1638.59C1121.1 1650.86 1158.9 1655.61 1189.93 1648.33C1363.18 1607.89 1535.38 1597.97 1649.36 1591.43C1748.1 1585.76 1788.37 1582.93 1792.38 1569.67C1794.3 1563.32 1787.08 1557.96 1785.11 1556.48H1785.41ZM1220.39 761.923C1208.55 754.957 1193.5 744.971 1182.4 731.285C1182.4 731.285 1182.4 731.224 1182.4 731.162H1182.34C1177.59 725.306 1173.52 718.894 1170.81 711.62C1165.69 698.058 1165.87 681.599 1167.04 668.16C1178.15 686.16 1193.75 705.147 1214.84 717.97C1254.44 742.012 1270.6 778.753 1278.12 798.11C1264.43 787.013 1249.38 778.321 1234.58 769.999C1229.89 767.348 1225.21 764.697 1220.52 761.985L1220.39 761.923ZM1208.86 680.982C1228.29 697.133 1245.74 720.066 1260.73 749.224L1261.96 751.567C1264 755.512 1266.16 759.827 1268.38 764.266C1257.89 746.758 1242.23 727.525 1217.93 712.73C1197.39 700.216 1182.16 681.105 1171.3 663.228C1181.97 665.694 1199.18 673.215 1208.86 680.92V680.982ZM939.952 219.253C966.904 215.369 989.416 220.178 1001.69 232.384C1041.53 272.084 1030.74 335.148 1024.08 361.039C1021.43 371.334 1018.4 385.821 1023.28 392.725C1024.88 394.944 1027.16 396.239 1029.94 396.485C1033.21 396.732 1036.23 395.068 1038.39 391.8C1040.85 388.04 1040.79 383.232 1040.73 379.04C1040.73 377.498 1040.73 376.081 1040.73 374.724C1041.22 369.115 1042.09 363.32 1043.26 357.587C1050.48 323.928 1068.18 296.927 1093.09 281.577C1117.15 266.782 1147.12 258.645 1179.87 258.213C1180.43 258.213 1180.98 258.213 1181.54 258.213C1210.34 258.213 1236.49 269.001 1253.52 287.988C1269.43 305.681 1276.09 328.736 1272.88 354.566C1265.36 415.287 1196.96 449.809 1152.86 458.193C1134.97 461.584 1125.47 465.899 1123.75 471.262C1123.07 473.42 1123.62 475.701 1125.35 477.427C1130.1 482.358 1143.42 483.776 1154.96 480.509C1160.26 479.03 1166.06 476.071 1172.78 472.68C1195.66 461.029 1226.93 445.063 1271.03 471.694C1320.62 501.654 1307.48 575.013 1291.82 613.665C1278.06 647.755 1253.27 664.338 1222.06 660.577C1199.36 657.803 1178.58 649.789 1166.49 639.248C1159.34 633.021 1154.22 625.562 1150.08 617.487C1150.08 617.363 1149.96 617.055 1149.96 617.055H1149.9C1145.77 608.918 1142.56 599.979 1139.29 590.855C1136.21 582.287 1133.06 573.471 1128.99 565.211C1122.39 551.71 1116.16 541.169 1109.56 532.107L1108.95 531.244C1104.81 525.511 1099.57 518.421 1092.48 515.462C1083.9 511.949 1077.18 515.031 1074.41 519.716C1071.57 524.463 1071.69 532.847 1081.31 540.737C1105.49 561.327 1121.9 588.328 1128.62 618.72C1136.95 656.324 1135.22 721.052 1096.49 745.156C1057.88 769.198 1009.58 745.834 987.011 710.449C946.798 647.323 976.279 587.033 976.587 586.417V586.294C976.957 585.616 977.883 584.013 979.24 581.732C989.478 564.039 998.544 546.532 996.077 538.025C995.461 535.99 994.227 534.449 992.5 533.525C990.465 532.477 987.751 531.244 984.667 531.244C983.495 531.244 982.262 531.429 981.028 531.86C973.072 534.696 967.768 546.532 955.617 575.321C941 609.843 914.849 633.021 881.914 640.604C837.568 650.837 798.897 640.727 778.421 613.541C753.873 580.93 762.323 533.278 783.355 503.133C815.55 456.899 874.821 436.124 913.431 442.843C938.286 447.159 941.802 442.72 942.912 441.302C944.084 439.761 944.331 437.85 943.529 436.001C941.74 431.932 934.462 428.295 926.691 427.678C887.773 424.349 852.371 401.355 834.423 367.697C819.744 340.203 819.065 310.304 832.696 285.646C853.728 247.487 903.007 224.493 939.89 219.191L939.952 219.253ZM683.747 441.302C684.981 448.268 684.425 455.604 682.575 462.817C673.817 440.994 671.227 412.328 687.756 386.375C687.571 387.3 687.386 388.225 687.201 389.15C684.672 401.725 680.478 422.808 683.747 441.302ZM697.378 365.477C696.329 366.772 695.281 368.005 694.54 369.053C693.8 367.327 692.937 365.169 691.95 362.58C692.875 364.491 694.109 365.724 695.651 365.847C696.267 365.847 696.822 365.724 697.439 365.477H697.378ZM708.664 313.14C707.184 325.223 703.36 339.278 696.267 355.799C695.466 348.463 696.699 333.237 708.664 313.14ZM828.625 280.961C828.255 281.577 827.762 282.132 827.392 282.81C812.774 309.256 813.391 341.251 829.119 370.594C829.55 371.395 830.106 372.135 830.537 372.937C813.33 359.806 796.8 352.717 781.751 349.449C799.144 333.483 804.51 313.202 806.607 294.523C808.395 278.248 814.501 268.138 818.634 262.529C821.471 268.878 824.801 275.043 828.625 280.961ZM885.553 436.309C880.742 428.603 875.931 421.575 871.12 415.103C887.526 425.397 906.399 432.055 926.259 433.72C932.057 434.213 936.251 436.494 937.608 437.85C935.943 438.466 930.392 439.638 914.541 436.864C905.783 435.322 895.914 435.199 885.614 436.247L885.553 436.309ZM878.892 437.172C862.301 439.761 844.723 445.679 828.07 454.988C807.779 461.275 796.677 463.865 786.562 459.611C780.333 425.644 759.671 409 746.657 404.499C738.763 401.787 728.833 395.992 719.828 390.136C736.172 396.424 757.389 402.773 776.324 402.773C776.57 402.773 776.817 402.773 777.064 402.773L780.271 400.862C780.949 399.259 780.271 397.287 778.421 395.561C777.064 394.266 772.006 390.506 763.68 394.821L764.235 395.869C741.353 392.91 717.052 382.862 704.285 377.005C737.837 373.985 760.473 365.724 775.583 354.504C805.003 359.436 842.194 379.656 878.83 437.172H878.892ZM811.232 465.961C803.029 472.125 795.258 479.214 788.165 487.29C788.536 479.708 788.289 472.742 787.487 466.33C790.633 467.255 793.778 467.81 797.17 467.81C801.488 467.81 806.113 467.132 811.232 465.961ZM704.717 371.026C712.365 365.046 730.436 354.566 754.983 353.333C756.525 353.272 758.129 353.21 759.794 353.21C761.83 353.21 763.927 353.272 766.024 353.395C752.208 361.84 732.595 368.436 704.717 371.026ZM689.668 440.316C686.646 422.993 690.531 403.39 693.122 390.382C693.43 388.965 693.554 387.978 693.8 386.869C696.329 397.04 699.783 412.637 700.708 425.521L699.413 424.473C695.466 429.281 696.144 435.138 698.118 439.083C699.043 440.994 700.646 443.275 702.928 443.275C702.928 443.275 702.99 443.275 703.052 443.275L705.827 442.967L706.259 440.562C708.911 425.028 702.743 397.225 699.166 383.17C709.775 391.061 730.128 405.301 744.745 410.356C760.164 415.657 787.487 440.377 781.504 495.736C780.456 497.092 779.407 498.386 778.421 499.804C770.403 511.332 764.173 525.264 760.658 539.997C743.265 527.792 710.021 502.332 697.378 487.845C693.554 483.406 689.73 477.858 686.399 471.385C689.976 461.214 691.457 450.549 689.668 440.439V440.316ZM707.739 207.232C705.334 198.478 706.937 185.902 708.418 178.813C708.541 178.998 708.664 179.183 708.788 179.368C717.299 192.19 739.873 226.342 778.112 238.178C785.082 241.199 789.152 238.671 790.633 235.343C793.778 228.315 786.438 213.088 764.297 202.732C749.247 195.643 736.727 180.847 731.67 164.08C727.476 150.148 728.709 136.092 735 124.441C735.864 126.414 736.974 129.373 738.022 132.147C744.313 149.161 756.032 180.786 785.328 183.067C789.152 183.437 791.064 181.217 791.804 179.923C797.17 170.738 782.06 143.675 772.315 129.126C767.565 122.099 766.517 114.886 769.107 107.735C773.61 95.5293 787.364 86.5906 798.219 83.5083C801.734 82.522 804.941 81.6589 807.902 80.9192C820.237 77.7136 828.872 75.4943 832.758 67.4803C832.943 68.2201 833.128 68.9598 833.313 69.6379C834.485 74.2614 835.965 79.9945 838.185 85.481C843.428 98.7965 836.643 111.126 830.661 121.975C828.194 126.414 825.912 130.668 824.555 134.675C821.779 142.997 822.458 149.038 826.405 151.134C828.564 152.305 833.189 153.045 839.974 144.538L841.886 142.134C850.335 131.654 862.794 116.242 859.772 99.3513C865.878 103.235 876.98 113.715 876.61 122.715C876.24 132.27 862.239 147.99 851.014 160.566C844.723 167.594 839.295 173.697 836.335 178.443L834.793 180.847C829.057 189.971 824.863 196.506 826.343 202.177C827.022 204.828 828.872 207.047 831.894 208.711C833.251 209.451 835.533 210.129 838.617 209.02C849.472 205.136 865.385 180.231 871.552 164.758C878.398 147.682 886.108 136.092 891.659 134.49C893.016 134.12 894.188 134.366 895.359 135.229L897.765 136.955C905.351 142.442 917.995 151.627 919.29 162.045C919.783 166.422 918.303 170.614 914.602 174.868C907.571 183.128 895.051 195.273 882.962 207.109C865.446 224.185 848.855 240.274 845.586 247.425C842.441 254.145 843.119 257.905 844.661 260.063C839.974 264.871 835.78 270.111 832.018 275.597C828.194 269.864 824.863 263.885 821.964 257.658C822.828 256.426 823.321 255.254 822.828 253.96L822.026 252.234L819.991 251.802H819.559C819.559 251.802 819.374 251.802 819.312 251.802C812.528 235.281 808.704 217.404 807.038 199.465C804.263 170.429 807.039 140.962 812.404 112.174C806.113 140.778 802.228 170.183 804.016 199.711C805.065 217.465 808.21 235.343 814.316 252.295C800.131 253.775 783.231 257.474 767.565 262.467C752.393 254.699 713.907 234.11 707.554 207.17L707.739 207.232ZM715.51 302.845C718.533 298.715 722.048 294.4 726.057 289.899C738.763 276.152 783.046 261.912 814.07 258.46C809.629 264.44 802.598 275.659 800.562 293.845C799.144 306.729 796.492 330.154 773.733 348.032C756.155 345.627 740.921 348.217 729.573 351.73C722.973 353.765 716.806 356.539 711.44 359.436C717.422 353.95 725.255 347.97 735 342.977V343.285C740.551 344.333 744.437 341.867 746.164 339.278C747.336 337.49 747.521 335.641 746.595 334.285L744.869 332.127L742.586 333.052C721.555 341.312 707.678 353.765 699.66 362.827C710.7 338.415 715.14 318.811 715.449 302.968L715.51 302.845ZM610.845 284.783C618.432 257.597 640.943 228.87 665.922 214.013C666.231 219.931 666.971 231.829 679.553 243.418L680.663 244.466C692.258 255.131 709.096 270.481 709.343 301.057C688.619 330.216 688.619 352.47 691.087 360.669C687.756 351.915 683.315 339.463 679.121 324.606C681.403 314.311 678.69 308.27 675.606 306.236C674.002 305.188 672.09 305.126 670.733 306.174C670.178 306.605 668.451 308.147 669.376 311.229C672.584 324.421 676.161 336.38 679.553 346.367C672.152 336.442 662.469 325.654 650.627 317.209L646.433 317.394C645.014 318.565 644.644 320.599 645.446 322.942C646.741 326.702 650.935 331.141 658.645 331.695C667.279 339.894 674.249 349.018 679.553 356.97C660.618 342.853 639.402 332.99 618.74 327.627C616.458 324.606 614.237 321.339 612.079 317.887C607.515 309.873 607.083 298.468 610.907 284.844L610.845 284.783ZM682.39 366.525C670.918 365.786 647.419 359.991 625.771 336.196C645.446 342.422 665.306 352.532 682.39 366.525ZM581.734 309.934C553.054 293.352 520.859 268.385 492.92 231.89C546.455 246.316 572.791 291.071 581.734 309.934ZM488.356 235.836C514.753 270.296 544.79 294.523 572.359 311.352C502.171 295.694 490.144 254.083 488.356 235.836ZM558.42 383.17C557.495 382.368 556.817 381.752 556.385 381.32C555.583 380.642 554.72 379.471 553.733 378.115C549.415 372.32 542.878 363.566 519.564 360.238C519.441 359.991 519.317 358.758 520.181 356.539C522.956 349.634 532.516 339.833 551.266 332.867C567.363 326.887 590.739 326.949 615.409 333.113C629.472 351.237 644.582 360.977 657.473 366.217C640.512 364.614 619.973 364.245 600.484 368.128C597.461 369.238 596.845 370.964 596.906 372.259C596.906 373.307 597.462 375.218 600.669 376.142C604.863 377.375 614.484 377.129 619.295 371.642C640.265 370.039 661.173 372.32 675.359 374.663C638.723 380.827 613.497 393.773 596.475 409C584.448 403.883 571.742 395.253 558.482 383.108L558.42 383.17ZM682.143 379.656C676.901 387.67 661.667 405.547 634.344 412.945C624.537 415.596 614.052 415.103 603.012 411.527C620.158 397.164 645.446 385.019 682.143 379.656ZM597.832 416.089C611.215 421.082 623.921 422.007 635.886 418.74C653.464 413.993 666.724 404.993 675.729 396.485C664.874 423.178 669.931 450.981 679.8 471.509C672.46 490.619 657.534 508.003 644.952 515.339C641.067 517.62 636.688 519.839 632.247 522.12C615.964 530.442 597.893 539.689 593.761 554.546C586.298 539.134 572.112 504.304 569.83 481.495C568.412 467.44 573.346 439.514 597.893 416.027L597.832 416.089ZM639.402 695.346C636.564 689.243 634.714 683.016 632.926 676.975C630.027 667.297 627.128 658.235 620.899 651.145C624.414 643.994 626.264 636.782 626.449 629.878C628.115 628.891 631.63 626.487 636.688 622.233C643.534 617.487 651.552 612.493 659.57 609.164C661.852 608.24 663.887 607.315 665.676 606.575C669.746 604.849 673.879 603 674.804 603.185C675.667 604.109 676.161 609.781 676.469 613.233C677.949 629.693 673.94 660.516 664.566 683.571C658.46 698.613 652.107 704.038 648.16 704.161C643.966 704.161 641.252 699.414 639.34 695.346H639.402ZM570.817 665.386C563.724 662.18 557.803 656.57 554.165 649.481C547.812 637.213 549.971 622.542 559.715 611.199C567.117 602.63 578.342 597.821 589.505 597.637C599.065 597.698 607.576 601.644 613.436 608.733C622.44 619.644 622.811 635.364 614.423 650.776C606.035 666.187 586.915 672.598 570.817 665.447V665.386ZM632.802 617.548C630.273 619.274 627.991 620.939 625.956 622.48C624.908 616.007 622.317 609.966 618.061 604.788C613.867 599.733 608.44 596.219 602.396 593.999C601.84 585.122 600.422 575.937 598.88 567.368H599.312L598.942 563.978C597.153 546.902 616.335 537.1 634.899 527.545C635.454 527.237 635.948 526.99 636.503 526.744C641.067 530.319 645.137 532.168 649.085 533.833C653.402 535.682 657.843 537.532 663.455 542.155C667.834 545.792 670.487 551.402 671.042 557.875C671.905 569.218 666.354 582.41 655.314 594.986C645.878 605.774 638.353 612.863 632.802 617.548ZM512.656 530.936L516.357 529.949C523.82 527.915 528.137 524.894 532.269 521.997C536.093 519.284 540.102 516.51 547.01 514.291C555.151 511.64 565.39 514.846 573.716 522.675L574.148 522.243C580.13 539.874 587.408 557.012 592.281 564.039C593.946 572.855 595.488 582.78 596.228 592.273C594.069 591.904 591.849 591.534 589.567 591.534H589.197C582.844 591.534 576.553 592.951 570.817 595.602C565.821 592.397 560.517 589.253 555.151 586.109C535.168 574.334 514.507 562.19 514.075 546.84C513.828 538.333 512.286 533.833 511.423 531.244C511.854 531.12 512.286 530.997 512.78 530.874L512.656 530.936ZM467.694 636.474C458.134 624.823 461.218 616.315 464.487 607.315C466.214 602.568 467.817 598.13 467.447 593.321C466.152 577.663 472.011 567.615 485.765 561.574C499.581 555.594 513.458 562.807 514.691 563.423C522.895 573.964 537.574 582.718 552.068 591.225C556.447 593.815 560.764 596.404 564.896 598.993C561.319 601.335 557.927 603.924 555.151 607.192C547.503 616.069 543.988 627.103 544.851 637.768C533.996 638.878 524.621 641.837 517.159 646.83C513.15 649.481 508.771 652.132 504.392 654.782C503.713 655.214 503.035 655.584 502.356 656.015C489.219 660.947 479.721 651.022 467.756 636.474H467.694ZM544.851 741.703C521.661 749.594 517.775 742.69 512.409 733.011C509.202 727.278 505.625 720.805 497.484 717.477C480.461 710.511 474.355 702.681 475.527 689.489C476.514 678.516 492.18 669.084 507.352 659.961C511.854 657.248 516.295 654.598 520.366 651.885C527.089 647.385 535.662 644.734 545.653 643.81C546.332 646.707 547.257 649.543 548.675 652.255C552.931 660.577 559.9 667.173 568.227 670.934C573.469 673.276 578.958 674.386 584.386 674.386C586.73 674.386 589.073 674.078 591.417 673.708C588.025 706.195 578.403 730.299 544.79 741.765L544.851 741.703ZM597.77 671.982C605.664 669.208 612.696 664.029 617.63 656.755C622.07 662.612 624.476 670.071 627.066 678.64C628.855 684.681 630.767 690.907 633.604 697.257C633.789 699.291 635.208 719.203 626.573 729.991C621.145 736.71 617.63 738.313 613.559 740.101C610.599 741.395 607.268 742.936 603.197 746.45C601.224 748.176 598.325 749.533 595.611 749.409C594.378 748.669 592.897 748.238 591.541 747.56C589.135 745.156 586.051 738.868 588.395 722.038C589.258 715.997 590.184 711.743 591.047 707.983C591.602 705.456 592.157 703.051 592.589 700.462C595.364 691.339 596.783 681.66 597.708 671.92L597.77 671.982ZM573.469 855.564C543.186 853.036 517.405 824.371 519.379 795.459C520.366 780.91 528.877 766.732 542.261 757.547C551.019 751.505 560.826 748.3 570.324 748.3C574.333 748.3 578.28 748.854 582.104 750.026C584.324 750.704 586.236 751.813 588.21 752.738C588.827 753.231 589.444 753.663 590.06 753.971C591.17 754.587 592.281 754.896 593.391 755.142C616.396 769.198 625.709 800.945 631.815 832.323C615.903 847.303 595.611 857.413 573.469 855.625V855.564ZM602.149 754.094C603.999 753.293 605.788 752.245 607.206 750.95C610.599 747.991 613.251 746.82 616.088 745.587C620.467 743.614 624.969 741.58 631.322 733.751C637.613 725.922 639.402 714.702 639.772 706.504C642.732 709.339 645.693 710.141 648.098 710.141H648.345C656.116 709.956 663.887 701.325 670.178 685.79C673.139 678.455 675.544 670.317 677.456 662.118C678.381 709.216 677.641 757.238 655.746 800.329C650.997 809.699 644.644 818.946 636.996 827.083C631.137 798.233 622.07 769.876 602.211 754.094H602.149ZM770.896 661.379C786.994 665.694 830.846 681.167 849.657 724.134C848.3 732.025 845.216 739.053 839.11 743.121C838.74 743.306 838.309 743.306 837.753 743.245C834.546 735.477 827.885 724.566 813.515 712.668C787.179 690.845 742.031 690.722 716.497 704.223C704.039 710.819 693.184 713.038 684.24 710.942C683.932 710.88 683.5 710.819 683.007 710.757C683.994 691.832 683.747 672.721 683.315 653.858C684.055 653.858 684.734 653.673 685.289 653.365C705.642 643.871 737.344 652.378 770.896 661.44V661.379ZM685.597 646.707C686.461 643.994 689.113 639.741 695.527 637.46C709.034 632.528 748.507 633.268 787.364 647.447C834.053 664.399 845.031 682.4 845.155 682.585C846.511 684.866 850.212 698.181 850.459 712.113C828.81 674.078 788.165 659.776 772.5 655.584C749.062 649.296 726.489 643.193 707.369 643.193C699.475 643.193 692.135 644.241 685.597 646.707ZM794.333 726.847C794.333 739.238 784.218 749.348 771.76 749.348C759.301 749.348 749.248 739.238 749.248 726.847C749.248 723.21 750.234 719.696 751.9 716.552C766.27 713.593 780.641 715.072 793.346 720.559C793.963 722.593 794.333 724.689 794.333 726.847ZM766.764 708.846C760.904 708.846 754.922 709.524 749.001 710.88C738.948 713.161 729.881 716.552 723.282 719.079C719.89 720.312 717.176 721.36 715.264 721.915C710.515 723.21 699.845 724.874 690.655 717.846H691.148C699.598 717.846 709.034 715.134 719.334 709.648C742.71 697.318 785.513 697.442 809.691 717.415C817.955 724.258 823.506 730.73 827.145 736.279C826.405 735.662 825.727 735.046 824.986 734.429C819.065 729.374 811.664 723.148 802.536 718.031C791.743 711.99 779.469 708.846 766.825 708.846H766.764ZM716.806 727.71C718.903 727.155 721.801 726.045 725.379 724.689C730.498 722.778 737.221 720.251 744.622 718.216C743.758 720.99 743.142 723.888 743.142 726.847C743.142 737.943 749.556 747.437 758.807 752.183C747.089 750.889 737.282 748.238 730.806 744.231C720.198 737.696 717.422 730.607 716.682 727.71C716.682 727.71 716.682 727.71 716.744 727.71H716.806ZM800.377 726.847C800.377 725.737 800.192 724.689 800.069 723.641C808.457 728.45 815.427 734.306 820.977 738.991C825.541 742.813 829.365 746.142 833.004 747.868C833.621 749.594 834.053 751.074 834.3 752.245H834.115C828.132 751.32 815.735 749.471 798.527 751.567C793.47 752.183 788.474 752.492 783.663 752.738C793.47 748.238 800.377 738.313 800.377 726.847ZM1026.67 1116.14C987.936 1147.64 928.11 1176.8 876.363 1164.1C830.106 1152.76 783.416 1122.8 744.869 1079.65C706.259 1036.43 683.069 999.199 668.513 956.787C666.354 950.129 664.319 943.471 662.345 936.752C661.852 934.902 661.235 933.176 660.803 931.327H660.68C652.107 901.552 644.891 871.284 639.463 840.83C639.093 838.673 638.723 836.577 638.291 834.419C647.666 825.049 655.437 814.199 660.988 803.165C674.742 776.164 680.231 747.437 682.39 718.34C691.642 728.573 703.237 729.621 710.7 728.881C711.625 732.765 715.017 741.765 727.599 749.471C744.437 759.827 775.583 760.505 799.206 757.731C815.673 755.759 827.083 757.485 833.189 758.41C837.26 759.026 839.11 759.273 840.467 757.547L841.392 755.82L840.899 754.279C840.899 754.279 840.776 753.663 840.652 753.17C840.467 752.245 840.159 750.889 839.727 749.348C840.467 749.224 841.207 748.978 841.947 748.669C847.375 745.094 850.952 739.916 853.234 734.059C856.75 745.094 858.662 757.731 858.292 772.095C857.182 814.816 847.067 836.453 838.987 853.838C833.251 866.105 828.317 876.708 828.009 891.072C827.762 903.216 831.154 912.525 838.123 918.751C849.164 928.738 865.076 926.888 865.755 926.765C869.764 926.272 870.627 923.683 870.812 922.573C871.552 918.196 866.125 913.264 860.697 910.614C858.107 909.319 857.305 907.531 857.12 906.853C856.935 906.237 856.997 905.805 856.873 905.682C859.834 905.929 867.112 907.655 874.328 917.826C878.583 923.868 884.813 927.813 891.782 928.984C892.152 929.046 892.522 929.107 892.954 929.169C894.558 940.635 898.258 953.273 904.981 966.403C905.659 967.76 906.461 969.054 907.263 970.349C905.598 971.212 904.056 972.075 902.699 972.876C900.417 974.171 897.58 975.774 897.025 975.897C894.804 975.342 889.993 972.136 886.786 970.04C885.306 969.054 884.011 968.191 882.777 967.451C859.834 956.478 840.221 968.438 834.731 972.383C831.833 974.479 828.625 977.13 825.295 980.027C816.413 987.548 806.298 996.117 797.047 996.857L797.294 999.816L794.827 998.953L793.408 1000.8C792.791 1001.6 791.311 1003.45 796.122 1009.86C800.562 1015.66 805.805 1021.02 809.321 1024.54C829.735 1044.94 859.772 1057.08 893.817 1058.75C896.223 1058.87 898.628 1058.93 901.034 1058.93C920.03 1058.93 938.163 1055.24 954.014 1048.08C963.265 1043.89 993.919 1028.36 999.901 1004.01C1000.15 1002.96 1000.15 1001.97 999.901 1001.05C1001.63 999.939 1002.55 998.706 1002.61 997.473L1002.18 994.267L999.346 993.959C997.187 993.774 992.377 992.233 981.768 986.377C979.733 985.267 977.081 983.479 973.997 981.445C963.389 974.479 947.353 963.876 933.105 963.259C925.766 962.889 918.735 965.047 912.875 967.698C912.012 966.403 911.21 965.109 910.47 963.691C904.241 951.485 900.787 939.834 899.122 929.231C902.082 928.861 904.796 927.936 906.77 926.518C908.311 925.409 910.717 922.943 913.739 919.799C917.81 915.669 928.48 904.634 931.378 904.634C932.427 906.977 930.022 909.874 927.061 913.141C924.656 915.792 922.62 918.073 923.669 920.785C924.656 923.374 927.678 923.683 929.035 923.806C948.031 923.559 959.01 911.662 961.168 900.75C962.402 894.462 961.168 884.476 955.617 876.215C951.115 869.619 944.516 865.304 936.498 863.763C918.426 860.372 905.536 866.413 898.073 881.64C894.434 889.099 890.61 904.079 892.214 922.943C888.452 922.203 883.332 920.107 879.262 914.374C870.689 902.23 861.622 899.949 856.997 899.641C854.098 899.394 851.939 901.182 851.199 903.956C850.212 907.716 852.186 913.079 858.045 915.977C861.129 917.518 863.349 919.491 864.336 920.785C859.279 921.217 849.102 920.354 842.256 914.189C836.705 909.134 833.929 901.367 834.176 891.133C834.423 878.003 838.925 868.448 844.6 856.303C852.988 838.426 863.349 816.172 864.459 772.157C864.953 753.046 861.684 736.957 856.01 723.395C858.723 704.531 852.556 683.201 850.459 679.564C846.141 672.167 828.379 655.892 789.522 641.775C747.459 626.487 707.369 626.795 693.554 631.789C687.386 634.008 683.377 638.076 681.218 642.145C682.76 630.74 683.254 620.199 682.575 612.617C681.773 604.109 681.28 599.917 678.011 598.006C674.804 596.095 670.918 597.698 663.27 601.027C661.482 601.767 659.508 602.63 657.288 603.555C656.363 603.924 655.499 604.479 654.574 604.911C656.363 603 658.09 601.15 660.002 598.931C672.09 585.061 678.196 570.327 677.209 557.32C676.593 549.183 673.139 542.155 667.464 537.47C661.235 532.23 656.116 530.072 651.552 528.161C648.468 526.867 645.631 525.572 642.609 523.538C644.521 522.552 646.371 521.504 648.098 520.517C660.803 513.12 675.236 496.969 683.624 478.413C686.522 483.468 689.73 487.907 692.937 491.605C706.629 507.325 742.093 534.264 759.424 546.285C755.045 570.697 758.314 596.589 773.733 617.117C795.628 646.275 836.643 657.248 883.394 646.46C918.241 638.446 945.934 613.973 961.292 577.602C970.975 554.669 977.389 539.566 983.187 537.47C984.297 537.039 986.147 536.792 989.786 538.765C989.91 538.826 990.156 538.949 990.341 539.566C992.438 546.779 978.623 570.697 974.059 578.588C972.64 581.054 971.592 582.903 971.222 583.643C969.988 586.232 940.568 648.495 982.015 713.593C999.223 740.594 1030.55 760.937 1062.26 760.937C1075.02 760.937 1087.79 757.67 1099.76 750.211C1141.2 724.443 1143.3 656.632 1134.6 617.302C1127.57 585.554 1110.55 557.443 1085.26 535.99C1079.03 530.874 1077.98 525.634 1079.71 522.737C1081.13 520.271 1085.01 518.791 1090.26 521.01C1095.75 523.291 1100.37 529.641 1104.13 534.758L1104.75 535.621C1111.17 544.436 1117.15 554.669 1123.62 567.862C1127.51 575.814 1130.66 584.506 1133.68 592.828C1136.88 601.828 1140.22 610.952 1144.53 619.521C1145.64 623.281 1150.95 639.741 1161.68 659.159C1159.95 674.139 1158.41 696.024 1165.07 713.716C1167.78 720.99 1171.79 727.525 1176.36 733.443C1177.71 793.733 1170.07 849.954 1152.92 905.189C1131.95 972.691 1098.71 1057.64 1026.73 1116.14H1026.67ZM936.806 902.045C936.004 900.195 934.524 898.963 932.674 898.654C926.999 897.668 919.413 905.004 909.237 915.422C906.646 918.073 904.179 920.662 903.007 921.463C902.02 922.203 900.355 922.82 898.196 923.066C896.531 905.189 900.047 891.133 903.439 884.167C908.558 873.749 916.144 868.756 927.061 868.756C929.652 868.756 932.365 869.064 935.326 869.557C941.864 870.79 946.983 874.119 950.56 879.421C954.939 885.832 956.172 894.339 955.186 899.394C953.52 907.655 945.194 916.655 931.008 917.518C931.132 917.333 931.317 917.148 931.44 917.025C934.647 913.449 939.52 908.086 936.806 901.983V902.045ZM974.984 998.768C977.944 999.137 981.275 999.507 984.235 999.939C977.698 1001.36 968.569 1002.65 956.543 1002.9C941 1003.21 932.55 1002.9 926.938 1002.59C921.078 1002.34 918.056 1002.22 913.554 1003.27C906.338 1004.93 896.469 1004.44 886.54 1001.91C884.751 1001.48 881.852 1001.23 877.781 1001.23C872.786 1001.23 866.063 1001.48 857.243 1001.91C839.665 1002.65 816.598 1003.64 803.708 1001.42C812.651 998.398 821.347 991.062 829.119 984.466C832.388 981.753 835.41 979.164 838.185 977.13C842.996 973.678 860.204 963.198 879.879 972.63C880.804 973.184 882.037 973.986 883.394 974.91C888.452 978.301 892.522 980.952 895.544 981.63C898.073 982.185 900.91 980.644 905.598 977.993C907.201 977.13 908.99 976.082 910.964 975.095C926.691 993.096 955.309 996.425 975.046 998.706L974.984 998.768ZM916.638 972.445C921.572 970.41 926.876 968.808 932.674 969.177C945.256 969.732 960.428 979.719 970.481 986.377C973.75 988.534 976.526 990.322 978.623 991.493C979.918 992.233 981.151 992.911 982.323 993.528C980.288 993.281 978.068 993.034 975.662 992.726C957.406 990.63 931.255 987.548 916.638 972.445ZM993.487 1003.7C987.381 1024.66 959.811 1038.59 951.362 1042.41C934.462 1050.06 914.602 1053.63 894.003 1052.52C861.437 1050.92 832.819 1039.39 813.515 1020.04C810.369 1016.89 805.743 1012.14 801.734 1007.15C815.365 1009.74 838.37 1008.75 857.49 1007.89C869.949 1007.34 881.729 1006.84 885.059 1007.71C895.914 1010.48 906.77 1011.04 914.972 1009.12C918.735 1008.26 921.078 1008.38 926.753 1008.63C932.427 1008.88 941 1009.25 956.728 1008.94C971.592 1008.63 985.16 1006.6 993.548 1003.7H993.487ZM1073.36 1674.35C1071.38 1820.88 1056.52 1844.55 1047.82 1845.6C1047.58 1845.6 1047.27 1845.6 1047.02 1845.6C1022.54 1845.6 980.905 1712.75 944.886 1582.86C989.354 1604.87 1033.27 1624.17 1073.73 1636.74C1073.6 1653.82 1073.48 1666.64 1073.36 1674.29V1674.35ZM1073.85 1618.56C1073.85 1622.75 1073.79 1626.69 1073.73 1630.52C1032.65 1617.63 987.936 1597.72 942.665 1575.1C930.145 1529.6 918.303 1484.85 908.25 1446.63C887.65 1368.58 871.429 1306.87 862.856 1287.83C855.578 1271.67 857.182 1268.65 857.058 1268.65C868.653 1265.26 959.38 1361.8 1010.69 1450.2C1024.2 1473.44 1046.34 1483 1075.02 1484.17C1074.47 1536.69 1074.1 1583.11 1073.85 1618.5V1618.56ZM1786.83 1567.95C1783.87 1577.62 1721.52 1581.26 1649.29 1585.39C1535.13 1591.99 1362.56 1601.91 1188.82 1642.48C1158.47 1649.57 1121.03 1644.7 1079.83 1632.37C1079.83 1627.99 1079.9 1623.43 1079.96 1618.62C1080.2 1583.23 1080.57 1536.81 1081.13 1484.35H1081.81C1118.75 1484.35 1165.63 1472.21 1218.42 1458.59C1377.18 1417.47 1594.65 1361.18 1781.34 1561.04C1787.14 1565.36 1787.02 1567.45 1786.89 1568.01L1786.83 1567.95Z" fill="#444D4F"/>
<path d="M576.984 653.734C571.125 653.734 571.125 662.796 576.984 662.796C582.844 662.796 582.844 653.734 576.984 653.734Z" fill="#444D4F"/>
<path d="M589.135 654.412C583.275 654.412 583.275 663.474 589.135 663.474C594.994 663.474 594.994 654.412 589.135 654.412Z" fill="#444D4F"/>
<path d="M600.545 648.926C594.686 648.926 594.686 657.988 600.545 657.988C606.404 657.988 606.404 648.926 600.545 648.926Z" fill="#444D4F"/>
<path d="M608.439 639.248C602.58 639.248 602.58 648.31 608.439 648.31C614.299 648.31 614.299 639.248 608.439 639.248Z" fill="#444D4F"/>
<path d="M611.277 628.027C605.418 628.027 605.418 637.089 611.277 637.089C617.137 637.089 617.137 628.027 611.277 628.027Z" fill="#444D4F"/>
<path d="M610.598 625.685C616.457 625.685 616.457 616.623 610.598 616.623C604.738 616.623 604.738 625.685 610.598 625.685Z" fill="#444D4F"/>
<path d="M604.738 616.499C610.597 616.499 610.597 607.438 604.738 607.438C598.879 607.438 598.879 616.499 604.738 616.499Z" fill="#444D4F"/>
<path d="M594.008 610.828C599.867 610.828 599.867 601.766 594.008 601.766C588.148 601.766 588.148 610.828 594.008 610.828Z" fill="#444D4F"/>
<path d="M582.844 610.828C588.703 610.828 588.703 601.766 582.844 601.766C576.984 601.766 576.984 610.828 582.844 610.828Z" fill="#444D4F"/>
<path d="M572.236 615.884C578.096 615.884 578.096 606.822 572.236 606.822C566.377 606.822 566.377 615.884 572.236 615.884Z" fill="#444D4F"/>
<path d="M563.785 625.376C569.644 625.376 569.644 616.314 563.785 616.314C557.926 616.314 557.926 625.376 563.785 625.376Z" fill="#444D4F"/>
<path d="M560.701 634.931C566.56 634.931 566.56 625.869 560.701 625.869C554.842 625.869 554.842 634.931 560.701 634.931Z" fill="#444D4F"/>
<path d="M561.135 637.15C555.275 637.15 555.275 646.212 561.135 646.212C566.994 646.212 566.994 637.15 561.135 637.15Z" fill="#444D4F"/>
<path d="M567.117 647.076C561.258 647.076 561.258 656.138 567.117 656.138C572.976 656.138 572.976 647.076 567.117 647.076Z" fill="#444D4F"/>
<path d="M570.139 627.719C564.279 627.719 564.279 636.781 570.139 636.781C575.998 636.781 575.998 627.719 570.139 627.719Z" fill="#444D4F"/>
<path d="M570.939 647.076C576.799 647.076 576.799 638.014 570.939 638.014C565.08 638.014 565.08 647.076 570.939 647.076Z" fill="#444D4F"/>
<path d="M579.514 644.303C573.654 644.303 573.654 653.365 579.514 653.365C585.373 653.365 585.373 644.303 579.514 644.303Z" fill="#444D4F"/>
<path d="M590.121 644.795C584.262 644.795 584.262 653.857 590.121 653.857C595.98 653.857 595.98 644.795 590.121 644.795Z" fill="#444D4F"/>
<path d="M598.633 638.014C592.773 638.014 592.773 647.076 598.633 647.076C604.492 647.076 604.492 638.014 598.633 638.014Z" fill="#444D4F"/>
<path d="M602.271 637.89C608.131 637.89 608.131 628.828 602.271 628.828C596.412 628.828 596.412 637.89 602.271 637.89Z" fill="#444D4F"/>
<path d="M600.976 627.595C606.836 627.595 606.836 618.533 600.976 618.533C595.117 618.533 595.117 627.595 600.976 627.595Z" fill="#444D4F"/>
<path d="M594.748 610.951C588.889 610.951 588.889 620.013 594.748 620.013C600.607 620.013 600.607 610.951 594.748 610.951Z" fill="#444D4F"/>
<path d="M583.646 611.938C577.787 611.938 577.787 620.999 583.646 620.999C589.506 620.999 589.506 611.938 583.646 611.938Z" fill="#444D4F"/>
<path d="M574.332 625.623C580.191 625.623 580.191 616.561 574.332 616.561C568.473 616.561 568.473 625.623 574.332 625.623Z" fill="#444D4F"/>
<path d="M581.117 623.219C575.258 623.219 575.258 632.281 581.117 632.281C586.976 632.281 586.976 623.219 581.117 623.219Z" fill="#444D4F"/>
<path d="M578.959 641.466C584.818 641.466 584.818 632.404 578.959 632.404C573.1 632.404 573.1 641.466 578.959 641.466Z" fill="#444D4F"/>
<path d="M587.717 635.857C581.857 635.857 581.857 644.919 587.717 644.919C593.576 644.919 593.576 635.857 587.717 635.857Z" fill="#444D4F"/>
<path d="M590.06 628.335C595.92 628.335 595.92 619.273 590.06 619.273C584.201 619.273 584.201 628.335 590.06 628.335Z" fill="#444D4F"/>
<path d="M592.773 628.213C586.914 628.213 586.914 637.275 592.773 637.275C598.633 637.275 598.633 628.213 592.773 628.213Z" fill="#444D4F"/>
<path d="M921.881 382.368C948.648 418.863 981.46 444.446 1000.15 457.33C976.711 452.645 934.771 447.035 910.039 460.72C895.113 468.919 887.28 477.981 886.787 487.536C886.54 492.16 888.144 495.859 889.871 498.509C887.342 502.578 887.404 508.126 888.699 512.565C890.056 517.373 893.201 522.675 897.765 523.229C897.95 523.229 898.197 523.229 898.444 523.229C900.171 523.229 902.823 522.49 904.92 518.606C907.078 514.661 907.572 510.715 906.338 506.955C903.933 499.496 895.73 495.55 895.36 495.365L894.866 495.119C893.756 493.331 892.646 490.742 892.893 487.413C893.509 480.324 900.479 472.864 912.999 465.96C938.718 451.782 986.764 460.412 1006.62 464.912C979.98 476.193 910.964 510.654 871.368 577.355C866.248 578.033 861.931 582.163 859.464 586.478C856.997 590.855 855.393 596.773 858.292 600.41C859.094 601.397 860.636 602.753 863.473 602.753C864.398 602.753 865.447 602.629 866.557 602.26C870.874 601.027 874.02 598.622 875.87 595.047C878.769 589.437 877.412 582.779 876.733 580.19C912.012 520.948 971.16 487.721 1001.14 473.974C983.064 490.803 951.609 522.366 936.19 551.34C930.639 551.648 926.075 556.025 923.546 560.587C921.079 564.964 919.475 570.882 922.312 574.519C923.114 575.505 924.656 576.861 927.493 576.861C928.418 576.861 929.405 576.738 930.639 576.368C934.956 575.135 938.102 572.731 939.89 569.156C942.481 564.162 941.679 558.244 941 555.224C958.825 520.948 1002 481.125 1014.83 469.782C1018.47 485.317 1028.09 536.791 1007.61 571.868C1002.55 572.608 998.36 576.676 995.893 580.992C993.426 585.369 991.822 591.287 994.659 594.924C995.399 595.91 997.003 597.266 999.84 597.266C1000.77 597.266 1001.75 597.143 1002.99 596.773C1007.3 595.54 1010.45 593.136 1012.24 589.561C1015.26 583.766 1013.72 576.861 1013.04 574.519C1031.11 543.141 1026.98 500.975 1022.85 478.721C1031.97 494.811 1044.62 527.606 1041.41 581.916C1037.22 585.245 1035.86 591.225 1036.17 596.28C1036.54 601.273 1038.45 607.13 1042.77 608.609C1043.26 608.794 1043.88 608.917 1044.68 608.917C1046.34 608.917 1048.5 608.239 1050.72 605.65C1053.68 602.26 1054.92 598.499 1054.55 594.554C1053.93 588.513 1049.49 583.827 1047.39 581.916C1051.15 517.435 1033.39 482.605 1024.02 469.042C1042.03 473.666 1085.82 486.858 1130.66 515.4C1130.66 520.764 1134.48 525.572 1138.74 528.469C1141.57 530.442 1145.21 532.045 1148.42 532.045C1149.9 532.045 1151.32 531.736 1152.49 530.935C1153.85 530.01 1156.01 527.791 1155.08 522.859C1154.22 518.483 1152.12 515.154 1148.73 512.996C1143.67 509.791 1137.38 510.284 1134.48 510.715C1089.89 482.173 1046.04 468.549 1026.73 463.494C1046.96 455.604 1098.52 437.356 1149.41 433.473C1152.37 436.432 1156.81 437.603 1161 437.603C1161.86 437.603 1162.67 437.603 1163.47 437.48C1168.46 436.986 1174.26 434.829 1175.56 430.452C1175.99 428.849 1176.23 425.767 1172.29 422.623C1168.77 419.787 1165.01 418.678 1161.06 419.232C1153.97 420.219 1149.04 426.26 1148.11 427.555C1101.11 431.253 1053.81 446.911 1030.37 455.665C1044.74 443.151 1069.97 423.918 1092.72 419.726C1095.13 421.637 1098.21 422.438 1101.36 422.438C1103.7 422.438 1105.99 422.006 1108.08 421.39C1112.89 419.911 1118.14 416.705 1118.57 412.143C1118.69 410.479 1118.32 407.396 1113.88 405.054C1109.87 402.958 1105.99 402.588 1102.16 403.883C1096.36 405.855 1092.79 411.28 1091.43 413.808C1065.22 418.801 1037.03 441.487 1023.09 454.001C1030.49 434.829 1051.28 394.697 1101.42 366.525C1103.27 367.511 1105.25 368.128 1107.34 368.128C1110.49 368.128 1113.76 367.203 1116.47 365.909C1120.97 363.751 1125.72 359.867 1125.48 355.244C1125.35 353.579 1124.55 350.62 1119.8 348.956C1115.55 347.476 1111.6 347.661 1108.08 349.511C1102.47 352.408 1099.76 358.573 1098.83 361.1C1043.51 392.047 1022.85 436.185 1016.31 454.926C1008.23 431.623 987.258 363.874 993.117 304.386C997.435 300.995 998.668 294.769 998.113 289.591C997.619 284.597 995.461 278.803 991.082 277.508C989.54 277.015 986.394 276.83 983.249 280.775C980.412 284.289 979.302 288.05 979.795 291.995C980.597 297.728 984.791 302.105 987.073 304.139C981.83 358.141 998.051 418.308 1007.49 447.651C991.39 425.767 963.081 383.848 953.891 349.449C957.283 345.874 958.332 340.325 957.838 335.579C957.345 330.585 955.248 324.791 950.807 323.496C949.203 323.065 946.12 322.818 942.974 326.763C940.137 330.277 939.027 334.038 939.52 337.983C940.569 345.504 947.353 350.682 948.093 351.175C957.838 387.546 987.443 430.822 1003.54 452.583C985.408 440.069 953.582 415.225 927.432 379.841C929.96 375.525 929.467 369.792 927.802 365.23C926.013 360.545 922.497 355.49 917.872 355.367C916.391 355.182 913.123 355.922 911.087 360.545C909.237 364.614 909.114 368.621 910.656 372.258C913.246 378.484 919.969 381.813 922.004 382.676L921.881 382.368ZM900.541 508.804C901.219 510.962 900.911 513.243 899.615 515.709C898.999 516.818 898.505 517.126 898.444 517.188C897.888 517.188 895.853 515.339 894.62 511.27C893.633 508.126 893.448 504.366 894.681 501.961C896.655 503.256 899.554 505.66 900.541 508.804ZM870.442 592.273C869.394 594.307 867.544 595.663 864.892 596.465C863.72 596.773 863.103 596.711 862.98 596.65C862.609 596.218 862.486 593.506 864.521 589.745C866.063 586.848 868.592 584.074 871.183 583.273C871.614 585.615 871.984 589.314 870.442 592.273ZM934.463 566.32C933.414 568.354 931.564 569.711 928.912 570.512C927.678 570.882 927.123 570.758 927.062 570.697C926.691 570.265 926.568 567.553 928.603 563.792C930.145 560.895 932.674 558.121 935.203 557.32C935.635 559.662 936.005 563.361 934.463 566.32ZM1006.87 586.725C1005.82 588.759 1003.97 590.115 1001.32 590.917C1000.09 591.225 999.531 591.163 999.47 591.102C999.1 590.67 998.976 587.958 1001.01 584.197C1002.55 581.3 1005.08 578.464 1007.67 577.724C1008.1 580.067 1008.47 583.766 1006.93 586.725H1006.87ZM1048.56 594.985C1048.81 597.266 1048.01 599.424 1046.16 601.52C1045.36 602.445 1044.8 602.691 1044.68 602.691C1044.12 602.506 1042.58 600.287 1042.21 596.033C1041.97 592.766 1042.52 589.067 1044.25 586.971C1045.91 588.636 1048.19 591.595 1048.56 594.924V594.985ZM1110.86 354.566C1112.89 353.518 1115.18 353.456 1117.83 354.381C1119 354.812 1119.43 355.244 1119.49 355.305C1119.49 355.86 1118.07 358.141 1114.25 360.052C1111.29 361.532 1107.65 362.395 1105.06 361.47C1106.05 359.312 1107.9 356.045 1110.86 354.566ZM987.875 284.228C988.676 283.241 989.17 282.995 989.293 282.995C989.848 283.118 991.452 285.276 992.007 289.529C992.439 292.796 992.007 296.557 990.28 298.653C988.553 296.988 986.148 294.153 985.716 290.885C985.408 288.604 986.086 286.447 987.875 284.289V284.228ZM1145.46 517.866C1147.37 519.099 1148.6 521.072 1149.16 523.784C1149.41 525.017 1149.22 525.572 1149.16 525.695C1148.73 526.065 1145.95 525.88 1142.44 523.538C1139.72 521.75 1137.13 518.976 1136.58 516.325C1138.86 516.078 1142.68 516.078 1145.46 517.866ZM1161.93 425.027C1164.21 424.719 1166.37 425.397 1168.53 427.185C1169.51 427.986 1169.76 428.479 1169.76 428.603C1169.64 429.157 1167.48 430.822 1163.22 431.315C1159.89 431.685 1156.25 431.315 1154.09 429.651C1155.76 427.925 1158.6 425.52 1161.86 425.089L1161.93 425.027ZM1104.13 409.369C1106.29 408.629 1108.58 408.876 1111.04 410.17C1112.15 410.725 1112.52 411.218 1112.52 411.342C1112.52 411.897 1110.67 413.931 1106.66 415.287C1103.52 416.335 1099.82 416.643 1097.35 415.41C1098.65 413.438 1100.99 410.479 1104.13 409.431V409.369ZM947.6 330.154C948.402 329.168 948.895 328.921 949.018 328.921C949.573 329.044 951.177 331.202 951.732 335.455C952.102 338.723 951.732 342.421 950.005 344.579C948.278 342.915 945.873 340.079 945.441 336.812C945.133 334.531 945.811 332.373 947.6 330.215V330.154ZM916.577 362.641C917.07 361.47 917.563 361.1 917.625 361.039C918.18 361.039 920.339 362.703 921.881 366.648C923.114 369.669 923.669 373.429 922.559 375.895C920.462 374.724 917.378 372.628 916.145 369.546C915.281 367.45 915.405 365.169 916.515 362.58L916.577 362.641Z" fill="#444D4F"/>
</g>
<defs>
<clipPath id="clip0_157_301">
<rect width="1587" height="1886" fill="white" transform="translate(206 57)"/>
</clipPath>
</defs>
</svg>
