<svg width="2000" height="2000" viewBox="0 0 2000 2000" fill="none" xmlns="http://www.w3.org/2000/svg">
<g clip-path="url(#clip0_157_302)">
<path d="M1010.92 1415.91C963.624 1449.24 901.682 1458.22 846.866 1439.63L845.255 1445.53C869.075 1448.9 887.526 1432.16 903.146 1416.55C911.639 1408.06 920.328 1399.32 931.261 1394C943.904 1387.86 958.059 1388.68 971.58 1390.54C983.88 1392.25 996.23 1394.74 1008.73 1393.76C1021.22 1392.78 1033.86 1388.05 1046.7 1386.88C1072.96 1384.39 1093.61 1402.4 1111.91 1418.74C1130.22 1435.09 1153.21 1453.88 1180.2 1450.95L1179.37 1444.95C1109.96 1461 1040.55 1406.74 972.166 1436.85C968.602 1438.41 971.677 1443.68 975.241 1442.12C1008.87 1427.28 1045.97 1434.89 1080.38 1442.6C1113.18 1449.92 1147.4 1458.61 1180.98 1450.85C1184.25 1450.07 1183.62 1444.51 1180.15 1444.85C1129.58 1450.31 1106.15 1386.1 1058.17 1380.88C1045.48 1379.51 1033.23 1383.22 1020.93 1385.81C1007.26 1388.68 994.375 1387.86 980.61 1385.81C968.846 1384.05 956.888 1382.1 944.978 1383.66C934.19 1385.07 924.672 1389.81 916.13 1396.39C895.629 1412.25 876.641 1443.92 846.817 1439.73C843.01 1439.19 841.399 1444.31 845.207 1445.63C901.389 1464.71 965.478 1455.49 1013.95 1421.28C1017.12 1419.04 1014.09 1413.77 1010.87 1416.01L1010.92 1415.91Z" fill="#191919"/>
<path d="M880.107 1486.33C903.195 1508.92 932.042 1534.83 966.991 1529.36C986.467 1526.34 1004.14 1514.77 1024.35 1520.43C1033.13 1522.92 1041.43 1526.92 1050.56 1528C1060.27 1529.12 1069.98 1527.07 1079.26 1524.34C1100.78 1517.95 1121.29 1508.28 1140.18 1496.18C1143.45 1494.08 1140.42 1488.77 1137.1 1490.91C1120.85 1501.35 1103.42 1509.89 1085.12 1516.09C1075.84 1519.21 1066.13 1522.24 1056.22 1522.24C1046.31 1522.24 1038.01 1518.38 1029.03 1515.51C1011.9 1509.99 996.962 1514.58 980.366 1519.75C963.77 1524.92 946.832 1525.31 930.187 1517.41C912.664 1509.06 898.216 1495.45 884.451 1481.98C881.62 1479.25 877.324 1483.54 880.156 1486.28L880.107 1486.33Z" fill="#191919"/>
<path d="M1028.59 1279.87C1035.82 1273.38 1043.33 1267.28 1051.19 1261.57C1055 1258.84 1058.81 1256.01 1062.91 1253.67C1064.81 1252.59 1066.86 1251.62 1069.01 1251.42C1070.28 1251.27 1073.11 1251.27 1073.25 1253.08C1073.5 1256.45 1066.96 1258.98 1064.61 1259.91C1060.81 1261.42 1056.76 1262.35 1052.8 1263.28C1044.85 1265.08 1036.69 1266.74 1029.76 1271.28C1026.49 1273.43 1029.57 1278.7 1032.84 1276.55C1039.33 1272.31 1046.94 1270.84 1054.41 1269.13C1061.88 1267.43 1069.84 1265.67 1075.45 1260.59C1078.09 1258.2 1080.14 1254.59 1079.06 1250.93C1077.99 1247.27 1074.23 1245.47 1070.67 1245.27C1062.27 1244.83 1054.51 1251.66 1048.12 1256.25C1039.82 1262.25 1031.86 1268.65 1024.25 1275.48C1021.32 1278.11 1025.66 1282.41 1028.54 1279.77L1028.59 1279.87Z" fill="#191919"/>
<path d="M992.325 1273.19C989.445 1264.45 982.904 1257.52 974.753 1253.42C964.99 1248.49 953.813 1247.86 943.123 1249.27C939.267 1249.81 932.482 1249.86 930.285 1253.81C927.65 1258.5 933.214 1261.62 936.777 1263.04C944.294 1265.96 953.959 1265.48 961.671 1263.52C964.502 1262.79 967.285 1262.11 970.213 1262.35C975.241 1262.79 979.732 1265.72 983.734 1268.65C986.907 1270.99 989.933 1265.67 986.809 1263.38C981.294 1259.28 974.85 1255.86 967.773 1256.2C963.136 1256.45 958.84 1258.2 954.203 1258.55C950.103 1258.84 945.856 1259.08 941.805 1258.2C940.78 1257.96 939.755 1257.67 938.779 1257.33C938.144 1257.08 936.973 1256.16 936.338 1256.11L935.948 1255.86C935.264 1256.84 935.215 1257.18 935.801 1256.89C935.85 1256.89 936.582 1256.64 936.68 1256.64C938.046 1256.3 939.462 1256.06 940.829 1255.81C950.005 1254.2 959.816 1254.06 968.603 1257.38C976.656 1260.4 983.734 1266.6 986.468 1274.89C987.688 1278.6 993.594 1276.99 992.374 1273.28L992.325 1273.19Z" fill="#191919"/>
<path d="M463.548 1364.58C475.165 1280.75 482.243 1196.33 484.684 1111.77C485.904 1069.41 486.001 1027.06 484.928 984.702C484.83 979.871 485.172 974.601 490.736 973.137C495.032 972.015 498.839 975.235 502.109 977.626C507.625 981.676 512.653 986.409 517.241 991.533C526.759 1002.22 533.983 1014.86 539.645 1027.93C551.311 1054.92 556.778 1084.39 560.488 1113.43C564.588 1145.87 566.834 1178.57 570.543 1211.07C579.085 1286.11 591.435 1362.92 622.576 1432.36C650.985 1495.64 698.674 1546.83 748.022 1594.46C772.867 1618.41 797.713 1642.47 822.655 1666.33C847.598 1690.19 873.175 1710.69 902.951 1726.11C931.993 1741.19 963.965 1750.11 996.766 1750.46C1032.11 1750.85 1067.3 1742.41 1099.81 1728.74C1165.41 1701.17 1220.96 1653.06 1266.26 1598.85C1311.65 1544.49 1347.23 1482.76 1377.59 1418.99C1392.82 1387.02 1406.74 1354.48 1420.11 1321.74C1431.97 1292.65 1443.54 1263.77 1446.37 1232.19C1447.98 1214.19 1446.86 1196.18 1443.98 1178.37C1443.34 1174.52 1437.49 1176.13 1438.07 1179.98C1443.69 1214.92 1440.46 1249.37 1428.85 1282.75C1417.23 1316.12 1403.42 1347.01 1389.5 1378.39C1360.85 1443.14 1328 1506.48 1286.02 1563.67C1244.05 1620.85 1191.18 1673.9 1127.97 1708.35C1064.76 1742.8 990.763 1757.04 922.963 1728.69C891.48 1715.52 863.511 1695.17 838.324 1672.43C812.747 1649.4 788.585 1624.61 763.691 1600.85C713.805 1553.22 664.408 1503.35 633.461 1440.9C599.293 1371.95 586.358 1293.14 577.474 1217.46C573.57 1184.37 571.227 1151.1 567.273 1118.01C563.905 1089.71 559.073 1061.21 548.968 1034.47C539.597 1009.54 525.197 985.775 502.793 970.502C492.054 963.183 478.826 968.453 478.875 982.262C478.924 1003.44 479.705 1024.62 479.656 1045.79C479.607 1130.5 474.97 1215.26 465.647 1299.48C463.304 1320.66 460.668 1341.84 457.74 1362.92C457.203 1366.77 463.109 1368.43 463.646 1364.53L463.548 1364.58Z" fill="#191919"/>
<path d="M404.438 1305.39C411.223 1199.65 427.282 1094.74 447.734 990.851C452.42 967.185 457.886 943.616 462.328 919.902C464.086 910.581 465.257 901.164 466.917 891.844C469.211 879.157 471.798 866.421 476.142 854.222C478.046 848.903 482.732 834.265 490.737 836.07C494.934 836.997 497.766 841.73 499.669 845.146C503.037 851.392 505.673 858.126 508.016 864.811C512.751 878.279 515.826 892.332 517.144 906.531C519.536 931.759 516.607 957.182 509.724 981.531C508.651 985.337 514.557 986.947 515.631 983.141C528.517 937.566 528.029 884.622 504.941 842.121C500.06 833.093 489.956 825.091 480.828 833.63C472.725 841.194 469.406 854.271 466.673 864.567C463.207 877.498 460.913 890.722 458.814 903.945C456.422 919.121 453.152 934.052 450.028 949.13C438.557 1004.46 428.16 1060.04 419.521 1115.91C409.856 1178.76 402.436 1241.91 398.385 1305.39C398.141 1309.29 404.242 1309.29 404.487 1305.39H404.438Z" fill="#191919"/>
<path d="M404.779 1455.29C420.105 1479.74 418.153 1509.21 416.445 1536.78C414.736 1564.35 413.028 1591.43 424.303 1616.71C425.914 1620.27 431.186 1617.19 429.575 1613.63C406.633 1562.35 440.948 1501.4 410.05 1452.22C407.951 1448.9 402.68 1451.97 404.779 1455.29Z" fill="#191919"/>
<path d="M464.525 1489.55C471.846 1522.39 465.598 1555.47 465.989 1588.6C466.331 1615.63 471.163 1644.08 486.441 1666.92C488.589 1670.19 493.909 1667.11 491.713 1663.84C456.227 1610.8 483.366 1545.95 470.382 1487.94C469.503 1484.13 463.646 1485.74 464.476 1489.55H464.525Z" fill="#191919"/>
<path d="M495.666 834.508C495.032 821.772 494.251 808.744 490.15 796.593C486.05 784.443 478.24 774.586 467.697 767.169C460.327 761.997 450.906 758.386 442.071 761.753C434.261 764.73 429.234 772.098 426.11 779.515C422.302 788.493 420.643 798.35 420.399 808.012C420.008 823.675 420.399 839.143 418.69 854.758C415.078 889.062 406.585 922.633 399.117 956.205C384.278 1022.86 378.665 1090.54 376.761 1158.71C374.955 1224.34 375.541 1290.02 372.026 1355.6C369.293 1406.93 366.022 1458.95 374.613 1509.89C378.762 1534.53 385.986 1558.93 398.043 1580.94C409.025 1600.95 424.352 1618.02 441.241 1633.2C506.698 1692.15 593.192 1717.28 670.461 1756.12C708.241 1775.1 744.654 1797.89 773.258 1829.41C788.39 1846.05 800.934 1864.83 810.599 1885.13C816.505 1897.48 822.753 1908.7 831.49 1919.29C840.911 1930.66 851.552 1941.2 859.264 1953.89C866.976 1966.57 872.053 1981.7 873.664 1996.97C874.054 2000.83 880.156 2000.88 879.765 1996.97C878.301 1982.97 874.445 1969.5 867.953 1956.96C861.461 1944.42 852.333 1934.12 843.205 1923.63C834.077 1913.14 824.803 1902.26 819.19 1889.38C814.797 1879.28 809.671 1869.47 803.912 1860.1C782.288 1825.02 751.488 1797.11 716.881 1775.15C645.274 1729.72 561.708 1707.61 490.004 1662.28C452.565 1638.62 416.835 1608.02 397.848 1567.23C376.322 1520.87 374.223 1467.54 375.297 1417.28C375.834 1392.25 377.444 1367.21 378.713 1342.23C380.275 1311.1 380.861 1279.87 381.252 1248.69C382.179 1181.69 382.374 1114.5 389.745 1047.84C393.503 1013.64 399.849 980.066 407.464 946.495C414.541 915.412 421.765 884.231 424.938 852.416C426.451 837.289 425.914 822.358 426.402 807.231C426.744 796.886 428.745 785.761 434.115 776.782C448.807 752.14 476.971 778.588 483.61 796.447C488.1 808.548 488.881 821.626 489.516 834.41C489.711 838.314 495.813 838.363 495.617 834.41L495.666 834.508Z" fill="#191919"/>
<path d="M993.789 1749.92C1018.49 1766.8 1034.69 1796.67 1044.26 1824.34C1049.92 1840.68 1053.19 1857.96 1057.24 1874.79C1061.98 1894.46 1066.71 1914.12 1071.45 1933.78C1072.38 1937.59 1078.23 1935.98 1077.35 1932.17C1072.42 1911.73 1067.49 1891.28 1062.61 1870.84C1058.37 1853.08 1054.9 1834.92 1048.41 1817.8C1038.01 1790.28 1021.71 1761.63 996.913 1744.7C993.642 1742.5 990.616 1747.77 993.837 1749.97L993.789 1749.92Z" fill="#191919"/>
<path d="M1405.22 760.632C1376.03 813.234 1400.54 872.813 1415.18 925.659C1423.09 954.205 1427.04 983.336 1427.24 1012.96C1427.38 1038.04 1425.14 1063.07 1424.65 1088.15C1424.02 1119.23 1427.19 1149.93 1435.73 1179.94C1436.8 1183.69 1442.71 1182.08 1441.64 1178.32C1434.12 1151.93 1430.7 1124.99 1430.7 1097.57C1430.7 1072.93 1432.9 1048.33 1433.34 1023.69C1433.78 996.609 1431.73 969.527 1425.87 943.031C1419.33 913.46 1408.15 885.11 1401.95 855.442C1395.75 825.774 1395.02 791.715 1410.54 763.754C1412.45 760.339 1407.18 757.216 1405.27 760.68L1405.22 760.632Z" fill="#191919"/>
<path d="M1430.7 1105.42C1435.1 1058.24 1468.14 1021.45 1493.91 984.116C1518.32 948.788 1539.45 904.872 1525.01 861.394C1523.79 857.686 1517.88 859.296 1519.1 863.005C1534.33 908.971 1508.22 953.765 1482.3 990.021C1457.11 1025.2 1428.7 1060.77 1424.55 1105.47C1424.21 1109.38 1430.31 1109.38 1430.65 1105.47L1430.7 1105.42Z" fill="#191919"/>
<path d="M1397.31 845.096C1415.52 838.753 1434.27 825.822 1443.88 808.695C1449.84 798.106 1452.67 785.517 1455.84 773.903C1459.01 762.29 1462.48 749.993 1467.65 738.673C1477.17 717.885 1491.13 699.294 1508.41 684.363C1525.69 669.431 1546.14 659.818 1566.84 650.498C1589.24 640.446 1611.89 629.955 1629.12 611.901L1624.04 608.924C1605.55 678.946 1546.97 726.815 1490.84 767.511C1473.61 780.003 1456.18 792.25 1439.24 805.181L1443.44 809.378C1466.33 775.123 1497.23 747.651 1528.08 720.764C1543.51 707.346 1558.98 693.975 1573.67 679.776C1580.75 672.944 1587.63 665.918 1594.27 658.598C1599.79 652.499 1608.18 645.326 1607.74 636.347C1607.55 632.444 1601.45 632.395 1601.64 636.347C1601.93 642.349 1596.27 647.18 1592.56 651.377C1589.54 654.841 1586.41 658.208 1583.24 661.526C1576.45 668.65 1569.38 675.579 1562.2 682.264C1547.75 695.781 1532.72 708.614 1517.83 721.643C1488.59 747.212 1459.89 773.806 1438.17 806.304C1436.56 808.744 1439.88 812.354 1442.37 810.5C1500.75 766.096 1567.23 727.449 1606.86 663.576C1617.06 647.131 1625.02 629.37 1629.95 610.632C1630.73 607.753 1626.97 605.411 1624.87 607.655C1594.17 639.861 1547.07 647.034 1512.22 673.53C1495.48 686.266 1481.27 702.222 1470.48 720.276C1458.38 740.576 1453.11 762.729 1446.37 785.126C1442.51 798.057 1437.93 809.28 1428.12 818.844C1418.99 827.774 1407.81 834.947 1395.75 839.143C1392.09 840.412 1393.65 846.316 1397.36 845.048L1397.31 845.096Z" fill="#191919"/>
<path d="M1410.88 762.193C1410.54 711.592 1408.69 660.307 1418.16 610.34C1422.75 586.284 1430.02 562.422 1442.51 541.245C1455.01 520.067 1474.1 502.452 1492.4 485.276C1512.31 466.587 1531.79 447.069 1542.58 421.5L1536.57 420.67C1531.06 472.247 1524.91 523.63 1509.87 573.45C1496.65 617.171 1478.24 659.575 1453.84 698.27C1439.88 720.424 1423.87 741.162 1405.66 759.997L1410.74 762.974C1432.12 676.507 1475.32 597.799 1509.09 515.92C1518.61 492.839 1527.4 469.417 1534.77 445.556C1535.94 441.799 1530.03 440.188 1528.86 443.946C1502.65 528.997 1458.62 607.022 1427.33 690.121C1418.55 713.446 1410.84 737.161 1404.83 761.363C1404.1 764.242 1407.76 766.585 1409.91 764.34C1475.9 696.123 1514.85 602.874 1531.06 510.308C1536.23 480.64 1539.45 450.631 1542.63 420.67C1543.02 416.913 1537.84 417.01 1536.62 419.841C1516.51 467.563 1465.65 492.01 1438.95 535.194C1413.13 576.964 1407.03 628.248 1405.08 676.361C1403.9 704.955 1404.49 733.55 1404.69 762.193C1404.69 766.097 1410.84 766.145 1410.79 762.193H1410.88Z" fill="#191919"/>
<path d="M1440.85 1175.64C1436.71 1158.66 1423.14 1147.05 1408.69 1138.41C1390.77 1127.72 1371.2 1119.14 1351.72 1111.87C1331.22 1104.2 1310.04 1098.35 1288.37 1095.27C1265.52 1092.05 1242.44 1092.15 1219.4 1092.3C1192.21 1092.44 1164.92 1092.44 1138.27 1086.54C1134.37 1085.66 1133.05 1091.03 1136.66 1092.44C1158.38 1100.84 1179.13 1111.72 1198.36 1124.94C1217.59 1138.17 1233.26 1154.17 1252.49 1166.22C1271.72 1178.28 1292.47 1184.03 1313.65 1189.06C1334.84 1194.09 1354.99 1198.67 1376.08 1200.09C1398.44 1201.6 1421.18 1198.53 1440.22 1185.94C1443.49 1183.79 1440.42 1178.47 1437.14 1180.67C1401.66 1204.14 1355.73 1192.52 1317.36 1183.64C1295.59 1178.57 1273.67 1172.52 1254.64 1160.37C1235.6 1148.22 1220.91 1133.24 1203.19 1120.84C1183.03 1106.79 1161.21 1095.37 1138.27 1086.54L1136.66 1092.44C1180.01 1102.06 1224.42 1096.3 1268.31 1099.32C1311.6 1102.3 1352.99 1116.6 1391.51 1136.07C1409.32 1145.1 1429.87 1156.37 1434.95 1177.3C1435.88 1181.11 1441.78 1179.5 1440.85 1175.69V1175.64Z" fill="#191919"/>
<path d="M1440.22 1176.47C1403.86 1160.91 1364.17 1155.24 1326.1 1145.24C1306.28 1140.02 1287.73 1132.8 1269.04 1124.41C1250.34 1116.01 1231.01 1108.21 1210.12 1108.6C1206.22 1108.69 1206.17 1114.79 1210.12 1114.7C1232.09 1114.26 1252.1 1123.48 1271.72 1132.26C1288.9 1139.97 1306.23 1146.32 1324.49 1151.1C1361.97 1160.95 1401.32 1166.37 1437.14 1181.69C1440.71 1183.21 1443.83 1177.98 1440.22 1176.42V1176.47Z" fill="#191919"/>
<path d="M1421.09 1191.06C1386.28 1204.87 1365.78 1237.08 1348.21 1268.35C1337.86 1286.75 1327.66 1305.19 1314.38 1321.64C1301.11 1338.08 1287.15 1351.31 1270.94 1363.31C1268.26 1365.31 1269.72 1369.7 1273.28 1368.87C1343.82 1352.92 1411.91 1310.9 1436.41 1239.61C1443.1 1220.19 1445.83 1199.55 1443.98 1179.11C1443.74 1176.37 1440.86 1175.2 1438.76 1176.96C1426.75 1186.91 1420.31 1201.31 1413.18 1214.78C1406.05 1228.24 1398.49 1242.15 1390.29 1255.37C1373.5 1282.41 1353.34 1307.63 1327.03 1325.93C1323.8 1328.18 1326.88 1333.45 1330.1 1331.2C1355.68 1313.49 1375.69 1289.53 1392.39 1263.47C1400.98 1250.1 1408.74 1236.25 1416.16 1222.24C1423.58 1208.24 1430.26 1191.89 1443.1 1181.25L1437.88 1179.11C1441 1214.14 1430.21 1248.79 1410.45 1277.58C1390.68 1306.37 1360.85 1329.06 1328.69 1343.99C1310.48 1352.43 1291.25 1358.58 1271.67 1363.02L1274.02 1368.58C1305.6 1345.11 1328.73 1315.34 1347.92 1281.24C1367.1 1247.13 1385.8 1211.56 1422.7 1196.92C1426.31 1195.5 1424.75 1189.6 1421.09 1191.01V1191.06Z" fill="#191919"/>
<path d="M1413.52 1194.38C1371.69 1203.8 1331.03 1221.17 1292.96 1240.74C1283.54 1245.57 1274.21 1250.69 1265.08 1256.15C1258.25 1260.3 1248.05 1264.94 1246.1 1273.53C1244.34 1281.28 1250.29 1287.82 1258.15 1286.26C1262.79 1285.38 1266.84 1282.36 1271.14 1280.6C1274.8 1279.14 1278.9 1277.97 1281.05 1274.31C1285.78 1266.16 1276.99 1258.74 1269.53 1257.96C1261.67 1257.18 1250.88 1256.3 1243.75 1260.35C1240.34 1262.3 1243.41 1267.57 1246.83 1265.62C1251.91 1262.74 1259.57 1263.57 1265.18 1263.82C1268.4 1263.96 1272.06 1263.72 1274.36 1266.35C1279.39 1272.16 1270.6 1274.11 1266.5 1275.97C1262.69 1277.72 1257.71 1281.87 1253.91 1279.14C1248.1 1274.89 1256.35 1268.89 1260.06 1266.45C1265.77 1262.69 1271.72 1259.23 1277.68 1255.86C1306.04 1239.81 1335.96 1226.24 1366.52 1215.02C1382.43 1209.16 1398.58 1203.99 1415.08 1200.28C1418.89 1199.41 1417.28 1193.55 1413.47 1194.38H1413.52Z" fill="#191919"/>
<path d="M1412.79 1194.72C1388.28 1206.63 1360.07 1212.34 1333.23 1215.7C1306.38 1219.07 1277.68 1221.41 1252.73 1212.14C1250.88 1211.46 1249.07 1210.73 1247.37 1209.7C1246.29 1209.07 1245.17 1208.33 1244.29 1207.51C1242.44 1205.75 1242.24 1202.43 1244.49 1200.62C1248.2 1197.65 1256.98 1203.99 1259.47 1206.38C1263.28 1209.99 1266.5 1216.19 1264.64 1221.51C1262.89 1226.54 1255.96 1229.27 1252.05 1225.07C1249.37 1222.19 1245.07 1226.54 1247.76 1229.37C1253.17 1235.12 1262.5 1234.1 1267.67 1228.39C1273.97 1221.41 1271.19 1210.53 1265.72 1204.04C1260.25 1197.55 1249.22 1191.21 1240.87 1195.55C1231.75 1200.33 1237.07 1210.34 1243.56 1214.53C1257.57 1223.56 1278.07 1224.19 1294.18 1224.34C1315.16 1224.53 1336.2 1222.1 1356.8 1218.14C1377.4 1214.19 1397.41 1209.07 1415.96 1200.04C1419.48 1198.33 1416.4 1193.06 1412.89 1194.77L1412.79 1194.72Z" fill="#191919"/>
<path d="M1430.7 1125.62C1430.16 1108.74 1424.6 1090 1414.15 1076.58C1402.88 1062.14 1387.26 1051.5 1371.79 1042.04C1368.42 1039.99 1365.34 1045.26 1368.71 1047.31C1383.11 1056.09 1397.56 1065.85 1408.35 1078.98C1413.52 1085.27 1417.08 1092.25 1419.52 1099.96C1422.11 1108.2 1424.36 1116.89 1424.65 1125.58C1424.75 1129.48 1430.85 1129.53 1430.75 1125.58L1430.7 1125.62Z" fill="#191919"/>
<path d="M1297.93 959.62C1283.63 966.94 1268.06 978.358 1260.64 993.094C1253.81 1006.61 1259.81 1019.1 1271.09 1027.64C1277.77 1032.72 1285.44 1036.43 1292.86 1040.38C1299.74 1044.09 1307.45 1049.55 1315.6 1049.16C1320.92 1048.87 1326.44 1045.79 1327.66 1040.28C1328.83 1035.11 1325.95 1030.18 1320.92 1028.67C1317.51 1027.64 1315.75 1032.38 1318.58 1034.23C1327.27 1039.94 1336.98 1044.13 1347.18 1046.28C1355.87 1048.09 1367.3 1049.8 1375.89 1046.77C1382.96 1044.23 1384.72 1037.35 1384.87 1030.52C1385.06 1021.25 1384.82 1014.08 1389.65 1005.78C1397.02 993.29 1410.98 981.53 1409.91 965.72C1408.49 945.665 1386.58 938.687 1369.59 939.663C1342.89 941.224 1315.8 948.885 1290.81 958.059C1287.15 959.425 1288.76 965.281 1292.42 963.963C1311.21 957.034 1330.59 951.715 1350.31 948.3C1366.61 945.47 1396.39 940.59 1402.98 962.011C1407.13 975.43 1394.58 987.58 1387.65 997.584C1383.99 1002.85 1380.62 1008.61 1379.25 1014.96C1377.89 1021.3 1379.5 1028.18 1378.38 1034.67C1376.47 1045.4 1358.46 1042.13 1350.75 1040.77C1340.25 1038.91 1330.49 1034.81 1321.61 1028.96L1319.26 1034.52C1325.07 1036.28 1320.19 1041.89 1317.12 1042.82C1313.75 1043.84 1309.99 1042.38 1306.92 1040.96C1301.35 1038.43 1296.03 1035.21 1290.66 1032.33C1282.36 1027.89 1273.04 1023.4 1267.33 1015.59C1252.49 995.29 1285.78 972.698 1300.96 964.89C1304.47 963.085 1301.35 957.815 1297.89 959.62H1297.93Z" fill="#191919"/>
<path d="M1377.5 940.932C1388.48 933.32 1399.76 923.805 1401.51 909.703C1402.29 903.262 1401.02 896.625 1396.92 891.502C1395.12 889.208 1392.82 887.501 1390.82 885.451C1387.31 881.791 1387.02 877.741 1386.38 872.862C1384.77 860.516 1376.33 849.684 1364.42 845.536C1352.51 841.388 1338.45 845.341 1329.71 854.563L1334.49 858.272C1336.84 854.027 1339.23 849.83 1341.57 845.585C1343.13 842.755 1344.89 839.973 1344.4 836.606C1343.52 830.458 1336.59 826.945 1331.42 825.042C1324.73 822.553 1317.46 822.114 1310.43 822.943C1303.4 823.773 1294.81 824.993 1289.39 829.433C1283.97 833.874 1284.85 841.388 1285.54 847.927C1286.56 857.54 1287.2 867.25 1287.54 876.912C1288.17 897.016 1287.29 917.12 1285 937.077C1284.56 940.981 1290.66 940.932 1291.1 937.077C1294.47 907.8 1294.76 878.278 1291.78 849.001C1291.49 845.926 1290.86 842.706 1291 839.583C1291.3 834.411 1295.15 832.849 1299.4 831.483C1305.21 829.677 1311.31 828.555 1317.41 828.701C1323.51 828.848 1331.71 830.019 1336.1 834.411C1339.86 838.168 1336.98 841.486 1334.88 845.292C1333.03 848.61 1331.18 851.928 1329.32 855.246C1327.66 858.223 1331.66 861.541 1334.1 858.955C1341.91 850.708 1354.51 847.39 1365.05 852.367C1370.27 854.856 1374.67 859.053 1377.4 864.127C1380.13 869.202 1380.08 874.862 1381.35 880.523C1382.43 885.402 1385.26 888.574 1388.82 891.892C1393.41 896.186 1395.95 900.871 1395.61 907.263C1394.92 920.145 1384.18 928.88 1374.42 935.662C1371.2 937.907 1374.28 943.177 1377.5 940.932Z" fill="#191919"/>
<path d="M1294.66 827.092C1290.76 821.968 1289.44 815.576 1285.93 810.306C1282.41 805.036 1277.34 803.377 1271.97 801.084C1263.91 797.668 1250.44 792.3 1245.27 802.791C1243.07 807.281 1242 812.307 1239.85 816.845C1238.82 818.992 1238.53 819.236 1235.94 819.284C1233.7 819.284 1231.36 818.992 1229.06 818.845C1224.86 818.601 1220.67 818.211 1216.52 818.211C1210.56 818.211 1204.07 818.943 1198.94 822.261C1193.09 826.067 1191.28 832.215 1190.21 838.803C1188.11 852.124 1177.22 863.494 1168.93 873.594C1166.44 876.62 1170.73 880.963 1173.22 877.888C1181.13 868.227 1191.33 857.443 1195.09 845.293C1196.26 841.438 1196.11 837.29 1197.48 833.533C1199.33 828.507 1203.39 826.067 1208.32 824.994C1217.79 822.944 1227.45 825.677 1236.97 825.384C1243.12 825.189 1244.49 821.529 1246.58 816.308C1248.49 811.575 1249.32 802.938 1255.57 802.596C1262.2 802.206 1271.58 806.549 1277.09 809.965C1283.73 814.063 1284.85 824.115 1289.39 830.117C1291.74 833.191 1297.06 830.166 1294.66 827.043V827.092Z" fill="#191919"/>
<path d="M1290.61 941.714C1281.48 928.88 1269.18 918.438 1256.69 909.02C1242.24 898.09 1226.62 888.136 1209.93 880.963C1193.23 873.79 1176.34 871.252 1159.07 873.546C1141.79 875.839 1121.63 884.378 1114.11 901.359C1110.6 909.362 1110.89 918.633 1117.67 924.83C1124.8 931.32 1135.59 931.271 1144.67 930.783L1143.1 925.123C1134.27 930.247 1132.66 941.909 1137.25 950.497C1143.45 962.208 1158.28 964.453 1170.24 963.477L1168.1 958.256C1162.34 963.282 1155.65 970.259 1155.94 978.555C1156.28 987.679 1165.85 991.583 1172.64 995.487C1180.44 1000.02 1187.67 1004.61 1196.99 1004.27C1205.34 1003.93 1211.93 1001.24 1217.98 995.389C1220.81 992.657 1216.52 988.363 1213.69 991.095C1203.29 1001.05 1191.09 999.147 1179.57 992.462C1174.64 989.631 1164.48 985.874 1162.68 980.165C1160.48 973.285 1167.8 966.648 1172.49 962.598C1174.44 960.939 1172.93 957.182 1170.34 957.377C1161.46 958.06 1150.47 957.475 1144.32 950.009C1139.64 944.3 1139.3 934.394 1146.28 930.344C1148.81 928.88 1147.84 924.489 1144.71 924.684C1137.15 925.074 1127.34 925.66 1121.48 919.951C1114.11 912.827 1119.58 901.603 1125.39 895.455C1137.25 882.866 1156.09 878.523 1172.78 878.865C1202.21 879.499 1228.57 895.602 1251.56 912.68C1263.91 921.854 1276.41 932.15 1285.39 944.788C1287.64 947.96 1292.96 944.934 1290.66 941.714H1290.61Z" fill="#191919"/>
<path d="M1281.73 970.161C1264.69 972.552 1247.12 974.748 1230.96 980.897C1214.81 987.045 1201.38 1000.37 1196.02 1016.86C1193.38 1024.86 1192.45 1034.67 1196.31 1042.43C1198.26 1046.33 1200.95 1048.14 1204.51 1050.33C1208.51 1052.82 1209.15 1057.75 1213.44 1060.14C1216.81 1062 1220.71 1062.04 1224.33 1062.92C1229.26 1064.09 1232.58 1067.46 1236.48 1070.39C1242.92 1075.17 1250.39 1076.34 1256.83 1070.73C1258.45 1069.31 1259.86 1067.61 1261.13 1065.85C1263.33 1062.73 1263.23 1060.87 1267.33 1060.78C1271.87 1060.68 1275.68 1060.58 1279.78 1058.43C1287.83 1054.24 1292.37 1045.6 1295.01 1037.26C1296.18 1033.5 1290.32 1031.89 1289.1 1035.65C1286.85 1042.67 1283.05 1050.33 1275.97 1053.5C1269.77 1056.24 1262.64 1052.09 1258.45 1058.63C1256.2 1062.09 1254.1 1066.24 1250.05 1067.9C1245.56 1069.75 1241.85 1066.92 1238.43 1064.24C1235.85 1062.19 1233.36 1059.99 1230.38 1058.58C1227.4 1057.16 1223.98 1056.77 1220.62 1056.09C1218.76 1055.7 1216.52 1055.36 1215.15 1053.94C1213.64 1052.43 1213.15 1050.04 1211.83 1048.38C1209.49 1045.4 1205.53 1044.77 1203.14 1041.89C1197.87 1035.55 1199.68 1024.91 1202.12 1017.79C1207.29 1002.71 1220.13 991.046 1235.02 985.874C1249.9 980.701 1267.13 978.31 1283.34 976.017C1287.2 975.48 1285.58 969.576 1281.73 970.113V970.161Z" fill="#191919"/>
<path d="M1300.86 958.694C1287.78 950.594 1272.16 951.619 1257.57 954.059C1248.44 955.62 1239.31 957.621 1229.99 957.718C1221.4 957.767 1210.51 956.303 1205.14 948.691C1202.9 945.519 1197.63 948.545 1199.87 951.765C1209.78 965.818 1230.04 964.696 1245.07 962.403C1262.35 959.768 1281.68 954.059 1297.74 963.964C1301.11 966.014 1304.13 960.744 1300.81 958.694H1300.86Z" fill="#191919"/>
<path d="M1300.96 957.084C1291.25 943.616 1280.31 928.88 1276.99 912.24C1275.24 903.262 1274.41 894.04 1268.79 886.427C1263.77 879.645 1256.4 875.156 1249.22 870.862C1245.85 868.861 1242.78 874.131 1246.15 876.132C1253.27 880.377 1260.98 884.817 1265.33 892.185C1270.11 900.285 1269.72 910.191 1272.31 919.023C1276.7 934.052 1286.56 947.618 1295.64 960.158C1297.93 963.33 1303.21 960.256 1300.91 957.084H1300.96Z" fill="#191919"/>
<path d="M1302.47 956.206C1303.5 948.692 1302.28 941.323 1302.28 933.809C1302.28 926.782 1304.33 921.073 1309.01 915.901C1316.19 907.898 1326.05 901.457 1327.03 889.844C1327.37 885.94 1321.27 885.94 1320.92 889.844C1320 900.432 1307.99 906.971 1302.08 914.779C1298.32 919.707 1296.52 925.416 1296.23 931.613C1295.84 939.274 1297.59 946.984 1296.57 954.645C1296.03 958.5 1301.94 960.159 1302.47 956.255V956.206Z" fill="#191919"/>
<path d="M1305.79 958.059C1309.65 965.037 1315.12 970.941 1321.66 975.43C1324.88 977.626 1328.44 978.993 1331.71 980.993C1333.96 982.311 1336.74 985.092 1334.74 987.727C1333.71 989.045 1334.54 991.143 1335.81 991.924C1337.37 992.851 1338.98 992.119 1340.01 990.85C1342.65 987.434 1341.62 982.506 1339.08 979.334C1336.35 975.918 1332.05 974.503 1328.29 972.454C1321.02 968.404 1315.07 962.353 1311.06 955.083C1309.16 951.667 1303.89 954.741 1305.79 958.157V958.059Z" fill="#191919"/>
<path d="M1290.03 934.784C1283.83 932.685 1280.9 942.688 1279.78 946.836C1279.04 949.471 1278.26 952.496 1278.56 955.229C1279.04 959.474 1281.92 963.28 1285.78 965.086C1294.52 969.185 1304.87 963.963 1310.09 956.693C1315.02 949.813 1314.97 940.102 1309.11 933.759C1303.26 927.415 1290.95 927.903 1286.56 936.15C1284.71 939.614 1289.98 942.688 1291.83 939.224C1294.08 935.027 1300.08 934.1 1303.79 937.077C1308.18 940.59 1308.67 947.08 1306.04 951.765C1303.21 956.888 1296.86 961.231 1290.81 960.304C1288.27 959.913 1285.83 958.254 1284.9 955.766C1284.56 954.741 1284.56 953.765 1284.71 952.74C1284.61 953.619 1284.8 952.301 1284.8 952.106C1284.9 951.52 1285 950.984 1285.15 950.398C1285.68 948.056 1286.56 945.079 1287.34 943.372C1287.59 942.835 1287.83 942.298 1288.12 941.81C1288.27 941.566 1288.42 941.371 1288.56 941.127C1288.71 940.883 1289 940.541 1288.66 940.981C1288.81 940.834 1289 940.688 1289.1 940.493C1289.49 940.005 1288.61 940.932 1289.2 940.493C1289.49 940.249 1288.47 940.737 1289 940.59C1288.71 940.639 1287.64 940.444 1288.37 940.688C1289.93 941.225 1291.69 940.102 1292.13 938.541C1292.57 936.882 1291.54 935.32 1289.98 934.784H1290.03Z" fill="#191919"/>
<path d="M1251.27 804.157C1254.44 783.077 1252 762.632 1244.09 742.87C1236.19 723.107 1226.18 702.954 1219.01 682.167C1204.56 640.398 1196.11 596.726 1193.82 552.614C1193.62 548.71 1187.52 548.662 1187.72 552.614C1189.91 595.018 1197.63 637.031 1210.95 677.385C1217.44 697.05 1225.6 715.885 1234.04 734.769C1243.85 756.63 1249.02 778.588 1245.41 802.547C1244.83 806.402 1250.73 808.061 1251.32 804.157H1251.27Z" fill="#191919"/>
<path d="M1250.69 791.276C1245.76 763.267 1235.65 736.381 1219.84 712.715C1205.68 691.488 1187.57 673.288 1167.71 657.38C1128.27 625.809 1082.63 603.412 1042.41 573.061C1021.27 557.153 1001.89 538.513 988.567 515.433C986.712 512.212 982.514 514.554 983.002 517.775C998.671 626.541 1108.69 679.387 1186.4 739.845C1208.51 757.021 1235.55 776.784 1245.41 804.109C1246.73 807.769 1252.64 806.208 1251.32 802.499C1243.07 779.663 1224.23 763.267 1206.12 748.043C1185.13 730.33 1162.58 714.618 1140.08 698.954C1096.34 668.554 1051.63 637.374 1020.68 593.165C1004.53 570.084 992.911 544.173 988.908 516.213L983.344 518.555C1007.21 559.886 1048.7 586.382 1088.19 611.073C1131.39 638.106 1176.69 665.041 1207.88 706.322C1227.16 731.843 1239.31 761.462 1244.83 792.935C1245.51 796.79 1251.37 795.18 1250.73 791.325L1250.69 791.276Z" fill="#191919"/>
<path d="M1053.63 611.463C1070.08 625.809 1087.21 639.423 1105.03 652.11C1122.85 664.797 1141.05 675.434 1159.02 687.292C1176.98 699.149 1192.4 714.617 1205.29 732.721C1218.18 750.824 1231.36 771.318 1244.29 790.69C1246.44 793.959 1251.76 790.885 1249.56 787.616C1225.5 751.653 1203.78 711.006 1167.56 685.779C1149.35 673.092 1129.97 662.21 1111.77 649.475C1093.56 636.739 1075.16 622.198 1057.93 607.217C1055 604.631 1050.65 608.925 1053.63 611.511V611.463Z" fill="#191919"/>
<path d="M1240.73 782.686C1205.29 755.263 1158.97 736.379 1114.11 733.207C1085.51 731.158 1056.32 734.72 1027.86 737.696C999.402 740.673 971.335 743.894 942.878 743.894C911.834 743.894 880.79 739.892 851.942 728.084C849.599 727.108 846.915 730.523 848.477 732.573C863.413 752.091 883.474 766.34 905.244 777.319C929.553 789.567 955.618 798.935 981.928 805.962C1035.13 820.113 1090.63 822.699 1144.96 813.916C1177.27 808.695 1208.85 799.57 1239.36 787.81C1242.97 786.395 1241.41 780.491 1237.75 781.906C1186.79 801.57 1132.9 813.477 1078.14 812.989C1023.66 812.501 969.725 799.765 920.034 777.563C894.945 766.34 870.637 751.555 853.699 729.45L850.234 733.939C900.559 754.531 955.862 751.213 1008.77 745.748C1037.62 742.771 1066.52 739.258 1095.56 738.916C1119.67 738.624 1142.86 742.625 1165.7 750.335C1190.79 758.776 1215.34 770.731 1236.33 786.98C1239.41 789.371 1243.75 785.077 1240.63 782.686H1240.73Z" fill="#191919"/>
<path d="M919.693 766.097C997.255 799.327 1081.02 778.588 1162.19 780.93C1186.79 781.662 1211.29 784.151 1235.46 788.64C1239.31 789.372 1240.92 783.468 1237.07 782.736C1196.21 775.173 1154.82 773.465 1113.38 775.319C1072.38 777.173 1031.62 781.906 990.567 777.661C967.284 775.27 944.245 770.049 922.719 760.778C919.156 759.265 916.032 764.486 919.644 766.048L919.693 766.097Z" fill="#191919"/>
<path d="M1184.69 447.606C1178.15 449.411 1174.73 456.438 1175.66 462.879C1176.69 469.759 1183.18 474.687 1189.72 475.907C1196.26 477.127 1204.12 475.273 1207.58 469.125C1211.73 461.708 1206.02 453.803 1200.07 449.509C1192.4 443.995 1183.23 448.386 1177.22 454.095C1174.39 456.828 1178.69 461.122 1181.52 458.39C1185.03 455.023 1190.26 451.558 1194.99 453.559C1197.29 454.535 1199.34 456.633 1200.8 458.585C1202.17 460.439 1203.29 462.732 1202.65 465.026C1202.17 466.734 1200.75 468.051 1198.94 468.978C1197.14 469.905 1194.94 470.296 1192.75 470.149C1190.55 470.003 1188.06 469.271 1186.01 468.002C1185.13 467.466 1184.45 466.88 1183.76 466.099C1183.37 465.709 1183.18 465.416 1182.89 464.977C1182.69 464.684 1182.5 464.343 1182.3 464.001C1182.3 463.903 1181.86 463.025 1182.06 463.464C1181.57 462.196 1181.52 461.61 1181.57 460.39C1181.57 459.512 1181.57 459.658 1181.76 458.926C1181.81 458.634 1181.91 458.39 1181.96 458.146C1181.96 458.048 1182.3 457.17 1182.15 457.511C1182.4 456.974 1182.69 456.438 1182.98 455.95C1183.23 455.511 1183.33 455.413 1183.81 454.974C1184.64 454.144 1185.23 453.851 1186.3 453.559C1190.11 452.534 1188.5 446.63 1184.69 447.654V447.606Z" fill="#191919"/>
<path d="M1209.73 467.953C1220.13 444.677 1250.78 450.191 1270.89 451.655C1276.9 452.094 1282.95 452.24 1288.95 451.459C1291.49 451.118 1295.93 449.215 1297.79 451.655C1299.3 453.655 1299.35 459.023 1299.84 461.511C1301.25 468.538 1302.72 475.614 1304.13 482.64C1305.65 490.106 1308.43 498.499 1307.11 506.111L1310.87 503.964C1300.91 500.841 1289.29 505.867 1285.54 515.821C1284.41 518.798 1284.27 521.872 1283.97 524.995C1283.78 526.996 1283.63 532.412 1281.24 533.632C1278.02 535.291 1275.82 533.193 1273.09 532.168C1268.94 530.655 1264.84 532.998 1262.74 536.706C1259.13 543.098 1261.67 550.027 1253.86 553.882C1246.63 557.444 1238.09 555.492 1230.38 555.932C1223.15 556.371 1215.3 560.128 1208.12 558.762C1202.65 557.737 1195.04 554.126 1192.16 549.149C1190.21 545.733 1184.94 548.807 1186.89 552.223C1191.72 560.616 1204.46 565.984 1213.78 564.812C1218.66 564.227 1223.4 562.665 1228.28 562.129C1232.58 561.641 1236.87 562.031 1241.17 562.031C1247.8 562.031 1254.59 561.25 1260.06 557.152C1262.3 555.492 1264.06 553.443 1265.28 550.906C1266.74 547.783 1266.16 543.928 1267.67 540.951C1270.45 535.437 1273.48 540.561 1277.34 541.049C1279.73 541.342 1282.07 540.561 1283.97 539.195C1290.17 534.803 1289.25 527.581 1290.51 520.994C1292.17 512.259 1300.77 507.136 1309.26 509.771C1310.72 510.21 1312.72 509.234 1313.02 507.624C1314.33 500.109 1312.48 492.985 1311.02 485.568C1309.21 476.589 1307.35 467.562 1305.55 458.584C1304.52 453.558 1304.38 445.702 1298.18 444.335C1295.44 443.701 1292.66 444.677 1289.98 445.116C1285.15 445.897 1280.26 445.946 1275.38 445.75C1251.95 444.774 1216.76 437.406 1204.51 464.83C1202.95 468.392 1208.17 471.466 1209.78 467.904L1209.73 467.953Z" fill="#191919"/>
<path d="M1178.98 462.39C1165.65 449.85 1147.4 442.481 1130.17 437.065C1121.58 434.381 1111.96 431.258 1102.88 431.795C1093.8 432.332 1085.6 436.968 1078.57 442.677C1071.55 448.386 1062.71 455.461 1059.39 464.049C1058.02 467.563 1057.83 471.222 1059.05 474.833C1059.88 477.371 1061.54 479.566 1062.32 482.104C1063.3 485.08 1062.66 487.959 1062.95 490.985C1063.69 498.206 1069.74 502.842 1076.82 503.135C1085.7 503.525 1092.53 497.084 1098.34 491.229L1093.56 487.52C1085.9 503.33 1077.65 523.483 1090.14 539.244C1092.58 542.318 1095.61 544.514 1099.12 546.222C1103.03 548.174 1109.08 549.637 1110.64 554.273C1111.82 557.786 1110.74 561.251 1113.33 564.374C1115.53 567.058 1119.14 568.18 1122.46 568.375C1127.04 568.619 1131.49 566.472 1136.07 566.862C1141.25 567.302 1145.5 571.156 1149.5 574.035C1155.94 578.72 1162.73 581.892 1170.78 579.891C1177.66 578.183 1183.57 573.303 1186.11 566.618C1187.77 562.324 1187.67 556.859 1191.13 553.541C1193.92 550.906 1197.63 550.223 1199.14 546.27C1200.8 541.879 1198.55 537.146 1197.19 533.047C1195.14 526.85 1193.48 520.555 1192.11 514.212C1189.18 500.207 1188.11 485.91 1188.6 471.613C1188.74 467.709 1182.64 467.709 1182.49 471.613C1181.86 490.643 1184.01 509.771 1189.28 528.118C1190.35 531.876 1193.43 537.243 1193.38 541.196C1193.28 546.466 1188.74 546.758 1185.91 550.028C1180.98 555.639 1182.45 564.13 1177.17 569.546C1170.98 575.938 1162.38 575.45 1155.4 570.864C1149.74 567.155 1144.71 562.032 1137.73 561.007C1134.27 560.519 1131.05 561.202 1127.63 561.788C1125.38 562.178 1122.21 562.959 1120.06 561.788C1117.48 560.324 1117.23 557.298 1116.79 554.615C1115.82 548.32 1111.23 545.246 1105.86 542.708C1096.68 538.366 1090.68 532.608 1089.8 521.872C1088.92 511.137 1094.15 500.305 1098.78 490.643C1100.25 487.667 1096.54 484.348 1094 486.935C1088.87 492.156 1081.6 499.67 1073.5 496.255C1068.42 494.108 1069.25 489.765 1069.01 485.178C1068.86 482.25 1067.88 479.713 1066.66 477.078C1064.32 471.857 1063.44 468.295 1066.76 463.122C1069.11 459.511 1072.47 456.535 1075.55 453.607C1081.16 448.288 1087.21 442.872 1094.54 439.944C1107.76 434.674 1124.41 441.359 1137.1 445.995C1149.79 450.63 1164.19 457.023 1174.64 466.831C1177.52 469.514 1181.81 465.22 1178.93 462.537L1178.98 462.39Z" fill="#191919"/>
<path d="M1183.28 453.998C1183.37 421.696 1178.69 385.245 1158.19 359.042C1147.55 345.476 1131.93 336.059 1114.84 333.228C1109.28 332.301 1100.54 330.74 1096.68 336.254C1094.98 338.694 1095.32 341.426 1096.15 344.159C1097.81 349.331 1100.25 354.308 1102.3 359.334L1106.06 355.577C1096.93 353.088 1086.53 351.185 1078.43 357.382C1075.99 359.285 1073.94 361.725 1072.81 364.653C1071.35 368.557 1074.28 376.852 1070.96 379.341C1068.86 380.853 1062.61 380.707 1059.98 381.732C1056.46 383.098 1053.19 385.05 1050.36 387.49C1044.65 392.32 1040.36 399.103 1038.84 406.471C1036.01 420.036 1043.38 429.6 1054.9 435.602C1060.22 438.384 1065.93 440.482 1071.64 442.239C1073.94 442.922 1076.23 443.556 1078.57 444.142C1079.36 444.337 1081.99 445.41 1080.92 444.581L1082.48 438.92H1082.38C1078.48 438.677 1078.48 444.776 1082.38 445.02H1082.48C1085.8 445.215 1086.24 440.97 1084.04 439.36C1082.67 438.335 1079.99 438.237 1078.38 437.847C1073.99 436.676 1069.69 435.358 1065.44 433.699C1055.19 429.747 1043.72 423.843 1044.36 411.204C1044.75 403.69 1048.95 396.566 1054.66 391.832C1057.59 389.441 1061 387.587 1064.66 386.611C1067.74 385.831 1071.06 385.977 1073.99 384.659C1079.99 381.976 1078.77 376.95 1078.23 371.582C1076.72 356.748 1095.32 358.944 1104.4 361.433C1106.45 361.969 1109.03 359.92 1108.15 357.675C1106.64 353.918 1105.08 350.112 1103.57 346.355C1101.71 341.817 1101.22 338.352 1107.23 338.45C1114.94 338.547 1123.14 340.987 1130.02 344.256C1143.3 350.502 1153.45 360.896 1160.53 373.68C1173.85 397.786 1177.22 426.868 1177.13 453.95C1177.13 457.853 1183.23 457.902 1183.23 453.95L1183.28 453.998Z" fill="#191919"/>
<path d="M1135.39 339.181C1135.88 333.862 1136.86 328.641 1138.47 323.518C1139.15 321.371 1139.74 317.809 1141.35 316.247C1144.18 313.515 1147.06 315.954 1148.67 318.736C1152.33 324.982 1150.72 332.301 1156.19 337.864C1158.04 339.767 1161.36 338.303 1161.41 335.717C1161.46 328.349 1161.55 321.029 1161.6 313.661C1161.65 306.293 1160.48 297.851 1164.78 291.849C1168.29 286.921 1174.88 284.432 1180.4 282.529C1184.4 281.114 1188.3 280.236 1191.87 282.968C1194.11 284.676 1195.82 287.018 1197.68 289.117C1205.88 298.29 1215.88 297.412 1227.01 299.803C1233.41 301.169 1240.04 304.438 1240.04 311.904C1240.04 318.15 1237.46 323.957 1237.99 330.3C1238.09 331.52 1238.87 333.033 1240.24 333.228C1245.51 334.009 1249.07 331.276 1251.66 326.738C1253.86 322.883 1254.93 317.028 1260.98 319.565C1263.42 320.59 1265.43 324.445 1266.65 326.641C1272.41 337.034 1273.28 351.771 1265.96 361.579C1263.62 364.701 1268.89 367.776 1271.23 364.653C1279.73 353.283 1278.65 336.253 1272.26 324.201C1269.62 319.175 1264.45 312.051 1258.15 311.904C1254.83 311.807 1252.34 313.807 1250.39 316.296C1248.44 318.784 1246.05 327.958 1241.85 327.324L1244.1 330.252C1243.46 322.883 1247.22 315.759 1245.85 308.391C1244.73 302.438 1240.48 298.339 1235.11 295.948C1228.18 292.923 1220.76 293.362 1213.54 291.703C1204.85 289.751 1202.07 283.115 1195.63 278.089C1189.77 273.551 1183.76 274.771 1177.17 277.21C1171.41 279.357 1165.46 281.895 1161.21 286.482C1156.33 291.752 1155.7 298.632 1155.6 305.512C1155.4 315.564 1155.4 325.616 1155.31 335.668L1160.53 333.521C1154.04 326.933 1157.26 307.805 1143.25 308.635C1138.52 308.928 1136.17 312.636 1134.51 316.589C1131.49 323.762 1130.02 331.471 1129.34 339.132C1129 343.036 1135.1 343.036 1135.44 339.132L1135.39 339.181Z" fill="#191919"/>
<path d="M1202.31 453.608C1211.24 424.623 1237.51 407.545 1256.4 385.538C1260.93 380.219 1265.04 374.607 1268.65 368.654C1273.97 359.969 1279 353.674 1290.27 356.65C1294.86 357.87 1299.25 359.725 1303.69 361.384C1307.7 362.896 1313.6 363.97 1316.58 367.288C1322.93 374.315 1307.6 384.22 1304.77 390.222C1303.79 392.32 1305.5 395.785 1308.23 394.711C1318.83 390.466 1337.57 385.001 1340.45 401.445C1342.94 415.742 1330.39 424.672 1323.07 434.919C1315.75 445.166 1328.64 452.486 1328 462.879C1327.12 477.567 1310.53 483.325 1299.45 474.932C1296.32 472.541 1293.3 477.86 1296.37 480.202C1306.67 488.058 1322.58 486.35 1330 475.322C1333.57 470.052 1334.88 463.318 1333.66 457.121C1332.88 453.218 1331.03 450.387 1329.03 447.021C1326.78 443.263 1325.76 442.238 1328.83 437.408C1330.05 435.505 1331.96 433.846 1333.42 432.187C1342.3 421.939 1351.63 407.691 1344.26 393.931C1336.89 380.17 1318.73 383.976 1306.57 388.856L1310.04 393.345C1313.8 385.391 1324.1 381.097 1324.29 371.289C1324.49 361.481 1314.58 359.041 1307.5 356.358C1298.37 352.942 1287.49 347.086 1277.58 350.795C1269.92 353.625 1266.11 361.335 1262.06 367.825C1242.92 398.371 1207.49 416.181 1196.41 452.046C1195.23 455.804 1201.14 457.414 1202.31 453.657V453.608Z" fill="#191919"/>
<path d="M1209.29 468.1C1226.38 442.384 1259.23 437.163 1287.54 433.894C1291.39 433.454 1291.44 427.355 1287.54 427.794C1256.83 431.356 1222.47 437.261 1204.02 465.025C1201.82 468.295 1207.14 471.369 1209.29 468.1Z" fill="#191919"/>
<path d="M1197.24 450.68C1196.65 419.597 1211.1 389.002 1235.75 369.972C1238.82 367.63 1235.75 362.311 1232.67 364.702C1206.27 385.05 1190.5 417.255 1191.13 450.68C1191.18 454.584 1197.28 454.633 1197.24 450.68Z" fill="#191919"/>
<path d="M1182.84 452.486L1166.19 428.332C1161.36 421.354 1156.82 413.742 1149.74 408.813C1136.12 399.298 1118.11 404.373 1103.76 409.155C1100.05 410.375 1101.66 416.279 1105.37 415.059C1118.5 410.668 1135.73 405.202 1147.84 415.059C1153.99 420.036 1158.14 427.453 1162.58 433.894L1177.56 455.609C1179.76 458.829 1185.08 455.755 1182.84 452.535V452.486Z" fill="#191919"/>
<path d="M1176.78 461.512C1162.92 461.072 1152.38 471.417 1144.62 481.762C1136.86 492.107 1129.97 504.891 1116.94 508.892C1113.18 510.015 1114.79 515.919 1118.55 514.797C1131.15 510.942 1139 500.158 1146.28 489.911C1153.55 479.664 1162.92 467.172 1176.78 467.66C1180.69 467.806 1180.69 461.707 1176.78 461.56V461.512Z" fill="#191919"/>
<path d="M1194.94 474.249C1199.09 482.935 1208.36 484.398 1216.66 487.18C1221.64 488.839 1226.52 491.181 1230.92 494.06C1232.67 495.182 1234.28 496.695 1234.77 498.793C1235.06 500.159 1234.97 501.867 1233.7 502.697C1230.38 504.795 1233.45 510.065 1236.77 507.967C1241.46 505.039 1242.04 498.793 1239.51 494.206C1236.72 489.229 1230.28 486.399 1225.35 484.106C1220.42 481.812 1214.95 480.446 1209.68 478.689C1205.48 477.274 1202.21 475.322 1200.26 471.223C1198.55 467.661 1193.33 470.784 1194.99 474.298L1194.94 474.249Z" fill="#191919"/>
<path d="M1209.2 290.872C1215.44 263.009 1207.93 232.61 1188.65 211.383C1179.57 201.38 1165.12 190.06 1150.62 192.987C1145.45 194.061 1140.03 197.72 1140.37 203.576C1140.76 210.212 1147.84 214.067 1153.7 214.848C1160.38 215.726 1170.05 213.091 1171.81 205.528C1173.22 199.575 1166.73 194.11 1161.31 197.428C1157.99 199.477 1161.07 204.796 1164.39 202.698C1165.95 202.112 1166.14 203.137 1164.92 205.772L1163.56 206.943C1162.38 208.016 1160.43 208.456 1158.92 208.748C1155.31 209.383 1150.52 208.651 1147.89 205.869C1144.42 202.307 1148.28 199.672 1151.65 198.94C1154.82 198.257 1158.33 198.794 1161.41 199.672C1173.32 203.088 1183.42 213.238 1190.31 223.143C1203.58 242.222 1208.41 266.523 1203.29 289.164C1202.41 292.97 1208.32 294.629 1209.2 290.774V290.872Z" fill="#191919"/>
<path d="M1208.71 258.959C1205.53 250.615 1200.16 242.954 1192.31 238.416C1184.45 233.878 1173.81 232.951 1165.51 237.44C1158.77 241.1 1153.06 251.64 1160.58 257.544C1167.12 262.668 1176.98 257.252 1180.15 250.664C1182.45 245.882 1180.15 240.954 1175.27 239.051C1169.95 236.953 1164.87 239.929 1160.63 242.954C1157.45 245.248 1160.53 250.518 1163.7 248.224C1165.95 246.614 1168.93 244.126 1171.95 244.418C1172.93 244.516 1174.1 245.004 1174.68 245.833C1175.51 247.004 1174.54 248.371 1173.86 249.347C1172.05 251.786 1165.26 256.081 1163.36 251.494C1162.48 249.395 1163.95 246.858 1165.26 245.297C1167.17 243.101 1169.9 241.832 1172.68 241.149C1178.74 239.636 1185.23 241.051 1190.35 244.37C1196.21 248.127 1200.36 254.177 1202.8 260.57C1204.17 264.181 1210.07 262.619 1208.71 258.959Z" fill="#191919"/>
<path d="M1227.55 296.191C1227.45 272.525 1239.21 249.689 1253.03 231.098C1267.62 211.53 1287.2 196.404 1303.6 178.447C1311.8 169.468 1319.12 159.904 1325.17 149.364C1331.22 138.824 1336.74 126.967 1343.96 116.671C1357.88 96.7623 1379.16 83.5874 1401.02 73.9258C1428.55 61.7756 1458.04 54.6026 1485.42 42.062L1481.71 37.28C1461.5 60.7509 1452.67 91.1508 1434.17 115.695C1423.09 130.383 1408.2 139.947 1391.85 147.949C1373.74 156.781 1355.39 165.028 1337.08 173.47C1315.9 183.229 1294.66 192.988 1273.48 202.698L1277.19 207.48C1309.94 179.374 1342.74 151.267 1375.5 123.112C1389.6 111.011 1403.32 98.5677 1418.65 88.0766C1431.97 78.903 1445.79 70.4613 1459.7 62.2636C1463.06 60.2629 1459.99 54.993 1456.62 56.9936C1442.71 65.1913 1428.9 73.633 1415.57 82.8066C1400.49 93.2002 1386.92 105.35 1373.01 117.257C1339.62 145.9 1306.23 174.543 1272.85 203.186C1270.01 205.626 1273.63 209.335 1276.56 207.968C1314.43 190.597 1352.41 173.372 1390.04 155.561C1405.61 148.193 1420.94 139.947 1432.65 127.016C1443 115.646 1450.52 102.081 1457.55 88.467C1465.94 72.2179 1474 55.5785 1486.01 41.6229C1488.3 38.9391 1485.47 35.377 1482.3 36.8409C1436.12 57.9695 1379.21 64.9961 1344.65 105.838C1336.2 115.842 1330.2 127.357 1324.05 138.824C1317.9 150.291 1310.77 161.222 1302.03 171.127C1285.49 189.914 1265.33 205.382 1249.95 225.144C1234.58 244.907 1221.3 270.281 1221.4 296.24C1221.4 300.144 1227.5 300.193 1227.5 296.24L1227.55 296.191Z" fill="#191919"/>
<path d="M1271.19 210.212C1293.39 203.869 1316.04 199.575 1338.55 194.354C1349.72 191.768 1360.66 188.596 1371.74 185.717C1378.18 184.009 1384.62 182.984 1391.31 183.423C1398 183.863 1404.34 185.278 1410.93 185.327C1421.96 185.424 1432.7 182.204 1442.86 178.105C1453.01 174.006 1462.77 169.761 1472.09 164.539C1478.78 160.782 1489.72 154.731 1491.37 146.485C1492.79 139.556 1486.15 134.432 1479.71 134.676C1471.95 135.018 1460.38 143.508 1458.92 151.365C1457.6 158.44 1465.36 163.954 1471.17 159.367C1474.24 156.927 1469.9 152.633 1466.87 155.073C1465.31 154.927 1464.67 153.951 1464.97 152.145C1465.8 150.389 1466.97 148.876 1468.43 147.607C1470.39 145.607 1472.83 143.655 1475.32 142.337C1477.81 141.02 1480.59 140.093 1483.17 141.508C1487.91 144.094 1483.47 148.778 1480.88 151.072C1473.46 157.757 1464.24 162.002 1455.25 166.101C1445.1 170.737 1434.8 175.47 1423.87 177.861C1412.93 180.252 1402.49 178.056 1391.31 177.373C1381.01 176.738 1371.35 179.52 1361.54 182.301C1351.72 185.083 1340.89 187.62 1330.49 189.962C1310.14 194.549 1289.64 198.599 1269.53 204.357C1265.77 205.43 1267.38 211.335 1271.14 210.261L1271.19 210.212Z" fill="#191919"/>
<path d="M1327.81 196.794C1350.46 188.352 1374.71 182.448 1398.97 182.253C1411.57 182.155 1424.36 183.668 1436.02 188.743C1447.69 193.817 1457.5 201.722 1467.65 209.091C1476.68 215.678 1487.42 222.363 1499.09 220.899C1505.97 220.021 1514.56 213.482 1506.85 206.797C1500.7 201.478 1486.1 205.089 1480.05 209.188C1473.56 213.531 1470.19 224.022 1477.12 229.634C1483.56 234.904 1498.5 232.854 1502.16 224.852C1507.38 213.287 1493.13 207.431 1484.59 205.968C1480.73 205.333 1479.07 211.189 1482.98 211.872C1487.13 212.555 1503.92 217.337 1494.79 224.217C1490.54 227.438 1478.05 227.828 1479.56 219.874C1480.64 214.214 1486.69 212.262 1491.57 211.384C1492.94 211.14 1498.55 209.725 1499.87 210.506C1506.85 214.702 1495.87 215.044 1494.5 214.946C1483.66 214.263 1474.19 206.407 1465.85 200.112C1457.5 193.817 1448.23 187.328 1438.17 183.033C1403.46 168.199 1360.07 178.3 1326.24 190.89C1322.58 192.256 1324.19 198.16 1327.86 196.794H1327.81Z" fill="#191919"/>
<path d="M1326.98 196.892C1343.91 197.088 1361.24 205.139 1375.35 213.922C1382.52 218.411 1389.51 223.633 1394.97 230.22C1399.46 235.636 1401.32 245.591 1409.08 247.152C1411.42 247.64 1413.33 245.737 1412.84 243.395C1411.18 235.197 1398.93 233.636 1394.63 240.565C1389.16 249.348 1398.34 259.546 1407.47 258.814C1418.3 257.936 1425.97 246.713 1424.21 236.271C1422.45 225.828 1411.23 219.778 1401.66 224.413C1398.14 226.121 1401.22 231.391 1404.73 229.683C1409.71 227.292 1415.86 230.22 1417.72 235.295C1419.82 241.004 1417.03 247.884 1411.96 251.007C1407.42 253.788 1400.24 253.154 1399.36 246.811C1398.68 241.882 1406.05 240.272 1406.98 244.956L1410.74 241.199C1406.54 240.37 1405.32 234.514 1403.32 231.245C1401.32 227.975 1399.02 225.292 1396.49 222.657C1390.29 216.264 1382.87 211.043 1375.2 206.603C1360.9 198.259 1343.82 190.939 1327.03 190.695C1323.12 190.695 1323.07 196.746 1327.03 196.795L1326.98 196.892Z" fill="#191919"/>
<path d="M1281.34 223.047C1308.14 207.774 1345.92 211.775 1361.1 241.053C1368.66 255.594 1370.91 272.526 1380.13 286.238C1387.84 297.656 1399.71 307.171 1414.15 305.756L1412.59 300.096C1379.99 322.786 1342.16 280.382 1323.95 257.253C1315.26 246.176 1306.43 233.587 1293.25 227.536C1287.73 224.999 1282.22 224.413 1276.21 224.316C1270.75 224.218 1261.91 224.95 1257.37 221.291L1256 226.365C1281.05 218.9 1309.99 225.145 1331.52 239.345C1342.74 246.762 1349.77 256.716 1357.34 267.549C1363.98 277.016 1371.74 286.336 1383.7 288.385C1387.55 289.068 1389.16 283.164 1385.31 282.481C1370.81 279.992 1363.63 265.597 1355.82 254.618C1348.7 244.566 1339.57 236.564 1328.83 230.562C1306.77 218.216 1278.9 213.142 1254.35 220.412C1252.34 220.998 1251.12 224.023 1252.98 225.487C1263.42 233.929 1279.19 227.536 1290.86 233.05C1306.28 240.37 1315.55 257.204 1326.29 269.647C1346.26 292.825 1383.21 327.812 1415.57 305.268C1417.82 303.707 1417.33 299.266 1414.01 299.608C1394.87 301.413 1383.21 282.676 1377.45 267.11C1371.69 251.544 1367.93 235.637 1356.17 224.023C1335.76 203.773 1301.94 204.163 1278.07 217.777C1274.65 219.729 1277.73 224.999 1281.14 223.047H1281.34Z" fill="#191919"/>
<path d="M1234.48 254.422C1241.07 236.319 1246.73 217.874 1252.69 199.527C1258.98 180.155 1267.62 160.831 1271.63 140.825C1275.63 120.819 1272.11 103.301 1259.03 87.784C1252.98 80.6109 1245.95 74.3651 1239.7 67.3384C1233.45 60.3118 1229.06 52.7484 1225.16 44.4531C1217.44 28.0577 1210.95 9.41764 1193.97 0.390385C1192.21 -0.536738 1190.06 0.292793 1189.48 2.19584C1175.56 47.0881 1193.97 96.372 1207.83 138.922C1221.69 181.472 1237.02 227.975 1225.01 272.037C1223.98 275.844 1229.84 277.454 1230.92 273.648C1242.39 231.439 1229.4 186.352 1216.57 145.998C1209.39 123.503 1201.43 101.203 1196.31 78.1224C1191.18 55.0419 1187.96 27.7649 1195.38 3.8061L1190.89 5.61155C1205.53 13.3701 1211.64 29.424 1218.13 43.7212C1221.59 51.2846 1225.25 58.7991 1230.28 65.4354C1235.31 72.0716 1241.51 78.0248 1247.37 84.0755C1253.61 90.4677 1259.76 97.2992 1263.42 105.546C1268.11 116.134 1267.92 127.992 1265.67 139.166C1261.91 157.953 1253.86 176.007 1247.95 194.159C1241.56 213.726 1235.6 233.44 1228.52 252.763C1227.16 256.472 1233.06 258.033 1234.43 254.373L1234.48 254.422Z" fill="#191919"/>
<path d="M1192.16 19.8109C1221.93 53.724 1232.18 99.0555 1236.48 142.825C1238.24 160.929 1240.34 179.52 1239.7 197.77C1239.07 216.019 1234.53 235.001 1228.62 252.812C1227.4 256.52 1233.26 258.13 1234.53 254.422C1239.51 239.441 1243.41 224.12 1245.07 208.407C1246.39 196.111 1245.71 184.009 1244.92 171.713C1242.48 134.921 1239.02 97.4452 1225.16 62.9465C1218.22 45.6239 1208.85 29.57 1196.55 15.5168C1193.97 12.5403 1189.67 16.8831 1192.26 19.8109H1192.16Z" fill="#191919"/>
<path d="M1253.91 781.125C1248.59 740.625 1261.67 698.514 1289.39 668.358C1295.35 661.917 1304.91 656.305 1308.67 648.205C1312.72 639.47 1307.06 627.467 1304.91 618.781C1301.84 606.582 1298.76 594.383 1295.69 582.135C1292.61 569.887 1288.81 558.274 1287.98 546.075C1287.15 533.876 1290.32 520.067 1301.55 513.772C1310.77 508.649 1324.24 512.894 1326.1 523.97C1326.29 525.142 1327.81 526.361 1329.03 526.215C1334.1 525.629 1336.4 521.433 1335.76 516.505C1335.37 513.674 1333.91 511.674 1332.25 509.478C1330.35 507.038 1327.47 504.062 1329.86 500.792C1331.22 498.938 1334.3 498.109 1336.3 497.474C1352.36 492.79 1382.43 489.96 1388.24 511.186C1389.99 517.578 1391.26 523.19 1399.12 523.434C1402.68 523.531 1405.91 522.311 1409.27 521.531C1410.93 521.14 1412.94 520.652 1414.64 521.091C1419.67 522.409 1417.38 526.264 1416.64 529.387C1413.42 543.879 1431.83 547.246 1437.05 557.737C1441.44 566.569 1436.9 577.5 1439.1 586.868C1440.86 594.432 1452.81 610.242 1441.29 615.17C1439.49 615.951 1439.39 618.732 1440.66 619.952C1451.89 630.443 1439.2 646.887 1429.92 653.426C1417.87 661.965 1402.83 665.43 1388.24 665.137C1372.23 664.796 1356.56 659.867 1342.06 653.426C1330 648.059 1318.39 638.787 1304.82 644.399C1302.33 645.424 1301.55 649.62 1304.82 650.303C1320.73 653.573 1336.84 654.353 1352.26 648.547C1367.69 642.74 1378.62 632.981 1388.29 620.635C1392.82 614.877 1396.92 608.778 1400.93 602.63C1404.2 597.604 1408.88 591.504 1406.39 585.209C1403.17 576.816 1390.34 574.133 1384.67 581.403L1389.75 584.38C1392.39 571.205 1410.4 566.96 1410.74 552.321C1410.93 545.294 1405.27 542.806 1403.08 536.901C1400.88 530.997 1401.46 524.605 1400.34 518.7C1399.61 514.846 1393.7 516.505 1394.44 520.311C1395.46 525.629 1395.41 531.095 1396.63 536.365C1397.12 538.463 1397.75 540.415 1398.93 542.269C1400.98 545.538 1404.78 548.076 1404.64 552.272C1404.39 559.445 1397.17 564.422 1392.48 568.863C1388.38 572.766 1385.01 577.012 1383.84 582.672C1383.31 585.307 1386.87 588.283 1388.92 585.649C1391.56 582.33 1397.12 582.428 1399.76 585.941C1403.22 590.577 1397.07 597.311 1394.53 601.166C1388.33 610.583 1381.84 619.854 1373.74 627.711C1355.09 645.765 1330.98 649.425 1306.33 644.399V650.303C1316.39 646.156 1324.05 651.669 1332.98 655.963C1340.69 659.672 1348.65 663.039 1356.85 665.674C1372.81 670.797 1389.9 672.993 1406.49 669.724C1420.4 666.991 1435.24 660.16 1443.93 648.595C1451.06 639.129 1454.57 624.685 1444.96 615.707L1444.32 620.489C1450.91 617.707 1453.01 609.998 1451.79 603.41C1450.86 598.287 1447.93 593.895 1446.13 589.113C1444.13 583.794 1444.32 578.476 1444.61 572.913C1445.05 564.325 1444.86 556.176 1438.61 549.637C1434.07 544.855 1423.97 540.951 1422.45 534.071C1421.57 530.021 1424.85 526.264 1424.02 522.067C1423.43 519.091 1421.28 516.944 1418.55 515.87C1415.57 514.699 1412.15 514.846 1409.08 515.48C1407.03 515.87 1405.08 516.651 1403.08 517.041C1398.44 518.017 1396.24 516.797 1394.68 512.259C1391.8 503.915 1388.63 497.767 1380.57 493.18C1371.79 488.203 1361.49 487.666 1351.63 488.789C1343.43 489.716 1330.98 490.252 1325.12 497.133C1322.73 499.914 1322.15 503.379 1323.27 506.843C1323.8 508.453 1332.44 519.823 1329.03 520.262L1331.96 522.507C1328.88 504.501 1305.65 501.427 1293.59 512.162C1275.19 528.557 1282.61 555.395 1287.73 575.889C1291.1 589.259 1294.47 602.581 1297.79 615.951C1299.5 622.782 1301.45 629.662 1302.96 636.543C1303.89 640.934 1304.33 644.74 1301.3 648.449C1299.3 650.889 1296.71 652.792 1294.37 654.89C1278.26 669.285 1265.77 687.486 1257.57 707.443C1247.95 730.719 1244.44 756.239 1247.71 781.223C1248.2 785.078 1254.3 785.126 1253.81 781.223L1253.91 781.125Z" fill="#191919"/>
<path d="M1326.44 521.677C1315.7 535.73 1306.57 552.613 1304.57 570.375C1303.45 580.183 1304.04 590.137 1304.23 599.994C1304.33 604.484 1303.89 609.412 1304.96 613.804C1306.33 619.22 1310.09 622.245 1307.55 628.198C1306.04 631.809 1311.94 633.371 1313.46 629.809C1315.02 626.051 1315.26 622.099 1313.7 618.293C1313.02 616.585 1311.94 615.121 1311.31 613.364C1310.43 610.925 1310.48 608.387 1310.43 605.801C1310.19 595.993 1309.65 586.087 1310.19 576.231C1311.16 557.2 1320.29 539.634 1331.71 524.702C1334.1 521.579 1328.78 518.554 1326.44 521.628V521.677Z" fill="#191919"/>
<path d="M1308.62 648.254C1311.41 640.934 1314.33 633.664 1317.56 626.54C1320.78 619.415 1324.39 611.266 1329.61 605.118C1336.45 597.067 1344.84 590.919 1350.65 581.891C1356.46 572.864 1360.71 562.08 1364.66 551.784C1366.08 548.125 1360.17 546.514 1358.75 550.174C1354.7 560.763 1350.5 571.547 1343.96 580.915C1337.96 589.455 1329.12 595.261 1323.02 603.654C1313.8 616.341 1308.14 632.102 1302.62 646.692C1301.25 650.352 1307.11 651.962 1308.53 648.303L1308.62 648.254Z" fill="#191919"/>
<path d="M1401.95 591.699C1405.22 595.407 1410.54 597.262 1415.08 598.872C1417.23 599.653 1419.43 600.336 1421.62 600.97C1422.89 601.312 1424.21 601.556 1425.38 602.092C1426.8 602.776 1426.99 603.898 1427.53 605.264C1429.19 609.461 1432.95 611.656 1436.8 613.511C1438.51 614.34 1440.37 615.121 1441.93 616.243C1442.12 616.39 1442.32 616.536 1442.56 616.78C1442.91 617.073 1442.95 617.219 1443 617.268C1443.34 617.805 1443.3 617.609 1443.15 618.195C1442.32 622.001 1448.23 623.66 1449.06 619.805C1450.08 615.072 1447.05 611.949 1443.15 609.851C1440.03 608.192 1434.95 606.826 1433.34 603.41C1432.61 601.897 1432.31 600.385 1431.24 599.018C1430.26 597.798 1428.99 596.969 1427.58 596.383C1425.19 595.359 1422.55 594.871 1420.01 594.041C1415.47 592.626 1409.52 590.967 1406.25 587.307C1403.66 584.379 1399.36 588.673 1401.95 591.601V591.699Z" fill="#191919"/>
<path d="M1404.73 867.983C1393.46 852.759 1381.01 838.315 1367.83 824.701C1352.99 809.282 1340.45 792.789 1329.03 774.685C1316.87 755.508 1305.11 736.039 1293.15 716.716C1281.88 698.466 1270.21 680.412 1260.35 661.381C1249.17 639.911 1240.58 616.928 1239.36 592.579L1233.7 594.14C1243.41 610.048 1256.84 622.881 1270.45 635.422C1284.07 647.962 1298.28 661.967 1309.6 677.728C1331.71 708.42 1346.16 743.749 1357.58 779.614C1364.17 800.303 1369.79 821.237 1375.35 842.219C1376.38 846.025 1382.23 844.415 1381.26 840.609C1362.07 768 1340.6 693.147 1284.37 639.96C1268.16 624.638 1250.73 610.341 1239.02 591.066C1237.51 588.578 1233.16 589.456 1233.36 592.628C1235.55 634.885 1258.15 671.531 1279.83 706.566C1292.42 726.914 1304.96 747.311 1317.56 767.659C1328.59 785.421 1339.82 803.231 1353.87 818.846C1369.44 836.119 1385.7 852.417 1399.61 871.155C1401.9 874.278 1407.22 871.253 1404.88 868.081L1404.73 867.983Z" fill="#191919"/>
<path d="M1251.27 804.157C1255.96 776.099 1277.43 752.14 1298.37 734.33C1303.99 729.548 1309.8 725.107 1315.95 721.008C1321.51 717.3 1327.81 712.762 1334.3 711.054C1338.11 710.078 1345.33 710.712 1345.28 716.275C1345.28 720.52 1340.21 723.351 1336.64 724.18C1330.54 725.595 1321.36 722.863 1320.53 715.641C1320.1 711.786 1313.99 711.737 1314.43 715.641C1315.85 727.937 1330.15 733.5 1340.94 729.157C1346.65 726.864 1352.02 721.496 1351.29 714.86C1350.55 708.614 1344.31 704.564 1338.4 704.418C1331.03 704.174 1324.1 708.663 1318.04 712.371C1311.99 716.08 1306.09 720.276 1300.47 724.717C1287.83 734.622 1276.31 746.041 1266.5 758.776C1256.69 771.512 1248.1 786.346 1245.41 802.546C1244.78 806.401 1250.64 808.06 1251.32 804.157H1251.27Z" fill="#191919"/>
<path d="M1251.27 804.158C1255.13 795.033 1263.38 787.86 1271.19 782.151C1280.31 775.466 1290.32 769.952 1300.57 765.17C1305.45 762.925 1310.38 760.876 1315.41 759.022C1320.44 757.167 1326.49 754.581 1331.86 754.679C1336.1 754.776 1341.08 758.387 1337.33 762.486C1336.35 763.511 1334.64 764.194 1333.32 764.731C1331.37 765.511 1329.76 766.439 1329.12 764.048C1328.49 761.657 1330.88 758.338 1332.1 756.435C1334.05 753.361 1336.5 750.677 1339.18 748.189C1342.11 745.554 1337.76 741.26 1334.88 743.895C1330.25 748.14 1325.37 753.752 1323.61 759.949C1322.39 764.292 1323.12 770.147 1328.15 771.562C1333.18 772.977 1340.55 768.878 1343.28 764.877C1346.6 759.997 1344.5 753.947 1339.81 750.824C1333.96 746.871 1326.54 748.97 1320.29 750.921C1315.02 752.58 1309.84 754.532 1304.72 756.679C1292.66 761.754 1280.9 767.805 1270.16 775.319C1260.11 782.395 1250.25 790.885 1245.36 802.499C1243.85 806.11 1249.76 807.671 1251.27 804.109V804.158Z" fill="#191919"/>
</g>
<defs>
<clipPath id="clip0_157_302">
<rect width="1261" height="2000" fill="white" transform="translate(369)"/>
</clipPath>
</defs>
</svg>
