<?xml version="1.0" encoding="utf-8"?>
<!-- Generator: Adobe Illustrator 23.0.1, SVG Export Plug-In . SVG Version: 6.00 Build 0)  -->
<svg version="1.1" id="图层_1" xmlns="http://www.w3.org/2000/svg" xmlns:xlink="http://www.w3.org/1999/xlink" x="0px" y="0px"
	 viewBox="0 0 94 65" style="enable-background:new 0 0 94 65;" xml:space="preserve">
<style type="text/css">
	.st0{opacity:0.2;fill-rule:evenodd;clip-rule:evenodd;enable-background:new    ;}
	.st1{fill-rule:evenodd;clip-rule:evenodd;fill:#111111;}
	.st2{fill-rule:evenodd;clip-rule:evenodd;fill:#222222;}
	.st3{fill-rule:evenodd;clip-rule:evenodd;fill:#444444;}
	.st4{fill-rule:evenodd;clip-rule:evenodd;fill:#555555;}
	.st5{fill-rule:evenodd;clip-rule:evenodd;fill:#666666;}
	.st6{fill-rule:evenodd;clip-rule:evenodd;fill:#777777;}
	.st7{fill-rule:evenodd;clip-rule:evenodd;fill:#888888;}
	.st8{fill-rule:evenodd;clip-rule:evenodd;fill:#999999;}
	.st9{fill-rule:evenodd;clip-rule:evenodd;fill:#DDDDDD;}
	.st10{fill-rule:evenodd;clip-rule:evenodd;fill:#EEEEEE;}
	.st11{fill-rule:evenodd;clip-rule:evenodd;fill:#AAAAAA;}
	.st12{fill-rule:evenodd;clip-rule:evenodd;fill:#BBBBBB;}
	.st13{fill-rule:evenodd;clip-rule:evenodd;fill:#CCCCCC;}
	.st14{fill-rule:evenodd;clip-rule:evenodd;fill:#333333;}
	.st15{opacity:0;fill-rule:evenodd;clip-rule:evenodd;}
</style>
<path id="_x3C_bg_x3E_" class="st0" d="M84.1,54.8H10c-3.9,0-7-3.1-7-6.9V17.8c0-3.8,3.1-6.9,7-6.9H84c3.9,0,7,3.1,7,6.9v30.1
	C91.1,51.7,88,54.8,84.1,54.8z"/>
<path id="_x3C_1_x3E_" class="st1" d="M19.5,17.3h21c1.1,0,2,0.9,2,2s-0.9,2-2,2h-25C15.5,21.3,17.3,17.3,19.5,17.3z"/>
<path id="_x3C_2_x3E_" class="st2" d="M15.5,21.3h6v12h-2c-2.2,0-4-1.8-4-4V21.3z"/>
<path id="_x3C_4_x3E_" class="st3" d="M32.4,46.8c0,0.8-0.7,1.5-1.5,1.5h-6c-0.8,0-1.5-0.7-1.5-1.5s0.7-1.5,1.5-1.5h1.5V26.9
	c0-1.1,0.9-1.6,2-1.6h2c1.1,0,2,0.9,2,2v18C32.4,45.6,32.4,46.6,32.4,46.8z"/>
<path id="_x3C_5_x3E_" class="st4" d="M16.2,36.3h6.3l-2.7,10h-6.3L16.2,36.3z"/>
<path id="_x3C_6_x3E_" class="st5" d="M38.2,46.3l-2.7-10h6.3l2.7,10H38.2z"/>
<path id="_x3C_7_x3E_" class="st6" d="M50.5,17.3h25c2.2,0,4,1.8,4,4h-25C52.3,21.3,50.5,19.5,50.5,17.3L50.5,17.3z"/>
<path id="_x3C_8_x3E_" class="st7" d="M50.5,24.3h30c0,0-1.8,4-4,4h-22C52.3,28.3,50.5,26.5,50.5,24.3L50.5,24.3z"/>
<path id="_x3C_9_x3E_" class="st8" d="M62.5,21.3h6v9c0,1.7-1.3,3-3,3c-1.7,0-3-1.3-3-3V21.3z"/>
<path id="_x3C_13_x3E_" class="st9" d="M60.5,28.3l-3.6,5h-6.4l4.6-5H60.5z"/>
<path id="_x3C_14_x3E_" class="st10" d="M73.6,33.3l-2.1-5h4.9l2.1,5H73.6z"/>
<path id="_x3C_10_x3E__2_" class="st11" d="M50.5,34.3h27c1.1,0,2,0.9,2,2s-0.9,2-2,2h-26c-1.1,0-2-0.9-2-2v-1
	C49.5,34.8,49.9,34.3,50.5,34.3z"/>
<path id="_x3C_11_x3E__1_" class="st12" d="M72.5,38.3l-4,3.4h5v2.6h-7c-0.8,0-1.6,0.5-1.9,1.3c-0.1,0.3-0.1,0.6-0.1,0.9
	c0,1.3,0.4,1.8,1.8,1.8s10.7,0,10.7,0s3.6-0.6,3.6-3.6c0-3.1-4-3.4-4-3.4l2-3H72.5z"/>
<path id="_x3C_12_x3E_" class="st13" d="M54.6,38.3h5.8l-4.2,10h-5.8L54.6,38.3z"/>
<path id="_x3C_3_x3E_" class="st14" d="M21.5,29.3h18c1.1,0,2,0.9,2,2c0,1.1-0.9,2-2,2h-18V29.3z"/>
<rect class="st15" width="94" height="65"/>
</svg>
