<svg width="2000" height="2000" viewBox="0 0 2000 2000" fill="none" xmlns="http://www.w3.org/2000/svg">
<g clip-path="url(#clip0_157_247)">
<path d="M234.47 829.535C257.328 797.701 298.554 785.907 336.754 777.035C423.068 756.996 510.218 740.922 597.994 728.919C596.741 725.684 595.593 722.239 594.654 718.795C507.191 730.902 420.355 746.871 334.353 766.807C295.006 775.992 250.961 788.621 225.912 823.377C210.883 844.357 208.065 875.042 219.128 899.883C225.181 913.556 234.888 923.576 246.682 928.899C247.517 925.351 248.352 921.906 249.187 918.566C221.215 904.058 214.431 857.195 234.47 829.327V829.535Z" fill="black"/>
<path d="M734.824 828.283L770.101 827.657C698.92 809.287 638.594 780.897 613.754 737.582C609.996 738.104 606.343 738.521 602.586 739.043C624.191 780.375 674.289 808.869 734.824 828.283Z" fill="black"/>
<path d="M608.744 727.457C607.388 724.222 606.135 720.882 605.196 717.438C601.752 717.855 598.203 718.377 594.759 718.899C595.698 722.343 596.742 725.683 598.099 729.023C601.647 728.501 605.196 728.084 608.849 727.562L608.744 727.457Z" fill="black"/>
<path d="M613.754 737.583C611.875 734.348 610.206 730.903 608.744 727.459C605.196 727.981 601.647 728.398 597.994 728.92C599.351 732.365 600.812 735.704 602.586 738.94C606.344 738.418 609.997 738.001 613.754 737.479V737.583Z" fill="black"/>
<path d="M615.632 715.977C612.084 716.394 608.64 716.916 605.195 717.438C606.135 720.882 607.387 724.222 608.744 727.458C612.293 726.936 615.946 726.414 619.494 725.996C618.033 722.761 616.676 719.421 615.632 715.977Z" fill="black"/>
<path d="M625.026 736.12C622.939 732.885 621.06 729.545 619.494 725.996C615.946 726.414 612.293 726.935 608.744 727.457C610.205 730.902 611.875 734.242 613.754 737.582C617.511 737.06 621.269 736.642 625.026 736.12Z" fill="black"/>
<path d="M697.146 649.596C684.83 649.596 674.915 655.858 674.915 663.477C674.915 671.097 684.83 677.359 697.146 677.359C709.462 677.359 719.377 671.097 719.377 663.477C719.377 655.858 709.462 649.596 697.146 649.596Z" fill="black"/>
<path d="M754.654 1298.49C755.802 1298.49 756.95 1298.8 757.994 1299.32C756.846 1298.9 755.802 1298.59 754.654 1298.49Z" fill="black"/>
<path d="M764.152 1305.9C764.152 1305.9 764.152 1306.11 764.257 1306.21C764.257 1306.11 764.152 1306 764.152 1305.9Z" fill="black"/>
<path d="M759.456 1299.84C759.456 1299.84 758.83 1299.64 758.517 1299.53C759.56 1300.05 760.604 1300.78 761.439 1301.62C760.813 1300.99 760.291 1300.37 759.456 1299.95V1299.84Z" fill="black"/>
<path d="M761.752 1301.83C762.587 1302.77 763.318 1303.81 763.839 1305.06C763.318 1303.81 762.691 1302.77 761.752 1301.83Z" fill="black"/>
<path d="M670.01 1318.11C670.01 1318.11 669.697 1317.8 669.592 1317.69H671.054C672.932 1316.33 675.02 1315.5 677.525 1315.6C678.673 1315.6 679.821 1316.02 680.864 1316.54L683.369 1316.23C681.282 1314.56 679.299 1312.79 677.525 1310.8C673.767 1306.42 667.192 1306 662.808 1309.76C658.425 1313.52 658.007 1320.09 661.765 1324.48C663.121 1326.15 664.687 1327.61 666.252 1329.07C666.252 1327.08 666.461 1325.83 666.461 1325.31C666.67 1322.39 668.027 1319.88 670.114 1318.11H670.01Z" fill="black"/>
<path d="M715.098 1345.77C729.084 1344.2 742.443 1337.52 752.671 1327.5C750.584 1324.68 748.705 1321.66 747.035 1318.42C738.268 1327.82 726.474 1333.97 713.95 1335.33C704.765 1336.27 695.372 1334.5 687.022 1330.53C686.813 1333.97 686.709 1337.63 686.709 1341.7C693.806 1344.41 701.425 1345.98 709.044 1345.98C711.027 1345.98 713.01 1345.98 714.993 1345.66L715.098 1345.77Z" fill="black"/>
<path d="M745.992 1302.77C745.992 1302.77 745.47 1303.29 745.261 1303.6C743.904 1306 742.234 1308.19 740.355 1310.28L744.008 1309.86C743.8 1307.25 744.53 1304.75 745.992 1302.66V1302.77Z" fill="black"/>
<path d="M747.453 1300.99C748.079 1300.47 748.81 1300.05 749.541 1299.63C748.81 1300.05 748.079 1300.37 747.453 1300.99Z" fill="black"/>
<path d="M687.231 1326.77C687.231 1327.92 687.126 1329.38 687.022 1330.74C695.372 1334.7 704.765 1336.48 713.95 1335.54C726.474 1334.18 738.268 1327.92 747.035 1318.63C746.096 1316.75 745.157 1314.77 744.426 1312.79C744.113 1311.85 744.008 1311.01 744.008 1310.07L740.355 1310.49C733.258 1318.63 723.343 1324.16 712.906 1325.21C702.469 1326.25 691.719 1322.91 683.265 1316.44L680.76 1316.75C684.726 1318.42 687.544 1322.39 687.231 1326.98V1326.77Z" fill="black"/>
<path d="M669.593 1317.69C669.593 1317.69 669.906 1318 670.01 1318.11C670.323 1317.9 670.741 1317.69 671.054 1317.48H669.593V1317.69Z" fill="black"/>
<path d="M764.152 1311.53L767.597 1312.47C766.344 1310.49 765.3 1308.4 764.361 1306.21C764.779 1307.99 764.674 1309.76 764.152 1311.64V1311.53Z" fill="black"/>
<path d="M758.099 1299.32C758.099 1299.32 758.412 1299.32 758.516 1299.43C758.412 1299.43 758.203 1299.43 758.099 1299.32Z" fill="black"/>
<path d="M750.48 1299.22C750.48 1299.22 749.958 1299.64 749.645 1299.74C750.062 1299.53 750.48 1299.32 750.897 1299.11C750.793 1299.11 750.584 1299.11 750.48 1299.11V1299.22Z" fill="black"/>
<path d="M761.438 1301.51C761.438 1301.51 761.647 1301.72 761.752 1301.83C761.752 1301.72 761.543 1301.62 761.438 1301.51Z" fill="black"/>
<path d="M763.943 1305.17C763.943 1305.17 763.943 1305.17 763.943 1305.06C764.048 1305.38 764.256 1305.58 764.361 1305.9C764.361 1305.69 764.152 1305.48 764.048 1305.27L763.943 1305.17Z" fill="black"/>
<path d="M745.992 1302.77C746.41 1302.14 746.932 1301.51 747.558 1300.99C746.932 1301.51 746.514 1302.14 745.992 1302.77Z" fill="black"/>
<path d="M743.904 1309.86L754.237 1308.82C754.237 1308.82 754.237 1308.82 754.237 1308.92L764.152 1311.53C764.674 1309.76 764.778 1307.88 764.361 1306.11C764.361 1306 764.361 1305.9 764.257 1305.79C764.257 1305.48 763.943 1305.27 763.839 1304.96C763.317 1303.71 762.691 1302.66 761.752 1301.72C761.752 1301.72 761.543 1301.51 761.439 1301.41C760.604 1300.57 759.56 1299.84 758.516 1299.32C758.412 1299.32 758.203 1299.32 758.099 1299.22C757.055 1298.8 755.907 1298.49 754.759 1298.38C754.55 1298.38 754.341 1298.38 754.028 1298.38C752.985 1298.38 751.941 1298.59 750.897 1298.9C750.48 1299.01 750.062 1299.32 749.645 1299.53C748.914 1299.95 748.184 1300.37 747.557 1300.89C747.035 1301.41 746.514 1301.93 745.992 1302.66C744.426 1304.75 743.696 1307.15 744.009 1309.86H743.904Z" fill="black"/>
<path d="M759.664 1319.47C757.472 1316.23 755.594 1312.68 754.132 1308.92C752.149 1312.37 749.749 1315.6 747.035 1318.42C748.601 1321.66 750.584 1324.68 752.671 1327.5C755.176 1325 757.577 1322.39 759.664 1319.47Z" fill="black"/>
<path d="M754.132 1308.92C754.132 1308.92 754.132 1308.92 754.132 1308.82L743.8 1309.86C743.8 1310.8 743.904 1311.74 744.217 1312.58C744.948 1314.56 745.887 1316.54 746.827 1318.42C749.54 1315.5 751.941 1312.37 753.924 1308.92H754.132Z" fill="black"/>
<path d="M759.665 1319.47C760.917 1317.69 762.169 1315.92 763.318 1314.04C763.735 1313.2 763.944 1312.37 764.153 1311.53L754.237 1308.92C755.698 1312.68 757.577 1316.23 759.769 1319.47H759.665Z" fill="black"/>
<path d="M686.709 1341.8C686.709 1337.73 686.814 1334.08 687.023 1330.63C680.656 1327.61 674.811 1323.43 670.01 1318.11C667.923 1319.88 666.566 1322.39 666.357 1325.31C666.357 1325.83 666.253 1327.09 666.148 1329.07C672.098 1334.6 679.09 1338.88 686.709 1341.8Z" fill="black"/>
<path d="M677.525 1315.6C675.124 1315.5 672.932 1316.34 671.054 1317.48L680.76 1316.44C679.716 1316.02 678.673 1315.6 677.42 1315.5L677.525 1315.6Z" fill="black"/>
<path d="M680.76 1316.54L671.053 1317.59C671.053 1317.59 670.323 1317.9 670.01 1318.21C674.706 1323.54 680.551 1327.71 687.022 1330.74C687.022 1329.38 687.127 1328.02 687.231 1326.77C687.544 1322.18 684.83 1318.21 680.76 1316.54Z" fill="black"/>
<path d="M582.86 1224.69C561.255 1213.32 533.493 1213.63 512.201 1225.53C490.492 1237.64 475.985 1260.5 474.315 1285.13C473.897 1290.87 478.281 1295.88 484.021 1296.3C484.23 1296.3 484.543 1296.3 484.752 1296.3C490.179 1296.3 494.771 1292.12 495.189 1286.59C495.189 1286.28 495.189 1286.07 495.293 1285.75H484.752C486.213 1264.77 498.946 1244.84 517.315 1234.61C535.685 1224.38 559.377 1224.07 578.059 1233.88C596.742 1243.69 609.892 1263.31 611.771 1284.4H601.23C601.23 1284.4 601.229 1285.02 601.334 1285.34C601.856 1291.08 606.761 1295.36 612.606 1294.83C618.346 1294.31 622.626 1289.3 622.104 1283.56C619.912 1258.83 604.882 1236.28 582.86 1224.69Z" fill="black"/>
<path d="M577.955 1233.88C559.273 1224.07 535.58 1224.38 517.211 1234.61C498.842 1244.84 486.109 1264.77 484.647 1285.86H495.189C496.65 1268.53 507.192 1252.14 522.325 1243.69C537.668 1235.13 557.603 1234.92 573.154 1243.06C588.496 1251.1 599.351 1267.28 601.23 1284.5H611.771C609.892 1263.31 596.742 1243.69 578.059 1233.88H577.955Z" fill="black"/>
<path d="M449.057 1298.38C432.775 1294.94 416.493 1295.88 403.238 1300.99C389.252 1306.42 380.068 1315.92 377.667 1327.61C375.162 1339.4 379.65 1351.72 390.296 1362.36C400.316 1372.38 414.823 1379.79 431.209 1383.24C437.68 1384.6 444.151 1385.33 450.414 1385.33C459.911 1385.33 469.096 1383.76 477.028 1380.63C491.014 1375.2 500.198 1365.7 502.599 1353.91C504.999 1342.11 500.616 1329.8 489.97 1319.15C479.95 1309.13 465.443 1301.72 449.057 1298.28V1298.38ZM492.371 1351.93C490.596 1360.17 483.812 1366.96 473.166 1371.03C461.79 1375.41 447.596 1376.25 433.192 1373.11C418.894 1370.09 406.16 1363.62 397.498 1355.06C389.461 1347.02 385.912 1338.04 387.687 1329.8C389.461 1321.55 396.245 1314.87 406.891 1310.7C418.267 1306.31 432.462 1305.48 446.865 1308.61C461.268 1311.64 473.897 1318.11 482.56 1326.67C490.596 1334.7 494.145 1343.68 492.371 1351.93Z" fill="black"/>
<path d="M1831.66 1336.37C1860.78 1437.72 1881.76 1516.73 1879.67 1527.9C1873.51 1561.2 1761.1 1711.7 1548.71 1764.41C1548.5 1764.83 1548.29 1765.25 1548.19 1765.45C1546.2 1768.79 1542.76 1770.57 1539.21 1770.57C1537.44 1770.57 1535.56 1770.15 1533.89 1769.11C1533.37 1768.79 1533.05 1768.38 1532.63 1768.06C1531.49 1768.27 1530.34 1768.59 1529.09 1768.9C1304.06 1816.91 150.452 1648.76 124.047 1613.49C103.277 1585.72 210.257 1126.27 256.702 932.343C253.258 931.612 249.918 930.464 246.787 929.107C229.774 1000.19 204.621 1107.06 180.616 1214.78C96.3883 1593.86 109.435 1611.4 115.697 1619.75C137.823 1649.29 593.089 1712.85 750.793 1732.79C899.313 1751.57 1212.53 1788 1406.45 1788C1458.43 1788 1501.85 1785.39 1531.28 1779.13C1755.05 1731.32 1882.07 1571.74 1889.79 1529.88C1892.19 1517.04 1870.38 1433.86 1840.01 1327.92C1837.5 1330.95 1834.68 1333.76 1831.55 1336.37H1831.66Z" fill="black"/>
<path d="M1528.98 1758.25C1528.25 1758.36 1527.62 1758.57 1526.89 1758.77C1433.59 1778.71 1148.24 1761.7 763.526 1713.48C431.001 1671.73 159.115 1623.4 132.5 1607.12C129.265 1596.47 133.648 1558.69 143.042 1504C142.416 1503.79 141.894 1503.68 141.789 1503.68C138.971 1502.95 137.406 1500.03 138.136 1497.32C138.867 1494.6 141.789 1492.93 144.503 1493.66C144.503 1493.66 144.712 1493.66 144.816 1493.66C169.03 1356.1 221.842 1122.3 267.139 933.7C265.364 933.7 263.486 933.595 261.607 933.387C259.937 933.178 258.372 932.865 256.806 932.447C210.257 1126.37 103.277 1585.72 124.046 1613.49C150.452 1648.76 1304.06 1816.91 1529.09 1768.9C1530.23 1768.69 1531.38 1768.38 1532.63 1768.06C1529.71 1765.66 1528.36 1761.91 1529.09 1758.15L1528.98 1758.25Z" fill="black"/>
<path d="M1848.67 1435.42C1848.88 1434.9 1849.09 1434.49 1849.09 1434.49C1850.13 1431.77 1853.16 1430.41 1855.87 1431.56C1858.58 1432.61 1859.84 1435.63 1858.79 1438.35C1858.69 1438.66 1856.71 1443.36 1852.84 1451.19C1863.7 1492.1 1869.86 1519.34 1869.34 1526.13C1863.28 1559 1750.46 1702.1 1549.75 1753.45C1549.75 1760.44 1549.23 1763.16 1548.71 1764.52C1761.1 1711.81 1873.41 1561.4 1879.67 1528C1881.76 1516.84 1860.78 1437.83 1831.66 1336.48C1828.84 1338.88 1825.92 1340.97 1822.68 1342.85C1832.7 1377.6 1841.47 1408.91 1848.67 1435.63V1435.42Z" fill="black"/>
<path d="M1577.83 729.964C1606.74 733.199 1637.11 737.165 1660.07 754.909C1680.63 770.774 1692.11 795.197 1702.86 818.786C1765.17 955.098 1828.32 1094.23 1845.54 1243.17C1847.73 1262.58 1849.19 1282.62 1843.03 1301.2C1841.47 1306.11 1839.17 1310.8 1836.35 1315.19C1837.61 1319.47 1838.75 1323.64 1840.01 1327.82C1845.85 1320.61 1850.34 1312.47 1852.95 1304.44C1859.84 1283.56 1858.17 1262.17 1855.87 1241.92C1838.34 1090.05 1774.25 949.879 1712.36 814.402C1702.24 792.17 1689.61 764.407 1666.44 746.559C1642.22 727.876 1612.48 723.284 1578.98 719.526C1532.95 714.516 1487.03 710.237 1441.21 706.584C1440.89 710.133 1440.37 713.577 1439.85 716.917C1486.09 720.57 1532.01 724.954 1577.93 729.859L1577.83 729.964Z" fill="black"/>
<path d="M307.112 923.993C320.472 918.879 333.101 914.077 344.79 916.582C357.524 919.296 367.334 930.255 377.771 941.945C388.313 953.739 399.272 965.847 414.823 972.109C439.768 981.92 463.877 972.527 487.256 963.446C502.39 957.497 516.689 951.965 530.883 951.443C556.037 950.713 578.163 965.951 601.542 982.233C625.026 998.516 649.24 1015.32 678.672 1017.09C713.115 1019.29 743.174 1000.6 772.293 982.547C802.665 963.655 831.367 945.911 860.695 954.783C880.421 960.837 895.659 977.85 911.732 995.802C932.293 1018.76 953.585 1042.56 986.149 1043.08C1015.79 1043.81 1039.59 1023.15 1060.25 1004.99L1064.11 1001.65C1081.65 986.513 1106.91 970.126 1128.09 978.685C1147.4 986.408 1154.92 1011.98 1157.63 1026.49C1158.57 1031.71 1159.4 1037.03 1160.24 1042.46C1162.95 1060.72 1165.88 1079.51 1175.79 1096.42C1189.15 1118.96 1215.87 1132.53 1245.61 1131.49C1275.36 1130.55 1301.35 1115.41 1313.25 1092.03C1318.05 1082.54 1321.07 1072.2 1324 1062.08C1329.22 1043.92 1333.7 1028.26 1346.75 1022.1C1361.26 1015.22 1380.25 1025.86 1388.81 1040.06C1398.94 1056.76 1400.08 1078.99 1401.13 1098.51L1414.28 1356.83C1415.53 1381.15 1416.89 1408.7 1427.43 1434.17C1439.74 1463.5 1463.65 1483.85 1489.95 1487.51C1492.14 1487.82 1494.33 1487.92 1496.42 1487.92C1496.1 1486.05 1495.9 1484.06 1495.58 1482.18C1495.37 1480.51 1495.58 1478.95 1496.1 1477.49C1494.54 1477.49 1492.97 1477.38 1491.3 1477.07C1466.46 1473.63 1446.74 1453.06 1437.03 1430C1427.43 1406.83 1425.97 1381.25 1424.71 1356.2C1420.33 1270.1 1415.95 1183.99 1411.56 1097.88C1410.42 1076.07 1409.06 1053.21 1397.79 1034.52C1386.52 1015.84 1361.99 1003.11 1342.26 1012.5C1316.27 1024.82 1317 1061.45 1303.96 1087.13C1282.04 1130.24 1209.5 1132.64 1184.87 1090.89C1173.18 1071.06 1172.24 1047.05 1167.96 1024.4C1163.68 1001.75 1153.35 977.432 1132.06 968.874C1106.38 958.541 1078.2 975.554 1057.33 993.61C1036.46 1011.77 1014.02 1033.06 986.357 1032.54C934.798 1031.71 913.089 959.689 863.722 944.659C799.951 925.245 745.783 1010.83 679.299 1006.55C624.295 1003.11 585.574 939.127 530.466 940.901C491.744 942.154 454.588 976.493 418.58 962.298C389.983 951.026 376.937 912.825 346.878 906.354C320.889 900.822 295.736 922.219 269.435 923.054C268.6 926.498 267.765 930.047 266.93 933.491C281.124 933.7 294.275 928.794 307.008 923.889L307.112 923.993Z" fill="black"/>
<path d="M1734.7 1265.71C1711.84 1184.3 1722.8 1010.62 1682.82 1017.62C1667.9 1020.23 1663.31 1041.41 1649.84 1048.2C1636.38 1054.98 1618.11 1054.77 1607.89 1043.61C1599.74 1034.73 1598.49 1021.37 1590.87 1011.98C1574.8 992.15 1539.63 1003.32 1527.83 1025.97C1516.04 1048.62 1520.21 1075.86 1524.81 1101.01C1537.96 1173.34 1551 1245.78 1564.15 1318.11C1570.31 1351.82 1576.37 1387.1 1566.45 1419.87C1558.94 1444.92 1538.9 1467.68 1514.79 1475.09C1515.52 1476.34 1516.14 1477.7 1516.35 1479.16C1516.67 1481.25 1516.98 1483.23 1517.19 1485.21C1545.37 1476.86 1568.02 1450.45 1576.37 1422.9C1587.22 1386.89 1580.12 1347.75 1574.38 1316.23L1535.04 1099.13C1530.44 1073.98 1527.21 1049.76 1537.02 1030.77C1542.13 1021.06 1553.61 1013.44 1565.09 1012.29C1570.42 1011.77 1577.72 1012.4 1582.73 1018.56C1585.34 1021.79 1587.22 1026.38 1589.2 1031.19C1591.81 1037.45 1594.63 1044.65 1600.16 1050.7C1614.25 1066.05 1638.15 1065.84 1654.54 1057.59C1662.89 1053.42 1668.11 1046.01 1672.8 1039.54C1676.98 1033.69 1680.63 1028.68 1684.6 1027.95C1685.22 1027.95 1685.54 1027.95 1686.27 1028.37C1698.9 1038.18 1704.01 1098.4 1707.98 1146.73C1711.63 1190.67 1715.49 1236.18 1724.57 1268.53C1740.12 1323.75 1768.83 1353.07 1803.27 1349.11C1810.26 1348.27 1816.73 1345.98 1822.47 1342.64C1821.53 1339.19 1820.49 1335.75 1819.45 1332.3C1814.12 1335.64 1808.38 1338.04 1802.02 1338.78C1765.9 1342.95 1744.3 1300.68 1734.49 1265.71H1734.7Z" fill="black"/>
<path d="M238.228 891.533C230.296 873.581 232.175 850.619 242.925 835.693C263.695 806.782 301.79 795.927 339.051 787.264C425.991 767.016 513.976 751.151 602.482 739.043C600.812 735.808 599.247 732.363 597.89 729.023C510.114 741.026 422.965 757.1 336.65 777.14C298.45 786.012 257.224 797.806 234.367 829.64C214.432 857.403 221.216 904.371 249.083 918.879C249.918 915.226 250.857 911.678 251.692 908.233C244.491 903.641 240.316 896.543 238.124 891.638L238.228 891.533Z" fill="black"/>
<path d="M1576.68 740.295C1607.05 743.739 1633.77 747.705 1653.7 763.153C1672.8 777.869 1683.76 801.875 1693.37 823.063C1754.63 957.079 1817.98 1095.69 1835.1 1244.32C1837.08 1262.16 1838.65 1281.06 1833.01 1297.96C1832.7 1298.8 1832.39 1299.63 1832.07 1300.47C1833.54 1305.37 1834.89 1310.38 1836.35 1315.19C1839.17 1310.8 1841.36 1306 1843.03 1301.2C1849.19 1282.62 1847.73 1262.58 1845.54 1243.17C1828.32 1094.23 1765.17 955.096 1702.86 818.784C1692.11 795.195 1680.63 770.772 1660.07 754.907C1637.11 737.164 1606.74 733.197 1577.83 729.962C1532.01 725.056 1486.09 720.673 1439.74 717.02C1439.12 720.568 1438.49 724.013 1437.66 727.353C1483.89 731.006 1530.23 735.285 1576.68 740.399V740.295Z" fill="black"/>
<path d="M1801.08 1328.44C1767.05 1332.41 1749.41 1279.28 1744.82 1262.9C1736.26 1232.42 1732.5 1187.96 1728.96 1144.95C1722.8 1071.89 1718.1 1026.49 1699.11 1011.77C1693.78 1007.7 1687.52 1006.14 1681.05 1007.28C1668.63 1009.48 1661.53 1019.29 1655.9 1027.22C1652.35 1032.23 1648.9 1036.93 1645.25 1038.8C1636.17 1043.4 1622.71 1044.13 1615.71 1036.51C1612.69 1033.27 1610.81 1028.47 1608.72 1023.25C1606.42 1017.51 1603.71 1011.04 1599.12 1005.3C1590.77 994.968 1577.72 989.958 1563.22 991.419C1544.85 993.298 1527 1005.2 1518.75 1021.06C1505.81 1045.9 1509.46 1073.87 1514.68 1102.79L1554.03 1319.88C1559.67 1350.67 1566.03 1385.64 1556.64 1416.74C1548.39 1443.88 1521.88 1470.6 1493.08 1466.63C1470.43 1463.5 1454.46 1443.46 1447.05 1425.93C1437.97 1403.9 1436.61 1378.23 1435.47 1355.58L1422.31 1097.25C1421.17 1075.23 1419.81 1050.29 1407.08 1029.1C1396.95 1012.29 1377.02 998.83 1356.77 998.83C1350.51 998.83 1344.25 1000.08 1338.19 1003C1316.59 1013.23 1310.12 1035.99 1304.27 1056.03C1301.56 1065.52 1298.95 1074.61 1294.98 1082.33C1286.53 1098.92 1267.53 1109.67 1245.41 1110.3C1223.07 1110.93 1203.66 1101.53 1194.26 1085.46C1186.33 1072.1 1183.93 1056.03 1181.32 1039.01C1180.49 1033.38 1179.65 1027.85 1178.61 1022.31C1172.56 990.062 1157.53 967.518 1136.34 959.063C1111.5 949.043 1082.8 958.02 1050.86 985.574L1046.89 989.019C1028.42 1005.2 1009.32 1022 987.715 1022C987.402 1022 987.193 1022 986.88 1022C963.397 1021.58 946.071 1002.17 927.702 981.608C910.376 962.299 892.529 942.259 867.167 934.535C828.758 922.846 794.629 944.034 761.648 964.491C734.094 981.608 708.106 997.786 680.343 996.012C656.755 994.55 635.881 980.042 613.754 964.804C588.601 947.373 562.404 929.317 530.571 930.361C512.828 930.882 496.129 937.458 480.055 943.72C459.599 951.757 440.29 959.272 422.86 952.383C411.797 948 403.03 938.189 393.636 927.751C381.425 914.183 368.901 900.092 349.488 895.917C331.745 892.055 315.567 898.318 300.016 904.267C290.414 907.92 281.333 911.364 272.462 912.199C271.627 915.748 270.792 919.297 269.957 922.846C296.258 922.011 321.307 900.614 347.4 906.146C377.459 912.617 390.505 950.818 419.103 962.09C455.111 976.285 492.267 941.946 530.988 940.694C586.096 938.919 624.818 1002.9 679.821 1006.34C746.305 1010.62 800.474 925.037 864.244 944.451C913.612 959.481 935.321 1031.5 986.88 1032.33C1014.54 1032.86 1036.98 1011.56 1057.85 993.402C1078.73 975.346 1106.91 958.333 1132.58 968.666C1153.87 977.224 1164.21 1001.54 1168.49 1024.19C1172.76 1046.84 1173.7 1070.85 1185.39 1090.68C1210.02 1132.43 1282.56 1130.03 1304.48 1086.92C1317.53 1061.25 1316.8 1024.61 1342.78 1012.29C1362.51 1002.9 1387.04 1015.63 1398.31 1034.32C1409.58 1053 1410.94 1075.86 1412.09 1097.67C1416.47 1183.78 1420.85 1269.89 1425.24 1356C1426.49 1381.05 1427.95 1406.62 1437.55 1429.79C1447.26 1452.86 1466.99 1473.42 1491.83 1476.86C1493.39 1477.07 1494.96 1477.17 1496.63 1477.28C1497.77 1473.63 1500.91 1470.7 1504.98 1470.08C1509.26 1469.45 1513.12 1471.43 1515.31 1474.88C1539.42 1467.47 1559.35 1444.71 1566.97 1419.66C1576.89 1386.89 1570.83 1351.61 1564.68 1317.9C1551.53 1245.57 1538.48 1173.13 1525.33 1100.8C1520.74 1075.65 1516.56 1048.41 1528.36 1025.76C1540.15 1003.11 1575.32 991.941 1591.4 1011.77C1599.01 1021.17 1600.27 1034.53 1608.41 1043.4C1618.64 1054.57 1636.9 1054.77 1650.37 1047.99C1663.83 1041.21 1668.42 1020.02 1683.35 1017.41C1723.32 1010.42 1712.36 1184.09 1735.22 1265.5C1745.03 1300.47 1766.63 1342.74 1802.75 1338.57C1809.11 1337.84 1814.85 1335.44 1820.18 1332.1C1819.13 1328.65 1818.19 1325.21 1817.15 1321.66C1812.56 1325.1 1807.34 1327.5 1801.6 1328.23L1801.08 1328.44Z" fill="black"/>
<path d="M1496.52 1487.82C1503.52 1536.25 1511.97 1598.46 1518.65 1651.06C1521.47 1650.96 1524.29 1650.75 1527.1 1650.64C1531.38 1650.43 1535.45 1650.02 1539.73 1649.6C1534.83 1610.15 1527.62 1557.02 1517.4 1485.21C1511.45 1486.99 1505.29 1488.03 1498.82 1488.03C1498.09 1488.03 1497.36 1487.92 1496.63 1487.92L1496.52 1487.82Z" fill="black"/>
<path d="M1527.62 1661.08C1525.02 1661.19 1522.51 1661.29 1519.9 1661.5C1525.95 1710.14 1530.03 1748.65 1529.19 1756.9C1529.09 1757.31 1529.09 1757.84 1528.98 1758.25C1535.97 1756.69 1542.86 1755.12 1549.65 1753.35C1549.65 1741.14 1547.66 1715.46 1540.88 1660.04C1536.5 1660.45 1532.11 1660.87 1527.62 1661.08Z" fill="black"/>
<path d="M1533.78 1769.11C1535.45 1770.05 1537.23 1770.57 1539.11 1770.57C1542.65 1770.57 1546.2 1768.69 1548.08 1765.45C1548.29 1765.14 1548.39 1764.83 1548.6 1764.41C1543.28 1765.77 1537.96 1766.92 1532.53 1768.17C1532.95 1768.48 1533.26 1768.9 1533.78 1769.21V1769.11Z" fill="black"/>
<path d="M1549.65 1753.35C1542.86 1755.12 1535.97 1756.69 1528.98 1758.25C1528.25 1761.91 1529.61 1765.66 1532.53 1768.17C1537.96 1767.02 1543.28 1765.77 1548.6 1764.41C1549.13 1763.05 1549.65 1760.34 1549.65 1753.35Z" fill="black"/>
<path d="M1496.52 1487.82C1497.25 1487.82 1497.98 1487.92 1498.71 1487.92C1505.08 1487.92 1511.24 1486.88 1517.29 1485.11C1516.98 1483.02 1516.77 1481.14 1516.46 1479.05C1516.25 1477.59 1515.73 1476.23 1514.89 1474.98C1508.84 1476.86 1502.68 1477.7 1496.21 1477.38C1495.69 1478.84 1495.48 1480.41 1495.69 1482.08C1496 1483.96 1496.21 1485.94 1496.52 1487.82Z" fill="black"/>
<path d="M1514.89 1475.09C1512.8 1471.75 1508.84 1469.66 1504.56 1470.29C1500.49 1470.91 1497.36 1473.73 1496.21 1477.49C1502.58 1477.8 1508.84 1476.97 1514.89 1475.09Z" fill="black"/>
<path d="M1539.63 1649.6C1540.05 1653.15 1540.46 1656.59 1540.88 1659.93C1741.9 1642.71 1830.51 1495.54 1852.84 1450.98C1851.49 1445.97 1850.13 1440.75 1848.67 1435.32C1842.51 1449.93 1761.21 1630.71 1539.63 1649.5V1649.6Z" fill="black"/>
<path d="M1519.9 1661.5C1519.48 1658.05 1519.07 1654.61 1518.65 1651.17C862.991 1685.5 160.681 1497.95 144.816 1493.67C144.19 1497.21 143.668 1500.55 143.042 1504C173.623 1512.14 757.368 1665.88 1353.33 1665.88C1408.85 1665.88 1464.58 1664.53 1520.01 1661.6L1519.9 1661.5Z" fill="black"/>
<path d="M1518.65 1651.06C1519.07 1654.61 1519.48 1658.05 1519.9 1661.39C1522.51 1661.29 1525.02 1661.19 1527.63 1660.98C1532.11 1660.77 1536.5 1660.25 1540.88 1659.93C1540.46 1656.59 1540.05 1653.15 1539.63 1649.6C1535.45 1649.91 1531.28 1650.43 1527 1650.64C1524.18 1650.75 1521.36 1650.96 1518.54 1651.06H1518.65Z" fill="black"/>
<path d="M1430.87 705.853C1434.32 706.166 1437.76 706.374 1441.21 706.688C1441.94 699.486 1442.25 692.075 1442.15 684.352C1438.81 685.291 1435.36 685.708 1431.81 685.708C1431.81 692.701 1431.5 699.381 1430.87 705.853Z" fill="black"/>
<path d="M602.065 702.408C591.732 607.532 704.766 521.841 763.214 463.392C851.198 375.405 908.915 253.392 1068.39 225.42C1119.01 216.548 1168.69 238.258 1212.84 272.075C1213.05 269.988 1213.47 267.796 1214.2 265.604C1214.72 264.038 1215.45 262.681 1216.18 261.325C1170.78 227.507 1119.64 205.902 1066.62 215.191C942.523 236.901 878.439 313.616 816.547 387.721C797.134 410.892 777.199 434.794 755.908 456.086C746.619 465.375 735.868 475.395 724.596 486.041C664.688 542.09 582.548 618.805 591.837 703.661C592.359 708.984 593.507 713.994 594.864 719.004C598.308 718.482 601.856 718.064 605.301 717.542C603.944 712.637 602.796 707.731 602.169 702.512L602.065 702.408Z" fill="black"/>
<path d="M1295.92 818.262L1328.17 817.636C1379.73 798.014 1418.66 773.381 1431.6 744.679C1434.11 739.251 1435.99 733.406 1437.55 727.353C1434 727.039 1430.46 726.831 1426.91 726.518C1425.55 731.423 1423.98 736.12 1422.11 740.399C1408.12 771.503 1359.17 798.118 1295.82 818.262H1295.92Z" fill="black"/>
<path d="M996.795 858.133C957.864 856.359 913.82 852.81 869.567 846.757L811.85 847.8C875.933 860.325 942.835 866.066 996.273 868.571C1005.77 868.988 1015.58 869.197 1025.81 869.197C1096.26 869.197 1181.95 858.76 1256.78 839.764L1206.16 840.703C1134.98 854.48 1058.58 860.952 996.69 858.133H996.795Z" fill="black"/>
<path d="M770.102 827.656L734.824 828.283C745.888 831.831 757.368 835.067 768.953 838.094L812.789 837.363C798.282 834.545 783.983 831.309 769.997 827.656H770.102Z" fill="black"/>
<path d="M1296.23 828.7C1307.3 825.256 1318.05 821.603 1328.28 817.637L1296.03 818.263C1283.5 822.229 1270.46 825.987 1256.99 829.431L1296.34 828.7H1296.23Z" fill="black"/>
<path d="M812.789 837.363L768.953 838.094C783.043 841.747 797.342 844.878 811.85 847.801L869.567 846.757C850.571 844.148 831.471 841.016 812.789 837.363Z" fill="black"/>
<path d="M1256.89 829.432C1240.5 833.607 1223.59 837.469 1206.27 840.809L1256.89 839.869C1270.46 836.425 1283.61 832.667 1296.24 828.701L1256.89 829.432Z" fill="black"/>
<path d="M1429.41 716.185C1432.86 716.499 1436.4 716.707 1439.85 716.916C1440.37 713.576 1440.89 710.132 1441.21 706.583C1437.76 706.27 1434.32 706.061 1430.87 705.748C1430.46 709.297 1430.04 712.741 1429.41 716.081V716.185Z" fill="black"/>
<path d="M1437.66 727.353C1438.49 724.013 1439.22 720.568 1439.74 717.02C1436.3 716.707 1432.86 716.498 1429.31 716.289C1428.68 719.838 1427.85 723.282 1427.01 726.622C1430.56 726.935 1434.11 727.144 1437.66 727.457V727.353Z" fill="black"/>
<path d="M1421.48 684.246C1421.48 691.448 1421.27 698.545 1420.54 705.121C1423.98 705.33 1427.43 705.538 1430.87 705.851C1431.5 699.38 1431.81 692.596 1431.81 685.707C1428.37 685.707 1424.92 685.29 1421.48 684.246Z" fill="black"/>
<path d="M612.502 701.26C604.361 626.737 678.882 557.12 738.791 501.176C750.272 490.425 761.126 480.301 770.624 470.803C792.542 448.884 812.894 424.565 832.516 401.081C892.111 329.898 953.69 256.21 1070.17 235.753C1077.27 234.501 1084.36 233.874 1091.46 233.874C1134.36 233.874 1176.31 255.793 1214.1 286.374C1212.95 281.991 1212.22 277.085 1212.74 271.971C1168.59 238.258 1119.01 216.444 1068.29 225.316C908.811 253.288 851.094 375.301 763.109 463.288C704.661 521.737 591.628 607.428 601.961 702.304C602.482 707.522 603.631 712.428 605.092 717.334C608.536 716.916 612.085 716.394 615.529 715.872C614.068 711.176 612.92 706.27 612.293 701.156L612.502 701.26Z" fill="black"/>
<path d="M1254.07 818.993L1295.92 818.262C1359.17 798.118 1408.22 771.503 1422.21 740.399C1424.19 736.12 1425.76 731.423 1427.01 726.518C1423.46 726.205 1419.91 725.996 1416.37 725.787C1415.32 729.44 1414.07 732.885 1412.61 736.12C1397.79 768.893 1333.81 798.431 1253.96 818.993H1254.07Z" fill="black"/>
<path d="M770.101 827.656L814.146 826.821C733.05 810.852 655.085 783.297 625.026 736.016C621.269 736.537 617.511 736.955 613.754 737.477C638.594 780.792 698.921 809.182 770.101 827.551V827.656Z" fill="black"/>
<path d="M997.317 847.696C985.21 847.174 971.225 846.339 956.091 845.191L869.672 846.757C913.925 852.811 957.97 856.359 996.9 858.134C1058.79 861.056 1135.19 854.585 1206.37 840.703L1128.41 842.06C1083.01 847.383 1037.71 849.575 997.422 847.592L997.317 847.696Z" fill="black"/>
<path d="M1256.89 829.432C1270.35 825.987 1283.4 822.23 1295.92 818.264L1254.07 818.994C1237.89 823.169 1221.09 826.927 1203.87 830.371L1256.89 829.432Z" fill="black"/>
<path d="M870.924 836.319C852.241 833.71 833.037 830.683 814.146 826.926L770.102 827.761C783.983 831.309 798.282 834.545 812.894 837.468L871.028 836.424L870.924 836.319Z" fill="black"/>
<path d="M870.924 836.319L812.789 837.363C831.471 841.016 850.571 844.147 869.567 846.757L955.986 845.191C930.415 843.312 901.191 840.494 870.924 836.215V836.319Z" fill="black"/>
<path d="M1128.3 842.165L1206.27 840.808C1223.59 837.468 1240.5 833.607 1256.89 829.432L1203.87 830.371C1179.24 835.172 1153.77 839.138 1128.41 842.165H1128.3Z" fill="black"/>
<path d="M1418.97 715.454C1422.42 715.767 1425.97 715.976 1429.41 716.185C1430.04 712.845 1430.56 709.4 1430.87 705.852C1427.43 705.539 1423.98 705.33 1420.54 705.121C1420.12 708.67 1419.6 712.114 1418.97 715.454Z" fill="black"/>
<path d="M1416.47 725.788C1420.02 726.101 1423.57 726.31 1427.12 726.519C1428.05 723.179 1428.79 719.734 1429.41 716.186C1425.97 715.873 1422.42 715.664 1418.97 715.455C1418.24 719.004 1417.41 722.448 1416.47 725.788Z" fill="black"/>
<path d="M1460.31 643.855C1458.01 654.501 1454.15 665.878 1445.07 671.827C1444.02 672.558 1442.88 672.871 1441.73 673.393C1441.94 677.15 1442.04 680.803 1442.04 684.456C1445.07 683.621 1447.99 682.369 1450.7 680.699C1463.54 672.349 1468.13 657.006 1470.43 646.151C1479.3 604.61 1465.32 566.514 1430.14 486.668C1426.39 486.981 1422.84 487.399 1419.29 487.92C1454.88 568.706 1468.55 604.923 1460.2 643.959L1460.31 643.855Z" fill="black"/>
<path d="M1248.12 255.897C1257.93 256.837 1266.7 262.264 1274.73 267.9C1319.93 299.526 1356.14 343.884 1378.17 394.401C1378.37 394.819 1378.58 395.236 1378.79 395.758C1381.51 393.462 1384.32 391.27 1387.25 389.183C1364.18 336.891 1327.44 292.011 1280.79 259.342C1271.5 252.871 1261.27 246.608 1249.16 245.46C1237.16 244.208 1222.76 249.426 1216.18 261.22C1219 263.308 1221.82 265.5 1224.64 267.692C1228.39 259.237 1238.83 254.958 1248.12 255.897Z" fill="black"/>
<path d="M1235.91 347.432C1214.41 346.493 1192.28 346.493 1169.95 347.432C1145.11 348.581 1129.24 359.644 1128.62 376.344C1127.89 394.088 1145.52 404.212 1152.1 407.969C1186.54 427.696 1222.13 448.049 1252.4 473.203C1234.87 492.616 1220.04 514.222 1208.25 537.497C1205.12 543.759 1198.65 556.806 1202.61 570.062C1206.37 582.169 1217.85 591.041 1235.07 595.007C1261.17 600.852 1287.68 596.051 1309.49 588.536C1303.02 612.855 1301.25 638.322 1304.17 663.372C1305.32 673.183 1308.13 687.065 1319.61 694.58C1324.42 697.815 1329.74 699.172 1334.96 699.172C1347.59 699.172 1360.63 691.135 1369.92 680.802C1377.85 672.035 1384.32 662.432 1389.75 652.934C1390.27 654.5 1390.9 656.066 1391.53 657.631C1396.95 670.052 1408.33 680.072 1421.27 683.933C1421.27 680.28 1421.06 676.419 1420.85 672.661C1412.3 669.112 1404.78 661.911 1401.02 653.456C1393.82 636.965 1396.64 617.969 1399.67 600.226C1393.61 623.292 1381.71 651.995 1362.09 673.809C1352.7 684.247 1337.04 693.64 1325.25 685.812C1317.74 680.907 1315.44 671.095 1314.4 662.119C1310.74 631.225 1314.81 599.391 1326.19 570.375C1298.95 583.108 1266.59 591.458 1237.16 584.778C1226.72 582.378 1215.56 577.159 1212.43 566.93C1209.92 558.581 1213.57 549.813 1217.44 542.09C1230.38 516.414 1247.29 492.825 1267.32 472.263C1234.66 443.248 1195.93 421.016 1157.11 398.784C1148.34 393.774 1138.43 386.781 1138.84 376.657C1139.37 363.193 1156.8 358.392 1170.26 357.765C1197.19 356.513 1224.12 356.722 1250.94 358.6C1243.74 338.874 1236.64 319.147 1229.44 299.421C1224.32 294.828 1219.21 290.444 1213.89 286.165C1214.72 289.401 1215.77 292.323 1216.6 294.828L1235.6 347.224L1235.91 347.432Z" fill="black"/>
<path d="M1431.5 675.271C1431.71 678.82 1431.71 682.264 1431.81 685.604C1435.36 685.604 1438.81 685.291 1442.14 684.247C1442.14 680.594 1442.04 676.941 1441.83 673.184C1438.6 674.645 1435.15 675.271 1431.6 675.167L1431.5 675.271Z" fill="black"/>
<path d="M1212.84 272.075C1216.5 274.788 1220.04 277.607 1223.59 280.529C1222.86 276.667 1222.76 272.701 1224.11 269.048C1224.22 268.63 1224.53 268.213 1224.74 267.795C1221.92 265.604 1219.11 263.516 1216.29 261.324C1215.56 262.681 1214.83 264.038 1214.3 265.604C1213.57 267.795 1213.16 269.883 1212.95 272.075H1212.84Z" fill="black"/>
<path d="M1214.2 286.374C1219.42 290.654 1224.64 295.037 1229.75 299.63C1228.81 296.916 1227.77 294.202 1226.83 291.489C1225.58 287.94 1224.32 284.182 1223.59 280.425C1220.04 277.503 1216.5 274.684 1212.84 271.971C1212.32 277.085 1213.05 281.991 1214.2 286.374Z" fill="black"/>
<path d="M1421.48 684.247C1424.92 685.291 1428.37 685.604 1431.81 685.708C1431.81 682.264 1431.71 678.82 1431.5 675.375C1427.95 675.271 1424.4 674.436 1421.06 672.975C1421.27 676.836 1421.48 680.594 1421.48 684.247Z" fill="black"/>
<path d="M1233.93 272.388C1235.28 268.526 1241.23 265.813 1247.18 266.334C1254.07 266.961 1260.75 270.822 1268.79 276.459C1312 306.727 1347.48 350.147 1368.67 398.576C1369.29 400.142 1369.92 401.498 1370.65 402.96C1373.26 400.455 1376.08 398.054 1378.9 395.653C1378.69 395.236 1378.48 394.818 1378.27 394.297C1356.25 343.78 1320.03 299.421 1274.84 267.796C1266.8 262.159 1258.04 256.732 1248.22 255.793C1238.83 254.853 1228.5 259.133 1224.74 267.587C1227.77 269.987 1230.69 272.492 1233.61 274.893C1233.61 273.954 1233.61 273.014 1234.03 272.179L1233.93 272.388Z" fill="black"/>
<path d="M1450.08 641.662C1448.72 648.238 1446.11 656.901 1440.89 661.598C1441.21 665.564 1441.52 669.53 1441.73 673.392C1442.88 672.87 1444.02 672.557 1445.07 671.826C1454.15 665.877 1458.01 654.5 1460.31 643.854C1468.66 604.818 1455.09 568.601 1419.39 487.815C1415.74 488.442 1412.3 489.277 1409.06 490.32C1444.75 571.106 1457.8 605.445 1449.97 641.558L1450.08 641.662Z" fill="black"/>
<path d="M1170.47 357.975C1157 358.601 1139.57 363.402 1139.05 376.866C1138.64 386.991 1148.55 393.984 1157.32 398.994C1196.14 421.225 1234.87 443.457 1267.53 472.473C1247.49 493.034 1230.59 516.623 1217.64 542.299C1213.78 550.023 1210.13 558.79 1212.63 567.14C1215.77 577.368 1226.93 582.587 1237.37 584.988C1266.8 591.668 1299.16 583.318 1326.4 570.584C1315.02 599.6 1310.95 631.434 1314.6 662.329C1315.65 671.305 1317.94 681.116 1325.46 686.022C1337.25 693.85 1352.91 684.456 1362.3 674.019C1381.92 652.204 1393.82 623.502 1399.88 600.435C1396.85 618.179 1394.03 637.175 1401.23 653.666C1404.99 662.224 1412.5 669.322 1421.06 672.87C1420.85 668.696 1420.44 664.521 1420.02 660.346C1416.05 657.528 1412.61 653.77 1410.83 649.491C1405.2 636.548 1407.08 620.997 1410 603.462C1409.16 600.122 1408.33 596.782 1407.49 593.546C1406.03 591.981 1404.26 590.728 1402.07 590.206C1396.74 588.954 1391.21 592.398 1389.75 597.721C1385.58 613.586 1375.45 643.646 1354.47 666.921C1347.48 674.749 1336.84 681.012 1331.1 677.15C1327.96 675.062 1325.88 669.844 1324.94 660.972C1321.49 631.643 1325.35 601.688 1336.1 574.237C1337.67 570.271 1336.63 565.783 1333.5 562.861C1331.51 560.982 1328.9 560.042 1326.4 560.042C1324.94 560.042 1323.37 560.356 1322.01 560.982C1300.72 570.897 1269.2 581.439 1239.77 574.655C1235.28 573.611 1224.74 570.48 1222.65 564.009C1221.3 559.312 1223.91 552.945 1227.04 546.891C1239.46 522.259 1255.63 499.61 1275.05 479.675C1277.03 477.587 1278.07 474.873 1277.97 472.055C1277.97 469.237 1276.61 466.524 1274.53 464.645C1240.92 434.794 1201.05 411.936 1162.54 389.913C1153.77 384.903 1149.39 380.624 1149.49 377.284C1149.7 372.378 1160.55 368.934 1170.99 368.412C1198.02 367.16 1224.74 367.368 1250.42 369.247C1253.97 369.456 1257.3 367.89 1259.5 365.072C1261.58 362.254 1262.21 358.497 1260.96 355.261L1246.55 315.599C1241.02 310.172 1235.39 304.849 1229.65 299.63C1236.85 319.357 1243.95 339.083 1251.15 358.81C1224.32 356.931 1197.4 356.722 1170.47 357.975Z" fill="black"/>
<path d="M1236.53 288.044C1234.86 283.243 1233.4 278.755 1233.51 275.102C1230.59 272.597 1227.56 270.196 1224.64 267.796C1224.43 268.213 1224.22 268.527 1224.01 269.048C1222.76 272.806 1222.76 276.668 1223.49 280.529C1228.6 284.704 1233.61 289.193 1238.52 293.576L1236.53 288.044Z" fill="black"/>
<path d="M1439.43 663.06C1436.61 664.834 1433.59 665.147 1430.87 664.834C1431.19 668.383 1431.39 671.827 1431.6 675.271C1435.15 675.376 1438.6 674.75 1441.83 673.288C1441.62 669.427 1441.31 665.46 1441 661.494C1440.48 662.016 1440.06 662.642 1439.43 662.955V663.06Z" fill="black"/>
<path d="M1427.43 664.208C1424.82 663.477 1422.42 662.016 1420.02 660.346C1420.44 664.625 1420.85 668.8 1421.06 672.871C1424.51 674.332 1428.06 675.167 1431.5 675.271C1431.29 671.827 1431.08 668.382 1430.77 664.834C1429.52 664.729 1428.37 664.521 1427.32 664.208H1427.43Z" fill="black"/>
<path d="M1229.75 299.63C1235.49 304.744 1241.13 310.171 1246.66 315.599L1238.62 293.576C1233.72 289.088 1228.71 284.704 1223.59 280.529C1224.22 284.287 1225.58 287.94 1226.83 291.593C1227.77 294.307 1228.81 297.02 1229.75 299.734V299.63Z" fill="black"/>
<path d="M1407.49 593.546C1408.33 596.886 1409.16 600.121 1410 603.461C1410 603.044 1410.1 602.626 1410.21 602.209C1410.73 598.973 1409.58 595.842 1407.49 593.546Z" fill="black"/>
<path d="M1391.53 398.889C1423.57 374.883 1464.48 362.567 1504.77 366.325C1539 391.687 1545.68 447.006 1510.82 487.711C1487.23 480.405 1454.15 473.725 1425.86 476.439C1427.43 479.883 1428.89 483.223 1430.25 486.459C1454.25 484.789 1482.95 490.008 1507.69 497.627C1511.66 498.879 1515.94 497.627 1518.65 494.496C1537.85 471.951 1546.83 444.396 1543.7 416.737C1540.98 392.836 1529.09 371.439 1510.93 357.975C1509.36 356.827 1507.59 356.2 1505.71 355.992C1463.85 352.025 1420.96 364.655 1387.14 389.182C1387.35 389.6 1387.45 389.913 1387.66 390.226C1388.92 393.149 1390.17 395.967 1391.42 398.889H1391.53Z" fill="black"/>
<path d="M1356.25 418.303C1358.34 421.434 1360.32 424.565 1362.2 427.488C1366.16 422.478 1370.44 417.572 1374.93 413.084C1373.47 409.744 1372.01 406.404 1370.55 402.96C1365.43 407.761 1360.74 412.875 1356.25 418.303Z" fill="black"/>
<path d="M1397.79 495.539C1401.23 493.451 1404.99 491.677 1409.16 490.32C1407.81 487.189 1406.35 484.058 1404.88 480.718C1400.92 482.075 1397.27 483.745 1393.82 485.728C1394.97 488.65 1396.33 491.886 1397.68 495.539H1397.79Z" fill="black"/>
<path d="M1397.79 495.54C1396.43 491.991 1395.07 488.755 1393.93 485.729C1390.8 487.503 1387.77 489.486 1385.16 491.887C1386.31 494.809 1387.56 498.045 1388.92 501.593C1390.06 501.176 1391.11 500.55 1392.15 499.61C1393.93 498.045 1395.8 496.688 1397.79 495.435V495.54Z" fill="black"/>
<path d="M1381.09 481.866C1382.03 484.058 1383.07 486.667 1384.22 489.485L1381.19 481.762L1381.09 481.866Z" fill="black"/>
<path d="M1364.39 439.073L1360.63 429.471C1361.15 428.844 1361.68 428.218 1362.2 427.488C1360.32 424.565 1358.34 421.434 1356.25 418.303C1354.89 419.973 1353.53 421.538 1352.28 423.208C1351.03 424.878 1350.51 426.757 1350.4 428.74C1352.8 432.393 1355 435.838 1357.08 439.177C1359.48 440.012 1361.99 440.012 1364.28 439.073H1364.39Z" fill="black"/>
<path d="M1385.05 491.991L1384.12 489.59C1382.97 486.668 1381.92 484.163 1380.98 481.971C1380.04 482.701 1379 483.432 1378.06 484.267C1373.78 488.129 1373.47 494.704 1377.33 498.984C1379.42 501.28 1382.24 502.428 1385.05 502.428C1386.31 502.428 1387.66 502.219 1388.81 501.697C1387.45 498.149 1386.2 494.913 1385.05 491.991Z" fill="black"/>
<path d="M1354.37 437.821C1355.2 438.447 1356.14 438.76 1357.08 439.178C1355 435.942 1352.7 432.393 1350.4 428.74C1350.19 432.185 1351.45 435.629 1354.37 437.821Z" fill="black"/>
<path d="M1383.07 405.674C1385.78 403.273 1388.6 401.081 1391.53 398.889C1390.27 395.967 1389.02 393.253 1387.77 390.226C1387.56 389.809 1387.45 389.496 1387.25 389.183C1384.32 391.27 1381.51 393.462 1378.79 395.758C1380.25 399.098 1381.71 402.438 1383.07 405.674Z" fill="black"/>
<path d="M1415.11 478.109C1416.57 481.449 1418.04 484.684 1419.39 487.815C1422.84 487.189 1426.49 486.772 1430.25 486.563C1428.79 483.223 1427.32 479.987 1425.86 476.543C1422.21 476.856 1418.66 477.482 1415.22 478.213L1415.11 478.109Z" fill="black"/>
<path d="M1409.16 490.425C1412.4 489.381 1415.84 488.546 1419.5 487.92C1418.14 484.788 1416.68 481.553 1415.22 478.213C1411.67 478.944 1408.22 479.778 1404.99 480.927C1406.45 484.267 1407.81 487.398 1409.27 490.529L1409.16 490.425Z" fill="black"/>
<path d="M1375.03 413.084C1377.64 410.474 1380.36 407.969 1383.18 405.569C1381.71 402.333 1380.36 398.993 1378.9 395.653C1376.08 397.95 1373.37 400.455 1370.65 402.959C1372.11 406.404 1373.68 409.744 1375.03 413.084Z" fill="black"/>
<path d="M1500.8 376.449C1513.01 386.469 1521.05 401.916 1523.03 419.034C1525.22 438.865 1519.59 458.696 1507.06 475.709C1488.38 470.49 1453.1 462.558 1421.48 466.524C1422.94 469.864 1424.4 473.204 1425.86 476.439C1454.15 473.621 1487.34 480.406 1510.82 487.712C1545.68 447.006 1539 391.688 1504.77 366.325C1464.48 362.463 1423.46 374.779 1391.53 398.89C1392.99 402.125 1394.45 405.465 1395.8 408.701C1425.24 385.843 1463.33 373.631 1500.8 376.554V376.449Z" fill="black"/>
<path d="M1393.93 485.832C1397.37 483.849 1401.02 482.179 1404.99 480.822C1403.63 477.691 1402.17 474.455 1400.71 471.324C1396.95 472.681 1393.4 474.247 1389.96 476.125C1391.11 478.735 1392.36 482.075 1393.93 485.832Z" fill="black"/>
<path d="M1362.2 427.488C1364.28 430.723 1366.16 433.75 1367.94 436.568C1368.25 436.255 1368.67 436.046 1368.88 435.733C1372.11 431.454 1375.66 427.383 1379.42 423.417C1377.96 419.973 1376.39 416.633 1374.93 413.084C1370.34 417.572 1366.16 422.373 1362.2 427.488Z" fill="black"/>
<path d="M1384.11 489.59C1384.43 490.321 1384.74 491.156 1385.05 491.991C1387.66 489.59 1390.69 487.607 1393.82 485.833C1392.26 482.075 1391 478.735 1389.85 476.126C1386.72 477.796 1383.8 479.779 1381.09 481.971L1384.11 489.695V489.59Z" fill="black"/>
<path d="M1364.39 439.073C1365.75 438.551 1367 437.716 1368.04 436.672C1366.27 433.75 1364.28 430.723 1362.3 427.592C1361.78 428.218 1361.26 428.844 1360.74 429.575L1364.49 439.177L1364.39 439.073Z" fill="black"/>
<path d="M1385.05 491.99C1384.74 491.155 1384.43 490.425 1384.12 489.59L1385.05 491.99Z" fill="black"/>
<path d="M1395.8 408.701C1394.45 405.57 1392.99 402.23 1391.53 398.89C1388.6 401.081 1385.78 403.273 1383.07 405.674C1384.53 409.118 1385.99 412.354 1387.45 415.694C1390.17 413.293 1392.88 410.893 1395.8 408.701Z" fill="black"/>
<path d="M1410.83 468.402C1412.3 471.742 1413.76 474.978 1415.11 478.109C1418.56 477.378 1422.11 476.856 1425.76 476.439C1424.3 473.203 1422.84 469.863 1421.38 466.523C1417.83 466.941 1414.28 467.567 1410.73 468.298L1410.83 468.402Z" fill="black"/>
<path d="M1379.52 423.417C1382.13 420.704 1384.74 418.094 1387.46 415.589C1385.99 412.249 1384.53 409.014 1383.07 405.569C1380.25 407.97 1377.54 410.475 1374.93 413.084C1376.5 416.633 1377.96 419.973 1379.42 423.417H1379.52Z" fill="black"/>
<path d="M1400.71 471.22C1402.17 474.456 1403.63 477.691 1404.99 480.718C1408.22 479.57 1411.67 478.735 1415.22 478.005C1413.86 474.873 1412.4 471.638 1410.94 468.298C1407.49 469.028 1404.05 469.968 1400.81 471.116L1400.71 471.22Z" fill="black"/>
<path d="M1024.97 402.959C1043.76 401.081 1063.17 399.202 1077.47 385.842C1091.77 372.378 1095.74 349.833 1086.87 332.298C1078.41 315.807 1058.48 304.535 1048.88 304.222C984.166 302.134 916.742 347.224 884.805 414.127C876.455 431.558 876.246 445.857 883.97 455.459C889.188 462.035 897.121 464.853 905.261 464.853C912.254 464.853 919.352 462.766 925.196 459.321C933.442 454.311 939.913 447.318 946.07 440.43C948.471 437.82 950.871 435.107 953.376 432.706C967.362 418.929 985.731 409.326 1005.04 405.569C1011.41 404.421 1018.29 403.69 1024.87 403.064L1024.97 402.959ZM946.07 425.191C943.461 427.8 940.956 430.619 938.451 433.332C932.502 439.908 926.866 446.066 919.873 450.241C911.211 455.459 898.164 456.399 892.215 448.78C885.848 440.847 889.815 427.905 894.303 418.511C923.839 356.722 985.001 314.555 1044.39 314.555C1045.85 314.555 1047.21 314.555 1048.67 314.555C1054.09 314.659 1070.69 323.322 1077.68 336.891C1084.36 350.146 1081.23 367.89 1070.38 378.119C1058.69 388.973 1041.88 390.643 1024.04 392.418C1017.15 393.044 1010.05 393.775 1003.27 395.027C981.87 399.098 961.622 409.744 946.175 424.982L946.07 425.191Z" fill="black"/>
<path d="M824.165 486.771C799.847 486.771 780.017 502.845 780.017 522.572C780.017 542.298 799.847 558.372 824.165 558.372C848.484 558.372 868.314 542.298 868.314 522.572C868.314 502.845 848.484 486.771 824.165 486.771ZM824.165 547.935C805.587 547.935 790.454 536.558 790.454 522.572C790.454 508.586 805.587 497.209 824.165 497.209C842.743 497.209 857.877 508.586 857.877 522.572C857.877 536.558 842.743 547.935 824.165 547.935Z" fill="black"/>
<path d="M1035.2 805.111C1047.48 805.111 1057.43 798.896 1057.43 791.229C1057.43 783.563 1047.48 777.348 1035.2 777.348C1022.93 777.348 1012.97 783.563 1012.97 791.229C1012.97 798.896 1022.93 805.111 1035.2 805.111Z" fill="black"/>
<path d="M1187.27 687.899C1182.05 688.63 1177.57 690.509 1174.12 692.909C1185.81 693.222 1197.5 693.431 1209.09 693.848C1205.22 689.152 1196.67 686.542 1187.27 687.899Z" fill="black"/>
<path d="M1191.24 715.351C1192.91 715.142 1194.47 714.725 1195.93 714.307C1189.15 714.098 1182.47 713.994 1175.69 713.785C1179.97 715.56 1185.39 716.186 1191.24 715.351Z" fill="black"/>
<path d="M1211.28 698.443C1211.07 696.773 1210.23 695.207 1209.09 693.746C1197.5 693.329 1185.81 693.12 1174.12 692.807C1170.05 695.625 1167.55 699.278 1167.34 703.035C1181.74 703.348 1196.04 703.766 1210.23 704.183C1211.17 702.305 1211.59 700.322 1211.28 698.338V698.443Z" fill="black"/>
<path d="M1210.13 704.287C1195.93 703.869 1181.64 703.452 1167.23 703.139C1167.23 703.661 1167.13 704.287 1167.23 704.809C1167.75 708.775 1170.99 711.906 1175.69 713.785C1182.47 713.994 1189.26 714.098 1195.93 714.307C1202.72 712.324 1207.94 708.566 1210.13 704.287Z" fill="black"/>
<path d="M806.527 754.178C818.739 754.908 829.071 749.168 829.489 741.548C829.906 733.929 820.304 727.145 808.093 726.414C795.882 725.684 785.549 731.424 785.131 739.044C784.714 746.663 794.316 753.447 806.527 754.178Z" fill="black"/>
<path d="M1010.78 663.686C998.674 665.356 989.593 672.976 990.742 680.491C991.785 688.11 1002.54 692.807 1014.64 691.137C1026.75 689.467 1035.83 681.847 1034.68 674.332C1033.64 666.713 1022.89 662.016 1010.78 663.686Z" fill="black"/>
<path d="M1082.48 492.826C1070.69 496.27 1062.97 505.038 1065.05 512.448C1067.25 519.754 1078.52 522.99 1090.31 519.441C1102.1 515.997 1109.83 507.229 1107.74 499.819C1105.55 492.513 1094.28 489.277 1082.48 492.826Z" fill="black"/>
<path d="M828.549 1322.39C826.566 1324.06 824.374 1325.52 822.078 1326.88L835.333 1330.32C833.246 1332.09 831.054 1333.56 828.862 1335.02C829.593 1336.48 830.115 1338.04 830.01 1339.82C830.01 1340.34 830.01 1342.74 829.697 1346.29C834.081 1344.1 838.36 1341.49 842.117 1338.25C846.501 1334.5 847.023 1327.92 843.265 1323.54C839.508 1319.15 832.933 1318.63 828.549 1322.39Z" fill="black"/>
<path d="M789.41 1341.28C777.408 1338.04 766.762 1330.11 759.665 1319.46C757.577 1322.39 755.177 1325 752.672 1327.5C761.126 1339.09 773.233 1347.75 786.801 1351.3C791.602 1352.55 796.508 1353.18 801.517 1353.18C803.814 1353.18 806.005 1352.86 808.301 1352.55C808.719 1347.96 808.928 1344.41 809.032 1342.11C802.457 1343.05 795.777 1342.84 789.41 1341.17V1341.28Z" fill="black"/>
<path d="M763.318 1314.04C762.17 1315.92 761.022 1317.69 759.665 1319.46C766.762 1330.11 777.408 1338.04 789.411 1341.28C795.777 1342.95 802.457 1343.16 809.032 1342.22C809.032 1340.55 809.137 1339.4 809.137 1339.3C809.241 1335.12 811.85 1331.57 815.503 1330.01C807.989 1332.72 799.743 1333.24 792.124 1331.26C782.105 1328.65 773.233 1321.66 767.597 1312.58L764.153 1311.64C763.944 1312.47 763.735 1313.31 763.318 1314.14V1314.04Z" fill="black"/>
<path d="M819.574 1329.07C819.574 1329.07 819.783 1329.07 819.887 1329.07C823.853 1329.07 827.193 1331.57 828.863 1334.91C831.159 1333.56 833.351 1331.99 835.334 1330.22L822.079 1326.77C820.096 1327.92 818.008 1328.96 815.921 1329.69C817.069 1329.28 818.321 1328.96 819.574 1328.96V1329.07Z" fill="black"/>
<path d="M771.041 1461.73C762.378 1469.56 752.463 1472.9 741.295 1472.06C695.163 1468.62 686.396 1387.31 686.709 1341.8C679.195 1338.88 672.097 1334.6 666.148 1329.07C665.105 1353.7 662.704 1487.09 739.625 1492.83C741.295 1492.94 743.07 1493.04 744.635 1493.04C759.769 1493.04 773.233 1487.72 784.922 1477.17C821.243 1444.4 828.34 1368.83 829.593 1346.19C822.809 1349.63 815.607 1351.72 808.197 1352.55C806.005 1378.85 798.073 1437.2 770.937 1461.73H771.041Z" fill="black"/>
<path d="M815.503 1329.9C815.503 1329.9 815.816 1329.9 815.92 1329.8C815.816 1329.8 815.607 1329.8 815.503 1329.9Z" fill="black"/>
<path d="M828.863 1335.02C822.809 1338.78 816.025 1341.18 809.032 1342.22C808.928 1344.52 808.719 1348.06 808.302 1352.66C815.712 1351.82 823.018 1349.73 829.698 1346.29C829.907 1342.74 830.011 1340.34 830.011 1339.82C830.011 1338.04 829.593 1336.48 828.863 1335.02Z" fill="black"/>
<path d="M819.887 1329.07C819.887 1329.07 819.678 1329.07 819.574 1329.07C818.321 1329.07 817.069 1329.38 815.921 1329.8C815.816 1329.8 815.608 1329.8 815.503 1329.9C811.85 1331.47 809.345 1335.02 809.137 1339.19C809.137 1339.19 809.137 1340.45 809.032 1342.12C816.025 1341.07 822.809 1338.67 828.863 1334.91C827.193 1331.57 823.853 1329.17 819.887 1329.07Z" fill="black"/>
<path d="M922.274 1305.69C927.284 1285.23 943.253 1267.8 963.188 1260.91C983.122 1254.02 1006.4 1257.78 1023.1 1270.72C1039.8 1283.66 1049.29 1305.27 1047.62 1326.25L1037.19 1324.58C1037.19 1324.58 1037.19 1325.21 1037.19 1325.41C1036.77 1331.15 1041.05 1336.16 1046.79 1336.69C1047.1 1336.69 1047.31 1336.69 1047.62 1336.69C1053.05 1336.69 1057.54 1332.51 1058.06 1327.08C1060.04 1302.45 1049.08 1277.61 1029.57 1262.48C1010.05 1247.34 983.331 1242.96 959.848 1251.1C936.677 1259.14 917.995 1279.59 912.15 1303.29C910.793 1308.92 914.238 1314.56 919.769 1315.92C925.301 1317.27 931.041 1313.83 932.398 1308.3C932.398 1307.98 932.607 1307.78 932.607 1307.57L922.17 1305.9L922.274 1305.69Z" fill="black"/>
<path d="M1023.1 1270.72C1006.4 1257.78 983.123 1254.02 963.188 1260.91C943.253 1267.8 927.284 1285.23 922.274 1305.69L932.711 1307.36C937.095 1290.76 950.246 1276.36 966.632 1270.72C983.227 1264.98 1002.95 1268.22 1016.73 1278.86C1030.3 1289.41 1038.33 1307.25 1037.29 1324.48L1047.73 1326.15C1049.4 1305.17 1039.9 1283.56 1023.2 1270.62L1023.1 1270.72Z" fill="black"/>
<path d="M1081.23 1343.89C1045.43 1345.98 1018.5 1366.54 1019.96 1390.86C1021.32 1413.92 1047.41 1430.73 1080.6 1430.73C1082.48 1430.73 1084.36 1430.73 1086.24 1430.52C1122.04 1428.43 1148.97 1407.87 1147.51 1383.55C1146.15 1359.23 1117.03 1341.7 1081.23 1343.89ZM1085.61 1420.19C1056.81 1421.96 1031.45 1408.18 1030.4 1390.34C1029.36 1372.49 1052.95 1356 1081.86 1354.33C1110.77 1352.76 1136.13 1366.33 1137.07 1384.18C1138.01 1402.03 1114.52 1418.52 1085.61 1420.19Z" fill="black"/>
</g>
<defs>
<clipPath id="clip0_157_247">
<rect width="1779" height="1575" fill="white" transform="translate(111 213)"/>
</clipPath>
</defs>
</svg>
