<svg width="2000" height="2000" viewBox="0 0 2000 2000" fill="none" xmlns="http://www.w3.org/2000/svg">
<path d="M1777.8 1178.43C1758.81 1152.67 1713.18 1128.02 1680.26 1150.7C1664.72 1161.42 1656.58 1179.42 1658.06 1199.88C1659.79 1223.92 1674.09 1246.47 1693.7 1256.21C1702.08 1260.4 1712.2 1256.95 1716.39 1248.57C1720.58 1240.19 1717.13 1230.08 1708.74 1225.89C1699.99 1221.57 1692.71 1209.37 1691.85 1197.41C1691.48 1191.5 1692.34 1183.36 1699.49 1178.43C1713.31 1168.94 1739.94 1183.98 1750.55 1198.4C1763.62 1216.15 1766.7 1242.04 1758.56 1264.22C1754.37 1275.57 1743.64 1295.41 1718.73 1301.08C1702.45 1304.78 1687.78 1302.19 1673.6 1293.19C1642.4 1273.22 1619.96 1224.41 1611.7 1184.72C1608.61 1169.68 1606.27 1154.39 1603.81 1138.25C1596.28 1087.95 1588.51 1035.94 1553.74 993.162C1523.28 955.689 1473.59 933.748 1413.66 931.282C1410.33 928.94 1407.37 926.475 1403.92 924.256C1398.25 920.558 1392.33 917.476 1386.28 914.641L1381.23 899.603C1393.19 904.287 1405.4 908.355 1418.1 911.436C1437.09 916.121 1466.68 921.421 1498 919.818C1518.97 918.832 1540.79 914.765 1560.89 905.396C1565.95 903.054 1569.65 898.247 1570.51 892.7C1571.37 887.153 1569.4 881.483 1565.33 877.661C1545.97 859.665 1531.55 837.6 1516.13 814.426C1500.35 790.512 1484.07 765.859 1461.87 745.027C1419.58 705.335 1374.45 685.489 1324.51 683.887L1300.46 588.848C1299.97 587.122 1299.1 585.52 1298.24 584.164C1300.58 580.466 1303.3 577.015 1304.9 572.947C1435.98 234.95 838.659 107.493 811.654 107.246C806.599 107.246 801.789 109.465 798.583 113.286C795.377 117.107 794.021 122.285 794.884 127.215C797.844 143.24 801.296 159.018 804.749 174.796C812.271 209.187 819.423 241.73 821.519 275.998C823.985 315.813 816.094 351.19 807.215 387.924C661.585 267.369 502.883 247.893 411.51 250.112H409.167C376.613 250.728 341.469 253.933 328.275 273.409C322.726 281.545 321.739 291.529 325.562 301.391C355.65 380.774 403.124 432.053 470.699 458.186C471.439 458.432 472.055 458.679 472.549 458.925C472.302 459.665 472.179 460.404 471.809 461.391C450.229 533.378 457.135 603.64 489.935 659.11C428.773 698.555 348.004 699.788 293.994 660.343C240.477 621.267 227.899 570.974 239.367 538.309C248.369 512.669 271.428 498.74 302.133 500.096C315.943 500.713 328.275 506.999 336.043 517.354C342.702 526.352 344.798 536.83 342.085 547.061C338.016 562.716 328.028 569.002 320.999 568.139C315.204 567.523 311.751 562.346 311.381 553.84C311.011 544.472 303.242 537.199 293.871 537.569C283.882 537.939 277.224 545.705 277.594 555.073C278.457 580.466 294.487 599.203 317.3 601.668C338.756 604.133 365.638 590.574 374.886 555.566C380.189 535.474 375.873 514.272 363.295 497.138C349.484 478.401 327.781 467.184 303.612 466.198C257.494 464.349 221.487 487.03 207.43 527.092C191.892 571.468 206.566 638.278 274.141 687.585C309.531 713.347 354.17 724.934 399.302 722.716C437.652 720.867 476.248 708.786 509.665 686.968C530.998 712.361 557.633 731.344 586.981 743.301L578.473 804.195C552.331 786.937 522.86 776.336 491.785 773.625C428.157 768.078 364.898 796.182 317.916 851.036C254.658 924.872 251.205 1015.84 247.876 1103.86C246.396 1142.31 244.916 1182.13 238.134 1218.99C237.024 1225.03 234.065 1231.31 230.982 1237.85C226.913 1246.6 222.227 1256.46 220.87 1268.29C220.747 1269.65 220.747 1271 220.87 1272.24C220.747 1280.5 226.543 1287.89 235.051 1289.25C241.217 1290.23 247.136 1290.6 252.808 1290.36C278.827 1289.12 300.16 1275.2 319.766 1260.77C391.78 1207.89 419.525 1146.75 444.064 1092.88C460.587 1056.64 476.125 1022.38 503.253 993.902C519.653 976.644 537.164 962.222 555.907 950.142L544.809 1008.32C532.478 1016.34 521.01 1025.46 510.652 1035.94C456.765 1090.42 450.723 1162.28 444.804 1231.81C440.981 1277.29 437.282 1320.19 421.251 1358.28C421.251 1358.4 421.251 1358.52 421.251 1358.65C420.758 1359.76 420.758 1360.99 420.511 1362.22C420.388 1363.21 420.018 1364.32 420.018 1365.3C420.018 1365.43 420.018 1365.55 420.018 1365.67C420.018 1366.54 420.511 1367.28 420.635 1368.14C420.881 1369.37 421.005 1370.48 421.498 1371.59C421.991 1372.58 422.608 1373.44 423.224 1374.3C423.841 1375.16 424.334 1376.15 425.197 1376.89C426.06 1377.75 427.17 1378.25 428.157 1378.99C428.896 1379.48 429.39 1380.1 430.253 1380.47C430.376 1380.47 430.499 1380.47 430.623 1380.47C432.596 1381.33 434.815 1381.7 437.158 1381.57C437.282 1381.57 437.528 1381.57 437.652 1381.57C461.327 1380.47 480.564 1377.63 497.704 1372.7L500.294 1389.46C516.324 1492.76 534.574 1609.99 581.186 1727.95L582.542 1731.4C602.642 1782.31 623.481 1835.07 670.833 1873.28C761.22 1946.5 891.313 1979.29 1020.42 1972.88C1139.91 1966.97 1258.53 1927.52 1344.24 1855.29C1411.19 1798.83 1429.07 1718.22 1443.38 1653.38C1485.06 1464.41 1484.32 1343.12 1483.82 1262.99C1483.58 1231.93 1483.45 1207.4 1485.8 1187.68C1486.17 1184.84 1485.55 1182.13 1484.56 1179.66C1500.1 1143.92 1504.66 1112.36 1503.92 1086.72C1502.81 1044.44 1486.91 1005.24 1458.67 971.837C1483.58 978.617 1508.86 991.19 1527.6 1014.36C1556.58 1049.99 1563.36 1095.23 1570.51 1143.18C1572.85 1159.08 1575.32 1175.6 1578.65 1191.62C1588.14 1236.74 1613.3 1294.67 1655.47 1321.67C1672.24 1332.39 1690.25 1337.32 1709.11 1336.46C1714.79 1336.21 1720.58 1335.35 1726.38 1333.99C1755.85 1327.21 1779.15 1306.01 1790.25 1275.94C1802.58 1242.78 1797.77 1205.3 1777.8 1178.31V1178.43ZM1438.69 769.927C1458.05 788.047 1472.48 809.988 1487.89 833.285C1498.87 849.926 1510.09 866.937 1523.41 882.715C1495.91 888.755 1461.87 887.646 1426.24 878.894C1350.52 860.404 1289.12 810.111 1253.35 737.384C1253.35 737.138 1253.11 736.891 1252.98 736.645C1253.23 736.521 1253.48 736.398 1253.72 736.275C1273.58 727.4 1294.54 718.031 1314.76 717.785C1359.77 716.922 1400.22 733.933 1438.69 770.05V769.927ZM665.9 897.754C660.968 893.686 655.912 889.742 650.363 886.044C649.007 882.715 647.404 879.634 646.047 877.292C635.443 859.295 622.742 843.64 608.807 829.957L619.412 754.025C635.566 757.477 652.09 759.079 668.86 758.216C672.683 757.97 676.382 757.723 680.205 757.353C728.173 752.176 759.247 736.768 785.759 712.361C791.431 721.729 797.104 731.098 802.529 740.712C788.718 741.699 775.031 744.903 761.837 751.19C716.335 772.762 675.026 821.329 666.024 897.877L665.9 897.754ZM667.01 971.714C636.552 973.193 608.191 978.986 582.789 988.971L594.133 929.68C605.725 924.626 617.809 920.312 630.51 916.86C631.62 916.49 632.976 916.12 634.086 915.751C644.444 923.147 653.816 931.775 664.174 941.39L664.544 941.76C664.914 951.375 665.654 961.359 667.01 971.714ZM809.805 686.598C815.23 680.065 820.656 673.039 826.082 665.766C852.1 711.498 891.067 747.122 942.364 761.668L944.83 810.728C942.611 811.714 941.624 812.207 941.994 812.453C941.624 812.207 940.145 811.098 937.062 807.153C915.112 778.309 880.709 753.902 843.345 744.534C832.741 724.811 821.519 705.458 809.805 686.722V686.598ZM776.387 781.637C821.766 759.942 880.092 788.047 910.18 827.615C929.786 853.501 948.406 847.091 965.67 838.216C1015.73 812.7 1057.17 815.905 1082.32 847.215C1112.9 885.304 1114.63 964.441 1063.95 1025.95C987.003 1119.39 880.462 1165.49 738.038 1167.21C738.038 1165 738.161 1162.41 738.284 1160.19C739.271 1139.6 740.75 1105.09 721.884 1052.08C666.764 897.877 713.992 811.344 776.387 781.637ZM1101.93 818.494C1082.94 799.141 1043.36 773.625 978.124 796.306L976.645 767.461C981.331 767.708 986.14 768.078 990.702 767.831C1012.28 766.722 1032.38 760.558 1049.64 749.341C1066.91 738.124 1080.6 721.976 1090.95 702.253C1103.78 737.754 1120.43 775.35 1142.37 806.537C1128.44 808.139 1114.88 812.084 1101.81 818.37L1101.93 818.494ZM1170.98 840.312C1170.98 840.312 1171.72 840.312 1172.09 840.312C1174.68 842.777 1177.15 845.489 1179.86 847.708C1205.26 868.047 1222.03 897.384 1227.58 929.557C1199.59 906.013 1167.9 895.289 1136.95 899.48C1135.1 880.373 1129.92 862.253 1121.54 846.228C1137.2 839.572 1153.47 837.6 1170.86 840.435L1170.98 840.312ZM1201.07 821.205C1183.31 806.906 1168.15 786.568 1155.2 763.517C1177.89 757.23 1201.19 754.518 1224.75 755.135C1251.51 808.139 1290.84 850.173 1338.69 878.648L1346.7 902.684C1330.42 900.342 1314.15 900.959 1298.61 904.903C1284.68 908.478 1271.97 914.641 1260.88 922.777C1253.72 882.839 1232.64 846.475 1201.07 821.082V821.205ZM1290.47 686.845C1272.22 690.913 1255.33 698.309 1240.04 705.212C1231.28 709.156 1225.36 714.58 1221.91 721.36C1194.17 720.99 1166.79 724.811 1140.03 732.823C1130.54 711.745 1122.4 690.173 1115.74 669.834C1176.04 674.025 1233.01 654.056 1272.59 615.843L1290.59 686.968L1290.47 686.845ZM837.92 167.77C836.07 159.388 834.22 150.882 832.494 142.377C932.869 152.238 1113.27 222.377 1217.22 330.482C1289.61 405.797 1311.31 490.358 1275.3 557.045C1242.87 616.953 1170.37 647.523 1094.78 633.224C1094.53 633.224 1094.16 633.224 1093.91 633.224C1092.8 633.101 1091.82 633.224 1090.71 633.224C1089.72 633.224 1088.61 633.224 1087.62 633.471C1087.25 633.471 1087.01 633.471 1086.64 633.471C1085.53 633.84 1084.67 634.58 1083.68 635.073C1083.06 635.443 1082.45 635.689 1081.95 636.059C1080.6 637.045 1079.49 638.155 1078.5 639.511C1078.13 639.88 1077.76 640.25 1077.51 640.743C1076.53 642.223 1075.91 643.948 1075.54 645.674C1075.54 646.044 1075.29 646.29 1075.17 646.537C1075.17 646.907 1074.92 647.276 1074.92 647.769C1074.92 647.769 1074.92 647.893 1074.92 648.016C1068.26 681.668 1053.34 706.814 1031.64 720.867C1011.54 733.81 985.4 737.384 957.901 730.851C845.442 703.979 812.024 564.565 824.109 474.21C827.315 449.804 833.11 426.26 838.659 403.579C848.524 363.27 858.636 321.73 855.676 274.149C853.457 237.169 845.688 201.915 838.166 167.77H837.92ZM534.944 665.15C493.511 615.35 482.29 544.719 504.24 471.375C511.268 447.708 505.473 435.628 482.783 426.876C425.32 404.565 384.381 360.435 357.869 291.529C362.062 289.187 374.393 284.873 409.783 284.257H412.373C578.966 280.066 715.595 331.221 797.843 428.232C794.884 441.668 792.171 455.474 790.198 469.773C783.046 523.27 789.582 580.836 809.435 631.005C770.962 684.996 744.45 716.059 676.629 723.455C623.481 729.249 570.088 707.43 534.821 665.15H534.944ZM478.591 970.728C447.516 1003.39 430.746 1040.13 412.989 1078.96C389.067 1131.59 364.281 1185.95 299.42 1233.65C286.102 1243.39 273.524 1251.9 260.083 1255.23C260.453 1254.24 260.947 1253.38 261.44 1252.39C265.139 1244.63 269.332 1235.63 271.181 1225.27C278.333 1186.07 279.937 1145.03 281.416 1105.33C284.622 1019.42 287.705 938.185 343.318 873.347C378.339 832.423 421.868 809.495 467.616 807.276C474.522 806.906 481.55 807.03 488.579 807.646C537.904 811.96 582.665 840.682 612.507 886.906C561.333 902.561 517.434 930.05 478.591 970.728ZM461.204 1345.7C471.809 1309.83 475.138 1271.74 478.344 1234.76C484.017 1168.32 489.319 1105.58 534.574 1059.85C576.747 1017.2 632.853 1006.47 673.176 1005.12C677.245 1023.61 682.671 1042.96 690.07 1063.42C690.686 1065.27 691.179 1066.75 691.796 1068.6C667.38 1096.95 655.912 1130.36 648.02 1159.82C627.057 1238.22 581.679 1295.78 513.118 1330.79C498.321 1338.31 482.044 1343.12 461.327 1345.7H461.204ZM1449.91 1263.36C1450.41 1342.13 1451.15 1461.08 1410.33 1646.35C1393.56 1722.41 1376.42 1784.29 1322.53 1829.65C1155.45 1970.42 855.06 1978.8 692.166 1847.15C651.72 1814.49 633.47 1768.14 614.11 1719.08L612.753 1715.63C567.375 1601.11 549.495 1485.86 533.711 1384.29L529.888 1359.88C606.588 1320.19 657.392 1255.84 680.698 1168.2C685.63 1149.83 692.043 1129.74 702.647 1111.25C705.73 1131.59 705.113 1146.75 704.62 1158.34C704.004 1171.9 703.51 1183.49 712.019 1192.36C719.418 1200 729.406 1200.87 736.311 1200.74C745.806 1200.74 755.178 1200.37 764.426 1199.88C838.29 1196.18 902.781 1180.4 958.888 1152.42C972.699 1267.43 924.977 1331.9 872.2 1343.36C849.018 1348.42 818.683 1342.25 809.805 1308.6C806.722 1296.89 806.599 1281.98 813.627 1275.07C822.752 1265.83 831.877 1270.51 837.796 1275.94C844.702 1282.22 855.43 1281.85 861.719 1274.95C868.008 1268.05 867.638 1257.32 860.732 1251.04C839.029 1231.07 809.805 1231.07 789.705 1251.04C774.784 1265.95 770.098 1290.73 777.127 1317.23C787.732 1357.04 821.519 1380.59 862.335 1378.62C867.884 1378.37 873.557 1377.63 879.352 1376.4C949.146 1361.24 1012.9 1279.26 990.579 1134.8C994.771 1132.21 998.964 1129.37 1003.16 1126.54C1052.23 1241.79 1144.22 1320.8 1284.18 1367.65C1289.24 1369.37 1295.03 1370.85 1301.45 1370.48C1307.61 1370.23 1314.15 1368.26 1320.93 1363.33C1380.86 1319.69 1421.92 1278.03 1449.79 1239.57C1449.79 1246.97 1449.79 1254.73 1449.79 1263.12L1449.91 1263.36ZM1470.14 1087.83C1472.36 1167.09 1412.3 1255.35 1299.84 1337.08C1299.84 1337.08 1298.49 1337.08 1294.91 1335.97C1161.73 1291.47 1075.42 1216.15 1031.15 1106.2C1052.36 1088.94 1072.09 1069.46 1090.21 1047.4C1117.71 1013.99 1133.62 973.316 1137.2 933.871C1168.27 927.708 1202.18 944.225 1229.19 979.849C1229.19 979.849 1229.31 979.849 1229.31 979.973C1230.67 981.822 1232.52 983.301 1234.61 984.533C1234.86 984.533 1234.98 984.534 1235.23 984.657C1235.97 985.027 1236.71 985.026 1237.45 985.273C1239.17 985.889 1240.78 986.259 1242.5 986.259C1242.87 986.259 1243.24 986.506 1243.49 986.506C1244.48 986.506 1245.46 986.136 1246.57 985.889C1246.94 985.889 1247.44 985.889 1247.81 985.643C1249.53 985.026 1251.26 984.287 1252.86 983.054C1252.86 983.054 1252.86 982.931 1252.98 982.808C1253.72 982.191 1254.34 981.329 1254.96 980.589C1255.82 979.603 1256.81 978.74 1257.3 977.754C1257.3 977.754 1257.3 977.754 1257.42 977.63C1268.52 957.045 1285.66 943.239 1307 937.815C1332.15 931.282 1360.88 936.829 1385.67 952.731C1438.57 986.875 1468.53 1034.95 1470.01 1087.95L1470.14 1087.83Z" fill="black"/>
<path d="M891.313 1633.9C881.942 1633.9 874.297 1641.3 874.297 1650.67C874.297 1665.21 867.638 1679.02 857.773 1685.55C850.744 1690.23 842.606 1690.73 833.727 1687.03C818.93 1680.87 811.901 1662.13 812.518 1646.72C812.888 1637.35 805.612 1629.46 796.364 1629.09C786.869 1628.72 779.1 1636 778.73 1645.24C777.374 1677.41 794.761 1707.49 820.779 1718.34C829.781 1722.04 838.906 1723.76 847.785 1723.27C857.896 1722.78 867.638 1719.57 876.393 1713.78C895.753 1700.96 907.837 1676.92 908.084 1650.91C908.084 1641.54 900.685 1633.9 891.313 1633.9Z" fill="black"/>
<path d="M1218.33 1608.26C1209.09 1609.62 1202.67 1618.12 1203.91 1627.37C1206.13 1642.65 1200.82 1662.13 1186.77 1669.65C1178.26 1674.21 1170.24 1674.46 1162.72 1670.51C1152.12 1664.96 1144.35 1651.9 1142.74 1637.48C1141.76 1628.23 1133.62 1621.7 1124.12 1622.44C1114.88 1623.42 1108.09 1631.81 1109.08 1641.05C1111.79 1666.81 1126.22 1689.62 1146.81 1700.47C1156.18 1705.4 1166.17 1707.61 1176.28 1707.12C1185.16 1706.63 1194.04 1704.16 1202.67 1699.6C1227.58 1686.29 1241.89 1654.73 1237.32 1622.81C1235.97 1613.56 1227.71 1607.03 1218.21 1608.39L1218.33 1608.26Z" fill="black"/>
</svg>
