<svg width="2000" height="2000" viewBox="0 0 2000 2000" fill="none" xmlns="http://www.w3.org/2000/svg">
<g clip-path="url(#clip0_157_257)">
<path d="M960.806 779.972C975.759 795.638 996.537 801.936 1017 801.936C1041.08 801.936 1064.69 793.198 1077.99 780.602C1094.21 765.173 1094.6 745.256 1078.94 728.725C1062.18 710.934 1023.22 699.834 983.944 714.24C967.181 720.38 954.667 733.212 951.283 747.775C948.607 759.347 951.991 770.762 960.727 779.972H960.806ZM987.329 723.45C1022.43 710.619 1057.22 720.065 1071.78 735.416C1110.74 776.666 1009.44 816.499 967.889 773.124C950.732 755.254 964.662 731.716 987.329 723.372V723.45Z" fill="black"/>
<path d="M1071.78 735.495C1057.22 720.144 1022.43 710.619 987.33 723.529C964.663 731.795 950.733 755.333 967.89 773.281C1009.45 816.657 1110.74 776.824 1071.78 735.574V735.495ZM970.487 752.263C972.297 744.39 980.483 736.518 990.714 732.74C1024.01 720.538 1053.99 730.929 1064.62 742.265C1072.8 750.924 1072.72 758.403 1064.38 766.354C1045.88 783.909 998.506 790.994 974.973 766.354C970.723 761.945 969.307 757.301 970.487 752.184V752.263Z" fill="black"/>
<path d="M776.011 715.894C736.58 702.117 697.78 713.847 681.252 731.874C665.905 748.642 666.613 768.558 683.062 783.752C696.206 795.875 719.266 804.14 742.798 804.14C763.733 804.14 785.14 797.528 800.251 781.311C808.909 772.022 812.057 760.529 809.223 748.957C805.603 734.472 792.932 721.798 776.089 715.894H776.011ZM793.01 774.62C752.164 818.625 650.164 780.445 688.493 738.565C702.817 722.978 737.446 712.902 772.784 725.261C795.529 733.212 809.853 756.514 793.01 774.699V774.62Z" fill="black"/>
<path d="M772.785 725.183C737.526 712.902 702.818 722.9 688.494 738.487C650.165 780.367 752.086 818.625 793.011 774.541C809.854 756.357 795.53 733.055 772.785 725.104V725.183ZM785.771 767.929C762.632 792.884 715.095 786.586 696.364 769.267C687.864 761.395 687.707 753.995 695.734 745.178C703.054 737.227 719.739 729.513 740.516 729.513C749.567 729.513 759.405 731.008 769.558 734.551C779.868 738.172 788.132 745.887 790.099 753.759C791.359 758.876 789.942 763.52 785.771 768.008V767.929Z" fill="black"/>
<path d="M752.557 686.767C772.705 686.216 788.445 670.787 788.209 649.453C788.131 629.143 771.996 613.95 751.061 614.343C730.599 614.737 715.173 630.639 715.094 651.106C715.015 670 732.173 687.318 752.557 686.767Z" fill="black"/>
<path d="M1005.98 684.956C1056.98 683.224 1053.28 610.879 1006.53 612.296C982.055 613.004 970.565 632.685 970.014 648.98C969.384 667.086 987.643 685.507 1005.9 684.956H1005.98Z" fill="black"/>
<path d="M832.362 647.957C828.506 647.799 825.2 650.948 825.121 654.884C824.02 698.575 836.612 730.851 859.515 743.446C865.968 746.989 872.737 748.72 879.663 748.642C887.769 748.642 895.954 745.965 903.51 740.927C926.255 725.655 937.195 692.986 932.63 653.467C932.158 649.61 928.695 646.855 924.838 647.248C920.982 647.721 918.149 651.184 918.621 655.042C923.186 695.268 909.727 719.672 895.639 729.119C886.352 735.338 875.649 736.046 866.362 730.929C848.496 721.089 838.344 692.749 839.288 655.121C839.367 651.184 836.297 647.957 832.362 647.878V647.957Z" fill="black"/>
<path d="M689.909 927.577C695.339 884.831 685.973 846.178 662.205 812.643C651.659 797.765 640.483 790.601 633.164 785.878C631.983 785.091 629.543 783.516 628.048 782.414C628.599 780.918 628.835 779.659 628.599 779.108C629.622 777.376 631.196 775.014 633.636 771.787C679.441 712.352 668.58 641.188 632.141 609.463C630.488 607.967 629.779 607.101 629.465 606.944C630.409 605.212 635.446 600.41 637.414 598.599C649.927 586.712 670.784 566.874 678.575 524.68C680.386 514.918 681.251 505.55 681.251 496.34C674.64 494.923 668.344 490.436 662.599 484.217C663.7 495.631 663.307 507.755 660.788 521.373C654.099 557.743 636.548 574.432 624.979 585.453C621.909 588.365 619.076 591.121 616.793 593.876C612.622 587.421 603.965 580.178 590.428 568.764C585.155 564.277 579.095 559.16 572.326 553.256C570.595 551.76 568.47 550.973 566.187 551.051C563.669 551.051 561.229 552.232 559.498 554.2C556.192 557.979 556.585 563.726 560.363 567.032C567.525 573.251 573.821 578.604 579.331 583.248C583.345 586.634 587.201 589.94 590.664 592.931C582.951 591.672 575.159 590.727 567.84 589.782C559.498 588.759 550.84 587.736 542.576 586.24C541.947 586.161 541.396 586.082 540.845 586.082C536.516 586.161 532.896 589.31 532.109 593.64C531.715 596.001 532.266 598.442 533.604 600.41C535.021 602.378 537.067 603.716 539.428 604.11C548.164 605.605 556.979 606.707 565.636 607.81C571.146 608.518 576.576 609.148 581.928 609.935C579.96 610.644 577.993 611.352 575.868 612.061C570.201 614.029 563.826 616.233 556.664 618.831C551.942 620.562 549.502 625.758 551.234 630.481C552.572 634.103 556.035 636.464 559.97 636.464C560.993 636.464 561.937 636.228 562.882 635.913C569.965 633.315 576.261 631.111 581.849 629.222C597.59 623.711 607.821 620.169 613.645 615.603C615.141 618.201 617.266 620.799 620.256 623.318C650.636 649.768 657.483 711.407 619.312 760.923C618.682 761.71 618.21 762.419 617.659 763.206C611.599 760.293 602.784 757.853 589.562 754.31C583.108 752.579 575.71 750.61 567.21 748.17C566.345 747.934 565.4 747.776 564.535 747.855C560.521 747.855 557.136 750.611 556.035 754.389C554.697 759.191 557.451 764.229 562.252 765.646C570.831 768.087 578.308 770.133 584.84 771.865C589.562 773.125 594.206 774.384 598.298 775.565C589.641 778.242 581.062 781.391 573.507 784.146C565.636 786.98 557.53 789.971 549.581 792.412C544.78 793.907 542.104 798.945 543.599 803.747C544.78 807.605 548.322 810.203 552.336 810.124C553.201 810.124 554.067 809.967 554.933 809.73C563.433 807.133 571.933 803.984 580.275 800.992C584.525 799.418 588.854 797.843 593.261 796.348C591.845 797.686 590.428 799.103 588.933 800.52C584.368 804.928 579.173 809.967 573.428 815.634C571.696 817.366 570.752 819.649 570.752 822.011C570.752 824.451 571.696 826.734 573.349 828.466C575.081 830.198 577.363 831.143 579.96 831.143C582.321 831.143 584.525 830.198 586.178 828.545C591.451 823.349 596.173 818.783 600.423 814.611L601.525 813.509C608.53 806.739 613.567 801.858 617.58 797.529C619.312 798.867 621.201 800.126 623.168 801.465C629.701 805.637 638.673 811.462 647.252 823.507C668.58 853.657 676.608 887.035 671.728 925.687C671.099 930.489 670.075 935.291 668.895 939.936L687.626 939.778C688.492 935.921 689.2 931.985 689.751 927.97L689.909 927.577Z" fill="black"/>
<path d="M501.73 940.33C505.508 930.489 511.253 915.69 510.702 893.726C509.679 852.398 482.291 806.424 444.12 781.863C435.043 775.985 432.078 770.291 435.226 764.78C439.791 756.83 446.717 744.785 451.439 724.396C459.703 688.499 451.675 655.358 428.222 628.435C429.087 627.096 429.717 625.758 430.11 624.341C430.583 622.531 430.74 620.641 430.425 618.595C434.282 614.895 439.476 609.935 444.749 602.929C463.481 578.132 484.809 534.992 480.008 469.89C478.985 455.72 474.342 444.856 470.957 436.984C469.856 434.465 467.337 428.561 467.337 427.616C467.337 427.616 468.124 426.593 471.823 425.254C496.3 416.044 519.36 398.174 538.406 377.392C529.513 379.832 519.596 381.407 508.577 381.249C495.198 392.979 480.559 402.661 465.527 408.251C464.504 408.644 463.481 409.117 462.3 409.589C458.286 402.819 451.203 394.317 439.948 381.092C434.911 375.109 429.087 368.26 422.555 360.388C420.745 358.262 418.148 357.003 415.393 357.082C413.347 357.082 411.379 357.869 409.805 359.128C407.916 360.703 406.814 362.828 406.578 365.269C406.342 367.709 407.05 369.992 408.624 371.881C415.393 380.147 421.453 387.232 426.726 393.372C431.055 398.489 435.541 403.763 439.319 408.408C430.11 405.023 420.981 402.11 412.796 399.513C404.375 396.836 394.773 393.845 385.722 390.46C384.62 390.066 383.518 389.83 382.416 389.909C378.717 389.909 375.333 392.349 374.074 395.813C373.208 398.096 373.287 400.536 374.31 402.74C375.333 404.944 377.143 406.597 379.347 407.463C388.555 410.927 397.921 413.84 407.287 416.831C414.212 419.035 421.453 421.318 428.615 423.916C425.388 424.467 421.925 424.94 418.462 425.491C412.009 426.435 404.689 427.616 396.504 428.954C394.064 429.348 392.018 430.686 390.601 432.654C389.185 434.622 388.634 436.984 389.027 439.424C389.736 443.833 393.513 447.06 398.078 447.06C398.55 447.06 398.944 447.06 399.495 446.903C407.129 445.643 413.976 444.62 420.115 443.675L421.217 443.518C435.541 441.314 445.064 439.818 451.833 437.692C452.541 439.739 453.407 441.865 454.351 444.148C457.42 451.233 461.119 460.049 461.985 471.307C466.314 530.741 447.189 569.787 430.347 592.065C427.198 596.238 424.05 599.544 421.374 602.299C416.731 596.946 410.435 590.57 401.148 581.359C395.638 575.849 389.342 569.551 382.259 562.309C380.527 560.498 378.088 559.553 375.569 559.553C373.287 559.553 371.083 560.498 369.43 562.151C367.699 563.804 366.754 566.087 366.676 568.528C366.676 570.968 367.541 573.251 369.273 574.983C376.671 582.619 383.282 589.153 389.106 594.978C394.064 599.938 398.787 604.661 402.722 608.754C393.277 606.157 383.754 604.11 374.94 602.142C365.967 600.174 356.602 598.127 347.708 595.687C346.843 595.45 345.977 595.372 345.111 595.372C341.176 595.372 337.634 598.206 336.532 602.063C335.194 606.865 338.028 611.903 342.907 613.242C352.509 615.918 362.111 617.965 371.477 620.012C378.481 621.586 385.801 623.16 393.12 625.05C389.893 625.837 386.43 626.703 382.967 627.569C376.592 629.143 369.43 630.875 361.403 633.001C359.041 633.63 357.074 635.126 355.893 637.173C354.634 639.298 354.319 641.739 354.949 644.022C355.972 648.036 359.592 650.87 363.921 650.792C364.629 650.792 365.338 650.713 365.967 650.477C373.916 648.43 381.078 646.619 387.296 645.124C398.078 642.447 406.421 640.4 412.717 638.275C412.953 638.59 413.268 638.983 413.583 639.377C434.124 662.285 440.971 689.523 433.809 720.46C429.717 738.251 423.814 748.406 419.564 755.885C418.226 758.168 417.203 760.293 416.337 762.261C409.648 760.451 400.754 759.349 387.453 757.696L386.273 757.538C379.347 756.672 371.477 755.728 362.583 754.468C362.111 754.468 361.639 754.389 361.166 754.389C356.68 754.468 352.981 757.774 352.352 762.183C352.037 764.544 352.588 766.985 354.083 768.874C355.5 770.842 357.625 772.023 360.065 772.416C368.958 773.676 376.75 774.621 383.676 775.487L385.25 775.723C391.152 776.431 397.606 777.219 403.037 778.084C392.726 782.886 382.652 788.24 374.231 792.727C365.81 797.214 357.074 801.937 348.417 805.952C346.213 806.975 344.56 808.786 343.773 811.069C342.986 813.352 343.065 815.792 344.088 817.996C345.583 821.145 348.81 823.192 352.509 823.192C353.768 823.192 354.949 822.877 356.129 822.326C365.18 818.075 374.074 813.273 382.731 808.628C388.083 805.794 393.513 802.882 399.023 800.126C396.898 802.803 394.694 805.558 392.333 808.471C387.847 813.981 382.81 820.279 377.222 827.364C374.153 831.3 374.782 836.968 378.717 840.117C380.37 841.377 382.338 842.085 384.541 842.085C387.296 842.085 389.814 840.747 391.467 838.621C396.504 832.166 401.148 826.498 405.24 821.381L406.657 819.571C416.888 806.818 423.263 798.867 427.277 792.333C429.323 793.907 431.606 795.482 434.282 797.214C467.652 818.783 491.656 858.695 492.522 894.277C492.994 912.62 488.193 924.9 484.73 933.874C483.865 936.157 482.92 938.598 482.133 941.117L501.416 940.959C501.416 940.959 501.573 940.644 501.652 940.408L501.73 940.33Z" fill="black"/>
<path d="M842.751 190.033C827.483 211.839 804.659 229.473 779.395 240.021C778.766 241.202 778.057 242.462 777.428 243.643C787.03 242.54 799.307 241.675 811.585 243.643C837.242 227.347 858.571 204.439 870.14 178.697C870.77 177.28 871.242 175.863 871.872 173.974C872.108 173.108 872.422 172.242 872.816 171.455C873.131 170.825 873.918 169.723 875.098 169.644V167.676L875.256 169.644C876.2 169.644 877.223 170.274 878.089 171.376C878.876 172.4 880.135 175.155 881.237 177.595C887.927 192.395 900.283 219.869 951.834 248.681C966.158 256.632 981.899 261.985 1000.08 264.897C1007.53 266.104 1010.91 271.274 1010.23 280.406C1009.37 291.505 1008.11 308.352 1014.95 331.023C1029.83 380.854 1066.27 399.039 1086.57 409.194C1089.25 410.532 1091.61 411.713 1093.5 412.815C1094.68 413.524 1094.92 413.76 1094.92 413.76C1094.92 413.839 1094.92 414.232 1094.6 415.098C1092.79 420.609 1090.51 425.962 1087.99 431.079C1066.66 473.509 1069.65 543.178 1111.37 586.475C1114.67 589.939 1118.29 592.773 1121.44 595.292C1123.33 596.787 1128.37 600.802 1128.92 601.511C1128.92 601.511 1128.6 602.534 1126.4 604.738C1110.66 619.932 1101.21 637.565 1098.22 657.088C1088.93 717.861 1112.39 748.09 1126.32 766.196C1128.84 769.424 1134.03 776.194 1134.19 777.611C1134.19 777.611 1133.72 778.634 1130.65 780.602C1077.29 814.531 1065.09 882.547 1075.79 936.55L1094.29 936.392C1083.58 887.978 1093.18 826.025 1140.41 795.953C1141.98 794.93 1143.48 793.827 1144.89 792.568C1149.3 797.212 1155.2 802.723 1162.13 809.257C1166.61 813.508 1171.81 818.31 1177.48 823.742C1179.21 825.395 1181.41 826.261 1183.93 826.261C1186.37 826.261 1188.65 825.237 1190.3 823.427C1191.96 821.695 1192.9 819.412 1192.82 816.971C1192.82 814.531 1191.8 812.327 1189.99 810.595C1184.09 804.927 1178.89 800.046 1174.17 795.717C1172.68 794.3 1171.26 792.961 1169.76 791.623C1174.17 793.04 1178.58 794.615 1182.91 796.11C1191.17 798.944 1199.67 801.936 1208.33 804.455C1209.19 804.691 1210.06 804.848 1211 804.848C1215.02 804.848 1218.4 802.172 1219.58 798.315C1221 793.513 1218.17 788.474 1213.36 787.057C1205.1 784.696 1196.36 781.626 1188.73 778.949C1181.25 776.351 1172.91 773.439 1164.41 770.998C1168.5 769.739 1173.07 768.4 1177.79 767.062C1184.32 765.252 1191.8 763.047 1200.3 760.528C1202.58 759.82 1204.55 758.245 1205.65 756.12C1206.83 753.994 1207.07 751.554 1206.36 749.192C1205.18 745.335 1201.56 742.658 1197.55 742.737C1196.68 742.737 1195.89 742.895 1195.11 743.131C1186.68 745.65 1179.29 747.775 1172.91 749.586C1159.85 753.286 1150.17 756.041 1143.87 759.426C1142.85 758.088 1141.74 756.671 1140.64 755.175C1127.66 738.407 1107.98 712.98 1116.09 659.922C1118.45 644.414 1126.16 630.323 1138.91 617.885C1141.67 615.208 1143.71 612.532 1145.05 609.776C1150.64 615.051 1161.26 618.593 1178.66 624.34C1184.24 626.229 1190.62 628.276 1197.7 630.795C1198.65 631.11 1199.67 631.267 1200.85 631.267C1204.63 631.267 1208.01 628.748 1209.27 625.127C1210.92 620.404 1208.41 615.208 1203.68 613.555C1196.44 611.036 1190.07 608.91 1184.4 607.021C1182.36 606.313 1180.31 605.683 1178.34 604.974C1183.69 604.108 1189.28 603.321 1195.42 602.455C1203.76 601.275 1212.34 600.094 1220.84 598.519C1223.2 598.047 1225.25 596.709 1226.67 594.741C1228 592.773 1228.55 590.332 1228.08 587.971C1227.22 583.641 1223.44 580.492 1219.03 580.571C1218.48 580.571 1218.01 580.571 1217.46 580.728C1209.04 582.303 1200.14 583.562 1192.19 584.664C1184.56 585.688 1177 586.79 1169.37 588.128C1172.75 585.058 1176.61 581.752 1180.55 578.288C1185.98 573.565 1192.19 568.133 1199.28 561.835C1202.98 558.529 1203.29 552.782 1199.99 549.003C1198.25 547.035 1195.66 545.933 1193.06 546.012C1190.86 546.012 1188.81 546.878 1187.16 548.295C1180.15 554.593 1174.01 559.946 1168.66 564.59C1155.05 576.477 1146.62 583.798 1142.77 590.332C1139.93 586.79 1136.24 583.798 1132.85 581.122C1130.25 579.075 1127.11 576.556 1124.51 573.879C1088.31 536.408 1085.79 476.029 1104.28 439.266C1106.33 435.172 1108.22 430.842 1110.03 425.962C1115.69 428.402 1123.01 430.842 1133.01 434.227L1134.27 434.621C1139.54 436.353 1145.52 438.321 1152.13 440.604C1153.08 440.919 1154.1 441.076 1155.28 441.076C1159.06 441.076 1162.44 438.557 1163.7 434.936C1164.49 432.653 1164.33 430.213 1163.31 428.008C1162.29 425.804 1160.4 424.23 1158.11 423.443C1150.95 420.923 1144.5 418.798 1138.68 416.909C1136.63 416.279 1134.66 415.57 1132.77 414.941C1138.12 414.075 1143.55 413.287 1149.3 412.5C1157.8 411.319 1166.54 410.139 1175.19 408.485C1177.55 408.013 1179.6 406.675 1181.02 404.707C1182.36 402.739 1182.91 400.298 1182.43 397.937C1181.65 393.607 1177.71 390.458 1173.38 390.537C1172.91 390.537 1172.36 390.537 1171.89 390.694C1163.47 392.269 1154.49 393.528 1146.62 394.63C1138.99 395.654 1131.43 396.756 1123.88 398.094C1127.26 395.024 1131.12 391.639 1135.05 388.254C1140.49 383.531 1146.7 378.099 1153.71 371.801C1157.41 368.495 1157.72 362.748 1154.42 358.97C1152.68 357.002 1150.09 355.899 1147.49 355.978C1145.29 355.978 1143.24 356.844 1141.59 358.261C1134.66 364.48 1128.52 369.833 1123.09 374.556C1112.23 384.003 1104.99 390.38 1100.5 395.811C1098.69 394.788 1096.57 393.765 1094.29 392.584C1075.95 383.373 1045.33 368.023 1032.66 325.749C1026.84 306.305 1027.86 292.056 1028.65 281.665C1029.75 266.787 1030.93 251.436 1003.31 246.949C987.25 244.351 973.399 239.785 961.042 232.858C936.802 219.318 919.487 204.833 908.232 188.695C926.019 198.299 946.167 203.337 965.764 202.944C978.2 202.707 989.926 200.267 1000.47 195.859C1001.5 195.386 1002.75 194.756 1004.09 194.127C1006.06 193.103 1008.58 191.765 1010.39 191.765C1010.55 191.765 1010.7 191.765 1010.78 191.765C1012.28 194.599 1013.38 197.905 1014.48 200.975C1028.49 241.753 1071.7 269.621 1119.63 268.676C1131.83 268.44 1144.26 266.393 1156.46 262.536C1158.04 262.063 1159.53 261.749 1160.71 261.749C1162.05 261.749 1162.52 261.985 1162.68 262.063C1163.07 262.378 1163.62 263.638 1163.78 265.685C1167.09 316.775 1197.7 353.066 1227.22 381.878C1240.6 394.945 1259.17 411.005 1284.35 419.428C1287.82 420.609 1288.68 421.632 1288.76 421.632C1288.76 421.632 1288.76 422.813 1287.98 424.387C1267.51 467.763 1272.08 521.687 1300.8 576.32C1307.97 590.017 1316.62 600.566 1328.74 610.406C1329.29 610.879 1329.77 611.272 1330.32 611.744C1330.08 613.791 1330.32 615.602 1330.79 617.334C1331.1 618.278 1331.42 619.223 1331.97 620.168C1331.03 621.427 1329.92 622.687 1328.9 623.946C1320.09 634.574 1305.29 652.443 1305.37 689.049C1305.45 723.135 1318.59 744.784 1325.67 756.435C1326.7 758.088 1327.56 759.583 1328.19 760.764C1329.98 764.123 1327.3 768.4 1320.16 773.596C1315.76 776.824 1310.25 780.838 1303.95 786.191C1256.65 826.497 1240.28 886.089 1262.87 935.054L1282.23 934.896C1281.6 932.928 1280.81 930.803 1279.79 928.599C1259.88 886.876 1274.36 835.235 1315.76 799.968C1321.66 794.93 1326.93 791.151 1331.1 788.081C1332.84 786.821 1334.41 785.64 1335.98 784.46C1340.08 791.072 1346.77 799.18 1357.55 812.169C1362.11 817.68 1367.31 823.899 1373.05 830.984C1374.78 833.109 1377.38 834.369 1380.22 834.369C1382.26 834.369 1384.23 833.582 1385.8 832.322C1389.66 829.173 1390.29 823.427 1387.14 819.569C1381.87 813.114 1377.07 807.368 1372.82 802.251C1372.82 802.251 1366.99 795.244 1364.87 792.647C1370.38 795.323 1375.89 798.157 1381.24 800.912C1389.5 805.163 1398.87 809.965 1408.08 814.138C1409.26 814.689 1410.59 814.925 1412.01 814.925C1415.47 814.925 1418.7 812.799 1420.12 809.572C1421.14 807.368 1421.22 804.927 1420.35 802.644C1419.49 800.361 1417.84 798.551 1415.63 797.606C1406.9 793.67 1398.08 789.104 1389.58 784.774C1380.69 780.209 1370.77 775.092 1360.62 770.605C1366.05 769.66 1372.5 768.794 1378.33 767.928C1385.57 766.905 1393.91 765.724 1403.43 764.228C1405.79 763.835 1407.92 762.575 1409.34 760.607C1410.75 758.639 1411.3 756.277 1410.99 753.837C1410.28 749.35 1406.34 746.122 1401.86 746.201H1400.6C1391.55 747.697 1383.52 748.877 1375.73 749.98C1361.8 751.948 1352.43 753.286 1345.66 755.411C1345.27 754.388 1344.8 753.365 1344.25 752.341C1343.46 750.924 1342.44 749.192 1341.18 747.146C1335.04 736.99 1323.63 718.176 1323.55 689.128C1323.47 659.056 1334.72 645.595 1342.91 635.676C1344.33 633.944 1345.66 632.212 1346.92 630.559C1353.22 632.684 1361.56 634.652 1374.08 637.565L1375.18 637.801C1381.16 639.218 1388.01 640.714 1395.56 642.603C1396.27 642.761 1397.06 642.84 1397.84 642.84C1401.94 642.761 1405.48 639.927 1406.5 635.912C1407.05 633.55 1406.74 631.11 1405.4 629.063C1404.14 627.016 1402.17 625.521 1399.81 624.97C1392.18 623.08 1385.33 621.585 1379.27 620.168C1379.27 620.168 1371.16 618.278 1367.94 617.491C1375.26 615.523 1382.58 613.713 1389.58 612.059C1398.4 610.013 1408.39 607.572 1418.07 604.817C1422.87 603.4 1425.63 598.362 1424.21 593.56C1423.03 589.624 1419.41 586.947 1415.32 587.026C1414.53 587.026 1413.74 587.183 1412.96 587.42C1403.9 590.017 1394.54 592.3 1385.41 594.426C1377.38 596.315 1367.78 598.598 1358.1 601.353C1362.19 596.945 1367.07 591.907 1372.11 586.711C1377.62 581.043 1383.91 574.509 1391 567.031C1394.46 563.409 1394.3 557.663 1390.6 554.199C1388.87 552.546 1386.59 551.68 1384.23 551.759C1381.79 551.759 1379.51 552.782 1377.78 554.593C1370.53 562.229 1364.16 568.841 1358.65 574.509C1349.91 583.483 1343.62 590.017 1339.13 595.528C1329.53 587.498 1322.84 579.154 1317.02 568.054C1301.98 539.399 1280.34 483.665 1304.58 432.259C1304.82 431.787 1304.98 431.315 1305.21 430.842C1312.06 433.125 1321.66 434.464 1337.09 436.589C1343.46 437.455 1350.7 438.478 1358.89 439.659C1359.36 439.659 1359.83 439.738 1360.38 439.738C1364.79 439.659 1368.49 436.353 1369.2 432.023C1369.59 429.662 1368.96 427.221 1367.54 425.332C1366.13 423.364 1364 422.104 1361.56 421.789C1353.85 420.609 1346.92 419.664 1340.78 418.877C1340.78 418.877 1332.68 417.775 1329.37 417.302C1336.69 414.547 1344.01 412.107 1350.54 409.902C1359.12 407.068 1368.88 403.762 1378.33 400.062C1382.97 398.252 1385.25 392.977 1383.44 388.333C1382.03 384.79 1378.56 382.507 1374.78 382.586C1373.68 382.586 1372.66 382.822 1371.64 383.216C1362.82 386.68 1353.61 389.75 1344.72 392.741C1335.43 395.811 1326.78 398.724 1318.35 402.03C1322.05 397.307 1326.38 392.033 1330.71 386.837C1335.83 380.618 1341.81 373.376 1348.42 365.031C1349.91 363.142 1350.62 360.78 1350.31 358.34C1350.07 355.899 1348.81 353.774 1346.92 352.278C1345.27 350.94 1343.22 350.232 1341.1 350.31C1338.42 350.31 1335.91 351.648 1334.17 353.695C1327.72 361.725 1322.05 368.652 1316.62 375.344C1305.37 389.041 1298.44 397.543 1294.66 404.471C1293.25 403.762 1291.75 403.132 1290.26 402.581C1268.77 395.339 1252.79 381.72 1240.04 369.282C1213.44 343.383 1185.98 311.028 1182.2 267.338C1188.57 268.046 1196.68 268.282 1207.7 268.597C1214.15 268.755 1221.47 268.991 1230.21 269.385C1235.01 269.306 1238.86 265.448 1239.1 260.725C1239.34 255.766 1235.4 251.515 1230.44 251.279C1222.18 250.964 1214.78 250.728 1208.25 250.491C1204.71 250.413 1201.24 250.255 1197.94 250.176C1204.94 246.713 1212.03 243.406 1218.32 240.572C1227.06 236.558 1236.03 232.464 1244.85 227.898C1249.25 225.615 1250.98 220.105 1248.7 215.696C1247.13 212.626 1243.98 210.737 1240.44 210.816C1239.02 210.816 1237.68 211.209 1236.42 211.839C1228.16 216.169 1219.42 220.105 1210.69 224.12C1201.72 228.213 1193.45 231.992 1185.42 236.164C1188.49 231.283 1192.19 225.615 1196.05 219.711C1200.46 212.941 1205.65 205.148 1211.4 196.173C1214.07 191.923 1212.81 186.333 1208.64 183.657C1207.15 182.712 1205.42 182.161 1203.61 182.24C1200.54 182.24 1197.78 183.893 1196.13 186.412C1190.78 194.835 1185.98 202.156 1181.73 208.533L1180.94 209.714C1169.76 226.717 1163.47 236.479 1161.03 244.194C1160.71 244.194 1160.32 244.194 1159.93 244.194C1157.01 244.194 1154.1 244.745 1151.11 245.689C1140.56 248.996 1129.86 250.806 1119.31 251.042C1079.18 251.83 1043.21 229 1031.72 195.622C1031.01 193.576 1030.22 191.529 1029.36 189.403C1035.42 188.774 1042.89 187.593 1052.97 185.94C1059.34 184.916 1066.5 183.735 1074.69 182.476C1077.05 182.082 1079.18 180.823 1080.67 178.933C1082.09 176.965 1082.72 174.604 1082.32 172.163C1081.62 167.676 1077.68 164.37 1073.19 164.449H1072.01C1063.83 165.787 1056.51 166.968 1050.06 168.07C1046.59 168.621 1043.13 169.172 1039.9 169.723C1046.04 165.078 1052.18 160.591 1058.16 156.34C1065.95 150.751 1073.98 145.004 1081.69 138.864C1083.58 137.368 1084.76 135.243 1085.08 132.803C1085.39 130.362 1084.68 128.001 1083.19 126.111C1081.38 123.907 1078.78 122.648 1075.87 122.648C1073.9 122.648 1072.01 123.356 1070.44 124.616C1062.96 130.598 1054.78 136.424 1047.54 141.619C1039.51 147.366 1032.19 152.64 1025.03 158.23C1027.07 152.877 1029.67 146.658 1032.35 140.045C1035.42 132.566 1038.96 123.907 1042.89 113.988C1044.7 109.344 1042.42 104.069 1037.78 102.259C1036.68 101.786 1035.5 101.629 1034.24 101.629C1030.54 101.629 1027.31 103.912 1025.97 107.376C1022.12 117.137 1018.65 125.56 1015.5 133.196C1006.77 154.53 1001.65 166.81 1002.52 175.627C1000.08 176.493 997.875 177.595 995.436 178.855C994.727 179.248 994.019 179.563 993.468 179.799C985.44 183.184 975.838 185.074 965.607 185.31C941.366 185.782 916.968 176.808 898.631 160.749C888.95 152.247 883.284 148.232 876.987 148.311C871.006 148.39 865.339 152.326 855.58 160.513C839.918 173.738 821.502 182.24 802.534 185.389C801.59 191.293 799.701 197.669 797.182 204.282C812.844 202.865 828.506 198.299 843.145 190.584L842.751 190.033Z" fill="black"/>
<path d="M519.438 371.014C511.568 371.802 503.147 371.644 494.096 369.912C481.739 367.472 476.466 357.238 480.795 344.8C491.656 313.469 561.23 279.461 563.354 277.965C565.873 276.155 563.197 273.793 560.6 272.14C548.48 264.661 538.012 254.9 527.072 245.768C519.359 239.313 506.924 225.694 502.438 212.233C498.188 199.716 504.721 188.931 516.447 188.065C544.308 186.019 572.878 199.795 597.118 214.516C619.785 228.292 583.03 143.273 609.081 116.508C623.326 101.865 638.359 119.499 644.812 133.826C663.701 175.864 657.641 178.776 661.104 178.304C662.757 178.068 661.104 174.447 679.127 144.296C698.881 111.076 722.728 123.907 722.02 159.726C721.39 191.687 716.59 199.559 719.58 200.189C720.052 198.929 720.525 197.669 720.997 196.41C722.02 193.576 722.965 190.978 724.066 188.616C727.136 181.925 731.228 177.753 736.501 176.021C738.154 175.47 739.807 175.234 741.538 175.155C742.64 175.155 743.821 175.234 745.001 175.47C756.492 165.866 769.872 157.6 780.497 159.49C793.01 161.772 794.978 172.479 792.066 185.94C795.529 185.704 798.913 185.389 802.297 184.759C803.635 176.493 803.32 169.094 800.408 162.953C798.047 157.994 793.01 151.696 782.228 149.728C768.534 147.288 751.77 155.317 731.307 174.368C731.622 170.117 731.858 165.315 731.937 159.883C732.33 136.896 723.752 120.129 709.428 116.035C703.053 114.225 686.446 112.808 670.706 139.179C667.715 144.218 665.196 148.626 663.15 152.326C660.946 146.343 657.956 138.864 653.863 129.654C651.187 123.75 641.271 104.306 624.507 101.314C618.84 100.37 610.34 100.921 602.076 109.423C584.526 127.45 589.405 162.402 593.026 187.908C593.655 192.159 594.285 197.197 594.757 201.448C573.586 189.246 544.623 175.942 515.818 178.068C507.475 178.698 500.156 182.87 495.748 189.482C491.026 196.646 490.082 206.014 493.151 215.224C498.66 231.52 513.142 246.792 520.855 253.168C523.137 255.136 525.42 257.026 527.702 258.994C534.077 264.425 540.609 270.093 547.693 275.131C504.012 299.378 478.434 321.656 471.587 341.336C468.438 350.389 468.989 359.285 473.003 366.37C476.86 373.061 483.707 377.706 492.286 379.359C498.031 380.461 503.461 380.933 508.734 381.012C512.434 377.784 516.054 374.321 519.517 370.857L519.438 371.014Z" fill="black"/>
<path d="M829.372 259.86C845.112 268.992 847.08 286.861 819.298 304.023C800.96 315.359 790.335 317.248 758.775 326.773C749.567 329.528 791.201 350.468 811.191 398.882C830.71 446.351 768.141 432.89 717.456 391.876C714.701 389.672 711.868 387.467 708.956 385.342C706.359 387.94 703.447 390.38 700.535 392.742C701.558 396.599 702.738 400.063 702.974 401.322C706.831 422.42 712.183 458.632 699.826 477.21C693.845 486.263 687.391 488.231 680.938 485.791C681.174 489.176 681.252 492.639 681.252 496.103C681.41 496.103 681.646 496.261 681.803 496.261C683.062 496.497 684.479 496.654 685.896 496.654C692.428 496.654 700.613 493.742 707.933 482.642C721.706 461.859 717.377 426.198 712.734 400.693C747.442 428.245 794.664 448.87 815.52 433.362C821.344 429.032 829.686 418.248 820.163 395.025C807.492 364.166 786.4 343.698 774.279 332.284C774.752 332.126 775.224 331.969 775.696 331.89C797.182 325.592 807.964 322.443 824.335 312.288C846.214 298.827 850.622 285.287 850.543 276.313C850.385 266.315 844.483 257.183 834.173 251.279C827.011 247.107 819.219 244.824 811.427 243.564C806.469 246.713 801.353 249.626 796.159 252.224C807.256 252.224 819.062 253.877 829.293 259.781L829.372 259.86Z" fill="black"/>
<path d="M779.396 240.022C786.164 227.584 792.461 215.224 796.789 203.652C794.113 203.889 791.359 204.282 788.683 204.282C787.738 204.282 786.873 204.203 786.007 204.203C779.789 219.475 770.896 235.062 765.387 244.981C770.109 243.564 774.752 241.911 779.396 239.943V240.022Z" fill="black"/>
<path d="M564.851 367.945C560.601 386.839 555.564 410.455 553.202 428.955C548.874 462.647 561.939 472.881 570.124 475.951C584.211 481.226 601.605 472.251 614.434 453.043C623.406 439.661 627.026 431.946 630.174 423.523C636.313 440.527 647.804 468.158 662.6 484.217C661.813 476.266 660.239 468.709 658.035 461.309C645.993 440.999 636.785 414.706 634.896 406.598C634.188 403.606 632.771 400.851 631.433 398.096C630.804 396.758 629.387 397.072 628.915 398.096C620.021 420.925 620.73 425.806 606.17 447.533C586.415 477.132 556.98 476.03 562.804 430.214C565.638 408.487 572.17 379.36 577.049 358.105C577.758 354.878 577.05 354.248 573.587 354.799C567.526 355.901 559.814 359.365 550.605 362.907C546.749 367.788 542.656 372.669 538.406 377.313C546.906 374.952 554.462 372.039 560.994 369.362C562.253 368.811 563.513 368.339 564.772 367.867L564.851 367.945Z" fill="black"/>
<path d="M785.928 204.204C786.872 204.204 787.738 204.361 788.604 204.283C791.28 204.283 794.034 203.889 796.71 203.653C799.229 197.04 801.117 190.664 802.062 184.76C798.678 185.311 795.215 185.704 791.83 185.941C790.571 191.687 788.446 197.906 785.928 204.283V204.204Z" fill="black"/>
<path d="M744.765 175.391C743.584 175.234 742.482 175.076 741.302 175.076C739.57 175.076 737.918 175.391 736.265 175.942C730.992 177.674 726.899 181.768 723.83 188.538C722.728 190.899 721.784 193.497 720.76 196.331C720.288 197.512 719.895 198.771 719.344 200.11C719.344 200.11 719.422 200.11 719.501 200.11C720.839 198.929 731.464 186.255 744.607 175.391H744.765Z" fill="black"/>
<path d="M760.428 254.979C766.174 255.608 780.498 252.302 796.238 252.302C801.511 249.704 806.627 246.792 811.507 243.643C799.229 241.675 787.03 242.541 777.349 243.643C777.979 242.462 778.687 241.202 779.317 240.021C774.752 241.911 770.03 243.643 765.308 245.06C762.475 250.177 760.507 253.798 760.35 254.979H760.428Z" fill="black"/>
<path d="M699.433 379.596C697.78 381.092 699.118 387.311 700.613 392.821C703.525 390.46 706.359 388.019 709.035 385.422C706.516 383.532 703.919 381.722 701.4 379.832C700.928 379.517 699.826 379.36 699.512 379.596H699.433Z" fill="black"/>
<path d="M538.485 377.39C542.735 372.667 546.906 367.865 550.684 362.984C541.712 366.369 531.244 369.833 519.439 371.014C515.976 374.556 512.355 377.941 508.656 381.169C519.675 381.405 529.591 379.752 538.485 377.312V377.39Z" fill="black"/>
<path d="M681.331 496.262C681.331 492.798 681.331 489.334 681.016 485.949C673.067 482.958 665.118 473.117 658.113 461.23C660.317 468.63 661.891 476.188 662.678 484.138C668.423 490.357 674.72 494.845 681.331 496.262Z" fill="black"/>
<path d="M774.043 263.874C788.052 262.142 809.145 259.545 824.335 268.44C826.774 269.857 830.788 272.77 830.867 276.706C830.867 278.674 829.765 285.916 814.024 295.678C799.937 304.416 791.2 306.935 770.187 313.075C765.937 314.335 761.215 315.673 755.863 317.326C751.77 318.586 748.779 321.656 747.835 325.513C746.104 332.756 751.219 337.636 759.719 345.587C771.21 356.451 790.492 374.714 801.983 402.582C805.524 411.241 805.446 416.437 803.793 417.696C795.687 423.758 759.64 413.445 723.594 384.239C720.919 382.114 718.164 380.067 715.409 378.099C713.284 380.618 711.238 383.137 708.877 385.42C711.71 387.546 714.622 389.671 717.377 391.954C767.983 432.968 830.631 446.429 811.112 398.96C791.2 350.547 749.488 329.607 758.696 326.851C790.256 317.326 800.881 315.437 819.219 304.101C847.001 286.94 845.112 269.149 829.293 259.938C819.14 254.034 807.256 252.381 796.159 252.381C785.062 257.891 773.414 262.142 761.529 264.976C764.835 264.976 768.849 264.583 773.964 263.953L774.043 263.874Z" fill="black"/>
<path d="M692.429 400.3C692.822 401.638 693.137 402.662 693.295 403.213C699.591 437.535 699.04 460.68 691.642 471.937C690.304 474.062 687.628 477.447 685.424 477.054C683.614 476.739 681.568 475.479 679.521 473.669C680.23 477.762 680.702 481.856 681.017 485.949C687.47 488.39 693.924 486.422 699.906 477.369C712.183 458.712 706.91 422.578 703.054 401.481C702.818 400.221 701.716 396.758 700.614 392.9C697.938 395.105 695.105 397.151 692.114 399.119C692.271 399.513 692.35 399.985 692.508 400.379L692.429 400.3Z" fill="black"/>
<path d="M755.47 179.485C769.322 168.937 776.248 168.7 778.609 169.094C781.678 169.645 782.229 170.747 782.544 171.377C784.039 174.604 783.567 179.8 781.993 185.94C784.039 186.019 786.164 186.177 788.289 186.177C789.549 186.177 790.808 186.019 791.988 185.94C794.9 172.4 792.933 161.694 780.419 159.49C769.794 157.601 756.414 165.866 744.924 175.47C747.757 175.943 750.748 177.045 753.975 178.777C754.447 179.092 755.077 179.249 755.549 179.485H755.47Z" fill="black"/>
<path d="M495.985 360.23C493.939 359.836 491.263 358.892 490.004 356.688C488.823 354.641 488.823 351.492 490.083 347.95C493.231 338.897 507.161 319.059 565.008 288.2C567.369 286.94 568.707 286.153 569.101 285.917C569.494 285.602 569.888 285.208 570.203 284.894C571.462 279.383 572.249 274.66 572.721 270.96C571.383 268.283 569.101 265.843 565.638 263.796C556.744 258.364 548.795 251.516 540.295 244.273C537.934 242.305 535.573 240.258 533.212 238.29C526.601 232.78 515.346 220.421 511.569 209.085C510.388 205.7 510.546 202.551 511.962 200.504C512.985 198.93 514.717 198.064 517.078 197.828C543.916 195.859 572.642 211.131 591.925 222.861C599.874 227.663 605.462 225.459 608.137 223.727C616.952 217.902 615.221 205.7 612.387 185.311C609.554 165.079 605.304 134.457 616.086 123.278C618.841 120.444 620.415 120.68 620.966 120.838C625.295 121.625 631.827 129.104 635.762 137.842C647.489 163.899 649.063 173.817 649.693 177.517C651.503 188.538 659.767 188.381 662.285 187.987C668.581 187.121 670.628 182.004 671.651 179.564C672.989 176.258 676.058 168.464 687.47 149.335C694.081 138.157 700.535 134.063 703.84 135.008C707.146 135.952 712.34 143.431 712.026 159.569C711.711 176.179 710.215 185.862 709.35 191.609C708.405 197.513 707.776 201.764 711.002 205.857C712.183 207.353 713.757 208.376 715.489 209.085C717.141 205.936 718.401 203.023 719.424 200.189C716.433 199.559 721.234 191.687 721.864 159.726C722.572 123.908 698.725 111.076 678.97 144.297C661.026 174.447 662.679 178.068 660.947 178.305C657.484 178.777 663.544 175.864 644.656 133.827C638.202 119.421 623.17 101.787 608.924 116.508C582.874 143.273 619.628 228.293 596.962 214.516C572.721 199.796 544.152 186.019 516.291 188.066C504.564 188.932 498.032 199.717 502.282 212.234C506.846 225.695 519.282 239.392 526.916 245.769C537.856 254.901 548.323 264.662 560.443 272.141C563.119 273.794 565.716 276.155 563.198 277.966C561.152 279.462 491.578 313.469 480.638 344.801C476.31 357.239 481.583 367.551 493.939 369.913C502.99 371.645 511.411 371.802 519.282 371.015C523.059 367.158 526.758 363.221 530.221 359.128C519.99 361.647 508.578 362.749 495.828 360.23H495.985Z" fill="black"/>
<path d="M758.066 237.817C755.391 242.698 753.659 245.847 752.479 248.13C756.807 247.264 761.057 246.241 765.307 244.981C770.816 235.062 779.631 219.475 785.927 204.203C782.386 204.203 778.844 204.046 775.46 203.652C769.557 217.192 761.844 231.047 758.066 237.817Z" fill="black"/>
<path d="M577.129 358.104C572.249 379.359 565.717 408.486 562.883 430.213C556.981 476.029 586.416 477.131 606.249 447.532C620.809 425.804 620.101 420.845 628.994 398.094C629.466 396.992 630.883 396.678 631.513 398.094C632.851 400.85 634.267 403.684 634.975 406.596C636.864 414.626 646.073 440.919 658.114 461.308C655.281 451.625 651.424 442.179 646.781 432.496C643.397 425.332 640.721 418.877 643.239 411.792C643.79 410.375 644.499 409.037 645.364 407.698C645.049 406.518 644.735 405.416 644.499 404.392C643.633 400.771 642.137 397.701 640.878 394.946L640.406 393.844C638.438 389.75 634.503 387.073 629.938 387.388C625.531 387.546 621.517 390.38 619.943 394.631C617.582 400.692 615.851 405.573 614.355 409.745C610.42 420.924 608.216 427.143 598.142 442.179C589.642 454.931 580.592 458.946 577.129 457.608C574.138 456.506 570.596 448.634 572.8 431.551C575.633 409.745 582.402 379.989 586.888 360.308C587.99 355.349 587.124 351.334 584.291 348.342C579.962 343.777 574.059 344.879 572.092 345.194C568.707 345.823 565.166 346.925 561.388 348.342C558.082 353.302 554.62 358.183 550.842 362.985C560.05 359.442 567.763 355.978 573.823 354.876C577.286 354.247 577.994 354.876 577.286 358.183L577.129 358.104Z" fill="black"/>
<path d="M698.645 369.835C696.599 370.071 694.552 370.701 692.821 372.275C690.853 374.086 689.83 376.211 689.279 378.651C692.664 375.896 695.812 372.905 698.724 369.756L698.645 369.835Z" fill="black"/>
<path d="M781.913 185.941C780.496 191.373 778.135 197.513 775.459 203.732C778.922 204.126 782.385 204.284 785.927 204.284C788.524 197.986 790.649 191.688 791.829 185.941C790.57 185.941 789.311 186.178 788.13 186.178C786.005 186.178 783.959 186.099 781.834 185.941H781.913Z" fill="black"/>
<path d="M718.714 209.951C721.469 210.266 724.223 209.321 726.269 207.432C726.663 207.117 727.529 206.172 728.867 204.676C739.728 192.789 748.464 184.839 755.468 179.486C754.917 179.249 754.366 179.013 753.894 178.777C750.667 176.966 747.677 175.864 744.843 175.471C731.7 186.413 721.075 199.008 719.737 200.189H719.58C718.557 202.945 717.297 205.936 715.645 209.085C716.668 209.478 717.691 209.951 718.871 210.029L718.714 209.951Z" fill="black"/>
<path d="M574.136 275.84C574.136 274.108 573.507 272.455 572.72 270.959C572.247 274.659 571.46 279.382 570.201 284.893C572.798 282.531 574.294 279.303 574.136 275.918V275.84Z" fill="black"/>
<path d="M553.833 351.178C546.828 353.933 539.037 357.003 530.379 359.129C526.916 363.222 523.217 367.158 519.439 371.016C531.324 369.835 541.712 366.371 550.685 362.986C554.462 358.184 557.925 353.224 561.231 348.344C558.87 349.21 556.43 350.154 553.754 351.256L553.833 351.178Z" fill="black"/>
<path d="M681.017 485.949C680.702 481.856 680.23 477.762 679.522 473.668C666.693 462.333 650.559 425.884 645.443 407.621C644.577 408.881 643.79 410.219 643.318 411.715C640.8 418.8 643.397 425.333 646.86 432.418C651.503 442.101 655.281 451.548 658.193 461.23C665.198 473.117 673.147 482.958 681.096 485.949H681.017Z" fill="black"/>
<path d="M715.487 378.1C713.835 376.919 712.261 375.659 710.686 374.479L707.145 371.881C704.941 370.306 701.793 369.519 698.724 369.913C695.812 373.062 692.663 376.053 689.279 378.808C688.02 384.476 689.909 391.64 692.112 399.118C695.025 397.15 697.937 395.104 700.612 392.9C699.117 387.389 697.779 381.17 699.432 379.674C699.747 379.359 700.849 379.517 701.321 379.91C703.839 381.8 706.436 383.61 708.955 385.5C711.237 383.217 713.362 380.698 715.487 378.179V378.1Z" fill="black"/>
<path d="M752.557 260.962C754.21 263.088 756.65 264.505 759.247 264.82C759.955 264.898 760.821 264.898 761.608 264.898C773.492 262.064 785.14 257.892 796.237 252.303C780.418 252.303 766.173 255.609 760.427 254.979C760.663 253.72 762.552 250.099 765.386 245.061C761.136 246.32 756.886 247.343 752.557 248.209C751.455 250.492 750.904 251.988 750.668 253.484C750.275 256.16 750.904 258.837 752.557 261.041V260.962Z" fill="black"/>
<path d="M676.294 245.69C664.882 245.06 652.997 248.288 642.451 253.72C644.734 253.562 647.095 253.326 649.692 253.011C659.215 251.909 668.108 249.39 676.294 245.611V245.69Z" fill="black"/>
<path d="M704.391 278.99C713.835 310.085 672.123 337.165 644.891 334.803C618.053 332.52 608.058 304.574 622.461 283.162C624.979 279.383 628.442 275.683 632.377 272.298C627.655 272.298 623.248 272.062 618.998 271.668C617.266 273.637 615.692 275.683 614.276 277.651C605.146 291.27 603.493 308.274 610.104 321.972C616.322 334.961 628.757 343.226 644.104 344.565C645.521 344.722 646.938 344.722 648.433 344.722C668.266 344.722 691.169 333.622 704.47 317.248C714.78 304.574 718.085 289.932 713.835 276.077C710.923 266.394 705.729 258.837 698.882 253.562C695.891 255.609 692.821 257.577 689.673 259.23C696.206 262.852 701.479 269.071 704.47 278.911L704.391 278.99Z" fill="black"/>
<path d="M676.294 245.689C668.109 249.468 659.215 251.987 649.692 253.089C647.095 253.404 644.734 253.562 642.452 253.798C633.243 258.521 625.058 264.898 618.998 271.746C623.248 272.219 627.734 272.455 632.378 272.376C648.197 258.836 672.91 250.177 689.595 259.387C692.743 257.655 695.812 255.766 698.803 253.719C693.687 249.862 687.627 247.185 680.78 246.162C679.285 245.926 677.789 245.768 676.294 245.689Z" fill="black"/>
<path d="M622.461 283.161C608.058 304.573 618.132 332.52 644.891 334.803C672.122 337.164 713.835 310.084 704.391 278.989C701.4 269.149 696.127 262.93 689.594 259.309C685.187 261.67 680.622 263.717 675.821 265.37C676.53 265.37 677.159 265.37 677.868 265.528C686.446 266.787 692.034 272.14 694.946 281.823C697.229 289.459 695.261 297.252 689.122 304.888C679.127 317.169 659.687 326.222 645.757 324.962C637.414 324.254 631.039 320.16 627.812 313.469C624.271 305.99 625.294 296.465 630.567 288.593C635.053 281.902 643.081 275.447 652.132 270.959C651.974 270.959 651.817 270.959 651.659 270.959C644.734 271.747 638.988 272.14 633.636 272.219C633.164 272.219 632.771 272.219 632.377 272.219C628.442 275.604 624.979 279.225 622.461 283.082V283.161Z" fill="black"/>
<path d="M651.739 271.117C651.739 271.117 652.054 271.117 652.212 271.117C659.137 267.653 666.693 265.37 673.619 265.37C674.406 265.37 675.193 265.449 675.901 265.528C680.623 263.796 685.267 261.828 689.674 259.466C672.989 250.256 648.276 258.915 632.457 272.455C632.929 272.455 633.323 272.455 633.716 272.455C639.068 272.376 644.813 271.904 651.739 271.196V271.117Z" fill="black"/>
<path d="M685.266 949.304L1077.92 946.155C1077.05 942.927 1076.34 939.699 1075.63 936.314L687.785 939.385C687.076 942.691 686.132 945.997 685.188 949.225L685.266 949.304Z" fill="black"/>
<path d="M1655.83 1122.88C1617.98 1030.07 1542.5 988.979 1431.45 1000.63C1427.83 987.405 1421.22 975.124 1412.01 964.733C1394.85 945.367 1370.22 934.268 1344.41 934.268H1343.7L1281.76 934.74C1282.86 938.44 1283.25 941.746 1283.02 944.58L1343.78 944.108C1366.99 943.95 1389.19 953.791 1404.69 971.267C1414.84 982.76 1421.38 996.615 1423.82 1011.41C1535.02 997.166 1609.79 1035.74 1646.86 1126.66C1670.08 1183.42 1662.92 1254.74 1626.79 1327.4C1595.31 1390.77 1543.45 1450.84 1488.2 1487.92C1422.48 1532.16 1348.73 1555.07 1271.84 1565.85C1235.87 1608.2 1192.74 1644.81 1144.11 1673.54L1187.86 1761.95C1206.67 1799.89 1209.11 1838.23 1194.55 1862C1185.35 1876.96 1170.39 1885.07 1151.27 1885.15L627.105 1889.32C607.665 1889.47 591.846 1880.97 582.716 1865.31C568.628 1841.85 570.911 1803.98 588.619 1766.75L631.04 1677.64C574.059 1644.97 524.554 1602.53 484.101 1551.52C427.907 1480.83 391.389 1396.13 378.481 1306.54L355.972 1149.89L340.704 1043.61C337.398 1020.63 344.245 997.245 359.435 979.611C374.546 961.899 396.662 951.744 419.879 951.586L480.795 951.114C480.638 947.808 481.268 944.501 482.212 941.274L419.722 941.746C393.514 941.982 368.722 953.476 351.88 973.235C334.88 993.073 327.245 1019.21 330.866 1045.03L368.643 1307.96C381.708 1399.28 418.935 1485.63 476.309 1557.66C515.661 1607.26 563.355 1648.9 618.211 1681.65L579.647 1762.58C560.522 1802.88 558.397 1844.29 574.137 1870.35C584.998 1889 603.572 1899.24 626.396 1899.24H627.105L1151.27 1895.06C1173.62 1894.99 1191.96 1885.07 1202.82 1867.2C1219.27 1840.51 1216.91 1798.55 1196.6 1757.62L1156.86 1677.32C1201.8 1649.69 1242.09 1615.37 1276.88 1575.14C1362.19 1562.7 1433.18 1536.88 1493.63 1496.18C1550.29 1458.08 1603.34 1396.68 1635.53 1331.89C1672.99 1256.63 1680.23 1182.48 1655.91 1123.04L1655.83 1122.88Z" fill="black"/>
<path d="M1576.42 1155.4C1560.05 1115.25 1525.58 1070.06 1417.36 1089.27L1410.67 1141.54L1390.76 1298.35C1382.81 1360.94 1363.14 1420.92 1333.54 1475.48C1373.45 1464.22 1411.3 1448 1445.7 1424.78C1562.65 1346.06 1600.58 1214.75 1576.42 1155.4ZM1352.98 1459.18C1377.46 1408.64 1393.44 1355.03 1400.52 1299.54L1426.18 1097.69C1522.75 1082.66 1552.34 1122.41 1567.29 1159.1C1590.27 1215.38 1553.05 1340.63 1440.19 1416.59C1414.29 1434.07 1385.65 1448.08 1352.98 1459.1V1459.18Z" fill="black"/>
<path d="M1096.65 946.075L1263.73 944.737C1265.23 943.792 1265.7 942.375 1262.79 936.235C1262.55 935.762 1262.4 935.369 1262.24 934.896L1094.13 936.235C1094.76 938.99 1095.39 941.824 1096.18 944.501C1096.33 945.052 1096.49 945.524 1096.65 946.075Z" fill="black"/>
<path d="M669.054 939.621L501.495 940.959C498.976 947.415 498.346 949.383 499.999 950.8L666.299 949.461C667.322 946.155 668.267 942.927 669.132 939.621H669.054Z" fill="black"/>
<path d="M480.796 950.957L499.999 950.799C498.346 949.382 499.055 947.414 501.495 940.959L482.212 941.116C481.268 944.344 480.638 947.65 480.796 950.957Z" fill="black"/>
<path d="M687.864 939.463L669.132 939.62C668.266 942.927 667.401 946.233 666.299 949.46L685.266 949.303C686.211 946.076 687.076 942.769 687.864 939.463Z" fill="black"/>
<path d="M1096.65 946.077C1096.49 945.525 1096.33 945.053 1096.17 944.502C1095.39 941.826 1094.76 939.07 1094.13 936.236L1075.63 936.394C1076.26 939.7 1077.05 943.006 1077.92 946.234L1096.65 946.077Z" fill="black"/>
<path d="M1262.79 936.236C1265.7 942.376 1265.23 943.793 1263.74 944.738L1282.94 944.58C1283.1 941.746 1282.78 938.44 1281.68 934.74L1262.32 934.898C1262.55 935.37 1262.63 935.764 1262.87 936.236H1262.79Z" fill="black"/>
<path d="M1343.78 953.948H1344.33C1364.55 953.948 1383.84 962.607 1397.21 977.8C1406.03 987.719 1411.85 999.921 1413.98 1013.07C1414.84 1018.26 1419.65 1021.88 1424.92 1021.25C1532.43 1007.48 1602 1043.22 1637.57 1130.44C1659.69 1184.52 1652.69 1252.93 1617.82 1323.07C1587.13 1384.95 1536.52 1443.52 1482.61 1479.81C1423.82 1519.4 1354.4 1544.36 1270.42 1556.17C1268.06 1556.48 1265.86 1557.74 1264.29 1559.55C1228.48 1601.67 1186.29 1637.25 1138.99 1665.12C1134.58 1667.72 1132.85 1673.31 1135.21 1677.95L1178.97 1766.35C1196.29 1801.23 1198.96 1835.86 1186.05 1856.88C1178.58 1869.09 1166.85 1875.3 1151.11 1875.38L626.947 1879.56H626.396C610.656 1879.56 598.457 1872.94 591.058 1860.35C578.859 1840.04 581.378 1805.01 597.433 1771.08L639.854 1681.96C642.058 1677.32 640.327 1671.73 635.841 1669.21C579.883 1637.09 531.401 1595.53 491.735 1545.46C436.564 1476.19 400.754 1393.06 388.162 1305.2L350.384 1042.27C347.472 1022.12 353.454 1001.57 366.833 986.066C380.055 970.637 399.416 961.662 419.879 961.505L484.337 960.954C481.976 957.805 480.953 954.499 480.795 951.114L419.879 951.586C396.662 951.743 374.546 961.898 359.435 979.611C344.324 997.244 337.477 1020.62 340.704 1043.61L355.972 1149.89L378.481 1306.54C391.31 1396.13 427.828 1480.83 484.101 1551.52C524.554 1602.53 574.059 1644.97 631.04 1677.63L588.619 1766.75C570.91 1804.06 568.549 1841.85 582.716 1865.31C591.845 1880.97 607.586 1889.47 627.105 1889.32L1151.27 1885.14C1170.31 1885.07 1185.35 1876.96 1194.55 1862C1209.19 1838.23 1206.75 1799.97 1187.86 1761.95L1144.11 1673.54C1192.82 1644.81 1235.87 1608.2 1271.84 1565.85C1348.66 1555.07 1422.4 1532.16 1488.2 1487.92C1543.45 1450.76 1595.31 1390.77 1626.79 1327.4C1662.92 1254.82 1670.08 1183.42 1646.86 1126.66C1609.79 1035.74 1535.1 997.244 1423.82 1011.41C1421.38 996.615 1414.84 982.681 1404.69 971.266C1389.19 953.79 1367.07 943.95 1343.78 944.107L1283.02 944.58C1282.7 948.594 1281.36 951.901 1279.55 954.42L1343.85 953.948H1343.78Z" fill="black"/>
<path d="M1080.83 955.994C1080.12 953.948 1079.41 951.744 1078.7 949.303C1078.39 948.28 1078.23 947.178 1077.92 946.154L685.267 949.303C684.322 952.609 683.299 955.916 682.197 959.143L1080.83 955.994Z" fill="black"/>
<path d="M1333.54 1485.32C1334.41 1485.32 1335.35 1485.16 1336.22 1484.93C1380.29 1472.49 1417.91 1455.4 1451.13 1432.89C1572.17 1351.34 1610.97 1214.12 1585.47 1151.62C1559.34 1087.46 1503.78 1063.84 1415.63 1079.51C1411.38 1080.22 1408.15 1083.68 1407.6 1087.93L1381 1297.02C1373.21 1357.87 1354.4 1416.28 1324.89 1470.76C1323 1474.22 1323.39 1478.47 1325.83 1481.62C1327.72 1483.98 1330.55 1485.32 1333.54 1485.32ZM1390.76 1298.36L1410.67 1141.54L1417.36 1089.27C1525.58 1070.06 1560.05 1115.25 1576.42 1155.4C1600.66 1214.75 1562.65 1346.06 1445.7 1424.78C1411.38 1448.01 1373.53 1464.22 1333.54 1475.48C1363.06 1420.85 1382.73 1360.86 1390.76 1298.36Z" fill="black"/>
<path d="M1100.27 955.838L1241.86 954.736C1247.99 951.43 1253.58 949.147 1257.75 947.415C1260.27 946.391 1261.77 945.762 1262.87 945.211C1263.18 945.053 1263.5 944.896 1263.74 944.738L1096.65 946.077C1097.75 949.776 1099.01 953.004 1100.19 955.917L1100.27 955.838Z" fill="black"/>
<path d="M507.396 954.105C511.253 955.522 516.604 957.49 522.586 960.481L662.992 959.379C664.173 956.073 665.275 952.767 666.298 949.539L499.998 950.877C500.706 951.507 501.808 951.979 503.461 952.688C504.484 953.082 505.822 953.633 507.396 954.184V954.105Z" fill="black"/>
<path d="M685.265 949.303L666.298 949.46C665.275 952.766 664.173 955.994 662.992 959.3L682.196 959.143C683.298 955.915 684.321 952.609 685.265 949.303Z" fill="black"/>
<path d="M1262.87 945.21C1261.77 945.761 1260.27 946.391 1257.75 947.414C1253.58 949.146 1247.99 951.35 1241.86 954.735L1279.48 954.42C1281.36 951.822 1282.7 948.595 1282.94 944.58L1263.73 944.737C1263.73 944.737 1263.18 945.052 1262.87 945.21Z" fill="black"/>
<path d="M1080.83 955.994L1100.27 955.836C1099.01 952.924 1097.83 949.696 1096.73 945.996L1077.99 946.154C1078.23 947.177 1078.47 948.279 1078.78 949.302C1079.41 951.664 1080.2 953.868 1080.91 955.994H1080.83Z" fill="black"/>
<path d="M522.586 960.403C516.605 957.412 511.253 955.444 507.397 954.027C505.823 953.476 504.485 953.004 503.461 952.531C501.809 951.823 500.707 951.272 499.998 950.721L480.795 950.878C480.952 954.263 481.975 957.569 484.337 960.718L522.586 960.403Z" fill="black"/>
<path d="M797.498 1211.21C828.113 1229.95 854.085 1258.6 873.525 1287.96C881.867 1300.56 883.599 1305.75 887.613 1299.77C895.719 1287.73 914.687 1257.81 931.529 1241.36C944.751 1228.53 957.737 1218.37 970.33 1210.42C975.918 1202.55 981.506 1195.86 987.015 1190.19C966.316 1199.56 945.302 1214.28 924.682 1234.35C909.964 1248.68 894.381 1271.83 884.465 1286.78C883.678 1285.44 882.733 1284.11 881.71 1282.53C863.53 1255.14 828.428 1211.29 779.475 1190.9C785.85 1197.04 791.91 1203.89 797.498 1211.21Z" fill="black"/>
<path d="M1118.6 1238.84C1118.6 1240.26 1118.45 1241.52 1118.29 1242.7C1131.12 1272.77 1131.2 1311.66 1113.02 1350C1075.16 1429.66 987.171 1520.27 898.315 1540.9C826.931 1557.51 658.821 1417.78 642.529 1309.85C639.066 1287.1 642.057 1265.61 649.77 1247.27C649.455 1245.69 649.219 1243.96 649.141 1242.07C649.141 1241.6 649.141 1240.73 649.141 1239.55C649.298 1235.38 649.141 1231.36 648.904 1227.43C634.187 1251.12 628.205 1281.04 632.77 1311.34C644.025 1385.74 719.58 1467.45 785.061 1511.93C808.514 1527.83 850.07 1552.15 885.565 1552.15C890.68 1552.15 895.717 1551.68 900.518 1550.5C994.096 1528.77 1084.45 1433.13 1121.91 1354.25C1143.95 1307.88 1141.59 1257.42 1118.53 1222.07C1118.53 1223.1 1118.53 1224.04 1118.6 1225.07C1118.76 1229.16 1118.84 1233.49 1118.6 1238.76V1238.84Z" fill="black"/>
<path d="M1100.35 1214.99C1100.5 1211.21 1100.98 1207.27 1101.92 1202.63C1099.17 1200.11 1096.33 1197.75 1093.26 1195.62C1075.63 1183.03 1055.64 1177.28 1034.39 1178.15C1028.02 1181.3 1020.54 1185.39 1012.51 1191.53C1048.95 1182.24 1079.8 1192.95 1100.27 1214.99H1100.35Z" fill="black"/>
<path d="M745.788 1191.29C748.621 1191.77 751.455 1192.39 754.209 1193.02C750.51 1190.27 746.733 1187.67 742.955 1185.47C739.492 1183.42 736.186 1181.85 733.038 1180.43C707.302 1179.88 683.376 1189.25 664.566 1207.67C665.353 1211.68 665.904 1215.78 666.377 1220.1C685.501 1198.14 713.835 1186.18 745.788 1191.29Z" fill="black"/>
<path d="M1118.29 1242.78C1118.45 1241.6 1118.53 1240.26 1118.61 1238.92C1118.76 1233.64 1118.61 1229.31 1118.61 1225.22C1118.61 1224.2 1118.61 1223.17 1118.53 1222.23C1113.88 1215.07 1108.37 1208.45 1102 1202.71C1101.06 1207.35 1100.58 1211.37 1100.43 1215.07C1107.82 1223.02 1113.88 1232.39 1118.37 1242.86L1118.29 1242.78Z" fill="black"/>
<path d="M754.21 1193.03C769.399 1196.57 783.881 1202.94 797.496 1211.21C791.987 1203.89 785.927 1197.04 779.473 1190.9C769.321 1186.65 758.617 1183.42 747.362 1181.61C742.562 1180.82 737.839 1180.51 733.117 1180.43C736.265 1181.93 739.492 1183.5 743.034 1185.47C746.812 1187.67 750.589 1190.27 754.288 1193.03H754.21Z" fill="black"/>
<path d="M970.25 1210.42C984.967 1201.13 999.134 1194.91 1012.51 1191.53C1020.54 1185.31 1028.02 1181.22 1034.39 1178.15C1019.12 1178.78 1003.15 1182.87 986.935 1190.27C981.426 1195.94 975.838 1202.63 970.25 1210.5V1210.42Z" fill="black"/>
<path d="M649.062 1242.15C649.062 1244.04 649.377 1245.77 649.692 1247.34C653.942 1237.19 659.53 1227.98 666.377 1220.11C665.905 1215.86 665.354 1211.68 664.567 1207.67C664.409 1207.83 664.252 1207.9 664.095 1208.06C658.271 1213.89 653.234 1220.42 648.826 1227.43C649.062 1231.36 649.141 1235.38 649.062 1239.55C649.062 1240.73 649.062 1241.6 649.062 1242.07V1242.15Z" fill="black"/>
<path d="M887.611 1299.69C883.597 1305.68 881.787 1300.48 873.523 1287.89C854.084 1258.52 828.112 1229.87 797.496 1211.13C802.691 1218.06 807.413 1225.46 811.505 1233.17C830.866 1248.6 849.204 1268.91 865.338 1293.32C866.676 1295.36 867.857 1297.17 868.88 1298.83C873.681 1306.38 877.222 1311.9 884.463 1311.97C884.463 1311.97 884.542 1311.97 884.62 1311.97C889.028 1311.97 892.806 1309.69 895.796 1305.13L899.417 1299.61C908.153 1286.39 924.444 1261.83 938.375 1248.29C944.592 1242.31 950.731 1236.79 956.949 1231.84C961.277 1223.73 965.763 1216.64 970.25 1210.27C957.657 1218.22 944.671 1228.37 931.449 1241.2C914.606 1257.58 895.639 1287.57 887.532 1299.61L887.611 1299.69Z" fill="black"/>
<path d="M1112.55 1255.53C1120.73 1280.88 1119.86 1312.6 1104.12 1345.82C1068.63 1420.61 983.708 1510.98 896.112 1531.37C873.996 1536.57 836.612 1523.18 796.159 1495.71C732.094 1452.26 662.127 1373.93 652.289 1308.43C649.692 1291.19 651.109 1274.19 655.988 1258.92C652.998 1256.32 650.794 1252.54 649.771 1247.34C642.137 1265.76 639.146 1287.18 642.53 1309.93C658.822 1417.93 826.932 1557.58 898.315 1540.97C987.171 1520.35 1075.16 1429.82 1113.02 1350.07C1131.2 1311.74 1131.2 1272.85 1118.29 1242.78C1117.5 1248.68 1115.38 1252.78 1112.55 1255.53Z" fill="black"/>
<path d="M995.041 1208.06C1027.23 1193.5 1057.69 1194.21 1081.85 1211.53C1088.93 1216.56 1095.23 1223.18 1100.5 1230.97C1100.5 1229.16 1100.5 1227.43 1100.35 1225.77C1100.27 1222.15 1100.11 1218.69 1100.35 1214.99C1079.8 1192.95 1049.03 1182.24 1012.59 1191.53C1006.93 1195.86 1001.02 1201.29 995.041 1208.14V1208.06Z" fill="black"/>
<path d="M677.947 1222C692.586 1207.51 711.081 1199.95 731.072 1199.95C735.4 1199.95 739.729 1200.27 744.136 1201.06C753.581 1202.55 763.104 1205.46 772.548 1209.56C766.724 1203.42 760.585 1197.83 754.132 1193.1C751.298 1192.47 748.544 1191.84 745.71 1191.37C713.757 1186.18 685.424 1198.22 666.299 1220.18C666.85 1225.14 667.086 1230.26 667.086 1235.61C670.313 1230.81 673.854 1226.17 677.947 1222.15V1222Z" fill="black"/>
<path d="M655.909 1258.92C658.585 1250.49 662.363 1242.7 667.164 1235.53C667.164 1230.18 666.927 1225.06 666.376 1220.11C659.529 1227.98 653.941 1237.19 649.691 1247.34C650.715 1252.62 652.997 1256.32 655.909 1258.92Z" fill="black"/>
<path d="M995.041 1208.06C1001.02 1201.21 1006.93 1195.78 1012.59 1191.45C999.134 1194.84 984.967 1201.06 970.328 1210.34C965.842 1216.72 961.356 1223.81 957.027 1231.91C969.856 1221.68 982.606 1213.73 995.12 1208.06H995.041Z" fill="black"/>
<path d="M772.627 1209.48C785.771 1215.15 798.914 1223.1 811.507 1233.25C807.414 1225.54 802.692 1218.14 797.498 1211.21C783.961 1202.94 769.479 1196.57 754.211 1193.03C760.586 1197.83 766.803 1203.34 772.627 1209.48Z" fill="black"/>
<path d="M1100.43 1225.77C1100.43 1227.43 1100.5 1229.16 1100.58 1230.97C1105.54 1238.21 1109.63 1246.4 1112.62 1255.53C1115.46 1252.77 1117.58 1248.68 1118.37 1242.78C1113.88 1232.31 1107.82 1222.94 1100.43 1214.99C1100.27 1218.69 1100.43 1222.15 1100.43 1225.77Z" fill="black"/>
</g>
<defs>
<clipPath id="clip0_157_257">
<rect width="1340" height="1798" fill="white" transform="translate(330 101)"/>
</clipPath>
</defs>
</svg>
