<svg width="2000" height="2000" viewBox="0 0 2000 2000" fill="none" xmlns="http://www.w3.org/2000/svg">
<g clip-path="url(#clip0_157_258)">
<path d="M930.671 1279.2C835.573 1279.2 669.086 1267.34 568.529 1192.11C568.103 1191.77 567.761 1191.52 567.42 1191.09C565.8 1189.47 406.648 1027.15 457.908 746.537C505.585 485.196 677.018 347.19 967.517 336.358C1257.84 325.611 1439.17 450.396 1506.12 707.558C1578.02 983.654 1431.41 1157.31 1429.87 1159.02C1429.53 1159.36 1429.19 1159.79 1428.85 1160.04C1294.95 1276.72 1020.06 1276.89 1002.49 1276.64C997.368 1277.07 970.161 1279.11 930.757 1279.11L930.671 1279.2ZM582.005 1175.57C719.578 1277.75 998.392 1255.74 1001.12 1255.49C1001.46 1255.49 1001.8 1255.49 1002.14 1255.49C1005.04 1255.49 1284.63 1256.77 1414.18 1144.69C1422.8 1134.2 1552.52 970.434 1485.48 713.102C1420.49 463.531 1251.28 347.276 968.284 357.852C685.291 368.343 525.202 496.796 478.889 750.546C431.126 1012.14 572.623 1165.84 582.005 1175.65V1175.57Z" fill="black"/>
<mask id="mask0_157_258" style="mask-type:luminance" maskUnits="userSpaceOnUse" x="458" y="346" width="1058" height="923">
<path d="M1495.72 710.287C1424.42 436.408 1229.27 337.382 967.773 347.105C706.273 356.829 519.061 470.099 468.313 748.499C417.565 1026.9 574.926 1183.58 574.926 1183.58C717.105 1289.94 1002.06 1266.06 1002.06 1266.06C1002.06 1266.06 1287.95 1268.71 1421.86 1152.11C1421.86 1152.11 1567.11 984.166 1495.8 710.287H1495.72Z" fill="white"/>
</mask>
<g mask="url(#mask0_157_258)">
<path d="M998.562 209.526C966.834 279.553 949.008 357.767 934.679 432.826C896.896 630.879 896.725 835.669 925.468 1035C948.411 1193.82 989.777 1349.48 1045.64 1499.85C1049.48 1510.09 1065.77 1505.06 1061.93 1494.74C971.354 1250.97 918.986 992.269 922.312 731.696C924.189 582.346 943.294 431.291 988.071 288.338C995.577 264.456 1003.25 240.403 1013.57 217.629C1018.09 207.65 1003.08 199.547 998.562 209.612V209.526Z" fill="black"/>
<path d="M828.408 228.632C767.766 302.667 721.624 392.141 686.058 480.335C610.662 666.958 588.486 873.71 644.778 1068.78C687.167 1215.74 770.837 1346.32 874.208 1457.89C881.714 1465.99 893.228 1453.37 885.808 1445.44C792.586 1344.7 715.654 1228.19 671.644 1097.52C636.931 994.401 623.882 885.055 631.984 776.561C644.01 615.27 701.41 458.158 785.592 320.835C802.565 293.2 820.39 265.394 840.945 240.232C847.854 231.788 835.401 220.103 828.408 228.632Z" fill="black"/>
<path d="M1110.72 228.462C1155.5 297.976 1187.91 377.556 1214.69 455.429C1276.78 635.57 1302.02 829.273 1278.83 1018.88C1261.85 1158 1218.95 1292.33 1154.9 1416.86C1149.87 1426.67 1164.88 1434.69 1169.91 1424.88C1277.72 1215.31 1322.32 979.731 1297.16 745.343C1280.53 590.449 1236.27 438.029 1167.95 298.062C1154.9 271.279 1141.25 244.412 1125.13 219.335C1119.16 210.124 1104.75 219.25 1110.72 228.462Z" fill="black"/>
<path d="M731.263 475.559C729.984 471.465 724.866 468.224 720.602 470.015C710.538 474.109 700.388 478.203 690.324 482.383C685.804 477.435 681.368 472.488 676.848 467.541C674.886 465.409 672.925 463.191 670.963 461.059C667.978 457.733 661.752 458.244 658.937 461.485C655.696 465.238 656.208 470.015 659.364 473.512C664.055 478.715 668.831 483.918 673.522 489.206C669.513 490.827 665.59 492.447 661.581 494.068C658.767 495.262 655.952 496.371 653.137 497.565C648.873 499.271 646.144 503.621 647.594 508.227C648.873 512.321 653.99 515.562 658.255 513.771C667.381 510.018 676.507 506.35 685.633 502.597C690.75 508.227 695.868 513.941 700.985 519.571C702.947 521.703 704.909 523.921 706.87 526.053C709.855 529.379 716.082 528.868 718.896 525.627C722.137 521.874 721.625 517.097 718.47 513.6C713.096 507.715 707.723 501.744 702.35 495.859C707.297 493.812 712.243 491.85 717.105 489.803C719.92 488.609 722.734 487.5 725.549 486.306C729.813 484.6 732.543 480.25 731.093 475.644L731.263 475.559Z" fill="black"/>
<path d="M685.973 625.334C684.353 621.325 679.065 618.511 674.886 620.558C665.077 625.42 655.354 630.196 645.546 635.058C640.684 630.452 635.908 625.846 631.046 621.24C628.914 619.193 626.867 617.231 624.735 615.184C621.494 612.114 615.353 612.967 612.709 616.464C609.809 620.473 610.577 625.164 613.988 628.49C619.106 633.352 624.138 638.214 629.255 643.075C625.417 644.952 621.579 646.828 617.741 648.79C615.012 650.155 612.283 651.52 609.553 652.884C605.459 654.931 602.986 659.452 604.777 663.972C606.398 667.981 611.685 670.796 615.865 668.749C624.735 664.399 633.52 660.049 642.39 655.614C647.934 660.902 653.392 666.19 658.936 671.478C661.069 673.525 663.115 675.487 665.248 677.534C668.489 680.605 674.63 679.752 677.274 676.255C680.174 672.246 679.406 667.555 675.994 664.228C670.195 658.684 664.48 653.14 658.68 647.681C663.457 645.293 668.233 642.99 673.009 640.602C675.738 639.237 678.468 637.872 681.197 636.508C685.291 634.461 687.764 629.94 685.973 625.42V625.334Z" fill="black"/>
<path d="M658.169 790.209C656.122 786.37 650.493 784.238 646.655 786.711C637.529 792.597 628.403 798.567 619.191 804.453C613.903 800.444 608.53 796.35 603.242 792.341C600.939 790.55 598.636 788.844 596.248 787.053C592.666 784.323 586.611 785.944 584.478 789.697C582.005 793.961 583.37 798.567 587.122 801.467C592.751 805.732 598.381 809.997 603.924 814.261C600.342 816.564 596.76 818.953 593.093 821.256C590.534 822.876 587.975 824.582 585.416 826.203C581.578 828.676 579.617 833.453 581.92 837.717C583.967 841.556 589.596 843.688 593.434 841.214C601.707 835.841 609.98 830.467 618.253 825.179C624.309 829.785 630.45 834.391 636.505 838.997C638.808 840.788 641.111 842.494 643.499 844.285C647.081 847.014 653.137 845.394 655.269 841.641C657.743 837.376 656.378 832.77 652.625 829.87C646.228 825.008 639.917 820.232 633.52 815.37C637.955 812.47 642.476 809.57 646.911 806.67C649.469 805.05 652.028 803.344 654.587 801.723C658.425 799.25 660.387 794.473 658.084 790.209H658.169Z" fill="black"/>
<path d="M664.226 941.093C661.411 937.852 655.441 936.913 652.2 940.24C644.609 948.002 637.018 955.849 629.342 963.61C623.286 960.881 617.145 958.066 611.09 955.337C608.446 954.143 605.802 952.949 603.158 951.755C599.064 949.878 593.52 952.863 592.326 956.957C590.876 961.734 593.179 965.828 597.529 967.79C603.925 970.69 610.322 973.59 616.804 976.49C613.819 979.56 610.834 982.631 607.849 985.701C605.716 987.919 603.584 990.052 601.452 992.269C598.211 995.596 597.443 1000.63 600.599 1004.3C603.414 1007.54 609.384 1008.47 612.625 1005.15C619.534 998.069 626.357 991.075 633.265 983.996C640.259 987.152 647.168 990.307 654.161 993.463C656.805 994.657 659.449 995.851 662.093 997.046C666.187 998.922 671.731 995.937 672.925 991.843C674.375 987.151 672.072 982.972 667.722 981.01C660.473 977.684 653.138 974.443 645.888 971.116C649.641 967.278 653.308 963.525 657.061 959.687C659.193 957.469 661.326 955.337 663.458 953.119C666.699 949.793 667.467 944.76 664.311 941.093H664.226Z" fill="black"/>
<path d="M704.311 1095.56C701.155 1092.58 695.1 1092.41 692.285 1095.99C685.547 1104.52 678.809 1113.13 672.071 1121.66C665.76 1119.53 659.363 1117.48 653.051 1115.35C650.322 1114.41 647.508 1113.56 644.778 1112.62C640.514 1111.26 635.311 1114.67 634.544 1118.93C633.605 1123.79 636.335 1127.72 640.855 1129.17C647.508 1131.38 654.246 1133.6 660.898 1135.82C658.254 1139.15 655.61 1142.56 652.966 1145.88C651.09 1148.27 649.213 1150.66 647.337 1153.05C644.522 1156.63 644.181 1161.75 647.763 1165.08C650.919 1168.06 656.975 1168.23 659.789 1164.65C665.93 1156.89 671.986 1149.13 678.127 1141.45C685.376 1143.84 692.626 1146.23 699.876 1148.61C702.605 1149.55 705.42 1150.41 708.149 1151.34C712.413 1152.71 717.616 1149.3 718.384 1145.03C719.322 1140.17 716.593 1136.25 712.072 1134.8C704.481 1132.32 696.891 1129.76 689.3 1127.29C692.626 1123.11 695.867 1118.93 699.193 1114.75C701.07 1112.36 702.946 1109.98 704.823 1107.59C707.637 1104.01 707.978 1098.89 704.396 1095.56H704.311Z" fill="black"/>
<path d="M991.398 402.717C990.204 398.538 985.171 395.297 980.822 396.917C970.672 400.841 960.437 404.679 950.288 408.603C945.938 403.57 941.503 398.538 937.153 393.42C935.277 391.203 933.315 388.985 931.439 386.853C928.539 383.441 922.227 383.782 919.413 387.023C916.086 390.691 916.513 395.467 919.583 399.05C924.189 404.338 928.795 409.711 933.4 415C929.392 416.535 925.383 418.07 921.374 419.606C918.56 420.714 915.66 421.823 912.845 422.847C908.581 424.467 905.681 428.732 907.046 433.423C908.24 437.603 913.272 440.844 917.622 439.223C926.833 435.726 936.044 432.144 945.256 428.647C950.288 434.447 955.235 440.161 960.267 445.961C962.143 448.179 964.105 450.397 965.981 452.529C968.881 455.941 975.192 455.6 978.007 452.358C981.333 448.691 980.907 443.914 977.836 440.332C972.634 434.276 967.346 428.22 962.143 422.25C967.09 420.373 972.037 418.411 977.069 416.535C979.883 415.426 982.783 414.317 985.598 413.294C989.862 411.673 992.762 407.409 991.398 402.717Z" fill="black"/>
<path d="M966.238 553.942C964.703 549.934 959.415 546.948 955.236 548.91C945.342 553.516 935.533 558.207 925.64 562.813C920.864 558.122 916.173 553.431 911.396 548.654C909.349 546.607 907.302 544.56 905.17 542.513C902.014 539.357 895.788 540.125 893.144 543.622C890.159 547.545 890.841 552.237 894.253 555.648C899.285 560.595 904.232 565.542 909.264 570.575C905.426 572.366 901.503 574.242 897.665 576.034C894.935 577.313 892.121 578.592 889.391 579.957C885.212 581.919 882.654 586.354 884.359 590.96C885.895 594.969 891.183 597.954 895.362 595.992C904.317 591.813 913.187 587.634 922.143 583.369C927.516 588.742 932.975 594.116 938.348 599.489C940.395 601.537 942.442 603.584 944.574 605.631C947.73 608.787 953.956 608.019 956.6 604.522C959.585 600.598 958.903 595.907 955.491 592.495C949.862 586.866 944.148 581.237 938.519 575.607C943.295 573.304 948.156 571.087 952.933 568.784C955.662 567.504 958.477 566.225 961.206 564.86C965.385 562.898 967.944 558.463 966.238 553.857V553.942Z" fill="black"/>
<path d="M955.064 700.478C953.017 696.64 947.387 694.507 943.549 696.981C934.423 702.866 925.212 708.837 916.086 714.722C910.798 710.713 905.425 706.619 900.137 702.61C897.834 700.819 895.531 699.113 893.143 697.322C889.561 694.593 883.505 696.213 881.373 699.966C878.899 704.231 880.264 708.837 884.017 711.737C889.646 716.002 895.275 720.266 900.819 724.531C897.237 726.834 893.655 729.137 889.987 731.525C887.428 733.146 884.87 734.851 882.311 736.472C878.473 738.946 876.511 743.722 878.814 747.987C880.861 751.825 886.49 753.957 890.328 751.484C898.601 746.11 906.875 740.822 915.148 735.449C921.203 740.054 927.344 744.66 933.4 749.266C935.703 751.057 938.005 752.763 940.394 754.554C943.976 757.284 950.031 755.663 952.164 751.91C954.637 747.646 953.272 743.04 949.52 740.14C943.123 735.278 936.811 730.502 930.415 725.64C934.85 722.74 939.37 719.84 943.805 717.025C946.364 715.404 948.923 713.699 951.481 712.078C955.319 709.604 957.281 704.828 954.978 700.563L955.064 700.478Z" fill="black"/>
<path d="M952.676 833.708C950.117 830.211 944.232 828.931 940.735 831.916C932.548 839.081 924.36 846.246 916.172 853.496C910.287 850.255 904.487 847.099 898.602 843.858C896.043 842.493 893.485 841.043 890.926 839.678C887.003 837.546 881.288 840.019 879.668 844.028C877.877 848.634 879.838 852.984 884.017 855.287C890.158 858.699 896.384 862.111 902.525 865.437C899.284 868.252 896.043 871.066 892.888 873.881C890.585 875.928 888.282 877.89 885.979 879.937C882.482 883.008 881.288 887.955 884.188 891.878C886.747 895.375 892.632 896.655 896.129 893.669C903.549 887.187 910.969 880.705 918.389 874.137C925.042 877.805 931.78 881.472 938.433 885.14C940.991 886.505 943.55 887.955 946.109 889.319C950.032 891.452 955.746 888.978 957.367 884.969C959.158 880.363 957.196 876.013 953.017 873.711C946.023 869.872 939.03 866.034 932.036 862.196C936.044 858.699 940.053 855.202 944.062 851.705C946.365 849.658 948.667 847.696 950.97 845.649C954.467 842.578 955.661 837.631 952.761 833.708H952.676Z" fill="black"/>
<path d="M964.445 977.001C961.972 973.504 956.087 971.969 952.59 974.954C944.232 981.948 935.873 988.857 927.429 995.851C921.63 992.524 915.915 989.113 910.115 985.786C907.642 984.336 905.083 982.886 902.61 981.351C898.772 979.133 892.972 981.351 891.266 985.445C889.305 989.966 891.266 994.401 895.36 996.789C901.416 1000.37 907.557 1003.87 913.612 1007.45C910.286 1010.18 907.045 1012.91 903.719 1015.64C901.416 1017.6 899.028 1019.56 896.64 1021.52C893.143 1024.51 891.778 1029.46 894.593 1033.38C897.066 1036.88 902.951 1038.41 906.448 1035.43C914.039 1029.12 921.63 1022.8 929.135 1016.49C935.703 1020.33 942.355 1024.17 948.922 1028.01C951.396 1029.46 953.955 1030.91 956.428 1032.44C960.266 1034.66 966.066 1032.44 967.772 1028.35C969.733 1023.83 967.772 1019.39 963.678 1017C956.769 1012.99 949.861 1008.99 942.952 1004.89C947.046 1001.48 951.14 998.069 955.234 994.657C957.622 992.695 959.925 990.733 962.313 988.772C965.81 985.786 967.175 980.839 964.36 976.916L964.445 977.001Z" fill="black"/>
<path d="M988.157 1148.44C985.001 1145.46 979.031 1145.12 976.131 1148.7C969.308 1157.14 962.4 1165.67 955.576 1174.12C949.265 1171.9 942.953 1169.77 936.642 1167.55C933.913 1166.61 931.098 1165.67 928.369 1164.73C924.104 1163.28 918.901 1166.7 918.049 1170.96C917.025 1175.82 919.754 1179.75 924.275 1181.28C930.927 1183.58 937.58 1185.89 944.233 1188.19C941.503 1191.52 938.859 1194.84 936.13 1198.17C934.168 1200.56 932.292 1202.95 930.33 1205.25C927.431 1208.83 927.089 1213.95 930.586 1217.27C933.742 1220.26 939.712 1220.6 942.612 1217.02C948.838 1209.34 954.979 1201.67 961.205 1193.99C968.455 1196.46 975.619 1198.94 982.869 1201.41C985.598 1202.35 988.413 1203.29 991.142 1204.22C995.407 1205.67 1000.61 1202.26 1001.46 1198C1002.49 1193.14 999.757 1189.21 995.236 1187.68C987.645 1185.03 980.14 1182.47 972.549 1179.83C975.875 1175.65 979.202 1171.56 982.613 1167.38C984.575 1164.99 986.451 1162.6 988.413 1160.3C991.313 1156.72 991.654 1151.6 988.157 1148.27V1148.44Z" fill="black"/>
<path d="M1252.13 415.766C1249.06 412.696 1243.09 412.269 1240.1 415.766C1233.02 424.04 1226.03 432.399 1218.95 440.672C1212.73 438.369 1206.41 436.066 1200.19 433.678C1197.46 432.654 1194.73 431.631 1192 430.607C1187.82 429.072 1182.53 432.313 1181.51 436.578C1180.4 441.44 1182.96 445.363 1187.48 447.069C1194.05 449.543 1200.7 451.931 1207.27 454.404C1204.54 457.646 1201.72 460.972 1198.99 464.213C1197.03 466.516 1195.07 468.904 1193.11 471.207C1190.12 474.704 1189.7 479.822 1193.11 483.234C1196.18 486.304 1202.15 486.731 1205.13 483.234C1211.53 475.728 1217.84 468.222 1224.24 460.716C1231.4 463.36 1238.57 466.004 1245.73 468.649C1248.46 469.672 1251.19 470.696 1253.92 471.719C1258.1 473.254 1263.39 470.013 1264.41 465.749C1265.52 460.887 1262.96 456.963 1258.44 455.257C1250.94 452.443 1243.43 449.713 1235.92 446.899C1239.34 442.804 1242.83 438.796 1246.24 434.702C1248.21 432.399 1250.17 430.01 1252.13 427.707C1255.12 424.21 1255.54 419.093 1252.13 415.681V415.766Z" fill="black"/>
<path d="M1303.73 566.481C1301.09 563.069 1295.2 561.704 1291.79 564.86C1283.69 572.11 1275.5 579.36 1267.4 586.61C1261.51 583.454 1255.63 580.299 1249.74 577.143C1247.18 575.778 1244.62 574.413 1242.07 573.049C1238.14 570.916 1232.43 573.475 1230.89 577.484C1229.1 582.09 1231.15 586.44 1235.33 588.657C1241.55 591.984 1247.69 595.31 1253.92 598.637C1250.77 601.451 1247.52 604.351 1244.37 607.166C1242.07 609.213 1239.85 611.26 1237.55 613.307C1234.13 616.378 1232.94 621.325 1235.92 625.248C1238.57 628.66 1244.45 630.025 1247.87 626.869C1255.2 620.301 1262.54 613.734 1269.96 607.166C1276.69 610.749 1283.43 614.416 1290.08 617.998C1292.64 619.363 1295.2 620.728 1297.76 622.093C1301.68 624.225 1307.4 621.666 1308.93 617.657C1310.72 613.051 1308.68 608.701 1304.5 606.484C1297.42 602.731 1290.43 598.893 1283.35 595.14C1287.35 591.557 1291.28 588.06 1295.29 584.478C1297.59 582.431 1299.81 580.384 1302.11 578.337C1305.52 575.266 1306.72 570.319 1303.73 566.396V566.481Z" fill="black"/>
<path d="M1327.02 720.266C1324.88 716.513 1319.25 714.466 1315.42 717.025C1306.37 723.166 1297.33 729.222 1288.38 735.363C1283.01 731.44 1277.55 727.516 1272.17 723.593C1269.79 721.887 1267.48 720.181 1265.09 718.475C1261.51 715.831 1255.46 717.622 1253.41 721.375C1251.02 725.725 1252.47 730.246 1256.31 733.06C1262.02 737.24 1267.74 741.334 1273.37 745.513C1269.79 747.901 1266.29 750.29 1262.71 752.678C1260.15 754.384 1257.67 756.09 1255.12 757.796C1251.28 760.354 1249.49 765.131 1251.87 769.396C1254.01 773.148 1259.64 775.196 1263.47 772.637C1271.66 767.093 1279.76 761.634 1287.95 756.09C1294.09 760.61 1300.32 765.046 1306.46 769.566C1308.85 771.272 1311.15 772.978 1313.54 774.684C1317.12 777.328 1323.18 775.537 1325.22 771.784C1327.61 767.434 1326.16 762.913 1322.32 760.098C1315.84 755.407 1309.36 750.716 1302.88 746.025C1307.31 743.04 1311.66 740.054 1316.1 737.069C1318.66 735.363 1321.13 733.657 1323.69 731.951C1327.53 729.393 1329.32 724.616 1326.93 720.351L1327.02 720.266Z" fill="black"/>
<path d="M1335.46 861.599C1333.41 857.761 1327.78 855.629 1323.94 858.102C1314.82 863.987 1305.61 869.958 1296.48 875.843C1291.19 871.834 1285.82 867.74 1280.53 863.731C1278.23 861.94 1275.93 860.234 1273.54 858.443C1269.96 855.714 1263.9 857.334 1261.77 861.087C1259.29 865.352 1260.66 869.958 1264.41 872.858C1270.04 877.123 1275.67 881.387 1281.21 885.652C1277.63 887.955 1274.05 890.343 1270.38 892.646C1267.82 894.267 1265.26 895.973 1262.71 897.593C1258.87 900.067 1256.91 904.843 1259.21 909.108C1261.26 912.946 1266.88 915.078 1270.72 912.605C1279 907.231 1287.27 901.943 1295.54 896.57C1301.6 901.176 1307.74 905.781 1313.79 910.387C1316.1 912.178 1318.4 913.884 1320.79 915.676C1324.37 918.405 1330.43 916.784 1332.56 913.031C1335.03 908.767 1333.67 904.161 1329.91 901.261C1323.52 896.399 1317.21 891.623 1310.81 886.761C1315.24 883.861 1319.76 880.961 1324.2 878.061C1326.76 876.44 1329.32 874.734 1331.88 873.114C1335.71 870.64 1337.68 865.864 1335.37 861.599H1335.46Z" fill="black"/>
<path d="M1325.48 1037.82C1323.86 1033.81 1318.49 1031.08 1314.39 1033.21C1304.67 1038.16 1294.95 1043.1 1285.31 1048.05C1280.45 1043.53 1275.59 1038.92 1270.64 1034.4C1268.51 1032.44 1266.37 1030.4 1264.24 1028.43C1261 1025.36 1254.77 1026.39 1252.3 1029.88C1249.4 1033.89 1250.25 1038.58 1253.75 1041.82C1258.87 1046.6 1264.07 1051.46 1269.19 1056.24C1265.35 1058.2 1261.51 1060.16 1257.76 1062.04C1255.03 1063.4 1252.3 1064.77 1249.57 1066.22C1245.48 1068.27 1243.09 1072.87 1244.97 1077.31C1246.59 1081.32 1251.96 1084.04 1256.05 1081.91C1264.84 1077.48 1273.62 1072.96 1282.41 1068.52C1287.95 1073.72 1293.58 1078.93 1299.13 1084.13C1301.26 1086.09 1303.39 1088.14 1305.52 1090.1C1308.76 1093.17 1314.99 1092.15 1317.46 1088.65C1320.36 1084.64 1319.51 1079.95 1316.01 1076.71C1310.13 1071.25 1304.33 1065.79 1298.44 1060.33C1303.22 1057.94 1307.91 1055.47 1312.69 1053.08C1315.42 1051.72 1318.14 1050.35 1320.87 1048.9C1324.97 1046.86 1327.36 1042.25 1325.48 1037.82Z" fill="black"/>
</g>
<path d="M982.442 1934C773.054 1934 621.92 1875.66 532.792 1760.17C378.843 1560.67 465.242 1266.32 468.995 1253.87C470.7 1248.32 476.415 1245.17 482.044 1246.7C782.692 1329.52 1001.21 1314.77 1003.34 1314.6C1006.32 1314.6 1225.26 1313.06 1518.92 1208.15C1524.38 1206.19 1530.35 1208.92 1532.48 1214.37C1537.17 1226.49 1645.23 1513.67 1506.46 1724.01C1420.66 1854.16 1259.21 1924.53 1026.71 1933.23C1011.7 1933.83 996.856 1934.09 982.356 1934.09L982.442 1934ZM486.735 1269.99C473.089 1323.21 417.906 1576.45 549.764 1747.21C640.599 1864.83 800.859 1920.18 1026.03 1911.82C1251.19 1903.46 1406.85 1836.34 1488.72 1712.32C1607.53 1532.27 1533.67 1283.8 1516.1 1231.77C1223.81 1334.47 1006.41 1335.83 1004.19 1335.83C1002.74 1336 785.848 1350.76 486.735 1270.07V1269.99Z" fill="black"/>
<path d="M975.363 1346.75C891.011 1346.75 645.204 1340.01 475.647 1267C456.031 1260.94 420.465 1236.47 422.171 1185.2C423.194 1154.24 435.049 1130.02 455.69 1116.97C473.003 1106.05 495.008 1104.52 514.455 1113.04C544.647 1126.18 750.282 1190.92 998.903 1181.71C1247.44 1172.49 1447.79 1092.57 1476.87 1077.22C1495.72 1067.33 1517.72 1067.16 1535.8 1076.79C1557.38 1088.31 1571.03 1111.51 1574.36 1142.3C1579.81 1193.22 1546.21 1220.34 1527.11 1227.85C1327.78 1331.91 1008.37 1346.24 1005.13 1346.41C1004.53 1346.41 993.786 1346.75 975.448 1346.75H975.363ZM488.27 1128.82C480.765 1128.82 473.43 1130.87 466.948 1134.97C452.449 1144.09 444.09 1162.17 443.323 1185.8C441.787 1233.74 480.594 1246.1 482.215 1246.62C482.556 1246.7 483.068 1246.87 483.409 1247.04C685.461 1334.38 1000.95 1325.09 1004.19 1325C1007.26 1324.83 1322.58 1310.67 1517.64 1208.57C1518.06 1208.4 1518.41 1208.23 1518.83 1208.06C1520.37 1207.47 1558.15 1192.2 1553.03 1144.52C1550.47 1120.98 1540.75 1103.58 1525.66 1095.56C1513.63 1089.16 1499.47 1089.33 1486.68 1096.07C1456.83 1111.77 1252.04 1193.56 999.5 1202.94C747.041 1212.33 536.715 1145.97 505.755 1132.49C499.955 1130.02 493.985 1128.74 488.185 1128.74L488.27 1128.82Z" fill="black"/>
<path d="M939.286 417.218C909.52 417.218 876.768 413.55 843.505 403.23C842.993 403.059 842.482 402.888 841.97 402.633C829.347 396.406 718.299 340.453 706.7 285.78C703.8 272.303 707.041 259.424 716.081 248.677C725.549 237.333 738.598 231.277 752.842 231.448C770.497 231.448 789.857 240.233 808.195 252.345C780.731 207.053 756.594 153.233 766.573 114.936C771.776 94.636 785.422 80.3066 807.086 72.1184C829.006 63.9302 849.902 65.5508 869.263 77.0655C903.293 97.3654 926.834 146.068 942.356 192.98C946.536 148.03 960.694 104.871 998.136 96.5125C1015.02 92.7595 1025.94 98.9007 1032.17 104.701C1051.95 123.21 1054.68 165.515 1050.5 216.095C1069.61 175.495 1096.48 133.615 1129.82 120.821C1149.27 113.401 1168.89 115.96 1188.16 128.498C1212.73 144.533 1223.98 169.098 1220.66 199.633C1211.96 279.639 1106.37 380.456 1067.65 394.956C1064.58 396.15 1010.42 417.218 939.201 417.218H939.286ZM850.669 383.1C956.173 415.512 1059.12 375.424 1060.14 375.083C1095.37 361.862 1192.17 265.821 1199.59 197.33C1202.07 174.727 1194.56 158.095 1176.65 146.409C1163.26 137.709 1150.46 135.833 1137.59 140.78C1088.54 159.545 1049.31 269.915 1038.31 310.771C1036.86 315.974 1031.74 319.386 1026.45 318.533C1021.08 317.765 1017.16 312.989 1017.41 307.615C1017.5 304.289 1018.44 298.489 1020.23 286.803C1025.68 251.321 1042.4 143.424 1017.75 120.31C1015.28 117.921 1011.27 115.533 1002.91 117.324C954.041 128.242 960.182 246.545 967.261 296.697C967.602 299.086 967.858 300.621 967.943 301.133C968.711 306.933 964.702 312.306 958.903 313.159C953.103 314.012 947.73 310.003 946.791 304.289C946.706 303.521 946.536 302.497 946.365 301.218C942.868 278.615 917.793 130.715 858.431 95.4037C844.699 87.2154 830.37 86.1919 814.592 92.0772C799.581 97.7066 790.625 106.918 787.213 120.224C773.311 174.045 849.305 280.236 883.591 321.518C885.041 323.224 886.15 324.589 886.832 325.356C890.585 329.877 889.988 336.53 885.468 340.283C881.033 344.036 874.295 343.524 870.542 339.003C870.201 338.577 869.348 337.553 867.983 336.018C846.149 310.345 789.516 252.856 752.756 252.686H752.671C744.313 252.686 737.83 255.756 732.372 262.239C727.51 268.039 725.975 274.095 727.51 281.259C735.442 318.789 818.344 367.065 850.584 383.015L850.669 383.1Z" fill="black"/>
<path d="M1245.22 1700.81C1232.77 1700.81 1219.72 1699.44 1206.41 1696.46C1169.23 1688.1 1145.09 1667.54 1140.06 1640.16C1135.71 1616.53 1147.56 1592.31 1170.93 1576.87C1216.9 1546.51 1298.19 1542.33 1341.34 1584.89C1360.87 1604.08 1365.05 1627.88 1352.94 1650.06C1337.67 1677.95 1295.97 1700.81 1245.22 1700.81ZM1254.6 1574.83C1228.42 1574.83 1201.89 1581.99 1182.7 1594.7C1166.41 1605.45 1158.31 1621.06 1161.04 1636.32C1164.36 1654.66 1183.13 1669.33 1211.1 1675.64C1267.99 1688.44 1319.34 1667.11 1334.18 1639.82C1341.68 1626 1339.04 1612.61 1326.33 1600.07C1308.59 1582.59 1281.72 1574.74 1254.52 1574.74L1254.6 1574.83Z" fill="black"/>
<path d="M775.527 1729.04C733.65 1729.04 698.34 1712.75 682.39 1690.31C667.721 1669.76 669.085 1645.62 686.058 1624.21C723.841 1576.79 805.038 1571.16 854.25 1595.81C879.24 1608.35 893.91 1630.95 892.46 1654.92C890.754 1682.72 869.261 1706.01 833.354 1718.8C813.482 1725.88 793.865 1729.04 775.527 1729.04ZM788.492 1602.8C755.484 1602.8 721.624 1613.81 702.69 1637.6C691.517 1651.59 690.493 1665.24 699.619 1678.03C717.701 1703.28 771.178 1718.46 826.104 1698.84C853.141 1689.21 869.944 1672.4 871.052 1653.81C871.991 1638.29 862.097 1623.87 844.612 1615.09C828.663 1607.07 808.705 1602.89 788.406 1602.89L788.492 1602.8Z" fill="black"/>
<path d="M922.568 1510.77C922.568 1510.77 922.568 1510.77 922.653 1510.77C928.197 1510.51 932.974 1514.78 933.229 1520.32C935.362 1561.61 962.484 1606.38 1008.54 1608.18C1032.51 1609.11 1048.8 1597.43 1058.26 1587.53C1076.35 1568.6 1085.98 1539.43 1083.51 1511.45C1083 1505.91 1087.09 1501.05 1092.64 1500.53C1097.84 1500.11 1103.04 1504.12 1103.55 1509.66C1106.54 1543.18 1094.77 1578.32 1072.85 1601.44C1057.33 1617.81 1037.97 1626.94 1016.56 1628.22C1013.66 1628.39 1010.76 1628.39 1007.77 1628.31C949.776 1626 915.745 1571.5 913.101 1521.35C912.845 1515.8 917.024 1511.11 922.568 1510.77Z" fill="black"/>
<path d="M727.338 1480.49L763.757 1487.74C764.354 1485.86 765.036 1484.16 765.889 1482.37L740.131 1458.14C736.123 1454.31 735.867 1447.99 739.705 1443.9C743.543 1439.89 749.854 1439.64 753.948 1443.47L778.256 1466.33C782.862 1462.58 788.235 1459.51 794.632 1457.63C818.086 1450.72 846.573 1460.87 858.855 1487.06C880.434 1533.2 825.166 1573.21 783.459 1546.17C769.642 1537.21 762.477 1522.71 761.369 1507.87L723.414 1500.28C717.956 1499.17 714.459 1493.88 715.482 1488.42C716.591 1482.96 721.879 1479.47 727.338 1480.49Z" fill="black"/>
<path d="M1213.58 1432.47C1220.15 1433.58 1225.86 1435.97 1230.89 1439.21L1252.3 1413.62C1255.88 1409.36 1262.19 1408.76 1266.46 1412.34C1270.72 1415.92 1271.32 1422.24 1267.74 1426.5L1245.05 1453.62C1246.07 1455.24 1247.01 1456.95 1247.78 1458.74L1283.09 1447.14C1288.38 1445.44 1294.09 1448.25 1295.8 1453.54C1297.5 1458.83 1294.69 1464.54 1289.4 1466.25L1252.64 1478.36C1253.32 1493.2 1247.95 1508.55 1235.33 1519.04C1197.12 1550.86 1137.41 1517.76 1153.36 1469.4C1162.4 1441.94 1189.53 1428.46 1213.58 1432.47Z" fill="black"/>
</g>
<defs>
<clipPath id="clip0_157_258">
<rect width="1155" height="1867" fill="white" transform="translate(422 67)"/>
</clipPath>
</defs>
</svg>
