<svg width="2000" height="2000" viewBox="0 0 2000 2000" fill="none" xmlns="http://www.w3.org/2000/svg">
<g clip-path="url(#clip0_157_259)">
<path d="M1125.04 1155.01C1108.21 1188.5 1054.19 1179.15 1023.48 1180.71C985.912 1182.63 905.123 1196.6 881.726 1157.16C870.539 1138.28 841.089 1155.42 852.327 1174.35C883.157 1226.29 951.993 1217.19 1004.53 1215.64C1055.62 1214.1 1127.39 1226.16 1154.46 1172.23C1164.3 1152.66 1134.92 1135.39 1125.07 1155.04L1125.04 1155.01Z" fill="#2D2D2D"/>
<path d="M1231.55 1019.99C1219.62 1040.96 1199.47 1049.73 1177.48 1052.84C1183.22 1048.91 1188.56 1044.21 1193.18 1038.46C1208.41 1019.56 1212.98 997.815 1210.2 976.891C1204.86 936.858 1174.03 914.862 1136.33 911.668C1087.85 907.606 1052.19 944.395 1054.64 991.939C1055.69 1012.15 1063.33 1031.92 1076.84 1044.98C1079.73 1047.76 1082.95 1050.21 1086.27 1052.46C1130.2 1087.77 1229.33 1080.56 1236.71 1021.42C1237.07 1018.59 1232.83 1017.79 1231.55 1020.02V1019.99ZM1153.44 1005.89C1153.82 1008.88 1153.19 1011.97 1151.01 1014.68C1146.83 1019.89 1138.75 1019.73 1134.41 1015.6C1132.5 1013.76 1131.37 1010.9 1131.22 1008.03C1130.89 1001.24 1136 996.001 1142.89 996.589C1148.26 997.049 1152.68 1000.19 1153.42 1005.89H1153.44ZM1114.49 950.73C1125.73 951.701 1134.9 958.242 1136.48 970.198C1137.35 976.432 1136 982.895 1131.42 988.541C1122.66 999.476 1105.78 999.195 1096.69 990.483C1092.7 986.625 1090.4 980.698 1090.1 974.669C1089.33 960.49 1099.98 949.504 1114.46 950.705L1114.49 950.73Z" fill="#2D2D2D"/>
<path d="M928.136 1038.26C943.257 1019.4 947.804 997.764 945.02 976.866C939.707 936.833 908.852 914.836 871.178 911.643C822.699 907.581 787.067 944.369 789.519 991.914C790.567 1012.12 798.204 1031.9 811.716 1044.95C814.832 1047.94 818.254 1050.55 821.856 1052.92C800.656 1049.4 781.039 1039.48 769.954 1019.99C768.677 1017.74 764.437 1018.56 764.795 1021.4C773.019 1087.46 895.8 1088.74 928.162 1038.26H928.136ZM888.291 1005.89C888.674 1008.88 888.035 1011.97 885.864 1014.68C881.675 1019.89 873.604 1019.73 869.262 1015.6C867.346 1013.76 866.248 1010.9 866.095 1008.03C865.763 1001.24 870.871 996.001 877.767 996.589C883.131 997.049 887.55 1000.19 888.291 1005.89ZM849.339 950.731C860.578 951.701 869.747 958.242 871.331 970.198C872.199 976.432 870.846 982.895 866.273 988.541C857.513 999.476 840.604 999.195 831.536 990.483C827.552 986.625 825.253 980.698 824.921 974.669C824.18 960.49 834.806 949.504 849.313 950.705L849.339 950.731Z" fill="#2D2D2D"/>
<path d="M1902.39 812.34C1901.72 781.632 1899.42 749.723 1893.24 719.449C1893.78 717.609 1894.09 715.565 1893.91 713.215C1886.47 617.871 1843.82 524.162 1745.76 493.735C1695.75 478.227 1639.28 476.669 1587.53 472.607C1392.21 457.38 1195.46 456.052 999.653 456.001C804.078 455.95 607.838 458.351 412.722 472.913C361.868 476.694 309.328 480.118 259.725 492.636C159.038 518.056 114.901 618.842 107.571 713.241C107.468 714.492 107.52 715.642 107.647 716.741C87.6733 811.42 98.8352 917.903 101.875 1013.58C104.378 1092.09 107.366 1171 113.828 1249.49C113.471 1251.89 113.599 1254.39 114.441 1256.87C117.43 1291.95 121.057 1326.95 125.808 1361.77C153.061 1562.27 361.101 1543.57 518.16 1543.57H1542.4C1656.75 1543.77 1813.6 1551.44 1862.82 1420.76C1894.85 1335.79 1889.59 1227.62 1894.34 1138.53C1900.14 1030.11 1904.66 920.969 1902.39 812.366V812.34ZM300.592 519.001C359.058 509.14 418.98 506.125 478.084 502.625C651.668 492.304 825.839 490.235 999.679 490.081C1173.77 489.903 1348.12 492.508 1521.96 502.37C1579.33 505.614 1637 509.395 1693.91 517.852C1752.61 526.589 1795.65 555.765 1823.33 598.02C1808.57 587.597 1791.15 579.396 1770.49 574.082C1707.5 557.885 1639.23 556.097 1574.71 551.907C1466.08 544.881 1357.17 541.943 1248.36 539.848C1005.4 535.199 761.933 536.451 519.13 547.155C409.81 551.984 257.375 540.896 170.225 610.743C195.997 563.403 238.934 529.45 300.592 519.001ZM362.813 1508.77C284.986 1506.6 194.388 1486.31 168.029 1401.6C156.995 1366.14 153.93 1327.28 151.222 1289.57C198.373 1318.49 256.43 1322.17 312.648 1322.55C356.453 1322.86 400.308 1316.91 440.282 1339.06C488.556 1365.81 493.23 1457.06 497.7 1509.59C452.721 1509.77 407.716 1510.02 362.787 1508.77H362.813ZM539.334 1509.49C536.78 1509.49 534.226 1509.49 531.671 1509.49C524.417 1434.76 518.16 1343.25 446.463 1303.52C353.643 1252.09 232.778 1324.67 147.902 1244.35C138.553 1126.3 134.594 1007.6 133.011 889.213C131.631 785.311 120.648 632.561 249.355 604.791C429.094 566.035 627.48 575.768 810.105 573.035C1049.69 569.458 1289.86 570.787 1529.19 583.254C1603.19 587.112 1678.94 590.101 1751.77 604.688C1881.21 630.568 1869.51 786.154 1868.44 889.188C1867.22 1004.54 1862.59 1120.04 1854.16 1235.1C1852.2 1235.95 1850.28 1237.22 1848.52 1239.09C1767.96 1323.19 1645.03 1262.87 1548.63 1301.78C1472.54 1332.49 1466.13 1437.31 1459.33 1509.46H539.334V1509.49ZM1638.69 1508.77C1606.66 1510.35 1574.45 1509.54 1542.42 1509.49H1493.41C1498.34 1457.55 1502.88 1393.98 1535.37 1352.47C1563.67 1316.27 1620.38 1321.53 1660.68 1322.35C1726.12 1323.7 1797.13 1321.3 1850.66 1282.37C1847.55 1320.25 1843.64 1358.29 1835.16 1395.26C1814.42 1485.73 1717.03 1504.84 1638.72 1508.75L1638.69 1508.77Z" fill="#2D2D2D"/>
<path d="M1385.03 716.356C1348.28 640.735 1277.22 644.414 1205.16 644.363C1098.99 644.261 992.833 644.286 886.68 644.312C820.373 644.337 735.547 630.976 672.458 656.907C591.643 690.119 598.335 799.821 598.642 871.635C599.102 977.888 598.999 1084.17 598.769 1190.42C598.616 1263.82 588.578 1346.36 630.186 1410.82C666.15 1466.51 739.251 1458.34 796.312 1458.39C956.001 1458.52 1115.95 1460.94 1275.63 1458.24C1277.37 1458.21 1278.93 1457.9 1280.39 1457.47C1384.44 1443.8 1403.88 1353.29 1403.01 1259.96C1402.07 1160.5 1402.53 1060.99 1402.63 961.538C1402.71 887.475 1418.31 784.773 1385.03 716.356ZM1275.61 1424.18C1104.6 1427.07 933.345 1424.49 762.315 1424.28C719.277 1424.23 679.202 1424.03 652.025 1381.92C626.176 1341.87 632.408 1285.53 632.638 1239.55C633.175 1134.34 633.021 1029.14 632.817 923.931C632.664 840.211 609.548 679.21 730.924 678.52C813.962 678.06 897.024 678.341 980.062 678.341C1072.73 678.341 1165.42 678.29 1258.09 678.495C1379.34 678.75 1368.99 801.941 1368.68 890.694C1368.38 986.728 1368.43 1082.76 1368.61 1178.8C1368.76 1264.53 1391.85 1411.89 1275.58 1424.18H1275.61Z" fill="#2D2D2D"/>
<path d="M1481.07 728.007C1516.57 728.033 1552.05 728.109 1587.56 728.007C1590.26 728.901 1593.48 728.85 1597.03 727.624C1597.31 727.573 1597.57 727.471 1597.82 727.394C1600.33 726.755 1602.4 725.606 1604.11 724.098C1620.56 713.752 1618.15 695.255 1618.18 675.788C1618.18 656.755 1613.38 638.258 1590.52 638.258C1553.1 638.233 1515.71 638.13 1478.29 638.258C1450.06 638.36 1453.41 671.394 1453.41 690.478C1453.41 709.536 1458.21 728.007 1481.1 728.007H1481.07ZM1558.62 672.313C1567.12 672.313 1575.63 672.313 1584.13 672.313C1584.13 675.072 1584.13 677.832 1584.13 680.616C1584.13 685.062 1584.13 689.507 1584.13 693.952C1560.4 694.003 1536.68 693.952 1512.95 693.952C1504.44 693.952 1495.94 693.952 1487.43 693.952C1487.43 693.007 1487.43 691.934 1487.43 690.478C1487.43 684.423 1487.43 678.394 1487.4 672.339C1492.82 672.339 1498.26 672.339 1503.67 672.339H1558.62V672.313Z" fill="#2D2D2D"/>
<path d="M527.483 638.258C490.064 638.233 452.67 638.13 415.251 638.258C387.027 638.36 390.373 671.394 390.347 690.478C390.347 709.536 395.149 728.007 418.035 728.007C453.538 728.033 489.016 728.109 524.52 728.007C527.227 728.901 530.42 728.85 533.97 727.624C534.251 727.573 534.507 727.471 534.762 727.394H534.788C537.265 726.755 539.36 725.606 541.071 724.098C557.52 713.752 555.119 695.255 555.119 675.788C555.119 656.729 550.317 638.258 527.457 638.258H527.483ZM424.42 693.952C424.42 693.007 424.42 691.934 424.42 690.478C424.42 684.423 424.42 678.394 424.395 672.339C429.81 672.339 435.25 672.339 440.665 672.339H495.606C504.112 672.339 512.617 672.339 521.123 672.339C521.123 675.098 521.123 677.857 521.123 680.642C521.123 685.087 521.123 689.532 521.123 693.978C497.394 694.029 473.666 693.978 449.937 693.978C441.431 693.978 432.926 693.978 424.42 693.978V693.952Z" fill="#2D2D2D"/>
<path d="M525.387 962.968C514.532 956.402 500.203 956.837 487.993 956.913C474.558 956.99 461.123 956.964 447.688 956.964C448.812 932.592 451.443 904.362 443.014 882.927C432.439 856.025 404.445 858.912 380.717 858.912C356.682 858.912 330.424 855.029 316.07 878.865C309.531 889.723 309.965 904.03 310.042 916.267C310.118 929.833 310.093 943.398 310.093 956.964C296.402 956.964 282.737 956.964 269.072 956.913C256.94 956.862 242.79 956.453 232.011 962.968C208.18 977.326 212.088 1003.59 212.088 1027.63C212.088 1051.67 209.202 1079.36 236.098 1089.94C257.323 1098.29 285.215 1095.97 309.71 1094.74C308.586 1119.01 306.057 1146.96 314.41 1168.24C324.984 1195.15 352.978 1192.26 376.681 1192.28C400.716 1192.28 426.999 1196.17 441.354 1172.33C447.892 1161.45 447.458 1147.14 447.382 1134.9C447.305 1121.49 447.331 1108.03 447.356 1094.59C471.723 1095.69 499.947 1098.35 521.377 1089.91C548.273 1079.31 545.361 1051.34 545.387 1027.6C545.387 1003.54 549.269 977.3 525.464 962.942L525.387 962.968ZM499.155 1060.18C477.394 1061.76 454.968 1060.13 433.129 1060.18C430.83 1060.18 428.812 1060.64 426.999 1061.3C419.72 1062.53 413.257 1067.92 413.232 1077.5C413.206 1098.83 412.9 1120.19 413.334 1141.52C413.819 1163.93 397.983 1158.25 380.717 1158.28C366.362 1158.28 345.469 1164.64 344.115 1146.15C342.531 1124.35 344.166 1101.95 344.141 1080.1C344.141 1077.75 343.681 1075.71 342.991 1073.87C341.714 1066.62 336.35 1060.2 326.823 1060.2C305.495 1060.2 284.142 1059.82 262.84 1060.33C240.465 1060.84 246.11 1044.95 246.11 1027.71C246.11 1013.37 239.75 992.425 258.217 991.071C279.979 989.487 302.43 991.122 324.243 991.071C326.516 991.071 328.509 990.636 330.322 989.972C337.653 988.771 344.141 983.355 344.166 973.775C344.166 952.442 344.524 931.085 344.038 909.752C343.528 887.372 359.389 893.018 376.656 893.018C390.985 893.018 411.929 886.657 413.283 905.128C414.867 926.895 413.232 949.326 413.283 971.169C413.283 973.417 413.717 975.41 414.381 977.198C415.582 984.53 420.997 991.071 430.6 991.071C451.928 991.071 473.281 991.428 494.583 990.943C516.958 990.432 511.313 1006.32 511.313 1023.57C511.313 1037.9 517.673 1058.85 499.206 1060.2L499.155 1060.18Z" fill="#2D2D2D"/>
<path d="M1542.7 822.073C1501.58 821.179 1471.59 852.909 1468.83 892.074C1468.6 893.351 1468.5 894.705 1468.55 896.187C1468.53 897.669 1468.68 899.048 1468.94 900.326C1477.31 991.454 1614.53 989.896 1617.57 894.91C1618.92 852.245 1582.98 822.967 1542.7 822.073ZM1502.6 896.187C1503.67 844.504 1581.76 843.15 1583.49 894.91C1585.31 947.87 1504.98 947.334 1502.6 896.187Z" fill="#2D2D2D"/>
<path d="M1626.84 983.483C1631.05 1022.9 1660.73 1049.86 1700.99 1051.52C1744.26 1053.3 1773.83 1017.9 1775.14 977.019C1776.49 934.354 1740.55 905.077 1700.27 904.183C1659.15 903.288 1629.16 935.019 1626.41 974.158C1626.18 975.435 1626.07 976.815 1626.12 978.271C1626.07 980.187 1626.38 981.873 1626.81 983.457L1626.84 983.483ZM1741.09 977.019C1742.88 1029.98 1662.6 1029.47 1660.2 978.271C1661.27 926.588 1739.33 925.259 1741.09 977.019Z" fill="#2D2D2D"/>
<path d="M1542.7 999.654C1501.58 998.735 1471.59 1030.49 1468.83 1069.63C1468.6 1070.91 1468.5 1072.26 1468.55 1073.74C1468.53 1075.22 1468.68 1076.6 1468.94 1077.88C1477.31 1169.01 1614.53 1167.48 1617.57 1072.49C1618.92 1029.83 1582.98 1000.52 1542.7 999.654ZM1502.6 1073.74C1503.67 1022.06 1581.76 1020.73 1583.49 1072.49C1585.31 1125.45 1504.98 1124.91 1502.6 1073.74Z" fill="#2D2D2D"/>
<path d="M1775.14 1154.63C1776.49 1111.96 1740.55 1082.68 1700.27 1081.82C1659.15 1080.9 1629.16 1112.65 1626.41 1151.79C1626.18 1153.07 1626.07 1154.45 1626.12 1155.9C1626.1 1157.39 1626.25 1158.77 1626.51 1160.04C1634.89 1251.17 1772.1 1249.61 1775.11 1154.63H1775.14ZM1741.09 1154.63C1742.88 1207.59 1662.6 1207.05 1660.2 1155.9C1661.27 1104.25 1739.33 1102.89 1741.09 1154.63Z" fill="#2D2D2D"/>
<path d="M1335.35 830.478C1336.09 780.558 1332.54 712.627 1269.81 712.295C1155.1 711.681 1040.39 712.09 925.684 712.116C871.28 712.116 816.901 712.141 762.496 712.192C743.416 712.218 721.603 709.638 703.417 716.765C653.176 736.412 666.177 825.905 666.381 868.902C666.994 1003.33 668.041 1137.87 666.1 1272.3C665.41 1319.31 667.76 1387.44 727.222 1390.48C817.922 1395.11 909.95 1390.69 1000.73 1390.69C1091.5 1390.69 1189.28 1397.64 1281.82 1389.92C1340.95 1384.99 1335.51 1298.84 1335.17 1257.38C1334.03 1115.16 1333.26 972.728 1335.33 830.504L1335.35 830.478ZM1271.5 1370.07C1181.26 1370.71 1090.97 1370.22 1000.73 1370.22C935.135 1370.22 869.568 1370.22 803.976 1370.15C775.752 1370.15 745.153 1373.47 717.082 1369.13C670.085 1361.84 686.917 1205.77 686.994 1167.25C687.147 1080.82 687.147 994.392 686.942 907.964C686.84 862.208 667.863 733.065 729.955 732.682C839.199 732.017 948.493 732.528 1057.74 732.528C1115.23 732.528 1172.73 732.528 1230.22 732.631C1252.88 732.656 1288.46 725.528 1302.63 747.729C1321.46 777.211 1314.87 821.996 1314.66 856.154C1314.43 892.534 1314.41 928.939 1314.36 965.319C1314.26 1050.01 1314.26 1134.7 1314.54 1219.37C1314.66 1263.21 1331.22 1369.59 1271.47 1370.02L1271.5 1370.07Z" fill="#2D2D2D"/>
<path d="M1781.62 1394.39C1735.8 1463.55 1660.4 1455.12 1588.58 1475.23C1586.18 1475.89 1586.82 1479.24 1589.14 1479.41C1646.3 1483.76 1792.91 1484.52 1790.26 1396.74C1790.1 1392.02 1784.15 1390.59 1781.62 1394.39Z" fill="#2D2D2D"/>
<path d="M446.437 1479.13C412.926 1470.14 378.138 1471.65 343.962 1466.49C304.755 1460.56 270.759 1442.37 233.493 1430.47C231.832 1429.93 230.504 1432.23 231.781 1433.4C288.306 1484.93 371.548 1505.09 446.437 1485.09C449.4 1484.3 449.374 1479.93 446.437 1479.13Z" fill="#2D2D2D"/>
</g>
<defs>
<clipPath id="clip0_157_259">
<rect width="1807" height="1088" fill="white" transform="translate(96 456)"/>
</clipPath>
</defs>
</svg>
