<svg width="2000" height="2000" viewBox="0 0 2000 2000" fill="none" xmlns="http://www.w3.org/2000/svg">
<g clip-path="url(#clip0_157_260)">
<path d="M623.816 1241.34C605.594 1241.99 590.29 1254.81 587.242 1272.39C586.81 1273.82 586.529 1275.35 586.572 1277.13C586.507 1278.73 586.723 1280.15 587.048 1281.47C589.382 1300.26 603.216 1313.86 622.973 1314.38C644.199 1314.92 660.086 1297.36 660.173 1276.87C660.259 1256.41 644.199 1240.65 623.837 1241.36L623.816 1241.34ZM618.412 1284.61C618.412 1284.61 618.368 1284.61 618.325 1284.59C618.368 1284.59 618.368 1284.59 618.412 1284.61ZM630.711 1281.67C630.884 1281.06 630.43 1282.16 629.781 1282.9C628.549 1284.26 629.5 1283.44 626.885 1284.89C629.09 1283.68 621.546 1285.77 624.421 1285.51C623.47 1285.58 622.497 1285.58 621.546 1285.51C621.351 1285.47 621.351 1285.47 621.07 1285.43C620.163 1285.21 619.276 1284.93 618.412 1284.63C620.53 1285.32 617.569 1283.7 618.001 1284.26C615.861 1282.44 615.472 1281.19 615.386 1277.17C615.472 1275.35 615.731 1274.83 617.331 1273.19C619.017 1271.44 620.897 1270.81 624.831 1270.01C621.373 1270.7 629.241 1270.47 625.588 1269.97C628.787 1270.42 628.787 1270.85 629.781 1271.44C628.787 1270.83 629.781 1271.5 630.387 1272.45C630.127 1271.31 630.257 1271.63 630.776 1273.43C631.467 1275.5 631.23 1274.55 631.338 1276.91C631.467 1279.16 631.467 1279.14 630.689 1281.71L630.711 1281.67Z" fill="#2D2D2D"/>
<path d="M707.575 1241.34C689.354 1241.99 674.071 1254.81 670.98 1272.39C670.548 1273.82 670.267 1275.35 670.31 1277.13C670.245 1278.73 670.462 1280.13 670.786 1281.47C673.12 1300.26 686.954 1313.86 706.711 1314.38C727.937 1314.92 743.825 1297.36 743.911 1276.87C743.998 1256.41 727.937 1240.65 707.575 1241.36V1241.34ZM702.172 1284.61C702.172 1284.61 702.128 1284.61 702.085 1284.59C702.128 1284.59 702.128 1284.59 702.172 1284.61ZM714.471 1281.67C714.644 1281.06 714.19 1282.16 713.541 1282.9C712.309 1284.26 713.26 1283.44 710.645 1284.89C712.85 1283.68 705.306 1285.77 708.181 1285.51C707.23 1285.58 706.257 1285.58 705.306 1285.51C705.111 1285.47 705.111 1285.47 704.83 1285.43C703.922 1285.21 703.036 1284.93 702.172 1284.63C704.29 1285.32 701.329 1283.7 701.761 1284.26C699.621 1282.44 699.253 1281.19 699.145 1277.17C699.232 1275.35 699.491 1274.83 701.091 1273.19C702.777 1271.44 704.657 1270.81 708.591 1270.01C705.111 1270.7 713.001 1270.47 709.348 1269.97C712.547 1270.42 712.547 1270.85 713.541 1271.44C712.547 1270.83 713.541 1271.5 714.147 1272.45C713.887 1271.31 714.017 1271.63 714.536 1273.43C715.227 1275.5 714.99 1274.55 715.098 1276.91C715.227 1279.16 715.227 1279.14 714.449 1281.71L714.471 1281.67Z" fill="#2D2D2D"/>
<path d="M791.314 1241.34C773.092 1241.99 757.81 1254.83 754.74 1272.39C754.308 1273.82 754.027 1275.35 754.07 1277.13C754.005 1278.73 754.221 1280.15 754.546 1281.47C756.88 1300.26 770.714 1313.86 790.471 1314.38C811.697 1314.92 827.584 1297.36 827.671 1276.87C827.757 1256.41 811.697 1240.65 791.314 1241.36V1241.34ZM785.91 1284.61C785.91 1284.61 785.866 1284.61 785.823 1284.59C785.866 1284.59 785.866 1284.59 785.91 1284.61ZM798.209 1281.67C798.382 1281.06 797.928 1282.16 797.258 1282.9C796.047 1284.26 796.998 1283.44 794.361 1284.89C796.566 1283.68 789.022 1285.77 791.897 1285.51C790.946 1285.58 789.973 1285.58 789.022 1285.51C788.828 1285.47 788.828 1285.47 788.547 1285.43C787.639 1285.21 786.753 1284.93 785.888 1284.63C788.006 1285.32 785.045 1283.7 785.477 1284.26C783.337 1282.44 782.97 1281.19 782.862 1277.17C782.948 1275.35 783.208 1274.83 784.807 1273.19C786.493 1271.44 788.374 1270.81 792.308 1270.01C788.828 1270.7 796.717 1270.47 793.064 1269.97C796.264 1270.42 796.264 1270.85 797.258 1271.44C796.264 1270.83 797.258 1271.5 797.863 1272.45C797.604 1271.31 797.733 1271.63 798.252 1273.43C798.944 1275.5 798.684 1274.55 798.814 1276.91C798.944 1279.16 798.944 1279.14 798.166 1281.71L798.209 1281.67Z" fill="#2D2D2D"/>
<path d="M875.073 1241.34C856.851 1241.99 841.569 1254.81 838.5 1272.39C838.068 1273.82 837.765 1275.37 837.83 1277.15C837.765 1278.75 837.981 1280.17 838.305 1281.49C840.64 1300.28 854.474 1313.88 874.23 1314.38C895.457 1314.92 911.344 1297.36 911.431 1276.87C911.517 1256.41 895.457 1240.65 875.095 1241.36L875.073 1241.34ZM869.648 1284.61C869.648 1284.61 869.605 1284.61 869.561 1284.59C869.605 1284.59 869.605 1284.59 869.648 1284.61ZM881.925 1281.67C882.098 1281.06 881.644 1282.16 880.996 1282.9C879.764 1284.26 880.715 1283.44 878.1 1284.89C880.304 1283.68 872.761 1285.77 875.635 1285.51C874.684 1285.58 873.712 1285.58 872.761 1285.51C872.566 1285.47 872.566 1285.47 872.285 1285.43C871.377 1285.21 870.491 1284.93 869.626 1284.63C871.745 1285.32 868.783 1283.7 869.216 1284.26C867.076 1282.44 866.687 1281.19 866.6 1277.17C866.687 1275.35 866.946 1274.83 868.545 1273.19C870.232 1271.44 872.112 1270.81 876.046 1270.01C872.566 1270.7 880.456 1270.47 876.803 1269.97C880.023 1270.42 880.002 1270.85 880.996 1271.44C880.002 1270.83 880.996 1271.5 881.601 1272.45C881.342 1271.31 881.472 1271.63 881.99 1273.43C882.704 1275.5 882.444 1274.55 882.574 1276.91C882.682 1279.16 882.682 1279.14 881.925 1281.71V1281.67Z" fill="#2D2D2D"/>
<path d="M958.833 1241.34C940.611 1241.99 925.329 1254.81 922.26 1272.39C921.827 1273.82 921.546 1275.35 921.59 1277.13C921.525 1278.73 921.741 1280.13 922.065 1281.47C924.4 1300.26 938.234 1313.86 957.99 1314.38C979.217 1314.92 995.104 1297.36 995.19 1276.87C995.277 1256.41 979.217 1240.65 958.855 1241.36L958.833 1241.34ZM953.429 1284.61C953.429 1284.61 953.386 1284.61 953.343 1284.59C953.386 1284.59 953.386 1284.59 953.429 1284.61ZM965.707 1281.67C965.88 1281.06 965.426 1282.16 964.777 1282.9C963.567 1284.26 964.518 1283.44 961.881 1284.89C964.086 1283.68 956.542 1285.77 959.417 1285.51C958.466 1285.58 957.493 1285.58 956.542 1285.51C956.347 1285.47 956.347 1285.47 956.066 1285.43C955.158 1285.21 954.272 1284.93 953.408 1284.63C955.526 1285.32 952.565 1283.7 952.997 1284.26C950.857 1282.44 950.468 1281.19 950.381 1277.17C950.468 1275.35 950.727 1274.83 952.327 1273.19C954.013 1271.44 955.893 1270.81 959.827 1270.01C956.347 1270.7 964.237 1270.47 960.584 1269.97C963.783 1270.42 963.783 1270.85 964.777 1271.44C963.783 1270.83 964.777 1271.5 965.383 1272.45C965.123 1271.31 965.253 1271.63 965.772 1273.43C966.463 1275.5 966.226 1274.55 966.334 1276.91C966.463 1279.16 966.463 1279.14 965.685 1281.71L965.707 1281.67Z" fill="#2D2D2D"/>
<path d="M1042.59 1241.34C1024.37 1241.99 1009.07 1254.81 1006.02 1272.39C1005.59 1273.82 1005.31 1275.35 1005.35 1277.13C1005.28 1278.73 1005.5 1280.15 1005.82 1281.47C1008.16 1300.26 1021.99 1313.86 1041.75 1314.38C1062.98 1314.92 1078.86 1297.36 1078.95 1276.87C1079.04 1256.41 1062.98 1240.65 1042.61 1241.36L1042.59 1241.34ZM1037.19 1284.61C1037.19 1284.61 1037.15 1284.61 1037.1 1284.59C1037.15 1284.59 1037.15 1284.59 1037.19 1284.61ZM1049.47 1281.67C1049.64 1281.06 1049.19 1282.16 1048.54 1282.9C1047.31 1284.26 1048.26 1283.44 1045.64 1284.89C1047.85 1283.68 1040.3 1285.77 1043.18 1285.51C1042.23 1285.58 1041.25 1285.58 1040.3 1285.51C1040.11 1285.47 1040.11 1285.47 1039.83 1285.43C1038.92 1285.21 1038.03 1284.93 1037.17 1284.63C1039.29 1285.32 1036.32 1283.7 1036.76 1284.26C1034.62 1282.44 1034.23 1281.19 1034.14 1277.17C1034.23 1275.35 1034.49 1274.83 1036.09 1273.19C1037.77 1271.44 1039.65 1270.81 1043.59 1270.01C1040.13 1270.7 1048 1270.47 1044.34 1269.97C1047.54 1270.42 1047.54 1270.85 1048.54 1271.44C1047.54 1270.83 1048.54 1271.5 1049.14 1272.45C1048.88 1271.31 1049.01 1271.63 1049.53 1273.43C1050.22 1275.5 1049.99 1274.55 1050.09 1276.91C1050.22 1279.16 1050.22 1279.14 1049.44 1281.71L1049.47 1281.67Z" fill="#2D2D2D"/>
<path d="M1126.35 1241.34C1108.13 1241.99 1092.83 1254.81 1089.78 1272.39C1089.35 1273.82 1089.07 1275.35 1089.11 1277.13C1089.04 1278.73 1089.26 1280.13 1089.58 1281.47C1091.9 1300.26 1105.75 1313.86 1125.51 1314.38C1146.74 1314.92 1162.62 1297.36 1162.71 1276.87C1162.8 1256.41 1146.74 1240.65 1126.37 1241.36L1126.35 1241.34ZM1120.95 1284.61C1120.95 1284.61 1120.91 1284.61 1120.86 1284.59C1120.91 1284.59 1120.91 1284.59 1120.95 1284.61ZM1133.23 1281.67C1133.4 1281.06 1132.95 1282.16 1132.3 1282.9C1131.09 1284.26 1132.04 1283.44 1129.4 1284.89C1131.61 1283.68 1124.06 1285.77 1126.94 1285.51C1125.99 1285.58 1125.01 1285.58 1124.06 1285.51C1123.87 1285.47 1123.87 1285.47 1123.59 1285.43C1122.68 1285.21 1121.79 1284.93 1120.93 1284.63C1123.05 1285.32 1120.08 1283.7 1120.52 1284.26C1118.38 1282.44 1117.99 1281.19 1117.9 1277.17C1117.99 1275.35 1118.25 1274.83 1119.85 1273.19C1121.53 1271.44 1123.41 1270.81 1127.35 1270.01C1123.87 1270.7 1131.76 1270.47 1128.1 1269.97C1131.3 1270.42 1131.3 1270.85 1132.3 1271.44C1131.3 1270.83 1132.3 1271.5 1132.9 1272.45C1132.64 1271.31 1132.77 1271.63 1133.29 1273.43C1133.98 1275.5 1133.72 1274.55 1133.85 1276.91C1133.98 1279.16 1133.98 1279.14 1133.2 1281.71L1133.23 1281.67Z" fill="#2D2D2D"/>
<path d="M1173.52 1272.41C1173.09 1273.84 1172.8 1275.37 1172.85 1277.15C1172.78 1278.75 1173 1280.17 1173.32 1281.49C1175.66 1300.28 1189.49 1313.88 1209.25 1314.4C1230.47 1314.94 1246.36 1297.39 1246.45 1276.89C1246.53 1256.43 1230.47 1240.67 1210.11 1241.38C1191.87 1242.03 1176.59 1254.85 1173.54 1272.43L1173.52 1272.41ZM1204.69 1284.61C1204.69 1284.61 1204.64 1284.61 1204.6 1284.58C1204.64 1284.58 1204.64 1284.58 1204.69 1284.61ZM1203.61 1273.17C1205.29 1271.42 1207.17 1270.79 1211.11 1269.99C1207.65 1270.68 1215.52 1270.44 1211.86 1269.95C1215.08 1270.4 1215.06 1270.83 1216.06 1271.42C1215.06 1270.81 1216.06 1271.48 1216.66 1272.43C1216.4 1271.29 1216.53 1271.61 1217.05 1273.41C1217.74 1275.48 1217.51 1274.53 1217.63 1276.89C1217.74 1279.14 1217.74 1279.11 1216.99 1281.69C1217.16 1281.08 1216.71 1282.18 1216.06 1282.92C1214.82 1284.28 1215.78 1283.46 1213.16 1284.91C1215.37 1283.7 1207.82 1285.8 1210.7 1285.54C1209.75 1285.6 1208.77 1285.6 1207.82 1285.54C1207.63 1285.49 1207.63 1285.49 1207.35 1285.45C1206.44 1285.23 1205.55 1284.95 1204.69 1284.65C1206.81 1285.34 1203.84 1283.72 1204.28 1284.28C1202.14 1282.47 1201.77 1281.21 1201.66 1277.19C1201.75 1275.37 1202.01 1274.85 1203.61 1273.21V1273.17Z" fill="#2D2D2D"/>
<path d="M1151.64 1682.66C1121.12 1700.5 1091.44 1715.94 1057.23 1725.56C1020.87 1735.79 981.897 1739.42 944.524 1744.37C942.276 1744.67 942.255 1747.62 944.524 1747.87C1013.2 1756.2 1112.41 1749.67 1156.57 1687.57C1158.73 1684.52 1154.61 1680.91 1151.64 1682.64V1682.66Z" fill="#2D2D2D"/>
<path d="M1176.22 1658.79C1170.45 1661.12 1166.69 1667.03 1163.23 1672.02C1162.23 1673.45 1163.55 1675.42 1165.17 1675.42C1172.09 1675.37 1180.31 1672.15 1182.47 1665.02C1183.48 1661.62 1179.87 1657.32 1176.24 1658.79H1176.22Z" fill="#2D2D2D"/>
<path d="M1452.08 867.504C1399.59 855.741 1340.61 856.93 1291 878.142C1297.44 869.644 1303.92 861.211 1310.56 852.886C1359.78 793.143 1417.64 747.973 1473.52 695.084C1503.39 666.823 1569.19 605.522 1544.27 557.195C1515.15 500.76 1421.73 506.295 1370.39 517.712C1307.51 531.702 1255.61 571.401 1214.24 620.139C1259.16 492.673 1304.85 359.844 1295.28 230.929C1288.49 139.335 1205.9 116.004 1128.06 135.292C1037.06 157.844 988.317 219.88 955.937 295.798C917.483 217.675 849.999 139.573 753.594 167.856C673.12 191.446 672.839 311.625 672.255 377.207C671.671 443.546 681.787 509.82 694.151 575.531C665.143 542.621 628.829 516.155 585.858 507.117C521.184 493.516 484.87 558.276 478.948 612.463C470.582 688.921 534.197 769.725 565.453 834.961C575.569 856.108 585.188 877.536 594.223 899.203C565.885 882.769 535.321 873.558 500.131 878.488C465.092 883.396 444.06 916.371 447.303 949.562C450.696 984.158 481.26 1006.21 504.605 1028.07C550.149 1070.76 579.697 1124.4 592.126 1185.27C574.683 1188.75 558.039 1194.92 543.297 1205.71C507.783 1231.7 517.294 1292.22 520.493 1329.13C525.572 1388.05 533.527 1445.26 534.586 1504.53C535.494 1555.71 539.06 1604.34 562.319 1650.74C586.29 1698.55 634.774 1737.69 679.734 1764.57C694.432 1773.35 710.341 1779.44 726.856 1783.92C725.083 1826.39 728.909 1857.11 779.036 1866.37C821.834 1874.28 872.695 1866.89 916.488 1866.89C960.281 1866.89 1006.26 1870.73 1050.12 1866.89C1103.09 1862.24 1107.7 1826.36 1106.08 1783.77C1199.39 1758.95 1279.39 1670.96 1293.92 1576.92C1301.91 1525.14 1296.77 1472.1 1301.76 1420.01C1307.43 1360.98 1320.74 1301.93 1311.73 1242.59C1305.61 1202.42 1263.48 1188.64 1228.96 1183.59C1222.24 1182.59 1215.41 1181.92 1208.58 1181.27C1231.9 1087.06 1334.32 1051.84 1416.87 1024.98C1455.12 1012.53 1536.18 992.894 1550.73 948.113C1567.46 896.673 1486.94 875.353 1452.06 867.547L1452.08 867.504ZM1225.65 974.731C1259.18 950.838 1295.86 933.799 1335.33 921.604C1356.54 915.052 1378.37 910.706 1400.24 907.073C1419.46 903.873 1442.76 899.505 1463.81 900.067C1465.02 900.37 1466.24 900.651 1467.42 900.954C1475.57 903.138 1491.27 907.916 1503.74 914.814C1392.29 916.674 1280.77 947.832 1199.09 1023.19C1207.37 1006.75 1216.25 990.58 1225.65 974.709V974.731ZM1246.62 945.518C1289.05 895.462 1354.38 884.218 1416.84 891.353C1393.72 894.856 1370.72 900.586 1350.61 905.473C1311.53 914.965 1274.05 930.382 1239.9 951.465C1240.29 950.838 1240.68 950.189 1241.09 949.54C1243.01 948.805 1244.89 947.551 1246.6 945.54L1246.62 945.518ZM1410.4 713.376C1366.72 751.454 1327.29 787.434 1290.18 832.496C1208.58 934.988 1138.91 1049.7 1113.86 1179.82C1100.26 1180.34 1086.71 1180.97 1073.27 1181.62C1109.86 1044.1 1181.65 918.252 1274.03 810.571C1333.56 741.183 1409.6 665.006 1497.45 630.345C1473.78 662.412 1436.62 690.521 1410.38 713.398L1410.4 713.376ZM1141.89 841.189C1212.32 720.642 1317.78 610.539 1436.04 539.94C1458.76 539.94 1481.65 542.751 1497.62 550.622C1462.06 564.59 1428.17 593.673 1399.05 615.836C1355.02 649.373 1313.91 686.586 1275.13 726.047C1207.58 794.808 1149.09 872.844 1104.74 958.211C1116.84 918.966 1129.51 879.915 1141.92 841.167L1141.89 841.189ZM1066.91 1093.87C1108.67 961.995 1185.17 846.119 1279.93 745.984C1316.44 707.409 1356.08 671.774 1397.61 638.713C1429.6 613.22 1473.13 575.704 1513.57 563.487C1519 571.228 1520.6 581.261 1516.69 594.105C1514.57 601.025 1511.48 607.771 1507.78 614.387C1411.96 646.951 1330.47 728.318 1265.86 802.441C1170.79 911.484 1097.78 1041.93 1061.14 1182.18C1057.03 1182.37 1052.9 1182.57 1048.82 1182.74C1053.66 1153.12 1059.82 1123.47 1066.91 1093.89V1093.87ZM1180.07 721.096C1222.54 644.27 1280.43 577.888 1365.53 549C1375.19 545.714 1392.57 542.47 1412.22 540.913C1312.14 604.657 1222.22 695.948 1155.84 796.992C1159.77 784.364 1163.66 771.758 1167.44 759.195C1171.05 747.151 1174.92 734.999 1178.9 722.804C1179.29 722.263 1179.7 721.744 1180.07 721.117V721.096ZM1154.95 707.127C1154.22 708.598 1153.76 710.025 1153.52 711.43C1142.46 744.859 1131.67 778.18 1121.79 811.457C1085.8 932.739 1039.11 1058.17 1019.62 1183.63C1015.27 1183.71 1010.93 1183.71 1006.58 1183.8C1050.22 871.979 1134.37 561.649 1268.73 276.034C1266.25 315.28 1255.12 356.06 1248.09 391.305C1226.91 497.473 1189.6 602.668 1154.93 707.127H1154.95ZM1265.08 221.934C1267.18 230.691 1268.32 239.751 1268.89 248.984C1128.06 541.519 1040.24 860.563 995.407 1181.4C995.277 1182.33 995.363 1183.2 995.58 1183.97C988.598 1184.08 981.616 1184.17 974.612 1184.26C1001.65 975.812 1034.38 767.671 1083.12 563.077C1115.22 428.302 1152.7 286.781 1223.43 166.104C1243.06 176.008 1258.36 193.781 1265.1 221.934H1265.08ZM1207.04 159.834C1138.48 277.829 1101.75 414.917 1069.44 546.168C1017.8 755.952 985.031 970.385 957.299 1184.47C949.798 1184.54 942.276 1184.71 934.775 1184.75C953.905 946.643 978.201 707.711 1025.11 473.256C1038.59 405.793 1054.27 338.546 1075.41 273.029C1086.97 237.157 1100.13 200.398 1120.15 168.137C1120.43 168.029 1120.69 167.877 1120.97 167.769C1149.63 156.677 1180.78 152.785 1207.07 159.812L1207.04 159.834ZM1102.12 176.181C1086.67 204.636 1075.58 235.773 1065.51 266.239C1043.46 332.816 1027.87 401.533 1014 470.207C966.42 705.484 942.47 945.756 923.254 1184.77C916.467 1184.8 909.701 1184.75 902.914 1184.75C902.849 951.184 893.273 711.668 933.457 480.694C954.532 359.477 986.458 232.227 1102.12 176.224V176.181ZM940.33 330.329C940.741 331.281 941.217 332.081 941.714 332.837C936.829 346.827 932.289 361.12 928.031 375.586C921.438 397.9 915.84 420.539 910.652 443.308C907.107 412.106 901.574 380.926 896.645 350.395C889.88 308.49 884.087 262.931 870.664 221.437C903.044 249.46 924.097 292.814 940.33 330.351V330.329ZM818.354 194.56C831.583 197.414 843.45 202.625 854.279 209.393C871.053 252.336 876.867 301.809 884.368 346.46C891.847 390.981 900.234 436.886 902.309 482.316C892.063 535.075 885.06 588.808 880.347 643.081C873.971 588.462 865.951 534.059 857.435 480.197C846.93 413.815 834.479 347.649 818.7 282.305C811.653 253.136 805.061 219.772 791.227 191.9C799.678 191.684 808.692 192.441 818.354 194.538V194.56ZM772.875 194.344C789.497 224.421 796.155 262.607 804.001 295.106C819.132 357.725 830.48 421.275 840.769 484.824C855.209 574.104 867.767 665.136 873.495 756.211C868.178 900.262 874.036 1045.8 874.1 1184.69C862.752 1184.64 851.404 1184.64 840.056 1184.54C833.29 956.762 820.451 727.756 783.618 502.598C774.064 444.151 762.629 385.835 746.656 328.772C739.025 301.571 730.552 273.18 716.934 248.141C727.72 220.118 746.526 200.874 772.897 194.344H772.875ZM710.19 271.083C710.709 268.618 711.336 266.239 711.941 263.861C722.144 285.527 729.039 309.074 735.524 331.843C751.714 388.819 762.802 447.265 772.486 505.647C809.6 729.55 821.769 957.822 828.492 1184.39C817.144 1184.28 805.796 1184.1 794.447 1183.95C794.447 1183.95 794.447 1183.95 794.447 1183.93C798.662 998.624 766.844 819.674 735.113 639.254C735.48 636.767 735.07 634.064 733.729 631.296C726.64 590.992 719.593 550.622 712.979 510.079C700.225 431.913 693.957 349.292 710.169 271.104L710.19 271.083ZM707.423 643.167C710.622 659.363 713.8 675.515 716.805 691.602C721.236 715.387 725.429 739.216 729.471 763.022C715.183 728.685 698.496 695.278 681.096 662.866C664.949 632.81 647.354 603.446 628.051 575.293C619.859 563.358 611.018 550.211 600.232 539.875C644.652 560.439 690.715 615.166 707.423 643.146V643.167ZM584.41 534.08C582.832 536.589 582.767 540.286 585.858 542.492C600.664 553.044 611.256 571.12 621.307 585.802C639.551 612.398 655.719 640.4 671.153 668.704C697.675 717.333 722.165 768.644 738.939 821.944C749.293 890.272 757.247 958.816 761.786 1027.68C746.547 946.924 720.739 867.936 689.785 792.17C654.271 705.225 610.024 607.014 540.941 540.74C553.78 531.291 568.717 529.972 584.388 534.102L584.41 534.08ZM519.39 569.39C522.265 563.033 525.399 557.606 528.793 553C598.589 620.031 642.037 720.598 677.897 808.387C725.905 925.928 759.625 1053.31 759.387 1180.9C759.387 1181.88 759.668 1182.66 759.906 1183.46C750.719 1183.28 741.554 1183.04 732.368 1182.85C723.181 1057.09 689.915 934.188 643.312 817.36C611.213 736.902 572.889 648.595 514.138 583.229C515.608 578.623 517.315 574.018 519.412 569.39H519.39ZM510.658 596.959C565.323 660.314 601.248 744.254 632.18 820.431C678.977 935.637 711.682 1058.32 720.803 1182.61C712.546 1182.44 704.289 1182.27 696.054 1182.07C696.162 1181.08 696.183 1180.02 696.075 1178.89C683.711 1041.89 636.244 913.495 576.044 790.786C546.583 730.718 497.299 665.655 510.636 596.981L510.658 596.959ZM656.087 1177.85C630.905 1087.64 564.761 988.591 475.749 948.61C474.063 941.129 475.165 934.21 478.278 928.155C512.516 939.032 546.042 975.985 569.084 998.84C614.325 1043.71 650.791 1098.95 665.381 1161.36C666.03 1167.19 666.7 1173.03 667.219 1178.87C667.305 1179.78 667.5 1180.58 667.694 1181.4C663.803 1181.29 659.869 1181.21 655.914 1181.14C656.238 1180.17 656.389 1179.11 656.043 1177.85H656.087ZM507.848 906.208C509.987 905.603 512.171 905.149 514.332 904.803C535.775 918.793 555.575 935.788 574.575 952.546C595.801 971.293 623.253 994.624 637.389 1021.59C642.858 1040.81 647.7 1060.18 651.915 1079.71C633.044 1045.78 608.597 1014.82 581.34 986.623C559.314 963.833 524.924 928.242 490.771 914.252C495.764 910.749 501.601 907.981 507.848 906.208ZM627.079 987.769C616.249 975.531 604.188 964.33 593.38 954.124C575.418 937.15 556.028 919.939 535.407 905.041C563.745 909.69 591.953 930.101 611.71 945.994C612.099 946.318 612.51 946.513 612.92 946.773C617.914 960.352 622.626 974.017 627.079 987.791V987.769ZM531.019 1013.44C514.894 996.916 496.802 984.093 483.638 964.979C563.14 1006.56 622.064 1098.85 644.976 1180.9C644.976 1180.95 645.019 1180.97 645.041 1181.01C637.022 1180.99 628.959 1181.16 620.94 1181.64C608.554 1116.53 577.19 1060.7 531.041 1013.44H531.019ZM1208.25 1544.08C1163.9 1539.8 1130.33 1577.75 1084.55 1571.06C1052.51 1566.39 1029.95 1548.04 996.033 1551.41C950.792 1555.91 924.659 1587.65 874.122 1577.03C844.898 1570.89 820.97 1555.04 789.93 1560.12C744.645 1567.54 707.164 1600.17 660.885 1575.07C628.765 1557.66 594.893 1543.91 566.145 1563.39C564.956 1551.5 564.329 1539.54 564.005 1527.71C592.926 1500.03 627.878 1525.81 656.605 1541.27C675.238 1551.28 694.173 1550.91 714.103 1547.26C744.84 1541.61 768.163 1524.08 800.759 1522.41C833.009 1520.75 865.908 1541.48 898.591 1544.56C919.796 1546.54 940.136 1536.64 958.833 1528.12C1005.63 1506.78 1033.39 1519.88 1078.22 1533.7C1098.51 1539.95 1122.89 1534.67 1141.59 1526.28C1164.83 1515.86 1181.99 1508.81 1207.63 1507.34C1230.3 1506.02 1249.84 1521.74 1268.43 1533.31C1268.02 1544.25 1267.35 1555.19 1266.21 1566.11C1248.05 1555.37 1231.71 1546.37 1208.25 1544.1V1544.08ZM1268.95 1513.74C1249.43 1502.28 1232.44 1492.4 1207.63 1490.02C1162.93 1485.74 1128.95 1523.69 1082.82 1517.01C1050.55 1512.34 1027.7 1494 993.569 1497.35C983.237 1498.37 972.235 1503.02 962.897 1507.3C930.603 1522.13 906.524 1530.48 870.556 1522.98C841.094 1516.84 816.927 1500.99 785.671 1506.07C739.825 1513.53 702.387 1546.24 655.46 1521.01C624.377 1504.32 591.716 1491.02 563.507 1507.21C563.507 1506.3 563.464 1505.35 563.443 1504.45C563.226 1494.59 562.837 1484.81 562.405 1475.06C591.629 1444.85 627.338 1471.47 656.605 1487.19C675.238 1497.2 694.173 1496.83 714.103 1493.18C744.84 1487.51 768.163 1470 800.759 1468.34C833.009 1466.69 865.908 1487.43 898.591 1490.48C919.796 1492.47 940.136 1482.56 958.833 1474.04C1005.63 1452.7 1033.39 1465.81 1078.22 1479.62C1098.51 1485.87 1122.89 1480.6 1141.59 1472.21C1164.83 1461.78 1181.97 1454.73 1207.63 1453.26C1230.73 1451.92 1250.58 1468.23 1269.45 1479.84C1269.25 1491.15 1269.12 1502.46 1268.95 1513.74ZM1271.74 1433.07C1270.87 1442.13 1270.4 1451.23 1270.03 1460.31C1250.06 1448.57 1232.9 1438.39 1207.65 1435.97C1162.95 1431.68 1128.97 1469.63 1082.84 1462.95C1050.57 1458.28 1027.72 1439.94 993.591 1443.3C983.259 1444.31 972.256 1448.96 962.919 1453.24C930.625 1468.08 906.545 1476.42 870.577 1468.92C841.115 1462.78 816.949 1446.93 785.693 1452.01C739.847 1459.45 702.409 1492.21 655.481 1466.97C623.62 1449.85 590.051 1436.18 561.346 1454.39C559.573 1423.99 556.893 1393.78 553.154 1363.14C671.023 1380.33 796.955 1371.94 915.148 1371.77C995.255 1371.66 1075.36 1370.67 1155.43 1368.07C1196.19 1366.75 1239.81 1367.68 1280.64 1360.57C1277.64 1384.76 1274.07 1408.92 1271.76 1433.09L1271.74 1433.07ZM1058.26 1836.27C1037.02 1843.45 1009.33 1839.14 987.301 1838.19C963.762 1837.15 940.071 1837.98 916.532 1837.98C892.992 1837.98 869.345 1837.65 845.763 1838.19C829.032 1838.58 812.475 1839.49 795.744 1839.1C759.819 1838.26 755.064 1815.62 755.496 1790.06C788.071 1795.62 821.877 1797.15 853.198 1801.41C854.387 1801.71 855.662 1801.93 857.067 1801.93C932.181 1801.93 1004.29 1800.81 1078.56 1789.15C1080.51 1807.99 1080.55 1828.77 1058.29 1836.29L1058.26 1836.27ZM1026.58 1766.92C969.771 1773 914.219 1773.09 857.046 1773.09C857.003 1773.09 856.959 1773.09 856.916 1773.09C820.97 1768.39 784.526 1765.99 749.033 1758.73C747.066 1757.84 744.883 1757.37 742.635 1757.39C737.923 1756.35 733.232 1755.25 728.542 1753.97C671.239 1738.53 616.941 1686.14 587.241 1636.11C577.557 1619.78 572.132 1601.7 568.846 1583.02C597.768 1553.12 633.023 1579.61 661.966 1595.3C680.426 1605.32 699.231 1604.95 719.009 1601.29C749.163 1595.69 772.854 1578.11 804.888 1576.45C836.835 1574.81 869.453 1595.54 901.876 1598.59C922.93 1600.58 943.119 1590.68 961.622 1582.16C1008.07 1560.82 1035.46 1573.92 1079.92 1587.74C1100.07 1593.99 1124.3 1588.69 1142.8 1580.32C1165.82 1569.9 1182.77 1562.85 1208.21 1561.38C1228.75 1560.19 1246.69 1573.18 1263.65 1584.25C1244.5 1697.15 1129.38 1755.92 1026.53 1766.95L1026.58 1766.92ZM1247.38 1216.13C1287.97 1225.38 1286.89 1265.79 1285.96 1298.57C1285.66 1309.23 1284.92 1319.87 1283.95 1330.49C1242.58 1339.29 1197.25 1337.73 1155.43 1339.2C1079.66 1341.84 1003.82 1342.58 928.01 1342.88C804.672 1343.36 671.607 1353.28 549.155 1333.56C542.973 1288.28 538.65 1232.13 585.728 1216.15C632.439 1200.28 696.162 1210.74 744.775 1211.2C829.983 1211.98 914.802 1215.22 999.989 1212.95C1056.49 1211.44 1112.99 1211.54 1169.5 1210.16C1195.78 1209.51 1221.66 1210.31 1247.4 1216.17L1247.38 1216.13ZM1179.35 1179.26C1167.49 1178.85 1155.49 1178.83 1143.47 1179C1144.66 1173.29 1145.89 1167.58 1147.26 1161.94C1160.44 1135.54 1181.13 1113.27 1199.11 1090.02C1221.09 1061.61 1250.17 1040.64 1281.12 1022.95C1313.72 1004.33 1349.1 992.31 1385.78 984.785C1404.52 980.937 1423.59 979.315 1442.52 976.785C1454.33 975.206 1466 972.785 1477.69 972.05C1464.51 977.801 1450.76 982.429 1438.76 986.904C1338.01 1024.46 1204.69 1055.84 1179.33 1179.28L1179.35 1179.26ZM1515.3 948.502C1510.4 953.367 1504.69 957.627 1498.49 961.411C1467.79 956.005 1431.93 966.168 1402.36 970.298C1360.41 976.158 1320.94 989.478 1283.33 1008.66C1248.16 1026.56 1215.65 1050.95 1190.96 1081.85C1180.13 1095.41 1168.57 1108.96 1158.04 1123.17C1163.42 1106.09 1169.54 1089.27 1176.35 1072.73C1258.99 970.406 1387.17 931.701 1515.13 931.831C1517.42 931.831 1519.13 930.988 1520.47 929.82C1523.04 935.421 1522.18 941.648 1515.3 948.459V948.502Z" fill="#2D2D2D"/>
</g>
<defs>
<clipPath id="clip0_157_260">
<rect width="1106" height="1741" fill="white" transform="translate(447 129)"/>
</clipPath>
</defs>
</svg>
