<svg width="2000" height="2000" viewBox="0 0 2000 2000" fill="none" xmlns="http://www.w3.org/2000/svg">
<g clip-path="url(#clip0_157_261)">
<path d="M1485.96 1298.54C1502.08 1282.98 1511.2 1259.36 1512.45 1235.24C1515.37 1178.51 1472.85 1134.57 1414.96 1139.44C1369.99 1143.24 1333.18 1169.52 1326.8 1217.32C1323.47 1242.32 1328.92 1268.25 1347.11 1290.8C1382.22 1334.47 1449.74 1333.33 1485.93 1298.54H1485.96ZM1414.74 1209.34C1416.63 1195.08 1427.59 1187.23 1440.99 1186.09C1458.3 1184.65 1470.99 1197.74 1470.11 1214.66C1469.74 1221.86 1467 1228.91 1462.21 1233.51C1451.42 1243.94 1431.23 1244.26 1420.75 1231.23C1415.3 1224.5 1413.68 1216.76 1414.72 1209.34H1414.74ZM1407.08 1240.83C1415.3 1240.11 1421.42 1246.39 1420.99 1254.47C1420.81 1257.9 1419.48 1261.28 1417.22 1263.51C1412 1268.49 1402.38 1268.65 1397.38 1262.4C1394.8 1259.15 1394.05 1255.48 1394.5 1251.92C1395.41 1245.11 1400.67 1241.39 1407.08 1240.83Z" fill="#2D2D2D"/>
<path d="M1105.7 1248.65C1109.1 1182.53 1059.5 1131.27 992.009 1136.94C939.539 1141.38 896.617 1171.99 889.197 1227.74C885.315 1256.89 891.697 1287.16 912.892 1313.46C953.82 1364.39 1032.59 1363.06 1074.8 1322.5C1093.62 1304.36 1104.23 1276.81 1105.7 1248.67V1248.65ZM994.615 1281.62C988.552 1287.42 977.329 1287.64 971.505 1280.35C968.5 1276.57 967.596 1272.26 968.154 1268.11C969.191 1260.19 975.361 1255.8 982.834 1255.19C992.434 1254.36 999.508 1261.65 999.056 1271.09C998.843 1275.08 997.301 1279.04 994.615 1281.62ZM1047.11 1246.7C1034.48 1258.83 1010.97 1259.23 998.764 1244.02C992.408 1236.17 990.52 1227.16 991.716 1218.46C993.924 1201.84 1006.69 1192.69 1022.35 1191.36C1042.51 1189.71 1057.32 1204.97 1056.29 1224.68C1055.86 1233.09 1052.64 1241.33 1047.11 1246.7Z" fill="#2D2D2D"/>
<path d="M1403.17 1454.24C1415.94 1435.19 1385.22 1417.45 1372.54 1436.34C1355.62 1461.58 1258.72 1454.85 1232.47 1455.51C1202.63 1456.26 1095.09 1465.62 1077.61 1433.78C1066.6 1413.73 1035.97 1431.63 1047 1451.68C1073.01 1499 1175.64 1490.91 1219.17 1491.1C1264.12 1491.29 1373.18 1498.95 1403.15 1454.24H1403.17Z" fill="#2D2D2D"/>
<path d="M929.273 1072.55C930.257 1074.76 933.475 1075.85 935.656 1075.13C954.085 1069.3 967.861 1061.88 987.966 1061.33C1009.21 1060.74 1032.16 1062.2 1053.33 1063.77C1056.44 1064.01 1058.44 1059.46 1055.97 1057.44C1033.41 1038.96 1006.16 1034.7 977.435 1035.29C958.287 1035.69 917.094 1044.81 929.273 1072.52V1072.55Z" fill="#2D2D2D"/>
<path d="M1373.52 1065.21C1391.39 1068.53 1408.04 1065.71 1425.99 1064.04C1448.22 1061.96 1468.01 1070.13 1489.76 1070.74C1492.82 1070.82 1495.48 1067.55 1494.47 1064.57C1478.73 1018.16 1399.61 1035.31 1372.09 1059.68C1370.3 1061.27 1371.13 1064.78 1373.55 1065.24L1373.52 1065.21Z" fill="#2D2D2D"/>
<path d="M1729.98 950.285C1725.41 857.224 1722.54 761.61 1707.19 669.559C1700.78 631.128 1661.64 607.776 1633.53 586.073C1585.82 549.264 1535.93 515.459 1484.58 483.943C1396.9 430.138 1300.2 386.759 1197.02 376.652C1071.6 364.391 939.778 374.87 813.75 375.748C771.865 278.272 727.135 182.099 682.165 86.0323C681.473 84.5163 680.622 83.2929 679.718 82.1758C671.075 67.5478 656.954 60.5263 640.785 58.505C639.295 58.1592 637.726 57.9464 635.998 57.9996C634.216 57.8932 632.62 58.0528 631.131 58.372C597.144 60.4731 552.786 74.7288 534.516 104.809C524.331 121.565 527.15 137.47 537.069 148.853C537.122 148.933 537.122 149.039 537.176 149.119C573.396 225.85 611.771 301.544 650.412 377.078C546.643 377.823 439.071 374.019 336.074 388.195C329.159 387.264 323.256 388.222 318.203 390.775C312.857 392.131 309.613 395.323 308.124 399.312C289.854 422.451 289.801 476.469 293.869 523.598C267.462 802.303 256.532 1085.05 262.675 1364.92C264.111 1430.46 268.02 1495.49 286.609 1558.65C302.353 1612.25 345.169 1644.48 383.809 1681.61C461.57 1756.32 546.138 1850.95 647.699 1896C665.676 1909.3 694.504 1914.36 712.428 1918.26C815.479 1940.79 925.178 1940.66 1030.14 1942.6C1099.9 1943.88 1168.54 1941.86 1238.21 1938.29C1315.63 1934.33 1392.96 1928.53 1469.98 1919.65C1530.64 1912.63 1607.23 1909.33 1657.38 1870.34C1697.65 1839.03 1709.13 1796.24 1715.84 1747.44C1726.95 1666.61 1731.05 1584.59 1734.58 1503.12C1742.56 1319.02 1739.08 1134.28 1730.01 950.285H1729.98ZM666.554 330.906C638.657 276.33 611.345 221.462 584.752 166.221C613.446 165.423 644.295 152.364 665.703 134.199C719.476 249.042 773.062 364.099 819.415 482.187C797.422 509.901 772.636 510.778 745.085 484.794C737.905 470.591 730.698 456.415 723.491 442.239C704.583 405.084 685.515 368.008 666.554 330.906ZM579.061 111.06C595.522 100.049 616.345 94.0645 635.998 93.5059C663.788 95.2879 633.844 114.411 623.951 119.411C609.245 126.858 588.315 133.56 571.774 130.076C567.971 129.278 565.923 128.188 564.86 126.938C564.7 126.752 564.514 126.565 564.354 126.406C561.961 122.124 571.668 116.033 579.061 111.086V111.06ZM665.57 412.504C666.554 412.504 667.432 412.318 668.336 412.212C672.804 420.935 677.245 429.632 681.712 438.356C716.524 506.417 741.548 557.961 827.1 531.524C878.426 515.672 850.476 452.346 830.265 411.068C1017.99 408.595 1213.35 387.982 1386.55 470.644C1468.28 509.635 1543.56 562.349 1615.6 616.739C1626.03 624.611 1634.67 632.378 1641.88 640.224C1486.28 628.175 1326.98 635.543 1171.57 635.809C1004.83 636.101 838.004 636.606 671.288 639.532C670.038 638.255 668.628 637.192 667.113 636.314C628.605 593.041 578.502 558.785 532.867 523.625C494.599 494.129 447.262 447.559 399.314 416.733C487.578 409.924 578.476 413.568 665.57 412.504ZM435.933 815.947C381.496 851.533 344.398 635.755 340.355 609.505C333.255 563.466 330.409 516.63 330.143 470.086C330.117 463.304 325.995 420.696 341.073 427.478C365.885 438.622 388.517 459.846 410.377 475.884C484.626 530.353 569.46 583.839 633.073 651.926C608.154 675.012 580.47 695.491 554.089 716.609C514.757 748.126 477.925 788.499 435.907 815.973L435.933 815.947ZM396.043 1644.21C374.528 1623.55 350.195 1604.37 333.76 1579.19C309.4 1541.9 305.65 1486.9 301.582 1444.42C296.476 1391.12 297.327 1336.81 297.008 1283.35C295.864 1084.15 301.848 883.901 316.049 684.799C328.734 753.658 352.615 828.899 410.164 852.437C420.509 856.666 430.668 856.081 440.454 852.756C435.694 1127.6 424.684 1404.15 431.226 1678.98C419.312 1667.01 407.584 1655.33 396.016 1644.24L396.043 1644.21ZM452.98 1700.79C445.161 1414.93 457.208 1127.1 461.968 841.187C476.808 830.521 490.078 816.239 500.609 806.824C545.499 766.663 596.4 732.247 641.716 692.326C624.988 1042.5 612.09 1394.34 623.658 1744.78C624.589 1772.68 620.813 1811.83 625.041 1845.12C562.12 1808.77 505.556 1753.61 453.006 1700.79H452.98ZM1701.29 1437.29C1699.24 1521.37 1694.56 1605.36 1686.8 1689.08C1677.78 1786.35 1664.54 1847.41 1558.83 1870.68C1351.82 1916.24 1122.9 1913.13 911.19 1903.37C855.104 1900.79 798.858 1896.8 743.357 1888.05C723.89 1884.99 704.689 1880.63 685.941 1874.62C685.702 1874.54 685.515 1874.46 685.303 1874.38C683.654 1872.92 681.659 1871.67 679.239 1870.79C677.803 1870.28 676.394 1869.62 674.984 1869.06C658.15 1856.43 663.177 1832.2 661.9 1809.06C652.778 1646.16 654.773 1482.45 657.113 1319.42C660.198 1104.49 667.751 889.592 678.016 674.852C837.153 672.139 996.37 671.661 1155.53 671.262C1324.27 670.836 1497.58 662.219 1666.08 677.645C1675.76 700.784 1678.68 726.609 1681.58 758.95C1685.44 802.382 1688.39 845.868 1691.1 889.379C1702.49 1071.7 1705.73 1254.68 1701.29 1437.27V1437.29Z" fill="#2D2D2D"/>
<path d="M1653.74 901.509C1652.97 854.433 1658.15 782.995 1622.07 745.653C1588.05 710.439 1542.15 706.317 1495.43 705.918C1357.25 704.721 1218.93 706.37 1080.72 706.37H924.833C834.813 706.37 738.437 696.636 714.051 802.49C704.184 845.284 709.689 892.971 707.269 936.696C705.753 963.931 705.381 991.298 704.823 1018.59C702.961 1106.89 702.19 1195.21 701.525 1283.54C700.355 1443.41 688.707 1610.12 721.976 1767.68C736.23 1835.18 805.187 1857.2 866.778 1863.93C1036.02 1876.64 1211.06 1858.24 1380.12 1848.5C1432.85 1845.47 1487.42 1845.52 1539.47 1835.66C1659.32 1812.92 1656.19 1685.87 1660.31 1587.19C1667.01 1426.66 1662.12 1264.84 1660.07 1104.23C1659.19 1036.59 1654.86 969.064 1653.74 901.509ZM1638.74 1593.31C1635.5 1656.98 1641.45 1754.88 1584.09 1795.9C1559.33 1813.61 1526.94 1817.44 1497.34 1819.7C1433.15 1824.59 1368.79 1827.97 1304.48 1831.4C1160.16 1839.06 1011.24 1853.48 866.778 1842.63C834.76 1839.11 805.134 1830.63 777.078 1814.54C741.495 1794.17 739.128 1748.61 733.491 1712.52C726.949 1670.65 723.465 1627.94 722.72 1585.54C721.417 1511.66 722.029 1437.72 722.348 1363.84C723.013 1211.57 719.768 1057.9 730.751 905.924C733.57 867.04 729.608 829.778 738.49 791.213C749.527 743.313 792.103 732.249 834.334 728.339C868.294 725.2 902.707 727.621 936.773 727.621H1377.96C1440.33 727.621 1511.3 719.03 1570.85 736.291C1648.1 758.685 1631.16 876.534 1633.45 937.813C1634.25 959.01 1636.24 980.181 1636.85 1001.43C1638.82 1068.3 1639.25 1135.24 1639.8 1202.13C1640.87 1332.13 1645.39 1463.41 1638.77 1593.31H1638.74Z" fill="#2D2D2D"/>
<path d="M879.73 1313.46C861.779 1303.49 833.962 1293.94 815.533 1307.96C795.375 1323.28 803.459 1357.53 821.995 1370.43C842.153 1384.45 879.331 1389.58 898.984 1371.63C921.854 1350.75 899.675 1325.48 879.73 1313.43V1313.46ZM883.772 1364.71C867.71 1373.2 841.807 1368.41 828.191 1357.35C816.011 1347.48 812.581 1321.52 830.532 1316.2C844.121 1312.16 860.928 1319.23 872.576 1325.7C887.096 1334.47 906.164 1352.88 883.772 1364.69V1364.71Z" fill="#2D2D2D"/>
<path d="M1503.19 1309.95C1486.44 1320.08 1468.41 1341.39 1487.48 1358.83C1503.7 1373.65 1534.23 1369.71 1550.93 1358.09C1566.73 1347.08 1573.16 1318.49 1556.11 1305.56C1540.93 1294.02 1518.03 1301.76 1503.19 1309.98V1309.95ZM1544.25 1345.38C1534.18 1354.93 1513.62 1356.39 1501.39 1351.04C1483.51 1343.25 1500.75 1328.01 1510.37 1322.21C1519.95 1316.89 1531.94 1312.32 1543.03 1314.74C1557.5 1317.88 1551.73 1338.3 1544.28 1345.4L1544.25 1345.38Z" fill="#2D2D2D"/>
<path d="M1044.61 449.422C1170.03 469.502 1301.64 462.693 1417.22 525.062C1420.17 526.658 1422.67 522.349 1419.85 520.567C1362.09 484.077 1302.36 458.863 1234.7 448.251C1173.99 438.73 1105.7 433.038 1044.61 442.374C1041.1 442.905 1041.13 448.863 1044.61 449.422Z" fill="#2D2D2D"/>
<path d="M1015.49 449.793C1019.72 449.128 1020.46 443.383 1017.88 440.724C1010.7 433.303 990.891 430.112 984.562 440.112C983.844 441.229 983.844 442.905 984.562 444.022C990.147 452.852 1006.63 451.176 1015.49 449.793Z" fill="#2D2D2D"/>
<path d="M348.653 1340.54C347.935 1335.72 340.01 1335.88 339.133 1340.54C324.958 1416.1 328.203 1528.87 384.023 1588.2C386.443 1590.76 390.485 1587.48 388.81 1584.5C348.281 1512.48 360.354 1419.39 348.653 1340.54Z" fill="#2D2D2D"/>
<path d="M353.041 1318.83C357.19 1312.34 357.589 1303.59 358.812 1296.12C360.487 1286.07 345.223 1281.65 343.334 1291.86C341.739 1300.46 341.366 1311.17 346.233 1318.83C347.829 1321.39 351.419 1321.36 353.015 1318.83H353.041Z" fill="#2D2D2D"/>
<path d="M1559.89 1772.89C1523.56 1788.9 1475.96 1787.76 1436.95 1790.34C1386.5 1793.66 1335.07 1792.38 1285.07 1800.26C1281.32 1800.84 1282.63 1806.19 1285.92 1806.45C1342.75 1811.32 1401.87 1806.72 1458.57 1801.59C1493.91 1798.4 1530.69 1794.41 1561.75 1776.05C1563.83 1774.83 1562.02 1771.96 1559.92 1772.89H1559.89Z" fill="#2D2D2D"/>
<path d="M777.105 782.861C831.675 773.313 885.501 766.903 940.975 764.855C990.466 763.02 1040.57 765.866 1089.79 759.589C1092.08 759.296 1093.04 755.812 1090.38 755.227C1039.27 744.189 984.296 748.072 932.465 749.908C889.277 751.424 808.937 745.546 774.658 778.685C772.717 780.547 774.764 783.26 777.078 782.861H777.105Z" fill="#2D2D2D"/>
<path d="M804.789 795.52C795.507 797.275 784.179 799.802 778.487 807.861C777.317 809.51 778.62 811.372 780.189 812.01C788.301 815.361 796.757 811.691 804.789 809.403C814.389 806.691 824.654 803.419 833.43 798.552C835.185 797.568 834.946 794.509 832.845 794.11C823.484 792.222 814.07 793.738 804.789 795.52Z" fill="#2D2D2D"/>
<path d="M799.762 831.718C788.939 829.511 774.977 829.83 770.642 841.905C770.004 843.687 771.626 845.203 773.248 845.336C782.53 846.107 790.854 840.336 799.762 838.128C802.874 837.357 803.007 832.383 799.762 831.718Z" fill="#2D2D2D"/>
</g>
<defs>
<clipPath id="clip0_157_261">
<rect width="1478" height="1885" fill="white" transform="translate(261 58)"/>
</clipPath>
</defs>
</svg>
