<svg width="2000" height="2000" viewBox="0 0 2000 2000" fill="none" xmlns="http://www.w3.org/2000/svg">
<g clip-path="url(#clip0_157_248)">
<path d="M479.486 113.354C452.046 118.753 451.692 173.716 453.197 200.445C428.767 204.162 380.349 214.606 378.224 239.653C376.012 265.32 425.315 283.376 449.037 290.545C447.886 314.353 448.328 373.475 479.574 378.697C480.725 378.874 481.876 378.963 483.026 378.963C508.519 378.963 533.746 333.913 544.987 311.078C573.135 321.61 623.589 336.568 634.388 312.671C644.213 290.722 614.737 258.505 600.044 244.256C615.622 225.05 644.301 184.691 628.28 164.423C614.029 146.456 565.965 163.98 538.968 175.752C528.081 152.74 503.739 108.664 479.486 113.354ZM534.542 187.346C534.542 187.346 608.099 153.182 621.287 169.822C636.335 188.851 587.829 244.875 587.829 244.875C587.829 244.875 635.804 287.535 626.244 308.954C616.596 330.373 540.473 299.749 540.473 299.749C540.473 299.749 506.483 374.095 480.991 369.847C451.869 364.979 458.242 283.907 458.242 283.907C458.242 283.907 384.952 263.816 386.987 240.361C389.023 216.907 462.579 208.056 462.579 208.056C462.579 208.056 455.764 126.984 481.168 122.028C504.005 117.603 534.542 187.346 534.542 187.346Z" fill="black"/>
<path d="M462.58 208.056C462.58 208.056 389.024 216.906 386.988 240.361C384.952 263.815 458.243 283.906 458.243 283.906C458.243 283.906 451.87 364.978 480.991 369.846C506.484 374.094 540.473 299.748 540.473 299.748C540.473 299.748 616.596 330.372 626.245 308.953C635.804 287.535 587.829 244.874 587.829 244.874C587.829 244.874 636.335 188.85 621.288 169.821C608.099 153.182 534.543 187.345 534.543 187.345C534.543 187.345 504.005 117.602 481.168 122.027C455.764 126.984 462.58 208.056 462.58 208.056ZM483.558 130.612C492.233 130.612 512.326 158.669 526.488 190.885C527.462 193.098 529.232 194.78 531.445 195.576C533.658 196.373 536.136 196.284 538.26 195.311C575.348 178.052 609.604 170.44 614.295 175.22C620.314 182.831 601.726 215.136 581.102 239.033C577.915 242.662 578.269 248.238 581.899 251.424C599.956 267.532 622.616 295.146 618.101 305.236C615.357 311.343 580.482 306.209 543.66 291.429C539.323 289.659 534.277 291.694 532.33 295.943C517.548 328.159 493.383 362.765 482.319 360.995C468.599 358.694 464.527 315.06 466.917 284.437C467.271 280.189 464.527 276.294 460.456 275.232C425.846 265.762 394.954 249.388 395.662 240.98C396.371 232.483 428.767 220.889 463.465 216.729C468.156 216.198 471.609 211.95 471.254 207.171C468.333 172.653 472.671 132.56 482.673 130.524C482.85 130.524 483.116 130.524 483.381 130.524L483.558 130.612Z" fill="black"/>
<path d="M413.454 1223.32C400.53 1186.23 396.724 1140.12 419.473 1088.25C445.939 1027.98 510.997 1002.67 564.815 991.517C562.779 989.039 560.743 986.472 558.884 983.994C483.115 1000.63 433.458 1034.27 411.329 1084.71C387.961 1137.91 391.502 1185.7 404.691 1224.2C407.346 1223.76 410.002 1223.4 412.746 1223.32C413.011 1223.32 413.188 1223.32 413.454 1223.32Z" fill="black"/>
<path d="M1480.06 999.216C1527.86 1023.82 1563.44 1070.11 1569.55 1118.43C1572.92 1145.52 1570.7 1175.26 1562.65 1203.75C1566.01 1202.78 1569.29 1201.9 1572.47 1201.19C1579.82 1172.16 1581.5 1142.77 1578.31 1117.28C1571.94 1066.48 1534.94 1018.69 1486.35 992.578C1486.35 992.578 1486.26 992.755 1486.17 992.844C1484.4 995.056 1482.36 997.181 1480.06 999.128V999.216Z" fill="black"/>
<path d="M1560.79 1119.5C1564.15 1146.14 1561.76 1177.38 1552.38 1207.47C1555.83 1205.97 1559.28 1204.73 1562.65 1203.67C1570.61 1175.08 1572.91 1145.43 1569.55 1118.35C1563.53 1069.93 1527.86 1023.73 1480.06 999.129C1477.67 1001.25 1475.02 1003.29 1472.1 1005.15C1518.65 1027.72 1554.77 1072.15 1560.7 1119.5H1560.79Z" fill="black"/>
<path d="M422.659 1223.85C409.47 1188 405.133 1142.86 427.527 1091.79C448.152 1044.8 496.569 1013.82 571.807 999.216C570.391 997.977 568.975 996.737 567.913 995.41C566.762 994.082 565.877 992.843 564.815 991.516C510.909 1002.67 445.939 1027.98 419.473 1088.25C396.724 1140.03 400.442 1186.23 413.454 1223.31C413.808 1223.31 414.25 1223.31 414.604 1223.31C417.26 1223.31 420.004 1223.49 422.659 1223.85Z" fill="black"/>
<path d="M1284.44 580.757L1320.12 623.771C1325.78 625.541 1331.27 627.577 1336.58 629.701L1271.34 551.107C1276.74 561.728 1281.08 571.729 1284.44 580.846V580.757Z" fill="black"/>
<path d="M1636.2 277.534C1627.17 255.23 1454.84 170.883 1453.15 170.175C1438.55 164.511 1392.26 165.484 1374.38 171.857C1359.42 177.256 1279.75 311.343 1209.56 433.836C1212.04 435.518 1214.43 437.288 1216.73 439.147C1226.91 421.534 1241.16 396.752 1257.09 369.492C1256.92 368.43 1256.65 367.456 1256.38 366.394C1255.94 364.004 1257.45 361.703 1259.84 361.172C1260.54 360.995 1261.25 361.172 1261.87 361.261C1280.55 329.31 1301.08 294.792 1319.67 264.435C1319.85 263.195 1320.47 262.133 1321.44 261.514C1345.16 222.836 1365.26 191.859 1373.93 182.831C1374.02 182.566 1374.02 182.212 1374.2 181.946C1376.32 177.698 1381.46 176.105 1385.7 177.964C1405.53 174.246 1439.35 174.335 1449.79 178.318C1461.21 182.743 1603.36 255.584 1625.14 277.268C1627.26 278.507 1628.86 280.631 1629.39 283.286C1630.01 286.738 1628.41 290.101 1625.67 291.96C1605.05 354.534 1452.98 644.039 1419.08 708.384C1420.67 712.012 1422.08 715.73 1423.32 719.359C1435.8 695.727 1483.96 604.3 1530.96 512.076C1642.49 293.111 1638.59 283.64 1636.11 277.356L1636.2 277.534Z" fill="black"/>
<path d="M1399.78 185.133C1417.66 183.539 1439.96 184.07 1446.78 186.726C1459.26 191.594 1579.2 253.814 1612.04 277.445L1619.3 276.206C1621.51 275.852 1623.55 276.383 1625.32 277.445C1603.54 255.672 1461.39 182.92 1449.97 178.495C1439.52 174.423 1405.71 174.335 1385.88 178.141C1386.06 178.141 1386.15 178.141 1386.32 178.229C1390.93 180.619 1395.35 182.831 1399.78 185.133Z" fill="black"/>
<path d="M1271.26 551.019L1336.49 629.613C1340.21 631.118 1344.01 632.711 1347.56 634.393C1345.43 629.967 1343.13 625.63 1341.01 621.294L1253.02 515.263C1252.31 515.882 1251.6 516.502 1250.99 517.121C1258.95 528.627 1265.59 540.133 1271.17 551.019H1271.26Z" fill="black"/>
<path d="M1328.44 264.612C1328.52 265.32 1328.7 266.028 1328.79 266.825C1350.3 231.776 1367.91 204.25 1376.94 193.01C1373.84 190.62 1372.69 186.638 1374.11 183.009C1365.44 192.036 1345.25 223.014 1321.62 261.691C1322.15 261.337 1322.77 260.983 1323.48 260.895C1325.87 260.629 1328.17 262.222 1328.52 264.612H1328.44Z" fill="black"/>
<path d="M1259.93 382.414C1259.04 378.166 1257.98 373.917 1257.18 369.669C1241.25 396.929 1226.91 421.622 1216.82 439.324C1219.21 441.182 1221.51 443.218 1223.63 445.077C1235.05 425.251 1247.36 403.921 1259.93 382.414Z" fill="black"/>
<path d="M1615.67 294.793C1595.04 350.464 1489.09 557.215 1414.47 698.56C1416.15 701.923 1417.75 705.198 1419.16 708.561C1453.07 644.217 1605.13 354.712 1625.76 292.138C1624.7 292.846 1623.55 293.465 1622.22 293.642L1615.67 294.793Z" fill="black"/>
<path d="M1265.15 364.801C1265.59 366.925 1266.12 368.961 1266.47 371.085C1277.45 352.41 1288.52 333.647 1299.23 315.68C1297.63 315.68 1296.13 314.706 1295.42 313.202C1294.36 310.989 1295.42 308.334 1297.63 307.36C1300.64 306.033 1303.65 304.705 1306.66 303.378C1311.79 294.792 1316.84 286.473 1321.71 278.419C1321.09 274.259 1320.29 270.099 1319.67 265.939C1319.67 265.497 1319.67 265.054 1319.67 264.7C1301.08 295.058 1280.55 329.664 1261.87 361.526C1263.47 361.969 1264.7 363.208 1265.06 364.89L1265.15 364.801Z" fill="black"/>
<path d="M1406.59 208.675C1406.33 207.171 1406.06 205.666 1405.8 204.161C1405.44 201.772 1407.04 199.471 1409.43 199.117C1411.82 198.674 1414.12 200.356 1414.47 202.745C1415.09 206.463 1415.8 210.18 1416.42 213.897C1434.03 223.19 1451.47 232.572 1467.67 241.511C1470.68 240.538 1473.69 239.476 1476.7 238.502C1479 237.794 1481.48 239.033 1482.28 241.423C1482.98 243.724 1481.74 246.202 1479.35 246.999C1479 247.087 1478.56 247.264 1478.2 247.353C1486.88 252.132 1495.11 256.823 1502.81 261.248C1502.55 258.859 1504.23 256.646 1506.62 256.292C1509.1 255.938 1511.22 257.708 1511.57 260.098C1511.84 262.399 1512.28 264.7 1512.64 267.001C1536.89 281.162 1554.42 292.491 1559.64 297.801C1559.19 299.306 1558.49 301.342 1557.6 303.731C1558.49 304.262 1559.28 305.148 1559.55 306.298C1560.26 308.688 1558.84 311.077 1556.54 311.785C1555.65 312.051 1554.86 312.317 1553.97 312.582C1549.19 323.645 1541.67 339.311 1532.37 358.251C1533.35 361.438 1534.15 364.624 1535.12 367.722C1535.83 370.023 1534.59 372.501 1532.2 373.298C1531.76 373.475 1531.31 373.475 1530.87 373.475C1529.01 373.475 1527.24 372.236 1526.62 370.377C1526.62 370.2 1526.62 370.111 1526.53 369.934C1513.96 395.159 1498.65 424.985 1482.28 456.582L1492.37 452.511C1494.67 451.537 1497.23 452.688 1498.12 454.901C1499 457.202 1497.94 459.769 1495.73 460.654L1475.99 468.708C1474.84 470.832 1473.78 472.956 1472.63 475.08C1473.25 477.293 1473.69 479.594 1474.31 481.807C1474.93 484.196 1473.51 486.586 1471.12 487.206C1470.77 487.294 1470.33 487.383 1469.97 487.383C1468.73 487.383 1467.76 486.763 1466.87 485.878C1449.88 518.448 1432.18 551.904 1415.27 583.501C1415.53 584.12 1415.8 584.828 1416.07 585.448C1416.95 587.749 1415.89 590.316 1413.68 591.201C1413.14 591.466 1412.53 591.555 1411.99 591.555C1411.73 591.555 1411.46 591.378 1411.11 591.289C1400.84 610.495 1391.02 628.816 1381.9 645.721C1379.6 650.058 1381.19 655.368 1385.44 657.758C1386.77 658.466 1388.18 658.82 1389.6 658.82C1392.79 658.82 1395.8 657.138 1397.39 654.218C1474.22 511.987 1563.8 342.143 1575.92 301.696L1574.6 301.961C1574.07 301.961 1573.62 302.05 1573.09 302.05C1568.84 302.05 1565.13 299.041 1564.42 294.704C1563.71 290.278 1566.36 286.296 1570.44 284.968C1551.67 267.709 1494.49 234.342 1399.6 185.31C1392.17 186.018 1385.53 186.991 1381.01 188.496C1379.95 189.381 1378.54 190.974 1376.85 193.187C1377.3 193.541 1377.65 193.895 1378.09 194.16C1387.48 199.028 1397.03 203.896 1406.42 208.852L1406.59 208.675Z" fill="black"/>
<path d="M1377.38 180.265C1379.69 179.468 1382.61 178.76 1385.88 178.14C1381.63 176.193 1376.5 177.875 1374.37 182.123C1374.2 182.389 1374.2 182.743 1374.11 183.008C1375.44 181.592 1376.59 180.619 1377.38 180.265Z" fill="black"/>
<path d="M1376.94 193.01C1378.62 190.886 1380.13 189.292 1381.1 188.319C1385.62 186.903 1392.26 185.841 1399.69 185.133C1395.27 182.831 1390.84 180.53 1386.24 178.229C1386.06 178.229 1385.97 178.229 1385.79 178.141C1382.52 178.76 1379.6 179.468 1377.3 180.265C1376.5 180.53 1375.35 181.592 1374.02 183.008C1372.61 186.637 1373.76 190.62 1376.85 193.01H1376.94Z" fill="black"/>
<path d="M1570.61 284.88C1574.6 288.509 1576.99 291.518 1577.43 293.642C1577.78 294.97 1577.25 297.713 1576.1 301.608L1615.67 294.793C1617.53 289.748 1618.77 285.853 1619.12 283.464C1617.79 281.959 1615.31 279.923 1611.95 277.445L1571.68 284.349C1571.68 284.349 1570.88 284.703 1570.53 284.791L1570.61 284.88Z" fill="black"/>
<path d="M1577.43 293.642C1576.9 291.429 1574.51 288.509 1570.61 284.88C1566.54 286.207 1563.8 290.279 1564.59 294.616C1565.3 298.952 1569.11 301.962 1573.27 301.962C1573.8 301.962 1574.24 301.962 1574.77 301.873L1576.1 301.608C1577.25 297.802 1577.78 295.058 1577.43 293.642Z" fill="black"/>
<path d="M1514.23 324.265C1517.77 339.665 1521.84 354.888 1526.53 369.934C1528.57 365.952 1530.52 361.969 1532.38 358.163C1528.83 346.126 1525.65 334.001 1522.82 321.698C1519.98 322.583 1517.15 323.38 1514.32 324.265H1514.23Z" fill="black"/>
<path d="M1520.69 313.025C1517.42 297.802 1514.76 282.402 1512.64 266.913C1509.45 265.055 1506.17 263.196 1502.81 261.249C1505.11 279.481 1508.3 297.625 1512.19 315.592C1515.03 314.707 1517.86 313.91 1520.69 313.025Z" fill="black"/>
<path d="M1511.66 260.098C1511.31 257.708 1509.18 255.938 1506.71 256.292C1504.32 256.646 1502.55 258.859 1502.9 261.249C1506.26 263.196 1509.54 265.054 1512.72 266.913C1512.37 264.612 1512.02 262.311 1511.66 260.01V260.098Z" fill="black"/>
<path d="M1526.62 370.288C1527.24 372.147 1528.92 373.386 1530.87 373.386C1531.31 373.386 1531.76 373.386 1532.2 373.209C1534.5 372.501 1535.83 370.023 1535.12 367.633C1534.15 364.536 1533.35 361.261 1532.38 358.163C1530.52 361.969 1528.57 365.863 1526.53 369.934C1526.53 370.111 1526.53 370.2 1526.62 370.377V370.288Z" fill="black"/>
<path d="M1416.51 213.898C1413.23 212.128 1409.87 210.446 1406.59 208.676C1409.43 225.581 1412.44 242.397 1415.53 259.302C1418.37 258.328 1421.11 257.177 1423.94 256.204C1421.38 242.131 1418.81 227.97 1416.42 213.898H1416.51Z" fill="black"/>
<path d="M1463.24 473.841C1464.13 477.205 1464.93 480.656 1465.81 484.02C1465.99 484.728 1466.52 485.347 1467.05 485.79C1468.91 482.161 1470.86 478.532 1472.72 474.992C1472.36 473.487 1471.92 471.983 1471.56 470.39L1463.24 473.753V473.841Z" fill="black"/>
<path d="M1440.41 339.4C1435.1 314.707 1430.23 289.925 1425.63 265.055C1422.79 266.028 1419.96 267.09 1417.22 268.152C1421.82 292.934 1426.78 317.628 1432 342.321C1434.83 341.347 1437.66 340.374 1440.41 339.4Z" fill="black"/>
<path d="M1461.03 465.167L1469.35 461.804C1459.62 424.189 1450.59 386.22 1442.27 348.073C1439.43 349.047 1436.69 350.02 1433.86 350.994C1442.18 389.317 1451.29 427.375 1461.03 465.079V465.167Z" fill="black"/>
<path d="M1470.06 487.295C1470.06 487.295 1470.86 487.295 1471.21 487.118C1473.6 486.498 1475.02 484.108 1474.4 481.719C1473.78 479.506 1473.25 477.205 1472.72 474.992C1470.86 478.621 1469 482.161 1467.05 485.79C1467.85 486.675 1468.91 487.295 1470.15 487.295H1470.06Z" fill="black"/>
<path d="M1414.47 202.746C1414.12 200.356 1411.82 198.674 1409.43 199.117C1407.04 199.471 1405.36 201.772 1405.8 204.162C1406.06 205.666 1406.33 207.171 1406.6 208.675C1409.87 210.446 1413.23 212.127 1416.51 213.897C1415.89 210.18 1415.18 206.463 1414.56 202.746H1414.47Z" fill="black"/>
<path d="M1377.92 508.448C1387.12 535.531 1397.12 562.26 1407.92 588.723C1408.54 590.139 1409.78 590.936 1411.2 591.201C1412.61 588.635 1413.94 585.979 1415.36 583.413C1404.82 557.657 1395.09 531.548 1386.15 505.173L1377.92 508.536V508.448Z" fill="black"/>
<path d="M1334.28 300.899C1331.45 302.139 1328.7 303.378 1325.87 304.617C1330.12 329.133 1335.16 353.472 1340.74 377.723C1343.48 376.573 1346.23 375.333 1349.06 374.271C1343.48 350.021 1338.44 325.593 1334.19 300.988L1334.28 300.899Z" fill="black"/>
<path d="M1383.4 496.676C1371.01 459.238 1360.21 421.268 1351.1 382.856C1348.35 384.007 1345.61 385.158 1342.78 386.308C1351.89 424.632 1362.78 462.601 1375.17 499.951L1383.4 496.587V496.676Z" fill="black"/>
<path d="M1332.86 291.784C1331.45 283.464 1330.03 275.144 1328.79 266.736C1326.49 270.542 1324.1 274.436 1321.71 278.331C1322.59 284.084 1323.48 289.748 1324.45 295.412C1327.29 294.173 1330.03 292.934 1332.86 291.695V291.784Z" fill="black"/>
<path d="M1319.76 264.612C1320.38 263.639 1321 262.665 1321.53 261.691C1320.56 262.399 1319.94 263.462 1319.76 264.612Z" fill="black"/>
<path d="M1321.71 278.419C1324.1 274.436 1326.49 270.542 1328.79 266.825C1328.7 266.117 1328.52 265.409 1328.44 264.612C1328.08 262.222 1325.78 260.541 1323.39 260.895C1322.68 260.983 1322.06 261.337 1321.53 261.691C1320.91 262.665 1320.29 263.638 1319.76 264.612C1319.76 265.055 1319.58 265.409 1319.76 265.851C1320.38 270.011 1321.09 274.171 1321.8 278.331L1321.71 278.419Z" fill="black"/>
<path d="M1412.08 591.467C1412.61 591.467 1413.23 591.379 1413.76 591.113C1416.07 590.14 1417.13 587.573 1416.15 585.36C1415.89 584.741 1415.62 584.033 1415.36 583.413C1413.94 586.068 1412.61 588.635 1411.2 591.202C1411.46 591.202 1411.73 591.467 1412.08 591.467Z" fill="black"/>
<path d="M1274.44 406.665C1271.61 394.893 1268.95 383.033 1266.56 371.085C1264.35 374.891 1262.14 378.608 1259.92 382.414C1261.96 391.796 1264 401.177 1266.3 410.559C1269.04 409.32 1271.7 407.992 1274.44 406.665Z" fill="black"/>
<path d="M1361.19 641.915C1343.39 606.955 1327.64 571.11 1313.83 534.557L1312.24 535.176C1311.71 535.442 1311.09 535.53 1310.56 535.53C1308.79 535.53 1307.19 534.468 1306.48 532.787C1305.6 530.485 1306.66 527.919 1308.87 527.034L1310.73 526.237C1297.37 489.949 1286.04 452.954 1276.65 415.427C1273.91 416.666 1271.25 417.993 1268.51 419.321C1285.95 488.976 1310.2 556.595 1341.09 621.382L1355.7 638.994C1357.56 639.968 1359.42 640.942 1361.19 642.004V641.915Z" fill="black"/>
<path d="M1259.93 361.349C1257.54 361.792 1255.94 364.182 1256.47 366.571C1256.65 367.633 1256.92 368.607 1257.18 369.669C1258.77 366.925 1260.37 364.182 1261.96 361.438C1261.34 361.261 1260.63 361.172 1259.93 361.349Z" fill="black"/>
<path d="M1355.7 638.906L1341.09 621.293C1343.22 625.718 1345.43 630.055 1347.64 634.392C1350.48 635.808 1353.04 637.313 1355.7 638.817V638.906Z" fill="black"/>
<path d="M1266.47 371.174C1266.03 369.049 1265.5 367.014 1265.15 364.89C1264.79 363.208 1263.55 361.969 1261.96 361.526C1260.37 364.27 1258.77 367.014 1257.18 369.757C1258.07 374.006 1259.04 378.254 1259.92 382.502C1262.14 378.785 1264.35 374.979 1266.56 371.174H1266.47Z" fill="black"/>
<path d="M1425.54 265.054C1443.06 258.859 1460.59 252.841 1478.29 247.353C1474.84 245.406 1471.3 243.459 1467.76 241.512C1453.15 246.203 1438.55 251.07 1424.03 256.204C1424.56 259.125 1425.01 262.134 1425.63 265.054H1425.54Z" fill="black"/>
<path d="M1301.35 315.326C1309.49 311.609 1317.73 308.069 1325.96 304.529C1325.43 301.519 1324.98 298.51 1324.54 295.501C1318.61 298.068 1312.59 300.634 1306.75 303.378C1304.27 307.449 1301.88 311.609 1299.31 315.769H1299.49C1300.11 315.769 1300.73 315.68 1301.35 315.326Z" fill="black"/>
<path d="M1417.13 268.152C1416.6 265.232 1416.07 262.222 1415.53 259.302C1387.65 269.303 1360.04 280.189 1332.86 291.784C1333.39 294.793 1333.84 297.802 1334.28 300.811C1361.54 289.128 1389.16 278.154 1417.04 268.064L1417.13 268.152Z" fill="black"/>
<path d="M1297.63 307.36C1295.42 308.422 1294.45 310.989 1295.42 313.202C1296.13 314.706 1297.63 315.591 1299.23 315.68C1301.7 311.52 1304.18 307.36 1306.66 303.289C1303.65 304.617 1300.64 305.856 1297.63 307.272V307.36Z" fill="black"/>
<path d="M1479.44 246.999C1481.74 246.291 1483.07 243.813 1482.36 241.423C1481.66 239.122 1479.18 237.794 1476.79 238.502C1473.78 239.476 1470.77 240.538 1467.76 241.511C1471.39 243.459 1474.84 245.406 1478.29 247.353C1478.65 247.264 1479.09 247.087 1479.44 246.999Z" fill="black"/>
<path d="M1425.54 265.055C1425.01 262.134 1424.48 259.125 1423.94 256.204C1421.11 257.178 1418.28 258.24 1415.54 259.302C1416.07 262.223 1416.51 265.232 1417.13 268.152C1419.96 267.09 1422.7 266.028 1425.54 265.055Z" fill="black"/>
<path d="M1332.86 291.783C1330.03 293.022 1327.29 294.261 1324.45 295.5C1324.98 298.51 1325.34 301.519 1325.87 304.528C1328.7 303.289 1331.45 302.05 1334.28 300.811C1333.75 297.802 1333.3 294.792 1332.86 291.783Z" fill="black"/>
<path d="M1554.06 303.201C1542.91 306.387 1531.84 309.662 1520.69 313.025C1521.31 315.946 1522.02 318.778 1522.73 321.698C1533.08 318.512 1543.53 315.414 1553.97 312.494C1555.48 309.131 1556.63 306.21 1557.6 303.732C1556.54 303.112 1555.3 302.847 1554.06 303.201Z" fill="black"/>
<path d="M1342.86 386.397C1342.16 383.476 1341.54 380.555 1340.92 377.635C1318.61 386.928 1296.39 396.575 1274.44 406.665C1275.15 409.586 1275.95 412.506 1276.65 415.427C1298.52 405.337 1320.56 395.69 1342.86 386.397Z" fill="black"/>
<path d="M1238.24 423.836C1236.03 424.898 1235.14 427.553 1236.2 429.766C1237 431.359 1238.5 432.244 1240.19 432.244C1240.81 432.244 1241.51 432.067 1242.13 431.801C1250.9 427.553 1259.66 423.393 1268.51 419.322C1267.8 416.401 1267.01 413.48 1266.3 410.56C1256.92 414.985 1247.53 419.322 1238.24 423.836Z" fill="black"/>
<path d="M1431.91 342.32C1404.03 352.322 1376.41 362.942 1349.15 374.183C1349.86 377.103 1350.39 380.024 1351.1 382.945C1378.45 371.705 1405.98 361.084 1433.86 351.082C1433.24 348.162 1432.53 345.241 1431.91 342.32Z" fill="black"/>
<path d="M1514.23 324.265C1513.52 321.345 1512.81 318.513 1512.19 315.592C1488.12 323.026 1464.13 330.992 1440.32 339.4C1440.94 342.321 1441.56 345.242 1442.18 348.074C1465.99 339.666 1490.06 331.7 1514.23 324.177V324.265Z" fill="black"/>
<path d="M1556.54 311.698C1558.93 310.99 1560.26 308.6 1559.55 306.21C1559.19 305.06 1558.49 304.263 1557.6 303.644C1556.63 306.122 1555.39 309.042 1553.97 312.406C1554.86 312.14 1555.65 311.875 1556.54 311.609V311.698Z" fill="black"/>
<path d="M1522.73 321.699C1522.02 318.778 1521.31 315.946 1520.69 313.025C1517.86 313.91 1515.03 314.707 1512.19 315.592C1512.81 318.513 1513.61 321.345 1514.23 324.266C1517.06 323.381 1519.89 322.584 1522.73 321.699Z" fill="black"/>
<path d="M1433.86 351.083C1436.69 350.109 1439.43 349.135 1442.27 348.162C1441.65 345.241 1441.03 342.32 1440.41 339.488C1437.58 340.462 1434.74 341.435 1432 342.409C1432.62 345.33 1433.33 348.25 1433.95 351.171L1433.86 351.083Z" fill="black"/>
<path d="M1351.1 382.945C1350.39 380.024 1349.77 377.103 1349.15 374.183C1346.4 375.333 1343.66 376.484 1340.83 377.634C1341.54 380.555 1342.07 383.476 1342.78 386.397C1345.52 385.246 1348.26 384.095 1351.1 382.945Z" fill="black"/>
<path d="M1274.44 406.665C1271.7 407.904 1269.04 409.232 1266.3 410.559C1267.01 413.48 1267.8 416.401 1268.51 419.321C1271.25 418.082 1273.91 416.755 1276.65 415.427C1275.95 412.506 1275.15 409.586 1274.44 406.665Z" fill="black"/>
<path d="M1310.73 526.237C1311.79 528.981 1312.77 531.813 1313.83 534.557L1378 508.447C1377.03 505.615 1376.23 502.783 1375.26 500.039L1310.82 526.237H1310.73Z" fill="black"/>
<path d="M1471.48 470.478L1475.99 468.62C1478.12 464.548 1480.24 460.477 1482.28 456.494L1469.35 461.805C1470.06 464.725 1470.77 467.557 1471.57 470.478H1471.48Z" fill="black"/>
<path d="M1383.4 496.676C1384.38 499.508 1385.17 502.34 1386.15 505.084L1463.16 473.753C1462.45 470.832 1461.74 468 1460.94 465.079L1383.4 496.587V496.676Z" fill="black"/>
<path d="M1495.73 460.565C1498.03 459.68 1499.09 457.025 1498.12 454.812C1497.23 452.511 1494.58 451.449 1492.37 452.422L1482.28 456.494C1480.15 460.477 1478.12 464.548 1475.99 468.619L1495.73 460.565Z" fill="black"/>
<path d="M1463.24 473.842L1471.56 470.478C1470.86 467.558 1470.15 464.725 1469.35 461.805L1461.03 465.168C1461.74 468.089 1462.45 470.921 1463.24 473.842Z" fill="black"/>
<path d="M1383.4 496.676L1375.17 500.039C1376.15 502.871 1376.94 505.703 1377.92 508.447L1386.15 505.084C1385.17 502.252 1384.38 499.419 1383.4 496.676Z" fill="black"/>
<path d="M1308.87 527.034C1306.57 527.919 1305.51 530.574 1306.48 532.787C1307.19 534.468 1308.87 535.531 1310.56 535.531C1311.09 535.531 1311.71 535.442 1312.24 535.176L1313.83 534.557C1312.77 531.813 1311.79 528.981 1310.73 526.237L1308.87 527.034Z" fill="black"/>
<path d="M1302.59 624.214C1302.59 625.453 1302.5 626.604 1302.15 627.755C1312.59 630.233 1322.24 633.331 1331 636.782L1320.2 623.683C1313.57 621.559 1306.75 619.701 1299.58 618.107C1301.35 619.612 1302.5 621.648 1302.68 624.214H1302.59Z" fill="black"/>
<path d="M1417.04 728.829C1426.51 761.665 1423.77 792.731 1421.55 807.334C1421.55 807.334 1421.73 807.334 1421.82 807.334C1426.6 808.396 1429.61 813.176 1428.55 817.955C1428.55 818.221 1428.37 818.398 1428.28 818.575C1447.31 826.363 1469.97 848.578 1484.31 876.546C1486.08 876.192 1487.94 876.015 1489.71 876.015C1491.22 876.015 1492.72 876.192 1494.23 876.546C1479.27 845.215 1453.69 818.575 1430.23 809.724C1432.8 793.704 1436.25 757.24 1423.5 719.447C1421.55 723.076 1420.49 725.2 1420.4 725.377C1419.61 726.793 1418.46 727.944 1417.13 728.74L1417.04 728.829Z" fill="black"/>
<path d="M1286.3 616.514L1293.12 616.071C1293.91 616.071 1294.53 616.249 1295.33 616.426C1293.65 609.079 1290.37 596.423 1284.44 580.846L1265.06 557.392C1277.72 583.059 1283.82 605.185 1286.39 616.514H1286.3Z" fill="black"/>
<path d="M742.111 519.511C739.102 519.157 736.358 518.36 733.702 516.944C725.913 535.796 724.054 555.622 728.391 575.801C727.594 576.067 726.709 576.509 725.824 576.863C729.542 575.359 733.171 573.943 736.8 572.615C732.994 554.029 735.03 536.15 742.111 519.511Z" fill="black"/>
<path d="M1479.27 987.357C1479.27 987.357 1478.47 988.154 1478.12 988.596C1480.86 989.924 1483.69 991.252 1486.35 992.668C1501.84 973.108 1508.74 949.653 1507.06 924.518C1504.49 927.704 1501.66 930.89 1498.65 933.899C1498.21 952.22 1492.54 970.63 1479.27 987.357Z" fill="black"/>
<path d="M923.301 415.427C921.885 412.683 920.469 409.851 919.229 407.019C881.876 412.948 848.24 423.038 819.738 436.58C821.066 439.589 821.863 442.51 821.951 445.43C850.365 431.712 884.708 421.357 923.301 415.427Z" fill="black"/>
<path d="M613.587 794.413C628.458 784.057 642 776.623 650.232 772.463C650.232 772.286 650.055 772.109 649.967 771.932C648.196 767.772 649.967 763.081 653.861 760.869C598.628 660.502 680.328 607.752 719.717 589.166C719.717 589.166 719.628 588.989 719.54 588.9C717.681 584.475 719.717 579.342 724.143 577.395C700.775 587.219 650.498 613.24 632.618 661.21C620.845 692.63 625.271 727.413 645.718 764.674C636.601 769.277 621.553 777.597 605.267 789.279C607.834 790.341 610.4 791.758 612.879 793.793C613.144 793.97 613.321 794.236 613.499 794.413H613.587Z" fill="black"/>
<path d="M1158.93 444.899C1159.55 442.067 1160.79 439.5 1162.38 436.934C1156.89 433.925 1151.32 431.092 1145.39 428.349C1143.7 430.827 1141.85 433.128 1139.9 435.429C1146.54 438.35 1152.82 441.536 1158.84 444.811L1158.93 444.899Z" fill="black"/>
<path d="M560.832 830.523L560.478 830.346L560.832 830.523Z" fill="black"/>
<path d="M540.65 889.91C537.464 887.255 535.074 884.6 533.392 881.768C533.215 882.564 532.861 883.361 532.684 884.157C525.16 917.082 534.012 950.626 558.796 983.904C561.983 983.196 565.081 982.488 568.356 981.869C541.978 947.793 535.516 916.905 540.562 889.91H540.65Z" fill="black"/>
<path d="M941.978 1031.61C858.509 1034.97 641.646 1036.3 583.492 997.27C579.597 997.889 575.614 998.509 571.808 999.305C629.874 1051.35 909.847 1041.79 942.332 1040.55C976.853 1039.13 1025.98 1040.02 1077.85 1040.9C1115.29 1041.52 1154.86 1042.23 1194.07 1042.23C1311.09 1042.23 1425.18 1036.21 1472.1 1005.32C1468.91 1003.73 1465.63 1002.31 1462.36 1000.99C1374.73 1051.17 1069.62 1026.65 941.89 1031.7L941.978 1031.61Z" fill="black"/>
<path d="M1471.3 994.968C1474.31 996.296 1477.23 997.712 1480.06 999.216C1482.36 997.181 1484.4 995.145 1486.17 992.933C1486.17 992.933 1486.26 992.756 1486.35 992.667C1483.6 991.251 1480.86 989.923 1478.12 988.596C1476.17 990.808 1473.87 992.933 1471.3 994.968Z" fill="black"/>
<path d="M574.64 989.657C572.427 987.09 570.48 984.524 568.532 981.957C565.257 982.577 562.159 983.285 558.973 983.993C560.831 986.471 562.867 989.038 564.903 991.516C568.267 990.808 571.453 990.277 574.728 989.657H574.64Z" fill="black"/>
<path d="M571.807 999.217C575.613 998.509 579.508 997.89 583.491 997.182C579.951 994.792 576.941 992.314 574.64 989.57C571.365 990.19 568.178 990.721 564.814 991.429C565.877 992.757 566.762 993.996 567.912 995.323C569.063 996.651 570.479 997.89 571.807 999.129V999.217Z" fill="black"/>
<path d="M1472.18 1005.24C1475.11 1003.29 1477.76 1001.34 1480.15 999.217C1477.23 997.712 1474.31 996.296 1471.39 994.969C1468.73 997.093 1465.72 999.04 1462.45 1000.9C1465.72 1002.23 1469 1003.73 1472.18 1005.24Z" fill="black"/>
<path d="M1361.19 641.916C1362.25 644.04 1363.31 646.253 1364.46 648.466C1364.73 648.908 1364.82 649.439 1364.9 649.97L1377.03 664.574C1387.92 674.221 1396.42 684.842 1402.97 695.817L1411.02 705.464C1412.26 703.163 1413.41 700.861 1414.65 698.56C1412.53 694.489 1410.31 690.418 1407.66 686.435C1395.97 668.468 1380.39 653.599 1361.28 641.916H1361.19Z" fill="black"/>
<path d="M1320.12 623.684L1330.91 636.783C1337.73 639.526 1343.93 642.535 1349.77 645.722L1336.49 629.702C1331.18 627.489 1325.78 625.542 1320.03 623.772L1320.12 623.684Z" fill="black"/>
<path d="M1284.44 580.758C1280.99 571.73 1276.65 561.64 1271.34 551.02L1246.03 520.573C1245.32 520.927 1244.7 521.281 1243.99 521.547C1252.49 533.761 1259.39 545.886 1265.06 557.303L1284.44 580.758Z" fill="black"/>
<path d="M1413.76 718.917C1415 722.28 1416.07 725.555 1417.04 728.918C1418.37 728.122 1419.52 726.971 1420.31 725.555C1420.31 725.378 1421.47 723.342 1423.41 719.625C1422.17 715.996 1420.76 712.279 1419.16 708.65C1416.69 713.341 1414.83 716.881 1413.68 718.917H1413.76Z" fill="black"/>
<path d="M1363.31 653.775C1368.27 657.138 1372.78 660.767 1376.94 664.484L1364.82 649.881C1364.99 651.385 1364.37 652.802 1363.31 653.775Z" fill="black"/>
<path d="M1271.26 551.019C1265.68 540.133 1259.04 528.627 1251.07 517.121C1249.39 518.537 1247.71 519.688 1246.03 520.573L1271.34 551.019H1271.26Z" fill="black"/>
<path d="M1410.93 705.464L1402.88 695.816C1407.39 703.428 1410.93 711.128 1413.76 718.917C1414.91 716.792 1416.77 713.252 1419.25 708.65C1417.84 705.287 1416.24 701.923 1414.56 698.649C1413.32 700.95 1412.08 703.251 1410.93 705.552V705.464Z" fill="black"/>
<path d="M1336.49 629.701L1349.77 645.721C1351.27 646.517 1352.87 647.402 1354.37 648.199C1352.07 643.685 1349.86 639.083 1347.56 634.481C1344.02 632.71 1340.21 631.206 1336.49 629.701Z" fill="black"/>
<path d="M1364.82 649.97C1364.82 649.439 1364.64 648.996 1364.37 648.465C1363.22 646.341 1362.25 644.128 1361.1 641.915C1359.33 640.853 1357.38 639.88 1355.61 638.906L1364.73 649.97H1364.82Z" fill="black"/>
<path d="M1364.82 649.969L1355.7 638.906C1353.04 637.401 1350.39 635.808 1347.64 634.48C1349.94 639.083 1352.16 643.685 1354.46 648.199C1357.56 649.969 1360.48 651.916 1363.31 653.775C1364.46 652.801 1365.08 651.385 1364.82 649.881V649.969Z" fill="black"/>
<path d="M548.971 895.044C546.669 894.158 544.457 892.919 542.332 891.326C541.713 890.884 541.27 890.441 540.739 889.91C535.694 916.993 542.155 947.882 568.533 981.869C571.808 981.249 575.083 980.718 578.446 980.098C554.901 951.157 544.988 922.569 548.971 894.955V895.044Z" fill="black"/>
<path d="M1491.66 940.803C1490.86 941.599 1489.98 942.484 1489.09 943.281C1487.32 956.026 1482.36 969.213 1472.36 981.781C1471.56 982.755 1470.59 983.728 1469.62 984.702C1472.45 985.852 1475.28 987.18 1478.11 988.508C1478.47 988.065 1478.91 987.711 1479.27 987.269C1492.54 970.541 1498.21 952.131 1498.65 933.811C1496.35 936.2 1493.96 938.501 1491.66 940.714V940.803Z" fill="black"/>
<path d="M665.988 764.675C665.988 764.675 665.899 764.232 665.722 763.967C644.124 728.387 638.548 695.994 649.17 667.494C665.457 623.861 715.556 599.964 734.41 592.441C733.348 592.883 732.286 593.237 731.135 593.68C726.709 595.539 721.664 593.503 719.716 589.166C680.239 607.752 598.539 660.502 653.861 760.869C654.127 760.692 654.392 760.426 654.658 760.338C658.995 758.479 663.952 760.515 665.988 764.675Z" fill="black"/>
<path d="M1418.01 824.683C1418.01 824.683 1418.28 824.771 1418.37 824.859C1435.36 827.957 1460.24 849.818 1475.81 879.557C1478.65 878.229 1481.39 877.167 1484.22 876.636C1469.88 848.668 1447.22 826.364 1428.19 818.664C1426.86 823.001 1422.53 825.745 1417.92 824.771L1418.01 824.683Z" fill="black"/>
<path d="M742.111 589.52C741.226 589.874 740.252 590.228 739.367 590.582C740.695 590.051 741.669 589.785 741.757 589.785C741.934 589.785 742.023 589.608 742.2 589.52H742.111Z" fill="black"/>
<path d="M752.202 518.626C749.723 519.246 747.333 519.777 744.944 519.777C744.412 519.777 743.97 519.777 743.439 519.777C742.996 519.777 742.554 519.6 742.111 519.6C735.118 536.239 733.082 554.117 736.8 572.703C739.633 571.73 742.465 570.845 745.298 569.96C741.845 552.258 744.147 535.088 752.113 518.803L752.202 518.626Z" fill="black"/>
<path d="M619.429 801.228C633.768 791.315 646.78 784.146 654.481 780.251C652.71 777.596 651.294 775.03 650.143 772.463C642 776.623 628.457 784.057 613.498 794.412C615.976 796.537 617.924 798.838 619.34 801.228H619.429Z" fill="black"/>
<path d="M1264.97 557.303L1236.73 523.316C1236.2 523.316 1235.58 523.493 1235.05 523.493C1262.58 561.905 1273.56 600.052 1277.36 617.045L1286.21 616.425C1283.65 605.008 1277.54 582.97 1264.88 557.303H1264.97Z" fill="black"/>
<path d="M1412.53 730.156C1410.76 730.156 1409.16 729.448 1407.66 728.475C1417.48 760.337 1415 791.137 1412.88 805.564C1415.8 806.183 1418.63 806.714 1421.55 807.334C1423.77 792.73 1426.51 761.665 1417.04 728.829C1415.98 729.448 1414.74 729.979 1413.41 730.068C1413.15 730.068 1412.79 730.068 1412.53 730.068V730.156Z" fill="black"/>
<path d="M1159.11 454.812C1158.75 453.131 1158.49 451.449 1158.49 449.767C1158.49 448.086 1158.66 446.493 1159.02 444.988C1153 441.713 1146.63 438.527 1140.08 435.606C1138.13 437.908 1136.18 440.209 1134.06 442.421C1142.91 446.227 1151.32 450.387 1159.19 454.901L1159.11 454.812Z" fill="black"/>
<path d="M820.27 456.228C850.1 440.917 887.011 429.853 928.082 423.835C926.311 421.091 924.718 418.347 923.213 415.427C884.621 421.445 850.277 431.712 821.863 445.431C822.04 449.059 821.509 452.688 820.182 456.14L820.27 456.228Z" fill="black"/>
<path d="M1294.36 633.684L1289.05 634.038C1310.02 638.109 1328.44 644.482 1344.28 652.89L1330.91 636.782C1322.15 633.33 1312.5 630.321 1302.06 627.754C1300.91 631.029 1297.99 633.418 1294.27 633.684H1294.36Z" fill="black"/>
<path d="M1078.12 1023.11C1044.83 1022.58 1014.3 1022.05 987.564 1022.05C970.569 1022.05 955.167 1022.23 941.536 1022.76C843.284 1026.65 658.995 1025.06 597.3 995.145C592.609 995.764 588.006 996.472 583.403 997.269C641.558 1036.3 858.42 1034.97 941.89 1031.61C1069.53 1026.56 1374.73 1051.08 1462.36 1000.9C1458.82 999.481 1455.19 998.154 1451.47 996.915C1385.35 1028.33 1210.27 1025.33 1078.12 1023.11Z" fill="black"/>
<path d="M1461.83 991.162C1465.01 992.401 1468.2 993.64 1471.3 994.967C1473.87 992.932 1476.17 990.808 1478.11 988.595C1475.28 987.267 1472.45 986.028 1469.62 984.789C1467.4 987.002 1464.84 989.126 1461.83 991.162Z" fill="black"/>
<path d="M581.367 983.905C580.305 982.666 579.42 981.427 578.446 980.188C575.082 980.719 571.807 981.338 568.532 981.958C570.568 984.524 572.427 987.091 574.64 989.658C578.357 988.95 581.898 988.33 585.439 987.799C583.934 986.56 582.518 985.232 581.367 983.905Z" fill="black"/>
<path d="M583.491 997.269C588.005 996.561 592.608 995.853 597.388 995.145C592.697 992.844 588.625 990.454 585.439 987.799C581.898 988.33 578.357 988.949 574.64 989.658C576.941 992.313 579.951 994.879 583.491 997.269Z" fill="black"/>
<path d="M1451.56 996.915C1455.28 998.066 1458.91 999.393 1462.45 1000.9C1465.72 999.039 1468.73 997.092 1471.39 994.968C1468.29 993.552 1465.1 992.313 1461.92 991.162C1458.82 993.198 1455.46 995.145 1451.65 996.915H1451.56Z" fill="black"/>
<path d="M1376.94 664.572L1402.88 695.815C1396.33 684.84 1387.83 674.219 1376.94 664.572Z" fill="black"/>
<path d="M1243.99 521.547C1241.6 522.609 1239.21 523.14 1236.82 523.317L1265.06 557.304C1259.39 545.886 1252.49 533.761 1243.99 521.547Z" fill="black"/>
<path d="M1344.28 652.889C1354.19 658.111 1363.05 664.218 1370.92 671.122L1349.86 645.72C1344.01 642.534 1337.73 639.525 1331 636.781L1344.37 652.889H1344.28Z" fill="black"/>
<path d="M1395.35 700.684C1400.66 709.8 1404.74 719.181 1407.66 728.475C1409.07 729.448 1410.76 730.156 1412.53 730.156C1412.79 730.156 1413.15 730.156 1413.41 730.156C1414.74 729.979 1415.98 729.537 1417.04 728.917C1416.07 725.642 1415 722.279 1413.76 718.916C1412.97 720.509 1412.53 721.306 1412.53 721.306L1395.35 700.684Z" fill="black"/>
<path d="M1376.94 664.574C1372.69 660.857 1368.27 657.228 1363.31 653.865C1363.05 654.042 1362.87 654.307 1362.51 654.484C1361.89 654.838 1361.19 655.015 1360.48 655.015C1358.89 655.015 1357.29 654.13 1356.58 652.626C1355.88 651.209 1355.17 649.705 1354.46 648.289C1352.95 647.404 1351.36 646.607 1349.86 645.811L1370.92 671.212C1379.33 678.558 1386.68 686.789 1392.7 696.082C1393.67 697.587 1394.56 699.18 1395.44 700.773L1412.61 721.395C1412.61 721.395 1413.06 720.51 1413.85 719.006C1411.02 711.217 1407.39 703.517 1402.97 695.905L1377.03 664.662L1376.94 664.574Z" fill="black"/>
<path d="M1356.58 652.536C1357.38 654.041 1358.88 654.926 1360.48 654.926C1361.19 654.926 1361.89 654.749 1362.51 654.395C1362.78 654.218 1363.04 653.952 1363.31 653.775C1360.48 651.828 1357.47 649.969 1354.46 648.199C1355.17 649.615 1355.88 651.12 1356.58 652.536Z" fill="black"/>
<path d="M1299.4 618.196C1298.25 617.222 1296.84 616.691 1295.24 616.426C1295.24 616.691 1295.42 617.045 1295.42 617.311C1296.75 617.576 1297.99 618.019 1299.31 618.284L1299.4 618.196Z" fill="black"/>
<path d="M724.319 577.395C724.319 577.395 724.319 577.395 724.23 577.395C724.85 577.129 725.293 576.952 725.912 576.687C725.381 576.864 724.939 577.041 724.408 577.306L724.319 577.395Z" fill="black"/>
<path d="M734.498 592.441C736.18 591.821 737.773 591.113 739.455 590.582C738.216 591.025 736.622 591.644 734.498 592.441Z" fill="black"/>
<path d="M899.579 594.034C919.23 599.078 939.146 605.008 958.353 610.85C996.592 622.356 1036.16 634.304 1076.79 639.437C1096.08 641.916 1115.56 642.801 1134.85 642.801C1163.44 642.801 1191.86 640.854 1219.74 638.906L1288.96 634.127C1288.07 633.95 1287.28 633.684 1286.3 633.507C1282.58 632.799 1279.66 629.879 1279.13 626.161C1278.96 625.276 1278.42 622.002 1277.36 617.134L1218.5 621.205C1172.56 624.391 1125.03 627.666 1078.91 621.913C1039.79 616.957 1000.93 605.274 963.31 593.945C943.925 588.104 923.832 582.085 903.828 576.952C852.755 563.941 804.16 551.727 745.209 569.871C745.74 572.88 746.448 575.801 747.333 578.81C748.661 583.236 746.271 587.927 741.934 589.52C800.177 568.809 848.506 581.112 899.402 594.034H899.579Z" fill="black"/>
<path d="M719.627 588.989C719.627 588.989 719.716 589.166 719.805 589.254C731.223 583.856 739.012 581.377 739.012 581.377C738.127 578.457 737.419 575.536 736.799 572.615C733.17 573.854 729.541 575.359 725.824 576.864C725.292 577.129 724.761 577.306 724.142 577.572C719.716 579.519 717.68 584.564 719.539 589.077L719.627 588.989Z" fill="black"/>
<path d="M1286.3 616.514C1287.45 621.736 1287.98 624.745 1287.98 624.745C1292.85 625.63 1297.54 626.692 1302.06 627.754C1302.41 626.692 1302.59 625.453 1302.5 624.214C1302.32 621.736 1301.17 619.612 1299.4 618.107C1298.08 617.842 1296.84 617.399 1295.51 617.134C1295.51 616.868 1295.33 616.514 1295.33 616.249C1294.62 616.072 1293.92 615.895 1293.12 615.895L1286.3 616.337V616.514Z" fill="black"/>
<path d="M1302.06 627.754C1297.54 626.692 1292.85 625.63 1287.98 624.745C1287.98 624.745 1287.54 621.736 1286.3 616.514L1277.45 617.133C1278.51 622.001 1279.04 625.187 1279.22 626.161C1279.75 629.878 1282.67 632.887 1286.39 633.507C1287.28 633.684 1288.16 633.949 1289.05 634.127L1294.36 633.772C1297.99 633.507 1301 631.117 1302.15 627.843L1302.06 627.754Z" fill="black"/>
<path d="M731.224 593.679C732.286 593.237 733.437 592.883 734.499 592.44C736.623 591.555 738.217 591.024 739.456 590.582C740.341 590.228 741.315 589.874 742.2 589.52C746.448 587.838 748.927 583.236 747.599 578.81C746.714 575.801 746.006 572.792 745.475 569.871C742.642 570.756 739.81 571.553 736.977 572.615C737.597 575.536 738.305 578.456 739.19 581.377C739.19 581.377 731.312 583.944 719.982 589.254C721.93 593.591 726.975 595.627 731.401 593.768L731.224 593.679Z" fill="black"/>
<path d="M1138.13 811.494C1119.19 814.415 1100.07 817.336 1080.5 819.991C776.986 861.235 678.557 794.324 666.253 765.028C666.253 764.851 666.076 764.763 665.987 764.586C667.05 766.622 667.315 768.923 666.607 771.135C665.81 773.525 664.04 775.561 661.739 776.623C661.562 776.623 658.906 777.95 654.48 780.163C675.99 812.556 747.599 850.88 904.271 850.88C954.636 850.88 1013.85 846.897 1082.98 837.515C1102.63 834.86 1121.84 831.851 1140.87 828.93C1231.42 815.035 1317.02 801.847 1417.92 824.593C1415.71 824.062 1413.76 822.823 1412.44 820.876C1411.11 818.84 1410.67 816.362 1411.29 813.973C1411.29 813.796 1411.99 810.698 1412.79 805.476C1312.59 784.765 1227.71 797.687 1138.13 811.406V811.494Z" fill="black"/>
<path d="M653.861 760.869C649.966 763.082 648.196 767.684 649.966 771.932C649.966 772.109 650.143 772.287 650.232 772.464C655.277 769.897 658.198 768.569 658.198 768.569C656.605 765.914 655.277 763.436 653.861 760.869Z" fill="black"/>
<path d="M1428.19 818.574C1428.19 818.574 1428.46 818.22 1428.46 817.955C1429.52 813.175 1426.51 808.485 1421.73 807.334C1421.73 807.334 1421.55 807.334 1421.47 807.334C1420.58 812.821 1419.87 816.096 1419.87 816.096C1422.53 816.539 1425.27 817.424 1428.1 818.574H1428.19Z" fill="black"/>
<path d="M1411.37 814.061C1410.84 816.451 1411.2 818.929 1412.53 820.965C1413.76 822.912 1415.71 824.151 1418.01 824.682C1422.53 825.655 1426.86 823 1428.28 818.575C1425.45 817.424 1422.7 816.539 1420.05 816.097C1420.05 816.097 1420.85 812.822 1421.64 807.335C1418.72 806.715 1415.8 806.184 1412.97 805.564C1412.17 810.786 1411.46 813.884 1411.46 814.061H1411.37Z" fill="black"/>
<path d="M661.739 776.711C664.041 775.649 665.811 773.702 666.608 771.224C667.316 769.011 666.962 766.71 665.988 764.675C663.952 760.515 658.995 758.568 654.658 760.338C654.304 760.426 654.127 760.692 653.862 760.869C655.278 763.435 656.605 765.914 658.199 768.569C658.199 768.569 655.189 769.896 650.232 772.463C651.295 775.03 652.799 777.597 654.57 780.252C658.995 778.039 661.651 776.8 661.828 776.711H661.739Z" fill="black"/>
<path d="M918.787 362.234C918.787 300.457 972.25 250.45 1038.28 250.45C1104.32 250.45 1157.78 300.457 1157.78 362.234C1157.78 385.423 1150.25 407.018 1137.24 424.897C1139.99 426.047 1142.73 427.198 1145.47 428.437C1158.84 409.408 1166.63 386.662 1166.63 362.234C1166.63 295.677 1109.09 241.6 1038.28 241.6C967.47 241.6 909.936 295.677 909.936 362.234C909.936 378.077 913.299 393.123 919.23 407.018C922.151 406.576 925.16 406.133 928.17 405.691C922.151 392.326 918.787 377.634 918.787 362.234Z" fill="black"/>
<path d="M952.423 439.855C946.935 434.544 941.978 428.703 937.73 422.419C934.455 422.861 931.356 423.304 928.17 423.835C931.799 429.588 935.959 435.075 940.562 440.209C944.545 439.943 948.528 439.943 952.423 439.855Z" fill="black"/>
<path d="M1074.4 468.797C1077.94 470.655 1081.48 472.514 1085.02 474.461C1103.96 467.469 1120.69 456.406 1133.97 442.333C1131.14 441.094 1128.21 439.944 1125.21 438.793C1111.4 452.511 1094.05 462.955 1074.4 468.797Z" fill="black"/>
<path d="M1131.58 431.977C1134.41 433.128 1137.24 434.367 1139.99 435.606C1141.85 433.305 1143.7 430.915 1145.48 428.526C1142.82 427.287 1140.08 426.136 1137.24 424.985C1135.47 427.464 1133.53 429.765 1131.58 432.066V431.977Z" fill="black"/>
<path d="M932.507 414.1C931.002 411.356 929.497 408.524 928.17 405.691C925.16 406.134 922.15 406.488 919.229 407.019C920.469 409.851 921.885 412.683 923.301 415.427C926.311 414.985 929.409 414.542 932.507 414.1Z" fill="black"/>
<path d="M937.73 422.419C935.871 419.676 934.101 416.932 932.507 414.1C929.409 414.542 926.311 414.985 923.302 415.427C924.807 418.259 926.4 421.092 928.17 423.835C931.357 423.393 934.543 422.862 937.73 422.419Z" fill="black"/>
<path d="M1133.97 442.333C1136.09 440.121 1138.04 437.82 1139.99 435.518C1137.24 434.279 1134.5 433.129 1131.58 431.89C1129.54 434.279 1127.42 436.492 1125.21 438.705C1128.21 439.855 1131.14 441.006 1133.97 442.245V442.333Z" fill="black"/>
<path d="M927.639 362.235C927.639 305.502 977.296 259.302 1038.28 259.302C1099.27 259.302 1148.93 305.502 1148.93 362.235C1148.93 384.273 1141.4 404.63 1128.75 421.357C1131.67 422.508 1134.5 423.659 1137.33 424.898C1150.25 407.019 1157.87 385.512 1157.87 362.235C1157.87 300.457 1104.4 250.451 1038.37 250.451C972.339 250.451 918.876 300.457 918.876 362.235C918.876 377.635 922.24 392.327 928.259 405.692C931.357 405.249 934.455 404.807 937.553 404.453C931.268 391.531 927.728 377.281 927.728 362.235H927.639Z" fill="black"/>
<path d="M966.143 440.121C959.239 434.545 953.131 428.261 947.82 421.357C944.457 421.711 941.005 422.065 937.729 422.508C941.978 428.792 946.935 434.633 952.423 439.944C957.026 439.944 961.54 439.944 966.143 440.209V440.121Z" fill="black"/>
<path d="M1074.4 468.796C1094.05 462.955 1111.4 452.511 1125.2 438.793C1122.2 437.642 1119.19 436.491 1116 435.341C1101.31 448.882 1082.63 458.53 1061.74 462.778C1065.99 464.637 1070.15 466.672 1074.31 468.796H1074.4Z" fill="black"/>
<path d="M1122.81 428.526C1125.82 429.588 1128.74 430.739 1131.67 431.889C1133.61 429.588 1135.56 427.287 1137.33 424.809C1134.5 423.658 1131.67 422.419 1128.75 421.269C1126.89 423.747 1124.94 426.136 1122.81 428.438V428.526Z" fill="black"/>
<path d="M937.464 404.452C934.278 404.806 931.268 405.337 928.17 405.691C929.498 408.612 930.914 411.356 932.507 414.099C935.694 413.657 938.88 413.214 942.067 412.86C940.385 410.117 938.88 407.284 937.464 404.452Z" fill="black"/>
<path d="M1116.09 435.341C1119.19 436.403 1122.2 437.553 1125.29 438.793C1127.51 436.58 1129.63 434.367 1131.67 431.978C1128.75 430.827 1125.82 429.676 1122.82 428.614C1120.69 431.004 1118.48 433.217 1116.09 435.429V435.341Z" fill="black"/>
<path d="M947.82 421.357C945.784 418.614 943.837 415.781 942.066 412.949C938.791 413.303 935.693 413.746 932.507 414.188C934.1 417.021 935.87 419.764 937.729 422.508C941.093 422.065 944.456 421.711 947.82 421.357Z" fill="black"/>
<path d="M948.971 448.706C945.961 445.962 943.129 443.13 940.473 440.209C925.514 441.006 910.555 443.13 896.039 446.758C891.259 447.909 888.426 452.688 889.577 457.468C890.728 462.247 895.596 465.168 900.287 463.929C905.864 462.513 911.617 461.451 917.282 460.477L898.163 455.344C914.804 451.272 931.887 449.148 948.971 448.706Z" fill="black"/>
<path d="M1127.95 517.476L1108.83 512.342C1113.26 516.059 1117.68 519.865 1121.84 523.848C1123.52 525.53 1125.74 526.326 1128.04 526.326C1130.34 526.326 1132.64 525.441 1134.41 523.671C1137.77 520.131 1137.69 514.555 1134.23 511.192C1119.54 496.942 1102.9 484.728 1085.11 474.55C1081.3 475.966 1077.41 477.205 1073.51 478.267C1093.43 488.799 1111.84 501.898 1128.04 517.564L1127.95 517.476Z" fill="black"/>
<path d="M1043.95 464.902C1050.06 464.636 1056.07 463.928 1061.83 462.778C1031.73 449.325 999.07 441.625 966.143 440.12C970.745 443.749 975.614 447.112 980.748 450.033C1002.35 452.246 1023.59 457.29 1043.86 464.902H1043.95Z" fill="black"/>
<path d="M1060.94 471.983C1065.19 473.93 1069.35 476.054 1073.42 478.179C1077.41 477.116 1081.21 475.877 1085.02 474.461C1081.57 472.514 1078.03 470.567 1074.4 468.797C1069.97 470.124 1065.46 471.098 1060.85 471.983H1060.94Z" fill="black"/>
<path d="M948.971 448.705C953.486 448.617 958.089 448.617 962.603 448.705C958.974 445.961 955.61 442.952 952.424 439.854C948.44 439.854 944.457 439.943 940.562 440.209C943.218 443.218 946.05 446.05 949.06 448.705H948.971Z" fill="black"/>
<path d="M962.602 448.706C968.621 448.883 974.729 449.325 980.748 449.945C975.614 447.024 970.657 443.749 966.143 440.032C961.54 439.855 957.026 439.767 952.423 439.767C955.609 442.864 959.062 445.874 962.602 448.617V448.706Z" fill="black"/>
<path d="M1060.94 471.983C1065.55 471.186 1070.06 470.124 1074.49 468.797C1070.33 466.673 1066.16 464.637 1061.92 462.778C1056.07 463.929 1050.14 464.637 1044.04 464.902C1049.79 467.027 1055.45 469.416 1061.03 471.983H1060.94Z" fill="black"/>
<path d="M1073.42 478.179C1068.91 479.418 1064.31 480.303 1059.62 481.099C1077.23 489.419 1093.87 499.951 1108.83 512.342L1127.95 517.476C1111.75 501.81 1093.25 488.711 1073.42 478.179Z" fill="black"/>
<path d="M959.77 457.467C956.052 454.724 952.423 451.803 948.971 448.705C931.887 449.148 914.804 451.183 898.163 455.343L917.282 460.476C931.268 458.175 945.519 457.113 959.77 457.467Z" fill="black"/>
<path d="M1043.95 464.902C1023.59 457.291 1002.35 452.246 980.837 450.033C997.655 459.592 1017.31 465.168 1038.37 465.168C1040.23 465.168 1042.09 464.991 1044.04 464.902H1043.95Z" fill="black"/>
<path d="M1059.62 481.099C1064.31 480.391 1068.91 479.417 1073.42 478.178C1069.35 475.965 1065.1 473.93 1060.94 471.982C1054.92 473.045 1048.73 473.664 1042.44 473.841C1048.2 476.054 1053.95 478.443 1059.62 481.099Z" fill="black"/>
<path d="M962.602 448.706C958.088 448.529 953.485 448.617 948.971 448.706C952.423 451.803 955.963 454.724 959.77 457.468C965.877 457.556 971.896 457.999 977.915 458.618C972.516 455.698 967.382 452.423 962.602 448.706Z" fill="black"/>
<path d="M1038.28 465.168C1017.22 465.168 997.566 459.592 980.748 450.033C974.729 449.414 968.622 448.971 962.603 448.794C967.382 452.511 972.516 455.697 977.916 458.707C999.956 460.831 1021.73 465.964 1042.44 473.93C1048.73 473.753 1054.92 473.133 1060.94 472.071C1055.37 469.504 1049.7 467.203 1043.95 464.991C1042.09 465.079 1040.23 465.256 1038.28 465.256V465.168Z" fill="black"/>
<path d="M1609.29 1208.45C1515.2 1350.68 1462.27 1609.82 1443.06 1720.9C1437.04 1755.6 1414.65 1785.42 1382.78 1800.29C1070.86 1946.06 747.245 1854.9 616.419 1806.04C580.393 1792.59 553.308 1761.97 545.253 1724.35C489.488 1464.76 371.851 1256.95 371.851 1256.95C382.562 1241.64 394.865 1234.56 407.789 1232.7C406.726 1229.95 405.664 1227.03 404.691 1224.2C389.023 1226.95 375.569 1236.15 364.593 1251.9C362.646 1254.74 362.469 1258.37 364.151 1261.37C365.301 1263.41 481.787 1471.13 536.578 1726.3C545.253 1766.75 573.932 1799.76 613.321 1814.45C689.356 1842.86 838.061 1888.09 1013.14 1888.09C1130.43 1888.09 1259.57 1867.73 1386.59 1808.43C1420.93 1792.41 1445.28 1760.29 1451.83 1722.49C1470.15 1616.73 1522.82 1355.37 1616.73 1213.4C1618.41 1210.93 1618.68 1207.74 1617.53 1205C1616.38 1202.25 1613.9 1200.3 1610.98 1199.77C1610.62 1199.77 1593.8 1196.85 1572.56 1201.28C1571.76 1204.46 1570.88 1207.65 1569.91 1210.84C1591.5 1205.35 1609.38 1208.54 1609.38 1208.54L1609.29 1208.45Z" fill="black"/>
<path d="M1507.77 1245.88C1488.38 1237.92 1438.37 1224.47 1401.99 1276.6C1379.95 1265.53 1315.95 1241.55 1267.63 1306.16C1249.83 1296.07 1202.83 1273.06 1159.11 1282.97C1137.77 1287.75 1120.25 1299.61 1106.88 1318.28C1083.34 1305.54 1010.58 1271.9 966.762 1316.95C949.325 1305.09 901.172 1276.24 855.764 1283.59C835.494 1286.86 818.411 1296.86 804.868 1313.41C786.634 1299.08 738.393 1265.36 695.109 1272.17C677.583 1274.91 662.978 1283.85 651.471 1298.72C635.715 1283.5 598.716 1252.61 561.185 1256.15C542.863 1257.92 527.195 1267.48 514.361 1284.56C498.162 1266.42 460.632 1228.8 422.57 1223.93C423.81 1227.21 425.049 1230.48 426.376 1233.58C458.153 1240.22 489.753 1270.75 505.332 1287.75C506.306 1286.51 507.456 1285.45 508.961 1284.83C513.475 1283.06 518.609 1285.27 520.468 1289.87C520.557 1290.23 520.734 1290.49 520.822 1290.85C571.63 1221.46 652.71 1312.71 652.71 1312.71C700.331 1232.25 806.372 1326.16 806.372 1326.16C860.544 1246.24 968.09 1328.81 968.09 1328.81C1014.12 1270.58 1109.63 1330.14 1109.63 1330.14C1160.61 1246.33 1270.02 1318.02 1270.02 1318.02C1324.98 1235.62 1404.82 1288.37 1404.82 1288.37C1438.37 1232.96 1486.97 1246.68 1504.58 1254.11C1505.38 1252.43 1506.09 1250.75 1506.88 1249.07C1509.01 1244.64 1514.32 1242.79 1518.65 1244.91C1518.74 1244.91 1518.83 1245.09 1518.92 1245.09C1527.68 1232.96 1537.95 1224.55 1548.4 1218.98C1549.81 1215.17 1551.14 1211.37 1552.29 1207.56C1536.45 1214.29 1520.16 1225.88 1507.68 1245.88H1507.77Z" fill="black"/>
<path d="M416.817 1232.25C415.666 1229.33 414.516 1226.41 413.453 1223.31C413.188 1223.31 413.011 1223.31 412.745 1223.31C410.001 1223.31 407.346 1223.76 404.69 1224.2C405.664 1227.12 406.726 1229.95 407.788 1232.7C410.798 1232.25 413.719 1232.08 416.729 1232.17L416.817 1232.25Z" fill="black"/>
<path d="M1559.46 1214.02C1563 1212.7 1566.37 1211.63 1569.82 1210.75C1570.79 1207.56 1571.68 1204.38 1572.47 1201.19C1569.29 1201.81 1566.01 1202.69 1562.65 1203.76C1561.67 1207.21 1560.61 1210.66 1559.46 1214.02Z" fill="black"/>
<path d="M1548.48 1218.98C1552.2 1217.03 1555.83 1215.44 1559.46 1214.02C1560.61 1210.57 1561.67 1207.21 1562.65 1203.76C1559.28 1204.82 1555.83 1206.06 1552.38 1207.56C1551.23 1211.37 1549.9 1215.17 1548.48 1218.98Z" fill="black"/>
<path d="M422.66 1223.85C420.004 1223.49 417.26 1223.31 414.605 1223.31C414.251 1223.31 413.808 1223.31 413.454 1223.31C414.516 1226.32 415.667 1229.33 416.818 1232.25C420.004 1232.34 423.279 1232.87 426.554 1233.49C425.227 1230.39 423.987 1227.12 422.748 1223.85H422.66Z" fill="black"/>
<path d="M1593.8 1216.32C1503.17 1363.33 1452.36 1615.58 1434.39 1719.4C1428.81 1751.43 1408.19 1778.7 1379.07 1792.24C1068.73 1937.3 744.501 1844.37 619.517 1797.72C585.793 1785.16 561.274 1757.01 553.927 1722.49C503.297 1486.89 400.708 1291.38 382.385 1257.75C390.705 1247.48 400.265 1242.17 411.329 1241.19C410.09 1238.45 408.939 1235.62 407.789 1232.7C394.866 1234.56 382.562 1241.64 371.852 1256.95C371.852 1256.95 489.488 1464.76 545.253 1724.35C553.308 1761.97 580.393 1792.59 616.419 1806.04C747.245 1854.9 1070.86 1946.06 1382.78 1800.29C1414.65 1785.42 1437.04 1755.59 1443.06 1720.9C1462.27 1609.82 1515.2 1350.68 1609.29 1208.45C1609.29 1208.45 1591.41 1205.35 1569.82 1210.75C1568.84 1214.11 1567.78 1217.39 1566.63 1220.66C1576.81 1217.39 1586.46 1216.32 1593.8 1216.24V1216.32Z" fill="black"/>
<path d="M562.956 1273.68C602.522 1269.78 645.718 1318.02 646.16 1318.46C648.019 1320.58 650.763 1321.65 653.596 1321.38C656.428 1321.11 658.906 1319.52 660.323 1317.04C669.794 1301.02 682.097 1292 697.765 1289.52C742.996 1282.44 799.911 1332.09 800.531 1332.62C802.478 1334.3 805.045 1335.1 807.524 1334.74C810.09 1334.39 812.303 1333.06 813.72 1330.94C825.404 1313.77 840.009 1303.94 858.508 1300.94C906.484 1293.06 962.16 1335.19 962.691 1335.63C966.497 1338.55 971.985 1337.84 974.994 1334.13C1015.53 1282.79 1104.05 1336.96 1104.93 1337.49C1106.97 1338.73 1109.36 1339.17 1111.66 1338.55C1113.96 1338.02 1115.91 1336.6 1117.15 1334.57C1128.39 1316.07 1143.79 1304.48 1162.82 1300.14C1209.65 1289.52 1264.62 1324.92 1265.15 1325.27C1269.22 1327.93 1274.62 1326.78 1277.36 1322.8C1326.67 1248.89 1396.95 1293.68 1399.96 1295.62C1401.99 1296.95 1404.47 1297.39 1406.77 1296.86C1409.16 1296.33 1411.2 1294.92 1412.44 1292.79C1442.44 1243.23 1485.28 1255.35 1500.95 1261.99C1502.19 1259.34 1503.34 1256.68 1504.67 1254.03C1487.06 1246.59 1438.46 1232.87 1404.91 1288.28C1404.91 1288.28 1325.07 1235.53 1270.1 1317.93C1270.1 1317.93 1160.7 1246.24 1109.71 1330.05C1109.71 1330.05 1014.21 1270.49 968.179 1328.73C968.179 1328.73 860.633 1246.15 806.461 1326.07C806.461 1326.07 700.42 1232.17 652.799 1312.62C652.799 1312.62 571.719 1221.37 520.911 1290.76C522.239 1294.12 523.478 1297.48 524.717 1300.85C535.339 1284.12 547.82 1275.18 562.956 1273.68Z" fill="black"/>
<path d="M506.307 1302.17C505.51 1300.23 504.802 1298.19 504.094 1296.24C502.943 1293.24 503.651 1290.14 505.421 1287.75C489.843 1270.75 458.243 1240.13 426.466 1233.58C427.971 1237.12 429.652 1240.57 431.334 1243.94C464.793 1254.56 497.986 1292.35 506.307 1302.26V1302.17Z" fill="black"/>
<path d="M1519.1 1245.09C1522.37 1246.86 1524.14 1250.4 1523.61 1253.94C1529.28 1245.18 1535.74 1238.45 1542.55 1233.23C1544.77 1228.54 1546.71 1223.67 1548.49 1218.89C1538.04 1224.56 1527.77 1232.87 1519.01 1245L1519.1 1245.09Z" fill="black"/>
<path d="M413.276 1241.02C413.719 1241.02 414.162 1241.02 414.693 1241.02C416.728 1241.02 418.764 1241.28 420.8 1241.55C419.384 1238.54 418.056 1235.44 416.817 1232.25C413.807 1232.17 410.798 1232.25 407.877 1232.79C409.028 1235.71 410.178 1238.54 411.418 1241.28C412.126 1241.28 412.745 1241.11 413.365 1241.11L413.276 1241.02Z" fill="black"/>
<path d="M1566.63 1220.75C1567.78 1217.47 1568.84 1214.11 1569.82 1210.84C1566.45 1211.72 1563 1212.78 1559.46 1214.11C1558.22 1217.92 1556.8 1221.63 1555.39 1225.44C1559.19 1223.58 1562.91 1222.08 1566.63 1220.84V1220.75Z" fill="black"/>
<path d="M1542.55 1233.32C1546.71 1230.13 1551.05 1227.47 1555.39 1225.35C1556.89 1221.63 1558.22 1217.83 1559.46 1214.02C1555.83 1215.44 1552.11 1216.94 1548.49 1218.98C1546.71 1223.85 1544.68 1228.63 1542.55 1233.32Z" fill="black"/>
<path d="M431.334 1243.85C429.652 1240.48 428.058 1237.03 426.465 1233.49C423.19 1232.78 420.004 1232.34 416.729 1232.25C417.968 1235.44 419.384 1238.54 420.712 1241.55C424.252 1241.99 427.704 1242.7 431.245 1243.85H431.334Z" fill="black"/>
<path d="M601.283 1638.59C602.08 1642.84 605.797 1645.85 609.958 1645.85C610.489 1645.85 611.02 1645.85 611.551 1645.67C616.331 1644.78 619.517 1640.18 618.632 1635.4C600.575 1536.36 574.374 1438.74 540.827 1344.39C533.923 1342.62 527.019 1340.85 520.203 1338.99C555.432 1436 582.606 1536.54 601.195 1638.59H601.283Z" fill="black"/>
<path d="M524.806 1300.85C524.186 1301.82 523.566 1302.7 523.035 1303.68C521.619 1305.98 519.318 1307.57 516.662 1307.93C514.007 1308.28 511.263 1307.4 509.316 1305.54C509.05 1305.27 508.696 1304.92 508.43 1304.56C508.253 1304.3 507.457 1303.32 506.395 1302.09C508.519 1307.48 510.466 1312.97 512.591 1318.37C519.583 1320.41 526.665 1322.35 533.746 1324.21C530.825 1316.34 527.904 1308.55 524.894 1300.76L524.806 1300.85Z" fill="black"/>
<path d="M516.396 1328.81C517.636 1332.18 518.963 1335.63 520.203 1338.99C527.018 1340.85 533.923 1342.62 540.827 1344.39C539.676 1341.12 538.525 1337.75 537.375 1334.48C530.382 1332.62 523.389 1330.76 516.396 1328.81Z" fill="black"/>
<path d="M533.657 1324.3C526.576 1322.44 519.495 1320.5 512.502 1318.46C513.83 1321.91 515.157 1325.36 516.397 1328.82C523.389 1330.76 530.382 1332.62 537.375 1334.48C536.136 1331.12 534.896 1327.75 533.657 1324.3Z" fill="black"/>
<path d="M520.911 1290.76C520.911 1290.76 520.646 1290.14 520.557 1289.78C518.787 1285.27 513.653 1282.97 509.05 1284.74C507.457 1285.36 506.306 1286.42 505.421 1287.66C511.617 1294.47 515.335 1299.17 515.335 1299.17C517.193 1296.07 519.052 1293.32 520.911 1290.76Z" fill="black"/>
<path d="M504.093 1296.24C504.89 1298.19 505.598 1300.23 506.306 1302.17C507.368 1303.41 508.165 1304.39 508.342 1304.65C508.608 1305.01 508.873 1305.36 509.227 1305.63C511.175 1307.49 513.83 1308.37 516.574 1308.02C519.229 1307.66 521.619 1306.07 522.947 1303.77C523.567 1302.79 524.186 1301.91 524.717 1300.94C523.39 1297.57 522.239 1294.12 520.911 1290.85C518.964 1293.41 517.105 1296.24 515.335 1299.25C515.335 1299.25 511.617 1294.56 505.421 1287.75C503.562 1290.14 502.943 1293.24 504.093 1296.24Z" fill="black"/>
<path d="M1382.7 1636.46C1381.9 1641.24 1385.09 1645.85 1389.87 1646.73C1390.4 1646.73 1390.93 1646.82 1391.37 1646.82C1395.62 1646.82 1399.34 1643.81 1400.04 1639.47C1419.52 1527.07 1452.36 1417.41 1497.41 1312.62C1492.72 1313.86 1485.55 1315.72 1475.99 1318.02C1433.06 1420.33 1401.55 1527.07 1382.61 1636.38L1382.7 1636.46Z" fill="black"/>
<path d="M1513.79 1265.8C1511.49 1266.51 1509.01 1266.15 1506.88 1264.91C1506.44 1264.65 1504.32 1263.5 1500.95 1261.99C1495.29 1274.03 1489.71 1285.98 1484.4 1298.19C1489.18 1297.04 1492.63 1296.16 1494.49 1295.63C1501.22 1290.32 1507.32 1284.47 1512.9 1278.28C1516.26 1271.11 1519.36 1263.85 1522.82 1256.68C1523.26 1255.8 1523.43 1254.91 1523.52 1253.94C1522.02 1256.24 1520.51 1258.72 1519.1 1261.37C1517.95 1263.5 1516 1265.09 1513.7 1265.8H1513.79Z" fill="black"/>
<path d="M1480.15 1308.37C1478.73 1311.56 1477.41 1314.83 1476.08 1318.11C1485.64 1315.81 1492.81 1313.95 1497.5 1312.71C1499.27 1308.55 1501.04 1304.3 1502.9 1300.05C1501.39 1301.29 1499.98 1302.62 1498.47 1303.77C1498.47 1303.77 1492.01 1305.45 1480.06 1308.37H1480.15Z" fill="black"/>
<path d="M1494.49 1295.71C1492.63 1296.16 1489.18 1297.04 1484.4 1298.28C1482.9 1301.64 1481.57 1305.01 1480.15 1308.37C1492.1 1305.54 1498.56 1303.77 1498.56 1303.77C1500.07 1302.62 1501.48 1301.29 1502.99 1300.05C1506.17 1292.79 1509.63 1285.54 1512.99 1278.37C1507.33 1284.56 1501.22 1290.4 1494.58 1295.71H1494.49Z" fill="black"/>
<path d="M1519.1 1245.09C1519.1 1245.09 1518.92 1244.91 1518.83 1244.91C1514.41 1242.79 1509.18 1244.65 1507.06 1249.07C1506.26 1250.75 1505.55 1252.43 1504.76 1254.12C1509.01 1255.89 1511.48 1257.39 1511.48 1257.39C1513.87 1252.88 1516.44 1248.89 1519.19 1245.18L1519.1 1245.09Z" fill="black"/>
<path d="M1506.97 1264.91C1509.1 1266.15 1511.57 1266.42 1513.88 1265.8C1516.18 1265.09 1518.12 1263.59 1519.28 1261.37C1520.69 1258.72 1522.11 1256.24 1523.7 1253.94C1524.14 1250.4 1522.46 1246.86 1519.19 1245.09C1516.53 1248.81 1513.88 1252.79 1511.49 1257.3C1511.49 1257.3 1509.01 1255.89 1504.76 1254.03C1503.52 1256.68 1502.28 1259.34 1501.04 1261.99C1504.49 1263.41 1506.62 1264.65 1506.97 1264.91Z" fill="black"/>
<path d="M767.514 599.785C752.201 599.343 738.039 613.504 721.486 630.055L727.594 636.516C747.687 616.425 764.947 599.077 778.402 614.655C790.44 628.55 776.631 645.366 756.538 665.457C736.445 685.548 718.831 701.126 705.731 687.319C689.355 669.971 707.589 656.518 727.594 636.516L721.309 630.232C719.096 632.444 716.795 634.657 714.671 636.781C697.853 653.155 678.733 671.653 699.269 693.425C704.226 698.647 710.068 701.303 716.706 701.391C716.795 701.391 716.884 701.391 717.061 701.391C731.931 701.391 746.536 687.938 762.823 671.653C779.198 655.279 803.983 630.497 785.129 608.813C780.172 603.06 774.241 599.963 767.603 599.785H767.514Z" fill="black"/>
<path d="M766.63 617.488H766.895C767.515 617.488 769.285 617.488 771.675 620.409C777.605 627.224 772.029 637.402 750.254 659.175C741.668 667.76 725.736 683.691 717.061 683.691C715.822 683.691 714.229 683.426 712.193 681.213C704.846 673.424 706.97 668.999 727.063 649.439C729.276 647.315 731.578 645.014 733.879 642.713L727.594 636.429C707.59 656.431 689.356 669.884 705.731 687.232C718.831 701.039 736.446 685.461 756.539 665.37C776.632 645.279 790.44 628.463 778.402 614.568C764.948 598.99 747.687 616.338 727.594 636.429L734.056 642.536C745.829 630.764 759.194 617.488 766.718 617.488H766.63Z" fill="black"/>
<path d="M920.469 686.877C913.742 690.417 909.405 695.55 907.723 702.011C903.74 716.615 914.362 733.697 926.577 753.434L934.366 749.185C919.407 725.112 906.396 704.401 924.63 694.754C940.828 686.169 954.194 703.427 969.153 727.501C984.112 751.575 995.353 772.286 978.89 781.933C958.265 794.058 949.325 773.259 934.366 749.185L926.843 753.876C928.524 756.62 930.118 759.275 931.711 761.842C941.093 777.419 951.45 794.589 967.56 794.589C972.339 794.589 977.562 793.085 983.404 789.633C989.6 786.004 993.583 780.871 995.176 774.498C998.717 759.983 988.892 742.547 976.765 722.899C965.258 704.401 946.05 673.512 920.558 686.965L920.469 686.877Z" fill="black"/>
<path d="M924.806 706.525C924.983 705.906 925.426 704.224 928.789 702.454C936.667 698.206 945.607 706.26 961.629 732.015C968.09 742.371 980.04 761.577 977.915 769.985C977.65 771.135 977.03 772.551 974.375 774.144C965.169 779.543 961.275 776.534 946.847 752.46C945.253 749.805 943.571 747.062 941.89 744.318L934.366 749.009C949.325 773.082 958.265 793.881 978.889 781.756C995.353 772.109 984.111 751.398 969.152 727.325C954.193 703.251 940.827 685.992 924.629 694.577C906.395 704.224 919.407 724.935 934.366 749.009L941.624 743.875C932.861 729.714 922.859 713.606 924.806 706.437V706.525Z" fill="black"/>
<path d="M1272.49 690.948C1252.14 679.973 1221.42 663.334 1205.93 687.496C1201.86 693.957 1200.62 700.418 1202.3 706.879C1206.11 721.571 1223.81 731.218 1244.35 742.37L1248.86 734.759C1223.9 721.217 1202.39 709.623 1213.45 692.276C1223.37 676.787 1243.46 685.284 1268.33 698.737C1293.3 712.278 1313.21 724.758 1303.74 741.22C1291.79 761.93 1273.82 748.212 1248.86 734.759L1244.61 742.547C1247.53 744.14 1250.37 745.734 1253.11 747.238C1264.7 753.699 1277.19 760.691 1288.52 760.691C1297.1 760.691 1304.98 756.708 1311.35 745.645C1314.98 739.45 1315.87 733.077 1314.1 726.705C1310.02 712.278 1292.85 702.011 1272.49 690.948Z" fill="black"/>
<path d="M1219.39 702.542C1219.21 701.834 1218.77 700.241 1220.8 697.055C1225.67 689.443 1237 691.922 1264 706.525C1274.71 712.367 1294.62 723.164 1296.92 731.484C1297.28 732.635 1297.37 734.228 1295.95 736.795C1290.64 745.999 1285.86 745.291 1261.61 731.75C1258.77 730.157 1255.85 728.563 1252.93 726.97L1248.77 734.759C1273.73 748.212 1291.7 761.93 1303.65 741.22C1313.12 724.758 1293.21 712.278 1268.25 698.737C1243.37 685.284 1223.28 676.787 1213.37 692.276C1202.3 709.623 1223.81 721.217 1248.77 734.759L1252.76 726.882C1237.97 718.828 1221.24 709.8 1219.39 702.542Z" fill="black"/>
<path d="M1172.83 438.262C1181.85 429.854 1192.65 432.951 1205.13 441.713C1206.64 439.147 1208.05 436.58 1209.56 433.925C1195.66 424.366 1180.26 419.144 1166.72 431.801C1164.95 433.394 1163.62 435.164 1162.38 436.934C1164.95 438.35 1167.6 439.766 1170.08 441.271C1170.79 440.209 1171.68 439.235 1172.74 438.262H1172.83Z" fill="black"/>
<path d="M1248.59 507.562C1248.59 507.562 1247.89 508.182 1247.53 508.536L1253.2 515.351C1253.82 514.82 1254.44 514.377 1254.97 513.758C1259.92 508.624 1262.4 502.694 1262.23 496.056C1261.78 481.099 1247.62 466.938 1230.54 451.361C1228.41 449.413 1226.02 447.289 1223.63 445.165C1222.13 447.82 1220.62 450.475 1219.12 453.042C1220.89 454.635 1222.75 456.228 1224.52 457.91C1245.41 477.027 1261.78 494.021 1248.59 507.651V507.562Z" fill="black"/>
<path d="M1212.22 447.112C1213.63 444.723 1215.14 442.067 1216.73 439.235C1214.43 437.377 1212.04 435.606 1209.56 433.925C1208.05 436.491 1206.55 439.147 1205.13 441.713C1207.44 443.307 1209.83 445.165 1212.3 447.112H1212.22Z" fill="black"/>
<path d="M1219.12 452.954C1220.62 450.388 1222.13 447.732 1223.63 445.077C1221.42 443.13 1219.12 441.183 1216.82 439.324C1215.22 442.156 1213.72 444.723 1212.3 447.201C1214.52 449.06 1216.82 451.007 1219.12 453.043V452.954Z" fill="black"/>
<path d="M1251.07 517.121C1251.78 516.59 1252.4 515.97 1253.11 515.262L1247.44 508.447C1246.91 508.978 1246.38 509.509 1245.85 509.863C1247.62 512.253 1249.39 514.643 1250.99 517.032L1251.07 517.121Z" fill="black"/>
<path d="M1190.79 494.375L1196.9 488.002L1190.88 494.552C1193.27 496.764 1195.57 498.888 1197.79 500.924C1209.29 511.722 1221.77 523.493 1235.05 523.493C1232.49 519.864 1229.74 516.236 1226.82 512.695C1217.88 508.624 1208.32 498.623 1196.81 488.002C1187.17 479.24 1178.23 470.92 1172.74 463.22C1168.31 460.3 1163.8 457.467 1159.02 454.724C1161.94 468 1175.3 480.302 1190.71 494.375H1190.79Z" fill="black"/>
<path d="M1167.34 449.68C1167.34 446.759 1168.13 444.015 1170.17 441.271C1167.69 439.767 1165.04 438.351 1162.47 436.935C1160.79 439.413 1159.55 442.068 1159.02 444.9C1161.85 446.493 1164.68 448.086 1167.43 449.68H1167.34Z" fill="black"/>
<path d="M1240.1 513.492C1239.57 513.669 1238.95 513.846 1238.42 514.023C1240.27 516.59 1242.22 519.068 1243.9 521.635C1244.61 521.369 1245.23 521.015 1245.94 520.661L1240.1 513.581V513.492Z" fill="black"/>
<path d="M1246.03 520.573C1247.71 519.688 1249.39 518.537 1251.07 517.121C1249.39 514.732 1247.71 512.342 1245.94 509.952C1243.99 511.545 1242.04 512.696 1240.1 513.404L1245.94 520.484L1246.03 520.573Z" fill="black"/>
<path d="M1159.11 454.813C1163.89 457.556 1168.4 460.388 1172.83 463.309C1169.46 458.618 1167.43 454.104 1167.43 449.768C1164.68 448.086 1161.85 446.493 1159.02 444.988C1158.66 446.581 1158.49 448.175 1158.49 449.768C1158.49 451.449 1158.75 453.131 1159.11 454.813Z" fill="black"/>
<path d="M1236.82 523.317L1228.5 513.316C1227.97 513.139 1227.44 512.962 1226.91 512.696C1229.83 516.325 1232.57 519.954 1235.14 523.494C1235.67 523.494 1236.29 523.317 1236.82 523.317Z" fill="black"/>
<path d="M1243.99 521.546C1242.22 518.979 1240.36 516.501 1238.5 513.935C1235.14 514.82 1231.87 514.466 1228.5 513.227L1236.82 523.228C1239.21 523.051 1241.6 522.52 1243.99 521.458V521.546Z" fill="black"/>
<path d="M1178.85 444.723C1180.53 443.13 1182.47 442.333 1184.86 442.333C1188.76 442.333 1193.89 444.723 1200.62 449.502C1202.12 446.935 1203.54 444.28 1205.05 441.713C1192.56 432.951 1181.77 429.854 1172.74 438.262C1171.68 439.235 1170.79 440.297 1170.08 441.271C1172.65 442.776 1175.13 444.369 1177.61 445.962C1177.96 445.519 1178.31 445.165 1178.76 444.634L1178.85 444.723Z" fill="black"/>
<path d="M1218.5 464.371C1227.44 472.602 1244.17 487.914 1244.44 496.587C1244.44 497.826 1244.26 499.331 1242.22 501.455C1242.13 501.544 1241.96 501.632 1241.87 501.809L1247.53 508.624C1247.53 508.624 1248.24 508.005 1248.6 507.651C1261.78 494.021 1245.41 477.027 1224.52 457.91C1222.66 456.228 1220.89 454.635 1219.12 453.042C1217.62 455.697 1216.11 458.352 1214.61 460.919C1215.93 462.07 1217.17 463.22 1218.59 464.459L1218.5 464.371Z" fill="black"/>
<path d="M1207.79 454.901C1209.12 452.6 1210.62 449.945 1212.3 447.113C1209.91 445.166 1207.52 443.307 1205.13 441.714C1203.63 444.281 1202.12 446.936 1200.71 449.502C1202.92 451.096 1205.22 452.866 1207.79 454.99V454.901Z" fill="black"/>
<path d="M1214.61 460.831C1216.11 458.264 1217.62 455.609 1219.12 452.954C1216.82 450.918 1214.52 448.971 1212.3 447.112C1210.62 450.033 1209.12 452.6 1207.79 454.901C1209.91 456.671 1212.22 458.618 1214.61 460.742V460.831Z" fill="black"/>
<path d="M1245.94 510.041C1246.47 509.598 1247 509.067 1247.53 508.625L1241.87 501.81C1241.43 502.252 1240.98 502.695 1240.45 503.049C1242.31 505.35 1244.17 507.74 1245.85 510.041H1245.94Z" fill="black"/>
<path d="M1196.9 488.003C1208.41 498.535 1217.88 508.625 1226.91 512.696C1212.84 495.172 1195.04 478.001 1172.83 463.221C1178.31 470.921 1187.34 479.152 1196.9 488.003Z" fill="black"/>
<path d="M1176.19 449.59C1176.19 449.059 1176.19 447.82 1177.69 446.05C1175.22 444.457 1172.74 442.864 1170.17 441.359C1168.22 444.103 1167.34 446.847 1167.34 449.768C1171.59 452.334 1175.66 454.901 1179.64 457.645C1177.61 454.635 1176.19 451.892 1176.19 449.679V449.59Z" fill="black"/>
<path d="M1233.46 505.438C1232.75 505.35 1232.04 505.173 1231.25 504.907C1233.72 507.916 1236.11 510.926 1238.42 514.023C1238.95 513.846 1239.57 513.669 1240.1 513.492L1233.46 505.438Z" fill="black"/>
<path d="M1233.46 505.439L1240.1 513.493C1242.04 512.785 1243.9 511.634 1245.94 510.041C1244.17 507.651 1242.4 505.35 1240.54 503.049C1238.24 504.996 1236.11 505.881 1233.55 505.527L1233.46 505.439Z" fill="black"/>
<path d="M1226.91 512.695C1227.44 512.961 1227.97 513.138 1228.5 513.315L1199.56 478.443C1191.77 471.274 1183.98 463.84 1179.64 457.556C1175.66 454.901 1171.59 452.245 1167.34 449.679C1167.34 454.016 1169.46 458.529 1172.74 463.22C1194.95 478.001 1212.75 495.083 1226.82 512.695H1226.91Z" fill="black"/>
<path d="M1238.42 514.023C1236.11 511.014 1233.72 507.916 1231.25 504.907C1226.64 503.137 1220.36 497.915 1209.91 488.091C1207.61 485.966 1205.31 483.754 1202.83 481.541H1202.66C1201.59 480.479 1200.53 479.505 1199.47 478.443L1228.41 513.315C1231.78 514.554 1235.05 514.908 1238.42 514.023Z" fill="black"/>
<path d="M916.132 550.046C923.213 550.754 931.356 551.639 939.5 551.639C957.734 551.639 975.526 547.302 978.978 527.653C980.305 520.13 978.978 513.581 974.818 508.27C965.612 496.056 945.43 494.021 922.062 491.72C918.876 491.366 915.689 491.012 912.68 490.658C889.4 488.002 863.023 484.993 859.217 514.554C858.331 521.723 859.925 527.919 863.996 533.052C873.29 544.735 893.118 547.656 916.132 550.046ZM867.98 515.616C870.989 491.985 892.941 497.65 921.177 500.482C949.414 503.314 973.755 505.792 970.215 526.06C967.028 544.116 945.253 544.116 917.017 541.195C888.781 538.274 865.59 534.468 867.98 515.616Z" fill="black"/>
<path d="M917.017 541.195C945.253 544.116 967.028 544.116 970.214 526.061C973.755 505.793 949.413 503.315 921.177 500.482C892.941 497.65 870.989 491.986 867.979 515.617C865.589 534.469 888.78 538.275 917.017 541.195ZM876.742 516.768C877.627 509.51 880.194 506.678 890.816 506.678C895.596 506.678 901.969 507.209 910.644 508.271C913.742 508.625 917.017 508.979 920.292 509.333C937.11 511.015 956.14 512.962 960.743 518.98C961.186 519.511 962.159 520.839 961.54 524.556C959.947 533.407 948.174 535.531 917.99 532.433C905.864 531.194 883.292 528.804 877.893 522.078C877.096 521.104 876.388 519.777 876.831 516.768H876.742Z" fill="black"/>
<path d="M733.082 505.084C717.504 486.94 736.269 474.461 757.335 455.432C778.314 436.315 796.371 419.852 809.117 436.049C810.268 437.554 811.064 439.058 811.772 440.563C814.339 439.235 817.083 437.908 819.739 436.669C818.854 434.633 817.703 432.686 816.11 430.65C811.418 424.632 805.576 421.357 798.938 420.738C783.713 419.498 768.754 433.128 751.493 448.883C749.192 451.007 746.891 453.042 744.589 454.99C726.886 470.567 706.882 488.18 726.444 510.926C728.656 513.492 731.135 515.44 733.79 516.944C734.941 514.201 736.092 511.545 737.508 508.802C736.003 507.917 734.587 506.677 733.171 505.173L733.082 505.084Z" fill="black"/>
<path d="M820.27 456.229C815.136 458.884 810.091 461.627 805.399 464.548C800.354 471.186 793.096 478.267 784.864 485.701C776.012 493.667 767.692 500.924 759.991 505.615C756.982 509.864 754.326 514.289 752.113 518.626C764.328 515.351 776.898 504.73 790.706 492.251C801.328 482.603 815.313 469.947 820.182 456.229H820.27Z" fill="black"/>
<path d="M746.271 510.837C743.084 511.103 740.163 510.483 737.331 508.802C735.915 511.457 734.764 514.201 733.613 516.944C736.18 518.36 739.013 519.246 742.022 519.511C743.261 516.59 744.678 513.67 746.182 510.837H746.271Z" fill="black"/>
<path d="M812.746 450.21C815.756 448.617 818.854 447.024 821.952 445.52C821.775 442.599 821.067 439.59 819.739 436.669C817.083 437.997 814.339 439.236 811.772 440.563C813.1 443.661 813.366 446.936 812.746 450.21Z" fill="black"/>
<path d="M744.943 519.776C747.333 519.776 749.812 519.334 752.201 518.626C754.326 514.2 757.07 509.864 760.079 505.615C755.211 508.536 750.608 510.483 746.359 510.837C744.855 513.669 743.438 516.59 742.199 519.511C742.642 519.511 743.084 519.688 743.527 519.688C744.058 519.688 744.501 519.688 745.032 519.688L744.943 519.776Z" fill="black"/>
<path d="M820.27 456.229C821.509 452.689 822.129 449.148 821.952 445.52C818.854 447.024 815.756 448.617 812.746 450.21C811.861 454.813 809.206 459.592 805.399 464.548C810.091 461.628 815.136 458.884 820.27 456.229Z" fill="black"/>
<path d="M739.81 499.332C732.817 491.189 735.118 486.852 756.274 468.266C758.575 466.23 760.965 464.195 763.355 461.982C775.57 450.919 789.29 438.351 796.902 438.351C797.079 438.351 797.256 438.351 797.433 438.351C798.053 438.351 799.823 438.528 802.125 441.537C802.921 442.599 803.452 443.749 803.718 444.989C806.373 443.484 809.029 442.068 811.684 440.563C811.065 439.059 810.268 437.554 809.029 436.049C796.283 419.853 778.225 436.315 757.247 455.432C736.181 474.461 717.415 486.941 732.994 505.085C734.322 506.678 735.827 507.828 737.331 508.713C738.659 506.147 740.075 503.58 741.669 501.013C741.049 500.659 740.429 500.128 739.721 499.332H739.81Z" fill="black"/>
<path d="M805.399 464.548C788.138 475.08 773.887 487.294 763.354 500.836C762.115 502.429 761.141 504.022 760.079 505.615C767.691 501.013 776.1 493.755 784.952 485.701C793.184 478.266 800.442 471.186 805.487 464.548H805.399Z" fill="black"/>
<path d="M744.501 501.987C743.793 501.987 742.819 501.721 741.757 501.013C740.164 503.58 738.748 506.147 737.42 508.713C740.164 510.395 743.173 511.014 746.36 510.749C748.573 506.766 751.051 502.783 753.795 498.978C750.343 500.925 747.068 502.164 744.501 501.987Z" fill="black"/>
<path d="M799.026 458.175C803.452 455.432 807.966 452.776 812.746 450.21C813.366 446.935 813.1 443.66 811.773 440.562C809.029 441.979 806.373 443.483 803.806 444.988C804.603 448.44 803.098 452.688 799.115 458.264L799.026 458.175Z" fill="black"/>
<path d="M763.354 500.836C773.888 487.294 788.139 475.08 805.399 464.548C809.205 459.592 811.861 454.812 812.746 450.21C807.966 452.777 803.452 455.432 799.026 458.176C794.954 463.663 788.493 470.478 778.933 479.152C772.56 484.993 762.292 494.286 753.795 499.066C751.051 502.871 748.572 506.854 746.359 510.837C750.608 510.483 755.211 508.536 760.079 505.615C761.141 504.022 762.204 502.429 763.354 500.836Z" fill="black"/>
<path d="M545.695 851.766C550.033 844.154 554.989 836.985 560.477 830.259L553.573 825.391C551.714 827.957 549.944 830.436 548.174 832.825C536.578 848.579 523.832 866.015 533.392 881.858C535.162 874.866 537.463 868.228 540.473 861.767C541.624 858.581 543.394 855.306 545.607 851.854L545.695 851.766Z" fill="black"/>
<path d="M595.707 796.536C598.982 793.969 602.168 791.58 605.355 789.367C601.726 787.951 598.008 787.331 594.114 787.862C578.977 789.809 567.293 806.36 553.662 825.389L560.478 830.345C561.274 829.283 562.248 828.398 563.045 827.336C574.463 811.316 584.908 797.598 595.618 796.536H595.707Z" fill="black"/>
<path d="M560.478 830.347L553.662 825.391L560.478 830.347Z" fill="black"/>
<path d="M560.743 896.283C575.613 893.981 587.917 878.227 601.283 859.464C613.055 843.002 629.962 819.193 619.34 801.227C616.95 802.908 614.472 804.678 611.993 806.537C617.924 818.22 608.01 834.859 594.025 854.419C578.623 876.015 564.638 893.362 550.475 886.193C550.298 886.901 550.121 887.609 549.944 888.229C549.413 890.53 549.236 892.831 548.882 895.044C551.537 896.106 554.281 896.637 557.114 896.637C558.264 896.637 559.504 896.548 560.743 896.371V896.283Z" fill="black"/>
<path d="M540.65 889.911C541.269 886.547 542.066 883.184 543.04 879.91C538.26 874.245 537.994 868.315 540.473 861.766C537.552 868.138 535.162 874.865 533.392 881.857C535.073 884.6 537.463 887.344 540.65 889.999V889.911Z" fill="black"/>
<path d="M560.477 830.346C554.989 837.072 550.033 844.241 545.695 851.853C549.767 845.392 555.255 838.4 560.831 830.611L560.477 830.346Z" fill="black"/>
<path d="M606.152 799.812C608.63 797.953 611.109 796.183 613.587 794.413C613.322 794.236 613.145 793.97 612.967 793.793C610.489 791.757 607.922 790.341 605.355 789.279C602.169 791.58 598.982 793.97 595.707 796.448C599.159 796.094 602.611 797.156 606.152 799.723V799.812Z" fill="black"/>
<path d="M560.832 830.523L560.478 830.346L560.832 830.523Z" fill="black"/>
<path d="M560.832 830.522C561.629 829.46 562.337 828.398 563.133 827.336C562.248 828.31 561.363 829.283 560.566 830.345L560.92 830.611L560.832 830.522Z" fill="black"/>
<path d="M612.082 806.45C614.56 804.591 617.039 802.821 619.429 801.139C618.012 798.75 616.065 796.537 613.587 794.324C611.108 796.006 608.63 797.864 606.151 799.723C606.505 799.989 606.948 800.254 607.302 800.52C609.426 802.29 611.02 804.237 612.082 806.361V806.45Z" fill="black"/>
<path d="M548.971 895.044C549.325 892.743 549.502 890.442 550.033 888.229C550.21 887.521 550.387 886.813 550.564 886.193C549.59 885.662 548.617 885.131 547.643 884.335C545.784 882.919 544.28 881.503 543.04 879.998C542.067 883.273 541.27 886.636 540.65 889.999C541.181 890.442 541.713 890.973 542.244 891.415C544.368 893.008 546.581 894.248 548.882 895.133L548.971 895.044Z" fill="black"/>
<path d="M595.706 796.537C584.996 797.599 574.551 811.318 563.133 827.337C573.224 815.654 584.465 805.299 595.706 796.537Z" fill="black"/>
<path d="M540.562 861.766C542.155 858.403 543.837 855.04 545.695 851.854C543.483 855.305 541.712 858.668 540.562 861.766Z" fill="black"/>
<path d="M594.113 854.331C608.098 834.771 617.924 818.221 612.082 806.449C609.603 808.308 607.125 810.167 604.646 812.202C606.151 818.84 600.84 829.726 586.943 849.198C579.862 859.111 566.762 877.52 558.087 878.848C556.937 879.025 555.432 878.936 553.219 877.343C552.157 880.175 551.272 883.096 550.563 886.105C564.726 893.274 578.711 875.927 594.113 854.331Z" fill="black"/>
<path d="M553.307 856.455C558.087 848.136 563.664 840.347 569.948 833.09C579.242 820.079 589.422 806.272 596.414 805.387C596.591 805.387 596.768 805.387 597.034 805.387C597.388 805.387 597.919 805.387 598.627 805.741C601.106 803.705 603.673 801.758 606.151 799.9C602.61 797.333 599.158 796.271 595.706 796.625C584.465 805.387 573.135 815.742 563.133 827.425C562.336 828.487 561.628 829.549 560.831 830.611C555.255 838.4 549.767 845.392 545.695 851.853C543.836 855.128 542.066 858.402 540.561 861.766C538.083 868.315 538.348 874.334 543.128 879.91C544.544 875.13 546.403 870.528 548.439 866.014C549.236 863.536 550.829 860.35 553.307 856.455Z" fill="black"/>
<path d="M601.637 807.422C603.23 808.661 604.116 810.343 604.558 812.201C607.037 810.254 609.515 808.307 611.993 806.449C610.931 804.324 609.426 802.377 607.214 800.607C606.859 800.253 606.417 800.076 606.063 799.811C603.584 801.669 601.106 803.616 598.539 805.652C599.336 805.918 600.309 806.449 601.549 807.511L601.637 807.422Z" fill="black"/>
<path d="M547.643 884.247C548.617 884.955 549.59 885.574 550.564 886.105C551.272 883.185 552.246 880.264 553.219 877.343C553.131 877.343 553.042 877.255 552.954 877.166C548.616 873.891 546.846 870.971 548.351 865.926C546.315 870.44 544.456 875.042 543.04 879.821C544.279 881.326 545.696 882.742 547.643 884.158V884.247Z" fill="black"/>
<path d="M568.002 835.657C568.621 834.771 569.241 833.975 569.861 833.09C563.665 840.347 558 848.136 553.22 856.456C555.521 852.827 558.531 848.578 562.425 843.357C564.196 840.878 566.143 838.4 568.002 835.745V835.657Z" fill="black"/>
<path d="M719.097 944.254C722.815 920.623 744.501 926.818 772.649 930.447L773.799 921.685C770.613 921.242 767.603 920.8 764.594 920.446C741.403 917.171 715.025 913.365 710.422 942.926C709.36 950.007 710.777 956.291 714.671 961.601C717.769 965.761 722.195 968.77 727.506 971.16C738.659 970.983 750.431 970.717 762.823 970.54C736.8 967 716.353 962.044 719.097 944.342V944.254Z" fill="black"/>
<path d="M772.648 930.447C800.796 934.076 825.049 937.085 820.978 957.265C819.739 963.46 816.198 967.266 811.241 969.656C815.844 969.656 820.535 969.478 825.227 969.478C827.262 966.646 828.856 963.195 829.652 959.035C831.157 951.6 829.918 945.051 826.023 939.652C817.172 927.349 797.256 924.783 774.242 921.773L772.648 930.447Z" fill="black"/>
<path d="M813.012 978.683C817.968 976.735 822.129 973.815 825.227 969.566C820.535 969.566 815.844 969.743 811.241 969.743C801.593 974.434 785.926 973.461 767.426 971.16C765.921 970.983 764.328 970.717 762.823 970.54C750.431 970.717 738.57 970.983 727.506 971.16C736.977 975.408 749.369 977.621 763.177 979.479C778.845 979.214 795.574 978.948 813.012 978.683Z" fill="black"/>
<path d="M766.364 979.833C774.153 980.806 783.27 981.957 792.122 981.957C799.645 981.957 806.815 981.072 813.1 978.594C795.662 978.859 779.021 979.125 763.266 979.39C764.328 979.567 765.301 979.656 766.364 979.833Z" fill="black"/>
<path d="M820.978 957.264C825.05 937.085 800.796 934.076 772.649 930.447L772.029 939.298C788.581 941.422 807.347 943.811 811.684 949.918C812.038 950.449 813.012 951.866 812.303 955.494C810.533 964.345 799.026 966.115 768.577 962.309C756.539 960.716 734.056 957.884 728.834 950.892C728.125 949.918 727.417 948.502 727.86 945.582C728.922 938.59 731.4 935.757 740.872 935.757C745.74 935.757 752.556 936.554 762.027 937.881C765.125 938.324 768.223 938.767 771.498 939.209L772.649 930.447C744.501 926.818 722.815 920.623 719.097 944.254C716.353 961.955 736.8 966.912 762.823 970.452C778.137 970.186 794.246 969.921 811.153 969.655C816.198 967.266 819.65 963.371 820.889 957.264H820.978Z" fill="black"/>
<path d="M767.426 971.072C785.926 973.373 801.593 974.347 811.241 969.656C794.335 969.922 778.137 970.187 762.912 970.453C764.417 970.63 765.922 970.895 767.515 971.072H767.426Z" fill="black"/>
<path d="M1179.64 958.238C1183.89 951.866 1185.22 945.316 1183.71 938.855C1180.17 924.074 1162.73 914.25 1142.46 902.744L1137.69 910.179C1162.38 924.163 1183.71 936.111 1172.29 953.282C1162.12 968.593 1142.2 959.831 1117.5 945.847C1092.81 931.863 1073.07 919.118 1082.89 902.744C1095.2 882.299 1112.99 896.195 1137.69 910.179L1142.02 902.479C1139.28 900.886 1136.62 899.381 1134.06 897.877C1113.7 886.017 1090.68 872.564 1075.28 898.231C1071.56 904.426 1070.5 910.799 1072.18 917.171C1075.99 931.598 1092.98 942.218 1113.08 953.547C1121.22 958.15 1131.05 963.637 1140.87 967.089C1150.79 967.089 1160.52 967.089 1170.17 967.089C1173.62 965.142 1176.81 962.309 1179.55 958.15L1179.64 958.238Z" fill="black"/>
<path d="M1170.26 967.178C1160.61 967.178 1150.87 967.178 1140.96 967.178C1146.54 969.125 1152.11 970.364 1157.42 970.364C1162.03 970.364 1166.36 969.39 1170.26 967.178Z" fill="black"/>
<path d="M1082.89 902.834C1073.07 919.208 1092.81 931.952 1117.5 945.937C1142.2 959.921 1162.12 968.683 1172.3 953.371C1183.71 936.201 1162.38 924.252 1137.69 910.268C1112.99 896.284 1095.2 882.389 1082.89 902.834ZM1166.45 943.016C1166.63 943.635 1166.98 945.317 1164.86 948.503C1159.9 956.026 1148.22 953.194 1121.84 938.236C1111.22 932.218 1091.57 921.066 1089.36 912.747C1089.09 911.596 1088.91 910.003 1090.51 907.436C1092.9 903.542 1095.11 901.418 1098.83 901.418C1103.78 901.418 1111.31 905.135 1125.21 913.278C1127.86 914.782 1130.6 916.375 1133.35 917.968L1133.79 918.234C1148.31 926.465 1164.77 935.758 1166.54 943.016H1166.45Z" fill="black"/>
<path d="M1499.45 889.115C1499.45 889.115 1500.24 889.823 1500.69 890.177C1507.59 897.523 1508.3 904.161 1505.38 910.887C1506.26 915.49 1506.79 920.004 1507.06 924.518C1516.62 912.392 1521.05 899.028 1507.06 884.07C1503.25 880.087 1498.92 877.609 1494.14 876.547C1496 880.441 1497.77 884.424 1499.27 888.495C1499.27 888.672 1499.36 888.849 1499.45 889.026V889.115Z" fill="black"/>
<path d="M1421.29 968.593C1422.88 970.452 1424.65 971.956 1426.51 973.284C1429.08 973.549 1431.38 973.903 1433.24 974.169C1437.49 974.877 1441.65 975.762 1445.9 976.824C1458.55 973.638 1470.95 961.335 1484.93 947.351L1478.82 940.89L1485.11 947.174C1486.44 945.847 1487.76 944.519 1489.09 943.28C1489.71 938.855 1489.98 934.429 1489.89 930.093C1486.44 933.544 1482.63 937.085 1478.82 940.89C1458.73 960.981 1441.47 978.329 1428.02 962.752C1415.98 948.856 1429.79 932.04 1449.88 911.949C1460.68 901.151 1470.68 891.769 1479.71 887.432C1478.47 884.689 1477.14 882.033 1475.81 879.467C1465.37 884.423 1454.92 894.336 1443.59 905.753C1427.22 922.127 1402.43 946.909 1421.29 968.593Z" fill="black"/>
<path d="M1439.79 977.71C1441.82 977.71 1443.86 977.356 1445.98 976.913C1441.82 975.851 1437.58 974.966 1433.33 974.258C1431.47 973.904 1429.08 973.639 1426.6 973.373C1430.32 976.028 1434.48 977.621 1438.99 977.798C1439.26 977.798 1439.52 977.798 1439.88 977.798L1439.79 977.71Z" fill="black"/>
<path d="M1484.31 876.547C1485.73 879.29 1487.14 882.123 1488.38 884.955C1492.37 884.689 1496.08 885.928 1499.54 889.026C1499.54 888.849 1499.45 888.672 1499.36 888.495C1497.85 884.424 1496.08 880.441 1494.23 876.547C1492.81 876.281 1491.3 876.016 1489.71 876.016C1487.85 876.016 1486.08 876.193 1484.31 876.547Z" fill="black"/>
<path d="M1498.12 921.596C1498.56 925.667 1498.74 929.827 1498.65 933.898C1501.66 930.801 1504.58 927.703 1507.06 924.517C1506.79 920.003 1506.17 915.489 1505.38 910.887C1503.87 914.338 1501.31 917.879 1498.12 921.596Z" fill="black"/>
<path d="M1479.71 887.521C1482.72 886.105 1485.55 885.22 1488.29 885.043C1487.05 882.211 1485.64 879.378 1484.22 876.635C1481.39 877.166 1478.56 878.228 1475.81 879.555C1477.14 882.122 1478.47 884.777 1479.71 887.521Z" fill="black"/>
<path d="M1489.89 930.182C1489.89 934.519 1489.71 938.856 1489.09 943.37C1489.98 942.573 1490.77 941.688 1491.66 940.891C1493.96 938.59 1496.35 936.289 1498.65 933.988C1498.74 929.828 1498.56 925.757 1498.12 921.686C1495.73 924.429 1492.9 927.35 1489.89 930.271V930.182Z" fill="black"/>
<path d="M1500.69 890.177C1500.69 890.177 1499.89 889.469 1499.45 889.115C1502.19 896.461 1504.05 903.719 1505.38 910.888C1508.3 904.161 1507.59 897.523 1500.69 890.177Z" fill="black"/>
<path d="M1428.02 962.841C1441.47 978.418 1458.73 961.07 1478.82 940.979C1482.63 937.174 1486.44 933.545 1489.89 930.182C1489.89 926.199 1489.45 922.216 1488.91 918.41C1486.26 921.242 1483.25 924.34 1479.35 928.146C1477.14 930.27 1474.93 932.483 1472.63 934.695L1472.45 934.873C1460.59 946.732 1447.13 960.362 1439.61 960.008C1438.99 960.008 1437.22 960.008 1434.74 957.088C1428.81 950.273 1434.39 940.094 1456.16 918.322C1462.98 911.507 1474.31 900.266 1483.07 895.753C1482.98 895.399 1482.81 895.045 1482.72 894.779C1481.83 892.301 1480.77 889.911 1479.71 887.521C1470.68 891.858 1460.59 901.328 1449.88 912.038C1429.79 932.129 1415.98 948.945 1428.02 962.841Z" fill="black"/>
<path d="M1494.23 896.195C1498.3 900.532 1499.27 903.895 1496.17 909.294C1497.06 913.365 1497.68 917.437 1498.12 921.508C1501.31 917.879 1503.79 914.339 1505.38 910.799C1504.05 903.63 1502.19 896.372 1499.45 889.026C1496 885.928 1492.28 884.689 1488.29 884.955C1489.62 888.053 1490.86 891.239 1491.92 894.425C1492.63 894.779 1493.34 895.31 1494.14 896.195H1494.23Z" fill="black"/>
<path d="M1488.91 918.41C1489.45 922.216 1489.8 926.111 1489.89 930.182C1492.9 927.173 1495.73 924.34 1498.12 921.597C1497.68 917.525 1497.06 913.366 1496.17 909.383C1494.76 911.861 1492.37 914.87 1488.91 918.499V918.41Z" fill="black"/>
<path d="M1482.72 894.779C1482.72 894.779 1482.98 895.487 1483.07 895.752C1485.37 894.602 1487.59 893.805 1489.36 893.805H1489.45C1490.15 893.805 1491.04 893.982 1491.92 894.513C1490.77 891.327 1489.62 888.141 1488.29 885.043C1485.55 885.22 1482.72 886.105 1479.71 887.521C1480.77 889.911 1481.74 892.3 1482.72 894.779Z" fill="black"/>
<path d="M996.326 1576.99C996.326 1576.99 996.68 1577.52 996.946 1577.78C996.769 1577.52 996.592 1577.25 996.326 1576.99Z" fill="black"/>
<path d="M919.495 1596.37C919.495 1596.37 919.23 1596.11 919.052 1596.02L920.38 1595.75C921.885 1594.6 923.567 1593.8 925.603 1593.8C926.488 1593.8 927.373 1594.07 928.17 1594.34L930.471 1593.89C928.612 1592.65 926.842 1591.33 925.249 1589.73C921.796 1586.28 916.131 1586.28 912.768 1589.73C909.404 1593.19 909.316 1598.85 912.768 1602.21C914.096 1603.54 915.423 1604.69 916.84 1605.84C916.84 1604.25 916.84 1603.1 916.84 1602.66C916.84 1600.18 917.813 1597.88 919.495 1596.28V1596.37Z" fill="black"/>
<path d="M993.76 1575.04C993.76 1575.04 993.583 1575.04 993.494 1575.04C993.848 1575.22 994.114 1575.4 994.379 1575.57C994.114 1575.48 994.025 1575.22 993.76 1575.13V1575.04Z" fill="black"/>
<path d="M986.502 1574.95C987.21 1574.69 987.918 1574.51 988.538 1574.42C987.83 1574.51 987.122 1574.69 986.502 1574.95Z" fill="black"/>
<path d="M983.05 1577.7C982.696 1578.23 982.253 1578.58 981.988 1579.2C981.014 1581.32 979.686 1583.27 978.358 1585.13L981.545 1584.51C981.102 1582.03 981.633 1579.64 983.138 1577.7H983.05Z" fill="black"/>
<path d="M983.669 1576.99C984.2 1576.37 984.908 1575.92 985.705 1575.48C984.997 1575.92 984.289 1576.37 983.669 1576.99Z" fill="black"/>
<path d="M959.239 1616.82C971.1 1614.6 981.987 1608.05 989.954 1598.76C988.007 1596.46 986.148 1593.98 984.643 1591.41C977.916 1600 968.179 1606.11 957.646 1608.05C949.945 1609.47 941.979 1608.5 934.632 1605.75C934.632 1608.67 934.897 1611.86 935.074 1615.31C940.031 1616.82 945.165 1617.52 950.299 1617.52C953.309 1617.52 956.318 1617.26 959.328 1616.73L959.239 1616.82Z" fill="black"/>
<path d="M934.543 1602.57C934.543 1603.63 934.543 1604.69 934.543 1605.84C941.89 1608.58 949.856 1609.47 957.557 1608.14C968.09 1606.2 977.738 1600.09 984.554 1591.5C983.669 1590 982.784 1588.41 981.987 1586.81C981.633 1586.1 981.545 1585.31 981.456 1584.6L978.27 1585.22C972.87 1592.57 964.815 1597.88 956.052 1599.47C947.289 1601.06 937.995 1598.94 930.471 1593.98L928.17 1594.42C931.799 1595.57 934.455 1598.67 934.543 1602.65V1602.57Z" fill="black"/>
<path d="M919.053 1596.02C919.053 1596.02 919.318 1596.28 919.495 1596.37C919.761 1596.11 920.115 1596.02 920.38 1595.75L919.053 1596.02Z" fill="black"/>
<path d="M988.626 1574.42C989.069 1574.42 989.511 1574.24 990.042 1574.24C989.6 1574.24 989.069 1574.33 988.626 1574.42Z" fill="black"/>
<path d="M991.37 1574.42C992.078 1574.51 992.786 1574.69 993.406 1574.95C992.698 1574.69 992.078 1574.51 991.37 1574.42Z" fill="black"/>
<path d="M986.236 1575.04C986.236 1575.04 985.882 1575.39 985.616 1575.48C985.882 1575.31 986.147 1575.13 986.501 1574.95C986.413 1574.95 986.324 1574.95 986.236 1574.95V1575.04Z" fill="black"/>
<path d="M1022 1608.05C1011.64 1606.2 1002.08 1600.09 995.353 1591.5C993.759 1594.07 991.989 1596.55 989.953 1598.85C997.919 1608.05 1008.72 1614.6 1020.4 1616.82C1023.32 1617.35 1026.24 1617.61 1029.25 1617.61C1032.35 1617.61 1035.54 1617.26 1038.55 1616.73C1038.55 1612.75 1038.55 1609.65 1038.55 1607.7C1033.15 1608.94 1027.48 1609.12 1022.08 1608.14L1022 1608.05Z" fill="black"/>
<path d="M1053.77 1589.64C1052.18 1591.24 1050.5 1592.56 1048.73 1593.8L1060.06 1595.93C1058.38 1597.61 1056.61 1599.03 1054.75 1600.44C1055.45 1601.68 1055.99 1602.92 1056.07 1604.42C1056.07 1604.87 1056.16 1606.9 1056.25 1610C1059.88 1607.79 1063.33 1605.22 1066.34 1602.12C1069.79 1598.67 1069.79 1593.01 1066.34 1589.64C1062.89 1586.19 1057.23 1586.19 1053.86 1589.64H1053.77Z" fill="black"/>
<path d="M998.54 1584.6L1001.64 1585.22C1000.31 1583.36 999.071 1581.41 998.008 1579.29C997.743 1578.67 997.3 1578.32 996.946 1577.79C998.451 1579.73 998.982 1582.12 998.54 1584.6Z" fill="black"/>
<path d="M983.05 1577.7C983.05 1577.7 983.404 1577.16 983.581 1576.9C983.315 1577.16 983.227 1577.43 983.05 1577.7Z" fill="black"/>
<path d="M994.379 1575.48C995.087 1575.92 995.795 1576.37 996.326 1576.99C995.707 1576.37 995.087 1575.92 994.379 1575.48Z" fill="black"/>
<path d="M981.456 1584.6L989.953 1583.01C988.537 1586.02 986.678 1588.85 984.643 1591.5C986.236 1594.07 988.006 1596.55 989.953 1598.85C991.901 1596.55 993.76 1594.16 995.353 1591.5C993.317 1588.85 991.458 1586.02 990.042 1583.01L998.539 1584.6C998.982 1582.12 998.451 1579.73 996.946 1577.78C996.769 1577.52 996.592 1577.25 996.327 1576.99C995.795 1576.37 995.087 1575.93 994.379 1575.48C994.114 1575.31 993.76 1575.13 993.494 1574.95C992.786 1574.69 992.166 1574.51 991.458 1574.42C991.016 1574.42 990.573 1574.24 990.042 1574.24C989.599 1574.24 989.068 1574.42 988.626 1574.42C987.918 1574.51 987.209 1574.69 986.59 1574.95C986.236 1575.13 985.97 1575.31 985.705 1575.48C984.997 1575.93 984.288 1576.37 983.669 1576.99C983.492 1577.25 983.315 1577.52 983.138 1577.78C981.633 1579.73 981.102 1582.21 981.544 1584.6H981.456Z" fill="black"/>
<path d="M981.456 1584.6C981.633 1585.4 981.633 1586.1 981.987 1586.81C982.783 1588.4 983.669 1590 984.554 1591.5C986.59 1588.85 988.448 1586.02 989.865 1583.01L981.367 1584.6H981.456Z" fill="black"/>
<path d="M997.92 1586.81C997.124 1588.41 996.239 1590 995.354 1591.5C1002.08 1600.09 1011.64 1606.2 1022 1608.05C1027.48 1609.03 1033.06 1608.85 1038.46 1607.61C1038.46 1606.28 1038.46 1605.31 1038.46 1605.22C1038.19 1600.35 1042 1596.19 1046.87 1595.93C1050.14 1595.66 1053.15 1597.52 1054.84 1600.27C1056.69 1598.94 1058.55 1597.43 1060.15 1595.75L1048.82 1593.63C1041.47 1598.67 1032.35 1600.8 1023.68 1599.2C1015.09 1597.61 1007.13 1592.39 1001.73 1584.95L998.629 1584.33C998.452 1585.13 998.452 1585.84 998.097 1586.55L997.92 1586.81Z" fill="black"/>
<path d="M998.54 1584.6L990.042 1583.01C991.458 1586.02 993.317 1588.85 995.353 1591.5C996.238 1590 997.212 1588.4 997.92 1586.81C998.274 1586.1 998.362 1585.31 998.451 1584.6H998.54Z" fill="black"/>
<path d="M1014.21 1711.25C1007.39 1718.42 999.336 1721.96 989.688 1721.96C950.564 1721.96 937.818 1653.9 935.162 1615.4C928.612 1613.45 922.416 1610.27 917.017 1605.93C917.725 1626.82 924.452 1739.66 989.688 1739.66C1004.29 1739.66 1016.86 1734.18 1027.04 1723.47C1055.54 1693.37 1056.61 1629.3 1056.25 1610C1050.76 1613.28 1044.74 1615.58 1038.55 1616.73C1038.37 1639.12 1035.54 1688.86 1014.21 1711.34V1711.25Z" fill="black"/>
<path d="M934.631 1605.84C929.055 1603.72 923.833 1600.53 919.495 1596.37C917.814 1597.96 916.84 1600.27 916.84 1602.74C916.84 1603.19 916.84 1604.25 916.84 1605.93C922.239 1610.27 928.435 1613.45 934.985 1615.4C934.72 1611.95 934.543 1608.76 934.543 1605.84H934.631Z" fill="black"/>
<path d="M925.603 1593.8C923.567 1593.8 921.886 1594.6 920.381 1595.75L928.17 1594.34C927.374 1594.07 926.488 1593.8 925.603 1593.8Z" fill="black"/>
<path d="M928.17 1594.34L920.38 1595.75C920.38 1595.75 919.761 1596.11 919.495 1596.37C923.832 1600.53 929.055 1603.72 934.631 1605.84C934.631 1604.69 934.631 1603.54 934.631 1602.57C934.631 1598.58 931.887 1595.49 928.258 1594.34H928.17Z" fill="black"/>
<path d="M1054.75 1600.35C1049.88 1603.89 1044.3 1606.37 1038.46 1607.7C1038.46 1609.65 1038.55 1612.74 1038.46 1616.73C1044.66 1615.58 1050.68 1613.28 1056.16 1610C1056.16 1606.9 1055.99 1604.87 1055.99 1604.42C1055.99 1602.92 1055.37 1601.59 1054.66 1600.44L1054.75 1600.35Z" fill="black"/>
<path d="M1046.78 1595.93C1041.91 1596.19 1038.11 1600.35 1038.37 1605.22C1038.37 1605.22 1038.37 1606.28 1038.37 1607.61C1044.21 1606.28 1049.79 1603.8 1054.66 1600.26C1052.98 1597.52 1049.97 1595.66 1046.69 1595.93H1046.78Z" fill="black"/>
<path d="M731.223 1594.16C701.128 1590.26 675.37 1603.1 672.715 1623.63C670.059 1644.16 691.48 1663.28 721.575 1667.18C725.204 1667.62 728.833 1667.88 732.285 1667.88C757.512 1667.88 777.694 1655.76 780.083 1637.7C782.739 1617.26 761.318 1598.05 731.223 1594.16ZM722.726 1658.41C698.384 1655.23 679.442 1639.83 681.477 1624.78C683.248 1611.68 700.42 1602.39 720.955 1602.39C723.965 1602.39 726.974 1602.57 730.072 1603.01C754.414 1606.19 773.356 1621.59 771.32 1636.64C769.373 1651.69 747.067 1661.69 722.726 1658.41Z" fill="black"/>
<path d="M1307.37 1596.28C1296.48 1591.06 1282.76 1589.29 1268.78 1591.24C1254.79 1593.1 1242.05 1598.49 1232.93 1606.37C1223.28 1614.69 1218.68 1624.87 1220.09 1634.96C1222.48 1652.84 1242.58 1664.96 1267.71 1664.96C1271.26 1664.96 1274.97 1664.7 1278.69 1664.25C1292.68 1662.4 1305.42 1657 1314.54 1649.12C1324.19 1640.8 1328.79 1630.62 1327.37 1620.53C1326.05 1610.44 1318.88 1601.86 1307.37 1596.37V1596.28ZM1308.7 1642.3C1300.82 1649.03 1289.75 1653.72 1277.36 1655.4C1253.02 1658.68 1230.72 1648.77 1228.68 1633.72C1227.71 1626.73 1231.25 1619.29 1238.59 1613.01C1246.47 1606.28 1257.54 1601.59 1269.93 1599.91C1273.2 1599.47 1276.39 1599.29 1279.58 1599.29C1288.43 1599.29 1296.66 1600.97 1303.56 1604.25C1312.33 1608.41 1317.64 1614.51 1318.61 1621.59C1319.58 1628.59 1316.04 1636.02 1308.7 1642.3Z" fill="black"/>
<path d="M817.703 1522.91C792.476 1522.91 772.029 1543.36 772.029 1568.58C772.029 1593.8 792.476 1614.25 817.703 1614.25C842.93 1614.25 863.377 1593.8 863.377 1568.58C863.377 1543.36 842.93 1522.91 817.703 1522.91ZM804.337 1573.71C796.991 1573.71 790.972 1567.69 790.972 1560.35C790.972 1553 796.991 1546.98 804.337 1546.98C811.684 1546.98 817.703 1553 817.703 1560.35C817.703 1567.69 811.684 1573.71 804.337 1573.71Z" fill="black"/>
<path d="M1151.14 1522.91C1125.91 1522.91 1105.47 1543.36 1105.47 1568.58C1105.47 1593.8 1125.91 1614.25 1151.14 1614.25C1176.37 1614.25 1196.81 1593.8 1196.81 1568.58C1196.81 1543.36 1176.37 1522.91 1151.14 1522.91ZM1137.77 1573.71C1130.43 1573.71 1124.41 1567.69 1124.41 1560.35C1124.41 1553 1130.43 1546.98 1137.77 1546.98C1145.12 1546.98 1151.14 1553 1151.14 1560.35C1151.14 1567.69 1145.12 1573.71 1137.77 1573.71Z" fill="black"/>
</g>
<defs>
<clipPath id="clip0_157_248">
<rect width="1274" height="1775" fill="white" transform="translate(363 113)"/>
</clipPath>
</defs>
</svg>
