<svg width="2000" height="2000" viewBox="0 0 2000 2000" fill="none" xmlns="http://www.w3.org/2000/svg">
<g clip-path="url(#clip0_157_249)">
<path d="M1357.39 546.626C1450.34 561.858 1501.23 582.2 1515.38 601.364C1518.52 599.103 1522.65 598.809 1525.99 600.774C1526.28 600.872 1526.38 601.167 1526.68 601.265C1525.01 597.826 1522.75 594.386 1519.5 591.045C1501.52 572.275 1452.6 552.817 1366.13 537.978C1364.76 539.452 1363.48 540.926 1362.11 542.302C1360.63 543.776 1358.96 545.152 1357.39 546.527V546.626Z" fill="black"/>
<path d="M470.081 620.428C470.081 620.428 470.376 619.937 470.474 619.74C470.376 619.937 470.179 620.232 470.081 620.428Z" fill="black"/>
<path d="M482.755 615.81C482.755 615.81 484.917 616.695 488.651 618.071C513.508 602.347 587.492 562.939 731.332 539.845C729.268 538.568 727.205 537.388 725.142 536.013C723.079 534.637 721.113 533.163 719.148 531.688C545.145 561.17 476.566 614.041 472.636 617.186C472.537 617.284 472.439 617.481 472.341 617.579C472.537 617.383 472.734 617.186 472.93 616.99C475.78 614.926 479.415 614.533 482.657 615.909L482.755 615.81Z" fill="black"/>
<path d="M745.382 547.707C740.666 545.348 735.95 542.695 731.43 539.845C587.59 562.939 513.607 602.346 488.749 618.07C491.697 619.151 495.725 620.527 501.03 622.296C531.488 604.705 607.339 568.54 745.48 547.707H745.382Z" fill="black"/>
<path d="M1505.36 604.705C1505.95 605.295 1506.34 605.885 1506.83 606.376C1512.43 603.33 1515.08 601.462 1515.18 601.364C1515.18 601.364 1515.18 601.364 1515.28 601.364C1501.13 582.201 1450.24 561.858 1357.29 546.626C1354.05 549.574 1350.61 552.424 1347.07 555.077C1444.15 570.408 1491.31 590.259 1505.26 604.804L1505.36 604.705Z" fill="black"/>
<path d="M769.453 621.51L755.108 621.706C740.272 637.135 733.886 652.073 731.921 664.946C735.163 665.241 738.307 665.634 741.55 665.929C743.711 653.055 751.08 637.528 769.551 621.51H769.453Z" fill="black"/>
<path d="M1277.02 711.725C1277.02 711.725 1388.34 737.473 1351.99 785.626C1314.55 835.156 790.479 885.865 682.108 803.021C660.787 786.707 653.811 717.032 737.03 700.915C728.581 699.932 720.033 698.95 711.583 697.967C676.606 711.43 664.619 735.114 660.689 750.052C654.499 773.244 661.18 799.385 676.115 810.883C720.917 845.082 826.931 856.874 938.937 856.874C1027.66 856.874 1120.11 849.504 1188.89 840.168C1244.79 832.503 1341.28 816.091 1359.75 791.621C1371.15 776.487 1369.97 763.417 1366.92 755.162C1356.6 726.761 1309.15 710.447 1288.32 704.649C1288.32 704.453 1288.32 704.256 1288.32 703.961C1284.88 704.256 1281.54 704.551 1278.1 704.944C1277.71 707.204 1277.41 709.465 1276.92 711.823L1277.02 711.725Z" fill="black"/>
<path d="M1256.29 616.006L1240.96 616.202C1258.25 628.683 1271.13 644.407 1276.73 664.258C1280.07 663.865 1283.41 663.472 1286.65 662.98C1283.5 650.991 1277.9 639.788 1269.75 629.666C1265.82 624.752 1261.2 620.232 1256.29 616.006Z" fill="black"/>
<path d="M821.232 590.455C819.463 587.704 817.891 584.755 816.516 581.709C804.038 587.016 791.854 593.305 780.163 601.069C769.846 607.948 761.691 614.827 755.108 621.608L769.453 621.411C774.071 617.382 779.377 613.255 785.566 609.225C796.964 601.56 808.95 595.467 821.232 590.357V590.455Z" fill="black"/>
<path d="M1217.97 602.544C1226.22 606.573 1233.99 611.093 1240.96 616.204L1256.29 616.007C1248.04 608.735 1238.41 602.445 1227.89 596.844C1225.24 597.139 1222.69 597.433 1220.23 597.63C1219.45 599.301 1218.66 600.873 1217.87 602.445L1217.97 602.544Z" fill="black"/>
<path d="M1267.39 709.563C1266.21 714.87 1269.45 720.079 1274.76 721.258C1299.72 727.056 1341.77 743.173 1348.55 761.746C1349.82 765.284 1350.71 770.886 1344.13 779.632C1338.03 787.592 1298.05 805.281 1186.24 820.514C992.189 846.949 752.848 844.689 688.002 795.159C681.321 790.049 674.738 773.244 679.553 754.965C686.135 730.201 710.502 713.887 748.132 708.875C751.473 708.482 754.322 706.32 755.697 703.274C755.697 703.077 755.796 702.881 755.894 702.684C749.606 701.996 743.318 701.407 736.931 700.719C653.614 716.934 660.688 786.609 682.009 802.824C790.38 885.669 1314.45 834.96 1351.89 785.43C1388.24 737.276 1276.92 711.529 1276.92 711.529C1277.41 709.17 1277.71 706.91 1278.1 704.65C1274.76 704.944 1271.42 705.239 1267.98 705.632C1267.78 706.91 1267.59 708.089 1267.29 709.367L1267.39 709.563Z" fill="black"/>
<path d="M1254.42 641.951C1260.22 649.224 1264.35 656.987 1266.9 665.34C1270.24 664.947 1273.48 664.554 1276.73 664.161C1271.13 644.31 1258.25 628.586 1240.96 616.105L1223.38 616.302C1235.75 623.476 1246.46 631.829 1254.42 641.853V641.951Z" fill="black"/>
<path d="M785.664 621.412L769.453 621.609C750.982 637.725 743.613 653.154 741.451 666.028C744.693 666.323 748.034 666.618 751.375 667.011C753.733 654.235 762.477 638.217 785.566 621.412H785.664Z" fill="black"/>
<path d="M1213.16 611.093C1216.6 612.763 1220.13 614.532 1223.37 616.4L1240.96 616.203C1233.99 611.191 1226.22 606.572 1217.97 602.543C1216.5 605.491 1214.83 608.341 1213.25 611.093H1213.16Z" fill="black"/>
<path d="M790.97 617.48C802.466 609.815 814.649 603.624 827.127 598.612C824.965 596.057 823 593.305 821.232 590.455C808.95 595.565 796.964 601.658 785.566 609.324C779.475 613.451 774.071 617.48 769.453 621.509L785.665 621.313C787.433 620.035 789.103 618.758 791.068 617.48H790.97Z" fill="black"/>
<path d="M1359.06 1835.97C1381.56 1932.47 1096.43 1939.35 1014.39 1938.07H1013.8C934.613 1939.45 659.706 1932.47 681.321 1835.97C698.122 1761.08 854.146 1732.68 932.747 1723.05C933.631 1719.71 934.417 1716.27 935.105 1712.83C855.619 1722.17 690.164 1751.45 671.693 1833.9C667.861 1851.1 671.693 1866.83 682.893 1880.68C739.977 1950.75 986.097 1948.49 1013.8 1948H1014.3C1018.82 1948 1025.2 1948.1 1032.86 1948.1C1106.16 1948.1 1307.48 1942.2 1357.98 1879.6C1368.98 1866.04 1372.52 1850.61 1368.59 1833.81C1349.33 1750.77 1174.84 1721.68 1093.49 1712.54C1094.27 1715.98 1095.16 1719.42 1096.14 1722.76C1176.9 1732.19 1341.57 1760.49 1359.06 1835.97Z" fill="black"/>
<path d="M1349.43 1838.23C1351.89 1848.94 1349.73 1858.47 1342.65 1867.22C1301.09 1918.81 1116.67 1929.92 1014.49 1928.25C1014.39 1928.25 1013.71 1928.25 1013.61 1928.25C916.044 1930.02 739.683 1919.21 698.123 1868.2C690.754 1859.16 688.396 1849.33 690.852 1838.13C705 1775.04 840.882 1744.48 929.603 1733.17C930.684 1729.83 931.765 1726.49 932.649 1723.05C854.048 1732.68 698.024 1761.08 681.223 1835.97C659.608 1932.47 934.516 1939.45 1013.71 1938.07H1014.3C1096.34 1939.35 1381.46 1932.47 1358.96 1835.97C1341.47 1760.49 1176.8 1732.19 1096.04 1722.76C1097.02 1726.2 1098.01 1729.54 1099.09 1732.88C1191.15 1743.98 1334.6 1774.55 1349.33 1838.23H1349.43Z" fill="black"/>
<path d="M947.681 1614.36C944.34 1614.36 940.901 1614.26 937.561 1614.17C942.572 1649.74 941.786 1682.47 935.104 1712.83C938.838 1712.44 942.375 1711.95 945.716 1711.65C952.593 1678.44 952.004 1645.52 947.779 1614.46L947.681 1614.36Z" fill="black"/>
<path d="M1083.17 1590.48C1083.17 1590.48 1082.87 1590.48 1082.68 1590.48C1041.71 1593.73 1004.96 1594.51 968.805 1594.71C1007.02 1594.81 1045.74 1593.33 1083.17 1590.48Z" fill="black"/>
<path d="M1083.17 1711.46C1086.41 1711.75 1089.85 1712.14 1093.49 1712.54C1086.31 1680.89 1085.82 1646.5 1092.01 1608.96C1088.67 1609.25 1085.23 1609.55 1081.89 1609.84C1076.78 1642.17 1075.8 1676.57 1083.17 1711.46Z" fill="black"/>
<path d="M906.121 1801.97C910.64 1805.01 916.732 1803.74 919.679 1799.22C920.858 1797.45 921.743 1795.58 922.922 1793.81H911.525C924.985 1773.37 934.319 1752.63 940.607 1731.9C937.07 1732.29 933.435 1732.78 929.701 1733.27C923.511 1752.63 914.865 1771.11 903.37 1788.5C900.422 1793.02 901.601 1799.12 906.219 1802.16L906.121 1801.97Z" fill="black"/>
<path d="M1106.85 1793.91C1108.03 1795.78 1109.21 1797.64 1110.48 1799.41C1112.35 1802.16 1115.49 1803.74 1118.64 1803.74C1120.51 1803.74 1122.47 1803.15 1124.14 1802.06C1128.66 1799.02 1129.74 1792.93 1126.7 1788.4C1114.71 1770.91 1105.57 1752.44 1099.18 1732.98C1095.45 1732.49 1091.91 1732.09 1088.38 1731.7C1094.86 1752.54 1104.59 1773.37 1118.64 1793.91H1106.95H1106.85Z" fill="black"/>
<path d="M943.358 1721.78C944.242 1718.34 944.93 1714.99 945.618 1711.55C942.277 1711.95 938.74 1712.34 935.006 1712.73C934.22 1716.17 933.533 1719.61 932.648 1722.95C936.382 1722.46 939.919 1722.07 943.358 1721.68V1721.78Z" fill="black"/>
<path d="M1085.53 1721.58C1088.87 1721.97 1092.41 1722.37 1096.14 1722.76C1095.16 1719.32 1094.27 1715.98 1093.49 1712.54C1089.85 1712.14 1086.41 1711.75 1083.17 1711.46C1083.86 1714.9 1084.64 1718.24 1085.53 1721.68V1721.58Z" fill="black"/>
<path d="M1099.19 1732.88C1098.1 1729.54 1097.02 1726.2 1096.14 1722.76C1092.41 1722.36 1088.87 1721.97 1085.53 1721.58C1086.41 1724.92 1087.3 1728.26 1088.38 1731.6C1091.91 1732 1095.55 1732.39 1099.19 1732.88Z" fill="black"/>
<path d="M940.607 1731.9C941.59 1728.56 942.572 1725.21 943.456 1721.87C940.116 1722.27 936.481 1722.66 932.747 1723.15C931.863 1726.59 930.782 1729.93 929.701 1733.27C933.435 1732.78 937.07 1732.39 940.607 1731.9Z" fill="black"/>
<path d="M945.716 1711.56C949.352 1711.16 952.791 1710.87 955.836 1710.47C961.633 1680.7 962.223 1648.76 957.605 1614.36C957.801 1614.36 957.9 1614.36 958.096 1614.36C954.559 1614.36 951.12 1614.36 947.681 1614.36C952.005 1645.42 952.496 1678.34 945.618 1711.56H945.716Z" fill="black"/>
<path d="M1071.67 1611.02C1066.37 1646.69 1066.76 1679.62 1072.85 1710.38C1076 1710.67 1079.34 1710.97 1083.07 1711.36C1075.7 1676.47 1076.69 1642.08 1081.79 1609.74C1057.82 1611.71 1033.36 1613.09 1008.7 1613.87C1028.94 1613.38 1049.67 1612.59 1071.58 1611.02H1071.67Z" fill="black"/>
<path d="M922.922 1793.81C935.4 1773.86 944.733 1752.93 951.022 1730.72C947.681 1731.11 944.144 1731.41 940.607 1731.9C934.319 1752.63 924.985 1773.37 911.524 1793.81H922.922Z" fill="black"/>
<path d="M1118.64 1793.91C1104.59 1773.37 1094.86 1752.44 1088.38 1731.7C1084.74 1731.31 1081.3 1730.91 1077.86 1730.62C1084.35 1752.93 1093.98 1773.96 1106.95 1793.91H1118.64Z" fill="black"/>
<path d="M1075.11 1720.6C1078.36 1720.89 1081.7 1721.28 1085.43 1721.68C1084.55 1718.24 1083.76 1714.9 1083.07 1711.46C1079.34 1711.06 1076 1710.77 1072.85 1710.47C1073.54 1713.91 1074.33 1717.26 1075.11 1720.6Z" fill="black"/>
<path d="M955.836 1710.57C952.692 1710.87 949.351 1711.26 945.716 1711.65C945.028 1715.09 944.242 1718.43 943.456 1721.87C947.091 1721.48 950.432 1721.09 953.576 1720.79C954.362 1717.45 955.246 1714.11 955.836 1710.67V1710.57Z" fill="black"/>
<path d="M951.022 1730.72C952.005 1727.38 952.791 1724.04 953.577 1720.7C950.433 1720.99 947.092 1721.38 943.457 1721.78C942.572 1725.12 941.59 1728.46 940.607 1731.8C944.243 1731.41 947.682 1731.01 951.022 1730.62V1730.72Z" fill="black"/>
<path d="M1077.86 1730.52C1081.3 1730.82 1084.74 1731.21 1088.38 1731.6C1087.3 1728.26 1086.41 1724.92 1085.53 1721.58C1081.79 1721.19 1078.36 1720.79 1075.21 1720.5C1076 1723.84 1076.98 1727.18 1077.86 1730.52Z" fill="black"/>
<path d="M1151.26 199.623C1196.75 94.2745 1306 62.8271 1306 62.8271C1306 62.8271 1366.92 203.456 1311.6 317.649C1315.53 316.568 1319.56 315.586 1323.49 314.799C1374.09 198.935 1315.83 60.7634 1315.04 58.9945C1313.08 54.4739 1308.07 52.1154 1303.35 53.4912C1298.73 54.867 1189.08 87.4937 1142.32 195.791C1136.13 210.04 1131.71 224.192 1128.46 238.146C1131.31 240.505 1134.16 243.06 1136.91 245.713C1139.96 230.579 1144.58 215.15 1151.26 199.722V199.623Z" fill="black"/>
<path d="M1160.2 203.554C1196.06 120.612 1274.37 85.0369 1300.21 75.2096C1312.1 107.64 1349.63 226.845 1298.14 321.777C1302.57 320.204 1307.09 318.829 1311.51 317.649C1366.72 203.554 1305.91 62.8271 1305.91 62.8271C1305.91 62.8271 1196.65 94.2745 1151.16 199.623C1144.48 215.052 1139.86 230.481 1136.82 245.615C1139.66 248.367 1142.51 251.02 1145.27 253.968C1148.11 237.458 1152.83 220.457 1160.2 203.456V203.554Z" fill="black"/>
<path d="M1263.95 203.063C1266.8 198.444 1265.33 192.351 1260.71 189.501C1256.09 186.651 1250 188.125 1247.15 192.744C1222.88 232.25 1203.04 273.918 1187.61 317.158C1191.84 325.609 1195.86 334.159 1199.5 343.004C1215.32 294.064 1236.74 247.187 1263.95 203.063Z" fill="black"/>
<path d="M1445.13 323.939C1445.13 323.939 1413.29 477.344 1355.23 535.423C1355.03 535.619 1354.74 535.914 1354.54 536.111C1358.47 536.799 1362.5 537.388 1366.33 538.076C1423.12 475.968 1453.58 332.194 1454.86 326.003C1455.94 320.696 1452.6 315.586 1447.39 314.407C1443.85 313.621 1385.69 301.14 1323.59 314.8C1321.92 318.633 1320.05 322.465 1318.19 326.298C1382.44 310.083 1445.23 324.038 1445.23 324.038L1445.13 323.939Z" fill="black"/>
<path d="M1222.1 593.797C1224.06 594.78 1226.03 595.861 1227.89 596.844C1263.56 592.618 1311.41 581.808 1347.17 554.979C1342.65 554.291 1338.03 553.505 1333.22 552.817C1299.52 574.634 1256.58 583.577 1224.55 587.213C1223.77 589.375 1222.98 591.635 1222.1 593.699V593.797Z" fill="black"/>
<path d="M1344.81 544.66C1349.04 545.348 1353.36 545.938 1357.39 546.626C1358.96 545.151 1360.63 543.874 1362.11 542.4C1363.48 541.024 1364.86 539.55 1366.13 538.076C1362.3 537.388 1358.37 536.798 1354.34 536.11C1351.3 539.157 1348.06 542.007 1344.71 544.66H1344.81Z" fill="black"/>
<path d="M1347.27 555.077C1350.81 552.424 1354.15 549.574 1357.49 546.626C1353.36 545.938 1349.14 545.348 1344.91 544.66C1341.18 547.608 1337.35 550.36 1333.42 552.915C1338.23 553.603 1342.85 554.291 1347.37 555.077H1347.27Z" fill="black"/>
<path d="M1220.33 597.728C1222.79 597.433 1225.34 597.237 1227.99 596.942C1226.03 595.959 1224.16 594.878 1222.2 593.896C1221.61 595.271 1221.02 596.451 1220.33 597.826V597.728Z" fill="black"/>
<path d="M1213.65 382.51C1214.93 386.638 1216.1 390.765 1217.19 394.893C1224.65 383.1 1233.4 372.388 1243.81 363.347C1257.96 351.161 1273.68 342.12 1289.89 335.437C1292.84 330.917 1295.59 326.396 1298.05 321.777C1276.82 329.05 1255.9 339.86 1237.33 355.878C1228.29 363.74 1220.43 372.683 1213.55 382.51H1213.65Z" fill="black"/>
<path d="M1305.12 329.934C1309.44 328.558 1313.77 327.28 1317.99 326.199C1319.96 322.366 1321.72 318.534 1323.39 314.701C1319.46 315.586 1315.53 316.47 1311.51 317.551C1309.54 321.679 1307.38 325.806 1305.02 329.835L1305.12 329.934Z" fill="black"/>
<path d="M1289.99 335.437C1295 333.373 1300.01 331.604 1305.12 329.934C1307.48 325.904 1309.54 321.777 1311.6 317.649C1307.18 318.829 1302.66 320.303 1298.24 321.777C1295.79 326.396 1292.94 330.916 1290.09 335.437H1289.99Z" fill="black"/>
<path d="M1229.66 393.812L1217.68 396.367C1218.76 400.199 1219.84 404.032 1220.82 407.963C1223.57 403.049 1226.42 398.332 1229.56 393.812H1229.66Z" fill="black"/>
<path d="M1385.39 328.262C1406.02 328.262 1423.22 330.326 1433.24 331.8C1425.09 366.294 1395.22 481.47 1348.25 528.445C1346.29 530.41 1344.13 532.277 1341.96 534.145C1346.19 534.832 1350.41 535.422 1354.54 536.11C1354.74 535.913 1355.03 535.619 1355.23 535.422C1413.29 477.343 1445.13 323.938 1445.13 323.938C1445.13 323.938 1382.25 309.984 1318.09 326.199C1316.03 330.326 1313.77 334.355 1311.41 338.286C1337.15 330.523 1363.28 328.164 1385.39 328.164V328.262Z" fill="black"/>
<path d="M1224.65 587.31C1256.68 583.674 1299.62 574.633 1333.32 552.915C1328.21 552.129 1323 551.441 1317.7 550.753C1289.11 566.182 1255.31 573.552 1228.29 576.992C1227.11 580.628 1225.93 584.068 1224.65 587.409V587.31Z" fill="black"/>
<path d="M1330.96 542.597C1335.68 543.285 1340.29 543.973 1344.81 544.661C1348.15 542.007 1351.4 539.157 1354.44 536.111C1350.32 535.423 1346.19 534.833 1341.87 534.146C1338.43 537.094 1334.79 539.944 1330.96 542.597Z" fill="black"/>
<path d="M1317.6 550.753C1322.9 551.441 1328.21 552.227 1333.22 552.915C1337.25 550.36 1341.08 547.609 1344.72 544.66C1340.2 543.972 1335.58 543.285 1330.86 542.597C1326.54 545.545 1322.12 548.297 1317.5 550.753H1317.6Z" fill="black"/>
<path d="M1217.28 394.892C1217.48 395.383 1217.58 395.973 1217.77 396.464L1229.76 393.909C1235.75 385.359 1242.63 377.596 1250.39 370.815C1259.04 363.346 1268.37 357.155 1278 352.045C1282.42 346.64 1286.35 341.136 1290.09 335.437C1273.88 342.119 1258.16 351.16 1244.01 363.346C1233.59 372.387 1224.75 383.099 1217.38 394.892H1217.28Z" fill="black"/>
<path d="M1311.41 338.385C1313.77 334.356 1316.03 330.327 1318.09 326.298C1313.77 327.379 1309.44 328.656 1305.22 330.032C1302.66 334.553 1299.81 339.073 1296.77 343.496C1301.68 341.628 1306.5 339.958 1311.51 338.385H1311.41Z" fill="black"/>
<path d="M1277.9 352.045C1284 348.802 1290.28 345.952 1296.57 343.496C1299.62 339.073 1302.47 334.553 1305.02 330.032C1299.91 331.605 1294.9 333.472 1289.89 335.536C1286.16 341.137 1282.23 346.739 1277.81 352.144L1277.9 352.045Z" fill="black"/>
<path d="M1341.57 415.333C1346.09 412.287 1347.17 406.096 1344.13 401.673C1341.08 397.251 1334.89 396.072 1330.47 399.118C1294.12 424.08 1262.09 454.249 1234.77 488.252C1235.66 498.964 1236.15 509.086 1236.15 518.618C1264.93 478.523 1300.6 443.538 1341.67 415.333H1341.57Z" fill="black"/>
<path d="M620.406 324.332C620.406 324.332 712.172 314.8 798.044 357.352C818.579 367.572 834.397 382.215 846.482 399.02C847.956 395.482 849.43 391.944 851.002 388.504C838.524 372.584 822.705 358.629 802.465 348.605C715.022 305.267 623.353 314.21 619.423 314.603C616.77 314.898 614.412 316.175 612.742 318.337C611.072 320.401 610.384 323.054 610.679 325.708C611.465 331.506 630.231 466.042 719.246 531.786C723.766 531 728.58 530.312 733.296 529.526C639.466 468.106 620.406 324.43 620.406 324.43V324.332Z" fill="black"/>
<path d="M810.227 555.961C793.229 554.487 777.804 550.655 763.656 545.151C757.466 546.036 751.276 546.822 745.381 547.706C765.817 557.927 787.826 564.02 811.504 565.887C811.111 564.02 810.718 562.251 810.522 560.285C810.325 558.91 810.423 557.337 810.325 555.863L810.227 555.961Z" fill="black"/>
<path d="M731.332 539.845C736.441 539.059 741.55 538.272 746.757 537.486C742.041 535.029 737.62 532.278 733.198 529.428C728.482 530.214 723.766 530.902 719.148 531.688C721.113 533.162 723.079 534.636 725.142 536.012C727.205 537.388 729.268 538.567 731.332 539.845Z" fill="black"/>
<path d="M763.656 545.152C757.859 542.891 752.16 540.336 746.757 537.486C741.549 538.273 736.44 539.059 731.331 539.845C735.949 542.695 740.567 545.348 745.283 547.707C751.276 546.822 757.368 545.938 763.558 545.152H763.656Z" fill="black"/>
<path d="M736.342 519.797C663.538 470.365 638.287 366.687 631.999 333.471C658.036 332.488 728.187 333.667 793.721 366.098C814.747 376.515 830.27 392.238 841.962 410.124C843.436 406.39 845.008 402.753 846.482 399.019C834.397 382.214 818.677 367.572 798.044 357.351C712.172 314.799 620.405 324.332 620.405 324.332C620.405 324.332 639.466 468.105 733.296 529.427C738.307 528.641 743.416 527.855 748.623 527.167C744.497 524.907 740.37 522.45 736.342 519.797Z" fill="black"/>
<path d="M809.933 545.839C802.269 545.053 794.704 543.874 787.433 542.203C779.376 543.186 771.418 544.169 763.656 545.151C777.804 550.655 793.23 554.487 810.227 555.961C810.031 552.817 809.933 549.475 809.933 545.839Z" fill="black"/>
<path d="M748.525 527.168C743.318 527.954 738.209 528.642 733.198 529.428C737.521 532.278 742.041 534.932 746.757 537.487C752.652 536.602 758.547 535.718 764.737 534.932C759.235 532.671 753.831 530.018 748.525 527.168Z" fill="black"/>
<path d="M787.433 542.204C779.671 540.337 772.106 537.978 764.737 534.932C758.645 535.718 752.652 536.602 746.757 537.487C752.161 540.337 757.761 542.892 763.656 545.152C771.418 544.071 779.278 543.088 787.433 542.204Z" fill="black"/>
<path d="M733.001 411.992C728.384 409.142 722.39 410.518 719.443 415.038C716.593 419.657 717.969 425.652 722.488 428.6C755.304 449.237 786.352 472.528 815.631 497.882C817.006 490.905 818.677 483.633 820.543 476.164C792.935 452.775 763.656 431.352 733.001 411.992Z" fill="black"/>
<path d="M651.453 1546.36C706.572 1591.76 818.284 1611.42 937.561 1614.17C937.168 1611.51 936.971 1608.96 936.578 1606.21C936.087 1603.36 936.873 1600.41 938.74 1598.25C940.607 1596.08 943.358 1594.81 946.207 1594.81C953.674 1594.81 961.24 1594.81 968.707 1594.81C840.882 1594.32 718.067 1575.84 663.832 1531.22C591.519 1471.67 511.15 836.63 490.124 639.593C517.831 649.027 584.347 668.092 702.347 681.752C703.526 679.492 704.705 677.33 706.179 675.659C714.53 676.544 722.783 677.33 731.135 678.214C730.938 674.087 731.135 669.665 731.822 664.947C613.921 652.762 542.492 634.974 508.006 624.459H496.903C489.043 629.373 485.113 632.321 484.818 632.517C483.05 633.991 480.888 634.679 478.727 634.679C475.877 634.679 472.93 633.402 471.063 630.945C469.491 628.979 468.901 626.523 469 624.164C469 624.754 468.901 625.343 469 625.933C469.884 634.384 558.31 1469.71 651.453 1546.46V1546.36Z" fill="black"/>
<path d="M1519.11 622.885C1513.9 622.689 1509.88 618.365 1509.78 613.156L1492.78 613.353C1463.01 626.718 1400.42 648.436 1286.65 662.981C1287.63 666.715 1288.42 670.449 1288.91 674.38C1300.8 673.004 1312.78 671.629 1324.67 670.154C1325.26 672.611 1325.85 675.068 1326.44 677.525C1429.02 661.605 1484.04 640.181 1509.29 627.602C1470.38 976.865 1396 1491.91 1344.03 1529.65C1303.35 1559.23 1199.3 1581.64 1083.17 1590.58C1086.12 1590.48 1088.77 1591.66 1090.74 1593.72C1092.8 1595.99 1093.68 1599.03 1093.09 1602.08C1092.7 1604.34 1092.31 1606.7 1092.01 1608.96C1211 1598.44 1316.03 1574.27 1355.62 1545.47C1432.55 1489.56 1521.08 700.226 1531 610.404C1531.39 606.768 1529.72 603.427 1526.78 601.363C1528.64 605.294 1529.53 609.323 1529.43 613.451C1529.23 618.856 1524.61 623.082 1519.21 622.885H1519.11Z" fill="black"/>
<path d="M470.474 619.741C470.965 618.955 471.554 618.168 472.34 617.48C471.554 618.168 470.965 618.856 470.474 619.741Z" fill="black"/>
<path d="M496.903 624.655H508.006C505.451 623.771 503.093 622.985 500.932 622.297C499.458 623.083 498.181 623.869 497.002 624.655H496.903Z" fill="black"/>
<path d="M478.825 634.679C480.987 634.679 483.148 633.991 484.917 632.517C485.113 632.32 489.043 629.372 497.002 624.655L478.825 624.851C478.825 624.851 481.969 622.395 488.65 618.071C484.917 616.695 482.853 615.909 482.755 615.81C479.513 614.435 475.878 614.828 473.028 616.891C472.832 617.088 472.635 617.284 472.439 617.481C471.653 618.169 471.063 618.857 470.572 619.741C470.474 619.938 470.277 620.233 470.179 620.429C469.688 621.412 469.295 622.493 469.196 623.574C469.196 623.771 469.196 623.967 469.196 624.164C469 626.522 469.589 628.979 471.26 630.944C473.225 633.401 476.074 634.679 478.923 634.679H478.825Z" fill="black"/>
<path d="M488.65 618.07C481.969 622.296 478.825 624.851 478.825 624.851L497.002 624.655C498.279 623.868 499.556 623.181 500.932 622.296C495.626 620.625 491.598 619.151 488.65 618.07Z" fill="black"/>
<path d="M1269.26 676.542C1268.77 672.71 1267.98 668.975 1266.9 665.438C1200.19 673.103 1117.26 678.311 1014.79 678.311C912.311 678.311 822.804 673.692 751.473 666.912C750.491 671.924 750.491 676.346 750.982 680.178C922.529 695.902 1095.84 694.821 1269.36 676.542H1269.26Z" fill="black"/>
<path d="M1279.08 675.461C1282.33 675.068 1285.67 674.773 1288.91 674.38C1288.42 670.449 1287.63 666.715 1286.65 662.98C1283.41 663.374 1280.07 663.767 1276.73 664.258C1277.71 667.894 1278.59 671.629 1279.08 675.461Z" fill="black"/>
<path d="M741.451 666.028C738.209 665.733 735.065 665.34 731.822 665.045C731.135 669.762 730.938 674.283 731.135 678.312C734.377 678.607 737.619 679 740.862 679.295C740.567 675.265 740.665 670.843 741.451 666.028Z" fill="black"/>
<path d="M1269.26 676.543C1272.5 676.15 1275.84 675.855 1279.08 675.561C1278.59 671.63 1277.71 667.895 1276.73 664.357C1273.48 664.751 1270.24 665.144 1266.9 665.537C1267.98 669.075 1268.77 672.809 1269.26 676.642V676.543Z" fill="black"/>
<path d="M751.375 666.912C748.034 666.618 744.694 666.323 741.451 665.93C740.665 670.745 740.567 675.266 740.862 679.197C744.202 679.491 747.543 679.786 750.883 680.081C750.392 676.248 750.49 671.826 751.375 666.814V666.912Z" fill="black"/>
<path d="M1008.79 1613.87C991.698 1614.26 974.897 1614.46 958.194 1614.46C961.044 1614.46 963.893 1614.46 966.84 1614.46C980.792 1614.46 994.842 1614.26 1008.79 1613.77V1613.87Z" fill="black"/>
<path d="M1090.74 1593.73C1088.77 1591.56 1086.12 1590.39 1083.17 1590.58C1045.74 1593.43 1007.12 1594.91 968.806 1594.81C961.24 1594.81 953.773 1594.81 946.306 1594.81C943.457 1594.81 940.706 1596.09 938.839 1598.25C936.972 1600.41 936.186 1603.36 936.677 1606.21C937.169 1608.86 937.267 1611.51 937.66 1614.17C941 1614.17 944.439 1614.27 947.78 1614.36C947.288 1611.12 946.896 1607.88 946.306 1604.63C989.144 1604.63 1033.16 1604.34 1083.47 1600.31C1082.88 1603.46 1082.38 1606.6 1081.89 1609.74C1085.23 1609.45 1088.67 1609.16 1092.01 1608.86C1092.41 1606.6 1092.7 1604.34 1093.09 1601.98C1093.68 1598.93 1092.8 1595.89 1090.74 1593.63V1593.73Z" fill="black"/>
<path d="M1008.79 1613.87C1033.36 1613.09 1057.82 1611.71 1081.89 1609.74C1082.38 1606.6 1082.88 1603.36 1083.46 1600.31C1033.16 1604.34 989.143 1604.63 946.306 1604.63C946.797 1607.88 947.288 1611.12 947.779 1614.36C951.218 1614.36 954.755 1614.36 958.194 1614.36C974.897 1614.36 991.6 1614.17 1008.79 1613.77V1613.87Z" fill="black"/>
<path d="M1326.44 677.525C1325.85 675.068 1325.26 672.611 1324.67 670.154C1312.78 671.628 1300.8 673.102 1288.91 674.38C1289.3 677.132 1289.5 679.883 1289.6 682.635C1302.57 680.964 1314.85 679.294 1326.44 677.427V677.525Z" fill="black"/>
<path d="M731.135 678.311C722.784 677.525 714.531 676.64 706.179 675.756C704.804 677.427 703.527 679.49 702.348 681.849C711.78 682.93 721.703 684.011 731.823 685.092C731.43 683.028 731.234 680.768 731.037 678.409L731.135 678.311Z" fill="black"/>
<path d="M1269.95 685.093C1269.95 682.145 1269.65 679.295 1269.26 676.543C1095.75 694.822 922.431 696.001 750.884 680.179C751.179 682.734 751.67 684.994 752.259 686.96C823.59 693.544 910.346 697.966 1014.79 697.966C1119.23 697.966 1202.35 692.758 1269.95 685.093Z" fill="black"/>
<path d="M741.844 685.978C741.353 683.914 741.058 681.654 740.862 679.295C737.619 679 734.377 678.607 731.135 678.312C731.233 680.671 731.528 682.931 731.921 684.995C735.261 685.29 738.504 685.683 741.844 685.978Z" fill="black"/>
<path d="M1279.67 683.913C1283.01 683.52 1286.26 683.127 1289.6 682.636C1289.5 679.884 1289.2 677.133 1288.91 674.381C1285.67 674.774 1282.33 675.069 1279.08 675.462C1279.48 678.214 1279.57 681.063 1279.67 683.913Z" fill="black"/>
<path d="M1269.95 685.093C1273.19 684.7 1276.53 684.405 1279.67 684.012C1279.57 681.162 1279.38 678.312 1279.08 675.561C1275.84 675.954 1272.5 676.248 1269.26 676.543C1269.65 679.295 1269.85 682.145 1269.95 685.093Z" fill="black"/>
<path d="M750.883 680.179C747.542 679.885 744.202 679.59 740.861 679.295C741.058 681.752 741.451 684.012 741.844 685.978C745.283 686.272 748.721 686.665 752.16 686.96C751.571 685.093 751.079 682.734 750.785 680.179H750.883Z" fill="black"/>
<path d="M1427.25 835.254C1427.64 831.815 1426.26 828.473 1423.61 826.311C1420.86 824.149 1417.32 823.658 1414.08 824.837C1191.64 908.566 785.271 894.611 584.052 826.704C580.81 825.623 577.273 826.311 574.718 828.375C572.065 830.537 570.788 833.878 571.181 837.22C604.292 1103.54 654.99 1430.2 708.635 1474.42C758.547 1515.6 863.774 1531.52 972.538 1531.52C1109.89 1531.52 1252.95 1506.07 1297.36 1473.83C1342.95 1440.62 1393.15 1108.26 1427.25 835.254ZM1291.56 1465.87C1211.09 1524.35 821.821 1555.01 714.825 1466.86C660.983 1422.53 606.748 1044.08 580.908 836.04C793.426 907.78 1202.45 915.052 1417.52 834.075C1390.79 1048.11 1336.85 1432.95 1291.56 1465.87Z" fill="black"/>
<path d="M580.908 836.04C606.748 1044.08 660.983 1422.53 714.825 1466.85C821.821 1555.01 1211.09 1524.34 1291.56 1465.87C1336.85 1432.95 1390.79 1048.11 1417.52 834.074C1202.45 915.051 793.426 907.779 580.908 836.04ZM1285.76 1457.91C1204.71 1516.88 821.33 1541.84 721.015 1459.29C684.662 1429.41 636.813 1202.11 592.502 850.191C796.57 913.479 1182.21 925.861 1405.73 848.815C1360.24 1208.99 1315.53 1436.29 1285.76 1458.01V1457.91Z" fill="black"/>
<path d="M877.333 356.763C877.039 355.19 877.53 353.52 878.807 352.34C879.397 351.849 879.986 351.358 880.576 350.866C888.337 336.813 896.689 323.153 905.728 310.279C904.844 308.511 905.138 306.349 906.514 304.776C907.595 303.597 909.167 303.204 910.641 303.302C947.387 253.281 993.663 216.625 1046.82 216.625C1077.28 216.625 1103.7 228.909 1126.2 248.859C1126.89 245.223 1127.58 241.587 1128.46 237.95C1103.8 217.411 1076.49 206.798 1046.82 206.798C1003.59 206.798 962.026 228.713 923.413 271.855C893.84 304.973 869.473 346.444 851.002 388.308C853.36 391.355 855.718 394.499 857.88 397.742C863.775 383.984 870.357 370.128 877.53 356.664L877.333 356.763Z" fill="black"/>
<path d="M821.526 566.379C818.186 566.379 814.747 566.183 811.406 565.888C812.487 571.489 814.157 576.698 816.417 581.71C819.463 580.432 822.509 579.155 825.653 578.074C823.884 574.339 822.41 570.507 821.428 566.477L821.526 566.379Z" fill="black"/>
<path d="M1094.17 654.136C1062.93 655.905 990.813 654.333 928.325 639.199C927.736 639.395 927.245 639.592 926.655 639.592C925.771 639.592 924.887 639.395 924.101 638.904C923.413 638.511 922.823 638.019 922.136 637.626C904.647 633.106 888.141 627.406 873.599 620.428L853.163 620.625C916.241 660.032 1031.1 664.258 1076 664.258C1087.39 664.258 1094.27 663.963 1094.67 663.963C1142.71 661.408 1183.19 655.414 1209.82 616.596H1197.14C1172.09 647.847 1135.83 651.974 1094.08 654.136H1094.17Z" fill="black"/>
<path d="M1197.24 616.694H1209.91C1211.09 614.827 1212.17 612.96 1213.26 611.092C1210.31 609.618 1207.26 608.242 1204.22 606.965C1202.05 610.503 1199.7 613.746 1197.34 616.694H1197.24Z" fill="black"/>
<path d="M853.164 620.625L873.6 620.429C858.96 613.353 846.384 604.902 837.149 594.878C833.808 596.057 830.369 597.236 827.127 598.612C834.103 606.966 842.945 614.238 853.164 620.625Z" fill="black"/>
<path d="M1217.97 602.544C1218.76 600.972 1219.54 599.399 1220.33 597.729C1216.5 598.122 1212.86 598.416 1209.42 598.711C1212.37 599.989 1215.22 601.266 1217.97 602.642V602.544Z" fill="black"/>
<path d="M830.664 586.623C828.797 583.871 827.127 581.021 825.751 578.073C822.705 579.253 819.561 580.432 816.516 581.709C817.891 584.756 819.463 587.606 821.232 590.456C824.376 589.178 827.52 587.802 830.664 586.623Z" fill="black"/>
<path d="M830.664 586.623C827.52 587.802 824.375 589.178 821.231 590.456C823 593.306 824.965 595.959 827.127 598.612C830.467 597.237 833.808 596.057 837.148 594.878C834.692 592.225 832.629 589.473 830.664 586.623Z" fill="black"/>
<path d="M1208.83 598.71C1207.36 601.658 1205.69 604.409 1204.12 606.965C1207.26 608.242 1210.21 609.618 1213.16 611.092C1214.83 608.34 1216.4 605.589 1217.87 602.542C1215.12 601.166 1212.17 599.889 1209.32 598.611C1209.13 598.611 1208.93 598.611 1208.83 598.611V598.71Z" fill="black"/>
<path d="M1187.61 317.158C1178.87 299.764 1169.14 283.352 1158.04 269.005C1153.91 263.6 1149.59 258.588 1145.27 253.969C1144.48 258.293 1143.89 262.519 1143.4 266.744C1158.82 284.728 1171.99 306.447 1182.99 330.032C1184.47 325.708 1186.04 321.482 1187.61 317.257V317.158Z" fill="black"/>
<path d="M1206.57 393.222C1208.74 389.586 1211.19 385.95 1213.65 382.51C1209.52 369.145 1204.81 355.878 1199.5 343.103C1197.93 348.114 1196.36 353.126 1194.88 358.138C1199.2 369.636 1203.13 381.429 1206.57 393.222Z" fill="black"/>
<path d="M1134.75 257.211C1135.34 253.378 1136.03 249.448 1136.91 245.615C1134.16 242.962 1131.31 240.505 1128.46 238.048C1127.58 241.684 1126.89 245.32 1126.2 248.956C1129.15 251.61 1132 254.361 1134.85 257.211H1134.75Z" fill="black"/>
<path d="M1143.5 266.744C1143.99 262.518 1144.68 258.292 1145.36 253.968C1142.61 251.02 1139.76 248.269 1136.91 245.615C1136.13 249.546 1135.44 253.379 1134.75 257.211C1137.7 260.258 1140.65 263.403 1143.4 266.744H1143.5Z" fill="black"/>
<path d="M1199.5 343.102C1195.86 334.257 1191.84 325.609 1187.61 317.256C1186.04 321.482 1184.47 325.806 1182.99 330.031C1187.22 339.171 1191.25 348.605 1194.88 358.137C1196.36 353.126 1197.93 348.015 1199.5 343.102Z" fill="black"/>
<path d="M1236.15 522.058C1236.15 520.977 1236.15 519.797 1236.15 518.618C1235.36 519.699 1234.67 520.78 1233.99 521.861C1234.77 521.861 1235.46 521.959 1236.25 522.058H1236.15Z" fill="black"/>
<path d="M1219.15 446.584C1219.15 446.584 1219.54 446.977 1219.64 447.174C1220.33 448.451 1220.43 449.926 1219.94 451.203C1222.88 468.204 1224.75 484.714 1225.63 499.848C1228.58 495.917 1231.63 492.085 1234.67 488.252C1232.51 463.192 1227.89 435.676 1220.82 407.963C1218.36 412.385 1216.1 416.906 1213.94 421.525C1215.91 429.976 1217.68 438.329 1219.15 446.584Z" fill="black"/>
<path d="M1225.04 546.724C1225.93 548.591 1225.63 550.655 1224.26 552.129C1223.67 556.256 1222.88 560.089 1222 563.627C1220.62 568.737 1219.25 573.552 1217.68 578.171C1221.11 577.876 1224.65 577.483 1228.29 576.992C1229.37 573.454 1230.55 570.014 1231.53 566.182C1233.3 559.204 1234.58 550.949 1235.36 541.908C1232.12 541.613 1228.88 541.319 1225.54 541.122C1225.34 543.088 1225.24 545.053 1225.04 546.822V546.724Z" fill="black"/>
<path d="M1227.6 531.296C1230.35 531.492 1233.1 531.787 1235.85 531.983C1235.95 528.74 1236.15 525.497 1236.15 522.058C1235.36 522.058 1234.67 521.96 1233.89 521.861C1231.73 525.006 1229.66 528.151 1227.5 531.296H1227.6Z" fill="black"/>
<path d="M1226.03 533.653C1225.93 536.209 1225.73 538.665 1225.54 541.024C1228.88 541.319 1232.12 541.515 1235.36 541.81C1235.66 538.665 1235.75 535.324 1235.95 531.983C1233.2 531.786 1230.45 531.491 1227.7 531.295C1227.21 532.081 1226.62 532.769 1226.13 533.555L1226.03 533.653Z" fill="black"/>
<path d="M1216.1 396.759L1208.15 398.43C1208.93 401.182 1209.72 403.933 1210.41 406.685C1212.17 403.245 1214.14 400.002 1216.1 396.661V396.759Z" fill="black"/>
<path d="M1213.16 589.767C1216.2 591.045 1219.25 592.421 1222.2 593.797C1223.08 591.733 1223.87 589.473 1224.65 587.311C1220.82 587.704 1217.18 588.097 1213.65 588.392C1213.45 588.785 1213.35 589.374 1213.16 589.767Z" fill="black"/>
<path d="M1208.93 598.514C1208.93 598.514 1209.23 598.612 1209.32 598.71C1212.76 598.514 1216.4 598.121 1220.23 597.728C1220.82 596.45 1221.51 595.173 1222.1 593.797C1219.15 592.421 1216.1 591.045 1213.06 589.768C1211.78 592.814 1210.31 595.664 1208.93 598.416V598.514Z" fill="black"/>
<path d="M1209.42 598.71C1209.42 598.71 1209.13 598.612 1209.03 598.514C1209.03 598.514 1209.03 598.71 1208.93 598.71C1209.13 598.71 1209.32 598.71 1209.42 598.71Z" fill="black"/>
<path d="M1208.15 398.43L1216.1 396.759C1216.5 396.17 1216.89 395.482 1217.28 394.892C1216.1 390.765 1215.02 386.637 1213.75 382.51C1211.29 386.048 1208.93 389.585 1206.67 393.222C1207.16 394.99 1207.65 396.661 1208.15 398.43Z" fill="black"/>
<path d="M1210.41 406.685C1211.68 411.598 1212.96 416.512 1214.04 421.426C1216.1 416.807 1218.46 412.286 1220.92 407.864C1219.94 404.031 1218.85 400.199 1217.77 396.268L1216.2 396.661C1214.24 399.904 1212.27 403.245 1210.5 406.685H1210.41Z" fill="black"/>
<path d="M1214.73 585.738C1214.73 586.721 1214.34 587.605 1213.75 588.391C1217.18 588.097 1220.92 587.704 1224.75 587.31C1226.03 583.969 1227.21 580.53 1228.39 576.894C1224.65 577.385 1221.11 577.778 1217.77 578.073C1216.89 580.726 1215.81 583.183 1214.83 585.64L1214.73 585.738Z" fill="black"/>
<path d="M1217.68 396.366C1217.58 395.875 1217.38 395.285 1217.18 394.794C1216.79 395.384 1216.4 396.072 1216.01 396.661L1217.58 396.268L1217.68 396.366Z" fill="black"/>
<path d="M1226.32 521.271C1228.88 521.468 1231.43 521.664 1233.99 521.959C1234.77 520.878 1235.46 519.797 1236.15 518.716C1236.15 509.184 1235.66 499.061 1234.77 488.35C1231.73 492.182 1228.68 496.015 1225.73 499.946C1226.22 507.415 1226.42 514.589 1226.32 521.369V521.271Z" fill="black"/>
<path d="M1226.13 531.197C1226.13 531.197 1227.11 531.197 1227.6 531.295C1229.66 528.15 1231.82 525.005 1233.99 521.861C1231.43 521.664 1228.98 521.468 1226.32 521.173C1226.32 524.612 1226.32 527.954 1226.13 531.098V531.197Z" fill="black"/>
<path d="M1226.03 533.653C1226.52 532.867 1227.11 532.179 1227.6 531.393C1227.11 531.393 1226.62 531.393 1226.13 531.295C1226.13 532.081 1226.13 532.867 1226.13 533.752L1226.03 533.653Z" fill="black"/>
<path d="M828.895 483.337C832.923 466.631 838.327 448.745 844.91 430.467C843.534 428.108 842.06 425.749 840.783 423.293C839.506 420.934 840.292 417.888 842.65 416.61C843.632 416.02 844.713 415.922 845.794 416.119C844.615 414.055 843.239 412.089 841.962 410.124C833.021 432.923 825.947 455.33 820.642 476.164C823.491 478.522 826.242 480.979 828.993 483.337H828.895Z" fill="black"/>
<path d="M817.498 516.161C816.417 513.704 817.498 510.756 820.052 509.675C821.133 509.184 822.312 509.184 823.393 509.577C823.589 508.201 823.982 506.727 824.179 505.351C821.33 502.796 818.48 500.437 815.631 497.98C814.157 505.547 812.782 512.82 811.897 519.699C814.255 519.502 816.417 519.207 818.775 519.011C818.382 518.028 817.793 517.144 817.4 516.259L817.498 516.161Z" fill="black"/>
<path d="M819.659 546.724C819.659 544.169 819.659 541.515 819.856 538.764C816.515 539.058 813.371 539.452 810.03 539.746C810.03 541.81 809.834 543.874 809.834 545.839C813.076 546.134 816.319 546.527 819.659 546.724Z" fill="black"/>
<path d="M821.231 524.023C820.445 522.353 819.561 520.682 818.775 518.913C816.417 519.11 814.157 519.404 811.897 519.601C811.406 523.139 811.111 526.382 810.816 529.625C814.157 529.33 817.399 528.937 820.74 528.642C820.936 527.07 821.035 525.497 821.231 523.925V524.023Z" fill="black"/>
<path d="M820.74 528.74C817.399 529.035 814.157 529.428 810.817 529.723C810.522 533.163 810.227 536.504 810.129 539.747C813.371 539.452 816.614 539.059 819.954 538.764C820.151 535.521 820.347 532.18 820.74 528.74Z" fill="black"/>
<path d="M853.064 409.044C854.538 405.309 856.11 401.575 857.682 397.84C855.521 394.597 853.261 391.551 850.805 388.406C849.233 391.944 847.759 395.482 846.285 398.921C848.643 402.164 850.805 405.506 852.966 408.945L853.064 409.044Z" fill="black"/>
<path d="M820.249 559.303C820.151 558.419 820.151 557.436 820.053 556.453C816.712 556.355 813.47 556.257 810.228 555.962C810.228 557.436 810.228 559.008 810.424 560.384C810.621 562.251 811.014 564.119 811.407 565.986C814.747 566.281 818.088 566.379 821.526 566.477C820.937 564.119 820.544 561.76 820.249 559.401V559.303Z" fill="black"/>
<path d="M845.696 416.119C847.169 416.315 848.447 417.101 849.233 418.477C850.412 415.332 851.689 412.089 852.966 408.945C850.903 405.505 848.643 402.164 846.285 398.921C844.713 402.655 843.141 406.39 841.766 410.026C843.043 411.991 844.418 413.957 845.597 416.02L845.696 416.119Z" fill="black"/>
<path d="M819.659 546.724C816.319 546.626 813.076 546.233 809.834 545.84C809.834 549.476 809.834 552.817 810.129 555.962C813.273 556.257 816.613 556.355 819.954 556.453C819.757 553.407 819.561 550.164 819.659 546.724Z" fill="black"/>
<path d="M828.895 483.338C826.144 480.881 823.393 478.523 820.543 476.164C818.677 483.633 817.006 490.905 815.631 497.882C818.48 500.339 821.428 502.796 824.179 505.253C825.456 498.177 827.028 490.905 828.895 483.338Z" fill="black"/>
<path d="M888.239 357.351C887.355 358.138 886.274 358.924 885.39 359.71C884.407 360.496 883.327 360.987 882.148 360.987C880.772 360.987 879.495 360.398 878.512 359.317C877.825 358.629 877.53 357.646 877.432 356.762C870.259 370.225 863.775 383.983 857.781 397.84C860.041 401.181 862.104 404.522 864.069 407.864C871.143 390.862 879.2 373.861 888.239 357.351Z" fill="black"/>
<path d="M918.599 309.395C924.789 300.943 931.273 292.688 937.955 285.121C958.096 262.617 978.827 246.795 999.951 237.262C999.853 237.262 999.755 237.164 999.656 237.066C997.397 235.591 996.611 232.643 998.084 230.285C999.558 228.024 1002.6 227.337 1004.86 228.712C1007.03 230.088 1009.09 231.464 1011.25 232.84C1023.04 228.811 1034.83 226.649 1046.82 226.649C1064.01 226.649 1080.42 231.071 1095.94 239.522C1098.5 238.933 1101.05 238.147 1103.61 237.557C1106.36 236.967 1108.91 238.638 1109.5 241.291C1109.99 243.453 1108.91 245.517 1107.14 246.5C1113.04 250.627 1118.74 255.443 1124.34 260.848C1124.83 256.917 1125.52 253.084 1126.2 249.055C1103.7 229.105 1077.28 216.821 1046.82 216.821C993.663 216.821 947.288 253.477 910.641 303.498C911.623 303.596 912.704 303.891 913.49 304.677L918.599 309.395Z" fill="black"/>
<path d="M912.704 317.354L906.711 311.851C906.711 311.851 905.925 310.868 905.63 310.377C896.591 323.251 888.239 336.911 880.478 350.964C887.748 344.576 895.215 338.287 902.781 332.292C906.023 327.182 909.265 322.17 912.606 317.256L912.704 317.354Z" fill="black"/>
<path d="M1203.04 399.511L1198.42 400.493C1198.91 402.164 1199.4 403.933 1199.89 405.604C1200.97 403.54 1201.96 401.476 1203.14 399.511H1203.04Z" fill="black"/>
<path d="M831.744 566.477C830.271 566.477 828.699 566.673 827.225 566.673C825.26 566.673 823.393 566.575 821.526 566.477C822.509 570.506 823.983 574.437 825.751 578.073C828.895 576.894 831.941 575.714 835.085 574.633C833.71 571.98 832.629 569.228 831.744 566.477Z" fill="black"/>
<path d="M1093.58 644.309C1089.85 644.506 1085.72 644.703 1081.3 644.801C1082.78 646.275 1083.27 648.535 1082.29 650.501C1081.4 652.171 1079.73 653.154 1077.96 653.154C1077.18 653.154 1076.39 652.957 1075.7 652.564C1070.99 650.108 1066.27 647.454 1061.55 644.801C1054.38 644.703 1046.72 644.408 1038.76 644.015C1032.37 645.882 1025.99 647.847 1019.6 649.518C1019.21 649.616 1018.81 649.714 1018.32 649.714C1016.16 649.714 1014.1 648.24 1013.61 646.078C1013.31 644.801 1013.51 643.523 1014.1 642.442C985.213 639.985 953.969 635.465 925.574 628.094C926.851 628.881 928.03 629.765 929.21 630.551C931.568 631.927 932.255 634.973 930.782 637.332C930.192 638.315 929.308 638.904 928.227 639.298C990.715 654.432 1062.83 656.004 1094.08 654.235C1135.93 651.975 1172.09 647.847 1197.14 616.793L1184.17 616.99C1162.75 638.511 1132.79 642.344 1093.49 644.408L1093.58 644.309Z" fill="black"/>
<path d="M897.671 620.135L873.697 620.43C888.238 627.407 904.745 633.107 922.234 637.627C913.686 632.321 905.629 626.424 897.769 620.135H897.671Z" fill="black"/>
<path d="M1184.27 616.892L1197.24 616.695C1199.6 613.747 1201.96 610.504 1204.12 606.966C1201.17 605.689 1198.22 604.411 1195.08 603.33C1191.74 608.539 1188.1 612.961 1184.17 616.892H1184.27Z" fill="black"/>
<path d="M896.198 618.955C876.547 611.682 859.648 602.641 847.76 591.34C844.223 592.421 840.685 593.6 837.148 594.779C846.384 604.803 858.96 613.255 873.6 620.33L897.573 620.036C897.573 620.036 896.591 619.249 896.099 618.955H896.198Z" fill="black"/>
<path d="M830.664 584.363C830.172 581.709 832.039 579.154 834.692 578.663C835.478 578.565 836.166 578.368 836.952 578.27C836.264 577.091 835.674 575.813 835.085 574.634C831.941 575.715 828.895 576.894 825.751 578.073C827.126 581.022 828.797 583.871 830.664 586.623C830.958 586.525 831.253 586.427 831.45 586.328C831.057 585.739 830.762 585.149 830.664 584.461V584.363Z" fill="black"/>
<path d="M847.76 591.34C846.286 589.964 844.911 588.49 843.535 587.016C841.079 587.409 838.721 587.998 836.264 588.392C835.97 588.392 835.675 588.392 835.478 588.392C833.808 588.392 832.334 587.507 831.45 586.229C831.155 586.328 830.861 586.426 830.664 586.524C832.629 589.374 834.791 592.126 837.149 594.779C840.686 593.502 844.223 592.421 847.76 591.34Z" fill="black"/>
<path d="M1195.08 603.33C1198.12 604.509 1201.07 605.787 1204.12 606.966C1205.79 604.313 1207.36 601.659 1208.83 598.711C1204.71 599.006 1200.78 599.202 1197.44 599.399C1196.65 600.676 1195.96 602.052 1195.08 603.33Z" fill="black"/>
<path d="M1180.44 338.287C1180.05 339.761 1178.87 341.039 1177.29 341.53C1177.69 342.513 1178.18 343.397 1178.57 344.38C1179.16 342.316 1179.75 340.253 1180.44 338.287Z" fill="black"/>
<path d="M1203.04 399.511C1204.22 397.349 1205.39 395.285 1206.57 393.221C1203.13 381.428 1199.2 369.636 1194.88 358.138C1193.31 363.641 1191.74 369.046 1190.26 374.549C1193.21 383.099 1195.86 391.845 1198.32 400.493L1202.94 399.511H1203.04Z" fill="black"/>
<path d="M1173.27 332.391C1173.76 332.292 1174.25 332.194 1174.74 332.096C1177.39 331.604 1179.95 333.275 1180.54 335.928C1180.64 336.518 1180.64 337.206 1180.54 337.796C1181.32 335.24 1182.11 332.587 1182.99 330.032C1171.99 306.446 1158.73 284.826 1143.4 266.744C1142.81 271.461 1142.42 276.08 1142.12 280.699C1142.22 280.797 1142.32 280.994 1142.42 281.092C1154.01 296.128 1164.33 313.62 1173.17 332.489L1173.27 332.391Z" fill="black"/>
<path d="M1133.18 269.889C1133.57 265.761 1134.16 261.535 1134.75 257.31C1131.9 254.46 1129.05 251.708 1126.11 249.055C1125.42 252.986 1124.73 256.917 1124.24 260.847C1127.19 263.697 1130.23 266.744 1133.08 269.987L1133.18 269.889Z" fill="black"/>
<path d="M1142.22 280.699C1142.51 276.08 1142.91 271.462 1143.5 266.744C1140.65 263.403 1137.8 260.258 1134.85 257.212C1134.16 261.438 1133.67 265.663 1133.28 269.791C1136.32 273.23 1139.37 276.768 1142.32 280.601L1142.22 280.699Z" fill="black"/>
<path d="M1178.57 344.38C1182.8 354.207 1186.73 364.33 1190.26 374.55C1191.74 369.047 1193.31 363.543 1194.88 358.138C1191.25 348.606 1187.32 339.172 1182.99 330.032C1182.11 332.587 1181.32 335.241 1180.54 337.796C1180.54 337.992 1180.44 338.091 1180.34 338.287C1179.65 340.351 1179.06 342.316 1178.47 344.38H1178.57Z" fill="black"/>
<path d="M1217.77 453.856C1216.79 454.445 1215.71 454.937 1214.73 455.526C1216.3 458.474 1217.87 461.324 1219.35 464.272C1220.53 466.729 1219.54 469.677 1217.18 470.857C1216.5 471.25 1215.71 471.348 1215.02 471.348C1214.34 471.348 1213.75 471.053 1213.16 470.857C1215.12 485.696 1216.2 499.749 1216.6 512.721C1219.64 508.397 1222.69 504.073 1225.83 499.847C1224.95 484.615 1222.98 468.203 1220.13 451.202C1219.74 452.283 1219.05 453.266 1217.97 453.856H1217.77Z" fill="black"/>
<path d="M1208.64 443.93C1209.13 444.815 1209.72 445.798 1210.21 446.682C1211.09 446.191 1212.08 445.699 1213.06 445.208C1215.12 444.029 1217.77 444.618 1219.25 446.485C1217.77 438.23 1216.01 429.877 1214.04 421.426C1211.58 426.733 1209.42 432.236 1207.46 437.837C1207.85 439.901 1208.24 441.867 1208.64 443.93Z" fill="black"/>
<path d="M1212.57 560.482C1212.57 560.482 1212.57 560.973 1212.47 561.17C1210.99 566.772 1209.42 571.784 1207.65 576.697L1210.01 578.859C1212.37 578.663 1214.92 578.466 1217.58 578.171C1219.15 573.651 1220.62 568.835 1221.9 563.627C1222.78 560.187 1223.47 556.256 1224.16 552.129C1223.96 552.325 1223.77 552.62 1223.57 552.817C1219.94 555.47 1216.2 557.927 1212.57 560.482Z" fill="black"/>
<path d="M1219.05 544.267C1221.02 543.579 1223.28 544.169 1224.65 545.938C1224.85 546.135 1224.85 546.429 1224.95 546.724C1225.14 544.857 1225.34 542.891 1225.44 541.024C1224.06 540.926 1222.59 540.828 1221.21 540.729C1220.43 541.909 1219.84 543.186 1219.05 544.366V544.267Z" fill="black"/>
<path d="M1225.54 541.024C1225.73 538.665 1225.93 536.208 1226.03 533.653C1224.46 536.012 1222.78 538.272 1221.21 540.729C1222.59 540.827 1224.06 540.926 1225.44 541.024H1225.54Z" fill="black"/>
<path d="M1199.79 405.604C1201.17 410.616 1202.45 415.726 1203.63 420.738C1205.69 415.922 1207.95 411.303 1210.31 406.685C1209.62 403.933 1208.83 401.181 1208.05 398.43L1202.94 399.511C1201.86 401.476 1200.78 403.54 1199.7 405.604H1199.79Z" fill="black"/>
<path d="M1213.45 588.686C1213.45 588.686 1212.67 589.276 1212.27 589.473C1212.57 589.571 1212.76 589.669 1213.06 589.767C1213.25 589.374 1213.45 588.785 1213.55 588.392C1213.55 588.392 1213.55 588.588 1213.45 588.588V588.686Z" fill="black"/>
<path d="M1209.91 590.259C1208.74 590.259 1207.56 589.866 1206.57 588.981C1205.2 588.981 1203.92 589.178 1202.64 589.276C1201.76 591.143 1200.88 593.109 1199.99 594.878C1203.04 596.057 1205.98 597.236 1208.93 598.514C1210.41 595.762 1211.78 592.912 1213.06 589.866C1212.76 589.768 1212.57 589.669 1212.27 589.571C1211.49 590.062 1210.7 590.357 1209.82 590.357L1209.91 590.259Z" fill="black"/>
<path d="M1197.44 599.398C1200.88 599.3 1204.71 599.005 1208.83 598.711C1208.83 598.711 1208.83 598.514 1208.93 598.514C1205.98 597.236 1203.04 596.057 1199.99 594.878C1199.21 596.45 1198.32 597.924 1197.44 599.398Z" fill="black"/>
<path d="M1208.15 398.43C1207.65 396.661 1207.16 394.991 1206.67 393.222C1205.39 395.285 1204.22 397.447 1203.13 399.511L1208.24 398.43H1208.15Z" fill="black"/>
<path d="M1207.46 437.936C1209.42 432.334 1211.58 426.831 1214.04 421.524C1212.86 416.611 1211.68 411.697 1210.41 406.783C1207.95 411.402 1205.79 416.021 1203.72 420.836C1205.1 426.634 1206.38 432.334 1207.56 437.936H1207.46Z" fill="black"/>
<path d="M1213.25 581.709C1214.43 582.79 1214.83 584.264 1214.73 585.64C1215.71 583.183 1216.69 580.727 1217.68 578.073C1215.12 578.368 1212.57 578.565 1210.11 578.761L1213.25 581.709Z" fill="black"/>
<path d="M1203.92 586.524C1203.53 587.507 1203.04 588.293 1202.64 589.276C1203.92 589.276 1205.2 589.08 1206.57 588.981L1203.92 586.524Z" fill="black"/>
<path d="M1216.6 520.485C1219.84 520.682 1223.08 520.976 1226.32 521.271C1226.32 514.49 1226.13 507.316 1225.73 499.848C1222.59 504.073 1219.44 508.397 1216.5 512.721C1216.5 515.375 1216.69 518.028 1216.69 520.485H1216.6Z" fill="black"/>
<path d="M1217.77 544.955C1217.77 544.955 1218.66 544.463 1219.05 544.365C1219.84 543.186 1220.43 541.908 1221.21 540.729C1219.35 540.631 1217.58 540.434 1215.71 540.336C1215.51 542.596 1215.32 544.758 1215.02 546.92C1215.91 546.232 1216.89 545.643 1217.77 545.053V544.955Z" fill="black"/>
<path d="M1216.3 530.411C1219.64 530.706 1222.88 530.902 1226.03 531.197C1226.13 527.954 1226.22 524.711 1226.22 521.272C1223.08 520.977 1219.74 520.78 1216.5 520.485C1216.5 523.925 1216.3 527.168 1216.2 530.411H1216.3Z" fill="black"/>
<path d="M1216.3 530.411C1216.2 533.85 1216.01 537.093 1215.71 540.238C1217.58 540.336 1219.44 540.533 1221.21 540.631C1222.69 538.273 1224.46 535.914 1226.03 533.556C1226.03 532.769 1226.03 531.983 1226.03 531.099C1222.79 530.804 1219.54 530.607 1216.3 530.312V530.411Z" fill="black"/>
<path d="M826.537 512.23C827.421 514.195 828.404 516.161 829.386 518.126C830.271 518.126 831.057 518.028 831.941 517.93C832.137 516.455 832.53 514.785 832.727 513.212C829.878 510.559 827.126 507.906 824.277 505.351C823.982 506.726 823.688 508.201 823.491 509.576C824.867 509.969 826.046 510.854 826.635 512.23H826.537Z" fill="black"/>
<path d="M843.142 467.417C843.142 467.417 842.749 467.614 842.552 467.614C840.882 467.614 839.212 466.73 838.328 465.157C836.952 462.799 837.738 459.85 840.096 458.475C842.356 457.197 844.714 455.92 847.072 454.642C848.448 450.318 849.921 445.994 851.395 441.572C849.135 437.936 847.072 434.201 844.91 430.467C838.328 448.746 833.022 466.631 828.896 483.338C831.647 485.696 834.398 488.055 837.149 490.512C838.917 483.043 840.784 475.378 843.142 467.417Z" fill="black"/>
<path d="M828.306 537.978C825.555 538.174 822.705 538.469 819.954 538.665C819.758 541.417 819.758 544.07 819.758 546.626C822.902 546.724 826.242 546.626 829.485 546.626C829.485 544.66 829.681 542.4 829.779 540.336C829.288 539.55 828.895 538.764 828.404 537.978H828.306Z" fill="black"/>
<path d="M829.288 518.126C829.976 519.502 830.565 520.878 831.253 522.254C831.45 520.78 831.646 519.404 831.843 517.93C830.958 517.93 830.172 518.028 829.288 518.126Z" fill="black"/>
<path d="M821.231 524.022C821.035 525.595 820.838 527.167 820.74 528.74C821.624 528.74 822.509 528.641 823.393 528.543C822.607 527.069 821.919 525.595 821.231 524.022Z" fill="black"/>
<path d="M823.393 528.544C822.509 528.544 821.624 528.642 820.74 528.74C820.347 532.18 820.151 535.521 819.954 538.764C822.705 538.47 825.554 538.273 828.305 538.076C826.635 534.932 824.965 531.787 823.393 528.544Z" fill="black"/>
<path d="M864.069 407.864C862.104 404.424 859.942 401.083 857.781 397.84C856.209 401.574 854.637 405.309 853.163 409.043C855.325 412.679 857.388 416.315 859.353 419.951C860.925 415.922 862.497 411.893 864.167 407.864H864.069Z" fill="black"/>
<path d="M831.745 566.477C830.959 563.824 830.271 561.072 829.976 558.222C829.976 558.222 829.976 557.141 829.976 556.65C826.636 556.65 823.393 556.65 820.053 556.453C820.053 557.338 820.053 558.419 820.249 559.303C820.544 561.76 821.035 564.118 821.527 566.379C823.393 566.379 825.26 566.575 827.225 566.575C828.699 566.575 830.271 566.477 831.745 566.379V566.477Z" fill="black"/>
<path d="M855.619 429.385C856.798 426.241 858.075 423.096 859.254 419.951C857.388 416.217 855.324 412.581 853.065 409.043C851.787 412.188 850.51 415.431 849.331 418.575C851.394 422.212 853.458 425.749 855.619 429.385Z" fill="black"/>
<path d="M829.877 556.649C829.583 553.504 829.386 550.261 829.386 546.724C826.144 546.724 822.803 546.822 819.659 546.724C819.659 550.163 819.659 553.504 819.954 556.453C823.196 556.551 826.439 556.649 829.877 556.649Z" fill="black"/>
<path d="M832.628 513.213C833.807 506.039 835.281 498.472 837.148 490.61C834.397 488.154 831.646 485.893 828.895 483.437C827.028 491.004 825.456 498.374 824.179 505.351C827.028 507.907 829.877 510.56 832.628 513.213Z" fill="black"/>
<path d="M1041.81 265.958C1038.76 263.6 1035.71 261.339 1032.57 259.079C994.744 273.624 958.784 292.59 925.477 315.783L932.845 322.564C966.644 299.273 1003.29 280.208 1041.81 265.958Z" fill="black"/>
<path d="M1053.01 262.027C1070.3 256.13 1087.89 251.02 1105.77 246.991C1106.26 246.893 1106.75 246.598 1107.14 246.401C1103.51 243.846 1099.77 241.488 1095.94 239.424C1078.16 243.65 1060.57 248.76 1043.38 254.853C1046.62 257.211 1049.86 259.57 1053.01 262.027Z" fill="black"/>
<path d="M917.42 321.679C912.606 325.217 907.595 328.656 902.879 332.292C897.77 340.449 892.857 348.802 888.239 357.352C899.931 347.131 912.213 337.501 924.789 328.46L917.42 321.679Z" fill="black"/>
<path d="M878.807 352.438C877.529 353.617 877.038 355.288 877.333 356.86C878.414 354.895 879.494 352.929 880.575 350.964C879.986 351.455 879.396 351.947 878.807 352.438Z" fill="black"/>
<path d="M882.147 360.988C883.326 360.988 884.505 360.595 885.39 359.71C886.274 358.924 887.256 358.138 888.239 357.352C892.857 348.802 897.769 340.449 902.878 332.292C895.215 338.287 887.846 344.478 880.575 350.964C879.495 352.929 878.414 354.895 877.333 356.86C877.431 357.745 877.824 358.629 878.414 359.415C879.396 360.496 880.772 361.086 882.049 361.086L882.147 360.988Z" fill="black"/>
<path d="M1109.5 241.193C1108.91 238.539 1106.36 236.869 1103.61 237.458C1101.05 238.048 1098.5 238.834 1095.94 239.424C1099.77 241.487 1103.51 243.846 1107.14 246.401C1108.91 245.32 1109.99 243.256 1109.5 241.193Z" fill="black"/>
<path d="M996.316 394.597L988.358 387.227C950.727 401.968 913.883 418.674 877.923 437.542C879.102 440.687 880.183 443.832 881.263 446.878C918.599 427.125 957.015 409.731 996.316 394.499V394.597Z" fill="black"/>
<path d="M1125.32 343.396C1082.19 354.207 1039.84 367.473 998.478 383.295L1006.53 390.666C1045.93 375.827 1086.12 363.346 1127.09 353.126C1126.5 349.981 1125.91 346.738 1125.42 343.396H1125.32Z" fill="black"/>
<path d="M1176.8 341.726C1176.8 341.726 1177.2 341.529 1177.39 341.529C1176.02 338.483 1174.74 335.436 1173.37 332.488C1163.83 334.454 1154.4 336.616 1144.87 338.876C1145.36 342.217 1145.85 345.46 1146.44 348.605C1156.56 346.247 1166.59 343.888 1176.8 341.824V341.726Z" fill="black"/>
<path d="M1126.99 353.126C1128.95 352.635 1130.92 352.045 1132.88 351.554C1130.53 348.802 1128.07 346.05 1125.61 343.299C1125.52 343.299 1125.42 343.299 1125.32 343.299C1125.81 346.64 1126.4 349.883 1126.99 353.028V353.126Z" fill="black"/>
<path d="M1146.44 348.507C1145.85 345.363 1145.36 342.12 1144.87 338.778C1142.12 339.466 1139.27 339.958 1136.52 340.646C1138.98 343.397 1141.43 346.247 1143.79 349.097C1144.68 348.9 1145.56 348.704 1146.44 348.507Z" fill="black"/>
<path d="M861.612 457.787C859.844 455.035 858.075 452.284 856.307 449.434C853.163 451.104 850.117 452.775 846.973 454.544C845.598 458.868 844.32 463.192 843.043 467.418C843.731 467.418 844.32 467.221 844.91 466.926C850.412 463.781 856.012 460.833 861.514 457.787H861.612Z" fill="black"/>
<path d="M881.263 446.977C880.281 443.832 879.102 440.687 877.923 437.641C874.975 439.213 872.028 440.884 869.08 442.554C870.259 445.699 871.34 448.844 872.322 451.988C875.27 450.416 878.316 448.647 881.263 447.075V446.977Z" fill="black"/>
<path d="M872.322 451.89C871.339 448.746 870.259 445.601 869.08 442.456C867.704 443.242 866.329 444.028 864.953 444.716C866.722 447.468 868.392 450.318 870.259 453.07C870.946 452.676 871.732 452.283 872.42 451.89H872.322Z" fill="black"/>
<path d="M1180.44 338.287C1180.44 338.287 1180.44 337.992 1180.64 337.796C1180.73 337.206 1180.73 336.617 1180.64 335.929C1180.14 333.275 1177.49 331.506 1174.84 332.096C1174.35 332.194 1173.86 332.293 1173.37 332.391C1174.74 335.339 1176.02 338.386 1177.39 341.432C1178.97 340.941 1180.05 339.663 1180.54 338.189L1180.44 338.287Z" fill="black"/>
<path d="M1180.63 337.795C1180.63 337.795 1180.63 338.09 1180.44 338.286C1180.44 338.09 1180.54 337.991 1180.63 337.795Z" fill="black"/>
<path d="M840.096 458.475C837.738 459.851 836.952 462.799 838.327 465.157C839.211 466.73 840.882 467.614 842.552 467.614C842.749 467.614 842.945 467.516 843.142 467.418C844.321 463.192 845.696 458.868 847.072 454.544C844.812 455.821 842.454 457.001 840.096 458.377V458.475Z" fill="black"/>
<path d="M1176.71 475.673C1177.49 471.545 1178.47 467.319 1179.46 463.094C1159.02 473.707 1138.29 483.731 1117.26 493.067L1125.12 500.339C1142.51 492.576 1159.61 484.222 1176.61 475.673H1176.71Z" fill="black"/>
<path d="M1115.3 504.565L1107.44 497.293C1094.57 502.895 1081.6 508.3 1068.53 513.508C1076.78 513.705 1084.94 513.901 1092.99 514.196C1100.46 511.051 1107.93 507.906 1115.4 504.663L1115.3 504.565Z" fill="black"/>
<path d="M927.834 558.812C933.631 558.517 939.428 558.32 945.126 558.222C944.045 557.141 942.965 556.158 941.884 555.077C937.266 556.355 932.55 557.534 927.932 558.812H927.834Z" fill="black"/>
<path d="M959.275 558.124C961.927 558.124 964.482 558.124 967.135 558.124C993.564 550.459 1019.6 542.007 1045.34 532.573C1036.01 532.376 1026.58 532.278 1016.95 532.18C995.726 539.354 974.405 545.938 952.79 551.933C954.952 553.996 957.113 556.06 959.275 558.026V558.124Z" fill="black"/>
<path d="M1070.1 523.335C1077.77 520.387 1085.33 517.242 1093 514.097C1084.94 513.802 1076.78 513.606 1068.53 513.409C1060.28 516.652 1052.02 519.699 1043.77 522.745C1052.71 522.942 1061.46 523.138 1070.1 523.335Z" fill="black"/>
<path d="M1045.44 532.671C1053.69 529.624 1061.95 526.578 1070.1 523.335C1061.46 523.138 1052.71 522.942 1043.77 522.745C1034.93 525.988 1025.99 529.133 1017.05 532.179C1026.68 532.278 1036.21 532.376 1045.44 532.572V532.671Z" fill="black"/>
<path d="M856.012 578.86C855.03 577.68 854.047 576.403 853.065 575.224C847.661 576.206 842.355 577.386 837.05 578.368C838.131 580.137 839.31 581.808 840.587 583.38C845.696 581.71 850.903 580.236 856.111 578.86H856.012Z" fill="black"/>
<path d="M959.274 558.124C959.864 558.714 960.552 559.303 961.141 559.893C963.106 559.303 965.169 558.812 967.135 558.222C964.58 558.222 961.927 558.222 959.274 558.222V558.124Z" fill="black"/>
<path d="M950.138 562.939C948.468 561.366 946.797 559.794 945.127 558.222C939.527 558.32 933.73 558.517 927.835 558.811C906.711 564.216 885.39 568.835 863.873 573.061C864.757 574.142 865.543 575.223 866.526 576.304C887.748 571.685 909.069 569.523 929.309 568.54C936.284 566.771 943.162 564.806 950.138 562.939Z" fill="black"/>
<path d="M856.013 578.859C850.806 580.235 845.697 581.709 840.489 583.38C841.472 584.658 842.553 585.837 843.633 587.016C849.135 586.033 854.539 584.854 860.041 583.871C858.666 582.299 857.388 580.53 856.013 578.859Z" fill="black"/>
<path d="M866.525 576.305C868.097 578.074 869.571 579.941 871.143 581.71C890.695 577.779 910.051 573.455 929.308 568.541C909.068 569.524 887.748 571.686 866.525 576.305Z" fill="black"/>
<path d="M1199.79 463.389C1201.86 462.308 1203.92 461.227 1206.08 460.047C1204.9 457.787 1203.72 455.429 1202.55 453.267C1201.56 456.608 1200.68 460.047 1199.89 463.389H1199.79Z" fill="black"/>
<path d="M1188.2 469.579C1189.18 465.353 1190.17 461.029 1191.34 456.804C1187.41 458.867 1183.48 461.029 1179.55 463.093C1178.57 467.319 1177.59 471.545 1176.8 475.672C1180.64 473.707 1184.47 471.545 1188.3 469.579H1188.2Z" fill="black"/>
<path d="M1202.45 453.168C1202.15 452.578 1201.76 451.89 1201.46 451.301C1198.03 453.168 1194.69 454.937 1191.25 456.706C1190.07 460.932 1189.09 465.256 1188.1 469.481C1192.03 467.418 1195.86 465.354 1199.7 463.29C1200.58 459.949 1201.37 456.509 1202.35 453.168H1202.45Z" fill="black"/>
<path d="M1219.64 447.174C1219.64 447.174 1219.35 446.781 1219.15 446.584C1219.45 448.156 1219.64 449.63 1219.94 451.203C1220.43 449.925 1220.43 448.451 1219.64 447.174Z" fill="black"/>
<path d="M836.952 578.27C836.166 578.368 835.478 578.564 834.692 578.663C832.039 579.154 830.172 581.611 830.664 584.362C830.762 585.05 831.057 585.64 831.45 586.23C834.397 585.149 837.443 584.264 840.39 583.281C839.113 581.611 837.934 579.94 836.853 578.27H836.952Z" fill="black"/>
<path d="M831.548 586.328C832.432 587.704 833.906 588.49 835.576 588.49C835.871 588.49 836.166 588.49 836.362 588.49C838.818 588.097 841.176 587.508 843.633 587.115C842.552 585.935 841.471 584.658 840.489 583.479C837.443 584.461 834.495 585.346 831.548 586.427V586.328Z" fill="black"/>
<path d="M1212.96 445.208C1212.08 445.699 1211.09 446.191 1210.11 446.682C1211.68 449.532 1213.16 452.48 1214.63 455.428C1215.61 454.839 1216.69 454.347 1217.68 453.758C1218.76 453.168 1219.44 452.185 1219.84 451.104C1219.54 449.532 1219.35 448.058 1219.05 446.485C1217.58 444.618 1215.02 444.029 1212.86 445.208H1212.96Z" fill="black"/>
<path d="M1041.51 633.105C1033.36 635.562 1025.3 637.921 1017.05 640.083C1015.67 640.476 1014.69 641.36 1014 642.441C1022.45 643.129 1030.7 643.719 1038.66 644.112C1043.38 642.736 1048 641.262 1052.61 639.788C1048.88 637.626 1045.15 635.366 1041.41 633.105H1041.51Z" fill="black"/>
<path d="M1053.89 628.979C1057.62 631.239 1061.36 633.401 1065.09 635.563C1080.42 630.257 1095.65 624.262 1110.58 617.678L1084.35 617.973C1074.33 621.904 1064.21 625.638 1053.89 628.979Z" fill="black"/>
<path d="M1084.25 617.972L1110.48 617.677C1127.48 610.208 1144.18 601.953 1160.4 592.912C1155.58 591.733 1150.77 590.652 1145.95 589.669C1125.91 600.282 1105.28 609.618 1084.25 617.873V617.972Z" fill="black"/>
<path d="M1169.04 585.149C1168.94 582.987 1168.84 580.334 1168.75 577.091C1165.5 579.056 1162.16 580.825 1158.82 582.692C1162.26 583.479 1165.7 584.363 1169.04 585.247V585.149Z" fill="black"/>
<path d="M1158.82 582.594C1154.6 584.952 1150.28 587.507 1145.95 589.768C1150.86 590.75 1155.68 591.831 1160.4 593.011C1163.34 591.34 1166.29 589.768 1169.24 588.097C1169.24 587.311 1169.14 586.328 1169.04 585.247C1165.6 584.363 1162.26 583.478 1158.82 582.692V582.594Z" fill="black"/>
<path d="M1212.57 560.482C1213.16 558.124 1213.65 555.568 1214.04 552.915C1211.88 556.551 1209.72 560.187 1207.65 563.823C1209.32 562.742 1210.9 561.563 1212.47 560.482H1212.57Z" fill="black"/>
<path d="M1171.2 575.616C1173.66 576.304 1176.12 576.992 1178.57 577.68C1178.57 575.714 1178.47 573.454 1178.38 570.997C1175.92 572.471 1173.56 574.044 1171.1 575.518L1171.2 575.616Z" fill="black"/>
<path d="M1178.67 577.975C1178.67 577.975 1178.67 577.778 1178.67 577.68C1176.21 576.992 1173.76 576.206 1171.3 575.616C1170.52 576.108 1169.63 576.501 1168.85 576.992C1168.94 580.235 1169.04 582.888 1169.14 585.05C1170.32 585.345 1171.6 585.64 1172.78 586.033C1173.66 585.542 1174.64 585.05 1175.53 584.461C1176.51 582.201 1177.69 580.137 1178.77 577.975H1178.67Z" fill="black"/>
<path d="M1169.24 587.999C1170.42 587.311 1171.6 586.721 1172.68 586.034C1171.5 585.739 1170.22 585.444 1169.04 585.051C1169.04 586.23 1169.14 587.115 1169.24 587.901V587.999Z" fill="black"/>
<path d="M1183.68 567.853C1181.91 568.934 1180.24 570.015 1178.47 571.096C1178.47 573.552 1178.47 575.714 1178.67 577.778C1178.67 577.778 1178.67 577.778 1178.77 577.778C1180.34 574.437 1182.01 571.194 1183.68 567.853Z" fill="black"/>
<path d="M1178.67 577.778C1178.67 577.778 1178.67 577.975 1178.67 578.073C1178.67 578.073 1178.67 577.877 1178.77 577.877C1178.77 577.877 1178.77 577.877 1178.67 577.877V577.778Z" fill="black"/>
<path d="M1192.33 562.448L1199.79 569.327C1202.45 567.558 1205.1 565.691 1207.75 563.824C1209.82 560.089 1211.98 556.551 1214.14 552.915C1214.53 550.95 1214.83 548.984 1215.12 546.822C1207.65 552.227 1200.09 557.436 1192.43 562.448H1192.33Z" fill="black"/>
<path d="M1191.15 574.732L1188.3 572.177C1188.3 573.749 1188.3 575.027 1188.4 576.501C1189.28 575.911 1190.17 575.42 1191.15 574.83V574.732Z" fill="black"/>
<path d="M1175.43 584.559C1176.61 583.871 1177.69 583.183 1178.77 582.496C1178.77 581.218 1178.67 579.646 1178.57 578.073C1177.49 580.235 1176.31 582.397 1175.33 584.559H1175.43Z" fill="black"/>
<path d="M1178.77 577.779C1180.54 578.27 1182.21 578.761 1183.98 579.253C1185.45 578.368 1187.02 577.386 1188.5 576.403C1188.5 575.027 1188.5 573.75 1188.4 572.079L1183.78 567.755C1182.11 570.998 1180.44 574.339 1178.87 577.68L1178.77 577.779Z" fill="black"/>
<path d="M1178.67 577.974C1178.67 579.645 1178.77 581.119 1178.87 582.397C1180.63 581.316 1182.31 580.235 1183.98 579.154C1182.31 578.662 1180.54 578.171 1178.77 577.68C1178.77 577.68 1178.77 577.876 1178.67 577.876V577.974Z" fill="black"/>
<path d="M1225.04 546.724C1224.85 548.591 1224.55 550.36 1224.26 552.129C1225.63 550.655 1225.93 548.493 1225.04 546.724Z" fill="black"/>
<path d="M1013.51 645.98C1014.1 648.241 1016.06 649.617 1018.23 649.617C1018.62 649.617 1019.01 649.617 1019.5 649.42C1025.89 647.749 1032.28 645.784 1038.66 643.917C1030.7 643.524 1022.45 642.934 1014 642.246C1013.41 643.327 1013.21 644.605 1013.51 645.882V645.98Z" fill="black"/>
<path d="M1219.05 544.267C1217.28 547.117 1215.71 549.967 1214.04 552.915C1213.55 555.568 1213.16 558.124 1212.57 560.482C1216.2 557.927 1219.94 555.47 1223.57 552.817C1223.87 552.62 1223.96 552.325 1224.16 552.129C1224.46 550.36 1224.75 548.591 1224.95 546.724C1224.85 546.429 1224.75 546.233 1224.65 545.938C1223.38 544.169 1221.12 543.579 1219.05 544.267Z" fill="black"/>
<path d="M1215.02 546.823C1214.73 548.985 1214.43 550.95 1214.04 552.916C1215.71 550.066 1217.28 547.117 1219.05 544.268C1218.56 544.464 1218.17 544.562 1217.77 544.857C1216.89 545.545 1215.91 546.135 1215.02 546.724V546.823Z" fill="black"/>
<path d="M1184.27 403.54L1183.19 403.737C1182.31 407.766 1181.52 411.795 1180.64 415.922C1183.58 420.541 1186.43 425.258 1189.28 429.976C1190.66 426.143 1192.23 422.31 1193.8 418.576C1190.66 413.564 1187.51 408.552 1184.27 403.54Z" fill="black"/>
<path d="M1043.38 254.853C1032.96 247.187 1022.25 239.817 1011.25 232.741C1007.52 234.019 1003.78 235.493 1000.05 237.163C1011.15 244.043 1022.06 251.413 1032.67 258.98C1036.3 257.604 1039.84 256.032 1043.48 254.754L1043.38 254.853Z" fill="black"/>
<path d="M1125.22 342.808C1124.44 337.403 1123.65 331.801 1123.16 325.905C1101.54 302.811 1078.16 281.387 1053.01 262.027C1049.27 263.305 1045.54 264.582 1041.81 265.958C1072.17 288.758 1100.07 314.505 1125.22 342.808Z" fill="black"/>
<path d="M1168.45 380.643C1161.67 371.405 1154.7 362.364 1147.43 353.52C1149.1 361.873 1150.96 369.44 1152.83 376.122C1157.15 381.724 1161.28 387.424 1165.41 393.222C1166.39 388.996 1167.47 384.869 1168.55 380.643H1168.45Z" fill="black"/>
<path d="M1184.27 403.541C1184.27 403.541 1183.78 402.754 1183.48 402.361C1183.39 402.853 1183.29 403.344 1183.19 403.737L1184.27 403.541Z" fill="black"/>
<path d="M1138.09 357.646C1137.6 355.386 1137.21 353.027 1136.72 350.669C1135.44 350.964 1134.16 351.259 1132.98 351.553C1134.75 353.617 1136.42 355.681 1138.09 357.745V357.646Z" fill="black"/>
<path d="M1125.71 343.299C1128.86 342.512 1132 341.726 1135.15 340.94C1135.05 340.154 1134.95 339.466 1134.85 338.68C1131.02 334.356 1127.19 330.13 1123.26 325.904C1123.85 331.702 1124.53 337.402 1125.32 342.807C1125.42 343.004 1125.61 343.102 1125.71 343.299Z" fill="black"/>
<path d="M1136.42 340.645C1135.83 339.957 1135.24 339.368 1134.75 338.68C1134.85 339.466 1134.95 340.154 1135.05 340.94C1135.54 340.842 1135.93 340.743 1136.42 340.645Z" fill="black"/>
<path d="M1152.73 376.122C1150.87 369.439 1149 361.872 1147.33 353.519C1146.15 352.045 1144.87 350.571 1143.69 349.097C1141.34 349.686 1138.98 350.079 1136.62 350.669C1137.01 353.028 1137.5 355.386 1137.99 357.646C1143.01 363.739 1147.92 369.832 1152.73 376.122Z" fill="black"/>
<path d="M1173.95 405.8C1176.21 409.141 1178.47 412.581 1180.64 415.922C1181.42 411.893 1182.31 407.766 1183.19 403.736L1173.95 405.702V405.8Z" fill="black"/>
<path d="M1173.95 405.801L1183.19 403.835C1183.19 403.835 1183.39 402.853 1183.49 402.46C1178.57 395.089 1173.66 387.817 1168.45 380.741C1167.37 384.967 1166.29 389.094 1165.31 393.32C1168.26 397.448 1171.11 401.673 1173.95 405.899V405.801Z" fill="black"/>
<path d="M1206.08 460.047C1207.56 462.897 1209.13 465.747 1210.5 468.597C1211.09 469.678 1211.98 470.366 1213.06 470.759C1212.47 466.336 1211.78 461.816 1211 457.394C1209.32 458.278 1207.65 459.162 1205.98 460.047H1206.08Z" fill="black"/>
<path d="M1203.33 450.417C1205.3 449.336 1207.36 448.353 1209.32 447.272C1209.13 446.191 1208.93 445.11 1208.64 444.029C1207.95 442.85 1207.26 441.67 1206.57 440.491C1205.39 443.832 1204.31 447.076 1203.23 450.515L1203.33 450.417Z" fill="black"/>
<path d="M1200.29 429.091C1198.22 425.554 1196.06 422.114 1193.9 418.576C1192.33 422.311 1190.76 426.143 1189.38 429.976C1191.64 433.71 1193.8 437.543 1195.96 441.376C1197.34 437.248 1198.71 433.121 1200.29 429.091Z" fill="black"/>
<path d="M1203.33 450.416C1204.31 447.075 1205.49 443.733 1206.67 440.392C1204.61 436.658 1202.45 432.825 1200.29 429.091C1198.71 433.12 1197.24 437.247 1195.96 441.375C1197.83 444.716 1199.79 448.058 1201.56 451.399C1202.15 451.104 1202.74 450.809 1203.43 450.416H1203.33Z" fill="black"/>
<path d="M1004.86 228.614C1002.6 227.238 999.558 227.926 998.084 230.186C996.61 232.446 997.396 235.493 999.656 236.967C999.754 236.967 999.852 237.065 999.951 237.163C1003.68 235.493 1007.42 234.019 1011.15 232.741C1008.99 231.365 1006.93 229.989 1004.76 228.614H1004.86Z" fill="black"/>
<path d="M1213.06 470.857C1213.65 471.152 1214.24 471.348 1214.92 471.348C1215.71 471.348 1216.4 471.152 1217.09 470.857C1219.54 469.678 1220.53 466.729 1219.25 464.273C1217.77 461.324 1216.2 458.376 1214.63 455.526C1213.45 456.214 1212.17 456.804 1210.9 457.492C1211.58 462.012 1212.37 466.533 1212.96 470.857H1213.06Z" fill="black"/>
<path d="M1210.21 446.78C1209.72 445.895 1209.13 444.913 1208.64 444.028C1208.83 445.109 1209.13 446.19 1209.32 447.271C1209.62 447.075 1209.91 446.977 1210.21 446.78Z" fill="black"/>
<path d="M1053.01 262.026C1049.86 259.57 1046.62 257.211 1043.38 254.853C1039.74 256.13 1036.21 257.702 1032.57 259.078C1035.71 261.339 1038.76 263.697 1041.81 265.957C1045.54 264.582 1049.27 263.304 1053.01 262.026Z" fill="black"/>
<path d="M1136.72 350.669C1136.13 347.525 1135.64 344.282 1135.15 340.94C1132 341.727 1128.86 342.513 1125.71 343.299C1128.17 346.051 1130.63 348.802 1132.98 351.554C1134.26 351.259 1135.54 350.964 1136.72 350.669Z" fill="black"/>
<path d="M1136.72 350.669C1139.07 350.08 1141.43 349.687 1143.79 349.097C1141.43 346.247 1138.98 343.495 1136.52 340.646C1136.03 340.744 1135.64 340.842 1135.14 340.94C1135.64 344.282 1136.23 347.525 1136.72 350.669Z" fill="black"/>
<path d="M1206.08 460.048C1207.75 459.163 1209.42 458.279 1211.09 457.394C1210.5 453.955 1210.01 450.613 1209.42 447.174C1207.46 448.255 1205.39 449.238 1203.43 450.319C1203.13 451.301 1202.84 452.186 1202.54 453.168C1203.72 455.429 1204.9 457.689 1206.08 459.949V460.048Z" fill="black"/>
<path d="M1202.45 453.168C1202.74 452.186 1203.04 451.301 1203.33 450.318C1202.74 450.613 1202.15 450.908 1201.46 451.301C1201.76 451.891 1202.15 452.579 1202.45 453.168Z" fill="black"/>
<path d="M1211 457.393C1212.27 456.705 1213.45 456.116 1214.73 455.428C1213.26 452.48 1211.78 449.63 1210.21 446.682C1209.91 446.878 1209.62 446.976 1209.33 447.173C1209.91 450.613 1210.5 453.954 1211 457.393Z" fill="black"/>
<path d="M925.476 315.782L918.598 309.395C916.633 312.048 914.668 314.603 912.703 317.355L917.419 321.679C920.072 319.713 922.725 317.649 925.476 315.782Z" fill="black"/>
<path d="M1117.26 493.067L1006.44 390.666C1003 391.944 999.656 393.418 996.315 394.695L1107.34 497.292C1110.68 495.818 1113.92 494.541 1117.26 493.067Z" fill="black"/>
<path d="M1142.12 515.964L1125.12 500.339C1121.88 501.813 1118.54 503.091 1115.2 504.565L1126.89 515.375C1132 515.571 1137.11 515.866 1142.12 516.063V515.964Z" fill="black"/>
<path d="M932.845 322.563C930.094 324.431 927.441 326.494 924.788 328.46L988.357 387.227C991.697 385.851 995.038 384.476 998.477 383.198L932.845 322.563Z" fill="black"/>
<path d="M1169.04 540.827L1164.72 536.897C1159.61 536.602 1154.5 536.307 1149.39 536.11L1168.65 553.898C1168.65 549.77 1168.85 545.446 1169.04 540.926V540.827Z" fill="black"/>
<path d="M1142.12 515.964C1137.11 515.768 1132 515.473 1126.89 515.276L1138.09 525.693C1143.3 525.89 1148.31 526.185 1153.42 526.479L1142.12 515.964Z" fill="black"/>
<path d="M1153.42 526.48C1148.31 526.185 1143.3 525.988 1138.09 525.693L1149.29 536.11C1154.5 536.405 1159.61 536.602 1164.62 536.897L1153.32 526.48H1153.42Z" fill="black"/>
<path d="M1199.79 579.449C1201.96 579.351 1204.31 579.154 1206.77 579.056C1207.06 578.27 1207.36 577.484 1207.65 576.599L1203.23 572.472C1202.05 574.732 1200.97 577.091 1199.79 579.449Z" fill="black"/>
<path d="M1168.65 553.898L1178.47 562.939C1178.47 558.91 1178.47 554.487 1178.67 549.77L1169.04 540.926C1168.84 545.446 1168.75 549.869 1168.65 553.898Z" fill="black"/>
<path d="M1198.71 581.71L1202.94 585.542C1202.94 585.542 1203.82 585.837 1204.22 585.935C1205.1 583.773 1205.98 581.317 1206.87 578.958C1204.41 579.155 1202.05 579.253 1199.89 579.351C1199.5 580.137 1199.21 580.825 1198.81 581.611L1198.71 581.71Z" fill="black"/>
<path d="M1183.68 567.853C1185.25 564.806 1186.63 561.662 1188.2 558.615L1178.67 549.771C1178.57 554.488 1178.47 558.91 1178.47 562.939L1183.68 567.755V567.853Z" fill="black"/>
<path d="M1203.92 586.525C1203.92 586.525 1204.12 586.23 1204.12 586.034C1203.72 585.837 1203.33 585.739 1202.84 585.641L1203.82 586.525H1203.92Z" fill="black"/>
<path d="M1188.3 564.905C1189.67 564.02 1191.05 563.234 1192.33 562.35L1188.3 558.615C1188.3 560.777 1188.3 562.841 1188.3 564.806V564.905Z" fill="black"/>
<path d="M1196.45 579.646C1197.53 579.646 1198.62 579.548 1199.79 579.449C1200.97 577.091 1202.05 574.732 1203.23 572.472L1199.79 569.327C1196.95 571.194 1194 572.963 1191.15 574.732L1196.45 579.646Z" fill="black"/>
<path d="M1198.71 581.709C1199.11 580.923 1199.4 580.235 1199.79 579.449C1198.62 579.449 1197.53 579.547 1196.45 579.646L1198.71 581.709Z" fill="black"/>
<path d="M1183.68 567.853C1185.25 566.87 1186.73 565.985 1188.3 565.003C1188.3 563.037 1188.3 560.974 1188.3 558.812H1188.2C1186.63 561.661 1185.15 564.806 1183.68 567.853Z" fill="black"/>
<path d="M906.513 304.874C905.138 306.447 904.843 308.609 905.727 310.378C907.398 308.019 908.97 305.759 910.64 303.4C909.166 303.302 907.594 303.695 906.513 304.874Z" fill="black"/>
<path d="M1214.73 585.738C1214.34 586.623 1214.04 587.507 1213.75 588.392C1214.34 587.605 1214.73 586.721 1214.73 585.738Z" fill="black"/>
<path d="M912.703 317.355C914.57 314.603 916.633 312.048 918.598 309.394L913.489 304.677C912.703 303.891 911.623 303.596 910.64 303.498C908.97 305.758 907.398 308.117 905.728 310.475C906.022 310.967 906.317 311.556 906.808 311.95L912.802 317.453L912.703 317.355Z" fill="black"/>
<path d="M1210.11 578.859L1207.75 576.697C1207.46 577.582 1207.16 578.27 1206.87 579.154C1207.95 579.154 1209.03 579.056 1210.11 578.958V578.859Z" fill="black"/>
<path d="M1213.45 588.687C1213.45 588.687 1213.45 588.49 1213.55 588.49C1212.47 588.49 1211.49 588.687 1210.41 588.785C1210.99 589.08 1211.68 589.276 1212.27 589.571C1212.67 589.375 1213.06 589.08 1213.45 588.785V588.687Z" fill="black"/>
<path d="M1209.91 590.259C1210.8 590.259 1211.59 589.964 1212.37 589.473C1211.78 589.178 1211.09 588.981 1210.5 588.687C1209.13 588.785 1207.85 588.883 1206.57 588.981C1207.56 589.866 1208.74 590.259 1209.91 590.259Z" fill="black"/>
<path d="M1213.25 581.709L1210.11 578.761C1208.93 578.761 1207.95 578.957 1206.87 578.957C1205.98 581.316 1205.1 583.773 1204.22 585.935C1206.38 586.721 1208.44 587.704 1210.6 588.588C1211.68 588.588 1212.67 588.392 1213.75 588.293C1214.14 587.409 1214.43 586.524 1214.73 585.64C1214.83 584.166 1214.34 582.692 1213.25 581.709Z" fill="black"/>
<path d="M1206.57 588.981C1207.85 588.981 1209.13 588.785 1210.5 588.687C1208.34 587.802 1206.38 586.819 1204.12 586.033C1204.12 586.23 1203.92 586.328 1203.92 586.525L1206.57 588.981Z" fill="black"/>
<path d="M925.477 315.782C922.725 317.649 920.073 319.713 917.42 321.679L924.789 328.459C927.54 326.494 930.094 324.43 932.845 322.563L925.477 315.782Z" fill="black"/>
<path d="M1006.53 390.568L998.477 383.197C995.137 384.475 991.796 385.949 988.357 387.226L996.316 394.597C999.656 393.319 1003 391.845 1006.44 390.568H1006.53Z" fill="black"/>
<path d="M1125.22 500.339L1117.36 493.066C1114.12 494.541 1110.78 495.818 1107.44 497.292L1115.3 504.564C1118.54 503.09 1121.98 501.813 1125.22 500.339Z" fill="black"/>
<path d="M1188.4 572.176L1191.25 574.731C1194.1 572.962 1197.04 571.194 1199.89 569.326L1192.43 562.447C1191.05 563.332 1189.77 564.118 1188.4 565.002C1188.4 567.557 1188.4 570.014 1188.4 572.176Z" fill="black"/>
<path d="M1188.3 564.904C1186.73 565.887 1185.25 566.87 1183.68 567.754L1188.3 572.078C1188.3 569.916 1188.3 567.459 1188.3 564.904Z" fill="black"/>
<path d="M903.271 513.606C907.398 513.41 911.623 513.311 915.847 513.213C906.906 502.894 898.26 492.281 890.105 481.274C891.383 488.252 892.464 494.934 893.25 501.322C896.59 505.45 899.931 509.577 903.271 513.606Z" fill="black"/>
<path d="M933.238 532.475C928.817 532.475 924.494 532.671 920.171 532.868C927.147 540.435 934.319 548.002 941.786 555.176C945.52 554.193 949.155 553.112 952.79 552.031C946.109 545.643 939.526 539.157 933.238 532.475Z" fill="black"/>
<path d="M911.525 523.237C915.75 523.138 920.171 523.04 924.494 522.844C921.645 519.699 918.796 516.456 915.946 513.213C911.722 513.311 907.497 513.508 903.37 513.606C906.121 516.849 908.774 519.994 911.525 523.138V523.237Z" fill="black"/>
<path d="M933.239 532.475C930.193 529.33 927.343 526.087 924.396 522.844C920.073 522.942 915.75 523.04 911.427 523.237C914.276 526.48 917.224 529.625 920.171 532.868C924.494 532.769 928.817 532.573 933.239 532.475Z" fill="black"/>
<path d="M1065.09 635.562C1060.97 637.037 1056.84 638.412 1052.71 639.788C1055.66 641.459 1058.61 643.228 1061.55 644.898C1068.63 644.997 1075.31 644.898 1081.4 644.898C1081.11 644.604 1080.71 644.211 1080.32 644.014C1075.21 641.361 1070.2 638.511 1065.19 635.759L1065.09 635.562Z" fill="black"/>
<path d="M1036.99 618.562L1019.5 618.759C1026.77 623.673 1034.04 628.488 1041.51 633.107C1045.64 631.829 1049.76 630.454 1053.89 629.078C1048.19 625.638 1042.59 622.199 1036.99 618.562Z" fill="black"/>
<path d="M982.069 578.073C977.156 577.975 971.949 577.877 966.644 577.778C983.445 592.421 1001.13 606.081 1019.5 618.66L1036.99 618.463C1017.93 606.081 999.558 592.618 981.971 577.975L982.069 578.073Z" fill="black"/>
<path d="M970.377 568.049C967.331 565.396 964.285 562.644 961.24 559.893C957.604 560.974 953.871 561.956 950.235 563.037C952.004 564.708 953.772 566.379 955.541 568.049C960.65 568.049 965.563 568.049 970.475 568.049H970.377Z" fill="black"/>
<path d="M970.378 568.05C965.563 568.05 960.552 567.951 955.443 568.05C959.079 571.391 962.911 574.634 966.644 577.975C971.95 577.975 977.059 578.073 982.07 578.27C978.139 575.027 974.209 571.587 970.378 568.246V568.05Z" fill="black"/>
<path d="M856.308 449.532C857.585 448.844 858.862 448.058 860.238 447.37C858.469 442.456 856.504 437.641 854.343 432.825C853.262 435.773 852.279 438.623 851.297 441.571C852.869 444.225 854.637 446.878 856.308 449.532Z" fill="black"/>
<path d="M863.48 456.804C862.891 457.197 862.203 457.492 861.613 457.885C862.792 459.752 864.07 461.619 865.347 463.388C864.757 461.226 864.168 458.966 863.48 456.804Z" fill="black"/>
<path d="M890.106 481.274C884.801 474.199 879.691 466.927 874.681 459.654C877.137 468.302 879.102 476.754 880.576 484.91C884.702 490.414 888.927 495.917 893.152 501.322C892.366 495.033 891.383 488.252 890.008 481.274H890.106Z" fill="black"/>
<path d="M860.237 447.37C861.809 446.486 863.381 445.601 864.953 444.815C861.711 439.705 858.665 434.595 855.619 429.484C855.226 430.664 854.833 431.745 854.342 432.924C856.503 437.739 858.468 442.555 860.237 447.468V447.37Z" fill="black"/>
<path d="M880.575 485.008C879.101 476.852 877.136 468.4 874.68 459.752C873.206 457.59 871.634 455.33 870.16 453.168C867.9 454.347 865.641 455.625 863.381 456.902C864.069 459.064 864.658 461.325 865.248 463.487C870.16 470.759 875.269 478.031 880.575 485.107V485.008Z" fill="black"/>
<path d="M842.552 416.611C840.194 417.888 839.31 420.935 840.685 423.293C842.061 425.75 843.436 428.109 844.812 430.467C845.991 427.322 847.17 424.079 848.349 420.935C847.465 419.362 846.58 417.692 845.696 416.119C844.615 415.923 843.535 416.119 842.552 416.611Z" fill="black"/>
<path d="M849.331 418.576C848.545 417.201 847.268 416.414 845.794 416.218C846.776 417.79 847.562 419.461 848.447 421.033C848.741 420.247 849.036 419.461 849.331 418.675V418.576Z" fill="black"/>
<path d="M1061.55 644.801C1066.27 647.454 1070.89 650.108 1075.7 652.564C1076.39 652.957 1077.18 653.154 1077.96 653.154C1079.73 653.154 1081.4 652.171 1082.29 650.501C1083.37 648.535 1082.87 646.275 1081.3 644.801C1075.21 644.899 1068.63 644.997 1061.46 644.801H1061.55Z" fill="black"/>
<path d="M854.342 432.826C852.574 428.797 850.51 424.866 848.447 421.033C847.268 424.178 845.991 427.421 844.91 430.566C847.072 434.3 849.135 438.034 851.395 441.671C852.377 438.722 853.36 435.872 854.441 432.924L854.342 432.826Z" fill="black"/>
<path d="M854.342 432.826C854.735 431.646 855.128 430.565 855.62 429.386C853.556 425.75 851.395 422.212 849.332 418.576C849.037 419.362 848.742 420.149 848.447 420.935C850.609 424.866 852.574 428.797 854.342 432.727V432.826Z" fill="black"/>
<path d="M861.613 457.787C862.203 457.394 862.89 457.099 863.48 456.706C862.497 453.561 861.318 450.416 860.238 447.271C858.96 447.959 857.683 448.647 856.308 449.434C858.076 452.185 859.746 455.035 861.613 457.787Z" fill="black"/>
<path d="M870.16 453.07C868.392 450.318 866.623 447.567 864.855 444.717C863.283 445.601 861.711 446.486 860.139 447.272C861.318 450.417 862.398 453.561 863.381 456.706C865.641 455.429 867.901 454.249 870.16 452.972V453.07Z" fill="black"/>
<path d="M959.275 558.123C957.113 556.158 954.952 554.094 952.79 552.03C949.155 553.013 945.421 554.192 941.786 555.175C942.867 556.256 943.948 557.239 945.028 558.32C949.843 558.32 954.559 558.221 959.275 558.221V558.123Z" fill="black"/>
<path d="M959.275 558.124C954.657 558.124 949.941 558.124 945.028 558.222C946.699 559.794 948.369 561.367 950.039 562.939C953.674 561.956 957.408 560.875 961.043 559.794C960.454 559.205 959.766 558.615 959.177 558.025L959.275 558.124Z" fill="black"/>
<path d="M1041.51 633.106C1045.25 635.366 1048.98 637.627 1052.71 639.789C1056.84 638.413 1060.97 637.037 1065.09 635.563C1061.36 633.401 1057.62 631.239 1053.89 628.979C1049.76 630.354 1045.64 631.73 1041.51 633.008V633.106Z" fill="black"/>
<path d="M857.093 564.609C853.261 565.101 849.528 565.396 845.893 565.789C846.973 567.361 848.054 568.933 849.233 570.506C852.77 569.523 856.209 568.737 859.746 567.951C858.862 566.87 857.977 565.789 857.191 564.708L857.093 564.609Z" fill="black"/>
<path d="M899.145 620.036C907.496 622.984 916.339 625.637 925.476 627.996C921.349 625.343 917.321 622.689 913.391 619.938L899.145 620.134V620.036Z" fill="black"/>
<path d="M913.391 619.937C899.144 609.618 886.077 597.826 874.09 584.854C870.357 585.541 866.623 586.426 862.89 587.31C873.01 598.808 884.21 609.324 896.099 618.954C897.081 619.347 898.064 619.74 899.046 620.035L913.293 619.839L913.391 619.937Z" fill="black"/>
<path d="M859.648 567.853C856.111 568.639 852.672 569.523 849.135 570.408C850.412 572.078 851.689 573.552 852.967 575.223C856.602 574.535 860.237 573.847 863.872 573.159C862.399 571.39 861.023 569.621 859.648 567.853Z" fill="black"/>
<path d="M871.143 581.709C867.409 582.495 863.676 583.183 859.942 583.871C860.925 585.05 861.907 586.131 862.89 587.311C866.623 586.426 870.357 585.64 874.091 584.854C873.108 583.773 872.126 582.79 871.143 581.709Z" fill="black"/>
<path d="M839.211 537.093C836.067 537.388 832.923 537.584 829.878 537.879C829.878 538.763 829.878 539.55 829.779 540.336C830.958 542.498 832.236 544.562 833.415 546.625C837.05 546.527 840.685 546.232 844.321 545.937C842.552 543.087 840.882 540.041 839.211 537.093Z" fill="black"/>
<path d="M831.253 522.155C830.958 524.121 830.86 525.988 830.565 527.855C831.646 527.855 832.727 527.659 833.808 527.56C832.923 525.791 832.039 523.924 831.155 522.155H831.253Z" fill="black"/>
<path d="M839.211 537.093C837.443 533.948 835.576 530.804 833.906 527.561C832.825 527.561 831.744 527.757 830.664 527.855C830.271 531.295 829.976 534.636 829.779 537.879C832.825 537.584 835.969 537.388 839.113 537.093H839.211Z" fill="black"/>
<path d="M850.609 555.273C846.777 555.667 843.043 555.961 839.31 556.256C841.373 559.499 843.534 562.644 845.794 565.69C849.528 565.396 853.261 565.101 856.995 564.511C854.735 561.465 852.672 558.32 850.51 555.273H850.609Z" fill="black"/>
<path d="M844.321 545.938C840.686 546.233 836.952 546.528 833.415 546.626C835.38 549.869 837.345 553.014 839.408 556.159C843.142 555.962 846.875 555.667 850.707 555.176C848.546 552.129 846.384 548.985 844.419 545.84L844.321 545.938Z" fill="black"/>
<path d="M924.002 638.904C924.788 639.396 925.672 639.592 926.557 639.592C927.146 639.592 927.637 639.396 928.227 639.199C926.164 638.708 924.1 638.118 922.037 637.627C922.725 638.02 923.314 638.511 924.002 638.904Z" fill="black"/>
<path d="M823.393 509.577C822.312 509.282 821.133 509.184 820.053 509.675C817.596 510.756 816.417 513.606 817.498 516.161C817.891 517.144 818.382 518.028 818.873 518.913C819.856 518.913 821.035 518.716 822.018 518.618C822.411 515.67 822.902 512.623 823.393 509.478V509.577Z" fill="black"/>
<path d="M818.873 518.912C819.659 520.583 820.543 522.254 821.329 524.023C821.526 522.254 821.821 520.485 822.017 518.716C821.035 518.716 819.856 518.912 818.873 519.011V518.912Z" fill="black"/>
<path d="M929.21 630.452C927.933 629.666 926.754 628.781 925.575 627.995C916.437 625.637 907.595 622.983 899.243 620.035H897.77C905.63 626.325 913.785 632.221 922.234 637.528C924.297 638.019 926.361 638.609 928.424 639.1C929.406 638.707 930.389 638.117 930.979 637.135C932.354 634.776 931.666 631.828 929.407 630.354L929.21 630.452Z" fill="black"/>
<path d="M896.197 618.955C896.197 618.955 897.18 619.741 897.671 620.036H899.145C898.162 619.643 897.18 619.25 896.197 618.955Z" fill="black"/>
<path d="M829.288 518.127C828.404 516.161 827.323 514.294 826.439 512.231C825.849 510.855 824.67 509.97 823.294 509.577C822.705 512.722 822.312 515.768 821.919 518.717C824.277 518.52 826.832 518.323 829.288 518.127Z" fill="black"/>
<path d="M828.306 537.978C828.699 538.764 829.19 539.551 829.681 540.337C829.681 539.551 829.681 538.666 829.779 537.88C829.288 537.88 828.797 537.88 828.306 537.978Z" fill="black"/>
<path d="M830.664 527.954C830.86 526.087 831.057 524.22 831.352 522.254C830.664 520.879 829.976 519.503 829.387 518.127C826.93 518.323 824.474 518.52 822.018 518.717C821.723 520.485 821.527 522.254 821.33 524.023C822.018 525.497 822.706 527.07 823.492 528.544C825.85 528.347 828.306 528.151 830.762 527.954H830.664Z" fill="black"/>
<path d="M830.663 527.954C828.305 528.151 825.849 528.347 823.393 528.544C824.965 531.787 826.537 534.931 828.305 538.076C828.796 538.076 829.288 538.076 829.779 537.978C829.975 534.833 830.27 531.492 830.663 527.954Z" fill="black"/>
<path d="M863.971 573.061C860.336 573.749 856.701 574.437 853.065 575.125C854.048 576.402 855.03 577.582 856.013 578.761C859.55 577.877 863.087 576.992 866.526 576.206C865.642 575.125 864.757 574.044 863.873 572.963L863.971 573.061Z" fill="black"/>
<path d="M866.526 576.305C862.989 577.091 859.451 577.975 856.013 578.86C857.388 580.53 858.665 582.201 860.041 583.872C863.775 583.184 867.508 582.496 871.242 581.71C869.67 579.941 868.098 578.172 866.624 576.305H866.526Z" fill="black"/>
<path d="M798.339 1047.92C769.551 1047.92 746.266 1071.21 746.266 1100C746.266 1128.79 769.551 1152.09 798.339 1152.09C827.127 1152.09 850.412 1128.79 850.412 1100C850.412 1071.21 827.127 1047.92 798.339 1047.92ZM783.012 1105.8C774.562 1105.8 767.783 1099.02 767.783 1090.57C767.783 1082.12 774.562 1075.33 783.012 1075.33C791.461 1075.33 798.241 1082.12 798.241 1090.57C798.241 1099.02 791.461 1105.8 783.012 1105.8Z" fill="black"/>
<path d="M1230.65 1099.61C1230.65 1070.81 1207.36 1047.52 1178.57 1047.52C1149.78 1047.52 1126.5 1070.81 1126.5 1099.61C1126.5 1128.4 1149.78 1151.69 1178.57 1151.69C1207.36 1151.69 1230.65 1128.4 1230.65 1099.61ZM1163.34 1105.5C1154.89 1105.5 1148.11 1098.72 1148.11 1090.27C1148.11 1081.82 1154.89 1075.04 1163.34 1075.04C1171.79 1075.04 1178.57 1081.82 1178.57 1090.27C1178.57 1098.72 1171.79 1105.5 1163.34 1105.5Z" fill="black"/>
<path d="M1234.77 1158.96C1187.71 1158.96 1150.77 1179.6 1150.77 1205.94C1150.77 1232.28 1187.71 1252.91 1234.77 1252.91C1281.83 1252.91 1318.78 1232.28 1318.78 1205.94C1318.78 1179.6 1281.83 1158.96 1234.77 1158.96ZM1234.77 1243.09C1194.59 1243.09 1160.59 1226.09 1160.59 1205.94C1160.59 1185.79 1194.59 1168.79 1234.77 1168.79C1274.96 1168.79 1308.95 1185.79 1308.95 1205.94C1308.95 1226.09 1274.96 1243.09 1234.77 1243.09Z" fill="black"/>
<path d="M755.6 1161.13C708.537 1161.13 671.595 1181.76 671.595 1208.1C671.595 1234.44 708.537 1255.08 755.6 1255.08C802.662 1255.08 839.605 1234.44 839.605 1208.1C839.605 1181.76 802.662 1161.13 755.6 1161.13ZM755.6 1245.25C715.415 1245.25 681.42 1228.25 681.42 1208.1C681.42 1187.96 715.415 1170.95 755.6 1170.95C795.785 1170.95 829.78 1187.96 829.78 1208.1C829.78 1228.25 795.785 1245.25 755.6 1245.25Z" fill="black"/>
<path d="M1045.54 1190.61C1055.36 1180.49 1061.75 1167.51 1062.93 1154.05C1065.09 1130.76 1051.63 1108.06 1030.9 1099.9C1008.6 1090.96 981.087 1101.97 972.146 1123.39C970.082 1128.4 972.441 1134.2 977.451 1136.26C978.729 1136.76 980.104 1137.05 981.381 1137.05V1127.22C988.357 1110.32 1010.37 1102.26 1027.36 1109.04C1044.36 1115.72 1054.87 1134.99 1053.2 1153.17C1051.53 1171.35 1038.76 1187.66 1022.25 1195.52C1040.23 1193.36 1057.82 1208.4 1060.28 1226.28C1062.83 1244.17 1051.63 1262.54 1035.32 1270.41C1019.01 1278.27 998.968 1276.4 983.248 1267.46V1257.83C979.711 1257.83 976.469 1259.5 974.7 1262.64C972.048 1267.36 973.62 1273.35 978.434 1276.01C989.143 1282.1 1001.13 1285.15 1012.92 1285.15C1022.25 1285.15 1031.49 1283.18 1039.64 1279.25C1060.38 1269.33 1073.15 1246.43 1070.1 1224.91C1068.04 1210.07 1058.31 1197.39 1045.64 1190.61H1045.54Z" fill="black"/>
<path d="M1035.32 1270.41C1051.63 1262.55 1062.83 1244.17 1060.28 1226.28C1057.82 1208.4 1040.23 1193.36 1022.25 1195.52C1038.76 1187.66 1051.53 1171.35 1053.2 1153.17C1054.87 1134.99 1044.36 1115.73 1027.36 1109.04C1010.37 1102.26 988.357 1110.32 981.283 1127.22V1137.05C985.213 1137.05 988.75 1134.79 990.322 1131.06C995.137 1119.56 1011.45 1113.27 1023.73 1118.18C1036.3 1123.1 1044.75 1137.74 1043.38 1152.28C1042.1 1166.43 1032.08 1179.9 1018.03 1186.68C1013.71 1188.74 1011.45 1193.66 1012.82 1198.28C1014.2 1202.89 1018.72 1205.84 1023.43 1205.25C1035.62 1203.78 1048.78 1214.69 1050.55 1227.66C1052.42 1240.73 1044.07 1255.27 1031.1 1261.56C1018.32 1267.75 1001.82 1266.77 988.161 1258.91C986.589 1258.03 984.82 1257.73 983.15 1257.83V1267.46C998.968 1276.4 1019.01 1278.27 1035.32 1270.41Z" fill="black"/>
</g>
<defs>
<clipPath id="clip0_157_249">
<rect width="1062" height="1895" fill="white" transform="translate(469 53)"/>
</clipPath>
</defs>
</svg>
