<svg width="2000" height="2000" viewBox="0 0 2000 2000" fill="none" xmlns="http://www.w3.org/2000/svg">
<g clip-path="url(#clip0_157_250)">
<path d="M1153.02 220.462C1197.12 175.414 1261.99 159.234 1330.09 149.441C1331.03 188.613 1331.88 228.211 1322.85 266.362C1313.83 304.512 1293.83 341.47 1261.05 362.845C1233.55 380.728 1200.69 385.667 1167.75 381.068C1167.41 383.878 1166.98 386.689 1166.47 389.499C1174.47 390.606 1182.39 391.202 1190.14 391.202C1217.89 391.202 1243.85 384.134 1265.65 369.913C1297.23 349.305 1320.47 313.198 1331.11 268.235C1340.48 228.637 1339.54 188.273 1338.6 149.186C1338.6 146.716 1337.41 144.417 1335.62 142.884C1333.75 141.351 1331.37 140.585 1328.9 140.926C1265.56 150.037 1194.48 165.877 1146.98 214.416C1137.53 224.039 1129.35 234.769 1122.46 246.35C1123.48 250.352 1124.59 254.355 1125.52 258.272C1132.84 244.391 1142.04 231.618 1153.02 220.377V220.462Z" fill="black"/>
<path d="M1159.15 226.423C1200.78 183.845 1263.86 168.176 1321.83 159.32C1322.6 194.319 1322.69 230.17 1314.6 264.403C1304.98 305.108 1284.29 337.553 1256.45 355.692C1231.94 371.616 1201.12 377.236 1168.51 372.553C1168.43 375.363 1168.09 378.173 1167.83 381.068C1200.78 385.667 1233.64 380.728 1261.14 362.845C1293.91 341.47 1313.92 304.512 1322.94 266.362C1331.96 228.212 1331.11 188.614 1330.18 149.441C1262.07 159.234 1197.2 175.414 1153.11 220.462C1142.12 231.618 1132.93 244.477 1125.61 258.357C1126.72 262.956 1127.65 267.384 1128.5 271.897C1136 255.121 1146.38 239.623 1159.24 226.508L1159.15 226.423Z" fill="black"/>
<path d="M1272.63 225.912C1276.2 222.932 1276.71 217.567 1273.73 213.905C1270.75 210.329 1265.39 209.818 1261.73 212.798C1222.66 245.328 1188.26 284.5 1160.51 327.419C1163.41 334.573 1165.62 341.896 1166.9 349.39C1194.99 302.809 1231.08 260.486 1272.63 225.827V225.912Z" fill="black"/>
<path d="M728.564 399.122C671.868 364.377 635.687 298.381 636.879 231.788C698.854 215.353 767.298 212.457 825.102 240.389C828.847 242.177 832.508 244.136 836.083 246.265C836.935 243.54 837.956 240.815 838.893 238.09C835.573 236.216 832.167 234.428 828.847 232.725C761.85 200.365 686.34 209.903 634.751 223.528C631.09 224.465 628.451 227.786 628.451 231.618C627.174 301.361 664.802 369.998 724.223 406.36C736.737 414.024 749.932 420.07 763.467 424.498C766.702 422.54 770.108 420.666 773.598 418.793C757.849 414.279 742.696 407.722 728.649 399.122H728.564Z" fill="black"/>
<path d="M733.076 391.884C680.551 359.694 646.669 299.999 645.477 238.431C694.001 226.424 761.85 219.27 821.441 248.053C825.612 250.097 829.613 252.311 833.529 254.611C834.38 251.8 835.232 248.99 836.168 246.18C832.593 244.051 828.932 242.093 825.186 240.304C767.383 212.373 698.939 215.268 636.964 231.703C635.772 298.296 671.953 364.293 728.649 399.037C742.695 407.638 757.849 414.28 773.598 418.708C777.258 416.749 781.089 414.791 785.005 412.832C767.128 408.745 749.506 401.847 733.076 391.713V391.884Z" fill="black"/>
<path d="M708.048 276.666C703.536 275.559 698.854 278.284 697.747 282.882C696.64 287.481 699.45 292.079 703.962 293.186C752.145 305.108 796.498 332.103 839.318 358.161C839.403 358.161 839.573 358.332 839.659 358.417C834.891 350.242 831.061 341.385 828.421 331.677C790.539 308.941 751.209 287.311 708.048 276.666Z" fill="black"/>
<path d="M1003.87 59.6004C1040.4 62.0699 1094.45 167.494 1116.5 257.25C1118.37 253.588 1120.33 249.926 1122.38 246.435C1108.92 195.255 1086.02 140.499 1061.17 101.583C1040.65 69.2231 1021.58 52.1917 1004.47 51.0847C952.456 47.6784 873.2 140.925 838.893 238.004C841.446 239.452 843.915 240.985 846.384 242.603C879.159 148.589 956.372 56.5347 1003.87 59.6004Z" fill="black"/>
<path d="M1130.55 283.223C1129.87 279.476 1129.18 275.644 1128.42 271.812C1127.48 274.026 1126.46 276.155 1125.61 278.369C1127.31 279.987 1128.93 281.519 1130.55 283.223Z" fill="black"/>
<path d="M1119.65 270.62C1121.44 266.447 1123.4 262.36 1125.52 258.358C1124.59 254.44 1123.57 250.438 1122.46 246.436C1120.33 249.927 1118.37 253.589 1116.59 257.25C1117.69 261.764 1118.71 266.192 1119.65 270.62Z" fill="black"/>
<path d="M1125.61 278.454C1126.46 276.24 1127.48 274.026 1128.42 271.897C1127.48 267.469 1126.63 262.956 1125.52 258.357C1123.4 262.36 1121.44 266.447 1119.65 270.62C1119.91 271.642 1120.08 272.579 1120.25 273.601C1122.03 275.133 1123.82 276.751 1125.61 278.369V278.454Z" fill="black"/>
<path d="M828.422 331.677C832.082 333.891 835.743 336.106 839.403 338.32C833.189 321.288 831.146 301.532 836.083 278.539C837.445 272.153 839.148 265.766 840.936 259.379C838.467 257.761 835.998 256.143 833.444 254.61C831.231 262.019 829.358 269.343 827.741 276.666C823.229 297.274 824.08 315.498 828.422 331.592V331.677Z" fill="black"/>
<path d="M856.938 368.805C851.15 365.314 845.446 361.822 839.742 358.331C844.595 366.762 850.383 374.341 856.683 381.153C859.322 379.961 862.046 378.769 864.685 377.662C861.961 374.852 859.407 371.871 856.938 368.805Z" fill="black"/>
<path d="M843.573 250.949C844.425 248.138 845.361 245.413 846.383 242.688C843.914 241.07 841.445 239.538 838.891 238.09C837.955 240.815 836.933 243.54 836.082 246.265C838.636 247.713 841.105 249.331 843.573 250.949Z" fill="black"/>
<path d="M841.02 259.379C841.871 256.569 842.723 253.758 843.574 250.948C841.105 249.33 838.636 247.712 836.082 246.265C835.146 249.075 834.295 251.885 833.443 254.695C835.997 256.228 838.466 257.761 840.935 259.464L841.02 259.379Z" fill="black"/>
<path d="M839.402 338.32C835.741 336.106 832.081 333.892 828.42 331.678C831.059 341.386 834.89 350.242 839.657 358.417C845.361 361.908 851.15 365.4 856.853 368.891C849.702 359.95 843.573 349.816 839.317 338.32H839.402Z" fill="black"/>
<path d="M1003.36 68.1168C1014.09 68.798 1030.35 84.8075 1046.95 110.695C1073.25 151.996 1097.52 212.287 1109.86 265C1110.63 265.596 1111.39 266.192 1112.16 266.788C1113.52 263.552 1115.05 260.316 1116.67 257.165C1094.54 167.41 1040.48 61.9855 1004.04 59.5159C956.455 56.4503 879.328 148.505 846.553 242.603C849.022 244.136 851.405 245.839 853.789 247.542C885.712 153.018 961.989 65.6472 1003.53 68.1168H1003.36Z" fill="black"/>
<path d="M1118.88 272.408C1119.14 271.812 1119.4 271.216 1119.65 270.62C1118.71 266.191 1117.69 261.763 1116.59 257.25C1114.97 260.401 1113.52 263.637 1112.07 266.873C1114.37 268.661 1116.67 270.534 1118.88 272.493V272.408Z" fill="black"/>
<path d="M1120.25 273.601C1120.08 272.579 1119.82 271.642 1119.65 270.62C1119.4 271.216 1119.14 271.812 1118.88 272.408C1119.31 272.834 1119.82 273.26 1120.25 273.601Z" fill="black"/>
<path d="M839.402 338.319C842.297 340.108 845.276 341.896 848.17 343.684C849.447 344.451 850.639 345.217 851.916 345.984C842.892 328.101 838.806 306.471 844.425 280.413C845.531 275.218 846.894 270.024 848.341 264.744C845.957 262.87 843.488 261.082 841.02 259.379C839.147 265.766 837.529 272.238 836.167 278.539C831.145 301.446 833.188 321.288 839.487 338.319H839.402Z" fill="black"/>
<path d="M856.939 368.806C859.407 371.871 862.046 374.852 864.685 377.662C866.048 377.066 867.41 376.47 868.772 375.789C864.771 373.489 860.855 371.105 856.854 368.721L856.939 368.806Z" fill="black"/>
<path d="M853.62 247.543C851.236 245.839 848.852 244.221 846.384 242.604C845.447 245.329 844.511 248.139 843.574 250.864C846.043 252.482 848.512 254.185 850.895 255.973C851.747 253.163 852.683 250.268 853.62 247.457V247.543Z" fill="black"/>
<path d="M848.341 264.744C849.107 261.848 849.958 258.953 850.895 256.058C848.511 254.269 846.042 252.566 843.573 250.948C842.637 253.758 841.786 256.569 841.02 259.379C843.573 261.082 845.957 262.87 848.341 264.744Z" fill="black"/>
<path d="M868.857 375.874C870.134 375.278 871.496 374.682 872.773 374.086C864.686 365.996 857.45 356.628 851.916 345.814C850.639 345.047 849.448 344.281 848.171 343.514C845.276 341.726 842.297 339.938 839.402 338.149C843.574 349.646 849.788 359.779 856.939 368.721C860.855 371.105 864.856 373.404 868.857 375.789V375.874Z" fill="black"/>
<path d="M881.627 317.456C881.627 323.672 885.117 328.696 889.374 328.696C892.098 328.696 894.396 326.568 895.759 323.502C893.205 317.882 890.225 312.346 886.905 306.981C883.84 308.514 881.712 312.602 881.712 317.456H881.627Z" fill="black"/>
<path d="M889.374 306.216C888.523 306.216 887.672 306.556 886.82 306.982C890.14 312.347 893.12 317.882 895.674 323.503C896.44 321.714 897.036 319.756 897.036 317.457C897.036 311.24 893.546 306.216 889.289 306.216H889.374Z" fill="black"/>
<path d="M958.754 264.829C963.01 265.425 967.096 260.911 968.033 254.78C968.884 248.649 966.16 243.199 961.904 242.603C957.647 242.007 953.561 246.52 952.624 252.651C951.773 258.783 954.497 264.233 958.754 264.829Z" fill="black"/>
<path d="M919.34 198.152C923.426 199.344 928.194 195.512 929.981 189.551C931.769 183.59 929.811 177.799 925.725 176.607C921.639 175.415 916.871 179.247 915.084 185.208C913.296 191.169 915.254 196.959 919.34 198.152Z" fill="black"/>
<path d="M1025.16 162.129C1029.33 161.363 1031.8 155.743 1030.69 149.611C1029.5 143.48 1025.16 139.222 1020.99 139.989C1016.81 140.755 1014.35 146.375 1015.45 152.507C1016.64 158.638 1020.99 162.896 1025.16 162.129Z" fill="black"/>
<path d="M1348.82 1819.2C1372.15 1934.76 1075.89 1942.93 990.764 1941.31H990.083C907.763 1942.93 622.237 1934.59 644.711 1819.2C663.099 1725.02 841.617 1692.23 918.063 1682.44C918.83 1679.46 919.596 1676.48 920.277 1673.5C843.915 1682.86 656.289 1715.99 636.454 1817.58C632.282 1839.04 637.305 1858.46 651.436 1875.23C716.731 1952.9 962.501 1950.34 990.168 1949.83H990.764C993.999 1949.83 999.873 1950 1007.88 1950C1073.77 1950 1284.21 1944.38 1342.86 1874.13C1356.65 1857.61 1361.51 1838.53 1357.33 1817.58C1336.82 1715.99 1142.55 1682.86 1063.47 1673.58C1064.15 1676.56 1064.91 1679.54 1065.68 1682.52C1144.93 1692.32 1330.01 1725.1 1348.99 1819.28L1348.82 1819.2Z" fill="black"/>
<path d="M1340.48 1820.9C1343.71 1836.74 1340.14 1850.62 1329.67 1863.14C1280.38 1922.24 1093.52 1934.76 990.934 1932.8H989.913C892.013 1934.76 713.241 1922.49 664.376 1864.33C653.565 1851.47 649.819 1837.25 653.054 1820.9C670.08 1733.87 838.637 1701.68 915.424 1691.46C916.361 1688.48 917.212 1685.5 918.063 1682.44C841.617 1692.23 663.184 1725.02 644.711 1819.2C622.237 1934.59 907.762 1942.93 990.083 1941.31H990.764C1075.89 1942.93 1372.15 1934.76 1348.82 1819.2C1329.84 1725.02 1144.76 1692.23 1065.51 1682.44C1066.36 1685.42 1067.21 1688.4 1068.15 1691.38C1147.66 1701.6 1322.86 1733.7 1340.48 1820.82V1820.9Z" fill="black"/>
<path d="M1076.32 1491.52C1059.8 1532.05 1039.03 1601.96 1054.1 1672.47C1056.91 1672.81 1059.97 1673.16 1063.21 1673.5C1046.69 1600.35 1070.53 1527.03 1085.94 1490.41C1084.32 1490.58 1082.62 1490.83 1081 1491C1079.47 1491.17 1077.85 1491.26 1076.32 1491.43V1491.52Z" fill="black"/>
<path d="M990.253 1478.15C973.568 1478.66 956.542 1478.23 939.346 1477.21C956.542 1478.32 973.653 1478.66 990.253 1478.15Z" fill="black"/>
<path d="M907.676 1491.51C906.144 1491.34 904.612 1491.17 903.079 1491C901.377 1490.83 899.759 1490.58 898.057 1490.32C915.679 1533.67 935.769 1603.75 920.276 1673.49C923.425 1673.15 926.32 1672.73 929.044 1672.47C943.601 1601.96 923.51 1532.05 907.676 1491.51Z" fill="black"/>
<path d="M1077.85 1474.23C1077.85 1474.23 1078.7 1474.23 1079.13 1474.14C1079.13 1474.14 1078.28 1474.14 1077.85 1474.23Z" fill="black"/>
<path d="M1075.72 1746.99C1076.74 1748.6 1077.77 1750.22 1078.79 1751.75C1081.43 1755.67 1086.7 1756.69 1090.62 1753.97C1094.54 1751.33 1095.47 1746.05 1092.83 1742.13C1081.68 1725.7 1073.68 1708.58 1068.06 1691.38C1064.74 1690.95 1061.59 1690.53 1058.61 1690.19C1064.49 1709.43 1073.25 1728.51 1085.77 1746.9H1075.64L1075.72 1746.99Z" fill="black"/>
<path d="M893.716 1754.05C895.163 1754.99 896.78 1755.42 898.398 1755.42C901.207 1755.42 903.846 1754.05 905.549 1751.58C906.57 1750.05 907.507 1748.43 908.443 1746.9H898.398C910.486 1728.51 918.914 1709.43 924.618 1690.19C921.724 1690.53 918.659 1690.95 915.424 1691.38C909.976 1708.66 902.144 1725.78 891.332 1742.3C888.778 1746.22 889.8 1751.5 893.801 1754.14L893.716 1754.05Z" fill="black"/>
<path d="M1056.23 1681.33C1059.12 1681.67 1062.19 1682.01 1065.51 1682.44C1064.66 1679.46 1063.98 1676.47 1063.29 1673.49C1060.06 1673.07 1056.99 1672.73 1054.19 1672.47C1054.78 1675.45 1055.55 1678.35 1056.31 1681.33H1056.23Z" fill="black"/>
<path d="M927.001 1681.33C927.767 1678.35 928.448 1675.45 929.044 1672.47C926.32 1672.81 923.341 1673.15 920.276 1673.49C919.595 1676.47 918.914 1679.46 918.062 1682.44C921.212 1682.01 924.192 1681.67 927.001 1681.33Z" fill="black"/>
<path d="M1068.15 1691.38C1067.21 1688.4 1066.27 1685.42 1065.51 1682.44C1062.19 1682.01 1059.12 1681.67 1056.23 1681.33C1056.99 1684.31 1057.85 1687.29 1058.78 1690.27C1061.76 1690.61 1064.91 1691.04 1068.23 1691.46L1068.15 1691.38Z" fill="black"/>
<path d="M924.618 1690.27C925.469 1687.29 926.32 1684.31 927.002 1681.33C924.192 1681.67 921.213 1682.01 918.063 1682.44C917.297 1685.42 916.36 1688.4 915.424 1691.46C918.659 1691.04 921.723 1690.61 924.618 1690.27Z" fill="black"/>
<path d="M929.043 1672.47C932.449 1672.13 935.343 1671.79 938.067 1671.54C951.347 1604.01 934.236 1537.24 917.21 1492.62C917.891 1492.62 918.658 1492.71 919.339 1492.79C915.423 1492.45 911.592 1492.03 907.676 1491.52C923.595 1532.05 943.601 1601.96 929.043 1672.47Z" fill="black"/>
<path d="M973.398 1495.35C970.759 1495.35 968.035 1495.35 965.311 1495.26C968.035 1495.26 970.674 1495.35 973.398 1495.35Z" fill="black"/>
<path d="M1066.78 1492.54C1051.21 1532.22 1031.46 1601.28 1045.42 1671.54C1048.06 1671.79 1050.95 1672.05 1054.1 1672.39C1039.03 1601.88 1059.8 1531.96 1076.32 1491.43C1071.38 1491.94 1066.44 1492.45 1061.59 1492.88C1063.29 1492.71 1065.08 1492.62 1066.78 1492.45V1492.54Z" fill="black"/>
<path d="M1011.36 1495.35C1004.3 1495.35 997.318 1495.35 990.252 1495.18C997.233 1495.35 1004.3 1495.43 1011.36 1495.35Z" fill="black"/>
<path d="M908.444 1746.99C920.192 1728.17 928.449 1708.67 933.898 1689.16C931.088 1689.5 927.938 1689.85 924.618 1690.27C919 1709.52 910.487 1728.59 898.398 1746.99H908.444Z" fill="black"/>
<path d="M1085.85 1746.99C1073.34 1728.59 1064.57 1709.52 1058.7 1690.27C1055.46 1689.85 1052.4 1689.51 1049.59 1689.25C1055.12 1708.84 1063.63 1728.25 1075.64 1747.07H1085.77L1085.85 1746.99Z" fill="black"/>
<path d="M1047.37 1680.39C1050.1 1680.65 1052.99 1680.99 1056.23 1681.33C1055.46 1678.35 1054.78 1675.45 1054.1 1672.47C1050.86 1672.13 1048.06 1671.88 1045.42 1671.62C1046.01 1674.52 1046.61 1677.5 1047.37 1680.39Z" fill="black"/>
<path d="M938.069 1671.54C935.345 1671.79 932.45 1672.13 929.045 1672.47C928.449 1675.45 927.768 1678.35 927.002 1681.33C930.407 1680.9 933.387 1680.56 936.111 1680.31C936.792 1677.41 937.473 1674.43 937.984 1671.54H938.069Z" fill="black"/>
<path d="M1049.67 1689.16C1052.48 1689.51 1055.55 1689.85 1058.78 1690.19C1057.85 1687.21 1056.99 1684.23 1056.23 1681.25C1052.99 1680.9 1050.1 1680.56 1047.38 1680.31C1048.06 1683.29 1048.82 1686.18 1049.67 1689.16Z" fill="black"/>
<path d="M933.897 1689.16C934.748 1686.18 935.515 1683.29 936.196 1680.31C933.386 1680.56 930.407 1680.9 927.087 1681.33C926.321 1684.31 925.554 1687.29 924.703 1690.27C928.023 1689.85 931.173 1689.51 933.982 1689.16H933.897Z" fill="black"/>
<path d="M744.823 449.109C751.974 441.701 762.274 434.718 774.533 427.905C770.787 426.883 767.042 425.776 763.381 424.584C753.506 430.46 745.078 436.591 738.693 443.233C714.006 469.036 710.941 499.011 716.9 525.665C719.88 526.006 722.859 526.347 725.839 526.687C719.539 502.843 720.646 474.316 744.823 449.109Z" fill="black"/>
<path d="M641.646 650.42C658.076 573.268 753.166 579.399 753.166 579.399C753.166 579.399 750.953 576.845 747.803 572.331C743.887 571.991 740.056 571.735 736.14 571.395C706.004 573.864 646.498 586.723 633.303 648.632C625.726 684.398 638.496 714.628 655.607 737.621C659.608 737.961 663.524 738.387 667.525 738.728C649.137 716.502 633.984 686.186 641.646 650.42Z" fill="black"/>
<path d="M1294.42 573.693C1294.42 573.693 1388.41 630.237 1331.88 724.932C1335.45 724.421 1339.03 723.91 1342.69 723.399C1355.46 699.896 1360.65 676.733 1357.93 653.996C1352.74 609.459 1319.11 580.761 1304.98 570.457C1305.4 569.265 1305.74 568.158 1306.17 566.966C1303.02 567.306 1299.79 567.647 1296.64 567.903C1295.87 569.776 1295.27 571.649 1294.42 573.523V573.693Z" fill="black"/>
<path d="M1150.98 413.258C1150.98 413.258 1302.59 429.182 1305.74 522.259C1308.64 521.918 1311.45 521.577 1314.34 521.237C1313.75 506.76 1309.92 493.22 1302.68 480.787C1272.2 428.245 1191.67 410.958 1162.47 406.275C1164.26 400.654 1165.45 395.119 1166.47 389.584C1163.75 389.158 1160.94 388.818 1158.13 388.307C1156.68 396.311 1154.3 404.657 1150.89 413.343L1150.98 413.258Z" fill="black"/>
<path d="M1166.9 349.475C1164.43 353.562 1162.04 357.65 1159.75 361.822C1159.92 364.888 1160 368.039 1159.92 371.19C1162.81 371.786 1165.62 372.212 1168.51 372.637C1168.77 364.803 1168.26 357.054 1166.9 349.475Z" fill="black"/>
<path d="M1160.51 327.419C1159.41 324.609 1158.21 321.799 1156.77 318.989C1150.04 305.619 1140.93 293.697 1130.55 283.138C1131.48 288.332 1132.25 293.442 1132.85 298.381C1142.29 309.707 1150.04 322.31 1154.81 336.446C1156.68 333.38 1158.55 330.315 1160.43 327.334L1160.51 327.419Z" fill="black"/>
<path d="M1159.41 379.706C1159.15 382.516 1158.81 385.327 1158.21 388.222C1161.02 388.733 1163.75 389.159 1166.56 389.499C1167.07 386.689 1167.49 383.879 1167.83 381.069C1165.03 380.643 1162.22 380.217 1159.41 379.621V379.706Z" fill="black"/>
<path d="M1159.92 371.19C1159.92 374.001 1159.66 376.811 1159.41 379.706C1162.22 380.217 1165.02 380.728 1167.83 381.154C1168.17 378.344 1168.43 375.448 1168.52 372.638C1165.62 372.212 1162.81 371.787 1159.92 371.19Z" fill="black"/>
<path d="M1159.75 361.823C1162.05 357.65 1164.43 353.563 1166.9 349.475C1165.54 341.982 1163.41 334.658 1160.51 327.505C1158.56 330.485 1156.77 333.551 1154.89 336.617C1157.53 344.536 1159.24 352.967 1159.75 361.823Z" fill="black"/>
<path d="M856.683 381.238C849.277 384.474 841.786 387.71 834.464 390.776C816.587 398.44 799.902 405.593 785.004 412.917C789.686 414.024 794.453 414.875 799.221 415.557C818.63 406.53 840.679 397.503 863.068 387.71C860.94 385.666 858.726 383.452 856.683 381.238Z" fill="black"/>
<path d="M786.025 421.859C781.854 421.007 777.683 419.9 773.511 418.793C769.936 420.666 766.616 422.625 763.381 424.499C767.127 425.691 770.787 426.883 774.533 427.82C778.193 425.776 782.024 423.817 786.025 421.773V421.859Z" fill="black"/>
<path d="M785.005 412.917C781.004 414.876 777.258 416.834 773.598 418.793C777.769 419.985 781.94 421.007 786.112 421.858C790.368 419.73 794.71 417.686 799.222 415.557C794.454 414.876 789.772 413.939 785.005 412.917Z" fill="black"/>
<path d="M1000.98 217.226C998.851 219.185 997.829 222.165 998.34 225.061C1009.07 282.542 972.546 319.926 922.404 348.964C923 351.86 923.596 354.755 923.937 357.735C977.483 327.079 1018.43 286.629 1006.68 223.443C1006.68 223.443 1064.06 239.282 1108.67 275.048C1109.35 273.26 1110.12 271.471 1110.8 269.683C1110.46 268.15 1110.12 266.532 1109.78 264.914C1065.59 231.107 1012.13 216.034 1008.98 215.183C1006.17 214.416 1003.11 215.183 1000.98 217.141V217.226Z" fill="black"/>
<path d="M1110.88 269.769C1110.12 271.557 1109.43 273.345 1108.75 275.133C1110.12 276.24 1111.48 277.348 1112.76 278.455C1112.16 275.644 1111.48 272.664 1110.88 269.769Z" fill="black"/>
<path d="M907.422 366.847C907.167 363.866 906.826 360.886 906.4 357.905C900.271 361.141 894.057 364.207 887.672 367.187C890.737 368.891 893.716 370.509 896.781 372.212C900.356 370.423 903.932 368.635 907.507 366.847H907.422Z" fill="black"/>
<path d="M924.021 357.735C923.68 354.755 922.999 351.859 922.489 348.964C919.85 350.497 917.21 352.03 914.486 353.477C914.997 356.458 915.508 359.353 915.763 362.334C918.573 360.801 921.297 359.268 924.021 357.735Z" fill="black"/>
<path d="M915.764 362.419C915.423 359.438 914.997 356.458 914.487 353.562C911.848 355.01 909.209 356.458 906.484 357.906C906.995 360.886 907.251 363.867 907.506 366.847C910.315 365.399 913.039 363.952 915.764 362.419Z" fill="black"/>
<path d="M879.413 380.387C885.202 377.747 890.99 375.022 896.779 372.127C893.715 370.424 890.735 368.806 887.67 367.103C882.733 369.487 877.71 371.786 872.688 374.085C874.901 376.299 877.114 378.343 879.328 380.387H879.413Z" fill="black"/>
<path d="M1122.89 287.651C1126.38 291.143 1129.7 294.719 1132.85 298.466C1132.25 293.527 1131.48 288.418 1130.55 283.223C1128.93 281.605 1127.31 279.987 1125.61 278.369C1124.59 281.009 1123.57 283.649 1122.71 286.374C1122.71 286.8 1122.89 287.225 1122.89 287.651Z" fill="black"/>
<path d="M1125.61 278.454C1123.82 276.836 1122.12 275.218 1120.25 273.686C1121.1 278.029 1121.95 282.286 1122.63 286.459C1123.57 283.734 1124.5 281.094 1125.52 278.454H1125.61Z" fill="black"/>
<path d="M864.686 377.747C862.047 378.939 859.323 380.131 856.684 381.239C858.727 383.453 860.855 385.667 863.068 387.71C865.792 386.518 868.517 385.326 871.241 384.134C869.027 382.09 866.814 379.961 864.686 377.747Z" fill="black"/>
<path d="M1112.07 266.787C1111.31 266.191 1110.54 265.595 1109.78 264.999C1110.12 266.617 1110.46 268.15 1110.8 269.768C1111.22 268.746 1111.65 267.809 1112.07 266.787Z" fill="black"/>
<path d="M1122.71 286.374C1122.71 286.374 1122.54 286.885 1122.46 287.226C1122.63 287.396 1122.8 287.566 1122.88 287.737C1122.88 287.311 1122.71 286.885 1122.71 286.459V286.374Z" fill="black"/>
<path d="M1112.75 278.455C1113.69 279.306 1114.71 280.073 1115.65 280.924C1116.67 278.029 1117.78 275.219 1118.97 272.408C1116.75 270.45 1114.46 268.662 1112.16 266.788C1111.73 267.81 1111.31 268.747 1110.88 269.769C1111.48 272.664 1112.24 275.559 1112.75 278.455Z" fill="black"/>
<path d="M1122.46 287.226C1122.46 287.226 1122.63 286.715 1122.71 286.374C1122.03 282.201 1121.18 277.943 1120.33 273.6C1119.9 273.175 1119.39 272.749 1118.97 272.408C1117.78 275.218 1116.67 278.029 1115.65 280.924C1117.95 282.968 1120.25 285.097 1122.46 287.226Z" fill="black"/>
<path d="M868.858 375.874C867.496 376.47 866.134 377.066 864.771 377.747C866.9 379.962 869.113 382.09 871.326 384.134C873.54 383.197 875.668 382.176 877.881 381.154C874.902 379.451 871.922 377.662 868.943 375.874H868.858Z" fill="black"/>
<path d="M879.414 380.388C877.115 378.429 874.902 376.3 872.773 374.086C871.496 374.682 870.134 375.278 868.857 375.874C871.837 377.663 874.817 379.451 877.796 381.154C878.307 380.899 878.903 380.643 879.414 380.388Z" fill="black"/>
<path d="M1143.06 410.107C1142.12 412.577 1142.29 415.387 1143.74 417.601C1145.1 419.9 1147.49 421.348 1150.13 421.689C1151.15 421.774 1255.6 433.355 1287.95 489.303C1293.91 499.607 1296.89 510.933 1297.23 523.281C1300.04 522.94 1302.93 522.6 1305.74 522.259C1302.68 429.182 1150.98 413.258 1150.98 413.258C1154.38 404.572 1156.68 396.227 1158.21 388.222C1155.4 387.711 1152.6 387.03 1149.79 386.434C1148.42 394.183 1146.21 402.102 1143.06 410.192V410.107Z" fill="black"/>
<path d="M750.952 454.984C758.954 446.639 771.809 438.634 787.302 430.8C783.046 429.948 778.789 429.011 774.533 427.904C762.189 434.717 751.974 441.615 744.823 449.108C720.646 474.315 719.624 502.842 725.839 526.686C728.733 527.027 731.713 527.282 734.607 527.623C728.137 505.482 728.307 478.658 750.867 454.984H750.952Z" fill="black"/>
<path d="M649.989 652.208C664.631 583.231 749.08 587.659 752.656 587.915C756.061 588.085 759.296 586.297 760.828 583.231C762.361 580.165 761.935 576.504 759.721 573.864C759.636 573.779 759.466 573.523 759.211 573.268C755.465 573.012 751.634 572.672 747.888 572.331C751.123 576.844 753.252 579.399 753.252 579.399C753.252 579.399 658.162 573.268 641.731 650.42C634.07 686.271 649.223 716.587 667.611 738.728C671.697 739.068 675.869 739.409 679.955 739.75C660.46 718.546 642.327 688.144 649.989 652.208Z" fill="black"/>
<path d="M1286.67 570.202C1284.97 574.119 1286.42 578.718 1290.08 580.932C1290.51 581.187 1335.62 609.034 1341.07 656.126C1343.63 678.692 1336.9 702.195 1320.98 726.38C1324.64 725.869 1328.22 725.443 1331.88 724.932C1388.41 630.238 1294.42 573.694 1294.42 573.694C1295.27 571.735 1295.87 569.947 1296.64 568.073C1293.49 568.414 1290.34 568.669 1287.1 569.01C1286.93 569.436 1286.76 569.862 1286.59 570.287L1286.67 570.202Z" fill="black"/>
<path d="M1159.75 361.823C1158.21 364.633 1156.6 367.358 1155.15 370.169C1156.77 370.509 1158.38 370.85 1159.92 371.19C1159.92 368.04 1159.92 364.889 1159.75 361.823Z" fill="black"/>
<path d="M1141.61 326.738C1144.76 333.125 1147.23 339.596 1148.85 346.324C1150.81 343.003 1152.85 339.852 1154.89 336.616C1150.13 322.48 1142.38 309.792 1132.93 298.551C1133.61 304.086 1134.12 309.536 1134.46 314.731C1137.1 318.648 1139.57 322.565 1141.61 326.823V326.738Z" fill="black"/>
<path d="M1149.79 386.434C1152.59 387.115 1155.4 387.711 1158.21 388.222C1158.72 385.327 1159.06 382.516 1159.4 379.706C1156.6 379.195 1153.87 378.599 1151.06 377.918C1150.81 380.728 1150.38 383.538 1149.87 386.434H1149.79Z" fill="black"/>
<path d="M1155.06 370.168C1154.04 371.956 1153.02 373.745 1152.08 375.618C1151.83 376.129 1151.49 376.555 1151.15 376.981C1151.15 377.321 1151.15 377.577 1151.06 377.917C1153.87 378.599 1156.6 379.195 1159.41 379.706C1159.75 376.81 1159.83 374 1159.92 371.19C1158.3 370.849 1156.68 370.594 1155.15 370.168H1155.06Z" fill="black"/>
<path d="M1154.81 336.616C1152.85 339.852 1150.72 343.088 1148.76 346.324C1150.64 353.818 1151.4 361.482 1151.32 369.316C1152.51 369.657 1153.79 369.913 1154.98 370.168C1156.51 367.358 1158.04 364.548 1159.58 361.823C1158.98 352.966 1157.36 344.536 1154.72 336.616H1154.81Z" fill="black"/>
<path d="M1151.15 376.981C1151.49 376.555 1151.83 376.129 1152.08 375.618C1153.02 373.745 1154.13 371.956 1155.06 370.168C1153.87 369.912 1152.6 369.572 1151.4 369.316C1151.4 371.871 1151.4 374.426 1151.15 376.981Z" fill="black"/>
<path d="M869.964 394.013C867.665 391.969 865.367 389.925 863.068 387.711C840.679 397.504 818.63 406.616 799.221 415.557C805.095 416.409 810.969 416.749 816.843 416.92C824.76 413.428 832.847 409.937 841.105 406.445C850.554 402.443 860.174 398.27 869.964 393.927V394.013Z" fill="black"/>
<path d="M800.754 424.243C795.816 423.647 790.964 422.88 786.112 421.858C782.111 423.817 778.28 425.861 774.619 427.905C778.876 429.012 783.132 429.948 787.389 430.8C791.645 428.586 796.157 426.457 800.839 424.243H800.754Z" fill="black"/>
<path d="M816.843 417.004C810.969 416.834 805.095 416.408 799.221 415.642C794.709 417.771 790.283 419.814 786.111 421.943C790.964 422.965 795.901 423.732 800.754 424.328C805.947 421.943 811.31 419.474 816.843 417.089V417.004Z" fill="black"/>
<path d="M1016.9 235.791C1036.31 242.603 1074.79 258.187 1105.69 283.734C1106.62 280.839 1107.65 278.029 1108.67 275.133C1064.06 239.368 1006.68 223.528 1006.68 223.528C1018.43 286.715 977.482 327.164 923.936 357.821C924.361 360.886 924.531 364.037 924.702 367.188C978.419 337.128 1021.75 297.359 1016.9 235.791Z" fill="black"/>
<path d="M1112.75 289.865C1113.18 288.417 1113.52 287.055 1114.03 285.607C1113.61 283.223 1113.26 280.923 1112.75 278.454C1111.39 277.347 1110.12 276.24 1108.75 275.133C1107.73 277.943 1106.71 280.838 1105.77 283.734C1108.16 285.692 1110.54 287.821 1112.75 289.865Z" fill="black"/>
<path d="M1113.95 285.607C1113.52 287.055 1113.1 288.418 1112.67 289.865C1113.44 290.547 1114.29 291.228 1115.05 291.994C1114.71 289.865 1114.29 287.736 1113.95 285.607Z" fill="black"/>
<path d="M907.762 376.214C907.762 373.063 907.677 369.997 907.422 366.847C903.931 368.635 900.356 370.423 896.695 372.212C899.76 373.915 902.74 375.618 905.804 377.236C906.485 376.895 907.081 376.555 907.762 376.214Z" fill="black"/>
<path d="M885.117 385.156C885.628 385.582 886.224 386.008 886.735 386.434C886.82 386.434 886.99 386.348 887.075 386.263C886.394 385.923 885.798 385.582 885.117 385.156Z" fill="black"/>
<path d="M916.445 371.701C919.254 370.253 921.978 368.72 924.787 367.188C924.617 364.037 924.447 360.886 924.021 357.82C921.297 359.353 918.573 360.971 915.764 362.419C916.104 365.484 916.36 368.635 916.445 371.701Z" fill="black"/>
<path d="M916.444 371.701C916.359 368.635 916.104 365.485 915.763 362.419C913.039 363.867 910.23 365.399 907.506 366.847C907.761 369.998 907.846 373.064 907.846 376.214C910.741 374.767 913.635 373.234 916.444 371.701Z" fill="black"/>
<path d="M887.076 386.263C893.375 383.368 899.675 380.302 905.889 377.151C902.825 375.533 899.845 373.83 896.781 372.127C891.077 374.937 885.288 377.662 879.414 380.387C881.287 382.005 883.16 383.623 885.118 385.156C885.799 385.497 886.395 385.837 887.076 386.263Z" fill="black"/>
<path d="M1134.38 314.646C1134.04 309.452 1133.53 304.001 1132.84 298.466C1129.7 294.719 1126.38 291.058 1122.88 287.651C1123.74 292.676 1124.42 297.615 1124.93 302.384C1128.33 306.301 1131.48 310.388 1134.38 314.646Z" fill="black"/>
<path d="M871.241 384.134C868.517 385.326 865.793 386.518 863.068 387.71C865.367 389.924 867.665 391.968 869.964 394.012C872.773 392.82 875.497 391.542 878.307 390.265C875.923 388.306 873.624 386.263 871.241 384.134Z" fill="black"/>
<path d="M1124.93 302.384C1124.33 297.615 1123.65 292.676 1122.89 287.652C1122.72 287.481 1122.54 287.311 1122.46 287.141C1121.44 290.206 1120.5 293.357 1119.65 296.508C1121.44 298.381 1123.23 300.34 1125.01 302.299L1124.93 302.384Z" fill="black"/>
<path d="M1115.65 280.924C1114.71 280.072 1113.69 279.221 1112.75 278.454C1113.26 280.924 1113.61 283.223 1114.03 285.607C1114.54 284.074 1115.14 282.542 1115.65 280.924Z" fill="black"/>
<path d="M1115.14 291.994C1116.67 293.527 1118.2 295.06 1119.65 296.593C1120.5 293.442 1121.44 290.291 1122.46 287.225C1120.25 285.097 1117.95 282.968 1115.65 280.924C1115.14 282.457 1114.54 283.989 1114.03 285.607C1114.37 287.736 1114.8 289.865 1115.14 291.994Z" fill="black"/>
<path d="M885.116 385.156C882.648 383.793 880.264 382.516 877.795 381.153C875.582 382.175 873.454 383.112 871.24 384.134C873.539 386.263 875.922 388.307 878.306 390.265C881.115 388.988 883.925 387.71 886.734 386.433C886.223 386.007 885.627 385.581 885.116 385.156Z" fill="black"/>
<path d="M885.118 385.156C883.245 383.623 881.287 382.005 879.414 380.387C878.904 380.642 878.308 380.898 877.797 381.153C880.181 382.516 882.649 383.878 885.118 385.156Z" fill="black"/>
<path d="M990.252 1478.15C1019.54 1478.91 1048.82 1477.55 1077.77 1474.23C1048.74 1477.55 1019.45 1478.91 990.252 1478.15Z" fill="black"/>
<path d="M644.03 516.553C643.093 516.383 642.157 516.212 641.135 516.127C637.645 515.787 634.24 517.575 632.622 520.811C623.769 538.438 416.988 955.111 469.428 1173.03C508.077 1333.46 683.955 1463.41 897.972 1490.32C897.376 1488.79 896.695 1487.26 896.099 1485.81C894.907 1483 895.333 1479.76 897.121 1477.38C898.908 1474.99 901.888 1473.72 904.953 1474.06C916.445 1475.42 927.938 1476.44 939.26 1477.12C927.853 1476.44 916.445 1475.42 904.868 1474.06C733.586 1453.88 529.445 1349.81 485.858 1169.03C438.015 970.269 620.449 584.423 645.051 533.925C660.374 536.054 675.698 538.013 691.106 539.886C691.532 538.779 691.958 537.672 692.468 536.48C701.918 537.672 711.452 538.779 720.902 539.801C719.284 535.202 717.922 530.519 716.816 525.665C693.149 523.025 669.483 520.13 645.902 516.894C645.221 516.894 644.54 516.723 643.944 516.638L644.03 516.553Z" fill="black"/>
<path d="M1314.09 534.01C1317.41 533.584 1320.73 533.158 1324.13 532.733C1324.64 534.095 1325.15 535.543 1325.66 536.99C1333.33 535.968 1340.99 534.947 1348.65 533.925C1374.27 584.763 1563.26 970.099 1513.63 1169.03C1474.9 1323.84 1296.21 1449.36 1079.04 1474.14C1082.02 1473.8 1085.09 1475.08 1086.87 1477.55C1088.66 1480.02 1089.09 1483.25 1087.81 1486.06C1087.22 1487.51 1086.53 1488.96 1085.94 1490.49C1268.2 1468.18 1483.41 1360.12 1530.15 1173.2C1582.76 962.094 1384.15 565.859 1361.16 520.981C1359.55 517.745 1356.14 515.871 1352.48 516.297C1340.9 517.745 1329.41 519.278 1318.09 520.811C1316.81 520.981 1315.62 521.066 1314.34 521.236C1314.51 525.409 1314.51 529.667 1314.09 534.01Z" fill="black"/>
<path d="M937.643 1494.15C940.707 1494.32 943.687 1494.49 946.751 1494.58C943.772 1494.41 940.707 1494.32 937.643 1494.15Z" fill="black"/>
<path d="M919.34 1492.71C922.319 1492.96 925.299 1493.22 928.278 1493.47C925.299 1493.22 922.319 1493.05 919.34 1492.71Z" fill="black"/>
<path d="M955.605 1495.09C958.84 1495.18 962.075 1495.26 965.31 1495.26C962.075 1495.26 958.84 1495.26 955.605 1495.09Z" fill="black"/>
<path d="M1017.58 1495.18C1015.54 1495.18 1013.41 1495.26 1011.37 1495.26C1013.41 1495.26 1015.45 1495.26 1017.58 1495.18Z" fill="black"/>
<path d="M990.337 1495.18C984.719 1495.35 979.1 1495.43 973.396 1495.43C973.737 1495.43 973.992 1495.43 974.333 1495.43C979.696 1495.43 985.059 1495.43 990.337 1495.18Z" fill="black"/>
<path d="M1054.44 1493.47C1056.83 1493.3 1059.21 1493.13 1061.59 1492.88C1059.21 1493.05 1056.83 1493.3 1054.44 1493.47Z" fill="black"/>
<path d="M1086.96 1477.46C1085.17 1474.99 1082.19 1473.72 1079.13 1474.06C1078.7 1474.06 1078.28 1474.06 1077.85 1474.14C1048.91 1477.46 1019.62 1478.83 990.338 1478.06C973.738 1478.57 956.712 1478.15 939.431 1477.12C928.023 1476.44 916.616 1475.51 905.123 1474.06C902.058 1473.72 899.164 1475 897.291 1477.38C895.503 1479.76 895.078 1483 896.27 1485.81C896.866 1487.26 897.461 1488.79 898.142 1490.32C899.845 1490.49 901.463 1490.83 903.165 1491C904.697 1491.17 906.23 1491.35 907.762 1491.52C906.485 1488.36 905.293 1485.38 904.102 1482.57C932.961 1486.07 961.99 1487.51 990.594 1486.66C1020.22 1487.43 1050.27 1486.07 1080.15 1482.57C1078.96 1485.38 1077.68 1488.36 1076.4 1491.52C1077.94 1491.35 1079.55 1491.26 1081.09 1491.09C1082.7 1490.92 1084.41 1490.66 1086.02 1490.49C1086.71 1488.96 1087.3 1487.51 1087.9 1486.07C1089.09 1483.26 1088.75 1480.02 1086.96 1477.55V1477.46Z" fill="black"/>
<path d="M928.277 1493.47C931.427 1493.73 934.577 1493.98 937.642 1494.15C940.706 1494.32 943.686 1494.49 946.751 1494.58C949.73 1494.75 952.71 1494.92 955.689 1495.01C958.924 1495.09 962.159 1495.18 965.394 1495.18C968.118 1495.18 970.757 1495.26 973.481 1495.26C979.185 1495.26 984.804 1495.26 990.422 1495.01C997.403 1495.18 1004.47 1495.26 1011.53 1495.18C1013.58 1495.18 1015.62 1495.18 1017.75 1495.09C1022.86 1495.01 1027.88 1494.84 1032.99 1494.66C1035.37 1494.58 1037.67 1494.41 1040.05 1494.32C1044.91 1494.07 1049.76 1493.73 1054.61 1493.39C1056.99 1493.22 1059.38 1493.05 1061.76 1492.79C1066.7 1492.37 1071.64 1491.85 1076.49 1491.34C1077.77 1488.19 1079.04 1485.21 1080.23 1482.4C1050.35 1485.89 1020.3 1487.26 990.678 1486.49C962.074 1487.34 933.045 1485.89 904.186 1482.4C905.377 1485.21 906.569 1488.19 907.846 1491.34C911.762 1491.77 915.678 1492.2 919.509 1492.62C922.488 1492.88 925.468 1493.13 928.448 1493.39L928.277 1493.47Z" fill="black"/>
<path d="M1296.64 536.309C1297.23 531.796 1297.32 527.538 1297.23 523.28C1109.78 545.506 921.043 546.954 734.693 527.623C736.141 532.648 738.013 537.502 739.971 541.93C924.874 561.601 1112.16 559.642 1296.55 536.309H1296.64Z" fill="black"/>
<path d="M1305.32 535.203C1308.21 534.862 1311.19 534.436 1314.09 534.096C1314.51 529.753 1314.51 525.495 1314.34 521.322C1311.45 521.663 1308.64 522.004 1305.74 522.344C1305.91 526.517 1305.74 530.775 1305.32 535.288V535.203Z" fill="black"/>
<path d="M730.606 540.993C728.819 536.48 727.201 531.711 725.839 526.687C722.859 526.346 719.88 526.006 716.9 525.665C718.007 530.519 719.369 535.288 720.987 539.801C724.222 540.142 727.371 540.567 730.606 540.908V540.993Z" fill="black"/>
<path d="M734.692 527.623C731.798 527.283 728.818 527.027 725.924 526.687C727.201 531.711 728.818 536.48 730.691 540.993C733.841 541.334 736.906 541.674 740.055 541.93C738.097 537.416 736.225 532.648 734.777 527.623H734.692Z" fill="black"/>
<path d="M1296.63 536.31C1299.53 535.969 1302.42 535.543 1305.32 535.203C1305.83 530.689 1305.91 526.431 1305.74 522.259C1302.93 522.599 1300.04 522.94 1297.23 523.281C1297.32 527.539 1297.23 531.882 1296.63 536.31Z" fill="black"/>
<path d="M720.987 539.801C711.537 538.694 702.003 537.672 692.553 536.479C692.043 537.672 691.702 538.779 691.191 539.886C701.492 541.163 711.878 542.27 722.264 543.377C721.838 542.185 721.413 540.993 720.987 539.801Z" fill="black"/>
<path d="M1320.3 537.672C1322.09 537.416 1323.88 537.161 1325.66 536.99C1325.15 535.543 1324.64 534.18 1324.13 532.732C1320.81 533.158 1317.49 533.584 1314.09 534.01C1313.92 535.457 1313.66 536.99 1313.41 538.438C1315.7 538.182 1318 537.927 1320.22 537.586L1320.3 537.672Z" fill="black"/>
<path d="M1295.87 540.567C1296.13 539.12 1296.47 537.672 1296.64 536.31C1112.16 559.643 924.959 561.601 740.057 541.93C740.567 543.122 741.078 544.229 741.674 545.421C925.214 563.815 1111.14 562.197 1295.95 540.567H1295.87Z" fill="black"/>
<path d="M732.053 544.484C731.542 543.377 731.117 542.185 730.606 540.993C727.371 540.652 724.221 540.226 720.986 539.886C721.412 541.078 721.838 542.27 722.263 543.462C725.498 543.803 728.818 544.144 732.053 544.484Z" fill="black"/>
<path d="M1313.41 538.524C1313.58 537.076 1313.92 535.543 1314.09 534.096C1311.19 534.521 1308.21 534.862 1305.32 535.203C1305.15 536.65 1304.98 538.098 1304.81 539.546C1307.7 539.205 1310.6 538.864 1313.49 538.524H1313.41Z" fill="black"/>
<path d="M1295.87 540.567C1298.85 540.226 1301.83 539.886 1304.72 539.545C1304.98 538.097 1305.15 536.65 1305.23 535.202C1302.34 535.543 1299.44 535.969 1296.55 536.309C1296.38 537.672 1296.04 539.119 1295.78 540.567H1295.87Z" fill="black"/>
<path d="M741.587 545.421C741.076 544.314 740.481 543.122 739.97 541.93C736.82 541.589 733.755 541.334 730.605 540.993C731.116 542.185 731.542 543.378 732.053 544.485C735.202 544.825 738.437 545.081 741.587 545.421Z" fill="black"/>
<path d="M1371.89 727.828C1423.82 853.179 1480.69 1033.2 1451.83 1148.84C1409.09 1320.26 1189.97 1427.48 991.701 1422.11C800.243 1427.56 588.951 1320.35 547.663 1148.84C521.273 1039.16 573.372 867.4 621.471 743.071C635.347 744.433 649.223 745.711 663.099 746.903C660.545 744.007 658.077 740.857 655.693 737.621C644.626 736.599 633.474 735.662 622.322 734.555C618.491 734.129 614.916 736.343 613.554 739.92C564.859 865.697 512.504 1039.08 539.405 1150.72C582.141 1328.18 793.093 1430.71 977.484 1430.71C982.166 1430.71 986.848 1430.71 991.445 1430.54C1186.05 1435.91 1414.71 1332.61 1460.09 1150.8C1491.58 1024.6 1423.31 829.505 1379.72 724.506C1378.19 720.845 1374.53 718.801 1370.61 719.312C1361.33 720.76 1351.97 722.037 1342.69 723.314C1340.99 726.465 1339.12 729.531 1337.16 732.682C1348.74 731.064 1360.4 729.446 1371.98 727.743L1371.89 727.828Z" fill="black"/>
<path d="M679.955 739.749C683.02 743.07 686.084 746.135 689.149 749.031C896.951 765.466 1108.07 762.656 1314.43 735.831C1316.81 732.681 1318.94 729.53 1320.98 726.379C1116.93 753.459 901.804 757.887 679.955 739.749Z" fill="black"/>
<path d="M1325.84 734.384C1329.58 733.873 1333.41 733.277 1337.16 732.766C1339.12 729.615 1340.99 726.464 1342.69 723.398C1339.12 723.909 1335.54 724.42 1331.88 724.931C1330.01 728.082 1327.96 731.233 1325.75 734.384H1325.84Z" fill="black"/>
<path d="M675.782 747.925C672.973 745.03 670.249 741.964 667.61 738.728C663.608 738.388 659.693 737.962 655.691 737.621C658.075 740.857 660.629 743.923 663.098 746.903C667.354 747.244 671.526 747.584 675.782 747.925Z" fill="black"/>
<path d="M1314.43 735.832C1318.26 735.321 1322 734.895 1325.84 734.384C1328.05 731.233 1330.09 727.997 1331.96 724.932C1328.3 725.443 1324.73 725.954 1321.07 726.379C1319.02 729.53 1316.81 732.681 1314.51 735.832H1314.43Z" fill="black"/>
<path d="M679.953 739.748C675.867 739.408 671.696 739.067 667.609 738.727C670.334 741.963 673.058 745.028 675.782 747.923C680.209 748.264 684.635 748.605 689.062 748.945C685.997 746.135 682.933 742.984 679.868 739.663L679.953 739.748Z" fill="black"/>
<path d="M1366.61 737.195C1409.35 841.597 1473.36 1027.66 1443.65 1146.71C1400.41 1320.18 1180.01 1418.54 991.529 1413.51C810.288 1418.62 597.803 1320.26 556.005 1146.8C530.551 1041.12 580.011 875.064 627.173 752.097C642.071 753.545 656.969 754.907 671.781 756.099C668.887 753.204 665.992 750.053 663.183 746.817C649.307 745.625 635.431 744.348 621.555 742.985C573.456 867.314 521.357 1039.08 547.747 1148.76C589.035 1320.26 800.327 1427.48 991.785 1422.03C1190.05 1427.39 1409.18 1320.18 1451.91 1148.76C1480.77 1033.12 1423.9 853.093 1371.97 727.742C1360.4 729.53 1348.82 731.148 1337.16 732.681C1335.2 735.832 1333.07 738.983 1330.77 742.219C1342.78 740.601 1354.69 738.983 1366.61 737.195Z" fill="black"/>
<path d="M689.148 749.032C692.894 752.524 696.555 755.674 699.875 758.399C909.465 774.239 1113.01 769.896 1306.77 745.456C1309.49 742.22 1312.04 739.069 1314.43 735.918C1108.07 762.657 896.951 765.467 689.148 749.117V749.032Z" fill="black"/>
<path d="M1330.77 742.303C1333.07 739.152 1335.2 736.002 1337.16 732.766C1333.41 733.277 1329.58 733.873 1325.83 734.384C1323.71 737.534 1321.32 740.685 1318.85 743.836C1322.85 743.325 1326.77 742.729 1330.77 742.218V742.303Z" fill="black"/>
<path d="M671.696 756.185C676.293 756.611 680.805 756.866 685.402 757.292C682.252 754.397 679.017 751.331 675.782 748.01C671.526 747.669 667.354 747.329 663.098 746.988C665.907 750.309 668.801 753.375 671.696 756.27V756.185Z" fill="black"/>
<path d="M1306.77 745.37C1310.77 744.859 1314.85 744.433 1318.85 743.837C1321.32 740.601 1323.71 737.45 1325.83 734.385C1322 734.896 1318.26 735.321 1314.43 735.832C1312.04 738.983 1309.49 742.219 1306.77 745.37Z" fill="black"/>
<path d="M685.402 757.292C690.254 757.718 695.021 758.058 699.874 758.399C696.469 755.674 692.893 752.523 689.147 749.032C684.721 748.691 680.294 748.35 675.867 748.01C679.102 751.416 682.337 754.482 685.487 757.292H685.402Z" fill="black"/>
<path d="M898.142 1128.07C897.546 1127.55 896.865 1127.04 896.355 1126.45L907.166 1124.49C905.463 1123.21 903.846 1121.93 902.314 1120.4C898.994 1117.08 893.545 1117.08 890.31 1120.4C886.99 1123.72 886.99 1129.09 890.31 1132.41C892.013 1134.03 893.801 1135.56 895.588 1137.01C895.588 1135.56 895.588 1134.54 895.588 1134.11C895.588 1131.73 896.61 1129.51 898.142 1127.98V1128.07Z" fill="black"/>
<path d="M942.664 1148.93C956.625 1146.37 969.48 1138.45 978.589 1127.21C976.716 1124.83 975.014 1122.36 973.481 1119.72C965.564 1130.45 953.901 1138.2 941.132 1140.5C931.597 1142.2 921.637 1140.92 912.613 1137.18C912.613 1139.3 912.869 1142.46 913.124 1146.46C919.424 1148.59 925.979 1149.78 932.619 1149.78C936.024 1149.78 939.344 1149.52 942.749 1148.84L942.664 1148.93Z" fill="black"/>
<path d="M971.269 1107.37C971.269 1107.37 971.099 1107.54 971.013 1107.71C970.077 1109.67 968.885 1111.54 967.693 1113.42L970.418 1112.91C970.077 1110.95 970.418 1109.07 971.269 1107.37Z" fill="black"/>
<path d="M972.887 1105.24C972.887 1105.24 973.483 1104.82 973.738 1104.56C973.483 1104.82 973.142 1104.99 972.887 1105.24Z" fill="black"/>
<path d="M984.463 1105.24C985.059 1105.84 985.655 1106.6 986.08 1107.37C985.655 1106.6 985.144 1105.84 984.463 1105.24Z" fill="black"/>
<path d="M975.525 1103.54C975.951 1103.37 976.462 1103.28 976.973 1103.2C976.462 1103.28 976.036 1103.37 975.525 1103.54Z" fill="black"/>
<path d="M982.336 1103.71C982.336 1103.71 981.996 1103.71 981.74 1103.54C982.421 1103.79 982.932 1104.22 983.528 1104.65C983.102 1104.31 982.762 1103.96 982.251 1103.71H982.336Z" fill="black"/>
<path d="M898.142 1128.06C899.674 1126.62 901.717 1125.68 904.016 1125.59C908.698 1125.59 912.443 1129.34 912.529 1134.03C912.529 1134.11 912.529 1135.3 912.614 1137.26C921.637 1141.01 931.513 1142.29 941.132 1140.58C953.902 1138.28 965.65 1130.53 973.482 1119.8C972.545 1118.27 971.609 1116.65 970.843 1115.04C970.502 1114.35 970.417 1113.67 970.332 1112.91L967.608 1113.42C961.053 1123.21 950.752 1130.19 939.515 1132.24C928.278 1134.28 916.359 1131.3 906.995 1124.49L896.184 1126.45C896.78 1127.04 897.375 1127.47 897.971 1128.06H898.142Z" fill="black"/>
<path d="M1053.93 1120.4C1052.48 1121.85 1050.87 1123.21 1049.25 1124.4L1059.97 1126.36C1057.68 1128.66 1055.21 1130.62 1052.48 1132.41C1053.16 1133.51 1053.67 1134.79 1053.67 1136.24C1053.67 1136.75 1053.76 1138.62 1053.85 1141.6C1058.19 1139.05 1062.36 1135.98 1065.93 1132.32C1069.25 1129 1069.25 1123.55 1065.93 1120.32C1062.61 1116.99 1057.17 1116.99 1053.93 1120.32V1120.4Z" fill="black"/>
<path d="M980.377 1103.2C980.888 1103.28 981.313 1103.37 981.824 1103.54C981.399 1103.37 980.888 1103.28 980.377 1103.2Z" fill="black"/>
<path d="M975.015 1103.63C974.504 1103.88 974.164 1104.22 973.738 1104.56C974.334 1104.14 974.93 1103.8 975.526 1103.46C975.356 1103.46 975.1 1103.46 974.93 1103.63H975.015Z" fill="black"/>
<path d="M983.613 1104.65C983.613 1104.65 984.209 1105.07 984.465 1105.33C984.209 1105.07 983.869 1104.9 983.613 1104.65Z" fill="black"/>
<path d="M1015.71 1140.58C1003.11 1138.28 991.53 1130.62 983.698 1119.8C982.165 1122.44 980.463 1124.91 978.59 1127.21C987.614 1138.45 1000.38 1146.37 1014.17 1148.93C1017.49 1149.52 1020.81 1149.87 1024.22 1149.87C1028.48 1149.87 1032.73 1149.35 1036.99 1148.42C1036.99 1144.59 1036.99 1141.6 1036.9 1139.65C1030.01 1141.43 1022.77 1141.86 1015.79 1140.58H1015.71Z" fill="black"/>
<path d="M986.933 1112.91L989.572 1113.42C988.381 1111.63 987.274 1109.76 986.337 1107.71C986.337 1107.54 986.167 1107.54 986.082 1107.37C987.018 1109.07 987.274 1110.95 986.933 1112.91Z" fill="black"/>
<path d="M970.418 1112.91L978.675 1111.38L986.933 1112.91C987.273 1110.95 986.933 1109.08 986.081 1107.37C985.656 1106.61 985.145 1105.84 984.464 1105.24C984.209 1104.99 983.868 1104.82 983.613 1104.56C983.017 1104.14 982.421 1103.8 981.825 1103.46C981.314 1103.29 980.888 1103.2 980.378 1103.11C979.782 1103.03 979.271 1102.86 978.675 1102.86C978.079 1102.86 977.483 1103.03 976.973 1103.11C976.462 1103.2 976.036 1103.29 975.525 1103.46C974.844 1103.71 974.248 1104.14 973.738 1104.56C973.482 1104.82 973.142 1104.99 972.886 1105.24C972.29 1105.84 971.694 1106.52 971.269 1107.37C970.332 1109.08 969.992 1110.95 970.418 1112.91Z" fill="black"/>
<path d="M983.698 1119.8C981.825 1117.16 980.037 1114.44 978.59 1111.46C977.143 1114.44 975.44 1117.16 973.482 1119.8C975.015 1122.44 976.632 1124.91 978.59 1127.3C980.463 1125 982.166 1122.44 983.698 1119.89V1119.8Z" fill="black"/>
<path d="M978.59 1111.38L970.332 1112.91C970.502 1113.59 970.502 1114.36 970.843 1115.04C971.609 1116.65 972.545 1118.27 973.482 1119.81C975.44 1117.17 977.142 1114.44 978.59 1111.46V1111.38Z" fill="black"/>
<path d="M986.422 1115.04C985.656 1116.65 984.72 1118.27 983.783 1119.8C991.615 1130.53 1003.19 1138.2 1015.79 1140.58C1022.77 1141.86 1030.01 1141.43 1036.9 1139.65C1036.9 1138.11 1036.9 1137.26 1036.9 1137.18C1036.65 1132.49 1040.31 1128.49 1044.99 1128.23C1048.31 1127.98 1051.12 1129.85 1052.65 1132.49C1055.29 1130.7 1057.85 1128.75 1060.14 1126.45L1049.42 1124.49C1040.22 1131.3 1028.48 1134.28 1017.41 1132.24C1006.34 1130.19 996.212 1123.21 989.742 1113.42L987.103 1112.91C986.933 1113.59 986.933 1114.35 986.593 1115.04H986.422Z" fill="black"/>
<path d="M983.698 1119.81C984.634 1118.27 985.57 1116.65 986.337 1115.04C986.677 1114.36 986.762 1113.59 986.847 1112.91L978.59 1111.38C980.037 1114.36 981.74 1117.17 983.698 1119.72V1119.81Z" fill="black"/>
<path d="M978.674 1111.38H978.59L978.674 1111.46V1111.38Z" fill="black"/>
<path d="M1007.96 1261.68C999.702 1270.36 989.912 1274.62 978.164 1274.62C926.064 1274.62 915.253 1180.86 913.125 1146.54C906.825 1144.42 900.866 1141.26 895.588 1137.09C896.184 1159.15 903.079 1291.65 978.164 1291.65C994.594 1291.65 1008.73 1285.52 1020.3 1273.43C1053.5 1238.51 1054.36 1162.72 1053.93 1141.69C1048.65 1144.76 1042.86 1147.06 1036.9 1148.42C1036.82 1173.54 1033.84 1234.51 1007.87 1261.68H1007.96Z" fill="black"/>
<path d="M912.614 1137.26C907.336 1135.05 902.399 1131.9 898.057 1128.06C896.439 1129.6 895.418 1131.81 895.503 1134.2C895.503 1134.62 895.503 1135.56 895.503 1137.09C900.781 1141.18 906.74 1144.33 913.04 1146.54C912.784 1142.63 912.614 1139.48 912.529 1137.26H912.614Z" fill="black"/>
<path d="M904.017 1125.6C901.718 1125.6 899.675 1126.53 898.143 1128.07C902.484 1131.98 907.422 1135.05 912.7 1137.26C912.7 1135.3 912.615 1134.11 912.615 1134.03C912.615 1129.34 908.784 1125.6 904.102 1125.6H904.017Z" fill="black"/>
<path d="M1052.57 1132.49C1047.72 1135.73 1042.44 1138.2 1036.9 1139.65C1036.9 1141.61 1036.99 1144.59 1036.99 1148.42C1042.95 1147.06 1048.65 1144.84 1054.02 1141.69C1054.02 1138.71 1053.85 1136.84 1053.85 1136.33C1053.85 1134.88 1053.25 1133.69 1052.65 1132.49H1052.57Z" fill="black"/>
<path d="M1044.82 1128.24C1040.14 1128.49 1036.48 1132.49 1036.73 1137.18C1036.73 1137.18 1036.73 1138.11 1036.73 1139.65C1042.27 1138.2 1047.63 1135.82 1052.4 1132.49C1050.86 1129.85 1047.97 1127.98 1044.74 1128.24H1044.82Z" fill="black"/>
<path d="M803.479 1043.08C781.685 1033.63 755.721 1035.93 735.8 1048.95C715.965 1062.15 703.706 1085.06 703.791 1108.91C703.791 1113.59 707.622 1117.42 712.304 1117.42C716.987 1117.42 720.817 1113.59 720.817 1108.91C720.817 1108.65 720.817 1108.39 720.817 1108.22L712.219 1108.99C712.219 1088.21 723.116 1067.69 740.397 1056.19C757.764 1044.78 780.919 1042.74 799.988 1051C819.057 1059.26 833.444 1077.57 836.85 1098.09L828.337 1098.86C828.337 1098.86 828.422 1099.28 828.507 1099.54C829.273 1104.14 833.615 1107.29 838.297 1106.52C842.894 1105.75 846.044 1101.41 845.277 1096.73C841.361 1073.22 825.357 1052.7 803.393 1043.25L803.479 1043.08Z" fill="black"/>
<path d="M800.072 1050.91C781.003 1042.65 757.848 1044.7 740.481 1056.11C723.2 1067.6 712.218 1088.13 712.303 1108.91L720.901 1108.14C721.072 1090.51 730.521 1072.97 745.163 1063.18C760.146 1053.38 780.322 1051.59 796.667 1058.66C812.927 1065.73 825.271 1081.4 828.335 1098.69L836.848 1097.92C833.443 1077.4 819.056 1059.09 799.987 1050.83L800.072 1050.91Z" fill="black"/>
<path d="M719.37 1141.95C708.899 1132.92 694.171 1126.79 678.082 1124.66C644.2 1120.15 614.064 1135.05 610.999 1157.87C607.935 1180.69 633.048 1203 667.015 1207.52C671.186 1208.03 675.272 1208.37 679.273 1208.37C690.936 1208.37 702.088 1206.07 711.367 1201.64C724.477 1195.42 732.565 1185.72 734.012 1174.31C735.544 1162.89 730.266 1151.4 719.285 1141.95H719.37ZM725.669 1173.2C724.563 1181.63 718.178 1189.04 707.792 1193.98C696.725 1199.17 682.679 1201.05 668.207 1199.09C638.922 1195.17 617.129 1177.2 619.512 1158.98C621.981 1140.75 647.69 1129.09 676.975 1133.09C691.447 1135.05 704.557 1140.5 713.836 1148.42C722.605 1155.91 726.776 1164.68 725.669 1173.2Z" fill="black"/>
<path d="M1143.57 1095.88C1146.98 1075.35 1161.36 1057.04 1180.43 1048.78C1199.5 1040.52 1222.66 1042.57 1240.02 1053.98C1257.3 1065.47 1268.29 1086 1268.2 1106.78L1259.6 1106.01C1259.6 1106.01 1259.6 1106.52 1259.6 1106.69C1259.6 1111.37 1263.35 1115.21 1268.12 1115.21C1272.8 1115.21 1276.63 1111.46 1276.63 1106.69C1276.71 1082.93 1264.46 1059.94 1244.62 1046.74C1224.7 1033.63 1198.74 1031.41 1176.94 1040.86C1154.98 1050.4 1138.97 1070.84 1135.06 1094.34C1134.29 1098.94 1137.44 1103.37 1142.04 1104.14C1146.72 1104.9 1151.06 1101.75 1151.83 1097.15C1151.83 1096.9 1151.91 1096.73 1152 1096.47L1143.49 1095.71L1143.57 1095.88Z" fill="black"/>
<path d="M1240.02 1053.98C1222.66 1042.57 1199.5 1040.52 1180.43 1048.78C1161.36 1057.04 1146.98 1075.35 1143.57 1095.88L1152.09 1096.64C1155.24 1079.27 1167.58 1063.69 1183.75 1056.62C1200.1 1049.55 1220.36 1051.34 1235.26 1061.05C1249.98 1070.84 1259.43 1088.38 1259.6 1106.01L1268.2 1106.78C1268.2 1086 1257.31 1065.48 1240.02 1053.98Z" fill="black"/>
<path d="M1246.41 1172.18C1247.94 1183.59 1255.94 1193.3 1269.05 1199.51C1278.33 1203.94 1289.4 1206.24 1301.15 1206.24C1305.15 1206.24 1309.32 1205.98 1313.41 1205.39C1329.5 1203.26 1344.14 1197.13 1354.69 1188.1C1365.68 1178.65 1370.95 1167.15 1369.42 1155.74C1367.89 1144.33 1359.89 1134.62 1346.78 1128.41C1334.26 1122.44 1318.51 1120.4 1302.42 1122.53C1268.54 1127.04 1243.34 1149.35 1246.41 1172.18ZM1303.53 1131.05C1307.28 1130.53 1311.02 1130.28 1314.77 1130.28C1325.15 1130.28 1335.03 1132.24 1343.12 1136.15C1353.5 1141.09 1359.89 1148.5 1360.99 1156.93C1362.1 1165.36 1357.93 1174.22 1349.16 1181.71C1339.88 1189.63 1326.77 1195.08 1312.3 1197.04C1297.83 1199 1283.78 1197.13 1272.71 1191.93C1262.33 1186.99 1255.94 1179.58 1254.84 1171.15C1252.45 1152.93 1274.25 1134.96 1303.53 1131.05Z" fill="black"/>
</g>
<defs>
<clipPath id="clip0_157_250">
<rect width="1078" height="1899" fill="white" transform="translate(461 51)"/>
</clipPath>
</defs>
</svg>
