<svg width="2000" height="2000" viewBox="0 0 2000 2000" fill="none" xmlns="http://www.w3.org/2000/svg">
<g clip-path="url(#clip0_157_251)">
<path d="M404.787 498.843C423.894 474.926 451.63 433.378 433.756 410.94C418.1 390.968 369.901 406.748 336.249 421.296C322.689 393.064 297.048 349.297 269.929 354.722C239.111 360.64 237.262 416.118 238.988 449.405C208.91 454.213 160.588 466.295 157.999 494.035C155.534 522.76 204.842 542.24 234.55 551.363C233.194 581.321 235.043 641.731 270.052 647.526C271.408 647.772 272.764 647.895 274.12 647.895C302.349 647.895 329.715 600.924 342.535 575.034C377.914 588.102 428.332 601.17 440.412 574.54C451.507 550.13 422.415 516.473 404.54 498.966L404.787 498.843ZM429.441 569.362C418.963 592.54 336.618 559.376 336.618 559.376C336.618 559.376 299.76 639.882 272.271 635.32C240.714 630.142 247.617 542.24 247.617 542.24C247.617 542.24 168.231 520.541 170.45 495.144C172.668 469.871 252.178 460.008 252.178 460.008C252.178 460.008 244.782 372.105 272.394 366.804C297.172 361.996 330.208 437.57 330.208 437.57C330.208 437.57 409.964 400.584 424.14 418.584C440.412 439.173 387.899 499.953 387.899 499.953C387.899 499.953 439.919 546.185 429.441 569.362Z" fill="black"/>
<path d="M387.776 499.953C387.776 499.953 440.29 439.173 424.018 418.584C409.842 400.584 330.086 437.57 330.086 437.57C330.086 437.57 297.049 361.996 272.272 366.804C244.659 372.105 252.055 460.008 252.055 460.008C252.055 460.008 172.546 469.871 170.327 495.145C168.108 520.541 247.494 542.24 247.494 542.24C247.494 542.24 240.591 630.143 272.148 635.321C299.638 639.882 336.496 559.376 336.496 559.376C336.496 559.376 418.84 592.54 429.318 569.363C439.796 546.185 387.776 499.953 387.776 499.953ZM418.471 563.815C411.937 569.116 374.34 561.349 341.18 548.034C335.14 545.568 328.113 548.404 325.401 554.322C308.39 591.307 283.366 624.718 274.244 623.239C262.657 621.389 257.109 579.472 259.821 543.349C260.314 537.432 256.493 532.007 250.823 530.528C213.718 520.295 183.147 503.528 182.654 496.377C183.394 489.473 216.307 477.022 253.658 472.46C260.191 471.597 264.999 465.803 264.382 459.145C260.931 417.721 267.094 380.489 274.614 379.133H274.737C282.133 379.133 303.336 407.242 318.868 442.748C320.224 445.83 322.689 448.173 325.771 449.282C328.853 450.515 332.305 450.392 335.263 448.912C369.409 433.009 407.376 422.529 414.279 426.351C418.717 432.022 403.062 463.46 378.408 492.062C373.97 497.117 374.463 504.884 379.517 509.322C402.815 530.034 421.429 556.787 418.347 563.938L418.471 563.815Z" fill="black"/>
<path d="M1421.28 259.052C1421.28 258.312 1421.03 257.573 1421.28 256.833C1422.14 251.162 1426.7 247.217 1432.12 246.6C1452.22 223.916 1469.23 208.258 1479.09 206.532C1519.89 199.135 2013.59 343.256 1756.33 857.112C1749.3 871.289 1717 874.865 1678.05 873.755C1678.05 877.947 1677.8 882.138 1677.56 886.33C1680.39 886.33 1683.35 886.33 1686.18 886.33C1726.25 886.33 1758.42 880.289 1767.3 862.536C1891.68 614.115 1837.81 455.2 1770.75 365.571C1672.01 233.655 1504.73 189.272 1476.87 194.327C1463.31 196.793 1440.88 217.751 1415.36 247.217C1416.72 252.148 1417.95 256.956 1419.06 261.888C1419.8 260.901 1420.66 259.915 1421.4 259.052H1421.28Z" fill="black"/>
<path d="M1446.79 248.696C1462.82 231.066 1475.02 219.847 1481.31 218.737C1497.21 216.025 1657.83 253.874 1752.88 382.954C1842.62 504.884 1840.03 662.566 1745.36 851.687C1741.9 858.467 1722.3 861.673 1692.72 861.673C1691.24 863.769 1689.76 865.988 1688.16 868.084C1685.69 871.289 1681.99 873.015 1678.3 873.015C1678.3 873.015 1678.17 873.015 1678.05 873.015C1678.05 873.262 1678.05 873.632 1678.05 873.878C1717 875.111 1749.18 871.412 1756.33 857.235C2013.59 343.379 1519.89 199.258 1479.09 206.655C1469.23 208.381 1452.22 224.162 1432.12 246.723C1433.23 246.723 1434.22 246.353 1435.33 246.6C1439.15 247.216 1442.97 248.079 1446.79 248.696Z" fill="black"/>
<path d="M1428.43 269.779C1424.11 267.929 1421.4 263.738 1421.28 259.053C1420.54 259.916 1419.68 260.902 1418.94 261.888C1420.04 267.19 1421.15 272.491 1421.89 277.669C1424.11 274.957 1426.33 272.244 1428.43 269.779Z" fill="black"/>
<path d="M1630.59 370.749L1634.78 367.42C1637.49 365.324 1641.32 365.694 1643.41 368.407C1645.51 371.119 1645.14 374.941 1642.43 377.037L1639.34 379.502C1646.86 387.269 1653.89 395.283 1660.79 403.666C1661.9 402.927 1662.89 402.31 1664 401.57C1666.83 399.721 1670.65 400.461 1672.5 403.296C1674.35 406.132 1673.61 409.954 1670.78 411.803C1670.04 412.296 1669.42 412.666 1668.68 413.159C1687.67 438.063 1703.57 465.432 1715.4 494.651C1732.54 536.938 1741.04 582.307 1741.41 627.8C1743.26 627.43 1745.11 627.06 1746.96 626.69C1750.16 626.074 1753.49 628.17 1754.23 631.622C1754.85 634.95 1752.75 638.156 1749.3 638.896C1746.59 639.389 1744 639.882 1741.29 640.375C1741.04 647.649 1740.67 654.923 1740.18 662.073L1743.26 661.457C1746.59 660.84 1749.79 663.06 1750.41 666.388C1751.03 669.717 1748.81 672.922 1745.48 673.539L1738.82 674.772C1731.8 734.442 1710.59 792.263 1676.32 841.701C1677.06 848.235 1677.56 854.769 1677.93 861.057C1683.1 861.18 1688.04 861.303 1692.72 861.303C1770.01 754.291 1788.13 607.581 1738.33 485.158C1689.02 363.845 1575.37 272.12 1446.79 248.326C1441.12 254.614 1435.08 261.641 1428.55 269.408C1429.54 269.901 1430.52 270.394 1431.63 270.518C1506.46 281.86 1576.35 318.106 1630.59 370.502V370.749Z" fill="black"/>
<path d="M1421.28 256.833C1421.28 257.573 1421.28 258.312 1421.28 259.052C1424.98 254.737 1428.55 250.669 1432 246.724C1426.58 247.34 1422.02 251.285 1421.15 256.956L1421.28 256.833Z" fill="black"/>
<path d="M1678.05 872.892C1678.05 872.892 1678.17 872.892 1678.3 872.892C1682 872.892 1685.69 871.166 1688.16 867.96C1689.76 865.864 1691.12 863.645 1692.72 861.549C1688.04 861.549 1683.11 861.549 1677.93 861.303C1678.05 865.248 1678.17 869.07 1678.05 872.892Z" fill="black"/>
<path d="M1428.43 269.779C1434.96 262.012 1441 254.984 1446.67 248.697C1442.85 247.957 1439.03 247.094 1435.21 246.601C1434.1 246.478 1433.11 246.601 1432 246.724C1428.55 250.669 1424.98 254.738 1421.28 259.053C1421.4 263.738 1424.11 267.929 1428.43 269.779Z" fill="black"/>
<path d="M1540.97 482.323C1542.7 486.145 1544.18 490.09 1545.78 493.912C1564.52 481.584 1583.38 469.255 1602.11 456.926C1624.3 442.379 1646.49 427.831 1668.68 413.283C1666.22 409.955 1663.5 406.872 1660.91 403.667C1639.1 417.968 1617.28 432.393 1595.46 446.694C1577.34 458.529 1559.22 470.488 1541.1 482.323H1540.97Z" fill="black"/>
<path d="M1670.78 411.926C1673.61 410.077 1674.35 406.255 1672.5 403.42C1670.65 400.584 1666.71 399.721 1664 401.694C1662.89 402.433 1661.9 403.05 1660.79 403.79C1663.38 406.995 1666.09 410.077 1668.56 413.406C1669.3 412.913 1669.91 412.543 1670.65 412.05L1670.78 411.926Z" fill="black"/>
<path d="M1579.43 658.869C1583.62 662.074 1587.57 665.526 1591.51 669.102C1641.44 659.609 1691.24 649.992 1741.16 640.376C1741.16 636.184 1741.29 631.992 1741.29 627.801C1687.79 638.157 1634.41 648.39 1580.91 658.622L1579.43 658.869Z" fill="black"/>
<path d="M1741.16 640.375C1743.88 639.882 1746.46 639.389 1749.18 638.896C1752.51 638.28 1754.72 635.074 1754.11 631.622C1753.49 628.293 1750.16 626.074 1746.83 626.691C1744.99 627.061 1743.14 627.43 1741.29 627.8C1741.29 631.992 1741.29 636.184 1741.16 640.375Z" fill="black"/>
<path d="M1611.11 689.32C1613.58 692.156 1615.92 695.115 1618.26 698.073L1738.7 675.019C1739.19 670.704 1739.56 666.512 1739.93 662.197L1615.18 686.115C1613.33 686.485 1611.85 687.717 1610.99 689.32H1611.11Z" fill="black"/>
<path d="M1745.48 673.663C1748.81 673.047 1751.03 669.841 1750.41 666.513C1749.79 663.184 1746.46 660.965 1743.26 661.581L1740.18 662.198C1739.81 666.513 1739.44 670.705 1738.95 675.02L1745.6 673.787L1745.48 673.663Z" fill="black"/>
<path d="M1143.18 1899C1160.68 1899 1178.31 1898.88 1195.69 1898.63C1427.69 1894.93 1693.09 1866.08 1741.91 1796.18C1789.86 1727.63 1789.73 1066.2 1765.94 999.507C1758.79 979.412 1718.61 964.494 1661.53 953.398C1659.81 957.22 1657.96 960.919 1655.99 964.494C1710.35 974.234 1748.32 986.932 1754.36 1003.7C1769.64 1046.36 1774.45 1306.86 1765.7 1517.43C1766.19 1518.17 1766.81 1518.79 1767.05 1519.65C1768.53 1523.72 1767.55 1527.91 1765.08 1531.12C1759.41 1658.59 1748.56 1765.11 1731.8 1789.15C1644.77 1913.67 704.459 1920.21 616.321 1802.34C598.817 1778.92 580.573 1687.69 566.396 1575.99C560.11 1574.02 556.411 1567.36 558.261 1560.83C559.123 1557.75 561.219 1555.4 563.684 1553.8C540.51 1360.36 529.662 1117.37 554.069 1055.48C562.205 1034.89 591.913 1017.63 633.949 1003.21C630.744 1000.12 627.662 997.165 624.827 994.083C582.052 1009.62 551.481 1028.36 542.605 1050.92C503.652 1149.79 553.206 1738.36 606.459 1809.62C653.302 1872.25 901.446 1899 1143.18 1899Z" fill="black"/>
<path d="M573.545 1552.32C574.408 1552.57 575.148 1552.81 576.01 1553.06C552.959 1363.2 540.878 1122.92 565.656 1060.04C572.682 1042.16 601.897 1026.51 644.796 1012.7C641.097 1009.62 637.523 1006.41 634.194 1003.21C592.036 1017.63 562.451 1034.89 554.315 1055.48C529.907 1117.37 540.755 1360.36 563.93 1553.8C566.765 1552.07 570.34 1551.33 573.792 1552.32H573.545Z" fill="black"/>
<path d="M1759.66 1535.31C1757.31 1536.17 1754.97 1536.91 1752.63 1537.77C1746.84 1659.95 1736.6 1760.67 1721.69 1782C1686.93 1831.69 1470.46 1869.53 1195.32 1873.97C903.295 1878.66 664.027 1845.37 626.183 1794.82C610.651 1774.11 593.269 1687.2 579.217 1579.32C575.025 1578.09 570.834 1577.1 566.643 1575.99C566.643 1575.99 566.52 1575.99 566.396 1575.87C580.573 1687.57 598.817 1778.8 616.321 1802.22C704.46 1920.08 1644.77 1913.55 1731.8 1789.03C1748.56 1765.11 1759.41 1658.59 1765.08 1530.99C1763.72 1532.84 1762 1534.44 1759.66 1535.31Z" fill="black"/>
<path d="M1742.77 1007.77C1758.42 1051.53 1762.24 1305.63 1753.74 1511.76C1758.55 1511.14 1763.11 1513.24 1765.7 1517.31C1774.45 1306.86 1769.64 1046.36 1754.35 1003.58C1748.31 986.809 1710.35 974.111 1655.98 964.371C1653.89 968.07 1651.79 971.768 1649.33 975.344C1703.57 984.343 1738.21 995.193 1742.64 1007.77H1742.77Z" fill="black"/>
<path d="M1649.08 950.933C1653.27 951.672 1657.46 952.412 1661.53 953.275C1670.53 933.426 1675.96 910.865 1677.43 886.331C1673.37 886.331 1669.18 886.084 1664.98 885.961C1663.5 909.262 1658.33 931.33 1648.96 951.056L1649.08 950.933Z" fill="black"/>
<path d="M620.636 969.795C617.184 968.562 614.225 965.973 612.993 962.275C612.376 960.549 612.253 958.823 612.376 957.097C566.027 877.207 640.729 808.414 668.588 786.592C664.89 781.538 665.383 774.51 670.19 770.319C671.053 769.579 672.039 768.839 672.902 768.099C590.064 594.513 844.618 491.2 902.679 470.241C900.583 464.077 903.542 457.296 909.705 454.83C910.075 454.707 910.445 454.584 910.815 454.46C874.08 319.216 1085.86 295.422 1178.68 257.82C1298.01 209.615 1277.54 113.205 1277.54 113.205C1357.92 148.342 1392.68 204.683 1406.12 258.189C1409.32 254.368 1412.4 250.669 1415.48 247.094C1400.08 192.848 1363.09 137.123 1282.48 101.863C1278.28 100.014 1273.35 100.753 1269.78 103.589C1266.2 106.425 1264.48 111.109 1265.46 115.671C1266.2 119.246 1281.86 202.834 1174 246.354C1155.14 253.998 1130.61 261.148 1104.72 268.792C1029.4 290.983 935.715 318.599 904.774 379.626C892.94 402.927 891.091 429.31 899.104 458.282C854.48 474.186 697.803 536.815 654.905 644.567C638.14 686.731 640.729 730.744 662.671 775.497C638.633 793.99 584.024 843.057 585.257 906.796C585.873 937.248 599.186 966.466 624.95 993.836C629.141 992.356 633.579 990.877 637.893 989.397C631.36 982.74 625.443 976.083 620.636 969.548V969.795Z" fill="black"/>
<path d="M1572.65 660.224L1579.43 658.992C1569.82 651.471 1559.71 644.814 1549.11 639.512C1565.75 594.02 1564.02 540.144 1545.78 494.035C1542.33 496.254 1538.88 498.473 1535.55 500.816C1551.82 543.226 1553.3 592.664 1537.64 635.321C1539 635.814 1540.23 636.554 1541.34 637.663C1545.16 641.115 1546.15 646.416 1544.55 650.978C1552.68 655.17 1560.45 659.978 1567.97 665.526C1568.34 662.937 1570.19 660.841 1572.9 660.348L1572.65 660.224Z" fill="black"/>
<path d="M1676.32 841.948C1676.08 840.099 1675.95 838.373 1675.71 836.524C1668.8 784.374 1647.85 735.799 1618.39 698.074H1617.65C1617.65 698.074 1616.91 698.32 1616.54 698.32C1613.58 698.32 1611.11 696.224 1610.5 693.266C1610.25 691.786 1610.5 690.43 1611.24 689.197C1605.07 682.047 1598.54 675.266 1591.76 669.102C1589.05 669.595 1586.21 670.211 1583.5 670.704L1576.6 672.06C1629.11 715.704 1662.64 790.661 1665.72 860.811C1665.97 860.811 1666.22 860.811 1666.46 860.811C1666.46 858.099 1667.08 855.386 1668.8 853.167C1671.52 849.469 1674.1 845.647 1676.69 841.948H1676.32Z" fill="black"/>
<path d="M1406.12 384.311C1406.12 384.311 1407.1 384.434 1407.59 384.68C1413.76 387.639 1416.22 395.036 1413.26 401.201C1413.02 401.694 1412.65 402.187 1412.4 402.803C1457.4 406.132 1492.4 429.803 1515.58 463.214C1515.95 462.474 1516.44 461.857 1517.18 461.364L1524.82 455.2C1498.32 417.721 1460.85 395.16 1417.21 390.845C1422.02 369.516 1428.67 328.462 1422.51 282.477C1422.51 283.463 1422.51 284.449 1422.26 285.435C1419.92 294.189 1416.59 302.202 1412.9 309.723C1414 340.914 1409.81 367.79 1406.12 384.557V384.311Z" fill="black"/>
<path d="M1421.89 277.668C1421.89 277.791 1421.89 278.038 1422.02 278.161C1422.02 277.915 1422.02 277.791 1422.02 277.545L1421.89 277.668Z" fill="black"/>
<path d="M1540.97 482.323C1538.26 476.528 1535.06 470.857 1531.73 465.433L1524.95 470.857C1523.96 471.597 1522.73 472.09 1521.62 472.09C1524.95 477.515 1527.91 483.186 1530.62 489.103C1534.07 486.884 1537.52 484.542 1540.97 482.323Z" fill="black"/>
<path d="M1408.46 269.902C1409.69 269.655 1410.92 269.902 1412.16 269.902C1414.37 267.066 1416.72 264.477 1418.94 261.765C1417.83 256.957 1416.72 252.025 1415.24 247.094C1412.16 250.669 1408.95 254.368 1405.87 258.189C1406.86 262.135 1407.72 265.956 1408.46 269.778V269.902Z" fill="black"/>
<path d="M1678.05 873.755C1673.98 873.632 1669.79 873.385 1665.6 873.262C1665.6 877.577 1665.35 881.768 1665.11 885.96C1669.3 886.207 1673.49 886.33 1677.56 886.33C1677.8 882.138 1677.93 877.947 1678.05 873.755Z" fill="black"/>
<path d="M1670.78 870.427C1667.7 868.084 1666.09 864.509 1666.09 860.811C1665.85 860.811 1665.6 860.811 1665.35 860.811C1665.48 865.002 1665.6 869.071 1665.6 873.262C1669.79 873.509 1673.98 873.632 1678.05 873.756C1678.05 873.509 1678.05 873.139 1678.05 872.893C1675.58 872.893 1673 872.03 1670.9 870.427H1670.78Z" fill="black"/>
<path d="M1421.89 277.792C1421.16 272.614 1420.05 267.313 1418.94 262.012C1416.72 264.724 1414.5 267.313 1412.16 270.149C1412.65 270.149 1413.14 270.149 1413.64 270.149C1417.58 271.258 1420.42 274.217 1421.77 277.916L1421.89 277.792Z" fill="black"/>
<path d="M1676.33 841.947C1673.74 845.646 1671.15 849.468 1668.44 853.166C1666.71 855.509 1666.09 858.221 1666.09 860.81C1670.16 861.057 1673.98 861.18 1677.8 861.303C1677.56 854.892 1677.06 848.481 1676.2 841.947H1676.33Z" fill="black"/>
<path d="M1666.09 860.811C1666.09 864.509 1667.7 868.084 1670.78 870.427C1672.87 872.03 1675.46 872.893 1677.93 872.893C1677.93 869.071 1677.93 865.249 1677.8 861.304C1673.98 861.18 1670.16 861.057 1666.09 860.811Z" fill="black"/>
<path d="M1535.43 500.693C1538.88 498.474 1542.33 496.255 1545.66 493.912C1544.06 489.967 1542.7 486.022 1540.85 482.323C1537.4 484.542 1533.95 486.885 1530.5 489.104C1532.22 492.926 1533.82 496.748 1535.43 500.693Z" fill="black"/>
<path d="M1572.65 660.225C1569.94 660.718 1568.09 662.938 1567.72 665.403C1570.56 667.499 1573.52 669.718 1576.23 672.061L1583.13 670.705C1585.84 670.211 1588.68 669.595 1591.39 669.102C1587.45 665.527 1583.38 662.075 1579.31 658.869L1572.53 660.102L1572.65 660.225Z" fill="black"/>
<path d="M1610.37 693.265C1610.99 696.224 1613.46 698.32 1616.41 698.32C1616.78 698.32 1617.15 698.32 1617.52 698.32H1618.26C1615.92 695.238 1613.58 692.279 1611.11 689.443C1610.5 690.676 1610.13 692.032 1610.37 693.512V693.265Z" fill="black"/>
<path d="M1610.99 998.89C1521.62 1068.18 787.666 1092.22 688.31 1029.34C677.215 1022.31 667.6 1015.41 658.848 1008.38C653.917 1009.86 649.233 1011.22 644.672 1012.7C655.643 1021.94 667.847 1030.94 681.776 1039.7C724.675 1066.82 870.38 1079.03 1035.07 1079.03C1277.79 1079.03 1561.81 1052.52 1618.51 1008.63C1630.59 999.259 1640.82 988.04 1649.33 975.342C1644.89 974.602 1640.45 973.863 1635.89 973.246C1628.86 982.862 1620.61 991.492 1610.99 999.013V998.89Z" fill="black"/>
<path d="M634.071 1003.21C638.386 1001.73 642.947 1000.25 647.631 998.768C644.179 995.686 640.974 992.603 637.893 989.645C633.455 991.124 629.14 992.603 624.949 994.083C627.784 997.165 630.866 1000.25 634.071 1003.21Z" fill="black"/>
<path d="M1643.16 962.151C1647.6 962.89 1651.79 963.63 1655.98 964.37C1657.96 960.794 1659.81 957.096 1661.53 953.274C1657.46 952.534 1653.27 951.795 1649.08 950.932C1647.23 954.754 1645.26 958.452 1643.16 962.151Z" fill="black"/>
<path d="M1635.89 973.123C1640.57 973.863 1645.01 974.603 1649.33 975.219C1651.67 971.644 1653.89 968.068 1655.98 964.246C1651.79 963.507 1647.48 962.767 1643.16 962.027C1640.94 965.849 1638.48 969.425 1635.89 973V973.123Z" fill="black"/>
<path d="M658.848 1008.38C654.78 1005.18 651.082 1001.97 647.507 998.768C642.823 1000.25 638.385 1001.73 633.947 1003.21C637.276 1006.41 640.85 1009.62 644.549 1012.7C649.11 1011.22 653.917 1009.74 658.725 1008.38H658.848Z" fill="black"/>
<path d="M926.593 390.968C952.726 339.435 1040.74 313.421 1111.5 292.586C1138 284.819 1163.15 277.422 1183 269.285C1274.22 232.422 1289.5 167.574 1290.61 133.301C1357.79 168.807 1386.02 220.957 1396.13 269.778C1399.34 265.833 1402.54 262.011 1405.75 258.189C1392.43 204.683 1357.55 148.342 1277.17 113.205C1277.17 113.205 1297.64 209.615 1178.31 257.819C1085.49 295.298 873.833 319.092 910.444 454.46C914.389 452.857 918.087 451.501 922.032 450.022C916.238 427.707 917.594 408.228 926.469 390.845L926.593 390.968Z" fill="black"/>
<path d="M677.585 653.937C722.333 541.377 916.114 478.624 917.963 478.008C916.607 478.501 915.374 478.748 914.018 478.748C909.088 478.748 904.527 475.789 902.554 470.981C902.554 470.734 902.554 470.488 902.431 470.364C844.371 491.323 589.817 594.636 672.655 768.223C675.86 765.51 679.065 762.798 682.393 760.332C665.628 723.717 663.902 687.964 677.462 653.937H677.585Z" fill="black"/>
<path d="M620.512 946.618C620.512 946.618 620.635 946.618 620.758 946.618C613.978 933.55 610.157 920.112 609.91 906.673C608.678 844.414 677.339 795.346 685.229 789.922C685.352 789.922 685.475 789.675 685.722 789.552C683.503 791.155 681.037 792.141 678.572 792.141C675.244 792.141 671.915 790.785 669.45 788.072C669.204 787.703 669.08 787.333 668.834 786.963C640.975 808.784 566.396 877.455 612.622 957.467C612.992 952.782 616.074 948.591 620.758 946.865L620.512 946.618Z" fill="black"/>
<path d="M1636.26 948.713C1640.7 949.453 1644.89 950.192 1649.08 950.932C1658.45 931.33 1663.63 909.138 1665.11 885.837C1661.04 885.714 1656.97 885.467 1652.9 885.221C1651.3 909.015 1645.63 930.343 1636.26 948.713Z" fill="black"/>
<path d="M634.934 967.945C632.838 968.685 630.743 969.178 628.77 969.918C627.414 970.411 626.058 970.658 624.702 970.658C623.346 970.658 621.991 970.411 620.758 969.918C625.565 976.452 631.359 983.109 638.016 989.767C642.453 988.287 646.768 986.931 651.452 985.452C645.412 979.657 639.865 973.863 635.057 967.945H634.934Z" fill="black"/>
<path d="M1576.35 672.059L1575 672.305C1575 672.305 1574.26 672.305 1573.89 672.305C1571.05 672.305 1568.46 670.21 1567.85 667.251C1567.72 666.511 1567.85 665.895 1567.85 665.278C1560.33 659.73 1552.56 654.922 1544.42 650.73C1543.93 652.21 1543.07 653.566 1541.96 654.799C1540.11 656.771 1538.14 658.621 1536.29 660.593C1593.98 688.949 1640.7 761.071 1651.3 839.604C1652.16 846.508 1652.66 853.166 1653.03 859.823C1657.34 860.07 1661.41 860.316 1665.48 860.563C1662.39 790.413 1628.99 715.455 1576.35 671.812V672.059Z" fill="black"/>
<path d="M1508.55 474.556C1539.49 522.391 1544.92 588.596 1522.36 639.759C1522.85 639.266 1523.35 638.773 1523.84 638.28C1527.41 634.458 1532.84 633.472 1537.52 635.321C1553.3 592.664 1551.82 543.226 1535.43 500.816C1534.81 501.309 1534.07 501.679 1533.45 502.172C1532.47 502.912 1531.23 503.159 1530.13 503.159C1528.15 503.159 1526.18 502.172 1524.95 500.323C1523.1 497.487 1523.84 493.666 1526.67 491.816C1528.03 490.953 1529.26 490.09 1530.62 489.227C1527.91 483.31 1524.82 477.638 1521.62 472.214C1521.5 472.214 1521.25 472.214 1521.13 472.214C1519.28 472.214 1517.55 471.474 1516.32 469.871C1514.72 467.899 1514.59 465.187 1515.7 463.091C1492.53 429.804 1457.52 406.009 1412.53 402.681C1410.43 406.872 1408.21 410.818 1406.12 414.886C1448.27 416.365 1484.52 437.201 1508.68 474.556H1508.55Z" fill="black"/>
<path d="M1406.11 384.311C1409.81 367.667 1414.13 340.668 1412.89 309.477C1409.44 316.627 1405.37 323.161 1400.94 329.326C1399.95 355.216 1395.51 376.544 1392.55 388.379C1395.76 384.311 1401.06 382.585 1406.11 384.311Z" fill="black"/>
<path d="M1652.9 885.22C1656.97 885.467 1661.04 885.713 1665.11 885.837C1665.35 881.645 1665.6 877.453 1665.6 873.138C1661.53 872.892 1657.34 872.645 1653.15 872.398C1653.15 876.713 1653.15 881.028 1652.9 885.22Z" fill="black"/>
<path d="M1398.23 280.011C1398.23 280.011 1398.47 279.148 1398.6 278.778C1399.95 273.97 1403.9 270.764 1408.46 269.901C1407.72 266.08 1406.86 262.134 1405.87 258.312C1402.66 262.134 1399.58 265.956 1396.25 269.901C1396.99 273.23 1397.61 276.682 1398.1 280.011H1398.23Z" fill="black"/>
<path d="M1665.35 860.81C1661.28 860.563 1657.22 860.317 1652.9 860.07C1653.15 864.262 1653.03 868.33 1653.03 872.399C1657.22 872.645 1661.41 873.015 1665.48 873.139C1665.48 869.07 1665.48 864.878 1665.23 860.687L1665.35 860.81Z" fill="black"/>
<path d="M1526.67 491.693C1523.84 493.542 1523.1 497.364 1524.95 500.199C1526.18 502.049 1528.15 503.035 1530.13 503.035C1531.23 503.035 1532.47 502.665 1533.45 502.049C1534.07 501.555 1534.81 501.186 1535.43 500.692C1533.95 496.747 1532.34 492.925 1530.49 489.104C1529.14 489.967 1527.91 490.83 1526.55 491.693H1526.67Z" fill="black"/>
<path d="M1567.72 667.375C1568.34 670.334 1570.93 672.429 1573.76 672.429C1574.13 672.429 1574.5 672.429 1574.87 672.429L1576.23 672.183C1573.39 669.84 1570.56 667.621 1567.72 665.525C1567.72 666.142 1567.6 666.882 1567.72 667.498V667.375Z" fill="black"/>
<path d="M1603.47 989.15C1519.15 1054.49 788.898 1078.41 694.966 1018.99C687.323 1014.18 680.297 1009.25 673.64 1004.31C668.586 1005.67 663.655 1007.03 658.848 1008.38C667.6 1015.41 677.338 1022.31 688.309 1029.34C787.665 1092.22 1521.62 1068.18 1610.99 998.89C1620.61 991.37 1628.86 982.739 1635.89 973.123C1631.21 972.383 1626.4 971.767 1621.47 971.027C1616.04 977.685 1610.13 983.849 1603.35 989.15H1603.47Z" fill="black"/>
<path d="M651.206 985.328C646.645 986.684 642.207 988.164 637.77 989.643C640.851 992.725 644.056 995.807 647.508 998.766C652.069 997.41 656.753 995.931 661.561 994.575C657.863 991.492 654.534 988.41 651.206 985.328Z" fill="black"/>
<path d="M1629.73 960.055C1634.29 960.672 1638.73 961.411 1643.17 962.151C1645.26 958.576 1647.23 954.754 1649.08 950.932C1644.89 950.192 1640.58 949.453 1636.26 948.713C1634.29 952.658 1632.19 956.48 1629.85 960.055H1629.73Z" fill="black"/>
<path d="M1621.59 971.027C1626.52 971.767 1631.33 972.383 1636.01 973.123C1638.6 969.548 1641.07 965.972 1643.29 962.151C1638.85 961.411 1634.41 960.794 1629.85 960.055C1627.39 963.877 1624.55 967.452 1621.59 971.027Z" fill="black"/>
<path d="M673.641 1004.32C669.327 1001.11 665.382 997.905 661.561 994.699C656.753 996.055 652.069 997.412 647.508 998.891C651.083 1002.1 654.781 1005.3 658.849 1008.51C663.656 1007.15 668.587 1005.79 673.641 1004.44V1004.32Z" fill="black"/>
<path d="M982.311 932.07C1145.77 916.289 1304.54 852.304 1434.96 752.073L1422.26 730.744C1295.05 829.126 1139.73 892.125 979.968 907.536C942.617 911.111 904.157 912.344 866.806 913.454C784.708 916.043 699.898 918.755 620.758 946.494C624.456 953.645 629.263 960.795 634.934 967.946C708.896 943.289 789.515 940.577 867.669 938.111C905.39 936.878 944.343 935.645 982.434 932.07H982.311Z" fill="black"/>
<path d="M1521.74 650.239C1520.51 647.157 1520.63 643.705 1521.99 640.623C1522.11 640.376 1522.24 640.006 1522.36 639.76C1497.21 666.759 1470.34 691.91 1441.86 715.334L1454.56 736.786C1483.41 713.238 1510.77 687.841 1536.29 660.718C1533.7 659.486 1531.11 658.129 1528.52 657.02C1525.44 655.787 1522.98 653.321 1521.74 650.116V650.239Z" fill="black"/>
<path d="M1432.13 722.977C1428.92 725.566 1425.59 728.031 1422.26 730.62L1434.96 751.949C1438.29 749.483 1441.49 746.894 1444.82 744.305L1432.13 722.977Z" fill="black"/>
<path d="M1432.12 722.976L1444.82 744.304C1448.03 741.715 1451.36 739.25 1454.68 736.661L1441.99 715.209C1438.78 717.798 1435.45 720.387 1432.25 722.976H1432.12Z" fill="black"/>
<path d="M612.991 962.274C614.347 965.972 617.183 968.685 620.634 969.794C617.552 965.479 614.84 961.287 612.375 957.096C612.252 958.822 612.375 960.548 612.991 962.274Z" fill="black"/>
<path d="M1541.22 637.54C1540.11 636.553 1538.75 635.814 1537.52 635.197C1536.17 638.773 1534.81 642.225 1533.33 645.677C1537.15 647.279 1540.85 649.005 1544.42 650.855C1546.15 646.293 1545.04 640.992 1541.22 637.54Z" fill="black"/>
<path d="M628.77 969.795C630.866 969.056 632.961 968.563 634.934 967.823C629.263 960.796 624.456 953.645 620.757 946.371C620.757 946.371 620.634 946.371 620.511 946.371C615.827 947.974 612.745 952.289 612.375 956.974C614.84 961.165 617.552 965.357 620.634 969.672C621.867 970.165 623.223 970.412 624.579 970.412C625.935 970.412 627.291 970.165 628.647 969.672L628.77 969.795Z" fill="black"/>
<path d="M1537.52 635.198C1532.96 633.348 1527.41 634.334 1523.84 638.156C1523.35 638.649 1522.85 639.143 1522.36 639.636C1522.24 639.882 1522.11 640.252 1521.99 640.499C1520.63 643.581 1520.51 647.033 1521.74 650.115C1522.98 653.197 1525.44 655.663 1528.52 657.019C1531.11 658.129 1533.7 659.362 1536.29 660.718C1538.14 658.745 1540.11 656.896 1541.96 654.923C1543.07 653.69 1543.93 652.334 1544.42 650.855C1540.73 649.005 1537.03 647.28 1533.33 645.677C1534.93 642.225 1536.29 638.773 1537.52 635.198Z" fill="black"/>
<path d="M823.414 728.032C852.259 720.511 881.721 713.607 910.073 707.073C991.185 688.087 1075.13 668.485 1154.03 632.732C1200.99 611.403 1256.59 580.212 1307 536.569L1294.31 515.117C1245.12 558.514 1190.14 589.459 1143.92 610.417C1067.24 645.184 988.227 663.677 904.526 683.279C875.927 689.936 846.466 696.84 817.25 704.484C768.065 717.306 720.73 731.484 682.516 760.579C684.488 765.017 686.584 769.332 689.049 773.771C690.035 775.62 690.528 777.593 690.528 779.688C690.528 783.51 688.433 787.332 685.351 789.675C685.721 789.428 686.09 789.305 686.46 789.058C722.332 756.511 771.64 741.84 823.291 728.402L823.414 728.032Z" fill="black"/>
<path d="M1405.99 414.886C1404.51 414.886 1403.03 414.64 1401.43 414.64C1397.49 414.64 1393.79 412.79 1391.45 409.585C1389.1 406.379 1388.49 402.188 1389.72 398.489C1390.09 397.503 1391.2 394.051 1392.56 388.503C1392.06 389.119 1391.45 389.736 1391.08 390.476C1370.74 432.146 1343.25 467.529 1312.68 497.734L1325.62 519.556C1356.31 490.09 1384.17 455.447 1405.99 415.009V414.886Z" fill="black"/>
<path d="M1303.55 506.364C1300.47 509.199 1297.39 512.158 1294.31 514.87L1307.01 536.322C1310.21 533.61 1313.29 530.774 1316.37 527.939L1303.55 506.24V506.364Z" fill="black"/>
<path d="M1312.68 497.61C1309.72 500.569 1306.64 503.405 1303.55 506.364L1316.37 528.062C1319.46 525.226 1322.54 522.391 1325.62 519.432L1312.68 497.61Z" fill="black"/>
<path d="M672.901 768.223C672.038 768.962 671.051 769.702 670.189 770.442C665.504 774.757 665.011 781.661 668.586 786.716C674.503 782.031 678.448 779.442 678.448 779.442C676.352 775.62 674.75 771.921 672.901 768.223Z" fill="black"/>
<path d="M1412.53 402.68C1412.53 402.68 1413.14 401.694 1413.39 401.078C1416.35 394.913 1413.88 387.64 1407.72 384.557C1407.23 384.311 1406.73 384.311 1406.24 384.188C1403.77 395.53 1401.55 402.187 1401.55 402.187C1405.25 402.187 1408.95 402.311 1412.53 402.557V402.68Z" fill="black"/>
<path d="M678.324 791.893C680.913 791.893 683.378 790.907 685.474 789.304C688.556 786.962 690.651 783.263 690.651 779.318C690.651 777.222 690.158 775.127 689.172 773.401C686.707 768.962 684.611 764.524 682.639 760.209C679.311 762.675 676.105 765.387 672.9 768.099C674.626 771.798 676.352 775.496 678.448 779.318C678.448 779.318 674.626 781.907 668.586 786.592C668.832 786.962 668.956 787.332 669.202 787.702C671.668 790.414 674.996 791.77 678.324 791.77V791.893Z" fill="black"/>
<path d="M1391.45 409.461C1393.79 412.666 1397.49 414.516 1401.43 414.516C1403.03 414.516 1404.39 414.762 1405.99 414.762C1408.21 410.694 1410.43 406.749 1412.4 402.557C1408.83 402.31 1405.13 402.187 1401.43 402.187C1401.43 402.187 1403.65 395.53 1406.12 384.187C1401.06 382.461 1395.76 384.187 1392.56 388.256C1391.08 393.804 1389.97 397.379 1389.72 398.242C1388.49 402.064 1389.1 406.132 1391.45 409.338V409.461Z" fill="black"/>
<path d="M1422.02 278.285C1422.26 279.641 1422.39 280.997 1422.63 282.354C1422.63 280.997 1422.51 279.641 1422.02 278.285Z" fill="black"/>
<path d="M1215.42 408.105C1234.15 406.502 1269.04 403.543 1305.4 392.324C1313.42 380.736 1322.17 368.53 1331.17 355.955C1301.58 370.38 1262.63 379.379 1213.44 383.571C1105.09 392.818 1019.66 412.42 922.402 450.269C923.388 454.214 924.621 458.159 926.1 462.227C927.209 465.433 927.086 468.885 925.607 471.844C924.128 474.803 921.539 477.022 918.334 478.131C918.581 478.131 918.704 478.131 918.95 478.008C1019.17 437.817 1105.09 417.598 1215.54 408.228L1215.42 408.105Z" fill="black"/>
<path d="M1401.06 329.325C1401.31 321.312 1401.31 312.928 1400.81 304.175C1384.3 325.38 1366.54 349.174 1348.42 374.324C1368.52 363.475 1386.88 348.804 1401.06 329.325Z" fill="black"/>
<path d="M1399.09 286.298C1398.84 284.202 1398.47 282.107 1398.1 280.011C1396.75 284.696 1395.14 289.257 1393.29 293.695C1395.27 291.23 1397.12 288.764 1399.09 286.298Z" fill="black"/>
<path d="M1359.76 338.078C1351.51 344.736 1341.89 350.653 1331.17 355.955C1322.17 368.53 1313.54 380.735 1305.4 392.324C1312.18 390.228 1319.09 387.886 1325.87 385.173C1336.34 370.256 1347.93 354.352 1359.89 338.078H1359.76Z" fill="black"/>
<path d="M1359.76 338.079C1347.81 354.229 1336.34 370.256 1325.74 385.174C1333.38 382.092 1341.03 378.393 1348.42 374.448C1366.54 349.298 1384.3 325.503 1400.81 304.298C1400.44 298.504 1399.83 292.463 1399.09 286.422C1397.12 288.888 1395.27 291.353 1393.29 293.819C1386.02 311.202 1374.93 325.997 1359.64 338.202L1359.76 338.079Z" fill="black"/>
<path d="M910.691 454.584C910.691 454.584 909.951 454.831 909.581 454.954C903.541 457.42 900.582 464.2 902.555 470.365C909.828 467.776 914.265 466.296 914.265 466.296C912.786 462.228 911.677 458.406 910.567 454.584H910.691Z" fill="black"/>
<path d="M1422.39 285.189C1422.63 284.203 1422.51 283.217 1422.63 282.231C1422.51 280.874 1422.26 279.518 1422.02 278.162C1422.02 278.039 1422.02 277.792 1421.89 277.669C1418.57 281.737 1415.11 285.929 1411.66 290.367C1412.4 296.902 1412.77 303.189 1413.02 309.353C1416.72 301.833 1420.04 293.819 1422.39 285.066V285.189Z" fill="black"/>
<path d="M1412.16 270.025C1410.92 269.902 1409.69 269.779 1408.46 270.025C1408.7 271.258 1408.95 272.614 1409.2 273.847C1410.18 272.614 1411.17 271.381 1412.28 270.148L1412.16 270.025Z" fill="black"/>
<path d="M1411.66 290.49C1415.11 286.175 1418.57 281.86 1421.89 277.792C1420.54 274.216 1417.83 271.134 1413.76 270.025C1413.27 269.901 1412.77 270.025 1412.28 270.025C1411.29 271.257 1410.31 272.49 1409.2 273.723C1410.18 279.394 1411.05 284.942 1411.66 290.49Z" fill="black"/>
<path d="M914.142 478.748C915.498 478.748 916.731 478.378 918.087 478.008C921.292 477.022 923.88 474.803 925.36 471.721C926.839 468.762 927.086 465.186 925.853 462.104C924.374 458.036 923.141 454.091 922.155 450.146C918.333 451.625 914.512 452.981 910.567 454.584C911.553 458.406 912.786 462.351 914.265 466.296C914.265 466.296 909.828 467.652 902.555 470.364C902.555 470.611 902.555 470.858 902.678 470.981C904.65 475.789 909.211 478.748 914.142 478.748Z" fill="black"/>
<path d="M1401.06 329.325C1405.5 323.161 1409.44 316.627 1413.02 309.476C1412.77 303.312 1412.4 296.901 1411.66 290.49C1408.09 294.929 1404.51 299.49 1400.94 304.175C1401.43 312.928 1401.43 321.312 1401.18 329.325H1401.06Z" fill="black"/>
<path d="M1398.6 278.778C1398.6 278.778 1398.35 279.641 1398.23 280.011C1398.6 282.107 1398.84 284.203 1399.21 286.298C1402.54 281.983 1405.99 277.792 1409.32 273.723C1409.07 272.49 1408.83 271.134 1408.58 269.901C1404.02 270.641 1400.08 273.97 1398.72 278.778H1398.6Z" fill="black"/>
<path d="M1411.66 290.49C1411.05 284.943 1410.18 279.395 1409.2 273.724C1405.87 277.792 1402.54 281.984 1399.09 286.299C1399.95 292.34 1400.44 298.381 1400.81 304.175C1404.51 299.49 1408.09 294.929 1411.54 290.49H1411.66Z" fill="black"/>
<path d="M1531.73 465.433L1639.47 379.502C1636.63 376.543 1633.55 373.708 1630.59 370.749L1524.95 455.077C1526.43 457.172 1527.91 459.022 1529.26 461.118C1530.12 462.474 1530.86 464.076 1531.73 465.433Z" fill="black"/>
<path d="M1639.47 379.503L1642.55 377.037C1645.14 374.941 1645.63 370.996 1643.53 368.407C1641.44 365.695 1637.49 365.325 1634.91 367.421L1630.71 370.75C1633.67 373.585 1636.76 376.421 1639.59 379.503H1639.47Z" fill="black"/>
<path d="M1515.7 463.091C1517.8 466.05 1519.65 469.008 1521.62 472.091C1522.85 472.091 1523.96 471.597 1524.95 470.858L1531.73 465.433C1530.87 464.077 1530.25 462.474 1529.26 461.118C1527.91 459.022 1526.3 457.05 1524.95 455.077L1517.31 461.241C1516.69 461.735 1516.2 462.351 1515.7 463.091Z" fill="black"/>
<path d="M1516.2 469.871C1517.43 471.351 1519.15 472.214 1521 472.214C1521.13 472.214 1521.37 472.214 1521.5 472.214C1519.65 469.132 1517.67 466.049 1515.58 463.214C1514.47 465.31 1514.59 468.022 1516.2 469.995V469.871Z" fill="black"/>
<path d="M576.01 1552.94C577.119 1561.81 578.229 1570.69 579.338 1579.32C748.465 1626.66 923.879 1650.46 1099.42 1650.46C1321.43 1650.46 1543.44 1612.73 1752.63 1537.77C1753 1529.14 1753.37 1520.51 1753.74 1511.76C1752.87 1511.76 1752.01 1511.76 1751.27 1512.13C1376.41 1648.11 959.135 1662.66 576.01 1552.94Z" fill="black"/>
<path d="M1767.05 1519.53C1766.68 1518.66 1766.19 1518.05 1765.69 1517.31C1765.45 1521.87 1765.32 1526.55 1765.08 1531.11C1767.54 1527.91 1768.53 1523.72 1767.05 1519.65V1519.53Z" fill="black"/>
<path d="M558.26 1560.7C556.411 1567.12 560.109 1573.77 566.396 1575.87C565.41 1568.6 564.547 1561.2 563.684 1553.8C561.219 1555.4 559.123 1557.75 558.26 1560.83V1560.7Z" fill="black"/>
<path d="M1753.86 1511.76C1753.49 1520.51 1753.12 1529.14 1752.75 1537.77C1755.09 1536.91 1757.44 1536.17 1759.78 1535.31C1762.12 1534.44 1763.85 1532.84 1765.2 1530.99C1765.45 1526.43 1765.57 1521.87 1765.82 1517.18C1763.23 1513.11 1758.67 1511.02 1753.86 1511.64V1511.76Z" fill="black"/>
<path d="M579.339 1579.32C578.23 1570.69 577.12 1561.81 576.011 1552.94C575.148 1552.69 574.408 1552.44 573.545 1552.2C570.094 1551.21 566.519 1551.83 563.684 1553.68C564.546 1561.07 565.533 1568.47 566.396 1575.74C566.396 1575.74 566.519 1575.74 566.642 1575.87C570.833 1577.1 575.024 1578.09 579.216 1579.2L579.339 1579.32Z" fill="black"/>
<path d="M1156.12 1315.24C1156.12 1315.24 1155.88 1315.49 1155.88 1315.61C1154.52 1318.57 1152.67 1321.28 1150.82 1323.87L1155.14 1323.13C1154.64 1320.42 1154.89 1317.71 1156.12 1315.24Z" fill="black"/>
<path d="M1176.09 1312.53C1176.09 1312.53 1176.34 1312.9 1176.46 1313.15C1176.34 1312.9 1176.22 1312.78 1176.09 1312.53Z" fill="black"/>
<path d="M1066.38 1340.27C1066.38 1340.27 1065.89 1339.78 1065.64 1339.53L1068.11 1339.04C1070.08 1337.56 1072.42 1336.57 1075.01 1336.57C1075.01 1336.57 1075.01 1336.57 1075.13 1336.57C1076.24 1336.57 1077.23 1336.94 1078.22 1337.19L1081.54 1336.57C1078.96 1334.84 1076.49 1332.87 1074.27 1330.78C1069.46 1325.97 1061.57 1326.09 1056.89 1330.9C1052.08 1335.71 1052.21 1343.6 1057.01 1348.28C1058.86 1350.13 1060.84 1351.86 1062.93 1353.46C1062.93 1351.12 1062.93 1349.51 1062.93 1349.02C1062.93 1345.57 1064.29 1342.49 1066.51 1340.15L1066.38 1340.27Z" fill="black"/>
<path d="M1123.09 1368.99C1140.1 1365.79 1155.75 1356.3 1167.09 1342.98C1164.38 1339.78 1161.79 1336.32 1159.57 1332.75C1149.84 1345.2 1135.91 1354.08 1120.74 1356.91C1109.65 1359.01 1098.06 1357.65 1087.46 1353.58C1087.58 1357.65 1087.83 1362.09 1088.2 1366.9C1095.35 1369.12 1102.75 1370.23 1110.02 1370.23C1114.33 1370.23 1118.77 1369.86 1123.09 1368.99Z" fill="black"/>
<path d="M1087.34 1348.9C1087.34 1350.38 1087.34 1351.98 1087.34 1353.58C1097.94 1357.65 1109.53 1359.01 1120.62 1356.91C1135.78 1354.08 1149.71 1345.2 1159.45 1332.75C1158.09 1330.53 1156.86 1328.31 1155.75 1325.84C1155.38 1324.98 1155.26 1323.99 1155.01 1323.01L1150.7 1323.75C1142.81 1334.47 1131.22 1342.24 1118.4 1344.58C1105.83 1346.93 1092.27 1343.84 1081.42 1336.45L1078.09 1337.06C1083.27 1338.42 1087.21 1342.98 1087.34 1348.65V1348.9Z" fill="black"/>
<path d="M1065.52 1339.65C1065.52 1339.65 1066.01 1340.15 1066.26 1340.39C1066.75 1339.9 1067.37 1339.65 1067.86 1339.28L1065.39 1339.78L1065.52 1339.65Z" fill="black"/>
<path d="M1258.44 1330.41C1256.34 1332.63 1254 1334.48 1251.53 1336.2L1267.31 1339.04C1264.97 1341.5 1262.26 1343.6 1259.55 1345.57C1260.53 1347.3 1261.27 1349.15 1261.39 1351.24C1261.39 1351.86 1261.52 1354.69 1261.64 1359.01C1266.82 1355.8 1271.75 1352.1 1276.06 1347.67C1280.87 1342.86 1280.75 1334.97 1275.94 1330.28C1271.01 1325.48 1263.24 1325.6 1258.56 1330.41H1258.44Z" fill="black"/>
<path d="M1172.27 1309.82C1173.75 1310.56 1174.98 1311.54 1175.97 1312.65C1172.39 1308.71 1166.72 1307.23 1161.67 1309.57C1160.56 1310.06 1159.7 1310.93 1158.83 1311.67C1162.41 1308.46 1167.71 1307.6 1172.27 1309.82Z" fill="black"/>
<path d="M1212.7 1356.54C1197.91 1353.83 1184.11 1345.08 1174.49 1332.75C1172.27 1336.32 1169.81 1339.78 1167.09 1342.98C1178.31 1356.17 1193.84 1365.54 1210.48 1368.62C1214.68 1369.36 1218.99 1369.73 1223.18 1369.73C1227.74 1369.73 1232.43 1369.24 1236.86 1368.38C1236.86 1362.71 1236.86 1358.51 1236.74 1355.8C1228.85 1357.65 1220.59 1357.9 1212.7 1356.54Z" fill="black"/>
<path d="M1178.93 1322.89L1182.99 1323.63C1181.15 1321.04 1179.42 1318.32 1178.06 1315.49C1177.69 1314.63 1176.95 1314.01 1176.34 1313.27C1178.56 1315.98 1179.42 1319.43 1178.8 1323.01L1178.93 1322.89Z" fill="black"/>
<path d="M1155.14 1323.13L1166.97 1320.91C1165 1325.1 1162.41 1329.05 1159.57 1332.75C1161.79 1336.45 1164.26 1339.77 1167.09 1342.98C1169.81 1339.77 1172.39 1336.32 1174.49 1332.75C1171.53 1329.05 1169.07 1324.98 1166.97 1320.67L1178.93 1322.88C1179.54 1319.43 1178.68 1315.86 1176.46 1313.15C1176.34 1312.9 1176.22 1312.78 1176.09 1312.53C1175.11 1311.42 1173.87 1310.43 1172.39 1309.69C1167.71 1307.47 1162.53 1308.46 1158.96 1311.54C1157.85 1312.53 1156.99 1313.76 1156.25 1315.12C1155.01 1317.58 1154.77 1320.17 1155.26 1323.01L1155.14 1323.13Z" fill="black"/>
<path d="M1155.14 1323.13C1155.38 1324.12 1155.38 1324.98 1155.88 1325.97C1156.99 1328.31 1158.22 1330.65 1159.57 1332.87C1162.41 1329.17 1165 1325.23 1166.97 1321.04L1155.14 1323.26V1323.13Z" fill="black"/>
<path d="M1178.19 1326.21C1177.08 1328.43 1175.85 1330.65 1174.61 1332.75C1184.23 1345.08 1198.03 1353.83 1212.83 1356.54C1220.72 1358.02 1228.98 1357.65 1236.86 1355.8C1236.86 1353.95 1236.86 1352.6 1236.86 1352.47C1236.5 1345.69 1241.67 1339.9 1248.58 1339.53C1253.51 1339.28 1257.45 1341.75 1259.67 1345.57C1262.38 1343.6 1265.09 1341.5 1267.44 1339.04L1251.66 1336.2C1241.06 1343.6 1227.74 1346.8 1215.17 1344.46C1202.6 1342.12 1191.01 1334.35 1183.24 1323.62L1179.17 1322.88C1179.05 1323.99 1178.8 1325.1 1178.31 1326.21H1178.19Z" fill="black"/>
<path d="M1178.93 1322.89L1166.97 1320.67C1169.07 1324.98 1171.53 1329.05 1174.49 1332.75C1175.72 1330.65 1177.08 1328.43 1178.07 1326.21C1178.56 1325.1 1178.68 1323.99 1178.93 1322.89Z" fill="black"/>
<path d="M1202.1 1504.61C1192.36 1514.97 1180.78 1520.02 1166.85 1520.02C1110.51 1520.02 1092.02 1422.01 1088.2 1366.9C1079.08 1364.06 1070.45 1359.62 1062.81 1353.58C1063.79 1383.17 1073.53 1544.68 1166.72 1544.68C1187.43 1544.68 1205.31 1536.79 1219.85 1521.5C1260.66 1478.35 1261.89 1386.25 1261.4 1359.01C1253.75 1363.57 1245.37 1366.9 1236.74 1368.5C1236.62 1400.43 1232.67 1472.06 1201.98 1504.61H1202.1Z" fill="black"/>
<path d="M1075.01 1336.69C1075.01 1336.69 1075.01 1336.69 1074.89 1336.69C1072.3 1336.69 1069.96 1337.8 1067.98 1339.16L1078.22 1337.31C1077.23 1337.06 1076.24 1336.69 1075.13 1336.69H1075.01Z" fill="black"/>
<path d="M1087.46 1353.58C1079.69 1350.63 1072.42 1346.19 1066.26 1340.27C1064.04 1342.49 1062.56 1345.69 1062.68 1349.15C1062.68 1349.76 1062.68 1351.37 1062.68 1353.58C1070.2 1359.63 1078.95 1364.06 1088.08 1366.9C1087.71 1362.09 1087.46 1357.65 1087.34 1353.58H1087.46Z" fill="black"/>
<path d="M1078.21 1337.31L1067.98 1339.16C1067.98 1339.16 1066.87 1339.78 1066.38 1340.27C1072.54 1346.06 1079.69 1350.5 1087.58 1353.58C1087.58 1351.98 1087.58 1350.38 1087.58 1348.9C1087.58 1343.23 1083.64 1338.79 1078.34 1337.31H1078.21Z" fill="black"/>
<path d="M1259.42 1345.57C1252.64 1350.5 1244.88 1353.95 1236.74 1355.8C1236.74 1358.52 1236.87 1362.83 1236.87 1368.38C1245.49 1366.78 1253.88 1363.45 1261.52 1358.89C1261.52 1354.57 1261.27 1351.73 1261.27 1351.12C1261.27 1349.02 1260.41 1347.17 1259.42 1345.45V1345.57Z" fill="black"/>
<path d="M1248.33 1339.53C1241.55 1339.9 1236.37 1345.69 1236.62 1352.47C1236.62 1352.47 1236.62 1353.95 1236.62 1355.8C1244.75 1353.95 1252.52 1350.5 1259.3 1345.57C1257.08 1341.87 1253.14 1339.28 1248.21 1339.53H1248.33Z" fill="black"/>
<path d="M920.552 1235.11C884.434 1235.11 855.219 1264.32 855.219 1300.45C855.219 1336.57 884.434 1365.79 920.552 1365.79C956.67 1365.79 985.886 1336.57 985.886 1300.45C985.886 1264.32 956.67 1235.11 920.552 1235.11ZM901.445 1307.72C890.844 1307.72 882.338 1299.21 882.338 1288.61C882.338 1278.01 890.844 1269.5 901.445 1269.5C912.047 1269.5 920.552 1278.01 920.552 1288.61C920.552 1299.21 912.047 1307.72 901.445 1307.72Z" fill="black"/>
<path d="M1397.61 1234.61C1361.49 1234.61 1332.28 1263.83 1332.28 1299.95C1332.28 1336.08 1361.49 1365.3 1397.61 1365.3C1433.73 1365.3 1462.94 1336.08 1462.94 1299.95C1462.94 1263.83 1433.73 1234.61 1397.61 1234.61ZM1378.5 1307.35C1367.9 1307.35 1359.39 1298.85 1359.39 1288.24C1359.39 1277.64 1367.9 1269.13 1378.5 1269.13C1389.1 1269.13 1397.61 1277.64 1397.61 1288.24C1397.61 1298.85 1389.1 1307.35 1378.5 1307.35Z" fill="black"/>
<path d="M1486.86 1386.99C1486.86 1420.03 1533.21 1445.92 1592.25 1445.92C1651.3 1445.92 1697.65 1420.03 1697.65 1386.99C1697.65 1353.95 1651.3 1328.06 1592.25 1328.06C1533.21 1328.06 1486.86 1353.95 1486.86 1386.99ZM1685.32 1386.99C1685.32 1412.27 1642.67 1433.6 1592.25 1433.6C1541.84 1433.6 1499.18 1412.27 1499.18 1386.99C1499.18 1361.72 1541.84 1340.39 1592.25 1340.39C1642.67 1340.39 1685.32 1361.72 1685.32 1386.99Z" fill="black"/>
<path d="M773.736 1330.78C714.69 1330.78 668.34 1356.67 668.34 1389.71C668.34 1422.75 714.69 1448.64 773.736 1448.64C832.783 1448.64 879.133 1422.75 879.133 1389.71C879.133 1356.67 832.783 1330.78 773.736 1330.78ZM773.736 1436.31C723.319 1436.31 680.667 1414.98 680.667 1389.71C680.667 1364.43 723.319 1343.1 773.736 1343.1C824.154 1343.1 866.806 1364.43 866.806 1389.71C866.806 1414.98 824.154 1436.31 773.736 1436.31Z" fill="black"/>
</g>
<defs>
<clipPath id="clip0_157_251">
<rect width="1684" height="1798" fill="white" transform="translate(158 101)"/>
</clipPath>
</defs>
</svg>
