<svg width="2000" height="2000" viewBox="0 0 2000 2000" fill="none" xmlns="http://www.w3.org/2000/svg">
<g clip-path="url(#clip0_157_252)">
<path d="M1771.78 1260.51C1762.53 1242.03 1747.97 1220.05 1731.29 1223.34C1712.38 1227.06 1709.72 1255.95 1710.57 1278.25C1690.7 1281.75 1665.73 1289.51 1664.35 1306.71C1662.76 1324.45 1688.26 1336.13 1708.23 1342.5C1707.7 1361.4 1709.93 1395.07 1731.72 1398.57C1732.67 1398.68 1733.63 1398.79 1734.69 1398.79C1751.38 1398.79 1766.36 1376.27 1775.71 1357.79C1799.62 1366.29 1826.07 1371.07 1833.41 1354.5C1839.99 1339.63 1825.65 1321.05 1814.28 1309.47C1826.71 1293.44 1839.89 1270.81 1828.94 1257.11C1820.87 1246.92 1801.74 1248.09 1771.78 1260.62V1260.51ZM1820.55 1263.59C1829.9 1275.38 1799.72 1310.32 1799.72 1310.32C1799.72 1310.32 1829.58 1336.87 1823.63 1350.15C1817.68 1363.53 1770.29 1344.41 1770.29 1344.41C1770.29 1344.41 1749.14 1390.61 1733.31 1388.06C1715.14 1385.09 1719.18 1334.64 1719.18 1334.64C1719.18 1334.64 1673.59 1322.11 1674.87 1307.56C1676.04 1292.9 1721.73 1287.28 1721.73 1287.28C1721.73 1287.28 1717.48 1236.83 1733.31 1233.75C1747.55 1230.99 1766.57 1274.42 1766.57 1274.42C1766.57 1274.42 1812.37 1253.18 1820.55 1263.59Z" fill="black"/>
<path d="M1733.31 1233.75C1717.48 1236.83 1721.73 1287.28 1721.73 1287.28C1721.73 1287.28 1676.04 1292.91 1674.87 1307.56C1673.59 1322.11 1719.18 1334.64 1719.18 1334.64C1719.18 1334.64 1715.14 1385.09 1733.31 1388.06C1749.14 1390.61 1770.29 1344.41 1770.29 1344.41C1770.29 1344.41 1817.68 1363.53 1823.63 1350.15C1829.58 1336.87 1799.72 1310.32 1799.72 1310.32C1799.72 1310.32 1829.9 1275.38 1820.55 1263.59C1812.37 1253.19 1766.57 1274.43 1766.57 1274.43C1766.57 1274.43 1747.55 1230.99 1733.31 1233.75ZM1771.03 1284.09C1786.55 1276.98 1804.18 1271.45 1811.52 1271.35C1810.14 1277.83 1801.42 1292.06 1791.65 1303.42C1787.82 1307.77 1788.35 1314.46 1792.6 1318.29C1802.7 1327.21 1811.94 1339.1 1813.64 1344.31C1806.74 1344.84 1789.42 1340.7 1774.22 1334.54C1768.91 1332.41 1762.96 1334.86 1760.62 1339.95C1752.33 1358.01 1739.47 1376.27 1735.33 1377.65C1731.51 1375.21 1728.21 1355.78 1729.8 1335.49C1730.23 1330.4 1726.94 1325.72 1722.05 1324.45C1706.64 1320.2 1690.91 1312.98 1686.35 1308.41C1691.34 1304.59 1707.92 1299.7 1723.11 1297.79C1728.74 1297.05 1732.89 1292.06 1732.36 1286.32C1730.97 1269.54 1732.57 1250.85 1735.54 1245.01C1740.86 1248.94 1750.31 1263.81 1756.79 1278.67C1757.96 1281.33 1760.09 1283.35 1762.74 1284.3C1765.4 1285.37 1768.38 1285.15 1770.93 1283.98L1771.03 1284.09Z" fill="black"/>
<path d="M356.751 448.493C382.359 443.183 430.493 429.589 431.025 402.508C431.45 378.718 386.397 361.514 353.244 352.062C360.364 323.706 368.333 276.021 345.806 263.702C320.092 249.577 283.858 291.951 266.963 314.679C244.543 301.51 199.703 279.207 181.32 297.899C162.406 317.015 187.164 361.195 203.209 385.303C186.102 404.313 148.806 451.042 170.588 476.106C189.077 497.346 241.356 477.699 267.07 466.229C280.989 490.23 306.172 527.295 329.018 527.295C332.099 527.295 335.074 526.658 338.05 525.171C360.682 514.126 359.301 471.539 356.751 448.493ZM333.374 515.613C311.698 526.233 271.533 452.423 271.533 452.423C271.533 452.423 196.09 489.062 178.664 469.096C158.794 446.263 216.81 386.259 216.81 386.259C216.81 386.259 171.863 322.538 188.864 305.333C205.759 288.128 269.832 328.803 269.832 328.803C269.832 328.803 317.436 260.197 340.706 272.941C361.639 284.411 340.281 359.496 340.281 359.496C340.281 359.496 420.824 380.418 420.399 402.295C419.868 427.146 344.85 439.891 344.85 439.891C344.85 439.891 355.051 504.992 333.374 515.613Z" fill="black"/>
<path d="M344.849 439.891C344.849 439.891 419.867 427.147 420.398 402.296C420.823 380.418 340.28 359.496 340.28 359.496C340.28 359.496 361.638 284.412 340.705 272.942C317.435 260.198 269.832 328.804 269.832 328.804C269.832 328.804 205.759 288.129 188.864 305.333C171.862 322.538 216.809 386.259 216.809 386.259C216.809 386.259 158.793 446.263 178.663 469.097C196.089 489.063 271.532 452.423 271.532 452.423C271.532 452.423 311.697 526.233 333.373 515.613C355.05 504.993 344.849 439.891 344.849 439.891ZM334.33 441.484C338.58 468.566 336.986 501.913 328.804 505.949C321.898 506.905 299.371 481.31 280.882 447.219C278.97 443.715 275.357 441.697 271.532 441.697C269.938 441.697 268.344 442.015 266.856 442.759C231.154 460.07 193.008 469.203 186.632 461.981C178.663 452.848 200.233 418.545 224.46 393.481C227.966 389.764 228.391 384.135 225.522 379.993C203.527 348.664 191.626 317.547 196.514 312.661C201.402 307.67 232.748 317.653 264.2 337.619C268.982 340.699 275.357 339.424 278.651 334.751C299.902 304.059 328.167 278.04 335.711 282.181C341.768 285.474 340.705 319.458 330.186 356.523C329.442 359.284 329.761 362.258 331.142 364.7C332.523 367.143 334.967 368.948 337.73 369.692C373.326 378.931 407.753 394.543 409.879 401.977C409.666 410.261 377.258 423.536 343.149 429.377C337.411 430.333 333.586 435.749 334.436 441.484H334.33Z" fill="black"/>
<path d="M283.964 1204.12C287.258 1201.89 289.064 1197.85 288.427 1193.71C287.895 1190.53 285.983 1188.08 283.326 1186.49C284.92 1188.08 286.089 1189.46 286.514 1190.63C287.258 1192.44 286.301 1197.11 283.964 1204.12Z" fill="black"/>
<path d="M267.389 1186.6C271.426 1189.57 274.402 1192.01 275.996 1193.82C275.57 1196.69 274.083 1201.36 271.851 1207.41L279.715 1206.03C281.308 1205.71 282.69 1205.08 283.965 1204.23C286.302 1197.11 287.259 1192.44 286.515 1190.74C286.09 1189.68 284.921 1188.19 283.327 1186.6C281.202 1185.32 278.758 1184.68 276.102 1185.11L267.389 1186.6Z" fill="black"/>
<path d="M935.108 1607.26C1017.67 1524.11 1098.74 1439.36 1156.65 1378.18C1154.32 1375.42 1152.19 1372.45 1150.39 1369.37C1114.05 1407.71 1068.46 1455.61 1018.84 1506.79C1018.63 1508.81 1018.52 1510.94 1018.31 1512.95C1017.99 1515.72 1015.76 1517.73 1012.99 1517.73C1012.78 1517.73 1012.57 1517.73 1012.46 1517.73C1011.29 1517.63 1010.44 1517.1 1009.59 1516.35C960.079 1567.22 907.056 1620.96 855.628 1671.51C855.628 1673.74 855.628 1676.08 855.628 1678.31C855.628 1681.18 853.184 1683.51 850.315 1683.51C848.509 1683.51 846.915 1682.45 846.065 1681.07C816.525 1710.07 787.517 1737.78 760.209 1763.27C759.678 1764.44 758.615 1765.4 757.34 1765.93C667.765 1849.3 595.936 1907.28 577.234 1899.1C554.389 1889.12 562.146 1757.96 580.422 1599.83C579.997 1594.41 579.466 1589.1 579.253 1583.69C579.253 1581.24 580.741 1579.22 582.972 1578.48C598.486 1448.81 620.268 1304.27 637.695 1194.67C636.313 1194.56 635.038 1193.92 634.082 1192.76C632.275 1190.42 632.701 1187.13 635.038 1185.32C636.632 1184.15 638.226 1182.99 639.82 1181.82C647.258 1135.3 653.846 1095.79 658.627 1067.44C655.014 1067.86 651.402 1068.07 647.683 1068.29C634.932 1144.33 610.068 1296.2 589.135 1448.28C528.462 1889.23 558.533 1902.5 573.09 1908.88C575.322 1909.83 577.978 1911 582.016 1911C603.799 1911 667.022 1877.86 935.533 1607.26H935.108Z" fill="black"/>
<path d="M755.215 1766.35C752.984 1766.35 750.859 1764.87 750.115 1762.64C749.796 1761.57 749.477 1760.41 749.159 1759.34C716.325 1789.93 686.998 1816.27 662.346 1837.08C662.559 1839.1 661.603 1841.12 659.69 1842.18C658.84 1842.61 657.99 1842.82 657.034 1842.82C656.609 1842.82 656.183 1842.61 655.652 1842.5C619.419 1872.45 593.811 1889.76 583.079 1889.65C582.654 1889.65 582.122 1889.65 581.803 1889.65C570.434 1879.56 570.859 1812.87 579.572 1712.19C579.253 1712.19 578.935 1712.19 578.509 1712.19C575.534 1712.08 573.303 1709.64 573.409 1706.67C573.515 1703.69 575.959 1701.57 578.935 1701.57C579.466 1701.57 579.997 1701.57 580.528 1701.57C582.016 1684.9 583.716 1667.27 585.629 1648.89C583.079 1632.64 581.378 1616.18 580.21 1599.83C561.933 1757.86 554.177 1889.12 577.022 1899.11C595.723 1907.28 667.553 1849.3 757.128 1765.93C757.022 1765.93 756.915 1766.03 756.809 1766.14C756.278 1766.35 755.746 1766.35 755.215 1766.35Z" fill="black"/>
<path d="M589.666 1583.26C589.878 1589.1 590.516 1594.94 590.941 1600.78C592.11 1590.8 593.278 1580.5 594.554 1570.2C594.554 1570.2 593.703 1570.41 593.172 1570.41C590.835 1570.41 588.603 1568.82 588.072 1566.38C587.328 1563.51 589.028 1560.64 591.897 1559.9L595.935 1558.83C603.373 1497.66 612.299 1431.07 622.499 1361.41C621.755 1361.72 620.905 1361.94 620.162 1362.26C619.524 1362.47 618.886 1362.57 618.249 1362.57C616.124 1362.57 614.105 1361.3 613.255 1359.18C612.192 1356.41 613.574 1353.33 616.336 1352.38C618.993 1351.42 621.649 1350.47 624.306 1349.51C631.956 1296.94 640.35 1242.78 649.17 1188.08C646.62 1190 643.963 1191.91 641.413 1193.82C640.457 1194.56 639.288 1194.88 638.119 1194.88C637.906 1194.88 637.694 1194.77 637.588 1194.77C620.162 1304.38 598.379 1448.81 582.865 1578.59C583.29 1578.48 583.822 1578.27 584.247 1578.27C587.222 1578.27 589.666 1580.39 589.772 1583.37L589.666 1583.26Z" fill="black"/>
<path d="M845.003 1667.37C814.082 1697.64 784.861 1725.78 757.766 1751.27C758.616 1754.03 759.359 1756.69 760.21 1759.45C760.635 1760.72 760.422 1762.11 759.891 1763.27C787.199 1737.78 816.101 1709.96 845.747 1681.07C845.215 1680.22 844.79 1679.27 844.79 1678.21C844.79 1674.59 844.79 1671.09 844.896 1667.48L845.003 1667.37Z" fill="black"/>
<path d="M669.252 1065.95L668.083 1066.16C664.789 1066.69 661.601 1067.12 658.308 1067.54C653.526 1095.9 646.938 1135.41 639.5 1181.92C643.432 1178.95 647.363 1176.08 651.401 1173.22C657.139 1137.53 663.089 1101.74 669.252 1065.95Z" fill="black"/>
<path d="M1007.68 1511.79C1008 1508.71 1008.21 1505.73 1008.53 1502.65C958.803 1553.84 910.456 1602.7 865.19 1647.51C866.996 1647.73 868.697 1648.79 869.44 1650.59C870.609 1653.25 869.44 1656.43 866.678 1657.6C863.065 1659.2 859.346 1660.58 855.627 1662.06C855.627 1665.25 855.627 1668.33 855.627 1671.52C907.162 1620.86 960.184 1567.22 1009.59 1516.35C1008.32 1515.29 1007.57 1513.7 1007.68 1511.89V1511.79Z" fill="black"/>
<path d="M1145.82 1359.07C1121.48 1384.88 1097.15 1410.47 1072.92 1435.75C1075.37 1435.75 1077.7 1437.13 1078.34 1439.57C1079.09 1442.44 1077.39 1445.31 1074.52 1446.05L1059.32 1449.98C1046.25 1463.57 1033.18 1477.06 1020.33 1490.44C1019.79 1495.86 1019.37 1501.27 1018.84 1506.69C1068.46 1455.5 1114.15 1407.71 1150.38 1369.26C1149.43 1367.67 1148.58 1366.08 1147.83 1364.38C1146.98 1362.57 1146.45 1360.77 1145.82 1358.96V1359.07Z" fill="black"/>
<path d="M784.966 1107.9C753.089 1117.67 722.168 1130.73 693.054 1146.98C692.629 1151.23 692.416 1155.48 692.098 1159.83C723.018 1141.99 756.064 1127.65 790.279 1117.46C788.473 1114.38 786.667 1111.19 785.073 1108.01L784.966 1107.9Z" fill="black"/>
<path d="M681.898 1153.36C671.484 1159.52 661.284 1166.1 651.295 1173.11C650.445 1178.1 649.702 1182.99 648.852 1187.98C659.159 1180.33 669.89 1173.11 680.835 1166.31C681.154 1161.96 681.472 1157.71 681.791 1153.36H681.898Z" fill="black"/>
<path d="M634.72 1185.32C632.382 1187.13 631.957 1190.42 633.763 1192.76C634.72 1193.92 635.995 1194.56 637.376 1194.67C638.12 1190.31 638.757 1185.96 639.395 1181.71C637.801 1182.88 636.207 1184.05 634.613 1185.22L634.72 1185.32Z" fill="black"/>
<path d="M641.307 1193.82C643.857 1191.8 646.407 1189.99 649.064 1188.08C649.914 1183.09 650.658 1178.21 651.508 1173.21C647.47 1176.08 643.538 1178.95 639.607 1181.92C638.969 1186.17 638.225 1190.53 637.588 1194.88C637.8 1194.88 638.013 1194.99 638.119 1194.99C639.288 1194.99 640.351 1194.67 641.413 1193.92L641.307 1193.82Z" fill="black"/>
<path d="M849.678 1283.67C849.89 1287.28 849.997 1290.89 850.103 1294.5C870.292 1290.14 890.693 1286.32 911.094 1282.82C913.007 1278.78 915.238 1274.85 917.576 1271.03C894.837 1274.85 872.204 1278.99 849.678 1283.77V1283.67Z" fill="black"/>
<path d="M839.158 1286.11C787.942 1297.26 737.363 1311.07 687.635 1327.31C687.635 1331.03 687.741 1334.75 687.847 1338.36C737.682 1322 788.26 1308.09 839.583 1296.83C839.476 1293.22 839.264 1289.61 839.158 1286V1286.11Z" fill="black"/>
<path d="M677.116 1330.71C659.371 1336.66 641.733 1342.82 624.2 1349.4C623.669 1353.33 623.031 1357.37 622.5 1361.3C640.67 1354.4 659.052 1347.92 677.541 1341.76C677.435 1338.04 677.329 1334.43 677.222 1330.71H677.116Z" fill="black"/>
<path d="M616.231 1352.27C613.468 1353.33 612.087 1356.41 613.149 1359.07C613.999 1361.19 616.018 1362.47 618.143 1362.47C618.781 1362.47 619.418 1362.36 620.056 1362.15C620.8 1361.83 621.65 1361.62 622.394 1361.3C622.925 1357.37 623.562 1353.33 624.094 1349.4C621.437 1350.36 618.781 1351.32 616.124 1352.27H616.231Z" fill="black"/>
<path d="M695.924 1532.92L595.936 1558.73C595.511 1562.45 594.98 1566.38 594.555 1570.09L697.73 1543.44C697.199 1539.93 696.455 1536.43 695.924 1532.92Z" fill="black"/>
<path d="M1023.51 1448.28C1023.3 1451.99 1023.09 1455.71 1022.88 1459.43L1059.32 1449.98C1063.89 1445.2 1068.46 1440.42 1073.03 1435.75C1072.71 1435.75 1072.29 1435.75 1071.97 1435.75L1023.62 1448.28H1023.51Z" fill="black"/>
<path d="M708.037 1540.78L845.321 1505.31C845.321 1501.7 845.215 1497.98 845.109 1494.37L706.23 1530.27C706.762 1533.77 707.399 1537.27 708.037 1540.78Z" fill="black"/>
<path d="M855.734 1491.72C855.734 1495.33 855.841 1499.04 855.947 1502.65L1012.14 1462.3C1012.46 1458.58 1012.57 1454.86 1012.78 1451.15L855.841 1491.72H855.734Z" fill="black"/>
<path d="M1074.52 1446.05C1077.39 1445.3 1079.09 1442.44 1078.34 1439.57C1077.71 1437.13 1075.37 1435.64 1072.92 1435.75C1068.35 1440.52 1063.79 1445.3 1059.22 1449.98L1074.41 1446.05H1074.52Z" fill="black"/>
<path d="M591.898 1559.9C589.029 1560.64 587.329 1563.51 588.073 1566.37C588.711 1568.82 590.836 1570.41 593.173 1570.41C593.598 1570.41 594.023 1570.41 594.555 1570.2C594.98 1566.48 595.511 1562.66 595.936 1558.83L591.898 1559.9Z" fill="black"/>
<path d="M596.892 1701.78C591.473 1701.78 585.948 1701.78 580.529 1701.68C580.21 1705.18 579.891 1708.9 579.572 1712.3C586.266 1712.51 592.961 1712.61 599.655 1712.61C598.699 1709 597.849 1705.39 596.892 1701.78Z" fill="black"/>
<path d="M742.251 1697.53C777.316 1689.99 811.743 1679.48 845.108 1666.31C845.108 1662.49 845.108 1658.56 845.214 1654.73C810.999 1668.54 775.616 1679.27 739.488 1687.13C740.445 1690.63 741.295 1694.03 742.251 1697.53Z" fill="black"/>
<path d="M607.837 1701.78C608.793 1705.29 609.537 1708.9 610.493 1712.4C651.19 1711.87 691.78 1707.62 731.733 1699.66C730.776 1696.26 729.926 1692.86 728.97 1689.36C689.123 1697.22 648.427 1701.36 607.73 1701.68L607.837 1701.78Z" fill="black"/>
<path d="M862.428 1647.83C860.303 1648.79 857.965 1649.53 855.84 1650.49C855.84 1652.61 855.84 1654.73 855.84 1656.75C858.921 1653.67 862.109 1650.59 865.297 1647.41C864.34 1647.3 863.49 1647.41 862.534 1647.73L862.428 1647.83Z" fill="black"/>
<path d="M578.935 1701.57C576.066 1701.57 573.516 1703.8 573.41 1706.67C573.303 1709.54 575.641 1712.08 578.51 1712.19C578.829 1712.19 579.148 1712.19 579.573 1712.19C579.891 1708.79 580.21 1705.07 580.529 1701.57C579.998 1701.57 579.466 1701.57 578.935 1701.57Z" fill="black"/>
<path d="M855.734 1662.06C859.347 1660.58 863.066 1659.2 866.785 1657.6C869.442 1656.43 870.717 1653.25 869.548 1650.59C868.804 1648.79 867.104 1647.73 865.298 1647.51C862.11 1650.59 859.028 1653.78 855.841 1656.86C855.841 1658.56 855.841 1660.36 855.841 1662.06H855.734Z" fill="black"/>
<path d="M1012.04 1462.3C1011.08 1475.78 1009.91 1489.27 1008.53 1502.65C1012.46 1498.62 1016.39 1494.58 1020.33 1490.55C1021.28 1480.24 1022.13 1469.84 1022.88 1459.54L1012.04 1462.3Z" fill="black"/>
<path d="M1012.68 1451.15L1023.51 1448.38C1025.43 1417.59 1026.49 1386.79 1026.49 1355.99C1022.98 1358.86 1019.48 1361.4 1015.86 1363.74C1015.65 1392.95 1014.59 1422.05 1012.68 1451.15Z" fill="black"/>
<path d="M1012.46 1517.63C1012.46 1517.63 1012.89 1517.63 1012.99 1517.63C1015.65 1517.63 1017.99 1515.61 1018.31 1512.85C1018.52 1510.83 1018.63 1508.71 1018.84 1506.69C1015.76 1509.88 1012.68 1513.06 1009.59 1516.25C1010.34 1516.99 1011.29 1517.52 1012.46 1517.63Z" fill="black"/>
<path d="M1008.53 1502.65C1008.21 1505.73 1008 1508.71 1007.68 1511.79C1007.47 1513.59 1008.32 1515.19 1009.59 1516.25C1012.68 1513.06 1015.76 1509.88 1018.84 1506.69C1019.37 1501.27 1019.79 1495.86 1020.33 1490.44C1016.39 1494.48 1012.46 1498.51 1008.53 1502.55V1502.65Z" fill="black"/>
<path d="M1012.04 1462.3L1022.88 1459.54C1023.09 1455.82 1023.3 1452.1 1023.51 1448.38L1012.68 1451.15C1012.46 1454.86 1012.25 1458.58 1012.04 1462.3Z" fill="black"/>
<path d="M839.582 1296.84C842.451 1362.68 844.257 1428.63 845.107 1494.37L855.733 1491.61C854.883 1425.98 853.077 1360.13 850.101 1294.39C846.595 1295.14 843.089 1295.99 839.582 1296.73V1296.84Z" fill="black"/>
<path d="M845.109 1654.84C848.615 1653.35 852.228 1652.08 855.735 1650.49C856.372 1601.31 856.372 1551.93 855.735 1502.55L845.109 1505.31C845.64 1555.22 845.534 1605.14 844.896 1654.84H845.109Z" fill="black"/>
<path d="M845.002 1667.37C845.533 1666.84 846.171 1666.2 846.702 1665.67C846.171 1665.89 845.533 1666.1 845.002 1666.42C845.002 1666.74 845.002 1667.05 845.002 1667.37Z" fill="black"/>
<path d="M842.132 1150.49C838.52 1150.17 834.907 1149.64 831.4 1148.79C834.482 1194.46 837.138 1240.23 839.157 1286C842.664 1285.26 846.17 1284.41 849.677 1283.67C847.658 1239.17 845.001 1194.77 842.132 1150.49Z" fill="black"/>
<path d="M850.103 1683.52C852.972 1683.52 855.416 1681.18 855.416 1678.31C855.416 1676.08 855.416 1673.75 855.416 1671.52C852.122 1674.7 848.935 1677.89 845.641 1681.07C846.597 1682.45 848.085 1683.52 849.891 1683.52H850.103Z" fill="black"/>
<path d="M846.703 1665.67C846.172 1666.21 845.534 1666.84 845.003 1667.37C845.003 1670.98 845.003 1674.49 844.896 1678.1C844.896 1679.16 845.321 1680.12 845.853 1680.97C849.147 1677.78 852.334 1674.6 855.628 1671.41C855.628 1668.22 855.628 1665.14 855.628 1661.96C852.653 1663.23 849.678 1664.4 846.703 1665.57V1665.67Z" fill="black"/>
<path d="M839.158 1286.11C839.371 1289.72 839.477 1293.33 839.583 1296.94C843.09 1296.2 846.596 1295.35 850.103 1294.6C849.996 1290.99 849.89 1287.38 849.678 1283.77C846.171 1284.51 842.665 1285.36 839.158 1286.11Z" fill="black"/>
<path d="M845.109 1494.37C845.109 1497.98 845.216 1501.7 845.322 1505.31L855.948 1502.55C855.948 1498.94 855.841 1495.22 855.735 1491.61L845.109 1494.37Z" fill="black"/>
<path d="M855.841 1650.49C852.335 1651.97 848.722 1653.35 845.216 1654.84C845.216 1658.66 845.216 1662.59 845.109 1666.42C845.641 1666.2 846.278 1665.99 846.81 1665.67C849.785 1662.7 852.76 1659.83 855.841 1656.86C855.841 1654.73 855.841 1652.61 855.841 1650.59V1650.49Z" fill="black"/>
<path d="M846.702 1665.67C849.677 1664.51 852.652 1663.23 855.628 1662.06C855.628 1660.36 855.628 1658.56 855.628 1656.86C852.652 1659.83 849.571 1662.81 846.596 1665.67H846.702Z" fill="black"/>
<path d="M708.037 1540.78L697.73 1543.43C705.806 1592.5 716.325 1641.25 729.076 1689.46C732.583 1688.82 735.983 1687.98 739.49 1687.23C726.739 1638.91 716.219 1590.06 708.144 1540.89L708.037 1540.78Z" fill="black"/>
<path d="M703.254 1060.64C699.641 1061.07 696.029 1061.49 692.31 1062.02C687.953 1092.4 684.447 1122.88 681.896 1153.36C685.615 1151.13 689.228 1149 693.053 1146.88C695.604 1117.99 699.004 1089.21 703.254 1060.54V1060.64Z" fill="black"/>
<path d="M692.098 1159.73C688.379 1161.85 684.66 1164.08 680.941 1166.31C676.797 1221.01 675.416 1275.91 677.01 1330.71C680.516 1329.55 684.023 1328.38 687.529 1327.21C686.042 1271.35 687.529 1215.38 691.992 1159.73H692.098Z" fill="black"/>
<path d="M687.953 1338.36C684.447 1339.53 680.94 1340.59 677.434 1341.76C679.771 1405.8 685.934 1469.63 695.922 1532.92L706.229 1530.27C696.241 1466.76 690.078 1402.61 687.953 1338.36Z" fill="black"/>
<path d="M731.732 1699.76C737.152 1719.73 742.889 1739.7 749.159 1759.45C752.028 1756.79 754.896 1754.03 757.765 1751.38C752.24 1733.54 747.033 1715.69 742.146 1697.75C738.639 1698.49 735.239 1699.23 731.732 1699.87V1699.76Z" fill="black"/>
<path d="M759.996 1763.27C759.04 1764.12 758.083 1765.08 757.127 1765.93C758.402 1765.4 759.465 1764.44 759.996 1763.27Z" fill="black"/>
<path d="M760.314 1759.45C759.464 1756.69 758.721 1754.03 757.87 1751.27C755.002 1754.03 752.026 1756.79 749.264 1759.34C749.582 1760.4 749.901 1761.57 750.22 1762.64C750.964 1764.87 752.983 1766.35 755.32 1766.35C755.852 1766.35 756.383 1766.35 756.914 1766.14C757.02 1766.14 757.127 1766.03 757.233 1765.93C758.189 1765.08 759.146 1764.12 760.102 1763.27C760.633 1762.1 760.846 1760.72 760.421 1759.45H760.314Z" fill="black"/>
<path d="M693.055 1146.98C689.336 1149.11 685.617 1151.23 681.898 1153.46C681.579 1157.82 681.26 1162.06 680.941 1166.42C684.66 1164.19 688.379 1161.96 692.098 1159.83C692.417 1155.59 692.63 1151.34 693.055 1146.98Z" fill="black"/>
<path d="M687.635 1327.31C684.128 1328.48 680.622 1329.54 677.115 1330.82C677.221 1334.54 677.328 1338.15 677.434 1341.86C680.94 1340.7 684.447 1339.63 687.953 1338.47C687.847 1334.75 687.741 1331.03 687.741 1327.42L687.635 1327.31Z" fill="black"/>
<path d="M706.231 1530.27L695.924 1532.92C696.455 1536.43 697.093 1539.93 697.73 1543.43L708.037 1540.78C707.506 1537.27 706.762 1533.77 706.231 1530.27Z" fill="black"/>
<path d="M729.076 1689.46C730.032 1692.86 730.883 1696.26 731.839 1699.76C735.345 1699.02 738.746 1698.38 742.252 1697.64C741.296 1694.14 740.339 1690.74 739.489 1687.23C735.983 1687.98 732.583 1688.83 729.076 1689.46Z" fill="black"/>
<path d="M661.708 1834.96C639.82 1796.3 622.712 1754.99 610.599 1712.4C607.942 1712.4 605.286 1712.61 602.523 1712.61C601.567 1712.61 600.611 1712.61 599.654 1712.61C612.086 1757.01 629.725 1800.02 652.464 1840.27C653.208 1841.54 654.377 1842.29 655.758 1842.61C657.989 1840.8 660.115 1839.1 662.346 1837.08C662.346 1836.34 662.027 1835.7 661.708 1834.96Z" fill="black"/>
<path d="M607.837 1701.78C599.124 1668.65 593.492 1634.87 590.942 1600.68C589.029 1617.35 587.329 1633.28 585.629 1648.89C588.498 1666.63 592.323 1684.26 596.786 1701.68C600.399 1701.68 604.118 1701.78 607.73 1701.68L607.837 1701.78Z" fill="black"/>
<path d="M579.04 1583.69C579.253 1589.1 579.784 1594.41 580.209 1599.83C581.059 1592.71 581.909 1585.7 582.759 1578.48C580.528 1579.23 578.934 1581.24 579.04 1583.69Z" fill="black"/>
<path d="M590.941 1600.79C590.516 1594.94 589.878 1589.1 589.666 1583.26C589.56 1580.29 587.116 1578.27 584.141 1578.16C583.609 1578.16 583.184 1578.38 582.759 1578.48C581.909 1585.6 581.059 1592.71 580.209 1599.83C581.378 1616.29 583.078 1632.65 585.628 1648.89C587.222 1633.28 589.028 1617.35 590.941 1600.68V1600.79Z" fill="black"/>
<path d="M657.033 1842.92C657.883 1842.92 658.839 1842.71 659.689 1842.29C661.602 1841.23 662.558 1839.21 662.346 1837.19C660.008 1839.1 657.883 1840.8 655.758 1842.71C656.183 1842.82 656.608 1843.03 657.139 1843.03L657.033 1842.92Z" fill="black"/>
<path d="M596.893 1701.78C597.849 1705.39 598.699 1709 599.655 1712.61C600.612 1712.61 601.568 1712.61 602.524 1712.61C605.181 1712.61 607.837 1712.4 610.6 1712.4C609.643 1708.9 608.793 1705.29 607.943 1701.78C604.331 1701.78 600.612 1701.78 596.999 1701.78H596.893Z" fill="black"/>
<path d="M571.921 1021.35C564.695 996.707 581.271 971.325 600.291 954.014C619.311 936.703 642.263 922.26 654.057 899.426C654.483 898.683 654.695 897.833 655.014 897.09C652.995 897.515 650.87 897.833 648.851 897.833C646.832 897.833 644.919 897.515 642.9 897.09C634.931 910.79 622.287 921.516 608.686 932.774C603.373 937.128 598.06 941.588 593.066 946.155C565.864 971.006 554.388 999.469 561.614 1024.32C571.496 1057.77 609.004 1069.99 647.257 1068.29C647.895 1064.57 648.532 1060.96 649.063 1057.56C616.336 1059.58 580.634 1051.19 571.814 1021.35H571.921Z" fill="black"/>
<path d="M1345.58 1258.6C1343.46 1258.28 1341.44 1257.75 1339.52 1257.01C1312.32 1275.7 1291.07 1302.04 1282.04 1333.9C1276.62 1353.33 1265.46 1370.11 1248.99 1380.95C1222.75 1398.15 1183.01 1393.69 1163.88 1370.33C1161.44 1372.87 1159.1 1375.42 1156.55 1378.08C1164.84 1387.74 1176.1 1394.96 1189.81 1398.89C1197.25 1401.02 1204.9 1402.08 1212.55 1402.08C1227.74 1402.08 1242.62 1397.94 1254.84 1389.87C1273.01 1377.97 1285.86 1359.6 1292.24 1336.87C1300.42 1307.98 1320.4 1282.07 1348.45 1263.7C1351 1262.11 1353.34 1260.3 1355.78 1258.49C1353.97 1258.71 1352.17 1259.03 1350.47 1259.03C1348.77 1259.03 1347.07 1258.92 1345.47 1258.6H1345.58Z" fill="black"/>
<path d="M674.779 749.363C688.167 700.829 714.2 655.799 748.946 618.947C747.246 615.655 745.865 612.15 744.908 608.539C704.424 650.276 674.885 702.74 661.709 758.921C665.747 754.779 670.103 751.487 674.779 749.257V749.363Z" fill="black"/>
<path d="M1445.57 1142.1C1448.12 1144.33 1450.46 1146.77 1452.48 1149.96C1452.69 1150.28 1452.79 1150.49 1452.9 1150.81C1466.08 1127.55 1476.81 1102.8 1484.56 1077.1C1480.31 1079.86 1475.75 1082.41 1470.86 1084.64C1464.16 1104.61 1455.66 1123.83 1445.57 1142.21V1142.1Z" fill="black"/>
<path d="M897.705 1143.59C932.132 1135.51 954.446 1138.28 966.028 1151.87C984.198 1173 966.347 1209.11 945.627 1233.64C936.701 1244.26 926.076 1256.9 917.575 1270.92C922.25 1270.18 927.032 1269.43 931.707 1268.69C938.508 1258.81 946.371 1249.26 953.809 1240.44C976.76 1213.25 997.268 1171.83 974.104 1144.86C955.934 1123.62 922.569 1126.81 895.261 1133.18C877.835 1137.21 858.815 1141.46 841.389 1139.66C841.601 1143.27 841.814 1146.77 842.132 1150.38C861.259 1151.98 881.341 1147.3 897.705 1143.48V1143.59Z" fill="black"/>
<path d="M962.097 1367.67C943.608 1365.97 926.182 1355.56 918.107 1338.78C908.65 1319.24 913.75 1299.38 924.269 1280.69C919.913 1281.43 915.556 1282.07 911.2 1282.82C902.168 1301.72 898.449 1322.43 908.65 1343.46C918 1362.79 938.083 1376.17 961.247 1378.29C980.161 1379.99 998.862 1374.68 1015.97 1363.74C1015.97 1359.49 1015.97 1355.25 1015.97 1351C1000.56 1362.57 982.286 1369.58 962.203 1367.78L962.097 1367.67Z" fill="black"/>
<path d="M764.141 1073.39C771.473 1080.5 776.255 1090.38 781.461 1100.79C782.63 1103.12 783.799 1105.46 784.968 1107.9C788.474 1106.84 791.874 1105.88 795.381 1104.93C788.262 1091.33 782.524 1076.47 771.579 1065.85C754.153 1049.07 729.714 1047.37 704.743 1049.81C704.212 1053.42 703.787 1057.03 703.256 1060.64C726.632 1057.99 749.265 1059.05 764.247 1073.39H764.141Z" fill="black"/>
<path d="M692.31 1062.02C692.841 1058.41 693.266 1054.69 693.797 1051.08C686.147 1052.15 678.496 1053.53 671.165 1054.8C670.527 1058.52 669.889 1062.24 669.252 1065.95L673.821 1065.1C679.878 1064.04 686.041 1062.98 692.31 1062.02Z" fill="black"/>
<path d="M800.8 1114.38C797.293 1115.33 793.68 1116.29 790.174 1117.35C794.743 1125 800.056 1132.22 807.6 1137.96C814.825 1143.58 822.901 1146.88 831.295 1148.79C831.083 1145.07 830.87 1141.35 830.552 1137.64C824.707 1135.94 819.076 1133.5 814.082 1129.57C808.663 1125.32 804.412 1120.11 800.693 1114.38H800.8Z" fill="black"/>
<path d="M1124.14 1265.08C1112.88 1260.09 1099.81 1261.68 1089.08 1267.63C1065.49 1280.69 1055.5 1305.12 1040.62 1325.51C1036.48 1331.24 1031.7 1336.66 1026.49 1341.65C1026.49 1346.43 1026.49 1351.1 1026.49 1355.88C1034.57 1349.19 1042.32 1341.23 1049.12 1331.78C1053.16 1326.25 1056.88 1320.41 1060.6 1314.57C1070.16 1299.49 1079.19 1285.26 1094.18 1276.97C1102.68 1272.3 1112.24 1271.45 1119.78 1274.85C1134.34 1281.33 1136.47 1296.62 1138.8 1321.05C1139.97 1333.9 1141.46 1346.96 1145.82 1359.18C1148.58 1356.31 1151.34 1353.33 1154 1350.47C1145.29 1319.24 1154.32 1278.78 1124.03 1265.29L1124.14 1265.08Z" fill="black"/>
<path d="M660.114 1056.61C656.501 1057.03 652.889 1057.46 649.17 1057.67C648.638 1061.07 648.001 1064.68 647.363 1068.39C650.976 1068.18 654.589 1067.97 658.308 1067.54C658.945 1063.72 659.583 1060 660.114 1056.61Z" fill="black"/>
<path d="M1158.14 1361.19C1155.59 1363.85 1153.04 1366.61 1150.49 1369.37C1152.3 1372.56 1154.42 1375.42 1156.76 1378.19C1159.21 1375.53 1161.65 1372.98 1164.09 1370.43C1161.86 1367.67 1159.84 1364.59 1158.25 1361.19H1158.14Z" fill="black"/>
<path d="M1157.5 1360.02C1156.12 1356.94 1155.06 1353.65 1154.1 1350.25C1151.34 1353.12 1148.58 1356.1 1145.92 1358.96C1146.56 1360.77 1147.09 1362.57 1147.94 1364.38C1148.68 1366.08 1149.64 1367.67 1150.49 1369.26C1153.15 1366.5 1155.7 1363.74 1158.14 1361.09C1157.93 1360.66 1157.72 1360.34 1157.5 1359.92V1360.02Z" fill="black"/>
<path d="M669.253 1065.95C669.891 1062.23 670.528 1058.52 671.166 1054.8C669.572 1055.12 667.872 1055.33 666.278 1055.65C664.259 1055.97 662.24 1056.29 660.115 1056.61C659.584 1060 658.946 1063.72 658.309 1067.54C661.603 1067.23 664.897 1066.7 668.084 1066.16L669.253 1065.95Z" fill="black"/>
<path d="M795.38 1104.82C791.874 1105.78 788.473 1106.73 784.967 1107.79C786.561 1110.98 788.367 1114.17 790.173 1117.25C793.68 1116.18 797.186 1115.23 800.799 1114.27C798.887 1111.19 797.08 1108.01 795.38 1104.82Z" fill="black"/>
<path d="M911.094 1282.82C915.451 1282.07 919.808 1281.43 924.164 1280.69C926.396 1276.66 928.946 1272.62 931.602 1268.8C926.927 1269.54 922.145 1270.28 917.47 1271.03C915.132 1274.85 912.901 1278.78 910.988 1282.82H911.094Z" fill="black"/>
<path d="M1015.86 1350.89C1015.86 1355.14 1015.86 1359.39 1015.86 1363.64C1019.48 1361.3 1022.98 1358.75 1026.49 1355.88C1026.49 1351.1 1026.49 1346.43 1026.49 1341.65C1023.09 1344.94 1019.58 1348.02 1015.86 1350.89Z" fill="black"/>
<path d="M842.134 1150.49C841.921 1146.88 841.709 1143.37 841.39 1139.76C837.671 1139.34 834.058 1138.59 830.658 1137.64C830.871 1141.35 831.083 1145.07 831.402 1148.79C834.908 1149.64 838.521 1150.17 842.134 1150.49Z" fill="black"/>
<path d="M704.743 1049.7C701.13 1050.02 697.517 1050.55 693.798 1050.98C693.267 1054.59 692.842 1058.31 692.311 1061.92C695.923 1061.39 699.642 1060.85 703.255 1060.54C703.786 1056.92 704.211 1053.31 704.743 1049.7Z" fill="black"/>
<path d="M582.123 1018.37C574.897 993.84 599.655 968.882 607.412 961.873C612.193 957.519 617.188 953.377 622.288 949.235C637.801 936.491 653.74 923.215 663.516 904.311C665.96 899.532 667.766 894.753 669.254 889.762C665.535 892.842 661.497 895.284 657.14 896.559C656.396 896.771 655.759 896.877 655.015 897.09C654.696 897.833 654.378 898.683 654.059 899.426C642.264 922.259 619.313 936.703 600.293 954.014C581.273 971.325 564.697 996.707 571.922 1021.35C580.741 1051.29 616.444 1059.58 649.171 1057.56C649.809 1053.74 650.446 1050.13 650.977 1046.73C624.519 1048.75 589.773 1044.39 582.123 1018.27V1018.37Z" fill="black"/>
<path d="M686.891 746.39C700.067 702.741 723.868 662.065 755.001 628.293C752.558 625.426 750.645 622.24 748.945 618.947C714.305 655.693 688.272 700.723 674.777 749.363C675.946 748.832 677.009 748.195 678.178 747.77C681.047 746.814 683.915 746.496 686.891 746.39Z" fill="black"/>
<path d="M1271.94 1331.14C1266.95 1348.87 1257.07 1363.1 1243.25 1372.13C1230.18 1380.73 1212.01 1383.18 1195.76 1378.5C1185.34 1375.53 1176.95 1369.9 1171.32 1362.47C1168.87 1365.02 1166.43 1367.67 1163.88 1370.33C1183.01 1393.8 1222.75 1398.26 1248.99 1380.95C1265.46 1370.11 1276.62 1353.33 1282.04 1333.9C1291.07 1302.04 1312.21 1275.7 1339.52 1257.01C1335.91 1255.63 1332.72 1253.61 1329.85 1250.96C1301.27 1271.77 1280.66 1299.91 1271.94 1331.14Z" fill="black"/>
<path d="M1458.32 1089C1452.37 1105.46 1445.04 1121.39 1436.64 1136.68C1439.94 1137.85 1442.91 1139.76 1445.57 1142.1C1455.66 1123.73 1464.16 1104.5 1470.86 1084.54C1469.9 1084.96 1468.94 1085.49 1467.99 1085.92C1464.8 1087.19 1461.61 1088.15 1458.32 1088.89V1089Z" fill="black"/>
<path d="M918.107 1338.78C926.182 1355.56 943.608 1365.97 962.097 1367.67C982.18 1369.48 1000.56 1362.47 1015.86 1350.89C1015.86 1346.32 1015.86 1341.76 1015.86 1337.08C1003.22 1348.45 985.155 1359.17 963.053 1357.05C947.327 1355.56 933.726 1346.85 927.67 1334.11C919.063 1316.37 925.545 1297.68 938.083 1278.46C933.514 1279.2 928.839 1279.95 924.27 1280.69C913.75 1299.38 908.65 1319.24 918.107 1338.78Z" fill="black"/>
<path d="M895.262 1133.28C922.57 1126.91 955.935 1123.72 974.105 1144.97C997.269 1171.94 976.761 1213.36 953.81 1240.55C946.372 1249.36 938.509 1258.81 931.708 1268.8C936.702 1268.05 941.59 1267.2 946.584 1266.46C951.366 1260.19 956.466 1253.82 961.885 1247.45C989.193 1215.06 1008.96 1169.29 982.18 1138.17C964.967 1117.99 935.746 1113 892.818 1123.09C876.348 1126.91 857.116 1131.27 840.752 1128.93C840.964 1132.54 841.177 1136.26 841.496 1139.87C858.816 1141.67 877.942 1137.42 895.368 1133.39L895.262 1133.28Z" fill="black"/>
<path d="M1159.95 1318.92C1157.61 1294.71 1155.06 1267.31 1128.5 1255.42C1122.65 1252.87 1116.28 1251.59 1109.79 1251.59C1101.08 1251.59 1092.16 1253.93 1083.97 1258.39C1064.21 1269.33 1053.37 1286.53 1042.75 1303.21C1039.24 1308.62 1035.84 1314.14 1032.01 1319.35C1030.53 1321.37 1028.72 1323.81 1026.38 1326.36C1026.38 1331.46 1026.38 1336.66 1026.38 1341.76C1031.48 1336.77 1036.26 1331.35 1040.51 1325.61C1055.39 1305.22 1065.38 1280.8 1088.97 1267.73C1099.7 1261.79 1112.77 1260.19 1124.03 1265.19C1154.21 1278.67 1145.28 1319.24 1154 1350.36C1156.87 1347.28 1159.84 1344.2 1162.71 1341.01C1161.33 1333.9 1160.48 1326.46 1159.84 1318.92H1159.95Z" fill="black"/>
<path d="M771.579 1065.74C782.523 1076.36 788.261 1091.23 795.38 1104.82C798.887 1103.87 802.393 1102.8 805.9 1101.95C804.093 1098.56 802.287 1095.05 800.481 1091.44C794.743 1079.76 788.899 1067.76 778.91 1058.09C759.253 1039.19 732.689 1036.64 706.443 1038.98C705.912 1042.59 705.168 1046.2 704.637 1049.81C729.607 1047.26 754.046 1048.96 771.472 1065.85L771.579 1065.74Z" fill="black"/>
<path d="M695.498 1040.14C687.847 1041.1 680.303 1042.37 672.971 1043.65C672.334 1047.37 671.696 1051.08 671.059 1054.8C678.497 1053.53 686.041 1052.15 693.691 1051.08C694.223 1047.47 694.86 1043.76 695.391 1040.14H695.498Z" fill="black"/>
<path d="M811.851 1111.51C808.132 1112.47 804.519 1113.42 800.906 1114.38C804.625 1120.11 808.769 1125.42 814.295 1129.57C819.289 1133.5 824.92 1135.94 830.765 1137.64C830.552 1133.81 830.34 1129.99 830.021 1126.17C826.727 1124.89 823.645 1123.3 820.776 1121.18C817.376 1118.52 814.507 1115.12 811.957 1111.51H811.851Z" fill="black"/>
<path d="M1167.17 1355.67C1166.75 1354.71 1166.54 1353.76 1166.11 1352.8C1163.46 1355.56 1160.8 1358.43 1158.14 1361.3C1159.74 1364.59 1161.76 1367.67 1163.99 1370.54C1166.54 1367.88 1168.98 1365.23 1171.42 1362.68C1169.83 1360.56 1168.34 1358.22 1167.17 1355.78V1355.67Z" fill="black"/>
<path d="M650.976 1046.83C650.445 1050.13 649.807 1053.74 649.17 1057.67C652.889 1057.46 656.502 1057.14 660.114 1056.61C660.752 1052.57 661.389 1048.96 662.027 1045.56C658.627 1046.09 654.908 1046.52 651.083 1046.83H650.976Z" fill="black"/>
<path d="M671.166 1054.8C671.804 1051.08 672.441 1047.37 673.079 1043.65C672.122 1043.86 671.166 1043.97 670.21 1044.18L664.472 1045.14C663.728 1045.24 662.772 1045.35 662.028 1045.56C661.497 1048.96 660.859 1052.57 660.115 1056.61C662.24 1056.29 664.259 1056.07 666.278 1055.65C667.872 1055.33 669.466 1055.12 671.166 1054.8Z" fill="black"/>
<path d="M1162.82 1341.01C1159.95 1344.09 1156.97 1347.17 1154.1 1350.36C1155.06 1353.76 1156.12 1357.05 1157.5 1360.13C1157.72 1360.55 1157.93 1360.87 1158.14 1361.3C1160.9 1358.43 1163.56 1355.56 1166.11 1352.8C1164.73 1349.19 1163.67 1345.26 1162.82 1341.12V1341.01Z" fill="black"/>
<path d="M800.8 1114.38C804.413 1113.42 808.132 1112.36 811.744 1111.51C809.619 1108.54 807.707 1105.35 805.9 1102.06C802.394 1103.02 798.887 1103.97 795.381 1104.93C797.081 1108.22 798.887 1111.41 800.8 1114.38Z" fill="black"/>
<path d="M924.27 1280.69C928.839 1279.95 933.514 1279.21 938.083 1278.46C940.739 1274.43 943.608 1270.39 946.69 1266.36C941.696 1267.1 936.702 1267.95 931.814 1268.69C929.157 1272.62 926.607 1276.55 924.376 1280.59L924.27 1280.69Z" fill="black"/>
<path d="M1015.97 1337.08C1015.97 1341.65 1015.97 1346.22 1015.97 1350.89C1019.69 1348.13 1023.2 1344.94 1026.6 1341.65C1026.6 1336.55 1026.6 1331.35 1026.6 1326.25C1023.73 1329.65 1020.22 1333.37 1016.08 1337.08H1015.97Z" fill="black"/>
<path d="M830.657 1137.64C834.163 1138.59 837.776 1139.34 841.389 1139.76C841.176 1136.15 840.964 1132.43 840.645 1128.82C836.82 1128.29 833.207 1127.44 829.807 1126.17C830.125 1129.99 830.338 1133.81 830.55 1137.64H830.657Z" fill="black"/>
<path d="M706.549 1038.98C702.83 1039.3 699.217 1039.72 695.604 1040.14C695.073 1043.76 694.436 1047.47 693.904 1051.08C697.517 1050.55 701.13 1050.13 704.849 1049.81C705.38 1046.2 706.124 1042.59 706.655 1038.98H706.549Z" fill="black"/>
<path d="M1689.96 628.718C1686.03 690.316 1662.76 751.169 1624.29 799.066C1627.37 801.403 1629.92 803.845 1631.84 806.607C1671.68 757.435 1696.44 694.457 1700.59 629.462C1702.71 595.902 1699.63 561.493 1691.66 527.614C1689 529.951 1685.71 531.862 1682.1 533.349C1689.11 564.573 1692.09 596.752 1689.96 628.825V628.718Z" fill="black"/>
<path d="M755.96 579.015C764.991 550.341 788.687 534.198 811.107 516.887C808.557 514.657 806.325 511.79 804.413 508.604C802.606 509.984 800.8 511.471 798.994 512.852C777.423 529.313 755.109 546.411 745.865 575.829C742.359 586.981 742.252 598.238 744.909 608.54C747.884 605.46 750.859 602.167 754.047 599.194C753.303 592.503 754.047 585.6 756.066 579.015H755.96Z" fill="black"/>
<path d="M1523.77 1009.13C1515.38 1028.04 1504.54 1046.52 1489.24 1060.32C1487.86 1065.95 1486.26 1071.58 1484.56 1077.21C1509.96 1060.53 1524.52 1033.77 1533.44 1013.59C1543.43 991.609 1551.29 966.864 1556.93 940.208C1553.42 939.889 1550.02 939.146 1546.62 937.553C1541.52 961.873 1534.19 986.299 1523.77 1009.13Z" fill="black"/>
<path d="M1602.62 371.285C1607.18 376.913 1611.54 382.755 1615.9 388.702C1618.13 387.427 1620.68 386.259 1623.34 385.41C1624.29 385.091 1625.14 384.985 1626.1 384.772C1621.21 377.975 1616.22 371.179 1610.9 364.594C1599.85 351 1587.63 338.044 1574.78 325.512C1571.69 327.423 1568.51 329.335 1565.21 331.034C1578.39 343.778 1591.14 357.054 1602.72 371.391L1602.62 371.285Z" fill="black"/>
<path d="M1222.43 181.714C1274.92 183.307 1328.15 195.414 1376.93 214C1377.56 214.212 1378.09 214.531 1378.73 214.743C1378.73 211.026 1378.94 207.203 1379.37 203.592C1346.43 191.166 1288.2 173.112 1222.64 170.882C1223.17 174.811 1223.07 178.422 1222.43 181.714Z" fill="black"/>
<path d="M1045.51 229.612C1053.48 223.983 1061.77 219.098 1070.27 214.531C1069.84 213.256 1069.31 212.088 1068.89 210.814C1068.25 208.371 1067.82 206.035 1067.5 203.698C1057.94 208.796 1048.48 214.425 1039.35 221.009C986.005 258.817 950.833 314.892 916.937 369.161C906.205 386.366 895.261 403.676 883.785 420.563C889.736 417.908 895.367 415.783 900.786 414.297C944.458 347.92 981.329 275.172 1045.51 229.612Z" fill="black"/>
<path d="M850.528 622.133C874.33 605.247 897.281 591.016 917.152 602.698C928.309 609.283 934.896 623.514 933.94 638.913C932.453 663.233 918.427 682.775 903.551 703.484C899.938 708.475 896.431 713.467 893.031 718.565C862.96 763.063 842.028 829.121 873.374 881.16C893.562 914.507 932.559 932.455 975.38 928.101C1025.85 922.897 1045.3 891.355 1062.41 863.424C1072.5 847.069 1081.96 831.67 1097.04 821.156C1108.95 812.872 1123.08 810.854 1133.81 815.846C1149.11 822.961 1153.36 840.378 1158.36 860.557C1161.65 873.726 1165.05 887.426 1171.96 899.533C1182.16 917.162 1200.65 929.482 1222.64 933.199C1244.64 936.916 1266.21 931.393 1281.61 918.118C1285.97 914.295 1289.69 910.153 1293.41 906.117C1304.14 894.223 1310.94 887.532 1324.97 888.806C1338.35 889.974 1350.79 898.789 1358.12 912.171C1368.96 931.924 1369.06 954.758 1369.17 978.865C1369.17 986.406 1369.17 994.052 1369.59 1001.49C1372.14 1052.25 1394.78 1084.64 1431.75 1090.38C1435.05 1090.91 1438.34 1091.12 1441.64 1091.12C1447.16 1091.12 1452.69 1090.38 1458.21 1089C1459.7 1084.85 1461.08 1080.82 1462.46 1076.68C1453.22 1080.08 1443.23 1081.35 1433.46 1079.86C1394.78 1073.92 1382.03 1035.15 1380.33 1000.96C1378.73 969.095 1383.2 935.854 1367.47 907.073C1358.86 891.461 1343.67 879.779 1325.92 878.186C1299.15 875.743 1290.01 896.771 1274.71 910.047C1247.4 933.623 1199.26 925.552 1181.2 894.223C1164.41 865.017 1169.83 820.837 1138.27 806.181C1122.87 799.066 1104.91 802.783 1090.99 812.447C1046.47 843.352 1047.21 909.94 974.318 917.481C938.084 921.198 901.426 906.861 882.512 875.637C854.779 829.758 871.78 769.01 901.851 724.512C919.702 697.961 942.441 673.323 944.566 639.657C945.735 621.496 938.297 602.804 922.571 593.565C896.219 578.059 867.636 596.963 844.365 613.531C821.52 629.886 790.068 645.391 767.329 625.744C765.523 624.151 763.929 622.452 762.547 620.646C759.997 623.195 757.447 625.744 755.109 628.293C756.703 630.205 758.51 632.01 760.422 633.709C775.723 646.878 803.775 655.587 850.528 622.133Z" fill="black"/>
<path d="M1475.32 1070.62C1473.94 1075.3 1472.45 1079.97 1470.86 1084.64C1475.75 1082.52 1480.31 1079.97 1484.56 1077.1C1486.26 1071.58 1487.75 1065.95 1489.24 1060.22C1484.99 1064.04 1480.42 1067.54 1475.32 1070.52V1070.62Z" fill="black"/>
<path d="M756.915 610.876C755.428 607.158 754.471 603.229 754.046 599.193C750.859 602.167 747.99 605.459 744.908 608.539C745.865 612.15 747.246 615.655 748.946 618.947C751.496 616.186 754.153 613.531 756.809 610.876H756.915Z" fill="black"/>
<path d="M1462.46 1076.68C1461.19 1080.82 1459.7 1084.96 1458.21 1089C1461.51 1088.25 1464.69 1087.3 1467.88 1086.02C1468.94 1085.6 1469.79 1085.07 1470.75 1084.64C1472.35 1079.97 1473.83 1075.4 1475.21 1070.62C1471.71 1072.75 1467.99 1074.55 1463.95 1076.15C1463.42 1076.36 1462.89 1076.47 1462.36 1076.68H1462.46Z" fill="black"/>
<path d="M762.547 620.648C760.21 617.674 758.297 614.382 756.916 610.877C754.259 613.532 751.603 616.187 749.053 618.948C750.753 622.241 752.665 625.427 755.109 628.294C757.553 625.639 760.103 623.196 762.547 620.648Z" fill="black"/>
<path d="M1671.79 536.322C1678.59 566.908 1681.35 597.813 1679.33 628.08C1675.51 688.934 1652.34 747.876 1614.94 793.755C1617.49 794.711 1619.94 795.986 1622.49 797.579C1623.12 798.004 1623.65 798.535 1624.29 799.066C1662.76 751.168 1686.03 690.421 1689.96 628.718C1691.98 596.645 1689.11 564.572 1682.1 533.242C1681.56 533.455 1681.14 533.773 1680.61 533.986C1677.53 535.154 1674.66 535.897 1671.9 536.322H1671.79Z" fill="black"/>
<path d="M935.002 380.312C969.323 325.406 1001.73 273.579 1051.67 238.214C1059.43 232.692 1067.29 227.912 1075.37 223.452C1073.24 220.797 1071.54 217.823 1070.27 214.425C1061.77 218.991 1053.48 223.877 1045.51 229.505C981.224 274.96 944.459 347.708 900.787 414.191C905.675 412.916 910.35 412.279 914.707 412.279C921.614 401.659 928.308 390.932 935.002 380.206V380.312Z" fill="black"/>
<path d="M1373.1 223.877C1375.12 224.62 1377.03 225.576 1379.05 226.319C1378.84 223.24 1378.63 220.16 1378.63 216.974C1378.63 216.23 1378.63 215.381 1378.73 214.637C1378.09 214.425 1377.56 214.106 1376.93 213.894C1328.15 195.308 1274.92 183.201 1222.43 181.608C1221.68 185.325 1220.41 188.724 1218.5 191.91C1283.21 193.503 1341.33 211.77 1373.1 223.877Z" fill="black"/>
<path d="M1537.05 931.605C1531.74 958.368 1523.98 983.007 1514.1 1004.78C1507.73 1019.22 1500.93 1030.8 1493.59 1040.14C1492.32 1046.83 1490.94 1053.53 1489.24 1060.22C1504.54 1046.52 1515.38 1028.04 1523.77 1009.03C1534.19 986.193 1541.52 961.767 1546.62 937.447C1545.13 936.809 1543.75 936.066 1542.26 935.216C1540.35 934.048 1538.65 932.88 1537.05 931.605Z" fill="black"/>
<path d="M1594.33 377.975C1598.9 383.71 1603.36 389.445 1607.61 395.392C1609.84 392.737 1612.6 390.507 1615.9 388.702C1611.65 382.754 1607.19 377.019 1602.62 371.284C1591.03 356.947 1578.39 343.672 1565.11 330.928C1561.81 332.627 1558.31 334.22 1554.8 335.707C1569.04 349.194 1582.32 363.213 1594.22 377.975H1594.33Z" fill="black"/>
<path d="M764.566 589.848C764.885 587.3 765.31 584.751 766.054 582.202C773.279 559.156 791.981 544.925 811.851 529.738C814.932 527.402 818.014 524.959 821.095 522.516C817.376 521.242 813.976 519.437 811.107 516.888C788.793 534.199 764.991 550.341 755.959 579.016C753.941 585.6 753.303 592.503 753.941 599.194C757.341 595.902 760.954 592.928 764.566 589.848Z" fill="black"/>
<path d="M844.364 613.531C867.635 596.964 896.218 578.06 922.57 593.565C938.296 602.805 945.734 621.496 944.565 639.657C942.44 673.323 919.701 697.962 901.85 724.512C871.779 769.011 854.778 829.758 882.511 875.638C901.425 906.861 938.083 921.198 974.317 917.481C1047.21 909.941 1046.47 843.352 1090.99 812.447C1104.91 802.783 1122.86 799.066 1138.27 806.182C1169.83 820.837 1164.41 865.017 1181.2 894.223C1199.26 925.552 1247.4 933.624 1274.71 910.047C1290.01 896.772 1299.15 875.744 1325.92 878.186C1343.67 879.779 1358.86 891.462 1367.47 907.073C1383.19 935.854 1378.73 969.095 1380.33 1000.96C1382.03 1035.15 1394.78 1073.92 1433.45 1079.86C1443.23 1081.35 1453.22 1080.08 1462.46 1076.68C1463.84 1072.32 1465.12 1067.86 1466.39 1063.4C1464.38 1064.46 1462.36 1065.42 1460.12 1066.27C1451.84 1069.56 1443.23 1070.62 1435.05 1069.35C1399.35 1063.83 1392.12 1023.79 1390.95 1000.42C1390.63 993.203 1390.53 985.981 1390.53 978.76C1390.42 953.059 1390.21 926.508 1376.82 901.976C1365.98 882.328 1347.28 869.478 1326.88 867.672C1325.07 867.566 1323.37 867.46 1321.67 867.46C1299.68 867.46 1287.56 880.948 1277.57 891.993C1274.17 895.71 1271.09 899.214 1267.69 902.082C1257.17 911.109 1241.66 914.932 1226.15 912.277C1210.63 909.622 1197.24 900.914 1190.34 888.913C1184.92 879.461 1181.94 867.779 1178.97 855.459C1173.44 833.157 1167.17 807.987 1142.63 796.517C1124.78 788.233 1103.21 790.995 1084.82 803.739C1066.12 816.696 1054.97 834.856 1044.23 852.273C1027.55 879.355 1013.21 902.719 973.148 906.861C938.721 910.472 907.375 896.347 891.543 870.115C865.297 826.785 884.211 769.542 910.563 730.46C913.857 725.574 917.363 720.689 920.763 715.91C936.702 693.714 953.172 670.774 955.084 640.4C956.572 616.611 946.159 595.265 927.883 584.432C894.518 564.785 859.24 589.848 838.095 604.929C809.512 625.426 788.048 629.674 774.128 617.779C772.535 616.399 771.26 614.806 769.984 613.106C767.328 615.549 764.884 618.204 762.334 620.753C763.822 622.558 765.309 624.258 767.116 625.851C789.855 645.498 821.307 629.993 844.152 613.637L844.364 613.531Z" fill="black"/>
<path d="M765.415 602.805C764.353 598.77 764.14 594.309 764.565 589.849C761.059 592.928 757.34 596.008 753.939 599.194C754.364 603.23 755.321 607.16 756.808 610.877C759.571 608.115 762.44 605.354 765.415 602.699V602.805Z" fill="black"/>
<path d="M1479.57 1054.59C1478.29 1060 1476.81 1065.31 1475.21 1070.62C1480.31 1067.65 1484.88 1064.15 1489.13 1060.32C1490.73 1053.74 1492.21 1047.05 1493.49 1040.25C1489.13 1045.88 1484.46 1050.66 1479.57 1054.69V1054.59Z" fill="black"/>
<path d="M1466.39 1063.4C1465.23 1067.86 1463.95 1072.32 1462.46 1076.68C1462.99 1076.47 1463.53 1076.36 1464.06 1076.15C1467.99 1074.55 1471.71 1072.75 1475.32 1070.62C1476.81 1065.31 1478.4 1060 1479.68 1054.59C1475.53 1057.99 1471.07 1060.96 1466.5 1063.3L1466.39 1063.4Z" fill="black"/>
<path d="M770.197 613.106C768.072 610.133 766.372 606.628 765.415 602.805C762.546 605.46 759.678 608.221 756.809 610.982C758.19 614.487 760.103 617.779 762.44 620.753C764.99 618.204 767.434 615.655 770.091 613.106H770.197Z" fill="black"/>
<path d="M1389.68 207.84C1394.46 147.305 1444.93 99.6202 1506.77 99.6202C1552.78 99.6202 1592.52 126.064 1611.75 164.51C1615.26 163.66 1618.77 162.81 1622.27 162.067C1601.66 118.949 1557.67 89 1506.77 89C1440.68 89 1386.17 139.234 1379.37 203.592C1379.79 203.804 1380.33 203.91 1380.75 204.123C1383.83 205.291 1386.7 206.672 1389.78 207.84H1389.68Z" fill="black"/>
<path d="M1624.29 217.079C1624.29 259.879 1601.23 297.262 1567.02 317.865C1569.68 320.308 1572.12 322.963 1574.78 325.512C1610.9 302.784 1634.92 262.746 1634.92 217.079C1634.92 204.972 1633.11 193.29 1629.92 182.245C1626.42 182.989 1623.02 183.732 1619.62 184.475C1622.59 194.883 1624.29 205.716 1624.29 217.079Z" fill="black"/>
<path d="M1506.77 345.159C1523.77 345.159 1540.03 341.76 1554.91 335.707C1552.04 332.945 1549.17 330.29 1546.19 327.635C1533.87 331.989 1520.59 334.538 1506.77 334.538C1446.63 334.538 1397.01 289.296 1390.1 230.991C1386.38 229.505 1382.77 227.912 1379.05 226.425C1383.83 292.695 1439.19 345.159 1506.77 345.159Z" fill="black"/>
<path d="M1389.36 219.097C1389.36 218.46 1389.36 217.717 1389.36 217.079C1389.36 214 1389.57 210.92 1389.78 207.84C1386.7 206.672 1383.83 205.291 1380.75 204.123C1380.33 203.91 1379.79 203.804 1379.37 203.592C1378.94 207.309 1378.84 211.026 1378.73 214.743C1382.35 216.124 1385.85 217.717 1389.36 219.097Z" fill="black"/>
<path d="M1557.14 323.069C1559.9 325.618 1562.45 328.273 1565.21 330.928C1568.51 329.229 1571.69 327.423 1574.78 325.405C1572.23 322.856 1569.67 320.201 1567.02 317.759C1563.83 319.67 1560.54 321.476 1557.14 323.069Z" fill="black"/>
<path d="M1379.05 226.425C1382.77 227.912 1386.38 229.505 1390.1 230.992C1389.68 227.063 1389.36 223.133 1389.36 219.097C1385.85 217.611 1382.34 216.124 1378.73 214.743C1378.73 215.487 1378.62 216.336 1378.62 217.08C1378.62 220.266 1378.84 223.346 1379.05 226.425Z" fill="black"/>
<path d="M1554.91 335.707C1558.41 334.327 1561.81 332.628 1565.21 330.928C1562.56 328.379 1559.9 325.618 1557.14 323.069C1553.63 324.769 1549.91 326.255 1546.19 327.636C1549.17 330.291 1552.04 333.052 1554.91 335.707Z" fill="black"/>
<path d="M1613.67 217.08C1613.67 257.118 1591.46 292.164 1558.73 310.431C1561.49 312.874 1564.36 315.316 1567.02 317.865C1601.34 297.368 1624.29 259.985 1624.29 217.08C1624.29 205.716 1622.59 194.883 1619.62 184.476C1616.22 185.325 1612.71 186.175 1609.31 187.131C1612.07 196.689 1613.67 206.672 1613.67 217.186V217.08Z" fill="black"/>
<path d="M1506.77 110.241C1547.79 110.241 1583.38 133.393 1601.34 167.377C1604.85 166.421 1608.35 165.466 1611.86 164.616C1592.52 126.171 1552.89 99.7266 1506.88 99.7266C1445.14 99.7266 1394.56 147.411 1389.78 207.946C1393.29 209.327 1396.69 210.814 1400.2 212.301C1402.85 155.695 1449.61 110.453 1506.88 110.453L1506.77 110.241Z" fill="black"/>
<path d="M1506.77 334.539C1520.59 334.539 1533.87 331.99 1546.19 327.636C1543.11 324.875 1539.92 322.22 1536.74 319.565C1527.17 322.326 1517.19 323.919 1506.77 323.919C1454.17 323.919 1410.5 285.792 1401.58 235.771C1397.86 234.072 1393.93 232.585 1390.1 230.992C1397.01 289.297 1446.52 334.539 1506.77 334.539Z" fill="black"/>
<path d="M1399.88 217.079C1399.88 215.38 1400.09 213.787 1400.09 212.088C1396.58 210.601 1393.18 209.22 1389.68 207.733C1389.46 210.813 1389.25 213.893 1389.25 216.973C1389.25 217.716 1389.25 218.354 1389.25 218.991C1392.86 220.478 1396.48 221.964 1400.09 223.451C1399.98 221.327 1399.77 219.097 1399.77 216.973L1399.88 217.079Z" fill="black"/>
<path d="M1548.42 315.423C1551.29 317.972 1554.27 320.414 1557.14 323.069C1560.54 321.476 1563.83 319.671 1567.02 317.759C1564.36 315.21 1561.49 312.768 1558.73 310.325C1555.44 312.131 1552.04 313.936 1548.42 315.423Z" fill="black"/>
<path d="M1536.74 319.565C1539.92 322.22 1543.11 324.875 1546.19 327.636C1549.91 326.255 1553.52 324.769 1557.14 323.069C1554.27 320.414 1551.4 317.972 1548.42 315.423C1544.71 317.016 1540.77 318.396 1536.74 319.565Z" fill="black"/>
<path d="M1401.58 235.771C1400.83 231.841 1400.41 227.805 1400.2 223.664C1396.58 222.177 1392.97 220.69 1389.36 219.203C1389.36 223.239 1389.68 227.168 1390.1 231.098C1393.93 232.691 1397.75 234.178 1401.58 235.877V235.771Z" fill="black"/>
<path d="M1798.77 199.344C1804.18 201.681 1810.45 199.238 1812.79 193.822C1815.13 188.405 1812.69 182.139 1807.27 179.803C1749.57 154.739 1683.9 149.004 1622.38 162.067C1625.46 168.546 1628.01 175.236 1630.03 182.246C1686.35 170.988 1746.17 176.511 1798.87 199.344H1798.77Z" fill="black"/>
<path d="M1554.06 197.007C1555.86 200.937 1559.69 203.167 1563.73 203.167C1565.21 203.167 1566.7 202.848 1568.19 202.211C1581.47 196.051 1595.18 191.06 1609.31 187.131C1607.29 180.227 1604.63 173.643 1601.34 167.377C1587 171.519 1572.86 176.723 1559.37 182.989C1554.06 185.431 1551.72 191.803 1554.16 197.113L1554.06 197.007Z" fill="black"/>
<path d="M1619.62 184.476C1623.02 183.626 1626.52 182.883 1629.92 182.246C1627.91 175.236 1625.35 168.546 1622.27 162.067C1618.77 162.811 1615.26 163.66 1611.75 164.51C1614.94 170.882 1617.6 177.467 1619.62 184.476Z" fill="black"/>
<path d="M1609.31 187.024C1612.71 186.069 1616.22 185.219 1619.62 184.369C1617.6 177.466 1614.94 170.775 1611.75 164.403C1608.25 165.253 1604.74 166.209 1601.23 167.165C1604.53 173.43 1607.18 180.015 1609.2 186.918L1609.31 187.024Z" fill="black"/>
<path d="M1606.02 879.992C1590.4 907.074 1575.94 929.695 1559.26 929.695C1558.94 931.182 1558.52 932.668 1558.2 934.155C1557.77 936.173 1557.24 938.191 1556.82 940.209C1557.56 940.209 1558.31 940.421 1559.16 940.421C1561.6 940.421 1564.15 940.102 1566.59 939.465C1585.61 934.58 1599.85 912.065 1615.15 885.408C1628.44 862.256 1647.67 828.803 1631.73 806.713C1629.39 809.58 1626.95 812.448 1624.5 815.315C1632.26 830.29 1621.53 853.017 1605.91 880.098L1606.02 879.992Z" fill="black"/>
<path d="M1558.31 852.591L1549.06 847.281C1546.94 850.998 1544.81 854.609 1542.69 858.114C1527.81 883.284 1511.13 911.533 1536.95 931.606C1536.95 931.075 1537.16 930.65 1537.27 930.119C1537.91 926.614 1538.86 923.216 1539.61 919.711C1524.94 903.568 1541.52 881.691 1558.2 852.591H1558.31Z" fill="black"/>
<path d="M1597.51 792.269C1578.18 796.73 1564.89 819.882 1549.49 846.751L1558.31 852.698C1574.67 824.236 1589.12 799.066 1607.4 802.571C1609.95 799.704 1612.5 796.73 1614.94 793.756C1609.2 791.526 1603.36 790.889 1597.51 792.269Z" fill="black"/>
<path d="M1624.29 799.066C1622.06 801.828 1619.83 804.483 1617.49 807.138C1620.68 809.474 1623.02 812.129 1624.61 815.209C1627.06 812.342 1629.5 809.58 1631.84 806.607C1629.92 803.845 1627.37 801.403 1624.29 799.066Z" fill="black"/>
<path d="M1558.2 934.154C1558.52 932.667 1558.94 931.18 1559.26 929.694C1555.97 929.694 1552.57 928.738 1549.06 926.826C1548.64 928.632 1548.21 930.331 1547.89 932.136C1547.57 933.942 1547.04 935.747 1546.72 937.553C1550.12 939.039 1553.53 939.889 1557.03 940.208C1557.46 938.19 1557.99 936.278 1558.41 934.26L1558.2 934.154Z" fill="black"/>
<path d="M1614.94 793.756C1612.5 796.73 1609.95 799.703 1607.4 802.571C1610.37 803.102 1613.35 804.376 1616.53 806.5C1616.85 806.712 1617.17 807.031 1617.49 807.243C1619.83 804.588 1622.06 801.933 1624.29 799.172C1623.65 798.747 1623.12 798.216 1622.48 797.685C1620.04 795.986 1617.49 794.818 1614.94 793.862V793.756Z" fill="black"/>
<path d="M1539.71 919.712C1538.86 923.11 1538.01 926.615 1537.37 930.119C1537.37 930.65 1537.16 931.075 1537.05 931.606C1538.65 932.881 1540.35 934.049 1542.26 935.217C1543.75 936.067 1545.13 936.81 1546.62 937.447C1547.04 935.642 1547.47 933.837 1547.79 932.031C1548.11 930.226 1548.64 928.526 1548.96 926.721C1548.53 926.509 1548.11 926.402 1547.79 926.084C1544.39 924.066 1541.73 921.836 1539.71 919.605V919.712Z" fill="black"/>
<path d="M1596.77 874.682C1588.06 889.869 1573.5 915.145 1561.71 918.65C1560.75 922.261 1560.01 925.978 1559.16 929.695C1575.84 929.695 1590.4 907.18 1605.91 879.992C1621.53 852.911 1632.26 830.077 1624.5 815.209C1621.74 818.289 1618.98 821.369 1616.11 824.342C1617.49 833.688 1611.54 848.981 1596.77 874.682Z" fill="black"/>
<path d="M1558.31 852.592C1541.62 881.691 1525.05 903.569 1539.71 919.711C1545.13 896.559 1553.52 875.213 1564.47 856.096L1558.31 852.592Z" fill="black"/>
<path d="M1558.31 852.593L1564.68 855.779C1573.5 840.485 1584.02 826.573 1596.03 814.572C1599.96 810.643 1603.68 806.607 1607.4 802.465C1589.01 798.961 1574.67 824.024 1558.31 852.593Z" fill="black"/>
<path d="M1610.59 815.208C1613.77 817.332 1615.58 820.412 1616.22 824.341C1619.09 821.368 1621.85 818.288 1624.61 815.208C1623.02 812.234 1620.68 809.579 1617.49 807.137C1615.15 809.792 1612.82 812.447 1610.37 815.102C1610.37 815.102 1610.48 815.102 1610.59 815.208Z" fill="black"/>
<path d="M1561.39 918.756C1559.69 919.181 1557.24 919.393 1553.31 917.057C1552.67 916.632 1552.04 916.313 1551.51 915.889C1550.55 919.5 1549.81 923.11 1548.96 926.721C1552.46 928.633 1555.86 929.589 1559.16 929.589C1559.9 925.872 1560.75 922.155 1561.71 918.544C1561.6 918.544 1561.49 918.65 1561.28 918.756H1561.39Z" fill="black"/>
<path d="M1607.4 802.465C1603.68 806.607 1599.96 810.642 1596.03 814.572C1583.91 826.573 1573.5 840.485 1564.68 855.778L1567.87 857.371C1579.24 837.724 1591.99 815.421 1602.3 812.979C1603.78 812.554 1606.33 812.448 1610.27 815.103C1612.71 812.554 1615.05 809.899 1617.39 807.138C1617.07 806.925 1616.75 806.607 1616.43 806.394C1613.24 804.27 1610.27 803.102 1607.29 802.465H1607.4Z" fill="black"/>
<path d="M1560.96 868.946C1563.09 865.335 1565.32 861.618 1567.44 857.795L1564.36 856.096C1553.42 875.212 1545.02 896.559 1539.61 919.711C1541.62 921.941 1544.28 924.171 1547.68 926.189C1548.11 926.401 1548.53 926.614 1548.85 926.826C1549.59 923.215 1550.44 919.604 1551.4 915.994C1540.35 908.453 1542.37 900.382 1560.86 869.052L1560.96 868.946Z" fill="black"/>
<path d="M1083.97 1050.77C1061.87 1019.65 1042.75 992.885 1066.44 978.548C1087.48 965.698 1106.82 987.788 1128.92 1018.9C1151.02 1050.02 1167.7 1076.89 1146.45 1091.12C1119.78 1108.96 1106.08 1081.78 1083.97 1050.77L1075.26 1056.93C1077.81 1060.43 1080.15 1063.93 1082.49 1067.33C1095.77 1086.45 1110.33 1107.58 1130.51 1107.58C1137.1 1107.58 1144.33 1105.35 1152.3 1100.04C1160.05 1094.84 1164.73 1087.94 1166.32 1079.65C1169.83 1060.32 1155.38 1038.02 1137.53 1012.85C1119.78 987.788 1092.9 949.98 1060.92 969.521C1052.42 974.619 1047.32 981.522 1045.51 989.912C1041.47 1009.35 1056.98 1031.33 1075.05 1056.61L1083.97 1050.77Z" fill="black"/>
<path d="M1146.45 1091.12C1167.71 1076.89 1151.02 1050.02 1128.92 1018.9C1106.82 987.787 1087.48 965.697 1066.44 978.547C1042.75 992.884 1061.87 1019.65 1083.98 1050.76L1092.48 1044.29C1079.19 1025.7 1064.21 1004.57 1066.44 994.159C1066.76 992.566 1067.72 990.229 1072.07 987.574C1083.23 980.777 1095.88 990.548 1120.32 1025.06C1130.52 1039.51 1147.73 1063.61 1145.5 1075.72C1145.18 1077.53 1144.33 1079.86 1140.61 1082.31C1127.97 1090.8 1121.91 1086.77 1100.13 1055.22C1097.79 1051.72 1095.24 1048.22 1092.69 1044.6L1084.08 1050.76C1106.18 1081.78 1119.89 1108.96 1146.56 1091.12H1146.45Z" fill="black"/>
<path d="M1677.31 449.662C1688.05 477.062 1696.23 501.276 1688.36 514.87C1689.53 519.118 1690.6 523.366 1691.66 527.508C1694.74 524.747 1697.29 521.348 1698.99 517.525C1707.07 499.577 1698.46 474.407 1687.2 445.839C1676.36 418.12 1659.99 376.701 1626.1 384.773C1628.44 387.959 1630.67 391.145 1632.9 394.437C1652.56 393.269 1664.67 417.589 1677.31 449.662Z" fill="black"/>
<path d="M1616 473.345L1626.1 469.84C1615.37 442.44 1605.8 418.12 1614.09 404.526C1611.97 401.446 1609.84 398.366 1607.61 395.393C1606.02 397.304 1604.63 399.322 1603.47 401.552C1594.86 419.5 1604.63 444.458 1616 473.345Z" fill="black"/>
<path d="M1626.1 469.84L1616.22 473.769C1617.81 477.805 1619.3 481.734 1620.68 485.558C1629.82 509.878 1640.02 537.066 1664.88 537.066C1667.01 537.066 1669.35 536.853 1671.68 536.428C1670.94 532.924 1670.09 529.419 1669.24 526.021C1645.44 529.525 1638.74 502.231 1625.99 469.946L1626.1 469.84Z" fill="black"/>
<path d="M1615.9 388.702C1618.02 391.57 1620.04 394.437 1622.06 397.411C1623.44 396.774 1624.93 396.136 1626.52 395.605C1628.76 394.862 1630.88 394.649 1632.9 394.543C1630.67 391.251 1628.33 388.065 1626.1 384.879C1625.14 385.091 1624.29 385.198 1623.34 385.516C1620.57 386.366 1618.13 387.534 1615.9 388.808V388.702Z" fill="black"/>
<path d="M1679.55 522.729C1680.4 526.234 1681.25 529.738 1681.99 533.243C1685.6 531.756 1688.9 529.845 1691.55 527.508C1690.6 523.26 1689.43 519.012 1688.26 514.87C1686.35 518.162 1683.48 520.817 1679.55 522.835V522.729Z" fill="black"/>
<path d="M1669.35 525.915C1670.2 529.419 1671.05 532.818 1671.79 536.322C1674.55 535.791 1677.42 535.048 1680.5 533.986C1681.03 533.774 1681.46 533.455 1681.99 533.243C1681.25 529.738 1680.4 526.233 1679.55 522.729C1678.7 523.153 1677.85 523.578 1676.89 524.003C1674.13 524.959 1671.68 525.596 1669.35 525.915Z" fill="black"/>
<path d="M1607.61 395.393C1609.84 398.472 1611.97 401.446 1614.09 404.526C1615.9 401.659 1618.45 399.11 1622.06 397.304C1620.04 394.437 1618.02 391.463 1615.9 388.596C1612.6 390.401 1609.95 392.631 1607.61 395.286V395.393Z" fill="black"/>
<path d="M1667.43 453.592C1669.98 460.176 1673.28 468.566 1675.93 476.956C1680.71 489.488 1684.86 502.126 1688.36 514.976C1696.23 501.382 1688.05 477.168 1677.31 449.768C1664.67 417.695 1652.56 393.375 1632.9 394.543C1635.77 398.898 1638.53 403.252 1641.29 407.606C1649.16 412.916 1657.02 427.253 1667.43 453.698V453.592Z" fill="black"/>
<path d="M1640.55 478.017C1639.06 474.088 1637.57 470.052 1635.98 465.91L1626.1 469.84C1638.74 502.125 1645.54 529.419 1669.34 525.914C1668.49 522.516 1667.64 519.117 1666.58 515.613C1657.02 516.356 1651.71 507.541 1640.55 478.017Z" fill="black"/>
<path d="M1626.1 469.84L1635.87 465.592C1628.76 447.537 1621 427.571 1621.64 416.102C1619.19 412.278 1616.75 408.349 1614.09 404.632C1605.8 418.226 1615.37 442.546 1626.1 469.946V469.84Z" fill="black"/>
<path d="M1629.71 405.587C1633.75 404.313 1637.57 404.844 1641.4 407.393C1638.64 403.039 1635.87 398.578 1633 394.33C1630.99 394.436 1628.86 394.755 1626.63 395.392C1624.93 395.923 1623.44 396.56 1622.17 397.198C1624.18 400.171 1626.2 403.145 1628.12 406.225C1628.65 406.012 1629.18 405.8 1629.82 405.587H1629.71Z" fill="black"/>
<path d="M1679.65 508.816C1679.12 509.878 1678.38 511.153 1676.68 512.321C1677.74 515.826 1678.7 519.33 1679.55 522.835C1683.58 520.923 1686.45 518.162 1688.26 514.87C1684.75 502.126 1680.71 489.381 1675.83 476.85C1679.86 489.381 1682.52 502.019 1679.55 508.71L1679.65 508.816Z" fill="black"/>
<path d="M1614.09 404.525C1616.64 408.349 1619.19 412.172 1621.64 415.995C1621.74 413.977 1622.06 412.066 1622.7 410.685C1623.34 409.411 1624.61 407.711 1628.01 406.331C1626.1 403.357 1624.08 400.277 1622.06 397.304C1618.45 399.109 1615.9 401.552 1614.09 404.525Z" fill="black"/>
<path d="M1673.28 514.02C1670.83 514.976 1668.6 515.507 1666.58 515.613C1667.54 519.012 1668.39 522.41 1669.34 525.915C1671.68 525.596 1674.23 525.065 1676.89 524.003C1677.85 523.685 1678.7 523.154 1679.55 522.729C1678.59 519.224 1677.63 515.72 1676.68 512.215C1675.83 512.852 1674.76 513.489 1673.28 514.02Z" fill="black"/>
<path d="M1405.08 1219.41C1400.62 1222.81 1396.26 1226 1392.12 1228.97C1380.75 1239.7 1368.74 1249.57 1355.99 1258.49C1372.78 1256.16 1391.27 1243.2 1411.56 1227.91C1435.69 1209.54 1472.02 1181.92 1453 1150.91C1450.88 1154.63 1448.75 1158.35 1446.52 1161.96C1452.69 1180.54 1432.6 1198.7 1405.19 1219.52L1405.08 1219.41Z" fill="black"/>
<path d="M1365.45 1166.95C1361.94 1169.6 1358.54 1172.15 1355.14 1174.6C1330.28 1192.86 1302.12 1213.57 1324.75 1245.22C1326.35 1247.45 1328.05 1249.26 1329.96 1250.96C1332.3 1249.26 1334.64 1247.45 1337.08 1245.86C1337.72 1245.43 1338.25 1245.01 1338.89 1244.58C1336.97 1243.2 1335.06 1241.4 1333.47 1239.06C1314.77 1212.94 1341.54 1198.49 1371.93 1175.45C1395.31 1157.71 1416.13 1141.99 1431.44 1146.13C1433.24 1143.05 1434.94 1139.87 1436.64 1136.68C1435.05 1136.04 1433.35 1135.51 1431.54 1135.2C1411.78 1131.69 1390.31 1148.05 1365.45 1166.95Z" fill="black"/>
<path d="M1352.06 1248.3C1348.98 1250.53 1346 1252.76 1342.82 1254.78C1341.75 1255.52 1340.69 1256.37 1339.63 1257.12C1341.54 1257.86 1343.56 1258.39 1345.69 1258.71C1347.39 1258.92 1348.98 1259.13 1350.68 1259.13C1352.38 1259.13 1354.19 1258.92 1355.99 1258.6C1368.74 1249.68 1380.75 1239.8 1392.12 1229.08C1377.03 1239.8 1363.43 1247.66 1352.06 1248.3Z" fill="black"/>
<path d="M1445.57 1142.1C1443.87 1145.28 1442.17 1148.47 1440.25 1151.55C1441.42 1152.72 1442.49 1154.1 1443.55 1155.69C1444.82 1157.71 1445.78 1159.73 1446.42 1161.75C1448.65 1158.13 1450.77 1154.42 1452.9 1150.7C1452.69 1150.38 1452.58 1150.17 1452.47 1149.85C1450.45 1146.67 1448.01 1144.12 1445.57 1141.99V1142.1Z" fill="black"/>
<path d="M1431.33 1146.13C1434.52 1146.98 1437.6 1148.79 1440.25 1151.55C1442.06 1148.47 1443.76 1145.28 1445.57 1142.1C1442.8 1139.76 1439.83 1137.85 1436.64 1136.68C1434.94 1139.87 1433.24 1143.05 1431.43 1146.13H1431.33Z" fill="black"/>
<path d="M1338.78 1244.58C1338.14 1245.01 1337.61 1245.43 1336.97 1245.86C1334.53 1247.45 1332.19 1249.25 1329.85 1250.95C1332.83 1253.61 1336.02 1255.73 1339.52 1257.01C1340.59 1256.26 1341.65 1255.41 1342.71 1254.67C1345.9 1252.65 1348.87 1250.32 1351.96 1248.19C1347.07 1248.51 1342.6 1247.34 1338.67 1244.58H1338.78Z" fill="black"/>
<path d="M1392.12 1228.97C1396.37 1226 1400.73 1222.71 1405.08 1219.41C1432.5 1198.6 1452.58 1180.44 1446.42 1161.85C1431.12 1186.6 1412.84 1209.22 1392.12 1228.97Z" fill="black"/>
<path d="M1371.82 1175.45C1341.44 1198.49 1314.66 1212.94 1333.36 1239.06C1335.06 1241.4 1336.87 1243.2 1338.78 1244.58C1342.18 1242.35 1345.47 1240.02 1348.66 1237.57C1346.85 1237.26 1344.52 1236.51 1341.86 1232.9C1333.04 1220.48 1336.87 1214.32 1367.57 1191.7C1370.97 1189.15 1374.48 1186.6 1378.09 1183.84C1394.88 1171.09 1413.58 1156.97 1424.74 1156.12C1426.87 1152.83 1429.1 1149.53 1431.12 1146.13C1415.82 1141.99 1394.99 1157.71 1371.61 1175.45H1371.82Z" fill="black"/>
<path d="M1434.62 1161.53C1441.74 1172.47 1432.29 1185.43 1398.71 1210.92C1394.99 1213.78 1390.21 1217.29 1385.21 1220.9C1374.8 1230.78 1363.86 1239.91 1352.17 1248.19C1363.43 1247.56 1377.14 1239.7 1392.23 1228.97C1413.05 1209.22 1431.33 1186.6 1446.52 1161.85C1445.89 1159.83 1444.93 1157.82 1443.66 1155.8C1442.59 1154.21 1441.53 1152.82 1440.36 1151.66C1438.45 1154.84 1436.32 1157.92 1434.41 1161.11C1434.52 1161.32 1434.62 1161.43 1434.84 1161.64L1434.62 1161.53Z" fill="black"/>
<path d="M1348.77 1237.57C1345.47 1239.91 1342.18 1242.35 1338.88 1244.58C1342.82 1247.45 1347.28 1248.51 1352.17 1248.19C1363.86 1239.91 1374.8 1230.78 1385.21 1220.9C1372.57 1229.82 1357.69 1238.95 1348.87 1237.57H1348.77Z" fill="black"/>
<path d="M1424.95 1156.22C1424.95 1156.22 1425.7 1156.01 1426.02 1156.01C1426.65 1156.01 1427.29 1156.01 1427.82 1156.12C1429.31 1156.44 1431.65 1157.29 1434.2 1161C1436.22 1157.82 1438.24 1154.74 1440.15 1151.55C1437.49 1148.68 1434.41 1146.98 1431.22 1146.13C1429.2 1149.53 1426.97 1152.83 1424.85 1156.12L1424.95 1156.22Z" fill="black"/>
<path d="M1137.85 162.386L1134.87 152.19C1130.73 153.359 1126.58 154.527 1122.65 155.589C1094.81 163.235 1063.47 171.838 1067.51 203.698C1070.91 201.893 1074.41 200.087 1077.92 198.494C1078.02 176.086 1105.44 171.838 1137.85 162.492V162.386Z" fill="black"/>
<path d="M1211.8 169.608C1211.8 169.608 1211.8 170.245 1211.91 170.67C1215.52 170.67 1219.03 170.67 1222.64 170.882C1222.53 169.714 1222.43 168.652 1222.22 167.484C1220.2 157.819 1215.41 150.704 1207.98 146.243C1190.98 136.048 1165.16 143.482 1135.3 152.191L1137.95 162.492C1174.61 151.872 1206.17 142.632 1211.91 169.714L1211.8 169.608Z" fill="black"/>
<path d="M1083.66 230.673C1089.71 234.178 1096.94 235.559 1105.12 235.559C1119.68 235.559 1137.21 230.992 1156.12 225.47C1177.69 219.204 1207.34 210.601 1218.5 191.91C1214.03 191.804 1209.57 191.804 1205.11 191.91C1195.23 201.893 1175.99 208.69 1153.15 215.274C1123.18 223.983 1097.04 230.142 1085.04 218.566C1081.74 220.159 1078.55 221.859 1075.37 223.558C1077.7 226.425 1080.36 228.762 1083.66 230.673Z" fill="black"/>
<path d="M1211.48 181.502C1215.1 181.502 1218.71 181.502 1222.43 181.714C1223.06 178.315 1223.17 174.705 1222.64 170.881C1219.13 170.775 1215.52 170.669 1211.91 170.669C1212.65 174.598 1212.44 178.209 1211.48 181.502Z" fill="black"/>
<path d="M1070.27 214.53C1073.45 212.831 1076.54 211.132 1079.72 209.539C1079.51 209.008 1079.3 208.583 1079.19 208.052C1078.24 204.547 1077.92 201.361 1077.92 198.388C1074.41 200.087 1071.01 201.786 1067.5 203.592C1067.82 205.822 1068.25 208.158 1068.89 210.707C1069.2 212.088 1069.74 213.256 1070.27 214.424V214.53Z" fill="black"/>
<path d="M1085.04 218.566C1082.7 216.336 1080.89 213.256 1079.72 209.539C1076.54 211.132 1073.46 212.831 1070.27 214.531C1071.54 217.929 1073.24 221.009 1075.37 223.558C1078.56 221.858 1081.85 220.159 1085.04 218.566Z" fill="black"/>
<path d="M1205.11 191.909C1209.57 191.909 1214.03 191.909 1218.5 191.909C1220.41 188.83 1221.68 185.325 1222.43 181.608C1218.81 181.502 1215.1 181.396 1211.48 181.396C1210.31 185.219 1208.19 188.617 1205.11 191.803V191.909Z" fill="black"/>
<path d="M1077.92 198.388C1081.85 196.476 1085.89 194.777 1089.82 193.078C1093.33 186.812 1104.16 182.67 1128.28 176.085C1132.32 175.023 1136.57 173.855 1140.82 172.581H1141.14C1157.61 167.695 1175.78 162.491 1187.58 162.491C1191.51 162.491 1194.69 163.022 1197.03 164.403C1198.31 165.146 1200.01 166.739 1201.07 170.775C1204.68 170.775 1208.3 170.669 1211.91 170.775C1211.91 170.457 1211.91 170.138 1211.8 169.713C1206.06 142.632 1174.51 151.871 1137.85 162.491C1105.33 171.943 1078.02 176.085 1077.92 198.494V198.388Z" fill="black"/>
<path d="M1153.15 215.274C1175.99 208.689 1195.23 201.892 1205.11 191.909C1198.41 191.909 1191.72 192.228 1185.03 192.759C1176.84 196.688 1165.47 200.724 1150.17 205.078C1134.45 209.645 1109.05 216.867 1096.94 213.15C1093.01 214.849 1088.97 216.654 1085.04 218.566C1097.04 230.142 1123.18 223.982 1153.15 215.274Z" fill="black"/>
<path d="M1089.82 193.078C1085.78 194.777 1081.85 196.477 1077.92 198.388C1077.92 201.256 1078.24 204.442 1079.19 208.053C1079.3 208.584 1079.51 209.008 1079.72 209.539C1082.91 207.946 1086.21 206.566 1089.39 205.185C1088.12 200.194 1088.01 196.37 1089.82 193.184V193.078Z" fill="black"/>
<path d="M1199.69 181.714C1203.62 181.608 1207.55 181.502 1211.59 181.502C1212.55 178.209 1212.76 174.598 1212.02 170.669C1208.4 170.669 1204.79 170.669 1201.18 170.669C1201.18 171.094 1201.39 171.306 1201.5 171.731C1202.24 175.342 1201.71 178.528 1199.69 181.608V181.714Z" fill="black"/>
<path d="M1199.69 181.714C1197.24 185.538 1192.57 189.148 1185.13 192.759C1191.83 192.228 1198.52 192.016 1205.21 191.91C1208.29 188.83 1210.42 185.325 1211.59 181.502C1207.66 181.502 1203.73 181.502 1199.69 181.714Z" fill="black"/>
<path d="M1096.94 213.15C1095.98 212.832 1094.92 212.619 1094.17 212.195C1092.58 211.345 1090.67 209.752 1089.5 205.292C1089.5 205.292 1089.5 205.185 1089.5 205.079C1086.21 206.46 1083.02 207.947 1079.83 209.433C1081 213.15 1082.81 216.23 1085.14 218.461C1089.07 216.549 1093.01 214.743 1097.04 213.044L1096.94 213.15Z" fill="black"/>
<path d="M812.7 502.019C812.7 502.019 812.487 501.7 812.487 501.594C797.93 473.026 826.513 462.724 860.091 444.564L854.99 435.218C851.165 437.236 847.552 439.253 843.94 441.059C816.525 455.396 785.286 471.751 803.031 506.373C803.456 507.223 803.987 507.86 804.412 508.603C807.175 506.479 809.937 504.355 812.594 502.231C812.594 502.231 812.7 502.125 812.806 502.019H812.7Z" fill="black"/>
<path d="M883.786 420.456C874.86 424.492 865.297 429.589 855.309 435.006L860.09 444.458C863.703 442.44 867.316 440.528 870.822 438.723C875.285 432.775 879.535 426.616 883.786 420.456Z" fill="black"/>
<path d="M832.357 524.322C849.252 524.322 869.228 514.339 891.436 502.338C918.319 487.788 958.909 465.698 943.714 431.607C939.677 422.58 933.408 416.633 925.332 413.872C922.038 412.703 918.425 412.385 914.813 412.385C912.369 416.208 909.925 419.925 907.375 423.642C919.275 421.306 928.626 423.961 934.045 435.962C944.14 458.476 919.913 474.831 886.442 492.992C865.297 504.462 845.958 514.02 831.719 513.701C829.807 515.294 828 517.1 826.088 518.693C824.494 519.967 822.794 521.242 821.094 522.622C821.306 522.622 821.519 522.835 821.731 522.835C825.132 523.897 828.744 524.428 832.463 524.428L832.357 524.322Z" fill="black"/>
<path d="M811.106 516.888C813.869 514.764 816.632 512.64 819.288 510.409C819.394 510.303 819.501 510.197 819.713 510.091C817.057 508.179 814.613 505.63 812.806 502.02C812.806 502.02 812.7 502.126 812.594 502.232C809.937 504.462 807.175 506.48 804.412 508.604C806.325 511.79 808.556 514.658 811.106 516.888Z" fill="black"/>
<path d="M890.799 429.059C894.2 424.174 897.387 419.288 900.681 414.297C895.262 415.784 889.631 417.908 883.68 420.563C879.43 426.723 875.18 432.882 870.717 438.83C877.73 435.112 884.424 431.714 890.693 429.059H890.799Z" fill="black"/>
<path d="M914.708 412.385C910.245 412.385 905.57 413.022 900.788 414.296C897.494 419.288 894.2 424.173 890.906 429.058C896.75 426.51 902.276 424.704 907.376 423.642C909.82 419.925 912.37 416.102 914.814 412.385H914.708Z" fill="black"/>
<path d="M825.981 518.587C827.894 516.994 829.7 515.294 831.613 513.595C827.044 513.595 823.113 512.321 819.712 509.984C819.606 510.091 819.5 510.197 819.287 510.303C816.631 512.533 813.868 514.657 811.105 516.781C813.974 519.33 817.375 521.136 821.094 522.41C822.794 521.136 824.494 519.861 826.088 518.481L825.981 518.587Z" fill="black"/>
<path d="M812.487 501.594C812.487 501.594 812.7 501.913 812.7 502.019C815.569 499.683 818.225 497.134 820.988 494.691C815.675 482.584 821.625 476.743 853.821 459.857C854.14 459.644 854.459 459.538 854.778 459.326C860.303 452.635 865.616 445.732 870.822 438.723C867.316 440.634 863.703 442.546 860.09 444.458C826.513 462.618 797.93 472.92 812.487 501.488V501.594Z" fill="black"/>
<path d="M886.336 492.993C919.807 474.832 944.033 458.477 933.939 435.962C928.52 423.961 919.169 421.306 907.268 423.643C904.187 428.316 900.999 432.988 897.811 437.661C904.187 435.112 910.031 433.413 914.388 433.413C915.875 433.413 917.15 433.626 918.319 433.944C919.807 434.475 922.038 435.643 924.163 440.316C929.476 452.211 918.213 463.575 881.235 483.647C872.203 488.532 858.284 496.072 846.277 500.214C841.601 504.887 836.607 509.348 831.613 513.702C845.852 514.02 865.191 504.569 886.336 492.993Z" fill="black"/>
<path d="M865.403 453.804C869.547 451.573 873.691 449.343 877.941 447.113C882.298 441.166 886.654 435.112 890.799 429.059C884.529 431.714 877.835 435.112 870.822 438.829C865.616 445.838 860.303 452.742 854.777 459.432C858.178 457.627 861.578 455.821 865.084 453.91H865.297L865.403 453.804Z" fill="black"/>
<path d="M828 502.551C826.3 502.02 824.069 500.851 821.944 496.816C821.625 496.072 821.306 495.435 820.987 494.798C818.225 497.24 815.568 499.789 812.699 502.126C814.612 505.737 816.95 508.286 819.606 510.197C822.581 507.754 825.238 505.206 828.107 502.657C828.107 502.657 828 502.657 827.894 502.657L828 502.551Z" fill="black"/>
<path d="M846.278 500.214C839.052 502.657 832.571 503.825 828.108 502.55C825.239 505.099 822.583 507.648 819.607 510.091C823.008 512.427 827.045 513.595 831.508 513.702C836.502 509.347 841.496 504.887 846.172 500.214H846.278Z" fill="black"/>
<path d="M897.811 437.661C900.999 432.988 904.187 428.315 907.268 423.643C902.168 424.598 896.749 426.51 890.799 429.059C886.548 435.219 882.298 441.166 877.941 447.113C884.848 443.502 891.649 440.21 897.811 437.661Z" fill="black"/>
<path d="M647.895 887.108C644.601 886.895 641.095 885.939 637.27 883.709C615.912 871.283 626.113 843.883 642.901 809.58C647.683 799.81 652.358 790.676 657.14 782.711C658.309 774.746 659.796 766.781 661.709 758.922C651.296 769.754 642.476 786.216 633.338 804.907C619.843 832.414 599.548 874.045 631.957 892.842C635.676 894.967 639.289 896.347 643.008 897.09C643.539 896.241 644.176 895.391 644.708 894.435C645.983 891.993 647.045 889.55 647.895 887.001V887.108Z" fill="black"/>
<path d="M698.048 759.666C726.525 774.534 709.205 799.492 692.417 833.795L701.98 838.468C703.892 834.538 705.805 830.821 707.611 827.21C721.637 799.598 737.47 768.374 702.936 750.32C697.517 747.559 692.204 746.391 686.891 746.497C685.829 750.108 684.872 753.719 683.916 757.436C688.379 756.586 693.054 757.117 698.048 759.772V759.666Z" fill="black"/>
<path d="M701.768 838.786L692.417 833.795C686.042 846.752 679.985 859.071 673.716 868.523C672.866 875.745 671.485 882.754 669.359 889.763C681.791 879.462 691.355 860.239 701.874 838.786H701.768Z" fill="black"/>
<path d="M671.165 764.444C672.227 759.452 673.396 754.355 674.777 749.363C670.102 751.487 665.746 754.78 661.708 759.028C659.901 766.887 658.308 774.852 657.139 782.817C661.708 775.383 666.277 769.011 671.165 764.444Z" fill="black"/>
<path d="M655.014 897.09C657.033 892.736 658.733 888.169 659.902 883.496C656.076 886.045 652.038 887.319 647.788 887.001C646.832 889.55 645.769 891.992 644.601 894.435C644.175 895.391 643.432 896.134 642.9 897.09C644.919 897.515 646.832 897.833 648.851 897.833C650.976 897.833 652.995 897.515 655.014 897.09Z" fill="black"/>
<path d="M686.892 746.391C684.023 746.391 681.048 746.815 678.179 747.771C677.01 748.196 675.948 748.833 674.779 749.364C673.397 754.356 672.229 759.347 671.166 764.445C675.204 760.728 679.454 758.285 683.917 757.436C684.873 753.825 685.829 750.108 686.892 746.497V746.391Z" fill="black"/>
<path d="M669.252 889.762C671.377 882.859 672.865 875.743 673.609 868.521C669.252 875.106 664.789 880.204 659.901 883.496C658.626 888.169 657.033 892.629 655.014 897.09C655.757 896.984 656.395 896.771 657.139 896.559C661.495 895.178 665.533 892.842 669.252 889.762Z" fill="black"/>
<path d="M642.582 874.576C631.319 867.991 633.869 852.167 652.358 814.253C652.995 812.978 653.633 811.598 654.377 810.217C654.802 800.978 655.758 791.844 657.139 782.711C652.358 790.57 647.682 799.809 642.901 809.58C626.112 843.883 615.911 871.283 637.269 883.709C640.988 885.939 644.495 886.895 647.895 887.107C649.17 883.603 650.126 879.992 650.87 876.381C649.276 876.806 646.832 877.018 642.582 874.576Z" fill="black"/>
<path d="M682.748 829.439C680.304 834.537 677.648 839.741 675.097 844.839C675.097 852.698 674.672 860.663 673.822 868.522C680.198 858.964 686.148 846.75 692.524 833.794L682.854 829.439H682.748Z" fill="black"/>
<path d="M687.53 767.523C689.017 767.523 690.824 767.948 693.055 769.116C706.55 776.232 705.912 783.454 688.592 817.544C686.68 821.261 684.767 825.085 682.748 829.12L692.311 833.793C709.1 799.49 726.42 774.533 697.943 759.664C692.949 757.009 688.274 756.478 683.811 757.328C682.748 761.576 681.579 765.93 680.623 770.178C682.004 769.116 683.386 768.373 684.767 767.948C685.511 767.736 686.361 767.523 687.423 767.523H687.53Z" fill="black"/>
<path d="M667.234 786.428C668.297 778.994 669.572 771.666 671.166 764.338C666.278 768.798 661.709 775.17 657.14 782.711C655.758 791.844 654.802 800.978 654.377 810.217C657.99 802.889 662.452 794.181 667.234 786.428Z" fill="black"/>
<path d="M651.083 876.274H650.977C650.233 879.991 649.277 883.602 648.002 887.001C652.358 887.213 656.396 885.939 660.115 883.496C661.709 877.443 662.772 871.177 663.409 864.805C659.265 870.752 655.121 875 651.083 876.274Z" fill="black"/>
<path d="M673.715 868.523C674.671 860.664 674.884 852.699 674.99 844.84C671.165 852.274 667.233 859.283 663.302 864.806C662.664 871.178 661.602 877.444 660.008 883.497C664.896 880.311 669.358 875.107 673.715 868.523Z" fill="black"/>
<path d="M680.729 770.179C681.579 765.824 682.748 761.576 683.917 757.328C679.454 758.178 675.204 760.62 671.166 764.337C669.572 771.665 668.297 778.993 667.234 786.427C671.591 779.524 676.16 773.471 680.729 770.179Z" fill="black"/>
<path d="M1049.65 471.646C1093.54 465.805 1145.39 474.513 1194.8 484.708C1195.54 484.815 1196.18 484.921 1196.93 484.921C1199.37 484.921 1201.81 484.071 1203.73 482.478C1206.17 480.46 1207.66 477.381 1207.55 474.195C1206.81 410.792 1194.06 364.169 1165.15 318.184C1162.07 313.192 1155.49 311.706 1150.49 314.892C1145.5 317.972 1144.01 324.556 1147.2 329.548C1164.94 357.691 1183.11 395.18 1185.98 461.344C1138.7 451.998 1089.92 444.989 1046.89 450.724C1041.05 451.467 1037.01 456.884 1037.75 462.619C1038.5 468.46 1043.92 472.602 1049.65 471.752V471.646Z" fill="black"/>
<path d="M1374.27 606.84C1411.99 629.461 1441.53 664.614 1457.47 705.714C1459.06 709.962 1463.1 712.511 1467.35 712.511C1468.62 712.511 1469.9 712.299 1471.17 711.768C1476.7 709.644 1479.36 703.484 1477.23 698.068C1461.61 657.605 1434.09 622.452 1398.81 597.495C1436.43 574.449 1482.65 566.484 1530.79 575.298C1536.52 576.36 1542.05 572.537 1543.11 566.802C1544.17 561.067 1540.35 555.545 1534.61 554.483C1475.11 543.65 1417.73 555.97 1373.31 589.211C1370.44 591.335 1368.85 594.733 1369.06 598.238C1369.27 601.743 1371.19 604.929 1374.16 606.84H1374.27Z" fill="black"/>
<path d="M1186.41 547.155C1199.58 557.775 1212.23 567.227 1224.77 575.936C1241.87 585.388 1258.02 595.371 1273.11 605.248C1290.96 614.487 1308.39 621.815 1325.82 627.125C1325.18 631.692 1324.12 636.152 1322.73 640.4C1328.68 645.073 1334.53 649.852 1340.27 654.738C1344.84 643.799 1347.39 631.904 1347.71 619.585C1347.81 614.7 1344.62 610.452 1339.95 609.071C1293.94 596.433 1247.61 569.882 1194.06 525.809C1190.66 523.047 1185.88 522.623 1182.05 524.747C1173.12 529.844 1165.26 536.429 1158.46 544.075C1165.58 546.943 1172.59 549.916 1179.39 552.996C1181.63 550.872 1183.96 548.961 1186.41 547.155Z" fill="black"/>
<path d="M1254.3 696.263C1215.31 701.891 1173.76 678.739 1159.2 643.693C1149.43 620.01 1152.72 591.972 1165.47 570.307C1158.99 567.44 1152.3 564.678 1145.6 562.023C1130.73 588.786 1127.43 622.452 1139.55 651.764C1156.02 691.59 1198.52 718.353 1242.3 718.353C1247.29 718.353 1252.29 718.034 1257.17 717.291C1287.67 712.936 1313.38 696.581 1329.53 673.642C1324.12 668.863 1318.59 664.19 1312.85 659.729C1299.99 678.739 1278.96 692.758 1254.2 696.263H1254.3Z" fill="black"/>
<path d="M1318.38 650.49C1324.12 655.056 1329.75 659.729 1335.27 664.508C1337.08 661.322 1338.67 658.03 1340.05 654.738C1334.32 649.852 1328.47 645.073 1322.52 640.4C1321.35 643.905 1319.97 647.197 1318.27 650.49H1318.38Z" fill="black"/>
<path d="M1224.66 575.936C1241.23 587.405 1257.28 597.07 1273.01 605.247C1257.92 595.264 1241.77 585.388 1224.66 575.936Z" fill="black"/>
<path d="M1179.29 552.996C1172.38 549.916 1165.37 546.943 1158.35 544.075C1155.91 546.836 1153.57 549.704 1151.45 552.784C1158.25 555.439 1164.94 558.306 1171.64 561.28C1173.97 558.306 1176.52 555.545 1179.29 552.996Z" fill="black"/>
<path d="M1171.64 561.28C1164.94 558.307 1158.25 555.439 1151.45 552.784C1149.32 555.758 1147.41 558.838 1145.6 561.918C1152.3 564.573 1158.99 567.334 1165.47 570.201C1167.28 567.121 1169.3 564.042 1171.53 561.28H1171.64Z" fill="black"/>
<path d="M1318.38 650.49C1316.78 653.676 1314.87 656.756 1312.85 659.73C1318.59 664.297 1324.11 668.969 1329.53 673.642C1331.55 670.669 1333.57 667.695 1335.27 664.509C1329.75 659.73 1324.11 655.057 1318.38 650.49Z" fill="black"/>
</g>
<defs>
<clipPath id="clip0_157_252">
<rect width="1671" height="1822" fill="white" transform="translate(164 89)"/>
</clipPath>
</defs>
</svg>
