<svg width="2000" height="2000" viewBox="0 0 2000 2000" fill="none" xmlns="http://www.w3.org/2000/svg">
<g clip-path="url(#clip0_157_253)">
<path d="M1155.03 1784.63C1157.6 1762.92 1158.84 1727.14 1140.87 1720.1C1120.25 1712.15 1097.73 1746.61 1087.29 1765.08C1067.75 1756.71 1034.29 1745.53 1022.36 1761.18C1010.19 1777.17 1032.47 1807.32 1046.71 1823.73C1035.86 1839.55 1013.01 1877.57 1031.64 1894.05C1047.46 1907.97 1083.9 1888.84 1101.87 1877.82C1113.96 1893.56 1134.74 1917 1151.39 1917C1154.45 1917 1157.44 1916.17 1160.09 1914.35C1175.74 1903.91 1170.77 1872.85 1166.71 1855.95C1185.26 1849.49 1219.22 1834.91 1217.06 1814.78C1215.16 1797.05 1180.46 1788.52 1155.03 1784.71V1784.63ZM1156.77 1850.48C1156.77 1850.48 1170.44 1897.53 1155.53 1907.47C1140.62 1917.41 1103.94 1866.72 1103.94 1866.72C1103.94 1866.72 1051.85 1900.85 1037.1 1887.84C1020.29 1872.93 1057.31 1823.15 1057.31 1823.15C1057.31 1823.15 1018.14 1780.4 1028.99 1766.15C1039.92 1751.82 1090.94 1775.76 1090.94 1775.76C1090.94 1775.76 1119.42 1720.68 1137.89 1727.8C1154.45 1734.26 1145.76 1791.67 1145.76 1791.67C1145.76 1791.67 1207.13 1799.45 1208.86 1815.61C1210.85 1834 1156.77 1850.48 1156.77 1850.48Z" fill="black"/>
<path d="M1145.67 1791.75C1145.67 1791.75 1154.37 1734.35 1137.81 1727.88C1119.34 1720.76 1090.85 1775.85 1090.85 1775.85C1090.85 1775.85 1039.84 1751.91 1028.9 1766.24C1018.06 1780.49 1057.23 1823.23 1057.23 1823.23C1057.23 1823.23 1020.21 1873.01 1037.02 1887.92C1051.76 1900.93 1103.85 1866.8 1103.85 1866.8C1103.85 1866.8 1140.54 1917.5 1155.45 1907.56C1170.35 1897.62 1156.69 1850.56 1156.69 1850.56C1156.69 1850.56 1210.77 1834.08 1208.78 1815.69C1207.04 1799.54 1145.67 1791.75 1145.67 1791.75ZM1154.29 1842.61C1149.98 1843.94 1147.5 1848.49 1148.74 1852.8C1154.95 1874.42 1156.03 1897.2 1151.14 1900.52C1145.26 1901.43 1125.72 1882.71 1110.56 1861.91C1108.99 1859.68 1106.42 1858.52 1103.85 1858.52C1102.28 1858.52 1100.71 1858.93 1099.3 1859.84C1075.2 1875.58 1047.62 1886.18 1042.49 1881.71C1036.11 1876.08 1048.53 1848.83 1063.85 1828.2C1066.25 1825.05 1066.01 1820.58 1063.27 1817.68C1044.72 1797.38 1032.47 1775.27 1035.45 1771.29C1038.59 1767.23 1062.36 1771.7 1087.29 1783.38C1091.35 1785.29 1096.15 1783.63 1098.14 1779.66C1112.05 1752.82 1129.44 1733.6 1134.74 1735.59C1139.38 1737.41 1141.53 1763.09 1137.39 1790.51C1137.06 1792.74 1137.64 1794.98 1138.97 1796.72C1140.29 1798.46 1142.28 1799.7 1144.52 1799.95C1171.26 1803.35 1197.93 1811.47 1200.42 1816.52C1201 1821.74 1180.46 1834.49 1154.12 1842.61H1154.29Z" fill="black"/>
<path d="M1414.49 181.659C1414.83 163.434 1412.76 135.104 1397.19 130.631C1379.55 125.413 1363.98 152.666 1355.94 170.393C1339.05 165.008 1311.64 159.044 1302.78 172.961C1293.75 187.374 1313.38 210.154 1326.3 222.828C1317.68 238.319 1303.52 269.3 1320.25 281.642C1334.33 292.08 1361 275.761 1376.57 264.329C1388.41 277.086 1404.97 291.914 1418.14 291.914C1421.53 291.914 1424.68 290.92 1427.41 288.683C1439.51 278.909 1434.04 254.72 1429.48 240.721C1445.72 233.266 1469.98 219.183 1466.67 202.699C1463.85 188.368 1438.35 183.315 1414.49 181.741V181.659ZM1419.05 236.165C1419.05 236.165 1433.46 273.11 1422.2 282.222C1410.85 291.334 1377.64 253.064 1377.64 253.064C1377.64 253.064 1338.06 284.459 1325.22 274.932C1310.56 264.081 1336.81 221.254 1336.81 221.254C1336.81 221.254 1302.11 189.611 1309.82 177.268C1317.6 165.008 1360.5 180.664 1360.5 180.664C1360.5 180.664 1379.55 134.11 1394.87 138.584C1408.7 142.56 1405.88 189.528 1405.88 189.528C1405.88 189.528 1455.99 191.35 1458.55 204.273C1461.45 218.935 1419.05 236.165 1419.05 236.165Z" fill="black"/>
<path d="M1405.88 189.528C1405.88 189.528 1408.7 142.559 1394.87 138.583C1379.55 134.11 1360.5 180.664 1360.5 180.664C1360.5 180.664 1317.6 165.008 1309.82 177.268C1302.11 189.61 1336.81 221.254 1336.81 221.254C1336.81 221.254 1310.56 264.08 1325.22 274.932C1338.06 284.458 1377.64 253.063 1377.64 253.063C1377.64 253.063 1410.85 291.334 1422.2 282.222C1433.46 273.11 1419.05 236.165 1419.05 236.165C1419.05 236.165 1461.45 218.935 1458.55 204.272C1455.99 191.35 1405.88 189.528 1405.88 189.528ZM1415.9 228.461C1411.68 230.2 1409.69 234.922 1411.35 239.147C1417.56 255.217 1419.71 271.701 1417.39 275.263C1411.93 274.684 1396.36 261.927 1383.94 247.596C1382.28 245.691 1379.96 244.78 1377.64 244.78C1375.82 244.78 1374 245.359 1372.51 246.602C1353.96 261.264 1334.25 270.459 1330.19 268.305C1326.38 265.489 1331.93 245.194 1343.94 225.644C1346.01 222.248 1345.34 217.858 1342.45 215.207C1328.53 202.533 1316.19 186.048 1316.69 181.989C1320.33 179.007 1340.29 182.155 1357.68 188.534C1361.82 190.025 1366.46 188.037 1368.2 183.895C1375.74 165.505 1387.91 147.032 1392.3 146.453C1396.19 149.269 1398.76 169.978 1397.68 189.113C1397.52 191.35 1398.35 193.504 1399.84 195.16C1401.33 196.817 1403.4 197.811 1405.63 197.894C1425.26 198.64 1445.88 202.533 1450.35 206.343C1448.7 211.314 1432.63 221.834 1415.99 228.544L1415.9 228.461Z" fill="black"/>
<path d="M1245.47 1204.86C1242.9 1206.02 1240.42 1207.17 1237.93 1208.25C1293.58 1336.98 1437.85 1674.46 1448.86 1737.83C1455.07 1773.69 1441.33 1798.46 1420.54 1810.97C1420.13 1811.96 1419.3 1812.88 1418.22 1813.29C1417.06 1813.7 1415.65 1814.12 1414 1814.37C1387.58 1826.29 1353.05 1820.33 1332.34 1794.24C1305.51 1760.44 1149.9 1390.33 1096.48 1262.34C1093.83 1263.17 1091.18 1264 1088.53 1264.83C1142.11 1393.14 1298.22 1764.42 1325.88 1799.37C1340.87 1818.34 1363.32 1828.7 1386.26 1828.7C1396.69 1828.7 1407.29 1826.54 1417.31 1822.07C1441.82 1811.14 1465.1 1782.89 1456.98 1736.5C1445.72 1671.8 1301.37 1334.25 1245.39 1204.94L1245.47 1204.86Z" fill="black"/>
<path d="M1389.9 1811.72C1372.09 1812.63 1352.47 1806.17 1338.97 1789.02C1315.7 1759.69 1184.52 1451.63 1104.43 1259.69C1101.78 1260.52 1099.22 1261.43 1096.57 1262.26C1149.98 1390.24 1305.68 1760.36 1332.43 1794.15C1353.13 1820.25 1387.66 1826.21 1414.08 1814.28C1412.42 1814.53 1410.6 1814.61 1408.62 1814.61C1403.32 1814.61 1396.77 1813.62 1389.9 1811.63V1811.72Z" fill="black"/>
<path d="M1440.75 1739.32C1446.13 1770.21 1435.2 1795.15 1411.68 1806.33C1413.17 1806.16 1414.41 1805.92 1415.24 1805.67C1417.39 1804.84 1419.79 1805.92 1420.62 1807.99C1421.04 1808.98 1420.95 1810.06 1420.62 1811.05C1441.41 1798.63 1455.16 1773.78 1448.95 1737.91C1437.93 1674.54 1293.67 1337.06 1238.01 1208.33C1235.45 1209.49 1232.88 1210.65 1230.48 1211.73C1286.05 1340.38 1430.06 1677.19 1440.83 1739.32H1440.75Z" fill="black"/>
<path d="M1353.96 1775.68C1335.32 1745.28 1173.25 1373.26 1121.49 1253.98C1118.84 1254.89 1116.28 1255.8 1113.62 1256.63C1165.47 1375.99 1327.7 1748.68 1346.92 1779.99C1357.85 1797.72 1374.83 1807.32 1389.9 1811.63C1397.27 1811.22 1404.39 1809.56 1410.6 1806.83C1411.02 1806.66 1411.26 1806.41 1411.68 1806.25C1400.08 1807.32 1370.27 1802.19 1353.96 1775.68Z" fill="black"/>
<path d="M1418.3 1813.29C1419.38 1812.87 1420.21 1811.96 1420.62 1810.97C1418.55 1812.21 1416.32 1813.29 1414.16 1814.28C1415.82 1814.03 1417.23 1813.7 1418.39 1813.21L1418.3 1813.29Z" fill="black"/>
<path d="M1420.62 1807.91C1419.79 1805.75 1417.39 1804.76 1415.24 1805.59C1414.41 1805.92 1413.17 1806.17 1411.68 1806.25C1411.26 1806.41 1411.02 1806.66 1410.6 1806.83C1404.39 1809.64 1397.27 1811.3 1389.9 1811.63C1396.77 1813.62 1403.31 1814.61 1408.61 1814.61C1410.6 1814.61 1412.51 1814.45 1414.08 1814.28C1416.32 1813.29 1418.47 1812.21 1420.54 1810.97C1420.95 1810.06 1420.95 1808.9 1420.54 1807.91H1420.62Z" fill="black"/>
<path d="M1401.82 1079.77C1395.86 1114.15 1326.54 1158.55 1242.16 1197.32C1243.23 1199.8 1244.31 1202.29 1245.47 1204.94C1310.98 1174.87 1402.32 1125.5 1410.02 1081.26C1420.29 1022.28 1320.17 781.394 1215.08 542.411C1213.5 545.476 1211.68 548.21 1209.61 550.529C1284.39 720.261 1412.67 1017.64 1401.91 1079.85L1401.82 1079.77Z" fill="black"/>
<path d="M924.392 1281.06C874.703 1248.84 758.927 976.226 694.993 818.34C693.503 818.92 691.929 819.417 690.273 819.665C689.031 819.831 687.788 819.831 686.629 819.665C750.728 978.297 867.995 1254.31 919.92 1288.02C926.297 1292.16 936.483 1293.99 949.485 1293.99C982.86 1293.99 1034.7 1281.73 1088.62 1264.83C1087.54 1262.18 1086.46 1259.69 1085.47 1257.29C1008.53 1281.23 942.943 1292.99 924.392 1281.06Z" fill="black"/>
<path d="M1110.4 1249.26C1107.33 1250.25 1104.35 1251.24 1101.29 1252.24C1102.36 1254.72 1103.36 1257.21 1104.43 1259.78C1107.5 1258.78 1110.56 1257.79 1113.63 1256.71C1112.47 1254.06 1111.39 1251.58 1110.4 1249.26Z" fill="black"/>
<path d="M1121.49 1254.06C1158.68 1241.3 1195.36 1227.06 1225.92 1213.64C1227.41 1212.97 1228.91 1212.31 1230.4 1211.65C1229.24 1209 1228.16 1206.51 1227.08 1204.03C1191.72 1219.68 1154.37 1234.18 1118.26 1246.52C1119.26 1248.92 1120.33 1251.41 1121.49 1253.98V1254.06Z" fill="black"/>
<path d="M1093.42 1254.8C1090.77 1255.63 1088.12 1256.46 1085.47 1257.29C1086.46 1259.69 1087.54 1262.18 1088.62 1264.83C1091.27 1264 1093.92 1263.17 1096.57 1262.34C1095.49 1259.69 1094.41 1257.21 1093.42 1254.8Z" fill="black"/>
<path d="M1234.62 1200.71C1235.7 1203.2 1236.77 1205.68 1237.93 1208.33C1240.42 1207.26 1242.9 1206.1 1245.47 1204.94C1244.31 1202.29 1243.23 1199.8 1242.16 1197.32C1239.67 1198.48 1237.1 1199.64 1234.62 1200.71Z" fill="black"/>
<path d="M1101.29 1252.24C1098.64 1253.06 1095.99 1253.98 1093.42 1254.8C1094.41 1257.21 1095.49 1259.77 1096.57 1262.34C1099.22 1261.51 1101.78 1260.6 1104.43 1259.77C1103.36 1257.21 1102.36 1254.72 1101.29 1252.24Z" fill="black"/>
<path d="M1227.08 1204.11C1228.16 1206.51 1229.24 1209.08 1230.4 1211.73C1232.88 1210.65 1235.37 1209.49 1237.93 1208.33C1236.77 1205.68 1235.7 1203.2 1234.62 1200.71C1232.14 1201.87 1229.57 1202.95 1227.08 1204.11Z" fill="black"/>
<path d="M1113.63 1256.71C1116.28 1255.8 1118.84 1254.97 1121.49 1254.06C1120.33 1251.41 1119.26 1248.92 1118.26 1246.6C1115.61 1247.51 1113.05 1248.43 1110.4 1249.25C1111.39 1251.66 1112.55 1254.14 1113.63 1256.71Z" fill="black"/>
<path d="M928.947 1274.11C884.061 1245.03 773.171 989.231 702.033 813.617C700.045 815.688 697.726 817.262 695.076 818.256C759.01 976.225 874.786 1248.84 924.475 1280.98C942.943 1292.99 1008.62 1281.23 1085.55 1257.21C1084.39 1254.47 1083.4 1251.99 1082.32 1249.59C1003.98 1273.77 943.274 1283.3 928.947 1274.02V1274.11Z" fill="black"/>
<path d="M1202.98 556.079C1273.71 716.699 1403.98 1019.14 1393.71 1078.36C1388.99 1105.7 1330.27 1147.7 1238.93 1189.7C1240 1192.1 1241.08 1194.67 1242.24 1197.32C1326.55 1158.55 1395.94 1114.23 1401.91 1079.77C1412.67 1017.56 1284.47 720.178 1209.61 550.446C1207.62 552.683 1205.39 554.505 1203.07 556.079H1202.98Z" fill="black"/>
<path d="M1107.08 1241.63C1104.1 1242.63 1101.12 1243.62 1098.14 1244.62C1099.22 1247.1 1100.29 1249.67 1101.29 1252.24C1104.27 1251.24 1107.33 1250.25 1110.4 1249.26C1109.24 1246.52 1108.16 1244.04 1107.08 1241.72V1241.63Z" fill="black"/>
<path d="M1219.3 1198.48C1183.52 1214.13 1148.16 1227.72 1115.03 1238.98C1116.03 1241.39 1117.1 1243.87 1118.35 1246.52C1154.45 1234.18 1191.8 1219.68 1227.17 1204.03C1226.01 1201.38 1224.93 1198.81 1223.85 1196.41C1222.36 1197.07 1220.87 1197.73 1219.38 1198.39L1219.3 1198.48Z" fill="black"/>
<path d="M1082.32 1249.67C1083.32 1252.07 1084.39 1254.64 1085.55 1257.29C1088.2 1256.46 1090.85 1255.63 1093.5 1254.8C1092.34 1252.15 1091.35 1249.59 1090.27 1247.18C1087.62 1248.01 1084.97 1248.84 1082.32 1249.67Z" fill="black"/>
<path d="M1231.39 1193.09C1232.47 1195.49 1233.54 1198.06 1234.7 1200.71C1237.27 1199.55 1239.75 1198.39 1242.24 1197.32C1241.08 1194.67 1240 1192.1 1238.93 1189.7C1236.44 1190.86 1233.88 1191.93 1231.39 1193.09Z" fill="black"/>
<path d="M1223.77 1196.49C1224.85 1198.89 1225.92 1201.46 1227.08 1204.11C1229.65 1202.95 1232.14 1201.87 1234.62 1200.71C1233.46 1198.06 1232.38 1195.49 1231.31 1193.09C1228.82 1194.25 1226.26 1195.33 1223.77 1196.49Z" fill="black"/>
<path d="M1098.14 1244.62C1095.49 1245.45 1092.84 1246.36 1090.27 1247.19C1091.27 1249.59 1092.34 1252.16 1093.5 1254.81C1096.15 1253.98 1098.72 1253.15 1101.37 1252.24C1100.29 1249.67 1099.22 1247.1 1098.22 1244.62H1098.14Z" fill="black"/>
<path d="M1110.4 1249.26C1113.05 1248.34 1115.61 1247.52 1118.26 1246.6C1117.1 1243.87 1116.03 1241.39 1114.95 1239.07C1112.3 1239.98 1109.65 1240.89 1107.08 1241.72C1108.08 1244.12 1109.15 1246.6 1110.4 1249.26Z" fill="black"/>
<path d="M543.525 345.012C555.367 233.928 697.065 154.074 817.893 109.011C925.47 68.9182 984.186 105.698 1024.02 139.329C1101.7 204.853 1130.27 320.161 1188 427.932C1213.25 474.983 1217.15 511.099 1210.44 532.057C1211.93 535.536 1213.5 538.932 1214.99 542.412C1226.75 519.714 1223.85 477.468 1195.28 424.038C1177.31 390.489 1162.16 356.029 1147.42 322.729C1114.87 248.922 1084.14 179.174 1029.32 132.951C983.938 94.6803 922.986 60.883 814.994 101.224C716.278 138.004 548.742 218.521 535.326 344.101C521.579 472.912 619.052 762.425 670.315 811.216C676.03 816.6 681.33 819.334 686.547 819.665C685.222 816.435 683.98 813.287 682.738 810.222C637.355 787.359 529.198 479.539 543.525 345.012Z" fill="black"/>
<path d="M689.942 713.469C679.59 681.245 666.753 641.235 672.965 628.23C675.698 622.349 680.501 615.473 686.878 616.136C698.223 617.13 715.863 637.591 727.954 680.334C729.445 685.553 730.936 691.103 732.509 696.984C747.664 752.402 768.451 828.28 812.343 848.244C819.548 851.557 827.084 853.131 834.869 853.131C844.558 853.131 854.745 850.563 865.262 845.51C886.877 835.073 900.873 819.914 907.001 800.53C921.328 754.721 887.788 695.245 863.358 651.756L860.459 646.62C835.283 601.722 817.975 534.873 832.633 500.496C837.602 488.899 845.635 481.775 857.395 478.793C896.484 468.687 930.604 516.401 958.099 554.754C968.202 568.919 976.981 581.096 985.096 589.297C1012.26 616.467 1042.24 613.402 1061.2 601.474C1086.88 585.238 1098.31 552.849 1088.28 524.353C1084.23 512.756 1078.84 500.165 1073.63 488.071C1061.62 460.072 1048.04 428.263 1054.58 415.423C1055.49 413.601 1057.39 410.95 1063.27 409.542C1085.14 404.323 1105.26 446.901 1123.15 484.426C1131.18 501.242 1139.46 518.637 1147.99 532.223C1167.12 562.458 1189.07 564.363 1202.07 556.825C1202.4 556.659 1202.65 556.328 1202.98 556.162C1201.82 553.594 1200.75 551.026 1199.59 548.541C1187.58 557.239 1169.86 551.441 1154.95 527.832C1126.05 482.106 1101.04 392.146 1061.37 401.507C1021.7 410.867 1062.94 477.219 1080.5 527.17C1098.06 577.037 1039.09 631.626 990.976 583.498C961.08 553.594 915.283 455.35 855.324 470.841C795.366 486.331 820.376 592.196 853.254 650.762C886.132 709.327 940.21 800.116 861.701 838.138C783.192 876.16 754.869 745.195 735.904 678.181C716.94 611.166 682.323 589.297 665.428 624.834C650.439 656.395 712.799 774.022 698.223 804.506C699.466 807.571 700.708 810.636 701.95 813.701C702.944 812.707 703.855 811.547 704.6 810.222C715.283 792.826 703.524 756.13 689.859 713.552L689.942 713.469Z" fill="black"/>
<path d="M695.076 818.257C693.999 815.689 693.005 813.121 691.929 810.553C691.018 810.884 690.024 811.216 688.947 811.381C687.043 811.713 684.972 811.216 682.736 810.139C683.979 813.286 685.304 816.434 686.546 819.582C687.788 819.582 689.03 819.748 690.19 819.582C691.846 819.334 693.42 818.837 694.91 818.257H695.076Z" fill="black"/>
<path d="M1205.8 541.831C1207.04 544.648 1208.28 547.547 1209.61 550.446C1211.68 548.127 1213.5 545.393 1215.07 542.328C1213.58 538.849 1212.01 535.453 1210.52 531.974C1209.28 535.784 1207.7 539.015 1205.8 541.831Z" fill="black"/>
<path d="M702.033 813.619C700.791 810.554 699.549 807.406 698.306 804.424C696.899 807.323 694.828 809.477 691.93 810.637C692.923 813.204 694 815.772 695.077 818.34C697.727 817.263 700.128 815.69 702.033 813.702V813.619Z" fill="black"/>
<path d="M1199.67 548.458C1200.75 550.943 1201.91 553.511 1203.07 556.079C1205.47 554.588 1207.62 552.683 1209.61 550.446C1208.28 547.547 1207.04 544.647 1205.8 541.831C1203.98 544.482 1201.91 546.801 1199.67 548.458Z" fill="black"/>
<path d="M551.805 345.84C564.227 229.124 725.717 152.252 820.789 116.715C920.831 79.4383 976.98 110.419 1018.72 145.625C1070.56 189.362 1100.54 257.371 1132.34 329.356C1147.17 362.988 1162.49 397.696 1180.71 431.825C1200.83 469.433 1206.46 499.254 1204.64 518.72C1206.63 523.111 1208.53 527.584 1210.52 531.974C1217.23 511.099 1213.25 474.983 1188.08 427.849C1130.35 320.078 1101.78 204.77 1024.1 139.246C984.267 105.615 925.551 68.8352 817.974 108.928C697.063 154.074 555.366 233.928 543.523 345.012C529.113 479.621 637.353 787.442 682.736 810.222C680.251 803.926 677.767 797.879 675.448 792.081C625.013 727.965 539.299 462.723 551.805 345.84Z" fill="black"/>
<path d="M665.428 624.75C682.323 589.214 716.94 611.082 735.904 678.097C754.869 745.112 783.192 876.076 861.701 838.054C940.21 800.032 886.132 709.244 853.254 650.678C820.376 592.113 795.366 486.248 855.324 470.757C915.283 455.267 961.08 553.511 990.976 583.415C1039.09 631.543 1098.06 576.954 1080.5 527.086C1062.94 477.136 1021.7 410.784 1061.37 401.423C1101.04 392.063 1126.05 482.023 1154.95 527.749C1169.86 551.357 1187.66 557.156 1199.59 548.458C1198.43 545.807 1197.27 543.156 1196.11 540.588C1195.37 541.334 1194.54 541.914 1193.63 542.411C1185.01 547.464 1172.26 539.76 1161.91 523.276C1153.87 510.602 1146.17 494.366 1138.06 477.219C1116.52 431.907 1094.25 385.104 1059.46 393.305C1050.19 395.542 1043.56 400.429 1039.75 407.802C1029.82 427.517 1043.65 460.071 1058.39 494.449C1063.44 506.377 1068.74 518.637 1072.63 529.737C1081.08 553.842 1068.82 576.954 1052.34 587.308C1034.54 598.491 1014.25 594.929 996.773 577.451C989.568 570.244 980.79 557.984 971.515 544.979C942.695 504.72 903.275 449.634 853.171 462.639C836.608 466.947 824.269 477.716 817.312 493.869C800.004 534.376 819.134 606.941 845.883 654.654L848.782 659.79C871.805 700.629 903.275 756.543 891.018 795.476C886.297 810.553 875.449 821.984 857.892 830.433C843.399 837.474 830.728 838.303 819.051 833.001C782.198 816.268 761.826 741.798 748.327 692.511C746.67 686.629 745.18 680.996 743.689 675.778C730.687 629.969 709.9 601.473 688.037 599.651C687.374 599.651 686.629 599.568 685.884 599.568C678.348 599.568 666.422 602.882 657.726 621.188C648.782 640.075 660.956 678.18 673.876 718.604C681.743 743.207 691.101 772.365 692.012 789.595C694 794.482 695.987 799.452 697.975 804.506C712.468 774.105 650.107 656.394 665.18 624.833L665.428 624.75Z" fill="black"/>
<path d="M687.788 803.264C687.788 803.264 684.724 802.933 678.264 795.477C677.353 794.483 676.442 793.158 675.531 791.998C677.85 797.797 680.335 803.927 682.819 810.139C685.055 811.216 687.125 811.713 689.03 811.382C690.107 811.216 691.101 810.885 692.012 810.553C690.935 807.903 689.941 805.418 688.865 802.85C688.533 803.015 688.285 803.181 687.788 803.264Z" fill="black"/>
<path d="M1201.49 532.222C1202.9 535.37 1204.31 538.6 1205.72 541.831C1207.54 539.098 1209.2 535.784 1210.44 531.974C1208.45 527.583 1206.55 523.11 1204.56 518.72C1204.06 524.021 1202.98 528.494 1201.49 532.222Z" fill="black"/>
<path d="M1196.19 540.589C1197.35 543.157 1198.51 545.808 1199.67 548.459C1201.99 546.802 1203.98 544.565 1205.8 541.832C1204.39 538.601 1202.9 535.37 1201.58 532.223C1200.17 535.785 1198.35 538.601 1196.19 540.589Z" fill="black"/>
<path d="M698.306 804.34C696.236 799.287 694.248 794.317 692.343 789.43C692.592 794.648 692.178 798.873 690.604 801.441C690.19 802.104 689.611 802.518 688.865 802.849C689.859 805.417 690.936 807.985 692.012 810.553C694.911 809.393 696.981 807.24 698.389 804.34H698.306Z" fill="black"/>
<path d="M1052.51 911.365C1052.51 911.365 1053 911.117 1053.34 910.951C1053.09 911.117 1052.76 911.2 1052.51 911.365Z" fill="black"/>
<path d="M1061.62 911.033C1061.62 911.033 1062.11 911.447 1062.36 911.613C1062.11 911.447 1061.87 911.199 1061.62 911.033Z" fill="black"/>
<path d="M1049.53 915.672C1049.53 915.672 1049.28 916.169 1049.19 916.5C1048.78 918.737 1048.12 920.808 1047.21 922.879L1050.02 921.553C1049.11 919.648 1048.95 917.66 1049.53 915.672Z" fill="black"/>
<path d="M1061.12 932.157C1058.8 930.666 1056.57 928.927 1054.5 927.021C1050.77 935.305 1044.39 942.181 1036.36 945.991C1030.65 948.725 1024.19 949.801 1017.81 949.387C1018.47 951.375 1019.38 954.275 1020.71 957.837C1027.33 957.837 1033.96 956.346 1040 953.529C1049.11 949.139 1056.57 941.518 1061.2 932.24L1061.12 932.157Z" fill="black"/>
<path d="M1058.8 909.873C1058.8 909.873 1058.72 909.873 1058.64 909.873C1058.8 909.873 1058.97 909.956 1059.13 910.039C1058.97 910.039 1058.89 909.873 1058.72 909.873H1058.8Z" fill="black"/>
<path d="M1050.27 913.767C1050.27 913.767 1050.77 913.187 1051.02 912.855C1050.77 913.187 1050.52 913.435 1050.27 913.767Z" fill="black"/>
<path d="M1006.63 940.524C1007.95 940.11 1009.28 940.193 1010.52 940.524L1011.93 939.862C1009.86 939.282 1007.87 938.453 1006.05 937.459C1002.07 935.223 997.021 936.631 994.785 940.607C992.549 944.583 993.957 949.636 997.932 951.873C999.174 952.618 1000.58 953.198 1001.91 953.778C1001.41 952.204 1001.16 951.21 1001 950.796C999.754 946.406 1002.32 941.85 1006.71 940.524H1006.63Z" fill="black"/>
<path d="M1016.9 946.24C1016.9 946.24 1017.23 947.482 1017.89 949.305C1024.27 949.802 1030.73 948.642 1036.44 945.909C1044.48 942.098 1050.85 935.223 1054.58 926.939C1053.34 925.779 1052.18 924.537 1051.1 923.294C1050.6 922.714 1050.44 922.135 1050.11 921.555L1047.29 922.88C1044.39 929.673 1039.26 935.388 1032.88 938.453C1026.59 941.518 1018.89 941.85 1012.01 939.779L1010.6 940.441C1013.5 941.021 1016.07 943.092 1016.98 946.157L1016.9 946.24Z" fill="black"/>
<path d="M1089.2 931.495C1080.5 932.241 1071.56 929.59 1064.27 924.371C1063.44 927.105 1062.36 929.673 1061.12 932.158C1068.66 937.045 1077.52 939.862 1086.3 939.862C1087.46 939.862 1088.7 939.862 1089.86 939.696C1094.91 939.282 1099.8 937.873 1104.35 935.803C1103.44 932.241 1102.61 929.507 1102.11 927.767C1098.06 929.755 1093.67 931.081 1089.2 931.412V931.495Z" fill="black"/>
<path d="M1065.43 917.247L1068.41 916.998C1066.67 915.673 1065.01 914.265 1063.61 912.525C1063.27 912.111 1062.78 911.863 1062.36 911.531C1064.1 912.939 1065.18 914.928 1065.43 917.247Z" fill="black"/>
<path d="M1115.03 917.163C1115.94 918.074 1116.77 919.151 1117.19 920.477C1117.35 920.891 1117.93 922.796 1118.76 925.613C1121.16 923.045 1123.32 920.145 1125.05 917.08C1127.29 913.104 1125.88 908.051 1121.91 905.815C1117.93 903.578 1112.88 904.986 1110.64 908.962C1109.65 910.785 1108.33 912.442 1106.92 913.933L1117.85 913.021C1117.02 914.513 1116.03 915.921 1115.03 917.246V917.163Z" fill="black"/>
<path d="M1055.99 909.956C1056.9 909.791 1057.73 909.791 1058.64 909.956C1057.73 909.791 1056.81 909.873 1055.99 909.956Z" fill="black"/>
<path d="M1053.25 910.95C1053.92 910.536 1054.66 910.205 1055.41 910.039C1054.66 910.205 1054 910.536 1053.25 910.95Z" fill="black"/>
<path d="M1059.22 910.039C1060.13 910.288 1060.96 910.536 1061.62 911.033C1060.87 910.536 1060.04 910.288 1059.22 910.039Z" fill="black"/>
<path d="M1052.01 911.614C1052.01 911.614 1051.35 912.442 1051.02 912.856C1051.43 912.276 1051.93 911.779 1052.51 911.365C1052.34 911.448 1052.18 911.531 1052.01 911.614Z" fill="black"/>
<path d="M1050.02 921.553L1057.31 918.074C1056.73 921.139 1055.74 924.204 1054.5 927.02C1056.57 928.925 1058.8 930.665 1061.12 932.156C1062.36 929.671 1063.44 927.02 1064.27 924.369C1061.7 922.547 1059.38 920.393 1057.31 917.991L1065.43 917.328C1065.18 915.092 1064.1 913.021 1062.36 911.613C1062.12 911.447 1061.87 911.198 1061.62 911.033C1060.87 910.619 1060.05 910.287 1059.22 910.039C1059.05 910.039 1058.89 909.956 1058.72 909.873C1057.81 909.707 1056.9 909.79 1056.07 909.873C1055.9 909.873 1055.66 909.873 1055.49 909.873C1054.75 910.039 1054 910.453 1053.34 910.784C1053.09 910.95 1052.76 911.033 1052.51 911.198C1051.93 911.613 1051.52 912.192 1051.02 912.689C1050.77 913.021 1050.52 913.269 1050.27 913.601C1049.94 914.18 1049.69 914.843 1049.53 915.506C1048.95 917.411 1049.11 919.482 1050.02 921.387V921.553Z" fill="black"/>
<path d="M1050.02 921.554C1050.35 922.134 1050.52 922.797 1051.02 923.294C1052.09 924.619 1053.25 925.779 1054.5 926.938C1055.74 924.122 1056.73 921.057 1057.31 917.992L1050.02 921.471V921.554Z" fill="black"/>
<path d="M1065.51 919.566C1065.18 921.222 1064.77 922.796 1064.35 924.37C1071.64 929.589 1080.58 932.24 1089.28 931.494C1093.75 931.08 1098.14 929.837 1102.2 927.849C1101.78 926.607 1101.54 925.696 1101.54 925.696C1100.13 921.305 1102.45 916.666 1106.84 915.258C1109.9 914.264 1112.96 915.258 1115.12 917.246C1116.11 915.921 1117.11 914.513 1117.93 913.021L1107 913.933C1102.2 919.234 1095.57 922.713 1088.53 923.293C1081.49 923.873 1074.29 921.554 1068.41 917.081L1065.43 917.329C1065.43 918.075 1065.59 918.82 1065.43 919.566H1065.51Z" fill="black"/>
<path d="M1065.43 917.246L1057.31 917.909C1059.38 920.311 1061.7 922.465 1064.27 924.287C1064.76 922.713 1065.18 921.139 1065.43 919.483C1065.59 918.737 1065.43 917.992 1065.43 917.246Z" fill="black"/>
<path d="M1080.66 1049.29C1084.47 1049.29 1088.37 1048.79 1092.42 1047.63C1104.6 1044.32 1113.87 1036.86 1120 1025.6C1136.65 994.532 1123.56 942.014 1118.84 925.529C1114.78 929.837 1109.82 933.316 1104.43 935.801C1109.32 954.688 1117.6 995.029 1105.43 1017.73C1101.53 1025.02 1095.9 1029.49 1088.12 1031.64C1054.66 1040.84 1029.9 983.101 1020.79 957.753C1020.79 957.753 1020.71 957.753 1020.62 957.753C1014.25 957.753 1007.79 956.344 1001.82 953.694C1006.96 970.344 1033.87 1049.2 1080.66 1049.2V1049.29Z" fill="black"/>
<path d="M1020.71 957.754C1019.47 954.192 1018.47 951.293 1017.81 949.305C1012.26 948.891 1006.79 947.399 1001.91 944.583L1010.52 940.441C1009.28 940.193 1007.95 940.11 1006.63 940.441C1002.24 941.684 999.672 946.24 1000.91 950.713C1001 951.044 1001.33 952.121 1001.83 953.695C1007.79 956.346 1014.17 957.754 1020.62 957.754C1020.62 957.754 1020.71 957.754 1020.79 957.754H1020.71Z" fill="black"/>
<path d="M1010.52 940.523L1001.91 944.665C1006.79 947.399 1012.26 948.973 1017.81 949.387C1017.23 947.565 1016.9 946.405 1016.81 946.322C1015.9 943.257 1013.42 941.186 1010.44 940.606L1010.52 940.523Z" fill="black"/>
<path d="M1115.03 917.163C1111.56 921.636 1107.17 925.281 1102.12 927.766C1102.61 929.506 1103.44 932.239 1104.35 935.801C1109.73 933.316 1114.62 929.837 1118.76 925.529C1117.93 922.713 1117.35 920.808 1117.19 920.393C1116.77 919.068 1115.95 917.991 1115.03 917.08V917.163Z" fill="black"/>
<path d="M1115.03 917.163C1112.88 915.092 1109.82 914.181 1106.75 915.175C1102.45 916.583 1100.04 921.305 1101.45 925.612C1101.45 925.612 1101.7 926.523 1102.11 927.766C1107.08 925.281 1111.56 921.636 1115.03 917.163Z" fill="black"/>
<path d="M912.384 905.732C890.852 905.732 873.461 923.128 873.461 944.666C873.461 966.203 890.852 983.599 912.384 983.599C933.916 983.599 951.308 966.203 951.308 944.666C951.308 923.128 933.916 905.732 912.384 905.732ZM899.548 952.287C893.254 952.287 888.119 947.151 888.119 940.855C888.119 934.56 893.254 929.424 899.548 929.424C905.842 929.424 910.976 934.56 910.976 940.855C910.976 947.151 905.842 952.287 899.548 952.287Z" fill="black"/>
<path d="M1186.75 909.046C1208.28 909.046 1225.67 891.65 1225.67 870.113C1225.67 848.575 1208.28 831.18 1186.75 831.18C1165.22 831.18 1147.83 848.575 1147.83 870.113C1147.83 891.65 1165.22 909.046 1186.75 909.046ZM1173.91 854.954C1180.21 854.954 1185.34 860.09 1185.34 866.385C1185.34 872.681 1180.21 877.817 1173.91 877.817C1167.62 877.817 1162.49 872.681 1162.49 866.385C1162.49 860.09 1167.62 854.954 1173.91 854.954Z" fill="black"/>
<path d="M773.338 1671.31C774.166 1674.21 774.994 1677.19 775.822 1680.09C778.224 1678.02 780.543 1675.78 782.53 1673.38C781.619 1670.07 780.626 1666.75 779.632 1663.36C777.81 1666.25 775.657 1668.91 773.338 1671.31Z" fill="black"/>
<path d="M766.381 1676.94C767.209 1679.67 767.954 1682.49 768.783 1685.14C771.35 1683.73 773.669 1681.99 775.905 1680.09C775.076 1677.19 774.248 1674.29 773.42 1671.31C771.267 1673.46 768.948 1675.28 766.464 1676.86L766.381 1676.94Z" fill="black"/>
<path d="M770.604 1661.95C771.514 1665.09 772.425 1668.24 773.336 1671.39C775.738 1668.99 777.808 1666.34 779.63 1663.44C778.554 1659.54 777.394 1655.65 776.235 1651.76C774.91 1655.32 773.005 1658.8 770.604 1662.03V1661.95Z" fill="black"/>
<path d="M763.979 1668.66C764.807 1671.47 765.552 1674.21 766.38 1676.94C768.865 1675.37 771.183 1673.46 773.337 1671.39C772.426 1668.24 771.515 1665.18 770.604 1661.95C768.699 1664.43 766.463 1666.75 763.979 1668.66Z" fill="black"/>
<path d="M797.435 1761.02C798.264 1758.87 797.187 1756.46 795.117 1755.63C792.963 1754.81 790.562 1755.8 789.734 1757.95C789.734 1757.95 789.568 1758.29 789.402 1758.7C790.562 1763.01 791.638 1767.15 792.715 1771.12C795.779 1764.99 797.353 1761.18 797.435 1760.94V1761.02Z" fill="black"/>
</g>
<defs>
<clipPath id="clip0_157_253">
<rect width="933" height="1834" fill="white" transform="translate(534 83)"/>
</clipPath>
</defs>
</svg>
