<svg width="2000" height="2000" viewBox="0 0 2000 2000" fill="none" xmlns="http://www.w3.org/2000/svg">
<g clip-path="url(#clip0_157_254)">
<path d="M199.232 1774.12C199.232 1774.12 198.797 1774.12 198.579 1774.07L148.55 1766.63C146.853 1766.37 145.418 1765.11 144.983 1763.46C144.548 1761.76 145.113 1760.02 146.462 1758.93C147.55 1758.02 173.521 1736.49 146.766 1701.12C133.976 1684.24 128.843 1671.37 130.54 1660.67C132.497 1648.31 143.112 1640.96 154.38 1633.17L157.338 1631.13C162.645 1627.43 168.605 1624.17 174.391 1621.04C183.831 1615.9 194.533 1610.07 194.838 1605.25C195.012 1602.77 192.228 1599.37 187.094 1595.68C183.57 1593.15 177.784 1590.06 171.041 1586.5C144.548 1572.4 104.481 1551.13 99.4782 1512.72C95.6499 1483.18 114.269 1449.12 154.902 1411.49C156.294 1410.23 158.338 1409.97 159.992 1410.89L223.333 1446.16C224.681 1446.9 225.551 1448.34 225.551 1449.91C225.551 1451.47 224.768 1452.91 223.42 1453.69C222.985 1453.95 179.829 1479.96 174.522 1508.98C172.869 1518.07 175.087 1526.29 181.352 1534.12C195.403 1551.83 211.935 1556.4 226.465 1560.44C244.954 1565.57 262.442 1570.45 266.314 1600.11C270.229 1630.09 245.737 1638.39 224.116 1645.75C206.671 1651.66 191.619 1656.75 190.792 1671.15C189.965 1685.33 195.099 1696.38 200.58 1708.04C208.846 1725.7 217.373 1743.97 203.103 1771.81C202.364 1773.29 200.841 1774.16 199.232 1774.16V1774.12ZM157.99 1759.24L196.752 1765.02C207.149 1742.58 200.45 1728.22 192.75 1711.69C187.094 1699.56 181.221 1686.98 182.178 1670.58C183.353 1650.36 202.712 1643.79 221.375 1637.44C245.867 1629.13 260.528 1622.56 257.744 1601.16C254.612 1577.23 242.518 1573.88 224.203 1568.75C209.15 1564.57 190.4 1559.35 174.565 1539.43C166.778 1529.64 163.907 1518.81 165.995 1507.28C170.737 1481.36 199.754 1458.95 212.761 1450.12L158.512 1419.93C121.665 1454.69 104.742 1485.49 108.135 1511.5C112.573 1545.43 150.203 1565.49 175.131 1578.71C182.135 1582.45 188.182 1585.67 192.184 1588.54C200.189 1594.28 203.887 1599.94 203.538 1605.72C202.929 1615.38 191.619 1621.52 178.567 1628.65C172.999 1631.65 167.257 1634.78 162.341 1638.22L159.339 1640.31C148.811 1647.57 140.545 1653.36 139.153 1662.01C137.848 1670.11 142.634 1681.2 153.727 1695.86C176.653 1726.13 165.995 1748.71 157.947 1759.24H157.99Z" fill="black"/>
<path d="M1842.14 1123.3C1838.36 1123.3 1830.57 1118.65 1810.25 1090.98C1809.43 1089.89 1809.21 1088.46 1809.6 1087.15C1809.99 1085.85 1810.95 1084.8 1812.25 1084.33C1812.51 1084.24 1838.7 1074.15 1843.4 1057.14C1845.36 1050.05 1843.18 1042.39 1836.92 1034.43C1826.61 1021.38 1817.43 1014.2 1810.08 1008.42C1797.68 998.716 1789.5 992.322 1797.59 970.615C1802.29 958 1812.69 949.038 1821.08 941.861C1827.48 936.38 1833.53 931.16 1833.14 927.419C1832.96 925.461 1830.87 922.112 1822.09 917.109C1813.08 911.976 1800.2 910.714 1786.59 909.322C1748.56 905.494 1701.28 900.753 1700.58 809.923C1700.58 808.357 1701.41 806.878 1702.8 806.095L1757.05 775.645C1758.7 774.688 1760.83 774.992 1762.18 776.341C1763.57 777.689 1763.88 779.777 1763.01 781.474C1762.09 783.257 1740.69 825.627 1784.37 853.337C1803.77 865.604 1821.61 863.951 1837.4 862.516C1858.67 860.558 1878.77 858.688 1888.91 895.446C1897.17 925.374 1886.43 939.12 1877.77 950.169C1868.76 961.697 1862.8 969.31 1879.77 993.105C1897.87 1018.47 1904.44 1042.26 1899.35 1063.79C1893.95 1086.54 1875.55 1106.34 1844.71 1122.56C1844.05 1122.91 1843.27 1123.3 1842.18 1123.3H1842.14ZM1820.52 1090.2C1828.78 1101.03 1838.14 1111.86 1841.88 1114.21C1869.63 1099.33 1886.12 1081.72 1890.86 1061.79C1895.39 1042.83 1889.25 1021.42 1872.68 998.194C1851.93 969.092 1861.59 956.782 1870.9 944.862C1879.12 934.379 1887.6 923.504 1880.51 897.838C1872.29 868.127 1859.45 869.302 1838.18 871.259C1821.87 872.782 1801.6 874.609 1779.71 860.776C1746.69 839.852 1745.13 809.314 1750.74 789.261L1709.28 812.533C1710.72 893.097 1749.7 897.012 1787.41 900.796C1801.99 902.275 1815.73 903.624 1826.35 909.67C1836.27 915.325 1841.18 920.72 1841.75 926.723C1842.53 934.944 1835.22 941.295 1826.7 948.603C1818.69 955.477 1809.6 963.307 1805.68 973.79C1799.81 989.538 1803.42 992.365 1815.39 1001.67C1822.74 1007.42 1832.79 1015.29 1843.71 1029.17C1851.8 1039.43 1854.5 1049.7 1851.75 1059.62C1847.27 1075.67 1829.52 1085.98 1820.52 1090.29V1090.2Z" fill="black"/>
<path d="M308.817 395.102C307.904 395.102 307.034 394.841 306.294 394.276L276.494 373.004C275.363 372.221 274.71 370.916 274.667 369.568C274.667 368.176 275.276 366.871 276.364 366.044C291.72 354.168 295.94 333.636 299.986 313.756C304.249 292.963 308.295 273.301 325.087 265.514C340.836 258.206 357.15 263.731 371.549 268.603C387.863 274.127 396.607 276.607 401.871 267.298C407.222 257.858 403.872 250.071 398.782 238.283C392.561 223.797 384.774 205.788 390.778 177.034C396.042 151.716 412.355 131.054 435.586 120.309C457.077 110.347 481.308 110.565 500.363 120.918C536.253 140.406 571.491 141.668 571.839 141.668C573.057 141.668 574.188 142.233 575.015 143.147C575.841 144.06 576.189 145.278 576.059 146.496L571.796 184.82C571.622 186.386 570.621 187.691 569.229 188.344C544.214 199.306 525.551 192.346 509.151 186.212C489.748 178.991 472.999 172.771 446.636 192.085C419.446 212.052 428.756 226.015 440.546 243.677C448.855 256.205 458.295 270.386 450.073 286.307C438.675 308.406 423.753 306.796 407.875 305.1C396.999 303.925 384.687 302.62 369.896 307.579C348.666 314.67 348.666 319.368 348.753 330.765C348.753 338.117 348.84 347.252 343.837 359.388C330.264 392.231 310.296 394.928 309.47 395.016C309.296 395.016 309.122 395.016 308.948 395.016L308.817 395.102ZM286.021 369.133L309.774 386.098C313.907 384.836 326.132 379.181 335.659 356.126C340.009 345.599 339.966 337.769 339.922 330.896C339.835 317.019 341.097 308.058 367.025 299.401C383.643 293.833 397.521 295.355 408.701 296.53C424.188 298.183 433.542 299.184 442.242 282.392C448.115 270.995 441.198 260.598 433.194 248.549C421.752 231.366 407.527 210.007 441.416 185.125C471.564 162.983 492.184 170.683 512.109 178.078C527.857 183.95 542.779 189.518 563.399 181.34L566.88 150.107C555.699 149.106 526.465 145.061 496.187 128.618C479.525 119.569 458.252 119.439 439.241 128.27C418.576 137.84 404.003 156.284 399.304 178.904C393.866 204.961 401.045 221.578 406.787 234.933C412.007 247.026 416.923 258.467 409.441 271.691C400.392 287.656 384.296 282.218 368.765 276.955C355.279 272.387 341.358 267.646 328.742 273.518C315.952 279.478 312.515 296.226 308.513 315.627C304.684 334.289 300.378 355.212 286.021 369.263V369.133Z" fill="black"/>
<path d="M249.479 838.112C248.957 838.112 248.434 838.112 247.912 838.068C240.821 837.503 234.818 833.283 231.86 826.802L219.983 800.658C218.678 797.787 216.198 795.655 213.153 794.829L185.441 787.216C178.568 785.346 173.478 780.082 171.825 773.122C170.172 766.205 172.303 759.202 177.567 754.373L198.797 735.015C201.103 732.884 202.364 729.882 202.234 726.707L200.929 697.996C200.624 690.862 204.017 684.424 210.108 680.683C216.198 676.985 223.507 676.855 229.685 680.378L254.655 694.56C257.396 696.126 260.659 696.387 263.617 695.256L290.502 685.12C297.202 682.597 304.38 683.859 309.818 688.513C315.256 693.124 317.605 700.084 316.169 707.044L310.383 735.189C309.731 738.278 310.514 741.453 312.472 743.933L330.395 766.379C334.832 771.947 335.876 779.212 333.136 785.781C330.395 792.349 324.566 796.786 317.474 797.569L288.936 800.745C285.804 801.093 283.02 802.789 281.28 805.443L265.488 829.412C261.877 834.936 255.961 838.068 249.479 838.068V838.112ZM220.157 686.512C218.243 686.512 216.372 687.034 214.632 688.078C211.283 690.123 209.412 693.69 209.586 697.561L210.891 726.272C211.152 732.014 208.89 737.495 204.627 741.41L183.397 760.768C180.526 763.421 179.351 767.249 180.265 771.034C181.178 774.818 183.962 777.733 187.747 778.777L215.459 786.39C220.984 787.912 225.552 791.784 227.901 797.004L239.777 823.148C241.387 826.715 244.693 829.02 248.565 829.325C252.48 829.629 256.091 827.889 258.223 824.583L274.015 800.614C277.19 795.829 282.237 792.697 287.979 792.045L316.517 788.869C320.389 788.434 323.608 786.042 325.131 782.387C326.61 778.777 326.045 774.818 323.608 771.73L305.685 749.283C302.118 744.803 300.726 739.017 301.857 733.362L307.643 705.217C308.426 701.389 307.121 697.605 304.162 695.038C301.204 692.515 297.245 691.819 293.591 693.168L266.706 703.303C261.312 705.348 255.395 704.869 250.392 702.042L225.421 687.861C223.768 686.947 221.984 686.469 220.201 686.469L220.157 686.512Z" fill="black"/>
<path d="M1111.59 328.24C1105.76 328.24 1100.15 325.891 1095.97 321.454L1072.82 297.181C1070.13 294.353 1066.34 292.918 1062.47 293.179L1028.97 295.441C1021.01 295.963 1013.53 292.265 1009.18 285.479C1004.83 278.693 1004.52 270.428 1008.31 263.338L1024.23 233.801C1026.06 230.364 1026.32 226.318 1024.84 222.708L1012.31 191.561C1009.31 184.079 1010.57 175.901 1015.66 169.681C1020.75 163.46 1028.54 160.589 1036.46 162.025L1069.48 168.071C1073.3 168.767 1077.22 167.723 1080.22 165.244L1105.97 143.711C1112.15 138.534 1120.33 137.186 1127.81 140.1C1135.34 143.015 1140.43 149.54 1141.52 157.5L1146 190.735C1146.52 194.607 1148.69 198 1152 200.088L1180.41 217.923C1187.24 222.186 1191.02 229.538 1190.59 237.585C1190.15 245.633 1185.54 252.506 1178.28 255.986L1148.04 270.515C1144.52 272.212 1141.95 275.344 1141.04 279.128L1132.86 311.667C1130.9 319.453 1125.07 325.369 1117.29 327.414C1115.37 327.892 1113.5 328.153 1111.59 328.153V328.24ZM1063.34 284.435C1069.3 284.435 1074.96 286.828 1079.09 291.178L1102.23 315.451C1105.58 318.931 1110.37 320.323 1115.02 319.062C1119.72 317.844 1123.2 314.277 1124.38 309.622L1132.56 277.084C1134.12 270.776 1138.38 265.556 1144.26 262.772L1174.49 248.243C1178.84 246.155 1181.63 242.022 1181.89 237.194C1182.15 232.365 1179.89 227.928 1175.8 225.361L1147.39 207.526C1141.91 204.09 1138.25 198.391 1137.38 191.996L1132.9 158.762C1132.25 153.977 1129.21 150.062 1124.68 148.322C1120.16 146.582 1115.24 147.365 1111.54 150.497L1085.79 172.03C1080.83 176.206 1074.3 177.902 1067.91 176.728L1034.89 170.681C1030.15 169.811 1025.45 171.551 1022.4 175.292C1019.36 179.033 1018.58 183.949 1020.4 188.429L1032.93 219.576C1035.37 225.579 1034.98 232.322 1031.89 238.02L1015.97 267.557C1013.66 271.82 1013.88 276.779 1016.49 280.825C1019.1 284.87 1023.49 287.176 1028.36 286.784L1061.86 284.522C1062.34 284.522 1062.86 284.479 1063.34 284.479V284.435Z" fill="black"/>
<path d="M1718.07 1504.15C1713.07 1504.15 1708.28 1502.15 1704.67 1498.37L1685.66 1478.44C1683.61 1476.31 1680.7 1475.18 1677.78 1475.4L1650.33 1477.27C1643.42 1477.75 1637.11 1474.57 1633.37 1468.74C1629.63 1462.96 1629.36 1455.87 1632.63 1449.82L1645.68 1425.59C1647.07 1422.98 1647.24 1419.89 1646.16 1417.15L1635.89 1391.61C1633.32 1385.22 1634.37 1378.22 1638.76 1372.87C1643.11 1367.52 1649.81 1365.08 1656.55 1366.34L1683.61 1371.3C1686.53 1371.82 1689.49 1371.04 1691.79 1369.13L1712.89 1351.46C1718.2 1347.07 1725.16 1345.9 1731.6 1348.38C1738.04 1350.85 1742.43 1356.42 1743.34 1363.25L1747 1390.53C1747.39 1393.44 1749.04 1396.05 1751.57 1397.62L1774.88 1412.23C1780.71 1415.89 1783.98 1422.2 1783.58 1429.07C1783.19 1435.94 1779.23 1441.86 1773.06 1444.82L1748.26 1456.74C1745.61 1458.04 1743.65 1460.39 1742.91 1463.26L1736.21 1489.93C1734.51 1496.63 1729.55 1501.63 1722.9 1503.41C1721.29 1503.85 1719.63 1504.06 1718.02 1504.06L1718.07 1504.15ZM1678.48 1466.65C1683.57 1466.65 1688.44 1468.74 1691.97 1472.44L1710.98 1492.36C1713.5 1495.02 1717.15 1496.06 1720.72 1495.1C1724.29 1494.15 1726.94 1491.49 1727.81 1487.93L1734.51 1461.26C1735.86 1455.87 1739.52 1451.38 1744.52 1448.99L1769.32 1437.07C1772.62 1435.46 1774.75 1432.33 1774.93 1428.68C1775.14 1425.02 1773.4 1421.63 1770.27 1419.67L1746.95 1405.06C1742.26 1402.1 1739.12 1397.27 1738.38 1391.75L1734.73 1364.47C1734.25 1360.82 1731.9 1357.86 1728.47 1356.51C1725.03 1355.16 1721.29 1355.77 1718.5 1358.16L1697.4 1375.82C1693.14 1379.39 1687.57 1380.87 1682.09 1379.87L1655.03 1374.91C1651.42 1374.26 1647.85 1375.56 1645.55 1378.39C1643.2 1381.22 1642.63 1384.96 1644.03 1388.4L1654.29 1413.93C1656.38 1419.06 1656.03 1424.85 1653.38 1429.72L1640.33 1453.95C1638.59 1457.17 1638.72 1460.95 1640.72 1464.04C1642.72 1467.13 1646.07 1468.87 1649.77 1468.57L1677.22 1466.7C1677.65 1466.7 1678.05 1466.7 1678.48 1466.7V1466.65Z" fill="black"/>
<path d="M1514.47 1788.99C1514.21 1788.99 1513.91 1788.99 1513.65 1788.91C1511.9 1788.56 1510.56 1787.21 1510.21 1785.47L1504.55 1755.67C1504.38 1754.71 1504.55 1753.76 1504.94 1752.93C1505.12 1752.58 1522.61 1718.57 1559.72 1729.4C1578.73 1734.96 1599.91 1740.23 1609.79 1732.22C1615.14 1727.96 1617.4 1719.44 1616.57 1706.91C1615.57 1692.03 1611.88 1681.02 1608.87 1672.24C1603.44 1656.14 1599.48 1644.53 1621.58 1631.91C1638.02 1622.52 1651.25 1629.48 1662.95 1635.61C1674.91 1641.87 1685.31 1647.31 1699.32 1637.78C1726.94 1618.95 1707.28 1579.75 1706.41 1578.1C1705.84 1577.01 1705.76 1575.75 1706.19 1574.62C1706.58 1573.49 1707.45 1572.58 1708.58 1572.1C1709.89 1571.53 1740.56 1558.61 1760.61 1569.44C1761.66 1570.01 1762.44 1571.01 1762.75 1572.19C1762.96 1573.06 1768.23 1593.28 1767.49 1616.86C1766.49 1648.96 1754.74 1671.54 1733.51 1682.16C1702.58 1697.6 1684.61 1687.68 1672.74 1681.11C1664.04 1676.28 1661.47 1675.41 1657.86 1678.68C1653.2 1682.89 1653.9 1694.6 1654.64 1706.95C1655.94 1729.35 1657.6 1757.24 1633.28 1774.07C1613.44 1787.82 1587.82 1784.12 1565.2 1780.86C1544.05 1777.81 1525.83 1775.2 1518.13 1787.08C1517.3 1788.34 1515.95 1789.08 1514.47 1789.08V1788.99ZM1513.38 1755.58L1517.17 1775.51C1528.96 1766.81 1547.27 1769.46 1566.46 1772.2C1588.51 1775.38 1611.35 1778.68 1628.36 1766.89C1648.64 1752.84 1647.24 1728.7 1645.98 1707.43C1645.11 1692.29 1644.33 1679.2 1652.03 1672.19C1660.6 1664.41 1668.91 1669.02 1676.96 1673.46C1688.49 1679.81 1702.8 1687.77 1729.64 1674.37C1770.23 1654.1 1757.53 1588.32 1754.78 1576.27C1742.26 1570.79 1724.33 1575.75 1716.24 1578.54C1723.85 1596.28 1729.2 1627.95 1704.23 1644.96C1685.92 1657.45 1671.61 1649.96 1658.95 1643.31C1647.81 1637.48 1638.2 1632.43 1625.93 1639.48C1610.05 1648.53 1611.83 1653.79 1617.14 1669.45C1620.27 1678.76 1624.19 1690.33 1625.27 1706.34C1626.32 1722.09 1623.06 1732.79 1615.27 1739.01C1602.09 1749.62 1579.38 1744.19 1557.28 1737.75C1530.39 1729.92 1516.52 1750.19 1513.38 1755.58Z" fill="black"/>
<path d="M487.616 1529.34C421.708 1529.34 367.894 1505.15 340.705 1461.21C295.505 1388.09 283.454 1294.35 309.295 1216.57C331.265 1150.45 376.943 1102.07 441.415 1076.67C511.934 1048.87 589.24 1063.01 653.495 1115.47C725.884 1174.54 762.949 1267.77 747.984 1352.9C731.409 1447.12 633.918 1506.59 544.649 1523.72C524.942 1527.51 505.8 1529.34 487.616 1529.34ZM443.416 1081.67L445.418 1086.72C367.894 1117.3 334.223 1176.02 319.649 1219.96C294.809 1294.78 306.424 1385 350.015 1455.47C375.29 1496.32 439.153 1532.9 542.648 1513.02C661.456 1490.19 726.015 1415.19 737.326 1350.98C751.638 1269.64 716.053 1180.5 646.665 1123.87C585.542 1073.97 512.152 1060.44 445.461 1086.76L443.46 1081.71L443.416 1081.67Z" fill="black"/>
<path d="M307.033 1241.06C306.555 1241.06 306.12 1241.01 305.641 1240.88C188.443 1209.82 109.049 1107.12 102.741 1029.78C99.5653 991.191 114.922 962.263 145.896 948.342C247.39 902.754 359.672 1125.78 364.414 1135.31C365.763 1138.01 364.675 1141.27 361.978 1142.62C359.281 1143.96 356.018 1142.88 354.67 1140.18C353.538 1137.96 242.3 916.935 150.377 958.304C116.445 973.529 111.659 1005.11 113.617 1028.95C121.1 1120.56 220.418 1207.13 308.469 1230.44C311.384 1231.23 313.08 1234.19 312.341 1237.1C311.688 1239.54 309.513 1241.15 307.077 1241.15L307.033 1241.06Z" fill="black"/>
<path d="M580.887 1084.98C579.626 1084.98 578.364 1084.54 577.363 1083.67C575.101 1081.72 574.84 1078.28 576.754 1076.02C627.566 1016.73 646.577 904.407 616.647 840.374C607.25 820.32 588.5 796.525 552.61 796.96C537.471 797.177 525.029 803.137 514.631 815.187C462.123 876.044 486.746 1064.14 487.007 1066.05C487.398 1069.01 485.31 1071.75 482.352 1072.19C479.394 1072.58 476.653 1070.49 476.218 1067.53C476.174 1067.06 469.736 1018.6 470.084 963.002C470.606 887.572 482.83 835.458 506.366 808.14C518.764 793.784 534.252 786.389 552.436 786.172C585.629 785.693 611.079 802.92 626.479 835.85C657.975 903.189 638.225 1021.08 585.02 1083.15C583.932 1084.41 582.41 1085.06 580.887 1085.06V1084.98Z" fill="black"/>
<path d="M561.007 1075.06C560.441 1075.06 559.832 1074.97 559.266 1074.75C556.439 1073.8 554.916 1070.71 555.873 1067.84C574.58 1012.98 599.072 897.924 573.797 867.561C568.881 861.645 562.138 859.426 553.307 860.731C545.606 861.862 539.298 865.995 533.947 873.346C500.667 919.022 523.594 1061.62 523.811 1063.05C524.29 1066.01 522.289 1068.79 519.33 1069.32C516.372 1069.8 513.588 1067.79 513.066 1064.84C512.065 1058.79 489.182 916.281 525.116 866.952C532.164 857.295 541.126 851.552 551.653 849.986C564.226 848.116 574.754 851.77 582.106 860.601C615.081 900.143 577.886 1036.91 566.14 1071.36C565.357 1073.62 563.269 1075.06 561.007 1075.06Z" fill="black"/>
<path d="M311.297 1215.52C310.427 1215.52 309.557 1215.31 308.73 1214.87C264.096 1190.9 162.82 1117.73 152.553 1056.31C149.682 1039.22 154.032 1024.34 165.43 1012.03C174.044 1002.72 184.571 998.716 196.752 1000.15C257.179 1007.11 340.879 1152.97 344.403 1159.19C345.882 1161.8 344.969 1165.11 342.358 1166.59C339.748 1168.06 336.442 1167.15 334.963 1164.54C334.745 1164.19 313.472 1126.91 285.369 1089.37C248.913 1040.61 217.808 1013.51 195.491 1010.9C186.834 1009.9 179.612 1012.68 173.391 1019.38C164.255 1029.21 160.949 1040.69 163.255 1054.48C172.303 1108.82 265.836 1179.5 313.864 1205.26C316.517 1206.69 317.518 1209.96 316.082 1212.61C315.082 1214.44 313.211 1215.48 311.297 1215.48V1215.52Z" fill="black"/>
<path d="M612.906 1266.11C609.731 1265.37 606.207 1265.55 603.379 1267.38C602.552 1268.03 601.726 1268.68 600.899 1269.29C599.377 1270.81 598.289 1272.64 597.724 1274.73C595.853 1279.29 594.113 1283.91 592.373 1288.47C589.632 1287.73 586.978 1286.86 584.368 1285.82C584.02 1285.69 583.672 1285.52 583.367 1285.39C580.235 1283.95 577.146 1283.17 573.753 1284.12C570.838 1284.91 567.706 1287.17 566.271 1289.87C564.748 1292.78 563.965 1296.3 565.009 1299.48C566.053 1302.74 567.967 1304.96 570.751 1306.96C575.058 1310.09 580.061 1312.36 585.151 1313.83C588.109 1314.7 591.111 1315.1 594.156 1315.49C595.331 1315.62 596.462 1315.75 597.637 1315.75C601.726 1315.88 604.989 1314.53 607.99 1311.79C608.425 1311.4 608.817 1310.92 609.165 1310.44C610.514 1309.53 611.732 1308.35 612.732 1306.92C615.473 1302.83 616.561 1297.87 617.953 1293.22C619.171 1289.26 620.389 1285.25 621.563 1281.3C623.434 1275.12 619.301 1267.55 612.95 1266.11H612.906Z" fill="black"/>
<path d="M574.057 1382.26C570.925 1382.26 567.793 1381.83 564.617 1380.96C543.083 1374.91 529.771 1349.9 529.205 1348.81C527.813 1346.16 528.857 1342.85 531.511 1341.46C534.165 1340.07 537.471 1341.11 538.863 1343.76C538.994 1343.98 550.609 1365.73 567.619 1370.47C574.449 1372.39 581.105 1371.3 588.022 1367.12C616.778 1349.9 604.553 1313.79 603.988 1312.27C603.118 1309.75 604.162 1306.96 606.511 1305.7C608.86 1304.44 611.775 1305.05 613.385 1307.14C620.911 1316.84 643.837 1340.15 659.063 1331.58C674.333 1323.01 666.589 1291.48 662.326 1280.08C661.282 1277.25 662.717 1274.12 665.502 1273.07C668.329 1272.03 671.462 1273.42 672.506 1276.25C673.289 1278.29 690.864 1326.19 664.414 1341.07C648.1 1350.24 629.785 1338.41 617.778 1327.58C618.561 1344.15 613.733 1364.38 593.59 1376.48C587.152 1380.35 580.626 1382.26 574.057 1382.26Z" fill="black"/>
<path d="M576.798 1846.85C523.506 1846.85 475.565 1827.84 433.932 1790.12C311.775 1679.46 389.298 1508.85 390.081 1507.15C391.343 1504.45 394.562 1503.24 397.303 1504.54C400.043 1505.8 401.218 1509.02 399.956 1511.76C399.217 1513.42 325.087 1676.89 441.241 1782.08C490.835 1827.01 549.826 1843.98 616.473 1832.49C671.94 1822.97 713.442 1796.69 721.186 1791.52C729.321 1786.08 731.235 1780.86 730.539 1778.68C729.973 1776.9 727.102 1775.77 722.926 1775.94C720.011 1775.94 717.444 1773.64 717.357 1770.64C717.27 1767.63 719.663 1765.15 722.665 1765.07C731.975 1764.98 738.805 1768.68 740.936 1775.42C743.547 1783.6 738.283 1793.21 727.276 1800.61C719.185 1806 675.986 1833.36 618.387 1843.28C604.248 1845.72 590.371 1846.94 576.885 1846.94L576.798 1846.85Z" fill="black"/>
<path d="M730.54 1775.55C729.669 1775.55 728.756 1775.33 727.929 1774.9C725.319 1773.46 724.319 1770.16 725.754 1767.55C727.233 1764.76 728.669 1759.85 727.451 1757.76C726.711 1756.5 724.319 1755.76 720.882 1755.72C717.88 1755.67 715.487 1753.19 715.531 1750.19C715.574 1747.23 718.011 1744.84 720.969 1744.84H721.056C730.627 1745.01 734.933 1749.02 736.848 1752.32C741.676 1760.63 735.977 1771.55 735.325 1772.77C734.324 1774.59 732.454 1775.59 730.54 1775.59V1775.55Z" fill="black"/>
<path d="M728.799 1756.41H728.625C725.623 1756.32 723.274 1753.84 723.361 1750.84C723.361 1750.71 723.361 1743.84 718.967 1740.62C715.357 1737.97 709.049 1738.05 700.74 1740.84C697.912 1741.79 694.823 1740.27 693.866 1737.44C693.779 1737.18 684.078 1709.91 661.673 1700.56C649.318 1695.38 635.093 1696.55 619.388 1704.04C616.691 1705.34 613.428 1704.17 612.123 1701.47C610.818 1698.77 611.992 1695.51 614.69 1694.2C633.309 1685.33 650.537 1684.11 665.893 1690.55C686.731 1699.29 697.912 1719.7 702.132 1729.05C711.833 1726.66 719.664 1727.61 725.406 1731.88C734.411 1738.53 734.194 1750.54 734.194 1751.06C734.107 1754.02 731.67 1756.32 728.756 1756.32L728.799 1756.41Z" fill="black"/>
<path d="M602.378 1614.42C589.153 1614.42 574.319 1611.73 558.092 1604.51C555.351 1603.29 554.133 1600.07 555.351 1597.33C556.569 1594.59 559.788 1593.33 562.529 1594.59C610.47 1615.95 645.447 1593.15 658.585 1584.58L659.498 1583.97C665.632 1580.02 666.241 1577.28 666.067 1576.62C664.806 1574.67 664.893 1572.14 666.328 1570.27C667.416 1568.92 667.416 1568.05 667.329 1567.49C667.068 1565.75 665.154 1563.79 664.24 1563.14C662.848 1562.14 662.022 1560.48 661.978 1558.79C661.978 1557.09 662.718 1555.44 664.11 1554.39C665.11 1553.65 666.154 1552.44 665.676 1550.87C665.328 1549.7 663.979 1548.3 661.5 1548.22C637.616 1547.26 612.471 1537.21 586.717 1518.29C586.021 1517.77 585.499 1517.42 585.194 1517.16C583.411 1516.29 582.149 1514.42 582.149 1512.29C582.149 1509.28 584.585 1506.85 587.587 1506.85C589.501 1506.85 590.502 1507.59 593.156 1509.5C617.126 1527.12 640.27 1536.47 661.935 1537.34C668.634 1537.6 674.159 1541.65 676.03 1547.61C677.204 1551.35 676.726 1555.18 674.812 1558.48C676.291 1560.4 677.639 1562.92 678.074 1565.88C678.379 1567.97 678.292 1570.97 676.639 1574.19C676.943 1575.49 677.074 1577.1 676.769 1578.93C675.899 1583.97 672.071 1588.76 665.371 1593.11L664.458 1593.67C654.365 1600.24 632.613 1614.42 602.335 1614.42H602.378Z" fill="black"/>
<path d="M647.578 1694.68C646.273 1694.68 644.924 1694.2 643.88 1693.25C608.773 1660.71 602.378 1613.55 602.117 1611.55C601.725 1608.6 603.857 1605.85 606.815 1605.46C609.817 1605.07 612.514 1607.16 612.906 1610.16C612.949 1610.6 619.17 1655.49 651.276 1685.24C653.494 1687.29 653.625 1690.72 651.58 1692.94C650.493 1694.12 649.057 1694.68 647.578 1694.68Z" fill="black"/>
<path d="M455.728 1874.99C438.153 1874.99 421.97 1867.86 414.096 1863.73C409.441 1870.3 403.263 1873.17 402.915 1873.34C400.958 1874.21 398.695 1873.91 397.086 1872.47C389.212 1865.51 385.34 1855.37 383.469 1847.94C376.552 1851.5 369.548 1851.11 369.156 1851.11C366.677 1850.94 364.589 1849.11 364.154 1846.67C356.279 1803.48 371.201 1780.03 385.122 1767.98C394.04 1760.24 406.352 1754.63 410.963 1756.11C413.791 1757.06 415.357 1760.15 414.4 1762.98C413.617 1765.29 411.529 1766.63 409.093 1766.68C406.352 1767.2 393.866 1771.68 384.252 1784.86C374.203 1798.69 370.766 1817.14 374.029 1839.8C376.813 1839.19 380.424 1837.84 382.86 1834.58C384.209 1832.75 386.558 1831.97 388.733 1832.62C390.908 1833.28 392.474 1835.19 392.605 1837.45C392.605 1837.58 393.779 1851.94 401.48 1861.38C403.35 1859.86 405.612 1857.51 407.005 1854.2C407.614 1852.72 408.875 1851.59 410.398 1851.11C411.92 1850.63 413.574 1850.85 414.922 1851.68C415.227 1851.85 444.548 1870.12 469.867 1861.94C482.7 1857.81 492.576 1847.33 499.232 1830.84C500.363 1828.06 503.495 1826.71 506.323 1827.84C509.107 1828.97 510.456 1832.15 509.325 1834.93C501.407 1854.59 489.27 1867.16 473.173 1872.34C467.387 1874.21 461.471 1874.95 455.728 1874.95V1874.99Z" fill="black"/>
<path d="M522.332 1285.34C517.285 1276.64 510.499 1267.9 501.929 1262.46C492.271 1256.33 479.698 1256.81 471.955 1265.77C465.56 1273.25 462.558 1282.82 462.515 1292.56C462.515 1297.65 463.254 1303.18 464.864 1308.35C462.645 1307.48 460.426 1306.48 458.034 1307.22C455.989 1307.87 454.815 1309.88 455.337 1311.96C456.25 1315.57 460.165 1317.14 463.341 1318.53C466.734 1320.01 470.171 1320.88 473.652 1321.93C478.132 1323.27 481.656 1318.97 480.786 1314.79C479.394 1307.96 476.784 1301.74 476.479 1294.74C476.175 1288.08 477.306 1281.73 481.308 1276.25C489.704 1264.68 498.753 1277.77 504.191 1284.95C506.801 1288.39 510.02 1294.61 514.675 1295.56C520.418 1296.7 525.508 1290.74 522.332 1285.3V1285.34Z" fill="black"/>
<path d="M609.599 1231.49C605.641 1223.05 602.639 1213.17 603.03 1203.73C603.465 1193.08 610.557 1183.72 621.519 1182.64C630.612 1181.72 639.53 1184.55 647.012 1189.73C650.884 1192.42 654.713 1195.95 657.801 1199.95C658.323 1197.77 658.758 1195.56 660.586 1194.16C662.152 1192.95 664.327 1193.12 665.675 1194.64C667.938 1197.3 667.068 1201.08 666.415 1204.21C665.719 1207.56 664.588 1210.65 663.5 1213.91C662.152 1218.05 656.975 1218.44 654.234 1215.57C649.753 1210.87 646.403 1205.56 641.27 1201.6C636.354 1197.86 630.916 1195.3 624.608 1195.43C611.296 1195.64 616.473 1209.56 619.04 1217.52C620.258 1221.35 623.303 1227.09 621.519 1231.18C619.344 1236.19 612.079 1236.88 609.599 1231.53V1231.49Z" fill="black"/>
<path d="M439.066 1385.57C426.755 1385.57 416.618 1380.56 412.833 1371.43C409.919 1364.43 411.311 1356.25 416.749 1348.46C421.752 1341.28 429.756 1335.15 439.284 1331.19C459.904 1322.67 480.612 1326.93 486.441 1340.94C492.227 1354.94 480.655 1372.6 459.991 1381.17C452.813 1384.13 445.635 1385.57 439.066 1385.57ZM460.165 1335.59C454.684 1335.59 448.593 1336.76 442.59 1339.24C434.585 1342.55 427.929 1347.59 423.883 1353.46C420.229 1358.73 419.141 1363.95 420.882 1368.12C424.666 1377.3 441.067 1379.65 456.641 1373.17C472.216 1366.73 482.178 1353.51 478.393 1344.33C476.044 1338.67 468.953 1335.63 460.165 1335.63V1335.59Z" fill="black"/>
<path d="M678.988 1253.06C669.591 1253.06 661.804 1249.19 658.89 1242.1C656.627 1236.62 657.672 1230.36 661.848 1224.35C665.589 1218.96 671.549 1214.39 678.64 1211.43C694.171 1205 709.832 1208.39 714.269 1219.13C718.707 1229.88 710.05 1243.36 694.519 1249.76C689.212 1251.98 683.861 1253.02 678.988 1253.02V1253.06ZM694.171 1217C690.386 1217 686.123 1217.83 681.99 1219.53C676.508 1221.79 671.767 1225.4 668.982 1229.36C667.59 1231.36 665.459 1235.23 666.938 1238.8C669.374 1244.71 680.728 1246.15 691.213 1241.8C701.697 1237.45 708.701 1228.44 706.265 1222.53C704.786 1218.92 700.044 1217 694.214 1217H694.171Z" fill="black"/>
<path d="M1440.3 889.66C1354.38 889.66 1258.24 855.512 1221.39 775.209C1185.32 696.604 1197.59 597.074 1252.62 521.601C1301.52 454.566 1372.69 421.288 1447.95 430.336C1516.78 438.601 1573.2 473.837 1611.18 532.215C1655.86 600.902 1668 694.646 1642.76 776.863C1623.45 839.851 1553.93 882.83 1461.31 888.964C1454.39 889.442 1447.35 889.66 1440.25 889.66H1440.3ZM1423.85 439.732C1361.17 439.732 1302.96 471.053 1261.46 527.995C1208.69 600.337 1196.85 695.603 1231.31 770.685C1258.5 829.933 1340.02 886.093 1460.66 878.132C1565.81 871.172 1618.36 819.58 1632.41 773.687C1656.73 694.472 1645.11 604.252 1602.13 538.174C1576.9 499.415 1529.48 451.086 1446.69 441.168C1439.04 440.254 1431.42 439.776 1423.85 439.776V439.732Z" fill="black"/>
<path d="M1632.45 580.85C1630.23 580.85 1628.19 579.501 1627.36 577.326C1626.32 574.499 1627.71 571.367 1630.54 570.323C1715.81 538.306 1805.94 442.3 1804.25 350.383C1803.81 326.501 1795.85 295.573 1760.57 283.784C1664.82 251.854 1576.38 482.886 1575.46 485.192C1574.42 488.019 1571.29 489.411 1568.46 488.367C1565.63 487.323 1564.24 484.191 1565.28 481.364C1569.02 471.402 1658.47 238.239 1764.01 273.474C1796.24 284.219 1814.38 311.494 1815.08 350.209C1816.52 427.814 1747.82 537.915 1634.32 580.545C1633.71 580.763 1633.06 580.893 1632.41 580.893L1632.45 580.85Z" fill="black"/>
<path d="M1362.82 445.562C1361.21 445.562 1359.6 444.866 1358.56 443.474C1307.96 379.224 1293.08 260.641 1327.36 194.65C1344.11 162.373 1370.39 146.321 1403.41 148.105C1421.59 149.105 1436.77 157.109 1448.52 171.987C1501.51 238.76 1469.36 424.551 1467.92 432.425C1467.4 435.383 1464.53 437.341 1461.62 436.818C1458.66 436.296 1456.7 433.469 1457.22 430.511C1457.57 428.64 1489.94 241.675 1439.99 178.729C1430.08 166.244 1417.94 159.763 1402.8 158.98C1367.08 157.066 1347.2 180.034 1337.02 199.696C1304.44 262.424 1318.79 375.439 1367.13 436.775C1369 439.124 1368.56 442.561 1366.21 444.388C1365.21 445.171 1364.04 445.562 1362.86 445.562H1362.82Z" fill="black"/>
<path d="M1383.05 436.427C1380.7 436.427 1378.52 434.904 1377.83 432.512C1367.47 397.624 1335.98 259.466 1370.56 221.316C1378.26 212.79 1388.96 209.571 1401.41 211.963C1411.89 213.964 1420.59 220.054 1427.25 230.016C1461.14 280.781 1432.38 422.202 1431.12 428.205C1430.51 431.12 1427.6 433.034 1424.68 432.425C1421.72 431.816 1419.85 428.945 1420.46 425.987C1420.77 424.551 1449.56 283.043 1418.2 236.019C1413.15 228.45 1407.02 224.1 1399.36 222.621C1390.57 220.924 1383.79 222.882 1378.61 228.624C1352.07 257.9 1371.78 373.873 1388.22 429.467C1389.09 432.338 1387.44 435.383 1384.57 436.209C1384.05 436.383 1383.53 436.427 1383 436.427H1383.05Z" fill="black"/>
<path d="M1625.67 555.88C1623.93 555.88 1622.19 555.053 1621.14 553.487C1619.45 551.008 1620.14 547.615 1622.62 545.918C1667.82 515.468 1753.78 435.775 1757.39 380.833C1758.31 366.87 1753.87 355.82 1743.82 346.903C1736.95 340.856 1729.51 338.812 1720.98 340.682C1699.01 345.467 1670.82 375.57 1639.41 427.727C1615.23 467.878 1597.78 507.072 1597.61 507.464C1596.39 510.204 1593.17 511.466 1590.43 510.248C1587.69 509.03 1586.43 505.811 1587.64 503.07C1590.56 496.545 1659.25 343.031 1718.63 330.068C1730.6 327.458 1741.47 330.372 1751 338.768C1763.57 349.861 1769.36 364.259 1768.23 381.529C1764.18 443.692 1670.69 526.647 1628.67 554.923C1627.75 555.532 1626.67 555.836 1625.62 555.836L1625.67 555.88Z" fill="black"/>
<path d="M1330.1 657.061C1332.98 655.582 1336.46 654.799 1339.63 655.843L1342.55 657.061C1344.42 658.149 1345.9 659.671 1346.98 661.542C1349.94 665.457 1352.77 669.503 1355.64 673.505C1358.08 672.113 1360.43 670.547 1362.73 668.894C1363.04 668.676 1363.3 668.459 1363.6 668.198C1366.26 666.022 1369.04 664.5 1372.61 664.543C1375.61 664.543 1379.22 665.935 1381.31 668.198C1383.53 670.634 1385.18 673.809 1384.96 677.202C1384.79 680.639 1383.48 683.249 1381.31 685.902C1377.96 689.991 1373.65 693.471 1369.13 696.212C1366.52 697.778 1363.69 698.953 1360.82 700.084C1359.73 700.519 1358.64 700.91 1357.51 701.215C1353.55 702.389 1350.12 701.911 1346.5 700.04C1345.98 699.779 1345.5 699.388 1345.03 698.996C1343.5 698.474 1342.02 697.647 1340.68 696.473C1336.98 693.21 1334.67 688.686 1332.15 684.554C1329.97 681.03 1327.8 677.463 1325.62 673.94C1322.23 668.415 1324.32 660.063 1330.1 657.061Z" fill="black"/>
<path d="M1388.4 760.68C1384.61 760.68 1380.74 760.114 1376.74 758.94C1354.2 752.371 1344.37 734.014 1340.94 717.788C1332.1 731.317 1317.36 747.369 1299.26 742.627C1269.89 734.928 1274.77 684.119 1274.98 681.987C1275.29 678.986 1278.03 676.898 1280.94 677.115C1283.95 677.42 1286.12 680.073 1285.82 683.075C1284.6 695.211 1285.08 727.663 1302 732.1C1318.92 736.494 1335.15 708.175 1339.98 696.864C1341.02 694.428 1343.68 693.08 1346.29 693.732C1348.9 694.385 1350.64 696.821 1350.38 699.475C1350.25 701.084 1347.59 739.104 1379.74 748.456C1387.48 750.718 1394.23 750.066 1400.32 746.499C1415.54 737.581 1421.29 713.612 1421.37 713.351C1422.07 710.437 1424.98 708.61 1427.9 709.306C1430.81 710.002 1432.64 712.916 1431.99 715.831C1431.73 717.005 1425.16 744.585 1405.89 755.895C1400.45 759.07 1394.62 760.68 1388.4 760.68Z" fill="black"/>
<path d="M1447.74 1217.66C1400.19 1217.66 1362.82 1205.74 1354.9 1203C1342.37 1198.69 1334.85 1190.68 1335.28 1182.12C1335.63 1175.07 1341.28 1169.63 1350.33 1167.5C1353.25 1166.8 1356.21 1168.63 1356.86 1171.54C1357.55 1174.46 1355.73 1177.42 1352.81 1178.07C1348.85 1178.98 1346.24 1180.81 1346.16 1182.64C1346.03 1184.94 1349.2 1189.51 1358.47 1192.69C1367.3 1195.73 1414.11 1210.61 1470.14 1205.82C1537.53 1200.04 1590.3 1168.67 1626.88 1112.64C1712.59 981.447 1599.52 842.07 1598.35 840.678C1596.43 838.373 1596.74 834.936 1599.09 833.022C1601.39 831.108 1604.83 831.413 1606.74 833.762C1607.96 835.197 1726.16 980.62 1636.02 1118.6C1597.48 1177.59 1542.01 1210.56 1471.1 1216.65C1463.14 1217.35 1455.31 1217.66 1447.78 1217.66H1447.74Z" fill="black"/>
<path d="M1343.94 1179.85C1342.5 1179.85 1341.07 1179.29 1339.98 1178.16C1339.02 1177.16 1330.76 1168.02 1333.32 1158.75C1334.37 1155.06 1337.5 1150.1 1346.72 1147.53C1349.59 1146.7 1352.6 1148.4 1353.42 1151.32C1354.25 1154.23 1352.55 1157.19 1349.64 1158.02C1346.33 1158.93 1344.2 1160.28 1343.81 1161.67C1343.15 1163.97 1345.76 1168.41 1347.9 1170.72C1349.94 1172.89 1349.81 1176.33 1347.64 1178.37C1346.59 1179.37 1345.24 1179.85 1343.94 1179.85Z" fill="black"/>
<path d="M1340.81 1160.89C1338.46 1160.89 1336.28 1159.36 1335.59 1156.97C1335.46 1156.49 1332.19 1144.92 1339.2 1136.18C1343.68 1130.61 1351.03 1127.7 1360.99 1127.57C1362.69 1117.43 1368.34 1094.85 1386.31 1081.15C1399.54 1071.01 1416.5 1067.88 1436.77 1071.71C1439.73 1072.28 1441.65 1075.1 1441.08 1078.06C1440.52 1081.02 1437.69 1082.98 1434.73 1082.37C1417.68 1079.11 1403.62 1081.59 1392.97 1089.72C1373.65 1104.47 1371.21 1133.26 1371.17 1133.53C1370.95 1136.48 1368.43 1138.75 1365.39 1138.53C1359.29 1138.09 1351.25 1138.53 1347.68 1142.97C1344.29 1147.18 1346.03 1153.84 1346.03 1153.88C1346.85 1156.75 1345.2 1159.8 1342.33 1160.63C1341.81 1160.76 1341.28 1160.84 1340.81 1160.84V1160.89Z" fill="black"/>
<path d="M1403.71 994.496C1385.66 994.496 1371.17 989.668 1363.12 987.014L1362.08 986.666C1354.51 984.143 1349.59 980.533 1347.46 975.834C1346.72 974.138 1346.42 972.572 1346.37 971.223C1343.94 968.483 1343.11 965.655 1342.89 963.524C1342.55 960.522 1343.24 957.738 1344.2 955.52C1341.5 952.823 1340.07 949.212 1340.24 945.297C1340.55 939.033 1344.9 933.769 1351.29 931.812C1372.04 925.504 1392.05 910.583 1410.76 887.485C1412.85 884.918 1413.63 883.961 1415.5 883.483C1418.42 882.743 1421.37 884.483 1422.11 887.398C1422.64 889.486 1421.94 891.574 1420.42 892.879C1420.16 893.183 1419.72 893.705 1419.2 894.358C1399.06 919.153 1377.31 935.292 1354.42 942.252C1352.07 942.991 1351.16 944.644 1351.07 945.863C1350.99 947.516 1352.33 948.429 1353.47 948.908C1355.08 949.56 1356.25 950.952 1356.64 952.649C1357.03 954.345 1356.64 956.129 1355.51 957.434C1354.81 958.26 1353.42 960.609 1353.64 962.393C1353.68 962.915 1353.94 963.785 1355.34 964.829C1357.21 966.264 1357.95 968.7 1357.21 970.919C1357.21 971.571 1358.51 974.051 1365.43 976.356L1366.47 976.704C1381.35 981.664 1420.98 994.801 1461.92 962.045C1464.27 960.174 1467.71 960.566 1469.58 962.871C1471.45 965.22 1471.06 968.657 1468.75 970.527C1445.43 989.189 1422.59 994.496 1403.63 994.496H1403.71Z" fill="black"/>
<path d="M1403.76 1080.63C1402.75 1080.63 1401.75 1080.37 1400.84 1079.76C1398.32 1078.15 1397.58 1074.8 1399.19 1072.23C1422.72 1035.26 1417.37 990.32 1417.28 989.842C1416.89 986.884 1419.02 984.143 1421.98 983.751C1424.94 983.36 1427.68 985.492 1428.07 988.45C1428.33 990.451 1434.08 1037.69 1408.37 1078.06C1407.32 1079.67 1405.58 1080.58 1403.76 1080.58V1080.63Z" fill="black"/>
<path d="M1621.71 1208.22C1620.75 1208.22 1619.79 1208.22 1618.84 1208.13C1601.96 1207.22 1587.04 1198.08 1574.38 1181.11C1572.59 1178.72 1573.07 1175.29 1575.51 1173.5C1577.9 1171.72 1581.34 1172.24 1583.12 1174.63C1593.69 1188.9 1605.92 1196.51 1619.4 1197.3C1646.07 1198.73 1669.69 1173.72 1669.95 1173.46C1671.04 1172.28 1672.56 1171.63 1674.22 1171.72C1675.83 1171.81 1677.31 1172.59 1678.26 1173.85C1680.44 1176.72 1683.22 1178.42 1685.4 1179.37C1690.44 1168.33 1687.96 1154.14 1687.92 1153.97C1687.53 1151.75 1688.53 1149.49 1690.49 1148.32C1692.44 1147.14 1694.88 1147.31 1696.66 1148.71C1699.84 1151.23 1703.67 1151.66 1706.54 1151.49C1703.97 1128.74 1695.97 1111.73 1682.74 1100.9C1670.13 1090.59 1656.9 1089.42 1654.12 1089.63C1651.9 1090.29 1649.38 1089.42 1648.07 1087.37C1646.42 1084.85 1647.16 1081.5 1649.64 1079.85C1653.68 1077.19 1667.04 1079.54 1677.61 1084.76C1694.1 1092.9 1714.5 1111.77 1717.81 1155.58C1717.98 1158.06 1716.46 1160.37 1714.11 1161.15C1713.72 1161.28 1707.06 1163.41 1699.45 1161.71C1699.54 1169.37 1698.36 1180.16 1692.49 1188.9C1691.31 1190.69 1689.18 1191.6 1687.05 1191.21C1686.7 1191.16 1679.96 1189.95 1673.82 1184.77C1665.47 1192.38 1645.29 1208.13 1621.75 1208.13L1621.71 1208.22Z" fill="black"/>
<path d="M1339.76 605.644C1337.37 614.301 1333.45 623.436 1327.28 630.135C1320.32 637.661 1309.27 640.097 1300.52 634.05C1293.26 629.048 1288.47 621.392 1286.25 612.953C1285.08 608.559 1284.47 603.6 1284.73 598.728C1282.99 599.989 1281.29 601.338 1279.07 601.251C1277.16 601.164 1275.68 599.685 1275.64 597.727C1275.64 594.378 1278.64 592.116 1281.08 590.245C1283.69 588.201 1286.47 586.678 1289.25 584.938C1292.82 582.763 1296.87 585.721 1297.08 589.506C1297.43 595.77 1296.56 601.729 1297.87 607.863C1299.13 613.692 1301.52 618.956 1306.22 622.827C1316.14 630.962 1321.01 617.52 1324.1 610.081C1325.58 606.514 1326.93 600.381 1330.8 598.51C1335.54 596.205 1341.28 600.207 1339.76 605.688V605.644Z" fill="black"/>
<path d="M1419.94 632.876C1418.11 643.012 1417.59 654.365 1420.68 664.327C1424.16 675.55 1434.29 683.554 1446.34 681.684C1456.31 680.118 1465.05 674.593 1471.58 666.98C1474.97 663.022 1478.06 658.193 1480.23 653.06C1481.37 655.235 1482.5 657.454 1484.85 658.454C1486.85 659.324 1489.15 658.498 1490.11 656.54C1491.81 653.104 1489.76 649.276 1488.24 646.1C1486.59 642.707 1484.45 639.749 1482.41 636.573C1479.8 632.528 1474.19 633.572 1472.06 637.4C1468.58 643.708 1466.53 650.276 1462.09 655.975C1457.92 661.369 1452.78 665.588 1446.04 667.241C1431.77 670.722 1433.42 654.409 1433.95 645.23C1434.21 640.793 1435.82 633.789 1432.82 629.961C1429.07 625.263 1421.16 626.525 1419.98 632.919L1419.94 632.876Z" fill="black"/>
<path d="M1515.38 730.23C1512.73 730.23 1509.95 730.056 1507.16 729.665C1496.98 728.273 1487.67 724.358 1480.97 718.659C1473.75 712.482 1470.36 704.957 1471.36 697.431C1473.4 682.423 1492.37 673.027 1514.47 676.072C1524.65 677.464 1533.96 681.379 1540.66 687.078C1547.88 693.255 1551.28 700.781 1550.27 708.306C1548.49 721.443 1533.79 730.23 1515.38 730.23ZM1480.02 698.605C1479.41 703.086 1481.76 707.871 1486.63 712.004C1492.07 716.615 1499.77 719.834 1508.34 721.008C1525.04 723.27 1540.31 716.919 1541.66 707.045C1542.27 702.564 1539.92 697.779 1535.05 693.646C1529.61 689.035 1521.91 685.816 1513.34 684.642C1496.63 682.38 1481.37 688.731 1480.02 698.605Z" fill="black"/>
<path d="M1253.1 662.37C1251.14 662.37 1249.1 662.239 1247.01 661.935C1230.35 659.629 1218.56 648.841 1220.13 637.313C1221.74 625.786 1236.01 618.521 1252.67 620.827C1269.33 623.132 1281.12 633.92 1279.51 645.448C1278.12 655.54 1266.98 662.326 1253.06 662.326L1253.1 662.37ZM1228.78 638.488C1227.91 644.839 1237.01 651.756 1248.23 653.322C1259.45 654.844 1270.07 650.625 1270.94 644.274C1271.81 637.922 1262.72 631.006 1251.49 629.44C1240.27 627.917 1229.65 632.137 1228.78 638.488Z" fill="black"/>
<path d="M1016.57 1887C976.855 1887 940.052 1884.35 907.467 1880.52C776.087 1864.99 683.294 1826.97 682.381 1826.58C679.596 1825.45 678.291 1822.23 679.422 1819.49C680.553 1816.7 683.773 1815.4 686.513 1816.53C687.427 1816.92 779.089 1854.46 909.034 1869.73C1028.23 1883.78 1204.94 1881.43 1370.87 1790.86C1380.26 1761.59 1485.15 1433.07 1502.99 1319.01C1458.92 1351.99 1281.47 1471.39 1023.58 1471.39C1013.66 1471.39 1003.65 1471.22 993.517 1470.87C774.695 1463.04 721.447 1421.76 719.272 1420.02C716.922 1418.11 716.574 1414.71 718.488 1412.36C720.359 1410.06 723.796 1409.67 726.145 1411.58C726.232 1411.67 739.457 1421.89 779.002 1432.9C815.414 1443.08 882.279 1456 993.909 1460.04C1304.44 1471.13 1504.64 1304.13 1506.64 1302.44C1508.34 1301 1510.73 1300.74 1512.69 1301.79C1514.65 1302.83 1515.78 1304.96 1515.56 1307.18C1504.29 1411.54 1385.57 1780.64 1380.52 1796.3C1380.09 1797.61 1379.18 1798.74 1377.96 1799.39C1254.28 1867.42 1124.68 1887.04 1016.49 1887.04L1016.57 1887Z" fill="black"/>
<path d="M1017.88 1804.3C1016.49 1804.3 1015.14 1803.78 1014.05 1802.74L918.3 1708.34L815.676 1795.91C814.545 1796.87 813.109 1797.34 811.63 1797.17C810.151 1797.04 808.802 1796.3 807.889 1795.17L713.356 1677.33L679.292 1703.82C676.9 1705.64 673.506 1705.25 671.679 1702.86C669.852 1700.51 670.244 1697.08 672.636 1695.25L710.963 1665.45C713.312 1663.62 716.705 1664.01 718.533 1666.32L812.935 1783.95L915.081 1696.77C917.213 1694.94 920.432 1695.07 922.433 1697.03L1018.01 1791.21L1131.95 1682.76C1133.95 1680.85 1137.12 1680.76 1139.21 1682.55L1231.57 1761.33L1314.57 1664.71C1315.53 1663.62 1316.84 1662.93 1318.31 1662.84C1319.75 1662.75 1321.19 1663.23 1322.27 1664.15L1396.06 1728C1398.32 1729.96 1398.58 1733.4 1396.62 1735.66C1394.66 1737.92 1391.23 1738.18 1388.96 1736.23L1319.32 1675.93L1236.31 1772.55C1234.35 1774.81 1230.96 1775.07 1228.65 1773.16L1135.9 1694.03L1021.71 1802.74C1020.66 1803.74 1019.32 1804.22 1017.97 1804.22L1017.88 1804.3Z" fill="black"/>
<path d="M1510.21 1311.96C1508.95 1311.96 1507.73 1311.53 1506.69 1310.66C1504.38 1308.7 1504.12 1305.31 1506.03 1303C1535.01 1268.81 1542.92 1222.61 1544.49 1189.9C1544.62 1186.9 1547.23 1184.51 1550.19 1184.72C1553.19 1184.86 1555.5 1187.42 1555.37 1190.42C1553.71 1224.79 1545.27 1273.47 1514.34 1310.01C1513.25 1311.27 1511.73 1311.92 1510.17 1311.92L1510.21 1311.96Z" fill="black"/>
<path d="M346.795 1113.34C346.578 1113.34 346.36 1113.34 346.099 1113.34C343.141 1112.95 341.009 1110.25 341.401 1107.29C341.923 1102.99 355.888 1001.54 473.564 945.558C476.305 944.297 479.524 945.428 480.829 948.125C482.135 950.822 480.96 954.084 478.263 955.389C366.154 1008.68 352.32 1107.64 352.19 1108.64C351.842 1111.38 349.493 1113.38 346.795 1113.38V1113.34Z" fill="black"/>
<path d="M570.925 795.567C569.794 795.567 568.619 795.219 567.619 794.48C565.226 792.653 564.747 789.26 566.575 786.867C568.619 784.214 616.081 722.791 689.428 709.088C685.208 682.901 673.636 573.236 769.214 540.958C883.367 502.46 888.022 446.17 891.806 400.929C892.067 398.015 894.591 395.84 897.505 395.97C899.985 396.101 1144.39 410.978 1221.43 587.939C1222.65 590.679 1221.39 593.898 1218.6 595.116C1215.86 596.334 1212.64 595.073 1211.43 592.289C1143.26 435.73 937.702 410.5 902.117 407.281C898.158 452.565 888.848 512.074 772.607 551.311C731.279 565.231 706.656 596.334 699.391 643.663C693.866 679.682 700.913 712.046 701 712.394C701.348 713.873 701 715.396 700.174 716.657C699.304 717.919 697.998 718.745 696.519 718.963C624.347 729.838 575.667 792.87 575.188 793.479C574.101 794.871 572.491 795.611 570.838 795.611L570.925 795.567Z" fill="black"/>
<path d="M970.287 803.355C921.171 803.355 878.059 796.047 843.039 786.694C750.638 762.029 694.823 719.616 692.517 717.833C690.124 716.006 689.689 712.569 691.516 710.22C693.344 707.827 696.78 707.392 699.13 709.219C699.695 709.654 755.858 752.285 846.302 776.341C929.567 798.483 1059.86 808.88 1207.64 732.84C1210.34 731.448 1213.6 732.536 1214.95 735.189C1216.34 737.843 1215.25 741.149 1212.6 742.498C1123.59 788.304 1040.72 803.398 970.243 803.398L970.287 803.355Z" fill="black"/>
<path d="M974.072 1131.35C930.699 1131.35 891.067 1127.78 856.177 1122.56C707.657 1100.2 610.296 1042.96 609.339 1042.35C606.772 1040.82 605.902 1037.47 607.468 1034.91C608.991 1032.34 612.341 1031.47 614.907 1033.04C615.864 1033.6 711.746 1089.94 858.266 1111.9C993.344 1132.13 1200.38 1126.52 1419.76 984.665C1422.29 983.056 1425.64 983.752 1427.29 986.275C1428.94 988.798 1428.2 992.147 1425.68 993.8C1259.93 1100.99 1101.06 1131.44 974.115 1131.44L974.072 1131.35Z" fill="black"/>
<path d="M699.347 617.521C697.303 617.521 695.389 616.39 694.431 614.433L545.432 301.619C544.736 300.184 544.736 298.487 545.432 297.008C600.203 178.687 710.963 223.579 712.094 224.058C713.529 224.667 714.661 225.885 715.139 227.364L813.022 525.3C813.979 528.171 812.413 531.216 809.542 532.173C806.67 533.13 803.625 531.564 802.668 528.693L705.568 233.193C690.081 227.538 603.335 201.046 556.352 299.27L704.22 609.778C705.525 612.475 704.35 615.738 701.653 617.043C700.914 617.391 700.087 617.565 699.304 617.565L699.347 617.521Z" fill="black"/>
<path d="M589.762 383.399C589.458 383.399 589.11 383.399 588.805 383.312C585.847 382.79 583.889 379.963 584.411 377.005C585.064 373.481 601.204 290.395 714.661 252.549C717.532 251.592 720.577 253.115 721.534 255.986C722.491 258.857 720.925 261.902 718.097 262.859C662.109 281.521 631.656 312.058 615.951 334.418C598.942 358.647 595.113 378.745 595.07 378.919C594.591 381.529 592.286 383.399 589.719 383.399H589.762Z" fill="black"/>
<path d="M619.562 446.215C619.344 446.215 619.127 446.215 618.866 446.215C615.908 445.823 613.776 443.126 614.167 440.168C614.298 439.211 627.523 342.683 734.933 307.97C737.804 307.056 740.85 308.622 741.763 311.45C742.677 314.321 741.111 317.366 738.283 318.279C637.659 350.818 625.435 437.776 624.956 441.473C624.608 444.214 622.259 446.215 619.562 446.215Z" fill="black"/>
<path d="M653.582 517.513C653.016 517.513 652.451 517.426 651.842 517.252C649.101 516.338 647.578 513.424 648.318 510.683C648.362 510.379 648.449 509.944 648.536 509.335C653.277 476.666 673.202 415.982 753.335 376.353C756.033 375.005 759.295 376.136 760.6 378.833C761.949 381.53 760.818 384.792 758.121 386.097C682.468 423.508 663.718 480.363 659.281 510.901C659.063 512.467 658.846 513.467 658.715 513.815C657.976 516.077 655.844 517.513 653.538 517.513H653.582Z" fill="black"/>
<path d="M683.381 576.02C683.033 576.02 682.642 576.02 682.294 575.889C679.336 575.28 677.465 572.409 678.074 569.451C678.639 566.624 693.344 499.502 777.436 448.867C780.002 447.301 783.352 448.171 784.918 450.694C786.484 453.261 785.658 456.61 783.091 458.176C703.045 506.419 688.906 571.017 688.776 571.67C688.254 574.236 685.992 576.02 683.468 576.02H683.381Z" fill="black"/>
<path d="M592.938 764.334C591.415 764.334 589.893 763.682 588.805 762.464L378.727 518.904C377.639 517.642 377.204 515.989 377.509 514.379C400.305 386.009 518.852 401.147 520.026 401.321C521.592 401.539 522.984 402.409 523.811 403.757L694.475 666.893C696.128 669.416 695.389 672.765 692.865 674.418C690.342 676.028 686.992 675.332 685.339 672.809L516.067 411.848C499.623 410.326 409.005 406.846 388.646 513.77L597.027 755.373C598.985 757.635 598.724 761.072 596.462 763.029C595.418 763.899 594.156 764.334 592.894 764.334H592.938Z" fill="black"/>
<path d="M441.024 586.853C438.24 586.853 435.847 584.678 435.63 581.85C435.325 578.283 429.757 493.805 529.858 428.293C532.381 426.64 535.731 427.336 537.384 429.859C539.037 432.382 538.341 435.732 535.818 437.385C486.442 469.706 464.777 507.029 455.337 532.608C445.07 560.361 446.506 580.763 446.506 580.98C446.723 583.982 444.505 586.592 441.503 586.809C441.372 586.809 441.198 586.809 441.068 586.809L441.024 586.853Z" fill="black"/>
<path d="M485.833 639.966C483.135 639.966 480.83 637.965 480.438 635.268C480.308 634.311 468.518 537.609 563.53 476.665C566.053 475.012 569.403 475.751 571.056 478.318C572.665 480.841 571.926 484.19 569.403 485.843C480.395 542.96 490.748 630.178 491.227 633.876C491.618 636.834 489.53 639.575 486.572 639.966C486.311 639.966 486.094 640.01 485.833 640.01V639.966Z" fill="black"/>
<path d="M536.949 700.216C536.949 700.216 536.732 700.216 536.601 700.216C533.73 700.042 531.511 697.649 531.511 694.778C531.511 694.474 531.424 694.039 531.381 693.43C527.64 660.63 531.381 596.858 598.811 538.132C601.074 536.175 604.51 536.392 606.468 538.654C608.426 540.916 608.208 544.353 605.946 546.31C542.344 601.774 538.69 661.544 542.213 692.212C542.387 693.778 542.431 694.822 542.431 695.17C542.257 698.041 539.864 700.259 536.993 700.259L536.949 700.216Z" fill="black"/>
<path d="M580.67 749.197C577.799 749.197 575.406 746.978 575.232 744.064C575.058 741.193 572.187 672.549 640.531 602.121C642.619 599.99 646.056 599.903 648.231 601.991C650.406 604.079 650.45 607.515 648.361 609.69C583.498 676.507 586.065 742.846 586.108 743.498C586.282 746.5 583.976 749.066 580.975 749.197C580.888 749.197 580.801 749.197 580.67 749.197Z" fill="black"/>
<path d="M861.789 693.429C841.56 693.429 825.159 676.986 825.159 656.802C825.159 636.618 841.603 620.131 861.789 620.131C881.975 620.131 898.419 636.574 898.419 656.802C898.419 677.03 881.975 693.429 861.789 693.429ZM861.789 631.006C847.563 631.006 836.035 642.577 836.035 656.802C836.035 671.027 847.607 682.554 861.789 682.554C875.971 682.554 887.543 670.983 887.543 656.802C887.543 642.621 875.971 631.006 861.789 631.006Z" fill="black"/>
<path d="M1022.14 592.681C998.042 592.681 978.379 573.063 978.379 548.92C978.379 524.777 997.999 505.158 1022.14 505.158C1046.29 505.158 1065.91 524.777 1065.91 548.92C1065.91 573.063 1046.29 592.681 1022.14 592.681ZM1022.14 516.077C1004 516.077 989.255 530.824 989.255 548.963C989.255 567.103 1004 581.85 1022.14 581.85C1040.28 581.85 1055.03 567.103 1055.03 548.963C1055.03 530.824 1040.28 516.077 1022.14 516.077Z" fill="black"/>
<path d="M705.743 911.889C682.382 911.889 663.414 892.922 663.414 869.562C663.414 846.203 682.382 827.236 705.743 827.236C729.104 827.236 748.072 846.203 748.072 869.562C748.072 892.922 729.061 911.889 705.743 911.889ZM705.743 838.111C688.385 838.111 674.29 852.206 674.29 869.562C674.29 886.919 688.385 901.013 705.743 901.013C723.101 901.013 737.196 886.919 737.196 869.562C737.196 852.206 723.101 838.111 705.743 838.111Z" fill="black"/>
<path d="M925.652 1043.83C899.202 1043.83 877.668 1022.29 877.668 995.844C877.668 969.396 899.202 947.863 925.652 947.863C952.102 947.863 973.637 969.396 973.637 995.844C973.637 1022.29 952.102 1043.83 925.652 1043.83ZM925.652 958.695C905.162 958.695 888.544 975.356 888.544 995.801C888.544 1016.25 905.206 1032.91 925.652 1032.91C946.099 1032.91 962.761 1016.25 962.761 995.801C962.761 975.356 946.099 958.695 925.652 958.695Z" fill="black"/>
<path d="M1147 923.243C1121.33 923.243 1100.41 902.363 1100.41 876.654C1100.41 850.945 1121.29 830.064 1147 830.064C1172.71 830.064 1193.59 850.945 1193.59 876.654C1193.59 902.363 1172.71 923.243 1147 923.243ZM1147 840.94C1127.29 840.94 1111.28 856.948 1111.28 876.654C1111.28 896.359 1127.29 912.368 1147 912.368C1166.71 912.368 1182.71 896.359 1182.71 876.654C1182.71 856.948 1166.71 840.94 1147 840.94Z" fill="black"/>
<path d="M1157.44 1248.41C1151.52 1248.41 1145.52 1247.11 1139.82 1244.32C1130.12 1239.58 1122.85 1231.4 1119.37 1221.22C1115.85 1211.04 1116.55 1200.08 1121.24 1190.42C1130.99 1170.46 1155.18 1162.1 1175.19 1171.85C1195.16 1181.59 1203.51 1205.78 1193.76 1225.79C1186.76 1240.1 1172.4 1248.45 1157.44 1248.45V1248.41ZM1157.57 1178.64C1146.65 1178.64 1136.17 1184.73 1131.03 1195.17C1127.6 1202.21 1127.12 1210.22 1129.64 1217.66C1132.21 1225.09 1137.51 1231.1 1144.61 1234.53C1159.18 1241.67 1176.84 1235.58 1183.98 1220.96C1191.11 1206.35 1185.02 1188.68 1170.4 1181.59C1166.27 1179.59 1161.88 1178.64 1157.53 1178.64H1157.57Z" fill="black"/>
<path d="M942.662 1398.53C920.91 1398.53 903.161 1380.83 903.161 1359.03C903.161 1337.24 920.867 1319.53 942.662 1319.53C964.457 1319.53 982.163 1337.24 982.163 1359.03C982.163 1380.83 964.457 1398.53 942.662 1398.53ZM942.662 1330.41C926.87 1330.41 914.037 1343.24 914.037 1359.03C914.037 1374.82 926.87 1387.66 942.662 1387.66C958.454 1387.66 971.287 1374.82 971.287 1359.03C971.287 1343.24 958.454 1330.41 942.662 1330.41Z" fill="black"/>
<path d="M800.798 1248.15C773.565 1248.15 751.378 1225.96 751.378 1198.73C751.378 1171.5 773.565 1149.32 800.798 1149.32C828.031 1149.32 850.218 1171.5 850.218 1198.73C850.218 1225.96 828.031 1248.15 800.798 1248.15ZM800.798 1160.19C779.525 1160.19 762.254 1177.46 762.254 1198.73C762.254 1220 779.525 1237.27 800.798 1237.27C822.071 1237.27 839.342 1220 839.342 1198.73C839.342 1177.46 822.028 1160.19 800.798 1160.19Z" fill="black"/>
<path d="M1315.83 1323.32C1292.47 1323.32 1273.51 1304.35 1273.51 1280.99C1273.51 1257.63 1292.47 1238.67 1315.83 1238.67C1339.2 1238.67 1358.16 1257.63 1358.16 1280.99C1358.16 1304.35 1339.15 1323.32 1315.83 1323.32ZM1315.83 1249.54C1298.48 1249.54 1284.38 1263.64 1284.38 1280.99C1284.38 1298.35 1298.48 1312.44 1315.83 1312.44C1333.19 1312.44 1347.29 1298.35 1347.29 1280.99C1347.29 1263.64 1333.19 1249.54 1315.83 1249.54Z" fill="black"/>
<path d="M1052.86 1664.28C1032.67 1664.28 1011.7 1661.75 990.995 1656.58C974.289 1652.4 960.455 1646.01 949.492 1638.26C926.827 1648.22 896.549 1653.92 858.527 1651.05C818.373 1647.96 774.913 1632.48 756.859 1598.94C698.478 1587.28 646.665 1487.05 644.142 1482.14C642.793 1479.44 643.837 1476.18 646.491 1474.83C649.145 1473.48 652.451 1474.53 653.799 1477.18C654.365 1478.27 701.218 1568.92 751.552 1586.32C750.029 1581.45 749.029 1576.27 748.55 1570.75C746.201 1544.26 758.904 1520.55 778.132 1515.55C800.885 1509.63 819.983 1523.81 825.377 1540.91C830.728 1557.96 823.506 1582.84 785.658 1596.85C780.612 1598.72 775.566 1599.72 770.563 1599.98C782.7 1617.64 807.758 1636.26 859.397 1640.22C892.416 1642.74 919.258 1638.35 939.748 1630.43C921.041 1613.16 913.994 1591.67 917.909 1573.62C922.694 1551.65 942.271 1540.47 967.764 1545.22C989.864 1549.3 1002.48 1564.53 999.913 1583.93C997.781 1600.03 984.991 1618.64 961.238 1632.3C971.679 1638.7 983.164 1643.4 993.605 1646.01C1048.25 1659.67 1104.54 1654.18 1141.26 1631.74C1127.29 1620.78 1117.94 1606.81 1114.68 1591.37C1110.76 1572.84 1117.24 1555.79 1131.9 1545.74C1145.69 1536.3 1163.83 1535.21 1176.01 1543.13C1182.93 1547.65 1193.85 1558.96 1189.2 1584.15C1185.85 1602.2 1176.01 1618.3 1160.48 1631.3C1162.96 1632.65 1165.57 1633.87 1168.27 1635.04C1204.34 1650.49 1249.97 1646.7 1284.56 1625.34C1294.34 1619.3 1303.44 1613.08 1311.62 1606.81C1296.21 1590.15 1291.13 1565.7 1297.04 1546.26C1303.39 1525.38 1320.32 1515.77 1341.28 1521.16C1361.47 1526.34 1367.13 1536.99 1368.34 1545.04C1371.21 1563.83 1353.16 1586.63 1328.67 1607.16C1331.71 1609.12 1335.11 1610.77 1338.89 1612.08C1387.66 1629.21 1430.99 1592.2 1431.42 1591.85C1433.69 1589.85 1437.12 1590.11 1439.08 1592.37C1441.04 1594.63 1440.82 1598.07 1438.56 1600.03C1436.6 1601.72 1390.14 1641.61 1335.28 1622.34C1329.54 1620.34 1324.41 1617.56 1319.88 1614.21C1310.4 1621.52 1300.3 1628.43 1290.3 1634.61C1252.19 1658.1 1203.81 1662.1 1164.01 1645.05C1159.4 1643.09 1155.09 1640.87 1151 1638.44C1150.43 1638.83 1149.83 1639.22 1149.22 1639.61C1123.94 1655.84 1089.7 1664.28 1052.81 1664.28H1052.86ZM956.627 1555C941.879 1555 931.438 1562.57 928.524 1575.88C924.26 1595.55 935.18 1612.64 951.146 1625.26C974.55 1613.29 987.297 1596.55 989.124 1582.5C990.951 1568.66 982.425 1558.96 965.763 1555.87C962.543 1555.26 959.498 1555 956.627 1555ZM1157 1548.65C1150.65 1548.65 1143.91 1550.7 1138.08 1554.7C1126.99 1562.31 1122.33 1574.84 1125.33 1589.15C1128.25 1602.98 1137.21 1615.56 1150.7 1625.26C1165.88 1613.47 1175.41 1598.72 1178.49 1582.19C1181.1 1568.14 1178.15 1557.53 1170.1 1552.26C1166.4 1549.83 1161.83 1548.65 1157 1548.65ZM1330.19 1530.56C1315.01 1530.56 1309.31 1543.26 1307.44 1549.43C1303.04 1563.92 1306.09 1585.63 1320.05 1600.16C1344.98 1579.54 1359.51 1559.53 1357.55 1546.69C1356.51 1539.73 1350.12 1534.69 1338.5 1531.69C1335.46 1530.9 1332.67 1530.56 1330.15 1530.56H1330.19ZM764.429 1589.02C770.258 1589.46 776.088 1588.72 781.83 1586.58C812.5 1575.23 819.069 1557.22 814.936 1544.13C811.108 1531.86 797.274 1521.77 780.786 1526.03C766.865 1529.64 757.468 1548.83 759.295 1569.75C759.687 1573.97 760.861 1581.02 764.385 1589.02H764.429Z" fill="black"/>
</g>
<defs>
<clipPath id="clip0_157_254">
<rect width="1802" height="1774" fill="white" transform="translate(99 113)"/>
</clipPath>
</defs>
</svg>
