<svg width="2000" height="2000" viewBox="0 0 2000 2000" fill="none" xmlns="http://www.w3.org/2000/svg">
<g clip-path="url(#clip0_157_106)">
<path d="M418.221 1370.7C235.136 1220.44 165.954 1053.17 140.116 939.333C112.18 815.854 127.707 726.644 127.887 725.746L133.762 726.824C133.582 727.723 118.235 815.914 146.051 938.255C171.709 1051.13 240.411 1216.97 422.058 1366.03L418.281 1370.64L418.221 1370.7Z" fill="black"/>
<path d="M1459.84 1776.73C1331.31 1776.73 940.321 1759.95 649.146 1569.61L652.444 1564.58C1002.31 1793.32 1497.43 1770.2 1502.41 1769.96L1502.71 1775.95C1501.87 1775.95 1486.46 1776.73 1459.84 1776.73Z" fill="black"/>
<path d="M1459.42 1733.29V1739.28C1459.42 1739.28 1457.5 1739.28 1454.27 1739.22C1425.91 1738.62 1283.65 1733.77 1099.85 1694.65C983.184 1669.79 834.51 1627.55 684.456 1556.49C682.418 1555.53 680.44 1554.57 678.401 1553.56C676.183 1552.54 673.965 1551.46 671.747 1550.32C673.725 1549.12 675.704 1547.86 677.682 1546.55C679.84 1547.62 682.058 1548.64 684.276 1549.66C686.315 1550.68 688.353 1551.64 690.391 1552.6C1031.56 1712.86 1382.21 1731.02 1448.33 1732.99C1455.17 1733.23 1458.94 1733.29 1459.42 1733.29Z" fill="black"/>
<path d="M441.003 1357.88C439.324 1359.02 437.705 1360.16 436.027 1361.36C435.607 1361 435.187 1360.64 434.768 1360.22C433.569 1359.14 432.37 1358 431.171 1356.86C429.792 1355.6 428.473 1354.35 427.094 1353.09C287.832 1221.22 162.957 988.162 142.934 863.604C121.053 727.363 238.134 531.33 294.246 446.913C311.092 421.63 322.423 406.353 322.902 405.694L326.799 408.569L327.698 409.288C327.698 409.288 325.001 412.883 320.804 418.814C297.244 451.946 219.13 566.319 175.787 685.245C153.365 746.715 140.296 809.383 148.869 862.646C168.772 986.544 293.287 1218.65 432.07 1349.55C433.389 1350.87 434.768 1352.13 436.147 1353.39C437.046 1354.23 437.885 1355.01 438.784 1355.84C439.564 1356.5 440.283 1357.22 441.003 1357.88Z" fill="black"/>
<path d="M1402.17 1670.56L1401.93 1671.52L1400.67 1676.38C1400.13 1676.26 1395.7 1675.12 1387.84 1673.08C1319.68 1655.35 994.515 1570.51 751.66 1502.63C749.442 1502.03 747.224 1501.43 745.066 1500.77C742.788 1500.17 740.51 1499.51 738.292 1498.86C739.91 1497.3 741.589 1495.74 743.207 1494.06C745.425 1494.72 747.704 1495.32 749.982 1495.98C752.14 1496.58 754.358 1497.18 756.516 1497.78C986.602 1562.06 1288.69 1641.03 1376.99 1664.03C1388.86 1667.09 1396.9 1669.19 1400.31 1670.09C1401.39 1670.32 1401.99 1670.5 1402.17 1670.56Z" fill="black"/>
<path d="M459.167 1345.9C456.289 1347.7 453.352 1349.55 450.474 1351.53C448.975 1349.91 447.477 1348.3 446.038 1346.68C444.779 1345.36 443.52 1344.04 442.321 1342.66C331.474 1220.02 209.238 1021.23 168.772 873.909C151.866 812.439 157.861 747.434 175.786 685.245C205.401 582.196 267.688 486.815 312.171 427.622C317.326 420.732 322.242 414.381 326.798 408.569C347.661 382.088 361.989 366.451 362.588 365.792L370.262 372.981C370.262 372.981 369.003 374.359 367.024 376.516C366.965 376.576 366.964 376.636 366.905 376.636C337.469 409.768 121.412 662.119 178.903 871.093C221.707 1026.81 343.644 1219.48 450.954 1337.03C452.153 1338.41 453.411 1339.79 454.67 1341.11C456.169 1342.72 457.668 1344.34 459.167 1345.9Z" fill="black"/>
<path d="M1737.29 1795.3C1687.77 1804.41 1648.14 1808.54 1615.71 1808.54C1604.08 1808.54 1593.35 1808 1583.46 1807.04C1545.15 1803.15 1518.47 1792.07 1495.87 1776.25C1493.23 1774.39 1490.66 1772.48 1488.14 1770.5C1476.33 1761.27 1465.42 1750.73 1454.33 1739.22C1452.35 1737.19 1450.37 1735.09 1448.39 1732.99C1445.75 1730.24 1443.12 1727.48 1440.48 1724.67C1425.07 1708.37 1408.58 1690.93 1387.9 1673.08C1384.43 1670.09 1380.77 1667.03 1377.05 1664.03C1361.64 1651.57 1344.02 1638.99 1323.1 1626.53C1203.38 1555.23 952.31 1507.24 773.661 1479.62C771.263 1479.26 768.925 1478.9 766.587 1478.55C764.189 1478.19 761.791 1477.83 759.453 1477.47C762.271 1474.41 765.088 1471.3 767.846 1468.12C770.184 1468.54 772.522 1468.9 774.86 1469.2C777.138 1469.56 779.416 1469.92 781.754 1470.28C960.763 1498.2 1208.77 1546.25 1328.49 1617.54C1357.99 1635.1 1381.01 1652.83 1400.37 1670.09C1400.91 1670.56 1401.45 1671.04 1401.99 1671.52C1419.68 1687.46 1434.3 1702.92 1448.09 1717.48C1504.86 1777.57 1542.87 1817.77 1720.5 1787.63H1720.56C1725.42 1786.79 1730.39 1785.96 1735.49 1785L1737.35 1795.3H1737.29Z" fill="black"/>
<path d="M1858.86 1125.66C1806.53 980.014 1685.01 873.669 1497.61 809.623C1283.47 736.47 1096.31 757.439 946.016 774.335C808.252 789.792 699.444 802.014 621.75 739.106C479.07 623.655 434.827 447.033 425.775 403.117C467.14 417.796 623.128 469.381 695.907 440.443C778.577 407.551 829.114 290.182 831.213 285.21L833.79 279.039L827.436 277.122C816.345 273.767 565.217 199.355 462.104 292.998C463.303 254.595 454.491 162.629 349.4 120.091C218.29 67.0088 167.813 73 165.775 73.3595L161.039 74.0185L160.559 78.7516C160.379 81.0283 143.174 300.487 354.076 371.723C308.994 409.708 104.926 596.694 112.18 863.424C116.976 1039.33 210.197 1213.01 389.985 1381.97C391.304 1383.16 392.623 1384.42 394.002 1385.68C395.561 1387.18 397.179 1388.68 398.798 1390.11C401.855 1387.54 404.973 1384.96 408.09 1382.45C406.471 1380.95 404.853 1379.51 403.294 1378.01C401.975 1376.75 400.596 1375.5 399.277 1374.24C221.288 1207.38 128.966 1036.15 124.17 863.185C123.87 851.741 123.93 840.478 124.469 829.394V829.214C125.189 810.402 126.987 792.189 129.685 774.335C129.745 774.275 129.745 774.155 129.745 774.095C151.687 629.526 232.318 515.633 294.246 446.913C300.421 440.023 306.416 433.613 312.171 427.622C315.168 424.566 318.046 421.63 320.804 418.814C342.985 396.527 360.13 382.148 366.905 376.636C366.905 376.636 366.905 376.576 367.025 376.516C368.883 375.078 369.902 374.24 370.082 374.12L379.374 367.05L368.164 363.635C171.35 303.962 170.571 119.312 172.189 85.0424H172.489C188.196 85.0424 240.472 88.9367 344.903 131.175C469.778 181.741 449.755 303.124 448.796 308.276L444.899 330.504L459.347 313.189C540.458 216.131 774.92 275.025 817.364 286.708C805.734 311.391 759.034 402.458 691.471 429.299C613.237 460.454 421.938 389.038 420.02 388.319L410.428 384.664L411.987 394.849C412.346 397.006 447.357 613.41 614.196 748.452C695.787 814.476 806.813 802.014 947.334 786.257C1096.49 769.482 1282.09 748.692 1493.71 820.946C1677.46 883.735 1796.52 987.623 1847.59 1129.68C1948.55 1410.72 1750.3 1754.98 1732.49 1784.94C1730.15 1785.48 1726.14 1786.43 1720.5 1787.63H1720.44C1697.96 1792.43 1650.06 1801.35 1583.46 1807.04C1529.5 1811.54 1463.26 1813.93 1388.26 1810.16C1212.49 1801.29 953.929 1756 690.691 1595.25C690.092 1594.95 689.432 1594.6 688.833 1594.18C688.593 1594.06 688.353 1593.88 688.113 1593.76C687.814 1593.58 687.574 1593.4 687.274 1593.22C676.903 1586.81 666.412 1580.28 656.041 1573.51C654.242 1572.37 652.444 1571.17 650.645 1569.97C650.225 1569.73 649.866 1569.49 649.446 1569.19C647.828 1568.17 646.269 1567.1 644.65 1566.02C640.574 1568.23 636.497 1570.33 632.42 1572.31C634.399 1573.69 636.437 1575 638.475 1576.32C640.274 1577.52 642.072 1578.72 643.931 1579.92C923.235 1762.89 1201.76 1812.8 1388.14 1822.14C1414.04 1823.4 1438.92 1824 1462.6 1824C1628.3 1824 1736.63 1796.26 1737.89 1795.96L1740.22 1795.36L1741.48 1793.32C1743.7 1789.67 1965.93 1423.79 1858.86 1125.66Z" fill="black"/>
<path d="M797.88 1440.08C790.386 1450.33 782.713 1460.03 774.799 1469.2C772.102 1472.37 769.344 1475.49 766.526 1478.55C761.131 1484.6 755.616 1490.41 749.98 1495.98C748.362 1497.6 746.683 1499.21 745.064 1500.77C725.521 1519.58 705.138 1535.82 684.276 1549.66C682.357 1550.98 680.379 1552.3 678.401 1553.56C670.967 1558.29 663.533 1562.78 656.04 1566.98C654.241 1567.99 652.443 1569.01 650.644 1569.97C650.464 1570.09 650.285 1570.15 650.105 1570.21C646.208 1572.37 642.371 1574.34 638.474 1576.32C456.228 1667.99 256.237 1610.83 256.237 1610.83C276.5 1511.68 331.833 1438.58 394.001 1385.68C397.118 1383.04 400.176 1380.47 403.293 1378.01C407.31 1374.72 411.386 1371.48 415.463 1368.43C417.141 1367.11 418.76 1365.85 420.439 1364.71C424.036 1361.96 427.573 1359.38 431.17 1356.86C432.848 1355.66 434.527 1354.53 436.145 1353.39C439.443 1351.05 442.74 1348.83 446.037 1346.68C448.915 1344.76 451.792 1342.9 454.67 1341.11C546.632 1282.45 634.458 1261.9 634.458 1261.9L635.837 1267.71C634.158 1268.07 548.79 1288.92 459.166 1345.9C456.288 1347.7 453.351 1349.55 450.473 1351.53C447.296 1353.57 444.179 1355.72 441.001 1357.88C439.323 1359.02 437.704 1360.16 436.025 1361.36C426.673 1367.95 417.321 1374.96 408.089 1382.45C404.972 1384.96 401.854 1387.54 398.797 1390.11C338.188 1441.46 284.174 1511.8 263.251 1606.46C283.754 1611.49 360.13 1628.09 453.171 1620.42C505.627 1616.1 569.293 1603.4 632.42 1572.31C636.496 1570.33 640.573 1568.23 644.649 1566.02C653.702 1561.22 662.754 1556.01 671.746 1550.32C673.725 1549.12 675.703 1547.86 677.681 1546.55C698.424 1533.07 718.747 1517.31 738.29 1498.86C739.909 1497.3 741.587 1495.74 743.206 1494.06C748.661 1488.79 754.117 1483.22 759.392 1477.47C762.21 1474.41 765.028 1471.3 767.785 1468.12C776.418 1458.23 784.871 1447.69 793.024 1436.55L797.88 1440.08Z" fill="white"/>
<path d="M802.676 1443.62C795.842 1452.96 788.888 1461.83 781.694 1470.28C779.056 1473.45 776.358 1476.57 773.601 1479.62C767.966 1485.97 762.27 1492.03 756.515 1497.78C754.897 1499.45 753.278 1501.01 751.659 1502.63C731.936 1521.86 711.373 1538.34 690.391 1552.6C688.413 1553.85 686.434 1555.17 684.456 1556.49C676.842 1561.4 669.229 1566.08 661.555 1570.45C659.697 1571.47 657.898 1572.49 656.04 1573.51C655.92 1573.63 655.74 1573.69 655.62 1573.75C651.724 1575.9 647.827 1577.94 643.93 1579.92C577.087 1614.13 509.284 1627.85 453.711 1632.4C436.625 1633.78 420.079 1634.38 404.313 1634.38C318.046 1634.38 255.279 1616.76 254.559 1616.58L249.224 1615.03L250.363 1609.63C270.865 1509.64 326.918 1435.65 389.985 1381.97C393.102 1379.33 396.16 1376.75 399.277 1374.24C403.234 1371 407.19 1367.89 411.147 1364.83C412.825 1363.57 414.444 1362.31 416.123 1361.12C419.78 1358.36 423.437 1355.66 427.093 1353.09C428.772 1351.89 430.391 1350.75 432.069 1349.55C435.486 1347.22 438.903 1344.88 442.321 1342.66C445.198 1340.69 448.076 1338.83 450.953 1337.03C543.155 1277.9 631.401 1256.45 633.079 1256.03L634.458 1261.9L635.837 1267.71C634.159 1268.07 548.791 1288.92 459.166 1345.9C456.289 1347.7 453.351 1349.55 450.474 1351.53C447.296 1353.57 444.179 1355.72 441.002 1357.88C439.323 1359.02 437.704 1360.16 436.026 1361.36C426.674 1367.95 417.322 1374.96 408.089 1382.45C404.972 1384.96 401.855 1387.54 398.797 1390.11C338.189 1441.46 284.174 1511.8 263.252 1606.46C283.754 1611.49 360.13 1628.09 453.171 1620.42C505.627 1616.1 569.293 1603.4 632.42 1572.31C636.497 1570.33 640.573 1568.23 644.65 1566.02C653.702 1561.22 662.754 1556.01 671.747 1550.32C673.725 1549.12 675.703 1547.86 677.682 1546.55C698.424 1533.07 718.747 1517.31 738.291 1498.86C739.909 1497.3 741.588 1495.74 743.206 1494.06C748.662 1488.79 754.117 1483.22 759.393 1477.47C762.21 1474.41 765.028 1471.3 767.786 1468.12C776.418 1458.23 784.871 1447.69 793.024 1436.55L797.88 1440.08L802.676 1443.62Z" fill="black"/>
<path d="M1193.25 1262.2C1183.18 1240.63 1165.37 1224.46 1143.13 1216.61C1097.27 1200.43 1046.49 1225.3 1030 1271.97L1014.9 1314.56C1006.92 1337.21 1008 1361.54 1018.07 1383.04C1023.05 1393.83 1030 1403.3 1038.52 1410.96C1047.03 1418.69 1056.98 1424.74 1068.13 1428.64C1077.6 1431.99 1087.32 1433.61 1096.91 1433.61C1133.54 1433.61 1168.19 1410.3 1181.32 1373.28L1196.36 1330.68C1204.4 1308.03 1203.26 1283.71 1193.25 1262.2ZM1106.32 1424.02C1103.2 1424.44 1100.09 1424.62 1096.91 1424.62C1088.34 1424.62 1079.64 1423.19 1071.13 1420.19C1051.17 1413.12 1035.22 1398.62 1026.23 1379.27C1017.18 1359.86 1016.16 1337.99 1023.41 1317.56L1038.46 1274.96C1050.27 1241.65 1081.38 1220.62 1114.35 1220.62C1122.93 1220.62 1131.62 1222.06 1140.13 1225.06C1155.36 1230.45 1168.31 1240.21 1177.54 1253.09C1180.42 1257.11 1183 1261.42 1185.09 1265.98C1194.09 1285.39 1195.11 1307.26 1187.91 1327.69L1172.8 1370.28C1162.13 1400.36 1135.7 1420.43 1106.38 1424.02H1106.32Z" fill="black"/>
<path d="M1192.11 1329.12C1200.62 1305.1 1197.86 1279.88 1186.65 1259.33C1181.26 1254.83 1175.14 1251.24 1168.31 1248.84C1129.82 1235.3 1084.8 1263.46 1067.65 1311.87C1050.57 1360.22 1067.83 1410.42 1106.32 1424.02C1109.8 1425.28 1113.39 1426 1116.93 1426.6C1143.79 1419.95 1166.99 1400.12 1177.06 1371.78L1192.11 1329.18V1329.12Z" fill="black"/>
<path d="M372.42 343.445L370.442 349.136C280.218 317.383 212.895 165.265 210.077 158.795L215.592 156.398C216.252 157.956 284.714 312.59 372.42 343.445Z" fill="black"/>
<path d="M410.008 330.623L404.193 332.061C384.53 251.239 255.399 132.313 254.08 131.115L258.097 126.682C263.492 131.594 389.925 248.064 410.008 330.623Z" fill="black"/>
<path d="M676.902 401.02C657.839 407.97 636.257 410.666 614.375 410.666C543.455 410.666 469.058 382.507 464.981 380.95L467.14 375.318C468.459 375.857 596.091 424.147 674.804 395.389L676.902 401.02Z" fill="black"/>
<path d="M680.2 287.786L680.08 293.777C678.402 293.777 505.807 292.04 470.078 340.209L465.222 336.674C502.81 286.049 672.946 287.726 680.2 287.786Z" fill="black"/>
<path d="M634.938 343.145C606.882 355.787 567.975 358.782 537.221 358.782C510.304 358.782 489.561 356.446 487.763 356.266L488.482 350.335C489.381 350.394 581.404 360.699 632.48 337.693L634.938 343.145Z" fill="black"/>
<path d="M510.663 655.828C485.665 612.631 438.065 581.177 401.975 581.177C396.04 581.177 390.405 582.016 385.249 583.813C370.262 589.026 361.509 604.842 359.891 629.646C356.474 682.848 387.887 764.689 431.95 786.557C439.564 790.331 447.237 792.189 454.971 792.189C468.219 792.189 481.468 786.677 494.177 775.653C530.507 744.318 536.502 700.582 510.663 655.828ZM490.281 771.159C471.936 787.036 453.172 790.391 434.648 781.165C392.563 760.315 362.589 681.41 365.886 630.066C366.845 614.548 371.401 594.957 387.168 589.505C421.339 577.702 477.691 610.714 505.448 658.823C529.727 700.882 524.152 741.802 490.281 771.159Z" fill="black"/>
<path d="M671.148 820.108C655.681 799.678 626.126 784.22 600.108 784.22C589.797 784.22 579.965 786.677 571.872 792.189C562.34 798.659 557.964 807.766 559.103 818.49C561.321 839.16 584.281 863.305 612.458 874.688C622.229 878.582 631.461 880.559 639.974 880.559C651.185 880.559 661.017 877.204 668.93 870.554C684.397 857.613 685.236 838.74 671.148 820.108ZM665.093 866.001C648.667 879.78 626.486 873.849 614.736 869.116C588.837 858.691 567.016 836.164 565.038 817.831C564.138 809.323 567.555 802.374 575.229 797.161C601.247 779.487 646.329 797.281 666.352 823.762C673.486 833.169 682.778 851.142 665.093 866.001Z" fill="black"/>
<path d="M562.04 870.614C530.087 827.896 450.714 796.382 410.128 821.546C399.097 828.376 393.822 838.501 394.961 850.723C397.539 879.661 437.525 919.023 482.247 936.697C496.935 942.509 510.663 945.444 522.953 945.444C538.06 945.444 550.889 941.011 560.721 932.324C578.825 916.207 579.305 893.68 562.04 870.614ZM556.704 927.83C535.122 947.062 502.15 938.135 484.405 931.125C441.601 914.17 403.354 877.084 400.896 850.184C400.836 849.345 400.776 848.506 400.776 847.727C400.776 838.92 404.972 831.85 413.305 826.638C422.238 821.126 433.388 818.61 445.618 818.61C484.645 818.61 534.523 843.773 557.244 874.209C568.154 888.767 576.907 909.856 556.704 927.83Z" fill="black"/>
<path d="M418.641 482.561C412.166 463.21 394.121 444.816 375.177 447.572C367.324 448.711 361.449 455.001 358.751 465.187C353.716 484.179 360.07 515.753 375.837 528.095C380.153 531.51 384.889 533.247 389.805 533.247C393.882 533.247 398.078 532.049 402.335 529.712C419.36 520.426 425.415 502.812 418.641 482.561ZM399.457 524.5C392.203 528.454 385.489 528.095 379.554 523.421C365.765 512.577 360.07 483.58 364.566 466.744C366.005 461.232 369.183 454.522 376.077 453.504C377.036 453.384 377.995 453.264 379.014 453.264C393.642 453.264 407.73 468.841 412.946 484.478C418.761 501.733 413.725 516.711 399.457 524.5Z" fill="black"/>
<path d="M1116.27 844.372C1084.5 805.489 944.337 787.216 857.71 810.761C819.103 821.186 796.801 838.8 793.264 861.627C789.068 888.288 808.971 910.156 849.257 923.037C876.294 931.725 909.566 935.918 943.617 935.918C1020.29 935.918 1100.62 914.709 1119.99 876.246C1125.56 865.162 1124.3 854.138 1116.27 844.372ZM1114.65 873.55C1088.28 925.853 935.045 944.306 851.116 917.345C824.798 908.958 794.463 892.602 799.199 862.526C803.216 836.883 834.09 823.343 859.269 816.513C884.747 809.623 915.501 806.448 946.735 806.448C1017.48 806.448 1090.79 822.624 1111.6 848.147C1118.19 856.175 1119.21 864.503 1114.65 873.55Z" fill="black"/>
<path d="M832.532 938.495C816.046 923.636 779.956 914.11 747.463 914.11C725.762 914.11 705.679 918.304 693.989 928.01C686.315 934.361 686.195 941.251 687.454 945.864C692.909 965.875 733.735 984.447 768.446 990.199C776.479 991.517 784.033 992.176 791.047 992.176C813.048 992.176 829.534 985.766 837.687 973.663C845.9 961.381 844.042 948.919 832.532 938.495ZM832.711 970.308C823.299 984.268 800.279 989.36 769.405 984.268C732.956 978.277 697.406 959.584 693.209 944.306C692.07 939.932 693.569 936.158 697.825 932.623C724.623 910.336 803.096 919.982 828.515 942.928C837.807 951.376 839.246 960.602 832.711 970.308Z" fill="black"/>
<path d="M1413.02 849.525C1389.76 821.126 1289.71 805.369 1239.47 816.094C1229.88 818.131 1222.26 821.006 1216.69 824.661C1211.17 828.316 1207.63 832.809 1206.2 838.021C1201.94 853.659 1217.29 868.457 1249.42 879.661C1275.86 888.947 1311.65 894.818 1343.42 894.818C1378.61 894.818 1408.94 887.629 1416.62 869.835C1419.62 863.005 1418.36 855.995 1413.02 849.525ZM1411.16 867.498C1399.29 894.938 1309.67 894.459 1251.4 874.029C1225.74 865.102 1211.53 853.898 1211.53 842.994C1211.53 841.856 1211.71 840.718 1212.01 839.579C1214.77 829.454 1229.16 824.361 1240.73 821.905C1251.52 819.628 1264.17 818.61 1277.66 818.61C1329.09 818.61 1392.4 833.888 1408.4 853.359C1412.3 858.092 1413.2 862.705 1411.16 867.498Z" fill="black"/>
</g>
<defs>
<clipPath id="clip0_157_106">
<rect width="1776" height="1751" fill="white" transform="translate(112 73)"/>
</clipPath>
</defs>
</svg>
