<svg width="2000" height="2000" viewBox="0 0 2000 2000" fill="none" xmlns="http://www.w3.org/2000/svg">
<g clip-path="url(#clip0_157_97)">
<path d="M595.395 1690.38C590.016 1702.55 585.453 1713.24 580.601 1723.8C576.434 1732.82 576.381 1742.35 576.328 1751.99C576.328 1756 578.227 1761.33 573.876 1763.6C568.997 1766.14 566.676 1760.43 563.749 1757.98C541.57 1739.45 527.619 1715.88 522.16 1687.45C520.446 1678.5 520.525 1669.42 523.268 1660.74C527.778 1646.46 537.034 1637.22 552.013 1635.69C551.196 1576.75 564.039 1521.02 586.719 1467.1C596.424 1444.05 609.61 1423.44 626.884 1405.83C636.799 1395.72 648.904 1387.22 661.22 1380.12C691.363 1362.7 719.66 1342.62 747.984 1322.55C762.858 1312.02 776.624 1299.91 790.891 1288.5C795.823 1284.54 798.117 1279.95 797.774 1273.12C797.062 1258.23 802.785 1244.95 810.749 1232.7C814.336 1227.19 818.344 1221.91 822.406 1216.76C827.1 1210.82 827.337 1204.75 823.54 1198.42C821.245 1194.56 818.687 1190.87 816.287 1187.07C809.035 1175.56 809.826 1164.58 818.002 1153.73C825.386 1143.91 833.825 1135.94 846.167 1132.61C853.63 1130.6 860.645 1127.23 866.526 1120.94C864.601 1120.18 863.309 1119.57 861.964 1119.12C847.143 1114.16 840.286 1105.32 839.152 1089.61C838.176 1076.34 841.183 1063.96 848.145 1052.66C851.599 1047.06 855.687 1041.86 859.511 1036.48C861.911 1033.1 864.337 1029.77 867.607 1025.18C858.931 1025 853.577 1021.22 849.49 1015.36C844.4 1008.08 843.503 999.761 843.714 991.314C844.004 980.703 846.589 970.594 851.019 960.906C853.366 955.759 855.503 950.48 858.008 944.62C855.714 944.013 853.867 943.459 851.995 943.01C838.44 939.605 831.741 931.871 830.423 917.776C829.394 906.821 831.346 896.263 835.117 886.021C836.752 881.561 838.519 877.152 840.444 872.111C832.031 869.577 825.94 864.667 822.406 856.854C817.685 846.401 816.894 835.447 818.555 824.282C820.797 809.289 825.992 795.299 833.245 782.049C835.513 777.878 837.754 773.681 840.734 768.164C829.131 771.121 820.085 768.455 812.885 760.747C805.844 753.251 802.679 743.907 801.783 733.823C800.095 714.581 805.422 697.054 815.47 680.821C817.184 678.023 819.03 675.304 820.797 672.532C820.929 672.348 820.797 671.978 820.797 670.606C818.054 672.348 815.786 673.931 813.413 675.33C798.961 683.672 781.898 674.802 780.237 658.094C779.393 649.779 781.714 642.045 784.641 634.443C787.12 628.082 789.81 621.8 792.658 614.858C790.311 614.858 788.834 614.937 787.357 614.858C776.017 614.092 769.187 607.784 767.684 596.46C766.602 588.277 767.578 580.147 770.69 572.598C774.54 563.201 779.129 554.121 783.639 544.988C785.986 540.237 788.808 535.697 791.63 530.734C789.889 530.259 789.098 529.89 788.28 529.837C771.297 528.306 763.359 520.018 765.548 503.336C767.367 489.451 771.534 475.884 774.699 462.185C775.648 458.04 776.729 453.949 776.861 449.567C771.56 456.641 767.816 464.27 766.181 472.848C765.627 475.805 765.442 479.606 761.671 479.527C759.06 479.474 755.869 477.943 754.023 476.016C745.953 467.728 743.553 457.407 744.846 446.162C746.718 429.507 752.151 414.065 760.959 399.838C769.213 386.534 775.701 372.412 780.791 357.604C785.327 344.486 784.878 331.288 781.555 317.377C775.622 319.7 770.4 321.944 765.073 323.765C737.831 333.136 711.116 333.611 685.324 318.803C674.591 312.652 666.336 304.047 661.035 293.014C649.142 268.228 646.794 242.466 654.759 216.044C659.242 201.157 668.841 195.561 683.689 199.89C701.49 205.063 719.159 210.738 735.457 220.03C751.333 229.083 767.473 237.609 783.533 246.346C785.063 247.165 786.645 247.877 789.441 249.25C788.28 245.37 787.674 242.519 786.566 239.879C777.758 218.868 768.712 197.989 760.062 176.925C756.555 168.373 753.39 159.636 750.858 150.741C748.511 142.452 750.199 134.085 752.282 125.876C754.55 116.954 761.091 111.437 768.765 107.927C776.307 104.469 784.456 101.777 792.605 100.325C804.077 98.2924 813.808 102.173 820.639 112.256C829.5 125.322 835.328 139.707 839.073 154.938C841.947 166.578 844.532 178.272 846.879 190.018C847.987 195.508 848.197 201.183 848.83 206.832C864.1 202.424 878.842 197.435 893.953 194.03C908.748 190.704 923.912 188.962 939.234 186.481C939.234 182.732 939.366 179.195 939.234 175.658C938.152 152.879 937.414 130.099 941.634 107.504C944.93 89.8193 949.967 84.6721 967.346 81.0295C986.255 77.0965 1002.47 84.0122 1012.71 100.14C1016.56 106.211 1018.17 112.678 1017.88 119.779C1017.35 132.765 1014.58 145.277 1010.54 157.604C1007.19 167.845 1004.11 178.166 1000.92 188.46C1000.47 189.886 999.995 191.311 999.573 192.736C998.597 195.851 996.936 198.491 993.244 197.593C989.973 196.801 989.525 193.687 990.053 191.021C992.004 181.333 994.351 171.752 996.329 162.091C998.966 149.21 1002.05 136.355 1003.79 123.342C1005.85 107.98 998.017 96.1807 983.249 91.5086C975.785 89.133 968.348 91.931 961.465 94.6497C955.795 96.8934 954.529 102.78 954.028 108.164C952.736 122.761 951.708 137.411 950.917 152.061C950.257 164.018 950.495 176.054 949.572 187.985C948.859 197.092 945.194 199.52 936.069 199.784C905.873 200.655 876.732 206.937 848.329 216.968C845.138 218.103 841.868 219.027 838.123 220.188C837.49 213.589 837.069 208.31 836.488 203.031C833.561 176.925 826.23 152.034 815.391 128.146C815.022 127.328 814.573 126.536 814.151 125.744C807.189 112.968 802.627 110.91 788.729 114.315C785.247 115.159 781.687 115.819 778.285 116.981C766.602 120.966 762.198 127.803 762.99 140.103C763.596 149.236 766.655 157.577 770.611 165.76C783.085 191.417 793.634 217.812 800.649 245.528C801.888 250.438 802.97 255.479 803.391 260.521C803.813 265.43 801.466 267.199 796.772 265.826C793.66 264.929 790.654 263.424 787.779 261.841C769.372 251.81 750.858 241.965 732.688 231.512C717.498 222.775 701.068 217.285 684.717 211.477C683.03 210.87 681.263 210.474 679.496 210.158C673.615 209.181 670.661 210.554 669.184 216.07C662.433 241.014 663.725 265.404 675.856 288.579C679.786 296.102 686.3 301.276 693.842 305.605C711.327 315.662 729.972 315.53 748.828 312.837C757.636 311.57 766.207 308.508 774.751 305.842C782.426 303.44 782.742 303.863 788.228 309.775C792.605 314.5 794.346 320.096 795.717 325.824C802.627 354.675 808.85 383.657 812.226 413.194C815.707 443.549 819.953 473.825 824.12 504.101C827.179 526.353 829.948 548.683 834.036 570.777C840.602 606.2 850.676 640.699 863.836 674.275C870.06 690.165 879.053 704.207 891.289 716.033C901.205 725.588 911.675 734.589 921.907 743.801C923.991 745.702 926.127 747.549 927.736 750.004C904.001 741.241 884.063 727.172 866.763 706.082C872.671 753.99 878.314 799.734 883.984 845.636C903.763 834.418 923.331 834.602 943.084 843.049C953.264 847.404 963.232 852.235 973.174 857.092C976.656 858.781 979.899 861.025 982.985 863.374C997.832 874.592 1000.34 890.06 996.804 906.953C993.323 923.609 985.016 938.311 975.944 952.433C972.832 957.29 967.795 961.249 962.942 964.602C955.822 969.538 948.095 973.603 940.579 977.932C930.531 983.739 921.011 982.419 912.255 975.213C905.768 969.907 899.544 964.311 891.949 957.792C890.788 983.026 892.397 1007.18 893.927 1031.12C909.644 1033.28 925.177 1034.37 940.183 1037.69C965.738 1043.37 987.284 1056.64 1004.06 1076.92C1012.1 1086.66 1015.74 1098.64 1017 1110.94C1020.14 1141.59 1010.28 1168.19 990.29 1191.26C980.611 1202.43 970.01 1212.38 956.824 1219.51C948.543 1223.99 940.552 1224.55 931.823 1221.43C919.798 1217.13 910.752 1208.89 902.946 1199.29C896.537 1191.39 890.92 1182.84 884.96 1174.58C883.404 1172.44 881.875 1170.28 879.712 1167.27C874.86 1180.62 870.35 1193.06 865.709 1205.86C867.871 1207.18 870.06 1208.21 871.853 1209.69C877.101 1214.09 883.246 1217.92 887.175 1223.33C900.071 1241.1 911.306 1259.92 915.815 1281.83C919.455 1299.43 917.609 1316.56 908.774 1332.37C902.234 1344.09 892.529 1352.3 879 1355.13C870.508 1356.92 862.043 1359.14 853.446 1360.01C847.037 1360.67 840.286 1360.22 833.957 1358.9C827.284 1357.53 822.669 1352.8 819.373 1346.55C812.569 1333.54 808.903 1319.86 809.141 1305.16C809.193 1301.1 809.141 1297 809.141 1291.12C794.478 1303.79 781.45 1315.03 767.974 1326.7C771.191 1329.73 774.857 1332.59 777.811 1336.07C788.57 1348.71 792.975 1363.94 793.871 1380.07C795.137 1403.22 793.528 1426.21 787.014 1448.65C786.856 1449.23 786.672 1449.81 786.513 1450.36C779.076 1474.36 763.411 1488.29 737.883 1490.04C728.627 1490.67 719.344 1491.09 710.061 1491.51C708.268 1491.59 706.448 1491.49 704.681 1491.14C686.432 1487.79 669.685 1480.35 655.023 1469.34C642.68 1460.08 639.7 1445.9 642.443 1431.2C643.894 1423.39 647.507 1415.94 650.276 1408.37C651.251 1405.7 652.675 1403.19 653.889 1400.63C653.414 1400.21 652.939 1399.82 652.464 1399.39C648.825 1402.67 644.658 1405.54 641.652 1409.32C626.224 1428.69 617.311 1451.02 612.221 1476.05C615.306 1477.97 618.55 1479.98 621.715 1482.06C625.723 1484.7 629.89 1487.13 633.582 1490.17C648.06 1502.1 651.673 1521.84 642.232 1538.05C637.248 1546.58 631.868 1554.89 626.383 1563.13C619.209 1573.87 614.673 1576.75 599.167 1581.31C598.982 1583.13 598.428 1585.19 598.613 1587.17C600.564 1608.03 602.648 1628.88 604.626 1649.73C604.995 1653.56 604.678 1657.44 605.048 1661.27C608.291 1694.13 609.267 1727.04 609.188 1760.06C609.135 1787.94 610.296 1815.79 610.955 1843.66C610.955 1844.5 611.403 1845.35 611.72 1846.59C633.424 1844.4 655.207 1841.87 675.514 1853.72C654.1 1853.64 632.712 1853.4 611.245 1857.81C624.378 1875.6 667.496 1878.66 690.414 1863.69C687.038 1813.09 681.342 1762.15 686.669 1710.36C682.608 1707.25 675.223 1707.38 671.4 1699.51C677.017 1699.8 681.711 1699.35 686.062 1700.36C706.422 1705.08 727.097 1704.92 747.773 1704.63C771.138 1704.29 794.504 1703.5 817.843 1702.63C838.282 1701.86 858.324 1698.72 877.998 1691.59C880.16 1680.59 877.866 1668.68 882.692 1658.12C883.51 1658.05 884.354 1657.99 885.171 1657.91C885.962 1660.55 887.096 1663.14 887.465 1665.83C888.784 1675.94 890.393 1686.02 890.92 1696.19C893.531 1745.34 893.9 1794.49 890.947 1843.63C890.05 1858.52 889.733 1873.46 889.101 1889.62C915.446 1876.71 942.293 1875.52 969.667 1879.69C974.783 1880.46 980.242 1881.17 986.07 1886.34C981.244 1886.34 978.159 1886.26 975.1 1886.34C958.67 1886.92 942.082 1886.45 925.837 1888.51C914.444 1889.96 903.473 1894.74 892.423 1898.38C890.551 1898.99 888.177 1901.23 887.914 1903C887.413 1906.38 890.762 1907.35 893.373 1907.7C902.524 1908.91 911.728 1910.07 920.932 1910.73C926.285 1911.13 931.718 1910.23 937.098 1910.42C951.338 1910.89 965.052 1907.78 978.792 1904.77C980.242 1904.45 981.693 1904.03 983.09 1903.5C990.395 1900.75 990.844 1899.99 989.815 1892.23C987.916 1877.97 985.859 1863.75 984.145 1849.47C977.526 1794.67 973.122 1739.71 973.596 1684.47C973.649 1679.66 973.913 1674.89 974.256 1670.11C974.519 1666.7 976.26 1664.27 979.978 1664.64C983.222 1664.96 984.303 1667.6 984.409 1670.5C984.541 1673.99 984.435 1677.5 984.435 1681.59C987.389 1681.09 989.446 1680.96 991.371 1680.35C1009.01 1674.86 1027.21 1673.62 1045.49 1672.85C1052.08 1672.56 1058.67 1672.51 1065.27 1672.35C1074.1 1672.17 1076.74 1673.91 1078.29 1682.41C1080.3 1693.31 1082.12 1704.26 1083.33 1715.27C1086.81 1746.87 1089.53 1778.49 1089.55 1810.35C1089.58 1832.79 1091.16 1855.22 1092.09 1878.93C1107.22 1873.17 1122.89 1870.19 1138.98 1869.77C1154.98 1869.37 1171.07 1868.16 1185.36 1877.71C1169.33 1876.42 1153.45 1877.76 1137.66 1879.35C1122.07 1880.9 1106.59 1883.28 1091.66 1890.3C1094.99 1896.08 1099.76 1897.01 1104.27 1898.27C1115.4 1901.36 1126.82 1901.47 1138.18 1900.36C1150.1 1899.2 1161.97 1897.51 1173.76 1895.4C1178.96 1894.47 1183.94 1892.07 1188.92 1890.12C1192.72 1888.61 1194.01 1886.1 1193.22 1881.62C1189.19 1858.6 1185.23 1835.56 1181.86 1812.43C1174.95 1765.29 1168.41 1718.1 1161.76 1670.93C1161.21 1667.07 1161.08 1663.17 1160.81 1659.29C1158.52 1627.61 1156.51 1595.91 1153.8 1564.26C1152.32 1547.02 1149.6 1529.87 1147.39 1512.29C1140.45 1513.53 1134.12 1515.09 1127.71 1515.67C1121.17 1516.27 1114.53 1515.8 1107.96 1516.01C1089.95 1516.62 1075.76 1507.62 1062.6 1497.06C1054.14 1490.25 1052.16 1479.74 1051.76 1469.37C1051 1450.34 1054.95 1432.65 1065.98 1416.55C1080.61 1395.17 1098.76 1377.72 1121.44 1363.2C1118.99 1346.58 1116.4 1329.21 1113.68 1310.73C1101.16 1316.22 1089.98 1313.55 1079.85 1306.93C1067.24 1298.67 1055.72 1289.08 1049.63 1274.59C1046.46 1267.1 1046.46 1259.34 1048.39 1251.63C1052.34 1235.77 1058.65 1220.98 1069.3 1208.29C1076.82 1199.34 1084.02 1190.1 1091.51 1181.15C1093.77 1178.43 1094.8 1175.82 1094.38 1172.2C1090.74 1142.17 1087.37 1112.1 1083.7 1082.06C1082.7 1073.8 1081.04 1065.59 1079.61 1057.01C1061.44 1057.94 1048.81 1049.31 1040.08 1034.81C1035.97 1027.95 1032.91 1020.32 1030.32 1012.72C1026.63 1001.82 1027.63 990.866 1032.01 980.202C1037.39 967.136 1043.61 954.651 1052.63 943.538C1065.19 928.096 1065.27 927.832 1063.97 907.745C1062.5 884.464 1060.28 861.236 1058.36 837.612C1055.69 837.77 1053.9 837.612 1052.24 838.034C1041.9 840.594 1032.62 837.981 1024.1 832.253C1004.35 818.976 1000.89 809.975 1006.09 786.483C1007.56 779.805 1008.93 773.127 1010.54 765.604C1019.04 766.185 1028.29 766.396 1037.44 767.584C1051.92 769.458 1066.06 767.848 1080.35 765.657C1101.45 762.41 1121.89 756.973 1141.96 749.819C1156.75 744.54 1170.23 737.044 1183.07 728.043C1209.39 709.566 1231.46 686.839 1249.68 660.575C1256.78 650.36 1261.5 638.403 1266.64 626.921C1274.08 610.238 1281.33 593.451 1284.87 575.37C1286 569.51 1286.42 563.518 1287.27 557.605C1289.22 544.275 1291.35 530.972 1293.17 517.616C1296.81 491.273 1292.38 466.276 1280.22 442.678C1271.1 424.966 1259.81 408.865 1245.52 394.849C1225.84 375.554 1207.78 354.569 1186.05 337.412C1172.89 327.012 1159.91 316.401 1146.39 306.529C1111.55 281.109 1076.42 256.06 1041.43 230.826C1031.46 223.646 1021.41 216.572 1011.65 209.102C1008.14 206.409 1005.22 202.899 1002.47 199.415C1001.71 198.438 1001.95 195.614 1002.82 194.743C1003.63 193.924 1006.22 194.003 1007.48 194.69C1012.47 197.382 1017.24 200.444 1022.54 203.664C1029.56 197.884 1036.73 192.499 1043.27 186.454C1056.06 174.682 1068.22 162.197 1081.19 150.662C1091 141.925 1101.58 134.006 1112.05 126.034C1117.46 121.917 1124 121.864 1130.14 124.055C1148.47 130.601 1160.57 143.799 1164.35 162.54C1171.07 196.194 1155.96 223.144 1130.75 237.583C1125.02 240.856 1119.49 244.604 1113.39 246.98C1107.75 249.197 1101.5 249.883 1095.2 251.335C1095.86 252.206 1096.23 253.077 1096.89 253.552C1109.28 262.474 1121.39 271.871 1134.23 280.106C1172.05 304.338 1205.91 333.188 1236.6 365.919C1242.75 372.465 1249.16 378.8 1255.57 385.109C1286.58 415.622 1305.41 452.154 1310.34 495.602C1311.82 508.562 1310.05 521.311 1307.86 534.06C1302.8 563.096 1293.94 590.943 1283.41 618.474C1262 674.459 1224.5 716.561 1174.58 748.394C1168.3 752.406 1161.5 755.758 1154.56 758.477C1130.59 767.848 1106.38 776.611 1080.64 780.069C1077.4 780.518 1074.18 781.23 1070.41 781.917C1070.14 784.239 1069.75 786.509 1069.64 788.806C1068.67 812.245 1070.41 835.5 1072.81 858.807C1075.6 885.942 1078.14 913.13 1079.45 940.344C1080.72 966.766 1084.57 992.819 1088.02 1018.98C1092.72 1054.32 1097.07 1089.72 1101.76 1125.06C1104.22 1143.49 1107.57 1161.78 1109.57 1180.26C1115.79 1237.51 1127.35 1293.94 1135.49 1350.9C1140.74 1387.67 1147.44 1424.23 1153.8 1460.84C1155.99 1473.51 1159.94 1485.94 1161.55 1498.67C1164.32 1520.66 1167.59 1542.8 1167.43 1564.87C1167.27 1584.14 1168.8 1603.06 1170.94 1622.09C1171.28 1625.08 1171.68 1628.06 1171.62 1631.07C1171.25 1665.09 1176.79 1698.59 1181.33 1732.14C1186.21 1768.35 1191.64 1804.52 1196.94 1840.7C1198.73 1852.85 1201.4 1864.88 1202.85 1877.08C1204.91 1894.18 1205.25 1892.52 1191.88 1900.73C1188.84 1902.58 1185.44 1904.13 1181.99 1904.87C1156.72 1910.39 1131.33 1914.19 1105.43 1909.78C1098.2 1908.54 1091.64 1905.95 1086.18 1900.81C1082.67 1897.51 1081.43 1893.73 1081.35 1888.85C1080.9 1866.1 1080.06 1843.34 1079.27 1820.59C1078.95 1811.91 1078.61 1803.22 1077.95 1794.54C1075.29 1759.88 1072.49 1725.22 1069.72 1690.56C1069.64 1689.4 1069.3 1688.27 1068.96 1686.45C1040.55 1684.23 1012.81 1686.55 985.675 1693.97C985.675 1708.04 985.411 1721.76 985.728 1735.49C986.677 1776.91 991.529 1818 995.775 1859.13C996.962 1870.45 998.676 1881.72 1000.15 1893.02C1001.45 1902.97 999.942 1907.64 990.633 1910.78C978.528 1914.85 965.922 1918.36 953.264 1919.68C937.229 1921.34 920.958 1920.87 904.792 1920.63C898.911 1920.55 892.951 1918.89 887.202 1917.33C879.475 1915.25 875.783 1910.39 875.123 1902.5C874.965 1900.7 875.071 1898.91 875.123 1897.11C875.783 1839.86 876.468 1782.58 877.101 1725.33C877.18 1718.81 877.101 1712.29 877.101 1706.53C853.841 1709.94 830.871 1713.29 806.846 1716.8C807.321 1721.58 807.98 1727.1 808.376 1732.61C809.483 1747.55 810.037 1762.57 811.672 1777.46C814.151 1799.79 817.342 1822.04 820.27 1844.32C822.564 1861.64 817.87 1869.16 801.282 1874.78C797.036 1876.21 792.975 1878.42 788.65 1879.27C773.38 1882.28 758.928 1879.08 745.215 1872.22C741.233 1870.24 740.468 1866.33 740.494 1862.22C740.521 1853.82 740.705 1845.43 740.521 1837.04C739.703 1799.87 738.806 1762.73 737.91 1725.57C737.857 1723.19 737.62 1720.84 737.409 1717.7C723.642 1716.46 710.114 1715.22 696.11 1713.95C695.952 1715.67 695.635 1717.38 695.635 1719.1C695.635 1734.06 695.635 1749.03 695.82 1764C696.163 1791.56 696.664 1819.11 697.06 1846.7C697.139 1852.98 696.954 1859.29 697.112 1865.57C697.244 1870.4 695.213 1873.86 690.757 1875.34C668.894 1882.51 646.821 1887.5 623.956 1879.93C620.554 1878.79 617.205 1877.39 614.04 1875.76C604.547 1870.82 599.509 1863.72 599.509 1852.16C599.536 1814.39 598.824 1776.62 598.164 1738.87C597.927 1725.41 597.136 1711.92 596.503 1698.46C596.398 1696.16 595.844 1693.92 595.264 1690.22L595.395 1690.38ZM893.531 1040.7C893.162 1044.95 892.898 1047.33 892.74 1049.68C890.498 1084.6 890.604 1119.76 882.718 1154.15C882.165 1156.6 883.246 1160.17 884.802 1162.31C892.74 1173.18 900.81 1184 909.381 1194.38C916.079 1202.48 923.806 1209.53 933.775 1213.7C940.895 1216.68 947.383 1216.44 954.318 1212.59C969.852 1204.01 982.563 1192.19 992.795 1178.09C1008.04 1157.05 1014.26 1133.46 1008.59 1107.56C1006.61 1098.48 1003.77 1089.59 997.41 1082.38C977.895 1060.23 953.554 1047.85 924.017 1045.64C918.11 1045.19 912.281 1043.68 906.401 1042.71C902.392 1042.05 898.383 1041.44 893.505 1040.67L893.531 1040.7ZM762.277 1330.95C761.091 1331.34 760.484 1331.42 760.009 1331.74C737.567 1346.65 715.151 1361.59 692.708 1376.45C689.464 1378.59 686.247 1381.05 682.66 1382.34C672.375 1386.06 665.756 1392.95 662.064 1403.19C658.82 1412.17 654.02 1420.69 651.726 1429.88C647.216 1447.93 654.047 1462.06 670.872 1469.74C705.472 1485.55 693.447 1484.26 732.635 1483.46C736.512 1483.38 740.389 1482.78 744.239 1482.33C754.893 1481.06 763.833 1476.2 770.084 1467.68C774.25 1461.98 777.784 1455.46 779.973 1448.75C787.41 1425.89 788.254 1402.3 785.986 1378.54C784.984 1367.96 782.241 1357.87 776.123 1349.06C771.877 1342.96 767.104 1337.23 762.277 1330.95ZM886.12 869.155C886.12 869.155 886.358 869.155 886.463 869.155C887.703 891.855 888.837 914.582 890.314 937.282C890.525 940.661 891.263 944.963 893.452 947.101C902.234 955.601 911.569 963.546 920.958 971.412C925.468 975.186 930.847 975.609 936.122 972.837C944.587 968.429 953.29 964.311 961.254 959.085C965.843 956.076 970.063 951.641 972.832 946.89C978.264 937.625 982.879 927.832 987.204 918.013C989.472 912.866 990.923 907.244 991.899 901.701C993.797 891.01 991.503 881.323 982.668 874.223C978.264 870.686 973.623 867.254 968.559 864.852C958.327 859.969 947.594 856.141 937.361 851.232C923.859 844.791 910.066 845.293 896.195 848.671C888.125 850.651 885.224 855.983 885.909 864.667C886.015 866.172 886.094 867.65 886.173 869.155H886.12ZM861.647 1214.68C859.986 1216.92 859.353 1217.58 858.957 1218.34C847.248 1241.04 833.667 1262.48 816.736 1281.64C814.283 1284.44 813.782 1287.21 814.389 1290.67C815.232 1295.66 815.839 1300.73 816.366 1305.77C817.553 1317.38 819.294 1328.63 824.964 1339.34C829.869 1348.58 836.515 1353.15 846.351 1352.17C858.509 1350.96 870.64 1349.06 882.613 1346.6C886.727 1345.76 890.894 1342.93 894.058 1339.95C910.752 1324.19 914.391 1304.68 908.8 1283.15C903.421 1262.48 892.16 1244.77 878.578 1228.64C874.095 1223.31 867.739 1219.56 861.674 1214.62L861.647 1214.68ZM1146.94 1502.76C1138.61 1459.5 1130.22 1415.92 1121.78 1372.07C1120.3 1372.63 1119.35 1372.76 1118.7 1373.29C1101.9 1386.85 1086.36 1401.48 1073.73 1419.32C1061.76 1436.24 1058.44 1454.67 1060.31 1474.62C1061.18 1483.83 1065.4 1491.09 1073.36 1495.98C1077.19 1498.3 1081.09 1500.54 1085.07 1502.6C1104.38 1512.55 1124.18 1510.94 1144.12 1504.9C1144.91 1504.66 1145.52 1503.84 1146.91 1502.76H1146.94ZM750.225 1854.38C761.381 1852.13 771.824 1849.73 782.373 1848.04C793.291 1846.3 803.523 1849.6 814.046 1854.43C813.835 1851.92 813.782 1850.15 813.492 1848.44C810.222 1828.64 806.134 1808.95 803.813 1789.02C801.625 1770.31 801.282 1751.38 800.121 1732.53C799.778 1726.99 800.227 1721.29 797.458 1715.67C780.712 1716.22 764.387 1716.78 747.799 1717.33C748.617 1763.71 749.408 1809.06 750.225 1854.35V1854.38ZM1059.2 227.896C1067.72 217.918 1075.13 208.548 1083.28 199.863C1091.27 191.337 1100.87 184.765 1111.42 179.75C1104.09 188.645 1096.15 196.775 1088.66 205.301C1081.01 214.038 1074.02 223.276 1067.69 233.571C1072.28 236.738 1076.13 239.563 1080.17 242.07C1081.54 242.915 1083.59 243.522 1085.1 243.179C1098.42 240.064 1111.47 236.844 1123.07 228.45C1143.56 213.589 1154.93 194.927 1152.5 168.98C1151.21 154.99 1138.34 139.523 1124.87 135.616C1120.12 134.243 1116.06 134.692 1112.29 137.807C1103.8 144.881 1095.01 151.638 1086.94 159.161C1069.46 175.474 1053.11 193.08 1032.99 206.383C1032.3 206.832 1031.88 207.703 1030.98 208.811C1040.5 215.252 1049.86 221.561 1059.17 227.843L1059.2 227.896ZM568.47 1751.57C568.76 1747.47 568.707 1744.89 569.208 1742.38C570.658 1735.09 572.003 1727.76 574.008 1720.63C575.142 1716.64 577.594 1713.08 579.335 1709.25C588.38 1689.24 592.231 1668.81 583.897 1647.51C583.765 1647.2 584.346 1646.62 584.715 1645.96C587.194 1647.14 589.699 1648.36 592.442 1649.68C590.675 1627.16 588.961 1605.39 587.246 1583.58C586.64 1583.53 586.033 1583.45 585.427 1583.4C583.502 1593.01 581.656 1602.64 579.651 1612.22C577.621 1621.94 578.596 1632.15 575.379 1643.58C573.243 1640.65 571.634 1639.44 571.476 1638.04C570.922 1633 570.421 1627.9 570.632 1622.86C571.476 1603.46 577.383 1585.22 583.976 1567.16C585.189 1563.81 586.561 1560.33 586.798 1556.84C588.433 1532.35 590.807 1507.99 595.527 1483.7C589.725 1496.71 583.528 1509.7 580.073 1523.37C574.456 1545.7 570.157 1568.41 566.202 1591.11C563.934 1604.07 563.327 1617.29 562.272 1630.44C561.718 1637.25 559.45 1643.11 552.541 1644.77C536.718 1648.54 530.969 1659.81 529.914 1674.33C529.465 1680.48 530.257 1686.9 531.549 1692.97C536.559 1716.41 550.774 1734.14 568.47 1751.57ZM802.943 589.703L805.897 590.098C805.95 593.134 806.741 596.407 805.897 599.179C802.284 610.898 797.985 622.407 794.319 634.1C792.262 640.646 790.39 647.298 789.362 654.055C788.57 659.335 790.733 664.139 795.612 667.095C800.754 670.21 805.396 668.494 809.747 665.3C816.287 660.549 822.88 655.824 829.262 650.862C830.766 649.7 832.084 647.72 832.506 645.899C834.009 639.511 834.59 633.256 832.664 626.525C823.777 595.087 815.918 563.386 812.2 530.814C811.699 526.353 810.776 521.918 809.773 515.926C803.998 527.672 799.146 537.571 794.24 547.443C790.364 555.203 785.643 562.673 782.716 570.777C780.105 577.956 779.208 585.822 778.101 593.477C777.731 595.958 778.681 598.862 779.762 601.237C782.03 606.147 786.645 607.704 791.63 607.995C796.983 608.285 797.352 603.719 798.75 600.182C800.121 596.671 801.545 593.213 802.969 589.729L802.943 589.703ZM757.003 469.47C761.354 460.786 765.363 452.497 769.662 444.315C771.244 441.305 773.644 438.956 777.6 439.933C781.371 440.857 783.006 443.866 783.243 447.218C783.507 451.046 783.375 455.031 782.584 458.753C781.081 465.748 778.681 472.585 777.178 479.579C775.253 488.633 773.116 497.713 772.431 506.899C771.692 516.797 779.683 524.743 789.599 524.901C791.788 524.927 795.163 523.344 796.034 521.549C802.363 508.588 807.664 495.602 804.605 480.292C801.44 464.481 799.831 448.353 797.801 432.357C795.322 412.772 793.159 393.16 790.759 373.574C790.469 371.146 789.573 368.796 789.098 366.922C780.501 383.525 771.56 399.706 763.702 416.414C759.403 425.521 756.265 435.34 753.838 445.133C751.808 453.236 751.729 461.736 757.056 469.496L757.003 469.47ZM1095.2 1187.88C1088.47 1197.2 1082.41 1205.99 1075.92 1214.46C1066.58 1226.63 1061.28 1240.46 1057.75 1255.17C1056.3 1261.29 1056.72 1267.2 1059.73 1272.64C1067.27 1286.34 1077.98 1297 1091.85 1304.34C1098.68 1307.96 1105.48 1307.4 1112.29 1303.39C1106.64 1265.14 1101.03 1227.27 1095.2 1187.91V1187.88ZM840.655 650.624C838.598 653.686 837.649 654.557 837.359 655.613C834.563 666.198 828.761 675.251 822.88 684.279C816.92 693.411 813.307 703.521 810.96 714.079C808.244 726.353 808.824 738.416 814.23 750.004C817.896 757.817 823.803 762.885 832.19 764.865C837.622 766.158 842.949 764.522 844.532 760.325C850.307 744.989 856.584 729.679 853.894 712.628C851.89 699.931 850.386 687.156 847.907 674.565C846.431 667.042 843.477 659.81 840.629 650.65L840.655 650.624ZM1064.53 937.018C1056.19 950.242 1047.6 962.86 1041.21 977.113C1032.38 996.805 1036.15 1014.36 1046.78 1031.52C1051.45 1039.06 1058.07 1044.63 1066.43 1047.85C1070.43 1049.38 1074.47 1049.99 1078.16 1046.51C1073.63 1010.16 1069.12 973.867 1064.53 937.018ZM859.326 754.571C851.89 768.983 844.4 782.154 838.229 795.933C833.746 805.963 830.423 816.601 827.68 827.265C825.043 837.559 826.045 848.038 830.054 858.068C832.216 863.479 835.433 867.782 841.842 870.131C847.67 857.884 853.525 846.164 858.799 834.18C861.304 828.479 863.15 822.381 864.495 816.284C866.552 806.887 866.763 797.437 864.759 787.829C862.544 777.086 861.173 766.158 859.3 754.571H859.326ZM870.798 828.399C861.304 851.285 852.338 872.084 844.136 893.201C841.921 898.903 841.394 905.502 841.209 911.731C840.734 926.856 845.982 933.112 861.885 936.886C867.212 927.463 872.644 917.908 876.02 907.323C876.838 904.789 877.312 902.07 877.339 899.404C877.708 876.281 875.941 853.344 870.798 828.426V828.399ZM599.087 1570.46C608.924 1571.36 615.201 1567.43 619.684 1560.38C625.46 1551.3 631.499 1542.3 636.351 1532.72C641.388 1522.82 641.52 1512.42 634.479 1503.1C628.229 1494.81 619.13 1490.25 609.979 1484.39C602.094 1513.05 600.67 1541.32 599.087 1570.44V1570.46ZM1057.09 831.171C1057.93 814.885 1058.78 798.836 1059.62 782.946C1045.33 779.805 1030.82 776.611 1015.37 773.206C1014.31 782.629 1012.97 792.369 1012.21 802.162C1011.78 807.388 1013.6 812.219 1017.45 816.046C1028.24 826.789 1040.08 834.893 1057.12 831.197L1057.09 831.171ZM834.59 1200.95C841.947 1192.5 849.252 1184.66 855.872 1176.3C859.933 1171.2 862.966 1165.29 866.447 1159.75C872.354 1150.38 872.46 1139.76 873.937 1129.28C864.258 1133.82 855.714 1138.73 846.589 1141.93C836.066 1145.6 828.814 1152.43 822.88 1161.36C818.661 1167.72 818.318 1174.21 822.168 1180.76C826.071 1187.38 830.238 1193.88 834.59 1200.95ZM872.908 1114.79C876.547 1107.53 881.901 1031.04 879.844 1020.14C871.8 1033.02 863.572 1045.74 855.819 1058.73C850.782 1067.15 849.279 1076.73 849.147 1086.42C848.962 1100.54 854.527 1108.38 867.37 1113.08C869.031 1113.69 870.772 1114.16 872.882 1114.82L872.908 1114.79ZM878.499 929.812C877.787 929.654 877.075 929.495 876.389 929.337C868.53 945.386 860.17 961.276 855.634 978.671C853.788 985.771 853.525 993.505 853.894 1000.9C854.369 1010.56 859.195 1018.19 867.897 1023.57C868.9 1022.14 869.743 1021.27 870.192 1020.24C875.704 1007.65 880.371 994.851 879.738 980.729C879.448 974.157 879.448 967.558 879.29 960.959C879.053 950.559 878.763 940.186 878.499 929.786V929.812ZM803.26 1274.51C826.704 1248.88 845.798 1220.48 858.799 1188.12C857.401 1188.39 856.531 1188.99 855.845 1189.78C841.868 1205.73 828.761 1222.36 816.446 1239.67C809.009 1250.12 804.394 1261.47 803.233 1274.51H803.26ZM807.796 1860.24C787.911 1852.79 770.215 1857.15 751.333 1863.69C768.554 1872.88 795.401 1871.3 807.796 1860.24Z" fill="black"/>
<path d="M864.443 1423.81C875.704 1425.08 886.991 1426.13 898.225 1427.69C907.007 1428.9 912.783 1434.45 916.079 1442.34C920.51 1452.95 922.962 1464.04 920.8 1475.6C918.769 1486.45 917.16 1497.43 914.075 1507.99C910.699 1519.52 902.181 1526.09 890.208 1528.42C876.838 1531 863.52 1531 850.096 1528.97C841.288 1527.62 833.456 1524.14 826.282 1519.15C816.208 1512.13 811.329 1502.15 811.514 1489.98C811.593 1483.73 812.094 1477.37 813.545 1471.32C815.628 1462.64 818.582 1454.14 821.483 1445.66C826.704 1430.41 839.205 1425.68 853.63 1424.18C857.164 1423.81 860.777 1424.13 864.364 1424.13C864.39 1424.02 864.416 1423.94 864.443 1423.84V1423.81ZM871.906 1432.7V1432.89C867.106 1432.89 862.227 1432.31 857.56 1433.02C851.151 1434 844.796 1435.66 838.625 1437.69C836.357 1438.46 833.772 1440.76 832.928 1442.97C827.469 1457.23 822.247 1471.59 821.931 1487.13C821.667 1499.54 827.153 1508.49 838.334 1513.58C842.897 1515.67 847.855 1517.04 852.786 1518.09C864.575 1520.63 876.521 1520.26 888.52 1519.52C898.805 1518.91 905.952 1513.82 908.695 1504.53C912.282 1492.25 914.76 1479.58 916.607 1466.91C917.398 1461.53 915.868 1455.62 914.444 1450.18C912.044 1440.89 905.689 1435.32 896.036 1434.31C888.019 1433.47 879.949 1433.21 871.906 1432.68V1432.7Z" fill="black"/>
<path d="M920.088 620.585C920.879 618.87 921.406 616.943 922.488 615.438C935.858 596.486 950.996 579.276 970.194 565.84C987.6 553.646 1004.45 540.633 1022.04 528.702C1052.84 507.823 1086.6 493.569 1122.94 485.571C1153.14 478.919 1183.54 474.247 1214.61 476.068C1220.15 476.385 1225.66 477.098 1231.07 479.078C1221.94 479.817 1212.79 480.239 1203.72 481.321C1158.17 486.732 1113.03 493.965 1070.36 511.835C1052.37 519.358 1035.31 528.649 1019.48 540.157C1006.9 549.317 994.14 558.265 981.35 567.107C962.995 579.777 946.829 594.823 932.034 611.452C928.79 615.095 925.098 618.342 921.617 621.773C921.116 621.377 920.615 621.008 920.14 620.612L920.088 620.585Z" fill="black"/>
<path d="M983.75 1422.67C981.666 1422.46 979.504 1422.54 977.526 1421.96C958.433 1416.21 941.818 1406.99 930.979 1389.31C926.575 1382.1 925.81 1374.82 928.606 1367.01C934.302 1351.04 943.401 1337.02 953.844 1323.85C961.624 1314.03 972.093 1311.89 983.723 1315.61C997.832 1320.13 1010.39 1327.75 1021.94 1336.81C1031.83 1344.57 1034.62 1355.6 1032.41 1367.45C1031.17 1374.08 1028.85 1380.97 1025.21 1386.56C1019.04 1396.04 1011.76 1404.86 1004.37 1413.44C999.125 1419.53 992.189 1423.02 983.75 1422.65V1422.67ZM1026.1 1364.1C1026.1 1353.52 1021.96 1345.23 1012.52 1340.42C1002.45 1335.3 992.136 1330.53 981.666 1326.33C969.825 1321.6 964.683 1323.72 956.085 1334.14C947.435 1344.65 941.792 1356.84 936.807 1369.38C934.645 1374.79 935.357 1379.75 938.337 1384.74C947.778 1400.58 962.415 1409.27 979.319 1414.65C984.857 1416.42 990.923 1415.89 995.512 1411.9C1007.75 1401.24 1018.4 1389.18 1024.34 1373.74C1025.5 1370.73 1025.55 1367.32 1026.1 1364.1Z" fill="black"/>
<path d="M911.227 434.812C910.541 437.979 909.961 443.1 908.352 447.851C905.372 456.615 898.805 459.941 889.918 457.539C882.613 455.559 876.89 451.204 873.726 444.314C866.236 428.002 864.258 410.897 868.478 393.45C871.062 382.786 880.952 379.407 890.287 385.32C895.984 388.91 900.678 393.635 903.289 399.838C907.719 410.396 910.383 421.429 911.2 434.812H911.227ZM882.719 390.599C877.813 398.095 878.183 404.14 882.534 407.149C886.332 409.762 889.707 408.68 895.298 402.398C891.369 398.702 887.386 394.981 882.719 390.599Z" fill="black"/>
<path d="M1115.27 358.264C1114.92 360.878 1114.84 363.306 1114.24 365.602C1112.05 373.864 1105.61 377.111 1097.68 373.812C1089.53 370.433 1083.38 364.52 1080.77 356.232C1077 344.275 1073.89 332.08 1071.41 319.806C1069.62 310.963 1076.13 304.971 1084.86 307.426C1089.5 308.746 1094.46 311.57 1097.54 315.187C1108.09 327.566 1113.5 342.321 1115.29 358.291L1115.27 358.264ZM1080.88 316.031C1081.17 325.402 1083.09 326.563 1092.64 323.396C1090.08 318.961 1086.79 316.216 1080.88 316.031Z" fill="black"/>
<path d="M991.345 657.355C985.86 656.51 981.139 654.293 979.768 648.354C978.423 642.468 982.009 638.64 986.466 635.763C997.094 628.927 1009.07 626.129 1021.44 625.601C1029.11 625.258 1036.97 626.129 1044.56 627.449C1049.84 628.372 1054.64 631.17 1056.3 637.083C1053.5 641.069 1050.21 638.957 1047.25 638.165C1031.43 633.863 1015.82 635.103 1000.31 639.591C998.887 640.013 997.463 640.515 996.092 641.069C985.095 645.424 984.515 647.589 991.398 657.355H991.345Z" fill="black"/>
<path d="M1235.26 557.605C1228.01 554.966 1224.21 558.001 1220.44 561.01C1209.73 569.51 1202.03 580.517 1194.83 591.92C1193.25 594.454 1191.85 597.146 1189.9 599.39C1188.9 600.551 1186.31 601.871 1185.55 601.37C1184.07 600.446 1182.67 598.308 1182.57 596.618C1182.41 594.032 1182.96 591.207 1183.97 588.805C1190.48 573.469 1201.11 561.565 1215.32 553.039C1220.52 549.924 1226.32 547.813 1231.99 552.511C1232.83 553.197 1233.26 554.412 1235.26 557.605Z" fill="black"/>
<path d="M851.731 364.89C852.127 361.537 852.022 358.027 852.971 354.833C855.845 345.198 861.199 336.936 868.741 330.338C871.22 328.173 874.912 327.144 878.235 326.325C879.343 326.035 881.716 327.698 882.244 328.991C882.745 330.258 881.716 332.185 881.215 333.795C881.057 334.297 880.424 334.666 879.949 335.01C868.926 343.245 859.907 353.275 851.731 364.89Z" fill="black"/>
<path d="M1068.77 260.758C1057.27 264.718 1045.8 268.703 1034.3 272.61C1032.91 273.085 1031.22 273.639 1029.95 273.217C1028.13 272.61 1025.58 271.422 1025.23 269.997C1024.78 268.096 1026 265.721 1026.76 263.662C1027.03 262.976 1028.11 262.5 1028.93 262.184C1041.98 257.3 1055.27 256.561 1068.75 258.937C1068.75 259.544 1068.75 260.151 1068.75 260.732L1068.77 260.758Z" fill="black"/>
<path d="M747.931 269.495C756.819 270.815 772.589 280.793 775.859 287.418C776.729 289.186 776.888 292.459 775.806 293.806C773.591 296.604 770.901 294.677 769.029 292.671C762.014 285.121 755.131 277.467 747.905 269.495H747.931Z" fill="black"/>
<path d="M882.718 390.599C887.386 394.981 891.368 398.703 895.298 402.398C889.707 408.68 886.305 409.762 882.534 407.149C878.182 404.14 877.813 398.096 882.718 390.599Z" fill="white"/>
</g>
<defs>
<clipPath id="clip0_157_97">
<rect width="790" height="1841" fill="white" transform="translate(521 80)"/>
</clipPath>
</defs>
</svg>
