<svg width="2000" height="2000" viewBox="0 0 2000 2000" fill="none" xmlns="http://www.w3.org/2000/svg">
<g clip-path="url(#clip0_157_96)">
<path d="M890.66 1373.36C873.274 1370.94 856.309 1368.61 838.164 1366.11C837.518 1371.28 836.254 1376.81 836.254 1382.35C836.058 1435 835.665 1487.66 842.349 1540.09C843.445 1548.77 842.743 1557.99 841.198 1566.67C838.951 1579.03 831.648 1587.83 819.177 1592.1C800.836 1598.36 782.045 1601.9 762.777 1599.8C744.745 1597.83 726.825 1594.65 708.933 1591.51C703.372 1590.52 697.81 1588.44 692.726 1585.94C680.283 1579.82 673.374 1569.68 672.728 1555.63C672.11 1542.79 672.728 1529.95 677.334 1517.86C685.732 1495.72 685.929 1473.19 683.205 1449.98C681.126 1432.28 681.491 1414.32 680.761 1396.45C680.312 1385.67 679.862 1374.88 679.357 1363.3C677.11 1363.81 675.846 1363.81 674.947 1364.37C663.01 1371.76 651.072 1379.15 639.247 1386.68C621.187 1398.2 608.098 1414.8 594.279 1430.71C590.347 1435.23 585.712 1439.16 581.19 1443.12C580.179 1444.02 578.297 1443.97 575.994 1444.56C570.685 1435.73 564.984 1427.31 560.321 1418.31C543.862 1386.51 521.419 1360.32 491.759 1339.89C469.148 1324.33 446.959 1308.26 422.719 1295.19C414.321 1290.67 406.288 1285.36 398.339 1280.08C371.712 1262.37 343.54 1247.62 314.835 1233.52C261.58 1207.36 214.533 1173.08 176.643 1126.64C152.516 1097.08 131.787 1065.41 112.716 1032.54C102.576 1015.09 94.7676 996.516 89.2624 977.129C76.1735 931.218 67.1293 884.379 68.0562 836.558C69.8257 744.679 92.1273 658.898 146.168 582.557C173.301 544.232 203.495 509.082 239.391 479.018C280.877 444.262 327.923 420.491 380.869 408.044C422.691 398.21 464.71 395.906 507.235 400.458C522.964 402.144 537.036 409.505 551.754 414.647C556.248 416.22 560.911 417.878 564.787 420.547C570.124 424.2 573.859 423.217 579.28 419.986C618.154 396.974 658.516 377.221 704.214 372.529C734.352 369.438 764.715 367.977 794.6 375.395C817.155 381.014 839.85 386.269 862.095 392.984C895.688 403.099 925.938 419.929 954.363 440.525C988.63 465.335 1019.95 493.376 1049.02 523.974C1069.3 545.328 1085.67 569.745 1101.71 594.386C1120.11 622.652 1133.96 653.278 1145.28 684.691C1165.98 742.038 1176.31 801.295 1167.35 862.407C1163.28 890.111 1157.04 917.506 1151.59 946.138C1155.41 946.699 1160.3 947.908 1165.22 948.02C1183.05 948.385 1200.75 948.975 1218.67 946.812C1248.22 943.243 1277.76 945.66 1307.26 950.549C1357.03 958.781 1402.87 977.578 1446.91 1001.07C1467.24 1011.91 1484.49 1027.51 1500.78 1043.72C1516.37 1059.23 1531.68 1075.05 1544.23 1093.37C1555.27 1109.47 1565.16 1126.05 1573.05 1143.97C1595.61 1195.39 1629 1238.88 1671.69 1275.21C1689.08 1290.02 1708.57 1301.54 1730.54 1308.26C1735.9 1309.89 1741.6 1310.42 1746.72 1311.35C1755.9 1300.84 1764.44 1291.43 1772.56 1281.65C1782.58 1269.54 1796.29 1264.79 1810.93 1262.21C1831.06 1258.66 1850.25 1263.05 1868.79 1270.83C1872.89 1272.54 1876.96 1274.43 1880.89 1276.53C1893.9 1283.53 1907.69 1286.51 1922.43 1285.1C1924.62 1284.91 1926.87 1284.99 1929.09 1285.1C1929.57 1285.1 1930.02 1285.81 1931 1286.59C1930.58 1287.46 1930.35 1288.9 1929.54 1289.43C1913.08 1300.25 1903.11 1315.7 1896.79 1334.05C1894.85 1339.73 1891.79 1345.04 1888.95 1350.37C1887.77 1352.59 1886.34 1355.32 1884.29 1356.3C1875.27 1360.63 1871.03 1369.68 1864.04 1375.83C1838.96 1397.94 1814.6 1400.64 1788.9 1383.7C1772.84 1373.11 1759.38 1358.52 1744.95 1345.49C1743.71 1344.36 1743.01 1340.34 1743.71 1339.78C1745.34 1338.49 1748.32 1337.59 1750.17 1338.21C1753.4 1339.28 1756.49 1341.27 1759.16 1343.49C1763.82 1347.34 1768.06 1351.7 1772.56 1355.77C1778.93 1361.56 1785.06 1367.71 1791.83 1372.97C1814.63 1390.72 1843.51 1388.84 1866.48 1367.04C1852.47 1371.5 1839.94 1373.33 1826.85 1369.62C1829.74 1368.95 1832.58 1367.85 1835.5 1367.65C1850.36 1366.64 1863.22 1360.24 1875.16 1352.17C1879.35 1349.36 1882.16 1344.11 1884.82 1339.53C1887.18 1335.43 1888.45 1330.71 1890.19 1326.27C1895.13 1313.68 1901.51 1302.05 1913.98 1293.34C1911.14 1292.55 1909.74 1291.88 1908.33 1291.79C1894.63 1291.2 1882.24 1286.34 1870.05 1280.61C1853.37 1272.77 1835.84 1268.5 1817.24 1269.34C1807.5 1269.79 1798.48 1272.77 1790.08 1277.6C1788.17 1278.7 1786.29 1279.79 1785.17 1282.01C1801.82 1280.58 1817.61 1276.48 1834.74 1282.27C1794.8 1287.52 1774.27 1294.26 1761.49 1307.41C1788.99 1298.23 1814.49 1298.2 1840.08 1307.67C1838.54 1307.81 1836.99 1308.03 1835.45 1308.06C1833.84 1308.06 1832.24 1307.98 1830.67 1307.81C1806.09 1305.22 1782.36 1309.1 1759.16 1317.08C1757.76 1317.56 1755.45 1318.32 1755.31 1319.19C1754.27 1325.76 1749.69 1324.16 1745.76 1323.49C1715.37 1318.26 1687.79 1306.46 1663.24 1287.66C1638.97 1269.06 1619.09 1246.13 1600.21 1222.39C1580.66 1197.78 1565.16 1170.61 1552.88 1141.7C1543.42 1119.36 1529.54 1099.89 1513.84 1081.82C1496.23 1061.59 1476.99 1042.88 1455.45 1026.72C1450.08 1022.7 1444.8 1018.46 1438.96 1015.29C1405.23 996.994 1370.23 981.484 1332.87 972.324C1296.78 963.474 1260.1 958.5 1222.85 961.984C1195.61 964.513 1168.42 968.082 1139.94 971.341C1139.32 972.774 1137.89 975.612 1136.88 978.562C1126.68 1008.43 1110.98 1035.37 1092.86 1061.03C1084.38 1073.03 1075.95 1085.05 1066.97 1096.63C1058.96 1106.97 1050.76 1117.22 1041.77 1126.66C988.658 1182.46 927.006 1226.75 858.528 1261.78C842.069 1270.21 826.171 1279.65 809.908 1288.45C789.432 1299.52 768.844 1310.36 748.312 1321.32C745.306 1322.92 742.329 1324.58 737.189 1327.36C786.708 1344.19 835.159 1354.9 886.026 1359C885.689 1356.02 884.958 1353.61 885.296 1351.33C885.633 1349.08 886.588 1345.85 888.189 1345.18C889.874 1344.45 893.638 1345.51 894.733 1347.06C897.851 1351.41 900.884 1356.16 902.457 1361.22C907.007 1375.8 911.417 1390.5 914.872 1405.39C922.708 1439.36 927.315 1473.89 927.23 1508.76C927.202 1527.81 924.422 1546.86 923.214 1565.94C922.821 1572.2 922.877 1578.58 923.551 1584.82C924.59 1594.37 930.966 1599.77 940.207 1603.62C941.218 1597.58 941.78 1591.98 943.156 1586.65C944.504 1581.45 946.442 1576.33 948.577 1571.42C949.701 1568.83 951.835 1566.25 955.318 1567.79C958.38 1569.14 957.481 1571.81 957.003 1574.42C955.852 1580.69 954.869 1586.98 954.026 1593.31C953.689 1595.81 953.717 1598.42 953.914 1600.95C954.644 1609.91 955.88 1611.77 964.671 1612.3C975.12 1612.95 985.653 1612.44 997.113 1612.44C996.214 1609.77 995.483 1607.55 994.697 1605.39C991.523 1596.56 992.085 1587.8 995.512 1579.23C996.86 1575.88 998.798 1572.77 1004.5 1575.07C1004.11 1587.29 1003.8 1600.16 1011.77 1612.38C1024.84 1611.82 1037.59 1608.59 1048.4 1600.1C1051.27 1597.86 1052.92 1593.08 1053.57 1589.2C1055.03 1580.41 1055.59 1571.47 1056.32 1562.59C1058.26 1539.41 1059.64 1516.18 1062.08 1493.05C1066.04 1455.54 1076.32 1419.19 1083.15 1382.21C1083.82 1378.47 1084.89 1374.71 1086.54 1371.31C1087.3 1369.73 1090.17 1367.99 1091.6 1368.3C1093.17 1368.67 1095.25 1371.31 1095.31 1373.02C1095.45 1377.1 1094.63 1381.25 1094.04 1385.33C1093.59 1388.47 1092.92 1391.57 1092.16 1395.67C1095.81 1396.4 1099.13 1397.44 1102.5 1397.69C1113.93 1398.59 1125.39 1399.26 1136.85 1399.91C1156.29 1401.01 1175.69 1402.55 1195.16 1402.92C1230.55 1403.59 1266 1405.08 1301.11 1398.76C1308.63 1397.41 1316.13 1395.98 1323.66 1394.66C1325.23 1394.38 1326.83 1394.23 1328.41 1394.23C1332.06 1394.29 1335.04 1396.17 1334.98 1399.74C1334.95 1402.16 1333.24 1405.33 1331.27 1406.71C1328.8 1408.4 1325.29 1408.71 1322.2 1409.38C1318.18 1410.28 1314.11 1410.98 1309.17 1411.94C1306.53 1419.89 1303.97 1428.04 1301.16 1436.1C1293.18 1458.97 1285.77 1482.07 1276.78 1504.55C1271.5 1517.78 1264.25 1530.37 1256.76 1542.59C1250.15 1553.35 1240.01 1559.67 1227.01 1561.19C1207.43 1563.49 1188.17 1562.96 1169.37 1556.5C1161.06 1553.63 1153.76 1549.25 1148.65 1541.83C1144.83 1536.3 1142.97 1530.42 1145.67 1523.79C1147.83 1518.48 1149.54 1512.95 1152.33 1507.97C1158.87 1496.17 1163.7 1483.78 1167.35 1470.83C1171.71 1455.49 1176.51 1440.29 1181.03 1425C1181.65 1422.92 1181.82 1420.73 1182.29 1418.03C1151.65 1413.82 1120.75 1415.81 1090.08 1407.44C1088 1416.29 1086.01 1424.83 1083.96 1433.37C1075.81 1467.26 1070.53 1501.6 1069.27 1536.44C1068.79 1549.5 1069.55 1562.59 1069.33 1575.69C1069.24 1581.73 1068.2 1587.74 1067.53 1593.75C1066.29 1605.11 1060.37 1613.23 1050.48 1618.79C1038.63 1625.45 1026.24 1630.25 1012.39 1629.92C995.512 1629.49 978.547 1629.75 961.806 1627.95C948.015 1626.49 935.488 1619.86 924.759 1611.15C911.164 1600.1 904.676 1584.54 907.822 1567.71C914.563 1531.69 913.411 1495.78 908.243 1460.04C904.283 1432.62 897.795 1405.56 892.374 1378.33C892.008 1376.51 891.194 1374.74 890.688 1373.25L890.66 1373.36ZM316.941 894.747C317.559 906.211 317.812 917.703 318.879 929.11C323.289 976.286 348.343 1008.94 390.784 1028.41C404.322 1034.62 418.759 1038.94 432.915 1043.75C439.319 1045.91 443.954 1049.11 446.762 1055.66C452.914 1070.02 458.924 1084.49 466.424 1098.14C476.367 1116.24 489.905 1131.16 507.909 1142.2C525.97 1153.27 545.772 1157.46 566.135 1158.72C607.621 1161.28 647.477 1153.13 685.395 1136.47C698.4 1130.77 711.152 1123.57 719.887 1111.55C729.437 1098.4 738.79 1085.16 748.171 1071.9C752.104 1066.34 756.654 1061.39 763.423 1059.54C789.994 1052.29 813.194 1038.47 835.636 1023.1C858.865 1007.19 878.161 987.694 892.851 963.53C905.125 943.356 911.895 921.889 910.546 898.119C908.861 868.083 905.154 838.468 895.576 809.725C887.262 784.69 882.487 758.419 868.106 735.576C864.174 729.338 866.14 725.966 874.173 724.224C893.497 720.066 903.918 706.804 910.574 689.608C914.31 679.915 915.63 669.715 913.187 659.516C909.03 642.095 897.935 630.379 880.661 626.782C861.786 622.821 844.849 629.002 832.743 644.006C826.255 652.042 821.986 662.045 817.717 671.626C814.121 679.718 814.037 680.729 805.498 680.111C792.775 679.184 780.051 678.285 767.383 676.796C744.211 674.07 721.039 671.598 697.782 675.166C652.87 682.022 610.177 694.919 572.792 722.033C566.107 726.893 558.832 727.821 551.221 724.056C544.086 720.515 537.121 716.469 529.705 713.66C520.521 710.204 511.055 707.141 501.449 705.118C489.933 702.673 478.136 701.465 466.48 699.808C443.589 696.52 420.669 696.914 397.778 699.47C390.222 700.313 388.733 700.201 386.233 693.233C383.172 684.663 378.594 677.133 372.639 670.361C365.14 661.82 355.477 659.151 344.916 661.764C337.277 663.646 330.002 667.186 322.783 670.502C320.003 671.766 317.306 674.042 315.565 676.543C307.869 687.641 303.375 700.117 305.79 713.575C308.908 730.827 315.649 746.59 330.002 757.941C332.755 760.105 335.254 762.605 337.923 764.881C343.035 769.292 344.579 774.35 342.304 781.065C339.355 789.804 337.277 798.851 334.777 807.758C326.828 836.305 316.885 864.458 316.941 894.747ZM803.673 663.562C804.403 660.162 804.993 657.746 805.414 655.301C808.532 637.038 811.846 618.775 820.413 602.085C829.289 584.777 837.575 567.047 848.079 550.751C871.083 515.067 899.985 485.368 939.645 467.779C943.83 465.925 947.734 463.508 952.313 461.064C950.347 459.322 949.42 458.451 948.437 457.636C905.884 422.599 856 404.251 802.549 394.67C785.949 391.691 768.9 391.298 752.188 388.966C725.196 385.229 698.4 386.381 672.728 395.035C648.91 403.043 625.906 413.467 602.677 423.161C599.728 424.397 597.172 427.459 595.318 430.269C584.448 446.622 576.584 464.436 571.696 483.373C562.315 519.675 558.271 556.651 557.681 594.161C557.147 628.131 560.181 661.707 564.59 695.284C565.349 701.156 565.798 707.085 566.388 713.098C639.107 664.714 717.612 646.76 803.673 663.534V663.562ZM881.391 732.401C881.7 733.553 881.757 734.564 882.234 735.295C889.481 746.59 896.222 758.11 900.266 771.063C900.884 773.086 903.3 774.94 905.35 776.036C930.348 789.354 953.015 805.903 971.16 827.651C1015.85 881.12 1046.01 942.12 1062.81 1009.75C1066.6 1025.01 1068.48 1040.46 1067.36 1056.22C1067.22 1058.19 1067.78 1060.18 1068.2 1063.87C1080.65 1047.43 1091.04 1031.86 1100.03 1015.34C1117.16 983.76 1128.37 949.818 1138.73 915.68C1142.69 902.699 1145.08 888.678 1144.97 875.192C1144.85 863.166 1146.93 851.815 1148.76 840.238C1149.35 836.473 1149.83 832.652 1149.99 828.831C1151.2 799.357 1148.53 770.276 1142.05 741.448C1139.94 732.091 1135.87 724.899 1127.78 719.981C1102.72 704.781 1078.03 688.99 1048.65 682.668C1024.3 677.442 1000.17 671.457 974.923 674.211C959.981 675.84 945.206 677.92 931.219 683.848C927.23 685.534 924.787 687.979 922.68 692.053C914.226 708.405 903.946 723.297 885.464 730.012C884.003 730.546 882.74 731.586 881.335 732.429L881.391 732.401ZM343.428 1012.87C340.563 1009.78 338.4 1007.45 336.237 1005.11C319.862 987.637 309.301 967.267 305.65 943.496C302.055 920.007 302.167 896.405 304.583 872.859C307.195 847.347 314.104 822.79 321.772 798.401C322.811 795.058 325.508 791.798 323.879 787.949C306.858 793.372 291.747 801.576 278.967 813.405C262.114 829.028 245.739 845.155 232.341 864.009C225.319 873.899 218.578 883.986 211.079 893.511C197.849 910.257 188.468 928.942 181.755 949.088C167.121 993.088 160.409 1037.74 171.559 1083.67C172.655 1088.23 173.694 1093.37 176.503 1096.85C188.047 1111.29 199.535 1125.9 212.343 1139.19C243.969 1171.93 281.888 1195.95 322.446 1216.01C333.007 1221.24 343.765 1226.13 354.466 1231.07C356.18 1231.86 358.09 1232.23 361.151 1233.12C321.913 1161.56 310.453 1089.1 343.428 1012.84V1012.87ZM556.473 714.643C557.147 714.165 557.793 713.688 558.467 713.21C558.018 708.827 557.737 704.387 557.119 700.032C555.04 684.551 552.091 669.153 550.827 653.587C546.193 596.662 548.243 540.046 561.304 484.244C564.394 470.982 569.59 458.226 574.084 444.515C565.658 440.075 556.361 435.861 547.794 430.466C537.289 423.863 525.829 419.536 513.948 418.159C493.697 415.827 473.277 414.9 452.886 414.422C439.207 414.113 425.247 414.141 411.849 416.558C368.482 424.341 327.362 438.53 290.707 463.789C288.797 465.11 287.056 466.683 285.623 467.835C295.033 472.781 304.217 477.192 312.925 482.334C319.778 486.38 326.379 490.96 332.586 495.933C342.276 503.688 352.191 511.33 360.898 520.125C393.059 552.605 417.944 590.452 438.617 630.969C447.83 649.007 454.487 668.367 462.716 688.063C494.708 691.491 527.795 695.087 556.473 714.643ZM841.732 1248.83C842.153 1249.51 842.546 1250.18 842.967 1250.85C851.984 1246.39 861.14 1242.14 870.016 1237.42C929.421 1205.84 981.805 1165.1 1027.84 1116.15C1037.19 1106.18 1045.59 1095.28 1053.99 1084.46C1056.15 1081.68 1057.39 1077.61 1057.67 1074.04C1060 1042.62 1053.65 1012.73 1043.18 983.17C1032.9 954.201 1019.86 926.497 1005.45 899.58C982.984 857.574 954.335 820.289 914.057 793.344C911.614 791.714 909.114 790.085 905.884 787.977C905.884 790.281 905.743 790.927 905.884 791.461C906.53 793.597 907.176 795.732 907.962 797.811C919.422 828.69 923.832 860.693 923.776 893.539C923.719 930.431 911.67 962.855 888.694 991.459C885.717 995.167 882.908 999.017 879.762 1003.18C888.778 1016.21 890.407 1031.1 892.205 1046.02C895.997 1077.86 897.626 1109.64 889.34 1141.05C884.312 1160.13 878.695 1179.09 873.077 1198C869.201 1210.98 862.741 1222.64 854.146 1233.15C849.933 1238.32 845.889 1243.6 841.76 1248.83H841.732ZM292.589 691.519C293.544 689.215 294.246 687.81 294.724 686.321C300.398 668.029 312.925 656.847 330.845 651.171C333.569 650.3 336.237 649.176 339.018 648.53C360.842 643.36 376.712 649.036 388.031 665.135C393.227 672.525 396.71 681.067 401.036 689.215C416.765 688.147 433.196 687.023 450.049 685.871C449.964 684.972 450.077 683.652 449.655 682.556C445.161 670.642 440.976 658.561 435.921 646.872C423.674 618.606 406.4 593.234 388.115 568.677C376.908 553.617 364.044 539.793 351.77 525.547C336.996 508.436 318.065 496.41 299.667 483.823C297.589 482.418 295.117 481.463 292.73 480.62C271.355 473.09 277.562 471.376 259.923 485.79C213.719 523.468 175.772 568.424 145.382 619.646C124.456 654.908 107.042 691.744 99.4582 732.485C98.8684 735.66 98.4752 738.863 97.7449 743.752C154.37 690.732 217.735 670.586 292.589 691.491V691.519ZM160.633 1073.36C160.914 1072.29 161.279 1071.68 161.167 1071.17C155.493 1044.2 156.729 1017.34 161.813 990.419C169.116 951.701 181.25 915.146 206.837 884.183C210.685 879.519 214.112 874.489 217.427 869.432C231.47 847.909 248.885 829.28 267.254 811.523C279.219 799.975 292.421 790.028 308.318 784.128C315.228 781.571 322.025 778.396 327.783 772.692C300.594 756.396 291.325 731.333 289.949 700.875C281.045 699.246 272.085 697.447 263.069 695.986C235.403 691.463 208.326 694.806 181.952 703.46C149.876 713.969 122.097 731.67 98.6437 756.002C96.3405 758.391 93.953 761.594 93.4194 764.713C89.0939 790.815 84.6279 817.002 85.611 843.61C87.0716 883.284 93.7845 922.198 103.391 960.664C113.53 1001.32 135.158 1036.27 157.768 1070.72C158.414 1071.7 159.51 1072.38 160.577 1073.36H160.633ZM761.71 1070.83C757.328 1079.18 754.126 1086.15 750.109 1092.64C746.093 1099.13 741.515 1105.31 736.768 1111.29C733.594 1115.31 732.442 1119.39 732.723 1124.5C733.257 1134.05 733.51 1143.63 733.173 1153.19C731.937 1187.72 725.448 1220.93 708.427 1251.56C704.411 1258.81 701.209 1266.5 697.501 1273.89C680.227 1308.23 660.482 1340.91 633.18 1368.44C632.254 1369.37 631.664 1370.63 630.905 1371.76C640.68 1366.84 649.724 1361.45 658.347 1355.46C692.221 1331.89 728.117 1311.91 765.08 1293.7C779.349 1286.68 793.112 1278.53 806.847 1270.44C811.425 1267.74 815.779 1264.17 819.205 1260.1C829.064 1248.41 838.586 1236.38 847.855 1224.22C851.871 1218.94 855.523 1213.18 858.303 1207.16C868.19 1185.61 874.482 1162.88 879.875 1139.87C884.172 1121.41 886.166 1102.72 885.099 1083.84C884.144 1066.96 882.88 1050.1 881.082 1033.3C880.24 1025.29 879.313 1016.97 874.201 1009.53C841.338 1039.84 804.487 1061.7 761.766 1070.86L761.71 1070.83ZM578.325 1424.95C579.954 1423.91 580.685 1423.71 580.965 1423.23C593.97 1399.24 610.486 1377.97 629.389 1358.33C644.219 1342.93 658.038 1326.55 668.009 1307.41C680.087 1284.23 692.165 1261.08 703.596 1237.59C707.753 1229.08 710.534 1219.78 713.034 1210.56C719.494 1187.04 721.572 1162.91 721.376 1138.58C721.376 1136.53 721.039 1134.5 720.758 1131.24C718.174 1133.13 716.573 1134.05 715.253 1135.26C704.214 1145.32 691.406 1152.29 677.362 1157.01C667.728 1160.27 657.954 1163.22 648.095 1165.72C623.35 1171.98 598.408 1177.6 572.623 1175.5C535.66 1172.49 502.348 1160.6 475.524 1133.8C474.738 1133.01 473.614 1132.54 471.592 1131.27C472.098 1135.91 472.238 1139.39 472.912 1142.76C479.906 1177.04 490.467 1210.06 509.96 1239.47C529.593 1269.09 544.957 1300.9 559.759 1333.07C571.949 1359.56 578.971 1387.04 577.426 1416.4C577.286 1419.04 577.988 1421.71 578.353 1424.92L578.325 1424.95ZM1132.94 706.972C1131.2 702.589 1129.55 698.178 1127.69 693.851C1113.99 661.848 1097.84 631.053 1079.8 601.298C1049.75 551.678 1011.27 509.391 966.834 472.303C962.846 468.959 959.559 468.51 954.813 470.561C925.04 483.401 899.367 501.665 878.274 526.447C854.455 554.46 837.041 586.21 822.969 619.899C820.188 626.53 818.728 633.694 816.649 640.606C834.373 616.92 857.011 604.838 885.942 612.818C915.406 620.938 929.084 642.517 928.214 673.143C1002.45 649.204 1069.19 666.259 1132.97 706.916L1132.94 706.972ZM349.776 1020.79C348.343 1023.8 347.164 1026.02 346.18 1028.35C332.305 1061.73 330.62 1096.57 335.058 1131.81C339.748 1168.98 353.483 1203.28 370.532 1236.36C371.909 1239.02 374.212 1241.61 376.712 1243.24C395.222 1255.15 413.394 1267.66 432.606 1278.33C458.363 1292.69 481.872 1310.06 505.578 1327.39C530.885 1345.88 549.985 1369.28 565.321 1396.2C566.697 1398.59 568.214 1400.89 570.826 1405.16C570.826 1401.71 570.91 1400.56 570.826 1399.4C569.084 1380.83 564.422 1363.05 556.838 1345.99C540.828 1310.14 523.217 1275.24 501.449 1242.37C476.957 1205.34 462.66 1164.34 460.273 1119.61C460.132 1116.89 459.065 1114.08 457.885 1111.58C452.324 1099.77 445.948 1088.28 441.117 1076.2C437.999 1068.39 432.859 1063.64 425.781 1060.21C423.197 1058.98 420.557 1057.82 417.888 1056.81C393.986 1047.71 371.487 1035.96 349.776 1020.82V1020.79ZM706.545 1574.56C702.108 1558.44 706.714 1544.67 713.511 1531.35C715.421 1527.61 717.893 1523.99 723.595 1527.28C723.145 1529.47 722.78 1531.57 722.303 1533.65C720.73 1540.48 718.792 1547.23 717.584 1554.11C716.348 1561.08 716.404 1568.16 719.55 1574.73C720.449 1576.59 722.106 1579.14 723.735 1579.42C733.847 1581.22 744.042 1582.46 755.278 1584.03C753.592 1580.18 752.413 1577.94 751.598 1575.55C747.891 1564.79 748.958 1554.11 753.199 1543.83C755.811 1537.45 758.339 1536.83 765.193 1539.78C764.715 1542.11 764.041 1544.56 763.788 1547.03C762.665 1558.13 761.316 1569.2 767.215 1579.68C769.49 1583.72 771.905 1586.25 776.849 1585.49C788.168 1583.75 799.656 1582.8 810.779 1580.27C824.177 1577.23 829.289 1570.6 830.019 1556.67C830.384 1549.39 829.879 1542 829.092 1534.72C826.368 1508.73 823.474 1482.8 823.98 1456.53C824.598 1425.37 824.317 1394.21 824.43 1362.34C790.612 1357.99 756.822 1350.71 725.308 1333.07C713.567 1340.12 701.658 1347.31 689.805 1354.45C691.322 1364.06 693.12 1372.77 693.99 1381.56C696.097 1402.8 696.996 1424.21 699.832 1445.34C703.484 1472.49 701.04 1498.53 691.743 1524.35C688.373 1533.74 687.474 1544.28 687.053 1554.33C686.575 1565.85 693.344 1572.32 706.517 1574.51L706.545 1574.56ZM1198.7 1553.66C1202.66 1531.55 1205.41 1526.57 1214.68 1524.61C1209.65 1533.43 1205.8 1542.34 1207.63 1553.1C1213.87 1553.1 1219.54 1553.41 1225.18 1553.04C1236.19 1552.34 1244.93 1546.86 1250.07 1537.45C1257.71 1523.48 1265.21 1509.29 1271.02 1494.51C1278.49 1475.55 1284.34 1455.96 1290.74 1436.58C1292.93 1429.97 1294.67 1423.23 1297 1415.25C1261.45 1421.07 1226.48 1419.47 1192.01 1419.24C1191.28 1420.53 1190.83 1421.07 1190.72 1421.63C1183.9 1454.81 1176 1487.63 1158.2 1517.1C1157.38 1518.45 1156.76 1519.97 1156.17 1521.43C1151.54 1532.84 1154.74 1539.39 1167.49 1543.74C1169.77 1534.67 1172.46 1525.67 1182.74 1522.78C1180.05 1528.88 1176.79 1534.41 1175.19 1540.37C1173.7 1545.88 1175.75 1549.39 1181.26 1550.12C1186.9 1550.85 1192.43 1552.37 1198.64 1553.66H1198.7Z" fill="black"/>
<path d="M1733.94 1336.19C1732.17 1337.08 1730.43 1338.69 1728.66 1338.74C1725.2 1338.83 1721.69 1338.29 1718.29 1337.56C1658.91 1324.92 1612.15 1292.02 1574.23 1245.96C1563.36 1232.79 1555.5 1217.14 1546.23 1202.64C1545.1 1200.87 1543.9 1199.15 1541.45 1197.86C1541.54 1199.91 1541.54 1201.96 1541.73 1204.02C1543.5 1222.19 1543.11 1240.32 1541.42 1258.5C1540.13 1272.46 1539.94 1286.51 1538.45 1300.45C1535.61 1327.39 1532.58 1354.34 1528.87 1381.2C1526.9 1395.36 1523.5 1409.35 1520.5 1423.37C1517.02 1439.56 1513.11 1455.66 1509.6 1471.87C1502.19 1506.03 1489.69 1538.4 1475.31 1570.12C1470.59 1580.55 1463.09 1587.91 1452.13 1591.51C1443.65 1594.29 1435.2 1597.18 1426.63 1599.57C1417.05 1602.24 1407.31 1603.03 1397.28 1601.68C1384.33 1599.94 1371.21 1599.51 1358.32 1597.49C1331.83 1593.36 1319.22 1569 1334.14 1546.97C1355.12 1516.07 1362.51 1481.14 1369.95 1445.88C1370.99 1440.9 1371.94 1435.9 1373.04 1430.34C1367.84 1425.7 1362.84 1420.84 1357.42 1416.49C1333.77 1397.47 1319 1372.32 1308.69 1344.47C1301.02 1323.77 1296.19 1302.24 1297.4 1279.85C1297.59 1276.06 1298.3 1272.26 1299.25 1268.58C1299.53 1267.49 1301.36 1266.42 1302.65 1266.14C1303.38 1266 1305.01 1267.37 1305.26 1268.33C1306.08 1271.39 1306.61 1274.54 1306.92 1277.69C1310.18 1308.82 1318.38 1338.38 1333.91 1365.74C1342.2 1380.33 1352.42 1393.19 1365.4 1403.87C1370.82 1408.34 1375.96 1413.12 1381.24 1417.72C1384.3 1420.39 1386.35 1423.4 1385.48 1427.73C1380.17 1453.63 1375.26 1479.62 1369.47 1505.44C1366.16 1520.22 1358.97 1533.46 1350.29 1545.82C1348.1 1548.94 1345.88 1552.11 1344.19 1555.54C1338.71 1566.64 1341.92 1576.05 1353.49 1580.41C1359.84 1582.8 1366.92 1583.27 1374.11 1584.71C1375.09 1572.09 1375.26 1560.43 1388.18 1555.06C1384.83 1561.61 1382.11 1568.19 1382.78 1575.72C1383.51 1583.58 1384.02 1584.51 1391.63 1585.35C1398.85 1586.14 1406.13 1586.34 1413.91 1586.84C1415.09 1571.61 1415.17 1556.61 1432.86 1551.66C1427.22 1561.39 1422.95 1571.16 1425.87 1583.89C1434.72 1580.91 1443.45 1578.89 1451.32 1575.01C1455.81 1572.82 1460.05 1568.27 1462.33 1563.72C1481.48 1525.28 1495.44 1485.05 1502.92 1442.62C1504.52 1433.57 1507.69 1424.8 1509.83 1415.81C1511.23 1409.94 1512.24 1403.98 1513.11 1398.03C1517.72 1365.86 1523.48 1333.77 1526.37 1301.43C1529.18 1270.04 1532.83 1238.57 1530.75 1206.94C1530.02 1195.78 1529.23 1184.66 1528.5 1173.5C1528.39 1171.59 1527.8 1169.48 1528.39 1167.83C1529.15 1165.69 1530.61 1162.63 1532.27 1162.26C1533.92 1161.9 1537.49 1163.92 1538.05 1165.61C1545.41 1188.22 1562.12 1205.34 1573.25 1225.71C1575.07 1229.05 1577.26 1232.25 1579.71 1235.2C1614.11 1276.79 1654.28 1310.22 1707.2 1325.76C1716.02 1328.35 1724.7 1331.44 1733.43 1334.3C1733.6 1334.95 1733.77 1335.6 1733.94 1336.27V1336.19Z" fill="black"/>
<path d="M477.041 960.607C476.198 953.752 479.794 949.34 485.804 946.502C488.108 945.407 490.467 944.451 492.882 943.637C519.144 934.814 546.165 931.105 573.803 932.201C592.594 932.931 611.412 933.802 629.304 940.658C637.478 943.805 644.781 948.076 650.791 954.538C660.229 964.653 662.139 973.336 650.679 986.485C647.084 990.615 641.691 993.847 636.495 995.813C626.383 999.578 615.935 1002.61 605.458 1005.11C592.594 1008.18 580.488 1012.5 569.786 1020.54C563.691 1025.15 560.742 1025.54 556.248 1020.85C540.463 1004.33 519.453 997.303 499.511 988.255C494.09 985.783 488.81 982.58 484.203 978.786C478.81 974.347 476.255 968.109 477.041 960.635V960.607Z" fill="black"/>
<path d="M520.24 1071.31C510.409 1069.01 500.803 1065.02 493.837 1056.42C490.72 1052.57 488.416 1048.33 489.709 1043.27C490.214 1041.36 491.815 1038.97 493.472 1038.38C494.596 1037.99 497.208 1039.98 498.303 1041.53C508.696 1056.11 524.734 1061 541.165 1054.4C542.345 1053.92 543.525 1053.44 544.676 1052.85C556.389 1046.73 568.242 1046.44 580.741 1050.69C599.419 1057.04 618.603 1057.96 638.32 1056.03C655.257 1054.37 666.773 1046.11 675.508 1032.51C677.053 1030.09 678.486 1027.59 679.862 1025.09C681.323 1022.42 683.036 1020.03 686.547 1021.13C690.002 1022.2 690.226 1025.32 689.974 1028.21C689.637 1031.97 689.721 1036.13 688.176 1039.39C679.357 1057.77 671.014 1076.45 660.791 1094.04C647.252 1117.28 626.187 1129.61 599.222 1132.56C586.414 1133.97 573.859 1134.22 561.164 1132.11C543.159 1129.16 532.009 1118.4 526.868 1101.52C524.004 1092.16 522.627 1082.33 520.268 1071.34L520.24 1071.31ZM533.02 1071.4C534.424 1080.44 535.604 1089.24 537.205 1097.98C539.564 1110.73 547.064 1118.07 559.984 1120.48C564.984 1121.41 570.039 1122.08 575.095 1122.67C600.009 1125.54 622.114 1119.53 638.77 1100.08C646.157 1091.49 651.522 1081.15 657.645 1071.51C658.656 1069.91 658.909 1067.8 659.779 1065.13C629.164 1073.17 600.093 1071.93 571.387 1061.73C565.826 1059.76 560.124 1060.21 554.591 1062.57C547.878 1065.44 541.081 1068.14 532.992 1071.42L533.02 1071.4Z" fill="black"/>
<path d="M706.517 908.374C707.837 894.944 711.798 883.311 719.831 872.719C727.33 862.857 744.183 867.296 747.806 876.456C754.856 894.157 755.755 911.746 746.177 928.885C742.694 935.123 738.453 940.967 730.167 940.49C721.46 939.984 714.944 935.46 711.742 927.481C709.298 921.412 708.203 914.781 706.517 908.402V908.374ZM727.948 889.718C732.246 887.919 735.167 886.683 737.835 885.559C737.779 880.811 735.813 877.945 732.274 878.563C727.527 879.378 727.808 883.649 727.948 889.718Z" fill="black"/>
<path d="M406.4 895.646C406.063 886.29 407.608 877.579 412.271 869.628C419.602 857.153 434.348 857.04 441.257 869.684C450.189 886.065 450.695 903.373 444.459 920.625C439.937 933.128 423.113 934.336 414.096 923.322C407.412 915.146 405.923 905.536 406.4 895.674V895.646ZM434.6 881.963C432.606 877.692 431.118 874.461 428.562 869.01C426.399 872.887 424.292 874.882 424.517 876.596C425.051 881.035 428.421 882.525 434.6 881.963Z" fill="black"/>
<path d="M390.503 834.815C400.053 821.244 412.608 811.972 428.253 807.392C431.483 806.437 435.246 806.212 438.477 806.943C440.246 807.336 442.24 810.314 442.521 812.366C442.718 813.855 440.443 815.85 439.038 817.367C438.505 817.929 437.269 817.901 436.314 818.013C420.585 819.952 406.485 826.161 393.031 834.141C392.3 834.563 391.345 834.591 390.503 834.787V834.815Z" fill="black"/>
<path d="M756.626 823.604C751.682 823.604 748.059 823.604 744.436 823.604C733.987 823.689 723.51 823.801 713.062 823.857C710.534 823.857 707.781 824.195 705.562 823.323C703.849 822.649 701.686 820.289 701.686 818.687C701.686 816.608 703.147 813.77 704.888 812.618C706.798 811.354 709.747 811.185 712.191 811.326C726.544 812.085 740.335 815.541 753.733 820.57C754.435 820.823 754.912 821.75 756.598 823.576L756.626 823.604Z" fill="black"/>
<path d="M727.948 889.718C727.808 883.649 727.555 879.378 732.274 878.563C735.813 877.945 737.779 880.811 737.835 885.559C735.167 886.683 732.246 887.919 727.948 889.718Z" fill="white"/>
<path d="M434.6 881.963C428.421 882.525 425.051 881.036 424.517 876.596C424.32 874.882 426.399 872.887 428.562 869.01C431.089 874.461 432.606 877.692 434.6 881.963Z" fill="white"/>
</g>
<defs>
<clipPath id="clip0_157_96">
<rect width="1863" height="1260" fill="white" transform="translate(68 370)"/>
</clipPath>
</defs>
</svg>
