<svg width="2000" height="2000" viewBox="0 0 2000 2000" fill="none" xmlns="http://www.w3.org/2000/svg">
<g clip-path="url(#clip0_157_95)">
<path d="M1092.16 1767.59C1091.73 1768.88 1090.91 1770.32 1090.72 1771.8C1086.94 1799.24 1077.42 1808.75 1049.96 1810.71C1028.1 1812.29 1009.11 1805.65 995.333 1787.72C990.071 1780.88 985.527 1773.52 980.217 1765.78C964.526 1769.36 948.739 1772.85 933.001 1776.53C897.266 1784.9 860.957 1786.43 824.505 1785.38C808.048 1784.9 794.032 1779.26 782.312 1767.16C768.439 1752.92 761.98 1737.67 773.94 1716.78C765.186 1715.15 757.484 1712.71 749.734 1712.43C694.768 1710.13 651.379 1684.13 614.401 1645.88C551.494 1580.82 518.869 1501.61 509.732 1412.65C504.613 1362.98 502.125 1313.07 499.781 1263.16C497.007 1202.69 484.617 1144.89 456.679 1090.83C454.67 1086.95 452.613 1083.08 451.226 1079.02C441.276 1050.48 420.179 1032.6 394.395 1019.07C389.85 1016.68 385.353 1014.2 381.048 1011.85C387.267 996.795 397.743 993.784 411.186 992.493C461.798 987.665 512.411 987.665 562.21 997.178C589.19 1002.29 615.118 1013.05 641.381 1021.61C690.511 1037.57 734.235 1063.05 775.088 1094.56C810.632 1121.95 835.746 1156.27 852.346 1197.43C857.13 1209.24 861.722 1221.14 866.363 1233C867.559 1232.9 868.802 1232.81 869.998 1232.66C880.044 1183.04 890.09 1133.42 900.28 1082.89C896.405 1081.46 893.104 1079.35 889.612 1079.02C824.313 1073.09 763.703 1051.15 704.527 1024.62C669.366 1008.84 634.11 993.306 599.571 976.335C576.274 964.862 554.412 950.568 535.612 932.498C538.147 916.675 577.757 846.116 615.071 790.997C645.208 746.539 674.629 701.46 714.286 663.312C707.924 655.472 702.47 648.827 697.065 642.087C681.804 622.965 672.667 601.883 671.041 576.786C668.553 538.59 670.515 501.064 677.882 463.394C686.875 417.597 693.046 371.275 701.753 325.43C705.197 307.503 710.938 289.72 718.113 272.893C725.098 256.592 736.292 253.437 753.035 260.081C779.633 270.694 802.164 287.808 823.548 306.356C875.165 351.053 919.176 402.634 960.077 457.036C965.243 463.919 969.453 471.52 974.859 479.982C1036.43 467.314 1098.66 459.187 1162.72 457.37C1169.89 437.245 1176.16 417.645 1183.86 398.666C1191.99 378.636 1200.18 358.367 1210.8 339.628C1236.77 293.831 1265.23 249.517 1295.9 206.636C1312.12 183.977 1324.51 184.407 1337.42 208.787C1379.28 287.76 1409.18 371.561 1436.88 456.223C1439.08 462.868 1440.18 469.943 1441.47 476.874C1446.35 503.693 1439.27 527.356 1422.24 548.342C1419.56 551.688 1416.93 555.083 1414.44 558.285C1415.21 559.72 1415.49 560.962 1416.26 561.632C1464 603.078 1498.3 655.52 1534.42 706.383C1559.58 741.807 1584.22 777.564 1616.03 807.729C1619.19 810.693 1620.62 817.816 1619.62 822.261C1617.99 829.48 1614.36 836.555 1610.34 842.865C1584.98 882.782 1558.53 921.647 1524.13 954.871C1490.93 986.948 1453.05 1011.81 1413.68 1035.04C1408.13 1038.34 1402.34 1041.3 1396.84 1044.31C1428.07 1144.22 1437.12 1246.81 1446.16 1350.74C1453.48 1349.59 1460.7 1348.3 1468.02 1347.3C1491.89 1343.95 1511.98 1351.03 1528.15 1369C1549.15 1392.33 1558 1420.58 1559.15 1451.13C1560.54 1488.56 1552.02 1524.56 1538.15 1559.02C1526.81 1587.18 1513.42 1614.52 1500.93 1642.25C1499.64 1645.12 1498.54 1648.03 1496.87 1652C1507.63 1654.63 1517.63 1656.5 1527.24 1659.6C1539.25 1663.43 1548 1671.32 1551.74 1683.74C1557.28 1702.15 1550.68 1717.3 1531.17 1726C1515.86 1732.84 1499.59 1737.52 1483.61 1742.74C1477.97 1744.55 1471.99 1745.84 1466.06 1746.18C1458.21 1746.61 1453.81 1750.86 1448.6 1756.12C1441.95 1762.86 1433.91 1769.94 1425.16 1772.52C1401.38 1779.5 1377.32 1778.64 1357.42 1761.76C1349.52 1755.07 1342.54 1754.69 1333.83 1756.84C1315.94 1761.28 1298.19 1766.64 1280.06 1769.74C1217.92 1780.41 1155.83 1779.74 1093.93 1767.16C1093.45 1767.07 1092.87 1767.45 1092.06 1767.74L1092.16 1767.59ZM1269.4 823.026C1279.49 825.417 1287.81 828.428 1296.38 829.241C1322.4 831.727 1343.5 844.729 1364.02 859.31C1374.54 866.767 1382.44 876.233 1385.31 889.092C1391.72 917.966 1376.17 953.437 1349.38 966.153C1336.9 972.08 1328.28 980.59 1320.1 990.82C1278.25 1043.12 1218.74 1049.28 1160.8 1018.07C1155.11 1015.01 1151.14 1008.27 1147.41 1002.58C1146.31 1000.91 1147.94 996.365 1149.71 994.31C1150.71 993.114 1155.4 993.353 1156.88 994.644C1169.22 1005.73 1185.68 1006.88 1200.03 1012.91C1218.31 1020.55 1237.06 1021.03 1256 1016.35C1280.93 1010.18 1301.78 997.99 1315.46 976.383C1302.4 971.985 1289.97 968.352 1278.06 963.476C1271.17 960.655 1266.14 960.464 1260.4 965.77C1242.51 982.358 1220.7 989.529 1196.78 991.68C1170.32 994.07 1149.13 983.936 1131.67 964.862C1129.66 962.663 1129.09 959.173 1126.89 953.963C1134.3 958.217 1138.89 961.038 1143.68 963.571C1163.48 974.04 1184.29 978.152 1206.68 974.136C1222.08 971.363 1236.01 965.388 1247.58 955.253C1258.63 945.645 1269.25 944.354 1281.6 952.098C1285.66 954.632 1290.45 956.257 1295.09 957.691C1315.27 964.001 1333.93 961.42 1349.62 946.505C1364.93 931.877 1369.52 913.233 1366.79 892.869C1366.22 888.471 1363.16 883.355 1359.67 880.583C1343.83 868.201 1327.62 856.394 1307.71 850.896C1297.24 848.028 1288.34 848.984 1282.03 858.641C1273.51 871.787 1264.47 884.646 1257.1 898.414C1250.88 910.03 1248.87 911.464 1237.97 903.864C1233.52 900.756 1229.36 897.219 1225.29 893.681C1210.99 881.252 1196.78 868.775 1182.52 856.298C1157.74 860.935 1138.08 877.523 1111.24 885.315C1124.07 861.222 1144.64 853 1163.01 842.626C1163.01 830.293 1164.2 818.294 1162.77 806.582C1159.03 775.604 1148.03 746.491 1135.55 718.239C1125.69 696.01 1115.93 673.064 1101.82 653.512C1063.6 600.592 1010.45 571.336 945.582 563.831C919.893 560.867 893.917 561.106 870.668 573.439C823.213 598.537 781.403 631.474 745.094 670.865C710.076 708.821 678.838 749.885 649.849 792.623C624.255 830.34 598.136 867.771 572.16 905.202C567.233 912.277 561.779 918.97 555.608 927.144C575.126 938.665 593.113 950.903 612.439 960.368C645.065 976.383 678.599 990.39 711.559 1005.69C783.508 1039.1 858.756 1061.09 937.258 1071.99C966.152 1076.01 995.047 1079.98 1025.33 1084.18C1026.14 1101.01 1011.26 1110.86 1005.43 1124.77C999.4 1139.11 991.698 1152.73 988.301 1170.85C993.659 1166.84 996.96 1164.4 1000.21 1161.91C1004.47 1158.66 1009.16 1153.26 1014.23 1157.85C1016.53 1159.95 1015.81 1166.69 1014.8 1170.95C1006.38 1207.04 1003.51 1243.8 1002.13 1280.71C1001.98 1284 1003.08 1287.35 1003.94 1292.7C1016.96 1275.59 1023.37 1256.28 1042.26 1244.9C1053.46 1298.06 1068.86 1348.25 1093.5 1398.16C1095.75 1384.06 1097.18 1373.02 1099.48 1362.12C1100 1359.58 1103.11 1356.05 1105.36 1355.76C1107.75 1355.47 1111.15 1358.05 1112.97 1360.35C1115.6 1363.69 1117.46 1367.76 1119.23 1371.73C1129.9 1395.48 1140.43 1419.29 1151.09 1443.05C1160.33 1463.61 1169.75 1484.11 1180.8 1508.54C1196.25 1475.32 1210.17 1445.54 1223.9 1415.66C1235 1391.56 1245.57 1367.23 1256.82 1343.23C1260.45 1335.49 1267.29 1335.54 1271.36 1343.47C1275.57 1351.65 1278.25 1360.54 1281.74 1369.1C1282.98 1372.06 1284.75 1374.83 1286.28 1377.65C1293.55 1336.06 1297.96 1295.14 1302.69 1254.27C1303.22 1249.87 1304.61 1243.27 1307.57 1241.89C1313.98 1238.88 1316.47 1245.95 1319.43 1250.21C1323.93 1256.71 1328.14 1263.35 1334.26 1272.63C1353.4 1200.44 1357.9 1130.74 1349.09 1058.32C1367.42 1045.6 1385.79 1032.22 1404.83 1019.79C1447.64 991.728 1489.79 963.045 1521.45 921.79C1545.56 890.43 1569.96 859.31 1594.36 827.95C1592.54 825.273 1591.58 823.361 1590.2 821.831C1560.87 789.611 1535.95 754.092 1510.88 718.526C1478.11 671.964 1446.83 624.208 1404.54 584.96C1383.68 565.599 1361.25 548.916 1336.8 534.479C1326.9 528.599 1318.62 528.886 1309.87 535.387C1306.38 537.969 1302.93 540.598 1299.63 543.466C1273.8 565.791 1260.36 595.477 1253.18 627.602C1238.4 694.002 1244.28 759.064 1269.54 823.026H1269.4ZM966.774 1213.97C966.344 1209.76 965.483 1207.57 966.009 1205.75C977.203 1165.16 986.436 1123.76 1014.61 1088.05C980.647 1086.76 949.601 1085.62 919.558 1084.47C912.383 1124.62 906.451 1163.73 898.318 1202.4C870.429 1335.35 853.112 1469.25 857.513 1605.49C839.956 1531.97 850.433 1457.25 848.902 1383.06C827.805 1379.71 803.312 1390.89 791.257 1411.26C771.883 1443.96 764.277 1479.57 768.726 1517.53C775.566 1575.52 805.991 1624.61 828.762 1676.62C829.384 1678.1 830.676 1679.25 831.585 1680.59C840.961 1694.31 840.339 1695.55 826.562 1704.3C816.085 1710.95 806.183 1718.59 796.472 1726.34C793.314 1728.82 791.496 1732.94 789.2 1736.19C799.007 1751.39 811.301 1759.9 828.714 1759.85C838.999 1759.85 849.332 1760.28 859.618 1760.14C891.286 1759.75 922.237 1753.63 953.141 1747.52C959.359 1746.27 965.578 1744.93 971.797 1743.6C971.797 1740.54 971.989 1738.96 971.797 1737.38C966.392 1694.36 959.742 1651.43 955.915 1608.21C953.619 1581.87 955.437 1555.15 955.915 1528.62C956.059 1521.54 957.637 1514.33 964.526 1508.06C964.526 1516.33 964.478 1522.84 964.526 1529.34C965.243 1592.44 972.276 1654.97 982.513 1717.16C985.909 1737.76 991.794 1757.51 1005.14 1774C1018.58 1790.54 1035.66 1797.9 1057.14 1791.97C1069.29 1788.63 1074.07 1783.94 1073.69 1771.42C1073.31 1759.04 1072.45 1746.27 1068.96 1734.51C1045.9 1656.74 1044.51 1577.19 1047.96 1497.16C1048.19 1491.09 1048.29 1484.5 1056.23 1477.8C1057.57 1487.51 1058.91 1494.73 1059.48 1502.04C1060.92 1520.97 1061.83 1539.95 1063.17 1558.93C1067.43 1617.97 1072.35 1676.86 1086.42 1734.66C1088.57 1743.4 1092.78 1747.95 1100.77 1749.91C1105.5 1751.05 1110.29 1752.39 1115.12 1752.82C1163.91 1757.08 1212.66 1759.56 1261.46 1752.73C1287.77 1749.05 1313.74 1744.03 1338.67 1734.66C1338.04 1721.51 1337.37 1709.13 1336.94 1696.75C1336.51 1684.27 1336.32 1671.79 1335.99 1659.32C1335.6 1646.84 1335.13 1634.36 1334.74 1621.89C1334.36 1609.93 1334.07 1597.98 1333.59 1586.08C1333.12 1573.6 1332.4 1561.13 1331.78 1548.65C1331.16 1536.17 1330.44 1523.7 1329.91 1511.27C1329.43 1499.51 1323.07 1487.99 1328.62 1475.56C1332.93 1479.62 1336.23 1483.87 1337.42 1488.7C1341.2 1503.95 1345.46 1519.2 1347.18 1534.74C1353.4 1591.43 1355.17 1648.42 1355.36 1705.45C1355.36 1715.68 1357.04 1726 1359 1736.04C1361.15 1747.13 1368.8 1755.16 1379.38 1757.17C1391.38 1759.42 1404.16 1759.75 1416.35 1758.46C1423.91 1757.65 1430.94 1753.49 1433 1743.31C1440.61 1705.4 1445.44 1667.2 1443.33 1628.53C1440.18 1570.54 1436.16 1512.6 1432 1454.67C1426.88 1383.72 1422.05 1312.78 1415.49 1241.98C1409.9 1181.99 1399.85 1122.52 1385.59 1063.91C1384.73 1060.38 1383.01 1057.08 1381.34 1052.82C1374.83 1055.69 1369.09 1058.27 1363.88 1060.57C1363.88 1076.53 1363.59 1091.16 1363.92 1105.79C1364.83 1143.79 1365.98 1181.65 1357.13 1219.18C1351.77 1241.84 1348.71 1265.07 1344.26 1287.97C1343.5 1291.84 1340.96 1295.38 1339.24 1299.06C1335.41 1296.67 1330.77 1295 1327.85 1291.75C1322.31 1285.53 1320.15 1276.59 1310.78 1270.38C1308.58 1290.51 1306.81 1308.81 1304.51 1327.08C1301.5 1350.74 1298.29 1374.4 1294.51 1397.97C1293.99 1401.41 1289.78 1404.23 1287.24 1407.39C1284.51 1405.05 1281.21 1403.13 1279.3 1400.31C1277.24 1397.25 1276.43 1393.33 1275.14 1389.75C1271.64 1379.8 1268.2 1369.86 1263.46 1356.24C1235.24 1412.36 1222.37 1472.02 1183.38 1518.72C1172.05 1512.75 1167.02 1502.81 1162.38 1493.24C1146.6 1460.5 1131.48 1427.47 1116.08 1394.53C1113.92 1389.94 1111.53 1385.49 1109.24 1380.95C1106.65 1392.42 1106.8 1402.99 1106.6 1413.55C1106.51 1420.2 1111.87 1429.71 1103.49 1432.63C1093.98 1436.02 1091.68 1425.08 1088.33 1418.96C1071.16 1387.41 1056.61 1354.71 1046.95 1320.05C1042.45 1303.94 1038.15 1287.73 1032.93 1268.66C1027 1278.6 1022.94 1286.78 1017.58 1294C1012.6 1300.78 1011.5 1311.68 999.256 1312.93C986.005 1270.14 997.534 1227.83 999.304 1184.33C986.101 1192.08 983.087 1209.62 966.535 1214.02L966.774 1213.97ZM1186.35 455.984C1188.98 457.466 1192.62 458.804 1195.25 461.242C1202.33 467.648 1200.32 477.305 1191.33 480.699C1188.89 481.607 1186.02 481.655 1183.34 481.798C1159.99 483.089 1136.6 483.376 1113.4 485.718C1075.03 489.59 1036.81 494.562 998.586 499.534C992.415 500.346 986.005 502.737 980.743 506.083C969.549 513.206 964.382 513.158 955.915 503.167C953.141 499.868 950.844 496.14 948.5 492.459C910.661 433.181 867.463 378.111 816.516 329.541C799.342 313.144 779.441 299.568 760.306 285.37C754.566 281.115 747.103 279.155 738.301 275.14C734.187 288.621 729.307 299.663 727.537 311.184C720.122 359.993 714.573 409.136 706.536 457.848C700.413 495.04 697.973 531.897 700.461 569.663C702.327 598.345 716.2 619.284 732.895 640.939C737.87 636.78 741.984 633.291 746.146 629.896C775.471 605.755 803.217 579.272 837.708 562.349C850.768 555.943 856.125 546.286 856.843 532.949C857.178 526.495 856.508 519.946 856.317 513.445C855.838 496.618 855.264 479.838 855.073 463.011C855.073 459.713 856.508 456.366 857.321 453.068C876.887 481.99 878.083 513.78 874.926 547.577C903.868 537.538 931.901 539.068 959.933 544.087C1035.52 557.521 1094.12 597.007 1132.39 663.12C1150.76 694.815 1163.44 729.903 1177.74 763.892C1185.58 782.536 1188.79 802.423 1188.17 822.835C1188.07 826.42 1189.03 830.006 1189.7 835.121C1212.8 831.153 1234.95 827.376 1255.81 823.791C1249.74 803.857 1243.23 784.974 1238.21 765.661C1228.21 727.37 1226.25 688.027 1231.37 649.209C1238.3 596.481 1260.12 550.589 1304.99 519.468C1280.83 483.902 1275.76 444.893 1278.96 403.112C1280.88 404.355 1282.22 404.738 1282.41 405.455C1283.46 409.088 1284.03 412.817 1285.18 416.402C1292.88 441.212 1300.49 466.071 1308.48 490.786C1311.3 499.534 1317.66 504.553 1326.47 507.995C1341.11 513.684 1355.31 520.568 1369.33 527.691C1378.9 532.567 1387.84 538.686 1397.17 544.327C1413.44 519.946 1420.09 495.327 1410.37 466.836C1383.44 387.719 1356.65 308.555 1321.4 232.546C1319.72 228.913 1317.52 225.471 1314.6 220.069C1263.18 295.409 1213 368.645 1186.35 455.888V455.984ZM530.015 1353.32C530.78 1364.32 531.259 1371.73 531.785 1379.09C536.425 1443.72 551.303 1505.48 582.78 1562.7C610.478 1613.04 648.318 1653.15 701.466 1676.86C713.186 1682.07 726.198 1684.8 738.875 1687.28C753.752 1690.2 769.204 1690.44 783.842 1694.02C796.28 1697.08 805.848 1694.69 815.75 1685.18C809.531 1673.04 803.934 1660.08 796.711 1648.18C777.145 1615.96 762.985 1581.78 752.939 1545.3C739.114 1495.16 747.773 1448.59 770.304 1403.52C781.69 1380.76 801.064 1367.38 825.509 1361.54C833.785 1359.58 842.444 1359.15 852.49 1357.77C854.068 1341.9 857.561 1325.74 856.843 1309.72C855.743 1283.53 848.232 1258.43 836.942 1234.72C834.981 1230.65 831.585 1226.35 827.71 1224.25C820.343 1220.28 812.162 1217.8 802.786 1214.07C803.312 1219.56 803.217 1223.39 804.173 1226.93C808.383 1242.61 813.119 1258.19 817.281 1273.92C818.86 1279.85 822.256 1286.2 815.607 1293.13C801.351 1285.73 787.191 1278.12 772.792 1271C758.01 1263.69 745.955 1251.11 728.446 1246.38C726.963 1259.24 732.369 1269.04 734.809 1279.37C736.674 1287.26 739.497 1295.05 740.166 1303.03C740.884 1311.4 735.191 1314.74 727.346 1311.35C723.902 1309.87 720.792 1307.52 717.731 1305.23C702.901 1294.23 688.215 1283.05 673.337 1272.15C668.792 1268.8 663.817 1266.03 656.594 1261.44C656.594 1270.57 656.355 1276.36 656.594 1282.09C657.694 1306.47 658.986 1330.9 660.086 1355.28C660.325 1360.16 660.564 1365.13 659.751 1369.86C658.364 1377.65 653.389 1380.14 646.883 1375.79C641.573 1372.2 636.693 1367.57 632.771 1362.5C621.098 1347.54 610 1332.1 598.566 1316.89C595.84 1313.26 592.682 1309.96 588.09 1304.61C585.22 1315.27 583.067 1323.06 580.962 1330.9C575.413 1351.89 570.055 1372.87 564.267 1393.76C563.262 1397.49 560.583 1400.74 557.761 1405.91C541.161 1391.8 541.209 1371.44 529.871 1353.27L530.015 1353.32ZM820.247 1204.6C820.773 1202.5 821.491 1201.3 821.156 1200.59C819.482 1196.62 817.616 1192.7 815.655 1188.78C786.617 1130.55 736.531 1094.75 681.422 1065.06C646.452 1046.27 608.086 1035.28 570.486 1022.8C564.889 1020.94 558.909 1019.5 553.025 1019.17C511.262 1016.92 469.5 1015.01 427.738 1013.1C425.633 1013 423.432 1014.1 418.457 1015.34C442.615 1029.11 457.11 1047.8 468.113 1069.46C475.001 1082.99 482.321 1096.37 488.348 1110.33C506.814 1152.92 520.112 1196.9 522.456 1243.66C523.892 1272.58 528.867 1300.74 538.865 1327.98C543.17 1339.7 546.662 1351.7 550.633 1363.5C552.116 1367.9 553.886 1372.16 556.995 1380.23C561.301 1364.46 564.506 1352.51 567.807 1340.56C571.012 1329.08 573.547 1317.32 577.709 1306.19C583.498 1290.79 591.247 1289.79 602.585 1301.98C605.168 1304.75 607.417 1307.86 609.713 1310.87C619.519 1323.87 629.183 1336.97 639.085 1349.93C641.142 1352.6 644.012 1354.61 648.892 1359.1C648.892 1351.07 648.892 1346.39 648.892 1341.66C648.988 1321 649.179 1300.4 649.083 1279.75C648.988 1253.7 650.71 1246.57 678.025 1263.4C694.529 1273.58 710.507 1284.67 729.116 1296.91C725.863 1282.24 722.849 1269.85 720.409 1257.38C716.774 1238.54 724.523 1231.85 742.558 1238.26C747.629 1240.07 752.317 1242.94 757.053 1245.57C769.348 1252.45 781.546 1259.58 793.888 1266.36C796.806 1267.94 800.155 1268.66 805.082 1270.38C802.404 1262.01 800.059 1255.94 798.529 1249.73C795.467 1237.11 792.214 1224.44 790.348 1211.63C789.679 1206.94 791.209 1200.39 794.319 1197C798.624 1192.32 804.221 1196.09 809.005 1198.96C812.497 1201.06 816.276 1202.59 820.151 1204.51L820.247 1204.6ZM1461.7 1722.47C1484.38 1724.04 1503.13 1716.35 1521.98 1709.89C1528.96 1707.5 1536.62 1704.3 1536.09 1694.45C1535.61 1685.75 1530.59 1679.97 1519.92 1676.53C1515.81 1675.19 1511.55 1674.23 1507.25 1673.66C1499.21 1672.56 1491.03 1672.27 1483.04 1670.93C1472.28 1669.16 1469.55 1663.48 1474.19 1653.68C1475.1 1651.72 1476.44 1649.95 1477.4 1648.04C1502.27 1597.98 1525.52 1547.36 1535.04 1491.57C1539.97 1462.6 1540.02 1434.4 1528.06 1407.05C1513.08 1372.82 1488.78 1355.62 1446.21 1366.71C1453.57 1484.59 1463.38 1602.62 1461.7 1722.51V1722.47Z" fill="black"/>
<path d="M979.595 786.934C978.208 792.192 976.772 802.566 972.658 811.744C963.569 832.013 937.737 835.169 925.06 817.098C911.187 797.307 906.403 774.361 911.139 750.459C913.722 737.456 924.294 729.569 934.866 722.924C943.429 717.522 951.418 720.82 958.498 727.274C974.715 741.998 978.399 761.359 979.595 786.886V786.934ZM958.02 771.302C958.546 757.295 954.911 746.205 942.521 738.412C934.436 743.623 934.866 750.698 937.402 757.247C940.703 765.709 946.922 771.254 957.972 771.302H958.02Z" fill="black"/>
<path d="M1369.19 731.194C1365.93 743.049 1364.4 755.765 1359.09 766.617C1349.48 786.36 1331.44 787.507 1317.76 770.489C1307.52 757.773 1303.17 742.762 1302.84 726.7C1302.64 718.047 1303.36 709.347 1304.27 700.79C1305.75 686.927 1314.08 678.179 1327.71 675.215C1336.85 673.207 1348.81 678.704 1354.93 689.221C1362.35 701.89 1368.04 715.37 1369.14 731.194H1369.19ZM1350.43 712.263C1345.84 693.285 1343.83 690.99 1330.49 688.552C1328.28 705.427 1331.01 708.917 1350.43 712.263Z" fill="black"/>
<path d="M862.488 701.794C866.124 694.862 867.798 690.608 870.333 686.927C888.272 661.256 912.957 644.046 941.085 631.378C944.004 630.087 947.448 628.797 950.414 629.227C953.188 629.609 957.015 631.761 957.876 634.055C958.69 636.254 956.728 639.935 955.15 642.469C954.145 644.094 951.705 644.955 949.792 645.959C934.962 653.846 919.558 660.874 905.446 669.813C891.478 678.657 878.753 689.508 862.44 701.794H862.488Z" fill="black"/>
<path d="M1385.5 632.334C1362.92 628.988 1340.48 625.689 1318.1 622.295C1315.46 621.913 1312.45 621.483 1310.44 619.953C1308.15 618.184 1305.32 615.172 1305.37 612.782C1305.47 610.392 1308.43 607.524 1310.87 605.946C1312.98 604.608 1316.09 604.464 1318.77 604.512C1339.14 604.751 1358.61 609.053 1376.46 619.14C1380.91 621.674 1386.41 624.16 1385.5 632.286V632.334Z" fill="black"/>
<path d="M958.02 771.302C946.969 771.302 940.751 765.661 937.45 757.247C934.866 750.698 934.436 743.623 942.568 738.412C954.958 746.204 958.546 757.295 958.068 771.302H958.02Z" fill="white"/>
<path d="M1350.48 712.311C1331.06 708.965 1328.28 705.475 1330.53 688.6C1343.88 691.038 1345.89 693.333 1350.48 712.311Z" fill="white"/>
</g>
<defs>
<clipPath id="clip0_157_95">
<rect width="1239" height="1621" fill="white" transform="translate(381 190)"/>
</clipPath>
</defs>
</svg>
