<svg width="2000" height="2000" viewBox="0 0 2000 2000" fill="none" xmlns="http://www.w3.org/2000/svg">
<g clip-path="url(#clip0_157_94)">
<path d="M741.257 1007.12C691.442 1022.38 646.143 1042.74 606.811 1074.69C575.476 1100.13 539.895 1114.71 499.798 1118.07C439.921 1123.05 384.827 1110.23 337.423 1071.74C329.121 1065.01 321.392 1056.59 316.112 1047.37C296.102 1012.4 281.87 975.095 279.344 934.424C277.087 897.502 285.428 863.757 312.095 836.133C330.995 816.543 344.845 793.702 355.826 768.717C379.547 714.655 404.301 661.014 428.214 607.028C436.478 588.395 443.594 569.227 451.017 550.211C456.985 534.869 462.571 519.335 468.922 502.271C461.385 491.481 453.083 479.353 444.551 467.415C428.176 444.612 415.052 420.125 408.434 392.769C397.223 346.589 398.065 300.599 413.484 255.375C416.239 247.302 420.715 239.535 425.689 232.572C433.149 222.127 438.927 221.744 447.65 231.577C455.111 239.956 461.883 249.177 467.698 258.781C484.724 287.055 501.137 315.712 517.78 344.216C519.923 347.851 522.18 351.409 524.897 355.809C523.634 336.258 522.219 318.123 521.377 299.949C520.726 285.525 522.716 271.368 527.958 257.747C533.964 242.137 541.693 236.13 557.418 246.958C558.068 247.417 558.948 247.57 560.44 248.144C562.812 245.504 565.299 242.596 567.939 239.803C573.678 233.72 579.685 229.588 588.982 228.631C600.919 227.445 612.474 222.509 624.334 220.061C656.205 213.518 687.463 218.377 718.492 225.876C765.552 237.24 807.102 258.627 841.268 293.483C842.493 294.707 843.717 295.97 845.133 297.003C856.304 305.076 868.012 312.575 878.648 321.337C888.94 329.83 898.199 339.625 909.409 350.338C914.88 339.319 920.122 329.563 924.637 319.538C931.217 304.884 936.956 289.848 943.614 275.233C950.003 261.153 958.726 258.589 971.735 266.892C992.395 280.092 1008.77 296.965 1016 321.26C1018.11 328.338 1020.52 335.34 1023.35 342.15C1034.37 368.435 1034.79 395.409 1028.36 422.689C1024.69 438.337 1020.48 453.833 1015.92 469.252C1014.55 473.92 1015.08 476.981 1017.42 481.227C1023.5 492.17 1030.16 503.189 1033.75 515.05C1054.95 584.875 1067.31 656.117 1065.93 729.347C1065.7 741.514 1063.71 753.643 1063.94 765.771C1064.44 790.067 1064.48 814.554 1067.31 838.658C1071.48 874.661 1091.3 900.372 1124.54 915.179C1134.03 919.426 1143.79 923.29 1153.74 926.236C1219.16 945.596 1283.02 969.394 1346.87 993.23C1376.95 1004.44 1407.63 1013.93 1436.44 1028.54C1481.01 1051.16 1522.45 1077.71 1555.05 1116.28C1560.33 1122.51 1566.29 1126.57 1574.33 1128.48C1602.76 1135.37 1625.21 1150.9 1643.85 1173.78C1687.35 1227.04 1717.38 1286.23 1728.86 1354.41C1731.54 1370.25 1735.48 1385.9 1737.47 1401.82C1739.57 1418.57 1741.41 1435.56 1740.87 1452.36C1740.38 1468.12 1742.37 1482.54 1750.78 1495.94C1757.25 1506.23 1762.95 1517.09 1770.41 1526.58C1776.49 1534.31 1784.49 1540.62 1792.07 1547.05C1808.71 1561.17 1837.83 1551.34 1846.82 1535.46C1847.47 1534.31 1848.16 1533.24 1848.81 1532.09C1850.83 1528.42 1852.17 1522.64 1857.57 1524.75C1859.94 1525.66 1861.51 1530.94 1861.93 1534.43C1867.21 1577.62 1851.22 1612.82 1819.92 1641.52C1809.78 1650.81 1798.42 1658.89 1786.82 1666.39C1752.58 1688.58 1706.98 1683.68 1677.59 1655.37C1676.75 1654.56 1675.6 1654.07 1673.35 1652.65C1671.89 1660.95 1670.36 1668.45 1669.37 1676.03C1667.15 1692.82 1664.58 1709.58 1663.32 1726.46C1662.63 1735.64 1658.31 1740.65 1650.66 1744.29C1631.6 1753.31 1611.1 1757.37 1590.59 1760.81C1555.93 1766.63 1521.26 1762.77 1486.68 1758.94C1476.77 1757.83 1467.93 1754.04 1460.89 1747.54C1456.07 1743.1 1453.2 1736.56 1449.1 1730.44C1436.4 1732.27 1422.74 1735.22 1408.97 1735.91C1393.89 1736.67 1378.59 1736.29 1363.59 1734.64C1355.67 1733.8 1347.68 1730.13 1340.6 1726.15C1329.27 1719.84 1323.53 1714.79 1328.24 1698.6C1330 1692.52 1329.89 1685.67 1329.62 1679.2C1328.13 1641.86 1326.67 1604.52 1324.41 1567.25C1323.53 1552.68 1322.58 1537.79 1316.19 1524.02C1293.96 1522.26 1272.08 1520.54 1248.47 1518.66C1250.04 1531.06 1251.53 1542.5 1252.91 1553.98C1257.08 1589.33 1262.36 1624.61 1265.04 1660.11C1267.37 1690.84 1266.45 1721.75 1260.21 1752.24C1258.38 1761.12 1254.67 1765.79 1245.68 1769.69C1223.87 1779.14 1201.26 1780.9 1178.19 1781.97C1166.48 1782.51 1154.73 1784.54 1143.1 1783.89C1122.75 1782.74 1102.47 1780.33 1082.19 1777.99C1066.7 1776.19 1051.47 1773.98 1036.66 1767.82C1026.1 1763.45 1023.42 1756.8 1023 1746.96C1022.08 1725.69 1021.74 1704.34 1019.52 1683.18C1014.7 1637.39 1008.85 1591.7 1003.3 1545.98C1002.88 1542.54 1003.26 1538.1 996.948 1535.92C995.953 1545.52 994.614 1554.25 994.155 1563.05C991.745 1610.91 981.338 1657.66 974.566 1704.92C972.997 1716.01 967.603 1722.86 956.813 1726.42C934.24 1733.92 910.825 1737.4 887.486 1735.79C865.104 1734.26 842.875 1729.02 820.837 1724.2C806.758 1721.14 793.864 1714.56 782.96 1704.72C774.313 1696.96 772.63 1688.31 775.882 1676.6C781.583 1656.17 786.518 1635.28 789.235 1614.28C795.127 1568.63 799.412 1522.76 804.309 1476.96C804.692 1473.52 804.5 1470 804.806 1466.55C806.184 1450.29 802.396 1436.29 791.186 1423.43C774.122 1403.8 764.634 1379.78 756.025 1355.52C731.845 1287.34 727.942 1217.21 736.13 1145.89C737.507 1133.8 738.387 1121.67 739.038 1109.54C740.53 1081.77 741.907 1053.99 742.94 1026.21C743.17 1019.97 741.754 1013.66 741.104 1007.04L741.257 1007.12ZM1244.34 1732.46C1244.34 1727.22 1244.57 1722.94 1244.3 1718.69C1241.96 1684.03 1239.52 1649.36 1237.18 1614.66C1235.31 1586.92 1233.47 1559.18 1231.9 1531.44C1231.6 1526.28 1232.25 1521 1233.2 1515.91C1234.89 1506.8 1237.07 1504.93 1246.13 1504.47C1251.76 1504.2 1257.46 1504.32 1263.08 1504.74C1309.3 1508.06 1355.14 1506.53 1400.13 1494.37C1407.4 1492.42 1411.92 1494.33 1415.47 1500.18C1419.49 1506.88 1423.74 1513.5 1427.14 1520.5C1430.17 1526.81 1434.26 1528.92 1441.34 1529.11C1483.65 1530.29 1525.55 1526.97 1567.17 1519.28C1576.55 1517.55 1586.07 1516.18 1595.56 1515.6C1598.93 1515.41 1604.71 1517.4 1605.36 1519.62C1606.35 1522.99 1605.01 1528.42 1602.6 1531.1C1598.32 1535.8 1592.77 1539.59 1587.18 1542.81C1577.05 1548.66 1566.33 1553.56 1556.12 1559.26C1530.41 1573.57 1503.13 1583.06 1473.86 1586.73C1466.63 1587.65 1459.47 1588.91 1451.55 1590.13C1454.12 1603.03 1456.56 1615.23 1459.24 1628.51C1467.81 1628.01 1475.5 1627.63 1483.23 1627.09C1490.58 1626.6 1497.92 1625.79 1505.31 1625.3C1526.54 1623.8 1547.78 1622.35 1569.01 1620.97C1575.09 1620.59 1581.22 1619.9 1587.22 1620.44C1590.05 1620.7 1592.66 1623.5 1595.37 1625.18C1593.61 1627.9 1592.43 1631.38 1589.98 1633.14C1586.53 1635.59 1582.29 1637.27 1578.12 1638.38C1547.51 1646.41 1516.82 1654.33 1486.14 1662.06C1479.6 1663.71 1472.79 1664.47 1466.74 1665.51V1700.25C1527.19 1694.09 1586.19 1694.78 1644.04 1713.37C1659.15 1611.41 1665.92 1509.63 1648.67 1406.22C1638.64 1418.11 1629.96 1428.9 1620.7 1439.16C1616.07 1444.28 1610.6 1448.68 1605.05 1452.82C1603.41 1454.04 1599.54 1454.08 1597.94 1452.93C1596.4 1451.82 1595.98 1448.45 1596.06 1446.12C1596.1 1444.09 1597.44 1442.07 1598.36 1440.11C1607.27 1421.75 1614.96 1402.66 1625.48 1385.25C1644.96 1352.96 1636.54 1321.43 1625.9 1286.34C1621.81 1296.94 1617.56 1304.71 1615.8 1312.97C1608.57 1346.91 1591.09 1375.95 1572.3 1404.15C1562.47 1418.92 1550.26 1432.12 1538.59 1445.55C1535.04 1449.68 1530.02 1452.93 1525.09 1455.34C1520.84 1457.37 1517.36 1453.51 1518.74 1448.95C1519.35 1446.92 1520.61 1445.05 1521.68 1443.17C1541.65 1408.05 1559.64 1372.32 1572.87 1333.75C1584.7 1299.39 1590.93 1264.12 1599.16 1229.11C1600.96 1221.38 1599.81 1214.64 1595.6 1208.1C1584.31 1190.58 1573.22 1172.9 1561.93 1155.38C1560.71 1153.5 1558.68 1152.16 1555.73 1149.37C1555.28 1154.27 1555.08 1157.22 1554.74 1160.16C1552.37 1180.4 1551.22 1200.91 1547.28 1220.88C1537.98 1267.9 1524.13 1313.36 1501.1 1355.94C1489.66 1377.1 1477.42 1397.34 1462.34 1415.97C1456.22 1423.55 1449.52 1430.4 1439.92 1433.04C1437.01 1433.84 1432.77 1433.34 1430.51 1431.62C1428.98 1430.47 1428.9 1425.77 1429.86 1423.32C1431.89 1418.11 1434.99 1413.29 1437.74 1408.4C1453.12 1381.12 1467.85 1353.61 1475.92 1323.04C1481.36 1302.45 1486.64 1281.87 1492.45 1261.4C1503.13 1223.98 1507.68 1185.68 1510.17 1147.04C1510.97 1134.91 1511.51 1122.78 1512.27 1110.65C1512.69 1103.88 1509.94 1099.1 1504.2 1095.5C1479.18 1079.89 1454.23 1064.05 1429.17 1048.48C1426.49 1046.83 1423.24 1046.14 1420.37 1045.07C1421.48 1068.91 1422.59 1091.87 1423.47 1114.86C1423.62 1119.15 1422.93 1123.47 1422.32 1127.72C1420.45 1141.41 1418.34 1155.03 1416.58 1168.73C1413.06 1195.74 1410.5 1222.95 1405.95 1249.77C1403.19 1265.91 1397.99 1281.75 1392.94 1297.4C1384.41 1323.8 1375.99 1350.28 1365.77 1376.03C1360.46 1389.46 1351.5 1401.43 1343.66 1414.94C1336.77 1407.9 1340.33 1401.85 1341.36 1396.42C1345.27 1375.95 1350.93 1355.75 1353.61 1335.17C1358.05 1301.15 1361.34 1266.98 1363.9 1232.78C1366.04 1204.24 1367.34 1175.54 1367.34 1146.92C1367.34 1106.41 1362.56 1066.31 1354.1 1026.63C1353.11 1021.93 1352.92 1017.14 1347.26 1015.15C1323.23 1006.58 1299.28 997.86 1273.34 988.486C1275.06 1000.35 1277.05 1010.03 1277.74 1019.82C1279.34 1043.2 1280.61 1066.65 1281.53 1090.07C1283.36 1136.63 1280.26 1182.93 1274.14 1229.15C1268.17 1274.29 1252.64 1316.76 1240.01 1360.07C1237.45 1368.8 1234.47 1377.44 1231.1 1385.94C1227.77 1394.28 1223.33 1397.53 1219.35 1395.2C1213.42 1391.68 1216.06 1386.24 1216.83 1381.15C1221.42 1349.36 1228 1317.72 1229.95 1285.73C1234.35 1214.03 1233.32 1142.33 1220.19 1071.36C1214.76 1041.94 1210.74 1012.13 1199.92 983.933C1190.77 960.059 1190.96 959.982 1167.13 951.909C1155.04 947.815 1142.99 943.721 1129.4 939.13C1130.13 943.071 1130.51 945.099 1130.9 947.126C1135.56 972.34 1139.62 997.516 1140 1023.34C1141.3 1109.39 1125.16 1192.72 1102.12 1274.98C1093.4 1306.09 1080.66 1335.55 1061.38 1361.83C1059.85 1363.94 1058.36 1366.08 1056.67 1368.11C1054.03 1371.28 1050.59 1374.34 1046.84 1371.09C1044.85 1369.37 1044.12 1365.01 1044.47 1362.06C1044.89 1358.31 1047.11 1354.75 1048.29 1351.04C1054.57 1331.65 1062.26 1312.59 1066.62 1292.77C1072.05 1268.25 1075.46 1243.19 1078.37 1218.2C1082.84 1179.83 1088.43 1141.34 1089.42 1102.81C1090.46 1062.06 1086.63 1021.2 1084.79 980.375C1084.64 977.238 1083.49 974.1 1082.8 971.001C1079.32 976.855 1078.37 982.709 1076.99 988.448C1075.5 994.761 1074.08 1001.15 1071.78 1007.23C1065.13 1025.14 1058.32 1043.01 1051.09 1060.68C1043.36 1079.55 1035.97 1098.68 1026.79 1116.85C1004.03 1162 975.675 1203.74 944.302 1243.26C935.809 1253.98 924.445 1262.51 913.809 1271.35C910.404 1274.18 905.239 1275.71 900.724 1276.13C893.646 1276.74 890.318 1271.58 893.302 1265.03C895.062 1261.13 897.931 1257.73 900.456 1254.21C915.684 1233.05 932.212 1212.69 945.909 1190.58C968.368 1154.35 987.459 1116.31 999.971 1075.22C1006.28 1054.45 1014.28 1034.21 1020.9 1013.55C1025.38 999.505 1029.35 985.234 1032.45 970.848C1036.32 952.598 1039.11 934.118 1042.25 915.714C1042.71 913.075 1042.59 910.358 1042.75 907.68C1031.84 920.803 1022.16 934.118 1014.13 948.389C988.11 994.608 950.959 1031.03 911.82 1065.66C903.785 1072.77 894.067 1078.17 884.54 1083.26C879.834 1085.78 873.751 1086.97 868.356 1086.78C861.01 1086.51 858.447 1080.62 863.306 1075.03C869.542 1067.84 876.85 1061.6 883.813 1055.1C894.87 1044.73 906.922 1035.2 917.023 1023.95C967.45 967.672 999.817 901.099 1025.03 830.7C1030.46 815.51 1033.33 799.747 1030.16 783.333C1027.52 769.712 1026.56 755.671 1023.31 742.203C1013.25 700.422 1002.84 658.68 991.668 617.206C987.383 601.327 981.147 585.908 974.795 570.719C970.702 560.962 964.81 552.01 960.257 543.63C947.363 550.211 936.306 556.103 924.981 561.498C921.997 562.914 918.247 563.335 914.88 563.182C913.235 563.105 910.787 561.077 910.251 559.432C909.715 557.825 910.595 554.841 911.896 553.808C914.88 551.397 918.515 549.714 921.92 547.839C956.545 529.206 979.846 499.975 998.019 466.038C999.626 463.015 1000.43 459.534 1001.31 456.167C1004.37 444.421 1007.05 432.522 1010.38 420.852C1015.5 402.87 1016.46 384.352 1011.72 366.714C1006.47 347.124 998.899 327.994 990.597 309.438C984.705 296.314 972.691 288.088 959.874 280.168C954.212 293.215 948.817 305.038 943.92 317.051C928.463 355.044 909.447 391.047 884.349 423.607C878.533 431.144 872.029 438.223 865.181 444.803C863.383 446.525 859.136 445.722 855.998 446.066C856.151 443.235 855.463 439.944 856.687 437.687C859.518 432.407 863.306 427.624 866.788 422.497C860.13 418.136 854.315 413.506 847.811 410.254C838.552 405.625 829.178 400.498 819.231 398.202C768.46 386.494 718.071 387.757 669.558 407.92C630.188 424.296 597.246 449.165 576.395 487.694C575.438 489.415 573.908 490.831 572.454 492.591C547.891 471.241 544.295 440.939 535.533 411.058C532.97 415.343 531.171 417.715 529.985 420.355C516.594 450.045 503.127 479.659 490.042 509.464C485.145 520.559 481.166 532.076 476.842 543.439C467.009 569.418 458.363 595.894 447.191 621.299C423.011 676.127 397.147 730.227 372.775 785.016C361.795 809.656 347.562 831.886 327.782 849.868C301.765 873.551 294.878 903.28 297.556 936.222C299.66 962.354 306.356 987.568 317.566 1011.4C326.328 1030.04 336.734 1047.6 354.755 1059C384.368 1077.75 415.167 1092.29 451.208 1095.23C502.783 1099.48 550.378 1093.17 592.196 1058.89C622.804 1033.79 656.205 1012.59 694.312 999.773C713.633 993.269 732.61 985.693 751.702 978.538C756.025 976.931 760.234 974.98 765.169 972.914C763.294 962.966 762.223 953.86 759.813 945.175C750.095 910.473 739.42 876.077 724.04 843.326C721.821 838.619 719.831 833.76 718.53 828.748C717.995 826.682 718.875 822.894 720.405 821.938C722.509 820.637 725.991 820.637 728.593 821.287C730.965 821.861 732.993 823.927 735.135 825.458C753.194 838.237 767.733 854.345 778.331 873.59C788.163 891.419 796.81 909.937 805.763 928.226C809.168 935.151 811.961 942.344 815.558 950.646C824.855 945.481 834.343 941.77 841.88 935.687C854.009 925.892 864.76 914.375 876.276 903.777C881.097 899.339 881.9 894.709 879.528 888.626C875.09 877.339 872.297 865.287 866.902 854.498C851.79 824.195 835.721 794.352 819.919 764.394C817.891 760.568 815.06 757.163 813.185 753.298C812.382 751.653 812.267 748.133 813.185 747.559C815.022 746.411 817.777 746.45 820.11 746.488C821.22 746.488 822.33 747.751 823.439 748.439C843.832 761.257 862.579 775.987 875.74 796.571C885.803 812.258 895.559 828.136 905.468 843.938C906.731 845.966 908.032 847.955 909.945 850.978C920.084 830.087 929.572 810.536 939.061 790.985C939.902 791.253 940.782 791.521 941.624 791.827C941.356 796.456 942.007 801.392 940.629 805.639C933.628 827.065 928.004 849.218 918.362 869.419C893.302 922.028 848.117 954.319 798.8 981.446C785.256 988.907 770.449 993.996 756.943 999.85C758.053 1013.09 760.234 1025.18 759.889 1037.19C758.933 1071.93 758.015 1106.75 755.107 1141.38C751.663 1182.24 750.21 1222.91 755.834 1263.62C764.289 1324.83 782.08 1382.23 823.669 1430.05C844.559 1454.08 868.968 1473.06 898.276 1485.41C911.858 1491.15 926.129 1495.29 939.673 1501.14C959.874 1509.86 981.147 1514 1002.8 1515.76C1012.52 1516.56 1016.88 1521.04 1019.44 1529.11C1021.55 1535.69 1023.46 1542.31 1025.53 1549.12C1028.51 1549.39 1031.08 1549.88 1033.64 1549.81C1072.28 1548.54 1110.92 1547.21 1149.61 1545.87C1156.11 1545.64 1162.65 1544.79 1169.12 1545.29C1176.65 1545.9 1178.87 1549.73 1176.08 1556.92C1174.59 1560.83 1172.33 1565.03 1169.16 1567.56C1164.14 1571.54 1158.44 1575.33 1152.44 1577.28C1133.46 1583.4 1114.33 1589.25 1094.97 1594.07C1075.69 1598.9 1056.1 1602.3 1035.63 1606.55C1036.66 1615.73 1037.77 1625.45 1038.96 1636.31C1045 1636.77 1050.51 1637.42 1056.06 1637.54C1094.86 1638.53 1133.31 1635.05 1171.57 1628.78C1177.08 1627.86 1182.85 1627.44 1188.4 1627.94C1197.43 1628.7 1200.38 1635.55 1194.56 1642.36C1191.27 1646.22 1186.87 1649.48 1182.39 1651.92C1143.9 1672.85 1102.7 1683.34 1058.85 1683.34C1053.76 1683.34 1048.71 1683.34 1042.9 1683.34C1042.9 1692.86 1042.82 1701.47 1042.94 1710.08C1042.94 1712.61 1043.55 1715.09 1043.85 1717.58C1136.67 1712.41 1163.38 1714.37 1244.26 1732.58L1244.34 1732.46ZM1809.13 1588.03C1803.93 1599.62 1796.16 1604.14 1785.41 1600.81C1777.72 1598.44 1770.18 1594.34 1763.75 1589.44C1749.14 1578.27 1740.61 1562.55 1734.71 1545.48C1725.23 1518.17 1719.72 1490.04 1720.9 1461.08C1722.05 1433.57 1720.56 1406.37 1715.85 1379.32C1710.8 1350.24 1706.98 1320.89 1696.8 1292.96C1679.2 1244.76 1649.78 1204.05 1615.53 1166.63C1608.11 1158.52 1597.59 1153.24 1588.29 1146.92C1586.19 1145.51 1583.28 1145.32 1578.81 1143.98C1582.25 1149.68 1584.51 1153.31 1586.65 1157.02C1599.08 1178.41 1613.12 1199.03 1623.53 1221.34C1647.41 1272.49 1659.88 1327.4 1669.29 1382.57C1678.51 1436.52 1682.6 1491.19 1680.5 1546.13C1680.39 1549.16 1680.04 1552.29 1680.54 1555.24C1685.86 1586.38 1709.08 1632.95 1757.44 1640.45C1775.81 1643.32 1793.67 1642.51 1808.36 1630.73C1832.2 1611.6 1847.12 1586.54 1851.71 1555.85C1851.9 1554.51 1851.33 1553.02 1850.91 1550.38C1847.39 1553.14 1845.09 1555.05 1842.65 1556.81C1819.38 1573.45 1795.85 1571.73 1775.65 1551.41C1770.53 1546.25 1766.28 1540.01 1762.45 1533.74C1757.94 1526.31 1754.46 1518.32 1750.36 1510.67C1749.14 1508.33 1747.34 1506.3 1745.85 1504.12C1747.65 1528.76 1754.19 1551.41 1768.46 1571.27C1771.71 1575.79 1775.73 1580.03 1780.17 1583.36C1788.66 1589.75 1797.96 1594.15 1809.05 1588.03H1809.13ZM807.906 1624.57C804.921 1636.58 802.167 1647.72 798.876 1661.11C856.764 1660.15 908.223 1679.78 961.366 1698.95C966.837 1651.31 972.232 1605.63 977.129 1559.95C977.895 1552.71 976.747 1545.25 976.173 1537.91C975.79 1533.01 972.921 1530.37 967.985 1529.26C956.584 1526.66 945.182 1523.87 933.896 1520.73C897.625 1510.67 863 1497.2 834.381 1471.53C831.359 1468.81 827.724 1466.7 823.133 1463.45V1501.75C853.856 1515.87 883.584 1531.25 915.76 1540.89C923.642 1543.26 931.523 1545.79 939.099 1549.04C941.777 1550.19 945.412 1553.82 945.182 1555.97C944.953 1558.45 941.28 1561.78 938.487 1562.59C932.748 1564.27 926.588 1565.19 920.581 1565.23C895.75 1565.3 871.188 1562.55 846.969 1556.81C837.825 1554.63 828.528 1553.02 817.968 1550.88C816.973 1561.63 816.131 1570.97 815.29 1580.11C843.219 1591.89 871.341 1598.93 899.921 1604.44C908.874 1606.16 917.865 1607.96 926.473 1610.79C929.343 1611.75 932.365 1615.92 932.863 1619.06C933.169 1620.9 929.037 1624.45 926.244 1625.52C922.303 1627.06 917.75 1627.59 913.465 1627.59C878.801 1627.4 844.061 1631.57 807.867 1624.57H807.906ZM522.601 397.169C509.631 371.496 497.005 345.823 483.729 320.457C471.486 297.003 458.631 273.855 445.852 250.669C443.518 246.422 440.228 242.749 436.019 236.857C431.887 246.001 428.137 252.429 425.995 259.316C414.364 296.926 413.254 335.493 418.802 374.06C425.153 418.021 450.481 452.762 476.613 487.961C492.108 457.391 507.144 427.701 522.601 397.207V397.169ZM743.017 372.874C746.651 361.625 750.669 351.562 753.156 341.117C758.168 320.036 763.027 298.878 766.623 277.49C769.378 260.961 768.613 260.464 753.423 254.342C730.391 245.121 706.517 238.847 681.916 235.48C677.401 234.868 672.771 234.982 667.951 234.753C675.067 288.394 669.519 339.702 656.434 392.425C685.627 381.98 712.83 371.84 743.055 372.874H743.017ZM542.726 255.069C540.545 264.481 537.255 272.746 536.987 281.086C536.413 298.38 535.571 316.018 538.173 333.006C543.682 368.55 551.105 403.788 558.298 439.026C560.326 448.974 564.151 458.539 567.442 469.367C581.024 453.297 588.867 437.075 587.911 417.447C587.758 414.004 588.255 410.522 588.332 407.04C589.059 372.338 590.168 337.636 590.398 302.971C590.513 283.612 590.13 264.214 585.309 242.826C576.969 250.478 569.89 257.021 562.927 263.41C556.499 260.77 550.952 258.474 542.688 255.107L542.726 255.069ZM1342.78 1577.43C1343.89 1589.1 1345 1600.58 1346.07 1611.87C1368.45 1612.78 1389.65 1613.55 1410.81 1614.62C1415.89 1614.89 1421.29 1615.5 1425.96 1617.34C1433.88 1620.47 1434.37 1627.51 1426.91 1631.8C1421.75 1634.78 1415.82 1636.7 1410 1638.38C1389.23 1644.31 1368.34 1649.93 1346.53 1655.94V1689.19C1380.39 1683.3 1413.45 1684.33 1447.69 1692.75C1443.36 1649.21 1443.17 1605.78 1423.81 1567.1C1396.69 1570.58 1370.63 1573.91 1342.74 1577.47L1342.78 1577.43ZM870.499 407.805C871.647 403.329 872.718 400.919 872.794 398.508C873.33 383.816 873.254 369.047 874.21 354.394C875.014 342.15 869.657 333.465 860.322 326.808C848.538 318.429 836.371 310.547 824.128 302.283C819.575 314.411 815.672 326.77 810.392 338.477C805.113 350.223 798.494 361.319 791.645 374.327C820.608 379.072 848.729 384.505 870.499 407.729V407.805ZM1011.1 608.138C1017.19 602.475 1022.39 597.234 1027.98 592.527C1032.57 588.625 1033.45 584.263 1032.03 578.639C1027.21 559.279 1022.77 539.843 1018.03 520.445C1016.92 515.968 1015.27 511.606 1013.48 505.982C998.784 518.761 989.64 533.644 982.333 548.069C992.089 568.5 1001.23 587.63 1011.07 608.176L1011.1 608.138ZM1680.5 1596.29L1678.01 1597.1C1677.4 1603.49 1677.59 1610.07 1676.02 1616.19C1673.38 1626.63 1677.29 1634.9 1682.95 1642.86C1688.96 1651.27 1697.14 1657.13 1706.98 1659.77C1717.8 1662.68 1728.82 1665.24 1739.92 1666.43C1750.02 1667.46 1760.2 1665.66 1772.32 1659.46C1750.9 1655.52 1732 1653.03 1715.74 1642.09C1698.83 1630.73 1690.68 1612.78 1680.46 1596.26L1680.5 1596.29ZM1413.33 1535.77C1409.39 1525.97 1405.72 1516.9 1401.93 1507.57C1378.9 1513.31 1356.86 1518.78 1333.94 1524.44C1335.51 1530.6 1336.96 1536.22 1338.38 1541.89C1363.71 1539.82 1387.77 1537.87 1413.29 1535.77H1413.33ZM1028.09 670.885C1033.41 693.382 1039.42 718.979 1045.46 744.613C1049.86 712.627 1047.15 668.245 1041.56 654.127C1037.43 659.254 1033.41 664.228 1028.09 670.885Z" fill="black"/>
<path d="M743.131 674.367C742.863 689.212 740.224 700.996 734.178 711.748C726.297 725.751 708.506 730.84 694.924 722.269C690.218 719.285 685.435 713.814 684.096 708.648C680.653 695.104 681.074 681.101 686.43 667.863C690.294 658.297 696.952 651.028 706.363 646.551C722.586 638.823 737.01 645.48 741.41 662.851C742.557 667.404 742.825 672.224 743.131 674.405V674.367ZM721.514 655.964C718.326 663.973 720.953 668.781 729.396 670.388C726.756 665.567 724.767 661.932 721.514 655.964Z" fill="black"/>
<path d="M594.032 937.37C600.804 937.523 605.74 938.977 607.079 945.252C608.303 950.914 604.86 954.358 600.039 956.233C595.601 957.916 590.895 958.949 586.342 960.365C569.546 965.492 553.821 972.455 542.152 986.42C539.321 989.787 535.992 993.384 531.171 990.055C526.848 987.071 527.345 982.556 529.067 978.309C530.176 975.516 531.592 972.723 533.39 970.351C548.962 950.073 571.574 942.803 594.032 937.408V937.37Z" fill="black"/>
<path d="M331.875 917.551C353.224 926.963 376.486 929.718 388.5 951.641C391.216 956.577 391.982 960.518 388.882 965.951C383.794 974.942 383.411 974.827 375.262 968.323C360.494 956.5 346.873 942.918 328.891 935.572C323.955 933.544 320.206 929.947 322.884 924.667C324.453 921.53 328.891 919.808 331.875 917.551Z" fill="black"/>
<path d="M521.645 832.46C519.617 832.957 517.589 833.837 515.561 833.875C479.75 834.64 444.551 831.465 411.341 816.543C407.783 814.936 404.263 813.138 401.202 810.766C399.902 809.771 398.945 806.71 399.557 805.295C400.131 803.955 402.924 802.731 404.646 802.846C407.133 802.961 409.696 804.108 411.992 805.218C435.368 816.505 460.582 820.637 485.872 824.654C497.847 826.529 509.784 828.595 521.721 830.547L521.606 832.421L521.645 832.46Z" fill="black"/>
<path d="M784.031 573.512C771.482 571.637 758.933 569.648 746.345 567.964C738.234 566.893 730.008 566.396 721.897 565.363C718.492 564.942 714.781 564.521 711.988 562.837C709.807 561.536 707.129 557.825 707.626 555.95C708.315 553.234 711.567 551.091 714.016 549.025C714.819 548.375 716.541 548.604 717.803 548.757C740.147 551.857 762.07 556.256 781.315 569.112C782.73 570.069 784.644 570.298 786.327 570.872L784.07 573.512H784.031Z" fill="black"/>
<path d="M721.515 655.963C724.767 661.932 726.756 665.567 729.396 670.388C720.979 668.781 718.352 663.973 721.515 655.963Z" fill="white"/>
</g>
<defs>
<clipPath id="clip0_157_94">
<rect width="1584" height="1567" fill="white" transform="translate(279 217)"/>
</clipPath>
</defs>
</svg>
