<svg width="2000" height="2000" viewBox="0 0 2000 2000" fill="none" xmlns="http://www.w3.org/2000/svg">
<g clip-path="url(#clip0_157_93)">
<path d="M625.598 1478.53C613.208 1483.03 606.38 1473.07 595.76 1470.75C597.125 1480.6 598.794 1489.45 599.553 1498.39C602.284 1530.37 605.318 1562.41 607.038 1594.44C607.746 1607.78 613.359 1615.46 625.446 1619.96C668.282 1635.88 711.674 1643.1 757.089 1631.63C769.176 1628.6 775.599 1623.04 778.229 1610.61C782.427 1591.01 788.394 1571.81 793.603 1552.46C794.918 1547.55 796.082 1542.6 797.75 1535.78C790.367 1534.01 783.893 1532.55 777.471 1530.98C753.499 1525.12 729.173 1520.42 705.757 1512.89C691.293 1508.24 678.043 1499.55 664.641 1492.02C660.241 1489.55 655.639 1484.6 660.19 1479.44C662.213 1477.17 668.839 1476.76 672.227 1478.23C728.262 1502.03 787.838 1512.18 847.211 1521.58C881.045 1526.94 915.89 1525.93 950.28 1527.59C958.17 1528 966.363 1526.69 973.291 1534.92C962.115 1547.81 945.274 1542.5 933.642 1548.46C939.154 1580.75 944.565 1612.74 950.432 1647.1C960.446 1652.75 973.999 1654.27 987.654 1654.57C1029.12 1655.38 1070.34 1652.91 1110.65 1641.99C1116.11 1640.53 1121.83 1640.07 1128.75 1638.96C1129.61 1634.01 1130.42 1629.06 1131.33 1624.16C1136.04 1599.35 1140.39 1574.49 1145.7 1549.83C1147.87 1539.67 1150.35 1530.02 1143.72 1521.58C1148.38 1512.54 1155.91 1513.6 1162.49 1513.9C1182.56 1514.91 1202.64 1515.82 1222.62 1517.99C1266.36 1522.74 1309.81 1520.67 1353.2 1514.71C1359.42 1513.85 1365.64 1513.19 1373.38 1512.23C1371.31 1507.99 1369.89 1504.45 1367.97 1501.27C1351.63 1473.58 1343.94 1443.06 1338.99 1411.78C1329.58 1352.41 1338.84 1296.33 1370.14 1244.53C1374.74 1236.95 1378.94 1228.57 1388.85 1224.78C1392.85 1231.85 1388.4 1236.35 1385.97 1240.95C1370.04 1271.26 1359.82 1303.5 1356.13 1337.41C1350.87 1386.01 1353.96 1433.81 1377.17 1478.28C1381.12 1485.86 1385.77 1493.39 1391.53 1499.6C1407.16 1516.48 1416.82 1536.29 1423.4 1558.01C1428.55 1575.04 1435.38 1591.56 1439.58 1608.79C1443.42 1624.51 1452.68 1629.76 1467.8 1630.47C1525.71 1633.1 1582.5 1627.69 1637.42 1608.04C1646.02 1604.95 1654.52 1601.72 1664.68 1597.93C1668.68 1569.18 1671.66 1540.13 1676.97 1511.48C1687.69 1453.97 1699.32 1396.62 1711.36 1339.43C1723.45 1281.67 1726.63 1223.31 1723.09 1164.75C1721.63 1140.95 1716.27 1116.85 1708.98 1094.06C1691.44 1039.29 1670.5 985.827 1629.79 942.877C1614.01 926.203 1598.99 908.77 1582.85 892.45C1562.12 871.48 1538.05 854.806 1511.6 841.769C1470.33 821.457 1427.8 804.328 1384.25 789.472C1351.03 778.154 1318.56 765.016 1289.98 740.965C1263.38 770.322 1229.65 786.845 1191.82 796.041C1194.55 786.188 1202.24 781.539 1209.27 776.486C1221.41 767.796 1233.9 759.66 1246.08 751.02C1262.32 739.499 1274.61 724.644 1284.07 707.161C1305.91 666.789 1319.47 624.092 1323.87 578.161C1326.55 550.371 1332.26 522.833 1336.81 494.082C1336.16 493.88 1333.02 492.061 1329.78 491.808C1285.68 488.17 1241.53 484.784 1197.58 493.526C1152.57 502.469 1113.03 522.681 1078.89 552.897C1064.78 565.378 1052.69 580.132 1039.9 594.027C1034.94 599.434 1030.64 601.455 1023.81 596.352C991.852 572.25 955.843 556.131 917.357 545.874C876.241 534.909 834.265 527.835 791.631 526.268C753.499 524.904 716.175 531.473 679.004 539.406C615.888 552.948 557.425 578.364 504.171 613.885C481.261 629.145 463.207 652.135 444.393 672.903C408.688 712.315 384.969 758.397 371.264 809.785C365.954 829.643 359.784 849.248 353.563 870.419C414.1 872.895 469.275 884.668 509.33 936.662C511.909 927.213 513.932 920.24 515.651 913.166C527.081 866.731 550.092 826.965 585.696 794.98C630.302 754.911 682.999 746.472 740.147 757.841C744.598 758.751 748.896 760.62 753.094 762.389C754.51 762.995 755.572 764.511 758.455 767.088C753.296 771.838 748.846 776.79 743.586 780.579C725.784 793.414 710.258 808.37 696.351 825.499C667.878 860.516 655.892 900.989 654.223 945.05C653.11 974.862 661.607 1001.59 682.999 1023.57C689.776 1030.54 696.3 1038.02 701.509 1046.16C720.828 1076.27 708.286 1112.96 672.986 1126.7C677.487 1119.42 681.077 1113.16 685.123 1107.25C696.199 1091.23 695.238 1062.98 676.88 1047.98C637.028 1015.39 628.279 972.083 636.724 923.676C639.405 908.417 641.377 892.904 645.777 878.201C659.128 833.735 684.921 798.163 724.267 772.848C726.492 771.383 728.616 769.766 733.32 766.431C714.102 763.147 697.918 765.875 681.836 767.442C623.474 772.949 585.595 808.218 558.285 856.069C512.971 935.45 519.191 1014.22 566.174 1090.88C572.698 1101.54 582.105 1110.38 590.045 1120.18C598.137 1130.19 607.493 1139.53 609.364 1153.53C598.137 1153.38 586.454 1145.7 563.848 1120.23C551.457 1106.24 541.494 1090.02 530.115 1074.25C529.256 1074.56 527.486 1074.81 526.272 1075.82C450.31 1139.89 329.794 1129.48 254.945 1063.94C246.651 1056.67 237.497 1051.82 227.433 1047.22C216.357 1042.17 205.029 1034.28 197.847 1024.63C148.032 957.48 141.357 884.517 174.078 808.421C189.553 772.343 218.835 747.837 252.163 728.333C263.188 721.915 275.629 718.783 288.627 722.168C290.599 722.673 292.167 724.796 294.341 726.463C291.813 733.183 285.592 733.436 280.687 735.76C220.909 763.703 182.372 807.663 174.887 875.32C172.712 894.825 172.004 914.126 175.393 933.58C180.905 965.11 196.279 991.587 216.104 1015.94C217.369 1017.51 219.695 1018.27 224.449 1021.2C216.458 987.494 221.111 958.39 240.734 932.67C227.787 907.103 219.493 881.081 220.909 852.785C222.982 812.109 240.481 778.962 270.724 752.334C280.231 743.996 291.004 737.478 307.339 736.872C296.769 747.432 287.008 755.719 279.169 765.471C271.381 775.223 264.2 785.935 259.092 797.304C253.781 809.178 249.887 822.114 247.864 834.999C245.943 847.328 246.145 860.212 247.258 872.693C248.471 885.679 251.91 898.463 254.641 912.762C268.347 903.92 279.675 895.279 292.167 888.913C304.304 882.698 317.656 878.857 331.311 873.603C340.313 826.207 353.108 779.265 373.084 734.548C393.314 689.223 426.743 653.55 460.02 617.473C455.469 608.782 450.968 600.899 447.175 592.714C430.839 557.495 426.692 520.205 428.26 481.854C430.587 424.251 448.995 373.015 486.217 328.6C496.433 316.372 497.647 316.423 510.644 326.175C520.658 333.704 531.835 339.818 542.809 345.881C574.418 363.415 606.33 380.392 637.837 398.077C678.346 420.815 707.73 453.507 724.065 497.366C724.874 499.488 726.24 501.358 727.706 503.935C834.922 495.092 938.547 505.501 1034.94 565.731C1038.33 561.133 1040.96 556.636 1044.45 552.847C1100.28 492.515 1170.17 464.522 1251.6 462.906C1283.81 462.249 1315.88 464.068 1347.64 469.777C1351.03 470.384 1354.46 470.99 1357.65 472.152C1368.32 475.992 1372.72 482.106 1368.17 491.808C1353.25 523.489 1354.77 557.697 1350.32 591.097C1345.31 628.69 1336.41 665.576 1316.08 698.571C1310.67 707.363 1305.71 716.408 1299.95 726.413C1327.91 741.318 1355.88 755.264 1385.26 766.128C1424.56 780.68 1463.8 795.283 1502.9 810.341C1539.82 824.59 1572.94 845.256 1600.2 873.906C1625.49 900.484 1649.51 928.325 1673.43 956.166C1680.82 964.807 1686.93 974.862 1691.89 985.119C1710.3 1023.37 1727.7 1061.97 1738.57 1103.36C1752.83 1157.67 1784.29 1200.42 1831.22 1231.55C1834.56 1233.77 1838.55 1235.44 1841.13 1238.32C1843.86 1241.4 1847.66 1246.55 1846.65 1249.08C1845.38 1252.16 1839.82 1254.84 1835.82 1255.3C1809.17 1258.28 1786.26 1248.63 1765.32 1233.06C1761.33 1230.08 1757.43 1227 1751.77 1222.65C1750.61 1238.72 1749.19 1252.72 1748.68 1266.82C1747.22 1310.12 1736.9 1352.01 1728.61 1394.2C1719.1 1442.61 1708.58 1490.86 1704.79 1540.13C1703.47 1557.26 1702.61 1574.49 1702.81 1591.67C1703.02 1609.7 1694.77 1621.78 1678.54 1627.19C1658.46 1633.86 1637.88 1639.31 1617.24 1643.91C1571.73 1654.07 1525.76 1660.79 1478.87 1655.48C1472.6 1654.78 1466.28 1654.27 1460.01 1653.71C1440.54 1651.95 1428.6 1641.23 1423.04 1622.84C1422.08 1619.66 1420.61 1616.63 1419.05 1612.58C1409.54 1615.51 1400.64 1617.54 1392.34 1621.02C1367.56 1631.38 1341.31 1633.81 1315.02 1636.23C1300.1 1637.6 1286.59 1633.45 1273.45 1627.34C1260.85 1621.43 1254.94 1611.57 1254.33 1597.32C1253.47 1578.53 1250.94 1559.83 1248.97 1539.77C1221.3 1536.89 1195.31 1534.21 1167.65 1531.33C1166.94 1538.81 1166.74 1544.93 1165.72 1550.99C1161.17 1578.68 1156.67 1606.42 1151.61 1634.06C1148.38 1651.74 1136.95 1660.79 1119.55 1665.69C1077.62 1677.46 1034.89 1681.1 991.751 1681.1C978.652 1681.1 965.452 1678.68 952.404 1676.76C934.552 1674.18 922.87 1663.77 919.279 1646.29C915.283 1626.63 912.654 1606.72 909.923 1586.87C908.203 1574.49 907.445 1562.01 906.231 1549.27C877.707 1546.59 850.448 1544.07 822.026 1541.44C816.716 1564.03 811.507 1586.21 806.297 1608.44C805.792 1610.66 805.488 1612.99 804.831 1615.16C794.312 1650.18 803.668 1643.96 765.232 1653.11C718.451 1664.17 671.721 1661.95 626.154 1645.38C619.175 1642.85 612.449 1639.52 605.824 1636.18C589.792 1628.05 582.509 1615.16 583.875 1596.92C584.583 1587.27 584.229 1577.42 583.066 1567.82C578.666 1530.78 573.103 1493.89 569.462 1456.8C568.349 1445.38 563.696 1438.01 556.161 1430.38C532.391 1406.28 508.065 1382.48 490.263 1353.27C473.827 1326.29 458.351 1298.75 451.119 1267.57C449.046 1258.58 443.736 1256.36 435.593 1254.69C382.441 1243.83 340.363 1215.63 310.171 1170.71C301.675 1158.03 296.364 1143.17 289.891 1129.18C288.475 1126.14 287.261 1122.36 287.767 1119.17C288.424 1115.13 290.093 1110.53 292.976 1108C294.19 1106.94 300.714 1109.62 302.737 1112.2C307.339 1118.01 310.474 1124.88 314.47 1131.15C342.437 1175.16 380.569 1207.04 429.373 1225.64C453.952 1234.98 479.036 1234.18 503.767 1226.24C517.927 1221.69 531.582 1215.68 545.338 1210.02C550.193 1208.05 555.857 1204.41 559.094 1209.92C561.117 1213.31 560.51 1220.48 558.082 1223.82C553.48 1230.03 547.614 1236.55 540.786 1239.58C526.727 1245.85 511.707 1249.94 497.04 1254.84C493.399 1256.05 489.656 1256.96 483.841 1258.63C487.634 1270.35 490.466 1281.32 494.714 1291.73C512.92 1336.85 539.32 1377.12 570.271 1414.41C586.404 1433.86 603.245 1452.71 619.732 1471.81C621.451 1473.83 623.069 1475.9 625.345 1478.73L625.598 1478.53ZM507.307 953.488C492.64 943.635 479.087 934.035 465.027 925.192C429.929 903.111 391.544 893.005 350.175 897.25C311.031 901.292 278.866 917.967 257.979 952.831C243.616 976.782 244.931 1015.54 263.138 1033.53C308.35 1078.14 361.857 1101.08 426.692 1093.3C463.51 1088.91 493.449 1071.47 520.506 1048.38C516.814 1032.21 512.415 1017.26 510.29 1002.05C508.116 986.231 508.166 970.062 507.256 953.488H507.307ZM494.309 337.493C432.154 418.491 443.129 550.118 476.558 598.979C517.826 574.321 558.942 549.36 606.431 533.646C602.031 514.647 597.833 496.558 593.282 477.155C610.73 490.696 613.612 511.059 622.159 526.824C651.745 520.155 680.015 513.737 709.753 507.017C691.647 474.274 671.013 446.332 640.517 427.131C613.815 410.305 586.606 394.288 559.65 377.815C538.258 364.728 516.916 351.439 494.309 337.493ZM1267.98 1540.88C1271.83 1562.51 1275.47 1583.02 1279.06 1603.03C1312.44 1617.84 1387.94 1611.17 1414.8 1590.4C1409.44 1575.55 1404.48 1559.83 1398.16 1544.72C1391.89 1529.72 1390.62 1529.82 1374.85 1531.23C1342.98 1534.16 1311.07 1536.84 1279.16 1539.62C1275.87 1539.92 1272.59 1540.33 1267.98 1540.88Z" fill="black"/>
<path d="M938.648 845.256C938.8 862.032 933.186 878.908 918.823 892.197C903.803 906.093 885.849 910.236 866.227 906.345C840.283 901.191 825.414 876.028 831.837 848.541C836.237 829.794 847.515 815.798 863.85 805.844C866.278 804.378 869.009 803.469 871.537 802.105C907.04 783.359 939.407 803.014 938.598 845.206L938.648 845.256ZM919.329 835.706C917.306 826.51 911.136 820.952 902.792 817.92C895.964 815.394 891.514 819.891 893.183 826.914C896.217 839.85 903.196 842.275 919.329 835.706Z" fill="black"/>
<path d="M1143.83 672.094C1168.2 707.01 1177.25 745.563 1184.79 784.723C1165.57 758.145 1155.66 726.867 1139.17 696.55C1137.45 702.31 1136.39 705.898 1134.77 711.355C1128.8 703.523 1128.5 695.792 1128.96 688.314C1131.28 652.54 1143.67 620.151 1163.25 590.44C1165.98 586.246 1170.12 582.76 1174.27 579.778C1178.32 576.848 1178.67 577.302 1188.89 583.821C1169.82 611.005 1154.85 640.413 1143.83 672.044V672.094Z" fill="black"/>
<path d="M919.33 835.757C903.146 842.275 896.217 839.849 893.183 826.965C891.514 819.941 895.965 815.444 902.792 817.971C911.137 821.002 917.357 826.56 919.33 835.757Z" fill="white"/>
<path d="M349.922 986.13C348.253 991.991 346.078 1000.83 343.246 1009.47C340.717 1017.21 335.66 1021.5 326.709 1021.6C317.808 1021.65 311.385 1019.13 306.732 1011.24C297.831 996.084 299.247 976.277 310.98 963.291C316.948 956.722 323.877 951.568 333.485 954.095C343.802 956.773 348 964.453 349.012 974.407C349.315 977.237 349.467 980.117 349.922 986.181V986.13Z" fill="black"/>
<path d="M414.858 1009.37C417.337 1002.45 419.258 993.406 423.608 985.675C432.155 970.517 450.209 970.719 459.515 985.321C470.641 1002.75 458.857 1033.63 438.931 1039.29C430.536 1041.66 422.748 1038.48 419.359 1029.99C417.084 1024.28 416.628 1017.86 414.858 1009.37Z" fill="black"/>
</g>
<defs>
<clipPath id="clip0_157_93">
<rect width="1693" height="1362" fill="white" transform="translate(154 319)"/>
</clipPath>
</defs>
</svg>
