<svg width="2000" height="2000" viewBox="0 0 2000 2000" fill="none" xmlns="http://www.w3.org/2000/svg">
<g clip-path="url(#clip0_157_92)">
<path d="M1426.26 1419.02C1425.15 1433.39 1424.41 1447.62 1422.86 1461.73C1421.57 1473.81 1419.98 1485.89 1417.51 1497.79C1409.34 1537.17 1400.93 1576.52 1392.14 1615.79C1389.4 1628.02 1385.05 1639.92 1381.46 1651.96C1379.03 1660.05 1374.49 1665.19 1365.95 1668.4C1345.5 1676.13 1324.15 1676.86 1302.88 1678.64C1265.95 1681.67 1229.14 1679.16 1192.39 1675.5C1182.94 1674.54 1173.71 1670.95 1164.44 1668.4C1155.8 1666.08 1151.33 1660.39 1150.15 1651.37C1147.19 1628.91 1143.8 1606.52 1140.55 1584.13C1140.18 1581.69 1139.51 1579.33 1138.63 1575.19C1082.05 1579.07 1025.74 1579.22 968.426 1571.53C966.248 1583.02 964.069 1594 962.112 1605C958.751 1623.55 955.612 1642.17 952.178 1660.72C950.11 1671.95 948.005 1674.09 937.001 1675.68C922.488 1677.75 907.939 1680.34 893.315 1680.97C856.461 1682.55 819.496 1683.63 783.233 1674.5C769.828 1671.14 756.497 1667.48 743.277 1663.49C731.054 1659.8 721.231 1653.11 718.573 1639.14C710.707 1639.14 703.654 1639.51 696.674 1639.07C680.832 1638.03 664.842 1637.7 649.259 1634.97C634.488 1632.34 625.071 1623.51 623.742 1606.74C622.671 1593.11 618.83 1579.7 616.098 1565.58C596.12 1564.81 576.548 1564.07 555.831 1563.29C549.258 1584.94 542.611 1606.08 536.518 1627.32C531.385 1645.24 527.323 1648.19 509.081 1651.3C464.767 1658.87 421.266 1654.07 378.282 1643.28C366.761 1640.4 355.83 1634.19 345.416 1628.17C340.32 1625.21 336 1619.75 333.046 1614.46C326.805 1603.12 321.561 1591.22 316.133 1579.44C301.768 1548.22 286.147 1517.52 273.555 1485.6C254.98 1438.56 244.493 1389.21 239.692 1338.96C236.479 1305.6 236.147 1271.98 234.965 1238.47C234.411 1222.99 234.855 1207.47 234.855 1191.99C233.857 1191.84 232.86 1191.69 231.9 1191.58C228.614 1206.07 224.958 1220.47 222.041 1235.03C213.141 1279.59 210.593 1324.85 207.232 1370.03C206.826 1375.31 207.971 1379.56 211.442 1383.89C226.693 1403.06 234.965 1425.34 238.4 1449.43C240.911 1466.9 237.292 1483.86 231.531 1500.12C226.583 1514.04 223.961 1527.46 229.205 1541.79C230.091 1544.19 229.094 1547.26 228.835 1552.62C223.85 1549.66 219.936 1548.37 217.461 1545.74C210.002 1537.8 202.801 1529.56 196.043 1520.99C176.472 1496.09 170.822 1467.31 175.29 1436.64C178.023 1418.02 183.155 1399.77 186.885 1381.3C188.879 1371.51 191.206 1361.61 191.575 1351.67C194.603 1269.24 209.633 1189.37 238.953 1112.11C244.714 1096.96 247.078 1080.52 250.549 1064.6C251.066 1062.27 249.589 1058.87 247.964 1056.88C234.891 1040.96 225.992 1023.15 223.038 1002.72C222.225 997.175 218.569 995.18 214.655 992.741C193.975 979.847 174.477 965.512 157.269 947.963C136.442 926.645 120.489 902.15 108.229 875.328C78.8343 811.264 68.6422 744.171 74.6614 674.048C80.016 611.942 97.7414 553.937 128.391 499.96C158.968 446.093 201.619 404.825 260.556 383.581C300.069 369.32 341.502 363.852 382.972 374.492C427.692 385.945 467.389 406.302 495.565 445.169C511.518 467.189 529.133 488.026 546.452 509.935C547.523 508.975 549.738 507.681 551.031 505.797C572.634 473.359 602.767 449.972 633.971 427.805C662.405 407.633 691.837 389.234 724.075 375.527C753.469 363.002 783.787 353.618 814.807 346.229C833.529 341.758 852.067 336.29 871.011 332.818C948.596 318.556 1026.88 316.155 1105.32 321.992C1176 327.276 1244.5 344.049 1310.27 370.096C1361.49 390.379 1409.49 417.054 1451.85 452.928C1462.96 462.349 1474.15 471.733 1485.42 481.265C1485.82 481.117 1486.86 481.044 1487.34 480.489C1504.47 459.837 1527.7 447.792 1551.18 436.746C1578.51 423.889 1608.09 419.27 1638.15 420.379C1657.8 421.118 1677.48 423.187 1696.87 426.327C1708.68 428.248 1720.35 432.534 1731.5 437.189C1766.47 451.82 1799.82 469.406 1827.55 495.896C1863.15 529.886 1887.89 571.117 1904.4 617.004C1916.48 650.513 1925.93 684.984 1926.85 721.154C1927.74 755.698 1924.93 789.651 1915.96 823.308C1903.07 871.67 1882.65 916.411 1855.43 958.123C1848.12 969.318 1840.29 980.438 1831.21 990.192C1807.43 1015.68 1782.69 1040.51 1752.22 1057.99C1731.58 1069.81 1709.38 1078.9 1687.71 1088.91C1683.46 1090.87 1679.07 1092.01 1677.33 1097.04C1670.39 1117.32 1653.18 1124.71 1634.16 1131.36C1630.88 1138.38 1634.16 1146.03 1634.79 1155.38C1641.47 1153.94 1647.49 1152.75 1653.44 1151.31C1664.66 1148.62 1675 1150.61 1684.79 1156.56C1693.36 1161.77 1698.71 1168.68 1697.38 1179.21C1696.09 1189.7 1692.25 1198.86 1681.87 1203.37C1676.92 1205.51 1671.57 1207.06 1666.25 1207.99C1660.23 1209.02 1657.09 1212.24 1654.4 1217.59C1636.41 1253.54 1613.37 1286.31 1584.2 1313.61C1549.6 1345.98 1512.82 1376.13 1470.65 1398.55C1456.65 1406.02 1441.8 1411.93 1426.26 1419.06V1419.02ZM1378.69 1134.98C1382.42 1133.5 1386.23 1132.1 1389.92 1130.55C1420.64 1117.54 1448.3 1099.74 1474.63 1079.19C1506.72 1054.18 1529.03 1021.97 1544.32 985.278C1555.39 958.677 1563.67 930.709 1570.9 902.742C1583.79 853.013 1582.76 802.138 1579.73 751.338C1578.88 737.151 1577.22 722.853 1574.26 708.961C1561.16 647.151 1536.01 590.181 1503.1 536.536C1486.38 509.233 1466.84 484.701 1441.99 463.679C1406.39 433.568 1367.43 409.406 1324.93 391.413C1255.73 362.152 1183.24 344.64 1108.27 339.246C1042.43 334.48 976.698 336.032 911.262 345.97C845.974 355.872 781.978 370.28 721.01 396.438C677.693 415.022 638.734 440.219 607.087 475.28C571.267 514.96 539.62 557.706 517.943 607.139C504.982 636.696 490.949 665.846 483.896 697.619C475.181 736.966 468.497 776.461 466.54 816.954C463.733 874.737 466.983 931.67 478.394 988.419C486.666 1029.54 501.843 1066.97 528.246 1099.74C535.336 1108.53 541.836 1117.84 548.52 1127C573.852 1161.66 605.167 1189.92 641.726 1212.2C696.785 1245.75 756.534 1266.8 819.829 1278.55C861.926 1286.35 904.135 1285.06 946.454 1282.36C970.79 1280.81 993.87 1273.2 1018.54 1266.73C1007.57 1246.96 997.119 1228.01 986.632 1209.1C987.555 1208.54 988.478 1207.99 989.401 1207.43C999.704 1221.62 1010.12 1235.77 1020.35 1250.03C1038.18 1274.9 1055.28 1300.39 1074 1324.59C1083.42 1336.74 1094.5 1348.31 1106.91 1357.25C1178.84 1409.12 1257.46 1437.09 1347.64 1421.53C1387.52 1414.66 1426.11 1403.69 1462.45 1385.73C1502.66 1365.86 1537 1337.44 1570.72 1308.44C1579.55 1300.83 1587.04 1291.59 1594.61 1282.65C1602.44 1273.38 1610.01 1263.81 1617.03 1253.87C1626.63 1240.24 1635.6 1226.16 1644.98 1212.05C1638.96 1207.77 1631.32 1209.1 1627.33 1201.04C1638.37 1198.09 1648.38 1195.43 1658.35 1192.69C1664 1191.14 1670.2 1190.44 1675.08 1187.56C1678.4 1185.56 1681.17 1180.65 1681.72 1176.69C1682.06 1174.26 1678.29 1169.67 1675.48 1168.71C1670.2 1166.9 1664.22 1166.13 1658.61 1166.5C1649.89 1167.09 1641.29 1169.67 1632.57 1170.12C1624.34 1170.52 1621.31 1166.94 1620.83 1158.78C1620.13 1147.51 1619.58 1136.2 1618.98 1124.93C1618.5 1115.73 1613.81 1112.26 1604.99 1114.74C1598.82 1116.44 1594.1 1120.31 1593.61 1126.74C1593.02 1134.17 1592.58 1142 1594.32 1149.13C1601.78 1179.61 1589.04 1194.91 1565.59 1214.82C1554.29 1224.39 1539.81 1230.45 1526.26 1237.06C1509.46 1245.23 1491.77 1250.18 1472.71 1247.33C1464.4 1246.08 1456.13 1244.82 1447.82 1243.75C1428.99 1241.31 1412.45 1233.48 1397.6 1222.1C1357.61 1191.4 1326.66 1153.45 1306.28 1107.09C1303.07 1099.81 1298.67 1093.09 1294.91 1086.07C1285.49 1068.41 1270.42 1057.8 1251.92 1051.45C1227.22 1042.91 1202.14 1040.18 1176.4 1045.68C1171.09 1046.83 1165.73 1048.09 1160.34 1048.6C1158.27 1048.79 1154.21 1047.05 1154.21 1046.09C1154.14 1043.65 1155.13 1040.22 1156.94 1038.92C1160.27 1036.56 1164.4 1035.19 1168.35 1033.9C1202.81 1022.48 1236.19 1026.88 1268.8 1041.03C1284.64 1047.9 1297.34 1058.47 1306.35 1073.32C1311.12 1081.15 1315.92 1088.91 1320.61 1096.56C1345.2 1098.63 1363.55 1082.08 1386.97 1076.53C1392.99 1097.41 1387.04 1115.55 1378.84 1135.09L1378.69 1134.98ZM538.328 1563.07C522.892 1561.3 507.899 1560.19 493.128 1557.75C477.47 1555.17 461.924 1551.66 446.488 1547.92C441.17 1546.63 435.114 1544.67 434.93 1536.25C437.773 1535.95 440.136 1535.33 442.463 1535.55C468.312 1538.21 494.088 1542.01 519.974 1543.56C581.201 1547.26 642.353 1547.55 702.546 1532.81C707.974 1531.48 711.556 1533 713.809 1537.91C714.843 1540.2 715.914 1542.53 716.578 1544.93C723.964 1572.01 732.051 1598.91 738.292 1626.25C740.877 1637.55 745.53 1644.43 756.756 1646.83C759.193 1647.34 761.557 1648.34 763.994 1648.93C796.232 1656.95 828.876 1662.01 862.222 1661.49C870.161 1661.38 878.138 1662.01 886.114 1662.01C902.806 1662.01 919.423 1661.38 935.524 1657.02C936.078 1654.59 936.484 1652.96 936.779 1651.33C942.392 1622.96 947.894 1594.59 953.729 1566.25C955.76 1556.35 956.203 1556.2 966.211 1556.46C975.443 1556.68 984.638 1557.57 993.87 1557.83C1024.45 1558.75 1055.02 1559.64 1085.64 1560.3C1092.28 1560.45 1099 1559.41 1105.65 1558.97C1119.02 1558.08 1132.39 1556.98 1145.79 1556.46C1152.81 1556.2 1155.98 1559.34 1157.02 1565.73C1158.31 1573.97 1159.64 1582.21 1161.01 1590.45C1164.4 1610.66 1167.87 1630.83 1171.49 1652.15C1179.88 1654.22 1188.26 1657.58 1196.86 1658.17C1221.49 1659.87 1246.27 1661.79 1270.9 1661.13C1296.38 1660.42 1321.79 1656.91 1347.2 1654.44C1356.83 1653.51 1362.78 1649.01 1365.22 1638.59C1370.31 1617.01 1377.03 1595.81 1382.5 1574.3C1394.46 1527.16 1405.32 1479.76 1410.67 1431.32C1410.93 1429.07 1410.67 1426.74 1410.67 1424.16C1390.92 1428.15 1372.2 1432.76 1353.21 1435.54C1334.2 1438.31 1314.85 1441.45 1295.79 1440.6C1249.78 1438.56 1205.61 1427.52 1163.55 1408.05C1114.03 1385.14 1072.19 1353.63 1043.8 1306.08C1040.36 1300.31 1036.63 1294.74 1032.94 1289.12C1031.17 1286.46 1029.06 1284.02 1027.77 1282.32C1011.34 1287.16 996.381 1293.04 980.834 1295.88C932.163 1304.86 883.049 1305.01 834.415 1296.84C763.551 1284.94 696.379 1261.63 634.783 1224.13C605.795 1206.47 578.062 1186.78 556.09 1160.11C548.15 1150.46 539.509 1141.41 531.57 1132.47C520.898 1138.31 511.259 1144.14 501.141 1149.02C487.035 1155.82 472.227 1157.11 457.049 1152.79C425.956 1144 399.036 1128.92 379.907 1101.95C376.805 1097.59 373.408 1093.46 370.675 1089.91C334.744 1103.02 301.066 1107.64 270.379 1078.97C269.16 1083.55 268.053 1086.32 267.72 1089.21C262.292 1135.76 252.137 1181.64 252.801 1229.08C253.466 1276.96 253.429 1324.7 261.923 1371.99C269.271 1412.85 276.952 1453.75 292.425 1492.47C305.497 1525.17 320.675 1556.98 333.932 1589.56C341.724 1608.7 355.83 1619.34 374.442 1625.66C377.211 1626.58 380.018 1627.43 382.861 1628.28C407.972 1635.6 433.711 1638.22 459.745 1639.88C477.286 1641.03 493.903 1637.7 510.669 1633.82C515.765 1632.64 518.94 1629.98 520.676 1625.36C528.172 1605.41 535.3 1585.35 538.438 1563L538.328 1563.07ZM280.46 557.041C281.199 549.061 286.369 546.548 292.019 544.701C302.691 541.265 313.548 541.671 324.331 543.962C346.118 548.58 365.284 558.223 381.827 573.408C413.031 602.078 438.955 634.701 458.231 672.533C460.077 676.154 461.998 679.701 464.693 684.799C481.643 629.085 500.07 576.142 534.044 529.923C529.908 523.974 526.585 518.617 522.707 513.74C514.361 503.248 505.203 493.346 497.301 482.521C477.877 455.921 453.615 435.231 424.59 419.788C400.328 406.857 375.18 396.401 347.521 394.369C286.369 389.825 235.482 412.472 191.353 453.741C154.721 487.989 132.306 530.625 115.947 576.992C97.8521 628.346 92.3868 681.585 94.1224 735.673C95.7103 785.143 110.001 831.547 131.198 875.771C147.225 909.17 171.597 936.325 199.884 960.044C210.15 968.653 220.009 977.815 230.202 986.497C236.59 991.928 239.212 999.022 241.76 1006.82C245.12 1017.05 249.182 1027.43 255.054 1036.41C265.689 1052.7 279.722 1066.56 296.524 1076.24C316.28 1087.62 338.252 1085.36 358.489 1077.72C373.297 1072.14 372.558 1070.22 381.864 1082.89C383.6 1085.25 385.52 1087.51 387.071 1089.98C402.987 1114.81 427.286 1127.04 454.354 1135.35C480.055 1143.26 500.292 1130.62 521.821 1119.28C515.248 1109.42 509.561 1100.62 503.652 1091.98C490.765 1073.21 479.538 1053.52 472.301 1031.9C454.501 978.628 444.531 923.764 444.014 867.643C443.608 820.205 448.814 772.988 456.311 726.141C457.419 719.122 456.939 713.099 454.723 706.634C445.86 680.513 432.123 657.201 414.915 635.698C397.559 614.011 379.833 592.546 357.196 576.326C336.738 561.696 314.212 551.684 287.772 557.817C285.667 558.297 283.23 557.373 280.35 557.041H280.46ZM1716.25 587.299C1716.07 588.592 1715.92 589.922 1715.74 591.216C1711.86 590.846 1707.87 590.92 1704.1 590.07C1685.79 585.932 1667.8 588.112 1651.33 596.092C1624.12 609.282 1602.33 629.491 1583.9 653.395C1579.8 658.715 1580.1 663.74 1581.76 669.799C1585.42 683.136 1589.11 696.511 1591.36 710.144C1596.9 743.321 1597.94 776.831 1598.12 810.451C1598.45 876.252 1583.2 938.431 1556.28 998.024C1539.81 1034.53 1516.47 1065.89 1484.83 1090.76C1474.26 1099.03 1463.52 1107.09 1452.92 1115.29C1450.7 1116.99 1448.78 1119.06 1446.05 1121.57C1458.68 1141.6 1472.09 1159.59 1496.38 1164.8C1519.76 1169.78 1542.21 1167.49 1563.11 1154.78C1572.49 1149.1 1580.84 1143.22 1578.36 1130.29C1578.07 1128.7 1578.51 1126.93 1578.77 1125.3C1580.95 1112.41 1588.63 1104.06 1600.89 1100.47C1612.82 1096.97 1623.27 1099.59 1631.02 1110.08C1631.72 1111 1632.91 1111.56 1633.72 1112.19C1649.01 1107.42 1655.32 1102.14 1661.08 1088.5C1663.59 1082.52 1666.14 1076.9 1672.94 1074.83C1701.3 1066.23 1726.85 1051.93 1751.37 1035.67C1785.23 1013.21 1815.44 986.682 1837.71 952.36C1862.71 913.862 1884.2 873.628 1893.14 827.853C1893.54 825.784 1894.13 823.789 1894.76 821.794C1906.5 783.444 1907.32 744.208 1904.62 704.602C1902.78 677.521 1894.36 651.954 1886.38 626.388C1873.49 585.267 1851.3 549.356 1821.57 518.396C1789.85 485.329 1749.56 465.452 1708.05 447.903C1702.7 445.65 1696.9 444.172 1691.14 443.137C1630.84 432.312 1574.34 442.177 1522.34 475.095C1512.41 481.376 1504.25 489.578 1497.53 499.701C1529.84 544.11 1554.25 592.028 1573.71 643.9C1577 640.316 1578.77 637.952 1580.95 636.068C1596.75 622.361 1612.19 608.137 1628.7 595.317C1642.99 584.233 1660.31 579.984 1678.18 579.023C1691.62 578.285 1704.62 580.464 1716.33 587.336L1716.25 587.299ZM1584.24 1163.39C1581.47 1163.54 1580.47 1163.28 1579.88 1163.69C1555.28 1181.16 1527.26 1184.08 1498.3 1182.83C1478.77 1181.98 1462.41 1174.66 1451.18 1158.15C1445.79 1150.24 1441.44 1141.67 1436.3 1133.54C1435.16 1131.73 1432.76 1130.66 1430.95 1129.26C1429.69 1131.51 1427.62 1133.69 1427.4 1136.05C1427.11 1139.3 1428.1 1142.67 1428.73 1145.95C1433.53 1171.89 1439.04 1197.75 1438.19 1224.39C1438.19 1225.09 1438.96 1225.79 1439.85 1227.31C1463.7 1231.34 1488.08 1236.25 1512 1225.24C1527.59 1218.07 1543.54 1211.35 1558.05 1202.33C1566.62 1197.01 1573.45 1188.22 1579.66 1179.94C1582.76 1175.81 1582.68 1169.3 1584.2 1163.36L1584.24 1163.39ZM701.069 1555.42C676.992 1558.45 653.653 1561.37 629.466 1564.4C633.38 1578.55 637.737 1592 640.692 1605.74C642.206 1612.87 645.455 1616.64 652.139 1618.75C672.597 1625.25 693.055 1623.7 714.917 1620.52C710.19 1598.28 705.722 1577.22 701.069 1555.42ZM213.252 1519.7C227.432 1481.09 231.383 1443.77 208.303 1405.39C207.159 1414.62 206.272 1421.42 205.423 1428.22C204.537 1428.29 203.65 1428.37 202.764 1428.4C200.512 1422.9 198.222 1417.43 195.305 1410.34C183.451 1457.3 189.064 1494.65 213.215 1519.7H213.252ZM1422.82 1220.73C1418.91 1191.77 1415.44 1165.87 1411.82 1138.97C1393.65 1145.99 1376.41 1152.64 1357.61 1159.92C1376.07 1183.12 1395.09 1204.11 1422.82 1220.73ZM1348.16 1147.91C1371.27 1133.58 1374.19 1111.15 1379.21 1087.65C1369.57 1093.16 1362 1098.55 1353.62 1102.03C1345.02 1105.57 1335.67 1107.24 1324.78 1110.23C1332.72 1123.05 1340.11 1134.95 1348.12 1147.91H1348.16Z" fill="black"/>
<path d="M895.642 1139.23C888.958 1134.02 883.53 1129.81 878.397 1125.78C890.472 1119.28 898.633 1123.75 907.533 1142.85C923.079 1142.63 938.072 1138.9 952.031 1131.95C965.436 1125.27 978.176 1117.29 991.544 1109.67C996.677 1111.34 997.304 1116.1 997.378 1120.65C998.117 1166.94 972.747 1217 915.177 1221.73C909.49 1222.21 903.729 1221.29 897.968 1221.03C897.858 1220.14 897.747 1219.29 897.599 1218.41C907.163 1215.56 916.654 1212.35 926.366 1209.91C943.944 1205.51 957.09 1195.13 967.504 1180.76C979.357 1164.35 982.053 1145.07 986.854 1124.67C975.702 1131.51 966.913 1137.72 957.459 1142.56C940.731 1151.13 922.821 1154.97 903.951 1152.16C896.344 1151.05 890.287 1154.42 886.41 1159.85C878.951 1170.34 872.636 1181.64 865.915 1192.69C864.955 1194.28 864.512 1196.16 863.256 1199.3C859.12 1179.02 873.411 1151.98 895.642 1139.19V1139.23Z" fill="black"/>
<path d="M866.912 902.483C866.58 906.215 866.617 910.057 865.804 913.678C861.188 934.109 849.002 939.059 830.354 932.705C825.996 931.227 821.712 925.907 819.829 921.325C813.773 906.473 814.548 891.03 819.46 875.993C822.377 867.052 831.941 860.624 840.398 860.513C850.036 860.402 857.052 865.168 860.893 875.808C863.958 884.343 865.841 893.284 868.242 902.04C867.798 902.188 867.392 902.335 866.949 902.483H866.912ZM846.011 877.471C843.771 883.604 846.011 887.508 852.732 889.183C849.962 884.38 847.968 880.944 846.011 877.471Z" fill="black"/>
<path d="M1351.33 850.205C1349.04 858.518 1347.71 867.348 1344.17 875.18C1336.63 891.769 1314 893.505 1304.36 878.062C1300.37 871.633 1298.45 863.394 1297.6 855.71C1296.83 848.801 1298.41 841.523 1299.63 834.54C1300.78 827.816 1303.58 821.498 1309.71 817.803C1325.26 808.493 1338.89 810.932 1345.53 827.816C1348.27 834.688 1349.34 842.225 1351.33 850.168V850.205ZM1337.41 839.897C1334.9 834.946 1333.61 830.882 1331.06 827.89C1329.62 826.19 1324.71 824.823 1323.89 825.71C1322.01 827.742 1320.28 831.584 1320.94 833.986C1322.93 841.19 1328.95 841.042 1337.41 839.934V839.897Z" fill="black"/>
<path d="M1163.15 1237.21C1162.74 1232.81 1161.78 1230.52 1162.56 1229.23C1164.81 1225.28 1167.21 1221.18 1170.5 1218.11C1199.12 1191.14 1233.01 1177.21 1272.53 1177.73C1279.58 1177.84 1286.45 1179.21 1294.5 1185.27C1287.52 1186.15 1282.79 1187.33 1278.07 1187.3C1236.63 1186.78 1201.52 1201.52 1171.97 1230.27C1169.94 1232.22 1167.54 1233.81 1163.18 1237.25L1163.15 1237.21Z" fill="black"/>
<path d="M1253.03 1106.09C1235.49 1107.31 1218.58 1107.86 1201.81 1109.82C1185.01 1111.82 1169.28 1117.88 1155.06 1126.96C1140.84 1136.05 1127.14 1145.96 1112.19 1156.19C1120.09 1117.65 1221.2 1082.22 1253.03 1106.09Z" fill="black"/>
<path d="M774.666 799.552C777.473 793.013 779.356 787.139 782.384 781.929C791.468 766.375 804.984 755.07 819.46 744.873C821.749 743.284 824.814 742.139 827.584 742.028C829.725 741.954 833.012 743.247 833.861 744.91C834.969 747.126 834.858 750.525 833.972 752.964C833.197 755.107 830.87 756.88 828.913 758.395C811.335 771.843 793.684 785.144 774.666 799.589V799.552Z" fill="black"/>
<path d="M1362.93 720.895C1346.24 720.895 1329.54 721.043 1312.85 720.858C1303.07 720.747 1298.78 717.792 1298.71 711.991C1298.6 705.673 1303.25 702.127 1313.89 703.974C1329.43 706.671 1344.68 711.104 1360.05 714.947C1361.41 715.279 1362.52 716.572 1363.78 717.422C1363.52 718.604 1363.22 719.75 1362.96 720.932L1362.93 720.895Z" fill="black"/>
<path d="M1252.7 1295.84C1249.6 1269.43 1304.47 1224.98 1335.23 1231.3C1296.53 1241.05 1273.6 1266.69 1252.7 1295.84Z" fill="black"/>
<path d="M846.011 877.471C848.005 880.907 849.962 884.343 852.732 889.183C846.011 887.508 843.771 883.604 846.011 877.471Z" fill="white"/>
<path d="M1337.41 839.897C1328.95 841.005 1322.93 841.153 1320.94 833.949C1320.28 831.51 1322.01 827.705 1323.89 825.673C1324.71 824.823 1329.62 826.153 1331.06 827.853C1333.61 830.882 1334.94 834.946 1337.41 839.86V839.897Z" fill="white"/>
</g>
<defs>
<clipPath id="clip0_157_92">
<rect width="1854" height="1363" fill="white" transform="translate(73 319)"/>
</clipPath>
</defs>
</svg>
