<svg width="2000" height="2000" viewBox="0 0 2000 2000" fill="none" xmlns="http://www.w3.org/2000/svg">
<g clip-path="url(#clip0_157_105)">
<path d="M1085.62 854.792C992.614 819.685 958.694 819.919 958.46 819.841L958.069 804.203C959.476 804.203 994.177 803.577 1091.17 840.092L1085.62 854.714V854.792Z" fill="black"/>
<path d="M574.553 1233.47C541.962 1235.19 514.138 1209.62 512.419 1176.31L510.777 1144.41C509.058 1111.1 534.068 1082.8 566.66 1081.08C599.251 1079.36 627.075 1104.92 628.794 1138.23L630.435 1170.13C632.155 1203.44 607.145 1231.75 574.553 1233.47Z" fill="white"/>
<path d="M571.427 1239.41C555.327 1239.41 540.008 1233.39 527.894 1222.37C514.998 1210.56 507.417 1194.29 506.479 1176.62L504.838 1144.72C502.962 1108.29 530.473 1077.09 566.269 1075.21C583.62 1074.27 600.267 1080.29 613.163 1092.18C626.059 1103.99 633.64 1120.25 634.578 1137.84L636.219 1169.74C638.095 1206.18 610.505 1237.38 574.788 1239.25C573.615 1239.25 572.521 1239.33 571.349 1239.33L571.427 1239.41ZM569.786 1086.86C568.848 1086.86 567.91 1086.86 566.972 1086.86C537.663 1088.43 515.076 1114.07 516.639 1144.02L518.281 1175.92C519.062 1190.46 525.315 1203.83 535.866 1213.61C546.417 1223.3 560.016 1228.23 574.241 1227.53C603.55 1225.96 626.137 1200.32 624.574 1170.37L622.932 1138.47C622.151 1123.92 615.898 1110.55 605.347 1100.78C595.499 1091.71 582.916 1086.78 569.786 1086.78V1086.86Z" fill="black"/>
<path d="M628.794 1138.15C627.856 1120.17 619.259 1104.45 606.441 1094.05C601.674 1092.57 596.75 1091.87 591.592 1092.18C562.83 1093.66 541.024 1124.24 542.9 1160.52C544.776 1196.72 569.63 1224.87 598.391 1223.38C600.971 1223.23 603.55 1222.76 606.051 1222.21C621.76 1210.64 631.608 1191.4 630.514 1170.21L628.873 1138.31L628.794 1138.15Z" fill="black"/>
<path d="M678.658 1282.02C668.264 1282.02 658.494 1279.05 650.913 1273.5C643.879 1268.34 639.267 1261.15 638.095 1253.25C635.125 1234.02 652.398 1215.33 676.548 1211.65C689.991 1209.54 703.2 1212.44 712.813 1219.47C719.847 1224.63 724.458 1231.83 725.631 1239.72C728.6 1258.96 711.328 1277.65 687.177 1281.32C684.286 1281.79 681.472 1281.95 678.658 1281.95V1282.02ZM685.145 1218.77C682.722 1218.77 680.221 1218.92 677.72 1219.32C657.869 1222.37 643.488 1237.07 645.832 1252C646.77 1257.86 650.131 1263.1 655.524 1267.17C663.496 1273.03 674.594 1275.3 686.005 1273.58C705.857 1270.53 720.238 1255.83 717.893 1240.9C716.955 1235.03 713.594 1229.79 708.202 1225.73C701.949 1221.19 693.821 1218.69 685.145 1218.69V1218.77Z" fill="black"/>
<path d="M258.801 1373.74C144.926 1373.74 113.116 1269.2 112.804 1268.03L120.307 1265.84C121.792 1270.92 158.056 1389.54 299.051 1361.78C314.292 1358.73 331.564 1354.74 349.853 1350.52C459.116 1325.26 624.183 1287.03 862.483 1333.71L860.998 1341.37C624.34 1295 460.21 1333 351.573 1358.18C333.206 1362.4 315.933 1366.47 300.536 1369.44C285.53 1372.41 271.618 1373.74 258.801 1373.74Z" fill="black"/>
<path d="M1100.86 1329.1L1098.75 1321.59C1371.6 1244.81 1638.74 996.473 1587.78 778.947L1595.36 777.149C1620.13 882.863 1574.57 1001.71 1467.26 1111.88C1371.21 1210.4 1234.27 1291.64 1100.86 1329.17V1329.1Z" fill="black"/>
<path d="M808.242 1434.18C682.801 1434.18 577.289 1416.43 518.906 1404C489.675 1397.75 458.803 1399.08 429.807 1407.83C286.624 1450.92 182.05 1416.28 131.952 1369.44C104.441 1343.72 91.5449 1312.99 97.4067 1287.11C107.254 1243.79 166.966 1222.68 219.722 1204.15C257.081 1190.93 295.69 1177.33 304.053 1159.27C304.522 1157.62 304.288 1150.43 304.053 1144.02C302.724 1106.96 299.52 1020.16 379.084 917.501C460.679 812.335 697.807 792.005 740.246 789.112C771.665 627.649 887.884 541.874 1085.85 534.055C1093.67 533.664 1100.24 536.948 1104.22 543.125C1129.15 581.595 1044.51 760.729 1018.87 813.117C1060.06 829.067 1255.92 899.908 1388.56 859.405C1502.12 824.845 1525.25 786.141 1529.94 771.676C1403.41 748.297 1349.17 648.917 1327.98 590.899C1304.46 526.627 1301.8 461.416 1315.17 446.013C1324.86 434.909 1337.05 429.827 1351.43 431.156C1419.35 437.021 1522.67 592.541 1554.4 642.661C1586.14 572.681 1752.53 506.532 1843.66 484.639C1872.89 477.68 1890.48 479.4 1899 490.112C1912.68 507.314 1896.57 539.528 1876.25 580.344C1866.41 600.048 1856.25 620.455 1848.66 640.707C1819.98 716.942 1643.35 771.285 1602 783.091C1609.27 803.968 1625.06 861.986 1611.07 940.332C1595.12 1029.23 1535.73 1162.08 1343.23 1289.92C1279.37 1332.3 1207.23 1365.84 1128.92 1389.61L1121.1 1391.96L1119.07 1384.06C1112.98 1360.37 1104.77 1342.78 1093.98 1330.27L1105.86 1320.1C1116.96 1333 1125.56 1350.13 1132.05 1372.26C1205.98 1349.03 1274.06 1316.98 1334.63 1276.86C1522.05 1152.46 1579.96 1024.23 1595.59 938.612C1612.48 846.035 1584.89 781.684 1584.57 781.059L1580.9 772.692L1589.73 770.346C1591.84 769.799 1805.13 712.329 1834.13 635.233C1842.02 614.2 1852.34 593.48 1862.42 573.385C1877.43 543.281 1894.39 509.269 1886.88 499.808C1885.01 497.462 1877.35 492.692 1847.41 499.808C1749.25 523.343 1570.9 597.858 1564.96 662.522L1562.77 686.292L1550.5 665.884C1514.86 606.694 1409.42 451.877 1350.18 446.716C1340.88 445.934 1333.3 449.062 1327.05 456.255C1321.34 462.823 1317.9 517.479 1342.76 585.504C1363.23 641.41 1416.07 738.132 1540.26 757.523L1546.35 758.461L1546.9 764.56C1547.45 770.816 1547.61 827.347 1393.25 874.34C1239.67 921.098 1014.73 828.364 1005.2 824.454L997.46 821.248L1001.21 813.742C1044.82 726.012 1107.82 577.216 1091.25 551.648C1090.54 550.553 1089.68 549.537 1086.64 549.693C894.527 557.278 782.841 640.785 754.627 797.948L753.533 804.047L747.358 804.359C744.623 804.516 475.06 819.528 391.589 927.04C315.464 1025.17 318.512 1107.97 319.841 1143.39C320.232 1154.97 320.466 1161.3 318.434 1165.76C307.336 1189.84 269.195 1203.29 225.115 1218.85C176.267 1236.13 120.854 1255.67 112.882 1290.55C108.27 1310.88 119.447 1336.13 142.816 1357.95C189.71 1401.81 288.578 1433.95 425.509 1392.82C457.084 1383.36 490.613 1381.95 522.423 1388.68C593.468 1403.77 734.931 1426.91 896.638 1415.5C880.928 1392.43 866.938 1367.33 854.902 1340.82L869.126 1334.33C882.726 1364.36 898.904 1392.35 917.271 1417.69L925.399 1428.94L911.565 1430.12C876.16 1433.01 841.615 1434.26 808.477 1434.26L808.242 1434.18Z" fill="black"/>
<path d="M1166.75 1570C1061.7 1568.83 971.199 1519.33 904.375 1426.83C885.461 1400.72 868.657 1371.79 854.667 1340.82C838.254 1304.62 831.377 1278.9 831.064 1277.8L846.148 1273.81C846.148 1273.81 853.026 1299.38 868.814 1334.33C882.413 1364.36 898.591 1392.35 916.958 1417.69C981.672 1507.29 1065.53 1553.27 1166.2 1554.44C1166.43 1554.44 1168.39 1553.74 1168.7 1552.95C1168.7 1552.95 1170.81 1546.86 1154.71 1528.79C1140.1 1512.22 1135.48 1481.25 1130.25 1445.36C1127.28 1425.03 1124.15 1404 1118.92 1384.3C1112.74 1360.61 1104.53 1343.01 1093.83 1330.5C1089.37 1325.19 1084.29 1320.73 1078.66 1317.05C1014.81 1275.93 948.924 1254.74 948.299 1254.5L953.067 1239.57C955.802 1240.43 1021.53 1261.62 1087.18 1303.84C1094.22 1308.37 1100.47 1313.93 1105.86 1320.34C1118.13 1334.65 1127.43 1354.27 1134.16 1380.31C1139.55 1400.8 1142.75 1422.3 1145.8 1443.02C1150.57 1475.08 1155.02 1505.26 1166.51 1518.32C1182.07 1535.83 1187.38 1548.65 1183.24 1558.82C1179.17 1568.83 1168 1569.92 1166.75 1570Z" fill="black"/>
<path d="M1511.97 722.338C1462.02 708.341 1403.02 620.221 1400.51 616.468L1407 612.167C1407.63 613.027 1466.95 701.617 1514.08 714.831L1511.97 722.338Z" fill="black"/>
<path d="M1532.68 706.934C1508.68 695.831 1450.38 599.109 1443.81 588.085L1450.53 584.097C1468.04 613.418 1517.51 691.296 1535.96 699.819L1532.68 706.934Z" fill="black"/>
<path d="M1611.07 738.054L1607.71 731.017C1652.1 709.671 1739.56 665.415 1753.08 651.028L1758.79 656.423C1740.89 675.423 1616.38 735.552 1611.15 738.054H1611.07Z" fill="black"/>
<path d="M1584.26 684.181L1580.35 677.378C1581.37 676.753 1682.5 617.797 1697.04 593.714L1703.76 597.78C1688.21 623.505 1588.56 681.679 1584.34 684.181H1584.26Z" fill="black"/>
<path d="M1596.22 711.704L1593.33 704.432C1594.27 704.041 1690.71 665.884 1709.94 635.468L1716.58 639.612C1696.03 672.218 1600.28 710.062 1596.22 711.704Z" fill="black"/>
</g>
<defs>
<clipPath id="clip0_157_105">
<rect width="1808" height="1139" fill="white" transform="translate(96 431)"/>
</clipPath>
</defs>
</svg>
