<svg width="2000" height="2000" viewBox="0 0 2000 2000" fill="none" xmlns="http://www.w3.org/2000/svg">
<g clip-path="url(#clip0_157_104)">
<path d="M1343.46 1413.3C1321.73 1413.3 1298.77 1408.07 1274.03 1392.7C1209.62 1352.96 1193.68 1286.61 1193.02 1283.83L1214.75 1278.71C1214.86 1279.26 1229.57 1338.93 1285.85 1373.67C1329.31 1400.5 1364.63 1390.81 1405.42 1379.46C1446.88 1367.99 1493.79 1354.97 1552.75 1383.46L1543.05 1403.5C1491.68 1378.68 1452.67 1389.48 1411.44 1400.83C1389.6 1406.84 1367.2 1413.08 1343.57 1413.08L1343.46 1413.3Z" fill="black"/>
<path d="M1190.9 1666.35C1174.29 1666.35 1156.02 1665.34 1135.85 1663.45C1032.99 1653.77 1018.16 1488 1009.36 1388.92C1006.8 1360.42 1004.79 1337.93 1001.45 1328.14C996.323 1313.22 989.079 1303.31 980.498 1299.41C972.586 1295.85 966.011 1298.52 965.676 1298.63L961.219 1288.39C961.219 1288.39 972.251 1283.72 984.733 1289.17C996.434 1294.29 1005.68 1306.2 1011.92 1324.57C1015.71 1335.59 1017.83 1358.75 1020.39 1388.03C1028.86 1483.55 1043.13 1643.52 1136.85 1652.43C1267.46 1664.79 1310.03 1634.4 1361.4 1557.13L1370.65 1563.26C1320.28 1639.07 1276.71 1666.46 1190.79 1666.46L1190.9 1666.35Z" fill="black"/>
<path d="M550.782 1615.58C489.378 1615.58 437.893 1598.66 434.55 1597.55L438.116 1586.97C439.453 1587.42 570.284 1630.39 661.777 1578.73C731.985 1539.1 774.667 1465.29 812.334 1400.05C852.23 1331.03 886.665 1271.58 942.051 1281.04L940.156 1292.07C892.46 1283.83 861.368 1337.6 822.029 1405.73C783.582 1472.19 740.12 1547.45 667.238 1588.53C630.574 1609.24 588.784 1615.69 550.782 1615.69V1615.58Z" fill="black"/>
<path d="M130.205 1423.99C121.178 1423.99 112.82 1421.2 105.131 1415.75C77.159 1395.49 69.2467 1344.72 68.9124 1342.61L79.945 1340.94C79.945 1340.94 87.4115 1389.25 111.594 1406.73C119.061 1412.08 127.084 1413.97 136.223 1412.3C156.839 1408.74 178.904 1386.58 202.307 1363.2C233.287 1332.14 265.382 1299.97 303.161 1299.97C329.238 1299.97 358.101 1315.22 388.525 1331.25C434.995 1355.86 483.026 1381.24 524.817 1354.41C560.923 1331.25 573.516 1296.85 585.775 1263.68C597.253 1232.39 609.177 1200.11 640.604 1180.07C704.682 1139.1 768.872 1152.46 786.591 1180.07L777.23 1186.08C764.526 1166.27 708.471 1150.01 646.621 1189.53C618.315 1207.68 607.506 1236.74 596.25 1267.68C583.434 1302.64 570.062 1338.82 530.834 1363.98C483.583 1394.26 430.315 1366.21 383.287 1341.38C354.089 1325.91 326.452 1311.32 303.161 1311.32C270.063 1311.32 239.64 1341.83 210.219 1371.33C185.591 1396.04 162.3 1419.42 138.117 1423.54C135.442 1423.99 132.768 1424.21 130.093 1424.21L130.205 1423.99Z" fill="black"/>
<path d="M545.544 1133.42L534.512 1132.2C537.855 1100.25 499.185 1093.01 439.676 1085.55C404.46 1081.21 371.14 1077.09 351.86 1062.95C317.091 1037.57 330.575 983.801 343.614 931.923C356.095 882.271 367.908 835.402 337.039 820.039C302.269 802.672 270.954 810.688 243.317 817.701C226.378 822.043 210.331 826.051 195.286 824.047C187.82 823.045 181.69 819.26 177.01 812.692C157.842 785.973 170.658 719.066 171.215 716.282L182.136 718.398C178.681 736.433 172.552 787.309 186.037 806.235C188.823 810.242 192.389 812.358 196.735 813.026C209.662 814.807 224.706 810.91 240.531 806.903C270.063 799.332 303.495 790.871 341.942 810.131C380.724 829.502 367.351 883.05 354.312 934.706C342.165 983.133 329.572 1033.12 358.324 1054.05C375.263 1066.41 408.695 1070.52 441.013 1074.53C494.727 1081.21 550.336 1088.11 545.544 1133.31V1133.42Z" fill="black"/>
<path d="M1390.93 733.761C1387.03 733.761 1383.13 733.204 1379.23 732.091C1344.58 722.405 1316.27 671.195 1285.51 610.299C1255.98 551.853 1225.78 486.504 1240.6 449.432C1245.39 437.409 1254.64 428.948 1268.02 424.161C1328.3 402.897 1392.61 469.582 1426.82 540.609C1459.8 609.186 1469.61 693.015 1417.01 725.634C1408.43 730.978 1399.63 733.649 1390.93 733.649V733.761ZM1271.69 434.737C1261.33 438.41 1254.53 444.645 1250.85 453.662C1238.37 484.834 1264.89 544.95 1295.32 605.29C1324.85 663.736 1351.82 712.943 1382.13 721.404C1391.71 724.075 1401.19 722.405 1410.99 716.282C1457.69 687.337 1447.43 609.631 1416.57 545.507C1383.47 476.707 1322.96 416.479 1271.58 434.737H1271.69Z" fill="black"/>
<path d="M1126.26 453.885C1104.53 453.885 1087.04 444.533 1077.67 430.729C1063.86 410.356 1069.65 385.419 1092.38 367.273C1117.12 347.568 1149.33 351.13 1169.5 360.259C1189.34 369.165 1202.04 384.417 1202.82 400.114C1203.27 410.579 1198.81 426.053 1174.4 439.969C1157.24 449.766 1140.75 453.996 1126.26 453.996V453.885ZM1135.18 364.044C1123.03 364.044 1110.21 367.273 1099.41 375.956C1077.67 393.323 1078.68 412.471 1086.92 424.495C1099.74 443.309 1131.95 451.324 1168.94 430.172C1184.32 421.377 1192.24 411.135 1191.68 400.559C1191.12 389.093 1180.87 377.626 1164.93 370.39C1156.69 366.716 1146.21 364.044 1135.18 364.044Z" fill="black"/>
<path d="M1185.55 576.122C1176.08 576.122 1167.5 572.559 1160.36 565.546C1148.44 553.856 1143.31 533.929 1148.44 519.345C1152.01 508.88 1160.14 502.535 1171.06 501.31C1196.92 498.304 1219.87 517.675 1224.33 536.823C1228.12 552.966 1219.09 566.659 1200.15 573.45C1195.13 575.231 1190.23 576.122 1185.55 576.122ZM1172.29 512.332C1165.6 513.111 1161.14 516.673 1158.91 523.019C1155.24 533.706 1159.25 548.958 1168.16 557.642C1173.4 562.874 1182.65 567.995 1196.36 562.985C1210.07 557.976 1215.97 549.849 1213.52 539.273C1210.18 525.023 1191.46 510.105 1172.29 512.332Z" fill="black"/>
<path d="M1310.25 857.556C1293.31 857.556 1277.49 848.539 1264.89 831.506C1241.16 799.444 1233.91 746.341 1249.74 720.067C1257.43 707.376 1270.02 701.587 1285.18 703.925C1330.09 710.716 1363.41 758.921 1365.3 797.996C1366.75 827.721 1351.15 848.984 1322.62 856.109C1318.5 857.111 1314.37 857.668 1310.25 857.668V857.556ZM1278.6 714.501C1270.24 714.501 1263.89 718.175 1259.32 725.745C1245.73 748.233 1252.86 796.438 1273.81 824.826C1282.84 837.072 1298.22 850.543 1319.83 845.088C1351.26 837.295 1354.83 812.469 1354.16 798.33C1352.49 763.596 1323.07 720.735 1283.51 714.724C1281.83 714.501 1280.16 714.279 1278.6 714.279V714.501Z" fill="black"/>
<path d="M999.666 385.085C983.173 385.085 969.688 379.741 961.887 369.722C954.867 360.704 953.641 349.126 958.544 338.773C966.011 323.076 985.067 313.613 1010.81 312.945C1035.66 312.388 1058.28 327.529 1060.4 346.12C1061.29 354.581 1058.84 375.177 1016.27 383.415C1010.59 384.528 1005.01 385.085 999.777 385.085H999.666ZM1011.03 324.078C989.859 324.634 974.034 331.871 968.462 343.56C965.342 350.128 966.122 357.142 970.58 362.931C978.269 372.728 994.428 376.401 1013.93 372.616C1037.22 368.052 1050.37 358.7 1049.15 347.456C1047.92 335.99 1031.76 323.521 1010.92 324.189L1011.03 324.078Z" fill="black"/>
<path d="M1664.74 1717C1572.36 1717 1502.04 1614.36 1454.46 1545.11C1443.09 1528.52 1433.17 1514.16 1425.15 1504.48C1405.53 1480.88 1392.72 1484.55 1366.97 1492.12C1344.35 1498.69 1316.27 1506.93 1274.81 1498.13C1222.88 1487.11 1180.65 1438.46 1153.57 1397.94C1160.92 1432.11 1169.17 1473.19 1173.62 1504.25C1174.96 1513.72 1176.08 1523.18 1177.19 1532.53C1181.43 1569.16 1185.55 1603.67 1201.48 1615.92C1207.17 1620.26 1214.64 1621.82 1224.22 1620.48C1247.51 1617.25 1279.05 1593.54 1304.34 1574.39C1335.1 1551.23 1351.82 1539.32 1365.08 1544.33C1368.31 1545.56 1374 1548.9 1375.89 1558.03C1379.79 1576.62 1372.1 1602.89 1355.94 1626.38C1339.11 1650.98 1297.77 1694.29 1210.51 1708.87C1161.81 1717 1111.89 1703.42 1065.97 1669.69C1009.03 1627.83 963.559 1557.25 955.424 1498.24C950.632 1463.4 956.315 1423.99 961.442 1389.14C966.345 1355.19 971.471 1320.01 961.776 1310.32C960.773 1309.32 957.653 1306.32 947.4 1307.65C924.22 1310.99 906.947 1347.84 885.105 1394.6C856.13 1456.5 816.569 1541.33 735.997 1598.66C620.098 1681.04 480.686 1635.18 436.778 1610.57C416.719 1599.33 414.49 1592.2 414.825 1586.75C415.159 1582.07 418.056 1578.29 422.625 1576.51C427.752 1574.5 436.667 1573.39 454.72 1571.27C509.884 1564.7 624.667 1551.01 635.7 1486.44C646.287 1424.1 678.828 1376.79 702.676 1342.39C708.025 1334.7 712.817 1327.69 716.718 1321.46C735.997 1290.62 769.652 1243.97 775.893 1235.51C779.125 1224.71 782.468 1203 773.664 1196.1C768.315 1191.87 749.147 1186.42 686.294 1225.83C662.446 1240.85 663.672 1266.91 665.009 1297.08C667.126 1342.83 669.801 1399.83 568.056 1413.3C484.586 1424.32 431.206 1406.51 388.302 1392.26C349.855 1379.46 322.106 1370.22 287.559 1385.69C259.922 1398.05 237.188 1412.41 217.017 1425.1C179.462 1448.81 149.818 1467.52 118.504 1451.04C78.4963 1430 57.5454 1364.65 61.4459 1344.5C63.4518 1333.92 71.1412 1332.37 73.4815 1332.14C84.4027 1330.92 91.4234 1342.05 101.342 1357.41C107.248 1366.54 118.392 1383.69 124.298 1384.36C124.744 1384.36 125.413 1384.02 126.416 1383.13C131.988 1378.01 138.34 1362.31 145.026 1345.72C161.185 1305.65 185.591 1245.09 242.871 1210.91C296.474 1178.96 353.198 1207.9 398.777 1231.06C423.294 1243.53 446.362 1255.33 457.729 1250.65C486.035 1238.85 530.612 1181.85 530.277 1150.12C530.277 1141.33 526.6 1136.1 518.799 1132.98C502.751 1126.74 481.466 1128.86 456.726 1131.42C410.59 1136.21 353.309 1142.11 304.164 1090.34C261.036 1045.03 284.439 989.479 303.272 944.837C320.1 904.982 329.461 879.71 311.185 864.347C286.11 843.084 268.168 850.32 247.329 858.67C229.053 865.906 208.436 874.255 185.925 858.002C149.818 831.951 138.897 742.667 155.502 715.948C161.408 706.486 171.438 703.591 181.022 708.712C198.964 718.286 200.301 736.878 201.304 750.46C202.641 768.606 204.313 773.282 216.571 774.395C229.053 775.62 246.215 768.272 266.163 759.811C302.158 744.448 346.957 725.411 396.548 743.78C444.356 761.481 439.119 823.379 434.104 883.162C430.538 925.688 426.86 969.774 443.353 990.926C466.422 1020.32 547.551 1039.8 616.867 1032.56C646.956 1029.45 699.89 1018.42 719.949 980.239C719.727 973.114 713.597 930.698 607.729 854.551C543.093 808.016 506.317 659.394 557.023 520.458C592.795 423.159 698.553 262.959 1006.46 286.338C1297.32 308.269 1413 436.184 1458.91 539.607C1508.95 652.381 1492.01 779.85 1446.65 838.074C1401.41 896.187 1342.46 913.331 1294.98 927.136C1252.86 939.382 1228.68 947.397 1222.88 970.553C1212.41 1011.86 1203.6 1109.16 1242.72 1146C1259.21 1161.59 1283.51 1164.48 1314.82 1154.69C1378.23 1134.87 1387.7 1078.99 1397.62 1019.87C1406.98 964.319 1416.68 906.874 1470.84 874.923C1535.81 836.627 1590.08 868.689 1638 896.966C1673.55 918.007 1707.09 937.823 1740.86 927.136C1786.66 912.663 1794.02 880.935 1799.36 857.779C1802.26 845.088 1804.83 834.066 1813.96 829.279C1819.2 826.496 1825.44 826.496 1832.57 829.279C1853.19 837.295 1869.8 870.248 1872.02 907.654C1874.92 956.081 1854.19 995.936 1814.97 1016.98C1768.72 1041.8 1717.9 1019.43 1673.1 999.61C1637.22 983.801 1606.35 970.108 1589.86 986.25C1570.02 1005.73 1567.9 1035.46 1565.56 1069.75C1563.11 1105.7 1560.32 1146.34 1536.81 1186.19C1526.45 1203.67 1513.52 1218.26 1499.59 1230.39C1539.48 1221.04 1583.28 1213.91 1620.73 1215.58C1675.55 1217.92 1700.63 1251.32 1722.8 1280.82C1741.75 1306.09 1756.91 1325.69 1786.55 1324.8C1821.76 1323.35 1843.72 1283.83 1861.44 1251.99C1874.36 1228.72 1884.62 1210.35 1899.33 1207.46C1903.67 1206.57 1910.36 1206.79 1917.6 1212.36C1935.1 1226.16 1942.9 1263.12 1936.88 1304.53C1927.41 1369.88 1889.07 1421.87 1834.13 1443.69C1759.47 1473.42 1667.75 1420.43 1600.78 1381.68C1569.46 1363.54 1539.71 1346.39 1526.89 1347.39C1504.83 1348.95 1478.08 1360.53 1457.35 1371.33C1500.37 1371.55 1567.12 1379.46 1603.34 1421.32C1630.42 1452.6 1643.68 1501.25 1655.38 1544.11C1664.74 1578.51 1675.33 1617.36 1689.15 1618.7C1704.75 1620.26 1716.01 1606.23 1725.81 1593.98C1733.95 1583.96 1741.19 1575.39 1751 1576.06C1756.91 1576.51 1761.92 1580.29 1765.93 1587.3C1773.51 1600.77 1789.67 1635.29 1774.29 1666.35C1761.47 1692.29 1730.49 1708.98 1682.24 1715.78C1676.22 1716.67 1670.43 1717 1664.63 1717H1664.74ZM1394.5 1466.85C1409.32 1466.85 1424.26 1472.64 1440.19 1491.9C1448.77 1502.25 1458.91 1516.95 1470.5 1533.98C1518.31 1603.67 1590.41 1708.98 1679.57 1696.4C1721.13 1690.5 1747.1 1677.48 1756.91 1657.66C1768.05 1634.95 1755.12 1607.68 1748.99 1596.88C1746.76 1599.1 1743.53 1603 1741.08 1606.12C1730.05 1619.81 1713.44 1640.63 1687.37 1638.07C1660.18 1635.51 1649.81 1597.44 1636.66 1549.23C1625.52 1508.37 1612.92 1462.06 1588.74 1434.12C1540.38 1378.23 1420.69 1392.59 1419.46 1392.82L1379.12 1397.94L1412.78 1375.12C1415.45 1373.33 1477.64 1331.48 1525.55 1328.14C1544.5 1326.8 1572.25 1342.83 1610.58 1365.1C1674.11 1401.83 1761.03 1452.04 1827 1425.88C1898.66 1397.38 1914.48 1323.9 1917.71 1301.97C1923.18 1264.34 1915.6 1235.73 1905.68 1227.94C1905.23 1227.61 1904.12 1226.61 1903.34 1226.83C1897.43 1228.05 1886.51 1247.53 1878.6 1261.78C1859.54 1295.85 1833.58 1342.61 1787.55 1344.5C1747.54 1346.06 1727.04 1319.01 1707.31 1292.73C1686.81 1265.46 1665.64 1237.18 1620.06 1235.29C1565.23 1233.06 1493.79 1250.87 1444.43 1265.9C1413 1280.6 1386.81 1285.61 1384.69 1285.94L1379.46 1267.24C1381.8 1266.35 1404.31 1257.67 1436.74 1247.76C1465.71 1234.06 1499.37 1211.8 1520.21 1176.51C1541.38 1140.55 1543.94 1104.03 1546.28 1068.63C1548.73 1031.89 1551.19 997.272 1576.26 972.557C1602.11 947.174 1640.45 964.096 1681.01 982.02C1721.8 1000.05 1767.94 1020.43 1805.83 1000.05C1851.52 975.452 1853.75 928.249 1852.63 909.101C1850.74 877.929 1837.14 852.213 1825.55 847.648C1823.55 846.869 1822.66 846.98 1822.66 846.869C1821.76 848.094 1819.87 856.332 1818.53 862.343C1812.85 886.947 1803.38 928.026 1746.99 945.839C1704.97 959.198 1665.97 936.153 1628.3 913.888C1580.83 885.833 1536.03 859.338 1480.98 891.845C1434.62 919.12 1426.04 969.663 1417.12 1023.21C1406.65 1085.55 1395.73 1149.9 1320.84 1173.39C1282.28 1185.41 1251.52 1181.07 1229.57 1160.25C1185.77 1118.95 1190.79 1019.09 1204.27 965.877C1213.19 930.809 1248.74 920.456 1289.86 908.433C1334.55 895.408 1390.15 879.265 1431.61 826.162C1466.94 780.852 1493.24 664.404 1441.42 547.511C1397.73 448.987 1286.51 326.972 1005.35 305.82C709.808 283.555 609.289 434.959 575.634 527.249C529.274 654.273 560.589 796.549 619.43 838.853C746.361 930.03 740.566 979.459 739.452 984.803L738.671 987.141C721.175 1022.77 678.716 1045.7 619.207 1052.04C541.533 1060.17 455.835 1038.24 428.309 1003.06C407.024 975.897 411.036 928.026 414.936 881.714C419.617 826.719 423.963 774.84 389.973 762.26C347.737 746.675 308.622 763.262 274.075 777.958C251.787 787.42 232.507 795.547 215.011 793.989C184.922 791.094 183.251 767.604 182.136 752.018C181.133 738.882 180.242 730.532 172.552 726.191C170.435 729.196 167.315 739.216 167.76 757.919C168.54 789.647 179.016 828.834 197.738 842.305C210.888 851.767 221.921 848.094 240.42 840.746C262.485 831.951 290.011 820.818 324.112 849.652C354.201 875.035 337.596 914.556 321.549 952.63C303.272 996.158 284.327 1041.13 318.54 1077.09C361.11 1121.85 411.036 1116.73 455.055 1112.16C481.132 1109.49 505.76 1106.93 526.154 1114.94C541.31 1120.84 549.779 1133.31 550.002 1150.01C550.448 1192.87 497.625 1255.33 465.419 1268.8C445.805 1276.92 419.951 1263.79 390.085 1248.54C346.623 1226.38 297.366 1201.22 253.013 1227.72C201.415 1258.56 179.35 1313.22 163.191 1353.07C154.722 1374.11 148.593 1389.37 139.789 1397.49C133.214 1403.61 126.527 1404.28 122.07 1403.73C107.025 1401.83 95.8811 1384.69 85.0713 1367.99C84.2912 1366.77 83.3997 1365.43 82.5082 1364.09C87.9688 1385.69 103.682 1421.2 127.753 1433.9C148.147 1444.69 168.875 1432.67 206.765 1408.74C227.381 1395.71 250.784 1380.9 279.758 1367.99C321.214 1349.4 355.204 1360.75 394.654 1373.89C435.664 1387.47 486.592 1404.51 565.715 1394.04C649.742 1382.91 647.847 1343.61 645.73 1298.08C644.281 1266.35 642.498 1230.39 676.042 1209.35C730.648 1175.06 766.643 1165.71 785.811 1180.74C808.099 1198.22 795.506 1238.41 794.057 1242.97L792.72 1245.64C792.72 1245.64 753.827 1299.08 733.434 1331.7C729.422 1338.15 724.407 1345.39 718.946 1353.41C696.213 1386.36 665.12 1431.67 655.202 1489.78C641.718 1568.71 517.239 1583.63 457.395 1590.76C452.937 1591.31 448.368 1591.87 444.356 1592.31C459.401 1601.11 489.713 1614.25 530.5 1621.48C581.874 1630.5 657.32 1631.17 725.076 1582.96C801.413 1528.64 838.3 1449.82 867.831 1386.58C892.125 1334.48 911.405 1293.29 945.06 1288.61C958.321 1286.72 968.797 1289.5 976.04 1296.74C992.645 1313.44 987.63 1348.17 981.167 1392.15C976.263 1425.66 970.691 1463.62 975.149 1495.68C981.501 1541.55 1018.83 1610.68 1077.9 1654.1C1106.87 1675.36 1152.9 1698.85 1207.61 1689.84C1287.74 1676.48 1324.96 1637.62 1340.12 1615.58C1354.49 1594.54 1359.06 1574.39 1357.17 1563.15C1349.37 1565.26 1330.42 1579.51 1316.38 1590.09C1287.85 1611.57 1255.65 1635.95 1227.23 1639.85C1212.41 1641.97 1199.81 1639.07 1189.9 1631.5C1167.5 1614.25 1162.93 1575.73 1158.25 1534.98C1157.13 1525.74 1156.02 1516.39 1154.79 1507.15C1145.88 1444.36 1120.8 1339.16 1120.47 1338.04L1138.86 1331.81C1139.41 1333.15 1198.48 1462.06 1279.27 1479.21C1316.05 1487 1340.45 1479.87 1361.96 1473.53C1373.1 1470.3 1383.91 1467.07 1394.83 1467.07L1394.5 1466.85Z" fill="black"/>
<path d="M1050.59 1080.32C1043.68 1105.59 1064.52 1133.31 1097.18 1142.33C1129.83 1151.24 1161.81 1137.99 1168.72 1112.72C1175.63 1087.45 1154.79 1059.73 1122.14 1050.71C1089.49 1041.8 1057.5 1055.05 1050.59 1080.32Z" fill="white"/>
<path d="M1117.68 1149.23C1110.55 1149.23 1103.31 1148.23 1096.17 1146.23C1061.4 1136.65 1039.23 1106.59 1046.69 1079.1C1049.81 1067.74 1057.39 1058.39 1068.65 1051.93C1083.91 1043.14 1103.86 1041.25 1123.36 1046.59C1158.13 1056.16 1180.31 1086.22 1172.84 1113.72C1169.72 1125.07 1162.15 1134.43 1150.89 1140.88C1141.31 1146.34 1129.83 1149.23 1117.79 1149.23H1117.68ZM1101.75 1052.04C1091.16 1052.04 1081.13 1054.49 1072.77 1059.28C1063.41 1064.62 1057.17 1072.19 1054.72 1081.43C1048.48 1104.48 1067.98 1129.97 1098.29 1138.32C1115.56 1143.11 1133.17 1141.44 1146.66 1133.76C1156.02 1128.41 1162.26 1120.84 1164.71 1111.6C1170.95 1088.56 1151.45 1063.07 1121.14 1054.72C1114.67 1052.94 1108.1 1052.04 1101.75 1052.04Z" fill="black"/>
<path d="M729.31 1024.99C719.392 1049.26 736.665 1079.32 767.98 1092.12C799.295 1104.92 832.616 1095.68 842.534 1071.42C852.452 1047.15 835.179 1017.09 803.864 1004.29C772.549 991.483 739.229 1000.72 729.31 1024.99Z" fill="white"/>
<path d="M796.509 1102.03C786.591 1102.03 776.338 1100.03 766.42 1095.91C733.099 1082.21 714.712 1049.71 725.521 1023.32C729.979 1012.41 738.671 1004.06 750.707 998.941C766.977 992.15 786.925 992.596 805.647 1000.28C838.968 1013.97 857.356 1046.48 846.546 1072.86C842.088 1083.77 833.396 1092.12 821.361 1097.24C813.783 1100.47 805.313 1102.03 796.509 1102.03ZM775.447 1002.62C767.757 1002.62 760.402 1003.95 753.827 1006.73C743.909 1010.85 736.777 1017.76 733.211 1026.55C724.184 1048.7 740.454 1076.31 769.652 1088.23C786.257 1095.02 803.976 1095.46 818.129 1089.56C828.047 1085.44 835.179 1078.54 838.745 1069.75C847.772 1047.59 831.502 1019.98 802.416 1008.07C793.5 1004.4 784.362 1002.62 775.447 1002.62Z" fill="black"/>
<path d="M844.763 1005.06C813.225 996.269 794.837 963.094 803.864 930.921L812.445 900.083C821.472 867.91 854.347 848.984 885.885 857.779C917.422 866.574 935.81 899.749 926.783 931.923L918.202 962.76C909.176 994.934 876.301 1013.86 844.763 1005.06Z" fill="white"/>
<path d="M860.365 1012.75C854.681 1012.75 848.998 1011.97 843.203 1010.41C826.487 1005.73 812.557 994.711 804.199 979.459C795.729 964.207 793.723 946.395 798.515 929.362L807.096 898.525C816.903 863.457 852.898 842.75 887.445 852.324C904.161 857 918.091 868.021 926.449 883.273C934.919 898.525 936.924 916.337 932.133 933.37L923.552 964.207C915.416 993.486 888.894 1012.75 860.365 1012.75ZM870.283 861.119C846.546 861.119 824.592 877.15 817.794 901.53L809.213 932.368C805.313 946.506 806.985 961.313 814.005 974.004C821.026 986.695 832.505 995.824 846.323 999.609C874.852 1007.51 904.718 990.258 912.965 961.09L921.546 930.253C925.446 916.114 923.775 901.308 916.754 888.616C909.733 875.925 898.255 866.796 884.436 863.011C879.755 861.675 874.963 861.119 870.283 861.119Z" fill="black"/>
<path d="M926.783 931.923C931.687 914.556 928.455 896.855 919.54 882.827C915.528 879.933 910.959 877.706 906.055 876.259C878.195 868.466 847.66 890.62 837.854 925.577C828.047 960.534 842.757 995.268 870.617 1002.95C873.18 1003.62 875.744 1004.06 878.307 1004.29C896.917 998.273 912.408 983.133 918.202 962.649L926.783 931.811V931.923Z" fill="black"/>
<path d="M1177.64 982.688C1179.75 996.381 1144.65 991.371 1104.64 997.717C1064.64 1004.06 1034.99 1019.31 1032.88 1005.62C1030.76 991.928 1058.51 965.209 1098.51 958.864C1138.52 952.518 1175.52 968.994 1177.64 982.688Z" fill="black"/>
<path d="M987.853 1049.26C987.296 1049.26 986.627 1049.26 986.07 1049.26C980.944 1048.93 976.374 1046.59 973.031 1042.69C970.134 1039.35 968.351 1035.01 967.236 1030.78C960.661 1038.02 951.523 1043.25 940.491 1039.13C935.476 1037.24 931.798 1033.79 930.015 1029.11C925.335 1017.53 932.801 1001.84 933.693 1000.17L943.722 1005.06C942.162 1008.29 938.039 1019.09 940.491 1024.99C941.271 1026.77 942.496 1028 944.502 1028.78C957.318 1033.45 966.233 1012.08 966.345 1011.86C967.348 1009.29 970.134 1007.85 972.808 1008.52C975.483 1009.18 977.266 1011.63 977.043 1014.3C976.709 1018.31 977.043 1030 981.612 1035.46C983.061 1037.13 984.732 1038.02 986.961 1038.13C990.082 1038.46 992.533 1037.57 994.539 1035.79C999.443 1031.34 1000.67 1021.76 1000.78 1018.42L1011.92 1018.65C1011.92 1020.32 1011.26 1035.57 1002.12 1043.92C998.328 1047.37 993.425 1049.26 988.076 1049.26H987.853Z" fill="black"/>
<path d="M1651.82 1673.81C1590.3 1673.81 1558.32 1608.79 1527.45 1545.89C1507.28 1504.7 1488.11 1465.85 1462.26 1447.92C1421.69 1419.87 1401.08 1429.22 1372.55 1442.13C1356.28 1449.48 1337.89 1457.72 1313.26 1459.72C1245.39 1465.4 1130.39 1344.61 1125.48 1339.49L1133.62 1331.81C1134.73 1333.03 1250.3 1453.71 1312.48 1448.59C1335.21 1446.81 1351.93 1439.24 1368.09 1432C1397.62 1418.64 1423.03 1407.18 1468.72 1438.79C1496.91 1458.28 1516.64 1498.47 1537.59 1540.99C1567.01 1600.89 1597.32 1662.67 1652.04 1662.67C1652.49 1662.67 1652.93 1662.67 1653.27 1662.67C1745.09 1661.11 1756.91 1630.61 1757.02 1630.28L1767.6 1633.62C1766.38 1637.51 1753.23 1672.14 1653.49 1673.81C1652.93 1673.81 1652.49 1673.81 1651.93 1673.81H1651.82Z" fill="black"/>
<path d="M1382.24 1283.05C1326.08 1283.05 1288.63 1239.41 1288.19 1238.85L1305.24 1224.49C1307.35 1226.94 1356.5 1283.72 1424.7 1250.43L1434.51 1270.47C1415.9 1279.6 1398.29 1283.16 1382.24 1283.16V1283.05Z" fill="black"/>
<path d="M1830.23 1426.77C1780.87 1426.77 1717.34 1386.14 1655.49 1346.5C1609.92 1317.34 1566.79 1289.73 1534.25 1281.93C1481.42 1269.24 1436.07 1304.42 1396.06 1335.48C1369.98 1355.63 1347.58 1373.11 1326.08 1375.34C1271.8 1381.02 1209.17 1315.44 1206.5 1312.66L1214.64 1304.98C1215.19 1305.65 1276.26 1369.1 1324.96 1364.32C1343.35 1362.42 1365.64 1345.06 1389.26 1326.69C1429.16 1295.74 1478.86 1257.22 1536.92 1271.14C1571.36 1279.37 1615.15 1307.43 1661.62 1337.15C1734.73 1384.02 1817.53 1437.01 1863 1406.51L1869.24 1415.75C1857.76 1423.54 1844.72 1426.88 1830.46 1426.88L1830.23 1426.77Z" fill="black"/>
<path d="M1351.26 1257.67C1344.57 1257.67 1337.67 1257.44 1330.42 1257L1331.09 1245.86C1484.77 1255.44 1494.69 1159.92 1504.27 1067.52C1508.5 1027.33 1512.4 989.256 1528.9 963.205C1563.67 908.099 1629.75 931.032 1688.04 951.293C1723.92 963.762 1757.8 975.563 1784.21 971.444C1800.37 968.883 1812.07 961.647 1820.09 949.067C1844.05 911.327 1823.88 840.857 1823.66 840.078L1834.36 836.961C1835.25 840.078 1856.2 912.997 1829.45 954.967C1819.76 970.219 1805.16 979.459 1785.88 982.354C1756.68 986.918 1721.58 974.672 1684.36 961.758C1624.74 941.051 1568.35 921.458 1538.26 969.106C1523.21 993.041 1519.31 1029.78 1515.3 1068.63C1506.5 1153.24 1495.58 1257.55 1351.15 1257.55L1351.26 1257.67Z" fill="black"/>
</g>
<defs>
<clipPath id="clip0_157_104">
<rect width="1878" height="1433" fill="white" transform="translate(61 284)"/>
</clipPath>
</defs>
</svg>
