<svg width="2000" height="2000" viewBox="0 0 2000 2000" fill="none" xmlns="http://www.w3.org/2000/svg">
<g clip-path="url(#clip0_157_102)">
<path d="M520.783 772.502L598.069 781.165C572.2 769.401 547.293 770.043 520.783 772.502ZM893.959 1406.37C891.714 1408.83 889.148 1411.72 886.048 1414.93C883.59 1417.6 880.917 1420.49 877.924 1423.48C849.81 1451.4 802.455 1489.36 760.124 1478.13C691.497 1459.95 437.403 1306.81 458.462 1202.32C468.19 1154.3 505.603 1106.71 538.635 1064.79C571.024 1023.72 596.572 991.314 590.907 965.219C588.769 954.953 581.928 946.825 570.597 940.836C547.721 928.965 503.786 917.949 452.903 905.116C358.621 881.481 229.597 848.969 218.372 800.629C213.669 780.31 216.021 762.77 225.107 748.653C229.276 742.237 234.407 736.996 239.966 732.718C242.852 730.473 245.738 728.441 248.731 726.729C251.938 724.698 255.145 723.093 258.138 721.596C254.717 715.928 252.045 710.26 250.014 704.699C246.914 706.196 243.707 707.8 240.393 709.832C237.4 711.543 234.3 713.468 231.307 715.714C223.29 721.489 215.593 728.975 209.5 738.387C197.421 756.995 194.321 779.347 200.2 804.8C213.883 864.369 338.417 895.704 448.307 923.297C495.983 935.274 540.986 946.611 561.938 957.519C570.169 961.797 571.986 966.289 572.628 969.176C576.369 986.609 550.928 1019.01 523.883 1053.24C489.569 1096.76 450.766 1146.17 440.076 1198.68C415.49 1320.6 686.366 1477.92 755.314 1496.21C762.155 1498.03 768.89 1498.88 775.731 1498.88C823.941 1498.88 871.19 1457.81 897.166 1430.65C900.159 1427.55 902.938 1424.66 905.183 1421.99C908.39 1418.56 910.955 1415.57 912.879 1413.22C906.466 1410.97 900.159 1408.62 893.959 1406.37Z" fill="black"/>
<path d="M520.783 772.503L598.069 781.165C572.2 769.401 547.293 770.043 520.783 772.503ZM1254.63 1213.66L1242.44 1219.32C1249.6 1223.17 1256.55 1226.81 1263.18 1230.23L1275.37 1224.46C1268.2 1220.71 1261.26 1217.08 1254.63 1213.66ZM1472.91 1110.35C1472.59 1107.03 1472.27 1103.18 1471.73 1099.01C1467.99 1069.39 1456.34 1021.05 1420.42 992.277C1396.59 973.133 1315.99 972.706 1222.77 972.171C1129.24 971.743 1012.83 971.102 989.31 946.183C986.852 943.616 985.89 941.157 985.997 938.162C987.279 913.351 1013.47 888.753 1041.05 862.872C1085.3 821.377 1140.36 769.722 1081.03 704.485C1030.14 648.445 884.659 647.375 756.169 646.306C684.334 645.771 585.776 645.023 584.814 626.949C583.424 602.993 605.552 577.326 628.962 550.161C658.359 516.046 691.71 477.331 682.624 432.948C667.338 358.835 273.103 159.273 168.024 172.642C135.421 176.812 131.466 197.774 132 209.966C137.879 328.89 248.197 473.481 401.807 509.522C407.152 510.805 412.603 511.982 418.162 512.837C422.652 513.693 427.248 514.441 431.845 515.083L433.662 516.473C439.862 513.051 445.741 509.736 450.979 506.421L442.107 499.255L439.434 497.116L436.762 496.795C433.662 496.368 430.562 495.94 427.462 495.405C257.069 468.775 155.838 310.709 150.814 209.003C150.386 201.089 152.524 193.496 170.376 191.25C273.852 178.096 652.586 379.903 664.238 436.692C671.507 472.091 642.752 505.565 614.852 537.97C588.876 568.021 564.29 596.576 566.107 628.018C568.031 662.027 632.597 664.059 756.062 665.022C874.503 665.984 1021.81 667.054 1067.24 717.104C1110.96 765.23 1081.67 799.132 1028.33 849.183C997.755 877.844 969 904.795 967.29 937.2C966.862 945.221 969.748 952.814 975.628 959.017C1004.7 989.817 1110.53 990.352 1222.67 990.887C1301.02 991.314 1389.96 991.849 1408.77 1006.93C1436.99 1029.71 1447.9 1068.42 1452.17 1095.05C1452.81 1099.12 1453.24 1102.86 1453.67 1106.28C1454.1 1110.77 1454.42 1114.73 1454.63 1117.62C1460.94 1118.9 1467.24 1120.29 1473.44 1121.57C1473.34 1119.11 1473.23 1115.26 1472.91 1110.35ZM1254.63 1213.66L1242.44 1219.32C1249.6 1223.17 1256.55 1226.81 1263.18 1230.23L1275.37 1224.46C1268.2 1220.71 1261.26 1217.08 1254.63 1213.66ZM1299.2 1192.37L1278.68 1202.21C1285.09 1205.85 1291.61 1209.7 1298.03 1213.66L1318.23 1204.03C1312.03 1200.07 1305.62 1196.22 1299.2 1192.37ZM1254.63 1213.66L1242.44 1219.32C1249.6 1223.17 1256.55 1226.81 1263.18 1230.23L1275.37 1224.46C1268.2 1220.71 1261.26 1217.08 1254.63 1213.66ZM1134.16 1270.87L1124.75 1275.36L1115.45 1268.3C1113.52 1275.58 1112.46 1282.85 1112.67 1289.8L1122.5 1297.18L1131.8 1292.8C1130.84 1286.16 1131.91 1278.79 1134.16 1270.87Z" fill="black"/>
<path d="M1588.89 1353.54C1566.87 1351.72 1545.92 1357.82 1531.17 1370.33C1520.27 1379.53 1513.96 1391.29 1512.89 1404.23C1510.32 1435.46 1540.26 1463.59 1579.59 1466.8C1582.16 1467.01 1584.72 1467.12 1587.29 1467.12C1606.42 1467.12 1624.38 1461.13 1637.42 1450.11C1648.33 1440.81 1654.63 1429.04 1655.7 1416.1C1658.27 1384.88 1628.23 1356.86 1588.89 1353.54ZM1645.01 1415.25C1644.16 1425.3 1639.13 1434.5 1630.48 1441.88C1617.86 1452.57 1599.8 1457.71 1580.56 1456.21C1546.99 1453.43 1521.44 1430.44 1523.58 1405.09C1524.33 1395.04 1529.35 1385.84 1538.12 1378.46C1549.13 1369.05 1564.63 1363.91 1581.2 1363.91C1583.44 1363.91 1585.79 1364.02 1588.04 1364.24C1621.5 1367.02 1647.04 1389.9 1645.01 1415.25Z" fill="white"/>
<path d="M1665 1326.91C1659.34 1343.59 1625.45 1318.03 1576.6 1301.35C1527.86 1284.77 1482.53 1283.38 1488.2 1266.7C1493.97 1249.91 1544 1237.29 1592.85 1253.87C1641.59 1270.44 1670.78 1310.12 1665 1326.91Z" fill="white"/>
<path d="M1806.64 1454.71C1801.19 1460.7 1794.24 1463.8 1785.9 1463.8H1785.69C1777.35 1463.7 1770.08 1460.59 1764.31 1454.61C1747.85 1437.49 1748.6 1401.88 1748.6 1400.38L1759.29 1400.7C1759.29 1400.7 1758.64 1433.32 1772.01 1447.23C1775.86 1451.08 1780.34 1453 1785.8 1453.11C1791.14 1453.32 1795.31 1451.29 1798.84 1447.55C1810.49 1434.82 1810.38 1403.38 1809.42 1392.36L1820 1391.4C1820.22 1393.22 1823.96 1435.89 1806.64 1454.71Z" fill="white"/>
<path d="M1401.93 1263.06C1394.45 1257.18 1359.28 1230.02 1318.23 1204.03L1298.03 1213.66C1331.91 1234.62 1365.16 1258.47 1385.47 1273.97L1384.29 1278.36C1365.91 1270.98 1317.7 1246.59 1275.37 1224.46C1268.2 1220.71 1261.26 1217.08 1254.63 1213.66L1242.44 1219.32C1249.6 1223.17 1256.55 1226.81 1263.18 1230.23C1323.68 1261.99 1363.23 1281.46 1381.51 1288.3L1377.45 1302.96L1270.66 1274.72L1267.88 1284.99L1374.67 1313.33L1370.29 1329.26C1348.16 1328.19 1256.87 1311.94 1199.68 1301.03L1197.65 1311.51C1304.55 1332.04 1348.8 1338.68 1367.51 1339.42L1365.37 1347.23C1335.87 1348.09 1217 1349.9 1157.78 1322.31C1143.99 1315.9 1135.87 1307.98 1132.87 1298.04C1132.34 1296.32 1132.02 1294.61 1131.8 1292.8C1130.84 1286.16 1131.91 1278.79 1134.16 1270.87C1139.71 1252.26 1152.43 1231.09 1164.19 1211.73C1171.46 1199.75 1178.3 1188.42 1183.86 1177.29C1185.47 1174.19 1187.92 1172.37 1191.88 1171.41C1193.91 1170.98 1196.16 1170.77 1198.51 1170.77C1217.32 1170.77 1247.36 1184.25 1278.68 1202.21L1299.2 1192.37C1257.51 1167.67 1213.37 1147.35 1187.82 1153.12C1178.41 1155.26 1171.25 1160.72 1167.08 1168.95C1161.95 1179.33 1155.21 1190.34 1148.16 1202C1134.8 1224.14 1121.11 1246.81 1115.45 1268.3C1113.52 1275.58 1112.46 1282.85 1112.67 1289.8C1112.88 1294.51 1113.52 1299 1114.91 1303.49C1119.51 1318.57 1131.27 1330.65 1149.87 1339.32C1200.22 1362.74 1286.8 1366.48 1336.08 1366.48C1357.03 1366.48 1371.25 1365.84 1373.07 1365.73L1379.8 1365.41L1406.85 1266.91L1401.93 1263.06ZM1241.37 1206.6L1236.35 1216.12C1238.38 1217.18 1240.41 1218.25 1242.44 1219.32L1254.63 1213.66C1250.03 1211.2 1245.54 1208.84 1241.37 1206.6ZM1254.63 1213.66C1250.03 1211.2 1245.54 1208.84 1241.37 1206.6L1236.35 1216.12C1238.38 1217.18 1240.41 1218.25 1242.44 1219.32C1249.6 1223.17 1256.55 1226.81 1263.18 1230.23L1275.37 1224.46C1268.2 1220.71 1261.26 1217.08 1254.63 1213.66ZM1401.93 1263.06C1394.45 1257.18 1359.28 1230.02 1318.23 1204.03L1298.03 1213.66C1331.91 1234.62 1365.16 1258.47 1385.47 1273.97L1384.29 1278.36C1365.91 1270.98 1317.7 1246.59 1275.37 1224.46C1268.2 1220.71 1261.26 1217.08 1254.63 1213.66L1242.44 1219.32C1249.6 1223.17 1256.55 1226.81 1263.18 1230.23C1323.68 1261.99 1363.23 1281.46 1381.51 1288.3L1377.45 1302.96L1270.66 1274.72L1267.88 1284.99L1374.67 1313.33L1370.29 1329.26C1348.16 1328.19 1256.87 1311.94 1199.68 1301.03L1197.65 1311.51C1304.55 1332.04 1348.8 1338.68 1367.51 1339.42L1365.37 1347.23C1335.87 1348.09 1217 1349.9 1157.78 1322.31C1143.99 1315.9 1135.87 1307.98 1132.87 1298.04C1132.34 1296.32 1132.02 1294.61 1131.8 1292.8C1130.84 1286.16 1131.91 1278.79 1134.16 1270.87C1139.71 1252.26 1152.43 1231.09 1164.19 1211.73C1171.46 1199.75 1178.3 1188.42 1183.86 1177.29C1185.47 1174.19 1187.92 1172.37 1191.88 1171.41C1193.91 1170.98 1196.16 1170.77 1198.51 1170.77C1217.32 1170.77 1247.36 1184.25 1278.68 1202.21L1299.2 1192.37C1257.51 1167.67 1213.37 1147.35 1187.82 1153.12C1178.41 1155.26 1171.25 1160.72 1167.08 1168.95C1161.95 1179.33 1155.21 1190.34 1148.16 1202C1134.8 1224.14 1121.11 1246.81 1115.45 1268.3C1113.52 1275.58 1112.46 1282.85 1112.67 1289.8C1112.88 1294.51 1113.52 1299 1114.91 1303.49C1119.51 1318.57 1131.27 1330.65 1149.87 1339.32C1200.22 1362.74 1286.8 1366.48 1336.08 1366.48C1357.03 1366.48 1371.25 1365.84 1373.07 1365.73L1379.8 1365.41L1406.85 1266.91L1401.93 1263.06ZM1241.37 1206.6L1236.35 1216.12C1238.38 1217.18 1240.41 1218.25 1242.44 1219.32L1254.63 1213.66C1250.03 1211.2 1245.54 1208.84 1241.37 1206.6ZM1401.93 1263.06C1394.45 1257.18 1359.28 1230.02 1318.23 1204.03C1312.03 1200.07 1305.62 1196.22 1299.2 1192.37C1257.51 1167.67 1213.37 1147.35 1187.82 1153.12C1178.41 1155.26 1171.25 1160.72 1167.08 1168.95C1161.95 1179.33 1155.21 1190.34 1148.16 1202C1134.8 1224.14 1121.11 1246.81 1115.45 1268.3C1113.52 1275.58 1112.46 1282.85 1112.67 1289.8C1112.88 1294.51 1113.52 1299 1114.91 1303.49C1119.51 1318.57 1131.27 1330.65 1149.87 1339.32C1200.22 1362.74 1286.8 1366.48 1336.08 1366.48C1357.03 1366.48 1371.25 1365.84 1373.07 1365.73L1379.8 1365.41L1406.85 1266.91L1401.93 1263.06ZM1365.37 1347.23C1335.87 1348.09 1217 1349.9 1157.78 1322.31C1143.99 1315.9 1135.87 1307.98 1132.87 1298.04C1132.34 1296.32 1132.02 1294.61 1131.8 1292.8C1130.84 1286.16 1131.91 1278.79 1134.16 1270.87C1139.71 1252.26 1152.43 1231.09 1164.19 1211.73C1171.46 1199.75 1178.3 1188.42 1183.86 1177.29C1185.47 1174.19 1187.92 1172.37 1191.88 1171.41C1193.91 1170.98 1196.16 1170.77 1198.51 1170.77C1217.32 1170.77 1247.36 1184.25 1278.68 1202.21C1285.09 1205.85 1291.61 1209.7 1298.03 1213.66C1331.91 1234.62 1365.16 1258.47 1385.47 1273.97L1384.29 1278.36C1365.91 1270.98 1317.7 1246.59 1275.37 1224.46C1268.2 1220.71 1261.26 1217.08 1254.63 1213.66C1250.03 1211.2 1245.54 1208.84 1241.37 1206.6L1236.35 1216.12C1238.38 1217.18 1240.41 1218.25 1242.44 1219.32C1249.6 1223.17 1256.55 1226.81 1263.18 1230.23C1323.68 1261.99 1363.23 1281.46 1381.51 1288.3L1377.45 1302.96L1270.66 1274.72L1267.88 1284.99L1374.67 1313.33L1370.29 1329.26C1348.16 1328.19 1256.87 1311.94 1199.68 1301.03L1197.65 1311.51C1304.55 1332.04 1348.8 1338.68 1367.51 1339.42L1365.37 1347.23ZM1401.93 1263.06C1394.45 1257.18 1359.28 1230.02 1318.23 1204.03C1312.03 1200.07 1305.62 1196.22 1299.2 1192.37C1257.51 1167.67 1213.37 1147.35 1187.82 1153.12C1178.41 1155.26 1171.25 1160.72 1167.08 1168.95C1161.95 1179.33 1155.21 1190.34 1148.16 1202C1134.8 1224.14 1121.11 1246.81 1115.45 1268.3C1113.52 1275.58 1112.46 1282.85 1112.67 1289.8C1112.88 1294.51 1113.52 1299 1114.91 1303.49C1119.51 1318.57 1131.27 1330.65 1149.87 1339.32C1200.22 1362.74 1286.8 1366.48 1336.08 1366.48C1357.03 1366.48 1371.25 1365.84 1373.07 1365.73L1379.8 1365.41L1406.85 1266.91L1401.93 1263.06ZM1365.37 1347.23C1335.87 1348.09 1217 1349.9 1157.78 1322.31C1143.99 1315.9 1135.87 1307.98 1132.87 1298.04C1132.34 1296.32 1132.02 1294.61 1131.8 1292.8C1130.84 1286.16 1131.91 1278.79 1134.16 1270.87C1139.71 1252.26 1152.43 1231.09 1164.19 1211.73C1171.46 1199.75 1178.3 1188.42 1183.86 1177.29C1185.47 1174.19 1187.92 1172.37 1191.88 1171.41C1193.91 1170.98 1196.16 1170.77 1198.51 1170.77C1217.32 1170.77 1247.36 1184.25 1278.68 1202.21C1285.09 1205.85 1291.61 1209.7 1298.03 1213.66C1331.91 1234.62 1365.16 1258.47 1385.47 1273.97L1384.29 1278.36C1365.91 1270.98 1317.7 1246.59 1275.37 1224.46C1268.2 1220.71 1261.26 1217.08 1254.63 1213.66C1250.03 1211.2 1245.54 1208.84 1241.37 1206.6L1236.35 1216.12C1238.38 1217.18 1240.41 1218.25 1242.44 1219.32C1249.6 1223.17 1256.55 1226.81 1263.18 1230.23C1323.68 1261.99 1363.23 1281.46 1381.51 1288.3L1377.45 1302.96L1270.66 1274.72L1267.88 1284.99L1374.67 1313.33L1370.29 1329.26C1348.16 1328.19 1256.87 1311.94 1199.68 1301.03L1197.65 1311.51C1304.55 1332.04 1348.8 1338.68 1367.51 1339.42L1365.37 1347.23ZM1730.74 1272.8C1706.48 1182.32 1600.87 1138.26 1472.91 1110.35C1466.6 1108.96 1460.19 1107.67 1453.67 1106.28C1274.19 1070.03 1057.62 1061.9 959.486 1003.08C801.6 908.431 969.214 894.207 949.866 796.886C949.438 794.747 949.01 792.715 948.476 790.683C946.445 783.304 943.452 775.497 939.069 767.048C864.028 621.388 581.286 728.227 477.917 682.133C475.352 680.957 473 679.78 470.969 678.604C468.831 677.427 467.121 676.144 465.41 674.861H465.303C435.8 651.867 471.824 616.575 511.376 578.074C512.659 576.791 514.048 575.508 515.331 574.224C560.762 529.949 608.117 481.93 564.61 443.75C517.576 402.469 475.566 371.454 438.686 348.033C436.228 346.429 433.876 344.932 431.524 343.542C416.452 334.13 402.235 326.109 388.872 319.265C385.559 317.447 382.245 315.736 378.931 314.131C365.462 307.501 352.955 302.046 341.41 297.662C337.883 296.271 334.355 294.988 331.041 293.812C268.4 271.567 237.293 279.481 237.293 279.481C237.293 279.481 272.783 328.248 367.279 389.956C368.241 390.491 369.097 391.133 370.059 391.774C396.035 408.565 426.286 426.211 461.455 444.178C493.417 460.434 477.276 478.08 442.107 499.255C434.838 503.64 426.821 508.132 418.162 512.837C336.279 557.327 204.262 617.324 240.286 709.832C242.424 715.286 245.203 720.954 248.624 726.73C255.679 738.921 265.728 751.648 279.09 764.909L279.624 765.444C281.014 766.727 282.297 768.118 283.579 769.294C345.045 829.077 391.438 849.932 429.707 854.851C433.128 855.279 436.441 855.6 439.755 855.707C472.145 857.632 498.762 848.862 524.845 844.691H524.952C528.8 844.049 532.648 843.515 536.39 843.087C565.572 840.199 594.541 845.761 630.459 881.481C647.348 898.378 656.648 913.351 660.39 927.467C660.71 928.43 660.817 929.179 661.031 930.034C678.99 1009.07 527.09 1058.69 589.09 1208.74C594.969 1222.85 603.093 1236.54 613.355 1249.7L613.676 1250.02C622.441 1261.35 632.81 1272.37 644.462 1282.96C647.028 1285.31 649.593 1287.66 652.266 1289.91H652.372C664.131 1300.17 677.066 1309.91 691.176 1319.43C694.169 1321.56 697.162 1323.49 700.262 1325.41C735.538 1348.41 776.693 1369.58 821.483 1388.94H821.59C842.328 1398.03 863.814 1406.69 885.941 1414.93C892.248 1417.39 898.662 1419.74 905.076 1421.99C1057.19 1476.85 1230.58 1515.14 1350.83 1538.77C1589.86 1585.83 1865.11 1552.78 1857.1 1433C1848.01 1298.57 1759.39 1379.31 1730.64 1272.8H1730.74ZM1821.61 1488.29C1751.59 1549.89 1550.2 1567.11 1353.08 1528.29C1164.3 1491.18 1021.17 1452.04 912.879 1413.22C906.466 1410.97 900.159 1408.62 893.959 1406.37C696.307 1332.79 622.121 1260.5 599.031 1204.67C564.183 1120.08 601.49 1069.71 634.414 1025.22C667.017 981.368 700.583 936.023 638.048 873.887C604.803 840.734 576.476 831.644 549.538 831.644C533.29 831.644 517.576 834.959 501.541 838.274C450.124 848.969 391.866 861.268 287.214 757.851C274.814 745.552 265.086 733.36 258.138 721.596C254.717 715.928 252.045 710.26 250.014 704.699C245.417 692.614 244.028 680.957 245.631 669.62C253.969 612.404 335.959 568.877 401.7 533.799C413.352 527.596 424.041 521.928 433.769 516.473C439.969 513.051 445.848 509.736 451.086 506.421C475.352 491.555 489.569 478.401 489.462 463C489.355 446.317 472.145 437.547 466.479 434.66C338.845 369.743 275.562 307.073 254.29 283.224C274.921 283.973 344.297 302.795 558.41 452.52C567.924 459.043 572.841 466.209 573.483 474.337C575.514 499.255 539.597 534.547 507.955 565.669C471.29 601.496 439.755 632.51 444.886 661.172C447.238 674.112 456.859 684.486 473.641 691.972C514.369 710.153 579.469 705.982 648.203 701.597C759.483 694.646 885.621 686.625 929.555 771.968C955.21 821.591 932.655 848.327 908.71 876.561C893.104 894.956 877.069 913.885 881.024 937.734C884.872 961.369 907.428 984.363 953.928 1012.28C1021.38 1052.7 1140.68 1069.49 1267.03 1087.24C1329.24 1096.01 1394.02 1105.1 1454.63 1117.62C1460.94 1118.9 1467.24 1120.29 1473.44 1121.57C1595.95 1148.74 1697.82 1191.41 1720.48 1275.58C1735.13 1330.12 1765.06 1340.81 1791.46 1350.23C1819.79 1360.28 1842.13 1368.3 1846.51 1433.75C1847.9 1454.39 1839.78 1472.25 1821.61 1488.29ZM1318.23 1204.03C1312.03 1200.07 1305.62 1196.22 1299.2 1192.37C1257.51 1167.67 1213.37 1147.35 1187.82 1153.12C1178.41 1155.26 1171.25 1160.72 1167.08 1168.95C1161.95 1179.33 1155.21 1190.34 1148.16 1202C1134.8 1224.14 1121.11 1246.81 1115.45 1268.3C1113.52 1275.58 1112.46 1282.85 1112.67 1289.8C1112.88 1294.51 1113.52 1299 1114.91 1303.49C1119.51 1318.57 1131.27 1330.65 1149.87 1339.32C1200.22 1362.74 1286.8 1366.48 1336.08 1366.48C1357.03 1366.48 1371.25 1365.84 1373.07 1365.73L1379.8 1365.41L1406.85 1266.91L1401.93 1263.06C1394.45 1257.18 1359.28 1230.02 1318.23 1204.03ZM1365.37 1347.23C1335.87 1348.09 1217 1349.9 1157.78 1322.31C1143.99 1315.9 1135.87 1307.98 1132.87 1298.04C1132.34 1296.32 1132.02 1294.61 1131.8 1292.8C1130.84 1286.16 1131.91 1278.79 1134.16 1270.87C1139.71 1252.26 1152.43 1231.09 1164.19 1211.73C1171.46 1199.75 1178.3 1188.42 1183.86 1177.29C1185.47 1174.19 1187.92 1172.37 1191.88 1171.41C1193.91 1170.98 1196.16 1170.77 1198.51 1170.77C1217.32 1170.77 1247.36 1184.25 1278.68 1202.21C1285.09 1205.85 1291.61 1209.7 1298.03 1213.66C1331.91 1234.62 1365.16 1258.47 1385.47 1273.97L1384.29 1278.36C1365.91 1270.98 1317.7 1246.59 1275.37 1224.46C1268.2 1220.71 1261.26 1217.08 1254.63 1213.66C1250.03 1211.2 1245.54 1208.84 1241.37 1206.6L1236.35 1216.12C1238.38 1217.18 1240.41 1218.25 1242.44 1219.32C1249.6 1223.17 1256.55 1226.81 1263.18 1230.23C1323.68 1261.99 1363.23 1281.46 1381.51 1288.3L1377.45 1302.96L1270.66 1274.72L1267.88 1284.99L1374.67 1313.33L1370.29 1329.26C1348.16 1328.19 1256.87 1311.94 1199.68 1301.03L1197.65 1311.51C1304.55 1332.04 1348.8 1338.68 1367.51 1339.42L1365.37 1347.23ZM1241.37 1206.6L1236.35 1216.12C1238.38 1217.18 1240.41 1218.25 1242.44 1219.32L1254.63 1213.66C1250.03 1211.2 1245.54 1208.84 1241.37 1206.6ZM1401.93 1263.06C1394.45 1257.18 1359.28 1230.02 1318.23 1204.03C1312.03 1200.07 1305.62 1196.22 1299.2 1192.37C1257.51 1167.67 1213.37 1147.35 1187.82 1153.12C1178.41 1155.26 1171.25 1160.72 1167.08 1168.95C1161.95 1179.33 1155.21 1190.34 1148.16 1202C1134.8 1224.14 1121.11 1246.81 1115.45 1268.3C1113.52 1275.58 1112.46 1282.85 1112.67 1289.8C1112.88 1294.51 1113.52 1299 1114.91 1303.49C1119.51 1318.57 1131.27 1330.65 1149.87 1339.32C1200.22 1362.74 1286.8 1366.48 1336.08 1366.48C1357.03 1366.48 1371.25 1365.84 1373.07 1365.73L1379.8 1365.41L1406.85 1266.91L1401.93 1263.06ZM1365.37 1347.23C1335.87 1348.09 1217 1349.9 1157.78 1322.31C1143.99 1315.9 1135.87 1307.98 1132.87 1298.04C1132.34 1296.32 1132.02 1294.61 1131.8 1292.8C1130.84 1286.16 1131.91 1278.79 1134.16 1270.87C1139.71 1252.26 1152.43 1231.09 1164.19 1211.73C1171.46 1199.75 1178.3 1188.42 1183.86 1177.29C1185.47 1174.19 1187.92 1172.37 1191.88 1171.41C1193.91 1170.98 1196.16 1170.77 1198.51 1170.77C1217.32 1170.77 1247.36 1184.25 1278.68 1202.21C1285.09 1205.85 1291.61 1209.7 1298.03 1213.66C1331.91 1234.62 1365.16 1258.47 1385.47 1273.97L1384.29 1278.36C1365.91 1270.98 1317.7 1246.59 1275.37 1224.46C1268.2 1220.71 1261.26 1217.08 1254.63 1213.66C1250.03 1211.2 1245.54 1208.84 1241.37 1206.6L1236.35 1216.12C1238.38 1217.18 1240.41 1218.25 1242.44 1219.32C1249.6 1223.17 1256.55 1226.81 1263.18 1230.23C1323.68 1261.99 1363.23 1281.46 1381.51 1288.3L1377.45 1302.96L1270.66 1274.72L1267.88 1284.99L1374.67 1313.33L1370.29 1329.26C1348.16 1328.19 1256.87 1311.94 1199.68 1301.03L1197.65 1311.51C1304.55 1332.04 1348.8 1338.68 1367.51 1339.42L1365.37 1347.23ZM1241.37 1206.6L1236.35 1216.12C1238.38 1217.18 1240.41 1218.25 1242.44 1219.32L1254.63 1213.66C1250.03 1211.2 1245.54 1208.84 1241.37 1206.6ZM1401.93 1263.06C1394.45 1257.18 1359.28 1230.02 1318.23 1204.03C1312.03 1200.07 1305.62 1196.22 1299.2 1192.37C1257.51 1167.67 1213.37 1147.35 1187.82 1153.12C1178.41 1155.26 1171.25 1160.72 1167.08 1168.95C1161.95 1179.33 1155.21 1190.34 1148.16 1202C1134.8 1224.14 1121.11 1246.81 1115.45 1268.3C1113.52 1275.58 1112.46 1282.85 1112.67 1289.8C1112.88 1294.51 1113.52 1299 1114.91 1303.49C1119.51 1318.57 1131.27 1330.65 1149.87 1339.32C1200.22 1362.74 1286.8 1366.48 1336.08 1366.48C1357.03 1366.48 1371.25 1365.84 1373.07 1365.73L1379.8 1365.41L1406.85 1266.91L1401.93 1263.06ZM1365.37 1347.23C1335.87 1348.09 1217 1349.9 1157.78 1322.31C1143.99 1315.9 1135.87 1307.98 1132.87 1298.04C1132.34 1296.32 1132.02 1294.61 1131.8 1292.8C1130.84 1286.16 1131.91 1278.79 1134.16 1270.87C1139.71 1252.26 1152.43 1231.09 1164.19 1211.73C1171.46 1199.75 1178.3 1188.42 1183.86 1177.29C1185.47 1174.19 1187.92 1172.37 1191.88 1171.41C1193.91 1170.98 1196.16 1170.77 1198.51 1170.77C1217.32 1170.77 1247.36 1184.25 1278.68 1202.21C1285.09 1205.85 1291.61 1209.7 1298.03 1213.66C1331.91 1234.62 1365.16 1258.47 1385.47 1273.97L1384.29 1278.36C1365.91 1270.98 1317.7 1246.59 1275.37 1224.46C1268.2 1220.71 1261.26 1217.08 1254.63 1213.66C1250.03 1211.2 1245.54 1208.84 1241.37 1206.6L1236.35 1216.12C1238.38 1217.18 1240.41 1218.25 1242.44 1219.32C1249.6 1223.17 1256.55 1226.81 1263.18 1230.23C1323.68 1261.99 1363.23 1281.46 1381.51 1288.3L1377.45 1302.96L1270.66 1274.72L1267.88 1284.99L1374.67 1313.33L1370.29 1329.26C1348.16 1328.19 1256.87 1311.94 1199.68 1301.03L1197.65 1311.51C1304.55 1332.04 1348.8 1338.68 1367.51 1339.42L1365.37 1347.23ZM1254.63 1213.66C1250.03 1211.2 1245.54 1208.84 1241.37 1206.6L1236.35 1216.12C1238.38 1217.18 1240.41 1218.25 1242.44 1219.32C1249.6 1223.17 1256.55 1226.81 1263.18 1230.23L1275.37 1224.46C1268.2 1220.71 1261.26 1217.08 1254.63 1213.66ZM1401.93 1263.06C1394.45 1257.18 1359.28 1230.02 1318.23 1204.03L1298.03 1213.66C1331.91 1234.62 1365.16 1258.47 1385.47 1273.97L1384.29 1278.36C1365.91 1270.98 1317.7 1246.59 1275.37 1224.46C1268.2 1220.71 1261.26 1217.08 1254.63 1213.66L1242.44 1219.32C1249.6 1223.17 1256.55 1226.81 1263.18 1230.23C1323.68 1261.99 1363.23 1281.46 1381.51 1288.3L1377.45 1302.96L1270.66 1274.72L1267.88 1284.99L1374.67 1313.33L1370.29 1329.26C1348.16 1328.19 1256.87 1311.94 1199.68 1301.03L1197.65 1311.51C1304.55 1332.04 1348.8 1338.68 1367.51 1339.42L1365.37 1347.23C1335.87 1348.09 1217 1349.9 1157.78 1322.31C1143.99 1315.9 1135.87 1307.98 1132.87 1298.04C1132.34 1296.32 1132.02 1294.61 1131.8 1292.8C1130.84 1286.16 1131.91 1278.79 1134.16 1270.87C1139.71 1252.26 1152.43 1231.09 1164.19 1211.73C1171.46 1199.75 1178.3 1188.42 1183.86 1177.29C1185.47 1174.19 1187.92 1172.37 1191.88 1171.41C1193.91 1170.98 1196.16 1170.77 1198.51 1170.77C1217.32 1170.77 1247.36 1184.25 1278.68 1202.21L1299.2 1192.37C1257.51 1167.67 1213.37 1147.35 1187.82 1153.12C1178.41 1155.26 1171.25 1160.72 1167.08 1168.95C1161.95 1179.33 1155.21 1190.34 1148.16 1202C1134.8 1224.14 1121.11 1246.81 1115.45 1268.3C1113.52 1275.58 1112.46 1282.85 1112.67 1289.8C1112.88 1294.51 1113.52 1299 1114.91 1303.49C1119.51 1318.57 1131.27 1330.65 1149.87 1339.32C1200.22 1362.74 1286.8 1366.48 1336.08 1366.48C1357.03 1366.48 1371.25 1365.84 1373.07 1365.73L1379.8 1365.41L1406.85 1266.91L1401.93 1263.06Z" fill="white"/>
<path d="M1867.89 1432.36C1862.55 1352.9 1828.66 1340.71 1798.73 1330.12C1774.14 1321.24 1752.87 1313.65 1741.11 1269.91C1714.92 1173.02 1605.68 1127.56 1471.73 1099.01C1465.32 1097.62 1458.8 1096.23 1452.17 1095.05C1424.27 1089.38 1395.3 1084.57 1366.01 1079.97C1362.49 1079.44 1358.85 1078.9 1355.22 1078.37C1330.74 1074.63 1306.04 1071.1 1281.35 1067.67C1277.82 1067.14 1274.3 1066.71 1270.77 1066.18C1270.56 1066.18 1270.23 1066.07 1270.02 1066.07C1245.22 1062.65 1220.74 1059.12 1196.9 1055.59C1193.38 1055.05 1189.85 1054.52 1186.32 1053.98C1164.83 1050.67 1143.99 1047.25 1124 1043.5C1120.37 1042.86 1116.94 1042.22 1113.42 1041.58C1096.96 1038.37 1081.13 1034.95 1066.17 1031.31C1062.64 1030.46 1059.11 1029.6 1055.69 1028.64C1029.08 1021.79 1005.13 1013.77 984.928 1004.36C981.4 1002.76 977.979 1001.05 974.666 999.335C971.245 997.517 968.038 995.699 964.938 993.881C950.4 985.218 938.321 976.984 928.7 969.07C925.6 966.503 922.821 964.043 920.255 961.69C909.565 951.637 903.579 942.44 902.19 934.312C900.266 922.655 907.962 911.212 918.224 898.592C920.469 895.918 922.714 893.245 925.065 890.464C927.203 887.898 929.448 885.331 931.586 882.657C949.331 861.161 968.038 833.783 960.555 795.175C959.914 791.432 958.952 787.689 957.669 783.839C955.638 776.994 952.645 769.722 948.69 762.129C943.452 751.969 937.252 742.879 930.197 734.858C927.952 732.077 925.493 729.51 922.928 726.944C861.248 666.733 748.365 673.898 647.028 680.315C580.859 684.486 518.431 688.443 482.407 672.401C482.3 672.401 482.193 672.294 482.086 672.294C477.703 670.262 474.176 668.123 471.61 665.984C468.403 663.204 466.586 660.316 466.052 657.322C463.059 640.638 491.921 611.442 518.966 584.812C520.355 583.529 521.745 582.245 523.028 580.962C525.486 578.502 527.945 576.149 530.403 573.69C552.103 552.3 573.376 530.483 585.241 509.094C587.593 505.03 589.517 500.966 591.014 496.902C594.114 488.668 595.503 480.54 594.862 472.519C594.221 464.07 591.228 456.263 585.776 449.204C583.745 446.317 581.286 443.643 578.4 441.076C576.155 438.938 573.59 436.906 570.81 434.981C556.914 425.248 542.697 415.409 528.159 405.57C525.166 403.538 522.065 401.506 519.072 399.474C492.99 381.935 466.479 364.61 440.503 348.461H440.397C437.403 346.643 434.624 344.825 431.738 343.007C417.307 334.13 403.09 325.682 389.3 317.768C385.879 315.843 382.672 314.024 379.359 312.206C366.317 304.934 353.81 298.196 341.838 292.314C338.097 290.389 334.462 288.678 330.828 286.967C317.252 280.443 304.424 275.096 292.879 270.925C288.817 269.535 284.862 268.252 281.014 267.075C267.866 263.225 256.534 261.514 247.662 262.369C244.348 262.69 241.248 263.439 238.576 264.508C237.293 265.043 236.117 265.685 235.048 266.326C231.841 268.465 229.597 270.925 228.314 273.492C227.566 274.989 227.031 276.379 226.817 277.77L226.069 282.155L227.565 284.186L228.741 285.791C229.81 287.181 240.393 301.512 264.231 323.864C265.621 325.254 267.117 326.644 268.721 328.034H268.828C280.693 339.05 295.445 351.67 313.724 365.466H313.831C317.038 367.925 320.459 370.385 323.986 372.952C333.286 379.796 343.441 386.855 354.452 394.234C358.086 396.694 361.934 399.154 365.89 401.613C377.969 409.42 391.117 417.441 405.121 425.569C408.862 427.815 412.817 429.954 416.772 432.307C429.386 439.258 442.748 446.531 456.859 453.696C465.838 458.295 468.19 461.931 468.19 463.214C468.19 470.487 449.59 482.892 427.676 495.405C419.338 500.218 410.466 505.03 402.021 509.522C398.6 511.447 395.179 513.265 391.865 514.976C321.741 552.194 234.514 598.608 224.572 666.519C222.221 682.668 224.572 699.031 231.414 715.714C233.766 721.382 236.545 727.051 240.072 732.719C247.234 745.017 256.855 757.316 268.934 769.722C270.11 770.898 271.179 771.968 272.355 773.144C273.745 774.535 275.241 775.925 276.631 777.208C287.214 787.582 297.369 796.672 307.097 804.693C309.983 807.26 312.869 809.613 315.755 811.859C330.186 823.195 343.762 832.392 356.59 839.772C359.903 841.697 363.217 843.408 366.424 845.119C386.414 855.386 404.479 861.268 421.048 864.155C425.538 865.011 429.814 865.653 434.09 865.974C461.455 868.54 484.759 863.621 506.031 859.236C509.238 858.594 512.338 857.846 515.438 857.204C520.783 856.241 525.914 855.279 530.938 854.53C555.845 851.001 578.934 852.926 606.834 874.636C609.507 876.668 612.179 878.914 614.959 881.481C617.631 883.727 620.303 886.293 623.083 889.074C636.124 902.014 644.248 913.672 648.417 924.58C649.807 928.216 650.769 931.745 651.303 935.168C655.686 960.942 638.903 983.507 617.417 1012.49C615.493 1015.06 613.569 1017.73 611.538 1020.4C608.972 1024.04 606.3 1027.68 603.628 1031.53C594.434 1044.47 585.562 1058.48 578.614 1073.88C576.903 1077.41 575.407 1080.94 574.017 1084.68C568.779 1098.15 565.145 1112.81 564.076 1128.85C563.755 1132.38 563.648 1136.01 563.648 1139.76C563.648 1156.44 566.321 1174.51 572.734 1194.3C573.697 1197.61 574.979 1201.04 576.262 1204.57C577.224 1207.24 578.293 1210.02 579.469 1212.8C584.065 1224.03 590.159 1235.15 597.748 1246.06C599.779 1249.16 601.917 1252.05 604.269 1255.04C612.928 1266.49 623.19 1277.72 635.162 1288.84C637.834 1291.3 640.614 1293.86 643.5 1296.32C655.472 1306.81 668.941 1317.18 683.907 1327.45C686.793 1329.48 689.786 1331.51 692.886 1333.54C707.745 1343.27 723.886 1352.79 741.31 1362.31C744.41 1364.02 747.617 1365.73 750.931 1367.44C769.852 1377.28 790.162 1387.12 812.076 1396.75C815.71 1398.24 819.452 1399.85 823.193 1401.56C840.617 1408.94 858.897 1416.32 878.031 1423.48C884.338 1425.94 890.752 1428.3 897.272 1430.65C1016.14 1473.75 1166.87 1513.43 1349.02 1549.36C1420.21 1563.37 1492.04 1570 1558.64 1570C1682.11 1570 1787.4 1546.9 1835.82 1504.34C1859.02 1483.91 1869.82 1459.63 1868 1432.36H1867.89ZM1821.61 1488.29C1751.59 1549.89 1550.2 1567.11 1353.08 1528.29C1164.3 1491.18 1021.17 1452.04 912.879 1413.22C906.466 1410.97 900.159 1408.62 893.959 1406.37C696.307 1332.79 622.121 1260.5 599.031 1204.67C564.183 1120.08 601.49 1069.71 634.414 1025.22C667.017 981.368 700.583 936.023 638.048 873.888C604.803 840.734 576.476 831.644 549.538 831.644C533.29 831.644 517.576 834.959 501.541 838.274C450.124 848.969 391.866 861.268 287.214 757.851C274.814 745.552 265.086 733.36 258.138 721.596C254.717 715.928 252.045 710.26 250.014 704.699C245.417 692.614 244.028 680.957 245.631 669.62C253.969 612.404 335.959 568.877 401.7 533.799C413.352 527.596 424.041 521.928 433.769 516.473C439.969 513.051 445.848 509.736 451.086 506.421C475.352 491.555 489.569 478.401 489.462 463C489.355 446.317 472.145 437.547 466.479 434.66C338.845 369.743 275.562 307.073 254.29 283.224C274.921 283.973 344.297 302.795 558.41 452.52C567.924 459.043 572.841 466.209 573.483 474.337C575.514 499.255 539.597 534.547 507.955 565.669C471.29 601.496 439.755 632.51 444.886 661.172C447.238 674.112 456.859 684.486 473.641 691.972C514.369 710.153 579.469 705.982 648.203 701.597C759.483 694.646 885.621 686.625 929.555 771.968C955.21 821.591 932.655 848.327 908.71 876.561C893.103 894.956 877.069 913.885 881.024 937.734C884.872 961.369 907.428 984.363 953.928 1012.28C1021.38 1052.7 1140.68 1069.49 1267.03 1087.25C1329.24 1096.01 1394.02 1105.11 1454.63 1117.62C1460.94 1118.9 1467.24 1120.29 1473.44 1121.57C1595.95 1148.74 1697.82 1191.41 1720.48 1275.58C1735.13 1330.12 1765.06 1340.81 1791.46 1350.23C1819.79 1360.28 1842.13 1368.3 1846.51 1433.75C1847.9 1454.39 1839.78 1472.25 1821.61 1488.29Z" fill="black"/>
<path d="M1401.93 1263.06C1394.45 1257.18 1359.28 1230.02 1318.23 1204.03C1312.03 1200.07 1305.62 1196.22 1299.2 1192.37C1257.51 1167.67 1213.37 1147.35 1187.82 1153.12C1178.41 1155.26 1171.25 1160.72 1167.08 1168.95C1161.95 1179.33 1155.21 1190.34 1148.16 1202C1134.8 1224.14 1121.11 1246.81 1115.45 1268.3C1113.52 1275.58 1112.46 1282.85 1112.67 1289.8C1112.88 1294.51 1113.52 1299 1114.91 1303.49C1119.51 1318.57 1131.27 1330.65 1149.87 1339.32C1200.22 1362.74 1286.8 1366.48 1336.08 1366.48C1357.03 1366.48 1371.25 1365.84 1373.07 1365.73L1379.8 1365.41L1406.85 1266.91L1401.93 1263.06ZM1365.37 1347.23C1335.87 1348.09 1217 1349.9 1157.78 1322.31C1143.99 1315.9 1135.87 1307.98 1132.87 1298.04C1132.34 1296.32 1132.02 1294.61 1131.8 1292.8C1130.84 1286.16 1131.91 1278.79 1134.16 1270.87C1139.71 1252.26 1152.43 1231.09 1164.19 1211.73C1171.46 1199.75 1178.3 1188.42 1183.86 1177.29C1185.47 1174.19 1187.92 1172.37 1191.88 1171.41C1193.91 1170.98 1196.16 1170.77 1198.51 1170.77C1217.32 1170.77 1247.36 1184.25 1278.68 1202.21C1285.09 1205.85 1291.61 1209.7 1298.03 1213.66C1331.91 1234.62 1365.16 1258.47 1385.47 1273.97L1384.29 1278.36L1381.51 1288.3L1377.45 1302.96L1374.67 1313.33L1370.29 1329.26L1367.51 1339.42L1365.37 1347.23Z" fill="black"/>
<path d="M1588.47 1358.89C1552.01 1355.79 1520.48 1376.32 1518.23 1404.66C1515.88 1433 1543.57 1458.46 1580.13 1461.56C1616.58 1464.55 1648.01 1444.02 1650.36 1415.68C1652.71 1387.34 1624.92 1361.88 1588.47 1358.89ZM1645.01 1415.25C1644.16 1425.3 1639.13 1434.5 1630.48 1441.88C1617.86 1452.57 1599.8 1457.71 1580.56 1456.21C1546.99 1453.43 1521.44 1430.44 1523.58 1405.09C1524.33 1395.04 1529.35 1385.84 1538.12 1378.46C1549.13 1369.05 1564.63 1363.91 1581.2 1363.91C1583.44 1363.91 1585.79 1364.02 1588.04 1364.24C1621.5 1367.02 1647.04 1389.9 1645.01 1415.25Z" fill="white"/>
<path d="M1588.89 1353.54C1566.87 1351.72 1545.92 1357.82 1531.17 1370.33C1520.27 1379.53 1513.96 1391.29 1512.89 1404.23C1510.32 1435.46 1540.26 1463.59 1579.59 1466.8C1582.16 1467.01 1584.72 1467.12 1587.29 1467.12C1606.42 1467.12 1624.38 1461.13 1637.42 1450.11C1648.33 1440.81 1654.63 1429.04 1655.7 1416.1C1658.27 1384.88 1628.23 1356.86 1588.89 1353.54ZM1645.01 1415.25C1644.16 1425.3 1639.13 1434.5 1630.48 1441.88C1617.86 1452.57 1599.8 1457.71 1580.56 1456.21C1546.99 1453.43 1521.44 1430.44 1523.58 1405.09C1524.33 1395.04 1529.35 1385.84 1538.12 1378.46C1549.13 1369.05 1564.63 1363.91 1581.2 1363.91C1583.44 1363.91 1585.79 1364.02 1588.04 1364.24C1621.5 1367.02 1647.04 1389.9 1645.01 1415.25Z" fill="black"/>
<path d="M1806.64 1454.71C1801.19 1460.7 1794.24 1463.8 1785.9 1463.8H1785.69C1777.35 1463.7 1770.08 1460.59 1764.31 1454.6C1747.85 1437.49 1748.6 1401.88 1748.6 1400.38L1759.29 1400.7C1759.29 1400.7 1758.64 1433.32 1772.01 1447.23C1775.86 1451.08 1780.34 1453 1785.8 1453.11C1791.14 1453.32 1795.31 1451.29 1798.84 1447.55C1810.49 1434.82 1810.38 1403.38 1809.42 1392.36L1820 1391.4C1820.22 1393.22 1823.96 1435.89 1806.64 1454.71Z" fill="black"/>
<path d="M1665 1326.91C1659.34 1343.59 1625.45 1318.03 1576.6 1301.35C1527.86 1284.77 1482.53 1283.38 1488.2 1266.7C1493.97 1249.91 1544 1237.29 1592.85 1253.87C1641.59 1270.44 1670.78 1310.12 1665 1326.91Z" fill="black"/>
<path d="M293.628 281.727L282.938 280.657C283.686 273.278 275.135 246.969 269.576 232.104L279.624 228.361C282.19 235.205 294.804 269.749 293.628 281.62V281.727Z" fill="black"/>
<path d="M341.303 297.983L330.828 296.058C332.003 289.641 327.514 264.829 324.414 250.605L334.89 248.253C336.279 254.669 343.335 287.502 341.41 297.983H341.303Z" fill="black"/>
<path d="M441.466 348.675L430.99 346.322C433.876 333.168 430.562 303.865 430.455 303.544L441.038 302.26C441.145 303.544 444.672 333.596 441.359 348.568L441.466 348.675Z" fill="black"/>
<path d="M527.41 407.495L517.576 403.218C520.676 396.052 526.555 363.754 528.586 351.883L539.169 353.702C538.421 358.193 531.579 397.87 527.41 407.495Z" fill="black"/>
<path d="M261.345 384.395L260.276 373.7C279.838 371.775 313.297 367.07 319.924 363.006L325.59 372.096C315.007 378.727 270.217 383.433 261.452 384.288L261.345 384.395Z" fill="black"/>
<path d="M226.603 341.082L225.534 330.387C241.676 328.783 261.452 325.575 265.3 323.115L271.179 332.098C263.162 337.339 232.59 340.44 226.603 341.082Z" fill="black"/>
<path d="M235.583 284.614C232.483 283.973 209.821 283.973 189.831 284.4L189.617 273.706C205.972 273.385 234.193 272.957 238.79 274.347L235.583 284.507V284.614Z" fill="black"/>
<path d="M189.662 220.018L183.347 228.647L246.31 274.767L252.625 266.138L189.662 220.018Z" fill="black"/>
<path d="M242.531 805.549L236.01 797.1C253.007 783.839 272.783 767.262 274.814 763.626L284.969 766.834C284.541 768.545 283.366 773.893 242.531 805.656V805.549Z" fill="black"/>
<path d="M314.835 799.836L275.923 824.115L281.58 833.189L320.491 808.91L314.835 799.836Z" fill="black"/>
<path d="M363.745 832.169L339.648 857.503L347.392 864.876L371.488 839.542L363.745 832.169Z" fill="black"/>
<path d="M434.145 850.292L408.353 877.408L416.097 884.78L441.889 857.665L434.145 850.292Z" fill="black"/>
<path d="M492.99 900.945L484.865 893.993C504.534 870.893 525.914 844.477 527.731 840.199L537.886 843.515C535.855 850.252 505.817 885.972 492.99 900.945Z" fill="black"/>
<path d="M559.479 925.115L553.707 916.131C577.972 900.731 605.445 879.877 607.583 873.139L617.845 876.24C613.676 889.929 572.2 917.094 559.479 925.115Z" fill="black"/>
<path d="M656.719 920.164L612.457 942.795L617.322 952.318L661.583 929.687L656.719 920.164Z" fill="black"/>
<path d="M582.569 451.129L577.545 441.718C591.655 434.232 595.397 408.993 595.397 408.779L605.979 410.276C605.766 411.559 601.49 441.077 582.569 451.129Z" fill="black"/>
<path d="M583.317 509.522L581.179 499.041C606.621 493.801 636.552 485.138 640.507 480.326L648.845 487.063C640.721 497.116 596.679 506.848 583.424 509.629L583.317 509.522Z" fill="black"/>
<path d="M511.376 584.919V574.224C522.707 574.224 554.455 573.155 564.824 568.342L569.314 578.075C555.097 584.705 515.972 584.919 511.376 584.919Z" fill="black"/>
<path d="M468.297 680.101L463.059 670.797C489.676 655.824 520.141 636.253 522.814 630.799L532.969 634.114C529.869 644.274 491.172 667.268 468.297 680.101Z" fill="black"/>
<path d="M952.645 800.843L946.338 792.181C946.338 792.181 983.752 765.016 1008.34 740.633L1015.93 748.226C990.807 773.251 954.248 799.774 952.645 800.843Z" fill="black"/>
<path d="M926.241 738.815L919.507 730.58C925.707 725.446 942.062 698.389 950.935 682.561L960.235 687.801C957.776 692.186 936.076 730.901 926.241 738.921V738.815Z" fill="black"/>
<path d="M915.231 899.448L912.345 889.181C929.769 884.261 974.666 865.76 975.093 865.546L979.155 875.385C977.338 876.133 933.19 894.421 915.231 899.448Z" fill="black"/>
<path d="M954.797 941.673L915.079 964.606L920.422 973.869L960.141 950.936L954.797 941.673Z" fill="black"/>
<path d="M1069.18 998.391L1054.44 1031.28L1064.2 1035.65L1078.93 1002.76L1069.18 998.391Z" fill="black"/>
<path d="M1190.03 1007.89L1185.72 1060.33L1196.37 1061.21L1200.68 1008.77L1190.03 1007.89Z" fill="black"/>
<path d="M1365.8 1083.72L1355.11 1083.29C1356.39 1053.66 1338.11 1005.75 1337.9 1005.32L1347.84 1001.47C1348.59 1003.51 1367.08 1051.85 1365.8 1083.82V1083.72Z" fill="black"/>
<path d="M1280.5 1073.02L1270.23 1069.92C1272.59 1062.22 1265.21 1032.38 1259.22 1013.67L1269.38 1010.35C1271.94 1018.37 1284.67 1059.23 1280.39 1073.02H1280.5Z" fill="black"/>
<path d="M1121.86 1049.6L1111.92 1045.54C1116.3 1034.84 1120.04 1007.68 1120.15 1007.36L1130.73 1008.85C1130.52 1010.03 1126.67 1037.62 1121.86 1049.6Z" fill="black"/>
<path d="M993.029 982.407L970.262 1003.46L977.517 1011.31L1000.28 990.262L993.029 982.407Z" fill="black"/>
<path d="M315.648 417.655L312.441 407.388C326.445 403.004 363.966 391.24 368.99 389.208L372.945 399.154C366.424 401.72 317.679 417.014 315.648 417.655Z" fill="black"/>
<path d="M369.097 452.627L364.928 442.788C364.928 442.788 406.083 425.248 413.779 421.933L417.948 431.772C410.252 434.981 369.203 452.627 369.203 452.627H369.097Z" fill="black"/>
<path d="M385.397 274.234L377.801 321.106L388.353 322.817L395.949 275.945L385.397 274.234Z" fill="black"/>
<path d="M752.748 1450.33L749.221 1440.27C763.866 1435.14 806.41 1401.56 821.59 1389.05L828.431 1397.28C826.186 1399.21 772.203 1443.59 752.748 1450.43V1450.33Z" fill="black"/>
<path d="M703.469 1415.57L696.093 1407.76C708.6 1395.89 742.272 1363.17 747.724 1353.65L757.024 1359C749.755 1371.61 708.172 1411.08 703.469 1415.57Z" fill="black"/>
<path d="M695.245 1315.22L648.903 1364.7L656.703 1372.01L703.045 1322.54L695.245 1315.22Z" fill="black"/>
<path d="M647.285 1281.34L580.06 1322.23L585.614 1331.37L652.839 1290.48L647.285 1281.34Z" fill="black"/>
<path d="M520.89 1270.55L519.5 1259.96C557.769 1254.83 600.528 1247.13 605.659 1243.17L613.783 1250.12C608.117 1257.5 560.121 1265.42 520.89 1270.66V1270.55Z" fill="black"/>
<path d="M509.238 1213.33L507.955 1202.75C534.893 1199.32 576.476 1193.98 580.752 1192.91L583.317 1203.28C577.117 1204.78 516.293 1212.48 509.345 1213.33H509.238Z" fill="black"/>
<path d="M510.414 1147.78L508.81 1137.19C508.81 1137.19 564.931 1128.74 567.283 1128.31L569.1 1138.9C566.748 1139.33 510.521 1147.78 510.521 1147.78H510.414Z" fill="black"/>
<path d="M583.667 1073.75L545.51 1074.38L545.687 1085.07L583.844 1084.44L583.667 1073.75Z" fill="black"/>
<path d="M613.184 1020.29L575.714 1022.24L576.267 1032.92L613.738 1030.97L613.184 1020.29Z" fill="black"/>
<path d="M1392.52 1291.19H1391.78C1389.96 1291.19 1386.54 1290.23 1381.51 1288.3C1363.23 1281.46 1323.68 1262 1263.18 1230.23C1256.55 1226.81 1249.6 1223.17 1242.44 1219.32C1240.41 1218.25 1238.38 1217.18 1236.35 1216.12L1241.37 1206.6C1245.54 1208.84 1250.03 1211.2 1254.63 1213.66C1261.26 1217.08 1268.2 1220.71 1275.37 1224.46C1317.7 1246.59 1365.91 1270.98 1384.29 1278.36C1387.61 1279.64 1389.96 1280.5 1391.13 1280.6L1392.52 1291.19Z" fill="black"/>
<path d="M1381.83 1335.47C1381.19 1337.5 1380.55 1339.53 1371.25 1339.53C1370.08 1339.53 1368.9 1339.53 1367.51 1339.42C1348.8 1338.68 1304.55 1332.04 1197.65 1311.51L1199.68 1301.03C1256.87 1311.94 1348.16 1328.19 1370.29 1329.26C1372.32 1329.48 1373.71 1329.37 1374.57 1329.26C1373.92 1329.37 1372.21 1330.33 1371.57 1332.37L1381.83 1335.47Z" fill="black"/>
<path d="M1380.12 1303.7L1377.34 1314.08L1374.67 1313.33L1267.88 1284.99L1270.66 1274.72L1377.45 1302.96V1303.06L1380.12 1303.7Z" fill="black"/>
</g>
<defs>
<clipPath id="clip0_157_102">
<rect width="1736" height="1398" fill="white" transform="translate(132 172)"/>
</clipPath>
</defs>
</svg>
