<svg width="2000" height="2000" viewBox="0 0 2000 2000" fill="none" xmlns="http://www.w3.org/2000/svg">
<g clip-path="url(#clip0_157_101)">
<path d="M1276.43 1132.02C1271.22 1128.6 1266.5 1125.67 1262.43 1123.07C1255.43 1119 1250.22 1116.07 1247.77 1114.6C1238.33 1124.21 1228.23 1133.98 1217.16 1144.23C1157.39 1199.42 1073.69 1260.47 951.068 1299.86C946.508 1301.49 941.785 1302.95 937.063 1304.42C939.668 1308.81 942.6 1313.53 945.856 1318.58C948.788 1323.14 952.045 1327.86 955.627 1332.58C982.334 1369.05 1025.98 1411.53 1087.21 1420.33C1198.27 1436.28 1357.04 1277.56 1373 1235.23C1384.08 1205.6 1317.31 1157.91 1276.43 1132.02ZM1359.65 1230.19C1345.48 1267.79 1191.43 1420.81 1089.16 1406.33C1035.1 1398.51 995.199 1361.23 970.121 1327.86C980.054 1324.77 989.662 1321.35 998.944 1317.6C1012.3 1329.16 1063.27 1372.3 1089.16 1381.91L1094.86 1366.6C1074.67 1359.12 1034.61 1326.4 1016.21 1310.93C1031.19 1304.91 1045.52 1298.4 1059.2 1291.88C1081.18 1309.63 1132.32 1349.84 1149.74 1353.91L1153.49 1337.95C1142.58 1335.51 1104.14 1306.86 1075.32 1283.74C1090.79 1275.93 1105.45 1267.63 1119.45 1259C1153.97 1284.07 1211.3 1324.28 1223.67 1325.74L1225.79 1309.47C1218.14 1307.84 1176.12 1279.67 1134.43 1249.72C1152.02 1238.49 1168.3 1226.93 1183.45 1215.37C1206.09 1230.84 1250.38 1260.79 1263.57 1265.67L1269.11 1250.37C1259.82 1246.95 1225.3 1224.33 1196.8 1204.79C1210.32 1194.05 1222.86 1183.3 1234.42 1172.56C1254.78 1185.74 1295.81 1212.28 1303.96 1215.05L1309.17 1199.58C1304.44 1197.95 1275.46 1179.88 1246.96 1161.16C1253.8 1154.65 1260.15 1148.47 1266.34 1142.12C1322.52 1177.12 1364.86 1216.19 1359.65 1230.19Z" fill="white"/>
<path d="M891.466 1468.02C875.344 1438.4 834.632 1398.02 798.48 1365.3C792.781 1360.09 787.081 1355.05 781.544 1350.33C775.356 1344.63 769.331 1339.58 763.957 1334.86C756.792 1335.19 749.626 1335.51 742.461 1335.51H737.25C720.64 1335.51 704.355 1334.86 688.07 1333.56C673.088 1332.42 658.107 1330.79 643.45 1328.67L611.207 1335.67C611.207 1335.67 611.858 1337.3 613.324 1340.23C615.115 1344.14 618.046 1350.49 621.955 1358.46C649.313 1414.95 722.268 1556.91 764.608 1552.67C817.533 1547.3 923.384 1526.14 891.629 1468.02H891.466ZM881.044 1496.35C869.319 1518.49 813.299 1533.47 762.98 1538.35C762.654 1538.51 762.491 1538.51 762.166 1538.51C738.553 1538.51 683.022 1452.23 638.565 1360.91C644.59 1361.88 650.616 1362.7 656.804 1363.35C676.671 1393.95 738.878 1488.37 754.023 1497.33L762.491 1483.33C754.512 1478.28 714.289 1421.46 677.485 1365.46C690.513 1366.6 703.541 1367.42 716.894 1367.74H717.057C729.759 1387.93 768.028 1444.91 798.969 1461.84L806.786 1447.51C782.847 1434.65 752.395 1391.67 736.762 1368.07C750.766 1368.07 764.771 1367.58 778.776 1366.77C816.393 1399.98 862.316 1444.26 878.927 1474.86C885.115 1485.93 882.998 1492.44 881.044 1496.35Z" fill="white"/>
<path d="M1286.86 1121.28C1281.81 1118.19 1277.09 1115.26 1272.69 1112.49C1267.32 1109.4 1262.43 1106.47 1258.2 1104.02C1254.94 1107.44 1251.36 1111.02 1247.77 1114.6C1238.33 1124.21 1228.23 1133.98 1217.16 1144.23L1245.66 1129.74C1247.77 1130.88 1249.89 1132.19 1252.01 1133.49C1256.89 1136.26 1261.62 1139.19 1266.34 1142.12C1322.52 1177.12 1364.86 1216.19 1359.65 1230.19C1345.48 1267.79 1191.43 1420.81 1089.16 1406.33C1035.1 1398.51 995.199 1361.23 970.121 1327.86C966.375 1323.14 963.118 1318.58 960.187 1314.19C956.767 1309.14 953.673 1304.26 951.068 1299.86C946.508 1301.49 941.785 1302.95 937.063 1304.42C932.34 1305.72 927.618 1307.19 922.732 1308.33C925.338 1312.72 928.106 1317.6 931.526 1322.81C934.294 1327.37 937.551 1332.09 940.971 1337.14C968.981 1376.53 1016.37 1424.72 1085.25 1434.49C1091.28 1435.3 1097.3 1435.79 1103.49 1435.79C1222.86 1435.79 1370.07 1283.58 1386.36 1240.28C1400.85 1201.53 1334.25 1151.23 1286.86 1121.28Z" fill="black"/>
<path d="M904.005 1461.19C888.371 1432.53 851.894 1395.09 817.37 1363.19C811.996 1358.14 806.623 1353.26 801.411 1348.53C795.386 1343.33 789.686 1338.28 784.313 1333.72C777.473 1334.21 770.633 1334.7 763.794 1334.86C756.629 1335.19 749.463 1335.51 742.298 1335.51C747.672 1339.91 754.023 1345.28 761.025 1351.3C766.562 1356.02 772.588 1361.23 778.776 1366.77C816.393 1399.98 862.316 1444.26 878.926 1474.86C885.115 1485.93 882.998 1492.44 881.043 1496.35C869.318 1518.49 813.299 1533.47 762.98 1538.35C762.654 1538.51 762.491 1538.51 762.165 1538.51C738.553 1538.51 683.022 1452.23 638.565 1360.91C636.122 1355.86 633.679 1350.98 631.4 1345.93L638.565 1344.3L687.907 1333.56C672.926 1332.42 657.944 1330.79 643.287 1328.67C630.585 1326.88 618.046 1324.77 605.67 1322.33L590.688 1325.58L595.899 1336.81L598.016 1341.53C599.807 1345.44 601.924 1350.16 604.367 1355.37C634.168 1419.67 708.915 1567 762.98 1567C763.957 1567 764.934 1566.84 765.911 1566.84C800.76 1563.26 884.463 1550.72 906.122 1509.7C911.659 1499.28 915.567 1482.51 904.005 1461.19Z" fill="black"/>
<path d="M554.699 806.116L472.95 792.279C481.418 789.837 490.375 788.535 499.494 788.535C501.774 788.535 504.216 788.698 506.496 788.861C524.409 790.163 541.02 796.349 554.699 806.116Z" fill="white"/>
<path d="M966.375 890.116L920.452 882.302C928.432 880.512 935.923 879.86 942.762 880.512C952.044 881.326 960.024 884.581 966.375 890.116Z" fill="white"/>
<path d="M1119.94 613.209C1117.66 616.465 1067.01 691.837 1055.45 721.302C1059.2 723.581 1062.94 725.86 1066.69 727.977H1066.85L1069.95 729.116C1078.41 703.884 1132.8 623.139 1133.46 622.326L1119.94 613.209ZM959.698 668.395C964.584 670.837 969.469 673.279 974.192 675.884C980.543 662.535 1005.62 622.488 1029.07 586.837L1015.55 577.884C1004.16 595.139 970.446 646.907 959.698 668.395ZM864.107 625.256C869.156 627.209 874.367 629.326 879.578 631.442C881.532 609.465 915.893 554.93 929.083 535.884L915.73 526.605C911.007 533.767 870.296 593.349 864.107 625.256ZM765.911 595.302C770.959 596.279 776.007 597.419 781.056 598.558H781.87C785.941 559.488 817.533 518.953 817.859 518.628L804.994 508.535C803.691 510.326 771.122 551.837 765.911 595.302ZM694.584 585.698H695.724L695.887 585.86C700.935 586.023 705.821 586.349 710.869 586.837C715.591 552.814 738.716 499.581 739.041 499.093L724.059 492.419C723.082 494.86 699.144 549.395 694.584 585.698ZM593.945 596.442C599.807 595.139 605.67 594 611.695 592.86H611.858C620.977 560.465 632.377 509.023 633.028 506.419L617.069 502.837C617.069 502.837 603.064 565.837 593.945 596.442ZM490.375 621.349C495.748 619.884 501.285 618.256 506.822 616.791C507.311 581.302 513.173 506.093 513.336 505.279L497.051 503.977C496.726 507.395 490.537 587.814 490.375 621.349ZM1265.36 661.07C1191.27 465.395 474.253 375.209 425.562 515.046C414.162 547.767 409.44 599.372 407.974 649.512C407.648 655.535 407.486 661.395 407.486 667.256C407.323 673.279 407.16 679.139 407.16 684.837C411.882 682.884 416.605 680.93 421.49 678.977C481.744 655.209 553.07 636.163 634.982 621.837C802.389 592.698 1022.07 735.628 1182.47 839.814C1201.85 852.349 1219.44 863.744 1235.56 874C1239.63 876.605 1243.54 879.046 1247.29 881.488C1250.54 877.419 1253.8 873.023 1256.89 868.302C1259.66 863.744 1262.43 859.023 1265.04 853.977C1287.35 811.488 1298.42 748.651 1265.36 661.07ZM1253.15 846.651C1235.4 835.256 1217.32 823.535 1200.22 812.465C1184.92 802.535 1169.12 792.279 1152.83 781.86C1177.26 754.674 1227.42 699 1231.16 693.302L1217.48 684.186C1214.23 688.907 1170.75 737.419 1138.83 772.907C1115.54 757.93 1091.6 742.791 1066.85 728.139L1069.95 729.116C1078.41 703.884 1132.8 623.139 1133.46 622.326L1119.94 613.209C1117.66 616.465 1067.01 691.837 1055.45 721.302C1028.91 705.674 1001.71 690.209 974.192 675.884C980.543 662.535 1005.62 622.488 1029.07 586.837L1015.55 577.884C1004.16 595.139 970.446 646.907 959.698 668.395C933.154 654.884 906.447 642.349 879.578 631.442C881.532 609.465 915.893 554.93 929.083 535.884L915.73 526.605C911.007 533.767 870.296 593.349 864.107 625.256C836.586 614.512 809.065 605.558 781.87 598.721C785.941 559.488 817.533 518.953 817.859 518.628L804.994 508.535C803.691 510.326 771.122 551.837 765.911 595.302C747.346 591.233 728.945 588.302 710.869 586.837C715.591 552.814 738.716 499.581 739.041 499.093L724.059 492.419C723.082 494.86 699.144 549.395 694.584 585.698H695.724C690.676 585.698 685.628 585.535 680.579 585.535C663.155 585.535 646.056 586.837 629.283 589.767C623.42 590.744 617.721 591.884 611.858 592.86C620.977 560.465 632.377 509.023 633.028 506.419L617.069 502.837C617.069 502.837 603.064 565.837 593.945 596.442H593.782C563.167 602.465 534.343 609.302 506.822 616.791C507.311 581.302 513.173 506.093 513.336 505.279L497.051 503.977C496.726 507.395 490.537 587.814 490.375 621.349C466.436 628.349 443.8 635.837 422.305 643.977C424.096 596.93 428.656 549.558 439.078 519.767C451.129 484.767 525.224 463.116 636.936 461.651C884.3 458.558 1206.9 546.953 1252.01 666.116C1283.11 748.488 1273.5 807.093 1253.15 846.651Z" fill="white"/>
<path d="M1278.55 656.023C1225.63 515.86 881.044 433 649.313 433C644.916 433 640.682 433 636.448 433.163C545.905 434.302 433.541 448.791 412.045 510.488C399.669 545.977 394.784 602.14 393.481 655.372C393.155 661.395 393.155 667.419 392.992 673.279C392.992 679.302 392.83 685.163 392.83 691.023C397.552 689.07 402.275 686.953 407.16 684.837C411.883 682.884 416.605 680.93 421.491 678.977C421.491 673.279 421.653 667.419 421.816 661.558C421.816 655.698 421.979 649.837 422.305 643.977C424.096 596.93 428.656 549.558 439.078 519.767C451.129 484.767 525.224 463.116 636.937 461.651C884.301 458.558 1206.9 546.953 1252.01 666.116C1283.11 748.488 1273.5 807.093 1253.15 846.651C1250.71 851.698 1247.94 856.419 1245.01 860.814C1242.07 865.535 1238.82 869.93 1235.56 874C1239.63 876.605 1243.54 879.047 1247.29 881.488C1251.36 884.093 1255.43 886.535 1259.17 888.814C1262.43 884.744 1265.52 880.349 1268.62 875.628C1271.39 871.233 1274.32 866.512 1276.92 861.465C1301.19 815.721 1313.73 748.814 1278.55 656.023ZM464.971 806.279C456.828 805.791 448.686 806.767 440.869 808.884C440.869 808.884 440.761 808.938 440.544 809.047C439.404 810.023 438.264 810.837 437.287 811.814C436.147 812.628 434.844 813.605 433.704 814.744H434.03L511.056 827.767C498.354 815.395 482.558 807.581 464.971 806.279ZM973.54 897.93C971.423 895 969.144 892.233 966.375 890.116C960.024 884.581 952.045 881.326 942.762 880.512C935.923 879.86 928.432 880.512 920.453 882.302C911.822 884.419 902.539 887.837 892.931 892.233L978.914 906.721C977.123 903.465 975.332 900.535 973.54 897.93Z" fill="black"/>
<path d="M254.41 1082.53C251.153 1085.47 247.408 1086.93 243.337 1086.93C242.685 1086.93 242.034 1086.93 241.382 1086.77C214.838 1083.67 207.999 1018.88 206.208 991.209L222.492 990.233C225.098 1030.6 235.194 1069.67 243.337 1070.65C250.176 1067.72 256.201 1028.98 255.55 989.581L271.835 989.256C271.998 1002.12 271.998 1066.58 254.41 1082.53Z" fill="white"/>
<path d="M1513.05 823.372C1505.72 829.558 1454.43 891.093 1421.53 930.977L1408.99 920.721C1417.46 910.465 1491.72 820.116 1502.47 811L1513.05 823.372Z" fill="white"/>
<path d="M1543.18 894.349C1538.78 898.907 1482.92 927.558 1436.84 951L1429.51 936.512C1466.31 917.791 1526.73 886.698 1532.1 882.465L1543.18 894.349Z" fill="white"/>
<path d="M1558.65 971.349L1558 987.628C1516.31 985.837 1452.96 983.233 1449.54 983.233V966.953C1454.1 966.953 1548.06 970.86 1558.65 971.349Z" fill="white"/>
<path d="M1453.72 1003.88L1445.22 1017.77L1564.4 1090.67L1572.9 1076.78L1453.72 1003.88Z" fill="white"/>
<path d="M978.914 906.721L892.931 892.233C833.818 919.581 764.445 985.186 747.835 1001.3L744.09 1005.05L725.037 1112.81L736.924 1117.86C742.95 1120.63 888.86 1182.65 954.976 1182.65C967.189 1182.65 984.614 1177.77 996.828 1154.33C1026.3 1097.51 1007.25 959.791 978.914 906.721ZM967.841 1139.19C962.141 1150.09 956.93 1150.09 954.976 1150.09C905.633 1150.09 797.503 1107.77 761.514 1092.95L763.631 1080.91C793.269 1088.72 878.275 1109.88 913.613 1109.88C914.59 1109.88 915.567 1109.72 916.544 1109.72L915.893 1093.44C884.138 1094.74 795.061 1072.44 766.4 1064.95L767.54 1058.93C789.687 1058.12 882.509 1053.88 919.475 1037.6L912.799 1022.63C880.555 1037.12 796.526 1041.51 770.471 1042.49L771.122 1038.58C813.788 1012.7 889.186 968.419 909.705 961.907L904.819 946.442C884.626 952.791 822.582 988.93 785.127 1011.23C833.492 966.628 907.425 909.977 939.668 912.907C943.902 913.233 945.694 914.86 946.834 916.651C974.68 956.209 991.616 1093.77 967.841 1139.19ZM511.056 827.767C498.354 815.395 482.558 807.581 464.971 806.279C456.828 805.791 448.686 806.767 440.869 808.884C440.869 808.884 440.761 808.938 440.544 809.047C439.404 810.023 438.264 810.837 437.287 811.814C436.147 812.628 434.844 813.605 433.704 814.744C430.936 817.186 428.33 820.116 425.887 823.046C423.608 825.651 421.491 828.419 419.699 831.186C417.908 833.791 416.279 836.395 414.814 839C414.325 839.814 414 840.465 413.511 841.279C412.208 843.884 410.906 846.651 409.766 849.419C408.626 852.023 407.649 854.628 406.834 857.395C406.183 859.349 405.532 861.465 405.043 863.581C404.392 866.023 403.903 868.465 403.415 871.07C402.926 874.163 402.438 877.419 402.275 880.674L398.529 933.093C398.366 935.698 398.204 938.14 398.204 940.581C398.204 943.674 398.366 946.93 398.692 950.023C398.692 952.465 399.181 954.907 399.669 957.186C400.158 959.791 400.646 962.395 401.298 965C401.623 966.465 401.949 967.767 402.438 969.233C402.926 971.023 403.577 972.814 404.229 974.605C404.88 976.395 405.532 978.023 406.183 979.651C406.346 979.977 406.509 980.302 406.672 980.628C408.137 983.884 409.603 986.977 411.394 990.07C412.371 991.698 413.348 993.326 414.325 994.791C415.302 996.419 416.442 998.046 417.582 999.512C418.559 1000.98 419.699 1002.44 421.002 1003.91C423.933 1007.49 427.027 1010.91 430.447 1014C432.564 1015.95 434.681 1017.74 436.961 1019.53H437.124C441.195 1020.51 445.266 1021.33 449.5 1021.65C496.889 1025.07 538.577 979.651 542.974 920.233C545.58 882.791 532.878 848.767 511.056 827.767ZM506.496 788.86C504.217 788.86 501.774 788.535 499.494 788.535C490.375 788.535 481.418 789.837 472.95 792.279L554.699 806.116C541.02 796.349 524.41 790.163 506.496 788.86ZM978.914 906.721L892.931 892.233C833.818 919.581 764.445 985.186 747.835 1001.3L744.09 1005.05L725.037 1112.81L736.924 1117.86C742.95 1120.63 888.86 1182.65 954.976 1182.65C967.189 1182.65 984.614 1177.77 996.828 1154.33C1026.3 1097.51 1007.25 959.791 978.914 906.721ZM967.841 1139.19C962.141 1150.09 956.93 1150.09 954.976 1150.09C905.633 1150.09 797.503 1107.77 761.514 1092.95L763.631 1080.91C793.269 1088.72 878.275 1109.88 913.613 1109.88C914.59 1109.88 915.567 1109.72 916.544 1109.72L915.893 1093.44C884.138 1094.74 795.061 1072.44 766.4 1064.95L767.54 1058.93C789.687 1058.12 882.509 1053.88 919.475 1037.6L912.799 1022.63C880.555 1037.12 796.526 1041.51 770.471 1042.49L771.122 1038.58C813.788 1012.7 889.186 968.419 909.705 961.907L904.819 946.442C884.626 952.791 822.582 988.93 785.127 1011.23C833.492 966.628 907.425 909.977 939.668 912.907C943.902 913.233 945.694 914.86 946.834 916.651C974.68 956.209 991.616 1093.77 967.841 1139.19ZM511.056 827.767C498.354 815.395 482.558 807.581 464.971 806.279C456.828 805.791 448.686 806.767 440.869 808.884C440.869 808.884 440.761 808.938 440.544 809.047C439.404 810.023 438.264 810.837 437.287 811.814C436.147 812.628 434.844 813.605 433.704 814.744C430.936 817.186 428.33 820.116 425.887 823.046C423.608 825.651 421.491 828.419 419.699 831.186C417.908 833.791 416.279 836.395 414.814 839C414.325 839.814 414 840.465 413.511 841.279C412.208 843.884 410.906 846.651 409.766 849.419C408.626 852.023 407.649 854.628 406.834 857.395C406.183 859.349 405.532 861.465 405.043 863.581C404.392 866.023 403.903 868.465 403.415 871.07C402.926 874.163 402.438 877.419 402.275 880.674L398.529 933.093C398.366 935.698 398.204 938.14 398.204 940.581C398.204 943.674 398.366 946.93 398.692 950.023C398.692 952.465 399.181 954.907 399.669 957.186C400.158 959.791 400.646 962.395 401.298 965C401.623 966.465 401.949 967.767 402.438 969.233C402.926 971.023 403.577 972.814 404.229 974.605C404.88 976.395 405.532 978.023 406.183 979.651C406.346 979.977 406.509 980.302 406.672 980.628C408.137 983.884 409.603 986.977 411.394 990.07C412.371 991.698 413.348 993.326 414.325 994.791C415.302 996.419 416.442 998.046 417.582 999.512C418.559 1000.98 419.699 1002.44 421.002 1003.91C423.933 1007.49 427.027 1010.91 430.447 1014C432.564 1015.95 434.681 1017.74 436.961 1019.53H437.124C441.195 1020.51 445.266 1021.33 449.5 1021.65C496.889 1025.07 538.577 979.651 542.974 920.233C545.58 882.791 532.878 848.767 511.056 827.767ZM506.496 788.86C504.217 788.86 501.774 788.535 499.494 788.535C490.375 788.535 481.418 789.837 472.95 792.279L554.699 806.116C541.02 796.349 524.41 790.163 506.496 788.86ZM506.496 788.86C504.217 788.86 501.774 788.535 499.494 788.535C490.375 788.535 481.418 789.837 472.95 792.279L554.699 806.116C541.02 796.349 524.41 790.163 506.496 788.86ZM511.056 827.767C498.354 815.395 482.558 807.581 464.971 806.279C456.828 805.791 448.686 806.767 440.869 808.884C440.869 808.884 440.761 808.938 440.544 809.047C439.404 810.023 438.264 810.837 437.287 811.814C436.147 812.628 434.844 813.605 433.704 814.744C430.936 817.186 428.33 820.116 425.887 823.046C423.608 825.651 421.491 828.419 419.699 831.186C417.908 833.791 416.279 836.395 414.814 839C414.325 839.814 414 840.465 413.511 841.279C412.208 843.884 410.906 846.651 409.766 849.419C408.626 852.023 407.649 854.628 406.834 857.395C406.183 859.349 405.532 861.465 405.043 863.581C404.392 866.023 403.903 868.465 403.415 871.07C402.926 874.163 402.438 877.419 402.275 880.674L398.529 933.093C398.366 935.698 398.204 938.14 398.204 940.581C398.204 943.674 398.366 946.93 398.692 950.023C398.692 952.465 399.181 954.907 399.669 957.186C400.158 959.791 400.646 962.395 401.298 965C401.623 966.465 401.949 967.767 402.438 969.233C402.926 971.023 403.577 972.814 404.229 974.605C404.88 976.395 405.532 978.023 406.183 979.651C406.346 979.977 406.509 980.302 406.672 980.628C408.137 983.884 409.603 986.977 411.394 990.07C412.371 991.698 413.348 993.326 414.325 994.791C415.302 996.419 416.442 998.046 417.582 999.512C418.559 1000.98 419.699 1002.44 421.002 1003.91C423.933 1007.49 427.027 1010.91 430.447 1014C432.564 1015.95 434.681 1017.74 436.961 1019.53H437.124C441.195 1020.51 445.266 1021.33 449.5 1021.65C496.889 1025.07 538.577 979.651 542.974 920.233C545.58 882.791 532.878 848.767 511.056 827.767ZM978.914 906.721C977.123 903.465 975.332 900.535 973.54 897.93C971.423 895 969.144 892.233 966.375 890.116C960.024 884.581 952.045 881.326 942.762 880.512C935.923 879.86 928.432 880.512 920.452 882.302C911.822 884.419 902.539 887.837 892.931 892.233C833.818 919.581 764.445 985.186 747.835 1001.3L744.09 1005.05L725.037 1112.81L736.924 1117.86C742.95 1120.63 888.86 1182.65 954.976 1182.65C967.189 1182.65 984.614 1177.77 996.828 1154.33C1026.3 1097.51 1007.25 959.791 978.914 906.721ZM967.841 1139.19C962.141 1150.09 956.93 1150.09 954.976 1150.09C905.633 1150.09 797.503 1107.77 761.514 1092.95L763.631 1080.91C793.269 1088.72 878.275 1109.88 913.613 1109.88C914.59 1109.88 915.567 1109.72 916.544 1109.72L915.893 1093.44C884.138 1094.74 795.061 1072.44 766.4 1064.95L767.54 1058.93C789.687 1058.12 882.509 1053.88 919.475 1037.6L912.799 1022.63C880.555 1037.12 796.526 1041.51 770.471 1042.49L771.122 1038.58C813.788 1012.7 889.186 968.419 909.705 961.907L904.819 946.442C884.626 952.791 822.582 988.93 785.127 1011.23C833.492 966.628 907.425 909.977 939.668 912.907C943.902 913.233 945.694 914.86 946.834 916.651C974.68 956.209 991.616 1093.77 967.841 1139.19ZM978.914 906.721C977.123 903.465 975.332 900.535 973.54 897.93C971.423 895 969.144 892.233 966.375 890.116C960.024 884.581 952.045 881.326 942.762 880.512C935.923 879.86 928.432 880.512 920.452 882.302C911.822 884.419 902.539 887.837 892.931 892.233C833.818 919.581 764.445 985.186 747.835 1001.3L744.09 1005.05L725.037 1112.81L736.924 1117.86C742.95 1120.63 888.86 1182.65 954.976 1182.65C967.189 1182.65 984.614 1177.77 996.828 1154.33C1026.3 1097.51 1007.25 959.791 978.914 906.721ZM967.841 1139.19C962.141 1150.09 956.93 1150.09 954.976 1150.09C905.633 1150.09 797.503 1107.77 761.514 1092.95L763.631 1080.91C793.269 1088.72 878.275 1109.88 913.613 1109.88C914.59 1109.88 915.567 1109.72 916.544 1109.72L915.893 1093.44C884.138 1094.74 795.061 1072.44 766.4 1064.95L767.54 1058.93C789.687 1058.12 882.509 1053.88 919.475 1037.6L912.799 1022.63C880.555 1037.12 796.526 1041.51 770.471 1042.49L771.122 1038.58C813.788 1012.7 889.186 968.419 909.705 961.907L904.819 946.442C884.626 952.791 822.582 988.93 785.127 1011.23C833.492 966.628 907.425 909.977 939.668 912.907C943.902 913.233 945.694 914.86 946.834 916.651C974.68 956.209 991.616 1093.77 967.841 1139.19ZM506.496 788.86C504.217 788.86 501.774 788.535 499.494 788.535C490.375 788.535 481.418 789.837 472.95 792.279L554.699 806.116C541.02 796.349 524.41 790.163 506.496 788.86ZM511.056 827.767C498.354 815.395 482.558 807.581 464.971 806.279C456.828 805.791 448.686 806.767 440.869 808.884C440.869 808.884 440.761 808.938 440.544 809.047C439.404 810.023 438.264 810.837 437.287 811.814C436.147 812.628 434.844 813.605 433.704 814.744C430.936 817.186 428.33 820.116 425.887 823.046C423.608 825.651 421.491 828.419 419.699 831.186C417.908 833.791 416.279 836.395 414.814 839C414.325 839.814 414 840.465 413.511 841.279C412.208 843.884 410.906 846.651 409.766 849.419C408.626 852.023 407.649 854.628 406.834 857.395C406.183 859.349 405.532 861.465 405.043 863.581C404.392 866.023 403.903 868.465 403.415 871.07C402.926 874.163 402.438 877.419 402.275 880.674L398.529 933.093C398.366 935.698 398.204 938.14 398.204 940.581C398.204 943.674 398.366 946.93 398.692 950.023C398.692 952.465 399.181 954.907 399.669 957.186C400.158 959.791 400.646 962.395 401.298 965C401.623 966.465 401.949 967.767 402.438 969.233C402.926 971.023 403.577 972.814 404.229 974.605C404.88 976.395 405.532 978.023 406.183 979.651C406.346 979.977 406.509 980.302 406.672 980.628C408.137 983.884 409.603 986.977 411.394 990.07C412.371 991.698 413.348 993.326 414.325 994.791C415.302 996.419 416.442 998.046 417.582 999.512C418.559 1000.98 419.699 1002.44 421.002 1003.91C423.933 1007.49 427.027 1010.91 430.447 1014C432.564 1015.95 434.681 1017.74 436.961 1019.53H437.124C441.195 1020.51 445.266 1021.33 449.5 1021.65C496.889 1025.07 538.577 979.651 542.974 920.233C545.58 882.791 532.878 848.767 511.056 827.767ZM511.056 827.767C498.354 815.395 482.558 807.581 464.971 806.279C456.828 805.791 448.686 806.767 440.869 808.884C440.869 808.884 440.761 808.938 440.544 809.047C439.404 810.023 438.264 810.837 437.287 811.814C436.147 812.628 434.844 813.605 433.704 814.744C430.936 817.186 428.33 820.116 425.887 823.046C423.608 825.651 421.491 828.419 419.699 831.186C417.908 833.791 416.279 836.395 414.814 839C414.325 839.814 414 840.465 413.511 841.279C412.208 843.884 410.906 846.651 409.766 849.419C408.626 852.023 407.649 854.628 406.834 857.395C406.183 859.349 405.532 861.465 405.043 863.581C404.392 866.023 403.903 868.465 403.415 871.07C402.926 874.163 402.438 877.419 402.275 880.674L398.529 933.093C398.366 935.698 398.204 938.14 398.204 940.581C398.204 943.674 398.366 946.93 398.692 950.023C398.692 952.465 399.181 954.907 399.669 957.186C400.158 959.791 400.646 962.395 401.298 965C401.623 966.465 401.949 967.767 402.438 969.233C402.926 971.023 403.577 972.814 404.229 974.605C404.88 976.395 405.532 978.023 406.183 979.651C406.346 979.977 406.509 980.302 406.672 980.628C408.137 983.884 409.603 986.977 411.394 990.07C412.371 991.698 413.348 993.326 414.325 994.791C415.302 996.419 416.442 998.046 417.582 999.512C418.559 1000.98 419.699 1002.44 421.002 1003.91C423.933 1007.49 427.027 1010.91 430.447 1014C432.564 1015.95 434.681 1017.74 436.961 1019.53H437.124C441.195 1020.51 445.266 1021.33 449.5 1021.65C496.889 1025.07 538.577 979.651 542.974 920.233C545.58 882.791 532.878 848.767 511.056 827.767ZM506.496 788.86C504.217 788.86 501.774 788.535 499.494 788.535C490.375 788.535 481.418 789.837 472.95 792.279L554.699 806.116C541.02 796.349 524.41 790.163 506.496 788.86ZM978.914 906.721C977.123 903.465 975.332 900.535 973.54 897.93C971.423 895 969.144 892.233 966.375 890.116C960.024 884.581 952.045 881.326 942.762 880.512C935.923 879.86 928.432 880.512 920.452 882.302C911.822 884.419 902.539 887.837 892.931 892.233C833.818 919.581 764.445 985.186 747.835 1001.3L744.09 1005.05L725.037 1112.81L736.924 1117.86C742.95 1120.63 888.86 1182.65 954.976 1182.65C967.189 1182.65 984.614 1177.77 996.828 1154.33C1026.3 1097.51 1007.25 959.791 978.914 906.721ZM967.841 1139.19C962.141 1150.09 956.93 1150.09 954.976 1150.09C905.633 1150.09 797.503 1107.77 761.514 1092.95L763.631 1080.91C793.269 1088.72 878.275 1109.88 913.613 1109.88C914.59 1109.88 915.567 1109.72 916.544 1109.72L915.893 1093.44C884.138 1094.74 795.061 1072.44 766.4 1064.95L767.54 1058.93C789.687 1058.12 882.509 1053.88 919.475 1037.6L912.799 1022.63C880.555 1037.12 796.526 1041.51 770.471 1042.49L771.122 1038.58C813.788 1012.7 889.186 968.419 909.705 961.907L904.819 946.442C884.626 952.791 822.582 988.93 785.127 1011.23C833.492 966.628 907.425 909.977 939.668 912.907C943.902 913.233 945.694 914.86 946.834 916.651C974.68 956.209 991.616 1093.77 967.841 1139.19ZM978.914 906.721C977.123 903.465 975.332 900.535 973.54 897.93C971.423 895 969.144 892.233 966.375 890.116C960.024 884.581 952.045 881.326 942.762 880.512C935.923 879.86 928.432 880.512 920.452 882.302C911.822 884.419 902.539 887.837 892.931 892.233C833.818 919.581 764.445 985.186 747.835 1001.3L744.09 1005.05L725.037 1112.81L736.924 1117.86C742.95 1120.63 888.86 1182.65 954.976 1182.65C967.189 1182.65 984.614 1177.77 996.828 1154.33C1026.3 1097.51 1007.25 959.791 978.914 906.721ZM967.841 1139.19C962.141 1150.09 956.93 1150.09 954.976 1150.09C905.633 1150.09 797.503 1107.77 761.514 1092.95L763.631 1080.91C793.269 1088.72 878.275 1109.88 913.613 1109.88C914.59 1109.88 915.567 1109.72 916.544 1109.72L915.893 1093.44C884.138 1094.74 795.061 1072.44 766.4 1064.95L767.54 1058.93C789.687 1058.12 882.509 1053.88 919.475 1037.6L912.799 1022.63C880.555 1037.12 796.526 1041.51 770.471 1042.49L771.122 1038.58C813.788 1012.7 889.186 968.419 909.705 961.907L904.819 946.442C884.626 952.791 822.582 988.93 785.127 1011.23C833.492 966.628 907.425 909.977 939.668 912.907C943.902 913.233 945.694 914.86 946.834 916.651C974.68 956.209 991.616 1093.77 967.841 1139.19ZM499.494 788.535C490.375 788.535 481.418 789.837 472.95 792.279L554.699 806.116C541.02 796.349 524.41 790.163 506.496 788.86C504.217 788.86 501.774 788.535 499.494 788.535ZM464.971 806.279C456.828 805.791 448.686 806.767 440.869 808.884C440.869 808.884 440.761 808.938 440.544 809.047C439.404 810.023 438.264 810.837 437.287 811.814C436.147 812.628 434.844 813.605 433.704 814.744C430.936 817.186 428.33 820.116 425.887 823.046C423.608 825.651 421.491 828.419 419.699 831.186C417.908 833.791 416.279 836.395 414.814 839C414.325 839.814 414 840.465 413.511 841.279C412.208 843.884 410.906 846.651 409.766 849.419C408.626 852.023 407.649 854.628 406.834 857.395C406.183 859.349 405.532 861.465 405.043 863.581C404.392 866.023 403.903 868.465 403.415 871.07C402.926 874.163 402.438 877.419 402.275 880.674L398.529 933.093C398.366 935.698 398.204 938.14 398.204 940.581C398.204 943.674 398.366 946.93 398.692 950.023C398.692 952.465 399.181 954.907 399.669 957.186C400.158 959.791 400.646 962.395 401.298 965C401.623 966.465 401.949 967.767 402.438 969.233C402.926 971.023 403.577 972.814 404.229 974.605C404.88 976.395 405.532 978.023 406.183 979.651C406.346 979.977 406.509 980.302 406.672 980.628C408.137 983.884 409.603 986.977 411.394 990.07C412.371 991.698 413.348 993.326 414.325 994.791C415.302 996.419 416.442 998.046 417.582 999.512C418.559 1000.98 419.699 1002.44 421.002 1003.91C423.933 1007.49 427.027 1010.91 430.447 1014C432.564 1015.95 434.681 1017.74 436.961 1019.53H437.124C441.195 1020.51 445.266 1021.33 449.5 1021.65C496.889 1025.07 538.577 979.651 542.974 920.233C545.58 882.791 532.878 848.767 511.056 827.767C498.354 815.395 482.558 807.581 464.971 806.279ZM1690.39 600.512C1648.05 579.349 1420.55 838.512 1383.59 912.581C1373 933.744 1330.5 913.721 1268.62 875.628C1264.87 873.186 1260.96 870.744 1256.89 868.302C1252.99 865.86 1249.08 863.419 1245.01 860.814C1214.06 841.116 1179.22 818 1141.6 794.07H1141.44C987.22 694.93 788.384 578.535 632.214 605.721C623.42 607.186 614.952 608.814 606.484 610.442C605.507 610.605 604.693 610.767 603.716 610.93C532.715 624.767 472.462 641.86 421.816 661.558C416.931 663.349 412.208 665.302 407.486 667.256C402.6 669.209 397.715 671.163 392.992 673.279C118.27 792.93 151.165 989.419 177.058 1071.3C200.345 1145.05 372.148 1290.26 595.899 1336.81C601.599 1338.12 607.298 1339.26 613.161 1340.23C621.466 1341.86 629.934 1343.33 638.565 1344.3C678.137 1350.33 719.174 1352.93 761.026 1351.3C767.865 1351.14 774.542 1350.81 781.381 1350.33C788.058 1349.84 794.572 1349.35 801.249 1348.53C818.836 1346.91 836.424 1344.47 854.174 1341.05C881.369 1336 907.099 1329.81 931.363 1322.81C936.249 1321.51 940.971 1320.05 945.694 1318.58C950.579 1317.28 955.302 1315.65 960.024 1314.19C996.99 1302.14 1030.54 1288.14 1060.83 1272.84H1060.99C1060.99 1272.84 1061.15 1272.67 1061.31 1272.67C1078.09 1264.21 1093.88 1255.58 1108.7 1246.63C1112.61 1244.19 1116.36 1241.91 1120.1 1239.63C1139.48 1227.42 1157.23 1214.88 1173.68 1202.19C1176.77 1199.91 1179.7 1197.47 1182.64 1195.19C1209.18 1174.35 1231.98 1153.35 1251.85 1133.49L1262.27 1123.07C1265.69 1119.49 1269.11 1115.91 1272.53 1112.49C1311.61 1072.12 1338.64 1039.72 1362.26 1028.98C1430.98 997.233 1663.85 1272.19 1727.36 1261.6C1790.87 1251.02 1732.57 621.674 1690.23 600.512H1690.39ZM1723.12 1245.81H1722.96C1699.18 1245.81 1628.35 1185.26 1576.07 1140.81C1467.94 1048.67 1399.22 993.977 1355.58 1014.16C1333.92 1024.09 1312.75 1046.72 1283.27 1077.81C1275.62 1085.95 1267.32 1094.74 1258.2 1104.02C1254.94 1107.44 1251.36 1111.02 1247.77 1114.6C1238.33 1124.21 1228.23 1133.98 1217.16 1144.23C1157.39 1199.42 1073.69 1260.47 951.068 1299.86C946.508 1301.49 941.785 1302.95 937.063 1304.42C932.34 1305.72 927.618 1307.19 922.732 1308.33C900.259 1314.84 876.484 1320.37 851.406 1325.09C828.77 1329.33 806.46 1332.09 784.313 1333.72C777.473 1334.21 770.634 1334.7 763.794 1334.86C756.629 1335.19 749.464 1335.51 742.298 1335.51H737.087C720.477 1335.51 704.192 1334.86 687.908 1333.56C672.926 1332.42 657.944 1330.79 643.288 1328.67C630.586 1326.88 618.046 1324.77 605.67 1322.33C384.199 1278.37 214.35 1135.12 192.528 1066.26C173.801 1007 162.239 918.767 213.373 834.93C248.71 776.814 308.801 728.791 392.83 691.023C397.552 689.07 402.275 686.953 407.16 684.837C411.883 682.884 416.605 680.93 421.491 678.977C481.744 655.209 553.071 636.163 634.982 621.837C802.389 592.698 1022.07 735.628 1182.47 839.814C1201.85 852.349 1219.44 863.744 1235.56 874C1239.63 876.605 1243.54 879.046 1247.29 881.488C1251.36 884.093 1255.43 886.535 1259.17 888.814C1319.59 926.093 1354.76 942.535 1378.21 936.023C1387.17 933.581 1394.01 928.046 1398.08 919.744C1435.54 845.023 1638.93 621.023 1682.74 615.651C1707.33 653.907 1748.04 980.465 1737.78 1164.26C1734.36 1226.44 1725.73 1242.4 1723.12 1245.81ZM973.54 897.93C971.423 895 969.144 892.233 966.375 890.116C960.024 884.581 952.045 881.326 942.762 880.512C935.923 879.86 928.432 880.512 920.452 882.302C911.822 884.419 902.539 887.837 892.931 892.233C833.818 919.581 764.445 985.186 747.835 1001.3L744.09 1005.05L725.037 1112.81L736.924 1117.86C742.95 1120.63 888.86 1182.65 954.976 1182.65C967.189 1182.65 984.614 1177.77 996.828 1154.33C1026.3 1097.51 1007.25 959.791 978.914 906.721C977.123 903.465 975.332 900.535 973.54 897.93ZM967.841 1139.19C962.141 1150.09 956.93 1150.09 954.976 1150.09C905.633 1150.09 797.503 1107.77 761.514 1092.95L763.631 1080.91C793.269 1088.72 878.275 1109.88 913.613 1109.88C914.59 1109.88 915.567 1109.72 916.544 1109.72L915.893 1093.44C884.138 1094.74 795.061 1072.44 766.4 1064.95L767.54 1058.93C789.687 1058.12 882.509 1053.88 919.475 1037.6L912.799 1022.63C880.555 1037.12 796.526 1041.51 770.471 1042.49L771.122 1038.58C813.788 1012.7 889.186 968.419 909.705 961.907L904.819 946.442C884.626 952.791 822.582 988.93 785.127 1011.23C833.492 966.628 907.425 909.977 939.668 912.907C943.902 913.233 945.694 914.86 946.834 916.651C974.68 956.209 991.616 1093.77 967.841 1139.19ZM499.494 788.535C490.375 788.535 481.418 789.837 472.95 792.279L554.699 806.116C541.02 796.349 524.41 790.163 506.496 788.86C504.217 788.86 501.774 788.535 499.494 788.535ZM464.971 806.279C456.828 805.791 448.686 806.767 440.869 808.884C440.869 808.884 440.761 808.938 440.544 809.047C439.404 810.023 438.264 810.837 437.287 811.814C436.147 812.628 434.844 813.605 433.704 814.744C430.936 817.186 428.33 820.116 425.887 823.046C423.608 825.651 421.491 828.419 419.699 831.186C417.908 833.791 416.279 836.395 414.814 839C414.325 839.814 414 840.465 413.511 841.279C412.208 843.884 410.906 846.651 409.766 849.419C408.626 852.023 407.649 854.628 406.834 857.395C406.183 859.349 405.532 861.465 405.043 863.581C404.392 866.023 403.903 868.465 403.415 871.07C402.926 874.163 402.438 877.419 402.275 880.674L398.529 933.093C398.366 935.698 398.204 938.14 398.204 940.581C398.204 943.674 398.366 946.93 398.692 950.023C398.692 952.465 399.181 954.907 399.669 957.186C400.158 959.791 400.646 962.395 401.298 965C401.623 966.465 401.949 967.767 402.438 969.233C402.926 971.023 403.577 972.814 404.229 974.605C404.88 976.395 405.532 978.023 406.183 979.651C406.346 979.977 406.509 980.302 406.672 980.628C408.137 983.884 409.603 986.977 411.394 990.07C412.371 991.698 413.348 993.326 414.325 994.791C415.302 996.419 416.442 998.046 417.582 999.512C418.559 1000.98 419.699 1002.44 421.002 1003.91C423.933 1007.49 427.027 1010.91 430.447 1014C432.564 1015.95 434.681 1017.74 436.961 1019.53H437.124C441.195 1020.51 445.266 1021.33 449.5 1021.65C496.889 1025.07 538.577 979.651 542.974 920.233C545.58 882.791 532.878 848.767 511.056 827.767C498.354 815.395 482.558 807.581 464.971 806.279ZM511.056 827.767C498.354 815.395 482.558 807.581 464.971 806.279C456.828 805.791 448.686 806.767 440.869 808.884C440.869 808.884 440.761 808.938 440.544 809.047C439.404 810.023 438.264 810.837 437.287 811.814C436.147 812.628 434.844 813.605 433.704 814.744C430.936 817.186 428.33 820.116 425.887 823.046C423.608 825.651 421.491 828.419 419.699 831.186C417.908 833.791 416.279 836.395 414.814 839C414.325 839.814 414 840.465 413.511 841.279C412.208 843.884 410.906 846.651 409.766 849.419C408.626 852.023 407.649 854.628 406.834 857.395C406.183 859.349 405.532 861.465 405.043 863.581C404.392 866.023 403.903 868.465 403.415 871.07C402.926 874.163 402.438 877.419 402.275 880.674L398.529 933.093C398.366 935.698 398.204 938.14 398.204 940.581C398.204 943.674 398.366 946.93 398.692 950.023C398.692 952.465 399.181 954.907 399.669 957.186C400.158 959.791 400.646 962.395 401.298 965C401.623 966.465 401.949 967.767 402.438 969.233C402.926 971.023 403.577 972.814 404.229 974.605C404.88 976.395 405.532 978.023 406.183 979.651C406.346 979.977 406.509 980.302 406.672 980.628C408.137 983.884 409.603 986.977 411.394 990.07C412.371 991.698 413.348 993.326 414.325 994.791C415.302 996.419 416.442 998.046 417.582 999.512C418.559 1000.98 419.699 1002.44 421.002 1003.91C423.933 1007.49 427.027 1010.91 430.447 1014C432.564 1015.95 434.681 1017.74 436.961 1019.53H437.124C441.195 1020.51 445.266 1021.33 449.5 1021.65C496.889 1025.07 538.577 979.651 542.974 920.233C545.58 882.791 532.878 848.767 511.056 827.767ZM506.496 788.86C504.217 788.86 501.774 788.535 499.494 788.535C490.375 788.535 481.418 789.837 472.95 792.279L554.699 806.116C541.02 796.349 524.41 790.163 506.496 788.86ZM978.914 906.721C977.123 903.465 975.332 900.535 973.54 897.93C971.423 895 969.144 892.233 966.375 890.116C960.024 884.581 952.045 881.326 942.762 880.512C935.923 879.86 928.432 880.512 920.452 882.302C911.822 884.419 902.539 887.837 892.931 892.233C833.818 919.581 764.445 985.186 747.835 1001.3L744.09 1005.05L725.037 1112.81L736.924 1117.86C742.95 1120.63 888.86 1182.65 954.976 1182.65C967.189 1182.65 984.614 1177.77 996.828 1154.33C1026.3 1097.51 1007.25 959.791 978.914 906.721ZM967.841 1139.19C962.141 1150.09 956.93 1150.09 954.976 1150.09C905.633 1150.09 797.503 1107.77 761.514 1092.95L763.631 1080.91C793.269 1088.72 878.275 1109.88 913.613 1109.88C914.59 1109.88 915.567 1109.72 916.544 1109.72L915.893 1093.44C884.138 1094.74 795.061 1072.44 766.4 1064.95L767.54 1058.93C789.687 1058.12 882.509 1053.88 919.475 1037.6L912.799 1022.63C880.555 1037.12 796.526 1041.51 770.471 1042.49L771.122 1038.58C813.788 1012.7 889.186 968.419 909.705 961.907L904.819 946.442C884.626 952.791 822.582 988.93 785.127 1011.23C833.492 966.628 907.425 909.977 939.668 912.907C943.902 913.233 945.694 914.86 946.834 916.651C974.68 956.209 991.616 1093.77 967.841 1139.19ZM978.914 906.721C977.123 903.465 975.332 900.535 973.54 897.93C971.423 895 969.144 892.233 966.375 890.116C960.024 884.581 952.045 881.326 942.762 880.512C935.923 879.86 928.432 880.512 920.452 882.302C911.822 884.419 902.539 887.837 892.931 892.233C833.818 919.581 764.445 985.186 747.835 1001.3L744.09 1005.05L725.037 1112.81L736.924 1117.86C742.95 1120.63 888.86 1182.65 954.976 1182.65C967.189 1182.65 984.614 1177.77 996.828 1154.33C1026.3 1097.51 1007.25 959.791 978.914 906.721ZM967.841 1139.19C962.141 1150.09 956.93 1150.09 954.976 1150.09C905.633 1150.09 797.503 1107.77 761.514 1092.95L763.631 1080.91C793.269 1088.72 878.275 1109.88 913.613 1109.88C914.59 1109.88 915.567 1109.72 916.544 1109.72L915.893 1093.44C884.138 1094.74 795.061 1072.44 766.4 1064.95L767.54 1058.93C789.687 1058.12 882.509 1053.88 919.475 1037.6L912.799 1022.63C880.555 1037.12 796.526 1041.51 770.471 1042.49L771.122 1038.58C813.788 1012.7 889.186 968.419 909.705 961.907L904.819 946.442C884.626 952.791 822.582 988.93 785.127 1011.23C833.492 966.628 907.425 909.977 939.668 912.907C943.902 913.233 945.694 914.86 946.834 916.651C974.68 956.209 991.616 1093.77 967.841 1139.19ZM506.496 788.86C504.217 788.86 501.774 788.535 499.494 788.535C490.375 788.535 481.418 789.837 472.95 792.279L554.699 806.116C541.02 796.349 524.41 790.163 506.496 788.86ZM511.056 827.767C498.354 815.395 482.558 807.581 464.971 806.279C456.828 805.791 448.686 806.767 440.869 808.884C440.869 808.884 440.761 808.938 440.544 809.047C439.404 810.023 438.264 810.837 437.287 811.814C436.147 812.628 434.844 813.605 433.704 814.744C430.936 817.186 428.33 820.116 425.887 823.046C423.608 825.651 421.491 828.419 419.699 831.186C417.908 833.791 416.279 836.395 414.814 839C414.325 839.814 414 840.465 413.511 841.279C412.208 843.884 410.906 846.651 409.766 849.419C408.626 852.023 407.649 854.628 406.834 857.395C406.183 859.349 405.532 861.465 405.043 863.581C404.392 866.023 403.903 868.465 403.415 871.07C402.926 874.163 402.438 877.419 402.275 880.674L398.529 933.093C398.366 935.698 398.204 938.14 398.204 940.581C398.204 943.674 398.366 946.93 398.692 950.023C398.692 952.465 399.181 954.907 399.669 957.186C400.158 959.791 400.646 962.395 401.298 965C401.623 966.465 401.949 967.767 402.438 969.233C402.926 971.023 403.577 972.814 404.229 974.605C404.88 976.395 405.532 978.023 406.183 979.651C406.346 979.977 406.509 980.302 406.672 980.628C408.137 983.884 409.603 986.977 411.394 990.07C412.371 991.698 413.348 993.326 414.325 994.791C415.302 996.419 416.442 998.046 417.582 999.512C418.559 1000.98 419.699 1002.44 421.002 1003.91C423.933 1007.49 427.027 1010.91 430.447 1014C432.564 1015.95 434.681 1017.74 436.961 1019.53H437.124C441.195 1020.51 445.266 1021.33 449.5 1021.65C496.889 1025.07 538.577 979.651 542.974 920.233C545.58 882.791 532.878 848.767 511.056 827.767ZM506.496 788.86C504.217 788.86 501.774 788.535 499.494 788.535C490.375 788.535 481.418 789.837 472.95 792.279L554.699 806.116C541.02 796.349 524.41 790.163 506.496 788.86ZM511.056 827.767C498.354 815.395 482.558 807.581 464.971 806.279C456.828 805.791 448.686 806.767 440.869 808.884C440.869 808.884 440.761 808.938 440.544 809.047C439.404 810.023 438.264 810.837 437.287 811.814C436.147 812.628 434.844 813.605 433.704 814.744C430.936 817.186 428.33 820.116 425.887 823.046C423.608 825.651 421.491 828.419 419.699 831.186C417.908 833.791 416.279 836.395 414.814 839C414.325 839.814 414 840.465 413.511 841.279C412.208 843.884 410.906 846.651 409.766 849.419C408.626 852.023 407.649 854.628 406.834 857.395C406.183 859.349 405.532 861.465 405.043 863.581C404.392 866.023 403.903 868.465 403.415 871.07C402.926 874.163 402.438 877.419 402.275 880.674L398.529 933.093C398.366 935.698 398.204 938.14 398.204 940.581C398.204 943.674 398.366 946.93 398.692 950.023C398.692 952.465 399.181 954.907 399.669 957.186C400.158 959.791 400.646 962.395 401.298 965C401.623 966.465 401.949 967.767 402.438 969.233C402.926 971.023 403.577 972.814 404.229 974.605C404.88 976.395 405.532 978.023 406.183 979.651C406.346 979.977 406.509 980.302 406.672 980.628C408.137 983.884 409.603 986.977 411.394 990.07C412.371 991.698 413.348 993.326 414.325 994.791C415.302 996.419 416.442 998.046 417.582 999.512C418.559 1000.98 419.699 1002.44 421.002 1003.91C423.933 1007.49 427.027 1010.91 430.447 1014C432.564 1015.95 434.681 1017.74 436.961 1019.53H437.124C441.195 1020.51 445.266 1021.33 449.5 1021.65C496.889 1025.07 538.577 979.651 542.974 920.233C545.58 882.791 532.878 848.767 511.056 827.767ZM978.914 906.721C977.123 903.465 975.332 900.535 973.54 897.93C971.423 895 969.144 892.233 966.375 890.116C960.024 884.581 952.045 881.326 942.762 880.512C935.923 879.86 928.432 880.512 920.452 882.302C911.822 884.419 902.539 887.837 892.931 892.233C833.818 919.581 764.445 985.186 747.835 1001.3L744.09 1005.05L725.037 1112.81L736.924 1117.86C742.95 1120.63 888.86 1182.65 954.976 1182.65C967.189 1182.65 984.614 1177.77 996.828 1154.33C1026.3 1097.51 1007.25 959.791 978.914 906.721ZM967.841 1139.19C962.141 1150.09 956.93 1150.09 954.976 1150.09C905.633 1150.09 797.503 1107.77 761.514 1092.95L763.631 1080.91C793.269 1088.72 878.275 1109.88 913.613 1109.88C914.59 1109.88 915.567 1109.72 916.544 1109.72L915.893 1093.44C884.138 1094.74 795.061 1072.44 766.4 1064.95L767.54 1058.93C789.687 1058.12 882.509 1053.88 919.475 1037.6L912.799 1022.63C880.555 1037.12 796.526 1041.51 770.471 1042.49L771.122 1038.58C813.788 1012.7 889.186 968.419 909.705 961.907L904.819 946.442C884.626 952.791 822.582 988.93 785.127 1011.23C833.492 966.628 907.425 909.977 939.668 912.907C943.902 913.233 945.694 914.86 946.834 916.651C974.68 956.209 991.616 1093.77 967.841 1139.19ZM506.496 788.86C504.217 788.86 501.774 788.535 499.494 788.535C490.375 788.535 481.418 789.837 472.95 792.279L554.699 806.116C541.02 796.349 524.41 790.163 506.496 788.86ZM511.056 827.767C498.354 815.395 482.558 807.581 464.971 806.279C456.828 805.791 448.686 806.767 440.869 808.884C440.869 808.884 440.761 808.938 440.544 809.047C439.404 810.023 438.264 810.837 437.287 811.814C436.147 812.628 434.844 813.605 433.704 814.744C430.936 817.186 428.33 820.116 425.887 823.046C423.608 825.651 421.491 828.419 419.699 831.186C417.908 833.791 416.279 836.395 414.814 839C414.325 839.814 414 840.465 413.511 841.279C412.208 843.884 410.906 846.651 409.766 849.419C408.626 852.023 407.649 854.628 406.834 857.395C406.183 859.349 405.532 861.465 405.043 863.581C404.392 866.023 403.903 868.465 403.415 871.07C402.926 874.163 402.438 877.419 402.275 880.674L398.529 933.093C398.366 935.698 398.204 938.14 398.204 940.581C398.204 943.674 398.366 946.93 398.692 950.023C398.692 952.465 399.181 954.907 399.669 957.186C400.158 959.791 400.646 962.395 401.298 965C401.623 966.465 401.949 967.767 402.438 969.233C402.926 971.023 403.577 972.814 404.229 974.605C404.88 976.395 405.532 978.023 406.183 979.651C406.346 979.977 406.509 980.302 406.672 980.628C408.137 983.884 409.603 986.977 411.394 990.07C412.371 991.698 413.348 993.326 414.325 994.791C415.302 996.419 416.442 998.046 417.582 999.512C418.559 1000.98 419.699 1002.44 421.002 1003.91C423.933 1007.49 427.027 1010.91 430.447 1014C432.564 1015.95 434.681 1017.74 436.961 1019.53H437.124C441.195 1020.51 445.266 1021.33 449.5 1021.65C496.889 1025.07 538.577 979.651 542.974 920.233C545.58 882.791 532.878 848.767 511.056 827.767ZM978.914 906.721C977.123 903.465 975.332 900.535 973.54 897.93C971.423 895 969.144 892.233 966.375 890.116C960.024 884.581 952.045 881.326 942.762 880.512C935.923 879.86 928.432 880.512 920.452 882.302C911.822 884.419 902.539 887.837 892.931 892.233C833.818 919.581 764.445 985.186 747.835 1001.3L744.09 1005.05L725.037 1112.81L736.924 1117.86C742.95 1120.63 888.86 1182.65 954.976 1182.65C967.189 1182.65 984.614 1177.77 996.828 1154.33C1026.3 1097.51 1007.25 959.791 978.914 906.721ZM967.841 1139.19C962.141 1150.09 956.93 1150.09 954.976 1150.09C905.633 1150.09 797.503 1107.77 761.514 1092.95L763.631 1080.91C793.269 1088.72 878.275 1109.88 913.613 1109.88C914.59 1109.88 915.567 1109.72 916.544 1109.72L915.893 1093.44C884.138 1094.74 795.061 1072.44 766.4 1064.95L767.54 1058.93C789.687 1058.12 882.509 1053.88 919.475 1037.6L912.799 1022.63C880.555 1037.12 796.526 1041.51 770.471 1042.49L771.122 1038.58C813.788 1012.7 889.186 968.419 909.705 961.907L904.819 946.442C884.626 952.791 822.582 988.93 785.127 1011.23C833.492 966.628 907.425 909.977 939.668 912.907C943.902 913.233 945.694 914.86 946.834 916.651C974.68 956.209 991.616 1093.77 967.841 1139.19ZM506.496 788.86C504.217 788.86 501.774 788.535 499.494 788.535C490.375 788.535 481.418 789.837 472.95 792.279L554.699 806.116C541.02 796.349 524.41 790.163 506.496 788.86ZM511.056 827.767C498.354 815.395 482.558 807.581 464.971 806.279C456.828 805.791 448.686 806.767 440.869 808.884C440.869 808.884 440.761 808.938 440.544 809.047C439.404 810.023 438.264 810.837 437.287 811.814C436.147 812.628 434.844 813.605 433.704 814.744C430.936 817.186 428.33 820.116 425.887 823.046C423.608 825.651 421.491 828.419 419.699 831.186C417.908 833.791 416.279 836.395 414.814 839C414.325 839.814 414 840.465 413.511 841.279C412.208 843.884 410.906 846.651 409.766 849.419C408.626 852.023 407.649 854.628 406.834 857.395C406.183 859.349 405.532 861.465 405.043 863.581C404.392 866.023 403.903 868.465 403.415 871.07C402.926 874.163 402.438 877.419 402.275 880.674L398.529 933.093C398.366 935.698 398.204 938.14 398.204 940.581C398.204 943.674 398.366 946.93 398.692 950.023C398.692 952.465 399.181 954.907 399.669 957.186C400.158 959.791 400.646 962.395 401.298 965C401.623 966.465 401.949 967.767 402.438 969.233C402.926 971.023 403.577 972.814 404.229 974.605C404.88 976.395 405.532 978.023 406.183 979.651C406.346 979.977 406.509 980.302 406.672 980.628C408.137 983.884 409.603 986.977 411.394 990.07C412.371 991.698 413.348 993.326 414.325 994.791C415.302 996.419 416.442 998.046 417.582 999.512C418.559 1000.98 419.699 1002.44 421.002 1003.91C423.933 1007.49 427.027 1010.91 430.447 1014C432.564 1015.95 434.681 1017.74 436.961 1019.53H437.124C441.195 1020.51 445.266 1021.33 449.5 1021.65C496.889 1025.07 538.577 979.651 542.974 920.233C545.58 882.791 532.878 848.767 511.056 827.767ZM978.914 906.721L892.931 892.233C833.818 919.581 764.445 985.186 747.835 1001.3L744.09 1005.05L725.037 1112.81L736.924 1117.86C742.95 1120.63 888.86 1182.65 954.976 1182.65C967.189 1182.65 984.614 1177.77 996.828 1154.33C1026.3 1097.51 1007.25 959.791 978.914 906.721ZM967.841 1139.19C962.141 1150.09 956.93 1150.09 954.976 1150.09C905.633 1150.09 797.503 1107.77 761.514 1092.95L763.631 1080.91C793.269 1088.72 878.275 1109.88 913.613 1109.88C914.59 1109.88 915.567 1109.72 916.544 1109.72L915.893 1093.44C884.138 1094.74 795.061 1072.44 766.4 1064.95L767.54 1058.93C789.687 1058.12 882.509 1053.88 919.475 1037.6L912.799 1022.63C880.555 1037.12 796.526 1041.51 770.471 1042.49L771.122 1038.58C813.788 1012.7 889.186 968.419 909.705 961.907L904.819 946.442C884.626 952.791 822.582 988.93 785.127 1011.23C833.492 966.628 907.425 909.977 939.668 912.907C943.902 913.233 945.694 914.86 946.834 916.651C974.68 956.209 991.616 1093.77 967.841 1139.19ZM506.496 788.86C504.217 788.86 501.774 788.535 499.494 788.535C490.375 788.535 481.418 789.837 472.95 792.279L554.699 806.116C541.02 796.349 524.41 790.163 506.496 788.86ZM511.056 827.767C498.354 815.395 482.558 807.581 464.971 806.279C456.828 805.791 448.686 806.767 440.869 808.884C440.869 808.884 440.761 808.938 440.544 809.047C439.404 810.023 438.264 810.837 437.287 811.814C436.147 812.628 434.844 813.605 433.704 814.744C430.936 817.186 428.33 820.116 425.887 823.046C423.608 825.651 421.491 828.419 419.699 831.186C417.908 833.791 416.279 836.395 414.814 839C414.325 839.814 414 840.465 413.511 841.279C412.208 843.884 410.906 846.651 409.766 849.419C408.626 852.023 407.649 854.628 406.834 857.395C406.183 859.349 405.532 861.465 405.043 863.581C404.392 866.023 403.903 868.465 403.415 871.07C402.926 874.163 402.438 877.419 402.275 880.674L398.529 933.093C398.366 935.698 398.204 938.14 398.204 940.581C398.204 943.674 398.366 946.93 398.692 950.023C398.692 952.465 399.181 954.907 399.669 957.186C400.158 959.791 400.646 962.395 401.298 965C401.623 966.465 401.949 967.767 402.438 969.233C402.926 971.023 403.577 972.814 404.229 974.605C404.88 976.395 405.532 978.023 406.183 979.651C406.346 979.977 406.509 980.302 406.672 980.628C408.137 983.884 409.603 986.977 411.394 990.07C412.371 991.698 413.348 993.326 414.325 994.791C415.302 996.419 416.442 998.046 417.582 999.512C418.559 1000.98 419.699 1002.44 421.002 1003.91C423.933 1007.49 427.027 1010.91 430.447 1014C432.564 1015.95 434.681 1017.74 436.961 1019.53H437.124C441.195 1020.51 445.266 1021.33 449.5 1021.65C496.889 1025.07 538.577 979.651 542.974 920.233C545.58 882.791 532.878 848.767 511.056 827.767ZM978.914 906.721L892.931 892.233C833.818 919.581 764.445 985.186 747.835 1001.3L744.09 1005.05L725.037 1112.81L736.924 1117.86C742.95 1120.63 888.86 1182.65 954.976 1182.65C967.189 1182.65 984.614 1177.77 996.828 1154.33C1026.3 1097.51 1007.25 959.791 978.914 906.721ZM967.841 1139.19C962.141 1150.09 956.93 1150.09 954.976 1150.09C905.633 1150.09 797.503 1107.77 761.514 1092.95L763.631 1080.91C793.269 1088.72 878.275 1109.88 913.613 1109.88C914.59 1109.88 915.567 1109.72 916.544 1109.72L915.893 1093.44C884.138 1094.74 795.061 1072.44 766.4 1064.95L767.54 1058.93C789.687 1058.12 882.509 1053.88 919.475 1037.6L912.799 1022.63C880.555 1037.12 796.526 1041.51 770.471 1042.49L771.122 1038.58C813.788 1012.7 889.186 968.419 909.705 961.907L904.819 946.442C884.626 952.791 822.582 988.93 785.127 1011.23C833.492 966.628 907.425 909.977 939.668 912.907C943.902 913.233 945.694 914.86 946.834 916.651C974.68 956.209 991.616 1093.77 967.841 1139.19Z" fill="white"/>
<path d="M254.41 1082.53C251.153 1085.47 247.407 1086.93 243.336 1086.93C242.685 1086.93 242.034 1086.93 241.382 1086.77C214.838 1083.67 207.999 1018.88 206.207 991.209L222.492 990.233C225.097 1030.6 235.194 1069.67 243.336 1070.65C250.176 1067.72 256.201 1028.98 255.55 989.581L271.834 989.256C271.997 1002.12 271.997 1066.58 254.41 1082.53Z" fill="black"/>
<path d="M1697.72 585.861C1685.83 580 1657.66 565.837 1523.15 709.744C1454.1 783.488 1387.82 867.488 1369.75 904.605C1358.84 909 1320.73 888.488 1276.92 861.465C1273.02 859.023 1269.11 856.581 1265.04 853.977C1261.13 851.698 1257.22 849.093 1253.15 846.651C1235.4 835.256 1217.32 823.535 1200.22 812.465C1184.92 802.535 1169.12 792.279 1152.83 781.86C1148.27 778.767 1143.55 775.837 1138.83 772.907C1115.54 757.93 1091.6 742.791 1066.85 728.14H1066.69C1062.94 725.86 1059.2 723.581 1055.45 721.302C1028.91 705.674 1001.71 690.209 974.192 675.884C969.469 673.279 964.584 670.837 959.698 668.395C933.154 654.884 906.447 642.349 879.578 631.442C874.367 629.326 869.156 627.209 864.107 625.256C836.586 614.512 809.065 605.558 781.87 598.721H781.056C776.007 597.419 770.959 596.279 765.911 595.302C747.346 591.233 728.945 588.302 710.869 586.837C705.821 586.349 700.935 586.023 695.887 585.861H695.724C690.676 585.698 685.628 585.535 680.579 585.535C663.155 585.535 646.056 586.837 629.283 589.767C623.42 590.744 617.721 591.884 611.858 592.861H611.695C605.67 594 599.807 595.14 593.945 596.442H593.782C563.167 602.465 534.343 609.302 506.822 616.791C501.285 618.256 495.749 619.884 490.375 621.349C466.436 628.349 443.8 635.837 422.305 643.977C417.419 645.767 412.697 647.558 407.974 649.512C403.089 651.465 398.203 653.419 393.481 655.372C295.773 696.721 226.237 751.093 185.526 818C128.041 912.419 140.743 1010.42 161.587 1076.19C187.969 1159.7 370.357 1310.77 604.367 1355.37C610.23 1356.51 615.929 1357.49 621.792 1358.47C627.328 1359.44 632.865 1360.26 638.565 1360.91C644.59 1361.88 650.616 1362.7 656.804 1363.35C663.643 1364.16 670.483 1364.81 677.485 1365.47C690.513 1366.6 703.541 1367.42 716.894 1367.74H717.057C723.571 1367.74 729.922 1368.07 736.599 1368.07C750.603 1368.07 764.608 1367.58 778.613 1366.77C785.127 1366.28 791.804 1365.79 798.317 1365.3C804.506 1364.65 810.857 1364 817.208 1363.19C830.561 1361.56 843.914 1359.44 857.268 1357C886.906 1351.47 914.753 1344.79 940.808 1337.14C945.856 1335.67 950.742 1334.21 955.464 1332.58C960.35 1331.12 965.235 1329.65 969.958 1327.86C979.891 1324.77 989.499 1321.35 998.782 1317.6C1004.64 1315.49 1010.34 1313.21 1016.04 1310.93C1031.03 1304.91 1045.36 1298.4 1059.03 1291.88C1064.57 1289.28 1069.95 1286.51 1075.16 1283.74C1090.63 1275.93 1105.28 1267.63 1119.29 1259C1124.34 1256.07 1129.38 1252.81 1134.27 1249.72C1151.86 1238.49 1168.14 1226.93 1183.29 1215.37C1187.85 1211.79 1192.24 1208.37 1196.48 1204.79C1209.99 1194.05 1222.53 1183.3 1234.09 1172.56C1238.33 1168.81 1242.56 1164.91 1246.63 1161.16C1253.47 1154.65 1259.82 1148.47 1266.01 1142.12C1269.43 1138.86 1272.85 1135.44 1276.11 1132.02C1279.69 1128.44 1283.27 1124.86 1286.53 1121.28C1293.7 1113.95 1300.21 1106.95 1306.56 1100.28C1332.62 1072.77 1352.97 1050.95 1368.93 1043.63C1396.62 1030.93 1491.72 1112 1554.74 1165.56C1640.56 1238.98 1695.28 1283.58 1729.8 1277.72C1753.41 1273.81 1761.23 1241.74 1765.3 1214.23C1785 1083.67 1748.69 611.419 1697.39 585.861H1697.72ZM1737.78 1164.26C1734.36 1226.44 1725.73 1242.4 1723.12 1245.81H1722.96C1699.18 1245.81 1628.35 1185.26 1576.07 1140.81C1467.94 1048.67 1399.22 993.977 1355.58 1014.16C1333.92 1024.09 1312.75 1046.72 1283.27 1077.81C1275.62 1085.95 1267.32 1094.74 1258.2 1104.02C1254.94 1107.44 1251.36 1111.02 1247.77 1114.6C1238.33 1124.21 1228.23 1133.98 1217.16 1144.23C1157.39 1199.42 1073.69 1260.47 951.068 1299.86C946.508 1301.49 941.785 1302.95 937.063 1304.42C932.34 1305.72 927.618 1307.19 922.732 1308.33C900.259 1314.84 876.484 1320.37 851.405 1325.09C828.77 1329.33 806.46 1332.09 784.313 1333.72C777.473 1334.21 770.633 1334.7 763.794 1334.86C756.629 1335.19 749.463 1335.51 742.298 1335.51H737.087C720.477 1335.51 704.192 1334.86 687.907 1333.56C672.926 1332.42 657.944 1330.79 643.287 1328.67C630.585 1326.88 618.046 1324.77 605.67 1322.33C384.199 1278.37 214.35 1135.12 192.528 1066.26C173.801 1007 162.239 918.767 213.373 834.93C248.71 776.814 308.801 728.791 392.829 691.023C397.552 689.07 402.275 686.954 407.16 684.837C411.883 682.884 416.605 680.93 421.49 678.977C481.744 655.209 553.07 636.163 634.982 621.837C802.389 592.698 1022.07 735.628 1182.47 839.814C1201.85 852.349 1219.44 863.744 1235.56 874C1239.63 876.605 1243.54 879.047 1247.29 881.488C1251.36 884.093 1255.43 886.535 1259.17 888.814C1319.59 926.093 1354.76 942.535 1378.21 936.023C1387.17 933.581 1394.01 928.047 1398.08 919.744C1435.54 845.023 1638.93 621.023 1682.74 615.651C1707.33 653.907 1748.04 980.465 1737.78 1164.26Z" fill="black"/>
<path d="M767.702 1040.7C766.562 1041.51 765.748 1042.16 764.771 1042.81C766.074 1042.65 768.028 1042.65 770.471 1042.49L771.122 1038.58C769.982 1039.4 768.842 1040.05 767.702 1040.7ZM767.702 1040.7C766.562 1041.51 765.748 1042.16 764.771 1042.81C766.074 1042.65 768.028 1042.65 770.471 1042.49L771.122 1038.58C769.982 1039.4 768.842 1040.05 767.702 1040.7ZM978.914 906.721C977.123 903.465 975.332 900.535 973.54 897.93C971.423 895 969.144 892.232 966.375 890.116C960.024 884.581 952.045 881.326 942.762 880.512C935.923 879.86 928.432 880.512 920.452 882.302C911.822 884.419 902.539 887.837 892.931 892.232C833.818 919.581 764.446 985.186 747.835 1001.3L744.09 1005.05L725.037 1112.81L736.924 1117.86C742.95 1120.63 888.86 1182.65 954.976 1182.65C967.189 1182.65 984.614 1177.77 996.827 1154.33C1026.3 1097.51 1007.25 959.791 978.914 906.721ZM967.841 1139.19C962.141 1150.09 956.93 1150.09 954.976 1150.09C905.633 1150.09 797.503 1107.77 761.514 1092.95L763.631 1080.91L766.4 1064.95L767.54 1058.93L770.471 1042.49L771.122 1038.58L774.216 1021.16C777.473 1018.07 780.893 1014.81 784.476 1011.72C784.476 1011.72 784.801 1011.4 785.127 1011.23C833.492 966.628 907.425 909.977 939.668 912.907C943.902 913.232 945.694 914.86 946.834 916.651C974.68 956.209 991.616 1093.77 967.841 1139.19ZM767.702 1040.7C766.562 1041.51 765.748 1042.16 764.771 1042.81C766.074 1042.65 768.028 1042.65 770.471 1042.49L771.122 1038.58C769.982 1039.4 768.842 1040.05 767.702 1040.7ZM767.702 1040.7C766.562 1041.51 765.748 1042.16 764.771 1042.81C766.074 1042.65 768.028 1042.65 770.471 1042.49L771.122 1038.58C769.982 1039.4 768.842 1040.05 767.702 1040.7Z" fill="black"/>
<path d="M513.336 505.279C513.336 505.279 507.311 581.302 506.822 616.791C506.822 618.744 506.822 620.535 506.822 622.163H490.537V621.349C490.537 587.814 496.888 507.395 497.214 503.977L513.499 505.279H513.336Z" fill="black"/>
<path d="M633.028 506.419C632.377 509.023 620.977 560.465 611.858 592.86H611.695C609.904 599.698 607.95 605.884 606.484 610.442C606.484 610.93 606.158 611.256 605.996 611.744L603.716 610.93L590.688 606.209C591.665 603.605 592.805 600.186 593.782 596.442H593.945C603.064 565.837 616.906 503.488 617.069 502.837L633.028 506.419Z" fill="black"/>
<path d="M1231.16 693.302C1227.42 699 1177.26 754.674 1152.83 781.86C1147.79 787.233 1143.88 791.465 1141.6 794.07H1141.44L1129.55 783.163C1132.48 779.907 1135.57 776.488 1138.83 772.907C1170.75 737.419 1214.23 688.907 1217.48 684.186L1231.16 693.302Z" fill="black"/>
<path d="M1133.46 622.326C1133.46 622.326 1078.41 703.884 1069.95 729.116L1066.85 728.139H1066.69L1054.48 723.907C1054.8 723.093 1055.13 722.279 1055.45 721.302C1067.01 691.837 1117.66 616.465 1119.94 613.209L1133.46 622.326Z" fill="black"/>
<path d="M1029.07 586.837C1005.62 622.488 980.543 662.535 974.192 675.884C973.215 677.512 972.726 678.651 972.563 679.465L956.604 676.046C956.93 674.419 958.07 671.814 959.698 668.395C970.446 646.907 1004.16 595.139 1015.55 577.884L1029.07 586.837Z" fill="black"/>
<path d="M929.083 535.884C915.893 554.93 881.532 609.465 879.578 631.442V631.767L863.293 630.465C863.456 628.837 863.619 627.046 864.107 625.256C870.296 593.349 911.007 533.767 915.73 526.605L929.083 535.884Z" fill="black"/>
<path d="M817.859 518.628C817.859 518.628 785.941 559.488 781.87 598.721H781.056L765.585 596.93C765.585 596.442 765.748 595.791 765.911 595.302C771.122 551.837 803.691 510.326 804.994 508.535L817.859 518.628Z" fill="black"/>
<path d="M739.041 499.093C739.041 499.093 715.591 552.814 710.869 586.837C710.869 587.163 710.706 587.488 710.706 587.814L695.887 585.86H694.584C699.144 549.395 723.082 494.86 724.059 492.419L739.041 499.093Z" fill="black"/>
<path d="M909.704 961.907C889.186 968.419 813.788 1012.7 771.122 1038.58C769.982 1039.4 768.842 1040.05 767.702 1040.7C766.562 1041.35 765.422 1042.16 764.282 1042.81C764.282 1042.81 764.282 1042.98 763.957 1042.98H763.794L755.489 1029.14C756.954 1028.33 768.354 1021.33 784.475 1011.72C784.475 1011.72 784.801 1011.4 785.127 1011.23C822.582 988.93 884.626 952.791 904.819 946.442L909.704 961.907Z" fill="black"/>
<path d="M916.544 1109.72C915.567 1109.72 914.59 1109.88 913.613 1109.88C878.275 1109.88 793.269 1088.72 763.631 1080.91C757.769 1079.44 754.023 1078.47 753.209 1078.14L757.28 1062.51C757.28 1062.51 760.863 1063.49 766.4 1064.95C795.061 1072.44 884.138 1094.74 915.893 1093.44L916.544 1109.72Z" fill="black"/>
<path d="M919.475 1037.6C882.509 1053.88 789.687 1058.12 767.539 1058.93C765.097 1059.09 763.468 1059.09 762.98 1059.09L762.491 1042.81H764.771C766.074 1042.65 768.028 1042.65 770.471 1042.49C796.526 1041.51 880.555 1037.12 912.799 1022.63L919.475 1037.6Z" fill="black"/>
<path d="M1094.86 1366.6L1089.16 1381.91C1063.27 1372.3 1012.3 1329.16 998.944 1317.6C997.153 1316.14 996.013 1315.16 995.688 1314.84L1006.44 1302.63C1006.44 1302.63 1010.34 1306.05 1016.21 1310.93C1034.61 1326.4 1074.67 1359.12 1094.86 1366.6Z" fill="black"/>
<path d="M1153.49 1337.95L1149.74 1353.91C1132.32 1349.84 1081.18 1309.63 1059.2 1291.88C1055.62 1288.95 1052.85 1286.67 1051.06 1285.21L1060.99 1272.84H1061.15V1272.51L1061.48 1272.67C1065.71 1276.09 1070.43 1279.84 1075.32 1283.74C1104.14 1306.86 1142.58 1335.51 1153.49 1337.95Z" fill="black"/>
<path d="M1225.79 1309.47L1223.67 1325.74C1211.3 1324.28 1153.97 1284.07 1119.45 1259C1114.57 1255.58 1110.33 1252.49 1106.59 1249.72L1108.87 1246.63L1116.19 1236.53C1117.5 1237.51 1118.96 1238.49 1120.27 1239.63C1124.99 1243.05 1129.71 1246.47 1134.43 1249.72C1176.12 1279.67 1218.14 1307.84 1225.79 1309.47Z" fill="black"/>
<path d="M1269.11 1250.37L1263.57 1265.67C1250.38 1260.79 1206.09 1230.84 1183.45 1215.37C1177.1 1210.98 1172.38 1207.72 1170.75 1206.58L1173.84 1202.19L1180.03 1193.23C1181.01 1193.88 1181.82 1194.53 1182.8 1195.19C1187.03 1198.12 1191.75 1201.37 1196.64 1204.79C1225.14 1224.33 1259.66 1246.95 1268.94 1250.37H1269.11Z" fill="black"/>
<path d="M1309.17 1199.58L1303.96 1215.05C1295.81 1212.28 1254.78 1185.74 1234.42 1172.56C1231.82 1170.77 1229.37 1169.14 1227.58 1168L1236.54 1154.33C1239.96 1156.6 1243.54 1158.88 1246.96 1161.16C1275.46 1179.88 1304.44 1197.95 1309.17 1199.58Z" fill="black"/>
<path d="M762.491 1483.33L754.023 1497.33C738.878 1488.37 676.671 1393.95 656.804 1363.35C656.478 1362.86 656.152 1362.53 655.99 1362.21L669.669 1353.42C672.274 1357.49 674.88 1361.4 677.485 1365.47C714.289 1421.47 754.512 1478.28 762.491 1483.33Z" fill="black"/>
<path d="M806.785 1447.51L798.969 1461.84C768.028 1444.91 729.759 1387.93 717.057 1367.74H716.894C714.451 1363.67 712.823 1361.07 712.497 1360.58L726.502 1352.12C726.502 1352.12 730.41 1358.63 736.599 1368.07C752.232 1391.67 782.684 1434.65 806.623 1447.51H806.785Z" fill="black"/>
<path d="M1513.05 823.372C1505.72 829.558 1454.43 891.093 1421.53 930.977L1408.99 920.721C1417.46 910.465 1491.72 820.116 1502.47 811L1513.05 823.372Z" fill="black"/>
<path d="M1543.18 894.349C1538.78 898.907 1482.92 927.558 1436.84 951L1429.51 936.512C1466.31 917.791 1526.73 886.698 1532.1 882.465L1543.18 894.349Z" fill="black"/>
<path d="M1558.65 971.349L1558 987.628C1516.31 985.837 1452.96 983.232 1449.54 983.232V966.953C1454.1 966.953 1548.06 970.86 1558.65 971.349Z" fill="black"/>
<path d="M1453.72 1003.88L1445.22 1017.77L1564.4 1090.67L1572.9 1076.78L1453.72 1003.88Z" fill="black"/>
<path d="M511.056 827.768C532.877 848.768 545.579 882.791 542.974 920.233C538.577 979.651 496.888 1025.07 449.5 1021.65C445.266 1021.33 441.195 1020.51 437.124 1019.53H436.961C434.681 1017.74 432.564 1015.95 430.447 1014C427.027 1010.91 423.933 1007.49 421.002 1003.91C419.699 1002.44 418.559 1000.98 417.582 999.512C416.442 998.047 415.302 996.419 414.325 994.791C413.348 993.326 412.371 991.698 411.394 990.07C409.603 986.977 408.137 983.884 406.671 980.628C406.509 980.302 406.346 979.977 406.183 979.651C405.531 978.023 404.88 976.395 404.229 974.605C403.577 972.814 402.926 971.023 402.437 969.233C401.949 967.767 401.623 966.465 401.297 965C400.646 962.395 400.158 959.791 399.669 957.186C399.18 954.907 398.855 952.465 398.692 950.023C398.366 946.93 398.203 943.674 398.203 940.581C398.203 938.14 398.366 935.698 398.529 933.093L402.275 880.674C402.437 877.419 402.926 874.163 403.414 871.07C403.903 868.465 404.392 866.023 405.043 863.581C405.531 861.465 406.183 859.349 406.834 857.395C407.648 854.628 408.626 852.023 409.765 849.419C410.905 846.651 412.208 843.884 413.511 841.279C413.999 840.465 414.325 839.814 414.814 839C416.279 836.395 417.908 833.791 419.699 831.186C421.49 828.419 423.607 825.651 425.887 823.047C428.33 820.116 430.936 817.186 433.704 814.744C434.844 813.605 436.147 812.628 437.287 811.814C438.264 810.837 439.404 810.023 440.543 809.047C440.543 809.047 440.652 808.992 440.869 808.884C448.686 806.768 456.828 805.791 464.97 806.279C482.558 807.581 498.354 815.395 511.056 827.768Z" fill="white"/>
<path d="M554.699 806.116L472.95 792.279C481.418 789.837 490.375 788.535 499.494 788.535C501.774 788.535 504.216 788.698 506.496 788.861C524.409 790.163 541.02 796.349 554.699 806.116Z" fill="white"/>
<path d="M413.511 841.279C412.045 843.884 410.743 846.651 409.765 849.419C408.626 852.023 407.648 854.628 406.834 857.395C406.183 859.349 405.531 861.465 405.043 863.581C404.392 866.023 403.903 868.465 403.414 871.07C402.926 874.163 402.437 877.419 402.275 880.674L398.529 933.093C398.529 935.698 398.203 938.14 398.203 940.581C398.203 943.674 398.366 946.93 398.692 950.023C398.855 952.465 399.18 954.907 399.669 957.186C400.158 959.791 400.646 962.395 401.297 965C401.623 966.465 401.949 967.767 402.437 969.233C402.926 971.023 403.577 972.814 404.229 974.605C404.88 976.395 405.531 978.023 406.183 979.651L406.671 980.628C407.974 983.884 409.603 987.14 411.394 990.07C412.371 991.698 413.348 993.326 414.325 994.791C415.302 996.419 416.442 998.047 417.582 999.512C418.559 1000.98 419.699 1002.44 421.002 1003.91C423.933 1007.49 427.027 1010.91 430.447 1014C432.564 1015.95 434.681 1017.74 436.961 1019.53H437.124C451.454 1030.6 469.042 1037.6 488.42 1039.07C541.997 1042.98 588.571 1001.95 592.642 947.256L596.388 894.837C597.853 875.14 593.456 856.256 584.826 840.14C581.731 834.279 577.986 828.907 573.752 823.86C568.378 817.023 561.864 811.163 554.699 806.116C541.02 796.349 524.409 790.163 506.496 788.861C504.216 788.861 501.774 788.535 499.494 788.535C490.375 788.535 481.418 789.837 472.95 792.279C464.645 794.721 456.828 798.14 449.5 802.86C446.894 804.326 444.452 805.954 442.172 807.907C441.683 808.07 441.195 808.395 440.869 808.884C440.869 808.884 440.761 808.938 440.543 809.047C439.404 810.023 438.264 810.837 437.287 811.814C436.147 812.628 434.844 813.605 433.704 814.744C430.936 817.186 428.33 820.116 425.887 823.047C423.607 825.651 421.49 828.419 419.699 831.186C417.745 833.628 416.116 836.233 414.814 839C414.325 839.814 413.999 840.465 413.511 841.279Z" stroke="black" stroke-width="15" stroke-miterlimit="10"/>
<path d="M542.974 920.233C538.577 979.651 496.888 1025.07 449.5 1021.65C445.266 1021.33 441.195 1020.51 437.124 1019.53H436.961C434.681 1017.74 432.564 1015.95 430.447 1014C427.027 1010.91 423.933 1007.49 421.002 1003.91C419.699 1002.44 418.559 1000.98 417.582 999.512C416.442 998.047 415.302 996.419 414.325 994.791C413.348 993.326 412.371 991.698 411.394 990.07C409.603 986.977 408.137 983.884 406.671 980.628C406.509 980.302 406.346 979.977 406.183 979.651C405.531 978.023 404.88 976.395 404.229 974.605C403.577 972.814 402.926 971.023 402.437 969.233C401.949 967.767 401.623 966.465 401.297 965C400.646 962.395 400.158 959.791 399.669 957.186C399.18 954.907 398.855 952.465 398.692 950.023C398.366 946.93 398.203 943.674 398.203 940.581C398.203 938.14 398.366 935.698 398.529 933.093L402.275 880.674C402.437 877.419 402.926 874.163 403.414 871.07C403.903 868.465 404.392 866.023 405.043 863.581C405.531 861.465 406.183 859.349 406.834 857.395C407.648 854.628 408.626 852.023 409.765 849.419C410.905 846.651 412.208 843.884 413.511 841.279C413.999 840.465 414.325 839.814 414.814 839C416.279 836.395 417.908 833.791 419.699 831.186C421.49 828.419 423.607 825.651 425.887 823.047C428.33 820.116 431.098 817.349 434.03 814.744C435.17 813.605 436.147 812.628 437.287 811.814C438.264 810.837 439.404 810.023 440.543 809.047C440.543 809.047 440.652 808.992 440.869 808.884C448.686 806.768 456.828 805.791 464.97 806.279C482.558 807.581 498.354 815.395 511.056 827.768C532.877 848.768 545.579 882.791 542.974 920.233Z" fill="black"/>
</g>
<defs>
<clipPath id="clip0_157_101">
<rect width="1627" height="1134" fill="white" transform="translate(144 433)"/>
</clipPath>
</defs>
</svg>
