<svg width="2000" height="2000" viewBox="0 0 2000 2000" fill="none" xmlns="http://www.w3.org/2000/svg">
<g clip-path="url(#clip0_157_100)">
<path d="M118.299 963.456C98.5077 930.359 79.8584 901.256 63.3976 871.012C39.1345 826.407 30.7614 777.617 30.0002 727.305C29.7147 706.286 33.8061 686.599 45.8901 668.909C66.2521 638.95 87.851 633.625 116.872 654.738C141.23 672.523 165.017 691.545 186.901 712.278C255.219 777.046 327.532 836.963 404.698 890.889C458.077 928.266 516.784 955.277 582.247 981.907C577.585 971.825 575.206 965.738 572.066 960.032C513.93 854.939 517.926 751.272 582.342 650.839C656.749 534.808 763.792 466.616 900.141 450.734C998.906 439.226 1094.72 454.823 1176.65 517.404C1245.82 570.283 1286.92 640.377 1297.77 727.305C1299.67 742.142 1301.96 756.978 1305.19 779.709C1323.46 748.704 1340.49 724.262 1352.96 697.632C1415.95 563.816 1477.98 429.62 1540.02 295.329C1559.05 254.242 1576.84 212.585 1595.59 171.309C1608.15 143.538 1630.7 128.606 1659.81 121.758C1697.97 112.913 1728.32 123.66 1750.11 155.997C1776.09 194.61 1789.12 238.359 1790.55 284.201C1792.07 331.469 1788.65 378.928 1787.31 428.859C1791.5 423.533 1795.88 418.778 1799.3 413.452C1809.67 396.998 1817.95 379.023 1830.04 364.091C1860.96 325.858 1897.12 327.76 1920.81 370.178C1932.7 391.387 1941.55 415.639 1945.74 439.606C1960.87 525.107 1935.27 604.141 1903.02 681.749C1898.54 692.496 1893.21 702.767 1885.41 719.411C1899.97 712.088 1908.72 706.857 1918.14 703.053C1939.93 694.017 1957.44 700.675 1964.29 723.31C1968.86 738.432 1970.76 755.266 1969.81 771.054C1963.34 883.281 1904.82 960.127 1805.58 1008.54C1798.92 1011.77 1792.45 1015.48 1787.69 1018.05C1791.79 1037.07 1799.4 1054.57 1798.54 1071.59C1796.54 1111.25 1777.04 1141.31 1738.69 1156.33C1700.35 1171.36 1660.86 1181.92 1616.52 1182.49C1618.61 1191.52 1620.14 1199.23 1622.13 1206.93C1635.26 1257.24 1609.57 1295.86 1557.43 1300.71C1530.79 1303.18 1503.67 1301.18 1472.84 1301.18C1462.85 1324.2 1443.35 1337.51 1407.19 1328C1420.42 1316.11 1430.79 1306.7 1441.16 1297.28C1441.35 1295.19 1442.3 1292.81 1441.64 1291C1430.69 1258.76 1438.31 1249.92 1471.99 1255.34C1498.63 1259.62 1525.18 1264.85 1552.01 1267.42C1586.17 1270.65 1602.15 1250.87 1593.11 1217.39C1589.5 1203.98 1581.79 1191.71 1577.03 1178.59C1568.37 1154.53 1575.61 1145.4 1601.39 1142.83C1637.74 1139.12 1674.28 1135.31 1710.34 1129.23C1738.79 1124.38 1760.29 1109.16 1766.38 1078.35C1772.18 1049.05 1754.3 1033.45 1725.47 1041.92C1699.87 1049.43 1673.99 1055.61 1648.21 1062.46C1647.35 1060.18 1646.49 1057.99 1645.73 1055.71C1651.34 1052.57 1656.77 1048.96 1662.67 1046.29C1718.81 1021 1775.13 996.458 1824.42 958.225C1888.46 908.389 1921.38 841.148 1937.27 763.826C1938.51 757.549 1938.32 750.891 1938.03 744.519C1937.93 741.571 1936.03 738.718 1933.56 731.87C1860.2 769.342 1803.49 829.83 1730.22 865.876C1749.82 842.099 1769.71 818.608 1788.84 794.546C1806.91 771.72 1826.04 749.37 1841.45 724.737C1895.21 639.141 1911.86 544.89 1901.02 445.408C1898.16 419.634 1890.36 395.096 1872.76 368.561C1863.43 379.784 1854.11 388.153 1848.3 398.425C1797.68 487.54 1747.83 577.131 1697.4 666.341C1688.07 682.795 1677.04 698.297 1664.09 712.849C1663.81 679.466 1673.42 649.222 1686.55 620.309C1714.05 560.107 1737.46 498.668 1747.92 433.139C1758.48 366.659 1762.38 299.799 1744.21 233.889C1739.36 216.39 1732.51 198.89 1723.66 183.007C1701.2 142.682 1653.53 142.491 1630.98 183.292C1618.04 206.784 1607.77 232.082 1599.3 257.571C1558.86 379.879 1510.43 498.953 1447.34 611.274C1402.43 691.164 1351.05 767.44 1302.81 845.523C1296.72 855.414 1292.25 866.447 1287.4 877.099C1276.84 900.305 1266.09 923.226 1245.06 938.348C1242.58 937.397 1240.2 936.445 1237.73 935.494C1239.73 924.747 1241.35 913.81 1243.92 903.158C1255.52 855.034 1269.61 807.575 1265.13 756.693C1253.43 622.592 1160.76 522.539 1015.46 507.512C894.717 495.053 789.197 532.05 698.71 610.799C651.801 651.6 616.12 702.102 595.663 761.734C571.21 832.969 576.157 901.636 615.835 966.88C644.379 1013.77 681.773 1052.1 726.684 1083.29C740.671 1092.99 754.943 1102.5 767.408 1115.25C754.467 1111.35 741.527 1107.35 728.111 1103.36C722.783 1235.94 828.969 1432.24 953.425 1480.93C942.863 1466.38 936.393 1457.63 929.923 1448.79C923.738 1440.13 913.652 1430.15 924.594 1420.92C929.828 1416.45 942.007 1419.4 950.856 1420.07C954.852 1420.35 958.563 1423.58 962.369 1425.39C963.701 1423.2 965.509 1421.68 965.604 1419.97C965.984 1409.51 961.893 1396.29 975.404 1392.01C989.962 1387.44 998.05 1399.71 1002.24 1410.17C1010.99 1431.95 1017.65 1454.68 1023.93 1477.41C1026.69 1487.59 1026.31 1498.62 1027.55 1511.75C1140.01 1547.98 1246.01 1545.61 1343.92 1471.71C1327.36 1442.22 1277.12 1392.86 1245.15 1373.94C1238.68 1370.04 1230.59 1367.57 1226.03 1362.05C1221.17 1356.15 1215.75 1346.26 1217.56 1340.37C1219.56 1334.18 1229.36 1328.29 1236.68 1326.57C1244.39 1324.67 1253.34 1327.91 1264.37 1329.14C1263.52 1324.01 1262.47 1320.3 1262.37 1316.49C1262.09 1298.71 1270.18 1293 1285.78 1300.99C1292.44 1304.32 1298.53 1309.27 1303.86 1314.5C1343.54 1353.01 1363.61 1401.04 1370.46 1455.06C1372.37 1470.57 1367.32 1481.69 1354.86 1493.96C1306.43 1541.23 1248.67 1562.54 1182.45 1565.01C1176.07 1565.2 1169.7 1566.53 1161.8 1567.48C1154.38 1590.02 1147.24 1612.56 1139.44 1634.82C1124.79 1676.57 1110.33 1718.42 1094.53 1759.69C1087.87 1777 1092.15 1787.37 1107 1797.74C1127.45 1812.1 1147.72 1821.89 1173.22 1813.52C1191.01 1807.72 1206.62 1812.57 1222.22 1822.65C1235.64 1831.31 1250.48 1838.25 1265.61 1843.48C1287.3 1851 1308.9 1848.14 1326.79 1833.21C1346.01 1817.14 1366.75 1817.23 1390.45 1818.28C1415.56 1819.42 1441.64 1814.28 1466.28 1808.1C1485.59 1803.25 1499.87 1788.51 1508.15 1769.96C1517.09 1750.09 1531.84 1740.96 1553.44 1739.34C1612.24 1734.96 1642.4 1712.9 1658.48 1640.43C1665.71 1607.62 1650.11 1584.41 1631.46 1561.11C1601.2 1523.16 1570.47 1485.4 1541.73 1446.31C1521.94 1419.4 1504.62 1390.58 1487.21 1361.95C1482.17 1353.68 1480.55 1343.41 1477.32 1334.09C1479.7 1332.47 1482.07 1330.95 1484.45 1329.33C1493.87 1337.23 1504.81 1343.88 1512.33 1353.39C1563.43 1417.69 1614.05 1482.27 1664.19 1547.32C1695.97 1588.59 1700.16 1635.2 1681.79 1682.37C1664 1728.02 1620.14 1774.62 1563.24 1773.29C1542.3 1772.82 1531.08 1778.9 1519.66 1797.16C1491.49 1842.06 1445.92 1855.85 1395.96 1850.71C1370.65 1848.05 1351.15 1851.76 1329.55 1865.64C1292.63 1889.32 1252.86 1886.38 1216.42 1862.69C1199.96 1851.95 1185.97 1847.38 1165.7 1852.8C1127.26 1863.07 1072.27 1833.78 1059.61 1796.21C1054.85 1782.14 1056.47 1763.5 1061.42 1749.04C1077.88 1701.11 1097.1 1654.12 1115.56 1606.86C1119.84 1595.92 1124.98 1585.27 1130.21 1573.19C1114.42 1563.39 1097.77 1566.91 1082.45 1563.87C1066.75 1560.73 1051.05 1557.59 1034.78 1554.26C1031.45 1565.29 1028.59 1574.99 1025.45 1585.46C1008.9 1583.65 1003.95 1571.95 1000.43 1561.39C995.1 1545.7 985.585 1536.86 970.076 1530.86C839.245 1480.17 764.173 1378.79 718.691 1251.34C709.652 1226.05 702.23 1199.8 697.568 1173.36C692.335 1144.06 691.098 1114.2 687.672 1080.34C671.307 1067.12 650.755 1049.81 629.441 1033.45C623.827 1029.08 616.215 1026.8 609.174 1024.8C516.879 999.121 430.674 960.793 352.081 905.25C281.099 855.129 216.493 798.35 158.642 733.487C137.995 710.376 116.301 687.645 87.5655 673.665C65.8715 688.977 62.2558 709.9 61.8752 731.87C59.8771 843.716 102.98 933.022 194.894 998.265C249.89 1037.26 309.073 1068.07 372.252 1091.18C381.196 1094.42 390.14 1097.56 401.558 1101.55C349.417 1104.5 277.293 1071.69 145.607 986.757C112.685 1009.2 99.0786 1041.25 114.302 1075.3C126.006 1101.46 141.705 1127.14 160.926 1148.25C213.638 1206.26 282.241 1236.89 357.885 1253.06C428.676 1268.18 499.943 1280.16 574.159 1276.83C543.426 1294.9 495.28 1297.28 400.987 1284.63C342.185 1276.74 284.715 1262.95 230.004 1237.74C209.928 1264.18 213.068 1288.82 230.575 1310.88C270.252 1360.81 320.111 1395.34 385.383 1401.99C438.191 1407.32 490.618 1404.56 542.665 1392.1C502.512 1424.44 454.271 1426.72 406.126 1428.53C409.741 1474.09 438.857 1499.95 482.34 1494.63C534.482 1488.16 582.152 1467.81 628.299 1443.46C636.387 1439.18 644.38 1434.52 653.514 1431.76C630.583 1467.71 591.857 1482.27 556.557 1501.95C559.221 1518.88 571.21 1524.78 584.055 1525.06C604.322 1525.54 625.255 1525.54 644.855 1520.97C693.381 1509.75 726.493 1492.16 772.165 1457.16C766.837 1477.22 756.18 1488.83 744.286 1498.81C704.324 1532.48 657.605 1551.6 605.939 1556.64C570.448 1560.06 538.859 1551.6 525.062 1513.94C426.487 1541.42 391.758 1506.8 369.493 1425.3C309.739 1415.88 264.258 1380.22 223.915 1337.04C193.372 1304.32 181.383 1267.32 204.79 1223.1C195.75 1215.49 185.76 1208.93 178.148 1200.27C153.98 1172.79 127.719 1146.54 107.737 1116.2C73.0077 1063.6 73.864 1010.63 118.299 963.456Z" fill="black"/>
<path d="M807.37 968.401C796.428 989.42 787.96 1005.11 780.063 1021.09C770.833 1039.73 759.986 1042.01 745.904 1026.42C723.734 1001.88 716.217 971.54 716.312 939.489C716.312 897.737 727.35 858.267 747.617 821.841C771.88 778.187 813.079 764.111 853.803 792.929C887.962 817.086 917.839 826.597 959.704 814.423C999.857 802.63 1020.22 826.311 1010.04 866.732C993.102 933.497 965.604 995.126 913.842 1043.44C886.249 1069.21 869.408 1068.55 848.285 1037.35C834.583 1017.19 823.26 995.317 807.465 968.401H807.37ZM981.303 848.566C966.079 852.371 956.565 853.227 948.287 857.031C921.835 869.3 898.048 863.784 875.022 848.471C861.51 839.531 848.475 829.64 834.107 822.412C810.51 810.524 792.432 815.755 778.921 838.105C771.214 850.944 764.458 864.83 759.891 879.096C749.71 910.671 741.908 942.913 755.038 975.534C757.607 975.534 759.225 976.01 759.701 975.534C764.553 969.923 769.311 964.122 774.068 958.415C802.898 922.845 841.244 905.06 885.678 899.639C892.053 898.878 901.949 902.017 905.089 906.772C907.848 910.862 904.042 920.087 901.854 926.554C898.523 936.636 893.671 946.146 890.15 956.133C886.63 966.024 886.535 980.575 872.928 979.624C865.982 979.148 859.702 968.116 853.327 961.649C848.951 957.179 844.859 952.423 840.673 947.763C838.484 949.38 836.391 950.902 834.202 952.518C847.428 979.339 862.557 1005.11 881.492 1031.55C932.111 980.67 957.326 919.611 981.398 848.471L981.303 848.566Z" fill="black"/>
<path d="M1012.13 721.694C1012.23 740.905 1007.66 753.84 992.436 759.166C977.687 764.397 963.034 759.736 955.803 746.802C946.764 730.539 939.532 712.278 935.917 694.113C933.538 681.939 940.103 668.529 953.805 663.013C967.221 657.591 979.21 662.157 989.296 671.287C1005.28 685.743 1011.37 704.765 1012.04 721.694H1012.13Z" fill="black"/>
<path d="M631.725 788.173C634.674 776.761 637.243 764.111 641.144 752.033C644.665 741.095 652.562 731.49 664.361 733.772C673.685 735.579 684.723 741.571 690.051 749.18C705.085 770.769 699.947 811.38 682.154 830.496C665.978 847.806 644.95 843.906 637.053 821.176C633.628 811.284 633.532 800.157 631.629 788.173H631.725Z" fill="black"/>
<path d="M1304.34 1765.49C1271.7 1716.42 1258.19 1660.88 1251.53 1603.34C1250.29 1592.4 1247.63 1579.46 1263.99 1570.24C1267.61 1578.32 1272.46 1585.17 1273.89 1592.78C1284.45 1650.32 1294.34 1707.95 1304.43 1765.59L1304.34 1765.49Z" fill="black"/>
<path d="M1423.08 1489.4C1454.1 1549.7 1485.21 1609.9 1519.75 1677.14C1510.52 1669.72 1505.2 1667.34 1502.63 1663.16C1474.56 1617.51 1446.39 1571.95 1419.66 1525.54C1414.42 1516.41 1414.99 1503.85 1412.9 1492.92C1416.23 1491.78 1419.66 1490.63 1422.99 1489.49L1423.08 1489.4Z" fill="black"/>
</g>
<defs>
<clipPath id="clip0_157_100">
<rect width="1940" height="1763" fill="white" transform="translate(30 119)"/>
</clipPath>
</defs>
</svg>
