<svg width="2000" height="2000" viewBox="0 0 2000 2000" fill="none" xmlns="http://www.w3.org/2000/svg">
<g clip-path="url(#clip0_157_98)">
<path d="M211.787 1537.97C215.789 1546.73 217.993 1555.02 222.749 1561.46C243.57 1589.87 271.003 1610.75 304.815 1619.91C358.115 1634.41 415.242 1610.17 449.808 1562.27C478.865 1521.97 497.54 1477.84 504.268 1428.38C510.938 1379.5 519.637 1330.9 526.481 1282.02C533.788 1229.89 537.964 1177.24 547.36 1125.51C557.973 1067.29 571.197 1009.48 586.276 952.247C622.93 813.021 691.309 691.538 795.24 590.93C821.745 565.3 848.366 539.901 875.509 514.909C906.827 486.089 943.829 465.62 981.76 447.18C996.317 440.106 1003.33 431.292 1005.77 415.113C1010.35 384.496 1019.81 355.386 1034.89 327.611C1062.84 276.234 1146.53 267.768 1183.24 321.348C1189.22 330.046 1194.78 338.918 1201.57 349.24C1243.91 345.065 1287.12 340.948 1328.82 328.538C1378.64 313.752 1427.99 297.515 1477.69 282.265C1494.69 277.046 1511.85 272.291 1529.25 268.928C1550.37 264.869 1559.12 272.987 1558.02 294.384C1557.27 309.055 1553.85 323.262 1544.57 335.033C1535.17 346.862 1525.02 358.112 1514.93 369.419C1506.23 379.103 1497.12 388.439 1487.67 398.471C1501.13 411.692 1517.07 415.751 1532.1 421.956C1561.27 433.959 1590.79 445.44 1618.92 459.531C1650.7 475.478 1673.44 500.296 1683.12 535.784C1689.21 558.051 1686.14 568.373 1664.39 576.085C1648.61 581.652 1640.9 592.032 1632.84 605.485C1601.4 657.615 1555.41 693.683 1502.63 723.141C1461.05 746.335 1415.41 755.961 1370.75 769.124C1357.23 773.125 1349.11 780.142 1346.45 793.885C1345.75 797.596 1343.84 801.249 1341.75 804.496C1313.27 848.509 1296.57 898.03 1276.68 945.985C1265.48 972.891 1270.7 980.487 1299.64 986.634C1318.72 990.693 1337.86 989.591 1356.07 982.575C1392.5 968.484 1426.6 950.798 1454.84 922.5C1487.79 889.448 1522.24 857.787 1556.28 825.778C1579.19 804.206 1606.91 790.522 1635.74 778.924C1639.91 777.242 1644.73 776.431 1649.25 776.431C1663.23 776.547 1672.74 789.942 1666.48 802.409C1661.89 811.571 1654.88 819.979 1647.45 827.227C1628.08 846.015 1606.91 863.005 1588.47 882.663C1574.78 897.218 1564.23 914.73 1550.77 932.996C1574.9 935.663 1596.36 934.851 1617.47 931.14C1667.4 922.442 1717.4 913.918 1766.93 903.19C1794.48 897.218 1821.1 887.07 1848.07 878.662C1862.51 874.139 1876.72 868.92 1891.22 864.745C1902.35 861.556 1913.54 860.396 1921.08 872.457C1928.68 884.635 1929.03 903.596 1921.03 913.512C1916.91 918.557 1911.98 923.138 1906.64 926.907C1874.34 949.696 1842.15 972.601 1809.27 994.404C1800.16 1000.43 1788.97 1004.26 1778.24 1006.64C1701.16 1023.63 1624.02 1040.39 1546.65 1056.22C1529.43 1059.76 1511.45 1059.81 1493.76 1060.45C1454.55 1061.9 1416.62 1069.21 1380.38 1084.11C1374.69 1086.43 1370.52 1092.11 1365.35 1095.88C1358.63 1100.75 1351.84 1109.04 1344.82 1109.28C1314.78 1110.32 1287.35 1121.86 1258.52 1127.54C1254.64 1128.3 1250.75 1129.63 1246.87 1129.57C1215.84 1129.4 1188.11 1140.82 1159.41 1151.03C1106.45 1169.82 1060.35 1199.68 1015.11 1231.69C997.477 1244.15 980.136 1257.09 962.331 1270.02C990.285 1287.7 991.677 1307.36 966.564 1327.83C960.127 1333.11 952.181 1337.92 944.235 1339.78C902.187 1349.52 863.851 1368.65 824.529 1385.35C813.857 1389.88 801.678 1390.51 790.427 1393.94C784.569 1395.67 777.725 1398.17 774.071 1402.58C756.846 1423.33 738.403 1443.51 724.368 1466.36C699.139 1507.53 664.804 1539.89 629.6 1571.72C627.686 1573.46 625.308 1576.25 623.278 1576.13C607.155 1575.2 602.109 1589 592.946 1597.7C548.926 1639.39 505.138 1681.55 449.402 1707.76C433.511 1715.24 416.112 1720.46 398.829 1723.77C355.969 1732 312.819 1736.7 269.495 1725.91C263.115 1724.35 256.561 1723.53 250.066 1722.61C229.593 1719.65 210.163 1714.2 193.866 1700.45C190.908 1697.9 187.139 1696.28 183.833 1694.19C97.4167 1638.93 65.3442 1557.98 74.5078 1459C76.7697 1434.41 83.8454 1409.77 92.023 1386.28C117.774 1312.75 185.921 1257.14 273.961 1260.56C319.546 1262.36 358.347 1280.57 384.967 1321.74C413.038 1365.17 425.392 1411.33 420.752 1462.36C415.242 1523.07 372.556 1570.16 312.123 1578.39C278.89 1582.92 248.326 1572.71 224.025 1547.89C221.299 1545.05 218.921 1541.92 216.253 1538.96C215.905 1538.55 215.035 1538.67 211.729 1538.03L211.787 1537.97ZM1610.51 594.119C1609.87 592.496 1609.29 590.814 1608.65 589.19C1593.81 590.872 1578.84 592.264 1564.05 594.351C1543.23 597.367 1522.53 602.063 1501.65 603.977C1454.26 608.21 1408.56 599.338 1363.9 583.914C1354.91 580.782 1346.27 574.984 1336.36 582.986C1334.27 584.667 1327.25 582.406 1323.94 579.97C1318.72 576.201 1313.68 571.388 1310.31 565.938C1305.38 557.993 1296.05 549.063 1304.75 539.553C1312.81 530.739 1321.86 539.09 1329.86 542.801C1386.17 568.837 1445.62 577.419 1506.93 573.708C1539.75 571.736 1572.46 567.793 1605.11 563.56C1621.76 561.415 1639.51 561.82 1654.3 549.817C1647.1 523.491 1632.32 503.08 1607.9 491.424C1579.42 477.855 1550.37 465.504 1521.08 453.791C1500.72 445.614 1480.77 437.264 1466.1 420.158C1453.1 405.023 1453.34 395.34 1466.62 380.379C1470.1 376.436 1473.98 372.841 1477.58 369.013C1492.08 353.705 1506.75 338.628 1520.84 322.972C1527.28 315.839 1533.02 307.837 1532.68 296.588C1529.25 296.588 1526.53 295.95 1524.21 296.704C1497.82 304.88 1471.6 313.752 1445.1 321.406C1398.35 334.917 1351.78 349.298 1304.4 360.083C1276.33 366.462 1246.87 366.52 1218.1 369.767C1213.23 370.347 1207.78 371.797 1203.95 374.696C1188.58 386.352 1181.62 385.366 1171.53 368.55C1165.09 357.822 1159.64 346.398 1152.33 336.367C1131.74 308.069 1087.72 307.779 1067.19 335.961C1045.27 365.998 1036.28 401.428 1030.48 437.148C1028.39 449.963 1025.61 457.966 1014.01 462.837C1009.19 464.866 1004.78 467.939 999.913 469.911C990.111 473.854 986.167 480.407 986.689 491.308C988.429 526.796 988.197 562.458 990.923 597.888C993.765 634.71 1001.54 670.72 1016.04 705.107C1025.49 727.548 1034.02 750.394 1042.54 773.183C1045.38 780.78 1050.25 788.898 1041.26 798.872C951.311 752.018 876.263 690.204 832.359 593.655C807.826 616.386 787.353 638.363 767.692 661.326C757.484 673.214 755.28 683.999 760.21 698.902C780.625 761.006 810.842 817.427 853.876 866.833C869.477 884.693 885.31 902.379 900.737 920.355C904.681 924.936 907.697 930.328 912.627 937.461C886.644 942.622 864.895 938.794 843.494 932.764C775.289 913.512 711.782 886.2 666.544 824.85C663.122 832.91 660.339 838.767 658.077 844.797C650.479 865.151 643.693 885.794 635.342 905.858C630.644 917.223 630.644 927.603 636.27 937.925C646.999 957.524 656.569 977.994 669.502 996.028C689.801 1024.33 712.768 1050.77 734.111 1078.37C742.695 1089.44 754.236 1099.13 756.092 1116.93C749.364 1118.26 743.217 1120.47 737.069 1120.58C685.161 1121.51 636.676 1109.22 591.96 1081.04C590.278 1084.34 588.538 1086.49 588.132 1088.87C581.578 1126.44 575.373 1164.07 568.703 1201.65C567.369 1209.13 569.689 1214.47 575.141 1218.99C591.844 1232.85 607.793 1247.81 625.54 1260.22C651.175 1278.08 680.406 1287.76 712.014 1292.69C721.874 1277.03 730.515 1261.49 740.955 1247.17C749.77 1235.05 760.616 1224.38 770.649 1213.13C785.207 1196.84 812.523 1208.43 815.133 1229.6C816.003 1236.79 816.757 1244.04 816.757 1251.23C816.873 1275.93 811.364 1299.47 802.142 1322.32C795.878 1337.8 789.673 1353.58 789.847 1373.58C798.082 1371.55 804.52 1370.86 810.262 1368.48C852.194 1351.31 892.038 1328.99 936.754 1318.61C947.599 1316.12 956.357 1308.69 960.243 1294.72C953.631 1293.39 948.121 1291.88 942.553 1291.12C921.5 1288.28 920.63 1287.3 924.516 1265.32H874.697C875.973 1261.43 877.074 1258.54 877.944 1255.52C889.66 1215.1 902.129 1174.92 912.685 1134.15C917.847 1114.32 916.861 1093.68 911.525 1073.5C907.639 1058.77 898.765 1048.1 884.034 1045.55C870.753 1043.23 856.833 1044.04 843.204 1044.33C837.346 1044.45 829.807 1047.64 828.647 1039.87C828.067 1036.15 834.04 1028.62 838.274 1027.51C851.44 1024.15 865.243 1020.9 878.582 1021.48C900.679 1022.41 918.485 1033.6 930.49 1054.19C953.399 1044.79 975.438 1037.72 995.737 1027.17C1051.82 997.941 1106.86 966.86 1157.55 928.647C1165.67 922.558 1174.66 917.629 1187.65 909.395C1186.03 922.21 1185.39 930.328 1183.82 938.273C1181.04 952.421 1177.27 966.454 1174.77 980.661C1172.86 991.621 1178.14 999.855 1187.82 1005.02C1205.8 1014.58 1223.55 1024.62 1241.94 1033.31C1260.78 1042.19 1277.14 1053.61 1290.02 1070.14C1295.24 1076.86 1300.92 1083.41 1307.12 1089.27C1317.62 1099.24 1329.51 1094.55 1340.47 1090.43C1350.91 1086.55 1349.64 1077.44 1347.49 1068.63C1344.53 1056.62 1349.17 1048.22 1360.08 1042.77C1363.09 1041.26 1365.88 1039.11 1372.49 1034.94C1357.29 1028.15 1345.87 1021.83 1333.63 1017.83C1316.17 1012.09 1298.02 1008.44 1280.39 1002.99C1264.38 998.057 1250.81 988.547 1250.23 970.571C1249.77 956.481 1251.16 941.172 1256.2 928.183C1276.21 876.748 1293.44 824.212 1322.44 776.373C1333.46 758.165 1346.16 746.393 1365.47 738.739C1405.2 722.967 1447.07 714.095 1486.74 697.394C1539.58 675.127 1575.54 635.87 1610.51 594.177V594.119ZM1650.64 797.828C1649.6 796.668 1648.55 795.45 1647.45 794.291C1618.05 805.25 1591.14 820.153 1569.16 843.696C1553.03 861.034 1536.97 878.488 1519.63 894.608C1502.29 910.729 1482.8 924.472 1465.46 940.592C1439.01 965.121 1409.14 983.734 1375.62 996.666C1371.04 998.405 1366.86 1001.07 1361.76 1003.68C1371.73 1011.97 1380.96 1018.47 1388.73 1026.35C1398.88 1036.62 1397.08 1046.53 1384.61 1053.72C1379.68 1056.57 1374.17 1058.31 1368.95 1060.57C1379.8 1061.26 1389.6 1058.48 1399.34 1055.58C1433.5 1045.49 1467.66 1036.73 1504.03 1040.1C1518.87 1041.49 1534.47 1039.87 1549.15 1036.91C1611.67 1024.38 1674.02 1010.87 1736.36 997.651C1769.42 990.635 1800.39 979.211 1828 958.51C1851.66 940.766 1877.35 925.863 1901.65 908.989C1914.3 900.175 1914.18 897.392 1906 878.72C1897.19 881.387 1887.91 883.939 1878.8 887.012C1848.99 897.218 1819.82 910.149 1789.26 917.339C1730.39 931.198 1671.06 943.317 1611.38 953.001C1589.98 956.481 1566.89 952.422 1544.97 949.232C1530.18 947.087 1526.3 936.881 1534.94 924.588C1549.21 904.234 1563.94 883.881 1580.76 865.557C1597.17 847.697 1616.48 832.504 1634.23 815.862C1640.15 810.353 1645.19 803.917 1650.64 797.886V797.828ZM1283.58 1098.37C1270.59 1072.69 1249.01 1061.44 1230.68 1047.17C1224.42 1042.3 1215.55 1041.55 1206.5 1046.13C1197.28 1050.77 1186.61 1052.8 1176.34 1054.94C1147.98 1060.86 1119.91 1066.95 1093.29 1079.24C1080.41 1085.15 1065.62 1088.23 1051.36 1089.56C1014.12 1093.1 979.382 1104.29 945.569 1119.66C938.668 1122.79 936.116 1126.9 934.086 1133.86C926.314 1160.31 917.905 1186.63 908.973 1212.73C905.435 1223.11 899.925 1232.79 894.648 1244.27C914.947 1244.79 934.666 1238.82 951.079 1254.24C957.343 1249.2 962.91 1244.73 968.478 1240.21C1025.08 1194.63 1083.72 1152.42 1153.72 1129.17C1158.71 1127.54 1163.41 1124.99 1168.1 1122.67C1191.54 1111.02 1216.82 1107.13 1242.46 1104.52C1255.39 1103.19 1268.15 1100.69 1283.58 1098.37ZM565.165 1233.54C564.237 1237.66 562.671 1242.47 562.207 1247.4C556.523 1308.93 547.534 1369.93 536.282 1430.64C530.425 1462.13 530.657 1462.13 556.929 1482.19C574.445 1495.59 593.642 1504.52 616.841 1505.68C620.61 1498.95 624.728 1493.04 627.512 1486.48C653.263 1425.6 678.84 1364.59 704.939 1302.49C677.912 1301.21 651.581 1297.15 629.368 1282.89C607.039 1268.57 587.146 1250.59 565.281 1233.48L565.165 1233.54ZM843.784 582.986C883.222 667.821 947.251 729.403 1029.78 777.822C1027.06 770.4 1025.72 765.529 1023.58 761.006C989.647 689.914 972.016 615.169 972.944 536.19C973.118 521.345 970.392 506.443 969 491.308C939.886 499.6 867.969 552.543 843.784 582.986ZM298.435 1467.46C295.42 1460.39 292.752 1454.82 290.664 1449.02C283.414 1429.02 268.857 1418.52 249.196 1419.45C234.928 1420.09 217.935 1437.83 214.513 1455.58C209.12 1483.58 230.753 1527.94 256.445 1541.51C306.091 1567.78 364.03 1546.33 385.373 1494.43C400.511 1457.6 396.509 1421.13 385.663 1384.54C384.735 1381.35 382.184 1378.57 379.458 1374.1C362.348 1402.46 335.09 1414.64 309.397 1427.92C308.643 1441.66 312.819 1455.52 298.493 1467.4L298.435 1467.46ZM743.681 693.161C715.494 733.288 689.743 770.922 672.634 813.194C699.719 848.741 732.777 874.255 772.099 891.245C810.03 907.597 847.786 925.341 890.936 928.763C860.371 891.245 830.967 856.047 802.606 820.037C773.723 783.389 760.732 738.797 743.681 693.161ZM183.601 1489.56C188.762 1452.39 196.418 1414.29 234.696 1392.83C231.391 1358.56 234 1323.89 203.842 1300.34C125.835 1333.05 80.5395 1427.45 101.187 1511.3C127.575 1504.34 154.022 1497.38 183.601 1489.56ZM475.269 1658.82C521.377 1636.09 592.598 1558.85 606.981 1516.17C574.793 1515.77 550.608 1498.37 527.525 1475.87C509.314 1529.97 481.591 1574.91 442.791 1614.87C453.868 1629.88 464.656 1644.5 475.269 1658.82ZM247.978 1385.99C267.871 1395.15 285.328 1403.21 305.395 1412.49C329.87 1400.26 356.143 1385.01 373.02 1358.51C346.979 1295.76 264.797 1280.8 225.533 1296.28C232.086 1311.01 240.844 1325.28 244.614 1340.7C248.384 1356.3 247.224 1373.06 248.036 1385.93L247.978 1385.99ZM652.567 1507.01C653.669 1507.82 654.771 1508.69 655.931 1509.5C670.894 1497.62 682.668 1482.77 693.107 1466.94C712.014 1438.24 733.125 1411.56 758.528 1388.25C762.066 1385.01 765.952 1379.84 766.01 1375.55C766.184 1350.62 774.941 1328.06 782.945 1305.04C788.339 1289.62 791.992 1273.5 795.124 1257.43C797.27 1246.24 797.966 1234.59 793.848 1220.55C788.977 1226 785.787 1229.02 783.235 1232.5C746.407 1282.72 719.206 1337.98 697.573 1396.2C686.611 1425.71 674.316 1454.76 662.484 1483.99C659.353 1491.7 655.873 1499.36 652.567 1507.01ZM735.619 1103.71C694.847 1053.15 651.755 1005.36 623.8 946.101C611.853 985.822 599.615 1024.44 592.656 1064.34C637.546 1092.34 684.349 1104.64 735.619 1103.71ZM221.647 1605.12C211.903 1589.53 200.884 1575.96 194.446 1560.53C187.835 1544.53 185.631 1526.67 181.165 1508.11C153.558 1510.49 127.633 1516.87 102.984 1532.64C118.992 1583.9 143.293 1627.16 187.255 1657.2C199.666 1638.35 210.801 1621.48 221.589 1605.12H221.647ZM938.61 1098.08C940.814 1097.91 942.437 1098.26 943.307 1097.62C975.902 1074.14 1013.19 1065.55 1052.34 1061.84C1065.22 1060.63 1078.33 1057.15 1090.27 1052.16C1112.37 1042.88 1135.16 1037.55 1158.77 1034.82C1166.02 1034.01 1173.15 1032.39 1185.16 1030.24C1151.58 1014.12 1146.24 990.577 1156.33 959.09C1084.36 1004.67 1016.44 1049.72 936.348 1071.7C937.16 1081.33 937.914 1089.68 938.61 1098.03V1098.08ZM238.64 1614.87C222.749 1631.22 211.207 1647.45 204.074 1669.03C246.876 1692.34 288.402 1716.29 339.613 1704.63C335.786 1686.77 332.306 1670.36 328.478 1652.38C294.376 1652.38 266.015 1636.79 238.64 1614.87ZM340.773 1653.02C347.327 1672.56 352.605 1688.34 357.941 1704.28C401.207 1702.95 435.599 1686.83 467.556 1663.92C453.868 1649.14 442.037 1636.32 429.857 1623.1C403.643 1640.67 375.862 1651.51 340.773 1652.96V1653.02Z" fill="black"/>
<path d="M1159.46 443.817C1155.46 456.284 1152.91 470.085 1146.82 481.973C1137.95 499.195 1121.77 502.442 1104.95 492.584C1090.21 483.944 1082.44 470.839 1081.22 453.965C1079.49 430.48 1085.17 408.155 1094.16 386.932C1101.18 370.405 1115.1 366.288 1129.3 376.842C1137.37 382.815 1145.02 391.397 1148.79 400.501C1154.19 413.548 1155.87 428.16 1159.52 443.817H1159.46ZM1118.29 396.384C1118.81 406.531 1118.81 406.589 1123.51 409.837C1124.08 410.242 1125.59 409.257 1128.49 408.387C1125.24 404.56 1122.52 401.37 1118.29 396.442V396.384Z" fill="black"/>
</g>
<defs>
<clipPath id="clip0_157_98">
<rect width="1854" height="1464" fill="white" transform="translate(73 268)"/>
</clipPath>
</defs>
</svg>
