<svg width="2000" height="2000" viewBox="0 0 2000 2000" fill="none" xmlns="http://www.w3.org/2000/svg">
<mask id="mask0_157_108" style="mask-type:luminance" maskUnits="userSpaceOnUse" x="95" y="96" width="1809" height="1809">
<path d="M1904 96H95V1905H1904V96Z" fill="white"/>
</mask>
<g mask="url(#mask0_157_108)">
<path d="M386.607 597.027C365.142 606.974 344.99 619.506 325.86 633.949C292.151 659.396 263.513 689.129 248.352 729.683C248.229 730.015 247.858 730.254 247.07 731.124C251.156 705.209 257.419 680.628 267.257 657.047C287.752 607.918 320.141 567.943 362.098 535.636C362.991 534.949 363.896 534.285 364.794 533.608C364.588 532.847 364.378 532.069 364.165 531.275C363.929 530.666 363.668 530.056 363.396 529.446C306.298 570.854 267.597 625.448 249.917 695.056C246.03 710.355 243.319 725.866 244.227 741.775C244.333 743.634 244.805 745.473 245.265 748.289C272.321 676.023 325.605 634.112 388.74 603.215C388.405 602.463 388.133 601.712 387.953 600.965C387.458 599.671 387.018 598.355 386.607 597.027Z" fill="black"/>
<path d="M1053.05 327.136C1053.85 326.02 1054.77 325.048 1055.77 324.226C1033.46 318.499 1010.56 315.495 987.395 313.888C951.517 311.398 915.856 312.458 880.524 319.554C814.69 332.775 754.791 361.121 696.369 392.857C644.545 421.011 590.491 430.337 533.106 414.473C522.983 411.675 513.604 407.791 505.14 402.669C499.981 400.52 494.984 397.924 490.266 394.942C490.474 395.324 490.694 395.699 490.906 396.08C496.589 400.271 502.253 404.496 508.021 408.595C510.043 409.89 512.073 411.173 514.121 412.422C516.839 414.081 519.623 415.606 522.448 417.048C552.042 428.637 583.325 430.318 615.405 426.773C645.784 423.416 673.599 411.695 700.475 397.648C744.941 374.408 789.493 351.619 838.158 337.731C868.793 328.989 899.665 322.606 931.345 320.221C967.618 317.491 1003.65 319.893 1039.3 327.149C1043.28 327.958 1047.23 328.832 1051.16 329.767C1051.78 328.892 1052.41 328.019 1053.05 327.136Z" fill="black"/>
<path d="M2008.04 1770.55C2007.41 1764.24 2005.99 1761.58 2000.58 1759.67C2004.1 1765.83 2004.69 1771.99 2001.97 1778.32C1998.09 1787.36 1992.41 1794.51 1983.04 1798.69C1966.77 1805.93 1949.64 1808.81 1932.07 1809.91C1897.93 1812.05 1867.79 1800.81 1839.96 1782.14C1802.03 1756.68 1772.46 1722.97 1746.76 1685.78C1703.17 1622.71 1673.4 1553.18 1652.93 1479.59C1630.65 1399.47 1619.23 1317.48 1613.31 1234.71C1609.64 1183.3 1607.38 1131.78 1603.9 1080.36C1600.87 1035.55 1597.58 990.752 1593.38 946.045C1587.96 888.25 1576.27 831.518 1562.01 775.306C1558.96 763.309 1529.88 655.773 1486.45 583.256C1454.59 530.051 1417.23 481.206 1370.7 439.801C1357.97 428.471 1344.73 417.888 1330.88 408.28C1334.64 412.445 1338.16 416.831 1341.36 421.379C1343.2 423.638 1344.93 425.961 1346.57 428.339C1386.84 460.045 1420.56 498.171 1450.33 540.067C1472.55 571.341 1493.94 603.266 1509.03 638.687C1554.5 745.397 1578.56 857.42 1589.49 972.444C1593.65 1016.18 1595.75 1060.11 1598.96 1103.94C1603.18 1161.54 1607.38 1219.14 1611.96 1276.71C1615.99 1327.37 1624.32 1377.43 1634.21 1427.24C1650.6 1509.76 1678.98 1587.84 1722.16 1660.24C1747.86 1703.32 1778.54 1742.44 1817.71 1774.17C1853.77 1803.38 1893.79 1821.66 1941.86 1815.93C1961.7 1813.56 1980.55 1809.03 1996.11 1795.54C1998.77 1793.22 2001.19 1790.62 2004.25 1787.64C2003.94 1789.68 2003.82 1791.01 2003.52 1792.31C1999.34 1810.17 1989.22 1824.26 1974.75 1834.98C1935.04 1864.4 1890.87 1871.93 1843.12 1860.6C1841.44 1860.2 1839.73 1859.85 1836.76 1859.2C1840.66 1862.73 1844.03 1864.68 1845.85 1867.59C1855.41 1882.94 1865.25 1898.18 1873.78 1914.1C1923.37 2006.74 1945.62 2105.97 1946.61 2209.59C1948.98 2212.24 1951.3 2214.93 1953.5 2217.71C1952.88 2193.86 1951.49 2170.01 1949.5 2146.24C1944.62 2087.75 1931.03 2031.14 1909.8 1976.43C1895.9 1940.62 1879.86 1905.87 1856.9 1874.74C1855.24 1872.49 1853.57 1870.23 1851.27 1867.11C1853.57 1867.53 1854.69 1867.72 1855.8 1867.94C1893.12 1875.5 1928.63 1870.42 1961.9 1851.87C1993.59 1834.2 2011.87 1808.6 2008.04 1770.55Z" fill="black"/>
<path d="M1430.85 814.728C1406.82 742.092 1377.8 671.723 1334.25 608.241C1321.98 590.347 1308.65 573.173 1295.81 555.669C1295.24 556.076 1294.68 556.482 1294.12 556.888C1300.18 565.58 1306.11 574.357 1312.3 582.95C1344.16 627.187 1370.11 674.709 1391.5 724.8C1440.12 838.617 1466.32 957.762 1474.95 1080.85C1478.73 1134.67 1477.79 1188.56 1469.44 1242.09C1462.47 1286.83 1450 1329.78 1427.79 1369.49C1414.66 1392.95 1398.54 1414.09 1376.75 1430.28C1368.68 1436.28 1359.32 1439.68 1348.33 1442.9C1352.36 1435.77 1355.67 1430.66 1362.35 1428.23C1367.23 1426.45 1371.8 1423.61 1376.17 1420.73C1382.25 1416.72 1388.01 1412.22 1395.15 1407.03C1393.15 1410.49 1391.88 1412.69 1390.61 1414.9C1391 1415.18 1391.4 1415.47 1391.79 1415.76C1396.08 1410.4 1400.73 1405.29 1404.61 1399.66C1419.83 1377.57 1428.82 1352.72 1435.73 1327.07C1450.09 1273.78 1455.51 1219.27 1456.37 1164.3C1456.78 1138.66 1454.8 1112.98 1454.54 1087.31C1454.16 1047.83 1455.26 1008.26 1449.39 969.062C1446.04 946.684 1441.3 924.514 1437.18 902.251C1436.72 902.324 1436.25 902.395 1435.79 902.467C1435.88 903.801 1435.93 905.139 1436.07 906.467C1439.77 941.05 1444.67 975.556 1446.9 1010.23C1450.41 1064.89 1447.91 1119.48 1440.5 1173.82C1433.3 1226.64 1421.05 1278.15 1401.64 1327.83C1379.73 1383.91 1350.71 1435.78 1309.96 1480.57C1308 1482.72 1306.12 1484.93 1304.21 1487.11C1307.04 1479.95 1310.94 1473.9 1314.55 1467.68C1318.06 1461.63 1321.43 1455.48 1324.59 1449.23C1327.7 1443.07 1330.48 1436.73 1333.4 1430.47C1332.9 1430.15 1332.4 1429.84 1331.89 1429.52C1311.82 1456.01 1283.95 1471.8 1255.01 1486.03C1250.51 1488.24 1245.61 1489.66 1240.91 1491.45C1232.38 1494.69 1223.48 1497.22 1215.44 1501.4C1207.57 1505.5 1200.83 1511.69 1193.16 1516.24C1177.63 1525.46 1161.96 1534.47 1146.03 1542.96C1140.57 1545.87 1134.15 1546.96 1128.16 1548.88C1147.63 1536.21 1160.6 1518.16 1171.89 1499.05C1181.28 1483.18 1190.02 1466.76 1197.24 1449.82C1236.27 1358.29 1255.6 1262.11 1261.23 1163.22C1263.46 1123.87 1261.69 1084.28 1261.25 1044.81C1261.09 1030.84 1260.38 1016.73 1258.29 1002.94C1253.49 971.268 1248.46 939.591 1242.09 908.209C1234.7 871.869 1227.4 835.377 1217.18 799.779C1195.76 725.175 1164.06 654.863 1122.75 589.055C1102.2 556.314 1079.06 525.588 1049.65 500.067C1028.57 481.78 1004.3 471.803 976.219 471.767C974.075 471.764 971.929 472.586 969.784 473.024C969.831 473.737 969.878 474.45 969.925 475.163C972.051 475.693 974.148 476.456 976.307 476.717C998.603 479.405 1019.84 484.835 1038.05 498.987C1062.45 517.946 1082.17 541.217 1099.72 566.327C1150.83 639.415 1187.16 719.495 1211.45 805.153C1212.31 808.186 1212.27 811.73 1211.71 814.869C1206.87 842.087 1197.54 867.789 1184.84 892.282C1172.16 916.736 1155.92 938.445 1134.28 955.714C1129.27 959.707 1123.33 962.52 1117.46 966.094C1123.01 956.558 1128.53 948.173 1132.97 939.246C1146.91 911.155 1153.59 881.132 1155.77 849.974C1158.34 813.192 1155.32 776.93 1145.78 741.289C1144.76 737.466 1142.42 733.997 1140.68 730.362C1139.06 739.001 1138.6 747.128 1137.99 755.243C1135.04 794.404 1126.6 832.17 1108.53 867.318C1081.13 920.618 1040.4 959.097 982.989 978.483C976.247 980.759 968.889 981.21 961.816 982.507C966.048 977.289 970.773 973.592 974.889 969.31C988.853 954.778 998.573 937.74 1005.26 918.693C1018 882.365 1023.92 845.13 1019.64 806.81C1015.1 766.022 1002.23 727.567 984.346 690.709C982.346 686.586 981.068 682.039 979.976 677.561C976.804 664.555 973.921 651.478 970.847 638.447C970.553 637.202 969.719 636.083 969.081 634.796C990.944 769.294 971.385 896.566 907.341 1018.56C904.99 1014.48 903.467 1012.08 902.17 1009.56C887.186 980.435 880.497 949.098 879.654 916.725C878.814 884.452 879.768 852.131 879.932 819.832C879.944 817.512 879.933 815.192 879.933 812.872C877.404 822.857 875.875 832.836 874.837 842.866C871.103 878.948 868.931 915.041 875.254 951.093C880.734 982.334 890.081 1012.12 910.757 1036.9C918.367 1046.02 927.96 1053.49 936.438 1061.51C935.286 1061.26 933.448 1060.91 931.635 1060.47C907.837 1054.62 886.772 1042.9 866.599 1029.54C827.139 1003.39 797.347 968.447 774.877 927.051C721.708 829.103 707.326 725.931 734.026 617.517C741.648 586.568 752.878 556.953 772.26 531.06C780.046 520.659 789.771 512.674 801.973 506.1C798.89 514.817 795.744 522.525 793.42 530.472C774.326 595.76 768.102 662.122 778.667 729.526C781.309 746.386 786.673 762.819 790.861 779.437C790.674 777.858 790.499 776.277 790.256 774.707C786.693 751.671 781.575 728.753 779.853 705.581C776.039 654.256 780.942 603.375 792.634 553.254C797.086 534.167 801.684 515.038 811.353 497.62C813.895 493.041 815.453 487.917 817.463 483.043C814.485 485.205 812.744 488.192 810.464 490.687C807.525 493.903 804.651 497.792 800.889 499.542C779.262 509.603 764.286 526.13 753.197 546.718C730.198 589.417 718.88 635.396 714.956 683.413C713.673 699.108 713.345 714.893 711.697 730.543C709.746 749.082 706.169 767.46 704.491 786.015C701.299 821.323 703.216 856.392 712.905 890.697C720.114 916.222 730.535 940.178 749.24 959.688C751.829 962.389 754.751 964.77 758.468 968.166C730.165 964.95 707.165 953.98 688.439 934.337C667.406 912.274 655.749 885.345 648.747 856.184C646.052 844.959 644.329 833.501 642.228 822.485C642.228 828.201 641.583 834.296 642.36 840.205C644.054 853.096 647.472 865.827 648.314 878.746C649.17 891.874 650.376 904.749 655.638 916.829C661.524 930.339 667.773 943.706 674.377 956.877C676.736 961.58 680.595 965.53 684.074 970.237C682.889 970.237 682.297 970.366 681.784 970.219C656.847 963.055 632.618 954.135 610.015 941.2C583.358 925.945 563.915 904.453 553.532 875.3C539.87 836.941 538.965 797.541 545.209 757.837C552.166 713.597 567.43 672.13 588.959 632.923C590.827 629.521 592.643 626.09 594.482 622.673C593.072 622.964 592.464 623.688 591.952 624.473C571.375 656.011 556.135 689.994 546.366 726.316C533.019 775.939 530.791 825.64 546.893 875.233C547.593 877.388 547.928 879.861 547.669 882.098C543.619 917.111 544.399 951.981 550.56 986.699C554.28 1007.66 559.684 1028.15 570.012 1046.94C579.126 1063.52 591.33 1076.23 611.856 1077.28C612.194 1077.3 612.5 1077.94 613.093 1078.58C611.286 1079.2 609.851 1079.76 608.378 1080.19C576.602 1089.49 545.693 1086.21 516.554 1071.4C482.73 1054.2 458.443 1026.54 439.955 994.099C406.39 935.193 400.543 871.644 413.74 806.415C424.316 754.139 446.03 707.244 476.191 664.785C475.328 663.746 474.612 662.576 474.047 661.333C454.726 687.443 439.068 715.999 426.693 746.761C412.402 782.286 403.963 819.024 403.102 857.38C402.77 872.135 403.896 887.025 402.302 901.628C398.314 938.161 396.876 974.559 403.439 1010.9C407.123 1031.3 412.38 1051.21 425.366 1068.07C428.142 1071.68 431.337 1074.96 434.64 1078.73C433.443 1078.79 432.842 1078.95 432.314 1078.82C395.062 1069.7 365.032 1050.18 343.669 1017.84C318.69 980.029 309.516 937.647 307.899 893.289C306.219 847.235 312.196 802.096 326.75 758.221C328.771 752.127 330.373 745.894 332.164 739.738C326.944 748.35 321.855 756.809 316.704 765.231C299.06 794.083 284.007 823.986 278.748 857.904C276.144 798.26 295.287 744.714 325.126 694.258C343.739 662.784 367.188 636.381 394.524 614.063C393.609 612.563 392.729 611.048 391.906 609.508C359.272 635.32 332.712 666.836 312.177 703.696C286.261 750.212 271.249 799.883 273.918 853.775C274.326 862.012 276.81 870.165 278.596 878.299C278.976 880.031 280.501 881.511 281.499 883.106C282.837 864.719 285.905 847.387 291.828 830.598C297.651 814.093 304.645 798.136 314.45 781.957C311.11 801.279 307.601 818.995 305.049 836.847C299.242 877.479 300.155 917.957 310.236 957.896C319.893 996.162 337.884 1029.72 368.485 1055.49C389.954 1073.56 415.523 1082.41 442.864 1086.7C445.899 1087.17 449.612 1087.84 451.053 1083.5C446.949 1080.66 442.695 1078.27 439.101 1075.13C429.507 1066.73 423.347 1055.94 418.871 1044.17C407.77 1014.96 405.328 984.407 404.949 953.554C404.826 943.592 404.93 933.626 404.93 923.662C405.515 923.605 406.1 923.549 406.685 923.492C419.951 982.508 449.323 1031.13 499.334 1066.3C497.458 1069.01 496.007 1071.07 494.589 1073.15C464 1118.09 444.429 1167.85 430.316 1219.99C416.756 1270.09 408.128 1320.99 406.185 1372.91C404.94 1406.18 407.602 1438.98 419.577 1470.5C427.202 1490.57 439.659 1507.43 453.652 1523.34C453.377 1521.77 452.706 1520.44 452.026 1519.11C443.196 1501.89 436.304 1483.89 432.679 1464.89C426.836 1434.28 427.222 1403.41 430.09 1372.47C434.732 1322.38 445.848 1273.87 464.634 1227.17C465.194 1225.78 465.945 1224.46 467.044 1222.22C467.29 1223.87 467.451 1224.27 467.388 1224.63C466.055 1232.09 464.773 1239.57 463.334 1247.02C452.115 1305.08 445.296 1363.48 450.135 1422.74C452.715 1454.33 458.69 1485.35 471.942 1514.2C477.712 1526.77 477.08 1536.97 471.902 1549.23C453.08 1593.81 429.97 1636.12 405.59 1677.76C369.022 1740.22 331.416 1802.06 295.112 1864.67C263.431 1919.3 236.371 1976.18 217.18 2036.54C200.589 2088.72 189.559 2141.86 190.955 2196.96C191.469 2217.27 194.237 2237.3 201.407 2256.45C203.516 2262.08 206.591 2267.35 209.223 2272.79C209.067 2264.82 207.047 2257.54 206.286 2250.14C202.961 2217.82 206.846 2186.04 214.781 2154.74C229.957 2094.88 257.316 2040.47 290.144 1988.59C294.525 1981.67 299.353 1975.03 304.088 1968.09C296.728 1987.27 288.997 2005.89 282.403 2024.9C265.043 2074.96 257.606 2126.77 256.209 2179.57C255.178 2218.55 258.485 2257.05 265.301 2295.15C266.695 2292.61 268.139 2290.09 269.612 2287.59C269.642 2287.53 269.674 2287.47 269.705 2287.41C266.856 2271.27 264.782 2255 263.407 2238.62C260.244 2200.88 261.279 2163.25 265.453 2125.62C271.602 2070.15 286.907 2017.42 311.259 1967.28C318.604 1952.16 326.36 1937.23 333.985 1922.1C333.5 1922.25 333.052 1922.24 332.864 1922.46C330.44 1925.24 327.921 1927.96 325.678 1930.89C283.534 1985.89 248.794 2045.11 224.629 2110.19C211.775 2144.81 202.977 2180.42 202.462 2217.65C202.304 2229.04 202.437 2240.44 202.437 2250.5C202.755 2251.33 202.438 2250.67 202.247 2249.98C201.676 2247.92 201.039 2245.87 200.63 2243.78C195.338 2216.65 194.521 2189.28 197.097 2161.86C201.964 2110.06 214.545 2060.04 232.402 2011.24C253.14 1954.56 280.606 1901.14 310.981 1849.2C345.939 1789.41 381.95 1730.23 416.789 1670.38C440.177 1630.19 462.546 1589.4 478.528 1545.5C479.505 1542.82 480.553 1540.16 481.606 1537.4C482.358 1537.87 482.78 1537.99 482.961 1538.27C483.908 1539.74 484.813 1541.24 485.698 1542.74C504.131 1574.13 530.251 1594.13 567.297 1598.26C570.693 1598.64 574.284 1600.23 577.119 1602.21C596.05 1615.43 615.421 1625.11 638.836 1612.2C638.918 1612.22 639.328 1612.21 639.668 1612.36C673.708 1627.49 707.257 1625.97 740.488 1609.65C742.718 1608.56 745.735 1608.56 748.324 1608.78C773.549 1610.95 797.671 1608.05 819.417 1593.81C820.968 1592.79 822.377 1591.56 823.852 1590.43L823.389 1588.65C804.509 1597.93 785.172 1598.97 764.384 1593.47C775.25 1582.72 784.058 1571.61 789.449 1558.02C781.534 1567.92 771.421 1574.09 759.121 1576.01C751.471 1577.2 743.628 1577.48 735.873 1577.48C732.878 1577.48 729.355 1576.24 726.972 1574.4C707.465 1559.36 693.146 1539.9 682.553 1518.02C640.838 1431.83 626.075 1340.85 635.058 1245.71C636.405 1231.45 639.887 1216.9 633.174 1202.86C632.287 1201.01 632.164 1198.79 631.687 1196.75L629.881 1196.97C628.652 1215.71 627.336 1234.45 626.21 1253.2C622.628 1312.86 627.911 1371.71 642.837 1429.62C653.025 1469.16 666.209 1507.52 688.766 1541.99C702.166 1562.47 718.619 1579.8 740.699 1591.23C753.974 1598.1 768.328 1600.71 782.88 1602.78C745.833 1609.82 713.009 1597.43 681.116 1580.41C682.087 1581.85 683.125 1583.02 684.422 1583.69C699.901 1591.64 715.419 1599.52 730.188 1607.04C711.185 1619.42 663.093 1619.61 644.327 1606.47C652.172 1590.43 653.031 1582.67 647.243 1577.07C647.028 1578.61 646.798 1579.9 646.674 1581.21C645.507 1593.46 630.397 1601.17 620.191 1594.12C611.106 1587.85 601.902 1581.34 594.257 1573.47C551.948 1529.93 530.543 1475.83 519.533 1417.48C516.598 1401.93 519.787 1384.92 521.802 1368.78C529.173 1309.76 543.281 1252.23 561.936 1195.79C562.902 1192.87 563.674 1189.88 564.537 1186.93C562.13 1189.18 560.783 1191.74 559.797 1194.44C554.061 1210.15 547.618 1225.65 542.867 1241.65C522.796 1309.26 508.686 1377.77 513.039 1448.95C515.283 1485.66 525.603 1519.6 546.296 1550.18C557.987 1567.46 571.434 1583.06 590.542 1592.41C607.152 1600.53 624.164 1607.69 642.732 1597.58C642.855 1597.51 643.248 1597.94 643.511 1598.13C637.968 1609.95 623.94 1616.64 611.363 1612.89C596.431 1608.45 582.806 1601.19 571.805 1590.12C562.922 1581.18 555.079 1571.2 546.799 1561.66C545.58 1560.26 544.496 1558.73 543.35 1557.26C542.76 1557.71 542.17 1558.16 541.581 1558.6C549.841 1570.3 558.101 1582 566.296 1593.61C543.405 1590.61 525.45 1582.26 510.696 1566.1C503.4 1558.11 496.714 1549.29 491.195 1539.99C466.553 1498.46 457.119 1452.62 455.006 1405.06C453.449 1370.01 455.288 1335.03 460.587 1300.32C465.34 1269.2 470.591 1238.15 475.753 1207.09C476.583 1202.1 478.098 1197.22 479.296 1192.29C450.488 1235.04 438.827 1283.69 430.3 1333.22C421.725 1383.04 419.15 1432.98 431.956 1482.73C430.684 1481.12 429.792 1479.42 428.875 1477.73C413.861 1450.17 410.659 1420.02 410.73 1389.5C410.84 1342.45 417.572 1296.11 428.024 1250.29C441.607 1190.74 461.66 1133.74 494.386 1081.72C497.129 1077.36 499.903 1073.02 502.635 1068.72C561.886 1104.36 610.35 1092.43 634.564 1072.5C631.155 1072.75 628.267 1072.81 625.427 1073.2C606.022 1075.92 592.038 1067.58 581.233 1052.11C570.311 1036.48 564.648 1018.75 560.261 1000.55C551.571 964.478 551.09 927.739 551.91 890.925C551.914 890.736 552.44 890.558 552.929 890.241C554.933 893.798 556.843 897.395 558.943 900.878C571.225 921.249 588.496 936.282 609.134 947.718C636.234 962.735 665.09 972.554 693.937 976.68C686.296 964.763 677.264 952.128 669.799 938.627C662.322 925.103 657.454 910.367 654.869 894.935C666.161 919.51 681.686 940.52 704.313 955.721C727.322 971.179 752.948 975.504 780.102 973.39C778.621 972.009 777.01 971.036 775.286 970.347C763.006 965.436 752.839 957.652 745.616 946.671C739.44 937.282 733.442 927.608 728.797 917.408C712.402 881.405 708.128 843.069 709.058 804.026C709.507 785.195 711.203 766.393 712.335 747.578C712.857 747.584 713.38 747.59 713.902 747.596C717.791 813.834 735.835 875.89 768.79 933.486C793.656 976.944 825.694 1013.66 869.274 1039.4C870.048 1039.85 870.627 1040.64 872.363 1042.28C864.798 1055.73 857.205 1069.23 849.643 1082.67C865.771 1075.62 878.521 1063.8 890.749 1050.83C918.891 1063.86 948.304 1070.24 979.267 1069.18C965.306 1066.23 951.863 1062.13 939.982 1053.92C928.006 1045.65 918.031 1035.52 910.445 1023.35C939.68 974.912 957.564 922.689 969.189 868.157C980.807 813.66 986.239 758.591 982.464 702.063C983.523 703.094 983.899 703.298 984.02 703.603C986.105 708.842 988.215 714.072 990.21 719.344C1008.25 767.022 1019.61 815.671 1011.78 867.135C1007.55 894.981 1001.29 922.306 986.889 946.827C977.684 962.502 966.888 977.206 947.911 982.627C947.128 982.851 946.527 983.714 944.905 985.05C947.444 985.756 948.973 986.279 950.543 986.601C962.697 989.092 974.604 987.595 986.195 983.748C1043.81 964.626 1084.48 926.007 1112.04 872.915C1132.95 832.647 1142.07 789.394 1142.11 743.532C1142.73 744.939 1143.3 745.776 1143.47 746.687C1150.85 787.248 1154.94 827.964 1148.43 869.068C1142.57 906.037 1132.31 941.237 1106.35 971.208C1113.74 969.076 1120.93 967.599 1127.65 964.94C1142.79 958.946 1153.63 947.399 1163.71 935.159C1188.66 904.848 1204.3 869.97 1213.84 832.139C1214.48 829.588 1215.16 827.046 1215.82 824.5C1217.42 826.371 1218.07 828.132 1218.51 829.943C1223.37 849.963 1228.67 869.892 1232.95 890.038C1243.9 941.577 1252.75 993.471 1255.51 1046.18C1258.94 1111.83 1255.94 1177.22 1246.62 1242.32C1239.07 1294.99 1227.26 1346.65 1210.29 1397.09C1197.67 1434.62 1182.57 1471.06 1160.8 1504.36C1151.95 1517.9 1142.25 1530.8 1129.05 1540.62C1120.14 1547.26 1110.42 1550.03 1099.41 1547.9C1098.09 1547.64 1096.71 1547.69 1095.36 1547.6C1109.22 1556.81 1124.31 1557.47 1138.95 1552.22C1169.12 1541.4 1195.17 1523.25 1220.33 1503.76C1222.56 1502.04 1225.3 1500.6 1228.02 1499.91C1259.3 1492.1 1287.5 1478.29 1312.1 1457.33C1312.89 1456.66 1313.79 1456.14 1314.64 1455.55C1301.44 1481.26 1286.41 1505.33 1262.35 1522.59C1269.82 1519.47 1277 1516.02 1283.28 1511.35C1305.64 1494.76 1324.28 1474.44 1341 1452.27C1342.42 1450.39 1344.52 1448.23 1346.63 1447.8C1366.03 1443.88 1381.87 1433.52 1396.04 1420.43C1424.62 1394.01 1442.33 1360.68 1455.56 1324.69C1475.05 1271.66 1481.7 1216.4 1483.2 1160.34C1484.47 1112.62 1481.78 1065.09 1475.6 1017.73C1466.61 948.742 1452.73 880.847 1430.85 814.728ZM1451.15 1136.71C1451.72 1136.66 1452.3 1136.61 1452.88 1136.56C1451.07 1166.62 1449.63 1196.72 1447.36 1226.74C1444.88 1259.55 1439.84 1292.05 1430.76 1323.7C1425.74 1341.21 1418.94 1358.22 1412.57 1375.33C1403.63 1399.34 1383.51 1411.85 1361.97 1423.2C1415.78 1335.1 1441.48 1238.39 1451.15 1136.71ZM756.157 1590.83C750.857 1588.63 745.632 1586.24 739.684 1583.61C752.272 1581.47 763.563 1579.54 775.474 1577.51C770.146 1581.94 764.852 1586.44 759.409 1590.76C758.716 1591.31 757.098 1591.22 756.157 1590.83ZM523.161 1461.42C540.188 1512.57 563.127 1558.76 606.109 1593.84C564.951 1586.31 517.64 1510.58 523.161 1461.42ZM868.488 1064.14C868.215 1063.91 867.942 1063.68 867.668 1063.45C870.17 1056.85 872.671 1050.25 875.406 1043.04C878.527 1044.6 881.389 1046.04 885.389 1048.04C879.38 1053.77 873.935 1058.95 868.488 1064.14Z" fill="black"/>
<path d="M1238.99 661.984C1237.36 658.675 1235.69 655.38 1234.03 652.087C1221.55 627.401 1207.97 603.441 1192.69 580.625C1192.47 580.826 1192.01 581.149 1191.26 581.623C1190.96 581.825 1190.66 582.004 1190.36 582.183C1199.73 595.615 1208.49 609.516 1216.78 623.776C1224.38 636.842 1231.31 650.296 1239.23 664.848C1239.06 662.719 1239.14 662.294 1238.99 661.984Z" fill="black"/>
<path d="M1094.02 479.115C1082.11 472.514 1069.26 467.383 1055.21 464.169C1044.04 461.614 1032.82 459.258 1021.59 456.971C1019.55 456.554 1017.34 456.911 1015.21 456.911C1015.08 457.478 1014.94 458.044 1014.81 458.611C1016.71 459.582 1018.53 460.879 1020.54 461.465C1027.63 463.522 1034.7 465.773 1041.93 467.164C1059.79 470.599 1076.27 476.646 1091.58 484.949C1092.11 482.949 1093.01 480.959 1094.02 479.115Z" fill="black"/>
<path d="M790.986 780.503C791.365 776.903 792.258 773.272 792.047 769.706C787.369 690.888 794.014 613.151 814.387 536.763C817.285 525.898 821.464 515.372 825.124 504.715C825.707 503.019 826.683 501.458 827.662 499.954C796.36 610.74 786.474 723.119 800.648 837.54C797.464 818.465 794.279 799.39 791.092 780.322C791.089 780.329 790.986 780.503 790.986 780.503Z" fill="black"/>
<path d="M1347.25 1358.97C1337.03 1411.72 1276.84 1480.69 1239.6 1484.24C1259.04 1465.56 1279.65 1446.71 1299.13 1426.75C1318.62 1406.78 1334.02 1383.6 1347.25 1358.97ZM1323.05 1407.77C1313.26 1418.5 1303.81 1429.58 1293.58 1439.87C1283.29 1450.23 1272.21 1459.82 1261.48 1469.75C1287.93 1455.05 1307.53 1433.47 1323.05 1407.77Z" fill="black"/>
<path d="M500.976 664.826C462.469 732.448 432.392 817.436 435.554 899.925C437.784 841.318 449.566 784.776 472.338 730.659C482.782 705.838 494.919 682.001 508.354 658.922C505.992 660.989 503.581 662.944 500.976 664.826Z" fill="black"/>
<path d="M955.017 582.315C934.11 538.972 908.43 501.116 867.25 475.81C863.361 480.354 859.971 484.316 856.58 488.277C855.919 487.832 855.258 487.387 854.597 486.942C857.486 481.854 859.966 476.446 863.532 471.888C864.506 470.642 869.338 470.993 871.377 472.258C878.794 476.859 886.116 481.743 892.864 487.266C922.945 511.889 942.32 543.824 955.295 580.013C955.405 580.322 955.22 580.737 955.017 582.315Z" fill="black"/>
</g>
<mask id="mask1_157_108" style="mask-type:luminance" maskUnits="userSpaceOnUse" x="95" y="96" width="1809" height="1809">
<path d="M1904 96H95V1905H1904V96Z" fill="white"/>
</mask>
<g mask="url(#mask1_157_108)">
<path d="M164.439 4823.02C168.257 4798.05 172.125 4773.1 175.885 4748.13C188.278 4665.8 201.749 4583.66 219.006 4502.19C219.806 4498.41 220.496 4494.61 221.304 4490.48C215.964 4483.21 210.708 4476.05 205.151 4468.49C206.42 4464.07 207.663 4459.62 208.97 4455.19C234.404 4369.03 259.392 4282.73 285.381 4196.73C336.275 4028.32 395.625 3862.91 461.55 3699.8C483.843 3644.64 502.98 3588.22 524.875 3532.89C548.202 3473.95 573.211 3415.67 597.207 3356.99C603.236 3342.25 608.147 3327.05 613.686 3312.1C615.882 3306.18 615.117 3301.16 611.638 3295.64C604.59 3284.47 598.631 3272.61 591.76 3261.32C587.723 3254.68 587.854 3248.71 590.719 3241.56C617.334 3175.13 643.825 3108.65 669.956 3042.03C682.932 3008.95 691.789 2974.67 695.809 2939.33C697.21 2927.01 697.498 2914.44 696.865 2902.06C696.499 2894.9 693.924 2887.63 691.25 2880.84C672.57 2833.43 653.094 2786.33 634.9 2738.74C621.848 2704.6 610.062 2669.96 601.835 2634.22C600.855 2629.96 598.29 2625.47 595.158 2622.44C588.759 2616.23 581.688 2610.65 574.515 2605.32C550.116 2587.2 526.276 2568.46 505.353 2546.27C504.584 2545.46 503.505 2544.94 501.605 2543.6C499.226 2547.15 496.891 2550.55 494.647 2554.02C451.612 2620.39 405.362 2684.34 352.177 2743.07C323.67 2774.55 293.805 2804.64 261.058 2831.75C255.382 2836.45 249.376 2840.83 243.14 2844.75C236.269 2849.07 228.777 2849.12 222.372 2843.98C207.602 2832.13 190.438 2824.69 173.436 2817.1C112 2789.67 50.3524 2762.71 -11.1329 2735.39C-97.4411 2697.03 -179.588 2651.41 -255.536 2594.99C-304.354 2558.72 -350.449 2519.31 -393.456 2476.3C-401.136 2468.62 -408.7 2460.82 -416.203 2452.97C-417.774 2451.33 -418.844 2449.2 -420.916 2446.17C-403.235 2396.44 -381.206 2348.14 -355.977 2300.74C-357.669 2298.44 -358.985 2296.08 -360.815 2294.24C-370.687 2284.32 -380.911 2274.73 -390.566 2264.6C-397.804 2257.01 -406.836 2253.83 -416.678 2253.58C-439.99 2252.97 -463.359 2252.18 -486.638 2253.12C-533.667 2255.01 -580.608 2259.18 -627.765 2256.77C-635.057 2256.39 -641.474 2254.99 -647.479 2250.95C-651.021 2248.57 -655.07 2246.91 -658.51 2244.41C-667.71 2237.71 -677.867 2235.25 -689.192 2235.2C-693.862 2235.18 -698.99 2232.84 -703.092 2230.26C-713.617 2223.63 -723.604 2216.15 -733.957 2209.24C-743.658 2202.76 -753.761 2196.87 -763.281 2190.15C-768.569 2186.41 -773.064 2181.54 -777.848 2177.11C-781.747 2173.49 -785.057 2168.99 -789.469 2166.23C-813.22 2151.33 -837.872 2138.11 -863.893 2127.51C-870.954 2124.63 -877.678 2120.92 -883.69 2118.02C-884.976 2109.97 -881.045 2107.22 -876.202 2104.85C-861.193 2097.52 -845.76 2096.16 -829.769 2101.09C-825.042 2102.55 -820.254 2103.81 -813.242 2105.8C-821.855 2090.99 -829.34 2078.12 -836.513 2065.79C-832.794 2058.85 -827.356 2059.32 -822.499 2059.45C-808.14 2059.82 -795.978 2066.05 -786.226 2076.01C-778.389 2084.02 -771.505 2093.1 -765.091 2102.32C-761.358 2107.68 -757.075 2111.2 -751.177 2113.86C-732.849 2122.13 -716.932 2134.29 -703.445 2148.87C-684.733 2169.1 -662.201 2171.57 -637.248 2166.66C-633.437 2165.91 -629.611 2165.08 -625.921 2163.89C-601.511 2156.01 -577.106 2148.12 -552.774 2140.01C-547.337 2138.2 -542.193 2135.51 -535.011 2132.4C-548.125 2123.38 -560.391 2117.34 -573.906 2114.04C-581.445 2112.2 -589.14 2110.82 -596.843 2109.85C-617.29 2107.27 -635.833 2099.37 -653.748 2089.81C-665.494 2083.54 -673.192 2073.12 -679.438 2061.78C-684.193 2053.14 -681.689 2048.22 -672.161 2045.35C-654.064 2039.91 -636.009 2042.18 -617.854 2045.29C-594.488 2049.31 -571.098 2053.28 -547.603 2056.39C-536.484 2057.87 -525.053 2058.11 -513.838 2057.51C-488.104 2056.13 -462.536 2057.11 -436.958 2060.04C-408.875 2063.26 -384.183 2074.02 -364.696 2094.38C-345.244 2114.71 -323.589 2132.32 -301.818 2149.91C-290.668 2158.92 -279.529 2167.94 -268.132 2177.16C-258.696 2169.31 -249.826 2161.93 -240.893 2154.5C-238.944 2155.84 -237.609 2156.61 -236.447 2157.58C-165.514 2217.13 -94.585 2276.67 -23.6819 2336.25C-7.54358 2349.81 9.73956 2361.7 28.0784 2372.07C58.5556 2389.29 88.9457 2406.67 119.599 2423.58C129.103 2428.82 139.282 2432.86 149.277 2437.16C152.808 2438.68 156.675 2439.5 160.454 2440.36C167.5 2441.95 174.594 2443.33 182.633 2445C182.856 2442.73 183.428 2439.48 183.452 2436.22C183.545 2423.46 186.694 2411.61 193.484 2400.76C196.785 2395.48 199.757 2389.99 203.279 2384.87C254.356 2310.58 296.945 2231.49 335.161 2150.04C367.707 2080.67 398.459 2010.46 430.98 1941.08C447.641 1905.53 466.026 1870.77 484.41 1836.07C497.604 1811.17 515.126 1789.17 535.122 1769.38C544.75 1759.86 555.495 1751.34 566.446 1743.33C570.441 1740.41 576.595 1738.82 581.597 1739.15C639.258 1742.95 696.686 1741.2 753.972 1733.58C761.613 1732.56 768.206 1730.28 773.912 1725.07C798.621 1702.52 823.443 1680.09 848.146 1657.53C858.475 1648.1 868.692 1638.54 878.77 1628.84C880.912 1626.78 882.707 1624.05 883.832 1621.29C886.619 1614.46 889.314 1607.54 891.337 1600.45C894.867 1588.08 899.844 1576.95 912.946 1571.55C912.365 1557.38 911.011 1543.93 907.788 1530.72C906.434 1525.17 903.106 1521.31 897.903 1518.47C878.451 1507.83 859.108 1496.99 839.898 1485.92C802.758 1464.52 767.623 1440.18 733.467 1414.27C707.083 1394.26 689.758 1368.18 678.065 1337.9C672.334 1323.07 667.667 1307.82 662.396 1292.4C649.107 1289.7 642.526 1279.08 637.016 1268.5C623.353 1242.27 611.266 1215.28 602.723 1186.86C601.853 1183.97 601.51 1180.91 600.822 1177.43C605.286 1174.37 609.341 1171.58 614.051 1168.35C601.754 1140.35 587.759 1113.67 569.488 1087.57C575.933 1087.58 577.927 1091.33 579.868 1094.66C591.593 1114.82 603.224 1135.04 614.803 1155.29C616.918 1158.99 618.646 1162.91 620.809 1167.24C623.883 1167.39 626.92 1167.54 629.956 1167.69C628.096 1170.05 626.235 1172.42 624.757 1174.31C639.503 1210.68 653.913 1246.22 668.289 1281.69C669.766 1281.98 670.886 1282.34 672.022 1282.4C674.349 1282.52 676.689 1282.58 679.017 1282.48C725.846 1280.57 771.704 1272.44 816.728 1259.82C839.812 1253.36 845.227 1244.03 842.418 1220.31C842.242 1218.82 841.613 1217.38 841.203 1215.95C832.742 1217.56 830.916 1216.94 827.515 1211.09C824.253 1205.47 822.98 1199.24 824.691 1193.08C827.581 1182.68 831.251 1172.5 834.592 1162.22C835.227 1158.31 834.738 1154.04 833.564 1149.97C830.751 1140.23 825.632 1136.71 815.604 1137.39C810.567 1137.73 805.537 1138.28 800.528 1138.92C747.674 1145.65 695.432 1155.79 643.402 1167.14C638.961 1168.11 634.222 1167.71 629.622 1167.95C632.85 1166.73 635.986 1165.09 639.321 1164.36C696.346 1151.98 753.52 1140.36 811.604 1134.09C819.494 1133.24 827.639 1134.73 836.57 1135.19C838.955 1142.37 841.225 1149.2 843.861 1157.13C846.403 1155.23 848.441 1153.76 850.413 1152.22C860.119 1144.59 871.059 1141.32 883.216 1143.8C890.804 1145.35 898.233 1147.72 905.679 1149.91C910.081 1151.21 914.378 1152.86 919.823 1154.73C919.203 1143.49 918.653 1133.54 918.145 1124.33C925.225 1115.19 934.067 1110.27 944.12 1108.33C978.852 1101.64 1013.68 1095.43 1048.48 1089.13C1050.62 1088.74 1052.88 1089.08 1055.21 1090.46C1023.9 1096.11 992.545 1101.55 961.297 1107.53C952.198 1109.27 943.129 1111.9 934.532 1115.34C925.375 1119 923.935 1122.78 925.127 1132.78C925.676 1137.38 926.328 1141.97 927.027 1147.28C940.167 1151.11 951.145 1158.27 959.717 1168.66C962.32 1171.81 964.794 1175.83 965.387 1179.74C967.102 1191.07 956.16 1198.85 945.719 1194.18C943.256 1193.08 940.984 1191.56 936.958 1189.29C940.719 1203.75 944.451 1216.64 952.11 1227.96C955.519 1233 961.075 1234.83 967.106 1235.94C986.213 1239.47 1005.28 1237.83 1024.04 1234.64C1059.68 1228.58 1095.14 1221.41 1130.64 1214.51C1135.95 1213.47 1141.06 1211.39 1146.25 1209.75C1162.28 1204.69 1166.86 1192.08 1165.53 1178.95C1162.78 1151.86 1159.1 1124.87 1155.57 1097.87C1154.93 1093.03 1153.14 1088.33 1151.99 1083.96C1134.22 1078.79 1117.67 1083.62 1101.19 1083.37C1116.58 1080.9 1131.95 1078.32 1147.36 1076C1151.95 1075.31 1156.89 1074.29 1161.27 1075.26C1172.2 1077.69 1180.83 1072.87 1189.76 1068.13C1208.66 1058.11 1227.63 1048.22 1246.61 1038.34C1249.99 1036.58 1253.53 1035.11 1256.96 1033.52C1259.89 1037.31 1257.68 1038.95 1255.14 1040.29C1247.91 1044.1 1240.62 1047.79 1233.39 1051.58C1215.51 1060.94 1197.66 1070.33 1179.52 1079.84C1180.82 1087.89 1182.05 1095.5 1183.55 1104.72C1208.63 1089.19 1232.93 1074.15 1257.22 1059.12C1257.81 1059.57 1258.4 1060.02 1258.99 1060.48C1258.51 1062.23 1258.59 1064.74 1257.43 1065.6C1253.07 1068.82 1248.3 1071.52 1243.68 1074.4C1224.21 1086.54 1204.73 1098.68 1184.56 1111.25C1184.56 1114.71 1184.61 1118.51 1184.55 1122.31C1184.26 1142.13 1184.15 1161.96 1183.57 1181.78C1183.09 1198.2 1174.88 1209.21 1159.72 1215.94C1143.12 1223.31 1125.45 1226.13 1107.96 1229.62C1066.36 1237.93 1024.54 1244.93 981.988 1246C974.224 1246.2 966.441 1245.56 958.665 1245.41C951.275 1245.27 945.862 1241.73 942.909 1235.23C939.218 1227.12 935.656 1218.86 933.078 1210.35C929.251 1197.71 926.336 1184.8 922.846 1171.28C909.595 1162.74 894.518 1158.12 878.425 1156.94C867.134 1156.12 857.945 1160.38 851.45 1170.02C847.773 1175.48 846.923 1181.19 847.546 1187.74C849.052 1203.6 849.805 1219.54 850.999 1235.44C851.938 1247.96 846.281 1256.51 835.033 1261.07C826.05 1264.72 816.844 1268.1 807.44 1270.37C765.79 1280.41 723.679 1287.75 680.838 1290.4C677.874 1290.58 674.949 1291.41 671.424 1292.04C683.996 1342.85 705.615 1386.51 748.434 1418.24C798.626 1455.44 852.025 1487.18 906.964 1516.57C916.224 1521.52 925.406 1526.63 934.767 1531.38C944.387 1536.27 954.341 1537.83 965.259 1535.6C1001.83 1528.15 1035.84 1514 1068.69 1496.84C1114.69 1472.83 1157.77 1444.24 1198.97 1412.75C1202.67 1409.92 1206.43 1407.18 1210.19 1404.43C1210.46 1404.22 1210.93 1404.28 1212.13 1404.07C1212.17 1409.15 1208.53 1411.46 1205.43 1413.91C1192.31 1424.28 1179.39 1434.96 1165.86 1444.77C1123.52 1475.44 1079.06 1502.51 1030.67 1522.7C1009.09 1531.7 986.947 1538.88 963.861 1543.1C955.522 1544.62 947.778 1544.35 940.037 1540.59C932.762 1537.06 925.192 1534.14 916.228 1530.29C917.26 1539.99 918.192 1548.34 919.029 1556.69C920.811 1574.48 921.367 1592.48 924.548 1610C930.815 1644.53 944.399 1676.24 966.041 1704.12C970.826 1710.28 972.762 1716.81 973.252 1724.49C974.191 1739.22 975.984 1753.89 977.522 1769.62C983.149 1770.4 989.123 1771.23 995.814 1772.16C996.849 1769.5 997.791 1767.11 998.718 1764.71C1001.66 1757.09 1004.43 1749.41 1007.55 1741.88C1014.89 1724.23 1027.49 1711.84 1044.55 1703.1C1072.36 1688.86 1097.93 1671.11 1121.25 1650.28C1127.31 1644.87 1133.2 1638.96 1137.91 1632.38C1155.78 1607.39 1173.2 1582.07 1190.66 1556.79C1197.66 1546.66 1201.95 1535.68 1201.29 1522.95C1201.04 1518.26 1200.26 1512.48 1207.42 1509.84C1210.08 1514.06 1207.67 1518.76 1208.9 1523.85C1216.1 1525.34 1219.1 1531.82 1221.67 1538.19C1226.9 1551.17 1232.17 1564.19 1236.28 1577.54C1241.33 1593.95 1249.38 1608.12 1262.19 1619.63C1267.1 1624.04 1271.31 1629.25 1276.29 1633.58C1296.76 1651.44 1313.52 1672.33 1326.2 1696.25C1332.41 1707.98 1341.62 1715.17 1353.36 1720.48C1401.42 1742.2 1451.27 1758.31 1503.07 1768.17C1523.68 1772.09 1544.49 1774.93 1565.25 1777.99C1569.35 1778.59 1573.7 1778.36 1577.82 1777.76C1597.94 1774.84 1615.78 1778.35 1629.45 1794.86C1638.13 1805.34 1647.3 1815.44 1655.63 1826.18C1664.69 1837.86 1673.03 1850.09 1681.69 1862.08C1812.17 2042.67 1951.82 2215.88 2100.53 2381.76C2134.56 2419.72 2169.49 2456.87 2203.83 2494.55C2219.03 2511.23 2233.68 2528.41 2248.82 2545.15C2255.99 2553.08 2258.33 2561.83 2255.3 2572.04C2251.32 2585.45 2247.83 2599.04 2243.22 2612.24C2203.85 2724.89 2155.72 2833.58 2095.65 2936.84C2057.66 3002.15 2014.66 3064.22 1972.24 3126.66C1959.13 3145.97 1945.6 3165 1931.93 3183.92C1929.87 3186.77 1926.26 3189.51 1922.92 3190.24C1912.7 3192.49 1902.29 3193.9 1891.91 3195.34C1855.56 3200.36 1819.67 3196.01 1784 3189.34C1766.1 3185.99 1748.42 3181.44 1729.21 3177.11C1715.19 3192.22 1700.71 3207.83 1685.65 3224.06C1688.89 3226.51 1690.78 3228.47 1693.07 3229.58C1707.39 3236.53 1716.99 3248.06 1724.11 3261.79C1728.58 3270.41 1732.12 3279.51 1736.33 3288.27C1753.35 3323.68 1770.47 3359.04 1787.57 3394.4C1788.59 3396.5 1789.87 3398.47 1790.91 3400.55C1795.62 3409.96 1802.25 3414.85 1813.69 3415.4C1828.01 3416.08 1842.24 3418.01 1856.13 3416.57C1872.86 3384.44 1891.5 3355.38 1929.24 3347.62C1934.57 3351.32 1935.75 3354.75 1933.62 3359.52C1930.77 3365.91 1927.96 3372.37 1925.82 3379.02C1918.66 3401.21 1911.85 3423.52 1904.81 3445.75C1902.58 3452.79 1900.27 3459.82 1897.6 3466.7C1894.63 3474.33 1889.12 3478.16 1880.53 3478.21C1872.41 3478.25 1864.29 3479.46 1855.3 3480.23C1847.41 3490.5 1838.98 3500.7 1831.5 3511.54C1827.61 3517.19 1823.39 3521.19 1816.47 3520.49C1801.28 3518.95 1791.94 3527.68 1783.54 3538.4C1782.35 3539.92 1780.96 3541.28 1779.33 3543.09C1771.89 3543.97 1764.21 3544.88 1755 3545.98C1757.69 3553.58 1759.99 3560.75 1762.76 3567.73C1774.08 3596.29 1786.43 3624.47 1796.75 3653.38C1809.33 3688.64 1815.37 3725.66 1822.24 3762.34C1837.39 3843.15 1845.96 3924.68 1849.04 4006.88C1851.92 4083.99 1849.48 4160.97 1845.15 4237.89C1840.48 4320.68 1829.86 4402.87 1816.49 4484.7C1809.59 4526.92 1803 4569.2 1796.23 4611.44C1795.68 4614.89 1794.85 4618.3 1794 4622.43C1787.87 4627.65 1781.5 4633.35 1774.81 4638.66C1770.99 4641.7 1768.41 4645.18 1767.14 4649.93C1751.96 4706.68 1734.84 4762.85 1715.82 4818.43C1715.32 4819.87 1715.33 4821.49 1715.11 4823.02C1712.77 4823.02 1710.44 4823.02 1708.1 4823.02C1724.66 4767.91 1741.23 4712.81 1757.76 4657.69C1758.27 4655.99 1758.39 4654.17 1759.03 4650.37C1718.73 4676.96 1676.4 4694.7 1632.13 4710.32C1591.25 4588.86 1543.59 4471.48 1481.05 4357.39C1444.67 4484.92 1399.28 4605.79 1342.14 4720.87C1277.7 4734.23 1214.02 4741.25 1148.94 4748.31C1153.33 4774.13 1157.48 4798.57 1161.63 4823.02C1160.07 4823.02 1158.52 4823.02 1156.96 4823.02C1152 4798.4 1147.04 4773.79 1142 4748.78C1010.63 4759.09 879.977 4761.87 749.373 4748.65C730.97 4773.62 712.766 4798.32 694.562 4823.02C692.227 4823.02 689.891 4823.02 687.556 4823.02C689.549 4819.73 691.312 4816.27 693.573 4813.18C707.796 4793.72 722.153 4774.36 736.393 4754.91C738.15 4752.51 739.475 4749.8 741.995 4745.55C643.274 4736.52 552.741 4704.29 465.036 4663.42C376.802 4622.29 296.409 4569.41 227.8 4497.56C226.568 4501.97 225.668 4504.49 225.169 4507.08C216.664 4551.34 207.674 4595.52 199.904 4639.91C193.14 4678.56 187.767 4717.45 181.775 4756.24C178.336 4778.5 174.888 4800.76 171.444 4823.02C169.11 4823.02 166.774 4823.02 164.439 4823.02ZM619.873 3309.66C618.659 3313.7 618.099 3315.85 617.373 3317.94C612.268 3332.62 607.76 3347.54 601.891 3361.91C577.774 3420.95 551.623 3479.21 529.303 3538.92C505.746 3601.93 482.226 3664.96 457.315 3727.43C399.218 3873.1 346.209 4020.56 300.135 4170.46C270.427 4267.11 242.119 4364.19 213.205 4461.09C212.662 4462.91 212.393 4464.81 211.84 4467.41C215.261 4471.87 218.615 4476.61 222.339 4481.04C241.946 4504.35 264.052 4525.14 287.505 4544.47C380.102 4620.82 485.448 4673.4 599.557 4708.41C676.814 4732.1 756.388 4744.26 837.188 4748.32C934.912 4753.23 1032.53 4751.12 1129.92 4742.71C1182.2 4738.2 1234.25 4730.86 1286.34 4724.25C1303.62 4722.06 1320.68 4718.18 1337.58 4715.13C1339.98 4710.28 1341.97 4706.51 1343.75 4702.65C1353.22 4682.17 1362.81 4661.75 1372.05 4641.17C1412.6 4550.87 1444.63 4457.47 1473.21 4362.81C1475.62 4354.81 1478.26 4347.25 1473.26 4339.37C1472.86 4338.74 1473.59 4337.38 1473.88 4335.91C1475.21 4336.74 1476.52 4337.1 1477 4337.93C1543.5 4452.84 1593.08 4575.24 1636.11 4700.96C1639.34 4700.12 1641.64 4699.82 1643.68 4698.95C1667.28 4688.9 1690.8 4678.66 1714.43 4668.71C1720.89 4665.99 1723.61 4661.48 1724.86 4654.69C1734.89 4600.39 1745.92 4546.26 1755.35 4491.86C1771.58 4398.21 1781.08 4303.77 1784.46 4208.8C1787.18 4132.14 1785.37 4055.53 1778.8 3979.04C1772.54 3906.09 1762.43 3833.73 1747.6 3762.04C1732.68 3689.92 1712.8 3619.23 1686.92 3550.26C1685.34 3546.06 1683.51 3541.96 1680.85 3535.52C1670.32 3571.41 1656.13 3602.8 1636.81 3631.78C1636.59 3629.69 1637.13 3627.92 1637.88 3626.25C1644.46 3611.72 1651.49 3597.38 1657.55 3582.64C1663.45 3568.28 1668.59 3553.59 1673.61 3538.89C1676.72 3529.77 1676.22 3520.77 1671.77 3511.79C1666.59 3501.35 1662.36 3490.44 1657.58 3479.79C1656.57 3477.53 1654.97 3475.53 1653.21 3472.73C1634.77 3496.05 1612.75 3513.83 1588.94 3529.52C1565.48 3544.97 1540.86 3558.23 1514.93 3569.04C1518.16 3566.15 1521.8 3563.98 1525.39 3561.75C1544.23 3550.05 1563.2 3538.57 1581.84 3526.56C1601.19 3514.11 1619.39 3500.09 1635.32 3483.39C1640.85 3477.59 1645.66 3471.09 1650.75 3464.98C1633.25 3428.28 1614.74 3393.67 1593.82 3360.39C1592.3 3357.98 1589.45 3356.41 1587.16 3354.39C1584.01 3330.11 1481.1 3205.69 1443.16 3180.67C1441.23 3182.18 1438.99 3183.64 1437.08 3185.45C1381.12 3238.75 1319.78 3285.26 1256.2 3328.97C1201.05 3366.89 1142.29 3397.4 1078.26 3417.57C1033.73 3431.61 988.853 3444.29 943.283 3454.49C940.414 3455.13 937.491 3455.53 933.654 3456.22C907.257 3370.22 881.073 3284.91 854.017 3196.76C823.589 3285.8 793.088 3371.67 752.659 3453.62C745.221 3452.26 741.016 3448.21 736.773 3444.28C697.835 3408.2 662.384 3369.04 631.756 3325.6C628.279 3320.67 624.549 3315.92 619.873 3309.66ZM1246.7 1609.5C1245.73 1610.31 1244.76 1611.13 1243.79 1611.94C1242.1 1634.41 1240.65 1656.9 1238.64 1679.35C1237.44 1692.89 1236.98 1706.8 1233.39 1719.77C1225.52 1748.22 1216.58 1776.42 1206.82 1804.28C1179.8 1881.44 1141.99 1953.36 1097.51 2021.7C1063.13 2074.52 1027.04 2126.22 991.731 2178.44C983.451 2190.68 974.325 2202.47 967.208 2215.37C939.582 2265.43 912.028 2315.54 885.548 2366.21C856.347 2422.09 829.496 2479.11 808.475 2538.68C801.718 2557.83 796.229 2577.31 796.216 2597.82C796.2 2622.33 797.093 2646.86 796.762 2671.36C796.043 2724.35 799.543 2777.13 803.495 2829.92C806.487 2869.88 808.811 2909.89 811.711 2949.86C814.695 2990.98 817.901 3032.1 821.248 3073.19C822.548 3089.14 825.317 3104.9 831.992 3119.6C846.189 3150.86 855.856 3183.73 866.085 3216.36C889.472 3290.96 912.178 3365.77 935.191 3440.48C936.179 3443.69 937.483 3446.8 938.681 3450.06C941.915 3449.54 944.25 3449.37 946.465 3448.77C977.982 3440.19 1009.62 3432.04 1040.95 3422.83C1097.82 3406.12 1153.26 3385.81 1204.13 3354.67C1293.76 3299.8 1376.66 3236.24 1451.97 3162.88C1454.14 3160.77 1456.04 3158.37 1457.83 3156.38C1457.43 3155 1457.4 3154.13 1456.97 3153.56C1437.51 3127.32 1419.71 3099.87 1397.78 3075.45C1355.33 3028.17 1316.86 2977.79 1282.38 2924.38C1276.68 2915.56 1271.19 2906.47 1264.42 2898.51C1256.01 2888.65 1252.69 2877.44 1253.1 2865.11C1253.82 2842.98 1253.6 2820.64 1256.71 2798.8C1264.56 2743.51 1280.07 2690.11 1300.95 2638.32C1318.54 2594.68 1336.36 2551.13 1354.32 2507.63C1358.46 2497.59 1363.41 2487.86 1368.3 2478.14C1382.27 2450.35 1397.27 2423.02 1410.25 2394.77C1423.88 2365.11 1436.61 2334.91 1442.79 2302.55C1444.51 2293.56 1445.34 2284.4 1446.96 2272.51C1430.22 2282.96 1418.49 2295.24 1404.06 2303.84C1415.19 2289.04 1428.64 2276.67 1443.15 2265.19C1442.62 2262.04 1442.13 2259 1441.57 2255.98C1441.52 2255.69 1440.99 2255.49 1439.85 2254.58C1411.75 2263.41 1386.76 2279.46 1361.31 2295.07C1362.9 2289.5 1367.1 2286.28 1371.32 2283.24C1389.7 2269.96 1409.33 2258.96 1430.6 2250.98C1433.37 2249.94 1436.06 2248.66 1437.76 2247.93C1431.92 2230.56 1425.37 2214.33 1421.03 2197.52C1413.18 2167.17 1412.08 2136.03 1412.79 2104.8C1413.55 2071.22 1419.39 2038.26 1424.47 2005.19C1425.86 1996.12 1427.41 1987.08 1429.03 1977.12C1382.04 2018.56 1336.1 2059.07 1290.15 2099.59C1292.68 2113.77 1295.57 2127.84 1297.62 2142.04C1300.22 2160.11 1301.76 2178.34 1304.44 2196.4C1307.64 2217.97 1312.03 2239.31 1320.35 2259.62C1322.23 2264.2 1324.28 2268.71 1326.62 2274.1C1323.32 2275.79 1320.78 2277.45 1318.01 2278.44C1312.52 2280.4 1306.84 2281.8 1301.35 2283.76C1207.51 2317.41 1115.79 2356 1027.51 2402.47C987.917 2423.31 948.635 2444.75 911.709 2470.18C895.574 2481.29 881.198 2494.15 870.182 2510.64C860.676 2524.87 850.487 2538.65 840.531 2552.58C839.257 2554.36 837.564 2555.84 836.066 2557.46C843.452 2538.55 854.97 2522.46 865.995 2506C877.703 2488.53 892.571 2474.79 909.947 2463.16C942.33 2441.47 976.163 2422.29 1010.49 2403.98C1104.73 2353.71 1202.59 2311.79 1303.72 2277.48C1308.44 2275.88 1313.07 2274.03 1318.31 2272.08C1303.89 2240.35 1299.15 2207.24 1294.31 2174.12C1291.61 2155.66 1288.27 2137.29 1285.02 2118.91C1284.32 2114.94 1282.75 2111.12 1281.21 2106C1267.08 2117.45 1254.45 2127.75 1241.74 2137.96C1229.01 2148.2 1216.29 2158.48 1203.38 2168.51C1190.48 2178.54 1177.5 2188.48 1164.29 2198.1C1151.37 2207.5 1138.74 2217.4 1124.11 2224.35C1127.49 2219.96 1131.29 2216.09 1135.58 2212.91C1190.98 2171.9 1244.2 2128.18 1296.93 2083.85C1340.43 2047.29 1383.67 2010.44 1424.11 1970.42C1441.86 1952.85 1458.21 1934.15 1472.7 1913.84C1475.8 1909.49 1478.32 1904.73 1481.15 1900.1C1479.44 1897.9 1478.45 1896.2 1477.06 1894.93C1468.78 1887.34 1460.28 1879.97 1452.08 1872.3C1428.72 1850.44 1407.58 1826.58 1387.94 1801.35C1361.83 1767.8 1339.92 1731.45 1318.04 1695.12C1305.9 1674.96 1291.83 1656.59 1274.44 1640.66C1266.13 1633.05 1258.52 1624.67 1250.79 1616.45C1249 1614.53 1248.04 1611.84 1246.7 1609.5ZM1567.91 3087.61C1572.43 3090.98 1575.99 3093.93 1579.83 3096.46C1627.1 3127.77 1676.98 3153.64 1731.56 3169.93C1773.15 3182.34 1815.42 3190.44 1858.89 3191.38C1877.97 3191.79 1896.97 3190.83 1915.71 3186.41C1921.87 3184.95 1926.04 3181.97 1929.49 3176.78C1938.98 3162.53 1948.95 3148.6 1958.57 3134.44C1990.05 3088.09 2022.45 3042.32 2052.71 2995.19C2128.09 2877.78 2187.05 2752.28 2233.33 2620.76C2238.74 2605.36 2243.14 2589.61 2248.15 2574.07C2251.12 2564.86 2250.2 2556.56 2243.83 2548.91C2238.38 2542.35 2233.69 2535.13 2227.99 2528.81C2213.13 2512.35 2198.05 2496.07 2182.79 2479.97C2030.52 2319.35 1889.95 2148.86 1755.74 1973.05C1719.85 1926.04 1685.7 1877.71 1650.31 1830.32C1641.03 1817.89 1630.41 1806.42 1619.78 1795.09C1615.93 1790.98 1610.6 1786.63 1605.37 1785.74C1584.37 1782.18 1563.68 1781.58 1547.28 1799.32C1527.48 1820.75 1507.15 1841.68 1487.48 1863.21C1482.1 1869.09 1476.74 1875.45 1474.53 1883.34C1478.9 1889.69 1486.83 1892.63 1488.52 1901.24C1484.63 1907.17 1480.86 1913.52 1476.49 1919.43C1469.8 1928.51 1463.74 1938.43 1455.54 1945.93C1440.22 1959.93 1434.19 1977.08 1431.12 1997C1424.02 2043.21 1417.43 2089.38 1418.95 2136.3C1419.97 2167.65 1425.19 2198.17 1437.11 2227.37C1441.73 2238.68 1450.23 2248.53 1448.88 2261.3C1472.85 2259.89 1490.48 2274.67 1510.5 2281.2C1512.56 2277.35 1514.23 2274.22 1515.91 2271.09C1516.34 2271.29 1516.77 2271.49 1517.2 2271.69C1516.9 2276.18 1516.6 2280.67 1516.3 2285.24C1518.48 2286.54 1520.12 2287.54 1521.78 2288.51C1576.39 2320.26 1628.24 2356.06 1676.72 2396.53C1699.39 2415.45 1720.91 2435.75 1742.59 2455.82C1780.3 2490.7 1817.77 2525.83 1855.24 2560.97C1865.44 2570.54 1875.27 2580.5 1885.07 2590.08C1893.8 2587.79 1893.8 2587.79 1897.73 2595.79C1890.41 2602.56 1884.46 2610.95 1874.09 2615.1C1863.01 2619.54 1852.34 2625.17 1842.32 2634.33C1850.37 2640.73 1857.87 2646.69 1865.35 2652.64C1873.45 2650.06 1880.91 2647.92 1888.18 2645.27C1891 2644.24 1893.49 2642.18 1895.95 2640.34C1911.79 2628.44 1927.22 2615.94 1943.5 2604.67C1959.89 2593.33 1978.1 2585.43 1997.35 2579.91C2027.9 2571.15 2058.05 2572.11 2087.93 2582.81C2092.17 2584.33 2097.19 2585.09 2097.81 2590.91C2094.6 2596.56 2088.88 2597.62 2083.8 2598.88C2051.72 2606.79 2019.54 2614.34 1987.39 2621.98C1985.51 2622.42 1983.55 2622.71 1981.62 2622.78C1979.79 2622.84 1977.95 2622.53 1976.11 2622.39C2013.55 2610.27 2052.19 2603.76 2089.15 2590.5C2078.1 2584.6 2066.36 2582.56 2054.63 2581.17C2020.05 2577.1 1988.12 2586.22 1958.47 2603.18C1942.99 2612.04 1928.7 2622.99 1913.96 2633.11C1911.98 2634.47 1910.51 2636.55 1908.16 2638.96C1926.73 2636.68 1943.99 2633.91 1961.35 2632.6C1979.02 2631.26 1996.85 2630.93 2013.74 2638.18C2012.32 2639 2010.88 2639.39 2009.53 2639.18C1983.39 2635.19 1957.48 2637.98 1931.69 2642.13C1902.8 2646.78 1874.93 2655.01 1848.16 2667.02C1841.56 2669.98 1837.86 2674.26 1835.46 2681.02C1829.46 2697.88 1822.45 2714.37 1816.36 2731.19C1809.16 2751.08 1799.53 2769.7 1787.67 2787.12C1771.46 2810.91 1755.47 2834.89 1738.3 2857.98C1684.24 2930.74 1628.33 3002.14 1576.14 3076.29C1573.68 3079.79 1571.11 3083.21 1567.91 3087.61ZM253.221 2571.01C251.501 2567.55 249.912 2564.02 248.041 2560.65C236.351 2539.56 225.42 2518 212.589 2497.63C203.314 2482.91 191.617 2469.69 180.739 2456.01C176.198 2450.3 170.077 2447.37 162.489 2447.12C150.546 2446.73 139.708 2442.09 129.427 2436.54C97.9388 2419.56 66.6917 2402.13 35.2467 2385.07C15.6982 2374.46 -2.84485 2362.44 -19.9351 2348.16C-77.5505 2300.01 -135.294 2252.01 -192.871 2203.81C-208.949 2190.35 -224.624 2176.41 -240.505 2162.67C-241.746 2163.18 -242.948 2163.42 -243.828 2164.09C-245.994 2165.73 -248.045 2167.53 -250.084 2169.33C-274.742 2191.13 -295.34 2216.45 -313.684 2243.62C-351.53 2299.69 -380.28 2360.48 -405.564 2422.97C-415.613 2447.8 -417.962 2445.36 -396.826 2466.09C-289.157 2571.69 -167.53 2657.2 -29.9088 2719.37C32.4604 2747.54 95.33 2774.61 157.728 2802.72C178.257 2811.97 198.38 2822.28 218.015 2833.3C234.809 2842.73 235.309 2843.45 250.679 2831.58C252.834 2829.91 255.057 2828.31 257.039 2826.45C279.185 2805.72 302.094 2785.73 323.256 2764.03C388.754 2696.89 443.562 2621.38 494.015 2542.56C495.023 2540.99 495.715 2539.21 496.702 2537.24C494.102 2533.96 491.739 2530.92 489.314 2527.93C459.319 2490.96 436.288 2450.25 423.353 2404.22C421.812 2398.74 421.146 2392.69 421.611 2387.02C422.823 2372.25 425.361 2357.57 431.826 2344.1C440.566 2325.89 449.175 2307.53 459.367 2290.13C482.226 2251.1 509.798 2215.33 538.037 2180.08C541.404 2175.88 544.712 2171.63 548.253 2167.14C543.419 2154.24 538.807 2141.94 533.95 2128.98C538.579 2123.46 543.248 2117.89 547.911 2112.33C547.15 2108.73 546.555 2105.71 545.865 2102.7C527.013 2020.58 523.353 1937.94 538.057 1854.8C544.311 1819.44 553.687 1784.97 570.777 1753.03C571.346 1751.97 571.427 1750.64 572.149 1747.83C567.818 1750.28 564.95 1751.53 562.52 1753.36C558.179 1756.63 553.979 1760.11 549.933 1763.74C517.887 1792.52 493.855 1827.38 475.133 1865.74C449.037 1919.21 424.29 1973.34 398.708 2027.06C369.448 2088.51 340.737 2150.23 310.255 2211.07C278.712 2274.03 245.112 2335.93 205.012 2394.04C195.079 2408.43 188.458 2423.91 189.637 2441.98C189.884 2445.75 188.802 2449.62 188.308 2453.65C218.273 2488.22 238.182 2528.4 253.221 2571.01ZM872.379 1646.48C871.702 1645.74 871.025 1645 870.348 1644.27C864.336 1650.21 858.49 1656.33 852.285 1662.07C826.58 1685.82 801.961 1710.94 774.723 1732.79C730.059 1768.62 681.091 1798.41 631.854 1827.56C616.118 1836.88 599.867 1845.33 581.531 1848.65C580.522 1848.83 579.661 1849.83 577.7 1851.15C581.187 1864.38 584.177 1878.01 588.371 1891.25C605.905 1946.62 628.563 1999.95 655.679 2051.23C674.216 2086.29 694.745 2120.3 714.261 2154.84C716.344 2158.53 720.084 2161.75 719.211 2168.74C714.32 2161.94 710.285 2156.75 706.688 2151.27C682.313 2114.15 660.613 2075.5 640.766 2035.78C638.741 2031.73 636.142 2027.97 633.119 2022.92C601.728 2059.28 571.306 2094.51 540.77 2129.88C546.814 2144.92 552.381 2159.4 558.42 2173.69C593.306 2256.2 633.617 2336.05 678.393 2413.59C706.661 2462.54 738.559 2509.05 778.796 2549.27C779.642 2550.12 779.937 2551.51 781.715 2555.18C777.097 2552.29 774.56 2551.26 772.77 2549.48C764.5 2541.27 755.958 2533.25 748.388 2524.42C719.188 2490.34 693.464 2453.7 671.641 2414.52C653.476 2381.91 636.561 2348.6 619.33 2315.48C595.822 2270.28 571.734 2225.37 552.327 2178.17C551.949 2177.25 551.06 2176.54 549.656 2174.8C547.884 2176.91 546.383 2178.61 544.974 2180.39C514 2219.45 484.369 2259.46 459.145 2302.55C447.131 2323.06 436.663 2344.34 430.337 2367.42C426.115 2382.83 425.475 2398.13 431.732 2413.18C437.255 2426.46 442.324 2439.98 448.708 2452.84C474.575 2504.96 510.838 2548.56 557.151 2583.85C570.451 2593.99 583.354 2604.65 596.319 2615.21C604.075 2621.54 609.628 2629.18 610.194 2639.73C610.358 2642.78 611.514 2645.8 612.353 2648.79C628.238 2705.47 650.187 2759.95 671.981 2814.5C685.684 2848.81 698.806 2883.34 712.032 2917.84C713.686 2922.15 714.381 2926.83 715.52 2931.34C714.838 2931.53 714.157 2931.71 713.475 2931.9C711.299 2926.36 709.122 2920.83 706.945 2915.29C704.667 2917.28 704.177 2918.98 704.08 2920.7C701.492 2966.64 689.707 3010.46 673.035 3053.06C650.356 3111.02 627.299 3168.82 604.421 3226.7C601 3235.35 597.676 3244.04 594.508 3252.2C615.692 3303.24 711.951 3423.5 750.212 3446.69C752.592 3441.77 755.229 3437.01 757.256 3432.01C774.488 3389.48 792.139 3347.1 808.59 3304.26C820.994 3271.97 831.468 3238.93 843.49 3206.48C849.836 3189.35 849.22 3173.43 841.133 3157C834.793 3144.13 829.475 3130.65 824.881 3117.04C821.053 3105.7 817.396 3093.92 816.327 3082.1C811.635 3030.19 807.833 2978.2 803.878 2926.22C802.58 2909.16 802.32 2892 800.681 2874.97C794.636 2812.19 790.717 2749.31 790.578 2686.22C790.51 2655.09 790.23 2623.96 790.158 2592.83C790.15 2588.97 790.713 2585.1 791.216 2581.26C794.947 2552.8 805.15 2526.26 816.18 2500.09C820.228 2490.49 820.409 2482.06 817.113 2472.22C793.632 2402.09 774.015 2330.9 760.161 2258.18C750.207 2205.94 748.087 2153.12 748.556 2100.13C748.756 2077.57 749.657 2055 750.662 2032.46C752.569 1989.7 754.985 1947.04 764.677 1905.07C771.861 1873.95 779.562 1843.04 790.3 1812.95C799.998 1785.78 810.166 1758.47 827.884 1735.57C838.861 1721.39 845.773 1705.77 852.99 1689.94C858.153 1678.61 863.325 1667.29 868.443 1655.94C869.845 1652.82 871.071 1649.63 872.379 1646.48ZM1537.06 3169.49C1553.2 3148.25 1568.45 3128.19 1583.8 3108.01C1575.75 3101.59 1567.99 3095.4 1559.93 3088.97C1561.95 3085.68 1563.2 3083.3 1564.78 3081.16C1609.06 3021.51 1653.3 2961.83 1697.72 2902.28C1727.96 2861.76 1759.09 2821.86 1785.74 2778.8C1792.88 2767.25 1799.89 2755.42 1805.14 2742.95C1814.32 2721.15 1822.29 2698.82 1830.33 2676.55C1832.76 2669.82 1836.53 2665.16 1843.08 2662.39C1847.86 2660.37 1852.43 2657.84 1857.3 2655.44C1850.31 2646.68 1839.35 2643.7 1834.47 2632.73C1837.88 2629.67 1840.86 2626.04 1844.66 2623.78C1855.33 2617.41 1866.37 2611.65 1877.18 2605.52C1880 2603.93 1882.53 2601.84 1885.53 2599.73C1883.27 2597.3 1882 2595.83 1880.64 2594.47C1794.18 2507.98 1703.61 2426.15 1606.24 2352C1579.28 2331.46 1550.92 2313.05 1521.61 2296.09C1519.13 2294.65 1516.27 2293.87 1514.62 2293.2C1500.46 2327.6 1487.46 2361.33 1472.82 2394.33C1431.46 2487.6 1382.19 2576.78 1331.16 2665.01C1317.62 2688.42 1307.72 2713.24 1300 2739C1298.34 2744.51 1297.6 2750.45 1297.49 2756.21C1297.23 2770.6 1297.17 2785.01 1297.75 2799.39C1298.78 2825.05 1300.63 2850.64 1307.57 2875.58C1309.07 2880.98 1311.43 2885.5 1315.23 2889.67C1330.69 2906.62 1345.93 2923.79 1361.22 2940.91C1393.09 2976.6 1425.33 3011.96 1456.63 3048.14C1473.16 3067.23 1488.07 3087.73 1503.6 3107.67C1505.18 3109.7 1506.03 3112.28 1507.12 3114.41C1504.49 3117.48 1502.3 3120.02 1499.7 3123.05C1512.23 3138.62 1524.36 3153.7 1537.06 3169.49ZM1445.84 3177.83C1448.56 3180.15 1450.94 3182.07 1453.2 3184.12C1468.15 3197.72 1484 3210.46 1497.84 3225.11C1564.25 3295.34 1614.7 3376.5 1656.51 3463.08C1679.01 3509.67 1697.18 3558.18 1712.97 3607.52C1743.54 3703.03 1763.68 3800.77 1776.27 3900.19C1786.01 3977.11 1790.94 4054.33 1791.32 4131.83C1791.56 4182.81 1790.19 4233.78 1785.6 4284.59C1781.79 4326.81 1778.05 4369.07 1772.69 4411.11C1762.54 4490.64 1747.77 4569.39 1730.59 4647.69C1729.8 4651.3 1729.34 4654.97 1728.46 4660.14C1732.3 4658.42 1734.57 4657.78 1736.4 4656.52C1750.16 4647.04 1763.77 4637.35 1777.55 4627.91C1786.51 4621.77 1790.27 4613.43 1791.84 4602.66C1802.9 4526.85 1815.22 4451.21 1825.68 4375.32C1831.52 4332.96 1835.68 4290.29 1838.55 4247.62C1841.36 4205.72 1841.89 4163.65 1842.87 4121.65C1844.11 4068.33 1843.99 4015.01 1840.49 3961.77C1835.46 3885.21 1825.61 3809.26 1810.25 3734.06C1803.47 3700.9 1796.3 3667.9 1783.76 3636.23C1743.19 3533.68 1696.26 3434.22 1640.47 3339.03C1599.9 3269.8 1555.64 3203.04 1505.51 3140.28C1502.15 3136.08 1498.52 3132.11 1494.68 3127.66C1478.12 3144.67 1462.19 3161.04 1445.84 3177.83ZM-674.923 2172.75C-667.591 2180.2 -639.589 2195.84 -631.291 2197.13C-628.622 2197.54 -625.841 2197.6 -623.143 2197.4C-609.188 2196.36 -595.248 2195.11 -581.292 2194.1C-575.094 2193.64 -568.87 2193.54 -562.655 2193.37C-562.367 2193.36 -562.054 2194.27 -561.093 2195.8C-581.373 2198.16 -601.036 2200.19 -620.616 2202.85C-627.905 2203.84 -634.583 2203.08 -640.936 2199.7C-655.681 2191.86 -670.278 2183.73 -685.069 2175.98C-690.764 2172.99 -694.95 2168.79 -698.656 2163.61C-713.947 2142.23 -734.543 2127.21 -757.702 2115.43C-761.339 2113.58 -765.315 2112.04 -769.215 2114.82C-768.888 2116.31 -768.904 2117.15 -768.538 2117.76C-752.428 2144.87 -733.796 2170.26 -715.099 2195.59C-713.056 2198.36 -710.601 2201.05 -707.788 2202.98C-690.147 2215.07 -672.251 2226.79 -654.639 2238.92C-642.31 2247.41 -628.589 2250.81 -613.927 2251.21C-604.595 2251.46 -595.251 2251.67 -585.918 2251.53C-526.103 2250.63 -466.414 2243.43 -406.479 2248.02C-401.169 2248.43 -396.67 2249.72 -392.917 2253.54C-387.466 2259.09 -381.844 2264.48 -376.45 2270.09C-368.918 2277.91 -361.528 2285.88 -353.305 2294.61C-344.482 2280.12 -336.973 2267.02 -328.706 2254.42C-320.39 2241.75 -311.685 2229.29 -302.478 2217.25C-293.37 2205.34 -283.421 2194.08 -273.514 2182.14C-276.787 2179.23 -279.302 2176.86 -281.958 2174.66C-301.136 2158.78 -320.357 2142.95 -339.523 2127.06C-342.209 2124.83 -345.056 2122.63 -347.166 2119.9C-362.82 2099.66 -384.431 2087.3 -406.147 2075.12C-409.468 2073.26 -413.421 2072.4 -417.175 2071.45C-443.328 2064.8 -469.749 2061.75 -496.879 2062.91C-517.026 2063.78 -537.289 2062.43 -557.483 2061.62C-578.994 2060.75 -599.653 2054.84 -620.497 2050.11C-635.829 2046.63 -651.301 2045.67 -666.827 2048.48C-670.301 2049.11 -673.549 2050.99 -676.338 2052.08C-676.776 2059.76 -672.964 2063.88 -669.466 2067.95C-661.267 2077.5 -651.597 2085.27 -640.14 2090.63C-624.536 2097.93 -608.26 2102.92 -591.066 2104.77C-572.703 2106.74 -555.082 2111.14 -539.353 2121.34C-535.466 2123.86 -531.71 2126.59 -527.746 2129.32C-523.639 2127.56 -519.745 2125.81 -515.789 2124.21C-511.466 2122.46 -507.162 2120.6 -502.706 2119.27C-499.094 2118.19 -495.269 2117.83 -491.54 2117.14C-492.669 2119.37 -493.969 2120.2 -495.353 2120.86C-532.324 2138.33 -570.462 2152.73 -609.433 2165.1C-630.712 2171.85 -652.007 2176.71 -674.923 2172.75ZM824.833 2475.76C827.047 2471.75 828.64 2469.28 829.831 2466.64C867.682 2382.53 910.22 2300.84 956.542 2221.11C960.411 2214.45 962.281 2207.88 962.287 2200.21C962.34 2138.34 966.106 2076.64 971.737 2015.04C973.145 1999.64 973.792 1984.16 974.792 1968.66C968.423 1965.43 962.959 1962.66 956.909 1959.59C956.016 1962.68 955.191 1964.83 954.783 1967.05C949.741 1994.58 945.002 2022.16 939.668 2049.63C936.707 2064.88 932.954 2079.98 929.168 2095.05C928.216 2098.84 927.726 2103.72 920.981 2104.97C917.772 2094.78 919.362 2084.61 921.206 2074.48C921.206 2081.99 921.206 2089.51 921.206 2097.03C922.047 2097.12 922.886 2097.21 923.727 2097.3C929.876 2082.83 931.156 2067.04 934.305 2051.79C937.527 2036.18 940.154 2020.45 942.948 2004.76C945.719 1989.2 948.372 1973.62 951.013 1958.41C933.13 1950.9 926.028 1952.98 918.088 1967.37C907.573 1986.44 897.25 2005.61 886.781 2024.7C843.9 2102.9 805.984 2183.33 776.572 2267.66C773.088 2277.65 772.655 2286.88 774.839 2297.13C787.258 2355.38 804.381 2412.31 822.306 2469.03C822.847 2470.74 823.565 2472.4 824.833 2475.76ZM1590.69 3111.13C1574.01 3133.68 1555.46 3153.05 1541.71 3175.79C1544.21 3179.45 1545.89 3182.06 1547.71 3184.56C1600.36 3257.11 1647.4 3333.16 1688.87 3412.61C1705.78 3445.02 1721.65 3477.97 1738.07 3510.64C1740.1 3514.67 1742.57 3518.47 1744.96 3522.59C1768.08 3517.02 1790.5 3515.2 1813.08 3514.84C1818.78 3514.75 1823.16 3512.79 1826.68 3507.51C1831.39 3500.44 1837.48 3494.29 1842.92 3487.7C1844.54 3485.75 1845.96 3483.63 1848.28 3480.49C1837.09 3481.43 1827.38 3481.86 1817.8 3483.17C1808.57 3484.43 1799.47 3486.6 1790.31 3488.4C1781.22 3490.19 1772.8 3495.06 1762.92 3494.3C1766.09 3491.26 1769.49 3488.65 1773.32 3487.28C1780.99 3484.54 1788.79 3481.95 1796.74 3480.25C1822.73 3474.7 1849.19 3473.85 1875.66 3473.25C1888.48 3472.96 1891.44 3471.25 1894.5 3458.89C1902.28 3427.45 1914.22 3397.46 1925.66 3367.28C1927.12 3363.43 1928.23 3359.45 1929.63 3355.15C1922.25 3352.48 1916.69 3354.92 1911.92 3357.88C1889.89 3371.62 1872.74 3389.74 1864.33 3414.82C1862.39 3420.61 1859.38 3423.39 1853.61 3423.32C1845.06 3423.21 1836.5 3423.1 1827.98 3422.59C1819.25 3422.06 1810.55 3421.04 1798.81 3419.96C1793.75 3415.66 1787.78 3408.12 1783.45 3399.34C1766.77 3365.51 1750.16 3331.63 1733.56 3297.76C1727.74 3285.89 1722.34 3273.8 1716.17 3262.12C1708.66 3247.9 1697.23 3237.81 1681.77 3231.87C1679.23 3234.87 1676.82 3237.73 1672.71 3242.6C1675.49 3225.94 1685.29 3216.26 1693.67 3206C1702.39 3195.31 1711.98 3185.34 1722.12 3174C1675.16 3158.81 1632.25 3138.12 1590.69 3111.13ZM896.239 1808.13C894.382 1812.59 892.376 1816.36 891.206 1820.38C885.554 1839.78 880.114 1859.24 874.63 1878.69C873.52 1882.63 873.477 1887.08 869.124 1889.99C836.16 1850.86 820.567 1806.43 822.908 1755.3C817.849 1764.27 812.941 1773.41 808.902 1782.93C779.275 1852.71 762.919 1925.66 758.303 2001.18C754.787 2058.7 755.162 2116.3 757.888 2173.85C758.789 2192.86 760.524 2211.86 762.67 2230.78C764.047 2242.91 766.874 2254.88 769.051 2266.92C769.961 2267.03 770.87 2267.15 771.78 2267.26C808.075 2157.33 862.493 2056.01 918.677 1955.56C910.212 1927.89 906.749 1899.85 906.456 1871.29C906.289 1854.97 905.363 1838.63 904.327 1822.33C904.004 1817.25 904.67 1811.05 896.239 1808.13ZM1210.65 1533.62C1206.34 1542.01 1203.4 1549.29 1199.16 1555.72C1183.96 1578.75 1168.68 1601.76 1152.68 1624.24C1145.29 1634.63 1137.28 1645.14 1127.58 1653.23C1102.21 1674.4 1076.02 1694.69 1046.37 1709.76C1031.88 1717.13 1021.06 1727.64 1014.57 1742.51C1011.15 1750.34 1007.86 1758.23 1004.72 1766.18C1003.79 1768.54 1003.6 1771.19 1003.28 1772.71C1015.06 1779.92 1025.93 1786.58 1037.56 1793.7C1041.34 1790.33 1045.58 1786.56 1049.83 1782.77C1045.28 1768.44 1040.37 1755.46 1031.64 1744.23C1029.64 1741.65 1027.56 1738.99 1033.48 1736.58C1035.9 1739.54 1039.05 1742.46 1041.03 1746.03C1044.98 1753.15 1048.72 1760.45 1051.76 1767.99C1061.97 1793.35 1067.32 1820.03 1073.08 1846.64C1077.1 1865.21 1082.26 1883.55 1087.37 1901.86C1088.65 1906.44 1091.75 1910.52 1093.22 1913.32C1107.9 1899.55 1122.38 1886.57 1136.14 1872.88C1151.57 1857.53 1166.22 1841.4 1181.45 1825.84C1196.76 1810.2 1207.18 1791.94 1212.74 1770.76C1215.11 1761.75 1218.78 1753.07 1220.89 1744C1224.31 1729.29 1227.71 1714.49 1229.7 1699.53C1232.25 1680.28 1232.69 1660.75 1235.28 1641.5C1240.27 1604.42 1229.46 1570.82 1214.14 1538.02C1213.54 1536.75 1212.37 1535.75 1210.65 1533.62ZM1286.51 2781.11C1286.11 2780.99 1285.71 2780.87 1285.31 2780.75C1285.88 2777.44 1286.14 2774.05 1287.06 2770.84C1293.68 2747.68 1300.01 2724.42 1307.32 2701.47C1310.59 2691.21 1315.04 2681.1 1320.41 2671.76C1362.47 2598.58 1403.46 2524.83 1440.52 2448.96C1463.92 2401.07 1485.91 2352.56 1504.22 2302.47C1505.78 2298.2 1506.96 2293.79 1508.21 2289.81C1490.3 2277.64 1465.19 2267.97 1453.95 2269.21C1452.7 2278.04 1451.83 2287.27 1450.02 2296.3C1442.1 2335.77 1428.72 2373.41 1410.85 2409.44C1404.63 2421.98 1397.87 2434.25 1391.29 2446.6C1382.51 2463.08 1372.76 2479.11 1365.07 2496.07C1351.41 2526.16 1338.56 2556.63 1326.15 2587.26C1302.76 2644.95 1281.68 2703.41 1267.88 2764.33C1259.98 2799.21 1258.47 2834.36 1259.42 2869.83C1259.66 2878.69 1262.63 2886.19 1268.08 2893.38C1277 2905.14 1285.12 2917.53 1293.26 2929.86C1320.3 2970.79 1348.62 3010.83 1380.79 3047.88C1408.35 3079.64 1435.32 3111.78 1459.38 3146.3C1460.44 3147.82 1461.92 3149.05 1463.85 3151.09C1476.37 3138.18 1488.43 3125.73 1500.64 3113.14C1497.71 3109.2 1495.43 3106.06 1493.08 3102.99C1464.23 3065.25 1432.88 3029.63 1400.98 2994.47C1370.67 2961.04 1340.68 2927.32 1310.44 2893.83C1305.64 2888.52 1301.6 2882.89 1300.24 2875.81C1294.35 2845.2 1290.66 2814.39 1291.79 2783.13C1291.9 2780.25 1291.81 2777.36 1291.81 2774.48C1291.27 2774.47 1290.73 2774.46 1290.19 2774.45C1288.96 2776.67 1287.74 2778.89 1286.51 2781.11ZM968.544 2196.96C969.139 2197.23 969.734 2197.5 970.329 2197.76C976.645 2189.13 983.216 2180.66 989.235 2171.82C1019.89 2126.8 1050.73 2081.91 1080.87 2036.55C1123.82 1971.9 1161.04 1904.13 1189.85 1831.91C1191.1 1828.77 1192.3 1825.61 1193.52 1822.45C1190.95 1822.74 1189.46 1823.75 1188.39 1825.1C1168.95 1849.53 1146.65 1871.25 1124.38 1893.03C1115.51 1901.7 1107.55 1911.29 1099.09 1920.39C1098.11 1921.44 1096.6 1922.02 1095.33 1922.82C1088.31 1919.58 1085.63 1913.21 1083.65 1907.11C1078.14 1890.13 1073.42 1872.89 1068.3 1855.78C1067.61 1853.48 1066.44 1851.33 1064.41 1846.56C1055.78 1868.05 1040.39 1881.57 1028.59 1897.74C1014.16 1917.53 1000.24 1937.7 985.928 1957.57C982.365 1962.52 980.816 1967.67 980.706 1973.78C980.503 1985.06 979.648 1996.32 978.93 2007.59C975.492 2061.55 971.929 2115.51 968.623 2169.48C968.063 2178.61 968.544 2187.8 968.544 2196.96ZM630.853 2015.85C628.845 2011.2 627.389 2007.63 625.78 2004.13C604.797 1958.48 587.323 1911.53 573.532 1863.22C571.877 1857.42 568.771 1851.44 573.068 1845.22C573.981 1844.69 574.915 1843.79 575.977 1843.6C595.07 1840.17 612.316 1831.95 628.456 1821.8C667.61 1797.17 706.35 1771.88 745.214 1746.79C748.044 1744.97 750.523 1742.6 753.166 1740.48C696.519 1748.22 640.109 1749.81 583.257 1745.45C573.253 1758.55 567.292 1773.31 561.905 1788.28C547.855 1827.32 540.387 1867.76 537.273 1909.04C532.564 1971.44 535.136 2033.38 549.771 2094.49C550.546 2097.72 551.714 2100.87 553.255 2105.85C579.898 2074.95 605.423 2045.35 630.853 2015.85ZM975.2 1961.26C977.811 1957.97 980.245 1955.49 982.002 1952.6C1000.04 1922.93 1021.34 1895.69 1043.29 1868.87C1058.75 1849.99 1055.94 1853.8 1051.11 1832.09C1045.5 1806.82 1028.54 1791.94 1005.85 1782.62C988.781 1775.61 970.952 1775.94 953.03 1779.17C937.802 1781.92 925.739 1789.71 915.545 1801.14C910.775 1806.49 908.942 1812.02 909.642 1819.17C910.891 1831.93 911.428 1844.76 912.129 1857.57C912.958 1872.72 913.258 1887.9 914.501 1903.01C915.773 1918.46 918.053 1933.79 924.965 1949.07C943.152 1944.88 958.526 1952.46 975.2 1961.26ZM929.296 1742.83C933.73 1754.01 937.711 1764.04 941.79 1774.31C951.965 1772.64 961.395 1771.09 971.099 1769.5C969.892 1756.16 968.538 1743.41 967.652 1730.63C967.015 1721.44 964.141 1713.46 958.652 1705.9C937.999 1677.46 924.783 1645.73 918.259 1611.21C916.265 1600.65 914.294 1590.1 912.279 1579.36C903.477 1583.59 903.336 1584.05 899.685 1593.67C892.795 1611.83 886.276 1630.16 878.5 1647.93C865.258 1678.21 851.379 1708.21 837.329 1738.12C831.188 1751.19 829.016 1764.62 829.869 1778.9C832.019 1814.9 845.618 1846.74 864.79 1876.61C865.326 1877.45 866.482 1877.89 868.094 1879.04C872.063 1863.95 875.283 1849.26 879.857 1835.01C884.361 1820.97 889.635 1807.11 895.678 1793.66C901.883 1779.86 909.099 1766.47 916.479 1753.23C923.714 1740.26 930.966 1727.21 941.6 1716.38C940.623 1721.03 938.639 1725.12 936.555 1729.15C934.248 1733.61 931.85 1738.03 929.296 1742.83ZM1345.62 1724.98C1379.03 1782.91 1419.34 1834.62 1469.19 1880.69C1479.43 1861.12 1492.51 1845.8 1506.51 1831.28C1520.26 1817.02 1534.47 1803.21 1548.41 1789.14C1550.1 1787.44 1551.4 1785.35 1553.74 1782.33C1480.4 1774.07 1411.76 1754.42 1345.62 1724.98ZM-681.442 2227.08C-690.61 2221.26 -697.255 2216.61 -704.297 2212.68C-711.935 2208.41 -718.193 2202.95 -723.223 2195.75C-739.495 2172.49 -756.013 2149.39 -772.371 2126.18C-775.302 2122.02 -777.897 2117.64 -776.389 2112C-774.307 2110.13 -772.174 2108.21 -770.18 2106.41C-776.832 2092.81 -786.464 2082.76 -797.578 2074.03C-804.45 2068.64 -812.191 2065.01 -821.077 2064.91C-823.399 2064.89 -825.738 2066.41 -828.493 2067.37C-827.377 2070.18 -826.85 2072.05 -825.945 2073.71C-808.828 2105.13 -791.437 2136.4 -774.661 2168C-769.885 2176.99 -763.407 2183.53 -754.895 2188.73C-735.982 2200.28 -717.234 2212.11 -698.475 2223.91C-694.094 2226.67 -689.694 2228.84 -681.442 2227.08ZM-783.167 2162.21C-789.643 2150.02 -796.083 2139.53 -800.922 2128.35C-806.269 2115.99 -816.102 2110.26 -828.018 2107.04C-834.705 2105.23 -841.639 2103.89 -848.536 2103.42C-859.169 2102.69 -868.841 2105.68 -877.232 2113.17C-875.993 2114.52 -875.394 2115.64 -874.465 2116.12C-845.68 2131.14 -816.865 2146.1 -788.035 2161.04C-787.169 2161.48 -786.089 2161.52 -783.167 2162.21ZM928.498 1152.54C929.454 1167.77 932.494 1180.16 944.419 1188.57C949.764 1192.34 954.079 1192.43 958.132 1188.87C962.209 1185.29 963.179 1179.04 959.208 1174.2C951.348 1164.63 942.61 1155.93 928.498 1152.54ZM936.165 1777.52C932.398 1767.75 929.387 1759.95 926.164 1751.59C916.841 1762.08 901.784 1792.21 900.394 1802.38C901.03 1802.8 901.933 1803.73 902.264 1803.56C914.934 1797 920.705 1782.11 936.165 1777.52ZM1788.46 3522.17C1774.1 3522.11 1761.06 3524.28 1746.85 3528.07C1748.87 3532.34 1750.41 3535.61 1751.58 3538.1C1767.43 3540.73 1779.89 3538.01 1788.46 3522.17ZM1042.18 1798.47C1052.23 1810.82 1056.06 1825.28 1059.52 1839.92C1059.82 1841.18 1061.86 1842.03 1063.53 1843.44C1065.15 1832.72 1056.6 1799.25 1050.39 1791.23C1047.85 1793.47 1045.33 1795.68 1042.18 1798.47ZM834.526 1212.61C842.152 1202.06 842.358 1187.42 835.643 1171.64C831.066 1185.56 824.384 1197.92 834.526 1212.61Z" fill="black"/>
</g>
<path d="M703.256 1292.84C717.574 1274.44 734.52 1259.1 755.692 1248.69C738.213 1263.4 720.734 1278.12 703.256 1292.84Z" fill="black"/>
<path d="M980.955 1217.44C1000.07 1204.02 1020.77 1194.4 1043.87 1190.24C1022.9 1199.31 1001.93 1208.38 980.955 1217.44Z" fill="black"/>
<path d="M772.12 1260.23C787.224 1247.12 803.739 1236.18 821.912 1227.8C822.301 1228.39 822.688 1228.98 823.077 1229.58C806.446 1240.21 789.815 1250.84 773.184 1261.48C772.83 1261.06 772.475 1260.64 772.12 1260.23Z" fill="black"/>
<path d="M743.61 1275.06C754.558 1260.18 768.26 1248.58 786.156 1242.43C771.975 1253.31 757.792 1264.18 743.61 1275.06Z" fill="black"/>
<path d="M873.225 1264.92C873.512 1264.49 874.09 1262.58 875.153 1262.25C876.533 1261.83 878.902 1262.11 879.791 1263.07C883.211 1266.74 886.341 1270.72 889.275 1274.8C890.02 1275.84 890.102 1277.87 889.612 1279.09C889.301 1279.86 887.333 1280.39 886.163 1280.31C881.35 1279.95 873.262 1270.86 873.225 1264.92Z" fill="black"/>
<path d="M1078.23 1190.62C1061.41 1196.01 1044.6 1201.4 1027.78 1206.8C1043.36 1197.32 1060.23 1191.79 1078 1189.05C1078.08 1189.57 1078.15 1190.1 1078.23 1190.62Z" fill="black"/>
<path d="M1103.49 1207.59C1121.18 1200.49 1139.57 1196.59 1158.71 1196.16C1140.3 1199.97 1121.89 1203.78 1103.49 1207.59Z" fill="black"/>
<path d="M799.921 1257.28C804.498 1247.79 822.117 1237.31 831.438 1238.19C820.361 1244.9 810.141 1251.09 799.921 1257.28Z" fill="black"/>
<path d="M1083.95 1195.96C1083.88 1195.57 1093.3 1192.86 1104.01 1191.89C1110.76 1191.28 1116.59 1191.5 1120.49 1191.64C1123.8 1191.76 1126.57 1191.97 1128.58 1192.14C1127.15 1192.23 1125.72 1192.32 1124.29 1192.41C1108.79 1193.84 1093.59 1195.22 1085.91 1195.92C1084.96 1196.01 1083.97 1196.09 1083.95 1195.96Z" fill="black"/>
<path d="M1018.19 1124.95C1019.91 1126.07 1021.66 1127.15 1023.33 1128.33C1033.71 1135.63 1040.34 1134.75 1048.43 1124.96C1055.94 1115.88 1055.74 1101.17 1048.01 1093.35C1038.53 1083.76 1029.32 1084.77 1020.69 1096.19C1019.54 1097.72 1017.77 1098.78 1015.65 1100.6C1012.43 1082.7 1024.18 1049.26 1036.34 1036.75C1039.44 1036.37 1041.43 1036.75 1042.22 1035.94C1050.35 1027.62 1061.86 1026.45 1071.68 1021.74C1072.21 1021.49 1073.11 1021.99 1074.25 1022.23C1073.84 1024.02 1073.48 1025.57 1072.93 1027.95C1075.1 1027.38 1077.03 1027.24 1078.59 1026.4C1088.28 1021.15 1097.89 1022.67 1108.07 1025.31C1126.35 1030.06 1141.89 1038.76 1154.13 1053.22C1154.72 1053.92 1155.61 1054.36 1157.61 1054.23C1155.97 1050.54 1154.32 1046.85 1152.68 1043.16C1152.92 1042.9 1153.16 1042.65 1153.41 1042.4C1155.25 1044.93 1157.56 1047.24 1158.85 1050.02C1164.39 1062 1167.07 1074.76 1167.42 1087.88C1167.95 1107.52 1165.17 1126.63 1157.38 1144.89C1153.09 1154.94 1146.4 1162.67 1137.07 1168.2C1132.2 1171.09 1123.95 1170.55 1119.13 1166.4C1121.65 1165.83 1123.51 1165.1 1125.39 1165.04C1134.06 1164.78 1140.68 1160.3 1145.85 1154.09C1147.68 1151.89 1148.04 1147.37 1147.31 1144.35C1145.21 1135.72 1139.38 1129.9 1131.27 1126.27C1127.51 1124.59 1125.29 1126.27 1122.69 1128.86C1117.63 1133.88 1112.42 1138.86 1106.7 1143.09C1099.06 1148.75 1090.16 1149.8 1081.12 1147.08C1077.8 1146.08 1075.99 1146.44 1073.73 1149.15C1068.65 1155.24 1061.82 1157 1057.3 1153.98C1052.97 1151.1 1051.58 1143.77 1054.64 1136.96C1056.17 1133.56 1056.9 1130.86 1053.59 1128.64C1049.17 1131.28 1045.05 1134.88 1040.29 1136.26C1035.81 1137.57 1030.64 1136.54 1025.42 1136.54C1028.85 1148.24 1035.39 1158.81 1049.81 1164.98C1042.63 1167.07 1037.94 1164.99 1034.97 1161.45C1029.93 1155.43 1025.46 1148.79 1021.72 1141.89C1019.12 1137.09 1018.14 1131.41 1016.45 1126.12C1017.03 1125.73 1017.61 1125.34 1018.19 1124.95ZM1135.54 1093.57C1135.65 1093.17 1135.77 1092.77 1135.89 1092.36C1134.78 1091.82 1133.72 1091.13 1132.56 1090.77C1122.97 1087.76 1113.26 1085.06 1103.81 1081.65C1101.64 1080.87 1099.18 1077.9 1098.8 1075.62C1096.5 1061.66 1094.81 1047.59 1092.76 1033.58C1092.48 1031.68 1091.28 1029.92 1090.5 1028.1C1089.96 1028.28 1089.41 1028.47 1088.87 1028.66C1088.72 1029.57 1088.58 1030.49 1088.41 1031.4C1086.02 1043.96 1084.02 1056.62 1080.98 1069.03C1080.15 1072.41 1076.7 1076.03 1073.5 1077.73C1069.53 1079.83 1064.58 1080.17 1060.01 1081.02C1055.15 1081.93 1050.24 1082.53 1044.3 1083.43C1048.33 1088.07 1050.84 1091.88 1056.66 1092.75C1067.16 1094.32 1076.07 1098.4 1077.83 1110.81C1078.91 1118.45 1080.57 1126.01 1082.05 1133.58C1082.55 1136.13 1083.32 1138.62 1084.45 1143.03C1086.47 1140.17 1087.9 1138.94 1088.32 1137.43C1090.88 1128.31 1093.06 1119.08 1095.65 1109.97C1098.7 1099.21 1103.76 1095.38 1114.9 1094.78C1121.78 1094.41 1128.66 1093.98 1135.54 1093.57ZM1078.36 1127.6C1077.55 1125.7 1076.87 1122.19 1074.77 1120.09C1073.9 1119.21 1069.4 1120.65 1067.61 1122.23C1061.44 1127.65 1057.66 1134.74 1056.69 1142.89C1056.44 1145.02 1058.15 1148.56 1059.95 1149.45C1062.06 1150.5 1066 1150.36 1067.83 1148.98C1074.36 1144.09 1077.52 1137.04 1078.36 1127.6ZM1153.45 1140.78C1154.13 1139.13 1154.95 1137.39 1155.59 1135.58C1159.91 1123.51 1160.07 1122.85 1149.29 1115.92C1144.98 1113.15 1139.34 1112.21 1134.17 1111.14C1132.87 1110.87 1130.78 1113.14 1129.54 1114.65C1129.1 1115.19 1129.73 1117.27 1130.49 1118.04C1137.92 1125.55 1145.48 1132.93 1153.45 1140.78ZM1126.5 1052.4C1125.94 1052.3 1125.38 1052.2 1124.82 1052.09C1123.18 1056.24 1121.43 1060.35 1119.92 1064.55C1117.13 1072.32 1114.19 1079.8 1102.33 1077.05C1109.86 1082.98 1139.82 1090.87 1146.17 1088.89C1143.42 1087.77 1141.14 1086.77 1138.82 1085.9C1126.3 1081.17 1124.42 1078.03 1126.1 1064.57C1126.41 1062.07 1126.76 1059.57 1126.88 1057.06C1126.96 1055.52 1126.64 1053.95 1126.5 1052.4ZM1160.82 1118.78C1160.62 1114.71 1161.32 1111.46 1160.16 1109.14C1157.51 1103.85 1141.3 1100.32 1135.64 1103.27C1143.59 1108.16 1151.54 1113.06 1160.82 1118.78ZM1112.59 1098.63C1113.09 1105.02 1113.54 1110.73 1114.13 1118.13C1120.9 1111.88 1120.02 1103.86 1124.58 1097.09C1119.82 1097.7 1116.62 1098.11 1112.59 1098.63Z" fill="black"/>
<path d="M730.879 1186.23C728.63 1194.27 723.653 1199.4 713.686 1199.92C723.205 1207.82 732.74 1212.11 744.078 1212.07C744.26 1212.54 744.441 1213.01 744.623 1213.48C742.107 1214.65 739.418 1217.08 737.102 1216.77C724.849 1215.11 715.354 1208.07 706.765 1199.67C706.281 1199.19 706.24 1198.27 705.675 1196.63C708.107 1196.2 710.249 1195.41 712.339 1195.52C723.134 1196.13 730.2 1187.67 727.212 1177.16C724.484 1167.56 717.631 1161.71 708.469 1158.71C701.862 1156.56 694.958 1163.03 694.772 1171.51C694.667 1176.3 695.468 1181.11 696.017 1187.81C693.037 1186.14 690.634 1185.52 689.366 1183.98C675.749 1167.36 667.937 1148.08 667.232 1126.79C666.4 1101.65 681.393 1086.38 705.717 1085.67C724.662 1085.13 743.718 1087.37 762.676 1088.95C769.284 1089.5 775.762 1091.72 782.266 1093.31C783.102 1093.51 783.846 1094.43 784.459 1095.16C805.689 1120.51 815.976 1148.86 807.687 1182.02C805.801 1189.56 802.287 1196.38 793.422 1197.99C792.385 1198.18 791.261 1197.89 789.751 1197.26C796.091 1194.25 800.291 1189.76 802.224 1183.1C804.901 1173.88 796.522 1160.86 786.932 1160.47C785.17 1160.39 782.231 1162.81 781.639 1164.66C777.504 1177.56 769.949 1186.89 756.595 1190.92C755.715 1191.19 755.017 1192.43 754.49 1193.36C754.134 1193.99 754.281 1194.89 754.11 1195.64C753.06 1200.3 752.057 1205.16 745.929 1205.36C741.263 1205.52 738.152 1201.44 737.291 1194.63C736.54 1188.7 736.54 1188.7 730.879 1186.23ZM769.744 1118.81C769.437 1118.32 769.13 1117.83 768.823 1117.34C767.891 1117.43 766.957 1117.5 766.026 1117.6C757.94 1118.45 749.872 1119.6 741.764 1120.05C735.189 1120.43 729.347 1117.81 725.55 1112.4C721.225 1106.24 717.634 1099.57 713.684 1093.15C712.494 1091.21 711.173 1089.35 709.911 1087.46C709.15 1087.72 708.389 1087.98 707.629 1088.23C707.918 1091.22 707.814 1094.32 708.579 1097.19C710.173 1103.16 712.262 1109 714.084 1114.91C717.034 1124.49 714.178 1132.06 706.053 1137.76C701.121 1141.22 696.144 1144.61 691.27 1148.15C689.535 1149.41 688.043 1151 686.441 1152.44C686.714 1152.93 686.987 1153.42 687.261 1153.9C691.468 1152.86 695.703 1151.92 699.876 1150.76C715.028 1146.54 728.15 1148.07 735.88 1163.86C738.577 1169.37 743.074 1170.5 748.839 1170.72C747.03 1163.68 745.625 1156.83 743.475 1150.22C740.991 1142.59 743.347 1136.76 749.417 1132.38C754.121 1128.99 759.379 1126.37 764.287 1123.25C766.25 1122 767.933 1120.3 769.744 1118.81ZM783.868 1126.77C769.279 1122.55 745.944 1135.57 746.115 1146.26C747.073 1146.1 748.023 1146.05 748.901 1145.77C758.323 1142.82 758.975 1143.12 764.153 1151.78C765.968 1154.81 768.153 1157.62 770.169 1160.54C770.802 1160.29 771.434 1160.03 772.067 1159.78C771.012 1154.04 770.127 1148.26 768.842 1142.58C768.029 1138.98 769.091 1136.77 772.187 1134.87C776.217 1132.39 779.986 1129.49 783.868 1126.77ZM779.484 1142.59C778.905 1143.35 778.327 1144.12 777.748 1144.89C779.028 1147.86 779.497 1152.29 781.737 1153.54C789.237 1157.7 797.37 1160.73 805.905 1164.48C805.669 1160.28 805.826 1156.21 805.056 1152.33C804.678 1150.42 802.876 1147.78 801.21 1147.32C794.072 1145.37 786.743 1144.1 779.484 1142.59ZM743.986 1173.64C740.134 1181.95 739.047 1189.88 742.162 1198.07C743.275 1200.99 745.483 1202.82 748.158 1199.6C752.956 1193.82 750.922 1179.46 743.986 1173.64ZM802.163 1142.11C801.331 1132.92 799.282 1131.47 788.023 1132.22C780.41 1132.73 778.113 1134.43 778.263 1139.35C786.11 1140.26 793.954 1141.16 802.163 1142.11ZM755.539 1114.9C753.166 1111.47 750.932 1108.24 748.254 1104.37C745.77 1113.73 748.031 1116.82 755.539 1114.9Z" fill="black"/>
<path d="M1289.35 1082.8C1279.3 1087.11 1270.16 1091.28 1260.82 1094.94C1255.05 1097.2 1249.05 1099.88 1243.02 1100.24C1234.68 1100.74 1229.73 1104.61 1224.34 1110.57C1216.06 1119.75 1206.19 1127.52 1196.88 1135.75C1195.79 1136.71 1193.94 1136.82 1190.97 1137.81C1192.33 1135.02 1192.85 1133.65 1193.62 1132.44C1195.49 1129.49 1197.61 1126.68 1199.4 1123.68C1206.5 1111.73 1206.39 1109.18 1198.05 1098.1C1169.39 1060.05 1130.01 1041.62 1083.63 1038.08C1050.98 1035.59 1021.72 1045.16 998.447 1069.57C996.66 1071.44 994.349 1072.81 991.261 1075.21C990.813 1071.92 990.44 1069.91 990.295 1067.89C990.159 1066 990.266 1064.09 990.266 1061.12C986.644 1063.73 983.639 1065.89 979.814 1068.65C980.569 1065.66 981.068 1063.68 981.667 1061.31C976.879 1061.31 972.466 1061.31 968.052 1061.31C979.666 1056.37 991.928 1052.54 995.105 1037.29C984.775 1035.16 975.059 1030.44 967.471 1019.75C973.298 1021.9 977.852 1023.64 982.445 1025.26C984.822 1026.1 987.286 1026.69 989.681 1027.49C997.408 1030.05 1003.11 1029.08 1009.4 1022.27C1023.08 1007.48 1041.89 1001.87 1061.25 999.497C1090.92 995.854 1118.09 1005.33 1144.29 1017.89C1152.14 1021.65 1159.36 1026.77 1166.73 1031.49C1174 1036.14 1174.1 1036.23 1180.04 1028.71C1179.7 1028.3 1179.43 1027.72 1178.97 1027.45C1150.08 1009.92 1120.18 994.797 1086.53 988.509C1062.72 984.057 1040.58 988.687 1019.74 1000.56C1013.92 1003.87 1008.22 1007.38 1002.18 1010.27C1014.71 998.872 1029.15 990.983 1045.55 986.729C1065.99 981.429 1086.03 983.834 1105.91 989.759C1130.3 997.029 1152.99 1008 1174.71 1021.12C1177.33 1022.71 1179.92 1024.35 1182.9 1026.21C1185.51 1022.55 1187.84 1019.29 1190.93 1014.97C1190.3 1018.82 1190.47 1021.82 1189.3 1024.13C1186.86 1028.95 1189.46 1030.93 1192.95 1033.26C1197.72 1036.44 1202.17 1040.08 1206.09 1044.5C1199.49 1040.32 1192.88 1036.14 1186 1031.78C1183.75 1034.75 1181.8 1037.34 1179.55 1040.32C1185.7 1045.25 1191.22 1050.54 1197.61 1054.39C1200.48 1056.12 1205.19 1055.62 1208.88 1055.01C1221.68 1052.89 1234.39 1050.28 1248.11 1047.67C1239.47 1057.51 1228.61 1062.68 1217.08 1067.85C1221.86 1073.57 1227.88 1076.77 1234.55 1077.62C1250.54 1079.65 1266.62 1080.94 1282.67 1082.49C1284.72 1082.69 1286.78 1082.69 1289.35 1082.8Z" fill="black"/>
<path d="M671.643 1202.63C653.002 1200.2 637.561 1192.26 622.95 1182.38C620.065 1180.43 617.636 1177.77 614.668 1175.98C612.874 1174.9 610.462 1174.8 608.302 1174.4C598.821 1172.64 589.326 1170.96 579.852 1169.17C578.962 1169 578.152 1168.28 577.373 1167.73C577.131 1167.56 577.117 1167.07 577.04 1166.85C583.664 1166.37 590.354 1166.28 596.918 1165.33C607.231 1163.83 609.357 1161.12 611.397 1151.13C612.709 1144.71 614.936 1138.48 616.75 1132.17C607.421 1130.57 607.43 1130.57 605.859 1139.89C605.221 1143.68 604.537 1147.46 603.009 1151.19C603.009 1144.8 603.009 1138.41 603.009 1132.35C593.741 1129.53 584.832 1126.82 575.923 1124.12C576.061 1123.79 576.199 1123.46 576.337 1123.13C584.787 1122.58 593.233 1121.95 601.689 1121.54C604.973 1121.38 606.753 1120.13 608.172 1116.97C611.175 1110.26 614.852 1103.86 618.449 1096.95C615.225 1093.86 611.768 1090.54 608.219 1087.14C609.021 1086.63 609.448 1086.25 609.537 1086.31C618.832 1093.32 625.298 1090.09 633.481 1082.65C654.036 1063.97 679.612 1056.79 706.952 1055.58C725.146 1054.78 743.04 1057.01 760.625 1061.8C763.12 1062.48 765.779 1062.55 769.204 1063.02C765.881 1066.59 762.949 1069.75 759.554 1073.4C766.493 1075.93 772.753 1078.04 779.88 1075.24C786.178 1072.76 792.774 1071.04 799.905 1069.95C794.894 1073.52 789.883 1077.1 784.271 1081.1C789.704 1083.54 794.888 1085.88 800.942 1088.6C799.022 1089.18 798.037 1089.47 796.306 1090C802.163 1096.94 807.82 1103.64 813.476 1110.34C813.329 1110.59 813.183 1110.83 813.037 1111.08C808.148 1108.64 803.327 1106.05 798.357 1103.79C761.662 1087.12 723.762 1086.71 686.181 1098.69C660.178 1106.97 648.56 1128.94 642.433 1154.25C639.011 1168.39 643.491 1179.4 654.317 1188.38C659.825 1192.95 665.365 1197.47 671.643 1202.63ZM628.578 1092.21C628.792 1093.14 629.006 1094.07 629.219 1095.01C633.773 1094.11 639.81 1094.75 642.618 1092.04C653.614 1081.44 666.832 1076.05 681.206 1072.68C701.963 1067.81 722.941 1068.13 743.798 1071.42C752.107 1072.73 757.671 1070.04 763.531 1063.49C714.024 1056.05 667.15 1055.17 628.578 1092.21ZM611.058 1119.55C622.739 1120.37 625.96 1117.91 632.018 1104.23C629.023 1102.76 626.011 1101.27 622.224 1099.4C618.428 1106.25 614.863 1112.68 611.058 1119.55Z" fill="black"/>
<path d="M450.173 698.524C439.407 693.777 431.92 685.358 425.075 676.431C406.557 652.284 393.714 625.038 382.688 596.887C360.81 541.025 346.575 483.188 339.167 423.713C336.815 404.83 335.587 385.778 334.632 366.764C334.218 358.518 335.402 350.118 336.558 341.885C338.638 327.069 341.263 312.33 343.626 297.553C346.244 281.178 352.936 278.244 365.588 289.024C381.868 302.897 397.226 317.847 413.379 331.875C449.59 363.325 487.46 392.469 530.439 414.36C562.71 430.797 596.743 440.879 632.932 443.548C644.751 444.419 656.72 444.746 668.303 446.972C685.345 450.249 702.119 454.937 718.972 459.168C725.755 460.871 732.512 462.751 739.121 465.017C740.631 465.535 741.478 467.983 742.631 469.543C740.8 470.115 738.696 471.589 737.178 471.128C698.135 459.285 658.066 453.229 617.633 448.553C578.451 444.022 542.367 429.835 508.382 410.048C464.582 384.545 425.628 352.718 388.448 318.548C380.141 310.913 371.847 303.26 363.376 295.809C360.52 293.297 357.136 291.385 352.714 288.308C350.674 295.515 348.415 301.481 347.332 307.653C341.345 341.746 340.327 375.909 344.318 410.428C350.483 463.747 361.492 515.907 378.818 566.683C392.935 608.056 409.663 648.213 436.923 683.047C441.104 688.39 445.744 693.374 450.173 698.524Z" fill="black"/>
<path d="M1390.8 527.165C1388.11 519.312 1385.2 511.525 1382.76 503.593C1375.88 481.23 1365.23 461.072 1350.97 442.357C1325.98 409.566 1301.15 376.571 1277.97 342.495C1251.52 303.619 1230.44 261.663 1214.89 217.199C1210.16 203.692 1207.52 189.426 1204.4 175.402C1202.83 168.36 1202.77 167.937 1196.19 171.605C1175.1 183.365 1156.97 198.997 1140.03 215.951C1109.04 246.975 1083.29 282.093 1061.7 320.175C1046.84 346.382 1032.28 372.791 1018.69 399.669C1012.87 411.182 1009.94 424.146 1005.49 436.377C1004.8 438.281 1003.01 439.79 1001.73 441.481C1000.95 439.334 999.24 437.051 999.531 435.06C1002.23 416.568 1008.81 399.235 1017.4 382.842C1047.8 324.854 1079.93 267.952 1125.21 219.779C1145.46 198.231 1168.1 179.696 1194.04 165.34C1205.77 158.846 1210.47 160.453 1211.51 173.616C1214.52 211.985 1231.62 245.224 1248.36 278.597C1274.07 329.827 1307.88 375.723 1343.09 420.642C1358.13 439.835 1372.43 459.452 1381.47 482.352C1387.13 496.685 1391.27 511.387 1390.8 527.165Z" fill="black"/>
<path d="M1116.5 449.038C1108.73 444.156 1101.07 443.86 1093.22 444.164C1091.33 444.236 1089.41 443.332 1087.51 442.876C1088.76 441.332 1089.79 439.524 1091.3 438.292C1095.81 434.6 1100.57 431.212 1105.12 427.562C1116.1 418.752 1128.62 414.054 1142.64 413.239C1144.3 413.143 1145.95 412.802 1149.59 412.301C1144.93 407.762 1141.66 404.079 1137.88 401.03C1133.81 397.745 1129.19 395.156 1124.97 392.042C1123.72 391.121 1123.03 389.451 1122.08 388.123C1123.74 387.54 1125.41 386.418 1127.05 386.456C1149.6 386.986 1171.7 389.679 1193.08 402.041C1192.52 395.96 1192.4 391.072 1191.57 386.308C1181.45 327.861 1176.61 269.032 1178.5 209.702C1178.56 207.844 1178.78 205.993 1178.92 204.138C1179.5 204.078 1180.07 204.019 1180.65 203.959C1181.41 210.073 1182.41 216.168 1182.91 222.304C1186.08 261.46 1188.02 300.753 1192.48 339.76C1201.31 416.973 1221.69 491.227 1253.55 562.223C1255.11 565.71 1256.67 569.199 1257.29 573.405C1254.64 571.168 1251.71 569.179 1249.41 566.627C1246.91 563.85 1244.63 560.732 1242.91 557.425C1241.23 554.213 1240.37 550.573 1238.94 546.515C1237.72 547.867 1236.77 548.568 1236.28 549.509C1226.89 567.461 1209.58 575.439 1192.79 584.021C1188.13 586.405 1183.03 587.959 1178.43 590.444C1174.51 592.564 1171.77 591.888 1168.72 588.885C1164.62 584.852 1160.12 581.234 1155.25 576.973C1155.09 578.9 1155.04 580.022 1154.89 581.131C1154.36 585.169 1152.58 586.355 1149.09 583.638C1132.49 570.722 1122.74 554.088 1122.51 532.769C1122.41 523.511 1123.58 514.24 1124.22 504.296C1113.96 508.039 1104.31 512.181 1096.8 520.276C1095.46 521.725 1093.46 522.563 1091.76 523.683C1090.56 521.838 1088.71 520.139 1088.25 518.125C1082.24 491.658 1093.33 471.205 1111.42 453.309C1112.76 451.982 1114.31 450.864 1116.5 449.038ZM1151.98 566.823C1152.88 566.483 1153.79 566.142 1154.69 565.803C1155.46 567.149 1155.97 568.749 1157.03 569.797C1161.45 574.16 1165.77 578.679 1170.67 582.446C1172.48 583.844 1176.05 584.243 1178.33 583.525C1184.79 581.482 1191.19 578.999 1197.28 576.021C1212.15 568.758 1225.85 559.866 1232.88 544.014C1234.28 540.872 1234.25 536.433 1233.29 533.047C1231.27 525.968 1228.07 519.235 1225.56 512.285C1214.01 480.266 1203.9 447.841 1197.58 414.304C1197.03 411.403 1194.33 408.063 1191.7 406.541C1177.55 398.37 1162.31 393.305 1145.9 392.131C1141.97 391.85 1138.04 391.663 1134.11 391.432C1143.08 399.485 1152.93 405.975 1155.89 418.734C1142.77 412.594 1109.55 424.821 1099.97 438.651C1105 440.224 1110.39 441.257 1115.16 443.567C1121.2 446.488 1121.45 450.555 1116.31 454.832C1106.48 463.008 1099.77 473.36 1094.89 484.978C1090.56 495.261 1089.79 505.828 1092.75 517.271C1094.05 516.294 1094.87 515.829 1095.5 515.182C1104.04 506.444 1114.52 501.166 1126.2 498.089C1127.58 497.725 1129.16 497.755 1130.55 498.065C1130.88 498.14 1130.99 500.101 1130.87 501.157C1129.67 511.704 1127.43 522.236 1127.35 532.786C1127.23 549.27 1133.64 563.465 1146.1 574.618C1147.17 575.574 1148.45 576.289 1149.7 577.161C1150.54 573.357 1151.26 570.09 1151.98 566.823Z" fill="black"/>
<path d="M601.973 587.172C597.899 586.504 593.825 585.836 589.452 585.119C589.264 585.88 588.882 586.588 588.958 587.243C590.691 602.266 584.885 614.953 575.519 625.8C563.834 639.333 551.31 652.157 538.859 665.006C532.517 671.55 529.275 670.687 525.951 662.262C524.618 658.882 523.718 655.331 522.375 651.077C510.129 661.401 498.331 671.673 488.734 684.203C484.043 690.327 479.516 690.507 477.027 683.258C473.39 672.665 470.481 661.676 468.72 650.623C466.727 638.106 466.345 625.332 465.228 612.273C459.175 617.252 452.671 622.601 445.237 628.716C438.944 613.408 435.4 598.539 440.698 582.698C445.803 567.435 456.206 555.564 467.425 542.847C454.218 540.553 442.026 538.436 429.834 536.319C429.805 535.384 429.776 534.449 429.747 533.514C448.137 525.582 466.063 516.087 487.507 518.252C487.464 517.314 487.643 516.642 487.388 516.267C461.405 478.221 435.304 440.254 409.41 402.147C395.637 381.878 382.398 361.245 368.505 341.06C365.385 336.527 364.238 329.043 355.983 329.617C355.663 329.639 354.223 325.77 354.886 324.649C355.718 323.244 358.77 321.64 359.833 322.174C362.832 323.68 365.984 325.761 367.864 328.459C375.753 339.785 383.271 351.372 390.795 362.948C416.022 401.757 440.785 440.876 466.505 479.354C490.659 515.489 521.131 545.09 560.414 564.806C572.739 570.991 585.035 577.233 597.341 583.453C599.003 584.293 600.652 585.156 602.307 586.007C602.195 586.396 602.084 586.784 601.973 587.172ZM473.928 600.286C469.706 628.642 474.807 654.592 482.661 681.218C484.495 679.481 485.43 678.564 486.399 677.683C497.905 667.231 509.375 656.74 520.98 646.398C522.282 645.238 524.351 644.938 526.064 644.24C526.685 645.954 527.412 647.638 527.896 649.391C528.41 651.254 528.534 653.23 529.108 655.07C531.19 661.753 533.055 662.746 538.299 658.015C549.514 647.896 560.834 637.732 570.791 626.425C580.599 615.286 585.1 601.537 583.108 586.393C582.852 584.451 580.896 581.885 579.089 581.12C548.091 568.008 520.311 550.158 496.6 526.127C495.208 524.716 493.113 523.315 491.245 523.167C477.143 522.046 463.249 522.926 450.061 528.748C446.857 530.162 443.652 531.572 440.448 532.984C447.438 534.622 454.027 534.833 460.467 535.923C464.777 536.652 469.075 538.232 473.002 540.188C475.648 541.506 477.118 544.973 473.682 546.671C463.051 551.927 457.576 561.668 451.852 571.025C442.22 586.771 443.734 603.861 446.582 621.587C451.351 617.599 455.408 614.024 459.663 610.703C463.886 607.408 468.31 604.369 473.928 600.286Z" fill="black"/>
<path d="M871.598 1343.2C874.91 1342.43 878.386 1342.06 881.501 1340.79C892.466 1336.35 902.39 1330.29 909.106 1320.2C911.499 1316.6 913.493 1316.58 917.685 1317.74C930.162 1321.2 942.884 1323.95 955.653 1326.15C974.289 1329.36 992.404 1326.17 1010.14 1320.18C1016.54 1318.02 1020.56 1321.05 1019.31 1327.91C1018.1 1334.53 1016.33 1341.3 1013.4 1347.31C1003.83 1366.91 990.747 1384.02 974.188 1398.27C965.056 1406.14 954.524 1411.31 942.488 1413.43C930.148 1415.61 920.224 1412.16 912.881 1401.9C910.622 1398.74 908.504 1395.47 906.473 1392.17C904.847 1389.52 903.507 1386.7 901.943 1384.01C893.522 1369.53 888.589 1352.38 871.242 1344.74C871.361 1344.23 871.48 1343.72 871.598 1343.2ZM1011.4 1325.31C1005.41 1327.18 1000.21 1328.72 995.085 1330.46C993.931 1330.86 992.817 1331.81 992.038 1332.79C988.584 1337.13 985.407 1341.7 981.844 1345.94C978.552 1349.87 974.792 1350.07 971.661 1345.76C968.738 1341.73 964.981 1340.8 960.4 1341.6C949.485 1343.49 938.522 1345.14 927.673 1347.35C924.95 1347.91 921.824 1349.65 920.191 1351.83C913.538 1360.71 910.905 1371.15 911.259 1382.05C911.82 1399.34 926.882 1410.96 943.671 1406.85C950.343 1405.21 957.104 1402.47 962.828 1398.71C980.598 1387.04 993.506 1370.68 1003.66 1352.29C1008.11 1344.24 1011.82 1335.52 1011.4 1325.31ZM976.502 1344.8C980.477 1340.51 983.651 1337.08 987.997 1332.38C964.489 1335.11 943.44 1331.77 922.757 1326.28C916.822 1324.7 913.088 1324.4 909.203 1329.94C906.635 1333.61 902.116 1335.89 898.502 1338.83C897.4 1339.73 896.4 1340.75 894.053 1342.91C899.572 1343.78 903.602 1345.28 907.424 1344.87C923.614 1343.11 939.846 1341.36 955.85 1338.43C963.89 1336.96 970.819 1335.81 976.502 1344.8ZM885.38 1345.85C892.674 1356.58 899.867 1367.17 907.041 1377.73C907.997 1372.84 908.552 1367.79 910.032 1363.04C911.558 1358.14 913.987 1353.53 915.978 1348.89C908.724 1347.89 901.067 1347.94 894.299 1345.51C890.104 1344.01 887.662 1344.48 885.38 1345.85Z" fill="black"/>
<path d="M1175.23 950.909C1162.92 947.67 1151.46 944.035 1139.73 941.679C1103.63 934.428 1067.31 929.183 1030.28 931.078C1009.81 932.125 990.248 936.424 971.794 945.512C968.32 947.223 964.669 948.708 960.941 949.7C959.454 950.096 957.019 949.345 955.994 948.223C955.297 947.459 955.732 944.662 956.633 943.598C963.432 935.572 970.49 927.946 980.662 923.786C998.107 916.652 1016.24 913.879 1034.9 914.622C1083.24 916.547 1128.5 930.908 1172.7 949.367C1173.38 949.653 1173.98 950.142 1175.23 950.909ZM967.369 939.738C981.153 935.544 994.902 929.955 1009.19 927.41C1023.41 924.878 1038.19 924.676 1052.71 924.793C1067.14 924.909 1081.57 926.694 1097.53 927.859C1069.18 919.86 1032.35 917.476 1006.57 922.334C992.046 925.071 977.8 928.988 967.369 939.738Z" fill="black"/>
<path d="M576.836 1049.7C577.775 1047.87 578.694 1046.03 579.654 1044.21C597.376 1010.66 625.078 992.692 662.994 989.707C691.007 987.502 718.973 986.211 746.714 991.418C756.137 993.186 765.144 997.225 774.284 1000.39C776.073 1001.01 777.95 1002.1 779.151 1003.51C780.518 1005.12 781.173 1007.33 782.138 1009.28C780.249 1009.99 778.293 1011.44 776.484 1011.27C768.941 1010.59 761.397 1009.68 753.936 1008.38C722.514 1002.89 690.739 1003.31 659.069 1003.3C643.685 1003.29 628.797 1008.01 614.761 1014.75C605.215 1019.33 597.83 1026.34 591.44 1034.61C587.201 1040.1 582.745 1045.42 578.385 1050.82C577.869 1050.44 577.352 1050.07 576.836 1049.7ZM776.717 1007.63C759.924 989.423 658.885 985.363 634.962 1001.93C682.984 996.368 729.531 999.179 776.717 1007.63Z" fill="black"/>
<path d="M1143.06 1172.2C1106.72 1170.52 1070.38 1168.84 1033.75 1167.15C1045.31 1158.57 1122.33 1161.67 1143.06 1172.2Z" fill="black"/>
<path d="M800.239 1195.79C774.666 1205.52 749.071 1215.26 723.593 1224.95C728.502 1212.59 781.308 1192.53 800.239 1195.79Z" fill="black"/>
<path d="M969.36 1436.43C959.799 1442.61 953.759 1443.6 947.326 1439.65C954.171 1438.65 961.016 1437.65 969.36 1436.43Z" fill="black"/>
</svg>
