<svg width="2000" height="2000" viewBox="0 0 2000 2000" fill="none" xmlns="http://www.w3.org/2000/svg">
<g clip-path="url(#clip0_157_109)">
<path d="M953.993 63.2105L953.927 66.1615C936.586 73.564 920.22 89.5611 913.337 107.25C923.869 99.2228 931.719 89.4194 944.785 84.7595C978.493 69.7794 1011.12 79.9996 1045.11 87.227C1076.35 93.6959 1106.02 108.468 1138.38 108.534C1137.96 116.495 1130.8 122.964 1123.15 124.181L1122.32 125.99C1149.5 144.938 1172.89 173.648 1184.59 204.942C1186.05 208.527 1186.85 212.103 1186.96 215.687C1178.83 217.846 1177.61 199.699 1170.77 196.222C1173.38 205.501 1179.42 214.512 1184.46 222.606C1195.96 248.54 1212.96 272.282 1211.7 302.909L1208.78 302.492C1201.28 284.761 1192.1 264.596 1190.13 245.481L1187.59 245.623C1191.86 267.28 1197.8 287.862 1198.39 310.253C1198.49 327.425 1207.92 342.997 1211.25 358.503C1200.93 356.068 1195.19 336.704 1193.98 327.317C1194.12 317.722 1188.14 310.245 1190.23 300.966L1187.83 300.933C1189.81 334.97 1199.19 367.331 1204.43 400.742C1205.75 409.712 1204.88 419.065 1205.23 428.101L1207.28 426.226C1208.12 411.904 1208.95 396.399 1205.06 382.461C1203.39 374.708 1200.47 367.272 1201.23 359.52C1209.58 361.12 1214.09 377.426 1221.22 381.736C1217.29 354.068 1200.68 327.884 1201.34 300.425C1206.07 301.291 1206.1 307.102 1207.73 310.678C1210.79 319.198 1211.66 328.026 1211.91 337.029L1214.58 336.712C1221.6 305.776 1212.39 270.764 1198.43 242.988C1194.57 231.134 1194.57 218.413 1190.12 206.626C1180.08 175.649 1158.18 148.256 1132.71 128.408C1134.03 120.622 1143.07 113.769 1144.77 105.216C1134.97 105.183 1125.73 106.192 1116.14 103.441C1085.21 95.6549 1055.29 84.7762 1024.47 76.7401C1001.57 70.8965 976.026 68.5707 953.227 76.0816C950.444 76.9152 947.594 77.3653 944.785 77.3987L944.994 74.4477C961.293 63.7774 979.084 59.0091 998.575 62.5936C997.467 59.0091 991.517 58.9424 988.534 58.0421C966.226 55.4662 941.061 57.3502 920.836 67.8454C908.187 74.7644 898.037 89.261 895.537 103.408L897.795 102.882C905.195 79.7661 930.878 64.7777 953.985 63.2189L953.993 63.2105Z" fill="#191818"/>
<path d="M1481.13 1302.36C1464.35 1260.08 1441.58 1219.59 1419.17 1180.13C1409.93 1163.27 1398.88 1145.92 1391.16 1128.12C1377.12 1093.46 1365.38 1058.91 1353.18 1023.52C1345.5 1002.2 1336.54 981.623 1323.3 963.1C1314.19 947.836 1301.47 935.499 1298.38 918.426C1290.97 885.44 1282.77 852.237 1271.27 820.426C1262.17 799.294 1249.72 779.479 1238.78 759.281C1224.98 726.736 1222.42 693.992 1212.44 660.239C1208.41 642.191 1181.65 633.121 1182.17 613.406C1181.65 603.644 1173.97 596.725 1179.74 587.614C1185.64 579.62 1192.35 572.284 1197.6 563.764C1201.43 557.787 1203.48 550.768 1200.21 544.024C1193.01 529.561 1184.22 515.865 1176.54 501.643C1173.38 496.049 1169.84 489.514 1164.14 486.138C1154.27 479.986 1142.87 479.535 1132.45 476.126L1131.23 473.483C1135.15 468.448 1139.81 461.529 1145.85 459.062C1155.28 460.137 1163.06 467.857 1172.58 469.732C1163.72 455.827 1151.84 442.615 1163.61 425.717L1166.33 425.334C1167.29 436.046 1168.09 454.369 1176.34 462.155C1174.21 439.63 1175.19 415.989 1180.12 393.873L1183.04 393.948C1189.33 410.112 1197.57 427.218 1198.61 444.732C1203.16 445.015 1204.66 436.354 1202.98 433.228C1197.74 425.267 1197.67 416.197 1194.13 407.569C1186.2 387.796 1178.49 367.873 1169.69 348.474C1163.89 336.137 1167.44 319.973 1165.77 306.343C1165.59 291.847 1158.09 276.825 1158.92 262.787L1156.45 262.745C1156.84 270.606 1158.61 278.009 1160.42 285.62C1160.31 293.997 1161.84 301.717 1163.23 309.919C1163.51 325.041 1163.34 340.205 1163.34 355.327C1159.86 376.525 1155.1 397.182 1146.41 416.856C1152.56 412.513 1153.81 404.618 1156.59 397.983C1162.26 384.77 1163.16 369.923 1166.46 355.81C1171.64 354.001 1171.57 366.272 1172.69 369.54C1170.43 389.772 1167.02 411.504 1157.92 429.927C1146.27 451.518 1125.77 468.824 1113.54 489.647L1110.8 490.623C1107.15 471.574 1122.75 469.207 1130.78 456.378C1123.16 458.053 1117.81 466.114 1111.84 470.949C1106.28 476.201 1098.56 480.161 1094.39 486.63C1097.48 485.721 1100.61 484.996 1103.74 484.404C1105.61 487.388 1106.52 490.764 1106.41 494.516C1098.95 496.5 1091.33 497.091 1083.66 496.225C1076.01 508.737 1068.12 519.649 1068.5 534.988C1060.41 530.253 1055.16 517.465 1054.08 508.495C1059.36 499.034 1073.61 497.191 1080.91 488.605C1093.66 477.585 1097.31 461.113 1107.7 449.008L1110.69 449.6C1111.04 452.593 1111.28 455.586 1111.39 458.603L1114.1 458.778C1111 442.898 1121.99 434.479 1124.45 419.465L1122.33 419.807C1116.39 437.888 1096.44 456.694 1076.56 456.103C1075.04 451.901 1081.29 449.05 1083.62 446.124C1091.61 439.414 1094.77 429.652 1101.34 422.108C1109.34 416.856 1118.58 415.639 1125.04 407.711C1131.12 400.067 1136.65 390.955 1138.35 381.227L1136.2 381.535C1129.6 401.417 1114.37 411.887 1096.51 420.924C1089.6 433.578 1082.57 445.224 1070.27 453.568C1066.28 456.378 1062.01 457.561 1059.54 462.013C1070.9 462.955 1082.68 458.537 1093.35 459.579C1095.01 463.855 1090.85 468.724 1088.94 472.408C1079.48 487.288 1065.51 495.558 1049.91 502.793C1031.04 511.271 1011.86 522.95 991.808 527.994C976.276 527.685 960.184 518.64 945.485 513.705C929.635 506.161 910.353 500.743 897.003 489.197C891.728 482.737 883.245 474.842 882.137 466.356C889.187 464.172 897.628 465.314 904.961 465.422C897.178 456.836 884.079 453.152 876.987 443.065C871.604 434.829 864.446 429.16 865.521 418.556C860.938 412.479 855.721 407.853 853.363 400.309C852.113 395.582 844.738 394.99 842.763 390.572C838.622 383.103 834.314 375.9 831.847 367.664L829.797 367.314C832.822 382.894 840.639 395.232 849.888 407.744C861.213 422.624 864.896 438.688 879.596 450.892C882.204 453.843 888.462 455.544 888.179 459.862C880.154 462.538 869.204 458.262 861.454 455.411C832.547 445.257 812.49 417.548 807.765 387.796C798.665 398.116 785.315 408.72 771.316 410.879C771.491 406.361 777.116 402.809 779.549 399.158C791.19 383.861 800.815 364.713 801.307 345.173C806.373 330.885 800.64 316.53 806.79 302.242C806.548 292.055 810.34 283.294 811.731 273.457L809.223 273.282C808.39 284.336 804.573 295.706 803.073 306.793C802.831 311.837 802.623 316.53 800.573 321.223C800.048 325.633 804.365 328.801 802.482 333.836C796.99 348.858 794.565 367.772 786.949 381.811L784.382 382.436C784.065 373.541 786.257 365.097 787.124 356.335C782.816 356.752 778.649 358.103 774.341 358.661L774.166 355.843C780.832 348.749 790.807 341.422 794.148 332.002C786.915 336.52 782.191 344.481 775.449 349.8C768.183 356.577 756.058 363.421 746.192 358.903L746.158 355.843C765.266 338.988 777.816 314.93 783.474 290.388C772.249 301.65 758.591 307.385 742.542 306.793C737.917 307.11 734.967 305.818 733.676 302.967C736.559 299.107 742.717 298.799 747.058 297.023C758.141 292.572 770.616 285.553 776.841 274.949C782.432 266.505 783.932 255.134 786.465 245.298C775.032 248.424 764.708 248.424 753.767 243.555L752.933 240.954C757.758 236.328 763.949 233.302 768.916 228.784C786.465 213.662 796.857 191.204 809.89 172.331C822.289 154.492 837.197 135.969 855.413 123.831C857.53 122.722 858.813 121.189 859.305 119.346C847.313 119.38 843.938 129.775 833.722 132.559C839.322 111.835 867.854 102.107 887.204 104.433L887.07 102.032C873.621 99.6063 860.863 99.4646 848.98 107.109C836.472 114.345 830.039 126.057 825.764 139.445C819.548 151.09 809.298 160.402 802.448 171.806C787.399 195.372 778.649 218.563 754.358 234.869C746.917 240.496 739.825 239.354 732.251 234.969C733.926 238.97 735.417 241.296 739.409 243.347C749 248.115 759.358 253.675 770.274 252.908C773.749 252.667 777.016 253.083 780.074 254.159C778.924 270.848 767.666 282.427 753.383 289.621C741.775 296.573 729.334 298.274 715.993 297.582C715.051 303.251 721.934 303.667 725.509 306.026C740.8 313.087 754.733 309.261 770.066 307.177C772.566 311.003 768.391 316.872 766.758 320.523C758.666 334.711 751.3 348.266 738.409 358.836C734.092 361.445 727.809 359.945 722.909 360.153C722.384 366.347 726.451 364.846 730.826 366.655C741.25 369.298 752.475 369.331 763.15 368.364C768.849 367.948 774.824 364.363 780.416 365.613C782.082 382.302 774.507 401.492 761.516 412.513C759.216 415.155 754.458 417.381 754.108 421.024C766.966 421.374 779.407 409.87 790.882 410.737C793.315 423.633 792.582 436.429 798.348 448.842C801.165 453.843 802.14 462.713 807.731 465.181C805.79 455.094 803.39 446.057 805.331 435.629C809.715 435.07 810.548 442.681 812.115 445.607C816.139 457.495 816.523 470.499 819.406 482.737C825.489 482.178 824.797 467.331 833.272 466.081C839.805 466.815 846.338 468.098 852.63 470.007C853.571 474.317 845.263 473.692 842.897 476.443C834.664 483.745 826.431 490.031 817.323 496.191C800.54 507.278 790.599 524.968 779.274 541.557C774.057 550.385 765.024 562.689 767.458 573.392C771.624 586.43 786.774 593.908 794.182 602.769C795.115 613.098 793.832 622.517 797.207 632.704C789.557 642.366 775.307 648.626 768.774 659.197C767.808 685.681 759.741 710.331 750.392 734.947C734.792 778.087 715.818 819.735 695.21 860.682C679.602 891.592 669.253 924.437 667.653 959.207C663.136 980.306 667.828 1000.5 659.311 1019.49C648.645 1042.99 635.129 1065.23 624.321 1088.7C607.322 1126.7 600.305 1168.34 585.881 1206.65C566.565 1250.35 539.074 1290.33 517.216 1332.74C506.758 1354.75 523.683 1381.28 541.024 1394.56C559.748 1411.86 580.947 1425.7 605.063 1434.25C617.788 1438.04 630.746 1436.34 642.462 1430.39C654.378 1426.32 665.153 1420.31 676.477 1415.1C683.152 1414.68 680.094 1424.62 679.119 1428.31C676.169 1437.73 672.728 1446.11 673.911 1456.23C681.902 1466.93 696.777 1472.63 709.285 1475.83C733.926 1479.68 759.116 1479.23 779.341 1462.83C787.715 1454.76 785.457 1446.46 787.924 1436.3C797.24 1436.09 809.956 1440.3 818.856 1443.67C821.806 1460.15 815.964 1479.97 807.173 1494.15C797.165 1511.64 790.532 1529.47 786.29 1549.15C783.266 1570.11 782.082 1591.49 779.482 1612.41C774.682 1616.51 764.433 1618.88 761.9 1625.69C761.133 1640.12 760.783 1654.86 763.325 1669.15C763.908 1678.68 764.324 1687.65 758.458 1695.74C748.417 1710.52 748.792 1729.25 752.267 1746.12C754.983 1759.22 753.242 1771.84 743.267 1781.4C735.417 1788.71 735.034 1797.63 730.759 1806.92C726.034 1818.07 719.051 1827.88 713.976 1838.9C706.576 1856.42 686.977 1870.57 680.786 1888.96C678.811 1901.16 676.236 1913.99 676.827 1926.37C677.069 1934.5 686.135 1936.62 692.535 1938.19C715.226 1944.48 740.142 1944.34 763.566 1943.72C778.299 1941.91 795.115 1941.38 807.04 1931.96C814.614 1925.64 822.572 1919.8 829.972 1913.22C839.039 1905.96 852.738 1900.23 858.955 1890.25C860.346 1871.33 861.004 1851.59 857.013 1832.89C854.438 1817.42 856.763 1803.24 857.113 1787.38C860.588 1768.61 869.521 1746.12 861.146 1727.62C858.33 1720.42 861.804 1714.76 865.421 1708.75C874.937 1693.97 881.195 1677.94 887.829 1661.78C888.495 1654.41 889.987 1644.54 883.695 1639.22C881.37 1635.95 876.404 1633.59 879.529 1629.07C888.595 1613.87 898.953 1600.81 902.911 1582.87C907.92 1562.67 904.895 1543.83 906.528 1523.7C909.203 1509.48 921.819 1498.22 924.602 1483.54C926.302 1472.81 925.852 1461.85 927.661 1451.12C938.044 1447.85 951.185 1451.25 961.259 1446.8C970.642 1441.62 978.667 1429.59 980.792 1419.2C979.467 1411.73 976.242 1405.43 976.134 1397.65C975.817 1386 982.492 1373.59 984.025 1362.54C984.925 1348.97 987.15 1335.48 989.375 1322.11C993.958 1320.44 994.758 1328.98 996.392 1331.88C1000.84 1345.32 1000.28 1360.55 996.466 1374.11C993.233 1384.79 997.641 1396.77 1001.05 1407.03C1005.43 1414.44 1016.31 1418.19 1022.84 1423.61C1026.35 1440.89 1020.41 1461.5 1026.67 1479.09C1033.96 1501.62 1023.71 1521.33 1023.82 1544.14C1022.56 1561.38 1025.2 1577.55 1029.79 1594.06C1030.93 1602.3 1036.88 1612.2 1033.82 1620.21C1025.27 1623.43 1016.66 1623.61 1012.93 1633.55C1006.99 1657.19 1019.92 1673.57 1022.18 1697.03C1022.77 1709.37 1018.71 1719.83 1016.52 1731.65C1014.57 1743.92 1019.08 1755.23 1019.57 1766.62C1018.25 1779 1015.37 1790.16 1019.22 1802.58C1023.67 1817.35 1021.87 1831.57 1020.3 1846.58C1018.5 1861.43 1019.12 1876.65 1019.92 1891.57C1022.52 1897.06 1027.32 1900.44 1031.15 1905.51C1035.97 1911.56 1038.58 1918.72 1042.79 1925.12C1047.61 1931.27 1054.98 1932.38 1062.21 1933.56C1092.1 1939.68 1124.73 1936.97 1154.54 1931.48C1158.34 1930.23 1165.53 1927.09 1165.42 1922.43C1167.51 1896.93 1157.88 1871.58 1146.38 1849.29C1138.77 1828.93 1134.35 1807.16 1129.31 1786.1C1127.1 1778.73 1124.14 1770.8 1123.62 1763.11C1124.73 1749.73 1132.96 1739.06 1132.58 1725.02C1133.25 1715.31 1130.05 1706.63 1128.76 1697.21C1132.13 1673.81 1144.22 1654.03 1137.1 1629.03C1134.6 1628.09 1132.1 1627.12 1129.56 1626.18C1126.22 1620.13 1129.04 1615.41 1130.05 1609.25C1132.45 1591.94 1137.89 1575.81 1138.35 1558.11C1139.39 1537.4 1132.69 1515.5 1128.62 1495.26C1126.25 1480.59 1127.26 1464.88 1128.03 1450.11C1128.8 1445.69 1127.65 1439.22 1132.75 1437.2C1153.68 1432.93 1174.18 1430.67 1194.27 1423.02C1195.28 1432.06 1194.16 1440.85 1194.19 1449.86C1198.26 1455.88 1208.06 1457.72 1214.14 1461.5C1233.22 1470.47 1255.71 1485.18 1277.25 1484.66C1285.48 1484.14 1283.47 1474.19 1285.35 1468.63C1307.17 1464.77 1335.45 1473.12 1355.34 1461.99C1363.05 1458.31 1375.42 1451.7 1377.78 1442.98C1375.84 1428.9 1365.35 1415.06 1361.73 1401.4C1361.62 1399.11 1362.7 1397.02 1365.03 1395.14C1382.4 1381.9 1404.71 1378.59 1425.64 1375.32C1451.49 1370.39 1468.87 1349.36 1482.03 1328.12C1487.38 1319.56 1484.5 1310.94 1481.13 1302.36ZM1173.31 380.468C1178.9 377.826 1178.21 390.514 1178.04 393.506C1173.62 405.01 1174.18 415.997 1173.59 428.026L1170.14 427.818C1164.89 411.621 1173.41 395.557 1173.3 380.468H1173.31ZM1153.09 446.449C1157.01 445.474 1160.66 455.694 1159.2 458.337C1152.39 459.729 1145.16 451.209 1153.09 446.449ZM1184.88 632.262C1199.51 661.497 1186.09 687.048 1179.94 716.008C1173.9 717.75 1163.37 722.301 1157.64 718.725C1152.11 695.742 1144.47 673.46 1137.65 650.685C1135.25 643.775 1143.8 636.922 1146.52 630.837C1149.78 625.969 1151.69 617.174 1159.34 619.05C1168.41 621.242 1178.49 625.21 1184.88 632.262ZM1169.59 1021.37C1163.4 1020.05 1160.04 1009.37 1153.15 1006.46C1154.13 1009.37 1155.44 1012.09 1157.08 1014.56C1171.74 1035.69 1188.53 1054.96 1205 1074.63C1213.41 1086.28 1227.03 1100.74 1221.96 1116.31C1217.62 1132.76 1198.58 1144.65 1188.46 1157.68C1200.59 1152.81 1209.93 1136.78 1221.62 1131.54C1223.08 1133.31 1224.01 1135.47 1224.47 1138C1229.99 1166.02 1228.6 1195.57 1229.68 1224.32C1229.15 1231.34 1230.89 1242.68 1223.11 1246.22C1211.57 1250.4 1197.39 1247.37 1185.47 1250.77C1173.14 1254.15 1159.89 1251.68 1147.28 1254.42C1136.65 1256.97 1125.95 1256.2 1115.2 1257.48C1110.8 1257.66 1105.34 1260.62 1101.34 1258.43C1095.71 1247.16 1097.76 1235.34 1093.49 1223.87C1084.21 1152.32 1068.26 1075.74 1059.43 1004.37C1054.81 977.43 1051.86 954.864 1047.76 929.005C1048.17 915.792 1042.89 903.796 1043.58 890.417C1038.58 855.197 1034.97 819.251 1032.61 783.722C1028.72 768.467 1031.25 753.445 1030.07 737.632C1030.45 730.471 1028.22 720.701 1031.67 714.34C1041.32 707.18 1055.92 692.508 1068.4 693.342C1076.84 727.095 1080.73 762.173 1087.37 796.377C1095.6 836.424 1102.55 882.247 1111.39 921.811C1111.9 942.385 1111.76 962.758 1115.94 983.023C1117.88 987.925 1131.78 987.683 1134.08 983.265C1135.78 972.703 1133.63 963.175 1130.99 953.063C1129.8 935.749 1124.84 918.96 1123.4 901.779C1116 867.401 1110.93 831.147 1103.39 796.76C1103.6 782.297 1098.07 769.367 1096.23 755.321C1091.82 737.006 1090.46 717.817 1085.95 699.46C1085.21 692.541 1084.17 686.981 1090.53 682.388C1100.47 674.985 1110.51 667.758 1120.42 660.28C1122.5 658.505 1124.59 658.196 1126.71 659.305C1134.6 684.755 1142.9 709.889 1152.11 734.914C1154.02 744.967 1158.05 753.52 1161.98 762.865C1161.64 776.353 1160.52 790.299 1158.47 803.646C1156.98 818.659 1164.31 830.48 1164.07 845.435C1164.62 867.959 1161.77 893.86 1169.8 915.067C1172.89 924.62 1177.73 932.448 1177.62 942.801C1170.78 968.944 1178.52 994.536 1169.59 1021.37ZM1194.3 1001C1206.18 1003.02 1216.64 1015.57 1223.21 1025.02C1232.11 1039.14 1243.57 1055.51 1237.42 1073C1234.4 1079.99 1231.97 1092.12 1225.54 1096.29C1222.1 1093.82 1220.43 1089.17 1218.24 1085.55C1209.73 1071.23 1198.36 1059.76 1188.04 1046.44C1183.56 1040.56 1174.98 1033.99 1174.07 1026.45C1177.2 1018 1183.63 1001.21 1194.3 1001ZM957.784 1022.9C950.068 1097.34 946.46 1170.48 940.685 1245.29C937.21 1263.79 938.943 1282.52 935.052 1301.05C933.452 1307.55 936.685 1323.19 930.219 1326.46L927.686 1325.21C929.427 1312.52 929.285 1299.93 930.635 1287.24C933.835 1269.51 931.96 1251.47 935.185 1233.85C935.844 1221.37 936.469 1208.89 936.885 1196.41C940.535 1178.09 939.418 1159.67 940.393 1141.24C944.943 1125.01 941.26 1106.9 945.193 1090.53C947.177 1075.79 945.227 1059.93 948.635 1045.34C950.585 1033.45 949.468 1021.07 951.135 1009.15C954.718 993.402 953.085 976.263 954.543 960.482C958.293 944.702 956.701 927.563 958.018 911.816C963.751 886.366 957.809 859.256 963.093 834.081C964.659 799.878 963.618 765.458 965.251 731.288L968.551 731.463L969.592 734.489C971.017 780.204 968.934 827.654 968.267 873.436C964.934 900.062 966.909 926.796 963.018 953.397C962.426 976.721 958.918 999.629 957.768 1022.92L957.784 1022.9ZM978.15 1057.91C978.392 1070.32 977.942 1082.73 977.909 1095.18C972.376 1097.75 964.701 1096.12 958.934 1094.76C957.993 1082.77 958.968 1070.64 959.593 1058.64C964.318 1054.4 972.726 1055.82 978.15 1057.91ZM930.96 702.07L930.71 698.943C941.802 698.318 951.876 706.138 963.484 705.963L962.651 703.845C944.785 696.301 928.977 690.107 911.603 683.23C905.17 680.17 896.378 676.969 892.42 670.817C890.753 660.322 890.92 648.218 891.928 637.614C893.845 634.697 896.203 632.963 899.053 632.404C910.561 635.08 921.227 639.323 933.177 639.807C942.735 643.041 952.118 643.108 961.709 639.948C987.25 638.281 1012.21 638.973 1037.67 638.798C1044.49 638.865 1051.57 634.938 1058.18 636.364C1065.23 641.507 1061.76 652.778 1063.53 660.422C1065.82 668.591 1067.6 676.311 1065.58 684.83C1057.41 690.599 1048.1 692.858 1038.17 691.816C1022.01 689.065 1008.24 681.312 993.617 675.819C1005.18 686.806 1024.47 692.65 1039.48 697.618C1041.81 700.502 1041.64 702.553 1038.92 703.737C1025.65 712.081 1012 722.06 997.75 728.562C990.033 732.105 982.25 731.096 974.709 727.762C959.418 720.909 943.952 712.706 930.96 702.07ZM950.726 619.783C956.36 614.465 967.759 613.94 975.192 612.731C986.833 610.955 990.975 624.126 991.808 633.238C979.5 637.439 957.818 630.353 950.726 619.783ZM1086.3 678.428L1083.72 677.661C1081.36 671.167 1079.13 664.732 1078.89 657.713C1079.17 648.676 1073.44 642.799 1076.42 633.83C1084.17 631.812 1091.85 632.679 1099.74 632.162C1114.13 628.961 1127.65 622.184 1141.93 618.708L1144.89 619.641L1145.82 622.668C1134.91 646.409 1107.49 664.282 1086.3 678.428ZM1135.67 660.739C1140.99 674.335 1143.69 688.757 1148.74 702.486L1146.34 702.07C1140.12 689.065 1138.24 674.36 1132.71 660.906C1131.43 657.529 1132.4 657.463 1135.66 660.73L1135.67 660.739ZM1087.71 726.511C1099.39 785.748 1110.89 853.088 1122.19 911.249C1122.78 915.801 1122.25 928.113 1115.06 921.469C1109.4 905.864 1107.87 888.408 1104.7 872.177C1090.84 800.845 1079.55 733.889 1067.17 662.656C1064.32 653.411 1064.36 643.15 1064.53 633.521C1065.19 630.078 1067.76 628.928 1072.25 630.078C1075.66 662.231 1083.54 694.567 1087.71 726.511ZM1127.75 950.354C1129.03 959.257 1133.65 968.36 1132.4 977.33C1131.54 984.457 1122.95 983.098 1118.36 980.664C1116.73 972.845 1116.38 964.642 1116.14 956.639C1115.06 948.853 1122.19 948.228 1127.75 950.346V950.354ZM1115.13 943.16C1118.15 941.284 1121.14 941.143 1124.1 942.743C1126.25 947.711 1113.4 947.953 1115.13 943.16ZM1120.48 938.783C1114.3 942.643 1112.52 933.257 1114.64 929.188C1123.88 922.62 1129.65 934.782 1120.48 938.783ZM1166.59 803.312C1170.66 804.596 1170.87 811.548 1172.82 814.991C1174.28 819.159 1176.82 823.644 1176.74 828.096C1176.95 830.947 1174.87 840.367 1170.53 837.932C1166.99 831.43 1166.53 822.952 1164.97 815.75C1164.9 812.165 1162.5 805.146 1166.6 803.304L1166.59 803.312ZM1166.11 733.614C1173.79 730.171 1177.27 733.439 1183.18 738.032C1183.24 742.133 1171.19 751.728 1167.26 750.544C1164.41 745.993 1158.4 736.606 1166.11 733.614ZM1165.34 730.137C1163.02 731.179 1156.38 737.023 1156.24 731.146C1157.39 726.069 1165.41 724.127 1169.82 723.602C1177.36 725.861 1167.8 728.82 1165.34 730.137H1165.34ZM1169.79 601.235C1177.09 603.253 1177.48 612.114 1176.15 618.266C1169.83 617.883 1163.4 616.107 1157.18 614.79C1155.61 608.671 1164.54 601.927 1169.79 601.235ZM1124.72 482.345C1135.53 482.762 1149.81 486.413 1159.85 490.548C1171.94 498.475 1177.13 515.79 1185.46 527.435C1189.49 536.055 1201.76 548.776 1195.88 558.404C1188.28 572 1177.13 583.821 1165.9 594.525C1149.01 611.214 1124.2 620.283 1102.27 628.386C1096.67 630.437 1089.1 633.013 1083.75 629.078C1083.71 625.985 1084.02 622.859 1084.65 619.767C1070.75 621.992 1055.87 634.888 1041.87 633.563C1039.79 627.553 1051.91 623.209 1055.46 619.525C1091.35 586.739 1125.86 559.346 1149.01 515.089C1151.19 509.946 1155.61 501.601 1147.86 498.892C1136.95 497.708 1125.94 498.509 1115.02 497.367C1116.2 491.281 1119.61 485.888 1124.72 482.345ZM1093.34 500.559C1106.16 500.001 1118.95 501.81 1131.77 501.326C1137.89 501.81 1143.94 500.109 1148.52 505.011C1144.35 517.523 1135.95 528.961 1127.99 539.356C1124.69 543.04 1120.86 544.433 1117.98 539.389C1113.15 531.536 1110.26 521.7 1104.5 514.606C1097.96 510.088 1091.08 510.921 1084.1 508.212C1081.18 502.852 1089.62 500.876 1093.34 500.559ZM1047.71 512.83C1050.67 517.207 1054.04 522.742 1054.07 528.16C1050.21 528.194 1046.36 528.052 1042.5 527.777C1041.14 523.4 1041.25 512.688 1047.71 512.83H1047.71ZM1041.97 533.521C1047.57 533.17 1052.96 534.212 1058.35 535.705C1062.86 537.238 1066.86 542.065 1071.66 542.065C1072.84 534.354 1070.36 520.791 1079.65 517.49C1088.02 517.073 1102.13 513.697 1105.46 524.301C1109.22 533.412 1116.65 546.208 1113.85 556.112C1106.13 569.149 1092.02 579.194 1081.07 589.556C1072.84 597.584 1064.67 605.653 1056.43 613.614C1042.18 624.176 1033.88 636.697 1013.93 632.596C1012.51 627.728 1016.78 622.234 1019.36 618.341C1027.35 608.121 1037.92 599.668 1047.08 590.498C1056.19 581.112 1067.14 575.368 1074.99 564.389C1066.61 567.132 1061.71 575.827 1053.69 579.895C1048.61 582.429 1044.06 592.024 1038.33 591.257C1037.77 588.931 1038.61 586.605 1040.86 584.271C1047.54 576.518 1053.96 569.391 1058.14 559.796C1060.01 550.276 1036.77 543.774 1041.97 533.521ZM947.352 539.323C947.91 533.796 948.01 528.235 948.501 522.708C963.334 522.325 977.517 537.063 992.558 537.063C1006.15 533.729 1020.85 519.441 1034.22 518.982C1037.87 527.26 1033.85 537.83 1037.6 546.658C1039.2 554.828 1047.81 559.238 1048.68 567.032C1044.82 574.468 1037.84 579.928 1033.02 586.772C1029.26 591.915 1024.6 594.074 1018.73 595.95C1019.07 597.867 1019.42 599.776 1019.81 601.685C1014.21 608.604 1009.93 615.007 1007.67 623.726C1006.46 626.786 1004.48 633.846 1000.03 632.487C993.85 627.694 992.842 616.807 986.059 612.189C983.009 609.788 978.45 607.913 976.609 604.436C971.951 595.567 962.951 590.423 956.593 582.604C951.243 575.893 941.127 569.041 939.568 560.388C941.268 553.227 946.485 546.55 947.352 539.323ZM942.485 520.308C943.702 525.735 940.193 533.904 934.352 534.454C930.844 527.852 927.019 520.233 926.777 512.655C932.477 512.83 938.177 516.865 942.485 520.299V520.308ZM921.944 509.496C923.094 512.347 920.694 525.243 916.836 525.068C914.128 515.748 907.211 509.529 903.595 501.36C909.919 501.393 916.694 506.153 921.944 509.496ZM904.636 512.73C910.819 518.707 912.936 526.285 914.361 534.529C919.927 536.888 920.719 529.244 923.402 526.11C928.96 525.484 928.885 539.081 928.261 543.007C932.535 542.349 936.744 541.407 940.985 540.506C941.577 548.326 930.352 555.003 934.935 562.472C943.593 579.303 963.568 591.365 971.076 608.638C963.051 607.146 958.326 599.293 951.718 594.316C941.327 586.18 933.16 575.86 922.286 568.316C916.486 564.214 912.661 557.47 906.27 554.553C909.953 564.389 921.727 571.583 929.31 578.427C936.985 585.905 944.668 593.349 952.66 600.468C956.235 603.944 959.959 606.345 960.759 611.664C954.085 612.848 947.168 614.273 940.36 614.098C929.827 612.289 922.844 606.07 913.603 601.344C907.97 598.001 901.161 594.983 896.778 590.04C891.462 572.242 881.837 557.12 872.804 541.131C867.588 532.579 874.504 526.526 879.371 520.033C884.929 513.005 896.22 506.953 904.636 512.73ZM888.229 583.963C884.962 583.229 882.012 581.87 879.437 579.928C867.488 571.267 854.905 562.755 844.205 552.635C840.864 548.809 836.872 545.375 838.989 539.806C844.063 530.803 862.171 530.286 867.104 539.881C875.687 553.261 884.062 568.557 888.229 583.963ZM822.897 467.781C817.998 465.973 819.281 457.561 818.831 453.318C823.206 453.077 826.647 458.912 828.314 462.43C826.539 464.272 824.731 466.048 822.889 467.781H822.897ZM833.705 458.703C821.339 449.284 809.173 435.237 807.681 419.148C800.557 420.949 805.006 439.272 798.365 438.23C797.323 429.193 796.007 419.807 796.59 410.729C796.94 406.419 798.057 397.941 804.415 400.925C810.081 413.546 815.773 425.509 825.231 435.862C836.697 449.525 851.605 456.344 867.104 464.164C868.179 467.156 869.638 469.657 871.446 471.674C873.362 471.641 875.237 471.566 877.112 471.533C882.012 477.968 889.904 485.679 891.045 493.815C887.712 493.299 884.445 492.665 881.179 491.873C882.045 497.817 881.179 500.909 878.604 501.151C881.42 488.288 869.713 477.652 861.788 468.924C853.271 464.097 842.113 464.789 833.705 458.703ZM785.507 586.88C778.799 581.07 768.866 574.501 773.591 564.214C780.882 548.084 791.449 533.095 801.565 518.599C812.964 502.61 828.464 496.108 843.197 483.945C850.947 477.443 863.804 475.909 869.429 485.821C874.921 492.982 871.554 500.284 874.437 508.004C881.529 509.387 885.904 499.834 894.387 501.36C894.762 505.286 888.162 506.645 885.629 508.695C877.946 512.939 873.562 519.299 868.113 525.835C863.521 530.628 856.505 528.544 850.28 529.377C843.405 529.169 839.439 534.037 833.189 535.396C826.097 529.903 834.472 519.507 835.755 512.73C827.972 517.457 822.381 529.202 827.697 537.789C833.572 548.467 842.672 557.745 851.988 565.431C885.07 592.682 926.286 612.814 963.709 634.196L964.334 636.972C952.518 639.582 939.002 638.848 927.086 637.247C918.011 633.98 909.361 631.345 899.945 629.186C890.837 625.435 883.329 618.441 872.454 620.567C869.221 625.502 866.513 628.736 860.221 629.253C849.105 629.295 837.947 626.611 826.897 625.393C817.306 623.801 807.923 625.052 799.198 621.642C798.365 615.073 801.115 606.204 808.581 605.062C822.689 603.428 837.914 610.655 852.055 612.222L852.13 609.721C843.855 610.522 836.697 604.745 828.356 603.111C814.106 598.109 796.632 596.925 785.507 586.88ZM850.596 929.13C854.555 927.146 858.938 927.079 863.729 928.922C865.296 937.266 865.154 947.795 863.588 956.139C858.796 957.873 854.521 957.873 850.763 956.206C847.913 948.353 849.022 937.291 850.588 929.122L850.596 929.13ZM850.63 912.408C854.73 911.574 858.796 911.399 862.796 911.924C863.004 916.201 863.454 920.269 863.279 924.47C854.38 929.864 847.263 920.819 850.63 912.408ZM864.188 903.821C861.888 908.198 854.28 910.424 852.296 904.547C853.305 891.584 851.671 877.779 855.705 865.408C857.688 855.847 855.013 845.452 857.863 836.207C862.204 824.003 857.546 811.623 862.796 799.461C864.113 791.742 862.721 784.514 864.704 776.895C867.829 766.85 866.163 756.521 868.771 746.376C871.062 735.631 869.846 724.544 871.137 713.832C874.779 703.195 873.396 692.074 876.137 681.121C876.487 663.815 880.479 647.226 880.204 629.92C882.987 621.992 890.77 626.477 889.795 633.321C889.062 648.168 889.479 663.256 888.129 678.028C883.612 691.274 887.537 704.52 882.879 717.558C881.454 725.411 883.162 732.605 881.037 740.116C878.087 749.294 880.029 758.68 877.462 767.925C874.612 779.471 877.254 790.975 874.021 802.695C871.062 814.091 873.187 825.945 870.471 837.424C867.521 847.777 869.463 858.348 867.038 868.71C863.871 880.597 865.154 891.726 864.188 903.821ZM874.329 653.211C869.254 651.544 865.504 646.226 861.263 643.058C858.938 640.524 853.48 637.806 854.138 633.913C861.196 633.805 867.688 629.912 874.471 630.02C878.262 636.239 875.412 646.359 874.329 653.211ZM780.716 654.87C787.107 647.259 795.348 641.207 802.54 634.33C809.731 627.136 823.564 629.637 832.872 629.812C845.73 630.328 850.947 640.549 859.805 648.093C865.746 654.287 873.812 658.105 872.837 667.983C872.321 679.42 871.904 690.991 870.962 702.395C867.071 713.448 869.296 724.677 866.413 735.873C864.113 746.235 865.646 756.805 862.863 767.158C859.63 778.704 863.213 790.658 859.255 801.787C856.363 811.032 859.421 821.36 856.538 830.363C852.755 840.825 855.913 851.395 853.063 861.749C850.705 869.051 851.121 876.32 850.947 883.865C846.705 908.473 846.913 934.198 847.888 959.124C854.105 959.682 860.221 959.682 866.446 958.915C869.054 934.34 863.454 906.147 868.771 881.947C870.821 872.352 869.263 863.008 871.587 853.371C874.712 842.142 872.387 830.638 875.654 819.376C877.462 812.04 876.004 804.254 877.846 797.06C881.912 782.739 878.571 767.817 882.604 753.32C885.595 740.841 882.22 727.253 886.395 715.257C890.004 704.304 884.862 688.698 892.262 679.554C910.853 688.215 930.285 708.48 947.102 720.784C952.418 725.377 961.243 729.821 961.243 737.748C962.493 757.388 961.418 777.245 961.976 796.918C957.876 824.136 959.093 852.679 958.359 880.313C954.326 898.67 955.785 917.093 954.326 935.449C950.751 951.338 952.31 968.302 950.993 984.124C946.993 998.62 949.876 1013.39 946.402 1027.89C944.702 1037.63 945.61 1047.77 944.56 1057.61C940.427 1075.51 942.443 1094.53 940.502 1112.74C936.819 1129.71 939.035 1147.75 936.952 1164.89C933.202 1182.21 935.769 1200.73 932.052 1218.29C930.802 1241.06 930.11 1263.41 926.461 1285.98C908.77 1285.45 892.228 1280.2 874.504 1280.45C838.33 1273.08 797.773 1269.19 762.466 1256.53C756.775 1254.69 754.166 1250.69 753.158 1244.99C751.975 1218.91 758.991 1194.51 759.516 1168.68C759.9 1158.6 759.416 1148.52 760.208 1138.43C764.308 1139.94 765.908 1146.33 768.549 1149.63C776.649 1161.48 783.74 1173.93 791.94 1185.64C794.857 1190.59 795.932 1195.59 800.732 1199.13C796.423 1184.95 786.307 1172.68 779.707 1159.29C770.258 1141.08 754.233 1124.67 757.533 1102.95C760.766 1068.32 784.607 1039.18 808.965 1016.18L811.506 1015.93C817.931 1020.62 819.114 1037 825.922 1038.88C825.231 1030.71 819.256 1024.59 819.081 1016.52C823.597 1015.76 827.456 1022.57 830.197 1025.42C832.947 1029.59 838.539 1034.39 838.889 1039.5C824.289 1054.86 809.973 1070.61 795.348 1085.94C785.749 1097.17 773.416 1108.85 767.408 1122.38C773.658 1117.86 778.666 1111.6 784.115 1106.14C797.29 1090.39 812.581 1076.63 825.331 1060.46C833.43 1050.28 845.455 1039.92 849.938 1027.61C843.505 1030.95 842.013 1030.95 836.697 1025.66C828.981 1016.21 818.281 1012.03 816.998 1000.15C814.281 986.9 810.323 974.004 807.923 960.691C805.598 949.187 801.007 937.258 804.515 925.471C808.24 914.383 813.764 903.888 817.306 892.693C819.773 884.14 820.748 875.378 823.039 866.759C829.747 864.675 826.381 881.947 832.422 882.231C826.964 856.297 818.489 831.439 817.098 804.604C812.789 785.931 816.056 766.641 811.298 748.21C810.356 738.999 812.406 728.779 808.031 720.542C799.615 703.578 790.965 686.748 782.591 669.75C780.782 665.549 778.041 659.188 780.716 654.87ZM760.941 1262.44C775.399 1261.99 791.382 1269.4 805.973 1271.59C823.072 1273.22 839.997 1279.13 857.163 1279.62C880.062 1284.62 903.728 1285.63 926.044 1290.74C929.06 1303.05 925.102 1312.99 923.152 1324.98C916.453 1328.36 906.128 1324.74 898.695 1324.56C856.121 1316.85 808.79 1311.56 768.199 1296.34C758.508 1291.71 762.816 1271.83 760.941 1262.44ZM752.392 1105.31L749.925 1105.42C744.95 1096.3 736.475 1086.23 735.292 1075.8C741.65 1075.38 743.317 1086.33 749.092 1087.89C746.758 1071.9 726.434 1067.66 733.867 1052.3C747.908 1025.74 766.324 998.862 788.29 978.213C792.565 973.87 797.29 973.629 802.465 976.513C809.106 979.539 809.031 988.675 810.081 994.902C811.573 1006.58 802.64 1012.73 795.932 1020.66C780.224 1037.31 766.741 1055.25 758.366 1076.74C755.758 1086.78 751.208 1094.78 752.392 1105.31ZM797.148 967.16L798.748 964.375C807.99 960.032 806.881 975.296 798.265 970.319L797.157 967.16H797.148ZM625.379 1430.98C616.205 1434.07 607.205 1430.83 598.689 1427.26C575.373 1416.2 554.073 1400.52 535.099 1383.13C522.274 1369.96 514.175 1355.08 520.883 1336.39C542.432 1290.25 573.531 1247.42 593.339 1200.35C605.397 1172.15 611.688 1142.54 621.104 1113.75C629.129 1084.45 645.22 1056.67 658.878 1029.52C672.953 1001.43 691.785 977.48 709.651 951.821C712.668 948.003 716.359 945.361 717.609 940.426C708.085 946.503 705.202 955.756 697.552 963.683C690.327 973.829 683.202 984.049 675.486 993.819L672.636 994.444C670.586 978.072 675.178 959.474 675.869 942.818C676.877 914.909 685.536 888.558 698.56 864.083C724.418 814.574 745.092 763.024 763.791 710.322C769.941 694.675 769.624 678.336 773.658 662.173L776.582 662.314C784.257 687.206 802.332 709.105 808.898 734.481C810.673 752.245 808.448 769.001 812.373 786.173C812.373 811.765 816.123 837.316 816.956 862.799C814.456 870.585 814.214 875.62 815.673 883.581C812.889 897.628 798.923 910.074 789.365 920.052C738.075 978.597 685.777 1041.73 645.745 1108.47C647.479 1107.39 649.078 1106.17 650.537 1104.82C692.027 1042.11 738.842 982.798 788.849 926.688C792.115 923.495 796.215 915.392 801.357 915.917C800.49 922.519 797.773 929.088 798.198 935.591C798.198 945.986 801.707 954.364 793.782 962.95C763.966 997.053 735.884 1028.96 718.509 1071.69C705.893 1103.78 695.085 1136.91 687.235 1170.45L689.669 1170.7C689.385 1167.99 689.635 1165.41 690.394 1162.98C699.502 1136.35 709.476 1110.11 720.493 1084.21C722.193 1081.28 724.068 1073.85 728.417 1074.75C734.042 1081.04 736.3 1090.25 740.992 1097.35C746.592 1106.42 753.717 1115.67 752.708 1126.96C749.608 1154.11 738.634 1180.47 733.067 1207.3C729.009 1227.78 720.176 1247.56 718.618 1268.07L721.084 1268.21C720.493 1265.29 720.384 1262.44 720.834 1259.66C730.601 1225.59 740.225 1189.29 749.992 1155.57L753.083 1155.02C755.175 1175.26 751 1197.22 749.367 1217.31C748.192 1231.29 751.625 1245.44 750.1 1259.24C743.042 1285.35 735.992 1311.59 727.126 1337.14C723.168 1351.05 719.551 1365.96 713.093 1378.97C707.668 1388.67 697.902 1393.43 688.935 1400.21C669.128 1412.83 647.72 1423.71 625.379 1430.98ZM776.891 1460.52C763.583 1471.2 748.4 1473.04 732.059 1475.06C711.768 1472.76 690.294 1471.68 677.161 1453.47C678.652 1439.87 682.686 1425.21 686.885 1412.24C694.602 1397.53 713.543 1392.9 720.559 1376.29C736.2 1340.76 741.134 1300.71 753.367 1263.94L756.008 1263.28C757.191 1273.25 756.425 1284.34 759.691 1293.86C762.991 1302.32 777.866 1300.44 781.307 1308.02C782.732 1319.35 780.891 1331.13 781.099 1342.54C780.716 1355.74 783.149 1369.55 778.174 1381.75C774.074 1393.19 769.733 1406.39 774.282 1418.32C776.682 1424.65 782.591 1429.44 782.415 1436.26C782.274 1444.08 784.399 1455.52 776.891 1460.52ZM762.191 1758.45C770.949 1744.51 762.225 1716.35 774.907 1704.67C784.465 1704.53 798.782 1707.94 802.64 1717.95C803.756 1728.2 802.29 1737.7 806.673 1747.47C807.99 1753.51 812.306 1766.37 803.056 1767.7C803.165 1769.5 803.265 1771.27 803.406 1773.08C789.957 1769.99 776.857 1772.7 763.475 1770.89C756.391 1767.87 759.758 1763.42 762.191 1758.45ZM750.517 1780.98C759.133 1774.82 769.974 1779.09 779.049 1781.81C785.999 1783.86 796.457 1782.05 798.782 1790.99C795.448 1798.49 794.373 1806.04 784.19 1805.59C772.791 1801.59 761.5 1803.29 750.067 1800.54C747.108 1792.9 752.95 1790.64 755.066 1784.45C751.908 1783.86 750.375 1782.71 750.517 1780.98ZM739.425 1795.06C743.284 1794.61 744.184 1796.42 742.134 1800.48C738.242 1800.93 737.334 1799.12 739.425 1795.06ZM737.55 1806.45C747.008 1805.17 757.083 1808.44 766.949 1807.12C774.182 1809.41 789.924 1810.14 783.424 1821.58C780.541 1822.45 777.449 1822.48 774.182 1821.65C763.791 1819.07 752.775 1821.68 742.7 1818.69C742.975 1815.53 743.875 1811.98 745.442 1807.95C730.809 1806.49 740.509 1827.8 729.317 1825.3C729.351 1818.83 734.842 1812.26 737.55 1806.45ZM769.941 1835.97C757.883 1836.98 744.467 1836.98 732.409 1836.01C731.126 1831.07 739.117 1827.11 742.834 1825.68C753.716 1824.01 765.633 1824.08 776.332 1826.69C778.349 1831.49 774.491 1835.49 769.941 1835.97ZM725.634 1844.32C730.501 1836.91 741.792 1839.93 749.442 1839.24C758.825 1839.83 770.566 1836.95 772.616 1849.43C759.791 1858.53 744.542 1859.4 729.492 1856.73C724.526 1853.53 721.984 1849.84 725.634 1844.32ZM686.469 1891.94C691.96 1875.6 705.685 1861.59 715.559 1847.62L717.743 1847.68C720.593 1852.07 723.026 1859.5 729.251 1859.57C739.117 1860.24 749.367 1860.69 759.2 1859.44C764.724 1858.74 771.158 1852.45 776.474 1854.12C785.682 1858.36 786.032 1872.68 788.39 1881.45C787.49 1888.5 793.465 1898.06 789.44 1903.86C778.732 1909.11 767.991 1909.05 756.391 1909.43C734.567 1909.53 713.893 1909.22 692.694 1903.49C686.26 1901.36 684.627 1898.62 686.469 1891.94ZM855.146 1884.96C854.621 1892.77 845.072 1897.75 839.405 1901.92C820.914 1913.15 806.181 1933.45 783.807 1936.26C752.842 1940.47 719.343 1939.64 689.144 1931.25C677.886 1928.82 682.294 1915.02 683.619 1907.1C714.168 1915.2 746.483 1916.66 777.757 1913.25C808.998 1908.66 825.056 1886.16 850.697 1871.15C857.088 1869.9 855.146 1881.3 855.146 1884.96ZM856.021 1716.76C851.33 1725.88 857.238 1732.97 858.73 1742.18C859.596 1750.9 853.305 1757.55 855.046 1766.48C856.438 1775.9 852.196 1782.65 848.93 1790.95C849.247 1798.01 851.297 1804.65 850.663 1811.81C849.555 1827.42 856.088 1841.61 854.213 1856.86C853.063 1860.96 848.863 1863.89 845.597 1866.36C836.072 1873.03 826.514 1879.67 817.064 1886.45C809.59 1892.01 804.798 1898.96 795.065 1900.91C792.215 1889.86 789.19 1879.81 789.474 1868.2C789.507 1856.27 775.741 1850.26 774.566 1840.46C778.766 1835.76 781.374 1826.65 787.49 1824.68C791.974 1826.76 796.215 1829.71 800.907 1831.25C803.406 1827.94 803.931 1824.29 804.831 1820.36L802.507 1820.67C801.565 1831.1 790.69 1819.81 788.674 1816.02C791.449 1812.65 794.548 1809.86 798.09 1807.33C804.098 1808.82 807.823 1813.72 814.389 1813.96C814.806 1805.66 801.457 1802.39 802.257 1794.98C805.873 1793.67 814.839 1793.77 814.356 1788.14C811.09 1784.73 806.431 1782.44 802.432 1779.86C801.84 1775.55 809.49 1776.45 810.773 1772.32C813.764 1766.65 813.031 1758.83 812.964 1752.58C812.164 1745.62 807.748 1740.89 810.04 1733.73C813.139 1710.79 786.865 1693.65 766.641 1703.69C767.124 1685.55 767.574 1667.51 767.366 1649.32C800.348 1666.19 836.939 1675.4 874.087 1673.83C874.887 1687.46 860.746 1703.63 856.021 1716.76ZM876.871 1668.1C850.563 1673 821.481 1664.56 795.898 1657.8C784.19 1652.63 765.599 1646.82 765.949 1631.14C764.866 1626.42 770.424 1617.76 775.641 1621.41C779.949 1633.79 798.823 1638.9 810.006 1642.82C833.33 1643.86 853.763 1651.86 877.321 1648.67C877.079 1642.93 870.471 1646.12 872.321 1639.1C886.945 1636.99 890.287 1663.55 876.871 1668.1ZM920.519 1474.85C919.227 1491.67 907.245 1501.89 902.795 1516.77C900.636 1534.15 903.52 1551.81 900.12 1569.36C896.987 1592 885.279 1613.62 871.829 1631.8C866.446 1637.95 860.121 1647.13 850.663 1644.91C835.48 1641.12 821.648 1645.64 807.648 1639.28C800.382 1636.81 788.949 1632.25 786.724 1624.08C785.44 1611.47 786.065 1598.57 786.274 1585.88C787.14 1554.77 796.765 1525.63 811.331 1498.35C815.606 1490.66 819.464 1482.94 822.447 1474.64C825.539 1465.95 824.847 1456.35 826.589 1446.93C835.93 1442.69 850.497 1446.27 860.846 1446.41C880.379 1450.3 900.045 1447.73 919.644 1450.82C923.369 1457.29 920.794 1467.58 920.519 1474.85ZM988.658 1310.9C987.2 1316.05 982.892 1320.08 980.842 1325.08C983.45 1339.09 979.45 1351.16 977.509 1365.09C975.284 1382.38 965.834 1396.7 964.926 1414.43C967.293 1413.34 969.651 1412.17 971.984 1410.95C982.167 1417.31 971.909 1431.28 966.001 1437.34C958.884 1441.58 948.801 1441.75 940.668 1443.04C891.812 1446.86 841.98 1441.26 794.407 1429.97C782.94 1427.6 776.332 1416.37 776.924 1405.11C776.891 1394.75 784.049 1387.62 783.915 1377.44C783.807 1363.04 783.282 1349 786.382 1334.82C788.224 1327.62 787.107 1317.58 792.149 1311.88C796.732 1310.62 802.015 1312.29 806.498 1313.44C829.431 1319.9 852.338 1324.74 875.379 1330.33C893.345 1331.55 911.478 1331.83 929.485 1330.57C932.227 1330.61 934.277 1329.5 935.669 1327.24C937.577 1309.16 940.185 1290.91 942.343 1272.76C943.385 1258.41 942.76 1242.07 947.31 1228.37C952.593 1226.56 952.726 1235.29 954.26 1238.49C959.959 1259.1 971.667 1278.82 982.859 1296.92C985.225 1301.13 988.908 1305.89 988.658 1310.9ZM997.558 1305.55C1005.17 1281.25 1023.9 1258.51 1036.07 1236.64C1043.61 1221.28 1052.22 1204.7 1054.96 1187.73L1052.43 1187.59C1053.65 1196.08 1047.18 1201.74 1045.27 1210.4C1034.05 1238.42 1013.62 1263.59 1000.37 1290.84C998.325 1294.18 996.725 1299.74 992.658 1300.92C986.683 1297.16 983.659 1288.48 979.209 1282.95C962.776 1259.03 955.16 1231.88 950.126 1203.66C948.243 1186.31 950.993 1168.58 951.026 1151.12C953.285 1135.2 953.11 1119.18 955.126 1103.26C963.609 1101.9 972.117 1101.94 979.209 1107.42C985.467 1105.79 989.742 1104.23 996.2 1106.42C1010.24 1104.41 1024.01 1103.81 1037.87 1107.29C1044.33 1104.89 1055.25 1102.39 1061.29 1106.59C1066.68 1132.18 1069.74 1158.12 1075.12 1183.67C1077.45 1202.44 1083.95 1218.57 1079.12 1237.72C1081.56 1241.09 1086.31 1244.5 1086.52 1248.85C1087.6 1266.12 1091.94 1282.88 1094.03 1300.09L1096.98 1300.51C1096.6 1292.1 1095.59 1284.27 1093.68 1276.1C1083.05 1210.82 1071.41 1143.93 1061.53 1078.57L1058.2 1078.51C1058.13 1084.1 1058.47 1089.49 1058.02 1094.98C1037.77 1096.13 1013.92 1095.95 993.667 1094.56C990.292 1085.14 992.45 1071.65 993.767 1061.72C1000.72 1059.07 1009.62 1061.19 1017.02 1060.71C1029.22 1061.26 1042.35 1059.17 1054.24 1061.93C1054.72 1064.91 1055.21 1067.87 1055.76 1070.85L1059.03 1071.2C1057.36 1050.28 1052.36 1029.41 1049.41 1008.6C1046.17 980.856 1041.38 953.322 1038.04 925.579C1035.44 889.733 1027.97 854.313 1025.6 818.509C1023.07 806.864 1023.27 795.318 1023.42 783.497H1020.6C1020.15 800.845 1020.63 817.809 1023.93 834.881C1023.83 853.654 1027.62 871.727 1028.91 890.367C1035.27 936.874 1039.92 983.532 1047.11 1029.97C1047.36 1034.49 1048.92 1041.23 1046.07 1045.13C1039.26 1051.29 1029.12 1049.82 1020.46 1050.86C1005.34 1051.56 987.483 1054.1 972.917 1049.44C968.192 1048.15 963.743 1045.62 963.501 1040.19C961.834 1009.47 966.109 980.022 967.534 949.604C973.201 909.59 970.451 868.459 973.792 828.204C974.517 797.335 972.917 765.875 975.734 735.214C982.584 734.622 982.3 743.242 982.542 747.935C982.617 779.296 983.625 810.723 983.45 842.076C978.65 855.805 980.15 869.468 979.384 883.79C974.759 900.587 978.025 917.201 975.909 934.407L978.234 934.374C976.676 925.129 977.784 919.318 980.492 910.599C980.6 895.719 981.992 880.939 981.192 866.1C980.184 859.598 984.25 854.938 984.217 848.644C984.6 818.643 984.875 788.507 985.084 758.505C985.325 753.112 984.667 747.068 986.509 741.958C991.2 739.382 997.25 733.964 1002.73 734.656C1006.42 756.171 1001.9 779.046 1007.47 800.078C1007.6 825.32 1007.26 850.695 1008.22 875.937C1012.82 887.791 1010 899.162 1010.8 911.466C1011.07 924.362 1012.85 936.216 1010.66 948.52C1014.27 947.795 1014.42 941.434 1015.11 938.583C1016.39 929.297 1015.07 920.611 1013.09 911.566C1012.22 897.278 1013.79 883.615 1009.02 869.852C1008.89 842.009 1009.68 814.158 1008.64 786.315C1008.02 768.867 1009.76 751.861 1006.91 734.556C1006.94 728.604 1011.94 727.32 1016.15 724.786C1016.22 760.448 1012.78 795.768 1014.45 831.505C1015.56 842.942 1013.16 855.98 1017.61 866.617C1019.03 880.697 1016.6 895.752 1019.27 909.832C1022.02 916.292 1022.12 920.644 1021.05 927.488H1023.38C1022.12 918.101 1023.66 909.548 1019.91 900.72C1018.37 881.672 1021.5 860.323 1016.15 842.042C1017.22 819.443 1015.32 796.26 1018.69 773.869C1022.92 756.171 1018.72 739.04 1021.47 721.409C1025.32 719.567 1027.44 720.401 1027.76 723.877C1028.8 745.534 1026.51 767.192 1029.22 788.924C1032.93 805.396 1030.12 822.26 1034.08 838.808C1036.76 869.918 1041.86 901.596 1045.45 932.464C1051.84 968.268 1054.62 1008.46 1062.51 1043.54C1061.95 1054.41 1066.12 1063.93 1066.51 1074.65C1072.8 1106.77 1076.86 1140.14 1083.32 1172.2C1086.17 1204.38 1095.14 1236.64 1097.4 1268.8C1099.45 1269.05 1100.84 1267.34 1101.57 1263.69C1111.95 1259.9 1124.09 1261.95 1135.03 1258.79C1151.54 1258.51 1167.04 1254.44 1183.62 1254.55C1196.23 1251.35 1209.16 1251.07 1222.05 1252.56C1225.7 1260.14 1223.4 1271.55 1222.74 1279.86C1221.88 1284.58 1215.41 1285.52 1211.63 1287.09C1183.06 1295.4 1153 1300.36 1123.85 1306.31C1117.52 1307.28 1112.16 1309.37 1106.43 1305.37C1103.51 1304.85 1096.77 1306.52 1098.05 1310.55C1114.8 1318.72 1138.02 1309.19 1155.81 1307.84C1162.73 1307.84 1172.39 1303.98 1175.24 1312.84C1179.59 1336.97 1180.87 1360.37 1189.07 1382.62C1190.49 1387.52 1193.52 1392.77 1193.34 1397.88C1176.14 1398.36 1159.36 1401.63 1142.12 1402.43C1114.7 1406.15 1090.93 1396.25 1062.09 1395.1C1050.66 1393.43 1036.58 1392.63 1030.08 1381.54C1022.54 1368.85 1018.37 1354.01 1012.02 1340.73C1003.99 1328.97 993.458 1321.57 997.558 1305.55ZM1204.74 1332.22C1201.44 1350.19 1202.48 1368.79 1200.82 1386.79C1199.04 1390.16 1197.06 1391.42 1194.83 1390.48C1191.12 1378.24 1188.03 1365.94 1186.25 1353.28C1183.85 1336.87 1180.04 1318.86 1181.88 1302.32C1187.64 1297.38 1196.71 1295.95 1204.01 1294.8C1205.61 1307.12 1204.88 1319.8 1204.74 1332.22ZM1154.24 1924.87C1121.93 1934.61 1084.36 1937.04 1052.01 1926.61C1039.77 1921.36 1043.7 1907.9 1033.14 1900.16C1025.28 1893.59 1022.3 1889.42 1023.97 1878.68C1031.23 1879.44 1037.52 1891.16 1039.37 1897.63C1050.41 1903.12 1063.8 1905.03 1076.03 1905.7C1103.76 1906.39 1131.66 1904.55 1159.39 1903.37C1161.93 1910.26 1163.84 1922.73 1154.25 1924.89L1154.24 1924.87ZM1153.52 1880.4C1154.64 1884.75 1157.55 1890.58 1155.54 1894.86C1141.94 1900.35 1125.3 1898.86 1110.85 1900.25C1091.28 1899.69 1069.15 1902.79 1050.41 1896.73C1043.15 1894.47 1044.41 1887.94 1044.68 1881.86C1049.31 1868.41 1056.18 1856.03 1069.07 1849.01C1075.81 1852.41 1079.43 1858.05 1087.21 1859.4C1096.74 1860.24 1107.1 1860.69 1116.51 1858.91C1124.99 1857 1129.02 1845.12 1138.05 1849.81C1146.09 1857.45 1149.77 1870.22 1153.52 1880.4ZM1054.66 1783.83C1059.94 1774.82 1068.97 1776.94 1077.41 1779.2C1085.51 1781.81 1094.96 1778.4 1102.65 1781.53C1104.07 1785.42 1108 1789.98 1107.02 1794.22C1095.35 1795.4 1083.81 1794.57 1072.24 1797.42C1067.86 1798.04 1057.61 1800.79 1056.46 1794.29C1057.89 1789.07 1058.16 1788.31 1054.66 1783.83ZM1054.24 1739.01C1054.37 1729.66 1054.24 1709.85 1065.74 1706.65C1077.52 1707.07 1091.63 1704.49 1102.65 1708.74C1105.29 1718.75 1098.58 1727.44 1102.54 1736.75C1105.91 1745.52 1104.25 1756.29 1102.61 1765.36C1100.42 1769.47 1094.16 1769.33 1093.92 1774.09C1097.64 1775.62 1110.91 1771.42 1110.53 1776.91C1091.28 1776.14 1070.64 1773.4 1052.95 1765.51C1047.56 1759.74 1054.96 1746.59 1054.24 1739.01ZM1066.4 1802.32C1078.49 1800.27 1095.07 1797.59 1106.6 1801.76C1107.82 1805.31 1108 1808.65 1107.16 1811.81C1095.94 1815.29 1081.13 1812.89 1069.18 1812.92C1063.96 1811.74 1058.96 1804.3 1066.4 1802.32ZM1079.78 1818.27C1091.7 1818.38 1105.88 1816.96 1116.27 1823.56C1119.46 1825.26 1125.3 1831.94 1117.9 1832.01C1103 1829.64 1088.19 1830.72 1073.31 1831.9C1070.91 1825.26 1072.13 1819.67 1079.78 1818.27ZM1114.29 1805.55C1118.15 1805.07 1119.19 1806.87 1117.41 1810.94C1113.45 1811.36 1112.4 1809.58 1114.29 1805.55ZM1124.02 1837.19C1130.14 1846.19 1121.73 1853.84 1113.49 1856.45C1099.8 1859.4 1084.75 1858.88 1074.6 1847.93C1070.29 1843.09 1073.73 1836.56 1079.77 1835.62C1091.76 1833.64 1112.2 1834.23 1124.01 1837.19H1124.02ZM1135.52 1846.4C1130.59 1844.35 1130.93 1839.13 1135.7 1837.16C1139.97 1835.38 1139.73 1847.23 1135.52 1846.4ZM1126.8 1795.4C1127.84 1809 1136.66 1818.8 1134.93 1831.94C1130.9 1833.71 1128.19 1827.56 1125.93 1825.02C1126.41 1822.79 1126.97 1820.57 1127.6 1818.38C1126.28 1816.64 1124.82 1815.01 1123.22 1813.45C1118.45 1808.16 1124.78 1797.56 1115.33 1797.32C1116.13 1795.51 1116.65 1793.67 1116.9 1791.75C1114.25 1788.48 1111.58 1786.12 1111.2 1781.67C1115.54 1781.67 1117.17 1786.68 1121.72 1786.61L1121.8 1780.31C1117.65 1778.47 1117 1773.64 1113 1771.62C1102.2 1768.18 1110.46 1750.9 1111.44 1743.12L1114.64 1742.7C1115.4 1755.91 1117.97 1767.73 1121.8 1780.31C1123.91 1785.32 1126.17 1789.95 1126.8 1795.4ZM1127.15 1711.86C1128.05 1720.66 1127.87 1730.49 1124.85 1738.91C1123.18 1742.11 1122.49 1750.14 1117.62 1749.1C1115.92 1742.52 1116.55 1736.24 1117.38 1729.63C1113.87 1732.24 1110.85 1732.93 1108.35 1731.75C1107.06 1723.33 1111.47 1707.73 1102.33 1702.3C1089.51 1702.06 1076.44 1701.88 1063.62 1702.3C1055.97 1705.74 1054.86 1714.23 1050.66 1720.8C1046.76 1723.23 1040.37 1721.22 1037.45 1724.66C1030.16 1732.54 1031.65 1741.69 1032.45 1751.53C1035.02 1751.63 1037.62 1751.7 1040.2 1751.7C1042.91 1749.06 1043.81 1742.7 1048.01 1742.77C1049.13 1751.94 1046.04 1759.07 1040.96 1766.41C1042.46 1768.42 1044.57 1769.96 1047.36 1771.03C1051.36 1777.6 1046.87 1785.98 1050.76 1793.84C1046.76 1798.6 1041.24 1800.65 1041.1 1807.4C1043.74 1806.42 1046.31 1805.28 1048.78 1803.89C1058.55 1804.82 1062.41 1813.24 1063.45 1822.03C1060.91 1828.25 1054.62 1832.35 1050.14 1837.26C1050.24 1839.1 1051.46 1840.6 1053.82 1841.67C1055.73 1835.2 1056.29 1837.54 1061.81 1837.75C1065.29 1834.69 1063.16 1824.98 1068.62 1826.14C1069.46 1830.83 1071.79 1837.99 1068.28 1841.98C1063.9 1848.63 1057.54 1851.93 1052.01 1857.31C1046.91 1865.14 1043.53 1874.7 1040.93 1883.6C1035.82 1883.7 1030.67 1874.66 1027.31 1871.08C1019.77 1857.87 1026.92 1836.91 1026.4 1822.13C1027.44 1810.7 1022.86 1801.34 1020.98 1790.43C1019.27 1781.04 1025.71 1772.7 1025.15 1763.21C1024.63 1752.61 1021.61 1742.42 1022.3 1731.89C1022.86 1722.4 1026.16 1713.43 1026.43 1704.04C1027.07 1688.22 1019.56 1671.33 1020.84 1655.93C1055.73 1655.38 1097.22 1653.63 1131.45 1655.59C1133.44 1673 1119.22 1694.13 1127.15 1711.86ZM1049.92 1735.37C1046.06 1738.26 1039.47 1745.77 1034.67 1745.21C1031.71 1738.81 1037.79 1725.84 1044.64 1723.79C1048.15 1725.12 1049.89 1728.97 1049.92 1735.37ZM1134.48 1631.59C1137.09 1636.67 1136.18 1642.02 1133.65 1646.89C1113.55 1653.53 1093.47 1652.8 1072.62 1652.73C1054.79 1652.35 1034.74 1653.33 1017.61 1648.11C1014.45 1643.06 1014.9 1628.26 1023.93 1629.68C1035.62 1630.14 1046.73 1633.54 1058.51 1633.09C1084.3 1632.74 1108.9 1633.99 1134.48 1631.59ZM1132.11 1537.15C1133.44 1559.91 1132.53 1582.69 1126.9 1604.89C1124.78 1612.02 1126.62 1625.65 1117.55 1627.91C1099.41 1630.41 1080.55 1628.78 1062.23 1629.19C1054.79 1628.53 1043.67 1630.2 1040.58 1621.37C1027.27 1578.48 1025.36 1531.96 1036.1 1488.3C1028.83 1468.35 1028.77 1447.73 1031.44 1426.91C1040.65 1428.12 1049.34 1431.84 1058.65 1432.95C1079.43 1437.79 1102.2 1437.19 1123.6 1437.89C1122.73 1447.87 1121 1457.6 1121.48 1467.69C1121.45 1490.63 1130.55 1513.89 1132.11 1537.15ZM1178.58 1424.3C1163.59 1427.53 1147.79 1429.03 1132.56 1431.28C1096.42 1436.99 1059.06 1431.88 1025.36 1417.76C1018.13 1414.11 1006.56 1409.18 1004.02 1400.83C998.708 1381.23 1005.27 1360.61 1003.71 1339.96L1006.14 1340.17C1011.57 1349.66 1016.18 1360.69 1020.12 1370.94C1021.96 1378.03 1022.47 1380.43 1014.55 1382.13C1016.32 1384.43 1018.37 1386.03 1020.77 1387.04C1037.49 1395.16 1057.96 1397.71 1076.13 1401.15C1091.07 1404 1106.15 1405.94 1121.27 1407.61C1134.4 1408.9 1146.54 1405.63 1159.57 1405.18C1171.94 1404.73 1184.69 1399.62 1196.89 1402.5C1197.93 1412.72 1188.55 1422.7 1178.58 1424.3ZM1274.24 1481.13C1251.34 1477.56 1228.55 1464.38 1207.66 1454.48C1204.36 1452.35 1198.35 1450.72 1197.52 1446.51C1196.47 1439.74 1197.03 1432.61 1197.58 1425.79C1201.68 1406.57 1203.11 1386.72 1204.98 1367.18C1208.78 1343.5 1207 1318.86 1209.19 1295.01C1211.42 1290.7 1218.47 1289.79 1222.5 1287.44C1227.71 1278.29 1228.17 1265.7 1229.13 1255.62C1229.87 1247.94 1233.79 1241.62 1235.46 1234.28C1238.35 1210.43 1231.78 1186.07 1232.3 1162.67L1235.32 1162.39C1247 1211.65 1259.12 1262.4 1262.47 1313.02C1266.18 1341.91 1265.03 1371.71 1265.66 1400.73C1269.69 1420.89 1266.22 1442.59 1268.47 1462.99C1271.12 1466.26 1276.33 1467.02 1279.98 1468.97C1283.46 1473.73 1280.92 1482.04 1274.24 1481.13ZM1362.34 1414.33C1366.58 1423.3 1373.35 1432.93 1374.19 1442.94C1368.25 1452.67 1354.83 1457.85 1344.65 1461.81C1325.16 1468.84 1303.26 1460.8 1281.75 1460.32L1281.92 1457.61C1293.84 1448.77 1306.21 1440.81 1316.99 1430.53C1329.26 1421.28 1337.39 1411.48 1350.97 1405.08C1356.91 1403.76 1359.84 1410.15 1362.34 1414.33ZM1480 1325.01C1472.18 1338.71 1461.13 1351.23 1448.17 1360.27C1429.34 1372.61 1408.76 1370.28 1386.59 1378.45C1371.65 1383.32 1359.17 1391.9 1346.7 1401.18C1324.74 1415.68 1306.6 1436.12 1284.21 1449.92C1280.02 1452.29 1276.78 1454.76 1271.71 1453.02C1268.92 1424.62 1271.29 1395.45 1269.9 1366.87C1268.58 1348.21 1270.38 1329.88 1266.7 1311.46C1263.96 1261.05 1252.49 1210.88 1238.9 1162.46C1234.11 1148.25 1227.16 1131.73 1229.03 1116.61C1232.48 1101.28 1238.38 1087.17 1243.62 1072.46C1248.94 1056.64 1239.6 1043.12 1232.58 1029.6C1224.58 1015.2 1213.05 1001.02 1197.06 995.386C1189.45 993.619 1186.6 999.871 1179.96 1001.05C1175.31 991.393 1189.93 973.345 1200.15 981.69C1211.42 989.759 1220.38 1001.26 1230.18 1011.03C1235.84 1016.28 1239.04 1024.9 1245.85 1028.45C1239.11 1013.33 1227.29 1003.59 1215.79 990.726C1209.02 983.015 1200.36 977.655 1193.13 970.602C1195.46 964.417 1196.88 961.908 1202.93 958.99C1201.82 953.322 1191.08 950.888 1187.71 945.886C1183.16 939 1181.32 929.93 1180 921.861C1179.75 909.173 1188.06 896.627 1190.46 885.357L1188.33 885.565C1184.93 893.701 1181.77 903.438 1176.49 910.39L1173.92 910.499C1170.48 892.868 1167.66 874.27 1170.06 856.23C1172.04 851.537 1174.85 842.742 1180.28 841.417C1188.13 851.67 1191.15 866.901 1195.15 878.963C1206.2 905.28 1216.32 933.998 1230.46 958.715C1258.57 1005.09 1289.08 1049 1314.94 1096.8C1330.44 1130.58 1338.91 1165.59 1351.15 1200.46C1352.22 1210.58 1358.83 1219.79 1358.27 1229.8L1360.74 1229.62C1355.31 1204.39 1346.35 1179.81 1339.95 1154.78C1331.4 1128.05 1324.01 1102.46 1308.86 1078.41C1285.22 1034.36 1259.16 991.493 1233.69 948.528C1207 897.669 1185.98 842.709 1168.11 788.199C1166.89 783.572 1164.68 777.837 1166.17 773.144C1168.64 773.035 1170.62 774.394 1172.08 777.278C1201.58 824.695 1229.42 872.494 1262.95 917.484C1261.52 910.699 1257.6 905.839 1253.74 900.312C1227.23 859.423 1200.92 818.026 1177.6 775.228C1175.03 770.226 1171.34 764.382 1171.73 758.614C1174.58 750.028 1190.39 747.035 1192.75 738.273C1187.19 733.197 1179.89 733.655 1176.28 727.186C1176.59 722.977 1179.2 720.718 1184.1 720.376C1189.93 719.642 1189.69 725.027 1194.21 725.936C1194.18 723.327 1193.62 720.926 1192.58 718.775C1188.48 716.199 1181.08 713.798 1184.14 707.513C1191.5 690.407 1194.38 672.743 1193.9 654.145C1194.14 644.242 1204.63 656.062 1206.44 659.255C1213.63 685.606 1215.79 711.856 1225.69 737.615C1227.71 742.725 1225.24 747.593 1227.92 752.428C1240.12 773.077 1251.37 794.318 1262.39 815.625C1267.37 824.528 1267.26 834.706 1272.12 843.676C1279.28 865.442 1283.7 887.549 1290.44 909.24C1293.53 919.669 1295.09 930.797 1301.35 939.867C1315.31 960.833 1331.37 977.863 1340.13 1001.95C1349.27 1028.86 1358.45 1055.77 1366.92 1082.85C1369.56 1095.54 1375.37 1106.87 1379.15 1119.14C1388.71 1147.75 1408.41 1173.94 1423.91 1199.7C1441.43 1228.27 1457.48 1257.51 1471.18 1288.14C1475.55 1300.68 1483.06 1311.11 1480 1325.01ZM1181.18 953.738C1185.52 951.129 1195.08 954.505 1195.08 960.032C1191.28 965.734 1186.77 972.786 1180.9 976.438C1179.62 968.893 1177.99 961.074 1181.18 953.738Z" fill="#191818"/>
<path d="M910.595 1163.73C923.378 1161.76 928.42 1176.9 924.511 1186.93C928.42 1176.9 923.386 1161.76 910.603 1163.73C905.937 1165.04 902.937 1168.15 901.412 1171.94C902.937 1168.15 905.945 1165.04 910.603 1163.73H910.595Z" fill="#191818"/>
<path d="M1030.13 217.313C1034.58 236.611 1039.1 255.451 1037.57 275.441C1034.2 309.511 1025.76 341.947 1001.78 367.531C999.034 370.14 996.742 376.6 992.359 375.492C990.384 352.267 994.376 326.508 995.767 302.975C999.517 289.554 996.842 276.308 999.1 262.753H996.775C999.175 271.231 993.442 277.041 994.201 285.553C994.242 305.443 990.901 324.841 984.993 343.747C980.584 358.286 972.418 369.823 964.318 382.444L961.368 382.794C959.352 377.509 960.46 371.107 960.077 365.513C960.393 349.383 949.344 334.053 944.611 319.831C946.319 306.552 945.869 293.514 946.111 280.134H942.011C941.869 289.379 943.677 300.716 940.236 309.336C932.836 309.161 924.911 306.276 917.228 305.685C916.637 302.692 916.053 299.674 915.387 296.681L912.437 296.44C911.395 301.583 914.97 309.269 906.145 305.718C902.112 297.69 915.912 294.106 913.337 285.869C909.095 252.6 901.52 214.604 908.37 181.509C908.754 172.089 911.362 163.328 913.128 154.116L916.428 153.766C918.345 177.408 924.878 199.657 936.519 220.306C948.577 240.988 959.31 262.787 964.843 286.253C966.577 297.865 971.86 306.968 968.943 319.072L971.268 319.106C970.501 312.537 970.435 306.001 970.435 299.391C968.901 269.431 955.319 244.956 940.586 219.647C930.261 201.641 923.695 183.46 920.395 162.944C916.262 148.689 922.028 138.261 922.62 123.489L920.636 124.465C914.312 144.905 904.687 162.319 905.829 184.427C900.97 196.181 905.487 208.902 898.462 219.122C880.671 248.915 868.755 281.768 863.33 316.046C862.638 322.299 858.122 324.908 854.614 329.709C864.372 329.426 860.655 344.481 860.972 350.842L863.613 350.808C863.647 342.639 862.322 332.802 865.172 325.083C872.855 319.798 885.088 315.138 894.329 313.921C890.546 326.025 880.813 336.42 875.771 347.849C884.638 343.714 889.329 328.384 895.546 320.873C899.579 314.337 909.52 314.829 915.528 317.714C917.753 328 920.57 338.154 922.511 348.482C909.062 348.232 897.146 345.94 884.013 350.875C872.746 356.477 861.872 364.396 859.855 377.717L858.047 377.576C850.372 358.944 847.522 339.613 843.247 320.114C840.847 287.437 847.206 254.826 863.23 226.107C866.98 216.379 874.905 209.944 877.271 199.757C844.431 240.537 830.906 298.557 846.481 349.349C850.056 359.986 847.031 370.031 852.905 380.218C857.597 388.454 862.047 401.075 870.388 406.01C866.705 391.172 864.58 373.441 880.988 366.247C879.629 380.252 878.28 392.873 887.763 404.585C896.279 418.873 921.228 416.722 927.553 401.559C932.036 390.647 930.853 377.126 928.069 365.897C930.994 366.489 933.878 367.047 936.761 367.597C935.369 363.529 930.994 359.92 931.028 355.643C932.803 352.125 937.286 350.667 939.961 347.749C941.836 343.714 942.461 339.096 943.852 334.853L946.627 334.819C957.093 352.234 961.468 372.324 958.893 392.556C970.435 381.819 978.776 366.347 986.659 352.792L989.442 352.334C992.434 364.646 987.217 373.824 985.968 385.57C996.25 382.619 1003.93 370.973 1011.89 364.054C1023.77 351.05 1028.47 329.709 1034.52 313.404C1039.62 294.389 1041.4 277.558 1040.18 257.852C1039.27 253.125 1040.77 249.474 1044.62 246.965C1034.52 223.782 1027.28 190.754 1010.92 171.847C1016.06 187.311 1026.28 201.116 1030.13 217.313ZM896.829 308.01C888.113 310.828 876.813 316.88 868.022 316.597L867.43 313.471C872.438 281.868 884.013 252.083 899.262 224.132L901.804 223.298C903.12 237.303 903.02 250.933 906.079 264.729C909.895 279.267 905.487 296.231 896.829 308.01ZM909.345 314.338C904.379 314.896 902.329 313.746 903.162 310.895C906.704 308.044 917.795 310.62 909.345 314.338ZM925.053 398.641C920.57 410.704 902.737 416.23 893.812 405.527C884.288 396.557 884.321 384.978 884.946 372.782C886.338 366.622 890.921 362.212 896.796 360.261C908.229 356.544 921.711 361.762 925.086 373.924C926.303 381.61 928.486 391.38 925.053 398.641ZM932.103 346.323C931.061 349.7 929.428 351.117 927.203 350.566C924.286 342.605 922.928 334.086 920.67 325.883C918.62 320.456 922.586 315.938 920.57 310.486C927.311 309.753 933.353 311.978 939.336 314.829C940.827 324.874 934.953 336.662 932.103 346.323Z" fill="#191818"/>
<path d="M1110.34 396.524C1133.41 366.455 1135.15 322.198 1133.59 285.936C1127.2 239.562 1111.87 195.38 1079.76 160.477C1058.32 141.462 1029.41 128.949 1000.53 129.783C1008.73 140.211 1020.09 149.039 1028.37 159.71C1056.82 195.797 1073.12 242.488 1074.48 288.303C1075.14 294.356 1076.63 299.707 1075.24 305.826C1069.09 309.644 1066.31 307.077 1063.63 301.308C1059.67 283.544 1055.12 262.37 1044.62 246.964C1048.21 267.096 1059.82 285.486 1061.16 306.693C1057.38 307.177 1053.52 307.285 1049.6 307.077L1049.25 309.644C1053.38 309.302 1057.52 309.369 1061.62 309.819L1061.55 313.537C1058.7 315.071 1048.17 311.77 1049.15 316.563C1053.46 316.113 1057.66 316.288 1061.72 317.122C1066.24 323.766 1068.36 333.811 1065.41 341.388C1055.82 344.339 1045.84 344.864 1036.46 348.899C1036.74 350.875 1037.02 352.892 1037.3 354.876C1035 359.711 1031.14 363.604 1028.85 368.464C1033.12 367.63 1037.37 366.313 1041.67 365.963C1041.92 380.777 1039.66 393.389 1049.67 406.119C1057.14 411.887 1067.39 415.263 1076.49 411.087C1085.74 408.895 1088.72 399.925 1091.92 392.072C1095.33 383.378 1094.04 375.108 1093.76 366.105C1100.16 366.247 1105.37 378.409 1107.39 383.628C1109.71 398.291 1098.63 403.993 1091.2 413.763C1099.08 411.195 1105.2 402.709 1110.34 396.524ZM1073.61 253.158C1069.82 232.61 1062.76 212.103 1053.91 193.154C1053.52 180.258 1039.31 169.096 1032.5 158.843C1028.05 151.232 1014.53 144.346 1013.77 135.968C1018.39 133.568 1024.99 136.143 1029.79 137.327C1052.03 143.896 1074.72 157.001 1088.1 176.332C1110.16 204.317 1123.2 240.262 1129.35 275.057C1130.35 308.085 1132.16 339.688 1120.8 371.315L1118.16 371.598C1115.76 355.051 1108.08 337.287 1107.95 320.915C1111.59 318.689 1116.39 322.373 1120.28 323.207C1117.08 316.772 1108.01 318.964 1105.26 312.045C1099.81 297.34 1095.88 282.01 1090.53 267.238C1088.56 260.911 1085.18 255.834 1085.87 248.982L1083.34 249.057C1087.72 269.464 1093.14 288.095 1089.01 309.269C1083.16 311.486 1080.25 308.744 1079.45 302.975C1078.76 295.531 1079.1 288.237 1077.16 280.968C1074.51 271.648 1077.19 262.37 1073.61 253.158ZM1099.71 312.153C1094.11 314.762 1091.06 304.784 1093.97 301.033C1098.28 299.574 1100.89 309.236 1099.71 312.153ZM1082.47 333.602L1079.31 334.261C1077.82 328.942 1075.39 313.787 1082.86 312.22C1091.41 313.579 1083.51 328.526 1082.47 333.602ZM1069.09 313.754H1072.71C1075.52 321.923 1073.99 332.702 1072.81 341.213L1069.16 341.146C1068.09 332.769 1066.38 321.748 1069.1 313.754H1069.09ZM1082.06 402.817C1074.27 411.887 1060.65 411.854 1052.34 403.443C1046.61 397.949 1047.62 391.097 1046.51 383.869C1044.21 374.099 1047.13 364.679 1055.47 358.869C1067.25 353.067 1082.99 358.419 1088.31 370.59C1091.06 381.435 1088.69 393.806 1082.06 402.817ZM1099.88 355.743C1094.63 350.566 1086.4 349.733 1081.46 344.623C1084.56 335.72 1088.21 327.2 1090.67 318.064C1094.5 318.722 1101.83 316.146 1102.52 321.64C1105.16 335.72 1111.04 350.741 1111.28 364.888C1106.59 364.538 1103.53 358.419 1099.88 355.743Z" fill="#191818"/>
<path d="M1066.24 373.716C1065.23 377.784 1064.47 381.885 1064.01 386.062C1065.13 387.729 1066.52 388.596 1068.19 388.663C1073.01 385.603 1072.77 372.849 1066.24 373.716Z" fill="#191818"/>
<path d="M903.437 377.509C903.678 380.985 901.42 389.33 906.387 389.88C908.337 389.221 909.97 387.938 911.32 386.02C909.862 381.294 910.07 376.359 903.437 377.509Z" fill="#191818"/>
<path d="M969.984 477.877L969.459 480.486C976.859 479.336 981.584 474.642 989.233 475.376C996.183 475.409 1001.57 479.169 1008.56 480.278C1008.42 477.952 1006.99 476.526 1004.28 476.034C994.166 474.05 979.225 473.183 969.984 477.877Z" fill="#191818"/>
<path d="M948.227 877.337C951.877 869.06 949.444 856.03 939.127 853.805C932.419 851.787 928.419 855.78 924.353 860.44C923.278 866.459 923.211 872.886 924.494 878.863C929.361 886.374 944.685 886.549 948.227 877.337ZM931.028 859.331C934.852 856.964 943.819 857.556 944.51 863.191C947.744 870.627 943.502 881.822 934.052 880.222C923.728 879.213 923.311 863.85 931.028 859.331Z" fill="#191818"/>
<path d="M920.919 987.016C926.335 989.134 934.019 990.251 938.36 985.483C946.076 978.355 943.052 964.175 935.685 957.99C930.852 956.773 926.027 956.914 921.227 958.165C912.228 966.126 912.119 978.88 920.919 987.016ZM924.352 960.632C939.502 954.48 943.643 982.048 929.777 984.582C916.186 986.741 914.553 965.884 924.352 960.632Z" fill="#191818"/>
<path d="M1255.11 1090.51C1251.32 1081.36 1255.52 1075.21 1259.8 1067.43C1265.82 1061.27 1259.84 1044.45 1253.55 1041.63C1254.73 1046.89 1256.5 1052.16 1257.23 1057.45C1257.09 1066 1250.04 1074.24 1246.46 1081.92C1261.19 1113.87 1270.33 1149.19 1281.38 1182.67C1299.52 1241.14 1312.14 1301.42 1330.17 1359.97C1332.19 1362.71 1332.3 1372.72 1336.4 1372.24C1325.17 1327.95 1313.18 1283.66 1299.91 1239.96C1286.91 1189.2 1272.56 1140.02 1255.11 1090.51Z" fill="#191818"/>
<path d="M933.253 1074.51C934.503 1063.33 925.645 1054.53 914.42 1059.08C907.437 1062.91 909.52 1077.33 910.77 1083.83C918.278 1094.02 933.769 1086.33 933.253 1074.51ZM917.512 1061.76C921.436 1059.02 925.886 1063.5 928.386 1066.28C933.636 1073.45 927.728 1083.42 919.903 1084.81C909.412 1084.95 909.762 1065.03 917.512 1061.76Z" fill="#191818"/>
<path d="M915.736 1195.01C920.078 1193.99 922.978 1190.84 924.511 1186.93C922.978 1190.85 920.078 1193.99 915.744 1195.01C903.278 1195.64 897.52 1181.62 901.412 1171.94C897.512 1181.61 903.278 1195.64 915.744 1195.01H915.736Z" fill="#191818"/>
<path d="M915.736 1195C920.077 1193.98 922.977 1190.84 924.502 1186.92C928.41 1176.89 923.377 1161.75 910.586 1163.72C905.928 1165.03 902.92 1168.14 901.395 1171.93C897.503 1181.6 903.261 1195.63 915.728 1195H915.736Z" fill="#191818"/>
</g>
<defs>
<clipPath id="clip0_157_109">
<rect width="971" height="1887" fill="white" transform="translate(514 57)"/>
</clipPath>
</defs>
</svg>
