<svg width="2000" height="2000" viewBox="0 0 2000 2000" fill="none" xmlns="http://www.w3.org/2000/svg">
<g clip-path="url(#clip0_157_111)">
<path fill-rule="evenodd" clip-rule="evenodd" d="M937.201 54.3064C846.838 78.4105 771.328 136.729 722.462 220.19C694.312 268.264 672.24 336.442 659.597 414.362C650.152 472.53 618.35 563.891 585.075 628.403C565.532 666.3 527.116 723.481 496.956 759.57C473.478 787.674 407.028 851.015 344.966 904.479C294.342 948.084 235.361 1007.86 220.825 1030.31C198.804 1064.27 191.301 1088.81 191.033 1127.59C190.816 1160.02 191.268 1162.16 203.576 1187.07C214.763 1209.68 218.497 1214.13 233.72 1222.87C243.282 1228.34 258.638 1235.29 267.849 1238.29C296.468 1247.61 334.232 1263.8 348.231 1272.75C366.736 1284.59 401.485 1284.89 423.59 1273.41C445.913 1261.81 469.693 1243.03 481.248 1227.88C486.875 1220.51 490.492 1217.3 489.303 1220.71C488.114 1224.14 484.028 1244.48 480.226 1265.91C476.425 1287.33 471.351 1307.89 468.973 1311.57C457.334 1329.52 357.392 1426.02 324.803 1450.77C304.557 1466.16 281.547 1485.19 273.677 1493.06C255.373 1511.33 239.43 1536.46 239.162 1547.42L238.945 1555.98L235.528 1547.61C229.801 1533.56 237.873 1489.98 251.019 1464.06C263.813 1438.82 298.076 1404.69 361.645 1353.85C393.028 1328.76 422.435 1305.56 426.99 1302.3C435.061 1296.52 434.978 1296.52 423.573 1301.88C401.25 1312.39 320.165 1375.48 285.165 1409.58C266.844 1427.42 265.806 1427.97 268.117 1418.62C275.552 1388.45 307.303 1337.03 336.81 1307.35C346.44 1297.66 353.44 1288.87 352.385 1287.82C351.33 1286.75 340.043 1296.19 327.315 1308.78C298.495 1337.28 272.136 1379.58 264.466 1409.66C261.318 1422 253.062 1443.54 246.095 1457.55C222.751 1504.57 221.328 1545.43 241.44 1591.8C248.993 1609.22 250.701 1618.38 251.253 1644.68C251.655 1663.91 254.033 1682.12 257.249 1690.74C268.268 1720.3 294.727 1750.2 318.741 1760.23C336.04 1767.46 336.023 1764.16 318.708 1754.02C291.947 1738.33 275.268 1713.62 264.165 1673.13C261.636 1663.93 259.543 1650.4 259.526 1643.09L259.493 1629.8L265.019 1638.06C276.708 1655.57 295.397 1672.41 313.215 1681.49C331.1 1690.59 371.727 1701 375.327 1697.4C376.282 1696.45 370.303 1692.38 362.047 1688.38C322.894 1669.43 300.186 1622.31 303.921 1567.76C306.55 1529.41 323.866 1492 356.621 1453.85L366.686 1442.14L356.638 1462.22C341.901 1491.68 335.471 1528.14 337.179 1572.58C338.385 1603.9 340.009 1612.59 347.796 1629.61C352.853 1640.66 361.813 1654.79 367.691 1661.01C381.172 1675.26 406.174 1691.55 414.581 1691.55C418.65 1691.55 420.341 1693.24 419.203 1696.18C400.597 1744.64 396.176 1787.71 406.375 1821.26C410.294 1834.18 416.54 1848.31 420.258 1852.68L427.006 1860.61L420.375 1844.62C404.918 1807.38 404.583 1769.87 419.236 1717.21C423.439 1702.11 426.554 1696.97 432.985 1694.53C437.557 1692.78 441.793 1691.85 442.38 1692.43C442.966 1693.04 438.779 1707.77 433.052 1725.17C420.341 1763.84 418.533 1803.16 428.179 1831.28C431.494 1840.92 435.229 1849.44 436.485 1850.23C437.758 1851.02 438.243 1835.58 437.573 1815.95C436.753 1791.8 438.193 1770.52 442.028 1750.13C445.143 1733.56 448.475 1715.06 449.447 1709.02C450.937 1699.58 452.193 1698.36 458.339 1700.33C473.042 1705.05 489.269 1708.13 499.82 1708.2C512.965 1708.3 513.133 1709.46 502.03 1722.65C494.377 1731.74 493.59 1734.98 495.332 1749.91C497.207 1765.85 496.42 1768.26 482.219 1790.07C464.15 1817.79 459.076 1834.6 461.939 1857.18C468.035 1905.12 506.15 1939.99 561.982 1948.69C586.264 1952.47 582.965 1949.08 552.788 1939.22C495.382 1920.47 469.09 1892.08 469.09 1848.89C469.09 1826.5 473.695 1814.03 491.848 1787.29C506.133 1766.25 508.879 1784.18 495.7 1812.57C484.145 1837.48 478.267 1864.68 483.358 1869.77C486.339 1872.73 487.26 1872.06 487.26 1866.9C487.26 1863.19 489.604 1852.26 492.468 1842.62L497.676 1825.09L518.425 1846.78C534.468 1863.56 547.329 1872.76 575.178 1887.39C594.972 1897.8 611.183 1904.98 611.183 1903.36C611.183 1901.74 595.693 1891.19 576.752 1879.93C541.2 1858.8 507.355 1827.8 507.355 1816.35C507.355 1812.97 509.717 1806.84 512.597 1802.73C517.42 1795.85 517.286 1793.72 510.922 1776.75C501.762 1752.28 502.013 1737.75 511.81 1726.36L519.631 1717.27L526.798 1732.02C530.733 1740.14 538.705 1752.53 544.499 1759.52C554.982 1772.21 597.719 1806.54 600.08 1804.18C600.767 1803.51 589.111 1791.09 574.207 1776.6C545.085 1748.27 536.946 1737.19 529.26 1715.4L524.353 1701.49L535.908 1694.01C542.255 1689.89 547.48 1684.65 547.496 1682.34C547.547 1676.98 545.939 1677.08 534.334 1683.08C526.145 1687.31 522.36 1687.36 507.406 1683.49C480.394 1676.48 478.87 1673.74 479.004 1632.01C479.071 1609.54 480.796 1592.38 483.609 1586.09L488.08 1576.05L493.355 1587.76C497.877 1597.84 498.798 1598.48 499.82 1592.3C500.489 1588.3 493.372 1569.97 483.726 1550.89C474.214 1532.06 465.674 1510.43 464.753 1502.83L463.078 1489L475.42 1509.09C500.824 1550.44 540.898 1596.23 567.642 1614.45L579.365 1622.43L571.008 1612.64C566.42 1607.23 552.721 1592.28 540.597 1579.39C513.401 1550.5 482.085 1508.39 473.863 1489.66C467.265 1474.63 464.334 1451.12 468.253 1444.78C469.576 1442.64 475.47 1441.52 481.466 1442.25C546.609 1450.37 581.157 1456.18 611.836 1464.18L624.195 1467.39L625.233 1507.5C625.802 1529.56 625.602 1547.61 624.781 1547.59C623.96 1547.57 619.439 1543.99 614.733 1539.59C610.027 1535.19 586.582 1518.55 562.635 1502.6C526.982 1478.86 521.841 1476.22 534.284 1488C542.64 1495.92 565.599 1513.33 585.293 1526.68C605.003 1540.04 623.24 1554.35 625.819 1558.49C628.398 1562.62 631.463 1574.76 632.635 1585.45L634.762 1604.92L623.609 1596.42C607.365 1584.03 568.346 1564.33 560.073 1564.33C555.719 1564.33 565.08 1571.49 584.087 1582.73C635.967 1613.36 639.35 1616.89 651.156 1652.31C656.817 1669.3 661.455 1685.9 661.455 1689.2C661.455 1697.52 653.484 1712.13 636.068 1735.8C627.929 1746.85 621.264 1757.51 621.264 1759.49C621.264 1765.55 641.109 1744.58 654.975 1723.87L668.07 1704.3L671.872 1713.83C673.965 1719.06 676.695 1733.14 677.917 1745.11C679.156 1757.08 681.987 1770.17 684.197 1774.19C686.424 1778.2 688.233 1792.82 688.233 1806.64C688.233 1828.82 687.362 1832.39 680.781 1836.99C668.841 1845.34 658.374 1843.35 646.568 1830.48C633.74 1816.47 628.247 1815.15 636.252 1827.97C649.7 1849.51 669.862 1855.45 684.197 1842.1C692.386 1834.48 694.463 1827.67 695.719 1804.08L696.589 1787.71L709.166 1806.02C716.082 1816.08 725.41 1827.77 729.915 1831.99C737.534 1839.15 737.735 1840.19 732.946 1847.5C724.221 1860.81 731.891 1874.97 765.283 1907.14C793.082 1933.94 802.091 1940.27 802.091 1933.01C802.091 1931.4 787.02 1915.83 768.599 1898.41C746.795 1877.78 735.106 1864.29 735.106 1859.69C735.106 1849.48 740.733 1847.55 743.111 1856.96C745.271 1865.58 770.893 1890.1 795.142 1906.78C804.754 1913.39 814.651 1917.22 822.907 1917.54C829.974 1917.79 837.51 1919.78 839.687 1921.96C841.847 1924.12 845.213 1925.89 847.139 1925.89C849.065 1925.89 839.352 1915.51 825.536 1902.83C811.721 1890.14 801.271 1878.87 802.309 1877.78C804.335 1875.66 859.498 1904.11 888.335 1922.16C912.919 1937.54 917.39 1933.61 893.727 1917.44C872.644 1903.01 832.252 1864.66 832.252 1859.05C832.252 1852.96 838.414 1855.34 840.625 1862.28C841.797 1865.97 844.158 1868.98 845.866 1868.98C851.326 1868.98 849.249 1861.88 840.859 1851.92C836.237 1846.43 831.079 1833.96 828.886 1822.98C826.776 1812.37 820.881 1785.23 815.807 1762.69C810.733 1740.14 806.998 1721.68 807.534 1721.68C808.07 1721.68 832.302 1732.02 861.407 1744.66L914.326 1767.64L916.888 1802.41C921.175 1860.54 931.507 1914.32 941.94 1932.89C947.014 1941.93 952.306 1949.33 953.679 1949.33C957.012 1949.33 956.979 1949.04 951.117 1932.45C945.44 1916.35 932.747 1820.24 932.747 1793.29C932.747 1782.29 934.304 1775.27 936.933 1774.39C940.215 1773.28 940.249 1771.93 937.05 1768.06C933.852 1764.18 934.739 1746.23 941.304 1682.99C945.876 1638.9 950.581 1576.21 951.754 1543.67L953.88 1484.52L962.203 1489.98L970.526 1495.43L968.282 1557.52C967.043 1591.66 963.443 1648.21 960.278 1683.19C954.165 1750.63 952.742 1830.21 957.196 1856.19C959.708 1870.84 959.39 1871.93 952.172 1873.31C946.294 1874.44 946.998 1874.89 955.153 1875.24C961.031 1875.49 966.775 1877.2 967.914 1879.06C969.304 1881.3 972.067 1881.3 976.27 1879.06C979.72 1877.2 985.665 1875.69 989.466 1875.69C995.462 1875.69 996.416 1877.83 996.617 1891.59C996.751 1900.33 998.124 1910.51 999.665 1914.19C1001.34 1918.18 1001.74 1911.26 1000.65 1897.1L998.828 1873.31L1009.86 1869.46C1015.94 1867.36 1021.79 1866.5 1022.88 1867.57C1023.96 1868.66 1025.61 1889.38 1026.53 1913.62C1028.15 1956.42 1028.32 1957.26 1032.39 1941.99C1034.7 1933.36 1036.57 1919.48 1036.57 1911.16C1036.57 1896.41 1036.89 1895.95 1049.65 1892.51C1056.85 1890.57 1082.71 1880.71 1107.11 1870.59C1131.51 1860.46 1152.22 1852.93 1153.13 1853.83C1154.03 1854.73 1155.51 1866.67 1156.38 1880.34L1157.97 1905.2L1142.03 1922.26C1133.25 1931.63 1127.49 1939.3 1129.23 1939.3C1130.97 1939.3 1137.57 1933.89 1143.92 1927.3C1150.27 1920.7 1190.12 1889.17 1232.49 1857.21C1314.9 1795.08 1321.7 1789.47 1330.02 1776.78C1332.98 1772.26 1336.74 1768.56 1338.38 1768.56C1342.95 1768.56 1341.66 1802.73 1336.75 1811.55C1322.15 1837.84 1260.2 1883.98 1203.77 1910.56C1170.44 1926.24 1132.5 1949.11 1139.51 1949.26C1147.2 1949.41 1259.03 1893.02 1284.4 1876.18C1305.69 1862.07 1309.67 1860.44 1310.54 1865.56C1311.11 1868.9 1319.02 1877.88 1328.13 1885.57C1337.24 1893.25 1344.69 1901.5 1344.69 1903.95C1344.69 1906.39 1335.61 1911.75 1324.53 1915.9C1303.76 1923.65 1296.16 1929.34 1306.81 1929.14C1322.12 1928.87 1467.19 1869.11 1499.53 1849.76C1513.76 1841.24 1524.85 1833.69 1524.14 1833.01C1523.44 1832.3 1513.31 1836.61 1501.6 1842.56C1462.22 1862.6 1351.39 1905.05 1351.39 1900.08C1351.39 1897.55 1344.61 1888.25 1336.32 1879.39C1328.03 1870.52 1321.25 1861.36 1321.25 1859.02C1321.25 1856.68 1328.78 1844.59 1337.99 1832.17C1347.2 1819.75 1354.74 1807.25 1354.74 1804.4C1354.74 1795.23 1370.85 1779.71 1388.05 1772.31C1411.61 1762.18 1535.2 1726.87 1537.84 1729.51C1538.3 1729.96 1530.07 1735.47 1519.56 1741.73C1496.7 1755.37 1423.47 1807.55 1399.95 1826.96C1370.75 1851.09 1370.33 1851.17 1382.91 1830.31C1389.5 1819.36 1394.91 1809.29 1394.91 1807.9C1394.93 1801.6 1388.83 1806.49 1382.39 1817.94C1378.5 1824.86 1368.42 1840.97 1360 1853.78C1351.57 1866.57 1344.69 1878.49 1344.69 1880.23C1344.69 1881.97 1353.38 1875.27 1364.02 1865.31C1384.04 1846.57 1406.42 1829.88 1497.08 1765.98C1538.58 1736.74 1555.78 1726.65 1573.35 1721.26C1598.48 1713.56 1603.99 1707.41 1601.9 1689.5C1601.16 1683.28 1601.6 1678.17 1602.84 1678.17C1607.83 1678.17 1632.73 1704.55 1632.73 1709.84C1632.73 1718.33 1599.02 1751.92 1577.4 1764.98C1566.93 1771.31 1540.61 1782.71 1518.87 1790.32C1478.61 1804.42 1434.65 1829.02 1409.42 1851.57C1395.08 1864.38 1391.76 1866.08 1450.63 1830.35C1470.99 1817.98 1499.09 1804.65 1520.96 1796.97C1573.75 1778.42 1588.13 1770.32 1613.8 1744.66C1626.45 1732.02 1637.58 1721.69 1638.57 1721.69C1639.56 1721.69 1639.41 1728.62 1638.24 1737.09C1633.08 1774.74 1596.4 1820 1553.42 1841.8C1514.93 1861.31 1473.15 1885.73 1478.28 1885.73C1483.69 1885.73 1589.17 1851.87 1606.79 1844.47C1613.7 1841.58 1619.35 1839.77 1619.35 1840.46C1619.35 1841.14 1611.68 1859.27 1602.32 1880.73C1575.25 1942.73 1587.04 1933.59 1620.6 1866.54C1630.97 1845.86 1639.44 1825.37 1639.44 1821.02C1639.44 1810.78 1628.22 1800.48 1620.34 1803.51C1614.93 1805.59 1615.11 1806.38 1622.41 1811.87C1632.91 1819.78 1629.85 1827.58 1613.55 1834.38C1595.85 1841.78 1518.87 1868.63 1518.87 1867.41C1518.87 1866.85 1530.14 1861.04 1543.92 1854.5C1571.15 1841.58 1610.69 1811.9 1624.12 1794.31C1635.14 1779.84 1645.3 1756.61 1648.02 1739.57C1651.97 1714.86 1630.23 1682.64 1598.95 1666.89C1592.12 1663.44 1591.06 1660.81 1592.05 1649.73C1592.7 1642.53 1594.58 1633.09 1596.24 1628.76C1598.24 1623.5 1606.03 1626.1 1619.63 1636.54C1650.91 1660.6 1720.98 1731.2 1734.11 1751.87C1740.54 1762.03 1748.26 1777.52 1751.24 1786.31C1760.7 1814.18 1757.29 1857.71 1744.48 1872.61C1737.38 1880.86 1739.13 1884.14 1746.9 1877.11C1758.53 1866.59 1764.34 1848.93 1764.4 1823.8C1764.47 1794.26 1755.61 1768.93 1735.11 1740.24C1719.69 1718.63 1668.16 1669.27 1623.53 1633.34C1601.58 1615.68 1599.25 1612.66 1599.25 1601.88C1599.25 1595.31 1597.44 1584.94 1595.23 1578.83C1592.35 1570.86 1592.23 1566.69 1594.83 1564.1C1597.43 1561.5 1601.35 1565.53 1608.68 1578.34C1623.23 1603.77 1650.81 1633.04 1697.35 1672.43C1719.59 1691.24 1745.87 1716.44 1755.78 1728.41C1801.01 1783.09 1809.3 1837.78 1777.65 1872.8C1760.23 1892.06 1742.58 1900.25 1722.59 1898.32C1705.19 1896.67 1701.45 1900.36 1714.53 1906.32C1736.92 1916.52 1777.35 1896.45 1795.74 1866.03C1809.49 1843.3 1812.38 1822.21 1805.45 1795.21C1793.33 1747.86 1765.53 1712.59 1700.13 1661.6C1676.89 1643.47 1650.09 1620.57 1640.6 1610.73C1621.83 1591.28 1602.6 1562.81 1602.62 1554.5C1602.62 1551.64 1607.09 1538 1612.55 1524.19C1622.91 1497.93 1624.84 1478.78 1619.4 1455.56C1616.82 1444.48 1617.51 1439.61 1623.43 1427.32C1630.45 1412.77 1630.48 1412.04 1624.87 1392.17C1621.71 1381 1616.2 1361.32 1612.6 1348.43C1609.02 1335.54 1601.46 1301.64 1595.84 1273.1C1582.81 1207.05 1574.55 1176.49 1562.43 1149.24C1538.28 1095 1495.14 979.989 1485.83 945.021C1480.19 923.846 1468.53 888.443 1459.92 866.348C1441.4 818.809 1421.54 748.723 1410.1 690.588C1400.12 639.869 1385.74 522.378 1383.04 469.634C1379.24 395.229 1366.23 324.524 1345.95 268.063C1307.68 161.536 1234.01 89.8432 1131.31 59.1439C1102.86 50.6405 1092.66 49.7869 1029.89 50.7577C1025.29 50.8247 1007.95 50.2221 991.376 49.4186C968.634 48.3138 955.354 49.519 937.285 54.3399L937.201 54.3064ZM931.005 71.196C894.213 81.1055 851.125 104.875 813.78 135.892C795.359 151.192 775.833 169.638 770.374 176.886C762.955 186.762 767.041 183.967 786.618 165.805C801.003 152.464 814.316 141.533 816.209 141.533C818.101 141.533 805.943 154.439 789.18 170.207C721.893 233.531 692.922 289.874 669.728 402.611C665.374 423.752 662.393 441.63 663.097 442.349C663.8 443.052 665.341 439.32 666.513 434.03C675.807 392.149 695.601 345.531 726.214 293.372C752.505 248.596 795.326 193.24 795.326 204.037C795.326 205.844 791.407 210.966 786.618 215.436C773.355 227.806 736.596 284.518 723.718 312.472C695.317 374.155 680.831 445.998 680.211 528.187C679.793 584.329 679.91 585.384 689.472 606.09C694.814 617.64 699.654 626.612 700.24 626.026C700.826 625.44 698.967 617.506 696.104 608.383C691.951 595.143 691.264 581.015 692.654 538.23C694.211 490.39 700.776 420.857 703.472 423.552C704.041 424.121 702.049 458.553 699.051 500.082C693.96 570.603 693.977 577.098 699.252 598.457C705.08 622.059 717.003 650.381 726.046 662.115C730.769 668.242 731.07 665.982 729.529 635.333C728.608 616.92 725.695 584.279 723.065 562.786C713.336 483.31 717.539 435.353 740.565 362.488C764.362 287.229 790.838 226.935 810.381 203.467C816.56 196.052 815.723 198.546 807.166 213.076C784.307 251.877 749.357 341.966 746.611 369.183C745.773 377.469 743.546 391.798 741.654 401.021C735.96 428.841 732.862 489.319 735.324 524.856C737.517 556.744 749.072 613.12 760.611 648.272C764.613 660.475 766.773 663.421 769.218 659.99C771.663 656.575 771.965 656.993 770.441 661.68C769.185 665.564 771.931 673.515 777.658 682.57C788.594 699.845 804.134 707.294 833.809 709.503L853.905 710.993L836.572 704.716C817.933 697.97 784.29 673.883 776.118 661.429C773.371 657.228 769.938 654.516 768.481 655.403C764.68 657.747 745.037 579.592 745.037 562.167C745.037 553.396 749.056 564.795 753.544 586.305C759.388 614.292 774.326 647.971 779.484 644.774C781.627 643.451 782.247 644.606 781.041 647.737C779.768 651.051 784.005 657.529 792.881 665.865C800.484 672.996 804.67 676.159 802.192 672.895C794.84 663.203 799.395 663.655 814.768 674.151C822.706 679.557 830.845 682.972 832.854 681.734C835.031 680.394 835.551 681.03 834.144 683.29C832.034 686.705 851.878 697.987 873.984 705.905C879.393 707.846 878.103 708.817 867.285 710.943C859.917 712.399 847.39 713.672 839.436 713.772L824.984 713.973L832.737 728.184C837.008 736.001 847.742 749.56 856.618 758.314C865.493 767.069 871.187 774.233 869.295 774.233C862.462 774.233 841.881 753.042 829.941 733.691C816.225 711.479 807.383 706.49 819.307 727.699C830.945 748.405 846.352 764.943 862.311 773.882C870.199 778.301 875.591 780.175 874.268 778.066C871.086 772.927 872.594 773.179 886.007 780.075L897.412 785.934L886.292 787.005C879.862 787.624 869.345 785.197 861.374 781.247L847.575 774.434L869.144 796.362C900.627 828.367 994.306 888.041 1013.05 888.041C1029.89 888.041 1116.19 833.288 1152.93 799.275C1166.34 786.854 1176.81 776.175 1176.17 775.539C1175.54 774.903 1169.31 775.957 1162.34 777.882C1142.61 783.322 1144.29 778.987 1166.16 767.939C1184.16 758.85 1187.24 755.67 1198.31 734.595C1205.04 721.773 1210.57 710.608 1210.57 709.755C1210.57 708.901 1200.29 708.231 1187.71 708.231C1175.13 708.231 1161.95 706.557 1158.4 704.499C1153.06 701.402 1154.94 700.749 1169.47 700.665C1196.43 700.515 1211.91 692.631 1229.11 670.284C1247.56 646.297 1248.15 642.916 1230.85 660.207C1219.81 671.238 1187.01 690.521 1179.27 690.521C1178.06 690.521 1182.23 683.357 1188.53 674.603C1194.83 665.848 1203.07 650.833 1206.85 641.225L1213.73 623.766L1201.26 630.211C1189.5 636.287 1181.8 638.212 1153.61 642.146C1144.35 643.435 1143.38 643.117 1148.99 640.639C1152.89 638.915 1163.06 636.455 1171.6 635.182C1189.89 632.437 1206.15 619.013 1216.85 597.754C1225 581.584 1225.69 576.68 1219.76 576.73C1215.99 576.763 1209.1 587.158 1194.81 614.359C1189.77 623.951 1182.54 627.332 1185.92 618.51C1187.29 614.945 1186.32 614.041 1182.65 615.447C1179.79 616.552 1176.77 619.95 1175.97 623.013C1174.66 627.968 1174.45 627.934 1174.11 622.729C1173.64 615.548 1169.15 615.213 1162.47 621.892C1159.71 624.654 1156.48 626.913 1155.29 626.913C1154.1 626.913 1150.87 624.654 1148.1 621.892C1145.34 619.13 1137.25 616.87 1130.12 616.87C1122.99 616.87 1116.22 615.363 1115.08 613.522C1113.89 611.597 1116.92 610.174 1122.16 610.174H1131.32L1124.43 602.642C1120.62 598.507 1114.14 588.397 1110.02 580.195L1102.54 565.28L1092.67 576.328C1078.14 592.582 1077.79 586.907 1091.94 564.494C1103.94 545.461 1104.03 545.16 1094.47 554.082C1076.03 571.29 1074.2 563.975 1092.29 545.361C1107.23 529.995 1123.86 521.14 1149.48 514.93C1162.98 511.665 1165.79 510.192 1158.92 509.992C1140.22 509.456 1106.56 517.156 1095.79 524.437C1076.11 537.745 1075.63 537.929 1080.25 530.53C1090.8 513.641 1120.56 506.075 1173.11 506.912C1198.91 507.33 1209.21 508.519 1205.36 510.678C1200.74 513.256 1200.54 514.36 1204.31 516.737C1206.83 518.328 1210.02 519.667 1211.41 519.7C1216.68 519.801 1213.57 498.843 1205.19 477.936C1197.02 457.548 1195.78 456.142 1185.93 456.193C1160.82 456.326 1088.27 477.384 1076.61 487.93C1071.89 492.215 1070.22 492.432 1068.84 488.984C1067.86 486.54 1066.97 487.745 1066.82 491.713C1066.67 495.63 1064.41 500.618 1061.78 502.794C1059.15 504.97 1052.35 519.6 1046.67 535.284C1040.99 550.969 1034.06 567.825 1031.25 572.729L1026.16 581.668L1028.17 569.951C1029.27 563.506 1037.61 527.651 1046.71 490.273C1055.78 452.895 1063.22 421.66 1063.22 420.873C1063.22 420.087 1056.8 426.481 1048.98 435.085C1007 481.184 976.622 505.472 939.931 522.295L922.146 530.463L935.744 542.097C943.23 548.491 949.342 556.158 949.342 559.12C949.342 563.121 946.73 562 939.194 554.785L929.046 545.06L939.144 563.355C944.687 573.416 949.258 582.789 949.292 584.162C949.426 589.703 943.514 586.171 939.211 578.119L934.622 569.566L928.694 581.116C925.428 587.46 917.893 597.52 911.948 603.479L901.113 614.292L912.668 611.848C922.046 609.873 923.452 610.225 920.086 613.723C917.491 616.435 904.964 618.41 886.292 619.029C859.665 619.916 854.859 619.096 839.352 611.112C829.857 606.224 822.07 600.817 822.07 599.11C822.07 597.403 824.398 596.9 827.244 597.988C831.85 599.746 831.883 599.194 827.529 593C821.584 584.53 806.094 576.01 803.682 579.91C800.886 584.43 805.675 593.553 809.577 591.125C811.821 589.736 812.34 591.008 811 594.49C808.137 601.956 825.871 621.892 843.237 630.747C850.639 634.513 863.584 638.765 872.024 640.204L887.364 642.799L869.663 643.184C856.852 643.468 847.407 641.275 835.45 635.216C826.357 630.613 817.532 626.846 815.823 626.846C811.67 626.846 817.632 653.076 823.996 662.835C830.895 673.414 825.386 672.276 815.354 661.061C810.749 655.905 807.886 653.26 808.974 655.169C810.063 657.077 811.938 661.362 813.127 664.676C817.029 675.607 809.343 667.271 794.371 644.355C761.465 593.954 749.659 547.018 752.907 479.543C755.202 431.804 762.536 395.832 781.393 339.689C826.558 205.259 898.534 119.639 983.153 99.6857C1007.7 93.9108 1038.37 92.9567 1041.41 97.8947C1042.7 99.9703 1036.57 101.242 1025.32 101.242C995.997 101.242 972.938 106.984 942.794 121.781C877.735 153.753 822.338 232.727 785.814 345.632C766.187 406.277 760.493 439.604 760.309 494.608C760.192 530.865 761.548 546.014 766.288 561.514C774.644 588.799 789.632 619.749 800.35 631.868C808.221 640.773 808.74 640.957 804.938 633.542C802.594 628.939 800.367 622.913 800.015 620.151C798.943 611.765 788.879 586.372 782.247 575.324C769.302 553.731 763.056 487.561 770.34 449.162C785.513 369.234 835.4 274.926 897.261 209.242C938.859 165.068 978.983 136.947 1010.4 129.95C1025.35 126.619 1020.9 132.98 1005.38 137.148C964.414 148.128 896.926 209.46 851.577 276.851C818.285 326.332 785.864 397.857 776.888 441.546L774.728 452.091L807.584 451.037L840.441 449.982L870.584 405.239C887.163 380.633 912.567 342.083 927.036 319.569C941.505 297.072 960.897 269.252 970.124 257.752C979.352 246.252 997.404 222.182 1010.23 204.254C1035.44 169.052 1063 136.813 1065.65 139.458C1066.55 140.361 1060.54 149.082 1052.28 158.841C1021.4 195.366 1004.89 223.621 979.402 283.714C949.66 353.8 917.574 407.934 887.146 439.387L872.56 454.452L894.464 455.389L916.369 456.326L946.16 425.259C962.538 408.168 975.969 395.296 976.002 396.669C976.086 401.172 925.412 454.335 916.302 459.306L907.393 464.16L920.79 466.454C936.28 469.115 942.041 466.688 971.33 445.128C1014.37 413.458 1054.51 364.178 1079.75 311.986C1087.18 296.62 1093.26 286.058 1093.26 288.501C1093.26 290.945 1086.71 306.697 1078.71 323.469C1052.5 378.44 1004.84 433.461 959.675 460.879C940.55 472.496 934.22 479.527 942.895 479.527C944.921 479.527 963.175 468.144 983.454 454.217C1003.73 440.307 1021.18 429.778 1022.24 430.833C1023.29 431.888 1022.76 433.963 1021.03 435.453C991.459 460.93 973.641 473.467 948.136 486.741C931.239 495.546 919.768 502.794 922.615 502.844C925.479 502.911 929.263 501.823 931.055 500.434C932.847 499.044 931.474 500.551 928.007 503.781C920.957 510.343 915.749 511.381 915.749 506.225C915.749 504.351 909.335 506.091 901.515 510.109C893.694 514.126 889.206 518.06 891.567 518.863C893.928 519.667 899.522 517.926 904.01 514.98C914.342 508.201 917.792 508.15 912.232 514.846C908.364 519.499 908.933 519.6 917.692 515.683C923.067 513.272 934.605 506.794 943.313 501.271C952.038 495.747 968.483 485.954 979.854 479.51C1038.99 445.998 1086.85 379.495 1108.75 300.403C1116.66 271.829 1118.03 260.547 1118.08 223.404C1118.11 199.467 1116.94 173.856 1115.48 166.491C1113.49 156.397 1113.77 154.02 1116.69 156.866C1118.82 158.942 1122.15 176.267 1124.11 195.366C1127.74 230.785 1140.02 274.457 1171.97 365.685C1192.83 425.225 1223.56 508.368 1223.71 505.723C1224 501.153 1207.07 426.899 1200.96 405.858C1197.47 393.89 1190.02 370.723 1184.38 354.386C1178.73 338.049 1175.42 325.997 1177.01 327.604C1183.14 333.831 1202.18 387.897 1213.68 431.804C1217.17 445.078 1218.19 446.032 1229.01 446.032C1239.82 446.032 1240.59 445.396 1240.59 434.666C1240.59 412.772 1233.48 353.75 1228.05 330.533C1225.04 317.644 1222.86 305.96 1223.21 304.588C1223.56 303.215 1222.54 302.077 1220.95 302.077C1217.03 302.077 1201.37 265.502 1198.49 249.583C1197.22 242.553 1194.12 232.727 1191.6 227.756C1185.18 215.101 1185.9 212.707 1193.27 222.115C1203.23 234.853 1219.18 268.415 1226.44 292.033C1240.76 338.501 1245.38 377.067 1245.45 451.054C1245.48 489.721 1244.41 525.391 1243.06 530.329C1241.03 537.695 1241.85 539.703 1247.63 541.545C1251.5 542.767 1255.93 542.499 1257.48 540.942C1259.02 539.385 1264.39 524.538 1269.42 507.966C1277.74 480.497 1278.58 472.814 1278.83 420.923C1278.98 389.622 1278.01 359.039 1276.65 352.963C1275.29 346.854 1275.49 342.719 1277.1 343.723C1278.71 344.711 1281.94 360.663 1284.3 379.143C1290.06 424.305 1285.12 476.296 1271.12 517.943C1265.56 534.464 1258.95 549.512 1256.42 551.404C1248.53 557.279 1235.04 583.593 1222.29 617.975C1215.56 636.137 1206.35 656.843 1201.83 664.007C1190.99 681.148 1195.85 680.461 1216.48 661.915C1247.18 634.312 1289.8 558.468 1297.33 518.01C1299.39 506.962 1302.32 482.858 1303.86 464.445L1306.64 430.967L1307.11 464.01C1307.97 525.324 1290.9 611.246 1269.11 655.269C1258.08 677.582 1225.91 725.104 1208.51 744.789C1196.7 758.164 1198.51 759.001 1214.89 747.735C1232.64 735.533 1294.67 647.101 1314.43 605.872C1332.08 569.013 1335.53 548.123 1333.32 491.227C1329.82 401.071 1299.12 307.216 1249.87 235.991C1220.47 193.458 1167.6 145.852 1134.81 132.394C1126.69 129.063 1120.04 124.493 1120.04 122.267C1120.04 119.421 1124.43 120.091 1134.72 124.493C1157.37 134.202 1173.14 145.199 1199.62 169.755C1281.98 246.152 1332.06 363.609 1341.69 502.961C1346.26 569.264 1342.41 594.875 1321.03 640.12C1308 667.69 1307.87 668.275 1317.41 656.96C1334.07 637.208 1354.44 600.6 1359.43 581.417C1366.76 553.245 1369.19 495.847 1364.77 454.954C1360.06 411.499 1350.03 371.175 1327.17 303.767C1302.22 230.2 1281.64 192.185 1247.88 157.301C1239.42 148.564 1234.13 141.399 1236.12 141.399C1246.12 141.399 1292.41 202.731 1307.26 235.656C1320.19 264.314 1345.78 338.333 1359.76 387.462C1367.2 413.609 1370.46 421.794 1369.09 410.897C1365.91 385.47 1342.86 303.968 1329.42 270.658C1299.48 196.42 1250.59 136.127 1191.03 99.9536C1180.34 93.4589 1157.37 83.2648 1139.97 77.289L1108.33 66.4087L1031.3 65.5884C964.648 64.8854 951.101 65.6219 930.821 71.0788L931.005 71.196ZM954.316 82.5952C939.73 87.165 925.546 94.413 931.005 94.5134C932.847 94.5469 942.644 92.3541 952.775 89.6256C962.907 86.9139 984.476 84.6709 1000.7 84.6374C1019.51 84.6039 1029.46 83.382 1028.13 81.2561C1025.2 76.519 970.543 77.5066 954.316 82.5952ZM1125.26 111.386C1124.12 113.228 1126.1 114.734 1129.67 114.734C1133.23 114.734 1142.36 116.927 1149.96 119.605C1167.77 125.882 1168.07 120.526 1150.32 113.428C1134.77 107.218 1128.18 106.683 1125.26 111.386ZM977.057 256.178C963.995 272.315 950.481 292.619 874.704 409.959C849.082 449.648 845.431 461.901 861.876 453.096C872.309 447.505 907.928 404.871 928.526 373.251C945.139 347.757 996.651 238.536 992.029 238.586C991.61 238.586 984.878 246.503 977.041 256.162L977.057 256.178ZM1200.89 245.348C1200.74 246.302 1205.18 258.355 1210.75 272.131C1216.33 285.907 1220.08 293.054 1219.06 287.983C1217.28 279.044 1201.43 241.883 1200.87 245.348H1200.89ZM1128.46 278.776C1135.08 321.41 1134.64 330.031 1124.22 360.814C1118.63 377.385 1105.8 408.252 1095.72 429.427C1085.66 450.602 1077.74 468.295 1078.16 468.764C1078.57 469.232 1090.08 465.684 1103.74 460.896C1121.06 454.837 1138.43 451.673 1161 450.418L1193.4 448.643L1189.99 439.872C1188.11 435.051 1175.23 397.958 1161.4 357.449C1147.57 316.941 1134.07 280.032 1131.44 275.428C1126.69 267.143 1126.65 267.193 1128.46 278.776ZM1114.7 334.734C1103.89 375.092 1080.9 441.697 1071.42 460.009C1068.51 465.633 1066.8 470.889 1067.62 471.71C1069.26 473.35 1071.17 469.416 1097.82 409.34C1120.74 357.65 1127.57 334.316 1126.27 312.321C1125.26 295.465 1125.13 295.716 1114.7 334.734ZM1108.87 323.737C1107.53 329.093 1098.9 350.369 1089.74 370.991C1073.99 406.411 1044.71 506.209 1047.64 514.494C1048.36 516.503 1050.69 509.858 1052.83 499.731C1054.98 489.603 1060.61 473.032 1065.34 462.905C1082.14 427 1115.18 325.562 1112.62 317.845C1111.92 315.719 1110.22 318.364 1108.88 323.737H1108.87ZM695.501 361.416C675.087 414.412 663.566 483.393 665.307 542.432C665.91 563.155 665.274 580.094 663.9 580.094C662.527 580.094 661.388 582.806 661.388 586.137C661.388 593.988 638.128 653.595 624.379 680.98C594.838 739.818 549.322 797.048 490.576 849.224L468.805 868.557L495.599 856.388C560.592 826.86 611.384 789.315 643.755 746.882C657.872 728.385 664.302 725.405 654.589 741.877C627.578 787.624 558.449 839.164 480.528 871.604C454.521 882.434 397.215 921.888 378.593 941.774C361.93 959.584 353.255 976.155 353.255 990.183C353.255 1000.58 376.03 1024.48 394.083 1033.02L406.442 1038.88L430.925 1024.08C444.389 1015.94 466.009 1003.22 478.97 995.824C523.633 970.314 551.817 942.142 590.468 884.359C606.98 859.686 639.015 798.17 647.824 774.267C650.202 767.822 660.216 745.224 670.08 724.05C681.702 699.092 689.455 677.03 692.118 661.329L696.221 637.107L684.699 614.46L673.178 591.812L673.865 539.921C674.752 473.283 681.417 424.054 696.07 375.912C702.518 354.754 707.29 336.944 706.687 336.341C706.085 335.739 701.061 347.021 695.518 361.416H695.501ZM738.505 380.65C732.962 395.246 724.824 443.856 722.797 474.622C721.491 494.357 722.73 519.767 726.364 548.274C729.429 572.21 733.934 609.873 736.379 631.969C742.29 685.198 749.491 701.636 778.245 727.582C790.402 738.546 800.886 745.961 801.522 744.036C802.158 742.111 792.864 722.895 780.874 701.318C757.714 659.688 746.242 630.161 741.537 600.164C739.946 590.037 736.395 569.7 733.632 554.969C725.36 510.929 728.391 443.739 741.218 386.676C744.718 371.075 743.328 367.961 738.505 380.633V380.65ZM1371.95 439.47C1371.95 444.074 1372.71 445.965 1373.64 443.655C1374.58 441.362 1374.58 437.596 1373.64 435.286C1372.72 432.992 1371.95 434.867 1371.95 439.47ZM658.29 453.799C658.14 457.08 649.951 484.197 640.087 514.059C613.008 595.98 582.948 656.424 537.013 721.254C500.322 773.045 467.901 805.234 305.244 951.332C259.158 992.727 231.677 1025.65 216.94 1057.14C208.584 1075.02 207.545 1080.97 207.545 1111.26C207.545 1143.73 208.014 1145.94 217.71 1159.8C232.866 1181.46 252.945 1190.55 313.047 1203C341.6 1208.91 368.88 1214.43 373.686 1215.27C381.088 1216.56 385.676 1213.11 403.829 1192.72C429.317 1164.08 476.19 1123.96 509.7 1102.1C522.997 1093.43 536.36 1083.84 539.408 1080.79C544.566 1075.64 544.298 1075.4 535.339 1077.54C530.047 1078.82 513.669 1083.28 498.932 1087.49C484.195 1091.69 462.341 1096.21 450.368 1097.53C438.394 1098.84 421.564 1103.44 412.973 1107.74C388.691 1119.89 358.849 1149.6 346.038 1174.36C335.019 1195.65 326.897 1204.11 333.093 1187.84C345.619 1154.91 375.076 1121.47 406.911 1104.02C420.877 1096.37 431.243 1093.51 450.368 1092.02L475.487 1090.06L442.43 1089.51C402.188 1088.84 344.547 1080.62 320.315 1072.12C306.098 1067.11 303.284 1066.85 306.55 1070.78C313.416 1079.05 306.868 1080.57 298.461 1072.67C294.141 1068.6 288.782 1059.26 286.588 1051.92C281.38 1034.52 288.631 1004.19 303.937 979.436C324.083 946.845 363.672 902.336 396.026 875.922C468.923 816.415 487.109 800.329 519.497 766.684C578.159 705.787 614.281 643.066 637.508 561.698C651.944 511.147 662.845 458.419 660.199 451.907C659.295 449.681 658.441 450.552 658.29 453.832V453.799ZM1218.34 453.949C1219.28 456.393 1222.76 471.458 1226.08 487.427C1229.39 503.396 1233.09 516.453 1234.3 516.453C1236.71 516.453 1240.78 482.556 1240.78 462.403C1240.78 449.815 1240.48 449.497 1228.7 449.497C1220.03 449.497 1217.1 450.752 1218.34 453.949ZM775.917 460.21C771.479 464.646 770.742 487.745 774.041 519.315C775.984 537.862 776.955 539.887 783.821 539.887C788.008 539.887 793.819 538.967 796.733 537.862C806.211 534.23 802.326 529.861 789.465 529.66C778.278 529.492 777.625 529.024 783.453 525.475C787.053 523.282 798.357 513.574 808.555 503.915C818.754 494.257 828.232 486.339 829.639 486.339C831.046 486.339 832.168 484.732 832.168 482.757C832.168 478.723 841.161 468.847 843.488 470.32C844.326 470.839 846.134 470.153 847.508 468.764C848.897 467.391 847.893 466.102 845.28 465.918C842.668 465.734 844.309 464.378 848.914 462.905C856.316 460.545 856.467 460.193 850.254 459.892C845.783 459.674 837.242 466.069 826.809 477.451C817.783 487.294 802.862 500.166 793.651 506.075L776.905 516.821L790.302 505.79C806.965 492.081 835.517 462.453 835.517 458.871C835.517 454.468 780.405 455.724 775.9 460.227L775.917 460.21ZM858.577 468.747C855.697 471.977 843.874 483.343 832.319 494.023C810.13 514.528 808.472 520.32 826.642 513.741C832.721 511.548 841.345 509.757 845.816 509.757C855.11 509.757 921.074 477.786 916.955 475.275C911.512 471.977 877.668 462.888 870.835 462.888C866.967 462.888 861.457 465.516 858.56 468.747H858.577ZM930.988 482.975C929.849 484.816 925.194 486.323 920.639 486.323C916.084 486.323 911.495 488.582 910.424 491.344C909.369 494.106 906.555 496.366 904.177 496.366C901.799 496.366 893.292 500.116 885.271 504.702C863.082 517.39 876.579 514.712 904.579 500.869C925.847 490.357 941.187 479.627 934.94 479.627C933.902 479.627 932.127 481.134 930.988 482.975ZM977.878 489.101C938.273 510.896 922.431 520.721 924.139 522.445C926.902 525.207 972.871 500.768 986.117 489.503C1000.32 477.418 999.23 477.367 977.878 489.118V489.101ZM1376.51 553.279C1377.35 581.819 1378.87 636.806 1379.89 675.473C1381.03 718.291 1383.59 752.975 1386.44 764.19C1389 774.317 1394.39 803.677 1398.4 829.422C1411.81 915.594 1443.48 1015.64 1477.89 1080.56C1493.28 1109.58 1494.47 1110.89 1510.51 1116.28C1536 1124.83 1536.4 1124.51 1526.77 1103.15C1503.63 1051.78 1455.6 915.309 1441.65 861.276C1436.19 840.101 1425.86 801.685 1418.71 775.907C1402.53 717.588 1393.41 665.714 1383.06 573.365L1374.98 501.388L1376.49 553.279H1376.51ZM641.41 572.545C610.48 677.515 541.568 770.936 429.368 859.97C378.274 900.512 357.208 920.599 336.676 948.319C310.368 983.855 304.892 996.811 304.775 1023.79C304.607 1063.35 309.112 1066.56 379.497 1077.12C446.131 1087.13 518.676 1081.39 549.439 1063.7C571.812 1050.83 574.525 1044.13 553.475 1053.77C530.633 1064.22 493.288 1067.87 465.439 1062.34C411.097 1051.6 369.315 1031.53 354.16 1008.91C332.959 977.277 355.298 943.615 436.401 884.995C475.705 856.589 531.973 802.388 565.298 760.842C614.432 699.594 650.52 618.092 653.886 560.811C654.774 545.629 654.941 533.192 654.238 533.209C653.551 533.209 647.774 550.918 641.393 572.545H641.41ZM1124.99 544.842C1121.44 547.52 1120.05 549.747 1121.9 549.78C1126.87 549.864 1135.38 543.888 1133.28 541.779C1132.28 540.775 1128.56 542.147 1125.01 544.842H1124.99ZM875.725 549.931C875.725 551.772 877.232 553.279 879.074 553.279C880.917 553.279 882.424 551.772 882.424 549.931C882.424 548.09 880.917 546.583 879.074 546.583C877.232 546.583 875.725 548.09 875.725 549.931ZM1187.27 558.585C1187.19 573.817 1188.98 577.115 1195.9 574.453C1202.46 571.943 1201.63 563.155 1193.89 553.279L1187.34 544.909L1187.27 558.585ZM778.596 555.271C778.596 557.865 781.611 559.974 785.295 559.974C788.979 559.974 791.993 558.635 791.993 557.011C791.993 555.388 788.979 553.262 785.295 552.308C780.941 551.169 778.596 552.207 778.596 555.271ZM839.854 556.928C830.46 562.937 829.354 565.163 831.046 574.453C833.943 590.238 840.792 599.277 855.546 606.81C877.283 617.891 881.637 615.514 867.737 600.148C856.919 588.179 855.63 584.781 855.63 568.344C855.63 558.217 854.508 549.964 853.118 549.998C851.728 550.031 845.766 553.145 839.854 556.944V556.928ZM1275.11 591.544C1265.43 612.267 1255.03 636.622 1252.02 645.644C1245.72 664.492 1230.7 686.655 1219.8 693.149C1212.68 697.401 1212.8 697.518 1222.37 695.51C1236.68 692.53 1255.57 672.812 1265.66 650.314C1273.18 633.576 1295.52 556.61 1293.45 554.584C1293.04 554.182 1284.77 570.804 1275.09 591.527L1275.11 591.544ZM1333.67 572.595C1329.43 592.799 1310.24 634.412 1293.88 658.868C1276.6 684.713 1275.14 687.944 1282.03 685.316C1287.23 683.324 1284.42 722.326 1276.21 765.88C1273.43 780.611 1269.52 818.273 1267.51 849.575C1264.34 898.738 1256.09 952.838 1244.63 999.289C1242.45 1008.09 1242.72 1012.7 1245.5 1015.02C1250.43 1019.11 1305.03 1042.61 1306.41 1041.24C1306.96 1040.68 1306.14 1034.24 1304.58 1026.92C1303.03 1019.61 1300.8 997.799 1299.63 978.465C1298.45 959.132 1295.99 925.871 1294.15 904.546C1287.77 830.727 1285.17 740.303 1288.61 710.809C1291.44 686.538 1294.13 678.369 1306.34 657.077C1321.31 630.964 1339.48 578.504 1337.24 567.825C1336.37 563.69 1335.2 565.264 1333.65 572.612L1333.67 572.595ZM913.237 573.482C910.842 577.366 904.428 582.086 899.003 583.978C893.56 585.869 889.072 589.903 888.988 592.95C888.905 596.448 886.744 594.791 883.127 588.43C876.311 576.462 869.027 573.985 869.027 583.626C869.027 601.286 885.622 613.154 900.694 606.291C909.988 602.056 920.22 583.141 918.646 573.098C917.608 566.519 917.507 566.519 913.237 573.466V573.482ZM1120.29 580.429C1123.45 597.721 1133.33 607.781 1148.32 608.969C1156.98 609.655 1160.36 608.417 1161.49 604.182C1162.86 598.943 1163.01 598.959 1163.38 604.332C1164.2 616.77 1186.91 608.567 1196.47 592.381L1203.35 580.731L1195.15 579.157C1188.45 577.885 1186.14 579.509 1182.57 588.029C1180.17 593.77 1175.42 600.734 1172.04 603.496C1165.4 608.902 1165.37 609.471 1172.72 591.192C1174.45 586.924 1173.64 586.104 1169.37 587.744C1165.59 589.2 1163.76 588.179 1163.76 584.614C1163.76 581.3 1165.64 580.061 1168.79 581.266C1172.44 582.672 1173.81 580.881 1173.81 574.738C1173.81 565.498 1172.52 565.766 1154.77 578.889C1140.8 589.2 1136.28 588.832 1129.11 576.713C1120.84 562.703 1117.31 564.192 1120.27 580.429H1120.29ZM1365.54 585.083C1359.06 616.083 1347.81 636.337 1321.31 664.626C1293.11 694.756 1293.08 695.074 1312.64 740.086C1352.76 832.418 1404.54 940.937 1400.02 923.21C1381.05 848.939 1374.18 787.423 1371.85 670.451C1369.93 574.353 1369.37 566.77 1365.54 585.083ZM697.142 662.099C694.764 687.575 672.022 746.731 639.886 811.059C602.173 886.535 556.221 949.875 519.396 977.126C507.925 985.613 480.544 1002.32 458.54 1014.25C436.535 1026.19 417.227 1037.22 415.602 1038.76C411.549 1042.64 445.042 1052.12 462.844 1052.12C488.047 1052.12 517.822 1031.73 565.013 982.181C634.042 909.685 712.415 770.885 720.218 707.294L722.479 688.881L711.762 703.427C705.867 711.428 700.257 717.17 699.285 716.199C698.314 715.228 701.429 709.303 706.219 703.042C711.008 696.765 716.568 686.889 718.594 681.081C721.843 671.757 721.156 668.761 712.75 655.437C707.508 647.151 702.3 640.355 701.195 640.355C700.089 640.355 698.247 650.147 697.125 662.132L697.142 662.099ZM727.252 695.192C726.013 704.197 724.991 716.534 724.991 722.61C724.991 739.131 689.187 878.835 676.577 911.543C654.439 968.958 626.807 1015.41 593.197 1051.8C585.159 1060.5 584.523 1061.96 590.551 1057.93C600.415 1051.33 627.913 1019.12 643.051 996.426C672.826 951.767 712.582 860.02 728.709 798.739C737.903 763.788 740.9 706.373 734.369 690.538L729.529 678.821L727.269 695.192H727.252ZM992.933 696.849C992.933 700.314 997.086 705.854 1002.14 709.152C1010.06 714.308 1010.72 714.358 1006.8 709.57C1004.29 706.507 1003.15 701.653 1004.25 698.774C1005.41 695.761 1004.86 694.405 1002.95 695.577C1001.12 696.698 999.631 696.029 999.631 694.07C999.631 692.112 998.124 690.521 996.282 690.521C994.44 690.521 992.933 693.367 992.933 696.832V696.849ZM1272.97 699.979C1271.26 702.741 1264.48 743.584 1264.29 752.205C1264.09 761.629 1268.09 748.673 1272.5 725.724C1277.27 700.799 1277.42 692.815 1272.98 699.996L1272.97 699.979ZM745.472 748.104C745.171 775.254 742.307 796.68 733.565 836.82C709.032 949.674 686.374 1003.51 638.747 1062.16C605.657 1102.9 606.762 1105.72 648.695 1087.22C746.041 1044.27 788.259 1022 814.166 999.958C833.591 983.437 843.086 965.878 849.082 935.413C851.359 923.863 855.63 911.61 858.594 908.162C861.558 904.714 873.766 899.072 885.739 895.641L907.51 889.38L906.321 869.729L905.132 850.077L878.254 824.718C863.467 810.774 850.154 798.89 848.68 798.32C845.18 796.965 848.328 825.555 853.385 840.971C856.919 851.735 859.13 853.392 876.261 857.928C900.376 864.322 903.943 867.67 883.261 864.473C874.486 863.117 865.208 863.167 862.646 864.573C857.271 867.519 838.599 856.622 824.498 842.31C810.933 828.534 786.082 790.838 783.402 779.958C782.13 774.802 780.472 771.22 779.702 772.007C777.039 774.668 792.178 825.136 800.651 841.859C811.319 862.899 808.823 866.682 796.833 847.684C785.931 830.426 781.895 818.039 770.223 765.897C759.891 719.798 758.819 715.881 756.91 717.789C752.757 721.941 769.453 807.259 778.965 830.543C784.759 844.704 794.371 869.143 800.333 884.861C806.295 900.562 814.484 919.929 818.536 927.863C822.589 935.814 825.185 943.046 824.297 943.916C821.919 946.293 805.709 917.502 798.022 897.281C794.355 887.623 784.843 864.657 776.888 846.244C766.522 822.24 760.845 802.823 756.826 777.614C749.558 731.962 745.768 722.13 745.455 748.12L745.472 748.104ZM1292.99 732.771C1289.13 768.609 1305.02 979.068 1315.43 1030L1319.47 1049.76L1357.99 1067.53C1379.17 1077.31 1398.21 1084.74 1400.29 1084.04C1402.36 1083.34 1405.76 1084.46 1407.82 1086.52C1415.13 1093.81 1411.39 1085.73 1395.03 1058.78C1385.92 1043.8 1375.87 1023.73 1372.71 1014.2C1369.54 1004.66 1366.38 998.552 1365.69 1000.59C1363.75 1006.37 1376.84 1038.71 1389.87 1060.35C1401.78 1080.12 1403.6 1087.19 1394.03 1076.41C1374.4 1054.36 1353.95 997.749 1344.64 939.664C1338.85 903.559 1332.23 834.159 1334.84 837.004C1336.12 838.394 1339.7 859.87 1342.78 884.727C1349.03 935.128 1355.49 967.167 1352.91 934.944C1351.62 918.925 1352.43 920.682 1359.11 948.335C1372.56 1004.03 1388.93 1044.2 1411.78 1077.46C1420.22 1089.75 1424.03 1091.97 1450.69 1100.11C1466.96 1105.06 1481.24 1109.11 1482.45 1109.08C1483.65 1109.05 1477.97 1097.36 1469.84 1083.08C1461.7 1068.82 1448.7 1042.53 1440.97 1024.66C1433.23 1006.8 1426.41 992.677 1425.81 993.279C1424.17 994.92 1443.96 1043.51 1454.3 1063.2C1473.27 1099.35 1471.96 1103.24 1452.1 1069.69C1444.75 1057.27 1427.92 1019.22 1414.72 985.161C1401.53 951.097 1383.91 909.668 1375.59 893.097C1360.6 863.268 1332.18 800.296 1307.78 742.831L1295.15 713.086L1293.03 732.787L1292.99 732.771ZM1257.44 725.908C1255.65 730.628 1254.18 738.763 1254.18 743.969C1254.18 758.984 1241.28 797.115 1226.95 824.45C1211.77 853.392 1182.55 894.168 1174.87 897.114C1171.4 898.436 1165.89 894.687 1158.62 886.049C1146.25 871.353 1146.13 866.18 1158.44 877.747C1163.82 882.802 1167.74 883.036 1170.19 878.45C1173.24 872.775 1171.6 867.151 1160.75 846.094C1148.26 821.822 1147.52 821.069 1145.49 830.309C1144.32 835.648 1144.92 844.135 1146.85 849.19C1152.01 862.766 1151.49 869.746 1145.68 864.925C1141.94 861.828 1140.33 863 1137.59 870.884C1134.29 880.325 1134.82 881.128 1151.19 891.289C1162.77 898.487 1170.68 901.265 1175.89 899.943C1190.61 896.243 1230.36 840.436 1246.2 801.2C1253.1 784.109 1265.61 717.287 1261.91 717.287C1261.23 717.287 1259.2 721.154 1257.41 725.874L1257.44 725.908ZM781.678 759.704C799.06 794.805 832.854 842.93 845.481 850.546C851.962 854.463 852.347 854.296 849.5 848.872C847.759 845.558 845.297 836.586 844.024 828.936C840.541 807.895 812.005 763.855 794.656 752.707C786.735 747.618 776.788 739.466 772.551 734.578C767.527 728.77 770.692 737.491 781.694 759.704H781.678ZM1242.65 736.436C1240.85 741.207 1241.21 741.592 1244.53 738.311C1246.82 736.035 1247.85 733.34 1246.82 732.302C1245.79 731.264 1243.93 733.122 1242.65 736.436ZM1214.91 766.567C1202.06 779.071 1186.76 796.027 1180.86 804.229C1171.1 817.855 1169.99 818.508 1168.23 811.795C1167.18 807.761 1164.99 805.284 1163.34 806.288C1157.45 809.937 1160.58 828.317 1170.18 846.294L1179.97 864.64L1190.46 852.086C1196.22 845.173 1206.03 828.986 1212.26 816.097C1224.28 791.223 1241.18 746.781 1239.34 744.94C1238.74 744.337 1227.73 754.063 1214.89 766.583L1214.91 766.567ZM708.663 764.558C702.668 785.18 658.676 865.963 629.537 909.836C595.893 960.488 543.913 1017.28 511.324 1038.98L485.518 1056.17L507.021 1053.91C570.69 1047.23 626.137 982.935 679.475 853.944C686.089 837.942 691.532 821.37 691.565 817.118C691.616 810.758 692.235 810.289 695.132 814.423C697.812 818.257 698.096 817.47 696.338 811.076C695.065 806.472 695.283 803.895 696.807 805.334C699.57 807.945 715.63 758.549 713.888 752.841C713.386 751.2 711.041 756.473 708.697 764.558H708.663ZM1239.39 773.446C1236.12 784.009 1225.36 808.096 1215.44 826.978C1205.53 845.859 1197.93 861.292 1198.53 861.292C1199.93 861.292 1221.55 825.99 1228.37 812.582C1235.1 799.308 1248.6 757.528 1246.76 755.67C1245.97 754.883 1242.65 762.884 1239.41 773.446H1239.39ZM983.756 775.338C963.007 782.854 971.983 785.816 1012.19 784.728C1033.83 784.143 1051.93 783.272 1052.43 782.787C1052.94 782.301 1046.44 779.272 1038 776.058C1022.72 770.232 1013.75 771.471 1023.14 778.1C1027.15 780.929 1026.91 781.213 1021.94 779.59C1018.57 778.502 1011.04 777.581 1005.19 777.547C997.103 777.514 995.78 776.727 999.598 774.25C1004.07 771.371 1004.07 771.019 999.598 771.203C996.835 771.321 989.701 773.179 983.739 775.338H983.756ZM1386.61 803.911C1388.35 840.302 1401.48 908.731 1411.98 936.166C1415.98 946.628 1419.71 954.713 1420.28 954.144C1420.85 953.575 1417.59 941.121 1413.03 926.457C1404.16 897.901 1393.07 841.038 1388.13 798.655L1385.1 772.593L1386.59 803.928L1386.61 803.911ZM1259.03 791.575C1257.69 795.86 1252.23 808.9 1246.91 820.567C1241.58 832.234 1233.51 860.037 1228.97 882.35C1221.47 919.209 1205.09 970.715 1201.88 967.501C1201.16 966.782 1204.51 955.031 1209.31 941.372C1217.35 918.506 1226.96 874.968 1227.23 860.087C1227.3 856.187 1221.89 861.276 1212.75 873.679C1204.71 884.576 1192.7 897.984 1186.05 903.458L1173.96 913.418L1182.7 942.393C1190.89 969.527 1192.43 972.038 1207.12 982.048C1215.74 987.923 1224.18 995.824 1225.91 999.607C1230.63 1010.02 1236.41 1009.98 1238.22 999.523C1239.12 994.384 1243.71 971.335 1248.43 948.319C1253.67 922.775 1258.51 883.204 1260.86 846.746C1264.58 788.947 1264.12 775.271 1259.02 791.558L1259.03 791.575ZM733.532 799.542C732.276 806.255 731.907 812.431 732.728 813.252C733.549 814.072 735.257 809.234 736.513 802.522C737.769 795.81 738.137 789.633 737.316 788.813C736.496 787.993 734.788 792.83 733.532 799.542ZM1002.96 814.423C1009.56 818.692 1023.06 818.692 1023.06 814.423C1023.06 812.582 1017.42 811.092 1010.5 811.126C1001.16 811.159 999.23 812.013 1002.96 814.423ZM718.51 852.053C704.125 895.189 665.424 971.937 636.587 1014.54C612.288 1050.43 581.207 1085.65 573.922 1085.53C571.126 1085.48 572.599 1082.82 577.606 1078.87C585.109 1072.96 583.87 1073.09 565.499 1080.19C519.882 1097.8 468.236 1135.44 413.994 1190.58L382.679 1222.42L401.435 1220.9C419.286 1219.44 427.241 1223.56 414.329 1227.57C396.042 1233.25 383.215 1232.96 370.705 1226.59C363.521 1222.92 344.966 1217.51 329.476 1214.55C262.138 1201.7 240.351 1194.01 221.445 1176.45C209.756 1165.59 202.99 1153 199.005 1134.72C196.141 1121.57 196.041 1121.87 197.313 1140.01C198.77 1160.82 211.531 1192.64 223.622 1205.61C233.938 1216.68 255.691 1227.09 301.241 1242.79C367.49 1265.62 398.102 1261.37 444.925 1222.8C460.482 1210 473.729 1198.37 474.382 1196.96C475.035 1195.55 481.482 1189.14 488.717 1182.7L501.863 1170.98L487.611 1187.72C469.391 1209.1 432.014 1241.79 416.858 1249.57C404.114 1256.11 385.961 1261.5 364.944 1264.97C353.875 1266.79 352.72 1267.65 358.246 1269.89C369.717 1274.53 406.341 1273.36 419.32 1267.93C450.569 1254.88 485.803 1218.5 498.631 1186.03C516.348 1141.19 525.726 1124.76 536.075 1120.41C541.786 1118.02 551.717 1111.09 558.147 1105.01C564.578 1098.94 586.767 1079.82 607.448 1062.53C628.147 1045.24 651.207 1022.79 658.692 1012.65C675.204 990.317 698.147 944.485 707.642 914.857C717.104 885.363 732.192 824.417 730.953 820.701C730.4 819.043 724.79 833.154 718.494 852.036L718.51 852.053ZM684.666 853.542C678.252 873.361 640.188 948.67 623.743 974.063C615.621 986.617 600.247 1006.3 589.58 1017.82C578.913 1029.34 571.762 1038.74 573.671 1038.74C580.822 1038.74 623.391 987.053 637.96 960.672C660.116 920.565 693.441 845.391 690.41 842.361C689.539 841.474 686.943 846.512 684.683 853.542H684.666ZM1098.13 857.325C1057.52 883.555 1019.31 904.831 1012.81 904.831C1005.34 904.831 986.151 895.557 951.117 875.018C938.256 867.469 926.567 861.309 925.16 861.309C923.754 861.309 922.598 878.534 922.598 899.591C922.598 920.649 921.007 942.075 919.048 947.197C914.543 959.015 916.285 960.337 960.596 978.767C979.301 986.55 998.007 995.958 1002.16 999.69C1009.53 1006.3 1009.56 1006.64 1003.53 1013.4C996.868 1020.87 968.684 1069.27 970.225 1070.6C974.411 1074.16 986.234 1075.37 986.234 1072.22C986.234 1070.13 989.902 1063.62 994.373 1057.76C1004.89 1043.98 1010.23 1030.66 1012.71 1012.09L1014.7 997.146L1064.94 971.92L1115.18 946.695L1116.86 896.478C1117.78 868.859 1118.4 845.876 1118.23 845.407C1118.06 844.939 1109.02 850.312 1098.13 857.342V857.325ZM1188.11 865.41C1183.19 871.62 1176.64 884.744 1178.47 884.744C1181.18 884.744 1194.69 864.339 1193.05 862.715C1192.2 861.862 1189.97 863.067 1188.11 865.427V865.41ZM1448.53 862.464C1448.32 868.725 1473.2 939.33 1474.39 935.781C1475.09 933.689 1470.87 917.954 1465.01 900.813C1454.65 870.449 1448.74 856.706 1448.53 862.448V862.464ZM1146.16 905.232C1151.66 910.84 1151.47 914.857 1145.71 914.857C1141.74 914.857 1135.46 927.88 1138.14 930.559C1138.66 931.077 1143.92 926.508 1149.83 920.398L1160.58 909.317L1151.27 905.132C1143.72 901.734 1142.76 901.751 1146.15 905.216L1146.16 905.232ZM1348.22 910.12C1348.39 914.02 1349.18 914.807 1350.25 912.146C1351.22 909.735 1351.1 906.839 1349.98 905.734C1348.86 904.63 1348.07 906.605 1348.22 910.12ZM652.412 944.502C634.259 982.265 602.625 1025.97 574.91 1051.55C561.848 1063.6 561.295 1064.54 571.578 1057.16C578.377 1052.27 584.74 1048.77 585.728 1049.37C589.865 1051.9 636.537 985.044 651.307 955.416C666.061 925.838 673.463 907.961 670.8 908.312C670.214 908.396 661.941 924.666 652.412 944.502ZM872.359 917.854C872.359 921.051 899.505 949.105 901.079 947.549C901.766 946.862 900.861 940.987 899.07 934.492C896.474 925.068 893.443 921.955 884.082 919.092C877.634 917.117 872.359 916.565 872.359 917.854ZM1155.71 931.245C1148.79 938.878 1108.6 962.681 1070.8 981.529C1055.6 989.111 1043.17 996.728 1043.17 998.468C1043.17 1001.7 1107.44 1054.66 1114.76 1057.46C1119.74 1059.36 1167.56 1015.73 1176.64 1001.01L1183.31 990.2L1174.43 957.558C1169.56 939.598 1164.63 924.917 1163.49 924.917C1162.36 924.917 1158.86 927.763 1155.69 931.245H1155.71ZM858.862 938.794C858.795 944.971 855.831 958.312 852.28 968.439C848.73 978.566 845.749 988.09 845.699 989.614C845.632 991.137 854.022 1001.21 864.321 1011.99C881.503 1030 883.73 1031.31 891.216 1027.9C897.579 1025 903.39 1025.45 917.641 1029.94C930.168 1033.89 937.77 1034.69 941.823 1032.52C948.069 1029.17 970.476 1000.85 970.091 996.811C969.957 995.522 958.854 989.664 945.407 983.805C917.943 971.837 889.692 954.529 871.321 938.392L858.996 927.579L858.878 938.811L858.862 938.794ZM1355.19 961.743C1355.19 966.346 1355.94 968.238 1356.88 965.928C1357.82 963.635 1357.82 959.868 1356.88 957.558C1355.96 955.265 1355.19 957.14 1355.19 961.743ZM1358.27 977.093C1358.44 980.993 1359.23 981.78 1360.3 979.118C1361.27 976.708 1361.15 973.812 1360.03 972.707C1358.91 971.602 1358.12 973.578 1358.27 977.093ZM1361.62 990.484C1361.79 994.384 1362.58 995.171 1363.65 992.509C1364.62 990.099 1364.5 987.203 1363.38 986.098C1362.26 984.994 1361.47 986.969 1361.62 990.484ZM1180.02 1013.08C1170.14 1024.73 1151.17 1043.2 1137.87 1054.09C1115.01 1072.81 1109.72 1078.93 1116.4 1078.93C1117.99 1078.93 1125.85 1083.95 1133.87 1090.11L1148.44 1101.3L1171.57 1069.53C1196.97 1034.62 1207.12 1015.16 1207.24 1001.11C1207.35 986.567 1199.65 989.965 1180.06 1013.1L1180.02 1013.08ZM825.888 1003.16C818.737 1010.75 818.57 1011.93 823.225 1020.85C825.972 1026.1 832.938 1036.88 838.699 1044.8L849.199 1059.2L858.979 1050.98C864.354 1046.46 870.701 1042.02 873.062 1041.14C875.775 1040.12 869.244 1031.26 855.462 1017.27L833.541 995.02L825.888 1003.17V1003.16ZM1029.77 1002.95C1029.74 1015.56 1040.49 1055.48 1043.44 1053.66C1045.13 1052.62 1046.52 1053.22 1046.52 1055.03C1046.52 1056.84 1044.65 1059.05 1042.33 1059.98C1039.79 1061.01 1040.39 1061.78 1043.89 1061.94C1047.06 1062.09 1051.24 1065.22 1053.22 1068.91C1055.2 1072.59 1058.51 1075.6 1060.59 1075.6C1062.66 1075.6 1063.38 1074.61 1062.18 1073.39C1060.97 1072.17 1061.84 1068.87 1064.14 1066.06C1066.42 1063.23 1066.72 1061.88 1064.79 1063.01C1062.87 1064.17 1059.1 1063.73 1056.42 1062.03C1052.38 1059.48 1052.55 1058.95 1057.42 1058.9C1064.94 1058.83 1064.81 1054.8 1056.75 1039.46C1045.01 1017.1 1029.81 996.51 1029.79 1002.95H1029.77ZM975.651 1011.14C970.995 1016.2 962.923 1026.09 957.732 1033.1C948.404 1045.69 948.371 1045.94 954.734 1052.3C961.098 1058.66 961.416 1058.43 978.598 1033.17C988.177 1019.11 995.227 1006.32 994.256 1004.76C991.024 999.523 984.158 1001.87 975.634 1011.14H975.651ZM658.525 1022.86C652.597 1030.67 641.511 1042.36 633.891 1048.8C607.934 1070.75 599.042 1079.54 606.36 1075.99C610.195 1074.13 615.286 1070.26 617.664 1067.4C620.042 1064.54 624.011 1062.19 626.472 1062.19C630.927 1062.19 661.305 1027.93 668.104 1015.24C673.781 1004.65 670.113 1007.56 658.542 1022.86H658.525ZM1021 1033.08C1021.6 1047.45 1023.76 1060.89 1025.82 1062.93C1032.84 1069.94 1033.06 1057.89 1026.39 1032.06L1019.91 1006.96L1021 1033.08ZM1212.76 1016.09C1211.64 1020.28 1210.7 1024.75 1210.67 1026.02C1210.64 1027.29 1223.06 1035.29 1238.25 1043.8C1268.76 1060.87 1261.14 1061.07 1228.65 1044.05L1208.16 1033.32L1181.21 1070.95L1154.27 1108.58L1167.36 1117.25C1174.56 1122.02 1180.46 1127.43 1180.46 1129.28C1180.46 1134.62 1154.25 1185.33 1150.18 1187.84C1142.65 1192.49 1142.73 1185.54 1150.38 1169.21C1158.19 1152.57 1158.2 1152.28 1151.79 1146.22C1148.22 1142.84 1132.68 1131.59 1117.26 1121.23C1090.2 1103.05 1064.21 1092.34 1047.16 1092.34C1035.3 1092.34 1041.66 1098.72 1072.71 1117.87C1099.64 1134.49 1136.95 1161.59 1140.94 1167.4C1146.6 1175.67 1139.28 1172.47 1124.51 1160.2C1103.46 1142.73 1070.32 1120.98 1068.11 1123.19C1067.15 1124.14 1080.95 1138.31 1098.77 1154.66C1116.6 1171.01 1136.27 1191.02 1142.46 1199.14L1153.73 1213.88L1147.12 1225.08C1142.76 1232.46 1141.89 1236.26 1144.57 1236.23C1148.32 1236.18 1252.42 1163.67 1293.65 1132.36C1303.41 1124.96 1312.86 1119.81 1314.66 1120.93C1316.47 1122.04 1317.53 1121.11 1317.03 1118.87C1316.52 1116.63 1326.32 1107.94 1338.8 1099.57C1356.8 1087.5 1360.6 1083.54 1357.22 1080.37C1354.87 1078.18 1331.09 1066.16 1304.38 1053.69C1277.67 1041.2 1246.59 1025.92 1235.3 1019.73L1214.79 1008.48L1212.75 1016.09H1212.76ZM295.363 1023.14C291.696 1032.38 292.449 1054.81 296.502 1057.32C302.397 1060.96 303 1057.66 300.337 1036.87C298.612 1023.38 297.004 1018.97 295.363 1023.14ZM798.457 1023.68C795.711 1026.42 774.812 1038.31 752.036 1050.09L710.606 1071.5L725.326 1078.03C741.704 1085.28 821.35 1133.02 864.823 1161.62C880.314 1171.82 894.079 1178.86 895.402 1177.26C896.725 1175.67 901.916 1168.77 906.907 1161.94L915.983 1149.54L903.373 1154.76C896.424 1157.64 889.122 1161.32 887.113 1162.95C884.818 1164.8 880.984 1163.11 876.797 1158.41C866.649 1146.99 836.723 1098.45 834.01 1088.98C832.687 1084.37 830.878 1077.96 829.974 1074.75C829.07 1071.53 829.773 1068.89 831.531 1068.89C833.29 1068.89 835.5 1071.9 836.472 1075.58C838.364 1082.83 848.914 1084.96 848.881 1078.1C848.847 1069.68 812.993 1019.02 806.914 1018.81C805.005 1018.74 801.204 1020.92 798.457 1023.68ZM1059.92 1031.58C1059.92 1033.15 1063.69 1038.51 1068.31 1043.48C1074.44 1050.09 1076.15 1054.73 1074.64 1060.7C1073.01 1067.17 1073.88 1068.89 1078.81 1068.92C1082.22 1068.94 1090.88 1069.93 1098.05 1071.12C1109.22 1072.96 1110.64 1072.52 1108.1 1068.04C1105.42 1063.3 1064.14 1028.72 1061.17 1028.72C1060.49 1028.72 1059.92 1030 1059.92 1031.58ZM885.756 1041.91C879.309 1045.32 871.254 1051.16 867.871 1054.91L861.708 1061.73L877.617 1056.94C895.838 1051.45 928.242 1050.64 940.651 1055.35C947.467 1057.94 948.723 1057.62 947.215 1053.71C945.691 1049.72 907.192 1035.04 899.639 1035.56C898.45 1035.65 892.204 1038.51 885.756 1041.91ZM1005.39 1052.62C998.677 1064.4 1000.95 1070.73 1008.29 1060.7C1012.26 1055.28 1015.04 1042.06 1012.21 1042.12C1011.76 1042.12 1008.69 1046.86 1005.41 1052.62H1005.39ZM874.051 1064.2C859.431 1069.56 849.685 1077.44 853.285 1081.04C854.541 1082.3 867.251 1079.87 881.553 1075.64C898.132 1070.73 916.034 1067.99 930.988 1068.05C953.361 1068.15 953.964 1067.95 944.385 1063.65C931.172 1057.71 890.948 1058.03 874.051 1064.2ZM619.523 1072.17C618.25 1074.23 608.353 1080.2 597.518 1085.44C572.13 1097.75 553.374 1109.36 555.501 1111.49C556.422 1112.41 567.676 1109.97 580.52 1106.07C599.779 1100.22 605.757 1096.61 614.599 1085.44C620.494 1078 624.53 1071.13 623.575 1070.16C622.621 1069.21 620.795 1070.11 619.523 1072.17ZM1041.5 1072.22C1042.64 1074.06 1044.23 1075.57 1045.05 1075.57C1045.87 1075.57 1046.52 1074.06 1046.52 1072.22C1046.52 1070.38 1044.93 1068.87 1042.97 1068.87C1041.01 1068.87 1040.36 1070.38 1041.5 1072.22ZM700.709 1074.71C697.477 1075.45 694.848 1077.26 694.848 1078.72C694.848 1082.21 777.34 1119.12 785.077 1119.09C786.115 1119.09 778.663 1114.12 768.532 1108.06C730.383 1085.23 706.386 1073.43 700.709 1074.73V1074.71ZM917.574 1077.93C912.048 1078.68 896.44 1082.35 882.893 1086.06C869.278 1089.81 854.541 1091.92 849.953 1090.77C840.725 1088.46 841.496 1091.7 853.268 1104.78L859.984 1112.24L867.486 1104.14C872.041 1099.24 884.701 1093.21 899.622 1088.86C944.385 1075.79 947.534 1073.86 917.558 1077.91L917.574 1077.93ZM1018.84 1079.33C1021.12 1081.63 1023.81 1082.65 1024.85 1081.63C1025.89 1080.59 1024.03 1078.73 1020.72 1077.46C1015.94 1075.65 1015.56 1076.02 1018.84 1079.33ZM1065.01 1082.16C1063.9 1083.95 1067.2 1086.43 1072.34 1087.67C1088.5 1091.55 1114.28 1105.77 1139.87 1124.86C1159.04 1139.18 1165.2 1142.27 1167.45 1138.72C1169.04 1136.21 1170.36 1132.63 1170.39 1130.76C1170.48 1125.47 1118.6 1089.28 1103.09 1083.8C1087.22 1078.21 1067.96 1077.38 1064.99 1082.16H1065.01ZM954.416 1084.56C915.414 1089.56 870.584 1104.41 867.101 1113.47C866.096 1116.08 869.127 1123.91 873.833 1130.84C878.539 1137.79 882.39 1144.75 882.39 1146.34C882.39 1151.68 892.522 1149.27 911.797 1139.34C934.153 1127.83 952.507 1115.78 947.701 1115.78C945.859 1115.78 938.558 1117.38 931.474 1119.34C908.263 1125.79 915.129 1120.21 941.739 1111C992.163 1093.55 993.888 1092.29 975.667 1085.93C969.873 1083.9 964.966 1082.48 964.782 1082.75C964.598 1083.02 959.926 1083.84 954.4 1084.54L954.416 1084.56ZM651.826 1095.32L630.575 1104.83L661.874 1122.6C731.204 1161.96 751.4 1179.22 810.532 1249.65C835.45 1279.35 863.149 1307.49 891.266 1331.67C914.811 1351.93 937.335 1371.92 941.337 1376.1L948.605 1383.7L950.246 1374.43C951.151 1369.32 958.167 1329 965.837 1284.81C973.507 1240.61 980.474 1201.45 981.344 1197.76C982.935 1190.98 981.813 1193.24 968.902 1222.87C965.285 1231.16 958.486 1242.37 953.78 1247.8C946.495 1256.2 944.67 1256.92 941.455 1252.68C937.603 1247.61 908.263 1235.27 884.082 1228.55C876.713 1226.5 870.132 1224.44 869.445 1223.99C868.759 1223.54 872.744 1215.1 878.304 1205.26L888.419 1187.35L859.28 1168.55C827.144 1147.83 825.235 1146.88 742.726 1110.8C711.025 1096.94 682.388 1085.65 679.089 1085.7C675.79 1085.75 663.515 1090.06 651.826 1095.3V1095.32ZM1014.65 1092.39C1013.28 1094.6 1014.25 1097.7 1016.78 1099.27C1022.36 1102.74 1025.35 1096.59 1020.48 1091.72C1018.25 1089.5 1016.31 1089.71 1014.65 1092.39ZM1343.77 1102.55C1319.29 1117.23 1313.44 1123.17 1333.72 1112.78C1359.85 1099.37 1376.24 1089.04 1371.4 1089.01C1368.64 1089.01 1356.2 1095.09 1343.77 1102.55ZM1373.08 1097.01C1369.39 1099.4 1346.03 1113.92 1321.16 1129.27C1296.29 1144.62 1257.86 1170.19 1235.76 1186.1C1175.08 1229.75 1165.92 1235.56 1150.4 1240.28C1139.7 1243.54 1134.81 1247.36 1130.89 1255.51C1123.94 1269.97 1115.11 1269.52 1106.09 1254.22L1098.9 1242.05L1092.69 1249.72L1086.48 1257.39L1076.45 1247.78C1070.92 1242.49 1062.31 1229.83 1057.31 1219.64L1048.2 1201.11V1314.1C1048.2 1376.23 1048.7 1427.09 1049.3 1427.09C1049.9 1427.09 1078.54 1400.19 1112.94 1367.3C1147.33 1334.4 1196.2 1287.78 1221.54 1263.68C1264.81 1222.52 1318.87 1179.5 1390.64 1129.12C1407.67 1117.16 1421.61 1106.4 1421.62 1105.18C1421.64 1102.45 1392.22 1092.24 1385.03 1092.49C1382.14 1092.59 1376.76 1094.63 1373.08 1097.03V1097.01ZM989.734 1105.41C987.206 1110.12 987.323 1114.45 990.103 1120.58C994.775 1130.82 998.191 1131.38 1002.86 1122.67C1007.75 1113.53 1007.17 1109.06 1001.11 1109.06C998.242 1109.06 996.751 1107.66 997.806 1105.95C998.861 1104.24 998.275 1101.93 996.5 1100.83C994.725 1099.72 991.677 1101.8 989.734 1105.43V1105.41ZM1028.1 1102.35C1029.24 1104.19 1031.58 1105.7 1033.33 1105.7C1035.07 1105.7 1036.47 1104.19 1036.47 1102.35C1036.47 1100.51 1034.13 1099 1031.25 1099C1028.37 1099 1026.96 1100.51 1028.1 1102.35ZM619.657 1108.36C621.398 1109.82 634.578 1119.81 648.929 1130.57C682.941 1156.07 761.347 1237.74 798.625 1286.48C833.826 1332.51 859.331 1357.39 932.663 1417.18C963.057 1441.97 992.665 1467.08 998.459 1472.99L1008.99 1483.73L1011.22 1449.55C1012.44 1430.75 1016.36 1380.1 1019.94 1337C1027.97 1240.18 1028.65 1160.12 1021.52 1150.69C1017.08 1144.82 1016.6 1147.09 1016.48 1174.33C1016.33 1213.72 1010.92 1299.59 1004.89 1358.46C1002.24 1384.24 999.112 1415.5 997.923 1427.92C995.73 1450.87 991.861 1456.61 987.792 1442.99C984.643 1432.48 955.505 1403.05 902.503 1356.9C849.902 1311.09 830.56 1291.12 792.178 1242.96C756.675 1198.42 744.517 1185.49 721.642 1167.85C700.34 1151.43 625.719 1105.7 620.192 1105.7C617.915 1105.7 617.697 1106.74 619.657 1108.36ZM1413.27 1118.19C1309.77 1194.1 1289.11 1211.22 1220.68 1277.93C1030.16 1463.61 1043.17 1449.99 1043.17 1463.78V1476.28L1060.82 1459.21C1070.52 1449.82 1106.31 1416.52 1140.32 1385.22C1174.33 1353.92 1231.59 1298.48 1267.52 1262.01C1315.54 1213.3 1347.3 1184.54 1387.23 1153.59C1417.12 1130.42 1440.76 1110.17 1439.78 1108.58C1436.58 1103.39 1430.3 1105.66 1413.27 1118.17V1118.19ZM583.484 1113.42C569.501 1117.33 567.542 1120.91 577.657 1124.13C586.867 1127.06 633.539 1161.96 658.927 1184.91C682.64 1206.35 730.451 1252.26 815.438 1335.19C847.675 1366.64 893.644 1408.09 917.591 1427.27C941.538 1446.45 972.821 1473.3 987.089 1486.91C1007.39 1506.28 1013.05 1510.18 1013.05 1504.84C1013.05 1500.39 1004.07 1490.56 987.423 1476.77C973.34 1465.1 951.101 1446.44 938.022 1435.31C924.943 1424.17 905.199 1408.17 894.146 1399.75C867.084 1379.13 829.79 1339.46 795.527 1294.87C762.721 1252.15 704.259 1191.08 656.348 1149.49C605.807 1105.6 607.85 1106.62 583.501 1113.43L583.484 1113.42ZM949.51 1130.1C934.823 1142.02 920.337 1158.68 904.495 1181.86C891.651 1200.66 881.804 1216.61 882.608 1217.31C883.412 1218.02 888.251 1219.59 893.342 1220.81C902.017 1222.89 903.608 1221.4 918.462 1197.34C927.187 1183.22 943.749 1158.96 955.254 1143.44C983.856 1104.9 983.019 1102.92 949.51 1130.12V1130.1ZM1024.53 1116.8C1023.6 1119.22 1024.25 1124.86 1025.97 1129.35L1029.11 1137.5L1032.82 1128.01C1036.61 1118.34 1035.33 1112.39 1029.49 1112.39C1027.7 1112.39 1025.47 1114.37 1024.55 1116.8H1024.53ZM1053.22 1115.34C1053.22 1117.18 1054.73 1119.63 1056.57 1120.76C1058.41 1121.9 1059.92 1121.33 1059.92 1119.49C1059.92 1117.65 1058.41 1115.21 1056.57 1114.07C1054.73 1112.93 1053.22 1113.5 1053.22 1115.34ZM1431.69 1131.23C1419.71 1141.42 1391.83 1164.22 1369.73 1181.88C1347.62 1199.55 1288.84 1254.14 1239.1 1303.2C1147.28 1393.78 1124.83 1415.17 1072.48 1461.95C1047.63 1484.17 1037.38 1497.37 1044.98 1497.37C1047.29 1497.37 1138.29 1418.92 1167.21 1392C1179.25 1380.8 1213.16 1351.71 1242.57 1327.34C1271.98 1302.98 1310.36 1270.19 1327.86 1254.46C1408.54 1181.96 1480.84 1126.09 1494.69 1125.52C1501.99 1125.22 1480.49 1117.32 1465.18 1114.69C1454.56 1112.86 1451.41 1114.42 1431.69 1131.19V1131.23ZM945.976 1171.23C926.668 1200.16 910.457 1224.85 909.938 1226.12C908.632 1229.37 935.409 1237 939.412 1234.54C941.22 1233.42 942.66 1230.72 942.644 1228.53C942.61 1226.34 952.675 1203.89 964.983 1178.65C982.902 1141.92 986.754 1131.34 984.242 1125.7C981.462 1119.49 976.89 1124.95 945.993 1171.23H945.976ZM1049.9 1134.44C1049.97 1149 1094.65 1227.69 1105.13 1231.71C1107.66 1232.68 1109 1235.36 1108.11 1237.67C1107.23 1239.98 1109.39 1245.4 1112.89 1249.74L1119.27 1257.62L1123.24 1250.22C1127.66 1241.99 1125.63 1236.26 1118.31 1236.26C1115.65 1236.26 1113.49 1234.76 1113.49 1232.91C1113.49 1231.07 1115 1229.57 1116.84 1229.57C1118.68 1229.57 1120.19 1227.31 1120.19 1224.55C1120.19 1221.78 1118.77 1219.52 1117.04 1219.52C1112.47 1219.52 1086.21 1184.49 1066.7 1152.38C1052.27 1128.63 1049.87 1126.07 1049.92 1134.44H1049.9ZM576.417 1148C590.886 1158.38 614.03 1175.97 627.845 1187.1C641.661 1198.23 660.501 1213.41 669.711 1220.85C678.922 1228.26 693.994 1240.16 703.204 1247.28L719.951 1260.22L703.204 1244.63C651.324 1196.36 565.147 1129.13 555.133 1129.13C552.37 1129.13 561.949 1137.62 576.417 1148ZM1041.9 1142.41C1044.7 1162.46 1055.06 1193.36 1066.83 1216.68C1077.38 1237.58 1082.09 1242.2 1087.38 1236.92C1089.78 1234.52 1087.55 1228.56 1080.23 1217.72C1065.13 1195.35 1046.54 1157.46 1046.25 1148.48C1046.12 1144.3 1044.63 1137.85 1042.92 1134.17C1040.76 1129.52 1040.46 1132.03 1041.9 1142.41ZM1066.6 1140.87C1073.87 1153.22 1093.01 1181.34 1118.97 1217.82C1128.91 1231.78 1129.78 1232.26 1134.88 1226.64C1137.84 1223.36 1140.27 1219 1140.27 1216.95C1140.27 1214.22 1081 1149.02 1060.45 1129.15C1059.5 1128.23 1062.26 1133.5 1066.6 1140.87ZM1469.58 1160.3C1431.96 1186.55 1392.33 1217.08 1357.97 1246.31C1347.32 1255.38 1385.85 1231.74 1401.51 1219.61C1407.96 1214.62 1436.96 1193.59 1465.98 1172.92C1512.34 1139.88 1525.27 1128.65 1516.22 1129.33C1514.83 1129.43 1493.85 1143.38 1469.58 1160.3ZM524.286 1150.07C513.568 1175.82 503.906 1215.19 503.906 1233.07C503.906 1246.27 492.954 1327.59 489.052 1343.41C480.745 1377.02 468.772 1410.23 466.879 1404.91C465.255 1400.34 463.982 1402.55 462.174 1413.09C460.817 1421.04 460.549 1428.41 461.604 1429.45C462.643 1430.48 476.743 1432.58 492.92 1434.08C523.281 1436.91 588.994 1448.48 605.238 1453.84C610.295 1455.51 614.448 1456.08 614.448 1455.09C614.448 1454.1 605.037 1441.52 593.515 1427.12C573.437 1401.99 545.118 1354.69 548.284 1351.53C549.121 1350.69 555.434 1359.14 562.334 1370.29C572.214 1386.29 615.52 1441.65 631.463 1458.64C633.154 1460.45 635.231 1459.38 636.52 1456.01C640.07 1446.74 627.779 1422.18 585.946 1354.98C549.188 1295.94 535.355 1270.71 538.202 1267.87C539.307 1266.76 587.972 1340.38 604.3 1367.85C608.47 1374.84 612.456 1380 613.159 1379.3C613.862 1378.59 610.63 1366.84 605.958 1353.18C601.286 1339.53 589.882 1301.98 580.604 1269.76C571.327 1237.53 559.152 1195.35 553.592 1176.02C539.174 1126.04 535.623 1122.89 524.319 1150.07H524.286ZM1482.73 1139.16C1467.61 1148.38 1469.02 1150.63 1484.41 1141.82C1499.88 1132.97 1500.5 1132.5 1496.68 1132.51C1494.99 1132.51 1488.71 1135.51 1482.73 1139.16ZM1525.12 1143.38C1522.34 1149.37 1508.64 1174.6 1494.69 1199.45C1480.74 1224.31 1464.78 1253.7 1459.22 1264.75C1445.65 1291.75 1415.83 1363.41 1413.1 1375.53C1411.89 1380.89 1407.82 1392.04 1404.04 1400.32C1395.06 1419.99 1384.71 1453.89 1387.68 1453.89C1388.95 1453.89 1392.77 1449.2 1396.15 1443.46C1405.3 1427.97 1465.35 1357.69 1525.79 1291.74C1531.6 1285.41 1531.95 1292.52 1526.71 1310.2C1520.78 1330.17 1489.06 1411.05 1486.11 1413.71C1481.29 1418.06 1490.13 1388.91 1505.2 1350.76C1514.36 1327.57 1521.36 1308.11 1520.76 1307.5C1520.16 1306.9 1515.35 1312.09 1510.09 1319.05C1504.84 1326 1487.67 1346.77 1471.95 1365.22C1436.41 1406.88 1396.87 1456.73 1392.32 1465.62C1390.42 1469.3 1389.65 1477.34 1390.59 1483.48C1392.58 1496.62 1388.26 1497.42 1446.71 1472.97C1546.55 1431.2 1599.99 1410.38 1607.31 1410.38C1610.15 1410.38 1612.5 1408.86 1612.5 1406.98C1612.5 1403.35 1588.03 1294.36 1572.31 1227.93C1561.3 1181.49 1551.44 1153.44 1541.8 1141.17C1533.02 1130.02 1531.23 1130.27 1525.12 1143.39V1143.38ZM551.7 1145.91C552.805 1148.65 556.941 1161.46 560.877 1174.34C602.893 1311.49 623.491 1367.23 640.924 1390.91C648.444 1401.14 650.905 1402.75 652.546 1398.48C655.711 1390.23 654.556 1384.3 651.274 1391.95C648.628 1398.09 648.377 1397.96 648.125 1390.28C647.975 1385.67 645.597 1358.62 642.85 1330.18C637.408 1273.76 631.228 1244.38 618.97 1216.53C614.582 1206.58 611.752 1197.68 612.69 1196.76C615.336 1194.1 626.64 1221.9 635.917 1253.99C641.075 1271.8 646.015 1301.23 648.444 1328.56C650.637 1353.4 653.568 1372.55 654.941 1371.13C658.357 1367.56 664.637 1301.71 664.905 1266.68C665.073 1243.51 665.793 1239.58 668.606 1246.34C672.441 1255.55 669.929 1353.7 665.14 1381.26C663.599 1390.09 663.482 1396.12 664.872 1394.65C666.262 1393.17 675.221 1374.64 684.783 1353.47C702.501 1314.27 708.228 1304.52 708.228 1313.56C708.228 1320.64 686.173 1371.97 673.948 1393.34C662.326 1413.66 660.601 1413.21 697.36 1399.67C720.821 1391.03 718.728 1395.33 724.69 1343.43L727.955 1314.97L726.632 1353.47L725.309 1391.97L754.465 1391.38L783.603 1390.8L756.005 1394.86C740.816 1397.11 726.833 1400.51 724.907 1402.43C722.982 1404.36 720.553 1411.23 719.498 1417.7L717.589 1429.46L743.161 1431.77C793.132 1436.29 878.103 1453.1 933.919 1469.49C946.579 1473.2 935.141 1463.86 889.893 1433.53C864.606 1416.57 842.4 1401.16 840.558 1399.28C836.07 1394.7 867.067 1412.29 885.17 1424.59C908.598 1440.51 904.428 1433.13 879.862 1415.15C867.452 1406.08 846 1388.82 832.185 1376.82C818.369 1364.8 794.321 1344.46 778.764 1331.61C763.19 1318.75 725.075 1286.11 694.061 1259.08C611.066 1186.73 548.016 1136.58 551.75 1145.89L551.7 1145.91ZM998.51 1150.07C997.505 1154.22 995.01 1170.41 992.966 1186.06C987.189 1230.24 966.541 1349.74 961.199 1369.87C955.806 1390.24 956.811 1393.44 973.876 1409.85L985.531 1421.04L987.524 1408.17C992.481 1376.03 999.581 1295.8 1002.86 1234.61C1004.84 1197.78 1007.05 1162.01 1007.75 1155.1C1009.19 1141.03 1001.71 1136.95 998.526 1150.07H998.51ZM1503.88 1155.6C1502.86 1157.25 1474.68 1179.48 1441.27 1204.98L1380.53 1251.34L1382.59 1285.22C1383.73 1303.85 1386.34 1326.97 1388.4 1336.58C1391.21 1349.72 1391.13 1362.32 1388.06 1387.4C1385.82 1405.74 1384.65 1421.41 1385.47 1422.23C1386.29 1423.05 1391.09 1409.8 1396.17 1392.77C1410.1 1345.97 1455.17 1246.77 1485.11 1196.96C1499.78 1172.55 1510.41 1152.6 1508.75 1152.6C1507.1 1152.6 1504.9 1153.96 1503.86 1155.61L1503.88 1155.6ZM963.124 1198.13C955.455 1215.94 949.727 1231.04 950.38 1231.71C951.05 1232.38 957.849 1218.33 965.502 1200.52C973.155 1182.71 978.9 1167.6 978.246 1166.95C977.593 1166.29 970.778 1180.34 963.108 1198.13H963.124ZM1033.24 1211.17C1033.07 1227.74 1031.55 1259.38 1029.86 1281.47C1026.09 1330.27 1020.87 1406.06 1017.9 1454.72C1015.99 1486.16 1016.38 1490.71 1020.98 1490.71C1035.07 1490.71 1036.02 1482.22 1038.33 1336.71C1039.82 1242.66 1039.4 1195.08 1037.04 1189.41C1034.21 1182.66 1033.48 1186.92 1033.24 1211.17ZM497.224 1234.89C497.224 1242.42 476.592 1356.23 472.088 1373.61C466.394 1395.57 465.891 1402.61 470.899 1390.29C481.198 1364.93 503.855 1238.47 498.965 1233.58C498.011 1232.61 497.207 1233.22 497.207 1234.91L497.224 1234.89ZM1483.87 1261.39C1464.8 1307.15 1453.81 1326.85 1419.41 1376.89C1415.75 1382.21 1418.91 1380.39 1428.12 1371.86C1457.76 1344.41 1497.35 1269.99 1494.65 1246.79C1493.82 1239.56 1491.86 1242.2 1483.85 1261.39H1483.87ZM1325.05 1291.95L1280.43 1328.34L1282.38 1343.04C1283.45 1351.13 1284.32 1364.92 1284.32 1373.69V1389.64L1301.9 1392.02C1311.57 1393.32 1328.53 1397.22 1339.58 1400.66C1350.64 1404.1 1359.91 1406.93 1360.18 1406.97C1360.45 1407 1358.57 1399.99 1355.99 1391.42C1348.24 1365.64 1350.95 1360.15 1359.54 1384.25C1363.93 1396.59 1369.04 1409.38 1370.88 1412.66C1373.83 1417.91 1374.53 1417.43 1376.74 1408.64C1380.93 1392.02 1379.74 1327.17 1374.55 1290.28L1369.68 1255.56L1325.06 1291.95H1325.05ZM735.039 1277.72C735.039 1278.41 737.668 1281.06 740.9 1283.58C746.209 1287.75 746.326 1287.63 742.173 1282.31C737.802 1276.74 735.039 1274.96 735.039 1277.72ZM1351.59 1321.65C1351.44 1325.33 1355.84 1335.12 1361.35 1343.41C1366.86 1351.69 1371.38 1360.37 1371.38 1362.66C1371.38 1364.97 1372.91 1366.84 1374.75 1366.84C1380.08 1366.84 1378.72 1361.99 1369.59 1348.56C1364.92 1341.68 1359.01 1331.29 1356.46 1325.5C1352.98 1317.55 1351.77 1316.59 1351.59 1321.65ZM448.207 1342.39C417.16 1378.41 374.892 1419.42 332.44 1454.71C243.868 1528.32 233.1 1548.8 255.39 1601.22C265.555 1625.11 289.937 1657.82 302.648 1664.63C307.555 1667.24 307.253 1665.33 300.689 1652.03C263.026 1575.68 305.026 1469.92 393.396 1418.58C407.212 1410.57 423.707 1400.15 430.054 1395.45C445.478 1384.03 448.827 1384.69 439.549 1397.29C432.164 1407.32 431.93 1409.88 432.365 1473.45C432.868 1545.21 436.669 1564.88 455.961 1595.45L464.686 1609.27L472.573 1591.41C476.911 1581.59 480.461 1572.41 480.461 1571.04C480.461 1569.67 474.951 1556.68 468.219 1542.18C457.033 1518.08 455.81 1512.49 453.985 1476.99C452.762 1453.1 450.351 1436.18 447.705 1433C443.016 1427.35 442.614 1429.58 460.147 1362.14C465.841 1340.23 469.894 1321.68 469.157 1320.94C468.42 1320.21 458.975 1329.85 448.191 1342.39H448.207ZM1228.39 1365.25L1187.53 1396.67L1221.69 1394.91C1270.24 1392.42 1274.44 1391.97 1274.34 1389.31C1274.29 1388 1274.26 1374.88 1274.26 1360.15C1274.26 1345.42 1273.13 1333.47 1271.74 1333.6C1270.35 1333.73 1250.84 1347.96 1228.37 1365.25H1228.39ZM614.566 1365.17C614.566 1367.01 616.023 1370.78 617.814 1373.54C619.606 1376.3 621.063 1377.05 621.063 1375.21C621.063 1373.37 619.606 1369.61 617.814 1366.84C616.023 1364.08 614.566 1363.33 614.566 1365.17ZM624.814 1386.93C624.463 1394.46 640.422 1427.1 644.458 1427.1C651.207 1427.1 647.874 1413.85 638.412 1402.95C633.154 1396.91 627.996 1389.69 626.958 1386.93C625.267 1382.46 625.032 1382.46 624.831 1386.93H624.814ZM418.181 1409.66C410.98 1415.94 407.162 1422.85 405.789 1432.13C404.7 1439.49 402.038 1456.06 399.877 1468.95C397.617 1482.46 396.712 1506.5 397.75 1525.68C399.442 1556.66 400.581 1560.97 414.078 1587.35C429.351 1617.19 445.277 1641.36 449.664 1641.36C451.088 1641.36 454.789 1634.58 457.853 1626.3C460.935 1618.01 462.358 1611.23 461.018 1611.23C455.961 1611.23 436.903 1571.24 432.097 1550.52C426.738 1527.44 423.942 1421.61 428.313 1407.85C431.293 1398.48 430.942 1398.55 418.181 1409.66ZM704.728 1405.18C680.647 1414.05 664.738 1424.06 659.915 1433.4L654.958 1442.97L667.367 1438.7C674.199 1436.36 686.96 1433.36 695.735 1432.06C709.384 1430.02 711.962 1428.41 713.637 1420.86C714.709 1416.01 716.3 1409.39 717.171 1406.18C718.041 1402.97 718.276 1400.42 717.69 1400.56C717.104 1400.69 711.276 1402.77 704.728 1405.18ZM1219.03 1403.84C1202.45 1405.24 1184.93 1407.92 1180.11 1409.81C1175.28 1411.7 1153.97 1427.49 1132.77 1444.93C1111.56 1462.37 1086.53 1482.36 1077.17 1489.34C1067.79 1496.34 1060.5 1502.45 1060.97 1502.91C1061.44 1503.38 1074.59 1500 1090.2 1495.42C1169.32 1472.15 1236.59 1460.72 1294.4 1460.72C1320.06 1460.72 1356.65 1466.21 1372.34 1472.42C1377.61 1474.49 1378.22 1472.73 1377.8 1456.8C1377.53 1446.92 1375.12 1435.31 1372.42 1430.99C1367.53 1423.19 1348.37 1413.23 1329.95 1408.92L1320.29 1406.67L1329.12 1417.14C1346.8 1438.15 1337.61 1457.23 1309.77 1457.23C1289.28 1457.23 1274.29 1444.08 1274.29 1426.1C1274.29 1413.46 1278.89 1408.05 1293.33 1403.74C1305.35 1400.14 1262.1 1400.19 1219.03 1403.84ZM1291.79 1415.59C1282.06 1422.38 1282.34 1432.13 1292.56 1442.34C1303.18 1452.95 1318.87 1453.32 1326.02 1443.11C1332.83 1433.38 1332.73 1432.76 1322.57 1420.68C1312.97 1409.28 1303.13 1407.65 1291.79 1415.59ZM1299.93 1419.84C1290.4 1430.37 1295.12 1443.84 1308.33 1443.84C1318.43 1443.84 1322.4 1431.71 1315.45 1422.17C1308.2 1412.21 1307.01 1412.02 1299.93 1419.84ZM1581.1 1427.09C1568.41 1432.49 1550.32 1439.44 1540.91 1442.52C1531.5 1445.6 1511 1453.77 1495.34 1460.67C1479.68 1467.58 1450.04 1480.33 1429.48 1489.02L1392.08 1504.81L1390.83 1525.38C1390.14 1536.69 1389.84 1546.4 1390.17 1546.95C1390.51 1547.51 1396.45 1542.75 1403.4 1536.39C1420.42 1520.81 1464.23 1495.1 1497.02 1481.42C1511.75 1475.28 1530.32 1467.29 1538.3 1463.66C1556.2 1455.51 1553.5 1461.45 1535.01 1470.88C1523.96 1476.52 1521.87 1479.08 1523.39 1485.15C1527.95 1503.3 1497.15 1548.58 1439.96 1607.85C1384.71 1665.1 1344.64 1713.72 1344.64 1723.48C1344.64 1728.02 1345.54 1731.72 1346.63 1731.72C1347.72 1731.72 1355.06 1726.08 1362.91 1719.17C1383.69 1700.89 1427.2 1679.16 1508.75 1646.32C1548.36 1630.38 1582.84 1616.47 1585.37 1615.42C1589.84 1613.56 1589.41 1594.79 1584.35 1571.28C1583.24 1566.19 1586.81 1553.7 1593.89 1537.8C1600.11 1523.85 1606.23 1508.92 1607.52 1504.62C1609.58 1497.74 1609.13 1497.22 1603.69 1500.34C1600.29 1502.28 1584 1517.48 1567.48 1534.1C1550.97 1550.72 1536.17 1564.33 1534.59 1564.33C1528.72 1564.33 1546.84 1543.62 1579.37 1513.14L1612.95 1481.69L1610.66 1464.43C1609.4 1454.94 1607.36 1447.17 1606.1 1447.17C1602.77 1447.17 1587.01 1464.87 1557.6 1501.63C1532.63 1532.86 1504.03 1560.93 1497.15 1560.98C1495.37 1560.98 1500.77 1553.85 1509.12 1545.1C1544.69 1507.89 1614.34 1416.91 1607.09 1417.13C1605.5 1417.18 1593.81 1421.65 1581.1 1427.07V1427.09ZM393.43 1427.3C393.43 1429.25 391.973 1429.95 390.181 1428.84C388.389 1427.74 380.2 1435.96 371.995 1447.12C350.944 1475.71 341.751 1515.38 343.844 1568.6C345.117 1600.77 346.691 1609.26 354.763 1627.13C369.047 1658.77 405.018 1687.95 430.021 1688.18C436.92 1688.23 435.748 1686.66 422.234 1677.72C382.679 1651.54 357.911 1597.47 351.865 1524.21C350.358 1505.96 351.062 1507.89 356.203 1536.07C363.956 1578.61 367.691 1590.11 384.203 1622.18C407.798 1667.99 451.121 1698.29 493.088 1698.29C515.059 1698.29 521.071 1693.67 503.989 1689.92C491.262 1687.13 461.236 1665.05 435.313 1639.42C403.31 1607.77 382.746 1561.23 378.174 1510.11C375.863 1484.33 380.686 1448.35 387.251 1442.34C390.064 1439.76 390.382 1440.6 388.423 1445.53C386.966 1449.22 385.073 1465.92 384.203 1482.66C382.98 1506.5 384.169 1519.17 389.729 1541.13C396.947 1569.67 411.633 1604.19 421.681 1616.29C424.746 1619.97 421.966 1612.44 415.502 1599.55C394.184 1557.06 393.162 1551.86 393.966 1490.06C394.368 1459.14 396.009 1431.97 397.617 1429.66C399.392 1427.12 399.794 1430.07 398.638 1437.18C396.963 1447.49 397.164 1447.93 400.229 1440.75C402.155 1436.26 402.959 1430.62 402.021 1428.19C400.011 1422.94 393.43 1422.28 393.43 1427.34V1427.3ZM1304.43 1430.45C1304.43 1434.13 1305.94 1437.15 1307.78 1437.15C1309.62 1437.15 1311.13 1434.13 1311.13 1430.45C1311.13 1426.77 1309.62 1423.76 1307.78 1423.76C1305.94 1423.76 1304.43 1426.77 1304.43 1430.45ZM676.896 1445.32C667.936 1447.73 659.262 1451.76 657.637 1454.29C645.463 1473.15 642.415 1550.79 652.396 1587.66C655.611 1599.57 671.754 1639.07 688.283 1675.46C718.175 1741.31 721.759 1751.02 714.491 1746.53C710.757 1744.22 677.18 1675.86 664.687 1645.11C661.221 1636.61 658.324 1631.15 658.223 1632.99C658.006 1637.13 686.391 1722.09 690.829 1730.61C692.587 1734 692.939 1739.79 691.616 1743.47C690.293 1747.15 690.628 1755.44 692.386 1761.88C696.372 1776.46 728.257 1816 745.824 1828.14C753.041 1833.12 767.393 1843.6 777.725 1851.42C788.041 1859.24 797.235 1864.91 798.123 1864.01C800.283 1861.87 788.343 1835.17 782.532 1829.12C780.02 1826.51 762.034 1812.2 742.558 1797.32C712.649 1774.45 692.738 1755.19 699.034 1755.19C699.922 1755.19 720.084 1770.82 743.814 1789.92C767.544 1809.02 787.505 1824.19 788.175 1823.6C788.828 1823.03 781.761 1806.19 772.484 1786.22C751.216 1740.47 717.271 1640.11 708.195 1596.17C696.422 1539.1 695.97 1483.1 706.972 1446.35C709.116 1439.21 700.759 1438.92 676.912 1445.32H676.896ZM713.537 1447.56C712.197 1451.94 710.321 1474.37 709.35 1497.39C707.324 1545.87 712.046 1580.82 728.458 1639.09L739.159 1677.07L767.644 1691.19C794.773 1704.64 796.046 1704.94 794.187 1697.57C783.352 1654.42 780.271 1622.73 780.74 1559.32C781.008 1522.5 782.615 1482.33 784.29 1470.06L787.338 1447.74L777.089 1445.65C771.446 1444.5 755.386 1442.65 741.386 1441.55C716.702 1439.61 715.864 1439.77 713.503 1447.54L713.537 1447.56ZM789.783 1466.88C784.491 1505.59 786.568 1623.9 793.249 1664.78C796.716 1685.96 801.237 1705.04 803.297 1707.2C805.357 1709.34 831.163 1721.68 860.637 1734.6L914.225 1758.1L916.57 1745.75C925.596 1698.14 940.935 1483.7 935.543 1480.37C929.9 1476.89 860.838 1460.36 824.95 1453.92L792.345 1448.06L789.783 1466.86V1466.88ZM1228.4 1473.05C1212.44 1474.49 1215.01 1466.74 1207.14 1537.56C1204.99 1556.9 1200.42 1586.94 1196.99 1604.34C1193.55 1621.73 1191.18 1636.39 1191.68 1636.91C1192.2 1637.41 1202.2 1635.89 1213.88 1633.5C1235.02 1629.19 1235.19 1629.08 1239.72 1614.33C1250.73 1578.57 1264.19 1518.25 1266.25 1495.43L1268.49 1470.61L1255.47 1471.19C1248.3 1471.51 1236.12 1472.35 1228.39 1473.05H1228.4ZM1279.66 1475.9C1278.54 1478.81 1277.64 1486.18 1277.64 1492.27C1277.64 1506.28 1266.35 1562.1 1257.31 1592.8C1245.33 1633.44 1217.28 1712.12 1203.32 1744.24C1190.44 1773.85 1190.02 1775.86 1193.74 1791.28C1196.5 1802.76 1196.59 1810.04 1194.09 1816.65C1192.15 1821.74 1190.57 1826.36 1190.57 1826.91C1190.57 1827.47 1207.34 1821.27 1227.82 1813.15C1248.3 1805.04 1265.76 1799.08 1266.6 1799.91C1269.18 1802.49 1240.21 1817.67 1220.72 1823.97C1210.59 1827.23 1193.25 1834.18 1182.2 1839.42L1162.1 1848.91V1875.67C1162.1 1890.39 1162.57 1902.44 1163.14 1902.46C1167.13 1902.52 1315.94 1784.4 1319.87 1778.05C1323.36 1772.43 1321.97 1751.76 1317.78 1746.7C1312.52 1740.37 1321.16 1710.18 1343.2 1657.88C1369.31 1595.9 1378.13 1560.76 1378.15 1518.85C1378.15 1485.89 1377.95 1484.97 1369.63 1481.19C1357.82 1475.81 1358.05 1475.6 1358.05 1491.93C1358.05 1531.82 1340 1598.44 1305.34 1686.54C1286.58 1734.18 1282.88 1754.3 1288.71 1776.93C1290.13 1782.46 1288.1 1779.44 1284.2 1770.24C1275.26 1749.14 1276.68 1739.39 1295.77 1690.42C1328.66 1606.14 1347.4 1540.93 1350.37 1500.42L1352.23 1474.99L1329.18 1472.82C1292.34 1469.34 1281.96 1469.99 1279.7 1475.9H1279.66ZM1157.06 1487.03C1135.88 1492.1 1103.29 1500.44 1084.64 1505.56L1050.71 1514.87L1048.53 1562.2C1047.34 1588.25 1045.47 1622.53 1044.38 1638.42L1042.38 1667.29L1111.7 1653.45C1158.4 1644.11 1181.9 1637.96 1183.74 1634.62C1187.36 1628.02 1202.92 1532.38 1205.39 1501.58C1207.71 1472.78 1211.59 1473.97 1157.05 1487.03H1157.06ZM1497.48 1489.21C1477.52 1496.52 1415.51 1534.48 1401.76 1547.81C1393.12 1556.19 1387.8 1565.57 1383.86 1579.41C1380.78 1590.22 1378.77 1599.6 1379.39 1600.22C1380.01 1600.84 1391.28 1587.88 1404.42 1571.43C1427.33 1542.75 1456.25 1514.13 1462.33 1514.13C1467.41 1514.13 1465.41 1519.08 1458.67 1523.3C1447.04 1530.55 1377.98 1615.65 1368.27 1634.65C1358.64 1653.52 1340.3 1701.74 1342.09 1703.51C1342.65 1704.07 1352.11 1693 1363.13 1678.92C1374.15 1664.85 1402.77 1632.94 1426.71 1608C1477.57 1555.06 1490.69 1539.44 1506.9 1512.54C1524.46 1483.36 1523.06 1479.85 1497.5 1489.21H1497.48ZM1021.99 1499.62C1019.27 1502.33 1018.99 1514.13 1021.65 1514.13C1027.03 1514.13 1036.51 1506.58 1036.51 1502.3C1036.51 1497.36 1026.16 1495.47 1021.99 1499.62ZM976.22 1554.62C976.22 1613.48 971.481 1688.05 965.837 1718.35C960.077 1749.25 958.703 1828.07 963.543 1850.58L967.864 1870.67L979.586 1869.51C986.033 1868.9 991.543 1868.14 991.844 1867.84C992.146 1867.56 991.074 1860.54 989.483 1852.26C984.861 1828.34 985.799 1791.71 992.765 1723.35C996.332 1688.38 1000.25 1629.63 1001.47 1592.8L1003.7 1525.85L989.969 1512.61L976.237 1499.37V1554.62H976.22ZM1021.08 1528.88C1020.1 1531.47 1022.32 1539.37 1026.06 1546.45L1032.86 1559.32L1033.01 1541.75C1033.12 1528.14 1032 1524.17 1028.03 1524.17C1025.2 1524.17 1022.09 1526.3 1021.1 1528.88H1021.08ZM1007.07 1593.64C1006.53 1624.47 1005.28 1655.36 1004.25 1662.25C1002.56 1673.72 1003.1 1674.81 1010.23 1674.76C1024.57 1674.66 1027.25 1670.05 1030.04 1640.84C1033.68 1602.78 1033.78 1560.98 1030.23 1560.98C1028.62 1560.98 1023.73 1555.73 1019.34 1549.28C1014.95 1542.84 1010.62 1537.58 1009.7 1537.56C1008.78 1537.56 1007.59 1562.77 1007.07 1593.62V1593.64ZM294.76 1604.19C295.698 1617.81 299.215 1635.14 302.581 1642.68C308.576 1656.09 339.49 1688.2 346.423 1688.2C348.349 1688.2 343.81 1682.67 336.342 1675.93C317.15 1658.6 305.662 1637.19 298.913 1606.18L293.086 1579.39L294.777 1604.19H294.76ZM462.492 1636.89C456.681 1649.06 456.698 1649.16 465.356 1657.78L474.047 1666.44L471.803 1646.35C470.564 1635.3 469.274 1625.91 468.939 1625.48C468.604 1625.03 465.707 1630.18 462.492 1636.89ZM1517.13 1651.56C1443.36 1681.55 1397.51 1704.3 1371.72 1723.67C1352.03 1738.47 1351.12 1739.77 1353.57 1749.71C1354.99 1755.47 1355.79 1766.82 1355.34 1774.94L1354.54 1789.72L1361.3 1781.12C1373.14 1766.07 1406.53 1754.43 1537.21 1719.82C1563 1712.99 1586.74 1706.04 1589.96 1704.37C1596.87 1700.8 1598.13 1678.46 1591.77 1672.1C1588.6 1668.93 1586.74 1669.7 1583.21 1675.61C1579.26 1682.26 1578.89 1679.8 1580.24 1655.56C1581.33 1635.94 1580.66 1628 1577.92 1628.17C1575.79 1628.31 1548.43 1638.82 1517.11 1651.56H1517.13ZM1602.53 1632.57C1602.53 1637.55 1613.84 1657.03 1626.77 1674.34C1669.72 1731.89 1692.19 1833.64 1671.61 1877.35C1663.41 1894.79 1653.46 1907.01 1639.58 1916.69C1628.49 1924.42 1633.48 1928.34 1644.89 1920.85C1692.31 1889.79 1699.85 1822.88 1665.84 1734.72C1655.84 1708.79 1602.53 1622.78 1602.53 1632.57ZM1204.81 1643.87C1194.38 1646.92 1187.22 1650.9 1187.22 1653.7C1187.22 1656.28 1181.2 1683.11 1173.83 1713.31C1158.54 1775.96 1157.6 1785.28 1166.61 1785.28C1170.01 1785.28 1175.35 1788.11 1178.47 1791.56C1183.93 1797.59 1183.64 1797.82 1171.45 1797.55C1153.21 1797.17 1031.47 1856.39 1034.46 1864.19C1035.59 1867.12 1036.51 1873.92 1036.51 1879.29C1036.51 1884.66 1038.13 1889.07 1040.11 1889.07C1043.79 1889.07 1154.15 1842.26 1170.96 1833.58C1182.54 1827.58 1188.31 1808.53 1185.33 1786.14C1183.52 1772.5 1185.03 1765.8 1195.73 1740.07C1208.01 1710.51 1230.75 1645.97 1230.75 1640.68C1230.75 1637.13 1225.94 1637.73 1204.79 1643.87H1204.81ZM1113.54 1662.3C1077.62 1669.47 1046.55 1677.1 1044.51 1679.26C1037.43 1686.73 1028.79 1851.7 1035.67 1848.16C1059.88 1835.72 1151.2 1791.98 1152.98 1791.98C1154.32 1791.98 1155.54 1783.31 1155.71 1772.73C1155.88 1762.13 1161.6 1731.08 1168.42 1703.72C1175.23 1676.33 1180.38 1652.88 1179.84 1651.61C1179.3 1650.32 1149.46 1655.14 1113.54 1662.3ZM514.02 1671.66C514.02 1673.6 515.528 1674.27 517.37 1673.13C519.212 1671.99 520.719 1670.4 520.719 1669.58C520.719 1668.76 519.212 1668.11 517.37 1668.11C515.528 1668.11 514.02 1669.7 514.02 1671.66ZM1009.23 1683.75C1003.15 1685.35 1002.13 1690.78 996.048 1752.69C992.112 1792.85 992.832 1854.05 997.32 1861.25C999.179 1864.23 1002.43 1864.31 1010.25 1861.6L1020.7 1857.95L1018.64 1828.89C1016.71 1801.79 1020.48 1722.51 1025.04 1694.06C1027.15 1680.95 1025 1679.54 1009.23 1683.75ZM741.771 1689.82C741.771 1693.44 778.379 1785.07 784.725 1797.34C794.02 1815.3 825.536 1846.06 825.419 1837.04C825.335 1829.61 800.249 1718.63 798.307 1717.04C794.204 1713.67 741.771 1688.43 741.771 1689.82ZM1330.54 1713.31C1326.2 1727.35 1324.9 1743.86 1327.22 1754.74L1329.65 1766.02L1334.14 1757.65C1337.54 1751.3 1337.89 1744.11 1335.61 1727.94C1333.65 1714.11 1331.88 1708.97 1330.54 1713.31ZM433.738 1744.14C431.478 1752.96 429.083 1772.23 428.413 1786.96C427.241 1812.69 427.308 1813.02 430.339 1795.33C440.755 1734.41 442.346 1710.51 433.738 1744.14ZM623.023 1741.51C621.968 1743.2 613.209 1747.22 603.563 1750.43C593.917 1753.63 587.889 1756.88 590.183 1757.65C596.714 1759.84 616.424 1752.22 622.989 1744.98C626.255 1741.38 628.046 1738.42 626.941 1738.42C625.836 1738.42 624.078 1739.8 623.039 1741.51H623.023ZM1363.46 1817.22C1362.31 1820.2 1361.47 1824.42 1361.59 1826.56C1361.7 1828.72 1363.25 1826.86 1365 1822.46C1366.76 1818.04 1367.62 1813.84 1366.88 1813.1C1366.14 1812.38 1364.6 1814.23 1363.46 1817.22ZM792.127 1823.11C792.044 1826.43 794.505 1833.96 797.57 1839.85C800.634 1845.75 804.084 1855.02 805.206 1860.44C806.898 1868.58 811.654 1872.64 832.285 1883.53L857.304 1896.72L834.345 1873.2C821.718 1860.27 813.177 1849.09 815.371 1848.36C817.716 1847.57 813.797 1840.87 805.809 1832.05C795.929 1821.14 792.228 1818.71 792.127 1823.11ZM751.015 1849.73C753.426 1859.12 808.137 1913.3 813.311 1911.43C815.388 1910.68 820.11 1911.58 823.795 1913.42C827.479 1915.28 823.343 1910.07 814.584 1901.85C805.826 1893.65 798.675 1883.96 798.675 1880.34C798.675 1876.44 794.237 1871.21 787.79 1867.47C781.812 1864.02 771.412 1856.91 764.697 1851.69C749.96 1840.24 748.503 1840.02 750.998 1849.73H751.015ZM517.353 1864.12C517.353 1900.03 566.822 1917.72 674.769 1920.45C714.14 1921.46 716.986 1921.26 689.841 1919.41C657.637 1917.24 657.269 1917.14 680.144 1916.5C717.12 1915.48 745.104 1911.88 745.104 1908.15C745.104 1905.89 722.898 1905.45 678.955 1906.84C621.113 1908.67 609.157 1908.13 583.702 1902.54C544.683 1893.95 535.824 1888.92 527.736 1870.65C520.166 1853.56 517.353 1851.79 517.353 1864.12ZM1275.63 1892.82C1261.08 1900.53 1242.39 1910.34 1234.1 1914.61C1214.64 1924.64 1220.06 1924.62 1247.51 1914.59C1278.39 1903.29 1309.2 1887.96 1308.7 1884.13C1307.85 1877.45 1301.42 1879.14 1275.63 1892.82ZM1127.24 1911.06C1117.27 1915.58 1109.89 1920.03 1110.83 1920.95C1112.59 1922.71 1150.37 1906.39 1150.37 1903.88C1150.37 1901.37 1145.48 1902.78 1127.24 1911.06Z" fill="#121212"/>
</g>
<defs>
<clipPath id="clip0_157_111">
<rect width="1618" height="1902" fill="white" transform="translate(191 49)"/>
</clipPath>
</defs>
</svg>
