<svg width="2000" height="2000" viewBox="0 0 2000 2000" fill="none" xmlns="http://www.w3.org/2000/svg">
<g clip-path="url(#clip0_157_280)">
<path fill-rule="evenodd" clip-rule="evenodd" d="M853.029 158.994C860.543 161.561 851.044 167.009 844.569 165.765C843.387 159.498 851.8 162.852 853.029 158.994Z" fill="black"/>
<path fill-rule="evenodd" clip-rule="evenodd" d="M841.182 175.906C837.212 184.992 826.09 179.701 824.262 192.818C818.544 190.866 821.6 189.464 814.117 191.133C822.466 185.386 830.028 178.835 841.182 175.906Z" fill="black"/>
<path fill-rule="evenodd" clip-rule="evenodd" d="M1096.66 197.887C1104.32 194.738 1099.61 203.966 1103.44 204.659C1096.82 237.837 1118.58 252.544 1130.5 272.307C1126.5 283.188 1111.34 291.203 1096.66 285.833C1101.29 277.503 1116.65 279.881 1123.73 273.991C1108.51 253.253 1090.38 235.821 1096.66 197.887Z" fill="black"/>
<path fill-rule="evenodd" clip-rule="evenodd" d="M1069.6 246.924C1061.04 248.514 1055.75 253.38 1044.22 251.994C1047.18 247.632 1055.37 248.483 1061.14 246.924C1057.78 241.223 1046.74 246.845 1039.14 246.924C1047.12 231.791 1072.35 233.901 1081.44 219.871C1074.57 222.044 1062.57 233.665 1047.6 233.397C1055.34 227.036 1068.13 225.729 1076.37 219.871C1065.41 219.635 1052.44 232.012 1034.07 230.012C1050.09 224.611 1065.99 219.068 1081.44 213.1C1081.13 214.47 1079.74 214.785 1079.76 216.485C1085.19 216.847 1083.87 210.454 1086.53 208.029C1089.62 222.564 1068.6 234.2 1069.61 246.924H1069.6Z" fill="black"/>
<path fill-rule="evenodd" clip-rule="evenodd" d="M1086.52 218.17C1091.02 225.272 1076.89 245.302 1072.98 238.467C1080.03 234.247 1084.01 226.957 1086.52 218.17Z" fill="black"/>
<path fill-rule="evenodd" clip-rule="evenodd" d="M876.707 226.641C881.937 232.136 869.428 236.892 864.86 233.412C867.696 230.058 874.564 230.719 876.707 226.641Z" fill="black"/>
<path fill-rule="evenodd" clip-rule="evenodd" d="M836.109 245.238C833.447 249.915 831.383 255.174 829.335 260.465C824.798 255.269 830.312 245.742 836.109 245.238Z" fill="black"/>
<path fill-rule="evenodd" clip-rule="evenodd" d="M1078.06 250.309C1071.57 254.529 1061.88 255.552 1050.99 255.379C1057.29 250.954 1068.23 251.175 1078.06 250.309Z" fill="black"/>
<path fill-rule="evenodd" clip-rule="evenodd" d="M920.707 258.764C903.898 259.442 892.209 265.221 886.868 277.361C886.758 260.418 904.544 253.977 920.707 258.764Z" fill="black"/>
<path fill-rule="evenodd" clip-rule="evenodd" d="M891.941 287.519C891.61 271.394 901.409 265.426 917.32 265.537C905.016 269.032 895.863 275.662 891.941 287.519Z" fill="black"/>
<path fill-rule="evenodd" clip-rule="evenodd" d="M912.247 290.904C908.892 293.723 910.089 290.747 905.473 290.904C903.205 275.803 918.391 267.426 929.167 275.693C921.337 278.575 911.507 279.472 912.247 290.904Z" fill="black"/>
<path fill-rule="evenodd" clip-rule="evenodd" d="M959.619 280.748C961.793 289.724 953.727 303.014 952.845 314.572C948.654 303.581 955.964 289.535 959.619 280.748Z" fill="black"/>
<path fill-rule="evenodd" clip-rule="evenodd" d="M854.714 284.133C851.485 290.494 844.6 293.187 842.867 301.045C838.378 300.462 837.165 296.604 836.093 292.589C845.136 292.605 847.405 285.849 854.699 284.133H854.714Z" fill="black"/>
<path fill-rule="evenodd" clip-rule="evenodd" d="M927.466 289.203C931.168 292.478 923.527 298.698 919.006 299.344C921.29 295.423 923.811 291.754 927.466 289.203Z" fill="black"/>
<path fill-rule="evenodd" clip-rule="evenodd" d="M959.619 297.66C963.857 306.463 957.13 318.824 957.918 329.784C953.649 320.965 957.367 305.581 959.619 297.66Z" fill="black"/>
<path fill-rule="evenodd" clip-rule="evenodd" d="M968.079 312.887C973.104 317.469 967.118 325.374 968.079 331.484C964.172 328.004 966.913 316.871 968.079 312.887Z" fill="black"/>
<path fill-rule="evenodd" clip-rule="evenodd" d="M929.167 317.957C940.904 331.2 931.231 358.379 919.021 363.623C926.646 348.994 933.389 338.774 929.167 317.957Z" fill="black"/>
<path fill-rule="evenodd" clip-rule="evenodd" d="M787.036 417.728C794.031 416.264 798.662 412.437 805.641 410.957C805.673 414.311 810.257 413.114 809.028 417.728C802.837 419.996 798.568 424.184 792.109 426.184C791.589 422.2 786.233 423.035 787.036 417.728Z" fill="black"/>
<path fill-rule="evenodd" clip-rule="evenodd" d="M858.101 448.184C860.606 457.506 868.704 461.269 869.948 471.867C865.71 473.268 863.3 476.496 858.101 476.937C854.856 470.024 851.012 463.726 846.254 458.34C849.358 454.104 853.391 450.829 858.101 448.199V448.184Z" fill="black"/>
<path fill-rule="evenodd" clip-rule="evenodd" d="M1445.2 510.744C1443.29 530.821 1430.91 540.427 1419.82 551.339C1415.11 534.758 1437.98 531.184 1436.74 512.445C1419.91 519.862 1418.51 542.695 1397.83 546.269C1409.03 532.317 1424.88 493.864 1445.2 510.76V510.744Z" fill="black"/>
<path fill-rule="evenodd" clip-rule="evenodd" d="M1079.74 532.742C1084.77 534.49 1081.9 544.111 1088.2 544.584C1087.05 548.52 1082.58 549.119 1081.43 553.04C1077.55 549.591 1080.81 538.994 1079.74 532.742Z" fill="black"/>
<path fill-rule="evenodd" clip-rule="evenodd" d="M1037.44 583.479C1041.32 586.376 1038.06 596.391 1039.13 602.075C1032.59 602.075 1035.88 586.266 1037.44 583.479Z" fill="black"/>
<path fill-rule="evenodd" clip-rule="evenodd" d="M1352.14 583.479C1358.46 593.43 1343.3 610.531 1331.83 613.917C1339.54 604.705 1351.89 600.123 1352.14 583.479Z" fill="black"/>
<path fill-rule="evenodd" clip-rule="evenodd" d="M1044.22 595.305C1044.22 587.967 1050.64 587.069 1056.06 585.164C1059.28 590.03 1050.58 594.675 1044.22 595.305Z" fill="black"/>
<path fill-rule="evenodd" clip-rule="evenodd" d="M871.634 603.76C874.076 604.138 872.217 608.799 875.021 608.83C870.988 609.933 864.576 611.161 858.101 613.901C858.054 612.263 856.022 612.594 854.714 612.2C857.66 608.752 853.454 608.878 856.4 605.429C861 608.61 866.482 604.642 871.634 603.744V603.76Z" fill="black"/>
<path fill-rule="evenodd" clip-rule="evenodd" d="M917.32 605.462C922.897 605.525 929.293 604.769 929.167 610.532C923.764 610.296 916.218 612.201 917.32 605.462Z" fill="black"/>
<path fill-rule="evenodd" clip-rule="evenodd" d="M1391.07 608.846C1383.48 611.617 1371.22 604.279 1360.62 608.846C1365.77 601.76 1384.88 606.122 1391.07 608.846Z" fill="black"/>
<path fill-rule="evenodd" clip-rule="evenodd" d="M1380.91 618.987C1370.42 614.074 1357.55 620.073 1345.38 618.987C1355.54 616.688 1373.83 609.681 1380.91 618.987Z" fill="black"/>
<path fill-rule="evenodd" clip-rule="evenodd" d="M991.773 632.514C995.302 631.79 996.247 633.663 998.547 634.199C997.649 635.553 996.783 636.939 996.846 639.269C994.372 637.789 991.489 636.734 991.773 632.498V632.514Z" fill="black"/>
<path fill-rule="evenodd" clip-rule="evenodd" d="M1181.26 647.742C1182.8 656.639 1168.26 664.04 1166.03 674.811C1162.64 664.056 1177.76 657.253 1181.26 647.742Z" fill="black"/>
<path fill-rule="evenodd" clip-rule="evenodd" d="M1201.57 647.742C1205.14 652.529 1196.05 659.064 1196.49 666.339C1191.5 660.135 1200.35 653.348 1201.57 647.742Z" fill="black"/>
<path fill-rule="evenodd" clip-rule="evenodd" d="M1167.73 652.812C1170.96 658.576 1152.34 671.047 1150.81 683.251C1148.62 672.024 1161.6 661.363 1167.73 652.812Z" fill="black"/>
<path fill-rule="evenodd" clip-rule="evenodd" d="M956.232 654.496C957.713 657.488 961.588 659.441 957.918 662.952C951.774 656.717 950.986 659.409 947.772 661.252C940.021 653.851 950.97 655.787 956.232 654.48V654.496Z" fill="black"/>
<path fill-rule="evenodd" clip-rule="evenodd" d="M1132.2 656.197C1115.42 663.11 1110.86 682.211 1101.75 696.777C1107.67 679.03 1112.43 660.102 1132.2 656.197Z" fill="black"/>
<path fill-rule="evenodd" clip-rule="evenodd" d="M1140.66 656.197C1136.85 666.496 1120.15 678.526 1116.97 695.092C1115.38 679.392 1131.05 666.338 1140.66 656.197Z" fill="black"/>
<path fill-rule="evenodd" clip-rule="evenodd" d="M1155.88 656.197C1155.45 665.378 1139.78 673.912 1137.28 686.636C1135.45 675.188 1149.15 664.701 1155.88 656.197Z" fill="black"/>
<path fill-rule="evenodd" clip-rule="evenodd" d="M727.833 666.338C709.385 666.495 707.652 683.376 693.994 688.32C699.114 676.919 713.78 657.582 727.833 666.338Z" fill="black"/>
<path fill-rule="evenodd" clip-rule="evenodd" d="M883.481 671.409C881.606 675.739 874.391 674.731 868.263 674.794C871.161 671.503 877.022 671.141 883.481 671.409Z" fill="black"/>
<path fill-rule="evenodd" clip-rule="evenodd" d="M957.934 678.179C961.588 672.447 968.756 682.525 964.708 684.95C960.36 684.793 962.282 678.352 957.934 678.179Z" fill="black"/>
<path fill-rule="evenodd" clip-rule="evenodd" d="M941.014 696.776C938.194 700.13 941.172 698.934 941.014 703.547C927.986 702.555 925.906 699.044 915.635 701.863C913.366 700.744 912.484 698.241 912.248 695.091C923.275 692.95 930.412 700.272 941.014 696.776Z" fill="black"/>
<path fill-rule="evenodd" clip-rule="evenodd" d="M714.285 727.23C708.834 725.356 708.928 717.924 709.212 710.318C711.748 715.121 713.387 720.806 714.285 727.23Z" fill="black"/>
<path fill-rule="evenodd" clip-rule="evenodd" d="M661.84 722.145C669.512 736.458 677.311 750.646 695.68 754.284C677.815 756.898 663.652 741.198 661.84 722.145Z" fill="black"/>
<path fill-rule="evenodd" clip-rule="evenodd" d="M952.845 722.144C954.278 721.829 954.436 722.805 954.531 723.845C958.69 719.042 965.59 728.443 968.063 722.144C969.497 721.829 969.654 722.805 969.764 723.845C970.662 725.199 971.529 726.585 971.45 728.915C966.251 725.813 963.841 730.443 959.603 727.23V744.142C967.323 745.087 970.143 741.15 978.209 742.442C974.365 748.709 960.501 751.339 954.515 745.827C954.468 734.647 957.413 729.781 952.829 722.144H952.845Z" fill="black"/>
<path fill-rule="evenodd" clip-rule="evenodd" d="M952.845 881.123C958.154 882.792 962.092 892.209 957.918 898.035C952.609 896.366 948.67 886.949 952.845 881.123Z" fill="black"/>
<path fill-rule="evenodd" clip-rule="evenodd" d="M712.599 886.193C692.97 935.717 633.719 999.932 600.936 1051.93C582.519 1081.12 570.688 1107.97 545.104 1128.03C553.312 1136.19 563.82 1142.02 572.185 1150.01C585.497 1125.39 605.489 1106.65 621.258 1080.68C622.503 1082.98 628.111 1089.41 631.404 1084.07C623.149 1107.18 595.186 1125.54 578.959 1150.01C582.74 1157.49 593.878 1157.65 599.266 1163.54C583.827 1171.84 538.992 1141.94 540.047 1126.35C540.52 1119.48 552.713 1112.77 556.967 1107.73C570.168 1092.13 579.952 1070.7 592.492 1050.23C624.692 997.728 678.744 938.693 707.542 887.878C709.952 888.02 712.331 888.162 712.615 886.193H712.599Z" fill="black"/>
<path fill-rule="evenodd" clip-rule="evenodd" d="M1086.52 913.248C1086.69 926.775 1046.25 945.372 1034.07 930.16C1055.54 928.522 1070.34 920.192 1086.52 913.248Z" fill="black"/>
<path fill-rule="evenodd" clip-rule="evenodd" d="M1088.2 918.318C1097.23 929.703 1102.88 953.087 1101.73 969.054C1092.85 956.52 1091.02 936.915 1088.2 918.318Z" fill="black"/>
<path fill-rule="evenodd" clip-rule="evenodd" d="M726.131 930.16C710.189 958.756 683.265 991.037 665.227 1023.18C673.892 987.305 706.108 960.315 726.131 930.16Z" fill="black"/>
<path fill-rule="evenodd" clip-rule="evenodd" d="M939.313 948.772C930.128 956.566 891.279 960.881 883.481 948.772C899.077 949.543 925.78 942.867 939.313 948.772Z" fill="black"/>
<path fill-rule="evenodd" clip-rule="evenodd" d="M1059.44 947.07C1062.21 952.755 1061.58 961.841 1064.51 967.368C1054.39 966.281 1055.56 954.109 1059.44 947.07Z" fill="black"/>
<path fill-rule="evenodd" clip-rule="evenodd" d="M809.028 982.596C806.996 996.925 794.425 1015.35 788.722 1031.65C788.926 1015.49 802.711 998.279 809.028 982.596Z" fill="black"/>
<path fill-rule="evenodd" clip-rule="evenodd" d="M900.401 985.98C907.395 990.531 907.899 1002.29 903.788 1009.65C900.889 1003.52 900.227 995.177 900.401 985.98Z" fill="black"/>
<path fill-rule="evenodd" clip-rule="evenodd" d="M856.416 1004.58C856.416 1062.09 839.764 1117.59 831.036 1172C830.879 1114.35 847.263 1058.56 856.416 1004.58Z" fill="black"/>
<path fill-rule="evenodd" clip-rule="evenodd" d="M1035.76 1033.33C1049.1 1085.97 1051.05 1158.96 1061.14 1209.21C1048.45 1188.39 1048.14 1158.99 1044.22 1131.42C1039.62 1099.06 1037.25 1068.53 1035.76 1033.33Z" fill="black"/>
<path fill-rule="evenodd" clip-rule="evenodd" d="M775.205 1041.79C770.337 1101.18 739.491 1149.27 717.672 1197.38C734.639 1150.06 759.483 1095.99 775.205 1041.79Z" fill="black"/>
<path fill-rule="evenodd" clip-rule="evenodd" d="M890.255 1188.91C888.065 1148.38 896.903 1104.22 893.642 1057C897.691 1076.02 894.099 1109.94 895.344 1138.17C896.194 1157.57 902.007 1178 890.271 1188.91H890.255Z" fill="black"/>
<path fill-rule="evenodd" clip-rule="evenodd" d="M587.388 1109.44C592.051 1112.35 578.014 1124.51 573.855 1129.73C575.871 1120.47 583.071 1116.4 587.388 1109.44Z" fill="black"/>
<path fill-rule="evenodd" clip-rule="evenodd" d="M675.373 1170.31C676.995 1156.14 689.898 1138.62 695.679 1122.96C695.364 1138.44 681.233 1154.74 675.373 1170.31Z" fill="black"/>
<path fill-rule="evenodd" clip-rule="evenodd" d="M1008.69 1144.95C1016.32 1159.42 1022.24 1184.25 1018.84 1204.14C1009.31 1190.55 1013.09 1163.65 1008.69 1144.95Z" fill="black"/>
<path fill-rule="evenodd" clip-rule="evenodd" d="M890.255 1205.82C893.296 1205.6 893.831 1207.88 897.029 1207.51C896.903 1214.72 894.193 1219.33 895.328 1227.8C891.752 1222.36 890.066 1215.02 890.255 1205.82Z" fill="black"/>
<path fill-rule="evenodd" clip-rule="evenodd" d="M880.094 1246.42C876.565 1251.46 871.193 1244.17 864.876 1246.42C860.575 1243.79 878.802 1243.79 880.094 1246.42Z" fill="black"/>
<path fill-rule="evenodd" clip-rule="evenodd" d="M785.35 1249.8C798.205 1248.26 817.362 1255 832.722 1256.57C854.683 1255.63 854.226 1259.23 829.335 1258.27C814.321 1255.82 798.615 1254.04 785.35 1249.82V1249.8Z" fill="black"/>
<path fill-rule="evenodd" clip-rule="evenodd" d="M776.891 1254.87C803.625 1260.29 841.954 1268.75 876.707 1271.79C843.388 1272.95 804.696 1264.86 776.891 1254.87Z" fill="black"/>
<path fill-rule="evenodd" clip-rule="evenodd" d="M858.101 1388.47C857.597 1384.45 853.517 1390.36 853.029 1391.85C859.582 1369.65 877.116 1343.78 875.021 1307.29C840.788 1302.62 803.341 1301.15 778.576 1287C793.007 1306.98 837.102 1311.92 871.634 1317.43C833.888 1316.84 789.682 1308.03 770.116 1283.61C796.583 1292.11 835.038 1303.28 875.021 1303.91C878.55 1301.23 875.588 1292.08 878.408 1288.7C839.654 1283.47 801.545 1277.58 770.132 1265.01C800.521 1270.15 836.96 1283.89 876.722 1285.31C884.3 1278.23 876.313 1255.6 890.255 1254.87C901.251 1319.73 860.717 1378.28 854.73 1444.29C849.705 1499.61 838.015 1553.04 837.81 1616.78C837.669 1659.85 847.152 1700.19 853.044 1735.16C842.474 1728.28 840.237 1711.17 837.81 1697.97C820.371 1602.77 842.899 1486.65 856.416 1390.17C856.101 1388.74 857.077 1388.58 858.101 1388.48V1388.47Z" fill="black"/>
<path fill-rule="evenodd" clip-rule="evenodd" d="M771.818 1307.29C796.536 1314.27 832.013 1333.79 869.949 1327.59C834.581 1336.87 796.378 1320.06 771.818 1307.29Z" fill="black"/>
<path fill-rule="evenodd" clip-rule="evenodd" d="M792.125 1324.21C814.18 1333.73 837.874 1341.61 864.876 1346.19C839.559 1346.68 810.194 1336.58 792.125 1324.21Z" fill="black"/>
<path fill-rule="evenodd" clip-rule="evenodd" d="M803.956 1342.82C819.489 1343.65 838.173 1355.97 859.787 1356.34C839.213 1360.55 820.497 1348.28 803.956 1342.82Z" fill="black"/>
<path fill-rule="evenodd" clip-rule="evenodd" d="M820.875 1369.87C827.681 1378.3 844.758 1376.44 853.029 1383.4C840.961 1380.23 824.971 1381 820.875 1369.87Z" fill="black"/>
<path fill-rule="evenodd" clip-rule="evenodd" d="M807.343 1386.78C816.811 1384.11 830.28 1392.03 842.868 1391.85C831.95 1395.96 817.646 1388.89 807.343 1386.78Z" fill="black"/>
<path fill-rule="evenodd" clip-rule="evenodd" d="M815.802 1402.01C822.246 1408.53 834.187 1409.55 847.94 1408.78C839.291 1415.25 818.606 1411.8 815.802 1402.01Z" fill="black"/>
<path fill-rule="evenodd" clip-rule="evenodd" d="M1054.36 1750.39C1055.75 1756.34 1054.96 1774.64 1052.66 1782.53V1757.16C1052.44 1754.12 1054.74 1753.6 1054.36 1750.41V1750.39Z" fill="black"/>
<path fill-rule="evenodd" clip-rule="evenodd" d="M854.714 1785.9C837.747 1791.63 815.424 1796.89 802.254 1797.74C803.766 1797.65 777.599 1800.54 792.108 1796.06C803.105 1792.66 835.368 1790.99 854.714 1785.9Z" fill="black"/>
<path fill-rule="evenodd" clip-rule="evenodd" d="M897.014 1850.16C922.692 1846.51 952.893 1847.38 968.079 1833.25C972.412 1833.19 970.143 1834.51 969.781 1836.64C951.916 1847.53 924.677 1854.23 897.029 1850.16H897.014Z" fill="black"/>
<path fill-rule="evenodd" clip-rule="evenodd" d="M1018.84 115.013C1022.22 118.398 1029.39 117.989 1032.37 121.784C1035.03 139.278 1048.03 158.411 1045.9 186.046C1050.96 170.252 1044.3 151.592 1040.83 138.696C1048.71 146.616 1048.9 162.206 1052.68 174.205C1054.13 156.962 1046.08 134.586 1035.76 123.469C1050.64 122.13 1053.04 147.908 1056.06 164.048C1059.4 151.372 1054.91 139.609 1052.68 125.154C1056.41 126.492 1054.88 133.106 1059.45 133.61C1060.52 127.059 1059.34 127.248 1056.06 121.768C1061.56 121.39 1065.41 137.2 1066.23 147.136C1073.28 136.633 1058.98 124.004 1061.15 118.382C1063.72 125.972 1069.3 130.523 1071.3 138.68C1071.64 127.043 1063.15 109.627 1050.99 104.856C1061.69 100.967 1069.22 114.792 1078.06 118.382C1075.5 105.943 1050.87 100.053 1037.46 101.47C1040.48 100.636 1049.15 98.4786 1037.46 98.0849C1070.29 92.8885 1085.46 120.004 1096.68 142.05C1094.6 141.31 1093.2 139.893 1093.29 136.979C1089.64 142.396 1097.87 150.38 1096.68 158.962C1109 128.649 1084.55 121.264 1072.98 101.455C1065.12 99.1557 1058.74 95.3922 1049.29 94.6836C1054.85 89.8021 1061.74 97.959 1069.6 96.3843C1068.48 94.1167 1065.97 93.2349 1062.82 92.9987C1095.13 98.1637 1120.89 138.255 1106.81 187.7C1100.16 189.841 1101.78 183.716 1101.73 179.244C1097.4 179.417 1099.02 185.542 1096.66 187.7C1093.09 182.976 1100.16 167.134 1096.66 162.332C1091.64 169.701 1097.06 187.526 1088.2 191.085C1084.47 190.881 1087.49 183.905 1086.52 180.944C1082.15 182.22 1087.75 193.447 1081.44 192.786C1075.76 194.518 1078.81 187.526 1078.06 184.33C1073.74 184.519 1074.7 189.999 1074.67 194.471C1068.48 193.353 1068.18 198.124 1062.82 197.856C1069.99 183.18 1068.67 164.725 1064.51 147.12C1054.36 162.347 1072.9 188.078 1056.05 197.856C1051.91 189.164 1059.01 177.181 1059.44 167.418C1048.72 175.307 1057.01 202.187 1042.52 206.312C1041.41 200.769 1046.55 187.338 1042.52 177.559C1038.62 185.495 1042.8 201.525 1037.44 207.997C1035.36 206.108 1033.96 206.517 1034.06 209.698C1028.02 207.808 1039.32 196.644 1035.74 202.927C1050.83 176.362 1028.9 117.957 1003.59 118.367C1020.73 126.035 1030.15 141.42 1030.67 165.717C1032.65 165.45 1032.09 162.631 1032.35 160.647C1039.48 167.717 1034.17 185.731 1032.35 194.471C1028.75 195.258 1029.13 192.062 1028.97 189.4C1023.15 193.746 1032.98 213.713 1022.19 213.083C1023.72 198.565 1026.24 181.716 1023.89 167.418C1021.56 153.309 1009.92 145.546 1013.73 136.979C1018.16 141.011 1020.21 147.42 1022.19 153.891C1023.67 145.057 1017.2 129.594 1001.89 131.909C1003.84 142.585 1012.85 152.537 1010.35 162.347C1003.54 157.324 1001.63 147.372 995.128 142.05C993.868 144.16 993.584 148.978 995.128 153.891C1000.2 152.773 993.506 150.285 995.128 147.12C1011.4 164.772 1021.17 204.753 996.814 221.539C997.728 209.351 993.269 202.549 993.427 191.101C990.024 203.006 992.497 207.037 990.04 216.469C989.945 216.847 987.472 214.06 988.354 213.083C985.818 215.886 988.874 227.082 983.281 226.61C986.968 216.296 980.099 203.037 979.894 191.101C973.766 198.219 986.464 217.776 976.507 223.24C976.428 213.162 975.767 203.683 973.12 196.171C970.93 205.635 973.498 212.28 969.733 224.925C967.654 226.342 966.315 212.627 966.346 206.328C955.429 206.123 948.261 209.666 939.281 211.399C943.582 217.807 955.996 212.469 959.588 208.013C964.424 210.265 961.966 214.642 962.975 223.24C952.971 216.595 939.218 231.003 925.748 231.696C935.768 234.342 950.009 226.641 964.66 228.311C963.369 236.609 952.561 235.381 946.055 238.451C948.749 242.829 958.831 234.688 962.975 240.152C952.262 246.356 942.731 253.742 927.45 255.379C932.743 247.695 945.299 247.285 954.515 243.538C930.774 248.482 893.532 244.388 880.062 265.52C886.994 292.148 912.625 324.744 942.668 302.73C941.376 313.28 932.664 316.414 920.676 316.256C925.039 344.962 911.869 368.063 900.369 370.378C894.493 366.898 912.547 350.175 903.756 338.239C900.936 361.922 892.697 380.172 863.143 377.133C858.448 378.062 858.401 383.668 856.369 387.274C876.754 414.736 917.241 463.599 964.645 473.519C996.341 480.164 1037.07 467.22 1039.1 441.38C1040.75 420.295 1024.4 422.389 1012.03 412.626C1016.81 415.193 1022.6 416.705 1030.64 416.012C1025.41 410.532 1012.19 413.036 1005.26 409.241C1010.13 405.587 1021.48 409.871 1027.25 410.926C1024.08 400.564 1005.38 405.729 998.484 399.084C1005.37 394.533 1019.2 406.469 1027.25 400.769C1019.61 392.628 1000.14 396.297 991.725 388.927C1000.41 387.038 1013.78 395.037 1027.25 393.998C1026.35 392.644 1025.49 391.258 1025.55 388.927C1015.55 389.636 996.609 386.896 986.637 382.156C996.956 379.196 1011.07 387.022 1023.86 387.227C1020.63 380.33 1009.62 379.527 1001.87 377.086C993.805 374.551 985.818 373.086 979.879 368.63C992.277 366.976 1004.88 379.716 1022.18 378.787C1015.64 367.843 997.491 368.504 988.338 360.19C985.897 355.718 996.058 363.764 1000.19 363.575C990.371 357.025 978.319 352.726 973.12 341.593C976.224 334.9 984.999 346.317 988.354 350.049C1017.94 362.504 1065.26 384.55 1101.72 368.646C1098.35 349.498 1107.41 342.758 1106.79 326.366C1100.66 325.185 1094.9 322.382 1083.1 322.98C1086.25 308.587 1109.82 324.964 1111.86 309.454C1110.51 305.092 1108.07 293.061 1111.86 289.156C1125.49 303.108 1107.08 321.027 1113.55 339.892C1111.2 342.616 1108.76 345.246 1106.78 348.348C1119.16 395.21 1057.91 380.204 1030.64 373.716C1026.01 381.778 1031.36 394.376 1032.32 402.47C1054.33 408.658 1087.52 403.666 1091.54 427.838C1084.61 425.192 1080.14 420.059 1072.94 417.681C1077.03 433.569 1096.63 430.074 1083.08 453.19C1078.15 451.914 1074.69 449.174 1071.24 446.419C1073.35 453.71 1071.99 452.655 1069.55 459.945C1071.24 459.315 1074.62 459.646 1079.69 463.331C1077.98 465.551 1078.04 469.567 1076.31 471.787C1070.05 467.771 1063.82 467.11 1056 466.716C1059.55 459.552 1065.22 454.513 1069.53 448.119C1067.58 441.616 1060.84 432.782 1064.46 426.137C1055.72 426.987 1053.46 421.35 1044.15 422.751C1045.92 428.373 1064.7 425.822 1059.37 432.892C1056.1 431.081 1055.69 428.09 1045.84 429.507C1047.19 434.357 1057.18 430.578 1055.99 437.963C1054.02 436.546 1051.45 435.727 1047.53 436.262C1046.9 439.144 1048.85 439.459 1050.91 439.648C1047.48 447.49 1039.22 450.513 1039.07 461.63C1009.7 490.762 966.299 483.25 932.475 466.701C897.202 449.442 871.287 421.633 847.877 392.281C826.216 396.124 801.545 409.713 780.199 419.334C781.837 419.681 793.542 424.767 788.659 431.176C821.316 456.654 847.783 502.824 871.571 542.789C866.278 513.689 835.447 486.447 825.885 461.614C820.04 462.008 815.739 450.293 808.965 446.387C808.162 441.081 813.518 441.915 814.038 437.931C809.485 436.766 810.761 441.427 808.965 443.002C798.93 441.915 804.727 426.499 797.118 431.16C798.678 424.814 805.988 424.247 810.651 421.019C829.823 436.231 842.08 458.371 856.337 478.511C856.841 482.967 849.768 479.849 851.264 485.282C855.628 489.801 853.044 481.392 859.724 483.597C870.972 504.32 880.661 524.271 890.176 542.789C895.454 539.561 887.53 535.451 888.491 530.947C892.665 531.168 896.635 531.199 898.636 529.262C893.327 525.184 896.005 523.657 891.862 519.122C888.68 521.358 893.579 526.853 886.789 522.507C887.545 524.019 888.27 525.53 890.176 525.893C877.258 521.326 872.548 493.911 861.41 481.928C865.6 479.361 868.294 475.283 874.942 475.157C875.462 479.109 878.251 482.148 874.942 485.298C892.949 496.619 896.793 522.098 910.467 537.718C906.308 522.145 899.345 509.374 890.161 498.824C893.374 493.58 899.03 490.777 907.08 490.368C912.421 503.627 921.778 512.87 924 529.262C918.659 528.428 918.029 532.302 912.153 530.947C914.217 533.388 918.612 533.514 920.613 536.018C921.101 534.065 922.865 530.081 925.685 536.018C929.167 535.561 927.277 529.719 930.758 529.247C917.304 504.351 906.371 476.952 885.072 459.898C889.956 470.795 899.739 476.81 903.677 488.652C894.934 483.172 896.683 495.596 888.443 495.423C888.254 491.108 885.34 489.502 883.371 486.967C883.843 483.424 887.892 489.423 890.145 485.266C887.845 478.904 882.504 479.33 878.298 478.495C879.921 475.346 873.225 472.842 878.298 471.724C862.245 455.08 854.935 429.696 835.999 415.917C836.597 413.697 838.976 413.256 839.386 410.847C832.675 413.524 832.375 412.091 829.24 417.618C835.306 413.76 841.056 427.538 847.846 432.845C848.318 436.703 847.436 439.207 844.459 439.616C845.813 441.049 851.422 439.506 854.62 443.002C853.423 449.143 849.169 452.214 846.16 456.528C836.062 444.073 826.751 430.83 815.708 419.319C815.865 414.973 822.309 416.894 822.482 412.548C814.92 415.13 811.99 416.406 807.248 410.847C814.022 401.95 825.901 408.296 834.313 400.706C837.464 404.328 837.763 410.8 844.459 410.847C843.86 413.067 841.481 413.508 841.072 415.917C839.859 418.657 849.043 418.657 847.846 415.917C877.006 447.08 907.064 477.361 954.436 490.337C958.359 506.146 963.29 520.948 966.283 537.687C970.836 521.846 960.454 506.319 957.823 492.021C966.945 491.927 973.23 494.651 981.517 495.407C986.542 508.43 988.291 524.727 996.735 534.301C998.957 533.703 999.398 531.325 1001.81 530.916C1000.69 525.845 998.185 532.538 995.034 530.916C993.805 516.917 987.503 508.004 984.888 495.407H1001.81C1003.7 507.847 1011.81 522.302 1006.88 536.002C1018.37 525.814 1006.05 505.595 1003.49 493.722C1008.66 494.95 1009.65 491.99 1013.64 492.021C1019.06 498.761 1025.23 512.697 1020.41 524.161C1023.31 524.05 1024.62 526.806 1023.8 534.301C1031.88 522.192 1022.27 500.21 1017.03 490.337C1022.19 488.73 1024.27 484.054 1032.26 485.266C1037.16 504.052 1043.85 521.027 1044.11 544.458C1048.64 535.939 1044.25 521.799 1044.11 512.335C1049.05 512.776 1049.31 508.508 1054.25 508.949C1050.24 505.863 1047.38 508.382 1042.41 510.634C1040.64 501.123 1037.84 492.636 1033.95 485.266C1036.32 481.455 1044.96 483.88 1044.09 476.81C1052.83 479.235 1054.38 482.195 1066.08 480.196C1068.38 484.652 1068.08 491.722 1069.47 497.108C1066.12 494.289 1067.31 497.265 1062.7 497.108C1062.41 500.777 1068.7 497.879 1071.16 498.793C1072.35 505.012 1074.53 512.099 1069.47 515.704C1071.12 520.444 1073.98 513.248 1076.24 517.389C1074.07 523.798 1077.73 551.355 1076.24 568.125C1083.7 570.503 1076.28 558 1081.32 557.985C1086.61 557.213 1086.72 561.591 1086.39 566.441C1091.57 562.945 1082.44 553.859 1088.08 549.529C1091.89 550.237 1087.82 558.803 1093.15 557.985C1092.87 553.198 1090.05 550.93 1089.76 546.143C1105.59 529.278 1118.97 509.941 1130.36 488.636C1133.62 491.769 1131.7 491.738 1137.13 490.337C1137.78 487.927 1132.5 476.983 1132.06 470.039C1125.11 498.304 1107.41 523.704 1086.37 542.757C1086.83 536.663 1083.26 534.601 1082.99 529.231C1097.42 518.854 1102.54 499.17 1115.14 486.951C1116.61 493.502 1111.01 492.966 1110.07 497.092C1115.17 502.776 1117.38 491.077 1121.92 493.706C1118.2 486.62 1122.03 482.416 1115.14 478.479C1115.68 474.511 1117.82 472.133 1116.83 466.638C1121.44 465.409 1120.23 469.992 1123.6 470.023C1117.65 465.819 1117.96 455.363 1115.14 448.041C1110.38 449.741 1115.61 455.221 1115.14 458.182C1109.36 456.072 1107.25 450.293 1108.37 441.27C1130.26 463.347 1149.04 488.541 1164.2 517.374C1150.73 538.285 1130.8 552.757 1113.44 569.795C1119.38 591.494 1122.29 616.2 1123.59 642.513C1148.29 636.025 1168.56 629.113 1191.26 625.601C1227.18 620.042 1261.16 623.318 1286.01 608.689C1302.39 599.052 1308.11 578.03 1321.55 564.724C1330.05 556.284 1340.94 550.489 1346.93 537.671C1368.01 531.672 1376.23 512.839 1390.91 500.462C1396.08 499.233 1397.07 502.194 1401.06 502.147C1410.82 530.239 1392.14 552.316 1372.29 561.339C1377 541.214 1406.62 533.845 1394.28 507.217C1380.86 524.68 1360.13 542.317 1343.52 552.883C1319.86 567.936 1316.02 593.84 1297.84 610.39C1280.24 626.404 1238.35 628.609 1209.85 632.372C1175.76 636.892 1145.8 643.631 1116.8 650.969C1116.32 646.544 1117.41 643.694 1121.87 644.198C1110.53 628.483 1113.8 598.139 1108.34 576.55C1090.06 590.643 1086.25 623.948 1086.34 652.654C1086.44 679.707 1094.66 708.161 1094.8 732.144C1201.17 721.42 1282.45 670.81 1368.9 642.513C1394.76 634.057 1416.53 622.279 1433.2 601.918C1435.65 589.494 1450.26 580.943 1445.04 566.409C1425.73 575.857 1420.72 599.587 1407.82 615.46C1397.1 594.612 1435.35 578.944 1429.81 563.039C1432.11 554.048 1441.48 552.158 1448.43 547.828C1430.64 549.229 1416.48 568.881 1395.97 573.196C1398.21 576.613 1401.53 578.912 1406.13 579.967C1407.48 579.069 1408.87 578.203 1411.2 578.282C1411.42 575.243 1409.12 574.708 1409.5 571.511C1417.16 579.101 1420.23 567.826 1423.03 571.511C1431.01 569.795 1413.36 580.597 1414.57 588.423C1404.6 584.014 1397.61 595.903 1387.51 596.879C1387.26 592.675 1388.39 589.856 1390.9 588.423C1388.9 582.518 1378.81 584.723 1379.05 576.581C1384.61 580.754 1391.76 588.014 1401.04 583.353C1398.62 575.637 1390.8 573.29 1382.44 571.511C1384.42 564.362 1390.2 567.763 1394.28 566.441C1414.54 559.858 1426.18 544.112 1448.43 539.388C1450.08 541.671 1452.93 542.773 1455.2 544.458C1454.46 546.537 1453.03 547.938 1450.11 547.844C1455.75 549.182 1462.14 556.174 1456.89 563.055C1453.19 562.803 1453.27 558.788 1453.5 554.599C1442.14 554.52 1436.55 560.205 1431.51 566.441C1438.63 566.22 1439.62 559.89 1446.74 559.669C1465.9 576.219 1432.61 616.909 1419.68 629.002C1403.67 643.962 1379.11 643.741 1355.39 652.686C1342.09 657.693 1328.56 665.629 1313.09 671.282C1298.66 676.558 1283.52 682.179 1269.1 688.194C1228 705.374 1190.79 724.428 1147.28 733.86C1132.41 737.088 1107.44 738.474 1094.83 738.93C1095.24 763.59 1088.8 781.368 1074.53 791.351C995.349 803.476 891.5 792.406 815.661 776.14C805.389 769.495 791.022 766.944 783.507 757.543C783.995 784.25 734.418 766.881 719.216 759.244C695.916 777.636 663.274 754.284 651.537 735.561C649.269 705.107 657.051 684.699 663.384 662.842C667.449 680.258 655.964 696.461 654.924 713.578C653.002 744.977 684.652 769.715 712.457 757.543C699.775 749.922 681.013 748.394 676.932 732.175C683.706 737.23 688.7 744.08 697.239 747.402C702.816 743.34 691.079 742.411 693.852 735.561C698.799 741.324 707.211 743.639 710.772 750.788C723.895 753.874 744.248 761.779 759.845 762.629C764.319 762.866 777.269 769.526 776.764 757.559C753.953 744.851 720.602 742.662 714.159 713.594C720.523 714.57 717.057 725.357 722.618 727.12C727.754 725.042 720.791 721.31 722.618 716.979C729.172 719.436 727.534 730.097 734.465 732.191C738.483 731.703 732.575 727.609 731.078 727.12C744.863 733.64 771.66 741.781 786.91 752.488C791.116 752.756 792.14 749.827 795.37 749.103C796.772 744.316 792.991 744.725 793.684 740.647C772.936 724.176 747.399 712.492 726.006 696.682C735.017 700.068 750.55 696.95 753.071 706.823C765.17 706.933 784.673 716.145 786.91 725.42C793.18 724.223 794.172 728.317 800.442 727.12C801.813 726.79 802.128 725.42 803.829 725.42C796.205 699.217 777.142 684.447 751.385 676.384C745.525 678.416 744.438 685.234 741.239 689.911C747.793 697.454 763.137 696.21 766.619 706.823C756.836 703.973 748.597 693.249 737.852 696.682C738.514 685.518 742.468 677.628 749.699 672.999C757.513 671.96 759.435 676.794 766.619 676.384C769.88 674.636 762.192 669.676 759.845 667.928C776.953 667.141 791.715 693.737 813.991 683.156C804.397 667.944 785.177 662.354 771.692 651.016C753.638 652.15 742.185 663.047 726.006 661.157C731.425 653.048 745.493 653.583 754.772 649.316C763.767 622.105 785.004 592.816 791.998 557.985C788.974 557.512 788.533 559.575 790.313 559.669C782.199 559.858 775.299 544.253 768.32 537.687C768.935 544.993 782.042 554.394 783.554 566.441C769.628 545.986 754.693 526.507 732.795 514.02C745.462 517.704 754.599 524.916 763.248 532.617C755.308 524.664 742.453 507.28 732.795 510.634C717.215 516.035 708.519 568.929 702.343 586.738C691.709 617.35 678.445 642.812 670.19 661.157C681.753 609.02 700.847 564.393 720.949 520.791C712.079 506.54 700.91 494.588 695.569 476.826C705.368 467.756 717.624 440.734 731.094 451.458C720.523 458.371 712.048 467.378 702.328 475.141C749.841 496.415 772.527 542.521 817.378 566.472C791.368 532.396 764.949 494.399 727.707 470.07C723.516 462.874 739.144 454.135 742.925 463.299C745.02 468.763 737.459 464.591 739.538 470.07C740.798 473.267 744.595 471.251 741.239 475.141C744.438 474.385 751.432 477.44 749.699 471.755C771.534 492.573 809.627 526.727 820.765 563.087C823.963 561.827 821.946 558.032 825.838 561.402C826.547 554.489 820.261 554.568 822.451 546.174C819.032 553.229 816.149 541.907 813.991 537.718C816.732 538.191 816.905 536.128 819.063 536.034C819.583 532.601 814.18 536.38 813.991 537.718C795.196 511.421 772.149 489.344 751.385 465C754.236 462.213 758.994 461.331 761.53 458.229C767.375 466.417 774.149 472.07 785.224 481.912C784.988 486.746 778.166 484.998 773.377 485.298C769.518 487.644 778.671 491.155 780.151 493.754C784.358 494.021 785.382 491.092 788.611 490.368C795.464 494.179 805.846 499.816 802.144 508.965C812.557 505.422 821.631 530.711 830.91 539.403C825.207 519.185 809.517 504.556 793.684 488.667C796.992 482.384 805.2 481.014 808.902 475.141C814.967 482.621 821.269 489.833 825.822 498.824C826.263 504.351 819.252 502.414 819.048 507.28C824.388 508.115 825.018 504.225 830.895 505.595C831.493 512.555 838.929 516.082 832.58 520.806C839.874 516.555 841.544 530.443 844.427 536.034C840.898 535.057 839.606 531.845 834.282 532.648C852.84 545.655 876.439 553.654 896.887 564.787C890.208 553.969 865.679 546.379 849.516 539.419C844.207 524.318 841.087 515.201 832.596 505.595C832.297 499.659 838.315 500.036 839.37 495.438C826.783 502.43 821.71 481.629 812.305 475.141C811.596 469.346 817.378 470.055 819.079 466.685C815.33 462.78 814.841 469.614 812.305 471.755C801.12 463.772 794.834 450.875 783.539 443.002C784.893 438.719 790.502 438.687 793.684 436.231C790.596 431.9 783.791 444.199 780.151 439.616C781.238 437.364 770.463 428.357 763.232 424.405C761.263 429.979 776.087 430.908 771.692 441.317C767.958 434.987 769.486 443.269 764.918 439.616C767.06 444.183 771.707 443.128 775.063 439.616C787.367 448.749 795.842 461.693 807.217 471.755C803.577 475.346 796.677 475.125 790.297 480.211C774.496 468.086 765.485 459.079 753.071 443.002C755.796 443.474 755.985 441.411 758.143 441.317C756.789 437.223 751.18 446.624 747.998 441.317C749.684 448.041 729.03 457.032 727.691 443.002C768.005 414.532 810.509 388.235 861.347 370.283C886.096 376.661 892.634 358.599 895.186 338.144C868.137 329.137 834.975 329.184 819.048 306.005C820.072 310.052 821.474 313.721 820.733 319.531C796.819 325.5 813.991 372.551 797.04 385.495C794.267 383.164 799.718 374.74 798.725 368.583C797.229 369.622 795.701 370.63 795.338 368.583C792.061 370.945 792.818 377.338 790.265 380.424C786.028 384.203 795.795 362.268 795.338 353.371C800.348 356.332 794.361 362.378 795.338 366.898C800.71 357.891 803.199 343.797 800.411 331.389C791.841 332.617 787.997 329.137 783.491 326.318C772.448 346.285 756.599 361.449 746.265 382.125C747.777 381.369 749.29 380.645 749.652 378.739C751.495 385.699 739.727 393.588 737.805 402.422C742.626 371.716 766.068 344.978 780.104 317.862C771.14 324.13 766.414 334.633 759.798 343.23C756.584 346.553 763.594 334.475 764.87 331.389C749.479 350.962 735.71 372.141 725.958 397.336C733.126 387.022 739.759 376.173 746.265 365.197C743.855 376.33 733.331 393.966 729.345 409.162C729.849 415.051 733.93 409.02 734.418 412.548C725.391 426.531 723.154 435.585 702.265 448.056C713.655 420.122 719.988 393.242 737.789 363.496C748.266 345.986 763.767 319.091 780.088 314.445C779.553 310.524 780.356 307.958 781.774 305.989C776.749 301.643 772.369 307.155 766.54 304.304C768.903 296.1 787.367 291.235 793.605 297.533C793.731 303.297 787.335 302.541 781.758 302.604C781.664 323.578 803.042 330.775 813.912 314.445C812.715 308.32 808.004 305.69 807.138 299.218C805.436 294.132 810.903 296.226 813.912 295.833C813.329 291.912 812.825 287.912 807.138 289.062C807.862 285.833 810.777 284.81 810.525 280.606C808.524 274.7 798.442 276.905 798.678 268.764C801.482 264.796 808.556 265.095 815.598 265.378C818.717 262.292 808.745 255.757 813.896 253.537C822.23 252.277 815.188 261.237 822.356 263.678C820.04 269.819 811.832 270.071 810.509 277.204C811.029 279.503 814.747 278.606 817.283 278.905C815.44 288.085 821.316 289.534 822.356 295.817C843.45 297.722 859.157 323.437 874.801 322.87C880.834 319.39 867.412 321.437 869.728 316.099C872.453 316.571 872.642 314.508 874.801 314.414C878.739 321.437 892.508 329.546 903.567 334.711C906.119 323.122 884.584 321.012 878.188 312.729C884.615 309.013 880.882 301.911 878.188 297.518C876.376 304.73 875.462 312.823 868.042 314.43C868.483 311.642 874.375 291.975 881.575 295.833C881.323 290.447 877.731 288.4 878.188 282.306C874.107 283.456 870.059 294.337 866.341 285.692C862.591 295.108 857.093 296.494 846.034 300.919C854.51 291.455 865.679 278.81 876.486 267.095C871.902 261.536 868.83 271.724 862.954 270.48C862.686 265.252 860.244 267.63 859.567 260.339C863.017 256.938 862.891 261.08 866.341 262.04C875.62 236.94 908.656 235.554 927.245 219.76C905.032 229.271 884.442 234.342 864.639 251.899C861.079 247.49 858.038 250.451 854.494 248.514C853.911 251.915 854.84 253.805 857.881 253.584C852.855 257.064 844.144 265.725 837.574 262.04C837.968 267.457 828.027 272.764 818.969 273.882C821.883 269.913 829.461 260.686 832.501 267.111C851.627 239.349 902.307 228.72 934.019 207.919C893.012 210.832 862.197 231.728 824.042 245.128C862.702 221.524 918.659 196.628 956.012 187.637C954.326 186.44 943.944 185.605 954.31 184.251C940.021 179.007 928.915 191.542 915.398 192.707C915.855 189.227 921.7 191.117 922.172 187.637C895.359 203.352 863.489 204.549 834.187 224.846C837.747 218.878 861.315 204.942 871.413 204.549C894.162 186.204 924.724 181.133 952.624 170.725C952.105 168.426 948.387 169.323 945.85 169.024C951.695 166.977 953.255 160.647 962.77 162.253C944.243 153.734 912.405 170.158 890.019 174.094C890.287 176.079 893.106 175.512 895.091 175.779C888.207 181.574 875.32 181.59 868.026 182.551C874.391 185.873 864.954 187.369 861.252 185.936C895.674 167.355 939.281 150.238 971.23 148.726C940.431 135.735 893.752 171.874 861.252 167.323C861.095 172.189 855.36 171.512 849.405 172.394C854.746 158.552 879.763 167.449 879.857 158.867C882.394 153.277 884.001 162.379 888.317 160.552C889.058 157.387 897.596 152.521 888.317 153.781C915.981 140.27 952.908 136.05 986.448 128.413C990.323 134.051 975.956 135.924 971.214 138.57C973.293 143.703 977.027 136.743 981.375 138.57C991.867 157.907 1004.79 173.843 998.295 202.832C1004.93 201.588 1000.75 168.804 1003.37 192.691C1003.9 196.66 1006.05 199.037 1005.07 204.533C1015.28 176.315 993.191 158.82 984.762 135.2C990.213 136.507 994.766 138.727 998.295 141.971C1001.46 139.782 993.521 134.46 988.149 135.2C989.205 131.594 998.563 133.61 999.996 135.2C998.563 131.563 995.837 129.216 989.851 130.13C989.961 125.075 1004.38 125.61 1006.77 128.429C1009.12 121.012 996.137 124.587 998.311 118.288C990.591 117.327 987.771 121.28 979.705 119.973C983.423 124.665 991.757 119.737 996.625 119.973C932.743 130.35 877.101 143.42 825.743 163.938C875.572 133.862 933.342 121.185 1001.7 114.887C999.366 110.525 991.332 114.509 988.165 114.887C988.181 114.808 990.245 111.596 989.851 111.501C960.218 104.494 915.76 136.05 888.333 119.957C894.493 113.422 906.04 116.335 910.325 111.501C910.625 121.91 918.549 107.061 922.172 114.887C927.166 113.422 918.25 112.351 920.487 108.116C925.638 109.722 929.325 118.918 934.019 111.501C932.79 105.265 924.378 116.776 925.559 108.116C931.215 105.88 939.864 106.635 944.165 103.045C932.869 97.4551 901.598 112.603 886.632 113.186C883.749 117.327 866.341 124.98 854.494 130.098C860.732 125.327 873.635 110.178 878.188 114.871C896.352 94.9513 951.522 97.7228 978.004 99.6596C967.307 89.3455 944.826 95.3607 925.559 96.274C900.716 97.4551 879.999 97.5495 868.042 109.801C866.341 106.336 877.384 101.156 883.26 99.6596C855.927 107.281 833.305 134.287 813.896 155.466C817.457 131.909 859.314 94.2427 888.349 86.1331C922.283 76.6536 981.895 76.2442 1018.63 86.1331C1018.03 88.3534 1015.66 88.7943 1015.25 91.2036C1025.96 90.4005 1044.83 77.2992 1052.47 89.5187C1034.97 93.8176 1026.79 95.5497 1003.4 97.9747C1007.64 113.407 1030.29 86.5898 1035.55 103.045C1029.57 99.7698 1025.79 103.092 1018.63 103.045C1024.18 105.565 1033 107.423 1038.94 104.73C1041.1 115.217 1047.64 112.572 1049.09 125.028C1043.57 120.902 1030.57 117.312 1018.63 114.871L1018.84 115.013ZM902.102 93.0302C919.762 89.8336 942.148 91.3453 957.934 86.2591C938.399 87.5976 916.721 86.7945 902.102 93.0302ZM988.386 91.3453C974.837 92.4633 956.815 89.1093 946.087 93.0302C959.635 91.9122 977.657 95.2663 988.386 91.3453ZM1040.83 115.028C1038.78 114.666 1039.79 113.155 1040.83 111.643C1030.32 108.116 993.348 105.58 995.144 108.257C997.743 112.147 1008.25 105.139 1005.29 111.643C1016.79 105.281 1033.69 117.013 1040.81 115.028H1040.83ZM1086.52 155.624C1095.95 144.695 1080.39 120.02 1079.74 121.8C1082.91 129.468 1088.67 143.939 1086.52 155.624ZM1079.74 140.396C1082.51 136.79 1074.59 122.508 1071.28 125.185C1075.88 128.492 1074.84 137.405 1079.74 140.396ZM1078.04 160.694C1075.13 155.718 1075.99 146.963 1071.27 143.782C1078.04 153.277 1071.36 171.386 1074.65 180.992C1075.19 173.622 1076.61 167.166 1078.04 160.694ZM1079.74 182.676C1083.35 178.897 1091.98 171.307 1086.52 164.08C1085.59 167.087 1085.65 171.103 1083.13 172.536C1081.46 162.82 1088.88 152.506 1081.44 147.168C1086.55 158.694 1077.03 174.094 1079.76 182.676H1079.74ZM1101.73 177.606C1102.46 172.016 1102.95 158.82 1100.05 159.009C1101.12 164.709 1097.87 174.709 1101.73 177.606ZM979.91 140.396C975.625 145.498 965.086 143.105 976.523 147.168C977.752 156.332 959.588 154.978 959.603 157.308H971.45C973.246 162.284 973.782 168.52 976.523 172.536C974.459 156.931 974.633 157.135 979.91 150.553C982.903 156.017 984.983 162.395 986.684 169.15C982.242 164.757 985.345 171.874 979.91 170.851C982.462 180.708 979.957 195.605 986.684 201.289C986.779 200.25 986.936 199.289 988.386 199.588C988.118 197.604 988.669 194.786 986.684 194.518C986.306 195.825 986.637 197.856 984.999 197.904C994.53 178.409 984.841 153.498 979.926 140.396H979.91ZM1062.81 524.286C1061.58 509.154 1058.68 486.715 1050.96 483.707C1058.88 503.265 1059.34 528.696 1061.11 546.285C1064.11 543.088 1062.33 535.12 1062.79 529.373C1066.4 526.9 1077.66 526.475 1072.95 520.917C1067.93 519.437 1064.6 528.144 1062.79 524.302L1062.81 524.286ZM910.562 153.907C915.603 153.309 920.865 152.931 922.409 148.837C918.722 150.789 911.46 149.167 910.562 153.907ZM973.167 182.661C972.506 178.252 972.301 173.386 969.78 170.819C971.009 174.661 966.724 184.015 973.167 182.661ZM951.175 180.976H966.409V174.205C960.407 175.543 954.184 176.645 951.175 180.976ZM964.708 192.817C966.125 190.849 966.945 188.282 966.409 184.361H959.635C959.304 189.196 959.43 193.589 964.708 192.817ZM974.853 192.817C973.293 189.873 974.916 183.747 969.78 184.361C969.828 188.833 968.205 194.959 974.853 192.817ZM941.014 208.044C946.528 202.848 964.109 209.698 964.708 199.588C960.328 202.785 940.463 201.525 941.014 208.044ZM935.941 224.957C943.377 221.492 957.051 216.485 954.546 213.115C926.41 226.138 896.935 237.837 873.335 255.395C884.19 252.293 889.845 243.223 905.489 241.869C925.953 240.089 944.464 242.735 956.248 231.728C939.533 230.263 925.276 240.199 912.263 236.798C917.367 231.995 926.946 229.161 935.957 224.957H935.941ZM814.117 289.219C822.703 306.005 837.952 325.137 858.101 324.728C838.393 319.043 822.577 300.494 814.117 289.219ZM897.029 301.061C891.956 299.927 888.018 297.675 885.182 294.289C886.191 307.942 895.375 313.422 905.489 317.973C910.656 310.65 897.455 306.887 898.715 312.902C897.549 309.123 893.626 304.43 897.029 301.061ZM905.489 365.323C910.625 357.402 928.127 324.917 910.562 314.587C912.799 334.302 908.262 356.237 905.489 365.323ZM1052.69 412.674C1048.82 410.831 1038.69 406.485 1034.09 410.973C1038.97 411.807 1050.2 415.036 1052.69 412.674ZM1064.54 419.445C1054.91 419.476 1048.23 416.579 1040.85 414.374C1044.66 419.791 1060.05 425.129 1064.54 419.445ZM930.884 505.69C937.658 504.808 942.006 517.248 942.731 527.672C949.82 529.042 954.027 533.294 957.949 537.813C959.934 533.042 958.28 530.632 956.264 525.971H946.118C947.426 516.523 934.46 506.76 944.432 503.989C932.633 505.044 935.169 482.857 925.827 487.077C930.112 493.36 937.06 503.028 930.9 505.674L930.884 505.69ZM1103.47 534.443C1124.31 528.774 1128.15 506.13 1147.45 498.934C1143.48 498.399 1143.67 493.706 1140.68 492.163C1131.07 509.059 1117.5 522.003 1103.45 534.443H1103.47ZM717.703 497.234C721.5 499.958 724.493 509.516 729.55 505.69C733.552 501.721 719.357 490.305 717.703 497.234ZM1159.3 519.216C1158.79 511.815 1154.01 508.713 1149.15 505.69C1132.38 527.751 1096.43 555.434 1098.39 575.023C1108.26 560.63 1131.43 550.536 1135.62 536.128C1133.29 538.962 1127.81 547.356 1125.48 544.584C1137.75 537.293 1147.04 516.098 1159.31 519.216H1159.3ZM910.577 542.899C915.256 541.372 926.457 546.379 925.796 539.514C921.416 534.711 914.941 542.096 910.577 542.899ZM947.804 551.355C947.567 544.332 946.685 551.009 944.417 551.355C946.874 544.962 939.769 548.111 941.03 542.899C943.393 547.056 953.57 544.584 956.264 544.584C951.128 534.128 941.833 542.033 932.57 537.813C932.223 542.679 932.995 546.411 935.957 547.97C935.862 545.056 937.264 543.639 939.344 542.899C938.241 550.552 940.478 550.568 942.731 551.355C940.289 553.418 940.163 557.811 937.658 559.811C944.685 562.378 954.609 562.031 961.352 564.882C962.581 556.331 958.879 552.694 954.578 549.655C955.523 549.655 956.5 548.285 954.578 547.97C953.459 550.237 950.97 551.119 947.804 551.355ZM963.038 549.655C973.483 548.678 965.086 537.955 959.651 537.813C957.477 545.261 967.748 544.742 963.038 549.655ZM797.229 613.917C816.212 633.837 846.617 642.356 868.294 659.583C861.095 658.591 867.034 670.716 859.834 669.724C853.69 668.653 863.757 661.819 858.149 661.267C855.801 662.307 857.897 667.787 854.762 668.039C834.597 662.275 812.919 658.008 798.93 646.056C810.415 663.708 838.614 665.267 858.149 674.81C864.104 677.707 870.027 681.061 875.068 683.266C869.413 680.164 880.236 679.597 880.141 676.495C884.316 681.203 886.238 679.282 881.827 674.81C888.932 685.124 895.375 670.873 903.819 676.495C895.391 686.667 875.147 685.045 863.206 691.722C870.421 695.548 869.964 691.501 875.053 693.407C874.816 700.43 873.934 693.753 871.666 693.407C870.437 698.587 874.58 698.383 873.351 703.548C876.628 703.091 895.407 706.209 890.271 713.688C870.878 704.335 845.404 692.037 824.294 690.005C828.311 692.745 834.03 693.816 837.826 696.776C836.582 699.469 829.54 696.398 831.052 701.847C832.375 702.225 833.021 703.264 832.738 705.232C842.253 705.878 853.911 704.902 853.044 700.162C865.679 707.264 882.284 710.397 891.956 720.46C892.587 715.814 895.265 709.626 895.344 700.162C891.594 698.619 884.08 696.398 881.811 698.477C887.136 695.375 876.124 692.745 881.811 690.021C889.688 698.886 900.337 688.714 910.577 696.792C902.59 702.178 908.151 726.884 917.352 718.775C915.445 721.94 915.351 726.916 908.892 725.546C908.687 732.522 911.838 736.143 910.593 744.143C919.636 742.474 919.431 731.545 924.126 725.546C920.896 724.837 916.848 724.932 917.352 720.475C927.954 721.53 931.199 713.925 939.344 708.634C942.794 710.271 942.999 715.121 942.731 720.475C944.889 724.79 951.018 718.901 951.191 722.16C953.759 734.128 947.552 722.27 944.417 723.861C938.084 727.057 936.477 741.67 929.183 740.773C930.821 734.726 940.494 727.75 932.57 722.176C925.512 732.033 922.629 746.064 910.577 750.93C902.259 744.584 908.986 723.215 898.731 718.79C902.417 718.397 904.15 707.484 900.416 705.264C898.542 711.783 894.682 721.798 902.102 723.861C892.539 720.491 898.668 732.836 891.956 732.317C888.239 730.396 891.846 721.152 886.884 720.475C886.222 724.979 866.908 719.53 871.666 723.861H878.44C872.485 727.593 885.623 728.097 880.125 730.632C853.864 725.31 829.051 718.554 812.447 703.563C815.267 716.507 836.188 718.554 839.512 725.546C850.366 725.42 869.602 731.545 881.811 735.687C876.187 735.151 875.415 739.45 871.666 740.757C878.251 742.064 886.112 742.096 888.585 747.528C887.845 751.465 881.118 752.063 885.198 755.984C931.672 763.306 1000.53 759.59 1064.54 767.826C1062.22 760.441 1071.09 764.22 1069.61 757.685C1038.29 760 978.02 764.976 956.248 754.299C961.683 749.796 963.636 752.284 968.095 755.984C971.702 750.284 974.948 752.756 985.014 752.599C981.753 758.094 986.464 752.551 988.401 757.669C988.669 755.685 988.102 752.866 990.087 752.599C1008.83 757.086 1036.12 756.835 1047.62 739.072C1059.59 735.813 1079.62 740.6 1086.53 732.301C1068.04 731.734 1045.13 741.859 1037.46 728.916C1037.19 730.915 1037.74 733.718 1035.77 733.986C1029.3 729.64 1041.49 726.821 1037.46 725.53C1029.3 731.986 1027.34 737.734 1020.54 747.512C1012.19 746.253 1021.97 734.569 1017.15 732.285C1014.84 733.75 1010.19 733.86 1007.01 730.6C1005.29 735.088 1004.22 740.222 998.547 740.741C997.523 736.191 1005.16 726.569 1000.23 728.9C997.428 737.072 995.916 729.167 995.16 727.215C992.986 730.112 991.662 733.86 986.7 733.986C980.824 733.088 977.752 729.404 973.167 727.215C976.334 724.743 975.168 717.94 981.627 718.759C977.894 725.105 985.077 722.444 981.627 727.215C985.408 726.475 987.661 724.223 988.401 720.444C980.966 720.491 980.32 712.744 983.329 706.917C978.603 705.437 971.939 705.91 971.482 700.146C980.241 698.209 991.253 702.839 993.474 701.831C991.915 701.752 1028.98 699.564 1025.63 706.902C1031.68 701.91 1031.28 706.02 1039.16 706.902C1044 694.808 1070.56 712.996 1079.77 701.831H1067.93C1070.09 698.76 1076.97 690.714 1069.63 688.305C1067.6 691.911 1067.56 697.517 1062.85 698.446C1052.38 698.776 1044.6 696.414 1042.55 688.305C1015.58 682.305 998.799 694.414 983.329 679.849C982.951 686.935 977.957 678.857 976.555 684.919C979.831 675.975 964.062 687.832 968.095 676.463C978.209 679.471 1000.66 681.581 1001.93 678.148C1007.9 685.911 1015.36 673.424 1022.24 683.218C1029.57 677.928 1031.8 682.888 1040.85 681.534C1040.14 675.755 1041.35 671.897 1047.62 673.078C1046.2 675.046 1045.38 677.613 1045.92 681.534C1053.42 680.715 1056.17 682.006 1056.06 684.919C1058.74 679.833 1062.11 682.148 1066.23 684.919C1067.12 677.817 1063.26 675.471 1062.84 669.692C1069.16 670.29 1080.36 667.015 1074.69 661.236C1068.95 671.44 1051.87 664.181 1047.62 657.85C1049.2 662.134 1048.85 667.44 1044.23 669.692C1048.69 664.322 1039.9 666.338 1039.16 669.692C1032.4 663.74 1020.98 674.054 1018.85 657.85C1026.08 663.551 1032.02 656.292 1037.46 664.622C1037.36 661.456 1038.77 661.047 1040.85 662.937C1033.46 650.938 1050.31 653.378 1056.06 649.41C1061.22 646.434 1051.45 644.167 1056.06 642.639C1059.42 641.773 1059.94 651.961 1062.84 646.025C1058.49 644.229 1065.94 640.293 1066.23 637.569C1074.94 638.387 1080.73 636.277 1083.14 630.798C1071.47 637.033 1050.31 633.506 1040.85 627.412C1043.43 635.537 1053.81 635.868 1061.15 639.254C1054.08 640.12 1049.68 638.309 1045.92 635.868C1040.99 642.167 1041.44 644.544 1035.77 651.079C1031.47 650.906 1031.77 644.781 1034.09 642.623C1029.16 644.119 1028.24 644.781 1025.63 640.923C1025.72 644.088 1024.32 644.497 1022.24 642.623C1022.41 647.867 1021.47 652.008 1018.85 654.465C1020.93 645.615 1016.1 643.694 1015.47 637.553C1026.08 633.537 1013.42 607.225 1001.93 617.255C1002.31 614.059 1000.03 613.523 1000.23 610.484C1007.32 613.082 1009.05 610.374 1015.47 615.555C1010.06 596.155 990.891 590.502 979.942 576.66C993.931 579.479 1002.38 593.95 1007.01 588.502C1006.75 598.769 1020.68 605.288 1023.93 617.255C1030.28 614.043 1038.96 611.886 1045.92 605.414C1052.02 612.799 1082.88 608.28 1071.3 598.643C1072.2 608.768 1049.64 606.941 1045.92 602.028C1047.62 586.801 1078.42 591.698 1079.76 581.731C1059.69 591.147 1029.72 574.865 1022.22 580.03C1026.92 567.968 1033.68 573.448 1042.53 574.96C1051.13 561.433 1032.58 558.268 1025.61 559.732C1026.68 556.3 1033.52 558.614 1034.07 554.662C1022.41 555.686 1011.53 554.426 1010.38 549.592C1005.81 552.914 1011.42 566.409 1006.99 569.889C1015.17 570.645 1019.92 572.22 1023.91 573.275C1010.39 584.707 987.141 569.133 979.926 573.275C980.461 570.991 982.336 570.047 981.627 566.504C984.699 566.315 995.144 568.755 998.547 566.504C995.648 564.33 991.899 563.008 991.773 558.048C998.263 559.449 1002.03 563.575 1005.31 568.188C1004.66 556.993 1003.01 546.804 998.531 539.435C983.376 536.112 989.016 553.591 984.999 561.417C981.391 549.859 971.182 562.22 964.692 551.276V564.803C971.671 565.165 979.532 564.63 979.926 571.574C978.224 571.574 977.909 572.944 976.539 573.259C977.783 566.803 970.978 574.991 968.079 574.96C971.056 575.369 971.939 577.873 971.466 581.731C951.033 560.677 894.178 561.622 873.335 586.801C877.573 589.998 883.796 585.053 886.868 586.801C880.614 591.399 882.599 597.666 871.65 595.257C871.681 592.47 876.344 594.312 876.723 591.872C872.296 585.825 869.365 593.871 861.504 593.572C850.366 590.407 834.896 574.219 827.665 578.345C832.754 580.565 844.474 587.793 851.359 593.572C847.279 592.879 847.688 596.659 842.899 595.257C842.521 598.454 844.805 598.989 844.585 602.028C853.328 603.43 852.651 595.43 858.117 593.572C858.669 597.525 865.49 595.21 866.577 598.643C859.551 600.076 855.266 604.249 851.343 608.784C837.968 601.855 828.027 591.509 815.818 583.416C821.096 597.304 839.732 597.84 842.883 613.854C846.207 614.358 846.239 611.571 847.956 610.469C861.205 627.947 909.333 612.783 915.634 632.451C898.037 631.065 890.712 629.979 871.65 637.521C851.469 625.948 824.766 618.877 810.745 602.013C808.871 599.761 807.154 591.431 802.286 593.556C811.171 610.043 824.325 622.263 844.585 627.38C845.246 629.79 846.617 630.231 844.585 632.451C865.206 631.207 871.524 645.332 881.811 637.521C877.337 642.623 873.02 647.914 869.964 654.433C877.841 651.268 891.704 649.426 895.344 654.433C889.546 654.465 895.58 658.827 888.569 659.504C887.12 650.465 868.389 661.976 863.19 651.048C864.687 650.087 870.705 644.072 866.577 647.662C839.937 646.292 821.127 623.46 797.213 613.838L797.229 613.917ZM876.754 580.093C869.208 570.157 854.919 557.969 846.302 554.725C854.683 564.945 864.403 573.842 876.754 580.093ZM932.586 558.111C923.543 559.213 910.058 555.89 903.819 559.795C912.862 558.693 926.347 562.016 932.586 558.111ZM1047.64 575.023C1051.51 576.786 1057.84 576.093 1061.17 578.408C1063.97 572.771 1061.56 566.787 1059.47 561.496C1055.97 562.504 1048.34 559.402 1047.62 563.181C1051.23 564.236 1049.2 573.59 1047.62 575.023H1047.64ZM814.148 578.408C814.4 575.274 819.883 577.369 820.922 575.023V568.251H815.85C819.379 574.786 808.776 575.574 814.148 578.392V578.408ZM798.914 575.023C799.45 578.943 798.646 581.51 797.229 583.479C801.466 583.636 805.484 575.007 802.301 573.338C801.923 574.66 800.884 575.306 798.914 575.038V575.023ZM815.834 600.391C816.842 598.784 823.364 591.683 815.834 591.935C816.842 594.942 810.871 598.958 815.834 600.391ZM761.688 647.741C773.11 638.167 778.103 657.992 790.454 651.127C784.074 641.726 785.208 624.814 776.922 617.303C770.92 625.412 764.807 642.371 761.688 647.741ZM1023.94 635.899C1027.03 636.356 1033.43 641.993 1035.79 637.584C1031.2 634.514 1036.72 627.38 1037.47 624.058C1033.6 625.129 1027.27 627.412 1023.94 624.058V635.899ZM854.746 688.32C861.394 688.21 867.459 687.502 871.666 684.935C862.465 686.809 862.749 679.187 854.746 679.864V688.32ZM798.914 695.092C793.385 692.824 779.001 682.951 780.309 684.951C785.193 688.572 792.25 698.886 798.914 695.092ZM1062.85 691.706C1054.09 689.124 1054.44 687.281 1049.32 691.706C1052.49 692.084 1060.54 696.068 1062.85 691.706ZM854.746 706.917C848.618 708.681 835.117 703.075 834.439 710.303C837.306 706.917 862.922 710.303 854.746 706.917ZM1015.48 727.215C1016.18 718.129 1021.28 731.01 1023.94 725.514C1025.23 719.137 1021.88 717.436 1022.24 711.988C1012 705.862 1002.2 710.649 995.176 708.602C1005.04 711.704 1007.38 722.318 1015.48 727.199V727.215ZM1029.01 722.144C1036.29 718.412 1045.54 720.853 1047.62 727.215C1052.85 718.649 1064.82 727.341 1066.23 715.373C1053.89 715.058 1035.35 715.279 1027.31 710.303C1025.96 716.176 1029.83 716.806 1029 722.144H1029.01ZM986.716 715.373C995.223 713.074 992.308 722.176 995.176 725.514C999.382 725.325 1000.41 722.349 1003.64 725.514C1004.85 716.334 990.245 709.027 986.716 715.373ZM754.914 742.426C749.888 740.064 742.169 731.561 737.994 733.97C741.176 738.175 749.699 745.875 754.914 742.426ZM810.745 735.655C826.373 761.496 867.743 754.032 893.642 766.094C910.121 764.755 883.938 764.361 881.795 761.023C890.791 762.047 914.784 759.732 893.642 759.338C866.309 753.433 816.464 753.78 815.818 732.27C815.125 734.395 813.628 735.734 810.745 735.655ZM861.504 737.356C880.897 740.033 866.388 734.332 859.819 733.97C863.158 734.159 850.918 734.915 851.359 735.655C852.162 736.978 862.119 737.435 861.52 737.356H861.504ZM1061.15 752.567C1067.15 752.362 1071.88 750.882 1073 745.796C1067.42 746.426 1064.54 749.748 1061.15 752.567ZM792.14 759.338C797.465 759.433 805.751 752.788 798.914 750.882C797.764 754.819 793.29 755.417 792.14 759.338ZM1057.78 781.321C1057.99 777.085 1061.01 776.03 1056.08 774.55C1053.18 785.698 1036.56 783.053 1030.7 776.25C1030.46 779.4 1029.58 781.903 1027.31 783.021C1015.37 787.997 996.53 786.076 979.942 786.407C970.159 785.509 974.081 789.43 981.643 788.092H998.563C1025.88 794.816 1056.19 781.762 1076.39 781.321C1076.43 777.305 1085.05 773.258 1079.77 769.479C1073.54 774.518 1060.79 773.054 1057.78 781.321ZM983.329 777.935C976.933 776.36 975.389 777.841 971.482 776.25C969.402 781.872 982.919 780.392 983.329 777.935Z" fill="black"/>
<path fill-rule="evenodd" clip-rule="evenodd" d="M1108.51 454.938C1110.43 455.252 1109.44 456.638 1108.51 456.622C1115.77 455.93 1115.33 468.149 1111.9 476.92C1109.72 482.164 1109.72 472.117 1111.9 471.849C1109.78 476.511 1102.44 475.944 1100.05 480.306C1102.22 485.596 1103.55 481.172 1108.51 483.691C1104.25 501.989 1092.74 513.027 1083.13 525.971C1072.09 500.209 1103.86 476.007 1108.51 454.938Z" fill="black"/>
<path fill-rule="evenodd" clip-rule="evenodd" d="M1042.53 106.557C1042.7 103.328 1048.83 107.895 1050.99 108.241C1050.66 109.611 1049.29 109.926 1049.29 111.627C1053.5 111.375 1057.5 111.312 1057.75 115.013C1063.26 117.989 1046.5 110.052 1056.05 116.697C1050.91 120.634 1047.59 108.304 1042.52 106.557H1042.53Z" fill="black"/>
<path fill-rule="evenodd" clip-rule="evenodd" d="M797.197 202.959C809.974 208.722 822.782 191.637 832.722 194.503C820.245 205.148 803.83 211.856 792.109 223.256C793.275 228.563 796.614 225.461 800.569 224.941C801.75 233.46 800.001 239.035 795.496 241.853C792.849 241.129 794.047 236.531 788.722 238.468C789.919 246.861 801.545 244.814 809.028 246.924C801.813 261.663 783.224 245.286 766.729 248.609C766.603 254.939 774.023 253.726 771.802 262.135C760.696 266.261 747.904 268.686 746.423 282.433C749.794 287.519 760.57 285.204 765.028 289.204C760.176 297.565 745.32 292.463 739.649 287.503C738.688 269.631 747.368 261.395 761.641 258.749C761.121 253.632 756.411 252.703 758.254 245.223C762.838 240.782 772.936 241.869 781.948 241.837C781.9 204.833 791.92 178.913 805.641 152.207C807.878 156.207 801.151 165.686 800.569 172.505C823.806 154.018 840.3 128.776 866.546 113.312C860.717 119.312 852.73 123.17 849.626 131.909C851.06 132.224 851.217 131.248 851.312 130.225C832.313 146.743 806.602 171.213 797.166 202.943L797.197 202.959Z" fill="black"/>
<path fill-rule="evenodd" clip-rule="evenodd" d="M886.868 126.855C887.183 128.288 886.206 128.445 885.182 128.54C882.677 129.28 885.844 130.713 885.182 133.61C871.177 133.028 860.417 143.058 847.956 148.837C841.733 145.168 853.013 145.074 851.343 140.381C860.716 138.901 867.16 136.035 866.577 130.24C869.05 124.745 875.856 131.484 875.037 125.17C879.385 131.941 877.668 127.422 886.884 126.855H886.868Z" fill="black"/>
<path fill-rule="evenodd" clip-rule="evenodd" d="M1010.38 147.152C1016.32 151.357 1017.09 160.742 1020.52 167.45C1016.03 168.505 1013.31 153.294 1010.38 147.152Z" fill="black"/>
<path fill-rule="evenodd" clip-rule="evenodd" d="M1018.84 182.66C1017.12 183.762 1017.09 186.55 1013.77 186.046C1014.29 176.503 1010.77 171.008 1012.08 160.678C1019.78 172.315 1025.31 192.675 1020.54 211.414C1015.51 214.689 1012.19 209.146 1010.39 214.799C1009.31 206.91 1019.97 196.202 1018.85 182.66H1018.84Z" fill="black"/>
<path fill-rule="evenodd" clip-rule="evenodd" d="M837.795 165.749C841.119 162.536 832.107 172.63 827.649 172.52C831.194 177.023 835.731 168.315 841.182 169.134C832.454 174.74 820.465 185.322 810.729 184.361C816.763 181.826 816.842 170.929 824.262 177.59C828.878 176.031 821.899 172.299 824.262 167.449C830.532 168.646 831.525 164.552 837.795 165.749Z" fill="black"/>
<path fill-rule="evenodd" clip-rule="evenodd" d="M929.167 170.818C917.383 174.755 902.669 188.061 891.94 184.345C894.367 188.077 882.331 195.273 885.166 187.73C876.738 191.636 882.189 197.572 868.247 194.502C866.325 196.564 858.59 208.107 861.473 199.572C856.935 202.123 859.929 207.02 851.311 208.028C851.815 204.58 855.896 204.705 856.384 201.257C848.192 203.446 843.592 206.28 837.779 216.484C835.794 216.216 836.361 213.398 836.093 211.414C834.25 215.209 827.948 214.547 829.319 221.555C820.607 220.657 817.078 225.082 810.714 231.695C809.564 226.279 803.026 230.562 802.254 228.31C808.855 224.2 807.894 223.539 815.786 216.468C817.614 216.878 816.936 219.822 819.174 219.854C821.678 219.114 818.512 217.697 819.174 214.783C822.072 214.862 823.553 213.524 824.246 211.398C826.231 211.666 825.68 214.484 825.948 216.468C828.39 214.405 828.516 210.012 831.02 208.012C832.391 208.91 833.762 209.776 836.093 209.713C836.408 208.28 835.431 208.123 834.407 208.012C858.007 194.265 894.398 179.007 929.151 170.803L929.167 170.818Z" fill="black"/>
<path fill-rule="evenodd" clip-rule="evenodd" d="M875.021 211.415C881.685 207.368 890.602 205.573 898.715 202.959C891.752 205.998 882.315 214.171 875.021 211.415Z" fill="black"/>
<path fill-rule="evenodd" clip-rule="evenodd" d="M869.948 213.1C852.572 223.618 843.954 227.161 829.351 238.468C825.727 231.193 823.096 241.302 819.205 243.538C815.534 243.822 818.433 237.539 817.504 235.082C834.817 231.161 849.736 218.753 869.948 213.1Z" fill="black"/>
<path fill-rule="evenodd" clip-rule="evenodd" d="M861.489 235.081C865.096 230.908 861.016 240.451 859.803 241.852C851.879 238.545 858.385 244.261 851.343 246.923C848.76 246.891 852.194 238.939 853.045 236.782C855.502 235.853 861.788 238.75 861.504 235.081H861.489Z" fill="black"/>
<path fill-rule="evenodd" clip-rule="evenodd" d="M935.926 268.921C934.618 259.693 956.437 259 959.619 248.623C964.219 254.686 942.558 262.905 935.926 268.921Z" fill="black"/>
<path fill-rule="evenodd" clip-rule="evenodd" d="M849.642 270.606C850.398 268.149 851.122 270.779 853.029 270.606C855.534 269.866 852.367 268.449 853.029 265.535C859.251 264.953 858.149 271.692 859.803 275.676C858.29 276.983 855.975 277.487 853.029 277.361C853.501 273.503 852.619 271 849.642 270.59V270.606Z" fill="black"/>
<path fill-rule="evenodd" clip-rule="evenodd" d="M956.232 265.535C954.846 273.204 945.094 287.077 944.385 301.044C939.769 292.982 945.677 280.967 949.458 275.676C948.938 272.102 943.582 277.455 944.385 280.747C937.391 271.424 954.436 271.676 956.232 265.535Z" fill="black"/>
<path fill-rule="evenodd" clip-rule="evenodd" d="M839.496 275.676C836.456 275.897 835.92 273.598 832.722 273.991C832.501 277.03 834.786 277.566 834.408 280.762C832.832 282.573 828.169 281.282 829.335 285.833C827.098 283.124 822.088 279.518 825.948 275.692C827.838 284.258 837.291 261.725 839.48 275.692L839.496 275.676Z" fill="black"/>
<path fill-rule="evenodd" clip-rule="evenodd" d="M925.78 279.062C925.024 282.306 915.43 291.219 912.248 297.659C909.632 291.046 919.132 282.039 925.78 279.062Z" fill="black"/>
<path fill-rule="evenodd" clip-rule="evenodd" d="M839.496 282.449C836.991 283.189 840.158 284.606 839.496 287.519C838.456 289.865 832.99 287.771 832.722 290.905C830.375 285.677 840.252 278.181 846.255 275.693C846.27 279.047 850.87 277.851 849.642 282.464C845.813 284.512 842.206 287.346 839.496 282.464V282.449Z" fill="black"/>
<path fill-rule="evenodd" clip-rule="evenodd" d="M873.335 290.904C873.178 295.314 867.758 308.966 861.488 312.887C861.173 314.32 862.15 314.477 863.174 314.572C857.692 316.209 859.283 306.037 851.327 306.116C856.368 298.746 867.428 297.408 873.32 290.889L873.335 290.904Z" fill="black"/>
<path fill-rule="evenodd" clip-rule="evenodd" d="M792.124 343.325C782.058 358.772 772.716 381.794 758.285 404.202C759.593 388.03 772.574 368.882 778.592 351.781H785.366C784.263 350.064 781.475 350.033 781.979 346.71C788.942 347.497 780.656 342.459 785.366 339.939C793.18 342.711 794.487 339.12 797.213 333.168C800.994 333.892 797.906 341.498 798.899 345.01C796.646 340.868 792.597 346.868 792.124 343.325Z" fill="black"/>
<path fill-rule="evenodd" clip-rule="evenodd" d="M792.124 351.781C792.439 357.387 784.941 383.905 780.277 395.746C778.907 394.849 777.536 393.983 775.205 394.046C778.671 399.163 767.848 401.699 765.059 405.887C763.106 402.785 770.085 386.865 775.205 390.66C773.897 389.164 773.393 386.834 773.519 383.889C781.38 385.086 787.43 371.858 781.979 370.363C788.296 366.331 785.697 358.253 792.124 351.766V351.781Z" fill="black"/>
<path fill-rule="evenodd" clip-rule="evenodd" d="M773.503 351.781C772.905 356.852 768.037 372.221 759.971 375.464C763.531 382.267 753.654 399.384 749.825 405.903C750.55 409.131 753.465 410.154 753.213 414.359C748.896 414.548 747.289 417.461 744.753 419.429C740.499 416.689 746.659 410.202 749.825 409.288C742.657 397.368 760.853 370.095 773.519 351.781H773.503Z" fill="black"/>
<path fill-rule="evenodd" clip-rule="evenodd" d="M1093.29 422.814C1098.52 426.609 1103.03 431.129 1106.82 436.341C1105.52 447.427 1102.7 457.016 1098.36 465.094C1094.46 465.614 1096.49 460.213 1093.29 460.024C1091.81 465.441 1095.89 465.315 1098.36 466.795C1091.7 479.849 1085.56 493.454 1078.06 505.69C1075.36 500.493 1075.52 492.447 1072.98 487.093C1081.52 479.676 1079.66 463.882 1088.2 461.725C1082.97 454.402 1090.97 448.277 1089.9 439.742C1098.54 437.317 1097.13 444.923 1101.75 446.513C1105.23 439.049 1089.51 436.231 1093.29 422.83V422.814Z" fill="black"/>
<path fill-rule="evenodd" clip-rule="evenodd" d="M743.051 453.252C747.431 451.489 758.411 446.733 759.971 458.323C756.915 459.346 746.832 461.913 749.825 463.393C747.856 465.424 738.94 458.197 743.051 453.236V453.252Z" fill="black"/>
<path fill-rule="evenodd" clip-rule="evenodd" d="M731.204 529.357C739.034 526.57 763.106 545.812 770.116 556.41C773.031 560.803 774.275 567.259 775.189 571.637C764.098 553.969 751.117 538.206 731.204 529.357Z" fill="black"/>
<path fill-rule="evenodd" clip-rule="evenodd" d="M1044.22 642.671C1049.94 642.75 1045.02 643.348 1052.68 640.971C1052.99 642.404 1052.02 642.561 1050.99 642.671C1052.24 644.246 1054.06 645.238 1056.06 646.057C1053.5 651.175 1048.64 644.655 1044.22 646.057C1043.9 644.624 1044.88 644.466 1045.9 644.356C1046.22 642.923 1045.24 642.766 1044.22 642.671Z" fill="black"/>
<path fill-rule="evenodd" clip-rule="evenodd" d="M993.458 637.584C991.347 638.765 984.825 639.93 981.611 635.899C981.296 637.332 982.273 637.489 983.297 637.584C982.777 639.883 979.059 638.985 976.523 639.284C977.767 647.866 972.332 649.74 969.749 654.496C976.539 658.354 998.563 660.889 1003.59 656.181C1005.67 656.921 1007.07 658.338 1006.98 661.251C1010.2 660.527 1010.03 656.417 1015.43 657.866C1014.62 663.188 1020.63 661.692 1018.82 668.006C1013.58 661.676 1002.67 671.518 1001.9 661.235C989.599 667.865 984.053 659.409 968.063 662.936C968.378 661.566 969.765 661.251 969.765 659.55C965.464 662.464 963.195 656.968 962.99 662.936C960.549 662.558 962.392 657.881 959.603 657.866C961.147 653.236 965.527 660.873 968.063 656.181C963.132 653.157 946.228 655.189 952.845 646.04C960.486 657.015 978.571 642.135 969.765 637.584C967.307 636.828 969.938 636.104 969.765 634.198C966.819 635.757 960.69 634.135 961.305 639.269C958.343 630.939 957.287 641.032 954.531 632.498C949.836 637.411 942.747 632.608 935.925 629.112C938.54 624.451 946.087 628.955 947.772 630.797C945.472 628.844 955.681 623.396 956.232 630.797C960.344 624.813 969.418 617.381 976.539 624.026C977.248 627.553 975.373 628.498 974.853 630.797C986.527 630.356 986.7 632.104 993.458 637.568V637.584Z" fill="black"/>
<path fill-rule="evenodd" clip-rule="evenodd" d="M1330.15 608.847C1332.92 595.824 1351.76 584.235 1357.21 568.268C1358.65 578.881 1338.83 597.131 1330.15 608.847Z" fill="black"/>
<path fill-rule="evenodd" clip-rule="evenodd" d="M893.626 585.164C888.601 588.99 901.267 587.604 902.086 583.463C905.048 585.006 907.962 586.612 907.159 591.919C897.502 590.643 893.752 587.037 890.239 593.62C888.569 591.084 887.167 585.148 893.626 585.164Z" fill="black"/>
<path fill-rule="evenodd" clip-rule="evenodd" d="M917.32 586.849C921.4 587.542 920.991 583.763 925.78 585.164C924.598 586.534 923.149 589.794 925.78 590.234C919.179 588.739 920.14 594.407 917.32 586.849C915.886 586.534 915.729 587.51 915.619 588.534C910.719 589.431 918.218 581.952 917.32 586.849Z" fill="black"/>
<path fill-rule="evenodd" clip-rule="evenodd" d="M961.305 595.305C951.033 584.251 934.618 602.013 925.78 586.849C933.452 585.322 945.614 585.825 949.474 590.235C951.632 587.873 957.76 589.494 957.933 585.164C961.163 590.597 970.001 586.676 969.78 591.935C971.765 591.667 971.198 588.849 971.466 586.865C975.026 588.376 981.564 586.912 979.926 593.636C969.245 592.565 970.521 591.967 961.32 595.321L961.305 595.305Z" fill="black"/>
<path fill-rule="evenodd" clip-rule="evenodd" d="M984.999 593.619C982.699 593.099 983.597 589.383 983.297 586.848C984.873 588.659 989.536 587.367 988.37 591.918C995.743 590.265 987.126 592.879 984.983 593.619H984.999Z" fill="black"/>
<path fill-rule="evenodd" clip-rule="evenodd" d="M913.933 657.882C910.278 662.527 906.167 656.197 902.086 659.567C907.458 655.913 895.549 655.236 897.014 659.567C891.941 658.449 898.636 655.945 897.014 652.795C904.497 651.992 905.426 655.126 910.546 652.795C911.996 654.165 911.554 657.425 913.933 657.866V657.882Z" fill="black"/>
<path fill-rule="evenodd" clip-rule="evenodd" d="M935.925 629.128C935.138 634.183 926.599 631.9 922.393 630.813C919.841 645.82 920.156 662.307 922.393 676.479C927.497 679.093 926.851 667.723 924.078 668.023C929.655 663.11 928.159 679.66 935.925 678.179C937.154 696.131 957.429 695.028 976.539 695.091C975.672 701.547 963.463 696.682 966.393 706.933C961.809 699.264 956.043 703.878 951.159 705.248C950.104 701.595 948.182 699.469 942.699 703.547C946.512 692.43 929.356 690.619 927.465 679.864C923.716 678.935 925.055 683.092 922.393 683.25C907.679 664.999 916.832 639.615 919.006 615.602C921.621 610.437 920.502 622.94 920.707 625.743C926.993 620.153 938.903 617.113 934.24 605.445C951.963 606.091 976.728 600.028 990.071 612.216C988.559 615.224 985.345 616.515 986.684 622.357C979.311 621.271 978.571 613.57 971.45 612.216C971.151 613.964 968.268 619.082 968.063 610.531C959.84 611.649 930.159 616.468 935.909 629.128H935.925Z" fill="black"/>
<path fill-rule="evenodd" clip-rule="evenodd" d="M888.554 608.846C888.254 614.168 880.519 601.965 881.78 610.531C878.424 610.499 879.621 605.917 875.005 607.145C877.179 601.854 878.503 606.279 883.465 603.76C884.41 606.201 886.112 607.885 888.538 608.83L888.554 608.846Z" fill="black"/>
<path fill-rule="evenodd" clip-rule="evenodd" d="M912.247 605.462C915.745 600.879 913.728 609.335 915.634 608.847C915.603 609.572 902.937 613.76 903.788 605.462C906.828 605.682 907.348 603.399 910.562 603.777C909.664 607.288 917.147 607.351 912.247 605.462Z" fill="black"/>
<path fill-rule="evenodd" clip-rule="evenodd" d="M1001.92 634.215C1004.09 635.049 1013.39 632.735 1013.76 640.986C1007.1 638.136 1008.6 638.136 1001.92 640.986C1000.03 638.545 1000.09 636.86 1003.6 635.916C1003.92 634.467 1002.94 634.325 1001.92 634.231V634.215Z" fill="black"/>
<path fill-rule="evenodd" clip-rule="evenodd" d="M1220.17 642.67C1222.93 646.638 1214.19 653.535 1213.4 659.582C1208.86 653.834 1217.79 647.126 1220.17 642.67Z" fill="black"/>
<path fill-rule="evenodd" clip-rule="evenodd" d="M929.167 652.813C931.089 653.128 930.112 654.513 929.167 654.498C929.577 658.859 932.082 652.167 935.941 654.498C938.541 655.395 936.051 656.261 934.256 656.182C932.271 656.45 932.822 659.269 932.554 661.253C930.585 659.836 928.017 659.017 924.094 659.568C922.613 654.135 929.671 657.253 929.167 652.797V652.813Z" fill="black"/>
<path fill-rule="evenodd" clip-rule="evenodd" d="M1188.03 654.496C1189.92 660.385 1179.16 668.149 1179.57 678.179C1174.88 669.487 1184.71 660.795 1188.03 654.496Z" fill="black"/>
<path fill-rule="evenodd" clip-rule="evenodd" d="M974.853 852.369C980.966 847.882 984.164 855.267 993.459 854.07C993.254 847.803 991.001 849.818 986.684 850.685C989.016 845.63 998.941 847.157 1003.6 848.984C1001.35 842.795 993.852 847.204 986.684 847.299C977.327 847.425 958.973 843.425 957.918 852.369C962.313 856.999 971.293 846.543 973.152 855.755C972.096 858.274 972.285 860.29 968.079 855.755C966.299 856.999 969.245 862.195 963.006 862.526C966.063 866.242 975.688 863.376 974.853 870.982C967.764 866.652 976.696 878.509 976.539 882.824C973.877 882.099 975.09 877.501 969.765 879.438C971.419 881.17 973.105 882.855 974.837 884.509C973.892 888.335 972.207 882.461 969.765 886.209C973.672 890.193 979.012 892.744 978.225 901.421C980.651 899.342 981.438 895.61 981.612 891.28C998.689 920.994 996.877 969.604 1006.99 1006.28C1011.23 977.225 1006.42 942.583 1001.92 916.648C1006.85 916.223 1007.76 919.828 1010.38 921.718C1003.49 911.121 1005.79 902.145 995.16 898.035C1003.27 886.178 981.911 876.997 981.627 862.526C1016.32 891.138 1033.99 945.291 1027.31 1009.66C1022.48 1014.99 1014.33 1016.99 1007.01 1019.82C1015.53 1050.29 1016.29 1097.4 1008.71 1129.75C989.426 1132.68 981.218 1124.52 971.482 1117.91C969.198 1042.4 967.622 966.171 952.877 903.121C966.519 900.98 962.597 930.442 968.095 942.016C981.533 933.009 959.903 906.334 973.168 891.28C967.102 892.067 967.197 880.005 966.393 874.368C956.658 880.399 937.989 880.792 924.094 877.753C922.629 868.966 935.595 874.588 935.941 867.612C930.16 864.526 918.281 877.58 910.562 872.683C910.751 876.997 916.233 876.037 920.707 876.068C908.53 889.075 892.098 892.839 878.408 903.137C856.684 919.451 845.924 943.669 832.722 969.1C829.209 936.709 859.803 909.451 881.795 891.311C870.421 896.303 849.453 906.334 844.569 923.45C837.165 924.679 845.94 920.08 841.182 920.065C836.424 920.38 833.967 923.009 834.408 928.521C836.393 928.253 835.841 925.434 836.093 923.45C843.057 926.458 833.825 936.504 832.706 942.047C831.336 940.598 828.075 941.039 827.634 938.662C825.255 942.378 833.211 961.494 822.561 958.959C823.664 960.676 826.452 960.707 825.948 964.03C820.529 966.644 818.496 964.628 819.174 957.259C810.336 969.321 836.282 968.958 831.021 977.556C811.517 982.595 802.128 953.023 817.488 940.347C785.335 936.158 764.587 925.985 743.036 909.908C731.409 901.232 718.097 890.398 714.269 877.769C748.612 896.445 765.942 932.111 820.859 930.19C838.945 895.279 869.303 872.62 907.143 857.471C853.627 862.636 793.716 845.992 765.012 815.191C755.245 839.252 743.713 861.55 727.786 879.454C717.388 872.935 730.149 863.329 734.56 857.471C750.109 836.749 758.285 801.35 771.786 776.297C774.748 777.856 775.52 781.588 775.173 786.438C805.547 820.561 876.187 833.206 942.684 838.859C985.755 842.528 1025.11 830.733 1059.42 830.403C1057.83 838.953 1045.57 836.859 1037.43 838.859C1043.74 846.559 1062.49 833.521 1069.58 842.244C1077.82 827.647 1067.47 811.822 1067.88 794.894C1083.48 802.484 1078.14 824.419 1079.73 842.244C1080.56 851.74 1085.02 862.479 1086.5 872.683C1088.42 885.973 1092.05 903.058 1083.11 911.577C1078.89 890.429 1077.9 866.053 1072.97 845.63C1067.09 846.527 1064.02 850.212 1059.44 852.401C1032.35 846.575 983.817 875.612 974.837 852.401L974.853 852.369ZM790.439 810.089C783.822 804.877 778.639 798.201 771.834 793.177C766.729 803.35 787.871 807.885 790.439 810.089ZM861.504 843.913C861.772 841.914 861.205 839.111 863.19 838.843C865.648 839.772 871.933 836.875 871.65 840.528C867.16 841.662 861.378 840.528 864.876 842.213C882.441 841 902.102 844.339 919.022 843.913C914.878 850.606 921.542 842.024 920.723 848.984C926.394 848.449 931.388 847.236 934.256 843.913C906.34 843.331 876.833 833.442 849.658 833.757C854.006 836.733 857.613 840.465 861.504 843.913ZM934.256 864.211C940.998 873.344 937.595 863.534 942.715 870.982C947.3 863.739 949.174 853.755 954.562 847.299C948.024 848.197 946.307 844.276 939.344 845.598C938.399 855.928 933.405 854.637 934.271 864.195L934.256 864.211ZM976.555 1111.12C986.543 1114.66 988.354 1126.38 1001.93 1126.35C999.949 1122.19 998.846 1110.57 995.16 1117.89C993.585 1113.62 998.594 1109.04 991.773 1104.36C990.733 1111.29 987.125 1107.75 981.627 1107.75C978.02 1094.59 981.753 1079.14 978.24 1063.79C975.956 1074.27 975.783 1097.03 976.555 1111.14V1111.12ZM1005.32 1068.84C1002.75 1074.95 1005.86 1076.92 1000.25 1080.68C1004.23 1081.22 1001.26 1088.7 1007.02 1087.45V1067.16C1005.04 1067.42 1002.22 1066.87 1001.95 1068.86H1005.34L1005.32 1068.84Z" fill="black"/>
<path fill-rule="evenodd" clip-rule="evenodd" d="M695.679 942C690.307 957.511 672.175 974.879 663.526 992.736C666.251 974.596 685.518 958.361 695.679 942Z" fill="black"/>
<path fill-rule="evenodd" clip-rule="evenodd" d="M717.672 967.369C723.611 960.346 730.574 954.331 736.277 947.071C724.462 963.511 703.651 994.438 685.518 1004.58C682.84 1022.31 663.022 1037.25 656.752 1057.02C654.531 1059.03 654.09 1057.66 651.679 1057.02C653.633 1059.52 653.633 1061.27 651.679 1063.79C651.789 1059.65 647.867 1060.48 646.606 1067.17C661.053 1017.08 705.888 993.178 727.817 945.402C730.984 952.567 719.799 959.905 717.656 967.385L717.672 967.369Z" fill="black"/>
<path fill-rule="evenodd" clip-rule="evenodd" d="M722.745 1001.19C736.324 989.729 748.738 963.07 765.044 948.771C768.147 954.204 757.041 959.889 753.197 963.999C755.371 968.723 756.694 958.676 761.657 960.613C724.257 997.083 707.574 1054.24 678.744 1099.29C689.551 1064.62 708.692 1038.72 722.729 1001.21L722.745 1001.19Z" fill="black"/>
<path fill-rule="evenodd" clip-rule="evenodd" d="M776.891 953.842C772.07 967.069 757.545 985.241 746.438 997.807C749.384 989.351 767.234 966.817 776.891 953.842Z" fill="black"/>
<path fill-rule="evenodd" clip-rule="evenodd" d="M785.35 955.527C783.901 971.573 772.101 991.887 763.358 1006.26C751.511 1074.48 705.793 1123.47 673.687 1177.07C688.275 1143.73 710.031 1117.58 722.744 1082.37C727.675 1084.75 719.751 1088.19 721.059 1092.51C733.851 1068.09 752.74 1040.75 758.285 1014.72C759.987 1012.39 761.074 1015.43 763.358 1011.33C756.489 1006.59 781.9 971.935 785.35 955.527Z" fill="black"/>
<path fill-rule="evenodd" clip-rule="evenodd" d="M778.576 1002.88C785.933 988.248 793.085 973.415 800.569 958.912C799.103 966.061 788.848 993.303 778.576 1002.88Z" fill="black"/>
<path fill-rule="evenodd" clip-rule="evenodd" d="M726.132 977.525C717.262 996.862 692.922 1015.35 683.833 1040.1C687.992 1016.07 711.748 996.973 726.132 977.525Z" fill="black"/>
<path fill-rule="evenodd" clip-rule="evenodd" d="M798.883 979.211C796.772 996.265 784.594 1017.9 778.576 1036.7C778.482 1017.43 793.18 998.312 798.883 979.211Z" fill="black"/>
<path fill-rule="evenodd" clip-rule="evenodd" d="M793.81 1068.84C795.212 1051.91 809.658 1012.09 819.189 1001.19C822.34 997.603 817.031 1011.24 814.117 1013.03C808.949 1033.24 799.025 1048.69 793.81 1068.84Z" fill="black"/>
<path fill-rule="evenodd" clip-rule="evenodd" d="M741.366 1004.58C743.256 1009.92 733.82 1018.42 732.906 1026.56C730.165 1020.39 739.428 1011.7 741.366 1004.58Z" fill="black"/>
<path fill-rule="evenodd" clip-rule="evenodd" d="M638.146 1038.4C631.908 1057.53 612.625 1078.27 600.92 1097.59C607.474 1078.78 626.914 1058.18 638.146 1038.4Z" fill="black"/>
<path fill-rule="evenodd" clip-rule="evenodd" d="M680.445 1043.47C684.715 1040.04 678.508 1048.83 678.76 1051.93C680.603 1051.5 679.91 1048.57 682.147 1048.54C685.266 1046.42 677.027 1059.64 673.687 1062.07C671.781 1064.48 678.051 1047.82 680.461 1043.46L680.445 1043.47Z" fill="black"/>
<path fill-rule="evenodd" clip-rule="evenodd" d="M653.38 1099.28C647.016 1120.54 628.836 1144.63 621.227 1170.3C624.283 1145.72 641.518 1120.68 653.38 1099.28Z" fill="black"/>
<path fill-rule="evenodd" clip-rule="evenodd" d="M631.388 1180.45C633.026 1183.89 637.879 1184.11 643.235 1183.84C655.649 1157.35 671.655 1134.46 687.22 1111.12C693.033 1123.8 678.839 1135.64 671.986 1146.63C664.314 1158.97 658.989 1172.97 649.993 1182.14C666.96 1183.78 668.504 1200.83 687.22 1200.73C698.893 1176.33 708.598 1149.95 719.373 1124.63C723.201 1145.39 710 1163.73 704.139 1180.44C711.276 1177.4 716.758 1158.11 721.059 1146.61C724.509 1149.64 721.532 1152.85 727.833 1150C722.225 1164.12 713.828 1175.46 710.913 1192.28C705.573 1182.39 716.538 1174.25 717.688 1165.23C713.119 1182.12 692.844 1190.29 695.695 1209.19C673.545 1211.6 665.921 1199.49 655.082 1190.59C630.081 1199.71 616.958 1175.23 604.323 1171.98C604.465 1169.57 604.607 1167.19 602.622 1166.91C619.116 1147.89 622.55 1115.81 644.921 1102.65C637.501 1127.36 621.353 1143.35 611.081 1165.23C616.453 1170.01 622.062 1174.55 628.001 1178.75C641.36 1159.42 653.191 1138.55 665.227 1117.88C656.09 1129.04 647.851 1141.09 638.162 1151.7C645.488 1136.14 664.219 1114.11 673.687 1104.35C665.842 1129.21 643.96 1154.68 631.388 1180.45Z" fill="black"/>
<path fill-rule="evenodd" clip-rule="evenodd" d="M888.554 1843.41C888.333 1804.06 854.888 1789.25 858.101 1752.08C812.132 1748.41 791.904 1770.47 765.044 1785.9C780.451 1757.05 822.939 1738.17 864.876 1747.01C861.662 1789.13 904.89 1811.96 895.328 1855.23C891.09 1856.63 888.68 1859.88 883.481 1860.32C896.194 1864.29 925.197 1853.78 930.853 1868.78C873.052 1874.15 820.166 1884.41 758.269 1885.69C769.313 1873.04 795.842 1875.89 815.802 1872.16C791.069 1864.57 765.012 1865.91 744.737 1851.86C734.434 1844.71 733.174 1832.42 727.817 1816.35C720.318 1793.84 701.666 1772.81 722.744 1753.78C719.184 1732.74 734.686 1721.76 743.051 1718.27C743.965 1731.02 729.739 1728.65 731.204 1741.94C734.119 1744.19 734.576 1729.59 741.35 1730.09C736.545 1740.52 729.944 1749.15 731.204 1765.6C734.702 1756.69 738.735 1748.33 741.35 1738.55C745.714 1751.01 725.549 1767.11 736.277 1780.83C739.664 1768.44 741.46 1754.44 748.124 1745.32C743.76 1729.57 745.824 1712.87 748.124 1697.97C757.34 1638.29 736.182 1577.52 729.519 1510.24C724.982 1464.48 729.849 1410.15 741.366 1369.87C749.321 1342.06 761.751 1318.51 761.672 1292.08C761.609 1275.2 755.166 1259.61 761.672 1243.05C771.44 1252.1 766.288 1265.16 766.745 1275.19C769.329 1331.87 742.484 1380.78 737.978 1439.22C734.938 1478.65 739.507 1515.8 743.051 1554.22C745.666 1582.58 757.293 1607.69 758.285 1635.39C759.026 1656.43 752.598 1682.13 756.584 1704.74C756.379 1711.01 754.126 1708.99 749.81 1708.13C757.041 1727.95 752.598 1759.46 761.656 1777.46C754.016 1794.77 758.443 1821.9 758.269 1838.35C762.255 1838.31 763.248 1841.27 768.415 1840.04C770.211 1828.07 763.216 1810.29 763.342 1794.37C770.227 1806.65 768.037 1828.01 773.503 1841.72H788.722C781.869 1825.47 774.228 1809.99 770.116 1790.99C776.323 1793.99 776.607 1808.7 780.262 1818.06C784.232 1828.18 789.95 1836.23 793.794 1843.42H807.327C802.853 1831.53 784.956 1818.45 780.262 1801.14C793.4 1817.41 808.571 1832.64 831.021 1843.42C817.141 1843.75 804.601 1828.12 793.794 1819.74C802.286 1849.66 856.904 1857.66 888.538 1843.42L888.554 1843.41ZM743.051 1794.36C746.659 1788.37 743.209 1775.35 749.825 1772.37C744.201 1791.1 745.036 1808.15 753.212 1823.11C759.908 1795.25 752.503 1774.81 746.438 1752.08C743.256 1762.86 734.954 1783.16 743.051 1794.36ZM727.833 1780.83C724.273 1778.75 726.746 1770.64 722.76 1768.99C717.294 1773.52 724.32 1785.6 727.833 1780.83ZM743.051 1840.02C746.738 1841.52 751.889 1850.23 756.584 1845.09C751.401 1843.23 748.092 1832.31 743.051 1840.02ZM817.504 1851.86C808.083 1850.07 772.432 1848.51 781.979 1853.55C780.939 1853.45 779.978 1853.3 780.293 1851.86C790.486 1851.53 784.09 1857.67 793.826 1853.55C788.406 1858.04 802.963 1862.59 803.971 1860.32C801.435 1857.78 796.851 1857.3 795.511 1853.55C810.32 1856.18 806.775 1857.74 817.504 1851.86ZM820.891 1862C818.764 1859.75 815.802 1858.68 819.205 1855.23C814.747 1854.73 813.644 1857.58 814.132 1862C818.654 1861.03 824.703 1867.01 827.665 1862C826.357 1861.63 824.325 1861.96 824.278 1860.32C825.586 1859.93 827.618 1860.27 827.665 1858.62C821.379 1856.4 822.64 1857.12 820.891 1862ZM853.044 1862C859.834 1861.47 866.53 1860.82 869.964 1856.93C861.662 1857.86 854.935 1858.76 853.044 1862ZM842.899 1873.85C821.127 1874.63 792.219 1877.29 780.293 1882.3C800.332 1879.78 829.981 1877.88 842.899 1873.85Z" fill="black"/>
<path fill-rule="evenodd" clip-rule="evenodd" d="M875.021 1818.04C863.93 1826.68 845.813 1828.31 825.948 1828.18C837.968 1835.71 857.235 1843.74 876.707 1838.34C851.879 1851.72 826.231 1828.46 803.956 1823.11C816.968 1826.18 856.274 1827.53 875.021 1818.04Z" fill="black"/>
<path fill-rule="evenodd" clip-rule="evenodd" d="M814.117 1356.35C819.063 1354.19 849.831 1366.77 856.416 1364.8C841.859 1369.15 826.594 1359.98 814.117 1356.35Z" fill="black"/>
<path fill-rule="evenodd" clip-rule="evenodd" d="M1127.11 1718.25C1124.26 1721.59 1125.27 1728.8 1123.73 1733.48C1119.54 1730.79 1123.03 1721.64 1123.73 1718.25C1081.08 1716.77 1066.65 1743.49 1040.83 1758.83C1040.63 1763.7 1041.76 1769.9 1039.14 1772.36V1790.95C1040.15 1795.79 1037.93 1809.2 1037.46 1797.73C1037.71 1785.58 1036.45 1771.92 1039.14 1762.22C1028.45 1764.83 1030.04 1802.28 1030.68 1816.34C1022.73 1805.93 1029.58 1783.1 1030.68 1770.67C1015.92 1770.03 1016.44 1799.27 1017.15 1819.72C1043.49 1821.24 1046.64 1784.94 1064.52 1772.37V1745.32C1070.62 1741.01 1063.82 1760.82 1066.23 1768.99C1071.03 1769.81 1077.68 1757.93 1084.83 1755.46C1084.39 1745.43 1084.99 1736.44 1088.22 1730.09C1089.26 1732.9 1088.8 1748.66 1086.53 1753.78C1093.92 1753.84 1096.52 1749.1 1103.45 1748.71C1102.57 1739.37 1104.43 1732.77 1105.14 1725.04C1108.84 1729.4 1106.65 1742.25 1105.14 1747.02C1147.03 1735.08 1183.34 1768.59 1169.43 1802.83C1164.59 1814.75 1144.3 1819.64 1130.52 1828.2C1110.12 1840.84 1103.56 1857.04 1094.99 1872.16C1086.61 1872.63 1081.48 1873.74 1076.39 1880.62C1041.19 1883.78 999.713 1881.29 991.789 1851.86C971.057 1854.3 940.73 1862.51 917.336 1858.63C907.537 1857 924.977 1856.07 934.256 1855.25C950.293 1853.83 973.451 1852.27 990.087 1850.18C995.254 1845.19 992.86 1832.65 1001.93 1831.58C999.098 1828.76 995.081 1827.16 995.16 1821.42C1000.06 1760.7 1050.03 1745.82 1089.9 1716.57C1084.28 1710.3 1080.86 1703.97 1079.76 1692.88C1072.57 1621.47 1087.54 1527.32 1084.83 1457.82C1082.47 1397 1063.91 1341.83 1062.84 1283.63C1073.88 1274.51 1069.25 1246.04 1067.91 1229.5C1060.35 1224.65 1051.12 1221.49 1044.22 1215.98C991.332 1212.53 961.305 1232.09 944.385 1243.03C943.865 1248.32 949.269 1238.73 949.458 1244.72C943.85 1289.11 957.366 1350.45 969.765 1390.15C972.49 1398.89 969.04 1414.56 969.765 1427.36C975.152 1522.82 1012.28 1603.69 1013.75 1711.48C1013.99 1728.96 1013.89 1744.01 1015.44 1760.53C1001.32 1753.79 1006.63 1726.35 1005.29 1704.73C1004.47 1691.69 1002.71 1678.18 1001.9 1660.76C998.059 1577.77 963.321 1498.06 961.289 1423.99C961.037 1414.97 964.125 1405.8 962.991 1396.94C960.202 1375.1 947.457 1352.33 944.385 1327.61C940.699 1297.99 939.691 1268 944.385 1237.98C924.898 1245.53 893.043 1246.89 869.933 1241.36C882.646 1192.88 880.409 1116.84 883.465 1055.33C883.796 1048.67 886.128 1022.97 886.852 1040.1C882.646 1107.5 887.404 1183.82 871.634 1239.66C881.795 1229.69 899.124 1233.72 912.232 1229.5C914.185 1210.37 913.933 1182.31 913.933 1155.1C913.933 1127.89 909.947 1100.25 919.006 1082.38V1226.13C928.663 1224.5 938.367 1222.92 946.071 1219.36C941.361 1155.29 934.319 1093.56 932.538 1026.58C945.63 1082.27 944.606 1152.06 951.144 1214.29C958.548 1214.92 972.175 1214.67 981.596 1214.29C982.809 1209.69 973.624 1215.51 974.822 1210.91C972.569 1188.36 969.859 1166.26 969.749 1141.57C980.871 1155.26 975.657 1185.27 979.894 1205.84C997.113 1205.54 1009.29 1210.28 1027.27 1209.22C1032.1 1206.42 1018.62 1207.87 1022.19 1200.77C1048.9 1201.99 1061.78 1215.93 1089.87 1207.54C1076.1 1141.26 1065.77 1071.53 1059.42 997.838C1077.95 1063.88 1079.55 1146.83 1096.65 1214.31C1091.81 1212.2 1088.72 1216.21 1083.11 1217.69C1096.69 1222.17 1110.59 1226.31 1127.1 1227.83C1120.54 1143.07 1109.5 1062.78 1100.03 980.926C1126.5 1051.66 1117.19 1151.75 1133.87 1231.22C1135.02 1236.67 1138.11 1241.09 1138.95 1246.45C1127.92 1252.12 1093.61 1250.98 1079.73 1253.22C1063.34 1291.89 1079.54 1331.59 1084.8 1376.67C1090.47 1425.38 1093.75 1480.81 1093.26 1532.27C1092.63 1597.69 1078.07 1656.26 1093.26 1714.91C1128.42 1701.78 1177.32 1715.01 1164.32 1760.58C1154.56 1743.86 1156.78 1715.12 1127.1 1718.3L1127.11 1718.25ZM1110.19 1775.76C1109.5 1777.88 1108 1779.21 1105.12 1779.14C1105.12 1777.44 1106.49 1777.13 1106.81 1775.76C1097.56 1779.95 1086.94 1778.42 1078.04 1772.37C1076.37 1775.32 1065.01 1777.24 1071.27 1782.53C1077.87 1784.53 1102.99 1781.14 1098.33 1787.6C1109.52 1784.39 1138.14 1789.24 1149.09 1792.67C1147.39 1792.66 1146.96 1789.71 1149.09 1789.29C1154.87 1789.65 1154.18 1794.86 1157.55 1789.29C1157.47 1791.62 1158.34 1793 1159.24 1794.36C1150.92 1803.88 1134.22 1788.29 1133.86 1797.74C1130 1792.23 1128.47 1794.89 1123.71 1790.97C1123.44 1792.97 1124.01 1795.77 1122.03 1796.04C1119.49 1795.76 1115.79 1796.64 1115.25 1794.34C1115.08 1792.43 1117.71 1791.71 1115.25 1790.95C1111.75 1792.86 1113.77 1790.84 1111.86 1794.34C1094.9 1789.96 1082.51 1793.66 1066.18 1782.5C1058.96 1791.06 1050.71 1798.61 1047.57 1811.24C1052.11 1810.4 1063.23 1812.45 1062.79 1818.01C1075.39 1808.58 1089.93 1824.02 1105.09 1818.01C1106.43 1824.34 1115.11 1823.35 1113.55 1819.69C1115.98 1828.23 1136.58 1819.02 1142.32 1811.24C1131.92 1811.16 1119.62 1811.68 1106.79 1811.24C1089.3 1810.64 1070.51 1806.42 1069.57 1811.24C1069.38 1808.04 1063.97 1810.07 1064.49 1806.17C1067.41 1805.5 1068.82 1808.69 1069.57 1806.17C1063.64 1805.41 1066.1 1798.89 1064.49 1797.71C1064.49 1798.65 1063.12 1799.63 1062.81 1797.71C1073.05 1795.95 1090.25 1794.58 1105.11 1801.1C1108.89 1792.53 1121.84 1801.79 1127.1 1802.8C1130.3 1797.32 1152.78 1800.42 1155.86 1806.18C1187.34 1756.45 1104.3 1736.16 1081.41 1768.97C1087.23 1772.06 1099.5 1766.04 1096.65 1772.36C1123.99 1769.4 1130.78 1776.62 1157.55 1780.81C1150.34 1788.61 1139.8 1784.23 1135.56 1777.43C1132.85 1789.16 1118.12 1777.49 1122.03 1777.43C1119.39 1782.7 1112.86 1779.35 1110.18 1775.74L1110.19 1775.76ZM1042.52 1816.34C1039.13 1827.05 1022.22 1824.24 1015.45 1831.57C1010.82 1817.8 1019.72 1795.74 1013.77 1780.83C1006.16 1792.39 1004.88 1810.28 1005.31 1829.88C999.539 1836.89 996.011 1861.72 1008.69 1863.7C1016.05 1850.76 1030.12 1844.54 1037.46 1831.58C1039.49 1843.39 1049.59 1839.69 1057.77 1836.65C1049.97 1832.98 1050.14 1835.79 1040.85 1829.9C1044.01 1829.49 1039.89 1827.11 1042.53 1826.51C1057.5 1831.77 1076.42 1823.85 1091.6 1833.28C1091.87 1831.3 1091.32 1828.48 1093.31 1828.21C1097.12 1828.02 1101.77 1835.44 1106.84 1829.91C1110.98 1832.15 1104.98 1836.19 1108.54 1836.67C1110.67 1834.71 1118.2 1829.58 1113.61 1826.51C1113.2 1833.79 1104.81 1822.9 1100.08 1828.21C1104.08 1820.09 1089.54 1828.48 1088.23 1819.76C1087.97 1821.76 1088.53 1824.56 1086.55 1824.84C1083.55 1822.76 1079.69 1821.55 1078.09 1818.07C1074.34 1820.5 1080.21 1822.2 1076.4 1823.14C1066.98 1824.87 1073.02 1820.51 1069.63 1818.07C1058.08 1823.25 1055.72 1820.46 1042.55 1816.37L1042.52 1816.34ZM1096.66 1853.53C1096.99 1847.66 1102.65 1847.11 1103.44 1841.69C1095.21 1843.61 1082.61 1841.17 1078.06 1846.76C1077.68 1845.45 1078.01 1843.42 1076.37 1843.38C1075.99 1844.68 1076.32 1846.71 1074.67 1846.76C1074.76 1843.6 1073.36 1843.19 1071.28 1845.08C1073.93 1849.11 1085.82 1849.66 1096.66 1853.53ZM1066.21 1856.92C1065.36 1849.72 1034.39 1844.46 1022.22 1858.62C1036.18 1855.91 1054.33 1857.26 1066.21 1856.92Z" fill="black"/>
<path fill-rule="evenodd" clip-rule="evenodd" d="M841.182 1774.06C844.144 1779.54 820.954 1786.5 809.028 1787.59C797.544 1788.62 778.624 1786.14 798.883 1785.88C814.038 1782.99 831.604 1782.51 841.182 1774.04V1774.06Z" fill="black"/>
<path fill-rule="evenodd" clip-rule="evenodd" d="M790.423 1806.2C806.618 1806.25 841.702 1817.87 859.787 1806.2C846.065 1820.23 806.476 1811.3 790.423 1806.2Z" fill="black"/>
<path fill-rule="evenodd" clip-rule="evenodd" d="M1208.34 1877.23C1216.72 1875.66 1233.23 1880.52 1247.25 1878.93C1238.67 1887.14 1218.38 1878.76 1208.34 1877.23Z" fill="black"/>
<path fill-rule="evenodd" clip-rule="evenodd" d="M875.021 933.544C864.482 937.686 854.116 956.613 841.182 963.983C847.184 944.048 873.871 930.127 880.094 904.791C885.261 904.87 885.403 901.61 891.941 899.72C888.9 907.862 874.454 919.152 881.795 926.773C883.229 925.419 881.685 919.813 885.182 916.632C900.133 914.176 894.745 908.224 897.029 903.106H903.804C900.353 898.335 907.521 900.996 903.804 894.65C912.547 894.933 911.617 885.548 920.723 886.194C902.622 918.27 882.851 948.693 859.819 975.825C853.045 976.958 848.224 980.029 842.899 982.596C840.442 995.366 838.016 1008.15 836.125 1021.49C832.612 1010.62 838.52 994.595 841.198 984.281C840.82 981.84 836.141 983.682 836.125 980.895C837.401 973.714 845.499 973.352 851.343 970.754C856.511 951.449 868.09 944.284 875.037 933.544H875.021Z" fill="black"/>
<path fill-rule="evenodd" clip-rule="evenodd" d="M761.656 1195.68C755.891 1199.51 754.221 1207.43 749.81 1212.59C757.009 1195.54 772.401 1163.02 780.262 1146.65C785.319 1154.54 775.866 1172.64 770.116 1185.54C764.114 1198.99 756.111 1213.21 749.81 1222.75C754.032 1226.99 761.593 1227.88 770.116 1227.82C776.827 1199.02 783.948 1170.61 790.423 1141.58C798.615 1146.16 789.966 1157.7 792.109 1166.94C797.339 1151.87 801.419 1135.67 803.955 1117.89C801.986 1154.49 789.493 1199.59 776.89 1226.14C784.815 1234.56 802.506 1233.22 812.415 1239.66C805.121 1250.57 788.769 1237.16 775.189 1234.58C761.924 1232.06 745.824 1236.67 739.664 1226.12C734.308 1225.84 734.008 1230.61 727.817 1229.51C716.632 1225.46 706.061 1220.8 700.736 1210.91C711.906 1212.14 718.034 1218.42 727.817 1221.05C738.42 1202.34 741.996 1176.6 751.511 1156.79C763.311 1175.49 738.577 1196.66 734.591 1215.98C738.041 1218.73 743.445 1219.52 746.438 1222.75C753.165 1215.38 757.324 1205.44 761.672 1195.7L761.656 1195.68Z" fill="black"/>
<path fill-rule="evenodd" clip-rule="evenodd" d="M825.964 1134.79C824.546 1162.13 825.097 1206.07 819.19 1234.58C825.255 1241.47 838.457 1241.25 851.327 1241.35V1232.89C849.847 1227.88 849.988 1238.01 844.553 1234.58C843.372 1227.19 847.436 1225.05 846.255 1217.66C842.411 1218.89 845.751 1227.3 839.481 1226.12C848.224 1198.77 853.927 1168.39 858.086 1136.49C862.907 1170.55 856.416 1205.57 858.086 1243.03C842.017 1243.69 825.507 1246.8 815.787 1244.72C811.88 1239.05 815.188 1226.15 814.085 1217.66C812.1 1217.93 812.652 1220.75 812.4 1222.73C810.367 1193.65 822.183 1163.75 825.932 1134.79H825.964Z" fill="black"/>
<path fill-rule="evenodd" clip-rule="evenodd" d="M1103.44 1758.85C1109.42 1767.16 1121.24 1752.23 1125.43 1765.62C1126.58 1761.59 1134.82 1760.39 1133.89 1767.32C1130.17 1763.57 1128.26 1770.28 1123.74 1770.7C1118.31 1772.99 1115.02 1760.08 1113.6 1769C1109.23 1766.61 1104.02 1765.05 1103.45 1758.86L1103.44 1758.85Z" fill="black"/>
<path fill-rule="evenodd" clip-rule="evenodd" d="M1247.25 1885.69C1220.98 1893.23 1185.59 1891.7 1152.51 1892.46C1180.27 1898.38 1196.42 1899.18 1225.26 1900.91C1210.74 1910.8 1186.41 1904.77 1169.43 1905.99C1123.65 1909.26 1077.98 1922.72 1034.07 1919.51C1039.03 1913.78 1049.9 1913.92 1059.45 1912.74C1064.45 1911.26 1055.53 1910.21 1057.77 1905.97C1079.66 1900.87 1111.3 1896.74 1142.36 1895.81C1134.75 1890.38 1117.74 1897.62 1111.91 1894.13C1152.89 1887.17 1202.95 1889.31 1247.27 1885.67L1247.25 1885.69ZM1079.76 1905.99C1113.27 1904.54 1146.79 1903.1 1177.89 1899.21C1144.7 1895.07 1109.23 1901.01 1079.76 1905.99ZM1071.3 1914.44C1079.81 1914.44 1096.08 1913.34 1096.68 1911.06C1087.37 1911.34 1078.29 1911.84 1071.3 1914.44Z" fill="black"/>
</g>
<defs>
<clipPath id="clip0_157_280">
<rect width="919" height="1841" fill="white" transform="translate(540 79)"/>
</clipPath>
</defs>
</svg>
