<svg width="2000" height="2000" viewBox="0 0 2000 2000" fill="none" xmlns="http://www.w3.org/2000/svg">
<g clip-path="url(#clip0_157_285)">
<path fill-rule="evenodd" clip-rule="evenodd" d="M1075.72 279.015C1091.73 268.725 1115.1 265.787 1132.34 256.728C1136.73 256.646 1134.43 258.008 1134.05 260.158C1113.14 264.983 1097.3 274.863 1075.72 279.015Z" fill="black"/>
<path fill-rule="evenodd" clip-rule="evenodd" d="M1067.14 294.459C1080.61 283.923 1102.39 281.674 1116.9 272.172C1121.29 272.107 1118.99 273.452 1118.63 275.602C1099.96 280.378 1086.13 289.995 1067.16 294.459H1067.14Z" fill="black"/>
<path fill-rule="evenodd" clip-rule="evenodd" d="M1104.88 294.457C1102.19 298.625 1097.59 300.874 1091.15 301.317C1094.73 298.035 1099.35 295.786 1104.88 294.457Z" fill="black"/>
<path fill-rule="evenodd" clip-rule="evenodd" d="M761.752 325.31C751.275 327.197 754.527 315.398 744.591 316.743C738.088 328.986 757.499 330.102 758.32 340.753C743.277 346.71 728.382 326.82 737.726 313.313C749.748 309.982 758.567 315.217 761.752 325.31Z" fill="black"/>
<path fill-rule="evenodd" clip-rule="evenodd" d="M748.024 351.028C736.807 359.496 732.619 340.016 725.722 344.168C724.326 344.497 724.014 345.892 722.29 345.875C724.162 363.583 748.812 367.177 744.591 385.311C734.886 377.811 710.662 364.403 713.701 349.305C716.361 336.045 741.586 335.126 748.007 351.012L748.024 351.028Z" fill="black"/>
<path fill-rule="evenodd" clip-rule="evenodd" d="M862.98 392.188C868.597 393.418 869.681 399.211 869.845 405.907C863.884 405.005 865.362 396.684 862.98 392.188Z" fill="black"/>
<path fill-rule="evenodd" clip-rule="evenodd" d="M838.954 400.754C843.979 404.873 849.957 408.04 852.683 414.474C842.255 415.754 841.401 407.466 838.954 400.754Z" fill="black"/>
<path fill-rule="evenodd" clip-rule="evenodd" d="M820.085 424.763C823.649 421.317 830.119 429.506 832.09 433.33C824.223 434.331 824.092 427.602 820.085 424.763Z" fill="black"/>
<path fill-rule="evenodd" clip-rule="evenodd" d="M881.85 429.9C889.88 440.732 887.597 461.886 897.287 471.043C886.021 470.272 886.317 443.161 881.85 429.9Z" fill="black"/>
<path fill-rule="evenodd" clip-rule="evenodd" d="M892.146 483.055C891.457 488.487 882.457 528.776 883.574 508.771C884.001 501.156 889.387 488.339 892.146 483.055Z" fill="black"/>
<path fill-rule="evenodd" clip-rule="evenodd" d="M1266.17 500.189C1271.87 497.317 1270.29 507.738 1271.31 510.479C1275.1 520.621 1282.2 533.504 1285.04 543.055C1289.21 535.391 1282.66 523.756 1285.04 512.186C1287.68 506.951 1286.55 519.62 1286.74 522.476C1290.52 542.694 1293.66 563.586 1297.04 584.198C1301.82 573.416 1292.69 553.493 1298.75 541.332C1300.34 558.186 1303.97 581.622 1300.46 597.918C1296.66 597.705 1299.73 590.648 1298.75 587.628C1294.36 595.702 1292.87 582.787 1293.59 575.632C1288.47 575.664 1296.01 588.334 1288.45 585.921C1290.18 548.192 1272.62 529.729 1266.15 500.189H1266.17Z" fill="black"/>
<path fill-rule="evenodd" clip-rule="evenodd" d="M899.011 501.912C905.367 502.487 894.495 512.629 893.855 517.339C892.82 521.441 896.006 529.778 892.147 531.058C890.751 517.65 894.659 509.56 899.011 501.912Z" fill="black"/>
<path fill-rule="evenodd" clip-rule="evenodd" d="M899.011 519.062C901.343 524.314 897.467 538.05 899.011 548.209C893.033 540.725 896.794 527.826 899.011 519.062Z" fill="black"/>
<path fill-rule="evenodd" clip-rule="evenodd" d="M907.583 534.488C915.105 534.652 907.797 544.844 907.583 548.208C906.532 552.311 909.735 560.648 905.875 561.928V546.501C906.417 542.481 908.585 540.068 907.583 534.505V534.488Z" fill="black"/>
<path fill-rule="evenodd" clip-rule="evenodd" d="M914.448 548.207C915.647 555.559 909.571 572.2 911.016 580.783C906.04 570.625 912.018 556.675 914.448 548.207Z" fill="black"/>
<path fill-rule="evenodd" clip-rule="evenodd" d="M921.313 573.925C923.3 573.646 924.367 574.302 924.745 575.631C926.158 580.473 922.331 580.079 923.037 584.198C923.185 609.11 920.081 586.725 921.329 573.908L921.313 573.925Z" fill="black"/>
<path fill-rule="evenodd" clip-rule="evenodd" d="M883.558 664.793C885.348 677.955 882.145 698.567 886.99 712.796C877.498 702.391 880.224 679.497 883.558 664.793Z" fill="black"/>
<path fill-rule="evenodd" clip-rule="evenodd" d="M1180.38 688.803C1192.1 706.231 1212.4 715.093 1231.86 724.809C1207.47 720.033 1188.7 709.645 1180.38 688.803Z" fill="black"/>
<path fill-rule="evenodd" clip-rule="evenodd" d="M1202.68 688.803C1216.24 698.108 1229.87 707.364 1245.57 714.519C1230.07 713.994 1212.29 700.931 1202.68 688.803Z" fill="black"/>
<path fill-rule="evenodd" clip-rule="evenodd" d="M1286.76 695.662C1289.67 699.24 1280.64 708.939 1276.46 712.812C1266.76 721.805 1250.98 729.912 1240.43 735.098C1254.15 720.23 1275.87 713.353 1286.76 695.662Z" fill="black"/>
<path fill-rule="evenodd" clip-rule="evenodd" d="M1130.63 697.369C1132.54 723.463 1147.1 736.92 1154.66 757.385C1141.41 743.124 1128.53 721.526 1130.63 697.369Z" fill="black"/>
<path fill-rule="evenodd" clip-rule="evenodd" d="M1187.24 712.796C1186.03 736.969 1196.54 760.897 1202.68 783.085C1207.54 769.07 1207.29 749.967 1209.54 733.359C1214.14 753.971 1206.57 777.242 1206.11 798.511C1221.51 781.903 1225.52 753.906 1237 733.359C1232.42 759.075 1217.85 789.666 1204.4 812.231C1199.26 811.099 1206.04 808.571 1204.4 805.371C1201.63 800.005 1202.27 812.182 1195.83 808.801C1210.97 789.305 1190.07 768.725 1188.97 745.355C1183.89 763.588 1193.79 781.674 1190.67 803.648C1183.56 779.934 1180.56 739.546 1187.24 712.779V712.796Z" fill="black"/>
<path fill-rule="evenodd" clip-rule="evenodd" d="M1285.04 729.945C1283.74 768.085 1262.26 800.924 1233.57 817.384C1256.89 794.392 1276.6 767.79 1285.04 729.945Z" fill="black"/>
<path fill-rule="evenodd" clip-rule="evenodd" d="M948.755 738.512C969.152 771.268 992.241 801.367 1020.82 825.951C991.486 808.981 964.093 775.191 948.755 738.512Z" fill="black"/>
<path fill-rule="evenodd" clip-rule="evenodd" d="M1032.84 784.809C1034.45 790.306 1044.23 783.955 1050 788.239C1079.51 825.902 1038.18 889.545 1050 935.693C1033.87 958.341 996.051 939.895 969.365 927.127C949.248 917.493 928.769 905.349 924.762 889.397C946.932 916.394 979.432 933.067 1020.83 940.83C1024.04 894.632 1021.34 828.364 1032.84 784.809ZM1032.84 909.977C1032.66 917.805 1027.94 931.213 1036.27 935.693C1041.28 924.55 1036.93 915.081 1037.99 901.41C1040.93 863.238 1066.14 810.689 1037.99 796.822C1036.66 797.199 1034.61 796.871 1034.56 798.528C1037.76 829.07 1033.63 875.431 1032.84 909.977Z" fill="black"/>
<path fill-rule="evenodd" clip-rule="evenodd" d="M1269.6 856.82C1263.77 884.719 1266.71 936.234 1254.16 963.116C1246.61 957.519 1255.99 951.496 1257.59 944.259C1263.26 918.69 1258.43 878.565 1269.6 856.82Z" fill="black"/>
<path fill-rule="evenodd" clip-rule="evenodd" d="M1139.21 920.266C1132.57 905.167 1106.46 894.714 1096.31 877.4C1108.48 886.951 1120.7 896.453 1132.34 906.546C1129.45 894.566 1111.96 882.339 1106.61 867.11C1124.49 884.67 1137.3 907.317 1152.93 927.126C1150.13 911.634 1136.12 892.498 1132.34 872.263C1142.1 889.363 1149.8 908.532 1158.08 927.126C1159.08 910.682 1156.14 883.357 1154.64 863.68C1162.71 888.773 1162.23 922.383 1163.22 954.549C1156.66 953.663 1160.97 941.945 1158.08 937.399C1127.84 915.031 1096.66 893.614 1077.44 860.25C1096.74 881.552 1116.31 902.558 1139.21 920.266Z" fill="black"/>
<path fill-rule="evenodd" clip-rule="evenodd" d="M1062 870.541C1068.74 892.959 1068 922.844 1068.87 951.12C1060.41 930.951 1060.57 895.092 1062 870.541Z" fill="black"/>
<path fill-rule="evenodd" clip-rule="evenodd" d="M1053.41 928.832C1062.53 939.713 1068.59 953.679 1070.58 971.698C1062.58 959.685 1060.44 941.83 1053.41 928.832Z" fill="black"/>
<path fill-rule="evenodd" clip-rule="evenodd" d="M1106.61 942.553C1120.91 954.549 1135.84 965.906 1161.51 966.546C1140.96 974.374 1116.15 957.093 1106.61 942.553Z" fill="black"/>
<path fill-rule="evenodd" clip-rule="evenodd" d="M1046.55 949.412C1053.38 961.031 1049.97 991.507 1048.26 1006C1028.68 996.578 1047.7 967.251 1046.55 949.412Z" fill="black"/>
<path fill-rule="evenodd" clip-rule="evenodd" d="M1020.82 1755.24C1005.05 1751.92 988.595 1750.95 971.073 1753.53C972.157 1747.75 980.319 1749.07 986.51 1748.39C986.362 1741.68 977.264 1743.91 974.505 1739.83C985.015 1736.36 1008.47 1749.18 1020.83 1755.25L1020.82 1755.24Z" fill="black"/>
<path fill-rule="evenodd" clip-rule="evenodd" d="M969.349 1758.67C982.125 1759.03 991.65 1762.67 1005.38 1762.1C994.491 1769.23 980.926 1767.18 964.192 1770.66C964.323 1764.49 971.352 1765.25 977.921 1765.53C976.673 1761.62 968.133 1765.02 969.349 1758.67Z" fill="black"/>
<path fill-rule="evenodd" clip-rule="evenodd" d="M972.781 1772.38C970.482 1778.08 962.78 1778.39 957.344 1780.95C960.201 1775.8 962.632 1770.23 972.781 1772.38Z" fill="black"/>
<path fill-rule="evenodd" clip-rule="evenodd" d="M964.192 1782.68C962.747 1786.37 959.971 1788.75 953.895 1787.81C953.846 1782.61 959.922 1783.55 964.192 1782.68Z" fill="black"/>
<path fill-rule="evenodd" clip-rule="evenodd" d="M1140.91 1804.96C1120.22 1806.93 1112.32 1820.34 1089.45 1813.53C1095.82 1805.04 1115.64 1809.98 1127.2 1806.67C1126.25 1804.19 1124.52 1802.48 1122.06 1801.51C1127.09 1797.15 1134.43 1805.08 1140.93 1804.94L1140.91 1804.96Z" fill="black"/>
<path fill-rule="evenodd" clip-rule="evenodd" d="M926.453 1834.11C915.401 1846.86 898.321 1843.58 876.693 1844.4C880.24 1839.93 890.307 1842 893.854 1837.54C896.909 1838.78 894.101 1840.66 893.854 1842.67C903.182 1838.28 914.629 1836.01 926.453 1834.11Z" fill="black"/>
<path fill-rule="evenodd" clip-rule="evenodd" d="M880.125 1854.69C868.58 1861.38 887.318 1854.75 895.562 1856.39C883.393 1866.62 852.996 1860.27 837.23 1858.1C849.875 1848.17 860.55 1855.51 880.125 1854.67V1854.69Z" fill="black"/>
<path fill-rule="evenodd" clip-rule="evenodd" d="M549 1864.98C571.564 1856.97 614.493 1866.78 633.066 1868.41C603.522 1868.79 579.611 1863.53 549 1864.98Z" fill="black"/>
<path fill-rule="evenodd" clip-rule="evenodd" d="M1134.07 1048.85C1179.74 1043.63 1219.95 1018.09 1262.73 1004.27C1265.74 1035.78 1266.66 1076.62 1261.03 1112.29C1248.55 1118.68 1232.39 1121.38 1218.13 1126.01C1207.64 1156.31 1192.71 1182.91 1192.4 1220.31C1192.18 1245.4 1189.82 1274.06 1187.26 1307.75C1185.98 1324.7 1179.01 1341.1 1178.68 1357.48C1177.6 1411.04 1204.85 1455.09 1206.13 1501.5C1223.99 1547.72 1212.83 1599.18 1207.85 1647.23C1206.42 1661.07 1209.54 1676.28 1207.85 1690.1C1205.78 1707 1195.39 1721.76 1195.85 1738.1C1196.16 1749.41 1204.07 1760.22 1204.42 1770.68C1204.67 1778.16 1200.53 1785.5 1200.99 1792.96C1202.19 1811.94 1218.66 1828.97 1221.58 1851.26C1225.29 1879.55 1221.24 1901.54 1213.01 1928.41C1205.77 1932.1 1200.99 1932.13 1185.55 1933.56C1134.66 1938.25 1072.33 1967.78 1017.4 1960.98C1009.19 1959.96 999.96 1953.32 989.959 1955.85C990.238 1957.86 993.079 1957.29 995.099 1957.57C977.28 1961.84 947.835 1955.27 921.329 1954.14C883.393 1952.53 841.385 1956.24 813.237 1947.28C844.817 1939.93 913.085 1945.79 948.787 1947.28C940.938 1939.2 929.77 1942.88 919.621 1942.14C887.483 1939.76 854.342 1934.3 821.826 1937.01C821.481 1931.51 829.314 1934.22 828.69 1928.42C824.207 1929.1 819.28 1929.31 816.686 1931.85C808.425 1917.74 768.256 1927.8 741.192 1924.99C752.556 1928.49 769.307 1926.62 780.655 1930.15C762.163 1930.82 741.865 1928.98 722.322 1924.99C770.341 1919.08 857.939 1921.3 919.621 1923.29C926.749 1919.54 925.927 1907.86 929.918 1901C1002.95 1871.77 1079.2 1847.15 1089.48 1758.7C1094.59 1714.72 1076.26 1670.5 1072.32 1623.26C1069.26 1586.54 1064.02 1558.28 1060.31 1518.67C1069.3 1521.11 1066.22 1535.62 1070.61 1542.68C1080.45 1554.56 1101.99 1554.76 1123.8 1554.67C1107.03 1549.72 1087.7 1547.3 1075.77 1537.52C1087.57 1534.31 1126.22 1553.59 1144.39 1539.25C1126.2 1533.06 1086.34 1539.28 1072.33 1523.82C1097.64 1532.32 1135.13 1534.68 1164.97 1530.68C1179.72 1528.71 1202.04 1526.28 1206.14 1511.82C1168.65 1526.89 1092.42 1539.54 1056.88 1508.39C1052.33 1490.65 1047.67 1473.03 1036.29 1462.1C1035.45 1470.43 1044.71 1469.66 1039.72 1477.52C1003.06 1498.83 944.583 1490.75 914.481 1468.96C911.41 1429.29 872.916 1394.91 883.59 1350.65C888.271 1331.28 900.194 1307.65 904.184 1285.5C909.505 1255.87 917.733 1230.06 928.21 1206.62C927.011 1202.11 920.393 1203 919.638 1198.06C914.366 1203.06 910.458 1209.45 904.201 1213.48C886.234 1215.73 872.67 1232.24 852.733 1235.77C830.218 1239.76 808.77 1239.71 790.968 1251.2C764.643 1235.59 732.406 1187.55 736.068 1148.33C736.462 1144.08 739.599 1138.93 739.5 1134.61C739.237 1123.72 732.586 1113.2 732.636 1102.04C732.8 1064.65 762.918 1028.3 782.395 997.448C808.047 956.797 826.933 924.647 861.322 903.149C863.506 893.893 865.23 884.194 868.186 875.709C866.462 873.559 861.272 880.272 857.889 874.003C856.149 850.6 841.746 839.834 842.452 813.987C837 834.304 843.06 857.952 847.593 874.003C838.659 866.913 838.018 851.568 837.296 836.273C830.316 859.085 838.495 883.275 847.593 899.719C839.414 898.176 838.462 889.413 835.588 882.569C833.289 902 828.822 919.248 820.151 932.295C807.423 925.977 820.397 906.661 823.583 899.719C822.827 794.95 852.913 720.984 883.64 647.676C878.647 679.382 867.891 722.117 876.775 764.261C870.666 750.36 869.993 731.028 869.911 711.105C854.95 734.442 860.106 771.761 869.911 796.837C862.553 787.614 858.415 775.191 857.906 759.124C854.079 776.668 861.355 797.953 866.478 812.28C879.583 762.324 896.597 708.167 895.645 652.829C895.3 632.233 884.986 614.87 878.483 596.243C874.378 584.443 872.505 571.413 868.186 560.237C863.44 547.961 853.849 533.995 847.593 519.094C837.345 494.674 828.329 478.854 811.562 464.231C785.171 447.738 751.521 438.498 724.063 423.088C723.652 414.111 727.906 409.779 732.636 405.939C738.334 409.565 727.479 410.911 729.203 416.228C791.461 436.201 838.544 466.529 871.602 512.234V522.524C894.774 554.805 906.319 598.705 928.227 632.249C943.286 613.59 960.628 597.195 984.851 587.676C971.023 562.764 962.352 539.92 947.112 515.664C942.777 508.755 935.239 502.912 931.675 495.084C918.045 465.15 932.579 431.442 926.535 393.926C924.449 380.994 912.609 368.652 911.098 352.783C919.112 358.264 929.031 369.965 933.4 380.222C944.337 405.889 927.635 455.55 940.264 488.241C943.943 497.776 954.782 506.736 960.858 517.387C978.216 547.797 993.358 584.246 1010.62 613.409C1013.21 607.107 1012.9 588.809 1017.48 580.833C1036.55 547.666 1076.36 481.758 1106.71 453.958C1114.67 446.655 1122.32 439.155 1130.73 431.671C1142.29 421.365 1168.85 424.089 1180.48 431.671C1181.99 434.707 1185.91 436.677 1182.2 440.238C1227.11 458.34 1250.52 489.931 1267.97 539.673C1273.28 554.755 1282.54 573.907 1278.27 585.969C1270.86 606.828 1240.47 630.46 1213.07 633.972C1205.67 634.924 1194.24 630.116 1185.62 632.265C1174.48 635.055 1160.03 662.216 1147.88 676.838C1135.72 691.461 1116.95 709.234 1110.12 719.704C1100.79 734.031 1099.25 751.969 1082.66 757.417C1086.87 763.506 1090.64 770.005 1096.39 774.567C1100.78 771.711 1089.69 769.955 1091.25 764.277C1104.08 783.462 1127.17 792.406 1141.01 810.573C1132.28 806.717 1126.82 799.61 1118.71 795.147C1119.94 801.941 1137.07 807.652 1137.58 820.863C1119.73 798.691 1094.5 783.905 1080.96 757.434C1053.07 762.718 1039.77 782.576 1005.46 781.443C962.829 761.061 946.784 718.523 929.967 668.288C925.566 655.176 917.289 644.722 911.098 632.282C892.13 594.241 883.361 551.982 861.338 520.833C857.824 529.712 866.133 539.952 869.911 549.98C881.078 579.536 888.238 620.105 904.233 646.002C905.613 651.943 901.672 652.599 902.509 657.998C909.111 655.438 910.031 647.216 912.806 640.849C915.746 668.37 900.522 692.577 899.077 721.428C906.845 706.789 909.374 678.151 923.103 675.132C921.477 686.652 916.961 695.284 914.53 706.001C915.975 709.152 920.738 695.449 926.535 702.571C926.781 718.244 919.326 726.22 916.238 738.577C919.999 741.105 919.818 725.087 929.967 728.287C931.413 742.943 922.742 756.334 917.963 771.153C904.545 812.772 896.482 864.385 883.64 908.318C882.605 911.272 875.494 908.187 875.051 911.748C870.518 928.931 878.089 958.208 864.754 966.611C868.892 975.145 876.611 989.193 866.462 997.48C878.007 1013.38 890.619 1028.2 905.925 1040.35C912.133 1039.12 909.292 1028.84 919.654 1031.78C922.134 1051.8 912.264 1073.25 912.79 1096.93C918.34 1079.6 920.639 1059.06 924.794 1040.35C934.943 1038.8 940.823 1037.38 945.388 1026.63C908.257 1029.43 879.616 1023.77 873.326 995.757C887.68 1007.13 900.719 1019.83 929.951 1016.34C919.868 1002.98 885.068 999.466 885.348 970.041C879.534 976.605 890.176 989.439 881.915 994.05C864.77 974.833 878.483 946.737 883.64 925.468C899.553 859.889 922.2 787.926 938.54 721.444C943.155 723.479 938.54 730.388 938.54 733.441C942.202 734.245 941.808 730.995 941.972 728.304C950.594 734.13 946.948 739.349 941.972 747.16C955.455 787.401 982.798 813.806 1010.6 839.752C985.196 824.556 966.212 802.958 952.269 776.323C953.977 799.758 973.438 820.321 984.868 839.752C998.4 839.375 1012.49 838.439 1014.03 850.042C1009.39 854.194 1004.51 848.155 996.872 850.042C993.046 856.229 1011.54 863.893 1008.89 868.899C995.92 863.581 995.099 846.103 971.155 851.749C979.514 865.666 987.889 879.599 1002.03 887.755C980.056 889.691 980.647 854.26 957.426 851.749C967.838 874.511 991.847 898.504 1012.33 916.901C982.667 908.171 970.219 864.681 941.972 848.319C956.375 883.078 984.523 904.101 1008.89 928.898C978.151 923.039 941.808 907.941 931.692 875.742C939.131 893.45 955.061 902.673 971.155 911.748C955.586 893.007 939.065 875.233 924.827 855.162C947.966 871.475 964.405 909.336 995.164 923.745C972.009 895.435 936.06 865.091 924.827 819.156C916.37 838.128 914.826 864.024 905.958 882.602C920.722 943.291 973.257 966.233 1027.78 987.19C998.761 981.906 975.868 970.484 955.718 956.321C969.825 975.391 1003.41 989.816 1026.05 1006.05C988.333 991.736 949.97 963.197 924.827 930.605C944.058 966.824 974.866 991.474 1007.19 1014.61C1073.65 1008.44 1107.18 969.368 1189.05 978.607C1198.44 964.559 1221.58 964.248 1219.94 939.171C1210.25 943.783 1204.16 951.972 1197.64 959.751C1206.34 957.601 1210.07 950.462 1216.51 946.031C1214.04 953.892 1200.46 965.413 1189.05 970.041C1190.43 956.846 1201.77 951.381 1204.48 944.324C1199.48 917.886 1191.03 894.894 1182.18 872.312C1175.61 901.409 1191.54 947.574 1178.75 971.747C1166.98 939.516 1172.13 890.332 1170.18 848.303C1143.2 854.604 1097.02 860.923 1074.09 846.596C1102.6 847.022 1139.68 842.87 1170.18 839.736C1172.2 783.363 1162 730.257 1165.02 678.562C1166.37 671.488 1156.81 675.345 1158.16 668.272C1199.46 676.822 1250.99 658.704 1293.69 663.135C1286.15 679.103 1259.65 673.638 1238.79 675.132C1214.06 676.904 1190.8 684.601 1168.45 676.855C1177.35 726.252 1180.93 780.984 1180.46 839.736C1204.53 850.452 1255.36 830.201 1269.68 853.456C1245.06 854.522 1207.97 853.472 1182.18 850.026C1179.59 884.62 1205.4 905.676 1207.92 940.894C1210.31 914.505 1194.66 891.283 1192.48 863.745C1201.59 886.081 1208.61 910.501 1213.07 937.465C1224.36 918.789 1204.17 890.02 1206.21 863.745C1212.96 891.53 1222.93 920.495 1223.37 949.478C1231.19 924.844 1221.24 888.92 1223.37 858.609C1230.63 881.65 1227.61 914.948 1230.24 942.618C1248.55 937.464 1237.66 888.329 1243.96 865.469C1246.21 888.231 1244.44 921.743 1242.26 949.478C1256.22 931.836 1246.56 892.055 1250.83 868.899C1254.97 900.457 1252.72 940.517 1247.4 968.334C1239.02 967.317 1247.54 958.34 1245.69 952.907C1237.74 953.547 1244.56 968.925 1235.39 968.334C1233.98 963.493 1237.81 963.887 1237.1 959.767C1229.86 959.997 1219.12 971.501 1207.93 973.487C1214.06 967.612 1224.09 965.643 1225.09 954.631C1217.61 958.028 1203.42 969.532 1195.93 978.624C1220.17 978.41 1241.21 981.381 1261.13 985.484C1264.16 912.159 1289.24 863.302 1293.72 784.89C1295.65 751.378 1293.64 714.781 1298.88 683.731C1301.44 668.583 1306.4 647.085 1307.45 623.715C1309.9 569.854 1303.92 516.616 1295.45 465.971C1299.18 469.68 1300.31 475.982 1302.31 481.397C1305.99 454.22 1292.76 406.119 1280.01 381.945C1277.29 376.776 1271.18 367.454 1262.85 366.519C1263.97 359.692 1258.32 359.626 1259.42 352.799C1222.14 342.526 1180.29 346.53 1158.19 371.656C1179.14 366.191 1203.07 347.712 1223.39 352.799C1221.43 366.289 1203.75 364.041 1194.22 369.949C1206.24 370.868 1219.56 373.723 1235.39 375.086C1237.58 379.549 1239.15 380.255 1237.1 385.375C1261.13 400.851 1285.66 424.795 1288.57 455.665C1274.13 453.367 1271.31 433.526 1262.83 421.382C1253.69 408.269 1242.73 397.799 1233.67 387.082C1119.55 392.481 1055.8 448.23 1003.75 515.68C999.073 527.004 994.13 538.065 984.884 544.827C980.631 520.128 1006.48 497.021 1010.62 469.384C998.35 477.721 986.674 501.452 978.019 519.11C970.826 514.351 984.243 504.75 983.16 495.101C975.326 501.55 977.116 517.633 962.582 517.387C966.392 495.823 983.225 473.028 996.889 455.665C995.624 462.41 993.309 468.088 991.749 474.521C1001.34 460.67 1005.1 441.009 1019.21 431.655C1023.43 415.293 1030.44 401.737 1039.8 390.512C1047.24 397.93 1063.78 396.272 1074.11 400.802C1083.07 398.34 1085.42 389.248 1092.98 385.375C1082.37 371.984 1076.69 353.652 1060.38 345.939C1040.61 346.267 1020.09 347.334 1008.91 339.079C1006.66 332.351 1003.39 322.799 1007.19 315.07C1005.23 314.282 997.316 314.988 995.181 309.933C991.289 299.643 997.152 292.209 1003.75 287.647C1000.26 284.282 993.013 284.66 991.749 279.08C989.844 269.758 997.579 270.037 996.889 261.93C989.564 257.827 978.151 257.795 974.587 249.934C973.569 236.345 983.619 233.818 988.316 225.924C984.457 213.78 982.782 199.453 981.452 184.781C960.874 189.721 960.135 180.449 953.993 159.065C952.088 152.418 946.669 145.444 947.129 140.208C948.689 122.648 963.551 124.536 981.435 124.782C1000.65 82.6051 1044.86 24.8705 1104.96 40.773C1147.12 35.1439 1185.34 60.6798 1209.62 81.9158C1240.66 109.044 1251.45 141.751 1255.95 183.074C1258.53 206.756 1287.11 217.686 1290.26 239.66C1278.3 254.069 1261.4 234.556 1250.8 231.094C1245.59 233.211 1252.65 236.985 1250.8 241.383C1268.6 246.455 1291.57 246.356 1302.26 258.533C1302.53 284.955 1324.09 318.582 1314.27 349.402C1296.99 349.287 1301.03 370.458 1285.1 371.688C1294.51 385.392 1298.8 403.838 1305.7 428.274C1310.02 443.619 1317.96 459.702 1317.7 471.14C1317.5 479.691 1309.75 487.945 1309.13 496.857C1307.78 515.631 1318.29 544.564 1319.43 568.869C1323.32 652.435 1308.49 727.172 1303.99 807.193C1301.29 855.113 1279.55 894.795 1274.82 939.204C1272.7 959.062 1276.71 979.034 1269.68 997.497C1260.52 997.513 1254.74 994.149 1247.38 992.36C1208.89 1015.61 1168.93 1037.41 1110.12 1040.36C1106.18 1043.86 1109.5 1054.61 1108.41 1060.94C1113.83 1061.78 1114.47 1057.86 1120.42 1059.24C1121.19 1054.46 1111.07 1060.58 1111.85 1055.81C1117.51 1049.47 1130.42 1050.37 1137.58 1045.52C1136.82 1047.04 1136.07 1048.58 1134.15 1048.95L1134.07 1048.85ZM986.51 765.951C991.699 769.332 996.757 772.86 1001.95 776.241C999.812 770.891 989.761 764.491 986.51 765.951ZM1163.23 85.2801C1188.29 103.07 1205.09 128.688 1219.86 152.156C1227.49 164.316 1228.53 177.987 1235.29 189.869C1240.22 198.517 1253.57 201.964 1254.16 212.155C1247.02 217.604 1239.58 205.492 1235.29 208.725C1247.61 215.848 1256.86 226.039 1273.03 229.305C1246.36 212.565 1250.65 181.056 1242.14 148.726C1236.08 125.668 1216.13 101.265 1199.25 87.0033C1170.41 62.6327 1115.08 31.2381 1068.85 52.7203C1142.52 51.2597 1203.35 86.0186 1223.27 141.882C1206.98 120.433 1184.32 96.2428 1163.22 85.2966L1163.23 85.2801ZM1012.24 90.4169C1030 78.4367 1044.86 63.5681 1065.44 54.4107C1040 58.7104 1027.76 76.2048 1012.24 90.4169ZM1065.44 68.1304C1071.74 55.8384 1084.57 64.5856 1092.88 59.5638C1085.8 58.6448 1079.38 57.0529 1072.28 56.1339C1074.47 63.5517 1060.85 64.0276 1065.42 68.1304H1065.44ZM1067.14 57.8406C1058.93 67.3591 1041.48 76.7463 1041.41 88.6937C1048.62 78.1577 1063.99 66.7027 1067.14 57.8406ZM1101.47 68.1304C1101.98 64.6349 1106.1 64.7661 1106.61 61.2706H1099.74C1100.04 63.8307 1099.13 67.6053 1101.45 68.1304H1101.47ZM1111.76 69.8372C1120.48 71.1173 1124.92 68.1304 1127.2 62.9773C1118.99 62.206 1114.19 64.8318 1111.76 69.8372ZM1156.37 80.127C1148.14 76.9268 1145.58 68.0484 1135.77 66.4073C1136.53 75.975 1151.8 80.0614 1156.37 80.127ZM1051.71 68.1304C1034.84 74.7113 1025.04 88.3326 1012.24 98.9999C1010.75 103.234 1012.69 110.865 1007.09 110.996C1006.61 107.993 1011.92 102.446 1007.09 100.707C1005.38 108.141 998.991 110.898 998.515 119.563C1028.26 114.426 1030.65 81.9487 1051.71 68.1304ZM1056.85 81.8502C1058.98 77.6161 1072 75.3842 1067.14 69.8536C1066.45 75.5319 1053.43 77.7638 1056.85 81.8502ZM1149.5 85.2801C1147.94 80.4881 1138.11 75.056 1135.77 76.7135C1139.96 79.9465 1144.08 83.2616 1149.5 85.2801ZM1192.4 102.43C1186.39 90.1379 1170.13 78.9782 1159.8 76.7135C1171.05 84.9027 1181.9 93.4857 1192.4 102.43ZM1084.31 104.137C1097.64 96.8993 1111.3 89.9737 1122.04 80.127C1104.67 82.2112 1090.12 96.2264 1084.31 104.137ZM1063.71 93.8468C1065.75 90.6302 1076.37 87.2003 1072.28 83.557C1068.7 85.2309 1059.93 90.5153 1063.71 93.8468ZM1063.71 107.567C1069.11 102.069 1081.12 94.1422 1080.87 88.7101C1076 94.733 1063.12 101.79 1063.71 107.567ZM1120.34 100.707C1126.94 99.2953 1135.02 99.3774 1135.77 92.14C1129.02 87.5121 1125.79 98.606 1120.34 100.707ZM1183.81 116.133C1176.78 105.991 1162.18 94.3391 1152.93 92.1236C1163.36 98.8686 1172.58 115.92 1183.81 116.133ZM1101.45 104.137C1105 101.396 1110.3 100.411 1111.75 95.57C1107.53 96.5875 1098.43 101.56 1101.45 104.137ZM1118.61 116.133C1133.65 114.131 1147.91 124.782 1156.35 114.426C1148.48 110.849 1145.13 102.758 1137.48 98.9999C1133.33 106.844 1123.13 108.65 1118.61 116.15V116.133ZM1065.42 112.703C1070.79 111.21 1074.9 108.453 1077.42 104.137C1072.05 105.63 1067.95 108.387 1065.42 112.703ZM1108.31 116.133C1115.1 115.986 1123.95 108.994 1122.04 105.843C1118.32 110.11 1111.04 110.849 1108.31 116.133ZM1154.64 119.563C1158.09 128.113 1167.7 132.43 1175.24 124.7C1168.04 121.877 1163.72 116.035 1154.64 119.563ZM995.082 122.993C996.347 144.246 956.49 124.437 957.344 145.279C961.416 146.313 967.213 147.593 971.073 145.279C969.71 145.083 965.867 139.618 969.348 140.143C990.517 141.85 1008.38 146.839 1024.25 153.863C1023.43 142.687 1005.69 148.414 1001.95 140.143C1008.66 136.073 1011.93 127.67 1010.52 119.563C1006.81 123.338 1000.5 125.553 995.082 122.993ZM1111.75 128.13C1121.08 128.31 1128.53 126.604 1134.05 122.993C1125.82 123.732 1111.7 115.953 1111.75 128.13ZM1134.05 133.266C1143.16 136.828 1149.45 132.955 1158.07 131.56C1155.41 118.972 1137.96 127.309 1134.05 133.266ZM1020.82 133.266C1026.37 132.528 1035.66 135.531 1036.25 129.837C1031.77 130.591 1018.24 131.133 1020.82 133.266ZM1156.37 143.556C1165.92 146.921 1178.13 139.355 1183.81 133.266C1176.01 125.406 1162.99 139.109 1156.37 143.556ZM1149.5 140.126C1156.6 140.356 1159.32 136.237 1163.23 133.266C1158.75 135.63 1150.41 134.169 1149.5 140.126ZM1108.33 138.403C1116.35 137.812 1119.5 142.112 1125.49 143.54C1123.37 138.912 1110.25 132.479 1108.33 138.403ZM1072.3 136.696H1060.3C1060.15 142.178 1073.65 144.705 1072.3 136.696ZM1074.01 138.403C1073.5 142.916 1076.39 144.032 1080.87 143.54V136.68C1077.88 136.549 1075.54 137.057 1074.01 138.387V138.403ZM1082.58 140.126V145.263C1087.43 143.852 1087.03 147.676 1091.15 146.986C1090.78 143.737 1093.09 143.212 1092.86 140.126C1090.68 137.78 1084.77 137.78 1082.56 140.126H1082.58ZM1020.82 141.833C1020.06 139.01 1007.86 139.01 1007.09 141.833C1011.57 140.914 1019.91 150.072 1020.82 141.833ZM1024.25 146.986C1030.26 147.282 1037.11 148.398 1034.55 140.126C1031 141.144 1023.28 138.009 1022.54 141.833C1024.54 142.129 1024.4 144.541 1024.25 146.986ZM1034.55 155.553C1035.65 149.317 1031 148.808 1025.96 148.693C1025.79 158.573 1035.04 159.048 1043.12 160.69C1042.43 152.566 1046.19 148.89 1044.84 140.11H1037.98C1033.86 142.276 1038.93 153.633 1034.55 155.536V155.553ZM1161.51 160.69C1169.65 153.387 1191.63 152.73 1188.95 140.11C1178.46 144.492 1164.66 154.667 1161.51 160.69ZM1051.71 162.396C1054.35 157.03 1055.04 149.727 1055.14 141.817H1048.27C1047.68 146.002 1041.74 163.775 1051.71 162.396ZM1094.6 148.677H1098.03C1100.45 148.234 1099.99 144.918 1101.47 143.54C1098.23 143.917 1097.69 141.603 1094.6 141.817V148.677ZM1140.93 146.97C1135.66 146.527 1133.21 143.245 1128.93 141.817C1129.07 146.346 1138.15 150.728 1140.93 146.97ZM1055.14 164.12C1060.39 162.889 1061.4 165.876 1065.44 165.843C1064.52 156.915 1068.72 153.124 1068.87 145.263C1064.83 145.296 1063.81 142.309 1058.57 143.556C1056.5 149.481 1055.43 156.423 1055.14 164.136V164.12ZM1067.14 165.843C1075.19 166.942 1079.43 171.866 1089.45 170.979C1089.45 163.43 1101.94 153.14 1091.17 150.4C1088.15 156.538 1087.95 165.465 1082.6 169.256C1082.96 161.543 1090.41 153.945 1087.75 148.677H1080.89C1078.89 154.109 1079.53 162.183 1074.02 164.103C1075.31 158.54 1077.13 153.485 1079.17 148.677C1076.64 147.79 1074.85 146.133 1072.3 145.247C1069.34 150.876 1068.36 158.441 1067.16 165.826L1067.14 165.843ZM1101.47 150.416C1105.72 150.662 1109.79 150.728 1110.04 146.986C1107.48 144.262 1100.27 144.475 1101.47 150.416ZM1152.93 157.276C1156.81 158.802 1171.13 148.512 1170.1 145.279C1165.48 150.4 1153.49 148.119 1152.93 157.276ZM1173.53 165.843C1186.26 161.986 1196.73 155.898 1207.83 150.416C1197.88 139.585 1182.27 159.213 1173.53 165.843ZM965.932 165.843C964.586 159.18 961.121 154.634 957.344 150.416C959.593 156.177 959.38 164.399 965.932 165.843ZM986.526 155.553C984.49 155.044 980.039 148.644 977.954 153.83C978.594 155.717 984.818 160.345 986.526 155.553ZM1091.19 172.703C1101.68 171.751 1101.38 160.05 1106.62 153.846H1098.05C1097.21 161.592 1092.57 165.515 1091.19 172.703ZM1098.05 174.409C1102.03 173.868 1104.64 174.688 1106.62 176.116C1110.04 169.256 1113.5 162.413 1116.92 155.536C1114.56 155.602 1113.16 154.732 1111.78 153.813C1105.28 158.737 1102.16 167.057 1098.05 174.393V174.409ZM1120.35 177.839C1122.54 180.219 1128.45 178.89 1130.65 181.269C1133.46 174.36 1138.14 169.322 1140.95 162.413C1136.48 161.724 1135.77 157.292 1130.65 157.276C1128.61 165.531 1122.96 170.159 1120.35 177.856V177.839ZM1128.93 155.553H1118.63C1118.14 164.152 1107.69 170.192 1111.76 177.839C1123.75 176.674 1124.06 163.841 1128.93 155.553ZM1223.29 184.699C1218.36 174.18 1217.2 159.935 1206.13 155.553C1200.66 164.415 1218.44 175.181 1223.29 184.699ZM1187.26 172.703C1192.51 175.082 1199.69 173.753 1204.42 170.979C1200.64 169.617 1202.19 162.922 1197.55 162.413C1195.35 167.074 1188.77 167.353 1187.26 172.703ZM1146.09 186.422C1154.71 185.339 1158.49 179.382 1161.52 172.703C1158.26 171.964 1157.22 169.01 1152.95 169.273C1151.85 175.739 1141.73 179.94 1146.09 186.422ZM1151.23 167.566C1147.96 166.827 1146.92 163.873 1142.65 164.136C1141.49 171.045 1131.47 176.083 1135.79 182.992C1145.3 182.205 1148.02 174.639 1151.23 167.566ZM972.797 170.996C992.126 170.438 972.649 165.4 965.932 172.719C969.168 172.867 969.726 171.094 972.797 170.996ZM1164.96 193.282C1174.86 193.463 1179.62 188.49 1182.12 181.286C1173.4 176.149 1168.09 187.325 1164.96 193.282ZM1194.12 191.575C1193.42 186.554 1188.24 186.012 1185.53 183.009C1182.68 188.72 1175.3 189.934 1173.53 196.729C1179.05 196.351 1180.79 199.765 1187.26 198.435C1186.45 193.069 1191.58 193.61 1194.12 191.575ZM1188.97 201.865C1195.5 201.537 1200.25 199.436 1200.97 193.299C1196.19 189.065 1185.16 197.516 1188.97 201.865ZM1173.53 176.149C1168.68 177.56 1169.08 173.737 1164.96 174.442C1161.49 179.562 1156.27 182.894 1152.95 188.162C1163.53 193.184 1170.29 183.715 1173.54 176.165L1173.53 176.149ZM1010.54 184.716C1008.29 184.683 1008.35 179.956 1010.54 179.579C1014.69 180.564 1014.35 186.061 1015.68 189.869C1025.37 186.406 1036.37 184.256 1046.57 181.302C1033.26 178.578 1016.73 179.103 1001.96 177.872C1001.32 182.648 1007.83 188.966 1010.54 184.732V184.716ZM1202.69 179.579C1202.37 185.717 1213.76 188.983 1216.42 186.439C1212.07 184.174 1209.89 173.638 1202.69 179.579ZM984.802 181.302C986.346 187.194 985.804 195.153 991.666 196.729C989.712 186.209 994.885 182.795 1000.24 179.579C993.604 178.66 991.863 182.648 984.802 181.302ZM1022.54 208.742C1040.1 248.621 1001.21 258.894 989.942 227.598C989.712 235.361 985.738 239.398 984.802 246.455C989.63 250.196 1000.22 248.194 1001.96 255.021C1001.11 261.028 999.401 266.181 1000.24 273.878C1007.38 278.752 1020.41 277.734 1019.11 291.027C1016.15 298.363 1002.18 294.687 1001.95 304.747C1006.4 306.585 1013.44 305.83 1015.68 309.884C1014.08 315.726 1010.86 319.944 1012.24 328.74C1037.81 343.888 1083.07 337.57 1103.17 321.88C1120.37 308.456 1121.57 288.779 1134.07 275.584C1130.34 282.067 1134.25 285.349 1139.21 287.581C1149.73 271.219 1140.19 262.259 1140.91 241.285C1115.46 247.275 1091.09 263.506 1065.42 263.571C1087.29 257.417 1108.43 250.541 1128.89 242.992C1128.93 238.955 1125.94 237.954 1127.18 232.702C1107.36 240.333 1084.44 253.987 1063.7 254.988C1074.9 251.591 1087.74 246.208 1099.73 241.269C1110.07 237.002 1128.86 235.41 1127.17 218.982C1102.7 225.957 1079.31 243.156 1056.83 246.422C1079.02 236.575 1100.78 226.318 1123.75 217.275C1124.31 210.99 1121.85 207.741 1120.32 203.556C1096.29 210.465 1071.92 235.114 1044.83 227.565C1084.57 228.911 1106 196.138 1144.35 194.989C1111.73 181.187 1086.31 217.669 1051.69 212.139C1077.79 207.347 1100.63 199.322 1120.32 188.129C1093.17 186.554 1072.25 208.134 1049.97 200.126C1059.57 200.963 1071.09 197.763 1080.86 194.989C1088.71 192.757 1103.85 189.229 1101.45 186.422C1077.52 196.236 1042.66 195.104 1022.52 208.709L1022.54 208.742ZM1233.57 205.312C1227.51 202.752 1222.14 190.509 1216.41 193.315C1223.22 195.12 1227.38 208.577 1233.57 205.312ZM1195.83 203.605C1203.96 210.448 1216.83 203.933 1206.13 196.745C1200.82 197.155 1199.46 201.521 1195.83 203.605ZM1127.2 208.742C1131.96 208.364 1132.06 203.309 1135.77 201.882H1125.48C1125.1 205.131 1127.41 205.673 1127.18 208.742H1127.2ZM1209.56 207.035C1210.99 211.975 1220.87 217.341 1225 213.895C1219.95 211.86 1215.6 202.669 1209.56 207.035ZM1151.23 219.031C1152.87 215.536 1154.72 212.254 1156.37 208.742C1153.12 209.119 1152.57 206.805 1149.5 207.035C1150.52 210.58 1147.38 218.293 1151.23 219.031ZM1195.83 213.895C1191.35 215.322 1186.42 208.709 1183.83 213.895C1186.9 215.634 1194.35 220.459 1195.83 213.895ZM1195.83 217.325C1197.51 223.134 1210.3 226.794 1214.7 224.185C1207.39 222.511 1202.86 214.223 1195.83 217.325ZM1228.43 229.321C1225.74 228.435 1219.25 222.724 1216.42 227.598C1220.81 226.794 1226.15 233.67 1228.43 229.321ZM1202.69 236.181V241.318C1207.92 240.235 1217.47 243.517 1219.86 239.595C1214.99 237.839 1206.49 233.621 1202.69 236.165V236.181ZM1171.82 260.191C1178.95 260.388 1179.13 244.715 1176.96 241.334C1175.4 247.767 1173.07 253.446 1171.82 260.191ZM1223.29 268.757C1229.87 265.623 1233.85 259.879 1237.02 253.331C1226.36 251.772 1219.68 261.569 1223.29 268.757ZM1187.26 277.324C1194.37 271.285 1201.76 265.524 1204.42 255.038H1192.41C1190.12 260.798 1185.19 272.893 1187.27 277.324H1187.26ZM1238.73 268.757C1244.49 268.79 1250.16 268.757 1249.02 261.897C1243.93 262.521 1240.55 264.868 1238.73 268.757ZM1261.03 273.894C1263.56 274.78 1265.35 276.438 1267.89 277.324V268.757C1263.61 268.462 1262.52 271.383 1261.03 273.894ZM1158.09 273.894C1155.99 280.377 1150.62 283.577 1151.23 292.751C1159.8 290.716 1171.29 274.37 1168.39 272.171C1166.66 277.833 1161.46 278.013 1158.09 273.878V273.894ZM1293.63 292.751C1300.08 285.316 1277.61 276.602 1278.19 280.754C1284.43 283.675 1290.29 286.957 1293.63 292.751ZM1250.73 296.18C1256.87 294.884 1261.63 292.209 1262.73 285.891C1258.63 284.857 1254.9 283.429 1249.01 284.184C1249.02 288.746 1248.35 293.981 1250.71 296.18H1250.73ZM1154.66 297.904C1157.89 297.526 1158.44 299.84 1161.52 299.61C1161.29 295.376 1161.26 291.356 1163.23 289.321C1158.27 290.076 1155.41 292.931 1154.66 297.887V297.904ZM1214.7 316.76C1226.1 314.725 1238.77 305.748 1235.29 294.474C1222.43 295.901 1218.9 306.684 1214.7 316.76ZM1120.34 316.76C1124.31 311.591 1133.59 311.722 1135.77 304.764C1129.55 300.382 1119.58 314.348 1120.34 316.76ZM1249.02 309.9C1253.51 315.923 1266.17 306.634 1261.03 303.04C1259.61 307.914 1248.61 303.221 1249.02 309.9ZM1159.8 313.33C1135.82 320.814 1122.44 347.991 1096.31 347.613C1117.84 339.408 1136.17 328.018 1149.5 311.607C1119.88 304.632 1106.52 339.605 1077.44 344.183C1086.74 353.751 1092.66 366.699 1099.74 378.466C1125.33 357.755 1155.97 342.083 1190.67 330.464C1182.35 326.213 1183.38 312.608 1173.51 309.884C1152.66 319.911 1136.63 343.888 1116.89 349.32C1130.07 336.207 1150.55 330.381 1159.78 313.314L1159.8 313.33ZM1194.11 318.467C1192.17 324.342 1206.59 323.538 1202.68 316.76C1197.83 315.349 1198.23 319.173 1194.11 318.467ZM1295.33 339.047C1295.25 336.683 1296.14 335.288 1297.04 333.91C1286.96 332.794 1297.73 326.607 1293.61 323.62C1289.68 327.92 1289.57 336.142 1295.33 339.047ZM1214.7 332.187C1224.78 330.677 1221.96 342.083 1233.57 339.047C1236.77 335.994 1232.17 334.681 1233.57 328.757C1228.4 331.021 1218.87 328.921 1214.7 332.187ZM1274.76 345.906C1275.17 354.276 1281.92 352.504 1288.49 351.043C1288.07 345.742 1283.71 344.38 1281.62 340.753C1280.13 343.264 1279.04 346.185 1274.76 345.89V345.906ZM1082.6 402.492C1089.49 401.311 1092.39 404.133 1098.03 404.199C1119.63 385.769 1149.11 366.076 1166.66 349.336C1137.55 365.961 1107.46 381.617 1082.6 402.492ZM1037.99 397.356C1036.2 401.278 1036.89 407.695 1034.56 411.075C1045.35 419.15 1063.66 419.708 1070.59 431.655C1059.29 428.455 1042.07 413.586 1034.56 417.935C1037.55 424.664 1069.62 446.212 1075.73 424.795C1062.68 420.692 1045.45 411.633 1041.43 404.215C1052.87 410.501 1069.54 420.676 1080.89 421.365C1072.12 412.405 1056.67 410.14 1046.58 402.509C1062.86 407.251 1046.93 396.535 1038.01 397.372L1037.99 397.356ZM1089.46 412.782C1083.24 414.866 1075.91 409.352 1074.02 412.782C1078.79 415.785 1086.72 421.595 1089.46 412.782ZM1031.13 431.639C1043.58 430.276 1054.48 446.08 1062.02 438.498C1050.49 435.151 1044.25 426.535 1031.13 424.779V431.639ZM1053.43 441.928C1045.02 439.467 1037.81 435.807 1029.41 433.362C1029.96 443.192 1051.26 454.713 1053.43 441.928ZM1144.36 438.498H1154.66C1155.6 431.622 1144.71 435.938 1144.36 438.498ZM1024.26 452.218C1031.75 451.824 1038.57 458.536 1044.86 453.925C1042.61 446.458 1034.78 444.554 1027.7 441.928C1026.33 445.129 1024.82 448.214 1024.26 452.218ZM1140.93 448.788C1170.72 459.587 1200.23 470.681 1219.86 491.654C1201.81 468.055 1182.95 438.482 1140.93 448.788ZM995.099 479.658C998.301 466.857 1012.8 465.347 1013.97 450.511C1003.72 456.337 996.495 468.35 995.099 479.658ZM1022.56 462.508C1029.16 463.985 1037.83 466.25 1037.99 457.371C1031.7 457.946 1028.47 455.468 1024.26 453.941C1024.97 458.077 1021.13 457.667 1022.56 462.508ZM1233.59 517.371C1220.51 481.463 1178.23 475.161 1144.38 462.508C1141.59 461.474 1132.85 453.679 1130.65 453.941C1129.86 454.04 1121.32 462.689 1116.92 465.938C1090.99 485.188 1080 498.219 1060.3 531.09C1043 559.925 1022 588.284 1019.12 625.389C996.232 634.514 991.42 670.848 986.526 692.248C994.261 672.916 1003.52 646.658 1012.26 633.956C1015.51 633.578 1016.05 635.892 1019.12 635.663C1016.14 625.57 1020.9 631.97 1025.99 625.373C1043.23 635.581 1065.26 650.137 1082.61 654.519C1066.83 641.144 1038.96 630.706 1031.15 615.083C1041.23 622.156 1054.5 635.154 1065.45 635.663C1053.89 621.5 1037.78 611.866 1029.42 594.52C1040.8 598.59 1047.16 616.773 1056.88 616.806C1047.63 609.29 1041.69 600.017 1039.72 589.367C1070.71 608.125 1103.8 633.923 1142.65 639.093C1127.36 628.901 1112.39 616.1 1092.89 608.223C1074.53 600.805 1050.18 595.685 1043.13 575.647C1060.84 574.728 1092.32 592.6 1101.47 594.503C1085.01 581.801 1063.19 574.465 1048.27 560.22C1068.72 563.306 1087.8 573.595 1106.61 580.8C1125.95 588.201 1148.93 590.483 1161.51 606.516C1134.59 592.846 1098.03 579.651 1070.58 572.217C1099.92 590.335 1133.26 604.448 1163.23 621.943C1126.68 612.753 1092.88 591.664 1060.28 584.23C1089.77 602.2 1125.13 614.295 1158.07 628.803C1145.71 633.431 1130.4 617.824 1120.34 620.236C1130.49 627.244 1143.98 630.903 1147.79 644.246C1120.47 641.833 1102.85 629.722 1082.6 620.236C1094.59 637.977 1125.53 645.92 1130.63 664.809C1104.47 648.086 1078.61 621.926 1053.43 609.946C1063.96 627.687 1084.32 642.523 1099.76 657.949C1102.09 660.279 1121.09 687.243 1125.49 687.095C1127.41 687.03 1140.37 669.864 1144.36 664.809C1160.59 644.229 1164.35 633.808 1182.1 620.236C1204.88 602.807 1238.17 593.453 1245.57 565.373C1238.74 564.258 1244.26 575.483 1237 573.94C1234.39 553.738 1204.76 539.509 1188.97 532.797C1203.5 543.432 1221.04 551.046 1228.43 568.803C1200.69 546.172 1170.46 516.205 1132.36 503.651C1122.13 500.27 1108.33 504.931 1101.47 493.361C1110.48 491.277 1117.59 500.008 1123.77 495.068C1115.51 493.706 1101.81 490.227 1104.9 483.071C1167.63 486.107 1198.16 521.326 1237.02 548.224C1238.36 540.592 1234.73 537.934 1235.31 531.074C1208.69 497.891 1169.8 479.182 1120.35 469.352C1171.43 457.437 1203.96 502.207 1233.59 517.354V517.371ZM1173.54 464.215C1163.56 461.031 1148.32 454.023 1139.22 455.648C1149.09 458.963 1165.25 465.052 1173.54 464.215ZM1017.42 486.501C1020.47 478.115 1028.26 474.472 1031.15 465.922C1025.89 467.169 1026.1 462.968 1020.85 464.198C1022.21 473.06 1014.07 481.348 1017.42 486.485V486.501ZM1137.51 469.352C1121.12 468.449 1150.36 474.357 1158.11 476.211C1156.12 471.419 1139.48 469.466 1137.51 469.352ZM1238.74 501.928C1234.04 495.199 1232.63 485.172 1223.3 483.071C1222.14 488.159 1233.98 502.88 1238.74 501.928ZM1137.51 495.068C1132.09 495.248 1125.77 487.486 1122.08 491.638C1126.49 492.458 1134.48 498.547 1137.51 495.068ZM1182.12 513.924C1175.6 505.686 1141.31 491.835 1146.09 495.068C1156.63 500.713 1179.24 511.988 1182.12 513.924ZM1128.93 500.205C1153.69 507.803 1130.03 495.544 1127.22 498.481C1128.27 498.58 1129.25 498.744 1128.93 500.205ZM1197.55 529.351C1184.47 521.835 1169.46 507.146 1152.93 508.771C1170.59 511.709 1184.12 527.89 1197.55 529.351ZM1237.02 556.79C1230.22 546.435 1215.88 534.504 1206.13 532.797C1219.17 538.049 1224.68 550.833 1237.02 556.79ZM1245.59 549.93C1247.36 543.054 1245.77 538.229 1242.16 532.781C1240.29 539.756 1240.98 545.483 1245.59 549.93ZM1254.16 599.656C1259.45 594.618 1270.86 586.675 1267.89 579.077C1263.67 585.182 1253.93 594.799 1254.16 599.656ZM1212.99 615.083C1223.98 606.615 1243.82 597.9 1247.3 587.643C1238.33 598.13 1217.82 606.172 1212.99 615.083ZM1235.29 608.223C1242.77 605.942 1252.96 597.359 1252.45 592.797C1247.13 598.344 1240.04 602.102 1235.29 608.223ZM984.802 597.933C961.236 612.753 919.227 634.891 941.906 669.946C944.501 634.235 965.867 617.315 991.666 604.793C991.453 600.428 989.17 598.147 984.802 597.933ZM976.213 618.513C981.025 613.015 995.082 616.79 995.082 606.516C985.968 606.598 976.706 615.526 976.213 618.513ZM945.322 683.665C956.736 653.928 972.83 628.868 1000.22 615.083C966.934 621.828 945.47 649.514 945.322 683.665ZM1005.38 623.65C1005.76 624.979 1005.43 627.03 1007.09 627.08C1012.06 626.128 1004.46 624.405 1005.38 621.943C972.633 633.004 940.954 676.658 959.051 716.242C959.396 670.29 979.333 643.934 1005.38 623.65ZM986.51 649.366C974.768 670.405 957.656 717.358 976.213 738.528C978.496 703.26 986.066 659.508 1003.67 633.939C1004.05 631.79 1006.35 630.427 1001.96 630.51C999.582 636.976 990.895 641.538 986.526 649.366H986.51ZM1055.14 676.805C1044.32 666.466 1036.53 643.967 1024.26 640.799C1034.33 651.893 1044.2 672.292 1055.14 676.805ZM1024.26 740.235C1020.26 709.365 1015.89 669.749 1012.26 644.229C1008.8 678.66 1014.56 713.796 1024.26 740.235ZM1106.62 678.512C1091.33 664.07 1065.75 650.794 1048.29 644.229C1065.47 656.784 1088.16 672.965 1106.62 678.512ZM1022.56 645.936C1028.24 661.986 1040.19 680.875 1050 687.079C1038.93 675.296 1033.71 657.637 1022.56 645.936ZM1108.35 687.079C1090.5 677.413 1063.17 659.18 1051.72 654.503C1069.38 670.011 1094.77 686.931 1096.33 712.795C1083.48 704.475 1073.7 683.994 1062.02 680.219C1070.49 695.17 1083.55 705.558 1089.46 723.085C1071.74 716.094 1065.68 685.946 1048.29 680.219C1057.5 694.448 1069.59 705.804 1075.75 723.085C1055.63 710.038 1042.44 680.941 1027.71 668.222C1037.26 690.131 1033.66 725.136 1050.02 740.235C1050.54 735.016 1043.58 728.534 1046.58 726.515C1049.95 730.634 1056.29 740.744 1051.72 747.095C1045.99 747.095 1047.17 740.202 1043.15 738.528C1043.12 743.074 1044.1 748.621 1039.72 748.818C1031.29 745.815 1033.26 732.407 1025.99 728.238C1028.27 733.391 1027.75 741.351 1027.71 748.818C1018.27 745.175 1026.86 765.016 1017.42 765.968C1000.68 753.561 1006 719.081 1001.98 693.955C997.841 705.82 1000.26 724.234 995.115 735.098C990.468 736.329 996.347 727.007 991.683 728.238C991.666 737.363 986.198 741.055 984.818 748.818C998.219 755.12 1004.89 770.497 1019.12 771.104C1038.78 771.941 1061.4 745.207 1084.32 745.388C1096.67 726.86 1106.18 705.509 1122.06 690.525C1119.04 688.983 1116.74 686.685 1115.2 683.665C1109.65 681.548 1113.88 689.212 1108.33 687.095L1108.35 687.079ZM1032.85 712.795C1032.66 702.555 1027.3 668.157 1019.12 654.503C1018.65 678.988 1026.99 694.644 1032.85 712.795ZM1091.19 699.076C1079.36 686.882 1066.01 667.09 1053.43 661.346C1065.98 672.818 1077.64 694.283 1091.19 699.076ZM979.662 743.648C991.568 730.962 999.073 704.754 995.099 681.926C992.997 705.542 985.36 723.627 979.662 743.648ZM1019.12 760.798C1017.75 735.311 1014.12 712.09 1007.1 692.216C1007.61 718.572 1004.61 748.44 1019.12 760.798ZM1039.72 743.648C1038.36 725.58 1029.04 715.454 1024.28 700.782C1027.02 717.472 1031.11 732.817 1039.72 743.648ZM928.194 796.804C928.654 805.371 935.929 813.839 940.199 822.521C944.074 830.431 946.603 847.285 959.068 843.1C952.696 821.273 935.157 792.948 941.906 769.381C944.156 799.709 953.616 822.832 965.932 843.1C969.365 840.245 978.66 843.248 981.37 839.67C962.155 816.58 949.329 787.105 938.474 755.661C940.445 770.563 927.389 782.133 928.177 796.804H928.194ZM864.705 834.517C867.119 811.246 854.375 792.143 850.976 769.365C847.034 793.735 852.125 821.224 864.705 834.517ZM859.564 856.804C863.227 833.237 848.578 815.956 844.111 795.081C847.034 817.893 846.164 844.479 859.564 856.804ZM945.339 844.807C939.443 831.268 933.827 817.449 926.469 805.371C925.074 819.567 930.148 841.541 945.339 844.807ZM967.64 1014.55C930.427 996.299 907.846 963.427 893.854 921.956C882.047 954.352 884.904 997.086 916.156 1000.83C906.664 993.148 893.723 979.838 895.562 966.545C904.874 987.535 921.51 1010.33 943.598 1012.84C921.92 1002.5 907.058 985.352 897.27 963.115C916.567 986.452 941.233 1026.82 979.629 1014.55C942.465 989.964 909.127 952.415 904.135 901.393C909.456 922.973 919.359 949.264 935.009 969.975C949.412 989.012 975.983 1019.65 1001.93 1014.55C957.754 983.826 918.57 948.115 904.135 887.673C880.733 946.031 937.817 988.569 967.624 1014.55H967.64ZM859.548 927.109C860.928 921.562 865.723 910.517 861.256 904.823C861.601 912.093 855.475 921.825 859.548 927.109ZM835.522 942.536C831.991 953.843 829.347 975.883 840.662 981.972C837.608 955.468 847.1 932.41 850.959 918.542C850.023 925.501 838.905 931.737 835.522 942.552V942.536ZM847.527 990.538C849.465 972.453 850.893 944.768 849.251 928.816C844.111 946.671 842.37 971.272 847.527 990.538ZM1230.14 959.669C1231.32 956.288 1234.72 955.107 1238.71 954.532C1236.29 947.984 1243.19 942.043 1238.71 939.106C1235.64 944.653 1223.96 950.594 1230.14 959.685V959.669ZM828.657 954.532C830.776 952.497 834.783 943.684 832.09 942.536C830.842 945.424 822.992 950.413 828.657 954.532ZM809.788 987.108C813.007 976.589 820.873 961.638 821.793 954.532C814.748 965.035 805.962 972.864 809.788 987.108ZM826.95 988.832C829.676 985.746 832.944 974.357 828.657 969.975C826.785 973.897 822.384 984.171 826.95 988.832ZM799.491 1004.26C803.777 999.351 806.766 984.138 804.648 978.542C801.758 984.844 793.793 995.084 799.491 1004.26ZM818.361 1000.83C820.019 995.888 826.391 990.653 820.069 987.108C818.673 989.849 813.565 997.562 818.361 1000.83ZM840.662 1005.96C843.503 1003.57 843.503 989.504 840.662 987.108C838.495 991.08 829.906 1004.7 840.662 1005.96ZM1092.88 1000.83C1112.95 997.431 1140.88 992.803 1154.64 988.832C1132.06 990.834 1109 992.376 1092.88 1000.83ZM1185.53 988.832C1160.82 999.565 1123.42 997.628 1104.9 1014.55C1110.22 1024.44 1123.8 1017.7 1132.36 1016.25C1166.19 1010.54 1197.47 1002.42 1219.86 990.538C1210.48 987.896 1197.36 989.029 1185.53 988.832ZM1106.61 1023.11C1108.4 1027.04 1107.69 1033.45 1110.04 1036.83C1163.77 1032.8 1204.52 1015.8 1238.73 992.261C1197.82 999.089 1158.86 1021.98 1106.61 1023.11ZM785.778 1028.27C790.229 1021.26 798.703 1009.23 792.643 997.398C788.767 1005 779.439 1016.16 785.778 1028.27ZM1019.11 1024.84C1052.66 1024.08 1088.1 1025.2 1101.47 1004.26C1106.48 1009.81 1124.21 1001.53 1130.63 997.398C1088.49 1001.57 1057.11 1016.52 1019.11 1024.84ZM838.954 1021.41C840.022 1024.9 847.625 1021.88 845.819 1028.27C842.879 1054.48 828.198 1078.08 830.382 1103.71C838.445 1068.9 848.348 1035.95 862.98 1007.69C862.603 1006.34 861.552 1005.69 859.548 1005.98C858.267 1018.72 841.549 1014.07 838.954 1021.41ZM1214.7 1026.54C1212.29 1032.14 1228.69 1020.82 1231.86 1026.54C1191.63 1040.63 1149.45 1052.77 1108.33 1065.98C1109.91 1068.98 1108.92 1074.53 1111.76 1076.27C1118.92 1073.14 1128.61 1072.55 1130.63 1064.27C1130.8 1066.97 1130.4 1070.21 1134.07 1069.41C1166.43 1062.32 1193.58 1050.03 1225 1041.97C1235 1050.11 1246.64 1031.53 1250.73 1043.69C1237.26 1059.96 1240.94 1093.35 1228.43 1110.57C1228.99 1089.4 1241.88 1071.43 1238.73 1052.28C1235.33 1055.18 1228.02 1054.15 1223.29 1055.71C1222.84 1075.84 1220.68 1094.24 1219.86 1114C1231.88 1112.29 1241.39 1108.09 1252.45 1105.43C1251.85 1071.05 1255.25 1041.25 1257.61 1009.41C1240.93 1012.74 1230.4 1022.23 1214.72 1026.56L1214.7 1026.54ZM820.085 1024.82C818.87 1019.47 829.676 1017.44 823.517 1012.82C823.468 1016.89 814.731 1021 820.085 1024.82ZM801.216 1026.54C801.922 1023.66 809.295 1018.83 804.648 1016.25C803.942 1019.14 796.568 1023.95 801.216 1026.54ZM777.19 1043.69C782.248 1037.51 783.299 1027.82 778.914 1019.68C777.419 1025.67 772.329 1037.03 777.19 1043.69ZM1089.45 1021.41C1066.77 1029.61 1038.04 1031.76 1013.95 1038.56C1047.16 1042.56 1072.74 1034.23 1099.74 1029.99C1100.83 1022.61 1092.27 1024.87 1089.45 1021.42V1021.41ZM947.047 1043.69C955.751 1036.97 972.124 1037.9 984.785 1035.13C969.02 1035.44 961.712 1027.33 947.047 1026.56C945.552 1030.81 943.697 1039.85 947.047 1043.71V1043.69ZM1034.55 1029.97C1036.17 1029.66 1050.57 1029.25 1037.98 1028.25C1021.08 1030.22 997.464 1025.48 989.942 1036.82C1000.34 1035.96 1023.26 1032.08 1034.55 1029.96V1029.97ZM772.033 1033.4C773.347 1024.87 760.718 1050.96 770.325 1057.4C776.303 1051.29 770.67 1044.12 772.033 1033.4ZM790.902 1041.97C793.875 1039.23 795.928 1035.57 797.767 1031.68C791.756 1030.43 788.127 1050.54 790.902 1041.97ZM825.225 1059.12C824.568 1050.32 834.602 1042.33 826.933 1036.83C827.179 1043.99 819.707 1052.38 825.225 1059.12ZM1063.71 1040.26C1076.03 1040 1090.22 1041.61 1098.03 1036.83C1085.45 1036.83 1072.12 1036.08 1063.71 1040.26ZM959.051 1047.12C983.422 1051.37 1010.03 1050.77 1031.11 1043.69C1006.96 1041.08 977.937 1037.95 959.051 1047.12ZM898.995 1045.42C900.982 1046.85 903.593 1047.68 907.567 1047.12C908.224 1041.81 899.307 1040.15 898.995 1045.42ZM1001.93 1055.71C1034.78 1057.74 1067.37 1054.67 1096.29 1055.71C1091.33 1058.76 1083.37 1058.79 1079.13 1062.57C1094.55 1057.45 1085.06 1077.22 1092.86 1079.72C1104.57 1078.83 1094.95 1053.98 1099.73 1042C1064.5 1043.96 1027.52 1044.15 1001.93 1055.72V1055.71ZM761.736 1072.86C767.402 1066.52 767.927 1053.93 761.736 1047.14C757.762 1054.03 757.253 1065.83 761.736 1072.86ZM878.401 1086.58C879.666 1074.12 885.118 1065.85 885.266 1052.28C881.226 1051.75 882.08 1046.32 876.693 1047.14C877.826 1059.73 874.427 1076.84 878.401 1086.58ZM947.03 1062.57C983.521 1066.41 1033.81 1069.72 1065.42 1059.14C1024.13 1061.91 979.58 1058.25 947.03 1047.14V1062.57ZM897.27 1088.28C904.989 1080.57 902.788 1062.93 907.567 1052.28C905.383 1052.18 905.186 1050.08 902.427 1050.55C902.706 1059.25 897.32 1074.47 897.287 1088.27L897.27 1088.28ZM1195.81 1060.84C1201.45 1080.46 1193.47 1106.63 1195.81 1122.57C1201.05 1118.66 1209.84 1118.3 1216.41 1115.71C1215.47 1096.13 1222.76 1067.67 1218.12 1055.69C1212.7 1059.42 1201.64 1057.51 1195.81 1060.83V1060.84ZM1180.36 1062.57C1176.24 1083.59 1172 1104.5 1170.08 1127.72C1178.09 1126.59 1185.65 1124.98 1190.66 1120.86C1191.22 1103.55 1199.51 1076.17 1190.66 1060.84C1186.62 1060.81 1185.62 1063.8 1180.36 1062.57ZM758.304 1081.42C758.008 1075.91 756.941 1062.32 754.872 1064.27C755.775 1070.21 752.326 1080.54 758.304 1081.42ZM1146.05 1074.56C1146.41 1096.64 1144.56 1116.51 1142.62 1136.29C1150.87 1134.23 1157.94 1131.03 1166.65 1129.43C1167.29 1104.35 1173.58 1084.92 1176.94 1062.57C1163.76 1063.68 1157.58 1071.79 1146.07 1074.56H1146.05ZM1020.8 1071.13C1040.75 1073.23 1068.67 1073.38 1084.29 1065.98C1062.74 1062.29 1041.39 1068.7 1020.8 1071.13ZM950.463 1088.28C955.34 1087.45 956.703 1083.08 960.759 1081.42C958.296 1083.93 959.446 1086.86 964.192 1086.56C989.039 1082.19 1028.26 1086.66 1056.85 1084.85C1067.28 1084.2 1088.46 1085.99 1087.74 1071.13C1050.39 1080.55 1008.81 1071.13 969.348 1074.56C969.759 1072.12 972.173 1071.68 972.781 1069.41C963.814 1069.8 955.652 1069.38 948.755 1067.7C950.955 1075.86 944.616 1087.02 950.463 1088.28ZM749.715 1096.85C755.791 1096.57 754.559 1076.8 749.715 1076.27V1096.85ZM1128.89 1081.42C1127.97 1102.22 1126.2 1122.17 1123.75 1141.42C1130.57 1141.95 1132.37 1137.47 1139.19 1137.99C1139.7 1118.5 1145.36 1095.03 1140.9 1076.27C1138.5 1079.6 1132.01 1078.83 1128.89 1081.42ZM1110.02 1086.56C1110.02 1103.14 1109.42 1120.3 1111.73 1134.56C1106.51 1134.07 1109.37 1125.49 1104.87 1124.27V1146.56C1111.01 1146.41 1114.79 1143.9 1120.3 1143.13C1122.27 1123.39 1124.33 1103.71 1125.44 1083.11C1119.3 1083.26 1115.52 1085.77 1110.01 1086.54L1110.02 1086.56ZM748.007 1115.71C748.007 1104.84 748.73 1093.27 744.575 1086.56C744.69 1097.23 739.878 1109.91 748.007 1115.71ZM947.03 1091.7C950.298 1105.58 948.131 1124.88 948.738 1141.42C955.537 1139.21 952.236 1147.07 959.035 1144.85C958.69 1134.46 951.908 1107.98 957.311 1091.7C951.382 1093.09 950.068 1088.5 947.014 1091.7H947.03ZM1091.15 1149.99C1092.17 1132.58 1096.69 1100.84 1092.86 1089.97H1089.43C1091.04 1108.88 1086.49 1139.4 1091.15 1149.99ZM969.332 1146.56C972.584 1128.44 968.971 1102.35 959.035 1091.7C960.612 1111.83 954.568 1139.6 969.332 1146.56ZM1073.99 1093.4C1077.18 1111.93 1074.14 1136.68 1080.86 1151.7C1089.23 1141.65 1088.03 1104.19 1082.56 1091.7C1078.43 1090.99 1078.84 1094.83 1073.99 1093.4ZM797.767 1112.26C798.506 1105.86 804.402 1097.33 797.767 1093.4C793.793 1097.59 792.939 1108.22 797.767 1112.26ZM974.489 1146.54H988.218C985.639 1128.54 981.37 1112.24 979.645 1093.39H967.64C968.002 1113.03 976.706 1124.34 974.505 1146.54H974.489ZM1055.12 1095.11C1058.69 1114.87 1060.15 1138.35 1063.7 1153.4C1067.11 1135.09 1064.43 1110.7 1068.84 1093.39C1063.32 1093.01 1061.58 1096.42 1055.11 1095.09L1055.12 1095.11ZM983.061 1100.25C990.763 1114.85 981.764 1146.12 1001.93 1148.25C1005.31 1130.1 995.936 1111.18 991.634 1095.09H983.061V1100.23V1100.25ZM996.79 1100.25C1005.64 1113.7 1001.06 1142.79 1013.95 1149.97C1019.55 1130.64 1005.71 1115.92 1007.09 1095.11H995.082C995.017 1097.47 995.887 1098.87 996.79 1100.25ZM1020.82 1149.97C1025.05 1149.74 1029.08 1149.71 1031.11 1151.68C1033.25 1128.39 1023.12 1117.38 1024.25 1095.09H1008.81C1012.42 1113.77 1018.27 1130.21 1020.82 1149.96V1149.97ZM1036.25 1151.68H1046.55C1044.61 1146.76 1046.21 1138.3 1043.12 1134.53C1039 1136.7 1044.07 1148.05 1039.69 1149.96C1037.73 1132.72 1042.26 1116.51 1039.69 1095.09H1025.96C1028.12 1115.23 1035.01 1130.62 1036.25 1151.68ZM1044.83 1112.24C1045.68 1105.1 1050.82 1102.23 1051.69 1095.09H1041.39C1041.51 1101.84 1042.23 1107.98 1044.83 1112.24ZM1072.28 1098.52C1069.25 1111.65 1064.89 1141.21 1072.28 1153.39C1077.59 1136.63 1070.21 1117.74 1072.28 1098.52ZM1055.12 1153.39C1061.22 1139.16 1054.53 1116.03 1051.69 1100.23C1043.59 1113.98 1042.74 1142.37 1055.12 1153.39ZM772.033 1115.66C777.337 1116.82 779.177 1105.84 775.465 1103.66C775.646 1108.98 770.062 1108.55 772.033 1115.66ZM814.928 1163.66C817.523 1145.94 829.594 1120.45 825.225 1107.07C823.419 1125.41 813.664 1153.67 814.928 1163.66ZM792.627 1134.51C792.61 1122.71 799.902 1114.64 789.194 1108.8C782.708 1115.94 787.289 1129.25 792.627 1134.51ZM878.417 1170.52C877.662 1150.89 887.056 1132.31 881.85 1113.95C881.653 1131.84 871.832 1157.14 878.417 1170.52ZM770.325 1125.95C770.292 1121.4 771.278 1115.85 766.893 1115.66C765.94 1119.43 764.364 1125.11 770.325 1125.95ZM760.028 1148.23C760.948 1140.62 769.931 1130.54 761.736 1124.24C754.806 1128.2 755.972 1141.64 760.028 1148.23ZM787.47 1155.09C793.218 1143.88 788.948 1130.39 780.605 1124.24C776.155 1135.61 783.545 1146.72 787.47 1155.09ZM1099.73 1148.23C1102.4 1145.44 1103.5 1120.58 1098 1125.95C1102.73 1129.1 1089.69 1145.31 1099.73 1148.23ZM1084.29 1163.66C1126.13 1160.31 1156.04 1145.07 1192.38 1136.22C1198.33 1136.01 1196.27 1143.77 1200.95 1144.79C1201.87 1138.85 1216.98 1130.72 1209.53 1127.64C1168.31 1140.16 1126.05 1151.66 1084.29 1163.64V1163.66ZM766.876 1203.1C768.896 1180.2 753.131 1161.05 753.147 1134.51C748.877 1134.71 747.826 1137.73 744.575 1134.51C748.204 1161.18 757.532 1182.14 766.876 1203.1ZM785.746 1168.8C785.154 1155.09 780.54 1145.41 773.741 1137.93C777.075 1148.89 775.186 1165.06 785.746 1168.8ZM833.781 1191.08C840.334 1184.26 842.19 1155.22 840.646 1151.65C838.56 1164.99 835.407 1177.28 833.781 1191.08ZM936.733 1161.94C936.898 1158.88 943.795 1149.37 936.733 1149.94C938.162 1154.42 931.544 1159.34 936.733 1161.94ZM763.444 1170.5C767.96 1175.15 766.843 1185.41 772.017 1189.36C777.058 1179.99 779.045 1163.13 772.017 1155.08C772.181 1163.25 764.15 1163.22 763.444 1170.5ZM1178.65 1160.21C1179.03 1158.06 1181.31 1156.72 1176.93 1156.78C1145.31 1166.35 1110.89 1173.08 1077.42 1180.79C1115.16 1177.92 1150.11 1172.28 1178.65 1160.21ZM1067.13 1163.64C1039.95 1165.09 1014.35 1155.82 989.926 1160.21C1013.28 1163.02 1043.3 1172.1 1067.13 1163.64ZM1049.97 1350.53C1037.88 1349.6 1010.37 1347.4 1012.23 1331.68C1060.9 1339.1 1116.99 1332.12 1146.05 1309.39C1110.94 1321.63 1046.44 1338 1008.8 1316.25C1005.59 1305.62 1012.77 1305.37 1015.66 1300.82C1014.05 1293.87 1008.29 1291.04 1007.07 1283.68C1012.36 1277.18 998.958 1259.98 1003.64 1249.39C1020.27 1252.79 1042.67 1259.52 1061.97 1254.53C1036.15 1252.33 1015.86 1244.6 996.774 1235.67C995.394 1227.3 990.615 1213.32 993.342 1206.53C1033.4 1213.75 1078.94 1208.09 1111.73 1197.96C1115.49 1192.72 1122.72 1199.95 1111.73 1197.96C1086.87 1199.65 1052.66 1205.02 1022.51 1203.11C1010.63 1202.36 986.822 1204.16 989.909 1187.69C1005.28 1187.62 1017.91 1184.8 1034.51 1185.98C1028.29 1181.89 1001.22 1183.83 989.909 1179.12C990.188 1172.47 990.73 1156.67 984.769 1161.97C981.813 1200.13 995.641 1236.89 1000.21 1264.84C1012.28 1338.87 1010.44 1416.47 1048.24 1472.29C1046.76 1465.2 1043.64 1459.75 1043.1 1451.71C1054.83 1446.29 1075.5 1449.81 1084.29 1441.42C1066.8 1439.96 1055.24 1444.41 1039.69 1444.85C1040 1438.79 1032.43 1435.46 1036.25 1431.13C1053.55 1431.28 1071.2 1431.75 1082.58 1425.99C1061.81 1425.02 1038.98 1426.12 1031.11 1412.27C1030.14 1404.94 1052.35 1411.88 1048.27 1407.14C1033.35 1408.63 1017.89 1402.43 1022.54 1389.99C1046.83 1390.12 1073.57 1398.6 1091.17 1386.56C1069.23 1383.34 1044.89 1382.5 1019.11 1383.13C1019.08 1373.53 1012.87 1362.58 1015.68 1355.69C1066.8 1367.41 1122.73 1348.01 1147.79 1328.26C1127.69 1340.23 1084.57 1353.21 1050 1350.55L1049.97 1350.53ZM856.099 1197.94C856.362 1194.78 861.913 1196.89 862.964 1194.51C859.072 1189.26 863.785 1175.41 859.532 1170.5C859.876 1180.04 851.304 1189.67 856.099 1197.94ZM1171.79 1187.65C1174.69 1183.07 1189.46 1181.38 1185.52 1175.66C1182.95 1180.58 1168.78 1182.84 1171.79 1187.65ZM947.03 1196.22C941.594 1196.5 941.299 1191.66 935.025 1192.79C933.859 1198.09 944.846 1199.93 947.03 1196.22ZM830.365 1209.94C830.809 1207.53 834.126 1207.99 835.522 1206.51V1194.51C829.61 1194.4 829.396 1208.86 830.365 1209.94ZM1015.66 1225.37C1070.43 1233.9 1128.96 1226.97 1161.49 1203.08C1122.49 1220.1 1064.06 1217.72 1015.66 1225.37ZM794.335 1225.37C799.475 1221.36 797.061 1210.27 796.043 1204.79C793.481 1211.78 788.899 1218.98 794.335 1225.37ZM814.928 1218.51C818.837 1218.98 821.382 1218.1 821.793 1215.08C816.242 1217.19 820.479 1209.53 814.928 1211.65V1218.51ZM912.724 1273.37C909.127 1288.27 902.016 1303.34 900.719 1314.53C899.734 1322.93 902.821 1331.6 900.719 1340.24C897.451 1353.7 885.446 1373.44 902.427 1386.54C891.178 1366.39 903.577 1350.03 905.859 1335.11C907.666 1323.36 904.66 1309.88 907.567 1302.53C912.297 1290.62 913.956 1274.93 917.864 1264.82C918.422 1263.37 924.203 1260.04 924.729 1257.96C928.194 1244.01 924.072 1227.45 929.869 1215.09C919.26 1229.65 918.472 1249.51 912.707 1273.39L912.724 1273.37ZM1116.89 1252.79C1143.41 1247.87 1168.29 1241.29 1182.08 1223.64C1181.69 1222.31 1182.04 1220.26 1180.36 1220.21C1164.33 1236.2 1138.07 1241.96 1116.89 1252.79ZM794.335 1237.36C802.809 1237.25 808.606 1234.47 813.204 1230.5C807.374 1233.26 797.307 1231.77 794.335 1237.36ZM986.493 1235.66C983.472 1233.98 976.197 1227.81 972.764 1232.23C978.085 1232.52 984.014 1242.96 986.493 1235.66ZM1089.43 1249.38C1096.54 1247.26 1107.56 1244.14 1116.89 1240.81C1124.82 1237.97 1138.94 1234.47 1135.76 1230.52C1114.19 1239.84 1081.35 1237.87 1056.83 1244.24C1069.76 1243.89 1076.7 1249.54 1089.43 1249.38ZM960.759 1251.08C948.377 1248.59 940.002 1242.11 928.161 1239.09C928.539 1242.32 926.223 1242.86 926.453 1245.95C939 1245.44 951.399 1254.14 960.776 1251.08H960.759ZM1065.42 1276.8C1104.75 1280.1 1139.76 1269.94 1154.64 1254.51C1128.88 1265.92 1093.91 1268.12 1065.42 1276.8ZM1128.89 1288.8C1140.95 1281.98 1157.2 1279.38 1166.65 1269.94C1155.02 1276.04 1133.08 1280.95 1128.89 1288.8ZM1094.59 1287.07C1066.36 1289.57 1039.69 1281.38 1019.09 1281.94C1033.22 1296.89 1076.27 1300.78 1094.59 1287.07ZM1132.32 1302.5C1147.99 1296.44 1168.06 1294.77 1176.93 1281.92C1163.1 1289.83 1147.06 1295.49 1132.32 1302.5ZM991.634 1288.78C991.404 1285.96 979.859 1285.96 979.629 1288.78C984.917 1286.71 991.781 1296.26 991.634 1288.78ZM991.634 1300.78C991.322 1295.84 979.153 1293.95 976.197 1297.35C981.731 1298.1 985.492 1300.63 991.634 1300.78ZM1170.08 1305.91C1173.33 1305.54 1173.86 1307.85 1176.94 1307.64C1176.01 1305.14 1178.95 1298.77 1175.24 1299.07C1174.73 1302.56 1170.59 1302.43 1170.1 1305.93L1170.08 1305.91ZM993.358 1307.64C992.668 1300.32 978.988 1305.99 972.764 1304.21C975.343 1307.96 991.223 1314.61 993.358 1307.64ZM1036.25 1316.2C1068.34 1317.4 1096.56 1314.74 1118.61 1305.91C1093.68 1311.85 1061.4 1310.47 1036.25 1316.2ZM998.515 1335.06C999.763 1329.81 995.559 1330.02 996.79 1324.77C981.977 1329.5 963.995 1322.03 952.187 1324.77C968.363 1327.46 982.585 1332.12 998.515 1335.06ZM974.505 1338.49C964.553 1337.54 953.878 1334.14 943.614 1331.63C934.484 1329.4 915.581 1325.51 919.588 1326.49C941.414 1335.04 976.886 1348.02 1000.22 1343.64C996.068 1334.21 984.276 1339.44 974.489 1338.51L974.505 1338.49ZM909.308 1341.92C937.177 1346.71 970.794 1363.84 1001.95 1353.92C965.818 1352.86 936.471 1345.04 909.308 1335.06V1341.92ZM1158.09 1357.35C1160.87 1353.83 1166.35 1353.03 1170.1 1350.49C1168.08 1345.94 1173.38 1340.39 1170.1 1340.2C1169 1347.73 1156.15 1352.49 1158.09 1357.35ZM1065.44 1372.77C1102.16 1370.61 1140.83 1361.25 1154.66 1341.9C1131.24 1358.49 1095.28 1362.58 1065.44 1372.77ZM962.5 1365.91C948.755 1365.91 933.63 1358.21 923.037 1360.78C931.954 1365.6 952.187 1368.19 962.5 1365.91ZM1111.76 1393.33C1136.17 1389.71 1155.38 1380.93 1170.1 1367.62C1152.08 1376.5 1123.93 1384.36 1111.76 1393.33ZM919.605 1383.05C928.013 1384.01 944.583 1388.44 948.771 1383.05C939.755 1380.62 933.662 1375.28 923.037 1374.46C921.28 1376.71 921.362 1380.78 919.605 1383.05ZM1003.67 1381.32C991.223 1380.62 979.021 1379.68 967.64 1377.89C972.501 1386.46 995.049 1386.7 1003.67 1381.32ZM1166.66 1388.18C1169.9 1387.79 1170.44 1390.1 1173.53 1389.89C1172.58 1386.84 1172.64 1382.77 1170.1 1381.31C1170.08 1384.72 1165.42 1383.49 1166.66 1388.17V1388.18ZM1163.23 1407.04C1166.93 1403.97 1171.11 1404.02 1175.24 1405.32C1175.4 1400 1174.46 1395.81 1171.8 1393.32C1172.35 1400.23 1159.83 1402.97 1163.23 1407.04ZM1149.5 1395.04C1126.63 1403.61 1100.35 1408.79 1075.73 1415.62C1106.52 1414.96 1130.96 1407.94 1149.5 1395.04ZM909.308 1420.76C923.054 1419.63 941.315 1423.02 952.203 1419.03C937.735 1412.91 915.598 1414.47 904.168 1405.32C905.449 1410.89 907.272 1415.93 909.308 1420.74V1420.76ZM983.078 1410.47C977.149 1409.88 940.675 1406.27 960.776 1410.47C973.29 1413.08 994.622 1415.92 1005.38 1412.17C999.434 1409.89 992.57 1411.4 983.078 1410.47ZM1110.04 1429.32C1130.99 1429.57 1151.54 1411.52 1158.07 1408.74C1142.05 1415.59 1126.49 1422.91 1110.04 1429.32ZM1008.81 1424.19C1012.85 1424.16 1013.87 1427.14 1019.11 1425.91C1018.85 1420.46 1015.22 1418.36 1015.68 1412.19C1013.18 1413.14 1006.81 1410.19 1007.09 1413.91C1015.07 1413.32 1011.8 1421.97 1008.81 1424.2V1424.19ZM1101.47 1448.2C1127.07 1449.2 1150.78 1439.19 1159.8 1429.34C1142.95 1438.22 1116.43 1437.45 1101.47 1448.2ZM1185.53 1449.92C1181.05 1445.83 1185.02 1433.28 1178.67 1431.06C1174.05 1438.12 1179.26 1454.27 1185.53 1449.92ZM1187.24 1497.92C1191.92 1496.68 1190.69 1501.34 1194.11 1501.35C1199.84 1491.39 1192.35 1473.29 1185.52 1465.35C1187.36 1477.61 1196.59 1488.65 1187.22 1497.92H1187.24ZM1108.31 1491.06C1131.55 1489.14 1155.81 1488.24 1168.36 1475.64C1146.89 1479.33 1126.95 1484.56 1108.31 1491.06ZM1068.85 1503.06C1066.73 1497.51 1074.4 1501.75 1072.28 1496.2C1069.3 1496.33 1066.95 1495.82 1065.42 1494.48C1065.16 1498.73 1065.11 1502.8 1068.85 1503.04V1503.06ZM1128.91 1515.06C1115.62 1515.61 1100.69 1513.61 1113.47 1516.78C1126.26 1519.93 1147.2 1518.49 1158.07 1513.35C1150.31 1514.35 1139.21 1514.65 1128.91 1515.06ZM1149.5 1549.36C1171.72 1549.85 1185.52 1541.91 1204.4 1539.07C1201.84 1533.31 1209.17 1524.2 1202.68 1525.35C1189.21 1537.61 1163.05 1537.2 1149.49 1549.36H1149.5ZM1146.07 1537.36C1150.95 1544.1 1165.79 1536.88 1171.8 1533.93C1162.92 1534.75 1153.1 1534.67 1146.07 1537.36ZM1123.77 1549.36C1130.11 1548.26 1140.86 1551.57 1144.36 1547.63C1143.28 1546.12 1115.85 1547.57 1123.77 1549.36ZM1152.93 1559.65C1170.88 1562.55 1190.87 1553.11 1204.4 1545.93C1187.03 1550.28 1164.94 1549.91 1152.93 1559.65ZM1146.07 1559.65C1124.51 1560.11 1087.08 1558.45 1072.3 1552.79C1077.03 1561.78 1077.62 1574.89 1080.87 1585.36C1088.66 1586.61 1097.38 1584.97 1106.61 1585.36C1121.78 1586 1143.02 1593.17 1147.79 1578.5C1132.05 1574.06 1094.65 1586.04 1084.31 1571.64C1103.67 1573.91 1131.77 1578.68 1146.07 1568.21C1129.88 1565.73 1090.45 1569.62 1084.31 1557.92C1101.4 1560.04 1129.6 1568.21 1146.07 1559.63V1559.65ZM1200.97 1551.08C1189.05 1560.3 1167.65 1560.07 1156.37 1569.94C1174.48 1568.61 1187.9 1562.58 1204.4 1559.65C1203.65 1556.41 1206.73 1549.31 1200.97 1551.08ZM1158.07 1575.09V1583.66C1169.82 1587.1 1191.18 1576.94 1200.97 1578.52C1190.28 1586.12 1170.19 1584.34 1159.8 1592.24C1176.58 1591.86 1190.53 1588.66 1204.4 1585.38V1563.09C1187.67 1565.82 1174.25 1571.84 1158.07 1575.09ZM1080.87 1592.24V1595.67C1102.73 1595.67 1130.65 1600.72 1149.5 1590.53C1127.66 1592.24 1094.42 1587.45 1080.87 1592.24ZM1159.8 1597.38C1159.42 1602.91 1162.84 1604.63 1161.51 1611.1C1180.25 1608.67 1203.75 1611.01 1204.4 1590.52C1192.33 1588.76 1175.45 1597 1159.8 1597.38ZM1082.58 1607.67C1105.33 1610.16 1127.53 1614.15 1151.21 1611.1C1152.59 1605.14 1148.65 1604.5 1149.49 1599.1C1129.37 1599.46 1099.41 1604.78 1082.56 1597.39V1607.68L1082.58 1607.67ZM1161.51 1619.66C1174.05 1623.6 1191.59 1617.74 1202.68 1614.53C1200.12 1609.31 1207.87 1603.23 1200.97 1604.24C1193.74 1615.31 1170.23 1610.09 1161.51 1619.66ZM1094.6 1686.54C1114.95 1684.01 1146.71 1692.89 1154.66 1677.97C1135.72 1673.47 1108 1677.72 1094.6 1667.68C1114.34 1667.4 1135.31 1675 1154.66 1669.39C1150.93 1669.67 1153.89 1663.3 1152.93 1660.8C1137.37 1659.82 1110.84 1668.47 1101.47 1657.37C1115.62 1653.62 1150.57 1665.38 1152.93 1650.51C1138.12 1647.99 1103.78 1655.26 1094.6 1641.95C1109.55 1644.31 1139.17 1649.78 1152.93 1641.95C1138.06 1633.59 1104.85 1644.69 1087.74 1635.09C1100.6 1630.08 1138.88 1642.26 1152.93 1629.95C1139.09 1621.2 1102.94 1634.27 1091.17 1619.66C1107.66 1621.04 1136.55 1627.85 1151.23 1619.66C1133.29 1611.87 1100.42 1619.01 1082.6 1611.1C1083.07 1639.77 1091.45 1660.54 1094.6 1686.54ZM1161.51 1628.24C1168.42 1639.83 1189.44 1628.41 1200.97 1628.24C1200.49 1625.24 1205.8 1619.69 1200.97 1617.95C1191.23 1624.8 1171.52 1621.68 1161.51 1628.24ZM1163.22 1643.67C1173.05 1643.49 1197.92 1644.28 1200.95 1631.67C1189.49 1636.78 1167.11 1630.99 1163.22 1643.67ZM1163.22 1653.96C1174.22 1656.92 1200.84 1651.6 1197.54 1640.24C1190.62 1649.33 1167.88 1642.6 1163.22 1653.96ZM1163.22 1660.82C1162.99 1665.04 1162.95 1669.09 1164.92 1671.11C1177.88 1671.46 1191.41 1663.33 1195.81 1660.82C1193.37 1674.95 1170.34 1668.52 1164.92 1679.68C1175.01 1682.29 1188.28 1673.33 1197.52 1669.39C1196.44 1663.61 1199.74 1653.45 1195.8 1650.53C1187.96 1656.98 1174.61 1657.93 1163.2 1660.82H1163.22ZM1194.11 1672.82C1187.13 1679.55 1177.06 1683.21 1164.94 1684.81C1165.96 1688.36 1162.82 1696.07 1166.66 1696.81C1176.4 1695.65 1186.35 1685.67 1190.67 1684.81C1186.63 1694.5 1176.14 1697.73 1164.94 1700.24V1713.96C1173.46 1713.34 1179.6 1710.32 1185.53 1707.1C1189.61 1705.28 1181.85 1699.21 1187.24 1696.81C1196.67 1721 1169.88 1722.54 1166.65 1739.68C1193.07 1736.87 1198.93 1695.47 1194.11 1672.82ZM1096.31 1689.97C1096.49 1699.5 1094.95 1710.76 1099.74 1715.68C1120.53 1716.8 1133.85 1716.8 1154.64 1715.68V1701.96C1141.54 1703.92 1112.5 1710.86 1103.17 1700.26C1120.78 1701.77 1142.8 1703.72 1154.64 1695.1V1689.97C1139.63 1687.11 1114.72 1695.96 1096.31 1689.97ZM1164.94 1720.82C1166.94 1721.12 1166.8 1723.53 1166.66 1725.97C1176.22 1724.66 1182.87 1720.46 1185.53 1712.25C1177.75 1714.19 1170.06 1716.23 1164.94 1720.82ZM1098.03 1731.11C1113.95 1736.62 1146.28 1736.84 1156.37 1725.97C1149.62 1711.66 1115.02 1726.61 1098.03 1719.11V1731.11ZM1137.5 1737.97C1123.69 1738.71 1105.1 1735.71 1099.76 1739.68C1109.86 1751.54 1144.33 1746.44 1156.38 1739.68C1157.25 1729.53 1144.64 1737.59 1137.51 1737.97H1137.5ZM1166.66 1749.97C1171.67 1752.86 1180.39 1747.24 1185.53 1744.83C1184.55 1741.81 1187.6 1734.75 1183.81 1734.54C1181.99 1743.57 1166.15 1738.61 1166.65 1749.97H1166.66ZM952.203 1924.84C960.267 1929.75 965.801 1926.76 969.365 1919.71C963.42 1921.09 962.763 1917.15 957.344 1918C956.834 1921.5 952.696 1921.37 952.203 1924.86V1924.84ZM1096.33 1797.97C1098.28 1789.06 1122.03 1801.94 1118.63 1787.68C1118.48 1784.96 1103.34 1791.59 1103.19 1784.25C1121.76 1777.57 1144.17 1783.28 1163.25 1775.68C1151.83 1762.44 1117.63 1784.76 1101.48 1772.25C1119.3 1767.77 1142.41 1768.56 1159.82 1763.67C1157.27 1763.36 1158.24 1759.53 1158.09 1756.81C1142.79 1758.25 1117.56 1767.53 1103.19 1758.52C1113 1753.08 1147.19 1763.06 1156.38 1748.23C1143.89 1747.01 1116.38 1753.41 1099.76 1748.23C1093.83 1850.32 1014.53 1879.09 936.766 1909.4C930.411 1922.84 948.705 1929.77 955.636 1919.69C957.294 1913.47 947.934 1918.25 948.771 1912.83C967.542 1903.59 996.692 1904.71 1012.26 1892.25C1008.71 1891.23 1000.99 1894.37 1000.26 1890.53C1037.96 1885.92 1054.2 1859.86 1079.18 1842.53C1074.94 1841.18 1067.31 1848.76 1067.18 1840.82C1075.37 1834.73 1092.39 1837.42 1099.78 1830.53C1095.51 1830.79 1092.65 1829.64 1091.2 1827.1C1108.33 1826.51 1120.42 1820.86 1134.1 1816.81C1134.62 1820.76 1129.14 1818.71 1128.96 1821.96C1134.07 1823.49 1139.4 1816.61 1140.96 1820.26C1131.95 1828.4 1112.55 1826.16 1103.22 1833.98C1120.78 1830.41 1141.32 1844.05 1159.85 1839.11C1147.53 1834.27 1126.71 1837.93 1116.95 1830.55C1138.81 1827.81 1151.42 1815.82 1170.15 1809.97C1155.91 1806.57 1134.85 1821.85 1118.68 1811.69C1136.32 1810.46 1150.82 1806.08 1166.71 1803.12C1143.71 1800.66 1118.41 1800.15 1096.38 1797.99L1096.33 1797.97ZM1060.3 1931.7C1065.81 1930.36 1071.68 1929.36 1075.73 1926.57C1076.82 1920.81 1076.95 1914.06 1080.87 1911.14C1081.96 1917.46 1074.67 1924.24 1079.15 1928.29C1081.17 1925.17 1088.1 1926.95 1091.15 1924.86C1093.58 1920.43 1091.28 1911.29 1098.02 1911.14C1095.08 1914.49 1095.03 1920.74 1092.86 1924.86C1130.07 1912.9 1157.71 1891.38 1200.95 1885.42C1202.99 1881.16 1202.78 1874.66 1211.25 1876.86C1219.22 1836.44 1186.4 1815.14 1190.66 1784.27C1192.13 1773.57 1197.21 1765.28 1188.95 1756.84C1187.8 1764.85 1176.65 1762.83 1173.51 1768.84C1177.77 1768.59 1181.84 1768.53 1182.08 1772.27C1180.1 1780 1168.22 1777.87 1163.22 1782.56C1170.13 1782.51 1176.45 1783.05 1178.65 1787.7C1175.83 1796.31 1162.2 1794.11 1154.63 1797.99C1161.2 1802.29 1175.75 1798.59 1180.36 1804.85C1181.94 1813.86 1172.53 1811.87 1171.79 1818.57C1175.07 1819.29 1179.18 1819.19 1178.65 1823.7C1169.92 1833.83 1142.65 1825.44 1132.32 1833.99C1144.92 1835.12 1162.05 1831.73 1171.79 1835.72C1149.9 1855.56 1090.97 1838.39 1070.56 1859.72C1105.08 1860.5 1145.02 1857.56 1163.22 1847.73C1160.44 1854.67 1149.01 1852.96 1146.05 1859.72H1161.49C1166.5 1855.54 1172.72 1843.58 1178.65 1846.01C1172.59 1852.03 1171.16 1856.11 1175.22 1864.86C1171.72 1865.37 1171.85 1869.51 1168.36 1870.01C1162.97 1870.82 1163.82 1865.4 1159.78 1864.86C1130.24 1885.06 1083.43 1888.02 1053.4 1907.73C1071.58 1907.6 1086.79 1895.39 1098 1894.01C1086.03 1903.2 1071.27 1909.6 1053.4 1912.86C1051 1919.66 1042.69 1929.54 1044.83 1935.15C1047.83 1932.44 1053.97 1932.85 1058.55 1931.72C1061.4 1926.55 1060.57 1917.74 1067.13 1916.29C1064.43 1921.02 1062.35 1926.37 1060.26 1931.72L1060.3 1931.7ZM1166.68 1763.67C1177.96 1763.72 1192.68 1759.29 1187.27 1748.24C1180.69 1753.68 1164.51 1749.51 1166.68 1763.67ZM1123.78 1791.11C1135.48 1798.49 1161.46 1792.82 1171.82 1787.68C1158.5 1784.92 1132.08 1779.92 1123.78 1791.11ZM1156.38 1825.41C1162.16 1824.9 1168.09 1824.54 1171.82 1821.98C1164.78 1820.04 1160.59 1820.83 1156.38 1825.41ZM1080.89 1842.56C1084.45 1843.53 1084.52 1845.23 1082.6 1847.71C1093.42 1845.38 1106.77 1845.58 1115.2 1840.85C1108.12 1834.53 1090.17 1840.38 1080.89 1842.56ZM1056.86 1868.28C1059.2 1871.92 1066.4 1871.62 1065.44 1878.56C1087.13 1872.82 1112.09 1870.31 1132.36 1863.14C1107.23 1864.89 1081.73 1866.26 1056.86 1868.28ZM1110.06 1880.27C1117.69 1878.15 1144.69 1871.64 1134.08 1871.71C1123 1871.79 1109.27 1876.51 1096.34 1878.56C1086.41 1880.14 1071.84 1877.04 1072.32 1888.85C1084.52 1887.99 1097.74 1883.7 1110.06 1880.29V1880.27ZM998.531 1904.28C1026.6 1903.74 1042.49 1891.07 1058.59 1878.56C1058.39 1876.46 1058.08 1874.51 1055.16 1875.13C1035.28 1883.85 1018.29 1895.44 998.531 1904.28ZM1034.56 1900.85C1047.16 1898.57 1056.54 1893.09 1065.45 1887.13C1053.58 1890.13 1043.41 1894.83 1034.56 1900.85ZM1044.86 1904.28C1055.04 1902.46 1063.63 1899.03 1070.59 1893.99C1060.39 1895.81 1051.82 1899.24 1044.86 1904.28ZM1183.83 1919.71C1189.56 1918.51 1196.55 1909.65 1194.12 1905.99C1191.94 1911.81 1184.61 1912.49 1183.83 1919.71ZM1036.27 1918H1027.7C1026.32 1925.19 1021.67 1929.11 1020.83 1936.86C1031.98 1936.56 1029.73 1922.88 1036.27 1918ZM1029.41 1936.86C1035.37 1938.24 1036.01 1934.3 1041.41 1935.15C1040.93 1927.17 1051.03 1920.84 1046.55 1914.57C1035.86 1917.03 1033.15 1927.47 1029.39 1936.86H1029.41ZM1194.12 1923.14C1199.21 1925.17 1201.5 1915.92 1197.55 1914.57C1196.82 1917.84 1192.66 1917.67 1194.12 1923.14ZM996.807 1919.71C983.619 1917.95 980.548 1926.32 976.213 1933.43C990.073 1935.84 993.194 1927.54 996.807 1919.71ZM989.942 1935.13C1002.72 1937.61 1001.95 1926.55 1007.09 1921.41C997.546 1916.98 994.639 1929.51 989.942 1935.13ZM981.353 1921.41C979.333 1921.15 976.492 1921.71 976.213 1919.71C970.662 1921.02 967.246 1924.45 965.916 1930C970.761 1928.57 970.367 1932.41 974.489 1931.7C976.607 1928.09 979.235 1925.01 981.353 1921.41ZM1012.24 1936.84C1022.05 1936.92 1020.45 1925.62 1024.25 1919.69C1014.97 1920.13 1015.22 1930.1 1012.24 1936.84ZM953.911 1935.13C944.78 1933.58 937.817 1922.04 931.61 1923.14C936.06 1929.01 947.638 1936.79 953.911 1935.13ZM1001.95 1936.84C1012.16 1937.33 1012.31 1927.77 1015.68 1921.41C1005.31 1920.77 1004.95 1930.15 1001.95 1936.84ZM809.788 1924.84C818.558 1922.42 828.395 1931.16 832.09 1923.14C825.948 1923.93 807.505 1921.35 809.788 1924.84ZM849.251 1924.84C899.29 1923.84 838.79 1922.01 838.954 1926.57C838.954 1926.09 850.647 1928.42 849.251 1928.27C854.441 1928.83 875.461 1928.78 880.142 1924.84C871.602 1924.98 858.267 1924.66 849.251 1924.84ZM933.318 1931.7C926.962 1931.13 919.49 1922.74 912.724 1928.27C920.919 1927.01 927.833 1935.95 933.318 1931.7ZM874.985 1931.7C862.389 1932.84 845.261 1929.44 835.522 1933.41C849.596 1931 868.038 1937.83 874.985 1931.7ZM1043.12 1950.56C1049.54 1950.69 1054.97 1949.84 1058.55 1947.13C1052.13 1947.02 1046.7 1947.85 1043.12 1950.56Z" fill="black"/>
<path fill-rule="evenodd" clip-rule="evenodd" d="M832.09 315.02C826.654 341.41 854.654 366.24 847.527 388.74C838.445 387.525 838.79 376.891 835.522 369.883C818.394 357.279 805.223 340.72 784.054 332.17C787.881 358.116 826.917 372.706 826.95 402.459C800.854 393.105 787.191 371.327 761.753 361.316C763.017 375.003 778.257 380.747 787.487 388.74C796.962 396.962 808.245 404.773 809.788 416.179C798.44 433.263 777.338 419.543 758.32 417.886C748.73 417.049 739.123 421.989 732.586 416.179C744.526 396.207 779.078 417.065 796.059 412.749C786.189 388.74 744.624 387.771 751.456 352.733C775.564 345.069 784.941 365.813 799.491 373.313C792.298 355.917 768.552 355.08 772.05 327.017C777.436 321.043 786.238 318.68 794.351 323.587C793.399 317.597 782.281 301.908 787.487 289.288C801.955 281.098 812.991 296.853 818.377 308.144C853.455 294.72 855.295 341.36 869.845 359.577C874.723 347.876 875.905 332.498 885.282 325.294C899.011 325.524 905.695 323.915 914.448 327.001C902.591 331.727 903.314 349.024 888.714 351.01C883.196 341.41 897.172 338.209 900.719 332.154C876.496 335.42 874.115 384.21 895.579 390.446C894.659 374.363 889.65 349.287 911.016 347.58C895.021 360.233 913.972 390.479 900.719 405.873C893.74 405.988 893.329 399.538 893.855 392.153C859.302 380.403 853.702 339.703 832.09 315.004V315.02ZM828.658 349.32C823.797 339.883 820.299 329.101 820.085 315.02C802.907 315.611 806.783 295.163 792.643 292.734C792.364 308.899 814.403 317.564 804.648 332.17C813.45 335.978 822.614 348.466 828.658 349.32Z" fill="black"/>
<path fill-rule="evenodd" clip-rule="evenodd" d="M1161.51 328.74C1157.73 340.409 1137.91 350.879 1120.34 354.457C1134.79 346.612 1151.62 341.131 1161.51 328.74Z" fill="black"/>
<path fill-rule="evenodd" clip-rule="evenodd" d="M861.256 436.76C871.208 441.683 880.963 461.639 890.422 472.766C879.616 468.696 871.898 446.705 861.256 436.76Z" fill="black"/>
<path fill-rule="evenodd" clip-rule="evenodd" d="M835.522 441.896C852.634 447.082 871.799 465.069 883.558 481.333C868.12 467.613 853.915 452.646 835.522 441.896Z" fill="black"/>
<path fill-rule="evenodd" clip-rule="evenodd" d="M1077.44 455.615C1054.78 492.409 1012.88 524.838 996.807 573.924C991.634 551.407 1014.77 532.781 1029.41 513.908C1045.33 493.377 1058.92 470.008 1077.44 455.615Z" fill="black"/>
<path fill-rule="evenodd" clip-rule="evenodd" d="M1074.01 469.336C1052.25 505.9 1021.47 548.274 1005.38 596.211C1003.18 584.28 1014.33 570.872 1017.38 558.498C1009.83 564.078 1007.92 575.336 1001.95 582.508C1016 541.677 1049.06 504.997 1074.01 469.352V469.336Z" fill="black"/>
<path fill-rule="evenodd" clip-rule="evenodd" d="M1286.76 603.07C1261.85 628.475 1213.85 645.641 1168.37 656.226C1208.56 639.224 1254.28 627.769 1286.76 603.07Z" fill="black"/>
<path fill-rule="evenodd" clip-rule="evenodd" d="M1281.6 642.507C1266.97 661.035 1219.51 661.61 1185.52 666.517C1195.45 653.289 1213.91 648.809 1230.12 640.8C1248.09 631.922 1264.49 621.632 1290.18 620.221C1256.3 628.656 1231.81 646.479 1200.95 657.934C1226.24 654.619 1254.13 639.061 1279.88 630.494C1262.52 643.443 1238.84 650.073 1216.39 657.934C1237.81 659.312 1264.97 651.632 1281.59 642.507H1281.6Z" fill="black"/>
<path fill-rule="evenodd" clip-rule="evenodd" d="M1249.01 695.663C1245.43 691.806 1239.04 690.756 1235.28 687.096C1253 698.174 1270.67 682.665 1290.18 676.807C1279.22 681.861 1270.65 689.296 1259.3 693.956C1264.15 699.684 1275.5 700.39 1279.9 693.956C1273.52 703.032 1259.52 719.295 1242.16 723.103C1250.42 715.931 1260.81 710.893 1267.89 702.523C1263.51 705.018 1248.35 698.863 1238.73 702.523C1238.05 692.332 1224.01 695.515 1219.86 688.803C1221.79 685.619 1236.48 698.141 1249.02 695.663H1249.01Z" fill="black"/>
<path fill-rule="evenodd" clip-rule="evenodd" d="M1212.98 812.248C1227.2 790.454 1242.08 769.316 1255.87 747.096C1250.11 763.704 1231.55 797.035 1212.98 812.248Z" fill="black"/>
<path fill-rule="evenodd" clip-rule="evenodd" d="M1269.6 745.371C1263.93 766.574 1244.49 788.861 1230.14 807.094C1228.41 798.035 1241.55 788.385 1249.01 777.947C1256.59 767.313 1262.67 754.561 1269.6 745.371Z" fill="black"/>
<path fill-rule="evenodd" clip-rule="evenodd" d="M977.921 772.812C992.192 775.143 1002.88 795.87 1020.82 800.252C1002.06 802.418 991.108 781.937 977.921 772.812Z" fill="black"/>
<path fill-rule="evenodd" clip-rule="evenodd" d="M1149.5 836.241C1139.71 830.021 1124.62 829.119 1110.04 827.675C1104.8 825.016 1117.48 826.165 1120.34 825.951C1106.36 809.622 1085.01 800.678 1074.01 781.379C1079.97 778.835 1079.64 786.958 1082.58 789.945C1094.08 801.63 1115.23 810.541 1123.77 825.951C1137.19 827.986 1152 828.594 1158.07 837.948C1124.06 840.902 1081.45 838.063 1068.85 813.938C1074.32 814.792 1081.35 828.856 1092.86 829.365C1087.06 814.004 1064.93 800.137 1055.12 783.069C1063.88 790.996 1088.64 812.363 1098.02 831.072C1114.64 833.32 1129.83 836.996 1149.49 836.208L1149.5 836.241Z" fill="black"/>
<path fill-rule="evenodd" clip-rule="evenodd" d="M1285.04 781.379C1277.38 790.881 1281.77 827.265 1269.6 837.965C1273.54 824.606 1274.17 793.474 1285.04 781.379Z" fill="black"/>
<path fill-rule="evenodd" clip-rule="evenodd" d="M1249.01 831.104C1258.35 819.862 1265.84 806.782 1273.03 793.391C1273.08 800.497 1262.64 826.295 1249.01 831.104Z" fill="black"/>
<path fill-rule="evenodd" clip-rule="evenodd" d="M917.88 897.963C944.255 920.758 981.353 947.689 1025.97 957.979C980.975 953.777 943.45 927.273 917.88 897.963Z" fill="black"/>
<path fill-rule="evenodd" clip-rule="evenodd" d="M1161.51 957.979C1138.3 971.239 1107.95 936.645 1096.31 918.543C1108.53 926.535 1130.96 962.558 1161.51 957.979Z" fill="black"/>
<path fill-rule="evenodd" clip-rule="evenodd" d="M1092.88 956.256C1096.64 952.629 1102.86 961.064 1106.61 963.116C1108.89 960.162 1099.73 954.073 1096.31 951.119C1109.65 955.517 1124.15 973.586 1147.78 973.405C1131.54 978.969 1105.72 965.413 1092.88 956.256Z" fill="black"/>
<path fill-rule="evenodd" clip-rule="evenodd" d="M814.928 1847.83C808.277 1849.17 809.46 1858.36 806.356 1863.25C807.735 1867.59 813.418 1867.62 816.653 1870.11C811.677 1861.53 873.392 1874.64 861.272 1876.97H905.876C905.137 1873.13 897.418 1876.29 893.871 1875.27C903.675 1869.06 921.099 1870.48 935.042 1868.41C907.896 1861.29 877.022 1878.91 845.819 1868.41C837.903 1865.75 826.276 1863.7 816.653 1861.55C838.429 1854.8 887.138 1873.18 917.881 1863.25C912.51 1858 905.202 1865.36 897.287 1863.25C938.064 1858.27 979.99 1854.46 1013.95 1842.68C979.826 1844 936.077 1850.57 898.995 1854.69C899.258 1851.52 904.808 1853.64 905.859 1851.26C899.668 1849.68 885.742 1855.11 873.261 1852.96C873.54 1850.96 876.381 1851.52 878.401 1851.26C875.034 1847.45 867.02 1853.51 859.532 1851.26C869.303 1842.15 886.169 1848.73 898.995 1847.83C936.274 1845.2 976.164 1834.99 1008.8 1828.97C987.692 1825.61 959.117 1829.61 936.734 1830.69C953.435 1818.8 983.275 1820.06 1005.36 1813.55C989.663 1808.74 971.237 1816.01 952.171 1813.55C941.02 1823.56 930.362 1834.04 909.275 1834.12C914.662 1822.36 937.834 1828.38 941.874 1815.27C942.169 1811.56 935.781 1814.5 933.301 1813.56C941.562 1805.24 956.769 1803.86 960.743 1791.28C987.971 1788.83 1009.44 1795.49 1037.94 1791.28C1040.95 1788.71 1034.41 1781.18 1036.22 1774.13C1011.95 1779.59 987.446 1784.83 962.451 1789.55C973.076 1775.03 998.121 1774.91 1015.64 1767.27C1009.06 1761.92 1003.36 1772.07 995.05 1770.7C1002.06 1766.53 1010.37 1761.52 1020.78 1765.56C1013.16 1761.64 1025.86 1759.91 1024.22 1751.84C1012.93 1747.67 1001.54 1743.65 989.909 1739.84C999.878 1737.33 1012.23 1747.23 1027.65 1745C1015.97 1727.34 975.819 1745.03 971.04 1727.85C974.292 1721.4 984.063 1721.43 991.617 1719.28C987.659 1713.24 977.018 1723.91 972.748 1717.56C975.113 1711.35 985.41 1713.08 993.342 1712.42V1705.56C989.86 1702.21 974.998 1709.15 971.04 1705.56C974.012 1699.39 985.065 1701.29 993.342 1700.42V1693.56C987.972 1687.2 976.147 1697.94 971.04 1691.84C972.403 1683.5 990.829 1692.2 995.05 1686.7V1678.14C988.3 1672.03 975.934 1682.19 969.316 1676.41C973.454 1670.83 984.802 1672.46 993.325 1671.28C996.445 1669.24 994.672 1662.33 996.757 1659.28C989.959 1656.21 973.454 1664.84 964.159 1659.28C973.421 1655.96 984.983 1654.93 996.757 1654.14V1645.58C988.218 1639.41 972.896 1650.24 964.159 1643.87C968.018 1634.01 995.247 1647.5 996.757 1635.3C990.665 1625.16 971.171 1639.04 962.451 1631.87C968.642 1624.91 986.674 1629.81 996.757 1626.74V1614.74C987.298 1614.25 968.297 1621.19 962.451 1613.02C975.375 1613.94 983.439 1609.98 996.757 1611.31V1604.45C987.725 1598.92 970.646 1609.14 960.727 1602.74C965.982 1594.29 988.53 1603.1 996.757 1597.61V1585.61C983.357 1587.07 971.565 1590.16 955.586 1589.04C962.862 1578.6 991.157 1589.15 996.757 1577.04C985.886 1570.46 962.796 1583.87 953.862 1573.61C969.759 1574.63 980.302 1570.31 995.033 1570.18V1558.19C981.008 1558.14 965.489 1564.88 952.138 1559.89C961.334 1552.52 984.194 1558.78 995.033 1553.03C987.2 1542.99 955.307 1560.45 948.705 1546.17C963.19 1546.6 987.413 1551.95 993.309 1539.31C981.386 1537.13 965.079 1545.39 946.981 1542.74C956.884 1532.06 988.957 1543.55 993.309 1527.32C980.204 1523.69 958.608 1530.58 943.549 1525.61C942.498 1518.85 952.959 1523.59 957.278 1522.18C954.716 1517.88 942.432 1523.3 943.549 1515.32C957.262 1515.86 982.798 1521.08 993.309 1513.61C984.933 1506.75 946.965 1518.72 938.409 1506.75C951.037 1506.13 961.991 1507.2 972.731 1508.48C958.953 1503.95 941.989 1502.62 933.268 1493.05C946.275 1497.86 978.479 1509.3 998.465 1498.19C997.414 1499.71 996.396 1501.26 998.465 1501.62C1018.81 1504.23 1028.6 1487.16 1046.5 1493.05C1034.76 1503.6 1012.34 1503.49 998.465 1511.91C1011.47 1520.1 1031.08 1505.82 1044.79 1503.32C1034.69 1512.09 1020.29 1516.55 1003.61 1518.75C1016.15 1522.12 1033.2 1515.19 1046.5 1513.61C1036.89 1523.44 1014.02 1520.01 1001.9 1527.33C1012.64 1534.93 1033.13 1523.31 1046.5 1522.2C1043.33 1532.77 1008.75 1526.74 1003.61 1541.05C1016.53 1544.22 1032.3 1535.46 1044.79 1532.49C1040.59 1540.32 1017.53 1544.09 1003.61 1547.91C1011.62 1559.12 1033.64 1545.04 1046.5 1544.48C1036.58 1552.3 1022.08 1555.51 1005.33 1556.48V1568.48C1020.09 1566.08 1036.04 1564.87 1046.5 1558.19C1046.68 1571.53 1011.21 1564.06 1007.04 1578.77C1018.48 1579.32 1038.72 1573.86 1053.37 1571.91C1058.59 1569.35 1049.69 1562.14 1056.8 1563.34C1060.31 1589.89 1061.74 1616.92 1060.23 1642.21C1059.16 1659.92 1049.74 1671.36 1048.23 1685.08C1046.81 1697.93 1053.79 1710.58 1055.09 1726.24C1055.57 1732.03 1052.56 1738.66 1053.38 1745.09C1056.14 1767.23 1077.41 1775.52 1073.98 1799.96C1052.28 1782.08 1041.8 1754.28 1043.09 1717.65C1032.44 1719.25 1005.07 1718.36 995.05 1726.24C998.548 1730.18 1009.3 1726.86 1015.64 1727.94C1016.37 1731.52 1014.46 1732.49 1013.92 1734.8C1031.34 1732.77 1041.31 1752.79 1034.51 1763.95C1049.57 1776.34 1051.51 1800.63 1053.38 1822.24C1027.11 1825.13 1007.17 1834.35 983.028 1839.39C1000.55 1841.92 1028.03 1830.78 1044.79 1832.53C1033.3 1857.66 995.263 1869.46 959.002 1875.4C955.274 1876.35 964.816 1882.03 959.002 1885.69C923.875 1883.74 897.763 1890.79 862.915 1889.12C856.838 1889.32 866.561 1894.8 861.207 1894.27C825.045 1888.36 782.511 1892.2 742.818 1890.84C719.383 1890.04 689.954 1890.94 675.896 1882.28C654.678 1881.19 629.092 1884.47 610.699 1880.57C613.852 1876.86 620.815 1876.96 627.861 1877.14C623.673 1872.45 606.528 1876.73 595.262 1877.14C580.86 1877.66 560.611 1875.73 586.69 1875.43C627.22 1872.08 672.431 1869.62 713.651 1872C688.377 1876.47 649.587 1873.1 620.996 1878.86C657.421 1883.82 697.245 1877.34 730.796 1873.72C730.583 1869.93 723.521 1873 720.499 1872C743.836 1870.41 777.748 1873.09 806.29 1872C807.062 1867.23 796.946 1873.35 797.718 1868.57C794.433 1859.12 800.411 1845.32 806.29 1839.43C856.674 1836.64 907.978 1822.98 922.955 1779.41C940.708 1774.86 946.784 1758.65 953.829 1743.4C949.444 1731.34 945.897 1716.11 955.537 1707.4C955.258 1619.09 929.146 1556.59 919.506 1477.64C929.261 1483.32 925.895 1502.13 936.668 1506.79C943.467 1570.38 961.86 1636.99 965.834 1709.1C964.323 1714.45 961.17 1718.16 958.97 1722.82C959.068 1729.01 963.239 1731.13 964.11 1736.54C962.073 1764.21 945.224 1777.11 928.079 1789.7C924.187 1812.74 904.151 1824.95 880.043 1834.27C856.576 1843.35 841.566 1851.96 814.846 1847.99L814.928 1847.83ZM1007.09 1583.79V1595.8C1021.77 1593.75 1053.76 1594.54 1055.12 1573.51C1040.08 1577.91 1024.66 1581.93 1007.09 1583.8V1583.79ZM1007.09 1604.37C1014.35 1612.21 1051.59 1608.5 1049.98 1590.65C1036.76 1596.29 1018.22 1596.62 1007.09 1604.37ZM1007.09 1614.66V1623.22C1020.29 1623.08 1047.31 1622.4 1049.98 1606.07C1039.37 1605.78 1021.67 1613.2 1007.09 1614.66ZM1007.09 1635.24C1014.51 1640.69 1035.47 1632.2 1048.27 1631.81C1047.21 1627.16 1050.46 1618.2 1046.57 1616.38C1039.01 1628.26 1012.75 1621.45 1007.1 1635.24H1007.09ZM1007.09 1642.1V1652.39C1020.57 1646.99 1043.66 1651.21 1049.98 1638.67C1048.65 1638.29 1048 1637.24 1048.27 1635.24C1033.07 1636.06 1022.98 1641.97 1007.09 1642.1ZM1007.09 1655.82C1007.84 1661.71 1006.41 1665.43 1005.38 1669.54C1020.8 1663.79 1045.91 1667.75 1048.27 1648.96C1037.04 1646.89 1022.59 1656.41 1007.09 1655.82ZM1005.38 1674.67V1686.67C1017.61 1685.75 1027.19 1682.17 1037.98 1679.81C1039 1675.48 1047.49 1662.96 1041.41 1662.66C1032.2 1669.45 1017.25 1670.52 1005.38 1674.66V1674.67ZM1034.55 1683.24C1027.6 1691.74 1004.11 1683.7 1003.65 1698.67C1016.2 1698.06 1025.18 1693.89 1037.98 1693.53C1036.94 1690 1040.74 1681.62 1034.55 1683.24ZM1029.39 1710.66C1034.71 1710.48 1037.58 1712.76 1041.39 1714.09C1042.81 1709.25 1038.98 1709.65 1039.69 1705.53C1035.4 1706.4 1032.64 1708.76 1029.39 1710.66ZM1039.69 1696.94C1030.87 1699.24 1004.2 1697.86 1000.22 1710.66C1010.96 1710.29 1037.83 1711.84 1039.69 1696.94ZM974.489 1729.52C982.683 1730.85 985.525 1726.84 993.358 1727.8C993.292 1718.38 978.184 1726.78 974.489 1729.52ZM960.76 1803.24C967.838 1803.45 971.5 1800.27 979.629 1801.53C977.707 1792.82 959.659 1792.47 960.76 1803.24ZM1043.12 1796.38C1023.03 1798.59 998.153 1796.02 988.218 1808.38C999.631 1809.38 1014.46 1807.8 1025.96 1806.67C1031.87 1806.08 1044.6 1810.87 1044.83 1801.52C1041.07 1800.68 1038.54 1804.75 1043.1 1796.38H1043.12ZM964.192 1808.38C971.106 1807.28 982.437 1810.61 986.493 1806.67C981.846 1802.88 963.371 1806.92 964.192 1808.38ZM984.786 1823.8C1008.11 1823.67 1030.21 1822.34 1046.55 1815.22C1028.85 1807.77 1000.83 1818.3 984.786 1823.8ZM960.76 1870.1C984.95 1866.27 1007.02 1860.32 1024.23 1849.52C1024.61 1847.37 1026.91 1846.01 1022.52 1846.09C1002.78 1854.93 979.859 1860.61 960.76 1870.1ZM926.437 1873.53C906.483 1874.61 934.5 1875.96 941.874 1875.23C941.003 1871.84 951.333 1871.31 945.306 1868.37C941.775 1872.86 931.889 1870.97 926.437 1873.51V1873.53ZM782.313 1875.23C769.143 1876.37 751.439 1872.97 741.126 1876.94C754.297 1875.81 771.984 1879.21 782.313 1875.23ZM780.589 1882.09C799.475 1879.24 815.06 1888.77 830.349 1883.82C815.109 1882.36 794.565 1874.2 780.589 1882.09ZM730.829 1880.39H706.803C706.77 1883.23 702.041 1881.36 701.663 1883.82C708.987 1882.16 735.723 1882.96 730.829 1880.39ZM746.266 1883.82C743.425 1888.31 754.888 1882.29 759.995 1883.82C766.893 1885.51 775.055 1885.92 784.005 1885.52C787.634 1883.03 755.069 1879.6 746.266 1883.82Z" fill="black"/>
<path fill-rule="evenodd" clip-rule="evenodd" d="M947.047 1784.38C947.457 1794.69 927.307 1813.99 921.313 1808.39C937.177 1804.98 939.608 1789.65 947.047 1784.38Z" fill="black"/>
<path fill-rule="evenodd" clip-rule="evenodd" d="M955.619 1789.54C954.535 1795.33 946.111 1793.74 945.322 1799.82C943.007 1797.4 948.689 1788.42 955.619 1789.54Z" fill="black"/>
<path fill-rule="evenodd" clip-rule="evenodd" d="M1166.66 544.777C1181.58 559.022 1205.63 564.126 1216.42 582.507C1195.6 574.728 1178.23 563.535 1152.93 560.22C1167.88 569.296 1188.47 572.709 1197.55 587.66C1169.37 571.232 1141.36 554.673 1103.19 548.224C1136.45 564.126 1170.77 578.995 1195.85 603.086C1189.52 609.963 1178.59 594.881 1170.11 592.797C1173.86 599.903 1185.2 599.427 1187.27 608.223C1167.21 597.228 1145.53 587.266 1123.8 577.354C1102.37 567.589 1078.98 559.564 1062.04 544.777C1065.11 544.564 1065.65 546.878 1068.9 546.501C1068.59 541.659 1060.74 544.367 1062.04 537.934C1072.88 537.803 1061.31 535.735 1062.04 531.074C1108.09 535.948 1152.39 557.348 1195.86 570.51C1164.58 548.043 1133.1 525.79 1082.63 522.507C1088.16 514.663 1107.61 519.422 1115.23 520.801C1144.46 526.069 1173.64 544.63 1194.16 556.807C1172.18 535.899 1136.74 513.596 1098.07 503.651C1102.99 509.575 1110.88 512.579 1122.09 512.218C1115.28 519.094 1094.75 512.89 1094.64 501.928C1148.47 511.02 1193.38 543.826 1225.03 580.8C1205.62 568.771 1188.08 554.87 1166.7 544.794L1166.66 544.777ZM1101.47 541.347C1092.48 540.051 1086.62 535.604 1077.44 534.488C1081.96 539.148 1095.88 543.432 1101.47 541.347ZM1091.17 549.914C1117.36 562.026 1146.51 580.324 1171.8 587.627C1146.92 574.203 1117.97 555.707 1091.17 549.914ZM1120.34 572.201C1128.73 571.626 1117.73 570.445 1118.63 567.064C1102.76 564.602 1089.86 550.111 1075.73 551.637C1091.33 557.759 1106.07 564.75 1120.34 572.217V572.201Z" fill="black"/>
<path fill-rule="evenodd" clip-rule="evenodd" d="M1146.07 760.815C1143.52 761.57 1146.74 763.014 1146.07 765.952C1135.95 755.481 1128.92 741.942 1122.04 728.239C1129.4 729.453 1126.95 740.465 1134.05 741.959C1131.67 739.185 1132.6 733.113 1128.91 731.669C1127.59 723.036 1131.03 711.565 1130.62 726.532C1135.81 743.632 1147.84 753.889 1154.64 769.398C1149.62 768.692 1149.08 763.523 1146.07 760.831V760.815Z" fill="black"/>
</g>
<defs>
<clipPath id="clip0_157_285">
<rect width="771" height="1924" fill="white" transform="translate(549 38)"/>
</clipPath>
</defs>
</svg>
